<svg viewBox="0 0 128 128" xmlns="http://www.w3.org/2000/svg"><path d="M88.28 26c1.14 0 2.06.92 2.06 2.06v4.56c0 .29-.06.57-.17.83l-29.66 67.33c-.33.75-1.07 1.23-1.88 1.23h-8.76c-1.5 0-2.49-1.55-1.87-2.92L75.64 39.1c.63-1.36-.37-2.92-1.87-2.92H39.72c-1.14 0-2.06-.92-2.06-2.06v-6.07c0-1.14.92-2.06 2.06-2.06h48.56m0-2.99H39.72c-2.79 0-5.06 2.27-5.06 5.06v6.07c0 2.79 2.27 5.06 5.06 5.06h32.56L45.26 97.83a5.054 5.054 0 0 0 4.59 7.17h8.76c2 0 3.82-1.18 4.63-3.02L92.9 34.65c.28-.65.43-1.33.43-2.04v-4.56c0-2.78-2.26-5.05-5.05-5.05z" fill="#424242" opacity=".2"/><path d="M90.16 33.44L60.5 100.77c-.33.75-1.07 1.23-1.88 1.23h-8.76c-1.5 0-2.49-1.55-1.87-2.92l27.64-59.99c.63-1.36-.37-2.92-1.87-2.92H39.72c-1.14 0-2.06-.92-2.06-2.06v-6.07c0-1.14.92-2.06 2.06-2.06h48.56c1.14 0 2.06.92 2.06 2.06v4.56c-.01.3-.07.58-.18.84z" fill="#FAFAFA"/></svg>