<svg viewBox="0 0 128 128" xmlns="http://www.w3.org/2000/svg"><linearGradient id="a" x1="64.001" x2="64.001" y1="7.673" y2="121.44" gradientUnits="userSpaceOnUse"><stop stop-color="#616161" offset="0"/><stop stop-color="#5B5B5B" offset=".223"/><stop stop-color="#484848" offset=".536"/><stop stop-color="#2B2B2B" offset=".899"/><stop stop-color="#212121" offset="1"/></linearGradient><path d="M91.86 92L80.25 75.15c-.5-.95-.15-2.11.81-2.69 2.88-1.73 5.28-3.92 7.13-6.51 2.62-3.67 3.95-8.24 3.95-13.59 0-7.84-2.59-13.95-7.68-18.16C79.48 30.09 72.4 28 63.44 28h-22c-3.31 0-6 2.69-6 6v60.8c0 3.31 2.69 6 6 6h4.85c3.31 0 6-2.69 6-6V79.5c0-1.1.9-2 2-2h7.89c.75 0 1.43.41 1.77 1.08l12.59 19a5.992 5.992 0 0 0 5.32 3.23h4.7c2.12 0 4.04-1.09 5.14-2.9 1.09-1.83 1.16-4.03.16-5.91zM72.31 60.38c-2.05 1.83-5.02 2.77-8.82 2.77h-9.2c-1.1 0-2-.9-2-2V44.36c0-1.1.9-2 2-2h9.56c3.89.06 6.83 1 8.69 2.79s2.76 4.33 2.76 7.75c0 3.23-.98 5.67-2.99 7.48z" fill="url(#a)"/><linearGradient id="b" x1="64" x2="64" y1="3.27" y2="125.06" gradientUnits="userSpaceOnUse"><stop stop-color="#616161" offset="0"/><stop stop-color="#5B5B5B" offset=".223"/><stop stop-color="#484848" offset=".536"/><stop stop-color="#2B2B2B" offset=".899"/><stop stop-color="#212121" offset="1"/></linearGradient><path d="M64 18c25.36 0 46 20.64 46 46s-20.64 46-46 46-46-20.64-46-46 20.64-46 46-46m0-14C30.86 4 4 30.86 4 64s26.86 60 60 60 60-26.86 60-60S97.14 4 64 4z" fill="url(#b)"/><path d="M64 7c31.43 0 57 25.57 57 57s-25.57 57-57 57S7 95.43 7 64 32.57 7 64 7m0 106c27.02 0 49-21.98 49-49S91.02 15 64 15 15 36.98 15 64s21.98 49 49 49M64 4C30.86 4 4 30.86 4 64s26.86 60 60 60 60-26.86 60-60S97.14 4 64 4zm0 106c-25.36 0-46-20.64-46-46s20.64-46 46-46 46 20.64 46 46-20.64 46-46 46z" fill="#eee" opacity=".2"/><path d="M63.44 31c8.25 0 14.68 1.86 19.12 5.51 4.38 3.61 6.59 8.95 6.59 15.85 0 4.71-1.14 8.7-3.39 11.84-1.61 2.26-3.71 4.17-6.24 5.69-2.31 1.39-3.15 4.31-1.92 6.66.05.1.12.2.18.3l11.49 16.68c.43.92.38 1.94-.15 2.82-.56.92-1.49 1.45-2.57 1.45h-4.7a3 3 0 0 1-2.66-1.61c-.05-.09-.1-.18-.16-.27l-12.52-18.9a4.987 4.987 0 0 0-4.34-2.52h-7.89c-2.76 0-5 2.24-5 5v15.3c0 1.65-1.35 3-3 3h-4.85c-1.65 0-3-1.35-3-3V34c0-1.65 1.35-3 3-3h22.01m-9.16 35.14h9.2c4.57 0 8.21-1.19 10.82-3.53 2.65-2.37 3.99-5.64 3.99-9.71 0-4.22-1.24-7.56-3.68-9.91-2.43-2.34-6.04-3.56-10.77-3.63h-9.56c-2.76 0-5 2.24-5 5v16.78c0 2.76 2.25 5 5 5M63.44 28h-22c-3.31 0-6 2.69-6 6v60.8c0 3.31 2.69 6 6 6h4.85c3.31 0 6-2.69 6-6V79.5c0-1.1.9-2 2-2h7.89c.75 0 1.43.41 1.77 1.08l12.59 19a5.992 5.992 0 0 0 5.32 3.23h4.7c2.12 0 4.04-1.09 5.14-2.9 1.1-1.82 1.16-4.02.17-5.9L80.25 75.15c-.5-.95-.15-2.11.81-2.69 2.88-1.73 5.28-3.92 7.13-6.51 2.62-3.67 3.95-8.24 3.95-13.59 0-7.84-2.59-13.95-7.68-18.16C79.48 30.09 72.4 28 63.44 28zm-9.16 35.14c-1.1 0-2-.9-2-2V44.36c0-1.1.9-2 2-2h9.56c3.89.06 6.83 1 8.69 2.79s2.76 4.33 2.76 7.75c0 3.23-.98 5.67-2.99 7.47-2.05 1.83-5.02 2.77-8.82 2.77h-9.2z" fill="#eee" opacity=".2"/></svg>