<svg viewBox="0 0 128 128" xmlns="http://www.w3.org/2000/svg"><linearGradient id="a" x1="64" x2="64" y1="5.667" y2="121.92" gradientUnits="userSpaceOnUse"><stop stop-color="#F06292" offset=".5"/><stop stop-color="#EF5B8D" offset=".608"/><stop stop-color="#ED467F" offset=".77"/><stop stop-color="#EA2568" offset=".964"/><stop stop-color="#E91E63" offset="1"/></linearGradient><path d="M116 124H12c-4.42 0-8-3.58-8-8V12c0-4.42 3.58-8 8-8h104c4.42 0 8 3.58 8 8v104c0 4.42-3.58 8-8 8z" fill="url(#a)"/><path d="M116 7c2.76 0 5 2.24 5 5v104c0 2.76-2.24 5-5 5H12c-2.76 0-5-2.24-5-5V12c0-2.76 2.24-5 5-5h104m0-3H12c-4.42 0-8 3.58-8 8v104c0 4.42 3.58 8 8 8h104c4.42 0 8-3.58 8-8V12c0-4.42-3.58-8-8-8z" fill="#424242" opacity=".2"/><path d="M46.75 19.22c.67 0 1.31.34 1.69.93 1.46 2.36 2.89 5.11 3.82 7.31.16.37.51.62.92.62h16.49c1.1 0 2 .9 2 2v10.18c0 1.1-.9 2-2 2H66.9c-1.1 0-2-.9-2-2v-5.13c0-.55-.45-1-1-1H31.21c-.55 0-1 .45-1 1v5.04c0 1.11.9 2 1.99 2h.09c3.41-.14 6.93-.3 10.37-.56.52-.04.92-.48.92-1v-2.86c0-.55.45-1 1-1h5.86c.55 0 1 .45 1 1v1.86c0 .56.46 1 1 1 .04 0 .07 0 .11-.01 2.79-.31 5.29-.71 7.38-1.12.13-.03.26-.04.38-.04.5 0 .99.19 1.37.55.5.47 1.18 1.12 1.86 1.77 1.18 1.12.61 3.1-.98 3.41-3.11.62-6.58 1.12-10.23 1.51-.51.05-.9.48-.9.99v3.25c0 .55.45 1 1 1h10.28c1.1 0 2 .9 2 2v2.05c0 1.1-.9 2-2 2H52.43c-.55 0-1 .45-1 1v2.88c0 .55.45 1 1 1h16.6c1.1 0 2 .9 2 2v2.05c0 1.1-.9 2-2 2H25.79c-1.1 0-2-.9-2-2v-2.05c0-1.1.9-2 2-2h16.78c.55 0 1-.45 1-1v-2.88c0-.55-.45-1-1-1h-9.92c-1.1 0-2-.9-2-2v-2.05c0-1.1.9-2 2-2h9.92c.55 0 1-.45 1-1v-2.46c0-.56-.45-1-1-1h-.06c-3.5.2-6.99.34-10.27.38h-.02c-.89 0-1.66-.59-1.9-1.44s-.55-1.76-.91-2.6c-.31-.73-1.03-1.18-1.82-1.18h-1.75c-1.33 0-2.23-.9-2.23-2V30.08c0-1.1.9-2 2-2H43.1a1 1 0 0 0 .91-1.42c-.54-1.15-1.15-2.34-1.75-3.45a1.994 1.994 0 0 1 1.05-2.81c.9-.34 1.92-.73 2.74-1.04.22-.1.47-.14.7-.14m51.64.91c1.1 0 2 .9 2 2v69.99c0 4.7-1.08 6.95-3.7 8.22-2.4 1.24-6.16 1.57-12.11 1.62h-.02c-.95 0-1.77-.66-1.96-1.59-.24-1.14-.58-2.43-.99-3.64-.43-1.29.55-2.62 1.9-2.62h.05c1.72.04 3.29.06 4.59.06 1.43 0 2.51-.02 3.03-.06 1.44 0 1.99-.45 1.99-1.99V22.13c0-1.1.9-2 2-2h3.22M82.04 31.88c1.1 0 2 .9 2 2v44.96c0 1.1-.9 2-2 2h-2.95c-1.1 0-2-.9-2-2V33.88c0-1.1.9-2 2-2h2.95M64.52 75.32c1.1 0 2 .9 2 2v22.74c0 1.1-.9 2-2 2h-3.14c-1.1 0-2-.9-2-2v-1.34c0-.55-.45-1-1-1H36.63c-.55 0-1 .45-1 1v2.06c0 1.1-.9 2-2 2h-2.86c-1.1 0-2-.9-2-2V77.32c0-1.1.9-2 2-2h33.75M36.63 91.85h21.75c.55 0 1-.45 1-1v-7.39c0-.55-.45-1-1-1H36.63c-.55 0-1 .45-1 1v7.39c0 .55.44 1 1 1m10.12-75.63c-.61 0-1.21.11-1.78.33l-2.74 1.04c-1.35.51-2.41 1.58-2.91 2.93s-.4 2.85.29 4.12l.24.45H25.6c-2.76 0-5 2.24-5 5v10.54c0 2.8 2.3 5 5.23 5h1.07c.2.52.38 1.07.52 1.59a4.987 4.987 0 0 0 2.08 2.83 4.996 4.996 0 0 0-1.85 3.88v2.05c0 1.56.72 2.96 1.85 3.88h-3.71c-2.76 0-5 2.24-5 5v2.05c0 2.76 2.24 5 5 5h43.24c2.76 0 5-2.24 5-5v-2.05c0-2.76-2.24-5-5-5h-3.17a4.981 4.981 0 0 0 1.85-3.88v-2.05c0-2.76-2.24-5-5-5h-4.18c1.62-.24 3.17-.51 4.62-.8a4.954 4.954 0 0 0 3.58-2.86h2.93c1.91 0 3.58-1.08 4.42-2.66v36.23c0 2.76 2.24 5 5 5h2.95c2.76 0 5-2.24 5-5V33.88c0-2.76-2.24-5-5-5h-2.95c-1.91 0-3.58 1.08-4.42 2.66v-1.46c0-2.76-2.24-5-5-5H54.48c-.98-2.13-2.24-4.49-3.5-6.51a4.94 4.94 0 0 0-4.23-2.35zm7.63 20.91h1.6c-.52.08-1.05.16-1.58.23.01-.07 0-.15-.02-.23zm-21.17 0h7.42c-.03.2-.05.41-.05.62v1c-2.48.16-4.97.28-7.37.38v-2zm65.18-20h-3.23c-2.76 0-5 2.24-5 5v69.01c-.44.01-1.09.02-2.02.02-1.36 0-2.92-.02-4.52-.06h-.12c-1.6 0-3.12.78-4.06 2.08a5.01 5.01 0 0 0-.69 4.48c.36 1.07.68 2.25.9 3.31a5.018 5.018 0 0 0 4.9 3.98c6.25-.05 10.44-.38 13.47-1.94 4.72-2.3 5.36-6.8 5.36-10.9V22.13c.01-2.75-2.24-5-4.99-5zM64.52 72.32H30.76c-2.76 0-5 2.24-5 5v23.46c0 2.76 2.24 5 5 5h2.86c2.76 0 5-2.24 5-5v-.06h17.8c.33 2.44 2.42 4.34 4.96 4.34h3.14c2.76 0 5-2.24 5-5V77.32c0-2.76-2.25-5-5-5zM38.63 85.46h17.75v3.39H38.63v-3.39z" fill="#424242" opacity=".2"/><path d="M48.44 20.16c1.46 2.36 2.89 5.11 3.82 7.31.16.37.51.62.92.62h16.49c1.1 0 2 .9 2 2v10.18c0 1.1-.9 2-2 2H66.9c-1.1 0-2-.9-2-2v-5.13c0-.55-.45-1-1-1H31.21c-.55 0-1 .45-1 1v5.04c0 1.14.94 2.05 2.08 2 3.41-.14 6.93-.3 10.37-.56.52-.04.92-.48.92-1v-2.86c0-.55.45-1 1-1h5.86c.55 0 1 .45 1 1v1.86c0 .59.52 1.06 1.11 1 2.79-.31 5.29-.71 7.38-1.12.63-.13 1.28.07 1.75.51.5.47 1.18 1.12 1.86 1.77 1.18 1.12.61 3.1-.98 3.41-3.11.62-6.58 1.12-10.23 1.51-.51.05-.9.48-.9.99v3.25c0 .55.45 1 1 1h10.28c1.1 0 2 .9 2 2v2.05c0 1.1-.9 2-2 2H52.43c-.55 0-1 .45-1 1v2.88c0 .55.45 1 1 1h16.6c1.1 0 2 .9 2 2v2.05c0 1.1-.9 2-2 2H25.79c-1.1 0-2-.9-2-2v-2.05c0-1.1.9-2 2-2h16.78c.55 0 1-.45 1-1v-2.88c0-.55-.45-1-1-1h-9.92c-1.1 0-2-.9-2-2v-2.05c0-1.1.9-2 2-2h9.92c.55 0 1-.45 1-1v-2.46c0-.57-.48-1.03-1.06-1-3.5.2-6.99.34-10.27.38-.89.01-1.68-.58-1.92-1.44-.24-.85-.55-1.76-.91-2.6-.31-.73-1.03-1.18-1.82-1.18h-1.75c-1.33 0-2.23-.9-2.23-2V30.08c0-1.1.9-2 2-2H43.1a1 1 0 0 0 .91-1.42c-.54-1.15-1.15-2.34-1.75-3.45a1.994 1.994 0 0 1 1.05-2.81c.9-.34 1.92-.73 2.74-1.04.88-.35 1.89-.01 2.39.8zM30.76 75.32h33.76c1.1 0 2 .9 2 2v22.74c0 1.1-.9 2-2 2h-3.14c-1.1 0-2-.9-2-2v-1.34c0-.55-.45-1-1-1H36.63c-.55 0-1 .45-1 1v2.06c0 1.1-.9 2-2 2h-2.86c-1.1 0-2-.9-2-2V77.32c-.01-1.1.89-2 1.99-2zm4.87 8.14v7.39c0 .55.45 1 1 1h21.75c.55 0 1-.45 1-1v-7.39c0-.55-.45-1-1-1H36.63c-.56 0-1 .44-1 1zm46.41-2.63h-2.95c-1.1 0-2-.9-2-2V33.88c0-1.1.9-2 2-2h2.95c1.1 0 2 .9 2 2v44.96c0 1.1-.9 1.99-2 1.99zm16.35-60.7c1.1 0 2 .9 2 2v69.99c0 4.7-1.08 6.95-3.7 8.22-2.4 1.24-6.16 1.57-12.11 1.62-.96.01-1.79-.66-1.98-1.59-.24-1.14-.58-2.43-.99-3.64-.44-1.31.57-2.65 1.95-2.62 3.61.09 6.62.07 7.62 0 1.44 0 1.99-.45 1.99-1.99V22.13c0-1.1.9-2 2-2h3.22z" fill="#FAFAFA"/></svg>