<svg viewBox="0 0 128 128" xmlns="http://www.w3.org/2000/svg"><ellipse cx="-70.52" cy="64.68" rx="42.52" ry="44.1"/><path d="M-28 63.37C-28 31.06-53.26 4.8-84.41 4.8c-9.35 0-18.16 2.34-25.93 6.52 2.96-.56 6.01-.88 9.13-.88 28.13 0 50.93 23.78 50.93 52.95 0 .16-.01.62-.01.62H-28c-.01-.01 0-.47 0-.64zM-113.05 64.49c0 32.31 25.26 58.51 56.42 58.51 9.35 0 18.16-2.37 25.93-6.55-2.96.56-6.01.86-9.13.86-28.13 0-50.93-23.65-50.93-52.82 0-.16.01-.49.01-.49h-22.29s-.01.33-.01.49z"/><path d="M-70.48 20.66c-32.31 0-58.5 25.26-58.5 56.42 0 9.35 2.38 18.16 6.55 25.93-.56-2.96-.86-6.01-.86-9.13 0-28.13 23.64-50.93 52.81-50.93.16 0 .48.01.48.01V20.67s-.32-.01-.48-.01zM-69.42 109.07c32.31 0 58.55-25.26 58.55-56.42 0-9.35-2.35-18.16-6.53-25.93.56 2.96.87 6.01.87 9.13 0 28.13-23.73 50.93-52.9 50.93-.16 0-.57-.01-.57-.01v22.29s.42.01.58.01z"/><ellipse cx="-70.01" cy="63.99" rx="10.8" ry="11.2" fill="#FAFAFA"/><radialGradient id="a" cx="63.667" cy="63.898" r="51.382" gradientUnits="userSpaceOnUse"><stop stop-color="#1565C0" offset=".2"/><stop stop-color="#1E88E5" offset=".768"/></radialGradient><path d="M123.13 52.65c0-9.35-2.35-18.16-6.53-25.93.56 2.96.87 6.01.87 9.13 0 12.02-4.34 23.05-11.58 31.76.06-.97.1-1.95.1-2.93 0-.23-.01-.45-.02-.68 0 0 .01-.46.01-.63C106 31.06 80.74 4.8 49.59 4.8c-9.35 0-18.16 2.34-25.93 6.52 2.96-.56 6.01-.88 9.13-.88 11.2 0 21.55 3.78 29.96 10.16-1.38.02-2.75.11-4.1.27C28.62 23.26 5.02 47.5 5.02 77.07c0 9.35 2.38 18.16 6.55 25.93-.56-2.96-.86-6.01-.86-9.13 0-11.29 3.82-21.72 10.27-30.17 0 .1-.01.19-.01.29 0 0-.01.33-.01.49v.18c0 .79.02 1.58.06 2.36C22.3 98.17 47.03 123 77.37 123c9.35 0 18.16-2.37 25.93-6.55-2.96.56-6.01.86-9.13.86-10.09 0-19.48-3.05-27.39-8.3 31.29-1.12 56.35-25.91 56.35-56.36zM63.99 83.99c-10.65 0-19.29-8.95-19.29-20s8.63-20 19.29-20c10.65 0 19.29 8.95 19.29 20 0 11.04-8.64 20-19.29 20z" fill="url(#a)"/><path d="M49.59 7.92c29.45 0 53.42 24.99 53.42 55.7 0 .1 0 .45-.01.65-.01.08-.01.15-.01.23 0 .1 0 .19.01.29v.14c0 .88-.04 1.53-.1 2.49a3.002 3.002 0 0 0 3 3.19c.87 0 1.73-.38 2.31-1.08 5.94-7.15 9.81-15.38 11.42-24.19.34 2.4.51 4.84.51 7.32 0 13.89-5.53 27.05-15.56 37.05s-23.49 15.8-37.9 16.31c-1.3.05-2.43.93-2.78 2.18s.14 2.59 1.23 3.31c6.04 4 12.73 6.69 19.72 7.96-2.46.36-4.95.54-7.48.54-13.84 0-26.97-5.48-36.95-15.43-9.99-9.95-15.81-23.32-16.4-37.67-.04-.75-.06-1.42-.06-2.09v-.01c.01-.1.02-.2.02-.31v-.35c0-.04 0-.09.01-.13 0-.11 0-.21-.01-.32-.12-1.56-1.42-2.81-2.99-2.81-1.05 0-2.12.58-2.66 1.61-5.01 6.67-8.31 14.16-9.76 22.06-.36-2.46-.54-4.96-.54-7.49 0-13.47 5.23-26.33 14.72-36.21 9.46-9.86 22.3-15.89 36.14-17 .04 0 .07-.01.11-.01 1.2-.14 2.44-.22 3.8-.24 1.28-.02 2.4-.85 2.8-2.07s-.02-2.55-1.04-3.32c-6.61-5.01-14.08-8.34-22-9.84 2.3-.31 4.64-.46 7.03-.46m14.4 79.07c12.29 0 22.29-10.32 22.29-23s-10-23-22.29-23-22.29 10.32-22.29 23 10 23 22.29 23M49.59 4.92c-9.35 0-18.16 2.28-25.93 6.45 2.96-.56 6.01-.91 9.13-.91 11.2 0 21.55 3.76 29.96 10.15-1.38.02-2.75.11-4.1.26-30.03 2.4-53.63 26.64-53.63 56.21 0 9.35 2.38 18.16 6.55 25.93-.56-2.96-.86-6.01-.86-9.13 0-11.29 3.81-21.47 10.26-29.91v-.08.08-.01.54s-.01.08-.01.24v-.03.03c0 .79.02 1.54.06 2.33 1.29 31.13 26.02 55.95 56.35 55.95 9.35 0 18.16-2.38 25.93-6.56-2.96.56-6.01.86-9.13.86-10.09 0-19.48-3.06-27.39-8.3 31.29-1.12 56.35-25.92 56.35-56.36 0-9.35-2.35-18.16-6.53-25.93.56 2.96.87 6.01.87 9.13 0 12.02-4.34 23.05-11.58 31.76.06-.97.1-1.7.1-2.68 0-.23-.01-.43-.02-.43 0 0 .01-.71.01-.88C106 31.31 80.74 4.92 49.59 4.92zm14.4 79.07c-10.65 0-19.29-8.95-19.29-20s8.63-20 19.29-20c10.65 0 19.29 8.95 19.29 20 0 11.04-8.64 20-19.29 20zM20.95 64.74z" fill="#424242" opacity=".2"/></svg>