<svg viewBox="0 0 128 128" xmlns="http://www.w3.org/2000/svg" xmlns:xlink="http://www.w3.org/1999/xlink"><defs><path id="a" d="M3.85 4h120v120.03h-120z"/></defs><clipPath id="b"><use xlink:href="#a"/></clipPath><g clip-path="url(#b)"><path d="M123.67 4.33c-66.27 0-120 53.73-120 120s53.73 120 120 120 120-53.73 120-120-53.73-120-120-120zm0 150c-16.57 0-30-13.43-30-30s13.43-30 30-30 30 13.43 30 30-13.43 30-30 30z" fill="#F44336"/></g><g clip-path="url(#b)"><path d="M122.67 19.33c-57.99 0-105 47.01-105 105s47.01 105 105 105 105-47.01 105-105-47.01-105-105-105zm1 135c-16.57 0-30-13.43-30-30s13.43-30 30-30 30 13.43 30 30-13.43 30-30 30z" fill="#FF9800"/></g><g clip-path="url(#b)"><path d="M123.67 34.33c-49.71 0-90 40.29-90 90s40.29 90 90 90 90-40.29 90-90-40.3-90-90-90zm0 120c-16.57 0-30-13.43-30-30s13.43-30 30-30 30 13.43 30 30-13.43 30-30 30z" fill="#FFEB3B"/></g><g clip-path="url(#b)"><path d="M123.67 49.33c-41.42 0-75 33.58-75 75s33.58 75 75 75 75-33.58 75-75-33.58-75-75-75zm0 105c-16.57 0-30-13.43-30-30s13.43-30 30-30 30 13.43 30 30-13.43 30-30 30z" fill="#8BC34A"/></g><g clip-path="url(#b)"><path d="M123.67 64.33c-33.14 0-60 26.86-60 60s26.86 60 60 60 60-26.86 60-60-26.87-60-60-60zm0 90c-16.57 0-30-13.43-30-30s13.43-30 30-30 30 13.43 30 30-13.43 30-30 30z" fill="#2196F3"/></g><g clip-path="url(#b)"><path d="M123.67 79.33c-24.85 0-45 20.15-45 45s20.15 45 45 45 45-20.15 45-45-20.15-45-45-45zm0 75c-16.57 0-30-13.43-30-30s13.43-30 30-30 30 13.43 30 30-13.43 30-30 30z" fill="#673AB7"/></g><g clip-path="url(#b)" opacity=".2"><path d="M123.67 8.33c30.98 0 60.11 12.07 82.02 33.98s33.98 51.04 33.98 82.02-12.07 60.11-33.98 82.02-51.04 33.98-82.02 33.98-60.11-12.07-82.02-33.98-33.98-51.04-33.98-82.02 12.07-60.11 33.98-82.02C63.55 20.4 92.68 8.33 123.67 8.33m0-4c-66.27 0-120 53.73-120 120s53.73 120 120 120 120-53.73 120-120-53.73-120-120-120z" fill="#424242"/></g><g clip-path="url(#b)" opacity=".2"><path d="M123.67 95.37c15.97 0 28.96 12.99 28.96 28.96s-12.99 28.96-28.96 28.96-28.96-12.99-28.96-28.96 12.99-28.96 28.96-28.96m0-4c-18.2 0-32.96 14.76-32.96 32.96s14.76 32.96 32.96 32.96 32.96-14.76 32.96-32.96-14.76-32.96-32.96-32.96z" fill="#424242"/></g><g clip-path="url(#b)"><radialGradient id="c" cx="29.297" cy="189.96" r="37.538" gradientTransform="matrix(1.0458 .0007 .0007 .9524 6.582 3.125)" gradientUnits="userSpaceOnUse"><stop stop-color="#BBDEFB" offset="0"/><stop stop-color="#64B5F6" offset="1"/></radialGradient><path d="M57.18 183.88c-.08 10.34-9.35 18.66-20.71 18.57s-20.5-8.54-20.42-18.88S25.4 164.91 36.76 165s20.5 8.54 20.42 18.88z" fill="url(#c)"/><radialGradient id="d" cx="74.435" cy="187.95" r="29.901" gradientTransform="translate(-3.667 3.048) scale(.9524)" gradientUnits="userSpaceOnUse"><stop stop-color="#BBDEFB" offset="0"/><stop stop-color="#64B5F6" offset="1"/></radialGradient><circle cx="66.05" cy="182.54" r="15.89" fill="url(#d)"/><radialGradient id="e" cx="39.535" cy="123.05" r="105.82" gradientUnits="userSpaceOnUse"><stop stop-color="#E3F2FD" offset=".421"/><stop stop-color="#90CAF9" offset=".871"/></radialGradient><path d="M85.62 160.64c-.57 0-1.13.04-1.68.11.44-1.47.68-3.01.68-4.62 0-8.96-7.26-16.22-16.22-16.22-3.81 0-7.31 1.32-10.08 3.53-3.72-7.07-11.14-11.89-19.68-11.89-12.28 0-22.24 9.96-22.24 22.24 0 .45.02.89.04 1.33-9.27 1.12-16.44 9-16.44 18.56 0 10.34 8.39 18.73 18.73 18.73 8.71 0 16.01-5.95 18.1-14.01 3.27 6.7 10.13 11.33 18.09 11.33 7.31 0 13.69-3.9 17.22-9.73 2.03 5.48 7.29 9.39 13.47 9.39 7.94 0 14.38-6.44 14.38-14.38.01-7.93-6.43-14.37-14.37-14.37z" fill="url(#e)"/><path d="M38.63 133.54a20.2 20.2 0 0 1 17.91 10.82 1.992 1.992 0 0 0 1.77 1.06c.45 0 .89-.15 1.24-.43 2.54-2.02 5.6-3.09 8.84-3.09 7.84 0 14.22 6.38 14.22 14.22 0 1.36-.2 2.72-.59 4.05a2.003 2.003 0 0 0 1.92 2.57c.08 0 .15 0 .23-.01.54-.06 1.01-.09 1.45-.09 6.83 0 12.38 5.55 12.38 12.38s-5.55 12.38-12.38 12.38c-1.41 0-2.81-.25-4.18-.74a1.993 1.993 0 0 0-2.53 1.12 13.839 13.839 0 0 1-12.85 8.65c-3.88 0-7.61-1.65-10.24-4.54-.38-.42-.92-.65-1.48-.65-.05 0-.11 0-.17.01-.62.05-1.18.16-1.51.68-3.32 5.12-9.45 8.08-16 8.08h-.16c-6.9 0-13.17-3.3-16.36-8.83-.35-.61-1-.87-1.7-.89C9.37 190.12 2 182.68 2 173.62c0-8.43 6.31-15.53 14.67-16.56a1.982 1.982 0 0 0 1.75-2.09c-.03-.45-.04-.84-.04-1.2.01-11.16 9.09-20.23 20.25-20.23m0-2c-12.28 0-22.24 9.96-22.24 22.24 0 .45.02.89.04 1.33C7.17 156.24 0 164.12 0 173.68c0 10.23 8.21 18.31 18.4 18.48 3.42 5.93 10.21 9.83 18.07 9.83h.17c7.53 0 14.11-3.47 17.68-8.99 2.91 3.18 7.07 5.31 11.72 5.31 6.65 0 12.34-4.03 14.71-9.83 1.52.55 3.15.89 4.86.89 7.94 0 14.38-6.42 14.38-14.37s-6.44-14.37-14.38-14.37c-.57 0-1.13.05-1.68.11.44-1.47.68-3.01.68-4.62 0-8.96-7.26-16.22-16.22-16.22-3.81 0-7.31 1.33-10.08 3.53-3.72-7.07-11.14-11.89-19.68-11.89z" fill="#424242" opacity=".2"/></g></svg>