<svg viewBox="0 0 128 128" xmlns="http://www.w3.org/2000/svg"><path d="M65.36 19.02l12.36-14.3c1.14-1.32 3.3-.74 3.62.97l3.56 18.56a2.089 2.089 0 0 0 2.73 1.58l17.86-6.2c1.65-.57 3.22 1.01 2.65 2.65l-6.2 17.86c-.42 1.2.33 2.49 1.58 2.73l18.56 3.56c1.71.33 2.29 2.48.97 3.62l-14.3 12.36c-.96.83-.96 2.32 0 3.15l14.3 12.36c1.32 1.14.74 3.3-.97 3.62l-18.56 3.56a2.089 2.089 0 0 0-1.58 2.73l6.2 17.86c.57 1.65-1.01 3.22-2.65 2.65l-17.86-6.2c-1.2-.42-2.49.33-2.73 1.58l-3.56 18.56c-.33 1.71-2.48 2.29-3.62.97l-12.36-14.3c-.83-.96-2.32-.96-3.15 0l-12.36 14.3c-1.14 1.32-3.3.74-3.62-.97l-3.56-18.56a2.089 2.089 0 0 0-2.73-1.58l-17.86 6.2c-1.65.57-3.22-1.01-2.65-2.65l6.2-17.86c.42-1.2-.33-2.49-1.58-2.73L5.47 81.57c-1.71-.33-2.29-2.48-.97-3.62l14.3-12.36c.96-.83.96-2.32 0-3.15L4.5 50.06c-1.32-1.14-.74-3.3.97-3.62l18.56-3.56a2.089 2.089 0 0 0 1.58-2.73l-6.2-17.86c-.57-1.65 1.01-3.22 2.65-2.65l17.86 6.2c1.2.42 2.49-.33 2.73-1.58L46.21 5.7c.33-1.71 2.48-2.29 3.62-.97l12.36 14.3c.84.95 2.33.95 3.17-.01z" fill="#F9A825"/><path d="M78.75 8.11l3.2 16.71a5.096 5.096 0 0 0 4.99 4.13c.57 0 1.13-.09 1.67-.28l16.07-5.58-5.58 16.07c-.48 1.4-.34 2.93.4 4.21s1.99 2.17 3.45 2.45l16.71 3.2-12.86 11.13c-1.12.97-1.76 2.37-1.76 3.85s.64 2.88 1.76 3.85l12.87 11.13-16.71 3.2c-1.45.28-2.71 1.17-3.45 2.45s-.88 2.81-.4 4.21l5.58 16.07-16.07-5.58c-.54-.19-1.1-.28-1.67-.28-2.43 0-4.53 1.74-4.99 4.13l-3.2 16.71-11.13-12.87c-.97-1.12-2.37-1.76-3.85-1.76s-2.88.64-3.85 1.76L48.8 119.89l-3.2-16.71a5.096 5.096 0 0 0-4.99-4.13c-.57 0-1.13.09-1.67.28l-16.07 5.58 5.58-16.07c.48-1.4.34-2.93-.4-4.21s-1.99-2.17-3.45-2.45l-16.71-3.2 12.87-11.13c1.12-.97 1.76-2.37 1.76-3.85s-.64-2.88-1.76-3.85L7.89 49.03l16.71-3.2c1.45-.28 2.71-1.17 3.45-2.45s.88-2.81.4-4.21L22.87 23.1l16.07 5.58c.54.19 1.1.28 1.67.28 2.43 0 4.53-1.74 4.99-4.13l3.2-16.71 11.13 12.87c.97 1.12 2.37 1.76 3.85 1.76s2.88-.64 3.85-1.76L78.75 8.11M79.29 4c-.56 0-1.14.23-1.57.72l-12.36 14.3a2.09 2.09 0 0 1-3.16 0L49.84 4.72c-.43-.5-1-.72-1.57-.72-.94 0-1.85.63-2.06 1.69l-3.56 18.56a2.084 2.084 0 0 1-2.05 1.69c-.23 0-.46-.04-.68-.12l-17.86-6.2c-.23-.08-.47-.12-.69-.12-1.36 0-2.45 1.36-1.96 2.77l6.2 17.86c.42 1.2-.33 2.49-1.58 2.73L5.47 46.43c-1.71.33-2.29 2.48-.97 3.62l14.3 12.36c.96.83.96 2.32 0 3.15L4.5 77.94c-1.32 1.14-.74 3.3.97 3.62l18.56 3.56c1.25.24 1.99 1.53 1.58 2.73l-6.2 17.86c-.49 1.41.6 2.77 1.96 2.77.23 0 .46-.04.69-.12l17.86-6.2c.23-.08.46-.12.68-.12.97 0 1.85.68 2.05 1.69l3.56 18.56c.2 1.07 1.12 1.69 2.06 1.69.56 0 1.14-.23 1.57-.72l12.36-14.3a2.09 2.09 0 0 1 3.16 0l12.36 14.3c.43.5 1 .72 1.57.72.94 0 1.85-.63 2.06-1.69l3.56-18.56a2.084 2.084 0 0 1 2.05-1.69c.23 0 .46.04.68.12l17.86 6.2c.23.08.47.12.69.12 1.36 0 2.45-1.36 1.96-2.77l-6.2-17.86c-.42-1.2.33-2.49 1.58-2.73l18.56-3.56c1.71-.33 2.29-2.48.97-3.62l-14.3-12.36c-.96-.83-.96-2.32 0-3.15l14.3-12.36c1.32-1.14.74-3.3-.97-3.62l-18.56-3.56a2.089 2.089 0 0 1-1.58-2.73l6.2-17.86c.49-1.41-.6-2.77-1.96-2.77-.23 0-.46.04-.69.12l-17.86 6.2c-.23.08-.46.12-.68.12-.97 0-1.85-.68-2.05-1.69L81.34 5.69C81.14 4.63 80.22 4 79.29 4z" fill="#424242" opacity=".2"/><radialGradient id="a" cx="57.673" cy="54.495" r="39.357" gradientTransform="translate(1.803 1.803) scale(.9718)" gradientUnits="userSpaceOnUse"><stop stop-color="#FFD54F" offset=".217"/><stop stop-color="#FFC107" offset=".86"/></radialGradient><circle cx="64.01" cy="64" r="39" fill="url(#a)"/><g fill="#4E342E"><path d="M57.16 69.8c3.66 4.63 10.66 4.12 14.01-.52 1.11-1.54-1.45-3.02-2.55-1.49-2.22 3.08-6.94 3-9.37-.08-1.18-1.49-3.26.61-2.09 2.09zM78.97 43.44c2.55 0 4.86 2.49 4.86 6.62s-2.32 6.62-4.86 6.62c-2.55 0-4.86-2.49-4.86-6.62s2.31-6.62 4.86-6.62zM49 43.44c-2.55 0-4.86 2.49-4.86 6.62s2.32 6.62 4.86 6.62c2.55 0 4.86-2.49 4.86-6.62s-2.31-6.62-4.86-6.62z"/><path d="M63.99 79.5c-8.82 0-16.81-3.02-22.68-7.94-1.25-1.04-3.02.38-2.26 1.82 4.72 8.95 14.12 15.05 24.94 15.05s20.22-6.1 24.94-15.05c.76-1.44-1.01-2.86-2.26-1.82-5.88 4.91-13.87 7.94-22.68 7.94z"/></g><circle cx="64.01" cy="64" r="40.64" fill="none" opacity=".2"/></svg>