<svg viewBox="0 0 128 128" xmlns="http://www.w3.org/2000/svg" xmlns:xlink="http://www.w3.org/1999/xlink"><radialGradient id="a" cx="64" cy="3.75" r="120.35" gradientUnits="userSpaceOnUse"><stop stop-color="#42A5F5" offset="0"/><stop stop-color="#42A5F5" offset=".352"/><stop stop-color="#2B8BE2" offset=".68"/><stop stop-color="#1976D2" offset="1"/></radialGradient><circle cx="64" cy="64" r="60" fill="url(#a)"/><defs><circle id="b" cx="64" cy="64" r="60"/></defs><clipPath id="c"><use xlink:href="#b"/></clipPath><path d="M124.99 63.27l-.03-1.38h-27.7c-.15-8.04-1.11-15.77-2.87-23h25.3l-.69-1.43c-.33-.69-.69-1.36-1.04-2.03l-.28-.53H93.31C87.84 16.23 77.48 4.19 66 3.1v-.16l-1.39-.03c-.41-.01-.82-.01-1.23 0L62 2.94v.22C50.76 4.57 40.61 16.6 35.26 34.9H10.33l-.28.53c-.36.67-.71 1.35-1.04 2.03l-.69 1.44h25.86c-1.76 7.24-2.73 14.96-2.87 23H3.04l-.03 1.38c0 .2-.01.41-.01.62s.01.42.01.62l.03 1.38H31.3c.13 8.03 1.08 15.76 2.82 23H8.32l.69 1.43c.33.69.68 1.36 1.04 2.03l.28.53H35.2c5.39 18.6 15.38 30.52 26.81 31.95.31.04.62.07.92.09.45.03.9.06 1.35.06.17 0 .34-.01.51-.02l.25-.01c.56-.02 1.11-.07 1.65-.14 11.37-1.5 21.31-13.42 26.68-31.93h24.3l.28-.53c.36-.67.71-1.35 1.04-2.03l.69-1.43H94.43c1.75-7.25 2.7-14.97 2.83-23h27.7l.03-1.38c.01-.21.01-.41.01-.62s-.01-.42-.01-.63zM62 92.9v27.92c-6.55-1.05-12.8-6.61-17.7-15.8-1.93-3.62-3.59-7.7-4.95-12.12H62zm0-27v23H38.25c-1.82-7.2-2.81-14.92-2.94-23H62zm0-27v23H35.31c.15-8.08 1.15-15.81 2.99-23H62zm0-31.71V34.9H39.42c1.34-4.35 2.98-8.35 4.88-11.91C49.2 13.8 55.45 8.23 62 7.19zm22.26 15.8c1.9 3.56 3.54 7.56 4.88 11.91H66V7.12c6.76.81 13.21 6.4 18.26 15.87zM66 88.9v-23h27.26c-.13 8.07-1.12 15.8-2.94 23H66zm0-27v-23h24.26c1.83 7.19 2.84 14.92 2.99 23H66zm0 31h23.21c-1.35 4.42-3.01 8.5-4.95 12.12-5.05 9.47-11.5 15.05-18.26 15.87V92.9z" clip-path="url(#c)" fill="#01579B" opacity=".4"/><path d="M64 7c31.43 0 57 25.57 57 57s-25.57 57-57 57S7 95.43 7 64 32.57 7 64 7m0-3C30.86 4 4 30.86 4 64s26.86 60 60 60 60-26.86 60-60S97.14 4 64 4z" fill="#424242" opacity=".2"/></svg>