<svg viewBox="0 0 128 128" xmlns="http://www.w3.org/2000/svg" xmlns:xlink="http://www.w3.org/1999/xlink"><linearGradient id="a" x1="65.025" x2="65.025" y1="7.833" y2="71.184" gradientUnits="userSpaceOnUse"><stop stop-color="#C62828" offset="0"/><stop stop-color="#6B1010" offset="1"/></linearGradient><path d="M65 7.52V8h.07H65v-.48c-22 .11-47.08 13.33-45.58 45.66l22.95 16.59S47.73 71 65.05 71h-.01.03H65v-.19c18-.01 22.71-1.13 22.71-1.13l22.91-16.47C112.13 20.88 88 7.63 65 7.52z" fill="url(#a)"/><linearGradient id="b" x1="18.14" x2="31.39" y1="31.034" y2="73.534" gradientUnits="userSpaceOnUse"><stop stop-color="#FCEE21" offset="0"/><stop stop-color="#FCE91F" offset=".206"/><stop stop-color="#FDDB19" offset=".449"/><stop stop-color="#FEC30F" offset=".712"/><stop stop-color="#FFA201" offset=".985"/><stop stop-color="#FFA000" offset="1"/></linearGradient><path fill="url(#b)" d="M14.17 31.74l8.58-1.24L36.56 75h-9.49z"/><linearGradient id="c" x1="41.208" x2="41.208" y1="9.638" y2="83.313" gradientUnits="userSpaceOnUse"><stop stop-color="#FCEE21" offset="0"/><stop stop-color="#FCE91F" offset=".206"/><stop stop-color="#FDDB19" offset=".449"/><stop stop-color="#FEC30F" offset=".712"/><stop stop-color="#FFA201" offset=".985"/><stop stop-color="#FFA000" offset="1"/></linearGradient><path fill="url(#c)" d="M49.25 72.25L45 14.75l-7.5-2.25-4.33 2.67 7.58 59.08 5.5 2z"/><linearGradient id="d" x1="24.701" x2="41.951" y1="22.272" y2="75.272" gradientUnits="userSpaceOnUse"><stop stop-color="#FFA000" offset="0"/><stop stop-color="#FFA201" offset=".015"/><stop stop-color="#FEC30F" offset=".288"/><stop stop-color="#FDDB19" offset=".551"/><stop stop-color="#FCE91F" offset=".794"/><stop stop-color="#FCEE21" offset="1"/></linearGradient><path fill="url(#d)" d="M31.11 22.51l-7.43-.26-.38-.02-3.9 3.21 17.43 51.61 2.65-.16 6.14-.39z"/><linearGradient id="e" x1="106.02" x2="106.02" y1="9.25" y2="80.036" gradientUnits="userSpaceOnUse"><stop stop-color="#FFA000" offset="0"/><stop stop-color="#FFA201" offset=".015"/><stop stop-color="#FEC30F" offset=".288"/><stop stop-color="#FDDB19" offset=".551"/><stop stop-color="#FCE91F" offset=".794"/><stop stop-color="#FCEE21" offset="1"/></linearGradient><path fill="url(#e)" d="M106.86 23.35l-1.2.4-4.24 1.41-3.21 49.38 3.58.22 3.26.2 8.78-47.7z"/><linearGradient id="f" x1="96.563" x2="96.563" y1="9.25" y2="80.036" gradientUnits="userSpaceOnUse"><stop stop-color="#FCEE21" offset="0"/><stop stop-color="#FCE91F" offset=".206"/><stop stop-color="#FDDB19" offset=".449"/><stop stop-color="#FEC30F" offset=".712"/><stop stop-color="#FFA201" offset=".985"/><stop stop-color="#FFA000" offset="1"/></linearGradient><path fill="url(#f)" d="M93.96 28.21l-.39-.13-3.8 2.79L91 72h7.77l4.58-40.65z"/><linearGradient id="g" x1="58.851" x2="58.851" y1="8.349" y2="80.039" gradientUnits="userSpaceOnUse"><stop stop-color="#FCEE21" offset="0"/><stop stop-color="#FAE91F" offset=".172"/><stop stop-color="#F5DB1B" offset=".375"/><stop stop-color="#ECC313" offset=".594"/><stop stop-color="#DFA209" offset=".823"/><stop stop-color="#D48500" offset=".99"/></linearGradient><path fill="url(#g)" d="M58 18.25l-4.8.78 3.35 55.65 2.59.08 5.36-.01L63.25 20z"/><linearGradient id="h" x1="48.477" x2="54.977" y1="24.821" y2="72.821" gradientUnits="userSpaceOnUse"><stop stop-color="#FFA000" offset="0"/><stop stop-color="#FFA201" offset=".015"/><stop stop-color="#FEC30F" offset=".288"/><stop stop-color="#FDDB19" offset=".551"/><stop stop-color="#FCE91F" offset=".794"/><stop stop-color="#FCEE21" offset="1"/></linearGradient><path fill="url(#h)" d="M55.55 26.36l-8.5-2.48-.04.03-5.07 3.38 7.74 47.63 4.06-.67 6.3-1.03z"/><linearGradient id="i" x1="65.101" x2="65.101" y1="13.25" y2="84.036" gradientUnits="userSpaceOnUse"><stop stop-color="#FFA000" offset="0"/><stop stop-color="#FFA201" offset=".015"/><stop stop-color="#FEC30F" offset=".288"/><stop stop-color="#FDDB19" offset=".551"/><stop stop-color="#FCE91F" offset=".794"/><stop stop-color="#FCEE21" offset="1"/></linearGradient><path fill="url(#i)" d="M68.55 24.56l-4.69 1.51L57.75 28l2.57 48.73 6.05-.43 5.8-.41.28-48.12z"/><linearGradient id="j" x1="81.308" x2="81.308" y1="11.25" y2="82.036" gradientUnits="userSpaceOnUse"><stop stop-color="#FFA000" offset="0"/><stop stop-color="#FFA203" offset=".022"/><stop stop-color="#FFB824" offset=".292"/><stop stop-color="#FFC83C" offset=".551"/><stop stop-color="#FFD24A" offset=".791"/><stop stop-color="#FFD54F" offset=".995"/></linearGradient><path fill="url(#j)" d="M86.61 18.38l-5.75 1.11-5.02.98-4.27 58.31 5.57-.18 3.48-.1 10.43-57.06z"/><linearGradient id="k" x1="87.237" x2="87.237" y1="10.25" y2="81.036" gradientUnits="userSpaceOnUse"><stop stop-color="#FFA000" offset="0"/><stop stop-color="#FFA201" offset=".015"/><stop stop-color="#FEC30F" offset=".288"/><stop stop-color="#FDDB19" offset=".551"/><stop stop-color="#FCE91F" offset=".794"/><stop stop-color="#FCEE21" offset="1"/></linearGradient><path d="M84.84 32.65l-.6.29-3.58 1.72s.77 39.78.77 40.4c0 .34 2.79.49 5.32.56 2.08.06 3.97.06 3.97.06l3.1-37.61-8.98-5.42z" fill="url(#k)"/><linearGradient id="l" x1="72.273" x2="72.273" y1="9.145" y2="80.039" gradientUnits="userSpaceOnUse"><stop stop-color="#FCEE21" offset="0"/><stop stop-color="#FCE91F" offset=".206"/><stop stop-color="#FDDB19" offset=".449"/><stop stop-color="#FEC30F" offset=".712"/><stop stop-color="#FFA201" offset=".985"/><stop stop-color="#FFA000" offset="1"/></linearGradient><path d="M68.92 17.6c-1.27-.02-2.24-.01-2.37.03l1.67 60.54.55-.03 6.98-.39L78 17.5s-6.23.14-9.08.1z" fill="url(#l)"/><linearGradient id="m" x1="65.066" x2="65.066" y1="69" y2="125.43" gradientUnits="userSpaceOnUse"><stop stop-color="#E53935" offset=".005"/><stop stop-color="#E03531" offset=".215"/><stop stop-color="#D12926" offset=".473"/><stop stop-color="#B81513" offset=".754"/><stop stop-color="#9E0000" offset=".985"/></linearGradient><path d="M89.47 67.78s-8.66 1.61-24.38 1.67c-15.72-.06-24.38-1.67-24.38-1.67S25.23 57.53 19.16 52.5l14.03 68.42s2.81 3.9 31.81 4v.08h-.06.06v-.08c29-.1 31.9-4.09 31.9-4.09l14.07-68.38c-6.07 5.03-21.5 15.33-21.5 15.33z" fill="url(#m)"/><defs><path id="n" d="M89.47 67.78s-8.66 1.61-24.38 1.67c-15.72-.06-24.38-1.67-24.38-1.67S25.23 57.53 19.16 52.5l14.03 68.42s2.81 3.9 31.81 4v.08h-.06.06v-.08c29-.1 31.9-4.09 31.9-4.09l14.07-68.38c-6.07 5.03-21.5 15.33-21.5 15.33z"/></defs><clipPath id="o"><use xlink:href="#n"/></clipPath><linearGradient id="p" x1="65" x2="65" y1="78.123" y2="126.87" gradientUnits="userSpaceOnUse"><stop stop-color="#FF3733" offset="0"/><stop stop-color="#FB322E" offset=".245"/><stop stop-color="#F02320" offset=".546"/><stop stop-color="#DD0A09" offset=".875"/><stop stop-color="#D50000" offset=".985"/></linearGradient><path d="M40 64l6 61.67 39.17.83L90 63.83s-49.75.42-50 .17z" clip-path="url(#o)" fill="url(#p)"/><path d="M65 10.52c15.2.08 28.16 5.87 35.55 15.91.58.78 1.48 1.22 2.42 1.22.32 0 .64-.05.95-.15l2.64-.88 3.94 2.21L107.52 45c-.05.27-.06.54-.04.81.19 2.21.25 4.5.16 6.82-.01.27.02.54.08.8l-13.49 65.58c-1.89.82-8.65 2.87-29.21 2.94-20.49-.07-27.24-2.05-29.14-2.86l-13.5-65.85c.03-.2.05-.41.04-.62-.04-1.05-.05-2.13-.02-3.28.01-.31-.04-.62-.12-.92l-4.23-14.18 3.58-.52a3.007 3.007 0 0 0 2.42-3.93l-1.12-3.32 1.43-1.17 4.69.17h.11c.86 0 1.68-.37 2.25-1.02 1.26-1.43 2.63-2.76 4.08-3.96.79-.66 1.2-1.67 1.07-2.7l-.14-1.06 1.54-.95 1.84.55c.28.08.57.13.86.13.49 0 .97-.12 1.41-.35 6.63-3.57 14.78-5.55 22.93-5.59m0-3c-8.21.04-16.85 1.91-24.38 5.92l-3.12-.94-4.33 2.67.38 2.98c-1.58 1.3-3.06 2.73-4.43 4.29l-5.44-.19-.38-.01-3.91 3.21 1.79 5.28-7.02 1.01 5.22 17.51c-.02 1.13-.02 2.28.03 3.46-.08-.07-.17-.14-.25-.2l14.03 68.42s2.81 3.9 31.81 4c29-.1 31.9-4.09 31.9-4.09l14.07-68.38c-.11.09-.22.18-.34.27.1-2.52.03-4.91-.17-7.2l3.37-18.28-6.97-3.91-3.9 1.3C94.25 12.81 79.4 7.59 65 7.52z" fill="#424242" opacity=".2"/></svg>