<svg viewBox="0 0 128 128" xmlns="http://www.w3.org/2000/svg" xmlns:xlink="http://www.w3.org/1999/xlink"><path d="M90.69 45.02a5.073 5.073 0 0 1-.5-7.17l19.63-22.6a5.073 5.073 0 0 1 7.17-.5 5.073 5.073 0 0 1 .5 7.17l-19.63 22.6a5.082 5.082 0 0 1-7.17.5z" fill="#44B3E6"/><path d="M113.65 15.5c.74 0 1.46.27 2.02.76a3.096 3.096 0 0 1 .31 4.35l-19.63 22.6c-.59.67-1.44 1.06-2.33 1.06-.74 0-1.46-.27-2.02-.76a3.096 3.096 0 0 1-.31-4.35l19.63-22.6c.59-.67 1.44-1.06 2.33-1.06m0-2c-1.42 0-2.84.59-3.84 1.75l-19.63 22.6a5.082 5.082 0 0 0 .5 7.17c.96.84 2.15 1.25 3.33 1.25 1.42 0 2.84-.59 3.84-1.75l19.63-22.6a5.082 5.082 0 0 0-.5-7.17 5.043 5.043 0 0 0-3.33-1.25z" fill="#434343" opacity=".2"/><path d="M91.71 113.08c0 6.03-13.76 10.92-30.73 10.92s-30.73-4.89-30.73-10.92c0-.63.07-2.38.07-2.38s15.46-8.54 30.66-8.54c15.64 0 30.7 8.7 30.7 8.7s.03 1.74.03 2.22z" fill="#3D82C4"/><radialGradient id="a" cx="60.98" cy="110.98" r="23.063" gradientUnits="userSpaceOnUse"><stop stop-color="#38A4DD" offset="0"/><stop stop-color="#58C1EF" offset="1"/></radialGradient><ellipse cx="60.98" cy="110.98" rx="30.73" ry="10.92" fill="url(#a)"/><path d="M60.98 102.06c17.8 0 28.73 5.2 28.73 8.89l-.01.07-.01.12c-.01.06-.01.13-.01.19.01.54.02 1.43.02 1.75 0 3.73-10.93 8.92-28.73 8.92s-28.73-5.2-28.73-8.92c0-.32.02-.94.04-1.46 0-.12 0-.24-.02-.36-.01-.1-.02-.19-.02-.28.01-3.72 10.94-8.92 28.74-8.92m0-2c-16.97 0-30.73 4.89-30.73 10.92 0 .19.01.38.04.57-.02.54-.04 1.19-.04 1.53 0 6.03 13.76 10.92 30.73 10.92s30.73-4.89 30.73-10.92c0-.32-.01-1.23-.02-1.78.01-.11.02-.21.02-.32 0-6.03-13.76-10.92-30.73-10.92z" fill="#434343" opacity=".2"/><radialGradient id="b" cx="60.98" cy="96.492" r="15.063" gradientUnits="userSpaceOnUse"><stop stop-color="#44B3E6" offset=".155"/><stop stop-color="#84D2F6" offset=".886"/></radialGradient><path d="M65.9 79.31h-9.51s1.58 21.04-7.01 28.96c-2.64 2.44.62 3.76 2.46 4.3 2.27.67 5.59 1.1 9.3 1.1s7.03-.43 9.3-1.1c1.83-.55 4.36-2.92 2.46-4.3-8.32-6.03-7-28.96-7-28.96z" fill="url(#b)"/><path d="M63.84 81.31c-.04 2.29-.01 6.19.46 10.44.98 8.92 3.36 14.93 7.1 17.89-.32.37-.95.85-1.52 1.02-2.18.65-5.36 1.02-8.73 1.02s-6.55-.37-8.73-1.02c-1-.3-1.55-.58-1.83-.76.04-.05.1-.1.16-.15 7.59-7 7.91-22.67 7.75-28.43h5.34m2.06-2.01zh-9.51s1.58 21.04-7.01 28.96c-2.64 2.44.62 3.76 2.46 4.3 2.27.67 5.59 1.1 9.3 1.1s7.03-.43 9.3-1.1c1.83-.55 4.36-2.92 2.46-4.3-8.32-6.03-7-28.96-7-28.96z" fill="#434343" opacity=".2"/><radialGradient id="c" cx="51.105" cy="64.39" r="49.48" gradientTransform="matrix(.9943 .0955 -.0752 .6232 5.137 15.88)" gradientUnits="userSpaceOnUse"><stop stop-color="#84D2F6" offset=".114"/><stop stop-color="#44B3E6" offset=".845"/></radialGradient><path d="M110.75 49.47c1.3.55 2.07 1.74 1.97 3.02-.74 8.97-6.53 44.37-51.74 44.37s-51-35.39-51.74-44.37c-.11-1.28.67-2.47 1.97-3.02 6.3-2.65 26.2-10.13 49.77-10.13s43.48 7.49 49.77 10.13z" fill="url(#c)"/><radialGradient id="d" cx="60.313" cy="53.231" r="53.215" gradientTransform="matrix(1 0 0 .4929 0 26.992)" gradientUnits="userSpaceOnUse"><stop stop-color="#BEDEF5" offset=".766"/><stop stop-color="#89B4D4" offset=".969"/></radialGradient><ellipse cx="60.98" cy="51.56" rx="51.85" ry="17.43" fill="url(#d)"/><path d="M60.97 35.13c12.68 0 25.63 2.31 35.54 6.33 9.15 3.72 13.32 7.9 13.32 10.22 0 .24.01.39.01.5v.06c-.81 9.76-6.71 41.61-48.75 41.61-42.05 0-47.95-31.85-48.75-41.61-.03-.34-.1-.63-.18-.88.36-2.37 4.55-6.35 13.29-9.9 9.89-4.02 22.84-6.33 35.52-6.33m0-3c-28.64 0-51.85 10.96-51.85 19.55 0 .59.19.44.22.8.74 8.97 6.53 44.37 51.74 44.37s51-35.39 51.74-44.37c.04-.47 0-.32 0-.8 0-8.58-23.21-19.55-51.85-19.55z" fill="#434343" opacity=".2"/><defs><path id="e" d="M109.36 51.13V4H12.57v47.63h.04c.07 8.8 21.71 15.1 48.39 15.1 26.73 0 48.4-6.32 48.4-15.14-.01-.16-.03-.31-.04-.46z"/></defs><clipPath id="f"><use xlink:href="#e"/></clipPath><g clip-path="url(#f)"><radialGradient id="g" cx="61.554" cy="20.611" r="66.089" gradientTransform="matrix(0 1 -1.4924 0 92.315 -40.942)" gradientUnits="userSpaceOnUse"><stop stop-color="#FAE9E7" offset=".375"/><stop stop-color="#FAE9E7" offset=".668"/><stop stop-color="#A1887F" offset=".81"/></radialGradient><path d="M109.32 57.74c-.48-1.35-1.45-5.36-2.7-8.8-3.99-12.45-22.24-32.02-45.48-32.02-20.79 0-37.67 15.64-43.98 27.76h-.01s-4.71 7.35-4.71 13.13c0 5.8.43 8.22 1.96 10.64 1.92 3.04 3.6 4.47 7.24 5.17 1.43.28 2.43 1.57 3.22 2.74 3.82 5.66 7.24 6.41 13.4 6.57 2.49.06 8.38 1.03 9.54 1.65 1.59.86 3.58 1.37 5.75 1.37 1.47 0 2.86-.24 4.09-.65 1.85-.63 3.83-.6 5.69.01 1.72.56 3.76.8 5.92.62 2.3-.2 4.37-.84 6.01-1.78 1.84-1.05 4.09-1.34 6.14-.72 1.76.53 3.86.62 6.01.15 2.82-.61 5.12-2.04 6.46-3.79 1.17-1.53 2.95-2.6 4.92-2.85.8-.1 1.61-.32 2.41-.66 1.88-.82 2.83-3.04 3.29-4.9.42-1.68 1.24-3.36 2.65-4.43 2.57-1.94 2.93-7.1 2.18-9.21z" fill="url(#g)"/><defs><path id="h" d="M109.32 57.74c-.48-1.35-1.45-5.5-2.7-8.8-3.99-12.45-22.24-32.02-45.48-32.02-20.79 0-37.67 15.64-43.98 27.76h-.01s-4.71 7.35-4.71 13.13c0 5.8.43 8.22 1.96 10.64 1.92 3.04 3.6 4.47 7.24 5.17 1.43.28 2.43 1.57 3.22 2.74 3.82 5.66 7.24 6.41 13.4 6.57 2.49.06 8.38 1.03 9.54 1.65 1.59.86 3.58 1.37 5.75 1.37 1.47 0 2.86-.24 4.09-.65 1.85-.63 3.83-.6 5.69.01 1.72.56 3.76.8 5.92.62 2.3-.2 4.37-.84 6.01-1.78 1.84-1.05 4.09-1.34 6.14-.72 1.76.53 3.86.62 6.01.15 2.82-.61 5.12-2.04 6.46-3.79 1.17-1.53 2.95-2.6 4.92-2.85.8-.1 1.61-.32 2.41-.66 1.88-.82 2.83-3.04 3.29-4.9.42-1.68 1.24-3.36 2.65-4.43 2.57-1.94 2.93-7.1 2.18-9.21z"/></defs><clipPath id="i"><use xlink:href="#h"/></clipPath><g clip-path="url(#i)"><radialGradient id="j" cx="60.207" cy="12.445" r="67.994" gradientTransform="matrix(1 0 0 .905 0 1.183)" gradientUnits="userSpaceOnUse"><stop stop-color="#E53A35" offset="0"/><stop stop-color="#EF9A9B" offset=".426"/><stop stop-color="#FACDD2" offset=".727"/></radialGradient><path d="M20.63 56c3.08-.42 7.7-5.38 10.81-5.23 3.74.19 6.8 2.9 9.69 5.29s8.25 6.22 11.92 5.48c6.99-1.4 10.61-8.27 17.57-9.8 3.03-.67 10.25 3.59 12.97 5.08 7.54 4.15 10.46 1.6 11.69-1.78.8-2.21 1.66-6.17 3.81-7.12 2.1-.92 8.93 5.31 8.9 4.83-1.52-24.07-22.84-39.36-46.13-39.32-21.77.04-45.6 13.87-47.22 35.95-.01.01.3 7.39 5.99 6.62z" fill="url(#j)"/></g><path d="M61.14 19.93c12.31 0 22.06 5.81 28.08 10.67 8.34 6.75 12.99 14.38 14.55 19.26.01.04.02.07.04.11.86 2.38 1.51 4.68 1.98 6.36.29 1.02.51 1.83.72 2.41.47 1.32.01 4.94-1.15 5.82-1.81 1.37-3.1 3.48-3.75 6.1-.45 1.8-1.13 2.67-1.57 2.87-.52.22-1.05.37-1.58.44-2.72.34-5.25 1.8-6.93 4.01-.95 1.25-2.71 2.25-4.71 2.68-.72.16-1.44.23-2.15.23-.85 0-1.64-.11-2.37-.33-.99-.29-2.02-.44-3.06-.44-1.9 0-3.78.5-5.43 1.44-1.31.75-3.01 1.25-4.78 1.4-.41.03-.8.04-1.19.04-1.27 0-2.5-.18-3.57-.53-1.25-.41-2.53-.61-3.82-.61s-2.55.21-3.76.62c-.97.33-2.02.5-3.13.5-1.59 0-3.12-.36-4.32-1.01-1.94-1.05-8.64-1.96-10.89-2.01-5.5-.14-7.88-.63-10.99-5.25-.76-1.13-2.35-3.47-5.14-4.01-2.59-.5-3.67-1.28-5.27-3.82-1.04-1.64-1.5-3.34-1.5-9.04 0-3.9 2.91-9.38 4.15-11.36.09-.12.17-.25.24-.38 5.45-10.54 20.96-26.17 41.3-26.17m0-3c-20.79 0-37.67 15.64-43.98 27.76h-.01s-4.71 7.35-4.71 13.13c0 5.8.43 8.22 1.96 10.64 1.92 3.04 3.6 4.47 7.24 5.17 1.43.28 2.43 1.57 3.22 2.74 3.82 5.66 7.24 6.41 13.4 6.57 2.49.06 8.38 1.03 9.54 1.65 1.59.86 3.58 1.37 5.75 1.37 1.47 0 2.86-.24 4.09-.65a8.65 8.65 0 0 1 2.8-.46c.97 0 1.95.16 2.89.47 1.34.44 2.87.68 4.5.68.47 0 .94-.02 1.42-.06 2.3-.2 4.37-.84 6.01-1.78 1.2-.68 2.57-1.04 3.94-1.04.74 0 1.48.1 2.2.32.99.29 2.08.45 3.23.45.9 0 1.84-.1 2.78-.3 2.82-.61 5.12-2.04 6.46-3.79 1.17-1.53 2.95-2.6 4.92-2.85.8-.1 1.61-.32 2.41-.66 1.88-.82 2.83-3.04 3.29-4.9.42-1.68 1.24-3.36 2.65-4.43 2.55-1.94 2.91-7.1 2.17-9.21-.48-1.35-1.3-4.92-2.7-8.8-3.98-12.45-22.23-32.02-45.47-32.02z" fill="#434343" opacity=".2"/></g><g opacity=".4"><circle cx="28.73" cy="50.96" r="3" fill="#EF9A9B"/><circle cx="36.94" cy="57.06" r="2" fill="#EF9A9B"/><circle cx="67.28" cy="49.35" r="2" fill="#EF9A9B"/><circle cx="45.5" cy="38.14" r="2" fill="#F05455"/><circle cx="70.36" cy="29.16" r="2" fill="#F05455"/><circle cx="83.43" cy="57.31" r="3" fill="#EF9A9B"/><circle cx="96.57" cy="48.35" r="3" fill="#EF9A9B"/><circle cx="83.71" cy="38.11" r="3" fill="#F05455"/></g><radialGradient id="k" cx="58.48" cy="12.366" r="14.557" gradientUnits="userSpaceOnUse"><stop stop-color="#EF4438" offset=".413"/><stop stop-color="#D32E2E" offset=".656"/></radialGradient><path d="M73.81 16.83c0 2.58-.76 4.98-2.07 7-2.29 3.51-1.57-.57-5.59 2.1-2.27 1.51-3.87.72-9.09-.91-2.91-.91-4.49.94-5.73-.02-2.39-1.85-3.19-4.9-3.19-8.17C48.15 9.75 53.89 4 60.98 4s12.83 5.75 12.83 12.83z" fill="url(#k)"/><path d="M60.98 6c5.97 0 10.83 4.86 10.83 10.83 0 2.11-.6 4.15-1.75 5.91-.11.16-.2.29-.27.4-.32-.1-.72-.18-1.2-.18-1.08 0-2.21.41-3.55 1.3-.59.39-.96.47-1.37.47-.91 0-2.31-.44-4.41-1.12-.49-.16-1.02-.33-1.6-.51-.74-.23-1.5-.35-2.25-.35-1.03 0-1.88.22-2.5.37-.17.04-.38.1-.54.13-1.47-1.27-2.22-3.43-2.22-6.43C50.15 10.86 55.01 6 60.98 6m0-2c-7.09 0-12.83 5.75-12.83 12.83 0 3.26.79 6.31 3.19 8.17.27.21.55.28.87.28.82 0 1.83-.52 3.2-.52.5 0 1.05.07 1.66.26 3.27 1.02 5.12 1.71 6.61 1.71.88 0 1.63-.24 2.48-.8 1.13-.75 1.89-.97 2.44-.97.74 0 1.12.38 1.55.38.39 0 .82-.31 1.6-1.51 1.31-2.01 2.07-4.42 2.07-7C73.81 9.75 68.07 4 60.98 4z" fill="#434343" opacity=".2"/></svg>