<svg viewBox="0 0 128 128" xmlns="http://www.w3.org/2000/svg"><path d="M76.61 3.5s-.08 1.31-.43 3.21c-.18.94-.42 2.04-.73 3.21-.33 1.16-.75 2.37-1.14 3.6-1.51 4.91-3.12 9.79-3.12 9.79l-.12-.03s1.09-5.02 2.29-10.02c.3-1.25.55-2.51.85-3.68.32-1.16.68-2.23 1.01-3.13.66-1.82 1.26-2.98 1.26-2.98l.13.03z" fill="#736357"/><linearGradient id="a" x1="75.915" x2="73.362" y1="5.141" y2="13.296" gradientUnits="userSpaceOnUse"><stop stop-color="#FF3776" offset="0"/><stop stop-color="#FFDEE7" offset="1"/></linearGradient><path fill="url(#a)" d="M76.24 5.23L61.15 7.37l3.66 2.36 6.25 2.74 5.87 1.75 5.56.84 4.57-.61z"/><path fill="none" stroke="#FF3F7B" stroke-miterlimit="10" stroke-width=".61" d="M60.09 7.44l15.92-2.25M64.05 10.57l12-5.41M70.45 13.73l5.6-8.5M77.08 15.33l-.84-9.91M83.37 15.9L76.2 5.19M87.6 15.48L76.17 5.04"/><path d="M76.06 5.89l8.26 7.54.39.33-1.72.23c-.11.01-.21.05-.31.1-.03-.01-.06-.01-.09-.02l-5.14-.77c-.05-.01-.1-.01-.15-.01-.04 0-.08 0-.12.01-.07-.04-.14-.07-.22-.1l-2.34-.7a.842.842 0 0 0-.27-.04c-.08 0-.16.01-.23.03-.12-.12-.27-.22-.44-.27l-1.84-.36c-.1-.04-.2.14-.29.14h-.01c-.06 0-.12-.27-.19-.3l-5.2-2.45c-.13-.06-.27-.25-.41-.25h-.01c-.09 0-.21-.12-.34-.18l-.11-.01-1.82-1.16 12.51-1.76h.09m.43-2.43s-.28.54-.66 1.45L60.04 7.14l.09.6 1.32-.19 3.36 2.17.18.08-1.07.48.25.56 1.57-.71 5.2 2.28-.75 1.14.51.34.84-1.28 1.84.55c-.01.03-.01.06-.02.09-1.2 5-2.29 10.02-2.29 10.02l.12.03s1.61-4.88 3.12-9.79c.01-.02.01-.04.02-.07l2.34.7.1 1.21.61-.05-.09-1.02 5.14.77.68 1.02.51-.34-.5-.75 3.03-.4 1.24 1.13.41-.45-.86-.79.12-.02-2.1-1.79-8.5-7.77c.11-.87.15-1.4.15-1.4l-.12-.03z" fill="#424242" opacity=".2"/><path d="M60.6 11.08L40.3 35.96s-7.83-10.58 1.13-20.42 19.17-4.46 19.17-4.46z" fill="#057A64"/><linearGradient id="b" x1="42.455" x2="50.597" y1="15.848" y2="23.671" gradientUnits="userSpaceOnUse"><stop stop-color="#93D919" offset="0"/><stop stop-color="#F2F45D" offset="1"/></linearGradient><path d="M60.36 11.42L40.59 35.69s-7.05-9.43 1.91-19.27 17.86-5 17.86-5z" fill="url(#b)"/><g fill="#F1F41C"><path d="M54.83 13.92c.88-1.1 2.48-1.28 3.58-.41l-5.08 6.37s.62-4.86 1.5-5.96zM41.75 30.21c.9-1.08 5.53-2.69 5.53-2.69l-5.19 6.28c-1.09-.9-1.24-2.5-.34-3.59zM42.94 20.23c-1.1-.88-1.28-2.48-.4-3.58s2.48-1.28 3.58-.4 2.79 5.48 2.79 5.48-4.87-.63-5.97-1.5zM42.44 21.95c-1.4.16-2.4 1.42-2.25 2.82.16 1.4 1.42 2.4 2.82 2.25 1.4-.16 5.28-3.16 5.28-3.16s-4.45-2.06-5.85-1.91zM47.69 15.37a2.55 2.55 0 1 1 5.07-.57c.16 1.4-1.91 5.85-1.91 5.85s-3-3.88-3.16-5.28z"/><path d="M42.44 21.95c-1.4.16-2.4 1.42-2.25 2.82.16 1.4 1.42 2.4 2.82 2.25 1.4-.16 5.28-3.16 5.28-3.16s-4.45-2.06-5.85-1.91z"/></g><path d="M53.87 11.61c1.31 0 2.48.19 3.42.42l-11.6 14.24c-.06.08-.12.16-.17.24l-1.93 2.33-2.98 3.66c-1.53-3.26-3.22-9.56 2.3-15.62 3.18-3.49 6.87-5.27 10.96-5.27m0-2c-3.6 0-8.17 1.23-12.44 5.93-8.96 9.84-1.13 20.42-1.13 20.42l.26-.32c.02.03.04.05.04.05l4.55-5.58 2.14-2.59-.04.02 13.13-16.12s-.01-.01-.02-.01l.26-.32c-.02-.01-2.81-1.48-6.75-1.48z" fill="#424242" opacity=".2"/><linearGradient id="c" x1="63.314" x2="63.314" y1="113.29" y2="124.09" gradientUnits="userSpaceOnUse"><stop stop-color="#fff" offset="0"/><stop stop-color="#F3F3F3" offset=".132"/><stop stop-color="#DBDBDB" offset=".454"/><stop stop-color="#ccc" offset=".752"/><stop stop-color="#C7C7C7" offset="1"/></linearGradient><path d="M82.93 119.35c0 2.5-8.78 4.53-19.62 4.53s-19.62-2.03-19.62-4.53 8.78-6.06 19.62-6.06 19.62 3.55 19.62 6.06z" fill="url(#c)"/><path d="M80.55 54.21c-2.8-10.22-2.85-26.52-2.85-26.52h-.17c-.53-.89-6.7-1.93-14.23-1.93s-13.7.25-14.23 1.25H49s0 16.64-2.8 26.86c-2.33 8.52-5.35 18.62.17 26.6 3.82 5.52 11.08 9.73 17.88 9.41 3.42-.16 6.84-1.83 9.74-3.53 2.75-1.61 5.22-3.73 6.9-6.47 4.91-7.93 1.92-17.42-.34-25.67z" fill="none"/><linearGradient id="d" x1="63.24" x2="63.24" y1="22.175" y2="117.34" gradientUnits="userSpaceOnUse"><stop stop-color="#F6F9FE" offset="0"/><stop stop-color="#C5CFD0" offset=".995"/></linearGradient><path d="M81.41 52.84c-3.7-13.48-2.16-30.97-2.16-30.97s-7.13 1.85-16 1.85c-8.74 0-15.84-.72-16.06-1.92.09 1.1 1.47 18.37-2.11 31.41-3.7 13.48-8.01 22.91 4.37 33.91s11.54 9.41 11.41 14.61c-.13 5.19-.89 11.26-1.4 13.11s2.23 2.35 3.81 2.35c1.57 0 4.28-.48 3.77-2.34-.51-1.85-1.31-7.9-1.43-13.1-.13-5.19-.97-3.82 11.42-14.82s8.08-20.61 4.38-34.09z" fill="url(#d)"/><path d="M63.25 19.77c-8.87 0-16.07 1-16.07 2.23 0 .02.01.04.01.06.22 1.2 7.32 2.17 16.06 2.17 8.87 0 16.07-1 16.07-2.23-.01-1.23-7.2-2.23-16.07-2.23z" fill="#D0D6D2" opacity=".8"/><path d="M63.25 21.77c7.31 0 12.1.66 13.92 1.17-.29 4.44-.89 18.78 2.31 30.43.34 1.23.68 2.42 1.01 3.59 3.33 11.63 5.53 19.31-4.8 28.48-1.32 1.17-2.49 2.2-3.52 3.12-8.27 7.3-8.76 7.73-8.59 12.34l.03.91c.11 4.41.67 9.29 1.16 11.96.16.9.92 1.58 1.83 1.64 7.81.54 12.67 2.7 14.04 3.85-1.68 1.04-7.64 2.62-17.32 2.62S47.67 120.3 46 119.26c1.36-1.14 6.18-3.29 13.92-3.84.91-.07 1.67-.74 1.83-1.65.46-2.62 1.01-7.49 1.12-11.99l.03-.92c.16-4.44-.43-4.96-7.71-11.35-1.24-1.09-2.69-2.36-4.4-3.88-10.29-9.14-8.11-16.72-4.82-28.18.34-1.2.7-2.43 1.05-3.7 3.18-11.56 2.58-26.08 2.27-30.78 1.75-.52 6.57-1.2 13.96-1.2m0-2c-8.57 0-15.55.93-16.02 2.1-.01-.02-.03-.04-.04-.07 0 .03.01.08.01.13 0 .02-.02.04-.02.06s.01.04.01.06c0 .01.02.03.02.04.2 2.52 1.27 18.73-2.14 31.12-3.7 13.48-8.01 22.91 4.37 33.91 12.39 11 11.54 9.41 11.41 14.61-.1 4.24-.63 9.05-1.09 11.69-9.14.66-16.07 3.7-16.07 5.93 0 2.5 8.78 4.53 19.62 4.53s19.62-2.03 19.62-4.53c0-2.23-7-5.3-16.2-5.93-.47-2.64-1.02-7.43-1.12-11.65-.13-5.19-.97-3.82 11.42-14.82s8.09-20.62 4.38-34.1c-3.4-12.36-2.38-28.1-2.19-30.61.06-.08.09-.16.09-.24 0-1.23-7.19-2.23-16.06-2.23z" fill="#424242" opacity=".2"/><path d="M77 27.84c-.52-.98-6.47-1.75-13.75-1.75s-13.24.77-13.75 1.75c-.02.05-.04.09-.04.14 0 1.04 6.17 1.88 13.79 1.88s13.79-.84 13.79-1.88c0-.05-.02-.1-.04-.14z" fill="#FFFA99"/><path d="M49.09 27.68c-.02.04-.04.08-.04.12 0 .95 6.39 1.72 14.27 1.72a102.504 102.504 0 0 0 7.64-.27c3.98-.3 6.63-.84 6.63-1.45 0-.04-.02-.08-.04-.13-.3-.5-2.35-.93-5.42-1.22-.15.43-.33.92-.55 1.5-.08.22-.26.4-.48.48-.78.3-1.82.28-2.62.12a.818.818 0 0 1-.6-1.09l.48-1.27c-1.57-.07-3.26-.11-5.03-.11-7.55.01-13.71.71-14.24 1.6z" fill="none"/><path d="M71.55 19.51c-1.35 1.48-1.75 2.85-1.75 2.85l-.66 1.74c1.41-.09 2.72-.2 3.9-.33.26-.67.65-1.25 1.11-1.74-1.1-.54-2.13-1.38-2.6-2.52zM73.88 17.65c-.43.25-.82.52-1.17.79.57 1.09 1.1 2.34 2.22 2.9.28-.22.56-.41.84-.58-.98-.78-1.54-1.93-1.89-3.11z" fill="#FF6815"/><path d="M73.88 17.65c.35 1.19.91 2.33 1.89 3.11.33-.2.65-.37.94-.51-.81-.84-1.28-2.09-1.43-3.28-.51.2-.98.43-1.4.68zM76.28 16.61c.15 1.29.64 2.29 1.45 3.2.18-.07.32-.11.4-.14l.14-.03.19-.02c-.67-.9-.84-2.07-1.1-3.29-.38.08-.74.17-1.08.28z" fill="#C75110"/><linearGradient id="e" x1="79.322" x2="100.4" y1="17.694" y2="15.337" gradientUnits="userSpaceOnUse"><stop stop-color="#FF6815" offset="0"/><stop stop-color="#FF9147" offset=".995"/></linearGradient><path d="M100.87 16.24s.15-2.7-1.08-2.58c-3.28.33-15.82 1.56-21.7 2.52-.25.04-.49.09-.72.14.26 1.22.43 2.39 1.1 3.29l21.69-2.48c.43-.04.75-.44.71-.89z" fill="url(#e)"/><path d="M75.28 16.96c.15 1.19.62 2.44 1.43 3.28.4-.19.75-.33 1.01-.43-.81-.91-1.3-1.91-1.45-3.2-.34.11-.68.22-.99.35z" fill="#FF6815"/><path d="M72.71 18.44c-.45.35-.83.72-1.16 1.08.47 1.13 1.5 1.98 2.61 2.52.24-.26.5-.49.77-.7-1.12-.56-1.65-1.82-2.22-2.9z" fill="#C75110"/><path d="M69.14 24.11l-.79 2.1-.48 1.27c-.18.47.11.99.6 1.09.8.16 1.84.17 2.62-.12a.84.84 0 0 0 .48-.48c.22-.58.4-1.07.55-1.5.41-1.17.64-1.91.89-2.61.01-.03.02-.05.03-.08-1.18.13-2.49.24-3.9.33z" fill="#FF9961"/><path d="M99.69999999999999 14.68c.12.29.2.94.17 1.49l-21.53 2.46-.19.02c-.11.01-.21.03-.32.07-.09.03-.25.08-.46.16-.37.14-.74.29-1.1.47-.37.18-.71.36-1.03.56-.36.22-.66.43-.94.65-.33.26-.62.52-.88.8-.44.47-.79.96-1.06 1.49-.56.06-1.14.11-1.74.16l.11-.28c.01-.02.02-.05.02-.07 0-.01.38-1.2 1.53-2.47.31-.34.66-.67 1.04-.96.31-.25.67-.49 1.06-.71.4-.23.83-.44 1.28-.63.26-.11.56-.21.91-.32.29-.09.62-.17 1-.26.22-.05.43-.1.67-.13 5.57-.91 17.27-2.08 21.11-2.46l.35-.04m.16-1.02h-.08c-3.28.33-15.82 1.56-21.7 2.52-.25.04-.49.09-.72.14-.38.08-.74.17-1.08.28-.35.11-.68.22-.99.35a10.832 10.832 0 0 0-2.57 1.48c-.45.35-.83.72-1.16 1.08-1.35 1.48-1.75 2.85-1.75 2.85l-.66 1.74c1.41-.09 2.72-.2 3.9-.33.26-.67.65-1.25 1.11-1.74.24-.26.5-.49.77-.7.28-.22.56-.41.84-.58a11.309 11.309 0 0 1 1.95-.94c.18-.07.32-.11.4-.14l.14-.03.19-.02 21.69-2.48c.45-.05.77-.45.72-.9.01 0 .15-2.58-1-2.58z" fill="#424242" opacity=".2"/><linearGradient id="f" x1="63.285" x2="63.285" y1="30.009" y2="89.811" gradientUnits="userSpaceOnUse"><stop stop-color="#FFE12E" offset="0"/><stop stop-color="#FF7300" offset=".545"/><stop stop-color="red" offset=".997"/></linearGradient><path d="M70.96 29.26a102.504 102.504 0 0 1-7.64.27c-7.88 0-13.11-.69-13.81-1.61-.03-.03.54 15.17-2.67 26.67-2.37 8.51-6.33 17.83-.58 26.08 3.84 5.51 11.22 9.53 18.01 9.21 3.42-.16 6.84-1.83 9.74-3.53 2.75-1.61 5.1-3.82 6.79-6.55 4.9-7.93 1.5-17.01-.96-25.21-3.59-11.97-2.84-26.36-2.88-26.34-1.08.5-2.02.7-6 1.01z" fill="url(#f)"/><linearGradient id="g" x1="51.442" x2="51.442" y1="23.603" y2="86.415" gradientUnits="userSpaceOnUse"><stop stop-color="#F6F9FE" offset="0"/><stop stop-color="#fff" stop-opacity="0" offset=".995"/></linearGradient><path d="M51.66 23.6s3.21 15.91.25 24.81c-2.97 8.9-8.57 23.91-4.37 30.58 4.2 6.68 8.66 7.42 8.66 7.42S52 78.25 53.97 64.9c1.98-13.35 3.96-32.95 2.23-40.87l-4.54-.43z" fill="url(#g)"/><ellipse transform="rotate(-6.563 224.076 266.294)" cx="224.17" cy="266.4" rx="1.04" ry="3.08" fill="#8C6239"/></svg>