<svg viewBox="0 0 128 128" xmlns="http://www.w3.org/2000/svg"><linearGradient id="a" x1="-70.047" x2="-70.047" y1="-107.41" y2="-51.291" gradientUnits="userSpaceOnUse"><stop stop-color="#eee" offset=".005"/><stop stop-color="#EAEAEA" offset=".282"/><stop stop-color="#ddd" offset=".577"/><stop stop-color="#C8C8C8" offset=".879"/><stop stop-color="#BDBDBD" offset="1"/></linearGradient><path d="M-19.13-78.72c-.91-4.33-4.3-20.11-5.87-27.41-.47-2.21-2.11-3.82-3.99-3.81-5.36 0-15.39-.05-16.6-.05h-44.08c-.61 0-2.56.06-4.11 1.79-4.7 5.27-12.54 20.52-13.76 22.07-.08.1-6.27 2.31-9.09 4-1.12.67-1.74 2.13-1.9 3.63l-2.46 20.75c-.64 4.1 1.7 5.76 5.37 5.76h91.51c2.8 0 5.11-.68 5.11-5.69v-19.79c0-.43-.05-.85-.13-1.25z" fill="url(#a)"/><defs><path id="b" d="M-19.13-78.78c-.91-4.32-4.3-20.06-5.87-27.34-.47-2.21-2.11-3.82-3.99-3.82-5.36 0-15.39-.06-16.6-.06h-44.08c-.61 0-2.56.07-4.11 1.8-4.7 5.26-12.54 20.51-13.76 22.05-.08.1-6.27 2.28-9.09 3.96-1.12.67-1.74 2.13-1.9 3.62l-2.46 20.76c-.64 4.09 1.7 5.81 5.37 5.81h91.51c2.8 0 5.11-.79 5.11-5.8v-19.74c0-.42-.05-.83-.13-1.24z"/></defs><path d="M-28.98-107c.36 0 .87.59 1.05 1.44 1.46 6.78 4.95 23.05 5.86 27.43.04.2.07.44.07.66v19.79c0 2.81-.49 2.69-2.11 2.69h-91.51c-1.3 0-2.02-.23-2.25-.5s-.3-.92-.16-1.77c.01-.04.01-.06.02-.09l2.47-20.83c.08-.8.36-1.28.46-1.36 1.87-1.12 5.83-2.66 7.51-3.31 1.46-.57 1.86-.72 2.39-1.39.5-.63 1.28-2 2.99-5.03 2.85-5.03 7.61-13.53 10.65-16.93.57-.64 1.22-.79 1.87-.79h60.69-.02m.02-3.01h-60.7c-.63 0-2.55.08-4.08 1.79-4.7 5.27-12.54 20.52-13.76 22.07-.08.1-6.27 2.31-9.09 4-1.12.67-1.74 2.13-1.9 3.63l-2.46 20.75c-.64 4.1 1.7 5.76 5.37 5.76h91.51c2.8 0 5.11-.68 5.11-5.69v-19.79c0-.42-.05-.84-.13-1.24-.91-4.33-4.3-20.17-5.87-27.47-.49-2.21-2.13-3.81-4-3.81z" fill="#424242" opacity=".2"/><linearGradient id="c" x1="69.43" x2="69.43" y1="-151.5" y2="-95.374" gradientUnits="userSpaceOnUse"><stop stop-color="#616161" offset=".011"/><stop stop-color="#5D5D5D" offset=".25"/><stop stop-color="#505050" offset=".504"/><stop stop-color="#3B3B3B" offset=".766"/><stop stop-color="#212121" offset="1"/></linearGradient><path d="M120.35-122.93c-.91-4.33-4.3-20.11-5.86-27.41-.47-2.21-2.11-3.75-3.99-3.75-5.36 0-15.39.01-16.6.01H49.82c-.61 0-2.56-.01-4.11 1.73-4.7 5.27-12.54 20.49-13.76 22.03-.08.1-6.27 2.3-9.09 3.99-1.12.67-1.74 2.12-1.9 3.62l-2.46 20.8c-.64 4.1 1.7 5.82 5.37 5.82h91.51c2.8 0 5.1-.8 5.1-5.81v-19.79c-.01-.42-.05-.83-.13-1.24z" fill="url(#c)"/><defs><path id="d" d="M120.35-122.98c-.91-4.32-4.3-20.06-5.86-27.34-.47-2.21-2.11-3.74-3.99-3.74-5.36 0-15.39.01-16.6.01H49.82c-.61 0-2.56-.01-4.11 1.72-4.7 5.26-12.54 20.47-13.76 22.01-.08.1-6.27 2.26-9.09 3.94-1.12.67-1.74 2.12-1.9 3.61L18.49-102c-.64 4.09 1.7 5.8 5.37 5.8h91.51c2.8 0 5.1-.79 5.1-5.8v-19.74c0-.42-.04-.84-.12-1.24z"/></defs><path d="M110.5-151.08c.36 0 .87.53 1.05 1.38 1.46 6.78 4.95 23.03 5.86 27.4.04.2.06.41.06.63v19.79c0 2.81-.49 2.81-2.1 2.81H23.86c-1.3 0-2.02-.29-2.25-.56s-.3-.95-.16-1.8l.02-.1 2.47-20.84c.08-.8.36-1.28.46-1.36 1.87-1.12 5.83-2.66 7.51-3.31 1.46-.57 1.86-.72 2.39-1.39.5-.63 1.28-2 2.99-5.03 2.85-5.03 7.61-13.46 10.65-16.87.57-.64 1.22-.72 1.87-.72h44.08c.75 0 4.84 0 9.12-.01l7.49-.02m0-3c-5.36 0-15.39.01-16.6.01H49.8c-.63 0-2.55.01-4.08 1.73-4.7 5.27-12.54 20.49-13.76 22.03-.08.1-6.27 2.3-9.09 3.99-1.12.67-1.74 2.12-1.9 3.62l-2.46 20.8c-.64 4.1 1.7 5.82 5.37 5.82h91.51c2.8 0 5.1-.8 5.1-5.81v-19.79c0-.42-.04-.84-.13-1.24-.91-4.33-4.3-20.11-5.86-27.41-.49-2.22-2.13-3.75-4-3.75z" fill="#eee" opacity=".2"/><path d="M194.95 42.37c5.72 4.9 11.76 9.67 18.64 12.73 5.77 2.56 12.03 3.79 18.09 5.54 5.36 1.55 10.68 3.56 14.97 7.03.74.6 1.84.15 1.99-.78 1.06-6.97 4.28-28.12 5.07-33.26.11-.74-.17-1.48-.74-1.97-4.42-3.84-10.04-5.91-15.71-7.55-6.07-1.75-12.32-2.98-18.09-5.54-6.88-3.05-12.92-7.83-18.64-12.73l-5.58 36.53z" fill="#fff"/><path d="M201.86 9.39c5.03 4.16 10.49 8.18 16.55 10.87 4.29 1.9 8.84 3.1 13.23 4.25 1.68.44 3.42.9 5.1 1.38 5.01 1.45 10.71 3.43 15.01 7.17.09.08.14.19.12.29l-3.48 22.83-1.43 9.38c-4.72-3.51-10.33-5.42-14.77-6.7-1.73-.5-3.49-.96-5.19-1.41-4.26-1.12-8.66-2.27-12.67-4.05-6.35-2.82-12.11-7.28-17.4-11.77l4.93-32.24m-1.34-3.56l-5.58 36.54c5.72 4.9 11.76 9.67 18.64 12.73 5.77 2.56 12.03 3.79 18.09 5.54 5.36 1.55 10.68 3.56 14.97 7.03.23.19.5.27.76.27.58 0 1.13-.41 1.23-1.05 1.06-6.97 4.28-28.12 5.07-33.26.11-.74-.17-1.48-.74-1.97-4.42-3.84-10.04-5.91-15.71-7.55-6.07-1.75-12.32-2.98-18.09-5.54-6.88-3.06-12.92-7.84-18.64-12.74z" fill="#424242" opacity=".2"/><path d="M182.61 124.05l-2.46-.39c-.78-.12-1.32-.86-1.2-1.64L197.41 6.01a2.683 2.683 0 1 1 5.3.84l-18.46 116.01c-.12.78-.86 1.32-1.64 1.19z" fill="#BDBDBD"/><path d="M200.06 4.99c.08 0 .15.01.23.02.79.12 1.32.86 1.2 1.65l-18.46 116.01c-.02.11-.11.17-.22.17h-.01l-2.46-.39a.21.21 0 0 1-.17-.23L198.63 6.21c.11-.7.73-1.22 1.43-1.22m0-1.24c-1.3 0-2.44.94-2.65 2.26l-18.46 116.01c-.12.78.41 1.52 1.2 1.64l2.46.39c.08.01.15.02.23.02.7 0 1.31-.51 1.42-1.21L202.71 6.85c.23-1.46-.77-2.84-2.23-3.07-.14-.02-.28-.03-.42-.03z" fill="#424242" opacity=".2"/><path d="M65.5 63.25l41.38 23.88c1.31.74 2.97.13 3.48-1.29l13.85-38.17c.39-1.11-.06-2.33-1.08-2.91L81 20.45l-15.5 42.8z" fill="#fff"/><path d="M82.6 24.84l38.61 22.27-13.44 37.06-38.59-22.26L82.6 24.84M81 20.45l-15.5 42.8 41.38 23.87c.38.22.79.32 1.19.32.98 0 1.92-.6 2.28-1.61l13.85-38.17c.39-1.11-.06-2.33-1.08-2.91L81 20.45z" fill="#424242" opacity=".2"/><ellipse transform="rotate(-79.596 94.913 53.944)" cx="94.92" cy="53.95" rx="13.66" ry="13.66" fill="#E53935"/><path d="M50.3 112.11l-2.17-.76c-.69-.24-1.06-1-.81-1.69l32.43-92.55a2.47 2.47 0 0 1 3.16-1.51 2.47 2.47 0 0 1 1.51 3.16l-32.43 92.55c-.24.68-1 1.04-1.69.8z" fill="#BDBDBD"/><path d="M82.08 16.45c.17 0 .33.03.49.08.77.27 1.17 1.11.9 1.88l-32.43 92.55c-.05.15-.19.22-.31.22-.04 0-.07-.01-.11-.02l-2.17-.76a.33.33 0 0 1-.2-.42l32.43-92.55c.22-.58.78-.98 1.4-.98m0-1c-1.02 0-1.98.64-2.34 1.66l-32.43 92.55c-.24.69.12 1.45.81 1.69l2.17.76c.15.05.29.08.44.08.55 0 1.06-.34 1.25-.89l32.43-92.55c.45-1.29-.22-2.7-1.51-3.16-.27-.09-.55-.14-.82-.14z" fill="#424242" opacity=".2"/><path d="M63 63.25L21.62 87.12c-1.31.74-2.97.13-3.48-1.29L4.3 47.67c-.39-1.11.06-2.33 1.08-2.91l42.12-24.3L63 63.25z" fill="#fff"/><path d="M45.9 24.84L59.32 61.9 20.74 84.17 7.29 47.12 45.9 24.84m1.6-4.39L5.39 44.75a2.407 2.407 0 0 0-1.08 2.91l13.85 38.17c.36 1.01 1.3 1.61 2.28 1.61.4 0 .81-.1 1.19-.32L63 63.25l-15.5-42.8z" fill="#424242" opacity=".2"/><ellipse transform="rotate(-10.404 33.578 53.944)" cx="33.58" cy="53.95" rx="13.66" ry="13.66" fill="#E53935"/><path d="M78.2 112.11l2.17-.76c.69-.24 1.06-1 .81-1.69L48.75 17.11a2.47 2.47 0 0 0-3.16-1.51 2.47 2.47 0 0 0-1.51 3.16l32.43 92.55c.24.68 1 1.04 1.69.8z" fill="#BDBDBD"/><path d="M46.42 16.45c.63 0 1.19.4 1.39.99l32.43 92.55a.33.33 0 0 1-.2.42l-2.17.76c-.04.01-.07.02-.11.02-.12 0-.26-.07-.31-.22L45.03 18.42c-.27-.77.14-1.61.9-1.88.16-.06.32-.09.49-.09m0-1a2.47 2.47 0 0 0-2.33 3.3l32.43 92.55c.19.55.7.89 1.25.89.15 0 .29-.02.44-.08l2.17-.76c.69-.24 1.06-1 .81-1.69L48.75 17.11a2.466 2.466 0 0 0-2.33-1.66z" fill="#424242" opacity=".2"/></svg>