<svg viewBox="0 0 128 128" xmlns="http://www.w3.org/2000/svg"><radialGradient id="a" cx="-88.695" cy="86.604" r="65.781" gradientTransform="matrix(1 0 0 .4002 0 51.944)" gradientUnits="userSpaceOnUse"><stop stop-color="#616161" offset=".297"/><stop stop-color="#212121" offset="1"/></radialGradient><path d="M-50.24 68.73c0 .97-.34 1.91-.96 2.64-3.22 3.78-13.75 16-37.15 16-23.42 0-33.71-12.24-36.84-16-.61-.73-.93-1.65-.93-2.6l-.99-29.03h77.87l-1 28.99z" fill="url(#a)"/><path d="M-50.19 56.25L-86.27 74a6.14 6.14 0 0 1-5.67-.06l-34.05-17.69-1.04-17.24h77.78l-.94 17.24z" fill="#424242" opacity=".2"/><path d="M-91.9 70.58l-53.93-28.17a2.04 2.04 0 0 1-1.1-1.79l-.07-4.76 115.73-.32-.05 4.96c-.01.76-.43 1.45-1.1 1.8l-54.01 28.28c-1.71.85-3.74.86-5.47 0z" fill="#424242"/><linearGradient id="b" x1="-89.126" x2="-89.126" y1="-1.902" y2="56.26" gradientUnits="userSpaceOnUse"><stop stop-color="#9E9E9E" offset=".003"/><stop stop-color="#616161" offset=".585"/></linearGradient><path d="M-91.9 64.59l-53.91-26.8c-1.55-.77-1.51-3 .07-3.7L-91.65 9.8c1.59-.72 3.42-.72 5.01-.01l54.13 24.02c1.58.7 1.64 2.93.09 3.7l-53.99 27.07c-1.73.87-3.76.87-5.49.01z" fill="url(#b)"/><path d="M-88.56 12.25c.42 0 .82.08 1.2.25l53.59 23.69-.04 3.77-17.15 8.71c-.97.49-1.6 1.48-1.64 2.57l-.6 17.43v.1c0 .26-.05.39-.21.58l-.18.21c-3.13 3.68-12.66 14.87-34.26 14.87-10.3 0-24.71-2.55-34.82-14.72-.25-.3-.43-.73-.44-.88v-.11l-.6-16.37a3.002 3.002 0 0 0-1.59-2.54l-18.14-9.67-.05-3.38 53.56-24.23c.44-.18.91-.28 1.37-.28m0-3c-.89 0-1.77.19-2.6.56l-54.09 24.35c-.77.35-1.17.84-1.2 1.84h-.05l.07 4.72c.01.75.43 1.42 1.1 1.77l18.62 9.96.6 16.38c0 .95.52 2.07 1.13 2.8 3.13 3.77 13.71 15.81 37.12 15.81 23.4 0 33.5-12.36 36.72-16.13.63-.74.93-1.56.93-2.53l.6-17.43 17.69-8.99c.67-.35 1.09-1.34 1.1-2.1l.05-5.26h-.04c-.05 0-.44-1.1-1.2-1.43L-86.15 9.7c-.77-.34-1.59-.45-2.41-.45zM-30.77 35z" fill="#424242" opacity=".2"/><path d="M-32.3 99.17a2.48 2.48 0 0 1-2.48-2.48V37.06a2.48 2.48 0 1 1 4.96 0v59.63a2.48 2.48 0 0 1-2.48 2.48z" fill="#FFB300"/><path d="M-26.5 90.41c0-2.93-2.37-5.3-5.3-5.3s-4.89 2.37-4.89 5.3c0 1.31.69 2.49 1.69 3.41v3.69c0 4.18-2.97 8.31-5.53 11.61-.77 1-1.58 2.06-1.62 3.03-.13 2.9 4.81 6.72 7.66 6.72 2.84 0 3.16-1.88 5.04-4.88 2.19-7 1.7-16.29 1.43-19.61.94-.94 1.52-2.52 1.52-3.97z" fill="#FFB300"/><path d="M-31.8 87.11c1.82 0 3.3 1.48 3.3 3.3 0 .84-.32 1.59-.95 2.23-.41.41-.61.99-.57 1.57.27 3.33.69 11.73-1.27 18.26-.38.62-.7 1.2-.99 1.72-1.16 2.1-1.4 2.34-2.33 2.34-1.1 0-3.32-1.05-4.77-2.56-.76-.8-1.02-1.42-1-1.72.01-.16.04-.76.92-1.89 3.71-4.77 5.45-8.97 5.45-12.84v-3.69c0-.56-.18-1.09-.59-1.47-.36-.33-.57-.78-.57-1.94.01-1.83 1.54-3.31 3.37-3.31m0-2c-2.93 0-5.39 2.37-5.39 5.3 0 1.31.19 2.49 1.19 3.41v3.69c0 4.18-2.47 8.31-5.03 11.61-.77 1-1.33 2.06-1.37 3.03-.13 2.9 4.94 6.22 7.78 6.22s3.28-2.38 5.17-5.38c2.19-7 1.7-15.79 1.43-19.11.94-.96 1.52-2.11 1.52-3.56 0-2.91-2.37-5.21-5.3-5.21z" fill="#424242" opacity=".2"/><path d="M-90.35 36.61a2.48 2.48 0 0 1 2.48-2.48h55.39a2.48 2.48 0 1 1 0 4.96h-55.39a2.48 2.48 0 0 1-2.48-2.48z" fill="#FFCA28"/><radialGradient id="c" cx="-86.781" cy="34.177" r="11.894" gradientTransform="matrix(1 0 0 .6605 0 11.604)" gradientUnits="userSpaceOnUse"><stop stop-color="#757575" offset="0"/><stop stop-color="#424242" offset=".997"/></radialGradient><ellipse cx="-87.59" cy="36.63" rx="6.3" ry="4.45" fill="url(#c)"/><path d="M-87.59 34.18c2.46 0 4.3 1.29 4.3 2.45s-1.84 2.45-4.3 2.45-4.3-1.29-4.3-2.45 1.83-2.45 4.3-2.45m0-2c-3.48 0-6.3 1.99-6.3 4.45s2.82 4.45 6.3 4.45 6.3-1.99 6.3-4.45-2.82-4.45-6.3-4.45z" fill="#424242" opacity=".2"/><linearGradient id="d" x1="63.998" x2="63.998" y1="46.167" y2="79.5" gradientUnits="userSpaceOnUse"><stop stop-color="#212121" offset="0"/><stop stop-color="#616161" offset=".703"/></linearGradient><path d="M102 66S91.3 77.81 63.83 77.81 26 66 26 66V40.32h76V66z" fill="url(#d)"/><path fill="#424242" d="M63.05 59.75L3.96 40.37l-.09-3.84 118.26-.28.01 4.03z"/><linearGradient id="e" x1="63.08" x2="63.08" y1="4.333" y2="42.834" gradientUnits="userSpaceOnUse"><stop stop-color="#9E9E9E" offset="0"/><stop stop-color="#616161" offset=".715"/></linearGradient><path fill="url(#e)" d="M63.05 55.91L3.96 36.53l59.09-15.77 59.15 15.49z"/><path d="M63.13 23.92l55.27 14.44-17.35 5.74c-1.22.4-2.05 1.55-2.05 2.84v17.75c-2.87 2.44-13.64 10.12-35.19 10.12-21.56 0-32.05-7.69-34.81-10.09V47.63a3 3 0 0 0-2.06-2.85L8.08 38.57l55.05-14.65m-.01-3.11L3.97 36.56l-.01 3.81L26 47.63V66s10.45 11.81 37.81 11.81S102 66 102 66V46.94l20.14-6.66-.01-4.01.07-.02-59.08-15.44z" fill="#eee" opacity=".2"/><path d="M120.19 35.3H64.54c-.98 0-1.89.67-2.05 1.64-.2 1.23.75 2.3 1.94 2.3h51.79c1.1 0 2 .9 2 2v55.02c0 .98.67 1.89 1.64 2.05 1.23.2 2.3-.75 2.3-1.94v-59.1c0-1.09-.88-1.97-1.97-1.97z" fill="#FFB300"/><path d="M120.19 98.34c-1.09 0-1.97-.88-1.97-1.97v-59.1c0-1.09.88-1.97 1.97-1.97s1.97.88 1.97 1.97v59.1c0 1.09-.88 1.97-1.97 1.97z" fill="#FFB300"/><path d="M118.19 107.24c-2.18 0-6.04-2.72-5.94-4.94.03-.74.49-1.56 1.08-2.32 1.96-2.52 3.92-5.69 3.92-8.89v-3.55c0-1.1.9-2 2-2h1.88c1.1 0 2 .9 2 2 0 0 1.08 9.35-1 15.76-1.45 2.19-1.77 3.94-3.94 3.94z" fill="#FFB300"/><circle cx="120.24" cy="85.23" r="4.06" fill="#FFB300"/><path d="M120.19 98.34c-1.09 0-1.97-.88-1.97-1.97v-59.1c0-1.09.88-1.97 1.97-1.97s1.97.88 1.97 1.97v59.1c0 1.09-.88 1.97-1.97 1.97z" fill="#FFB300"/><path d="M118.19 107.24c-2.18 0-6.04-2.72-5.94-4.94.03-.74.49-1.56 1.08-2.32 1.96-2.52 3.92-5.69 3.92-8.89v-3.55c0-1.1.9-2 2-2h1.88c1.1 0 2 .9 2 2 0 0 1.08 9.35-1 15.76-1.45 2.19-1.77 3.94-3.94 3.94z" fill="#FFB300"/><circle cx="120.24" cy="85.23" r="4.06" fill="#FFB300"/><path d="M120.24 83.17c1.13 0 2.06.92 2.06 2.06 0 .52-.2 1.02-.57 1.41-.4.42-.6.99-.54 1.56.14 1.47.73 8.98-.88 14.23-.3.48-.56.93-.78 1.33-.83 1.47-.92 1.47-1.33 1.47-1.34 0-3.9-2-3.94-2.85 0 0-.09-.37.54-1.18 2.92-3.76 4.22-7.06 4.22-10.11v-3.15c0-.5-.06-.98-.39-1.34-.25-.27-.48-.73-.48-1.37-.03-1.14.96-2.06 2.09-2.06m0-2c-2.24 0-4.18 1.82-4.18 4.06 0 1.05.94 1.99.94 2.71v3.15c0 3.2-1.83 6.36-3.8 8.89-.59.76-.99 1.58-1.02 2.32-.1 2.22 3.79 4.94 5.97 4.94s2.51-1.75 3.96-3.94c1.8-5.56 1.24-13.31 1.06-15.28.69-.73 1.13-1.71 1.13-2.79-.01-2.24-1.82-4.06-4.06-4.06z" fill="#424242" opacity=".2"/><path d="M62.47 37.27c0-1.09.88-1.97 1.97-1.97h55.76c1.09 0 1.97.88 1.97 1.97s-.88 1.97-1.97 1.97H64.44c-1.09 0-1.97-.88-1.97-1.97z" fill="#FFCA28"/><radialGradient id="f" cx="64.135" cy="35.72" r="7.686" gradientTransform="matrix(1 0 0 .6605 0 12.128)" gradientUnits="userSpaceOnUse"><stop stop-color="#757575" offset="0"/><stop stop-color="#424242" offset=".997"/></radialGradient><ellipse cx="64" cy="36.8" rx="6.15" ry="4.34" fill="url(#f)"/></svg>