<svg viewBox="0 0 128 128" xmlns="http://www.w3.org/2000/svg"><path d="M63.86 4c-12.1 0-22 9.72-22 21.59v3.38c0 3.65 2.2 6.65 6.6 7.02v-10.4c0-8.31 6.93-15.11 15.4-15.11 8.51 0 15.4 6.77 15.4 15.11v10.42c3.3-.2 6.6-3.27 6.6-7.04v-3.38c0-11.92-9.85-21.59-22-21.59z" fill="#1565C0"/><path d="M81.73 98.04H46.15c-2.24 0-4.06-1.82-4.06-4.06v-.65c0-2.24 1.82-4.06 4.06-4.06h35.58c2.24 0 4.06 1.82 4.06 4.06v.65c0 2.24-1.82 4.06-4.06 4.06z" fill="#29B6F6"/><linearGradient id="a" x1="63.859" x2="63.859" y1="123.02" y2="15.275" gradientUnits="userSpaceOnUse"><stop stop-color="#1E88E5" offset=".216"/><stop stop-color="#42A5F5" offset=".86"/></linearGradient><path d="M26.72 124H101c5.13 0 9.28-3.87 9.28-8.64V60.68c0-25.64-20.78-44.42-46.42-44.42S17.44 35.04 17.44 60.68v54.68c-.01 4.77 4.15 8.64 9.28 8.64z" fill="url(#a)"/><radialGradient id="b" cx="63.523" cy="104.07" r="53.477" gradientTransform="matrix(1 0 0 .2631 0 76.688)" gradientUnits="userSpaceOnUse"><stop stop-color="#1E88E5" offset=".227"/><stop stop-color="#1565C0" offset=".905"/></radialGradient><path d="M88.89 114.61H39.15c-5.52 0-10-4.48-10-10V74.53c0-1.66 1.34-3 3-3h63.74c1.66 0 3 1.34 3 3v30.08c0 5.52-4.47 10-10 10z" fill="url(#b)"/><defs><path id="c" d="M26.72 124H101c5.13 0 9.28-3.87 9.28-8.64V60.68c0-25.64-20.78-44.42-46.42-44.42S17.44 35.04 17.44 60.68v54.68c-.01 4.77 4.15 8.64 9.28 8.64z"/></defs><path d="M74.09 51.86H53.91c-4.25 0-7.69-3.44-7.69-7.69s3.44-7.69 7.69-7.69h20.17c4.25 0 7.69 3.44 7.69 7.69.01 4.25-3.44 7.69-7.68 7.69z" fill="#FBC02D"/><path d="M63.86 19.26c11.76 0 22.69 4.18 30.77 11.78 8.16 7.67 12.65 18.2 12.65 29.64v54.68c0 3.11-2.82 5.64-6.28 5.64H26.72c-3.47 0-6.28-2.53-6.28-5.64V60.68c0-11.44 4.49-21.97 12.65-29.64 8.08-7.6 19-11.78 30.77-11.78m0-3c-25.64 0-46.42 18.78-46.42 44.42v54.68c0 4.77 4.16 8.64 9.28 8.64H101c5.13 0 9.28-3.87 9.28-8.64V60.68c0-25.64-20.78-44.42-46.42-44.42z" fill="#424242" opacity=".2"/><path d="M95.89 73.53c.55 0 1 .45 1 1v30.08c0 4.41-3.59 8-8 8H39.15c-4.41 0-8-3.59-8-8V74.53c0-.55.45-1 1-1h63.74m0-2H32.15c-1.66 0-3 1.34-3 3v30.08c0 5.52 4.48 10 10 10h49.74c5.52 0 10-4.48 10-10V74.53c0-1.65-1.34-3-3-3z" fill="#424242" opacity=".2"/><linearGradient id="d" x1="64.11" x2="64.11" y1="68.667" y2="95.002" gradientUnits="userSpaceOnUse"><stop stop-color="#9CCC65" offset=".227"/><stop stop-color="#7CB342" offset=".905"/></linearGradient><path d="M88.98 94.6H39.24c-5.52 0-10-5.48-10-11V72.3c0-2.21 1.79-4 4-4h61.74c2.21 0 4 1.79 4 4v11.3c0 5.53-4.48 11-10 11z" fill="url(#d)"/><path d="M94.98 70.3c1.1 0 2 .9 2 2v11.3c0 5.15-4.22 9-8 9H39.24c-3.78 0-8-3.85-8-9V72.3c0-1.1.9-2 2-2h61.74m0-2H33.24c-2.21 0-4 1.79-4 4v11.3c0 5.52 4.48 11 10 11h49.74c5.52 0 10-5.48 10-11V72.3c0-2.2-1.79-4-4-4z" fill="#424242" opacity=".2"/><path d="M64 102.43c-2.77 0-5.02-2.25-5.02-5.02v-6.73c0-2.77 2.25-5.02 5.02-5.02s5.02 2.25 5.02 5.02v6.73c0 2.78-2.25 5.02-5.02 5.02z" fill="#FFEB3B"/><path d="M64 87.67c1.67 0 3.02 1.36 3.02 3.02v6.73c0 1.67-1.36 3.02-3.02 3.02s-3.02-1.36-3.02-3.02v-6.73c0-1.67 1.35-3.02 3.02-3.02m0-2c-2.77 0-5.02 2.25-5.02 5.02v6.73c0 2.77 2.25 5.02 5.02 5.02s5.02-2.25 5.02-5.02v-6.73c0-2.78-2.25-5.02-5.02-5.02zM74.09 39.48a4.69 4.69 0 0 1 0 9.38H53.91a4.69 4.69 0 0 1 0-9.38h20.18m0-3H53.91c-4.25 0-7.69 3.44-7.69 7.69s3.44 7.69 7.69 7.69h20.17c4.25 0 7.69-3.44 7.69-7.69.01-4.25-3.44-7.69-7.68-7.69z" fill="#424242" opacity=".2"/></svg>