<svg viewBox="0 0 128 128" xmlns="http://www.w3.org/2000/svg" xmlns:xlink="http://www.w3.org/1999/xlink"><defs><path id="a" d="M4 4h120v120H4z"/></defs><clipPath id="b"><use xlink:href="#a"/></clipPath><path d="M53 21.5c-5.5 5-10.99 11.9-8.67 19.17 2.67 8.33-5 15-12 14" clip-path="url(#b)" fill="none" stroke="#607D8B" stroke-linecap="round" stroke-linejoin="round" stroke-miterlimit="10" stroke-width="4"/><path d="M-13.5 45.25s-4-28.5 7.25-39.5" clip-path="url(#b)" fill="none" stroke="#B0BEC5" stroke-linecap="round" stroke-linejoin="round" stroke-miterlimit="10" stroke-width="3"/><g clip-path="url(#b)"><linearGradient id="c" x1="21.84" x2="30.432" y1="112.57" y2="122.01" gradientTransform="rotate(10.263 35.884 89.674)" gradientUnits="userSpaceOnUse"><stop stop-color="#64B5F6" offset=".011"/><stop stop-color="#2196F3" offset=".988"/></linearGradient><path d="M32.72 123.85l-4.42-1.91c-3.5-1.52-7.31-2.15-11.12-1.86l-3.42.27c-1.07.08-1.76-1.13-1.17-2.07 2.58-4.14 8.39-12.4 13.16-11.54 4.78.87 7.63 10.73 8.74 15.53.26 1.08-.79 2.01-1.77 1.58z" fill="url(#c)"/><path d="M25.05 108.68c.12 0 .24.01.35.03 2.34.42 4.99 5.38 6.85 12.76l-3.16-1.37a25.227 25.227 0 0 0-12.06-2.01l-2.04.16c3.86-5.93 7.67-9.57 10.06-9.57m0-2c-4.62 0-10 7.67-12.45 11.6-.57.91.06 2.08 1.07 2.08h.1l3.42-.27a23.34 23.34 0 0 1 11.12 1.86l4.42 1.91c.17.07.34.11.5.11.8 0 1.49-.79 1.28-1.69-1.11-4.8-3.96-14.66-8.74-15.53-.24-.05-.48-.07-.72-.07z" fill="#444" opacity=".2"/><linearGradient id="d" x1="39.905" x2="54.214" y1="66.471" y2="103.12" gradientTransform="rotate(10.263 35.884 89.674)" gradientUnits="userSpaceOnUse"><stop stop-color="#64B5F6" offset=".003"/><stop stop-color="#2196F3" offset=".713"/></linearGradient><path d="M38.83 106.39l-4.69-.85 17.29-36.2 10.5 6.36c1.15.7 1.65 2.22 1.16 3.59-.93 2.63-2.54 7.01-4.38 11.04-2.51 5.46-12.02 17.48-19.88 16.06z" fill="url(#d)"/><linearGradient id="e" x1=".951" x2="9.547" y1="80.681" y2="102.7" gradientTransform="scale(-1 1) rotate(3.382 49.483 -233.291)" gradientUnits="userSpaceOnUse"><stop stop-color="#64B5F6" offset=".003"/><stop stop-color="#2196F3" offset=".713"/></linearGradient><path d="M17.57 100.7l2.87-.23-7.26-22.59-6.79 3.17c-.75.35-1.17 1.22-.99 2.07.33 1.62.93 4.33 1.69 6.84 1.02 3.4 5.67 11.13 10.48 10.74z" fill="url(#e)"/><path d="M51.85 70.77l9.55 5.78c.74.45 1.06 1.48.74 2.4-1 2.85-2.57 7.06-4.35 10.95-2.42 5.29-10.83 15.6-17.64 15.6-.39 0-.77-.03-1.14-.1l-3.4-.62 16.24-34.01m-.43-1.43l-17.29 36.2 4.69.85c.43.08.87.12 1.32.12 7.58 0 16.19-11.01 18.55-16.18 1.84-4.03 3.46-8.41 4.38-11.04.48-1.37-.01-2.89-1.16-3.59l-10.49-6.36zM12.57 79.27l6.53 20.31-1.61.13c-.09.01-.18.01-.27.01-4.06 0-8.28-7.04-9.19-10.05-.73-2.41-1.31-5-1.66-6.75-.08-.4.11-.81.44-.96l5.76-2.69m.61-1.39l-6.79 3.17c-.75.35-1.17 1.22-.99 2.07.33 1.62.93 4.33 1.69 6.84 1 3.32 5.46 10.76 10.14 10.76.12 0 .23 0 .35-.01l2.87-.23-7.27-22.6z" fill="#444" opacity=".2"/><radialGradient id="f" cx="24.164" cy="68.059" r="51.441" gradientTransform="matrix(.9276 .1681 -.1696 .9359 18.31 -3.197)" gradientUnits="userSpaceOnUse"><stop stop-color="#BBDEFB" offset=".358"/><stop stop-color="#64B5F6" offset=".714"/></radialGradient><path d="M41.2 50.85l-5.61 2.76-4.12-4.53s-17.81 3.76-21.15 22.19c-4.87 26.88 14.8 40.57 14.8 40.57s25.84-5.1 30.78-32.31c3.39-18.77-14.7-28.68-14.7-28.68z" fill="url(#f)"/><defs><path id="g" d="M41.2 50.85l-5.71 3.07-4.02-4.83s-17.81 3.76-21.15 22.19c-4.87 26.88 14.8 40.57 14.8 40.57s25.84-5.1 30.78-32.31c3.39-18.78-14.7-28.69-14.7-28.69z"/></defs><clipPath id="h"><use xlink:href="#g"/></clipPath><radialGradient id="i" cx="7.449" cy="63.705" r="70.535" gradientTransform="matrix(.7367 .1335 -.1411 .7787 22.194 9.932)" gradientUnits="userSpaceOnUse"><stop stop-color="#E3F2FD" offset=".435"/><stop stop-color="#90CAF9" offset=".956"/></radialGradient><path d="M27.56 113.8c3.37 7.92-36.31-5.24-36.31-5.24L3.28 42.17l33.42 3.32 12.14 4.34s8.09 15.26-12.61 21.99c-17.8 5.79-13.2 31.33-8.67 41.98z" clip-path="url(#h)" fill="url(#i)"/><ellipse transform="rotate(-79.729 40.348 62.625)" cx="40.35" cy="62.63" rx="3.15" ry="3.33" fill="#283593"/><path d="M22.84 65.81s1.48 3.72 10.11 5.29c8.63 1.56 11.63-1.48 11.63-1.48" fill="none" stroke="#82B1FF" stroke-linecap="round" stroke-linejoin="round" stroke-miterlimit="10" stroke-width="3"/><linearGradient id="j" x1="24.102" x2="34.958" y1="78.186" y2="78.186" gradientTransform="rotate(10.263 35.884 89.674)" gradientUnits="userSpaceOnUse"><stop stop-color="#64B5F6" offset=".003"/><stop stop-color="#2196F3" offset=".713"/></linearGradient><path d="M33.35 84.35l-5.74-1.04c-1.51-.27-2.4-1.94-1.89-3.53 1.22-3.8 3.67-9.76 6.89-9.18 3.18.58 3.72 6.92 3.74 10.96.02 1.72-1.43 3.07-3 2.79z" fill="url(#j)"/><path d="M30.76 51.34l3.3 3.82c.39.45.95.69 1.51.69.32 0 .64-.08.94-.24l4.61-2.46c3.44 2.23 15.48 11.21 12.8 26.02-1.93 10.68-7.4 19.08-16.25 24.97-5.23 3.48-10.18 5.03-12.1 5.54-1.45-1.17-4.97-4.29-8.09-9.25-5.37-8.53-7.12-18.22-5.2-28.8 2.62-14.46 14.7-19.16 18.48-20.29m.7-2.25s-17.81 3.76-21.15 22.19c-4.87 26.88 14.8 40.57 14.8 40.57s25.84-5.1 30.78-32.31c3.4-18.77-14.7-28.68-14.7-28.68l-5.62 3-4.11-4.77z" fill="#444" opacity=".2"/></g><radialGradient id="k" cx="59.987" cy="56.431" r="10.941" gradientTransform="rotate(13.209 77.096 65.782)" gradientUnits="userSpaceOnUse"><stop stop-color="#B3E5FC" offset=".165"/><stop stop-color="#4FC3F7" offset=".74"/></radialGradient><path d="M61.62 61.32c.03.04.05.08.08.1 3.41 4.89 11.4 2.7 11.09-3.54 0-.16-.02-.33-.04-.49-.46-3.63-3.24-6.34-6.48-7.72-1.66-.7-3.37-1.33-5.1-1.87-.84-.27-1.71-.59-2.58-.76-.49-.1-1.42.08-1.61.62-.29.82.25 2.4.43 3.22.81 3.68 2.04 7.34 4.21 10.44z" clip-path="url(#b)" fill="url(#k)"/><g clip-path="url(#b)" opacity=".2"><path d="M59.06 49.22c.33.1.67.21 1.02.33l.5.17c1.68.53 3.33 1.14 4.91 1.81 2.98 1.27 4.96 3.56 5.28 6.13l.03.27V58c.06 1.15-.28 2.14-.98 2.88-.75.79-1.85 1.24-3.02 1.24-.82 0-2.35-.24-3.46-1.82a.55.55 0 0 0-.07-.09c0-.01-.01-.01-.01-.01-1.75-2.5-2.99-5.59-3.9-9.73-.04-.19-.1-.41-.16-.65-.03-.17-.09-.38-.14-.6m-.75-2.2c-.5 0-1.16.2-1.32.64-.29.82.25 2.4.43 3.22.81 3.68 2.03 7.34 4.21 10.45.03.04.05.08.08.1a6.15 6.15 0 0 0 5.1 2.67c3.15 0 6.19-2.32 6-6.21 0-.16-.02-.33-.04-.49-.46-3.63-3.24-6.34-6.48-7.72-1.66-.7-3.37-1.33-5.1-1.87-.84-.27-1.71-.59-2.58-.76-.1-.03-.2-.03-.3-.03z" fill="#444"/></g><g clip-path="url(#b)"><path d="M52.22 25.26C64.71 12.04 77.4 10.32 89.34 14.42c21.01 7.21 24.22 26.49 24.57 35.48.32 8.05-1.1 19.71-2.35 27.68-1.36 8.69-10.21 59.42-13.1 76.12-1.4 8.12 8.14 9.68 9.54 1.56 5.26-30.46 11.13-60.85 15.37-91.48 2.15-15.56-.2-31.08-9.95-42.65-8.16-9.69-19.23-15.9-31.52-16.52-13.65-.69-23.62 5.82-32.95 17.37-2.54 3.17 1.52 5.13 3.27 3.28z" fill="#5D4037"/><defs><path id="l" d="M54.95 29.5c8.25-11.09 21.64-14.53 33.69-10.79 6.3 1.95 11.81 5.93 16.2 11.16 5.58 6.66 7.26 14.04 7.61 23.03.32 8.05-1.54 16.4-2.79 24.36-1.36 8.69-2.81 17.37-4.3 26.04-2.87 16.7-5.91 33.38-8.79 50.08-1.4 8.12 10.05 10 11.45 1.87 5.26-30.46 11.13-60.85 15.37-91.48 2.15-15.56-.2-31.08-9.95-42.65-8.16-9.69-19.23-15.9-31.52-16.52C68.27 3.92 55 9.56 46.1 21.51c-4.81 6.47 4.04 14.46 8.85 7.99z"/></defs><path d="M79.96 6.56c.61 0 1.23.02 1.85.05 11.29.57 21.98 6.19 30.09 15.81 10.78 12.79 11.11 29.4 9.5 41.08-3.08 22.25-7.09 44.77-10.97 66.54-1.45 8.15-2.95 16.57-4.39 24.87-.47 2.73-2 3.71-3.16 3.71-.68 0-1.31-.3-1.77-.84-.7-.83-.94-2.16-.67-3.74.7-4.06 1.75-10.12 2.97-17.11 3.84-22.13 9.1-52.45 10.14-59.04.84-5.34 2.74-18.77 2.37-28.06-.34-8.65-3.55-29.61-25.92-37.29-4.01-1.38-7.98-2.07-11.81-2.07-9.77 0-18.99 4.52-27.41 13.44-.07.08-.2.09-.27.09-.15 0-.28-.05-.35-.09.02-.09.1-.31.37-.65 9.3-11.56 18.38-16.7 29.43-16.7m0-2c-12.66 0-22.12 6.42-30.99 17.42-1.88 2.32-.19 4 1.53 4 .63 0 1.26-.22 1.72-.72 8.67-9.17 17.42-12.81 25.96-12.81 3.77 0 7.5.71 11.16 1.97 21.01 7.21 24.22 26.49 24.57 35.48.32 8.05-1.1 19.71-2.35 27.68-1.36 8.69-10.21 59.42-13.1 76.12-.77 4.45 1.75 6.93 4.41 6.93 2.2 0 4.5-1.69 5.13-5.36 5.26-30.46 11.13-60.85 15.37-91.48 2.15-15.56-.2-31.08-9.95-42.65-8.16-9.69-19.23-15.9-31.52-16.52-.64-.04-1.3-.06-1.94-.06z" fill="#eee" opacity=".2"/><linearGradient id="m" x1="106.71" x2="120.32" y1="79.092" y2="131.82" gradientTransform="rotate(9.294 71.846 75.052)" gradientUnits="userSpaceOnUse"><stop stop-color="#FFA726" offset=".167"/><stop stop-color="#FB8C00" offset=".727"/></linearGradient><path d="M108.79 155.96l-10.92-1.79a3.008 3.008 0 0 1-2.48-3.45l10.16-62.08a3.008 3.008 0 0 1 3.45-2.48l10.92 1.79c1.64.27 2.74 1.81 2.48 3.45l-10.16 62.08a3.014 3.014 0 0 1-3.45 2.48z" fill="url(#m)"/><path d="M108.51 88.13c.05 0 .11 0 .16.01l10.92 1.79c.36.06.56.28.65.4.09.13.23.39.17.75l-10.16 62.08c-.08.48-.5.84-.98.84-.05 0-.11 0-.17-.01l-10.9-1.79c-.54-.09-.91-.6-.83-1.15l10.16-62.08c.08-.48.5-.84.98-.84m0-2c-1.44 0-2.72 1.04-2.96 2.52L95.4 150.72a3 3 0 0 0 2.48 3.45l10.92 1.79a3.002 3.002 0 0 0 3.45-2.48l10.16-62.08a3 3 0 0 0-2.48-3.45L109 86.17a2.7 2.7 0 0 0-.49-.04z" fill="#444" opacity=".2"/><ellipse transform="rotate(-80.706 96.412 103.516)" cx="96.41" cy="103.52" rx="15.68" ry="15.68" fill="#BDBDBD"/><ellipse transform="rotate(-80.706 96.412 103.516)" cx="96.41" cy="103.52" rx="7.24" ry="7.24" fill="#757575"/><g fill="#444" opacity=".2"><path d="M96.4 89.84c.74 0 1.49.06 2.23.18 7.44 1.22 12.51 8.27 11.29 15.71-1.09 6.65-6.76 11.47-13.48 11.47-.74 0-1.49-.06-2.23-.18-7.44-1.22-12.51-8.27-11.29-15.71A13.603 13.603 0 0 1 96.4 89.84m0-2c-7.54 0-14.2 5.46-15.45 13.15-1.4 8.55 4.4 16.61 12.94 18.01.86.14 1.71.21 2.55.21 7.54 0 14.2-5.46 15.45-13.15 1.4-8.55-4.4-16.61-12.94-18.01-.86-.15-1.71-.21-2.55-.21z"/><path d="M96.41 98.28a5.255 5.255 0 0 1 4.26 2.18c.82 1.14 1.14 2.52.92 3.9a5.221 5.221 0 0 1-6.01 4.32c-2.85-.47-4.79-3.16-4.32-6.01.4-2.54 2.57-4.39 5.15-4.39m0-2c-3.48 0-6.55 2.52-7.13 6.07-.65 3.94 2.03 7.66 5.97 8.31.4.06.79.1 1.18.1 3.48 0 6.55-2.52 7.13-6.07.65-3.94-2.03-7.66-5.97-8.31-.4-.07-.8-.1-1.18-.1z"/></g><path d="M95.91 108.92l-14.82 10.65c-1.25.9-2.99.61-3.89-.64l-.67-.93c-.9-1.25-.61-2.99.64-3.89l14.82-10.65c1.25-.9 2.99-.61 3.89.64l.67.93c.89 1.26.61 3-.64 3.89z" fill="#FFD54F"/><path d="M93.61 103.95c.57 0 1.12.28 1.45.74l.67.93c.57.8.39 1.92-.41 2.49L80.5 118.76c-.31.22-.66.34-1.04.34a1.8 1.8 0 0 1-1.45-.74l-.67-.93c-.57-.8-.39-1.92.41-2.49l14.82-10.65c.31-.23.66-.34 1.04-.34m0-1c-.56 0-1.13.17-1.62.52l-14.82 10.65c-1.25.9-1.53 2.64-.64 3.89l.67.93c.54.76 1.4 1.16 2.26 1.16.56 0 1.13-.17 1.62-.52l14.82-10.65c1.25-.9 1.53-2.64.64-3.89l-.67-.93a2.756 2.756 0 0 0-2.26-1.16z" fill="#444" opacity=".2"/></g></svg>