<svg viewBox="0 0 128 128" xmlns="http://www.w3.org/2000/svg" xmlns:xlink="http://www.w3.org/1999/xlink"><defs><path id="a" d="M106.67 91.32c-.17.41-.56.75-1.1.91-.95.28-2-.12-2.36-.89L64.87 7.26c-.35-.77.14-1.62 1.08-1.9.95-.28 2.01.12 2.35.89l38.35 84.08c.15.34.15.68.02.99z"/></defs><use fill="#1565C0" xlink:href="#a"/><clipPath id="b"><use xlink:href="#a"/></clipPath><g clip-path="url(#b)"><path d="M98.57 73.24c-.18.44-.6.8-1.18.97-1.01.3-2.14-.13-2.51-.95L62.85 2.83c-.37-.82.15-1.73 1.16-2.02 1.02-.3 2.14.13 2.51.95l32.03 70.42c.16.36.16.73.02 1.06z" fill="#EF6C00"/></g><path d="M99.19 84.34s3.23 3.39 6.19 2.96l-2.74-5.4-3.45 2.44z" fill="#0D47A1"/><path d="M99.47 78.86c-3.28.96-5.37 3.01-4.65 4.57.71 1.57 3.96 2.06 7.23 1.1 3.28-.96 5.37-3.01 4.65-4.58-.71-1.56-3.95-2.05-7.23-1.09z" fill="#90CAF9"/><path d="M100.94 82c1.72-.85 1.03-1.67 1.03-1.67l.12.01-3.43-7.53c-.01.15-.03.29-.08.43-.18.44-.6.8-1.18.97-.84.25-1.76-.01-2.26-.57l3.74 8.2c.3.33.94.72 2.06.16z" fill="#EF6C00"/><path d="M67.67 8.54c.4 0 .68.29.8.55l29.17 63.5c.01.03.02.07.02.16-.01.16.02.33.09.47l2.59 5.67c.16.36.52.59.91.59.05 0 .09 0 .14-.01.47-.07.94-.1 1.38-.1 1.77 0 2.81.52 3.03 1 .26.58-.62 1.75-2.5 2.63-.5.23-.71.82-.49 1.32l.52 1.14.94 1.86c0 .14.03.28.09.4l1.38 3.03c.03.07.03.12.01.18-.06.15-.23.27-.46.34-.11.03-.22.05-.34.05-.37 0-.72-.17-.82-.4l-2.65-5.8c-.07-.15-.17-.28-.3-.38-.25-.19-.47-.38-.66-.54-.18-.16-.42-.25-.66-.25-.03 0-.07 0-.1.01-.34.03-.67.05-1 .05-1.77 0-2.81-.52-3.03-1-.26-.58.62-1.75 2.5-2.63.5-.23.71-.82.49-1.32l-2.67-5.85c-.04-.09-.1-.18-.16-.25-.07-.07-.09-.11-.09-.12L66.86 9.22a.297.297 0 0 1 0-.26c.08-.17.27-.31.53-.39.1-.02.19-.03.28-.03m0-1c-.18 0-.37.03-.57.08-1.01.29-1.53 1.2-1.16 2.02l28.93 63.62c.06.14.15.26.26.37l2.67 5.85c-2.28 1.07-3.58 2.67-2.99 3.95.47 1.02 2.01 1.58 3.94 1.58.35 0 .72-.02 1.1-.06.2.17.44.37.71.58l2.65 5.8c.27.6.98.98 1.73.98.21 0 .42-.03.62-.09.54-.16.93-.5 1.1-.91.13-.31.13-.65-.02-.98l-1.38-3.03c.04 0 .07 0 .11-.01L104.21 85l-.5-1.1c2.28-1.07 3.57-2.67 2.99-3.95-.47-1.02-2.01-1.59-3.94-1.59-.49 0-1 .04-1.52.11l-2.59-5.67c.01-.21-.01-.42-.1-.63L69.38 8.67c-.3-.66-.94-1.13-1.71-1.13z" fill="#444" opacity=".2"/><path d="M62.2 15.29c-.36 1.5-.62 3-.4 4.55.14.98.71 1.9 1.43 2.69 1.06 1.18 3.12 2.25 4.97 2.2.12-.01.24-.01.35-.03 1.21-.16 2.32-.91 2.79-1.82.5-.99.09-3.43-1.57-3.64-.47.88-.37 2.22-1.89 2.36-1.6.15-2.31-1.27-2.68-2.26-.97-2.64.91-5.16 1-7.76.03-.84-.42-4.44-2.34-3.6-.93.41-.56 2.23-.67 2.96-.2 1.46-.65 2.9-.99 4.35z" fill="#2F2F2F"/><path d="M69.35 22.84c.02.02.05.03.07.05 2.76 2.07 5.68.77 7.2-1.5.86-1.29-.18-2.31-.99-3.4-.95-1.26-1.39-2.64-1.97-4.02-.76-1.81-1.71-3.57-2.32-5.42-.18-.56-.43-1.12-.5-1.69-.24-1.86-2.07-3.15-4.45-2.58-1 .23-1.96.82-2.6 1.48-.85.85-1.05 1.98-.48 2.99.8 1.45 1.98 2.69 2.66 4.22 1.03 2.31 2.27 5.04 2.43 7.51.05.99.03 1.64.95 2.36z" fill="#2F2F2F"/><path d="M67.5 5.15c1.26 0 2.2.74 2.34 1.85.07.53.24 1.01.4 1.47.05.13.1.27.14.41.41 1.25.97 2.45 1.5 3.61.29.62.58 1.26.85 1.88.12.28.23.55.34.83.45 1.13.92 2.3 1.76 3.41.1.13.2.26.3.38.86 1.11.97 1.4.67 1.86-.87 1.31-2.17 2.09-3.46 2.09-.4 0-.81-.08-1.2-.22a1.03 1.03 0 0 0-.35-.06c-.26 0-.51.1-.7.29-.43.42-1.04.72-1.64.8-.09.01-.18.02-.25.02h-.08c-1.58 0-3.3-.97-4.12-1.88-.69-.76-1.09-1.49-1.18-2.16-.2-1.44.06-2.86.38-4.18.1-.44.22-.88.33-1.32.26-1.01.54-2.06.69-3.11.04-.27.04-.58.03-.91-.01-.4-.01-.86.07-1.17.06-.25.01-.53-.11-.75-.46-.82 0-1.48.32-1.8.56-.57 1.37-1.03 2.12-1.21.27-.1.57-.13.85-.13m.15 17.47c.1 0 .21 0 .32-.02.32-.03.62-.11.92-.25.42-.19.65-.63.57-1.08-.03-.19-.05-.42-.06-.68l-.01-.18c-.16-2.58-1.36-5.27-2.42-7.64l-.06-.13a.998.998 0 0 0-.91-.59h-.1a1 1 0 0 0-.88.77c-.11.48-.26.96-.41 1.47-.49 1.63-1.06 3.47-.35 5.41.72 1.94 1.86 2.92 3.39 2.92M67.5 4.15c-.35 0-.72.04-1.11.13-1 .23-1.96.82-2.6 1.48-.85.85-1.05 1.98-.48 2.99 0 .01.01.02.01.02-.18.72-.04 1.69-.12 2.17-.21 1.45-.66 2.9-1.01 4.35-.36 1.5-.62 3-.4 4.55.14.98.71 1.9 1.43 2.69 1.04 1.16 3.05 2.21 4.86 2.21h.11c.12-.01.24-.01.35-.03.85-.11 1.65-.52 2.22-1.07.52.2 1.05.29 1.55.29 1.74 0 3.31-1.06 4.29-2.53.86-1.29-.18-2.31-.99-3.4-.95-1.26-1.39-2.64-1.97-4.02-.76-1.81-1.71-3.57-2.32-5.42-.18-.56-.43-1.12-.5-1.69-.18-1.57-1.5-2.72-3.32-2.72zm.15 17.47c-1.44 0-2.1-1.33-2.45-2.27-.79-2.15.31-4.21.79-6.3 1.02 2.29 2.24 4.99 2.39 7.43.02.36.04.68.09.97-.17.08-.36.14-.6.16-.07.01-.15.01-.22.01z" fill="#eee" opacity=".2"/><linearGradient id="c" x1="3.994" x2="92.686" y1="78.509" y2="78.509" gradientUnits="userSpaceOnUse"><stop stop-color="#4FC3F7" offset=".272"/><stop stop-color="#039BE5" offset=".808"/></linearGradient><path d="M5.11 40.94l50.14 65.36c1.45 1.94 2.48 3.29 2.6 3.44 2.7 3.3 5.68 6.43 9.04 9.04 4.58 3.57 10.68 5.96 16.1 5.13 3.31-.51 6.66-2.45 8.55-5.39.21-.32.4-.68.59-1.06.4-1.24.71-5.22.5-6.41-.23-1.29-7.45-.54-9.65-1.11-3.43-.89-6.54-2.4-9.19-4.54l-54.8-58.98c-1.69-2.15-3.5-4.28-4.93-6.64-1.65-2.73-10.05-6.85-10.05-6.85s-.22 6.03 1.1 8.01z" fill="url(#c)"/><linearGradient id="d" x1="4.038" x2="92.581" y1="75.045" y2="75.045" gradientUnits="userSpaceOnUse"><stop stop-color="#4FC3F7" offset=".272"/><stop stop-color="#039BE5" offset=".808"/></linearGradient><path d="M7 39.93l.07.04 48.18 62.9c1.45 1.94 2.48 3.29 2.6 3.44 2.7 3.3 5.68 6.43 9.04 9.04 4.58 3.57 10.68 5.96 16.1 5.13 3.31-.51 6.66-2.45 8.55-5.39.21-.32.4-.68.59-1.06.83-2.58.74-5.62-1.99-6.79-2.01-.86-4.97-.16-7.17-.73-3.43-.89-6.54-2.4-9.19-4.54l-54.8-58.98c-1.69-2.15-3.5-4.28-4.93-6.64-1.65-2.73-3.45-7.89-7.6-6.73-1 .28-1.76.9-2.27 1.74-.52 2.28.28 5.46 2.82 8.57z" fill="url(#d)"/><linearGradient id="e" x1="21.183" x2="123.89" y1="60.286" y2="60.286" gradientUnits="userSpaceOnUse"><stop stop-color="#4FC3F7" offset=".272"/><stop stop-color="#039BE5" offset=".808"/></linearGradient><path d="M25.66 36.66c1.1 1.04 51.7 40.82 51.7 40.82 4.1 3.46 8.75 7.28 13.09 10.47 8.85 6.49 22.42 10.56 31.34 2.15.7-.66 1.38-1.54 1.87-2.51.3-1.02.22-4.5.22-4.5s-4.85-.93-7.6-.62c-6.7.76-13.44-2.61-19.43-6.33L33.02 33.97c-2.76-2.33-4.89-4.85-5.65-6.08-1.5-2.42-6.12-2.15-6.12-2.15s.02 3.5-.06 3.65c.06 1.67.77 3.78 4.47 7.27z" fill="url(#e)"/><linearGradient id="f" x1="21.25" x2="123.9" y1="57.293" y2="57.293" gradientUnits="userSpaceOnUse"><stop stop-color="#4FC3F7" offset=".272"/><stop stop-color="#039BE5" offset=".808"/></linearGradient><path d="M25.66 33.55c1.1 1.04 2.02 1.84 2.96 2.39l48.74 38.43c4.1 3.46 8.75 7.28 13.09 10.47 8.85 6.49 22.42 10.56 31.34 2.15.7-.66 1.36-1.53 1.85-2.5.37-1.25.4-2.56-.16-3.72-1.63-3.38-4.44-1.72-7.19-1.4-6.7.76-13.44-2.61-19.43-6.33L33.02 30.85c-2.76-2.33-4.89-4.85-5.65-6.08-1.5-2.42-4.44-2.48-5.69-.61-.1.15-.18.3-.27.45-.62 2.47.55 5.45 4.25 8.94z" fill="url(#f)"/><g fill="#444" opacity=".2"><path d="M7.62 31.45c1.52 0 2.8 2.39 3.82 4.31.31.58.6 1.12.9 1.62 1.23 2.03 2.7 3.87 4.12 5.65.32.4.64.8.95 1.19.03.04.07.08.11.12l54.8 58.98c.07.07.14.14.21.2 2.83 2.28 6.18 3.94 9.94 4.92 1.14.29 2.29.32 3.58.32h.37c.98 0 2.2 0 2.93.31.53.23 1.16.66 1.23 2 .01.18.04.35.1.52.06.72-.02 2.63-.26 4.28-.09.6-.28 1.13-.56 1.58-1.49 2.32-4.23 4.04-7.17 4.49-.62.1-1.27.14-1.92.14-4 0-8.73-1.82-12.65-4.87-2.94-2.29-5.79-5.15-8.72-8.73-.12-.15-1.07-1.4-2.56-3.4L6.75 39.79c-.52-.87-.8-3.86-.75-6.35.04-.17.06-.35.06-.53-.01-.29 0-.55.03-.78.24-.29.54-.49.92-.59.21-.06.42-.09.61-.09m0-2c-.36 0-.75.05-1.16.17-1 .28-1.76.9-2.27 1.74-.12.49-.16 1.03-.14 1.6-.01-.01-.05-.02-.05-.02s-.22 6.03 1.1 8.01l50.14 65.36c1.45 1.94 2.48 3.29 2.6 3.44 2.7 3.3 5.68 6.43 9.04 9.04 3.96 3.09 9.06 5.3 13.87 5.3.75 0 1.5-.05 2.23-.17 3.31-.51 6.66-2.45 8.55-5.39 0 0 0-.01.01-.01.45-.71.72-1.52.85-2.35.25-1.7.39-4.2.23-5.11-.01-.03-.03-.05-.05-.08-.08-1.59-.76-3.02-2.44-3.74-1.06-.45-2.38-.47-3.72-.47h-.37c-1.08 0-2.15-.01-3.08-.25-3.43-.89-6.54-2.4-9.19-4.54L18.97 43c-1.69-2.15-3.5-4.28-4.93-6.64-1.47-2.48-3.08-6.91-6.42-6.91zM24.18 24.85c.56 0 1.1.36 1.49.97.9 1.45 3.18 4.12 6.06 6.56.06.05.12.1.19.14l63.83 42.19c.02.01.03.02.05.03 5.05 3.14 11.73 6.73 18.55 6.73.73 0 1.46-.04 2.17-.12.7-.08 1.36-.23 2-.37.72-.16 1.39-.31 1.91-.31.4 0 .78 0 1.24.96.17.36.24.79.21 1.33-.01.11-.01.22.01.33.03 1.47-.02 3.03-.11 3.6-.35.63-.83 1.26-1.35 1.75-2.96 2.79-6.67 4.2-11.04 4.2-5.64 0-12.11-2.37-17.75-6.51-4.54-3.34-9.33-7.3-12.99-10.39-.02-.01-.03-.03-.05-.04-13.9-10.91-50.25-39.52-51.57-40.69-3.16-2.99-3.75-4.64-3.84-5.74.05-.55.07-1.53.06-3.54 0-.05.01-.1.01-.15 0-.16.02-.31.04-.45a.21.21 0 0 1 .04-.06c.25-.37.63-.42.84-.42m0-2c-.99 0-1.93.45-2.51 1.32-.1.15-.18.3-.27.45-.09.36-.14.74-.15 1.12h-.01s.02 3.5-.06 3.65c.06 1.69.78 3.8 4.47 7.29 1.1 1.04 51.7 40.82 51.7 40.82 4.1 3.46 8.75 7.28 13.09 10.47 5.29 3.88 12.27 6.9 18.93 6.9 4.48 0 8.82-1.36 12.41-4.75.7-.66 1.38-1.54 1.87-2.51.3-1.02.22-4.5.22-4.5h-.01c.05-.8-.05-1.59-.4-2.33-.79-1.63-1.85-2.09-3.05-2.09-1.28 0-2.72.52-4.14.69-.65.07-1.29.11-1.94.11-6.05 0-12.08-3.08-17.49-6.43L33.02 30.85c-2.76-2.33-4.89-4.85-5.65-6.08-.81-1.3-2.04-1.92-3.19-1.92z"/></g><defs><path id="g" d="M32.98 123.49c-.39.37-.93.57-1.5.49-1-.13-1.7-1.07-1.57-2.08L44.77 11.51c.14-1.01 1.06-1.72 2.06-1.58s1.71 1.06 1.57 2.08L33.53 122.4c-.06.44-.26.81-.55 1.09z"/></defs><use fill="#EF6C00" xlink:href="#g"/><clipPath id="h"><use xlink:href="#g"/></clipPath><g clip-path="url(#h)"><path d="M36.31 99.82c-.42.4-1 .6-1.61.52a1.965 1.965 0 0 1-1.67-2.22L45.57 5.69a1.949 1.949 0 0 1 2.19-1.68c1.07.15 1.81 1.14 1.67 2.22L36.9 98.65c-.07.47-.28.87-.59 1.17z" fill="#EF6C00"/></g><path d="M30.41 112.33s.89 5.24 3.76 6.14l.72-7.22-4.48 1.08z" fill="#E65100"/><path d="M33.83 106.43c-3.46-.47-6.49.81-6.77 2.86-.28 2.06 2.31 4.11 5.76 4.58 3.46.47 6.49-.81 6.77-2.86.29-2.06-2.29-4.11-5.76-4.58z" fill="#90CAF9"/><path d="M33.32 110.57c2.01-.14 1.88-1.35 1.88-1.35l.1.06 1.33-9.88c-.09.16-.19.31-.32.43a1.942 1.942 0 0 1-3.27-1.17l-1.45 10.77c.07.5.41 1.23 1.73 1.14z" fill="#EF6C00"/><path d="M46.28 13.93c.04 0 .08 0 .13.01.65.09.57.93.54 1.1L35.91 98.52c-.02.11-.06.23-.14.37-.07.12-.11.24-.13.38l-1 7.44c-.06.48.22.94.68 1.08 2.06.67 3.44 1.97 3.29 3.09s-1.83 2-3.99 2.09c-.48.02-.88.39-.95.87l-.2 1.48-.26 2.58c-.08.12-.13.26-.15.4l-.54 3.98c-.03.19-.11.37-.25.5-.16.15-.36.23-.56.23-.04 0-.08 0-.12-.01a.784.784 0 0 1-.54-.32.858.858 0 0 1-.17-.64l1.03-7.62c.02-.15.01-.31-.04-.45-.1-.31-.2-.61-.27-.9a.983.983 0 0 0-.62-.68c-1.87-.7-3.07-1.92-2.93-2.96.15-1.12 1.83-2 3.98-2.08.48-.02.89-.38.95-.87l1.03-7.68c.01-.09.01-.18 0-.27a.788.788 0 0 1-.01-.26l11.32-83.49c.09-.49.49-.85.96-.85m0-1c-.96 0-1.8.72-1.93 1.7L33.03 98.12c-.02.18-.01.36.01.53L32 106.34c-2.64.11-4.71 1.27-4.94 2.95-.21 1.59 1.29 3.17 3.57 4.03.08.29.17.61.29.97l-1.03 7.62a1.84 1.84 0 0 0 1.57 2.08c.08.01.17.02.25.02.47 0 .92-.19 1.25-.51.29-.28.49-.65.55-1.09l.54-3.98c.04.01.07.03.1.04l.3-3.06.2-1.45c2.64-.11 4.71-1.27 4.93-2.95s-1.46-3.36-3.98-4.17l1-7.44c.13-.22.23-.46.27-.74l11.05-83.48c.14-1.08-.33-2.07-1.4-2.22a.826.826 0 0 0-.24-.03z" fill="#444" opacity=".2"/><path d="M37.75 19.1c-1.19 1.48-2.29 3.02-2.99 4.82-.45 1.14-.47 2.42-.3 3.63.25 1.79 1.46 3.93 3.12 4.74.11.05.22.1.33.13 1.16.39 2.58.08 3.52-.71 1.01-.85 2.07-3.73.72-4.73-.93.74-1.61 2.27-3.04 1.72-1.5-.58-1.31-2.47-1.05-3.74.68-3.36 3.8-5.25 5.39-8.07.51-.91 2.21-5.08.02-5.05-1.06.02-1.79 2.2-2.3 2.94-1.04 1.51-2.27 2.89-3.42 4.32z" fill="#2F2F2F"/><path d="M39.7 30.74l.03.09c1.24 3.56 4.57 3.5 7.24 1.7 1.51-1.02 1.19-2.63 1.09-4.2-.11-1.83.3-3.55.59-5.34.37-2.34.56-4.73 1.09-7.04.16-.7.28-1.43.54-2.1.87-2.15.01-4.42-2.43-4.91-1.02-.21-2.21-.01-3.16.41-1.24.54-2.08 1.7-2.16 3.07-.13 1.98.19 3.88-.1 5.88-.43 3.02-.91 6.61-2.21 9.4-.52 1.11-.91 1.82-.52 3.04z" fill="#2F2F2F"/><path d="M46.98 9.86c.24 0 .46.02.67.07.78.16 1.36.55 1.68 1.15.36.67.37 1.55.01 2.41-.23.57-.35 1.16-.47 1.72-.04.17-.07.35-.11.52-.36 1.54-.56 3.11-.76 4.63-.11.82-.22 1.66-.35 2.48-.06.36-.12.72-.18 1.07-.25 1.43-.51 2.92-.42 4.49.01.19.02.37.04.56.11 1.43.13 2.21-.69 2.76-.99.66-2.03 1.03-2.95 1.03-.91 0-1.64-.36-2.17-1.06a.985.985 0 0 0-.8-.4c-.13 0-.26.03-.39.08-.37.15-.76.24-1.14.24-.26 0-.51-.04-.73-.11-.08-.03-.16-.06-.21-.09-1.35-.66-2.36-2.55-2.57-3.99-.17-1.22-.09-2.27.24-3.13.68-1.75 1.77-3.22 2.84-4.56.35-.44.71-.87 1.06-1.3.81-.98 1.65-1.99 2.39-3.07.17-.25.33-.56.52-.93.24-.47.51-1 .79-1.34.13-.16.21-.39.22-.6.06-.98.65-1.81 1.57-2.21a4.71 4.71 0 0 1 1.91-.42m-7.3 19.95h.08c.41-.01.77-.27.91-.66.09-.25.21-.51.36-.83l.09-.2c1.32-2.84 1.82-6.32 2.25-9.4l.03-.18a1.001 1.001 0 0 0-.99-1.14c-.3 0-.59.13-.78.38-.38.49-.8.95-1.23 1.44-1.4 1.58-2.85 3.22-3.32 5.55-.52 2.59.04 4.23 1.68 4.87.29.11.59.17.92.17m7.3-20.95c-.79 0-1.6.19-2.29.49-1.24.54-2.08 1.7-2.16 3.07v.03c-.57.7-1.02 1.84-1.36 2.34-1.03 1.5-2.27 2.88-3.41 4.31-1.19 1.48-2.29 3.02-2.99 4.82-.45 1.15-.47 2.42-.3 3.63.25 1.79 1.46 3.93 3.12 4.74.11.05.22.1.33.13.34.11.69.17 1.05.17.52 0 1.05-.11 1.53-.31.77 1.02 1.83 1.46 2.97 1.46 1.15 0 2.38-.45 3.51-1.2 1.51-1.02 1.19-2.63 1.09-4.2-.11-1.83.3-3.55.59-5.34.37-2.34.56-4.73 1.09-7.04.16-.7.28-1.43.54-2.1.87-2.15.01-4.42-2.43-4.91-.29-.07-.58-.09-.88-.09zm-7.3 19.95c-.18 0-.36-.02-.57-.1-1.5-.58-1.31-2.47-1.05-3.74.55-2.73 2.71-4.49 4.36-6.57-.43 3-.91 6.54-2.2 9.29-.19.41-.36.76-.49 1.11-.01.01-.03.01-.05.01z" fill="#eee" opacity=".2"/></svg>