<svg viewBox="0 0 128 128" xmlns="http://www.w3.org/2000/svg" xmlns:xlink="http://www.w3.org/1999/xlink"><linearGradient id="a" x1="52.587" x2="49.837" y1="23.74" y2="93.24" gradientUnits="userSpaceOnUse"><stop stop-color="#5E6BB2" offset=".004"/><stop stop-color="#3F4DA1" offset="1"/></linearGradient><path d="M38.56 56.29l-1.72 11.54c-.88 5.94-2.37 12.36-5.82 17.26l-2.43 3.45L39 98.95l2.81-2.06c5.28-3.87 12.25-5.56 18.75-6.37l10.89-1.36s-10.32-3.14-20.07-12.89-12.82-19.98-12.82-19.98zm2.57 30.3c-4.09-4.09 1.67-17.93 1.67-17.93l16.05 16.05c0 .01-13.63 5.98-17.72 1.88z" fill="url(#a)"/><g fill="#A0A8D5"><path d="M86.238 9.398l1.556-1.556 32.689 32.69-1.556 1.555zM70.76 11.64l1.556-1.555 45.926 45.926-1.555 1.556zM60.749 19.348l1.556-1.556 48.23 48.231-1.555 1.556zM51.89 28.208l1.556-1.555 48.231 48.231-1.556 1.556zM45.172 39.197l1.555-1.555 43.416 43.416-1.556 1.555zM42.344 54.093l1.555-1.555 31.219 31.218-1.556 1.556z"/><path d="M66.369 85.348l51.95-51.95 1.556 1.555-51.95 51.95zM47.951 78.941l63.957-63.957 1.556 1.556-63.957 63.957zM56.488 82.823l59.304-59.305 1.556 1.556-59.305 59.304zM40.213 61.85L95.529 6.533l1.556 1.556-55.317 55.316zM43.984 70.483l60.18-60.181 1.557 1.556-60.182 60.18zM41.388 48.253L82.117 7.524l1.556 1.556-40.73 40.729zM80.384 83.757l37.229-37.23 1.555 1.557L81.94 85.312z"/></g><linearGradient id="b" x1="34.496" x2="73.205" y1="6.256" y2="62.534" gradientTransform="rotate(45.001 64.001 70.847)" gradientUnits="userSpaceOnUse"><stop stop-color="#5E6BB2" offset=".004"/><stop stop-color="#3F4DA1" offset="1"/></linearGradient><path d="M109.17 18.55c5.19 5.19 7.41 12.9 6.26 21.73-1.25 9.57-6.23 19.14-14.02 26.93S84.05 79.99 74.47 81.24c-8.82 1.15-16.54-1.07-21.73-6.26s-7.41-12.9-6.26-21.73c1.25-9.57 6.23-19.14 14.02-26.93S77.86 13.54 87.43 12.3c8.84-1.16 16.55 1.06 21.74 6.25m5.44-5.43c-14.3-14.3-40.95-10.82-59.53 7.76s-22.06 45.24-7.76 59.53 40.95 10.82 59.53-7.76 22.05-45.24 7.76-59.53z" fill="url(#b)"/><path d="M91.88 6.31c8.57 0 15.94 2.84 21.31 8.22 13.49 13.49 10.01 38.93-7.76 56.7-9.8 9.8-22.29 15.62-34.28 15.96-.06 0-.13.01-.19.01L60.3 88.54c-8.51 1.06-14.94 3.26-19.68 6.74l-1.42 1.04-8.01-8.01 1.46-2.07c3.9-5.53 5.35-12.59 6.17-18.12l1.69-11.35c.01-.08.02-.16.02-.23.36-11.97 6.18-24.45 15.96-34.24C66.65 12.14 79.55 6.31 91.88 6.31M70.02 83.53c1.53 0 3.12-.11 4.72-.31 10.01-1.31 19.98-6.49 28.09-14.59 8.11-8.11 13.29-18.08 14.59-28.09 1.23-9.45-1.19-17.76-6.83-23.4C105.91 12.47 99.45 10 91.9 10c-1.54 0-3.12.11-4.72.31-10 1.3-19.98 6.49-28.08 14.59-8.11 8.11-13.29 18.08-14.59 28.09-1.23 9.45 1.19 17.76 6.83 23.4 4.66 4.67 11.13 7.14 18.68 7.14m-24.28 6.5c3.43 0 7.46-1.13 10.25-2.08.77-.26 1.3-.97 1.35-1.78s-.4-1.57-1.14-1.92A26.772 26.772 0 0 1 48.73 79c-2.2-2.2-4.01-4.8-5.36-7.72a2.001 2.001 0 0 0-1.81-1.16h-.12a2 2 0 0 0-1.78 1.38c-2.68 8.23-2.65 13.78.07 16.5 1.33 1.35 3.35 2.03 6.01 2.03M91.88 4.31c-12.3 0-25.93 5.7-36.8 16.57-10.52 10.52-16.19 23.61-16.55 35.6l-1.69 11.35c-.88 5.94-2.37 12.36-5.82 17.26l-2.43 3.45L39 98.95l2.81-2.06c5.28-3.87 12.25-5.56 18.75-6.37l10.66-1.33c11.99-.35 25.11-6.02 35.63-16.55 18.58-18.58 22.06-45.24 7.76-59.53-5.94-5.93-14-8.8-22.73-8.8zM70.02 81.53c-6.95 0-12.98-2.26-17.27-6.56-5.19-5.19-7.41-12.9-6.26-21.73 1.25-9.57 6.23-19.14 14.02-26.93s17.36-12.78 26.93-14.02c1.52-.2 3.01-.3 4.46-.3 6.95 0 12.98 2.26 17.27 6.56 5.19 5.19 7.41 12.9 6.26 21.73-1.25 9.57-6.23 19.14-14.02 26.93S84.05 79.99 74.47 81.24c-1.52.19-3.01.29-4.45.29zm-24.28 6.5c-1.9 0-3.57-.39-4.61-1.43-2.79-2.79-1-10.1.42-14.47 1.42 3.05 3.32 5.85 5.76 8.29 2.37 2.37 5.08 4.24 8.03 5.64-2.69.91-6.47 1.97-9.6 1.97z" fill="#434343" opacity=".2"/><path fill="#616262" d="M29.913 86.16L41.56 97.806l-23.878 23.88-11.646-11.647z"/><path d="M38.13 100.48L26.98 89.33c-.78-.78-.78-2.05 0-2.83l.28-.28c.78-.78 2.05-.78 2.83 0l11.15 11.15c.78.78.78 2.05 0 2.83l-.28.28c-.78.78-2.05.78-2.83 0zM16.24 122.37L5.09 111.23c-.78-.78-.78-2.05 0-2.83l.28-.28c.78-.78 2.05-.78 2.83 0l11.15 11.15c.78.78.78 2.05 0 2.83l-.28.28c-.78.78-2.05.78-2.83-.01z" fill="#616262"/><path d="M28.68 87.72c.05 0 .1.02.14.06l10.86 10.86c.01.02.03.04.04.06 0 0 0 .01.01.01.01.01.06.13-.03.22-.01.01-.05.05-.13.05-.03 0-.06-.01-.09-.02-.27-.13-.57-.19-.86-.19-.52 0-1.03.2-1.41.59l-18.98 18.98c-.6.6-.76 1.51-.39 2.27.01.01.06.13-.03.22-.04.04-.08.06-.14.06-.05 0-.1-.02-.14-.06L6.64 109.95a.193.193 0 0 1 0-.28c.01-.01.05-.05.13-.05.03 0 .07.01.12.04.35.25.76.37 1.16.37.52 0 1.03-.2 1.41-.59L28.3 90.6c.69-.69.78-1.78.22-2.57a.187.187 0 0 1 .02-.25c.04-.04.08-.06.14-.06m0-2c-.56 0-1.12.21-1.55.64-.77.77-.84 1.96-.23 2.82L8.05 108.03c-.38-.27-.83-.41-1.28-.41-.56 0-1.12.21-1.54.64-.86.86-.86 2.25 0 3.11l10.87 10.87c.43.43.99.64 1.55.64a2.18 2.18 0 0 0 1.97-3.13l18.98-18.98c.3.14.63.21.95.21.56 0 1.11-.21 1.54-.64.68-.68.81-1.68.42-2.49l.04-.04-.13-.13c-.09-.16-.2-.31-.34-.45L30.23 86.36c-.43-.42-.99-.64-1.55-.64z" fill="#eee" opacity=".2"/><path fill="#C6E0A6" d="M30.75 108.62l-9.32-13.97 3.75-3.76 9.32 13.98zM22.72 116.65l-9.32-13.98 3.76-3.75 9.32 13.97z"/><radialGradient id="c" cx="34.589" cy="25.472" r="24.345" gradientUnits="userSpaceOnUse"><stop stop-color="#CEE18B" offset="0"/><stop stop-color="#8EC73F" offset=".695"/></radialGradient><circle cx="35" cy="35.17" r="23" fill="url(#c)"/><defs><circle id="d" cx="35" cy="35.17" r="23"/></defs><defs><circle id="e" cx="35" cy="35.17" r="23"/></defs><clipPath id="f"><use xlink:href="#e"/></clipPath><path d="M13.64 10.52s14.38 8.21 14.38 24.9-14.38 24.39-14.38 24.39M56.4 10.52s-14.38 8.21-14.38 24.9S56.4 59.81 56.4 59.81" clip-path="url(#f)" fill="none" stroke="#F5F5F5" stroke-miterlimit="10" stroke-width="3"/><path d="M35 15.17c11.03 0 20 8.97 20 20s-8.97 20-20 20-20-8.97-20-20 8.97-20 20-20m0-3c-12.7 0-23 10.3-23 23s10.3 23 23 23 23-10.3 23-23-10.3-23-23-23z" fill="#434343" opacity=".2"/></svg>