<svg viewBox="0 0 128 128" xmlns="http://www.w3.org/2000/svg" xmlns:xlink="http://www.w3.org/1999/xlink"><path d="M79.32 52.12c.96-1.83.26-4.09-1.57-5.04-2.81-1.47-4.25.05-5.04 1.57a3.724 3.724 0 0 0 1.57 5.04c1.82.96 4.08.26 5.04-1.57z" fill="#FBC11B"/><linearGradient id="a" x1="71.691" x2="96.122" y1="38.194" y2="38.194" gradientUnits="userSpaceOnUse"><stop stop-color="#5C4037" offset="0"/><stop stop-color="#70534A" offset="1"/></linearGradient><path d="M75.85 54.07c-.64 0-1.33-.29-2.17-.91-1.88-1.38-2.5-3.51-1.55-5.31 1.19-2.25 2.25-3.7 3.72-5.69.31-.42.64-.87.99-1.35.02-.03.05-.05.07-.08 1.9-3.04 4.23-5.11 7.58-6.7.13-.06.22-.17.26-.3 1.56-5.1 3.74-7.99 7.19-11.4l4.19 2.03c-1.03 4.94-3.16 9.2-6.16 12.34-.05.06-.09.13-.12.2-1.08 3.56-2.76 6.73-5.13 9.68-.05.07-.09.14-.1.22-1.78 2.27-4.47 5.21-6.39 6.31-1.05.68-1.73.96-2.38.96z" fill="url(#a)"/><path d="M92.03 22.92l3.52 1.7c-1.04 4.69-3.09 8.72-5.95 11.71-.11.11-.19.25-.23.4-1.06 3.5-2.71 6.61-5.04 9.51-.07.09-.13.2-.17.31-1.76 2.22-4.35 5.06-6.18 6.1-.02.01-.04.03-.06.04-.92.62-1.52.88-2.06.88-.53 0-1.12-.26-1.88-.81-1.69-1.24-2.24-3.08-1.4-4.68 1.17-2.22 2.22-3.65 3.68-5.63.3-.41.63-.85.97-1.32.04-.04.08-.09.11-.14 1.84-2.96 4.12-4.97 7.37-6.52.25-.12.44-.34.53-.61 1.47-4.87 3.55-7.69 6.79-10.94m-.2-1.21c-3.63 3.56-5.94 6.54-7.57 11.86-3.43 1.63-5.86 3.8-7.79 6.89-2.04 2.81-3.32 4.37-4.79 7.16-1.11 2.12-.31 4.48 1.7 5.95.95.7 1.72 1 2.47 1 .84 0 1.64-.39 2.62-1.05 2.07-1.18 4.88-4.3 6.68-6.62l-.05-.03c2.29-2.85 4.07-6.05 5.22-9.85 3.22-3.36 5.37-7.9 6.36-12.96l-4.85-2.35z" fill="#4A2F27"/><path d="M48.74 52.12a3.724 3.724 0 0 1 1.57-5.04c2.81-1.47 4.25.05 5.04 1.57.96 1.83.26 4.09-1.57 5.04-1.82.96-4.08.26-5.04-1.57z" fill="#FBC11B"/><linearGradient id="b" x1="32.274" x2="56.373" y1="37.754" y2="37.754" gradientUnits="userSpaceOnUse"><stop stop-color="#70534A" offset="0"/><stop stop-color="#5C4037" offset="1"/></linearGradient><path d="M52.21 54.07c-.65 0-1.33-.28-2.34-.96-1.96-1.12-4.66-4.08-6.44-6.35a.496.496 0 0 0-.08-.2c-2.45-3.04-4.62-7.07-5.66-10.5a.466.466 0 0 0-.12-.2c-3.39-3.55-5.22-7.84-5.3-12.43l3.93-1.99c3.32 3.32 5 6.25 6.59 11.46.04.13.14.24.26.3 3.08 1.47 6.04 4.21 8.1 7.52.02.03.04.06.07.09.35.48.67.92.98 1.34 1.47 2 2.54 3.44 3.73 5.7.95 1.8.33 3.94-1.55 5.31-.84.62-1.53.91-2.17.91z" fill="url(#b)"/><path d="M36.11 22.05c3.08 3.15 4.69 6.02 6.21 10.99.08.27.27.49.53.61 3 1.43 5.88 4.1 7.89 7.34.03.05.07.1.11.14.34.47.67.91.97 1.33 1.46 1.98 2.51 3.41 3.68 5.63.84 1.6.29 3.44-1.4 4.68-.75.55-1.35.81-1.88.81-.54 0-1.14-.25-2.06-.88-.02-.01-.04-.03-.06-.04-1.84-1.05-4.43-3.88-6.18-6.1-.04-.11-.09-.21-.17-.31-2.41-2.99-4.54-6.95-5.57-10.33-.05-.15-.13-.29-.23-.4-3.23-3.37-5-7.44-5.15-11.78l3.31-1.69m.19-1.22l-4.53 2.3c0 5.31 2.22 9.71 5.44 13.08 1.15 3.79 3.45 7.82 5.75 10.67l-.05.03c1.8 2.32 4.61 5.44 6.68 6.62.98.66 1.78 1.05 2.62 1.05.75 0 1.52-.31 2.47-1 2.01-1.47 2.81-3.84 1.7-5.95-1.47-2.79-2.75-4.35-4.79-7.16-1.92-3.09-4.88-6.08-8.31-7.71-1.63-5.33-3.35-8.37-6.98-11.93z" fill="#4A2F27"/><linearGradient id="c" x1="64.032" x2="64.032" y1="48.559" y2="75.018" gradientUnits="userSpaceOnUse"><stop stop-color="#00BFA5" offset="0"/><stop stop-color="#00B29A" offset=".705"/><stop stop-color="#00AB94" offset="1"/></linearGradient><path d="M54.58 73.22c-.71-2.4-4.74-16.14-5.49-19.8a.464.464 0 0 0-.12-.23c-.04-.04-3.47-3.85-5.34-6.19l7.86-5.84c.25.35.49.67.72.99 1.23 1.68 2.21 3 3.2 4.74.09.16.26.25.43.25.04 0 .08 0 .13-.02 1.21-.32 2.53-.48 3.94-.48h8.16c1.43 0 2.79.16 4.03.48.04.01.08.02.12.02.18 0 .34-.09.43-.25.99-1.74 1.96-3.06 3.19-4.73.23-.32.48-.65.73-1L84.44 47c-1.82 2.29-5.14 6.07-5.17 6.11a.53.53 0 0 0-.11.21l-5.08 19.9h-19.5z" fill="url(#c)"/><path d="M76.69 41.86l7.03 5.23c-1.86 2.29-4.8 5.65-4.83 5.69-.1.12-.18.26-.22.41l-4.98 19.53H54.95c-.93-3.17-4.66-15.91-5.38-19.4-.04-.18-.12-.34-.24-.47-.03-.04-3.08-3.42-5-5.76l7.03-5.23c.15.2.29.4.43.59 1.22 1.66 2.19 2.97 3.16 4.68.18.32.52.5.87.5.08 0 .17-.01.25-.03 1.17-.31 2.45-.46 3.81-.46h8.16c1.39 0 2.71.16 3.91.47a1.016 1.016 0 0 0 1.12-.47c.98-1.71 1.94-3.02 3.16-4.69.17-.19.31-.39.46-.59m-.21-1.4c-1.79 2.46-2.99 3.97-4.25 6.18-1.23-.32-2.62-.5-4.16-.5H59.9c-1.51 0-2.86.18-4.06.49-1.26-2.21-2.46-3.72-4.25-6.18l-8.67 6.45c1.8 2.32 5.68 6.62 5.68 6.62.83 4.06 5.61 20.2 5.61 20.2h20.27l5.17-20.28s3.75-4.28 5.51-6.53l-8.68-6.45z" fill="#009984"/><path d="M63.68 49.35c-1.46 0-2.65-1.12-2.65-2.51v-3.17h5.93v3.17c0 1.38-1.19 2.51-2.65 2.51h-.63z" fill="#3C2B24"/><path d="M66.47 44.17v2.67c0 1.11-.97 2.01-2.15 2.01h-.63c-1.19 0-2.15-.9-2.15-2.01v-2.67h4.93m1-1h-6.94v3.67c0 1.66 1.41 3.01 3.15 3.01h.63c1.74 0 3.15-1.35 3.15-3.01v-3.67h.01z" fill="#291B16"/><defs><path id="d" d="M50.13 17.48h27.73v27.73H50.13z"/></defs><clipPath id="e"><use xlink:href="#d"/></clipPath><g clip-path="url(#e)"><path d="M55.7 38.02c-1.52 0-2.75-1.33-2.75-2.97s1.24-2.97 2.75-2.97h16.6c1.52 0 2.75 1.33 2.75 2.97s-1.24 2.97-2.75 2.97H55.7z" fill="#3C2B24"/><path d="M72.3 32.59c1.24 0 2.25 1.11 2.25 2.47s-1.01 2.47-2.25 2.47H55.7c-1.24 0-2.25-1.11-2.25-2.47s1.01-2.47 2.25-2.47h16.6m0-1H55.7c-1.79 0-3.25 1.56-3.25 3.47s1.46 3.47 3.25 3.47h16.61c1.79 0 3.25-1.56 3.25-3.47s-1.47-3.47-3.26-3.47z" fill="#291B16"/><linearGradient id="f" x1="63.966" x2="63.966" y1="19.231" y2="45.228" gradientUnits="userSpaceOnUse"><stop stop-color="#70534A" offset=".55"/><stop stop-color="#5C4037" offset=".83"/><stop stop-color="#3C2B24" offset="1"/></linearGradient><path d="M63.97 19.33c-5.29 0-10.18 5.65-10.18 13.79 0 8.09 5.04 12.09 10.18 12.09s10.18-4 10.18-12.09c0-8.14-4.9-13.79-10.18-13.79z" fill="url(#f)"/><linearGradient id="g" x1="53.783" x2="74.149" y1="32.27" y2="32.27" gradientUnits="userSpaceOnUse"><stop stop-color="#4A2F27" offset="0"/><stop stop-color="#291B16" offset="1"/></linearGradient><path d="M63.97 20.33c5.67 0 9.18 6.64 9.18 12.79 0 3.49-1 6.4-2.89 8.39-1.65 1.74-3.88 2.7-6.29 2.7s-4.65-.96-6.29-2.7c-1.89-2-2.89-4.9-2.89-8.39-.01-6.15 3.5-12.79 9.18-12.79m0-1c-5.29 0-10.18 5.65-10.18 13.79 0 8.09 5.04 12.09 10.18 12.09s10.18-4 10.18-12.09c0-8.14-4.9-13.79-10.18-13.79z" fill="url(#g)"/><g fill="#1A1717"><path d="M56.71 31.68s.04-.06.12-.15c.02-.02.04-.05.07-.08s.07-.07.11-.1c.04-.04.08-.07.13-.11l.14-.11c.05-.03.1-.07.16-.11.06-.03.12-.06.18-.1s.13-.06.2-.09.14-.06.22-.08c.15-.04.3-.09.47-.11.16-.03.33-.03.49-.04.17.01.33.01.49.04.16.02.32.07.47.11.07.03.15.05.22.08s.14.06.2.09.12.07.18.1.11.07.16.11.1.07.14.1c.04.04.08.07.12.11.04.03.07.06.1.09s.06.06.08.09l.14.17a.475.475 0 1 1-.54.73l-.09-.03s-.06-.02-.15-.06c-.02-.01-.05-.02-.07-.03l-.09-.03c-.06-.03-.13-.05-.21-.07-.04-.01-.08-.03-.12-.04l-.13-.03c-.02-.01-.04-.01-.07-.02-.02 0-.05-.01-.07-.01l-.14-.03c-.1-.01-.2-.03-.3-.04s-.21-.01-.31-.02c-.11.01-.21 0-.31.02-.1 0-.2.03-.3.04-.05.01-.1.02-.14.03-.02 0-.05.01-.07.01-.02.01-.04.01-.07.02l-.13.03c-.04.01-.08.03-.12.04s-.08.02-.11.03l-.09.03c-.03.01-.06.02-.08.03-.03.01-.06.03-.09.04-.11.05-.17.08-.17.08-.25.1-.54-.01-.64-.27-.1-.15-.07-.33.02-.46zM70.7 32.41s-.07-.03-.17-.08c-.03-.01-.06-.03-.09-.04s-.05-.02-.08-.03l-.09-.03-.11-.03c-.04-.01-.08-.03-.12-.04l-.13-.03c-.02-.01-.04-.01-.07-.02-.02 0-.05-.01-.07-.01l-.14-.03c-.1-.01-.2-.03-.3-.04s-.21-.01-.31-.02c-.11.01-.21 0-.31.02-.1 0-.2.03-.3.04-.05.01-.1.02-.14.03-.02 0-.05.01-.07.01-.02.01-.04.01-.07.02l-.13.03c-.04.01-.08.03-.12.04-.08.02-.15.05-.21.07l-.09.03c-.03.01-.05.02-.07.03-.09.04-.15.06-.15.06l-.09.03a.475.475 0 0 1-.61-.29.524.524 0 0 1 .06-.44s.05-.07.14-.17c.02-.03.05-.06.08-.09s.07-.06.1-.09c.04-.03.08-.07.12-.11s.09-.07.14-.1.1-.07.16-.11c.06-.03.12-.06.18-.1s.13-.06.2-.09.14-.06.22-.08c.15-.04.3-.09.47-.11.16-.03.33-.03.49-.04.17.01.33.01.49.04.16.02.32.07.47.11.07.03.15.05.22.08s.14.06.2.09.12.07.18.1.11.07.16.11.1.07.14.11c.05.04.09.08.13.11.04.04.08.07.11.1s.05.06.07.08l.12.15c.15.22.09.53-.13.68a.52.52 0 0 1-.48.05z"/></g><g fill="#1A1717"><ellipse cx="59.01" cy="34.43" rx="1.5" ry="1.55"/><ellipse cx="68.99" cy="34.43" rx="1.5" ry="1.55"/></g><radialGradient id="h" cx="64.029" cy="26.751" r="10.273" gradientUnits="userSpaceOnUse"><stop stop-color="#444140" offset="0"/><stop stop-color="#232020" offset="1"/></radialGradient><path d="M64.09 17.49c-13.91 0-11 15.82-11 15.82s1.48 2.75 1.47 2.7c-.05-2.2.83-6.1 1.46-7.76.31-.84 1.18-1.32 2.06-1.16 1.35.25 3.51.55 5.88.55 2.28 0 4.38-.28 5.76-.52.94-.16 1.85.42 2.1 1.34l1.72 7.56 1.43-2.76c.01-.01 2.86-15.77-10.88-15.77z" fill="url(#h)"/><defs><path id="i" d="M64.09 17.49c-13.91 0-11.17 15.59-11.17 15.59s1.64 2.98 1.64 2.92c-.01-.47.26-2.04.26-2.04l-.97-1.21s.01-12.92 10.16-12.92 9.32 9.44 9.32 9.44c-.01.28.6 3.81.6 3.81l-.86 1.14.48 1.79 1.46-2.9c.01 0 2.82-15.62-10.92-15.62z"/></defs><clipPath id="j"><use xlink:href="#i"/></clipPath><g clip-path="url(#j)"><path d="M64.09 18.49c3.38 0 5.96 1.02 7.65 3.04 3.25 3.89 2.44 10.37 2.28 11.4l-.1.19-1.13-4.93a2.848 2.848 0 0 0-2.75-2.11c-.16 0-.33.01-.49.04-1.32.23-3.36.5-5.58.5-2.29 0-4.37-.29-5.71-.53-.17-.03-.34-.05-.51-.05-1.18 0-2.25.74-2.67 1.84-.4 1.07-.9 3-1.22 4.88 0-.01-.01-.02-.01-.02-.15-1.08-.86-7.33 2.36-11.15 1.74-2.05 4.39-3.1 7.88-3.1m0-1c-13.91 0-11.2 15.59-11.2 15.59s1.64 2.93 1.67 2.93c-.05-2.2.83-6.1 1.46-7.76a1.837 1.837 0 0 1 2.06-1.16c1.35.25 3.51.55 5.88.55 2.28 0 4.38-.28 5.76-.52.11-.02.21-.03.32-.03.82 0 1.56.55 1.78 1.37l1.72 7.56 1.43-2.76c.01-.01 2.86-15.77-10.88-15.77z" fill="#1F1D1B"/></g><path d="M64.97 37.18c-.03-.01-.06-.02-.1-.02h-2.15c-.03 0-.07.01-.1.02-.19.08-.3.28-.21.5.09.21.52.82 1.38.82s1.29-.6 1.38-.82c.1-.22-.01-.42-.2-.5z" fill="#33251F"/></g><path fill="none" d="M50.51 17.72h27.73v40.06H50.51z"/><linearGradient id="k" x1="51.288" x2="51.288" y1="116.94" y2="73.582" gradientUnits="userSpaceOnUse"><stop stop-color="#5C4037" offset="0"/><stop stop-color="#70534A" offset="1"/></linearGradient><path d="M44.66 116.92L39.47 93.9c-.54-2.41.13-4.94 1.82-6.75 1.78-1.92 4.11-4.42 6.15-6.58 3.26-3.45 7.17-6.19 8.35-6.99l7.51 8.06c-.71 1.24-3.48 5.86-6.83 8.74-1.59 1.36-3.78 2.98-6.33 4.67-.18.12-.27.35-.2.56.37 1.2.61 2.45.71 3.71.31 3.87-.13 8.72-.31 10.8-.04.47-.07.8-.08.93-.09 2.74-.13 4.94-.15 5.88l-5.45-.01z" fill="url(#k)"/><path d="M55.71 74.24l6.97 7.48c-.91 1.55-3.48 5.67-6.54 8.29-1.59 1.37-3.71 2.93-6.28 4.63-.37.24-.53.7-.4 1.13.36 1.17.59 2.38.69 3.61.3 3.83-.13 8.65-.31 10.71-.04.49-.07.82-.08.96-.08 2.33-.12 4.29-.14 5.4l-4.55-.01-5.1-22.64c-.51-2.25.13-4.61 1.7-6.3 1.65-1.77 4.05-4.36 6.15-6.57 2.93-3.14 6.43-5.68 7.89-6.69m.15-1.31s-4.84 3.12-8.79 7.3c-2.04 2.16-4.37 4.66-6.15 6.58a7.983 7.983 0 0 0-1.94 7.2l5.28 23.42 6.34.02s.04-2.71.16-6.37c.02-.7.77-7 .39-11.78-.12-1.54-.43-2.83-.73-3.82 1.99-1.32 4.43-3.03 6.38-4.71 3.99-3.43 7.12-9.19 7.12-9.19l-8.06-8.65z" fill="#4A2F27"/><path fill="#E0E0E0" d="M44.65 116.93l-1.35-5.36h6.94l-.13 5.37z"/><path d="M49.73 112.07l-.11 4.37-4.58-.01-1.1-4.35h5.79m1.02-1.01zh-8.09l1.6 6.35 6.34.02.15-6.37z" fill="#BFBFBF"/><path d="M35.83 123.5c-.14 0-.27-.05-.36-.15-.1-.1-.15-.23-.15-.36v-1.28c.01-1.46.89-2.75 2.25-3.28l5.88-2.08h7.41c.38.56 1.41 2.19 1.42 3.61l.01 2.84c0 .18-.07.34-.19.47s-.29.19-.47.2l-15.8.03z" fill="#4568AD"/><path d="M50.59 116.84c.48.74 1.18 2.05 1.18 3.11l.01 2.84c0 .06-.03.09-.05.11s-.06.05-.11.05l-15.8.04v-1.28c.01-1.25.76-2.36 1.9-2.81l5.82-2.06h7.05m.53-1h-7.75l-5.98 2.11a4.036 4.036 0 0 0-2.56 3.75v1.28c0 .56.45 1.02 1.01 1.02l15.79-.05c.64 0 1.16-.52 1.16-1.17l-.01-2.84c-.01-1.92-1.66-4.1-1.66-4.1z" fill="#315499"/><linearGradient id="l" x1="-217.37" x2="-217.37" y1="116.94" y2="73.602" gradientTransform="matrix(-1 0 0 1 -139.94 0)" gradientUnits="userSpaceOnUse"><stop stop-color="#5C4037" offset="0"/><stop stop-color="#70534A" offset="1"/></linearGradient><path d="M78.63 116.94c-.02-.94-.06-3.14-.15-5.88 0-.13-.03-.45-.07-.92-.19-2.08-.62-6.93-.31-10.81.1-1.26.34-2.51.71-3.71a.508.508 0 0 0-.2-.56c-.54-.36-1.14-.74-1.77-1.14-1.68-1.06-3.58-2.26-4.98-3.46-3.37-2.89-5.83-7.61-6.43-8.81l6.78-8.04c1.3.92 5.76 4.12 8.83 6.99 1.7 1.59 3.8 3.73 6.42 6.55a7.508 7.508 0 0 1 1.82 6.75l-5.19 23.03-5.46.01z" fill="url(#l)"/><path d="M72.27 74.28c1.63 1.16 5.6 4.07 8.41 6.68 1.68 1.57 3.77 3.7 6.4 6.53a7.02 7.02 0 0 1 1.7 6.3l-5.1 22.64-4.55.01c-.02-1.11-.07-3.07-.14-5.4 0-.14-.03-.47-.08-.96-.18-2.06-.62-6.89-.31-10.71.1-1.22.33-2.43.69-3.61.13-.42-.03-.88-.4-1.13-.54-.36-1.15-.74-1.79-1.15-1.66-1.05-3.55-2.24-4.92-3.42-3.07-2.64-5.39-6.84-6.16-8.36l6.25-7.42m-.17-1.35l-7.28 8.64s2.7 5.83 6.69 9.26c1.95 1.68 4.82 3.32 6.81 4.64-.3.99-.6 2.28-.73 3.82-.38 4.78.36 11.08.39 11.78.12 3.66.16 6.37.16 6.37l6.34-.02L89.76 94c.58-2.57-.14-5.27-1.94-7.2-1.78-1.92-4.27-4.55-6.45-6.58-3.7-3.43-9.27-7.29-9.27-7.29z" fill="#4A2F27"/><path fill="#E0E0E0" d="M78.49 111.57h6.94l-1.35 5.36-5.46.01z"/><path d="M84.79 112.07l-1.1 4.35-4.58.01-.11-4.36h5.79m1.28-1h-8.09l.16 6.37 6.34-.02 1.59-6.35z" fill="#BFBFBF"/><path d="M77.1 123.45a.665.665 0 0 1-.66-.67l.01-2.84c0-1.42 1.03-3.05 1.42-3.61h7.41l5.9 2.09c1.34.53 2.22 1.82 2.23 3.28v1.28c0 .14-.05.27-.15.36-.1.1-.23.15-.36.15l-15.8-.04z" fill="#4568AD"/><path d="M85.19 116.84l5.78 2.04c1.17.46 1.93 1.57 1.93 2.82v1.3l-15.79-.05c-.06 0-.09-.03-.11-.05s-.05-.06-.05-.11l.01-2.84c0-1.06.71-2.38 1.18-3.11h7.05m.18-1h-7.75s-1.66 2.18-1.66 4.11l-.01 2.84c0 .64.52 1.16 1.16 1.17l15.78.04c.56 0 1.01-.45 1.01-1.02v-1.28a4.051 4.051 0 0 0-2.56-3.75l-5.97-2.11z" fill="#315499"/><path d="M122.46 17c.2 0 .64.57.64 1.5s-.45 1.5-.64 1.5H5.75c-.2 0-.64-.57-.64-1.5s.45-1.5.64-1.5h116.71m0-1H5.75c-.91 0-1.64 1.12-1.64 2.5S4.85 21 5.75 21h116.71c.91 0 1.64-1.12 1.64-2.5s-.73-2.5-1.64-2.5z" fill="#595959"/><radialGradient id="m" cx="64.324" cy="84.838" r="21.026" gradientUnits="userSpaceOnUse"><stop stop-color="#FF6F00" offset=".001"/><stop stop-color="#FFA000" offset="1"/></radialGradient><path d="M73.49 91.83c-1.4-1.17-6.52-5.45-7.03-5.91-.87-.79-1.94-.8-2.29-.81-.37.01-1.44.02-2.31.81-.51.46-5.62 4.73-7.03 5.9l-9.36-9.71 8.66-7.49v-1.96h20.08v1.96l8.98 7.48-9.7 9.73z" fill="url(#m)"/><path d="M73.71 73.16v1.7l.36.3 8.38 6.98-8.99 9c-2.45-2.05-6.24-5.22-6.67-5.6-1.01-.91-2.22-.93-2.65-.94-.4.01-1.61.02-2.62.94-.42.38-4.2 3.55-6.65 5.59l-8.67-9 8.09-6.99.35-.3v-1.69h19.07m1-.99H53.63v2.23l-8.89 7.68L54.78 92.5s6.79-5.67 7.4-6.21c.67-.6 1.48-.67 1.97-.68.49.01 1.3.08 1.97.68.61.55 7.4 6.21 7.4 6.21l10.41-10.43-9.22-7.68v-2.23z" fill="#E66400"/><defs><path id="n" d="M87.27 24.53l2.69.72 1.12-1.37 4 .68.16 1.41 2.79.63 3.02-9.56-12.74-2.86z"/></defs><clipPath id="o"><use xlink:href="#n"/></clipPath><g clip-path="url(#o)"><radialGradient id="p" cx="-226.92" cy="20.509" r="7.006" gradientTransform="matrix(.6992 .7149 .7216 -.7057 236.79 196.94)" gradientUnits="userSpaceOnUse"><stop stop-color="#5C4037" offset=".246"/><stop stop-color="#70534A" offset=".688"/><stop stop-color="#5C4037" offset=".999"/></radialGradient><path d="M93.17 25.77c-3.57 0-4.65-2.58-4.95-3.68-.48-1.78-.04-3.41.66-3.82.66-.38 4.37-1.02 7.14-1.02 1.49 0 1.96.2 2.08.27v3.04c0 1.44-.46 2.76-1.31 3.7-.89.99-2.14 1.52-3.61 1.52h-.01z" fill="url(#p)"/><path d="M96.02 17.75c.86 0 1.34.07 1.59.12v2.69c0 2.34-1.36 4.71-4.44 4.72-3.23 0-4.2-2.32-4.47-3.31-.43-1.59-.03-2.99.43-3.26.55-.32 4.08-.96 6.89-.96m0-1c-2.67 0-6.56.61-7.39 1.09-2.08 1.21-1.59 8.44 4.54 8.44h.01c3.39-.01 5.43-2.58 5.43-5.72l-.01-3.12c0-.5-1.1-.69-2.58-.69z" fill="#4A2F27"/></g><path d="M89.35 20.85c1.1.16 1.94 1.03 2.12 2.12.09.54 1.25.12 1.18-.32-.23-1.42-1.27-2.4-2.69-2.61-.44-.06-1.33.71-.61.81z" fill="#4A2F27"/><radialGradient id="q" cx="-543.62" cy="129.07" r="1.125" gradientTransform="matrix(.216 1.0286 .3102 -.0692 166.17 586.23)" gradientUnits="userSpaceOnUse"><stop stop-color="#FFCA28" offset=".599"/><stop stop-color="#FFB300" offset="1"/></radialGradient><path d="M88.04 18.03c.14.75.86 1.24 1.6 1.1" fill="url(#q)" stroke="#EDA600" stroke-linecap="round" stroke-linejoin="round" stroke-miterlimit="10"/><defs><path id="r" d="M40.92 24.53l-2.19.64-1.08-1.43-4.75.57.05 1.66-2.78.63-3.03-9.56 12.74-2.86z"/></defs><clipPath id="s"><use xlink:href="#r"/></clipPath><g clip-path="url(#s)"><radialGradient id="t" cx="35.431" cy="20.08" r="7.007" gradientTransform="matrix(-.6992 .7149 -.7216 -.7057 74.527 9.066)" gradientUnits="userSpaceOnUse"><stop stop-color="#5C4037" offset=".246"/><stop stop-color="#70534A" offset=".688"/><stop stop-color="#5C4037" offset=".999"/></radialGradient><path d="M35.01 25.77c-1.47 0-2.72-.53-3.61-1.52-.85-.94-1.31-2.26-1.31-3.7l.01-3.04c.12-.07.59-.27 2.08-.27 2.77 0 6.48.64 7.14 1.02.71.41 1.14 2.04.66 3.82-.3 1.11-1.38 3.68-4.95 3.68h-.02z" fill="url(#t)"/><path d="M32.17 17.75c2.8 0 6.34.64 6.89.95.46.27.86 1.67.43 3.26-.27 1-1.24 3.31-4.48 3.31-3.06-.01-4.43-2.37-4.43-4.72v-2.69c.26-.05.74-.11 1.59-.11m0-1c-1.48 0-2.58.19-2.58.69l-.01 3.12c-.01 3.14 2.04 5.71 5.43 5.72h.01c6.13 0 6.62-7.23 4.54-8.44-.82-.48-4.71-1.09-7.39-1.09z" fill="#4A2F27"/></g><path d="M38.52 20.17c-1.58.23-2.9 1.31-3.16 2.92-.08.48 1.1.14 1.18-.32.14-.88.73-1.67 1.65-1.8.25-.04.65-.18.73-.46.07-.25-.16-.37-.4-.34z" fill="#4A2F27"/><linearGradient id="u" x1="64.103" x2="64.103" y1="-11" y2="-6.224" gradientTransform="matrix(1 0 0 1.25 0 28.583)" gradientUnits="userSpaceOnUse"><stop stop-color="#BDBDBD" offset="0"/><stop stop-color="#757575" offset="1"/></linearGradient><path d="M122.46 16H5.75c-.91 0-1.64 1.12-1.64 2.5S4.85 21 5.75 21h116.71c.91 0 1.64-1.12 1.64-2.5s-.73-2.5-1.64-2.5z" fill="url(#u)"/><path d="M122.46 17c.2 0 .64.57.64 1.5s-.45 1.5-.64 1.5H5.75c-.2 0-.64-.57-.64-1.5s.45-1.5.64-1.5h116.71m0-1H5.75c-.91 0-1.64 1.12-1.64 2.5S4.85 21 5.75 21h116.71c.91 0 1.64-1.12 1.64-2.5s-.73-2.5-1.64-2.5z" fill="#595959"/><path fill="#646464" d="M38.05 21h-9.33l-.8-5h10.13zM90.15 20.99h9.33l.8-5H90.15z"/><radialGradient id="v" cx="-5.18" cy="24.894" r="24.348" gradientTransform="matrix(0 .9016 -.507 0 32.49 13.351)" gradientUnits="userSpaceOnUse"><stop stop-color="#9E9E9E" offset=".396"/><stop stop-color="#646464" offset=".79"/></radialGradient><path d="M19.92 32.99c3.31 0 6-2.69 6-6V10.14c0-3.31-2.69-6-6-6s-6 2.69-6 6v16.85c0 3.31 2.68 6 6 6z" fill="url(#v)"/><radialGradient id="w" cx="-29.167" cy="29.519" r="3.543" gradientTransform="matrix(1.3333 0 0 2.3062 47.111 -55.225)" gradientUnits="userSpaceOnUse"><stop stop-color="#9E9E9E" offset=".441"/><stop stop-color="#646464" offset=".985"/></radialGradient><path d="M8 27.22c2.21 0 4-1.79 4-4v-9.31c0-2.21-1.79-4-4-4s-4 1.79-4 4v9.31c0 2.21 1.79 4 4 4z" fill="url(#w)"/><path d="M19.92 5.14c2.76 0 5 2.24 5 5v16.85c0 2.76-2.24 5-5 5s-5-2.24-5-5V10.14c0-2.76 2.24-5 5-5m0-1c-3.31 0-6 2.69-6 6v16.85c0 3.31 2.69 6 6 6s6-2.69 6-6V10.14c0-3.32-2.69-6-6-6z" fill="#595959"/><path d="M8 10.91c1.65 0 3 1.35 3 3v9.31c0 1.65-1.35 3-3 3s-3-1.35-3-3v-9.31c0-1.66 1.35-3 3-3m0-1c-2.21 0-4 1.79-4 4v9.31c0 2.21 1.79 4 4 4s4-1.79 4-4v-9.31c0-2.21-1.79-4-4-4z" fill="#525252"/><radialGradient id="x" cx="-186.22" cy="24.894" r="24.348" gradientTransform="matrix(0 .9016 .507 0 95.51 176.59)" gradientUnits="userSpaceOnUse"><stop stop-color="#9E9E9E" offset=".396"/><stop stop-color="#646464" offset=".79"/></radialGradient><path d="M108.08 32.99c-3.31 0-6-2.69-6-6V10.14c0-3.31 2.69-6 6-6s6 2.69 6 6v16.85c0 3.31-2.68 6-6 6z" fill="url(#x)"/><radialGradient id="y" cx="-192.1" cy="29.519" r="3.543" gradientTransform="matrix(-1.3333 0 0 2.3062 -136.36 -55.225)" gradientUnits="userSpaceOnUse"><stop stop-color="#9E9E9E" offset=".441"/><stop stop-color="#646464" offset=".985"/></radialGradient><path d="M120 27.22c-2.21 0-4-1.79-4-4v-9.31c0-2.21 1.79-4 4-4s4 1.79 4 4v9.31c0 2.21-1.79 4-4 4z" fill="url(#y)"/><path d="M108.08 5.14c2.76 0 5 2.24 5 5v16.85c0 2.76-2.24 5-5 5s-5-2.24-5-5V10.14c0-2.76 2.25-5 5-5m0-1c-3.31 0-6 2.69-6 6v16.85c0 3.31 2.69 6 6 6s6-2.69 6-6V10.14c0-3.32-2.68-6-6-6z" fill="#595959"/><path d="M120 10.91c1.65 0 3 1.35 3 3v9.31c0 1.65-1.35 3-3 3s-3-1.35-3-3v-9.31c0-1.66 1.35-3 3-3m0-1c-2.21 0-4 1.79-4 4v9.31c0 2.21 1.79 4 4 4s4-1.79 4-4v-9.31c0-2.21-1.79-4-4-4z" fill="#525252"/><radialGradient id="z" cx="-270.1" cy="10.444" r="4.536" fx="-269.15" fy="6.007" gradientTransform="matrix(.00334 1.0512 -.3363 .00192 40.542 297.79)" gradientUnits="userSpaceOnUse"><stop stop-color="#70534A" offset=".6"/><stop stop-color="#5C4037" offset=".999"/></radialGradient><path d="M36.12 18.91c-.76 0-1.38-.62-1.37-1.38l.01-3.14c0-.76.62-1.38 1.38-1.37.76 0 1.38.62 1.37 1.38l-.01 3.14c0 .76-.62 1.37-1.38 1.37z" fill="url(#z)" stroke="#4A2F27" stroke-linecap="round" stroke-linejoin="round" stroke-miterlimit="10"/><radialGradient id="A" cx="-240.85" cy="80.027" r="4.043" gradientTransform="matrix(-.216 1.0286 -.3102 -.0692 12.19 267.61)" gradientUnits="userSpaceOnUse"><stop stop-color="#70534A" offset=".6"/><stop stop-color="#5C4037" offset=".999"/></radialGradient><path d="M38.56 19.13c-.75-.14-1.24-.86-1.1-1.6l.57-3.08a1.372 1.372 0 1 1 2.7.5l-.57 3.08c-.14.75-.85 1.24-1.6 1.1z" fill="url(#A)" stroke="#4A2F27" stroke-linecap="round" stroke-linejoin="round" stroke-miterlimit="10"/><radialGradient id="B" cx="-263.37" cy="-70.949" r="3.43" gradientTransform="matrix(.0628 1.0481 -.3974 .0259 21.621 292.56)" gradientUnits="userSpaceOnUse"><stop stop-color="#70534A" offset=".6"/><stop stop-color="#5C4037" offset=".999"/></radialGradient><path d="M33.54 18.69a1.41 1.41 0 0 1-1.48-1.34l-.13-2.58a1.42 1.42 0 0 1 1.34-1.47c.78-.04 1.44.56 1.48 1.34l.13 2.58c.03.77-.56 1.43-1.34 1.47z" fill="url(#B)" stroke="#4A2F27" stroke-linecap="round" stroke-linejoin="round" stroke-miterlimit="10"/><radialGradient id="C" cx="-255.78" cy="-66.354" r="4.461" gradientTransform="matrix(.1598 1.0375 -.3775 .0578 45.904 283.54)" gradientUnits="userSpaceOnUse"><stop stop-color="#70534A" offset=".6"/><stop stop-color="#5C4037" offset=".999"/></radialGradient><path d="M30.85 18.97a1.4 1.4 0 0 1-1.6-1.17l-.3-1.95a1.4 1.4 0 0 1 1.17-1.6 1.4 1.4 0 0 1 1.6 1.17l.3 1.95c.11.77-.41 1.48-1.17 1.6z" fill="url(#C)" stroke="#4A2F27" stroke-linecap="round" stroke-linejoin="round" stroke-miterlimit="10"/><defs><path id="D" d="M38.57 20.67l-.83-1.04-5.56-1.94 2.43-4.28 6.77 4s.43 2.85.13 3.55c-.31.7-1.12 1.92-1.62 1.69-1.31-.6-1.32-1.98-1.32-1.98z"/></defs><clipPath id="E"><use xlink:href="#D"/></clipPath><g clip-path="url(#E)"><radialGradient id="F" cx="-261.37" cy="-94.28" r="4.148" gradientTransform="matrix(.7134 .3521 -.3846 .7794 187.69 184.54)" gradientUnits="userSpaceOnUse"><stop stop-color="#5C4037" offset=".001"/><stop stop-color="#70534A" offset="1"/></radialGradient><path d="M36.02 15.48c-.93-.46-1.57.43-1.62 1.1-.05.66.42 1.38 1.04 1.62 2.21.85 2.59 1.43 2.58 2.14-.01.98.7 2.74 1.26 2.5 1.24-.52 1.97-2.09 1.74-3.37-.51-2.78-4.55-3.77-5-3.99z" fill="url(#F)" stroke="#4A2F27" stroke-linecap="round" stroke-linejoin="round" stroke-miterlimit="10"/></g><radialGradient id="G" cx="-578.51" cy="10.852" r="4.536" fx="-577.57" fy="6.415" gradientTransform="matrix(-.00334 1.0512 .3363 .00192 86.482 621.99)" gradientUnits="userSpaceOnUse"><stop stop-color="#70534A" offset=".6"/><stop stop-color="#5C4037" offset=".999"/></radialGradient><path d="M92.07 18.91c.76 0 1.38-.62 1.37-1.38l-.01-3.14c0-.76-.62-1.38-1.38-1.37-.76 0-1.38.62-1.37 1.38l.01 3.14c.01.76.62 1.37 1.38 1.37z" fill="url(#G)" stroke="#4A2F27" stroke-linecap="round" stroke-linejoin="round" stroke-miterlimit="10"/><radialGradient id="H" cx="-544.11" cy="125.47" r="4.043" gradientTransform="matrix(.216 1.0286 .3102 -.0692 167.41 582.69)" gradientUnits="userSpaceOnUse"><stop stop-color="#70534A" offset=".6"/><stop stop-color="#5C4037" offset=".999"/></radialGradient><path d="M89.63 19.13c.75-.14 1.24-.86 1.1-1.6l-.57-3.08a1.372 1.372 0 1 0-2.7.5l.57 3.08c.14.75.86 1.24 1.6 1.1z" fill="url(#H)" stroke="#4A2F27" stroke-linecap="round" stroke-linejoin="round" stroke-miterlimit="10"/><radialGradient id="I" cx="-570.37" cy="-83.313" r="3.43" gradientTransform="matrix(-.0628 1.0481 .3974 .0259 92.206 614.66)" gradientUnits="userSpaceOnUse"><stop stop-color="#70534A" offset=".6"/><stop stop-color="#5C4037" offset=".999"/></radialGradient><path d="M94.65 18.69c.78.04 1.44-.56 1.48-1.34l.13-2.58a1.41 1.41 0 0 0-1.34-1.48 1.41 1.41 0 0 0-1.48 1.34l-.13 2.58c-.03.78.56 1.44 1.34 1.48z" fill="url(#I)" stroke="#4A2F27" stroke-linecap="round" stroke-linejoin="round" stroke-miterlimit="10"/><radialGradient id="J" cx="-555.7" cy="-104.84" r="4.461" gradientTransform="matrix(-.1598 1.0375 .3775 .0578 48.895 596.93)" gradientUnits="userSpaceOnUse"><stop stop-color="#70534A" offset=".6"/><stop stop-color="#5C4037" offset=".999"/></radialGradient><path d="M97.35 18.97a1.4 1.4 0 0 0 1.6-1.17l.3-1.95a1.4 1.4 0 0 0-1.17-1.6 1.4 1.4 0 0 0-1.6 1.17l-.3 1.95c-.12.77.4 1.48 1.17 1.6z" fill="url(#J)" stroke="#4A2F27" stroke-linecap="round" stroke-linejoin="round" stroke-miterlimit="10"/><defs><path id="K" d="M89.62 20.67l.83-1.04 5.56-1.94-2.43-4.28-6.77 4s-.43 2.85-.13 3.55c.31.7 1.12 1.92 1.62 1.69 1.31-.6 1.32-1.98 1.32-1.98z"/></defs><clipPath id="L"><use xlink:href="#K"/></clipPath><g clip-path="url(#L)"><radialGradient id="M" cx="-557.08" cy="39.318" r="4.148" gradientTransform="matrix(-.7134 .3521 .3846 .7794 -321.85 184.54)" gradientUnits="userSpaceOnUse"><stop stop-color="#5C4037" offset=".001"/><stop stop-color="#70534A" offset="1"/></radialGradient><path d="M92.17 15.48c.93-.46 1.57.43 1.62 1.1s-.42 1.38-1.04 1.62c-2.21.85-2.59 1.43-2.58 2.14.01.98-.7 2.74-1.26 2.5-1.24-.52-1.97-2.09-1.74-3.37.51-2.78 4.55-3.77 5-3.99z" fill="url(#M)" stroke="#4A2F27" stroke-linecap="round" stroke-linejoin="round" stroke-miterlimit="10"/></g><path d="M66.92 39.9c-.97.58-4.86.58-5.82 0-.56-.33-1.06.17-.83.68.23.5 2.24 1.65 3.73 1.65 1.5 0 3.58-1.15 3.81-1.65.23-.51-.33-1.01-.89-.68z" fill="#1A1717"/></svg>