<svg viewBox="0 0 128 128" xmlns="http://www.w3.org/2000/svg" xmlns:xlink="http://www.w3.org/1999/xlink"><radialGradient id="a" cx="63.167" cy="0" r="27.624" gradientUnits="userSpaceOnUse"><stop stop-color="#757575" offset="0"/><stop stop-color="#212121" offset=".979"/></radialGradient><path d="M88 24H40c-2.21 0-4-1.79-4-4V8c0-2.21 1.79-4 4-4h48c2.21 0 4 1.79 4 4v12c0 2.21-1.79 4-4 4z" fill="url(#a)"/><radialGradient id="b" cx="63.667" cy="102" r="25.365" gradientUnits="userSpaceOnUse"><stop stop-color="#757575" offset="0"/><stop stop-color="#212121" offset=".979"/></radialGradient><path d="M88 124H40c-2.21 0-4-1.79-4-4v-12c0-2.21 1.79-4 4-4h48c2.21 0 4 1.79 4 4v12c0 2.21-1.79 4-4 4z" fill="url(#b)"/><path d="M88 7c.55 0 1 .45 1 1v12c0 .55-.45 1-1 1H40c-.55 0-1-.45-1-1V8c0-.55.45-1 1-1h48m0-3H40c-2.21 0-4 1.79-4 4v12c0 2.21 1.79 4 4 4h48c2.21 0 4-1.79 4-4V8c0-2.21-1.79-4-4-4zM88 107c.55 0 1 .45 1 1v12c0 .55-.45 1-1 1H40c-.55 0-1-.45-1-1v-12c0-.55.45-1 1-1h48m0-3H40c-2.21 0-4 1.79-4 4v12c0 2.21 1.79 4 4 4h48c2.21 0 4-1.79 4-4v-12c0-2.21-1.79-4-4-4z" fill="#eee" opacity=".2"/><radialGradient id="c" cx="64" cy="16.167" r="102.88" gradientTransform="matrix(1.2222 0 0 1 -14.222 0)" gradientUnits="userSpaceOnUse"><stop stop-color="#E57373" offset="0"/><stop stop-color="#E76D6D" offset=".043"/><stop stop-color="#ED5A58" offset=".223"/><stop stop-color="#EF5350" offset=".341"/><stop stop-color="#D23534" offset=".608"/><stop stop-color="#C62828" offset=".765"/><stop stop-color="#C62828" offset="1"/></radialGradient><path d="M88 116H40c-11.05 0-20-8.95-20-20V32c0-11.05 8.95-20 20-20h48c11.05 0 20 8.95 20 20v64c0 11.05-8.95 20-20 20z" fill="url(#c)"/><defs><path id="d" d="M88 116H40c-11.05 0-20-8.95-20-20V32c0-11.05 8.95-20 20-20h48c11.05 0 20 8.95 20 20v64c0 11.05-8.95 20-20 20z"/></defs><clipPath id="e"><use xlink:href="#d"/></clipPath><radialGradient id="f" cx="67" cy="14" r="102.32" gradientUnits="userSpaceOnUse"><stop stop-color="#E53935" offset="0"/><stop stop-color="#D7302D" offset=".237"/><stop stop-color="#C02121" offset=".706"/><stop stop-color="#B71C1C" offset="1"/></radialGradient><path clip-path="url(#e)" fill="url(#f)" d="M10.22 16h117.33v4H10.22zM10.22 24h117.33v4H10.22zM10.22 32h117.33v4H10.22zM10.22 40h117.33v4H10.22zM10.22 48h117.33v4H10.22zM10.22 56h117.33v4H10.22zM10.22 64h117.33v4H10.22zM10.22 72h117.33v4H10.22zM10.22 80h117.33v4H10.22zM10.22 88h117.33v4H10.22zM10.22 96h117.33v4H10.22zM10.22 104h117.33v4H10.22zM10.22 112h117.33v4H10.22z"/><path d="M88 15c9.37 0 17 7.63 17 17v64c0 9.37-7.63 17-17 17H40c-9.37 0-17-7.63-17-17V32c0-9.37 7.63-17 17-17h48m0-3H40c-11.05 0-20 8.95-20 20v64c0 11.05 8.95 20 20 20h48c11.05 0 20-8.95 20-20V32c0-11.05-8.95-20-20-20z" fill="#424242" opacity=".2"/></svg>