<svg viewBox="0 0 128 128" xmlns="http://www.w3.org/2000/svg" xmlns:xlink="http://www.w3.org/1999/xlink"><path d="M79.57 118.38c-.37-2.74-6.26-5.94-6.26-5.94.09.09-9.26-.31-9.26-.31s-9.42.4-9.33.31c0 0-5.85 3.2-6.22 5.94s4.73 5.32 15.55 5.32c10.45-.01 15.89-2.59 15.52-5.32zM31.64 41.83s3.36-7.09 1.8-14.06c-1.89-8.45 3.36-12.81 6.72-13.81s8.71.37 12.19 4.23-1 9.58-1 9.58-1.74-5.41-4.48-7.4-7.13-2.46-7.9 3.23c-.31 2.3-.06 7.4 1.8 8.83 1.32 1.02 3.98 1.06 3.98 1.06s-7.14 5.72-13.11 8.34z" fill="#3E2723"/><path d="M42.5 15.65c2.95 0 6.24 1.52 8.37 3.88.92 1.01.94 2.32.63 3.53-.86-1.59-2.02-3.27-3.44-4.31C46.51 17.62 44.75 17 43.1 17c-3.28 0-5.56 2.37-6.1 6.33-.23 1.67-.45 8.37 2.57 10.69.19.15.4.28.61.4a75.028 75.028 0 0 1-5.08 3.34c.68-2.86 1.14-6.63.29-10.42-1.7-7.6 3.28-10.85 5.33-11.46.53-.16 1.12-.23 1.78-.23m0-2c-.84 0-1.63.1-2.34.31-3.36 1-8.6 5.36-6.72 13.81 1.56 6.97-1.8 14.06-1.8 14.06 5.97-2.61 13.13-8.34 13.13-8.34s-2.66-.04-3.98-1.06c-1.87-1.43-2.12-6.53-1.8-8.83.46-3.39 2.2-4.6 4.12-4.6 1.3 0 2.68.56 3.78 1.36 2.74 1.99 4.48 7.4 4.48 7.4s4.48-5.72 1-9.58c-2.77-3.04-6.69-4.53-9.87-4.53z" fill="#eee" opacity=".2"/><path d="M95.99 41.83s-3.36-7.09-1.8-14.06c1.89-8.45-3.36-12.81-6.72-13.81s-8.71.37-12.19 4.23 1 9.58 1 9.58 1.74-5.41 4.48-7.4 7.13-2.46 7.9 3.23c.31 2.3.06 7.4-1.8 8.83-1.32 1.02-3.98 1.06-3.98 1.06s7.13 5.72 13.11 8.34z" fill="#3E2723"/><path d="M85.13 15.65c.66 0 1.25.08 1.77.23 1.24.37 2.99 1.42 4.22 3.29 1.45 2.21 1.83 4.96 1.11 8.16-.85 3.79-.39 7.56.29 10.42a80.431 80.431 0 0 1-5.08-3.34c.21-.12.42-.25.61-.4 3.02-2.32 2.79-9.02 2.57-10.69-.54-3.96-2.82-6.33-6.1-6.33-1.65 0-3.42.62-4.96 1.74-1.43 1.04-2.58 2.71-3.44 4.3-.31-1.21-.28-2.51.62-3.52 2.15-2.34 5.43-3.86 8.39-3.86m0-2c-3.18 0-7.1 1.49-9.86 4.54-3.48 3.86 1 9.58 1 9.58s1.74-5.41 4.48-7.4c1.11-.81 2.49-1.36 3.78-1.36 1.91 0 3.66 1.21 4.12 4.6.31 2.3.06 7.4-1.8 8.83-1.32 1.02-3.98 1.06-3.98 1.06s7.15 5.72 13.13 8.34c0 0-3.36-7.09-1.8-14.06 1.89-8.45-3.36-12.81-6.72-13.81-.72-.22-1.51-.32-2.35-.32z" fill="#eee" opacity=".2"/><radialGradient id="a" cx="48.75" cy="40.5" r="67.711" gradientUnits="userSpaceOnUse"><stop stop-color="#D6842D" offset="0"/><stop stop-color="#CA7827" offset=".205"/><stop stop-color="#AB5917" offset=".576"/><stop stop-color="#802D00" offset="1"/></radialGradient><path d="M102.27 55.89s-.02-10.7-10.22-18.04-19.42-9.21-14.69-23.76l4.3-8.34-17.6-1.62-17.67 1.62 4.23 8.34c4.73 14.56-4.48 16.42-14.68 23.76s-10.2 18.04-10.2 18.04C23.49 78.41 48.63 107.27 51.98 111c3.36 3.73 12.07 3.61 12.07 3.61s8.64.12 12-3.61 28.46-32.59 26.22-55.11z" fill="url(#a)"/><path d="M83.89 6.43C81.03 3.94 64.72 3.68 64 3.69c-.72-.01-16.99.24-19.85 2.74-.49.43.47 2.16 1.59 3.9s3.35 3.25 3.35 3.25 6.01-1.68 14.94-1.68S79 13.58 79 13.58s2.18-1.51 3.3-3.25c1.11-1.74 2.08-3.47 1.59-3.9z" fill="#3E2723"/><defs><path id="b" d="M102.27 55.89s-.02-10.7-10.22-18.04-19.42-9.21-14.69-23.76l4.3-8.34-17.6-1.62-17.67 1.62 4.23 8.34c4.73 14.56-4.48 16.42-14.68 23.76s-10.2 18.04-10.2 18.04C23.49 78.41 48.63 107.27 51.98 111c3.36 3.73 12.07 3.61 12.07 3.61s8.64.12 12-3.61 28.46-32.59 26.22-55.11z"/></defs><clipPath id="c"><use xlink:href="#b"/></clipPath><g fill="#3E2723" clip-path="url(#c)"><path d="M10.25 47.25s.02.75.38 2.29c.35 1.54 1.02 3.9 2.31 6.98.31.74.67 1.51 1.05 2.29s.78 1.58 1.22 2.41c-.13-1.21-.26-2.41-.38-3.62s-.24-2.41-.35-3.61-.22-2.41-.32-3.61c1.36.43 2.72.85 4.08 1.26s2.71.8 4.06 1.18 2.7.75 4.05 1.1 2.69.69 4.03 1.02l.09 3.91.12 3.91.15 3.91.18 3.91c.86.23 1.71.45 2.56.66l2.55.63c-.04-1.62-.08-3.23-.11-4.85s-.05-3.23-.06-4.84-.02-3.23-.02-4.84.01-3.23.02-4.84a219.938 219.938 0 0 1-8.51-1.99 246.284 246.284 0 0 1-8.58-2.33c-1.43-.42-2.87-.85-4.31-1.3s-2.88-.91-4.33-1.38c.03.56.06 1.14.12 1.75z"/><path d="M24.09 74.05c1.48.46 2.95.9 4.42 1.32s2.93.83 4.4 1.21c1.46.39 2.92.76 4.37 1.11s2.9.68 4.35 1 2.89.61 4.33.89c.02-1.62.04-3.24.07-4.86s.07-3.24.11-4.86.1-3.24.15-4.86c.06-1.62.12-3.24.19-4.86-.92-.16-1.85-.33-2.78-.5s-1.85-.35-2.78-.54c-.03 1.31-.05 2.62-.07 3.93s-.03 2.62-.04 3.93-.01 2.62-.01 3.93.01 2.62.01 3.93c-1.23-.27-2.46-.54-3.7-.84s-2.47-.59-3.71-.91-2.48-.64-3.73-.99c-1.25-.34-2.49-.7-3.75-1.06a513.816 513.816 0 0 1-.55-7.82c-.08-1.3-.16-2.6-.23-3.91-.07-1.3-.14-2.6-.2-3.9-.91-.25-1.83-.5-2.74-.76-.92-.26-1.83-.53-2.75-.8.09 1.33.19 2.66.29 3.99s.21 2.66.32 3.99.23 2.66.36 3.99.25 2.66.39 4c.47.64.98 1.32 1.52 2.03s1.14 1.45 1.76 2.22zM46.52 59.15c-.93-.16-1.86-.32-2.79-.49s-1.86-.35-2.79-.53c.03-1.53.07-3.06.12-4.59.95.18 1.9.36 2.85.52.95.17 1.89.33 2.84.49-.08 1.53-.16 3.07-.23 4.6zM88.71 52.88c-.12 1.56-.25 3.11-.38 4.67-.93.12-1.87.24-2.8.35s-1.87.22-2.8.31l.27-4.67c.95-.1 1.9-.2 2.85-.32.96-.1 1.91-.22 2.86-.34zM50.51 54.44a230.515 230.515 0 0 0 9.1.25c1.52.01 3.04 0 4.56-.02s3.04-.06 4.56-.12 3.04-.13 4.56-.22 3.04-.19 4.57-.31l-.18 4.92c-.06 1.64-.13 3.28-.19 4.92s-.13 3.28-.2 4.93l-.21 4.93c-.84.07-1.68.14-2.53.2-.84.06-1.68.12-2.53.17.03-1.33.05-2.65.08-3.98s.05-2.65.07-3.98.04-2.65.07-3.98l.06-3.98c-1.33.07-2.65.13-3.98.18s-2.65.08-3.98.1c-1.32.02-2.65.03-3.97.03s-2.65-.02-3.97-.05l.21 3.99.21 3.99.42 7.98c-.87-.02-1.73-.05-2.6-.08s-1.73-.07-2.6-.12c-.13-1.65-.25-3.29-.38-4.94s-.25-3.29-.38-4.94-.25-3.29-.38-4.94c-.14-1.64-.26-3.29-.39-4.93z"/><path d="M62.08 80.08c-.05-1.64-.09-3.29-.14-4.93s-.09-3.29-.14-4.93l-.15-4.93-.15-4.93c.9 0 1.79-.01 2.69-.02s1.79-.03 2.69-.06l.03 3.98.03 3.98c.01 1.33.01 2.65.02 3.98s.01 2.65.02 3.98c1.63-.05 3.26-.13 4.89-.22 1.63-.1 3.26-.21 4.89-.35s3.27-.3 4.9-.48l.27-3.99c.09-1.33.17-2.66.26-3.99s.17-2.66.25-3.99l.24-3.99 2.79-.3c.93-.11 1.86-.22 2.79-.34l-.42 4.93c-.14 1.64-.29 3.29-.43 4.93l-.45 4.93c-.15 1.64-.31 3.29-.46 4.93-1.63.23-3.26.44-4.89.63s-3.26.35-4.89.49-3.25.26-4.88.36-3.25.17-4.87.23c-1.64.05-3.26.09-4.89.1zM110.2 53.42c-.92.27-1.83.54-2.75.8s-1.83.52-2.74.76c-.1 1.61-.21 3.23-.33 4.84s-.24 3.23-.37 4.85-.27 3.23-.42 4.85-.3 3.24-.46 4.86c.22-.07.44-.13.66-.2 1.04-1.32 1.97-2.55 2.81-3.67s1.57-2.14 2.21-3.05c.18-1.56.35-3.13.51-4.69s.32-3.12.47-4.68c.14-1.55.28-3.11.41-4.67zM92.47 77.12c.08-1.54.16-3.07.23-4.61.88-.2 1.75-.41 2.63-.63l2.64-.66c-.11 1.54-.22 3.07-.34 4.61-.86.23-1.72.45-2.58.67-.86.21-1.72.42-2.58.62z"/><path d="M117.05 50.67c.62-2.28.66-3.41.66-3.41.06-.57.09-1.12.09-1.65-1.38.44-2.75.86-4.12 1.28s-2.74.81-4.11 1.2-2.73.76-4.1 1.12c-1.36.36-2.72.71-4.08 1.04s-2.72.65-4.07.96-2.71.6-4.06.88c-.02 1.62-.05 3.24-.08 4.86s-.07 3.24-.12 4.86-.1 3.24-.16 4.86-.12 3.24-.2 4.86c.88-.2 1.76-.4 2.64-.62s1.76-.43 2.65-.65a518.216 518.216 0 0 0 .49-7.86c.07-1.31.14-2.62.2-3.93l.18-3.93c1.34-.32 2.69-.65 4.04-1s2.7-.71 4.05-1.08 2.71-.76 4.07-1.16 2.72-.81 4.08-1.24c-.15 1.4-.31 2.79-.47 4.19s-.33 2.79-.5 4.19a41.006 41.006 0 0 0 1.37-3.18c.26-.67.49-1.31.69-1.9 0-.01.01-.02.01-.03.09-.27.18-.53.26-.78.03-.1.06-.19.09-.28.05-.17.11-.34.16-.5.05-.15.09-.3.13-.44.04-.12.07-.25.11-.37.04-.1.07-.2.1-.29zM64.79 50.95c1.45 0 2.9-.03 4.36-.07s2.92-.1 4.39-.19a166.497 166.497 0 0 0 8.85-.72 174.716 174.716 0 0 0 13.43-1.98c1.5-.28 3-.58 4.51-.9 1.43-.31 2.87-.64 4.31-1.01 1.44-.36 2.87-.76 4.3-1.17s2.85-.85 4.26-1.3 2.8-.92 4.18-1.4c-.3-1.14-.76-2.17-1.36-3.08-1.26.42-2.53.83-3.81 1.22s-2.57.77-3.86 1.13-2.59.7-3.88 1.02-2.59.62-3.88.89c-1.76.37-3.51.71-5.26 1.03s-3.5.6-5.24.87c-1.74.26-3.48.5-5.22.7s-3.47.39-5.19.54c-1.72.16-3.44.28-5.16.39a176.89 176.89 0 0 1-10.2.31 168.881 168.881 0 0 1-24.69-1.84c-1.6-.24-3.19-.5-4.77-.79-1.58-.28-3.14-.59-4.7-.92-1.55-.33-3.1-.67-4.63-1.04s-3.05-.76-4.55-1.16c-1.5-.41-2.99-.83-4.47-1.28-1.48-.44-2.94-.91-4.39-1.39a.18.18 0 0 0-.05.07c-.61.87-1.08 1.84-1.41 2.91-.01.02-.01.05-.02.07a168.93 168.93 0 0 0 8.39 2.68c1.42.41 2.86.81 4.31 1.18a155.506 155.506 0 0 0 8.82 2.04c1.49.3 2.99.58 4.5.84s3.03.5 4.56.72 3.07.42 4.62.59c1.55.18 3.1.33 4.67.46 1.56.13 3.14.24 4.72.33s3.17.15 4.76.2c1.59.03 3.19.05 4.8.05zM98.1 80.38c-1.51.35-3.03.69-4.56.99-1.53.31-3.07.59-4.62.85s-3.1.49-4.66.7-3.13.39-4.7.54-3.15.28-4.73.38-3.17.18-4.75.23c-1.59.05-3.17.07-4.76.07s-3.17-.04-4.76-.09c-1.59-.06-3.17-.14-4.75-.25s-3.16-.25-4.73-.41a142.969 142.969 0 0 1-9.34-1.27c-1.54-.26-3.07-.55-4.6-.85s-3.03-.64-4.53-.99-2.98-.73-4.45-1.12c.65.78 1.32 1.57 2.01 2.38.7.81 1.41 1.64 2.16 2.49 1.45.36 2.92.69 4.39 1s2.96.6 4.45.87 3 .51 4.51.73 3.03.42 4.55.59 3.05.32 4.58.44 3.07.22 4.6.29c1.54.07 3.08.12 4.62.13 1.54.02 3.08.01 4.62-.02 1.47-.03 2.94-.09 4.41-.17s2.94-.18 4.4-.31 2.92-.28 4.38-.45c1.45-.17 2.9-.37 4.35-.59 1.44-.22 2.88-.46 4.31-.72s2.85-.55 4.26-.85a106.178 106.178 0 0 0 2.44-2.78c.58-.68 1.15-1.35 1.7-2-.27.06-.54.12-.8.19z"/></g><path d="M64 4v2.69c4 0 12.34.52 16.13 1.4-.12.19-.23.39-.38.62-.34.53-.93 1.13-1.49 1.62a2.986 2.986 0 0 0-3.16 1.59l-.41.79c-.07.14-.14.29-.19.45-4.58 14.09 2.74 18.72 10.49 23.62 1.72 1.09 3.5 2.21 5.3 3.51 8.75 6.3 8.97 15.25 8.97 15.61 0 .1.01.19.01.29C101 73.62 84.08 97.59 73.81 109c-.32.36-.8.7-1.42 1.02-.98.5-1.61 1.49-1.64 2.58-.03 1.1.53 2.12 1.48 2.68 2.18 1.28 3.57 2.5 4.13 3.21-1.05.75-4.53 2.21-12.32 2.21-7.89 0-11.37-1.4-12.38-2.17.53-.7 1.93-1.94 4.14-3.25.94-.56 1.51-1.58 1.47-2.68s-.67-2.08-1.64-2.58c-.62-.32-1.1-.66-1.42-1.01-1.36-1.52-8.49-9.61-14.9-20.07-7.8-12.74-11.46-24.07-10.6-32.74.01-.09.01-.19.01-.28 0-.38.21-9.33 8.95-15.62 1.8-1.3 3.58-2.42 5.3-3.51 7.75-4.9 15.06-9.52 10.48-23.62a3.25 3.25 0 0 0-.18-.43l-.39-.77a3 3 0 0 0-3.11-1.61c-.56-.48-1.18-1.08-1.53-1.63-.15-.23-.27-.28-.39-.46C51.64 7.37 59.65 7 63.96 7h.08L64 3.69m.05.31h-.1c-1.21 0-16.99.13-19.8 2.58-.49.43.47 2.09 1.59 3.83s3.35 3.21 3.35 3.21.4-.13 1.14-.3l.39.76c4.73 14.56-4.48 16.42-14.68 23.76s-10.2 18.04-10.2 18.04C23.49 78.41 48.63 107.27 51.98 111c.61.68 1.41 1.23 2.3 1.68-1.36.8-5.47 3.4-5.78 5.69-.37 2.74 4.73 5.32 15.55 5.32 10.45 0 15.89-2.58 15.52-5.32-.31-2.28-4.45-4.88-5.81-5.69.88-.45 1.68-1 2.29-1.69 3.36-3.73 28.46-32.6 26.22-55.12 0 0-.02-10.7-10.22-18.04s-19.42-9.21-14.69-23.76l.41-.79c.79.17 1.23.29 1.23.29s2.18-1.51 3.3-3.25S84.39 7 83.9 6.57C81.08 4.13 65.26 4 64.05 4z" fill="#eee" opacity=".2"/></svg>