<svg viewBox="0 0 128 128" xmlns="http://www.w3.org/2000/svg"><linearGradient id="a" x1="5.731" x2="97.602" y1="93.106" y2="93.106" gradientTransform="translate(-1.083 -.012)" gradientUnits="userSpaceOnUse"><stop stop-color="#eee" offset="0"/><stop stop-color="#BDBDBD" offset="1"/></linearGradient><path d="M52.08 87.75c-2.63-1.77-6.18-3.49-9.76-2.71-9.89 2.14-37.49-9.76-37.49-9.76s-1.48 22.75 20.62 31.1c26.94 10.19 57.51 1.81 71.26-16.42.21-.26-27.75 9.18-44.63-2.21z" fill="url(#a)"/><radialGradient id="b" cx="31.966" cy="46.364" r="59.796" gradientTransform="matrix(.9896 -.00217 .00214 1.0031 -.033 -.14)" gradientUnits="userSpaceOnUse"><stop stop-color="#81D4FA" offset="0"/><stop stop-color="#1B99DE" offset="1"/></radialGradient><path d="M115.04 50.78c-5.5-1.2-6.93-1.47-9.24-.27-.96.5-2.07.04-2.48-.96-1.48-3.64-10.35-5.79-13.39-6.84-1.53-.53-2.49.68-2.4 2.29.07 1.3 2.99 8.46 6.06 10.87 12.33 9.64.86 28.36-15.91 22.36-12.33-4.41 2-27.97-11.67-33.69-11.08-4.63-43.54-16.22-52.29-5.02-6.4 8.2-8.86 35.64-8.86 35.64s13.91 9.3 37.42 10.61c.37.02-.04 4.62 2.66 10.37 9.52 20.29 28.98 20.58 27.33 18.11-11.08-16.59-13.21-23.2-13.07-23.12 7.78 3.89 33.38 5.14 37.49-1.16 9.03-13.85 4.64-27.23 10.43-27.96 6.59-.83 12.28-2.48 16.56-7.28 1.05-1.18.02-2.98-1.54-2.81-1.7.18-3.83-.43-7.1-1.14z" fill="url(#b)"/><path d="M38.46 67.91c.66 2.7-.96 5.43-3.62 6.1s-5.36-.97-6.02-3.67.96-5.43 3.62-6.1 5.36.97 6.02 3.67z" fill="#fff"/><path d="M34.9 66.84c1.25.71 1.69 2.31.99 3.57s-2.28 1.71-3.52 1.01-1.69-2.31-.99-3.57c.7-1.27 2.28-1.72 3.52-1.01z"/><path d="M12.37 82.76s.24.42.6 1.16c.17.38.42.82.68 1.3.25.49.55 1.03.89 1.62.32.59.72 1.21 1.11 1.87.38.66.89 1.3 1.31 2 .49.67.99 1.36 1.52 2.04.5.7 1.1 1.35 1.67 2.01.59.64 1.16 1.32 1.79 1.9.61.61 1.22 1.2 1.84 1.76.64.51 1.22 1.09 1.83 1.55s1.16.94 1.72 1.32c.54.41 1.05.77 1.52 1.08.46.31.86.61 1.21.82.68.44 1.08.73 1.08.73l-.06.17s-.44-.16-1.2-.44c-.39-.13-.84-.33-1.36-.56-.52-.22-1.1-.49-1.71-.83-.63-.31-1.27-.71-1.95-1.13-.68-.41-1.36-.93-2.06-1.44-.68-.55-1.39-1.11-2.05-1.75-.69-.6-1.31-1.3-1.96-1.97-.59-.72-1.2-1.43-1.72-2.18-.56-.73-1.01-1.51-1.49-2.24-.41-.77-.86-1.49-1.18-2.22-.35-.72-.66-1.41-.9-2.07-.27-.64-.47-1.25-.63-1.8-.18-.54-.32-1.01-.4-1.41-.19-.79-.3-1.24-.3-1.24l.2-.05zM19.88 84.1s.27.42.69 1.16c.2.38.48.82.77 1.31.29.5.62 1.04 1 1.64.36.6.8 1.23 1.23 1.89.42.67.96 1.32 1.43 2.04.52.69 1.07 1.39 1.63 2.09.54.72 1.17 1.38 1.77 2.07.62.67 1.22 1.36 1.88 1.97.64.64 1.27 1.25 1.91 1.84.66.54 1.26 1.14 1.88 1.63s1.19 1 1.76 1.41c.55.43 1.07.83 1.54 1.16.47.34.87.66 1.22.89.69.49 1.09.79 1.09.79l-.07.17s-.44-.19-1.22-.51c-.39-.15-.85-.37-1.38-.64-.53-.25-1.12-.55-1.74-.92-.64-.34-1.29-.77-1.98-1.22-.7-.44-1.38-.98-2.11-1.52-.69-.58-1.43-1.15-2.11-1.81-.71-.63-1.36-1.34-2.03-2.03-.62-.74-1.26-1.46-1.81-2.23-.59-.74-1.08-1.54-1.59-2.28-.45-.78-.93-1.51-1.3-2.25-.39-.73-.74-1.43-1.02-2.09-.31-.65-.54-1.27-.74-1.82-.21-.55-.39-1.03-.5-1.43-.25-.8-.39-1.26-.39-1.26l.19-.05zM28.72 87.8s.27.41.7 1.14c.2.38.48.8.78 1.28.29.48.64 1.01 1.03 1.58.37.58.82 1.17 1.28 1.8.44.64 1.01 1.24 1.5 1.92.55.64 1.13 1.29 1.73 1.93.58.67 1.24 1.26 1.88 1.88.66.6 1.3 1.23 2 1.75.68.56 1.36 1.09 2.04 1.59.71.45 1.35.97 2.02 1.37s1.28.82 1.89 1.15c.6.35 1.15.66 1.66.91.5.26.94.52 1.32.68.75.36 1.18.6 1.18.6l-.04.18s-.46-.11-1.27-.3c-.41-.08-.89-.23-1.44-.41-.56-.16-1.17-.37-1.83-.65-.67-.24-1.37-.58-2.1-.93-.74-.34-1.47-.8-2.25-1.24-.74-.49-1.53-.98-2.26-1.56-.76-.54-1.46-1.19-2.18-1.81-.67-.68-1.36-1.33-1.95-2.05-.64-.69-1.17-1.44-1.71-2.14-.49-.74-1-1.44-1.39-2.16-.41-.7-.79-1.38-1.08-2.03-.33-.63-.57-1.24-.78-1.78-.22-.54-.4-1.01-.52-1.4-.25-.79-.4-1.24-.4-1.24l.19-.06z" fill="#BDBDBD"/><path d="M122.17 51.92c-1.73.18-3.86-.43-7.13-1.14-5.5-1.2-6.93-1.47-9.24-.27-.96.5-2.07.04-2.48-.96-1.48-3.64-10.35-5.79-13.39-6.84-1.53-.53-2.49.68-2.4 2.29.07 1.3 2.99 8.46 6.06 10.87 12.33 9.64.86 28.36-15.91 22.36-12.33-4.41 2-27.97-11.67-33.69-11.08-4.63-43.54-16.22-52.29-5.02-6.4 8.2-8.91 35.77-8.91 35.77s-1.48 22.75 20.62 31.1c10.27 3.88 21.06 5.06 31.25 4.03 8.45 5.88 16.69 5.47 15.6 3.82-1.46-2.18-2.75-4.19-3.92-6.03 11.46-3.24 21.4-9.41 27.87-17.66.18-.19.34-.39.47-.59 9.03-13.85 4.64-27.23 10.43-27.96 6.59-.83 12.28-2.48 16.56-7.28 1.07-1.17.04-2.97-1.52-2.8z" fill="none" stroke="#3592CA" stroke-linecap="round" stroke-linejoin="round" stroke-miterlimit="10" stroke-width="3"/></svg>