<svg viewBox="0 0 128 128" xmlns="http://www.w3.org/2000/svg"><path d="M88.61 122.78a.25.25 0 0 1-.14-.04.258.258 0 0 1-.09-.35c.03-.06.18-.3.49-.71.48-.59 1.06-1.11 1.74-1.54.88-.57 2.01-1.06 3.29-1.41 1.17-.33 2.6-.61 4.5-.86.51-.07 1.03-.13 1.55-.2 1.21-.15 2.46-.3 3.72-.54 2.61-.49 4.12-1.31 4.6-2.5.29-.65.32-1.6.07-2.67-.22-.94-.68-1.78-1.37-2.5-1.17-1.22-3.01-2.12-5.49-2.67-1.82-.4-3.85-.61-6.4-.65h-.62c-1.79 0-3.65.09-5.68.27-3.5.32-7.14.87-11.1 1.67-3.4.69-6.08 1.39-7.73 1.85-.92.26-1.64.48-2.12.63l-.75.24c-.11.04-.21.05-.32.05a.99.99 0 0 1-.95-.69c-.08-.25-.06-.53.06-.76s.33-.41.58-.49l.79-.24c.51-.15 1.25-.36 2.19-.61 1.68-.44 4.41-1.11 7.89-1.76 4.05-.75 7.75-1.25 11.32-1.52 1.77-.13 3.4-.2 4.97-.2.5 0 1 .01 1.5.02 2.69.08 4.75.33 6.69.79 1.91.47 4.34 1.25 6.15 3.16.82.88 1.4 1.98 1.64 3.12.07.28.1.55.14.82.02.19.03.26.03.33l.12.16c.01.08.11.22.11.34v.12c0 .61-.27 1.22-.52 1.75-.57 1.22-1.77 1.88-2.62 2.22-1.02.41-2.05.61-2.98.76-1.33.21-2.59.32-3.79.43-.54.05-1.07.1-1.58.15-1.86.19-3.26.41-4.41.7-1.22.3-2.31.72-3.15 1.23-.64.38-1.18.83-1.64 1.37-.33.39-.47.62-.47.62-.04.06-.13.11-.22.11z" fill="#FFBDBD"/><path d="M93.63 105c.49 0 .98.03 1.47.05 2.65.08 4.69.34 6.59.79 1.85.45 4.19 1.21 5.9 3.03.75.8 1.3 1.85 1.53 2.92.06.23.09.48.12.74l.01.06c.01.11.02.16.02.22 0 .05-.13.11-.13.16 0 .09-.14.21-.14.33v.08c0 .56-.01 1.1-.23 1.56-.51 1.07-1.46 1.67-2.23 1.98-.92.37-1.76.56-2.8.73-.36.06-.7.1-1.04.15.35-.05.7-.11 1.06-.18 2.8-.52 4.43-1.44 4.96-2.77.45-.98.31-2.18.11-3.01a5.868 5.868 0 0 0-1.49-2.74c-1.24-1.3-3.17-2.24-5.74-2.81-1.85-.41-3.92-.62-6.5-.66h-.61c-1.81 0-3.69.09-5.74.28-3.52.32-7.17.87-11.16 1.68-3.42.7-6.11 1.4-7.76 1.86-.95.26-1.68.49-2.14.63l-.76.24c-.05.02-.1.02-.15.02a.51.51 0 0 1-.48-.35c-.08-.26.06-.54.33-.63l.77-.23c.67-.2 1.41-.4 2.18-.61 1.68-.44 4.4-1.11 7.85-1.75 4.03-.75 7.72-1.28 11.27-1.54 1.74-.14 3.36-.23 4.93-.23H94m-.37-.95c-1.71 0-3.39.08-5.02.2-4.2.32-8.08.92-11.38 1.53-3.3.62-6.02 1.27-7.92 1.77-.95.25-1.69.46-2.21.62l-.77.23-.02.01c-.79.25-1.22 1.1-.97 1.89.2.64.79 1.04 1.43 1.04.15 0 .31-.02.46-.07h.01s.26-.08.75-.24c.48-.15 1.19-.37 2.11-.62 1.83-.51 4.48-1.19 7.69-1.84s6.99-1.29 11.05-1.66c1.84-.17 3.73-.27 5.65-.27h.6c2.11.03 4.26.18 6.3.64 2.02.45 3.98 1.22 5.23 2.52.62.65 1.05 1.42 1.24 2.27.21.88.23 1.76-.04 2.37-.51 1.26-2.49 1.87-4.23 2.2-1.8.34-3.59.51-5.25.74-1.66.22-3.21.49-4.57.87s-2.53.89-3.42 1.47c-.9.57-1.5 1.2-1.86 1.66s-.51.73-.51.73l-.02.04c-.2.36-.08.81.27 1.02.12.08.26.11.4.11.26 0 .51-.13.65-.37 0 0 .13-.21.42-.56.3-.34.77-.82 1.52-1.27s1.76-.87 3.01-1.17c1.25-.31 2.71-.52 4.34-.69s3.43-.28 5.38-.59c.98-.16 2-.37 3.06-.79 1.03-.41 2.22-1.18 2.83-2.48.3-.63.44-1.31.46-1.96 0-.16.01-.37 0-.5-.01-.15 0-.22-.03-.44-.04-.31-.08-.61-.15-.92a7.113 7.113 0 0 0-1.77-3.36c-1.78-1.89-4.15-2.76-6.4-3.31-2.28-.54-4.56-.73-6.8-.8-.52-.01-1.02-.02-1.52-.02z" fill="#D9A0A0"/><path d="M46.43 123c-.68 0-1.38-.05-2.06-.1-.64-.05-1.25-.09-1.78-.09 0 0-1.04.02-1.24.02-1.17 0-1.8-.14-2.44-.98-.29-.38-.39-.84-.26-1.14.11-.26.45-.5.86-.59.2-.05.42-.07.68-.07.33 0 .65.03.98.07.56.06 1.11.14 1.66.23.05.01.1.01.16.01.38 0 .73-.21.9-.56.19-.39.11-.87-.21-1.17-2.48-2.33-4.92-5.05-5.83-6.33-2.4-3.34-3.25-5.98-2.66-8.29.83-3.26 3.48-4.42 5.69-4.42 2.31 0 5.42 1.33 6.57 5.08.79 2.57 1.27 5.29 1.64 7.62l.03.19c.24 1.48.48 3.02.55 4.5.02.44.06.9.11 1.37.1 1.04.21 2.11-.01 2.98-.21.87-.76 1.67-3.34 1.67z" fill="#A3A3A3"/><path d="M40.88 100.58c1.97 0 4.62 1.15 5.61 4.38.77 2.51 1.25 5.19 1.61 7.49l.03.19c.23 1.46.47 2.96.53 4.38.02.48.07.96.11 1.43.09.95.19 1.94.02 2.65-.08.34-.22.9-2.37.9-.64 0-1.32.05-1.98 0-.65-.05-1.27 0-1.85 0h-.11c-.18 0-.35-.09-.52-.09-.21 0-.41-.04-.61-.04-1.05 0-1.29-.15-1.64-.61-.03-.04-.06-.1-.08-.14.03-.01.07-.03.1-.04.12-.03.27-.05.45-.05.25 0 .52.02.86.06.48.06 1.01.13 1.62.22.11.02.21.02.31.02.75 0 1.46-.43 1.79-1.12.39-.79.21-1.74-.43-2.34-2.44-2.29-4.82-4.94-5.71-6.18-2.22-3.08-3.01-5.46-2.5-7.47.72-2.67 2.92-3.64 4.76-3.64m0-2c-2.95 0-5.79 1.73-6.66 5.17-.82 3.22.88 6.43 2.81 9.12.98 1.36 3.44 4.1 5.96 6.48-.57-.09-1.13-.17-1.7-.24-.36-.04-.73-.08-1.09-.08-.31 0-.61.03-.91.1-.65.15-1.28.55-1.55 1.17-.3.7-.08 1.54.38 2.14.92 1.23 1.98 1.48 3.24 1.48.37 0 .75.08 1.15.08h.09c1.08 0 2.49.1 3.84.1 1.98 0 3.83-.46 4.32-2.48.36-1.46-.01-3.18-.08-4.66-.07-1.6-.34-3.23-.59-4.82-.41-2.6-.9-5.24-1.67-7.77-1.2-3.86-4.43-5.79-7.54-5.79z" fill="#7D7D7D"/><path d="M76.47 123c-2.58 0-3.13-.8-3.34-1.66-.21-.88-.11-1.95 0-2.98.05-.47.09-.93.11-1.37.07-1.48.31-3.02.55-4.5l.03-.19c.37-2.33.86-5.06 1.64-7.62 1.15-3.75 4.26-5.08 6.57-5.08 2.21 0 4.87 1.16 5.7 4.42.59 2.32-.25 4.95-2.66 8.29-.92 1.28-3.36 4-5.83 6.33-.32.3-.41.77-.21 1.17.17.35.52.56.9.56.05 0 .1 0 .16-.01.55-.09 1.11-.17 1.66-.23.33-.04.65-.07.98-.07.26 0 .48.02.68.07.41.1.74.33.86.59.13.3.03.76-.26 1.14-.63.84-1.26.98-2.44.98-.2 0-1.24-.02-1.24-.02-.53 0-1.14.04-1.78.09-.7.04-1.4.09-2.08.09z" fill="#A3A3A3"/><path d="M82.02 100.58c1.83 0 4.04.96 4.73 3.66.51 2.01-.28 4.38-2.5 7.47-.89 1.24-3.27 3.89-5.71 6.18-.64.6-.81 1.55-.43 2.34.34.69 1.04 1.12 1.79 1.12.1 0 .21-.01.31-.02.61-.1 1.14-.17 1.62-.23.34-.04.61-.06.86-.06.18 0 .33.01.45.04.04.01.07.02.1.03-.02.04-.04.08-.07.13-.35.46-.59.59-1.64.59-.2 0-.4.09-.61.09-.17 0-.34.09-.52.09h-.11c-.58 0-1.2-.05-1.85 0-.66.05-1.34.05-1.98.05-2.15 0-2.29-.59-2.37-.92-.17-.71-.08-1.71.02-2.66.05-.47.09-.95.11-1.43.06-1.42.3-2.93.53-4.39l.03-.2c.37-2.3.84-4.98 1.61-7.49 1.01-3.24 3.66-4.39 5.63-4.39m0-2c-3.11 0-6.34 1.92-7.53 5.79-.77 2.52-1.26 5.16-1.67 7.76-.25 1.58-.52 3.2-.59 4.8-.07 1.48-.43 3.17-.08 4.64.49 2.02 2.34 2.52 4.32 2.52 1.35 0 2.76-.1 3.84-.1h.09c.4 0 .78-.08 1.15-.08 1.26 0 2.31-.2 3.24-1.43.46-.61.68-1.47.38-2.17-.27-.61-.9-1.03-1.55-1.18-.3-.07-.6-.1-.91-.1-.36 0-.73.03-1.09.07-.57.07-1.14.15-1.7.24 2.52-2.37 4.98-5.11 5.96-6.48 1.94-2.7 3.63-5.91 2.81-9.13-.88-3.42-3.72-5.15-6.67-5.15z" fill="#7D7D7D"/><linearGradient id="a" x1="61.45" x2="61.45" y1="121.05" y2="65.955" gradientUnits="userSpaceOnUse"><stop stop-color="#B3B3B3" offset=".11"/><stop stop-color="#CACACA" offset=".223"/><stop stop-color="#E7E7E7" offset=".392"/><stop stop-color="#F2F2F2" offset=".489"/></linearGradient><path d="M61.45 121.05c-11.8 0-18.85-7.27-18.85-19.45 0-11.83 14.61-30.49 18.85-35.64 4.23 5.16 18.85 23.82 18.85 35.64 0 12.18-7.05 19.45-18.85 19.45z" fill="url(#a)"/><path d="M61.45 68.31c6.34 7.9 17.35 23.62 17.35 33.29 0 11.41-6.32 17.95-17.35 17.95S44.1 113 44.1 101.6c0-9.65 11.01-25.38 17.35-33.29m0-4.69S41.1 87.12 41.1 101.6s9.11 20.95 20.35 20.95 20.35-6.47 20.35-20.95-20.35-37.98-20.35-37.98z" fill="#A3A3A3"/><path d="M45.86 95.86c1.05 2.36 2.81 4.37 5.13 5.52 2.49 1.23 5.47 1.39 8 .33.7-.29 1.43-.78 1.53-1.57.09-.7-.39-1.39-.98-1.74-.96-.55-2.09-.4-3.06-.96-1.41-.82-1.88-2.72-1.93-4.41-.08-2.54-.12-4.5-1.39-6.77-.78-1.39-2.23-2.33-3.75-2.41-1.72-.09-2.92.73-3.64 2.29-1.4 3.06-1.25 6.68.09 9.72zM77.44 95.86c-1.06 2.36-2.85 4.37-5.21 5.5-2.54 1.22-5.58 1.37-8.16.29-.71-.3-1.46-.79-1.57-1.58-.1-.7.39-1.39 1-1.73.97-.55 2.13-.39 3.12-.95 1.44-.82 1.9-2.72 1.95-4.4.07-2.55.1-4.51 1.39-6.77.79-1.39 2.26-2.32 3.82-2.39 1.76-.08 2.98.74 3.72 2.31 1.44 3.06 1.3 6.68-.06 9.72z" fill="#A3A3A3"/><linearGradient id="b" x1="35.178" x2="35.178" y1="10.722" y2="46.03" gradientUnits="userSpaceOnUse"><stop stop-color="#F2F2F2" offset=".511"/><stop stop-color="#E7E7E7" offset=".608"/><stop stop-color="#CACACA" offset=".777"/><stop stop-color="#B3B3B3" offset=".89"/></linearGradient><path d="M35.18 42.36c-9.07 0-16.46-7.38-16.46-16.46S26.1 9.44 35.18 9.44s16.46 7.38 16.46 16.46-7.39 16.46-16.46 16.46z" fill="url(#b)"/><path d="M35.18 10.44c8.52 0 15.46 6.93 15.46 15.46S43.7 41.36 35.18 41.36 19.72 34.42 19.72 25.9s6.93-15.46 15.46-15.46m0-2c-9.64 0-17.46 7.82-17.46 17.46s7.82 17.46 17.46 17.46 17.46-7.82 17.46-17.46S44.82 8.44 35.18 8.44z" fill="#A3A3A3"/><circle cx="35.18" cy="25.9" r="10.09" fill="#FFBDBD"/><linearGradient id="c" x1="87.817" x2="87.817" y1="10.722" y2="46.03" gradientUnits="userSpaceOnUse"><stop stop-color="#F2F2F2" offset=".511"/><stop stop-color="#E7E7E7" offset=".608"/><stop stop-color="#CACACA" offset=".777"/><stop stop-color="#B3B3B3" offset=".89"/></linearGradient><path d="M87.82 42.36c-9.07 0-16.46-7.38-16.46-16.46S78.74 9.44 87.82 9.44s16.46 7.38 16.46 16.46-7.39 16.46-16.46 16.46z" fill="url(#c)"/><path d="M87.82 10.44c8.52 0 15.46 6.93 15.46 15.46s-6.93 15.46-15.46 15.46-15.46-6.94-15.46-15.46 6.93-15.46 15.46-15.46m0-2c-9.64 0-17.46 7.82-17.46 17.46s7.82 17.46 17.46 17.46 17.46-7.82 17.46-17.46S97.46 8.44 87.82 8.44z" fill="#A3A3A3"/><circle cx="87.82" cy="25.9" r="10.09" fill="#FFBDBD"/><linearGradient id="d" x1="61.499" x2="61.499" y1="89.106" y2="22.515" gradientUnits="userSpaceOnUse"><stop stop-color="#B3B3B3" offset=".11"/><stop stop-color="#CACACA" offset=".223"/><stop stop-color="#E7E7E7" offset=".392"/><stop stop-color="#F2F2F2" offset=".489"/></linearGradient><path d="M61.5 89.11c-5.49 0-14.65-2.41-22.72-7.8-8.71-5.81-13.51-13.42-13.51-21.42 0-17.97 13.85-37.37 36.23-37.37s36.23 19.4 36.23 37.37c0 8-4.8 15.61-13.51 21.42-8.07 5.39-17.23 7.8-22.72 7.8z" fill="url(#d)"/><path d="M61.5 23.52c9.94 0 19.04 4.04 25.63 11.38 6.1 6.8 9.6 15.91 9.6 25 0 17.23-23.14 28.22-35.23 28.22s-35.23-11-35.23-28.23c0-9.09 3.5-18.2 9.6-25 6.58-7.33 15.69-11.37 25.63-11.37m0-2c-22.67 0-37.23 19.32-37.23 38.37s24.8 30.22 37.23 30.22 37.23-11.17 37.23-30.22S84.17 21.52 61.5 21.52z" fill="#A3A3A3"/><path d="M65.16 71.4l-3.19-3.16c-.5-.46-1.13-.46-1.63 0l-3.69 3.16c-.28.25-.65.6-.65.98v-.05c0 2.57 2.66 5.68 5.22 5.68h.3c2.57 0 3.47-3.11 3.47-5.68v.03c.01-.38.44-.71.17-.96z" fill="#fff"/><g fill="#404040"><ellipse cx="41.02" cy="49.91" rx="6.12" ry="6.92"/><ellipse cx="81.97" cy="49.91" rx="6.12" ry="6.92"/></g><g fill="none" stroke="gray" stroke-linecap="round" stroke-linejoin="round" stroke-miterlimit="10" stroke-width="2.189"><path d="M61.04 65.3c0 3.1-2.52 5.62-5.62 5.62S49.8 68.4 49.8 65.3M72.63 65.3c0 3.1-2.52 5.62-5.62 5.62S61.4 68.4 61.4 65.3"/></g><linearGradient id="e" x1="61.499" x2="61.499" y1="56.312" y2="66.528" gradientUnits="userSpaceOnUse"><stop stop-color="#575757" offset=".163"/><stop stop-color="#262626" offset=".645"/><stop offset="1"/></linearGradient><ellipse cx="61.5" cy="61.11" rx="7.75" ry="4.84" fill="url(#e)"/><g fill="none" stroke="#404040" stroke-linecap="round" stroke-linejoin="round" stroke-miterlimit="10"><path stroke-width="2.189" d="M29.52 80.87l9.6-8.89M37.96 68.03l-11.91 4.75"/><path stroke-width="2" d="M23 65h14"/><path stroke-width="2.189" d="M93.6 80.87l-9.61-8.89M85.16 68.03l11.91 4.75"/><path stroke-width="2" d="M99 65H87"/></g></svg>