<svg viewBox="0 0 128 128" xmlns="http://www.w3.org/2000/svg"><linearGradient id="a" x1="36.245" x2="36.245" y1="89.81" y2="119.69" gradientUnits="userSpaceOnUse"><stop stop-color="#754C24" offset=".002"/><stop stop-color="#855C32" offset=".068"/><stop stop-color="#A87F52" offset=".236"/><stop stop-color="#BE9466" offset=".373"/><stop stop-color="#C69C6D" offset=".462"/></linearGradient><path d="M33.24 116.11c-.46-4-2.31-20.04-3.01-27.64 1.82 1.61 4.69 3.61 7.72 3.61.66 0 1.31-.1 1.93-.29 0 0 .06-.02.2-.02.81 0 1.91.46 2.18.76-.78 6.39-1.94 19.78-2.25 23.34l-6.77.24z" fill="url(#a)"/><path d="M31.45 90.72c1.81 1.26 4.08 2.36 6.5 2.36.73 0 1.45-.1 2.13-.3.32 0 .78.13 1.1.27-.73 6.14-1.72 17.5-2.1 21.86l-4.97.18c-.52-4.62-1.91-16.81-2.66-24.37m-2.44-4.9c.4 6.17 3.34 31.31 3.34 31.31l8.58-.3s1.42-16.93 2.33-24.31c.12-.95-1.97-1.76-3.18-1.76-.19 0-.36.02-.5.06-.54.17-1.09.24-1.63.24-4.56.01-8.94-5.24-8.94-5.24z" fill="#8C6239"/><linearGradient id="b" x1="98.029" x2="98.029" y1="89.868" y2="119.74" gradientUnits="userSpaceOnUse"><stop stop-color="#754C24" offset=".002"/><stop stop-color="#855C32" offset=".068"/><stop stop-color="#A87F52" offset=".236"/><stop stop-color="#BE9466" offset=".373"/><stop stop-color="#C69C6D" offset=".462"/></linearGradient><path d="M96.63 116.16c-.71-3.9-3.62-19.99-4.58-27.63 1.83 1.6 4.66 3.55 7.65 3.55.66 0 1.31-.1 1.93-.29 0 0 .06-.02.2-.02.81 0 1.91.46 2.18.76-.78 6.4-1.95 19.82-2.25 23.35l-5.13.28z" fill="url(#b)"/><path d="M93.37 90.83c1.78 1.21 3.99 2.24 6.33 2.24.73 0 1.45-.1 2.13-.3.32 0 .78.13 1.1.27-.73 6.16-1.73 17.56-2.1 21.89l-3.38.18c-.81-4.49-2.99-16.68-4.08-24.28m-2.61-5.01c.4 6.17 5.05 31.38 5.05 31.38l6.88-.38s1.42-16.93 2.33-24.31c.12-.95-1.97-1.76-3.18-1.76-.19 0-.36.02-.5.06-.54.17-1.09.24-1.63.24-4.57.02-8.95-5.23-8.95-5.23z" fill="#8C6239"/><linearGradient id="c" x1="69.813" x2="69.813" y1="38.893" y2="115.82" gradientUnits="userSpaceOnUse"><stop stop-color="#C69C6D" offset=".538"/><stop stop-color="#BE9466" offset=".626"/><stop stop-color="#A87F52" offset=".764"/><stop stop-color="#855C32" offset=".932"/><stop stop-color="#754C24" offset=".998"/></linearGradient><path d="M108.1 51.17c-11.33-6.5-65.67-6-65.67-6s-20.45 6.62-18.5 22.92c2.2 18.49 4.94 24.77 12.48 28.43.56 10.98 3.03 21.16 3.03 21.16s7.87.63 8-.17c.45-2.79 2.17-13.33 4-22.67 8.87 1.16 19.73 3.31 44-1 5 10.33 5.5 23.5 5.5 23.5s6.07.05 6.12.12a345.63 345.63 0 0 0 3.71-17.29c1.65-8.82 3.13-11.26 3.83-20.17.5-6.33 4.83-22.33-6.5-28.83z" fill="url(#c)" stroke="#8C6239" stroke-linejoin="round" stroke-miterlimit="10" stroke-width="2"/><path d="M43.77 123.72c0-4.37-3.48-7.91-7.76-7.91-4.29 0-7.76 3.54-7.76 7.91 0 .09.01.18.01.28h6.64c.67-1.04.66-2.17 1.03-3.17 0 .77.59 2.12 1.32 3.17h6.5c.01-.09.02-.18.02-.28z" fill="#754C24" stroke="#42210B" stroke-linejoin="round" stroke-miterlimit="10" stroke-width="2"/><path d="M50.89 123.72c0-4.37-3.48-7.91-7.76-7.91-4.29 0-7.76 3.54-7.76 7.91 0 .09.01.18.01.28h6.64c.67-1.04.66-2.17 1.03-3.17 0 .77.59 2.12 1.32 3.17h6.5c.01-.09.02-.18.02-.28zM103.89 123.72c0-4.37-3.48-7.91-7.76-7.91-4.29 0-7.76 3.54-7.76 7.91 0 .09.01.18.01.28h6.64c.67-1.04.66-2.17 1.03-3.17 0 .77.59 2.12 1.32 3.17h6.5c.01-.09.02-.18.02-.28z" fill="#754C24" stroke="#42210B" stroke-linejoin="round" stroke-miterlimit="10" stroke-width="2"/><path d="M111.64 123.72c0-4.37-3.48-7.91-7.76-7.91-4.29 0-7.76 3.54-7.76 7.91 0 .09.01.18.01.28h6.64c.67-1.04.66-2.17 1.03-3.17 0 .77.59 2.12 1.32 3.17h6.5c.01-.09.02-.18.02-.28z" fill="#754C24" stroke="#42210B" stroke-linejoin="round" stroke-miterlimit="10" stroke-width="2"/><linearGradient id="d" x1="94.855" x2="94.855" y1="85.741" y2="96.405" gradientUnits="userSpaceOnUse"><stop stop-color="#C69C6D" offset=".538"/><stop stop-color="#BE9466" offset=".626"/><stop stop-color="#A87F52" offset=".764"/><stop stop-color="#855C32" offset=".932"/><stop stop-color="#754C24" offset=".998"/></linearGradient><path d="M92.87 86.61c1.33 3.36 2.65 6.72 3.98 10.08" fill="url(#d)" stroke="#8C6239" stroke-linecap="round" stroke-linejoin="round" stroke-miterlimit="10" stroke-width="2"/><path d="M19.7 39.93s-2.72-2.85-8.37-.56-5.62 6.23-5.62 6.23 2.72 2.85 8.37.56c5.65-2.28 5.62-6.23 5.62-6.23zM56.71 39.93s2.72-2.85 8.37-.56 5.62 6.23 5.62 6.23-2.72 2.85-8.37.56c-5.65-2.28-5.62-6.23-5.62-6.23z" fill="#BCAAA4" stroke="#8C6239" stroke-linejoin="round" stroke-miterlimit="10" stroke-width="2"/><g stroke="gray" stroke-linejoin="round" stroke-miterlimit="10" stroke-width="2"><linearGradient id="e" x1=".729" x2="22.092" y1="10.429" y2="33.282" gradientUnits="userSpaceOnUse"><stop stop-color="#B3B3B3" offset=".36"/><stop stop-color="#A9A9A9" offset=".541"/><stop stop-color="#909090" offset=".845"/><stop stop-color="gray" offset=".999"/></linearGradient><path d="M13.18 18.33c-3.62-4.38-2-9.25-2-9.25S-.24 20.54 7.41 30.07c3.36 4.18 14.52 8.39 14.54 9.1.01.71 7.11-10.59 7.11-10.59S17.5 23.54 13.18 18.33z" fill="url(#e)"/><linearGradient id="f" x1="1472.9" x2="1494.2" y1="10.429" y2="33.282" gradientTransform="matrix(-1 0 0 1 1548 0)" gradientUnits="userSpaceOnUse"><stop stop-color="#B3B3B3" offset=".36"/><stop stop-color="#A9A9A9" offset=".541"/><stop stop-color="#909090" offset=".845"/><stop stop-color="gray" offset=".999"/></linearGradient><path d="M62.65 18.33c3.62-4.38 2-9.25 2-9.25s11.42 11.46 3.77 20.99c-3.36 4.18-14.52 8.39-14.54 9.1-.01.71-7.11-10.59-7.11-10.59s11.56-5.04 15.88-10.25z" fill="url(#f)"/></g><linearGradient id="g" x1="37.528" x2="37.528" y1="74.084" y2="-16.608" gradientUnits="userSpaceOnUse"><stop stop-color="#754C24" offset=".002"/><stop stop-color="#855C32" offset=".068"/><stop stop-color="#A87F52" offset=".236"/><stop stop-color="#BE9466" offset=".373"/><stop stop-color="#C69C6D" offset=".462"/></linearGradient><path d="M26.55 68.13c-3.8 0-7.04-2.73-7.87-6.63l-3.64-17.07c-.16-.76-.22-1.43-.19-2.05.57-11.6 9.69-20.69 20.77-20.69h3.85c10.77 0 19.87 8.82 20.73 20.07.07.96-.02 1.94-.27 2.91L55.4 61.9c-.96 3.67-4.16 6.23-7.78 6.23H26.55z" fill="url(#g)"/><path d="M39.47 22.68c10.25 0 18.91 8.41 19.73 19.15.06.85-.02 1.72-.24 2.58l-4.52 17.24c-.85 3.23-3.65 5.49-6.81 5.49H26.55c-3.32 0-6.16-2.4-6.89-5.84l-3.64-17.07c-.14-.67-.2-1.26-.17-1.8.54-11.07 9.22-19.74 19.77-19.74h3.85m0-2.01h-3.85c-11.61 0-21.18 9.63-21.77 21.64-.04.78.05 1.55.22 2.31l3.64 17.07c.93 4.34 4.6 7.42 8.85 7.42h21.07c4.08 0 7.66-2.86 8.74-6.98l4.52-17.24c.28-1.05.39-2.15.3-3.24-.89-11.69-10.32-20.98-21.72-20.98z" fill="#8C6239"/><defs><path id="h" d="M40 21h-3.99c-11.99 0-21.79 10.16-21.79 22.15L15.84 68h44.19l1.7-24.85"/></defs><g fill="#404040"><ellipse cx="24.13" cy="46.7" rx="4.44" ry="5.03"/><ellipse cx="51.74" cy="46.7" rx="4.44" ry="5.03"/></g><linearGradient id="i" x1="37.5" x2="37.5" y1="84.054" y2="32.154" gradientUnits="userSpaceOnUse"><stop stop-color="#B3817F" offset=".003"/><stop stop-color="#CF9F93" offset=".115"/><stop stop-color="#E9BBA6" offset=".247"/><stop stop-color="#F9CCB2" offset=".362"/><stop stop-color="#FFD2B6" offset=".447"/></linearGradient><path d="M55 67.25c0-5.11-4.14-9.25-9.25-9.25h-16.5C24.14 58 20 62.14 20 67.25v.5c0 5.11 4.14 9.25 9.25 9.25h16.5c5.11 0 9.25-4.14 9.25-9.25v-.5z" fill="url(#i)" stroke="#754C24" stroke-linejoin="round" stroke-miterlimit="10" stroke-width="2"/><g fill="#42210B"><ellipse cx="30.23" cy="67.38" rx="3.27" ry="4.01"/><ellipse cx="44.23" cy="67.38" rx="3.27" ry="4.01"/></g><path d="M114.43 62.96c5.38-.62 9.37 6.27 8.73 11.19-.34 2.65-1.72 5.04-3.02 7.38s-2.59 4.8-2.72 7.48c-.13 2.67 1.22 5.61 3.76 6.46" fill="none" stroke="#8C6239" stroke-linejoin="round" stroke-miterlimit="10" stroke-width="2"/><path d="M121.03 103.05c-.28-2.81-3.27-1.22-4.3-5.05-.62-2.29.25-4.7 2.62-4.58 7.29.37 1.92 11.99 1.68 9.63z" fill="#42210B"/><path d="M36.43 97.17c-.35-3.65-.41-6.53-.68-8.85M50.85 98.09c.43-3.29.85-6.58 1.28-9.87" fill="none" stroke="#8C6239" stroke-linecap="round" stroke-linejoin="round" stroke-miterlimit="10" stroke-width="2"/></svg>