<svg viewBox="0 0 128 128" xmlns="http://www.w3.org/2000/svg"><path d="M113.58 35.32c.25-.37 0-.89-.4-.8l-3.72.77c-.38.08-.64-.39-.42-.76l2.86-4.95c.26-.45-.18-.98-.58-.69l-4 2.85c-.33.24-.73-.08-.65-.51l.6-3.06c.09-.48-.4-.79-.72-.45-.99 1.03-1.74 1.82-2.83 3.22-.23.29-.64.21-.74-.15-.13-.5-.28-.84-.41-1.28-.13-.4-.62-.42-.8-.03-.66 1.43-1.27 2.38-1.93 3.83-.18.39-.66.37-.79-.02-.11-.31-.22-.61-.32-.92-.15-.43-.71-.38-.83.08-.46 1.75-.89 3.2-1.35 4.96-.12.44-.63.52-.81.13-.21-.44-.43-.88-.64-1.32-.19-.4-.71-.3-.81.15-.31 1.4-.72 3.68-.66 6.17.04 1.45.53 3.07 1.28 4.24.22.35.47.67.72.97-.46 2-.61 4.06-.34 5.97.58 4.09 2.31 7.93 4.4 11.46 2.05 3.46 4.81 7.72 1.25 11.34-4.26 4.34-9.74 1.07-13.98-.53-6.58-2.49-14.84.95-19.26 6.28-4.14 4.99-2.71 11.27-2.59 14.02.08 1.75-.44 3.61-1.76 4.72-1.17.99-2.81 1.24-4.31.96-7.67-1.43-10.45-10.79-7.84-17.6 2.53-6.6 8.51-8.63 14.6-10.27 1.15-.31 2.33-.65 3.53-1.06 2.39-.83 4.86-1.86 7.33-3.37 2.45-1.51 4.99-3.55 6.99-6.49.25-.36.49-.73.71-1.13.23-.39.44-.78.63-1.19l.29-.62c.09-.19.2-.49.3-.73.19-.49.41-1.13.45-1.29l.12-.4.14-.48.06-.34c.1-.46.21-.9.27-1.38.14-.94.21-1.91.2-2.88-.03-1.95-.41-3.88-1.03-5.59-.62-1.72-1.44-3.22-2.35-4.53-1.83-2.61-3.9-4.52-5.94-6.14-1.03-.8-2.07-1.53-3.07-2.19l-2.64-1.69-.27-.17c-2.73-1.74-6.35-1.07-8.32 1.63-2.08 2.86-1.52 6.91 1.26 9.06.39.3.72.55 1.03.78.64.48 1.18.86 1.71 1.28.78.6 1.5 1.19 2.16 1.78 1.33 1.17 2.42 2.4 3.06 3.47.32.54.53 1.01.64 1.4s.13.69.11.97c-.01.14-.04.29-.07.45 0 .04-.02.09-.04.14l.02-.05c.08-.26-.08.29-.07.23l.01-.07c.01-.04.02-.08.04-.12l-.03.1-.13.4c-.11.38-.12.25-.13.28-.01.01.01-.02-.02.04l-.08.13c-.04.09-.1.18-.16.26-.05.09-.12.18-.19.27-.52.72-1.45 1.52-2.74 2.25-1.28.73-9.7 3.4-13.31 5.1-8.77 4.13-14.07 8.25-16.97 13.37-.11.2-.21.41-.32.61h-.04c-1.47.04-3.17.02-4.35-.34-.29-.09-.55-.19-.78-.33l-.13-.08c.02-.05.03-.09.05-.14.14-.36.36-.78.6-1.21.49-.87 1.08-1.76 1.65-2.74.29-.5.57-1 .83-1.63.13-.31.25-.66.32-1.11.01-.04.01-.06.01-.09.41-.49.82-1.01 1.21-1.54.37-.5.7-.96 1.05-1.52l.22-.37.24-.45c.17-.3.27-.59.39-.88.44-1.18.54-2.42.37-3.43s-.53-1.77-.81-2.26c-.29-.49-.49-.75-.49-.75l-.02-.02a.788.788 0 0 0-1.03-.18c-.36.23-.47.71-.24 1.07 0 0 .14.22.33.63.18.41.39 1.01.44 1.73.05.73-.1 1.56-.5 2.4-.11.2-.21.43-.34.61l-.18.29-.26.34c-.11.14-.23.29-.36.44-.08-.98-.24-1.91-.5-2.77-.27-.86-.65-1.64-1.13-2.25a5.15 5.15 0 0 0-1.49-1.31c-.48-.27-.88-.39-1.15-.47-.27-.06-.42-.1-.42-.1a.568.568 0 0 0-.65.33c-.12.29.01.62.3.74l.05.02s.11.05.32.13c.2.1.49.24.79.5.62.48 1.23 1.45 1.4 2.86.16 1.24.02 2.76-.29 4.39-.6-1.14-1.65-2.44-3-3.34-.37-.25-.66-.4-.98-.59s-.65-.37-.97-.54c-.66-.34-1.34-.62-1.97-.73-.62-.12-1.15-.09-1.5-.04s-.54.1-.54.1h-.01c-.18.05-.31.21-.3.41 0 .23.19.41.42.4 0 0 .17 0 .46.03s.69.1 1.12.3c.43.19.9.52 1.38.94.24.21.49.45.75.69.25.24.55.52.76.73.88.92 1.43 2.07 1.65 2.94.09.36.15.69.17.91-.06.04-.13.07-.19.11 0 0-.2.15-.56.41-.35.26-.89.66-1.52 1.16-.32.26-.67.55-1.06.95l-.3.33c-.1.13-.21.28-.31.43-.2.32-.38.74-.44 1.13-.12.79-.02 1.25-.01 1.72.03.44.03.96.01 1.32.02.09-.15.49-.39.76-.24.29-.56.57-.89.8-.67.46-1.41.75-2.04.86-.64.11-1.16.04-1.5-.07s-.51-.23-.51-.23a.547.547 0 0 0-.7.07c-.21.22-.2.56.02.77l.03.03s.22.21.69.45c.47.25 1.21.45 2.08.42a6.81 6.81 0 0 0 2.83-.72c.49-.24.97-.54 1.43-.95.35-.33.69-.68.95-1.22.01.01.01.03.02.04l.11.24.4.67c.11.16.22.33.34.48.48.62 1.05 1.14 1.62 1.56 1.15.84 2.3 1.33 3.33 1.72.43.16.84.29 1.24.41-.12.47-.26.93-.35 1.4-.09.37-.14.75-.21 1.13l-.05.28-.05.38-.06.41-.03.21-.03.33-.06.67-.03.33-.02.29-.03.58c-.06 1.55.02 3.09.22 4.6.42 3.09 1.31 6.07 2.65 8.84-.03.71-.11 1.39-.28 1.95-.07.25-.16.45-.27.64-.02.05-.05.08-.08.11-.03-.01-.05-.02-.08-.03-.29-.11-.63-.29-.98-.49-.7-.4-1.43-.89-2.22-1.37-.4-.24-.82-.48-1.32-.69a4.25 4.25 0 0 0-.89-.28c-.04-.01-.07-.01-.1-.01-.4-.34-.81-.67-1.24-1-.4-.3-.78-.58-1.23-.87l-.3-.18-.36-.2c-.24-.14-.48-.22-.72-.33-.96-.37-1.97-.46-2.79-.32-.82.13-1.45.42-1.85.65s-.61.39-.61.39l-.02.02c-.25.2-.32.56-.15.84.19.3.58.39.88.2 0 0 .18-.11.51-.26s.82-.32 1.41-.35c.59-.04 1.27.09 1.95.42.16.09.35.18.49.28l.23.15.28.21c.11.09.23.2.36.3-.8.06-1.56.18-2.26.4-.71.22-1.34.53-1.84.92-.5.38-.85.83-1.07 1.22s-.32.72-.39.94c-.05.22-.08.34-.08.34-.05.22.06.44.27.53.24.1.51-.01.61-.24l.02-.04s.04-.09.11-.26c.08-.16.2-.4.41-.64.39-.51 1.18-1 2.34-1.13 1.01-.13 2.25 0 3.57.26-.94.49-2.01 1.35-2.75 2.45-.2.3-.32.53-.48.8-.15.26-.3.53-.45.79-.28.54-.51 1.1-.6 1.61-.1.51-.08.94-.04 1.22.04.29.08.44.08.44v.01c.04.15.17.25.33.25.19 0 .33-.15.33-.34 0 0 0-.14.02-.38s.09-.56.25-.92c.16-.35.42-.73.77-1.13.18-.2.37-.4.57-.61.2-.2.43-.45.6-.62.75-.72 1.69-1.16 2.4-1.34.29-.07.57-.12.74-.14.02.03.02.07.05.11l.03.05s.45.66 1.27 1.71c.21.26.45.55.77.87.17.16.36.33.61.5.26.17.6.31.92.37.64.1 1.02.02 1.41.01.36-.02.79-.02 1.08 0 .06-.02.39.13.61.33.24.2.46.46.64.74.37.55.6 1.16.68 1.68s.03.95-.07 1.22c-.09.28-.19.41-.19.41-.12.18-.1.42.06.57.18.17.46.16.63-.01l.03-.03s.17-.18.37-.56.37-.99.36-1.7-.18-1.52-.57-2.31c-.19-.4-.43-.8-.76-1.17-.27-.29-.55-.58-1.01-.8.55-.23.96-.58 1.22-.75a6 6 0 0 0 .73-.69c.64.84 1.3 1.66 2.04 2.43 2.1 2.19 4.64 4.06 7.51 5.35.35.17.72.31 1.08.46l.27.11.14.05.29.1.39.13c.08.03.4.12.63.19.24.07.5.14.72.19.4.09.81.18 1.2.25 1.59.27 3.13.37 4.71.31.6-.03 1.21-.09 1.83-.17-.49.49-.86 1.05-1.08 1.59-.3.73-.38 1.38-.4 1.82-.01.44.01.69.01.69v.03c.03.3.29.54.6.54.33 0 .6-.27.6-.61 0 0 0-.2.04-.54.05-.34.16-.82.42-1.32.27-.49.71-.98 1.31-1.36.16-.08.32-.19.47-.25.14-.07.33-.15.55-.23.13-.05.28-.09.42-.14-.35.68-.63 1.35-.81 2.03s-.24 1.35-.18 1.95.24 1.1.45 1.47c.2.38.42.62.57.78l.24.24c.15.15.39.17.56.05.2-.14.25-.41.11-.61l-.02-.04s-.05-.08-.15-.22c-.09-.15-.22-.36-.32-.65-.21-.57-.22-1.45.25-2.45.4-.88 1.12-1.82 1.99-2.75-.07 1 .08 2.3.61 3.44.14.31.27.53.4.79.13.25.27.51.42.76.29.49.63.95 1 1.28.36.33.72.53.97.64s.4.16.4.16h.01c.14.04.29-.01.37-.14.09-.15.04-.35-.11-.44 0 0-.11-.07-.29-.21s-.41-.35-.61-.66c-.21-.31-.38-.71-.53-1.18-.07-.25-.14-.5-.21-.76s-.15-.57-.2-.79c-.21-.97-.1-1.95.12-2.61.09-.28.18-.51.26-.66.04 0 .07.01.11.01h.05s.76-.04 2.01-.17c.32-.04.67-.09 1.09-.18.21-.05.45-.12.71-.25.27-.13.55-.33.76-.56.4-.47.53-.82.71-1.13.16-.3.38-.64.54-.87.01-.06.3-.25.57-.33.28-.09.6-.14.92-.15.63-.03 1.24.1 1.7.29s.78.45.95.67c.18.21.24.36.24.36.08.19.29.29.49.24.22-.06.36-.29.3-.51l-.01-.03s-.06-.23-.27-.58-.61-.79-1.19-1.13-1.32-.61-2.15-.7c-.42-.05-.86-.05-1.33.03-.37.08-.74.16-1.15.42.09-.56.01-1.06 0-1.35-.07-.54-.21-1.06-.39-1.53.63-1.13 1.24-2.63 1.68-4.72 1.01-4.76-.33-9.77.21-11.62 1.85-6.42 7.54-5.52 8.7-4.99 2.14.96 4.6 1.53 7.14 1.67.51.31 1.1.67 1.77 1.08.97.61 2.05 1.35 2.67 2.09.16.19.27.36.37.55.03.04.04.08.05.12-.02.02-.04.03-.06.05-.24.17-.56.35-.9.52-.69.35-1.45.67-2.25 1.05-.4.2-.8.4-1.24.69a3.7 3.7 0 0 0-.69.57c-.03.03-.04.05-.06.07-.47.14-.96.29-1.44.47-.45.16-.86.32-1.33.52-.19.08-.4.19-.64.32-.24.12-.43.27-.63.4-.79.57-1.39 1.33-1.71 2.05-.33.72-.42 1.37-.45 1.81s-.01.69-.01.69v.03a.605.605 0 0 0 1.21-.04s0-.2.06-.54.18-.82.46-1.3c.28-.49.74-.96 1.35-1.32.16-.08.32-.18.48-.24.14-.07.33-.14.56-.21.13-.04.28-.08.42-.13-.37.66-.67 1.33-.86 2-.2.67-.28 1.34-.23 1.94.04.6.21 1.11.41 1.48.19.38.4.63.54.8.15.16.23.24.23.24.14.15.38.19.56.07.2-.13.26-.41.13-.61l-.02-.04s-.05-.08-.15-.22c-.08-.15-.21-.37-.3-.66-.2-.58-.18-1.46.32-2.44.43-.87 1.17-1.78 2.07-2.7-.1 1 .02 2.3.51 3.46.13.32.25.54.38.8s.26.52.4.77c.28.5.61.97.96 1.31s.7.55.95.67.39.17.39.17h.01c.14.05.29 0 .37-.13.1-.15.05-.35-.1-.44 0 0-.11-.07-.29-.21-.17-.14-.4-.36-.59-.68-.2-.31-.36-.72-.49-1.2-.06-.25-.12-.51-.19-.77-.06-.26-.14-.58-.17-.8-.18-.97-.04-1.95.19-2.6.09-.26.19-.5.27-.65.04 0 .07.01.11.01h.05s.76-.02 2.02-.11c.32-.03.67-.07 1.09-.15.21-.05.45-.11.72-.22.27-.12.56-.31.77-.54.42-.46.55-.8.74-1.11.17-.29.4-.63.56-.85.02-.06.31-.24.58-.31.29-.08.61-.12.92-.13.63-.01 1.23.13 1.69.34.46.2.77.47.93.69.17.22.23.37.23.37.08.19.28.3.48.25a.42.42 0 0 0 .32-.5l-.01-.03s-.05-.23-.25-.59-.59-.81-1.16-1.17-1.3-.64-2.13-.76c-.42-.06-.86-.07-1.33-.01-.37.07-.75.14-1.16.39.1-.56.04-1.06.04-1.35-.06-.6-.2-1.18-.39-1.69-.31-.82-.71-1.5-1.12-2.09 3.5-.97 6.7-2.88 8.89-5.85 2.05-2.77 3-6.39 2.59-9.85-.55-4.65-2.59-9.13-5.53-12.74-2.59-3.18-3.51-6.2-3.59-8.93 5.11-1.02 11.17-10.39 11.07-10.36l-3.65.9c-.46.11-.71-.55-.33-.88 1.59-1.47 3.04-3.11 4.29-4.93zM33.63 75.88c-.04.08-.04-.04 0-.22 0 .01.01.01.01.02.01.09 0 .17-.01.2zm4.35 28.88c.09-.01.13-.01.17 0 .09.03-.02.04-.17 0zm59.83-12.4c.03-.08.06-.11.08-.14.07-.05.02.03-.08.14z" fill="none" stroke="#176942" stroke-linecap="round" stroke-linejoin="round" stroke-miterlimit="10" stroke-width="3"/><path d="M86.54 72.81c-.74.47-1.48.94-2.22 1.42 1.85-.41 3.79-.36 5.61.16-.83.37-1.67.74-2.5 1.11 2.04-.04 4.07-.09 6.11-.13-.68.54-1.36 1.08-2.03 1.62 1.3-.45 2.59-.9 3.89-1.35l.03 1.63 2.37-2.7c.28.72.55 1.43.83 2.15.42-1.08.85-2.17 1.27-3.25.52.28 1.04.57 1.55.85a9.489 9.489 0 0 0-2.29-4.93l1.98.63a9.895 9.895 0 0 1-3.53-3.87c.7-.1 1.41-.2 2.11-.31a7.6 7.6 0 0 1-3.49-3.57c.5.15.99.31 1.49.46-3.8-3.79-1.87-4.58-2.05-6.46-.05-.1 2.91 6.05 4.51 8.56 1.13 1.78 2.28 3.6 2.85 5.64s.48 4.36-.74 6.09c-1.49 2.12-4.35 2.89-6.92 2.63s-4.97-1.39-7.35-2.39c-2.38-1.01-4.91-1.92-7.49-1.75-.58.04-1.95.66-2.52.72.51-.94 3.31-2.01 4.28-2.31 1.37-.46 2.81-.67 4.25-.65z" fill="#176942"/><linearGradient id="a" x1="65.576" x2="71.409" y1="110.31" y2="117.14" gradientUnits="userSpaceOnUse"><stop stop-color="#224A00" offset="0"/><stop stop-color="#1D5608" offset=".083"/><stop stop-color="#10761D" offset=".332"/><stop stop-color="#078D2C" offset=".572"/><stop stop-color="#029A35" offset=".8"/><stop stop-color="#009F38" offset="1"/></linearGradient><path d="M81.07 112.49c-.21-.35-.61-.79-1.19-1.13s-1.32-.61-2.15-.7c-.42-.05-.86-.05-1.33.03-.37.08-.74.16-1.15.42.09-.56.01-1.06 0-1.35-.08-.6-.23-1.18-.44-1.68-.42-1.02-.97-1.81-1.49-2.48-.52-.68-1.03-1.23-1.5-1.73l-2.95-3.05-.04-.04c-.21-.22-.46-.41-.73-.56-1.58-.9-3.6-.35-4.5 1.23s-.35 3.6 1.23 4.5l3.6 2.05c.99.58 2.09 1.29 2.73 2.01.17.18.28.35.39.54.03.04.04.08.05.12-.02.02-.04.03-.06.05-.23.18-.55.37-.89.55-.68.37-1.43.71-2.21 1.11-.39.21-.79.42-1.22.72-.21.15-.44.33-.67.59-.03.03-.04.05-.06.08-.47.16-.95.32-1.42.51-.45.17-.85.34-1.32.56-.19.09-.4.2-.63.34-.23.13-.42.28-.62.42-.78.59-1.35 1.37-1.65 2.1s-.38 1.38-.4 1.82c-.01.44.01.69.01.69v.03c.03.3.29.54.6.54.33 0 .6-.27.6-.61 0 0 0-.2.04-.54.05-.34.16-.82.42-1.32.27-.49.71-.98 1.31-1.36.16-.08.32-.19.47-.25.14-.07.33-.15.55-.23.13-.05.28-.09.42-.14-.35.68-.63 1.35-.81 2.03s-.24 1.35-.18 1.95.24 1.1.45 1.47c.2.38.42.62.57.78l.24.24c.15.15.39.17.56.05.2-.14.25-.41.11-.61l-.02-.04s-.05-.08-.15-.22c-.09-.15-.22-.36-.32-.65-.21-.57-.22-1.45.25-2.45.4-.88 1.12-1.82 1.99-2.75-.07 1 .08 2.3.61 3.44.14.31.27.53.4.79.13.25.27.51.42.76.29.5.63.95 1 1.28.36.33.72.53.97.64s.4.16.4.16h.01c.14.04.29-.01.37-.14.09-.15.04-.35-.11-.44 0 0-.11-.07-.29-.21s-.41-.35-.61-.66c-.21-.31-.38-.71-.53-1.18-.07-.25-.14-.5-.21-.76s-.15-.57-.2-.79c-.21-.97-.1-1.95.12-2.61.09-.28.18-.51.26-.66.04 0 .07.01.11.01h.05s.76-.04 2.01-.17c.32-.04.67-.09 1.09-.18.21-.05.45-.12.71-.25.27-.13.55-.33.76-.56.4-.47.53-.82.71-1.13.16-.3.38-.64.54-.87.01-.06.3-.25.57-.33.28-.09.6-.14.92-.15.63-.03 1.24.1 1.7.29s.78.45.95.67c.18.21.24.36.24.36.08.19.29.29.49.24.22-.06.36-.29.3-.51l-.01-.03c.03-.07-.03-.3-.24-.65zm-9.23-2.1c.07-.05.02.03-.08.14.03-.08.06-.11.08-.14z" fill="url(#a)"/><linearGradient id="b" x1="88.862" x2="97.862" y1="80.649" y2="101.32" gradientUnits="userSpaceOnUse"><stop stop-color="#224A00" offset="0"/><stop stop-color="#205004" offset=".054"/><stop stop-color="#0E7B20" offset=".476"/><stop stop-color="#049532" offset=".805"/><stop stop-color="#009F38" offset="1"/></linearGradient><path d="M107.11 95.12l-.01-.03s-.05-.23-.25-.59-.59-.81-1.16-1.17-1.3-.64-2.13-.76c-.42-.06-.86-.07-1.33-.01-.37.07-.75.14-1.16.39.1-.56.04-1.06.04-1.35-.06-.6-.2-1.18-.39-1.69-.39-1.03-.92-1.83-1.42-2.53-.5-.69-1-1.26-1.45-1.77-1.7-1.89-2.85-3.14-2.85-3.14l-.03-.04c-.2-.22-.44-.42-.71-.58a3.295 3.295 0 0 0-4.53 1.1 3.295 3.295 0 0 0 1.1 4.53s1.42.86 3.54 2.15c.97.61 2.05 1.35 2.67 2.09.16.19.27.36.37.55.03.04.04.08.05.12-.02.02-.04.03-.06.05-.24.17-.56.35-.9.52-.69.35-1.45.67-2.25 1.05-.4.2-.8.4-1.24.69a3.7 3.7 0 0 0-.69.57c-.03.03-.04.05-.06.07-.47.14-.96.29-1.44.47-.45.16-.86.32-1.33.52-.19.08-.4.19-.64.32-.24.12-.43.27-.63.4-.79.57-1.39 1.33-1.71 2.05-.33.72-.42 1.37-.45 1.81s-.01.69-.01.69v.03c.02.3.28.55.59.55.33.01.61-.26.62-.59 0 0 0-.2.06-.54s.18-.82.46-1.3c.28-.49.74-.96 1.35-1.32.16-.08.32-.18.48-.24.14-.07.33-.14.56-.21.13-.04.28-.08.42-.13-.37.66-.67 1.33-.86 2-.2.67-.28 1.34-.23 1.94.04.6.21 1.11.41 1.48.19.38.4.63.54.8.15.16.23.24.23.24.14.15.38.19.56.07.2-.13.26-.41.13-.61l-.02-.04s-.05-.08-.15-.22c-.08-.15-.21-.37-.3-.66-.2-.58-.18-1.46.32-2.44.43-.87 1.17-1.78 2.07-2.7-.1 1 .02 2.3.51 3.46.13.32.25.54.38.8s.26.52.4.77c.28.5.61.97.96 1.31s.7.55.95.67.39.17.39.17h.01c.14.05.29 0 .37-.13.1-.15.05-.35-.1-.44 0 0-.11-.07-.29-.21-.17-.14-.4-.36-.59-.68-.2-.31-.36-.72-.49-1.2-.06-.25-.12-.51-.19-.77-.06-.26-.14-.58-.17-.8-.18-.97-.04-1.95.19-2.6.09-.26.19-.5.27-.65.04 0 .07.01.11.01h.05s.76-.02 2.02-.11c.32-.03.67-.07 1.09-.15.21-.05.45-.11.72-.22.27-.12.56-.31.77-.54.42-.46.55-.8.74-1.11.17-.29.4-.63.56-.85.02-.06.31-.24.58-.31.29-.08.61-.12.92-.13.63-.01 1.23.13 1.69.34s.77.47.93.69c.17.22.23.37.23.37.08.19.28.3.48.25.24-.08.38-.3.33-.53zm-9.42-2.99c.07-.05.02.03-.08.14.02-.08.05-.11.08-.14z" fill="url(#b)"/><path d="M89.65 47.68l-2.45.12c.75 1.83 1.5 3.67 2.26 5.5l-1.91-.51c.41 1.89.81 3.79 1.22 5.68l-1.78-.45c.13 1.6.26 3.2.4 4.8-.6-.45-1.2-.91-1.8-1.36l-.69 5.65c-.51-.52-1.01-1.04-1.52-1.56l-1.08 4.79c-.44-.84-.87-1.69-1.31-2.53-.88 1.55-1.77 3.1-2.65 4.65-.34-.89-.67-1.79-1.01-2.68-1.1 1.72-2.19 3.45-3.29 5.17-.37-.92-.74-1.84-1.11-2.77-1.48 1.75-2.95 3.5-4.43 5.25l-.39-3.33c-1.24 1.9-2.48 3.8-3.73 5.71l-.93-3.84c-1.07 2.12-2.13 4.24-3.2 6.36-.45-1.55-.91-3.09-1.36-4.64-1.31 2.39-2.62 4.77-3.93 7.16l-.66-4.43c-.84 2.65-.87 5.55-.07 8.21-1.09-.54-2.18-1.08-3.26-1.62 1.09 1.65 2.17 3.31 3.26 4.96-1.06.06-2.13.13-3.19.19 1.55.85 3.09 1.71 4.64 2.56-.9.49-1.8.97-2.7 1.46 1.41.62 2.82 1.25 4.23 1.87-.39.56-.77 1.12-1.16 1.69 1.93.32 3.99-.33 5.38-1.7 1.06.93 1.01 2.75.08 3.82-.93 1.06-2.51 1.4-3.89 1.11s-2.6-1.12-3.64-2.07c-2.76-2.53-4.53-6.11-4.88-9.84s.74-7.58 2.99-10.57c3.56-4.76 9.48-7 15.09-8.96s11.54-4.09 15.26-8.73c1.98-2.47 3.09-5.57 3.31-8.71.11-1.59-.01-3.2-.35-4.75-.21-.94-1.65-3.44-.98-4.23.88-1.08 4.33 1.98 5.23 2.57z" fill="#176942"/><linearGradient id="c" x1="45.855" x2="33.355" y1="91.768" y2="105.6" gradientUnits="userSpaceOnUse"><stop stop-color="#224A00" offset="0"/><stop stop-color="#146E18" offset=".449"/><stop stop-color="#009F38" offset="1"/></linearGradient><path d="M41.42 92.34a3.476 3.476 0 0 0-3.35 3.6l.15 4.36c.03 1.21 0 2.59-.29 3.56-.07.25-.16.45-.27.64-.02.05-.05.08-.08.11-.03-.01-.05-.02-.08-.03-.29-.11-.63-.29-.98-.49-.7-.4-1.43-.89-2.22-1.37-.4-.24-.82-.48-1.32-.69a4.25 4.25 0 0 0-.89-.28c-.04-.01-.07-.01-.1-.01-.4-.34-.81-.67-1.24-1-.4-.3-.78-.58-1.23-.87l-.3-.18-.36-.2c-.24-.14-.48-.22-.72-.33-.96-.37-1.97-.46-2.79-.32-.82.13-1.45.42-1.85.65s-.61.39-.61.39l-.02.02c-.25.2-.32.56-.15.84.19.3.58.39.88.2 0 0 .18-.11.51-.26s.82-.32 1.41-.35c.59-.04 1.27.09 1.95.42.16.09.35.18.49.28l.23.15.28.21c.11.09.23.2.36.3-.8.06-1.56.18-2.26.4-.71.22-1.34.53-1.84.92-.5.38-.85.83-1.07 1.22s-.32.72-.39.94c-.05.22-.08.34-.08.34-.05.22.06.44.27.53.24.1.51-.01.61-.24l.02-.04s.04-.09.11-.26c.08-.16.2-.4.41-.64.39-.51 1.18-1 2.34-1.13 1.01-.13 2.25 0 3.57.26-.94.49-2.01 1.35-2.75 2.45-.2.3-.32.53-.48.8-.15.26-.3.53-.45.79-.28.54-.51 1.1-.6 1.61-.1.51-.08.94-.04 1.22.04.29.08.44.08.44v.01c.04.15.17.25.33.25.19 0 .33-.15.33-.34 0 0 0-.14.02-.38s.09-.56.25-.92c.16-.35.42-.73.77-1.13.18-.2.37-.4.57-.61.2-.2.43-.45.6-.62.75-.72 1.69-1.16 2.4-1.34.29-.07.57-.12.74-.14.02.03.02.07.05.11l.03.05s.45.66 1.27 1.71c.21.26.45.55.77.87.17.16.36.33.61.5.26.17.6.31.92.37.64.1 1.02.02 1.41.01.36-.02.79-.02 1.08 0 .06-.02.39.13.61.33.24.2.46.46.64.74.37.55.6 1.16.68 1.68s.03.95-.07 1.22c-.09.28-.19.41-.19.41-.12.18-.1.42.06.57.18.17.46.16.63-.01l.03-.03s.17-.18.37-.56.37-.99.36-1.7-.18-1.52-.57-2.31c-.19-.4-.43-.8-.76-1.17-.27-.29-.55-.58-1.01-.8.55-.23.96-.58 1.22-.75.49-.4.93-.86 1.26-1.32.68-.94 1.08-1.87 1.4-2.71.32-.85.53-1.61.72-2.3.66-2.6 1.11-4.33 1.11-4.33l.01-.05c.08-.31.11-.63.1-.97-.08-1.87-1.69-3.37-3.61-3.3zm-3.48 12.33c.09.04-.01.04-.17 0 .09-.01.14 0 .17 0z" fill="url(#c)"/><linearGradient id="d" x1="32.616" x2="55.782" y1="69.885" y2="85.052" gradientUnits="userSpaceOnUse"><stop stop-color="#009F38" offset="0"/><stop stop-color="#06902E" offset=".232"/><stop stop-color="#156A15" offset=".674"/><stop stop-color="#224A00" offset="1"/></linearGradient><path d="M44.09 75.88s-.56.02-1.54.05c-.92.04-2.24.1-3.81.17-1.47.04-3.17.02-4.35-.34-.29-.09-.55-.19-.78-.33l-.13-.08c.02-.05.03-.09.05-.14.14-.36.36-.78.6-1.21.49-.87 1.08-1.76 1.65-2.74.29-.5.57-1 .83-1.63.13-.31.25-.66.32-1.11.01-.04.01-.06.01-.09.41-.49.82-1.01 1.21-1.54.37-.5.7-.96 1.05-1.52l.22-.37.24-.45c.17-.3.27-.59.39-.88.44-1.18.54-2.42.37-3.43s-.53-1.77-.81-2.26c-.29-.49-.49-.75-.49-.75l-.02-.03a.788.788 0 0 0-1.03-.18c-.36.23-.47.71-.24 1.07 0 0 .14.22.33.63.18.41.39 1.01.44 1.73.05.73-.1 1.56-.5 2.4-.11.2-.21.43-.34.61l-.18.29-.26.34c-.11.14-.23.29-.36.44-.08-.98-.24-1.91-.5-2.77-.27-.86-.65-1.64-1.13-2.25a5.15 5.15 0 0 0-1.49-1.31c-.48-.27-.88-.39-1.15-.47-.27-.06-.42-.1-.42-.1a.568.568 0 0 0-.65.33c-.12.29.01.62.3.74l.05.02s.11.05.32.13c.2.1.49.24.79.5.62.48 1.23 1.45 1.4 2.86.16 1.24.02 2.76-.29 4.39-.6-1.14-1.65-2.44-3-3.34-.37-.25-.66-.4-.98-.59s-.65-.37-.97-.54c-.66-.34-1.34-.62-1.97-.73-.62-.12-1.15-.09-1.5-.04s-.54.1-.54.1h-.01c-.18.05-.31.21-.3.41 0 .23.19.41.42.4 0 0 .17 0 .46.03s.69.1 1.12.3c.43.19.9.52 1.38.94.24.21.49.45.75.69.25.24.55.52.76.73.88.92 1.43 2.07 1.65 2.94.09.36.15.69.17.91-.06.04-.13.07-.19.11 0 0-.2.15-.56.41-.35.26-.89.66-1.52 1.16-.32.26-.67.55-1.06.95l-.3.33c-.1.13-.21.28-.31.43-.2.32-.38.74-.44 1.13-.12.79-.02 1.25-.01 1.72.03.44.03.96.01 1.32.02.09-.15.49-.39.76-.24.29-.56.57-.89.8-.67.46-1.41.75-2.04.86-.64.11-1.16.04-1.5-.07s-.51-.23-.51-.23a.547.547 0 0 0-.7.07c-.21.22-.2.56.02.77l.03.03s.22.21.69.45c.47.25 1.21.45 2.08.42a6.81 6.81 0 0 0 2.83-.72c.49-.24.97-.54 1.43-.95.35-.33.69-.68.95-1.22.01.01.01.03.02.04l.11.24.4.67c.11.16.22.33.34.48.48.62 1.05 1.14 1.62 1.56 1.15.84 2.3 1.33 3.33 1.72 1.04.38 1.98.65 2.83.88 1.7.45 3.01.74 3.91.97l1.39.36.03.01a4.257 4.257 0 0 0 5.3-4.27c-.13-2.36-2.1-4.2-4.44-4.12zm-10.67-.09c-.04.08-.04-.04 0-.22 0 .01.01.01.01.02.01.09 0 .17-.01.2z" fill="url(#d)"/><path d="M94.89 36.12c.21.44.44.88.64 1.32.18.39.7.31.81-.13.46-1.76.89-3.22 1.35-4.96.12-.46.67-.51.83-.08.11.31.22.61.32.92.13.39.62.41.79.02.66-1.46 1.27-2.41 1.93-3.83.18-.39.67-.37.8.03.14.44.28.77.41 1.28.1.36.51.44.74.15 1.1-1.39 1.84-2.19 2.83-3.22.32-.33.81-.02.72.45l-.6 3.06c-.08.43.32.75.65.51l4-2.85c.4-.29.85.23.58.69l-2.86 4.95c-.21.37.05.84.42.76l3.72-.77c.4-.08.65.43.4.8a26.903 26.903 0 0 1-4.31 4.88c-.37.33-.12.99.33.88l3.65-.9c.1-.03-7.04 11.01-12.35 10.44-2.49-.27-4.56-1.59-6-3.85-.74-1.16-1.24-2.79-1.28-4.24-.07-2.49.35-4.77.66-6.17.1-.44.63-.54.82-.14z" fill="#9CCC65"/><linearGradient id="e" x1="72.734" x2="72.898" y1="53.232" y2="53.398" gradientUnits="userSpaceOnUse"><stop stop-color="#47BF62" offset=".265"/><stop stop-color="#43BA5F" offset=".404"/><stop stop-color="#36AB58" offset=".576"/><stop stop-color="#22924C" offset=".764"/><stop stop-color="#066F3B" offset=".963"/><stop stop-color="#006837" offset="1"/></linearGradient><path d="M72.79 53.48c-.02.06.14-.49.07-.23l-.02.05c-.01.04-.03.08-.04.12l-.01.06z" fill="url(#e)"/><linearGradient id="f" x1="31.072" x2="86.343" y1="49.45" y2="105.28" gradientUnits="userSpaceOnUse"><stop stop-color="#70A336" offset="0"/><stop stop-color="#89B754" offset=".262"/><stop stop-color="#9DC86D" offset=".538"/><stop stop-color="#AAD27C" offset=".792"/><stop stop-color="#AED581" offset="1"/></linearGradient><path d="M51.67 110c-3-2-5-4-6-6-18-27 32-43.12 32-48 3-6-2-10-8-12-1.24 0-2.87-.38-4.4-.2.64.48 1.18.86 1.71 1.28.78.6 1.5 1.19 2.16 1.78 1.33 1.17 2.42 2.4 3.06 3.47.32.54.53 1.01.64 1.4s.13.69.11.97c-.01.14-.04.29-.07.45 0 .04-.02.09-.04.14l.02-.05c.08-.26-.08.29-.07.23l.01-.07c.01-.04.02-.08.04-.12l-.03.1-.13.4c-.11.38-.12.25-.13.28-.01.01.01-.02-.02.04l-.08.13c-.04.09-.1.18-.16.26-.05.09-.12.18-.19.27-.52.72-1.45 1.52-2.74 2.25-1.28.73-9.7 3.4-13.31 5.1C47.3 66.23 42 70.36 39.1 75.48a29.6 29.6 0 0 0-3.18 8.38c-.09.37-.14.75-.21 1.13l-.05.28-.05.38-.06.41-.03.21-.03.33-.06.67-.03.33-.02.29-.03.58c-.06 1.55.02 3.09.22 4.6.82 6.03 3.41 11.64 7.62 16.04 2.1 2.19 4.64 4.06 7.51 5.35.35.17.72.31 1.08.46l.27.11.14.05.29.1.39.13c.08.03.4.12.63.19.24.07.5.14.72.19.4.09.81.18 1.2.25 1.59.27 3.13.37 4.71.31 1.58-.07 3.19-.31 4.91-.84.85-.26 1.75-.62 2.65-1.08l.69-.39.17-.1.18-.11.04-.03.17-.11.34-.23.18-.12.24-.17c.08-.05.14-.1.22-.16-5.82-1.16-12.31 1.54-18.25-2.91z" fill="url(#f)"/><linearGradient id="g" x1="32.572" x2="102.62" y1="28.204" y2="98.962" gradientUnits="userSpaceOnUse"><stop stop-color="#47BF62" offset=".265"/><stop stop-color="#43BA5F" offset=".404"/><stop stop-color="#36AB58" offset=".576"/><stop stop-color="#22924C" offset=".764"/><stop stop-color="#066F3B" offset=".963"/><stop stop-color="#006837" offset="1"/></linearGradient><path d="M111.1 72.12c-.55-4.65-2.59-9.13-5.53-12.74-8.85-10.87 1.71-19.86-1-21.71-2.54-1.74-4.62 1.17-6.42 3.71-2.37 3.34-3.66 8.15-3.08 12.25s2.31 7.93 4.4 11.46c2.05 3.46 4.81 7.72 1.25 11.34-4.26 4.34-9.74 1.07-13.98-.53-6.58-2.49-14.84.95-19.26 6.28-4.14 4.99-2.71 11.27-2.59 14.02.08 1.75-.44 3.61-1.76 4.72-1.17.99-2.81 1.24-4.31.96-7.67-1.43-10.45-10.79-7.84-17.6 2.53-6.6 8.51-8.63 14.6-10.27 1.15-.31 2.33-.65 3.53-1.06 2.39-.83 4.86-1.86 7.33-3.37 2.45-1.51 4.99-3.55 6.99-6.49.25-.36.49-.73.71-1.13.23-.39.44-.78.63-1.19l.29-.62c.09-.19.2-.49.3-.73.19-.49.41-1.13.45-1.29l.12-.4.14-.48.08-.34c.1-.46.21-.9.27-1.38.14-.94.21-1.91.2-2.88-.03-1.95-.41-3.88-1.03-5.59-.62-1.72-1.44-3.22-2.35-4.53-1.83-2.61-3.9-4.52-5.94-6.14-1.03-.8-2.07-1.53-3.07-2.19l-2.64-1.69-.27-.17c-2.73-1.74-6.35-1.07-8.32 1.63-2.08 2.86-1.52 6.91 1.26 9.06.39.3.72.55 1.03.78 1.53-.18 3.16.2 4.4.2 6 2 10.88 3.88 8 12s-53 16.12-32 48c1 2 3 4 6 6 5.94 4.45 11.12 3.88 18.24 2.92.57-.41 2.56-1.72 3.13-2.29 1.14-1.14 2.62-3 3.5-7.12 1.01-4.76-.33-9.77.21-11.62 1.85-6.42 7.54-5.52 8.7-4.99 7.15 3.22 17.87 2.07 23.05-4.92 2.04-2.8 2.99-6.41 2.58-9.87z" fill="url(#g)"/><linearGradient id="h" x1="-62.312" x2="-47.767" y1="-121.15" y2="-94.085" gradientUnits="userSpaceOnUse"><stop stop-color="#43A047" offset="0"/><stop stop-color="#3E9842" offset=".134"/><stop stop-color="#328436" offset=".557"/><stop stop-color="#2E7D32" offset=".843"/></linearGradient><path d="M-13.91-103.58l-.01-.55c-.06-.73-.16-1.45-.35-2.13-.35-1.37-.93-2.6-1.6-3.67-1.35-2.13-2.97-3.71-4.57-5.06-3.23-2.65-6.49-4.44-9.53-5.94-3.04-1.48-5.87-2.62-8.39-3.57-2.53-.94-4.74-1.68-6.59-2.25-.51-.16-.97-.29-1.42-.42.8 3.32 1.99 6.65 2.67 9.97 0-.01.01-.02.01-.02 2.9.93 6.3 2.16 9.95 3.81 2.7 1.25 5.57 2.74 8.02 4.62 1.21.93 2.29 1.98 3.01 3.02.36.52.6 1.03.76 1.51.09.24.12.47.16.71l.01.18.01.09v.02c0 .03.01-.23 0-.1v.09c0 .23-.01.56-.02.54 0 .05-.01.14-.03.24-.01.09-.03.16-.05.22-.03.13-.06.16-.08.21-.02.08-.2.25-.72.44-1.04.37-2.91.46-4.77.35-3.81-.22-7.98-.99-12.12-1.75-4.17-.78-8.38-1.62-12.58-2.3-4.2-.69-8.38-1.26-12.47-1.59-2.05-.16-4.07-.26-6.06-.29a57.32 57.32 0 0 0-5.87.19c-1.92.18-3.8.43-5.62.93-1.81.49-3.57 1.14-5.16 2.24-.79.55-1.53 1.24-2.08 2.12-.55.87-.86 1.94-.8 2.94.05 1.01.4 1.88.83 2.6.44.72.97 1.29 1.51 1.78 2.2 1.91 4.49 2.68 6.33 3.21 1.86.5 3.35.69 4.36.78 1.01.08 1.55.1 1.55.1.04 0 .08-.03.09-.07a.083.083 0 0 0-.06-.1s-.52-.13-1.47-.42c-.95-.3-2.34-.75-3.97-1.53-.82-.39-1.7-.86-2.57-1.45s-1.76-1.29-2.47-2.16c-.7-.85-1.22-1.9-1.11-2.74.08-.82.71-1.55 1.83-2.17 1.1-.61 2.55-1.02 4.09-1.27 1.55-.25 3.23-.39 4.97-.41.87-.01 1.77 0 2.65.04.92.04 1.83.09 2.77.16 1.86.14 3.76.34 5.69.61 7.74 1.06 15.87 3.15 24.2 5.15 4.19.98 8.38 2.01 12.95 2.5 2.3.19 4.7.38 7.62-.4 1.43-.41 3.14-1.22 4.4-2.7.62-.71 1.12-1.54 1.42-2.34.16-.4.28-.8.38-1.19.09-.38.17-.77.21-1.21.06-.51.06-.66.08-.91l.01-.09V-103.58z" fill="url(#h)"/><path d="M-42.05-122.67c.88.3 1.76.62 2.65.95 3.04 1.14 5.63 2.24 8.13 3.45 2.68 1.32 5.84 3.01 8.93 5.55 1.2 1.01 2.73 2.41 3.96 4.36.58.93 1 1.89 1.26 2.88.11.42.2.92.25 1.51l.01.43v.38l-.01.23c-.01.13-.01.26-.05.53 0 .02 0 .04-.01.06-.03.3-.09.57-.14.81-.07.28-.15.55-.25.8-.01.02-.01.03-.02.05-.18.48-.5 1.01-.9 1.47-.9 1.06-2.22 1.56-2.93 1.77-1.19.32-2.36.46-3.69.46-.99 0-1.98-.08-2.86-.16-3.99-.43-7.8-1.32-11.48-2.19l-1.06-.25c-1.13-.27-2.26-.54-3.38-.81-2.51-.61-4.98-1.2-7.41-1.76 2.53.43 5.09.92 7.58 1.39 1.13.22 2.27.43 3.4.64 4.17.77 8.47 1.56 12.47 1.8.57.04 1.13.05 1.67.05 1.78 0 3.22-.19 4.28-.57 1.22-.44 2.04-1.12 2.44-2.03.08-.17.17-.4.24-.7.03-.12.06-.27.09-.44 0-.02.01-.07.01-.09.02-.16.06-.4.05-.71.01-.13.02-.27.02-.41v-.18c0-.21-.02-.42-.07-.62 0-.02-.01-.04-.01-.05l-.01-.07c-.05-.25-.11-.64-.26-1.07-.25-.76-.63-1.51-1.11-2.22-.85-1.25-2.08-2.49-3.65-3.7-2.85-2.18-6.08-3.79-8.59-4.96a90.76 90.76 0 0 0-8.68-3.41c-.27-1.08-.57-2.13-.87-3.17m-4.32-4.49c.8 3.32 1.99 6.65 2.67 9.97 0-.01.01-.02.01-.02 2.9.93 6.3 2.16 9.95 3.81 2.7 1.25 5.57 2.74 8.02 4.62 1.21.93 2.29 1.98 3.01 3.02.36.52.6 1.03.76 1.51.09.24.12.47.16.71l.01.18.01.09v.02-.14.13c0 .22-.01.54-.02.54 0 .05-.01.14-.03.24-.01.09-.03.16-.05.22-.03.13-.06.16-.08.21-.02.08-.2.25-.72.44-.76.27-1.96.39-3.28.39-.48 0-.99-.02-1.49-.05-3.81-.22-7.98-.99-12.12-1.75-4.17-.78-8.38-1.62-12.58-2.3-4.2-.69-8.38-1.26-12.47-1.59-2.05-.16-4.07-.26-6.06-.29-.36-.01-.71-.01-1.07-.01a58.466 58.466 0 0 0-4.81.2c-1.92.18-3.8.43-5.62.93-1.81.49-3.57 1.14-5.16 2.24-.79.55-1.53 1.24-2.08 2.12-.55.87-.86 1.94-.8 2.94.05 1.01.4 1.88.83 2.6.44.72.97 1.29 1.51 1.78 2.2 1.91 4.49 2.68 6.33 3.21 1.86.5 3.35.69 4.36.78 1.01.08 1.55.1 1.55.1.04 0 .08-.03.09-.07a.083.083 0 0 0-.06-.1s-.52-.13-1.47-.42c-.95-.3-2.34-.75-3.97-1.53-.82-.39-1.7-.86-2.57-1.45s-1.76-1.29-2.47-2.16c-.7-.85-1.22-1.9-1.11-2.74.08-.82.71-1.55 1.83-2.17 1.1-.61 2.55-1.02 4.09-1.27 1.55-.25 3.23-.39 4.97-.41h.62c.67 0 1.36.01 2.02.04.92.04 1.83.09 2.77.16 1.86.14 3.76.34 5.69.61 7.74 1.06 15.87 3.15 24.2 5.15 4.19.98 8.38 2.01 12.95 2.5 1.02.09 2.06.17 3.15.17 1.38 0 2.84-.13 4.47-.57 1.43-.41 3.14-1.22 4.4-2.7.62-.71 1.12-1.54 1.42-2.34.16-.4.28-.8.38-1.19.09-.38.17-.77.21-1.21.06-.51.06-.66.08-.91l.01-.09v-.53l-.01-.55c-.06-.73-.16-1.45-.35-2.13-.35-1.37-.93-2.6-1.6-3.67-1.35-2.13-2.97-3.71-4.57-5.06-3.23-2.65-6.49-4.44-9.53-5.94-3.04-1.48-5.87-2.62-8.39-3.57-2.53-.94-4.74-1.68-6.59-2.25-.49-.19-.95-.32-1.4-.45z" fill="#424242" opacity=".2"/><path d="M-87.75-139.5c-7.26-3.78-11.76-2.78-14.08 1.08-4.66 7.76 1.97 8.23 1.51 13.37-.46 5.15-8.16 4.66-13.56 10.92-5.74 6.66-14.77 4.85-16.99 5.54-2.23.69-3.17 1.92-3.17 3.96 0 2.79 2.05 3.62 2.05 3.62s-.21-1.06.59-2.09c-.01.98.61 2.03 1.84 2.37 0 0-.15-3.47 2.39-3.57 4-.17 5.07 1.84 5.5 2.25-1.29 1.88-4.38 2.17-4.38 2.17s3 3.46 7.62.04c.81.47 7.19-4.89 14.58-5.67 10.64-1.12 13.12-6.81 16.81-12.94 5.94-9.81 6.55-17.27-.71-21.05z" fill="#33691E"/><path d="M-95.67-138.88c1.74 0 3.94.69 6.54 2.04 1.88.98 3.01 2.23 3.46 3.8.82 2.93-.53 7.44-3.91 13.05-.3.51-.6 1.01-.89 1.5-3.13 5.3-5.39 9.13-13.66 10-5.47.58-10.26 3.27-13.13 4.88-.49.28-1.08.61-1.43.78-.02 0-.04 0-.06.01a2.93 2.93 0 0 0-.76-1.33l-.05-.06c-.37-.44-1.16-1.38-2.62-2.12 3.49-.65 7.43-2.18 10.59-5.84 2.09-2.43 4.62-3.66 7.06-4.85 3.19-1.55 6.82-3.31 7.21-7.77.27-3.07-1.1-5.07-2.11-6.53-1.19-1.74-1.69-2.46.18-5.56.82-1.38 1.93-2 3.58-2m0-3c-2.83 0-4.84 1.27-6.16 3.46-4.66 7.76 1.97 8.23 1.51 13.37-.46 5.15-8.16 4.66-13.56 10.92-5.74 6.66-14.77 4.85-16.99 5.54s-3.17 1.92-3.17 3.96c0 2.79 2.05 3.62 2.05 3.62s-.21-1.06.59-2.09c-.01.98.61 2.03 1.84 2.37 0 0-.15-3.47 2.39-3.57.16-.01.31-.01.46-.01 3.62 0 4.62 1.87 5.04 2.26-1.29 1.88-4.38 2.17-4.38 2.17s1.34 1.55 3.62 1.55c1.12 0 2.48-.38 4.01-1.51.03.02.08.03.13.03 1.21 0 7.37-4.95 14.45-5.7 10.64-1.12 13.12-6.81 16.81-12.94 5.92-9.82 6.53-17.28-.73-21.06-3.13-1.63-5.76-2.37-7.91-2.37z" fill="#424242" opacity=".2"/><linearGradient id="i" x1="-111.56" x2="-76.028" y1="-174.95" y2="-108.83" gradientUnits="userSpaceOnUse"><stop stop-color="#43A047" offset="0"/><stop stop-color="#3E9842" offset=".134"/><stop stop-color="#328436" offset=".557"/><stop stop-color="#2E7D32" offset=".843"/></linearGradient><path d="M-33-107.17c.74-14.54-13.2-19.39-13.53-20.83-.15-.04-.3-.09-.44-.13-7.45-4.05-23.26-8.9-34.44-10.61-20.35-3.11-14.27-13.28-13.28-16.82s5.65-9.33 3.39-18.94-14.27 6.64-14.27 6.64-2.1 3.42-15.29 19.84c-9.66 12.01-10.72 20.93-7.21 26.64 5 8.12 9.5 8.36 38.05 10.34 19.09 1.32 28.78 3.13 33.1 4.18-2.07 3.14-8.03 7.16-12.27 9.74-2.59 1.57-6.48 3.64-9.64 3.16-1.64-.25-3.19-1-4.68-1.69-.96-.44-2.2-1.1-3.3-1.21-1.93-.19-7.81-.85-10.06 3.52-.79 1.54-.33 3.08-.33 3.08s1.4-1.5 3.16-2.24c-.27 1.43.18 2.42.18 2.42s1.14-2.07 5.59-1.82c1.87.11 3.63 1.82 3.63 1.82S-52.83-89-43.4-91.33c6.45-1.6 10.16-11.19 10.4-15.84z" fill="url(#i)"/><path d="M-94.44-174.47c.06.15.14.36.21.67 1.5 6.36-.46 10.67-2.04 14.14-.55 1.21-1.03 2.26-1.32 3.3-.07.26-.21.65-.36 1.07-.9 2.51-2.58 7.19.07 11.62 2.41 4.04 7.65 6.62 16.02 7.9 10.77 1.65 26.41 6.45 33.46 10.28.04.02.07.04.11.06.53.49 1.22.94 2.04 1.47 3.76 2.46 10.76 7.04 10.26 16.64-.09 1.79-.9 4.88-2.5 7.76-1.63 2.93-3.63 4.82-5.63 5.32-2.62.65-9.02 1.42-24.62 1.42h-2.02c1.15-.56 2.21-1.17 3.11-1.72 4.71-2.86 10.83-7.04 13.22-10.65.54-.82.65-1.84.29-2.75s-1.13-1.59-2.08-1.82c-5.06-1.23-15.01-2.97-33.6-4.26l-.85-.06c-28.11-1.95-30.82-2.31-34.85-8.86-3.26-5.29-.77-13.53 6.99-23.19 11.94-14.85 14.91-19.22 15.42-20.01 2.97-4 6.97-7.82 8.67-8.33m.32-3.06c-4.31 0-11.46 9.68-11.46 9.68s-2.1 3.42-15.29 19.84c-9.66 12.01-10.72 20.93-7.21 26.64 5 8.12 9.5 8.36 38.05 10.34 19.09 1.32 28.78 3.13 33.1 4.18-2.07 3.14-8.03 7.16-12.27 9.74-2.33 1.42-5.71 3.23-8.67 3.23-.33 0-.65-.02-.97-.07-1.64-.25-3.19-1-4.68-1.69-.96-.44-2.2-1.1-3.3-1.21-.56-.05-1.45-.15-2.49-.15-2.55 0-5.97.56-7.57 3.67-.79 1.54-.33 3.08-.33 3.08s1.4-1.5 3.16-2.24c-.27 1.43.18 2.42.18 2.42s1.01-1.84 4.85-1.84c.24 0 .48.01.74.02 1.87.11 3.63 1.82 3.63 1.82s7.28.24 15.9.24c9.41 0 20.42-.29 25.34-1.51 6.45-1.6 10.17-11.19 10.4-15.83.74-14.54-13.2-19.39-13.53-20.83-.15-.04-.3-.09-.44-.13-7.45-4.05-23.26-8.9-34.44-10.61-20.35-3.11-14.27-13.28-13.28-16.82.99-3.53 5.65-9.33 3.39-18.94-.52-2.18-1.54-3.03-2.81-3.03z" fill="#424242" opacity=".2"/><linearGradient id="j" x1="-100.25" x2="-53.252" y1="-185.94" y2="-138.6" gradientUnits="userSpaceOnUse"><stop stop-color="#6BB828" offset="0"/><stop stop-color="#59A62B" offset=".317"/><stop stop-color="#2E7D32" offset=".897"/></linearGradient><path d="M-104.4-140.75s1.94-6.25 10.09-10.87c7.12-4.04 12.57-5.52 11.98-15.82-.58-10.3-4.78-19.4-4.78-19.4s6.45-1.07 18.16.67 25.59 6.9 37.37 19.96 17.55 22.36 18.74 45.93c0 0-1.56-17.6-16.86-22.82s-14.03 12.26-14.03 12.26-.1 18.27-.76 21.56-.01-12.6-3.28-20.48c-2.95-7.1-10.81-15.95-23.53-3.05l-8.63 12.52s3.85-19.32.22-23.58c-3.51-4.12-11.55-8.67-24.74 3.26l.05-.14z" fill="url(#j)"/><path d="M-81.41-184.18c3.68 0 7.73.32 12.02.96 14.13 2.1 26.11 8.5 35.58 19.01 7.39 8.19 12.28 14.63 15.12 24.51-2.55-2.57-5.83-4.81-10.05-6.25-2.2-.75-4.27-1.13-6.13-1.13-3.23 0-6 1.15-8.03 3.33-2.61 2.8-3.48 6.7-3.75 9.53-3.09-5.18-7.6-8.18-12.51-8.18-4.59 0-9.39 2.51-14.28 7.47-.12.12-.23.26-.33.4l-1.53 2.22c.63-9.1-.89-12.07-2.13-13.52-2.94-3.45-6.92-5.37-11.25-5.45 5.33-2.97 9.92-6.42 9.35-16.34-.38-6.64-2.15-12.75-3.49-16.54.44-.01.91-.02 1.41-.02m0-3c-3.73 0-5.69.33-5.69.33s4.2 9.1 4.78 19.4-4.86 11.79-11.98 15.82c-8.15 4.62-10.09 10.87-10.09 10.87l-.06.12c6.34-5.73 11.49-7.66 15.52-7.66 4.36 0 7.41 2.26 9.23 4.4 3.63 4.26-.22 23.58-.22 23.58l8.63-12.52c4.72-4.78 8.76-6.57 12.14-6.57 5.73 0 9.53 5.16 11.39 9.63 2.98 7.16 2.71 20.92 3.13 20.92.04 0 .09-.14.15-.44.66-3.29.76-21.56.76-21.56s-.97-13.23 8.86-13.23c1.47 0 3.18.3 5.16.97 15.3 5.22 16.86 22.82 16.86 22.82-1.19-23.57-6.96-32.87-18.74-45.93s-25.66-18.22-37.37-19.96c-5.24-.77-9.43-.99-12.46-.99z" fill="#424242" opacity=".2"/><path d="M-98.65-139.56c-7.95-1.96-12.5 1.75-13.56 7.25-1.72 8.89 5.55 8.89 6.31 14s-7.4 6.18-10.6 13.81c-2.83 6.75-4.27 6.97-8.02 7-12.56.09-8.09 7.41-8.09 7.41s.3-1.8 2.1-2.75c-.26 1.1.22 2.52 1.63 2.91 0 0-.31-1.66.52-2.74.25-.32.52-.57.78-.77 3.09-.03 6.02 1.2 5.13 3.37l6.19.06s3.62-5.69 10.62-8.19c10.08-3.6 12.98-9.42 15.12-16.25 3.44-10.93-.17-23.15-8.13-25.11z" fill="#388E3C"/><path d="M-102.7-137.09c1.02 0 2.14.15 3.33.44 2.45.61 4.03 2.63 4.92 4.21 2.51 4.46 2.92 11.17 1.06 17.1-1.86 5.91-4.14 11.06-13.27 14.32-5.7 2.04-9.43 5.91-11.11 8l-2.1-.02c-.07-.13-.15-.25-.23-.38-.34-.5-.78-.95-1.31-1.34 3.26-.64 5.21-2.71 7.67-8.58 1.26-2.99 3.51-4.78 5.68-6.5 2.71-2.14 5.77-4.57 5.12-8.92-.46-3.04-2.36-4.82-3.89-6.25-1.98-1.85-3.17-2.97-2.44-6.74.48-2.43 2-5.34 6.57-5.34m0-3c-5.46 0-8.64 3.3-9.51 7.78-1.72 8.89 5.55 8.89 6.31 14 .77 5.11-7.4 6.18-10.6 13.81-2.83 6.75-4.27 6.97-8.02 7-12.56.09-8.09 7.41-8.09 7.41s.3-1.8 2.1-2.75c-.26 1.1.22 2.52 1.63 2.91 0 0-.31-1.66.52-2.74.25-.32.52-.57.78-.77h.1c3.05 0 5.92 1.22 5.03 3.37l6.19.06s3.62-5.69 10.62-8.19c10.08-3.6 12.98-9.42 15.12-16.25 3.44-10.94-.17-23.16-8.12-25.12-1.47-.35-2.82-.52-4.06-.52z" fill="#424242" opacity=".2"/><path d="M-126.33-168.21s-.49-.89-.74-2.23c-.18-.94-.1-1.33-.1-1.33l2.11 2.94-1.27.62zM-129.14-178.45s.15.95.93 2.37c.55 1 .92 1.31.92 1.31l-.31-4.76-1.54 1.08zM-125.26-180s.15.95.93 2.37c.55 1 .92 1.31.92 1.31l-.31-4.76-1.54 1.08zM-120.88-180.15s.15.95.93 2.37c.55 1 .92 1.31.92 1.31l-.31-4.76-1.54 1.08zM-117.13-180.5s.15.95.93 2.37c.55 1 .92 1.31.92 1.31l-.31-4.76-1.54 1.08zM-131.83-176.12s.15.95.93 2.37c.55 1 .92 1.31.92 1.31l-.31-4.76-1.54 1.08z" fill="#BDBDBD"/><path d="M-111.75-194.68c-.52.79-1.22 1.84-1.27 2.77-.71.05-4 .73-2.83-.66.4-.47 1.28-1.12 1.84-1.4.14-.07 2.26-.8 2.26-.71zM-107.52-194.79c-.52.79-1.22 1.84-1.27 2.77-.71.05-4 .73-2.83-.66.4-.47 1.28-1.12 1.84-1.4.14-.07 2.26-.8 2.26-.71z" fill="#CFB18B"/><path d="M-109.17-191.97s3.76-2.76 4.78-7.85c.46-2.28.03-6.51-.9-8.43-1.28-2.63-.14-2.42.79-.32.67 1.5 1.81 4.49 1.77 9.2-.04 4.61-3.93 8.15-3.93 8.15l-2.51-.75z" fill="#CFB18B"/><path d="M-96.15-193.15c.36 3.7 6.44 1.91 10.74 1.11-1.21-.75-2.87-1.98-2.87-3.07 0-.74.97-1.34 2.08-1.77-4.58-.39-10.3.2-9.95 3.73zM-91.93-177.25c-2.01-1.64-4.11-2.25-6.04-.21-1.32 1.17-1.59 5.8-1.11 7.31 3.07-4.5 9.98-4.03 11.41-3.7-1.15-1.28-2.86-2.25-4.26-3.4z" fill="#43A047"/><linearGradient id="k" x1="-103.59" x2="-88.143" y1="-190.11" y2="-190.11" gradientUnits="userSpaceOnUse"><stop stop-color="#1B5E20" offset=".092"/><stop stop-color="#2D7C31" offset=".37"/><stop stop-color="#388E3C" offset=".583"/></linearGradient><path d="M-83.58-180.8s-2.07-1.32-3.97-2.78c-4.97.08-9.63.98-9.63-2.57 0-3.6 5.31-3.72 10.17-4.07 1.18-.63 2.31-1.07 2.83-1.11 0 0-.54-.27-1.23-.7-4.3.8-10.38 2.59-10.74-1.11-.35-3.54 5.38-4.12 9.94-3.73 1.44-.57 3.1-.87 3.1-.87s-10.39-3.03-14.98 2.27c0 0 .42-4.81-.27-8.97-.54-3.24-2.51-5.68-2.51-5.68s1.68 10.94-3.77 15.49c-2.4 2-.57 4.23-.57 4.23l.08-.06 2.53 20.38s2.88-1.4 4.99-2.65c-1.01-2.17-.85-4.13.32-5.19 2.17-1.17 3.21-.37 5.29.9 1.4 1.14 3.18 1.9 4.32 3.19 1.75.41 2.7.84 2.7.84s-6.55-5.94-5.46-7.63c1.39-2.18 6.86-.18 6.86-.18z" fill="url(#k)"/><path d="M-87.01-190.22c-4.86.36-10.5.46-10.17 4.18.32 3.6 4.66 2.55 9.63 2.47-1.6-1.23-3.08-2.57-3.12-3.31-.05-1 1.85-2.38 3.66-3.34z" fill="#43A047"/><linearGradient id="l" x1="-126.65" x2="-105.56" y1="-175.13" y2="-171.31" gradientUnits="userSpaceOnUse"><stop stop-color="#F44336" offset=".189"/><stop stop-color="#E2372E" offset=".474"/><stop stop-color="#B71C1C" offset=".996"/></linearGradient><path d="M-127.62-173.29c-.59-.23 2.28 3.11 4.86 3.55 2.58.45 11.53-.07 12.48-1.16s1.96-7.45-1.69-5.75-4.4 4.33-7.79 4.7c-3.77.42-4.82-.16-7.86-1.34z" fill="url(#l)"/><path d="M-112.1-180.66s2.41 1.49 1.82 5.97c-.58 4.48-.02 4.5.77 3.96.79-.53 3.98-6.88 3.46-8.1-.52-1.21-6.05-1.83-6.05-1.83z" fill="#A20821"/><radialGradient id="m" cx="-114.39" cy="-187.42" r="19.652" gradientUnits="userSpaceOnUse"><stop stop-color="#6BB828" offset=".384"/><stop stop-color="#59B323" offset=".543"/><stop stop-color="#2AA515" offset=".861"/><stop stop-color="#139E0F" offset="1"/></radialGradient><path d="M-107.1-192.71c-3.4-.04-7.32-.27-10.38 1.15-3.18 1.48-.42 3.39-1.64 4.61-1.2 1.2-2.65 2.01-4.98 2.12-3.02.14-4.02-1.7-6.09-.79s-3.82 2.97-3.76 8.59c.04 4.15.72 5.58.72 5.58s.18-8.34 12.04-8.28c9.35.05 9.89-1.26 14.92 1.32 0 0-2.32 7.65-6.04 7.72-3.73.07-7.36-.48-10.67 1.58s-5.54 3.45-5.54 3.45 2.04 1.9 3.25 1.59 5.38-2.9 9.95-3.08 6.57 2.01 10.9.82c9.43-2.6 4.41-9.5 5.03-11.45 1.85-5.78 2.15-8.28.21-11.08-3.04-4.34-5.04-3.82-7.92-3.85z" fill="url(#m)"/><path d="M-128.61-166.86c.57-.57 2.83-2.76 6.71-3.67 3.89-.92 7.98-.49 9.96-1.34s3.31-1.6 2.48-.47c-.84 1.14-1.06 1.35-2.57 1.64-1.97.38-6.27-.26-9.24.95-2.97 1.2-6.29 4.59-7.28 4.1-.98-.5-.06-1.21-.06-1.21z" fill="#A20821"/><path d="M-131.18-183.55c.11-.79 1.44-1.15 2.82-.19 1.07.74-.4 2.33-1.46 3.18-.18.14-.43-.06-.33-.26.28-.58.58-1.32.38-1.56-.74-.91-1.51-.43-1.41-1.17z" fill="#1B5E20"/><path d="M-128.18-166.61s-.71-.99-1.2-2.54c-.34-1.09-.31-1.57-.31-1.57l2.92 3.19-1.41.92z" fill="#BDBDBD"/><linearGradient id="n" x1="-115.41" x2="-83.154" y1="-189.02" y2="-189.02" gradientUnits="userSpaceOnUse"><stop stop-color="#FFF8E1" offset=".168"/><stop stop-color="#DDD0C2" offset=".52"/><stop stop-color="#C5B4AC" offset=".823"/><stop stop-color="#BCAAA4" offset=".998"/></linearGradient><path d="M-115.27-186.34c-1.13-2.83 4.4-6.99 11.94-6s12.06 2.66 15.29 2.34c1.98-.19 3.64-.53 4.63-.76.22-.05.35.24.16.37-1.21.79-3.73 2.05-7.57 2.01-5.57-.06-9.72-2.23-14.08-1.55-6.04.93-9.24 6.42-10.37 3.59z" fill="url(#n)"/><path d="M-105.58-191.64c.71 0 1.43.05 2.15.14 3.22.42 5.84.96 8.15 1.43 1.77.36 3.29.68 4.63.84h-.15c-2.45-.03-4.61-.47-6.7-.9-1.94-.4-3.77-.78-5.64-.78-.66 0-1.27.05-1.89.14-3.1.48-5.46 2.06-7.18 3.22-.82.55-1.74 1.17-2.11 1.17 0 0-.07-.05-.16-.28-.23-.59.06-1.21.34-1.63 1.09-1.62 4.24-3.35 8.56-3.35M-105.58-192.49c-6.35 0-10.7 3.61-9.68 6.15.23.57.54.8.94.8 1.59 0 4.61-3.65 9.43-4.39.59-.09 1.17-.13 1.76-.13 3.75 0 7.51 1.63 12.33 1.68h.18c3.73 0 6.2-1.23 7.38-2.01.18-.12.08-.38-.11-.38-.02 0-.03 0-.05.01-.99.23-2.65.57-4.63.76-.27.03-.55.04-.84.04-3.17 0-7.54-1.48-14.45-2.38-.78-.11-1.53-.15-2.26-.15z" fill="#424242" opacity=".2"/><path d="M-112.5-187.05c-.74.45-1.63 1.47-1.66 1.93-.06.76 2.25 1.44 4.17 1.04 2.33-.48 2.39-.88 3.32-1.82.16-.16-.85-1.21-1.64-1.55-1.2-.54-3.15-.23-4.19.4z" fill="#33691E"/><path d="M-108.2-186.22c.1.72-.92 1.46-2.28 1.66-1.35.2-2.53-.22-2.62-.94-.1-.72.92-1.46 2.28-1.66 1.35-.2 2.52.22 2.62.94z" fill="#64DD17"/><path d="M-110.17-185.92c.1.72-.04 1.33-.32 1.37-.27.04-.57-.51-.67-1.22-.1-.72.04-1.33.32-1.37s.58.51.67 1.22z"/><linearGradient id="o" x1="-111.15" x2="-100.29" y1="-184.42" y2="-184.42" gradientUnits="userSpaceOnUse"><stop stop-color="#43A047" offset="0"/><stop stop-color="#419A42" offset=".073"/><stop stop-color="#397F2E" offset=".433"/><stop stop-color="#356F22" offset=".753"/><stop stop-color="#33691E" offset="1"/></linearGradient><path d="M-111.12-183.96c1.7-.03 3.5-.78 4.15-1.66 1.18-1.61 1.85-2.86 5.25-2.23s2.37.58 2.37.58-4.27-.3-4.63.97c-.17.62.66 1.2 1.62 1.3 1.58.17 2.22.63-.04.63-1.28 0-2.56.57-2.21 1.18.64 1.13 3.3 1.8 4.36 1.8s-3.66 1.45-7.26-.32c-2.33-1.13-4.67-2.23-3.61-2.25z" fill="url(#o)"/><path d="M-91.1-195.51c-.01.14-.02.28-.02.43.01 1.19.49 2.3 1.49 3.39-.06.09-.11.19-.16.29-.65.06-1.26.32-1.75.76-.51.46-2.06 1.86-1.96 3.9.05 1.1.56 2.12 1.74 3.33-.46.37-.79.77-1.03 1.15-.49.77-1.43 2.22.51 5.37-2.91.37-6.58 1.54-8.96 4.84-.15.21-.27.44-.37.68-.42 1.1-2.12 1.78-3.46 2.15-.61.17-1.17.25-1.73.25-.89 0-1.73-.2-2.78-.46-1.39-.34-2.97-.72-5.04-.72-.22 0-.44 0-.67.01-.16.01-.31.01-.46.03.95-.56 1.71-1.22 2.38-1.81.8-.7 1.55-1.36 2.62-1.89a3.02 3.02 0 0 0 2.26-.36c.97-.59 1.52-1.68 1.43-2.8-.2-2.41-1.11-3.99-1.85-4.9a3.044 3.044 0 0 0-2.18-1.11c-.29-.01-.58-.02-.88-.02-.82 0-1.7.05-2.72.11l-.77.04a3.4 3.4 0 0 0-.71.12c-.19-.04-.39-.06-.6-.06h-.12c-.66.03-1.4.05-2.22.06-.25 0-.5.04-.74.11a.355.355 0 0 0-.1-.02c1.14-.49 2.17-1.21 3.13-2.16 1.44-1.44 1.27-3.19 1.08-4.14.2-.08.43-.16.69-.24.46-.14.86-.37 1.19-.68.37.16.77.24 1.17.24.08 0 .17 0 .25-.01.38-.03.77-.06 1.15-.07.49-.02.96-.15 1.38-.39.43.24.91.37 1.41.38h.38c.78 0 1.53-.3 2.09-.85.55-.54 1.28-1.33 2-2.34.24.06.48.09.71.09.88 0 1.75-.39 2.34-1.12.1-.12.19-.24.28-.36.3.71.86 1.29 1.6 1.61.38.16.78.24 1.17.24.85 0 1.68-.36 2.27-1.03 1.1-1.32 2.88-1.85 4.56-2.04m-37.75 12.65c.15.04.44.15.65.23.43.16.98.37 1.64.53-.67.17-1.31.38-1.92.62-.34.13-.64.32-.9.56-.35.06-.68.19-1 .37-.03.02-.07.04-.1.06.43-1.77 1.21-2.18 1.63-2.37M-105.55-210.18c-.25 0-.22.6.42 1.93.93 1.91 1.36 6.15.9 8.43-.71 3.54-2.74 5.95-3.91 7.09h-.34c.25-.72.73-1.46 1.12-2.05 0-.01-.01-.01-.02-.01-.22 0-2.11.65-2.24.72-.54.28-1.39.89-1.8 1.36-.43.02-.86.04-1.29.08.25-.72.73-1.45 1.12-2.04 0-.01-.01-.01-.02-.01-.22 0-2.11.65-2.24.72-.56.28-1.44.93-1.84 1.4-.18.22-.25.38-.24.5-.47.14-.94.31-1.38.51-3.18 1.48-.42 3.39-1.64 4.61-1.2 1.2-2.65 2.01-4.98 2.12-.11 0-.22.01-.32.01-2.2 0-3.29-1.06-4.64-1.06-.35 0-.72.07-1.14.25-2.07.91-3.82 2.97-3.76 8.59.04 4.15.72 5.58.72 5.58s.05-2.06 1.55-4.13c.13.42.36 1.05.8 1.84.55 1 .92 1.31.92 1.31l-.3-4.65c.37-.31.79-.6 1.25-.88.12.41.36 1.07.81 1.89.55 1 .92 1.31.92 1.31l-.25-3.92c.72-.29 1.53-.53 2.45-.71.13.42.37 1.02.78 1.76.55 1 .92 1.31.92 1.31l-.21-3.29c.71-.08 1.47-.12 2.29-.12h.55c.12.41.36 1.09.83 1.96.55 1 .92 1.31.92 1.31l-.21-3.28c.84-.01 1.6-.04 2.29-.06.14.41.37.99.75 1.68.55 1 .92 1.31.92 1.31l-.2-3.06c1.35-.07 2.41-.14 3.33-.14.25 0 .49.01.73.02.48.59 1.05 1.63 1.19 3.26-.19-.12-.41-.18-.68-.18-.3 0-.65.08-1.07.28-3.65 1.69-4.4 4.33-7.79 4.7-.83.09-1.52.13-2.14.13-2.19 0-3.35-.55-5.73-1.47-.02-.01-.03-.01-.05-.01-.31 0 1.81 2.44 4.03 3.31-.63.23-1.2.49-1.71.76l-1.82-2.54s-.07.4.1 1.33c.16.84.41 1.5.57 1.87-.27.18-.52.35-.74.52l-2.45-2.68s-.03.48.31 1.57c.3.96.69 1.7.94 2.13-.06.06-.13.12-.17.16 0 0-.92.71.07 1.2 0 0 1.75 1.63 2.96 1.63.1 0 .19-.01.28-.03 1.21-.31 5.38-2.9 9.95-3.08.19-.01.37-.01.55-.01 3.25 0 5.18 1.18 7.82 1.18.77 0 1.59-.1 2.52-.36 3.34-.92 4.86-2.38 5.47-3.96 2.23-3.1 6.32-3.75 8.99-3.75 1.06 0 1.9.1 2.31.2-.19-.21-.41-.4-.62-.6.22.19.43.38.62.6 1.75.41 2.7.84 2.7.84s-6.55-5.94-5.46-7.63c.49-.76 1.48-1 2.55-1 2 0 4.31.84 4.31.84s-2.07-1.32-3.97-2.78c-1.6-1.23-3.08-2.57-3.12-3.31-.02-.45.37-.99.97-1.53 3.21-.18 5.37-1.26 6.45-1.97.18-.12.08-.38-.11-.38-.02 0-.03 0-.05.01-.86.2-2.22.48-3.86.68.08-.05.17-.09.25-.14 1.18-.63 2.31-1.07 2.83-1.11 0 0-.54-.27-1.23-.7-1.21-.75-2.87-1.98-2.87-3.07 0-.74.97-1.34 2.08-1.77 1.44-.57 3.1-.87 3.1-.87s-2.96-.86-6.42-.86c-3.02 0-6.42.66-8.57 3.13 0 0 .42-4.81-.27-8.97-.54-3.24-2.51-5.68-2.51-5.68s1.42 9.27-2.61 14.29c.44-1.06.75-2.25.76-3.53.05-4.72-1.1-7.7-1.77-9.2-.45-1.06-.96-1.64-1.21-1.64z" fill="#424242" opacity=".2"/><path d="M-74.69-137.82c2.77-3.88 7.69-6.84 12.16-7.48 5.47-.78 9.08 1.78 12.39 5.13-.73-.74-3.82-13.96-11.31-25.08-7.29-10.83-13.7-14.44-15.92-15.35 6.99 10.99 9.36 23.04 6.72 33.73-.71 2.92-2.77 6.36-4.04 9.05z" fill="#93BF60"/><path d="M-46.73-141.84c.95-4.76 3.14-7.04 7.99-8.71 5.32-1.83 10.79 1.97 15.83 5.83-2.12-3.56-10.07-16.66-25.41-27.11-10.98-7.48-20.28-8.84-22.72-8.75 21.93 19.11 24.35 35.72 24.31 38.74zM-74.52-145.12c.53-2.25-.76-4.97-2.69-6.31s-5.19-2.36-7.06-.94c10.38-3.31 5.88-26.12 5.88-26.12s10.74 19.18 3.87 33.37z" fill="#93BF60"/><path d="M90.49 41.08c-.39-.31-.94-.04-1.39.16-1.52.64-3.28.25-4.83-.31s-3.1-1.3-4.75-1.32c-2.47-.04-4.65 1.49-6.95 2.41-.23.09-.47.17-.7.25 1.44-1.2 2.86-2.41 4.55-2.99 2.37-.81 4.84-.26 7.25-.01s5.14.08 6.98-1.79c.37-.38.71-.99.45-1.43-.19-.31-.6-.35-.94-.23s-.63.37-.93.57c-1.54 1.01-3.44.81-5.09.28-1.64-.53-3.22-1.35-4.95-1.48-2.81-.2-5.44 1.42-8.12 2.84 1.58-1.36 3.06-2.88 5.01-3.61 2.27-.84 4.79-.46 7.22-.34s5.13-.17 6.76-1.94c.33-.36.61-.93.3-1.31-.22-.27-.63-.29-.96-.17-.32.12-.58.36-.87.56-1.42.99-3.34.89-5.03.48-1.69-.4-3.35-1.08-5.09-1.11-.72-.01-1.41.08-2.09.25.52-.56 1.08-1.11 1.69-1.6.91-.08 1.83-.12 2.73-.19 1.67-.13 3.45-.48 4.77-1.36.05.02.11.03.16.04 2.69.81 5.22-.76 5.69-2.38-3.18.52-8.81-5.03-12.78-1.23-.17-1.12 1.21-2.24 2.29-2.57s2.71.35 3.84.37 1.67.04 2.48-.76c-3.43-.3-4.42-3-6.67-3.17.93-1.4 4.45-1.34 4.45-1.34s-1.7-2.16-3.99-2.52c-5.02-.79-6.36 2.97-7.2 4.92 0-1.82.9-3.63 2.36-4.72-2.12-.68-8.08 1.9-11.88 2.8-1.77.42-3.74.42-6.44-.15-2.5-.53-6-2.18-10.36-1.21-3.7.83-3.79 3.26-3.7 6.8-1.12.77-2.65 1.41-4.42 1.14-4.07-.62-4.94-4.31-9.01-3.72-2.73.4-3.74 9.22.35 10.91 1.07.66 4.02.85 4.99 1.05 1.03.22 2.71.19 3.76.1 1.96-.16 3.31-.29 5.26-.01 1.14.16 2.33.75 2.76 1.82.51 1.26-.2 2.74-1.28 3.57s-2.45 1.16-3.75 1.53c-1.31.37-2.66.83-3.58 1.84-.59.64-.96 1.46-1.55 2.12-.58.65-1.53 1.12-2.33.76-.5-.23-.89-.75-1.44-.73-.69.03-.99.92-.96 1.61.09 2.1 1.31 3.27 3.3 3.93.33.11.65.2.97.28.02.29.08.57.16.81.27.83.83 1.56 1.41 2.24 1.17 1.37 2.38 2.78 3.9 3.78 1.83 1.21 3 1.44 4.41 1.45-3.86-2.84-4-4.48-4.5-5.58l-.15-.3c.78.91 2.52 4.68 8.69 6.3 2.08.54 5.45 1.12 7.08-.25-2.43-.06-5.22-1.26-8.4-3.9-.85-.71-1.73-2.22-2.25-3.18.22.19 5.84 5.19 12.49 6.36 4.59.8 6.19.35 3.28-.86-2.76-1.15-7.75-3.83-9.66-6.06.5.31 1.06.64 1.63.97 1.95 1.3 3.98 2.53 7.59 3.02 3.05.41 4.68-.36 6.44.02 3.94.85 6.01 3.02 7.19 3.63.6.31.28-3.14-4.06-5.53 1.63-.7 3.25-1.42 5-1.65a9.31 9.31 0 0 1 5.78 1.11c-.9-2.06-3.07-3.33-5.28-3.77-1.58-.31-3.2-.26-4.82-.11 1.31-.59 2.56-1.31 3.84-1.98 1.88-.98 3.9-1.84 6.02-1.87 1.34-.02 2.66.29 4 .32 1.34.04 2.79-.26 3.68-1.26.39-.38.61-1.07.19-1.4z" fill="none" stroke="#176942" stroke-linecap="round" stroke-linejoin="round" stroke-miterlimit="10" stroke-width="2.139"/><linearGradient id="p" x1="45.808" x2="93.683" y1="41.855" y2="41.855" gradientTransform="rotate(6.667 209.7 12.163)" gradientUnits="userSpaceOnUse"><stop stop-color="#224A00" offset="0"/><stop stop-color="#204E03" offset=".221"/><stop stop-color="#1C5A0A" offset=".437"/><stop stop-color="#146D17" offset=".65"/><stop stop-color="#098829" offset=".86"/><stop stop-color="#009F38" offset="1"/></linearGradient><path d="M47.45 15.74c4.35-.97 7.86.68 10.36 1.21 2.7.57 4.68.57 6.44.15 3.81-.9 9.76-3.48 11.88-2.8-1.46 1.09-2.36 2.9-2.36 4.72.83-1.94 2.18-5.71 7.2-4.92 2.29.36 3.99 2.52 3.99 2.52s-3.52-.07-4.45 1.34c2.25.16 3.24 2.87 6.67 3.17-.81.8-1.35.78-2.48.76s-2.76-.7-3.84-.37-2.45 1.45-2.29 2.57c3.97-3.8 9.6 1.75 12.78 1.23-.47 1.62-3 3.19-5.69 2.38-7.22-2.17-10.25 4.95-13.02 7.17-2.85 2.27-6.63 3.33-10.24 2.88-3.61-.46-7.01-2.43-9.2-5.33-1.07-1.41-9.46-3.45-9.41-6.88.08-5.14-1.01-8.75 3.66-9.8z" fill="url(#p)"/><linearGradient id="q" x1="58.298" x2="93.498" y1="49.082" y2="49.082" gradientTransform="rotate(6.667 209.7 12.163)" gradientUnits="userSpaceOnUse"><stop stop-color="#224A00" offset="0"/><stop stop-color="#205004" offset=".041"/><stop stop-color="#12721A" offset=".313"/><stop stop-color="#088B2B" offset=".571"/><stop stop-color="#029A35" offset=".807"/><stop stop-color="#009F38" offset="1"/></linearGradient><path d="M90.34 30.79c-.22-.27-.63-.29-.96-.17-.32.12-.58.36-.87.56-1.42.99-3.34.89-5.03.48-1.69-.4-3.35-1.08-5.09-1.11-3.03-.06-5.62 1.78-8.32 3.25 1.24-1.35 2.38-2.8 4.03-3.64 1.99-1.01 4.37-.96 6.63-1.15 2.26-.18 4.72-.75 5.99-2.5.26-.36.44-.89.1-1.19-.24-.21-.63-.18-.91-.03s-.49.39-.73.59c-1.18 1.04-2.97 1.17-4.59 1.02-1.62-.16-3.24-.55-4.85-.38-4.41.48-7.19 4.94-11.5 5.94-1.83.42-3.76.18-5.62.44-1.55.22-3.64 1.07-4.07 2.66-.15.54.01.99.34 1.36-.18.21-.33.45-.44.71-.78 1.85 1.87 3.1 3.28 3.5 4.12 1.16 8.76.31 12.19-2.22 2.06-1.52 3.75-3.64 6.15-4.53 2.27-.84 4.79-.46 7.22-.34s5.13-.17 6.76-1.94c.33-.36.6-.93.29-1.31z" fill="url(#q)"/><linearGradient id="r" x1="54.641" x2="94.93" y1="59.695" y2="59.695" gradientTransform="rotate(6.667 209.7 12.163)" gradientUnits="userSpaceOnUse"><stop stop-color="#224A00" offset="0"/><stop stop-color="#275004" offset=".041"/><stop stop-color="#43721A" offset=".313"/><stop stop-color="#578B2B" offset=".571"/><stop stop-color="#649A35" offset=".807"/><stop stop-color="#689F38" offset="1"/></linearGradient><path d="M90.48 41.04c-.39-.31-.94-.04-1.39.16-1.52.64-3.28.25-4.83-.31s-3.1-1.3-4.75-1.32c-2.47-.04-4.65 1.49-6.95 2.41-.23.09-.47.17-.7.25 1.44-1.2 2.86-2.41 4.55-2.99 2.37-.81 4.84-.26 7.25-.01s5.14.08 6.98-1.79c.37-.38.71-.99.45-1.43-.19-.31-.6-.35-.94-.23s-.63.37-.93.57c-1.54 1.01-3.44.81-5.09.28-1.64-.53-3.22-1.35-4.95-1.48-4.74-.34-8.96 4.51-13.74 4.82-2.03.13-3.98-.57-6-.64-1.68-.06-4.11.55-5.03 2.39-.78 1.57.59 2.83 1.87 3.55-.52.26-1.05.49-1.6.67-.84.28-1.71.48-2.59.58-.76.09-1.87-.15-2.55.1.18.71 1.29 1.15 1.83 1.64.7.64 5.58 3.61 7.37 4.14 3.7 1.09 7.65 1.35 11.29.08 2.35-.83 4.57-2.14 7.05-2.47a9.31 9.31 0 0 1 5.78 1.11c-.9-2.06-3.07-3.33-5.28-3.77-1.58-.31-3.2-.26-4.82-.11 1.31-.59 2.56-1.31 3.84-1.98 1.88-.98 3.9-1.84 6.02-1.87 1.34-.02 2.66.29 4 .32 1.34.04 2.79-.26 3.68-1.26.38-.39.6-1.08.18-1.41z" fill="url(#r)"/><path d="M36.22 33.77c.68 1.21 1.86 2.39 2.58 3.45.56.83 1.13 1.83.81 2.77-.2.57-.69.99-1.08 1.46-.58.71-.78 1.98.3 2.35.48.17 1.01.05 1.46-.19 1.04-.56 1.73-1.12 2.89-1.52 1.28-.44 2.61-.76 3.94-.98 1.74-.29 1.93-1.58 2.31-3.12.5-2.02 1.47-4.26-.32-5.95-1.73-1.63-4.98-1.54-7.2-1.6-1.53-.04-3.07-.08-4.6-.13-1.46-.04-1.85 1.27-1.5 2.49.08.33.23.65.41.97z" fill="#C1272D"/><path d="M32.24 37.57c1.12.24 2.14.81 3.26 1.05 1.68.36 3.42-.05 4.97-.67s2.99-1.46 4.58-2.01 3.4-.79 5.01-.2c.63.23 1.28.69 1.32 1.31.04.71-.75 1.21-1.5 1.27-.76.06-.86.25-1.62.2-1.67-.12-3.04.5-4.47 1.25s-3.49 1.68-5.15 1.79c-1.29.09-2.83-.69-4.07-1.08-1.25-.39-2.5-.83-3.8-.93-.96-.07-1.97.07-2.79.53-.37.21-1.32 1.45-1.68.99-.33-.43.38-1.47.63-1.77.58-.69 1.39-1.21 2.26-1.52.96-.33 2.03-.43 3.05-.21z" fill="#EF5350" stroke="#C1272D" stroke-linecap="round" stroke-linejoin="round" stroke-miterlimit="10" stroke-width="1.069"/><path d="M38.04 37.19c.11-.03.28-2.01.46-3.48.03-.27.39-.36.54-.13.01.02.03.04.04.06.41 1.35.76.37 1.02.02.06-.08.12-.17.18-.25a.3.3 0 0 1 .51.04c.07.15.14.28.23.42.12.19.4.18.51-.02l.24-.45c.1-.18.34-.21.47-.06l.54.56a.3.3 0 0 0 .45-.02l.37-.47c.17-.22.52-.1.53.18.02.97.15 1.93.39 2.87.07.27.44.3.56.05l1.56-3.49c.1-.21.19-.44.16-.68-.05-.38-.41-.63-.76-.78-1.26-.54-2.7-.38-4.06-.18s-2.78.42-4.08-.02c-.35-.12-.68-.28-1.04-.38-.43-.12-1.61-.48-1.66.09-.03.33.04.75.27 1.53.34 1.19 1.8 4.76 2.57 4.59z" fill="#E6E6E6" stroke="#BDBDBD" stroke-linecap="round" stroke-linejoin="round" stroke-miterlimit="10" stroke-width=".535"/><linearGradient id="s" x1="57.772" x2="62.228" y1="62.501" y2="70.076" gradientTransform="rotate(6.667 209.7 12.163)" gradientUnits="userSpaceOnUse"><stop stop-color="#70A336" offset="0"/><stop stop-color="#89B754" offset=".262"/><stop stop-color="#9DC86D" offset=".538"/><stop stop-color="#AAD27C" offset=".792"/><stop stop-color="#AED581" offset="1"/></linearGradient><path d="M70.75 51c-1.81-.76-4.28-1.12-6.14-1.73-3.85-1.27-4.56-1.88-6.61-3.66-.93-.8-1.54-1.63-2.84-1.14-1.3.48-2.56 1.19-3.81 1.81-.94-.53-2.06-.73-3.15-.69-.9.03-2 .13-2.85.46-.33.13-.49.29-.55.47-1.06.3-2.11.59-3.17.89-.39.11-1.24.16-1.38.6-.05.18.07.48.22.76-.67-.74-1.62-1.5-2.59-1.53-1.22-.03-1.18 1.45-.89 2.33.27.83.83 1.56 1.41 2.24 1.17 1.37 2.38 2.78 3.9 3.78 1.83 1.21 3 1.44 4.41 1.45-3.86-2.84-4-4.48-4.5-5.58l-.15-.3c.78.91 2.52 4.68 8.69 6.3 2.08.54 5.45 1.12 7.08-.25-2.43-.06-5.22-1.26-8.4-3.9-.85-.71-1.73-2.22-2.25-3.18.22.19 5.84 5.19 12.49 6.36 4.59.8 6.19.35 3.28-.86-2.87-1.19-8.14-4.03-9.88-6.31 2.67 1.69 4.69 3.6 9.43 4.24 3.05.41 4.68-.36 6.44.02 3.94.85 6.01 3.02 7.19 3.63.68.32.24-3.86-5.38-6.21z" fill="url(#s)"/><path d="M46 46.74c3.29.45 1.88 1.19 5.77 1.23 7.35.07 5.57-3.44 7.31-4.43.99-.56 2.06-1.22 2.41-2.3.28-.87.04-1.87.44-2.69.3-.62.91-1.02 1.45-1.46s1.05-1.02 1.04-1.71c-.03-1.53-2.5-2.16-2.45-3.69.03-1.04 1.27-1.75 1.28-2.79.01-.8-.71-1.39-1.37-1.86-1.3-.93-2.6-1.86-3.89-2.79-1.09-.78-2.27-1.59-3.61-1.67s-2.84.92-2.76 2.26c.04.76.56 1.41 1.16 1.87s1.3.78 1.92 1.22c1.54 1.08 2.54 2.89 2.63 4.77s-.72 3.78-2.14 5.01c-3.19 2.76-8.28 1.73-11.88 3.92-.92.56-1.71 1.32-2.57 1.97-1.29.98-5.51 1.79-4.31 4.04 1.05 1.96 2.46 2.11 3.59 1.99 2.07-.23 3.56-3.23 5.98-2.89z" fill="#66BB6A"/><linearGradient id="t" x1="55.264" x2="66.649" y1="39.164" y2="33.976" gradientTransform="rotate(6.667 209.7 12.163)" gradientUnits="userSpaceOnUse"><stop stop-color="#826648" offset="0"/><stop stop-color="#C69C6D" offset="1"/></linearGradient><path d="M64.73 16.08c1.42-1.5 1.78-3.41 2.39-4.05.61-.65 1.59-1.08 2.31-.56 1.19.85-.85 4.44-2 6.09 2.61-.24 6.01-2.16 7.45-3.87.9-1.07 1.94-2.54 3.29-2.16 1.07.3 1.7 1.62 1.27 2.65s-1.77 2.53-2.7 3.14c-6.04 3.95-12.31 4.56-19.79 6.51-.95.25-6.75-3.72-3.93-3.75 3.81-.03 8.89-1.03 11.71-4z" fill="url(#t)" stroke="#8C6239" stroke-miterlimit="10" stroke-width="1.153"/><path d="M35.78 38.84c.1.28.18 2.23.89 3.07-.39-.13.23-2.67.64-2.68.2 0 .86 1.3 1.18 1.41-.39-.47-.05-2.12.38-2.38.22-.14.88.91 1 1.13-.03-.8.13-1.9.73-2.32.38.19.55.92.88 1.36.29-.55.76-1.22 1.05-1.77.13-.24.11-.38.38-.42.35-.06.62.3.79.61.23.4.46.81.57 1.26s.09.95-.16 1.34c-.32.5-.92.71-1.47.94-1.4.57-2.68 1.42-3.75 2.49-.46.45-.88.95-1.38 1.35-.93.75-2.85 1.21-3.49-.19-.23-.51-.08-1.25 0-1.78.16-.91 1.19-3.1 1.76-3.42z" fill="#E6E6E6" stroke="#BDBDBD" stroke-linecap="round" stroke-linejoin="round" stroke-miterlimit="10" stroke-width=".535"/><linearGradient id="u" x1="34.658" x2="65.148" y1="34.669" y2="65.89" gradientTransform="rotate(6.667 209.7 12.163)" gradientUnits="userSpaceOnUse"><stop stop-color="#00AD27" offset="0"/><stop stop-color="#006837" offset="1"/></linearGradient><path d="M62.94 26.23c-.1-.56-.43-1.15-.97-1.32-.54-.18-1.16-.23-1.59-.59-.56-.47-.48-.8-.1-1.42s3.65-.86 4.32-.58c-.7-1.09-5.59-2.7-10.02-1.31.63-.68 2.96-1.63 3.59-2.32-2.57-.16-6.64.51-8.5 2.31.2-.72 1.96-2.7 2.16-3.42-1.07-.16-5.6 2.38-6.25 3.25s-3.05 3.33-6.24 2.84c-4.56-.7-5.15-4.28-9.01-3.72-2.73.4-3.74 9.22.35 10.91 1.07.66 4.02.85 4.99 1.05 1.03.22 2.71.19 3.76.1 1.96-.16 3.31-.29 5.26-.01 1.14.16 2.33.75 2.76 1.82.51 1.26-.2 2.74-1.28 3.57s-2.45 1.16-3.75 1.53c-1.31.37-2.66.83-3.58 1.84-.59.64-.96 1.46-1.55 2.12-.58.65-1.53 1.12-2.33.76-.5-.23-.89-.75-1.44-.73-.69.03-.99.92-.96 1.61.09 2.1 1.31 3.27 3.3 3.93s3.97.85 5.3-.77c.56-.68-.35-2.51 1.8-3.55 4.79-2.32 9.77.07 12.74-1.23 4.4-1.92 4.22-3.34 3.34-11.86-.2-1.93 1.56-2.74 2.78-3.27.6-.24 1.24-.88 1.12-1.54z" fill="url(#u)"/><path d="M30.8 21.77c-.25.15-.41.43-.41.72 0 .44.33.81.62 1.14.3.33.59.74.51 1.17-.06.29-.27.52-.42.77s-.23.61-.02.82c.13.14.34.17.52.13s.34-.15.49-.27c.52-.4.96-.91 1.2-1.52s.25-1.31-.03-1.9c-.22-.44-.61-.79-1.08-.94-.43-.13-.96-.36-1.38-.12z" fill="#003B1F"/><linearGradient id="v" x1="55.908" x2="32.434" y1="3.708" y2="30.574" gradientTransform="rotate(1.467 301.861 105.128)" gradientUnits="userSpaceOnUse"><stop stop-color="#AED581" offset="0"/><stop stop-color="#AAD27C" offset=".208"/><stop stop-color="#9DC86D" offset=".462"/><stop stop-color="#89B754" offset=".738"/><stop stop-color="#70A336" offset="1"/></linearGradient><path d="M37.17 25.3c-.36 0-.68-.2-.84-.51a.947.947 0 0 1 .41-1.27s.16-.07.16-.08c.07-.03.14-.1.17-.18.07-.13.16-.36.14-.75-.01-.15-.04-.27-.07-.38-.02-.06-.04-.13-.07-.18-.04-.08-.05-.11-.11-.22-.15-.26-.42-.6-.76-.93-.11-.12-.24-.24-.38-.38-.24-.24-.51-.5-.79-.82a6.85 6.85 0 0 1-1.1-1.72c-.63-1.42-.8-3.01-.46-4.48.05-.21.1-.38.17-.61l.09-.25c.02-.06.12-.3.12-.3.18-.4.37-.75.61-1.1.49-.72 1.09-1.33 1.8-1.82.71-.5 1.57-.88 2.41-1.06.52-.11 1.06-.17 1.61-.17.36 0 .71.02 1.06.06 1.8.22 3.43.88 4.92 1.57l.71.33c1.31.61 2.55 1.19 3.83 1.54.19.05.38.1.58.14l.28.06.3.05c.4.06.79.09 1.13.09.82 0 1.56-.11 2.21-.34.68-.22 1.3-.6 1.8-1.09.48-.47.81-1.05.99-1.72.16-.63.16-1.3-.02-1.88-.19-.59-.53-1.08-.99-1.41-.49-.35-1.09-.55-1.7-.55-.46 0-.89.11-1.22.32l-.09.06c-.02.02-.04.03-.07.05v.01c-.04.03-.1.08-.1.08a.7.7 0 0 0-.15.14l-.08.1c-.13.15-.24.36-.3.51-.17.43-.19.83-.18 1.09.05.78.42 1.24.58 1.4.18.17.33.25.39.29.01.01.03.02.05.03.1.05.14.16.09.26-.03.07-.1.11-.18.11l-.24-.1c-.08-.04-.19-.11-.41-.3-.15-.14-.66-.69-.74-1.65-.04-.45.02-.89.17-1.3.1-.24.2-.45.38-.67l.16-.18.18-.17.09-.07.19-.13c.44-.28.99-.44 1.58-.44.69 0 1.39.22 1.97.61.57.37 1.05 1.01 1.28 1.7.24.71.27 1.49.09 2.26-.09.39-.23.77-.42 1.11-.19.36-.41.67-.72 1-.57.59-1.29 1.06-2.08 1.34-.74.28-1.57.43-2.49.46h-.16c-.37 0-.75-.02-1.14-.07l-.47-.07-.15-.03c-.21-.04-.42-.09-.63-.14-1.39-.35-2.7-.91-3.97-1.46l-.78-.34c-1.27-.55-2.94-1.2-4.6-1.34a8.02 8.02 0 0 0-.7-.03c-.54 0-1.05.06-1.51.18a5.478 5.478 0 0 0-3.31 2.39c-.16.25-.32.55-.45.86-.05.11-.07.16-.08.22l-.08.26c-.04.14-.08.31-.11.45-.23 1.12-.07 2.38.45 3.45.22.46.48.84.87 1.27.22.23.46.46.71.69.14.13.29.27.43.41.34.33.74.74 1.06 1.26.05.07.14.23.2.35.07.13.12.26.16.39.08.23.13.48.17.75.11.86-.15 1.77-.66 2.31-.15.15-.22.23-.34.31-.11.08-.24.16-.27.17l-.15.08c-.14.08-.28.12-.43.12z" fill="url(#v)"/><path d="M55.47 4.65c.63 0 1.28.2 1.83.57.52.34.95.92 1.16 1.55.22.66.25 1.39.08 2.11-.09.37-.22.72-.39 1.05-.18.33-.38.62-.67.93-.54.56-1.22 1-1.98 1.28-.7.27-1.51.41-2.39.44h-.16c-.36 0-.73-.02-1.09-.07l-.45-.06-.17-.03c-.21-.04-.41-.09-.61-.13-1.37-.34-2.67-.9-3.93-1.45-.26-.11-.52-.23-.78-.33-1.29-.56-2.99-1.21-4.68-1.37-.24-.02-.48-.03-.72-.03-.56 0-1.09.06-1.57.18-.74.18-1.4.49-2.01.95-.58.42-1.08.97-1.46 1.56-.18.27-.35.6-.48.93l-.02.05c-.02.05-.04.1-.06.17l-.09.26c0 .01-.01.05-.02.06-.03.12-.08.29-.1.41-.24 1.18-.07 2.5.47 3.62.23.48.5.89.92 1.35.22.24.47.47.72.71.14.13.28.26.42.4.33.32.71.72 1.03 1.23.03.04.12.2.17.32.06.12.11.24.15.36.07.21.12.44.15.7.12.95-.24 1.72-.56 2.07l-.08.08c-.09.09-.15.15-.25.21-.08.06-.18.12-.23.14-.01 0-.01.01-.02.01l-.14.07c-.1.05-.2.07-.3.07a.66.66 0 0 1-.59-.36c-.17-.33-.04-.73.31-.91l.09-.04a.3.3 0 0 0 .08-.04c.12-.06.21-.17.27-.29.09-.17.19-.46.16-.9-.02-.17-.04-.3-.08-.43-.02-.07-.05-.15-.1-.26-.02-.05-.04-.08-.11-.2-.16-.29-.45-.64-.8-.99-.12-.12-.24-.25-.38-.38-.24-.24-.51-.5-.78-.81-.44-.51-.82-1.1-1.06-1.65a6.869 6.869 0 0 1-.44-4.3c.05-.2.09-.36.16-.58l.09-.26c.02-.06.05-.13.08-.2l.03-.08c.17-.39.36-.73.59-1.07.46-.69 1.05-1.27 1.74-1.75.68-.48 1.5-.84 2.31-1.01.5-.11 1.02-.16 1.55-.16.33 0 .67.02 1.02.06 1.77.21 3.44.9 4.84 1.55l.71.33c1.32.62 2.57 1.2 3.88 1.56.2.05.39.1.58.14l.16.04.14.02.32.06c.4.06.8.09 1.17.09.85 0 1.62-.12 2.28-.35.72-.24 1.38-.64 1.91-1.16.51-.51.86-1.13 1.06-1.85.18-.67.17-1.39-.02-2.03-.2-.65-.58-1.19-1.09-1.54-.54-.39-1.2-.61-1.87-.61-.18 0-.35.02-.52.05.21-.04.41-.06.62-.06m0-.55c-.63 0-1.24.17-1.73.49l-.19.13-.05.03-.06.06-.07.06c-.05.05-.09.07-.14.13l-.16.2c-.2.25-.31.49-.42.74-.18.5-.23.99-.19 1.42.07.87.48 1.5.84 1.83.19.16.34.27.45.33s.17.09.17.09c.07.03.14.05.2.05a.473.473 0 0 0 .21-.9c.01-.01-.15-.06-.36-.26-.2-.21-.46-.61-.5-1.22-.02-.3.02-.64.16-.97.07-.15.16-.33.27-.45l.07-.09c.03-.03.09-.08.13-.12l.07-.06.01-.01c.02-.02.03-.02.03-.02l-.04.04.15-.1c.29-.18.67-.28 1.07-.28.52 0 1.07.16 1.54.5.42.3.72.73.89 1.26.16.53.17 1.14.02 1.73-.16.6-.45 1.14-.91 1.6a4.3 4.3 0 0 1-1.7 1.02c-.65.23-1.38.32-2.11.32-.37 0-.75-.04-1.09-.09l-.3-.05-.13-.02-.14-.03c-.19-.04-.37-.09-.56-.14-1.49-.41-2.96-1.15-4.5-1.86s-3.2-1.38-5.01-1.6c-.36-.04-.72-.07-1.09-.07-.55 0-1.11.05-1.67.18a6.9 6.9 0 0 0-2.51 1.1c-.75.52-1.38 1.16-1.87 1.89-.25.37-.46.73-.64 1.16-.04.1-.1.22-.13.31l-.09.26c-.08.25-.13.42-.18.64-.38 1.66-.13 3.3.47 4.65.29.67.73 1.31 1.15 1.79.44.5.85.87 1.18 1.21.33.33.58.64.72.88.07.12.07.13.1.19.02.05.04.1.06.16.03.11.05.22.06.32.03.39-.09.59-.14.64.01 0 .02-.01.03-.01 0 0 0 .01-.04.02h-.01l-.01.01v-.01c-.08.04-.13.06-.13.06-.01 0-.02.01-.03.02a1.216 1.216 0 0 0 .56 2.3c.19 0 .38-.04.56-.13 0 0 .05-.02.14-.07.01 0 .18-.1.32-.2.16-.11.25-.21.39-.35.51-.55.85-1.5.73-2.54-.03-.26-.09-.53-.18-.81-.05-.14-.1-.28-.17-.42-.06-.13-.17-.31-.21-.38-.32-.52-.7-.93-1.1-1.32-.4-.38-.8-.73-1.13-1.09-.33-.37-.6-.73-.83-1.21-.45-.93-.67-2.11-.43-3.27.02-.14.07-.31.1-.41l.09-.26c.03-.09.05-.13.08-.2.1-.26.25-.55.42-.81.34-.53.79-1.02 1.33-1.42s1.13-.69 1.82-.86c.45-.11.94-.17 1.44-.17.22 0 .45.01.67.03 1.49.13 3 .67 4.51 1.32 1.52.65 3.09 1.39 4.79 1.81.21.05.43.1.64.14l.14.06.17.03.31.04c.41.05.79.07 1.18.07h.17c.88-.02 1.76-.16 2.58-.47a5.8 5.8 0 0 0 2.19-1.42c.3-.33.54-.65.76-1.05.2-.38.35-.78.44-1.18.18-.81.15-1.65-.1-2.41s-.76-1.44-1.39-1.85a3.84 3.84 0 0 0-2.14-.66zM36.79 23.17l-.01.01c.01 0 .01 0 .01-.01zm-.01.01s-.01.01 0 0c-.01.01-.01.01 0 0z" fill="#388E3C"/><path d="M55.46 23.04s-4.5 5.4-6.46 5.7-3.79-1.05-4.08-3.01a3.576 3.576 0 0 1 3.01-4.08c1.95-.3 7.53 1.39 7.53 1.39z" fill="#fff"/><ellipse transform="rotate(-8.622 47.776 25.398)" cx="47.77" cy="25.39" rx="2.6" ry="2.6" fill="#40C4FF"/><ellipse transform="rotate(-53.617 47.104 25.345)" cx="47.11" cy="25.35" rx="1.69" ry="1.69"/><linearGradient id="w" x1="39.436" x2="47.251" y1="23.09" y2="23.09" gradientTransform="matrix(1.0699 .2845 -.4013 .9775 15.627 -14.125)" gradientUnits="userSpaceOnUse"><stop stop-color="#00AD27" offset="0"/><stop stop-color="#006837" offset="1"/></linearGradient><path d="M51.2 23.36c1.96-.52 6.73-3.57 6.96-4.51.16-.67-2.09-.71-3.16-.55-2.12.32-6.03 1.35-7.05 2.95-1.09 1.7.71 2.78 3.25 2.11z" fill="url(#w)"/><linearGradient id="x" x1="44.161" x2="51.977" y1="20.477" y2="20.477" gradientUnits="userSpaceOnUse"><stop stop-color="#00AD27" offset="0"/><stop stop-color="#006837" offset="1"/></linearGradient><path d="M47.67 23.24c1.47-.96 4.44-4.94 4.3-5.87-.09-.66-2-.14-2.85.27-1.68.81-4.61 2.72-4.92 4.45-.33 1.83 1.56 2.39 3.47 1.15z" fill="url(#x)"/><path d="M376.91 66.6L391 75.32l-8.43 3.81s-5.33-12.41-5.66-12.53z" fill="#33691E"/><path d="M47.25 68.08c-.42 2.25-.33 3.17 1.42 5.33M53.92 63.58c-.45 2.15.14 3.65 2.08 4.67M62.25 60c.06 1.9.55 3.16 2.25 4M39.33 76.83c-.25 2.26.59 3.96 2.59 5.05-.14-.02-.28-.03-.43-.05M35.92 89.58c.83 1.92 2.17 2.6 4.25 2.83M39.92 104.08c1.75.25 3.32.62 4.63-.89M46.58 111.17c1.98.46 2.72.17 4.25-1.17" fill="none" stroke="#689F38" stroke-linecap="round" stroke-linejoin="round" stroke-miterlimit="10" stroke-width="2"/></svg>