<svg viewBox="0 0 128 128" xmlns="http://www.w3.org/2000/svg" xmlns:xlink="http://www.w3.org/1999/xlink"><path d="M42.29 13.44s15.4.97 13.89 15.56M86.06 13.44s-15.4.97-13.89 15.56" fill="none" stroke="#000" stroke-linecap="round" stroke-linejoin="round" stroke-miterlimit="10" stroke-width="2"/><linearGradient id="a" x1="56.97" x2="81.791" y1="72.186" y2="105.99" gradientUnits="userSpaceOnUse"><stop stop-color="#FFD54F" offset=".001"/><stop stop-color="#FFD045" offset=".212"/><stop stop-color="#FFC428" offset=".576"/><stop stop-color="#FFB300" offset="1"/></linearGradient><path d="M89.14 83.2c0 14.38-25.01 33.75-25.01 33.75s-25-19.37-25-33.75 11.2-26.04 25.01-26.04 25 11.66 25 26.04z" fill="url(#a)"/><ellipse cx="64" cy="52.6" rx="21.27" ry="13.21"/><defs><path id="b" d="M89.25 83.18c0 14.45-25.11 33.9-25.11 33.9s-25.11-19.45-25.11-33.9 11.24-26.16 25.11-26.16 25.11 11.72 25.11 26.16z"/></defs><clipPath id="c"><use xlink:href="#b"/></clipPath><path clip-path="url(#c)" d="M31.93 70.03h64.42v9.7H31.93zM31.47 86.73h64.42v9.7H31.47zM31.93 103.91h64.42v13.57H31.93z"/><path d="M60.26 112.29l3.88 12.05 3.87-11.88z"/><path d="M63.91 46.48c6.7 0 12.36 3.69 12.36 8.05 0 1.86-1.04 3.32-1.91 4.22a3.02 3.02 0 0 0 .6 4.69c6.95 4.22 11.27 11.9 11.27 20.02 0 3.97-2.72 12.96-20.96 28.63-.42.36-.73.83-.91 1.36l-.4 1.22-.37-1.16a3.04 3.04 0 0 0-.91-1.37c-12.97-11.13-20.71-21.89-20.71-28.78 0-8.15 4.19-15.77 10.92-19.89.79-.48 1.31-1.29 1.43-2.21.11-.92-.19-1.83-.84-2.49-.88-.91-1.94-2.38-1.94-4.24.01-4.36 5.67-8.05 12.37-8.05m0-3.03c-8.5 0-15.39 4.96-15.39 11.08 0 2.37 1.04 4.56 2.8 6.36-7.4 4.52-12.37 12.89-12.37 22.47 0 11.15 15.01 25.28 21.77 31.08l3.24 10.06 3.3-10.11c6.79-5.83 22.01-19.81 22.01-30.93 0-9.61-5.3-18.09-12.73-22.61 1.74-1.79 2.77-3.97 2.77-6.33-.01-6.11-6.9-11.07-15.4-11.07z" fill="#616161"/><linearGradient id="d" x1="64.015" x2="64.015" y1="20.661" y2="50.326" gradientUnits="userSpaceOnUse"><stop stop-color="#FFD54F" offset=".001"/><stop stop-color="#FFD045" offset=".212"/><stop stop-color="#FFC428" offset=".576"/><stop stop-color="#FFB300" offset="1"/></linearGradient><path d="M64.01 50.64c-10.77 0-18.82-8.54-18.82-16.17 0-7.85 8.44-14.23 18.82-14.23s18.82 6.38 18.82 14.23c0 7.63-8.04 16.17-18.82 16.17z" fill="url(#d)"/><path d="M64.01 21.83c9.5 0 17.23 5.67 17.23 12.64 0 3.34-1.84 7-4.93 9.8-3.4 3.08-7.77 4.78-12.29 4.78-4.53 0-8.9-1.7-12.29-4.78-3.09-2.8-4.93-6.46-4.93-9.8-.01-6.97 7.72-12.64 17.21-12.64m0-3.19c-11.27 0-20.41 7.08-20.41 15.82s9.14 17.76 20.41 17.76 20.41-9.02 20.41-17.76c0-8.73-9.13-15.82-20.41-15.82z" fill="#F9A825"/><linearGradient id="e" x1="36.691" x2="36.691" y1="39.092" y2="99.882" gradientTransform="rotate(8.36 35.41 62.103)" gradientUnits="userSpaceOnUse"><stop stop-color="#eee" offset="0"/><stop stop-color="#E4E4E4" offset=".304"/><stop stop-color="#C8C8C8" offset=".829"/><stop stop-color="#BDBDBD" offset="1"/></linearGradient><path d="M21.25 90.4c-4 0-6.98-2.19-9.11-6.69-1.98-4.19-1.99-7.75-.02-10.87 3.54-5.59 13.55-9.77 28.95-12.09C49.24 59.52 56.95 59.13 61 59c-2.5 3.12-7.35 8.94-13.13 14.72C36.95 84.63 27.75 90.4 21.25 90.4c0 0 .01 0 0 0z" fill="url(#e)"/><path d="M57.99 60.51c-8.97 10.82-25.87 28.48-36.73 28.48-2.17 0-5.34-.61-7.84-5.89-1.76-3.72-1.79-6.83-.1-9.51 5.91-9.34 30.45-12.41 44.67-13.08m5.96-2.98s-65.76-.01-53.08 26.77c2.53 5.36 6.18 7.5 10.39 7.5 16.83.01 42.69-34.27 42.69-34.27z" fill="#BDBDBD"/><linearGradient id="f" x1="31.83" x2="31.83" y1="37.724" y2="97.041" gradientTransform="rotate(12.592 35.091 57.628)" gradientUnits="userSpaceOnUse"><stop stop-color="#eee" offset="0"/><stop stop-color="#E4E4E4" offset=".304"/><stop stop-color="#C8C8C8" offset=".829"/><stop stop-color="#BDBDBD" offset="1"/></linearGradient><path d="M24.75 62.78c-8.91 0-14.89-1.76-17.78-5.24-1.92-2.31-2.49-5.37-1.75-9.36 1.25-6.71 5.2-9.97 12.08-9.97 14.23 0 36.03 13.89 43.26 18.77-6.42 1.77-22.51 5.8-35.81 5.8z" fill="url(#f)"/><path d="M17.29 39.62c12.44 0 31.05 11.06 39.87 16.81-7.52 1.94-21.02 4.95-32.41 4.95-8.35 0-14.12-1.64-16.7-4.74-1.64-1.97-2.11-4.65-1.45-8.2 1.14-6.1 4.43-8.82 10.69-8.82m0-2.82c-6.75 0-11.94 2.96-13.46 11.13C1.48 60.56 11.94 64.2 24.75 64.2c17.36 0 39.05-6.68 39.05-6.68S35.13 36.8 17.29 36.8z" fill="#BDBDBD"/><linearGradient id="g" x1="76.865" x2="76.865" y1="38.93" y2="99.716" gradientTransform="scale(-1 1) rotate(8.36 -48.641 -1087.917)" gradientUnits="userSpaceOnUse"><stop stop-color="#eee" offset="0"/><stop stop-color="#E4E4E4" offset=".304"/><stop stop-color="#C8C8C8" offset=".829"/><stop stop-color="#BDBDBD" offset="1"/></linearGradient><path d="M106.24 90.4c-6.5 0-15.72-5.78-26.66-16.72C73.82 67.92 68.99 62.11 66.49 59c9.87.31 41.53 2.22 48.88 13.84 1.97 3.12 1.97 6.67-.02 10.87-2.12 4.5-5.1 6.69-9.11 6.69z" fill="url(#g)"/><path d="M69.53 60.53c4.27.21 10.35.66 16.71 1.61 14.75 2.22 24.67 6.29 27.94 11.45 1.69 2.68 1.66 5.79-.1 9.51-2.5 5.28-5.67 5.89-7.84 5.89-10.85 0-27.74-17.63-36.71-28.46m-5.98-3S89.41 91.8 106.24 91.8c4.21 0 7.85-2.14 10.39-7.5 12.67-26.76-53.02-26.77-53.08-26.77z" fill="#BDBDBD"/><linearGradient id="h" x1="71.458" x2="71.458" y1="37.269" y2="96.586" gradientTransform="scale(-1 1) rotate(12.592 -48.966 -704.23)" gradientUnits="userSpaceOnUse"><stop stop-color="#eee" offset="0"/><stop stop-color="#E4E4E4" offset=".304"/><stop stop-color="#C8C8C8" offset=".829"/><stop stop-color="#BDBDBD" offset="1"/></linearGradient><path d="M102.75 62.78c-13.31 0-29.39-4.03-35.8-5.8 7.23-4.89 29.03-18.78 43.26-18.78 6.88 0 10.83 3.26 12.08 9.97.74 3.99.17 7.05-1.75 9.36-2.9 3.49-8.88 5.25-17.79 5.25z" fill="url(#h)"/><path d="M110.21 36.8v2.82c6.26 0 9.55 2.72 10.69 8.82.66 3.55.19 6.23-1.45 8.2-2.58 3.1-8.35 4.74-16.7 4.74-11.39 0-24.89-3.01-32.41-4.95 8.82-5.74 27.43-16.81 39.87-16.81V36.8c-17.84 0-46.5 20.72-46.5 20.72s21.68 6.68 39.05 6.68c12.81 0 23.27-3.64 20.92-16.27-1.53-8.17-6.73-11.13-13.47-11.13z" fill="#BDBDBD"/><circle cx="54.15" cy="33.64" r="6.18" fill="#fff"/><ellipse transform="rotate(-57.173 54.147 33.64)" cx="54.15" cy="33.64" rx="2.82" ry="2.82"/><circle cx="74.04" cy="33.64" r="6.18" fill="#fff"/><ellipse transform="rotate(-57.173 74.034 33.641)" cx="74.04" cy="33.64" rx="2.82" ry="2.82"/><circle cx="40.24" cy="12.82" r="2.8" fill="#E6E7E8" stroke="#231F20" stroke-linecap="round" stroke-miterlimit="10"/><circle cx="87.26" cy="12.82" r="2.8" fill="#E6E7E8" stroke="#231F20" stroke-linecap="round" stroke-miterlimit="10"/></svg>