<svg viewBox="0 0 128 128" xmlns="http://www.w3.org/2000/svg"><linearGradient id="a" x1="13.295" x2="26.605" y1="7.702" y2="22.893" gradientUnits="userSpaceOnUse"><stop stop-color="#ECEFF1" offset=".2"/><stop stop-color="#E2E3E2" offset=".277"/><stop stop-color="#B9B2A3" offset=".619"/><stop stop-color="#A0937C" offset=".87"/><stop stop-color="#96876D" offset="1"/></linearGradient><path d="M11.48 29.92c-1.92-3.64-5.83-12.3-2.86-17.52 2.79-4.88 10.39-6.66 14.82-6.66.55 0 1.05.03 1.46.08 4.94.67 10.9 4.5 14.01 6.83-12.22 3.34-21.92 11.6-27.43 17.27z" fill="url(#a)"/><path d="M23.44 7.23c.61 0 1.02.04 1.26.07 3.5.47 7.73 2.79 10.86 4.83-10.16 3.51-18.39 10.11-23.69 15.28-1.98-4.23-4.07-10.57-1.95-14.28 2.45-4.3 9.6-5.9 13.52-5.9m0-2.98c-4.55 0-12.89 1.76-16.11 7.41-4.29 7.52 3.63 20.42 3.84 20.75 8.03-8.7 18.92-16.59 30.96-18.99-.63-.84-9.8-8.09-17.03-9.07-.46-.07-1.02-.1-1.66-.1z" fill="#A1887F"/><linearGradient id="b" x1="22.582" x2="43.32" y1="16.318" y2="39.986" gradientUnits="userSpaceOnUse"><stop stop-color="#ECEFF1" offset=".2"/><stop stop-color="#D2CFC9" offset=".463"/><stop stop-color="#96876D" offset="1"/></linearGradient><path d="M24.73 57.11C17.94 52.17 8 42.49 11.54 29.88c1.84-6.32 6.72-11.12 14.49-14.25 6.15-2.48 12.86-3.37 17.09-3.37.35 0 .67.01.96.02 7.27.32 15.57 6.93 18.83 9.94-15.87 8.59-29.02 20.6-38.18 34.89z" fill="url(#b)"/><path d="M43.13 13.74c.33 0 .63.01.89.02 5.91.26 12.63 5.04 16.34 8.17-14.79 8.36-27.13 19.68-36.02 33.04-2.05-1.57-5.01-4.11-7.48-7.41-4.22-5.63-5.53-11.44-3.9-17.26 1.71-5.87 6.29-10.35 13.63-13.3 5.96-2.4 12.63-3.26 16.54-3.26m0-2.97c-7.61 0-28.46 3.03-33.02 18.71-4.9 17.47 14.27 29.07 15.04 29.77C34.91 43.43 49.2 30.99 65.4 22.59c-1.15-1.38-11.74-11.38-21.24-11.8-.31-.01-.66-.02-1.03-.02z" fill="#A1887F"/><linearGradient id="c" x1="96.062" x2="65.874" y1="106.97" y2="73.498" gradientTransform="rotate(-39.968 68.195 63.182)" gradientUnits="userSpaceOnUse"><stop stop-color="#754C24" offset=".004"/><stop stop-color="#633D1B" offset=".277"/><stop stop-color="#4B290F" offset=".724"/><stop stop-color="#42210B" offset="1"/></linearGradient><path d="M101.31 114.53c-6.91 0-20.38-11.24-25.38-15.93l-11.5-39.27L77.77 35.2c4.98 1.23 26.37 7.5 34.34 26.3 11.28 26.59-.12 41.52-7.66 51.4l-.32.42c-.63.82-1.53 1.21-2.82 1.21z" fill="url(#c)"/><path d="M78.51 36.93c6.26 1.71 25.01 8.13 32.22 25.15 10.94 25.8-.14 40.31-7.48 49.92l-.32.41c-.16.2-.48.63-1.63.63-5.65 0-17.49-9.13-24.06-15.25L66.03 59.51l12.48-22.58m-1.5-3.43L62.83 59.15 74.62 99.4s17.5 16.61 26.69 16.61c1.65 0 3.03-.54 4-1.8 7.56-9.91 19.94-25.52 8.16-53.3-9.42-22.23-36.46-27.41-36.46-27.41z" fill="#42210B"/><linearGradient id="d" x1="37.459" x2="107.27" y1="38.546" y2="118.22" gradientUnits="userSpaceOnUse"><stop stop-color="#ECEFF1" offset=".105"/><stop stop-color="#E1E2E0" offset=".174"/><stop stop-color="#C1BBAF" offset=".395"/><stop stop-color="#A99F8B" offset=".588"/><stop stop-color="#9B8D75" offset=".744"/><stop stop-color="#96876D" offset=".846"/></linearGradient><path d="M105.6 122.16c-1.31 0-3.29-1.74-4.04-2.58-.07-.08-.15-.15-.24-.22-16.17-11.67-23.26-12.52-31.46-13.51-3.43-.42-6.98-.84-11.58-2.06-26.12-6.9-35.44-28.74-36.35-33.78-1.21-6.7 1.64-12.25 1.67-12.3.11-.21.17-.44.17-.67 10.32-16.51 23.3-29.22 37.6-36.81.47.15 1.04.26 1.75.39 3.42.63 9.79 1.81 15.26 9.36 4.19 5.78 1.46 12.51-1.7 20.3-2.82 6.96-6.02 14.85-4.94 23.68 2.24 18.37 19.6 28.07 24.87 30.6 6.32 3.04 9.37 8.66 10.12 12.92.43 2.46.01 3.96-.38 4.36-.22.22-.45.32-.75.32z" fill="url(#d)"/><path d="M61.55 21.82c.4.1.83.18 1.29.26 3.22.6 9.21 1.7 14.33 8.77 3.53 4.87 1.59 10.34-1.87 18.87-2.89 7.13-6.16 15.2-5.04 24.42.59 4.83 4.19 21.41 25.7 31.76 6.13 2.95 8.28 8.15 8.92 10.26.66 2.19.6 3.77.42 4.44-.67-.25-1.85-1.13-2.63-2.01a3.42 3.42 0 0 0-.49-.44c-16.48-11.89-23.74-12.77-32.15-13.78-3.38-.41-6.88-.83-11.38-2.02-23.55-6.22-34.09-26.08-35.27-32.6-1.1-6.12 1.51-11.31 1.53-11.35.14-.27.24-.56.29-.85 10.05-15.96 22.57-28.28 36.35-35.73m-.19-3.27c-16.2 8.4-29.46 22.5-39.23 38.32.1.09.16.14.16.14s-3.13 5.98-1.82 13.26 12.23 28.29 37.44 34.95c16.06 4.24 20.13-.83 42.55 15.34 0 0 2.73 3.08 5.15 3.08.65 0 1.27-.22 1.81-.78 2.58-2.64.44-14.55-10.15-19.65-6.21-2.99-21.98-12.56-24.04-29.44-2.24-18.4 15-32.75 6.36-44.67-7.67-10.57-17.32-9.45-18.23-10.55z" fill="#A1887F"/></svg>