<svg viewBox="0 0 128 128" xmlns="http://www.w3.org/2000/svg"><path d="M57 91.72s-.87 8.74-1.83 11.86c-.94 3.04-7.8 5.65-12.97 5.4-3.7-.18-5.22.31-5.76 2.58-.54 2.28.41 1.64.41 1.64s1.73-1.03 2.88-.94c2.23.18 1.64.7 3.92.35 2.13-.33 2-.82 2-.82s-1.33 1.71-.45 3.34c.87 1.63 1.12 1.35 1.12 1.35s.1-2.33 2.35-2.88 3.23-1.64 3.23-1.64 3.24-1.4 4.98.24c1.75 1.63 2.82 1.66 3.94 1.53 1.12-.14 3.29 2.06 3.29 2.06s.88-3.47-2.62-4.94c-2.46-1.04-4.48-3.59-3.65-6.52.82-2.94 4.68-11.56 4.68-11.56L57 91.72z" fill="#F7931E" stroke="#8C6239" stroke-linecap="round" stroke-linejoin="round" stroke-miterlimit="10" stroke-width="1.812"/><path d="M67.19 98.21s-1.69 8.82-2.69 11.95c-.98 3.05-7.39 5.64-12.82 5.39-3.88-.18-5.47.31-6.03 2.6s.43 1.65.43 1.65 1.81-1.04 3.02-.94c2.34.18 1.72.71 4.11.35 2.23-.33 2.09-.82 2.09-.82s-1.39 1.72-.47 3.36 1.17 1.36 1.17 1.36.11-2.34 2.46-2.89 3.39-1.65 3.39-1.65 3.39-1.4 5.22.24 2.95 1.67 4.13 1.53 3.45 2.06 3.45 2.06.92-3.48-2.74-4.96c-2.58-1.04-5.59-3.49-4.73-6.44s5.81-11.72 5.81-11.72l-5.8-1.07z" fill="#F7931E" stroke="#8C6239" stroke-linecap="round" stroke-linejoin="round" stroke-miterlimit="10" stroke-width="1.859"/><linearGradient id="a" x1="20.768" x2="27.81" y1="2.839" y2="18.672" gradientUnits="userSpaceOnUse"><stop stop-color="#F73D41" offset=".456"/><stop stop-color="#F43C40" offset=".56"/><stop stop-color="#EA3A3D" offset=".645"/><stop stop-color="#D83539" offset=".723"/><stop stop-color="#C02F32" offset=".797"/><stop stop-color="#A1272A" offset=".869"/><stop stop-color="#7C1E20" offset=".937"/><stop stop-color="#541415" offset=".997"/></linearGradient><path d="M34.21 14.21c.47-1.44.36-3.9 0-5.33-.68-2.69-2.04 2.96-3.42 2.42-1.17-.46-.3-4.98-2.21-4.42s-2.01 6.02-2.8 5.96-.16-5.75-2.13-5.17-.27 5.92-.93 6.49c-.66.56-1.23-2.78-2.88-2.98-2.22.23.94 7.47-1.86 4.64-.63-.81-1.36-.39-1.31.6.12 2.26 1.41 5.3 3.04 6.33 1.82 1.15 4.1-2.06 4.93-2.97 1.06-1.17 2.91-1.41 4.45-1.45.7-.02 1.41-.05 2.1-.16.59-.09 2.1-1.13 3.02-3.96z" fill="url(#a)" stroke="#C1272D" stroke-miterlimit="10" stroke-width="2"/><radialGradient id="b" cx="37.746" cy="67.965" r="48.134" gradientUnits="userSpaceOnUse"><stop stop-color="#824A38" offset="0"/><stop stop-color="#6A3C2D" offset=".24"/><stop stop-color="#2C1811" offset=".744"/><stop stop-color="#0A0502" offset=".999"/></radialGradient><path d="M70.84 103.02c-.16 0-.33-.01-.51-.02-5.4-.42-5.81-6.63-5.83-6.89a1 1 0 0 0-.92-.94h-.08c-.47 0-.88.33-.98.79-.01.05-1.02 4.63-4.1 4.63-.49 0-1.02-.11-1.58-.32-3.6-1.38-1.9-6.91-1.88-6.96.08-.27.05-.56-.09-.81s-.39-.42-.66-.47c-.24-.05-23.47-5-30.94-29.71 3.25-2.09 17.02-11.03 23.84-15.46 3.87 2.27 13.01 5.18 20.56 5.18 3.94 0 7.05-.77 9.27-2.29 2.41 1.64 5.18 2.47 8.25 2.47 2.82 0 5.91-.68 9.41-2.08.59 2.96 2.76 6.4 3.69 7.67-.14.65-.84 2.72-3.64 9.1l-.29.67c-.7 1.65-1.31 3.45-1.91 5.2-.9 2.65-1.83 5.38-3.09 7.68-2.58 4.73-6.33 10.43-12.44 12.53-3.31 1.13-3.51 4.2-3.66 6.44-.2 2.71-.42 3.59-2.42 3.59z" fill="url(#b)"/><path d="M47.13 48.02c4.26 2.28 13.15 5.01 20.52 5.01 3.82 0 6.93-.71 9.27-2.1 2.44 1.52 5.21 2.28 8.25 2.28 2.66 0 5.53-.57 8.73-1.74.76 2.5 2.29 5.07 3.29 6.51-.26.87-1.07 3.05-3.47 8.52-.15.34-.25.58-.3.69-.71 1.68-1.33 3.5-1.93 5.26-.89 2.61-1.81 5.3-3.02 7.52-2.5 4.57-6.1 10.08-11.89 12.06-3.94 1.35-4.18 4.94-4.33 7.32-.18 2.67-.32 2.67-1.41 2.67-.14 0-.28-.01-.44-.02-1.85-.14-3.18-1.08-4.05-2.87-.75-1.53-.85-3.08-.85-3.08-.06-1-.85-1.81-1.85-1.88-.05 0-.1-.01-.15-.01-.94 0-1.76.66-1.96 1.59-.01.04-.9 3.83-3.12 3.83-.36 0-.78-.09-1.22-.26-2.7-1.03-1.3-5.69-1.29-5.73a2.003 2.003 0 0 0-1.52-2.56c-.23-.05-22.42-4.74-29.96-28.3 2.19-1.4 7.86-5.07 22.7-14.71m-.05-2.35s-24.71 16.05-25 16.21C29.58 88.12 54 93 54 93s-2.04 6.47 2.48 8.2c.71.27 1.36.39 1.94.39 3.95 0 5.08-5.42 5.08-5.42s.41 7.35 6.75 7.83c.21.02.4.02.59.02 6.04 0 .88-8.2 6.39-10.09 6.21-2.13 10.05-7.61 12.99-12.99 2.14-3.91 3.3-8.86 5.04-12.96.37-.88 4.52-10.12 3.99-10.49-.03-.02-3.84-5.31-3.83-8.78-3.5 1.52-6.97 2.51-10.26 2.51-2.94 0-5.73-.79-8.26-2.71-2.25 1.84-5.6 2.53-9.26 2.53-7.97-.01-17.47-3.32-20.56-5.37zm48.35 3.03z" fill="#8C6239"/><path d="M44.05 74.74c6.11 4.12 13.33 6.15 20.15 5.69.92-.06 2.07-.48 1.93-1.46-.11-.73-.89-1.17-1.56-1.45-1.85-.8-3.71-1.6-5.56-2.39 3.85.76 7.73 1.1 11.56 1.02.73-.01 1.64-.22 1.69-.98.05-.78-.84-1.32-1.58-1.59-2.13-.79-4.3-1.47-6.47-2.03 3.89 1.08 7.94 1.07 11.61 0 .81-.24.87-1.36.09-1.68a35.888 35.888 0 0 0-9.58-2.43c3.75.56 7.53.37 11.06-.57.62-.16 1.33-.46 1.4-1.14.11-1.08-1.35-1.63-2.41-1.7l-2.66-.18c-.96-.06-1.14-1.4-.23-1.71.96-.33 1.89-.71 2.79-1.15.77-.38 1.63-1.06 1.38-1.98-.24-.89-1.3-1.22-2.15-1.34-3.36-.47-6.74-.52-10.02-.14l7.16-1.05c.76-.11 1.68-.39 1.75-1.2.09-1.13-1.44-1.64-2.53-1.71-5.1-.31-10.24-1.31-15.24-2.98-4-1.34-13.43-5.28-16.94-3.49-1.96 1-6.15 3.99-7.12 6.02-6.98 14.64 8.63 19.7 11.48 21.62z" fill="#91352A"/><linearGradient id="c" x1="21.603" x2="21.667" y1="64.533" y2="64.881" gradientUnits="userSpaceOnUse"><stop stop-color="#FFD900" offset=".032"/><stop stop-color="#FFC100" offset=".291"/><stop stop-color="#FF8300" offset=".837"/><stop stop-color="#FF6F00" offset="1"/></linearGradient><path d="M21.56 64.53c.02.14.07.26.15.34-.05-.11-.1-.22-.15-.34z" fill="url(#c)"/><linearGradient id="d" x1="29.176" x2="37.52" y1="17.526" y2="62.98" gradientUnits="userSpaceOnUse"><stop stop-color="#FFD900" offset=".032"/><stop stop-color="#FFC100" offset=".291"/><stop stop-color="#FF8300" offset=".837"/><stop stop-color="#FF6F00" offset="1"/></linearGradient><path d="M23.85 65.7c-2.79-6.41-4.37-23.33-.08-34.33l.23-.58-1-1.08c-1.72-1.84-3.67-3.93-3.67-5.53 0-4.59 3.29-7.56 8.38-7.56.56 0 3.28.76 3.91 1.08 1.89 2.16 2.34 4.06 2.96 6.69.63 2.7 1.42 6.05 3.99 10.94 3 5.71 7.13 9.14 10.15 11.65l.74.62c-1.12.15-2.37.42-3.18 1.15-.94.86-1.64 2.86-1.13 4.16l.12.3c.22.55.47 1.16.31 1.45-.03.05-.12.22-.6.22-.61 0-1.38-.28-1.88-.55-.57-.31-1.19-.48-1.79-.48-.42 0-.83.08-1.2.24-1.69.72-1.7 2.21-1.7 3.19 0 .47 0 .92-.16 1.16-.13.21-.42.31-.85.31-.35 0-.77-.08-1.17-.22l-.4-.14c-.73-.27-1.56-.57-2.42-.57-.45 0-.87.08-1.25.24-1.69.7-1.16 2.5-.91 3.36.07.23.17.58.2.8-.1.02-.2.03-.29.03-.46 0-.96-.21-1.49-.43-.65-.27-1.39-.58-2.23-.58-.43 0-.86.08-1.27.25-.92.38-1.63 1.17-1.88 2.13-.03.1-.27 1-.44 2.08z" fill="url(#d)"/><path d="M27.68 17.63c.55.04 2.57.6 3.33.91 1.61 1.9 2.01 3.59 2.59 6.1.65 2.75 1.45 6.17 4.08 11.18 2.83 5.38 6.6 8.77 9.58 11.27-.61.21-1.18.51-1.65.94-1.2 1.09-2.07 3.53-1.39 5.27l.12.31c.02.06.05.13.08.2-.28-.08-.58-.2-.83-.33-.72-.4-1.5-.61-2.27-.61-.56 0-1.09.11-1.6.32-2.3.98-2.31 3.09-2.31 4.11 0 .14 0 .33-.01.47-.24 0-.55-.06-.85-.16-.13-.04-.26-.09-.39-.14-.81-.29-1.73-.62-2.76-.62-.58 0-1.13.11-1.64.32-1.97.81-1.93 2.61-1.69 3.77-.01-.01-.02-.01-.04-.02-.7-.29-1.58-.66-2.62-.66-.56 0-1.12.11-1.65.32-.85.35-1.57.97-2.03 1.75-1.92-7.31-2.81-20.99.94-30.6l.45-1.16-.85-.92-.57-.61c-1.43-1.54-3.4-3.65-3.4-4.84.03-4.84 3.83-6.57 7.38-6.57m.03-2c-5.38 0-9.38 3.18-9.38 8.56 0 2.19 2.5 4.65 4.5 6.81-5 12.83-2.37 34.71 2 37.83-.49-.35.25-4.32.42-4.94a2.253 2.253 0 0 1 2.18-1.65c1.28 0 2.42 1.01 3.72 1.01.22 0 .44-.03.67-.1 1.79-.52-1.02-3.46.71-4.17.28-.12.58-.17.87-.17.83 0 1.69.37 2.49.65.47.16 1 .27 1.5.27.69 0 1.32-.2 1.69-.77.8-1.22-.39-3.21 1.42-3.98.26-.11.54-.16.81-.16.45 0 .9.13 1.3.36.61.34 1.54.68 2.36.68.62 0 1.17-.19 1.47-.73.44-.79-.04-1.76-.38-2.6-.33-.85.2-2.44.87-3.05 1.38-1.25 5.22-.83 4.62-1.38-3.12-2.88-8.45-6.25-12.12-13.25-5.12-9.75-3-13.25-7.17-17.92-.27-.31-3.72-1.3-4.55-1.3z" fill="#D66620"/><path d="M28.4 15.53c2.49.12 4.84 1.52 5.85 4.13.69 1.79 2.17 7.92-3.25 10.58-3.99 1.96-7.23 2.25-9.98.44-2.79-1.84-3.74-8.79-1.27-11.77 2.08-2.5 5.97-3.5 8.65-3.38z" fill="#F73D41" stroke="#C1272D" stroke-miterlimit="10" stroke-width="2"/><circle cx="27.13" cy="22.62" r="4.79" fill="#fff"/><ellipse transform="rotate(-57.173 26.999 21.672)" cx="27" cy="21.67" rx="1.3" ry="1.3"/><linearGradient id="e" x1="14.237" x2="21.618" y1="35.542" y2="35.542" gradientUnits="userSpaceOnUse"><stop stop-color="#F73D41" offset=".456"/><stop stop-color="#F43C40" offset=".56"/><stop stop-color="#EA3A3D" offset=".645"/><stop stop-color="#D83539" offset=".723"/><stop stop-color="#C02F32" offset=".797"/><stop stop-color="#A1272A" offset=".869"/><stop stop-color="#7C1E20" offset=".937"/><stop stop-color="#541415" offset=".997"/></linearGradient><path d="M18.53 31.82c-1.65 2.88-5.08 5.68-4.13 9.37.31 1.19 1.28 2.32 2.51 2.36.83.03 1.62-.46 2.15-1.1s.84-1.44 1.11-2.23c1.1-3.28 1.58-6.77 1.4-10.23-.04-.83-.08-1.77-.58-2.41-.26-.33-1.08 1.43-1.13 1.56-.37.9-.82 1.77-1.3 2.61-.01.02-.02.05-.03.07z" fill="url(#e)" stroke="#C1272D" stroke-miterlimit="10" stroke-width="2"/><path d="M19.96 28.92c.81-.09 1.17-1.85 1.17-1.85l-7.27-2.2s1.19 1.2 2.76 2.39c1.16.88 3 1.69 3.34 1.66z" fill="#D96E00"/><path d="M18.72 27.38l1.13.34c-.02.05-.05.09-.07.13-.25-.09-.64-.25-1.06-.47m-4.86-2.52s1.19 1.2 2.76 2.39c1.13.86 2.92 1.66 3.32 1.66h.02c.81-.09 1.17-1.85 1.17-1.85l-7.27-2.2z" fill="#F15A24" opacity=".2"/><path d="M17.48 22.44c-4.67 1.88-5.9 3.4-5.9 3.4s6.66.32 9.56 1.27c-.14-1.94-.56-5.92-3.66-4.67z" fill="#FFA726"/><path d="M18.57 23.2c.68 0 1.16.86 1.42 2.57-1.74-.37-3.92-.6-5.62-.75.83-.48 1.96-1.05 3.48-1.66.27-.1.51-.16.72-.16m0-1c-.32 0-.68.07-1.09.24-4.67 1.88-5.9 3.4-5.9 3.4s6.66.32 9.56 1.27c-.12-1.68-.46-4.91-2.57-4.91z" fill="#8C6239" opacity=".2"/><path d="M89.17 79.27c.81-5.88.17-10.75-1.99-16.22-2.23-5.64-6.24-10.12-11.65-13.04.66-.72 1.44-1.88 2.14-3.72 1.81-4.73 1.27-9.24.76-13.6-.43-3.64-.84-7.07.01-10.64 1.67-6.98 5.18-9.12 9.6-11.18 2.68-1.25 6.09-1.97 9.33-1.97 2.08 0 4.01.3 5.59.88 4.11 1.5 8.03 4.31 11.64 8.34 1.25 1.39 2.57 3.1 3.65 5.04-2.17-2.28-5.02-3.96-8.2-4.65-2.27-.49-4.7-.95-7.06-.95-5.02 0-8.53 2.08-10.71 6.35-.18.35-.14.76.1 1.07a1 1 0 0 0 .79.39c.07 0 .15-.01.22-.02 1.36-.31 2.77-.46 4.19-.46 3.77 0 7.57 1.12 10.71 3.15a20.62 20.62 0 0 1 5.69 5.56c-1.62-1.28-3.5-2.32-5.56-3.06-2.59-.93-5.49-1.4-8.63-1.4-1.72 0-3.55.14-5.44.42-.48.07-.84.48-.85.96-.01.49.33.91.8 1.01 5.71 1.14 10.23 2.98 13.83 5.64 2.71 2 4.88 4.52 6.31 7.28-4.82-4.76-11.33-7.69-17.97-7.92h-.03c-.48 0-.89.34-.98.81-.09.48.18.96.64 1.13 5.7 2.08 10.16 4.93 13.28 8.47 2.86 3.25 4.6 7.22 4.96 11.11-2.32-3.55-5.43-6.57-9-8.7a1.03 1.03 0 0 0-.51-.14c-.26 0-.52.1-.71.3-.32.33-.38.84-.14 1.23 3.24 5.22 4.33 11.87 3.12 17.97-.75-4.43-2.42-8.71-4.89-12.39-.19-.28-.51-.44-.83-.44-.13 0-.26.03-.39.08-.44.19-.69.66-.58 1.13 1.49 6.82.61 14.1-2.34 20.34.45-5.5-.67-11.18-3.26-15.97a.997.997 0 0 0-1.15-.48c-.45.12-.75.54-.73 1.01.26 5.92-1.08 11.99-3.76 17.28z" fill="#004A30"/><path d="M97.38 9.89c1.96 0 3.78.28 5.25.82 3.94 1.44 7.71 4.14 11.2 8.03a16.79 16.79 0 0 0-3.56-1.21c-2.33-.5-4.82-.97-7.27-.97-5.36 0-9.26 2.32-11.6 6.9-.35.69-.27 1.52.2 2.14a2.004 2.004 0 0 0 2.02.72c1.29-.29 2.62-.44 3.97-.44 3.58 0 7.18 1.06 10.16 2.99.36.23.71.47 1.05.73-.01 0-.02-.01-.03-.01-2.7-.97-5.72-1.46-8.97-1.46-1.77 0-3.65.15-5.59.43-.96.14-1.68.96-1.71 1.93a2 2 0 0 0 1.61 2.01c5.56 1.11 9.95 2.9 13.43 5.46.46.34.89.69 1.32 1.05-3.8-2.11-8.05-3.35-12.35-3.5h-.07a2.002 2.002 0 0 0-.68 3.88c5.54 2.02 9.87 4.78 12.87 8.19 1.67 1.89 2.93 4.04 3.74 6.26a28.637 28.637 0 0 0-6.52-5.37c-.32-.19-.67-.28-1.02-.28-.52 0-1.04.21-1.43.6-.65.66-.76 1.67-.27 2.46 2.11 3.39 3.27 7.41 3.43 11.48-.89-2.47-2.07-4.82-3.52-6.98a1.995 1.995 0 0 0-2.44-.73c-.88.38-1.38 1.33-1.17 2.27 1.06 4.85.88 9.93-.42 14.69-.39-3.86-1.51-7.65-3.33-11.01a2.004 2.004 0 0 0-1.76-1.05 1.991 1.991 0 0 0-2 2.09c.18 3.79-.32 7.64-1.42 11.29-.15-3.58-.94-6.97-2.38-10.62-2.17-5.5-5.97-9.93-11.07-12.96.53-.76 1.07-1.76 1.57-3.07 1.9-4.96 1.35-9.6.82-14.08-.42-3.55-.82-6.9-.01-10.29 1.57-6.56 4.74-8.49 9.05-10.51 2.55-1.2 5.8-1.88 8.9-1.88m0-2c-3.42 0-6.98.77-9.76 2.07-4.88 2.28-8.45 4.71-10.15 11.86-1.96 8.19 2.44 15.84-.73 24.12-1.4 3.66-3.04 4.28-3.04 4.28 5.73 2.69 10.14 7.13 12.54 13.21 2.91 7.38 2.79 13.45.86 21.11 4.72-6.39 7.18-14.55 6.8-22.61 3.39 6.27 4.18 14.01 2.12 20.88 5.28-7.29 7.28-17.04 5.34-25.94 3.32 4.95 5.14 10.96 5.16 16.99 3.26-7.51 2.6-16.74-1.71-23.66 4.47 2.66 8.15 6.72 10.43 11.52.76-5.58-1.48-11.3-5.13-15.45s-8.58-6.88-13.68-8.75c8.16.28 16.08 4.78 20.73 11.78-.92-5.26-4.25-9.85-8.44-12.94s-9.18-4.81-14.22-5.81c1.75-.26 3.52-.41 5.29-.41 2.82 0 5.63.39 8.29 1.34 4.33 1.55 8.25 4.74 10.1 9.11-1.31-5.49-4.74-10.4-9.35-13.39-3.35-2.17-7.3-3.32-11.25-3.32-1.48 0-2.96.16-4.41.49 2.32-4.54 5.98-5.81 9.82-5.81 2.3 0 4.66.45 6.85.92 5.84 1.26 10.99 6.4 11.57 12.59.5-5.45-2.48-10.62-6.06-14.62-3.35-3.75-7.4-6.92-12.04-8.61-1.77-.66-3.82-.95-5.93-.95z" fill="#002614"/><path d="M79.96 35.26c.86-2.61 2.81-6.22 5.01-7.66s4.73-2.2 7.28-2.51c-4.69 2.54-8.06 7.74-8.66 13.37.9-2.48 2.68-4.56 4.9-5.73a9.407 9.407 0 0 1 7.2-.65c-4.21 1.51-7.55 5.53-8.51 10.2 1.05-2.4 3.23-4.19 5.65-4.66s5.04.4 6.8 2.26c-3.5-.08-6.87 2.69-7.74 6.35 1.2-1.59 3.29-2.2 5.16-1.88 1.88.32 3.57 1.45 4.99 2.81 2.52 2.43 4.35 5.68 5.17 9.22-2.3-3.66-7.11-5.18-10.87-3.43 3.06.49 5.91 2.32 7.77 4.99s2.71 6.12 2.32 9.43c-1.3-4.38-5.26-7.68-9.52-7.94 2.56 1.68 4.79 4.09 5.95 7.07s1.14 6.58-.43 9.34c-.39-4.5-4.02-10.28-7.85-12.1 4.42 4.25-4.48 15.74-6.75 17 .83-6.92.18-12.92-5.25-23.25-4.61-8.77-3.8-18.64-2.62-22.23z" fill="#0F242B"/><path d="M20.85 32.16c-.69 3.39-3.15 7.28-.99 10.61.7 1.08 2.03 1.87 3.26 1.5.83-.25 1.45-.98 1.76-1.79s.36-1.7.36-2.57c.01-3.6-.66-7.2-1.98-10.56-.32-.81-.66-1.72-1.37-2.19-.37-.24-.6 1.76-.61 1.91-.07 1.01-.23 2.01-.42 3 0 .04 0 .07-.01.09z" fill="#F73D41" stroke="#C1272D" stroke-miterlimit="10" stroke-width="2"/></svg>