<svg viewBox="0 0 128 128" xmlns="http://www.w3.org/2000/svg" xmlns:xlink="http://www.w3.org/1999/xlink"><g stroke="#B0B0B0" stroke-linejoin="round" stroke-miterlimit="10" stroke-width="3"><linearGradient id="a" x1="16.433" x2="16.433" y1="110.26" y2="-56.892" gradientUnits="userSpaceOnUse"><stop stop-color="#E3E3E3" offset="0"/><stop stop-color="#E6E6E6" offset=".138"/><stop stop-color="#F1F1F1" offset=".256"/><stop stop-color="#fff" offset=".348"/></linearGradient><path d="M26.99 39.58s-7.94-3.87-16.46 4.64C2 52.75 5.88 60.69 5.88 60.69s7.94 3.87 16.46-4.64c8.52-8.52 4.65-16.47 4.65-16.47z" fill="url(#a)"/><linearGradient id="b" x1="111.57" x2="111.57" y1="110.26" y2="-56.892" gradientUnits="userSpaceOnUse"><stop stop-color="#E3E3E3" offset="0"/><stop stop-color="#E6E6E6" offset=".138"/><stop stop-color="#F1F1F1" offset=".256"/><stop stop-color="#fff" offset=".348"/></linearGradient><path d="M122.12 60.69s3.87-7.94-4.64-16.46c-8.52-8.52-16.46-4.64-16.46-4.64s-3.87 7.94 4.64 16.46c8.52 8.52 16.46 4.64 16.46 4.64z" fill="url(#b)"/></g><g fill="#E6B175" stroke="#C28640" stroke-linejoin="round" stroke-miterlimit="10" stroke-width="3"><path d="M35.53 16.1c-3.14-5.43-.25-12.98-5.68-9.84s-7.3 10.09-4.16 15.52 10.09 7.3 15.52 4.16c5.43-3.13-2.54-4.4-5.68-9.84zM92.47 16.1c3.14-5.43.25-12.98 5.68-9.84s7.3 10.09 4.16 15.52-10.09 7.3-15.52 4.16c-5.43-3.13 2.54-4.4 5.68-9.84z"/></g><linearGradient id="c" x1="63.998" x2="63.998" y1="108.63" y2="-53.414" gradientUnits="userSpaceOnUse"><stop stop-color="#D4D4D4" offset=".132"/><stop stop-color="#D7D7D7" offset=".203"/><stop stop-color="#E2E2E2" offset=".264"/><stop stop-color="#F3F3F3" offset=".321"/><stop stop-color="#fff" offset=".348"/></linearGradient><path d="M24.54 98l-2.92-44.09C21.62 32.6 39.04 15 60.44 15h7.13c21.4 0 38.81 17.6 38.81 39.01L103.46 98H24.54z" fill="url(#c)"/><path d="M67.56 17c20.54 0 37.26 16.38 37.31 36.91L102.06 96H25.94l-2.82-42.09C23.18 33.38 39.9 17 60.44 17H68m-.44-3h-7.13c-22.17 0-40.31 17.83-40.31 40.01L23.13 99h81.73l3.01-44.99C107.88 31.83 89.74 14 67.56 14z" fill="#B0B0B0"/><defs><path id="d" d="M67 14h-6.56c-22.17 0-40.31 18.33-40.31 40.51l3 45.49h81.73l2.73-45.49"/></defs><clipPath id="e"><use xlink:href="#d"/></clipPath><path d="M56 58.37C56 47.12 46.88 38 35.63 38h-.26C24.12 38 15 47.12 15 58.37v2.26C15 71.88 24.12 81 35.37 81h.26C46.88 81 56 71.88 56 60.63v-2.26z" clip-path="url(#e)" fill="#C4C4C4"/><g fill="#404040"><ellipse cx="36.77" cy="58.11" rx="8.77" ry="9.91"/><ellipse cx="91.23" cy="58.11" rx="8.77" ry="9.91"/></g><linearGradient id="f" x1="63" x2="63" y1="138.84" y2="18.645" gradientUnits="userSpaceOnUse"><stop stop-color="#D69549" offset="0"/><stop stop-color="#D7974C" offset=".113"/><stop stop-color="#DB9E57" offset=".21"/><stop stop-color="#E1A969" offset=".301"/><stop stop-color="#E6B175" offset=".348"/></linearGradient><path d="M103.5 100.44c0-12.12-9.82-21.94-21.94-21.94H44.44c-12.12 0-21.94 9.82-21.94 21.94v.13c0 12.12 9.82 21.94 21.94 21.94h37.13c12.12 0 21.94-9.82 21.94-21.94v-.13z" fill="url(#f)" stroke="#C28640" stroke-linejoin="round" stroke-miterlimit="10" stroke-width="3"/><g fill="#754C24"><ellipse cx="45.28" cy="99.29" rx="6.79" ry="8.33"/><ellipse cx="82.72" cy="99.29" rx="6.79" ry="8.33"/></g></svg>