<svg viewBox="0 0 128 128" xmlns="http://www.w3.org/2000/svg" xmlns:xlink="http://www.w3.org/1999/xlink"><path d="M37.4 17.06" fill="#E59242"/><linearGradient id="a" x1="64" x2="64" y1="123.43" y2="4.146" gradientUnits="userSpaceOnUse"><stop stop-color="#D47500" offset=".001"/><stop stop-color="#FFC559" offset="1"/></linearGradient><path d="M113.47 49.55c.99-4.77 1.3-12.87 1.46-15.55.41-7.11.46-14.25-.18-21.35-.3-3.31-1.27-7.26-4.43-8.28-2.64-.85-5.37.85-7.56 2.54-3.39 2.6-6.9 5.14-9.75 8.3a14.78 14.78 0 0 1-5.7 3.88c-2.63.99-4.29.79-6.88.08-5.34-1.46-10.89-2.11-16.42-2.11-3.69 0-7.39.29-11.02.92-3.29.57-6.27 2.17-9.71 1.73-3.71-.48-6-2.7-8.63-5.1-3-2.73-6.21-5.22-9.43-7.69-2.2-1.69-4.93-3.39-7.56-2.54-3.17 1.02-4.14 4.97-4.43 8.28-.64 7.1-.59 14.24-.18 21.35.15 2.69.47 10.86 1.47 15.62-2.35 6.42-3.56 13.48-3.56 20.89 0 29.52 29.06 52.91 53.05 52.91 23.38 0 53.05-23.39 53.05-52.91-.01-7.45-1.23-14.53-3.59-20.97z" fill="url(#a)"/><path d="M19.61 18.59c.14-1.57.6-3.45 2.11-3.93 1.25-.4 2.55.4 3.59 1.21 2.49 1.91 5.25 4.06 7.22 6.52.94 1.18 1.65 2.59 1.76 4.09.12 1.61-.47 3.21-1.38 4.54-1.42 2.08-3.52 3.51-5.45 5.07-1.2.98-2.6 1.75-4.14 2.02-.88.15-1.75.27-2.48-.38-.98-.86-1.22-7.29-1.31-9.01-.2-3.36-.22-6.76.08-10.13zM108.68 18.59c-.14-1.57-.6-3.45-2.11-3.93-1.25-.4-2.55.4-3.59 1.21-2.49 1.91-5.25 4.06-7.22 6.52-.94 1.18-1.65 2.59-1.76 4.09-.12 1.61.47 3.21 1.38 4.54 1.42 2.08 3.52 3.51 5.45 5.07 1.2.98 2.6 1.75 4.14 2.02.88.15 1.75.27 2.48-.38.98-.86 1.22-7.29 1.31-9.01.2-3.36.22-6.76-.08-10.13z" fill="#FFECB3"/><defs><path id="b" d="M117.05 70.51c0 29.52-29.55 52.91-53.05 52.91-24 0-53.05-23.39-53.05-52.91S30.09 17.06 64 17.06s53.05 23.93 53.05 53.45z"/></defs><clipPath id="c"><use xlink:href="#b"/></clipPath><linearGradient id="d" x1="64" x2="64" y1="77.429" y2="122.8" gradientUnits="userSpaceOnUse"><stop stop-color="#FFF8E1" offset=".158"/><stop stop-color="#D8D3BF" offset=".707"/><stop stop-color="#C9C4B2" offset="1"/></linearGradient><path d="M109.65 62.32c-5.38-1.15-14.63-.19-19.31 14.84-1.02 3.27-4.23 7.17-7.45 7.24-6.39.15-7.68-7.69-19.08-7.69s-12.23 7.84-18.63 7.69c-3.22-.07-6.53-3.98-7.55-7.24-4.69-15.04-13.94-16-19.31-14.84-23.04 4.94-4.99 39.16 4.06 48.82 21.62 23.1 61.05 23.79 83.31 0 9.05-9.66 27-43.87 3.96-48.82z" clip-path="url(#c)" fill="url(#d)"/><ellipse cx="42.88" cy="61.56" rx="6.71" ry="7.59"/><ellipse cx="85.12" cy="61.56" rx="6.71" ry="7.59"/><linearGradient id="e" x1="64" x2="64" y1="95.495" y2="77.83" gradientUnits="userSpaceOnUse"><stop offset="0"/><stop stop-color="#262626" offset=".355"/><stop stop-color="#575757" offset=".837"/></linearGradient><path d="M64.29 95.83c-4.83 0-11.29-3.71-11.29-8.25v-.22c0-4.54 4.41-9.36 9.24-9.36h3.51c4.83 0 9.24 4.83 9.24 9.36v.11c.01 4.54-5.86 8.36-10.7 8.36z" fill="url(#e)"/><path d="M92.09 91.87c-.1-.2-.35-.32-.79-.31-1.26.03-1.98 1.08-2.69 1.84-.65.69-1.24 1.42-1.88 2.12-1.7 1.86-3.78 3.29-6.19 4.41-5.2 2.41-7.65 1.59-7.66 1.59-.82-.28-1.71-.35-2.54-.67-2.13-.83-3.76-1.93-6.22-1.95-1.57-.02-3.14.34-4.5 1.01-1.41.7-2.81 1.39-4.45 1.61 0 0-2.39.82-7.61-1.59-1.99-.92-3.83-2.07-5.34-3.52-1.45-1.39-2.58-2.99-4.13-4.31-.25-.21-.5-.42-.82-.53-.43-.16-1.07-.09-1.33.29s0 .85.22 1.25c2.79 5.1 9.63 22.58 27.83 22.58s24.94-17.33 27.82-22.58c.24-.41.46-.92.28-1.24z"/><defs><path id="f" d="M74 104.79c0 5.09-4.12 9.21-9.21 9.21h-2.58c-5.09 0-9.21-4.12-9.21-9.21v-1.58c0-5.09 4.12-9.21 9.21-9.21h2.58c5.09 0 9.21 4.12 9.21 9.21v1.58z"/></defs><clipPath id="g"><use xlink:href="#f"/></clipPath><path d="M45.8 112.91c0-5.44 8.15-11.27 18.2-11.27s18.2 5.83 18.2 11.27-8.15 9.84-18.2 9.84c-10.05.01-18.2-4.4-18.2-9.84z" clip-path="url(#g)" fill="#FF8282"/><path d="M108.86 7.36c.19 0 .37.03.54.08 1.21.39 2.08 2.47 2.37 5.69.56 6.24.62 13.08.17 20.91-.02.33-.04.75-.07 1.23-.17 3.22-.51 9.92-1.33 13.88-.11.55-.07 1.12.12 1.64 2.26 6.14 3.4 12.85 3.4 19.93 0 12.79-5.96 25.33-16.79 35.32-9.91 9.14-22.34 14.59-33.26 14.59-11.14 0-23.66-5.45-33.48-14.58-10.69-9.93-16.57-22.48-16.57-35.33 0-7.06 1.13-13.74 3.37-19.87.19-.53.23-1.1.12-1.65-.83-3.95-1.18-10.7-1.35-13.94-.03-.48-.05-.9-.07-1.23-.45-7.82-.39-14.66.17-20.91.29-3.23 1.15-5.3 2.37-5.69.17-.05.35-.08.54-.08 1.49 0 3.59 1.62 4.28 2.15 3.37 2.59 6.4 4.95 9.23 7.53l.33.3c2.68 2.45 5.45 4.97 9.94 5.56.52.07 1.06.1 1.6.1 2.23 0 4.26-.59 6.05-1.1 1.03-.3 2-.58 2.96-.74 3.34-.58 6.88-.87 10.51-.87 5.51 0 10.77.67 15.63 2 1.34.37 2.79.7 4.33.7 1.43 0 2.83-.28 4.4-.87 2.63-.99 5.01-2.61 6.87-4.67 2.32-2.57 5.13-4.71 8.11-6.98.41-.32.83-.63 1.24-.95.68-.54 2.78-2.15 4.27-2.15m0-3c-2.16 0-4.31 1.39-6.11 2.77-3.39 2.6-6.9 5.14-9.75 8.3a14.78 14.78 0 0 1-5.7 3.88c-1.27.48-2.31.68-3.34.68-1.11 0-2.2-.23-3.54-.6-5.34-1.46-10.89-2.11-16.42-2.11-3.69 0-7.39.29-11.02.92-2.9.5-5.55 1.8-8.49 1.8-.4 0-.8-.02-1.22-.08-3.71-.48-6-2.7-8.63-5.1-3-2.73-6.21-5.22-9.43-7.69-1.8-1.38-3.94-2.77-6.11-2.77-.49 0-.97.07-1.46.23-3.17 1.02-4.14 4.97-4.43 8.28-.64 7.1-.59 14.24-.18 21.35.15 2.69.47 10.86 1.47 15.62-2.35 6.42-3.56 13.48-3.56 20.89 0 29.52 29.06 52.91 53.05 52.91 23.38 0 53.05-23.39 53.05-52.91 0-7.44-1.22-14.53-3.58-20.96.99-4.77 1.3-12.87 1.46-15.55.41-7.11.46-14.25-.18-21.35-.3-3.31-1.27-7.26-4.43-8.28-.48-.16-.97-.23-1.45-.23z" fill="#D3914F"/></svg>