<svg viewBox="0 0 128 128" xmlns="http://www.w3.org/2000/svg"><radialGradient id="a" cx="-1108.4" cy="-225.39" r="78.026" gradientTransform="rotate(-47.026 -220.333 -1408.929)" gradientUnits="userSpaceOnUse"><stop stop-color="#E0BB95" offset="0"/><stop stop-color="#CCA47A" offset=".6"/></radialGradient><path d="M72.84 115.22c-4.48 0-8.88-1.59-13.09-4.73-3.53-2.64-39.8-35.58-40.17-35.91-2.11-1.96-4.09-4.9-1.52-7.66 1.03-1.1 2.31-1.69 3.72-1.69 1.58 0 3.23.72 4.64 2.03l14.99 13.41a1.502 1.502 0 0 0 2.1-.1c.56-.6.53-1.53-.06-2.1L19.47 55.43c-2.33-2.17-3.51-5.58-.95-8.33 1.03-1.1 2.31-1.69 3.72-1.69 1.58 0 3.23.72 4.64 2.03l24.49 22.24a1.502 1.502 0 0 0 2.11-.09c.54-.59.52-1.53-.08-2.09L23.94 39.37c-1.34-1.24-2.16-2.74-2.34-4.23-.18-1.5.3-2.91 1.4-4.09 1.03-1.1 2.31-1.69 3.72-1.69 1.58 0 3.23.72 4.64 2.03l30 27.25a1.502 1.502 0 0 0 2.11-.09c.56-.6.53-1.54-.06-2.11L41.56 35.55c-2.33-2.17-3.51-5.57-.95-8.32 1.03-1.1 2.31-1.69 3.72-1.69 1.58 0 3.23.72 4.64 2.03 7.97 7.3 28.81 26.38 29.55 27.12.58.65 1.23.8 1.67.8 1.68 0 2.51-1.91 2.58-3.79.07-2.08-.56-4.5-1.22-7.06-.78-3.01-1.67-6.42-.94-8.33 1.45-3.79 5.05-7.04 6.99-7.04.15 0 .28.02.39.07 3.54 1.51 3.48 3.65 2.98 8.75l-.1 1.01c-.49 5.24 2.44 11.64 5.02 17.29 1.05 2.29 2.04 4.45 2.74 6.39.43 1.19 1.06 2.45 1.79 3.9 3.88 7.74 9.73 19.43-7.28 37.68-6.72 7.21-13.54 10.86-20.3 10.86z" fill="url(#a)"/><path d="M44.33 27.04c1.2 0 2.49.58 3.63 1.65 11.3 10.33 28.34 25.95 29.47 27.04 1.02 1.09 2.16 1.26 2.75 1.26 2.32 0 3.96-2.11 4.07-5.24.08-2.3-.58-4.82-1.27-7.49-.69-2.65-1.55-5.95-.99-7.42 1.3-3.41 4.46-5.94 5.51-6.07 2.35 1.04 2.45 2.1 1.95 7.17l-.1 1.01c-.53 5.64 2.49 12.23 5.15 18.05 1.03 2.26 2.01 4.4 2.7 6.28.46 1.27 1.14 2.63 1.86 4.06 3.91 7.8 9.27 18.49-7.03 35.99-6.42 6.89-12.87 10.38-19.2 10.38-4.15 0-8.25-1.49-12.19-4.43-2.88-2.15-29.9-26.58-40.03-35.79-1.21-1.12-1.99-2.29-2.21-3.27-.13-.59-.14-1.32.76-2.28.75-.8 1.63-1.21 2.62-1.21 1.2 0 2.49.58 3.61 1.63l.04.04 14.98 13.4c.57.51 1.29.76 2 .76.81 0 1.61-.32 2.2-.96a2.998 2.998 0 0 0-.12-4.2L20.47 54.32c-1.64-1.52-2.84-4.06-.86-6.19.75-.8 1.63-1.21 2.62-1.21 1.2 0 2.49.58 3.64 1.66L50.35 70.8a3 3 0 0 0 2.02.78c.8 0 1.61-.32 2.2-.96a3.001 3.001 0 0 0-.12-4.21l-29.5-28.15c-1.64-1.52-2.84-4.06-.86-6.19.75-.8 1.63-1.21 2.62-1.21 1.2 0 2.49.58 3.64 1.66l29.98 27.23a3 3 0 0 0 4.21-.17 2.992 2.992 0 0 0-.12-4.21L42.57 34.44c-1.64-1.52-2.84-4.06-.86-6.19.75-.81 1.63-1.21 2.62-1.21m0-3c-1.74 0-3.43.68-4.82 2.16-2.94 3.16-2.16 7.47 1.01 10.43l21.83 20.9-29.98-27.24c-1.68-1.57-3.7-2.43-5.66-2.43-1.74 0-3.43.68-4.82 2.16-2.94 3.16-2.16 7.47 1.01 10.43l29.46 28.13-24.47-22.23c-1.68-1.57-3.7-2.43-5.66-2.44-1.74 0-3.43.68-4.82 2.16-2.94 3.16-2.16 7.47 1.01 10.43l23.99 23.05-14.96-13.38c-1.68-1.57-3.7-2.43-5.66-2.43-1.74 0-3.43.68-4.82 2.16-2.94 3.16-1.57 6.84 1.6 9.79 0 0 36.65 33.29 40.28 36 3.01 2.24 7.85 5.03 13.98 5.03 6.05 0 13.36-2.71 21.39-11.33 20.87-22.4 8.47-35.77 5.8-43.12-2.49-6.84-8.32-16.2-7.68-23.03.51-5.44 1.22-9.14-3.79-11.28-.3-.13-.63-.19-.98-.19-2.79 0-6.84 3.93-8.39 8-1.54 4.05 2.23 11.42 2.07 15.87-.04 1.11-.45 2.35-1.08 2.35-.18 0-.38-.1-.59-.34-.4-.45-29.61-27.18-29.61-27.18-1.66-1.56-3.68-2.43-5.64-2.43z" fill="#BA8F63"/><radialGradient id="b" cx="-486.84" cy="49.713" r="78.025" gradientTransform="rotate(-21.616 -239.746 -1383.011)" gradientUnits="userSpaceOnUse"><stop stop-color="#E0BB95" offset=".358"/><stop stop-color="#CCA47A" offset=".872"/></radialGradient><path d="M67.83 116.94c-10.42 0-16.01-6.42-18.86-11.82-2.06-3.9-20.69-49.22-20.88-49.67-1.06-2.67-1.59-6.18 1.92-7.57.67-.27 1.35-.4 2.01-.4 2.28 0 4.34 1.65 5.39 4.3l7.79 18.55c.24.57.8.92 1.38.92.19 0 .37-.03.56-.11.76-.3 1.14-1.16.85-1.92L36.21 38.09c-.67-1.7-.78-3.41-.3-4.83.48-1.43 1.52-2.5 3.01-3.09.67-.27 1.35-.4 2.01-.4 2.28 0 4.34 1.65 5.39 4.3l12.58 30.6c.24.58.8.93 1.39.93.18 0 .37-.03.55-.11.76-.3 1.14-1.16.85-1.93L47.14 25.5c-.67-1.7-.78-3.41-.3-4.83.48-1.43 1.52-2.5 3.01-3.09.67-.27 1.35-.4 2.01-.4 2.28 0 4.34 1.65 5.39 4.3l15.4 37.48c.24.58.8.93 1.39.93.18 0 .37-.03.55-.11.76-.3 1.14-1.16.85-1.93L64.7 29.62c-1.17-2.96-.78-6.54 2.71-7.93.67-.27 1.35-.4 2.01-.4 2.28 0 4.34 1.65 5.39 4.3 4.07 10.01 14.7 36.19 15.05 37.18.35 1.19 1.28 1.63 2.02 1.63 1.66 0 2.79-1.92 3.1-2.51.96-1.84 1.43-4.3 1.92-6.91.58-3.05 1.24-6.51 2.73-7.93 2.14-2.04 5.59-3.58 8.03-3.58.77 0 1.36.17 1.62.46 2.56 2.89 1.58 4.79-1.06 9.19l-.52.86c-2.69 4.52-2.79 11.56-2.89 17.77-.04 2.52-.07 4.9-.27 6.95-.12 1.26-.09 2.67-.06 4.29.18 8.65.46 21.72-22.74 30.92-5.06 2.01-9.74 3.03-13.91 3.03z" fill="url(#b)"/><path d="M51.86 18.68c1.65 0 3.18 1.28 4.01 3.39l15.4 37.46a2.999 2.999 0 0 0 3.88 1.65 3 3 0 0 0 1.7-3.86L66.08 29.04c-.82-2.08-.83-4.89 1.88-5.96.5-.2.99-.3 1.45-.3 1.65 0 3.18 1.28 4.01 3.38 5.77 14.18 14.46 35.61 15.01 37.08.52 1.62 1.86 2.66 3.45 2.66 2.51 0 4.03-2.54 4.43-3.32 1.06-2.04 1.55-4.6 2.07-7.31.51-2.69 1.15-6.04 2.29-7.13 2.07-1.98 5.19-3.17 7-3.17.32 0 .51.04.59.06 1.67 1.94 1.3 2.94-1.32 7.31l-.52.87c-2.9 4.87-3 12.12-3.1 18.52-.04 2.49-.07 4.84-.26 6.83-.13 1.35-.1 2.86-.06 4.47.18 8.73.43 20.68-21.8 29.49-4.89 1.94-9.39 2.92-13.37 2.92-7.77 0-13.67-3.71-17.53-11.02-1.68-3.18-15.6-36.84-20.8-49.51-1.79-4.51.36-5.36 1.07-5.64.5-.2.99-.3 1.45-.3 1.65 0 3.18 1.28 4 3.35.01.02.02.04.02.06l7.77 18.52a2.992 2.992 0 0 0 2.77 1.84c.37 0 .75-.07 1.11-.21a3 3 0 0 0 1.69-3.85L37.59 37.52c-.82-2.08-.83-4.89 1.88-5.96.5-.2.99-.3 1.45-.3 1.65 0 3.18 1.28 4.01 3.39L57.5 65.23a2.999 2.999 0 0 0 3.88 1.65 3.008 3.008 0 0 0 1.7-3.86L48.53 24.94c-.82-2.08-.83-4.89 1.88-5.96.5-.2.98-.3 1.45-.3m0-3c-.83 0-1.69.16-2.56.51-4.01 1.59-5.16 5.82-3.56 9.85l14.54 38.05-12.57-30.58c-1.25-3.15-3.81-5.25-6.79-5.25-.83 0-1.69.16-2.56.51-4.01 1.59-5.16 5.82-3.56 9.85l11.77 31.12-7.77-18.52c-1.25-3.15-3.81-5.25-6.79-5.25-.83 0-1.69.16-2.56.51-4.01 1.59-4.35 5.5-2.75 9.53 0 0 18.82 45.8 20.94 49.8 2.6 4.91 8.32 12.61 20.19 12.61 4.06 0 8.85-.9 14.47-3.13 28.46-11.28 23-28.68 23.74-36.46.69-7.25-.56-18.2 2.95-24.1 2.79-4.7 5.02-7.74 1.41-11.82-.59-.66-1.57-.96-2.74-.96-2.75 0-6.59 1.63-9.07 4-3.13 3-2.89 11.27-4.94 15.23-.45.87-1.21 1.71-1.77 1.71-.26 0-.47-.18-.6-.61-.17-.57-15.08-37.25-15.08-37.25-1.25-3.15-3.81-5.25-6.79-5.25-.83 0-1.69.16-2.56.51-4.01 1.59-5.16 5.82-3.56 9.85l10.75 28.24-15.4-37.46c-1.24-3.15-3.8-5.24-6.78-5.24z" fill="#BA8F63"/><defs><path id="c" d="M107.33 43.48c-2.65-1.32-7.69-.44-11.47 3.1-3.18 2.98-1.91 18.76-1.91 18.76l-5.2-3.94s-46.22 38.48-42.73 45.07 14.23 17.58 36.28 8.84c28.46-11.28 23-28.68 23.74-36.46.69-7.25-1-22.78 3.16-26.15 2.69-2.19.37-8.11-1.87-9.22z"/></defs><path fill="none" stroke="#000" stroke-linecap="round" stroke-linejoin="round" stroke-miterlimit="10" stroke-width="3" d="M97.32 33.46l15.33-6M82.98 24.12L81.65 9.46M92.8 25.89l10.18-15.1"/></svg>