<svg viewBox="0 0 128 128" xmlns="http://www.w3.org/2000/svg" xmlns:xlink="http://www.w3.org/1999/xlink"><defs><path id="a" d="M4 4h120v120H4z"/></defs><clipPath id="b"><use xlink:href="#a"/></clipPath><g clip-path="url(#b)"><linearGradient id="c" x1="64" x2="64" y1="9.991" y2="86.57" gradientUnits="userSpaceOnUse"><stop stop-color="#424242" offset=".003"/><stop stop-color="#353535" offset=".271"/><stop stop-color="#131313" offset=".764"/><stop offset="1"/></linearGradient><path d="M8 86.5A2.5 2.5 0 0 1 5.5 84V12A2.5 2.5 0 0 1 8 9.5h112a2.5 2.5 0 0 1 2.5 2.5v72a2.5 2.5 0 0 1-2.5 2.5H8z" fill="url(#c)"/><path d="M120 11c.55 0 1 .45 1 1v72c0 .55-.45 1-1 1H8c-.55 0-1-.45-1-1V12c0-.55.45-1 1-1h112m0-3H8c-2.21 0-4 1.79-4 4v72c0 2.21 1.79 4 4 4h112c2.21 0 4-1.79 4-4V12c0-2.21-1.79-4-4-4z"/><g fill="#76FF03"><path d="M12 16h24v4H12zM86 16h16v4H86zM108 16h8v4h-8zM20 28h8v4h-8zM12 40h16v4H12zM12 52h8v4h-8zM98 52h12v4H98zM104 40h12v4h-12zM12 64h16v4H12zM96 64h20v4H96zM100 28h12v4h-12z"/></g></g><g clip-path="url(#b)"><path d="M36.67 72.26c-5.36 0-9.71-4.67-9.71-10.41s4.36-10.41 9.71-10.41h54.65c5.36 0 9.71 4.67 9.71 10.41s-4.36 10.41-9.71 10.41H36.67z" fill="#3C2B24"/><path d="M91.33 52.43c4.8 0 8.71 4.22 8.71 9.41s-3.91 9.41-8.71 9.41H36.67c-4.8 0-8.71-4.22-8.71-9.41s3.91-9.41 8.71-9.41h54.66m0-2H36.67c-5.89 0-10.71 5.14-10.71 11.41 0 6.28 4.82 11.41 10.71 11.41h54.65c5.89 0 10.71-5.14 10.71-11.41.01-6.27-4.81-11.41-10.7-11.41z" fill="#291B16"/><linearGradient id="d" x1="64" x2="64" y1="94.591" y2="12.825" gradientUnits="userSpaceOnUse"><stop stop-color="#5C4037" offset="0"/><stop stop-color="#63463D" offset=".158"/><stop stop-color="#6D5047" offset=".533"/><stop stop-color="#70534A" offset="1"/></linearGradient><path d="M64 95.27c-15.66 0-32.52-12.14-32.52-38.81 0-12.38 3.56-23.79 10.02-32.13 6.04-7.8 14.25-12.27 22.5-12.27s16.45 4.47 22.5 12.27c6.46 8.34 10.02 19.75 10.02 32.13 0 12.09-3.51 22.19-10.14 29.21-5.86 6.19-13.81 9.6-22.38 9.6z" fill="url(#d)"/><path d="M64 13.07c7.94 0 15.85 4.33 21.71 11.88 6.33 8.16 9.81 19.35 9.81 31.52 0 11.83-3.41 21.7-9.87 28.52-5.67 5.99-13.36 9.29-21.65 9.29s-15.98-3.3-21.65-9.29c-6.46-6.82-9.87-16.69-9.87-28.52 0-12.16 3.49-23.35 9.81-31.52C48.15 17.4 56.06 13.07 64 13.07m0-2c-17.4 0-33.52 18.61-33.52 45.39 0 26.64 16.61 39.81 33.52 39.81S97.52 83.1 97.52 56.46c0-26.78-16.12-45.39-33.52-45.39z" fill="#4A2F27"/><g fill="#1A1717"><path d="M39.99 50.73s.13-.19.38-.51c.07-.08.12-.16.22-.26.11-.11.23-.22.37-.34s.28-.24.43-.38c.15-.13.31-.23.48-.35.17-.11.34-.24.53-.35.19-.1.4-.21.6-.32.21-.12.43-.21.66-.3s.47-.18.71-.27c.49-.14 1-.29 1.54-.36.53-.1 1.08-.11 1.63-.14.55.03 1.09.03 1.63.14.53.07 1.05.22 1.54.36.24.08.48.17.71.27.23.09.45.18.66.3.21.11.41.22.6.32.19.11.36.24.53.35.17.12.33.22.47.34s.27.24.4.35c.12.11.24.21.34.31s.18.21.26.29c.31.36.46.57.46.57.51.7.35 1.69-.36 2.19-.43.31-.96.37-1.43.21l-.29-.1s-.19-.07-.49-.2c-.08-.03-.15-.07-.25-.11-.1-.03-.19-.07-.3-.11-.21-.08-.44-.17-.7-.25-.13-.04-.26-.09-.4-.13-.14-.03-.28-.07-.43-.11l-.22-.06c-.08-.01-.15-.03-.23-.04-.16-.03-.31-.07-.47-.1-.33-.04-.66-.11-1-.12-.34-.04-.69-.03-1.03-.05-.35.02-.7.01-1.03.05-.34.02-.67.09-1 .12-.16.03-.31.07-.47.1-.08.01-.16.03-.23.04l-.22.06c-.15.04-.29.07-.43.11s-.27.09-.4.13-.25.08-.37.11c-.1.04-.2.07-.29.1l-.27.09c-.1.04-.2.1-.29.14-.36.18-.57.27-.57.27-.83.34-1.77-.05-2.11-.87-.24-.48-.16-1.06.13-1.49z"/><ellipse cx="47.56" cy="58.81" rx="4.93" ry="5.1"/><path d="M86.05 53.13s-.22-.09-.57-.27c-.09-.04-.19-.1-.29-.14-.09-.02-.18-.06-.27-.09s-.19-.07-.29-.1c-.12-.04-.24-.07-.37-.11s-.26-.09-.4-.13-.28-.07-.43-.11l-.22-.06c-.08-.01-.15-.03-.23-.04-.16-.03-.31-.07-.47-.1-.33-.04-.66-.11-1-.12-.34-.04-.69-.03-1.03-.05-.35.02-.7.01-1.03.05-.34.02-.67.09-1 .12-.16.03-.31.07-.47.1-.08.01-.16.03-.23.04l-.22.06c-.15.04-.29.08-.43.11-.14.04-.27.09-.4.13-.26.07-.49.16-.7.25-.11.04-.2.08-.3.11-.09.04-.17.08-.25.11-.3.13-.49.2-.49.2l-.28.1c-.82.29-1.72-.15-2-.97-.17-.5-.08-1.03.21-1.44 0 0 .16-.22.46-.57.08-.09.16-.19.26-.29s.22-.2.34-.31.26-.23.4-.35.31-.22.47-.34c.17-.12.34-.24.53-.35.19-.1.4-.21.6-.32.21-.12.43-.21.66-.3s.46-.18.71-.27c.49-.14 1-.29 1.54-.36.53-.1 1.08-.11 1.63-.14.55.03 1.09.03 1.63.14.53.06 1.05.22 1.54.36.24.08.48.17.71.27.23.09.45.18.66.3.21.11.41.22.6.32.19.11.36.24.53.35.17.12.32.22.48.35.15.13.3.26.43.38s.26.23.37.34c.09.1.15.18.22.26.25.31.38.51.38.51.5.74.31 1.74-.43 2.25-.49.28-1.07.32-1.56.12z"/><ellipse cx="80.44" cy="58.81" rx="4.93" ry="5.1"/></g><path d="M67.86 68.06c-.11-.04-.21-.07-.32-.08h-7.07c-.11.01-.22.04-.32.08-.64.26-.99.92-.69 1.63s1.71 2.69 4.55 2.69 4.25-1.99 4.55-2.69c.29-.71-.06-1.37-.7-1.63z" fill="#261C17"/><path d="M72.42 76.14c-3.19 1.89-13.63 1.89-16.81 0-1.83-1.09-3.7.58-2.94 2.24.75 1.63 6.45 5.42 11.37 5.42s10.55-3.79 11.3-5.42c.75-1.66-1.09-3.33-2.92-2.24z" fill="#795548"/><defs><path id="e" d="M64 4.03h-.04c-45.43.24-36.12 52.14-36.12 52.14s5.1 8.99 5.1 8.81c-.03-1.41.46-6.89.46-6.89l-2.68-2.92s3.89-25.44 6.79-24.91c4.45.81 26.54 2 26.57 2 7.83 0 14.92-.36 19.37-1.17 2.9-.53 9.64 1.7 10.68 4.45 1.33 3.54 3.13 19.71 3.13 19.71l-2.68 2.83s.49 5.51.46 6.89c0 .18 5.1-8.81 5.1-8.81S109.44 4.27 64 4.03z"/></defs><radialGradient id="f" cx="64.26" cy="4.274" r="48.85" gradientUnits="userSpaceOnUse"><stop stop-color="#444140" offset="0"/><stop stop-color="#232020" offset="1"/></radialGradient><path d="M64.02 4.03h-.04c-45.43.24-36.13 52.14-36.13 52.14s5.1 8.99 5.1 8.81c-.16-7.25 2.74-20.09 4.8-25.55a6.075 6.075 0 0 1 6.79-3.83c4.46.8 11.55 1.8 19.38 1.8h.16c7.83 0 14.92-1 19.37-1.81 2.9-.53 5.76 1.08 6.79 3.83 2.06 5.47 4.96 18.3 4.8 25.55 0 .18 5.1-8.81 5.1-8.81s9.31-51.89-36.12-52.13z" fill="url(#f)"/><path d="M64.02 4.03h-.04c-45.43.24-36.13 52.14-36.13 52.14s5 8.81 5.1 8.81c-.03-1.48.07-3.2.26-5.03-.12-.29-2.46-4.75-2.48-4.79-.24-1.6-.93-6.98-.55-13.56.41-7.04 2.17-16.96 8.22-24.22 5.67-6.8 14.27-10.28 25.56-10.35H64c11.32.06 19.93 3.54 25.6 10.35 10.81 12.96 8.18 34.33 7.67 37.79-.02.04-2.46 4.58-2.49 4.65.2 1.89.31 3.65.27 5.17.09 0 5.1-8.81 5.1-8.81s9.3-51.91-36.13-52.15z" fill="#1F1D1B"/></g><radialGradient id="g" cx="161.07" cy="71.209" r="27.001" gradientTransform="matrix(0 -.9556 1.0212 0 -8.719 231.08)" gradientUnits="userSpaceOnUse"><stop stop-color="#fff" stop-opacity=".9" offset="0"/><stop stop-color="#E7E7E7" stop-opacity=".912" offset=".123"/><stop stop-color="#A8A8A8" stop-opacity=".938" offset=".383"/><stop stop-color="#444" stop-opacity=".976" offset=".757"/><stop offset="1"/></radialGradient><ellipse cx="64" cy="72.83" rx="30" ry="21.5" clip-path="url(#b)" fill="url(#g)"/><g clip-path="url(#b)"><path d="M18.45 112.37c.01.15.01.3.01.45 0 4.1-1.98 7.42-4.41 7.42-2.44 0-4.41-3.32-4.41-7.42 0-.15.01-.3.01-.45-2.41 1.75-4.02 4.87-4.02 8.45v.65c0 1.4.96 2.54 2.15 2.54h12.54c1.19 0 2.15-1.13 2.15-2.54v-.65c0-3.58-1.61-6.71-4.02-8.45z" fill="#26A69A"/><path d="M14.05 120.24c9 0 4.41-3.32 4.41-7.42 0-.15-.01-.3-.01-.45-1.28-.93-2.79-1.48-4.4-1.48-1.62 0-3.12.55-4.4 1.48-.01.15-.01.3-.01.45-.01 4.1-4.64 7.42 4.41 7.42z" fill="#00796B"/></g><g clip-path="url(#b)"><path d="M27.98 106.8c-.11-2.84-2.23-8.7-5-9.19a.592.592 0 0 1-.41-.25c-.44-.67-1.85-2.47-4.43-1.05-.96.53-1.3 1-1.14 1.68-.12.14-.34.31-.66.18-1.04-1.16-2.32-1.4-3.81-.24-1.69 1.32-1.69 2.26-1.38 3.19l-.01.01s-.08.65-.56.59c-.51-.44-1.13-.44-2.09.26-2.6 1.88-1.53 3.66-1.09 4.71-.06.1-.16.17-.32.16-.34-.18-.77-.18-1.35.15-1.38.79-1.18 3.39-.79 4.24.43.93 2.8 4.19 3.62 5.11.19.21.42.36.67.46a.689.689 0 0 1-.08-.03c.71.44 1.95.97 3.16.22 0 0 .77-.56.84-1.15 1.31.73 3.12-.63 3.12-.63.85-.65 1.07-1.38 1.04-2.01.43.26.9.36 1.35.37 1.36.04 2.61-.76 2.61-.76 1.95-1.11 2.34-2.27 2.33-3.04 1.01.63 2.26.16 2.26.16 2.19-.99 2.12-3.14 2.12-3.14z" fill="#70534A"/><path d="M28.62 106.78c-.12-3.05-2.36-9.23-5.51-9.77-1.25-1.91-3.22-2.38-5.27-1.26-.62.34-1.3.81-1.47 1.55-1.26-1.07-2.74-1.04-4.22.12-1.75 1.36-1.92 2.51-1.72 3.47-1-.38-1.96.31-2.31.57-2.36 1.7-2.08 3.48-1.66 4.63-.33.03-.68.14-1.04.35-1.78 1.01-1.54 4.01-1.05 5.06.47 1.01 2.86 4.31 3.72 5.26.19.21.43.39.7.54.01 0 .01.01.02.01.73.46 1.47.69 2.18.69.59 0 1.17-.16 1.7-.5.11-.08.53-.41.82-.87 1.5.3 3.07-.87 3.14-.93.68-.52 1.02-1.09 1.18-1.61.26.07.53.1.82.11 1.52.03 2.91-.83 2.94-.85 1.59-.9 2.27-1.88 2.52-2.71 1 .23 1.93-.11 2.01-.14 2.55-1.13 2.51-3.62 2.5-3.72zm-2.7 1.52c-.79.59-1.5.68-2.08.44-.57-.47-1.08-1.42-1.08-1.42-2.25-4.13-3.8-6.2-3.8-6.2-.15-.18-.48-.75-.95-1.04-.59-.36-.42.28-.42.28 2.62 4.08 4.21 7.34 4.21 7.34.68 1.24.56 2.11.36 2.6-.22.59-1.53 1.43-1.53 1.43-2.64 1.58-3.86-.53-3.86-.53s-1.55-1.94-4.14-6.78c0 0-.41-.67-.65-.21 0 0 .14.82.52 1.6 0 0 1.18 2.8 3.46 6.03.02.05.03.1.05.15.04.11.08.23.11.34.01.04.01.08.02.13.02.11.04.22.04.33 0 .04-.01.07-.01.1 0 .11-.01.21-.03.31l-.03.09c-.02.1-.05.2-.09.29-.01.03-.03.06-.04.09-.04.09-.08.17-.13.25-.02.03-.05.06-.07.1-.05.07-.09.13-.15.19-.04.04-.09.08-.13.12s-.08.08-.13.12a2.55 2.55 0 0 1-.91.45c-.06.02-.12.02-.18.03-.14.02-.27.04-.4.04-.06 0-.13-.01-.19-.02-.12-.02-.24-.04-.35-.08-.05-.02-.11-.03-.16-.06-.12-.05-.24-.12-.36-.19-.03-.02-.06-.03-.09-.05-.59-.58-1.95-2.14-3.93-5.71 0 0-.39-.9-.58-.59 0 0-.2.24.35 1.62 0 0 .79 1.98 2.79 4.63.73 1.01.66 1.5.37 1.81-.02.02-.05.04-.07.07-.14.13-.31.23-.48.32-.56.06-1.1-.13-1.54-.37a.615.615 0 0 0-.19-.12c-.19-.08-.34-.18-.44-.3-.85-.95-3.13-4.12-3.51-4.95-.33-.72-.42-2.88.52-3.42.48-.28.67-.18.73-.14.08.05.18.07.27.08.37.02.71-.15.9-.47.1-.17.12-.38.04-.57l-.12-.27c-.46-1.05-.98-2.24 1-3.67.89-.65 1.15-.43 1.3-.29.1.08.22.14.34.15.69.08 1.13-.44 1.25-1.02a.64.64 0 0 0 0-.41c-.18-.56-.41-1.26 1.17-2.49 1.12-.87 2.06-.82 2.94.16.07.07.15.13.24.17.51.2 1.02.07 1.39-.36.13-.16.18-.36.13-.56-.05-.19-.11-.46.82-.97 1.48-.81 2.69-.53 3.59.84.18.28.48.46.83.53.11.02.22.06.33.1 1.13 1.8 2.32 4.06 2.84 5.05.98 1.8 1.62 3.59-.09 4.88z" fill="#4A2F27"/></g><g clip-path="url(#b)"><path d="M100.03 112.8c.11-2.84 2.23-8.7 5-9.19.17-.03.32-.11.41-.25.44-.67 1.85-2.47 4.43-1.05.96.53 1.3 1 1.14 1.68.12.14.34.31.66.18 1.04-1.16 2.32-1.4 3.81-.24 1.69 1.32 1.69 2.26 1.38 3.19l.01.01s.08.65.56.59c.51-.44 1.13-.44 2.09.26 2.6 1.88 1.53 3.66 1.09 4.71.06.1.16.17.32.16.34-.18.77-.18 1.35.15 1.38.79 1.18 3.39.79 4.24-.43.93-2.8 4.19-3.62 5.11-.19.21-.42.36-.67.46.03-.01.06-.02.08-.03-.71.44-1.95.97-3.16.22 0 0-.77-.56-.84-1.15-1.31.73-3.12-.63-3.12-.63-.85-.65-1.07-1.38-1.04-2.01-.43.26-.9.36-1.35.37-1.36.04-2.61-.76-2.61-.76-1.95-1.11-2.34-2.27-2.33-3.04-1.01.63-2.26.16-2.26.16-2.19-.99-2.12-3.14-2.12-3.14z" fill="#70534A"/><path d="M99.39 112.78c.12-3.05 2.36-9.23 5.51-9.77 1.25-1.91 3.22-2.38 5.27-1.26.62.34 1.3.81 1.47 1.55 1.26-1.07 2.74-1.04 4.22.12 1.75 1.36 1.92 2.51 1.72 3.47 1-.38 1.96.31 2.31.57 2.36 1.7 2.08 3.48 1.66 4.63.33.03.68.14 1.04.35 1.78 1.01 1.54 4.01 1.05 5.06-.47 1.01-2.86 4.31-3.72 5.26-.19.21-.43.39-.7.54-.01 0-.01.01-.02.01-.73.46-1.47.69-2.18.69-.59 0-1.17-.16-1.7-.5-.11-.08-.53-.41-.82-.87-1.5.3-3.07-.87-3.14-.93-.68-.52-1.02-1.09-1.18-1.61-.26.07-.53.1-.82.11-1.52.03-2.91-.83-2.94-.85-1.59-.9-2.27-1.88-2.52-2.71-1 .23-1.93-.11-2.01-.14-2.55-1.13-2.5-3.62-2.5-3.72zm2.7 1.52c.79.59 1.5.68 2.08.44.57-.47 1.08-1.42 1.08-1.42 2.25-4.13 3.8-6.2 3.8-6.2.15-.18.48-.75.95-1.04.59-.36.42.28.42.28-2.62 4.08-4.21 7.34-4.21 7.34-.68 1.24-.56 2.11-.36 2.6.22.59 1.53 1.43 1.53 1.43 2.64 1.58 3.86-.53 3.86-.53s1.55-1.94 4.14-6.78c0 0 .41-.67.65-.21 0 0-.14.82-.52 1.6 0 0-1.18 2.8-3.46 6.03-.02.05-.03.1-.05.15-.04.11-.08.23-.11.34-.01.04-.01.08-.02.13-.02.11-.04.22-.04.33 0 .04.01.07.01.1 0 .11.01.21.03.31l.03.09c.02.1.05.2.09.29.01.03.03.06.04.09.04.09.08.17.13.25.02.03.05.06.07.1.05.07.09.13.15.19.04.04.09.08.13.12s.08.08.13.12a2.55 2.55 0 0 0 .91.45c.06.02.12.02.18.03.14.02.27.04.4.04.06 0 .13-.01.19-.02.12-.02.24-.04.35-.08.05-.02.11-.03.16-.06.12-.05.24-.12.36-.19.03-.02.06-.03.09-.05.59-.58 1.95-2.14 3.93-5.71 0 0 .39-.9.58-.59 0 0 .2.24-.35 1.62 0 0-.79 1.98-2.79 4.63-.73 1.01-.66 1.5-.37 1.81.02.02.05.04.07.07.14.13.31.23.48.32.56.06 1.1-.13 1.54-.37.05-.05.12-.09.19-.12.19-.08.34-.18.44-.3.85-.95 3.13-4.12 3.51-4.95.33-.72.42-2.88-.52-3.42-.48-.28-.67-.18-.73-.14a.65.65 0 0 1-.27.08.965.965 0 0 1-.9-.47.635.635 0 0 1-.04-.57l.12-.27c.46-1.05.98-2.24-1-3.67-.89-.65-1.15-.43-1.3-.29-.1.08-.22.14-.34.15-.69.08-1.13-.44-1.25-1.02a.64.64 0 0 1 0-.41c.18-.56.41-1.26-1.17-2.49-1.12-.87-2.06-.82-2.94.16-.07.07-.15.13-.24.17-.51.2-1.02.07-1.39-.36a.632.632 0 0 1-.13-.56c.05-.19.11-.46-.82-.97-1.48-.81-2.69-.53-3.59.84-.18.28-.48.46-.83.53-.11.02-.22.06-.33.1-1.13 1.8-2.32 4.06-2.84 5.05-.98 1.8-1.61 3.59.09 4.88z" fill="#4A2F27"/></g><g clip-path="url(#b)"><linearGradient id="h" x1="64" x2="64" y1="74.526" y2="142.94" gradientUnits="userSpaceOnUse"><stop stop-color="#4DD0E1" offset="0"/><stop stop-color="#00BCD4" offset="1"/></linearGradient><path d="M24.5 142.5c-3.58 0-6.5-2.92-6.5-6.5V81.17c0-3.58 2.92-6.5 6.5-6.5h79c3.58 0 6.5 2.92 6.5 6.5V136c0 3.58-2.92 6.5-6.5 6.5h-79z" fill="url(#h)"/><path d="M103.5 76.17c2.76 0 5 2.24 5 5V136c0 2.76-2.24 5-5 5h-79c-2.76 0-5-2.24-5-5V81.17c0-2.76 2.24-5 5-5h79m0-3h-79c-4.42 0-8 3.58-8 8V136c0 4.42 3.58 8 8 8h79c4.42 0 8-3.58 8-8V81.17c0-4.42-3.58-8-8-8z" fill="#00B3C1"/></g><linearGradient id="i" x1="64" x2="64" y1="92.596" y2="131.87" gradientUnits="userSpaceOnUse"><stop stop-color="#00BCD4" offset="0"/><stop stop-color="#0097A7" offset="1"/></linearGradient><path d="M76.91 117.56c-1.37-4.66-1.94-12.44-2.18-17.87-.15-3.43-2.99-6.13-6.45-6.13h-8.55c-3.46 0-6.3 2.7-6.45 6.13-.24 5.44-.81 13.21-2.18 17.87-2.27 7.72-5.81 13.99.34 13.99h25.13c6.15 0 2.6-6.27.34-13.99z" clip-path="url(#b)" fill="url(#i)"/></svg>