<svg viewBox="0 0 128 128" xmlns="http://www.w3.org/2000/svg"><radialGradient id="a" cx="50.276" cy="61.168" r="35.942" gradientTransform="matrix(1.0066 0 0 1.0207 -.417 -1.188)" gradientUnits="userSpaceOnUse"><stop stop-color="#42A5F5" offset="0"/><stop stop-color="#1E88E5" offset="1"/></radialGradient><path d="M49.09 27.33c10.33 15.23-4.65 31.22-3.36 38.13C48 77.67 57.86 83.61 48.61 95.92c-1.53 2.04-8.29 6.7-18.02.97-10.38-6.11-25.95-41.54-18.38-62.25 7.08-19.39 30.62-16.54 36.88-7.31z" fill="url(#a)"/><path d="M49.93 24.35C45.37 21.4 46.82-.14 59.68 7.37s-5.19 19.93-9.75 16.98z" fill="#1E88E5"/><path d="M38.35 17.92c-4.07-1.01-6.21-15.38 3.01-13.63s1.06 14.63-3.01 13.63zM27.3 17.32c-2.53.68-12.35-8.93-3.24-11.91 8.83-2.89 5.77 11.23 3.24 11.91z" fill="#1E88E5"/><path d="M17.68 20.71c-2.51 1.48-12.25-5.54-5.77-9.86 6.13-4.08 8.28 8.38 5.77 9.86z" fill="#2196F3"/><path d="M11.35 26.81c-1.95 2.47-10.29-1.59-6.97-5.88s8.92 3.41 6.97 5.88z" fill="#42A5F5"/><g fill="#eee" opacity=".2"><path d="M45.2 29.6c4.21 6.7 3.24 13.44.61 20.53-1.72 4.63-4.8 9.57-4.66 14.67.19 6.83 5.05 12.31 6.51 18.75 1.31 5.8-2.46 12.05-8.75 11.53-11.13-.91-16.83-16.21-19.9-25.05-3.89-11.21-7.57-26.86-.71-37.7 5.06-7.99 20.54-11.45 26.9-2.73 3.38 4.63 11.19.15 7.77-4.54-7.63-10.46-24.19-12.18-34.73-5.22C4.17 29.12 4.29 48.17 7.58 62.86c2.85 12.71 8.93 30.62 20.73 37.92 6.66 4.11 16.33 4.95 22.45-.65 6.1-5.57 7.49-14.35 4.63-21.81-1.59-4.16-5.1-8.97-5.25-13.51-.1-3.27 2.24-6.99 3.43-9.95 4.02-10 5.39-20.26-.6-29.8-3.07-4.9-10.86-.39-7.77 4.54z"/><path d="M54.73 7.8c1.13 0 2.45.44 3.94 1.31 4.28 2.5 3.61 4.95 3.4 5.76-1.11 4.09-7.26 7.93-10.35 7.93-.49 0-.67-.1-.7-.12-1.07-.69-2.17-5.59-.81-10.22.62-2.13 1.91-4.66 4.52-4.66m0-2c-8.21 0-8.69 16.04-4.8 18.56.47.3 1.08.44 1.79.44 6.16 0 19.5-10.68 7.96-17.42-1.9-1.11-3.54-1.58-4.95-1.58zM39.9 6.14c.34 0 .71.04 1.1.11 1.97.37 2.73 1.27 2.57 3-.3 3.21-3.51 6.72-4.73 6.72-.76-.21-2.34-3.39-1.89-6.7.43-3.13 2.26-3.13 2.95-3.13m-.01-2c-7.5 0-5.38 12.83-1.54 13.78.15.04.31.06.47.06 4.18 0 11.41-12.01 2.54-13.69-.52-.11-1.01-.15-1.47-.15zM26 5v2h.11c.63 0 1.14.18 1.47 1.03.83 2.19-.12 5.97-.91 7.2-1.37-.6-4.22-3.3-4.41-5.54-.04-.43-.23-1.56 2.31-2.39.58-.18 1.43-.28 1.43-.28V5m.22.02c-.62 0-1.34.12-2.16.39-8.8 2.88.06 11.94 2.96 11.94.1 0 .2-.01.28-.03 2.29-.62 5.03-12.3-1.08-12.3zM14.24 12.04c.65 0 1.19.82 1.46 1.31 1.06 1.96 1.14 4.57.87 5.54-1.33-.22-4.17-2.07-4.76-4.02-.13-.42-.39-1.28 1.2-2.34.48-.33.9-.49 1.23-.49m0-2c-.7 0-1.48.25-2.33.82-5.88 3.91 1.6 10.06 4.91 10.06.34 0 .63-.06.86-.2 2.16-1.28.87-10.69-3.44-10.68zM6.69 21.64c.49 0 1.37.55 2.13 1.59.73 1 .95 1.91.93 2.29-.07.01-.17.03-.31.03-1.35 0-3.19-1.04-3.71-2.1-.15-.3-.26-.68.23-1.31.39-.5.65-.5.73-.5m0-2c-.81 0-1.61.37-2.31 1.28-2.62 3.39 2.03 6.63 5.06 6.63.81 0 1.5-.23 1.91-.75 1.54-1.94-1.63-7.16-4.66-7.16z"/></g><radialGradient id="b" cx="119.18" cy="82.342" r="42.194" gradientTransform="matrix(-1.0066 0 0 1.0207 187.02 -1.188)" gradientUnits="userSpaceOnUse"><stop stop-color="#42A5F5" offset="0"/><stop stop-color="#1E88E5" offset="1"/></radialGradient><path d="M78.13 51.82c-10.33 15.23 4.65 31.22 3.36 38.13-2.27 12.21-12.13 18.15-2.88 30.46 1.53 2.04 8.29 6.7 18.02.97 10.38-6.11 25.95-41.54 18.38-62.25-7.09-19.39-30.62-16.53-36.88-7.31z" fill="url(#b)"/><path d="M77.29 48.85c4.56-2.95 3.11-24.49-9.75-16.98s5.19 19.92 9.75 16.98z" fill="#1E88E5"/><path d="M88.87 42.41c4.07-1.01 6.21-15.38-3.01-13.63s-1.06 14.64 3.01 13.63zM99.92 41.82c2.53.68 12.35-8.93 3.24-11.91-8.83-2.89-5.77 11.22-3.24 11.91z" fill="#1E88E5"/><path d="M109.54 45.2c2.51 1.48 12.25-5.54 5.77-9.86-6.13-4.07-8.28 8.39-5.77 9.86z" fill="#2196F3"/><path d="M115.87 51.3c1.95 2.47 10.29-1.59 6.97-5.88-3.32-4.3-8.92 3.42-6.97 5.88z" fill="#42A5F5"/><g fill="#eee" opacity=".2"><path d="M74.24 49.55c-5.15 8.2-5.07 17.32-1.95 26.26 1.21 3.47 2.87 6.78 4.04 10.26 1.33 3.97-.32 7.3-1.98 11-3.59 8.02-5.98 15.22-1.12 23.37 3.85 6.45 10.86 9.28 18.25 7.76 15.1-3.12 22.42-21.35 26.44-34.42 4.44-14.46 6.85-34.1-4.74-46.02-10.17-10.45-30.09-10.32-38.94 1.79-3.42 4.68 4.39 9.18 7.77 4.54 5.19-7.11 18.15-6 24.02-.73 9.61 8.64 6.86 25.19 3.77 36.11-2.57 9.09-6.94 22.19-15.18 27.85-5.9 4.05-13.02 2.72-15.02-4.45-1.76-6.31 3.8-12.96 5.52-18.81 1.83-6.21-.25-10.82-2.57-16.55-3.21-7.92-5.4-15.68-.53-23.43 3.08-4.9-4.7-9.43-7.78-4.53z"/><path d="M72.49 32.29c2.61 0 3.9 2.53 4.53 4.66 1.36 4.62.26 9.52-.81 10.22-.03.02-.22.12-.7.12-3.09 0-9.24-3.84-10.35-7.93-.22-.81-.88-3.26 3.4-5.76 1.48-.87 2.8-1.31 3.93-1.31m0-2c-1.41 0-3.06.48-4.95 1.58-11.54 6.74 1.8 17.42 7.96 17.42.71 0 1.32-.14 1.79-.44 3.89-2.51 3.41-18.56-4.8-18.56zM87.32 30.63c.69 0 2.52 0 2.95 3.13.45 3.31-1.12 6.49-1.88 6.7-1.22 0-4.44-3.52-4.74-6.72-.16-1.73.61-2.63 2.57-3 .4-.07.77-.11 1.1-.11m0-2c-.45 0-.94.05-1.47.15-8.87 1.68-1.64 13.69 2.54 13.69.16 0 .32-.02.47-.06 3.84-.95 5.96-13.78-1.54-13.78zM101 31.52c.43 0 .95.1 1.54.29 2.54.83 2.45 1.96 2.41 2.39-.19 2.25-3.1 4.97-4.42 5.55-.79-1.22-1.78-5.01-.94-7.21.32-.85.78-1.02 1.41-1.02m0-2c-6.12 0-3.38 11.68-1.08 12.3.09.02.18.03.28.03 2.9 0 11.76-9.07 2.96-11.94-.82-.27-1.53-.39-2.16-.39zM112.98 36.53c.33 0 .75.17 1.22.48 1.59 1.06 1.33 1.93 1.2 2.34-.59 1.94-3.39 3.77-4.76 4.02-.27-.97-.19-3.58.87-5.53.27-.48.82-1.31 1.47-1.31m0-2c-4.31 0-5.6 9.4-3.44 10.67.23.14.53.2.86.2 3.31 0 10.79-6.14 4.91-10.06-.85-.56-1.63-.81-2.33-.81zM120.53 46.14c.08 0 .34 0 .73.5.49.64.38 1.01.23 1.31-.52 1.06-2.36 2.1-3.71 2.1-.14 0-.24-.01-.31-.03-.02-.38.21-1.28.93-2.29.75-1.04 1.64-1.59 2.13-1.59m0-2c-3.03 0-6.2 5.22-4.66 7.16.41.52 1.1.75 1.91.75 3.03 0 7.68-3.24 5.06-6.63-.7-.91-1.5-1.28-2.31-1.28z"/></g></svg>