<svg viewBox="0 0 128 128" xmlns="http://www.w3.org/2000/svg" xmlns:xlink="http://www.w3.org/1999/xlink"><defs><path id="a" d="M4 4h120v120H4z"/></defs><clipPath id="b"><use xlink:href="#a"/></clipPath><g clip-path="url(#b)"><path d="M65.5 127.03V88.4c0-9.31 7.37-16.61 19.71-19.54 4.28-1.02 8.35-1.51 12.42-1.51 2.85 0 5.74.25 8.61.75 9.79 1.69 20.25 7.91 20.25 20.31v38.64l-60.99-.02z" fill="#00BFA5"/><path d="M97.63 68.85c2.76 0 5.57.24 8.36.72 5.59.96 10.31 3.14 13.66 6.28C123.2 79.2 125 83.42 125 88.4v37.14l-58-.01V88.4c0-12.69 14.2-17.05 18.56-18.08 4.16-.99 8.11-1.47 12.07-1.47m0-3c-4.4 0-8.62.57-12.77 1.55C73.63 70.07 64 77.04 64 88.4v40.12l64 .02V88.4c0-12.28-9.62-19.73-21.5-21.78-3.05-.52-5.99-.77-8.87-.77z" fill="#00A68F"/><path d="M96 73.12c-3.31 0-6-2.69-6-6V61.7h12v5.42c0 3.31-2.69 6-6 6z" fill="#E59600"/><path d="M101 62.7v4.42c0 2.76-2.24 5-5 5s-5-2.24-5-5V62.7h10m2-2H89v6.42c0 3.87 3.13 7 7 7s7-3.13 7-7V60.7z" fill="#D18100"/><defs><path id="c" d="M65.89 4.11h60.22v60.22H65.89z"/></defs><clipPath id="d"><use xlink:href="#c"/></clipPath><g clip-path="url(#d)"><path d="M77.97 49.3c-3.62 0-6.57-3.15-6.57-7.03s2.95-7.03 6.57-7.03h36.05c3.62 0 6.57 3.15 6.57 7.03s-2.95 7.03-6.57 7.03H77.97z" fill="#E59600"/><path d="M114.03 35.74c3.35 0 6.07 2.93 6.07 6.53s-2.72 6.53-6.07 6.53H77.98c-3.35 0-6.07-2.93-6.07-6.53s2.72-6.53 6.07-6.53h36.05m0-1H77.98c-3.89 0-7.07 3.39-7.07 7.53s3.18 7.53 7.07 7.53h36.05c3.89 0 7.07-3.39 7.07-7.53-.01-4.14-3.19-7.53-7.07-7.53z" fill="#CC8600"/><linearGradient id="e" x1="95.926" x2="95.926" y1="8.91" y2="63.352" gradientUnits="userSpaceOnUse"><stop stop-color="#FFCA28" offset=".599"/><stop stop-color="#FFB300" offset="1"/></linearGradient><path d="M95.93 63.32c-5.56 0-10.71-2.21-14.51-6.23-4.32-4.56-6.6-11.14-6.6-19.03 0-8.09 2.32-15.55 6.54-20.98 3.92-5.06 9.23-7.96 14.57-7.96s10.65 2.9 14.57 7.96c4.22 5.44 6.54 12.89 6.54 20.98 0 7.89-2.28 14.47-6.6 19.03-3.8 4.02-8.95 6.23-14.51 6.23z" fill="url(#e)"/><path d="M95.93 10.11c5.03 0 10.05 2.76 13.78 7.57 4.08 5.26 6.33 12.5 6.33 20.37 0 7.63-2.19 13.97-6.32 18.35-3.61 3.81-8.51 5.91-13.79 5.91s-10.18-2.1-13.79-5.91c-4.14-4.37-6.32-10.72-6.32-18.35 0-7.87 2.25-15.11 6.33-20.37 3.73-4.81 8.75-7.57 13.78-7.57m0-2c-11.48 0-22.11 12.28-22.11 29.94 0 17.57 10.95 26.26 22.11 26.26s22.11-8.69 22.11-26.26c0-17.66-10.63-29.94-22.11-29.94z" fill="#EDA600"/><g fill="#6D4C41"><path d="M80.16 34.93s.09-.13.25-.33c.04-.05.08-.11.14-.17.07-.07.15-.14.24-.22l.28-.25c.1-.08.2-.15.31-.23s.23-.16.35-.23c.13-.07.26-.14.4-.21.14-.08.28-.14.43-.2s.31-.12.47-.18c.32-.09.66-.19 1.01-.24.35-.07.71-.07 1.07-.09.36.02.72.02 1.07.09.35.04.69.15 1.01.24.16.05.32.11.47.18.15.06.3.12.43.2.14.07.27.14.4.21.12.07.24.16.35.23.11.08.22.15.31.23l.26.23c.08.07.16.14.22.21.07.07.12.14.17.19.2.24.31.38.31.38.33.46.23 1.11-.24 1.45-.28.2-.63.24-.94.14l-.19-.07s-.13-.04-.32-.13c-.05-.02-.1-.05-.16-.07s-.13-.05-.2-.07c-.14-.06-.29-.11-.46-.16-.09-.03-.17-.06-.26-.09-.09-.02-.19-.05-.28-.07-.05-.01-.1-.03-.15-.04l-.15-.03c-.1-.02-.21-.05-.31-.06-.22-.02-.43-.07-.66-.08-.22-.03-.45-.02-.68-.03-.23.01-.46.01-.68.04-.23.01-.44.06-.66.08-.11.02-.21.05-.31.06l-.15.03c-.05.01-.1.03-.15.04-.1.02-.19.05-.28.07s-.18.06-.26.09-.17.05-.24.08c-.07.02-.13.05-.19.07l-.18.06c-.06.03-.13.07-.19.09-.24.12-.38.18-.38.18-.54.23-1.17-.03-1.39-.58-.13-.37-.08-.75.11-1.04zM110.55 36.52s-.14-.06-.38-.18c-.06-.03-.13-.07-.19-.09-.06-.01-.12-.04-.18-.06s-.12-.04-.19-.07c-.08-.02-.16-.05-.24-.08-.09-.03-.17-.06-.26-.09-.09-.02-.19-.05-.28-.07-.05-.01-.1-.03-.15-.04l-.15-.03c-.1-.02-.21-.05-.31-.06-.22-.02-.43-.07-.66-.08-.22-.03-.45-.02-.68-.04-.23.01-.46.01-.68.03-.23.01-.44.06-.66.08-.11.02-.21.05-.31.06l-.15.03c-.05.01-.1.03-.15.04-.1.03-.19.05-.28.07s-.18.06-.26.09c-.17.05-.33.11-.46.16-.07.03-.13.05-.2.07-.06.02-.11.05-.16.07-.2.09-.32.13-.32.13l-.19.06c-.54.19-1.13-.1-1.32-.64-.11-.33-.05-.68.14-.95 0 0 .1-.14.31-.38.05-.06.11-.13.17-.19.07-.07.14-.13.22-.21l.26-.23c.09-.08.2-.15.31-.23s.23-.16.35-.23c.13-.07.26-.14.4-.21.14-.08.28-.14.43-.2s.31-.12.47-.18c.32-.09.66-.19 1.01-.24.35-.07.71-.07 1.07-.09.36.02.72.02 1.07.09.35.04.69.15 1.01.24.16.05.32.11.47.18.15.06.3.12.43.2.14.07.27.14.4.21.12.07.24.16.35.23.11.08.21.15.31.23.1.09.2.17.28.25.09.08.17.15.24.22.06.07.1.12.14.17l.25.33c.33.49.21 1.15-.28 1.48-.3.26-.68.28-1 .15z"/></g><g fill="#404040"><ellipse cx="85.16" cy="40.92" rx="3.25" ry="3.37"/><ellipse cx="106.84" cy="40.92" rx="3.25" ry="3.37"/></g><radialGradient id="f" cx="96.071" cy="5.831" r="20.048" gradientUnits="userSpaceOnUse"><stop stop-color="#6D4C41" offset="0"/><stop stop-color="#543930" offset="1"/></radialGradient><path d="M96.19 4.13c-30.21 0-23.86 34.71-23.86 34.71s3.18 5.61 3.18 5.49c-.11-4.78 1.81-13.25 3.17-16.86a4.005 4.005 0 0 1 4.48-2.53c2.94.53 7.62 1.19 12.78 1.19 4.96 0 9.51-.61 12.5-1.13 2.05-.36 4.03.9 4.57 2.91l3.74 16.41 3.09-6c0 .02 6.19-34.19-23.65-34.19z" fill="url(#f)"/><defs><path id="g" d="M96.19 4.13c-30.21 0-24.25 33.86-24.25 33.86s3.57 6.47 3.57 6.35c-.02-1.02.64-5.25.64-5.25a15.428 15.428 0 0 1-1.78-7.19v-.74l1.78-6.6 19.89-12.28 19.6 12.17 1.66 7.6.05.69c-.27 2.21-.95 4.22-1.79 6.29l1.18 5.3 3.18-6.29c0 .01 6.11-33.91-23.73-33.91z"/></defs><clipPath id="h"><use xlink:href="#g"/></clipPath><g clip-path="url(#h)"><path d="M96.19 7.13c7.09 0 12.46 2.12 15.96 6.31 4.93 5.88 5.41 14.66 5.17 19.92l-1.39-6.1-.03-.11a7.02 7.02 0 0 0-6.77-5.19c-.4 0-.81.04-1.21.1-2.84.49-7.22 1.08-11.98 1.08-4.91 0-9.37-.62-12.24-1.14-.42-.08-.84-.11-1.26-.11-2.91 0-5.54 1.82-6.56 4.54-.45 1.2-.96 2.91-1.45 4.84.02-5.18.95-12.51 5.31-17.68 3.6-4.29 9.14-6.46 16.45-6.46m0-3c-30.21 0-24.31 33.86-24.31 33.86s3.57 6.35 3.63 6.35c-.11-4.78 1.81-13.25 3.17-16.86a4.005 4.005 0 0 1 4.49-2.52c2.94.53 7.62 1.19 12.78 1.19 4.96 0 9.51-.61 12.5-1.13a3.995 3.995 0 0 1 4.56 2.91l3.74 16.41 3.09-6s6.19-34.21-23.65-34.21z" fill="#402821"/></g><path d="M101.41 52.94c-2.1 1.25-8.99 1.25-11.09 0-1.21-.72-2.44.38-1.94 1.48.49 1.08 4.25 3.58 7.5 3.58s6.96-2.5 7.45-3.58c.5-1.1-.72-2.2-1.92-1.48z" fill="#795548"/><path d="M98.1 46.88a.537.537 0 0 0-.21-.05h-4.67c-.07.01-.14.03-.21.05-.42.17-.66.61-.46 1.08s1.13 1.78 3 1.78 2.8-1.31 3-1.78-.03-.91-.45-1.08z" fill="#E59600"/></g><linearGradient id="i" x1="122" x2="122" y1="97.824" y2="127.82" gradientUnits="userSpaceOnUse"><stop stop-color="#FFB300" offset="0"/><stop stop-color="#FFCA28" offset=".401"/></linearGradient><path fill="url(#i)" d="M117 97.82h10v30h-10z"/><path d="M126 98.82v28h-8v-28h8m2-2h-12v32h12v-32z" fill="#EDA600"/></g><g clip-path="url(#b)"><defs><path id="j" d="M0 0h128v128H0z"/></defs><clipPath id="k"><use xlink:href="#j"/></clipPath><g clip-path="url(#k)"><path d="M1.5 127.03V88.4c0-9.31 7.37-16.61 19.71-19.54 4.28-1.02 8.35-1.51 12.42-1.51 2.85 0 5.74.25 8.61.75 9.79 1.69 20.25 7.91 20.25 20.31v38.64l-60.99-.02z" fill="#007689"/><path d="M33.63 68.85c2.76 0 5.57.24 8.36.72 5.59.96 10.31 3.14 13.66 6.28C59.2 79.2 61 83.42 61 88.4v37.14l-58-.01V88.4c0-12.69 14.2-17.05 18.56-18.08 4.16-.99 8.11-1.47 12.07-1.47m0-3c-4.4 0-8.62.57-12.77 1.55C9.63 70.07 0 77.04 0 88.4v40.12l64 .02V88.4c0-12.28-9.62-19.73-21.5-21.78-3.05-.52-5.99-.77-8.87-.77z" fill="#006575"/><path d="M32 73.12c-3.31 0-6-2.69-6-6V61.7h12v5.42c0 3.31-2.69 6-6 6z" fill="#E59600"/><path d="M37 62.7v4.42c0 2.76-2.24 5-5 5s-5-2.24-5-5V62.7h10m2-2H25v6.42c0 3.87 3.13 7 7 7s7-3.13 7-7V60.7z" fill="#D18100"/><defs><path id="l" d="M1.89 4.11h60.22v60.22H1.89z"/></defs><clipPath id="m"><use xlink:href="#l"/></clipPath><g clip-path="url(#m)"><path d="M13.97 49.3c-3.62 0-6.57-3.15-6.57-7.03s2.95-7.03 6.57-7.03h36.05c3.62 0 6.57 3.15 6.57 7.03s-2.95 7.03-6.57 7.03H13.97z" fill="#E59600"/><path d="M50.03 35.74c3.35 0 6.07 2.93 6.07 6.53s-2.72 6.53-6.07 6.53H13.98c-3.35 0-6.07-2.93-6.07-6.53s2.72-6.53 6.07-6.53h36.05m0-1H13.98c-3.89 0-7.07 3.39-7.07 7.53s3.18 7.53 7.07 7.53h36.05c3.89 0 7.07-3.39 7.07-7.53-.01-4.14-3.19-7.53-7.07-7.53z" fill="#CC8600"/><linearGradient id="n" x1="31.926" x2="31.926" y1="8.91" y2="63.352" gradientUnits="userSpaceOnUse"><stop stop-color="#FFCA28" offset=".599"/><stop stop-color="#FFB300" offset="1"/></linearGradient><path d="M31.93 63.32c-5.56 0-10.71-2.21-14.51-6.23-4.32-4.56-6.6-11.14-6.6-19.03 0-8.09 2.32-15.55 6.54-20.98 3.92-5.06 9.23-7.96 14.57-7.96s10.65 2.9 14.57 7.96c4.22 5.44 6.54 12.89 6.54 20.98 0 7.89-2.28 14.47-6.6 19.03-3.8 4.02-8.95 6.23-14.51 6.23z" fill="url(#n)"/><path d="M31.93 10.11c5.03 0 10.05 2.76 13.78 7.57 4.08 5.26 6.33 12.5 6.33 20.37 0 7.63-2.19 13.97-6.32 18.35-3.61 3.81-8.51 5.91-13.79 5.91s-10.18-2.1-13.79-5.91c-4.14-4.37-6.32-10.72-6.32-18.35 0-7.87 2.25-15.11 6.33-20.37 3.73-4.81 8.75-7.57 13.78-7.57m0-2c-11.48 0-22.11 12.28-22.11 29.94 0 17.57 10.95 26.26 22.11 26.26s22.11-8.69 22.11-26.26c0-17.66-10.63-29.94-22.11-29.94z" fill="#EDA600"/><g fill="#6D4C41"><path d="M16.16 34.93s.09-.13.25-.33c.04-.05.08-.11.14-.17.07-.07.15-.14.24-.22l.28-.25c.1-.08.2-.15.31-.23s.23-.16.35-.23c.13-.07.26-.14.4-.21.14-.08.28-.14.43-.2s.31-.12.47-.18c.32-.09.66-.19 1.01-.24.35-.07.71-.07 1.07-.09.36.02.72.02 1.07.09.35.04.69.15 1.01.24.16.05.32.11.47.18.15.06.3.12.43.2.14.07.27.14.4.21.12.07.24.16.35.23.11.08.22.15.31.23l.26.23c.08.07.16.14.22.21.07.07.12.14.17.19.2.24.31.38.31.38.33.46.23 1.11-.24 1.45-.28.2-.63.24-.94.14l-.19-.07s-.13-.04-.32-.13c-.05-.02-.1-.05-.16-.07s-.13-.05-.2-.07c-.14-.06-.29-.11-.46-.16-.09-.03-.17-.06-.26-.09-.09-.02-.19-.05-.28-.07-.05-.01-.1-.03-.15-.04l-.15-.03c-.1-.02-.21-.05-.31-.06-.22-.02-.43-.07-.66-.08-.22-.03-.45-.02-.68-.03-.23.01-.46.01-.68.04-.23.01-.44.06-.66.08-.11.02-.21.05-.31.06l-.15.03c-.05.01-.1.03-.15.04-.1.02-.19.05-.28.07s-.18.06-.26.09-.17.05-.24.08c-.07.02-.13.05-.19.07l-.18.06c-.06.03-.13.07-.19.09-.24.12-.38.18-.38.18-.54.23-1.17-.03-1.39-.58-.13-.37-.08-.75.11-1.04zM46.55 36.52s-.14-.06-.38-.18c-.06-.03-.13-.07-.19-.09-.06-.01-.12-.04-.18-.06s-.12-.04-.19-.07c-.08-.02-.16-.05-.24-.08-.09-.03-.17-.06-.26-.09-.09-.02-.19-.05-.28-.07-.05-.01-.1-.03-.15-.04l-.15-.03c-.1-.02-.21-.05-.31-.06-.22-.02-.43-.07-.66-.08-.22-.03-.45-.02-.68-.04-.23.01-.46.01-.68.03-.23.01-.44.06-.66.08-.11.02-.21.05-.31.06l-.15.03c-.05.01-.1.03-.15.04-.1.03-.19.05-.28.07s-.18.06-.26.09c-.17.05-.33.11-.46.16-.07.03-.13.05-.2.07-.06.02-.11.05-.16.07-.2.09-.32.13-.32.13l-.19.06c-.54.19-1.13-.1-1.32-.64-.11-.33-.05-.68.14-.95 0 0 .1-.14.31-.38.05-.06.11-.13.17-.19.07-.07.14-.13.22-.21l.26-.23c.09-.08.2-.15.31-.23s.23-.16.35-.23c.13-.07.26-.14.4-.21.14-.08.28-.14.43-.2s.31-.12.47-.18c.32-.09.66-.19 1.01-.24.35-.07.71-.07 1.07-.09.36.02.72.02 1.07.09.35.04.69.15 1.01.24.16.05.32.11.47.18.15.06.3.12.43.2.14.07.27.14.4.21.12.07.24.16.35.23.11.08.21.15.31.23.1.09.2.17.28.25.09.08.17.15.24.22.06.07.1.12.14.17l.25.33c.33.49.21 1.15-.28 1.48-.3.26-.68.28-1 .15z"/></g><g fill="#404040"><ellipse cx="21.16" cy="40.92" rx="3.25" ry="3.37"/><ellipse cx="42.84" cy="40.92" rx="3.25" ry="3.37"/></g><radialGradient id="o" cx="32.071" cy="5.831" r="20.048" gradientUnits="userSpaceOnUse"><stop stop-color="#6D4C41" offset="0"/><stop stop-color="#543930" offset="1"/></radialGradient><path d="M32.19 4.13C1.97 4.13 8.33 38.84 8.33 38.84s3.18 5.61 3.18 5.49c-.11-4.78 1.81-13.25 3.17-16.86a4.005 4.005 0 0 1 4.48-2.53c2.94.53 7.62 1.19 12.78 1.19 4.96 0 9.51-.61 12.5-1.13 2.05-.36 4.03.9 4.57 2.91l3.74 16.41 3.09-6c0 .02 6.19-34.19-23.65-34.19z" fill="url(#o)"/><defs><path id="p" d="M32.19 4.13C1.97 4.13 7.94 37.99 7.94 37.99s3.57 6.47 3.57 6.35c-.02-1.02.64-5.25.64-5.25a15.428 15.428 0 0 1-1.78-7.19v-.74l1.78-6.6 19.89-12.28 19.6 12.17 1.66 7.6.05.69c-.27 2.21-.95 4.22-1.79 6.29l1.18 5.3 3.18-6.29c0 .01 6.11-33.91-23.73-33.91z"/></defs><clipPath id="q"><use xlink:href="#p"/></clipPath><g clip-path="url(#q)"><path d="M32.19 7.13c7.09 0 12.46 2.12 15.96 6.31 4.93 5.88 5.41 14.66 5.17 19.92l-1.39-6.1-.03-.11a7.02 7.02 0 0 0-6.77-5.19c-.4 0-.81.04-1.21.1-2.84.49-7.22 1.08-11.98 1.08-4.91 0-9.37-.62-12.24-1.14-.42-.08-.84-.11-1.26-.11-2.91 0-5.54 1.82-6.56 4.54-.45 1.2-.96 2.91-1.45 4.84.02-5.18.95-12.51 5.31-17.68 3.6-4.29 9.14-6.46 16.45-6.46m0-3C1.97 4.13 7.88 37.99 7.88 37.99s3.57 6.35 3.63 6.35c-.11-4.78 1.81-13.25 3.17-16.86a4.005 4.005 0 0 1 4.49-2.52c2.94.53 7.62 1.19 12.78 1.19 4.96 0 9.51-.61 12.5-1.13a3.995 3.995 0 0 1 4.56 2.91l3.74 16.41 3.09-6S62.03 4.13 32.19 4.13z" fill="#402821"/></g><path d="M37.41 52.94c-2.1 1.25-8.99 1.25-11.09 0-1.21-.72-2.44.38-1.94 1.48.49 1.08 4.25 3.58 7.5 3.58s6.96-2.5 7.45-3.58c.5-1.1-.72-2.2-1.92-1.48z" fill="#795548"/><path d="M34.1 46.88a.537.537 0 0 0-.21-.05h-4.67c-.07.01-.14.03-.21.05-.42.17-.66.61-.46 1.08s1.13 1.78 3 1.78 2.8-1.31 3-1.78-.03-.91-.45-1.08z" fill="#E59600"/></g><linearGradient id="r" x1="6" x2="6" y1="97.824" y2="127.82" gradientUnits="userSpaceOnUse"><stop stop-color="#FFB300" offset="0"/><stop stop-color="#FFCA28" offset=".401"/></linearGradient><path fill="url(#r)" d="M1 97.82h10v30H1z"/><path d="M10 98.82v28H2v-28h8m2-2H0v32h12v-32z" fill="#EDA600"/></g><radialGradient id="s" cx="64" cy="97.246" r="29.228" gradientTransform="matrix(1 0 0 1.4568 0 -44.424)" gradientUnits="userSpaceOnUse"><stop stop-color="#212121" offset=".422"/><stop stop-color="#616161" stop-opacity=".05" offset="1"/></radialGradient><path d="M85.1 66.62c-11.88 2.05-21.08 9.5-21.08 21.78 0-12.28-9.67-19.73-21.55-21.78-1.84-.32-3.47-.52-5.47-.64v62.56l27 .01 27-.01V65.95c-2 .11-3.93.33-5.9.67z" clip-path="url(#k)" fill="url(#s)" opacity=".4"/><g clip-path="url(#k)"><path d="M67.62 138.12c-.09-2.59.01-10.85.1-16.12 0-9.25 12.38-12.16 15.88-12.16h9.38c3.5 0 15.87 2.91 15.87 12.14 0 0 0 .6.01 1.06.16 9.99.14 13.71.09 15.08H67.62z" fill="#B2EBF2"/><path d="M92.98 110.84c3.28 0 14.87 2.67 14.87 11.14v.28c0 .04 0 .33.01.8.13 8.28.14 12.2.11 14.06H68.6c-.04-3.16.03-10.11.12-15.14 0-8.47 11.6-11.14 14.88-11.14h9.38m0-2H83.6c-4.35 0-16.88 3.3-16.88 13.14 0 0-.31 17.14 0 17.14h43.12c.31 0 0-16.51 0-16.86v-.28c.01-9.84-12.51-13.14-16.86-13.14z" fill="#84BDC4"/><path d="M88.28 115.8c-2.31 0-4.19-1.88-4.19-4.19v-3.1h8.39v3.1a4.21 4.21 0 0 1-4.2 4.19z" fill="#E59600"/><path d="M91.97 109.01v2.6c0 2.04-1.66 3.69-3.69 3.69-2.04 0-3.69-1.66-3.69-3.69v-2.6h7.38m1-1h-9.39v3.6a4.69 4.69 0 0 0 9.38 0v-3.6h.01z" fill="#D18100"/><defs><path id="t" d="M64.99 64.24h46.9v46.9h-46.9z"/></defs><clipPath id="u"><use xlink:href="#t"/></clipPath><g clip-path="url(#u)"><path d="M73.79 99.84c-2.91 0-5.28-2.27-5.28-5.06s2.37-5.06 5.28-5.06h29.48c2.91 0 5.28 2.27 5.28 5.06s-2.37 5.06-5.28 5.06H73.79z" fill="#E59600"/><path d="M103.27 90.21c2.64 0 4.78 2.05 4.78 4.56 0 2.52-2.14 4.56-4.78 4.56H73.79c-2.64 0-4.78-2.05-4.78-4.56 0-2.52 2.14-4.56 4.78-4.56h29.48m0-1H73.79c-3.18 0-5.78 2.5-5.78 5.56s2.6 5.56 5.78 5.56h29.49c3.18 0 5.78-2.5 5.78-5.56-.01-3.06-2.61-5.56-5.79-5.56z" fill="#CC8600"/><linearGradient id="v" x1="88.419" x2="88.419" y1="110.62" y2="66.445" gradientUnits="userSpaceOnUse"><stop stop-color="#FFB300" offset="0"/><stop stop-color="#FFB809" offset=".102"/><stop stop-color="#FFC21A" offset=".371"/><stop stop-color="#FFC825" offset=".659"/><stop stop-color="#FFCA28" offset="1"/></linearGradient><path d="M88.42 110.62c-8.41 0-17.46-6.4-17.46-20.45 0-11.25 6.68-23.4 17.46-23.4 10.79 0 17.46 12.14 17.46 23.4 0 14.05-9.05 20.45-17.46 20.45z" fill="url(#v)"/><path d="M88.42 67.27c4.28 0 8.54 2.29 11.69 6.28 3.4 4.3 5.27 10.2 5.27 16.61 0 6.24-1.83 11.44-5.3 15.04-3.05 3.17-7.19 4.91-11.66 4.91s-8.61-1.74-11.66-4.91c-3.47-3.6-5.3-8.8-5.3-15.04 0-6.41 1.87-12.31 5.27-16.61 3.15-3.99 7.41-6.28 11.69-6.28m0-1c-9.33 0-17.96 9.8-17.96 23.9 0 14.02 8.9 20.95 17.96 20.95s17.96-6.93 17.96-20.95c0-14.11-8.63-23.9-17.96-23.9z" fill="#EDA600"/><path d="M90.42 96.72a.471.471 0 0 0-.17-.04h-3.63c-.06.01-.11.02-.17.04-.33.13-.51.47-.35.84.16.36.88 1.38 2.34 1.38s2.18-1.02 2.34-1.38c.15-.37-.03-.71-.36-.84z" fill="#E59600"/><g fill="#6D4C41"><path d="M76.2 89.41s.07-.1.2-.26c.03-.04.06-.08.11-.13.06-.06.12-.11.19-.17s.14-.13.22-.19.16-.12.25-.18l.27-.18c.1-.05.2-.11.31-.17s.22-.11.34-.15c.12-.05.24-.09.36-.14.25-.07.52-.15.79-.18.27-.05.55-.06.84-.07.28.01.56.02.84.07.27.03.54.11.79.18.12.04.25.09.36.14.12.05.23.09.34.15s.21.11.31.17.19.12.27.18c.09.06.17.11.24.18.07.06.14.12.2.18s.12.11.17.16.09.11.13.15c.16.18.24.3.24.3.26.36.18.87-.18 1.13a.8.8 0 0 1-.73.11l-.15-.05s-.1-.03-.25-.1c-.04-.02-.08-.04-.13-.06l-.15-.06c-.11-.04-.23-.09-.36-.13-.07-.02-.13-.05-.2-.07l-.22-.06-.11-.03c-.04-.01-.08-.01-.12-.02-.08-.01-.16-.04-.24-.05-.17-.02-.34-.05-.51-.06-.17-.02-.35-.02-.53-.03-.18.01-.36 0-.53.03-.18.01-.35.04-.51.06-.08.01-.16.04-.24.05-.04.01-.08.01-.12.02s-.08.02-.11.03c-.08.02-.15.04-.22.06s-.14.05-.2.07c-.07.02-.13.04-.19.06-.05.02-.1.04-.15.05-.05.02-.09.03-.14.04-.05.02-.1.05-.15.07-.18.09-.29.14-.29.14a.83.83 0 0 1-1.09-.45c-.14-.27-.1-.57.05-.79zM99.67 90.64s-.11-.05-.29-.14c-.04-.02-.1-.05-.15-.07-.05-.01-.09-.03-.14-.04-.05-.02-.1-.03-.15-.05-.06-.02-.12-.04-.19-.06s-.13-.05-.2-.07l-.22-.06-.11-.03c-.04-.01-.08-.01-.12-.02-.08-.01-.16-.04-.24-.05-.17-.02-.34-.05-.51-.06-.17-.02-.35-.02-.53-.03-.18.01-.36 0-.53.03-.18.01-.35.04-.51.06-.08.01-.16.04-.24.05-.04.01-.08.01-.12.02s-.08.02-.11.03c-.08.02-.15.04-.22.06s-.14.05-.2.07c-.13.04-.25.08-.36.13l-.15.06c-.05.02-.09.04-.13.06-.15.07-.25.1-.25.1l-.14.05a.811.811 0 0 1-.92-1.24s.08-.11.24-.3c.04-.05.08-.1.13-.15s.11-.1.17-.16.13-.12.2-.18.16-.11.24-.18l.27-.18c.1-.05.2-.11.31-.17s.22-.11.34-.15c.12-.05.24-.09.36-.14.25-.07.52-.15.79-.18.27-.05.55-.06.84-.07.28.01.56.02.83.07.27.03.54.11.79.18.12.04.25.09.36.14.12.05.23.09.34.15s.21.11.31.17.19.12.27.18c.09.06.17.11.25.18l.22.19c.07.06.13.12.19.17.05.05.08.09.11.13.13.16.2.26.2.26.26.38.16.9-.22 1.15a.88.88 0 0 1-.81.09z"/></g><g fill="#404040"><ellipse cx="79.89" cy="94.07" rx="2.53" ry="2.62"/><ellipse cx="96.98" cy="94.07" rx="2.53" ry="2.62"/></g><radialGradient id="w" cx="95.969" cy="66.239" r="24.009" gradientTransform="translate(-11.966 -2.86) scale(1.0432)" gradientUnits="userSpaceOnUse"><stop stop-color="#6D4C41" offset="0"/><stop stop-color="#543930" offset=".901"/></radialGradient><path d="M104.07 69.83c-2.33-2.43-4.54-3.46-4.76-3.49-2.71-1.24-6.2-2.18-10.72-2.18-19.87 0-21.25 16.27-20.45 23.4.7 6.29 3.98 7.84 3.98 7.84s-.64-5.49.4-9.47c.83-3.16 2.8-5.5 2.8-5.5s3.58 3.12 10.27 5.15c3.22.98 7.35.49 7.35.49l-2.32-4.1s3.78 2.79 6.14 3.32c3.02.68 5.24.39 5.24.39l-1.11-4.33s1.92 1.26 3.36 4.71.55 9.34.55 9.34 3.46-1.54 4.01-7.84c.68-7.89-.26-12.62-4.74-17.73z" fill="url(#w)"/><defs><path id="x" d="M104.07 69.83c-2.19-2.49-4.54-3.46-4.76-3.49-2.71-1.24-6.2-2.18-10.72-2.18-19.87 0-21.25 16.27-20.45 23.4.7 6.29 3.98 7.86 3.98 7.86v-1.54l-1.35-3.65c-.84-2.29-1.11-4.75-.78-7.16l.45-3.28L88.47 68.2l17.92 11.59.47 3.19c.38 2.57.08 5.19-.88 7.61l-1.01 2.57-.17 2.26s3.46-1.55 4.01-7.85c.68-7.9-.26-12.63-4.74-17.74z"/></defs><clipPath id="y"><use xlink:href="#x"/></clipPath><g clip-path="url(#y)"><path d="M88.59 66.16c3.67 0 6.99.67 9.88 2l.28.13.06.01c.56.27 2.34 1.27 3.75 2.85 3.9 4.45 4.94 8.4 4.25 16.24l-.03.34c-.15-.85-.37-1.68-.69-2.43-1.63-3.9-3.86-5.45-4.1-5.61l-4.32-2.85 1.29 5.02.47 1.84c-.64-.06-1.4-.16-2.22-.35-1.41-.32-4.06-2-5.4-2.98l-7.51-5.53 4.59 8.12.69 1.22c-1.31-.05-2.48-.23-3.4-.51-6.14-1.86-9.51-4.72-9.53-4.74l-1.53-1.34-1.31 1.56c-.09.11-2.27 2.73-3.2 6.28-.19.71-.32 1.46-.42 2.21-.01-.1-.02-.2-.04-.3-.26-2.35-.74-10.43 4.15-15.9 3.1-3.5 7.92-5.28 14.29-5.28m0-2c-19.87 0-21.25 16.27-20.45 23.4.7 6.29 3.98 7.84 3.98 7.84s-.64-5.49.4-9.47c.83-3.16 2.8-5.5 2.8-5.5s3.58 3.12 10.27 5.15c1.61.49 3.44.61 4.87.61 1.44 0 2.48-.12 2.48-.12l-2.32-4.1s3.78 2.79 6.14 3.32c1.63.37 3.02.45 3.96.45.81 0 1.28-.06 1.28-.06l-1.11-4.33s1.92 1.26 3.36 4.71.55 9.34.55 9.34 3.46-1.54 4.01-7.84c.69-7.89-.25-12.62-4.74-17.74-1.98-2.21-4.54-3.46-4.76-3.49-2.71-1.23-6.2-2.17-10.72-2.17z" fill="#402720"/></g><path d="M92.74 100.89c-1.64.97-7 .97-8.64 0-.94-.56-1.9.3-1.51 1.15.38.84 3.31 2.79 5.84 2.79s5.42-1.95 5.8-2.79c.4-.86-.55-1.71-1.49-1.15z" fill="#795548"/></g></g><g clip-path="url(#k)"><path d="M17.99 138.12c-.09-2.58.01-10.85.11-16.12 0-9.25 12.38-12.16 15.88-12.16h9.38c3.5 0 15.87 2.91 15.87 12.14 0 0 0 .6.01 1.06.16 9.99.14 13.71.09 15.08H17.99z" fill="#B2EBF2"/><path d="M43.35 110.84c3.28 0 14.87 2.67 14.87 11.14v.28c0 .04 0 .33.01.8.13 8.28.14 12.2.11 14.06H18.97c-.04-3.16.03-10.11.12-15.14 0-8.47 11.6-11.14 14.88-11.14h9.38m0-2h-9.37c-4.35 0-16.88 3.3-16.88 13.14 0 0-.31 17.14 0 17.14h43.12c.31 0 0-16.51 0-16.86v-.28c0-9.84-12.51-13.14-16.87-13.14z" fill="#84BDC4"/><path d="M38.65 115.8c-2.31 0-4.19-1.88-4.19-4.19v-3.1h8.39v3.1c0 2.31-1.89 4.19-4.2 4.19z" fill="#E59600"/><path d="M42.35 109.01v2.6c0 2.04-1.66 3.69-3.69 3.69-2.04 0-3.69-1.66-3.69-3.69v-2.6h7.38m1-1h-9.39v3.6a4.69 4.69 0 0 0 9.38 0v-3.6h.01z" fill="#D18100"/><defs><path id="z" d="M15.36 64.24h46.9v46.9h-46.9z"/></defs><clipPath id="A"><use xlink:href="#z"/></clipPath><g clip-path="url(#A)"><path d="M24.17 99.84c-2.91 0-5.28-2.27-5.28-5.06s2.37-5.06 5.28-5.06h29.48c2.91 0 5.28 2.27 5.28 5.06s-2.37 5.06-5.28 5.06H24.17z" fill="#E59600"/><path d="M53.65 90.21c2.64 0 4.78 2.05 4.78 4.56 0 2.52-2.14 4.56-4.78 4.56H24.16c-2.64 0-4.78-2.05-4.78-4.56 0-2.52 2.14-4.56 4.78-4.56h29.49m0-1H24.16c-3.18 0-5.78 2.5-5.78 5.56s2.6 5.56 5.78 5.56h29.49c3.18 0 5.78-2.5 5.78-5.56-.01-3.06-2.61-5.56-5.78-5.56z" fill="#CC8600"/><linearGradient id="B" x1="38.793" x2="38.793" y1="110.62" y2="66.445" gradientUnits="userSpaceOnUse"><stop stop-color="#FFB300" offset="0"/><stop stop-color="#FFB809" offset=".102"/><stop stop-color="#FFC21A" offset=".371"/><stop stop-color="#FFC825" offset=".659"/><stop stop-color="#FFCA28" offset="1"/></linearGradient><path d="M38.79 110.62c-8.41 0-17.46-6.4-17.46-20.45 0-11.25 6.68-23.4 17.46-23.4 10.79 0 17.46 12.14 17.46 23.4.01 14.05-9.05 20.45-17.46 20.45z" fill="url(#B)"/><path d="M38.79 67.27c4.28 0 8.54 2.29 11.69 6.28 3.4 4.3 5.27 10.2 5.27 16.61 0 6.24-1.83 11.44-5.3 15.04-3.05 3.17-7.19 4.91-11.66 4.91s-8.61-1.74-11.66-4.91c-3.47-3.6-5.3-8.8-5.3-15.04 0-6.41 1.87-12.31 5.27-16.61 3.15-3.99 7.41-6.28 11.69-6.28m0-1c-9.33 0-17.96 9.8-17.96 23.9 0 14.02 8.9 20.95 17.96 20.95s17.96-6.93 17.96-20.95c.01-14.11-8.63-23.9-17.96-23.9z" fill="#EDA600"/><path d="M40.79 96.72a.471.471 0 0 0-.17-.04h-3.63c-.06.01-.11.02-.17.04-.33.13-.51.47-.35.84.16.36.88 1.38 2.34 1.38s2.18-1.02 2.34-1.38c.16-.37-.03-.71-.36-.84z" fill="#E59600"/><g fill="#6D4C41"><path d="M26.58 89.41s.07-.1.2-.26c.03-.04.06-.08.11-.13.06-.06.12-.11.19-.17s.14-.13.22-.19.16-.12.25-.18l.27-.18c.1-.05.2-.11.31-.17s.22-.11.34-.15c.12-.05.24-.09.36-.14.25-.07.52-.15.79-.18.27-.05.55-.06.84-.07.28.01.56.02.84.07.27.03.54.11.79.18.12.04.25.09.36.14.12.05.23.09.34.15s.21.11.31.17.19.12.27.18c.09.06.17.11.24.18.07.06.14.12.2.18s.12.11.17.16.09.11.13.15c.16.18.24.3.24.3.26.36.18.87-.18 1.13a.8.8 0 0 1-.73.11l-.15-.05s-.1-.03-.25-.1c-.04-.02-.08-.04-.13-.06l-.15-.06c-.11-.04-.23-.09-.36-.13-.07-.02-.13-.05-.2-.07l-.22-.06-.11-.03c-.04-.01-.08-.01-.12-.02-.08-.01-.16-.04-.24-.05-.17-.02-.34-.05-.51-.06-.17-.02-.35-.02-.53-.03-.18.01-.36 0-.53.03-.18.01-.35.04-.51.06-.08.01-.16.04-.24.05-.04.01-.08.01-.12.02s-.08.02-.11.03c-.08.02-.15.04-.22.06s-.14.05-.2.07c-.07.02-.13.04-.19.06-.05.02-.1.04-.15.05-.05.02-.09.03-.14.04-.05.02-.1.05-.15.07-.18.09-.29.14-.29.14a.83.83 0 0 1-1.09-.45c-.14-.27-.1-.57.05-.79zM50.04 90.64s-.11-.05-.29-.14c-.04-.02-.1-.05-.15-.07-.05-.01-.09-.03-.14-.04-.05-.02-.1-.03-.15-.05-.06-.02-.12-.04-.19-.06s-.13-.05-.2-.07l-.22-.06-.11-.03c-.04-.01-.08-.01-.12-.02-.08-.01-.16-.04-.24-.05-.17-.02-.34-.05-.51-.06-.17-.02-.35-.02-.53-.03-.18.01-.36 0-.53.03-.18.01-.35.04-.51.06-.08.01-.16.04-.24.05-.04.01-.08.01-.12.02s-.08.02-.11.03c-.08.02-.15.04-.22.06s-.14.05-.2.07c-.13.04-.25.08-.36.13l-.15.06c-.05.02-.09.04-.13.06-.15.07-.25.1-.25.1l-.14.05a.811.811 0 0 1-.92-1.24s.08-.11.24-.3c.04-.05.08-.1.13-.15s.11-.1.17-.16.13-.12.2-.18.16-.11.24-.18l.27-.18c.1-.05.2-.11.31-.17s.22-.11.34-.15c.12-.05.24-.09.36-.14.25-.07.52-.15.79-.18.27-.05.55-.06.83-.07.28.01.56.02.84.07.27.03.54.11.79.18.12.04.25.09.36.14.12.05.23.09.34.15s.21.11.31.17.19.12.27.18c.09.06.17.11.25.18l.22.19c.07.06.13.12.19.17.05.05.08.09.11.13.13.16.2.26.2.26.26.38.16.9-.22 1.15-.26.17-.56.19-.81.09z"/></g><g fill="#404040"><ellipse cx="30.27" cy="94.07" rx="2.53" ry="2.62"/><ellipse cx="47.36" cy="94.07" rx="2.53" ry="2.62"/></g><radialGradient id="C" cx="48.396" cy="66.239" r="24.009" gradientTransform="translate(-11.966 -2.86) scale(1.0432)" gradientUnits="userSpaceOnUse"><stop stop-color="#6D4C41" offset="0"/><stop stop-color="#543930" offset=".901"/></radialGradient><path d="M54.44 69.83c-2.33-2.43-4.54-3.46-4.76-3.49-2.71-1.24-6.2-2.18-10.72-2.18-19.87 0-21.25 16.27-20.45 23.4.7 6.29 3.98 7.84 3.98 7.84s-.64-5.49.4-9.47c.83-3.16 2.8-5.5 2.8-5.5s3.58 3.12 10.27 5.15c3.22.98 7.35.49 7.35.49l-2.32-4.1s3.78 2.79 6.14 3.32c3.02.68 5.24.39 5.24.39l-1.11-4.33s1.92 1.26 3.36 4.71.55 9.34.55 9.34 3.46-1.54 4.01-7.84c.69-7.89-.26-12.62-4.74-17.73z" fill="url(#C)"/><defs><path id="D" d="M54.44 69.83c-2.19-2.49-4.54-3.46-4.76-3.49-2.71-1.24-6.2-2.18-10.72-2.18-19.87 0-21.25 16.27-20.45 23.4.7 6.29 3.98 7.86 3.98 7.86v-1.54l-1.35-3.65c-.84-2.29-1.11-4.75-.78-7.16l.45-3.28L38.84 68.2l17.92 11.6.47 3.19c.38 2.57.08 5.19-.88 7.61l-1.01 2.57-.17 2.26s3.46-1.55 4.01-7.85c.69-7.91-.26-12.64-4.74-17.75z"/></defs><clipPath id="E"><use xlink:href="#D"/></clipPath><g clip-path="url(#E)"><path d="M38.96 66.16c3.67 0 6.99.67 9.88 2l.28.13.06.01c.56.27 2.34 1.27 3.75 2.85 3.9 4.45 4.94 8.4 4.25 16.24l-.03.34c-.15-.85-.37-1.68-.69-2.43-1.63-3.9-3.86-5.45-4.1-5.61l-4.32-2.85 1.29 5.02.47 1.84c-.64-.06-1.4-.16-2.22-.35-1.41-.32-4.06-2-5.4-2.98l-7.51-5.53 4.59 8.12.69 1.22c-1.31-.05-2.48-.23-3.4-.51-6.14-1.86-9.51-4.72-9.53-4.74l-1.53-1.34-1.31 1.56c-.09.11-2.27 2.73-3.2 6.28-.19.71-.32 1.46-.42 2.21-.01-.1-.02-.2-.04-.3-.26-2.35-.74-10.43 4.15-15.9 3.11-3.5 7.92-5.28 14.29-5.28m0-2c-19.87 0-21.25 16.27-20.45 23.4.7 6.29 3.98 7.84 3.98 7.84s-.64-5.49.4-9.47c.83-3.16 2.8-5.5 2.8-5.5s3.58 3.12 10.27 5.15c1.61.49 3.44.61 4.87.61 1.44 0 2.48-.12 2.48-.12l-2.32-4.1s3.78 2.79 6.14 3.32c1.63.37 3.02.45 3.96.45.81 0 1.28-.06 1.28-.06l-1.11-4.33s1.92 1.26 3.36 4.71.55 9.34.55 9.34 3.46-1.54 4.01-7.84c.69-7.89-.25-12.62-4.74-17.74-1.98-2.21-4.54-3.46-4.76-3.49-2.71-1.23-6.2-2.17-10.72-2.17z" fill="#402720"/></g><path d="M43.12 100.89c-1.64.97-7 .97-8.64 0-.94-.56-1.9.3-1.51 1.15.38.84 3.31 2.79 5.84 2.79s5.42-1.95 5.8-2.79c.39-.86-.55-1.71-1.49-1.15z" fill="#795548"/></g></g></g></svg>