<svg viewBox="0 0 128 128" xmlns="http://www.w3.org/2000/svg" xmlns:xlink="http://www.w3.org/1999/xlink"><radialGradient id="a" cx="47.457" cy="-24.772" r="55.461" gradientTransform="matrix(.826 0 0 .8052 17.612 22.234)" gradientUnits="userSpaceOnUse"><stop stop-color="#6D4C41" offset="0"/><stop stop-color="#543930" offset="1"/></radialGradient><path d="M39.31 120.65c-.01 0-6.93-.35-10.4-5.04-7.8-10.56-11.59-31.59-11.59-64.28 0-1.62.26-15.95 10.54-26.25 6.87-6.89 16.72-10.38 29.28-10.38 12.46 0 22.14 3.44 28.79 10.23 9.7 9.9 9.92 23.66 9.86 26.32 0 32.79-3.79 53.81-11.6 64.38-3.38 4.58-9.98 5.02-10.43 5.04l-17.2-.02H39.31z" fill="url(#a)"/><path d="M57.13 16.19c12.04 0 21.36 3.29 27.71 9.77 9.47 9.67 9.46 23.67 9.43 25.23v.12c0 32.36-3.7 53.09-11.3 63.39-2.9 3.92-8.73 4.4-9.27 4.43l-17.16-.02-17.15.02c-.58-.04-6.39-.53-9.27-4.43-7.6-10.29-11.3-31.03-11.3-63.41 0-.61.08-15.13 10.1-25.17 6.58-6.58 16.08-9.93 28.21-9.93m0-3.01c-41.65 0-41.32 37.54-41.32 38.14 0 24.31 1.91 51.66 11.89 65.18 3.96 5.36 11.61 5.65 11.61 5.65l17.24-.02 17.24.02s7.65-.3 11.61-5.65c9.98-13.51 11.89-40.86 11.89-65.18 0-.6 1.49-38.14-40.16-38.14z" fill="#3F2720"/><path d="M99.12 110.17s-5.37-37.79 24.98-42.19c0 0-6.28 8.22-14.85 18.42-9.05 10.77-9.7 18.52-10.13 23.77z" fill="#7CB342"/><path d="M96.95 117.03c-.25-.03-.43-.28-.63.07l1.09-20.36c.28-1.26 1.19-1 1.19-1 .25.03 1.13.21.95 2.19l-2.18 20.02c.06-1.09-.17-.89-.42-.92z" fill="#388E3C"/><path d="M100.78 94.71c-.36 0-.7-.01-.98-.02.13-.93.41-2.44.74-3.04.79-1.52 2.14-3.46 4.09-4.14.85-.3 1.78-.47 2.63-.47.66 0 1.26.1 1.78.29-.14 1.78-1.34 3.77-2.55 5.05-.98 1-2.43 1.88-3.62 2.18-.29.07-.89.15-2.09.15z" fill="#FFCA28"/><path d="M107.25 87.79c.34 0 .65.03.94.08-.31 1.43-1.28 2.95-2.24 3.97-.88.9-2.22 1.72-3.26 1.98-.17.04-.69.14-1.92.14h-.1c.14-.78.34-1.62.53-1.98.72-1.38 1.95-3.16 3.67-3.77.78-.27 1.62-.42 2.38-.42m0-1.5c-1.01 0-2.03.21-2.88.51-2.01.71-3.49 2.55-4.5 4.48-.6 1.08-.94 4.12-.92 4.12.03 0 .86.05 1.82.05.8 0 1.7-.04 2.27-.18 1.4-.35 2.96-1.34 3.98-2.39 1.34-1.41 2.83-3.82 2.76-6.05-.76-.38-1.64-.54-2.53-.54z" fill="#F49019"/><path d="M97.63 94.59c-1.4-.44-2.46-.87-2.97-1.2-1.05-.69-2.17-2.05-2.78-3.37-.74-1.65-1.22-4.01-.74-5.8h.06c1.32 0 2.88.63 4.19 1.69 1.67 1.34 2.32 3.69 2.57 5.42.12.72-.14 2.31-.33 3.26z" fill="#FFCA28"/><path d="M91.74 85.02c1.03.14 2.18.68 3.18 1.49 1.47 1.18 2.06 3.34 2.3 4.97.07.41-.04 1.31-.17 2.14-.92-.32-1.63-.62-1.97-.84-.93-.62-1.97-1.88-2.51-3.05-.61-1.36-1.03-3.2-.83-4.71m-.54-1.54c-.21 0-.41.01-.62.04-.82 2.14-.2 4.99.62 6.82.63 1.37 1.81 2.87 3.05 3.69 1.13.73 3.94 1.52 3.94 1.52.02 0 .72-3.06.51-4.32-.32-2.22-1.13-4.52-2.84-5.9-1.21-.98-2.94-1.85-4.66-1.85z" fill="#F49019"/><path d="M101.91 74.92c-1.27-.58-2.25-1.12-2.69-1.5-.92-.79-1.83-2.23-2.26-3.57-.51-1.67-.69-3.99-.02-5.64 1.51.18 2.95 1.18 3.86 2.13 1.44 1.49 1.78 3.82 1.81 5.52.02.7-.41 2.17-.7 3.06z" fill="#FFCA28"/><path d="M97.43 65.07c1.09.3 2.12 1.07 2.82 1.79 1.27 1.31 1.57 3.44 1.6 5.04.02.39-.18 1.21-.41 1.97-.93-.46-1.5-.81-1.74-1.02-.82-.7-1.66-2.03-2.04-3.22-.4-1.34-.59-3.14-.23-4.56m-.95-1.63h-.02c-1.05 1.96-.79 4.79-.23 6.65.44 1.4 1.4 2.98 2.49 3.92 1 .84 3.61 1.94 3.61 1.94.02 0 1.06-2.86 1.01-4.1-.04-2.18-.54-4.49-2.02-6.02-1.15-1.22-2.97-2.39-4.84-2.39z" fill="#F49019"/><path d="M104.89 66.02c-1.2-.71-2.12-1.35-2.52-1.77-.84-.89-1.59-2.41-1.88-3.79-.33-1.71-.27-4.04.57-5.62 1.47.33 2.81 1.48 3.62 2.52 1.28 1.63 1.37 3.98 1.23 5.67-.05.71-.64 2.13-1.02 2.99z" fill="#FFCA28"/><path d="M101.47 55.75c1.05.42 2 1.28 2.62 2.08 1.12 1.43 1.2 3.59 1.07 5.18-.02.39-.31 1.19-.61 1.92-.88-.55-1.4-.96-1.62-1.19-.74-.78-1.44-2.19-1.69-3.41-.28-1.4-.28-3.21.23-4.58m-.8-1.73c-1.25 1.84-1.29 4.68-.92 6.59.3 1.43 1.08 3.11 2.07 4.16.91.94 3.39 2.3 3.39 2.3.02 0 1.36-2.73 1.44-3.97.19-2.17-.07-4.52-1.38-6.2-1.04-1.33-2.73-2.69-4.6-2.88z" fill="#F49019"/><path d="M108.44 57.22c-1.08-.9-1.87-1.67-2.21-2.15-.69-1.01-1.19-2.63-1.25-4.04-.06-1.74.38-4.03 1.45-5.45 1.4.56 2.54 1.91 3.17 3.06 1 1.81.72 4.15.31 5.8-.15.68-.95 1.99-1.47 2.78z" fill="#FFCA28"/><path d="M106.69 46.54c.97.58 1.77 1.58 2.25 2.46.88 1.59.62 3.73.23 5.28-.09.38-.49 1.12-.91 1.8-.78-.68-1.23-1.17-1.42-1.43-.61-.89-1.07-2.39-1.13-3.64-.03-1.41.26-3.19.98-4.47m-.51-1.83c-1.53 1.62-2.01 4.41-1.95 6.36.06 1.46.58 3.24 1.39 4.43.75 1.08 2.98 2.81 2.98 2.81.02 0 1.77-2.49 2.05-3.69.53-2.12.65-4.48-.38-6.34-.82-1.48-2.27-3.09-4.09-3.57z" fill="#F49019"/><path d="M99.2 84.81c-1.33-.48-2.34-.94-2.82-1.28-.99-.72-2.02-2.08-2.56-3.39-.65-1.63-1.01-3.94-.48-5.65 1.3.04 2.8.72 4.04 1.82 1.56 1.37 2.1 3.68 2.27 5.38.08.69-.23 2.2-.45 3.12z" fill="#FFCA28"/><path d="M93.91 75.3c1.13.22 2.24.91 2.98 1.57 1.38 1.21 1.85 3.32 2.02 4.92.05.39-.09 1.24-.25 2.02-.97-.38-1.57-.69-1.83-.88-.88-.64-1.83-1.9-2.3-3.06-.54-1.33-.87-3.12-.62-4.57m-.7-1.57c-.13 0-.26.01-.39.02-.89 2.05-.41 4.86.31 6.67.56 1.36 1.65 2.87 2.82 3.72 1.07.76 3.77 1.64 3.77 1.65.02 0 .83-2.95.68-4.18-.22-2.18-.91-4.45-2.52-5.86-1.18-1.06-2.92-2.02-4.67-2.02z" fill="#F49019"/><path d="M103.9 85.65c-.63 0-1.61-.12-2.76-.33.27-.9.77-2.36 1.19-2.9 1.01-1.38 2.63-3.09 4.66-3.48.51-.1 1.05-.15 1.57-.15.79 0 1.87.12 2.81.63-.41 1.74-1.89 3.53-3.27 4.61-1.11.85-2.69 1.5-3.9 1.62-.09-.01-.19 0-.3 0z" fill="#FFCA28"/><path d="M108.56 79.53c.7 0 1.35.1 1.9.3-.52 1.37-1.7 2.73-2.81 3.59-1 .76-2.45 1.37-3.52 1.47-.07.01-.15.01-.23.01-.43 0-1.05-.06-1.78-.18.26-.75.57-1.55.82-1.87.92-1.26 2.4-2.83 4.2-3.18.45-.09.95-.14 1.42-.14m0-1.5c-.6 0-1.18.06-1.71.17-2.09.4-3.83 2-5.12 3.76-.75.98-1.54 3.93-1.53 3.93.02 0 2.31.5 3.7.5.13 0 .25 0 .37-.01 1.43-.14 3.13-.88 4.29-1.77 1.53-1.2 3.37-3.36 3.64-5.57-1.04-.73-2.37-1.01-3.64-1.01z" fill="#F49019"/><path d="M107.43 76.61c-.15 0-.3-.01-.44-.02-.58-.05-1.63-.37-2.95-.87.43-.84 1.18-2.18 1.68-2.64 1.24-1.18 3.15-2.57 5.21-2.59h.1c1.63 0 3.14.46 4.12 1.26-.71 1.63-2.49 3.13-4.05 3.95-1.07.56-2.49.91-3.67.91z" fill="#FFCA28"/><path d="M111.05 71.25c.97 0 2.2.21 3.15.75-.76 1.25-2.16 2.38-3.41 3.03-.99.5-2.31.83-3.36.83-.13 0-.25 0-.36-.01-.33-.03-.98-.19-1.96-.53.39-.7.84-1.42 1.14-1.7 1.13-1.07 2.87-2.36 4.7-2.37h.1m0-1.5h-.11c-2.13.02-4.13 1.28-5.71 2.78-.92.83-2.22 3.59-2.21 3.6.01 0 2.61 1.09 3.91 1.21.16.01.33.02.5.02 1.33 0 2.88-.4 4.04-.99 1.72-.9 3.92-2.7 4.58-4.83-1.28-1.31-3.34-1.79-5-1.79z" fill="#F49019"/><path d="M111.1 68.17c-.26 0-.5-.01-.74-.05-.57-.08-1.63-.45-2.9-1.01.47-.82 1.28-2.12 1.81-2.55 1.25-1.07 3.14-2.34 5.14-2.34h.19c1.32.05 3.04.46 4.16 1.46-.79 1.6-2.64 3.01-4.23 3.75-1.01.46-2.33.74-3.43.74z" fill="#FFCA28"/><path d="M114.4 62.97h.17c1 .04 2.25.3 3.21.91-.81 1.21-2.28 2.27-3.55 2.86-.93.42-2.12.67-3.13.67-.23 0-.44-.01-.63-.04-.32-.05-.97-.24-1.93-.62.42-.68.91-1.38 1.22-1.64 1.14-.97 2.87-2.14 4.64-2.14m0-1.5c-2.05 0-4.02 1.14-5.61 2.51-.96.79-2.39 3.48-2.38 3.49.01 0 2.56 1.22 3.85 1.4.27.04.55.05.84.05 1.25 0 2.66-.32 3.74-.8 1.77-.82 4.04-2.51 4.8-4.6-1.25-1.41-3.34-1.98-5.02-2.04-.07 0-.15-.01-.22-.01z" fill="#F49019"/><path d="M114.28 59.4c-.41 0-.78-.03-1.12-.1-.56-.11-1.6-.54-2.85-1.16.51-.79 1.39-2.04 1.95-2.45 1.23-.95 3.08-2.07 4.99-2.07.15 0 .3.01.45.02 1.31.12 3.01.62 4.08 1.68-.88 1.55-2.8 2.87-4.43 3.51-.9.36-2.05.57-3.07.57z" fill="#FFCA28"/><path d="M117.25 54.37c.13 0 .26.01.39.02 1 .09 2.24.42 3.15 1.08-.88 1.17-2.4 2.15-3.7 2.67-.83.32-1.89.51-2.82.51-.36 0-.69-.03-.97-.08-.32-.06-.95-.29-1.89-.72.46-.65.98-1.33 1.31-1.57 1.13-.88 2.83-1.91 4.53-1.91m0-1.5c-1.94 0-3.85.99-5.44 2.21-1 .73-2.58 3.34-2.56 3.35.01 0 2.49 1.35 3.77 1.6.39.07.82.11 1.26.11 1.14 0 2.37-.23 3.36-.61 1.81-.72 4.17-2.29 5.05-4.33-1.17-1.47-3.22-2.16-4.9-2.31-.19-.01-.36-.02-.54-.02z" fill="#F49019"/><path d="M114.35 51.21c-.45 0-.94-.01-1.46-.04.17-1.02.51-2.75.9-3.44.91-1.67 2.44-3.8 4.62-4.53.92-.32 1.92-.49 2.82-.49.78 0 1.49.12 2.1.36-.18 2.1-1.66 4.31-2.93 5.62-1.1 1.1-2.73 2.06-4.05 2.37-.29.06-.87.15-2 .15z" fill="#FFCA28"/><path d="M121.23 43.45c.46 0 .88.05 1.26.14-.35 1.64-1.49 3.4-2.62 4.56-1.02 1.02-2.5 1.89-3.69 2.18-.21.05-.72.13-1.84.13-.18 0-.37 0-.57-.01.18-.92.43-1.95.68-2.38.84-1.54 2.25-3.51 4.2-4.17.84-.29 1.75-.45 2.58-.45m0-1.5c-1.08 0-2.15.21-3.06.53-2.21.75-3.88 2.76-5.03 4.87-.68 1.18-1.12 4.51-1.1 4.52.03 0 1.13.09 2.31.09.79 0 1.62-.04 2.17-.17 1.54-.37 3.27-1.44 4.41-2.58 1.5-1.54 3.19-4.17 3.17-6.62-.87-.45-1.87-.64-2.87-.64z" fill="#F49019"/><defs><path id="b" d="M4 4h120v120H4z"/></defs><clipPath id="c"><use xlink:href="#b"/></clipPath><g clip-path="url(#c)"><linearGradient id="d" x1="56.223" x2="56.223" y1="96.962" y2="135.78" gradientUnits="userSpaceOnUse"><stop stop-color="#9CCC65" offset=".128"/><stop stop-color="#99C962" offset=".4"/><stop stop-color="#8FC059" offset=".621"/><stop stop-color="#7EB24B" offset=".823"/><stop stop-color="#689F38" offset="1"/></linearGradient><path d="M5.72 135.78v-15.26c0-16.24 25.36-23.53 50.5-23.56h.13c25.03 0 50.37 8.09 50.37 23.56v15.26h-101z" fill="url(#d)"/><path d="M56.36 98.46c12.9 0 25.42 2.19 34.36 6 6.62 2.83 14.51 7.91 14.51 16.05v13.76h-98v-13.76c0-15.2 24.61-22.03 49-22.06l.13.01m0-3h-.13c-25.49.03-52 7.28-52 25.06v16.76h104v-16.76c-.01-16.76-26.27-25.06-51.87-25.06z" fill="#74B534"/></g><g clip-path="url(#c)"><path d="M100.82 129.79l-8-.25c-6.96-.71-11.7-4.77-10.79-13.12 1.97-18.12 21.83-12.18 23.64-6.3 2.7 8.8-1.75 19.98-4.85 19.67z" fill="#FFCA28" stroke="#EDA600" stroke-linecap="round" stroke-linejoin="round" stroke-miterlimit="10" stroke-width="1.937"/><path d="M93.5 126c-.27 1.7.89 3.29 2.59 3.57l4.33.69c1.7.27 3.29-.89 3.57-2.59.27-1.7-.89-3.29-2.59-3.57l-4.33-.69c-1.7-.27-3.3.89-3.57 2.59z" fill="#FFCA28" stroke="#EDA600" stroke-linecap="round" stroke-linejoin="round" stroke-miterlimit="10" stroke-width="1.669"/><path d="M94.71 121.54c-.26 1.71.91 3.31 2.62 3.58l5.68.87c1.71.26 3.31-.91 3.58-2.62.26-1.71-.91-3.31-2.62-3.58l-5.68-.87c-1.71-.26-3.32.91-3.58 2.62z" fill="#FFCA28" stroke="#EDA600" stroke-linecap="round" stroke-linejoin="round" stroke-miterlimit="10" stroke-width="1.937"/><path d="M94.97 117.26a3.065 3.065 0 0 0 2.74 3.36l6.95.71a3.065 3.065 0 1 0 .62-6.1l-6.95-.71a3.059 3.059 0 0 0-3.36 2.74z" fill="#FFCA28" stroke="#EDA600" stroke-linecap="round" stroke-linejoin="round" stroke-miterlimit="10" stroke-width="1.937"/><path d="M94.89 111.78a3.072 3.072 0 0 0 2.92 3.21l6.98.33c1.69.08 3.13-1.23 3.21-2.92a3.072 3.072 0 0 0-2.92-3.21l-6.98-.33a3.072 3.072 0 0 0-3.21 2.92z" fill="#FFCA28" stroke="#EDA600" stroke-linecap="round" stroke-linejoin="round" stroke-miterlimit="10" stroke-width="1.937"/><path d="M105.57 104.92c-.77-.19-3.45-1.06-5.22-1.45-.67-.15-2.45-.48-3.13-.49-2.18-.04-9.12 2.5-10.74 4.1-.79.78-5.75 12.15 4.03 10.37 4.09-.52 3.01-5.45 4.36-6.82 1.03-1.05 2.7-2.6 7.64-.91 1.38.47 3.76.45 4.63-.6 1.51-1.83.67-3.64-1.57-4.2z" fill="#FFCA28"/><path d="M109.09 106.31c-.38-1.13-1.46-1.99-2.96-2.35-.26-.06-.74-.2-1.32-.37-1.17-.34-2.78-.8-4-1.07-.62-.14-2.52-.49-3.38-.51-6.63-.15-9.7 2.08-11.66 4.3-1.29 1.45-.98 4.03-.63 3.54.69-.95 3.8-3.73 6.56-4.78 2.42-.92 3.83-1.2 5.72-1.17.58.01 2.26.31 2.97.46 1.15.25 2.72.71 3.87 1.04.62.18 1.13.33 1.4.39.83.2 1.41.6 1.57 1.1.14.43.13 1.25-.34 1.79-.49.57-2.61.73-3.88.3-1.8-.6-3.74-1.37-5.64-.94-1.44.33-3.14 1.25-3.71 2.6-.56 1.32-.09 4.75-2.2 6.8-.87.84-3.13 1.89-3.13 1.89s2.47.54 3.86-.25c1.96-1.12 2.9-3.62 3.29-5.64.17-.9.14-2.5.42-2.76.87-.86 1.88-2.12 6.41-.61 1.58.52 4.68 1.03 5.95-.45.89-1.06 1.19-2.24.83-3.31z" fill="#EDA600"/></g><path d="M55.4 107.23c-4 0-7.26-3.22-7.26-7.17v-8.98H64.3v8.98c0 3.96-3.26 7.17-7.26 7.17H55.4z" fill="#E59600"/><path d="M63.3 92.08v7.98c0 3.4-2.81 6.17-6.26 6.17H55.4c-3.45 0-6.26-2.77-6.26-6.17v-7.98H63.3m2-2H47.14v9.98c0 4.51 3.7 8.17 8.26 8.17h1.65c4.56 0 8.26-3.66 8.26-8.17v-9.98h-.01z" fill="#D18100"/><path fill="#AED581" d="M40.41 97.5l6.24-.63 8.34 11.37L47 119.39z"/><path d="M46.18 97.92l7.57 10.32-6.38 8.91-5.65-18.78 4.46-.45m.94-2.1l-8.01.81 7.52 25 9.6-13.4-9.11-12.41z" fill="#85BD53"/><path fill="#AED581" d="M57.46 108.24l8.37-11.36 6.22.69-6.57 21.82z"/><path d="M66.29 97.93l4.46.5-5.64 18.73-6.42-8.92 7.6-10.31m-.92-2.11l-9.14 12.41 9.63 13.4 7.5-24.91-7.99-.9z" fill="#85BD53"/><defs><path id="e" d="M107.87 69.72c0 30.88-23.25 58.19-51.93 58.28C27.3 128.09 4.1 100.81 4 69.72c-.1-30.89 23.73-53.39 52.42-53.39s51.45 22.5 51.45 53.39z"/></defs><clipPath id="f"><use xlink:href="#e"/></clipPath><g clip-path="url(#f)"><linearGradient id="g" x1="56.556" x2="56.556" y1="94.708" y2="17.885" gradientUnits="userSpaceOnUse"><stop stop-color="#FFB300" offset="0"/><stop stop-color="#FFB809" offset=".102"/><stop stop-color="#FFC21A" offset=".371"/><stop stop-color="#FFC825" offset=".659"/><stop stop-color="#FFCA28" offset="1"/></linearGradient><path d="M56.56 95.27c-2.3 0-4.91-.5-7.56-1.43-11.34-4.01-24.58-16.34-24.58-37.89 0-28.72 17.31-38.91 32.13-38.91s32.13 10.19 32.13 38.91c0 21.58-13.26 33.9-24.61 37.9-2.63.93-5.23 1.42-7.51 1.42z" fill="url(#g)"/><path d="M56.56 18.04c8.41 0 16.06 3.25 21.55 9.15 6.27 6.73 9.58 16.68 9.58 28.77 0 21.06-12.9 33.07-23.94 36.96-2.53.89-5.01 1.36-7.19 1.36-2.19 0-4.69-.48-7.23-1.38-11.03-3.9-23.9-15.92-23.9-36.94 0-12.09 3.31-22.03 9.58-28.77 5.48-5.9 13.14-9.15 21.55-9.15m0-2c-17.2 0-33.13 12.79-33.13 39.91 0 21.79 13.49 34.67 25.23 38.83 2.8.99 5.5 1.49 7.9 1.49 2.38 0 5.07-.49 7.85-1.47 11.76-4.14 25.28-17.03 25.28-38.84 0-27.13-15.93-39.92-33.13-39.92z" fill="#ED9E00"/><defs><path id="h" d="M22.66 88.85l-3.7-37.72c.5-20.42 14.75-34.71 35.37-34.93 0 0 3.25-.03 6.96.21 20.74 1.35 31.62 17.85 31.62 25.38l-3.07 46.8-67.18.26z"/></defs><clipPath id="i"><use xlink:href="#h"/></clipPath><g clip-path="url(#i)"><radialGradient id="j" cx="57.497" cy="-24.331" r="48.206" gradientTransform="matrix(.796 0 0 .796 10.481 18.947)" gradientUnits="userSpaceOnUse"><stop stop-color="#6D4C41" offset="0"/><stop stop-color="#543930" offset="1"/></radialGradient><path d="M94.14 42.65S95.16 7.08 56.33 7.08 18.36 42.65 18.36 42.65s.33 45.48 3.2 51.39 7.2 5.71 7.2 5.71-2.03-26.54-2.26-39.04c-.06-2.92-.94-13.73 5.16-15.09 22.36-5.02 35.01-16.89 35.01-16.89 3.29 7.19 13.58 14.19 17.27 16.86 3.03 2.19 2.61 11.2 2.55 15.03l-3.05 39.06s4.68.37 7.65-5.64c2.96-6.02 3.05-51.39 3.05-51.39z" fill="url(#j)"/></g><path d="M60.62 68.05c-.1-.04-.21-.07-.32-.08h-6.99c-.11.01-.21.04-.32.08-.63.26-.98.91-.68 1.61s1.69 2.66 4.49 2.66 4.19-1.96 4.49-2.66c.31-.69-.04-1.35-.67-1.61z" fill="#E59600"/><ellipse cx="40.56" cy="58.87" rx="4.87" ry="5.04" fill="#404040"/><ellipse cx="73.05" cy="58.87" rx="4.87" ry="5.04" fill="#404040"/><path d="M47.79 49.82c-.93-1.23-3.07-3.01-7.23-3.01s-6.31 1.79-7.23 3.01c-.41.54-.31 1.17-.02 1.55.26.35 1.04.68 1.9.39s2.54-1.16 5.35-1.18c2.81.02 4.49.89 5.35 1.18s1.64-.03 1.9-.39c.29-.38.39-1.01-.02-1.55zM80.29 49.82c-.93-1.23-3.07-3.01-7.23-3.01s-6.31 1.79-7.23 3.01c-.41.54-.31 1.17-.02 1.55.26.35 1.04.68 1.9.39s2.54-1.16 5.35-1.18c2.81.02 4.49.89 5.35 1.18s1.64-.03 1.9-.39c.28-.38.39-1.01-.02-1.55z" fill="#6D4C41"/><path d="M64.87 76.14c-3.15 1.87-13.46 1.87-16.61 0-1.81-1.07-3.65.57-2.9 2.21.74 1.61 6.37 5.36 11.23 5.36s10.42-3.75 11.16-5.36c.75-1.64-1.07-3.29-2.88-2.21z" fill="#795548"/></g><g fill="none" stroke="#8C6239" stroke-linecap="round" stroke-linejoin="round" stroke-miterlimit="10" stroke-width="2.453"><path d="M95.29 36.75s-.14 59.5-38.93 59.26c-38.79.25-37.54-59.26-37.54-59.26M56.36 96.98s-1.29 3.31-4.51 4.75c-3.21 1.44-6.41 1.65-7.13.46-.73-1.18 1.29-3.31 4.51-4.75 3.21-1.44 7.13-.46 7.13-.46zM56.36 96.95s1.61 3.45 4.82 4.88c3.21 1.44 6.1 1.51 6.82.33s-1.29-3.31-4.51-4.75c-3.21-1.44-7.13-.46-7.13-.46z"/></g><linearGradient id="k" x1="56.461" x2="56.461" y1="12.415" y2="47.378" gradientUnits="userSpaceOnUse"><stop stop-color="#FFF59D" offset=".003"/><stop stop-color="#FEE565" offset=".553"/><stop stop-color="#FDD835" offset=".996"/></linearGradient><path d="M56.46 47.76c-31.58 0-50.44-7.24-50.44-19.36 0-9.08 20.27-18.8 50.44-18.8s50.44 9.72 50.44 18.8c0 11.94-19.33 19.36-50.44 19.36z" fill="url(#k)"/><path d="M56.46 11.08c13.46 0 26.12 2.06 35.63 5.8 8.34 3.28 13.32 7.58 13.32 11.51 0 5.43-4.46 9.81-13.24 13.01-8.75 3.18-21.09 4.86-35.7 4.86-30.65 0-48.95-6.68-48.95-17.87 0-3.93 4.98-8.24 13.32-11.51 9.51-3.74 22.16-5.8 35.62-5.8m0-2.99c-28.68 0-51.93 9.25-51.93 20.3 0 14.84 23.25 20.86 51.93 20.86s51.93-6.5 51.93-20.86c.01-11.05-23.25-20.3-51.93-20.3z" fill="#E6C22D"/><linearGradient id="l" x1="56.459" x2="56.459" y1="5.549" y2="32.093" gradientUnits="userSpaceOnUse"><stop stop-color="#FFF59D" offset=".003"/><stop stop-color="#FFF394" offset=".165"/><stop stop-color="#FEEC7D" offset=".426"/><stop stop-color="#FEE156" offset=".752"/><stop stop-color="#FDD835" offset=".996"/></linearGradient><path d="M56.46 31.97c-11.3 0-16.89-1.5-19.59-2.77-2.12-.99-2.74-1.94-2.91-2.33L40.3 8.26c.55-1.6 2.39-2.72 4.47-2.72h23.31c2.08 0 3.92 1.12 4.47 2.71l6.42 18.61c-.46.91-3.58 5.11-22.51 5.11z" fill="url(#l)"/><path d="M68.08 7.02c1.44 0 2.74.72 3.08 1.72l6.17 17.91c-.38.38-1.23 1.02-3.01 1.68-2.67.99-7.93 2.17-17.86 2.17s-15.19-1.18-17.86-2.17c-1.79-.66-2.63-1.3-3.01-1.69l6.1-17.9c.34-1 1.64-1.72 3.08-1.72h23.31m0-2.94H44.77c-2.72 0-5.12 1.52-5.87 3.72l-6.48 19s0 6.64 24.04 6.64S80.5 26.8 80.5 26.8L73.94 7.78c-.76-2.19-3.15-3.7-5.86-3.7z" fill="#E6C22D"/></svg>