<svg viewBox="0 0 128 128" xmlns="http://www.w3.org/2000/svg" xmlns:xlink="http://www.w3.org/1999/xlink"><radialGradient id="a" cx="308.9" cy="-121.03" r="57.904" gradientTransform="matrix(.826 0 0 .826 -190.9 92.238)" gradientUnits="userSpaceOnUse"><stop stop-color="#BFA055" offset="0"/><stop stop-color="#AB872F" offset="1"/></radialGradient><path d="M47.02 119.76s-6.8-.35-10.21-5.09c-7.37-10.23-11.42-35.81-11.42-72.02 0-1.66.26-16.41 10.66-26.83C42.8 9.05 52.4 5.62 64.57 5.62c12.08 0 21.52 3.38 28.05 10.04 9.82 10.02 10.04 24.16 9.99 26.89 0 36.31-4.06 61.89-11.42 72.12-3.33 4.62-9.8 5.06-10.25 5.09L64 119.73l-16.98.03z" fill="url(#a)"/><path d="M64.57 7.12c11.66 0 20.74 3.23 26.98 9.59 9.6 9.8 9.59 24.2 9.56 25.81v.12c0 35.9-3.96 61.17-11.14 71.15-2.84 3.94-8.55 4.43-9.08 4.46l-16.9-.03-16.89.03c-.54-.04-6.24-.53-9.08-4.46-7.18-9.98-11.14-35.24-11.14-71.17 0-.63.08-15.58 10.22-25.75 6.47-6.46 15.71-9.75 27.47-9.75m0-3c-41.01 0-40.68 37.92-40.68 38.52 0 24.56 1.88 59.25 11.71 72.9 3.9 5.41 11.43 5.71 11.43 5.71l16.97-.02 16.97.03s7.53-.3 11.43-5.71c9.83-13.65 11.71-48.34 11.71-72.9-.01-.61 1.47-38.53-39.54-38.53z" fill="#8F7635"/><path d="M17.81 119.62V124h94.38v-4.38c0-13.44-23.76-19.9-47.19-19.87-23.28.02-47.19 5.64-47.19 19.87z"/><path d="M63.17 107.23c-4 0-7.26-3.22-7.26-7.17v-8.98h16.16v8.98c0 3.96-3.26 7.17-7.26 7.17h-1.64z" fill="#C48E6A"/><path d="M71.08 92.08v7.98c0 3.4-2.81 6.17-6.26 6.17h-1.65c-3.45 0-6.26-2.77-6.26-6.17v-7.98h14.17m2-2H54.92v9.98c0 4.51 3.7 8.17 8.26 8.17h1.65c4.56 0 8.26-3.66 8.26-8.17v-9.98h-.01z" fill="#B07853"/><path d="M12.54 121.29v11.01h102.93v-11.01c0-16.89-25.69-25.65-51.55-25.6-25.63.06-51.38 7.71-51.38 25.6z" fill="none"/><linearGradient id="b" x1="31.869" x2="96.131" y1="56.155" y2="56.155" gradientUnits="userSpaceOnUse"><stop stop-color="#CCA47A" offset="0"/><stop stop-color="#D6B088" offset=".257"/><stop stop-color="#DEB892" offset=".589"/><stop stop-color="#E0BB95" offset="1"/></linearGradient><path d="M64 95.27c-2.3 0-4.91-.5-7.56-1.43C45.1 89.83 31.87 77.5 31.87 55.95c0-28.72 17.31-38.91 32.13-38.91s32.13 10.19 32.13 38.91c0 21.58-13.26 33.9-24.61 37.9-2.63.93-5.23 1.42-7.52 1.42z" fill="url(#b)"/><path d="M64 18.04c8.41 0 16.06 3.25 21.55 9.15 6.27 6.73 9.58 16.68 9.58 28.77 0 21.06-12.9 33.07-23.94 36.96-2.53.89-5.01 1.36-7.19 1.36-2.19 0-4.69-.48-7.23-1.38-11.03-3.9-23.9-15.92-23.9-36.94 0-12.09 3.31-22.03 9.58-28.77 5.49-5.9 13.14-9.15 21.55-9.15m0-2c-17.2 0-33.13 12.79-33.13 39.91 0 21.79 13.49 34.67 25.23 38.83 2.8.99 5.5 1.49 7.9 1.49 2.38 0 5.07-.49 7.85-1.47 11.76-4.14 25.28-17.03 25.28-38.84 0-27.13-15.93-39.92-33.13-39.92z" fill="#BA8F63"/><linearGradient id="c" x1="51.134" x2="51.134" y1="40" y2="83.129" gradientUnits="userSpaceOnUse"><stop stop-color="#EC008C" offset="0"/><stop stop-color="#EA0188" offset=".22"/><stop stop-color="#E5057D" offset=".421"/><stop stop-color="#DC0B6B" offset=".615"/><stop stop-color="#CF1351" offset=".804"/><stop stop-color="#BF1D2F" offset=".988"/><stop stop-color="#BE1E2D" offset="1"/></linearGradient><path fill="url(#c)" d="M42.25 41.72L70.4 31.55 57.75 48.16l10.09-2.12-30.24 36.4 1.87-15.25-7.6 3.12z"/><defs><path id="d" d="M30.41 88.85l-1.94-51.03C28.8 18.57 44.59 7.17 61.54 7.17h4.93C87 7.56 100.5 20.8 100.5 37.75l-2.9 50.84-67.19.26z"/></defs><clipPath id="e"><use xlink:href="#d"/></clipPath><g clip-path="url(#e)"><radialGradient id="f" cx="374.27" cy="-112.18" r="48.206" gradientTransform="matrix(.796 0 0 .796 -233.93 88.877)" gradientUnits="userSpaceOnUse"><stop stop-color="#BFA055" offset="0"/><stop stop-color="#AB872F" offset="1"/></radialGradient><path d="M101.89 42.65s1.02-35.57-37.81-35.57-37.97 35.57-37.97 35.57.33 45.48 3.2 51.39 7.2 5.71 7.2 5.71-2.03-26.54-2.26-39.04c-.06-2.92-.94-13.73 5.16-15.09 22.36-5.02 35.01-16.89 35.01-16.89C77.71 35.92 88 42.92 91.69 45.59c3.03 2.19 2.61 11.2 2.55 15.03l-3.05 39.06s4.68.37 7.65-5.64c2.96-6.02 3.05-51.39 3.05-51.39z" fill="url(#f)"/></g><path d="M67.81 68.05c-.1-.04-.21-.07-.32-.08H60.5c-.11.01-.21.04-.32.08-.63.26-.98.91-.68 1.61s1.69 2.66 4.49 2.66 4.19-1.96 4.49-2.66c.31-.69-.03-1.35-.67-1.61z" fill="#C48E6A"/><ellipse cx="47.75" cy="58.87" rx="4.87" ry="5.04" fill="#5D4037"/><ellipse cx="80.25" cy="58.87" rx="4.87" ry="5.04" fill="#5D4037"/><path d="M54.98 49.82c-.93-1.23-3.07-3.01-7.23-3.01s-6.31 1.79-7.23 3.01c-.41.54-.31 1.17-.02 1.55.26.35 1.04.68 1.9.39s2.54-1.16 5.35-1.18c2.81.02 4.49.89 5.35 1.18s1.64-.03 1.9-.39c.29-.38.39-1.01-.02-1.55zM87.48 49.82c-.93-1.23-3.07-3.01-7.23-3.01s-6.31 1.79-7.23 3.01c-.41.54-.31 1.17-.02 1.55.26.35 1.04.68 1.9.39s2.54-1.16 5.35-1.18c2.81.02 4.49.89 5.35 1.18s1.64-.03 1.9-.39c.29-.38.39-1.01-.02-1.55z" fill="#AB872F"/><path d="M72.32 76.14c-3.15 1.87-13.46 1.87-16.61 0-1.81-1.07-3.65.57-2.9 2.21.74 1.61 6.37 5.36 11.23 5.36s10.42-3.75 11.16-5.36c.75-1.64-1.08-3.29-2.88-2.21z" fill="#6D4C41"/><defs><path id="g" d="M4 4h120v120H4z"/></defs><clipPath id="h"><use xlink:href="#g"/></clipPath><g clip-path="url(#h)"><path d="M97.59 81.81l-1.34-17.96c-.1-1.84.91-3.41 2.75-3.51s3.01 1.31 3.11 3.15l2.04 16.16c3.62-.62 8.19-1.09 11.88-1.11l1.31-8.25c.13-1.87 1.35-3.28 3.22-3.15s2.95 1.75 2.82 3.62l-.64 11.02v6c0 7.62-5.04 13.85-13.25 13.85-14.03 0-15.95-15.56-11.9-19.82z" fill="#E0BB95"/><path d="M99.19 61.83c1.27 0 1.42 1.45 1.43 1.74 0 .04.01.07.01.11l2.04 16.16c.05.41.27.77.59 1.02.26.19.57.3.89.3.08 0 .17-.01.25-.02 3.84-.66 8.29-1.07 11.63-1.09.73 0 1.36-.54 1.47-1.26l1.31-8.25c.01-.04.01-.09.02-.13.02-.29.19-1.76 1.49-1.76h.13c1.1.08 1.56 1.14 1.49 2.03l-.21 11.11-.31 5.79c0 7.27-4.81 12.57-11.69 12.57-7.09 0-10.17-4.33-11.28-6.92-1.76-4.11-1.31-8.68.29-10.37.29-.31.4-.72.37-1.14l-1.35-17.93c-.03-.57.09-1.08.35-1.44.23-.31.55-.48.97-.5.04-.01.07-.02.11-.02m0-1.5c-.06 0-.12 0-.18.01-1.84.1-2.85 1.67-2.75 3.51l1.34 17.96c-4.05 4.26-2.12 19.82 11.9 19.82 8.21 0 13.25-6.23 13.25-13.85l.64-17.02c.13-1.87-.91-3.49-2.78-3.62-.08-.01-.18-.01-.26-.01-1.73 0-2.86 1.37-2.99 3.15l-1.32 8.25c-3.69.02-8.26.49-11.88 1.11l-2.04-16.16c-.1-1.77-1.2-3.15-2.93-3.15z" fill="#BA8F63"/><path d="M104 90.14c.98-.29 2.03-.46 3-.06 1.06.44 1.59 1.48 2.01 2.49.36.88 1.81.5 1.45-.4-.56-1.36-1.25-2.69-2.62-3.36-1.33-.65-2.85-.52-4.23-.12-.93.28-.54 1.73.39 1.45z" fill="#BA8F63"/><path d="M107.66 87.66c1.84-.12 3.22-1.54 3.09-3.18l-.54-6.76c-.13-1.64-1.73-2.87-3.57-2.75s-3.22 1.54-3.09 3.18l.54 6.76c.14 1.63 1.73 2.87 3.57 2.75z" fill="#E0BB95"/><path d="M106.89 76.46c.96 0 1.77.61 1.83 1.38l.54 6.76c.03.42-.16.73-.32.93-.32.37-.82.6-1.37.64h-.15c-.96 0-1.77-.61-1.83-1.38l-.54-6.76c-.03-.42.16-.73.32-.93.32-.37.82-.6 1.37-.64h.15m0-1.5c-.08 0-.16 0-.24.01-1.84.12-3.22 1.54-3.09 3.18l.54 6.76c.13 1.57 1.59 2.76 3.33 2.76.08 0 .16 0 .24-.01 1.84-.12 3.22-1.54 3.09-3.18l-.54-6.76c-.13-1.56-1.6-2.76-3.33-2.76z" fill="#BA8F63"/><path d="M112.74 87.22c1.87.18 3.56-1.03 3.76-2.7l.67-5.55c.2-1.67-1.15-3.17-3.03-3.35-1.87-.18-3.56 1.03-3.76 2.7l-.67 5.55c-.2 1.67 1.15 3.17 3.03 3.35z" fill="#E0BB95"/><path d="M113.77 77.1c.07 0 .15 0 .23.01.57.05 1.07.31 1.38.7.17.21.35.54.3.98l-.67 5.55c-.09.78-.93 1.4-1.9 1.4-.07 0-.15 0-.23-.01-.57-.05-1.07-.31-1.38-.7-.17-.21-.35-.54-.3-.98l.67-5.55c.09-.78.93-1.4 1.9-1.4m0-1.5c-1.72 0-3.2 1.16-3.39 2.72l-.67 5.55c-.2 1.67 1.15 3.17 3.03 3.35.12.01.25.02.37.02 1.72 0 3.2-1.16 3.39-2.72l.67-5.55c.2-1.67-1.15-3.17-3.03-3.35-.12-.01-.25-.02-.37-.02z" fill="#BA8F63"/><defs><path id="i" d="M111.63 81.79c2.21-.25 2.84 2.01 2.46 3.39s-1.85 2.48-3.27 2.51c-5.08.11-6.26 1-6.76 2.44-.69 1.98-1.71 3.46-3.6 3.68-3.35.39-3.91-4.04-3.5-6.79.58-3.88 7.04-5.09 7.04-5.09s6.57-.02 7.63-.14z"/></defs><clipPath id="j"><use xlink:href="#i"/></clipPath><g clip-path="url(#j)"><path d="M111.63 81.79c2.21-.25 2.84 2.01 2.46 3.39s-1.85 2.48-3.27 2.51c-5.08.11-6.26 1-6.76 2.44-.69 1.98-1.44 5.18-2.54 5.32-3.76.49-6.14-3.02-5.97-7.3.13-3.15 8.45-6.23 8.45-6.23s6.57-.01 7.63-.13z" fill="#E0BB95"/><path d="M111.96 83.27c.27 0 .39.08.48.21.23.3.32.88.2 1.3-.2.72-1.08 1.39-1.85 1.41-5.16.11-7.3 1.01-8.14 3.44-.14.41-.29.86-.43 1.33-.28.89-.78 2.48-1.16 3.02-.08 0-.16.01-.23.01-.89 0-2.11-.07-2.33-.61-.88-1.55-1.3-3.39-1.44-5.18.04-1.09 3.46-3.34 7.23-4.78 1.37 0 6.5-.03 7.52-.14.04-.01.1-.01.15-.01m0-1.5c-.11 0-.22.01-.33.02-1.06.12-7.62.13-7.62.13s-8.33 3.08-8.45 6.22c-.16 4.01 1.92 7.35 5.27 7.35.23 0 .46-.02.7-.05 1.1-.15 1.85-3.34 2.54-5.32.5-1.43 1.68-2.33 6.76-2.44 1.42-.03 2.89-1.13 3.27-2.51.35-1.3-.2-3.4-2.14-3.4z" fill="#BA8F63"/></g><linearGradient id="k" x1="35.991" x2="35.991" y1="102.61" y2="128.31" gradientUnits="userSpaceOnUse"><stop stop-color="#666" offset=".004"/><stop stop-color="#656565" offset=".012"/><stop stop-color="#484747" offset=".274"/><stop stop-color="#343131" offset=".53"/><stop stop-color="#272324" offset=".776"/><stop stop-color="#231F20" offset="1"/></linearGradient><path d="M17.81 126.5c-.15 0-.31-.2-.31-.47v-20.15c0-4.83.92-6.81 3.18-6.81 1.85 0 4.3.9 7.14 1.95 4.16 1.53 9.33 3.43 15.23 3.43 3.61 0 7.05-.69 10.46-2.1l.97 24.15H17.81z" fill="url(#k)"/><path d="M20.68 100.57c1.58 0 4.03.9 6.63 1.86 4.27 1.57 9.58 3.52 15.75 3.52 3.06 0 6.09-.5 9.04-1.48l.82 20.53H19v-19.12c0-4.67.81-5.31 1.68-5.31m0-3c-4.68 0-4.68 5.73-4.68 8.31v20.15c0 1.09.81 1.97 1.81 1.97h38.23l-1.13-27.94c-4.23 2.12-8.2 2.89-11.87 2.89-9.69 0-17.32-5.38-22.36-5.38z" fill="#47474D"/><linearGradient id="l" x1="-225.47" x2="-225.47" y1="102.61" y2="128.31" gradientTransform="matrix(-1 0 0 1 -132.27 0)" gradientUnits="userSpaceOnUse"><stop stop-color="#666" offset=".004"/><stop stop-color="#656565" offset=".012"/><stop stop-color="#484747" offset=".274"/><stop stop-color="#343131" offset=".53"/><stop stop-color="#272324" offset=".776"/><stop stop-color="#231F20" offset="1"/></linearGradient><path d="M74.75 126.5l-.14-24.17c3.41 1.39 6.92 2.07 10.64 2.07 6.14 0 11.63-1.9 16.04-3.43 2.95-1.02 5.51-1.91 7.34-1.91 2.26 0 3.18 1.97 3.18 6.81v20.15c0 .27-.16.47-.31.47H74.75z" fill="url(#l)"/><path d="M108.62 100.57c.87 0 1.68.64 1.68 5.31V125H76.24l-.12-20.53c2.95.95 6 1.43 9.12 1.43 6.39 0 12.01-1.95 16.53-3.51 2.71-.94 5.27-1.82 6.85-1.82m0-3c-5.03 0-13.33 5.33-23.38 5.33-3.82 0-7.9-.77-12.15-2.9l.16 28h38.23c1 0 1.81-.88 1.81-1.97v-20.15c.01-2.58.01-8.31-4.67-8.31z" fill="#47474D"/><linearGradient id="m" x1="40.742" x2="40.742" y1="114.51" y2="126.72" gradientUnits="userSpaceOnUse"><stop stop-color="#1369ED" offset=".003"/><stop stop-color="#1261DB" offset=".298"/><stop stop-color="#0E4BAB" offset=".888"/><stop stop-color="#0D47A1" offset="1"/></linearGradient><path fill="url(#m)" d="M58.37 126.84L56.21 112l-33.09 6.22 6.11 8.5z"/><linearGradient id="n" x1="41.842" x2="41.842" y1="98.805" y2="129.88" gradientUnits="userSpaceOnUse"><stop stop-color="#AB47BC" offset="0"/><stop stop-color="#A745B8" offset=".249"/><stop stop-color="#9C3EAE" offset=".476"/><stop stop-color="#8A329C" offset=".695"/><stop stop-color="#702282" offset=".907"/><stop stop-color="#621975" offset="1"/></linearGradient><path fill="url(#n)" d="M42.7 128.38h15.67l-3.45-31.47-29.6 7.2 12.82 17.72z"/><linearGradient id="o" x1="87.083" x2="87.083" y1="115.21" y2="126.48" gradientUnits="userSpaceOnUse"><stop stop-color="#1369ED" offset=".003"/><stop stop-color="#1261DB" offset=".298"/><stop stop-color="#0E4BAB" offset=".888"/><stop stop-color="#0D47A1" offset="1"/></linearGradient><path fill="url(#o)" d="M69.29 126.84L71.33 112l33.54 6.34-6.11 8.5z"/><linearGradient id="p" x1="85.908" x2="85.908" y1="98.712" y2="128.26" gradientUnits="userSpaceOnUse"><stop stop-color="#AB47BC" offset="0"/><stop stop-color="#A745B8" offset=".249"/><stop stop-color="#9C3EAE" offset=".476"/><stop stop-color="#8A329C" offset=".695"/><stop stop-color="#702282" offset=".907"/><stop stop-color="#621975" offset="1"/></linearGradient><path fill="url(#p)" d="M85.05 126.84H69.38l3.92-29.93 29.13 5.67-12.82 17.71z"/><path d="M7.54 129.3V99.33c0-.34-.17-.66-.46-.84a.949.949 0 0 0-.54-.16c-.14 0-.28.03-.41.09-.11.05-.22.07-.33.07-.28 0-.53-.14-.67-.37a.767.767 0 0 1-.09-.61c.05-.21.18-.38.37-.49l4.22-2.46c.05-.03.12-.05.21-.08.29-.07.54-.28.67-.55.13-.28.12-.59-.02-.87l-.22-.43L32.5 79.28c.23-.14.4-.37.46-.63a6.515 6.515 0 0 1 3.42-4.35c.92-.46 1.9-.7 2.93-.7 2.48 0 4.72 1.38 5.83 3.59.78 1.56.91 3.33.37 4.98s-1.71 3-3.26 3.78c-.92.46-1.9.7-2.92.7-.9 0-1.78-.18-2.61-.54a.995.995 0 0 0-.78 0l-23.98 9.92a.98.98 0 0 0-.58-.37c-.07-.02-.14-.02-.21-.02-.23 0-.45.08-.63.22-.03.03-.07.06-.11.08l-1.25.73a1 1 0 0 0-.5.86v31.77H7.54z" fill="#5D5F61"/><path d="M39.3 74.6c2.1 0 4 1.17 4.94 3.04.66 1.32.77 2.81.31 4.22a5.46 5.46 0 0 1-2.76 3.2c-.78.39-1.61.59-2.47.59-.76 0-1.51-.15-2.21-.46a1.98 1.98 0 0 0-1.56-.02l-23.44 9.69c-.17-.09-.35-.16-.54-.2-.11-.02-.22-.04-.33-.04.06-.09.11-.19.16-.29.19-.41.23-.87.13-1.31l21.48-12.9c.46-.28.8-.73.92-1.26a5.48 5.48 0 0 1 2.9-3.68c.77-.38 1.6-.58 2.47-.58M7.82 96.76c-.1.24-.15.5-.15.77v.16c-.02-.01-.03-.02-.05-.03a1.99 1.99 0 0 0-.81-.3l1.01-.6M39.3 72.6c-1.14 0-2.29.26-3.37.8a7.48 7.48 0 0 0-3.94 5.02L8.95 92.25l.63 1.26c-.16.04-.32.1-.47.18l-4.22 2.46c-.87.51-1.15 1.63-.63 2.49.34.55.92.85 1.52.85.25 0 .51-.05.75-.16v30.97h3.13V97.53l1.25-.73c.08-.05.16-.11.23-.17l.33.66 24.82-10.26c.94.41 1.97.63 3.01.63 1.14 0 2.29-.26 3.37-.8 3.71-1.87 5.21-6.39 3.34-10.1a7.481 7.481 0 0 0-6.71-4.16z" fill="#47474D"/><linearGradient id="q" x1="109.28" x2="109.28" y1="98.018" y2="136.42" gradientUnits="userSpaceOnUse"><stop stop-color="#666" offset=".004"/><stop stop-color="#393637" offset=".631"/><stop stop-color="#231F20" offset="1"/></linearGradient><path fill="url(#q)" d="M97.84 135.5l-.02-37.48 22.71-.08.21 37.56z"/><path d="M119.04 99.44l.2 34.56h-19.9l-.02-34.49 19.72-.07m2.98-3.01l-25.7.09.02 40.48h25.91l-.23-40.57z" fill="#47474D"/><ellipse transform="matrix(1 -.00356 .00356 1 -.374 .352)" cx="98.68" cy="105.29" rx="4.11" ry="4.11" fill="#E1BEE7"/><ellipse transform="matrix(1 -.00356 .00356 1 -.374 .39)" cx="109.29" cy="105.25" rx="4.11" ry="4.11" fill="#D81B60"/><ellipse transform="matrix(1 -.00356 .00356 1 -.374 .427)" cx="119.89" cy="105.21" rx="4.11" ry="4.11" fill="#D500F9"/></g></svg>