<svg viewBox="0 0 128 128" xmlns="http://www.w3.org/2000/svg" xmlns:xlink="http://www.w3.org/1999/xlink"><defs><path id="a" d="M4 4h120v120H4z"/></defs><clipPath id="b"><use xlink:href="#a"/></clipPath><g clip-path="url(#b)"><path d="M115 49.65c1.4 0 2.54 1.08 2.54 2.42 0 .11-.02.21-.03.31.01.1.03.21.03.31 0 .21-.04.42-.09.63 1.15.1 2.05 1 2.05 2.12v9.2c0 1.18-1.01 2.14-2.25 2.14h-.02c-.08 1.11-1.05 1.99-2.23 1.99s-2.15-.88-2.23-1.99h-.02c-1.24 0-2.25-.96-2.25-2.14v-9.2c0-1.12.9-2.02 2.05-2.12-.05-.21-.09-.42-.09-.63 0-.11.02-.21.03-.31-.01-.1-.03-.21-.03-.31 0-1.34 1.14-2.42 2.54-2.42m0-1.5c-2.23 0-4.04 1.76-4.04 3.92 0 .06 0 .12.01.18-1.18.61-1.97 1.81-1.97 3.2v9.2c0 1.61 1.08 2.98 2.58 3.46.59 1.28 1.91 2.17 3.42 2.17s2.83-.89 3.42-2.17c1.5-.48 2.58-1.85 2.58-3.46v-9.2c0-1.38-.78-2.59-1.97-3.2 0-.06.01-.12.01-.18 0-2.16-1.81-3.92-4.04-3.92z" fill="#ED9E00"/><path d="M117.25 53.3c-1.24 0-2.25.96-2.25 2.14v9.2c0 1.18 1.01 2.14 2.25 2.14s2.25-.96 2.25-2.14v-9.2c0-1.18-1.01-2.14-2.25-2.14zM112.75 53.3c-1.24 0-2.25.96-2.25 2.14v9.2c0 1.18 1.01 2.14 2.25 2.14s2.25-.96 2.25-2.14v-9.2c0-1.18-1.01-2.14-2.25-2.14z" fill="#E8AD00"/><path d="M115 53.3c-1.24 0-2.25.96-2.25 2.14v11.19c0 1.18 1.01 2.14 2.25 2.14s2.25-.96 2.25-2.14V55.44c0-1.18-1.01-2.14-2.25-2.14z" fill="#FFCA28"/><ellipse cx="115" cy="52.07" rx="2.76" ry="2.63" fill="#FFCA28"/><path d="M115 52.04c-.55 0-1-.45-1-1v-38c0-.55.45-1 1-1s1 .45 1 1v38c0 .55-.45 1-1 1z" fill="#0C0B0B"/></g><g clip-path="url(#b)"><radialGradient id="c" cx="53.796" cy="-131.98" r="57.904" gradientTransform="matrix(.826 0 0 .826 19.816 101.29)" gradientUnits="userSpaceOnUse"><stop stop-color="#554138" offset="0"/><stop stop-color="#3C2C23" offset="1"/></radialGradient><path d="M47.02 119.76s-6.8-.35-10.21-5.09c-7.37-10.23-11.42-35.81-11.42-72.02 0-1.66.26-16.4 10.66-26.83C42.8 9.05 52.4 5.62 64.57 5.62c12.08 0 21.52 3.38 28.05 10.04 9.82 10.02 10.04 24.16 9.99 26.89 0 36.31-4.06 61.89-11.42 72.12-3.3 4.59-9.79 5.06-10.25 5.09L64 119.73l-16.98.03z" fill="url(#c)"/><path d="M64.57 7.12c11.66 0 20.74 3.23 26.98 9.59 9.6 9.8 9.59 24.2 9.56 25.81v.12c0 35.9-3.96 61.17-11.14 71.15-2.84 3.94-8.55 4.43-9.08 4.46l-16.9-.03-16.89.03c-.54-.04-6.24-.53-9.08-4.46-7.18-9.98-11.14-35.24-11.14-71.17 0-.63.08-15.58 10.22-25.75 6.47-6.46 15.71-9.75 27.47-9.75m0-3c-41.01 0-40.68 37.92-40.68 38.52 0 24.56 1.88 59.25 11.71 72.9 3.9 5.41 11.43 5.71 11.43 5.71l16.97-.02 16.97.03s7.53-.3 11.43-5.71c9.83-13.65 11.71-48.34 11.71-72.9-.01-.61 1.47-38.53-39.54-38.53z" fill="#291D15"/></g><g clip-path="url(#b)"><path d="M63.17 115.23c-4 0-7.26-3.22-7.26-7.17V91.08h16.16v16.98c0 3.96-3.25 7.17-7.26 7.17h-1.64z" fill="#7A4C32"/><path d="M71.08 92.08v15.98c0 3.4-2.81 6.17-6.26 6.17h-1.65c-3.45 0-6.26-2.77-6.26-6.17V92.08h14.17m2-2H54.92v17.98c0 4.51 3.7 8.17 8.26 8.17h1.65c4.56 0 8.26-3.66 8.26-8.17V90.08h-.01z" fill="#663B22"/></g><g clip-path="url(#b)"><linearGradient id="d" x1="64" x2="64" y1="96.096" y2="130.18" gradientUnits="userSpaceOnUse"><stop stop-color="#616161" offset=".003"/><stop stop-color="#545454" offset=".277"/><stop stop-color="#323232" offset=".783"/><stop stop-color="#212121" offset="1"/></linearGradient><path d="M13.5 130.5v-9.51c0-18.37 30.15-22.31 40.7-23.12l8.61 11.05c.28.37.72.58 1.18.58s.9-.21 1.18-.58l8.6-11.03c18.97 1.56 40.72 8.49 40.72 23.09v9.51H13.5z" fill="url(#d)"/><path d="M53.52 99.43l8.12 10.42c.56.72 1.44 1.15 2.36 1.15s1.8-.43 2.37-1.16l8.1-10.39c10.75.96 20.35 3.39 27.15 6.91 7.55 3.91 11.38 8.83 11.38 14.62V129H15v-8.01c0-6.13 3.83-11.17 11.39-14.99 6.74-3.41 16.09-5.67 27.13-6.57m1.38-3.11c-22.42 1.54-42.9 8.9-42.9 24.67V132h104v-11.01c0-14.9-20.38-22.98-42.91-24.65L64 108l-9.1-11.68z" fill="#404042"/></g><g clip-path="url(#b)"><linearGradient id="e" x1="31.869" x2="96.132" y1="56.155" y2="56.155" gradientUnits="userSpaceOnUse"><stop stop-color="#8D5738" offset="0"/><stop stop-color="#97603D" offset=".216"/><stop stop-color="#A26941" offset=".573"/><stop stop-color="#A56C43" offset="1"/></linearGradient><path d="M64 95.27c-2.3 0-4.91-.5-7.56-1.43C45.1 89.83 31.87 77.5 31.87 55.95c0-28.72 17.31-38.91 32.13-38.91s32.13 10.19 32.13 38.91c0 21.58-13.26 33.9-24.61 37.9-2.63.93-5.23 1.42-7.52 1.42z" fill="url(#e)"/><path d="M64 18.04c8.41 0 16.06 3.25 21.55 9.15 6.27 6.73 9.58 16.68 9.58 28.77 0 21.06-12.9 33.07-23.94 36.96-2.53.89-5.01 1.36-7.19 1.36-2.19 0-4.69-.48-7.23-1.38-11.03-3.9-23.9-15.92-23.9-36.94 0-12.09 3.31-22.03 9.58-28.77 5.49-5.9 13.14-9.15 21.55-9.15m0-2c-17.2 0-33.13 12.79-33.13 39.91 0 21.79 13.49 34.67 25.23 38.83 2.8.99 5.5 1.49 7.9 1.49 2.38 0 5.07-.49 7.85-1.47 11.76-4.14 25.28-17.03 25.28-38.84 0-27.13-15.93-39.92-33.13-39.92z" fill="#875334"/></g><g clip-path="url(#b)"><defs><path id="f" d="M30.41 88.85l-1.5-51.44c0-16.95 15.78-29.85 32.73-29.85h4.93c16.95 0 32.54 12.9 32.54 29.85l-1.5 51.18-67.2.26z"/></defs><clipPath id="g"><use xlink:href="#f"/></clipPath><g clip-path="url(#g)"><radialGradient id="h" cx="63.987" cy="-123.13" r="48.206" gradientTransform="matrix(.796 0 0 .796 13.065 97.597)" gradientUnits="userSpaceOnUse"><stop stop-color="#554138" offset="0"/><stop stop-color="#3C2C23" offset="1"/></radialGradient><path d="M101.89 42.65s1.02-35.57-37.81-35.57-37.97 35.57-37.97 35.57.33 45.48 3.2 51.39 7.2 5.71 7.2 5.71-2.03-26.54-2.26-39.04c-.06-2.92-.94-13.73 5.16-15.09 22.36-5.02 35.01-16.89 35.01-16.89C77.71 35.92 88 42.92 91.69 45.59c3.03 2.19 2.61 11.2 2.55 15.03l-3.05 39.06s4.68.37 7.65-5.64c2.96-6.02 3.05-51.39 3.05-51.39z" fill="url(#h)"/></g></g><g clip-path="url(#b)"><path d="M67.81 68.05c-.1-.04-.21-.07-.32-.08H60.5c-.11.01-.21.04-.32.08-.63.26-.98.91-.68 1.61s1.69 2.66 4.49 2.66 4.19-1.96 4.49-2.66c.31-.69-.03-1.35-.67-1.61z" fill="#875334"/><g fill="#42312C"><ellipse cx="47.75" cy="58.87" rx="4.87" ry="5.04"/><ellipse cx="80.25" cy="58.87" rx="4.87" ry="5.04"/><path d="M54.98 49.82c-.93-1.23-3.07-3.01-7.23-3.01s-6.31 1.79-7.23 3.01c-.41.54-.31 1.17-.02 1.55.26.35 1.04.68 1.9.39s2.54-1.16 5.35-1.18c2.81.02 4.49.89 5.35 1.18s1.64-.03 1.9-.39c.29-.38.39-1.01-.02-1.55zM87.48 49.82c-.93-1.23-3.07-3.01-7.23-3.01s-6.31 1.79-7.23 3.01c-.41.54-.31 1.17-.02 1.55.26.35 1.04.68 1.9.39s2.54-1.16 5.35-1.18c2.81.02 4.49.89 5.35 1.18s1.64-.03 1.9-.39c.29-.38.39-1.01-.02-1.55z"/></g><path d="M72.32 76.14c-3.15 1.87-13.46 1.87-16.61 0-1.81-1.07-3.65.57-2.9 2.21.74 1.61 6.37 5.36 11.23 5.36s10.42-3.75 11.16-5.36c.75-1.64-1.08-3.29-2.88-2.21z" fill="#473530"/></g><g clip-path="url(#b)"><linearGradient id="i" x1="64" x2="64" y1="-.333" y2="28.307" gradientUnits="userSpaceOnUse"><stop stop-color="#424242" offset=".003"/><stop stop-color="#353535" offset=".472"/><stop stop-color="#212121" offset="1"/></linearGradient><path d="M116 12C85.17 4.25 64 4 64 4s-21.17.25-52 8v.77c0 1.33.87 2.5 2.14 2.87 3.72 1.11 11.47 3.34 16.53 4.36 0 0-1.11 1.71-2 3.52 0 0 9.95 5.92 35.33 8.48 25.38-2.56 35.85-8.54 35.85-8.54-.88-1.82-1.97-3.46-1.97-3.46 4.5-.74 12.32-3.14 16.04-4.32 1.25-.4 2.09-1.55 2.09-2.86V12z" fill="url(#i)"/></g><linearGradient id="j" x1="64" x2="64" y1="-.167" y2="30.833" gradientUnits="userSpaceOnUse"><stop stop-color="#616161" offset=".003"/><stop stop-color="#505050" offset=".324"/><stop stop-color="#242424" offset=".955"/><stop stop-color="#212121" offset="1"/></linearGradient><path d="M64 4s-21.17.25-52 8c0 0 35.41 9.67 52 9.38 16.59.29 52-9.38 52-9.38-30.83-7.75-52-8-52-8z" clip-path="url(#b)" fill="url(#j)"/><g clip-path="url(#b)"><path d="M64 7c.94.02 19.38.43 46.22 6.69-3.84 1.18-9.42 2.79-12.83 3.35-1 .17-1.86.83-2.26 1.76-.41.93-.31 2.01.25 2.86 0 0 .11.16.27.42-4.46 1.81-14.57 5.15-31.65 6.9-16.99-1.74-26.83-5.03-31.15-6.82.2-.32.33-.52.33-.53.54-.83.64-1.88.25-2.8s-1.2-1.59-2.18-1.78c-3.85-.77-9.43-2.31-13.28-3.42C44.66 7.44 63.07 7.02 64 7m0-3s-21.17.25-52 8v.77c0 1.33.87 2.5 2.14 2.87 3.72 1.11 11.47 3.34 16.53 4.36 0 0-1.11 1.71-2 3.52 0 0 9.95 5.92 35.33 8.48 25.38-2.56 35.85-8.54 35.85-8.54-.88-1.82-1.97-3.46-1.97-3.46 4.5-.74 12.32-3.14 16.04-4.32 1.25-.4 2.09-1.55 2.09-2.86V12C85.17 4.25 64 4 64 4z" fill="#404042"/></g></svg>