<svg viewBox="0 0 128 128" xmlns="http://www.w3.org/2000/svg" xmlns:xlink="http://www.w3.org/1999/xlink"><defs><path id="a" d="M4 4h120v120H4z"/></defs><clipPath id="b"><use xlink:href="#a"/></clipPath><g clip-path="url(#b)"><radialGradient id="c" cx="-52.327" cy="-142.07" r="39.083" gradientTransform="matrix(.826 0 0 .8265 107.23 112.45)" gradientUnits="userSpaceOnUse"><stop stop-color="#6D4C41" offset="0"/><stop stop-color="#543930" offset="1"/></radialGradient><path d="M64.21 4.04c-26.94 0-26.73 24.93-26.73 25.33 0 16.15 1.23 38.95 7.69 47.93 2.56 3.56 7.51 3.75 7.51 3.75l11.15-.02 11.15.02s4.95-.2 7.51-3.75c6.46-8.97 7.69-31.78 7.69-47.93 0-.4.97-25.33-25.97-25.33z" fill="url(#c)"/><linearGradient id="d" x1="90.859" x2="90.859" y1="97.146" y2="127" gradientUnits="userSpaceOnUse"><stop stop-color="#FFB300" offset="0"/><stop stop-color="#FFCA28" offset=".401"/></linearGradient><path fill="url(#d)" d="M86.89 97.15h7.95V127h-7.95z"/><path d="M93.83 98.15V126h-5.95V98.15h5.95m2-2h-9.95V128h9.95V96.15z" fill="#EDA600"/><linearGradient id="e" x1="37.141" x2="37.141" y1="97.146" y2="127" gradientUnits="userSpaceOnUse"><stop stop-color="#FFB300" offset="0"/><stop stop-color="#FFCA28" offset=".401"/></linearGradient><path fill="url(#e)" d="M33.17 97.15h7.95V127h-7.95z"/><path d="M40.11 98.15V126h-5.95V98.15h5.95m2-2h-9.95V128h9.95V96.15z" fill="#EDA600"/><path d="M63.46 71.44c-2.44 0-4.42-1.96-4.42-4.37v-5.56h9.93v5.56c0 2.41-1.98 4.37-4.42 4.37h-1.09z" fill="#E59600"/><path d="M67.97 62.51v4.56c0 1.86-1.54 3.37-3.42 3.37h-1.08c-1.89 0-3.42-1.51-3.42-3.37v-4.56h7.92m2-2H58.03v6.56c0 2.97 2.43 5.37 5.42 5.37h1.08c3 0 5.42-2.41 5.42-5.37v-6.56h.02z" fill="#D18100"/><linearGradient id="f" x1="63.833" x2="63.833" y1="63.257" y2="13.423" gradientUnits="userSpaceOnUse"><stop stop-color="#FFB300" offset="0"/><stop stop-color="#FFB809" offset=".102"/><stop stop-color="#FFC21A" offset=".371"/><stop stop-color="#FFC825" offset=".659"/><stop stop-color="#FFCA28" offset="1"/></linearGradient><path d="M63.83 63.62c-1.47 0-3.15-.32-4.85-.92-7.34-2.6-15.91-10.6-15.91-24.58 0-18.63 11.19-25.24 20.77-25.24s20.77 6.61 20.77 25.24c0 14.01-8.59 22-15.94 24.59-1.71.6-3.37.91-4.84.91z" fill="url(#f)"/><path d="M63.83 13.88c9.12 0 19.77 6.35 19.77 24.24 0 13.49-8.23 21.17-15.27 23.65-1.59.56-3.14.85-4.49.85-1.36 0-2.92-.3-4.52-.87-7.03-2.49-15.25-10.18-15.25-23.64 0-17.89 10.64-24.23 19.76-24.23m0-2c-11.3 0-21.77 8.41-21.77 26.24 0 14.32 8.86 22.79 16.58 25.53 1.84.65 3.61.98 5.19.98 1.57 0 3.33-.32 5.16-.97 7.72-2.72 16.61-11.2 16.61-25.54 0-17.84-10.47-26.24-21.77-26.24z" fill="#ED9E00"/><radialGradient id="g" cx="-64.728" cy="-134.83" r="31.672" gradientTransform="matrix(.796 0 0 .7966 115.53 108.41)" gradientUnits="userSpaceOnUse"><stop stop-color="#6D4C41" offset="0"/><stop stop-color="#543930" offset="1"/></radialGradient><path d="M88.89 29.33s.67-23.39-24.84-23.39-24.94 23.39-24.94 23.39.22 29.9 2.1 33.79 4.73 3.75 4.73 3.75-1.34-17.45-1.49-25.67c-.04-1.92-.62-9.02 3.39-9.92 14.69-3.3 23-11.1 23-11.1 2.16 4.72 8.92 9.33 11.35 11.08 1.99 1.44 1.71 7.36 1.68 9.88l-2 25.68s3.08.25 5.02-3.71 2-33.78 2-33.78z" fill="url(#g)"/><path d="M66.5 46.03a.802.802 0 0 0-.21-.05H61.7c-.07.01-.14.03-.21.05-.42.17-.65.6-.45 1.06s1.11 1.75 2.95 1.75 2.76-1.29 2.95-1.75c.21-.46-.02-.89-.44-1.06z" fill="#E59600"/><ellipse cx="53.33" cy="39.99" rx="3.2" ry="3.31" fill="#404040"/><ellipse cx="74.67" cy="39.99" rx="3.2" ry="3.31" fill="#404040"/><path d="M58.08 34.04c-.61-.81-2.02-1.98-4.75-1.98s-4.14 1.17-4.75 1.98c-.27.36-.2.77-.01 1.02.17.23.68.45 1.25.25.56-.19 1.67-.76 3.52-.78 1.85.01 2.95.58 3.52.78.56.19 1.08-.02 1.25-.25.17-.25.24-.66-.03-1.02zM79.43 34.04c-.61-.81-2.02-1.98-4.75-1.98s-4.14 1.17-4.75 1.98c-.27.36-.2.77-.01 1.02.17.23.68.45 1.25.25.56-.19 1.67-.76 3.52-.78 1.85.01 2.95.58 3.52.78.56.19 1.08-.02 1.25-.25.17-.25.24-.66-.03-1.02z" fill="#6D4C41"/><path d="M69.3 51.39c-2.07 1.23-8.85 1.23-10.91 0-1.19-.71-2.4.37-1.91 1.45.48 1.06 4.18 3.52 7.38 3.52s6.85-2.46 7.33-3.52c.49-1.08-.7-2.16-1.89-1.45z" fill="#795548"/><path d="M45 70.17c-2.66-8.4-4.37-23.25-4.37-40.86 0-.4.05-9.82 6.42-16.21 4.05-4.06 9.87-6.11 17.32-6.11 7.38 0 13.1 2.02 17 6 6.02 6.14 6.01 15.22 5.99 16.24v.1c0 18.27-1.54 32.27-4.41 40.57.92.44 1.79.93 2.64 1.45 3.91-10.88 4.75-28.71 4.75-42.02.01-.4.98-25.33-25.97-25.33-26.94 0-26.72 24.93-26.72 25.33 0 12.93 1.07 31.35 4.7 42.3.84-.53 1.72-1.03 2.65-1.46z" fill="#3F2720"/></g><g clip-path="url(#b)"><path d="M33.5 127.03V88.4c0-9.31 7.37-16.61 19.71-19.54 4.28-1.02 8.35-1.51 12.42-1.51 2.85 0 5.74.25 8.61.75 9.79 1.69 20.25 7.91 20.25 20.31v38.64l-60.99-.02z" fill="#651FFF"/><path d="M65.63 68.85c2.76 0 5.57.24 8.36.72 5.59.96 10.31 3.14 13.66 6.28C91.2 79.2 93 83.42 93 88.4v37.14l-58-.01V88.4c0-12.69 14.2-17.05 18.56-18.08 4.16-.99 8.11-1.47 12.07-1.47m0-3c-4.4 0-8.62.57-12.77 1.55C41.63 70.07 32 77.04 32 88.4v40.12l64 .02V88.4c0-12.28-9.62-19.73-21.5-21.78-3.05-.52-5.99-.77-8.87-.77z" fill="#540EED"/><linearGradient id="h" x1="91" x2="91" y1="97.824" y2="127.82" gradientUnits="userSpaceOnUse"><stop stop-color="#FFB300" offset="0"/><stop stop-color="#FFCA28" offset=".401"/></linearGradient><path fill="url(#h)" d="M87 97.82h8v30h-8z"/><path d="M94 98.82v28h-6v-28h6m2-2H86v32h10v-32z" fill="#EDA600"/><linearGradient id="i" x1="37" x2="37" y1="97.824" y2="127.82" gradientUnits="userSpaceOnUse"><stop stop-color="#FFB300" offset="0"/><stop stop-color="#FFCA28" offset=".401"/></linearGradient><path fill="url(#i)" d="M33 97.82h8v30h-8z"/><path d="M40 98.82v28h-6v-28h6m2-2H32v32h10v-32z" fill="#EDA600"/></g><path clip-path="url(#b)" fill="none" d="M0 0h128v128H0z"/><g clip-path="url(#b)" opacity=".4"><radialGradient id="j" cx="63.333" cy="128.67" r="62.422" gradientUnits="userSpaceOnUse"><stop stop-color="#212121" offset="0"/><stop stop-color="#616161" stop-opacity="0" offset=".541"/></radialGradient><path d="M32 128.53l64 .02V88.4c0-12.28-9.62-19.73-21.5-21.78-7.71-1.33-14.78-.63-21.64 1C41.63 70.29 32 77.04 32 88.4v40.13z" fill="url(#j)"/></g><g clip-path="url(#b)"><path d="M43.18 138.12c-.09-2.59.01-10.89.1-16.18 0-9.41 12.59-12.37 16.15-12.37h9.52c3.56 0 16.13 2.96 16.13 12.35v.28c0 .04 0 .33.01.8.16 10.03.14 13.75.09 15.12h-42z" fill="#E1BEE7"/><path d="M68.96 110.57c3.34 0 15.13 2.72 15.13 11.35v.28c0 .05 0 .34.01.81.14 8.31.14 12.24.11 14.1H44.16c-.05-3.17.03-10.15.13-15.2 0-8.63 11.81-11.35 15.15-11.35h9.52m0-1.99h-9.52c-4.42 0-17.15 3.35-17.15 13.35 0 0-.31 17.2 0 17.2H86.1c.31 0 0-16.56 0-16.92v-.28c-.01-10-12.72-13.35-17.14-13.35z" fill="#CCA1D4"/><path d="M63.7 115.8c-2.09 0-3.79-1.7-3.79-3.79v-1.88h8.53v1.88c0 2.09-1.7 3.79-3.79 3.79h-.95z" fill="#E59600"/><path d="M67.95 110.63v1.38c0 1.81-1.47 3.29-3.29 3.29h-.96c-1.81 0-3.29-1.47-3.29-3.29v-1.38h7.54m1-1h-9.53v2.38a4.29 4.29 0 0 0 4.29 4.29h.96a4.29 4.29 0 0 0 4.29-4.29v-2.38h-.01z" fill="#D18100"/><defs><path id="k" d="M40.55 64.24h46.9v46.9h-46.9z"/></defs><clipPath id="l"><use xlink:href="#k"/></clipPath><g clip-path="url(#l)"><radialGradient id="m" cx="46.022" cy="99.42" r="11.336" gradientUnits="userSpaceOnUse"><stop stop-color="#6D4C41" offset="0"/><stop stop-color="#543930" offset=".901"/></radialGradient><path d="M45.58 111.08l.62-2.92-5.39 1.35s-.38-5.2 4.26-8.2c5.08-3.31 10.93.2 10.93.2s-.58 3.93-4.06 7.3c-2.34 2.28-6.36 2.27-6.36 2.27z" fill="url(#m)"/></g><g clip-path="url(#l)"><path d="M49.95 101.89c1.43 0 2.75.37 3.67.72-.44 1.23-1.34 3.09-3.08 4.77-.65.63-1.55 1.03-2.42 1.29l.02-.11.66-3.13-3.1.77-2.53.63c.41-1.26 1.25-2.76 2.97-3.87 1.12-.71 2.4-1.07 3.81-1.07m0-2c-1.56 0-3.27.36-4.89 1.41-4.64 3-4.26 8.2-4.26 8.2l5.39-1.35-.62 2.92c.08 0 4.05-.01 6.36-2.26 3.48-3.38 4.06-7.3 4.06-7.3s-2.7-1.62-6.04-1.62z" fill="#402720"/></g><g clip-path="url(#l)"><radialGradient id="n" cx="81.588" cy="99.615" r="11.336" gradientUnits="userSpaceOnUse"><stop stop-color="#6D4C41" offset="0"/><stop stop-color="#543930" offset=".901"/></radialGradient><path d="M82.68 111.08l-.62-2.92 5.39 1.35s.38-5.2-4.26-8.2c-5.09-3.29-10.94.22-10.94.22s.58 3.93 4.06 7.3c2.34 2.26 6.37 2.25 6.37 2.25z" fill="url(#n)"/></g><g clip-path="url(#l)"><path d="M78.3 101.89c1.41 0 2.69.37 3.8 1.09a7.122 7.122 0 0 1 2.97 3.87l-2.53-.63-3.1-.77.66 3.13.02.11c-.87-.26-1.78-.66-2.42-1.29a12.831 12.831 0 0 1-3.08-4.77c.94-.37 2.25-.74 3.68-.74m0-2c-3.34 0-6.05 1.63-6.05 1.63s.58 3.93 4.06 7.3c2.32 2.25 6.28 2.26 6.36 2.26l-.62-2.92 5.39 1.35s.38-5.2-4.26-8.2c-1.61-1.06-3.31-1.42-4.88-1.42z" fill="#402720"/></g><g clip-path="url(#l)"><path d="M49.46 99.84c-2.91 0-5.28-2.27-5.28-5.06s2.37-5.06 5.28-5.06h29.48c2.79 0 4.89 2.18 4.89 5.06 0 2.89-2.1 5.06-4.89 5.06H49.46z" fill="#E59600"/><path d="M78.94 90.21c2.5 0 4.39 1.96 4.39 4.56s-1.89 4.56-4.39 4.56H49.45c-2.64 0-4.78-2.05-4.78-4.56 0-2.52 2.14-4.56 4.78-4.56h29.49m0-1H49.45c-3.18 0-5.78 2.5-5.78 5.56s2.6 5.56 5.78 5.56h29.49c3.18 0 5.39-2.5 5.39-5.56-.01-3.06-2.22-5.56-5.39-5.56z" fill="#CC8600"/></g><g clip-path="url(#l)"><linearGradient id="o" x1="63.981" x2="63.981" y1="110.62" y2="78.892" gradientUnits="userSpaceOnUse"><stop stop-color="#FFB300" offset="0"/><stop stop-color="#FFB809" offset=".102"/><stop stop-color="#FFC21A" offset=".371"/><stop stop-color="#FFC825" offset=".659"/><stop stop-color="#FFCA28" offset="1"/></linearGradient><path d="M63.98 110.62c-7.09 0-17.07-6.35-17.07-20.45 0-13.12 7.5-23.4 17.07-23.4s17.07 10.28 17.07 23.4c0 14.1-9.98 20.45-17.07 20.45z" fill="url(#o)"/><path d="M63.98 67.27c8.15 0 16.57 8.56 16.57 22.9 0 13.76-9.69 19.95-16.57 19.95s-16.57-6.19-16.57-19.95c0-14.34 8.42-22.9 16.57-22.9m0-1c-9.33 0-17.57 9.8-17.57 23.9 0 14.02 9.87 20.95 17.57 20.95s17.57-6.93 17.57-20.95c0-14.11-8.24-23.9-17.57-23.9z" fill="#EDA600"/></g><path d="M78.97 42.22c1.59-2.56.78-5.64.78-5.64s-1.19 2.81-4.7 2.25c-.22-.04-.44-.07-.65-.09-2.6-1.24-5.94-2.17-10.28-2.17-19.05.03-20.56 16.25-19.78 23.38.26 2.36.51 2.94.51 2.94l3.44 2.91-.29-1.84-1.7-1.43-.31-2.41 18.23-10.3 18.03 12.75-2.31 1.55-.17 1.76 3.55-2.8s.21-2.91.22-3.14c.32-8.15-.27-12.61-4.57-17.72z" clip-path="url(#l)" fill="none"/><path d="M65.98 96.72a.471.471 0 0 0-.17-.04h-3.63c-.06.01-.11.02-.17.04-.33.13-.51.47-.35.84.16.36.88 1.38 2.34 1.38s2.18-1.02 2.34-1.38c.15-.37-.03-.71-.36-.84z" clip-path="url(#l)" fill="#E59600"/><g clip-path="url(#l)" fill="#6D4C41"><path d="M51.77 89.41s.07-.1.2-.26c.03-.04.06-.08.11-.13.06-.06.12-.11.19-.17s.14-.13.22-.19.16-.12.25-.18l.27-.18c.1-.05.2-.11.31-.17s.22-.11.34-.15c.12-.05.24-.09.36-.14.25-.07.52-.15.79-.18.27-.05.55-.06.84-.07.28.01.56.02.84.07.27.03.54.11.79.18.12.04.25.09.36.14.12.05.23.09.34.15s.21.11.31.17.19.12.27.18c.09.06.17.11.24.18.07.06.14.12.2.18s.12.11.17.16.09.11.13.15c.16.18.24.3.24.3.26.36.18.87-.18 1.13a.8.8 0 0 1-.73.11l-.15-.05s-.1-.03-.25-.1c-.04-.02-.08-.04-.13-.06l-.15-.06c-.11-.04-.23-.09-.36-.13-.07-.02-.13-.05-.2-.07l-.22-.06-.11-.03c-.04-.01-.08-.01-.12-.02-.08-.01-.16-.04-.24-.05-.17-.02-.34-.05-.51-.06-.17-.02-.35-.02-.53-.03-.18.01-.36 0-.53.03-.18.01-.35.04-.51.06-.08.01-.16.04-.24.05-.04.01-.08.01-.12.02s-.08.02-.11.03c-.08.02-.15.04-.22.06s-.14.05-.2.07c-.07.02-.13.04-.19.06-.05.02-.1.04-.15.05-.05.02-.09.03-.14.04-.05.02-.1.05-.15.07-.18.09-.29.14-.29.14a.83.83 0 0 1-1.09-.45c-.15-.27-.1-.57.05-.79zM75.23 90.64s-.11-.05-.29-.14c-.04-.02-.1-.05-.15-.07-.05-.01-.09-.03-.14-.04-.05-.02-.1-.03-.15-.05-.06-.02-.12-.04-.19-.06s-.13-.05-.2-.07l-.22-.06-.11-.03c-.04-.01-.08-.01-.12-.02-.08-.01-.16-.04-.24-.05-.17-.02-.34-.05-.51-.06-.17-.02-.35-.02-.53-.03-.18.01-.36 0-.53.03-.18.01-.35.04-.51.06-.08.01-.16.04-.24.05-.04.01-.08.01-.12.02s-.08.02-.11.03c-.08.02-.15.04-.22.06s-.14.05-.2.07c-.13.04-.25.08-.36.13l-.15.06c-.05.02-.09.04-.13.06-.15.07-.25.1-.25.1l-.14.05a.811.811 0 0 1-.92-1.24s.08-.11.24-.3c.04-.05.08-.1.13-.15s.11-.1.17-.16.13-.12.2-.18.16-.11.24-.18l.27-.18c.1-.05.2-.11.31-.17s.22-.11.34-.15c.12-.05.24-.09.36-.14.25-.07.52-.15.79-.18.27-.05.55-.06.84-.07.28.01.56.02.83.07.27.03.54.11.79.18.12.04.25.09.36.14.12.05.23.09.34.15s.21.11.31.17.19.12.27.18c.09.06.17.11.25.18l.22.19c.07.06.13.12.19.17.05.05.08.09.11.13.13.16.2.26.2.26.26.38.16.9-.22 1.15-.26.17-.56.19-.81.09z"/></g><g clip-path="url(#l)" fill="#404040"><ellipse cx="55.46" cy="94.07" rx="2.53" ry="2.62"/><ellipse cx="72.54" cy="94.07" rx="2.53" ry="2.62"/></g><path d="M68.3 101.05c-1.64.97-7 .97-8.64 0-.94-.56-1.9.3-1.51 1.15.38.84 3.31 2.79 5.84 2.79s5.42-1.95 5.8-2.79c.4-.85-.55-1.71-1.49-1.15z" clip-path="url(#l)" fill="#795548"/><g clip-path="url(#l)"><radialGradient id="p" cx="72.542" cy="33.572" r="24.009" gradientTransform="translate(-11.966 -1.45) scale(1.0432)" gradientUnits="userSpaceOnUse"><stop stop-color="#6D4C41" offset="0"/><stop stop-color="#543930" offset=".901"/></radialGradient><path d="M79.63 37.16c-2.33-2.43-4.54-3.46-4.76-3.49-2.71-1.24-6.2-2.18-10.72-2.18-19.87 0-21.25 16.27-20.45 23.4.7 6.29 3.98 7.84 3.98 7.84s-.64-5.49.4-9.47c.83-3.16 2.8-5.5 2.8-5.5s3.58 3.12 10.27 5.15c3.22.98 7.35.49 7.35.49l-2.32-4.1s3.78 2.79 6.14 3.32c3.02.68 5.24.39 5.24.39l-1.11-4.33s1.92 1.26 3.36 4.71.55 9.34.55 9.34 3.46-1.54 4.01-7.84c.69-7.89-.26-12.61-4.74-17.73z" fill="url(#p)"/><defs><path id="q" d="M79.63 37.16c-2.19-2.49-4.54-3.46-4.76-3.49-2.71-1.24-6.2-2.18-10.72-2.18-19.87 0-21.25 16.27-20.45 23.4.7 6.29 3.98 7.86 3.98 7.86v-1.54s-1.23-1.29-1.64-2.14c-.41-.83-.04-11.94-.04-11.94l18.03-4.81 17.92 4.81s.71 11.24.05 12.11-1.47 1.25-1.47 1.25l-.17 2.26s3.46-1.55 4.01-7.85c.69-7.89-.26-12.62-4.74-17.74z"/></defs><clipPath id="r"><use xlink:href="#q"/></clipPath><g clip-path="url(#r)"><path d="M64.15 34.49c3.52 0 6.71.64 9.47 1.91l.42.19.04.01c.62.32 2.11 1.22 3.29 2.54 2.88 3.29 4.11 6.31 4.19 11.05-1.5-2.61-3.1-3.77-3.47-4.01l-6.49-4.27 1.93 7.52.1.4c-.21-.04-.43-.08-.66-.13-1.18-.27-3.7-1.84-5.03-2.81l-11.28-8.31 6.64 11.76c-.48-.08-.91-.17-1.3-.29-5.9-1.79-9.15-4.52-9.17-4.54l-2.3-2-1.97 2.33c-.15.17-.99 1.2-1.85 2.79.38-2.98 1.4-6.45 3.85-9.19 2.95-3.28 7.52-4.95 13.59-4.95m0-3c-19.87 0-21.25 16.27-20.45 23.4.7 6.29 3.98 7.84 3.98 7.84s-.64-5.49.4-9.47c.83-3.16 2.8-5.5 2.8-5.5s3.58 3.12 10.27 5.15c1.61.49 3.44.61 4.87.61 1.44 0 2.48-.12 2.48-.12l-2.32-4.1s3.78 2.79 6.14 3.32c1.63.37 3.02.45 3.96.45.81 0 1.28-.06 1.28-.06l-1.11-4.33s1.92 1.26 3.36 4.71.55 9.34.55 9.34 3.46-1.54 4.01-7.84c.69-7.89-.25-12.62-4.74-17.74-1.98-2.21-4.54-3.46-4.76-3.49-2.71-1.23-6.2-2.17-10.72-2.17z" fill="#402720"/></g></g><path clip-path="url(#l)" fill="none" d="M72 85H50"/><g clip-path="url(#l)"><radialGradient id="s" cx="72.542" cy="66.32" r="24.009" gradientTransform="translate(-11.966 -2.864) scale(1.0432)" gradientUnits="userSpaceOnUse"><stop stop-color="#6D4C41" offset="0"/><stop stop-color="#543930" offset="1"/></radialGradient><path d="M79.63 69.91c-2.33-2.43-4.54-3.46-4.76-3.49-2.71-1.24-6.2-2.18-10.72-2.18-19.87 0-21.25 16.27-20.45 23.4.7 6.29 4.37 7.84 4.37 7.84l-.6-6.12s7.29-1.92 11.04-4.83S64 79.16 64 79.16s1.27 1.87 5.44 5.34 11.04 4.92 11.04 4.92l-.51 6.07s3.85-1.54 4.4-7.84c.69-7.9-.26-12.63-4.74-17.74z" fill="url(#s)"/><defs><path id="t" d="M79.63 69.99c-2.19-2.49-4.54-3.46-4.76-3.49-2.71-1.24-6.2-2.18-10.72-2.18-19.87 0-21.25 16.27-20.45 23.4.7 6.29 4.37 7.86 4.37 7.86l-.03-1.34-1.97-5.04c-.59-2.08-.61-4.29-.05-6.38l.77-2.87 17.24-10.39 17.13 10.39.79 3.2c.57 2.3.72 4.72-.08 6.95l-1.73 3.74-.18 1.74s3.85-1.55 4.4-7.85c.7-7.89-.25-12.62-4.73-17.74z"/></defs><clipPath id="u"><use xlink:href="#t"/></clipPath><g clip-path="url(#u)"><path d="M64.15 66.32c3.67 0 6.99.67 9.88 2l.28.13.06.01c.56.27 2.34 1.27 3.75 2.85 3.9 4.45 4.94 8.4 4.25 16.24-.04.43-.09.82-.16 1.2-.07-1.27-.23-2.49-.56-3.29-1.63-3.9-3.86-5.45-4.1-5.61L73.22 77l1.29 5.02.47 1.84c-.64-.06-1.4-.16-2.22-.35-1.41-.32-4.06-2-5.4-2.98L59.85 75l4.59 8.12.69 1.22c-1.31-.05-2.48-.23-3.4-.51-6.14-1.86-9.51-4.72-9.53-4.74l-1.53-1.34-1.31 1.56c-.09.11-2.27 2.73-3.2 6.28-.19.74-.33 1.53-.41 2.32a5.46 5.46 0 0 1-.05-.4c-.26-2.35-.74-10.43 4.15-15.9 3.12-3.51 7.93-5.29 14.3-5.29m0-2c-19.87 0-21.25 16.27-20.45 23.4.7 6.29 4.37 7.84 4.37 7.84s-1.03-5.49.01-9.47c.83-3.16 2.8-5.5 2.8-5.5s3.58 3.12 10.27 5.15c1.61.49 3.44.61 4.87.61 1.44 0 2.48-.12 2.48-.12l-2.32-4.1s3.78 2.79 6.14 3.32c1.63.37 3.02.45 3.96.45.81 0 1.28-.06 1.28-.06l-1.11-4.33s1.92 1.26 3.36 4.71c.76 1.81.3 7.54.3 7.54l-.15 1.86s3.85-1.6 4.4-7.9c.69-7.89-.25-12.62-4.74-17.74-1.98-2.21-4.54-3.46-4.76-3.49-2.7-1.23-6.19-2.17-10.71-2.17z" fill="#402720"/></g></g></g></svg>