<svg viewBox="0 0 128 128" xmlns="http://www.w3.org/2000/svg" xmlns:xlink="http://www.w3.org/1999/xlink"><path d="M28.08 93.91c-6.94 0-12.58-6.25-12.58-13.92s5.64-13.92 12.58-13.92h71.84c6.94 0 12.58 6.25 12.58 13.92s-5.64 13.92-12.58 13.92H28.08z" fill="#3C2B24"/><path d="M99.92 67.57c6.11 0 11.08 5.57 11.08 12.42s-4.97 12.42-11.08 12.42H28.08C21.97 92.41 17 86.84 17 79.99s4.97-12.42 11.08-12.42h71.84m0-3H28.08C20.34 64.57 14 71.51 14 79.99s6.34 15.42 14.08 15.42h71.84c7.75 0 14.08-6.94 14.08-15.42s-6.34-15.42-14.08-15.42z" fill="#291B16"/><linearGradient id="a" x1="64" x2="64" y1="122.57" y2="14.429" gradientUnits="userSpaceOnUse"><stop stop-color="#5C4037" offset="0"/><stop stop-color="#63463D" offset=".158"/><stop stop-color="#6D5047" offset=".533"/><stop stop-color="#70534A" offset="1"/></linearGradient><path d="M64 122.43c-27.45 0-42.56-17.95-42.56-50.54 0-19 2.88-32.73 8.79-42C37.05 19.23 48.09 14.04 64 14.04s26.95 5.18 33.77 15.85c5.92 9.26 8.79 23 8.79 42 0 32.59-15.11 50.54-42.56 50.54z" fill="url(#a)"/><path d="M64 15.54c28.78 0 41.06 16.85 41.06 56.35 0 31.63-14.58 49.04-41.06 49.04s-41.06-17.42-41.06-49.04c0-39.5 12.28-56.35 41.06-56.35m0-3c-34.67 0-44.06 24.33-44.06 59.35 0 34.83 17.06 52.04 44.06 52.04s44.06-17.22 44.06-52.04c0-35.02-9.39-59.35-44.06-59.35z" fill="#4A2F27"/><g fill="none" stroke="#4A2F27" stroke-linecap="round" stroke-linejoin="round" stroke-miterlimit="10" stroke-width="3"><path d="M42.98 57.87s8.69-3.44 20.69-3.44 21.36 3.44 21.36 3.44M49.03 49.46S56 47.25 64 47.25s14.97 2.21 14.97 2.21"/></g><g fill="none" stroke="#4A2F27" stroke-linecap="round" stroke-linejoin="round" stroke-miterlimit="10" stroke-width="3"><path d="M49.22 86.81c-3.48 2.94-9.13 2.94-12.62 0M91.4 86.81c-3.48 2.94-9.13 2.94-12.62 0"/></g><g fill="none" stroke="#4A2F27" stroke-linecap="round" stroke-linejoin="round" stroke-miterlimit="10" stroke-width="3"><path d="M50.16 94.28l-9.53 9.53M77.84 94.28l9.53 9.53"/></g><path d="M63.83 34.68c-14.23 0-26.24-6.66-26.24-14.54S49.61 5.6 63.83 5.6s26.24 6.66 26.24 14.54-12.01 14.54-26.24 14.54z" fill="#9E9E9E"/><path d="M63.83 7.1c13.41 0 24.74 5.97 24.74 13.04S77.25 33.18 63.83 33.18 39.09 27.2 39.09 20.14 50.42 7.1 63.83 7.1m0-3c-15.32 0-27.74 7.18-27.74 16.04s12.42 16.04 27.74 16.04S91.57 29 91.57 20.14C91.58 11.28 79.16 4.1 63.83 4.1z" fill="#80848A"/><path d="M95.75 65.29c-1.23-1.63-4.09-4.01-9.62-4.01s-8.39 2.38-9.62 4.01c-.55.72-.41 1.56-.03 2.06.35.47 1.39.9 2.53.51s3.38-1.54 7.12-1.57c3.74.03 5.98 1.18 7.12 1.57s2.18-.05 2.53-.51c.37-.5.51-1.34-.03-2.06z" fill="#9E9E9E"/><radialGradient id="b" cx="64.25" cy="8.178" r="48.002" gradientUnits="userSpaceOnUse"><stop stop-color="#E0E0E0" offset="0"/><stop stop-color="#9E9E9E" offset="1"/></radialGradient><path d="M100.62 27.22C91.75 17.49 69.01 11.65 64 16.82c-5.01-5.17-27.75.67-36.62 10.4-9.8 10.74-12.03 29.42-8.24 45.15.35 1.45 3.95 1.47 3.95-.02 0-10.35 8.17-23.83 19.66-27.08 5.54-1.57 17.69-1.98 21.25-9.08 3.56 7.11 15.71 7.52 21.25 9.08 11.49 3.25 19.66 16.48 19.66 27.08 0 1.49 3.6 1.47 3.95.02 3.79-15.73 1.56-34.41-8.24-45.15z" fill="url(#b)"/><path d="M51.89 65.29c-1.23-1.63-4.09-4.01-9.62-4.01s-8.39 2.38-9.62 4.01c-.55.72-.41 1.56-.03 2.06.35.47 1.39.9 2.53.51s3.38-1.54 7.12-1.57c3.74.03 5.98 1.18 7.12 1.57s2.18-.05 2.53-.51c.37-.5.51-1.34-.03-2.06z" fill="#9E9E9E"/><g fill="#1A1717"><ellipse cx="42.26" cy="77.34" rx="6.48" ry="6.71"/><ellipse cx="86.12" cy="77.34" rx="6.48" ry="6.71"/></g><path d="M69.07 89.56a1.63 1.63 0 0 0-.42-.11h-9.3c-.14.02-.28.05-.42.11-.84.34-1.31 1.22-.91 2.14.4.93 2.25 3.54 5.98 3.54s5.58-2.61 5.98-3.54-.06-1.8-.91-2.14z" fill="#33251F"/><defs><path id="c" d="M100.62 27.22C91.75 17.49 69.01 10.65 64 15.82c-5.01-5.17-27.75 1.67-36.62 11.4-9.8 10.74-12.03 29.42-8.24 45.15.35 1.45 3.1 1.03 3.1 1.03l-1.03-5.82 6.4-25.41 36.93-12.04 35.95 10.9 6.4 26.31-1.55 6.29s2.88 1.12 3.53-1.26c4.31-15.59 1.55-34.41-8.25-45.15z"/></defs><clipPath id="d"><use xlink:href="#c"/></clipPath><g clip-path="url(#d)"><path d="M57 14.9l.1 3c2.71 0 4.24.55 4.7 1.01.57.58 1.37.91 2.18.91s1.6-.33 2.17-.91c.45-.47 1.95-1.01 4.65-1.01 8.15 0 21.69 4.85 27.61 11.34 7.7 8.44 10.89 23.46 8.37 38.36-2.3-7.63-8-20.62-20.71-24.22-1.07-.3-2.33-.59-3.68-.9-5.35-1.22-13.42-3.07-15.71-7.64A3 3 0 0 0 64 33.18c-1.14 0-2.17.64-2.68 1.66-2.29 4.57-10.36 6.42-15.71 7.64-1.34.31-2.61.6-3.68.9-12.72 3.6-18.42 16.59-20.71 24.22-2.52-14.9.57-29.92 8.27-38.36C35.42 22.75 49 17.9 57 17.9V15m13.8-.1c-3.08 0-5.52.6-6.8 1.93-1.28-1.32-3.73-1.93-6.8-1.93-8.94 0-23.22 5.09-29.82 12.32-9.8 10.74-12.03 29.42-8.24 45.15.17.72 1.07 1.08 1.97 1.08.91 0 1.82-.37 1.98-1.1 2.18-10.21 8.17-22.83 19.66-26.08C48.29 44.7 60.44 43.29 64 36.18c3.56 7.11 15.71 8.52 21.25 10.08 11.49 3.25 17.48 15.87 19.66 26.08.16.73 1.07 1.1 1.98 1.1.9 0 1.8-.36 1.97-1.08 3.79-15.73 1.56-34.41-8.24-45.15-6.6-7.23-20.88-12.31-29.82-12.31z" fill="#80848A"/></g><path d="M75.01 99.97c-4.19 2.49-17.91 2.49-22.1 0-2.4-1.43-4.86.76-3.86 2.94.98 2.15 8.47 7.13 14.95 7.13 6.47 0 13.87-4.98 14.85-7.13.99-2.19-1.43-4.37-3.84-2.94z" fill="#1A1717"/></svg>