<svg viewBox="0 0 128 128" xmlns="http://www.w3.org/2000/svg" xmlns:xlink="http://www.w3.org/1999/xlink"><path d="M75.83 103.81c2.84-4.71 6.45-12.77 8.44-15.57 3.24-4.55 8.81-5.91 13.56-2.94 8.61 5.38 14.63 6.99 20.63 7.49 1.91.16 4.13.32 5.23 1.89.97 1.38.58 3.38-.48 4.7-3.02 3.74-9.56 4.43-13.19 4.77 1.12.62 2.96 1.84 2.4 3.36-1.21 3.29-10.22 4.23-14.48 4.35.65.34 2.72 2.15 2.05 3.31-1.51 2.64-9.93 3.51-14.1 2.83 0 0 2.53 2.35.95 3.81-2.85 2.63-10.78 2.84-14.86 1.58-4.11-1.28-5.18-3.22-5.62-5.31-.62-3.01 5.44-7.57 9.47-14.27z" fill="#F5F5F5"/><defs><path id="a" d="M75.83 103.81c2.84-4.71 6.45-12.77 8.44-15.57 3.24-4.55 8.81-5.91 13.56-2.94 8.61 5.38 14.63 6.99 20.63 7.49 1.91.16 4.13.32 5.23 1.89.97 1.38.58 3.38-.48 4.7-3.02 3.74-9.56 4.43-13.19 4.77 1.12.62 2.96 1.84 2.4 3.36-1.21 3.29-10.22 4.23-14.48 4.35.65.34 2.72 2.15 2.05 3.31-1.51 2.64-9.93 3.51-14.1 2.83 0 0 2.53 2.35.95 3.81-2.85 2.63-10.78 2.84-14.86 1.58-4.11-1.28-5.18-3.22-5.62-5.31-.62-3.01 5.44-7.57 9.47-14.27z"/></defs><clipPath id="b"><use xlink:href="#a"/></clipPath><path d="M111.73 104.14c-6.44-.01-14.65-2.55-15.69-2.83 1.23 1 5.93 2.93 7.34 3.39 3.24 1.06 7.45 1.64 10.84 1.27-.78-.73-1.55-1.36-2.49-1.83zM100.02 111.84c-2.34.07-4.87-.36-7.2-1.24-1.83-.69-3.84-1.44-5.65-2.21 1.1.78 4.15 3.02 6.1 3.75 4.93 1.84 7.71 1.48 8.6 1.44-.44-.42-1.31-1.44-1.85-1.74zM87.85 118.04c-3.72-.56-5.92-1.32-8.8-2.26.95.73 3 2.08 4.49 2.6 1.26.43 3.44 1.08 5.46 1.31-.23-.46-.92-1.3-1.15-1.65z" clip-path="url(#b)" fill="#BDBDBD"/><path d="M92.54 85.72c1.46 0 2.89.43 4.24 1.27 7.86 4.91 14.09 7.17 21.52 7.79l.11.01c1.45.12 3.1.26 3.64 1.03.37.53.2 1.56-.39 2.29-2.56 3.17-9.05 3.77-11.82 4.03-.87.08-1.59.72-1.77 1.58s.22 1.74.99 2.16c.93.51 1.29.89 1.42 1.06-.78 1.26-5.96 2.72-12.59 2.9-.91.03-1.69.65-1.9 1.54s.2 1.79 1 2.22c.25.15.67.54.94.87-1 .67-4.05 1.73-8.86 1.73-1.09 0-2.07-.07-2.85-.19-.11-.02-.21-.03-.32-.03-.75 0-1.46.43-1.8 1.12-.39.79-.21 1.75.44 2.34.27.25.63.72.77 1.03-1.29 1-4.17 1.64-7.46 1.64-1.99 0-3.91-.24-5.27-.66-3.41-1.06-3.96-2.4-4.25-3.8-.17-.81 2.1-3.52 3.6-5.3 1.81-2.16 3.87-4.61 5.62-7.52 1.37-2.27 2.87-5.21 4.32-8.06 1.58-3.09 3.06-6.01 4.04-7.39 1.66-2.31 4.08-3.65 6.63-3.66m0-2c-3.15 0-6.18 1.6-8.26 4.52-2 2.8-5.6 10.86-8.44 15.57-4.04 6.69-10.09 11.25-9.46 14.26.44 2.09 1.5 4.03 5.62 5.31 1.56.48 3.68.75 5.86.75 3.53 0 7.24-.7 9-2.33 1.58-1.46-.95-3.81-.95-3.81.9.15 1.99.22 3.17.22 4.3 0 9.74-.98 10.93-3.05.66-1.16-1.41-2.97-2.05-3.31 4.26-.12 13.27-1.06 14.48-4.35.56-1.52-1.28-2.74-2.4-3.36 3.63-.34 10.17-1.03 13.19-4.77 1.06-1.31 1.44-3.31.48-4.7-1.1-1.57-3.31-1.73-5.23-1.89-5.99-.5-12.02-2.11-20.63-7.49-1.72-1.06-3.54-1.57-5.31-1.57z" fill="#BDBDBD"/><path d="M52.73 103.81c-2.84-4.71-6.45-12.77-8.44-15.57-3.24-4.55-8.81-5.91-13.56-2.94-8.61 5.38-14.63 6.99-20.63 7.49-1.91.16-4.13.32-5.23 1.89-.97 1.38-.58 3.38.48 4.7 3.02 3.74 9.56 4.43 13.19 4.77-1.12.62-2.96 1.84-2.4 3.36 1.21 3.29 10.22 4.23 14.48 4.35-.65.34-2.72 2.15-2.05 3.31 1.51 2.64 9.93 3.51 14.1 2.83 0 0-2.53 2.35-.95 3.81 2.85 2.63 10.78 2.84 14.86 1.58 4.11-1.28 5.18-3.22 5.62-5.31.62-3.01-5.43-7.57-9.47-14.27z" fill="#F5F5F5"/><defs><path id="c" d="M52.73 103.81c-2.84-4.71-6.45-12.77-8.44-15.57-3.24-4.55-8.81-5.91-13.56-2.94-8.61 5.38-14.63 6.99-20.63 7.49-1.91.16-4.13.32-5.23 1.89-.97 1.38-.58 3.38.48 4.7 3.02 3.74 9.56 4.43 13.19 4.77-1.12.62-2.96 1.84-2.4 3.36 1.21 3.29 10.22 4.23 14.48 4.35-.65.34-2.72 2.15-2.05 3.31 1.51 2.64 9.93 3.51 14.1 2.83 0 0-2.53 2.35-.95 3.81 2.85 2.63 10.78 2.84 14.86 1.58 4.11-1.28 5.18-3.22 5.62-5.31.62-3.01-5.43-7.57-9.47-14.27z"/></defs><clipPath id="d"><use xlink:href="#c"/></clipPath><path d="M16.84 104.14c6.44-.01 14.65-2.55 15.69-2.83-1.23 1-5.93 2.93-7.34 3.39-3.24 1.06-7.45 1.64-10.84 1.27.78-.73 1.54-1.36 2.49-1.83zM28.54 111.84c2.34.07 4.87-.36 7.2-1.24 1.83-.69 3.84-1.44 5.65-2.21-1.1.78-4.15 3.02-6.1 3.75-4.93 1.84-7.71 1.48-8.6 1.44.45-.42 1.31-1.44 1.85-1.74zM40.72 118.04c3.72-.56 5.92-1.32 8.8-2.26-.95.73-3 2.08-4.49 2.6-1.26.43-3.44 1.08-5.46 1.31.23-.46.92-1.3 1.15-1.65z" clip-path="url(#d)" fill="#BDBDBD"/><path d="M36.03 85.72c2.55 0 4.96 1.34 6.63 3.68.98 1.37 2.47 4.29 4.04 7.39 1.45 2.85 2.95 5.79 4.32 8.06 1.75 2.91 3.81 5.36 5.62 7.52 1.5 1.79 3.77 4.49 3.6 5.3-.29 1.4-.84 2.75-4.25 3.8-1.35.42-3.27.66-5.27.66-3.29 0-6.17-.64-7.46-1.64.13-.29.46-.74.77-1.03.65-.6.83-1.55.44-2.34a2.006 2.006 0 0 0-1.8-1.12c-.11 0-.21.01-.32.03-.78.13-1.77.19-2.85.19-4.81 0-7.85-1.06-8.86-1.73.26-.33.68-.72.92-.86a1.995 1.995 0 1 0-.88-3.76c-6.63-.19-11.81-1.65-12.59-2.9.13-.17.49-.54 1.42-1.06.77-.42 1.17-1.3.99-2.16s-.9-1.5-1.77-1.58c-2.77-.26-9.25-.86-11.82-4.03-.59-.73-.77-1.76-.39-2.29.54-.77 2.19-.91 3.64-1.03l.11-.01c7.43-.62 13.66-2.88 21.52-7.79 1.35-.87 2.78-1.3 4.24-1.3m0-2c-1.78 0-3.59.51-5.3 1.58-8.61 5.38-14.63 6.99-20.63 7.49-1.91.16-4.13.32-5.23 1.89-.97 1.38-.58 3.38.48 4.7 3.02 3.74 9.56 4.43 13.19 4.77-1.12.62-2.96 1.84-2.4 3.36 1.21 3.29 10.22 4.23 14.48 4.35-.65.34-2.72 2.15-2.05 3.31 1.18 2.07 6.62 3.05 10.93 3.05 1.18 0 2.28-.07 3.17-.22 0 0-2.53 2.35-.95 3.81 1.76 1.63 5.47 2.33 9 2.33 2.18 0 4.3-.27 5.86-.75 4.11-1.28 5.18-3.22 5.62-5.31.63-3.01-5.43-7.57-9.46-14.26-2.84-4.71-6.45-12.77-8.44-15.57-2.09-2.92-5.12-4.53-8.27-4.53z" fill="#BDBDBD"/><path d="M54.02 91.87s.38.1 1.03.3c.16.05.33.11.52.17.16.03.32.07.5.1l1.2.27c.46.11.96.2 1.48.29.51.12 1.08.14 1.64.25.57.05 1.15.12 1.75.15.59.07 1.2.04 1.8.07.6-.02 1.21 0 1.8-.06.6-.02 1.18-.09 1.75-.15.55-.12 1.13-.13 1.64-.25.52-.1 1.02-.18 1.48-.3.92-.2 1.71-.4 2.25-.56.55-.16.89-.23.89-.23l.44-.1c1.6-.36 3.24.45 3.66 1.82.27.87-.04 1.77-.71 2.39 0 0-.3.28-.88.74-.29.24-.65.51-1.1.78-.44.29-.94.61-1.55.89-.58.31-1.24.61-1.97.87-.72.29-1.51.51-2.34.73-.84.17-1.71.39-2.61.47-.9.12-1.83.14-2.76.18-.93-.03-1.85-.06-2.76-.18-.91-.07-1.78-.3-2.62-.46-.83-.22-1.63-.43-2.34-.73-.73-.26-1.39-.55-1.97-.87-.58-.27-1.13-.61-1.61-.92-.24-.15-.46-.29-.65-.43-.15-.13-.29-.24-.41-.34-.48-.42-.74-.67-.74-.67-1.11-1.09-.98-2.74.29-3.69.82-.61 1.92-.78 2.9-.53z" fill="#F68223"/><path d="M11.73 19.43L10.1 29.62 30 42.83 64.17 45l53.33-9.83-1.17-18.83-12.11-2.22s-.43 1.49-.97 2.61c-.53 1.11-.95 1.76-.95 1.76l1.77 2.2-39.91 8.65-41.04-6.72s3.4-4.61 8.66-8.88c3.35-2.72 7-4.36 6.25-4.28-9.17 1.07-26.3 9.97-26.3 9.97z" fill="none"/><path d="M29.99 94.18c-6.55 0-11.88-4.65-11.88-10.37s5.33-10.37 11.88-10.37h68.25c6.55 0 11.88 4.65 11.88 10.37s-5.33 10.37-11.88 10.37H29.99z" fill="#EDC391"/><path d="M98.23 74.94c5.72 0 10.38 3.98 10.38 8.87s-4.66 8.87-10.38 8.87H29.99c-5.72 0-10.38-3.98-10.38-8.87s4.66-8.87 10.38-8.87h68.24m0-3H29.99c-7.36 0-13.38 5.34-13.38 11.87s6.02 11.87 13.38 11.87h68.24c7.36 0 13.38-5.34 13.38-11.87s-6.02-11.87-13.38-11.87z" fill="#D9AC77"/><linearGradient id="e" x1="63.852" x2="63.852" y1="118.93" y2="21.443" gradientUnits="userSpaceOnUse"><stop stop-color="#FFD29C" offset="0"/><stop stop-color="#FFD39E" offset=".024"/><stop stop-color="#FCD8AF" offset=".316"/><stop stop-color="#FADCBA" offset=".629"/><stop stop-color="#F9DDBD" offset="1"/></linearGradient><path d="M63.85 118.93c-10.59 0-20.41-4-27.64-11.25-8.18-8.21-12.51-20.03-12.51-34.2 0-14.52 4.4-27.89 12.38-37.66 7.46-9.13 17.58-14.37 27.77-14.37s20.31 5.24 27.77 14.37C99.6 45.58 104 58.96 104 73.48c0 14.16-4.32 25.99-12.5 34.2-7.24 7.25-17.06 11.25-27.65 11.25z" fill="url(#e)"/><path d="M63.85 22.94c9.73 0 19.43 5.04 26.61 13.82 7.76 9.5 12.04 22.54 12.04 36.71 0 13.76-4.17 25.22-12.07 33.14-6.95 6.97-16.39 10.81-26.58 10.81s-19.63-3.84-26.58-10.81c-7.9-7.92-12.07-19.38-12.07-33.14 0-14.17 4.28-27.21 12.04-36.71 7.18-8.78 16.88-13.82 26.61-13.82m0-3c-21.62 0-41.65 21.95-41.65 53.53 0 31.42 20.63 46.95 41.65 46.95s41.65-15.53 41.65-46.95c0-31.58-20.03-53.53-41.65-53.53z" fill="#EDBD82"/><path d="M68.54 88.17c-.13-.05-.26-.08-.39-.09h-8.51c-.13.02-.26.05-.39.09-.77.3-1.2 1.06-.83 1.88.37.81 2.06 3.1 5.47 3.1 3.42 0 5.11-2.29 5.47-3.1.37-.82-.05-1.58-.82-1.88z" fill="#DBA689"/><radialGradient id="f" cx="44.348" cy="71.199" r="7.127" gradientUnits="userSpaceOnUse"><stop stop-color="#454140" offset=".09"/><stop stop-color="#454140" offset="1"/></radialGradient><path d="M35.23 71.79s.16-.22.46-.58c.08-.09.15-.19.26-.3.13-.12.28-.25.44-.39s.34-.28.52-.43c.18-.14.37-.26.57-.4.2-.13.41-.28.64-.41.23-.12.48-.24.72-.37.25-.13.52-.24.79-.34.28-.11.56-.21.85-.31.59-.16 1.21-.34 1.85-.41.64-.12 1.3-.13 1.96-.16.66.03 1.32.04 1.96.16.64.07 1.26.25 1.85.41.29.1.58.2.85.31.28.1.54.21.79.34s.49.25.72.37c.23.13.44.27.64.41s.4.26.57.4.33.28.48.4c.15.13.29.24.41.36s.22.24.31.34c.37.41.56.66.56.66.61.81.42 1.94-.43 2.52-.52.36-1.16.43-1.72.24l-.35-.12s-.23-.08-.59-.23c-.09-.04-.19-.09-.3-.13-.12-.03-.23-.08-.36-.13-.25-.1-.53-.2-.84-.28-.16-.04-.31-.11-.48-.15s-.34-.08-.52-.13c-.09-.02-.18-.05-.26-.07-.09-.02-.19-.03-.28-.05-.19-.03-.37-.08-.57-.11-.4-.04-.79-.12-1.2-.14-.41-.05-.83-.04-1.24-.06-.42.02-.84.01-1.24.06-.41.02-.81.1-1.2.14-.19.03-.38.08-.57.11-.09.02-.19.03-.28.05s-.18.05-.26.07c-.18.04-.35.09-.52.13s-.32.1-.48.15c-.15.05-.3.09-.44.13-.12.04-.24.08-.35.12s-.22.07-.33.1c-.12.04-.24.12-.35.16-.43.21-.69.31-.69.31-.99.39-2.13-.06-2.54-1.01-.25-.58-.16-1.24.19-1.74z" fill="url(#f)"/><radialGradient id="g" cx="83.435" cy="71.199" r="7.128" gradientUnits="userSpaceOnUse"><stop stop-color="#454140" offset=".09"/><stop stop-color="#454140" offset="1"/></radialGradient><path d="M90.19 74.55s-.26-.1-.69-.31c-.1-.05-.23-.12-.35-.16-.11-.03-.21-.06-.33-.1-.11-.04-.23-.08-.35-.12-.14-.04-.29-.09-.44-.13-.16-.04-.31-.11-.48-.15s-.34-.08-.52-.13c-.09-.02-.18-.05-.26-.07-.09-.02-.19-.03-.28-.05-.19-.03-.37-.08-.57-.11-.39-.04-.79-.12-1.2-.14-.41-.05-.83-.04-1.24-.06-.42.02-.84.01-1.24.06-.41.02-.81.1-1.2.14-.19.03-.38.08-.57.11-.09.02-.19.03-.28.05s-.18.05-.26.07c-.18.04-.35.09-.52.13s-.32.1-.48.15c-.32.09-.59.19-.84.28-.13.05-.24.09-.36.13-.11.04-.21.09-.3.13-.36.16-.59.23-.59.23l-.34.11c-.99.33-2.06-.17-2.41-1.11-.21-.57-.09-1.19.25-1.65 0 0 .19-.25.56-.66.09-.1.19-.22.31-.34s.26-.23.41-.36.31-.26.48-.4.37-.26.57-.4c.2-.13.41-.28.64-.41.23-.12.48-.24.72-.37.25-.13.52-.24.79-.34.28-.11.56-.21.85-.31.59-.16 1.21-.34 1.85-.41.64-.12 1.3-.13 1.96-.16.66.03 1.32.04 1.96.16.64.07 1.26.25 1.85.41.29.1.58.2.85.31.28.1.54.21.79.34s.49.25.72.37c.23.13.44.27.64.41s.39.25.57.4.36.3.52.43c.16.14.31.26.44.39.11.12.18.21.26.3.3.36.46.58.46.58.61.85.38 2.01-.51 2.59-.56.36-1.26.4-1.84.17z" fill="url(#g)"/><g fill="#312D2D"><ellipse cx="43.88" cy="82.22" rx="5.93" ry="5.87"/><ellipse cx="83.9" cy="82.22" rx="5.93" ry="5.87"/></g><radialGradient id="h" cx="12.805" cy="20.063" r="60.289" gradientTransform="translate(49.323 -1.596) scale(1.0795)" gradientUnits="userSpaceOnUse"><stop stop-color="#454140" offset="0"/><stop stop-color="#312D2D" offset="1"/></radialGradient><path d="M64.24 15.41c-46.08 0-49.27 36.46-47.42 52.43 1.63 14.09 9.23 17.57 9.23 17.57s-1.49-12.3.92-21.22c1.91-7.07 6.48-12.32 6.48-12.32s8.31 6.99 23.81 11.54C64.73 65.6 74.3 64.5 74.3 64.5l-5.37-9.19s8.78 6.25 14.24 7.44c7 1.53 12.14.88 12.14.88l-2.57-9.7s4.45 2.83 7.79 10.56 1.27 20.92 1.27 20.92 8.01-3.45 9.29-17.57c1.62-17.69-.98-52.43-46.85-52.43z" fill="url(#h)"/><defs><path id="i" d="M64.24 15.41c-46.08 0-49.27 36.46-47.42 52.43 1.63 14.09 9.23 17.62 9.23 17.62v-3.45s-2.85-2.88-3.79-4.78c-.95-1.9-.09-26.79-.09-26.79l41.79-10.77 41.54 10.77s1.65 25.18.12 27.13-3.41 2.81-3.41 2.81l-.4 5.06s8.01-3.46 9.29-17.58c1.61-17.7-1.14-52.45-46.86-52.45z"/></defs><clipPath id="j"><use xlink:href="#i"/></clipPath><g clip-path="url(#j)"><path d="M64.24 18.41c15.39 0 26.93 4.1 34.31 12.17 10.23 11.21 10.39 27.98 9.57 36.98-.4 4.35-1.47 7.52-2.68 9.8.06-4.49-.35-9.9-2.14-14.07-3.66-8.48-8.72-11.77-8.93-11.9l-6.48-4.13 1.97 7.43 1.61 6.06c-1.91-.05-4.58-.27-7.63-.93-3.98-.87-10.84-5.32-13.14-6.96l-11.37-8.08 7.04 12.04 2.89 4.95h-.68c-4.06 0-7.68-.43-10.45-1.24-14.62-4.28-22.64-10.89-22.72-10.95l-2.26-1.9-1.95 2.22c-.21.24-5.05 5.85-7.12 13.5-1.21 4.46-1.51 9.62-1.48 13.87-1.2-2.29-2.3-5.46-2.8-9.78-.61-5.3-1.74-23.56 9.58-36.26 7.57-8.51 19.3-12.82 34.86-12.82m0-3c-46.08 0-49.27 36.46-47.42 52.43 1.63 14.09 9.23 17.57 9.23 17.57s-1.49-12.3.92-21.22c1.91-7.07 6.48-12.32 6.48-12.32s8.31 6.99 23.81 11.54c3.73 1.09 7.97 1.37 11.3 1.37 3.34 0 5.75-.28 5.75-.28l-5.37-9.19s8.78 6.25 14.24 7.44c3.77.83 7 1.02 9.18 1.02 1.87 0 2.96-.14 2.96-.14l-2.57-9.7s4.45 2.83 7.79 10.56 1.27 20.92 1.27 20.92 8.01-3.45 9.29-17.57c1.61-17.69-1.14-52.43-46.86-52.43z" fill="#1F1A1A"/></g><path d="M63.79 34.8c-25.1 0-41.96-7.58-41.96-14.65S38.69 5.5 63.79 5.5s41.96 7.57 41.96 14.65c0 7.07-16.86 14.65-41.96 14.65zm0-25.5c-12.58 0-26.13 2.52-26.13 8.04 0 5.53 13.55 8.05 26.13 8.05s26.11-2.52 26.11-8.05c0-5.52-13.53-8.04-26.11-8.04z" fill="#40BFE6"/><path d="M63.79 7c25.06 0 40.46 7.66 40.46 13.15S88.86 33.3 63.79 33.3s-40.46-7.66-40.46-13.15S38.72 7 63.79 7m0 19.89c6.83 0 13.28-.72 18.17-2.02 6.26-1.67 9.44-4.2 9.44-7.53s-3.18-5.86-9.44-7.52C77.07 8.52 70.61 7.8 63.79 7.8c-6.83 0-13.29.72-18.18 2.02-6.27 1.67-9.45 4.2-9.45 7.52 0 3.33 3.18 5.86 9.45 7.53 4.89 1.31 11.35 2.02 18.18 2.02m0-22.89c-24 0-43.46 7.23-43.46 16.15 0 8.93 19.46 16.15 43.46 16.15s43.46-7.23 43.46-16.15S87.8 4 63.79 4zm0 19.89c-13.6 0-24.63-2.93-24.63-6.55 0-3.61 11.03-6.54 24.63-6.54 13.59 0 24.61 2.93 24.61 6.54 0 3.62-11.02 6.55-24.61 6.55z" fill="#2CACD4"/><path d="M75.01 97.97c-4.19 2.49-17.91 2.49-22.1 0-2.4-1.43-4.86.76-3.86 2.94.98 2.15 8.47 7.13 14.95 7.13 6.47 0 13.87-4.98 14.85-7.13.99-2.19-1.43-4.37-3.84-2.94z" fill="#424242"/></svg>