<svg viewBox="0 0 128 128" xmlns="http://www.w3.org/2000/svg"><linearGradient id="a" x1="62.167" x2="62.167" y1="2.799" y2="47.11" gradientTransform="rotate(-45.001 64.186 60.87)" gradientUnits="userSpaceOnUse"><stop stop-color="#E53935" offset=".365"/><stop stop-color="#C62828" offset=".827"/></linearGradient><path d="M103.64 11.64C83.87 5.9 50.19 5.03 40.92 14.3c-5.55 5.55-7.28 18.53-7.27 18.54-.07.06-.39.38-.4.38 0 0-.13.14-.19.21-.01-.01-13.01 1.75-18.56 7.3-8.72 8.72-8.42 42.38-2.68 62.16 1.69 5.81 6.46 7.55 12.45 1.55C35.6 93.11 30.4 77.3 46.52 67.97l2.51-.84c4.19-1.52 7.56-3.67 10.73-6.99.06-.06.2-.21.2-.21s.33-.32.39-.38c3.32-3.17 5.66-6.72 7.18-10.91l.84-2.51C77.69 30 93.5 35.21 104.83 23.87c6-5.99 4.63-10.55-1.19-12.23z" fill="url(#a)"/><linearGradient id="b" x1="106.57" x2="65.904" y1="104.27" y2="66.267" gradientUnits="userSpaceOnUse"><stop stop-color="#E53935" offset=".365"/><stop stop-color="#C62828" offset=".827"/></linearGradient><path d="M104.51 27.95c-24.41 14.19-19.4 34.4-30 45-10.56 10.56-29.64 8.23-45.33 32.33-9.33 14.33 42 27.33 72.67-3.33s17-82.33 2.66-74z" fill="url(#b)"/><path d="M70.54 10.32c11.15 0 23.21 1.57 32.27 4.2 1.6.46 2.67 1.19 2.86 1.94.23.89-.43 2.75-2.96 5.29-4.4 4.4-9.64 6.04-15.18 7.77-7.45 2.33-15.9 4.97-21.76 15.09-.1.17-.18.36-.25.55l-.83 2.47c-1.36 3.72-3.46 6.91-6.42 9.73l-.07.07c-.05.05-.15.14-.22.21-.04.04-.09.08-.14.14-.05.04-.09.09-.13.14l-.06.07-.06.06c-2.78 2.92-5.73 4.84-9.54 6.23l-2.48.83c-.19.06-.37.15-.55.25-10.12 5.86-12.76 14.31-15.09 21.76-1.73 5.54-3.37 10.78-7.77 15.19-2.58 2.58-4.22 2.86-4.81 2.86-1.51 0-2.3-1.96-2.64-3.12-2.74-9.43-4.25-22.58-3.96-34.31.3-12.2 2.5-21.5 5.88-24.89 4-4 13.68-6.03 16.78-6.44.67-.08 1.31-.38 1.79-.87.07-.07.14-.15.23-.24.12-.11.23-.22.34-.33.49-.48.79-1.12.87-1.79.4-3.1 2.42-12.76 6.41-16.76 3.81-3.82 14.09-6.1 27.49-6.1m0-3c-12.93 0-24.71 2.06-29.62 6.97-5.55 5.55-7.28 18.53-7.27 18.54-.07.06-.39.38-.4.38 0 0-.13.14-.19.21-.05 0-13.02 1.76-18.56 7.3-8.72 8.72-8.42 42.38-2.68 62.16.96 3.3 2.91 5.29 5.52 5.29 1.98 0 4.34-1.15 6.93-3.73C35.6 93.11 30.4 77.3 46.52 67.97l2.51-.84c4.19-1.52 7.56-3.63 10.73-6.95.06-.06.19-.16.19-.16s.33-.36.39-.43c3.32-3.17 5.66-6.74 7.18-10.93l.84-2.52c9.33-16.11 25.13-10.91 36.47-22.24 5.99-5.99 4.62-10.55-1.19-12.24-9.28-2.72-21.65-4.34-33.1-4.34z" fill="#424242" opacity=".2"/><path d="M69.48 104.2c.65 2.98-1.37 6.66-3.85 6.82s-3.68-1.01-4.46-4.48c-.95-4.28-.19-12.41 1.4-12.78 1.6-.37 5.75 5.16 6.91 10.44zM25.7 50.47c-2.72-1.39-4.29-5.27-2.85-7.28s3.1-2.19 6.28-.59c3.91 1.98 9.73 7.71 9.01 9.17s-7.62 1.16-12.44-1.3zM85.51 92.44c2.5 2.41 2.66 6.19 1.52 7.45-.97 1.06-3.54 2.31-5.43-.74-2.01-3.24-4.89-10.27-3.96-11.12s4.68 1.34 7.87 4.41z" fill="#EF5350"/><path d="M22.1 69.36c-3.04-.07-6.32-1.14-6.4-3.21-.07-1.75 1.81-3.86 5.34-3.23 3.75.67 9.91 2.21 9.85 3.77-.05 1.54-4.28 2.78-8.79 2.67z" fill="#D32F2F"/><path d="M62.94 18.42c-.95-2.9-4.54-5.06-6.74-3.95-2.21 1.11-2.65 2.72-1.56 6.11 1.34 4.17 6.1 10.81 7.65 10.33 1.55-.49 2.33-7.35.65-12.49z" fill="#F44336"/><path d="M81.76 18.83c.4-3.01-.14-6.42-2.17-6.82-1.72-.34-4.1 1.18-4.03 4.77.07 3.81.64 10.14 2.18 10.32 1.55.19 3.43-3.8 4.02-8.27zM53.13 108.36c.32 3.02-.32 6.41-2.37 6.75-1.73.29-4.06-1.3-3.89-4.88.18-3.81 2.04-10.15 3.59-10.29 1.54-.14 2.2 3.93 2.67 8.42z" fill="#D32F2F"/><path d="M102.12 74.91c2.82 1.18 4.58 5.05 3.21 7.26s-3.05 2.56-6.34 1.2c-4.06-1.68-10.21-7.07-9.54-8.64.66-1.58 7.67-1.91 12.67.18z" fill="#EF5350"/><path d="M108.31 42.74c2.98-.59 6.41-.26 6.94 1.74.44 1.69-.93 4.16-4.51 4.32-3.81.16-10.16-.01-10.44-1.54-.28-1.52 3.58-3.65 8.01-4.52z" fill="#D32F2F"/><path d="M107.63 30.05c2.11 0 4.58 2.8 6.44 7.3 5.85 14.13 5.27 42.86-14.34 62.47-11.34 11.34-27.49 17.85-44.3 17.85-12.9 0-21.99-3.92-23.99-7.61-.4-.74-.69-1.7.26-3.15 9.36-14.37 19.95-18.83 29.29-22.75 5.82-2.45 11.31-4.75 15.65-9.1 4.47-4.47 6.4-10.22 8.43-16.31 3.28-9.79 6.66-19.91 20.95-28.22.57-.32 1.09-.48 1.61-.48m0-3c-1.02 0-2.07.29-3.11.9-24.41 14.19-19.4 34.4-30 45-10.56 10.56-29.64 8.23-45.33 32.33-5.14 7.9 8.15 15.4 26.24 15.4 14.74 0 32.66-4.97 46.42-18.73 28.42-28.43 18.76-74.9 5.78-74.9z" fill="#424242" opacity=".2"/><circle cx="26.42" cy="45.84" r="4" fill="#EF9A9A"/><circle cx="61.42" cy="25.84" r="2" fill="#EF5350"/><circle cx="50.42" cy="110.84" r="2" fill="#EF9A9A"/><ellipse transform="rotate(-8.128 65.429 104.847)" cx="65.42" cy="104.84" rx="4" ry="4" fill="#EF9A9A"/><circle cx="57.88" cy="17.39" r="3" fill="#EF9A9A"/><circle cx="19.88" cy="63.39" r="3" fill="#EF5350"/></svg>