<svg viewBox="0 0 128 128" xmlns="http://www.w3.org/2000/svg" xmlns:xlink="http://www.w3.org/1999/xlink"><symbol id="o" viewBox="-64.5 -64.5 129 129"><g fill="none" stroke="#4285F4" stroke-miterlimit="10"><path d="M-64-64H64V64H-64z"/><path d="M36.95 37.82C27.32 46.32 14.2 51 0 51c-14.27 0-27.39-4.62-36.96-13.01C-47.45 28.79-53 15.65-53 0c0-15.58 5.55-28.69 16.04-37.92C-27.36-46.35-14.24-51 0-51c14.17 0 27.29 4.71 36.95 13.25C47.45-28.45 53-15.4 53 0c0 15.47-5.55 28.55-16.05 37.82z"/><path d="M0 55c-29.59 0-57-19.01-57-55 0-35.8 27.41-55 57-55S57-35.31 57 0c0 35.51-27.41 55-57 55z"/><path d="M0-43c-12.29 0-23.54 3.94-31.68 11.09C-40.39-24.25-45-13.21-45 0c0 29.7 22.6 43 45 43 21.67 0 45-13.46 45-43S21.67-43 0-43zM-.01 51V-51M-16 48.95v-97.88M15.99 48.91v-97.84M53 .08H-53"/></g></symbol><defs><path id="a" d="M19.67 0H111v54.67H19.67z"/></defs><clipPath id="b"><use xlink:href="#a"/></clipPath><g clip-path="url(#b)"><path d="M64.13 69.43l32.21-47.6-.34-.01v-.02L81.57 4h-34.7L31 21.77v.02l.36.04 32.38 47.4.26.24.08-.03L64 69l.13.43z" fill="#81D4FA"/><linearGradient id="c" x1="31.752" x2="96.669" y1="36.984" y2="36.984" gradientUnits="userSpaceOnUse"><stop stop-color="#81D4FA" offset=".001"/><stop stop-color="#29B6F6" offset="1"/></linearGradient><path fill="url(#c)" d="M64.1 69.47L31.75 21.83 46.87 4.5h34.7l15.1 17.33z"/><path fill="none" d="M64.21 4.47l-.03.03h.06z"/><linearGradient id="d" x1="63.993" x2="63.993" y1="69.446" y2="21.81" gradientUnits="userSpaceOnUse"><stop stop-color="#81D4FA" offset="0"/><stop stop-color="#7DD3FA" offset=".221"/><stop stop-color="#72CFF9" offset=".431"/><stop stop-color="#5EC8F8" offset=".638"/><stop stop-color="#44BFF7" offset=".841"/><stop stop-color="#29B6F6" offset="1"/></linearGradient><path fill="url(#d)" d="M64.09 69.45l12.89-47.64-25.97.02z"/><path fill="#81D4FA" d="M76.98 21.81h.21l-.16-.21z"/><linearGradient id="e" x1="79.776" x2="79.776" y1="69.455" y2="21.808" gradientUnits="userSpaceOnUse"><stop stop-color="#039BE5" offset="0"/><stop stop-color="#0398E2" offset=".369"/><stop stop-color="#0390D9" offset=".638"/><stop stop-color="#0282C9" offset=".874"/><stop stop-color="#0277BD" offset="1"/></linearGradient><path fill="url(#e)" d="M96 21.82l-19.38-.01-13.07 47.65L96 21.83z"/><linearGradient id="f" x1="47.92" x2="47.92" y1="69.455" y2="21.791" gradientUnits="userSpaceOnUse"><stop stop-color="#29B6F6" offset="0"/><stop stop-color="#25B3F4" offset=".331"/><stop stop-color="#1AABEF" offset=".646"/><stop stop-color="#079EE7" offset=".954"/><stop stop-color="#039BE5" offset="1"/></linearGradient><path fill="url(#f)" d="M51.13 22.13l-.47.63.47-.63-.09-.33-19.26-.01-.03.04 32.34 47.63z"/><linearGradient id="g" x1="45.517" x2="41.329" y1="5.255" y2="22.007" gradientUnits="userSpaceOnUse"><stop stop-color="#B3E5FC" offset=".005"/><stop stop-color="#4FC3F7" offset="1"/></linearGradient><path fill="url(#g)" d="M51.2 21.81L46.87 4.52 31.55 21.83z"/><linearGradient id="h" x1="86.902" x2="86.902" y1="6.123" y2="22.365" gradientUnits="userSpaceOnUse"><stop stop-color="#81D4FA" offset=".009"/><stop stop-color="#29B6F6" offset="1"/></linearGradient><path fill="url(#h)" d="M77.07 21.81l4.34-17.29 15.32 17.31z"/><linearGradient id="i" x1="64.017" x2="64.017" y1="6.14" y2="21.846" gradientUnits="userSpaceOnUse"><stop stop-color="#E1F5FE" offset="0"/><stop stop-color="#D3F0FD" offset=".275"/><stop stop-color="#B3E5FC" offset="1"/></linearGradient><path fill="url(#i)" d="M51.06 22L64.07 4.68 76.98 22z"/><linearGradient id="j" x1="55.467" x2="55.467" y1="4.727" y2="22.535" gradientUnits="userSpaceOnUse"><stop stop-color="#81D4FA" offset=".009"/><stop stop-color="#29B6F6" offset="1"/></linearGradient><path fill="url(#j)" d="M64.21 4.49L51.2 21.83 46.72 4.47z"/><linearGradient id="k" x1="64.067" x2="81.554" y1="13.149" y2="13.149" gradientUnits="userSpaceOnUse"><stop stop-color="#4FC3F7" offset=".011"/><stop stop-color="#29B6F6" offset="1"/></linearGradient><path fill="url(#k)" d="M64.07 4.49l13 17.34 4.48-17.36z"/><path d="M80.21 7.47l12.72 14.55-28.84 42.12-28.63-42.12L48.23 7.47h31.98m1.36-3h-34.7l-15.18 17.3v.02l.01.04 32.38 47.64L96.7 21.83l.03-.01v-.02L81.57 4.47z" fill="#424242" opacity=".2"/></g><linearGradient id="l" x1="63.839" x2="63.839" y1="44.667" y2="118.01" gradientUnits="userSpaceOnUse"><stop stop-color="#CFD8DC" offset="0"/><stop stop-color="#90A4AE" offset=".797"/></linearGradient><path d="M83.12 55.51c0-.08-.12-.16-.12-.25v-.39c0-2.66-1.88-4.87-4.54-4.87H50.23C47.57 50 45 52.22 45 54.87v.25c-11 6.42-18.3 18.39-18.3 32.1 0 20.49 16.71 37.11 37.21 37.11s37.08-16.61 37.08-37.11c-.01-13.43-7.17-25.2-17.87-31.71zM64 113.86c-14.69 0-26.61-11.64-26.61-26s11.91-26 26.61-26 26.61 11.64 26.61 26-11.92 26-26.61 26z" fill="url(#l)"/><path d="M78.46 53c1.01 0 1.54.94 1.54 1.87v.39c0 .56.15 1.1.44 1.59.25.49.63.92 1.12 1.22 10.28 6.26 16.42 17.16 16.42 29.15 0 18.81-15.29 34.11-34.08 34.11-18.86 0-34.21-15.3-34.21-34.11 0-12.15 6.44-23.45 16.82-29.51.92-.54 1.49-1.52 1.49-2.59v-.25c0-.91 1.15-1.87 2.23-1.87h28.23M64 116.86c16.32 0 29.61-13.01 29.61-29s-13.28-29-29.61-29c-16.32 0-29.61 13.01-29.61 29s13.29 29 29.61 29M78.46 50H50.23C47.57 50 45 52.22 45 54.87v.25c-11 6.42-18.3 18.39-18.3 32.1 0 20.49 16.71 37.11 37.21 37.11s37.08-16.61 37.08-37.11c0-13.44-7.17-25.2-17.86-31.71 0-.08-.12-.16-.12-.25v-.39C83 52.22 81.12 50 78.46 50zM64 113.86c-14.69 0-26.61-11.64-26.61-26s11.91-26 26.61-26c14.69 0 26.61 11.64 26.61 26s-11.92 26-26.61 26z" fill="#424242" opacity=".2"/></svg>