<svg viewBox="0 0 128 128" xmlns="http://www.w3.org/2000/svg" xmlns:xlink="http://www.w3.org/1999/xlink"><defs><path id="a" d="M3.83 4h120v120h-120z"/></defs><clipPath id="b"><use xlink:href="#a"/></clipPath><g clip-path="url(#b)"><radialGradient id="c" cx="56.087" cy="-7.913" r="48.469" gradientUnits="userSpaceOnUse"><stop stop-color="#6D4C41" offset="0"/><stop stop-color="#543930" offset="1"/></radialGradient><path d="M38.64 121.28s-6.9-.36-10.36-5.16C20.81 105.76 16.7 79.84 16.7 43.15c0-1.69.27-16.63 10.81-27.19C34.35 9.1 44.07 5.62 56.41 5.62c12.24 0 21.81 3.42 28.43 10.18 9.96 10.16 10.18 24.48 10.12 27.25 0 36.79-4.11 62.7-11.58 73.07-3.38 4.69-9.95 5.14-10.4 5.16l-17.16-.03-17.18.03z" fill="url(#c)"/><path d="M56.41 7.12c11.83 0 21.03 3.27 27.36 9.73 9.74 9.94 9.73 24.54 9.7 26.17v.12c0 36.38-4.01 61.99-11.29 72.1-2.89 4.01-8.69 4.5-9.23 4.54l-17.12-.03-17.1.03c-.59-.04-6.35-.54-9.23-4.54-7.29-10.11-11.3-35.71-11.3-72.11 0-.64.08-15.8 10.37-26.11 6.55-6.57 15.92-9.9 27.84-9.9m0-3c-41.54 0-41.21 38.41-41.21 39.03 0 24.88 1.9 60.03 11.86 73.85 3.95 5.48 11.58 5.78 11.58 5.78l17.19-.03 17.19.03s7.63-.3 11.58-5.78c9.96-13.83 11.86-48.97 11.86-73.85 0-.61 1.49-39.03-40.05-39.03z" fill="#402821"/><linearGradient id="d" x1="55.833" x2="55.833" y1="97.5" y2="130.5" gradientUnits="userSpaceOnUse"><stop stop-color="#651FFF" offset="0"/><stop stop-color="#5914F2" offset=".705"/><stop stop-color="#530EEB" offset="1"/></linearGradient><path d="M9.33 130.5v-9.38c0-16.28 23.54-23.6 46.87-23.62h.12c22.87 0 46.01 8.12 46.01 23.62v9.38h-93z" fill="url(#d)"/><path d="M56.32 99c22.12 0 44.51 7.6 44.51 22.12V129h-90v-7.88c0-15.25 22.79-22.1 45.37-22.12h.12m0-3h-.12c-23.92.03-48.37 7.46-48.37 25.12V132h96v-10.88c0-16.65-23.48-25.12-47.51-25.12z" fill="#4A00ED"/><path d="M55.03 103.1c-4 0-7.26-3.22-7.26-7.17v-8.98h16.16v8.98c0 3.95-3.26 7.17-7.26 7.17h-1.64z" fill="#E59600"/><path d="M62.94 87.95v7.98c0 3.4-2.81 6.17-6.26 6.17h-1.65c-3.45 0-6.26-2.77-6.26-6.17v-7.98h14.17m2-2H46.78v9.98c0 4.51 3.7 8.17 8.26 8.17h1.65c4.56 0 8.26-3.66 8.26-8.17v-9.98h-.01z" fill="#D18100"/><defs><path id="e" d="M10.15 4h91.38v91.38H10.15z"/></defs><clipPath id="f"><use xlink:href="#e"/></clipPath><g clip-path="url(#f)"><linearGradient id="g" x1="55.879" x2="55.879" y1="93.744" y2="15.893" gradientUnits="userSpaceOnUse"><stop stop-color="#FFB300" offset="0"/><stop stop-color="#FFB809" offset=".102"/><stop stop-color="#FFC21A" offset=".371"/><stop stop-color="#FFC825" offset=".659"/><stop stop-color="#FFCA28" offset="1"/></linearGradient><path d="M55.88 94.31c-2.33 0-4.98-.5-7.67-1.45-11.49-4.06-24.9-16.56-24.9-38.39 0-29.11 17.54-39.43 32.56-39.43s32.56 10.33 32.56 39.43c0 21.87-13.44 34.36-24.94 38.41-2.66.94-5.29 1.43-7.61 1.43z" fill="url(#g)"/><path d="M55.88 16.04c8.52 0 16.28 3.29 21.85 9.28 6.35 6.82 9.71 16.91 9.71 29.16 0 21.35-13.08 33.52-24.27 37.46-2.56.9-5.08 1.38-7.29 1.38-2.22 0-4.75-.48-7.33-1.4-11.18-3.96-24.23-16.14-24.23-37.45 0-12.25 3.36-22.33 9.71-29.16 5.56-5.98 13.32-9.27 21.85-9.27m0-2c-17.43 0-33.56 12.95-33.56 40.43 0 22.07 13.66 35.12 25.56 39.33 2.84 1 5.57 1.51 8 1.51 2.41 0 5.13-.5 7.95-1.49 11.91-4.19 25.61-17.25 25.61-39.35 0-27.48-16.14-40.43-33.56-40.43z" fill="#EDA600"/><defs><path id="h" d="M21.7 89.95l-1.52-52.11c0-17.17 15.98-30.24 33.15-30.24h4.99c17.17 0 32.97 13.07 32.97 30.24l-1.52 51.85-68.07.26z"/></defs><clipPath id="i"><use xlink:href="#h"/></clipPath><g clip-path="url(#i)"><radialGradient id="j" cx="56.403" cy="-.483" r="40.338" gradientTransform="translate(1.477 -.018) scale(.9637)" gradientUnits="userSpaceOnUse"><stop stop-color="#6D4C41" offset="0"/><stop stop-color="#543930" offset="1"/></radialGradient><path d="M94.22 43.15S95.25 7.11 55.91 7.11 17.45 43.15 17.45 43.15s.34 46.07 3.24 52.06 7.29 5.78 7.29 5.78-2.05-26.89-2.29-39.55c-.06-2.95-.95-13.9 5.22-15.29 22.65-5.09 35.47-17.11 35.47-17.11 3.33 7.28 13.75 14.38 17.5 17.08 3.07 2.22 2.64 11.34 2.59 15.23l-3.09 39.57s4.75.38 7.75-5.72 3.09-52.05 3.09-52.05z" fill="url(#j)"/></g><path d="M59.69 68.05c-.1-.04-.21-.07-.32-.08h-6.99c-.11.01-.21.04-.32.08-.63.26-.98.91-.68 1.61s1.69 2.66 4.49 2.66 4.19-1.96 4.49-2.66c.31-.69-.04-1.35-.67-1.61z" fill="#E59600"/><ellipse cx="39.63" cy="58.87" rx="4.87" ry="5.04" fill="#404040"/><ellipse cx="72.13" cy="58.87" rx="4.87" ry="5.04" fill="#404040"/><path d="M46.86 49.82c-.93-1.23-3.07-3.01-7.23-3.01s-6.31 1.79-7.23 3.01c-.41.54-.31 1.17-.02 1.55.26.35 1.04.68 1.9.39s2.54-1.16 5.35-1.18c2.81.02 4.49.89 5.35 1.18s1.64-.03 1.9-.39c.29-.38.39-1.01-.02-1.55zM79.36 49.82c-.93-1.23-3.07-3.01-7.23-3.01s-6.31 1.79-7.23 3.01c-.41.54-.31 1.17-.02 1.55.26.35 1.04.68 1.9.39s2.54-1.16 5.35-1.18c2.81.02 4.49.89 5.35 1.18s1.64-.03 1.9-.39c.28-.38.39-1.01-.02-1.55z" fill="#6D4C41"/><path d="M64.2 76.14c-3.15 1.87-13.46 1.87-16.61 0-1.81-1.07-3.65.57-2.9 2.21.74 1.61 6.37 5.36 11.23 5.36s10.42-3.75 11.16-5.36c.75-1.64-1.08-3.29-2.88-2.21z" fill="#795548"/></g><g mask="url(#k)"><path d="M88.11 72.65l10.91.65 2.11 51.71H80.04l8.07-52.36m-1.02-3.07c-.91 0-1.68.68-1.79 1.59L76.55 128h27.71l-2.28-55.89c-.03-.92-.75-1.68-1.67-1.74l-13.09-.78c-.05-.01-.09-.01-.13-.01z" fill="#540EED"/></g><linearGradient id="l" x1="129.99" x2="101.1" y1="60.44" y2="64.666" gradientUnits="userSpaceOnUse"><stop stop-color="#FFB300" offset="0"/><stop stop-color="#FFB809" offset=".102"/><stop stop-color="#FFC21A" offset=".371"/><stop stop-color="#FFC825" offset=".659"/><stop stop-color="#FFCA28" offset="1"/></linearGradient><path d="M89.66 70.61c-2.4 0-3.45-1.76-3.62-3.27-.22-1.9.79-4.09 3.54-4.73l10.91-2.52c.59-.14 1.26-.22 1.9-.22 1.28 0 2.26.29 2.7.8.26.3.34.71.26 1.26a.997.997 0 0 0 1.2 1.13c.08-.02 8.17-1.75 13.25-1.75 1.17 0 2.07.09 2.68.27.25.15.52.76.54 1.64.03 1.09-.33 1.87-.53 1.96-3.6.75-7.51 1.45-10.96 2.06-3.11.55-5.79 1.03-7.57 1.43-3.55.8-9.36 1.79-14.08 1.92l-.22.02z" fill="url(#l)"/><path d="M102.38 60.89c1.14 0 1.78.27 1.94.45.06.07.05.28.03.45-.1.65.12 1.31.6 1.76.37.35.87.55 1.37.55.14 0 .28-.01.42-.05.08-.02 8.06-1.73 13.03-1.73 1.05 0 1.71.08 2.11.16.16.43.15 1.34-.02 1.81-3.48.72-7.22 1.39-10.53 1.97-3.12.55-5.81 1.03-7.61 1.44-3.5.79-9.24 1.76-13.91 1.9h-.15c-1.74 0-2.5-1.23-2.63-2.38-.15-1.35.48-3.11 2.77-3.64l10.92-2.52c.51-.11 1.1-.17 1.66-.17m0-2c-.76 0-1.5.09-2.12.24l-10.91 2.52c-6.22 1.44-5.44 9.97.31 9.97h.23c4.7-.14 10.54-1.1 14.27-1.94s11.67-2.05 18.53-3.49c1.57-.33 1.85-4.75.14-5.5-.76-.24-1.82-.34-3.05-.34-5.24 0-13.46 1.77-13.46 1.77.39-2.48-1.81-3.23-3.94-3.23z" fill="#EDA600"/><linearGradient id="m" x1="79.329" x2="70.352" y1="114.67" y2="112.76" gradientUnits="userSpaceOnUse"><stop stop-color="#311B92" offset=".25"/><stop stop-color="#512DA8" stop-opacity="0" offset="1"/></linearGradient><path fill="url(#m)" d="M77.75 128h-9.5l7.37-29.73 7.69 1.56z"/><linearGradient id="n" x1="90.497" x2="90.497" y1="71.082" y2="126.5" gradientUnits="userSpaceOnUse"><stop stop-color="#651FFF" offset="0"/><stop stop-color="#5914F2" offset=".705"/><stop stop-color="#530EEB" offset="1"/></linearGradient><path d="M78.3 126.5l8.49-55.1c.03-.21.15-.32.3-.32l13.12.78c.14.01.26.13.26.29l2.22 54.35H78.3z" fill="url(#n)"/><path d="M88.11 72.65l10.91.65 2.11 51.71H80.04l8.07-52.36m-1.02-3.07c-.91 0-1.68.68-1.79 1.59L76.55 128h27.71l-2.28-55.89c-.03-.92-.75-1.68-1.67-1.74l-13.09-.78c-.05-.01-.09-.01-.13-.01z" fill="#4A00ED"/></g></svg>