<svg viewBox="0 0 128 128" xmlns="http://www.w3.org/2000/svg"><radialGradient id="a" cx="64.622" cy="24.541" r="63.255" gradientUnits="userSpaceOnUse"><stop stop-color="#E53935" offset=".475"/><stop stop-color="#C62828" offset=".913"/></radialGradient><path d="M100.43 9.99c-19.77-7.23-35.87 13.8-35.87 13.8S49.15 3.72 29.05 9.95C-2.44 19.71.1 58.72 15.6 78.77 30.43 97.95 61 117.42 64 119.37v.12c0 .02.29.03.29.03s.16-.03.2-.06c.04.03-.23.06-.23.06s-.26-.01-.26-.03v-.12c4-1.95 34.02-22.93 48.85-42.11 15.51-20.06 18.22-56.06-12.42-67.27z" fill="url(#a)"/><path d="M92.01 11.48c2.49 0 4.98.45 7.39 1.33 10.42 3.81 17.44 11.08 20.31 21.01 3.73 12.94.04 29.66-9.19 41.6-13.27 17.16-39.7 35.72-46.48 40.35-10.65-6.98-33.91-23.17-46.03-38.84-9.45-12.22-13.04-30.3-8.72-43.96C12.44 23 19.58 16.03 29.94 12.82c2.28-.71 4.61-1.07 6.93-1.07 14.43 0 25.21 13.84 25.31 13.97.57.74 1.45 1.28 2.38 1.28s1.81-.54 2.38-1.28c.11-.14 10.99-14.24 25.07-14.24m0-3c-15.72 0-27.44 15.31-27.44 15.31S53.01 8.75 36.87 8.75c-2.51 0-5.12.36-7.82 1.2C-2.44 19.71.1 58.72 15.6 78.77 30.43 97.95 61 117.42 64 119.37v.12-.12c3-1.95 34.02-22.93 48.85-42.11 15.5-20.05 18.2-56.05-12.44-67.26a24 24 0 0 0-8.4-1.52zm-27.5 110.98c-.03.02-.09.04-.14.05.07-.01.16-.03.14-.05zm-.45.03c0 .02.23.03.23.03h.01c-.06-.01-.24-.01-.24-.03zm.31.02c-.03 0-.05.01-.06.01h.02s.01 0 .04-.01z" fill="#424242" opacity=".2"/><radialGradient id="b" cx="64.622" cy="24.541" r="63.255" gradientUnits="userSpaceOnUse"><stop stop-color="#FFEBEE" offset=".475"/><stop stop-color="#EF9A9A" offset=".889"/></radialGradient><path d="M100.43 9.99c-19.77-7.23-35.87 13.8-35.87 13.8S49.15 3.72 29.05 9.95C-2.44 19.71.1 58.72 15.6 78.77 30.43 97.95 61 117.42 64 119.37v.12c0 .02.29.03.29.03s.16-.03.2-.06c.04.03-.23.06-.23.06s-.26-.01-.26-.03v-.12c4-1.95 34.02-22.93 48.85-42.11 15.51-20.06 18.22-56.06-12.42-67.27z" fill="url(#b)"/><path d="M92.01 11.48c2.49 0 4.98.45 7.39 1.33 10.42 3.81 17.44 11.08 20.31 21.01 3.73 12.94.04 29.66-9.19 41.6-13.27 17.16-39.7 35.72-46.48 40.35-10.65-6.98-33.91-23.17-46.03-38.84-9.45-12.22-13.04-30.3-8.72-43.96C12.44 23 19.58 16.03 29.94 12.82c2.28-.71 4.61-1.07 6.93-1.07 14.43 0 25.21 13.84 25.31 13.97.57.74 1.45 1.28 2.38 1.28s1.81-.54 2.38-1.28c.11-.14 10.99-14.24 25.07-14.24m0-3c-15.72 0-27.44 15.31-27.44 15.31S53.01 8.75 36.87 8.75c-2.51 0-5.12.36-7.82 1.2C-2.44 19.71.1 58.72 15.6 78.77 30.43 97.95 61 117.42 64 119.37v.12-.12c3-1.95 34.02-22.93 48.85-42.11 15.5-20.05 18.2-56.05-12.44-67.26a24 24 0 0 0-8.4-1.52zm-27.5 110.98c-.03.02-.09.04-.14.05.07-.01.16-.03.14-.05zm-.45.03c0 .02.23.03.23.03h.01c-.06-.01-.24-.01-.24-.03zm.31.02c-.03 0-.05.01-.06.01h.02s.01 0 .04-.01z" fill="#424242" opacity=".2"/><radialGradient id="c" cx="64.388" cy="47.403" r="26.606" gradientUnits="userSpaceOnUse"><stop stop-color="#E53935" offset=".475"/><stop stop-color="#C62828" offset=".913"/></radialGradient><path d="M79.5 41.28c-8.31-3.04-15.09 5.8-15.09 5.8s-6.48-8.44-14.94-5.82c-13.25 4.11-12.27 20.51-5.74 28.95C49.97 78.28 63 86.47 64 87.29v.05c0 .01.21.01.21.01s.11-.01.13-.02c.02.01-.17.02-.17.02s-.17 0-.17-.01v-.05c2-.82 14.4-9.65 20.64-17.71 6.52-8.44 7.75-23.58-5.14-28.3z" fill="url(#c)"/><path d="M75.96 43.65c.84 0 1.69.15 2.51.45 3.9 1.43 6.41 4.01 7.47 7.69 1.42 4.94-.01 11.35-3.57 15.95-4.58 5.92-13.67 12.8-18.19 15.94-4.72-3.15-13.37-9.35-17.97-15.31-3.59-4.64-5.01-11.75-3.39-16.91 1.16-3.68 3.7-6.15 7.54-7.34.79-.25 1.6-.37 2.4-.37 5.19 0 9.23 5.07 9.27 5.11.57.75 1.45 1.14 2.39 1.14.93 0 1.81-.39 2.38-1.13.04-.05 4.17-5.22 9.16-5.22m0-3c-6.61 0-11.54 6.44-11.54 6.44s-4.86-6.33-11.65-6.33c-1.05 0-2.15.15-3.29.5-13.25 4.11-12.27 20.51-5.74 28.95C49.97 78.28 63 86.47 64 87.29v.05-.05c1-.82 14.4-9.65 20.64-17.71 6.52-8.43 7.7-23.58-5.19-28.29a9.87 9.87 0 0 0-3.49-.64zM64.39 87.33c-.01.01-.04.02-.06.02.03-.01.07-.01.06-.02zm-.18.01c0 .01.1.01.1.01-.03 0-.1 0-.1-.01zm.12.01h-.03.03z" fill="#424242" opacity=".2"/><radialGradient id="d" cx="64.508" cy="36.865" r="43.499" gradientUnits="userSpaceOnUse"><stop stop-color="#E53935" offset=".475"/><stop stop-color="#C62828" offset=".913"/></radialGradient><path d="M89.17 26.86c-13.59-4.97-24.67 9.49-24.67 9.49s-10.6-13.8-24.42-9.52c-21.66 6.71-19.96 33.54-9.3 47.33C40.97 87.35 62 100.73 64 102.08v.08c0 .01.26.02.26.02s.14-.02.16-.04c.03.02-.2.04-.2.04s-.22-.01-.22-.02v-.08c3-1.34 23.45-15.77 33.65-28.96 10.66-13.79 12.58-38.55-8.48-46.26z" fill="url(#d)"/><path d="M83.37 28.82c1.6 0 3.21.29 4.76.86 6.97 2.55 11.47 7.2 13.39 13.83 2.49 8.63.01 19.79-6.16 27.78-8.74 11.3-25.91 23.53-31.23 27.19-7.5-4.94-22.85-15.74-30.9-26.15-6.32-8.18-8.73-20.26-5.84-29.38 2.1-6.65 6.67-11.1 13.58-13.25 1.48-.46 2.99-.69 4.49-.69 9.45 0 16.6 8.91 16.66 9 .57.74 1.45 1 2.38 1s1.81-.26 2.38-1c.07-.1 7.33-9.19 16.49-9.19m0-3c-10.81 0-18.87 10.53-18.87 10.53s-7.94-10.34-19.04-10.34c-1.72 0-3.52.25-5.38.82-21.66 6.71-19.96 33.54-9.3 47.33C40.97 87.35 62 100.73 64 102.08v.08-.08c2-1.34 23.45-15.77 33.65-28.96 10.66-13.79 12.54-38.55-8.53-46.25-1.99-.74-3.89-1.05-5.75-1.05zm-18.91 76.32c-.02.01-.06.02-.09.03.05 0 .11-.02.09-.03zm-.3.02c0 .01.16.02.16.02h.01c-.05 0-.17-.01-.17-.02zm.21.01c-.02 0-.04 0-.04.01h.01s.01 0 .03-.01z" fill="#424242" opacity=".2"/><radialGradient id="e" cx="64.52" cy="35.68" r="45.398" gradientUnits="userSpaceOnUse"><stop stop-color="#EF9A9A" offset=".475"/><stop stop-color="#EF5350" offset=".913"/></radialGradient><path d="M90.25 25.24c-14.19-5.19-25.74 9.9-25.74 9.9s-11.06-14.41-25.49-9.93c-22.6 7-20.83 35-9.7 49.39C39.96 88.36 62 102.34 64 103.74v.09c0 .01.26.02.26.02s.14-.02.17-.04c.03.02-.21.04-.21.04s-.22-.01-.22-.03v-.09c3-1.4 24.47-16.46 35.11-30.22 11.13-14.39 13.13-40.22-8.86-48.27z" fill="url(#e)"/><path d="M84.2 27.15c1.69 0 3.38.3 5.02.9 7.21 2.64 12.07 7.66 14.05 14.52 2.61 9.04.01 20.74-6.46 29.11-9.17 11.86-27.22 24.69-32.7 28.46C56.31 95 40.2 83.69 31.76 72.77c-6.62-8.57-9.14-21.22-6.12-30.78 2.21-6.98 7-11.66 14.26-13.91 1.56-.48 3.14-.73 4.73-.73 9.93 0 17.42 9.46 17.49 9.55.57.74 1.45 1.1 2.38 1.1s1.81-.36 2.38-1.1c.08-.1 7.7-9.75 17.32-9.75m0-3c-11.28 0-19.7 10.99-19.7 10.99s-8.29-10.79-19.87-10.8c-1.8 0-3.68.26-5.61.86-22.6 7-20.83 35-9.7 49.39C39.96 88.36 62 102.34 64 103.74v.09-.09c2-1.4 24.47-16.46 35.11-30.22 11.13-14.39 13.09-40.23-8.9-48.27-2.08-.77-4.07-1.1-6.01-1.1zm-19.73 79.66c-.02.01-.07.03-.1.03.05-.01.12-.02.1-.03zm-.32.01c0 .01.17.02.17.02h.01c-.05 0-.18 0-.18-.02zm.22.02c-.02 0-.04 0-.05.01h.01s.02-.01.04-.01z" fill="#424242" opacity=".2"/><radialGradient id="f" cx="64.396" cy="46.678" r="27.768" gradientUnits="userSpaceOnUse"><stop stop-color="#E53935" offset=".475"/><stop stop-color="#C62828" offset=".913"/></radialGradient><path d="M80.17 40.29c-8.68-3.17-15.75 6.06-15.75 6.06s-6.76-8.81-15.59-6.08c-13.82 4.28-12.8 21.41-5.99 30.21C49.35 78.9 63 87.45 64 88.31v.05c0 .01.22.01.22.01s.11-.01.13-.02c.02.01-.17.02-.17.02s-.18 0-.18-.01v-.05c2-.86 15.02-10.07 21.53-18.49 6.81-8.8 8.09-24.61-5.36-29.53z" fill="url(#f)"/><path d="M76.47 42.63c.9 0 1.79.16 2.67.48 4.11 1.5 6.76 4.23 7.88 8.11 1.5 5.19-.01 11.93-3.75 16.77-4.81 6.22-14.39 13.46-19.08 16.72-4.91-3.28-14.02-9.8-18.86-16.05-3.77-4.88-5.27-12.35-3.55-17.76 1.23-3.88 3.9-6.49 7.96-7.75.84-.26 1.7-.39 2.55-.39 5.48 0 9.74 5.21 9.78 5.26.57.74 1.45 1 2.38 1s1.81-.26 2.38-1c.01-.08 4.37-5.39 9.64-5.39m0-3c-6.9 0-12.05 6.72-12.05 6.72s-5.07-6.6-12.16-6.6c-1.1 0-2.25.16-3.43.53-13.82 4.28-12.8 21.41-5.99 30.21C49.35 78.9 63 87.45 64 88.31v.05-.05c2-.86 15.02-10.07 21.53-18.49 6.81-8.8 8.03-24.61-5.42-29.53-1.27-.46-2.46-.66-3.64-.66zM64.4 88.35c-.01.01-.04.02-.06.02.03-.01.07-.01.06-.02zm-.2.01c0 .01.1.01.1.01-.02 0-.1 0-.1-.01zm.14.01h-.02.02z" fill="#424242" opacity=".2"/></svg>