<svg viewBox="0 0 128 128" xmlns="http://www.w3.org/2000/svg"><radialGradient id="a" cx="63.54" cy="12.506" r="70.502" gradientTransform="matrix(.9985 0 0 .9337 .099 4.247)" gradientUnits="userSpaceOnUse"><stop stop-color="#E53935" offset=".475"/><stop stop-color="#C62828" offset="1"/></radialGradient><path d="M91.58 22.94c-20.14 0-27.54 24.08-27.54 24.08s-7.3-24.08-27.59-24.08c-15.24 0-32.62 12.08-26.2 39.54C16.67 89.93 63.84 124 63.84 124s.24-.1.24-.25c0 .15.16.23.16.23s47.09-34.04 53.51-61.5-10.93-39.54-26.17-39.54z" fill="url(#a)"/><path d="M91.58 25.94c7.68 0 14.91 3.33 19.34 8.92 5.16 6.51 6.52 15.83 3.92 26.94-5.45 23.32-42.72 52.5-50.81 58.61-8.15-6.15-45.41-35.32-50.86-58.61-2.6-11.11-1.24-20.42 3.92-26.93 4.43-5.59 11.67-8.93 19.36-8.93 17.78 0 24.65 21.73 24.72 21.95L64 57.24l2.9-9.34c.07-.22 7.03-21.96 24.68-21.96m0-3c-20.14 0-27.54 24.08-27.54 24.08s-7.3-24.08-27.59-24.08c-15.24 0-32.62 12.08-26.2 39.54C16.67 89.93 63.84 124 63.84 124s.24-.1.24-.25c0 .15.16.23.16.23s47.09-34.04 53.51-61.5-10.93-39.54-26.17-39.54z" fill="#424242" opacity=".2"/><g fill="#EF9A9A"><path d="M10.94 47.6l-.03-.14h.01c.01.04.02.09.02.14zM34.06 15.78c1.9.14 3.62.58 5.17 1.23 1.29.54.67 2.44-.7 2.16-.73-.15-1.48-.25-2.26-.31-10.96-.77-17.54 3.81-21.32 8.33-.89 1.07-2.59-.06-1.95-1.3 2.83-5.43 8.74-11.02 21.06-10.11z"/></g><g fill="#EF5350"><path d="M3.51 46.09c-.01-.06-.02-.12-.03-.17.01 0 .01 0 .02-.01 0 .06.01.12.01.18zM32.65 4.65c5.07.26 9.03 2.39 12.09 5.18.66.61-.1 1.64-.88 1.19a18.771 18.771 0 0 0-8.62-2.51C18.15 7.7 9.56 17.95 5.78 24.7c-.43.77-1.61.29-1.37-.56C6.68 16.2 13.33 3.65 32.65 4.65z"/></g><g fill="#EF9A9A"><path d="M117.19 47.6l.03-.14h-.01c-.01.04-.01.09-.02.14zM94.07 15.78c-1.9.14-3.62.58-5.17 1.23-1.29.54-.67 2.44.7 2.16.73-.15 1.48-.25 2.26-.31 10.96-.77 17.54 3.81 21.32 8.33.89 1.07 2.59-.06 1.95-1.3-2.83-5.43-8.74-11.02-21.06-10.11z"/></g><g fill="#EF5350"><path d="M124.62 46.09c.01-.06.02-.12.03-.17-.01 0-.01 0-.02-.01 0 .06 0 .12-.01.18zM95.48 4.65c-5.07.26-9.03 2.39-12.09 5.18-.66.61.1 1.64.88 1.19 2.45-1.41 5.31-2.36 8.62-2.51 17.09-.81 25.68 9.44 29.46 16.19.43.77 1.61.29 1.37-.56-2.27-7.94-8.92-20.49-28.24-19.49z"/></g></svg>