<svg viewBox="0 0 128 128" xmlns="http://www.w3.org/2000/svg"><radialGradient id="a" cx="52.25" cy="43.75" r="54.993" gradientUnits="userSpaceOnUse"><stop stop-color="#BBDEFB" offset=".356"/><stop stop-color="#64B5F6" offset=".936"/></radialGradient><path d="M103.22 85.01c0 21.66-17.62 39.19-39.28 39.15s-39.15-17.62-39.15-39.28c0-32.38 38.7-80.23 38.7-80.23s39.73 48.1 39.73 80.36z" fill="url(#a)"/><path d="M63.52 11.15c9.22 11.98 35.7 48.5 35.7 73.78C99.22 104.31 83.42 120 64 120h-.06c-19.39 0-35.16-15.78-35.16-35.2 0-25.35 25.72-61.67 34.74-73.65m-.03-6.5s-38.7 47.76-38.7 80.15c0 21.66 17.49 39.2 39.15 39.2h.07c21.63 0 39.22-17.43 39.22-39.07-.01-32.26-39.74-80.28-39.74-80.28z" fill="#424242" opacity=".2"/></svg>