<svg viewBox="0 0 128 128" xmlns="http://www.w3.org/2000/svg"><linearGradient id="a" x1="-93.047" x2="-93.047" y1="-73.413" y2="-17.291" gradientUnits="userSpaceOnUse"><stop stop-color="#eee" offset=".005"/><stop stop-color="#EAEAEA" offset=".282"/><stop stop-color="#ddd" offset=".577"/><stop stop-color="#C8C8C8" offset=".879"/><stop stop-color="#BDBDBD" offset="1"/></linearGradient><path d="M-42.13-44.72c-.91-4.33-4.3-20.11-5.87-27.41-.47-2.21-2.11-3.82-3.99-3.81-5.36 0-15.39-.05-16.6-.05h-44.08c-.61 0-2.56.06-4.11 1.79-4.7 5.27-12.54 20.52-13.76 22.07-.08.1-6.27 2.31-9.09 4-1.12.67-1.74 2.13-1.9 3.63l-2.46 20.75c-.64 4.1 1.7 5.76 5.37 5.76h91.51c2.8 0 5.11-.68 5.11-5.69v-19.79c0-.43-.05-.85-.13-1.25z" fill="url(#a)"/><defs><path id="b" d="M-42.13-44.78c-.91-4.32-4.3-20.06-5.87-27.34-.47-2.21-2.11-3.82-3.99-3.82-5.36 0-15.39-.06-16.6-.06h-44.08c-.61 0-2.56.07-4.11 1.8-4.7 5.26-12.54 20.51-13.76 22.05-.08.1-6.27 2.28-9.09 3.96-1.12.67-1.74 2.13-1.9 3.62l-2.46 20.76c-.64 4.09 1.7 5.81 5.37 5.81h91.51c2.8 0 5.11-.79 5.11-5.8v-19.74c0-.42-.05-.83-.13-1.24z"/></defs><path d="M-51.98-73c.36 0 .87.59 1.05 1.44 1.46 6.78 4.95 23.06 5.86 27.43.04.2.07.44.07.66v19.79c0 2.81-.49 2.69-2.11 2.69h-91.51c-1.3 0-2.02-.23-2.25-.5s-.3-.92-.16-1.77c.01-.04.01-.06.02-.09l2.47-20.83c.08-.8.36-1.28.46-1.36 1.87-1.12 5.83-2.66 7.51-3.31 1.46-.57 1.86-.72 2.39-1.39.5-.63 1.28-2 2.99-5.03 2.85-5.03 7.61-13.53 10.65-16.93.57-.64 1.22-.79 1.87-.79h60.69-.02m.02-3.01s-.01 0 0 0h-60.7c-.63 0-2.55.08-4.08 1.79-4.7 5.27-12.54 20.52-13.76 22.07-.08.1-6.27 2.31-9.09 4-1.12.67-1.74 2.13-1.9 3.63l-2.46 20.75c-.64 4.1 1.7 5.76 5.37 5.76h91.51c2.8 0 5.11-.68 5.11-5.69v-19.79c0-.42-.05-.84-.13-1.24-.91-4.33-4.3-20.17-5.87-27.47-.49-2.21-2.13-3.81-4-3.81z" fill="#424242" opacity=".2"/><linearGradient id="c" x1="46.43" x2="46.43" y1="-117.5" y2="-61.374" gradientUnits="userSpaceOnUse"><stop stop-color="#616161" offset=".011"/><stop stop-color="#5D5D5D" offset=".25"/><stop stop-color="#505050" offset=".504"/><stop stop-color="#3B3B3B" offset=".766"/><stop stop-color="#212121" offset="1"/></linearGradient><path d="M97.35-88.93c-.91-4.33-4.3-20.11-5.86-27.41-.47-2.21-2.11-3.75-3.99-3.75-5.36 0-15.39.01-16.6.01H26.82c-.61 0-2.56-.01-4.11 1.73C18-113.07 10.16-97.86 8.95-96.31c-.08.1-6.27 2.3-9.09 3.99-1.12.67-1.74 2.12-1.9 3.62L-4.5-67.9c-.64 4.1 1.7 5.82 5.37 5.82h91.51c2.8 0 5.1-.8 5.1-5.81v-19.79c-.01-.43-.05-.84-.13-1.25z" fill="url(#c)"/><defs><path id="d" d="M97.35-88.98c-.91-4.32-4.3-20.06-5.86-27.34-.47-2.21-2.11-3.74-3.99-3.74-5.36 0-15.39.01-16.6.01H26.82c-.61 0-2.56-.01-4.11 1.72C18-113.06 10.16-97.85 8.95-96.31c-.08.1-6.27 2.26-9.09 3.94-1.12.67-1.74 2.12-1.9 3.61L-4.51-68c-.64 4.09 1.7 5.8 5.37 5.8h91.51c2.8 0 5.1-.79 5.1-5.8v-19.74c0-.42-.04-.84-.12-1.24z"/></defs><path d="M87.5-117.08c.36 0 .87.53 1.05 1.38 1.46 6.78 4.94 23.03 5.86 27.4.04.2.06.41.06.63v19.79c0 2.81-.49 2.81-2.1 2.81H.86c-1.3 0-2.02-.29-2.25-.56s-.3-.95-.16-1.8l.02-.1L.94-88.37c.08-.8.36-1.28.46-1.36 1.87-1.12 5.83-2.66 7.51-3.31 1.46-.57 1.86-.72 2.39-1.39.5-.63 1.28-2 2.99-5.03 2.85-5.03 7.61-13.46 10.65-16.87.57-.64 1.22-.72 1.87-.72h44.08c.75 0 4.89 0 9.21-.01l7.4-.02m0-3c-5.36 0-15.39.01-16.6.01H26.8c-.63 0-2.55.01-4.08 1.73C18-113.07 10.16-97.86 8.95-96.31c-.08.1-6.27 2.3-9.09 3.99-1.12.67-1.74 2.12-1.9 3.62L-4.5-67.9c-.64 4.1 1.7 5.82 5.37 5.82h91.51c2.8 0 5.1-.8 5.1-5.81v-19.79c0-.42-.04-.84-.13-1.24-.91-4.33-4.3-20.11-5.86-27.41-.48-2.22-2.12-3.75-3.99-3.75z" fill="#eee" opacity=".2"/><linearGradient id="e" x1="63.833" x2="63.833" y1="4" y2="124" gradientUnits="userSpaceOnUse"><stop stop-color="#F5F5F5" offset="0"/><stop stop-color="#E0E0E0" offset="1"/></linearGradient><path d="M63.83 4c-33.1 0-60 26.9-60 60s26.9 60 60 60 60-26.9 60-60-26.89-60-60-60zm0 75.02c-8.32 0-15.02-6.69-15.02-15.02 0-8.32 6.69-15.02 15.02-15.02 8.32 0 15.02 6.69 15.02 15.02 0 8.32-6.69 15.02-15.02 15.02z" fill="url(#e)"/><path d="M101.38 101.55c6.4-6.4 10.82-14.03 13.26-22.14l-36.1-18.49c1 4.79-.35 9.96-4.09 13.69a14.983 14.983 0 0 1-13.69 4.09l18.49 36.11c8.1-2.44 15.73-6.86 22.13-13.26zM26.28 26.45c-6.4 6.4-10.82 14.03-13.26 22.14l36.11 18.49c-1-4.79.35-9.96 4.09-13.69 3.73-3.73 8.91-5.09 13.69-4.09L48.42 13.19a52.768 52.768 0 0 0-22.14 13.26z" fill="#fff" opacity=".7"/><path d="M63.75 40.08c-13.3 0-24 10.7-24 24s10.7 24 24 24 24-10.7 24-24-10.7-24-24-24zm.08 38.94c-8.32 0-15.02-6.69-15.02-15.02 0-8.32 6.69-15.02 15.02-15.02 8.32 0 15.02 6.69 15.02 15.02 0 8.32-6.69 15.02-15.02 15.02z" fill="#BDBDBD"/><path d="M63.83 7c31.43 0 57 25.57 57 57s-25.57 57-57 57-57-25.57-57-57 25.57-57 57-57m0 75.02c9.93 0 18.02-8.08 18.02-18.02 0-9.93-8.08-18.02-18.02-18.02-9.93 0-18.02 8.08-18.02 18.02.01 9.93 8.09 18.02 18.02 18.02m0-78.02c-33.1 0-60 26.9-60 60s26.9 60 60 60 60-26.9 60-60-26.89-60-60-60zm0 75.02c-8.32 0-15.02-6.69-15.02-15.02 0-8.32 6.69-15.02 15.02-15.02 8.32 0 15.02 6.69 15.02 15.02 0 8.32-6.69 15.02-15.02 15.02z" fill="#424242" opacity=".2"/></svg>