<svg viewBox="0 0 128 128" xmlns="http://www.w3.org/2000/svg"><linearGradient id="a" x1="64" x2="64" y1="11.356" y2="38.041" gradientUnits="userSpaceOnUse"><stop stop-color="#A1887F" offset=".001"/><stop stop-color="#927971" offset=".238"/><stop stop-color="#6C524B" offset=".693"/><stop stop-color="#4E342E" offset="1"/></linearGradient><path d="M79.46 20.88V33.2H48.54V20.88h30.92m4.18-9.42H44.36c-2.89 0-5.23 2.34-5.23 5.23v20.69c0 2.89 2.34 5.23 5.23 5.23h39.28c2.89 0 5.23-2.34 5.23-5.23V16.69c0-2.89-2.34-5.23-5.23-5.23z" fill="url(#a)"/><linearGradient id="b" x1="64" x2="64" y1="34.378" y2="116.06" gradientUnits="userSpaceOnUse"><stop stop-color="#4E342E" offset="0"/><stop stop-color="#503630" offset=".424"/><stop stop-color="#583D36" offset=".618"/><stop stop-color="#644941" offset=".765"/><stop stop-color="#765950" offset=".888"/><stop stop-color="#8D6E63" offset=".993"/></linearGradient><path d="M14.22 33.44h99.57a8.03 8.03 0 0 1 8.03 8.03v67.16a8.03 8.03 0 0 1-8.03 8.03H14.22a8.03 8.03 0 0 1-8.03-8.03V41.47a8.03 8.03 0 0 1 8.03-8.03z" fill="url(#b)"/><linearGradient id="c" x1="64" x2="64" y1="29.93" y2="80.463" gradientUnits="userSpaceOnUse"><stop stop-color="#BCAAA4" offset=".007"/><stop stop-color="#6D4C41" offset="1"/></linearGradient><path d="M116.88 29.78H11.12c-3.77 0-6.82 3.05-6.82 6.82v27.27c0 1.08.54 2.07 1.44 2.68C19 75.54 41.67 80.44 64 80.89c22.33-.45 45-5.35 58.26-14.34.89-.6 1.44-1.6 1.44-2.68V36.6c0-3.76-3.05-6.82-6.82-6.82z" fill="url(#c)"/><path d="M72.45 79.94v8.71c0 .49-.73.89-1.63.89H57.18c-.9 0-1.63-.4-1.63-.89v-8.71c0-.49.73-.89 1.63-.89h13.64c.9 0 1.63.39 1.63.89z" fill="#FFCA28"/><path d="M74.49 77.2v1.96c0 .9-.73 1.63-1.63 1.63H55.14c-.9 0-1.63-.73-1.63-1.63V77.2c0-.9.73-1.63 1.63-1.63h17.71c.91 0 1.64.73 1.64 1.63z" fill="#F9A825"/><path d="M83.64 14.46c1.23 0 2.23 1 2.23 2.23v13.09c0 1.66 1.34 3 3 3h28.01a3.82 3.82 0 0 1 3.82 3.82v27.27c0 .07-.04.14-.12.19-.04.03-.08.05-.13.08-.1.06-.2.12-.3.19-.84.56-1.35 1.5-1.35 2.5v41.8a5.04 5.04 0 0 1-5.03 5.03H14.22a5.04 5.04 0 0 1-5.03-5.03v-41.8c0-1.01-.51-1.95-1.35-2.5-.1-.06-.2-.13-.3-.19-.04-.03-.09-.05-.13-.08-.07-.05-.12-.12-.12-.19V36.6a3.82 3.82 0 0 1 3.82-3.82h28.01c1.66 0 3-1.34 3-3V16.69c0-1.23 1-2.23 2.23-2.23h39.29m-35.1 18.32h30.92c1.66 0 3-1.34 3-3v-8.9c0-1.66-1.34-3-3-3H48.54c-1.66 0-3 1.34-3 3v8.9c0 1.66 1.35 3 3 3m35.1-21.32H44.36c-2.89 0-5.23 2.34-5.23 5.23v13.09H11.12c-3.77 0-6.82 3.05-6.82 6.82v27.27c0 1.08.54 2.07 1.44 2.68.14.1.3.19.45.28v41.8c0 4.44 3.6 8.03 8.03 8.03h99.57a8.03 8.03 0 0 0 8.03-8.03v-41.8c.15-.1.31-.19.45-.28.89-.6 1.44-1.6 1.44-2.68V36.6c0-3.77-3.05-6.82-6.82-6.82H88.87V16.69c0-2.89-2.34-5.23-5.23-5.23zm-35.1 18.32v-8.9h30.91v8.9H48.54z" fill="#424242" opacity=".2"/></svg>