<svg viewBox="0 0 128 128" xmlns="http://www.w3.org/2000/svg"><circle cx="35.25" cy="103.54" r="4.6"/><path fill="#90A4AE" d="M93.99 4.11L5.17 93.28l29.37 29.37 89.17-89.17z"/><path d="M94 8.34l25.45 25.15-84.92 84.92L9.41 93.28 94 8.34m-.01-4.23L5.17 93.28l29.37 29.37 89.17-89.17L93.99 4.11z" fill="#424242" opacity=".2"/><linearGradient id="a" x1="25.515" x2="78.164" y1="24.81" y2="77.46" gradientUnits="userSpaceOnUse"><stop stop-color="#eee" offset=".003"/><stop stop-color="#ECECEC" offset=".427"/><stop stop-color="#E4E4E4" offset=".644"/><stop stop-color="#D7D7D7" offset=".813"/><stop stop-color="#C4C4C4" offset=".957"/><stop stop-color="#BDBDBD" offset="1"/></linearGradient><path fill="url(#a)" d="M13.31 93.28l4.6-4.6 5.3 5.31 4.25-4.25-5.31-5.31 4.25-4.24L37.01 90.8l4.25-4.24-10.61-10.62 4.24-4.24L40.2 77l4.25-4.24-5.31-5.31 4.24-4.25 5.31 5.31 4.25-4.25-5.31-5.3 4.25-4.25 10.61 10.62 3.89-3.9-10.61-10.61 4.25-4.25 5.3 5.31 4.25-4.25-5.31-5.3 4.25-4.25 5.31 5.31 4.24-4.25-5.31-5.31L77 29.59 87.62 40.2l4.24-4.24-10.61-10.62 4.24-4.25 5.31 5.31 3.89-3.89-5.3-5.31 4.6-4.6 20.87 20.88-80.32 80.68z"/></svg>