<svg viewBox="0 0 128 128" xmlns="http://www.w3.org/2000/svg" xmlns:xlink="http://www.w3.org/1999/xlink"><path d="M90.74 109.32l-63.97 13.13a5.992 5.992 0 0 1-7.08-4.67L6.72 54.6a5.992 5.992 0 0 1 4.67-7.08l63.97-13.13 15.38 74.93z" fill="#424242"/><linearGradient id="a" x1="47.9" x2="47.9" y1="29.308" y2="108.39" gradientTransform="rotate(-11.601 46.625 71.897)" gradientUnits="userSpaceOnUse"><stop stop-color="#FF9800" offset=".008"/><stop stop-color="#EF6C00" offset="1"/></linearGradient><path d="M91.25 99.56l-66.38 13.62a5.992 5.992 0 0 1-7.08-4.67L4.35 43.02a5.992 5.992 0 0 1 4.67-7.08L75.4 22.32l15.85 77.24z" fill="url(#a)"/><path d="M73.06 25.86l14.66 71.41c-.56.23-1.04.62-1.38 1.13-.44.66-.59 1.48-.43 2.25l1.3 6.33-62.07 12.74c-.14.03-.29.04-.44.04-.89 0-1.65-.57-1.81-1.35l-1.9-9.27L9.41 52.75 7.03 41.18c-.19-.94.5-1.87 1.55-2.09l64.48-13.23m2.34-3.54L7.98 36.15c-2.67.55-4.41 3.07-3.88 5.63l2.38 11.57 11.58 56.4 1.9 9.27c.46 2.22 2.47 3.75 4.75 3.75.34 0 .69-.03 1.04-.11l65.01-13.34-1.9-9.27 2.41-.49L75.4 22.32z" fill="#424242" opacity=".2"/><linearGradient id="b" x1="13.417" x2="79.029" y1="111.51" y2="111.51" gradientTransform="rotate(-11.601 46.625 71.897)" gradientUnits="userSpaceOnUse"><stop stop-color="#BDBDBD" offset=".01"/><stop stop-color="#F5F5F5" offset=".987"/></linearGradient><path d="M87.04 107.66l-60.9 12.5a3.46 3.46 0 0 1-4.07-2.68l-.04-.2a3.46 3.46 0 0 1 2.68-4.07l60.9-12.5 1.43 6.95z" fill="url(#b)"/><defs><path id="c" d="M91.25 99.56l-66.38 13.62a5.992 5.992 0 0 1-7.08-4.67L4.35 43.02a5.992 5.992 0 0 1 4.67-7.08L75.4 22.32l15.85 77.24z"/></defs><clipPath id="d"><use xlink:href="#c"/></clipPath><path transform="rotate(-11.601 12.546 80.275)" clip-path="url(#d)" fill="#424242" d="M7.61 32.98h9.87v94.62H7.61z"/><path d="M97.95 101.4l-65.19-6.35a6 6 0 0 1-5.39-6.55l6.3-64.73a6 6 0 0 1 6.55-5.39l65.19 6.35-7.46 76.67z" fill="#424242"/><linearGradient id="e" x1="66.384" x2="66.384" y1="9.096" y2="88.734" gradientTransform="matrix(1.0341 .1007 -.0969 .9953 4.14 -6.296)" gradientUnits="userSpaceOnUse"><stop stop-color="#4480F7" offset=".008"/><stop stop-color="#315DB3" offset="1"/></linearGradient><path d="M101.04 91.86L33.4 85.27a6 6 0 0 1-5.39-6.55l6.53-67.09a6 6 0 0 1 6.55-5.39l67.64 6.59-7.69 79.03z" fill="url(#e)"/><path d="M39.84 9.46c.07 0 .14 0 .21.01l65.64 6.39-7.11 73c-.6.06-1.17.29-1.65.68-.63.52-1.02 1.26-1.1 2.07l-.63 6.44-63.18-6.15c-.52-.05-.99-.29-1.32-.67-.17-.2-.45-.63-.4-1.21l.92-9.48 5.62-57.71L38 10.99c.08-.87.87-1.53 1.84-1.53m0-3.06c-2.51 0-4.65 1.83-4.88 4.29L33.8 22.53l-5.62 57.71-.92 9.48c-.26 2.62 1.74 4.96 4.46 5.22l66.23 6.45.92-9.48 2.46.24 7.7-79.03-68.69-6.69c-.17-.02-.34-.03-.5-.03z" fill="#424242" opacity=".2"/><linearGradient id="f" x1="33.414" x2="96.738" y1="92.135" y2="92.135" gradientTransform="matrix(1.0341 .1007 -.0969 .9953 4.14 -6.296)" gradientUnits="userSpaceOnUse"><stop stop-color="#BDBDBD" offset=".01"/><stop stop-color="#F5F5F5" offset=".987"/></linearGradient><path d="M94.9 98.7l-62.03-6.04c-1.9-.19-3.3-1.89-3.12-3.79l.02-.2c.19-1.9 1.89-3.3 3.79-3.12l62.03 6.04-.69 7.11z" fill="url(#f)"/><defs><path id="g" d="M101.33 92.15l-67.64-6.59a6 6 0 0 1-5.39-6.55l6.53-67.09a6 6 0 0 1 6.55-5.39l67.64 6.59-7.69 79.03z"/></defs><clipPath id="h"><use xlink:href="#g"/></clipPath><path transform="rotate(5.557 31.652 50.28)" clip-path="url(#h)" fill="#424242" d="M26.69 2.61h9.9V97.9h-9.9z"/><path d="M122.51 115.99l-61.09 5.41c-3.3.29-6.21-2.15-6.51-5.45l-5.59-63.13a6.013 6.013 0 0 1 5.45-6.51l61.09-5.41 6.65 75.09z" fill="#424242"/><linearGradient id="i" x1="85.63" x2="85.63" y1="32.142" y2="110.06" gradientTransform="rotate(-5.062 86.634 67.952)" gradientUnits="userSpaceOnUse"><stop stop-color="#66BB6A" offset=".008"/><stop stop-color="#2E7D32" offset="1"/></linearGradient><path d="M124 106.49l-63.4 5.61c-3.3.29-6.21-2.15-6.51-5.45L48.3 41.23a6.013 6.013 0 0 1 5.45-6.51l63.4-5.61 6.85 77.38z" fill="url(#i)"/><path d="M114.42 32.36l6.33 71.49a3.01 3.01 0 0 0-2.06 3.12l.56 6.3-59.43 5.26c-.05 0-.1.01-.15.01-.85 0-1.57-.67-1.65-1.52l-.82-9.29-5-56.51-1.03-11.59c-.08-.91.6-1.72 1.51-1.8l61.74-5.47m2.73-3.25l-64.73 5.73c-2.56.23-4.46 2.49-4.23 5.05l1.03 11.59 5 56.51.82 9.29a4.663 4.663 0 0 0 5.06 4.23l62.42-5.53-.82-9.29 2.31-.2-6.86-77.38z" fill="#424242" opacity=".2"/><linearGradient id="j" x1="53.068" x2="115.02" y1="113.14" y2="113.14" gradientTransform="rotate(-5.062 86.634 67.952)" gradientUnits="userSpaceOnUse"><stop stop-color="#BDBDBD" offset=".01"/><stop stop-color="#F5F5F5" offset=".987"/></linearGradient><path d="M119.21 113.94l-58.52 5.18a3.213 3.213 0 0 1-3.48-2.91l-.05-.58a3.213 3.213 0 0 1 2.91-3.48l58.52-5.18.62 6.97z" fill="url(#j)"/><defs><path id="k" d="M124 106.49l-63.4 5.61c-3.3.29-6.21-2.15-6.51-5.45L48.3 41.23a6.013 6.013 0 0 1 5.45-6.51l63.4-5.61 6.85 77.38z"/></defs><clipPath id="l"><use xlink:href="#k"/></clipPath><path transform="rotate(-5.062 52.116 78.547)" clip-path="url(#l)" fill="#424242" d="M47.45 31.93h9.32v93.23h-9.32z"/></svg>