<svg viewBox="0 0 128 128" xmlns="http://www.w3.org/2000/svg"><path d="M108.39 48.19H47.72c-1.97 0-3.57-1.6-3.57-3.57V7.6c0-1.97 1.6-3.57 3.57-3.57h60.67c1.97 0 3.57 1.6 3.57 3.57v37.02c0 1.97-1.6 3.57-3.57 3.57z" fill="#F5F5F5"/><path d="M108.39 7.03c.31 0 .57.25.57.57v37.02c0 .31-.25.57-.57.57H47.72a.57.57 0 0 1-.57-.57V7.6c0-.31.25-.57.57-.57h60.67m0-3H47.72c-1.97 0-3.57 1.6-3.57 3.57v37.02c0 1.97 1.6 3.57 3.57 3.57h60.67c1.97 0 3.57-1.6 3.57-3.57V7.6c0-1.97-1.6-3.57-3.57-3.57z" fill="#424242" opacity=".2"/><linearGradient id="a" x1="63.991" x2="63.991" y1="123.82" y2="43.733" gradientUnits="userSpaceOnUse"><stop stop-color="#212121" offset="0"/><stop stop-color="#3D3D3D" offset=".352"/><stop stop-color="#575757" offset=".758"/><stop stop-color="#616161" offset="1"/></linearGradient><path d="M114.88 123.82H13.1c-4.89 0-8.89-4-8.89-8.89v-62.3c0-4.89 4-8.89 8.89-8.89h101.78c4.89 0 8.89 4 8.89 8.89v62.3c0 4.89-4 8.89-8.89 8.89z" fill="url(#a)"/><path d="M114.88 46.73c3.25 0 5.89 2.64 5.89 5.89v62.3c0 3.25-2.64 5.89-5.89 5.89H13.1c-3.25 0-5.89-2.64-5.89-5.89v-62.3c0-3.25 2.64-5.89 5.89-5.89h101.78m0-3H13.1c-4.89 0-8.89 4-8.89 8.89v62.3c0 4.89 4 8.89 8.89 8.89h101.78c4.89 0 8.89-4 8.89-8.89v-62.3c0-4.89-4-8.89-8.89-8.89z" fill="#eee" opacity=".2"/><linearGradient id="b" x1="27.98" x2="27.98" y1="115" y2="35" gradientUnits="userSpaceOnUse"><stop stop-color="#212121" offset="0"/><stop stop-color="#4E4E4E" offset=".716"/><stop stop-color="#616161" offset="1"/></linearGradient><path d="M27.98 115c-6.57 0-11.95-5.38-11.95-11.95v-56.1c0-6.57 5.38-11.95 11.95-11.95s11.95 5.38 11.95 11.95v56.09c0 6.58-5.38 11.96-11.95 11.96z" fill="url(#b)"/><path d="M27.98 38c4.94 0 8.95 4.02 8.95 8.95v56.09c0 4.94-4.02 8.95-8.95 8.95-4.94 0-8.95-4.02-8.95-8.95V46.95c0-4.93 4.01-8.95 8.95-8.95m0-3c-6.57 0-11.95 5.38-11.95 11.95v56.09c0 6.57 5.38 11.95 11.95 11.95s11.95-5.38 11.95-11.95V46.95c0-6.57-5.38-11.95-11.95-11.95z" fill="#eee" opacity=".2"/><linearGradient id="c" x1="73.941" x2="73.941" y1="63.88" y2="51.88" gradientUnits="userSpaceOnUse"><stop stop-color="#7CB342" offset=".003"/><stop stop-color="#558B2F" offset="1"/></linearGradient><path d="M93.95 63.88H53.93c-3.3 0-6-2.7-6-6v-.01c0-3.3 2.7-6 6-6h40.01c3.3 0 6 2.7 6 6v.01c0 3.3-2.69 6-5.99 6z" fill="url(#c)"/><circle cx="52.34" cy="74.38" r="4.4" fill="#BDBDBD"/><circle cx="81.79" cy="74.38" r="4.4" fill="#BDBDBD"/><circle cx="67.31" cy="74.38" r="4.4" fill="#BDBDBD"/><circle cx="52.34" cy="86.05" r="4.4" fill="#BDBDBD"/><circle cx="81.79" cy="86.05" r="4.4" fill="#BDBDBD"/><circle cx="67.31" cy="86.05" r="4.4" fill="#BDBDBD"/><circle cx="52.34" cy="97.73" r="4.4" fill="#BDBDBD"/><circle cx="81.79" cy="97.73" r="4.4" fill="#BDBDBD"/><circle cx="67.31" cy="97.73" r="4.4" fill="#BDBDBD"/><circle cx="52.34" cy="109.58" r="4.4" fill="#BDBDBD"/><circle cx="81.79" cy="109.58" r="4.4" fill="#BDBDBD"/><circle cx="67.31" cy="109.58" r="4.4" fill="#BDBDBD"/><path d="M112.15 78.1H95.72c-2.05 0-3.72-1.67-3.72-3.72s1.67-3.72 3.72-3.72h16.43c2.05 0 3.72 1.67 3.72 3.72.01 2.05-1.67 3.72-3.72 3.72zM112.15 89.77H95.72c-2.05 0-3.72-1.67-3.72-3.72s1.67-3.72 3.72-3.72h16.43c2.05 0 3.72 1.67 3.72 3.72.01 2.05-1.67 3.72-3.72 3.72zM112.15 101.45H95.72c-2.05 0-3.72-1.67-3.72-3.72s1.67-3.72 3.72-3.72h16.43c2.05 0 3.72 1.67 3.72 3.72.01 2.04-1.67 3.72-3.72 3.72zM112.15 113.3H95.72c-2.05 0-3.72-1.67-3.72-3.72s1.67-3.72 3.72-3.72h16.43c2.05 0 3.72 1.67 3.72 3.72.01 2.04-1.67 3.72-3.72 3.72z" fill="#90A4AE"/><g opacity=".2"><circle cx="107.47" cy="52.97" r=".89"/><circle cx="110" cy="52.97" r=".89"/><circle cx="112.54" cy="52.97" r=".89"/><circle cx="107.47" cy="63.11" r=".89"/><circle cx="110" cy="63.11" r=".89"/><circle cx="112.54" cy="63.11" r=".89"/><circle cx="107.47" cy="55.51" r=".89"/><circle cx="104.94" cy="55.51" r=".89"/><circle cx="110" cy="55.51" r=".89"/><circle cx="112.54" cy="55.51" r=".89"/><circle cx="115.07" cy="55.51" r=".89"/><circle cx="107.47" cy="58.04" r=".89"/><circle cx="104.94" cy="58.04" r=".89"/><circle cx="110" cy="58.04" r=".89"/><circle cx="112.54" cy="58.04" r=".89"/><circle cx="115.07" cy="58.04" r=".89"/><circle cx="107.47" cy="60.58" r=".89"/><circle cx="104.94" cy="60.58" r=".89"/><circle cx="110" cy="60.58" r=".89"/><circle cx="112.54" cy="60.58" r=".89"/><circle cx="115.07" cy="60.58" r=".89"/></g><path fill="#757575" opacity=".7" stroke="#757575" stroke-linecap="round" stroke-linejoin="round" stroke-miterlimit="10" stroke-width="2" d="M52 16.11h52M52 26.11h52M52 36.11h52"/></svg>