<svg viewBox="0 0 128 128" xmlns="http://www.w3.org/2000/svg"><linearGradient id="a" x1="24.003" x2="24.003" y1="31.375" y2="39.126" gradientUnits="userSpaceOnUse"><stop stop-color="#BDBDBD" offset="0"/><stop stop-color="#B8B8B8" offset=".211"/><stop stop-color="#A8A8A8" offset=".476"/><stop stop-color="#8E8E8E" offset=".769"/><stop stop-color="#757575" offset="1"/></linearGradient><path d="M38.9 43H9.1c-.98 0-1.77-.79-1.77-1.77v-8.46c.01-.98.8-1.77 1.77-1.77h29.8c.98 0 1.77.79 1.77 1.77v8.46c0 .98-.79 1.77-1.77 1.77z" fill="url(#a)"/><path d="M37.67 34v6H10.34v-6h27.33m1.23-3H9.1c-.98 0-1.77.79-1.77 1.77v8.46c.01.98.8 1.77 1.77 1.77h29.8c.98 0 1.77-.79 1.77-1.77v-8.46c0-.98-.79-1.77-1.77-1.77z" fill="#424242" opacity=".2"/><radialGradient id="b" cx="76.833" cy="63" r="71.176" gradientTransform="matrix(-.00258 1 -1.1098 -.00286 146.95 -13.653)" gradientUnits="userSpaceOnUse"><stop stop-color="#616161" offset="0"/><stop stop-color="#212121" offset="1"/></radialGradient><path fill="url(#b)" d="M4.01 51H124v68H4.01z"/><path d="M120.99 54v62H7.01V54h113.98m3-3H4.01v68H124V51h-.01z" fill="#eee" opacity=".2"/><path d="M120 124H8c-2.21 0-4-1.79-4-4v-4h119.99v4c0 2.21-1.79 4-3.99 4zM120 28H48c-2.21 0-4 1.79-4 4v5c0 1.1-.9 2-2 2H8c-2.21 0-4 1.79-4 4v12h119.99V32c0-2.21-1.79-4-3.99-4z" fill="#BDBDBD"/><path d="M70.37 39c.9 0 1.63.73 1.63 1.63v4.73c0 .9-.73 1.63-1.63 1.63H53.63c-.9 0-1.63-.73-1.63-1.63v-4.73c0-.9.73-1.63 1.63-1.63h16.74m0-2H53.63c-2 0-3.63 1.63-3.63 3.63v4.73c0 2 1.63 3.63 3.63 3.63h16.73c2 0 3.63-1.63 3.63-3.63v-4.73c.01-2-1.62-3.63-3.62-3.63zM113.2 36.2c.99 0 1.8.81 1.8 1.8v7.2c0 .99-.81 1.8-1.8 1.8H98.8c-.99 0-1.8-.81-1.8-1.8V38c0-.99.81-1.8 1.8-1.8h14.4m0-2H98.8c-2.1 0-3.8 1.7-3.8 3.8v7.2c0 2.1 1.7 3.8 3.8 3.8h14.4c2.1 0 3.8-1.7 3.8-3.8V38c0-2.1-1.71-3.8-3.8-3.8zM120.99 116v4c0 .55-.45 1-1 1H8c-.55 0-1-.45-1-1v-4H4v4c0 2.21 1.79 4 4 4h112c2.21 0 4-1.79 4-4v-4h-3.01z" fill="#424242" opacity=".2"/><path d="M119.98 28.01H47.99c-2.21 0-4 1.79-4 4v5c0 1.1-.9 2-2 2h-34c-2.21 0-4 1.79-4 4v12L7 55l-.01-11.99c0-.55.45-1 1-1h34c2.76 0 5-2.24 5-5v-5c0-.55.45-1 1-1h71.99c.55 0 1 .45 1 1V55l3 .01-.01-23c.01-2.21-1.78-4-3.99-4z" fill="#424242" opacity=".2"/><radialGradient id="c" cx="106" cy="41.6" r="12.253" gradientTransform="matrix(.9999 0 0 1 .005 0)" gradientUnits="userSpaceOnUse"><stop stop-color="#616161" offset="0"/><stop stop-color="#212121" offset="1"/></radialGradient><path d="M113.2 47H98.8c-.99 0-1.8-.81-1.8-1.8V38c0-.99.81-1.8 1.8-1.8h14.4c.99 0 1.8.81 1.8 1.8v7.2c0 .99-.81 1.8-1.8 1.8z" fill="url(#c)"/><path d="M70.37 47H53.63c-.9 0-1.63-.73-1.63-1.63v-4.73c0-.9.73-1.63 1.63-1.63h16.73c.9 0 1.63.73 1.63 1.63v4.73c.01.9-.72 1.63-1.62 1.63zM82 47c-1.1 0-2-.9-2-2v-4c0-1.1.9-2 2-2s2 .9 2 2v4c0 1.1-.9 2-2 2z" fill="#E0E0E0"/><path d="M82 42c-.55 0-1-.45-1-1s.45-1 1-1 1 .45 1 1-.45 1-1 1z" fill="#757575"/><path d="M82 46c-.55 0-1-.45-1-1s.45-1 1-1 1 .45 1 1-.45 1-1 1z" fill="#FAFAFA"/><g fill="#F5F5F5"><path d="M53.5 39h1v8h-1zM55.54 39h1v8h-1zM57.58 39h1v8h-1zM59.62 39h1v8h-1zM61.66 39h1v8h-1zM63.7 39h1v8h-1zM65.73 39h1v8h-1zM67.77 39h1v8h-1zM69.81 39h1v8h-1z"/></g><path d="M44.5 59c1.66 0 3 1.34 3 3s-1.34 3-3 3-3-1.34-3-3 1.34-3 3-3m0-2c-2.76 0-5 2.24-5 5s2.24 5 5 5 5-2.24 5-5-2.24-5-5-5zM82 39c1.1 0 2 .9 2 2v4c0 1.1-.9 2-2 2s-2-.9-2-2v-4c0-1.1.9-2 2-2m0-2c-2.21 0-4 1.79-4 4v4c0 2.21 1.79 4 4 4s4-1.79 4-4v-4c0-2.21-1.8-4-4-4z" fill="#424242" opacity=".2"/><circle cx="44.5" cy="62" r="3" fill="#E0E0E0"/><path d="M31 51c1.1 0 2 .9 2 2v4.42c1.76.77 3 2.53 3 4.58 0 2.76-2.24 5-5 5s-5-2.24-5-5c0-2.05 1.24-3.81 3-4.58V53c0-1.1.9-2 2-2m0-2c-2.21 0-4 1.79-4 4v3.26A6.99 6.99 0 0 0 24 62c0 3.86 3.14 7 7 7s7-3.14 7-7a6.99 6.99 0 0 0-3-5.74V53c0-2.21-1.79-4-4-4z" fill="#424242" opacity=".2"/><ellipse cx="78" cy="85" rx="32" ry="32" fill="#BDBDBD"/><linearGradient id="d" x1="77.999" x2="77.999" y1="58.872" y2="110.75" gradientUnits="userSpaceOnUse"><stop stop-color="#616161" offset="0"/><stop stop-color="#212121" offset="1"/></linearGradient><ellipse cx="78" cy="85" rx="26" ry="26" fill="url(#d)"/><radialGradient id="e" cx="77.875" cy="61.625" r="46.878" gradientTransform="matrix(.9999 0 0 1 .005 0)" gradientUnits="userSpaceOnUse"><stop stop-color="#424242" offset="0"/><stop stop-color="#212121" offset="1"/></radialGradient><ellipse cx="78" cy="85" rx="23" ry="23" fill="url(#e)"/><radialGradient id="f" cx="77.875" cy="85" r="10" gradientTransform="matrix(.9999 0 0 1 .005 0)" gradientUnits="userSpaceOnUse"><stop stop-color="#757575" offset="0"/><stop stop-color="#6A6A6A" offset=".203"/><stop stop-color="#4D4D4D" offset=".558"/><stop stop-color="#212121" offset="1"/></radialGradient><circle cx="78" cy="85" r="10" fill="url(#f)"/><path d="M78 75c5.52 0 10 4.48 10 10s-4.48 10-10 10-10-4.48-10-10 4.48-10 10-10m0-3c-7.17 0-13 5.83-13 13s5.83 13 13 13 13-5.83 13-13-5.83-13-13-13z" fill="#eee" opacity=".2"/><linearGradient id="g" x1="31.03" x2="31.03" y1="51.094" y2="59.187" gradientUnits="userSpaceOnUse"><stop stop-color="#E0E0E0" offset="0"/><stop stop-color="#9E9E9E" offset="1"/></linearGradient><path d="M31.03 63c-1.1 0-2-.9-2-2v-8c0-1.1.9-2 2-2s2 .9 2 2v8c0 1.1-.9 2-2 2z" fill="url(#g)"/><circle cx="31.03" cy="62" r="5" fill="#E0E0E0"/><circle cx="31.03" cy="62" r="3.5" fill="#757575"/><path d="M31.03 59c1.66 0 3 1.34 3 3s-1.34 3-3 3-3-1.34-3-3 1.34-3 3-3m0-1c-2.21 0-4 1.79-4 4s1.79 4 4 4 4-1.79 4-4-1.79-4-4-4z" fill="#9E9E9E"/><path d="M31.07 56.23H31a.96.96 0 0 1-.96-.96V53.2c0-.53.43-.96.96-.96h.07c.53 0 .96.43.96.96v2.07c0 .53-.43.96-.96.96z" fill="#F44336"/><path d="M78 77c4.41 0 8 3.59 8 8s-3.59 8-8 8-8-3.59-8-8 3.59-8 8-8m0-2c-5.52 0-10 4.48-10 10s4.48 10 10 10 10-4.48 10-10-4.48-10-10-10z" fill="#424242" opacity=".2"/></svg>