<svg viewBox="0 0 128 128" xmlns="http://www.w3.org/2000/svg"><linearGradient id="a" x1="24.003" x2="24.003" y1="31.375" y2="39.126" gradientUnits="userSpaceOnUse"><stop stop-color="#BDBDBD" offset="0"/><stop stop-color="#B8B8B8" offset=".211"/><stop stop-color="#A8A8A8" offset=".476"/><stop stop-color="#8E8E8E" offset=".769"/><stop stop-color="#757575" offset="1"/></linearGradient><path d="M38.9 43H9.1c-.98 0-1.77-.79-1.77-1.77v-8.46c.01-.98.8-1.77 1.77-1.77h29.8c.98 0 1.77.79 1.77 1.77v8.46c0 .98-.79 1.77-1.77 1.77z" fill="url(#a)"/><path d="M37.67 34v6H10.34v-6h27.33m1.23-3H9.1c-.98 0-1.77.79-1.77 1.77v8.46c.01.98.8 1.77 1.77 1.77h29.8c.98 0 1.77-.79 1.77-1.77v-8.46c0-.98-.79-1.77-1.77-1.77z" fill="#424242" opacity=".2"/><radialGradient id="b" cx="76.833" cy="63" r="71.176" gradientTransform="matrix(-.00258 1 -1.1098 -.00286 146.95 -13.653)" gradientUnits="userSpaceOnUse"><stop stop-color="#616161" offset="0"/><stop stop-color="#212121" offset="1"/></radialGradient><path fill="url(#b)" d="M4.01 51H124v68H4.01z"/><path d="M120.99 54v62H7.01V54h113.98m3-3H4.01v68H124V51h-.01z" fill="#eee" opacity=".2"/><path d="M120 124H8c-2.21 0-4-1.79-4-4v-4h119.99v4c0 2.21-1.79 4-3.99 4zM120 28H48c-2.21 0-4 1.79-4 4v5c0 1.1-.9 2-2 2H8c-2.21 0-4 1.79-4 4v12h119.99V32c0-2.21-1.79-4-3.99-4z" fill="#BDBDBD"/><path d="M70.37 39c.9 0 1.63.73 1.63 1.63v4.73c0 .9-.73 1.63-1.63 1.63H53.63c-.9 0-1.63-.73-1.63-1.63v-4.73c0-.9.73-1.63 1.63-1.63h16.74m0-2H53.63c-2 0-3.63 1.63-3.63 3.63v4.73c0 2 1.63 3.63 3.63 3.63h16.73c2 0 3.63-1.63 3.63-3.63v-4.73c.01-2-1.62-3.63-3.62-3.63zM113.2 36.2c.99 0 1.8.81 1.8 1.8v7.2c0 .99-.81 1.8-1.8 1.8H98.8c-.99 0-1.8-.81-1.8-1.8V38c0-.99.81-1.8 1.8-1.8h14.4m0-2H98.8c-2.1 0-3.8 1.7-3.8 3.8v7.2c0 2.1 1.7 3.8 3.8 3.8h14.4c2.1 0 3.8-1.7 3.8-3.8V38c0-2.1-1.71-3.8-3.8-3.8zM120.99 116v4c0 .55-.45 1-1 1H8c-.55 0-1-.45-1-1v-4H4v4c0 2.21 1.79 4 4 4h112c2.21 0 4-1.79 4-4v-4h-3.01z" fill="#424242" opacity=".2"/><path d="M119.98 28.01H47.99c-2.21 0-4 1.79-4 4v5c0 1.1-.9 2-2 2h-34c-2.21 0-4 1.79-4 4v12L7 55l-.01-11.99c0-.55.45-1 1-1h34c2.76 0 5-2.24 5-5v-5c0-.55.45-1 1-1h71.99c.55 0 1 .45 1 1V55l3 .01-.01-23c.01-2.21-1.78-4-3.99-4z" fill="#424242" opacity=".2"/><radialGradient id="c" cx="106" cy="41.6" r="12.253" gradientTransform="matrix(.9999 0 0 1 .005 0)" gradientUnits="userSpaceOnUse"><stop stop-color="#616161" offset="0"/><stop stop-color="#212121" offset="1"/></radialGradient><path d="M113.2 47H98.8c-.99 0-1.8-.81-1.8-1.8V38c0-.99.81-1.8 1.8-1.8h14.4c.99 0 1.8.81 1.8 1.8v7.2c0 .99-.81 1.8-1.8 1.8z" fill="url(#c)"/><path d="M70.37 47H53.63c-.9 0-1.63-.73-1.63-1.63v-4.73c0-.9.73-1.63 1.63-1.63h16.73c.9 0 1.63.73 1.63 1.63v4.73c.01.9-.72 1.63-1.62 1.63zM82 47c-1.1 0-2-.9-2-2v-4c0-1.1.9-2 2-2s2 .9 2 2v4c0 1.1-.9 2-2 2z" fill="#E0E0E0"/><path d="M82 42c-.55 0-1-.45-1-1s.45-1 1-1 1 .45 1 1-.45 1-1 1z" fill="#757575"/><path d="M82 46c-.55 0-1-.45-1-1s.45-1 1-1 1 .45 1 1-.45 1-1 1z" fill="#FAFAFA"/><g fill="#F5F5F5"><path d="M53.5 39h1v8h-1zM55.54 39h1v8h-1zM57.58 39h1v8h-1zM59.62 39h1v8h-1zM61.66 39h1v8h-1zM63.7 39h1v8h-1zM65.73 39h1v8h-1zM67.77 39h1v8h-1zM69.81 39h1v8h-1z"/></g><path d="M44.5 59c1.66 0 3 1.34 3 3s-1.34 3-3 3-3-1.34-3-3 1.34-3 3-3m0-2c-2.76 0-5 2.24-5 5s2.24 5 5 5 5-2.24 5-5-2.24-5-5-5zM82 39c1.1 0 2 .9 2 2v4c0 1.1-.9 2-2 2s-2-.9-2-2v-4c0-1.1.9-2 2-2m0-2c-2.21 0-4 1.79-4 4v4c0 2.21 1.79 4 4 4s4-1.79 4-4v-4c0-2.21-1.8-4-4-4z" fill="#424242" opacity=".2"/><circle cx="44.5" cy="62" r="3" fill="#E0E0E0"/><path d="M31 51c1.1 0 2 .9 2 2v4.42c1.76.77 3 2.53 3 4.58 0 2.76-2.24 5-5 5s-5-2.24-5-5c0-2.05 1.24-3.81 3-4.58V53c0-1.1.9-2 2-2m0-2c-2.21 0-4 1.79-4 4v3.26A6.99 6.99 0 0 0 24 62c0 3.86 3.14 7 7 7s7-3.14 7-7a6.99 6.99 0 0 0-3-5.74V53c0-2.21-1.79-4-4-4z" fill="#424242" opacity=".2"/><ellipse cx="78" cy="85" rx="32" ry="32" fill="#BDBDBD"/><linearGradient id="d" x1="77.999" x2="77.999" y1="58.872" y2="110.75" gradientUnits="userSpaceOnUse"><stop stop-color="#616161" offset="0"/><stop stop-color="#212121" offset="1"/></linearGradient><ellipse cx="78" cy="85" rx="26" ry="26" fill="url(#d)"/><radialGradient id="e" cx="77.875" cy="61.625" r="46.878" gradientTransform="matrix(.9999 0 0 1 .005 0)" gradientUnits="userSpaceOnUse"><stop stop-color="#424242" offset="0"/><stop stop-color="#212121" offset="1"/></radialGradient><ellipse cx="78" cy="85" rx="23" ry="23" fill="url(#e)"/><radialGradient id="f" cx="77.875" cy="85" r="10" gradientTransform="matrix(.9999 0 0 1 .005 0)" gradientUnits="userSpaceOnUse"><stop stop-color="#757575" offset="0"/><stop stop-color="#6A6A6A" offset=".203"/><stop stop-color="#4D4D4D" offset=".558"/><stop stop-color="#212121" offset="1"/></radialGradient><circle cx="78" cy="85" r="10" fill="url(#f)"/><path d="M78 75c5.52 0 10 4.48 10 10s-4.48 10-10 10-10-4.48-10-10 4.48-10 10-10m0-3c-7.17 0-13 5.83-13 13s5.83 13 13 13 13-5.83 13-13-5.83-13-13-13z" fill="#eee" opacity=".2"/><linearGradient id="g" x1="31.03" x2="31.03" y1="51.094" y2="59.187" gradientUnits="userSpaceOnUse"><stop stop-color="#E0E0E0" offset="0"/><stop stop-color="#9E9E9E" offset="1"/></linearGradient><path d="M31.03 63c-1.1 0-2-.9-2-2v-8c0-1.1.9-2 2-2s2 .9 2 2v8c0 1.1-.9 2-2 2z" fill="url(#g)"/><circle cx="31.03" cy="62" r="5" fill="#E0E0E0"/><circle cx="31.03" cy="62" r="3.5" fill="#757575"/><path d="M31.03 59c1.66 0 3 1.34 3 3s-1.34 3-3 3-3-1.34-3-3 1.34-3 3-3m0-1c-2.21 0-4 1.79-4 4s1.79 4 4 4 4-1.79 4-4-1.79-4-4-4z" fill="#9E9E9E"/><path d="M31.07 56.23H31a.96.96 0 0 1-.96-.96V53.2c0-.53.43-.96.96-.96h.07c.53 0 .96.43.96.96v2.07c0 .53-.43.96-.96.96z" fill="#F44336"/><path d="M78 77c4.41 0 8 3.59 8 8s-3.59 8-8 8-8-3.59-8-8 3.59-8 8-8m0-2c-5.52 0-10 4.48-10 10s4.48 10 10 10 10-4.48 10-10-4.48-10-10-10z" fill="#424242" opacity=".2"/><radialGradient id="h" cx="73.49" cy="29.25" r="32.076" gradientTransform="matrix(.9999 0 0 1 .005 0)" gradientUnits="userSpaceOnUse"><stop stop-color="#ff0" offset="0"/><stop stop-color="#ff0" offset=".508"/><stop stop-color="#FFF100" offset=".762"/><stop stop-color="#FFEA00" offset="1"/></radialGradient><path d="M75.17 4.21L70.6 18.74c-.07.22-.36.28-.51.11L60.84 8.22c-.21-.24-.6-.03-.52.27l2.63 10.03c.06.25-.18.46-.41.35C59.03 17.18 43.79 11.22 44 12s9.88 10.03 12.45 12.47c.18.17.08.48-.17.51l-14.94 2.09c-.32.04-.35.49-.05.58l16.04 4.91c.25.08.3.41.07.54-3.06 1.77-16.96 9.81-16.4 9.81.58 0 18.56-.74 21.35-.85.19-.01.33.16.31.35l-2.48 15.65c-.05.31.35.48.54.23L71.74 43.6c.12-.17.37-.16.49.01l7.32 10.99c.15.23.51.15.55-.13l1.43-10.67c.03-.23.31-.34.49-.19l10.64 8.96a.3.3 0 0 0 .49-.27l-1.09-8.53c-.03-.23.2-.41.42-.31l19.1 8.51c.32.14.58-.3.3-.51L97.59 37.72c-.18-.14-.14-.43.07-.51l13.5-5.61a.3.3 0 0 0-.04-.57l-14.6-3.65a.299.299 0 0 1-.14-.5l10.73-10.73c.22-.22-.01-.6-.31-.5L90.75 21c-.26.09-.49-.19-.36-.43l8.87-15.61c.16-.29-.19-.59-.45-.38l-18.45 14.4c-.17.13-.42.05-.47-.15l-4.13-14.6c-.1-.3-.5-.3-.59-.02z" fill="url(#h)"/><path d="M75.32 13.73l1.67 5.91c.4 1.41 1.71 2.4 3.18 2.4.73 0 1.45-.25 2.03-.7l7.72-6.03-2.14 3.78a3.303 3.303 0 0 0 3.92 4.76l5.2-1.73-2.64 2.64c-.84.84-1.16 2.07-.85 3.21a3.322 3.322 0 0 0 2.38 2.32l6.68 1.67-5.96 2.47a3.3 3.3 0 0 0-.95 5.49l3.14 3.02-5.03-2.24c-.41-.18-.85-.27-1.3-.27-.95 0-1.85.41-2.48 1.12s-.92 1.66-.8 2.6l.21 1.66-5.34-4.5a3.3 3.3 0 0 0-2.12-.78c-1.65 0-3.05 1.23-3.27 2.86l-.48 3.57-3.35-5.03a3.292 3.292 0 0 0-2.75-1.47c-1.03 0-2.02.49-2.64 1.32l-4.49 5.99.78-4.91c.15-.96-.12-1.93-.75-2.66s-1.54-1.15-2.51-1.15h-.13c-3.35.14-6.75.28-9.81.4 1.96-1.15 4.15-2.42 6.48-3.76a3.302 3.302 0 0 0 1.63-3.22 3.315 3.315 0 0 0-2.32-2.79l-4.38-1.34 2.86-.4c1.25-.17 2.3-1.06 2.69-2.26.39-1.22.06-2.52-.87-3.4-1.14-1.08-2.32-2.21-3.48-3.33C57.7 20 60.08 21 61.26 21.56c.44.21.94.33 1.43.33 1.01 0 1.99-.48 2.61-1.28.44-.57.67-1.24.69-1.93l1.86 2.13a3.295 3.295 0 0 0 5.64-1.17l1.83-5.91M75.45 4c-.12 0-.24.07-.29.21l-4.57 14.53a.3.3 0 0 1-.29.21.32.32 0 0 1-.23-.1L60.84 8.22a.284.284 0 0 0-.22-.1c-.18 0-.35.16-.29.38l2.63 10.03c.05.2-.1.38-.29.38-.04 0-.09-.01-.13-.03-3.29-1.58-16.93-6.94-18.41-6.94-.1 0-.14.02-.13.07.21.78 9.88 10.03 12.45 12.47.18.17.08.48-.17.51l-14.94 2.09c-.32.04-.35.49-.05.58l16.04 4.91c.25.08.3.41.07.54-3.06 1.77-16.96 9.81-16.4 9.81.58 0 18.56-.74 21.35-.85h.01c.18 0 .32.16.29.35l-2.48 15.65c-.03.2.13.35.3.35.09 0 .17-.04.24-.12l11.02-14.69c.06-.08.15-.12.24-.12.1 0 .19.04.25.13l7.32 10.99c.06.09.15.13.25.13a.3.3 0 0 0 .3-.26l1.43-10.67a.3.3 0 0 1 .49-.19l10.64 8.96a.3.3 0 0 0 .49-.27l-1.09-8.53c-.02-.19.13-.34.3-.34.04 0 .08.01.12.02l19.1 8.51c.04.02.08.03.12.03.26 0 .42-.35.18-.54L97.59 37.72c-.18-.14-.14-.43.07-.51l13.5-5.61a.3.3 0 0 0-.04-.57l-14.6-3.65a.299.299 0 0 1-.14-.5l10.73-10.73c.2-.2.04-.51-.21-.51-.03 0-.07.01-.1.02l-16.05 5.35c-.03.01-.07.02-.1.02a.3.3 0 0 1-.26-.45l8.87-15.61c.13-.22-.05-.45-.26-.45-.06 0-.12.02-.18.07l-18.45 14.4c-.06.04-.12.06-.18.06-.13 0-.25-.08-.29-.22l-4.13-14.6c-.07-.16-.19-.23-.32-.23z" fill="#F44336" opacity=".8"/></svg>