<svg viewBox="0 0 128 128" xmlns="http://www.w3.org/2000/svg"><linearGradient id="a" x1="-93.047" x2="-93.047" y1="-73.413" y2="-17.291" gradientUnits="userSpaceOnUse"><stop stop-color="#eee" offset=".005"/><stop stop-color="#EAEAEA" offset=".282"/><stop stop-color="#ddd" offset=".577"/><stop stop-color="#C8C8C8" offset=".879"/><stop stop-color="#BDBDBD" offset="1"/></linearGradient><path d="M-42.13-44.72c-.91-4.33-4.3-20.11-5.87-27.41-.47-2.21-2.11-3.82-3.99-3.81-5.36 0-15.39-.05-16.6-.05h-44.08c-.61 0-2.56.06-4.11 1.79-4.7 5.27-12.54 20.52-13.76 22.07-.08.1-6.27 2.31-9.09 4-1.12.67-1.74 2.13-1.9 3.63l-2.46 20.75c-.64 4.1 1.7 5.76 5.37 5.76h91.51c2.8 0 5.11-.68 5.11-5.69v-19.79c0-.43-.05-.85-.13-1.25z" fill="url(#a)"/><defs><path id="b" d="M-42.13-44.78c-.91-4.32-4.3-20.06-5.87-27.34-.47-2.21-2.11-3.82-3.99-3.82-5.36 0-15.39-.06-16.6-.06h-44.08c-.61 0-2.56.07-4.11 1.8-4.7 5.26-12.54 20.51-13.76 22.05-.08.1-6.27 2.28-9.09 3.96-1.12.67-1.74 2.13-1.9 3.62l-2.46 20.76c-.64 4.09 1.7 5.81 5.37 5.81h91.51c2.8 0 5.11-.79 5.11-5.8v-19.74c0-.42-.05-.83-.13-1.24z"/></defs><path d="M-51.98-73c.36 0 .87.59 1.05 1.44 1.46 6.78 4.95 23.06 5.86 27.43.04.2.07.44.07.66v19.79c0 2.81-.49 2.69-2.11 2.69h-91.51c-1.3 0-2.02-.23-2.25-.5s-.3-.92-.16-1.77c.01-.04.01-.06.02-.09l2.47-20.83c.08-.8.36-1.28.46-1.36 1.87-1.12 5.83-2.66 7.51-3.31 1.46-.57 1.86-.72 2.39-1.39.5-.63 1.28-2 2.99-5.03 2.85-5.03 7.61-13.53 10.65-16.93.57-.64 1.22-.79 1.87-.79h60.69-.02m.02-3.01s-.01 0 0 0h-60.7c-.63 0-2.55.08-4.08 1.79-4.7 5.27-12.54 20.52-13.76 22.07-.08.1-6.27 2.31-9.09 4-1.12.67-1.74 2.13-1.9 3.63l-2.46 20.75c-.64 4.1 1.7 5.76 5.37 5.76h91.51c2.8 0 5.11-.68 5.11-5.69v-19.79c0-.42-.05-.84-.13-1.24-.91-4.33-4.3-20.17-5.87-27.47-.49-2.21-2.13-3.81-4-3.81z" fill="#424242" opacity=".2"/><linearGradient id="c" x1="46.43" x2="46.43" y1="-117.5" y2="-61.374" gradientUnits="userSpaceOnUse"><stop stop-color="#616161" offset=".011"/><stop stop-color="#5D5D5D" offset=".25"/><stop stop-color="#505050" offset=".504"/><stop stop-color="#3B3B3B" offset=".766"/><stop stop-color="#212121" offset="1"/></linearGradient><path d="M97.35-88.93c-.91-4.33-4.3-20.11-5.86-27.41-.47-2.21-2.11-3.75-3.99-3.75-5.36 0-15.39.01-16.6.01H26.82c-.61 0-2.56-.01-4.11 1.73C18-113.07 10.16-97.86 8.95-96.31c-.08.1-6.27 2.3-9.09 3.99-1.12.67-1.74 2.12-1.9 3.62L-4.5-67.9c-.64 4.1 1.7 5.82 5.37 5.82h91.51c2.8 0 5.1-.8 5.1-5.81v-19.79c-.01-.43-.05-.84-.13-1.25z" fill="url(#c)"/><defs><path id="d" d="M97.35-88.98c-.91-4.32-4.3-20.06-5.86-27.34-.47-2.21-2.11-3.74-3.99-3.74-5.36 0-15.39.01-16.6.01H26.82c-.61 0-2.56-.01-4.11 1.72C18-113.06 10.16-97.85 8.95-96.31c-.08.1-6.27 2.26-9.09 3.94-1.12.67-1.74 2.12-1.9 3.61L-4.51-68c-.64 4.09 1.7 5.8 5.37 5.8h91.51c2.8 0 5.1-.79 5.1-5.8v-19.74c0-.42-.04-.84-.12-1.24z"/></defs><path d="M87.5-117.08c.36 0 .87.53 1.05 1.38 1.46 6.78 4.94 23.03 5.86 27.4.04.2.06.41.06.63v19.79c0 2.81-.49 2.81-2.1 2.81H.86c-1.3 0-2.02-.29-2.25-.56s-.3-.95-.16-1.8l.02-.1L.94-88.37c.08-.8.36-1.28.46-1.36 1.87-1.12 5.83-2.66 7.51-3.31 1.46-.57 1.86-.72 2.39-1.39.5-.63 1.28-2 2.99-5.03 2.85-5.03 7.61-13.46 10.65-16.87.57-.64 1.22-.72 1.87-.72h44.08c.75 0 4.89 0 9.21-.01l7.4-.02m0-3c-5.36 0-15.39.01-16.6.01H26.8c-.63 0-2.55.01-4.08 1.73C18-113.07 10.16-97.86 8.95-96.31c-.08.1-6.27 2.3-9.09 3.99-1.12.67-1.74 2.12-1.9 3.62L-4.5-67.9c-.64 4.1 1.7 5.82 5.37 5.82h91.51c2.8 0 5.1-.8 5.1-5.81v-19.79c0-.42-.04-.84-.13-1.24-.91-4.33-4.3-20.11-5.86-27.41-.48-2.22-2.12-3.75-3.99-3.75z" fill="#eee" opacity=".2"/><linearGradient id="e" x1="46.435" x2="62.435" y1="247.63" y2="247.63" gradientTransform="rotate(-45.001 80.266 72.954)" gradientUnits="userSpaceOnUse"><stop stop-color="#FFC400" offset=".006"/><stop stop-color="#FFD740" offset="1"/></linearGradient><path d="M227.73 252.72l-4.23 4.23a5.028 5.028 0 0 1-7.09 0l-70.99-70.99c-3.11-3.11-3.11-8.2 0-11.31s8.2-3.11 11.31 0l70.99 70.99c1.96 1.94 1.96 5.13.01 7.08z" fill="url(#e)"/><path d="M151.08 175.31c1.34 0 2.6.52 3.54 1.45l70.99 70.99c.77.77.77 2.07 0 2.85l-4.23 4.23c-.38.38-.88.58-1.42.58s-1.05-.21-1.42-.58l-70.99-70.99a5.003 5.003 0 0 1 0-7.07c.93-.95 2.19-1.46 3.53-1.46m0-3c-2.05 0-4.1.78-5.66 2.33-3.11 3.11-3.11 8.2 0 11.31l70.99 70.99c.97.97 2.26 1.46 3.54 1.46s2.57-.49 3.54-1.46l4.23-4.23a5.028 5.028 0 0 0 0-7.09l-70.99-70.99a8.003 8.003 0 0 0-5.65-2.32z" fill="#424242" opacity=".2"/><path d="M83.8-6.08c1.45 0 2.71-.9 2.89-2.17v-8.67c0-1.08.9-1.99 2.17-2.17 4.7-.72 11.57-1.45 19.34-.54 2.89.36 4.52-2.71 1.99-3.8-1.42-.76-2.85-1.49-4.31-2.18-1.55-.74-3.13-1.43-4.73-2.06-1.66-.66-3.34-1.26-5.05-1.78-1.73-.53-3.49-1.02-5.19-1.42-.93-.21-1.97-.46-2.91-.65-1.74-.35-2.58-.31-3.6-.31-6.83 0-15.78.08-22.62.08h-9.32c-1.6 0-3.3-.17-4.88.03-1.15.15-2.29.93-2.46 2.14v2.89c-.36.36-1.08.72-1.81.72-.72 0-1.45-.36-1.81-.72-.29-.29-.4-.87-.58-1.23-.31-.6-.59-1.13-.82-1.78-.48-1.36-1.48-2.06-2.94-2.06h-8.67c-1.45 0-2.71.9-2.89 2.17l.54 21.14c0 1.08 1.08 2.17 2.89 2.17h8.67c1.27 0 2.19-.73 2.77-1.81.29-.54.46-1.13.77-1.66.3-.51.53-1.06.8-1.59.36-.36 1.08-.72 1.81-.72.72 0 1.45.36 1.81.72v2.89c0 1.08 1.08 2.17 2.89 2.17l35.25.2zM-44.21 132.44l-4.7-88.19c0-.72.54-1.27 1.08-1.08h12.29c1.45 0 2.71-.9 2.89-2.17v-8.67c0-1.08.9-1.99 2.17-2.17 4.7-.72 11.57-1.45 19.34-.54 2.89.36 4.52-2.71 1.99-3.8-7.05-3.8-16.45-7.77-25.84-8.13-.18-.18-.36 0-.54-.18h-35.78c-1.45 0-2.71.9-2.89 2.17v2.89c-.36.36-1.08.72-1.81.72-.72 0-1.45-.36-1.81-.72l-1.45-2.89c0-1.08-1.08-2.17-2.89-2.17h-8.67c-1.45 0-2.71.9-2.89 2.17l.54 21.14c0 1.08 1.08 2.17 2.89 2.17h8.67c1.45 0 2.71-.9 2.89-2.17l1.45-2.89c.36-.36 1.08-.72 1.81-.72.72 0 1.45.36 1.81.72v2.89c0 1.08 1.08 2.17 2.89 2.17h6.14c.72 0 1.27.54 1.08 1.08l-4.34 88.19c-.18 4.52 3.25 8.31 7.23 8.31h9.04c4.16.18 7.59-3.61 7.41-8.13z" fill="#78909C"/><linearGradient id="f" x1="15.604" x2="105.2" y1="194.26" y2="194.26" gradientTransform="rotate(-45.001 80.266 72.954)" gradientUnits="userSpaceOnUse"><stop stop-color="#757575" offset="0"/><stop stop-color="#BDBDBD" offset="1"/></linearGradient><path d="M180.96 140.64c-16.53 3.04-24.94 10.24-27.34 12.22-.15.09-.28.21-.41.33l-26.22 26.22c-.94.94-.95 2.47 0 3.41l1.66 1.66c.74.74 1.13 2.04.18 2.99l-.01.01c-.98.98-2.33.47-3.1-.3l.09.1a4.839 4.839 0 0 0-6.76.07l-6.17 6.17c-.94.94-.97 2.5-.03 3.44l14.77 14.77c.94.94 2.7 1.12 3.64.17l6.33-6.33c1.79-1.79 1.59-4.91-.21-6.7l-.08-.08.02-.02c-.7-.77-.77-2.06-.03-2.8l.01-.01c.74-.74 2.03-.67 2.8.03l.01-.01 1.63 1.63c.94.94 2.67 1.14 3.62.2l26.22-26.22c.94-.94.8-2.73-.14-3.68l-5.97-5.97c-4.06-4.06 17.74-16.22 17.74-16.22 1.58-.74 1.82-2.51 1.39-3.4-.44-.97-1.45-2.01-3.64-1.68z" fill="url(#f)"/><path d="M180.61 143.76c-1.63.94-4.74 2.81-7.93 4.99-8.89 6.1-10.36 9.23-10.65 11.28-.21 1.52.26 2.95 1.33 4.03l5.75 5.75-25.46 25.46-1.41-1.41c-.16-.16-.34-.31-.53-.42-.88-.65-1.95-1-3.07-1a4.9 4.9 0 0 0-3.48 1.42c-1.69 1.69-1.86 4.44-.49 6.42.13.23.3.45.49.65l.08.08c.67.67.78 1.89.21 2.46l-5.95 5.95-14.14-14.14 5.78-5.78c.34-.34.8-.53 1.29-.53.48 0 .93.18 1.27.51.09.09.19.17.28.24 1.03.85 2.29 1.33 3.53 1.33 1.27 0 2.47-.5 3.4-1.43 1.98-1.98 1.9-5.15-.18-7.23l-1.24-1.24 25.78-25.78c.08-.05.15-.11.22-.17l.19-.15c2.55-2.12 10.14-8.38 24.93-11.29m1.14-3.18c-.24 0-.51.02-.79.06-16.53 3.04-24.94 10.25-27.34 12.22-.15.09-.28.21-.41.33l-26.22 26.22c-.94.94-.95 2.47 0 3.41l1.66 1.66c.74.74 1.13 2.04.18 2.99l-.01.01c-.38.38-.82.54-1.27.54-.68 0-1.37-.37-1.83-.84l.09.1a4.838 4.838 0 0 0-3.35-1.34c-1.24 0-2.47.47-3.42 1.41l-6.17 6.17c-.94.94-.97 2.5-.03 3.44l14.77 14.77c.51.51 1.27.8 2.01.8.61 0 1.21-.2 1.64-.63l6.33-6.33c1.79-1.79 1.59-4.91-.21-6.7l-.08-.08.02-.02c-.7-.77-.77-2.06-.03-2.8l.01-.01c.36-.36.85-.53 1.34-.53.53 0 1.06.19 1.46.56l.01-.01 1.63 1.63c.52.52 1.28.82 2.02.82.6 0 1.18-.19 1.6-.62l26.22-26.22c.94-.94.8-2.73-.14-3.68l-5.97-5.97c-4.06-4.06 17.74-16.22 17.74-16.22 1.58-.74 1.82-2.51 1.39-3.4-.38-.84-1.2-1.74-2.85-1.74z" fill="#424242" opacity=".2"/><path d="M157.96-34.01h-37.09a2.44 2.44 0 0 1-2.43-2.43v-20.89a2.44 2.44 0 0 1 2.43-2.43h37.09a2.44 2.44 0 0 1 2.43 2.43v20.89c-.01 1.34-1.1 2.43-2.43 2.43zM109.86-34.01h-8.95a2.44 2.44 0 0 1-2.43-2.43v-20.89a2.44 2.44 0 0 1 2.43-2.43h8.73c2.66 0 4.84 2.18 4.84 4.84v16.29c0 2.55-2.08 4.62-4.62 4.62z" fill="#212121"/><path d="M186.45-51.01c-14-7.79-28.69-8.74-28.69-8.74s2.61 14.04 2.61 14.34c0-3.91 24.94-.14 24.94-.14l.03-.01c.99.14 2.4-.61 2.69-2 .16-.66.19-2.42-1.58-3.45zM120.8-54.74h-2.35v-.4c0 1.09-.58 2.4-1.98 2.4h-.02c-1.38 0-1.98-1.32-1.98-2.4l-.02.4h-2.38c-1.33 0-2.62.26-2.62 1.12v13.48c0 .86 1.29 1.4 2.62 1.4h2.41c.05-1.04.91-2 1.96-2h.02c1.05 0 1.91.96 1.96 2h2.6c2.54 0 4.42-1.18 4.42-2.81v-10.51c.01-1.72-1.98-2.68-4.64-2.68zM231.94 12.56c-12.18-6.78-24.88-8.37-27.97-8.67-.17-.04-.34-.05-.53-.05h-37.09a2.42 2.42 0 0 0-2.42 2.41V8.6c0 1.05-.65 2.24-1.98 2.24h-.02c-1.38 0-1.98-1.32-1.98-2.4v.14a4.839 4.839 0 0 0-4.83-4.73h-8.73c-1.33 0-2.45 1.08-2.45 2.41v20.89c0 1.33 1.12 2.7 2.45 2.7h8.95c2.54 0 4.59-2.35 4.59-4.88v-.12h.03c.05-1.04.91-2 1.96-2h.02c1.05 0 1.91.96 1.96 2h.02v2.3c0 1.33 1.08 2.7 2.42 2.7h37.09c1.33 0 2.5-1.36 2.5-2.7v-8.98c0-3.91 24.91-.14 24.91-.14l.01-.01c.99.14 2.39-.61 2.68-2 .16-.67.18-2.43-1.59-3.46z" fill="#212121"/><path d="M182.78 126.91c-4.4 0-8-3.6-8-8V21.5c0-4.4 3.6-8 8-8s8 3.6 8 8v97.41c0 4.4-3.6 8-8 8z" fill="#212121"/><linearGradient id="g" x1="54.459" x2="73.742" y1="241" y2="241" gradientTransform="rotate(-45.001 69.261 208.622)" gradientUnits="userSpaceOnUse"><stop stop-color="#FFC400" offset=".006"/><stop stop-color="#FFD740" offset="1"/></linearGradient><path d="M133.98 275.55l-5.09 5.09c-2.35 2.35-6.19 2.35-8.54 0l-74.76-74.76c-3.75-3.75-3.75-9.89 0-13.64s9.89-3.75 13.64 0L133.98 267c2.35 2.35 2.35 6.2 0 8.55z" fill="url(#g)"/><path d="M52.41 193.05c1.62 0 3.13.62 4.26 1.75l74.76 74.76c.45.45.7 1.06.7 1.71s-.25 1.26-.7 1.71l-5.09 5.09c-.45.45-1.06.7-1.71.7s-1.26-.25-1.71-.7l-74.76-74.76c-1.13-1.13-1.75-2.64-1.75-4.26s.62-3.13 1.75-4.26 2.63-1.74 4.25-1.74m0-3.62c-2.47 0-4.94.94-6.82 2.81-3.75 3.75-3.75 9.89 0 13.64l74.76 74.76c1.17 1.17 2.72 1.76 4.27 1.76s3.1-.59 4.27-1.76l5.09-5.09c2.35-2.35 2.35-6.19 0-8.54l-74.76-74.76a9.575 9.575 0 0 0-6.81-2.82z" fill="#424242" opacity=".2"/><linearGradient id="h" x1="30.024" x2="109.62" y1="184.46" y2="184.46" gradientTransform="rotate(-45.001 69.261 208.622)" gradientUnits="userSpaceOnUse"><stop stop-color="#757575" offset="0"/><stop stop-color="#BDBDBD" offset="1"/></linearGradient><path d="M78 162.54c-16.53 3.04-24.94 10.24-27.34 12.22-.15.09-.28.21-.41.33L31.1 194.25c-.94.94-.95 2.47 0 3.41l1.66 1.66c.74.74 1.13 2.04.18 2.99l-.01.01c-.98.98-2.33.47-3.1-.3l.09.1a4.839 4.839 0 0 0-6.76.07l-6.17 6.17c-.94.94-.97 2.5-.03 3.44l14.77 14.77c.94.94 2.7 1.12 3.64.17l6.33-6.33c1.79-1.79 1.59-4.91-.21-6.7l-.08-.08.02-.02c-.7-.77-.77-2.06-.03-2.8l.01-.01c.74-.74 2.03-.67 2.8.03l.01-.01 1.63 1.63c.94.94 2.67 1.14 3.62.2l19.15-19.15c.94-.94.8-2.73-.14-3.68l-5.97-5.97c-4.06-4.06 17.74-16.22 17.74-16.22 1.58-.74 1.82-2.51 1.39-3.4-.43-.97-1.45-2.02-3.64-1.69z" fill="url(#h)"/><path d="M77.65 165.66c-1.63.94-4.74 2.81-7.93 4.99-8.89 6.1-10.36 9.23-10.65 11.28-.21 1.52.26 2.95 1.33 4.03l5.75 5.75-18.38 18.39-1.41-1.41c-.16-.16-.34-.31-.53-.42-.88-.65-1.95-1-3.07-1a4.9 4.9 0 0 0-3.48 1.42c-1.69 1.69-1.86 4.45-.48 6.42.13.23.3.45.49.64l.08.08c.34.34.55.84.57 1.36.01.26-.02.76-.37 1.1l-5.95 5.95-14.13-14.14 5.78-5.78c.34-.34.8-.53 1.29-.53.48 0 .93.18 1.27.51.09.09.19.17.28.24 1.03.85 2.29 1.33 3.53 1.33 1.27 0 2.47-.5 3.4-1.43 1.98-1.98 1.9-5.15-.18-7.23l-1.24-1.24 18.71-18.71c.08-.05.15-.11.22-.17l.19-.15c2.54-2.1 10.12-8.37 24.91-11.28m1.14-3.18c-.24 0-.51.02-.79.06-16.53 3.04-24.94 10.25-27.34 12.22-.15.09-.28.21-.41.33L31.1 194.25c-.94.94-.95 2.47 0 3.41l1.66 1.66c.74.74 1.13 2.04.18 2.99l-.01.01c-.38.38-.82.54-1.27.54-.68 0-1.37-.37-1.83-.84l.09.1a4.838 4.838 0 0 0-3.35-1.34c-1.24 0-2.47.47-3.42 1.41l-6.17 6.17c-.94.94-.97 2.5-.03 3.44l14.77 14.77c.51.51 1.27.8 2.01.8.61 0 1.21-.2 1.64-.63l6.33-6.33c1.79-1.79 1.59-4.91-.21-6.7l-.08-.08.02-.02c-.7-.77-.77-2.06-.03-2.8l.01-.01c.36-.36.85-.53 1.34-.53.53 0 1.06.19 1.46.56l.01-.01 1.63 1.63c.52.52 1.28.82 2.02.82.6 0 1.18-.19 1.6-.62l19.15-19.15c.94-.94.8-2.73-.14-3.68l-5.97-5.97c-4.06-4.06 17.74-16.22 17.74-16.22 1.58-.74 1.82-2.51 1.39-3.4-.38-.85-1.2-1.75-2.85-1.75z" fill="#424242" opacity=".2"/><linearGradient id="i" x1="138.35" x2="157.63" y1="86.069" y2="86.069" gradientTransform="rotate(-45.001 101.17 167.37)" gradientUnits="userSpaceOnUse"><stop stop-color="#6D4C41" offset=".006"/><stop stop-color="#8D6E63" offset="1"/></linearGradient><path d="M122.26 117.15l-5.09 5.09c-2.35 2.35-6.19 2.35-8.54 0L33.87 47.48c-3.75-3.75-3.75-9.89 0-13.64s9.89-3.75 13.64 0l74.76 74.76c2.34 2.35 2.34 6.2-.01 8.55z" fill="url(#i)"/><path d="M40.69 34.65c1.62 0 3.13.62 4.26 1.75l74.76 74.76c.45.45.7 1.06.7 1.71s-.25 1.26-.7 1.71l-5.09 5.09c-.45.45-1.06.7-1.71.7s-1.26-.25-1.71-.7L36.43 44.93c-1.13-1.13-1.75-2.64-1.75-4.26s.62-3.13 1.75-4.26 2.64-1.76 4.26-1.76m0-3.61c-2.47 0-4.94.94-6.82 2.81-3.75 3.75-3.75 9.89 0 13.64l74.76 74.76c1.17 1.17 2.72 1.76 4.27 1.76s3.1-.59 4.27-1.76l5.09-5.09c2.35-2.35 2.35-6.19 0-8.54L47.5 33.85c-1.87-1.88-4.34-2.81-6.81-2.81z" fill="#424242" opacity=".2"/><linearGradient id="j" x1="116.1" x2="190.7" y1="26.614" y2="26.614" gradientTransform="rotate(-45.001 101.17 167.37)" gradientUnits="userSpaceOnUse"><stop stop-color="#757575" offset="0"/><stop stop-color="#BDBDBD" offset="1"/></linearGradient><path d="M62.23 4.07C45.7 7.11 37.29 14.31 34.89 16.29c-.15.09-.28.21-.41.33L17.45 33.65c-.94.94-.95 2.47 0 3.41l1.66 1.66c.74.74 1.13 2.04.18 2.99l-.01.01c-.98.98-2.33.47-3.1-.3l.09.1a4.839 4.839 0 0 0-6.76.07l-4.76 4.76c-.94.94-.97 2.5-.03 3.44l14.77 14.77c.94.94 2.7 1.12 3.64.17l4.92-4.92c1.79-1.79 1.59-4.91-.21-6.7l-.08-.08.02-.02c-.7-.77-.77-2.06-.03-2.8l.01-.01c.74-.74 2.03-.67 2.8.03l.01-.01 1.63 1.63c.94.94 2.67 1.14 3.62.2L52.86 35c.94-.94.8-2.73-.14-3.68l-5.97-5.97C42.7 21.31 64.5 9.14 64.5 9.14c1.58-.74 1.82-2.51 1.39-3.4-.45-.96-1.47-2-3.66-1.67z" fill="url(#j)"/><path d="M61.88 7.19c-1.63.94-4.74 2.81-7.93 4.99-8.89 6.1-10.36 9.23-10.65 11.28-.21 1.52.26 2.95 1.33 4.03l5.75 5.75L34.12 49.5l-1.41-1.41c-.16-.16-.34-.31-.53-.42-.88-.65-1.95-1-3.07-1a4.9 4.9 0 0 0-3.48 1.42c-1.69 1.69-1.86 4.44-.49 6.42.13.23.3.45.49.65l.08.08c.34.34.55.84.57 1.36.01.26-.02.76-.37 1.1l-4.53 4.53L7.25 48.09l4.37-4.37c.34-.34.8-.53 1.29-.53.48 0 .93.18 1.27.51.09.09.18.17.28.24 1.03.85 2.29 1.33 3.53 1.33 1.27 0 2.47-.5 3.4-1.43 1.98-1.98 1.9-5.15-.18-7.23l-1.24-1.24 16.59-16.59c.08-.05.15-.11.22-.17l.19-.15c2.54-2.1 10.12-8.36 24.91-11.27m1.14-3.18c-.24 0-.51.02-.79.06C45.7 7.11 37.29 14.31 34.89 16.29c-.15.09-.28.21-.41.33L17.45 33.65c-.94.94-.95 2.47 0 3.41l1.66 1.66c.74.74 1.13 2.04.18 2.99l-.01.01c-.38.38-.82.54-1.27.54-.68 0-1.37-.37-1.83-.84l.09.1a4.838 4.838 0 0 0-3.35-1.34c-1.24 0-2.47.47-3.42 1.41l-4.76 4.76c-.94.94-.97 2.5-.03 3.44l14.77 14.77c.51.51 1.27.8 2.01.8.61 0 1.21-.2 1.64-.63l4.92-4.92c1.79-1.79 1.59-4.91-.21-6.7l-.08-.08.02-.02c-.7-.77-.77-2.06-.03-2.8l.01-.01c.36-.36.85-.53 1.34-.53.53 0 1.06.19 1.46.56l.01-.01 1.63 1.63c.52.52 1.28.82 2.02.82.6 0 1.18-.19 1.6-.62L52.86 35c.94-.94.8-2.73-.14-3.68l-5.97-5.97C42.7 21.31 64.5 9.14 64.5 9.14c1.58-.74 1.82-2.51 1.39-3.4-.4-.83-1.22-1.73-2.87-1.73z" fill="#424242" opacity=".2"/></svg>