<svg viewBox="0 0 128 128" xmlns="http://www.w3.org/2000/svg" xmlns:xlink="http://www.w3.org/1999/xlink"><path d="M102.07 91.1H26.46c-2.21 0-4-1.79-4-4V25.86c0-2.21 1.79-4 4-4h75.61c2.21 0 4 1.79 4 4V87.1c0 2.21-1.79 4-4 4z" fill="#F9A825"/><path d="M110.77 103.25H17.23c-2.21 0-4-1.79-4-4V39.7c0-2.21 1.79-4 4-4h93.54c2.21 0 4 1.79 4 4v59.54c0 2.22-1.79 4.01-4 4.01z" fill="#FDD835"/><defs><path id="a" d="M120 124H8c-2.21 0-4-1.79-4-4V53.55c0-2.21 1.79-4 4-4h112c2.21 0 4 1.79 4 4V120c0 2.21-1.79 4-4 4z"/></defs><clipPath id="b"><use xlink:href="#a"/></clipPath><path clip-path="url(#b)" fill="#FFF59D" d="M4 49.55h120v.3H4zM4 49.85h120v.66H4zM4 50.51h120v.66H4zM4 51.17h120v.66H4zM4 51.83h120v.66H4z"/><path clip-path="url(#b)" fill="#FFF59C" d="M4 52.49h120v.66H4zM4 53.15h120v.66H4zM4 53.82h120v.66H4z"/><path clip-path="url(#b)" fill="#FFF49C" d="M4 54.48h120v.66H4z"/><path clip-path="url(#b)" fill="#FFF49B" d="M4 55.14h120v.66H4zM4 55.8h120v.66H4zM4 56.46h120v.66H4z"/><path clip-path="url(#b)" fill="#FFF49A" d="M4 57.12h120v.66H4zM4 57.78h120v.66H4z"/><path clip-path="url(#b)" fill="#FFF399" d="M4 58.44h120v.66H4zM4 59.1h120v.66H4zM4 59.76h120v.66H4z"/><path clip-path="url(#b)" fill="#FFF398" d="M4 60.42h120v.66H4z"/><path clip-path="url(#b)" fill="#FFF298" d="M4 61.08h120v.66H4z"/><path clip-path="url(#b)" fill="#FFF297" d="M4 61.75h120v.66H4z"/><path clip-path="url(#b)" fill="#FFF296" d="M4 62.41h120v.66H4zM4 63.07h120v.66H4z"/><path clip-path="url(#b)" fill="#FFF195" d="M4 63.73h120v.66H4zM4 64.39h120v.66H4z"/><path clip-path="url(#b)" fill="#FFF194" d="M4 65.05h120v.66H4zM4 65.71h120v.66H4z"/><path clip-path="url(#b)" fill="#FFF093" d="M4 66.37h120v.66H4z"/><path clip-path="url(#b)" fill="#FFF092" d="M4 67.03h120v.66H4zM4 67.69h120v.66H4z"/><path clip-path="url(#b)" fill="#FFEF91" d="M4 68.35h120v.66H4z"/><path clip-path="url(#b)" fill="#FFEF90" d="M4 69.02h120v.66H4z"/><path clip-path="url(#b)" fill="#FFEF8F" d="M4 69.68h120v.66H4z"/><path clip-path="url(#b)" fill="#FEEE8F" d="M4 70.34h120V71H4z"/><path clip-path="url(#b)" fill="#FEEE8E" d="M4 71h120v.66H4z"/><path clip-path="url(#b)" fill="#FEED8D" d="M4 71.66h120v.66H4z"/><path clip-path="url(#b)" fill="#FEED8C" d="M4 72.32h120v.66H4zM4 72.98h120v.66H4z"/><path clip-path="url(#b)" fill="#FEEC8B" d="M4 73.64h120v.66H4z"/><path clip-path="url(#b)" fill="#FEEC8A" d="M4 74.3h120v.66H4z"/><path clip-path="url(#b)" fill="#FEEC89" d="M4 74.96h120v.66H4z"/><path clip-path="url(#b)" fill="#FEEB88" d="M4 75.62h120v.66H4z"/><path clip-path="url(#b)" fill="#FEEB87" d="M4 76.29h120v.66H4z"/><path clip-path="url(#b)" fill="#FEEA87" d="M4 76.95h120v.66H4z"/><path clip-path="url(#b)" fill="#FEEA86" d="M4 77.61h120v.66H4z"/><path clip-path="url(#b)" fill="#FEEA85" d="M4 78.27h120v.66H4z"/><path clip-path="url(#b)" fill="#FEE984" d="M4 78.93h120v.66H4z"/><path clip-path="url(#b)" fill="#FEE983" d="M4 79.59h120v.66H4z"/><path clip-path="url(#b)" fill="#FEE882" d="M4 80.25h120v.66H4z"/><path clip-path="url(#b)" fill="#FEE881" d="M4 80.91h120v.66H4z"/><path clip-path="url(#b)" fill="#FEE780" d="M4 81.57h120v.66H4z"/><path clip-path="url(#b)" fill="#FEE77F" d="M4 82.23h120v.66H4z"/><path clip-path="url(#b)" fill="#FEE67E" d="M4 82.89h120v.66H4z"/><path clip-path="url(#b)" fill="#FEE67D" d="M4 83.55h120v.66H4z"/><path clip-path="url(#b)" fill="#FEE57C" d="M4 84.22h120v.66H4z"/><path clip-path="url(#b)" fill="#FEE57B" d="M4 84.88h120v.66H4z"/><path clip-path="url(#b)" fill="#FEE47A" d="M4 85.54h120v.66H4z"/><path clip-path="url(#b)" fill="#FEE479" d="M4 86.2h120v.66H4z"/><path clip-path="url(#b)" fill="#FEE378" d="M4 86.86h120v.66H4z"/><path clip-path="url(#b)" fill="#FEE377" d="M4 87.52h120v.66H4z"/><path clip-path="url(#b)" fill="#FEE276" d="M4 88.18h120v.66H4z"/><path clip-path="url(#b)" fill="#FEE275" d="M4 88.84h120v.66H4z"/><path clip-path="url(#b)" fill="#FEE173" d="M4 89.5h120v.66H4z"/><path clip-path="url(#b)" fill="#FDE172" d="M4 90.16h120v.66H4z"/><path clip-path="url(#b)" fill="#FDE071" d="M4 90.82h120v.66H4z"/><path clip-path="url(#b)" fill="#FDE070" d="M4 91.49h120v.66H4z"/><path clip-path="url(#b)" fill="#FDDF6F" d="M4 92.15h120v.66H4z"/><path clip-path="url(#b)" fill="#FDDF6E" d="M4 92.81h120v.66H4z"/><path clip-path="url(#b)" fill="#FDDE6D" d="M4 93.47h120v.66H4z"/><path clip-path="url(#b)" fill="#FDDE6B" d="M4 94.13h120v.66H4z"/><path clip-path="url(#b)" fill="#FDDD6A" d="M4 94.79h120v.66H4z"/><path clip-path="url(#b)" fill="#FDDC69" d="M4 95.45h120v.66H4z"/><path clip-path="url(#b)" fill="#FDDC68" d="M4 96.11h120v.66H4z"/><path clip-path="url(#b)" fill="#FDDB66" d="M4 96.77h120v.66H4z"/><path clip-path="url(#b)" fill="#FDDB65" d="M4 97.43h120v.66H4z"/><path clip-path="url(#b)" fill="#FDDA64" d="M4 98.09h120v.66H4z"/><path clip-path="url(#b)" fill="#FDD963" d="M4 98.76h120v.66H4z"/><path clip-path="url(#b)" fill="#FDD961" d="M4 99.42h120v.66H4z"/><path clip-path="url(#b)" fill="#FDD860" d="M4 100.08h120v.66H4z"/><path clip-path="url(#b)" fill="#FDD85F" d="M4 100.74h120v.66H4z"/><path clip-path="url(#b)" fill="#FDD75E" d="M4 101.4h120v.66H4z"/><path clip-path="url(#b)" fill="#FDD65C" d="M4 102.06h120v.66H4z"/><path clip-path="url(#b)" fill="#FDD65B" d="M4 102.72h120v.66H4z"/><path clip-path="url(#b)" fill="#FDD55A" d="M4 103.38h120v.66H4z"/><path clip-path="url(#b)" fill="#FDD458" d="M4 104.04h120v.66H4z"/><path clip-path="url(#b)" fill="#FCD457" d="M4 104.7h120v.66H4z"/><path clip-path="url(#b)" fill="#FCD356" d="M4 105.36h120v.66H4z"/><path clip-path="url(#b)" fill="#FCD354" d="M4 106.03h120v.66H4z"/><path clip-path="url(#b)" fill="#FCD253" d="M4 106.69h120v.66H4z"/><path clip-path="url(#b)" fill="#FCD151" d="M4 107.35h120v.66H4z"/><path clip-path="url(#b)" fill="#FCD150" d="M4 108.01h120v.66H4z"/><path clip-path="url(#b)" fill="#FCD04F" d="M4 108.67h120v.66H4z"/><path clip-path="url(#b)" fill="#FCCF4D" d="M4 109.33h120v.66H4z"/><path clip-path="url(#b)" fill="#FCCF4C" d="M4 109.99h120v.66H4z"/><path clip-path="url(#b)" fill="#FCCE4A" d="M4 110.65h120v.66H4z"/><path clip-path="url(#b)" fill="#FCCD49" d="M4 111.31h120v.66H4z"/><path clip-path="url(#b)" fill="#FCCC47" d="M4 111.97h120v.66H4z"/><path clip-path="url(#b)" fill="#FCCC46" d="M4 112.63h120v.66H4z"/><path clip-path="url(#b)" fill="#FCCB44" d="M4 113.29h120v.66H4z"/><path clip-path="url(#b)" fill="#FCCA43" d="M4 113.96h120v.66H4z"/><path clip-path="url(#b)" fill="#FCCA41" d="M4 114.62h120v.66H4z"/><path clip-path="url(#b)" fill="#FCC940" d="M4 115.28h120v.66H4z"/><path clip-path="url(#b)" fill="#FCC83E" d="M4 115.94h120v.66H4z"/><path clip-path="url(#b)" fill="#FCC73D" d="M4 116.6h120v.66H4z"/><path clip-path="url(#b)" fill="#FCC73B" d="M4 117.26h120v.66H4z"/><path clip-path="url(#b)" fill="#FBC63A" d="M4 117.92h120v.66H4z"/><path clip-path="url(#b)" fill="#FBC538" d="M4 118.58h120v.66H4z"/><path clip-path="url(#b)" fill="#FBC537" d="M4 119.24h120v.66H4z"/><path clip-path="url(#b)" fill="#FBC435" d="M4 119.9h120v.66H4z"/><path clip-path="url(#b)" fill="#FBC333" d="M4 120.56h120v.66H4z"/><path clip-path="url(#b)" fill="#FBC232" d="M4 121.23h120v.66H4z"/><path clip-path="url(#b)" fill="#FBC230" d="M4 121.89h120v.66H4z"/><path clip-path="url(#b)" fill="#FBC12F" d="M4 122.55h120v.66H4z"/><path clip-path="url(#b)" fill="#FBC02D" d="M4 123.21h120v.66H4zM4 123.87h120v.13H4z"/><path d="M80.46 31.67H56.58c-1.66 0-3-1.34-3-3v-7.3c0-1.66 1.34-3 3-3h23.89c1.66 0 3 1.34 3 3v7.3a3.01 3.01 0 0 1-3.01 3z" fill="#4480F7"/><path d="M37 46.37c-2.48 0-4.5-2.02-4.5-4.5v-7.3c0-2.48 2.02-4.5 4.5-4.5h24c2.48 0 4.5 2.02 4.5 4.5v7.3c0 2.48-2.02 4.5-4.5 4.5H37z" fill="#2CA94F"/><path d="M61 31.57c1.66 0 3 1.34 3 3v7.3c0 1.66-1.34 3-3 3H37c-1.66 0-3-1.34-3-3v-7.3c0-1.66 1.34-3 3-3h24m0-3H37c-3.31 0-6 2.69-6 6v7.3c0 3.31 2.69 6 6 6h24c3.31 0 6-2.69 6-6v-7.3c0-3.31-2.69-6-6-6z" fill="#FDD835"/><path d="M18.84 59.82c-2.21 0-4-1.79-4-4v-7.3c0-2.21 1.79-4 4-4h25.05c2.21 0 4 1.79 4 4v7.3c0 2.21-1.79 4-4 4H18.84z" fill="#EC4431"/><path d="M43.89 45.51c1.66 0 3 1.34 3 3v7.3c0 1.66-1.34 3-3 3H18.84c-1.66 0-3-1.34-3-3v-7.3c0-1.66 1.34-3 3-3h25.05m0-2H18.84c-2.76 0-5 2.24-5 5v7.3c0 2.76 2.24 5 5 5h25.05c2.76 0 5-2.24 5-5v-7.3c0-2.75-2.25-5-5-5z" fill="#FFF59D"/><path d="M80 21.36c.25 0 .46.21.46.49 0 1.66 1.34 3 3 3h17.99c.89 0 1.62.72 1.62 1.62v9.23c0 1.66 1.34 3 3 3h4.09c.89 0 1.62.72 1.62 1.62v9.23c0 1.66 1.34 3 3 3h4.62c.89 0 1.62.72 1.62 1.62v65.22c0 .89-.72 1.62-1.62 1.62H8.62c-.9-.01-1.62-.73-1.62-1.63V54.17c0-.89.72-1.62 1.62-1.62h4.62c1.66 0 3-1.34 3-3v-9.23c0-.89.72-1.62 1.62-1.62h4.62c1.66 0 3-1.34 3-3v-9.23c0-.89.72-1.62 1.62-1.62h26.5c1.66 0 3-1.37 3-3.03 0-.25.21-.46.46-.46H80m0-3H57.04c-1.91 0-3.46 1.55-3.46 3.46v.03h-26.5c-2.55 0-4.62 2.07-4.62 4.62v9.23h-4.62c-2.55 0-4.62 2.07-4.62 4.62v9.23h-4.6C6.07 49.55 4 51.62 4 54.17v65.22c0 2.55 2.07 4.62 4.62 4.62h110.77c2.55 0 4.62-2.07 4.62-4.62V54.17c0-2.55-2.07-4.62-4.62-4.62h-4.62v-9.23c0-2.55-2.07-4.62-4.62-4.62h-4.09v-9.23c0-2.55-2.07-4.62-4.62-4.62H83.46v-.03c0-1.91-1.55-3.46-3.46-3.46z" fill="#424242" opacity=".2"/></svg>