<svg viewBox="0 0 128 128" xmlns="http://www.w3.org/2000/svg" xmlns:xlink="http://www.w3.org/1999/xlink"><symbol id="h" viewBox="-64.5 -64.5 129 129"><g fill="none" stroke="#4285F4" stroke-miterlimit="10"><path d="M-64-64H64V64H-64z"/><path d="M36.95 37.82C27.32 46.32 14.2 51 0 51c-14.27 0-27.39-4.62-36.96-13.01C-47.45 28.79-53 15.65-53 0c0-15.58 5.55-28.69 16.04-37.92C-27.36-46.35-14.24-51 0-51c14.17 0 27.29 4.71 36.95 13.25C47.45-28.45 53-15.4 53 0c0 15.47-5.55 28.55-16.05 37.82z"/><path d="M0 55c-29.59 0-57-19.01-57-55 0-35.8 27.41-55 57-55S57-35.31 57 0c0 35.51-27.41 55-57 55z"/><path d="M0-43c-12.29 0-23.54 3.94-31.68 11.09C-40.39-24.25-45-13.21-45 0c0 29.7 22.6 43 45 43 21.67 0 45-13.46 45-43S21.67-43 0-43zM-.01 51V-51M-16 48.95v-97.88M15.99 48.91v-97.84M53 .08H-53"/></g></symbol><linearGradient id="a" x1="64.495" x2="64.495" y1="22.01" y2="105.44" gradientUnits="userSpaceOnUse"><stop stop-color="#FEE133" offset=".5"/><stop stop-color="#FEDE32" offset=".612"/><stop stop-color="#FCD32F" offset=".708"/><stop stop-color="#FAC12B" offset=".797"/><stop stop-color="#F7A924" offset=".883"/><stop stop-color="#F6A323" offset=".9"/></linearGradient><path d="M64.5 117c-26.49 0-55-16.58-55-53 0-36.41 28.51-53 55-53 14.68 0 28.28 4.86 38.27 13.69C113.71 34.34 119.5 47.94 119.5 64c0 15.99-5.78 29.56-16.73 39.24C92.74 112.11 79.15 117 64.5 117z" fill="url(#a)"/><path d="M64.5 13c14.19 0 27.32 4.68 36.95 13.18 10.5 9.27 16.05 22.34 16.05 37.82 0 15.4-5.55 28.45-16.05 37.75C91.78 110.29 78.66 115 64.49 115c-14.24 0-27.36-4.65-36.96-13.08C17.04 92.69 11.5 79.58 11.5 64c0-15.65 5.55-28.79 16.04-37.99C37.1 17.62 50.23 13 64.5 13m0-4c-29.59 0-57 19.01-57 55 0 35.8 27.41 55 57 55s57-19.69 57-55c0-35.51-27.41-55-57-55z" fill="#EB8F00"/><defs><path id="b" d="M63.47 62.53c-15.71 0-30.31-1.32-42.49-3.57-3.02-.56-5.69 2.1-5.08 5.11 4.04 19.81 23.55 36.08 47.55 36.08 26.27 0 43.94-16.8 47.61-36.15.57-2.99-2.1-5.6-5.09-5.04-12.18 2.25-26.78 3.57-42.5 3.57z"/></defs><clipPath id="c"><use xlink:href="#b"/></clipPath><path d="M63.47 62.53c-15.71 0-30.31-1.32-42.49-3.57-3.02-.56-5.69 2.1-5.08 5.11 4.04 19.81 23.55 36.08 47.55 36.08 26.27 0 43.94-16.8 47.61-36.15.57-2.99-2.1-5.6-5.09-5.04-12.18 2.25-26.78 3.57-42.5 3.57z" clip-path="url(#c)" fill="#242424"/><path d="M116.72 61.38V46.49H10.24v14.89C26.61 71 44.6 76.35 63.48 76.35s36.86-5.35 53.24-14.97z" clip-path="url(#c)" fill="#fff"/><path d="M63.48 86.42c-11.78 0-22.05 6.42-27.53 15.95 7.12 3.89 16.83 6.29 27.53 6.29s20.41-2.4 27.53-6.29c-5.48-9.53-15.75-15.95-27.53-15.95z" clip-path="url(#c)" fill="#ED7770"/><g clip-path="url(#c)"><defs><path id="d" d="M10.24 46.49v14.89C26.62 71 44.6 76.35 63.48 76.35s36.86-5.35 53.24-14.97V46.49H10.24zm53.24 39.93c-11.78 0-22.05 6.42-27.53 15.95 7.12 3.89 16.83 6.29 27.53 6.29 10.71 0 20.41-2.4 27.53-6.29-5.48-9.53-15.75-15.95-27.53-15.95z"/></defs><clipPath id="e"><use xlink:href="#d"/></clipPath><g clip-path="url(#e)"><path d="M106.79 63.09c.07 0 .14.07.14.12-1.68 8.85-6.6 16.96-13.85 22.84-7.97 6.46-18.21 9.88-29.63 9.88-10.46 0-20.64-3.45-28.67-9.72-7.72-6.03-12.96-14.19-14.76-23.02.01-.02.07-.1.18-.1h.01c12.86 2.38 27.82 3.64 43.26 3.64s30.41-1.26 43.28-3.65c.01.01.03.01.04.01m0-4.21c-.27 0-.54.02-.81.08-12.18 2.26-26.79 3.58-42.51 3.58-15.71 0-30.31-1.32-42.49-3.57-.27-.05-.54-.08-.81-.08-2.67 0-4.83 2.44-4.27 5.18 4.04 19.81 23.55 36.08 47.55 36.08 26.27 0 43.94-16.8 47.61-36.15.52-2.72-1.63-5.12-4.27-5.12z" fill="#EB8F00"/></g></g><path d="M110 52.99c-5.64 0-10.01-5.51-10.01-10.25 0-3.29 1.46-7.07 3.48-12.31.29-.76.6-1.55.91-2.37 1.59-4.19 3.9-8.7 5.5-11.67 1.41 2.92 3.52 7.34 5.5 11.77 3.59 8.06 4.63 11.33 4.63 14.58 0 4.74-4.37 10.25-10.01 10.25z" fill="#5F7AFF"/><path d="M109.8 20.86c1.16 2.44 2.48 5.28 3.75 8.12 3.46 7.76 4.46 10.85 4.46 13.76 0 3.74-3.57 8.25-8.01 8.25s-8.01-4.51-8.01-8.25c0-2.92 1.4-6.55 3.34-11.59.3-.77.6-1.56.91-2.38 1.02-2.67 2.34-5.48 3.56-7.91m.2-8.78s-4.74 8.04-7.49 15.26c-2.51 6.6-4.52 11.22-4.52 15.39 0 5.96 5.38 12.25 12.01 12.25s12.01-6.29 12.01-12.25c0-3.75-1.21-7.34-4.81-15.39-3.43-7.7-7.2-15.26-7.2-15.26z" fill="#4864ED"/><g fill="#242424"><path d="M48.83 47.08s-.06-.07-.17-.21c-.1-.13-.25-.33-.45-.57-.16-.17-.35-.37-.57-.6-.23-.26-.5-.52-.77-.79-.28-.26-.58-.53-.88-.76-.3-.24-.62-.42-.88-.57-.27-.16-.52-.21-.69-.26-.09-.04-.16-.03-.22-.04-.03.01-.06-.01-.09 0l-.04.01h-.04c.13 0-.29.01.29-.01l-.58.02c-.15 0-.05.01-.04.01.03 0 .05 0 .08-.01.09-.03 0 0-.03 0-.04 0-.08.01-.12.03-.16.05-.42.1-.69.26-.27.15-.58.33-.88.57-.3.23-.6.5-.88.76-.55.54-1.03 1.08-1.37 1.47-.34.4-.54.63-.54.63l-.24.28c-1.44 1.68-4.09 1.97-5.91.64-1.24-.9-1.78-2.32-1.55-3.66 0 0 .07-.43.28-1.18.22-.74.59-1.81 1.31-3.06.73-1.24 1.78-2.71 3.55-4.04.87-.66 1.94-1.31 3.2-1.74.31-.12.63-.22.97-.3.35-.09.62-.17 1.1-.24l.65-.09c.2-.03.49-.06.54-.06l.58-.04.32-.01h.1l.13.01.27.01.54.04c.36.03.7.09 1.05.15.69.13 1.37.3 1.99.53 1.26.44 2.32 1.09 3.2 1.74 1.78 1.33 2.82 2.8 3.55 4.04.37.62.64 1.2.84 1.72.22.49.38 1.02.51 1.41.12.38.12.58.16.76.03.17.05.26.05.26.39 2.12-1.17 4.13-3.48 4.49-1.65.25-3.24-.42-4.15-1.6zM88.26 47.08s-.06-.07-.16-.21c-.1-.13-.25-.33-.45-.57-.16-.17-.35-.37-.57-.6-.23-.26-.5-.52-.77-.79-.28-.26-.58-.53-.88-.76-.3-.24-.62-.42-.88-.57-.27-.16-.52-.21-.69-.26-.09-.04-.16-.03-.22-.04-.03.01-.06-.01-.09 0l-.04.01h-.04c.13 0-.29.01.29-.01l-.58.02c-.15 0-.05.01-.04.01.03 0 .05 0 .08-.01.09-.03 0 0-.03 0-.04 0-.08.01-.12.03-.16.05-.42.1-.69.26-.27.15-.58.33-.88.57-.3.23-.6.5-.88.76-.55.54-1.03 1.08-1.37 1.47-.34.4-.54.63-.54.63l-.24.28c-1.44 1.68-4.09 1.97-5.91.64-1.24-.9-1.78-2.32-1.55-3.66 0 0 .07-.43.28-1.18.22-.74.59-1.81 1.31-3.06.73-1.24 1.78-2.71 3.55-4.04.87-.66 1.94-1.31 3.2-1.74.31-.12.63-.22.97-.3.35-.09.62-.17 1.1-.24l.65-.09c.2-.03.49-.06.54-.06l.58-.04.32-.01h.1l.13.01.27.01.54.04c.36.03.7.09 1.05.15.69.13 1.37.3 1.99.53 1.26.44 2.32 1.09 3.2 1.74 1.78 1.33 2.82 2.8 3.55 4.04.37.62.64 1.2.84 1.72.22.49.38 1.02.51 1.41.12.38.12.58.16.76.03.17.05.26.05.26.39 2.12-1.17 4.13-3.48 4.49-1.66.25-3.25-.42-4.16-1.6z"/></g></svg>