<svg viewBox="0 0 128 128" xmlns="http://www.w3.org/2000/svg" xmlns:xlink="http://www.w3.org/1999/xlink"><symbol id="f" viewBox="-64.5 -64.5 129 129"><g fill="none" stroke="#4285F4" stroke-miterlimit="10"><path d="M-64-64H64V64H-64z"/><path d="M36.95 37.82C27.32 46.32 14.2 51 0 51c-14.27 0-27.39-4.62-36.96-13.01C-47.45 28.79-53 15.65-53 0c0-15.58 5.55-28.69 16.04-37.92C-27.36-46.35-14.24-51 0-51c14.17 0 27.29 4.71 36.95 13.25C47.45-28.45 53-15.4 53 0c0 15.47-5.55 28.55-16.05 37.82z"/><path d="M0 55c-29.59 0-57-19.01-57-55 0-35.8 27.41-55 57-55S57-35.31 57 0c0 35.51-27.41 55-57 55z"/><path d="M0-43c-12.29 0-23.54 3.94-31.68 11.09C-40.39-24.25-45-13.21-45 0c0 29.7 22.6 43 45 43 21.67 0 45-13.46 45-43S21.67-43 0-43zM-.01 51V-51M-16 48.95v-97.88M15.99 48.91v-97.84M53 .08H-53"/></g></symbol><linearGradient id="a" x1="64" x2="64" y1="19.717" y2="107.7" gradientUnits="userSpaceOnUse"><stop stop-color="#FEE133" offset=".5"/><stop stop-color="#FEDE32" offset=".612"/><stop stop-color="#FCD32F" offset=".708"/><stop stop-color="#FAC12B" offset=".797"/><stop stop-color="#F7A924" offset=".883"/><stop stop-color="#F6A323" offset=".9"/></linearGradient><path d="M64 119.89C36.07 119.89 6 102.4 6 64S36.07 8.11 64 8.11c15.48 0 29.81 5.12 40.36 14.43C115.9 32.72 122 47.06 122 64c0 16.86-6.1 31.17-17.64 41.39-10.58 9.35-24.91 14.5-40.36 14.5z" fill="url(#a)"/><path d="M64 10.11c14.99 0 28.86 4.95 39.03 13.93C114.13 33.83 120 47.65 120 64c0 16.27-5.87 30.07-16.97 39.89-10.21 9.03-24.07 14-39.03 14-15.04 0-28.9-4.91-39.04-13.82C13.86 94.32 8 80.46 8 64c0-16.54 5.86-30.42 16.96-40.15C35.07 14.99 48.93 10.11 64 10.11m0-4c-31.15 0-60 20-60 57.89 0 37.68 28.85 57.89 60 57.89s60-20.73 60-57.89c0-37.37-28.85-57.89-60-57.89z" fill="#EB8F00"/><g fill="#242424"><path d="M49.56 50.79s-.05-.07-.16-.2l-.42-.54c-.15-.16-.33-.35-.54-.57-.21-.24-.47-.49-.73-.75-.27-.25-.55-.51-.84-.72-.28-.23-.59-.4-.84-.54-.26-.16-.5-.2-.65-.25-.08-.03-.15-.03-.21-.04-.03.01-.06-.01-.09 0l-.04.01h-.03c.12 0-.27.01.27-.01l-.55.02c-.14 0-.05.01-.04.01.03 0 .05 0 .07-.01.08-.03 0 0-.02 0a.26.26 0 0 0-.11.03c-.16.05-.4.09-.65.25-.25.14-.56.31-.84.54-.28.22-.57.47-.84.72-.52.51-.98 1.02-1.3 1.39-.33.38-.51.6-.51.6l-.23.27c-1.37 1.6-3.89 1.87-5.62.61-1.18-.86-1.69-2.2-1.47-3.48 0 0 .07-.41.27-1.12.21-.71.56-1.72 1.25-2.91.69-1.18 1.69-2.57 3.38-3.84.83-.62 1.84-1.24 3.04-1.66.29-.11.6-.21.92-.29.33-.08.59-.17 1.04-.23l.62-.09c.19-.02.47-.05.51-.05l.55-.04.31-.01h.09l.13.01.26.01.51.03c.34.03.67.09 1 .14.65.12 1.3.29 1.89.51a11.1 11.1 0 0 1 3.04 1.66c1.69 1.27 2.69 2.66 3.38 3.84.35.59.61 1.15.8 1.64.21.47.36.97.48 1.34.11.36.11.55.16.72.03.16.04.25.04.25.37 2.02-1.12 3.93-3.31 4.26-1.59.24-3.1-.39-3.97-1.51zM87.06 50.79s-.05-.07-.16-.2l-.42-.54c-.15-.16-.33-.35-.54-.57-.21-.24-.47-.49-.73-.75-.27-.25-.55-.51-.84-.72-.28-.23-.59-.4-.84-.54-.26-.16-.5-.2-.65-.25-.08-.03-.15-.03-.21-.04-.03.01-.06-.01-.09 0l-.04.01h-.04c.12 0-.27.01.27-.01l-.55.02c-.14 0-.05.01-.04.01.03 0 .05 0 .07-.01.08-.03 0 0-.02 0a.26.26 0 0 0-.11.03c-.16.05-.4.09-.65.25-.25.14-.56.31-.84.54-.28.22-.57.47-.84.72-.52.51-.98 1.02-1.3 1.39-.33.38-.51.6-.51.6l-.23.27c-1.37 1.6-3.89 1.87-5.62.61-1.18-.86-1.69-2.2-1.47-3.48 0 0 .07-.41.27-1.12.21-.71.56-1.72 1.25-2.91.69-1.18 1.69-2.57 3.38-3.84.83-.62 1.84-1.24 3.04-1.66.29-.11.6-.21.92-.29.33-.08.59-.17 1.04-.23l.62-.09c.19-.02.47-.05.51-.05l.55-.04.31-.01h.09l.13.01.26.01.51.03c.34.03.67.09 1 .14.65.12 1.3.29 1.89.51a11.1 11.1 0 0 1 3.04 1.66c1.69 1.27 2.69 2.66 3.38 3.84.35.59.61 1.15.8 1.64.21.47.36.97.48 1.34.11.36.11.55.16.72.03.16.04.25.04.25.37 2.02-1.12 3.93-3.31 4.26-1.59.24-3.1-.39-3.96-1.51z"/></g><path d="M63.99 72.04c-13.36 0-25.79-.99-36.15-2.69-2.57-.42-4.84 1.58-4.32 3.85 3.44 14.94 20.04 27.2 40.46 27.2 22.35 0 37.39-12.66 40.51-27.25.48-2.25-1.78-4.22-4.33-3.8-10.37 1.7-22.8 2.69-36.17 2.69z" fill="#FEFFFA" stroke="#F6A323" stroke-miterlimit="10" stroke-width="3.204"/><path d="M63.98 102.4c-20.4 0-38.63-12.36-42.41-28.75-.34-1.46.02-2.99.97-4.2 1.08-1.35 2.8-2.16 4.61-2.16.34 0 .68.03 1.01.08 10.63 1.75 23.02 2.67 35.83 2.67s25.21-.92 35.85-2.67c.33-.05.68-.08 1.01-.08 1.79 0 3.5.79 4.58 2.13a4.926 4.926 0 0 1 1.02 4.15c-1.69 7.9-6.6 15.11-13.84 20.3-7.77 5.58-17.67 8.53-28.63 8.53z" fill="#FEFFFA"/><path d="M100.85 69.29c2.25 0 4.08 1.81 3.64 3.86-3.12 14.59-18.16 27.25-40.51 27.25-20.42 0-37.02-12.26-40.46-27.2-.48-2.06 1.36-3.91 3.63-3.91.23 0 .46.02.69.06 10.36 1.7 22.79 2.69 36.15 2.69 13.37 0 25.8-.99 36.17-2.7.23-.03.46-.05.69-.05m0-4c-.45 0-.9.04-1.34.11-10.53 1.73-22.81 2.64-35.52 2.64-12.7 0-24.98-.91-35.5-2.64a8.55 8.55 0 0 0-1.34-.11c-2.41 0-4.72 1.09-6.17 2.91a6.934 6.934 0 0 0-1.36 5.89c1.92 8.35 7.42 16.02 15.48 21.59 8.12 5.62 18.37 8.71 28.87 8.71 11.39 0 21.69-3.08 29.8-8.91 7.64-5.49 12.83-13.12 14.62-21.51.44-2.05-.08-4.17-1.42-5.82-1.44-1.79-3.73-2.86-6.12-2.86z" fill="#EB8F00"/><defs><path id="b" d="M63.99 72.04c-13.36 0-25.79-.99-36.15-2.69-2.57-.42-4.84 1.58-4.32 3.85 3.44 14.94 20.04 27.2 40.46 27.2 22.35 0 37.39-12.66 40.51-27.25.48-2.25-1.78-4.22-4.33-3.8-10.37 1.7-22.8 2.69-36.17 2.69z"/></defs><clipPath id="c"><use xlink:href="#b"/></clipPath><g clip-path="url(#c)" fill="none" stroke="#B3B3B0" stroke-miterlimit="10"><g stroke-width="4.514"><path d="M64 64.75v37.81M42.08 64.75v37.81M85.92 64.75v37.81"/></g><path d="M19.48 77.97c1.89.75 3.74 1.44 5.56 2.06s3.61 1.18 5.36 1.69c1.76.51 3.48.96 5.18 1.37s3.36.77 5.01 1.1c1.64.32 3.26.61 4.86.85 1.6.25 3.18.46 4.74.64s3.11.32 4.65.44 3.07.2 4.59.26 3.04.09 4.56.09 3.04-.03 4.56-.09 3.05-.14 4.59-.26 3.09-.26 4.65-.44 3.14-.39 4.74-.64 3.22-.53 4.86-.85 3.31-.69 5.01-1.1 3.42-.86 5.18-1.37 3.54-1.07 5.36-1.69 3.67-1.31 5.56-2.06" stroke-width="4.887"/></g></svg>