<svg viewBox="0 0 128 128" xmlns="http://www.w3.org/2000/svg"><symbol id="e" viewBox="-64.5 -64.5 129 129"><g fill="none" stroke="#4285F4" stroke-miterlimit="10"><path d="M-64-64H64V64H-64z"/><path d="M36.95 37.82C27.32 46.32 14.2 51 0 51c-14.27 0-27.39-4.62-36.96-13.01C-47.45 28.79-53 15.65-53 0c0-15.58 5.55-28.69 16.04-37.92C-27.36-46.35-14.24-51 0-51c14.17 0 27.29 4.71 36.95 13.25C47.45-28.45 53-15.4 53 0c0 15.47-5.55 28.55-16.05 37.82z"/><path d="M0 55c-29.59 0-57-19.01-57-55 0-35.8 27.41-55 57-55S57-35.31 57 0c0 35.51-27.41 55-57 55z"/><path d="M0-43c-12.29 0-23.54 3.94-31.68 11.09C-40.39-24.25-45-13.21-45 0c0 29.7 22.6 43 45 43 21.67 0 45-13.46 45-43S21.67-43 0-43zM-.01 51V-51M-16 48.95v-97.88M15.99 48.91v-97.84M53 .08H-53"/></g></symbol><linearGradient id="a" x1="64.074" x2="64.074" y1="19.743" y2="107.8" gradientUnits="userSpaceOnUse"><stop stop-color="#FEE133" offset=".5"/><stop stop-color="#FEDE32" offset=".612"/><stop stop-color="#FCD32F" offset=".708"/><stop stop-color="#FAC12B" offset=".797"/><stop stop-color="#F7A924" offset=".883"/><stop stop-color="#F6A323" offset=".9"/></linearGradient><path d="M64.07 120c-27.96 0-58.05-17.5-58.05-55.94 0-38.43 30.09-55.94 58.05-55.94 15.49 0 29.84 5.13 40.39 14.44 11.55 10.19 17.66 24.54 17.66 41.5 0 16.88-6.11 31.2-17.66 41.42C93.88 114.85 79.54 120 64.07 120z" fill="url(#a)"/><path d="M64.07 10.12c15.01 0 28.88 4.95 39.07 13.94 11.11 9.8 16.98 23.63 16.98 40 0 16.29-5.87 30.09-16.98 39.92C92.92 113.02 79.05 118 64.07 118c-15.05 0-28.93-4.91-39.07-13.83C13.9 94.41 8.03 80.54 8.03 64.06c0-16.55 5.87-30.45 16.97-40.18 10.12-8.87 23.99-13.76 39.07-13.76m0-4C32.9 6.12 4.03 26.14 4.03 64.06 4.03 101.78 32.9 122 64.07 122c31.18 0 60.05-20.74 60.05-57.94 0-37.4-28.87-57.94-60.05-57.94z" fill="#EB8F00"/><path d="M29.09 44.05c-.89 0-1.7-.41-2.18-1.11-.48-.69-.56-1.56-.24-2.44 1.94-5.01 5.94-9.21 10.99-11.54 1.88-.87 3.85-1.45 5.86-1.72.15-.02.27-.02.4-.02 1.31 0 2.32.85 2.52 2.11.18 1.15-.41 2.56-1.89 3.04l-.38-.71.26.75c-5.33 1.84-10.08 5.6-13.03 10.32-.5.83-1.35 1.32-2.31 1.32z" fill="#EB8F00" stroke="#EB8F00" stroke-miterlimit="10"/><path d="M97.66 95.49c-3.1 0-6.6-.3-10.44-.9 1.63-2.67 2.13-5.93 1.26-9.02-1.5-5.35-2.6-12.77.7-17.71 1.49-2.23 4.01-3.56 6.75-3.56 1.62 0 3.17.48 4.47 1.39 2.51 1.68 3.86 4.42 3.66 7.34a1.99 1.99 0 0 0 2.86 1.93c1.08-.52 2.31-.8 3.55-.8 1.65 0 3.22.47 4.54 1.37a8.19 8.19 0 0 1 3.49 5.21c.42 2.09-.01 4.24-1.21 6.08-3.85 5.92-10.1 8.67-19.63 8.67z" fill="#CC1775"/><path d="M95.93 66.29c1.21 0 2.36.36 3.32 1.03.02.01.04.03.06.04 1.87 1.26 2.9 3.32 2.75 5.52a4.005 4.005 0 0 0 3.99 4.28c.59 0 1.18-.13 1.73-.4.82-.39 1.74-.6 2.68-.6 1.25 0 2.43.36 3.43 1.03a6.19 6.19 0 0 1 2.64 3.94c.32 1.59 0 3.18-.92 4.59-2.18 3.33-6.41 7.76-17.97 7.76-2.28 0-4.78-.17-7.49-.51.87-2.52.98-5.3.23-7.96-1.39-4.95-2.44-11.75.44-16.06 1.14-1.66 3.04-2.66 5.11-2.66m0-4c-3.26 0-6.5 1.57-8.42 4.45-3.65 5.46-2.68 13.25-.96 19.37 1.01 3.61-.24 7.47-3.13 9.85 5.46 1.05 10.16 1.54 14.24 1.54 11.06 0 17.43-3.63 21.32-9.58 1.47-2.24 2.03-4.91 1.49-7.57-.53-2.66-2.07-4.94-4.33-6.47-1.7-1.16-3.69-1.72-5.67-1.72-1.53 0-3.05.34-4.41 1 .24-3.5-1.36-7.01-4.51-9.12-1.7-1.19-3.66-1.75-5.62-1.75z" fill="#B3005C"/><path d="M62.87 74.46c.37 0 .9-.01 1.42.01.51.02 1.02.05 1.54.11.51.05 1.04.13 1.56.22.53.11 1.06.21 1.61.38.53.13 1.1.37 1.65.58.56.27 1.12.53 1.68.93.55.34 1.1.86 1.59 1.37.48.58.92 1.19 1.21 1.9.36.68.46 1.4.62 2.11l.01.03v.02l.03.3v.28l.01.33v.25l-.01.18c-.02.24-.04.48-.08.72-.03.24-.08.48-.13.71-.06.21-.13.4-.21.6-.15.39-.31.77-.55 1.11-.22.35-.46.69-.73.95-.27.28-.54.56-.83.76-.57.45-1.16.76-1.72 1.02-.57.25-1.13.43-1.67.57-.55.14-1.08.24-1.62.31-.56.07-1.01.11-1.68.13l.11-5.41c.44.03.69.06 1.01.11.3.04.6.1.9.16.59.13 1.19.3 1.78.53 1.18.46 2.4 1.16 3.44 2.25.52.54.95 1.19 1.32 1.87.15.35.3.71.44 1.07.12.36.19.72.27 1.08.09.37.11.71.13 1.06l.03.53v.26l-.06.55-.09.71c.01.06-.08.38-.16.62a9.543 9.543 0 0 1-.6 1.47l-.35.52c-.25.33-.49.72-.78.97-.28.27-.57.54-.87.79-.29.21-.59.4-.89.6-.3.21-.59.35-.89.49-.29.14-.6.31-.88.4-.58.22-1.16.44-1.72.58-1.14.32-2.24.52-3.33.65-.55.07-1.09.11-1.64.15-.56.03-1.05.06-1.72.05h-.01a3.513 3.513 0 0 1-3.46-3.55 3.513 3.513 0 0 1 3.55-3.46c.09 0 .19.01.27.01.29.03.76.04 1.16.05.41 0 .83 0 1.24-.03.82-.04 1.62-.13 2.35-.28.38-.06.7-.17 1.03-.26.18-.04.29-.11.44-.16.14-.05.3-.1.39-.17l.33-.17c.06-.06.13-.12.21-.16.11-.04.08-.1.14-.14.02-.02.05-.04.08-.05 0 0-.03.03-.03.06-.01.03 0 .06.01.09.01.02.05.13.07-.06l.14-.71.02-.09.01-.04v-.03c-.02.16.04-.37-.04.36v-.3c0-.13.03-.27-.01-.36-.02-.1-.02-.22-.04-.32a1.29 1.29 0 0 1-.08-.28c-.08-.17-.16-.34-.29-.51-.25-.33-.7-.68-1.28-.96-.29-.14-.61-.26-.95-.36-.17-.05-.34-.1-.51-.13l-.42-.09-.1-.02a2.727 2.727 0 1 1 .21-5.38 8.779 8.779 0 0 0 1.88-.41c.59-.2 1.07-.48 1.29-.71.08-.05.08-.11.12-.14.05-.04.03-.08.04-.1.03-.02.01-.05 0-.07 0-.01.01-.02.01-.02-.02.02-.03.04-.03.06s0 .05.02.07l.01.02-.03-.24-.03-.33-.03-.24v-.05c.06.57.02.16.03.28v-.01c-.1-.13-.07-.31-.18-.38-.04-.11-.16-.18-.23-.28-.15-.08-.22-.19-.44-.28-.16-.11-.42-.19-.65-.28-.28-.07-.53-.17-.85-.22-.6-.13-1.3-.19-2.01-.21-.35-.01-.72-.01-1.08.01-.36.01-.7.04-1.21.08-1.93.15-3.61-1.29-3.76-3.22s1.29-3.61 3.22-3.76c.08-.01.16-.01.24-.01h.09z" fill="#242424"/><g fill="#242424"><path d="M72.66 52.17l.2-.17c.06-.06.15-.12.24-.2.13-.1.31-.21.5-.34.39-.25.77-.49 1.27-.73.49-.25 1.05-.49 1.67-.7 1.24-.45 2.71-.76 4.28-.91 1.57-.16 3.24-.08 4.89.12.5.09.69.11 1.18.21.44.09.86.18 1.25.28.8.19 1.56.46 2.3.74 1.47.57 2.8 1.28 3.87 2.05 1.08.75 1.89 1.55 2.42 2.17.27.3.46.57.59.75s.2.28.2.28c.88 1.23.59 2.94-.64 3.81-.98.7-2.27.66-3.2-.02l-.28-.21s-.2-.15-.6-.39c-.39-.24-.98-.58-1.76-.94-.77-.36-1.74-.71-2.82-1.03-.54-.16-1.11-.29-1.69-.42-.3-.07-.57-.12-.84-.17-.22-.05-.74-.11-.95-.15-1.21-.18-2.42-.25-3.55-.25-1.12.01-2.15.09-2.99.22-.42.07-.8.13-1.13.21-.32.07-.63.16-.8.2-.09.02-.17.04-.25.05-.12.05-.21.09-.29.12-.16.06-.24.1-.24.1-1.42.57-3.03-.11-3.6-1.53-.46-1.14-.11-2.4.77-3.15z"/><path d="M71.97 52.48s.05-.08.13-.23c.07-.13.24-.41.5-.76.46-.64 1.12-1.46 2-2.33.87-.88 1.93-1.81 3.13-2.7.6-.44 1.22-.9 1.88-1.31.67-.43 1.3-.81 2.04-1.25.62-.33 1.36-.73 2.06-1.08.69-.36 1.41-.64 2.09-.94 1.38-.57 2.73-1 3.92-1.29 1.19-.3 2.25-.45 3.02-.51s1.25-.04 1.25-.04c1.52.06 2.71 1.34 2.65 2.86a2.736 2.736 0 0 1-1.8 2.48l-.22.08s-.28.1-.76.28c-.5.19-1.23.48-2.14.88-.9.41-1.97.91-3.1 1.49-.57.3-1.15.61-1.75.92-.59.31-1.15.62-1.82 1.01-.55.3-1.18.67-1.75 1.01-.57.35-1.14.69-1.69 1.03-1.08.68-2.06 1.34-2.87 1.9-.81.57-1.44 1.06-1.85 1.38-.17.13-.33.24-.47.38-.13.12-.2.18-.2.18a2.768 2.768 0 0 1-3.91-.19c-.81-.92-.91-2.24-.34-3.25z"/></g><radialGradient id="b" cx="29.786" cy="66.916" r="19.444" gradientTransform="matrix(.9791 0 0 .9301 2.087 8.09)" gradientUnits="userSpaceOnUse"><stop stop-color="#ED7770" offset="0"/><stop stop-color="#ED7770" stop-opacity="0" offset=".9"/></radialGradient><circle cx="31.25" cy="70.33" r="17.5" fill="url(#b)" opacity=".8"/><path d="M44.67 40.61c-4.19 0-8 3.54-8 9.42s3.81 9.42 8 9.42 8-3.54 8-9.42-3.81-9.42-8-9.42z" fill="#242424"/></svg>