<svg viewBox="0 0 128 128" xmlns="http://www.w3.org/2000/svg"><symbol id="d" viewBox="-64.5 -64.5 129 129"><g fill="none" stroke="#4285F4" stroke-miterlimit="10"><path d="M-64-64H64V64H-64z"/><path d="M36.95 37.82C27.32 46.32 14.2 51 0 51c-14.27 0-27.39-4.62-36.96-13.01C-47.45 28.79-53 15.65-53 0c0-15.58 5.55-28.69 16.04-37.92C-27.36-46.35-14.24-51 0-51c14.17 0 27.29 4.71 36.95 13.25C47.45-28.45 53-15.4 53 0c0 15.47-5.55 28.55-16.05 37.82z"/><path d="M0 55c-29.59 0-57-19.01-57-55 0-35.8 27.41-55 57-55S57-35.31 57 0c0 35.51-27.41 55-57 55z"/><path d="M0-43c-12.29 0-23.54 3.94-31.68 11.09C-40.39-24.25-45-13.21-45 0c0 29.7 22.6 43 45 43 21.67 0 45-13.46 45-43S21.67-43 0-43zM-.01 51V-51M-16 48.95v-97.88M15.99 48.91v-97.84M53 .08H-53"/></g></symbol><linearGradient id="a" x1="63.992" x2="63.992" y1="19.717" y2="107.7" gradientUnits="userSpaceOnUse"><stop stop-color="#FEE133" offset=".5"/><stop stop-color="#FEDE32" offset=".612"/><stop stop-color="#FCD32F" offset=".708"/><stop stop-color="#FAC12B" offset=".797"/><stop stop-color="#F7A924" offset=".883"/><stop stop-color="#F6A323" offset=".9"/></linearGradient><path d="M63.99 119.89c-27.93 0-58-17.49-58-55.89s30.07-55.89 58-55.89c15.48 0 29.81 5.12 40.36 14.43 11.54 10.19 17.64 24.52 17.64 41.46 0 16.86-6.1 31.17-17.64 41.39-10.57 9.35-24.91 14.5-40.36 14.5z" fill="url(#a)"/><path d="M63.99 10.11c14.99 0 28.86 4.95 39.03 13.93 11.1 9.8 16.97 23.61 16.97 39.96 0 16.27-5.87 30.07-16.97 39.89-10.21 9.03-24.07 14-39.03 14-15.04 0-28.9-4.91-39.04-13.82C13.86 94.32 7.99 80.46 7.99 64c0-16.54 5.86-30.42 16.96-40.15 10.11-8.86 23.97-13.74 39.04-13.74m0-4c-31.15 0-60 20.01-60 57.89 0 37.68 28.85 57.89 60 57.89s60-20.73 60-57.89c0-37.37-28.85-57.89-60-57.89z" fill="#EB8F00"/><path d="M84 87.92c0 8.16-8.95 12.96-20 12.96s-20-4.79-20-12.96 8.95-17.04 20-17.04 20 8.87 20 17.04zM83.76 38.05c3.69 0 7.04 4.33 7.04 11.5s-3.35 11.5-7.04 11.5-7.04-4.33-7.04-11.5 3.36-11.5 7.04-11.5zM44.22 38.05c-3.69 0-7.04 4.33-7.04 11.5s3.35 11.5 7.04 11.5 7.04-4.33 7.04-11.5-3.35-11.5-7.04-11.5z" fill="#242424"/></svg>