<svg viewBox="0 0 128 128" xmlns="http://www.w3.org/2000/svg" xmlns:xlink="http://www.w3.org/1999/xlink"><symbol id="h" viewBox="-64.5 -64.5 129 129"><g fill="none" stroke="#4285F4" stroke-miterlimit="10"><path d="M-64-64H64V64H-64z"/><path d="M36.95 37.82C27.32 46.32 14.2 51 0 51c-14.27 0-27.39-4.62-36.96-13.01C-47.45 28.79-53 15.65-53 0c0-15.58 5.55-28.69 16.04-37.92C-27.36-46.35-14.24-51 0-51c14.17 0 27.29 4.71 36.95 13.25C47.45-28.45 53-15.4 53 0c0 15.47-5.55 28.55-16.05 37.82z"/><path d="M0 55c-29.59 0-57-19.01-57-55 0-35.8 27.41-55 57-55S57-35.31 57 0c0 35.51-27.41 55-57 55z"/><path d="M0-43c-12.29 0-23.54 3.94-31.68 11.09C-40.39-24.25-45-13.21-45 0c0 29.7 22.6 43 45 43 21.67 0 45-13.46 45-43S21.67-43 0-43zM-.01 51V-51M-16 48.95v-97.88M15.99 48.91v-97.84M53 .08H-53"/></g></symbol><linearGradient id="a" x1="64" x2="64" y1="19.717" y2="107.7" gradientUnits="userSpaceOnUse"><stop stop-color="#F6A323" offset=".566"/><stop stop-color="#FEE133" offset=".917"/></linearGradient><path d="M64 119.89C36.07 119.89 6 102.4 6 64S36.07 8.11 64 8.11c15.48 0 29.81 5.12 40.36 14.43C115.9 32.72 122 47.06 122 64c0 16.86-6.1 31.17-17.64 41.39-10.58 9.35-24.91 14.5-40.36 14.5z" fill="url(#a)"/><path d="M64 10.11c14.99 0 28.86 4.95 39.03 13.93C114.13 33.83 120 47.65 120 64c0 16.27-5.87 30.07-16.97 39.89-10.21 9.03-24.07 14-39.03 14-15.04 0-28.9-4.91-39.04-13.82C13.86 94.32 8 80.46 8 64c0-16.54 5.86-30.42 16.96-40.15C35.07 14.99 48.93 10.11 64 10.11m0-4c-31.15 0-60 20-60 57.89 0 37.68 28.85 57.89 60 57.89s60-20.73 60-57.89c0-37.37-28.85-57.89-60-57.89z" fill="#EB8F00"/><g fill="#242424"><path d="M35.86 51.74s.38.03 1.03.12c.16.02.34.05.54.08.18.01.28-.01.43-.01.29-.02.54 0 .97-.03.39-.02.81-.03 1.23-.09.43-.02.85-.16 1.28-.21.41-.12.86-.22 1.24-.39.42-.12.78-.34 1.16-.52.34-.23.71-.41 1-.68.33-.23.59-.52.87-.78.23-.31.52-.57.71-.9.24-.29.4-.64.59-.94.21-.29.29-.64.44-.92s.24-.55.31-.78c.17-.45.29-.72.29-.72l.38-.83c.86-1.87 3.07-2.7 4.95-1.84 1.23.56 2.01 1.72 2.15 2.97 0 0 .05.46.09 1.29.02.41.05.92-.03 1.52-.08.59-.08 1.27-.3 2-.19.73-.38 1.54-.77 2.35-.32.83-.81 1.66-1.37 2.49-.27.42-.62.79-.95 1.19l-.51.59-.59.49c-.77.73-1.67 1.31-2.57 1.87-.95.47-1.9.92-2.88 1.2l-.73.23-.73.14c-.49.08-.97.19-1.43.22-.94.08-1.85.11-2.69.02-.85-.03-1.62-.19-2.33-.35-.68-.12-1.41-.39-1.99-.59-.28-.11-.6-.21-.8-.31-.17-.1-.33-.18-.48-.26-.57-.32-.89-.52-.89-.52a3.853 3.853 0 0 1-1.21-5.31 3.87 3.87 0 0 1 3.59-1.79zM94.52 58.84s-.32.2-.89.52c-.14.08-.3.17-.48.26-.19.1-.51.2-.8.31-.59.2-1.31.48-1.99.59-.7.16-1.48.32-2.33.35-.84.09-1.75.06-2.69-.02-.47-.03-.95-.14-1.43-.22l-.73-.14-.73-.23c-.98-.28-1.94-.73-2.88-1.2-.9-.57-1.8-1.15-2.57-1.87l-.59-.52-.51-.59c-.33-.4-.68-.77-.95-1.19-.56-.83-1.05-1.65-1.37-2.49-.4-.81-.59-1.62-.77-2.35-.22-.73-.23-1.41-.3-2-.08-.59-.05-1.1-.03-1.52.04-.83.09-1.29.09-1.29a3.733 3.733 0 0 1 7.1-1.14l.38.84s.12.27.29.72c.08.23.17.5.31.78.15.27.24.62.44.92.19.31.35.65.59.94.19.33.48.59.71.9.28.26.54.56.87.78.29.27.66.46 1 .68.38.18.74.4 1.16.52.39.17.83.27 1.24.39.44.06.85.2 1.28.21.42.07.84.08 1.23.09.42.03.67.01.97.03.15 0 .25.03.43.01.2-.03.38-.05.54-.08.65-.09 1.03-.12 1.03-.12a3.846 3.846 0 0 1 4.16 3.51c.13 1.51-.61 2.87-1.78 3.62z"/></g><defs><path id="b" d="M64 66.25c-14.69 0-30.62 14.28-30.62 31.9 0 4.93 4.86 7.79 9.21 5.79 5.37-2.47 13.28-4.96 21.42-4.96s16.05 2.48 21.42 4.96c4.34 2 9.21-.86 9.21-5.79-.02-17.62-17.07-31.9-30.64-31.9z"/></defs><clipPath id="c"><use xlink:href="#b"/></clipPath><path d="M64 66.25c-14.69 0-30.62 14.28-30.62 31.9 0 4.93 4.86 7.79 9.21 5.79 5.37-2.47 13.28-4.96 21.42-4.96s16.05 2.48 21.42 4.96c4.34 2 9.21-.86 9.21-5.79-.02-17.62-17.07-31.9-30.64-31.9z" clip-path="url(#c)" fill="#242424"/><path d="M64 78.54c10.76 0 20.75 1.62 28.63 4.59V54.31H35.37v28.82c7.89-2.97 17.87-4.59 28.63-4.59z" clip-path="url(#c)" fill="#fff"/><g clip-path="url(#c)"><defs><path id="d" d="M64 78.54c10.76 0 20.75 1.62 28.63 4.59V54.31H35.37v28.82c7.89-2.97 17.87-4.59 28.63-4.59z"/></defs><clipPath id="e"><use xlink:href="#d"/></clipPath><g clip-path="url(#e)"><path d="M64 70.25c5.57 0 12.26 3.13 17.46 8.16 5.81 5.63 9.01 12.64 9.01 19.74 0 1.68-1.13 2.44-2.18 2.44-.36 0-.72-.09-1.09-.25-3.49-1.61-12.73-5.35-23.2-5.35s-19.72 3.74-23.2 5.35c-.36.17-.73.25-1.09.25-1.05 0-2.18-.76-2.18-2.44 0-15.71 14.23-27.9 26.47-27.9m0-4c-14.69 0-30.62 14.28-30.62 31.9 0 3.84 2.96 6.43 6.33 6.43.95 0 1.92-.2 2.88-.64 5.37-2.47 13.28-4.96 21.42-4.96s16.05 2.48 21.42 4.96c.95.44 1.93.64 2.88.64 3.37 0 6.33-2.59 6.33-6.43-.02-17.62-17.07-31.9-30.64-31.9z" fill="#EB8F00"/></g></g><path d="M52.21 22.9s-.01.32-.05.88c-.02.15-.02.28-.05.47-.04.2-.1.42-.16.66s-.13.49-.2.76c-.08.25-.18.49-.28.75-.18.53-.44 1.08-.76 1.64-.29.57-.68 1.13-1.09 1.7-.44.54-.87 1.13-1.41 1.62-.51.53-1.1.99-1.67 1.46-.62.41-1.23.84-1.88 1.18-.63.38-1.31.62-1.95.89-.66.23-1.3.44-1.94.56-.63.14-1.22.23-1.79.26-.55.06-1.07.05-1.52.02a6.39 6.39 0 0 1-1.17-.12c-.64-.11-1-.2-1-.2a2.025 2.025 0 0 1-1.48-2.45c.18-.71.7-1.24 1.35-1.44l.34-.11s.27-.09.72-.19c.23-.04.5-.13.8-.22.31-.08.65-.19 1.01-.33.37-.11.75-.29 1.16-.45.41-.15.81-.4 1.24-.59.42-.23.85-.47 1.27-.74.44-.24.84-.56 1.25-.85.39-.32.82-.61 1.17-.96.38-.33.73-.67 1.07-1.01.3-.36.65-.68.92-1.03.27-.34.55-.66.76-.98.24-.32.43-.59.58-.82.08-.12.16-.23.24-.33.08-.11.15-.28.21-.39.26-.49.43-.77.43-.77.59-.98 1.87-1.29 2.84-.7.7.41 1.06 1.12 1.04 1.83zM79.63 21.78s.17.28.43.77c.06.12.13.28.21.39.08.1.16.21.24.33.15.23.34.49.58.82.21.32.49.63.76.98.26.35.62.66.92 1.03.34.34.69.68 1.07 1.01.35.35.78.64 1.17.96.42.29.81.61 1.25.85.42.27.85.51 1.27.74.43.18.84.43 1.24.59.41.16.79.34 1.16.45.36.14.7.25 1.01.33.31.09.58.19.8.22.45.11.72.19.72.19l.33.11c1.07.33 1.66 1.47 1.32 2.54-.22.7-.78 1.19-1.44 1.36 0 0-.35.09-1 .2-.32.07-.71.11-1.17.12-.46.03-.97.04-1.52-.02-.56-.02-1.16-.12-1.79-.26-.63-.12-1.28-.33-1.94-.56-.64-.27-1.33-.51-1.95-.89-.65-.34-1.26-.77-1.88-1.18-.57-.48-1.16-.93-1.67-1.46-.54-.49-.97-1.08-1.41-1.62-.41-.57-.79-1.12-1.09-1.7-.31-.56-.57-1.11-.76-1.64-.1-.26-.2-.5-.28-.75-.07-.27-.14-.52-.2-.76s-.12-.46-.16-.66-.04-.33-.05-.47c-.05-.56-.05-.88-.05-.88-.03-1.14.87-2.09 2.02-2.12.8-.04 1.49.36 1.86.98z" fill="#6D4C41" stroke="#6D4C41" stroke-miterlimit="10"/></svg>