<svg viewBox="0 0 128 128" xmlns="http://www.w3.org/2000/svg"><symbol id="d" viewBox="-64.5 -64.5 129 129"><g fill="none" stroke="#4285F4" stroke-miterlimit="10"><path d="M-64-64H64V64H-64z"/><path d="M36.95 37.82C27.32 46.32 14.2 51 0 51c-14.27 0-27.39-4.62-36.96-13.01C-47.45 28.79-53 15.65-53 0c0-15.58 5.55-28.69 16.04-37.92C-27.36-46.35-14.24-51 0-51c14.17 0 27.29 4.71 36.95 13.25C47.45-28.45 53-15.4 53 0c0 15.47-5.55 28.55-16.05 37.82z"/><path d="M0 55c-29.59 0-57-19.01-57-55 0-35.8 27.41-55 57-55S57-35.31 57 0c0 35.51-27.41 55-57 55z"/><path d="M0-43c-12.29 0-23.54 3.94-31.68 11.09C-40.39-24.25-45-13.21-45 0c0 29.7 22.6 43 45 43 21.67 0 45-13.46 45-43S21.67-43 0-43zM-.01 51V-51M-16 48.95v-97.88M15.99 48.91v-97.84M53 .08H-53"/></g></symbol><linearGradient id="a" x1="64" x2="64" y1="19.717" y2="107.7" gradientUnits="userSpaceOnUse"><stop stop-color="#F6A323" offset=".566"/><stop stop-color="#FEE133" offset=".917"/></linearGradient><path d="M64 119.89C36.07 119.89 6 102.4 6 64S36.07 8.11 64 8.11c15.48 0 29.81 5.12 40.36 14.43C115.9 32.72 122 47.06 122 64c0 16.86-6.1 31.17-17.64 41.39-10.58 9.35-24.91 14.5-40.36 14.5z" fill="url(#a)"/><path d="M64 10.11c14.99 0 28.86 4.95 39.03 13.93C114.13 33.83 120 47.65 120 64c0 16.27-5.87 30.07-16.97 39.89-10.21 9.03-24.07 14-39.03 14-15.04 0-28.9-4.91-39.04-13.82C13.86 94.32 8 80.46 8 64c0-16.54 5.86-30.42 16.96-40.15C35.07 14.99 48.93 10.11 64 10.11m0-4c-31.15 0-60 20-60 57.89 0 37.68 28.85 57.89 60 57.89s60-20.73 60-57.89c0-37.37-28.85-57.89-60-57.89z" fill="#EB8F00"/><path d="M64 79.44c10.75 0 18.41 5.58 20.72 9.09.89 1.36 1.07 2.83.47 3.94-.45.84-1.27 1.32-2.25 1.32-.33 0-.67-.06-1.01-.16-5.42-1.7-11.62-2.59-17.96-2.59-6.29 0-12.48.9-17.88 2.59-.35.11-.69.16-1.02.16-.98 0-1.8-.48-2.25-1.32-.6-1.11-.42-2.58.47-3.94 2.3-3.52 9.96-9.09 20.71-9.09z" fill="#242424"/><path d="M86.32 106.55c-5.6 0-9.94-5.47-9.94-10.18 0-3.3 1.48-7.13 3.52-12.43.3-.77.61-1.57.92-2.4 1.55-4.07 3.76-8.44 5.37-11.44 1.43 2.96 3.47 7.25 5.39 11.55 3.63 8.15 4.69 11.45 4.69 14.72-.01 4.71-4.35 10.18-9.95 10.18z" fill="#5F7AFF"/><path d="M86.12 75.17c1.07 2.27 2.26 4.83 3.4 7.4 3.48 7.81 4.49 10.91 4.49 13.8 0 4.39-4.2 7.93-7.68 7.93s-7.68-3.54-7.68-7.93c0-2.88 1.41-6.54 3.37-11.61.3-.78.61-1.58.93-2.42.9-2.4 2.05-4.91 3.17-7.17m.2-9.94s-4.81 8.16-7.61 15.5c-2.55 6.7-4.59 11.39-4.59 15.64 0 6.05 5.46 12.44 12.2 12.44s12.2-6.39 12.2-12.44c0-3.81-1.23-7.45-4.88-15.63-3.49-7.83-7.32-15.51-7.32-15.51z" fill="#4864ED"/><g fill="#6D4C41" stroke="#6D4C41" stroke-miterlimit="10"><path d="M27.37 37.76c.42-1.33 1.61-2.22 3.03-2.25 3.9-.16 7.78-2.08 10.34-5.12 1.03-1.28 2.74-1.64 4.12-.9 1.32.7 1.9 2.15 1.44 3.59-.06.19-.14.38-.24.57-.85 1.56-1.94 2.92-3.26 4.09-3.52 3.16-8.33 4.65-12.87 3.98-1.01-.17-1.8-.68-2.27-1.44-.46-.74-.56-1.66-.29-2.52zM100.63 37.76c-.42-1.33-1.61-2.22-3.03-2.25-3.9-.16-7.78-2.08-10.34-5.12-1.03-1.28-2.74-1.64-4.12-.9-1.32.7-1.9 2.15-1.44 3.59.06.19.14.38.24.57.85 1.56 1.94 2.92 3.26 4.09 3.52 3.16 8.33 4.65 12.87 3.98 1.01-.17 1.8-.68 2.27-1.44.46-.74.56-1.66.29-2.52z"/></g><path d="M82.77 46.86c4.19 0 8 3.54 8 9.42s-3.81 9.42-8 9.42-8-3.54-8-9.42 3.81-9.42 8-9.42zM45.23 46.86c-4.19 0-8 3.54-8 9.42s3.81 9.42 8 9.42 8-3.54 8-9.42-3.81-9.42-8-9.42z" fill="#242424"/></svg>