<svg viewBox="0 0 128 128" xmlns="http://www.w3.org/2000/svg" xmlns:xlink="http://www.w3.org/1999/xlink"><defs><path id="a" d="M4 4h120v120H4z"/></defs><clipPath id="b"><use xlink:href="#a"/></clipPath><g clip-path="url(#b)"><radialGradient id="c" cx="-2.25" cy="-131.98" r="57.904" gradientTransform="matrix(.826 0 0 .826 66.11 101.29)" gradientUnits="userSpaceOnUse"><stop stop-color="#6D4C41" offset="0"/><stop stop-color="#543930" offset="1"/></radialGradient><path d="M47.02 119.76s-6.8-.35-10.21-5.09c-7.37-10.23-11.42-35.81-11.42-72.02 0-1.66.26-16.4 10.66-26.83C42.8 9.05 52.4 5.62 64.57 5.62c12.08 0 21.52 3.38 28.05 10.04 9.82 10.02 10.04 24.16 9.99 26.89 0 36.31-4.06 61.89-11.42 72.12-3.33 4.62-9.8 5.06-10.25 5.09L64 119.73l-16.98.03z" fill="url(#c)"/><path d="M64.57 7.12c11.66 0 20.74 3.23 26.98 9.59 9.6 9.8 9.59 24.2 9.56 25.81v.12c0 35.9-3.96 61.17-11.14 71.15-2.84 3.94-8.55 4.43-9.08 4.46l-16.9-.03-16.88.03c-.58-.04-6.25-.54-9.08-4.46-7.18-9.98-11.14-35.24-11.14-71.17 0-.63.08-15.58 10.22-25.75 6.46-6.46 15.7-9.75 27.46-9.75m0-3c-41.01 0-40.68 37.92-40.68 38.52 0 24.56 1.88 59.25 11.71 72.9 3.9 5.41 11.43 5.71 11.43 5.71l16.97-.02 16.97.03s7.53-.3 11.43-5.71c9.83-13.65 11.71-48.34 11.71-72.9-.01-.61 1.47-38.53-39.54-38.53z" fill="#3F2720"/></g><g clip-path="url(#b)"><linearGradient id="d" x1="60.834" x2="60.834" y1="44.683" y2="128.99" gradientUnits="userSpaceOnUse"><stop stop-color="#651FFF" offset="0"/><stop stop-color="#5914F2" offset=".705"/><stop stop-color="#530EEB" offset="1"/></linearGradient><path d="M116 121.06c0-16.79-26.35-25.09-52-25.06-4.32 0-8.68.22-12.92.66l-9.37-.34c-.36-.01-.72-.05-1.08-.09-4.62-.59-8.49-3.93-9.95-8.42l-1.32-4.05H5.23s7.33 40.69 8.77 45.54l102.43.62-.43-8.86z" fill="url(#d)"/></g><g clip-path="url(#b)"><linearGradient id="e" x1="66.756" x2="66.756" y1="102.54" y2="179.67" gradientUnits="userSpaceOnUse"><stop stop-color="#00BFA5" offset="0"/><stop stop-color="#00B29A" offset=".705"/><stop stop-color="#00AB94" offset="1"/></linearGradient><path d="M16.26 183.12v-9.44c0-16.24 25.36-23.53 50.5-23.56h.13c25.03 0 50.37 8.09 50.37 23.56v9.44h-101z" fill="url(#e)"/><path d="M66.89 151.62c12.9 0 25.42 2.19 34.36 6 6.62 2.83 14.51 7.91 14.51 16.05v7.94h-98v-7.94c0-15.2 24.61-22.03 49-22.06l.13.01m0-3h-.13c-25.49.03-52 7.28-52 25.06v10.94h104v-10.94c0-16.76-26.27-25.06-51.87-25.06z" fill="#009984"/></g><g clip-path="url(#b)"><path d="M63.17 107.23c-4 0-7.26-3.22-7.26-7.17v-8.98h16.16v8.98c0 3.96-3.26 7.17-7.26 7.17h-1.64z" fill="#E59600"/><path d="M71.08 92.08v7.98c0 3.4-2.81 6.17-6.26 6.17h-1.65c-3.45 0-6.26-2.77-6.26-6.17v-7.98h14.17m2-2H54.92v9.98c0 4.51 3.7 8.17 8.26 8.17h1.65c4.56 0 8.26-3.66 8.26-8.17v-9.98h-.01z" fill="#D18100"/></g><g clip-path="url(#b)"><linearGradient id="f" x1="64" x2="64" y1="94.708" y2="17.885" gradientUnits="userSpaceOnUse"><stop stop-color="#FFB300" offset="0"/><stop stop-color="#FFB809" offset=".102"/><stop stop-color="#FFC21A" offset=".371"/><stop stop-color="#FFC825" offset=".659"/><stop stop-color="#FFCA28" offset="1"/></linearGradient><path d="M64 95.27c-2.3 0-4.91-.5-7.56-1.43C45.1 89.83 31.87 77.5 31.87 55.95c0-28.72 17.31-38.91 32.13-38.91s32.13 10.19 32.13 38.91c0 21.58-13.26 33.9-24.61 37.9-2.63.93-5.23 1.42-7.52 1.42z" fill="url(#f)"/><path d="M64 18.04c8.41 0 16.06 3.25 21.55 9.15 6.27 6.73 9.58 16.68 9.58 28.77 0 21.06-12.9 33.07-23.94 36.96-2.53.89-5.01 1.36-7.19 1.36-2.19 0-4.69-.48-7.23-1.38-11.03-3.9-23.9-15.92-23.9-36.94 0-12.09 3.31-22.03 9.58-28.77 5.49-5.9 13.14-9.15 21.55-9.15m0-2c-17.2 0-33.13 12.79-33.13 39.91 0 21.79 13.49 34.67 25.23 38.83 2.8.99 5.5 1.49 7.9 1.49 2.38 0 5.07-.49 7.85-1.47 11.76-4.14 25.28-17.03 25.28-38.84 0-27.13-15.93-39.92-33.13-39.92z" fill="#ED9E00"/></g><g clip-path="url(#b)"><defs><path id="g" d="M30.41 88.85l-1.5-51.44c0-16.95 15.78-29.85 32.73-29.85h4.93c16.95 0 32.54 12.9 32.54 29.85l-1.5 51.18-67.2.26z"/></defs><clipPath id="h"><use xlink:href="#g"/></clipPath><g clip-path="url(#h)"><radialGradient id="i" cx="-4.182" cy="-123.13" r="48.206" gradientTransform="matrix(.796 0 0 .796 67.329 97.597)" gradientUnits="userSpaceOnUse"><stop stop-color="#6D4C41" offset="0"/><stop stop-color="#543930" offset="1"/></radialGradient><path d="M101.89 42.65s1.02-35.57-37.81-35.57-37.97 35.57-37.97 35.57.33 45.48 3.2 51.39 7.2 5.71 7.2 5.71-2.03-26.54-2.26-39.04c-.06-2.92-.94-13.73 5.16-15.09 22.36-5.02 35.01-16.89 35.01-16.89C77.71 35.92 88 42.92 91.69 45.59c3.03 2.19 2.61 11.2 2.55 15.03l-3.05 39.06s4.68.37 7.65-5.64c2.96-6.02 3.05-51.39 3.05-51.39z" fill="url(#i)"/></g></g><g clip-path="url(#b)"><path d="M67.81 68.05c-.1-.04-.21-.07-.32-.08H60.5c-.11.01-.21.04-.32.08-.63.26-.98.91-.68 1.61s1.69 2.66 4.49 2.66 4.19-1.96 4.49-2.66c.31-.69-.03-1.35-.67-1.61z" fill="#E59600"/><ellipse cx="47.75" cy="58.87" rx="4.87" ry="5.04" fill="#404040"/><ellipse cx="80.25" cy="58.87" rx="4.87" ry="5.04" fill="#404040"/><path d="M54.98 49.82c-.93-1.23-3.07-3.01-7.23-3.01s-6.31 1.79-7.23 3.01c-.41.54-.31 1.17-.02 1.55.26.35 1.04.68 1.9.39s2.54-1.16 5.35-1.18c2.81.02 4.49.89 5.35 1.18s1.64-.03 1.9-.39c.29-.38.39-1.01-.02-1.55zM87.48 49.82c-.93-1.23-3.07-3.01-7.23-3.01s-6.31 1.79-7.23 3.01c-.41.54-.31 1.17-.02 1.55.26.35 1.04.68 1.9.39s2.54-1.16 5.35-1.18c2.81.02 4.49.89 5.35 1.18s1.64-.03 1.9-.39c.29-.38.39-1.01-.02-1.55z" fill="#6D4C41"/><path d="M72.32 76.14c-3.15 1.87-13.46 1.87-16.61 0-1.81-1.07-3.65.57-2.9 2.21.74 1.61 6.37 5.36 11.23 5.36s10.42-3.75 11.16-5.36c.75-1.64-1.08-3.29-2.88-2.21z" fill="#795548"/></g><g clip-path="url(#b)"><radialGradient id="j" cx="23.644" cy="15.587" r="33.075" gradientTransform="rotate(15.507 32.573 34.668)" gradientUnits="userSpaceOnUse"><stop stop-color="#FFCA28" offset=".353"/><stop stop-color="#FFB300" offset=".872"/></radialGradient><path d="M25.59 45.66c-1.12 0-2.37-.21-3.71-.63-.67-.21-2.04-.49-3.63-.82-2.16-.45-5.12-1.07-5.76-1.44-.38-.22-2.63-3.48-1.3-11.17.5-2.87 1.66-9.81 1.66-9.81L14.5 10.9c.16-1.37.95-2.24 2.02-2.24.18 0 .38.02.58.07.62.15 1.42.6 1.3 2.71l-.39 6.54c-.03.56.36 1.07.92 1.17.07.01.14.02.21.02.52 0 .98-.37 1.1-.88.35-1.62 2.12-9.74 2.5-11.12.54-1.94 1.37-2.16 1.94-2.16.16 0 .33.02.51.06 1.82.4 1.46 2.64 1.37 3.08-.29 1.43-2.16 11.38-2.18 11.48-.13.6.24 1.2.83 1.33.09.02.17.03.24.03.5 0 .95-.35 1.08-.85L30.64 6.6c.33-1.21 1.19-2.01 2.14-2.01.27 0 .55.06.82.19 1.13.51 1.21 1.88.9 2.99L31 21.62c-.12.41.12.85.53.98.05.01.18.04.23.04.33 0 .62-.2.74-.52l4.7-11.34c.43-1.12 1.28-1.84 2.16-1.84.14 0 .29.02.44.06.58.15 1.02.48 1.27.97.33.63.33 1.48 0 2.32-.05.14-4.71 12.86-6 16.29-.13.35-.09.73.12 1.03.21.31.56.49.92.49.17 0 .33-.04.48-.11.65-.31 1.24-.82 1.86-1.36.98-.85 1.99-1.74 3.35-1.92.31-.04.61-.06.89-.06 1.74 0 2.74.76 3.06 1.41.19.39.32 1.49-.13 2.22-.27.44-.68.65-1.28.66-2.52.04-6.96 3.61-8.8 5.96-.56.72-1.07 1.56-1.62 2.46-1.81 2.94-3.86 6.3-8.33 6.3z" fill="url(#j)"/><path d="M32.77 5.1c.2 0 .41.05.62.14 1.09.49.71 2.08.61 2.42l-3.48 13.81a1.301 1.301 0 0 0 1.24 1.66c.54 0 1.01-.33 1.2-.82l4.71-11.37c.35-.92 1.02-1.51 1.69-1.51.1 0 .21.01.31.04.44.11.76.35.95.71.26.5.25 1.2-.03 1.92-.05.13-4.7 12.85-6 16.27a1.634 1.634 0 0 0 1.51 2.21c.24 0 .47-.05.69-.16.71-.34 1.32-.87 1.97-1.44.92-.81 1.88-1.64 3.08-1.8.28-.04.56-.06.82-.06 1.51 0 2.36.61 2.62 1.13.15.29.22 1.2-.11 1.74-.12.19-.32.42-.86.42-2.91.04-7.53 4.02-9.18 6.15-.58.74-1.1 1.6-1.65 2.51-1.82 2.99-3.71 6.08-7.9 6.08-1.07 0-2.27-.2-3.56-.61-.69-.22-2.08-.5-3.68-.84-1.89-.39-5.05-1.05-5.58-1.36-.42-.34-2.32-3.56-1.09-10.67.5-2.87 1.66-9.81 1.66-9.83L15 10.94c.1-.86.55-1.78 1.52-1.78.14 0 .3.02.45.06.34.08 1.04.26.92 2.2l-.39 6.54c-.05.82.52 1.54 1.32 1.69.1.02.2.03.3.03.76 0 1.42-.54 1.59-1.28 1.02-4.67 2.2-10.04 2.5-11.09.5-1.79 1.2-1.8 1.46-1.8.12 0 .26.02.4.05 1.36.3 1.06 2.13.99 2.49-.29 1.43-2.11 11.08-2.18 11.46-.19.88.35 1.75 1.22 1.95.11.02.22.04.34.04.72 0 1.37-.5 1.56-1.19l4.12-13.57c.27-.98.93-1.64 1.65-1.64m0-1c-1.21 0-2.23.98-2.62 2.37l-4.11 13.55c-.08.29-.33.48-.6.48-.04 0-.08 0-.12-.01h-.01c-.32-.07-.52-.41-.44-.75 0 0 1.89-10.04 2.18-11.48s.02-3.28-1.75-3.67a2.72 2.72 0 0 0-.61-.07c-1.36 0-2.04 1.14-2.43 2.53-.37 1.35-2.03 8.95-2.51 11.14a.62.62 0 0 1-.61.49c-.04 0-.08 0-.11-.01a.627.627 0 0 1-.51-.65l.39-6.54c.1-1.62-.29-2.88-1.68-3.23-.24-.06-.47-.09-.7-.09-1.37 0-2.33 1.1-2.52 2.67L12.36 21.7s-1.16 6.94-1.66 9.81c-1.31 7.55.77 11.24 1.54 11.69 1.15.67 7.82 1.79 9.49 2.31 1.45.45 2.73.65 3.86.65 6.14 0 7.95-5.9 10.35-8.97 1.75-2.24 6.11-5.73 8.41-5.76s2.29-2.74 1.85-3.61c-.44-.89-1.65-1.69-3.51-1.69-.3 0-.62.02-.95.07-2.4.32-3.78 2.58-5.35 3.33a.66.66 0 0 1-.27.06c-.41 0-.74-.42-.58-.85 1.31-3.47 6-16.28 6-16.28.66-1.72.14-3.5-1.61-3.95-.19-.05-.38-.07-.56-.07-1.15 0-2.14.91-2.62 2.15l-4.7 11.35c-.05.12-.16.2-.28.2-.03 0-.05 0-.08-.01h-.01a.302.302 0 0 1-.19-.38l3.49-13.84c.41-1.48.13-2.99-1.18-3.57-.35-.17-.7-.24-1.03-.24z" fill="#EDA600"/><path d="M34.87 29.27c-4.15.08-8.07 3.08-10.35 6.76-.35.56.2.92.55.36 1.97-3.18 6.29-5.68 9.92-5.53.49.02 1.82-.43 1.82-.43l-.91-.67s-.3-.36-1.03-.49z" fill="#EDA600"/></g><g clip-path="url(#b)"><linearGradient id="k" x1="16.841" x2="16.841" y1="44.683" y2="128.99" gradientUnits="userSpaceOnUse"><stop stop-color="#651FFF" offset="0"/><stop stop-color="#5914F2" offset=".705"/><stop stop-color="#530EEB" offset="1"/></linearGradient><path d="M29.14 83.06c-.48-1.94-.66-3.94-.54-5.93l.63-29.18c.05-.8-.37-1.52-1.03-1.88-.24-.15-.51-.26-.8-.3l-15.97-3.7c-1.03-.13-1.99.55-2.21 1.56L4.77 71.02a19.82 19.82 0 0 0-.3 6.65l.77 6.08h24.13l-.23-.69z" fill="url(#k)"/></g><path d="M116 121.06c0-14.8-20.49-23.01-42.92-24.72v3.01c19.91 1.56 39.93 8.87 39.93 21.71V129H44.92c-.96 0-1.86.46-2.43 1.23s-.72 1.77-.43 2.69l4.39 13.6-9.74.09c-1.01-.26-2-.49-2.96-.72-8.08-1.92-11.91-3.31-16.05-14.9-.15-.43-.4-.81-.71-1.12v-.57c0-.29-.04-.58-.13-.86-1.45-4.88-8.66-45.06-8.66-45.06l-.76-6.07c-.23-1.89-.14-3.79.26-5.66.01-.05.02-.1.03-.16l4.24-26.22 14.23 3.3-.61 28.44c0 5.23 2.23 11.72 2.23 11.72 1.83 5.63 6.7 9.73 12.42 10.47.02 0 .04 0 .06.01.38.04.83.09 1.3.1 0 0 11.48.32 13.3.02v-2.95s-10.17.32-14.27-.16c-4.63-.55-8.49-3.93-9.95-8.42 0 0-2.09-6.39-2.09-10.68l.63-29.18c.05-.8-.37-1.52-1.03-1.88-.24-.15-.51-.26-.8-.3l-15.97-3.7c-.09-.01-.17-.02-.26-.02-.93 0-1.75.65-1.95 1.58l-4.44 27.4a19.82 19.82 0 0 0-.3 6.65l.77 6.08s7.33 40.69 8.77 45.54v2.7h.89c5.29 14.82 11.75 15.08 21.47 17.62l14.21-.13L44.92 132H116v-10.94z" clip-path="url(#b)" fill="#4A00ED"/></svg>