<svg viewBox="0 0 128 128" xmlns="http://www.w3.org/2000/svg"><path d="M120.84 104.21H20c-39.62 0 17.25-76.08 60.06-76.08 39.5 0 40.77 16.25 40.77 16.25v59.83z" fill="#424242"/><path d="M80.06 31.13c34.1 0 37.53 12.31 37.77 13.47v56.61H20c-3.78 0-6.56-.75-8.25-2.23-1.44-1.25-2.13-3.09-2.13-5.62 0-9.28 9.69-25.04 23.56-38.33 15.62-14.96 33.15-23.9 46.88-23.9m0-3c-42.81 0-99.69 76.08-60.06 76.08h100.84V44.38s-1.27-16.25-40.78-16.25z" fill="#424242" opacity=".2"/><path d="M36.24 58.46L21.82 69.79c-.57.44-1.76.15-1.51-.87.44-1.8 2.35-5.08 5.95-8.12 4.74-4 8.59-3.72 9.4-3.7.7.01 1.13.93.58 1.36z" fill="#FFEB3B"/><linearGradient id="a" x1="64.313" x2="64.313" y1="28.25" y2="104.27" gradientUnits="userSpaceOnUse"><stop stop-color="#fff" offset="0"/><stop stop-color="#BDBDBD" offset=".991"/></linearGradient><path d="M124 104.53l-108-.21c-45.12-10.62 56.75-77.57 84-76.5h24v76.71z" fill="url(#a)"/><path d="M124 104.01H12c-1.4 1.37-15.64 19.83-1.58 19.83H124v-19.83z" fill="#263238"/><path d="M124 72.04c-6.02 0-16.46.11-24.08-.01C70.38 71.59 43.67 104 43.67 104l80.33.21V72.04z" fill="#0288D1"/><path d="M99.34 30.81c.19 0 .37 0 .54.01H121v70.7l-104.64-.2c-9.36-2.3-8.87-6.54-8.68-8.15 1.02-8.79 16.11-23.96 38.43-38.65 21.22-13.96 43.11-23.71 53.23-23.71m0-3c-28.19 0-128.11 65.97-83.34 76.51l108 .21V27.82h-24c-.22-.01-.43-.01-.66-.01z" fill="#424242" opacity=".2"/><path d="M121 107v14H10.42c-1.29 0-2.77-.31-3.03-.93-1.05-2.49 3.54-10.07 5.97-13.07H121m3-3H12c-1.4 1-15.64 20-1.58 20H124v-20z" fill="#eee" opacity=".2"/></svg>