<svg viewBox="0 0 128 128" xmlns="http://www.w3.org/2000/svg" xmlns:xlink="http://www.w3.org/1999/xlink"><path d="M4.02 44l29.11-24.97C43.98 10 44.64 11 52.04 15.71l32.15 20.45 18.96-19.44c3.62-4.56 6.19-7.44 10.88-.88l9.92 12.28.04 95.88H4.02V44z" fill="#81C784"/><path d="M109 15c.08.02.92.27 2.58 2.59.03.05.07.1.11.14l9.26 11.45.04 91.81L7.02 121V45.38l28.02-24.05c4.69-3.9 7.74-6.15 9.46-6.15 1.14 0 2.74 1.03 5.17 2.58l.75.48L82.58 38.7c.5.32 1.05.47 1.61.47.79 0 1.57-.31 2.15-.91l18.96-19.44c.07-.07.14-.15.2-.23.82-1.04 2.75-3.47 3.5-3.59m0-3c-2.01 0-3.75 2.08-5.86 4.72L84.19 36.17 52.04 15.71c-3.38-2.16-5.35-3.53-7.53-3.53-2.59 0-5.48 1.95-11.38 6.85L4.02 44v80h119.96l-.04-95.88-9.92-12.28C112.05 13.09 110.46 12 109 12z" fill="#424242" opacity=".2"/><path fill="#8D6E63" d="M4.04 101h119.85v23H4.04z"/><path fill="#424242" d="M4.04 101h119.92v7H4.04z"/><path d="M121.89 103v19H6.04v-19h115.85m2-2H4.04v23h119.85v-23z" fill="#eee" opacity=".2"/><circle cx="33" cy="99" r="6"/><circle cx="50" cy="99" r="6"/><circle cx="101" cy="99" r="6"/><circle cx="118" cy="99" r="6"/><path d="M20 37.08V92c0 3.3 2.7 6 6 6h98V37.08H20z" fill="#FFF8E1"/><path d="M64.04 68.25h-8.11c-2.21 0-4-1.79-4-4V48.17c0-2.21 1.79-4 4-4h8.11c2.21 0 4 1.79 4 4v16.08c0 2.21-1.79 4-4 4zM88.09 68.25h-8.11c-2.21 0-4-1.79-4-4V48.17c0-2.21 1.79-4 4-4h8.11c2.21 0 4 1.79 4 4v16.08c0 2.21-1.79 4-4 4zM112 68.25h-8.11c-2.21 0-4-1.79-4-4V48.17c0-2.21 1.79-4 4-4H112c2.21 0 4 1.79 4 4v16.08c0 2.21-1.79 4-4 4z" fill="#4FC3F7"/><defs><path id="a" d="M20 37.08V92c0 3.3 2.7 6 6 6h98V37.08H20z"/></defs><clipPath id="b"><use xlink:href="#a"/></clipPath><linearGradient id="c" x1="72" x2="72" y1="73.25" y2="100" gradientUnits="userSpaceOnUse"><stop stop-color="#EF5350" offset=".007"/><stop stop-color="#D32F2F" offset="1"/></linearGradient><path clip-path="url(#b)" fill="url(#c)" d="M20 74.14h104v31.72H20z"/><path d="M64.04 46.17c1.1 0 2 .9 2 2v16.08c0 1.1-.9 2-2 2h-8.11c-1.1 0-2-.9-2-2V48.17c0-1.1.9-2 2-2h8.11m0-2h-8.11c-2.21 0-4 1.79-4 4v16.08c0 2.21 1.79 4 4 4h8.11c2.21 0 4-1.79 4-4V48.17c0-2.21-1.79-4-4-4zM88.09 46.17c1.1 0 2 .9 2 2v16.08c0 1.1-.9 2-2 2h-8.11c-1.1 0-2-.9-2-2V48.17c0-1.1.9-2 2-2h8.11m0-2h-8.11c-2.21 0-4 1.79-4 4v16.08c0 2.21 1.79 4 4 4h8.11c2.21 0 4-1.79 4-4V48.17c0-2.21-1.79-4-4-4zM112 46.17c1.1 0 2 .9 2 2v16.08c0 1.1-.9 2-2 2h-8.11c-1.1 0-2-.9-2-2V48.17c0-1.1.9-2 2-2H112m0-2h-8.11c-2.21 0-4 1.79-4 4v16.08c0 2.21 1.79 4 4 4H112c2.21 0 4-1.79 4-4V48.17c0-2.21-1.79-4-4-4z" fill="#424242" opacity=".2"/><path d="M40.04 69.91H20V44h20.04c2.21 0 4 1.79 4 4v17.91c0 2.21-1.79 4-4 4z" fill="#4FC3F7"/><path d="M40.04 46c1.1 0 2 .9 2 2v17.91c0 1.1-.9 2-2 2H22V46h18.04m0-2H20v25.91h20.04c2.21 0 4-1.79 4-4V48c0-2.21-1.79-4-4-4z" fill="#424242" opacity=".2"/><path d="M120 28H24c-2.21 0-4 1.79-4 4v5.08h104V32c0-2.21-1.79-4-4-4z" fill="#37474F"/><path d="M120.02 31c.29 0 .98.07.98.75V95H26.04C24.45 95 23 93.45 23 91.75v-60c0-.74 1-.75 1.04-.75H120m.04-3h-96C21.83 28 20 29.54 20 31.75v60c0 3.3 2.74 6.25 6.04 6.25H124V31.75c0-2.21-1.75-3.75-3.96-3.75z" fill="#424242" opacity=".2"/></svg>