<svg viewBox="0 0 128 128" xmlns="http://www.w3.org/2000/svg"><linearGradient id="a" x1="64" x2="64" y1="5.395" y2="121.39" gradientUnits="userSpaceOnUse"><stop stop-color="#212121" offset="0"/><stop stop-color="#242424" offset=".309"/><stop stop-color="#2D2D2D" offset=".533"/><stop stop-color="#3D3D3D" offset=".731"/><stop stop-color="#535353" offset=".913"/><stop stop-color="#616161" offset="1"/></linearGradient><path d="M76.44 124H51.56c-5.5 0-10-4.5-10-10V14c0-5.5 4.5-10 10-10h24.88c5.5 0 10 4.5 10 10v100c0 5.5-4.5 10-10 10z" fill="url(#a)"/><radialGradient id="b" cx="60.105" cy="61.054" r="13.076" gradientUnits="userSpaceOnUse"><stop stop-color="#FFEE58" offset=".001"/><stop stop-color="#FDD743" offset=".353"/><stop stop-color="#FCC633" offset=".725"/><stop stop-color="#FBC02D" offset="1"/></radialGradient><circle cx="64" cy="63.84" r="13.08" fill="url(#b)"/><radialGradient id="c" cx="59.966" cy="96.247" r="13.076" gradientUnits="userSpaceOnUse"><stop stop-color="#81C784" offset=".002"/><stop stop-color="#77C07A" offset=".112"/><stop stop-color="#5AAF5E" offset=".465"/><stop stop-color="#49A44D" offset=".773"/><stop stop-color="#43A047" offset="1"/></radialGradient><circle cx="64" cy="99.45" r="13.08" fill="url(#c)"/><path d="M76.44 7.11c3.8 0 6.89 3.09 6.89 6.89v100c0 3.8-3.09 6.89-6.89 6.89H51.56c-3.8 0-6.89-3.09-6.89-6.89V14c0-3.8 3.09-6.89 6.89-6.89h24.88m0-3.11H51.56c-5.5 0-10 4.5-10 10v100c0 5.5 4.5 10 10 10h24.88c5.5 0 10-4.5 10-10V14c0-5.5-4.5-10-10-10z" fill="#eee" opacity=".2"/><radialGradient id="d" cx="59.92" cy="24.794" r="13.076" gradientUnits="userSpaceOnUse"><stop stop-color="#E57373" offset="0"/><stop stop-color="#E56969" offset=".11"/><stop stop-color="#E54F4C" offset=".464"/><stop stop-color="#E53F3B" offset=".772"/><stop stop-color="#E53935" offset="1"/></radialGradient><circle cx="64" cy="28.23" r="13.08" fill="url(#d)"/></svg>