<svg viewBox="0 0 128 128" xmlns="http://www.w3.org/2000/svg"><linearGradient id="a" x1="64" x2="64" y1="41.629" y2="82.912" gradientUnits="userSpaceOnUse"><stop stop-color="#616161" offset=".001"/><stop stop-color="#535353" offset=".088"/><stop stop-color="#3D3D3D" offset=".27"/><stop stop-color="#2D2D2D" offset=".467"/><stop stop-color="#242424" offset=".692"/><stop stop-color="#212121" offset="1"/></linearGradient><path d="M4 77.28V50.72c0-5.5 4.5-10 10-10h100c5.5 0 10 4.5 10 10v26.55c0 5.5-4.5 10-10 10H14c-5.5.01-10-4.49-10-9.99z" fill="url(#a)"/><radialGradient id="b" cx="55.784" cy="64.947" r="13.562" gradientTransform="rotate(90 64.168 68.152)" gradientUnits="userSpaceOnUse"><stop stop-color="#FFEB3B" offset=".014"/><stop stop-color="#FCCD31" offset=".626"/><stop stop-color="#FBC02D" offset="1"/></radialGradient><circle cx="64.49" cy="63.81" r="13.56" fill="url(#b)"/><radialGradient id="c" cx="55.639" cy="101.45" r="13.562" gradientTransform="rotate(90 64.168 68.152)" gradientUnits="userSpaceOnUse"><stop stop-color="#81C784" offset=".005"/><stop stop-color="#72BE76" offset=".201"/><stop stop-color="#50A854" offset=".719"/><stop stop-color="#43A047" offset="1"/></radialGradient><circle cx="27.55" cy="63.81" r="13.56" fill="url(#c)"/><path d="M114 43.95c3.74 0 6.78 3.04 6.78 6.78v26.55c0 3.74-3.04 6.78-6.78 6.78H14c-3.74 0-6.78-3.04-6.78-6.78V50.72c0-3.74 3.04-6.78 6.78-6.78h100m0-3.22H14c-5.5 0-10 4.5-10 10v26.55c0 5.5 4.5 10 10 10h100c5.5 0 10-4.5 10-10V50.72c0-5.5-4.5-10-10-10z" fill="#eee" opacity=".2"/><radialGradient id="d" cx="55.591" cy="27.34" r="13.562" gradientTransform="rotate(90 64.168 68.152)" gradientUnits="userSpaceOnUse"><stop stop-color="#E57373" offset="0"/><stop stop-color="#E56564" offset=".197"/><stop stop-color="#E54542" offset=".718"/><stop stop-color="#E53935" offset="1"/></radialGradient><circle cx="101.42" cy="63.81" r="13.56" fill="url(#d)"/></svg>