<svg viewBox="0 0 128 128" xmlns="http://www.w3.org/2000/svg"><path d="M-284.83 92h76.85c17.69 0 29.98 3.76 29.98 8.81V111h-107l.17-19z" fill="#BDBDBD"/><path fill="#757575" d="M-176.16 104v8h-111.83v-8z"/><path d="M-172 124h-8V87.67c0-2.21 1.79-4 4-4s4 1.79 4 4V124z" fill="#757575"/><path d="M-285 82h17s12 0 12 10h-29V82z" fill="#E0E0E0"/><path d="M-284 124h-8V68c0-2.21 1.79-4 4-4s4 1.79 4 4v56z" fill="#757575"/><linearGradient id="a" x1="-81.11" x2="-81.11" y1="95" y2="124.25" gradientUnits="userSpaceOnUse"><stop stop-color="#9CCC65" offset="0"/><stop stop-color="#7CB342" offset=".999"/></linearGradient><path d="M-138.08 92h80.62c14.33 0 25.29 2.24 29.53 5.59 1.25.99 3.95 2.07 3.95 3.22V111h-114.28l.18-19z" fill="url(#a)"/><path d="M-125.27 86.18c.97-2.5 3.37-4.15 6.06-4.15h12.55s12 0 12 10h-32.87l2.26-5.85z" fill="#FFEE58"/><path d="M-106.84 85c.95.01 9.08.3 9.09 7.01 0 1.65 1.43 2.99 3.08 2.99h37.21c15.79 0 24.77 2.66 27.66 4.94.54.43 1.17.81 1.78 1.17.29.17.7.42 1.01.63V108h-108.22l.12-13h7.58a3 3 0 0 0 2.8-1.92l2.25-5.83c.52-1.34 1.83-2.25 3.26-2.25H-107m.33-3h-12.55c-2.68 0-5.09 1.66-6.06 4.16l-2.26 5.84h-10.55l-.17 19H-24v-10.19c0-1.15-2.68-2.24-3.94-3.22C-32.18 94.24-43.12 92-57.46 92h-37.21c-.02-9.97-12-10-12-10z" fill="#424242" opacity=".2"/><path fill="#795548" d="M-22.614 104v8h-115.59v-8z"/><path d="M-24.61 106v4H-136.2v-4h111.59m2-2H-138.2v8h115.59v-8z" fill="#424242" opacity=".2"/><path d="M-20 124h-8V87.67c0-2.21 1.79-4 4-4s4 1.79 4 4V124zM-132 124h-8V68c0-2.21 1.79-4 4-4s4 1.79 4 4v56z" fill="#795548"/><path d="M-24 85.67c1.1 0 2 .9 2 2V122h-4V87.67a2 2 0 0 1 2-2m0-2c-2.21 0-4 1.79-4 4V124h8V87.67c0-2.21-1.79-4-4-4zM-136 66c1.1 0 2 .9 2 2v54h-4V68c0-1.1.9-2 2-2m0-2c-2.21 0-4 1.79-4 4v56h8V68c0-2.21-1.79-4-4-4z" fill="#424242" opacity=".2"/><linearGradient id="b" x1="22" x2="22" y1="88" y2="103.99" gradientUnits="userSpaceOnUse"><stop stop-color="#FFEE58" offset="0"/><stop stop-color="#FDD835" offset="1"/></linearGradient><path d="M36 103.99H8V88h22c3.31 0 6 2.69 6 6v9.99z" fill="url(#b)"/><linearGradient id="c" x1="78" x2="78" y1="88" y2="103.99" gradientUnits="userSpaceOnUse"><stop stop-color="#9CCC65" offset="0"/><stop stop-color="#7CB342" offset=".999"/></linearGradient><path d="M120 103.99H36V94c0-3.31 2.69-6 6-6h72c3.31 0 6 2.69 6 6v9.99z" fill="url(#c)"/><path d="M114 90c2.21 0 4 1.79 4 4v8H10V90h20c2.21 0 4 1.79 4 4 0 1.1.9 2 2 2s2-.9 2-2c0-2.21 1.79-4 4-4h72m0-2H42c-3.31 0-6 2.69-6 6 0-3.31-2.69-6-6-6H8v16h112V94c0-3.31-2.69-6-6-6z" fill="#424242" opacity=".2"/><path d="M124 113.64H8V100h110c3.31 0 6 2.69 6 6v7.64z" fill="#FFF9C4"/><path fill="#795548" d="M10 123.95H4v-11.97h12z"/><path d="M118 102c2.21 0 4 1.79 4 4v5.64H10V102h108m0-2H8v13.64h116V106c0-3.31-2.69-6-6-6z" fill="#424242" opacity=".2"/><path fill="#795548" d="M118 123.95h6v-11.97h-12z"/><path fill="#795548" d="M4 110.1h120v5.86H4z"/><path d="M12.13 115.97H4V68.05c0-2.24 1.82-4.06 4.06-4.06s4.06 1.82 4.06 4.06v47.92z" fill="#795548"/><path d="M8 65.98c1.12 0 2 .91 2 2.06V110c0 1.1.9 2 2 2h110v10h-2.76l-3.45-6.89A2 2 0 0 0 114 114H14a2 2 0 0 0-1.79 1.11L8.76 122H6V68.05c0-1.16.88-2.07 2-2.07m0-2c-2.24 0-4 1.82-4 4.06V124h6l4-8h100l4 8h6v-14H12V68.05c0-2.25-1.76-4.07-4-4.07z" fill="#424242" opacity=".2"/></svg>