<svg viewBox="0 0 128 128" xmlns="http://www.w3.org/2000/svg" xmlns:xlink="http://www.w3.org/1999/xlink"><path fill="#212121" d="M92.727 61.475L66.416 35.164l3.408-3.408 26.311 26.31z"/><g fill="#757575"><path d="M89.31 64.17l.4.4c.77.77 2.03.77 2.8 0l6.72-6.72c.77-.77.77-2.03 0-2.8l-.4-.4c-.77-.77-2.03-.77-2.8 0l-6.72 6.72c-.78.77-.78 2.03 0 2.8zM63.2 38.3l.4.4c.77.77 2.03.77 2.8 0l6.72-6.72c.77-.77.77-2.03 0-2.8l-.4-.4c-.77-.77-2.03-.77-2.8 0L63.2 35.5c-.77.77-.77 2.03 0 2.8z"/></g><linearGradient id="a" x1="36.915" x2="96.978" y1="90.122" y2="31.076" gradientUnits="userSpaceOnUse"><stop stop-color="#E0E0E0" offset="0"/><stop stop-color="#F5F5F5" offset="1"/></linearGradient><path d="M26.24 101.61c4.14 4.14 55.66-40 69.16-51.71 2.08-1.8 3.57-4.17 4.2-6.66l.77-3.06c.49-1.93.06-3.79-1.16-5l-6.44-6.38c-1.17-1.16-2.94-1.59-4.81-1.17l-3.17.72c-2.59.59-5.06 2.1-6.93 4.26-11.86 13.68-55.74 64.87-51.62 69z" fill="url(#a)"/><path d="M95.74 28.9l3.25 3.25 8.34-9.49c.95-.95 1.24-2.18.66-2.77-.58-.58-1.82-.29-2.77.66l-9.48 8.35z" fill="#616161"/><path d="M87.49 10.83L103.89 24l13.17 16.4c.8.8 2.09.8 2.88 0l.36-.36c.8-.8.8-2.09 0-2.88L103.89 24 90.73 7.6c-.8-.8-2.09-.8-2.88 0l-.36.36c-.8.79-.8 2.08 0 2.87zM96.84 26.36l4.69 4.69a3 3 0 0 1 0 4.24l-4.29 4.29-8.93-8.93 4.29-4.29a3 3 0 0 1 4.24 0z" fill="#424242"/><defs><path id="b" d="M26.24 101.61c4.14 4.14 55.66-40 69.16-51.71 2.08-1.8 3.57-4.17 4.2-6.66l.77-3.06c.49-1.93.06-3.79-1.16-5l-6.44-6.38c-1.17-1.16-2.94-1.59-4.81-1.17l-3.17.72c-2.59.59-5.06 2.1-6.93 4.26-11.86 13.68-55.74 64.87-51.62 69z"/></defs><clipPath id="c"><use xlink:href="#b"/></clipPath><path transform="rotate(-134.999 95.946 31.918)" clip-path="url(#c)" fill="#FB8C00" d="M79.69 25.36h32.5v13.12h-32.5z"/><path d="M89.29 8c.26 0 .51.1.7.27l7.41 9.23-9.23-7.41c-.18-.19-.27-.44-.27-.7 0-.28.11-.54.3-.73l.36-.36c.19-.19.45-.3.73-.3m21.1 22.5l9.23 7.41c.18.19.27.44.27.7 0 .28-.11.54-.3.73l-.36.36c-.2.2-.46.3-.73.3-.26 0-.51-.1-.7-.27l-7.41-9.23M89.29 7c-.52 0-1.04.2-1.44.6l-.36.36c-.8.8-.8 2.09 0 2.88L103.89 24l13.17 16.4a2.03 2.03 0 0 0 2.88 0l.36-.36c.8-.8.8-2.09 0-2.88L103.89 24 90.73 7.6c-.4-.4-.92-.6-1.44-.6z" fill="#eee" opacity=".2"/><path d="M76.87 40.27c-.43.88-.01 1.96.92 2.34 1.42.57 3 2 4.32 3.32 1.24 1.24 2.4 2.56 2.85 3.92.33.99 1.46 1.46 2.38 1.01l2.93-1.45c1.11-.55 1.28-2.07.41-3.73l-.13-.25c-1.76-3.36-4.79-6.43-8.14-8.24l-.21-.11c-1.66-.9-3.19-.77-3.78.32l-1.55 2.87z" fill="#4FC3F7"/><path d="M80.13 38.48c.14 0 .52.03 1.11.35l.21.11c3.01 1.63 5.75 4.4 7.32 7.41l.13.25c.28.53.33.91.33 1.08l-2.48 1.23c-.65-1.68-1.98-3.16-3.22-4.4-1.86-1.86-3.37-3.03-4.7-3.64l1.28-2.39h.02m0-2c-.77 0-1.39.31-1.72.91l-1.54 2.88c-.43.88-.01 1.96.92 2.34 1.42.57 3 2 4.32 3.32 1.24 1.24 2.4 2.56 2.85 3.92.24.73.93 1.18 1.64 1.18.25 0 .5-.05.74-.17l2.93-1.45c1.11-.55 1.28-2.07.41-3.73l-.13-.25c-1.76-3.36-4.79-6.43-8.14-8.24l-.21-.11c-.74-.41-1.46-.6-2.07-.6z" fill="#424242" opacity=".2"/><path d="M89.35 29.47c.82 0 1.52.26 2.02.75l6.44 6.38c.7.7.94 1.85.63 3.09l-.77 3.06c-.53 2.1-1.8 4.11-3.57 5.64-5.95 5.16-21.38 18.42-36.01 30.13-19.91 15.93-27.2 20.05-29.82 21.05.99-2.59 5.07-9.79 20.84-29.5C60.83 55.43 74.19 39.9 79.39 33.9c1.59-1.84 3.67-3.12 5.86-3.62l3.17-.72c.31-.05.63-.09.93-.09m0-2c-.45 0-.91.05-1.38.16l-3.17.72c-2.59.59-5.06 2.1-6.93 4.26-11.87 13.68-55.75 64.87-51.63 69 .18.18.46.27.83.27 7.82 0 55.43-40.8 68.34-51.98 2.08-1.8 3.57-4.17 4.2-6.66l.77-3.06c.49-1.93.06-3.79-1.16-5l-6.44-6.38c-.88-.87-2.09-1.33-3.43-1.33z" fill="#424242" opacity=".2"/><linearGradient id="d" x1="56.959" x2="21.394" y1="72.146" y2="106.26" gradientUnits="userSpaceOnUse"><stop stop-color="#EF6C00" offset="0"/><stop stop-color="#FB8C00" offset="1"/></linearGradient><path d="M8.47 85.02l18.79 15.63 15.61 18.77c1.29 1.55 3.47 1.64 4.17.18l5.1-8.38c.73-1.51.46-3.5-.7-5.2L39.32 88.29 21.48 76.06c-1.71-1.17-3.72-1.44-5.23-.7l-7.97 5.49c-1.45.72-1.35 2.89.19 4.17z" fill="url(#d)"/><linearGradient id="e" x1="33.05" x2="108.82" y1="19.906" y2="114.17" gradientUnits="userSpaceOnUse"><stop stop-color="#FB8C00" offset="0"/><stop stop-color="#EF6C00" offset="1"/></linearGradient><path d="M17.46 25.29l33.73 39.02 12.08 12.6 39.33 33.52c1.44 1.27 3.43 1.02 3.96-.5l4.6-13.01c.79-2.24-.01-5.04-2.01-7.04L38.01 18.74c-2-2-4.8-2.8-7.04-2.01l-13.01 4.6c-1.52.53-1.77 2.52-.5 3.96z" fill="url(#e)"/><path d="M32.79 19.43c1.05 0 2.21.54 3.1 1.43L107.03 92c1.17 1.17 1.7 2.78 1.3 3.92l-4.2 11.88-38.8-33.07-11.92-12.44L20.1 23.75l11.87-4.2c.25-.08.52-.12.82-.12m0-3c-.63 0-1.24.1-1.82.3l-13.01 4.6c-1.52.54-1.77 2.53-.5 3.96l33.73 39.02 12.08 12.6 39.33 33.52c.62.55 1.35.81 2.01.81.87 0 1.64-.45 1.95-1.31l4.6-13.01c.79-2.24-.01-5.04-2.01-7.04L38.01 18.74c-1.49-1.49-3.41-2.31-5.22-2.31zM18.12 77.95c.51 0 1.12.21 1.67.59l17.37 11.91 11.81 17.27c.58.85.67 1.67.52 2.11l-4.52 7.41-15.4-18.51a3.59 3.59 0 0 0-.39-.39L10.61 82.9l7.1-4.89c.12-.04.26-.06.41-.06m0-3c-.66 0-1.3.14-1.87.41l-7.97 5.49c-1.45.71-1.35 2.88.19 4.17l18.79 15.63 15.61 18.77c.67.81 1.59 1.22 2.41 1.22.75 0 1.42-.34 1.76-1.04l5.1-8.38c.73-1.51.46-3.5-.7-5.2L39.32 88.29 21.48 76.06c-1.07-.73-2.25-1.11-3.36-1.11z" fill="#424242" opacity=".2"/><ellipse transform="rotate(-45.001 32.027 95.297)" cx="32.03" cy="95.3" rx="15.05" ry="2.97" fill="#616161"/></svg>