<svg viewBox="0 0 128 128" xmlns="http://www.w3.org/2000/svg"><linearGradient id="a" x1="54.466" x2="54.466" y1="62.869" y2="80.607" gradientUnits="userSpaceOnUse"><stop stop-color="#F47C20" offset=".167"/><stop stop-color="#F8981D" offset=".657"/></linearGradient><path d="M54.47 85.39c-1.77 0-3.2-1.29-3.2-2.88V64.09c0-1.59 1.43-2.88 3.2-2.88s3.2 1.29 3.2 2.88v18.43c-.01 1.58-1.44 2.87-3.2 2.87z" fill="url(#a)"/><linearGradient id="b" x1="83.545" x2="83.545" y1="85.389" y2="61.213" gradientUnits="userSpaceOnUse"><stop stop-color="#F8981D" offset=".343"/><stop stop-color="#F47C20" offset=".833"/></linearGradient><path d="M83.55 85.39c-1.77 0-3.2-1.29-3.2-2.88V64.09c0-1.59 1.43-2.88 3.2-2.88s3.2 1.29 3.2 2.88v18.43c-.01 1.58-1.44 2.87-3.2 2.87z" fill="url(#b)"/><linearGradient id="c" x1="112.62" x2="112.62" y1="85.389" y2="61.213" gradientUnits="userSpaceOnUse"><stop stop-color="#F8981D" offset=".343"/><stop stop-color="#F47C20" offset=".833"/></linearGradient><path d="M112.62 85.39c-1.77 0-3.2-1.29-3.2-2.88V64.09c0-1.59 1.43-2.88 3.2-2.88s3.2 1.29 3.2 2.88v18.43c0 1.58-1.43 2.87-3.2 2.87z" fill="url(#c)"/><path d="M54.47 63.21c.65 0 1.2.4 1.2.88v18.43c0 .47-.55.88-1.2.88s-1.2-.4-1.2-.88V64.09c0-.48.55-.88 1.2-.88m0-2c-1.77 0-3.2 1.29-3.2 2.88v18.43c0 1.59 1.43 2.88 3.2 2.88s3.2-1.29 3.2-2.88V64.09c-.01-1.59-1.44-2.88-3.2-2.88zM83.55 63.21c.65 0 1.2.4 1.2.88v18.43c0 .47-.55.88-1.2.88s-1.2-.4-1.2-.88V64.09c0-.48.55-.88 1.2-.88m0-2c-1.77 0-3.2 1.29-3.2 2.88v18.43c0 1.59 1.43 2.88 3.2 2.88s3.2-1.29 3.2-2.88V64.09c-.01-1.59-1.44-2.88-3.2-2.88zM112.62 63.21c.65 0 1.2.4 1.2.88v18.43c0 .47-.55.88-1.2.88s-1.2-.4-1.2-.88V64.09c.01-.48.55-.88 1.2-.88m0-2c-1.77 0-3.2 1.29-3.2 2.88v18.43c0 1.59 1.43 2.88 3.2 2.88s3.2-1.29 3.2-2.88V64.09c0-1.59-1.43-2.88-3.2-2.88z" fill="#434343" opacity=".2"/><linearGradient id="d" x1="81.646" x2="81.646" y1="49.995" y2="80.592" gradientUnits="userSpaceOnUse"><stop stop-color="#FAA629" offset=".114"/><stop stop-color="#F78C1E" offset=".835"/></linearGradient><path d="M124 51.2c0-2.25-1.83-4.08-4.08-4.08H84.77c-5.2 0-9.78 2.62-12.5 6.61-2.19 3.21-5.8 5.15-9.68 5.15H43.73c-2.23 0-4.22 1.63-4.43 3.84a4.264 4.264 0 0 0 4.24 4.68h76.14c2.35 0 4.26-1.91 4.26-4.26 0-.06-.01-.11-.02-.16h.08V51.2z" fill="url(#d)"/><path d="M7.38 58.13c.17-.34.34-.67.51-1.01.06-.13.02-.66.02-.73.01-.59.01-1.18.01-1.77s0-1.18-.01-1.77c0-.17-.09-.59-.02-.73-.17.34-.34.67-.51 1.01-.06.13-.02.66-.02.73-.01.59-.01 1.18-.01 1.77s0 1.18.01 1.77c0 .17.09.59.02.73z" fill="#434343"/><linearGradient id="e" x1="62.922" x2="62.922" y1="40.056" y2="95.474" gradientUnits="userSpaceOnUse"><stop stop-color="#FAA629" offset=".067"/><stop stop-color="#F78C1E" offset="1"/></linearGradient><path d="M117.26 87.3h-78c-7.83 0-24.52-3.62-31.61-17.32C-.9 53.5 9.68 40.45 10.13 39.9a4.262 4.262 0 1 1 6.57 5.43c-.35.44-7.37 9.4-1.5 20.74 5.4 10.43 19.19 12.71 24.04 12.71h78c2.35 0 4.26 1.91 4.26 4.26s-1.89 4.26-4.24 4.26z" fill="url(#e)"/><path d="M13.42 40.36c.37 0 .92.09 1.44.52.96.79 1.09 2.22.29 3.19-.34.42-8.19 10.41-1.71 22.91 2.54 4.9 7.12 8.77 13.26 11.21 4.81 1.91 9.64 2.59 12.55 2.59h78c1.25 0 2.26 1.02 2.26 2.26 0 1.25-1.02 2.26-2.26 2.26h-78c-1.77 0-8.1-.24-15.29-3.36-6.74-2.92-11.64-7.26-14.55-12.88-7.94-15.33 1.83-27.39 2.26-27.89.43-.52 1.07-.81 1.75-.81m0-2c-1.22 0-2.44.53-3.28 1.54-.46.55-11.04 13.6-2.5 30.09 7.09 13.7 23.78 17.32 31.61 17.32h78c2.35 0 4.26-1.91 4.26-4.26s-1.91-4.26-4.26-4.26h-78c-4.86 0-18.64-2.28-24.04-12.71-5.87-11.33 1.15-20.3 1.5-20.74a4.272 4.272 0 0 0-.57-5.99c-.8-.67-1.76-.99-2.72-.99z" fill="#434343" opacity=".2"/><path d="M119.92 49.12c1.15 0 2.08.93 2.08 2.08v11.33c-.04.17-.06.35-.05.53 0 .06.01.12.01.17a2.26 2.26 0 0 1-2.26 2.17H43.55c-.65 0-1.24-.26-1.68-.74-.43-.48-.64-1.1-.58-1.75.11-1.14 1.18-2.03 2.44-2.03H62.6c4.52 0 8.76-2.25 11.33-6.02 2.45-3.59 6.5-5.74 10.85-5.74h35.14m0-2H84.77c-5.2 0-9.78 2.62-12.5 6.61-2.19 3.21-5.8 5.15-9.68 5.15H43.74c-2.23 0-4.22 1.63-4.43 3.84a4.264 4.264 0 0 0 4.24 4.68h76.14c2.35 0 4.26-1.91 4.26-4.26 0-.06-.01-.11-.02-.16h.07V51.2c0-2.26-1.83-4.08-4.08-4.08z" fill="#434343" opacity=".2"/></svg>