<svg viewBox="0 0 128 128" xmlns="http://www.w3.org/2000/svg"><symbol id="d" viewBox="-64.5 -64.5 129 129"><g fill="none" stroke="#4285F4" stroke-miterlimit="10"><path d="M-64-64H64V64H-64z"/><path d="M36.95 37.82C27.32 46.32 14.2 51 0 51c-14.27 0-27.39-4.62-36.96-13.01C-47.45 28.79-53 15.65-53 0c0-15.58 5.55-28.69 16.04-37.92C-27.36-46.35-14.24-51 0-51c14.17 0 27.29 4.71 36.95 13.25C47.45-28.45 53-15.4 53 0c0 15.47-5.55 28.55-16.05 37.82z"/><path d="M0 55c-29.59 0-57-19.01-57-55 0-35.8 27.41-55 57-55S57-35.31 57 0c0 35.51-27.41 55-57 55z"/><path d="M0-43c-12.29 0-23.54 3.94-31.68 11.09C-40.39-24.25-45-13.21-45 0c0 29.7 22.6 43 45 43 21.67 0 45-13.46 45-43S21.67-43 0-43zM-.01 51V-51M-16 48.95v-97.88M15.99 48.91v-97.84M53 .08H-53"/></g></symbol><linearGradient id="a" x1="64" x2="64" y1="19.717" y2="107.7" gradientUnits="userSpaceOnUse"><stop stop-color="#FEE133" offset=".5"/><stop stop-color="#FEDE32" offset=".612"/><stop stop-color="#FCD32F" offset=".708"/><stop stop-color="#FAC12B" offset=".797"/><stop stop-color="#F7A924" offset=".883"/><stop stop-color="#F6A323" offset=".9"/></linearGradient><path d="M64 119.89C36.07 119.89 6 102.4 6 64S36.07 8.11 64 8.11c15.48 0 29.81 5.12 40.36 14.43C115.9 32.72 122 47.06 122 64c0 16.86-6.1 31.17-17.64 41.39-10.58 9.35-24.91 14.5-40.36 14.5z" fill="url(#a)"/><path d="M64 10.11c14.99 0 28.86 4.95 39.03 13.93C114.13 33.83 120 47.65 120 64c0 16.27-5.87 30.07-16.97 39.89-10.21 9.03-24.07 14-39.03 14-15.04 0-28.9-4.91-39.04-13.82C13.86 94.32 8 80.46 8 64c0-16.54 5.86-30.42 16.96-40.15C35.07 14.99 48.93 10.11 64 10.11m0-4c-31.15 0-60 20-60 57.89 0 37.68 28.85 57.89 60 57.89s60-20.73 60-57.89c0-37.37-28.85-57.89-60-57.89z" fill="#EB8F00"/><g fill="#EB8F00" stroke="#EB8F00" stroke-miterlimit="10" stroke-width=".8"><path d="M36.58 37.73c-.04-.03-.07-.06-.11-.09-1.67-1.49-4.3.92-2.81 2.98 1.19 1.58 2.65 2.99 4.34 4.13a18.483 18.483 0 0 0 15.18 2.54c2.45-.71 1.88-4.25-.36-4.08-5.68.35-11.59-1.49-16.24-5.48zM91.42 37.73c.04-.03.07-.06.11-.09 1.67-1.49 4.3.92 2.81 2.98A18.157 18.157 0 0 1 90 44.75a18.483 18.483 0 0 1-15.18 2.54c-2.45-.71-1.88-4.25.36-4.08 5.68.35 11.59-1.49 16.24-5.48z"/></g><path d="M80.5 92.54c0 8.34-7.39 13.23-16.5 13.23s-16.5-4.89-16.5-13.23 7.39-17.4 16.5-17.4 16.5 9.07 16.5 17.4z" fill="#242424"/><path d="M24.574 72.637l78.993 8.308-3.53 33.564-78.993-8.308z"/><g fill="#fff"><path d="M38.73 94.29l-2.1-.2-1.39 5.26-2.59-.25 1.39-5.26-2.89-.28.23-2.39 3.28.32.91-3.39-2.88-.28.23-2.39 3.27.32 1.42-5.34 2.58.25L38.78 86l2.1.2 1.42-5.34 2.59.25-1.42 5.34 3.01.29-.23 2.39-3.4-.33-.91 3.39 2.99.29-.23 2.39-3.38-.33-1.39 5.26-2.59-.25 1.39-5.26zm-1.48-2.55l2.1.2.91-3.39-2.1-.2-.91 3.39zM56.96 96.5c.06-.6-.04-1.09-.31-1.46-.26-.37-.76-.75-1.47-1.12-.72-.38-1.37-.75-1.98-1.13-.6-.37-1.11-.79-1.53-1.24s-.72-.96-.91-1.53c-.19-.56-.25-1.23-.18-2 .12-1.29.66-2.3 1.61-3.05s2.15-1.12 3.61-1.12l.23-2.41 1.81.18-.24 2.45c1.37.34 2.41 1.02 3.12 2.04s.99 2.25.85 3.7l-3.86-.37c.08-.79-.02-1.41-.28-1.87s-.68-.71-1.24-.77c-.5-.05-.91.07-1.22.36s-.49.71-.54 1.27.06 1.03.35 1.39.77.73 1.45 1.1 1.32.75 1.91 1.13c.6.38 1.1.8 1.52 1.26.42.45.73.97.93 1.54.21.57.27 1.24.2 2.01-.13 1.3-.64 2.32-1.55 3.07-.9.74-2.08 1.11-3.51 1.11l-.22 2.3-1.81-.18.22-2.31c-1.64-.34-2.86-1.03-3.65-2.08s-1.11-2.36-.96-3.94l3.85.37c-.08.87.04 1.55.39 2.04.34.49.86.77 1.57.84.52.05.94-.06 1.27-.34.33-.29.51-.7.57-1.24zM65.75 101.68c.06-.62.33-1.11.82-1.47s1.07-.5 1.74-.44c.67.07 1.22.32 1.63.76s.59.97.53 1.6c-.06.62-.34 1.11-.82 1.47-.49.36-1.07.5-1.74.43-.67-.06-1.21-.32-1.62-.76-.42-.43-.6-.96-.54-1.59zm4.49-3.51l-3.44-.33.67-12.59 4.53.44-1.76 12.48zM96.26 96.18c-.28 2.04-.94 3.61-2 4.74-1.06 1.12-2.37 1.61-3.93 1.46-.64-.06-1.2-.26-1.66-.58s-.81-.76-1.04-1.29c-.87.96-1.95 1.38-3.24 1.25-.75-.07-1.39-.36-1.91-.85-.52-.5-.87-1.17-1.06-2-.19-.84-.17-1.77.03-2.8.42-1.93 1.21-3.45 2.35-4.54s2.46-1.56 3.94-1.42c1.15.11 2.12.47 2.89 1.09l.69.56-1.27 6.84c-.24 1.08.09 1.66.97 1.74.66.07 1.26-.31 1.8-1.11.53-.81.89-1.87 1.06-3.19.39-2.6.04-4.67-1.04-6.22s-2.79-2.43-5.14-2.66c-1.49-.14-2.86.11-4.1.76s-2.26 1.64-3.07 2.97-1.35 2.89-1.61 4.66c-.39 2.73-.04 4.88 1.04 6.45s2.84 2.47 5.29 2.71c.66.06 1.36.05 2.11-.03s1.37-.2 1.85-.36l.25 1.99c-.51.27-1.18.46-2.01.57s-1.65.13-2.46.05c-2.14-.21-3.9-.79-5.3-1.75s-2.38-2.28-2.94-3.95c-.57-1.67-.7-3.65-.4-5.93.3-2.15.99-4.04 2.06-5.66s2.43-2.83 4.1-3.61c1.66-.78 3.48-1.08 5.45-.89s3.64.76 4.99 1.72c1.36.96 2.32 2.24 2.89 3.84.56 1.6.71 3.42.42 5.44zm-11.87.2c-.19 1.01-.18 1.79.02 2.33s.57.84 1.12.9c.37.03.72-.1 1.06-.4s.64-.74.9-1.34l.99-5.31c-.23-.09-.47-.14-.72-.16-.88-.08-1.59.19-2.13.83-.53.64-.95 1.69-1.24 3.15z"/></g><path d="M82.77 51.36c4.19 0 8 3.54 8 9.42s-3.81 9.42-8 9.42-8-3.54-8-9.42 3.81-9.42 8-9.42zM45.23 51.36c-4.19 0-8 3.54-8 9.42s3.81 9.42 8 9.42 8-3.54 8-9.42-3.81-9.42-8-9.42z" fill="#242424"/></svg>