<svg viewBox="0 0 128 128" xmlns="http://www.w3.org/2000/svg"><path d="M71.39 66.52c-1.64 0-3.12-1.07-3.16-2.29l-.52-15.06c-.01-.25-.04-.5-.11-.75l-1.67-9.03c-.13-.55-.28-1.04-.42-1.52-.56-1.87-.96-3.23.37-4.82.43-.52 1.21-.84 2.02-.84 1.6 0 2.89 1.13 3.45 3.02l4.64 12.57c.09.2.14.34.16.47l3.02 14.8c.2.97-.53 1.85-1.78 2.14l-5.16 1.21c-.27.07-.55.1-.84.1z" fill="#FFCA28"/><path d="M67.9 33.22c.54 0 1.88.22 2.49 2.3.01.04.03.09.04.13l4.62 12.5.06.15c.03.06.05.12.06.17l3.02 14.8c.09.45-.45.83-1.03.97L72 65.45c-.2.05-.41.07-.62.07-1.17 0-2.14-.73-2.16-1.33l-.52-15.06c-.01-.3-.05-.59-.12-.89L66.9 39.2c-.01-.03-.01-.07-.02-.1-.13-.54-.28-1.04-.42-1.53-.58-1.93-.77-2.76.18-3.89.25-.28.74-.46 1.26-.46m0-2c-1.12 0-2.16.45-2.79 1.19-2.07 2.47-.77 4.61-.17 7.16l1.69 9.09c.04.18.07.36.08.54l.52 15.06c.06 1.83 2.02 3.26 4.16 3.26.36 0 .72-.04 1.07-.12l5.16-1.21c1.77-.42 2.83-1.81 2.53-3.31l-3.02-14.8a2.39 2.39 0 0 0-.21-.62l-4.62-12.5c-.78-2.68-2.67-3.74-4.4-3.74z" fill="#EDA600"/><path d="M79.77 62.43c-2.71 0-5.1-1.78-5.33-3.96l-1.59-15.48c-.05-.46-.16-.92-.32-1.36l-4.85-12.41c-.54-1.72-.34-3.76.54-5.26.46-.78 1.31-1.78 2.76-2.08.12-.03.26-.04.41-.04 1.71 0 4.31 1.53 5.32 3.72l5.82 12.64c.14.3.24.62.28.93l2.93 18.99c.14.91-.1 1.79-.7 2.53-.79.98-2.09 1.59-3.57 1.67l-1.34.08c-.12.02-.24.03-.36.03z" fill="#FFCA28"/><path d="M71.39 22.84c1.21 0 3.53 1.22 4.41 3.14l5.82 12.64c.1.22.17.44.2.67l2.93 18.99c.12.79-.2 1.39-.49 1.75-.61.76-1.65 1.23-2.85 1.3l-1.34.08c-.1.01-.21.01-.31.01-2.18 0-4.16-1.4-4.33-3.06l-1.59-15.48c-.06-.54-.18-1.09-.39-1.63l-4.82-12.33c-.46-1.51-.29-3.21.45-4.46.36-.61 1.01-1.38 2.1-1.61.05 0 .11-.01.21-.01m0-2c-.22 0-.42.02-.61.06-3.53.73-5.19 5.02-4.04 8.69l4.85 12.39c.14.36.22.73.26 1.11l1.59 15.48c.28 2.72 3.1 4.86 6.32 4.86.14 0 .29 0 .43-.01l1.34-.08c3.3-.2 5.63-2.59 5.2-5.35L83.8 39c-.06-.41-.18-.81-.36-1.2l-5.82-12.64c-1.2-2.63-4.21-4.32-6.23-4.32z" fill="#EDA600"/><path d="M90.29 60.99c-2.6 0-5.57-.85-6.02-2.44l-1.85-16.2c0-.04-.01-.08-.02-.12a5.3 5.3 0 0 0-.38-1.05L76.9 29.25a.467.467 0 0 0-.05-.1l-2.95-5.23-.14-.46c-1.1-3.56-1.66-5.83.74-7.51.63-.44 1.4-.67 2.29-.67 2.11 0 4.56 1.32 5.58 3.01l9.79 16.16c.11.17.2.35.27.54l7.89 19.85c.36.9.31 1.83-.14 2.69-.58 1.09-1.73 1.9-3.17 2.22l-4.41.99c-.68.17-1.48.25-2.31.25z" fill="#FFCA28"/><path d="M76.79 16.29c1.76 0 3.88 1.13 4.73 2.53l9.79 16.16c.08.13.14.26.2.39l7.89 19.85c.31.79.12 1.44-.1 1.86-.44.83-1.35 1.46-2.5 1.71l-4.41.99c-.61.14-1.33.21-2.08.21-2.64 0-4.72-.86-5.04-1.65l-1.84-16.1c-.01-.08-.02-.17-.05-.25-.1-.41-.24-.81-.43-1.2l-5.12-11.93a1.14 1.14 0 0 0-.1-.19l-2.89-5.13-.11-.35c-1.13-3.66-1.4-5.17.36-6.4.44-.34 1.02-.5 1.7-.5m0-2c-1.02 0-2.02.26-2.86.85-3.28 2.31-2.03 5.65-.94 9.18l3 5.32 5.14 11.97c.13.28.24.56.31.86l1.86 16.27c.55 2.22 3.93 3.25 7.01 3.25.89 0 1.76-.09 2.52-.26l4.41-.99c3.27-.73 5.09-3.57 4.02-6.26l-7.89-19.85c-.09-.24-.21-.47-.34-.69l-9.79-16.16c-1.18-1.92-3.92-3.49-6.45-3.49z" fill="#EDA600"/><path d="M99.36 58.65c-2.77 0-5.15-1.55-5.53-3.61l-2.8-14.91c-.07-.4-.2-.79-.37-1.17l-4.73-10.63c-.03-.06-.06-.11-.09-.17-2.47-3.55-2.96-6.4-1.56-8.99.79-1.47 2.31-1.69 3.15-1.69 2.39 0 4.81 1.55 5.88 3.76.02.03.03.06.05.09l8.55 13.6c.09.15.18.35.25.55l6.06 17.51c.3.87.21 1.75-.26 2.57-.66 1.13-1.95 1.96-3.55 2.26l-3.71.71c-.45.08-.89.12-1.34.12z" fill="#FFCA28"/><path d="M87.42 18.48c1.7 0 3.96 1.1 4.98 3.2.03.07.07.13.11.19l8.53 13.56c.07.13.13.26.17.39l6.06 17.51c.21.59.15 1.18-.18 1.74-.5.87-1.58 1.53-2.88 1.78l-3.71.71c-.37.07-.76.11-1.14.11-2.26 0-4.25-1.23-4.55-2.8l-2.8-14.91c-.09-.48-.24-.95-.44-1.39l-4.73-10.63a1.35 1.35 0 0 0-.19-.33c-2.23-3.2-2.71-5.72-1.5-7.95.52-.98 1.52-1.18 2.27-1.18m0-2c-1.68 0-3.2.69-4.03 2.21-1.87 3.46-.54 6.93 1.62 10.04l4.73 10.63c.14.31.24.63.3.95l2.8 14.91c.49 2.58 3.35 4.43 6.52 4.43.5 0 1.01-.05 1.52-.14l3.71-.71c3.46-.66 5.51-3.41 4.57-6.14l-6.06-17.51c-.09-.26-.21-.51-.35-.76L94.2 20.8c-1.32-2.73-4.23-4.32-6.78-4.32z" fill="#EDA600"/><radialGradient id="a" cx="113.71" cy="47.676" r="57.387" gradientTransform="scale(-1 1) rotate(-5.44 -2.008 2052.436)" gradientUnits="userSpaceOnUse"><stop stop-color="#FFCA28" offset=".659"/><stop stop-color="#FFB300" offset="1"/></radialGradient><path d="M113.08 44.23c-1.26-3.43-6.11-3.42-7.41-.01-.86 2.27-1.66 4.33-1.71 5.43-.13 2.94.75 4.63.75 4.63s-3.52-3.14-16.69-.1c-15.39 3.55-21.42 7.28-21.88 11.85-.91 8.95-3.1 19.02-1.83 28.08 1.43 10.22 8.05 19.6 8.05 19.6h36.74s-1.93-8.82 3.78-14.25c0 0 8.96-10.82 9.58-16.03l1.43-16.12c.49-3.96-.77-7.93-3.45-10.88a66.815 66.815 0 0 1-3.98-4.8c-.96-1.27-2.22-4.26-3.38-7.4z" fill="url(#a)"/><linearGradient id="b" x1="98.192" x2="107.44" y1="44.898" y2="93.898" gradientUnits="userSpaceOnUse"><stop stop-color="#FFCA28" offset=".649"/><stop stop-color="#FFB300" offset="1"/></linearGradient><path d="M85.3 79.47c-1 7.31 6.25 13.7 13.73 14.62 16.47 2.02 19.37-7.89 21.38-14.98 6.27-22.05-6.16-22.94-8.77-32.17-1.04-3.68-2.81-4.87-4.29-2.95-3 3.89-1.58 8.19.46 16.83.77 3.25-1.8 5.14-5.46 5.33-7.49.37-16.12 6.47-17.05 13.32z" fill="url(#b)"/><g fill="#EDA600"><path d="M87.79 56.4c-.14-.69-.3-1.37-.5-2.04-2.12.5-4.04.98-5.8 1.46.04.71.14 1.41.28 2.1 1.79-.5 3.79-1 6.02-1.52z"/><path d="M120.45 56.44a66.815 66.815 0 0 1-3.98-4.8c-.97-1.28-2.22-4.27-3.38-7.41-.63-1.71-2.16-2.57-3.69-2.57s-3.07.85-3.72 2.56c-.86 2.27-1.66 4.33-1.71 5.43-.13 2.94.75 4.63.75 4.63s-1.6-1.43-6.67-1.43c-1.79 0-4.02.18-6.75.66.19.68.35 1.36.49 2.06 2.32-.4 4.42-.62 6.27-.62 3.57 0 5.04.77 5.31.93.39.41.89.61 1.41.61.42 0 .86-.14 1.24-.4.87-.61 1.08-1.82.59-2.76-.01-.01-.63-1.33-.53-3.59.03-.72.83-2.82 1.48-4.51l.1-.27c.43-1.12 1.45-1.21 1.75-1.21s1.31.09 1.72 1.19c1.5 4.06 2.7 6.66 3.67 7.95a72.62 72.62 0 0 0 4.11 4.94 11.57 11.57 0 0 1 2.92 9.21c0 .02-.01.05-.01.07l-1.43 16.09c-.42 3.33-5.73 10.8-9.03 14.82-4.44 4.3-4.82 10.23-4.61 13.58h-33.2c-1.59-2.77-5.96-10.93-7.06-18.83-1.04-7.42.08-15.07 1.16-22.46.2-1.33.39-2.67.57-3.99.41-2.98 2.99-5.07 9.63-7.24-.15-.69-.26-1.39-.34-2.09-7.61 2.46-10.82 5.01-11.37 9.04-1.22 8.91-3 17.97-1.73 27.04 1.43 10.22 7.95 20.65 7.95 20.65h36.74s-1.93-8.82 3.78-14.25c0 0 8.96-10.82 9.58-16.03l1.43-16.12c.5-3.96-.76-7.93-3.44-10.88z"/></g><path d="M84.28 83.86c1.83-11.11 8.01-15.99 17.45-16.57 1.89-.12 3.74-.04 4.82-1.19 2.92-3.09 1.81-6.72.92-9.63-.33-1.07-.64-2.08-.74-2.97-.06-.58-.58-1-1.16-.93-.58.06-.99.58-.93 1.16.12 1.09.46 2.19.81 3.35.85 2.76 1.65 5.38-.43 7.57-.52.55-1.91.66-3.38.76-1.47.11-3.13.23-4.65.83-6.44 2.56-10.81 5.15-12.81 17.32-.1.59.01.85.1.3z" fill="#EDA600"/><path d="M56.61 66.52c-.29 0-.57-.03-.85-.1l-5.16-1.21c-1.24-.29-1.97-1.17-1.78-2.14l3.02-14.8c.03-.13.07-.27.13-.39l4.65-12.58c.58-1.95 1.86-3.08 3.47-3.08.82 0 1.59.32 2.02.84 1.33 1.59.93 2.95.37 4.82-.14.48-.29.97-.41 1.47l-1.7 9.14a3.4 3.4 0 0 0-.09.69l-.52 15.06c-.03 1.21-1.51 2.28-3.15 2.28z" fill="#FFCA28"/><path d="M60.1 33.22c.52 0 1.01.19 1.26.48.95 1.13.75 1.96.18 3.89-.14.48-.29.99-.42 1.53-.01.03-.01.07-.02.1l-1.68 9.04c-.07.29-.11.59-.12.89l-.52 15.06c-.02.6-.99 1.33-2.16 1.33-.21 0-.42-.02-.62-.07l-5.16-1.21c-.58-.14-1.12-.51-1.03-.97l3.02-14.8c.01-.06.03-.11.06-.17l.06-.15 4.62-12.5c.02-.04.03-.09.04-.13.61-2.1 1.94-2.32 2.49-2.32m0-2c-1.72 0-3.62 1.06-4.41 3.73l-4.62 12.5c-.09.2-.16.41-.21.62l-3.02 14.8c-.31 1.5.76 2.9 2.53 3.31l5.16 1.21c.36.08.72.12 1.07.12 2.14 0 4.1-1.43 4.16-3.26l.52-15.06c.01-.18.03-.36.08-.54l1.69-9.09c.61-2.55 1.9-4.69-.17-7.16-.62-.74-1.67-1.18-2.78-1.18z" fill="#EDA600"/><path d="M48.23 62.43c-.12 0-.25 0-.37-.01l-1.34-.08c-1.48-.09-2.78-.7-3.57-1.67-.6-.74-.84-1.62-.7-2.53l2.93-18.99c.05-.31.14-.63.28-.93l5.82-12.65c1.01-2.2 3.62-3.72 5.32-3.72.15 0 .29.01.41.04 1.45.3 2.3 1.3 2.76 2.08.88 1.51 1.08 3.55.52 5.33l-4.82 12.33c-.17.45-.28.91-.33 1.37l-1.59 15.48c-.21 2.17-2.6 3.95-5.32 3.95z" fill="#FFCA28"/><path d="M56.61 22.84c.1 0 .17.01.21.02 1.09.23 1.75 1 2.1 1.61.73 1.25.91 2.96.45 4.46l-4.83 12.35c-.2.52-.33 1.06-.38 1.61l-1.59 15.48c-.17 1.66-2.15 3.06-4.33 3.06-.1 0-.21 0-.31-.01l-1.34-.08c-1.2-.07-2.24-.55-2.85-1.3-.29-.36-.61-.96-.49-1.75l2.93-18.99c.03-.22.1-.45.2-.67l5.82-12.64c.88-1.92 3.2-3.15 4.41-3.15m0-2c-2.02 0-5.02 1.69-6.23 4.31l-5.82 12.64c-.18.39-.3.79-.36 1.2l-2.93 18.99c-.43 2.76 1.9 5.16 5.2 5.35l1.34.08c.14.01.29.01.43.01 3.22 0 6.04-2.13 6.32-4.86l1.59-15.48c.04-.37.13-.74.26-1.11l4.85-12.39c1.15-3.67-.51-7.96-4.04-8.69-.19-.03-.4-.05-.61-.05z" fill="#EDA600"/><path d="M37.71 60.99c-.82 0-1.62-.08-2.3-.23L31 59.77c-1.44-.32-2.59-1.13-3.17-2.22-.45-.86-.5-1.79-.14-2.69l7.89-19.85c.07-.19.16-.37.27-.54l9.79-16.15c1.02-1.69 3.48-3.01 5.58-3.01.89 0 1.66.22 2.29.67 2.39 1.68 1.84 3.95.74 7.51l-.14.46-2.95 5.23c-.02.03-.03.06-.05.1l-5.14 11.97c-.15.31-.27.66-.36 1.01-.01.04-.02.08-.02.12l-1.85 16.2c-.47 1.56-3.44 2.41-6.03 2.41z" fill="#FFCA28"/><path d="M51.21 16.29c.68 0 1.25.16 1.71.49 1.75 1.23 1.49 2.73.36 6.4l-.11.35-2.89 5.13c-.04.06-.07.13-.1.19l-5.12 11.93c-.18.39-.33.79-.43 1.2-.02.08-.04.17-.05.25l-1.84 16.1c-.31.8-2.39 1.65-5.04 1.65-.75 0-1.47-.07-2.08-.21l-4.41-.99c-1.15-.26-2.06-.88-2.5-1.71a2.17 2.17 0 0 1-.1-1.86l7.89-19.85c.05-.13.12-.27.2-.39l9.79-16.16c.84-1.39 2.96-2.52 4.72-2.52m0-2c-2.54 0-5.27 1.57-6.44 3.49l-9.79 16.16c-.14.22-.25.45-.34.69l-7.89 19.85c-1.07 2.69.75 5.53 4.02 6.26l4.41.99c.76.17 1.63.26 2.52.26 3.07 0 6.46-1.03 7.01-3.25l1.86-16.27c.07-.29.17-.58.31-.86l5.14-11.97 3-5.32c1.08-3.54 2.34-6.88-.94-9.18-.85-.6-1.84-.85-2.87-.85z" fill="#EDA600"/><path d="M28.64 58.65c-.45 0-.89-.04-1.33-.12l-3.71-.71c-1.6-.3-2.9-1.13-3.55-2.26-.47-.81-.56-1.7-.26-2.57l6.06-17.51c.07-.2.16-.4.27-.59l8.53-13.57c.02-.03.04-.06.05-.09 1.08-2.21 3.5-3.76 5.88-3.76.83 0 2.35.22 3.15 1.69 1.4 2.59.91 5.45-1.56 8.99-.04.05-.07.11-.09.17l-4.73 10.63c-.17.38-.29.77-.37 1.17l-2.8 14.91c-.39 2.06-2.77 3.62-5.54 3.62z" fill="#FFCA28"/><path d="M40.58 18.48c.75 0 1.75.2 2.27 1.16 1.2 2.22.73 4.75-1.5 7.95-.07.1-.13.21-.19.33l-4.73 10.63c-.2.45-.35.92-.44 1.4l-2.8 14.91c-.29 1.57-2.29 2.8-4.55 2.8-.38 0-.77-.04-1.14-.11l-3.71-.71c-1.3-.25-2.37-.91-2.88-1.78-.32-.56-.38-1.14-.18-1.74l6.06-17.51c.05-.13.1-.26.17-.39l8.53-13.56c.04-.06.07-.13.11-.19 1.02-2.1 3.28-3.19 4.98-3.19m0-2c-2.55 0-5.46 1.6-6.78 4.32l-8.55 13.6c-.14.25-.26.5-.35.76l-6.06 17.51c-.94 2.72 1.11 5.48 4.57 6.14l3.71.71c.51.1 1.02.14 1.52.14 3.17 0 6.03-1.84 6.52-4.43l2.8-14.91c.06-.32.16-.64.3-.95l4.73-10.63c2.16-3.11 3.49-6.58 1.62-10.04-.83-1.53-2.35-2.22-4.03-2.22z" fill="#EDA600"/><radialGradient id="c" cx="167.9" cy="52.836" r="57.387" gradientTransform="rotate(-5.438 34.826 1278.13)" gradientUnits="userSpaceOnUse"><stop stop-color="#FFCA28" offset=".659"/><stop stop-color="#FFB300" offset="1"/></radialGradient><path d="M14.92 44.23c1.26-3.43 6.11-3.42 7.41-.01.86 2.27 1.66 4.33 1.71 5.43.13 2.94-.75 4.63-.75 4.63s3.52-3.14 16.69-.1c15.39 3.55 21.42 7.28 21.88 11.85.91 8.95 3.1 19.02 1.83 28.08-1.43 10.22-8.05 19.6-8.05 19.6H18.9s1.93-8.82-3.78-14.25c0 0-8.96-10.82-9.58-16.03L4.11 67.32c-.49-3.96.77-7.93 3.45-10.88 1.23-1.36 2.62-2.98 3.98-4.8.96-1.28 2.22-4.27 3.38-7.41z" fill="url(#c)"/><linearGradient id="d" x1="27.249" x2="22.249" y1="43.023" y2="96.273" gradientUnits="userSpaceOnUse"><stop stop-color="#FFCA28" offset=".649"/><stop stop-color="#FFB300" offset="1"/></linearGradient><path d="M42.7 79.47c1 7.31-6.25 13.7-13.73 14.62C12.51 96.11 9.61 86.2 7.59 79.11c-6.27-22.05 6.16-22.94 8.77-32.17 1.04-3.68 2.81-4.87 4.29-2.95 3 3.89 1.58 8.19-.46 16.83-.77 3.25 1.8 5.14 5.46 5.33 7.49.37 16.12 6.47 17.05 13.32z" fill="url(#d)"/><g fill="#EDA600"><path d="M40.21 56.4c.14-.69.3-1.37.5-2.04 2.12.5 4.04.98 5.8 1.46-.04.71-.14 1.41-.28 2.1-1.79-.5-3.79-1-6.02-1.52z"/><path d="M7.55 56.44c1.23-1.36 2.62-2.98 3.98-4.8.97-1.28 2.22-4.27 3.38-7.41.63-1.71 2.16-2.57 3.69-2.57s3.07.85 3.72 2.56c.86 2.27 1.66 4.33 1.71 5.43.13 2.94-.75 4.63-.75 4.63s1.6-1.43 6.67-1.43c1.79 0 4.02.18 6.75.66-.19.68-.35 1.36-.49 2.06-2.32-.4-4.42-.62-6.27-.62-3.57 0-5.04.77-5.31.93-.39.41-.89.61-1.41.61-.42 0-.86-.14-1.24-.4-.87-.61-1.08-1.82-.59-2.76.01-.01.63-1.33.53-3.59-.03-.72-.83-2.82-1.48-4.51l-.1-.27c-.43-1.12-1.45-1.21-1.75-1.21s-1.31.09-1.72 1.19c-1.5 4.06-2.7 6.66-3.67 7.95a72.62 72.62 0 0 1-4.11 4.94 11.57 11.57 0 0 0-2.92 9.21c0 .02.01.05.01.07L7.61 83.2c.42 3.33 5.73 10.8 9.03 14.82 4.44 4.3 4.82 10.23 4.61 13.58h33.17c1.59-2.77 5.96-10.93 7.06-18.83 1.04-7.42-.08-15.07-1.16-22.46-.2-1.33-.39-2.67-.57-3.99-.41-2.98-2.99-5.07-9.63-7.24.15-.69.26-1.39.34-2.09 7.62 2.46 10.82 5.02 11.38 9.05 1.22 8.91 3 17.97 1.73 27.04-1.43 10.22-7.95 20.65-7.95 20.65H18.9s1.93-8.82-3.78-14.25c0 0-8.96-10.82-9.58-16.03L4.11 67.32c-.5-3.96.76-7.93 3.44-10.88z"/></g><path d="M43.72 83.86c-1.83-11.11-8.01-15.99-17.45-16.57-1.89-.12-3.74-.04-4.82-1.19-2.92-3.09-1.81-6.72-.92-9.63.33-1.07.64-2.08.74-2.97.06-.58.58-1 1.16-.93.58.06.99.58.93 1.16-.12 1.09-.46 2.19-.81 3.35-.85 2.76-1.65 5.38.43 7.57.52.55 1.91.66 3.38.76 1.47.11 3.13.23 4.65.83 6.44 2.56 10.81 5.15 12.81 17.32.1.59-.01.85-.1.3z" fill="#EDA600"/></svg>