<svg viewBox="0 0 128 128" xmlns="http://www.w3.org/2000/svg" xmlns:xlink="http://www.w3.org/1999/xlink"><linearGradient id="a" x1="187.43" x2="187.43" y1="-167.12" y2="-143.46" gradientTransform="rotate(-21.156 641.632 232.12)" gradientUnits="userSpaceOnUse"><stop stop-color="#70534A" offset=".55"/><stop stop-color="#5C4037" offset=".83"/><stop stop-color="#3C2B24" offset="1"/></linearGradient><path d="M85.82 19.45c-3.45-3.35-9.36-3.4-13.84-1.64-5.01 1.97-7 6.31-6.72 11.21.1 1.77.52 3.48 1.07 4.63.07.14.58 1.13.67 1.46.47 1.24-1.73 3.04-1.72 4.51.01 1.11 2.37 1.31 2.59 1.46 1.07.77.68 5.64 6.85 4.75 2.15-.31 3.13-.86 4.04.55l.79 4.08 6.89-.74s-1.26-3.53.42-8.26c.79-2.23 1.27-4.83 2.67-7.09 2.76-4.47-.83-12.13-3.71-14.92z" fill="url(#a)"/><linearGradient id="b" x1="65.237" x2="90.514" y1="33.562" y2="33.562" gradientUnits="userSpaceOnUse"><stop stop-color="#4A2F27" offset="0"/><stop stop-color="#291B16" offset="1"/></linearGradient><path d="M78.02 17.66c2.92 0 5.44.89 7.11 2.51 2.64 2.57 6 9.71 3.54 13.68-1.06 1.71-1.6 3.52-2.13 5.28-.21.7-.41 1.36-.63 2-1.2 3.38-1 6.2-.72 7.72l-4.84.52-.61-3.17a.89.89 0 0 0-.14-.35c-.61-.94-1.37-1.38-2.4-1.38-.48 0-.98.09-1.56.2-.32.06-.67.12-1.07.18-.45.07-.88.1-1.27.1-2.7 0-3.27-1.51-3.83-2.97-.27-.71-.5-1.32-1.03-1.7-.21-.15-.44-.2-.81-.29-.73-.17-1.18-.32-1.35-.46.05-.4.45-1.03.77-1.54.61-.97 1.29-2.07.9-3.18-.1-.31-.33-.81-.66-1.46l-.06-.12c-.52-1.09-.89-2.68-.97-4.26-.16-2.86.41-7.99 6.09-10.22 1.79-.71 3.75-1.09 5.67-1.09m0-1c-2.07 0-4.18.42-6.03 1.15-5.01 1.97-7 6.31-6.72 11.21.1 1.77.52 3.48 1.07 4.63.07.14.58 1.13.67 1.46.47 1.24-1.73 3.04-1.72 4.51.01 1.11 2.37 1.31 2.59 1.46.98.7.73 4.86 5.44 4.86.43 0 .9-.03 1.41-.11 1.08-.16 1.86-.37 2.49-.37s1.1.22 1.55.92l.79 4.08 6.89-.74s-1.26-3.53.42-8.26c.79-2.23 1.27-4.83 2.67-7.09 2.77-4.47-.82-12.13-3.7-14.92-2.04-1.96-4.9-2.79-7.82-2.79z" fill="url(#b)"/><radialGradient id="c" cx="160.85" cy="-44.13" r="13.186" gradientTransform="matrix(1.0182 -.2047 .203 .9794 -81.192 99.051)" gradientUnits="userSpaceOnUse"><stop stop-color="#444140" offset="0"/><stop stop-color="#232020" offset="1"/></radialGradient><path d="M79.87 38.04l.76-5.36s3.36.25 2.96 3.71c-.29 2.43 1.52 4.9 2.62 4.98l.64.1c.63-3.65 4.83-5.32 4.27-14.59-.48-8.04-8.06-11.56-14.77-10.78-6.43.75-13.07 5.96-11.31 14.59.06.3 8.51-.12 10.76 1.68 2.21 1.77 1.15 5.78 4.07 5.67z" fill="url(#c)"/><defs><path id="d" d="M85.2 31.7l.94 8.6-.45.88s.35.17.51.18l.64.1c.63-3.65 4.83-5.32 4.27-14.59-.48-8.04-8.06-11.56-14.77-10.78-6.43.75-13.12 6.29-11.34 14.63.01.06 1.01.07 1.01.07l-.17-1.38 9.88-.19 9.48 2.48z"/></defs><clipPath id="e"><use xlink:href="#d"/></clipPath><g clip-path="url(#e)"><path d="M78.19 16.99c5.46 0 11.52 3.11 11.93 9.94.35 5.83-1.21 8.38-2.59 10.63-.55.89-1.08 1.75-1.41 2.72-.59-.39-1.75-2.04-1.54-3.78.16-1.32-.13-2.42-.84-3.28-1.12-1.36-2.85-1.52-3.04-1.54h-.08a1 1 0 0 0-.99.86l-.6 4.23c-.22-.26-.4-.75-.67-1.65-.34-1.14-.75-2.57-1.95-3.53-1.7-1.36-5.64-1.61-9.52-1.74-.35-.01-.73-.03-1.04-.04-.44-2.89.17-5.55 1.76-7.75 1.95-2.69 5.25-4.54 8.85-4.96.58-.07 1.16-.11 1.73-.11m0-1c-.62 0-1.23.04-1.84.11-6.43.75-13.1 6.07-11.35 14.6.06.3 8.54-.12 10.79 1.68 2.18 1.74 1.18 5.67 3.95 5.67h.12l.76-5.36s3.36.25 2.96 3.71c-.29 2.43 1.52 4.9 2.62 4.98l.64.1c.63-3.65 4.83-5.32 4.27-14.59-.42-7.33-6.73-10.9-12.92-10.9z" fill="#1F1D1B"/></g><path d="M70.82 40.06l-2.26.87s.47 1.02.7 1.43c1.24 2.22 3.39 4.39 7.52 3.22.37-.11-3.17-4.9-3.17-4.9l-2.79-.62z" fill="none"/><defs><path id="f" d="M85.82 19.45c-3.45-3.35-9.36-3.4-13.84-1.64-6.19 2.43-8.06 8.02-6.44 14.27 0 0 .96 2.54 1.27 3.64.81 2.12-1.12 2.05-1.22 3.78-.1 1.63 2.06 1.43 2.28 1.58 1.07.77.68 5.64 6.85 4.75 2.15-.31 3.13-.86 4.04.55l1.9 4 5.78-.66s-.99-8.76 3.09-15.35c2.76-4.47-.83-12.13-3.71-14.92z"/></defs><clipPath id="g"><use xlink:href="#f"/></clipPath><g clip-path="url(#g)"><path d="M64.48 42.08c1.77 1.61 5.08 2.17 6.81.22.66-.74-.02-1.28-.83-.7-1.31.93-4 .54-5.11-.47-.74-.67-1.6.29-.87.95z" fill="#1A1717"/></g><ellipse transform="rotate(-9.46 70.343 36.144)" cx="70.32" cy="36.15" rx="1.14" ry="1.75" fill="#1A1717"/><path d="M69.25 33.94c-.98.62-1.43-.01-1.24-.68.14-.49.69-1.03 2-1.15 1.24-.11 1.92.43 2.36.75s.52.74.26.85c-.35.16-2.17-.54-3.38.23z" fill="#1A1717"/><path d="M68.15 52.26l6.89-1.58c.95-.33 1.09-.86 1.09-.86-.05-.39-.58-.53-1.1-.65l-2.99-.18s-5.84.71-5.15 2.31c.14.65.7 1.08 1.26.96zM55.05 52.94l-7.04.64c-1-.02-1.3-.48-1.3-.48-.08-.38.38-.69.84-.95l2.79-1.11s5.77-1.15 5.61.59c.07.66-.33 1.24-.9 1.31z" fill="#4D3B33" stroke="#291B16" stroke-linecap="round" stroke-linejoin="round" stroke-miterlimit="10"/><linearGradient id="h" x1="32.165" x2="68.225" y1="54.072" y2="54.072" gradientUnits="userSpaceOnUse"><stop stop-color="#5C4037" offset="0"/><stop stop-color="#70534A" offset="1"/></linearGradient><path d="M46.52 59.15a.59.59 0 0 0-.14-.02c-.19 0-.29 0-.4-.02-.1-.01-.19-.04-.28-.07 0 0-.09-.03-.1-.03-.04-.01-.09-.01-.13-.01h-.03l-13.28-2.66 2.38-7.38 12.07 4.29c.05.02.11.03.17.03h.07c3.01-.41 12.95-1.78 14.58-2.14.8-.17 2.33-.35 3.67-.35 2.4 0 2.94.51 3.05.67.06.08.11.21.01.48-.74 2.01-16.04 7.14-21.55 7.23-.01.01-.09-.02-.09-.02z" fill="url(#h)"/><path d="M34.86 49.61l11.59 4.12c.1.04.21.06.31.06h.02c.05 0 .09 0 .14-.01 3.01-.41 12.95-1.78 14.62-2.14.63-.14 2.1-.34 3.57-.34 1.89 0 2.48.33 2.61.43 0 .01-.01.02-.01.04-.28.55-2.95 2.16-8.9 4.13-4.89 1.62-9.76 2.73-12.15 2.78v-.01a.863.863 0 0 0-.28-.04H46.23c-.06 0-.12 0-.18-.01-.08-.01-.15-.04-.23-.06l-.09-.03c-.08-.02-.16-.03-.24-.04L32.8 55.95l2.06-6.34m-.64-1.29l-2.71 8.4 13.94 2.79v-.01c.15.04.29.09.44.11.16.02.31.02.47.02.07.02.15.05.23.05h.01c5.36-.08 21.13-5.12 22.03-7.56.52-1.43-1.44-1.83-3.54-1.83-1.47 0-3.01.2-3.78.36-1.68.37-12.4 1.84-14.54 2.13l-12.55-4.46z" fill="#4A2F27"/><linearGradient id="i" x1="49.73" x2="86.427" y1="52.348" y2="52.348" gradientUnits="userSpaceOnUse"><stop stop-color="#5C4037" offset="0"/><stop stop-color="#70534A" offset="1"/></linearGradient><path d="M85.26 48.19a4.378 4.378 0 0 0-4.43-1.23v-.01l-.1.03c-.07.02-.14.05-.22.08L68.29 51.4c-1.5-.25-7.4-1.18-10.36-1.08-1.08.04-4.35.42-4.35.42l-3.41 3.15c-.42.34-.59.89-.3 1.29.37.51 3.8-1.16 5.51-2.04.61-.31 1.32-.31 1.93-.02l8.13 3.97c1.54.75 3.28.99 4.97.68l11.91-2.19c.39-.03.78-.1 1.15-.23l.06-.01v-.01c.98-.36 1.86-1.05 2.4-2.09.86-1.64.59-3.71-.67-5.05z" fill="url(#i)"/><path d="M68.96 58.41c-1.28 0-2.55-.29-3.73-.87l-8.13-3.97c-.47-.23-1.02-.23-1.48.01-5.47 2.81-5.86 2.27-6.14 1.89-.43-.59-.27-1.44.39-1.98l3.38-3.13c.08-.07.18-.12.28-.13.13-.02 3.3-.38 4.39-.42 2.91-.09 8.48.77 10.33 1.07l12.1-4.3c.12-.04.18-.07.24-.08l.07-.03c.05-.02.1-.03.15-.03 1.75-.44 3.58.09 4.81 1.41 1.4 1.49 1.71 3.8.75 5.62a4.847 4.847 0 0 1-2.58 2.3.51.51 0 0 1-.17.07c-.38.13-.81.22-1.26.25l-11.85 2.19c-.52.09-1.04.13-1.55.13zm-12.6-6c.4 0 .8.09 1.17.27l8.13 3.97c1.46.71 3.07.93 4.66.64l11.91-2.2c.42-.03.76-.1 1.07-.21.02-.01.03-.02.05-.02.94-.34 1.67-.98 2.13-1.86.76-1.45.51-3.29-.6-4.48-1.02-1.09-2.48-1.5-3.93-1.1-.02.01-.05.01-.07.01l-.13.05-12.3 4.38a.43.43 0 0 1-.25.02c-1.2-.2-7.3-1.18-10.26-1.08-.91.03-3.48.32-4.15.4l-3.29 3.04c-.18.15-.31.35-.28.52.44-.04 1.85-.5 4.92-2.08.39-.18.81-.27 1.22-.27z" fill="#4A2F27"/><path d="M69.04 52.65l1.74-.05 1.92.46c.96.08 1.77-.27 1.88-.75s-.62-.77-1.13-.96l-3.51-1c-.51-.19-2.2-.13-2.88-.13-1.59 0-5.14.33-5.14.33s6.3 1.86 7.12 2.1z" fill="#4D3B33" stroke="#291B16" stroke-linecap="round" stroke-linejoin="round" stroke-miterlimit="10"/><path d="M65.53 83.54c-.58-1.46-.53-3.04.11-4.45a5.621 5.621 0 0 1 3.28-2.99l21.89-7.71 2.99 10.03-16.73 6.42a3.245 3.245 0 0 0-1.98 3.78l2.32 12.58-5.46.32-6.42-17.98z" fill="#4D3B33"/><path d="M90.47 69.03l2.71 9.08-16.3 6.25a3.734 3.734 0 0 0-2.29 4.34l2.22 12.03-4.52.27-6.31-17.65c-.52-1.32-.48-2.76.11-4.05s1.65-2.26 2.99-2.73l21.39-7.54m.66-1.29l-22.38 7.88c-3.3 1.16-4.97 4.83-3.69 8.09l6.55 18.33 6.4-.38-2.43-13.17a2.72 2.72 0 0 1 1.67-3.19l17.16-6.58-3.28-10.98z" fill="#291B16"/><path d="M77 72.85l9.3-3.42c.7-.26 1.43-.39 2.17-.39a6.312 6.312 0 0 1 5.72 8.95 6.251 6.251 0 0 1-3.54 3.27l-9.3 3.42L77 72.85z" fill="#04846C"/><path d="M88.48 69.54c2.42 0 4.61 1.53 5.44 3.8.54 1.45.47 3.03-.18 4.44s-1.81 2.48-3.26 3.01l-8.83 3.25-4.01-10.89 8.83-3.25a5.8 5.8 0 0 1 2.01-.36m0-1c-.78 0-1.57.14-2.35.42l-9.77 3.6 4.7 12.77 9.77-3.6A6.794 6.794 0 0 0 94.86 73a6.802 6.802 0 0 0-6.38-4.46z" fill="#007861"/><linearGradient id="j" x1="100.06" x2="100.06" y1="96.167" y2="65.287" gradientUnits="userSpaceOnUse"><stop stop-color="#A56C43" offset="0"/><stop stop-color="#8D5738" offset="1"/></linearGradient><path d="M95.41 93.41c-.25-.03-.5-.07-.73-.14l-.05-.01-.13-.05c-.84-.26-1.56-.69-2.13-1.29-.45-.46-.8-1-1.04-1.62l-.17-.4-8.22-20.58 11.2-4.04 6 19.57 17.04 6.94-1.81 4.37-19.96-2.75z" fill="url(#j)"/><path d="M93.82 65.94l5.78 18.85.14.45.44.18 16.35 6.66-1.47 3.55-19.6-2.71a4.95 4.95 0 0 1-.62-.11l-.2-.06c-.76-.24-1.41-.63-1.92-1.15-.4-.41-.72-.9-.94-1.46l-.21-.51-7.97-20.01 10.22-3.68m.65-1.3l-12.18 4.39 8.53 21.36.05.1a5.6 5.6 0 0 0 1.15 1.78c.67.69 1.48 1.15 2.34 1.42l-.01.02.21.04c.26.07.53.12.8.15l20.35 2.81 2.15-5.19-17.28-7.04-6.11-19.84z" fill="#875334"/><radialGradient id="k" cx="88.55" cy="52.762" r="16.108" gradientUnits="userSpaceOnUse"><stop stop-color="#00BFA5" offset="0"/><stop stop-color="#00B29A" offset=".705"/><stop stop-color="#00AB94" offset="1"/></radialGradient><path d="M88.02 85.28c-1.44-2.17-2.93-5.41-3.61-7.88a.483.483 0 0 0-.24-.3c-1.49-.85-2.13-3.13-2.23-4.97-.29-5.37-1.02-8.72-2.13-13.8-.2-.9-.4-1.86-.62-2.88-1.07-5-1.25-8.52 1.34-9.44.31-.09.64-.19.97-.3.66-.21 1.29-.41 1.94-.55.76-.17 1.51-.26 2.21-.26 3.56 0 6.21 2.11 8.09 6.45 2.62 5.65 3.9 11.72 3.68 17.58-.05 1.15-.17 1.98-.41 2.68-.04.1-.04.21 0 .32.52 1.57.98 3.49 1.42 5.34.28 1.17.57 2.37.87 3.47-3.71 1.63-7.5 3.16-11.28 4.54z" fill="url(#k)"/><path d="M85.64 45.4c3.34 0 5.84 2.01 7.64 6.17 2.59 5.57 3.84 11.56 3.63 17.33-.04 1.1-.16 1.88-.39 2.55-.07.21-.07.43 0 .63.51 1.55.97 3.45 1.41 5.3.25 1.03.5 2.08.76 3.07-3.43 1.51-6.95 2.92-10.47 4.22-1.34-2.12-2.7-5.11-3.33-7.41a.978.978 0 0 0-.47-.6c-1.09-.62-1.86-2.41-1.98-4.56-.29-5.41-1.03-8.78-2.14-13.88-.2-.9-.4-1.85-.62-2.88-1.01-4.73-1.22-8.05.99-8.85l.97-.3c.65-.21 1.27-.4 1.9-.54.73-.17 1.43-.25 2.1-.25m0-1c-.72 0-1.49.08-2.32.27-1 .22-1.97.58-2.96.87-3.12 1.1-2.66 5.31-1.66 10.01 1.43 6.7 2.4 10.31 2.74 16.6.12 2.13.88 4.46 2.49 5.38.69 2.49 2.26 6 3.9 8.35 4.07-1.48 8.1-3.1 12.05-4.86-.82-2.9-1.52-6.54-2.41-9.25.28-.83.4-1.76.44-2.83.21-5.88-1.03-11.99-3.72-17.79-.82-1.88-3.11-6.75-8.55-6.75z" fill="#009984"/><linearGradient id="l" x1="127.04" x2="127.04" y1="-195.89" y2="-172.23" gradientTransform="scale(-1 1) rotate(-23.815 565.578 310.629)" gradientUnits="userSpaceOnUse"><stop stop-color="#70534A" offset=".55"/><stop stop-color="#5C4037" offset=".83"/><stop stop-color="#3C2B24" offset="1"/></linearGradient><path d="M28.49 19.52c3.6-3.19 9.51-2.96 13.9-1 4.91 2.2 6.7 6.63 6.2 11.51-.18 1.77-.68 3.45-1.28 4.58-.07.14-.63 1.11-.74 1.43-.53 1.21 1.59 3.11 1.51 4.59-.06 1.11-2.43 1.2-2.65 1.34-1.11.72-.94 5.6-7.06 4.43-2.14-.41-3.09-1.01-4.06.36l-.97 4.03-6.85-1.06s1.43-3.46-.03-8.27c-.69-2.27-1.05-4.89-2.34-7.21-2.57-4.6 1.36-12.08 4.37-14.73z" fill="url(#l)"/><linearGradient id="m" x1="23.278" x2="48.664" y1="33.927" y2="33.927" gradientUnits="userSpaceOnUse"><stop stop-color="#4A2F27" offset="0"/><stop stop-color="#291B16" offset="1"/></linearGradient><path d="M35.71 18.07c2.09 0 4.31.48 6.27 1.35 5.57 2.49 5.9 7.64 5.61 10.49-.16 1.57-.6 3.14-1.17 4.21l-.07.12c-.36.63-.62 1.12-.73 1.43-.45 1.09.19 2.22.75 3.22.3.53.66 1.17.7 1.58-.18.13-.64.26-1.37.4-.37.07-.6.11-.82.25-.54.35-.8.95-1.1 1.65-.6 1.38-1.22 2.8-3.66 2.8-.47 0-1-.06-1.56-.16-.39-.08-.74-.16-1.06-.23-.63-.15-1.18-.28-1.71-.28-.95 0-1.68.4-2.29 1.27-.07.1-.13.22-.16.34l-.76 3.14-4.81-.74c.35-1.5.69-4.31-.36-7.74-.2-.64-.36-1.31-.54-2.02-.44-1.78-.91-3.62-1.88-5.38-2.27-4.08 1.41-11.06 4.17-13.5 2.04-1.82 4.69-2.2 6.55-2.2m0-1c-2.68 0-5.29.73-7.23 2.44-3 2.65-6.94 10.14-4.38 14.73 1.29 2.32 1.65 4.94 2.34 7.21 1.46 4.8.03 8.27.03 8.27l6.85 1.06.97-4.03c.46-.64.91-.85 1.48-.85.65 0 1.45.27 2.58.49.65.13 1.23.18 1.75.18 4.35 0 4.32-3.97 5.31-4.61.22-.14 2.59-.23 2.65-1.34.08-1.47-2.04-3.37-1.51-4.59.11-.33.67-1.3.74-1.43.6-1.13 1.1-2.81 1.28-4.58.51-4.88-1.28-9.31-6.2-11.51-2.01-.9-4.36-1.44-6.66-1.44z" fill="url(#m)"/><radialGradient id="n" cx="98.938" cy="-62.215" r="13.186" gradientTransform="matrix(-1.0076 -.2517 -.2482 .969 124.76 108.71)" gradientUnits="userSpaceOnUse"><stop stop-color="#444140" offset="0"/><stop stop-color="#232020" offset="1"/></radialGradient><path d="M33.57 38.35l-.51-5.39s-3.37.09-3.12 3.56c.17 2.44-1.75 4.82-2.85 4.85l-.65.07c-.46-3.67-4.57-5.54-3.59-14.77.85-8.01 8.58-11.17 15.26-10.08 6.39 1.04 12.78 6.56 10.62 15.1-.08.31-8.5-.49-10.83 1.19-2.29 1.67-1.41 5.72-4.33 5.47z" fill="url(#n)"/><defs><path id="o" d="M28.54 31.78l-1.34 8.55.4.9s-.36.15-.52.15l-.65.07c-.46-3.67-4.57-5.54-3.59-14.77.85-8.01 8.58-11.17 15.26-10.08 6.39 1.04 12.81 6.89 10.65 15.14-.02.06-1.01.02-1.01.02l.23-1.37-9.86-.65-9.57 2.04z"/></defs><clipPath id="p"><use xlink:href="#o"/></clipPath><g clip-path="url(#p)"><path d="M35.52 17.39c.81 0 1.63.07 2.42.2 3.57.58 6.79 2.59 8.61 5.37 1.49 2.27 1.96 4.96 1.4 7.83h-.09c-.27 0-.59 0-.95-.01-.46-.01-.99-.01-1.55-.01-4.31 0-6.79.4-8.04 1.31-1.24.9-1.73 2.3-2.11 3.43-.3.86-.5 1.35-.74 1.61l-.4-4.24c-.05-.51-.48-.91-1-.91h-.03c-.19.01-1.93.09-3.11 1.39-.75.83-1.08 1.92-.99 3.24.13 1.76-1.12 3.36-1.72 3.71-.29-.99-.77-1.87-1.28-2.79-1.27-2.31-2.72-4.92-2.1-10.74.69-6.48 6.37-9.39 11.68-9.39m0-1c-5.95 0-11.93 3.3-12.67 10.29-.98 9.24 3.13 11.1 3.59 14.77l.65-.07c1.1-.03 3.02-2.41 2.85-4.85-.25-3.47 3.12-3.56 3.12-3.56l.51 5.39c.09.01.17.01.25.01 2.62 0 1.86-3.87 4.08-5.48 1.36-.99 4.8-1.12 7.45-1.12 1 0 1.88.02 2.5.02.55 0 .89-.02.91-.07 2.14-8.44-4.27-14.06-10.66-15.11-.85-.15-1.71-.22-2.58-.22z" fill="#1F1D1B"/></g><path d="M42.52 40.79l2.22.98s-.52 1-.77 1.39c-1.34 2.16-3.59 4.22-7.67 2.87-.37-.12 3.39-4.74 3.39-4.74l2.83-.5z" fill="none"/><defs><path id="q" d="M28.49 19.52c3.6-3.19 9.51-2.96 13.9-1 6.07 2.72 7.68 8.38 5.77 14.55 0 0-1.08 2.5-1.44 3.58-.9 2.08 1.02 2.1 1.05 3.83.02 1.63-2.13 1.33-2.35 1.48-1.11.72-.94 5.6-7.06 4.43-2.14-.41-3.09-1.01-4.06.36l-2.08 3.9-5.74-.93s1.4-8.7-2.37-15.47c-2.56-4.6 1.37-12.08 4.38-14.73z"/></defs><clipPath id="r"><use xlink:href="#q"/></clipPath><g clip-path="url(#r)"><path d="M48.76 43.11c-1.84 1.53-5.18 1.93-6.81-.1-.62-.77.08-1.27.86-.67 1.27.99 3.97.73 5.13-.23.77-.63 1.58.37.82 1z" fill="#1A1717"/></g><ellipse transform="rotate(-77.872 43.196 36.911)" cx="43.19" cy="36.91" rx="1.75" ry="1.14" fill="#1A1717"/><path d="M44.37 34.75c.95.67 1.43.06 1.27-.62-.12-.5-.64-1.06-1.95-1.24-1.23-.17-1.94.34-2.39.64s-.55.72-.3.84c.35.17 2.2-.44 3.37.38z" fill="#1A1717"/><path d="M47.64 101.77l-4.88-16.4a3.141 3.141 0 0 0-2.24-2.14l-18.4-4.66 3.94-12.01s21.09 7.99 21.1 7.99c.03.02.06.03.09.04.62.21 1.19.53 1.67.95.88.76 1.45 1.79 1.65 2.97 0 .03.01.06.02.08l1.76 23.19-4.71-.01z" fill="#4D3B33"/><path d="M26.38 67.21l20.6 7.8c.04.02.08.03.12.05.56.19 1.07.48 1.51.85.79.68 1.3 1.61 1.49 2.68.01.03.01.06.02.09l1.72 22.6-3.81-.01-4.78-16.04a3.672 3.672 0 0 0-2.59-2.49l-17.88-4.53 3.6-11m-.63-1.3l-4.27 13.02 18.92 4.79c.9.23 1.61.91 1.88 1.8l4.99 16.76 5.63.01-1.81-23.87-.02.01c-.21-1.23-.8-2.39-1.82-3.27-.56-.48-1.18-.82-1.84-1.04l-.07-.03-21.59-8.18z" fill="#291B16"/><circle cx="25.43" cy="72.42" r="6.84" fill="#FBC11B"/><path d="M24.6 79.66c-3.57-1.31-5.4-5.28-4.09-8.85.99-2.7 3.59-4.52 6.47-4.52.81 0 1.61.14 2.38.43l8.75 3.22-4.76 12.94-8.75-3.22z" fill="#E65100"/><path d="M26.98 66.8c.75 0 1.49.13 2.21.4l8.28 3.05-4.42 12-8.28-3.05c-1.6-.59-2.88-1.77-3.6-3.32s-.79-3.29-.2-4.89a6.431 6.431 0 0 1 6.01-4.19m0-1c-3.01 0-5.84 1.85-6.94 4.84a7.388 7.388 0 0 0 4.39 9.49l9.22 3.39 5.11-13.88-9.22-3.39c-.85-.31-1.71-.45-2.56-.45z" fill="#D44700"/><linearGradient id="s" x1="23.315" x2="23.315" y1="99.008" y2="71.898" gradientUnits="userSpaceOnUse"><stop stop-color="#70534A" offset="0"/><stop stop-color="#5C4037" offset="1"/></linearGradient><path d="M11.07 93.55l12.56-6.63c.5-.27.84-.72.99-1.26s.07-1.1-.22-1.58l-3.96-8.2 9.92-3.98 4.73 11.59c.66 1.62.64 3.39-.04 4.99s-1.95 2.84-3.57 3.49l-17.72 7.04-2.69-5.46z" fill="url(#s)"/><path d="M30.08 72.55l4.54 11.13c.61 1.49.59 3.13-.04 4.61s-1.8 2.62-3.3 3.22l-17.29 6.87-2.25-4.61 12.15-6.41c.61-.34 1.04-.89 1.22-1.56.18-.65.09-1.33-.25-1.92l-3.73-7.73 8.95-3.6m.55-1.3l-10.87 4.37 4.22 8.73c.45.75.19 1.71-.57 2.13l-12.99 6.85 3.09 6.31 18.15-7.21a6.979 6.979 0 0 0 3.89-9.13l-4.92-12.05z" fill="#4A2F27"/><radialGradient id="t" cx="27.372" cy="52.86" r="15.694" gradientUnits="userSpaceOnUse"><stop stop-color="#FB8C00" offset=".171"/><stop stop-color="#F67F00" offset=".563"/><stop stop-color="#EF6C00" offset=".983"/></radialGradient><path d="M23.51 84.68c-.63-1.23-1.44-2.76-2.24-4.28-.89-1.7-1.79-3.39-2.44-4.68-.14-.28-.37-1.08-.4-2.13 0-.11-.05-.22-.12-.31-.68-.8-1.04-1.62-1.07-2.44-.2-5.55 1.58-13.55 4.33-19.47.76-1.76 4.67-6.35 8.98-6.35.44 0 .89.05 1.32.15l2.93.86c.8.28 1.39.83 1.74 1.61.71 1.62.36 4.28-.95 7.31-1.7 4.55-1.88 9.22-2.06 13.74-.06 1.48-.11 2.88-.22 4.24-.07.93-.25 1.75-.52 2.43a.48.48 0 0 0 .01.39c.7 1.53 1.3 2.98 1.68 3.96-3.59 1.76-7.28 3.44-10.97 4.97z" fill="url(#t)"/><path d="M30.55 45.52c.4 0 .79.04 1.18.13l2.9.85c.69.25 1.16.69 1.45 1.34.65 1.49.31 4.01-.95 6.91-.01.02-.01.03-.02.05-1.72 4.6-1.91 9.52-2.09 13.87-.06 1.48-.11 2.87-.22 4.22-.07.88-.23 1.65-.48 2.29-.1.25-.09.54.02.78.6 1.31 1.13 2.56 1.5 3.51-3.31 1.63-6.7 3.17-10.1 4.6-.6-1.16-1.33-2.54-2.03-3.88-.88-1.67-1.78-3.39-2.44-4.68-.1-.19-.31-.92-.34-1.92a.996.996 0 0 0-.24-.62c-.6-.71-.92-1.43-.95-2.13-.2-5.48 1.56-13.39 4.29-19.27.72-1.68 4.43-6.05 8.52-6.05m0-1c-4.58 0-8.6 4.7-9.44 6.64-2.7 5.8-4.59 13.83-4.37 19.71.04.98.48 1.91 1.19 2.74.03 1.08.26 1.96.45 2.34 1.32 2.59 3.57 6.79 4.89 9.38 4-1.65 7.95-3.45 11.83-5.39a73.72 73.72 0 0 0-1.86-4.41c.3-.76.48-1.65.55-2.57.44-5.48.03-11.88 2.25-17.81 1.91-4.41 2.01-8.5-1.11-9.6-.99-.29-1.98-.58-2.96-.87-.48-.12-.95-.16-1.42-.16z" fill="#DB6300"/><linearGradient id="u" x1="27.502" x2="66.816" y1="59.923" y2="59.923" gradientUnits="userSpaceOnUse"><stop stop-color="#5C4037" offset="0"/><stop stop-color="#70534A" offset="1"/></linearGradient><path d="M66.81 67.93c.12-.71-4.3.18-4.32-.16-.03-.35 3.88-.47 3.49-1.68-.24-.73-3.86.18-4.91.06 0 0-1.76.1-2.78-.4-.71-.35 2.07-.93 2.67-1.84.67-1-1.59-.84-3.43 0-.82.37-2.88.63-3.68.58-.1-.01-.2.01-.3.01l-9.95-3.37a5.21 5.21 0 0 1-2.96-2.53l-4.82-9.19c-.04-.07-.07-.14-.11-.2l-.05-.09-.01.01a4.418 4.418 0 0 0-4.09-2.1c-1.84.13-3.44 1.47-3.93 3.25-.31 1.14-.13 2.24.34 3.17l-.01.01.03.05c.18.35.42.66.69.95l5.93 9.24a7.997 7.997 0 0 0 4.56 3.38l14.58 4.09.02-.08c.79.39 1.92.65 3.16.98 3.66.99 7.73 1.01 8.02.04.16-.51-4.08-.62-4.07-1.15.01-.33 4.82.32 4.99-1.02.09-.71-4.32-.31-4.25-.68.1-.38 4.94.09 5.19-1.33z" fill="url(#u)" stroke="#4A2F27" stroke-linecap="round" stroke-linejoin="round" stroke-miterlimit="10"/><linearGradient id="v" x1="70.806" x2="75.674" y1="67.904" y2="93.089" gradientUnits="userSpaceOnUse"><stop stop-color="#5C4037" offset="0"/><stop stop-color="#70534A" offset="1"/></linearGradient><path d="M49.54 68.01c-.12-.71 4.3.18 4.32-.16.03-.35-3.88-.47-3.49-1.68.24-.73 3.86.18 4.91.06 0 0 1.76.1 2.78-.4.71-.35-2.07-.93-2.67-1.84-.67-1 1.59-.84 3.43 0 .82.37 2.88.63 3.68.58.1-.01.2.01.3.01l11.94-4.04 5.79-11.05c.04-.07.07-.14.11-.2l.05-.09.01.01a4.397 4.397 0 0 1 3.38-2.09c2.43-.2 4.57 1.6 4.77 4.04.07.86-.12 1.67-.48 2.38l.01.01-.03.05c-.18.35-.42.66-.69.95L80.2 64.84c-.34.68-.9 1.27-1.66 1.6-.05.02-.09.03-.14.05v.01l-.36.11c-.07.02-.13.05-.2.06l-15.26 4.59-.02-.08c-.79.39-1.92.65-3.16.98-3.66.99-7.73 1.01-8.02.04-.16-.51 4.08-.62 4.07-1.15-.01-.33-4.82.32-4.99-1.02-.09-.71 4.32-.31 4.25-.68-.08-.39-4.92.08-5.17-1.34z" fill="url(#v)" stroke="#4A2F27" stroke-linecap="round" stroke-linejoin="round" stroke-miterlimit="10"/><path fill="#E0E0E0" d="M46.82 103.32l-1.13-5.99 7.5-.71-.34 6.7z"/><path d="M52.66 97.17l-.29 5.65h-5.14l-.95-5.04 6.38-.61m1.06-1.1l-8.62.82 1.31 6.93h6.92l.39-7.75z" fill="#BFBFBF"/><path d="M45.36 109.92c-.18 0-.34-.07-.47-.2s-.19-.29-.19-.47l.01-2.84c0-1.31 1.12-2.93 1.7-3.63l6.78.01 6.3 2.09c1.34.53 2.22 1.82 2.23 3.29v1.28a.514.514 0 0 1-.51.52l-15.85-.05z" fill="#FB8C00"/><path d="M46.64 103.27l6.46.01 6.2 2.06c1.16.47 1.91 1.57 1.91 2.82l-.01 1.3-15.83-.05c-.06 0-.09-.03-.12-.05a.168.168 0 0 1-.05-.12l.01-2.85c-.01-1.05.87-2.4 1.43-3.12m-.47-1s-1.96 2.2-1.97 4.13l-.01 2.85c0 .64.52 1.17 1.16 1.17l15.83.05c.56 0 1.02-.46 1.02-1.02v-1.29a4.074 4.074 0 0 0-2.57-3.76l-6.38-2.12-7.08-.01z" fill="#E37200"/><path fill="#E0E0E0" d="M70.13 98.19l7.04-1.16.86 6.25-5.63.03z"/><path d="M76.74 97.61l.71 5.18-4.72.03-1.88-4.23 5.89-.98m.85-1.16L69.4 97.8l2.67 6.01 6.52-.04-1-7.32z" fill="#BFBFBF"/><radialGradient id="w" cx="72.303" cy="105.75" r="6.532" gradientUnits="userSpaceOnUse"><stop stop-color="#00AB94" offset="0"/><stop stop-color="#00AB94" offset="1"/></radialGradient><path d="M64.31 109.35c-.14 0-.27-.05-.36-.15-.1-.1-.15-.23-.15-.37v-1.29c.01-1.46.89-2.76 2.25-3.3l6.27-2.08 6.78-.01c.43.53 1.7 2.2 1.7 3.63l.01 2.85c0 .18-.07.34-.19.47s-.29.2-.47.2l-15.84.05z" fill="url(#w)"/><path d="M78.87 102.65c.56.72 1.43 2.07 1.44 3.14l.01 2.85c0 .06-.03.09-.05.12s-.06.05-.12.05l-15.85.03v-1.28c.01-1.25.76-2.36 1.91-2.82l6.2-2.06 6.46-.03m.47-1l-7.09.01-6.38 2.12c-1.54.61-2.56 2.1-2.57 3.76v1.29c0 .56.45 1.02 1.02 1.02l15.83-.05c.64 0 1.16-.53 1.16-1.17l-.01-2.85c0-1.93-1.96-4.13-1.96-4.13z" fill="#009984"/><path fill="#E0E0E0" d="M9.7 93.43l6.76-3.68 3.11 7.73-7.62 3.01z"/><path d="M16.21 90.46l2.71 6.74-6.65 2.62-1.96-6.15 5.9-3.21m.51-1.42L9.1 93.19l2.54 7.96 8.58-3.39-3.5-8.72z" fill="#BFBFBF"/><path d="M9.76 109.97c-.23 0-.42-.15-.49-.36L4.53 94.5c-.05-.17-.04-.35.05-.51s.22-.27.39-.33l2.72-.85c.95-.3 2.06-.36 2.83-.36.36 0 .66.01.87.03l2.3 7.32-.09 6.64a3.552 3.552 0 0 1-2.46 3.12l-1.22.39c-.06.01-.11.02-.16.02z" fill="#FB8C00"/><path d="M10.52 92.95c.18 0 .35 0 .5.01l2.18 6.91-.09 6.53c-.1 1.24-.92 2.29-2.11 2.68l-1.25.38-4.74-15.11c-.02-.05 0-.1.01-.13s.04-.06.1-.08l2.72-.85c.88-.28 1.94-.34 2.68-.34m0-1c-.85 0-2 .07-2.98.38l-2.72.85c-.61.19-.96.85-.76 1.46l4.73 15.11c.14.43.54.71.97.71.1 0 .21-.02.31-.05l1.22-.39a4.076 4.076 0 0 0 2.81-3.59l.1-6.72L11.76 92s-.51-.05-1.24-.05z" fill="#E37200"/><path fill="#E0E0E0" d="M108.18 95.96l2.9-7.2 7.21 2.9-1.9 6.03z"/><path d="M111.36 89.41l6.32 2.54-1.62 5.16-7.18-1.52 2.48-6.18m-.56-1.3l-3.3 8.22 9.24 1.95 2.17-6.91-8.11-3.26z" fill="#BFBFBF"/><radialGradient id="x" cx="119.53" cy="98.749" r="6.994" gradientUnits="userSpaceOnUse"><stop stop-color="#00AB94" offset="0"/><stop stop-color="#00AB94" offset="1"/></radialGradient><path d="M118.86 107.51c-.05 0-.11-.01-.16-.02l-1.23-.39a3.544 3.544 0 0 1-2.46-3.14l-.09-6.61 2.3-7.32c.21-.01.52-.03.87-.03.77 0 1.89.06 2.83.36l2.72.85c.17.05.31.17.39.33s.1.34.04.51l-4.73 15.11a.49.49 0 0 1-.48.35z" fill="url(#x)"/><path d="M118.1 90.49c.74 0 1.8.06 2.69.34l2.72.85c.05.02.08.05.1.08.01.03.03.07.01.13l-4.75 15.12-1.22-.39a3.028 3.028 0 0 1-2.11-2.68l-.09-6.53 2.18-6.91c.12-.01.29-.01.47-.01m0-1c-.73 0-1.25.05-1.25.05l-2.43 7.72.1 6.72a4.076 4.076 0 0 0 2.81 3.59l1.22.39c.1.03.21.05.31.05.43 0 .83-.28.97-.71l4.73-15.11c.19-.61-.15-1.27-.76-1.46l-2.72-.85c-.98-.32-2.13-.39-2.98-.39z" fill="#009984"/></svg>