<svg viewBox="0 0 128 128" xmlns="http://www.w3.org/2000/svg" xmlns:xlink="http://www.w3.org/1999/xlink"><defs><path id="a" transform="translate(-.142 .142)" d="M4 4h120v120H4z"/></defs><clipPath id="b"><use xlink:href="#a"/></clipPath><g clip-path="url(#b)"><linearGradient id="c" x1="19.919" x2="19.919" y1="-17.083" y2="22.109" gradientTransform="rotate(-17.215 166.668 -150.67)" gradientUnits="userSpaceOnUse"><stop stop-color="#A56C43" offset=".55"/><stop stop-color="#8D5738" offset=".83"/><stop stop-color="#7A4C32" offset="1"/></linearGradient><path d="M86.02 14.53C80.78 8.7 71.17 7.95 63.7 10.31c-8.36 2.64-12.09 9.47-12.19 17.47-.03 2.9.46 5.71 1.22 7.65.09.23.81 1.91.93 2.46.62 2.07-3.16 4.75-3.31 7.14-.11 1.8 3.71 2.4 4.04 2.67 1.66 1.37.47 9.25 10.6 8.49 3.54-.26 6.82-1.05 8.14 1.35l1.04 6.71 12.61-.43s-5.42-14.34 1.94-24.6c5.01-6.97 1.66-19.83-2.7-24.69z" fill="url(#c)"/><linearGradient id="d" x1="50.212" x2="92.89" y1="44.81" y2="31.589" gradientUnits="userSpaceOnUse"><stop stop-color="#875334" offset="0"/><stop stop-color="#663B22" offset="1"/></linearGradient><path d="M71.86 10.06c5.67 0 10.44 1.83 13.41 5.14 4.27 4.76 7.15 17.15 2.64 23.43-3.15 4.39-4.51 10.2-3.92 16.81.29 3.24.97 5.91 1.42 7.41l-10.39.36-.91-5.84c-.02-.12-.06-.23-.11-.33-1.09-1.97-3.15-2.2-4.61-2.2-.91 0-1.87.09-2.88.2-.52.05-1.06.1-1.6.15-.43.03-.85.05-1.24.05-5.62 0-6.59-3.18-7.37-5.74-.33-1.09-.62-2.03-1.28-2.57-.23-.19-.51-.28-1.06-.44-2.31-.7-2.63-1.17-2.62-1.39.05-.82.82-1.88 1.56-2.9 1.06-1.47 2.16-2.98 1.72-4.55-.11-.49-.49-1.43-.88-2.36l-.09-.21c-.75-1.9-1.18-4.62-1.15-7.27.1-8.35 4.18-14.22 11.49-16.53 2.51-.81 5.22-1.22 7.87-1.22m0-1c-2.8 0-5.6.44-8.16 1.25-8.36 2.64-12.09 9.47-12.19 17.47-.03 2.9.46 5.71 1.22 7.65.09.23.81 1.91.93 2.46.62 2.07-3.16 4.75-3.31 7.14-.11 1.8 3.71 2.4 4.04 2.67 1.58 1.3.57 8.54 9.28 8.54.42 0 .86-.02 1.32-.05 1.57-.12 3.08-.34 4.4-.34 1.66 0 3 .35 3.74 1.68l1.04 6.71 12.61-.43s-5.42-14.34 1.94-24.6c5-6.96 1.65-19.82-2.71-24.68-3.43-3.84-8.77-5.47-14.15-5.47z" fill="url(#d)"/><path d="M59.32 46.35l-3.78 1.17s.66 1.72.98 2.4c1.77 3.75 5.02 7.51 11.87 6.08.62-.13-4.6-8.32-4.6-8.32l-4.47-1.33z" fill="none"/><defs><path id="e" d="M86.02 14.53C80.78 8.7 71.17 7.95 63.7 10.31c-10.34 3.26-14 12.13-12.07 22.48 0 0 1.28 4.24 1.66 6.06 1.07 3.54-2.05 3.21-2.41 6.01-.34 2.64 3.19 2.56 3.52 2.83 1.66 1.37.47 9.25 10.6 8.49 3.54-.26 6.82-1.05 8.14 1.35l2.64 6.71 11.01-.43s-5.42-14.34 1.94-24.6c5-6.96 1.65-19.82-2.71-24.68z"/></defs><clipPath id="f"><use xlink:href="#e"/></clipPath><g clip-path="url(#f)"><path d="M48.77 48.93c2.69 2.82 8.02 4.1 11.04 1.12 1.15-1.14.11-2.08-1.26-1.24-2.24 1.36-6.57.44-8.26-1.34-1.12-1.17-2.63.3-1.52 1.46z" fill="#473530"/></g><ellipse transform="rotate(-5.526 58.924 39.926)" cx="58.95" cy="39.94" rx="1.86" ry="2.85" fill="#42312C"/><path d="M57.23 35.83c-1.81.55-2.24-.64-1.65-1.61.44-.71 1.53-1.32 3.65-.93 2 .37 2.83 1.51 3.37 2.2s.49 1.39.03 1.45c-.62.1-3.16-1.79-5.4-1.11z" fill="#42312C"/><radialGradient id="g" cx="36.157" cy="3.808" r="26.644" gradientTransform="rotate(-19.098 97.784 -77.61)" gradientUnits="userSpaceOnUse"><stop stop-color="#554138" offset="0"/><stop stop-color="#3C2C23" offset="1"/></radialGradient><path d="M77.26 60.25l10.52-.88a8.91 8.91 0 0 0 8.12-7.96l.55-5.24s1.48-8.34-.64-24.08C94.24 10.45 86 2.53 70.97 4.51 58.88 6.1 50.2 12.57 50.2 24.63c0 .33 3.47 5.73 20.14 9.02 9.26 1.83 6.92 26.6 6.92 26.6z" fill="url(#g)"/><defs><path id="h" d="M77.26 60.25l10.52-.88a8.91 8.91 0 0 0 8.12-7.96l.55-5.24s1.48-8.34-.64-24.08C94.24 10.45 86 2.53 70.97 4.51c-12.18 1.6-20.76 8.17-20.73 20.25 0 .29 2.84 2.08 2.84 2.08l9.86-3.57 19.54 6.59-1.09 27.07-4.05.28-.08 3.04z"/></defs><clipPath id="i"><use xlink:href="#h"/></clipPath><g clip-path="url(#i)"><path d="M75.41 7.21c13.37 0 16.66 9.58 17.43 15.29 2.02 14.97.67 23.08.66 23.16l-.03.21-.55 5.24a5.92 5.92 0 0 1-5.39 5.28l-7.15.6c.05-2.59.04-6.35-.25-10.24-.8-10.62-3.21-16.25-7.56-17.72-3.49-1.18-7.17-1.77-10.95-1.77-3.37 0-6.24.48-8.23.95-1.2-4.57-.83-8.51 1.12-11.76 2.79-4.64 8.93-7.9 16.86-8.95 1.39-.2 2.75-.29 4.04-.29m0-3c-1.41 0-2.89.1-4.44.3C56.65 6.4 45.22 15.36 51.41 31.89c0 0 4.19-1.64 10.2-1.64 2.98 0 6.41.4 10 1.61 7.21 2.43 5.66 28.39 5.66 28.39l10.52-.88a8.91 8.91 0 0 0 8.12-7.96l.55-5.24s1.48-8.34-.64-24.08C94.41 11.65 87.63 4.21 75.41 4.21z" fill="#291D15"/></g><linearGradient id="j" x1="53.623" x2="74.242" y1="77.532" y2="112.58" gradientTransform="translate(-.14 .143)" gradientUnits="userSpaceOnUse"><stop stop-color="#a0f" offset="0"/><stop stop-color="#9500E0" offset=".987"/></linearGradient><path d="M42.6 131.88c-1.39-1.58-6.36-8.48-5.03-24.95 1.26-15.63 14.76-23.69 21.72-25.77.5-.15.89-.55 1.02-1.06s-.01-1.05-.38-1.42c-.45-.46-1.12-2.4-.65-4.81.48-2.43 2.2-5.83 7.73-8.25 3.98-1.75 9.66-6.54 11.06-7.75.41-.07.83-.1 1.27-.1.51 0 1.05.05 1.6.14 5.73.95 9.78 6.39 9.21 12.39-.31 3.29-1.3 7.91-2.17 11.98-.72 3.36-1.34 6.26-1.51 8.03-.59 6.2.01 13.31.44 18.49.19 2.23.35 4.15.35 5.32.02 8.91-1.28 15.26-1.86 17.67l-42.8.09z" fill="url(#j)"/><path d="M79.35 59.27c.43 0 .89.04 1.35.12 4.96.82 8.46 5.55 7.97 10.76-.3 3.2-1.28 7.77-2.14 11.8-.73 3.41-1.36 6.35-1.54 8.21-.6 6.33 0 13.52.44 18.76.18 2.19.34 4.09.35 5.19.02 7.59-.94 13.28-1.56 16.17l-40.95.09c-2.22-2.82-5.25-10.3-4.2-23.33 1.2-14.82 14.04-22.47 20.66-24.45a2.97 2.97 0 0 0 2.04-2.12c.26-.99-.01-2.04-.7-2.79-.26-.41-.75-2.04-.17-4.11.76-2.72 3.09-5 6.72-6.59 3.88-1.7 9.23-6.1 11.09-7.69.21-.01.42-.02.64-.02m0-3c-.65 0-1.31.06-1.95.2 0 0-6.68 5.88-10.98 7.77-10.81 4.74-9.31 13.68-7.55 15.48-8.99 2.69-21.56 11.83-22.79 27.08-1.63 20.18 5.89 26.57 5.89 26.57l44.6-.1s2.23-7.34 2.21-19.17c-.01-3.94-1.64-14.86-.8-23.66.36-3.81 3.11-13.96 3.68-20.01.63-6.66-3.86-12.91-10.46-14.01-.62-.09-1.24-.15-1.85-.15z" fill="#9900E6"/><linearGradient id="k" x1="64.545" x2="69.13" y1="112.06" y2="131.21" gradientTransform="translate(-.14 .143)" gradientUnits="userSpaceOnUse"><stop stop-color="#650099" stop-opacity=".5" offset=".152"/><stop stop-color="#7600B3" stop-opacity="0" offset=".737"/></linearGradient><path d="M40.94 131.8l16.81-3.59c14.58-3.12 25.42-15.4 26.7-30.26l1.39-16.12-10.05-2.53-4.43 23.43-34.61 9.29 4.19 19.78z" fill="url(#k)"/><linearGradient id="l" x1="89.21" x2="89.21" y1="63.24" y2="116.35" gradientTransform="matrix(.9314 .3825 -.3894 1.1703 22.213 -34.11)" gradientUnits="userSpaceOnUse"><stop stop-color="#8D5738" offset="0"/><stop stop-color="#A56C43" offset="1"/></linearGradient><path fill="url(#l)" d="M67.9 99.52l12.02 2.32 5.82-30.14-12.02-2.32z"/><linearGradient id="m" x1="87.03" x2="87.03" y1="55.436" y2="108.55" gradientTransform="rotate(42.491 49.617 72.403)" gradientUnits="userSpaceOnUse"><stop stop-color="#8D5738" offset="0"/><stop stop-color="#A56C43" offset="1"/></linearGradient><circle cx="73.71" cy="101.49" r="6.2" fill="url(#m)"/><linearGradient id="n" x1="110.36" x2="110.36" y1="-11.218" y2="39.896" gradientTransform="matrix(.8211 .7596 -1.3516 .7027 -4.774 8.026)" gradientUnits="userSpaceOnUse"><stop stop-color="#8D5738" offset="0"/><stop stop-color="#A56C43" offset="1"/></linearGradient><path d="M37.68 110.04c.78 4.09 6.77 3.79 11.6 2.74l26.18-5.28-4.49-11-24.46 6.59c-4.83 1.05-9.56 3.17-8.83 6.95z" fill="url(#n)"/><linearGradient id="o" x1="31.67" x2="48.17" y1="111.09" y2="111.09" gradientTransform="rotate(5.557 59.811 102.605)" gradientUnits="userSpaceOnUse"><stop stop-color="#8D5738" offset="0"/><stop stop-color="#A56C43" offset="1"/></linearGradient><path d="M47.09 113.13l-8.81 2.83c-1.91.37-3.82-.66-4.56-2.47l-2.63-6.27 2.24-4.27c1.13-1.24 2.95-1.54 4.45-.77 1.74.89 4.13 2.14 6.21 1.61 3.77-.98 3.1 9.34 3.1 9.34z" fill="url(#o)"/><path d="M75.3 71.72l8.09 1.56-5.38 27.89c-.06.17-.1.35-.11.54-.1 1.78-1.32 3.3-3.03 3.8-.09.03-.19.06-.27.1l-25.75 5.2c-.76.17-1.53.3-2.3.41-.11.02-.22.04-.33.08l-8.43 2.7c-.1.01-.2.02-.3.02-.85 0-1.61-.51-1.94-1.31l-2.26-5.4 1.66-3.16c.3-.26.68-.39 1.09-.39.28 0 .56.07.82.2l.08.04c1.57.8 3.73 1.9 5.97 1.9.44 0 .87-.04 1.28-.13a.83.83 0 0 0 .21-.06c.78-.25 1.63-.48 2.53-.67.03-.01.06-.01.1-.02l21.84-5.88c.74-.2 1.3-.8 1.44-1.55l4.99-25.87m-1.58-2.34l-5.37 27.83-21.84 5.88c-.92.2-1.84.44-2.72.72-.29.06-.58.09-.88.09-1.8 0-3.69-.98-5.14-1.72-.55-.28-1.14-.42-1.73-.42-1.01 0-2 .41-2.72 1.19l-2.24 4.27 2.63 6.27a4.09 4.09 0 0 0 3.78 2.54c.26 0 .52-.02.78-.07l8.56-2.74c.83-.12 1.65-.26 2.44-.44l26.18-5.28-.02-.05a6.194 6.194 0 0 0 4.47-5.61h.02l5.81-30.14-12.01-2.32z" fill="#875334"/><path d="M71.23 84.05l10.87 2.12c2.2.43 4.34-1.01 4.76-3.21l2.37-12.15c1.01-5.2-2.38-10.25-7.59-11.26-5.2-1.01-10.25 2.38-11.26 7.59l-2.37 12.15a4.072 4.072 0 0 0 3.22 4.76z" fill="#7600B3"/></g></svg>