<svg viewBox="0 0 128 128" xmlns="http://www.w3.org/2000/svg" xmlns:xlink="http://www.w3.org/1999/xlink"><ellipse transform="rotate(-4.863 63.495 81.324)" cx="63.52" cy="81.31" rx="5.64" ry="5.64" fill="#FBC11B"/><linearGradient id="a" x1="61.55" x2="82.211" y1="89.33" y2="111.46" gradientUnits="userSpaceOnUse"><stop stop-color="#FFCA28" offset=".309"/><stop stop-color="#FFB300" offset=".805"/></linearGradient><path d="M65.31 107.84a6.466 6.466 0 0 1-4.3-5.32l-2.55-20.28 10.2-.87.83 17.88c.04.87.54 1.66 1.3 2.08l14.7 8.03-2.51 4.67-17.67-6.19z" fill="url(#a)"/><path d="M68.18 81.91l.8 17.36c.05 1.04.65 2 1.56 2.49l14.26 7.79-2.07 3.85-17.26-6.05a5.98 5.98 0 0 1-3.97-4.91l-2.49-19.76 9.17-.77m.96-1.08l-11.24.95 2.62 20.8a6.995 6.995 0 0 0 4.63 5.73l18.07 6.34 2.95-5.48-15.13-8.27c-.61-.33-1.01-.97-1.04-1.66l-.86-18.41z" fill="#EDA600"/><ellipse transform="rotate(-25.578 72.687 78.613)" cx="72.7" cy="78.62" rx="5.64" ry="5.64" fill="#FBC11B"/><linearGradient id="b" x1="73.387" x2="94.291" y1="85.284" y2="102.3" gradientUnits="userSpaceOnUse"><stop stop-color="#FFCA28" offset=".309"/><stop stop-color="#FFB300" offset=".805"/></linearGradient><path d="M78.42 100.99a6.487 6.487 0 0 1-3.01-3.21l-7.15-16.49 9.26-4.43 7.29 17.58c.18.44.48.81.87 1.08l15.99 11.3-2.76 4.61-20.49-10.44z" fill="url(#b)"/><path d="M77.27 77.54l7.09 17.1c.22.52.58.97 1.04 1.3l15.61 11.03-2.28 3.81-20.08-10.24a5.976 5.976 0 0 1-2.78-2.96l-6.95-16.05 8.35-3.99m.52-1.36l-10.17 4.87 7.34 16.93a7.015 7.015 0 0 0 3.24 3.45l20.9 10.67 3.24-5.41-16.37-11.57a1.96 1.96 0 0 1-.69-.87l-7.49-18.07z" fill="#EDA600"/><linearGradient id="c" x1="68.43" x2="70.237" y1="80.002" y2="87.608" gradientUnits="userSpaceOnUse"><stop stop-color="#EF6C00" offset=".017"/><stop stop-color="#F67F00" offset=".438"/><stop stop-color="#FB8C00" offset=".829"/></linearGradient><path d="M57.33 81.78v-.06a6.215 6.215 0 0 1 5.66-6.71c.18-.01.36-.02.53-.02 1.05 0 2.08.27 3 .78.07.04.16.06.24.06.05 0 .09-.01.14-.02.13-.04.24-.12.3-.24a6.172 6.172 0 0 1 2.77-2.65c.54-.26 1.13-.39 1.78-.39 2.91 0 6.09 2.57 7.25 4.98l4.59 11.51-10.97 3.15-1.46-2.91a.512.512 0 0 0-.45-.28.505.505 0 0 0-.5.53l.18 3.02-11.77 1-1.29-11.75z" fill="url(#c)"/><path d="M71.76 73.03c2.46 0 5.55 2.13 6.78 4.66l4.38 11-10.04 2.88-1.27-2.54a1 1 0 0 0-.89-.55c-.09 0-.17.01-.26.03-.46.12-.77.55-.74 1.03l.15 2.53-10.8.92-1.24-11.24v-.07c-.13-1.52.34-3 1.32-4.16a5.651 5.651 0 0 1 4.37-2.03c.96 0 1.92.25 2.76.71.15.08.32.13.49.13.09 0 .19-.01.28-.04.26-.08.47-.25.6-.48a5.73 5.73 0 0 1 2.55-2.44c.46-.23.98-.34 1.56-.34m0-1c-.69 0-1.37.14-2 .43a6.71 6.71 0 0 0-3 2.86c-.97-.54-2.08-.84-3.24-.84-.19 0-.38.01-.57.02-3.69.31-6.43 3.56-6.12 7.25l1.36 12.31 12.74-1.08-.21-3.51 1.64 3.28 11.9-3.42-4.81-12.05c-1.3-2.7-4.68-5.25-7.69-5.25z" fill="#DB6300"/><linearGradient id="d" x1="51.473" x2="32.64" y1="55.246" y2="69.413" gradientUnits="userSpaceOnUse"><stop stop-color="#FFB300" offset=".195"/><stop stop-color="#FFCA28" offset=".691"/></linearGradient><path d="M56.6 57.2l-3.82-6.65-14.04 8.52c-1.3.79-2.4 1.86-3.22 3.14L30 70.79l3.45 3.02 8.05-8.43 15.1-8.18z" fill="url(#d)"/><path d="M56.6 57.2l-3.82-6.65-14.04 8.52c-1.3.79-2.4 1.86-3.22 3.14L30 70.79l3.45 3.02 8.05-8.43 15.1-8.18z" fill="none" stroke="#EDA600" stroke-linecap="round" stroke-linejoin="round" stroke-miterlimit="10"/><ellipse transform="rotate(-18.904 54.735 54.094)" cx="54.73" cy="54.09" rx="3.83" ry="3.83" fill="#FBC11B"/><linearGradient id="e" x1="75.954" x2="75.954" y1="16.012" y2="44.025" gradientUnits="userSpaceOnUse"><stop stop-color="#FFB300" offset=".195"/><stop stop-color="#FFCA28" offset=".691"/></linearGradient><path d="M85.44 34.78l-.02-.09c-.03-.1-.05-.2-.09-.3l-3.29-10.86.85-.71a4.168 4.168 0 0 0 .51-5.87l-.03-.03a4.168 4.168 0 0 0-5.87-.51l-1.67 1.4a4.168 4.168 0 0 0-.51 5.87l.03.03c.25.3.54.54.85.75l2.21 9.87L66.37 44.6l5.12 5.71L84.43 38.1c.96-.86 1.3-2.15 1.01-3.32z" fill="url(#e)"/><path d="M85.44 34.78l-.02-.09c-.03-.1-.05-.2-.09-.3l-3.29-10.86.85-.71a4.168 4.168 0 0 0 .51-5.87l-.03-.03a4.168 4.168 0 0 0-5.87-.51l-1.67 1.4a4.168 4.168 0 0 0-.51 5.87l.03.03c.25.3.54.54.85.75l2.21 9.87L66.37 44.6l5.12 5.71L84.43 38.1c.96-.86 1.3-2.15 1.01-3.32z" fill="none" stroke="#EDA600" stroke-linecap="round" stroke-linejoin="round" stroke-miterlimit="10"/><ellipse transform="rotate(-41.867 68.924 47.452)" cx="68.92" cy="47.45" rx="3.83" ry="3.83" fill="#FBC11B"/><radialGradient id="f" cx="62.455" cy="60.307" r="18.817" gradientUnits="userSpaceOnUse"><stop stop-color="#00BFA5" offset=".364"/><stop stop-color="#00B29A" offset=".812"/><stop stop-color="#00AB94" offset="1"/></radialGradient><path d="M53.05 60.19a.49.49 0 0 0-.28-.36.537.537 0 0 0-.21-.05c-.08 0-.16.02-.24.06l-2.35 1.27-3.91-6.8s6.86-4.18 6.88-4.19c6.79-4.06 8.02-4.65 10.92-5.21.07-.01.13-.04.19-.08l7.97-5.49 5.27 5.88-4.16 3.92c-.13.12-.18.3-.15.47l5.88 27.28-21.66 4.37-4.15-21.07z" fill="url(#f)"/><path d="M71.93 40.01l4.65 5.19-3.8 3.59c-.25.24-.36.6-.29.94l5.77 26.78-20.67 4.16-4.05-20.57a.988.988 0 0 0-.56-.71c-.14-.06-.28-.1-.43-.1-.16 0-.33.04-.48.12l-1.92 1.04-3.43-5.96 6.39-3.9a.21.21 0 0 0 .06-.04c6.8-4.07 7.91-4.6 10.76-5.15.13-.03.26-.08.38-.16l7.62-5.23m.16-1.32l-8.33 5.74c-2.99.58-4.22 1.17-11.09 5.28l-7.3 4.45 4.4 7.65 2.78-1.51 4.25 21.56 22.65-4.56-5.98-27.77 4.51-4.26-5.89-6.58z" fill="#009984"/><radialGradient id="g" cx="71.955" cy="11.072" r="9.587" gradientUnits="userSpaceOnUse"><stop stop-color="#B0BEC5" offset=".006"/><stop stop-color="#78909C" offset="1"/></radialGradient><circle cx="74.63" cy="13.59" r="9.59" fill="url(#g)"/><defs><path id="h" d="M33.56 72.87l-2.92-2.18.24-.4-.12-.72s.05.02-.51.37c-1.05.67-4.59.67-5.84 1.95 0 0-4.85 4.36-4.87 4.99-.01.18 2.68 6.32 3.08 6.45 7.54 2.35 11.45-3.05 11.79-3.4 1.31-1.35.19-5.23.11-6.94-.01-.26-.1-.98-.1-.98l-.86.86z"/></defs><clipPath id="i"><use xlink:href="#h"/></clipPath><path d="M28.78 72.91s-1.5 2.12-2.13 4.91c-.26 1.15.07 2.22.21 2.42.44.65 1.29.85 1.6.35.27-.43-.28-1.21-.25-1.65.04-.52.37-.93.37-.93.15.55 1.32 1.78 1.74 1.69 1.18-.25-.52-1.82-.38-2.78.37-2.49 1.44-4.06 1.44-4.06l-2.6.05z" clip-path="url(#i)" fill="#E59600" stroke="#D18100" stroke-linecap="round" stroke-linejoin="round" stroke-miterlimit="10"/><linearGradient id="j" x1="117.73" x2="125.62" y1="34.15" y2="34.15" gradientTransform="rotate(43.298 21.067 -59.864)" gradientUnits="userSpaceOnUse"><stop stop-color="#FFCA28" offset=".262"/><stop stop-color="#FFB300" offset="1"/></linearGradient><path d="M32.51 78.81c-1.14-.36-.34-4.09-2.84-3.63-.54.1-1.95 2.09-1.95 2.09s-.62 1.33-.97 1.9c-.35.56-1.19 1.48-1.63 1.8-1.54 1.13-2.69.07-2.29-.37l1.53-2.08 1.92-3.45s2.6-3.69 4.28-4.76c1.46-.93 1.49-.42 2.75.48.43.3.75 1.81.78 2.36.08 1.54-.16.84-.67 2.78-.31 1.17.17 1.52.13 2.18-.05.5-.55.85-1.04.7z" clip-path="url(#i)" fill="url(#j)" stroke="#EDA600" stroke-linecap="round" stroke-linejoin="round" stroke-miterlimit="10"/><path fill="#E0E0E0" d="M77.9 112.23l2.74-5.49 4.85 2.63-2.43 4.75z"/><path d="M80.86 107.42l3.97 2.15-2 3.92-4.22-1.54 2.25-4.53m-.43-1.37l-3.23 6.46 6.11 2.23 2.85-5.58-5.73-3.11z" fill="#CCC7BD"/><path fill="#E0E0E0" d="M94.57 109.33l3.43-5.12 4.48 3.05-3.04 4.53z"/><path d="M98.14 104.91l3.65 2.49-2.52 3.75-3.96-2.01 2.83-4.23m-.27-1.4l-4.02 6 5.76 2.92 3.57-5.31-5.31-3.61z" fill="#CCC7BD"/><path d="M74.63 5c4.74 0 8.59 3.85 8.59 8.59s-3.85 8.59-8.59 8.59-8.59-3.85-8.59-8.59S69.9 5 74.63 5m0-1c-5.29 0-9.59 4.29-9.59 9.59s4.29 9.59 9.59 9.59 9.59-4.29 9.59-9.59S79.93 4 74.63 4z" fill="#607C8A"/><path d="M100 121.45c-.08 0-.15-.02-.22-.06l-.96-.62a3.073 3.073 0 0 1-1.35-3.2l1.45-5.66 3.21-5.02c.22-.02.59-.06 1.03-.06 1.05 0 1.89.18 2.43.52l2.12 1.36c.25.16.32.49.16.73l-7.54 11.82c-.06.12-.19.19-.33.19z" fill="#4568AD"/><path d="M103.17 107.33c.94 0 1.71.16 2.16.45l2.13 1.4-7.49 11.73-.87-.56a2.598 2.598 0 0 1-1.14-2.66l1.43-5.58 3.04-4.75c.2-.01.46-.03.74-.03m0-1c-.75 0-1.32.09-1.32.09l-3.38 5.29-1.47 5.76c-.28 1.44.34 2.91 1.57 3.71l.96.62c.15.1.32.14.49.14.3 0 .59-.15.76-.42l7.54-11.82c.31-.48.17-1.12-.31-1.42l-2.12-1.35c-.79-.48-1.87-.6-2.72-.6z" fill="#315499"/><path d="M83.87 123.5c-.07 0-.13-.02-.19-.05l-1-.55a3.082 3.082 0 0 1-1.57-3.09l1.04-5.75 2.85-5.24c.31-.06.92-.15 1.59-.15.79 0 1.44.13 1.89.37l2.21 1.2c.12.07.22.18.26.32s.03.28-.04.4l-6.69 12.32c-.07.14-.21.22-.35.22z" fill="#4568AD"/><path d="M86.59 109.18c.7 0 1.27.11 1.65.31l2.23 1.24-6.64 12.23-.91-.5a2.578 2.578 0 0 1-1.32-2.57l1.03-5.67 2.7-4.95c.31-.04.77-.09 1.26-.09m0-1c-1.03 0-1.92.21-1.92.21l-3 5.51-1.06 5.85a3.59 3.59 0 0 0 1.83 3.59l1 .55c.14.08.29.11.43.11.32 0 .63-.17.79-.47l6.69-12.32c.27-.5.09-1.13-.41-1.4l-2.21-1.2c-.63-.33-1.42-.43-2.14-.43z" fill="#315499"/><linearGradient id="k" x1="140.62" x2="140.62" y1="-267.26" y2="-244.4" gradientTransform="rotate(-17.085 1067.406 172.576)" gradientUnits="userSpaceOnUse"><stop stop-color="#FFCA28" offset=".545"/><stop stop-color="#FFB300" offset=".834"/><stop stop-color="#E59600" offset=".995"/></linearGradient><path d="M64.86 21.22c-3.25-3.64-9.23-4.11-13.88-2.66-5.21 1.63-7.53 5.88-7.61 10.85-.03 1.8.28 3.56.75 4.76.06.14.5 1.19.57 1.53.39 1.29-1.97 2.95-2.07 4.44-.07 1.12 2.3 1.5 2.51 1.67 1.03.85.28 5.75 6.58 5.3 2.2-.16 4.24-.65 5.06.85l.24.63c.67 1.78 2.63 2.72 4.43 2.11a3.532 3.532 0 0 0 2.39-3.74c-.29-2.55-.1-6.54 2.67-10.38 3.13-4.32 1.07-12.33-1.64-15.36z" fill="url(#k)"/><linearGradient id="l" x1="42.631" x2="68.077" y1="34.339" y2="34.339" gradientUnits="userSpaceOnUse"><stop stop-color="#EDA600" offset="0"/><stop stop-color="#D18900" offset="1"/></linearGradient><path d="M56.02 18.8c3.44 0 6.31 1.1 8.09 3.09 2.57 2.88 4.3 10.34 1.59 14.11-2.93 4.06-3.17 8.26-2.86 11.07.13 1.2-.57 2.3-1.71 2.68-.26.09-.53.13-.8.13-1.05 0-2-.66-2.37-1.65l-.24-.63c-.02-.04-.04-.09-.06-.13-.77-1.41-2.2-1.57-3.22-1.57-.58 0-1.18.06-1.81.12l-.99.09c-.25.02-.5.03-.73.03-3.24 0-3.77-1.76-4.24-3.31-.22-.74-.41-1.37-.91-1.78-.2-.17-.42-.24-.79-.35-.73-.22-1.18-.42-1.35-.57.08-.4.51-.99.89-1.52.68-.94 1.45-1.99 1.13-3.14-.07-.32-.28-.84-.56-1.52l-.05-.13c-.45-1.14-.7-2.78-.68-4.38.04-2.91.99-8.06 6.9-9.91 1.54-.48 3.18-.73 4.77-.73m0-1c-1.73 0-3.46.27-5.04.77-5.21 1.63-7.53 5.88-7.61 10.85-.03 1.8.28 3.56.75 4.76.06.14.5 1.19.57 1.53.39 1.29-1.97 2.95-2.07 4.44-.07 1.12 2.3 1.5 2.51 1.67.98.81.34 5.33 5.78 5.33.25 0 .52-.01.8-.03.97-.07 1.91-.2 2.72-.2 1.04 0 1.88.22 2.34 1.05l.24.63c.53 1.42 1.87 2.3 3.31 2.3.37 0 .75-.06 1.12-.18a3.532 3.532 0 0 0 2.39-3.74c-.29-2.55-.1-6.54 2.67-10.38 3.12-4.32 1.06-12.33-1.65-15.36-2.14-2.42-5.47-3.44-8.83-3.44z" fill="url(#l)"/><radialGradient id="m" cx="93.432" cy="-127.66" r="13.371" gradientTransform="matrix(1.0302 -.1319 .1329 .9914 -27.009 162.71)" gradientUnits="userSpaceOnUse"><stop stop-color="#6D4C41" offset="0"/><stop stop-color="#523329" offset="1"/></radialGradient><path d="M57.5 39.59l1.16-5.36s3.38.5 2.72 3.96c-.46 2.44 1.19 5.06 2.29 5.22l.64.15c.9-3.65 5.26-5.03 5.37-14.45.09-8.17-7.32-12.27-14.17-11.96-6.56.29-13.65 5.09-12.49 13.95.04.31 8.61.5 10.76 2.47 2.12 1.94.76 5.92 3.72 6.02z" fill="url(#m)"/><defs><path id="n" d="M63.35 33.57l.33 8.77-.51.86s.35.19.51.22l.64.15c.9-3.65 5.26-5.03 5.37-14.45.09-8.17-7.32-12.27-14.17-11.96-6.56.29-13.72 5.41-12.53 13.98.01.06.89.13.89.13l-.04-1.39 10.1.51 9.41 3.18z"/></defs><clipPath id="o"><use xlink:href="#n"/></clipPath><g clip-path="url(#o)"><path d="M56.24 18.13c3.73 0 7.32 1.38 9.61 3.69 1.92 1.94 2.87 4.39 2.84 7.27-.07 5.93-1.83 8.39-3.39 10.57-.62.87-1.22 1.7-1.62 2.67-.57-.42-1.65-2.18-1.31-3.96.25-1.32.05-2.45-.61-3.37-1.03-1.45-2.76-1.74-2.95-1.77l-.93-.14-.2.91-.92 4.26c-.22-.28-.37-.8-.58-1.74-.26-1.18-.58-2.65-1.72-3.7-1.62-1.5-5.58-2.03-9.5-2.44-.36-.04-.75-.08-1.06-.12-.24-2.96.57-5.62 2.34-7.74 2.16-2.58 5.65-4.22 9.32-4.39.23.01.45 0 .68 0m0-1c-.24 0-.48.01-.72.02-6.56.29-13.68 5.2-12.53 13.95.04.31 8.65.5 10.79 2.47 2.11 1.95.75 5.93 3.71 6.02l1.16-5.36s3.38.5 2.72 3.96c-.46 2.44 1.19 5.06 2.29 5.22l.64.15c.9-3.65 5.26-5.03 5.37-14.45.11-7.89-6.79-11.98-13.43-11.98z" fill="#402821"/></g><path d="M48.2 40.98l-2.35.72s.41 1.07.61 1.5c1.1 2.33 3.12 4.68 7.38 3.8.39-.08-2.85-5.18-2.85-5.18l-2.79-.84z" fill="none"/><defs><path id="p" d="M64.86 21.22c-3.25-3.64-9.23-4.11-13.88-2.66-6.44 2.01-8.73 7.53-7.54 13.97 0 0 .79 2.64 1.02 3.77.66 2.21-1.28 2-1.51 3.74-.22 1.64 1.98 1.59 2.19 1.77 1.03.85.28 5.75 6.58 5.3 2.2-.16 4.24-.65 5.06.85l2.15 4.6 6.85-.25s-3.87-9.36.72-15.72c3.13-4.33 1.07-12.34-1.64-15.37z"/></defs><clipPath id="q"><use xlink:href="#p"/></clipPath><g clip-path="url(#q)"><path d="M41.64 42.57c1.67 1.76 4.99 2.56 6.87.71.72-.71.07-1.29-.78-.77-1.39.84-4.09.26-5.14-.85-.7-.72-1.64.19-.95.91z" fill="#5D4037"/></g><ellipse transform="rotate(-5.399 47.959 36.977)" cx="47.98" cy="36.99" rx="1.16" ry="1.77" fill="#49362E"/><path d="M46.92 34.43c-1.12.34-1.4-.4-1.02-1 .27-.44.95-.82 2.27-.57 1.24.23 1.76.94 2.1 1.37s.3.86.02.9c-.4.06-1.98-1.12-3.37-.7z" fill="#613E31"/></svg>