<svg viewBox="0 0 128 128" xmlns="http://www.w3.org/2000/svg"><path d="M13.06 20.01c4.69-.9 10.59-2.48 13.73-6.07.88-1 1.61-1.61 2.12-1.88.52-.26.09 2.84-.42 3.52-1.09 1.46-.57 2.09.17 3.75.21.47 1.41 2.51 1.25 3-.35 1.08-2.55 1.16-3.97.94-2.65-.4-7.59 1.29-11.84.42-2.53-.52-3.38-1.37-3.52-2.26-.2-1.3 1.55-1.24 2.48-1.42z" fill="#FFC107" stroke="#BF6C00" stroke-linecap="round" stroke-linejoin="round" stroke-miterlimit="10" stroke-width="2"/><path d="M77.38 102.85c-.14.89-.46 1.96-1.34 2.17-.48.12-.98-.07-1.44-.25-2.61-1.04-5.22-2.09-7.83-3.13.81.74 1.7 1.76 1.34 2.79-.32.94-1.46 1.26-2.43 1.44-3.58.69-7.16 1.37-10.74 2.06 2.62-.08 5.26.56 7.56 1.82 1.42.78 2.84 2.08 2.72 3.69-.1 1.31-1.18 2.3-2.18 3.15 4.77-1.74 9.53-3.49 14.3-5.23.97-.35 1.96-.73 2.71-1.44.9-.86 1.33-2.12 1.45-3.36s-.03-2.49-.11-3.73c-.24-4.03.31-8.1 1.63-11.92.37-1.06.79-2.23.34-3.26-.76-1.75-5.15-2.4-5.72-.25-.34 1.29.28 3.28.34 4.62.08 1.68.08 3.36 0 5.04-.09 1.95-.29 3.88-.6 5.79z" fill="#FFC107" stroke="#BF6C00" stroke-linecap="round" stroke-linejoin="round" stroke-miterlimit="10" stroke-width="1.941"/><path d="M103.92 99.5c4.51-.07 5.62-.61 8.62-1.44-4.85-7.6-15.15-32.54-38.89-40.29-11.05-3.6-19.6-2.68-20.07-3.94-.6-1.62-.91-3.38-.94-5.18-.02-1.14.08-2.25.27-3.35.76-4.5 2.95-8.74 4.17-13.22 1.54-5.67 1.72-12.41-1.11-17.5S47.24 6.23 41.66 5.8c-5.59-.43-11.81 2.48-14.57 7.61 0 0-3.72 10.04 7.22 13.42 8.69 2.69 8.21 6.59 7.11 11.38-.23 1-1.41 3.01-3.06 5.79-1.36 2.29-3.04 5.11-4.77 8.32-10.8 19.84 2.96 36.76 12.79 41.99 8.37 4.45 20.23 7.69 36.85 8.12 3.71.09 7.65.05 11.85-.15 2.34.75 5.84.77 8.24.65-1.24-1.26-3.6-2.49-4.84-3.76 1.32.47 4.05.35 5.44.33z" fill="none" stroke="#A67C52" stroke-linecap="round" stroke-linejoin="round" stroke-miterlimit="10" stroke-width="4"/><path d="M49.35 122.97c-.38 0-.74-.23-.9-.6a.978.978 0 0 1 .37-1.19c.41-.26.84-.45 1.22-.61.79-.34 1.12-.52 1.2-.88.28-1.35-1.34-2.67-1.84-3.03a13.702 13.702 0 0 0-6.78-2.61c-.5-.05-.88-.48-.87-.99s.41-.92.91-.95l10.92-.63c.66-.04 1.57-.14 1.79-.58.13-.25.08-.79-.84-1.89-.3-.36-.3-.88 0-1.24.19-.23.47-.35.75-.35.16 0 .33.04.47.12l7.36 4.13c.23.13.57.32.78.32.23-.02.55-.38.82-1.29.54-1.81.99-3.67 1.33-5.54.29-1.62.51-3.27.65-4.9.03-.41.02-.93 0-1.47-.04-1.15-.07-2.44.34-3.44.44-1.07 1.49-1.68 2.88-1.68 1.83 0 4.12 1.12 4.59 2.78.4 1.42-.26 2.75-.8 3.82-1.77 3.54-2.84 7.42-3.11 11.3-.02.27-.03.53-.05.8-.06 1-.12 2.03-.36 3.06-.26 1.14-.87 2.7-2.25 3.71-1.01.74-2.25 1.01-3.24 1.23-2.51.56-5.12.94-7.64 1.3-2.49.36-5.05.73-7.5 1.28-.06.01-.13.02-.2.02z" fill="#FFC107"/><path d="M69.9 94.64c1.51 0 3.33.91 3.66 2.07.31 1.08-.27 2.18-.77 3.19a30.876 30.876 0 0 0-3.18 11.6c-.09 1.24-.1 2.5-.38 3.71s-.87 2.41-1.87 3.14c-.83.61-1.87.84-2.87 1.07-4.95 1.1-10.18 1.48-15.13 2.58 1.1-.71 2.58-.82 2.85-2.11.33-1.58-.91-3.06-2.21-4.01a14.945 14.945 0 0 0-7.26-2.8l10.92-.63c.99-.06 2.16-.23 2.6-1.11.49-.98-.26-2.1-.96-2.94 2.45 1.38 4.9 2.75 7.36 4.13.39.22.81.44 1.25.44.05 0 .09 0 .14-.01.9-.1 1.36-1.11 1.61-1.98.56-1.85 1.01-3.74 1.35-5.64.3-1.65.52-3.32.66-5 .11-1.34-.24-3.39.27-4.63.3-.75 1.08-1.07 1.96-1.07m0-1.94c-1.78 0-3.19.85-3.78 2.28-.49 1.19-.45 2.6-.41 3.84.02.52.03 1.01 0 1.36-.13 1.61-.35 3.22-.63 4.81-.33 1.83-.77 3.66-1.3 5.43-.05.18-.11.32-.15.43-.02-.01-.03-.02-.05-.03l-7.36-4.13a1.945 1.945 0 0 0-2.45.45c-.6.72-.59 1.77.01 2.49.3.36.46.61.56.77-.17.04-.42.07-.82.1l-10.92.63a1.941 1.941 0 1 0-.09 3.87c2.28.23 4.46 1.07 6.3 2.43.89.66 1.47 1.43 1.48 1.94-.16.09-.44.21-.64.3-.42.18-.89.38-1.37.69-.79.51-1.1 1.51-.74 2.38.31.73 1.02 1.19 1.79 1.19.14 0 .28-.02.42-.05 2.4-.54 4.96-.91 7.42-1.26 2.54-.37 5.16-.75 7.71-1.32 1.08-.24 2.42-.54 3.59-1.39 1.28-.93 2.19-2.41 2.62-4.27.26-1.11.32-2.19.38-3.23.02-.26.03-.52.05-.79.27-3.75 1.3-7.51 2.98-10.87l.03-.06c.58-1.16 1.37-2.74.87-4.52-.59-2.17-3.27-3.47-5.5-3.47z" fill="#BF6C00"/><linearGradient id="a" x1="42.332" x2="42.332" y1="5.817" y2="45.383" gradientUnits="userSpaceOnUse"><stop stop-color="#587380" offset=".006"/><stop stop-color="#263238" offset="1"/></linearGradient><path d="M52.91 45.31c.76-4.5 2.95-8.74 4.17-13.22 1.54-5.67 1.72-12.41-1.11-17.5S47.24 6.23 41.65 5.8s-11.81 2.48-14.57 7.61c0 0-3.72 10.04 7.22 13.43 8.69 2.69 8.21 6.59 7.11 11.38-.23 1-1.41 3.01-3.06 5.79 4.04 4.16 10.09 3.76 14.56 1.3z" fill="url(#a)"/><path d="M53.58 53.83c-.6-1.62-.91-3.38-.94-5.18-.02-1.14.08-2.25.27-3.35-4.48 2.46-10.53 2.86-14.55-1.3-1.36 2.29-3.04 5.11-4.77 8.32 5.63 4.64 13.88 4.35 19.99 1.51z" fill="#E6E6E6"/><linearGradient id="b" x1="71.097" x2="71.097" y1="52.331" y2="102.43" gradientUnits="userSpaceOnUse"><stop stop-color="#A67C52" offset=".003"/><stop stop-color="#3E2723" offset="1"/></linearGradient><path d="M73.65 57.77c-11.05-3.6-19.6-2.68-20.07-3.94-4.63 2.15-15.72 2-19.98-1.5-10.8 19.84 2.96 36.76 12.79 41.99 8.37 4.45 20.23 7.69 36.85 8.12 3.71.09 7.65.05 11.85-.15 2.34.75 5.84.77 8.24.65-1.24-1.26-3.6-2.49-4.84-3.76 1.31.46 4.05.34 5.43.32 4.51-.07 5.62-.61 8.62-1.44-4.85-7.6-15.14-32.54-38.89-40.29z" fill="url(#b)"/><path d="M86.1 92.82c10.07 3.27 22.79 2.67 22.79 2.67S97.61 83.27 89.61 77.75c-5.75-3.97-23.63-.6-22.67 2.32 1.28 3.91 2.78 7.43 19.16 12.75z" fill="#689F38"/><linearGradient id="c" x1="55.554" x2="104.1" y1="63.711" y2="96.522" gradientUnits="userSpaceOnUse"><stop stop-color="#C69C6D" offset=".005"/><stop stop-color="#754C24" offset="1"/></linearGradient><path d="M59.36 59.13C52.7 61.06 49.52 71 56.57 78.27 72.82 95.01 95.33 89.96 99.42 91.3s8.38 3.07 8.38 3.07-29.04-40.89-48.44-35.24z" fill="url(#c)"/><circle cx="38.1" cy="16.25" r="5.24" fill="#fff"/><ellipse transform="rotate(-57.173 37.295 16.251)" cx="37.3" cy="16.25" rx="2.39" ry="2.39"/></svg>