<svg viewBox="0 0 128 128" xmlns="http://www.w3.org/2000/svg"><linearGradient id="a" x1="28.325" x2="28.325" y1="48.894" y2="107.7" gradientUnits="userSpaceOnUse"><stop stop-color="#8D6E63" offset=".002"/><stop stop-color="#7C5E54" offset=".15"/><stop stop-color="#63473F" offset=".416"/><stop stop-color="#533932" offset=".658"/><stop stop-color="#4E342E" offset=".854"/></linearGradient><path d="M30.07 106.51C10.51 92.1 5.2 82.15 5.8 62.55c.2-6.49 1-14.02 5.48-14.61.43-.06.84-.08 1.24-.08 2.68 0 4.45 1.25 6.69 2.83 2.14 1.51 4.56 3.21 8.16 3.98 1.01.21 1.98.32 2.97.32 1.24 0 2.31-.16 3.35-.32.97-.15 1.89-.28 2.9-.28 1.52 0 3.05.32 4.83 1.01 2.97 1.16 2.84 3.4 2.35 7.26-.16 1.22-.32 2.47-.3 3.7.03 2.55-.54 5.02-1.16 7.63-.63 2.7-1.28 5.5-1.23 8.44.15 8.49 3.75 16.76 9.82 22.97-4.64-1.45-8.98-4.99-13.57-10.97a1.506 1.506 0 0 0-1.85-.44c-.64.32-.97 1.04-.79 1.73.37 1.39 1.06 2.6 1.85 3.99.85 1.49 1.85 3.24 2.71 5.72-4.75-2.65-6.2-4.78-8.39-7.97a78.14 78.14 0 0 0-2.58-3.61c-.29-.39-.74-.59-1.2-.59-.28 0-.55.08-.8.23a1.5 1.5 0 0 0-.53 1.96c2.35 4.47 3.23 6.26 4.32 11.06z" fill="url(#a)"/><path d="M12.52 49.35c2.2 0 3.72 1.07 5.83 2.56 2.14 1.51 4.81 3.39 8.71 4.22 1.11.24 2.19.35 3.29.35 1.35 0 2.53-.18 3.57-.33.91-.14 1.78-.27 2.68-.27 1.33 0 2.69.29 4.28.91 1.74.68 1.94 1.47 1.4 5.67-.16 1.27-.33 2.58-.31 3.91.03 2.36-.53 4.75-1.12 7.27-.65 2.79-1.33 5.68-1.27 8.81.11 6.37 2.08 12.62 5.53 18.04-2.17-1.74-4.34-4.05-6.59-6.98a2.988 2.988 0 0 0-3.7-.86 3.012 3.012 0 0 0-1.58 3.46c.42 1.58 1.19 2.93 2 4.36.09.16.18.32.28.48-1.32-1.28-2.25-2.63-3.41-4.33-.73-1.07-1.57-2.29-2.62-3.68a3.001 3.001 0 0 0-4-.71 2.997 2.997 0 0 0-1.05 3.92c1.44 2.76 2.3 4.41 3.03 6.52C11.06 89.9 6.75 80.6 7.3 62.59c.09-3.13.38-12.67 4.18-13.17.36-.04.71-.07 1.04-.07m0-3c-.46 0-.93.03-1.44.1C4.97 47.25 4.47 57 4.3 62.5c-.66 21.67 5.84 31.78 28.04 47.5-1.63-8.17-2.38-9.75-5.25-15.25 4.75 6.25 4.88 9 14.54 13.58-1.67-7.33-4.67-9.86-5.5-13 4.95 6.44 11.11 12.2 19.61 12.33-8.04-6.06-12.99-15.57-13.16-25.26-.1-5.48 2.46-10.58 2.39-16.06-.06-4.51 2.6-10.16-3-12.33-2.2-.86-3.89-1.11-5.37-1.11-2.25 0-3.99.6-6.25.6-.81 0-1.68-.08-2.66-.29-6.97-1.49-9.17-6.86-15.17-6.86z" fill="#4E342E"/><linearGradient id="b" x1="102.73" x2="102.73" y1="48.894" y2="107.7" gradientTransform="matrix(-1 0 0 1 202.4 0)" gradientUnits="userSpaceOnUse"><stop stop-color="#8D6E63" offset=".002"/><stop stop-color="#7C5E54" offset=".15"/><stop stop-color="#63473F" offset=".416"/><stop stop-color="#533932" offset=".658"/><stop stop-color="#4E342E" offset=".854"/></linearGradient><path d="M97.93 106.51c1.1-4.81 1.97-6.59 4.31-11.07a1.5 1.5 0 0 0-1.33-2.19c-.45 0-.9.21-1.2.59-1.03 1.35-1.85 2.55-2.58 3.61-2.19 3.2-3.64 5.33-8.39 7.97.86-2.48 1.86-4.23 2.71-5.72.8-1.4 1.49-2.6 1.85-3.99.18-.69-.15-1.41-.79-1.73a1.506 1.506 0 0 0-1.85.44c-4.6 5.98-8.93 9.52-13.57 10.97 6.07-6.21 9.67-14.48 9.82-22.97.05-2.94-.6-5.74-1.23-8.44-.61-2.62-1.19-5.08-1.16-7.63.02-1.22-.15-2.48-.3-3.7-.49-3.86-.63-6.1 2.35-7.26 1.77-.69 3.31-1.01 4.83-1.01 1.01 0 1.93.14 2.9.28 1.04.16 2.11.32 3.34.32.99 0 1.96-.1 2.97-.32 3.61-.77 6.03-2.48 8.16-3.98 2.24-1.58 4.01-2.83 6.69-2.83.4 0 .81.03 1.24.08 5.06.66 5.35 10.44 5.48 14.61.62 19.61-4.69 29.56-24.25 43.97z" fill="url(#b)"/><path d="M115.48 49.35c.33 0 .68.02 1.05.07 3.79.5 4.08 10.03 4.18 13.17.55 18-3.76 27.31-20.16 40.07.73-2.12 1.59-3.76 3.03-6.52.72-1.38.27-3.09-1.05-3.92a3.001 3.001 0 0 0-4 .71c-1.05 1.38-1.89 2.6-2.62 3.68-1.16 1.7-2.09 3.05-3.41 4.33.09-.16.19-.33.28-.48.82-1.43 1.59-2.78 2-4.36a3.012 3.012 0 0 0-2.9-3.77c-.91 0-1.8.41-2.38 1.17-2.25 2.93-4.42 5.24-6.59 6.98 3.45-5.42 5.41-11.67 5.53-18.04.06-3.13-.62-6.02-1.27-8.81-.59-2.52-1.15-4.91-1.12-7.27.02-1.33-.15-2.64-.31-3.91-.54-4.2-.34-4.99 1.4-5.67 1.6-.62 2.96-.91 4.28-.91.9 0 1.76.13 2.68.27 1.04.16 2.22.33 3.57.33 1.1 0 2.17-.11 3.29-.35 3.91-.83 6.57-2.71 8.71-4.22 2.08-1.47 3.6-2.55 5.81-2.55m0-3c-6 0-8.19 5.37-15.17 6.85-.98.21-1.85.29-2.66.29-2.25 0-3.99-.6-6.25-.6-1.48 0-3.17.26-5.37 1.11-5.6 2.18-2.94 7.82-3 12.33-.07 5.48 2.49 10.58 2.39 16.06-.17 9.7-5.13 19.2-13.17 25.27 8.5-.14 14.66-5.89 19.61-12.33-.83 3.14-3.83 5.67-5.5 13 9.67-4.58 9.79-7.33 14.54-13.58-2.88 5.5-3.62 7.08-5.25 15.25 22.2-15.72 28.7-25.83 28.04-47.5-.17-5.5-.67-15.25-6.79-16.05-.49-.07-.97-.1-1.42-.1z" fill="#4E342E"/><path d="M90.63 64.51c5.87 7.56 8.66 17.43 7.62 26.94s-5.9 18.55-13.26 24.66c1.84-16.62 3.67-33.24 5.51-49.86" fill="#4E342E"/><linearGradient id="c" x1="64.241" x2="64.241" y1="55.538" y2="125.59" gradientUnits="userSpaceOnUse"><stop stop-color="#8D6E63" offset=".002"/><stop stop-color="#4E342E" offset="1"/></linearGradient><path d="M36.58 66.26c3.6-7.89 11.03-14.3 19.65-15.24 4.01-.44 8.07.28 12.1.02s8.36-1.83 10.25-5.4c.69-1.29 1-2.77 1.77-4.01.76-1.25 2.23-2.28 3.63-1.86 1.05.31 1.72 1.32 2.29 2.26 9.87 16.4 12.07 41.14 2.9 58.64S73.5 122 67.83 122.33c-4.37.26-11.43.09-22.83-11.67-5.33-5.5-13.46-13.8-11.07-35.23.35-3.17 1.32-6.26 2.65-9.17z" fill="url(#c)"/><linearGradient id="d" x1="61.511" x2="61.511" y1="7.249" y2="73.3" gradientUnits="userSpaceOnUse"><stop stop-color="#FAFAFA" offset=".003"/><stop stop-color="#F4F4F4" offset=".232"/><stop stop-color="#E1E1E1" offset=".553"/><stop stop-color="#C4C4C4" offset=".925"/><stop stop-color="#BDBDBD" offset="1"/></linearGradient><path d="M81.25 42.85L87.42 44c-1.09-11.25-7.44-17.3-7.44-17.3l4.72 1.09c-3.99-9.44-13.61-12.88-13.61-12.88l4.54-.73c-27.22-16.87-38.04.55-39.37 4.42-1.9 5.53.84 10.77 5.26 18.45 4.3 7.47.91 11.98-2.54 20.5-2.72 6.73-5.12 16.5-1.65 23.43 1.98-2.92 3.2-6.76 4.68-9.98.02-.01.45-.93.47-.94.04 2.33 3.75 7.38 5.44 8.69 3.02-3.18 5.4-10.44 6.69-14.62.16-.1 6.5 6.19 8.12 7.5 2.44-3.55 5.37-11.88 6.38-16.06.06-.02 5.19 7.61 7.19 9.94.57-2.9 1.09-11.36 1.15-11.38.4-.11 3.19 3.43 3.58 3.86 1.12 1.2 2.22 2.41 3.4 3.55.03-6.07-.53-13.13-3.18-18.69z" fill="url(#d)" stroke="#999" stroke-linecap="round" stroke-linejoin="round" stroke-miterlimit="10" stroke-width="3"/><linearGradient id="e" x1="18.281" x2="54.671" y1="32.112" y2="32.112" gradientUnits="userSpaceOnUse"><stop stop-color="#FFD54F" offset=".006"/><stop stop-color="#FF8F00" offset="1"/></linearGradient><path d="M45.54 28.44c-3.02-.12-4.93-5.66-9.77-6.15-3.71-.37-9.55.64-12.61 2.8-3.53 2.49-9.08 9.5.27 16.92-.27.24 1.39-6.74 5.8-7.57 5.96-1.12 11.18 2.62 16.63 3.38 2.94.41 7.85.16 8.75-3.38.89-3.54-7.44-5.93-9.07-6z" fill="url(#e)" stroke="#C26D00" stroke-linecap="round" stroke-linejoin="round" stroke-miterlimit="10" stroke-width="2"/><path d="M28.85 34.56c5.7-2.21 12.81-2.07 18.88-1.25" fill="none" stroke="#C26D00" stroke-linecap="round" stroke-linejoin="round" stroke-miterlimit="10" stroke-width="2"/><circle cx="48.55" cy="20.75" r="5.33" fill="#FDD835"/><ellipse transform="rotate(-57.173 46.489 21.167)" cx="46.49" cy="21.17" rx="2.5" ry="2.5"/><path d="M46.36 123.18c-1.23 0-2.29-.85-2.57-2.04l-3.15-7.73-.01-.07c-.29-1.43.64-2.82 2.07-3.11l.36-.07a2.653 2.653 0 0 1 3.11 2.07l1.61 8.04c.05.24.17.48.28.71.2.4.44.91.18 1.43-.17.34-.5.56-.99.66l-.36.07c-.18.02-.36.04-.53.04z" fill="#FFC148"/><path d="M43.57 110.89c.87 0 1.64.61 1.82 1.49l1.61 8.04c.2 1 1.09 1.67.09 1.87l-.36.07c-.12.02-.25.04-.37.04-.87 0-1.64-.61-1.82-1.49l-3.15-7.73c-.2-1 .45-1.98 1.45-2.18l.36-.07c.13-.03.25-.04.37-.04m0-1.57c-.23 0-.45.02-.68.07l-.36.07a3.433 3.433 0 0 0-2.69 4.03l.03.15.06.14 3.1 7.61a3.435 3.435 0 0 0 3.32 2.59c.23 0 .45-.02.68-.07l.36-.07c.92-.18 1.35-.69 1.54-1.08.43-.87.05-1.65-.18-2.12-.09-.19-.18-.38-.21-.52l-1.61-8.04a3.426 3.426 0 0 0-3.36-2.76z" fill="#885C52"/><path d="M50.8 122.29c-1.25 0-2.33-.89-2.58-2.12l-1.61-8.05c-.14-.69 0-1.39.39-1.98s.99-.98 1.68-1.12l.37-.07c.18-.04.35-.05.52-.05 1.25 0 2.34.89 2.58 2.12l1.61 8.04c.29 1.42-.64 2.81-2.06 3.1l-.37.07c-.18.04-.35.06-.53.06z" fill="#FFC148"/><path d="M49.57 109.69c.86 0 1.63.61 1.81 1.49l1.61 8.04c.2 1-.45 1.98-1.45 2.18l-.37.07c-.12.02-.24.04-.37.04-.86 0-1.63-.61-1.81-1.49l-1.61-8.04c-.2-1 .45-1.98 1.45-2.18l.37-.07c.12-.03.24-.04.37-.04m0-1.57c-.23 0-.45.02-.67.07l-.37.07c-.9.18-1.67.7-2.18 1.46s-.69 1.67-.51 2.57l1.61 8.04a3.434 3.434 0 0 0 3.35 2.75c.23 0 .45-.02.67-.07l.37-.07c.9-.18 1.67-.7 2.18-1.46s.69-1.67.51-2.57l-1.61-8.04a3.424 3.424 0 0 0-3.35-2.75z" fill="#885C52"/><path d="M55.39 121.39c-.44 0-.71-.19-.85-.34-.36-.38-.33-.88-.3-1.32.02-.26.03-.52-.02-.76l-1.61-8.04c-.14-.69 0-1.39.39-1.98s.99-.99 1.68-1.12l.36-.07a2.653 2.653 0 0 1 3.11 2.07l.01.07.07 8.35a2.64 2.64 0 0 1-2.08 3.03l-.36.07c-.16.03-.29.04-.4.04z" fill="#FFC148"/><path d="M55.55 108.49c.87 0 1.64.61 1.82 1.49l.07 8.35c.2 1-.45 1.98-1.45 2.18l-.36.07c-.09.02-.17.03-.24.03-.67 0-.22-.88-.4-1.79l-1.61-8.04c-.2-1 .45-1.98 1.45-2.18l.36-.07c.12-.03.24-.04.36-.04m0-1.57c-.23 0-.45.02-.68.07l-.36.07a3.433 3.433 0 0 0-2.69 4.03l1.61 8.04c.03.14.02.35 0 .56-.03.51-.08 1.27.52 1.9.36.38.86.59 1.42.59.17 0 .35-.02.54-.06l.36-.07c1.8-.36 2.98-2.07 2.72-3.86l-.07-8.22v-.15l-.03-.15c-.3-1.6-1.71-2.75-3.34-2.75z" fill="#885C52"/><path d="M75.21 121.84c-.07 0-.15 0-.24-.01l-.36-.04a2.641 2.641 0 0 1-2.35-2.83l-.68-8.32.01-.07a2.633 2.633 0 0 1 2.62-2.35c.09 0 .19 0 .29.02l.37.04a2.64 2.64 0 0 1 2.34 2.91l-.89 8.15c-.03.24.01.51.05.76.07.45.14.96-.21 1.37a1.3 1.3 0 0 1-.95.37z" fill="#FFC148"/><path d="M74.2 108.99c.07 0 .13 0 .2.01l.36.04c1.02.11 1.75 1.03 1.64 2.04l-.88 8.15c-.1.96.47 1.82-.32 1.82-.05 0-.1 0-.16-.01l-.35-.04a1.846 1.846 0 0 1-1.64-2.04l-.68-8.32c.1-.95.9-1.65 1.83-1.65m0-1.57c-1.75 0-3.21 1.31-3.4 3.06l-.02.15.01.15.67 8.19a3.418 3.418 0 0 0 3.05 3.6l.36.04c.12.01.23.02.32.02.8 0 1.28-.36 1.54-.66.59-.69.47-1.51.4-2-.03-.2-.06-.41-.05-.56l.88-8.15c.1-.91-.16-1.8-.74-2.52a3.414 3.414 0 0 0-2.3-1.26l-.36-.04c-.11-.02-.23-.02-.36-.02z" fill="#885C52"/><path d="M79.77 122.33c-.09 0-.19 0-.29-.02l-.37-.04c-.7-.08-1.33-.42-1.77-.97s-.64-1.24-.57-1.94l.89-8.16a2.633 2.633 0 0 1 2.62-2.35c.09 0 .19 0 .29.02l.37.04c.7.08 1.33.42 1.77.97s.64 1.24.57 1.94l-.89 8.16a2.64 2.64 0 0 1-2.62 2.35z" fill="#FFC148"/><path d="M80.27 109.65c.07 0 .13 0 .2.01l.37.04c1.02.11 1.75 1.02 1.64 2.04l-.89 8.16c-.1.95-.9 1.65-1.84 1.65-.07 0-.13 0-.2-.01l-.37-.04a1.846 1.846 0 0 1-1.64-2.04l.89-8.16c.11-.95.91-1.65 1.84-1.65m0-1.57c-1.75 0-3.21 1.31-3.4 3.05l-.89 8.16c-.1.91.16 1.8.73 2.51s1.39 1.16 2.3 1.26l.37.04a3.414 3.414 0 0 0 3.77-3.03l.89-8.16c.2-1.88-1.16-3.57-3.03-3.77l-.37-.04c-.12-.02-.24-.02-.37-.02z" fill="#885C52"/><path d="M84.27 122.82c-.1 0-.19 0-.29-.02l-.36-.04c-.5-.05-.85-.25-1.05-.57-.3-.5-.1-1.02.06-1.44.09-.24.19-.49.21-.73l.88-8.15a2.633 2.633 0 0 1 2.62-2.35c.09 0 .19 0 .29.02l.36.04a2.64 2.64 0 0 1 2.34 2.91l-.01.07-2.45 7.98a2.614 2.614 0 0 1-2.6 2.28z" fill="#FFC148"/><path d="M86.35 110.31c.07 0 .13 0 .2.01l.36.04c1.02.11 1.75 1.02 1.64 2.04l-2.45 7.98c-.1.95-.91 1.65-1.84 1.65-.07 0-.13 0-.2-.01l-.36-.04c-1.02-.11-.19-.86-.08-1.87l.88-8.15c.11-.95.92-1.65 1.85-1.65m0-1.57c-1.75 0-3.21 1.31-3.4 3.06l-.88 8.15c-.02.14-.09.34-.17.53-.19.49-.5 1.3.01 2.13.23.37.7.84 1.63.94l.36.04a3.42 3.42 0 0 0 3.75-2.87l2.41-7.86.04-.14.02-.15a3.44 3.44 0 0 0-3.04-3.78l-.36-.04c-.12-.01-.25-.01-.37-.01z" fill="#885C52"/></svg>