<svg viewBox="0 0 128 128" xmlns="http://www.w3.org/2000/svg"><path d="M87.8 111.19c-.53 0-1.09-.04-1.67-.13-8.96-1.29-17.81-20.49-18.37-22.23a1.51 1.51 0 0 0-1.43-1.05c-.05 0-.11 0-.16.01-.71.08-1.27.63-1.33 1.34-.29 3.2-.66 5.5-1 7.1-.35-1.6-.71-3.9-1-7.1-.07-.72-.63-1.28-1.34-1.36-.05-.01-.1-.01-.15-.01a1.5 1.5 0 0 0-1.44 1.07c-.55 1.73-9.4 20.93-18.37 22.22-.58.08-1.14.13-1.67.13-4.08 0-6.23-2.48-8.73-5.34-.96-1.11-1.95-2.25-3.09-3.25l-.41-.36c-1.47-1.29-2.36-2.07-3.44-3.39l-.08-.1c-1.19-1.46-2.66-3.27-3.68-6.18-.75-2.52-.92-4.75-.92-5.39v-.28c-.01-1.03-.03-3.17.9-5.47l.05-.1c.31-.71 1.13-2.6 3.17-4.75 2.19-2.3 4.39-3.52 5.85-4.33 1.34-.75 2.73-1.52 2.29-3.02-.35-1.38-1.94-1.38-2.46-1.38-.25 0-.53.01-.85.02-.36.01-.77.03-1.21.03-1.55 0-3.87-.17-6.16-1.61-1.02-.63-1.66-1.23-1.82-1.41-2.87-2.84-3.63-7.1-4.9-14.16l-.15-.81c-.05-.23-.09-.43-.14-.66-.27-1.31-.71-3.49-1.8-6.3-.18-.57-.6-1.62-1.05-2.65-1.47-3.28-2.54-5-3.49-6.52-.75-1.21-1.41-2.26-2.13-3.92-1.79-5.47 2.84-7.58 2.89-7.59.04-.02.09-.03.13-.05.64-.31 1.44-.46 2.39-.46 4.09 0 10.69 2.88 18.57 8.12C36.77 34.63 43.04 40 46.07 43.21c3.43 3.59 8.59 9.69 13.74 18.39.28.46.77.74 1.29.74.13 0 .26-.02.4-.05a1.5 1.5 0 0 0 1.1-1.45c0-.86.11-1.62.23-2.43.08-.52-.12-1.05-.52-1.39-.68-.57-1.1-1.58-1.1-2.64 0-1.2.41-2.17 1.15-2.72.1-.08.2-.17.28-.27h.08c.13 0 .27-.02.4-.06.29-.08.51-.14.71-.18.2.04.42.1.71.18.13.04.27.06.4.06h.09c.08.1.17.19.28.27.74.55 1.15 1.52 1.15 2.72 0 1.06-.42 2.07-1.1 2.64-.4.34-.6.86-.52 1.37.12.81.23 1.57.23 2.44 0 .68.45 1.27 1.1 1.45.13.04.26.05.4.05.52 0 1.02-.27 1.29-.74 5.15-8.7 10.31-14.79 13.73-18.38 3.04-3.22 9.31-8.59 16.48-13.35 7.88-5.23 14.48-8.12 18.57-8.12.95 0 1.75.16 2.39.46.04.02.08.04.13.05.05.02 4.68 2.12 2.89 7.59-.72 1.66-1.38 2.7-2.13 3.92-.95 1.52-2.02 3.24-3.49 6.53-.46 1.02-.88 2.07-1.05 2.65-1.09 2.81-1.54 4.99-1.8 6.3-.05.23-.09.43-.13.6l-.16.88c-1.26 7.06-2.02 11.32-4.83 14.09-.22.24-.87.85-1.87 1.48-2.3 1.45-4.62 1.62-6.17 1.62-.44 0-.85-.01-1.21-.03-.32-.01-.6-.02-.85-.02-.52 0-2.11 0-2.47 1.44-.43 1.45.96 2.22 2.3 2.96 1.45.81 3.65 2.03 5.85 4.33 2.03 2.15 2.85 4.04 3.16 4.75l.07.16c.91 2.25.89 4.39.88 5.41v.28c0 .02-.01 2.34-.94 5.46-1 2.84-2.47 4.65-3.66 6.11l-.09.11c-1.07 1.32-1.96 2.09-3.43 3.38l-.42.37c-1.14 1.01-2.13 2.15-3.09 3.26-2.48 2.84-4.63 5.31-8.72 5.31z" fill="#754C24"/><path d="M116.66 23.22c.72 0 1.3.11 1.74.32.08.04.16.07.25.11.03.01 3.32 1.53 2.01 5.66-.67 1.51-1.26 2.46-2 3.65-.97 1.56-2.07 3.33-3.58 6.71-.47 1.06-.89 2.12-1.1 2.76-1.12 2.9-1.58 5.15-1.86 6.49a9.1 9.1 0 0 1-.12.57c-.01.04-.02.08-.03.13l-.14.81c-1.21 6.77-1.94 10.85-4.41 13.29-.04.04-.08.08-.12.13-.12.13-.66.63-1.5 1.15-1.94 1.22-3.89 1.38-5.36 1.38-.42 0-.81-.01-1.16-.03-.34-.01-.64-.02-.9-.02-2.78 0-3.64 1.54-3.91 2.5-.75 2.63 1.69 3.98 3.01 4.71 1.38.76 3.45 1.92 5.49 4.05 1.86 1.97 2.6 3.68 2.88 4.32l.05.1c.8 2.01.78 3.86.77 4.86v.3c0 .02-.02 2.13-.86 4.96-.93 2.62-2.25 4.24-3.41 5.66l-.08.1c-1 1.22-1.8 1.93-3.26 3.21l-.42.37c-1.21 1.07-2.23 2.25-3.22 3.39-2.6 2.99-4.36 4.83-7.59 4.83-.46 0-.95-.04-1.46-.11-7.48-1.08-15.97-17.83-17.16-21.21a3 3 0 0 0-2.86-2.1c-.1 0-.2 0-.3.01-.92.09-1.71.59-2.2 1.32a2.993 2.993 0 0 0-2.2-1.32c-.1-.01-.2-.01-.3-.01a3 3 0 0 0-2.86 2.1c-1.18 3.38-9.68 20.13-17.16 21.21-.51.07-1 .11-1.46.11-3.23 0-4.99-1.83-7.59-4.83-.99-1.14-2.02-2.32-3.24-3.4l-.41-.36c-1.46-1.28-2.27-1.98-3.26-3.21l-.08-.1c-1.16-1.43-2.48-3.04-3.41-5.66-.84-2.83-.86-4.94-.86-4.96v-.3c-.01-1-.03-2.85.77-4.86l.05-.1c.28-.64 1.02-2.36 2.87-4.31 2.04-2.14 4.12-3.29 5.5-4.06 1.32-.73 3.76-2.09 3.01-4.71-.27-.96-1.13-2.5-3.91-2.5-.26 0-.57.01-.9.02-.34.01-.73.03-1.16.03-1.48 0-3.42-.16-5.38-1.39a8.594 8.594 0 0 1-1.48-1.13.8.8 0 0 0-.13-.13c-2.47-2.44-3.2-6.53-4.41-13.29l-.14-.81c-.01-.04-.02-.08-.03-.13a9.1 9.1 0 0 1-.12-.57c-.28-1.35-.74-3.59-1.86-6.49-.21-.65-.63-1.71-1.1-2.76-1.51-3.37-2.61-5.14-3.58-6.71-.74-1.19-1.33-2.14-2-3.65-1.31-4.13 1.98-5.65 2.01-5.66.09-.03.17-.07.25-.11.43-.21 1.02-.32 1.74-.32 8.63 0 27.15 13.78 33.97 21 3.37 3.53 8.45 9.53 13.53 18.11.55.93 1.54 1.47 2.58 1.47.26 0 .53-.03.79-.11.89-.24 1.6-.88 1.96-1.69a3.02 3.02 0 0 0 2.75 1.8c1.04 0 2.03-.54 2.58-1.47 5.08-8.58 10.16-14.58 13.54-18.12 6.79-7.22 25.31-21 33.94-21M63.83 52.67c.09.02.19.05.31.08l.24.06c.01.01.02.01.03.02.35.26.55.81.55 1.52 0 .75-.3 1.27-.56 1.49-.22.19-.41.4-.57.64-.16-.24-.35-.45-.57-.64-.26-.22-.56-.73-.56-1.49 0-.71.2-1.26.55-1.52.01-.01.02-.01.03-.02l.25-.06c.11-.03.21-.06.3-.08m52.83-32.45c-10.1 0-29.6 15-36.14 21.93-4.02 4.21-9.04 10.38-13.94 18.65 0-.98-.13-1.82-.25-2.66 1-.84 1.63-2.24 1.63-3.79 0-1.68-.63-3.09-1.76-3.93.34-6.77 2.63-12.82 6.06-17.09-.34-.25-.68-.51-1-.79-3.5 4.39-5.85 10.48-6.32 17.31-.41-.11-.74-.21-1.12-.25-.37.04-.71.13-1.12.25-.47-6.87-2.85-13-6.39-17.39-.3.31-.6.61-.91.91 3.42 4.26 5.7 10.28 6.04 17.04-1.13.84-1.76 2.24-1.76 3.93 0 1.54.63 2.94 1.63 3.79-.13.84-.25 1.68-.25 2.66-4.9-8.27-9.92-14.44-13.94-18.65-6.54-6.93-26.04-21.93-36.14-21.93-1.15 0-2.17.19-3.04.61-1.51.56-5.72 3.7-3.77 9.54C5.89 34.28 7.21 35 9.85 40.89c.5 1.12.88 2.1 1 2.52 1.26 3.23 1.63 5.61 1.88 6.73 1.38 7.71 2.13 12.48 5.4 15.71.25.28 1 .98 2.13 1.68 2.54 1.6 5.07 1.84 6.96 1.84.83 0 1.54-.05 2.06-.05.59 0 .96.06 1.02.31.25.84-3.77 1.68-7.79 5.89-2.39 2.52-3.27 4.77-3.52 5.33-1.13 2.8-1 5.33-1 6.31 0 .56.13 2.95 1 5.89 1.13 3.23 2.76 5.19 4.02 6.73s2.26 2.38 4.02 3.93c3.91 3.47 6.27 8.98 12.81 8.98.59 0 1.22-.05 1.89-.14 10.17-1.47 19.21-22.02 19.59-23.28.54 5.91 1.45 10.15 2.5 11.23 1.04-1.07 1.96-5.31 2.5-11.23.38 1.26 9.42 21.81 19.59 23.28.67.1 1.29.14 1.89.14 6.54 0 8.89-5.5 12.81-8.98 1.76-1.54 2.76-2.38 4.02-3.93 1.26-1.54 2.89-3.51 4.02-6.73.88-2.94 1-5.33 1-5.89 0-.98.13-3.51-1-6.31-.25-.56-1.13-2.8-3.52-5.33-4.02-4.21-8.04-5.05-7.79-5.89.06-.25.43-.31 1.02-.31.53 0 1.23.05 2.06.05 1.89 0 4.43-.24 6.96-1.84 1.13-.7 1.88-1.4 2.13-1.68 3.27-3.23 4.02-7.99 5.4-15.71.25-1.12.63-3.51 1.88-6.73.13-.42.5-1.4 1-2.52 2.64-5.89 3.96-6.61 5.65-10.52 1.95-5.84-2.26-8.98-3.77-9.54-.84-.41-1.87-.61-3.01-.61z" fill="#472A0E"/><g fill="#f90"><path d="M60.02 61.81s-5.15-4.64-8.63-8.41c-3.47-3.77-10.1-9.98-14.95-10.38-4.85-.41-2.07 5.44 2.74 9.57s17.28 10.78 18.99 10.76c1.71-.04 3.11-.39 1.85-1.54zM30.59 45.65c-.39-.85-1.08-1.48-1.79-2-1.44-1.05-3.05-1.8-4.72-2.18-1.06-.24-2.18-.33-3.21.02-1.04.35-1.99 1.21-2.32 2.4-.1.37-.14.77-.03 1.13.19.63.75.99 1.28 1.25 1.52.72 3.17 1.02 4.8 1.31 1.65.29 3.32.73 4.99.89.85.08.92.22 1.21-.74.2-.67.07-1.47-.21-2.08zM25.33 52.01c.95-.62 2.14-.49 3.22-.28 2.66.52 5.26 1.42 7.71 2.69.21.11.45.28.44.54-.01.2-.19.34-.35.43-.81.48-1.74.64-2.65.74-2.76.31-5.57.13-8.28-.51-.71-.17-1.73-.42-1.63-1.42.08-.81.95-1.81 1.54-2.19zM26.29 60.91c.6-.66 1.51-.76 2.35-.81 2.54-.15 5.09-.12 7.63.1.38.03.78.07 1.15-.02.52-.12.98-.45 1.49-.6 1.73-.49 3.95 1.28 5.47 2.03 1.91.94 3.87 2.21 5.87 2.89 1.12.38-.06 1.02-.82 1.11-1.62.19-3.25.48-4.88.43-3.19-.1-6.27-1.35-9.47-1.33-.96.01-1.92.12-2.88.24l-3.95.48c-1.08.13-2.06.28-2.41-1.03-.28-1.09-.34-2.63.45-3.49zM33.34 71.45a55.577 55.577 0 0 1 22.86.65c.49.12 1.01.26 1.36.66s.44 1.14.04 1.48c-.25.21-.59.21-.9.2-5.41-.22-10.83.18-16.16 1.21-2.6.5-6.72 1.89-9.19.32-.86-.54-1.49-1.64-1.07-2.73.48-1.28 1.98-1.59 3.06-1.79zM23.15 85.81c.25-.51.69-.87 1.13-1.2 1.56-1.17 3.27-2.08 5.07-2.71.73-.26 1.5-.47 2.26-.34.76.12 1.51.65 1.75 1.46.21.7 0 1.47-.2 2.17-.4 1.35-.82 2.7-1.47 3.92s-1.58 2.29-2.75 2.85c-.57.27-1.22.42-1.8.19-1.04-.41-1.86-1.85-2.76-2.57-1.03-.82-1.93-2.35-1.23-3.77zM36.43 89.9c.64-.5 1.38-.94 2.16-.91.12 0 .24.02.33.11.08.08.11.2.13.32.29 1.63-.36 3.26-.99 4.76-.73 1.74-1.47 3.47-2.36 5.12-.32.6-.69 1.2-1.25 1.52-1.04.59-2.51-.06-3.18-1.07-.64-.98-.36-2.02.09-3.02 1.14-2.58 2.96-5.17 5.07-6.83zM45.47 93.42c3.16-3.04 6.82-5.37 10.08-8.27 1.29-1.15 2.64-2.45 4.29-2.58.11.41-.1.84-.31 1.2a548.97 548.97 0 0 1-11.02 18.63c-.78 1.26-1.59 2.54-2.71 3.41-.87.67-1.9 1.06-2.92 1.37-1.18.36-3.12.66-3.78-.87-.49-1.14.17-2.86.51-3.94 1.12-3.55 3.34-6.52 5.86-8.95zM45.5 78.88c3.57-1.77 7.52-2.31 11.41-2.82.45-.06.91-.12 1.34.03s.82.56.83 1.06c.01.43-.25.8-.51 1.12-2.63 3.27-6.23 5.23-9.86 6.73-1.75.72-3.95 1.95-5.83 2.03-1.65.06-2.64-1.52-2.2-3.26.58-2.38 2.93-3.95 4.82-4.89zM17.1 33.47c-2.01-.32-4.11-.68-5.72-2.06-.45-.38-.87-.93-.82-1.55.07-.86.96-1.3 1.73-1.42 1.99-.3 3.99.34 5.85 1.18 1.04.47 3.39 1.71 3.14 3.39-.24 1.66-3.25.6-4.18.46z"/></g><g fill="#f90"><path d="M68.42 61.81s5.15-4.64 8.63-8.41c3.47-3.77 10.1-9.98 14.95-10.38 4.85-.41 2.07 5.44-2.74 9.57-4.81 4.12-17.28 10.78-18.99 10.76-1.71-.04-3.11-.39-1.85-1.54zM97.85 45.65c.39-.85 1.08-1.48 1.79-2 1.44-1.05 3.05-1.8 4.72-2.18 1.06-.24 2.18-.33 3.21.02s1.99 1.21 2.32 2.4c.1.37.14.77.03 1.13-.19.63-.75.99-1.28 1.25-1.52.72-3.17 1.02-4.8 1.31-1.65.29-3.32.73-4.99.89-.85.08-.92.22-1.21-.74-.19-.67-.07-1.47.21-2.08zM103.11 52.01c-.95-.62-2.14-.49-3.22-.28a28.74 28.74 0 0 0-7.71 2.69c-.21.11-.45.28-.44.54.01.2.19.34.35.43.81.48 1.74.64 2.65.74 2.76.31 5.57.13 8.28-.51.71-.17 1.73-.42 1.63-1.42-.07-.81-.94-1.81-1.54-2.19zM102.15 60.91c-.6-.66-1.51-.76-2.35-.81a52.53 52.53 0 0 0-7.63.1c-.38.03-.78.07-1.15-.02-.52-.12-.98-.45-1.49-.6-1.73-.49-3.95 1.28-5.47 2.03-1.91.94-3.87 2.21-5.87 2.89-1.12.38.06 1.02.82 1.11 1.62.19 3.25.48 4.88.43 3.19-.1 6.27-1.35 9.47-1.33.96.01 1.92.12 2.88.24l3.95.48c1.08.13 2.06.28 2.41-1.03.29-1.09.34-2.63-.45-3.49zM95.1 71.45a55.577 55.577 0 0 0-22.86.65c-.49.12-1.01.26-1.36.66s-.44 1.14-.04 1.48c.25.21.59.21.9.2 5.41-.22 10.83.18 16.16 1.21 2.6.5 6.72 1.89 9.19.32.86-.54 1.49-1.64 1.07-2.73-.47-1.28-1.98-1.59-3.06-1.79zM105.29 85.81c-.25-.51-.69-.87-1.13-1.2a18.802 18.802 0 0 0-5.07-2.71c-.73-.26-1.5-.47-2.26-.34s-1.51.65-1.75 1.46c-.21.7 0 1.47.2 2.17.4 1.35.82 2.7 1.47 3.92s1.58 2.29 2.75 2.85c.57.27 1.22.42 1.8.19 1.04-.41 1.86-1.85 2.76-2.57 1.03-.82 1.93-2.35 1.23-3.77zM92.01 89.9c-.64-.5-1.38-.94-2.16-.91-.12 0-.24.02-.33.11-.08.08-.11.2-.13.32-.29 1.63.36 3.26.99 4.76.73 1.74 1.47 3.47 2.36 5.12.32.6.69 1.2 1.25 1.52 1.04.59 2.51-.06 3.18-1.07.64-.98.36-2.02-.09-3.02-1.14-2.58-2.96-5.17-5.07-6.83zM82.97 93.42c-3.16-3.04-6.82-5.37-10.08-8.27-1.29-1.15-2.65-2.45-4.29-2.58-.11.41.1.84.31 1.2a548.97 548.97 0 0 0 11.02 18.63c.78 1.26 1.59 2.54 2.71 3.41.87.67 1.9 1.06 2.92 1.37 1.18.36 3.12.66 3.78-.87.49-1.14-.17-2.86-.51-3.94-1.12-3.55-3.34-6.52-5.86-8.95zM82.94 78.88c-3.57-1.77-7.52-2.31-11.41-2.82-.45-.06-.91-.12-1.34.03s-.82.56-.83 1.06c-.01.43.25.8.51 1.12 2.63 3.27 6.23 5.23 9.86 6.73 1.75.72 3.95 1.95 5.83 2.03 1.65.06 2.64-1.52 2.2-3.26-.58-2.38-2.93-3.95-4.82-4.89zM111.34 33.47c2.01-.32 4.11-.68 5.72-2.06.45-.38.87-.93.82-1.55-.07-.86-.96-1.3-1.73-1.42-1.99-.3-3.99.34-5.85 1.18-1.04.47-3.39 1.71-3.14 3.39.24 1.66 3.25.6 4.18.46z"/></g><ellipse cx="63.92" cy="52.41" rx="4.5" ry="5.2" fill="#754C24"/><path d="M63.92 48.71c1.65 0 3 1.66 3 3.7s-1.35 3.7-3 3.7-3-1.66-3-3.7 1.34-3.7 3-3.7m0-3c-3.31 0-6 3-6 6.7s2.69 6.7 6 6.7 6-3 6-6.7-2.69-6.7-6-6.7z" fill="#472A0E"/><ellipse cx="55.42" cy="32.72" rx="1.89" ry="2.29" fill="#754C24"/><path d="M55.42 31.94c.1 0 .39.28.39.79s-.29.79-.39.79-.39-.28-.39-.79.29-.79.39-.79m0-3c-1.87 0-3.39 1.7-3.39 3.79s1.52 3.79 3.39 3.79 3.39-1.7 3.39-3.79-1.52-3.79-3.39-3.79z" fill="#472A0E"/><ellipse cx="71.42" cy="32.72" rx="1.89" ry="2.29" fill="#754C24"/><path d="M71.42 31.94c.1 0 .39.28.39.79s-.29.79-.39.79-.39-.28-.39-.79.29-.79.39-.79m0-3c-1.87 0-3.39 1.7-3.39 3.79s1.52 3.79 3.39 3.79 3.39-1.7 3.39-3.79-1.52-3.79-3.39-3.79z" fill="#472A0E"/></svg>