<svg viewBox="0 0 128 128" xmlns="http://www.w3.org/2000/svg" xmlns:xlink="http://www.w3.org/1999/xlink"><linearGradient id="a" x1="89.202" x2="89.202" y1="64.866" y2="107.69" gradientTransform="matrix(-1 0 0 1 179.18 0)" gradientUnits="userSpaceOnUse"><stop stop-color="#FFD29C" offset="0"/><stop stop-color="#FFD39E" offset=".024"/><stop stop-color="#FCD8AF" offset=".316"/><stop stop-color="#FADCBA" offset=".629"/><stop stop-color="#F9DDBD" offset="1"/></linearGradient><path d="M83.69 92.16a10.596 10.596 0 0 1-3.19-6.17l-2.82-19.91 8.48-1.21c.28 3.58 1.57 19.43 2.66 21.63 1.09 2.21 11.75 14.48 13.45 16.44l-2.19 4.75-16.39-15.53z" fill="url(#a)"/><path d="M85.7 65.44c.39 4.88 1.59 19.1 2.67 21.28 1.09 2.2 10.88 13.51 13.31 16.3l-1.76 3.82L84.03 91.8a10.085 10.085 0 0 1-3.04-5.88L78.24 66.5l7.46-1.06m.92-1.14l-9.5 1.36 2.89 20.4c.35 2.47 1.53 4.75 3.34 6.47l16.89 16.01 2.62-5.68S90.41 88.61 89.27 86.29c-1.15-2.34-2.65-21.99-2.65-21.99z" fill="#EDBD82"/><linearGradient id="b" x1="37.577" x2="37.577" y1="64.866" y2="107.69" gradientUnits="userSpaceOnUse"><stop stop-color="#FFD29C" offset="0"/><stop stop-color="#FFD39E" offset=".024"/><stop stop-color="#FCD8AF" offset=".316"/><stop stop-color="#FADCBA" offset=".629"/><stop stop-color="#F9DDBD" offset="1"/></linearGradient><path d="M25.28 102.93c1.71-1.96 12.36-14.23 13.45-16.44 1.08-2.2 2.38-18.05 2.66-21.63l8.48 1.21-2.82 19.91c-.33 2.35-1.47 4.54-3.19 6.17l-16.39 15.53-2.19-4.75z" fill="url(#b)"/><path d="M41.85 65.44l7.46 1.07-2.75 19.41c-.32 2.24-1.4 4.33-3.04 5.88l-15.88 15.05-1.76-3.82c2.43-2.79 12.22-14.1 13.31-16.3 1.07-2.19 2.27-16.42 2.66-21.29m-.91-1.14s-1.5 19.66-2.65 21.98-13.59 16.57-13.59 16.57l2.62 5.68L44.2 92.52c1.81-1.72 2.99-4 3.34-6.47l2.89-20.4-9.49-1.35z" fill="#EDBD82"/><path d="M49.27 97.9V70.94c0-.26-.2-.48-.46-.5l-8.51-.75.78-8.81c.01-.11 1.59-11.17 23.13-11.17 21.46 0 22.69 11.06 22.7 11.17l.78 8.81-8.22.73c-.26.02-.46.24-.46.5V97.9H49.27z" fill="#00AF98"/><path d="M64.22 50.21c21.01 0 22.19 10.6 22.2 10.71l.74 8.32-7.72.68a1 1 0 0 0-.91 1V97.4H49.77V70.94c0-.52-.4-.95-.91-1l-8.01-.71.74-8.32c0-.1 1.53-10.7 22.63-10.7m0-1c-20.81 0-23.5 10.15-23.63 11.62l-.82 9.31 9.01.8V98.4h30.75V70.91l8.71-.77-.82-9.31c-.12-1.27-2.39-11.62-23.2-11.62z" fill="#009984"/><linearGradient id="c" x1="51.35" x2="51.35" y1="123.84" y2="100.89" gradientUnits="userSpaceOnUse"><stop stop-color="#FFD29C" offset="0"/><stop stop-color="#FFD39E" offset=".024"/><stop stop-color="#FCD8AF" offset=".316"/><stop stop-color="#FADCBA" offset=".629"/><stop stop-color="#F9DDBD" offset="1"/></linearGradient><path d="M30.68 123.84c-4.16 0-7.94-.81-10.14-2.17-2.17-1.34-4-3.97-3.31-6.03.9-2.71 3.63-5.48 6.94-7.05 8.82-4.19 22.23-7.05 22.36-7.08 1.88-.42 3.63-.62 5.23-.62 1.97 0 3.72.32 5.2.96 2.29.98 8.76 3.06 15.02 5.07 5.07 1.63 11.13 3.58 13.63 4.55-5.77 1.09-11.01 2.64-16.53 4.28-8.71 2.59-18.59 5.52-33.88 7.77-1.47.21-2.99.32-4.52.32z" fill="url(#c)"/><path d="M51.76 101.38c1.9 0 3.59.31 5.01.91 2.31.99 8.79 3.07 15.06 5.09 4.15 1.33 8.99 2.89 11.94 3.93-5.12 1.06-9.86 2.47-14.83 3.95-8.7 2.58-18.55 5.51-33.81 7.75-1.45.21-2.94.32-4.44.32-4.07 0-7.76-.78-9.87-2.09-2-1.24-3.71-3.62-3.1-5.44.86-2.59 3.48-5.24 6.68-6.76 8.77-4.17 22.12-7.01 22.26-7.05 1.82-.4 3.54-.61 5.1-.61m0-1c-1.68 0-3.47.22-5.33.64 0 0-13.5 2.85-22.48 7.12-3.7 1.76-6.32 4.7-7.2 7.35-.8 2.39 1.23 5.19 3.53 6.61 2.27 1.41 6.18 2.24 10.4 2.24 1.51 0 3.06-.11 4.59-.33 26-3.82 36.46-9.64 51.74-12.29 1.8-.31-24.71-8.13-29.85-10.34-1.6-.68-3.42-1-5.4-1z" fill="#EDBD82"/><path d="M97.17 123.8c-1.49 0-2.99-.1-4.45-.29-10.39-1.38-23.92-5.6-34.46-10.73-3.99-1.94-7.67-4.2-10.35-5.85-1.08-.66-2.03-1.25-2.81-1.7-1.78-1.03-3.2-1.62-5.16-1.62-.36 0-.73.02-1.12.06l-.61.07c-.41.05-.68.08-1.01.08-.08 0-.17 0-.26-.01-.09 0-.15-.02-.16-.04-.12-.21.12-.97.41-1.48.53-1.22 2.03-2.49 3.57-2.49.32 0 .64.06.94.17 2.13.77 4.72 2.32 4.75 2.33.03.02.07.04.11.05 1.01.31 1.9.47 2.72.47 1.29 0 2.14-.38 2.88-.72.55-.25 1.02-.46 1.59-.46.3 0 .62.06.98.19 1.27.44 1.48 2.11 1.51 2.81.06 1.38 1.91 2.5 3.16 2.67 0 0 10.35 1.23 10.37 1.23.1 0 .2-.03.29-.09l11.04-7.84c1.96.66 15.29 5.23 22.87 8.73 3.58 1.65 5.91 3.84 6.74 6.31.69 2.06-1.14 4.68-3.31 6.03-2.19 1.33-6 2.12-10.23 2.12z" fill="#FADCB9"/><path d="M40.74 100.31c.26 0 .53.05.77.14 2.08.75 4.64 2.28 4.66 2.29.07.04.14.07.22.1 1.06.33 2 .49 2.86.49 1.4 0 2.34-.42 3.09-.77.54-.24.92-.42 1.38-.42.25 0 .51.05.82.16 1.01.35 1.16 1.89 1.18 2.36.08 1.66 2.14 2.95 3.61 3.15l10.3 1.23c.04 0 .08.01.12.01.21 0 .41-.06.58-.18l10.83-7.69c2.62.89 15.28 5.26 22.58 8.63 3.45 1.59 5.69 3.68 6.47 6.02.61 1.83-1.1 4.2-3.1 5.44-2.08 1.29-5.8 2.06-9.94 2.06-1.47 0-2.95-.1-4.39-.29-10.34-1.38-23.81-5.57-34.31-10.69-3.96-1.93-7.63-4.18-10.3-5.82-1.09-.67-2.03-1.25-2.83-1.71-1.81-1.04-3.35-1.69-5.41-1.69-.38 0-.77.02-1.18.07-.24.03-.44.05-.61.07-.36.04-.6.07-.85.08.07-.23.19-.54.32-.78.02-.03.03-.06.04-.09.45-1.07 1.8-2.17 3.09-2.17m0-1c-1.8 0-3.44 1.45-4 2.74 0 0-1.22 2.2.17 2.26.1 0 .19.01.28.01.5 0 .85-.07 1.68-.15.38-.04.73-.06 1.07-.06 1.88 0 3.25.6 4.91 1.56 2.79 1.61 7.62 4.85 13.19 7.57 9.81 4.78 23.5 9.3 34.61 10.78 1.51.2 3.03.3 4.52.3 4.25 0 8.18-.79 10.47-2.21 2.3-1.42 4.32-4.23 3.53-6.61-.88-2.64-3.28-4.89-7-6.61-8.28-3.82-23.16-8.83-23.16-8.83l-11.25 7.99-10.3-1.23c-1.06-.14-2.68-1.13-2.73-2.2-.05-.98-.38-2.74-1.85-3.25-.43-.15-.81-.21-1.15-.21-1.49 0-2.3 1.18-4.47 1.18-.69 0-1.53-.12-2.57-.44 0 0-2.64-1.58-4.84-2.38-.37-.15-.75-.21-1.11-.21z" fill="#EDBD82"/><linearGradient id="d" x1="64.206" x2="64.206" y1="98.193" y2="112.38" gradientUnits="userSpaceOnUse"><stop stop-color="#FB8C00" offset=".171"/><stop stop-color="#F67F00" offset=".563"/><stop stop-color="#EF6C00" offset=".983"/></linearGradient><path d="M42.58 103.12l6.45-3.84c.15-.09.24-.25.24-.43v-2.69c1.66.51 6.38 1.65 15.14 1.65 8.66 0 13.05-1.12 14.62-1.64l.12 2.7c.01.17.1.32.24.41l6.44 3.84-21.73 9.82-21.52-9.82z" fill="url(#d)"/><path d="M49.77 96.82c2.12.57 6.78 1.49 14.64 1.49 7.74 0 12.13-.9 14.14-1.48l.09 2.05c.01.34.2.64.49.82l5.62 3.35-20.65 9.33-20.45-9.33 5.63-3.36c.3-.18.49-.51.49-.86v-2.01m-1-1.36v3.39l-7.27 4.33 22.6 10.31 22.81-10.31-7.27-4.33-.15-3.38s-4.05 1.85-15.09 1.85c-11.02-.01-15.63-1.86-15.63-1.86z" fill="#DB6300"/><path d="M55.95 109.72l4.43-.52 8.57-1.2c1.24-.17 3.09-1.29 3.16-2.67.03-.7.25-2.36 1.51-2.81.36-.12.68-.18.98-.18.56 0 1.04.21 1.59.46.74.34 1.59.72 2.88.72.82 0 1.7-.15 2.72-.47.04-.01.08-.03.11-.05s2.62-1.57 4.75-2.33c.3-.11.62-.17.94-.17 1.54 0 3.03 1.27 3.54 2.44.34.62.53 1.33.43 1.52-.01.02-.07.04-.16.04s-.18.01-.26.01c-.34 0-.6-.03-1.01-.08l-.61-.07c-.4-.04-.77-.06-1.13-.06-1.96 0-3.37.59-5.16 1.62-.86.5-1.72 1.04-2.65 1.63-2.15 1.36-4.59 2.9-8.43 4.77-2.2 1.07-5.29 2.38-6.13 2.73l-10.07-5.33z" fill="#FADCB9"/><path d="M87.59 101.02c1.29 0 2.64 1.11 3.09 2.14.01.03.03.06.04.08.13.25.26.55.32.78-.25-.01-.49-.03-.85-.08-.18-.02-.38-.04-.61-.07-.41-.04-.8-.07-1.18-.07-2.06 0-3.6.65-5.41 1.69-.87.5-1.74 1.05-2.67 1.64-2.14 1.35-4.57 2.88-8.39 4.75-2.03.99-4.83 2.18-5.89 2.63l-8.44-4.48 2.86-.34 8.56-1.19c1.45-.2 3.51-1.49 3.59-3.14.02-.46.17-2.01 1.18-2.36.3-.11.57-.16.82-.16.46 0 .84.18 1.38.42.75.34 1.68.77 3.09.77.87 0 1.8-.16 2.86-.49.08-.02.15-.06.22-.1.03-.02 2.58-1.54 4.66-2.29.25-.09.51-.13.77-.13m0-1c-.37 0-.74.06-1.11.19-2.2.79-4.84 2.38-4.84 2.38-1.04.32-1.87.44-2.57.44-2.17 0-2.98-1.18-4.47-1.18-.34 0-.71.06-1.15.21-1.47.51-1.8 2.27-1.85 3.25-.05 1.07-1.66 2.06-2.73 2.2l-8.56 1.19-6.02.71 11.69 6.2s3.78-1.57 6.38-2.83c5.57-2.72 8.32-4.81 11.12-6.41 1.66-.96 3.03-1.56 4.91-1.56.34 0 .69.02 1.07.06.82.09 1.18.15 1.68.15.09 0 .18 0 .28-.01 1.38-.06.17-2.26.17-2.26-.56-1.28-2.2-2.73-4-2.73z" fill="#EDBD82"/><path d="M32.98 114.02c.35-2.13 3.31-3.49 4.96-3.72 9.03-1.24 15.41-.89 15.41-.89" fill="none" stroke="#EDBD82" stroke-linecap="round" stroke-linejoin="round" stroke-miterlimit="10"/><path d="M103.59 108.47H78.87s4.45-4.25 7.48-4.66c3.03-.4 5.72.23 5.72.23l11.52 4.43z" fill="#F9DDBC" opacity=".2"/><path d="M29.92 105.17l-3-2.17s-.02-.09-.35-.5c-1.38-1.66-3.95-.77-5.66-1.43-1.7-.66-1.79-3.81-4.35-3.58-.94.09.16 3.48.16 3.48s-.48 5.83 2.92 7.32c4.83 2.11 8.6-.97 8.6-.97l1.68-2.15z" fill="#FBDAB4"/><defs><path id="e" d="M30.86 104l-.39-.26-1.62.93-3.29-1.02s1.08-1.04 1-1.14c-1.38-1.66-3.95-.77-5.66-1.43-1.7-.66-1.79-3.81-4.35-3.58-.94.09.16 3.48.16 3.48s-.48 5.83 2.92 7.32c4.83 2.11 8.6-.97 8.6-.97l2.63-3.33z"/></defs><clipPath id="f"><use xlink:href="#e"/></clipPath><g clip-path="url(#f)"><path d="M17.18 98.54c.48.14.79.57 1.32 1.41.49.78 1.04 1.67 2.04 2.06.8.31 1.68.34 2.53.37 1.34.05 2.19.12 2.72.76.21.25.52.4.85.4.38 0 .93 0 3.02-2.67l2.15 1.94-4.07 4c-.32.21-2.04 1.27-4.43 1.27-1.11 0-2.22-.23-3.28-.7-2.25-.98-2.44-4.9-2.33-6.32.01-.13 0-.26-.04-.39-.24-.75-.43-1.6-.48-2.13m-.36-1.05c-.09 0-.17 0-.26.01-.94.09.16 3.48.16 3.48s-.48 5.83 2.92 7.32c1.31.57 2.56.78 3.68.78 2.99 0 5.07-1.49 5.07-1.49l4.9-4.81-3.75-3.38s-2.34 3.14-2.88 3.14c-.03 0-.06-.01-.08-.03-1.38-1.66-3.95-.77-5.66-1.43-1.66-.64-1.8-3.59-4.1-3.59z" fill="#EDBD82"/></g><linearGradient id="g" x1="12.324" x2="29.635" y1="104.17" y2="104.17" gradientUnits="userSpaceOnUse"><stop stop-color="#FFD29C" offset="0"/><stop stop-color="#FFD39E" offset=".024"/><stop stop-color="#FCD8AF" offset=".316"/><stop stop-color="#FADCBA" offset=".629"/><stop stop-color="#F9DDBD" offset="1"/></linearGradient><path d="M15.46 106.06l.47-4.21-.08-4.04s1.58.09 1.99 1.32c.38 1.14.28 2.81.28 2.81.76.25 1.51.22 1.68 1.18l.2 2.26s.81-.39 1.38-.06c1.05.61 2.19 2.54 2.19 2.54s.35-1.58 2.19-2.54 3.86.18 3.86.18l-5.97 4.65-1.21-.12c-.8.47-1.76.62-2.66.41-.71-.17-1.35-.56-1.83-1.11l-.36-.42-.54.21c-.88.06-1.84-.45-2.37-1.09l-2.38-2.99.06-4.66s1.13.39 1.63 1.44l.09 2.54c.6.88 3.48 4.58 3.48 4.58" fill="url(#g)" stroke="#EDBD82" stroke-linecap="round" stroke-linejoin="round" stroke-miterlimit="10"/><path fill="none" stroke="#EDBD82" stroke-linecap="round" stroke-linejoin="round" stroke-miterlimit="10" stroke-width=".7" d="M18.06 102.02l-.1 4.2 3.01 4.07M19.92 104.85l.06 1.26 2.86 3.75"/><linearGradient id="h" x1="36.734" x2="110.83" y1="111.8" y2="111.8" gradientUnits="userSpaceOnUse"><stop stop-color="#FFD29C" offset="0"/><stop stop-color="#FFD39E" offset=".024"/><stop stop-color="#FCD8AF" offset=".316"/><stop stop-color="#FADCBA" offset=".629"/><stop stop-color="#F9DDBD" offset="1"/></linearGradient><path d="M97.17 123.8c-1.49 0-2.99-.1-4.45-.29-10.39-1.38-23.92-5.6-34.46-10.73-3.99-1.94-7.67-4.2-10.35-5.85-1.08-.66-2.03-1.25-2.81-1.7-1.78-1.03-3.2-1.62-5.16-1.62-.36 0-.73.02-1.12.06l-.61.07c-.41.05-.68.08-1.01.08-.08 0-.17 0-.26-.01-.09 0-.15-.02-.16-.04-.12-.21.12-.97.41-1.48.53-1.22 2.03-2.49 3.57-2.49.32 0 .64.06.94.17 2.13.77 4.72 2.32 4.75 2.33.03.02.07.04.11.05 1.01.31 1.9.47 2.72.47 1.29 0 2.14-.38 2.88-.72.55-.25 1.02-.46 1.59-.46.3 0 .62.06.98.19 1.27.44 1.48 2.11 1.51 2.81.06 1.38 1.91 2.5 3.16 2.67.29.05 7.7 1.38 11.51 1.38 3.74 0 7.07-.5 10.29-.98 2.93-.44 5.7-.85 8.53-.85 1.02 0 1.97.05 2.92.16 6.78.77 12.54 3.26 17.59 7.6.2.39.35.72.45 1.04.69 2.06-1.14 4.68-3.31 6.03-2.17 1.32-5.98 2.11-10.21 2.11z" fill="url(#h)"/><path d="M40.74 100.31c.26 0 .53.05.77.14 2.08.75 4.64 2.28 4.66 2.29.07.04.14.07.22.1 1.06.33 2 .49 2.86.49 1.4 0 2.34-.42 3.09-.77.54-.24.92-.42 1.38-.42.25 0 .51.05.82.16 1.01.35 1.16 1.89 1.18 2.36.08 1.66 2.14 2.95 3.55 3.14.32.06 7.76 1.39 11.62 1.39 3.78 0 7.13-.5 10.37-.99 2.91-.44 5.66-.85 8.46-.85 1 0 1.94.05 2.86.16 6.65.76 12.29 3.19 17.25 7.42.17.33.29.61.38.88.61 1.83-1.1 4.2-3.1 5.44-2.08 1.29-5.8 2.06-9.94 2.06-1.47 0-2.95-.1-4.39-.29-10.34-1.38-23.81-5.57-34.31-10.69-3.96-1.93-7.63-4.18-10.3-5.82-1.09-.67-2.03-1.25-2.83-1.71-1.81-1.04-3.35-1.69-5.41-1.69-.38 0-.77.02-1.18.07-.24.03-.44.05-.61.07-.36.04-.59.07-.85.08.07-.23.19-.54.32-.78.02-.03.03-.06.04-.09.45-1.05 1.8-2.15 3.09-2.15m0-1c-1.8 0-3.44 1.45-4 2.74 0 0-1.22 2.2.17 2.26.1 0 .19.01.28.01.5 0 .85-.07 1.68-.15.38-.04.73-.06 1.07-.06 1.88 0 3.25.6 4.91 1.56 2.79 1.61 7.62 4.85 13.19 7.57 9.81 4.78 23.5 9.3 34.61 10.78 1.51.2 3.03.3 4.52.3 4.25 0 8.18-.79 10.47-2.21 2.3-1.42 4.32-4.23 3.53-6.61-.14-.41-.32-.81-.53-1.2-6.25-5.4-12.69-7.18-17.93-7.78-1-.11-1.99-.16-2.98-.16-5.99 0-11.72 1.83-18.83 1.83-3.82 0-11.45-1.37-11.45-1.37-1.06-.14-2.68-1.13-2.73-2.2-.05-.98-.38-2.74-1.85-3.25-.43-.15-.81-.21-1.15-.21-1.49 0-2.3 1.18-4.47 1.18-.69 0-1.53-.12-2.57-.44 0 0-2.64-1.58-4.84-2.38-.36-.15-.74-.21-1.1-.21z" fill="#EDBD82"/><linearGradient id="i" x1="72.592" x2="78.816" y1="100.38" y2="109.53" gradientTransform="matrix(-1 0 0 1 179.18 0)" gradientUnits="userSpaceOnUse"><stop stop-color="#FFD29C" offset="0"/><stop stop-color="#FFD39E" offset=".024"/><stop stop-color="#FCD8AF" offset=".316"/><stop stop-color="#FADCBA" offset=".629"/><stop stop-color="#F9DDBD" offset="1"/></linearGradient><path d="M96.69 104l2.63-1.84s1.33.76 1.67.35c1.38-1.66 3.95-.77 5.66-1.43 1.7-.66 1.79-3.81 4.35-3.58.94.09-.16 3.48-.16 3.48s.48 5.83-2.92 7.32c-4.83 2.11-8.6-.97-8.6-.97L96.69 104z" fill="url(#i)"/><defs><path id="j" d="M96.69 104l.39-.26 1.62.93 3.29-1.02s-1.08-1.04-1-1.14c1.38-1.66 3.95-.77 5.66-1.43 1.7-.66 1.79-3.81 4.35-3.58.94.09-.16 3.48-.16 3.48s.48 5.83-2.92 7.32c-4.83 2.11-8.6-.97-8.6-.97L96.69 104z"/></defs><clipPath id="k"><use xlink:href="#j"/></clipPath><g clip-path="url(#k)"><path d="M110.37 98.54c-.05.53-.24 1.38-.48 2.13-.04.12-.06.26-.04.39.11 1.43-.08 5.34-2.33 6.32-1.1.48-2.23.72-3.35.72-2.26 0-3.87-.98-4.16-1.17l-3.46-3.31 2.83-.7c.4.3.93.59 1.44.59.4 0 .75-.16 1-.46.52-.63 1.34-.68 2.64-.7.85-.01 1.74-.03 2.56-.35 1.01-.39 1.56-1.28 2.04-2.06.51-.83.83-1.27 1.31-1.4m.36-1.05c-2.31 0-2.44 2.95-4.09 3.59-1.7.66-4.23-.32-5.6 1.35a.29.29 0 0 1-.23.1c-.45 0-1.19-.68-1.19-.68l-5.08 1.25 4.83 4.62s1.92 1.39 4.79 1.39c1.12 0 2.39-.21 3.75-.81 3.41-1.49 2.92-7.32 2.92-7.32s1.09-3.39.16-3.48c-.08-.01-.17-.01-.26-.01z" fill="#EDBD82"/></g><path d="M112.09 106.06l-.47-4.21.08-4.04s-1.58.09-1.99 1.32c-.38 1.14-.28 2.81-.28 2.81-.76.25-1.51.22-1.68 1.18l-.2 2.26s-.81-.39-1.38-.06c-1.05.61-2.19 2.54-2.19 2.54s-.35-1.58-2.19-2.54c-1.84-.97-3.86.18-3.86.18l5.97 4.65 1.21-.12c.8.47 1.76.62 2.66.41.71-.17 1.35-.56 1.83-1.11l.36-.42.54.21c.88.06 1.84-.45 2.37-1.09l2.38-2.99-.06-4.66s-1.13.39-1.63 1.44l-.09 2.54c-.6.88-3.48 4.58-3.48 4.58" fill="#FADCB9" stroke="#EDBD82" stroke-linecap="round" stroke-linejoin="round" stroke-miterlimit="10"/><path fill="none" stroke="#EDBD82" stroke-linecap="round" stroke-linejoin="round" stroke-miterlimit="10" stroke-width=".7" d="M109.49 102.02l.1 4.2-3.01 4.07M107.63 104.85l-.06 1.26-2.86 3.75"/><path d="M63.57 54.23c-2.08 0-3.77-1.6-3.77-3.58v-4.48h8.4v4.48c0 1.97-1.69 3.58-3.77 3.58h-.86z" fill="#EDC391"/><path d="M67.7 46.68v3.98c0 1.7-1.47 3.08-3.27 3.08h-.85c-1.81 0-3.27-1.38-3.27-3.08v-3.98h7.39m1-1h-9.4v4.98c0 2.25 1.91 4.08 4.27 4.08h.85c2.36 0 4.27-1.83 4.27-4.08v-4.98h.01z" fill="#D9AC77"/><path d="M51.07 37.51c-2.52 0-4.57-2.2-4.57-4.9s2.05-4.9 4.57-4.9h25.86c2.52 0 4.57 2.2 4.57 4.9s-2.05 4.9-4.57 4.9H51.07z" fill="#EDC391"/><path d="M76.93 28.21c2.24 0 4.07 1.97 4.07 4.4s-1.83 4.4-4.07 4.4H51.07c-2.24 0-4.07-1.97-4.07-4.4s1.83-4.4 4.07-4.4h25.86m0-1H51.07c-2.79 0-5.07 2.43-5.07 5.4s2.28 5.4 5.07 5.4h25.87c2.79 0 5.07-2.43 5.07-5.4-.01-2.97-2.29-5.4-5.08-5.4z" fill="#D9AC77"/><linearGradient id="l" x1="64" x2="64" y1="48.075" y2="9.437" gradientUnits="userSpaceOnUse"><stop stop-color="#FFD29C" offset="0"/><stop stop-color="#FFD39E" offset=".024"/><stop stop-color="#FCD8AF" offset=".316"/><stop stop-color="#FADCBA" offset=".629"/><stop stop-color="#F9DDBD" offset="1"/></linearGradient><path d="M64 48.4c-7.4 0-15.36-5.74-15.36-18.34 0-10.09 5.87-20.98 15.36-20.98s15.36 10.89 15.36 20.98c0 12.6-7.96 18.34-15.36 18.34z" fill="url(#l)"/><path d="M64 9.58c3.74 0 7.47 2.04 10.23 5.6 2.99 3.85 4.63 9.14 4.63 14.88 0 5.59-1.61 10.24-4.66 13.46-2.67 2.82-6.3 4.38-10.21 4.38s-7.53-1.56-10.21-4.38c-3.05-3.22-4.66-7.87-4.66-13.46 0-5.74 1.65-11.03 4.63-14.88 2.78-3.56 6.51-5.6 10.25-5.6m0-1c-8.24 0-15.86 8.81-15.86 21.48C48.14 42.66 56 48.9 64 48.9s15.86-6.23 15.86-18.84c0-12.68-7.62-21.48-15.86-21.48z" fill="#EDBD82"/><radialGradient id="m" cx="56.222" cy="27.104" r="2.819" gradientUnits="userSpaceOnUse"><stop stop-color="#454140" offset=".09"/><stop stop-color="#454140" offset="1"/></radialGradient><path d="M52.64 27.35s.06-.09.18-.24c.03-.04.06-.08.1-.12.05-.05.11-.1.17-.16s.13-.12.2-.18.15-.11.23-.16.16-.11.25-.17c.09-.05.19-.1.29-.15s.2-.1.31-.14.22-.09.33-.13c.23-.06.47-.14.73-.17.25-.05.51-.05.77-.07.26.01.52.02.77.07.25.03.5.1.73.17.11.04.23.08.33.13.11.04.21.09.31.14s.19.1.28.15.17.11.25.17.16.11.22.16c.07.06.13.11.19.17.06.05.11.1.16.15s.09.1.12.14c.15.17.22.27.22.27.24.33.16.8-.17 1.04-.2.15-.46.18-.68.1l-.14-.05s-.09-.03-.23-.1c-.04-.02-.07-.03-.12-.05-.05-.01-.09-.03-.14-.05-.1-.04-.21-.08-.33-.12-.06-.02-.12-.04-.19-.06s-.13-.03-.2-.05l-.1-.03c-.04-.01-.07-.01-.11-.02-.07-.01-.15-.03-.22-.05-.16-.02-.31-.05-.47-.06-.16-.02-.33-.02-.49-.02-.16.01-.33 0-.49.03-.16.01-.32.04-.47.06-.08.01-.15.03-.22.05-.04.01-.07.01-.11.02s-.07.02-.1.03c-.07.02-.14.04-.2.05-.07.02-.13.04-.19.06s-.12.04-.17.05c-.05.02-.09.03-.14.05-.04.01-.09.03-.13.04-.05.02-.1.05-.14.07-.17.09-.27.13-.27.13a.765.765 0 0 1-1-.41c-.1-.27-.06-.54.08-.74z" fill="url(#m)"/><radialGradient id="n" cx="71.777" cy="27.104" r="2.819" gradientUnits="userSpaceOnUse"><stop stop-color="#454140" offset=".09"/><stop stop-color="#454140" offset="1"/></radialGradient><path d="M74.43 28.48s-.1-.04-.27-.13c-.04-.02-.09-.05-.14-.07-.04-.01-.08-.03-.13-.04-.04-.02-.09-.03-.14-.05-.06-.02-.11-.04-.17-.05-.06-.02-.12-.04-.19-.06s-.13-.03-.2-.05l-.1-.03c-.04-.01-.07-.01-.11-.02-.07-.01-.15-.03-.22-.05-.16-.02-.31-.05-.47-.06-.16-.02-.33-.02-.49-.03-.16.01-.33 0-.49.02-.16.01-.32.04-.47.06-.08.01-.15.03-.22.05-.04.01-.07.01-.11.02s-.07.02-.1.03c-.07.02-.14.04-.2.05-.07.02-.13.04-.19.06-.12.03-.23.08-.33.12-.05.02-.1.04-.14.05-.04.02-.08.04-.12.05l-.23.1-.13.05a.744.744 0 0 1-.95-.46.742.742 0 0 1 .1-.68s.07-.1.22-.27c.04-.04.08-.09.12-.14.05-.05.1-.09.16-.15.06-.05.12-.11.19-.17s.15-.11.22-.16c.08-.05.16-.11.25-.17.09-.05.19-.1.28-.15.1-.05.2-.1.31-.14s.22-.09.33-.13c.23-.06.47-.14.73-.17.25-.05.51-.05.77-.07.26.01.52.02.77.07.25.03.5.1.73.17.11.04.23.08.33.13.11.04.21.09.31.14s.19.1.29.15c.09.05.17.11.25.17s.15.1.23.16c.07.06.14.12.2.18s.12.11.17.16c.04.05.07.09.1.12.12.15.18.24.18.24.24.35.15.83-.2 1.06a.72.72 0 0 1-.73.09z" fill="url(#n)"/><path d="M65.83 35.55c-.05-.02-.1-.03-.15-.04h-3.35c-.05.01-.1.02-.15.04-.3.12-.47.44-.33.77s.81 1.27 2.15 1.27 2.01-.94 2.15-1.27c.15-.34-.02-.65-.32-.77z" fill="#DBA689"/><path d="M67.71 39.37c-1.51.9-6.45.9-7.96 0-.87-.51-1.75.27-1.39 1.06.36.77 3.05 2.57 5.38 2.57s4.99-1.79 5.35-2.57c.36-.79-.51-1.57-1.38-1.06z" fill="#795548"/><defs><path id="o" d="M64 5.25s-.01 0 0 0h-.02c-21.5.12-17.1 24.67-17.1 24.67s2.41 4.25 2.41 4.17c-.02-.67.22-3.26.22-3.26l-1.27-1.38s1.84-12.04 3.21-11.79c2.11.38 12.56.95 12.57.95 3.7 0 7.06-.17 9.17-.55 1.37-.25 4.56.8 5.05 2.11.63 1.68 1.48 9.33 1.48 9.33l-1.27 1.34s.23 2.61.22 3.26c0 .08 2.41-4.17 2.41-4.17S85.5 5.36 64 5.25z"/></defs><radialGradient id="p" cx="64.123" cy="5.364" r="23.115" gradientUnits="userSpaceOnUse"><stop stop-color="#454140" offset="0"/><stop stop-color="#312D2D" offset="1"/></radialGradient><path d="M64.01 5.25s-.01 0 0 0h-.02c-21.5.12-17.1 24.67-17.1 24.67s2.41 4.25 2.41 4.17c-.08-3.43 1.3-9.51 2.27-12.09a2.88 2.88 0 0 1 3.22-1.81c2.11.38 5.46.86 9.17.86h.08c3.7 0 7.06-.47 9.17-.86 1.37-.25 2.72.51 3.22 1.81.97 2.59 2.35 8.66 2.27 12.09 0 .08 2.41-4.17 2.41-4.17s4.4-24.56-17.1-24.67z" fill="url(#p)"/><path d="M64.01 5.25s-.01 0 0 0h-.02c-21.5.12-17.1 24.67-17.1 24.67s2.37 4.17 2.41 4.17c-.02-.7.03-1.51.12-2.38-.06-.14-1.16-2.25-1.17-2.26-.11-.76-.44-3.3-.26-6.42.19-3.33 1.02-8.02 3.89-11.46 2.68-3.22 6.75-4.86 12.1-4.9H64c5.35.03 9.43 1.68 12.11 4.9 5.11 6.13 3.87 16.24 3.63 17.88-.01.02-1.16 2.17-1.18 2.2.09.89.14 1.73.13 2.44.04 0 2.41-4.17 2.41-4.17S85.51 5.36 64.01 5.25z" fill="#1F1A1A"/><path d="M67.66 39.37c-1.49.89-6.37.89-7.86 0-.85-.51-1.73.27-1.37 1.05.35.76 3.01 2.54 5.32 2.54s4.93-1.77 5.28-2.54c.35-.78-.51-1.56-1.37-1.05z" fill="#444"/><radialGradient id="q" cx="56.256" cy="32.386" r="2.17" gradientUnits="userSpaceOnUse"><stop stop-color="#454140" offset=".09"/><stop stop-color="#454140" offset="1"/></radialGradient><path d="M56.26 31.88c-.97 0-1.85-.24-2.45-.61-.26-.16-.41-.06-.37.24.18 1.17 1.37 2.08 2.82 2.08s2.64-.91 2.82-2.08c.05-.3-.11-.4-.37-.24-.61.37-1.48.61-2.45.61z" fill="url(#q)"/><radialGradient id="r" cx="71.688" cy="32.386" r="2.17" gradientUnits="userSpaceOnUse"><stop stop-color="#454140" offset=".09"/><stop stop-color="#454140" offset="1"/></radialGradient><path d="M71.69 31.88c-.97 0-1.85-.24-2.45-.61-.26-.16-.41-.06-.37.24.18 1.17 1.37 2.08 2.82 2.08s2.64-.91 2.82-2.08c.05-.3-.11-.4-.37-.24-.61.37-1.48.61-2.45.61z" fill="url(#r)"/></svg>