<svg viewBox="0 0 128 128" xmlns="http://www.w3.org/2000/svg" xmlns:xlink="http://www.w3.org/1999/xlink"><defs><path id="a" d="M4 4h120v120H4z"/></defs><clipPath id="b"><use xlink:href="#a"/></clipPath><g clip-path="url(#b)" opacity=".45"><path d="M18.04 143.5c-11-1-23-1-32-10-5-5-9-11-11-18-2-8-4-16-3-24 1-7 3-14 6-21 2-4 5-8 8-11 7-6 14-11 22-15 16-8 15-28 3-39-1-1-2-1-3-2-1-2-3-5-2-6 2-10 15-3 23-4 5 0 10 3 14 6 12 9 18 23 18 38-1 7-1 15-4 22l-6 12c-1 2-2 3-4 5-5 4-9 8-14 11-8 4-18 8-20 18-3 13 8 22 14 32v3c-2 2-5 4-9 3z" fill="#83D3F7"/></g><g clip-path="url(#b)" opacity=".45"><path d="M93.04-6.5c10 0 20 2 30 2 27 9 35 41 33 67-1 5-2 10-4 15-1 2-2 5-3 7-10 19-29 28-46 39-16 16-2 39 13 51 1 1 3 4 2 6-11 7-25 1-37 1-3 0-6-2-9-3-8-4-13-10-18-18-4-7-6-14-8-22-2-11-1-21 1-32 2-5 3-9 5-14 3-6 7-11 12-16 9-9 20-14 31-21s13-21 8-32c-2-3-3-6-5-9-5-6-12-9-14-16-1-3 5-5 9-5z" fill="#3BBCF7"/></g><g clip-path="url(#b)"><path d="M13 131v-9.94c0-7.8 5.32-13.94 15.82-18.26C37.87 99.07 50.37 97.02 64 97h.13c25.28 0 50.87 8.26 50.87 24.06V131H13z" fill="#ECEFF1"/><path d="M64.13 98c13.03 0 25.69 2.22 34.75 6.09 6.9 2.94 15.12 8.28 15.12 16.97V130H14v-8.94c0-7.35 5.12-13.18 15.2-17.34 8.93-3.68 21.29-5.71 34.8-5.72h.13m0-2H64c-25.49.03-52 7.28-52 25.06V132h104v-10.94C116 104.3 89.74 96 64.13 96z" fill="#B0BEC5"/></g><g clip-path="url(#b)"><defs><path id="c" d="M12 121.06V132h104v-10.94c0-16.79-26.35-25.09-52-25.06-25.49.03-52 7.28-52 25.06z"/></defs><clipPath id="d"><use xlink:href="#c"/></clipPath><g clip-path="url(#d)"><path d="M74.18 136.33H53.82c-6.46 0-8.65-1.19-9.36-8.33l-4.36-10.56c-.74-7.51 3.27-21.6 23.94-21.6s24.61 14.09 23.87 21.6L86.38 128c-.71 7.14-5.74 8.33-12.2 8.33z" fill="#3C2B24"/></g></g><g clip-path="url(#b)"><path d="M36.67 72.26c-5.36 0-9.71-4.67-9.71-10.41s4.36-10.41 9.71-10.41h54.65c5.36 0 9.71 4.67 9.71 10.41s-4.36 10.41-9.71 10.41H36.67z" fill="#3C2B24"/><path d="M91.33 52.43c4.8 0 8.71 4.22 8.71 9.41s-3.91 9.41-8.71 9.41H36.67c-4.8 0-8.71-4.22-8.71-9.41s3.91-9.41 8.71-9.41h54.66m0-2H36.67c-5.89 0-10.71 5.14-10.71 11.41 0 6.28 4.82 11.41 10.71 11.41h54.65c5.89 0 10.71-5.14 10.71-11.41.01-6.27-4.81-11.41-10.7-11.41z" fill="#291B16"/></g><g clip-path="url(#b)"><path d="M62.32 89.75c-10.38-.75-19.71 2.28-24.19 8.67-5 7.12 2.56 24.47 7.58 33.17 6.5 11.25 14.49 9.74 14.46 3.29-.03-7.3-13.3-20.37-10.12-30.88 2-6.62 14.3-6.55 12.36-6.33 6.32-.7-.09-7.92-.09-7.92z" fill="#ECEFF1" stroke="#B0BEC5" stroke-linecap="round" stroke-linejoin="round" stroke-miterlimit="10" stroke-width="2"/></g><g clip-path="url(#b)"><path d="M65.44 89.75c10.38-.75 19.71 2.28 24.19 8.67 5 7.12-2.56 24.47-7.58 33.17-6.5 11.25-14.49 9.74-14.46 3.29.03-7.3 13.3-20.37 10.12-30.88-2-6.62-14.3-6.55-12.36-6.33-6.32-.7.09-7.92.09-7.92z" fill="#ECEFF1" stroke="#B0BEC5" stroke-linecap="round" stroke-linejoin="round" stroke-miterlimit="10" stroke-width="2"/></g><g clip-path="url(#b)"><path d="M64 90.08h-9.08v9.98c0 4.51 3.7 8.17 8.26 8.17h1.65c4.56 0 8.26-3.66 8.26-8.17v-9.98H64z" fill="#3C2B24"/></g><g clip-path="url(#b)" fill="none" stroke="#291B16" stroke-miterlimit="10" stroke-width="2"><path d="M54.94 94.25v10.56M73.06 94.25v10.56"/></g><g clip-path="url(#b)"><linearGradient id="e" x1="64" x2="64" y1="94.591" y2="12.825" gradientUnits="userSpaceOnUse"><stop stop-color="#5C4037" offset="0"/><stop stop-color="#63463D" offset=".158"/><stop stop-color="#6D5047" offset=".533"/><stop stop-color="#70534A" offset="1"/></linearGradient><path d="M64 95.27c-15.66 0-32.52-12.14-32.52-38.81 0-12.38 3.56-23.79 10.02-32.13 6.04-7.8 14.24-12.27 22.5-12.27 8.25 0 16.45 4.47 22.5 12.27 6.46 8.34 10.02 19.75 10.02 32.13 0 12.09-3.51 22.19-10.14 29.21-5.86 6.19-13.81 9.6-22.38 9.6z" fill="url(#e)"/><path d="M64 13.07c7.94 0 15.85 4.33 21.71 11.88 6.33 8.16 9.81 19.35 9.81 31.52 0 11.83-3.41 21.7-9.87 28.52-5.67 5.99-13.36 9.29-21.65 9.29s-15.98-3.3-21.65-9.29c-6.46-6.82-9.87-16.69-9.87-28.52 0-12.16 3.49-23.35 9.81-31.52C48.15 17.4 56.06 13.07 64 13.07m0-2c-17.4 0-33.52 18.61-33.52 45.39 0 26.64 16.61 39.81 33.52 39.81S97.52 83.1 97.52 56.46c0-26.78-16.12-45.39-33.52-45.39z" fill="#4A2F27"/></g><g clip-path="url(#b)"><g fill="#1A1717"><path d="M39.99 50.73s.13-.19.38-.51c.07-.08.12-.16.22-.26.11-.11.23-.22.37-.34s.28-.24.43-.38c.15-.13.31-.23.48-.35.17-.11.34-.24.53-.35.19-.1.4-.21.6-.32.21-.12.43-.21.66-.3s.47-.18.71-.27c.49-.14 1-.29 1.54-.36.53-.1 1.08-.11 1.63-.14.55.03 1.09.03 1.63.14.53.07 1.05.22 1.54.36.24.08.48.17.71.27.23.09.45.18.66.3.21.11.41.22.6.32.19.11.36.24.53.35.17.12.33.22.47.34s.27.24.4.35c.12.11.24.21.34.31s.18.21.26.29c.31.36.46.57.46.57.51.7.35 1.69-.36 2.19-.43.31-.96.37-1.43.21l-.29-.1s-.19-.07-.49-.2c-.08-.03-.15-.07-.25-.11-.1-.03-.19-.07-.3-.11-.21-.08-.44-.17-.7-.25-.13-.04-.26-.09-.4-.13-.14-.03-.28-.07-.43-.11l-.22-.06c-.08-.01-.15-.03-.23-.04-.16-.03-.31-.07-.47-.1-.33-.04-.66-.11-1-.12-.34-.04-.69-.03-1.03-.05-.35.02-.7.01-1.03.05-.34.02-.67.09-1 .12-.16.03-.31.07-.47.1-.08.01-.16.03-.23.04l-.22.06c-.15.04-.29.07-.43.11s-.27.09-.4.13-.25.08-.37.11c-.1.04-.2.07-.29.1l-.27.09c-.1.04-.2.1-.29.14-.36.18-.57.27-.57.27-.83.34-1.77-.05-2.11-.87-.24-.48-.16-1.06.13-1.49zM86.05 53.13s-.22-.09-.57-.27c-.09-.04-.19-.1-.29-.14-.09-.02-.18-.06-.27-.09s-.19-.07-.29-.1c-.12-.04-.24-.07-.37-.11s-.26-.09-.4-.13-.28-.07-.43-.11l-.22-.06c-.08-.01-.15-.03-.23-.04-.16-.03-.31-.07-.47-.1-.33-.04-.66-.11-1-.12-.34-.04-.69-.03-1.03-.05-.35.02-.7.01-1.03.05-.34.02-.67.09-1 .12-.16.03-.31.07-.47.1-.08.01-.16.03-.23.04l-.22.06c-.15.04-.29.08-.43.11-.14.04-.27.09-.4.13-.26.07-.49.16-.7.25-.11.04-.2.08-.3.11-.09.04-.17.08-.25.11-.3.13-.49.2-.49.2l-.28.1c-.82.29-1.72-.15-2-.97-.17-.5-.08-1.03.21-1.44 0 0 .16-.22.46-.57.08-.09.16-.19.26-.29s.22-.2.34-.31.26-.23.4-.35.31-.22.47-.34c.17-.12.34-.24.53-.35.19-.1.4-.21.6-.32.21-.12.43-.21.66-.3s.46-.18.71-.27c.49-.14 1-.29 1.54-.36.53-.1 1.08-.11 1.63-.14.55.03 1.09.03 1.63.14.53.06 1.05.22 1.54.36.24.08.48.17.71.27.23.09.45.18.66.3.21.11.41.22.6.32.19.11.36.24.53.35.17.12.32.22.48.35.15.13.3.26.43.38s.26.23.37.34c.09.1.15.18.22.26.25.31.38.51.38.51.5.74.31 1.74-.43 2.25-.49.28-1.07.32-1.56.12z"/></g><path d="M67.86 68.06c-.11-.04-.21-.07-.32-.08h-7.07c-.11.01-.22.04-.32.08-.64.26-.99.92-.69 1.63s1.71 2.69 4.55 2.69 4.25-1.99 4.55-2.69c.29-.71-.06-1.37-.7-1.63z" fill="#33251F"/><path d="M72.42 76.14c-3.19 1.89-13.63 1.89-16.81 0-1.83-1.09-3.7.58-2.94 2.24.75 1.63 6.45 5.42 11.37 5.42s10.55-3.79 11.3-5.42c.75-1.66-1.09-3.33-2.92-2.24z" fill="#795548"/></g><g clip-path="url(#b)"><defs><path id="f" d="M64 4.03h-.04c-45.43.24-36.12 52.14-36.12 52.14s5.1 8.99 5.1 8.81c-.03-1.41.46-6.89.46-6.89l-2.68-2.92s3.89-25.44 6.79-24.91c4.45.81 26.54 2 26.57 2 7.83 0 14.92-.36 19.37-1.17 2.9-.53 9.64 1.7 10.68 4.45 1.33 3.54 3.13 19.71 3.13 19.71l-2.68 2.83s.49 5.51.46 6.89c0 .18 5.1-8.81 5.1-8.81S109.44 4.27 64 4.03z"/></defs></g><g clip-path="url(#b)"><radialGradient id="g" cx="64.26" cy="4.274" r="48.85" gradientUnits="userSpaceOnUse"><stop stop-color="#444140" offset="0"/><stop stop-color="#232020" offset="1"/></radialGradient><path d="M64.02 4.03h-.04c-45.43.24-36.13 52.14-36.13 52.14s5.1 8.99 5.1 8.81c-.16-7.25 2.74-20.09 4.8-25.55a6.075 6.075 0 0 1 6.79-3.83c4.46.8 11.55 1.8 19.38 1.8h.16c7.83 0 14.92-1 19.37-1.81 2.9-.53 5.76 1.08 6.79 3.83 2.06 5.47 4.96 18.3 4.8 25.55 0 .18 5.1-8.81 5.1-8.81s9.31-51.89-36.12-52.13z" fill="url(#g)"/><path d="M64.02 4.03h-.04c-45.43.24-36.13 52.14-36.13 52.14s5 8.81 5.1 8.81c-.03-1.48.07-3.2.26-5.03-.12-.29-2.46-4.75-2.48-4.79-.24-1.6-.93-6.98-.55-13.56.41-7.04 2.17-16.96 8.22-24.22 5.67-6.8 14.27-10.28 25.56-10.35H64c11.32.06 19.93 3.54 25.6 10.35 10.81 12.96 8.18 34.33 7.67 37.79-.02.04-2.46 4.58-2.49 4.65.2 1.89.31 3.65.27 5.17.09 0 5.1-8.81 5.1-8.81s9.3-51.91-36.13-52.15z" fill="#1F1D1B"/></g><g clip-path="url(#b)" fill="#1A1717"><path d="M72.32 76.14c-3.15 1.87-13.46 1.87-16.61 0-1.81-1.07-3.65.57-2.9 2.21.74 1.61 6.37 5.36 11.23 5.36 4.87 0 10.42-3.75 11.16-5.36.75-1.64-1.08-3.29-2.88-2.21zM47.63 60.3c-2.06 0-3.9-.5-5.18-1.29-.55-.34-.87-.14-.77.5.37 2.48 2.9 4.4 5.95 4.4 3.06 0 5.58-1.92 5.95-4.4.1-.64-.22-.84-.77-.5-1.28.79-3.12 1.29-5.18 1.29zM80.25 60.3c-2.06 0-3.9-.5-5.18-1.29-.55-.34-.87-.14-.77.5.37 2.48 2.9 4.4 5.95 4.4 3.06 0 5.58-1.92 5.95-4.4.1-.64-.22-.84-.77-.5-1.28.79-3.13 1.29-5.18 1.29z"/></g><g clip-path="url(#b)" opacity=".3"><path d="M97.04 156.5c-8-1-17 1-24-5-11-9-17-22-17-36 0-7 2-14 5-21 2-4 5-8 8-11 4.79-4.79 11.53-8.71 17.52-11.77 5.74-2.94 10.61-5.51 12.6-12.26 1.69-5.73.6-12.03-2.07-17.38-1.64-3.28-3.84-6.25-6.32-8.95-2.05-2.24-3.89-3.98-6.06-6.94-2.72-3.72 4.61-3.29 7.66-3.21 6.14.17 11.67 1.66 17.08 4.62 9.22 5.05 15.16 14.19 18.15 24.07 1.93 6.37 2.79 13.15 2.44 19.81-2.04 14.29-11.23 24.77-23.6 31.13-6.69 3.45-13.86 7.05-17.68 13.54-8.82 14.97 6.52 26.47 14.27 37.33 0 0-1 1-1 2-.99 1.01-2.99 1.01-4.99 1.01z" fill="#fff"/></g><g clip-path="url(#b)" opacity=".35"><path d="M25.04 152.75c-12-2-22-11-24-23-3-9-2-18 4-27 4-5 8-10 13-13 2-1 3-1 5-2l6-6c5-8-2-15-4-23 0-1 1-2 2-3 7-5 15 0 21 5 5 4 9 10 10 16 3 10 1 19-4 28-1 2-3 3-4 5-6 6-15 8-20 15-4 7 0 14 3 20 2 5-3 10-8 8z" fill="#fff"/></g></svg>