<svg viewBox="0 0 128 128" xmlns="http://www.w3.org/2000/svg" xmlns:xlink="http://www.w3.org/1999/xlink"><defs><path id="a" d="M4 4h120v120H4z"/></defs><clipPath id="b"><use xlink:href="#a"/></clipPath><g clip-path="url(#b)"><radialGradient id="c" cx="64.915" cy="-8.348" r="48.816" gradientUnits="userSpaceOnUse"><stop stop-color="#B34040" offset="0"/><stop stop-color="#5E0F0F" offset=".995"/></radialGradient><path d="M47.02 120.26c-.03 0-7.06-.36-10.62-5.29-8.84-12.28-11.12-42.29-11.46-65.31l-.01-.68-.64-.24a8.683 8.683 0 0 1-3.84-2.88c1.08.34 2.21.56 3.36.65l1.08.08-.01-1.09c-.01-.97-.01-1.93-.01-2.86 0-1.04.12-10.25 5.01-19.31l.47-.88-.88-.47a21.52 21.52 0 0 1-3.23-2.14c1.33.39 2.72.65 4.15.65.23 0 .47-.01.7-.02l.12-.01.42-.07.26-.35c1.04-1.51 2.2-2.93 3.46-4.23l.35-.37-.09-.5c-.3-1.7-.58-3.66-.23-5.54.56 1.15 1.26 2.21 2.08 3.15l.54.62.71-.42c.73-.42 1.42-.9 2.1-1.36.81-.55 1.57-1.08 2.39-1.52 1.66-.87 3.4-1.63 5.21-2.26 4.73-1.65 10.17-2.48 16.16-2.48 16.12 0 27.46 5.87 33.71 17.44l.31.58.65-.05c2.65-.22 4.56-1.18 5.86-2.96.14-.2.28-.39.41-.59-.64 2.91-2.3 6.35-4.29 8.44l-.41.43.18.57c.33 1.02.62 2.06.87 3.09l.15.61.61.13c.73.16 1.48.4 2.24.72 1.67.71 3.05 1.9 3.93 3.3a9.121 9.121 0 0 0-3.69-1.2c-.23-.02-.47-.03-.7-.03-.25 0-.51.01-.76.03l-1.05.08.14 1.05c.37 2.76.39 4.82.37 5.79 0 8.94-.25 17.31-.73 24.96l-.05.83.8.21c1.14.29 2.32.44 3.49.44.42 0 .83-.02 1.24-.06-1.42 1.39-3.2 2.46-5.17 3.09l-.64.21-.05.67c-1.69 20.67-5.19 34.82-10.4 42.06-3.47 4.82-10.26 5.27-10.64 5.29L64 120.23l-16.98.03z" fill="url(#c)"/><path d="M64.57 6.12c15.73 0 26.77 5.69 32.83 16.92l.62 1.15 1.3-.11c1.52-.12 2.83-.48 3.94-1.06-.73 1.6-1.68 3.13-2.76 4.27l-.82.86.36 1.13c.32.99.61 2.01.85 3.02l.29 1.22 1.23.26c.67.14 1.36.37 2.06.66.12.05.24.1.35.16-.14-.01-.28-.01-.42-.01-.28 0-.56.01-.83.03l-2.11.16.28 2.09c.37 2.8.37 4.88.36 5.64v.1c0 8.84-.24 17.19-.73 24.81l-.1 1.65 1.6.41c.69.18 1.39.31 2.09.38-.81.48-1.68.88-2.6 1.18l-1.27.41-.11 1.33c-1.67 20.48-5.11 34.47-10.22 41.55-3.15 4.37-9.38 4.85-9.86 4.88l-16.92-.03-16.92.03c-.5-.03-6.69-.48-9.86-4.88-6.88-9.55-10.78-31.94-11.28-64.74l-.02-1.36-1.28-.48a6.83 6.83 0 0 1-.62-.27l1.89.15-.01-2.18c-.01-.97-.01-1.92-.01-2.88 0-1 .12-9.98 4.89-18.82l.95-1.76-1.05-.56c.16 0 .33-.01.5-.02l.11-.01h.03l.88-.07.54-.79c1.01-1.46 2.14-2.84 3.36-4.1l.71-.73-.18-1c-.11-.65-.23-1.34-.3-2.05.13.17.27.33.41.49l1.08 1.25 1.43-.83c.76-.44 1.47-.93 2.16-1.4.79-.54 1.53-1.05 2.3-1.46 1.57-.85 3.27-1.59 5.03-2.2 4.65-1.57 9.97-2.39 15.85-2.39m0-2c-5.58 0-11.2.7-16.49 2.54-1.83.64-3.61 1.41-5.32 2.33-1.59.85-2.98 2-4.52 2.9-1.39-1.6-2.4-3.56-2.94-5.61.08.31-.3.88-.4 1.16-.2.54-.35 1.09-.46 1.65-.4 2.01-.14 4.02.21 6.02a34.246 34.246 0 0 0-3.57 4.36c-.01 0-.03 0-.04.01-.21.01-.43.02-.64.02-2.81 0-5.53-1.11-8.15-2.2 1.86 2.28 4.17 4.18 6.75 5.57-5.21 9.65-5.13 19.48-5.13 19.79 0 .94 0 1.9.01 2.87-1.96-.15-3.88-.71-5.6-1.67.83 2.66 3.03 4.85 5.64 5.83.36 23.75 2.73 53.48 11.65 65.87 3.9 5.41 11.43 5.71 11.43 5.71l17-.04 16.97.03s7.53-.3 11.43-5.71c6.13-8.52 9.17-25.23 10.59-42.56 3-.97 5.69-2.93 7.41-5.58-1.22.4-2.5.59-3.78.59-1.09 0-2.18-.14-3.24-.41.55-8.67.73-17.3.73-24.94 0-.15.09-2.51-.38-6.01.22-.02.45-.03.68-.03.2 0 .4.01.6.03a8.15 8.15 0 0 1 5.84 3.41c-.14-3.27-2.59-6.14-5.59-7.42-.86-.37-1.67-.62-2.42-.78-.25-1.02-.54-2.08-.89-3.16 3.21-3.36 5.51-9.84 4.65-13.02 0 0-.85 1.89-2.31 3.89-1.2 1.65-2.96 2.38-5.13 2.55-4.96-9.2-14.85-17.99-34.59-17.99z" fill="#360909"/></g><g clip-path="url(#b)"><linearGradient id="d" x1="64" x2="64" y1="97.5" y2="130.5" gradientUnits="userSpaceOnUse"><stop stop-color="#651FFF" offset="0"/><stop stop-color="#5914F2" offset=".705"/><stop stop-color="#530EEB" offset="1"/></linearGradient><path d="M13.5 130.5v-9.51c0-17.29 27.21-23.46 50.5-23.49h.14c13.39 0 25.82 2.15 35.01 6.05 7 2.98 15.35 8.42 15.35 17.44v9.51h-101z" fill="url(#d)"/><path d="M64.14 99c24.28 0 48.86 7.55 48.86 21.99V129H15v-8.01c0-6.95 4.88-12.47 14.52-16.42C38.26 100.99 50.51 99.02 64 99h.14m0-3H64c-25.65.03-52 7.1-52 24.99V132h104v-11.01C116 104.13 89.9 96 64.14 96z" fill="#4A00ED"/></g><g clip-path="url(#b)"><linearGradient id="e" x1="64" x2="64" y1="91.008" y2="107.33" gradientUnits="userSpaceOnUse"><stop stop-color="#76FF05" offset="0"/><stop stop-color="#79F70A" offset=".058"/><stop stop-color="#81DE18" offset=".267"/><stop stop-color="#87CD22" offset=".487"/><stop stop-color="#8BC228" offset=".722"/><stop stop-color="#8CBF2A" offset="1"/></linearGradient><path d="M63.17 107.23c-4 0-7.26-3.22-7.26-7.17v-8.98h16.16v8.98c0 3.96-3.26 7.17-7.26 7.17h-1.64z" fill="url(#e)"/><path d="M71.08 92.08v7.98c0 3.4-2.81 6.17-6.26 6.17h-1.65c-3.45 0-6.26-2.77-6.26-6.17v-7.98h14.17m2-2H54.92v9.98c0 4.51 3.7 8.17 8.26 8.17h1.65c4.56 0 8.26-3.66 8.26-8.17v-9.98h-.01z" fill="#709921"/></g><g clip-path="url(#b)"><linearGradient id="f" x1="64" x2="64" y1="94.708" y2="17.885" gradientUnits="userSpaceOnUse"><stop stop-color="#7BA825" offset=".005"/><stop stop-color="#7BAE23" offset=".168"/><stop stop-color="#7ABE1D" offset=".382"/><stop stop-color="#78D913" offset=".623"/><stop stop-color="#76FF05" offset=".883"/><stop stop-color="#76FF05" offset=".885"/></linearGradient><path d="M64 95.27c-2.3 0-4.91-.5-7.56-1.43C45.1 89.83 31.87 77.5 31.87 55.95c0-28.72 17.31-38.91 32.13-38.91s32.13 10.19 32.13 38.91c0 21.58-13.26 33.9-24.61 37.9-2.63.93-5.23 1.42-7.52 1.42z" fill="url(#f)"/><path d="M64 18.04c8.41 0 16.06 3.25 21.55 9.15 6.27 6.73 9.58 16.68 9.58 28.77 0 21.06-12.9 33.07-23.94 36.96-2.53.89-5.01 1.36-7.19 1.36-2.19 0-4.69-.48-7.23-1.38-11.03-3.9-23.9-15.92-23.9-36.94 0-12.09 3.31-22.03 9.58-28.77 5.49-5.9 13.14-9.15 21.55-9.15m0-2c-17.2 0-33.13 12.79-33.13 39.91 0 21.79 13.49 34.67 25.23 38.83 2.8.99 5.5 1.49 7.9 1.49 2.38 0 5.07-.49 7.85-1.47 11.76-4.14 25.28-17.03 25.28-38.84 0-27.13-15.93-39.92-33.13-39.92z" fill="#709921"/></g><path d="M60.14 71.17c.11.04.21.07.32.08h7.07c.11-.01.22-.04.32-.08.64-.26.99-.92.69-1.63s-1.71-2.69-4.55-2.69-4.25 1.99-4.55 2.69c-.29.71.06 1.37.7 1.63z" clip-path="url(#b)" fill="#333"/><g clip-path="url(#b)"><path d="M46.94 69.14c-4.88 0-8.84-4.53-8.84-10.1s3.97-10.1 8.84-10.1c4.88 0 8.84 4.53 8.84 10.1s-3.97 10.1-8.84 10.1z" fill="#4E6B17"/><path d="M46.94 50.26c4.15 0 7.52 3.94 7.52 8.78s-3.37 8.78-7.52 8.78-7.52-3.94-7.52-8.78 3.37-8.78 7.52-8.78m0-2.65c-5.61 0-10.17 5.12-10.17 11.43s4.55 11.43 10.17 11.43c5.61 0 10.17-5.12 10.17-11.43s-4.56-11.43-10.17-11.43z" fill="#709921"/><ellipse cx="47.08" cy="56.81" rx="7.88" ry="8.2" fill="#fff"/><path d="M47.09 49.74c3.72 0 6.75 3.17 6.75 7.07s-3.03 7.07-6.75 7.07-6.75-3.17-6.75-7.07 3.02-7.07 6.75-7.07m0-2.25c-4.97 0-9 4.17-9 9.32s4.03 9.32 9 9.32 9-4.17 9-9.32-4.03-9.32-9-9.32z" fill="#709921"/></g><g clip-path="url(#b)"><path d="M81.06 69.14c-4.88 0-8.84-4.53-8.84-10.1s3.97-10.1 8.84-10.1c4.88 0 8.84 4.53 8.84 10.1s-3.96 10.1-8.84 10.1z" fill="#4E6B17"/><path d="M81.06 50.26c4.15 0 7.52 3.94 7.52 8.78s-3.37 8.78-7.52 8.78-7.52-3.94-7.52-8.78 3.38-8.78 7.52-8.78m0-2.65c-5.61 0-10.17 5.12-10.17 11.43s4.55 11.43 10.17 11.43c5.61 0 10.17-5.12 10.17-11.43s-4.55-11.43-10.17-11.43z" fill="#709921"/><ellipse cx="80.92" cy="56.81" rx="7.88" ry="8.2" fill="#fff"/><path d="M80.91 49.74c3.72 0 6.75 3.17 6.75 7.07s-3.03 7.07-6.75 7.07-6.75-3.17-6.75-7.07 3.03-7.07 6.75-7.07m0-2.25c-4.97 0-9 4.17-9 9.32s4.03 9.32 9 9.32 9-4.17 9-9.32-4.02-9.32-9-9.32z" fill="#709921"/></g><path d="M78.64 79.66c-.44-.45-.85-1.01-.81-1.64.05-.96 1.03-1.56 1.89-1.98 1.69-.83 3.41-1.67 5.28-1.88.73-.08 1.51-.05 2.12.35.72.48 1.05 1.42.96 2.28s-.54 1.65-1.1 2.32c-2.4 2.85-5.68 3.21-8.34.55zM81.43 83.96c.28.34.41.79.29 1.34-.14.62-.62 1.04-1.07 1.46-.36.33-.74.64-1.21.76s-1.03 0-1.29-.41c-.13-.21-.17-.47-.19-.71-.1-1.37.28-3.45 2.09-3.16.56.09 1.07.33 1.38.72zM42.48 77.84c-.43.08-.89-.02-1.32-.39-.48-.42-.62-1.04-.77-1.64-.12-.47-.21-.96-.09-1.43s.5-.9.98-.94c.25-.02.49.07.72.17 1.25.57 2.89 1.89 1.77 3.34-.34.46-.8.79-1.29.89zM47.19 40.39c.84-.06 1.77-.02 2.39.54.82.73.76 2.11.12 3.01-.64.89-1.69 1.39-2.74 1.73-.61.2-1.26.36-1.88.24-.88-.17-1.57-.88-1.96-1.68-1.55-3.27 1.35-3.64 4.07-3.84z" clip-path="url(#b)" fill="#5F884E"/><g clip-path="url(#b)"><path d="M74.5 82.98c0 3.21-4.7 3.81-10.5 3.81s-10.5-.6-10.5-3.81 4.7-7.81 10.5-7.81 10.5 4.6 10.5 7.81z" fill="#333"/><path d="M64 86.79c3.54 0 6.66-.23 8.56-1.13-.21-2.92-3.96-5.24-8.56-5.24s-8.35 2.33-8.56 5.24c1.9.9 5.02 1.13 8.56 1.13z" fill="#FF5252"/></g><g clip-path="url(#b)"><defs><path id="g" d="M30.41 88.85l-1.5-51.44c0-16.95 15.78-29.85 32.73-29.85h4.93c16.95 0 32.54 12.9 32.54 29.85l-1.5 51.18-67.2.26z"/></defs><clipPath id="h"><use xlink:href="#g"/></clipPath><g clip-path="url(#h)"><radialGradient id="i" cx="145.38" cy="-24.542" r="48.206" gradientTransform="matrix(.796 0 0 .796 -51.73 19.115)" gradientUnits="userSpaceOnUse"><stop stop-color="#B34040" offset="0"/><stop stop-color="#5E0F0F" offset=".995"/></radialGradient><path d="M101.89 42.65s1.02-35.57-37.81-35.57-37.97 35.57-37.97 35.57.33 45.48 3.2 51.39 7.2 5.71 7.2 5.71-2.03-26.54-2.26-39.04c-.06-2.92-.94-13.73 5.16-15.09 22.36-5.02 35.01-16.89 35.01-16.89C77.71 35.92 88 42.92 91.69 45.59c3.03 2.19 2.61 11.2 2.55 15.03l-3.05 39.06s4.68.37 7.65-5.64c2.96-6.02 3.05-51.39 3.05-51.39z" fill="url(#i)"/></g></g><g clip-path="url(#b)"><path d="M88.57 110.55c5.16 8.13 13.62 11.43 13.97 11.57.18.05 2.24.57 3.88-.77.22-.18.55-.15.73.07s.15.55-.07.73c-.73.6-1.51.9-2.23 1.04-.7.14-1.34.12-1.81.07l.17.86c1.64-.13 4.19.03 5.81 1.83.55.61.72 1.43.46 2.2-.26.78-.9 1.34-1.7 1.5l-3.35.66 3.01 15.33 2.74 2.05 2.54-4.37a.48.48 0 0 1 .38-.25c.16-.02.32.04.44.15l2.07 2.11 1.85-3.31c.12-.22.38-.32.61-.24l2.07.67-1-5.1a3.75 3.75 0 0 1-2.77-2.91l-1.32-6.71c-.01-.04-.03-.06-.04-.07-.02-.01-.06-.03-.11-.01-.04.02-.07.09-.06.15l.3 1.53c.16.81-.37 1.6-1.19 1.77a1.5 1.5 0 0 1-1.76-1.18l-.42-2.12a6.32 6.32 0 0 1 1.91-5.88l2.05-1.91-.13-.66c-.41.29-1.02.58-1.9.75a.516.516 0 0 1-.61-.41c-.06-.28.13-.56.41-.61 1.5-.3 1.94-.99 1.97-1.03l.01-.01s.01-.01.01-.02c3.33-5.14 4.52-9.49 3.55-12.95-.82-2.92-3-4.23-3.43-4.47-.59-.04-1.98.02-2.67.72-.36.36-.5.85-.43 1.51.1.93.47 1.52 1.1 1.73.87.29 2.2-.14 2.98-.97a.522.522 0 1 1 .76.72c-.45.48-1.12.91-1.84 1.16.18.64.14 1.57-.66 2.5a.512.512 0 0 1-.73.05.512.512 0 0 1-.05-.73c.6-.7.54-1.28.43-1.6-.41.03-.82-.01-1.21-.14-.59-.2-1.62-.81-1.8-2.61-.1-.97.15-1.76.73-2.35.94-.95 2.51-1.04 3.23-1.03 1.1-2.43 1.27-4.54.48-6.26-1.15-2.52-4.01-3.5-4.5-3.65-.23.02-1.01.11-1.51.64-.34.37-.48.89-.43 1.56.09 1.24.83 2.32 1.88 2.77.83.35 1.7.22 2.39-.35.22-.18.55-.15.73.07s.15.55-.07.73c-.47.39-1 .64-1.55.74l-.61 1.97c.05.07.12.16.23.21.22.1.53 0 .75-.11a.52.52 0 0 1 .44.94c-.21.1-.42.17-.62.21-.36.07-.69.04-.99-.09-.15-.07-.27-.15-.37-.24-.07.05-.15.1-.23.15a1.45 1.45 0 0 1-1.15.07 1.468 1.468 0 0 1-.91-1.83l.66-2.04c-.92-.73-1.53-1.87-1.62-3.12-.07-.97.17-1.76.71-2.35.58-.62 1.35-.85 1.85-.93.17-2.25.15-6.58-2.5-7.19-.44-.1-.95-.07-1.47.1-.82.26-1.3.66-1.48 1.23-.34 1.1.56 2.65.99 3.23.18.12 1.08.6 2.95.1.28-.07.56.09.64.37.07.28-.09.56-.37.64-.2.05-.39.1-.57.13-1.06.21-1.84.14-2.38-.01.23 1.83.72 5.83.64 7.27 0 .02 0 .04-.01.06-.22 1.23-.71 2-1.47 2.29-1.19.44-2.45-.54-2.59-.66a.508.508 0 0 1-.19-.39c-.18-9.89-2.14-13.3-3.75-14.43-.82-.57-1.76-.67-2.79-.31-.63.22-1 .55-1.12 1.02-.31 1.16.87 2.95 1.46 3.67.38.12 1.61.4 2.27-.46.17-.23.5-.27.73-.1s.27.5.1.73c-.44.57-.99.84-1.54.94-.4.08-.79.07-1.12.03l1.15 3.96c.1.39.2.76.29 1.13.09.11.33.36.76.44.59.12 1.33-.12 2.16-.69.24-.16.56-.1.72.13.16.24.1.56-.13.72-.65.45-1.27.73-1.86.85-.39.08-.77.08-1.13 0-.07-.02-.14-.03-.21-.05 1.58 7.53.47 11.69-.83 13.9-1.02 1.74-2.27 2.51-2.96 2.83.32.95.81 1.91 1.77 2.86a.522.522 0 1 1-.74.74c-1.39-1.37-1.91-2.77-2.26-4.05-.2.79-.58 1.66-1.25 2.56-.08.11-.2.18-.32.2-.14.03-.29 0-.41-.09a.525.525 0 0 1-.11-.73c1.87-2.55 1.12-4.73.99-5.06-.28-.4-.65-.75-1.18-1.06-1.23-.55-2.22-.37-3.02.55-1.1 1.22-1.21 3.08-.3 4.5zm19.31 7.71c-.95-6.06 2.74-7.74 2.89-7.8.26-.12.57.01.68.27s-.01.57-.27.68c-.03.01-3.11 1.42-2.28 6.69.04.28-.14.54-.41.59h-.02a.512.512 0 0 1-.59-.43z" fill="none"/><path d="M111.75 95.8c-.27-.04-.53-.12-.8-.23l-.59 1.82a.421.421 0 1 0 .8.26l.59-1.85z" fill="none"/><path d="M87.69 111.11c4.97 7.82 12.66 11.25 14.23 11.88l.35 1.79 1.03 5.22 3.15 16.04c.02.13.1.24.2.32l3.37 2.52c.12.09.27.12.41.09.15-.03.27-.12.35-.25l2.48-4.28 2.08 2.11c.11.12.28.17.44.15s.31-.12.38-.26l1.98-3.54 2.51.81c.18.06.37.02.51-.11s.2-.31.17-.49l-1.24-6.3-3.29-16.73-.33-1.69c3.42-5.33 4.62-9.92 3.56-13.65-.81-2.85-2.73-4.34-3.61-4.89 1.19-2.67 1.33-5.03.42-7.02-1.19-2.59-3.8-3.74-4.82-4.1.39-4.78-.78-7.73-3.3-8.31-.63-.14-1.33-.1-2.02.12-1.15.37-1.88 1.01-2.16 1.91-.52 1.66.76 3.61 1.12 4.11.12.9.81 6.18.74 7.84-.11.58-.33 1.28-.81 1.46-.44.17-1.05-.13-1.39-.35-.17-8.14-1.58-13.19-4.19-15-1.09-.76-2.38-.91-3.73-.44-.97.34-1.57.92-1.79 1.73-.49 1.83 1.25 4.11 1.69 4.64l1.37 4.69c2.23 8.44 1.28 12.95.09 15.25-.87 1.67-1.96 2.42-2.57 2.73-.04-.14-.07-.29-.11-.43-.4-1.58-.78-3.07-2.6-4.11a.076.076 0 0 0-.04-.02c-2.1-.95-3.47-.09-4.25.8-1.38 1.58-1.53 3.95-.38 5.76z" fill="none" stroke="#709921" stroke-linecap="round" stroke-linejoin="round" stroke-miterlimit="10" stroke-width=".782"/><linearGradient id="j" x1="369.01" x2="369.01" y1="41.009" y2="104.79" gradientTransform="scale(-1 1) rotate(11.122 -66.972 -2338.995)" gradientUnits="userSpaceOnUse"><stop stop-color="#68E005" offset="0"/><stop stop-color="#6EDB0B" offset=".071"/><stop stop-color="#7FCB1C" offset=".349"/><stop stop-color="#89C227" offset=".647"/><stop stop-color="#8CBF2A" offset="1"/></linearGradient><path d="M109.95 148.01l-2.84-2.12-.04-.12-4.45-22.6.25-.29h.18c.23.02.45.04.68.04.36 0 .71-.03 1.04-.1.77-.15 1.46-.47 2.06-.96.05-.04.06-.13.02-.18a.152.152 0 0 0-.1-.05 4.875 4.875 0 0 1-3.03 1.03c-.69 0-1.19-.13-1.28-.15-.4-.15-8.96-3.48-14.2-11.73-1-1.58-.87-3.62.31-4.98.58-.66 1.26-.99 2.03-.99.45 0 .93.12 1.44.34 1.21.49 1.48 1.18 1.52 1.31.96 3.08 2.32 6.45 3.07 6.95l.15.08.09-.04c.04-.04.04-.14 0-.18-.87-.86-1.44-1.79-1.86-3l-.11-.32.31-.17c.63-.29 1.82-1.02 2.79-2.68 1.22-2.08 2.35-6.13.78-13.62l-.09-.48h.02c-.1-.44-.29-1.19-.51-2.05l-1.32-4.52.59.07c.14.02.28.03.44.03.18 0 .37-.01.56-.05.54-.11.98-.38 1.3-.8l-.02-.18c-.04-.01-.07-.02-.09-.02-.04 0-.06.01-.08.04-.38.49-.96.75-1.67.75-.44 0-.82-.1-1.02-.15l-.09-.03-.08-.07c-.23-.28-1.97-2.5-1.56-4.05.16-.59.62-1.02 1.37-1.28.44-.15.87-.23 1.29-.23.67 0 1.29.2 1.86.59 1.69 1.18 3.74 4.69 3.92 14.74 0 .04.02.07.05.1.04.03.85.68 1.7.68.18 0 .35-.03.51-.09.62-.23 1.03-.9 1.22-1.99.07-1.44-.42-5.52-.64-7.2l-.02-.18.24-.27h.19l.09.01c.31.08.65.12 1.02.12s.76-.04 1.17-.12c.17-.03.35-.08.54-.13.07-.02.11-.09.09-.16s-.08-.1-.12-.1c-.62.16-1.17.24-1.67.24-.92 0-1.44-.27-1.62-.38l-.11-.1c-.16-.21-1.51-2.1-1.05-3.57.21-.69.78-1.18 1.73-1.48.36-.12.72-.17 1.06-.17.21 0 .42.02.62.07 2.89.67 3 5.05 2.8 7.6l-.02.31-.31.06c-.47.08-1.13.28-1.62.81-.47.5-.67 1.2-.61 2.05.08 1.12.62 2.16 1.47 2.83l.19.15-.04.25-.64 1.98c-.17.52 0 1.07.4 1.32.18.11.39.17.59.17.07 0 .14-.01.2-.02.09-.02.19-.05.28-.09.02-.02.35-.34.63-.89l.65-2.12.22-.06c.52-.1.98-.32 1.39-.66.06-.05.06-.13.02-.18a.135.135 0 0 0-.1-.05c-.58.45-1.17.67-1.79.67-.37 0-.73-.08-1.09-.23-1.18-.5-2.02-1.72-2.12-3.1-.06-.78.12-1.41.54-1.85.57-.62 1.42-.74 1.76-.77l.07-.01.07.02c.58.18 3.52 1.2 4.74 3.86.83 1.83.67 4.04-.48 6.58l-.1.23-.27.01c-.82 0-2.15.12-2.94.91-.5.5-.71 1.18-.62 2.03.16 1.58 1.03 2.11 1.54 2.28.25.08.53.13.82.13.08 0 .16 0 .24-.01l.3-.02.1.28c.13.37.24 1.12-.5 1.98l-.24.48.25-.3.11.03c.85-.94.77-1.76.66-2.17l-.1-.36.36-.13c.64-.22 1.25-.61 1.67-1.06a.12.12 0 0 0-.01-.18c-.05-.02-.08-.02-.11-.02s-.05.01-.07.03c-.68.72-1.72 1.18-2.66 1.18-.26 0-.51-.04-.73-.11-.55-.19-1.23-.69-1.37-2.06-.08-.77.1-1.38.54-1.82.76-.76 2.11-.84 2.65-.84.12 0 .23 0 .32.01l.08.01.08.04c.47.25 2.77 1.64 3.63 4.71 1.01 3.57-.2 8.04-3.6 13.27-.06.11-.59.91-2.24 1.23a.12.12 0 0 0-.1.15c.01.07.07.1.13.1.72-.14 1.31-.37 1.77-.69l.49-.34 4.69 23.87-.24.3h-.26l-2.1-.68h-.03c-.08 0-.12.03-.14.07l-1.94 3.48-.24.01h-.16l-.12-.12c-1.05-1.02-1.93-1.83-2.26-2.09l-2.65 4.56-.36.01-.1-.08z" fill="url(#j)"/><path d="M97.78 80.84c.59 0 1.13.17 1.63.52 1.61 1.12 3.57 4.54 3.75 14.43 0 .15.07.3.19.39.11.09.98.77 1.94.77.21 0 .43-.03.65-.11.76-.28 1.26-1.05 1.47-2.29 0-.02.01-.04.01-.06.07-1.44-.41-5.42-.64-7.26 0-.01 0-.01.01-.01.3.08.67.13 1.12.13.36 0 .78-.04 1.25-.13.18-.04.37-.08.57-.13a.523.523 0 0 0-.13-1.03c-.04 0-.09.01-.14.02-.61.16-1.12.22-1.53.22-.84 0-1.29-.24-1.41-.32-.43-.58-1.33-2.13-.99-3.23.18-.56.66-.96 1.48-1.23.32-.1.64-.16.94-.16.18 0 .36.02.53.06 2.65.61 2.67 4.93 2.5 7.19 0 .01 0 .01-.01.01-.5.08-1.27.31-1.84.93-.54.59-.79 1.38-.71 2.35.09 1.25.7 2.38 1.62 3.11 0 0 .01.01 0 .01l-.63 1.94c-.21.65-.01 1.41.57 1.78.25.15.52.23.79.23.09 0 .19-.01.28-.03.13-.03.26-.07.38-.13.08-.04.49-.43.8-1.07l.61-1.97s0-.01.01-.01c.55-.1 1.08-.35 1.55-.74a.521.521 0 0 0-.33-.92c-.12 0-.24.04-.33.12-.43.36-.94.55-1.46.55-.31 0-.62-.06-.93-.2-1.05-.45-1.79-1.53-1.88-2.77-.05-.67.1-1.19.43-1.56.49-.53 1.27-.63 1.51-.64.49.15 3.35 1.13 4.5 3.65.79 1.72.62 3.83-.48 6.25l-.01.01h-.1c-.76 0-2.22.13-3.12 1.03-.58.59-.83 1.37-.73 2.35.18 1.8 1.21 2.41 1.8 2.61.3.1.62.15.94.15.09 0 .18 0 .27-.01.11.32.17.9-.43 1.6a.52.52 0 0 0 .39.86c.03 0 .07 0 .1-.01.11-.02.21-.08.29-.17.8-.93.84-1.84.67-2.49 0-.01 0-.01.01-.01.72-.25 1.38-.68 1.83-1.16.2-.21.19-.54-.02-.74a.543.543 0 0 0-.36-.14c-.14 0-.28.05-.38.16-.61.65-1.58 1.06-2.38 1.06-.22 0-.42-.03-.6-.09-.64-.22-1.01-.8-1.1-1.73-.07-.65.08-1.15.43-1.51.59-.6 1.7-.73 2.38-.73.11 0 .21 0 .29.01.44.24 2.61 1.55 3.43 4.47.97 3.46-.22 7.82-3.55 12.95 0 0-.01.01-.01.02l-.01.01c-.03.04-.47.74-1.97 1.03a.52.52 0 0 0 .1 1.03c.03 0 .07 0 .1-.01.87-.17 1.48-.47 1.9-.75l.13.66 4.41 22.43c0 .01 0 .01-.01.01l-2.04-.66a.453.453 0 0 0-.16-.03c-.19 0-.37.1-.46.27l-1.83 3.28c0 .01-.01.01-.01.01-.12-.12-2.32-2.25-2.5-2.25-.16.02-.3.11-.39.25l-2.53 4.36-.01.01h-.01l-2.73-2.04v-.01l-4.4-22.36c0-.01 0-.01.01-.01.2.02.43.04.68.04.34 0 .72-.03 1.11-.11.72-.14 1.5-.45 2.23-1.04.22-.18.26-.51.07-.73a.516.516 0 0 0-.73-.07c-.9.73-1.93.91-2.7.91-.63 0-1.1-.12-1.18-.14-.36-.14-8.81-3.44-13.97-11.57-.91-1.43-.79-3.29.28-4.51.5-.57 1.07-.86 1.73-.86.4 0 .82.1 1.29.31 1.14.47 1.31 1.07 1.31 1.07.56 1.8 2.15 6.44 3.23 7.15a.53.53 0 0 0 .74 0c.2-.2.2-.53 0-.74-.96-.94-1.44-1.9-1.76-2.85 0-.01 0-.01.01-.02.69-.32 1.94-1.1 2.95-2.83 1.3-2.21 2.41-6.37.83-13.9.06 0-.5-2.15-.6-2.54l-1.15-3.96a3.636 3.636 0 0 0 1.12-.03c.54-.11 1.1-.38 1.54-.94.18-.23.13-.55-.1-.73a.539.539 0 0 0-.32-.11c-.16 0-.31.07-.41.2-.36.47-.89.6-1.36.6-.39 0-.73-.09-.91-.14h-.01c-.59-.73-1.77-2.51-1.45-3.67.13-.46.49-.79 1.12-1.02.37-.08.76-.15 1.13-.15m0-.78c-.46 0-.93.09-1.42.25-.88.31-1.43.83-1.62 1.55-.46 1.7 1.25 3.93 1.6 4.36l.07.09.23.79 1.15 3.96c.12.45.27 1.05.39 1.54l.2.94c1.54 7.37.45 11.32-.74 13.34-.92 1.56-2.03 2.25-2.61 2.51l-.06.03c-.36-.94-.73-2-1.07-3.1-.06-.21-.38-1-1.76-1.56-.54-.24-1.08-.37-1.58-.37-.89 0-1.67.38-2.32 1.13-1.3 1.49-1.44 3.73-.35 5.45 5.3 8.35 13.98 11.74 14.35 11.88l.08.02h.02l-.15.18.07.37 4.4 22.35.06.29.24.19 2.73 2.04.21.16h.72l.24-.39 2.3-3.97c.47.42 1.22 1.13 1.89 1.78l.23.22h.78l.23-.41 1.73-3.1 1.85.6.12.04h.5l.24-.29.23-.29-.07-.37-4.41-22.43-.13-.66-.17-.84c3.42-5.3 4.62-9.84 3.59-13.5a8.37 8.37 0 0 0-3.7-4.88l.05-.11c1.2-2.64 1.36-4.97.48-6.9-1.22-2.67-4.06-3.77-4.86-4.04l.02-.23c.36-4.62-.75-7.46-3.1-8.01-.23-.05-.46-.08-.7-.08-.38 0-.78.06-1.18.19-1.07.34-1.73.93-1.99 1.74-.52 1.66.94 3.7 1.11 3.92l.08.11.12.08c.03.02.07.04.11.07l-.23.26.04.36c.45 3.54.69 6.14.64 7.12-.16.91-.49 1.48-.97 1.66-.12.04-.24.07-.38.07-.51 0-1.06-.31-1.35-.52-.16-8.13-1.53-13.15-4.08-14.93-.65-.44-1.35-.66-2.1-.66zm12.99 18.14c-.13 0-.26-.04-.38-.11-.25-.15-.35-.53-.24-.87l.63-1.94.02-.06c.08.04.15.07.23.11.35.15.7.23 1.06.25l-.59 1.89c-.19.36-.4.6-.49.69-.04.01-.08.03-.12.03-.03.01-.07.01-.12.01z" fill="#709921"/><path d="M106.53 117.91c0 .33.26.59.58.6h.02c.31-.01.57-.26.57-.58.08-6.05 3.79-7.03 3.83-7.04.32-.08.51-.4.43-.71a.584.584 0 0 0-.71-.43c-.18.04-4.62 1.21-4.72 8.16z" fill="#709921"/><path d="M39.15 106.04c-.8-.92-1.79-1.1-3.02-.55-.53.31-.9.66-1.18 1.06-.13.33-.88 2.51.99 5.06.17.23.12.56-.11.73-.12.09-.27.12-.41.09a.505.505 0 0 1-.32-.2c-.66-.9-1.04-1.77-1.25-2.56-.35 1.28-.87 2.68-2.26 4.05-.2.2-.53.2-.74 0-.2-.2-.2-.53 0-.74.96-.95 1.44-1.91 1.77-2.86-.69-.32-1.94-1.09-2.96-2.83-1.3-2.21-2.41-6.37-.83-13.9-.07.02-.13.04-.21.05-.36.08-.73.07-1.13 0-.58-.11-1.2-.4-1.86-.85a.507.507 0 0 1-.13-.72c.16-.24.49-.3.72-.13.83.57 1.57.81 2.16.69.43-.09.67-.34.76-.44.09-.37.18-.75.29-1.13l1.15-3.96c-.33.04-.72.05-1.12-.03-.54-.11-1.1-.37-1.54-.94a.525.525 0 0 1 .1-.73c.23-.17.55-.13.73.1.66.86 1.89.57 2.27.46.59-.72 1.77-2.51 1.46-3.67-.13-.46-.49-.79-1.12-1.02-1.03-.36-1.97-.26-2.79.31-1.61 1.12-3.57 4.54-3.75 14.43 0 .15-.07.3-.19.39-.14.11-1.4 1.1-2.59.66-.76-.28-1.26-1.05-1.47-2.29 0-.02-.01-.04-.01-.06-.07-1.45.41-5.45.64-7.27-.54.14-1.32.22-2.38.01-.18-.04-.37-.08-.57-.13a.523.523 0 0 1 .27-1.01c1.87.5 2.77.02 2.95-.1.43-.58 1.33-2.13.99-3.23-.18-.56-.66-.96-1.48-1.23-.52-.17-1.03-.2-1.47-.1-2.65.61-2.67 4.95-2.5 7.19.49.08 1.27.31 1.85.93.54.59.79 1.38.71 2.35-.09 1.25-.7 2.39-1.62 3.12l.66 2.04c.25.76-.15 1.56-.91 1.83a1.443 1.443 0 0 1-1.38-.22c-.1.09-.23.17-.37.24-.3.13-.63.16-.99.09-.2-.04-.4-.11-.62-.21a.52.52 0 0 1 .44-.94c.22.1.52.2.75.11.11-.05.18-.14.23-.21l-.61-1.97c-.55-.1-1.08-.35-1.55-.74-.22-.18-.25-.51-.07-.73s.51-.25.73-.07c.69.58 1.56.7 2.39.35 1.05-.45 1.79-1.53 1.88-2.77.05-.67-.1-1.19-.43-1.56-.49-.53-1.27-.63-1.51-.64-.49.15-3.35 1.13-4.5 3.65-.79 1.73-.62 3.83.48 6.26.72-.01 2.28.08 3.23 1.03.58.59.83 1.37.73 2.35-.18 1.8-1.21 2.41-1.8 2.61-.39.13-.8.17-1.21.14-.11.32-.17.9.43 1.6a.52.52 0 0 1-.49.85.512.512 0 0 1-.29-.17c-.81-.93-.84-1.85-.66-2.5-.73-.25-1.39-.68-1.84-1.16a.522.522 0 1 1 .76-.72c.78.83 2.12 1.26 2.98.97.64-.22 1.01-.8 1.1-1.73.07-.65-.08-1.15-.43-1.51-.69-.7-2.08-.76-2.67-.72-.43.24-2.61 1.55-3.43 4.47-.98 3.45.21 7.81 3.55 12.94 0 0 .01.01.01.02l.01.01c.03.04.47.74 1.97 1.03a.52.52 0 0 1-.2 1.02c-.87-.17-1.48-.47-1.9-.75l-.14.67 2.05 1.91a6.344 6.344 0 0 1 1.91 5.88l-.42 2.12c-.16.81-.95 1.34-1.76 1.18s-1.35-.95-1.19-1.77l.3-1.53c.01-.06-.02-.13-.06-.15-.05-.02-.09 0-.11.01-.01.01-.04.03-.04.07l-1.32 6.71a3.75 3.75 0 0 1-2.77 2.91l-1 5.1 2.07-.67c.24-.08.49.02.61.24l1.85 3.31 2.07-2.11c.11-.12.28-.17.44-.15s.3.11.38.25l2.54 4.37 2.74-2.05 3.01-15.33-3.35-.66c-.81-.16-1.44-.72-1.7-1.5s-.09-1.6.46-2.2c1.62-1.8 4.17-1.95 5.81-1.83l.17-.86c-.47.05-1.11.07-1.81-.07-.72-.14-1.5-.45-2.23-1.04a.512.512 0 0 1-.07-.73c.18-.22.51-.26.73-.07 1.64 1.34 3.7.82 3.88.77.35-.14 8.81-3.44 13.97-11.57.9-1.41.79-3.27-.29-4.5zm-19.62 12.65h-.02a.51.51 0 0 1-.41-.59c.83-5.27-2.25-6.68-2.28-6.69-.26-.11-.38-.42-.27-.68s.42-.38.68-.27c.16.07 3.84 1.75 2.89 7.8-.04.28-.31.48-.59.43z" fill="none"/><path d="M16.25 95.8c.27-.04.53-.12.8-.23l.59 1.82a.421.421 0 1 1-.8.26l-.59-1.85z" fill="none"/><path d="M40.31 111.11c-4.97 7.82-12.66 11.25-14.23 11.88l-.35 1.79L24.7 130l-3.15 16.04a.52.52 0 0 1-.2.32l-3.37 2.52c-.12.09-.27.12-.41.09a.528.528 0 0 1-.35-.25l-2.48-4.28-2.08 2.11c-.11.12-.28.17-.44.15s-.31-.12-.38-.26l-1.98-3.54-2.51.81c-.18.06-.37.02-.51-.11a.531.531 0 0 1-.17-.49l1.24-6.3 3.29-16.73.33-1.69c-3.42-5.33-4.62-9.92-3.56-13.65.81-2.85 2.73-4.34 3.61-4.89-1.19-2.67-1.33-5.03-.42-7.02 1.19-2.59 3.8-3.74 4.82-4.1-.39-4.78.78-7.73 3.3-8.31.63-.14 1.33-.1 2.02.12 1.15.37 1.88 1.01 2.16 1.91.52 1.66-.76 3.61-1.12 4.11-.12.9-.81 6.18-.74 7.84.11.58.33 1.28.81 1.46.44.17 1.05-.13 1.39-.35.17-8.14 1.58-13.19 4.19-15 1.09-.76 2.38-.91 3.73-.44.97.34 1.57.92 1.79 1.73.49 1.83-1.25 4.11-1.69 4.64l-1.37 4.69c-2.23 8.44-1.28 12.95-.09 15.25.87 1.67 1.96 2.42 2.57 2.73.04-.14.07-.29.11-.43.4-1.58.78-3.07 2.6-4.11.01-.01.03-.02.04-.02 2.1-.95 3.47-.09 4.25.8 1.38 1.58 1.53 3.95.38 5.76z" fill="none" stroke="#709921" stroke-linecap="round" stroke-linejoin="round" stroke-miterlimit="10" stroke-width=".782"/><linearGradient id="k" x1="150.45" x2="150.45" y1="83.986" y2="147.77" gradientTransform="rotate(11.128 108.356 -537.776)" gradientUnits="userSpaceOnUse"><stop stop-color="#68E005" offset="0"/><stop stop-color="#6EDB0B" offset=".071"/><stop stop-color="#7FCB1C" offset=".349"/><stop stop-color="#89C227" offset=".647"/><stop stop-color="#8CBF2A" offset="1"/></linearGradient><path d="M17.62 148.08l-.13-.18-2.55-4.39c-.33.26-1.21 1.07-2.26 2.09l-.11.11-.17.01h-.23l-1.95-3.5a.139.139 0 0 0-.12-.07l-2.14.69h-.25l-.24-.29.03-.19 4.66-23.68.49.34c.46.32 1.05.55 1.75.69h.01c.08 0 .13-.04.15-.1.01-.07-.03-.14-.1-.15-1.65-.33-2.17-1.13-2.23-1.22-3.41-5.25-4.62-9.71-3.61-13.29.86-3.07 3.17-4.46 3.62-4.71l.09-.05h.1c.06-.01.17-.01.29-.01.55 0 1.9.08 2.65.84.44.44.62 1.06.54 1.82-.14 1.37-.82 1.88-1.36 2.06-.22.07-.46.11-.73.11-.94 0-1.99-.46-2.67-1.19-.03-.04-.07-.04-.09-.04-.14.08-.14.16-.09.22.42.45 1.03.83 1.68 1.06l.31.11-.05.34c-.12.45-.2 1.27.58 2.17l.1.04.13-.12c-.78-.95-.67-1.71-.54-2.08l.1-.28.3.02c.08.01.16.01.24.01.29 0 .57-.04.82-.13.51-.17 1.38-.7 1.54-2.28.09-.85-.12-1.53-.62-2.03-.79-.8-2.12-.91-2.85-.91-.26 0-.41-.1-.47-.25-1.14-2.52-1.3-4.73-.47-6.56 1.21-2.66 4.16-3.68 4.74-3.86l.07-.02.07.01c.34.03 1.2.15 1.76.77.41.45.59 1.07.54 1.85-.1 1.38-.93 2.6-2.12 3.1-.35.15-.72.23-1.08.23-.62 0-1.21-.22-1.71-.64-.04-.01-.08-.02-.1-.02-.04 0-.06.01-.08.04-.04.05-.04.14.02.18.41.34.87.56 1.37.66l.25.05.07.25.61 1.94c.25.5.58.81.63.85.06.03.15.06.25.08.07.01.13.02.2.02.2 0 .41-.06.59-.17.4-.25.57-.8.4-1.32l-.71-2.21.23-.18c.84-.67 1.38-1.7 1.46-2.83.06-.86-.14-1.55-.61-2.06-.49-.52-1.15-.73-1.62-.81l-.33-.05-.01-.34c-.2-2.52-.09-6.9 2.8-7.57.2-.04.4-.07.62-.07.34 0 .7.06 1.06.17.95.3 1.52.79 1.73 1.48.46 1.47-.89 3.36-1.05 3.57l-.11.1c-.18.12-.7.38-1.62.38-.5 0-1.05-.08-1.63-.24h-.02c-.07 0-.12.03-.14.09-.02.07.02.14.09.16.19.05.37.09.54.13.41.08.8.12 1.17.12s.71-.04 1.02-.12l.05-.01h.23l.24.26-.02.18c-.22 1.69-.71 5.77-.64 7.2.19 1.1.61 1.77 1.23 2 .16.06.33.09.51.09.85 0 1.66-.66 1.7-.68.03-.02.05-.06.05-.1.18-10.05 2.23-13.56 3.92-14.74.57-.39 1.19-.59 1.86-.59.41 0 .85.08 1.29.23.75.26 1.21.7 1.37 1.28.42 1.54-1.33 3.77-1.53 4.02l-.07.09-.11.04c-.21.06-.59.16-1.03.16-.72 0-1.3-.26-1.67-.75-.04-.05-.08-.05-.1-.05l-.13.11c.35.52.79.79 1.33.89.19.04.38.05.56.05.15 0 .3-.01.44-.03l.59-.07-1.32 4.53a66.1 66.1 0 0 0-.51 2.04h.02l-.1.47c-1.57 7.49-.44 11.54.78 13.62.97 1.65 2.16 2.38 2.78 2.67l.3.14-.09.34c-.42 1.23-.99 2.16-1.86 3.02-.04.04-.04.14 0 .18l.09.04.03-.03.12-.06c.75-.5 2.12-3.87 3.07-6.95.04-.13.31-.82 1.53-1.32.5-.22.98-.34 1.43-.34.77 0 1.45.33 2.03.99 1.18 1.36 1.31 3.41.31 4.98-5.23 8.24-13.8 11.58-14.16 11.72-.17.05-.66.17-1.32.17-.79 0-1.94-.17-2.95-1-.04-.01-.07-.02-.1-.02-.04 0-.06.01-.08.04-.04.05-.03.14.02.18.6.49 1.29.81 2.06.96.33.07.68.1 1.04.1.23 0 .45-.01.64-.04l.2-.02.26.29-.02.19-4.43 22.55-.14.1-2.82 2.1h-.38z" fill="url(#k)"/><path d="M30.22 80.84c.37 0 .76.07 1.16.21.63.22 1 .55 1.12 1.02.31 1.16-.87 2.94-1.45 3.67h-.01c-.17.05-.52.14-.91.14-.47 0-1-.13-1.36-.6-.1-.13-.26-.2-.41-.2a.523.523 0 0 0-.42.84c.43.57.99.84 1.54.94a3.548 3.548 0 0 0 1.12.03l-1.15 3.96c-.1.38-.66 2.54-.6 2.54-1.58 7.53-.47 11.69.83 13.9 1.02 1.73 2.26 2.51 2.95 2.83.01 0 .01.01.01.02-.32.95-.81 1.9-1.76 2.85a.522.522 0 1 0 .74.74c1.08-.71 2.67-5.35 3.23-7.15 0 0 .17-.6 1.31-1.07.46-.21.89-.31 1.29-.31.66 0 1.23.29 1.73.86 1.07 1.23 1.18 3.08.28 4.51-5.16 8.12-13.61 11.43-13.97 11.57-.08.02-.55.14-1.18.14-.77 0-1.8-.17-2.7-.91a.516.516 0 0 0-.73.07c-.18.22-.15.55.07.73.73.6 1.51.9 2.23 1.04a5.702 5.702 0 0 0 1.79.07c.01 0 .01.01.01.01l-4.4 22.36v.01l-2.73 2.04h-.01s-.01 0-.01-.01l-2.53-4.36a.48.48 0 0 0-.38-.25c-.17 0-2.37 2.13-2.5 2.25l-.01-.01-1.83-3.28a.542.542 0 0 0-.46-.27c-.05 0-.11.01-.16.03l-2.04.66c-.01 0-.01-.01-.01-.01L12.29 120l.13-.66c.41.29 1.02.58 1.9.75a.522.522 0 0 0 .61-.41.516.516 0 0 0-.41-.61c-1.5-.3-1.94-.99-1.97-1.03 0-.01-.01-.01-.01-.01 0-.01-.01-.01-.01-.02-3.33-5.14-4.53-9.49-3.55-12.95.82-2.91 3-4.23 3.43-4.47.08-.01.18-.01.29-.01.67 0 1.78.13 2.38.73.36.36.5.85.43 1.51-.1.93-.47 1.52-1.1 1.73-.18.06-.39.09-.6.09-.8 0-1.77-.41-2.38-1.06a.507.507 0 0 0-.38-.16c-.13 0-.26.05-.36.14-.21.2-.22.53-.02.74.45.48 1.11.91 1.83 1.16.01 0 .01.01.01.01-.18.64-.14 1.56.67 2.49a.512.512 0 0 0 .73.05c.22-.19.24-.52.05-.73-.6-.7-.54-1.28-.43-1.6.09.01.18.01.27.01.32 0 .64-.05.94-.15.59-.2 1.62-.81 1.8-2.61.1-.97-.15-1.76-.73-2.35-.9-.9-2.37-1.03-3.12-1.03h-.1s-.01 0-.01-.01c-1.1-2.43-1.26-4.53-.48-6.25 1.15-2.52 4.01-3.5 4.5-3.65.23.02 1.01.11 1.51.64.34.37.48.89.43 1.56-.09 1.24-.83 2.32-1.88 2.77-.31.13-.62.2-.93.2-.52 0-1.03-.19-1.46-.55a.537.537 0 0 0-.33-.12.521.521 0 0 0-.33.92c.47.39.99.64 1.55.74 0 0 .01 0 .01.01l.61 1.97c.31.63.72 1.02.8 1.07.12.06.25.1.38.13.09.02.19.03.28.03.27 0 .54-.08.79-.23.58-.36.78-1.12.57-1.78l-.63-1.94v-.01c.92-.73 1.52-1.86 1.62-3.11.07-.97-.17-1.76-.71-2.35-.57-.62-1.34-.84-1.84-.93-.01 0-.01 0-.01-.01-.17-2.25-.15-6.58 2.5-7.19.17-.04.35-.06.53-.06.3 0 .62.05.94.16.82.26 1.3.66 1.48 1.23.34 1.1-.56 2.65-.99 3.23-.12.08-.57.32-1.41.32-.41 0-.92-.06-1.53-.22-.05-.01-.09-.02-.14-.02-.23 0-.44.15-.5.39-.07.28.09.56.37.64.2.05.39.1.57.13.47.09.88.13 1.25.13.45 0 .82-.06 1.12-.13.01 0 .01.01.01.01-.24 1.84-.71 5.81-.64 7.26 0 .02 0 .04.01.06.22 1.23.71 2 1.47 2.29.22.08.44.11.65.11.96 0 1.83-.68 1.94-.77.12-.1.19-.24.19-.39.18-9.89 2.14-13.3 3.75-14.43.49-.38 1.03-.56 1.62-.56m0-.78c-.75 0-1.45.22-2.08.66-2.55 1.78-3.93 6.8-4.08 14.93-.29.21-.85.52-1.35.52-.14 0-.26-.02-.38-.06-.48-.18-.81-.75-.98-1.69-.05-.95.19-3.54.64-7.09l.04-.35-.23-.27c.04-.02.08-.04.11-.06l.12-.08.09-.12c.17-.23 1.62-2.27 1.11-3.92-.25-.81-.92-1.4-1.99-1.74-.4-.13-.8-.19-1.18-.19-.24 0-.48.03-.7.08-2.36.54-3.46 3.39-3.1 8.01l.02.23c-.81.27-3.65 1.37-4.86 4.04-.88 1.94-.72 4.26.48 6.9l.05.11c-.66.38-2.85 1.86-3.7 4.88-1.03 3.66.18 8.21 3.59 13.5l-.17.84-.13.66-4.41 22.43-.07.36.24.3.23.29h.5l.12-.04 1.85-.6 1.73 3.1.22.4.47.01h.32l.23-.22c.67-.65 1.42-1.36 1.89-1.78l2.3 3.96.23.39.46.01h.26l.22-.16 2.73-2.04.24-.18.06-.3 4.4-22.36.07-.36-.15-.19h.02l.08-.02c.37-.14 9.05-3.53 14.35-11.88 1.09-1.72.95-3.96-.35-5.45-.65-.75-1.43-1.13-2.32-1.13-.5 0-1.04.13-1.6.38-1.35.55-1.67 1.34-1.74 1.57-.34 1.1-.71 2.15-1.07 3.09l-.06-.03c-.58-.27-1.69-.95-2.61-2.51-1.19-2.02-2.28-5.97-.73-13.34l.2-.94c.12-.49.28-1.1.4-1.55l1.38-4.74.07-.09c.34-.43 2.06-2.66 1.6-4.36-.19-.72-.74-1.24-1.62-1.55-.53-.17-1-.26-1.46-.26zM15.91 95.58c.36-.02.72-.11 1.06-.25.08-.03.15-.07.23-.11l.02.06.63 1.94c.11.34.01.72-.24.87a.67.67 0 0 1-.38.11c-.04 0-.09 0-.13-.01l-.12-.03c-.09-.09-.3-.33-.49-.69l-.58-1.89z" fill="#709921"/><path d="M21.47 117.91c0 .33-.26.59-.58.6h-.02a.585.585 0 0 1-.57-.58c-.08-6.05-3.79-7.03-3.83-7.04a.584.584 0 0 1-.43-.71c.08-.32.4-.51.71-.43.18.04 4.62 1.21 4.72 8.16z" fill="#709921"/></g></svg>