<svg viewBox="0 0 128 128" xmlns="http://www.w3.org/2000/svg"><path d="M28.08 93.91c-6.94 0-12.58-6.25-12.58-13.92s5.64-13.92 12.58-13.92h71.84c6.94 0 12.58 6.25 12.58 13.92s-5.64 13.92-12.58 13.92H28.08z" fill="#7A4C32"/><path d="M99.92 67.57c6.11 0 11.08 5.57 11.08 12.42s-4.97 12.42-11.08 12.42H28.08C21.97 92.41 17 86.84 17 79.99s4.97-12.42 11.08-12.42h71.84m0-3H28.08C20.34 64.57 14 71.51 14 79.99s6.34 15.42 14.08 15.42h71.84c7.75 0 14.08-6.94 14.08-15.42s-6.34-15.42-14.08-15.42z" fill="#663B22"/><linearGradient id="a" x1="64" x2="64" y1="122.57" y2="14.429" gradientUnits="userSpaceOnUse"><stop stop-color="#8D5738" offset="0"/><stop stop-color="#97603D" offset=".216"/><stop stop-color="#A26941" offset=".573"/><stop stop-color="#A56C43" offset="1"/></linearGradient><path d="M64 122.43c-27.45 0-42.56-17.95-42.56-50.54 0-19 2.88-32.73 8.79-42C37.05 19.23 48.09 14.04 64 14.04s26.95 5.18 33.77 15.85c5.92 9.26 8.79 23 8.79 42 0 32.59-15.11 50.54-42.56 50.54z" fill="url(#a)"/><path d="M64 15.54c28.78 0 41.06 16.85 41.06 56.35 0 31.63-14.58 49.04-41.06 49.04s-41.06-17.42-41.06-49.04c0-39.5 12.28-56.35 41.06-56.35m0-3c-34.67 0-44.06 24.33-44.06 59.35 0 34.83 17.06 52.04 44.06 52.04s44.06-17.22 44.06-52.04c0-35.02-9.39-59.35-44.06-59.35z" fill="#875334"/><g fill="none" stroke="#875334" stroke-linecap="round" stroke-linejoin="round" stroke-miterlimit="10" stroke-width="3"><path d="M42.98 57.87s8.69-3.44 20.69-3.44 21.36 3.44 21.36 3.44M49.03 49.46S56 47.25 64 47.25s14.97 2.21 14.97 2.21"/></g><g fill="none" stroke="#875334" stroke-linecap="round" stroke-linejoin="round" stroke-miterlimit="10" stroke-width="3"><path d="M48.22 86.81c-3.48 2.94-9.13 2.94-12.62 0M92.4 86.81c-3.48 2.94-9.13 2.94-12.62 0"/></g><g fill="none" stroke="#875334" stroke-linecap="round" stroke-linejoin="round" stroke-miterlimit="10" stroke-width="3"><path d="M50.16 94.28l-9.53 9.53M77.84 94.28l9.53 9.53"/></g><path d="M95.75 65.29c-1.23-1.63-4.09-4.01-9.62-4.01s-8.39 2.38-9.62 4.01c-.55.72-.41 1.56-.03 2.06.35.47 1.39.9 2.53.51s3.38-1.54 7.12-1.57c3.74.03 5.98 1.18 7.12 1.57s2.18-.05 2.53-.51c.37-.5.51-1.34-.03-2.06zM51.89 65.29c-1.23-1.63-4.09-4.01-9.62-4.01s-8.39 2.38-9.62 4.01c-.55.72-.41 1.56-.03 2.06.35.47 1.39.9 2.53.51s3.38-1.54 7.12-1.57c3.74.03 5.98 1.18 7.12 1.57s2.18-.05 2.53-.51c.37-.5.51-1.34-.03-2.06z" fill="#9E9E9E"/><g fill="#42312C"><ellipse cx="42.26" cy="77.34" rx="6.48" ry="6.71"/><ellipse cx="86.12" cy="77.34" rx="6.48" ry="6.71"/></g><path d="M69.07 89.56a1.63 1.63 0 0 0-.42-.11h-9.3c-.14.02-.28.05-.42.11-.84.34-1.31 1.22-.91 2.14.4.93 2.25 3.54 5.98 3.54s5.58-2.61 5.98-3.54-.06-1.8-.91-2.14z" fill="#875334"/><path d="M75.01 99.97c-4.19 2.49-17.91 2.49-22.1 0-2.4-1.43-4.86.76-3.86 2.94.98 2.15 8.47 7.13 14.95 7.13 6.47 0 13.87-4.98 14.85-7.13.99-2.19-1.43-4.37-3.84-2.94z" fill="#473530"/><radialGradient id="b" cx="63.063" cy="18.974" r="48.147" gradientUnits="userSpaceOnUse"><stop stop-color="#D1D1D1" offset="0"/><stop stop-color="#9E9E9E" offset="1"/></radialGradient><path d="M64 4.17c-23.88.08-26.36 11.38-27 11.25C30.12 14 20.68 19.31 15.5 28.5c-13.38 23.75 2.99 42.49 3.33 44.58 1.79 10.79 2.67 12.67 2.67 12.67s.53-14.84 8.62-24.5c5.17-6.17 10.12-19.75 10.12-19.75s14.53 5.32 25.58 11.83C75.17 58.83 81 66 81 66s1.75-5.5.38-11.25C78.42 42.4 66.83 36.83 66.83 36.83s5.79 1.66 13.67 8.79c17.38 15.75 22 44.38 22 44.38 5.96-5.54 15.88-19 14.67-39-.61-9.98-9.92-46.98-53.17-46.83z" fill="url(#b)"/><path d="M40.05 16.29c3.53-6.03 11.59-9.23 23.96-9.23h.25c17.4 0 30.85 6.3 39.95 18.55 7.23 9.73 9.68 21.17 10.04 26.07 1.12 15.31-6.75 28.38-12.56 34.62.21 1.19.75 3.02.81 3.81 6.71-5.75 15.79-20.51 14.67-39.15-.6-9.96-9.88-46.92-52.9-46.92H64c-23.74 0-26.33 11.33-26.99 11.33l-.01.04c-.84-.17-1.75-.24-2.72-.24-6.9 0-13.23 4.37-18.12 12.23-14.5 23.33 2.32 43.62 2.67 45.71C20.62 83.92 21.5 85.8 21.5 85.8s.12-3.37 1.12-7.94c-.37-2.25-.72-4.09-1.19-6.59-.27-.48-15.35-21.52-2.93-41.77 4.26-6.95 9.9-11.29 15.78-11.29.77 0 1.48.07 2.11.2.2.04.41.06.62.06 1.81 0 2.65-1.5 3.04-2.18z" fill="gray"/></svg>