<svg viewBox="0 0 128 128" xmlns="http://www.w3.org/2000/svg" xmlns:xlink="http://www.w3.org/1999/xlink"><defs><path id="a" d="M4 4h120v120H4z"/></defs><clipPath id="b"><use xlink:href="#a"/></clipPath><g clip-path="url(#b)" opacity=".45"><path d="M18.04 143.5c-11-1-23-1-32-10-5-5-9-11-11-18-2-8-4-16-3-24 1-7 3-14 6-21 2-4 5-8 8-11 7-6 14-11 22-15 16-8 15-28 3-39-1-1-2-1-3-2-1-2-3-5-2-6 2-10 15-3 23-4 5 0 10 3 14 6 12 9 18 23 18 38-1 7-1 15-4 22l-6 12c-1 2-2 3-4 5-5 4-9 8-14 11-8 4-18 8-20 18-3 13 8 22 14 32v3c-2 2-5 4-9 3z" fill="#83D3F7"/></g><g clip-path="url(#b)" opacity=".45"><path d="M93.38-6.67c10 0 20 0 30 3 28 7 36 40 33 66-1 5-2 10-4 15-4 9-9 16-15 23-9 9-20 13-31 21-21 14-6 40 10 53 1 2 4 6 1 6-14 4-28 3-42-2-4-1-8-3-11-6-12-12-18-27-19-43 0-8 0-15 2-23 1-5 3-9 5-14 3-6 7-12 12-17 10-8 20-13 31-21 21-14 7-40-10-53-1-1-2-3-2-4 1-4 6-4 10-4z" fill="#3BBCF7"/></g><g clip-path="url(#b)"><radialGradient id="c" cx="64" cy="62.691" r="48.721" gradientUnits="userSpaceOnUse"><stop stop-color="#444140" offset="0"/><stop stop-color="#232020" offset="1"/></radialGradient><path d="M47.02 119.76s-6.8-.35-10.21-5.09c-7.37-10.23-11.42-35.81-11.42-72.02 0-1.66.26-16.4 10.66-26.83C42.8 9.05 52.4 5.62 64.57 5.62c12.08 0 21.52 3.38 28.05 10.04 9.82 10.02 10.04 24.16 9.99 26.89 0 36.31-4.06 61.89-11.42 72.12-3.3 4.59-9.79 5.06-10.25 5.09L64 119.73l-16.98.03z" fill="url(#c)"/><path d="M64.57 7.12c11.66 0 20.74 3.23 26.98 9.59 9.6 9.8 9.59 24.2 9.56 25.81v.12c0 35.9-3.96 61.17-11.14 71.15-2.84 3.94-8.55 4.43-9.08 4.46l-16.9-.03-16.88.03c-.58-.04-6.25-.54-9.08-4.46-7.18-9.98-11.14-35.24-11.14-71.17 0-.63.08-15.58 10.22-25.75 6.46-6.46 15.7-9.75 27.46-9.75m0-3c-41.01 0-40.68 37.92-40.68 38.52 0 24.56 1.88 59.25 11.71 72.9 3.9 5.41 11.43 5.71 11.43 5.71l16.97-.02 16.97.03s7.53-.3 11.43-5.71c9.83-13.65 11.71-48.34 11.71-72.9-.01-.61 1.47-38.53-39.54-38.53z" fill="#1F1D1B"/></g><g clip-path="url(#b)"><path d="M13 133v-10.01c0-19.29 32.14-23 41.99-23.67.52-.04.93-.47.93-1v-7.24h16.17v7.26c0 .52.4.96.93 1 19.37 1.44 41.99 8.5 41.99 23.66v10H13z" fill="#3C2B24"/><path d="M71.08 92.08v6.26c0 1.05.81 1.92 1.85 1.99 18.94 1.41 41.07 8.19 41.07 22.66V132H14v-9.01c0-6.54 4.02-11.88 11.95-15.89 7.18-3.63 17.24-5.97 29.11-6.79 1.05-.07 1.86-.94 1.86-2v-6.24h14.16m2-1.99H54.92v8.24C32.49 99.86 12 107.21 12 122.99V134h104v-11.01c0-14.91-20.39-22.98-42.92-24.65v-8.26z" fill="#291B16"/></g><g clip-path="url(#b)"><path d="M25.21 136.33v-7.9c0-6.44 4.76-11.72 11.06-12.29 8.47-.76 17.88-1.15 27.97-1.15 2.5 0 4.16.06 5.77.12 1.47.06 2.86.11 4.75.11 3.55 0 7.03 2.1 7.07 2.12.16.1.34.15.52.15.15 0 .3-.03.44-.1 1.45-.71 3.87-1.72 4.74-1.72 1.66 0 3.63.21 4.99.38 5.95.75 10.43 6.07 10.43 12.37v7.91H25.21z" fill="#ECEFF1"/><path d="M64.24 116c2.48 0 4.13.06 5.73.12 1.48.06 2.88.11 4.79.11 3.25 0 6.51 1.95 6.54 1.97a2.005 2.005 0 0 0 1.93.08c1.69-.83 3.74-1.6 4.3-1.62 1.27 0 2.96.13 4.87.37 5.45.69 9.55 5.58 9.55 11.37v6.91H26.21v-6.9c0-5.91 4.36-10.77 10.15-11.29 8.45-.73 17.83-1.12 27.88-1.12m0-2c-11.99 0-21.39.55-28.06 1.15-6.78.61-11.97 6.38-11.97 13.28v8.9h79.75v-8.91c0-6.9-5.03-12.57-11.3-13.36-1.77-.22-3.63-.38-5.12-.38s-5.18 1.82-5.18 1.82-3.7-2.27-7.59-2.27c-3.95 0-5.72-.23-10.53-.23z" fill="#B0BEC5"/><path d="M82.09 117.64c2.84 1.59 2.18 18.86 2.18 18.86M70.79 115.36c6.34 1.46 5.83 16.65 5.83 16.65" fill="none" stroke="#B0BEC5" stroke-linecap="round" stroke-linejoin="round" stroke-miterlimit="10" stroke-width="2"/></g><g clip-path="url(#b)"><linearGradient id="d" x1="64" x2="64" y1="94.708" y2="17.885" gradientUnits="userSpaceOnUse"><stop stop-color="#5C4037" offset="0"/><stop stop-color="#63463D" offset=".158"/><stop stop-color="#6D5047" offset=".533"/><stop stop-color="#70534A" offset="1"/></linearGradient><path d="M64 95.27c-2.3 0-4.91-.5-7.56-1.43C45.1 89.83 31.87 77.5 31.87 55.95c0-28.72 17.31-38.91 32.13-38.91s32.13 10.19 32.13 38.91c0 21.58-13.26 33.9-24.61 37.9-2.63.93-5.23 1.42-7.52 1.42z" fill="url(#d)"/><path d="M64 18.04c8.41 0 16.06 3.25 21.55 9.15 6.27 6.73 9.58 16.68 9.58 28.77 0 21.06-12.9 33.07-23.94 36.96-2.53.89-5.01 1.36-7.19 1.36-2.19 0-4.69-.48-7.23-1.38-11.03-3.9-23.9-15.92-23.9-36.94 0-12.09 3.31-22.03 9.58-28.77 5.49-5.9 13.14-9.15 21.55-9.15m0-2c-17.2 0-33.13 12.79-33.13 39.91 0 21.79 13.49 34.67 25.23 38.83 2.8.99 5.5 1.49 7.9 1.49 2.38 0 5.07-.49 7.85-1.47 11.76-4.14 25.28-17.03 25.28-38.84 0-27.13-15.93-39.92-33.13-39.92z" fill="#4A2F27"/></g><g clip-path="url(#b)"><defs><path id="e" d="M30.41 88.85l-1.5-51.44c0-16.95 15.78-29.85 32.73-29.85h4.93c16.95 0 32.54 12.9 32.54 29.85l-1.5 51.18-67.2.26z"/></defs><clipPath id="f"><use xlink:href="#e"/></clipPath><g clip-path="url(#f)"><radialGradient id="g" cx="36.73" cy="-123.13" r="48.206" gradientTransform="matrix(.796 0 0 .796 34.762 97.597)" gradientUnits="userSpaceOnUse"><stop stop-color="#444140" offset="0"/><stop stop-color="#232020" offset="1"/></radialGradient><path d="M101.89 42.65s1.02-35.57-37.81-35.57-37.97 35.57-37.97 35.57.33 45.48 3.2 51.39 7.2 5.71 7.2 5.71-2.03-26.54-2.26-39.04c-.06-2.92-.94-13.73 5.16-15.09 22.36-5.02 35.01-16.89 35.01-16.89C77.71 35.92 88 42.92 91.69 45.59c3.03 2.19 2.61 11.2 2.55 15.03l-3.05 39.06s4.68.37 7.65-5.64 3.05-51.39 3.05-51.39z" fill="url(#g)"/></g></g><g clip-path="url(#b)"><g fill="#6D4C41"><path d="M54.98 49.82c-.93-1.23-3.07-3.01-7.23-3.01s-6.31 1.79-7.23 3.01c-.41.54-.31 1.17-.02 1.55.26.35 1.04.68 1.9.39s2.54-1.16 5.35-1.18c2.81.02 4.49.89 5.35 1.18s1.64-.03 1.9-.39c.29-.38.39-1.01-.02-1.55zM87.48 49.82c-.93-1.23-3.07-3.01-7.23-3.01s-6.31 1.79-7.23 3.01c-.41.54-.31 1.17-.02 1.55.26.35 1.04.68 1.9.39s2.54-1.16 5.35-1.18c2.81.02 4.49.89 5.35 1.18s1.64-.03 1.9-.39c.29-.38.39-1.01-.02-1.55z"/></g><path d="M72.32 76.14c-3.15 1.87-13.46 1.87-16.61 0-1.81-1.07-3.65.57-2.9 2.21.74 1.61 6.37 5.36 11.23 5.36 4.87 0 10.42-3.75 11.16-5.36.75-1.64-1.08-3.29-2.88-2.21z" fill="#1A1717"/><path d="M67.81 66.05c-.1-.04-.21-.07-.32-.08H60.5c-.11.01-.21.04-.32.08-.63.26-.98.91-.68 1.61s1.69 2.66 4.49 2.66 4.19-1.96 4.49-2.66c.31-.69-.03-1.35-.67-1.61z" fill="#33251F"/><g fill="#1A1717"><path d="M47.63 60.3c-2.06 0-3.9-.5-5.18-1.29-.55-.34-.87-.14-.77.5.37 2.48 2.9 4.4 5.95 4.4 3.06 0 5.58-1.92 5.95-4.4.1-.64-.22-.84-.77-.5-1.28.79-3.12 1.29-5.18 1.29zM80.25 60.3c-2.06 0-3.9-.5-5.18-1.29-.55-.34-.87-.14-.77.5.37 2.48 2.9 4.4 5.95 4.4 3.06 0 5.58-1.92 5.95-4.4.1-.64-.22-.84-.77-.5-1.28.79-3.13 1.29-5.18 1.29zM54.98 49.82c-.93-1.23-3.07-3.01-7.23-3.01s-6.31 1.79-7.23 3.01c-.41.54-.31 1.17-.02 1.55.26.35 1.04.68 1.9.39s2.54-1.16 5.35-1.18c2.81.02 4.49.89 5.35 1.18s1.64-.03 1.9-.39c.29-.38.39-1.01-.02-1.55zM87.48 49.82c-.93-1.23-3.07-3.01-7.23-3.01s-6.31 1.79-7.23 3.01c-.41.54-.31 1.17-.02 1.55.26.35 1.04.68 1.9.39s2.54-1.16 5.35-1.18c2.81.02 4.49.89 5.35 1.18s1.64-.03 1.9-.39c.29-.38.39-1.01-.02-1.55z"/></g></g><g clip-path="url(#b)" opacity=".3"><path d="M97.04 156.5c-8-1-17 1-24-5-11-9-17-22-17-36 0-7 2-14 5-21 2-4 5-8 8-11 4.79-4.79 11.53-8.71 17.52-11.77 5.74-2.94 10.61-5.51 12.6-12.26 1.69-5.73.6-12.03-2.07-17.38-1.64-3.28-3.84-6.25-6.32-8.95-2.05-2.24-3.89-3.98-6.06-6.94-2.72-3.72 4.61-3.29 7.66-3.21 6.14.17 11.67 1.66 17.08 4.62 9.22 5.05 15.16 14.19 18.15 24.07 1.93 6.37 2.79 13.15 2.44 19.81-2.04 14.29-11.23 24.77-23.6 31.13-6.69 3.45-13.86 7.05-17.68 13.54-8.82 14.97 6.52 26.47 14.27 37.33 0 0-1 1-1 2-.99 1.01-2.99 1.01-4.99 1.01z" fill="#fff"/></g><g clip-path="url(#b)" opacity=".35"><path d="M25.04 152.75c-12-2-22-11-24-23-3-9-2-18 4-27 4-5 8-10 13-13 2-1 3-1 5-2l6-6c5-8-2-15-4-23 0-1 1-2 2-3 7-5 15 0 21 5 5 4 9 10 10 16 3 10 1 19-4 28-1 2-3 3-4 5-6 6-15 8-20 15-4 7 0 14 3 20 2 5-3 10-8 8z" fill="#fff"/></g></svg>