<svg viewBox="0 0 128 128" xmlns="http://www.w3.org/2000/svg"><linearGradient id="a" x1="64" x2="64" y1="31.727" y2="97.048" gradientUnits="userSpaceOnUse"><stop stop-color="#616161" offset="0"/><stop stop-color="#5B5B5B" offset=".223"/><stop stop-color="#484848" offset=".536"/><stop stop-color="#2B2B2B" offset=".899"/><stop stop-color="#212121" offset="1"/></linearGradient><path d="M118.01 31.81h-9.52c-2.54 0-4.81 1.61-5.65 4l-12.61 35.8L77.54 35.8a6.007 6.007 0 0 0-5.65-3.99h-9.44c-2.59 0-4.79 1.65-5.63 3.96a5.986 5.986 0 0 0-5.63-3.96H9.99A6 6 0 0 0 4 37.8v2.09a6 6 0 0 0 5.99 5.99h10.26c1.1 0 2 .9 2 2V90.2a6 6 0 0 0 5.99 5.99h4.45a6 6 0 0 0 5.99-5.99V47.88c0-1.1.9-2 2-2H51.2c2.27 0 4.25-1.27 5.27-3.14V90.2a6 6 0 0 0 5.99 5.99h4.45a6 6 0 0 0 5.99-5.99V77.61l-.67-15.4 10.86 30.03a6.015 6.015 0 0 0 5.63 3.95h2.94c2.51 0 4.78-1.59 5.63-3.95l10.9-30.1-.68 15.46v12.6a6 6 0 0 0 5.99 5.99h4.5a6 6 0 0 0 5.99-5.99V37.8c.01-3.3-2.68-5.99-5.98-5.99z" fill="url(#a)"/><path d="M118.01 34.81c1.65 0 2.99 1.34 2.99 2.99v52.4c0 1.65-1.34 2.99-2.99 2.99h-4.5c-1.65 0-2.99-1.34-2.99-2.99V77.71l.67-15.44c.06-1.48-.96-2.79-2.41-3.07-.2-.04-.39-.06-.58-.06-1.24 0-2.38.77-2.82 1.98l-10.9 30.1a3.001 3.001 0 0 1-2.81 1.97h-2.94c-1.26 0-2.39-.79-2.81-1.97L75.05 61.18a3.001 3.001 0 0 0-2.82-1.98c-.19 0-.39.02-.58.06a2.992 2.992 0 0 0-2.41 3.07l.67 15.37v12.5c0 1.65-1.34 2.99-2.99 2.99h-4.45c-1.65 0-2.99-1.34-2.99-2.99V42.74c0-1.37-.93-2.57-2.26-2.91-.25-.06-.49-.09-.74-.09-1.08 0-2.1.58-2.63 1.57-.53.97-1.54 1.57-2.63 1.57H40.68c-2.76 0-5 2.24-5 5V90.2c0 1.65-1.34 2.99-2.99 2.99h-4.45c-1.65 0-2.99-1.34-2.99-2.99V47.88c0-2.76-2.24-5-5-5H9.99C8.34 42.88 7 41.54 7 39.89V37.8c0-1.65 1.34-2.99 2.99-2.99h41.2c1.25 0 2.38.8 2.81 1.98a3 3 0 0 0 5.64 0 2.997 2.997 0 0 1 2.81-1.98h9.44a3 3 0 0 1 2.82 1.99L87.4 72.61c.42 1.2 1.56 2 2.83 2s2.4-.8 2.83-2l12.61-35.8c.42-1.19 1.55-2 2.82-2h9.52m0-3h-9.52c-2.54 0-4.81 1.61-5.65 4l-12.61 35.8L77.54 35.8a6.007 6.007 0 0 0-5.65-3.99h-9.44c-2.59 0-4.79 1.65-5.63 3.96a5.986 5.986 0 0 0-5.63-3.96H9.99A6 6 0 0 0 4 37.8v2.09a6 6 0 0 0 5.99 5.99h10.26c1.1 0 2 .9 2 2V90.2a6 6 0 0 0 5.99 5.99h4.45a6 6 0 0 0 5.99-5.99V47.88c0-1.1.9-2 2-2H51.2c2.27 0 4.25-1.27 5.27-3.14V90.2a6 6 0 0 0 5.99 5.99h4.45a6 6 0 0 0 5.99-5.99V77.61l-.67-15.4 10.86 30.03a6.015 6.015 0 0 0 5.63 3.95h2.94c2.51 0 4.78-1.59 5.63-3.95l10.9-30.1-.68 15.46v12.6a6 6 0 0 0 5.99 5.99h4.5a6 6 0 0 0 5.99-5.99V37.8c.01-3.3-2.68-5.99-5.98-5.99z" fill="#eee" opacity=".2"/></svg>