<svg viewBox="0 0 128 128" xmlns="http://www.w3.org/2000/svg"><linearGradient id="a" x1="64" x2="64" y1="15" y2="113.55" gradientUnits="userSpaceOnUse"><stop stop-color="#F5F5F5" offset="0"/><stop stop-color="#F0F0F0" offset=".442"/><stop stop-color="#E0E0E0" offset=".996"/><stop stop-color="#E0E0E0" offset="1"/></linearGradient><circle cx="64" cy="64" r="56" fill="url(#a)"/><linearGradient id="b" x1="64" x2="64" y1="4.314" y2="125.23" gradientUnits="userSpaceOnUse"><stop stop-color="#29B6F6" offset="0"/><stop stop-color="#169FE4" offset=".537"/><stop stop-color="#0288D1" offset=".995"/></linearGradient><path d="M64 16c26.47 0 48 21.53 48 48s-21.53 48-48 48-48-21.53-48-48 21.53-48 48-48m0-12C30.86 4 4 30.86 4 64s26.86 60 60 60 60-26.86 60-60S97.14 4 64 4z" fill="url(#b)"/><path d="M64 16c26.47 0 48 21.53 48 48s-21.53 48-48 48-48-21.53-48-48 21.53-48 48-48m0-3c-28.12 0-51 22.88-51 51s22.88 51 51 51 51-22.88 51-51-22.88-51-51-51z" fill="#424242" opacity=".2"/><g fill="url(#c)"><linearGradient id="c" x1="64" x2="64" y1="4" y2="124" gradientUnits="userSpaceOnUse"><stop stop-color="#29B6F6" offset="0"/><stop stop-color="#169FE4" offset=".537"/><stop stop-color="#0288D1" offset=".995"/></linearGradient><path d="M69 102H59c-1.1 0-2-.9-2-2V52c0-1.1.9-2 2-2h10c1.1 0 2 .9 2 2v48c0 1.1-.9 2-2 2z"/><circle cx="64" cy="35" r="9"/></g><path d="M64 7c31.43 0 57 25.57 57 57s-25.57 57-57 57S7 95.43 7 64 32.57 7 64 7m0-3C30.86 4 4 30.86 4 64s26.86 60 60 60 60-26.86 60-60S97.14 4 64 4z" fill="#424242" opacity=".2"/><g fill="#424242" opacity=".2"><path d="M68 53v46h-8V53h8m1-3H59c-1.1 0-2 .9-2 2v48c0 1.1.9 2 2 2h10c1.1 0 2-.9 2-2V52c0-1.1-.9-2-2-2zM64 29c3.31 0 6 2.69 6 6s-2.69 6-6 6-6-2.69-6-6 2.69-6 6-6m0-3a9 9 0 1 0 .001 18.001A9 9 0 0 0 64 26z"/></g></svg>