<svg viewBox="0 0 128 128" xmlns="http://www.w3.org/2000/svg"><linearGradient id="a" x1="64" x2="64" y1="36.313" y2="92.071" gradientUnits="userSpaceOnUse"><stop stop-color="#fff" offset="0"/><stop stop-color="#ECECEC" offset=".658"/><stop stop-color="#E0E0E0" offset="1"/></linearGradient><path d="M88 92H40c-2.21 0-4-1.79-4-4V40c0-2.21 1.79-4 4-4h48c2.21 0 4 1.79 4 4v48c0 2.21-1.79 4-4 4z" fill="url(#a)"/><path d="M88 39c.55 0 1 .45 1 1v48c0 .55-.45 1-1 1H40c-.55 0-1-.45-1-1V40c0-.55.45-1 1-1h48m0-3H40c-2.21 0-4 1.79-4 4v48c0 2.21 1.79 4 4 4h48c2.21 0 4-1.79 4-4V40c0-2.21-1.79-4-4-4z" fill="#424242" opacity=".2"/></svg>