<svg viewBox="0 0 128 128" xmlns="http://www.w3.org/2000/svg"><linearGradient id="a" x1="63.903" x2="63.903" y1="105.54" y2="5.515" gradientUnits="userSpaceOnUse"><stop stop-color="#E53935" offset=".215"/><stop stop-color="#EF5350" offset=".695"/></linearGradient><path d="M100 14C80.16 6.74 64 27.85 64 27.85S48.53 7.7 28.36 13.95C-3.25 23.75-.42 62.9 15.14 83.02 30.03 102.27 61 121.81 64 123.77v.12c0 .02.01.03.01.03s.02-.03.06-.06c.04.03-.02.06-.02.06s-.05-.01-.05-.03v-.12c3-1.96 33.87-23.01 48.75-42.26 15.56-20.13 18-56.26-12.75-67.51z" fill="url(#a)"/><path d="M91.54 16.48c2.38 0 4.77.43 7.08 1.28 10.15 3.71 16.98 10.78 19.77 20.43 3.66 12.7.02 29.13-9.06 40.88-5.96 7.7-15.73 17.01-28.27 26.92a333.705 333.705 0 0 1-17.6 12.99c-10.88-7.16-33.54-23.05-45.4-38.39-9.3-12.03-12.83-29.8-8.59-43.22 3.06-9.69 10-16.46 20.07-19.58 2.19-.68 4.44-1.02 6.67-1.02 13.98 0 24.52 13.48 24.62 13.61.75.97 1.93 1.62 3.17 1.62s2.41-.66 3.17-1.64c.11-.14 10.81-13.88 24.37-13.88m0-4C75.77 12.48 64 27.85 64 27.85s-11.59-15.1-27.79-15.1c-2.52 0-5.14.36-7.85 1.2C-3.25 23.75-.92 62.9 14.64 83.02 29.53 102.27 60 121.81 63 123.77v.12-.12c3-1.96 34.37-23.01 49.25-42.26C127.81 61.38 130.62 25.25 99.88 14c-2.91-1.06-5.62-1.52-8.34-1.52zm-27.6 111.39c-.03.02-.09.04-.14.05.08-.02.17-.03.14-.05zm-.44.02c0 .02.23.03.23.03h.01c-.06 0-.24-.01-.24-.03zm.31.02c-.03 0-.05.01-.06.01h.02s.01 0 .04-.01z" fill="#424242" opacity=".2"/></svg>