<svg viewBox="0 0 128 128" xmlns="http://www.w3.org/2000/svg" xmlns:xlink="http://www.w3.org/1999/xlink"><linearGradient id="a" x1="-80" x2="-80" y1="3" y2="124.25" gradientUnits="userSpaceOnUse"><stop stop-color="#80D8FF" offset="0"/><stop stop-color="#0091EA" offset="1"/></linearGradient><path d="M-73 11.01C-73 7.14-76.13 4-80 4s-7 3.14-7 7.01c0 2.44 1.25 4.58 3.13 5.84l2.88 106.17c.05 1.32 1.93 1.32 1.97 0l2.88-106.17A7.02 7.02 0 0 0-73 11.01z" fill="url(#a)"/><linearGradient id="b" x1="-112.39" x2="-112.39" y1="3" y2="124.25" gradientUnits="userSpaceOnUse"><stop stop-color="#80D8FF" offset="0"/><stop stop-color="#0091EA" offset="1"/></linearGradient><path d="M-86.54 18.4c-1.93.12-5.99-.01-7.46-2.86-1.96-3.8-1.83-8.78-7.47-7.34-5.63 1.44-12.57 5.37-18.99 5.37s-18.64-2.88-19.52.52c-.58 2.25 9.54 6.96 9.94 7.05.16.03.27.18.26.34-.07.82-.16 4.18 3.16 5.32 3.16 1.09 5.69.09 6.45-.27.12-.06.26.01.29.14.22.88 1.21 3.78 4.53 4.33 3.21.53 5.45-.5 6.17-.9.13-.07.28-.02.33.12.32.84 1.62 3.41 5.68 3.41 3.86 0 5.06-1.17 5.39-1.64.06-.08.18-.08.23 0 .65.98 3.97 5.19 12.01 3.54.46-.09.78-.52.76-.99-.14-2.8-.61-12.06-.7-15.2-.02-.55-.5-.97-1.06-.94z" fill="url(#b)"/><linearGradient id="c" x1="-47.61" x2="-47.61" y1="3" y2="124.25" gradientUnits="userSpaceOnUse"><stop stop-color="#80D8FF" offset="0"/><stop stop-color="#0091EA" offset="1"/></linearGradient><path d="M-20.02 14.1c-.87-3.41-13.1-.52-19.52-.52S-52.9 9.65-58.53 8.2c-5.63-1.44-5.5 3.54-7.47 7.34-1.47 2.85-5.53 2.97-7.46 2.86a.994.994 0 0 0-1.06.95c-.09 3.14-.56 12.4-.7 15.2-.02.47.3.9.76.99 8.04 1.64 11.35-2.56 12.01-3.54.06-.09.18-.09.23 0 .33.47 1.53 1.64 5.39 1.64 4.05 0 5.36-2.57 5.68-3.41.05-.13.21-.19.33-.12.72.4 2.97 1.44 6.17.9 3.32-.55 4.3-3.45 4.53-4.33.03-.13.17-.19.29-.14.76.36 3.28 1.37 6.45.27 3.32-1.15 3.24-4.5 3.16-5.32-.01-.17.09-.31.26-.34.4-.08 10.51-4.8 9.94-7.05z" fill="url(#c)"/><g fill="#424242" opacity=".2"><path d="M-80 6c2.76 0 5 2.25 5 5.01a5 5 0 0 1-2.24 4.17c-.54.36-.87.96-.89 1.61L-80 85.61l-1.87-68.82c-.02-.65-.35-1.25-.89-1.61A5 5 0 0 1-85 11.01C-85 8.25-82.76 6-80 6m0-2c-3.87 0-7 3.14-7 7.01 0 2.44 1.25 4.58 3.13 5.84l2.88 106.17c.02.66.5.99.99.99s.96-.33.99-.99l2.88-106.17A6.984 6.984 0 0 0-73 11.01C-73 7.14-76.13 4-80 4z"/><path d="M-99.67 9.95c1.16 0 1.58.55 2.63 3.46.34.95.73 2.03 1.26 3.05 1.32 2.56 4.27 3.97 8.31 3.97h.02c.13 3.42.47 10.16.63 13.31-.77.12-1.52.18-2.22.18-4.59 0-6.5-2.52-6.83-3.03-.4-.6-1.07-.96-1.78-.96-.7 0-1.36.34-1.75.9-.01.01-.72.8-3.76.8-2.71 0-3.56-1.48-3.81-2.12a2.241 2.241 0 0 0-2.08-1.44c-.38 0-.76.1-1.09.28-.34.19-1.58.8-3.42.8-.48 0-.97-.04-1.46-.12-2.07-.34-2.73-2.11-2.92-2.85a2.204 2.204 0 0 0-3.1-1.44c-.28.13-1.29.57-2.67.57-.76 0-1.52-.13-2.26-.39-1.79-.62-1.91-2.3-1.82-3.25.1-1.11-.61-2.13-1.66-2.44-1.51-.58-6.25-3.08-8.01-4.62.45-.09 1.17-.17 2.28-.17 2.12 0 4.81.29 7.42.57 2.68.29 5.21.56 7.3.56 4.55 0 9.26-1.79 13.42-3.36 2.17-.82 4.22-1.6 6.07-2.07.5-.13.94-.19 1.3-.19m0-2c-.53 0-1.12.08-1.8.25-5.63 1.44-12.57 5.37-18.99 5.37-4.03 0-10.36-1.14-14.72-1.14-2.58 0-4.47.4-4.79 1.66-.58 2.25 9.54 6.96 9.94 7.05.16.03.27.18.26.34-.07.82-.16 4.18 3.16 5.32 1.06.36 2.04.5 2.91.5 1.74 0 3.03-.53 3.54-.77.03-.01.06-.02.09-.02.09 0 .17.06.2.16.22.88 1.21 3.78 4.53 4.33.63.11 1.23.15 1.78.15 2.25 0 3.81-.73 4.39-1.05.04-.02.08-.03.12-.03.09 0 .18.05.21.15.32.84 1.62 3.41 5.68 3.41 3.86 0 5.06-1.17 5.39-1.64.03-.04.07-.06.12-.06.04 0 .09.02.12.07.55.82 2.98 3.92 8.5 3.92 1.05 0 2.22-.11 3.51-.38.46-.09.78-.52.76-.99-.14-2.8-.61-12.06-.7-15.2a.984.984 0 0 0-.99-.95h-.06c-.27.02-.59.03-.93.03-2.09 0-5.26-.44-6.53-2.89-1.76-3.34-1.87-7.59-5.7-7.59zM-60.33 9.95c.37 0 .81.06 1.31.19 1.85.47 3.9 1.25 6.07 2.07 4.16 1.58 8.87 3.36 13.42 3.36 2.09 0 4.62-.27 7.3-.56 2.61-.28 5.31-.57 7.42-.57 1.11 0 1.82.08 2.28.17-1.76 1.54-6.51 4.04-8.01 4.62a2.324 2.324 0 0 0-1.66 2.44c.09.95-.04 2.64-1.82 3.25-.74.26-1.5.39-2.26.39-1.38 0-2.39-.44-2.67-.57a2.204 2.204 0 0 0-3.1 1.44c-.19.74-.85 2.51-2.92 2.85-.49.08-.98.12-1.46.12-1.84 0-3.08-.61-3.42-.8-.33-.19-.71-.28-1.09-.28-.92 0-1.76.58-2.08 1.44-.24.64-1.1 2.12-3.81 2.12-3.02 0-3.74-.78-3.75-.78-.4-.58-1.06-.92-1.76-.92-.72 0-1.39.36-1.78.96-.34.51-2.25 3.03-6.83 3.03-.71 0-1.45-.06-2.22-.18.16-3.15.5-9.9.62-13.31h.02c4.03 0 6.98-1.41 8.31-3.97.53-1.02.92-2.1 1.26-3.05 1.04-2.91 1.46-3.46 2.63-3.46m0-2c-3.83 0-3.93 4.25-5.66 7.6-1.27 2.45-4.44 2.89-6.53 2.89-.34 0-.66-.01-.93-.03h-.06c-.53 0-.98.41-.99.95-.09 3.14-.56 12.4-.7 15.2-.02.47.3.9.76.99 1.29.26 2.46.38 3.51.38 5.52 0 7.95-3.1 8.5-3.92.03-.04.07-.07.12-.07.04 0 .09.02.12.06.33.47 1.53 1.64 5.39 1.64 4.05 0 5.36-2.57 5.68-3.41.04-.09.12-.15.21-.15.04 0 .08.01.12.03.58.32 2.14 1.05 4.39 1.05.55 0 1.15-.04 1.78-.15 3.32-.55 4.3-3.45 4.53-4.33.02-.1.11-.16.2-.16.03 0 .06.01.09.02.5.24 1.8.77 3.54.77.87 0 1.86-.13 2.91-.5 3.32-1.15 3.24-4.5 3.16-5.32-.01-.17.09-.31.26-.34.4-.09 10.52-4.8 9.94-7.05-.32-1.27-2.22-1.66-4.79-1.66-4.36 0-10.69 1.14-14.72 1.14-6.42 0-13.36-3.93-18.99-5.37-.72-.18-1.32-.26-1.84-.26z"/></g><linearGradient id="d" x1="-84.842" x2="-84.842" y1="3" y2="124.25" gradientUnits="userSpaceOnUse"><stop stop-color="#80D8FF" offset="0"/><stop stop-color="#0091EA" offset="1"/></linearGradient><path d="M-84.43 86.9c4.12-2.23 11-3.12 14.71-5.22 3.53-1.46 8.57-6.91 3.71-11.79-6.52-6.54-15.91-6.8-18.71-7.73-2.81-.93-17.62-7.57-12.63-14.68 0 0 7.49 2.32 11.38-.93 0 0 3.27-1.55-.94-4.79-4.21-3.25-7.17-6.03-12.94-2.32s-7.33 11.59-4.37 16.69 4.25 9.33 26.86 14.9c0 0 8.11 3.98 2.27 6.01-4.8 1.67-15.81 3.75-18.42 9.96-2.76 6.57 2.65 9.14 8.55 10.18s9.19 3.08 4.84 5.08c-2.48 1.14-6.92 2.77-7.76 7.66-.28 1.64.94 9.65 11.2 10.06 0 0-10.6-6.93-5.03-11.31 4.22-3.32 9.32-3.65 10.24-7.57 1.17-4.99-4.23-7.62-7.67-7.97-3.3-.32-11.97-2.6-5.29-6.23z" fill="url(#d)"/><path d="M-94.79 39.67c1.94 0 3.72 1.38 5.97 3.13l.69.54c.92.71 1.23 1.17 1.33 1.37-.02.01-.03.02-.05.03-.18.07-.25.13-.4.26-1.26 1.05-3.19 1.27-4.59 1.27-2.57 0-4.9-.71-4.93-.71a2.01 2.01 0 0 0-2.23.76c-1.39 1.98-1.74 4.18-1.01 6.36 2.29 6.9 14.53 11.33 14.65 11.37.74.24 1.7.42 2.92.65 3.87.72 10.34 1.91 15.01 6.59 1.17 1.17 1.61 2.36 1.36 3.65-.42 2.08-2.57 4.11-4.41 4.88-.08.03-.15.07-.22.11-1.64.93-4.22 1.66-6.73 2.37-2.8.79-5.69 1.61-7.96 2.84-2.66 1.44-3.82 3.12-3.45 4.99.82 4.08 9.13 4.97 9.48 5 1.85.19 4.3 1.2 5.42 2.76.58.82.75 1.72.51 2.76-.34 1.44-1.77 2.19-4.27 3.39-1.64.79-3.49 1.68-5.26 3.07-2.07 1.62-2.44 3.51-2.38 4.8.03.59.14 1.17.34 1.73-.89-1.61-.96-3.12-.93-3.38.59-3.48 3.6-4.83 6.02-5.91.21-.09.41-.18.6-.27 2.3-1.06 3.35-2.43 3.14-4.08-.29-2.27-3.06-3.83-8.46-4.79-3.9-.69-6.41-1.89-7.27-3.46-.55-1.01-.48-2.31.22-3.98 1.78-4.24 9.2-6.43 14.11-7.88 1.15-.34 2.24-.66 3.13-.97 2.73-.95 3.38-2.48 3.45-3.6.18-2.97-3.78-5.25-5.5-6.09a2.74 2.74 0 0 0-.4-.15C-97.42 64.03-99.55 60.3-102 55.97l-.48-.84c-2.32-4-1.37-10.73 3.72-14 1.51-.98 2.81-1.46 3.97-1.46m0-2c-1.47 0-3.1.51-5.06 1.77-5.77 3.71-7.33 11.59-4.37 16.69s4.25 9.33 26.86 14.9c0 0 8.11 3.98 2.27 6.01-4.8 1.67-15.81 3.75-18.42 9.96-2.76 6.57 2.65 9.14 8.55 10.18s9.19 3.08 4.84 5.08c-2.48 1.14-6.92 2.77-7.76 7.66-.28 1.64.94 9.65 11.2 10.06 0 0-10.6-6.93-5.03-11.31 4.22-3.32 9.32-3.65 10.24-7.57 1.17-4.99-4.23-7.62-7.67-7.97-3.3-.34-11.97-2.62-5.29-6.24 4.12-2.23 11-3.12 14.71-5.22 3.53-1.46 8.57-6.91 3.71-11.79-6.52-6.54-15.91-6.8-18.71-7.73-2.81-.93-17.62-7.57-12.63-14.68 0 0 2.59.8 5.52.8 2.05 0 4.26-.39 5.87-1.73 0 0 3.27-1.55-.94-4.79-2.79-2.14-5.03-4.08-7.89-4.08z" fill="#424242" opacity=".2"/><linearGradient id="e" x1="-11.158" x2="-11.158" y1="3" y2="124.25" gradientTransform="matrix(-1 0 0 1 -86.316 0)" gradientUnits="userSpaceOnUse"><stop stop-color="#80D8FF" offset="0"/><stop stop-color="#0091EA" offset="1"/></linearGradient><path d="M-75.57 86.9c-4.12-2.23-11-3.12-14.71-5.22-3.53-1.46-8.57-6.91-3.71-11.79 6.52-6.54 15.91-6.8 18.71-7.73 2.81-.93 17.62-7.57 12.63-14.68 0 0-7.49 2.32-11.38-.93 0 0-3.27-1.55.94-4.79 4.21-3.25 7.17-6.03 12.94-2.32s7.33 11.59 4.37 16.69-4.25 9.33-26.86 14.9c0 0-8.11 3.98-2.27 6.01 4.8 1.67 15.81 3.75 18.42 9.96 2.76 6.57-2.65 9.14-8.55 10.18s-9.19 3.08-4.84 5.08c2.48 1.14 6.92 2.77 7.76 7.66.28 1.64-.94 9.65-11.2 10.06 0 0 10.6-6.93 5.03-11.31-4.22-3.32-9.32-3.65-10.24-7.57-1.17-4.99 4.23-7.62 7.67-7.97 3.3-.32 11.97-2.6 5.29-6.23z" fill="url(#e)"/><path d="M-65.21 39.67c1.16 0 2.46.47 3.98 1.45 5.09 3.27 6.04 10.01 3.72 14l-.48.84c-2.46 4.32-4.58 8.06-25.12 13.12-.14.03-.27.08-.4.15-1.71.84-5.68 3.12-5.5 6.09.07 1.12.72 2.65 3.45 3.6.89.31 1.98.63 3.13.97 4.91 1.45 12.32 3.64 14.11 7.88.7 1.67.77 2.97.22 3.98-.86 1.58-3.38 2.78-7.27 3.46-5.4.95-8.17 2.52-8.46 4.79-.21 1.65.84 3.03 3.14 4.08.19.09.39.18.6.27 2.42 1.09 5.43 2.44 6.02 5.91.04.27-.04 1.77-.93 3.38.19-.57.31-1.15.34-1.73.06-1.29-.31-3.17-2.38-4.8-1.77-1.39-3.62-2.28-5.26-3.07-2.5-1.2-3.93-1.95-4.27-3.39-.24-1.04-.08-1.94.51-2.76 1.12-1.56 3.57-2.57 5.42-2.76.35-.04 8.67-.93 9.48-5 .37-1.87-.78-3.54-3.45-4.99-2.26-1.23-5.16-2.05-7.96-2.84-2.5-.71-5.09-1.44-6.73-2.37-.07-.04-.14-.08-.22-.11-1.84-.76-4-2.8-4.41-4.88-.26-1.28.19-2.48 1.36-3.65 4.67-4.68 11.14-5.88 15.01-6.59 1.22-.23 2.18-.4 2.92-.65.12-.04 12.37-4.47 14.65-11.37.72-2.19.37-4.38-1.01-6.36a2.01 2.01 0 0 0-2.23-.76c-.02.01-2.33.71-4.93.71-1.4 0-3.33-.22-4.59-1.27-.13-.11-.27-.2-.43-.27l-.02-.02c.1-.2.41-.67 1.33-1.38l.69-.54c2.25-1.73 4.03-3.12 5.97-3.12m0-2c-2.86 0-5.1 1.94-7.88 4.09-4.21 3.25-.94 4.79-.94 4.79 1.61 1.34 3.82 1.73 5.87 1.73 2.93 0 5.52-.8 5.52-.8 4.99 7.11-9.82 13.76-12.63 14.68-2.81.93-12.2 1.19-18.71 7.73-4.86 4.87.18 10.32 3.71 11.79 3.71 2.1 10.59 2.99 14.71 5.22 6.68 3.63-1.99 5.91-5.29 6.24-3.44.35-8.84 2.98-7.67 7.97.92 3.93 6.02 4.26 10.24 7.57 5.57 4.38-5.03 11.31-5.03 11.31 10.26-.42 11.48-8.42 11.2-10.06-.84-4.89-5.28-6.52-7.76-7.66-4.36-2.01-1.06-4.04 4.84-5.08s11.31-3.61 8.55-10.18c-2.61-6.21-13.62-8.3-18.42-9.96-5.84-2.03 2.27-6.01 2.27-6.01 22.61-5.56 23.9-9.8 26.86-14.9s1.4-12.98-4.37-16.69c-1.97-1.27-3.6-1.78-5.07-1.78z" fill="#424242" opacity=".2"/><defs><path id="f" d="M115.25 75.64L95.46 64l19.79-11.64c1.7-1 2.25-3.17 1.24-4.84l-12.8-21.25c-1.01-1.68-3.21-2.23-4.9-1.23l-18.7 11v-21.5c0-1.95-1.6-3.53-3.58-3.53H51.48c-1.98 0-3.58 1.58-3.58 3.53v21.5l-18.7-11c-1.7-1-3.89-.45-4.9 1.23L11.5 47.52a3.508 3.508 0 0 0 1.24 4.84L32.54 64 12.75 75.64c-1.7 1-2.25 3.17-1.24 4.84l12.8 21.25c1.01 1.68 3.21 2.23 4.9 1.23l18.7-11v21.5c0 1.95 1.6 3.53 3.58 3.53h25.03c1.98 0 3.58-1.58 3.58-3.53v-21.5l18.7 11c1.7 1 3.89.45 4.9-1.23l12.8-21.25c1.01-1.67.45-3.84-1.25-4.84z"/></defs><clipPath id="g"><use xlink:href="#f"/></clipPath><linearGradient id="h" x1="64" x2="64" y1="4.833" y2="124.48" gradientUnits="userSpaceOnUse"><stop stop-color="#1E88E5" offset="0"/><stop stop-color="#1565C0" offset="1"/></linearGradient><path d="M115.25 75.64L95.46 64l19.79-11.64c1.7-1 2.25-3.17 1.24-4.84l-12.8-21.25c-1.01-1.68-3.21-2.23-4.9-1.23l-18.7 11v-21.5c0-1.95-1.6-3.53-3.58-3.53H51.48c-1.98 0-3.58 1.58-3.58 3.53v21.5l-18.7-11c-1.7-1-3.89-.45-4.9 1.23L11.5 47.52a3.508 3.508 0 0 0 1.24 4.84L32.54 64 12.75 75.64c-1.7 1-2.25 3.17-1.24 4.84l12.8 21.25c1.01 1.68 3.21 2.23 4.9 1.23l18.7-11v21.5c0 1.95 1.6 3.53 3.58 3.53h25.03c1.98 0 3.58-1.58 3.58-3.53v-21.5l18.7 11c1.7 1 3.89.45 4.9-1.23l12.8-21.25c1.01-1.67.45-3.84-1.25-4.84z" clip-path="url(#g)" fill="url(#h)"/><g opacity=".2"><defs><path id="i" d="M115.25 75.64L95.46 64l19.79-11.64c1.7-1 2.25-3.17 1.24-4.84l-12.8-21.25c-1.01-1.68-3.21-2.23-4.9-1.23l-18.7 11v-21.5c0-1.95-1.6-3.53-3.58-3.53H51.48c-1.98 0-3.58 1.58-3.58 3.53v21.5l-18.7-11c-1.7-1-3.89-.45-4.9 1.23L11.5 47.52a3.508 3.508 0 0 0 1.24 4.84L32.54 64 12.75 75.64c-1.7 1-2.25 3.17-1.24 4.84l12.8 21.25c1.01 1.68 3.21 2.23 4.9 1.23l18.7-11v21.5c0 1.95 1.6 3.53 3.58 3.53h25.03c1.98 0 3.58-1.58 3.58-3.53v-21.5l18.7 11c1.7 1 3.89.45 4.9-1.23l12.8-21.25c1.01-1.67.45-3.84-1.25-4.84z" opacity=".2"/></defs><clipPath id="j"><use xlink:href="#i"/></clipPath><g clip-path="url(#j)"><path d="M76.52 14c.32 0 .58.24.58.53v21.5c0 1.08.58 2.07 1.51 2.6.46.26.98.4 1.49.4.53 0 1.05-.14 1.52-.41l18.7-11c.09-.06.2-.08.3-.08.08 0 .35.02.51.27l12.8 21.25c.07.12.09.25.06.38-.02.1-.09.23-.25.33l-19.8 11.64c-.92.54-1.48 1.52-1.48 2.59 0 1.06.56 2.05 1.48 2.59l19.79 11.64c.16.1.23.23.25.33.03.13.01.26-.06.38l-12.8 21.25c-.15.25-.43.27-.51.27a.61.61 0 0 1-.3-.08l-18.7-11c-.47-.28-.99-.41-1.52-.41-.51 0-1.03.13-1.49.4-.93.53-1.51 1.53-1.51 2.6v21.5c0 .29-.26.53-.58.53H51.48c-.32 0-.58-.24-.58-.53v-21.5c0-1.08-.58-2.07-1.51-2.6-.46-.26-.98-.4-1.49-.4-.53 0-1.05.14-1.52.41l-18.7 11c-.09.06-.2.08-.3.08-.08 0-.35-.02-.51-.27l-12.8-21.25a.51.51 0 0 1-.06-.38c.02-.1.09-.23.25-.33l19.79-11.64c.92-.54 1.48-1.52 1.48-2.59 0-1.06-.56-2.05-1.48-2.59L14.27 49.77a.522.522 0 0 1-.25-.33.51.51 0 0 1 .06-.38l12.8-21.25c.15-.25.43-.27.51-.27.11 0 .21.03.31.08l18.7 11c.47.28.99.41 1.52.41.51 0 1.03-.13 1.49-.4.93-.53 1.51-1.53 1.51-2.6v-21.5c0-.29.26-.53.58-.53h25.02m0-3H51.48c-1.98 0-3.58 1.58-3.58 3.53v21.5l-18.7-11c-.57-.34-1.2-.5-1.83-.5-1.22 0-2.41.62-3.08 1.73L11.5 47.52a3.508 3.508 0 0 0 1.24 4.84L32.54 64 12.75 75.64c-1.7 1-2.25 3.17-1.24 4.84l12.8 21.25a3.606 3.606 0 0 0 4.91 1.23l18.7-11v21.5c0 1.95 1.6 3.53 3.58 3.53h25.03c1.98 0 3.58-1.58 3.58-3.53v-21.5l18.7 11c.57.34 1.2.5 1.83.5 1.22 0 2.41-.62 3.08-1.73l12.8-21.25c1.01-1.68.45-3.85-1.24-4.84L95.46 64l19.79-11.64c1.7-1 2.25-3.17 1.24-4.84l-12.8-21.25a3.606 3.606 0 0 0-4.91-1.23l-18.7 11v-21.5c.01-1.96-1.59-3.54-3.56-3.54z" fill="#424242"/></g></g><linearGradient id="k" x1="65.725" x2="65.725" y1="1.231" y2="141.15" gradientUnits="userSpaceOnUse"><stop stop-color="#E1F5FE" offset="0"/><stop stop-color="#81D4FA" offset=".995"/></linearGradient><path d="M71.5 7.45A7.97 7.97 0 0 0 65.73 5c-2.2 0-4.25.87-5.77 2.45a7.977 7.977 0 0 0-2.26 5.85l3.51 105.33c.08 2.45 2.07 4.37 4.52 4.37s4.44-1.92 4.52-4.37l3.5-105.33c.08-2.19-.72-4.27-2.25-5.85z" fill="url(#k)"/><linearGradient id="l" x1="67.71" x2="67.71" y1="3.225" y2="138.77" gradientUnits="userSpaceOnUse"><stop stop-color="#E1F5FE" offset="0"/><stop stop-color="#81D4FA" offset=".995"/></linearGradient><path d="M72.59 44.7s5.16 1.66 8.11 7.45c1.99 3.9 1.34 12.75-7.08 18.03-3.87 2.43-12.22 6.15-12.86 8.93-.47 2.05-.37 5.59-.37 5.59s-5.59-2.32-6.46-6.97c-.87-4.64 2.13-8.1 5.98-10.86 3.07-2.2 9.66-5.57 11.1-9.76 1.54-4.47 1.58-12.41 1.58-12.41z" fill="url(#l)"/><linearGradient id="m" x1="65.879" x2="65.879" y1="5.639" y2="139.79" gradientUnits="userSpaceOnUse"><stop stop-color="#E1F5FE" offset="0"/><stop stop-color="#81D4FA" offset=".995"/></linearGradient><path d="M71.36 79.43s.57.32 1.38 1.01c4.73 4.08 4.68 11.46.07 15.68a51.726 51.726 0 0 1-4.93 4.02c-4.6 3.27-7 3.31-6.67 12.28 0 0-3.89-2.02-5.33-6.36-.73-2.2-.4-4.28.34-6.04 1.1-2.6 3.15-4.67 5.66-5.96 2.18-1.12 5.46-3.01 6.85-4.91 2.53-3.4 2.55-8.55 2.63-9.72z" fill="url(#m)"/><linearGradient id="n" x1="70.834" x2="70.834" y1="11.18" y2="139.34" gradientUnits="userSpaceOnUse"><stop stop-color="#E1F5FE" offset="0"/><stop stop-color="#81D4FA" offset=".995"/></linearGradient><path d="M70.84 104.57s4.1 2.2 3.43 7.19c-.5 3.74-3.56 5.26-5.88 5.79-.74.17-1.33-.65-.94-1.3 1.39-2.37 3.29-6.99 3.39-11.68z" fill="url(#n)"/><linearGradient id="o" x1="67.71" x2="67.71" y1="4.833" y2="124.48" gradientUnits="userSpaceOnUse"><stop stop-color="#1E88E5" offset="0"/><stop stop-color="#1565C0" offset="1"/></linearGradient><path d="M73.24 96.14c4.89-4.48 4.95-12.3-.08-16.63-.86-.74-1.46-1.08-1.46-1.08 0 .05-.01.13-.01.2l.23-7.01c.73-.41 1.41-.8 1.99-1.17 8.84-5.54 9.52-14.84 7.44-18.93-3.04-5.97-8.31-7.75-8.5-7.81l1.04-31.27a8.12 8.12 0 0 0-2.29-5.95C70.04 4.88 67.96 4 65.73 4s-4.32.88-5.87 2.49-2.37 3.72-2.29 5.95l1.82 54.64c-3.97 2.88-7.03 6.48-6.14 11.3.89 4.78 6.53 7.21 6.76 7.3l.3 9.07c-2.04 1.36-3.7 3.25-4.66 5.52-.79 1.87-1.14 4.08-.36 6.41 1.51 4.54 5.53 6.68 5.65 6.74l.2 6.13c.08 2.49 2.1 4.44 4.59 4.44s4.51-1.95 4.59-4.44l.07-2.07c1.98-.94 3.85-2.65 4.26-5.65.74-5.51-3.76-7.95-3.8-7.98l.19-5.8c.79-.65 1.53-1.3 2.2-1.91zM61.28 7.87c1.18-1.22 2.76-1.89 4.45-1.89s3.27.67 4.45 1.89a6.147 6.147 0 0 1 1.74 4.51l-1.53 45.96c-1.95 2.99-6.07 5.51-9.05 7.43l-1.78-53.4c-.07-1.69.54-3.29 1.72-4.5zm-1.53 70.14l.18 5.43c-1.43-.79-4.22-2.65-4.73-5.42-.61-3.27 1.09-6.23 5.35-9.33.33-.24 1.53-1.04 1.85-1.25l.64-.41c3.1-1.99 6.96-4.47 9-7.61.2-.3.31-.65.32-1.02l.42-12.59c1.32.58 4.66 2.41 6.8 6.61 1.58 3.11 1.24 11.35-6.72 16.35-.48.3-1.09.66-1.91 1.12l-2 1.11c-3.06 1.68-6.54 3.59-8.57 5.49-.43.39-.65.95-.63 1.52zm10.15-5.27l-.51 15.32c-.15.24-.3.47-.47.7-1.36 1.84-4.39 3.68-6.67 4.89l-.52-15.7c1.82-1.72 5.17-3.57 8.17-5.21zm-1.38 41.15c-.49 1.15-.99 2.15-1.45 2.92-.39.66.11 1.47.83 1.47.07 0 .14-.01.22-.02.08-.02.17-.04.26-.07l-.04 1.29c-.05 1.42-1.19 2.53-2.61 2.53s-2.56-1.11-2.61-2.53l-.5-14.96c1.2-1.55 3.02-2.43 5.39-4.12.34-.24.66-.49.99-.73l-.48 14.22zm4.16-2.32c-.23 1.72-1.11 2.99-2.67 3.87.12-.25.23-.51.34-.78.1-.22.15-.47.16-.71l.26-7.71c.94.87 2.28 2.6 1.91 5.33zm-2.91-15.04c-.36.3-1.61 1.29-1.96 1.55l-.14.11c-.27.2-.53.4-.81.6-.66.47-1.28.88-1.87 1.27-1.55 1.02-2.88 1.9-3.94 3.25-.28.37-.43.82-.42 1.28l.21 6.41c-1.11-.84-2.86-2.48-3.68-4.94-.53-1.59-.43-3.28.31-5.01.78-1.84 2.14-3.44 3.93-4.64.3-.2 1.49-.86 1.78-1.02 3.6-1.91 6.07-3.75 7.33-5.46.19-.26.38-.55.56-.84s.28-.63.29-.97l.24-7.32c.08.07.16.14.25.21 1.94 1.67 3.03 4.02 3.06 6.63a9.387 9.387 0 0 1-3.03 7.04c-.65.61-1.37 1.24-2.11 1.85z" fill="url(#o)"/><linearGradient id="p" x1="57.078" x2="57.078" y1="1.351" y2="137.18" gradientUnits="userSpaceOnUse"><stop stop-color="#E1F5FE" offset="0"/><stop stop-color="#81D4FA" offset=".995"/></linearGradient><path d="M58.66 50.77s-11.55-3.79-12.58-18.46c-1.03-14.52 12.94-16.49 12.94-16.49s4.97-.63 7.97 2.6-.87 6.15-.87 6.15-1.74 1.58-7.26 2.21-4.21 8.92-.66 11.76l.46 12.23z" fill="url(#p)"/><circle cx="62.09" cy="19.54" r="1.65" fill="#1565C0"/><linearGradient id="q" x1="57.244" x2="57.244" y1="4.833" y2="124.48" gradientUnits="userSpaceOnUse"><stop stop-color="#1E88E5" offset="0"/><stop stop-color="#1565C0" offset="1"/></linearGradient><path d="M67.63 18.05c-2.26-2.44-5.59-2.78-7.28-2.78-.66 0-1.07.05-1.07.05S44.65 17.39 45.73 32.6c1.09 15.37 13.18 19.34 13.18 19.34l-.09-2.5c-.05-.02-1.37-.51-1.85-.68-.11-.04-.22-.09-.32-.16-3.29-2.1-8.29-6.8-8.95-16.14-.93-13.13 11.34-15.09 11.82-15.16 0 0 .32-.04.83-.04 1.43 0 4.09.28 5.82 2.14.72.77.67 1.29.66 1.47-.07.9-1 1.81-1.31 2.05-.07.05-.07.05-.12.09-.23.16-1.98 1.32-6.52 1.83-2.71.31-4.67 1.91-5.38 4.38-.92 3.19.37 7.35 2.96 9.91 0 0 1.29 1.03 2.05 1.31l-.08-2.21c-3.72-2.98-5.1-10.76.69-11.42s7.6-2.31 7.6-2.31 4.05-3.06.91-6.45z" fill="url(#q)"/><path d="M73.24 96.14c4.89-4.48 4.95-12.3-.08-16.63-.86-.74-1.46-1.08-1.46-1.08 0 .05-.01.13-.01.2l.23-7.01c.73-.41 1.41-.8 1.99-1.17 8.84-5.54 9.52-14.84 7.44-18.93-3.04-5.97-8.31-7.75-8.5-7.81l1.04-31.27a8.12 8.12 0 0 0-2.29-5.95C70.04 4.88 67.96 4 65.73 4s-4.32.88-5.87 2.49-2.37 3.72-2.29 5.95l.11 3.25c-3.77 1.05-12.8 4.84-11.94 16.91 1.06 14.94 12.51 19.11 13.15 19.33l-.08-2.5c-.16-.05-1.37-.5-1.82-.67-.11-.04-.22-.09-.32-.16-3.29-2.1-8.29-6.8-8.95-16.14-.72-10.22 6.55-13.67 10.03-14.74.99-.3 1.68-.41 1.78-.43 0 0 .07-.01.19-.02.14-.01.36-.02.64-.02 1.43 0 4.09.28 5.82 2.14.72.77.67 1.29.66 1.47-.07.9-1 1.81-1.31 2.05-.07.05-.07.05-.12.09-.21.15-1.7 1.13-5.45 1.69-.34.05-.69.1-1.06.14-.31.04-.62.09-.91.16-2.24.53-3.84 2.03-4.47 4.22-.92 3.19.37 7.35 2.96 9.91 0 0 1.28 1.02 2.03 1.31l-.07-2.21c-3.46-2.78-4.89-9.72-.37-11.18l.37 11.18.09 2.22s-.01 0-.01-.01l.3 8.98c.01 0 .03.01.03.01l.09 2.5s-.01 0-.03-.01l.51 15.16c-3.97 2.88-7.03 6.48-6.14 11.3.89 4.78 6.53 7.21 6.76 7.3l.3 9.07c-2.04 1.36-3.7 3.25-4.66 5.52-.79 1.87-1.14 4.08-.36 6.41 1.51 4.54 5.53 6.68 5.65 6.74l.2 6.13c.08 2.49 2.1 4.44 4.59 4.44s4.51-1.95 4.59-4.44l.07-2.07c1.98-.94 3.85-2.65 4.26-5.65.74-5.51-3.76-7.95-3.8-7.98l.19-5.8c.76-.64 1.5-1.29 2.17-1.9zM66.72 24.5s4.05-3.06.91-6.45c-2.26-2.44-5.59-2.78-7.28-2.78-.29 0-.53.01-.71.02l-.1-2.92c-.06-1.69.56-3.29 1.74-4.51s2.76-1.89 4.45-1.89 3.27.67 4.45 1.89a6.147 6.147 0 0 1 1.74 4.51l-1.53 45.96c-1.95 2.99-6.07 5.51-9.05 7.43l-1.3-39.08c5.05-.71 6.68-2.18 6.68-2.18zm-6.97 53.51l.18 5.43c-1.43-.79-4.22-2.65-4.73-5.42-.61-3.27 1.09-6.23 5.35-9.33.33-.24 1.53-1.04 1.85-1.25l.64-.41c3.1-1.99 6.96-4.47 9-7.61.2-.3.31-.65.32-1.02l.42-12.59c1.32.58 4.66 2.41 6.8 6.61 1.58 3.11 1.24 11.35-6.72 16.35-.48.3-1.09.66-1.91 1.12l-2 1.11c-3.06 1.68-6.54 3.59-8.57 5.49-.43.39-.65.95-.63 1.52zm10.15-5.27l-.51 15.32c-.15.24-.3.47-.47.7-1.36 1.84-4.39 3.68-6.67 4.89l-.52-15.7c1.82-1.72 5.17-3.57 8.17-5.21zm-1.38 41.15c-.49 1.15-.99 2.15-1.45 2.92-.39.66.11 1.47.83 1.47.07 0 .14-.01.22-.02.09-.02.17-.04.26-.07l-.04 1.29c-.05 1.42-1.19 2.53-2.61 2.53s-2.56-1.11-2.61-2.53l-.5-14.96c1.2-1.55 3.02-2.43 5.39-4.12.34-.24.66-.49.99-.73l-.48 14.22zm4.16-2.32c-.23 1.72-1.11 2.99-2.67 3.87.12-.25.23-.51.34-.78.1-.22.15-.47.16-.71l.26-7.71c.94.87 2.28 2.6 1.91 5.33zm-2.91-15.04c-.36.3-1.61 1.29-1.96 1.55l-.14.11c-.27.2-.53.4-.81.6-.66.47-1.28.88-1.87 1.27-1.55 1.02-2.88 1.9-3.94 3.25-.28.37-.43.82-.42 1.28l.21 6.41c-1.11-.84-2.86-2.48-3.68-4.94-.53-1.59-.43-3.28.31-5.01.78-1.84 2.14-3.44 3.93-4.64.3-.2 1.49-.86 1.78-1.02 3.6-1.91 6.07-3.75 7.33-5.46.19-.26.38-.55.56-.84s.28-.63.29-.97l.24-7.32c.08.07.16.14.25.21 1.94 1.67 3.03 4.02 3.06 6.63a9.387 9.387 0 0 1-3.03 7.04c-.65.61-1.37 1.24-2.11 1.85z" fill="#424242" opacity=".2"/></svg>