<svg viewBox="0 0 128 128" xmlns="http://www.w3.org/2000/svg"><linearGradient id="a" x1="-93.047" x2="-93.047" y1="-73.413" y2="-17.291" gradientUnits="userSpaceOnUse"><stop stop-color="#eee" offset=".005"/><stop stop-color="#EAEAEA" offset=".282"/><stop stop-color="#ddd" offset=".577"/><stop stop-color="#C8C8C8" offset=".879"/><stop stop-color="#BDBDBD" offset="1"/></linearGradient><path d="M-42.13-44.72c-.91-4.33-4.3-20.11-5.87-27.41-.47-2.21-2.11-3.82-3.99-3.81-5.36 0-15.39-.05-16.6-.05h-44.08c-.61 0-2.56.06-4.11 1.79-4.7 5.27-12.54 20.52-13.76 22.07-.08.1-6.27 2.31-9.09 4-1.12.67-1.74 2.13-1.9 3.63l-2.46 20.75c-.64 4.1 1.7 5.76 5.37 5.76h91.51c2.8 0 5.11-.68 5.11-5.69v-19.79c0-.43-.05-.85-.13-1.25z" fill="url(#a)"/><defs><path id="b" d="M-42.13-44.78c-.91-4.32-4.3-20.06-5.87-27.34-.47-2.21-2.11-3.82-3.99-3.82-5.36 0-15.39-.06-16.6-.06h-44.08c-.61 0-2.56.07-4.11 1.8-4.7 5.26-12.54 20.51-13.76 22.05-.08.1-6.27 2.28-9.09 3.96-1.12.67-1.74 2.13-1.9 3.62l-2.46 20.76c-.64 4.09 1.7 5.81 5.37 5.81h91.51c2.8 0 5.11-.79 5.11-5.8v-19.74c0-.42-.05-.83-.13-1.24z"/></defs><path d="M-51.98-73c.36 0 .87.59 1.05 1.44 1.46 6.78 4.95 23.06 5.86 27.43.04.2.07.44.07.66v19.79c0 2.81-.49 2.69-2.11 2.69h-91.51c-1.3 0-2.02-.23-2.25-.5s-.3-.92-.16-1.77c.01-.04.01-.06.02-.09l2.47-20.83c.08-.8.36-1.28.46-1.36 1.87-1.12 5.83-2.66 7.51-3.31 1.46-.57 1.86-.72 2.39-1.39.5-.63 1.28-2 2.99-5.03 2.85-5.03 7.61-13.53 10.65-16.93.57-.64 1.22-.79 1.87-.79h60.69-.02m.02-3.01s-.01 0 0 0h-60.7c-.63 0-2.55.08-4.08 1.79-4.7 5.27-12.54 20.52-13.76 22.07-.08.1-6.27 2.31-9.09 4-1.12.67-1.74 2.13-1.9 3.63l-2.46 20.75c-.64 4.1 1.7 5.76 5.37 5.76h91.51c2.8 0 5.11-.68 5.11-5.69v-19.79c0-.42-.05-.84-.13-1.24-.91-4.33-4.3-20.17-5.87-27.47-.49-2.21-2.13-3.81-4-3.81z" fill="#424242" opacity=".2"/><linearGradient id="c" x1="46.43" x2="46.43" y1="-117.5" y2="-61.374" gradientUnits="userSpaceOnUse"><stop stop-color="#616161" offset=".011"/><stop stop-color="#5D5D5D" offset=".25"/><stop stop-color="#505050" offset=".504"/><stop stop-color="#3B3B3B" offset=".766"/><stop stop-color="#212121" offset="1"/></linearGradient><path d="M97.35-88.93c-.91-4.33-4.3-20.11-5.86-27.41-.47-2.21-2.11-3.75-3.99-3.75-5.36 0-15.39.01-16.6.01H26.82c-.61 0-2.56-.01-4.11 1.73C18-113.07 10.16-97.86 8.95-96.31c-.08.1-6.27 2.3-9.09 3.99-1.12.67-1.74 2.12-1.9 3.62L-4.5-67.9c-.64 4.1 1.7 5.82 5.37 5.82h91.51c2.8 0 5.1-.8 5.1-5.81v-19.79c-.01-.43-.05-.84-.13-1.25z" fill="url(#c)"/><defs><path id="d" d="M97.35-88.98c-.91-4.32-4.3-20.06-5.86-27.34-.47-2.21-2.11-3.74-3.99-3.74-5.36 0-15.39.01-16.6.01H26.82c-.61 0-2.56-.01-4.11 1.72C18-113.06 10.16-97.85 8.95-96.31c-.08.1-6.27 2.26-9.09 3.94-1.12.67-1.74 2.12-1.9 3.61L-4.51-68c-.64 4.09 1.7 5.8 5.37 5.8h91.51c2.8 0 5.1-.79 5.1-5.8v-19.74c0-.42-.04-.84-.12-1.24z"/></defs><path d="M87.5-117.08c.36 0 .87.53 1.05 1.38 1.46 6.78 4.94 23.03 5.86 27.4.04.2.06.41.06.63v19.79c0 2.81-.49 2.81-2.1 2.81H.86c-1.3 0-2.02-.29-2.25-.56s-.3-.95-.16-1.8l.02-.1L.94-88.37c.08-.8.36-1.28.46-1.36 1.87-1.12 5.83-2.66 7.51-3.31 1.46-.57 1.86-.72 2.39-1.39.5-.63 1.28-2 2.99-5.03 2.85-5.03 7.61-13.46 10.65-16.87.57-.64 1.22-.72 1.87-.72h44.08c.75 0 4.89 0 9.21-.01l7.4-.02m0-3c-5.36 0-15.39.01-16.6.01H26.8c-.63 0-2.55.01-4.08 1.73C18-113.07 10.16-97.86 8.95-96.31c-.08.1-6.27 2.3-9.09 3.99-1.12.67-1.74 2.12-1.9 3.62L-4.5-67.9c-.64 4.1 1.7 5.82 5.37 5.82h91.51c2.8 0 5.1-.8 5.1-5.81v-19.79c0-.42-.04-.84-.13-1.24-.91-4.33-4.3-20.11-5.86-27.41-.48-2.22-2.12-3.75-3.99-3.75z" fill="#eee" opacity=".2"/><path d="M31.98 41h-4l23.95 39.06.09.15L53.7 83l2.02-.01c.12-1 .27-2.02.27-2.99L31.98 41z" fill="#8D6E63"/><path d="M31.42 42l23.57 38.28c-.02.55-.08 1.12-.16 1.72h-.57l-1.38-2.31-.09-.15L29.77 42h1.65m.56-1h-4l23.95 39.06.09.15L53.7 83l2.02-.01c.12-1 .27-2.02.27-2.99L31.98 41z" fill="#424242" opacity=".2"/><path d="M27.99 41h4L8.04 80.06l-.09.15L6.27 83l-2.02-.01c-.12-1-.27-2.02-.27-2.99l24.01-39z" fill="#8D6E63"/><path d="M30.2 42L7.18 79.54l-.1.16L5.71 82h-.57c-.08-.6-.14-1.18-.16-1.72L28.55 42h1.65m1.79-1h-4L3.98 80c0 .97.16 1.99.27 2.99l2.02.01 1.67-2.79.09-.15L31.99 41z" fill="#424242" opacity=".2"/><path fill="#8D6E63" d="M27.98 40.67h4V87.9h-4z"/><path d="M30.98 41.67V86.9h-2V41.67h2m1-1h-4V87.9h4V40.67z" fill="#424242" opacity=".2"/><linearGradient id="e" x1="29.987" x2="29.987" y1="104.06" y2="80" gradientUnits="userSpaceOnUse"><stop stop-color="#9E9E9E" offset=".002"/><stop stop-color="#A3A3A3" offset=".041"/><stop stop-color="#BEBEBE" offset=".27"/><stop stop-color="#D1D1D1" offset=".505"/><stop stop-color="#DCDCDC" offset=".745"/><stop stop-color="#E0E0E0" offset="1"/></linearGradient><path d="M56 80c0 14.18-13.2 24.06-26.01 24.06-12.93 0-26.01-9.89-26.01-24.06H56z" fill="url(#e)"/><path d="M52.76 83c-.73 4.58-3.13 8.79-6.93 12.08-4.39 3.8-10.17 5.98-15.85 5.98-5.72 0-11.51-2.18-15.89-5.98C10.32 91.8 7.93 87.59 7.21 83h45.55M56 80H3.98c0 14.18 13.08 24.06 26.01 24.06C42.8 104.06 56 94.18 56 80z" fill="#424242" opacity=".2"/><path d="M99.99 41h-4l23.95 39.06.09.15L121.7 83l2.02-.01c.12-1 .27-2.02.27-2.99l-24-39z" fill="#8D6E63"/><path d="M99.44 42l23.57 38.28c-.02.55-.08 1.12-.16 1.72h-.57l-1.38-2.31-.09-.15L97.78 42h1.66m.55-1h-4l23.95 39.06.09.15L121.7 83l2.02-.01c.12-1 .27-2.02.27-2.99l-24-39z" fill="#424242" opacity=".2"/><path d="M96.01 41h4L76.05 80.06l-.09.15L74.29 83l-2.02-.01c-.12-1-.27-2.02-.27-2.99l24.01-39z" fill="#8D6E63"/><path d="M98.22 42L75.2 79.54l-.1.16-1.38 2.3h-.57c-.07-.6-.14-1.17-.16-1.72L96.57 42h1.65m1.79-1h-4L71.99 80c0 .97.16 1.99.27 2.99l2.03.01 1.67-2.79.09-.15L100.01 41z" fill="#424242" opacity=".2"/><path fill="#8D6E63" d="M96 40.67h4V87.9h-4z"/><path d="M98.99 41.67V86.9h-2V41.67h2m1-1h-4V87.9h4V40.67z" fill="#424242" opacity=".2"/><linearGradient id="f" x1="98.002" x2="98.002" y1="104.06" y2="80" gradientUnits="userSpaceOnUse"><stop stop-color="#9E9E9E" offset=".002"/><stop stop-color="#A3A3A3" offset=".041"/><stop stop-color="#BEBEBE" offset=".27"/><stop stop-color="#D1D1D1" offset=".505"/><stop stop-color="#DCDCDC" offset=".745"/><stop stop-color="#E0E0E0" offset="1"/></linearGradient><path d="M124.01 80c0 14.18-13.2 24.06-26.01 24.06-12.93 0-26.01-9.89-26.01-24.06h52.02z" fill="url(#f)"/><path d="M120.78 83c-.73 4.58-3.13 8.79-6.93 12.08-4.39 3.8-10.17 5.98-15.85 5.98-5.72 0-11.51-2.18-15.89-5.98-3.78-3.28-6.16-7.5-6.89-12.08h45.56m3.23-3H71.99c0 14.18 13.08 24.06 26.01 24.06 12.81 0 26.01-9.88 26.01-24.06z" fill="#424242" opacity=".2"/><path d="M68 116V32.11c2 .96 3.79 1.96 5.78 3.26C80.87 39.98 89 42.44 97 42.91l-3.01-6.32c-5.97-.82-11.55-2.91-16.83-6.34-3.13-2.03-6.12-3.69-9.16-5V11.91h-8v13.34c-3.03 1.31-6.03 2.97-9.16 5-5.28 3.43-10.86 5.53-16.83 6.34L31 42.91c8-.47 16.13-2.94 23.22-7.54A51.79 51.79 0 0 1 60 32.11V116h8z" fill="#BDBDBD"/><path d="M66 13.91v11.34c0 .8.47 1.52 1.21 1.84 2.84 1.23 5.73 2.81 8.86 4.84 5.16 3.35 10.73 5.53 16.57 6.49l1.04 2.17c-6.76-.9-13.2-3.25-18.8-6.89-2-1.3-3.85-2.34-6-3.38-.28-.13-.57-.2-.87-.2-.37 0-.74.1-1.06.31-.6.36-.95 1-.95 1.68V114h-4V32.11c0-.69-.35-1.33-.94-1.69-.32-.2-.69-.31-1.06-.31-.3 0-.59.07-.87.2-2.15 1.04-4 2.08-6.01 3.38-5.6 3.64-12.04 6-18.8 6.89l1.04-2.17c5.84-.96 11.41-3.13 16.57-6.49 3.13-2.03 6.03-3.62 8.86-4.84.73-.32 1.21-1.04 1.21-1.84V13.9h4m2-1.99h-8v13.34c-3.03 1.31-6.03 2.97-9.16 5-5.28 3.43-10.86 5.53-16.83 6.34L31 42.91c8-.47 16.13-2.94 23.22-7.54A51.79 51.79 0 0 1 60 32.11V116h8V32.11c2 .96 3.79 1.96 5.78 3.26C80.87 39.98 89 42.44 97 42.91l-3.01-6.32c-5.97-.82-11.55-2.91-16.83-6.34-3.13-2.03-6.12-3.69-9.16-5V11.91z" fill="#424242" opacity=".2"/><path d="M-222.99 187.5h7.99V300h-7.99z"/><path d="M-190.27 300c2.26 0 3.86-2.3 2.99-4.39-3.46-8.38-16.35-15.85-31.72-15.85s-28.26 7.47-31.72 15.85c-.86 2.09.73 4.39 2.99 4.39h57.46z"/><linearGradient id="g" x1="64" x2="64" y1="124" y2="103.76" gradientUnits="userSpaceOnUse"><stop stop-color="#F9A825" offset="0"/><stop stop-color="#FFB300" offset="1"/></linearGradient><path d="M92.73 124c2.26 0 3.86-2.3 2.99-4.39-3.46-8.38-16.35-15.85-31.72-15.85s-28.26 7.47-31.72 15.85c-.87 2.09.72 4.39 2.99 4.39h57.46z" fill="url(#g)"/><path d="M64 105.76c15.48 0 26.95 7.53 29.88 14.61.2.48.01.88-.12 1.07-.11.17-.43.55-1.03.55H35.27c-.59 0-.92-.39-1.03-.55-.13-.19-.31-.59-.12-1.07 2.93-7.08 14.4-14.61 29.88-14.61m0-2c-15.37 0-28.26 7.47-31.72 15.85-.87 2.09.72 4.39 2.99 4.39h57.47c2.26 0 3.86-2.3 2.99-4.39-3.47-8.38-16.36-15.85-31.73-15.85z" fill="#424242" opacity=".2"/><circle cx="-219" cy="187.91" r="7.91"/><circle cx="-254.91" cy="213.25" r="5.99"/><path d="M-231.12 256c0 14-12.12 19.75-23.89 19.75-11.88 0-23.89-5.75-23.89-19.75h47.78zM-159 256c0 14-12.12 19.75-23.89 19.75-11.88 0-23.89-5.75-23.89-19.75H-159zM-275.01 256h-3.9l22.06-39.33h3.89z"/><path d="M-235.02 256h3.9l-22.06-39.33h-3.89z"/><path d="M-256.96 216.67h3.9V256h-3.9z"/><path d="M-215 198.63c-6 1.32-11.34 3.84-17.16 7.61-7.48 4.86-15.51 7.06-24.51 6.71a3.123 3.123 0 0 0-3.25 3l5.02 3.29c9.43 0 18.22-2.6 26.14-7.75 4.69-3.05 8.75-5.17 13.75-6.41v-6.45z"/><circle cx="-183" cy="213.25" r="5.99"/><linearGradient id="h" x1="64.002" x2="64.002" y1="19.812" y2="4" gradientUnits="userSpaceOnUse"><stop stop-color="#F9A825" offset="0"/><stop stop-color="#FFB300" offset="1"/></linearGradient><circle cx="64" cy="11.91" r="7.91" fill="url(#h)"/><linearGradient id="i" x1="29.982" x2="29.982" y1="45.46" y2="33.481" gradientUnits="userSpaceOnUse"><stop stop-color="#F9A825" offset="0"/><stop stop-color="#FFB300" offset="1"/></linearGradient><circle cx="29.98" cy="39.47" r="5.99" fill="url(#i)"/><path d="M64 6c3.26 0 5.91 2.65 5.91 5.91s-2.65 5.91-5.91 5.91-5.91-2.65-5.91-5.91S60.75 6 64 6m0-2c-4.37 0-7.91 3.54-7.91 7.91s3.54 7.91 7.91 7.91 7.91-3.54 7.91-7.91S68.37 4 64 4zM29.98 35.48c2.2 0 3.99 1.79 3.99 3.99s-1.79 3.99-3.99 3.99-3.99-1.79-3.99-3.99 1.79-3.99 3.99-3.99m0-2c-3.31 0-5.99 2.68-5.99 5.99s2.68 5.99 5.99 5.99 5.99-2.68 5.99-5.99-2.68-5.99-5.99-5.99z" fill="#424242" opacity=".2"/><linearGradient id="j" x1="98.002" x2="98.002" y1="45.46" y2="33.481" gradientUnits="userSpaceOnUse"><stop stop-color="#F9A825" offset="0"/><stop stop-color="#FFB300" offset="1"/></linearGradient><circle cx="98" cy="39.47" r="5.99" fill="url(#j)"/><path d="M98 35.48c2.2 0 3.99 1.79 3.99 3.99s-1.79 3.99-3.99 3.99-3.99-1.79-3.99-3.99 1.79-3.99 3.99-3.99m0-2c-3.31 0-5.99 2.68-5.99 5.99s2.68 5.99 5.99 5.99 5.99-2.68 5.99-5.99-2.68-5.99-5.99-5.99z" fill="#424242" opacity=".2"/><path d="M-162.9 256h3.9l-22.05-39.33h-3.9z"/><path d="M-202.89 256h-3.89l22.05-39.33h3.9z"/><path d="M-180.94 256h-3.9v-39.33h3.9z"/><path d="M-223 198.63c6 1.32 11.39 3.84 17.2 7.61 7.48 4.86 15.53 7.06 24.54 6.71a3.132 3.132 0 0 1 3.26 3l-5.02 3.29c-9.43 0-18.27-2.6-26.19-7.75-4.69-3.05-8.79-5.17-13.79-6.41v-6.45z"/></svg>