<svg viewBox="0 0 128 128" xmlns="http://www.w3.org/2000/svg" xmlns:xlink="http://www.w3.org/1999/xlink"><radialGradient id="a" cx="64" cy="17.313" r="109.5" gradientTransform="matrix(0 .999 -.4294 0 71.434 -46.572)" gradientUnits="userSpaceOnUse"><stop stop-color="#FF7043" offset="0"/><stop stop-color="#FE6C3F" offset=".32"/><stop stop-color="#FA6232" offset=".664"/><stop stop-color="#F4511E" offset=".996"/></radialGradient><path d="M89.83 28.1c-1.81-2.78-1.47-8.78-1.14-11.87a1.9 1.9 0 0 0-1.73-2.09L64 12.24l-23.19 2.02a1.817 1.817 0 0 0-1.65 2.04c.38 3.02.82 8.9-.99 11.8-2.62 4.19-17.83 21.48-9.83 41.29 7.28 18.03 15.81 39.93 18.28 48.74a5.32 5.32 0 0 0 3.12 3.5C52.34 122.68 57 124 64 124s11.65-1.32 14.26-2.37a5.32 5.32 0 0 0 3.12-3.5c2.48-8.81 11-30.71 18.28-48.74 8-19.81-7.13-37.15-9.83-41.29z" fill="url(#a)"/><defs><path id="b" d="M89.83 28.1c-1.81-2.78-1.47-8.78-1.14-11.87a1.9 1.9 0 0 0-1.73-2.09L64 12.24l-23.19 2.02a1.817 1.817 0 0 0-1.65 2.04c.38 3.02.82 8.9-.99 11.8-2.62 4.19-17.83 21.48-9.83 41.29 7.28 18.03 15.81 39.93 18.28 48.74a5.32 5.32 0 0 0 3.12 3.5C52.34 122.68 57 124 64 124s11.65-1.32 14.26-2.37a5.32 5.32 0 0 0 3.12-3.5c2.48-8.81 11-30.71 18.28-48.74 8-19.81-7.13-37.15-9.83-41.29z"/></defs><clipPath id="c"><use xlink:href="#b"/></clipPath><g fill="#D7CCC8" clip-path="url(#c)"><path d="M64.25 117.63c-23.9 0-42.62-6.77-42.62-15.42v-.5h3v.5c0 2.88 4.01 5.99 10.73 8.33 7.57 2.64 17.84 4.09 28.9 4.09s21.33-1.45 28.9-4.09c6.72-2.34 10.73-5.46 10.73-8.33v-.5h3v.5c-.02 8.65-18.74 15.42-42.64 15.42z"/><path d="M106.37 102.21c0 8.37-18.5 14.92-42.12 14.92s-42.12-6.55-42.12-14.92h2c0 6.24 16.12 12.92 40.12 12.92s40.12-6.68 40.12-12.92h2m1-1h-4v1c0 4.87-13.93 11.92-39.13 11.92s-39.13-7.05-39.13-11.92v-1h-4v1c0 9.08 18.54 15.92 43.12 15.92s43.12-6.84 43.12-15.92v-1h.02z"/></g><g fill="#D7CCC8" clip-path="url(#c)"><path d="M64.25 110.39c-23.9 0-42.62-6.77-42.62-15.42v-.5h3v.5c0 2.88 4.01 5.99 10.73 8.33 7.57 2.64 17.84 4.09 28.9 4.09s21.33-1.45 28.9-4.09c6.72-2.34 10.73-5.46 10.73-8.33v-.5h3v.5c-.02 8.65-18.74 15.42-42.64 15.42z"/><path d="M106.37 94.97c0 8.37-18.5 14.92-42.12 14.92s-42.12-6.55-42.12-14.92h2c0 6.24 16.12 12.92 40.12 12.92s40.12-6.68 40.12-12.92h2m1-1h-4v1c0 4.87-13.93 11.92-39.13 11.92s-39.13-7.05-39.13-11.92v-1h-4v1c0 9.08 18.54 15.92 43.12 15.92s43.12-6.84 43.12-15.92v-1h.02z"/></g><g clip-path="url(#c)" fill="#D7CCC8"><path d="M106.43 22.86H21.57c-.5 1.26-.96 2.59-1.36 4h87.59c-.41-1.42-.87-2.75-1.37-4zM18.21 46.83h91.58c.02-1.31.04-2.63.04-4H18.17c0 1.37.02 2.69.04 4zM18.27 38.84h91.47c-.15-2.88-.48-5.54-.97-7.99H19.23c-.48 2.45-.81 5.11-.96 7.99z"/></g><path d="M64 15.25l21.6 1.78c-.51 5.9.07 10.17 1.72 12.7.32.49.74 1.07 1.28 1.81 4.44 6.13 14.84 20.49 8.29 36.72-4.55 11.27-15.46 38.62-18.39 49.05-.2.7-.69 1.26-1.36 1.53-2.43.99-6.69 2.16-13.14 2.16-6.46 0-10.71-1.17-13.14-2.15-.66-.27-1.16-.83-1.36-1.53-2.93-10.43-13.84-37.78-18.39-49.05-6.47-16.02 3.78-30.36 8.15-36.48.61-.86 1.1-1.53 1.45-2.09 1.98-3.16 1.99-8.35 1.56-12.55L64 15.25m0-3.01l-23.19 2.02a1.817 1.817 0 0 0-1.65 2.04c.38 3.02.82 8.9-.99 11.8-2.62 4.19-17.83 21.48-9.83 41.29 7.28 18.03 15.81 39.93 18.28 48.74a5.32 5.32 0 0 0 3.12 3.5C52.34 122.68 57 124 64 124s11.65-1.32 14.26-2.37a5.32 5.32 0 0 0 3.12-3.5c2.48-8.81 11-30.71 18.28-48.74 8-19.81-7.13-37.15-9.83-41.29-1.81-2.78-1.47-8.78-1.14-11.87a1.9 1.9 0 0 0-1.73-2.09L64 12.24z" fill="#424242" opacity=".2"/><radialGradient id="d" cx="64.5" cy="2.563" r="13.558" gradientTransform="matrix(0 .999 -1.7702 0 69.036 -61.806)" gradientUnits="userSpaceOnUse"><stop stop-color="#FF7043" offset="0"/><stop stop-color="#FE6C3F" offset=".32"/><stop stop-color="#FA6232" offset=".664"/><stop stop-color="#F4511E" offset=".996"/></radialGradient><path d="M88.87 15.41C85.58 8.8 75.69 4 64 4S42.42 8.8 39.13 15.41c-.32.65.01 1.58.55 1.58h48.64c.54 0 .88-.93.55-1.58z" fill="url(#d)"/><path d="M64 7c8.47 0 16.2 2.76 20.22 6.99H43.78C47.8 9.76 55.53 7 64 7m0-3C52.31 4 42.42 8.8 39.13 15.41c-.32.65.01 1.58.55 1.58h48.64c.54 0 .88-.93.55-1.58C85.58 8.8 75.69 4 64 4z" fill="#424242" opacity=".2"/></svg>