<svg viewBox="0 0 128 128" xmlns="http://www.w3.org/2000/svg" xmlns:xlink="http://www.w3.org/1999/xlink"><symbol id="m" viewBox="-64.5 -64.5 129 129"><g fill="none" stroke="#4285F4" stroke-miterlimit="10"><path d="M-64-64H64V64H-64z"/><path d="M36.95 37.82C27.32 46.32 14.2 51 0 51c-14.27 0-27.39-4.62-36.96-13.01C-47.45 28.79-53 15.65-53 0c0-15.58 5.55-28.69 16.04-37.92C-27.36-46.35-14.24-51 0-51c14.17 0 27.29 4.71 36.95 13.25C47.45-28.45 53-15.4 53 0c0 15.47-5.55 28.55-16.05 37.82z"/><path d="M0 55c-29.59 0-57-19.01-57-55 0-35.8 27.41-55 57-55S57-35.31 57 0c0 35.51-27.41 55-57 55z"/><path d="M0-43c-12.29 0-23.54 3.94-31.68 11.09C-40.39-24.25-45-13.21-45 0c0 29.7 22.6 43 45 43 21.67 0 45-13.46 45-43S21.67-43 0-43zM-.01 51V-51M-16 48.95v-97.88M15.99 48.91v-97.84M53 .08H-53"/></g></symbol><linearGradient id="a" x1="64.083" x2="64.083" y1="124" y2="51.333" gradientUnits="userSpaceOnUse"><stop stop-color="#795548" offset="0"/><stop stop-color="#5D4037" offset="1"/></linearGradient><path d="M20.58 59.36l87.42.28V74c0 23.16-17.58 42-39.2 42h-9.44c-21.58 0-39.14-18.78-39.2-41.89l.42-14.75m-7.78-8.03L12.17 74c0 27.61 21.13 50 47.2 50h9.44c26.07 0 47.2-22.39 47.2-50V51.67L12.8 51.33z" fill="url(#a)"/><path d="M71.57 124H56.43c-4.66 0-8.43-3.77-8.43-8.43V115c0-1.66 1.34-3 3-3h26c1.66 0 3 1.34 3 3v.57c0 4.66-3.77 8.43-8.43 8.43z" fill="#8D6E63"/><ellipse cx="64.11" cy="63.33" rx="60" ry="16.67" fill="#C62828"/><ellipse cx="64.11" cy="60.3" rx="60" ry="16.67" fill="#E53935"/><defs><path id="c" d="M117.68 53.81c-.88-17.96-13.61-48.13-52.52-48.9 0 0-.73-.02-1.05-.02s-1.05.02-1.05.02c-38.9.77-51.63 30.94-52.51 48.9 0 14.06 107.13 14.06 107.13 0z"/></defs><linearGradient id="b" x1="64.114" x2="64.114" y1="5.769" y2="64.318" gradientUnits="userSpaceOnUse"><stop stop-color="#E53935" offset="0"/><stop stop-color="#C62828" offset="1"/></linearGradient><use fill="url(#b)" xlink:href="#c"/><clipPath id="d"><use xlink:href="#c"/></clipPath><path d="M40.3 8.32l9.57-3.44v34.79c-1.95-15.03-4.73-25.91-9.57-31.35zM87.93 8.32l-9.57-3.44v34.79c1.95-15.03 4.73-25.91 9.57-31.35z" clip-path="url(#d)" fill="#C62828"/><linearGradient id="e" x1="64.114" x2="64.114" y1="4.884" y2="58.482" gradientUnits="userSpaceOnUse"><stop stop-color="#E53935" offset="0"/><stop stop-color="#C62828" offset="1"/></linearGradient><path d="M76.21 58.7H52.02c-1.47 0-2.67-1.2-2.67-2.67V6.67c0-1.47 1.2-2.67 2.67-2.67h24.19c1.47 0 2.67 1.2 2.67 2.67v49.36c0 1.47-1.2 2.67-2.67 2.67z" fill="url(#e)"/><path d="M56 55.36v-38c0-1.66 1.34-3 3-3h10c1.66 0 3 1.34 3 3v38.01c0 1.66-1.34 3-3 3H59a3.01 3.01 0 0 1-3-3.01z" fill="#fff"/><ellipse cx="64.11" cy="63.33" rx="60" ry="16.67" fill="#C62828"/><ellipse cx="64.11" cy="60.3" rx="60" ry="16.67" fill="#E53935"/><defs><path id="f" d="M117.68 53.81c-.88-17.96-13.61-48.13-52.52-48.9 0 0-.73-.02-1.05-.02s-1.05.02-1.05.02c-38.9.77-51.63 30.94-52.51 48.9 0 14.06 107.13 14.06 107.13 0z"/></defs><use fill="url(#b)" xlink:href="#f"/><clipPath id="g"><use xlink:href="#f"/></clipPath><path d="M40.3 8.32l9.57-3.44v34.79c-1.95-15.03-4.73-25.91-9.57-31.35zM87.93 8.32l-9.57-3.44v34.79c1.95-15.03 4.73-25.91 9.57-31.35z" clip-path="url(#g)" fill="#C62828"/><path d="M76.21 58.7H52.02c-1.47 0-2.67-1.2-2.67-2.67V6.67c0-1.47 1.2-2.67 2.67-2.67h24.19c1.47 0 2.67 1.2 2.67 2.67v49.36c0 1.47-1.2 2.67-2.67 2.67z" fill="url(#e)"/><ellipse cx="64.11" cy="63.33" rx="60" ry="16.67" fill="#C62828"/><radialGradient id="h" cx="64.114" cy="59.12" r="43.856" gradientTransform="matrix(1 0 0 1.0613 0 -2.44)" gradientUnits="userSpaceOnUse"><stop stop-color="#EF5350" offset=".323"/><stop stop-color="#E53935" offset="1"/></radialGradient><ellipse cx="64.11" cy="60.3" rx="60" ry="16.67" fill="url(#h)"/><defs><path id="i" d="M117.68 53.81c-.88-17.96-13.61-48.13-52.52-48.9 0 0-.73-.02-1.05-.02s-1.05.02-1.05.02c-38.9.77-51.63 30.94-52.51 48.9 0 14.06 107.13 14.06 107.13 0z"/></defs><use fill="url(#b)" xlink:href="#i"/><clipPath id="j"><use xlink:href="#i"/></clipPath><path d="M40.3 8.32l9.57-3.44v34.79c-1.95-15.03-4.73-25.91-9.57-31.35zM87.93 8.32l-9.57-3.44v34.79c1.95-15.03 4.73-25.91 9.57-31.35z" clip-path="url(#j)" fill="#B71C1C"/><path d="M83 29H72V18.36C72 16.7 70.66 15 69 15H59c-1.66 0-3 1.7-3 3.36V29H45c-1.66 0-3 1.7-3 3.36v10c0 1.66 1.34 2.64 3 2.64h11v11.36c0 1.66 1.34 2.64 3 2.64h10c1.66 0 3-.98 3-2.64V45h11c1.66 0 3-.98 3-2.64v-10C86 30.7 84.66 29 83 29z" fill="#fff"/><path d="M69 18v11.36c0 1.66 1.34 2.64 3 2.64h11v10H72c-1.66 0-3 1.7-3 3.36V56H59V45.36C59 43.7 57.66 42 56 42H45V32h11c1.66 0 3-.98 3-2.64V18h10m0-3H59c-1.66 0-3 1.7-3 3.36V29H45c-1.66 0-3 1.7-3 3.36v10c0 1.66 1.34 2.64 3 2.64h11v11.36c0 1.66 1.34 2.64 3 2.64h10c1.66 0 3-.98 3-2.64V45h11c1.66 0 3-.98 3-2.64v-10C86 30.7 84.66 29 83 29H72V18.36C72 16.7 70.66 15 69 15z" fill="#424242" opacity=".2"/><path d="M75.94 7a2.965 2.965 0 0 0 2.25 2.49c11.69 2.75 20.94 8.95 27.53 18.44 5.03 7.24 8.27 16.37 8.9 25.05.07 1.02.6 1.93 1.49 2.41 3.1 1.69 4.88 3.53 4.88 4.91v3.03C121 68.1 101.42 77 64 77S7 68.1 7 63.33V60.3c0-1.39 1.9-3.22 5-4.91.89-.49 1.51-1.4 1.58-2.41.63-8.68 3.89-17.81 8.92-25.05 6.58-9.48 15.86-15.69 27.55-18.44 1.2-.28 2.11-1.28 2.29-2.49H76m.21-3H52.02c-1.39 0-2.52 1.13-2.65 2.57-27.66 6.5-37.67 30.49-38.81 46.19C6.41 55.02 4 57.59 4 60.3v3.03C4 72.54 30.86 80 64 80s60-7.46 60-16.67V60.3c0-2.72-2.3-5.28-6.45-7.55-1.15-15.7-11.07-39.68-38.73-46.19C78.7 5.13 77.58 4 76.19 4h.02zM77 114c.55 0 1 .45 1 1v.57c0 3.54-2.88 6.43-6.43 6.43H56.43c-3.54 0-6.43-2.88-6.43-6.43V115c0-.55.45-1 1-1h26m0-2H51c-1.66 0-3 1.34-3 3v.57c0 4.66 3.77 8.43 8.43 8.43h15.14c4.66 0 8.43-3.77 8.43-8.43V115c0-1.66-1.34-3-3-3z" fill="#424242" opacity=".2"/></svg>