<svg viewBox="0 0 128 128" xmlns="http://www.w3.org/2000/svg"><linearGradient id="a" x1="91.1" x2="46.735" y1="-1.609" y2="84.105" gradientTransform="scale(1 -1) rotate(9.167 861.045 72.387)" gradientUnits="userSpaceOnUse"><stop stop-color="#EDEDED" offset=".281"/><stop stop-color="#eee" offset=".29"/><stop stop-color="#EAEAEA" offset=".42"/><stop stop-color="#DEDEDE" offset=".549"/><stop stop-color="#CBCACA" offset=".678"/><stop stop-color="#AFAFAF" offset=".806"/><stop stop-color="#8B8B8B" offset=".932"/><stop stop-color="#757575" offset="1"/></linearGradient><path d="M72.06 48.68l42.36 69.84c.07.11.14.56.17 1.04.06.75-.26 1.49-.84 1.97l-2.27 1.91c-.47.39-1.07.59-1.68.55-.57-.04-.57-.04-1.26-.25S49.11 57.19 49.11 57.19c-.87-.98-.78-2.48.21-3.34l4.61-4.7c1.08-.94 1.99-3.2 3.63-.32 0 0 2.32 3.3 4.67 3.01s6.61-3.95 6.61-3.95c1.1-.68 2.55-.32 3.22.79z" fill="url(#a)"/><linearGradient id="b" x1="26.202" x2="26.202" y1="74.287" y2="128.69" gradientTransform="scale(1 -1) rotate(4.502 1713.071 115.396)" gradientUnits="userSpaceOnUse"><stop stop-color="#FF5252" offset=".002"/><stop stop-color="#F94D4D" offset=".208"/><stop stop-color="#E63F3F" offset=".497"/><stop stop-color="#C92929" offset=".833"/><stop stop-color="#B71C1C" offset="1"/></linearGradient><path d="M57.71 49.48L41.66 14.94C37.69 6.39 27.72 2.1 19 5.66 9.69 9.46 5.54 20.21 9.73 29.23c2.56 5.52 7.34 8.19 14.56 10.88 11.82 4.39 23.67 16.27 23.95 16.4l.08.14c0-.01 6.27-4.69 9.39-7.17zM30.42 32.25c-5.74 2.67-12.55.18-15.22-5.56s-.18-12.55 5.56-15.22 12.55-.18 15.22 5.56.18 12.55-5.56 15.22z" fill="url(#b)"/><linearGradient id="c" x1="102.56" x2="58.198" y1="-3.458" y2="82.256" gradientTransform="scale(-1) rotate(9.167 791.239 -798.395)" gradientUnits="userSpaceOnUse"><stop stop-color="#eee" offset=".003"/><stop stop-color="#EBEBEB" offset=".349"/><stop stop-color="#E2E2E2" offset=".594"/><stop stop-color="#D3D3D3" offset=".806"/><stop stop-color="#BDBDBD" offset="1"/></linearGradient><path d="M59.17 47.88s4.27 3.67 6.61 3.95c2.35.29 4.67-3.01 4.67-3.01 1.63-2.88 2.55-.62 3.63.32l4.61 4.7c.99.86 1.08 2.37.21 3.34 0 0-58.74 66.34-59.44 66.55-.69.21-.69.21-1.26.25-.61.04-1.21-.16-1.68-.55l-2.27-1.91c-.58-.49-.89-1.22-.84-1.97.04-.48.11-.94.17-1.04l42.36-69.84a2.36 2.36 0 0 1 3.23-.79z" fill="url(#c)"/><linearGradient id="d" x1="37.778" x2="37.778" y1="73.376" y2="127.78" gradientTransform="rotate(-175.487 65.272 64.598)" gradientUnits="userSpaceOnUse"><stop stop-color="#FF5252" offset=".002"/><stop stop-color="#F94D4D" offset=".208"/><stop stop-color="#E63F3F" offset=".497"/><stop stop-color="#C92929" offset=".833"/><stop stop-color="#B71C1C" offset="1"/></linearGradient><path d="M79.68 56.64l.08-.14c.28-.14 12.13-12.01 23.95-16.4 7.23-2.68 12-5.36 14.56-10.88 4.19-9.01.04-19.76-9.27-23.57-8.72-3.56-18.69.74-22.66 9.28L70.29 49.48c3.12 2.48 9.39 7.16 9.39 7.16zm12.33-39.61c2.67-5.74 9.48-8.23 15.22-5.56s8.23 9.48 5.56 15.22-9.48 8.23-15.22 5.56c-5.73-2.67-8.22-9.48-5.56-15.22z" fill="url(#d)"/><path d="M25 7.01c-1.91.08-3.75.52-5.5 1.34-7.23 3.36-10.38 11.97-7.02 19.2.5 1.08 1.12 2.07 1.85 2.97-.81-.94-1.39-1.91-1.88-2.96-1.69-3.63-1.81-7.68-.35-11.4s4.31-6.61 8.03-8.13c1.56-.63 3.2-.98 4.87-1.02m78 0c1.67.05 3.31.39 4.87 1.03 3.72 1.52 6.57 4.4 8.03 8.13a14.35 14.35 0 0 1-.35 11.4c-.49 1.05-1.07 2.02-1.88 2.96.73-.9 1.35-1.9 1.85-2.97 3.36-7.23.21-15.85-7.02-19.2a13.96 13.96 0 0 0-5.5-1.35m-13.38 7.7c-.11.21-.22.43-.32.65-1.63 3.5-1.79 7.43-.47 11.06 1.33 3.63 3.99 6.52 7.49 8.15 1.93.9 3.97 1.35 6.08 1.35 1.42 0 2.82-.21 4.14-.61-1.14.52-2.43 1.04-3.88 1.58-4.95 1.84-13.13 6.15-24.05 16.2-.04.01-.09.02-.13.04-.87.27-1.58.91-1.91 1.76l-.92 1.03c-.87.98-1 2.42-.32 3.55l36.18 59.64-1.61 1.35c-2.13-2.27-10.74-11.77-43.66-48.86A3.012 3.012 0 0 0 64 70.59c-.86 0-1.67.37-2.24 1.01-32.91 37.09-41.53 46.59-43.66 48.86l-1.61-1.35 36.18-59.64c.68-1.12.55-2.56-.32-3.55l-.92-1.03a3.035 3.035 0 0 0-1.91-1.76c-.04-.01-.09-.03-.13-.04-10.92-10.06-19.09-14.36-24.05-16.2-1.46-.54-2.74-1.07-3.88-1.58 1.33.4 2.72.61 4.14.61 2.11 0 4.16-.45 6.08-1.35 3.5-1.63 6.16-4.52 7.49-8.15s1.16-7.55-.47-11.06c-.1-.22-.21-.44-.32-.65.2.35.39.72.56 1.09L54.2 48.65a3.002 3.002 0 0 0 2.72 1.73c.3 0 .6-.05.89-.13.98.79 2.95 2.3 4.85 3.25.42.21.88.31 1.34.31s.92-.1 1.34-.31c1.9-.95 3.87-2.46 4.85-3.25a3.089 3.089 0 0 0 1.89-.04c.76-.27 1.38-.83 1.72-1.56L89.06 15.8c.17-.37.36-.74.56-1.09M102.61 4c-6.77 0-13.26 4.04-16.27 10.53L71.08 47.38c-.32-.16-.68-.24-1.04-.24-.41 0-.82.11-1.2.33 0 0-2.58 2.21-4.83 3.33-2.25-1.12-4.83-3.33-4.83-3.33a2.29 2.29 0 0 0-1.2-.33c-.36 0-.72.08-1.04.24L41.66 14.53C38.65 8.04 32.16 4 25.39 4c-2.14 0-4.3.4-6.39 1.26-9.31 3.8-13.45 14.55-9.27 23.56 2.56 5.52 7.34 8.19 14.56 10.88 11.82 4.39 23.67 16.27 23.95 16.4l.08.14s.12-.09.33-.24c.1.28.25.55.46.79 0 0 .35.4.99 1.12l-36.52 60.21c-.07.11-.14.56-.17 1.04-.06.75.26 1.49.84 1.97l2.27 1.91c.42.36.96.55 1.51.55.06 0 .11 0 .17-.01.57-.04.57-.04 1.26-.25.47-.14 27.09-30.08 44.54-49.75 17.45 19.67 44.08 49.61 44.54 49.75.69.21.69.21 1.26.25.06 0 .11.01.17.01.55 0 1.09-.2 1.51-.55l2.27-1.91c.58-.49.89-1.22.84-1.97-.04-.48-.11-.94-.17-1.04L77.9 57.91c.64-.73.99-1.12.99-1.12.21-.24.36-.51.46-.79.2.15.33.24.33.24l.08-.14c.28-.14 12.13-12.01 23.95-16.4 7.23-2.68 12-5.36 14.56-10.88 4.19-9.01.04-19.76-9.27-23.57-2.09-.85-4.25-1.25-6.39-1.25zm-.21 28.92c-1.62 0-3.26-.34-4.82-1.07-5.74-2.67-8.23-9.48-5.56-15.22 1.94-4.18 6.08-6.63 10.4-6.63 1.62 0 3.26.34 4.82 1.07 5.74 2.67 8.23 9.48 5.56 15.22-1.94 4.17-6.08 6.63-10.4 6.63zm-76.8 0c-4.32 0-8.46-2.46-10.4-6.63-2.67-5.74-.18-12.55 5.56-15.22 1.56-.73 3.2-1.07 4.82-1.07 4.32 0 8.46 2.46 10.4 6.63 2.67 5.74.18 12.55-5.56 15.22-1.56.72-3.2 1.07-4.82 1.07z" fill="#424242" opacity=".2"/><ellipse transform="rotate(-23.336 63.992 61.647)" cx="64" cy="61.65" rx="3.74" ry="3.74" fill="#231815"/></svg>