<svg viewBox="0 0 128 128" xmlns="http://www.w3.org/2000/svg"><linearGradient id="a" x1="64" x2="64" y1="4.25" y2="124.41" gradientUnits="userSpaceOnUse"><stop stop-color="#B388FF" offset="0"/><stop stop-color="#A175FF" offset=".377"/><stop stop-color="#7C4DFF" offset="1"/></linearGradient><path d="M116 124H12c-4.42 0-8-3.58-8-8V12c0-4.42 3.58-8 8-8h104c4.42 0 8 3.58 8 8v104c0 4.42-3.58 8-8 8z" fill="url(#a)"/><path d="M116 7c2.76 0 5 2.24 5 5v104c0 2.76-2.24 5-5 5H12c-2.76 0-5-2.24-5-5V12c0-2.76 2.24-5 5-5h104m0-3H12c-4.42 0-8 3.58-8 8v104c0 4.42 3.58 8 8 8h104c4.42 0 8-3.58 8-8V12c0-4.42-3.58-8-8-8z" fill="#424242" opacity=".2"/><path d="M64 16c2.76 0 5 2.24 5 5v22h18c2.76 0 5 2.24 5 5s-2.24 5-5 5H69v54c0 2.76-2.24 5-5 5s-5-2.24-5-5V53H41c-2.76 0-5-2.24-5-5s2.24-5 5-5h18V21c0-2.76 2.24-5 5-5m0-3c-4.41 0-8 3.59-8 8v19H41c-4.41 0-8 3.59-8 8s3.59 8 8 8h15v51c0 4.41 3.59 8 8 8s8-3.59 8-8V56h15c4.41 0 8-3.59 8-8s-3.59-8-8-8H72V21c0-4.41-3.59-8-8-8z" fill="#424242" opacity=".2"/><path d="M87 43H69V21c0-2.76-2.24-5-5-5s-5 2.24-5 5v22H41c-2.76 0-5 2.24-5 5s2.24 5 5 5h18v54c0 2.76 2.24 5 5 5s5-2.24 5-5V53h18c2.76 0 5-2.24 5-5s-2.24-5-5-5z" fill="#FAFAFA"/></svg>