<svg viewBox="0 0 128 128" xmlns="http://www.w3.org/2000/svg"><linearGradient id="a" x1="64.537" x2="64.537" y1="3.702" y2="123.92" gradientUnits="userSpaceOnUse"><stop stop-color="#F48FB1" offset="0"/><stop stop-color="#F382A8" offset=".234"/><stop stop-color="#EF5F90" offset=".667"/><stop stop-color="#EC407A" offset="1"/></linearGradient><path d="M63.86 56.62c-4.02.36-7.64 3.76-7.34 8.02.28 3.88 3.2 7.05 7 7.61 4.1.59 7.98-1.94 8.85-6.16 1.15-5.52-3.18-9.94-8.51-9.47z" fill="url(#a)"/><linearGradient id="b" x1="64.001" x2="64.001" y1="3.702" y2="123.92" gradientUnits="userSpaceOnUse"><stop stop-color="#F48FB1" offset="0"/><stop stop-color="#F382A8" offset=".234"/><stop stop-color="#EF5F90" offset=".667"/><stop stop-color="#EC407A" offset="1"/></linearGradient><path d="M61.11 51.73c2.35 3.06 6.18 1.83 7.73-1.65 1.09-2.46 1.92-5.3 2.57-7.94.61-2.54 1.24-5.08 1.77-7.64.53-2.53.99-6.73 1.23-9.3.49-5.16.65-10.64-1.6-15.38-1.73-3.65-5.8-6.28-9.76-5.75-15.58 2.11-8.45 29.13-6.04 38.06.85 3.13 2.2 7.13 4.1 9.6zM73.19 93.5c-.54-2.56-1.16-5.1-1.77-7.64-.64-2.65-1.48-5.49-2.57-7.94-1.55-3.48-5.38-4.71-7.73-1.65-1.9 2.46-3.26 6.48-4.11 9.6-2.41 8.92-9.54 35.93 6.05 38.06 3.96.54 8.03-2.1 9.76-5.76 2.25-4.75 2.09-10.23 1.6-15.37-.24-2.58-.7-6.78-1.23-9.3z" fill="url(#b)"/><linearGradient id="c" x1="99.262" x2="99.262" y1="3.702" y2="123.92" gradientUnits="userSpaceOnUse"><stop stop-color="#F48FB1" offset="0"/><stop stop-color="#F382A8" offset=".234"/><stop stop-color="#EF5F90" offset=".667"/><stop stop-color="#EC407A" offset="1"/></linearGradient><path d="M123.93 63.05c-2.12-15.59-29.13-8.46-38.05-6.04-3.13.85-7.14 2.2-9.61 4.1-3.05 2.35-1.83 6.18 1.65 7.73 2.46 1.09 5.29 1.92 7.94 2.57 2.54.62 5.08 1.25 7.64 1.78 2.52.53 6.72.99 9.3 1.23 5.15.49 10.63.65 15.38-1.6 3.65-1.73 6.29-5.8 5.75-9.77z" fill="url(#c)"/><linearGradient id="d" x1="28.739" x2="28.739" y1="3.702" y2="123.92" gradientUnits="userSpaceOnUse"><stop stop-color="#F48FB1" offset="0"/><stop stop-color="#F382A8" offset=".234"/><stop stop-color="#EF5F90" offset=".667"/><stop stop-color="#EC407A" offset="1"/></linearGradient><path d="M51.73 61.11c-2.46-1.9-6.48-3.25-9.61-4.1-8.92-2.42-35.93-9.55-38.05 6.04-.54 3.97 2.1 8.04 5.75 9.77 4.74 2.25 10.22 2.09 15.38 1.6 2.58-.24 6.78-.7 9.3-1.23 2.56-.54 5.1-1.16 7.64-1.78 2.65-.64 5.49-1.48 7.94-2.57 3.49-1.54 4.71-5.38 1.65-7.73z" fill="url(#d)"/><linearGradient id="e" x1="96.535" x2="96.535" y1="3.702" y2="123.92" gradientUnits="userSpaceOnUse"><stop stop-color="#F48FB1" offset="0"/><stop stop-color="#F382A8" offset=".234"/><stop stop-color="#EF5F90" offset=".667"/><stop stop-color="#EC407A" offset="1"/></linearGradient><path d="M81.41 50.17c.35 0 .7-.11 1-.32 2.64-1.92 25.8-18.79 27.53-20.53.8-.79 2.25-2.43 2.98-4.4.91-2.48.43-4.83-1.36-6.61-1.23-1.22-2.75-1.87-4.41-1.87-2.67 0-5.29 1.67-6.86 3.24-1.73 1.74-18.38 25.14-20.28 27.81-.49.68-.4 1.61.19 2.2.34.32.77.48 1.21.48z" fill="url(#e)"/><linearGradient id="f" x1="31.466" x2="31.466" y1="3.702" y2="123.92" gradientUnits="userSpaceOnUse"><stop stop-color="#F48FB1" offset="0"/><stop stop-color="#F382A8" offset=".234"/><stop stop-color="#EF5F90" offset=".667"/><stop stop-color="#EC407A" offset="1"/></linearGradient><path d="M18.06 29.32c1.73 1.73 24.9 18.61 27.53 20.53a1.72 1.72 0 0 0 2.2-.17c.59-.59.67-1.52.19-2.2-1.89-2.67-18.54-26.07-20.28-27.81-1.57-1.56-4.19-3.24-6.86-3.24-1.66 0-3.19.65-4.41 1.87-1.79 1.78-2.27 4.13-1.36 6.61.74 1.99 2.19 3.62 2.99 4.41z" fill="url(#f)"/><path d="M109.94 98.67c-1.73-1.72-24.9-18.6-27.53-20.52-.68-.49-1.61-.42-2.2.17s-.68 1.52-.19 2.2c1.9 2.66 18.54 26.07 20.28 27.81 1.57 1.56 4.19 3.23 6.86 3.23 1.67 0 3.19-.64 4.41-1.87 1.79-1.79 2.27-4.13 1.36-6.61-.74-1.98-2.19-3.61-2.99-4.41z" fill="url(#e)"/><path d="M45.59 78.15c-2.64 1.92-25.8 18.79-27.53 20.52-.8.8-2.25 2.43-2.98 4.41-.91 2.48-.43 4.82 1.36 6.61 1.22 1.22 2.75 1.87 4.41 1.87 2.67 0 5.29-1.67 6.86-3.23 1.73-1.74 18.38-25.15 20.27-27.81.49-.68.41-1.61-.19-2.2a1.7 1.7 0 0 0-2.2-.17z" fill="url(#f)"/><g fill="#424242" opacity=".2"><path d="M64.64 59.58c1.56 0 2.98.65 3.9 1.78.9 1.11 1.23 2.57.91 4.12-.48 2.3-2.38 3.85-4.73 3.85-.25 0-.5-.02-.75-.05-2.4-.35-4.27-2.39-4.44-4.85-.18-2.62 2.24-4.61 4.61-4.83.16-.01.33-.02.5-.02m0-2.99c-.26 0-.51.01-.78.03-4.02.36-7.64 3.76-7.34 8.02.28 3.88 3.2 7.05 7 7.61.4.06.8.09 1.19.09 3.64 0 6.88-2.44 7.67-6.25 1.09-5.25-2.78-9.5-7.74-9.5zM64.09 7c2.36 0 4.89 1.73 6.02 4.1 1.93 4.08 1.78 9.05 1.32 13.81-.13 1.42-.61 6.27-1.18 8.97-.44 2.11-.96 4.26-1.46 6.34l-.29 1.2c-.73 2.98-1.53 5.48-2.4 7.44-.47 1.06-1.24 1.61-1.75 1.61-.28 0-.57-.19-.86-.57-1.28-1.66-2.52-4.62-3.59-8.56-4.28-15.8-4.78-26.33-1.49-31.28 1.16-1.75 2.76-2.71 5.04-3.02.22-.03.43-.04.64-.04m0-3c-.34 0-.69.02-1.03.07-15.59 2.11-8.46 29.13-6.05 38.06.85 3.13 2.21 7.14 4.11 9.6.93 1.2 2.08 1.74 3.24 1.74 1.78 0 3.55-1.28 4.49-3.39 1.09-2.46 1.92-5.3 2.57-7.94.61-2.54 1.24-5.08 1.77-7.64.53-2.53.99-6.73 1.23-9.3.49-5.16.65-10.64-1.6-15.38C71.24 6.49 67.71 4 64.09 4zM64.35 77.52c.51 0 1.28.55 1.75 1.61.86 1.95 1.67 4.45 2.39 7.43l.25 1.03c.52 2.14 1.05 4.35 1.51 6.53.57 2.7 1.05 7.55 1.18 8.97.46 4.76.61 9.72-1.32 13.8-1.13 2.38-3.66 4.11-6.02 4.11-.21 0-.43-.01-.63-.04-2.28-.31-3.88-1.27-5.05-3.02-3.29-4.96-2.79-15.48 1.49-31.28 1.36-4.99 2.7-7.41 3.59-8.56.3-.39.58-.58.86-.58m0-3c-1.15 0-2.31.54-3.23 1.75-1.9 2.46-3.26 6.48-4.11 9.6-2.41 8.92-9.54 35.93 6.05 38.06.34.05.69.07 1.03.07 3.62 0 7.15-2.49 8.73-5.82 2.25-4.75 2.09-10.23 1.6-15.37-.24-2.58-.7-6.78-1.23-9.3-.54-2.56-1.16-5.1-1.77-7.64-.64-2.65-1.48-5.49-2.57-7.94-.95-2.13-2.72-3.41-4.5-3.41zM108.17 56.27c3.86 0 6.89.57 9.03 1.7 2.21 1.17 3.41 2.91 3.76 5.48.34 2.49-1.45 5.41-4.06 6.65-2.32 1.1-5.04 1.62-8.57 1.62-1.49 0-3.15-.09-5.24-.29-1.42-.13-6.25-.61-8.97-1.18-2.29-.48-4.62-1.05-6.87-1.6l-.68-.17c-2.97-.72-5.47-1.53-7.44-2.4-1.02-.45-1.54-1.16-1.6-1.66-.01-.12-.06-.47.56-.95 1.64-1.26 4.68-2.53 8.57-3.58 4.01-1.07 13.4-3.62 21.51-3.62m0-3c-8.32 0-17.7 2.49-22.3 3.74-3.13.85-7.14 2.2-9.61 4.1-3.05 2.35-1.83 6.18 1.65 7.73 2.46 1.09 5.29 1.92 7.94 2.57 2.54.62 5.08 1.25 7.64 1.78 2.52.53 6.72.99 9.3 1.23 1.82.17 3.67.31 5.52.31 3.4 0 6.78-.45 9.85-1.9 3.65-1.73 6.29-5.8 5.75-9.77-1.01-7.57-7.9-9.79-15.74-9.79zM19.83 56.27c8.12 0 17.5 2.55 21.51 3.63 3.89 1.05 6.93 2.32 8.57 3.58.62.48.58.83.57.95-.06.5-.58 1.2-1.6 1.65-1.96.87-4.47 1.67-7.44 2.4l-.66.16c-2.26.55-4.59 1.12-6.88 1.6-2.72.57-7.56 1.05-8.98 1.18-2.08.2-3.75.29-5.24.29-3.47 0-6.28-.53-8.57-1.62-2.62-1.24-4.4-4.16-4.06-6.65.66-4.88 4.72-7.17 12.78-7.17m0-3c-7.84 0-14.73 2.21-15.76 9.78-.54 3.97 2.1 8.04 5.75 9.77 3.07 1.46 6.45 1.9 9.85 1.9 1.85 0 3.71-.13 5.52-.31 2.58-.24 6.78-.7 9.3-1.23 2.56-.54 5.1-1.16 7.64-1.78 2.65-.64 5.49-1.48 7.94-2.57 3.48-1.54 4.71-5.37 1.65-7.73-2.46-1.9-6.48-3.25-9.61-4.1-4.58-1.23-13.96-3.73-22.28-3.73zM107.15 19.44c.86 0 1.63.34 2.3 1 .95.95 1.17 2.08.66 3.45-.55 1.49-1.78 2.81-2.28 3.31-1.15 1.11-11.62 8.85-20.74 15.53 6.78-9.48 14.26-19.8 15.32-20.93 1.18-1.18 3.1-2.36 4.74-2.36m0-3c-2.67 0-5.29 1.67-6.86 3.24-1.73 1.74-18.38 25.14-20.28 27.81-.49.68-.4 1.61.19 2.2.33.32.77.49 1.2.49.35 0 .7-.11 1-.32 2.64-1.92 25.8-18.79 27.53-20.53.8-.79 2.25-2.43 2.98-4.4.91-2.48.43-4.83-1.36-6.61-1.21-1.23-2.73-1.88-4.4-1.88zM20.85 19.44c1.64 0 3.56 1.19 4.72 2.34 1.15 1.21 9.27 12.45 15.34 20.94-9.41-6.89-19.63-14.47-20.74-15.53-.5-.5-1.73-1.82-2.28-3.31-.51-1.37-.29-2.5.66-3.45.67-.66 1.44-.99 2.3-.99m0-3c-1.66 0-3.19.65-4.41 1.87-1.79 1.78-2.27 4.13-1.36 6.61.73 1.98 2.18 3.61 2.98 4.4 1.73 1.73 24.9 18.61 27.53 20.53a1.72 1.72 0 0 0 2.2-.17c.59-.59.67-1.52.19-2.2-1.89-2.67-18.54-26.07-20.28-27.81-1.56-1.56-4.18-3.23-6.85-3.23zM87.1 85.28c9.41 6.89 19.63 14.46 20.72 15.5.63.63 1.77 1.91 2.29 3.33.5 1.37.29 2.5-.66 3.45-.66.66-1.43.99-2.3.99-1.64 0-3.57-1.18-4.73-2.34-.73-.76-5.18-6.74-15.32-20.93m-5.69-7.46a1.703 1.703 0 0 0-1.39 2.69c1.9 2.66 18.54 26.07 20.28 27.81 1.57 1.56 4.19 3.23 6.86 3.23 1.67 0 3.19-.64 4.41-1.87 1.79-1.79 2.27-4.13 1.36-6.61-.73-1.98-2.18-3.61-2.98-4.41-1.73-1.72-24.9-18.6-27.53-20.52-.31-.21-.66-.32-1.01-.32zM40.9 85.28c-7.3 10.23-14.27 19.83-15.3 20.92-1.18 1.17-3.1 2.36-4.74 2.36-.87 0-1.64-.33-2.29-.99-.95-.95-1.17-2.08-.66-3.45.52-1.42 1.66-2.7 2.27-3.32 1.09-1.05 11.32-8.63 20.72-15.52m5.69-7.46c-.35 0-.7.11-1 .33-2.64 1.92-25.8 18.79-27.53 20.52-.8.8-2.25 2.43-2.98 4.41-.91 2.48-.43 4.82 1.36 6.61 1.22 1.22 2.75 1.87 4.41 1.87 2.67 0 5.29-1.67 6.86-3.23 1.73-1.74 18.38-25.15 20.27-27.81.49-.68.41-1.61-.19-2.2-.33-.33-.76-.5-1.2-.5z"/></g></svg>