<svg viewBox="0 0 128 128" xmlns="http://www.w3.org/2000/svg"><linearGradient id="a" x1="64" x2="64" y1="51.661" y2="76.04" gradientUnits="userSpaceOnUse"><stop stop-color="#2196F3" offset="0"/><stop stop-color="#1976D2" offset="1"/></linearGradient><path d="M120 52H8c-2.21 0-4 1.79-4 4v16c0 2.21 1.79 4 4 4h112c2.21 0 4-1.79 4-4V56c0-2.21-1.79-4-4-4z" fill="url(#a)"/><path d="M120 55c.55 0 1 .45 1 1v16c0 .55-.45 1-1 1H8c-.55 0-1-.45-1-1V56c0-.55.45-1 1-1h112m0-3H8c-2.21 0-4 1.79-4 4v16c0 2.21 1.79 4 4 4h112c2.21 0 4-1.79 4-4V56c0-2.21-1.79-4-4-4z" fill="#424242" opacity=".2"/></svg>