<svg viewBox="0 0 128 128" xmlns="http://www.w3.org/2000/svg"><g fill="url(#a)"><radialGradient id="a" cx="63.744" cy="3.583" r="120.58" gradientUnits="userSpaceOnUse"><stop stop-color="#4CAF50" offset="0"/><stop stop-color="#388E3C" offset="1"/></radialGradient><circle cx="64" cy="106" r="18"/><circle cx="64" cy="22" r="18"/><path d="M120 52H8c-2.21 0-4 1.79-4 4v16c0 2.21 1.79 4 4 4h112c2.21 0 4-1.79 4-4V56c0-2.21-1.79-4-4-4z"/></g><g fill="#424242" opacity=".2"><path d="M64 91c8.27 0 15 6.73 15 15s-6.73 15-15 15-15-6.73-15-15 6.73-15 15-15m0-3c-9.94 0-18 8.06-18 18s8.06 18 18 18 18-8.06 18-18-8.06-18-18-18zM64 7c8.27 0 15 6.73 15 15s-6.73 15-15 15-15-6.73-15-15S55.73 7 64 7m0-3c-9.94 0-18 8.06-18 18s8.06 18 18 18 18-8.06 18-18S73.94 4 64 4zM120 55c.55 0 1 .45 1 1v16c0 .55-.45 1-1 1H8c-.55 0-1-.45-1-1V56c0-.55.45-1 1-1h112m0-3H8c-2.21 0-4 1.79-4 4v16c0 2.21 1.79 4 4 4h112c2.21 0 4-1.79 4-4V56c0-2.21-1.79-4-4-4z"/></g></svg>