<svg viewBox="0 0 128 128" xmlns="http://www.w3.org/2000/svg"><linearGradient id="a" x1="64" x2="64" y1="25.5" y2="103.3" gradientUnits="userSpaceOnUse"><stop stop-color="#616161" offset="0"/><stop stop-color="#5B5B5B" offset=".2"/><stop stop-color="#484848" offset=".5"/><stop stop-color="#2B2B2B" offset=".9"/><stop stop-color="#212121" offset="1"/></linearGradient><path d="M65 80.8h-7.7a2 2 0 0 0-2 1.6L52 100.8a2 2 0 0 1-2 1.6h-4.8a2 2 0 0 1-2-2.4l3.2-16.9a2 2 0 0 0-2-2.3h-7.7a2 2 0 0 1-2-2v-4.3c0-1.1.9-2 2-2h10a2 2 0 0 0 2-1.7L51 58.3a2 2 0 0 0-2-2.4h-8.4a2 2 0 0 1-2-2v-4.3c0-1.1.9-2 2-2h10.7a2 2 0 0 0 2-1.7l3.5-18.6a2 2 0 0 1 2-1.7h4.7a2 2 0 0 1 2 2.4l-3.3 17.2a2 2 0 0 0 2 2.4H72a2 2 0 0 0 2-1.7l3.5-18.6a2 2 0 0 1 2-1.7h4.7a2 2 0 0 1 2 2.4l-3.3 17.2a2 2 0 0 0 2 2.4h6.5a2 2 0 0 1 2 2v4.3a2 2 0 0 1-2 2h-8.8a2 2 0 0 0-2 1.7L78.3 70a2 2 0 0 0 2 2.4h7.2a2 2 0 0 1 2 2v4.3a2 2 0 0 1-2 2h-9.6a2 2 0 0 0-2 1.6l-3.4 18.4a2 2 0 0 1-2 1.6h-4.7a2 2 0 0 1-2-2.3L67 83a2 2 0 0 0-2-2.3zm-5.4-8.4h7.7a2 2 0 0 0 2-1.6l2.3-12.6a2 2 0 0 0-2-2.3H62a2 2 0 0 0-2 1.6l-2.3 12.6a2 2 0 0 0 2 2.3z" fill="url(#a)"/><path d="M83 28.6l-3 16a5 5 0 0 0 5 6h5.4v2.3h-7.9a5 5 0 0 0-4.9 4l-2.3 12.6a5 5 0 0 0 5 6h6.2v2.3h-8.6a5 5 0 0 0-5 4l-3.2 17.6H67l3-15.7a5 5 0 0 0-5-6h-7.7a5 5 0 0 0-5 4.2l-3.2 17.5h-2.7l2.9-15.7a5 5 0 0 0-5-6h-6.7v-2.3h9a5 5 0 0 0 5-4l2.3-12.6a5 5 0 0 0-4.9-6h-7.4v-2.2h9.7a5 5 0 0 0 5-4.1l3.3-17.9h2.7l-3 16a5 5 0 0 0 5 6H72a5 5 0 0 0 5-4.1l3.3-17.9H83M59.6 75.4h7.7a5 5 0 0 0 5-4l2.3-12.6a5 5 0 0 0-5-6H62a5 5 0 0 0-5 4.2l-2.3 12.5a5 5 0 0 0 4.9 6m24.6-49.9h-4.8a2 2 0 0 0-2 1.6L74 46a2 2 0 0 1-2 1.6h-7.7a2 2 0 0 1-2-2.3L65.4 28a2 2 0 0 0-2-2.4h-4.7a2 2 0 0 0-2 1.6L53.4 46a2 2 0 0 1-2 1.6H40.6a2 2 0 0 0-2 2V54c0 1 .9 2 2 2H49a2 2 0 0 1 2 2.3l-2.4 12.6a2 2 0 0 1-2 1.6h-10a2 2 0 0 0-2 2v4.4c0 1 .9 2 2 2h7.7a2 2 0 0 1 2 2.3l-3.1 17a2 2 0 0 0 2 2.3h4.7a2 2 0 0 0 2-1.7l3.4-18.3a2 2 0 0 1 2-1.6H65a2 2 0 0 1 2 2.3L63.9 100a2 2 0 0 0 2 2.4h4.7a2 2 0 0 0 2-1.7l3.3-18.3a2 2 0 0 1 2-1.7h9.6a2 2 0 0 0 2-2v-4.3a2 2 0 0 0-2-2h-7.3a2 2 0 0 1-2-2.4l2.4-12.5a2 2 0 0 1 2-1.7h8.8a2 2 0 0 0 2-2v-4.3a2 2 0 0 0-2-2H85a2 2 0 0 1-2-2.4L86.1 28a2 2 0 0 0-2-2.3zM59.6 72.4a2 2 0 0 1-2-2.3L60 57.5a2 2 0 0 1 2-1.6h7.8a2 2 0 0 1 2 2.3l-2.4 12.6a2 2 0 0 1-2 1.6h-7.7z" fill="#eee" opacity=".2"/></svg>