<svg viewBox="0 0 128 128" xmlns="http://www.w3.org/2000/svg"><linearGradient id="a" x1="5.5" x2="118.8" y1="5.3" y2="119" gradientUnits="userSpaceOnUse"><stop stop-color="#81D4FA" offset="0"/><stop stop-color="#0094D6" offset="1"/></linearGradient><path d="M116 124H12a8 8 0 0 1-8-8V12a8 8 0 0 1 8-8h104a8 8 0 0 1 8 8v104a8 8 0 0 1-8 8z" fill="url(#a)"/><path d="M116 7a5 5 0 0 1 5 5v104a5 5 0 0 1-5 5H12a5 5 0 0 1-5-5V12a5 5 0 0 1 5-5h104m0-3H12a8 8 0 0 0-8 8v104a8 8 0 0 0 8 8h104a8 8 0 0 0 8-8V12a8 8 0 0 0-8-8z" fill="#424242" opacity=".2"/><linearGradient id="b" x1="21.2" x2="106.3" y1="20.7" y2="106.7" gradientUnits="userSpaceOnUse"><stop stop-color="#C2ECFF" offset="0"/><stop stop-color="#BDEAFE" offset=".2"/><stop stop-color="#AEE3FA" offset=".3"/><stop stop-color="#95D7F5" offset=".6"/><stop stop-color="#73C7ED" offset=".8"/><stop stop-color="#49B3E3" offset="1"/></linearGradient><path d="M101 109H27a8 8 0 0 1-8-8V27a8 8 0 0 1 8-8h74a8 8 0 0 1 8 8v74a8 8 0 0 1-8 8z" fill="url(#b)"/><path d="M63.4 26a25 25 0 0 1 17.2 5.5A19 19 0 0 1 87 46.6c0 3.8-1.1 7.7-3.2 11.8a66.9 66.9 0 0 1-10.4 14L58.3 88.6a2 2 0 0 0 1.5 3.4h28c1.2 0 2 1 2 2v6c0 1-.8 2-2 2H41.6a2 2 0 0 1-2-2v-5.8c0-.5.2-1 .5-1.4l24.4-26.6a60 60 0 0 0 7.7-10.1c1.6-2.7 2.3-5.4 2.3-8.1 0-3.6-1-6.5-3-8.7s-4.7-3.3-8-3.3a12 12 0 0 0-9.5 3.7c-1.9 2.1-3 4.9-3.3 8.3 0 1-1 1.9-2 1.9h-8.5a2 2 0 0 1-2-2.2 24 24 0 0 1 3-10.2c2.1-3.6 5.1-6.5 9-8.5s8.3-3 13.3-3m0-3a31 31 0 0 0-14.8 3.4A24.5 24.5 0 0 0 38.5 36c-1.9 3.4-3 7.3-3.4 11.4a5 5 0 0 0 5 5.4h8.5a5 5 0 0 0 5-4.7c.3-2.7 1-4.8 2.5-6.4 1.7-1.9 4-2.8 7.2-2.8 2.6 0 4.5.8 6 2.4a9.4 9.4 0 0 1 2.2 6.6 13 13 0 0 1-2 6.6 60.2 60.2 0 0 1-7.3 9.6L37.8 90.8a5 5 0 0 0-1.3 3.4v5.8a5 5 0 0 0 5 5H88a5 5 0 0 0 5-5v-6a5 5 0 0 0-5-5H62l13.7-14.6c5-5.4 8.6-10.3 10.8-14.6A28 28 0 0 0 90 46.6a22 22 0 0 0-7.3-17.4A28.4 28.4 0 0 0 63.4 23z" fill="#424242" opacity=".2"/><path d="M87.9 102H41.5a2 2 0 0 1-2-2v-5.8c0-.5.2-1 .5-1.4l24.4-26.6a60 60 0 0 0 7.7-10.1c1.6-2.7 2.3-5.4 2.3-8.1 0-3.6-1-6.5-3-8.7s-4.7-3.3-8-3.3a12 12 0 0 0-9.5 3.7c-1.9 2.1-3 4.9-3.3 8.3 0 1-1 1.9-2 1.9h-8.5a2 2 0 0 1-2-2.2 24 24 0 0 1 3-10.2c2.1-3.6 5.1-6.5 9-8.5s8.3-3 13.3-3a25 25 0 0 1 17.2 5.5A19 19 0 0 1 87 46.6c0 3.8-1.1 7.7-3.2 11.8a66.9 66.9 0 0 1-10.4 14L58.3 88.6a2 2 0 0 0 1.5 3.4h28c1.2 0 2 1 2 2v6c0 1-.8 2-2 2z" fill="#FAFAFA"/></svg>