<svg viewBox="0 0 128 128" xmlns="http://www.w3.org/2000/svg"><linearGradient id="a" x1="5.5" x2="118.8" y1="5.3" y2="119" gradientUnits="userSpaceOnUse"><stop stop-color="#81D4FA" offset="0"/><stop stop-color="#0094D6" offset="1"/></linearGradient><path d="M116 124H12a8 8 0 0 1-8-8V12a8 8 0 0 1 8-8h104a8 8 0 0 1 8 8v104a8 8 0 0 1-8 8z" fill="url(#a)"/><path d="M116 7a5 5 0 0 1 5 5v104a5 5 0 0 1-5 5H12a5 5 0 0 1-5-5V12a5 5 0 0 1 5-5h104m0-3H12a8 8 0 0 0-8 8v104a8 8 0 0 0 8 8h104a8 8 0 0 0 8-8V12a8 8 0 0 0-8-8z" fill="#424242" opacity=".2"/><linearGradient id="b" x1="21.2" x2="106.3" y1="20.7" y2="106.7" gradientUnits="userSpaceOnUse"><stop stop-color="#C2ECFF" offset="0"/><stop stop-color="#BDEAFE" offset=".2"/><stop stop-color="#AEE3FA" offset=".3"/><stop stop-color="#95D7F5" offset=".6"/><stop stop-color="#73C7ED" offset=".8"/><stop stop-color="#49B3E3" offset="1"/></linearGradient><path d="M101 109H27a8 8 0 0 1-8-8V27a8 8 0 0 1 8-8h74a8 8 0 0 1 8 8v74a8 8 0 0 1-8 8z" fill="url(#b)"/><path d="M84 26a2 2 0 0 1 2 2v6.8a2 2 0 0 1-2 2H58a2 2 0 0 0-2 1.8l-1.5 12.6a2 2 0 0 0 2.7 2c2.6-1 5.5-1.4 8.6-1.4 7.2 0 12.7 2.2 16.7 6.8s6 10.7 6 18.4a25 25 0 0 1-6.7 18.2 24.1 24.1 0 0 1-18 6.8c-6.9 0-12.6-2-17.1-5.8A21 21 0 0 1 39.6 83a2 2 0 0 1 2-2.3h8.2c1 0 1.7.7 2 1.6.6 2.9 1.8 5.1 3.6 6.8 2.1 2 4.9 3 8.3 3 3.9 0 6.9-1.5 9-4.2C74.8 85 76 81.4 76 76.7c0-4.6-1.2-8.2-3.5-10.9s-5.7-4-9.8-4c-2.3 0-4.2.3-5.8 1a15 15 0 0 0-4.3 2.7 2 2 0 0 1-1.4.6h-.5l-7.2-1.9a2 2 0 0 1-1.5-2.1l3.7-34.3a2 2 0 0 1 2-1.8H84m0-3H47.5a5 5 0 0 0-5 4.4L39 61.7a5 5 0 0 0 3.7 5.4L50 69l1.2.2a5 5 0 0 0 3.3-1.3c1.3-1.1 2.5-1.9 3.5-2.3a15 15 0 0 1 4.7-.7c3.3 0 5.7 1 7.5 3 1.9 2.1 2.8 5 2.8 8.9 0 4-.9 7.1-2.6 9.3-1.5 2-3.7 3-6.6 3a9 9 0 0 1-6.3-2.1 9.4 9.4 0 0 1-2.7-5.2 5 5 0 0 0-5-4h-8.1a5 5 0 0 0-5 5.7 24 24 0 0 0 8.1 15 28 28 0 0 0 19 6.6A27 27 0 0 0 84 97.3 28 28 0 0 0 91.4 77c0-8.4-2.2-15.3-6.6-20.4-4.6-5.2-11-7.9-19-7.9a28 28 0 0 0-8.1 1.2l1.1-10.1H84a5 5 0 0 0 5-5V28a5 5 0 0 0-5-5z" fill="#424242" opacity=".2"/><path d="M41.9 62l3.7-34.2a2 2 0 0 1 2-1.8H84a2 2 0 0 1 2 2v6.8a2 2 0 0 1-2 2H58a2 2 0 0 0-2 1.8l-1.5 12.6a2 2 0 0 0 2.7 2c2.6-1 5.5-1.4 8.6-1.4 7.2 0 12.7 2.2 16.7 6.8s6 10.7 6 18.4a25 25 0 0 1-6.7 18.2 24.1 24.1 0 0 1-18 6.8c-6.9 0-12.6-2-17.1-5.8A21 21 0 0 1 39.6 83a2 2 0 0 1 2-2.3h8.2c1 0 1.7.7 2 1.6.6 2.9 1.8 5.1 3.6 6.8 2.1 2 4.9 3 8.3 3 3.9 0 6.9-1.5 9-4.2C74.8 85 76 81.4 76 76.7c0-4.6-1.2-8.2-3.5-10.9s-5.7-4-9.8-4c-2.3 0-4.2.3-5.8 1a15 15 0 0 0-4.3 2.7 2 2 0 0 1-1.8.5l-7.3-1.8a2 2 0 0 1-1.5-2.1z" fill="#FAFAFA"/></svg>