<svg viewBox="0 0 128 128" xmlns="http://www.w3.org/2000/svg"><linearGradient id="a" x1="5.5" x2="118.8" y1="5.3" y2="119" gradientUnits="userSpaceOnUse"><stop stop-color="#81D4FA" offset="0"/><stop stop-color="#0094D6" offset="1"/></linearGradient><path d="M116 124H12a8 8 0 0 1-8-8V12a8 8 0 0 1 8-8h104a8 8 0 0 1 8 8v104a8 8 0 0 1-8 8z" fill="url(#a)"/><path d="M116 7a5 5 0 0 1 5 5v104a5 5 0 0 1-5 5H12a5 5 0 0 1-5-5V12a5 5 0 0 1 5-5h104m0-3H12a8 8 0 0 0-8 8v104a8 8 0 0 0 8 8h104a8 8 0 0 0 8-8V12a8 8 0 0 0-8-8z" fill="#424242" opacity=".2"/><linearGradient id="b" x1="21.2" x2="106.3" y1="20.7" y2="106.7" gradientUnits="userSpaceOnUse"><stop stop-color="#C2ECFF" offset="0"/><stop stop-color="#BDEAFE" offset=".2"/><stop stop-color="#AEE3FA" offset=".3"/><stop stop-color="#95D7F5" offset=".6"/><stop stop-color="#73C7ED" offset=".8"/><stop stop-color="#49B3E3" offset="1"/></linearGradient><path d="M101 109H27a8 8 0 0 1-8-8V27a8 8 0 0 1 8-8h74a8 8 0 0 1 8 8v74a8 8 0 0 1-8 8z" fill="url(#b)"/><path d="M75.4 26a2 2 0 0 1 2 2l.3 6.7c0 .9-.7 1.6-1.5 1.6-7 0-12.6 2-16.8 5.7a22.2 22.2 0 0 0-6.6 11.5c-.3 1 .6 2 1.5 2 .3 0 .6-.2.8-.4 3.5-2.4 7.5-3.6 12.2-3.6 6.6 0 11.8 2.4 15.6 7s5.8 10.7 5.8 18c0 7.6-2.3 13.7-6.7 18.4s-10.3 7-17.6 7c-7.4 0-13.5-2.7-18.1-8.2s-7-12.7-7-21.6V68c0-13.1 3.2-23.4 9.6-30.8 6-7 13.9-10.7 26.5-11.1m-11 66c3.6 0 6.5-1.4 8.7-4.2 2.1-2.8 3.2-6.4 3.2-11s-1-8.1-3.3-11-5-4.2-8.7-4.2a16.8 16.8 0 0 0-4 .5l-2.9 1.4a12 12 0 0 0-5.6 10.3c0 5.6 1.2 10 3.5 13.2 2.3 3.3 5.3 5 9 5m11.1-69h-.1c-13 .4-21.8 4.1-28.7 12.1-6.8 8-10.3 19-10.3 32.8v4c0 9.6 2.6 17.5 7.7 23.6 5.2 6.2 12 9.3 20.4 9.3a26 26 0 0 0 19.7-8c5-5.2 7.5-12.1 7.5-20.5 0-8-2.1-14.7-6.4-19.9a22 22 0 0 0-17.9-8 26 26 0 0 0-10.5 2.1c1.1-2.6 2.6-4.7 4.6-6.4 3.7-3.3 8.5-5 14.8-5 2.4 0 4.5-2 4.5-4.6l-.2-6.8a5 5 0 0 0-5-4.9zM61.2 65a12 12 0 0 1 3.1-.4c2.7 0 4.7 1 6.3 3 1.8 2.4 2.7 5.5 2.7 9.3s-.9 6.8-2.6 9a7.4 7.4 0 0 1-6.4 3c-2.7 0-4.8-1.1-6.6-3.6-2-2.7-2.9-6.6-2.9-11.5a9 9 0 0 1 4.2-7.7 9 9 0 0 1 2.2-1.1z" fill="#424242" opacity=".2"/><path d="M77.7 34.7c0 .9-.7 1.6-1.5 1.6-7 0-12.6 2-16.8 5.7a22.2 22.2 0 0 0-6.6 11.5c-.3 1.4 1.2 2.5 2.4 1.6 3.4-2.4 7.4-3.6 12.1-3.6 6.6 0 11.8 2.4 15.7 7s5.7 10.7 5.7 18c0 7.6-2.3 13.7-6.7 18.4s-10.3 7-17.6 7c-7.4 0-13.5-2.7-18-8.2s-7-12.7-7-21.6V68c0-13.1 3.1-23.4 9.5-30.8 6-7 13.9-10.7 26.5-11.1a2 2 0 0 1 2 2l.3 6.7zM60.5 62.1h-.3l-2.8 1.4a12 12 0 0 0-5.6 10.3c0 5.6 1.1 10 3.5 13.2 2.3 3.3 5.3 5 9 5s6.6-1.4 8.8-4.2c2.1-2.8 3.2-6.4 3.2-11s-1-8.1-3.3-11c-2.9-3.7-7-5-12.5-3.7z" fill="#FAFAFA"/></svg>