<svg viewBox="0 0 128 128" xmlns="http://www.w3.org/2000/svg"><linearGradient id="a" x1="64" x2="64" y1="30.2" y2="159.3" gradientUnits="userSpaceOnUse"><stop stop-color="#FFFDE7" offset=".1"/><stop stop-color="#FFF59D" offset=".8"/></linearGradient><path d="M100 124H28a8 8 0 0 1-8-8V12a8 8 0 0 1 8-8h72a8 8 0 0 1 8 8v104a8 8 0 0 1-8 8z" fill="url(#a)"/><path d="M98.2 46.4c1.5 2 1.7 3-.3 3.7-2 1.3-4.5 3.5-7.5 6.9S86 63.6 86 66.7c0 1.2 0 2-.3 2.2-.3.3-1 .2-2.5 0-6.4-1-18.2.3-18.4.3-.3 2.3-.4 35-.1 36.2.5 2-.8 3.4-3.8 3.1-2.6-.2-3.2-1-3.7-2.4-.6-1.3.2-35.1 0-36a71 71 0 0 0-14 3.3c-1.2.6-2.3-.1-3.1-2.3-.9-1.4-2.8-4-5.7-7.6-3.1-3.6-5-7.7-5.7-12.7-.2-2.4.7-3.4 2.4-3 4.4 0 9.7-1 16-3l10.2-2.9-.4-18.3c-1.2-3.3.6-4.6 5.3-4 4.6.7 5.8 2.1 3.7 4.2-.6.8-.8 15.6-.8 16.5 0 0 24.2-5.6 33.2 6.1zm-40.6 17l.1-16s-15.2 3-17.3 6.1c-1.7 2.5-.1 11 4.2 12.3 3 1 13-2.3 13-2.3zM65 46v15.8c4.3-.5 8.3-1 11.8-1.2 3.1-.5 5.2-2.7 6.2-6.3.8-3.5 1-5.9.3-7.2-3-2-8.7-2.4-16.8-1.3l-1.4.2z" fill="#F44336"/><path d="M60 21.4a13.1 13.1 0 0 1 4.5.9l-.3.3c-.4.6-.7 1-1 9.3l-.2 8.4a2 2 0 0 0 2.5 2S71 41 77.7 41c6.3 0 14.6 1.1 19 6.6l.3.6-.2.2a40.8 40.8 0 0 0-7.9 7.3c-3.3 3.7-5 7.4-5 11v.3h-.5c-1.7-.3-4-.5-6.6-.5-3.4 0-7.4.2-11.9.7h-.3a2 2 0 0 0-1.9 1.8 493.3 493.3 0 0 0 0 37.3s-.4.3-1.2.3h-.6c-1.4-.2-1.6-.4-2-1-.1-2 0-15.7.1-24v-12a2 2 0 0 0-2.2-1.5c-4.8.7-9.3 1.7-14.4 3.4l-.6-1.1-.1-.4c-.9-1.3-2.8-3.9-5.9-7.7a22.3 22.3 0 0 1-5.2-12.6h.4c4.7 0 10.3-1 16.6-3 3.3-1 6.6-2 10-2.8a2 2 0 0 0 1.6-2V39l-.4-15.7-.1-.4-.3-1.2s.5-.3 1.7-.3M65 63.7h.2A456.4 456.4 0 0 1 77 62.4c2.7-.4 6.2-2 7.8-7.6v-.1c1-4.1 1-6.7.2-8.5a2 2 0 0 0-.7-.8 17.7 17.7 0 0 0-10-2.3c-2.4 0-5.2.2-8.2.6h-.4l-.8.2a2 2 0 0 0-2 2 650.9 650.9 0 0 1 0 15.8 2 2 0 0 0 2 2M46 68c4.3 0 11.9-2.5 12.2-2.6a2 2 0 0 0 1.4-1.9l.1-16.2a2 2 0 0 0-2.4-2c-3.7.8-16.1 3.6-18.5 7-1.6 2.2-1.2 6.2-.2 9.1 1 3.3 3 5.6 5.4 6.3.5.2 1.2.3 2 .3m14-48.6c-3 0-4.1 1.4-3.2 4.2l.4 18.3A168 168 0 0 0 47 44.8a53.1 53.1 0 0 1-16.5 2.9c-1.4 0-2 1-1.8 3a24 24 0 0 0 5.6 12.8c3 3.7 4.9 6.2 5.7 7.6.6 1.7 1.4 2.5 2.3 2.5.2 0 .5 0 .8-.2a71 71 0 0 1 14-3.3c.2.9-.5 34.7 0 36 .6 1.4 1.2 2.2 3.7 2.4h.7c2.6 0 3.6-1.3 3.1-3-.3-1.3-.1-34 .2-36.3.1 0 6.2-.7 12-.7a40 40 0 0 1 8 .6c.5 0 .7 0 .9-.2.2-.2.3-1 .3-2.2 0-3 1.5-6.3 4.4-9.7a39 39 0 0 1 7.5-7c2-.5 1.8-1.6.3-3.6-4.6-6-13.2-7.4-20.5-7.4-6.9 0-12.6 1.3-12.6 1.3 0-1 .2-15.7.8-16.5 2-2 .8-3.5-3.8-4.2l-2-.2zm5 42.3V45.9l1.5-.2c3-.4 5.6-.6 7.9-.6 4 0 7 .6 8.9 2 .6 1.2.5 3.6-.3 7.1-1 3.6-3 5.8-6.2 6.3L65 61.7zm-7.3-14.4l-.1 16.2S50 66 46 66c-.6 0-1.1 0-1.5-.2-4.3-1.3-6-9.9-4.2-12.3 2.1-3 17.3-6.2 17.3-6.2z" fill="#424242" opacity=".2"/><path d="M100 8a4 4 0 0 1 4 4v104a4 4 0 0 1-4 4H28a4 4 0 0 1-4-4V12a4 4 0 0 1 4-4h72m0-4H28a8 8 0 0 0-8 8v104a8 8 0 0 0 8 8h72a8 8 0 0 0 8-8V12a8 8 0 0 0-8-8z" fill="#424242" opacity=".2"/></svg>