<svg viewBox="0 0 128 128" xmlns="http://www.w3.org/2000/svg"><linearGradient id="a" x1="64" x2="64" y1="5" y2="128.7" gradientUnits="userSpaceOnUse"><stop stop-color="#EF5350" offset="0"/><stop stop-color="#E0403E" offset=".6"/><stop stop-color="#D32F2F" offset="1"/></linearGradient><path d="M116 124H12a8 8 0 0 1-8-8V12a8 8 0 0 1 8-8h104a8 8 0 0 1 8 8v104a8 8 0 0 1-8 8z" fill="url(#a)"/><path d="M116 7a5 5 0 0 1 5 5v104a5 5 0 0 1-5 5H12a5 5 0 0 1-5-5V12a5 5 0 0 1 5-5h104m0-3H12a8 8 0 0 0-8 8v104a8 8 0 0 0 8 8h104a8 8 0 0 0 8-8V12a8 8 0 0 0-8-8z" fill="#424242" opacity=".2"/><path d="M43.5 36.1a2 2 0 0 1 1.8 1.3L65 89.2a2 2 0 0 1-1.9 2.7h-5.8a2 2 0 0 1-1.8-1.4l-3.7-10.3a2 2 0 0 0-1.9-1.3H31.1a2 2 0 0 0-1.9 1.3l-3.6 10.3a2 2 0 0 1-1.9 1.4H18a2 2 0 0 1-2-2.9l19.6-51.7a2 2 0 0 1 1.8-1.3h6m-8.3 35h10.5a2 2 0 0 0 2-2.7l-5.3-15c-.3-1-1.1-1.4-2-1.4s-1.5.5-1.8 1.4l-5.3 15a2 2 0 0 0 2 2.7m8.2-38h-6a5 5 0 0 0-4.7 3.3L13.3 88a5 5 0 0 0 4.7 6.8h5.7a5 5 0 0 0 4.8-3.4l3.3-9.6h17.3l3.4 9.6a5 5 0 0 0 4.7 3.4H63a5 5 0 0 0 4.7-6.8L48 36.4a5 5 0 0 0-4.6-3.3zm-6.9 35l3.9-11 3.8 11h-7.7zm54.8-31.9c6.3 0 11.1 1.3 14.4 3.8s5 6.3 5 11.3a12 12 0 0 1-4.8 9.8 2 2 0 0 0 .2 3.3 13 13 0 0 1 5.9 11.2c0 5.3-1.7 9.3-5 12.2a21.9 21.9 0 0 1-14.4 4.2H74.2a2 2 0 0 1-2-2V38c0-1 1-2 2-2h17.1M84 59.6h7.5c3 0 5.4-.7 7-2s2.6-3.3 2.6-5.8c0-2.8-.7-4.8-2.3-6s-4-1.9-7.3-1.9H84a2 2 0 0 0-2 2v11.7c0 1.1 1 2 2 2m0 24.5h8.8c3 0 5.4-.8 7.1-2.3s2.6-3.6 2.6-6.2c0-5.8-3-8.7-9-8.9H84a2 2 0 0 0-2 2v13.4c0 1 1 2 2 2m7.4-51h-17a5 5 0 0 0-5 5V90a5 5 0 0 0 5 5h18.3c7 0 12.4-1.7 16.3-5 4-3.3 6.1-8.2 6.1-14.3 0-3.8-1-7.1-3-10-1-1.1-2-2.2-3.2-3.1a15 15 0 0 0 4.9-11.3c0-6-2-10.6-6.1-13.7a26.6 26.6 0 0 0-16.3-4.4zM85 47h6.5c3.2 0 4.7.7 5.4 1.2.8.7 1.2 1.9 1.2 3.7 0 2-.8 3-1.4 3.4-1.1 1-2.9 1.4-5.2 1.4H85V47zm0 22.8h8.6c4.2.1 5.9 1.8 5.9 5.9 0 2.3-1 3.4-1.6 4-1.1 1-2.8 1.5-5.1 1.5H85V69.6z" fill="#424242" opacity=".2"/><path d="M49.9 78.9H31a2 2 0 0 0-1.9 1.3l-3.6 10.3a2 2 0 0 1-1.9 1.4H18a2 2 0 0 1-1.9-2.7l19.6-51.8a2 2 0 0 1 1.8-1.3h6a2 2 0 0 1 1.8 1.3L65 89.2a2 2 0 0 1-1.9 2.7h-5.8a2 2 0 0 1-1.9-1.4l-3.6-10.3a2 2 0 0 0-1.9-1.3zM35.2 71h10.5a2 2 0 0 0 2-2.7l-5.3-15a2 2 0 0 0-3.8 0l-5.3 15a2 2 0 0 0 2 2.7zm37 18.9V38c0-1 1-2 2-2h17.1c6.3 0 11.1 1.3 14.4 3.8s5 6.3 5 11.3a12 12 0 0 1-4.8 9.8 2 2 0 0 0 .2 3.3 13 13 0 0 1 5.9 11.2c0 5.3-1.7 9.3-5 12.2a21.9 21.9 0 0 1-14.4 4.2H74.2a2 2 0 0 1-2-2zM82 57.6c0 1.1 1 2 2 2h7.5c3 0 5.4-.7 7-2s2.6-3.3 2.6-5.8c0-2.8-.8-4.8-2.3-6s-4-1.9-7.4-1.9H84a2 2 0 0 0-2 2v11.7zm0 11.1v13.4c0 1 1 2 2 2h8.8c3 0 5.4-.8 7.1-2.3s2.6-3.6 2.6-6.2c0-5.8-3-8.7-9-8.9H84a2 2 0 0 0-2 2z" fill="#FAFAFA"/></svg>