<svg viewBox="0 0 128 128" xmlns="http://www.w3.org/2000/svg"><linearGradient id="a" x1="64" x2="64" y1="-.3" y2="128.1" gradientUnits="userSpaceOnUse"><stop stop-color="#29B6F6" offset="0"/><stop stop-color="#169FE4" offset=".5"/><stop stop-color="#0288D1" offset="1"/></linearGradient><path d="M116 124H12a8 8 0 0 1-8-8V12a8 8 0 0 1 8-8h104a8 8 0 0 1 8 8v104a8 8 0 0 1-8 8z" fill="url(#a)"/><path d="M116 7a5 5 0 0 1 5 5v104a5 5 0 0 1-5 5H12a5 5 0 0 1-5-5V12a5 5 0 0 1 5-5h104m0-3H12a8 8 0 0 0-8 8v104a8 8 0 0 0 8 8h104a8 8 0 0 0 8-8V12a8 8 0 0 0-8-8z" fill="#424242" opacity=".2"/><path d="M57.2 36.8a2 2 0 0 1 2 2v50.5a2 2 0 0 1-2 2H51a2 2 0 0 1-1.7-1l-20-31.8a2 2 0 0 0-1.7-1c-1 0-2 .8-2 2v29.8a2 2 0 0 1-2 2H18a2 2 0 0 1-2-2V38.8c0-1.1.9-2 2-2h6.4a2 2 0 0 1 1.7.9l20 32c.5.6 1 1 1.7 1 1 0 2-.8 2-2v-30c0-1 1-2 2-2h5.4m0-3h-5.4a5 5 0 0 0-5 5v26.4l-18.2-29a5 5 0 0 0-4.2-2.3H18a5 5 0 0 0-5 5v50.5a5 5 0 0 0 5 5h5.5a5 5 0 0 0 5-5V63l18.1 29a5 5 0 0 0 4.3 2.2h6.3a5 5 0 0 0 5-5V38.8a5 5 0 0 0-5-5zM91 36c6.1 0 11 1.5 14.5 4.5 3 2.6 5 6 6 10.5a2 2 0 0 1-2 2.5h-5.2a2 2 0 0 1-2-1.5c-1.3-5.6-5-8.4-11-8.4-4.3 0-7.5 1.6-9.7 4.6-2.2 3-3.4 7.5-3.5 13.4v4.2c0 5.9 1.3 10.4 3.8 13.7s5.9 4.9 10.3 4.9c4.3 0 7.5-.9 9.6-2.6.5-.4.8-1 .8-1.6v-7.7a2 2 0 0 0-2-2h-7.3a2 2 0 0 1-2-2v-3.2c0-1.1 1-2 2-2H110a2 2 0 0 1 2 2v18.2c0 .4-.2.9-.5 1.2a18 18 0 0 1-7.7 5.3c-3.5 1.3-7.5 2-11.9 2-4.6 0-8.6-1-12.1-3.1s-6.3-5-8.2-8.9-2.9-8.3-3-13.5v-4.3c0-8.2 2-14.6 6-19.3C78.6 38.3 84 36 91 36m0-3c-8 0-14.3 2.7-18.8 8a31.8 31.8 0 0 0-6.7 21.2v4.3c.1 5.6 1.2 10.6 3.3 14.8a24.2 24.2 0 0 0 23 13.7c4.8 0 9.1-.7 13-2.2 3.7-1.4 6.7-3.4 9-6.1a5 5 0 0 0 1-3.2V65.3a5 5 0 0 0-5-5H93.4a5 5 0 0 0-5 5v3.2a5 5 0 0 0 5 5h6.3v6.2a13 13 0 0 1-7.4 1.7c-3.4 0-6-1.2-8-3.7-2-2.7-3-6.7-3-11.9v-4.2c0-5.2 1-9.1 2.8-11.6 1.7-2.3 4-3.4 7.3-3.4 4.6 0 7.1 1.9 8.2 6a5 5 0 0 0 4.8 3.9h5.3a5 5 0 0 0 4.9-6.1 22.2 22.2 0 0 0-7-12.2A24.7 24.7 0 0 0 91 33z" fill="#424242" opacity=".2"/><path d="M57.2 91.3H51a2 2 0 0 1-1.7-1l-20-31.8c-1.1-1.7-3.7-1-3.7 1v29.8a2 2 0 0 1-2 2H18a2 2 0 0 1-2-2V38.8c0-1.1.9-2 2-2h6.4a2 2 0 0 1 1.7.9l20 32c1.1 1.7 3.7 1 3.7-1v-30c0-1 1-2 2-2h5.4a2 2 0 0 1 2 2v50.5a2 2 0 0 1-2 2zm54.8-7.8c0 .4-.1.9-.5 1.2a18 18 0 0 1-7.7 5.3c-3.5 1.3-7.5 2-11.9 2-4.6 0-8.6-1-12.1-3.1s-6.3-5-8.2-8.9-2.9-8.3-3-13.5v-4.3c0-8.2 2-14.6 6-19.3C78.6 38.3 84 36 91 36c6 0 10.8 1.5 14.4 4.5 3 2.6 5 6 6 10.5a2 2 0 0 1-2 2.5h-5.2a2 2 0 0 1-2-1.5c-1.3-5.6-5-8.3-11-8.3-4.3 0-7.5 1.5-9.7 4.5-2.2 3-3.4 7.5-3.5 13.4v4.2c0 5.9 1.3 10.5 3.8 13.7s5.9 4.9 10.3 4.9c4.3 0 7.5-.9 9.6-2.6.5-.4.8-1 .8-1.6v-7.7a2 2 0 0 0-2-2h-7.3a2 2 0 0 1-2-2v-3.2c0-1.1 1-2 2-2H110a2 2 0 0 1 2 2v18.2z" fill="#FAFAFA"/></svg>