<svg viewBox="0 0 128 128" xmlns="http://www.w3.org/2000/svg"><linearGradient id="a" x1="64" x2="64" y1="2" y2="127.4" gradientUnits="userSpaceOnUse"><stop stop-color="#29B6F6" offset="0"/><stop stop-color="#169FE4" offset=".5"/><stop stop-color="#0288D1" offset="1"/></linearGradient><path d="M116 124H12a8 8 0 0 1-8-8V12a8 8 0 0 1 8-8h104a8 8 0 0 1 8 8v104a8 8 0 0 1-8 8z" fill="url(#a)"/><path d="M116 7a5 5 0 0 1 5 5v104a5 5 0 0 1-5 5H12a5 5 0 0 1-5-5V12a5 5 0 0 1 5-5h104m0-3H12a8 8 0 0 0-8 8v104a8 8 0 0 0 8 8h104a8 8 0 0 0 8-8V12a8 8 0 0 0-8-8z" fill="#424242" opacity=".2"/><g fill="#424242" opacity=".2"><path d="M39.4 48.4a2 2 0 0 1 2 2v28a2 2 0 0 1-2 2h-2.5a2 2 0 0 1-1.7-1l-10-15.9a2 2 0 0 0-1.6-1c-1 0-2 .9-2 2v13.9a2 2 0 0 1-2 2H18a2 2 0 0 1-2-2v-28c0-1.1.9-2 2-2h2.5a2 2 0 0 1 1.6.9l10 16c.5.6 1.1.9 1.7.9 1 0 2-.8 2-2V50.4c0-1.1 1-2 2-2h1.6m0-3h-1.5a5 5 0 0 0-5 5v10.3l-8.2-13a5 5 0 0 0-4.2-2.3H18a5 5 0 0 0-5 5v28a5 5 0 0 0 5 5h1.6a5 5 0 0 0 5-5V68l8.1 13a5 5 0 0 0 4.2 2.3h2.5a5 5 0 0 0 5-5v-28a5 5 0 0 0-5-5zm30.1 3a2 2 0 0 1 2 2v.4a2 2 0 0 1-2 2H58.3a2 2 0 0 0-2 2v4.9c0 1 .9 2 2 2h9.1a2 2 0 0 1 2 2v.4a2 2 0 0 1-2 2h-9.1a2 2 0 0 0-2 2v5.8c0 1 .9 2 2 2h11.3a2 2 0 0 1 2 2v.5a2 2 0 0 1-2 2H52.7a2 2 0 0 1-2-2v-28c0-1.1 1-2 2-2h16.8m0-3H52.7a5 5 0 0 0-5 5v28a5 5 0 0 0 5 5h17a5 5 0 0 0 5-5v-.5a5 5 0 0 0-5-5H59.2V69h8.1a5 5 0 0 0 5-5v-.4a5 5 0 0 0-5-5h-8.1v-2.9h10.2a5 5 0 0 0 5-5v-.4a5 5 0 0 0-5-5z"/><path d="M110 48.4a2 2 0 0 1 2 2.4l-6.5 28a2 2 0 0 1-2 1.6h-2.1a2 2 0 0 1-2-1.5l-3.8-14.6a2 2 0 0 0-1.9-1.5 2 2 0 0 0-2 1.5L88 79a2 2 0 0 1-2 1.5h-2.1a2 2 0 0 1-2-1.6l-6.5-28a2 2 0 0 1 2-2.4h1.4c1 0 1.7.6 2 1.6L83.6 64a2 2 0 0 0 2 1.6 2 2 0 0 0 1.9-1.5L91 49.9a2 2 0 0 1 2-1.5h1.5c.9 0 1.7.6 2 1.5l3.4 14a2 2 0 0 0 2 1.5 2 2 0 0 0 2-1.6l2.8-13.8a2 2 0 0 1 2-1.6h1.3m0-3h-1.4a5 5 0 0 0-4.9 4l-2 9.5-2.4-9.8a5 5 0 0 0-4.8-3.7h-1.6a5 5 0 0 0-4.8 3.7l-2.6 10-2-9.7a5 5 0 0 0-4.9-4h-1.3c-1.6 0-3 .7-4 1.9s-1.2 2.7-.9 4.2l6.5 28a5 5 0 0 0 4.8 3.9H86a5 5 0 0 0 4.9-3.7l2.9-11 2.8 11a5 5 0 0 0 4.8 3.7h2.2a5 5 0 0 0 4.9-3.9l6.4-28a5 5 0 0 0-1-4.2 4.9 4.9 0 0 0-3.8-2z"/></g><path d="M39.4 80.4h-2.5a2 2 0 0 1-1.7-1l-10-15.9c-1-1.7-3.6-1-3.6 1v13.9a2 2 0 0 1-2 2H18a2 2 0 0 1-2-2v-28c0-1.1.9-2 2-2h2.5a2 2 0 0 1 1.6.9l10 16c1.1 1.7 3.8.9 3.8-1.1V50.4c0-1.1.9-2 2-2h1.5a2 2 0 0 1 2 2v28a2 2 0 0 1-2 2zm28-14.4h-9.1a2 2 0 0 0-2 2v6c0 1 .9 2 2 2h11.3a2 2 0 0 1 2 2v.4a2 2 0 0 1-2 2H52.7a2 2 0 0 1-2-2v-28c0-1 1-2 2-2h16.8a2 2 0 0 1 2 2v.5a2 2 0 0 1-2 2H58.3a2 2 0 0 0-2 2v4.9c0 1 .9 2 2 2h9.1a2 2 0 0 1 2 2v.4a2 2 0 0 1-2 2zm36.4-2.2l2.9-13.8a2 2 0 0 1 2-1.6h1.3a2 2 0 0 1 2 2.4l-6.5 28a2 2 0 0 1-2 1.6h-2.1a2 2 0 0 1-2-1.5l-3.8-14.6a2 2 0 0 0-3.8 0L87.9 79a2 2 0 0 1-2 1.5h-2.1a2 2 0 0 1-2-1.6l-6.5-28a2 2 0 0 1 2-2.4h1.4c1 0 1.7.6 2 1.6L83.5 64c.4 2 3.4 2.1 3.9 0L91 50a2 2 0 0 1 2-1.5h1.5c.9 0 1.7.6 2 1.5l3.4 14c.6 2 3.5 2 4 0z" fill="#FAFAFA"/></svg>