<svg xmlns="http://www.w3.org/2000/svg" viewBox="0 0 36 36"><path fill="#DD2E44" d="M36 27a4 4 0 0 1-4 4H4a4 4 0 0 1-4-4V9a4 4 0 0 1 4-4h28a4 4 0 0 1 4 4v18z"/><path fill="#00297B" d="M35 27a3 3 0 0 1-3 3H4a3 3 0 0 1-3-3V9a3 3 0 0 1 3-3h28a3 3 0 0 1 3 3v18z"/><path fill="#DD2E44" d="M17.5 26.6c2.7-2.2 5.6-4.8 5.6-8.4 0-3.6-3-6.2-5.6-8.4-2.7 2.2-5.6 4.8-5.6 8.4 0 3.6 3 6.2 5.6 8.4z"/><path fill="#017BDD" d="M12.7 19.6c.6 2.6 2.8 4.5 4.8 6.2 2-1.7 4.2-3.6 4.8-6.2h-9.6z"/><path fill="#66AFEB" d="M22.3 19.6l.2-1.4c0-3.3-2.6-5.6-5-7.6-2.3 2-5 4.3-5 7.6l.2 1.4h9.6z"/><path fill="#9C8431" d="M22.5 18.7l-.2 1h-5.7l.2-.8c1.6.2 4.2.2 5.7-.2z"/><path fill="#FFF100" d="M15 23.4c-.5-.5-1-1-1.3-1.5 1 0 2.7.2 3.4.8.2.2.2.3 0 .2a5 5 0 0 0-2.2.5z"/><path fill="#FFF100" d="M21.8 21c-1 2-2.7 3.5-4.3 4.8L16 24.5c.7-1 2.6-.4 2.6-1.4 0-.5-.5-1-1.2-1-.2 0-.2 0 0-.1.7-.6 1.5 0 2.8-.6 1-.4 1.5-.4 1.6-.4z"/><path fill="#029270" d="M18.5 14.4h.5l-.2-.2.3.2v-.2l.2.1v-.1l.2.1v-.1l.2.1v-.1l.2.1v-.1l.2.2v-.2l.3.2c-.2-.5-1.4-.7-2-.5l.3-.2-.1-.1h.3l-.2-.2h.5l-.1-.2h.4l-.2-.1.3-.1h-.1l.3-.2c-.8 0-1.5.4-1.8 1v-.6l-.2.1V13v.1l-.1-.4-.1.1-.1-.5v.2l-.2-.5v.2l-.2-.3v.2l-.3-.3.2.3h-.1l.2.3h-.2l.3.2H17l.3.3h-.2l.3.2H17l.3.2h-.2l.3.3h-.2l.2.3h-.1c-.4-.6-1-1-1.5-1l.3.2H16l.3.2h-.2l.4.2h-.2l.4.3h-.2l.3.1h-.2l.3.2h.1l.3.3c-1.1-.5-2.4-.3-3.1.7l.5-.3v.2l.2-.2v.2l.4-.3-.1.1.4-.2-.1.2.5-.3-.1.2.4-.1-.1.1h.4c-.7.2-1.5 1-1.4 1.5l.2-.3v.1l.2-.3v.2l.3-.4v.2l.2-.4v.3l.3-.4v.2l.3-.4v.3l.4-.3-.4.5h.2l-.3.3.2-.1-.3.4.2-.1-.3.4h.2l-.2.4.2-.2-.1.3.1.3.1-.3v-.3l.2.1v-.6l.1.2v-.4l.1.2v-.4l.1.2v-.4l.1.1v-.3h.1l.3-.4.2.5V15l.1.4v-.2.3h.2v.2l.1.4V16l.1.5.1-.2v.4l.1-.1.2.3v-.4a1 1 0 0 0-.1-.3h.1l-.1-.3h.1l-.2-.3h.1l-.3-.2h.2l-.3-.3h.1l-.2-.2.3.2v-.3l.2.3v-.2l.3.3V15l.2.2v-.1l.2.2v-.2l.2.4v-.2l.2.3v-.2l.2.4v-.2l.1.4v-.2l.3.3c0-1-1-1.5-1.8-1.7z"/><path fill="#7B4800" d="M16.9 20.7h-1v-2.1l-.1 2.2h-.3l-1.4-.1c0 .2.2.3.8.4v.2h-.2l.8.1c.5 0 .9 0 .9-.2h-.2c.5-.2.7-.3.7-.5zm-.9.6h-1V21a5.2 5.2 0 0 0 1 0v.2z"/><g fill="#7B4800"><path d="M17.7 14.7c0 1.8-.8 6.2 2 7.6.3.1 0 .6-.4.4-2.6-1.5-1.8-6-1.8-8h.2z"/><circle cx="17.4" cy="14.8" r=".2"/><circle cx="17.7" cy="14.7" r=".2"/><circle cx="17.8" cy="14.5" r=".2"/><circle cx="17.4" cy="14.5" r=".2"/></g><path fill="#FFF" d="M14.8 18.7a3 3 0 0 1-.3 2 7 7 0 0 1 2 0c-.2-.8-1-1.8-1.7-2z"/><path d="M14.8 17.6c0-.2 0-.3-.2-.3s-.3.2-.3.5.1.5.3.5l.3-.3h-.3v-.2h.5v.7h-.2v-.2l-.3.2c-.3 0-.5-.3-.5-.7s.2-.7.5-.7c.2 0 .4.2.4.5h-.2zm1.7.7c.1 0 .2-.1.2-.3v-.9h.2v1c0 .2-.1.4-.4.4-.4 0-.5-.2-.5-.5v-.9h.2v1s0 .2.3.2zm2-.3h-.1l.1-.6.2.6h-.2v.2h.3v.3h.3l-.4-1.4h-.3l-.4 1.4h.3v-.3h.2V18zm1.8.5l-.2-1v1H20v-1.4h.3l.2 1 .2-1h.4v1.4h-.2v-1l-.2 1z" fill="#DD2E44"/></svg>