<svg xmlns="http://www.w3.org/2000/svg" viewBox="0 0 36 36"><path fill="#4997D0" d="M32 5h-8v26h8a4 4 0 0 0 4-4V9a4 4 0 0 0-4-4zM4 5a4 4 0 0 0-4 4v18a4 4 0 0 0 4 4h8V5H4z"/><path fill="#EEE" d="M12 5h12v26H12z"/><path fill="#437E24" d="M22.7 18.7v-.2l-.6.3c.2-.4.6-.3.9-.8 0-.1.2-.2 0-.2-.3 0-.5.1-.7.4.1-.4.5-.2.6-1.1v-.3l-.3.4v-.5l.1-.3c0-.3 0-.5-.1-.2l-.2.2c0-.1 0-.1 0 0l-.2.4v-.3c0-.3.5-.3.3-1.3 0-.2 0-.3-.1 0s-.3.3-.4.9c0-.6.3-1 0-1.5 0-.3-.2-.3-.2 0v.7l-.1-.8c-.1-.1-.3-.3-.2-.1v.2c0-.3-.3-.4-.5-.5-.3 0-.2 0-.1.1.1.2 0 .3.3.5-.2 0-.4 0-.5-.2-.2-.2 0 0 0 .2 0 .3.2.4.4.5v.3l.3.4-.2-.2c-.2-.3-.3-.3-.2 0 0 .4.2.5.3.7l.1.2.3.3.2.3c-.4-.2-.3 0-.3.1.2 1 .6.6.5 1.2v.1c0-.3-.2-.5-.3-.6-.2-.2-.2-.2-.2.2v.3c0-.3-.1-.2-.1 0 0 .3-.2.4 0 .9 0 .1 0 .4-.2.6.3-.5 0-.7 0-.9 0-.2 0-.2-.1 0a1 1 0 0 0 0 .7H21a2 2 0 0 0-.2.2c0-.3 0-.4-.1-.2-.2.4-.4.4-.6.9 0 .4-.2.5-.4.6.3-.2.4-.5.5-.9 0-.4 0-.3-.2-.1-.1.2-.4.2-.5.7 0 .1-.2.4-.5.5.4-.3.6-.8.6-1 0-.2-.1-.3-.2 0 0 .2-.3.2-.4.7-.1.3-.2.3-.5.5a4 4 0 0 0-.5.2l-.5-.2c-.4-.2-.4-.2-.5-.5-.2-.5-.4-.4-.5-.7 0-.2 0-.2-.1 0 0 .2.1.7.5 1a.7.7 0 0 1-.4-.5c-.2-.5-.4-.5-.5-.7-.2-.2-.3-.3-.2.1 0 .4.2.7.5.9h-.1c-.2-.1-.3-.2-.4-.6-.1-.5-.4-.5-.5-.8-.1-.3-.2-.2-.1 0v.2s-.2 0-.3-.2v-.6c-.2-.3-.3-.2-.2 0 0 .1-.3.3 0 .9a.8.8 0 0 1-.1-.7c.1-.5-.1-.6-.1-.8 0-.3 0-.4-.2 0v-.3c.1-.4 0-.5-.1-.3s-.3.4-.3.7v-.2c0-.5.3-.2.4-1.1 0-.2.1-.3-.2-.1l.1-.4c.1 0 .3 0 .4-.2v-.3c.2 0 .4-.3.4-.6s0-.3-.3 0l-.1.2.2-.5v-.2c.2 0 .4-.2.5-.5 0-.1.1-.4 0-.2l-.5.2c.2-.2.1-.4.3-.5 0 0 .1-.2-.1-.1-.3 0-.5.2-.5.4v-.1c0-.2-.1 0-.2 0v.9l-.2-.8c0-.2 0-.2-.2 0-.2.5.1 1 0 1.5 0-.5-.2-.5-.3-.8 0-.3 0-.2-.1 0-.2 1 .3 1 .3 1.3l-.2-.3c-.1 0-.2 0-.2-.2l-.1.2.1.4v.5l-.2-.4c-.2-.3-.1 0-.1.2.1 1 .5.8.6 1.1a.9.9 0 0 0-.6-.3c-.3 0-.1 0 0 .1.2.6.6.4.7.8l-.4-.3c-.2-.1-.2 0 0 .3H13l.2.2.5.2.4.3c-.4-.2-.7-.1-.9-.2-.2-.2-.1 0 0 .1.7.8.9.2 1.3.6H14l.5.5h-.3c-.2.1-.1.1 0 .2l.5.2c-.3.2-.4.2-.1.3.4.2.7.2 1 .2a1 1 0 0 0-.3.1c-.2.2-.2.2 0 .2h.7c-.2.1-.3.3-.5.3-.1 0-.2.2 0 .2 1 0 1.2-.5 1.6-.5.3 0 .5.1.7.3l-.2.1.3.1h.2l.2-.1-.1-.1.6-.3c.5 0 .7.6 1.6.5.3 0 .2-.1 0-.2-.2 0-.3-.2-.4-.3h.7c.2 0 .2 0 0-.2l-.3-.1c.3 0 .6 0 1-.2.2-.1.2-.2-.2-.3l.5-.2c.2 0 .3-.1 0-.2h-.2l.5-.4c.2-.3 0-.2-.3-.2l-.2.1c.4-.4.5.2 1.3-.6 0 0 .2-.3 0-.2-.3.2-.6 0-1 .3l.5-.3.5-.2c.3-.2.3-.3.2-.3h-.3zm-7 2.4h-.3.3zm1.2.3zM15 20l.1.4a.4.4 0 0 1-.2-.4zm-.2-4.5l-.5.3.4-.4h.1zm-.2 4.5zm1.1 1.4h.5-.5zm6-6.3zm-.3.3v-.1c.3 0 .4.2.5.4-.2-.1-.4-.1-.5-.3zm-.8 5.6l-.4.1h.1l.3-.1zm.6-1v.3l-.2.1.2-.4zm-2 1.4H19zm.7 0v-.1h.6-.6zm1.7-1.4z"/><path fill="#B1B6BA" d="M16.6 18.4l-.9.8-.1.5.2.2 1.1-1.2-.3-.3z"/><path fill="#6C301E" d="M15.5 19.7l.3.2-.3.4c0 .2-.5.8-.7 1h-.3l-.2-.4.5-.6.5-.3.2-.3zm1.1-1.1l-.4.5.1.1.5-.5z"/><path fill="#B1B6BA" d="M14.5 14l1.5 1.6.3-.2v-.2H16z"/><path fill="#FAB81B" d="M16.3 20.5l.2.3.2-.1v.3h-.2l-.5.4s-.2-.1-.4 0c0 0 0-.3.2-.3l.4-.4s-.2 0-.1-.2h.2z"/><path fill="#B1B6BA" d="M16.3 20.6s2.8-2.7 4-2.8c0 0-.9.5-1.4 1l-2.4 2-.2-.2z"/><path fill="#B1B6BA" d="M19.5 18.4l.8.8.2.5-.2.2-1.1-1.2.3-.3z"/><path fill="#6C301E" d="M20.6 19.7l-.3.2.3.4c0 .2.5.8.6 1 .1.1.3 0 .4 0l.2-.4-.5-.6-.5-.3-.2-.3zm-1.2-1.1l.5.5-.1.1-.5-.5z"/><path fill="#B1B6BA" d="M18.8 16.3l-.2.5 1.5-1.5H20z"/><path fill="#B1B6BA" d="M21.6 14l-1.5 1.6-.4-.2.4-.1z"/><path fill="#FAB81B" d="M19.7 20.5l-.1.3-.2-.1s-.2.2 0 .3h.2l.5.4h.3V21l-.5-.4s.2 0 .1-.2h-.3z"/><path fill="#B1B6BA" d="M19.7 20.6S17 18 15.8 17.8c0 0 .9.5 1.4 1l2.4 2 .1-.2z"/><path fill="#F9F0AA" d="M16.4 15.2h2.2c.5 0 .4.2.4.3 0 .2-.2.3-.2.3s.3.2.7 1.3c.4 1.1.3 1.6-.3 1.6l-2.4.2c-.4 0-.5-.2-.5-.5 0-.2.3-.6.7-.4l-.2-.8c-.2-.7-.7-1.3-.7-1.6 0-.2 0-.4.3-.4z"/><path fill="#437E24" d="M17.7 14c-.1 0 .1-.3.3-.3.2 0 .3.2 0 .4l1 .7c.5.4 1.4 1.5 1.5 2.7 0 1.5-.8 2.3-1 2.8l-1 2s0-.7.8-2c0 0-.7 1.3-1.8 1.5 0 0 1.4-1 1.8-1.8.4-.7 1-2 .8-2.7 0-.8-.2-1.5-1.3-2 0 0-.7-.1-1-.3-.4-.4 0-1 0-1z"/><path fill="#E2CF81" d="M18.8 15.8l.1.3h-2.4l-.1-.2-.2-.2h2.7l-.1.1zM17 18.6v.2h2.3l.3-.2v-.2H17l.1.2z"/></svg>