<svg xmlns="http://www.w3.org/2000/svg" viewBox="0 0 36 36"><path fill="#EEE" d="M36 27a4 4 0 0 1-4 4H4a4 4 0 0 1-4-4V9a4 4 0 0 1 4-4h28a4 4 0 0 1 4 4v18z"/><path d="M34.4 28.1c-1.9 0-1.9-1-3.7-1-1.8 0-1.8 1-3.7 1-1.7 0-1.7-1-3.6-1-1.8 0-1.8 1-3.6 1s-1.8-1-3.6-1-1.8 1-3.7 1-1.8-1-3.6-1-1.8 1-3.6 1-1.8-1-3.7-1c-.7 0-1.2.1-1.6.3.1.7.3 1.3.7 1.8l1-.1c1.8 0 1.8 1 3.6 1s1.8-1 3.6-1 1.8 1 3.6 1 1.9-1 3.7-1 1.8 1 3.6 1 1.8-1 3.6-1c1.9 0 1.9 1 3.7 1 1.8 0 1.8-1 3.6-1s1.8 1 3.7 1h.2a4 4 0 0 0 1.3-2.4 3 3 0 0 1-1.5.4zm1.6-2.7v-2a3 3 0 0 1-1.6.5c-1.9 0-1.9-1-3.7-1-1.8 0-1.8 1-3.7 1-1.7 0-1.7-1-3.6-1-1.8 0-1.8 1-3.6 1s-1.8-1-3.6-1-1.8 1-3.7 1-1.8-1-3.6-1-1.8 1-3.6 1-1.8-1-3.7-1c-.8 0-1.2.1-1.6.3v2c.4-.2.8-.4 1.6-.4 1.9 0 1.9 1 3.7 1 1.8 0 1.8-1 3.6-1s1.8 1 3.6 1 1.9-1 3.7-1 1.8 1 3.6 1 1.8-1 3.6-1c1.9 0 1.9 1 3.7 1 1.8 0 1.8-1 3.6-1s1.8 1 3.7 1c.8 0 1.2-.2 1.6-.4zm0-4.3v-2a3 3 0 0 1-1.6.5c-1.9 0-1.9-1-3.7-1-1.8 0-1.8 1-3.7 1-1.7 0-1.7-1-3.6-1-1.8 0-1.8 1-3.6 1s-1.8-1-3.6-1-1.8 1-3.7 1-1.8-1-3.6-1-1.8 1-3.6 1-1.8-1-3.7-1c-.8 0-1.2.1-1.6.4v2c.4-.3.8-.5 1.6-.5 1.9 0 1.9 1 3.7 1 1.8 0 1.8-1 3.6-1s1.8 1 3.6 1 1.9-1 3.7-1 1.8 1 3.6 1 1.8-1 3.6-1c1.9 0 1.9 1 3.7 1 1.8 0 1.8-1 3.6-1s1.8 1 3.7 1c.8 0 1.2-.2 1.6-.4zm0-4.2v-2a3 3 0 0 1-1.6.5c-1.9 0-1.9-1.1-3.7-1.1-1.8 0-1.8 1-3.7 1-1.7 0-1.7-1-3.6-1-1.8 0-1.8 1-3.6 1s-1.8-1-3.6-1-1.8 1-3.7 1-1.8-1-3.6-1-1.8 1-3.6 1-1.8-1-3.7-1c-.8 0-1.2.2-1.6.4v2c.4-.2.8-.4 1.6-.4 1.9 0 1.9 1 3.7 1 1.8 0 1.8-1 3.6-1s1.8 1 3.6 1 1.9-1 3.7-1 1.8 1 3.6 1 1.8-1 3.6-1c1.9 0 1.9 1 3.7 1 1.8 0 1.8-1 3.6-1s1.8 1 3.7 1c.8 0 1.2-.2 1.6-.4zm0-4.3v-2a3 3 0 0 1-1.6.5c-1.9 0-1.9-1-3.7-1-1.8 0-1.8 1-3.7 1-1.7 0-1.7-1-3.6-1-1.8 0-1.8 1-3.6 1s-1.8-1-3.6-1-1.8 1-3.7 1-1.8-1-3.6-1-1.8 1-3.6 1-1.8-1-3.7-1c-.8 0-1.2.1-1.6.3v2c.4-.2.8-.4 1.6-.4 1.9 0 1.9 1 3.7 1C7 13 7 12 8.9 12s1.8 1 3.6 1 1.9-1 3.7-1 1.8 1 3.6 1 1.8-1 3.6-1c1.9 0 1.9 1 3.7 1 1.8 0 1.8-1 3.6-1s1.8 1 3.7 1c.8 0 1.2-.2 1.6-.4zm0-4.2a4 4 0 0 0-.7-1.7l-1 .1c-1.8 0-1.8-1-3.6-1s-1.8 1-3.7 1c-1.7 0-1.7-1-3.6-1-1.8 0-1.8 1-3.6 1s-1.8-1-3.6-1-1.8 1-3.7 1-1.8-1-3.6-1-1.8 1-3.6 1-1.8-1-3.7-1A4 4 0 0 0 .1 8a3 3 0 0 1 1.5-.3c1.9 0 1.9 1 3.7 1 1.8 0 1.8-1 3.6-1s1.8 1 3.6 1 1.9-1 3.7-1 1.8 1 3.6 1 1.8-1 3.6-1c1.9 0 1.9 1 3.7 1 1.8 0 1.8-1 3.6-1s1.8 1 3.7 1c.7 0 1.2-.2 1.5-.4z" fill="#00247D"/><path fill="#C1694F" d="M27.2 28.7c0 .2 0 .3-.3.3a.3.3 0 0 1-.3-.3V12.8c0-.2.1-.3.3-.3.2 0 .3.1.3.3v15.9z"/><path fill="#DD2E44" d="M24.7 20.4s0-.4.6-.4c.5 0 .6.3.9.4l.6.2V23h-2.6l-.2-1.3c-.2-.5-.3-1.1 0-1.3.3-.2.7 0 .7 0z"/><path fill="#FFCC4D" d="M26.8 19.7v.4s-.6 0-1.2-.5c-.4-.2-1.1-.5-1.7 0-.4.3-.4 1.1-.1 1.4.2.3.4 1 0 .6a2 2 0 0 1-.6-1.8c.2-.5.5-1 1.3-1 .7 0 1.2.4 1.6.6l.7.3z"/><path fill="#FFCC4D" d="M23.9 21.5h.4l-.1.6.4-.2.1.6-.5-.1.3.5-.4.1-.2-.7v-.8zm.9.3h.3s-.3-.8.2-.8c.6 0 .2.8.2.8h.4v.5l-.3-.2v.3l.4.5h-1.1l.2-.4V22l-.2.3-.1-.6z"/><path fill="#DD2E44" d="M29.2 20.4s-.1-.4-.6-.4-.6.3-1 .4l-.6.2V23h2.6l.3-1.3c.1-.5.3-1.1 0-1.3-.4-.2-.7 0-.7 0z"/><path fill="#FFCC4D" d="M27 19.7v.4s.7 0 1.3-.5c.3-.2 1.1-.5 1.7 0 .4.3.3 1.1.1 1.4-.2.3-.5 1 0 .6a2 2 0 0 0 .5-1.8c-.1-.5-.4-1-1.2-1-.8 0-1.3.4-1.6.6l-.8.3z"/><path fill="#FFCC4D" d="M30 21.5h-.4v.6l-.4-.2v.6l.5-.1-.3.5.4.1.2-.7v-.8zm-.9.3h-.4s.4-.8-.1-.8c-.6 0-.2.8-.2.8H28v.5l.3-.2v.3l-.4.5H29l-.3-.4V22l.3.3.1-.6zm-1.5-3c0 .3-.3.6-.7.6a.7.7 0 0 1-.7-.7c0-.4.3-.7.7-.7.4 0 .7.3.7.7zm-1.3-1.6h1.2v.5h-1.2z"/><path fill="#FFCC4D" d="M26.6 16.9h.6v4.5h-.6z"/><path fill="#FFCC4D" d="M26.4 21.2h1l-.3.6.6-.3v.9l-.6-.2.5.7h-1.3l.4-.7-.5.1v-.7l.5.2z"/><path fill="#FFCC4D" d="M27 22.6c1.1 0 2 .1 2.8.4v.8c-.2.3-2.9-.2-2.9-.2v-1z"/><path fill="#FFCC4D" d="M27 22.6c-1.3 0-2 .1-2.9.4v.8c.2.3 2.9-.2 2.9-.2v-1z"/><path fill="#EEE" d="M30 24.3c0 .4-1.3.7-3 .7-1.8 0-3.2-.3-3.2-.7 0-.4 1.4-.7 3.1-.7s3.2.3 3.2.7z"/><path fill="#99AAB5" d="M29 24.6c0 .2-1 .4-2 .4-1.2 0-2.2-.2-2.2-.4s1-.4 2.1-.4c1.2 0 2.1.2 2.1.4z"/><path fill="#77B255" d="M25.7 6.9l.6.8.5-.2V8l.2.1-.2.8.4-.1-.2.7.2.1v.8l.1.2.2-1 .2.2v-.5l.3-.8.2.3.4-1.4.2.5.5-.6h.3l.5-.2.1.3h.4l-.2.3.4.3h-1l-.6.5h.3L29 9l.5.1-.5.4h.4l-.6.3.6.2-.8.4.2.2-.8.4v.3l.7-.5.9-.6c.2-.2.5-.5 1-.7s1.4 0 1.4 0l-.9.5.2.3-.6.2.1.3-1 .1v.4l-.7.1-.1.4-.6.2.3.2-.4.2h.7l-.3.3h.9l-.4.3h.8l-.4.3.7.1-.3.4h.6l-.2.3.8.6-1-.2-.1.3-.3-.4-.2.2-.2-.5-.3.1-.3-.4v.2l-.3-.5-.2.2-.4-.5v.2l-.6-.4v.3l.4.3-.3.2.5.4-.2.2.5.4-.4.2.3.3-.2.5-.4-.6h-.2v-.5H27l.1-.6H27v-.4l-.1-.5-.2-.3-.1.3.2.4-.2.2.2.5-.4.1.2.3h-.2l-.1.4-.3-.3-.2.6-.3-.3.3-1.2h-.3l-.3.5-.2-.2-.3.4-.2-.4-.3.7-.3-.4-.2.7-.3-.4-.2.5v-.5l-.5.3.5-.7.9-.8.6-.4-.4-.1.6-.2c.2 0-.2-.2-.2-.2l1-.3-.5-.2-.6.2-.1-.5-.6.3-.1-.4-.5.3-.3-.2-.2.4-.4-.2-.5.1.3-.4-.4-.1.7-.5.1-.2h1l-.3-.2 1 .2h.2l.8.2-.7-.5-.6-.1.4-.4-1-.3.3-.3-1.2-.3.7-.2-.5-.9 1 .7.5-.2.3.6.4.3v.4h.3l.2.4h.2l.2.3h.4l-.1-.4.1-.3-.4-.3.3-.2-.5-.5h.5l-.7-.7h.5l-.5-.5.4-.1v-.8z"/><path fill="#00247D" d="M19 18V5H3.4v1.8H.7L.5 7A4 4 0 0 0 0 9v9h19z"/><path fill="#EEE" d="M19 5h-2.3L12 8.3V5H7v2.6L3.4 5a4 4 0 0 0-1.7.7L6.4 9H4.7L1 6.4l-.3.4L3.8 9H0v5h3.9L0 16.8V18h3.3L7 15.4V18h5v-3.3l4.7 3.3H19v-2l-2.8-2H19V9h-2.8L19 7V5z"/><path fill="#CF1B2B" d="M11 5H8v5H0v3h8v5h3v-5h8v-3h-8z"/><path fill="#CF1B2B" d="M19 5h-1.5L12 8.9V9h1.6L19 5.2zm-17.3.7a4 4 0 0 0-.7.7L4.7 9h1.7L1.7 5.7zM6.4 14L.7 18h1.8L7 14.8V14zM19 17.8v-1.2L15.3 14h-1.7z"/></svg>