<svg xmlns="http://www.w3.org/2000/svg" viewBox="0 0 36 36"><path fill="#CE1B26" d="M36 27a4 4 0 0 1-4 4H4a4 4 0 0 1-4-4V9a4 4 0 0 1 4-4h28a4 4 0 0 1 4 4v18z"/><path fill="#003E87" d="M.6 7A4 4 0 0 0 0 9v18c0 .7.2 1.4.6 2h34.8a4 4 0 0 0 .6-2V9a4 4 0 0 0-.6-2H.6z"/><circle fill="#FFF" cx="18" cy="18" r="10"/><circle fill="#730900" cx="18" cy="18" r="9"/><circle fill="#FFF" cx="18" cy="18" r="8.7"/><ellipse fill="#007F00" cx="18" cy="9" rx=".5" ry=".7"/><ellipse fill="#007F00" cx="18" cy="27" rx=".5" ry=".7"/><path fill="#007F00" d="M15.2 26.6c0-.4.4-.6.6-.5.3 0 .5.4.4.7-.1.4-.4.6-.7.5-.3 0-.4-.4-.3-.7zm5-16.7c.2.1.5-.1.6-.5.1-.3 0-.7-.3-.7-.3-.1-.6.1-.7.5 0 .3 0 .7.4.7zM13 25.5c.1-.3.5-.4.7-.3.3.2.3.5.1.8-.1.4-.5.5-.7.4-.3-.2-.3-.5-.1-.9zm9-14.7c.3.1.7 0 .8-.3.2-.4.2-.7 0-.9-.3-.1-.7 0-.8.4-.2.3-.2.6 0 .8zM11.4 24c.2-.3.6-.3.8-.1.2.2.2.6-.1.8-.3.3-.6.3-.8.1-.2-.2-.2-.5 0-.8zM24 12.1c.2.2.6.2.8-.1.3-.3.3-.6.1-.8-.2-.2-.5-.2-.8 0-.3.3-.3.7-.1.9zm-14 10c.4-.2.7-.2.9 0 .1.3 0 .7-.3.8-.4.2-.7.2-.9 0-.1-.3 0-.7.4-.8zm15.3-8.3c.2.3.5.3.8.1.4-.1.5-.5.4-.7-.2-.3-.5-.3-.9-.1-.3.1-.4.5-.3.7zm-16 6c.3 0 .7 0 .7.4.1.2-.1.5-.5.6-.3.1-.7 0-.7-.3-.1-.3.1-.6.5-.7zm16.9-4c0 .3.4.5.7.4.4-.1.6-.4.5-.7 0-.3-.4-.4-.7-.3-.4 0-.6.4-.5.6z"/><ellipse fill="#007F00" cx="9" cy="18" rx=".7" ry=".5"/><path fill="#007F00" d="M26.3 18c0 .3.3.5.7.5s.7-.2.7-.5-.3-.5-.7-.5-.7.2-.7.5zM9.4 15.2c.4 0 .6.4.5.6 0 .3-.4.5-.7.4-.4-.1-.6-.4-.5-.7 0-.3.4-.4.7-.3zm16.7 5c-.1.2.1.5.5.6.3.1.7 0 .7-.3.1-.3-.1-.6-.5-.7-.3 0-.7 0-.7.4zM10.5 13c.3.1.4.5.3.7-.2.3-.5.3-.8.1-.4-.1-.5-.5-.4-.7.2-.3.5-.3.9-.1zm14.7 9c-.1.3 0 .7.3.8.4.2.7.2.9 0 .1-.3 0-.7-.4-.8-.3-.2-.6-.2-.8 0zM12 11.4c.3.2.3.6.1.8-.2.2-.6.2-.8-.1-.3-.3-.3-.6-.1-.8.2-.2.5-.2.8 0zM23.9 24c-.2.2-.2.6.1.8.3.3.6.3.8.1s.2-.5 0-.8c-.3-.3-.7-.3-.9-.1zm-10-14c.2.4.2.7 0 .9-.3.1-.7 0-.8-.3-.2-.4-.2-.7 0-.9.3-.1.7 0 .8.3zm8.3 15.3c-.3.2-.3.5-.1.8.1.4.5.5.7.4.3-.2.3-.5.1-.9-.1-.3-.5-.4-.7-.3zm-6-16c0 .3 0 .7-.4.7-.2.1-.5-.1-.6-.5-.1-.3 0-.7.3-.7.3-.1.6.1.7.5zm4 16.9c-.3 0-.5.4-.4.7.1.4.4.6.7.5.3 0 .4-.4.3-.7 0-.4-.4-.6-.6-.5z"/><path fill="#B34B00" d="M15 12.2l1 1.7h1l.5.4.3 1-1-.5 1 .9-.3.8h.8V15l1.4-.8-.2-.2-1.2.7v-1l-.3-.2.7-.8-.4-.2-.5.8V12l-.3-.2v.7l-.6-.7-.3.1.6.6-.7.6-1-.3.2-1h-.2l-.1 1-.2-.8-.2.4m3.4-1h.3v.8h-.3zm1.2.2h.3v.4h-.3z"/><path fill="#FFF" d="M16.2 13.2l.1.4 1 .1.5.5-.1-.5-.3-.6h-1.2z"/><path fill="#289400" d="M15 11.3c.6-.4 1 .3 1 .3s.3-.8 1-.9c.8 0 .8.3.8.3s.2-.5 1.2-.3 1 .6.9.7H18l.2.5c0 .1.6-.2 1.5 0 0 0 .4-.8 1-.4.7.4 1.2 1.2 1 1.4-.2.2-1.3 0-1.5 0 0 0-.2.3-.8.2-.5 0-1.5-.6-1.5-.6l-.2-.3s-.4-.4-1-.4H16s-.4.4-.8.5h-.9s0-.6.7-1z"/><path fill="#289400" d="M15.7 12.5c1-.2 1.7 0 1.8.5 0 .5-.8.4-1 .4-.1 0-1.1.4-1.4.3-.4 0-1-.3-.5-.8.5-.4 1.1-.4 1.1-.4zm4 .9c1 .2 1.5.8 1.3 1-.3.2-.9.2-1.4 0s-1.3 0-1.5-.4c-.2-.4.4-.9 1.6-.6zm-.4 1.3c.8.1.8.8.7 1-.1 0-1.3-.1-1.6-.4-.2-.4.2-.7 1-.6zm-2.8-.4c1-.3 1.3.1 1.3.5s-.8.3-1.1.5c-.3.1-1 .3-1.1 0-.2-.1 0-.7.9-1z"/><path fill="#ADADAD" d="M15.8 24.3c-.3.3-.7.9.2 1 .9.2.5-.7.3-.8-.1-.2-.5-.2-.5-.2z"/><path fill="#69F" d="M16.2 24.6s.2.3 0 .4c-.1.2-.3.3-.5.3l1 .2c.2 0 .4-.2.3-.6-.1-.3-.8-.3-.8-.3z"/><path fill="#EEE" d="M21.8 22.8c-.5 0-1.1.4-1.1.4s-.3-.3-.8 0c-.5.2-.7.3-.7.8l-.5.2h-1.4l-.5-.2c0-.5-.2-.6-.7-.8-.4-.3-.7 0-.7 0s-.7-.4-1.1-.4c-.5 0-1 .5-.9.6l.4.8c.1.2.2.3.5.3l1.1-.2 1 .5c.9.3 1.6.3 1.6.3s.8 0 1.6-.3c.9-.3 1-.5 1-.5l1 .2c.4 0 .5-.1.7-.3l.3-.8c0-.1-.4-.6-.8-.6z"/><path fill="#ADADAD" d="M15.5 23.3l1.3.7s.2-.3-.1-.5l-1-.4c-.1-.1-.2.2-.2.2zm0 1c-.4-.4-.7-.6-1-.6-.4-.1-.8 0-.8.3s.3.6.6.5l1.3-.2z"/><path fill="#69F" d="M15.6 23.4s0-.4.2-.2c.3.1.2.4.2.4l-.4-.2zm-.3.8s-.6-.4-1-.4c-.2 0-.5 0-.4.2 0 .2.3.3.5.3h.9z"/><path fill="#ADADAD" d="M20.2 24.3c.3.3.7.9-.2 1-.8.2-.5-.7-.3-.8.2-.2.5-.2.5-.2z"/><path fill="#69F" d="M19.8 24.6s-.1.3 0 .4c.1.2.3.3.5.3l-1 .2c-.2 0-.3-.2-.2-.6 0-.3.7-.3.7-.3z"/><path fill="#ADADAD" d="M20.6 23.3l-1.4.7s-.1-.3.2-.5l.8-.4c.2-.1.4.2.4.2zm-.2 1c.5-.4.8-.6 1.2-.6.4-.1.8 0 .8.3s-.4.6-.7.5l-1.3-.2z"/><path fill="#69F" d="M20.4 23.4s0-.4-.2-.2c-.3.1-.2.4-.2.4l.4-.2zm.4.8l.8-.4c.2 0 .6 0 .6.2s-.4.3-.6.3h-.8z"/><path fill="#D3D3D3" d="M15 23.3c.4.1 1.1.9 0 .4-1-.5-.6-.7 0-.4zm1.5.8c.5.2 1.3.3 1.7.3.5 0 .8.5.2.4l-2.1-.3c-.4-.2-.2-.5.2-.4zm2.8 0l1.8-.9c.3 0 .7 0 .7.2l-.5.3c-.3 0-1.3.8-2 1-.6 0 0-.5 0-.5z"/><path fill="#289400" d="M13 21.3c1-.2 5.5-.3 6.8-.2 1.3.2 4.1 1 3.7 1.4-.3.5-1.9.4-2.8.3-.8-.2-1.2.6-2.7.6-1.5 0-2.2-.4-2.9-.7-.6-.2-1.5 0-2 0s-2.4-1 0-1.4z"/><path d="M15.4 16.3v3.4c0 1.2.9 2.2 1.3 2.6.4.4 1.3.9 1.3.9l1.3-.9c.4-.4 1.4-1.4 1.4-2.6v-3.4h-5.3z"/><path fill="#9ED7FF" d="M15.6 16.5v3.2c0 1.1.9 2.1 1.2 2.5l1.2.7s.9-.4 1.2-.7c.4-.4 1.2-1.4 1.2-2.5v-3.2h-4.8z"/><path fill="#006AC8" d="M16.5 21.7h3l.4-.5h-3.8l.4.5z"/><path fill="#5AC800" d="M16.5 21.7a3.7 3.7 0 0 0 .6.6H19a2.4 2.4 0 0 0 .6-.6h-3.1z"/><path fill="#FFD801" d="M18 23l1-.7h-2l1 .6z"/><path fill="#FFF" d="M15.8 20.7l2.2-2v-2.2h-2.4v3.2l.2 1z"/><path fill="#FFD83C" d="M20.2 20.7l.2-1v-3.2H18v2.2l2.2 2z"/><path fill="#B34B00" d="M17.7 18.3h-.1L17 18s.1-.2 0-.2l-1-1h-.2v.3l1 1h.1l.5.5c-.1.1-.1.2 0 .2l.3-.3z"/><path fill="#782121" d="M16.2 18.8H16v-.1l1-1.4h.2v.2l-1 1.3z"/><path fill="#D3D3D3" d="M16.8 17.2l.3-.5.6.4-.3.4z"/><path fill="#782121" d="M20 18.7a.1.1 0 0 0 .2-.2L19 17.3c-.1 0 0 0 0 .1l1.1 1.3z"/><path fill="#FFF" d="M18.2 17.3l.5-.4.4.3-.5.5zm.2.8l1.4-1.3.3.4-1.3 1.3z"/><path fill="#B34B00" d="M16.7 20.6s.7.3 1.3.3h.8l-.2.3h-1.5l-.4-.6z"/><path fill="#FFF" d="M17 20.6l.3.2h1.4l-.2-1-1.2.1z"/><path fill="#892614" d="M14.2 13.7l1.4-.7c.2 0 .3.2.1.3l-1.5.8c-.3.1 0-.4 0-.4z"/><path fill="#FBD44D" d="M12.8 21.7c-.1.4-.3.8.1.9.5.1.6-.3.4-.7 0-.4-.5-.2-.5-.2zm1.5 0c0 .1-.3.5.2.4h1c.2 0 .4-.2 0-.2-.2 0-.4-.1-.5-.4-.1-.2-.7.1-.7.1zm-1-5l-.2-.8-.5.6c0 .2-.3 0-.5-.2-.1-.1-.3-.5-.3-.8 0-.3-.4-.5-.3-.7.1-.2.2-.3.5-.3.2 0 .2.3.2.3s.5 0 .3.2c-.4.5-.1.6-.1.6l.2-.3v-.7l.9-.3c.1 0 .4-.2.3-.3-.1-.1-.3-.3-.3-.5 0-.3 0-.8.5-.7.5 0 .7.4.5.7-.1.3-.2.4-.1.5 0 .2 0 .4.4.4.3 0 .4.1.5.5v1h.6l.7.3h-1.2v.4l-.3.1-.3-.5-.1.5h-1.4z"/><path fill="#D3D3D3" d="M13.2 16.6a5 5 0 0 0-.4 1.9c0 .5.2 1 0 1.5l-.3 1.8.5.3.6-.3v-2.1l.4-1 .3.7-.2 2.3h1l-.1-2.5-.2-1.7-.1-.8-1.5-.1z"/><path fill="#9B5F00" d="M13.2 16.5l.8.1c.4 0 .8-.1.8 0v.3h-1.6c-.2 0 0-.4 0-.4z"/><path d="M14 12.5c.5 0 .7.3.6.6v.4s0-.3-.2-.1V13h-.9v.2s-.2-.2 0-.5c.2-.2.5-.2.5-.2"/><path fill="#892614" d="M11 15.4l.6-.4h.2c.2 0 .2-.1.3-.2v-.2l1-.3.6-.3v.3l-1 .6h-.4v.2l-.5.2-.5.6c-.2 0-.3-.3-.3-.5z"/><path fill="#D3D3D3" d="M15 13.3c0-.1.4-.4.5-.2 0 .1.2.8.6.8l-.4.3-.6.2v-.6l-.2-.5z"/><path fill="#B34B00" d="M19.1 12.3l1.9.8.6.7c.3 0 0 .2 0 .2-.2-.1-.5 0-.8-.2-.3 0-1.8-.9-1.9-1l.2-.5z"/><path fill="#892614" d="M23.2 21.7c0 .4.3.8-.1.9-.5.1-.6-.3-.4-.7 0-.4.5-.2.5-.2zm-1.5 0c0 .1.2.5-.2.4h-1c-.2 0-.4-.2-.1-.2.3 0 .5-.1.6-.4.1-.2.7.1.7.1zm1-5l.1-.8.5.5c0 .2.4.2.5.1.2-.1.4-.7.4-1 0-.3.4-.2.3-.5-.2-.2-.3-.3-.5-.3h-.3s-.2.1-.1.4v.5l-.3-.2-.1-.7c-.1-.2-.5-.4-.7-.4-.2 0-.4-.2-.3-.3 0-.1.3-.3.3-.5 0-.3 0-.8-.5-.7-.5 0-.7.4-.5.7v.6c0 .1 0 .3-.3.3-.4 0-.5.2-.5.5v1H20a3 3 0 0 0-.7.3h1.2v.4l.2.1.4-.5.1.5h1.4z"/><path fill="#D3D3D3" d="M22.8 16.6c.2.4.4 1.4.4 1.9s-.2 1 0 1.5l.3 1.8-.5.3-.6-.3v-2.1l-.4-1-.3.7.1 2.3H21l.1-2.5.2-1.7.1-.8 1.5-.1z"/><path fill="#9B5F00" d="M22.8 16.5l-.8.1c-.4 0-.8-.1-.8 0v.3h1.6c.1 0 0-.4 0-.4z"/><path d="M21.9 12.5c-.4 0-.6.3-.6.6 0 .4.2.4.2.4s-.1-.3 0-.1V13h1l.1.2s.2-.2 0-.5c-.2-.2-.5-.2-.5-.2"/><path fill="#B34B00" d="M22.2 14l1.5.8-.2.1c0 .2-1.2-.5-1.2-.5l-.1-.4zm2 1.2l.5.1s.1-.1.2 0c.2 0 0 .6-.1.6l-.2-.3-.5-.3.2-.1z"/></svg>