<svg xmlns="http://www.w3.org/2000/svg" viewBox="0 0 36 36"><path fill="#DE2910" d="M36 27a4 4 0 0 1-4 4H4a4 4 0 0 1-4-4V9a4 4 0 0 1 4-4h28a4 4 0 0 1 4 4v18z"/><g fill="#FFF"><path d="M19.6 9.2a3 3 0 0 0-2-.3c-1 .2-2 1.1-2.3 2.2l-.3 1.4v1.3l.5 1.7a7.3 7.3 0 0 0 2 2.8c-.3-.4-.6-1.1-.6-1.6-.2-1 0-1.6.3-2.5 0-.2.2-.2.2-.2.1 0 .2.2.1.4-.1.4-.4 1.5-.3 2.3.2.7.4 1.1.7 1.4-.1-.2-.3-.6-.3-1l.1-.6.8-.7.6-.4c.9-.5 1.2-1.6 1.1-2V13l-.2-.8c0-.2-.2-.5-.4-.6l-.1-.3c-.2-.3-.2-.6-.2-.7l.1-.4.3-.3h.6l.2.2s.2.1.2 0a3 3 0 0 0-1-.9zM16 19.1c-1-.2-1.6-.5-2.3-1-.2 0-.2-.2-.1-.3h.3c.4.3 1.4.9 2.2 1 .6 0 1-.1 1.4-.3h-.9l-.6-.3-.4-1-.2-.6c-.3-1-1.3-1.6-1.7-1.7h-.4s-.4-.1-.8 0c-.2 0-.5 0-.7.2h-1l-.4-.2-.2-.4.2-.5.2-.2.1-.2a4 4 0 0 0-1.2.8 3 3 0 0 0-.8 1.9c0 1 .5 2.2 1.5 2.8l1.3.6 1.2.3h1.8a7.4 7.4 0 0 0 3.4-1.3l-.2.1a5 5 0 0 1-1.7.3zm2.5 1.1c0-.8-.2-1.3-.3-1.4 0 .6 0 1.3-.2 1.8-.4.8-1 1.3-1.6 2H16l.1-.4c.3-.3 1.2-1 1.5-1.8.2-.6.2-1 .2-1.4l-.3.9-.5.5c-.3.2-.6.2-1 .1h-.7a3 3 0 0 0-2.1 1.1l-.2.3-.2.8v1.1l-.4.7-.2.2c-.1 0-.2.1-.4 0a.5.5 0 0 1-.5-.3l-.1-.2-.1-.2c0 .2 0 .9.3 1.4a3 3 0 0 0 1.6 1.4c.8.3 2.3.2 3.1-.6l1-1 .7-1c.1-.4.4-1 .5-1.8.1-.5.2-1.4.1-2.2z"/><path d="M24.5 23a5 5 0 0 0-.6-1.2l-.8-1c-.2-.3-.7-.8-1.3-1.2a7.4 7.4 0 0 0-3.3-1c.5 0 1.2.5 1.5.8.7.7 1 1.4 1.2 2.2 0 .2 0 .4-.2.4l-.2-.3c-.1-.4-.5-1.5-1-2a4 4 0 0 0-1.4-.9h-.2.2l.7.7.3.6c0 .4 0 .7-.2 1l-.3.7c-.4 1 0 2 .3 2.3l.2.3.6.5c.2.2.5.3.7.3l.3.2c.2 0 .4.3.5.5l.1.3v.4c0 .1-.3.3-.5.3h-.5c.1.2.8.3 1.5.3a3 3 0 0 0 1.8-1c.6-.7 1-2 .6-3.1zm2.5-8a3.5 3.5 0 0 0-2.9-1.4l-1.4.2-1.1.5a7.3 7.3 0 0 0-3.5 4V18c.3-.4.9-1 1.3-1.2.9-.4 1.6-.5 2.4-.5.2 0 .3.1.3.2s-.1.2-.3.2c-.4 0-1.6 0-2.3.5-.6.4-1 .7-1.1 1l-.2.2.2-.1c.1-.2.5-.4.8-.6l.7-.1c.4 0 .6.3.9.5l.6.5c.8.6 1.9.5 2.3.3l.3-.1.7-.4.5-.6.2-.3.6-.3c.2-.1.2 0 .4 0h.3l.2.6v.5s.4-.7.5-1.3a3 3 0 0 0-.4-2z"/></g><path d="M17.8 12.6l-.4.6-.6-.2.4.5-.3.6.6-.2.4.5v-.7l.6-.2-.7-.2zm-4.6 4l-.3.6-.7-.1.4.5-.3.6.6-.3.5.5v-.7l.5-.2-.6-.2zm10.4-.1l-.7-.2v-.6l-.4.5-.6-.1.4.5-.4.6.7-.3.4.5v-.6l.5-.3zM15.7 22l-.3.5-.7-.1.5.5-.3.6.6-.3.4.5V23l.5-.2-.6-.2zm5.8-.5l-.4.5-.6-.2.4.6-.4.5.7-.2.4.5v-.7l.6-.2-.7-.2z" fill="#DE2910"/></svg>