<svg xmlns="http://www.w3.org/2000/svg" viewBox="0 0 36 36"><path fill="#007934" d="M36 27a4 4 0 0 1-4 4H4a4 4 0 0 1-4-4V9a4 4 0 0 1 4-4h28a4 4 0 0 1 4 4v18z"/><path fill="#FFE000" d="M0 13h36v10H0z"/><path fill="#D52B1E" d="M32 5H4a4 4 0 0 0-4 4v4h36V9a4 4 0 0 0-4-4z"/><path fill="#FFF" d="M12.9 16.3l.4.6h.5l-.2-.3-.7-.3zm.7-.5l.4.6h.5l-.2-.3-.7-.3zm.7-.6l.2.7.5.1-.1-.3-.6-.5z"/><path fill="#A05A2D" d="M14 21.5h-.2v-.1l2.5-1.3h.2v.1L14 21.5zm.4.5v-.2l2.3-1.5v.1L14.5 22z"/><path fill="#A05A2D" d="M15 22.4h-.2v-.1l1.9-2.1c.1 0 .1 0 0 .1l-1.8 2z"/><path fill="#A05A2D" d="M17.3 20.7l-.5 1.2-.1-.1-.2.3-.6-.3.7-1.5z"/><path fill="#D52B1E" d="M17.6 22.5l.4-2V19l-3-2.8-.2.6-.4-.3-.1.7-.5-.3-.2 2.4c0 .8 0 2 .8 2.2 1.6.3 2.8-.9 2.8-.9l.4.4-.2 1.1c0 .3.2.5.2.5z"/><path fill="#FFE000" d="M15.6 16.6l-.2.5-.3-.1s-.6 3.4.5 3.6c1 .3 1.2-.2 1.2-.2l-.6-.7-.3.2s-.2-.5-.2-1.2v-1.3l.3.2V17l-.4-.5z"/><path fill="#007934" d="M16.7 17.7L16 17v.5l-.3-.2-.1 1v1.3s.5.2.7 0c.3-.1.4-2 .4-2z"/><path fill="#E8A30F" d="M16.5 19.6c-.6.2-1.7.6-1.4 1.1.3.5 1.1.3 1.7-.3.5-.5-.3-.8-.3-.8z"/><path fill="#FFF" d="M23.1 16.3l-.4.6h-.5l.2-.3.7-.3zm-.7-.5l-.4.6h-.5l.2-.3.7-.3zm-.7-.6l-.2.7-.5.1.1-.3.6-.5z"/><path fill="#A05A2D" d="M22 21.5h.2v-.1L19.6 20h-.2v.1l2.5 1.3zm-.4.5v-.2l-2.3-1.5c-.1 0 0 .1 0 .1l2.3 1.6z"/><path fill="#A05A2D" d="M21 22.4h.2v-.1l-1.9-2.1c-.1 0-.1 0 0 .1l1.8 2z"/><path fill="#A05A2D" d="M18.7 20.7l.5 1.2.1-.1.2.3.6-.3-.7-1.5z"/><path fill="#D52B1E" d="M18.4 22.5l-.4-2V19l3-2.8.2.6.4-.3.1.7.5-.3.2 2.4c0 .8 0 2-.8 2.2-1.6.3-2.8-.9-2.8-.9l-.4.4.2 1.1c0 .3-.2.5-.2.5z"/><path fill="#FFE000" d="M20.4 16.6l.2.5.3-.1s.6 3.4-.5 3.6c-1 .3-1.2-.2-1.2-.2l.6-.7.3.2s.2-.5.2-1.2v-1.3l-.3.2V17l.4-.5z"/><path fill="#007934" d="M19.3 17.7l.7-.6v.5l.3-.2.1 1v1.3s-.5.2-.8 0c-.2-.1-.3-2-.3-2z"/><path fill="#E8A30F" d="M19.5 19.6c.6.2 1.7.6 1.4 1.1-.3.5-1.1.3-1.7-.3-.5-.5.3-.8.3-.8z"/><path fill="#D52B1E" d="M16.3 15.8c.2.2.2.5 0 .7-.2.1-.5 0-.6-.1a.5.5 0 0 1 0-.7c.2-.1.5 0 .6.1z"/><path fill="#E7E7E7" d="M19.8 15.8c-.2.2-.2.5 0 .7.1.1.4 0 .6-.1.2-.2.2-.5 0-.7-.2-.1-.5 0-.7.1z"/><path fill="#007934" d="M19.1 13.5c-.1 0 .3.7.2 1.4-.1.8-1.3 1.3-1.3 1.3s-1.2-.5-1.3-1.2c0-.8.3-1.4.2-1.5-.1-.1-.9.5-1 1.2 0 .7.7 1.8 1.2 2l.9.3 1-.3c.4-.2 1-1.3 1-2s-.8-1.3-.9-1.2z"/><path fill="#FFF" d="M18 16.2s.1-.4 1-.7l1.8-.4c.2 0-1.2-.6-1.5-.6-.4 0-.8 0-.8.3 0 .2-.2.1-.5.2-.3 0-.5-.3-.7-.5 0-.2-.6 0-.9 0-.3 0-1.3.6-1.3.6l2.1.5c.4.1 0 .8 0 1-.1.2.6 0 .8-.4z"/><path d="M18 16.2s.1-.4 1-.7l1.8-.4-1.4-.5c-.4 0-.6 0-.7.2 0 .3-.4.1-.7.2-.3 0-.7 0-.8-.3-.1-.2-.4-.1-.6-.1l-1.5.5s1.8.3 2.1.5c.4.1 0 .8 0 1-.1.2.6 0 .8-.4z"/><path fill="#00A6DE" d="M15.8 18.7c0-1.4 1-2.4 2.2-2.4 1.2 0 2.2 1 2.2 2.4 0 1.3-1 2.3-2.2 2.3-1.2 0-2.2-1-2.2-2.3z"/><path fill="#E8A30F" d="M16.4 18.7c0-1 .7-2 1.6-2s1.6 1 1.6 2-.7 1.8-1.6 1.8-1.6-.8-1.6-1.8z"/><path fill="#D52B1E" d="M17.3 17.8a.7.7 0 1 1 1.4 0 .7.7 0 0 1-1.4 0z"/><path fill="#007934" d="M18 20.5c.8 0 1.5-.7 1.6-1.7-.5-.2-1.4-1-1.6-1-.2 0-.5.3-.9.6l-.7.4c0 1 .8 1.7 1.6 1.7z"/><path fill="#E8A30F" d="M18.2 15.1c0 .1-.2.2-.5.2-.2 0-.4 0-.4-.2l.4-.2c.3 0 .5.1.5.2z"/><path fill="#FFF" d="M17.2 19.6h.5l.1-.4.2.2-.2.6h-.5z"/><path fill="#B37D0A" d="M18.4 20c0 .1 0 .3-.2.3s-.2-.2-.2-.4.1-.3.2-.3.2.1.2.3zm.3.3v-1.1 1z"/><path fill="#32B266" d="M19 19.1c0 .2-.1.3-.3.3-.2 0-.4-.1-.4-.3 0-.2.2-.3.4-.3s.3.1.3.3z"/></svg>