<svg xmlns="http://www.w3.org/2000/svg" viewBox="0 0 36 36"><path fill="#ED1C23" d="M36 27a4 4 0 0 1-4 4H4a4 4 0 0 1-4-4V9a4 4 0 0 1 4-4h28a4 4 0 0 1 4 4v18z"/><path fill="#034EA2" d="M0 17h36v7H0z"/><path fill="#FD0" d="M36 17V9a4 4 0 0 0-4-4H4a4 4 0 0 0-4 4v8h36z"/><path fill="#FD0" d="M23 19a2 2 0 0 1-2 2h-6a2 2 0 0 1-2-2v-3c0-1.1.9-2 2-2h6a2 2 0 0 1 2 2v3z"/><path fill="#034EA2" d="M22 18c0 1.1-.9 3-2 3h-4c-1.1 0-2-1.9-2-3v-1c0-1.1.9-2 2-2h4a2 2 0 0 1 2 2v1z"/><path fill="#ED1C23" d="M21 18c0 1.1-.9 3-2 3h-2c-1.1 0-2-1.9-2-3v-1c0-1.1.9-2 2-2h2a2 2 0 0 1 2 2v1z"/><path fill="#6DBE46" d="M20 14.1c-.2.5-1 .9-2 .9s-1.8-.4-2-.9c-1.2.2-1 .5-1 .9 0 .6.8 1 3 1s3-.4 3-1c0-.4.2-.7-1-.9z"/><path fill="#A6D388" d="M19 19a1 1 0 1 1-2 0v-3a1 1 0 0 1 2 0v3z"/><path fill="#662113" d="M21.5 12l1.2.1c-.6-1-2.7-2.1-4.7-.1-2-2-4.1-1-4.7.1l1.2-.1c2 0 3.5.9 3.5 2 0-1.1 1.6-2 3.5-2z"/><ellipse fill="#8ED2E7" cx="18" cy="17.5" rx="2" ry="3.5"/><path fill="#6DBE46" d="M17.5 17l-1.5.3v.2c0 2 .9 3.5 2 3.5 1 0 1.8-1.3 2-3-.7-.6-1.5-1-2.5-1z"/><ellipse fill="#FFCC4D" cx="18" cy="22" rx="3" ry="1"/><path fill="#034EA2" d="M20 23c0 .8-.9 1-2 1s-2-.2-2-1 .9-2 2-2 2 1.2 2 2z"/><path fill="#ED1C23" d="M17 23c0-.8.4-2 1-2s1 1.2 1 2-.4 1-1 1-1-.2-1-1z"/><path fill="#CCD6DD" d="M17 11c0-.6.4 0 1 0s1-.6 1 0-.4 1-1 1-1-.4-1-1z"/><ellipse fill="#FFF" cx="18" cy="17.5" rx="1" ry=".5"/><ellipse fill="#C1694F" cx="13" cy="15.5" rx="1" ry=".5"/><ellipse fill="#C1694F" cx="14" cy="13.5" rx="1" ry=".5"/><ellipse fill="#C1694F" cx="23" cy="15.5" rx="1" ry=".5"/><ellipse fill="#C1694F" cx="22" cy="13.5" rx="1" ry=".5"/></svg>