<svg xmlns="http://www.w3.org/2000/svg" viewBox="0 0 36 36"><path fill="#D01C3A" d="M36 27a4 4 0 0 1-4 4H4a4 4 0 0 1-4-4V9a4 4 0 0 1 4-4h28a4 4 0 0 1 4 4v18z"/><path fill="#0020A8" d="M4 5a4 4 0 0 0-4 4v18a4 4 0 0 0 4 4h8V5H4z"/><path fill="#FEDF00" d="M12 5h12v26H12z"/><path fill="#C7B37F" d="M23 19.6c-.1-.4-.5-.3-.5-.2 0 0-.6-.4-.2-1 0 0 .8 0 .4-.6 0 0 .6-.4.7-1.2 0-.8-1-1.3-1.3-1 0 0 0-.3-.2-.3s-.2.3-.2.3 0-.6.3-.9c.4-.3 1-1-.4-1.5-1.4-.4-1.5.5-1.3.7 0 0-.3.2-.8.2-.4 0 0-.5 0-.7.1-.2 0-1-.4-1-.5.1-.6.3-.7.4h-.8c-.1-.1-.2-.3-.7-.3-.5 0-.5.7-.4.9 0 .2.4.6 0 .7-.5 0-.8-.2-.8-.2.2-.2.1-1.1-1.3-.7-1.5.5-.8 1.2-.4 1.5.3.3.3.8.3.8l-.2-.2c-.2 0-.2.4-.2.4-.4-.4-1.3.1-1.3 1 0 .7.7 1.1.7 1.1-.4.6.4.5.4.5.4.7-.2 1.1-.2 1.1 0-.1-.4-.2-.5.2-.2.5.3.7.3.7-.6.8-.2 1.5.4 2 .6.4 1.7.4 2.3.4.6 0 .7.4.7.4-.4.4.2.7.2.7.2.5.7 0 .7 0l.4.3.4-.3s.5.5.7 0c0 0 .6-.3.2-.7 0 0 0-.3.7-.4.6 0 1.7 0 2.3-.4.6-.5 1-1.2.4-2 0 0 .5-.2.3-.7z"/><path fill="#D01C3A" d="M17.8 17.6v-3h-3v3h3z"/><path fill="#FEDF00" d="M16 16.5l-1 1h.2l.7-.7zm1.4-1.2s.4.2.4-.2-.3-.3-.3-.3c-.1 0-.5 0-.5.2 0 .1.2.2 0 .3l-.2.2.1.2.3-.4.1-.4c.2 0 .3 0 .3.2l-.1.1-.1.1z"/><path fill="#FFF" d="M16.7 17s0 .3.2.3.3-.6.6-.6.4.6 0 .7v-.2s.2-.2 0-.3l-.2.3s-.2.3-.4.3c-.3 0-.4-.3-.4-.5 0-.3.2 0 .2 0zm-.6 0s-.1.3-.3.3c-.2 0-.3-.6-.6-.6s-.4.6 0 .7v-.2s-.2-.2 0-.3l.2.3s.2.3.4.3c.3 0 .4-.3.4-.5 0-.3-.1 0-.1 0z"/><path fill="#FFF" d="M16.4 14.8l.9 1.1-.5 1.2-.4-.1a1 1 0 0 0-.5 0l-.4-1.1.9-1.1z"/><path fill="#FEDF00" d="M16.5 15.2l.6.7-.3 1-.3-.2zm-.2 0l-.6.7.3 1 .3-.2zm-1.4 2.7v1.9c0 1.2.8 1.3 1.6 1.2.6-.2 1.3 0 1.3 0v-3h-3z"/><path d="M16.5 21v-3h-.4v3h.4zm1 0v-3H17v3h.5zm-1.8 0v-3h-.5v2.8l.5.2z" fill="#D01C3A"/><path fill="#FEDF00" d="M18.2 17.6v-3h3v3h-3z"/><path fill="#D01C3A" d="M18.5 14.7h.5v3h-.5zm1 0h.4v3h-.5zm.8 0h.5v3h-.5z"/><path fill="#FEDF00" d="M21.1 18v1.8c0 1.2-.8 1.3-1.6 1.2-.6-.2-1.3 0-1.3 0v-3h3z"/><path fill="#D01C3A" d="M18.6 18.4l.3-.2h.4v.2h.9c.4-.1.5.2.4.3-.2 0 0 .3 0 .5l-.3.2c.1-.1 0-.4 0-.4l-.1.3H20s.2-.2 0-.3h-.4l-.1.4s-.1 0 0-.1v-.4l-.3.1.1.2c0 .1-.2.2-.2 0 0 0-.2-.1-.1-.2l.2-.2-.2-.1c-.1-.2-.2-.1-.4-.1v-.2zm0 1.4l.3-.3h.4v.2h.9c.4 0 .5.2.4.3-.2 0 0 .4 0 .5 0 .2-.3.4-.3.3v-.5l-.1.3c0 .1-.3.1-.2 0 0 0 .2-.2 0-.2 0-.1-.4-.1-.4 0l-.1.4s-.1 0 0-.2v-.3h-.3l.1.3s-.2.2-.2 0c0-.1-.2-.2-.1-.3l.2-.1-.2-.2-.4-.1v-.1z"/><path fill="#AF9167" d="M14.6 21.2l1.9.5c.2 0 0 .4-.2.4l-1.6-.4v-.5zm2.3.5l1 .1h.6l.3.4H17l-.1-.5zm2.2 0l1-.2c.5 0 1-.3 1.2-.3.2 0 .3.2.3.3l-1 .5-1.5.2s-.2-.4 0-.5z"/></svg>