<svg xmlns="http://www.w3.org/2000/svg" viewBox="0 0 36 36"><path fill="#00247D" d="M0 9v4h5.6zm4.7 22H13v-5.8zM23 25.2V31h8.3zM0 23v4l5.6-4zM31.3 5H23v5.8zM36 27v-4h-5.6zm0-14V9l-5.6 4zM13 5H4.7l8.3 5.8z"/><path fill="#CF1B2B" d="M25.1 23l9.8 6.8c.4-.5.8-1 1-1.7L28.5 23H25zM13 23h-2.1L1 29.8a4 4 0 0 0 2 1L13 24v-1zm10-10h2.1L35 6.2a4 4 0 0 0-2-1L23 12v.9zm-12.1 0L1 6.2a4 4 0 0 0-1 1.7L7.5 13H11z"/><path fill="#EEE" d="M36 21H21v10h2v-5.8l8.3 5.8h.7a4 4 0 0 0 2.9-1.2L25 23h3.5l7.2 5 .2-1-5.6-4H36v-2zM0 21v2h5.6L0 27c0 1 .4 2 1.1 2.8L11 23h2v1L3 30.8l1 .1h.7l8.3-5.8V31h2V21H0zM36 9c0-1-.4-2-1.1-2.8L25 13h-2v-1l10-6.9a4 4 0 0 0-1-.1h-.7L23 10.8V5h-2v10h15v-2h-5.6L36 9zM13 5v5.8L4.7 5H4a4 4 0 0 0-2.9 1.2L11 13H7.4L.2 8 0 9l5.6 4H0v2h15V5h-2z"/><path fill="#CF1B2B" d="M21 15V5h-6v10H0v6h15v10h6V21h15v-6z"/></svg>