<svg xmlns="http://www.w3.org/2000/svg" viewBox="0 0 36 36"><path fill="#EEE" d="M36 27a4 4 0 0 1-4 4H4a4 4 0 0 1-4-4V9a4 4 0 0 1 4-4h28a4 4 0 0 1 4 4v18z"/><g fill-rule="evenodd" clip-rule="evenodd" fill="#5C913B"><path d="M13 22.1l-.1.1c-.4-.1-.7-.3-.9-.6a1 1 0 0 1-.1-.3c.4 0 .8.3 1 .6v.2zm8.4.1l.1-.3c.2-.3.6-.6 1-.7v.1l-.3.6c-.2.1-.5.3-.8.3zm1 .2v.1c-.4.3-.7.5-1.1.4H21v-.2l.5-.2a1.9 1.9 0 0 1 .9 0zm-10 0c.3 0 .6 0 .9.2l.1.2h-.1l-.5.1c-.3 0-.5-.2-.7-.4l.3-.1zm1.1-.4v.3h-.1a.8.8 0 0 1-.3-.4c0-.3-.1-.5 0-.8 0-.1 0-.1 0 0 .3.2.4.5.4 1zm7.4 0c0-.4.1-.7.4-1 .1.5 0 .9-.2 1.2l-.1.1-.1-.2V22zm-2.2.6c0 .6-.3 1-.7 1.3 0-.4.1-1 .7-1.3zm-2.3 1.3c-.4-.3-.7-.7-.6-1.2 0 0 0-.1 0 0 .4.1.5.5.6.9v.3zM20 22v.6l-.3.6c-.1.1-.1.1-.2 0v-.5a1.4 1.4 0 0 1 .5-.7zm-5.6 0c.3.2.6.8.5 1.1v.2l-.2-.1c-.3-.4-.4-.8-.3-1.2zm5.6 1.4c.4 0 .6.2.9.4v.1a1 1 0 0 1-.9 0l-.3-.3v-.1h.3zm-5.6 0h.3v.2l-.7.4h-.4c-.1 0-.1-.1 0-.2a1.1 1.1 0 0 1 .8-.4zm5.8.9c-.4.1-1 .1-1.2-.3.4-.2.8 0 1.2.3zm-6 0a1.2 1.2 0 0 1 1.2-.4c.1 0 .1 0 0 .1-.1.3-.4.4-.7.4a1 1 0 0 1-.5-.1zm1.4-1v.3c-.3-.1-.4-.3-.5-.5v-.7c.3.2.4.5.5.8v.1zm3.2 0V23l.5-.5v.5l-.4.7h-.1v-.3zm.6 1.4h-.6a1 1 0 0 1-.5-.5c.5 0 .8.1 1.1.5zm-4.4 0l.2-.2c.2-.2.5-.4.9-.4v.1c-.1.4-.4.5-.8.5H15zm5.4-1.9a.7.7 0 0 1-.1-.6l.3-.6c.2.1.2.3.1.4 0 .3-.1.6-.3.8zm-6.6-1.2c.3.2.5.9.3 1.2-.4-.3-.6-1-.3-1.2zm-.5 1.8h-.5v-.2c.2-.2.4-.2.6-.2l.5.2-.2.2h-.4zm7.8 0h-.5l-.2-.2h.2l.6-.2c.2 0 .3 0 .4.2v.1l-.5.1z"/><path d="M18 24.6l-.7-.2H17c-.2 0-.5 0-.7.2.1-.2.3-.3.5-.3L16 24h.2l.8.2h.4l1-.3-1 .4c.2 0 .4.1.5.3z"/></g><path fill-rule="evenodd" clip-rule="evenodd" fill="#F4900C" d="M25.8 11.1h-.2c-.2.2-.5.4-.8.4l-.3.1c-.1 0-.2 0-.3.2-.1.2-.2.3-.4.3h-.2c-.1.2-.3.2-.4.2H23l-.2.3-.2.2-.6.2-1.1.5h-.5c-.1 0-.2 0-.3.2h-.2c-.2.3-.4.3-.6.3H19l-.7.2h-1.6l-.3-.1c0-.1-.1-.1-.2 0h-.8l-.9-.3V15c0 .4-.2.6-.5.8h-.4l-.6-.3a1 1 0 0 0-.8 0H12v.1l-.2.3-.4.5-.3.2h-.5l-.4-.4c-.1.1-.2.3 0 .4v.3h.1v.7l.1.1v.3c0 .2.2.2.3.3h.1l.2.7v.1l.4.3.3.1h.2l.4.2.1.1.5.2h.2l.4-.1h.7c.2 0 .3.2.4.4v.3h.6c-.1-.2-.2-.3-.1-.4 0-.3.2-.4.4-.5l.3-.2h.8l.3-.1h.5l.1-.1.3-.2c.2-.2.4-.2.6-.2l.2-.1c.1-.3.3-.3.5-.2l.1-.1s0-.2.2-.2v-.8c0-.3.3-.5.5-.5h.8l.2.2c0 .1.2 0 .2 0 .1 0 .2 0 .1-.1l.3-.1h.5l.4.1v-.3l-.3-.3v-.1l-.3-.1v-.1c0-.2-.2-.3-.3-.5a1 1 0 0 1-.3-.8v-.3c.2-.1.2-.2.2-.3l.5-.2h.2c.2 0 .2 0 .3-.2v-.2l.7-.6.4-.2.3-.1.1-.1c.2-.2.3-.4.6-.5l.1-.1c0-.1 0-.2.2-.3.2-.1.5-.4.8-.4l.1-.1V11h.1z"/></svg>