<svg xmlns="http://www.w3.org/2000/svg" viewBox="0 0 36 36"><path fill="#FF4E11" d="M1.2 29.8A4 4 0 0 0 4 31h28a4 4 0 0 0 4-4V9a4 4 0 0 0-.8-2.4l-34 23.2z"/><path fill="#FFD521" d="M32 5H4a4 4 0 0 0-4 4v18a4 4 0 0 0 1.2 2.8l34-23.2A4 4 0 0 0 32 5z"/><path fill="#FFF" d="M32 10.5c-.4 0-.6.3-.8.3h-.4l.4-.6 1-.3.2-.3c-.4.3-1 .1-1.4.2-.3 0-.6.4-.6.4l.5-1c0-.3 0-.9.5-1.2.4-.2.1-.6.1-.6l-.3.5c-.3.2-.6.1-.6.6 0 .4.1.4-.1.6l-.5.6c-.3.6-.5 0-1.1.2s-1-.4-1.6-.3l-2.2-.3c-.5-.2-.3-.4-1.5-1s-2 0-1.5 0l.9.1c-.4 0-.7.2-.7.2s.7.1 1.2.6c.6.5 0 .5-.7 0s-1.5-.5-2.2-.4c-.6 0-.4.3 0 .2.3 0 1.1.2 1.8.5.6.2 0 .3 0 .3-1.5-.9-2.1-.2-1.7-.3.3-.2.8.2 1.4.5s-1 .2-1 .2l-1.4-.4c-.7 0-1.3.6-1 1 .2.3.7 0 .7 0-.5 0-.4-.4 0-.5a6 6 0 0 1 2 .3c.3.2.5.7-.5.3-1-.5-.7 0-.7 0-1 0 .5.6-.1.4-.6-.1-1.3.1-2 .1-.5 0-.7.6-.7.6l.8-.3c.4-.1 1.6.2 1.6.2-.5.4-.5 1.3-.5 1.3-.5.1-1 1-1 1 .2-.3.9-.3.9-.3s.1.2-.2.6c-.3.4-.2.9-.2.9l.3-.6c.2-.2.7-.2.7-.2-.2.5.6.8.6.8-.3.5.2 1 .1 1l-.8.2s1 0 .5.1c-.6.2-1.6-.4-1.6-.4l-1.2-.5s.6.5 0 .4c-.6 0-1.2.2-1.7-.1-.5-.4-1.3-.6-1.2-.2l.4.6c-.9-.2-.4.6-1 .5-.8 0-.2.6-.9.4-.6-.2-1.2.5-1.2.5l.9.1c-.3.1-.2.6-.2.6-.6.2-.4 1.1-.4 1.1-.6 0-.7.4-.9.6-.2.3-.7.3-.7.3.4.2 1 0 1.3 0-.2.1-.2.8-.2.8-.4 0 0 .7-.1.6l-.6.3-.6.3c.2.2.6.2.6.2s-.3.6-.7.7l-1.6.4c-.3 0-.8 0-1.4-.2H5.7c-.4 0-.7.4-.7.4h.7c.3 0 .4.3.7.1.4-.1 1 .2 1 .2l-.5.3-1.2.3c-.4.1-.8.7-.5.4.3-.3.5 0 1-.1l.8-.1s-.3 0-.5.2a2 2 0 0 1-1.2.5c-.3 0-.9.2-1.2.6-.3.4-.7.5-.7.5s.2.3.6 0c.4-.3.4-.4 1-.5.5 0 1-.3 1-.3-.2.3-.4.6-.9.6a4 4 0 0 0-1.5 1l-.8.5c.5.3.7 0 1.2-.4.5-.3.8 0 1.4-.2.6-.2.5-.7.7-.7.2 0 .7 0 .9-.3.1-.2 0-.4.4-.4.3 0 .5-.2.5-.2l-.5.6c.4.1.7-.3 1.2-.6l.7-.2-.5.5c-.3 0-.7.5-.7.5.2-.4 1.1-.3 1.5-.6l1-1c.3-.1.6-.5 1.1-1 .5-.4 1.4-.3 1.4-.4v.7h-.8l.5.5c-.3-.2-.8.5-.8.5h.8l.2.4c.3-.6.4-.4.4-.4.3.3.4 1 .4 1s-.4 0-.9.5c-.4.5.4 1.4.4 1.4v.7c.1.4.9.8 1.6.6.8-.3.7-1.3.7-1.3s.3-.2.2-.8c0-.5-.3-.8-.3-.8s.5-.2.8.2c.3.3.4 1 .4 1s.2-1.4-.2-1.7-1.5-.3-1.5-.3c0-.6-.5-.9-.6-1.2v-1.3h.7s0 .3.3.6c.5.3 1.2 0 1.2 0s.8.2 1.2-.5c.3-.7-.4-1.3-.4-1.3-.1-1.1-1.7-.5-1.7-.5.1-.7.9-.7.9-.7s-.9-.5-1.4-.3c-.5.2-.3 1.4-.7 1.3s-.4-1.2 0-2.1c.2-1 1.8-1 3.3-.4 1.5.6 3.7.8 3.7.8 0 .2-.5.7-.5.7l-.6-.3.4.5c-.2.4-.6.6-.6.6.5.3 1-.2 1-.2v.7l.5-.6s.8.6 1.5.8c.7.3 2 .5 2 .5s-.4.3.1 1c.5.8 1.6 1 1.6 1s.8.4 1.6-.3c.8-.6.1-1.9.1-1.9 0-1.4-1.5-1-1.5-1 .3-.6 1-1 1-1-1.1-.7-1.6.7-2.5 1-.9.3-2.5-.6-2.5-.6-.1 0 0-.1 0-.4 0-.3.8-1 1.1-1.7.4-.7.3-2 .3-2 .5-.4 1.1 0 1.1 0 0 .4-.3.6-.3.6.4 0 .5-.3.5-.3-.1.6.4 1.2.4 1.2l.2-.8.5.5-.3-1c1 0 2-.7 2-.7s.4.7 1.4.7c1 0 2-1 2-1.5s-1-1.1-1-1.1.4-.8-.9-.8-1.6 1.6-1.6 1.6-.6-.3-1.3 0c-.7.1-1.9-.5-2.6-.8-.7-.4-1.8-1.4-1.8-1.4l.2-.9s1 .1.8.2c-.4.2-1.2.4-.5.4.6 0 1.3-.2 1 0-.1.3-.9.8-.6.8s.7-.4.9-.4h1l.4-.1c.5.2 1.2.9 1.6 1.2.4.5.7-.1.9-.4l-.5-.7.1-.2h.1l.6.2v1c.2-.2.2-.6.3-1l.9.3c.7 0 1.1-.2 1.8-.3.6 0 .7.5.7.5s.2-.2-.1-.5c-.4-.4-1-.4-1-.4 0-.6-.6-.5-.6-.5.6.3 0 .6 0 .6 0-.3-.6-.5-.6-.5s.4.2.1.5c-.1.2-.4.2-.7.1l.2-.6c.2-.4-.1-.8-.1-.8l.3-.5 1.3-.4c.3-.1.6-.2 1.3-.2.7 0 1-.4 1-.4-.4.2-1.3 0-1.7 0zM27 12c.3-.1.4 0 .4 0l.2.5.3-.6.3.3-.2.3h.7v.2l-.6.4a9 9 0 0 1-1.5-.6l.4-.5zm.8 1.3l-.1.2-.5-.3-.3-.2 1 .3zm.7 0l.2-.1h-.2zm.5 0c0-.3.3-.4.3-.4v.5H29z"/></svg>