<svg xmlns="http://www.w3.org/2000/svg" viewBox="0 0 36 36"><path fill="#00247D" d="M32 5H4a4 4 0 0 0-.6 0v1.8H.7A4 4 0 0 0 0 9v18a4 4 0 0 0 4 4h28a4 4 0 0 0 4-4V9a4 4 0 0 0-4-4z"/><path fill="#CDAD57" d="M26.7 10l-.7-.4a.6.6 0 0 1-.2-.8c.1-.3.5-.4.4-.1 0 .2-.2.5 0 .6.2 0 .1-.4.3-.3.1 0-.2.5 0 .5.1 0 0-.5.2-.4s.2.5 0 .6 0 .2.2.3c0 .1-.1.1-.2 0zm.8 0l.6-.4c.3-.2.4-.5.2-.8-.1-.3-.5-.4-.4-.1s.2.5 0 .6-.1-.4-.3-.3c-.1 0 .2.5 0 .5-.1 0 0-.5-.2-.4-.2 0-.2.5 0 .6.1 0 0 .2-.2.3h.3z"/><path fill="#923F00" d="M27 10.9c0-.4-.1-.7-.4-.6s-.5 0-.5-.2.4-.3.8-.3 1 .2 1 .3l-.6.2s.1.4.9.4 1.4.2 1.2 1.2-.1 1-.3 1-.1-.4 0-.6-.2-.7-.2-.4-.3.8-.5.8 0-.8 0-1-.4-.1-.5.2l-.1.9c-.2.1-.2-.3-.2-.6s-.2-.7-.2-.3 0 .9-.2 1 0-.6 0-.9-.4-.7-.3-1.1z"/><path fill="#FFF" d="M27.5 15.6c-.3.3-1.3.8-1.6-.1.9.4 1.5-.4 1.5-.4l.1.5zm-1.4-2.2c-.4-1.3-1.3-1.4-1.3-1.4s0 .4.2.7c-.7 0-1.4-.4-1.4-.4-.2.6 1 1.1 1.6 1-.3.4 0 .7.3.8-.1-.4.4-.7.5-.4s.1-.3.1-.3z"/><path fill="#1500FF" d="M26.3 15.6c-.8 0-1.4-1.2-1.4-1.6l.9.5.2-1.4c.4.3.5 1.2.4 1.6.5 0 .6.4.4.7-.2-.4-.4 0-.5.2z"/><path fill="#FFF" d="M28.7 15.6c.3.3 1.3.8 1.7-.1-1 .4-1.5-.4-1.5-.4l-.2.5zm1.4-2.2c.4-1.3 1.4-1.4 1.4-1.4s0 .4-.2.7c.7 0 1.3-.4 1.3-.4.2.6-.9 1.1-1.6 1 .3.4 0 .7-.3.8.2-.4-.3-.7-.4-.4-.1.3-.2-.3-.2-.3z"/><path fill="#1500FF" d="M30 15.6c.8 0 1.4-1.2 1.4-1.6l-1 .5s0-1.1-.2-1.4c-.4.3-.5 1.2-.3 1.6-.5 0-.6.4-.5.7.3-.4.5 0 .5.2z"/><path fill="#656263" d="M28.2 17.4c-1.3 0-1.7-.6-1.6-1s.5-.2.7-.3c.1-.1.1-.8-.2-1.1-.3-.4-.5-.7-.4-.9-.2-.3.1-.4.2-.8 0-.4.2-.7.3-.7.1 0 .2.3.3.2 0 0 0-.3.3-.4.2 0 .2.3.3.3 0 .1.1-.3.3-.3.3 0 .3.3.4.4.1 0 .1-.3.3-.2s.1.5.3.7c.1.2.4.6.2.8.2.2 0 .4-.3.7-.2.2-.6.7-.4 1.2.2.4.9 0 1 .2.2.3.1 1.2-1.7 1.2z"/><path fill="#FFF" d="M26.6 13.9c0-.4 1-.5 1.5-.5s1.6.1 1.6.5-.8 0-1.6 0-1.5.3-1.5 0z"/><path fill="#1500FF" d="M27.6 13.4l-.5.1v.5h.5a.5.5 0 0 1 0-.6zm.5 0v.5h.6l.1-.2c0-.1 0-.2-.2-.3h-.5zm1 .6c.3 0 .6.1.6-.1s-.3-.3-.6-.4v.5z"/><path fill="#ADB0B2" d="M26.7 14.3c0-.2 1.4.8 1.4.8l1.6-1c0 .2-1.6 1.3-1.6 1.3s-1.5-1-1.4-1.1z"/><path fill="#6A4C2D" d="M26.7 18.4c-.7.7-3.5 3-3.6 3.6-.2.5.2.6.6.3-.1.4.1.5.2.5s.6-.1.8-.5c.2.3.7.4.8.3l.1-.2s.1.5.3.4l.4-.3c.1 0 0 .3.3.2.2 0 .3 0 .5-.2 0-.2.3 0 .4 0l.4-1.2c.2-.5-1.2-2.9-1.2-2.9z"/><path fill="#FFF" d="M29.2 20.9l1.2.1c.2.1.4.3.8.3s1-.3 1.2 0 .3.7.5.8.9.3.2.3h-2.3l.2.2-1.4.1s-.8-.7-.8-1.2.4-.6.4-.6z"/><path fill="#00713D" d="M27.5 20.9c-.5.3-.3.7-.3.7l.2.6.3-.3v.4h.2l.2.5.3-.2.3.3c.2 0 .2-.3.2-.3s.3.3.5.2c.2 0 .4-.4.4-.4l-.3-.3v-.2l-.3-.3s.2-.1 0-.2-.8-1-1.7-.5z"/><path fill="#FFF" d="M30 17h-.2l-1.5 1-1.5-1h-.4v2.2a2.7 2.7 0 0 0 1.7 2.5h.4a3.1 3.1 0 0 0 1-.9c.3-.2.4-.5.5-.8l.2-.8V17H30z"/><path fill="#1E5AA6" d="M30.2 18l-.4-.6.3-.4h-.3l-1.5 1-1.5-1h-.3l.3.4-.4.6.4.6-.4.5.4.6-.3.3c.1.3.2.6.5.9l.3-.5.4.4-.4.4.8.5.2-.3.2.3.7-.5-.3-.4.3-.5.4.5.4-.8-.2-.3.4-.5v-.1l-.4-.5.4-.6zm-.6.6l-.4.4-.4-.4.4-.5.4.5zm-.7 1l.3-.4.4.5-.4.4-.3-.4zm-1.2-1l-.4.4-.3-.4.3-.5.4.5zm-.7 1l.3-.4.4.5-.4.4-.3-.4zm1 1.2l.3-.5.3.5-.3.5-.4-.5z"/><path fill="#016C00" d="M28.3 17.3a3 3 0 0 0-1.5-.3l1.5 4.2 1.5-4.2a3 3 0 0 0-1.5.2z"/><path fill="#8B9497" d="M24 17.6l.1-1.9c0-.4.3-.3.6-.4.3-.1.4.1.6.1.2 0 .4 0 .3.3l-.3.8.5 1.1c.3.5.6 1.2.3 2.2-.2 1-.4 1.3-.5 1.4-.1.1 0-.6-.1-1l-.2-.4s-.5.4-.6.9c-.2.5 0 .9.3 1 .3.3 1 .4 1 .5.1 0-.2.2-.6.1a4 4 0 0 1-2-.8c-.4-.4-1-1.1-.6-1.9.2-.4.5-.6.6-.7.1-.1.5-1 .5-1.3z"/><path fill="#FFF" d="M31.5 15.6c.4 0 1.2 2.1 1.3 3 .1 1 0 2.7-.5 2.8-.5 0-1-.2-1.2-1.1-.2-1 0-1.7 0-2.3s0-2.3.4-2.4z"/><path d="M31.4 15.6c0-.4.4-.5.9-.5.4.1.4.8.4 1.2 0 .3.7.2.7 2 0 1.7-.5 2.7-.4 3 .2.2.8.6.4.6s-.8-.3-1-.4 0-.5 0-1 .1-1.2-.1-1.1c-.3 0 0 1.3-.4 1.3s-.6-1-.6-1.9c0-.9.2-1 .5-1.2.2-.3 0-.4-.2-.7s-.2-.6.1-.7c.3-.2-.3 0-.3-.6z"/><path fill="#FFF" d="M31 17.1c-.4 0-.8.2-.8.3v.7l.8-.2V17z"/><path fill="#F66B01" d="M31.5 15.6c.1-.5-.8 0-.8.1s.7.4.8-.1z"/><path fill="#F8F001" d="M31.8 15.4c0-.2 1-.4 1.3-.3l-.4.2h.5c0 .1-.5.1-.4.2l.4.2c-.2 0-1.5-.1-1.4-.3z"/><path fill="#F66B01" d="M31.6 21.2c-.2 0-1 0-.7.2l.4.1s-.5.2-.3.3h1c.2 0 .4-.2.3-.3s-.3-.3-.7-.3z"/><path fill="#C11600" d="M25 25l1.4.4-.1 1s-.3-.3-1.5-.5c-.2-.4.3-.8.3-.8zm.2-1.6s0 .3-.4.7-1 .3-.9-.1c.4-.1.3-1 .7-1 0 .3 0 .5.6.4zm6.5 1.7a5 5 0 0 0-1.3.3l.1 1s.2-.3 1.5-.5c.1-.4-.3-.8-.3-.8z"/><path fill="#FFBC00" d="M31.5 24.2c.3-.4.6-.4.8-.8s-.1-.6-.6-.5c-.5 0-1 .8-1 .8s-1-.5-2.3-.5c-1.4 0-2.3.5-2.3.5s-.5-.8-1-.8c-.5-.1-.8.2-.6.5l.8.8c-.6.4-1 1.2-1 1.2l.5.5s.3-.5 1-1c.5.6.5 1.5.5 1.5s.1-.6.4-.9c0-.6-.2-1-.2-1s.8-.5 1.9-.5c1 0 1.9.5 1.9.5l-.2 1 .4 1s0-1 .6-1.6c.6.5.9 1 .9 1l.5-.5s-.5-.8-1-1.2z"/><path fill="#C11600" d="M31.5 23.4s0 .3.4.7 1 .3 1-.1c-.5-.1-.4-1-.7-1 0 .3-.1.5-.7.4z"/><path fill="#00247D" d="M19 18V5H3.4v1.8H.7L.5 7A4 4 0 0 0 0 9v9h19z"/><path fill="#EEE" d="M19 5h-2.3L12 8.3V5H7v2.6L3.4 5a4 4 0 0 0-1.7.7L6.4 9H4.7L1 6.4l-.3.4L3.8 9H0v5h3.9L0 16.8V18h3.3L7 15.4V18h5v-3.3l4.7 3.3H19v-2l-2.8-2H19V9h-2.8L19 7V5z"/><path fill="#CF1B2B" d="M11 5H8v5H0v3h8v5h3v-5h8v-3h-8z"/><path fill="#CF1B2B" d="M19 5h-1.5L12 8.9V9h1.6L19 5.2zm-17.3.7a4 4 0 0 0-.7.7L4.7 9h1.7L1.7 5.7zM6.4 14L.7 18h1.8L7 14.8V14zM19 17.8v-1.2L15.3 14h-1.7z"/></svg>