<svg xmlns="http://www.w3.org/2000/svg" viewBox="0 0 36 36"><path fill="#141414" d="M32 5H4a4 4 0 0 0-4 4v4.5h36V9a4 4 0 0 0-4-4z"/><path fill="#007A3D" d="M0 27a4 4 0 0 0 4 4h28a4 4 0 0 0 4-4v-4.5H0V27z"/><path fill="#EEE" d="M0 13.5h36v9H0z"/><path fill="#C4111B" d="M1.1 6.2A4 4 0 0 0 0 9v18c0 1 .4 2 1.1 2.8L12 18 1.1 6.2z"/><g fill="#C4111B"><path d="M17.9 18c0-1.7 1.2-3 2.8-3.4h-.6a3.5 3.5 0 1 0 .6 6.8A3.5 3.5 0 0 1 18 18z"/><path d="M19.1 20.1l1.5-1 1.5 1-.6-1.7 1.5-1h-1.8l-.6-1.8-.5 1.7h-1.9l1.5 1.1-.6 1.7z"/></g></svg>