<svg xmlns="http://www.w3.org/2000/svg" viewBox="0 0 36 36"><path fill="#F7E017" d="M36 27a4 4 0 0 1-4 4H4a4 4 0 0 1-4-4V9a4 4 0 0 1 4-4h28a4 4 0 0 1 4 4v18z"/><path fill="#141414" d="M36 27L0 19v-5l36 8z"/><path fill="#EEE" d="M36 22L0 14V9l36 8z"/><g fill="#CF1B26"><path d="M21.6 15c.4.6.7 1.4.7 2.3a4.4 4.4 0 1 1-8.1-2.4 5 5 0 0 0 3.7 8.6 5 5 0 0 0 3.7-8.6zm-11.9.5c.5.1.7.3.6.8 0 0 .3 0 .5.3s.4.5.7.6c.3.2.6.4.6 1v3c.2.3.1.8-.9.8s-1-.4-.9-.8l.3-.6v-2l-.5-.5c-.2-.2-.8-.9-.9-1.5 0-.7-.2-1.2.5-1zm16.3 0c-.6.1-.7.3-.7.8 0 0-.2 0-.4.3s-.3.5-.6.6c-.4.2-.5.4-.5 1v2.4l-.2.6c-.1.3 0 .8 1 .8s1-.4.9-.8l-.3-.6v-2l.4-.5c.3-.2.8-.9.9-1.5 0-.7.2-1.2-.5-1z"/><path d="M23.4 24.7s.4-.6 0-.7c-.3-.2-1 0-1 0s.5-.8 0-1.1c-.6-.3-1 .5-1.5.8-.5.4-1 .6-1.6.8-.5.2-1.3.2-1.3.2l-1.5-.2c-.6-.2-1.2-.4-1.7-.8s-.9-1.1-1.4-.8c-.6.3 0 1 0 1h-1c-.4.2 0 .8 0 .8-.9.1-.6.6-.6.6s.2-.2 1-.2 1.2.8 1.7.8.6-.5.6-.5c1 .8 2.9.8 2.9.8s1.8 0 2.8-.8c0 0 0 .5.5.5S22 25 23 25c.8 0 1 .2 1 .2s.2-.5-.6-.6zm-2.1-10.5c-.6-.2-1.3-1-2.1-1S18 14 18 14s-.5-.7-1.3-.7-1.6.8-2.2 1h-1.2c.2.6.9.7.9.7 0 .4.6.4.6.4.1.5 1 .2 1 .2s-.1.4.3.4c.5 0 1.2-.8 1.2-.8l-.2.4c0 .2.4.2.4.2-.3.3.2.6.2.6l.3-.2.1.2s.5-.3.2-.6c0 0 .3 0 .4-.2l-.2-.4s.7.7 1.1.8c.5 0 .4-.4.4-.4s.9.3 1-.2c0 0 .5 0 .6-.4 0 0 .7-.1.8-.7h-1.1zM17 11.7c0-.1.4-.2.9-.2s.8.1.8.2-.3.2-.8.2-.9 0-.9-.2z"/><path d="M18.9 12.2c0-.2-.2-.3-.2-.3l-.8.2-.9-.2-.1.3-.2.7.3-.4.3.4.3-.4.3.4.2-.4.3.4.3-.4.4.4-.2-.7zm-1-2.4v1l.8.4-.3-.4.6-.3zm-.2 3.1h.4v1.2h-.4zm.8 8.1s.3-.4.2-.7c0-.3-.3-.8-.4-1.1-.1-.3.2-.6.2-.6h-.2s.3-.3.2-.6l-.3-1c0-.3.3-.7.3-.7l-.4.2-.2-.2-.2.2-.4-.2s.3.4.3.7c0 .4-.2.7-.3 1l.2.6h-.2s.3.3.2.6c0 .3-.4.8-.4 1-.1.4.2.8.2.8l-.6-.1c.3.6.7.7 1.2.7s.8 0 1.2-.7l-.6.1z"/></g></svg>