<svg xmlns="http://www.w3.org/2000/svg" viewBox="0 0 36 36"><path fill="#002D62" d="M36 27a4 4 0 0 1-4 4H4a4 4 0 0 1-4-4V9a4 4 0 0 1 4-4h28a4 4 0 0 1 4 4v18z"/><path fill="#DD2E44" d="M32 5H20v11h16V9a4 4 0 0 0-4-4z"/><path fill="#CE1225" d="M4 31h12V20H0v7a4 4 0 0 0 4 4z"/><path fill="#EEE" d="M36 15H21V5h-6v10H0v6h15v10h6V21h15z"/><path fill="#002D62" d="M18 16h-1.9l.3.3v1.6H18v-2zm0 3.9c.3-.3.5-.3 1.2-.3.4 0 .4-.2.4-.8V18H18v2z"/><path fill="#CE1225" d="M18 19.9c-.2-.3-.4-.3-1.1-.3-.4 0-.5-.2-.5-.8V18H18v2zm0-4h2l-.4.4v1.6H18v-2z"/><path fill="#FFF" d="M18.3 19.7v-3.8h-.6v3.8c.1 0 .2 0 .3.2l.3-.2z"/><path fill="#FFF" d="M16.4 17.6h3.2v.6h-3.2z"/><path fill="#002D62" d="M18 17.6l1-1.2v.4l.3-.2v1.9c0 .7-1.1.6-1.3.3-.1.3-1.2.4-1.2-.3v-1.9l.2.2v-.4l1 1.2z"/><path fill="#FFF" d="M18 18.7c-.5.3-.8.1-.8-.2v-.3l-.4-.1v-.3l.4.1v-1l.2.2V17l.3.3v.2l-.2-.2v.8l.5.1h.6v-.9l-.2.2v-.2l.3-.3v.2l.1-.1v1l.5-.2v.3l-.5.1v.3c0 .3-.3.5-.8.2v-.2c.3.1.6.2.6 0v-.2l-.6.1-.5-.1v.2c0 .2.3.1.5 0v.2z"/><path fill="#CE1225" d="M18.4 17.2v.2l.2-.2v.8l-.6.1h-.5v-.9l.2.2v-.2l.3.4.4-.4z"/><path fill="#CE1225" d="M16.8 18v.5c0 .7 1 .6 1.2.3.2.3 1.3.4 1.3-.3V18l-.5.1v.3c0 .3-.3.5-.8.2-.5.3-.8.1-.8-.2v-.3l-.4-.1z"/><path fill="#002D62" d="M18.4 15.3V15a4 4 0 0 0-.9 0l.1.2-.3.1h-.9v.2l-.3.2c-.3 0-.4.3-.5.7l-.4-.1c0-.3.3-.9.5-1l.2-.2c.3-.2.7-.2 1.2-.3l.2-.2h1.5l.1.2c.5 0 1 .1 1.2.3.2 0 .3.1.2.3.3 0 .5.6.5.9h-.4c0-.3-.1-.6-.4-.6-.3 0-.4-.1-.4-.2v-.1l-.8-.1-.4-.1z"/><path d="M18 17.6l1.3-1-1.3 1.1zm0 0l1.1-1.2-1 1.2zm0-.2l.9-1.2-.9 1.2zm0 .2l-1.3-1 1.3 1.1zm0-.1l-1-1.1 1 1.2zm0-.1l-.8-1.2.8 1.2z" fill="#996B38"/><path d="M19.3 16.5h.2l-.2.1zm-.2-.2h.1v.1H19zm-.2-.1l.1-.2v.2h-.1zm-2.1.3h-.2l.1.1zm.2-.2h-.2l.1.1zm.2-.1L17 16l.1.2s.1 0 0 0z" fill="#FFCE46"/><path fill="#FFF" d="M17.7 17.4h.3c0-.2.2-.2.3-.2l.2.6H18v.1l-.3-.5"/><path d="M18 18l-.3-.6h.3c0-.2.2-.2.3-.2l.2.6H18v.1zm-.3-.6l.2.5h.4l.2-.1-.1-.6-.3.1h-.3z"/><path fill="#549334" d="M19.7 20.3h.5l-.3-.1h.3v.2s0 .2 0 0c.1-.1.1-.1 0-.2l-.2-.1.4.2c0-.1 0-.2-.2-.3l.4.2-.3-.2.5.1a.7.7 0 0 0-.4-.3l.5.1-.4-.2h.4a.9.9 0 0 0-.4-.1h.4a.8.8 0 0 0-.4 0h.7l-.5-.2h.3l-.4-.1.5-.1h-.6c.2-.2.3-.2.5-.2.1 0 .2 0 0 0l.4-.3s.2-.1 0 0h-.6l-.2.1.3-.2h.3v-.1h-.5l.4-.4h.2c.1.1 0 0 0 0 0-.1-.1-.1-.2 0l-.5.3.7-.7-.4.3.1-.2-.2.1.2-.3h.2c-.2-.1-.2 0-.2 0l-.2.1.3-.3a1 1 0 0 0-.4.2l.5-.4-.3.2V17a1 1 0 0 0-.2.4v-.2l.2-.2h.3l-.1-.2H21l-.2.2.2-.6-.3.5v-.5.3l-.1-.4-.1.4-.2-.4v.5l-.2-.4.2.5v.1l-.3-.4v.3l-.2.3.1-.1h.2l.2.5-.2-.3v-.2.4l-.1-.2v.4l-.1-.2v.4c0-.2-.1 0-.1.1l.2.5-.1-.3c0-.1 0-.1 0 0v.6l-.1-.5v.8l-.1-.2v.7l-.1-.2-.2.4v-.3l-.2.4v-.4l-.2.4v-.4l-.1.2-.1-.2c0 .3 0 .5-.2.6-.4.3-.7.8-1.1 1l.1.1c.5-.2.7-.6 1-.8h1.6l-.4-.1z"/><path fill="#549334" d="M16.6 20h.4s0-.3-.2-.4h.5l.2-.1.1.2v.5l1 1c-.7-.2-1-1-1.6-1-.2 0-.3.1-.4 0l-.4.1.4-.3h-.4c0 .2-.2.2-.3.2-.2 0-.3.1-.3.2v-.2h-.3c.1 0 .2-.3.4-.3v-.1h.3l-.2-.3c0 .2-.2.3-.4.3h-.2v-.4l-.1-.3s.3 0 .5.2l-.2-.3h.2c-.1-.3-.4-.2-.5-.3-.2-.2-.1-.4-.2-.5h.1v-.3l.2.2V18l.2.2v-.3l.1.3v.3c0 .2 0 .3.2.5v-.7.2h.1c0-.1-.2-.2-.2-.5-.2 0-.3-.2-.4-.5h.1v-.3l.1.1-.1-.4.2-.4v.2l.2-.3v.3h.3c-.2 0-.2.3-.3.3l-.2.4.2.4h.1l-.1-.3V17l.2.1.1-.3v.2l.4-.2v.3c0 .1 0 .3-.2.4-.2.1-.2.2-.3.5l.3-.4v.4l.3-.1c-.1 0-.2.4-.4.4s-.3.3-.3.4l.2-.3v.2l.4-.2v.3l-.3.2s-.2 0-.2.2v.1l.2-.2c0 .1.1.3 0 .4v.3l.2.1c.1 0 0-.1 0-.2V19l.2.2V19l.2.3.1-.1v.4l-.1.2h-.1l.3.1-.3.1z"/><g fill="#CE1225"><path d="M18.1 20.7h-.5v.2h.8v-.2h-.3z"/><path d="M18.4 20.7h.3v.3l-.3-.1v-.2zm-.8 0h-.2v.3l.2-.1v-.2z"/><path d="M18 20.5l1.4.1-.1.1v.2h.5v.1c.1.3.5 0 .8.2l.3-.3-.5-.1v-.3h-.5l-.2-.2A4 4 0 0 0 18 20c-.6 0-1.3 0-1.7.3-.2 0-.2.2-.2.3-.2-.1-.3-.1-.4 0-.1 0-.1.1 0 .2l-.5.1.3.3c.2-.3.6 0 .7-.2h.5V20.7l1.3-.1z"/></g></svg>