<svg xmlns="http://www.w3.org/2000/svg" viewBox="0 0 36 36"><path fill="#DA1C0B" d="M36 27a4 4 0 0 1-4 4H4a4 4 0 0 1-4-4v-5h36v5z"/><path fill="#EEE" d="M32 5H4a4 4 0 0 0-4 4v14h36V9a4 4 0 0 0-4-4z"/><path fill="#DA1C0B" d="M14.5 10.4v.7h-.8v-.7H12v.7h-.8v-.7h-.7v1.5h.7v4h3.2v-4h.7v-1.5z"/><path fill="#DA1C0B" d="M15.2 14.3v.7h-.7v-.7h-.8v.7H12v-.7h-.8v.7h-.7v-.7h-.8v1.5h.8v4.3l-.8.4v.8H16v-.8l-.8-.4v-4.3h.8v-1.5z"/><path d="M12.1 13.5h1.6V15H12z"/><path d="M13.7 13.5a.8.8 0 1 1-1.6 0 .8.8 0 0 1 1.6 0zm0 4.9c0-.6-.2-1.1-.8-1.1s-.8.5-.8 1v1.4h1.6v-1.3z"/><path fill="#DA1C0B" d="M25 10.4v.7h-1v-.7h-1.5v.7h-.8v-.7H21v1.5h.8v4h3.1v-4h.8v-1.5z"/><path fill="#DA1C0B" d="M25.7 14.3v.7h-.8v-.7h-.8v.7h-1.5v-.7h-.8v.7H21v-.7h-.8v1.5h.8v4.3l-.8.4v.8h6.3v-.8l-.8-.4v-4.3h.8v-1.5z"/><path d="M22.6 13.5H24V15h-1.5z"/><path d="M24.1 13.5a.8.8 0 1 1-1.5 0 .8.8 0 0 1 1.5 0zm0 4.9c0-.6-.1-1.1-.7-1.1s-.8.5-.8 1v1.4H24v-1.3z"/><path fill="#DA1C0B" d="M20 8v1h-1V8h-2v1h-1V8h-1v2h1v5h4v-5h1V8z"/><path fill="#DA1C0B" d="M21 13v1h-1v-1h-1v1h-2v-1h-1v1h-1v-1h-1v9h8v-9z"/><path d="M17 12h2v2h-2z"/><circle cx="18" cy="12" r="1"/><path d="M19.4 18.3a1.4 1.4 0 1 0-2.8 0v2.2h2.8v-2.2z"/><path fill="#FFF100" d="M18.2 23.3v.2l1 1-1 1.1v4.8h-.4v-.6h-1.2v-.7h.4v.4h.8v-1H17v.3h-.4V28h1.2v-2.5l-1-1 1-1.1v-.2z"/><path fill="#DA1C0B" d="M17.2 24.6l.8-.8.7.8-.7.7z"/><path fill="#FFF100" d="M18.1 21.3H18c-.3 0-.5.3-.5.7v1.3c0 .4.2.7.5.7h.2c.3 0 .5-.3.5-.7V22c0-.4-.2-.7-.5-.7zm.2 2c0 .3-.2.4-.3.4s-.2-.1-.2-.4V22c0-.2 0-.4.2-.4s.3.2.3.4v1.3z"/><path fill="#FFF100" d="M19.3 20.3H19l-1 .9-1-1h-.3c-.1.1-.2.2-.1.3l1.2 1 .2.1h.2l1.2-1.1v-.2z"/></svg>