<svg xmlns="http://www.w3.org/2000/svg" viewBox="0 0 36 36"><path fill="#002B7F" d="M0 27a4 4 0 0 0 4 4h28a4 4 0 0 0 4-4v-2H0v2z"/><path fill="#F9E814" d="M0 21h36v4H0z"/><path fill="#002B7F" d="M32 5H4a4 4 0 0 0-4 4v12h36V9a4 4 0 0 0-4-4zM4 9.8l-1.2.8.5-1.4L2 8.4h1.5L4 7l.4 1.4H6l-1.2.8.5 1.4L4 9.8zm5.6 5.4L8 14l-1.6 1.2.6-1.9-1.5-1.1h1.9l.6-1.9.6 1.9h2L9 13.3l.6 1.9z"/><path fill="#FFF" d="M8.6 12.2L8 10.3l-.6 1.9h-2L7 13.3l-.6 1.9L8 14l1.6 1.2-.6-1.9 1.5-1.1zM5.9 8.4H4.4L4 7l-.4 1.4H2l1.2.8-.5 1.4L4 9.8l1.2.8-.5-1.4z"/></svg>