<svg xmlns="http://www.w3.org/2000/svg" viewBox="0 0 36 36"><path fill="#002488" d="M36 27a4 4 0 0 1-4 4H4a4 4 0 0 1-4-4V9a4 4 0 0 1 4-4h28a4 4 0 0 1 4 4v18z"/><path fill="#141414" d="M0 27a4 4 0 0 0 4 4h28a4 4 0 0 0 4-4V14H0v13z"/><path fill="green" d="M29 28.5s-8.4-4.4-12.5-5.8-5.1-.3-5.3.2c.4-1.2.9-1.4.9-1.4s-1.6.4-1.6 1.4c-.4-1 .8-2 2.3-2-1.4-.2-3.7 0-4.1 1.3 0-1.4 2.4-1.7 3.3-1.7-2.4-.8-4.4-.7-4.5.3-.2-.5.3-.8.3-.8s-1-.1-1.4.3c0-.4 1.5-.7 2.2-.7-1.3-.5-2.3-.6-2.5 0-.1-.7 2.3-.9 3.4-.6C7 18 6 17.7 5 18.7c0-.7.8-1 1.4-1-.5-.5-.9-.8-1.4-.8.3-.2 1 0 1 0l-1.3-1c.9.2 2.6 2 2.7 2.1l.9.3s-2.4-2-2.5-2.6c1 .5 3 2.6 3 2.6s.4.3.4 0c0-.1-2.9-2-2.8-3l1.4 1.6s-.6-.8-.5-1.5c.5 1 1.4 2.3 2.2 2.8-1.3-1.3-1.4-2-1.3-2.3a8.3 8.3 0 0 0 2 2.6l.3.1s-.8-.9-1-1.4c.6.4 1 1.3 1.1 1.4h.3s-1.2-1.3-1.2-2c.6.5 1.4 1.8 1.5 2s.6.5.6.4-1.7-1.8-1.2-2c.8.6 1.3 1.6 1.4 1.6s.5.2.4 0-1.2-1.5-.9-2.2c0 .8 1 2.4 2.4 2.7s5.9 3.3 8.8 4.2 8.2 2 8.2 2l-.1.3-7.8-2 .2.3 7.5 2-.2.4-7.6-2.4h-.2l7.6 2.6-.2.4-7.8-3 .3.3 7.4 3-.2.2-7.1-2.9h-.4l7.3 3.1-.2.3-6.8-3h-.3l7 3.4-.3.2z"/><path fill="#FCDD09" d="M25.4 24.3s-.3-.8-2-.9c1-1 1.8-.8 2.2-.6 0 0-.4-.8-2-.5.7-1 1.5-1.1 2-1 0 0-.6-.8-2.2 0V21c.5-1.2 1.3-1.5 1.8-1.5 0 0-.7-.5-2 .4.2-1.2.9-1.6 1.3-1.7 0 0-.8-.4-2 .8 0-1.3.6-2 1-2.1 0 0-.9-.2-1.8 1.2-.3-1.3.2-2 .6-2.3 0 0-1 0-1.5 1.6-.6-1.1-.2-2 0-2.3 0 0-.8.2-1 1.8-.8-1-.7-1.8-.4-2.2 0 0-.9.3-.7 2-1-.8-1-1.7-.9-2.1 0 0-.7.5-.3 2.1-1.1-.6-1.3-1.4-1.3-2 0 0-.6.7.2 2.2-1.2-.3-1.6-1-1.7-1.6 0 0-.4.8.7 2-1.3 0-1.8-.7-2-1.2 0 0-.3 1 1 2-1.3.2-1.9-.4-2.2-.8 0 0 0 .9 1.4 1.6-1.2.4-1.9 0-2.2-.4 0 0 0 1 1.8 1.3H13c-1.1.8-2 .5-2.3.2 0 0 .2 1 2 1-1 .9-1.8.8-2.3.6 0 0 .4.8 2 .5-.7 1-1.5 1.1-2 1 0 0 .6.8 2.3 0v.1a2.3 2.3 0 0 1-1.9 1.6s.8.5 2.1-.4c-.2 1.2-1 1.6-1.4 1.7 0 0 .8.4 2-.8 0 1.3-.5 1.9-1 2.1 0 0 .9.2 1.8-1.2.3 1.2-.2 2-.6 2.3 0 0 1 0 1.5-1.6.6 1.1.3 2 0 2.3 0 0 .8-.2 1-1.9.9 1 .7 1.9.5 2.3 0 0 .8-.3.7-2 1 .8 1 1.7.8 2.1 0 0 .8-.5.3-2.1 1.1.6 1.3 1.4 1.3 2 0 0 .6-.8-.2-2.2 1.3.3 1.6 1 1.7 1.6 0 0 .5-.8-.6-2 1.2 0 1.7.7 2 1.1 0 0 .2-.8-1.1-1.9 1.3-.2 2 .4 2.2.8 0 0 .1-.9-1.4-1.6 1.2-.4 1.9 0 2.2.4 0 0 0-1-1.7-1.3 1.1-.8 2-.5 2.4-.3zM6.2 11.4s0-1.5-.9-2.3c-1-.7-1.5.1-1.5.6s.5 1 1.2 1.3c-.4-.9.2-1 .4-.8.3.2.5.6.5 1.2h.3zm.5-5.1c-1 .5-1 2.1-.7 3 .4.7.4 2.1.4 2.1H7s.1-1.4.5-2.2c.3-.8.3-2.4-.7-3zm.4 5.1s0-1.5 1-2.3c.9-.7 1.5.1 1.5.6s-.5 1-1.3 1.3c.5-.9-.1-1-.3-.8-.4.2-.5.6-.5 1.2H7zm-.4.2h-.9l.9.1h.9zm1.1 1c-.5-.2-.7-.7-.7-.7h-.9s-.1.5-.7.8l1-.2s-.3.7.2 1.4c.4-.7.1-1.4.1-1.4s.5.3 1 .2zm9.8-1.2s0-1.5-1-2.3c-1-.7-1.5.1-1.5.6s.5 1 1.2 1.3c-.4-.9.2-1 .4-.8.3.2.5.6.5 1.2h.4zm.4-5.1c-1 .5-1 2.1-.7 3 .4.7.4 2.1.4 2.1h.6s0-1.4.4-2.2c.3-.8.3-2.4-.7-3zm.4 5.1s0-1.5 1-2.3c1-.7 1.5.1 1.5.6s-.5 1-1.2 1.3c.4-.9-.2-1-.4-.8-.3.2-.5.6-.5 1.2h-.4zm-.4.2h-.9l.9.1h.9zm1.1 1c-.5-.2-.7-.7-.7-.7h-.8s-.2.5-.7.8l1-.2s-.3.7.1 1.4c.4-.7.2-1.4.2-1.4s.5.3 1 .2zm9.9-1.2s0-1.5-1-2.3c-1-.7-1.5.1-1.5.6s.5 1 1.2 1.3c-.4-.9.2-1 .4-.8.3.2.5.6.5 1.2h.4zm.4-5.1c-1 .5-1 2.1-.7 3 .4.7.4 2.1.4 2.1h.5s.1-1.4.5-2.2c.3-.8.3-2.4-.7-3zm.4 5.1s0-1.5 1-2.3c.9-.7 1.5.1 1.5.6s-.5 1-1.3 1.3c.5-.9-.1-1-.3-.8-.4.2-.5.6-.5 1.2h-.4zm-.4.2h-.9l.9.1h.9zm1.1 1c-.5-.2-.7-.7-.7-.7H29s-.2.5-.7.8l1-.2s-.3.7 0 1.4c.5-.7.2-1.4.2-1.4s.5.3 1 .2z"/></svg>