<svg xmlns="http://www.w3.org/2000/svg" viewBox="0 0 36 36"><path fill="#0F47AF" d="M36 27a4 4 0 0 1-4 4H4a4 4 0 0 1-4-4V9a4 4 0 0 1 4-4h28a4 4 0 0 1 4 4v18z"/><path fill="#EEE" d="M0 13h36v10H0z"/><path fill="#1F601A" d="M17.5 21.3c.2-.8-.6-1-.6-1s0 .5-.5.5c.2.4 0 .7-.2.7.4.3 1.1.3 1.3-.2zm-1.3-.5c.5-.5-.2-1-.2-1s-.1.4-.6.3c0 .3-.2.5-.4.5.2.4.9.6 1.2.2zm-.9-.8c.6-.3.1-.8.1-.8s-.2.3-.5 0c0 .3-.3.4-.4.2 0 .4.4.8.8.6zm-.3-1c.5 0 .3-.7.3-.7s-.2.2-.4-.1c-.2.2-.4.2-.5 0-.1.4.2 1 .6.8zm-.2-.8c.6 0 .5-.6.5-.6s-.3.1-.4-.2c-.2.2-.4.1-.5 0-.1.3 0 .8.4.8zm.1-.9c.5.2.5-.4.5-.4s-.2 0-.2-.2c-.2 0-.4 0-.4-.2-.2.3-.1.7.1.8zm.4-.6c.2 0 .4-.3.4-.3s-.2-.1-.1-.4l-.3-.1c-.2.2-.2.6 0 .8zm3 4.6c-.2-.8.7-1 .7-1s0 .5.4.5c-.1.4 0 .7.2.7-.3.3-1 .3-1.2-.2zm1.4-.5c-.5-.5.2-1 .2-1s0 .4.5.3c0 .3.2.5.4.5-.2.4-.8.6-1.1.2zm.8-.8c-.5-.3-.1-.8-.1-.8s.2.3.5 0c.1.3.3.4.5.2 0 .4-.5.8-.9.6zm.4-1c-.6 0-.4-.7-.4-.7s.3.2.5-.1c.2.2.4.2.5 0 0 .4-.2 1-.6.8zm.1-.8c-.5 0-.4-.6-.4-.6s.2.1.4-.2c.2.2.4.1.4 0 .2.3 0 .8-.4.8zm-.1-.9c-.4.2-.5-.4-.5-.4s.3 0 .3-.2c.2 0 .3 0 .3-.2.2.3.2.7-.1.8zm-.3-.6c-.2 0-.5-.3-.5-.3s.2-.1.2-.4l.2-.1c.2.2.3.6 0 .8z"/><circle fill="#06209F" cx="17.9" cy="21.3" r=".4"/><path fill="#06209F" d="M17.8 17.8l-1.8-2s-.3 2.3.6 2.9c.9.6 1.2-1 1.2-1z"/><path fill="#FFF" d="M16.9 16.7l-.5-.4s-.2 1.8.7 2.4c-.4-.9-.2-2-.2-2z"/><path fill="#06209F" d="M17.8 18.6l-2.5-1.4s-.2 1.4.3 2.2c.4.7 2 .7 2.3 0 .2-.7 0-.8 0-.8z"/><path fill="#FFF" d="M16.2 17.7l-.5-.3s-.3 3 2 2.3c-1.5 0-1.5-2-1.5-2z"/><path fill="#06209F" d="M18 17.8l1.8-2s.4 2.3-.5 2.9c-1 .6-1.3-1-1.3-1z"/><path fill="#FFF" d="M19 16.7l.4-.4s.2 1.8-.7 2.4c.4-.9.3-2 .3-2z"/><path fill="#06209F" d="M18 18.6l2.5-1.4s.2 1.4-.3 2.2c-.4.7-2 .7-2.3 0-.2-.7 0-.8 0-.8z"/><path fill="#FFF" d="M19.6 17.7l.5-.3s.3 3-2 2.3c1.5 0 1.5-2 1.5-2z"/><path fill="#FFCC01" d="M17.8 15.3l-2.5 4.3h5z"/><path fill="#FFF" d="M15.7 19.4l2.1-3.7 2.1 3.7z"/><path fill="#017E93" d="M16.3 18.3l-.6 1h4.2l-.6-1z"/><path fill="#FFCC01" d="M16.1 18.8s.7-1 1-1c.2 0 .3.4.3.4l.3-.2.2.2.2-.2.2.3.2-.1.3.1s.1-.3.1-.1l.6.6H16z"/><circle fill="#E60000" cx="17.9" cy="17.2" r=".2"/><path d="M14 16.2c-.3.5-.4 1.1-.5 1.7h.5c0-.5.2-1 .5-1.4l-.5-.3zm4.8-1.8a3 3 0 0 1 1.6.8l.4-.4c-.6-.4-1.2-.8-2-.9v.5zm2.4 1.6c.4.6.7 1.4.7 2.2v.5h.4v-.5c0-.9-.2-1.8-.7-2.5l-.4.3zm-5 5.8a4 4 0 0 1-2.1-3.1h-.5a4.4 4.4 0 0 0 2.4 3.5l.2-.4zm-1.3-6a4 4 0 0 1 3-1.5h.1v-.5c-1.5 0-2.7.7-3.5 1.7l.4.3zm6.8 3.6c-.3 1-1 2-2 2.4l.1.4c1.1-.5 2-1.4 2.4-2.6l-.5-.2z" fill="#FFCC01"/></svg>