<svg xmlns="http://www.w3.org/2000/svg" viewBox="0 0 36 36"><path fill="#FDDF00" d="M19 31H9a4 4 0 0 1-4-4V9a4 4 0 0 1 4-4h10v26z"/><path fill="#EEE" d="M31 27a4 4 0 0 1-4 4h-9V5h9a4 4 0 0 1 4 4v18z"/><path fill="#A1A1A1" d="M28.8 14.2l.3-.6-.6.3z"/><path fill="#A1A1A1" d="M28.8 13.7a.2.2 0 1 0 .5 0 .2.2 0 0 0-.5 0zm-.5.1c-.1.1 0 .4.1.6.2.2.4.2.6.1 0-.1 0-.4-.2-.5-.2-.2-.4-.3-.5-.2z"/><path fill="#CB9C2B" d="M22.6 19.6c.3.3.7-.1 1.3-.7l4.5-4.2c.4-.3 0-.9-.4-.4s-4.8 4-5.1 4.3c-.3.3-.8.6-.3 1z"/><path fill="#CB9C2B" d="M28.3 14.6l.5.4-.2.2.2.2.2-.2.3.4v.3l-.6.5-.4-.2v-.3h-.2v.3h.1l.1.2v.3l-.5.5-1-1.1zm-8.6 6a1.5 1.5 0 1 0 3 0 1.5 1.5 0 0 0-3 0zm1 0a.5.5 0 1 1 .4-.4.5.5 0 0 1 1 0c0 .2-.2.5-.5.5a.5.5 0 1 1-.5.5.5.5 0 0 1-1 0c0-.3.2-.5.5-.5z"/><path fill="#A1A1A1" d="M22.1 19.2c0 .2 0 .4.2.6.1.2.4.2.5.1l-.1-.5c-.2-.2-.5-.3-.6-.2zm-2.4.2a.3.3 0 0 0 .5 0 .3.3 0 1 0-.5 0zM22 22a.3.3 0 0 0 .5 0 .3.3 0 1 0-.5 0zm-2.3 0a.3.3 0 0 0 .5 0 .3.3 0 1 0-.5 0z"/><path fill="#B4B4B5" d="M26.8 17l.3-.3c.3-.6 0-1.7-.3-2-.3-.6-.1-1 0-1h-.4c-.3.4-.2.8.2 1.7.3.7.4 1.2.2 1.7z"/><path fill="#B4B4B5" d="M26.2 14l.6-.3.7.2.3-.4c-.2 0-.5-.3-.8-.3h-.3c-.3.2-.5.5-.5.8z"/><path fill="#CB9C2B" d="M20.2 14.2l-.3-.6.6.3z"/><path fill="#CB9C2B" d="M20.2 13.7a.2.2 0 1 1-.5 0 .2.2 0 0 1 .5 0zm.5.1c.1.1 0 .4-.1.6-.2.2-.4.2-.6.1 0-.1 0-.4.2-.5.2-.2.4-.3.5-.2z"/><path fill="#A1A1A1" d="M26.4 19.6c-.3.3-.7-.1-1.3-.7l-4.5-4.2c-.4-.3 0-.9.4-.4s4.8 4 5.1 4.3c.3.3.8.6.3 1z"/><path fill="#A1A1A1" d="M20.7 14.6l-.5.4.2.2-.2.2-.2-.2-.3.4v.3l.6.5.4-.2v-.3h.2v.3h-.1l-.1.2v.3l.5.5 1-1.1zm7.2 4.6a1.5 1.5 0 1 0 0 3 1.5 1.5 0 0 0 0-3zm1 2a.5.5 0 0 1-1 0 .5.5 0 0 1-1 0c0-.3.2-.5.5-.5a.5.5 0 0 1 0-1c.2 0 .4.2.5.5a.5.5 0 1 1 .5.5c.3 0 .5.2.5.4z"/><path fill="#CB9C2B" d="M26.9 19.2c0 .2 0 .4-.2.6-.1.2-.4.2-.5.1l.1-.5c.2-.2.5-.3.6-.2zm2.4.2a.3.3 0 0 1-.5 0 .3.3 0 1 1 .5 0zM27 22a.3.3 0 0 1-.5 0 .3.3 0 1 1 .5 0zm2.3 0a.3.3 0 0 1-.5 0 .3.3 0 1 1 .5 0z"/><path d="M26 13.7c0 1.5-.7 1.4-1.5 1.4s-1.4 0-1.4-1.4.6-3 1.4-3c.8 0 1.4 1.6 1.4 3z"/><path fill="#FFF" d="M24.4 15l-.9-.1c-.2-.2-.3-.6-.3-1.2 0-1.5.6-3 1.3-3 .7 0 1.3 1.5 1.3 3 0 1.3-.5 1.3-1.2 1.3h-.2z"/><path fill="#CB9C2B" d="M25.2 14c-.5-.1-.4-.6-.7-.6s-.3.5-.8.6c-.5.2-.7 0-.7 0l.2 1s.5-.4 1.3-.4a2 2 0 0 1 1.2.3l.3-1s-.3.3-.8.1z"/><path fill="#CB9C2B" d="M25.3 12.8c-.5-.2-.4-.7-.8-.7s-.3.5-.8.7c-.6.1-.9-.1-.9-.1l.3 1s.5-.4 1.4-.4c1 0 1.4.4 1.4.4l.2-1s-.2.2-.8 0z"/><path fill="#CB9C2B" d="M25.2 11.4c-.5 0-.4-.5-.7-.5-.3 0-.2.4-.7.5-.5.2-.7 0-.7 0l.2.8s.4-.2 1.2-.2c.8 0 1.2.2 1.2.2l.2-.8s-.2.2-.7 0zm-.9-.9c0 .1 0 .3.2.3l.2-.3c0-.2-.1-.3-.2-.3s-.2.1-.2.3z"/><path fill="#CB9C2B" d="M24 10.2c0 .1.2.2.5.2s.4 0 .4-.2l-.4-.2c-.3 0-.5.1-.5.2z"/><path fill="#CB9C2B" d="M24.3 10l.2.1s.2 0 .2-.2-.1-.1-.2-.1l-.2.1z"/><path fill="#B4B4B5" d="M22.2 17a.9.9 0 0 1-.3-.3c-.3-.6 0-1.7.3-2 .3-.6.1-1 0-1h.4c.3.4.2.8-.2 1.7-.3.7-.5 1.2-.2 1.7z"/><path fill="#B4B4B5" d="M22.8 14a.7.7 0 0 0-.7-.3 1 1 0 0 0-.6.2l-.3-.4c.1 0 .4-.3.8-.3h.2c.4.2.6.5.6.8z"/><path fill="#EC1C24" d="M24.5 17c.2.2.2.8.2 1.5v5.4s.3.1.2 1c0 .2-.4.1-.5 0v-7.7c-.1-.1 0-.3 0-.2z"/><path fill="#EC1C24" d="M26.4 20.8a4 4 0 0 1-.7-.8l-.7-1.1c-.3-.4-1.2-1.2-1.3-1.1-.1 0-.2.1-.1.2l.8.7c.5.4.6.8 1 1.5.4.5.8 1 1 1v-.4z"/><path fill="#EC1C24" d="M25.4 17.6l-1.1 1-1 1.6-.7.6v.4c.2 0 .5-.3 1-1 .6-.8.9-1.5 1.2-1.7l.6-.5c.1-.2.1-.6 0-.4z"/><path fill="#EC1C24" d="M24.1 18.3V24c-.3.2-.2.7-.2.9.1.2.7.2.7 0 .1 0 .1-.8-.2-1v-5.4c0-.1-.3-.5-.3-.3z"/><path fill="#EC1C24" d="M22 21c-.2.2-.5.5.2.8s1.5.6 2.3.6 2.1-.5 2.4-.7c.4-.2.5-.5 0-.6-.3-.1-.3 0-.2.1s.3.2 0 .4c-.4 0-1.2.5-2.3.5s-2-.5-2.2-.5c-.2-.1-.2-.3 0-.4s0-.3-.1-.2z"/><path fill="#CB9C2B" d="M24.9 23.8a.2.2 0 1 1-.5 0 .2.2 0 0 1 .5 0z"/><path fill="#CB9C2B" d="M24.5 23.9a.2.2 0 1 1-.4 0 .2.2 0 0 1 .4 0z"/></svg>