<svg xmlns="http://www.w3.org/2000/svg" viewBox="0 0 36 36"><path fill="#00247D" d="M32 5H4a4 4 0 0 0-.6 0v1.8H.7A4 4 0 0 0 0 9v18a4 4 0 0 0 4 4h28a4 4 0 0 0 4-4V9a4 4 0 0 0-4-4z"/><path fill="#F9D050" d="M33.7 22.7c-.2 0-.4.5-.5.7 0 0-.3.2-.7.2l.4-.6c.2-.4 0-.8-.2-.8-.3 0-.3-.2-.7-.5-.3-.3-1-.4-1-.1-.2.3-.8.5-.7.9 0 .4.3.9.5 1.2l-1.7.9c-.8.3-1.3.3-1.3.3s-.8 0-1.6-.3-1.5-.9-1.5-.9l.5-1.2c0-.4-.5-.6-.6-.9-.1-.3-.8-.2-1.1 0-.4.4-.4.6-.7.6-.3 0-.4.4-.2.8l.4.6c-.4 0-.7-.2-.7-.2-.1-.2-.3-.6-.5-.7-.3 0-.3.3-.3.5l.4 1.2c0 .3.3.3.7.4.5 0 1.1-.3 1.1-.3 1.6 1.5 3.8 1.5 3.8 1.5s2.5 0 4-1.5c0 0 .8.4 1.3.3.4 0 .7-.1.8-.4l.4-1.2c0-.2 0-.5-.3-.5z"/><path fill="#DB1C1C" d="M33.6 24.3L34 23c0-.3-.3-.4-.5-.2s-.6 1.4-.6 1.4.1-.3.4-.2c.2 0 .3.3.3.3zm-2-1.5s.5-.5.5-.8c0-.3-.4-.7-.7-.7-.3 0-.5.3-.5.6l.4.8h.2l.2.1zM22 24.3l-.4-1.3c0-.3.3-.4.5-.2s.6 1.4.6 1.4-.1-.3-.4-.2c-.2 0-.3.3-.3.3zm2-1.5s-.5-.5-.5-.8c0-.3.4-.7.7-.7.3 0 .5.3.5.6l-.4.8H24l-.2.1z"/><path fill="#CF1B2B" d="M27.8 15.8h-3.3v3h7v-3z"/><path fill="#FFF" d="M30.3 23.4c.5-.7 1.2-2 1.2-3.7v-1.5H31c-.3.1-.4.5-.8.5-.6 0-.7-.5-1.2-.5s-.7.5-1.2.5-.8-.5-1.2-.5-.9.5-1.2.5c-.4 0-.6-.4-.9-.5v1.5c0 1.2.3 2.2.6 2.9.1.4.6 1 .7 1 0 0 1 .3 1.5 1.3h1c.5-1 1.5-1 2-1.5z"/><path fill="#0B50A0" d="M25.2 20.9c.5 0 1.1-.5 1.4-.5.4 0 .6.5 1 .5.5 0 1-.5 1.4-.5s.7.5 1.1.5c.4 0 .6-.5 1-.5l.4.1v-1.1H31c-.3.1-.4.5-.8.5-.6 0-.7-.5-1.2-.5s-.7.5-1.2.5-.8-.5-1.2-.5-.9.5-1.2.5c-.3 0-.5-.3-.7-.4l-.2-.1v1c.3.2.4.5.7.5zm3.8 2.3c-.5 0-.7.5-1.2.6-.5 0-.7-.6-1.2-.6-.3 0-.6.3-.8.5l1.1.6c.4.3 1 .3 1 .3s.4 0 .8-.3l1.2-.6c-.3-.2-.6-.5-.9-.5zm2.3-2c-.6 0-.5.4-1 .4-.6 0-.7-.5-1.2-.5s-.7.5-1.2.5c-.4 0-.8-.5-1.2-.5-.4 0-.8.5-1.2.5-.3 0-.6-.3-.8-.4 0 0 0 .8.4 1.4h.3c.5 0 1-.4 1.4-.4.3 0 .6.4 1 .4.5 0 1-.4 1.3-.4s.7.4 1.2.4c.3 0 .4-.2.6-.3l.5-1.2z"/><path fill="#059334" d="M25.8 19.8l.4-1.2.4 1.2h1.2l-1 .7.4 1.2-1-.8-1 .8.4-1.2-1-.7zm3.7 0l.4-1.2.3 1.2h1.3l-1 .7.4 1.2-1-.8-1 .8.4-1.2-1-.7z"/><path fill="#059334" d="M27.7 22l.3-1.2.4 1.2h1.3l-1 .7.3 1.2-1-.8-1 .8.5-1.2-1-.7z"/><path fill="#F9D050" d="M25.2 16.1c.2-.2.5.1.5.3 0 .2.3.5.5.5l.3-.7c.1-.3.4-.3.6-.3.2.1.6 0 .6.4s-.2.6-.2.6h1c.4 0 .7-.3 1-.2.2.2.6.2.7.1s.2-.3 0-.3l-.9.1c-.2 0-1.2.1-1.2-.2s.4-.4.4-.3c.1 0 .7-.4.8-.2s.2.4-.2.4h-.9l.4.2 1-.1c.2 0 .6-.3.9-.1.2.2.4.4.2.6h-1.2l.6.3c.2 0 .7.1.6.3 0 .3.1.6-.2.6-.3 0-.3-.2-.2-.4 0 0-.1-.2-.5-.2l-.8-.1v.4l-.7.2c-.3 0-.6.2-.6 0s.2-.4.4-.3h.5c.1 0-.3-.3 0-.4h-.4c-.2.2-1.4.5-1.8.6-.4.2-.8.2-1 .2 0 .1-.4 0-.3-.3.2-.2.3-.3.4-.2h.6c.3 0-.2-.1-.2-.2l-.4-.7c0-.1-.8-.2-.3-.6zm1.5-3l-1-.9.7.2s-.3-.4-.7-.5c0 0 .7.1 1 .3 0 0-.6-.7-1-.8 0 0 .8.2 1 .4l-.3-.6.7.6-.5-1 .7.6v-.6l.4.3.3-.4.3.4.4-.5-.1.8s.2-.4.6-.5l-.6 1.2s.8-.8 1.3-1l-1 1.1s.7-.5 1.2-.6l-.8.9s.4-.2 1-.1c0 0-1.3.6-1.6.9-.2.2-2-.2-2-.2z"/><path fill="#FFF" d="M26.1 14.8c-.4.1-.6.4-.5.6 0 .2.3.4.6.3l.5-.2.6-.1h.7s.4.2.8 0c0 0 .8.4 1.2.2.4-.1.1-.7 0-.7-.4-.1-1.3-.3-2-.3l-1.9.2z"/><path fill="#073163" d="M30 14.9l-.7-.2v.5l.2.4h.6c.4-.1 0-.7-.2-.7zm-2.4-.3l.4.8s.4.2.8 0l-.3-.8h-.9zm-.9.9l.6-.1-.2-.4-.2-.3-.8.1.6.7z"/><path fill="#059334" d="M24.8 13.2s.1-.4.6-.4.3.3 1 .4l3 .4c.3.2.7.2.9.1.2 0 0 .2-.2.3h-.6l.6.8c0 .2 0 .4-.2.2s-.5.2-.5 0-.5-.7-.5-.7-1.1-.2-1.4.1c-.4.3-.7.4-1.4.3-.4 0-.6-.2-.6-.5l.3-.3s0-.5-.2-.3h-.5c0-.2-.3-.4-.3-.4z"/><path fill="#059334" d="M26 13c.2 0 1-.4 1.7-.4.6 0 1 .2 1.5.5.4.2.4.4.6.5.3 0 .1.2 0 .3s-.5.8-1.8.8-1.4-.4-1.6-.6c-.2-.1-.3-.5-.3-.7s-.2-.2 0-.3z"/><path fill="#00493D" d="M28.5 14.3c.4-.1 1-.3 1.3-.7-.2-.1-.2-.3-.6-.5-.5-.3-.9-.4-1.5-.5l-1.3.3v.7l.6.4c.3.2 1 .4 1.5.3z"/><path fill="#00247D" d="M19 18V5H3.4v1.8H.7L.5 7A4 4 0 0 0 0 9v9h19z"/><path fill="#EEE" d="M19 5h-2.3L12 8.3V5H7v2.6L3.4 5a4 4 0 0 0-1.7.7L6.4 9H4.7L1 6.4l-.3.4L3.8 9H0v5h3.9L0 16.8V18h3.3L7 15.4V18h5v-3.3l4.7 3.3H19v-2l-2.8-2H19V9h-2.8L19 7V5z"/><path fill="#CF1B2B" d="M11 5H8v5H0v3h8v5h3v-5h8v-3h-8z"/><path fill="#CF1B2B" d="M19 5h-1.5L12 8.9V9h1.6L19 5.2zm-17.3.7a4 4 0 0 0-.7.7L4.7 9h1.7L1.7 5.7zM6.4 14L.7 18h1.8L7 14.8V14zM19 17.8v-1.2L15.3 14h-1.7z"/></svg>