<svg xmlns="http://www.w3.org/2000/svg" viewBox="0 0 36 36"><path fill="#29AE66" d="M36 27a4 4 0 0 1-4 4H4a4 4 0 0 1-4-4V9a4 4 0 0 1 4-4h28a4 4 0 0 1 4 4v18z"/><path fill="#CA3745" d="M4 5h7v26H4z"/><path fill="#FAAE29" d="M4 8.3l.8.8-.2.2.3.4.2-.3.7.7-.7.7-.2-.3-.3.3.2.2-.8.7v-.3l.4-.5-.2-.2.6-.6.4.3.3-.3-.4-.3-.2.2-.6-.6.2-.3-.5-.4zM4 13l.8.8-.2.3.3.3.2-.2.7.6-.7.7L5 15l-.3.3.2.2-.8.8V16l.4-.4-.2-.2.6-.6.4.3.3-.4-.4-.3-.2.2-.6-.6.2-.2-.5-.5zm0 4.8l.8.8-.2.2.3.3.2-.2.7.7-.7.6-.2-.3-.3.3.2.3-.8.7v-.4l.4-.4-.2-.2.6-.6.4.3.3-.3L5 19l-.2.3-.6-.7.2-.2L4 18zm0 4.6l.8.8-.2.2.3.4.2-.3.7.7-.7.7-.2-.3-.3.3.2.2-.8.7v-.3l.4-.5-.2-.1.6-.7.4.3.3-.3-.4-.3-.2.2-.6-.6.2-.3-.5-.4zm7-14l-.8.8.2.2-.3.4-.2-.3-.7.7.7.7.2-.3.3.3-.2.2.8.7v-.3l-.4-.5.2-.2-.6-.6-.4.3-.3-.3.4-.3.2.2.6-.6-.2-.3.5-.4zM4.6 5.7l.3-.3.2.3.7-.7h-.3l-.3.4-.4-.4-.6.7.2.1-.4.5v.3l.8-.7zm6.2 0l-.6-.7-.4.4-.3-.4h-.3l.7.7.2-.3.3.3-.2.2.8.7v-.3l-.4-.5zm.2 7.2l-.8.8.2.3-.3.3-.2-.2-.7.6.7.7.2-.3.3.3-.2.2.8.8V16l-.4-.4.2-.2-.6-.6-.4.3-.3-.4.4-.3.2.2.6-.6-.2-.2.5-.5zm0 4.8l-.8.8.2.2-.3.3-.2-.2-.7.7.7.6.2-.3.3.3-.2.3.8.7v-.4l-.4-.4.2-.2-.6-.6-.4.3-.3-.3.4-.4.2.3.6-.7-.2-.2.5-.5zm0 4.6l-.8.8.2.2-.3.4-.2-.3-.7.7.7.7.2-.3.3.3-.2.2.8.7v-.3l-.4-.5.2-.1-.6-.7-.4.3-.3-.3.4-.3.2.2.6-.6-.2-.3.5-.4z"/><path fill="#29AE66" d="M10 7v-.5l-.6-.3H9l-.7-.4H6.7l-.7.4h-.4l-.6.3V7l-.6.4v.9l.6.3V9l.6.4H6l.7.3h1.6l.7-.3h.4L10 9v-.4l.6-.3v-1z"/><path fill="#FAAE29" d="M5 7.7v-.4l.4-.2v-.4l.5-.3h.4l.6-.3h.6v1.6z"/><path fill="#FFF" d="M4.9 7.7v.4l.4.3v.3l.5.3h.4l.6.4h.7V7.7zm5.2 0v-.4l-.4-.2v-.4l-.5-.3h-.4l-.6-.3h-.7v1.6z"/><path fill="#FAAE29" d="M10.1 7.7v.4l-.4.3v.3l-.5.3h-.4l-.6.4h-.7V7.7zM5 11.6h.7v.7H5zm.7-.1h.7v.7h-.7zm.7-.3H7v.7h-.7zm3.1.4h.7v.7h-.7zm-.7-.1h.7v.7h-.7zm-.6-.3h.6v.7h-.6zM7 10.8h1v1H7zm-2 1.7h.6v.7h-.7zm.6 0h.7v.8h-.7zm.7.3H7v.8h-.7zm3.1-.3h.7v.7h-.7zm-.7 0h.7v.8h-.7zm-.6.3h.6v.8h-.6zM7 13h1v1H7z"/><path fill="#FFF" d="M8.5 24.6h-2l-1.5 1v1.3l1.5.9h2l1.5-1v-1.3z"/><path fill="#29AE66" d="M8.4 15.6H6.7l-1.3 1v1.1l1.3.9h1.7l1.2-.9v-1.2l-1.2-.9zm.7 2l-1 .6H7l-1-.6v-1l1-.6h1.3l1 .6v1zm-.5 7H6.4l-1.5 1v1.3l1.5 1h2.2l1.5-1v-1.4l-1.5-1zm1 2.2l-1.2.8H6.6l-1.2-.8v-1.2l1.2-.8h1.8l1.3.8v1.2zm.2-5.4V21h-.5v-.5H5.7v.5h-.5v.4h-.4v.7h.4v.5h.5v.5h3.6v-.5h.5V22h.5v-.7h-.5zM9 22.8H6v-2h3v2z"/><path fill="#29AE66" d="M7.5 20.3l-1.9 1v.8l1.9 1.2 2-1.2v-.7z"/><path fill="#CA3745" d="M6.7 25.8l.8-.5.8.5v1l-.8.4-.8-.5z"/><path fill="#FAAE29" d="M8.3 30l-.2.2s-.2-.3-.8-.4-.8.2-1.3.2-2-1-1.2-2.8c.7.5.3 1.1.6 1.4.4.3.7.5.8.9.1.3.7 0 1.1 0 .7.2 1 .6 1 .6z"/><path fill="#FAAE29" d="M6.7 30l.2.2s.2-.3.8-.4.8.2 1.3.2 2-1 1.2-2.8c-.7.5-.3 1.1-.6 1.4-.4.3-.7.5-.8.9-.1.3-.7 0-1.1 0-.7.2-1 .6-1 .6z"/><path fill="#FFF" d="M18.2 8.3a3 3 0 0 1-3.6 5A3.1 3.1 0 0 0 20 11a3 3 0 0 0-1.8-2.8zm-2.4-.4l-.2.4.4.4h-.6l-.2.4v-.5h-.6l.5-.3-.1-.6.4.4z"/><path fill="#FFF" d="M17.4 8.8l-.3.5.4.4-.5-.1-.3.5v-.6H16l.5-.3v-.5l.3.3zm-1.6.7l-.2.4.4.4h-.6l-.2.4v-.5l-.6-.1.5-.2-.1-.6.4.4zm-1.5.8l-.3.5.4.3h-.5l-.3.4V11H13l.5-.3-.1-.6.4.4zm1.5.9l-.2.5.4.3h-.6l-.2.4V12h-.6l.5-.3-.1-.6.4.4z"/><path fill="#CA3745" d="M7 20.8h1v.6H7zm0 1.4h1v.6H7z"/><path fill="#FAAE29" d="M5.6 21.5h1.3v.6H5.6zm2.6 0h1.2v.6H8.2z"/></svg>