<svg xmlns="http://www.w3.org/2000/svg" viewBox="0 0 36 36"><path fill="#CE1126" d="M36 27a4 4 0 0 1-4 4H4a4 4 0 0 1-4-4V9a4 4 0 0 1 4-4h28a4 4 0 0 1 4 4v18z"/><path fill="#0038A8" d="M32 5H4a4 4 0 0 0-4 4v9h36V9a4 4 0 0 0-4-4z"/><path fill="#EEE" d="M1.3 30L19 18 1.3 6A4 4 0 0 0 0 9v18a4 4 0 0 0 1.3 3z"/><path fill="#FCD116" d="M16 16.5l.1 1.2 1.1.3-1 .4v1.1l-.7-.9-1 .4.6-1-.8-.8 1.1.3zM1.7 8l.9.7 1-.6L3 9.2l.9.7H2.7l-.4 1L2 9.8l-1-.1 1-.6zM2 25.2l.6 1 1.1-.3-.7.9.6 1-1.1-.5-.8.9L2 27l-1.1-.4 1.1-.3zm8-7.2a3 3 0 1 1-6 0 3 3 0 0 1 6 0z"/><path d="M7.6 12.6l-.2 2.6h-.2v-3L7 12l-.3.1.1 3.1h-.2l-.2-2.6-.3.2.3 2.7h1.2l.3-2.7zM6.4 23.4l.2-2.6h.2v3l.2.2.3-.1-.1-3.1h.2l.2 2.6.3-.2-.3-2.7H6.4L6 23.2zm-3.6-2l2-1.8v.2l-2 2.2v.4h.4l2-2.2.3.2-1.8 2H4l1.7-2.1-.5-.4-.4-.5L2.7 21zm8.4-6.8l-2 1.8v-.2l2.1-2.1v-.4h-.4l-2 2.2-.3-.2 1.8-2H10l-1.7 2.1.5.4.4.5 2.1-1.7zm-9.6 2.8l2.6.2v.2h-3L1 18l.1.3 3.1-.1v.2l-2.6.2.2.3 2.7-.3v-1.2L1.8 17zm10.8 1.2l-2.6-.2v-.2h3l.2-.2-.1-.3-3.1.1v-.2l2.6-.2-.2-.3-2.7.3v1.2l2.7.3zm-8.8-4.8l1.8 2h-.2l-2.2-2h-.4v.4l2.2 2-.2.3-2-1.8v.4l2.1 1.7.4-.5.5-.4L4 13.7zm6.8 8.4l-1.8-2h.2l2.1 2.1h.4v-.4l-2.2-2 .2-.3 2 1.8V21l-2.1-1.7-.4.5-.5.4 1.7 2.1z" fill="#FCD116"/></svg>