<svg xmlns="http://www.w3.org/2000/svg" viewBox="0 0 36 36"><path fill="#0051BA" d="M33.6 5.3A4 4 0 0 0 32 5H4a4 4 0 0 0-4 4v18c0 .8.2 1.6.6 2.2l33-23.9z"/><path fill="#215B33" d="M2.4 30.7c.5.2 1 .3 1.6.3h28a4 4 0 0 0 4-4V9a4 4 0 0 0-.6-2.2l-33 23.9z"/><path fill="#FCD116" d="M.7 29.2a4 4 0 0 0 1.7 1.5l33-23.9a4 4 0 0 0-1.8-1.5L.6 29.2z"/><g fill="#FFF"><path d="M7 12l-.4 1.5 1.3-1 1.3 1-.5-1.5 1.3-1H8.4l-.5-1.5-.5 1.6H5.8l1.3.9z"/><path d="M8.7 12l1.3-1-1.3 1zm-1.6 0l-1.3-1zm-.5 1.5l1.3-.9 1.3 1-1.3-1zm-4-5.2l-.4 1.5 1.3-1 1.3 1-.5-1.5 1.3-1H4l-.5-1.5L3 7.3H1.4l1.3 1z"/><path d="M2.2 9.8l1.3-1 1.3 1-1.3-1zm.5-1.5l-1.3-1zm1.6 0l1.3-1-1.3 1zm7.2 7.5l-.5 1.5 1.3-1 1.3 1-.5-1.5 1.2-1h-1.5l-.5-1.5-.5 1.5h-1.6l1.3 1z"/><path d="M13.1 15.8l1.3-1-1.3 1zm-1.6 0l-1.3-1zm-.5 1.5l1.3-1 1.3 1-1.3-1zm-8.3-1.5l-.5 1.5 1.3-1 1.3 1-.5-1.5 1.3-1H4l-.5-1.5-.5 1.5H1.4l1.3 1z"/><path d="M4.3 15.8l1.3-1-1.3 1zm-2.1 1.5l1.3-1 1.3 1-1.3-1zm.5-1.5l-1.3-1zm8.8-7.5L11 9.8l1.3-1 1.3 1-.5-1.5 1.2-1h-1.5l-.5-1.5-.5 1.5h-1.6l1.3 1z"/><path d="M11.5 8.3l-1.3-1zm1.6 0l1.3-1-1.3 1zM11 9.8l1.3-1 1.3 1-1.3-1z"/></g></svg>