<svg xmlns="http://www.w3.org/2000/svg" viewBox="0 0 36 36"><path fill="#CF142B" d="M0 27a4 4 0 0 0 4 4h28a4 4 0 0 0 4-4v-4H0v4z"/><path fill="#00247D" d="M0 23h36V13H0v10zm25.3-3.5l.3.7h.8l-.6.4.2.8-.6-.5-.7.5.3-.7-.7-.5h.8l.2-.8zm-1.2-1.7l.7-.3-.4.7.5.6-.7-.2-.5.6v-.7l-.8-.2.7-.3v-.8l.5.6zm-2.9-2.2l.7.4.6-.5-.2.8.7.4h-.8l-.2.8-.3-.7H21l.6-.4-.3-.8zm-2-.5l.4-.6v.7l.9.2-.8.3.2.8-.6-.6-.7.4.4-.7-.6-.6.8.1zm-2.9.1l.1-.7.4.6h.8l-.6.5.4.7-.7-.4-.6.6.2-.8-.7-.3.7-.2zm-2.8.3l.6.5.7-.4-.3.8.6.5-.8-.1-.3.7-.2-.7-.8-.1.7-.4-.2-.8zm-2.3 2l.7.3.5-.6v.8l.7.3-.8.2v.7l-.5-.6-.7.2.5-.6-.4-.7zm-.8 2.7l.3-.8.2.8h.8l-.7.5.3.7-.7-.5-.6.5.2-.8-.6-.4h.8z"/><path fill="#FC0" d="M32 5H4a4 4 0 0 0-4 4v4h36V9a4 4 0 0 0-4-4z"/><path fill="#FFF" d="M18.6 16.3l.7-.4.6.6-.2-.8.8-.3-.8-.2-.1-.7-.4.6h-.8l.6.5zm3.1.5l.3.7.2-.7.8-.1-.7-.4.2-.8-.6.5-.7-.4.3.8-.6.5zm1.2 1.5l.8.2v.7l.5-.6.7.2-.5-.6.4-.7-.7.3-.5-.6v.8zm2 2.4l-.2.7.7-.5.6.5-.2-.8.6-.4h-.8l-.3-.7-.2.7h-.8zm-8.8-4.2l.6-.6.7.4-.4-.7.6-.6-.8.1-.4-.6v.7l-.9.2.8.3zm-2.3.3l.2.7.3-.7h.8l-.6-.4.3-.8-.7.4-.6-.5.2.8-.7.4zm-2 1.8l.5.6v-.7l.8-.2-.7-.3v-.8l-.5.6-.7-.3.4.7-.5.6zM10 21.4l.6-.5.7.5-.3-.7.7-.5h-.8l-.2-.8-.3.8h-.8l.6.4z"/></svg>