<svg xmlns="http://www.w3.org/2000/svg" viewBox="0 0 36 36"><path fill="#060" d="M36 27a4 4 0 0 1-4 4H4a4 4 0 0 1-4-4V9a4 4 0 0 1 4-4h28a4 4 0 0 1 4 4v18z"/><path fill="#BB1600" d="M0 13h36v10H0z"/><path fill="#141414" d="M32 5H4a4 4 0 0 0-4 4v4h36V9a4 4 0 0 0-4-4z"/><path fill="#EEE" d="M0 13h36v1H0zm0 9h36v1H0z"/><path fill="#141414" d="M23 9.4l-.7.8-.8.8c-.6.7-1.3 1.5-.8 2l-7.3 12.2.3.2h.1l7.3-12.2c.6.1 1-.8 1.3-1.6l.4-1.1.3-1.1z"/><path fill="#FFF" d="M22.3 10.2l-.8.9c-.9 1-1.1 1.5-.8 1.8l-7.2 12.3.2.2L21 13c.5.1 1-.3 1.3-1.6l.4-1 .3-1-.7.7z"/><path fill="#141414" d="M15.3 13c.5-.5-.2-1.3-.8-2A74.6 74.6 0 0 1 13 9.4l.3 1 .4 1.2c.3.8.7 1.7 1.3 1.6l7.3 12.2.4-.1v-.1L15.3 13z"/><path fill="#FFF" d="M15.3 13c.3-.4 0-1-.8-2l-.8-.8-.7-.7.3 1 .4 1c.4 1.3.8 1.7 1.2 1.6l7.3 12.3.3-.2L15.2 13z"/><path fill="#141414" d="M18 10.5c-2.5 1.8-3.7 4.3-3.7 7.5s1.2 5.6 3.7 7.5c2.5-1.9 3.7-4.3 3.7-7.5s-1.2-5.7-3.7-7.5z"/><path fill="#BB1600" d="M20.9 14a8.9 8.9 0 0 0-2.9-3.5 9 9 0 0 0-2.9 3.6c.5 1.1.8 2.4.8 3.9s-.3 2.7-.8 4a9 9 0 0 0 2.9 3.4 9 9 0 0 0 2.9-3.5 9.5 9.5 0 0 1-.8-4c0-1.4.3-2.7.8-3.8z"/><path d="M18 19c.3 0 .6-.5.6-1s-.3-1-.6-1-.6.5-.6 1 .3 1 .6 1zm-.2-2.6a5 5 0 0 1-.8-2.8c0-1.1.3-2 .8-2.8v5.6zm.4 0a5 5 0 0 0 .8-2.8 5 5 0 0 0-.8-2.8v5.6zm-.4 3.1a5 5 0 0 0-.8 2.9c0 1.1.3 2 .8 2.8v-5.7zm.4 0c.5.8.8 1.7.8 2.9a5 5 0 0 1-.8 2.8v-5.7z" fill="#FFF"/></svg>