<svg xmlns="http://www.w3.org/2000/svg" viewBox="0 0 36 36"><path fill="#00247D" d="M32 5H4a4 4 0 0 0-.6 0v1.8H.7A4 4 0 0 0 0 9v18a4 4 0 0 0 4 4h28a4 4 0 0 0 4-4V9a4 4 0 0 0-4-4z"/><path fill="#EEE" d="M27.5 23.5c-4.6-1.8-4.5-6-4.3-10.4V13l.2-.2a13 13 0 0 1 8.5 0l.2.2v.2c.2 4.4.3 8.6-4.3 10.4h-.3z"/><path fill="#FF0" d="M31.6 13.1a14.1 14.1 0 0 0-7.9 0c-.2 4.5-.2 8.3 4 10 4.2-1.7 4-5.5 3.9-10z"/><path fill="#8FC5FF" d="M23.7 16c0 3.2.7 5.8 4 7 3.2-1.2 3.9-3.8 4-7h-8z"/><path fill="#366CC9" d="M27.7 23a5.5 5.5 0 0 0 3.2-3h-6.5a5.5 5.5 0 0 0 3.3 3z"/><path fill="#00D860" d="M27.6 20.8a.2.2 0 1 0 0 .3h2.7l.2-.3h-2.9zm-.3.9c0 .1 0 .2.2.2h2.1l.4-.4h-2.5l-.2.2zm-.5.7l.2.2h1.6l.5-.3h-2l-.3.1z"/><path fill="#5D3100" d="M24.6 17.9c.1-.5.5-1.1.6-1.1.2 0 1.8 3 1.7 3.2s-2 .3-2.3.2 0-2.3 0-2.3z"/><path fill="#CF6200" d="M26.4 20.6a38 38 0 0 0-2.2-4.1l-.5.6c.1 1.5.5 2.9 1.2 4 .7 0 1.6-.3 1.5-.5z"/><path d="M27.1 16.3h.1V20h-.1zm1.3-.1h.2V20h-.2zm1.3 0v3.9z" fill="#FF0"/><path d="M25.3 19.1l1.6.7c.6.2 1.5.1 1.8.1s.7-.7.9-.7h1.3c.1 0 0 1.3-.4 1.3h-3.4c-.3 0-1.3-1-1.6-1.1s-.4-.4-.2-.3z"/><path d="M27.7 16.7l-.2.2h-.7a.2.2 0 0 1 0-.4h.7s.2 0 .2.2zm1.3-.2l-.2.2H28a.2.2 0 0 1 0-.4h.7s.2 0 .2.2zm1.3.4s0 .2-.2.2h-.7a.2.2 0 0 1 0-.4h.7c.1 0 .2 0 .2.2zm0 1c0 .2 0 .3-.2.3h-.7a.2.2 0 0 1 0-.4h.7c.1 0 .2 0 .2.2zm0 .8c0 .1 0 .2-.2.2h-.7a.2.2 0 0 1 0-.4h.7c.1 0 .2 0 .2.2zM29 17.2l-.2.2H28a.2.2 0 0 1 0-.4h.7l.2.2zm0 .8l-.2.2H28a.2.2 0 0 1 0-.4h.7s.2 0 .2.2zm0 .7l-.2.2H28a.2.2 0 0 1 0-.4h.7s.2 0 .2.2zm-1.3-1.3l-.2.2h-.7a.2.2 0 0 1 0-.4h.7l.2.2zm0 .8l-.2.2h-.7a.2.2 0 0 1 0-.4h.7s.2 0 .2.2zm0 .7l-.2.2h-.7a.2.2 0 0 1 0-.4h.7s.2 0 .2.2z" fill="#EEE"/><path fill="#AC5F1A" d="M25.9 13.2l.6-.1c.1-.2.6-.5 1 0l.3.6c.3.2 1.5.7 1.9.6 0 .2-.4.3-.4.3l.4.6c0 .3-.5-.5-1.3-.3-.3.1-.6.4-1.3.3s-.6-1.1-.6-1.5c0-.1-.6-.3-.6-.5z"/><path fill="#EEE" d="M26.2 13.2c0-.2.3 0 .5-.1.1-.2.5-.4.8 0 .1.2 0 .3.3.5.1.2 1 .7 1.4.7 0 .2-.3.2-.3.2l.3.5c0 .2-.4-.4-1-.3-.3 0-.6.3-1.1.1-.5-.1-.5-1-.4-1.2l-.5-.4z"/><path d="M27.4 15.7h-.1v-.5.5zm.5 0h-.1v-.5h.1v.5zm-.6-2.4a.1.1 0 1 1-.3 0l.1-.2c.1 0 .2 0 .2.2z"/><path fill="#00247D" d="M19 18V5H3.4v1.8H.7L.5 7A4 4 0 0 0 0 9v9h19z"/><path fill="#EEE" d="M19 5h-2.3L12 8.3V5H7v2.6L3.4 5a4 4 0 0 0-1.7.7L6.4 9H4.7L1 6.4l-.3.4L3.8 9H0v5h3.9L0 16.8V18h3.3L7 15.4V18h5v-3.3l4.7 3.3H19v-2l-2.8-2H19V9h-2.8L19 7V5z"/><path fill="#CF1B2B" d="M11 5H8v5H0v3h8v5h3v-5h8v-3h-8z"/><path fill="#CF1B2B" d="M19 5h-1.5L12 8.9V9h1.6L19 5.2zm-17.3.7a4 4 0 0 0-.7.7L4.7 9h1.7L1.7 5.7zM6.4 14L.7 18h1.8L7 14.8V14zM19 17.8v-1.2L15.3 14h-1.7z"/></svg>