<svg xmlns="http://www.w3.org/2000/svg" viewBox="0 0 36 36"><path fill="#5B97B1" d="M32 5H4a4 4 0 0 0-.6 0v1.8H.7A4 4 0 0 0 0 9v18a4 4 0 0 0 4 4h28a4 4 0 0 0 4-4V9a4 4 0 0 0-4-4z"/><path d="M13.6 27.8l-.5-1.5-.5 1.5H11l1.3.9-.5 1.5 1.3-1 1.3 1-.5-1.5 1.3-1zm6.5-1.2l.5-1.5-1.3 1-1.3-1 .5 1.5-1.3 1h1.6l.5 1.4.5-1.5h1.6zm.5-6.8l-1.3 1-1.3-1 .5 1.5-1.3 1h1.6l.5 1.4.5-1.5h1.6l-1.3-.9zm4.4 5.5l.5-1.5-1.2.9-1.3-1 .5 1.6-1.3.9h1.6l.5 1.5.4-1.5h1.6zm-1.2-10.6l.5 1.5.4-1.5h1.6l-1.3-1 .5-1.4-1.2.9-1.3-1 .5 1.6-1.3.9zm4.5 6.5l-.5-1.5-.5 1.5h-1.5l1.2 1-.5 1.5 1.3-1 1.3 1-.5-1.5 1.3-1zm0-8l.5 1.4.5-1.5H31l-1.3-.9.5-1.5-1.3 1-1.2-1 .5 1.5-1.3 1zm4.6 5l-.5-1.4-.5 1.5h-1.5l1.2.9-.4 1.5 1.2-1 1.3 1-.5-1.5 1.3-1zM31.6 9l-.4 1.5 1.2-.9 1.3 1-.5-1.6 1.3-.9h-1.6l-.5-1.5-.5 1.5h-1.5z" fill="#FFCE00"/><path fill="#00247D" d="M19 18V5H3.4v1.8H.7L.5 7A4 4 0 0 0 0 9v9h19z"/><path fill="#EEE" d="M19 5h-2.3L12 8.3V5H7v2.6L3.4 5a4 4 0 0 0-1.7.7L6.4 9H4.7L1 6.4l-.3.4L3.8 9H0v5h3.9L0 16.8V18h3.3L7 15.4V18h5v-3.3l4.7 3.3H19v-2l-2.8-2H19V9h-2.8L19 7V5z"/><path fill="#CF1B2B" d="M11 9V5H8v5H0v3h8v5h3v-5h8v-3h-8z"/><path fill="#CF1B2B" d="M19 5h-1.5L12 8.9V9h1.6L19 5.2zm-17.3.7a4 4 0 0 0-.7.7L4.7 9h1.7L1.7 5.7zM6.4 14L.7 18h1.8L7 14.8V14zM19 17.8v-1.2L15.3 14h-1.7z"/><path fill="#00247D" d="M19 18V5H3.4v1.8H.7L.5 7A4 4 0 0 0 0 9v9h19z"/><path fill="#EEE" d="M19 5h-2.3L12 8.3V5H7v2.6L3.4 5a4 4 0 0 0-1.7.7L6.4 9H4.7L1 6.4l-.3.4L3.8 9H0v5h3.9L0 16.8V18h3.3L7 15.4V18h5v-3.3l4.7 3.3H19v-2l-2.8-2H19V9h-2.8L19 7V5z"/><path fill="#CF1B2B" d="M11 5H8v5H0v3h8v5h3v-5h8v-3h-8z"/><path fill="#CF1B2B" d="M19 5h-1.5L12 8.9V9h1.6L19 5.2zm-17.3.7a4 4 0 0 0-.7.7L4.7 9h1.7L1.7 5.7zM6.4 14L.7 18h1.8L7 14.8V14zM19 17.8v-1.2L15.3 14h-1.7z"/></svg>