<svg xmlns="http://www.w3.org/2000/svg" viewBox="0 0 36 36"><path fill="#141414" d="M36 27a4 4 0 0 1-4 4H4a4 4 0 0 1-4-4V9a4 4 0 0 1 4-4h28a4 4 0 0 1 4 4v18z"/><path fill="#CE1126" d="M34.6 30a4 4 0 0 0 1.4-3V9a4 4 0 0 0-4-4H4c-1 0-2 .4-2.6 1l33.2 24z"/><path d="M7.7 13.5l.4 1.4h1.3l-1 .8.4 1.2-1-.8-1.1.8.4-1.2-1-.8h1.2zm-4 5.2l.4 1.3h1.3l-1 .8.4 1.3-1-.8-1.1.7.3-1.2-1-.8h1.3zm4 6.9l.4 1.3h1.3l-1 .8.4 1.3-1-.8-1.1.8.4-1.3-1-.8h1.2zm1.8-2.8l.2.7h.7l-.6.4.2.6-.5-.4-.5.4.2-.6-.5-.4h.6zm2.2-4.5l.4 1.3h1.3l-1 .8.4 1.3-1-.8-1.1.8.4-1.3-1-.8h1.2z" fill="#FFF"/><path fill="#FCD116" d="M22.7 12.7c-.3.4-1-.4-1.9-.4-.9 0-1.5.9-1.7 1.1-.3.3-1.1 1.9-1.1 2 0 .2.5-.4.7-.5l-.2.5.9-.4v.5s.3-.4.6-.5c0 .2-.3.5-.1.7l.8-.7c.2 0 0 .6 0 .7l.8-.8c.2 0 0 .7 0 .7.3-.1.8-.8.9-1 0 0-.1 1.1.5 1.8.5.6 1.4 1.3 1.5 1.3V17l.9.7v-.5c.3.3 1.2 1.4 2.8 1.9 0-.3-.3-.6-.3-.8l.5.2c.1 0-.8-1-.7-1.2h.3c0-.1-.8-1-.8-1.2 0-.2.2 0 .3 0 0 0-.3-.8-.2-.9l1 .5c.2 0 .1-.7.2-.7l1 .3v-.2c.1 0 1.7 1.6 1.2 3.4-.6 1.4-1.7 2-3.3 1.5.1.1 1 .9 2 .6.8-.3 2-1 1.9-2.8-.2-1.8-.8-2-.9-2.4 0-.2.2.1.4.2.2 0 0-.4-.1-.6 0-.2.6.4.8.5a4 4 0 0 0-.6-1.6h.3s-1-1.6-1.3-1.6l.4-.1c.2 0-1.3-1.2-1.5-1.2-.3 0 .5-.3.5-.3.2 0-1.6-1-3.2 0 0 0 .8-.6.8-.9l-.3-.2c0-.1.5-.3.5-.5l-.4-.1.3-.6c0-.1-.3-.1-.4 0 0 0 .2-.5.1-.6h-.3s.5-.8.4-.9c-.1-.1-1.7.8-2.2 1.8-.6 1-.1 1.9-.2 2.2 0 .4-.2.7-.4.7-.3 0-.8-.4-1-.5-.2-.2-.2-.3-.5-.4l-1 .1h-1.2l1 .4c.3.1.3.3.5.4 0 0 1.5.5 1 1zm5.4 2.6c.4.4 3.4 2.4 3.4 4.8s-2.2 2.4-2.8 2.3c.7.6 3.3.5 3.3-2.3 0-2.4-3.4-4.8-3.8-5-.5-.2-.6-.2-.1.2z"/></svg>