<svg xmlns="http://www.w3.org/2000/svg" viewBox="0 0 36 36"><path fill="#CF142B" d="M32 5H18v26h14a4 4 0 0 0 4-4V9a4 4 0 0 0-4-4z"/><path fill="#EEE" d="M4 5a4 4 0 0 0-4 4v18a4 4 0 0 0 4 4h14V5H4z"/><path fill="#CF142B" d="M1.7 9.7h8.6v2.6H1.7z"/><path fill="#CF142B" d="M4.7 6.7h2.6v8.6H4.7z"/><g fill="#CF142B"><circle cx="4.7" cy="12.3" r=".9"/><circle cx="7.4" cy="12.3" r=".9"/><circle cx="4.7" cy="9.8" r=".9"/><circle cx="7.4" cy="9.8" r=".9"/></g><g fill="#99AAB5"><circle cx="4.7" cy="12.3" r=".7"/><circle cx="7.4" cy="12.3" r=".7"/><circle cx="4.7" cy="9.8" r=".7"/><circle cx="7.4" cy="9.8" r=".7"/></g><circle fill="#CCD6DD" cx="6" cy="11" r="1.8"/><path fill="#CCD6DD" d="M5 7h2v8H5z"/><path fill="#CCD6DD" d="M2 10h8v2H2z"/><circle fill="#B2C0C9" cx="6" cy="11.1" r="1.2"/><path fill="#99AAB5" d="M6.6 11h.2c.1 0 .4 0 .2-.1l-.3-.1-.2.1v-.5h.3v-.1l-.3-.1h-.2v.3c0 .1-.1-.5-.2.5l-.1-.4v-.3h.1l.1-.2H6s.1 0 0 0V10c.2-.2-.1-.1-.2 0v.1H6v.1h-.2l-.4.3s-.1 0 0 0l.2.2h.2v-.2h.1v.2s-.1.1 0 .1l-.3.1h-.2l-.1.2H5l.1.3v.2h.2v-.1s.1 0 0-.1c0 0 .1 0 0 0V11c0 .2.2.2.2.3h.1v.4c.1 0 .2 0 .3.2 0 0 .3-.1.2-.2l-.3-.2v-.1h.1l.6-.3c.1 0 .3 0 .3.2v.3c.1 0 .4 0 .3-.1V11.2c0-.2-.3-.2-.4-.2l-.1-.1h.1z"/></svg>