<svg xmlns="http://www.w3.org/2000/svg" viewBox="0 0 36 36"><path fill="#003893" d="M36 27a4 4 0 0 1-4 4H4a4 4 0 0 1-4-4V9a4 4 0 0 1 4-4h28a4 4 0 0 1 4 4v18z"/><path fill="#F4900C" d="M34.6 6L.8 29.4l.1.1L36 11V9a4 4 0 0 0-1.4-3z"/><path fill="#EEE" d="M1 29.6L36 17v-6L1 29.5v.1z"/><path fill="#FFF" d="M9 7l.3 5 1-2-.4 2.3 1.6-1.8-1.1 2.1 2-1.1-1.7 1.6 2.4-.4-2.2 1 5.2.3-5.2.3 2.2 1-2.4-.4 1.8 1.6-2.1-1.1 1.1 2-1.6-1.7.4 2.4-1-2.2-.3 5.2-.3-5.2-1 2.2.4-2.4-1.6 1.8 1.1-2.1-2 1.1L7.2 15l-2.4.4 2.2-1-5.2-.3 5.2-.3-2.2-1 2.4.4-1.8-1.6 2.1 1.1-1.1-2L8 12.2l-.4-2.4 1 2.2z"/></svg>