<svg xmlns="http://www.w3.org/2000/svg" viewBox="0 0 36 36"><path fill="#EEE" d="M36 27a4 4 0 0 1-4 4H4a4 4 0 0 1-4-4V9a4 4 0 0 1 4-4h28a4 4 0 0 1 4 4v18z"/><path fill="#C60C30" d="M21.4 13a6 6 0 0 0-8.3 1.6A3 3 0 0 0 18 18a3 3 0 0 1 5 3.4 6 6 0 0 0-1.6-8.3z"/><path fill="#003478" d="M22.2 17.3c-1.4-1-3.2-.7-4.2.7s-2.8 1.7-4.2.7a3 3 0 0 1-.7-4.1 6 6 0 1 0 9.8 6.8 3 3 0 0 0-.7-4.1z"/><path d="M24.3 25.6l2-2.3.7.6-1.9 2.3zm2.6-3l2-2.4.7.7-2 2.3zm-1 4.3l1.9-2.3.8.6-2 2.3zm2.5-3.1l2-2.3.7.6-1.9 2.3zm-1 4.3l2-2.3.7.7-2 2.3zm2.6-3l1.9-2.3.8.6-2 2.3zm0-14.2l.7-.6 2 2.3-.8.6zm-2.6-3l.8-.7L30 9.5l-.8.7zM25.9 9l.7-.6 4.5 5.4-.7.6zm-1.6 1.3l.8-.6 2 2.3-.8.6zm2.6 3l.8-.6 1.9 2.3-.8.7zM6.4 21l.8-.7 4.5 5.4-.8.6zm-1.5 1l.7-.6 2 2.3-.8.6zm2.5 3.1l.8-.6 2 2.3-.8.6zm-4-1.8l.7-.6L8.6 28l-.8.7zm0-10.8l4.4-5.4.8.7-4.5 5.3zm1.5 1.3l4.5-5.4.7.6-4.5 5.4zM6.4 15l4.5-5.3.8.6-4.5 5.4z" fill="#292F33"/></svg>