<svg xmlns="http://www.w3.org/2000/svg" viewBox="0 0 36 36"><path fill="#DD2E44" d="M36 27a4 4 0 0 1-4 4H4a4 4 0 0 1-4-4V9a4 4 0 0 1 4-4h28a4 4 0 0 1 4 4v18z"/><path fill="#EEE" d="M.6 29h34.8a4 4 0 0 0 .6-2H0c0 .7.2 1.4.6 2zM0 23h36v2H0zm0-4h36v2H0zm0-4h36v2H0zm0-4h36v2H0zm.6-4A4 4 0 0 0 0 9h36a4 4 0 0 0-.6-2H.6z"/><path fill="#010066" d="M18 5H4a4 4 0 0 0-4 4v10h18V5z"/><path fill="#FFCC4D" d="M9.5 17.2a5.2 5.2 0 1 1 2-10 6 6 0 1 0 0 9.7c-.6.2-1.3.3-2 .3z"/><path fill="#FFCC4D" d="M13 8.8l.3 1.6 1-1.3-.4 1.6 1.4-.7-1 1.3h1.6l-1.5.6 1.5.7h-1.6l1 1.2-1.4-.7.4 1.6-1-1.3-.4 1.6-.3-1.6-1 1.3.4-1.6-1.5.7 1-1.2H10l1.5-.7-1.5-.7h1.7l-1-1.2 1.4.7-.4-1.6 1 1.3z"/></svg>