<svg xmlns="http://www.w3.org/2000/svg" viewBox="0 0 36 36"><path fill="#77B255" d="M36 27a4 4 0 0 1-4 4H4a4 4 0 0 1-4-4V9a4 4 0 0 1 4-4h28a4 4 0 0 1 4 4v18z"/><path fill="#DD2E44" d="M0 13h36v10H0z"/><path fill="#141414" d="M32 5H4a4 4 0 0 0-4 4v4h36V9a4 4 0 0 0-4-4z"/><path d="M23.2 12a6 6 0 0 0-10.4 0h10.4zm-5.5-6h.6L18 8.2zm-1.5.2l.6-.1v2.2zm-1.5.4l.6-.2.4 2.2zm-1.3.7l.5-.3.8 2zm-1.3.9l.5-.4 1.1 1.9zm-1 1l.4-.4 1.4 1.7zm-1 1.3l.4-.5 1.7 1.4zM11 12l-1.1-.7-.3.6.4.1zm15.4 0h.2l-.2-.6-1.1.6zm-.8-2l.3.6-2 .8zm-1-1.1l.5.4-1.9 1.2zm-1-1l.4.3-1.6 1.5zM22.1 7l.5.3L21.4 9zm-1.4-.6l.5.2-1 2zm-1.5-.3h.6l-.7 2.2z" fill="#DD2E44"/></svg>