<svg xmlns="http://www.w3.org/2000/svg" viewBox="0 0 36 36"><path fill="#00785E" d="M36 27a4 4 0 0 1-4 4H4a4 4 0 0 1-4-4V9a4 4 0 0 1 4-4h28a4 4 0 0 1 4 4v18z"/><g fill-rule="evenodd" clip-rule="evenodd"><path fill="#FBD116" d="M18 8.6l.4 1.1h1.3l-1 .8c0 .4.2.7.3 1.1h-.2c-.3-.2-.5-.5-.8-.6l-1 .7c0-.4.3-.8.4-1.2l-1-.7h1.2l.4-1.2zM12.5 12l.7-.5-.2-.8c.2 0 .4.3.7.5l.7-.5-.3.8.7.5h-.9l-.2.8c-.2-.2-.2-.5-.3-.8H12.5zm10.7 0h-.6l-.2.8-.3-.8h-.9l.7-.5c0-.3-.2-.5-.3-.8l.7.5.7-.5-.2.8.7.5h-.3zm-12 1.5c.2.2.2.5.3.8l.8.1-.7.4.1.8s-.2 0-.3-.2l-.3-.3-.8.4.4-.7-.6-.6h.8l.4-.7zm13.9.7h.8l-.6.6.4.7c-.3 0-.5-.3-.8-.4l-.6.6.1-.9-.7-.4h.8l.2-1 .4.8z"/><path fill="#FFF" d="M21.4 23.2c-1.5 0-2.5-.7-3.4-1.5-.9.8-1.9 1.4-3.4 1.5H10c0 .2.2.4.3.5H15c1.4 0 2.3-.6 3.1-1.2.8.6 1.7 1.2 3 1.2h4.6l.3-.4h-4.5zm3.6 1.2s.1-.1 0-.1H11l.2.3h13.6l.2-.2zm-.8.8V25H11.8v.1l.5.3h11.4c.2 0 .3-.2.5-.3zM23 26H12.9l1 .5h8.3l.9-.5zm-1.6.8h-7c.9.3 1.8.6 3 .6h1.1c1 0 2-.3 2.9-.6z"/><path fill="#FFF" d="M16 16.6c0 1.2.3 2 .8 2.8-.4-.9-.8-1.8-.7-3 .2-1.6 1-3 2-3.7.8.8 1.6 2 1.8 3.6a6 6 0 0 1-.8 3.2 5 5 0 0 0 1-2.9v-.2c0-.9-.2-1.6-.5-2.2l.5-.8c.3.6.6 1.3.7 2.2v.8a5.4 5.4 0 0 1-1 2.7l.2-.2c1-.9 2.3-1.6 4.1-1.7h.4l-.1.3-.3.3c-2 0-3.3.8-4.3 1.8a8 8 0 0 1 3.1-1.3 8 8 0 0 1 3.2.5 5 5 0 0 1-1.4 2c-.8.8-1.8 1.4-3.3 1.5h-.6 1c1.6 0 2.6-.7 3.5-1.4.1 0 .7 0 .6.2a5.3 5.3 0 0 1-3.7 1.7h-.6c-1.5 0-2.5-.7-3.4-1.4l-.2-.2-.2.2c-.9.7-2 1.3-3.4 1.4h-.5a5.3 5.3 0 0 1-3.8-1.7V21l.6-.1a5.6 5.6 0 0 0 4 1.4h.5-.6a5.2 5.2 0 0 1-3.6-1.7 5 5 0 0 1-1-1.8c.8-.4 1.9-.6 3-.5 1.3.2 2.4.7 3.2 1.3l.1.1v-.1a6.6 6.6 0 0 0-4.4-1.8l-.5-.6h.5c1.8.1 3 .8 4 1.7l.4.3c0-.1 0 0-.1 0V19c-.5-.8-.9-1.5-1-2.6v-.8c.1-.9.4-1.6.7-2.2l.5.8L16 16v.6zm.8 2.8z"/></g></svg>