<svg xmlns="http://www.w3.org/2000/svg" viewBox="0 0 36 36"><path fill="#D20000" d="M34.6 6H32l-1.5-1H20l-2 1-2-1H5.5L4 6H1.4A4 4 0 0 0 0 9v6.5L1 18l-1 2.5V27a4 4 0 0 0 1.4 3H4l1.5 1H16l2-1 2 1h10.5l1.5-1h2.6a4 4 0 0 0 1.4-3v-6.5L35 18l1-2.5V9a4 4 0 0 0-1.4-3z"/><path fill="#FFE600" d="M36 20.5v-5l-13.7 1.9c0-.7-.3-1.4-.8-2L34.6 6A4 4 0 0 0 32 5h-1.5l-9.7 9.7c-.6-.6-1.4-1-2.4-1L20 5h-4l1.6 8.7c-1 0-1.8.4-2.4 1L5.5 5H4c-1 0-2 .4-2.6 1l13 9.4c-.3.6-.6 1.3-.7 2L0 15.5v5l13.7-1.9c0 .7.3 1.4.8 2L1.4 30A4 4 0 0 0 4 31h1.5l9.7-9.7c.6.6 1.4 1 2.4 1L16 31h4l-1.6-8.7c1 0 1.8-.4 2.4-1l9.7 9.7H32c1 0 2-.4 2.6-1l-13-9.4c.3-.6.6-1.3.7-2L36 20.5z"/><path fill="#D20000" d="M18 13.6a4.4 4.4 0 1 0 0 8.8 4.4 4.4 0 0 0 0-8.8zm0 7.8a3.4 3.4 0 1 1 0-6.8 3.4 3.4 0 0 1 0 6.8z"/></svg>