<svg xmlns="http://www.w3.org/2000/svg" viewBox="0 0 36 36"><path fill="#C00" d="M32 5H4a4 4 0 0 0-4 4v4.5h36V9a4 4 0 0 0-4-4z"/><path fill="#060" d="M0 27a4 4 0 0 0 4 4h28a4 4 0 0 0 4-4v-4.5H0V27z"/><path fill="#EEE" d="M0 13.5h36v9H0z"/><g fill="#FFAC33"><path d="M16.1 21.5a.8.8 0 0 1-.6-.3l.3-.2.2-.5.3.5h.3s0 .3-.5.5zm5.2.4a13.2 13.2 0 0 0-6.4 0c-.6.2-.5.8 0 .6s1.6-.4 3.2-.4c1.5 0 2.7.2 3.2.4s.6-.4 0-.6zm-3-1.1l-.2-.5-.3.5-.4.2s.3.3.7.3.7-.3.7-.3l-.5-.2zm1.7.7c.5 0 .7-.3.7-.3l-.3-.2-.2-.5-.3.5h-.4s.1.3.5.5z"/><path d="M22.4 20.2c0-.3-.3.4-1 .3-.8 0-1-.9-1-.9s-.6.6-1.2.4c-.7-.3-.9-.8-.9-1.2v-1c.1-.3.5-.5.8-.2.3-.4-.2-1.2-1-1.2s-1.3.8-1 1.2c.3-.3.6 0 .7.2v1c0 .4-.1.9-.8 1.2s-1.2-.4-1.2-.4-.2.8-1 1c-.7 0-1-.7-1-.4-.2.3.4 1 1.2.8.8-.3.9-1 .9-1s.4.8 1.3.5c.8-.2.9-.9.9-.9s.1.7.8 1c1 .2 1.4-.5 1.4-.5s.1.6.9 1c.8.2 1.3-.6 1.2-.9zm-5-3.1c.2-.4.7-.4.7-.4s.5 0 .7.4c-.4 0-.7.3-.7.3s-.3-.3-.7-.3zm-4 1l.1.6h.7l-.5.4.2.6-.6-.4-.5.4.2-.6-.5-.4h.6zm.6-2.2l.2.6h.6l-.5.4.2.6-.5-.4-.6.4.2-.6-.5-.4h.7zm1.6-1.8l.2.6h.7l-.5.4.2.6-.6-.4-.5.4.2-.6-.5-.4h.6zm2.5-.6l.2.6h.6l-.5.4.2.6-.5-.4-.5.4.2-.6-.6-.4h.7zm4.6 4.6l-.2.6h-.7l.5.4-.2.6.6-.4.5.4-.2-.6.5-.4h-.6zm-.7-2.2l-.2.6h-.6l.5.4-.2.6.5-.4.6.4-.2-.6.5-.4h-.7zM20.4 14l-.2.6h-.7l.5.4-.2.6.6-.4.5.4-.2-.6.5-.4h-.6z"/></g></svg>