<svg xmlns="http://www.w3.org/2000/svg" viewBox="0 0 36 36"><path fill="#EEE" d="M36 27a4 4 0 0 1-4 4H4a4 4 0 0 1-4-4V9a4 4 0 0 1 4-4h28a4 4 0 0 1 4 4v18z"/><path d="M8.8 8.1h.5l.9 2.5L11 8h.5v3h-.3V8.6l-.9 2.4H10L9 8.6V11h-.3V8.1zm4.6 0h.4l1 2.9h-.4l-.3-.9H13l-.3.9h-.4l1-2.9zm.6 1.7l-.4-1.2-.5 1.2h.9zm.7-1.7h.4l.8 1.4.9-1.4h.4l-1 1.7V11h-.4V9.8l-1.1-1.7zm5.2.4c.2.3.3.6.3 1s-.1.8-.3 1c-.3.4-.6.6-1.1.6-.5 0-.8-.2-1-.5-.3-.2-.4-.6-.4-1s.1-.7.3-1c.2-.4.6-.5 1.1-.5.5 0 .9.1 1.1.4zm-.3 1.9l.2-.9c0-.3 0-.6-.3-.8a.9.9 0 0 0-.7-.3 1 1 0 0 0-.7.3c-.2.2-.3.5-.3 1 0 .2 0 .5.3.7s.4.3.7.3c.4 0 .6 0 .8-.3zM22.8 8v.4h-1V11h-.4V8.5h-1V8h2.4zm2.6 0v.4h-1V11H24V8.5h-1V8h2.4zm.6 0h2v.4h-1.6v.9h1.5v.3h-1.5v1H28v.3h-2V8.1z" fill="#D42E11"/><path fill="#231F20" d="M18 25l-.1-.2s0-.9-.9-.9h-2c-1.1 0-1.8-.8-1.8-2.1v-8.5h9.6v8.5c0 1.3-.7 2.1-1.8 2.1h-2c-.9 0-.9.9-.9.9l-.1.1z"/><path fill="#EEE" d="M13.4 13.5v8.3c0 1 .5 1.9 1.6 1.9h2c.6 0 .9.2 1 .6.1-.4.4-.6 1-.6h2c1 0 1.6-.8 1.6-2v-8.2h-9.2z"/><path fill="#269" d="M20.5 16.5c0 .6-.4 1-1 1s-1-.4-1-1 .4-1 1-1 1 .5 1 1z"/><path fill="#269" d="M20.5 18c0 .6-.4 1-1 1s-1-.4-1-1 .4-1 1-1 1 .5 1 1z"/><path fill="#269" d="M19 16.5c0 .6-.4 1-1 1s-1-.4-1-1 .4-1 1-1 1 .5 1 1z"/><path fill="#269" d="M19 18c0 .6-.4 1-1 1s-1-.4-1-1 .4-1 1-1 1 .5 1 1z"/><path fill="#269" d="M17.5 16.5c0 .6-.4 1-1 1s-1-.4-1-1 .4-1 1-1 1 .5 1 1z"/><path fill="#269" d="M17.5 18c0 .6-.4 1-1 1s-1-.4-1-1 .4-1 1-1 1 .5 1 1z"/><path fill="#171796" d="M22 16.5a1 1 0 0 0-.4-.7c.2-.2.4-.5.4-.8a1 1 0 1 0-1.7-.7 1 1 0 0 0-.8-.3 1 1 0 0 0-.8.4 1 1 0 0 0-.7-.4 1 1 0 0 0-.8.4 1 1 0 0 0-.7-.4 1 1 0 0 0-.8.4 1 1 0 0 0-.7-.4 1 1 0 1 0-.6 1.8c-.3.1-.4.4-.4.7s.1.6.4.8a1 1 0 0 0-.4.7c0 .6.4 1.3 1 1.3h6c.6 0 1-.6 1-1.2a1 1 0 0 0-.4-.8c.2-.1.4-.5.4-.8z"/><path fill="#D42E11" d="M22 19c0-.2 0-.3-.2-.5h-7.6a1 1 0 0 0-.2.5c0 .3.1.6.4.8-.3.2-.4.4-.4.7s.1.6.4.8a1 1 0 0 0-.4.7c0 .6.4 1 1 1 .3 0 .6-.1.7-.3a1 1 0 0 0 1.6 0 1 1 0 0 0 1.4 0 1 1 0 0 0 1.6 0A1 1 0 0 0 22 22a1 1 0 0 0-.4-.7c.3-.2.4-.5.4-.8s-.1-.5-.4-.7c.3-.2.4-.5.4-.8z"/><path fill="#EEE" d="M18 17a2 2 0 0 1-2-1.5v.5a2 2 0 1 0 4-.5 2 2 0 0 1-2 1.5z"/><path fill="#FFAC33" d="M16.9 20.6l-.3-.1.3-.1c.3-.2.4-.4.4-.5l-.6.1-.3.2V20l-.1-.6c-.2 0-.2.3-.2.6v.3l-.3-.2c-.3-.1-.5-.2-.6-.1 0 .1.1.3.4.5l.3.1-.3.1c-.3.2-.4.4-.4.5l.6-.1.3-.2v.3c0 .3 0 .6.2.6l.2-.6v-.3l.2.2c.3.1.5.2.6.1 0-.1-.1-.3-.4-.5zm3.5 0l-.3-.1.3-.1c.3-.2.4-.4.4-.5l-.6.1-.3.2V20l-.1-.6-.2.6v.3l-.3-.2c-.3-.1-.5-.2-.6-.1 0 .1.1.3.4.5l.3.1-.3.1c-.3.2-.4.4-.4.5l.6-.1.3-.2v.3c0 .3 0 .6.2.6s.2-.3.2-.6v-.3l.2.2c.3.1.5.2.6.1 0-.1-.1-.3-.4-.5z"/><path fill="#CCD6DD" d="M9.2 28.7s2.4-1.3 3.1-1.5c.8-.2 1.7-.2 1.3.3-.3.5.1 1.2-.4 1.1s-1.8.5-2.3.7l-1.1.6-.6-1.2z"/><path fill="#66757F" d="M14 27.8l-.3-.6s0 .2-.4.3c-.3.1-.5.4-.4.5 0 .2 1.1-.2 1.1-.2z"/><path fill="#CCD6DD" d="M27.2 28.7s-2.4-1.3-3.2-1.5c-.8-.2-1.7-.2-1.3.3.3.5 0 1.2.5 1.1a8 8 0 0 1 2.2.7l1.2.6.6-1.2z"/><path fill="#66757F" d="M22.3 27.8l.3-.6s.1.2.4.3c.3.1.6.4.5.5-.1.2-1.2-.2-1.2-.2z"/><path fill="#CCD6DD" d="M22 27.3a14 14 0 0 0-2.8-.3h-2c-.6 0-2.2.1-2.8.3-.6.2-1.1.7-1.5.7l.2.8c.1.5.5.4 1 .2.5-.3 1.2-.4 1.9-.4h4.4c.6 0 1.3.1 1.8.4.5.2 1 .3 1-.2l.3-.8c-.4 0-1-.5-1.5-.7z"/><path fill="#99AAB5" d="M15.6 27.5h1.7v.8h-1.7zm2.6 0h3v.8h-3z"/><path fill="#CCD6DD" d="M6.5 12.9l1 .2.8-.6s1-.4 1.5-.1c.6.3.1.2-.4.3s-.6.7-.5.9c.2.2.8.3.7-.2 0-.2.8.3.7.7v.5s-.1 1 .6 1.2.6.9 0 .8-1.7-.8-1.7-.8-.6.4-.7.1c0 0-1.3-.3-1.1-1.4 0 0-.4 1.3.4 1.7 1.1.6 1.3.2 2.3 1 1.1.9 2 2.6 1.8 5s-1 4-3.7 4a2.3 2.3 0 0 1-2.4-2.4c0-1.1 1-1.8 1.7-1.8.8 0 1 .8 1 1-.3.6-.7.1-.4-.2.1-.1-.2-.4-.5-.4-.8 0-1.2.7-1.2 1.4 0 .8.8 1.8 1.8 1.8s2.1-.9 2.1-2.3-.6-2.3-1.5-3.1l-.5.9s-1.8-.3-2.9-1.4c-1-1-1-2.4-.7-2.3.4.4 1.5.4 1.5.4l-.7-1c-.3-.2-1-1-.5-2.1.5-1 1.2-1.4 1.3-1 .2.3.6 0 .5-.3l-.3-.5z"/><path fill="#99AAB5" d="M6 17.4c.5.8 1.2 1.9 2.2 2.4 1 .5 2.2 2 2.2 3.3s-1 2.5-2.2 2.5c-1.2 0-1.8-1.1-1.8-1.9s.6-1.1.6-1.1-.7.1-.8 1c-.2.9.6 2.2 2 2.2 1.9 0 2.6-1.3 2.6-2.7s-1.3-3-2.1-3.9L6.2 17c-.5-.5-.3.5-.3.5z"/><path fill="#CCD6DD" d="M29.5 12.9l-1 .2-.8-.6s-1-.4-1.6-.1c-.5.3 0 .2.4.3s.6.7.5.9c-.2.2-.7.3-.7-.2 0-.2-.8.3-.7.7l.1.5s0 1-.6 1.2-.6.9 0 .8 1.7-.8 1.7-.8.5.4.6.1c0 0 1.3-.3 1.2-1.4 0 0 .4 1.3-.4 1.7-1.2.6-1.3.2-2.3 1-1.2.9-2.1 2.6-1.8 5s1 4 3.6 4c1.6 0 2.4-1.2 2.4-2.4 0-1.1-1-1.8-1.7-1.8-.8 0-1 .8-1 1 .4.6.7.1.5-.2-.2-.1.1-.4.5-.4.7 0 1.1.7 1.1 1.4 0 .8-.8 1.8-1.8 1.8s-2-.9-2-2.3.5-2.3 1.5-3.1l.4.9s1.9-.3 3-1.3.8-2.5.7-2.4c-.5.4-1.5.4-1.5.4s.4-.8.7-1c.3-.2.9-1 .4-2.1s-1.1-1.4-1.3-1c-.2.3-.6 0-.5-.3l.4-.5z"/><path fill="#99AAB5" d="M30 17.4c-.6.8-1.3 1.9-2.3 2.4-1 .5-2.1 2-2.1 3.3s.9 2.5 2.1 2.5c1.3 0 1.9-1.1 1.9-1.9s-.7-1.1-.7-1.1.7.1.9 1c.1.9-.7 2.2-2 2.2-2 0-2.6-1.3-2.6-2.7s1.2-3 2-3.9l2.6-2.3c.5-.6.2.5.2.5z"/></svg>