<svg xmlns="http://www.w3.org/2000/svg" viewBox="0 0 36 36"><path fill="#3A75C4" d="M0 18v9a4 4 0 0 0 4 4h28a4 4 0 0 0 4-4v-9H0z"/><path fill="#FFC61E" d="M36 18V9a4 4 0 0 0-4-4H4a4 4 0 0 0-4 4v9h36z"/><path fill="#CE1126" d="M0 18h36v6.5H0z"/><path fill="#EEE" d="M0 11.5h36V18H0z"/><path fill="#3D8E33" d="M1.4 6A4 4 0 0 0 0 9v18a4 4 0 0 0 1.4 3l16.1-12L1.4 6z"/><g fill="#FFF"><path d="M4 18c0-2.6 1.8-4.8 4.2-5.4a5.5 5.5 0 1 0 0 10.8A5.5 5.5 0 0 1 4 18z"/><path d="M7.6 14.9l.6-.5.6.5-.2-.7.6-.5h-.8l-.2-.7-.2.7h-.8l.6.5zm0 2.6l.6-.4.6.4-.2-.7.6-.4h-.8l-.2-.7-.2.7h-.8l.6.4zm0 2.6l.6-.4.6.4-.2-.7.6-.4h-.8l-.2-.7-.2.7h-.8l.6.4zm.6 2.2l.6.5-.2-.7.6-.5h-.8l-.2-.7-.2.7h-.8l.6.5-.2.7z"/></g></svg>