<svg xmlns="http://www.w3.org/2000/svg" viewBox="0 0 36 36"><path fill="#20603D" d="M36 27a4 4 0 0 1-4 4H4a4 4 0 0 1-4-4V9a4 4 0 0 1 4-4h28a4 4 0 0 1 4 4v18z"/><path fill="#FAD201" d="M0 19h36v7H0z"/><path fill="#00A1DE" d="M32 5H4a4 4 0 0 0-4 4v12h36V9a4 4 0 0 0-4-4z"/><path fill="#FAD201" d="M26 5l.5 4 1.6-3.7-.6 4L30 6.1l-1.6 3.7 3.3-2.5-2.5 3.3L32.9 9l-3.2 2.5 4-.6-3.7 1.6 4 .5-4 .5 3.7 1.6-4-.6 3.2 2.5-3.7-1.6 2.5 3.3-3.3-2.5 1.6 3.7-2.5-3.2.6 4-1.6-3.7-.5 4-.5-4-1.6 3.7.6-4-2.5 3.2 1.6-3.7-3.3 2.5 2.5-3.3-3.7 1.6 3.2-2.5-4 .6 3.7-1.6-4-.5 4-.5-3.7-1.6 4 .6L19.1 9l3.7 1.6-2.5-3.3 3.3 2.5L22 6.1l2.5 3.2-.6-4L25.5 9z"/><circle fill="#00A1DE" cx="26" cy="13" r="4"/><circle fill="#FAD201" cx="26" cy="13" r="3"/></svg>