<svg xmlns="http://www.w3.org/2000/svg" viewBox="0 0 36 36"><path fill="#006847" d="M4 5a4 4 0 0 0-4 4v18a4 4 0 0 0 4 4h7V5H4z"/><path fill="#CE1126" d="M32 5h-7v26h7a4 4 0 0 0 4-4V9a4 4 0 0 0-4-4z"/><path fill="#EEE" d="M11 5h14v26H11z"/><path fill="#A6D388" d="M23 18a5 5 0 1 1-10 0h-1a6 6 0 0 0 12 0h-1z"/><path d="M13.5 20.3a.5.5 0 0 0-.6-.2c-.3 0-.4.4-.2.6l.2.5v.1h.1l.2.3a.5.5 0 0 0 .7 0c.2 0 .2-.4 0-.6a6 6 0 0 1-.4-.7zm-.5-1.6a5.3 5.3 0 0 1 0-.8c0-.3-.2-.6-.5-.6s-.5.3-.5.5v1a.5.5 0 0 0 .6.5c.3 0 .5-.3.4-.6zm5.3 4.3a5 5 0 0 1-.9 0 .5.5 0 0 0 0 1h1c.3 0 .5-.3.5-.5 0-.3-.3-.5-.6-.5zm-2.4-.5a5 5 0 0 1-.7-.4h-.3c-.2 0-.3 0-.4.2-.2.2-.1.5.1.7l.9.4s.1.1.2 0c.2 0 .4 0 .4-.2.2-.2 0-.5-.2-.7zm5-.4l-.2.1-.8.4a.5.5 0 0 0 .3 1h.1l.2-.1h.1v-.1h.2v-.1h.1v-.1h.1l.2-.1c.3-.2.3-.5.2-.7a.6.6 0 0 0-.5-.3zm2.6-4.6c-.3 0-.5.3-.5.5v.9a.5.5 0 0 0 1 .1v-1c0-.3-.2-.5-.5-.5zm-.4 2.7a.5.5 0 0 0-.7.2l-.5.7a.5.5 0 0 0 .8.6l.3-.4v-.1h.1V21h.1v-.1c.2-.2.1-.5-.1-.7z" fill="#5C913B"/><ellipse fill="#55ACEE" cx="18" cy="21" rx="3" ry="1"/><ellipse fill="#FFCC4D" cx="18.5" cy="21" rx="1.5" ry="1"/><path fill="#5C913B" d="M19.1 21.3a.5.5 0 0 1-.4-.8l.5-.8h-.5c-.2 0-.5-.2-.5-.5s.2-.5.5-.5h1c.1 0 .3 0 .4.2l.3-.2.2-.1.4-.1a.5.5 0 0 1 .5.6c-.1.3-.3.4-.6.4l-.2.2H20v.5l-.5.8c-.1.2-.3.3-.5.3zm-1.4-1.6a7 7 0 0 1-1.1-.2.5.5 0 0 1-.4-.7c-.1.3-.4.4-.6.2l-1-.6a.5.5 0 0 1 .8-.8l.6.6c.3 0 .3.3.3.6 0-.3.3-.4.6-.3l.9.2a.5.5 0 0 1-.1 1zm-2.5-2.4c-.4 0-1-.1-1.3-.5a3 3 0 0 1-.7-2l-.3-.3-.3.1c-.1.1-.2.2-.4.1a.3.3 0 0 1 0-.3c0-.3.4-.5.8-.4.4.1.7.4.7.9 0 .4.2 1 .6 1.6.2.2.6.3.9.3h.3l-1-.7c-.3-.1-.4-.3-.4-.5-.1-.4.4-.9.8-1.3l.4-.4v-.3c0-.2-.3-.4-.7-.5a.7.7 0 0 1-.6-.4c-.2-.4-.1-.8.2-1.3 0-.1.2-.2.3-.1.2 0 .2.2.1.3-.3.5-.2.8-.2.9l.3.2c.5 0 1 .3 1.1.7.1.3 0 .5-.1.8l-.4.4c-.3.3-.8.7-.7 1 .8.4 1.3.7 1.4 1v.4c-.1.2-.3.3-.6.3h-.2z"/><ellipse fill="#FFCC4D" cx="19.5" cy="18" rx=".5" ry="1"/><path fill="#FFCC4D" d="M17.3 17.2c0 .3-.4.5-.8.5s-.7-.2-.7-.5.3-.5.7-.5c.4 0 .8.2.8.5zM16 12.6c0 .2-.2.4-.6.5-.4.1-.8 0-.8-.2s.2-.5.6-.6c.4 0 .8 0 .8.3z"/><path fill="#C1694F" d="M22.5 18l.3-1v-2.3l.2-.1c-.4.1-.5-.8-.9-1.4-.3-.5-.8-.9-1.2-1.2l.1-.3c-.5.3-1.4-.7-2.8-.6-.3 0-.4 0-.5.2-.2 0-.5 0-.5.4 0 0 0 .2.3.2.2 0 .3 0 .5.3v.3l-.3-.3h.1-.3s-.4-.3-.7-.2v-.3c0 .2-.2.2-.2.3l-.1-.3-.2.4h-.1v-.3l-.2.4-.1-.2c0 .3-.3.5-.5.7-.1.1 0 .1 0 .2h.4v.1c.3 0 .7-.2 1 .3-.2 0-.3.3-.3.4h.2c-.3.2-.4.5-.4.5h.1c-.5.6 0 1.1 0 1.4 0 .2 0 0 .1 0 .1.4.4.6.5.9h-.3l.2.4h-.2l-.3.3c-.1.2.3.2.5.3v.2l.6-.1h.3s.1-.2 0-.4l.4.5h.1l.3.4h.4l.2-.1h.1l.1.1.1-.2h.1l.5.3h.3c.1.1.4.2.5 0 .2.1.5 0 .5-.1h.6s.2-.1 0-.2c-.7-.5-1.8-1.4-2.3-1.6l-.2-.9v-.2l.6.3.4.6h.2a2 2 0 0 0-.6-.9l.7.5.2.6c.1 0 .2.2.2 0l-.3-.7c.4.2.4.6.5.9 0 .1 0 .3.1.2V16l-.1-.3c.2.1.3.7.4 1.3v.3l.2.1-.1-1.2v-.4l.3 1.3v.4h.1l.1-.7v-1.2.7l.2.8v.9z"/></svg>