<svg xmlns="http://www.w3.org/2000/svg" viewBox="0 0 36 36"><path fill="#00247D" d="M32 5H4a4 4 0 0 0-.6 0v1.8H.7A4 4 0 0 0 0 9v18a4 4 0 0 0 4 4h28a4 4 0 0 0 4-4V9a4 4 0 0 0-4-4z"/><path fill="#FFF" d="M33.5 22.6l-.8-.6c-.3-.5-.6-.6-.8-.6h-.1l.2-.5v-9.3H21.9V21c0 .1 0 .3.2.5H22c-.3 0-.6 0-.9.6l-.7.6c-.3.2-.4.4-.4.7 0 .4.2.9.6 1.2l.5.2c.3 0 .5-.1.7-.3 1.6 1.4 3.3 2 5.1 2s3.5-.6 5.2-2c.1.2.4.3.6.3.2 0 .4 0 .6-.2.3-.3.6-.8.5-1.2a1 1 0 0 0-.3-.7z"/><path fill="#006129" d="M27 24c-2.3-1-4.6-2.4-4.6-3.1V12h9v9c0 .7-2.3 2.1-4.5 3.1z"/><path fill="#FFC6B5" d="M25 17.9c-.1 0-.2-.5 0-.9.3-.4 1.1-1.2 1.3-1.9s.5-.6.6-.8c.2-.2.2-.5 0-.5s-.4-.1-.2-.7c.1-.6.8-.6.8-.1 0 .4-.2.8 0 1 .2.4.5.3.7 1 .3.6.3 1.2.2 1.5s-.2 1.2-.4 1.5-.5.2-.4-.3c0-.5.4-1.2.4-1.5.1-.4 0-1-.4-1.1-.4-.1-1 .7-1.3 1-.3.3-.9.6-1 .9 0 .2 0 .8-.2.9z"/><path fill="#FFF" d="M28.8 21.9c-.4 0-1.2.4-1.6.2-.5 0-1.2.2-1.4 0l.2-1.3v-.7s-.3 0-.2-.7l.4-1.9s-.2 0-.1-.5l.3-1.4c0-.2-.4-.2-.3-.5l.3-.6.4-.4c.1 0 .3.3.5.2.1-.1.1-.3.3-.2.2 0 .7.4.6.5s-.3.4-.3.8l-.4 1.7.5 1.7.8 3z"/><path fill="#9C5100" d="M26.7 12.6c0-.2.5-.4.9-.1s.5.8.3 1.2c-.3.3-.5.2-.6 0l-.1-.6-.1-.3c-.2 0-.5.2-.4-.2z"/><path fill="red" d="M23.1 12.5s-.2.2-.1.4l.1.4.2-.4s-.2 0-.1-.2v-.2z"/><path fill="#F8C600" d="M22.9 13.2h.8s.1-.4.3-.4l.2.4h.5c.1 0 .6 0 .3.2s-.1-.2-.3 0l-.3.3c0 .1-.1.2-.4.2-.3 0-.4 0-.4-.2l-.4-.2a.5.5 0 0 1-.3-.3z"/><path fill="red" d="M23.1 14s-.2.3-.1.5l.1.4.2-.4c0-.1-.2 0-.1-.2v-.2z"/><path fill="#F8C600" d="M22.9 14.8h.8s.1-.4.3-.4l.2.4h.5c.2-.2.6 0 .3.2-.3.1-.1-.2-.3 0l-.3.3c0 .1-.1.2-.4.2-.3 0-.4-.1-.4-.2 0-.2-.2-.2-.4-.2a.5.5 0 0 1-.3-.3z"/><path fill="red" d="M23.1 15.8s-.2.3-.1.5 0 .4.1.3l.2-.3c0-.1-.2-.1-.1-.2v-.3z"/><path fill="#F8C600" d="M22.9 16.6h.8s.1-.4.3-.4l.2.3h.5c.1 0 .6 0 .3.2s-.1-.2-.3 0l-.3.4-.4.1c-.3 0-.4 0-.4-.2l-.4-.2c-.2 0-.3-.2-.3-.2z"/><path fill="red" d="M24.1 17.6c0-.1-.2.2-.1.4s0 .4.1.3l.2-.3c0-.1-.2 0-.1-.2v-.2z"/><path fill="#F8C600" d="M23.9 18.3h.8s.1-.4.3-.4l.2.4h.5c.2-.2.6 0 .3.1-.3.2-.1-.2-.3 0-.2.2-.4.3-.3.4l-.4.1-.4-.1c0-.2-.2-.2-.4-.3l-.3-.2z"/><path fill="red" d="M23 19c0-.1-.2.2-.1.4 0 .2 0 .4.2.3l.1-.3c.1-.1-.1 0 0-.2L23 19z"/><path fill="#F8C600" d="M22.8 19.7h.8s.1-.4.3-.4c.2 0 .2.4.2.4h.6c.2-.2.6 0 .3.1-.4.2-.2-.2-.4 0l-.3.4-.4.1-.4-.1c0-.2-.1-.2-.4-.3l-.3-.2z"/><path fill="red" d="M23 20.6s-.2.2-.1.5c0 .2 0 .3.2.3l.1-.3c.1-.1-.1-.1 0-.2l-.1-.3z"/><path fill="#F8C600" d="M22.8 21.3h.8s.1-.3.3-.3c.2 0 .2.3.2.3h.6c.2-.1.6 0 .3.2-.4.2-.2-.2-.4 0l-.3.4-.4.1c-.2 0-.4 0-.4-.2l-.4-.2c-.3 0-.3-.3-.3-.3z"/><path fill="red" d="M29 20.6s-.2.2-.1.5l.1.3c.2 0 .1-.2.2-.3 0-.1-.2-.1-.1-.2v-.3z"/><path fill="#F8C600" d="M28.8 21.3h.8s.1-.3.3-.3l.2.3h.6c.1 0 .5 0 .2.2s-.1-.2-.3 0c-.2.2-.4.3-.3.4l-.4.1c-.3 0-.4 0-.4-.2l-.4-.2a.5.5 0 0 1-.3-.3z"/><path fill="red" d="M29 19s-.2.3-.1.5c0 .2 0 .4.1.3.2 0 .1-.2.2-.3 0-.1-.2 0-.1-.2V19z"/><path fill="#F8C600" d="M28.8 19.8h.8s.1-.4.3-.4.2.4.2.4h.6c.1-.2.5 0 .2.1s-.1-.2-.3 0l-.3.4-.4.1-.4-.1c0-.2-.2-.2-.4-.3a.5.5 0 0 1-.3-.2z"/><path fill="red" d="M29 17.5c0-.1-.2.2-.1.4 0 .2 0 .4.1.3.2 0 .1-.2.2-.3 0-.1-.2 0-.1-.2v-.2z"/><path fill="#F8C600" d="M28.8 18.2h.8s.1-.4.3-.4.2.4.2.4h.6c.1-.2.5 0 .2.1s-.1-.2-.3 0l-.3.4-.4.1-.4-.1c0-.2-.2-.2-.4-.3a.5.5 0 0 1-.3-.2z"/><path fill="red" d="M29 15.8s-.2.3-.1.5c0 .2 0 .4.1.3.2 0 .1-.2.2-.3 0-.1-.2-.1-.1-.2v-.3z"/><path fill="#F8C600" d="M28.8 16.6h.8s.1-.4.3-.4.2.3.2.3h.6c.1 0 .5 0 .2.2s-.1-.2-.3 0l-.3.4-.4.1c-.3 0-.4 0-.4-.2l-.4-.2a.5.5 0 0 1-.3-.2z"/><path fill="red" d="M29 14.2c0-.1-.2.2-.1.4l.1.4c.2 0 .1-.2.2-.4 0-.1-.2 0-.1-.2v-.2z"/><path fill="#F8C600" d="M28.8 14.9h.8s.1-.4.3-.4l.2.4h.6c.1-.1.5 0 .2.2s-.1-.2-.3 0c-.2.2-.4.2-.3.3 0 .1-.1.2-.4.2-.3 0-.4-.1-.4-.2l-.4-.2a.5.5 0 0 1-.3-.3z"/><path fill="red" d="M29 12.5s-.2.2-.1.4l.1.4c.2 0 .1-.2.2-.4 0 0-.2 0-.1-.2v-.2z"/><path fill="#F8C600" d="M28.8 13.2h.8s.1-.4.3-.4.2.4.2.4h.6c.1-.1.5 0 .2.2s-.1-.2-.3 0l-.3.3c0 .1-.1.2-.4.2-.3 0-.4 0-.4-.2l-.4-.2a.5.5 0 0 1-.3-.3zm4.4 9.9l-1-.9c-.1-.2-.3-.5-.6-.2-.2.3-2.4 2.4-4.7 2.4s-4.4-2-4.7-2.4c-.3-.3-.5 0-.6.2l-1 .9c-.4.2 0 .7.3 1s.8-.4.8-.4C23 25 24.7 26 27 26s4-1.1 5.2-2.3c0 0 .5.7.8.4s.6-.8.3-1z"/><path fill="#00247D" d="M19 18V5H3.4v1.8H.7L.5 7A4 4 0 0 0 0 9v9h19z"/><path fill="#EEE" d="M19 5h-2.3L12 8.3V5H7v2.6L3.4 5a4 4 0 0 0-1.7.7L6.4 9H4.7L1 6.4l-.3.4L3.8 9H0v5h3.9L0 16.8V18h3.3L7 15.4V18h5v-3.3l4.7 3.3H19v-2l-2.8-2H19V9h-2.8L19 7V5z"/><path fill="#CF1B2B" d="M11 5H8v5H0v3h8v5h3v-5h8v-3h-8z"/><path fill="#CF1B2B" d="M19 5h-1.5L12 8.9V9h1.6L19 5.2zm-17.3.7a4 4 0 0 0-.7.7L4.7 9h1.7L1.7 5.7zM6.4 14L.7 18h1.8L7 14.8V14zM19 17.8v-1.2L15.3 14h-1.7z"/></svg>