<svg xmlns="http://www.w3.org/2000/svg" viewBox="0 0 36 36"><path fill="#D90001" d="M36 27v-1H0v1a4 4 0 0 0 4 4h28a4 4 0 0 0 4-4z"/><path fill="#FCDC02" d="M0 22h36v4H0z"/><path fill="#141414" d="M0 18h36v4H0z"/><path fill="#D90001" d="M0 14h36v4H0z"/><path fill="#FCDC02" d="M0 10h36v4H0z"/><path fill="#141414" d="M0 9v1h36V9a4 4 0 0 0-4-4H4a4 4 0 0 0-4 4z"/><circle fill="#FFF" cx="18" cy="18" r="4"/><path fill="#D90000" d="M17.3 15l-.2-.7s.6-.2 1.1 0c.4.2.5.7.5.7l-.7.2-.7-.2z"/><path fill="#FCDC02" d="M17.6 15v-.8h.4c.3 0 .5.3.5.3l-.5.5h-.4z"/><path fill="#141414" d="M17.7 16.9c0-.1 0-1 .3-1 .2-.1.7-.9 0-1.1s-.9.5-.9.5-.7.2-.6.3c.1.2.7 0 .8.1s0 .4-.5 1-.2 1.3 0 1.5l.7.6.5.3v.6h-1c-.3 0-.6.2-.7.4s.1.5.1.3.1-.1.1 0c0 .2.2.1.2 0s0-.2.1 0 .2-.1.2-.3.2-.1.4-.2h.6v1.2s-1 0-1 .2.5 0 .5 0v.4l.8-.4h.7l-.7-.3-.2-1h.6c.4 0 .3-.4 0-.6s0-.4.4-.4c.4.1.6 0 .6-.5s-1.9-1.5-2-1.6zm.8 2.7h-.3l.1-.4.2.4z"/><path fill="#D90000" d="M17.5 15.8c0-.2-.4-.2-.4 0s.3.4.4 0z"/><path fill="#9CA69C" d="M17.8 17l1.7.8c.3.1.3.7.2 1l-.2.5s-.2-.6-1-.8c-1-.4-1.2-1.3-.7-1.5z"/><path fill="#D90000" d="M19.2 17.7c.4.1 1.3.3 1.4 1.3 0 .9-.9 1.4-.9 1.4l.2-.3-.3.1.1-.2h-.4s.7-.5.5-1c0 .4-.3.5-.3.5s.3-.5-.8-1.2h.3l-.3-.3.6.2-.3-.3.6.2-.4-.4z"/><path fill="#9CA69C" d="M17.6 15.3a.1.1 0 1 1-.2 0 .1.1 0 1 1 .2 0z"/></svg>