<svg viewBox="0 0 128 128" xmlns="http://www.w3.org/2000/svg"><linearGradient id="a" x1="64" x2="64" y1="-.3" y2="128.1" gradientUnits="userSpaceOnUse"><stop stop-color="#FFEB3B" offset="0"/><stop stop-color="#FFDC28" offset=".4"/><stop stop-color="#FFC107" offset="1"/></linearGradient><path d="M116 124H12a8 8 0 0 1-8-8V12a8 8 0 0 1 8-8h104a8 8 0 0 1 8 8v104a8 8 0 0 1-8 8z" fill="url(#a)"/><path d="M116 7a5 5 0 0 1 5 5v104a5 5 0 0 1-5 5H12a5 5 0 0 1-5-5V12a5 5 0 0 1 5-5h104m0-3H12a8 8 0 0 0-8 8v104a8 8 0 0 0 8 8h104a8 8 0 0 0 8-8V12a8 8 0 0 0-8-8z" fill="#424242" opacity=".2"/><path d="M19 36l7.2.3h31.1a2 2 0 0 1 2 2V87c0 2.2 0 4.9.2 7a2 2 0 0 1-2 2h-5a2 2 0 0 1-2-2v-.5a2 2 0 0 0-2-2h-23l-7.4.1H18a2 2 0 0 1-2-2v-5.3c0-1 .9-2 2-2 2.2.2 4.7.3 7.2.3h23.5c1 0 2-.9 2-2V47c0-1.1-1-2-2-2H26.2c-2.3 0-5 0-7.2.2a2 2 0 0 1-2-2V38c0-1.1.8-2 2-2m0-3a5 5 0 0 0-5 5v5a5 5 0 0 0 5 5h.1l7-.1h21.6v31.7H25.2c-2 0-4.2 0-6.9-.2H18a5 5 0 0 0-5 5v5.3a5 5 0 0 0 5 5h.2l7.3-.3h22a5 5 0 0 0 5 4.6h5a5 5 0 0 0 5-5.2c-.2-2.2-.2-4.9-.2-6.8V38.3a5 5 0 0 0-5-5h-31c-1.7 0-4.2 0-6.9-.3H19zm52.5 3h.1l7.1.3H110a2 2 0 0 1 2 2V87l.1 7a2 2 0 0 1-2 2h-5a2 2 0 0 1-1.9-2v-.5a2 2 0 0 0-2-2h-23l-7.5.1c-1.2 0-2-.8-2-2v-5.3c0-1 .8-2 2-2 2.1.2 4.7.3 7.2.3h23.4a2 2 0 0 0 2-2V47a2 2 0 0 0-2-2H78.8c-2.2 0-5 0-7.1.2h-.1a2 2 0 0 1-2-2V38c0-1.1.9-2 2-2m0-3a5 5 0 0 0-5 5v5a5 5 0 0 0 5 5h.2l7-.1h21.5v31.7H77.8c-2 0-4.2 0-7-.2h-.3a5 5 0 0 0-5 5v5.3a5 5 0 0 0 5 5h.3l7.3-.3h22a5 5 0 0 0 5 4.6h5a5 5 0 0 0 4.9-5.2l-.2-6.8V38.3a5 5 0 0 0-4.9-5H78.7c-1.7 0-4.1 0-6.8-.3h-.4z" fill="#424242" opacity=".2"/><linearGradient id="b" x1="37.7" x2="37.7" y1="35" y2="103.5" gradientUnits="userSpaceOnUse"><stop stop-color="#424242" offset="0"/><stop stop-color="#212121" offset="1"/></linearGradient><path d="M50.5 94v-.5a2 2 0 0 0-2-2h-23l-7.4.1a2 2 0 0 1-2.1-2v-5.3c0-1.1 1-2 2.1-2 2 .2 4.6.3 7.1.3h23.5c1 0 2-.9 2-2V47c0-1.1-1-2-2-2H26.2c-2.3 0-5 0-7.2.2a2 2 0 0 1-2-2V38c0-1.2 1-2 2-2l7.2.3h31.1a2 2 0 0 1 2 2V87c0 2.1 0 4.9.2 7a2 2 0 0 1-2 2h-5a2 2 0 0 1-2-2z" fill="url(#b)"/><linearGradient id="c" x1="90.3" x2="90.3" y1="35" y2="103.5" gradientUnits="userSpaceOnUse"><stop stop-color="#424242" offset="0"/><stop stop-color="#212121" offset="1"/></linearGradient><path d="M103.1 94v-.5a2 2 0 0 0-2-2h-23l-7.5.1a2 2 0 0 1-2-2v-5.3c0-1.1 1-2 2-2 2.2.2 4.7.3 7.2.3h23.5c1 0 2-.9 2-2V47c0-1.1-1-2-2-2H78.7c-2.2 0-5 0-7.1.2a2 2 0 0 1-2.1-2V38c0-1.2 1-2 2.1-2l7.1.3H110a2 2 0 0 1 2 2V87l.1 7a2 2 0 0 1-2 2h-5a2 2 0 0 1-1.9-2z" fill="url(#c)"/></svg>