<svg viewBox="0 0 128 128" xmlns="http://www.w3.org/2000/svg"><linearGradient id="a" x1="64" x2="64" y1="5.7" y2="121.9" gradientUnits="userSpaceOnUse"><stop stop-color="#9E9E9E" offset="0"/><stop stop-color="#616161" offset="1"/></linearGradient><path d="M116 124H12a8 8 0 0 1-8-8V12a8 8 0 0 1 8-8h104a8 8 0 0 1 8 8v104a8 8 0 0 1-8 8z" fill="url(#a)"/><path d="M116 7a5 5 0 0 1 5 5v104a5 5 0 0 1-5 5H12a5 5 0 0 1-5-5V12a5 5 0 0 1 5-5h104m0-3H12a8 8 0 0 0-8 8v104a8 8 0 0 0 8 8h104a8 8 0 0 0 8-8V12a8 8 0 0 0-8-8z" fill="#424242" opacity=".2"/><path d="M43 20.6l.9.1 1.6.5a3 3 0 0 1 1.7 4.4L45 29a1 1 0 0 0 .9 1.6h52.6a3 3 0 0 1 3 3V35a3 3 0 0 1-3 3H38.9a1 1 0 0 0-.7.3c-2.5 3-5.2 5.8-8 8.2a3 3 0 0 1-4.5-.5c-.3-.6-.8-1.2-1.2-1.7a3 3 0 0 1 .5-4.2c6-4.8 11.6-11.2 15.3-18a3 3 0 0 1 2.6-1.7m47.7 22.1a2 2 0 0 1 2 2v6.1c0 .6.5 1 1 1h6.7a2 2 0 0 1 2 2v3.6a2 2 0 0 1-2 2h-6.7a1 1 0 0 0-1 1V72c0 .5.5 1 1 1h8.5a2 2 0 0 1 2 2v3.6a2 2 0 0 1-2 2H26.5a2 2 0 0 1-2-2V75c0-1.1 1-2 2-2h10.1c.6 0 1-.5 1-1V60.3c0-.5-.4-1-1-1h-7.3a2 2 0 0 1-2-2v-3.6c0-1 1-2 2-2h7.3c.6 0 1-.4 1-1v-6.1c0-1.1 1-2 2-2h3.5a2 2 0 0 1 2 2v6.1c0 .6.5 1 1 1h6c.6 0 1-.4 1-1v-6.1c0-1.1 1-2 2-2h3.2a2 2 0 0 1 2 2v6.1c0 .6.5 1 1 1h6.9c.5 0 1-.4 1-1v-6.1c0-1.1.9-2 2-2h3.1a2 2 0 0 1 2 2v6.1c0 .6.5 1 1 1h6.5c.6 0 1-.4 1-1v-6.1c0-1.1 1-2 2-2h3.8M77.3 72.9h6.5c.6 0 1-.5 1-1V60.3c0-.5-.4-1-1-1h-6.5a1 1 0 0 0-1 1V72c0 .5.5 1 1 1m-16 0h6.9c.5 0 1-.5 1-1V60.3c0-.5-.5-1-1-1h-6.9a1 1 0 0 0-1 1V72c0 .5.5 1 1 1m-15.2 0h6c.6 0 1-.5 1-1V60.3c0-.5-.4-1-1-1h-6a1 1 0 0 0-1 1V72c0 .5.5 1 1 1m47.2 10.4a2 2 0 0 1 1.7.9c2.8 4.4 6 10 8.1 14.1a2 2 0 0 1-1 2.7 1994.5 1994.5 0 0 0-5.3 2.2A2 2 0 0 1 95 102c-1.8-4-4.7-9.5-7.4-14.2a2 2 0 0 1 1-2.8 1166.3 1166.3 0 0 1 4.7-1.7m-57.6.4h.5l4.2 1.1a2 2 0 0 1 1.3 2.7c-2.1 5.1-5 10.8-7.7 15a2 2 0 0 1-2.4.8l-4.3-1.7a2 2 0 0 1-1-3A98 98 0 0 0 34 84.8a2 2 0 0 1 1.8-1.1m39 1.3a2 2 0 0 1 1.8 1.2 94 94 0 0 1 4.5 13 2 2 0 0 1-1.6 2.5l-4.3.8h-.4a2 2 0 0 1-2-1.5c-.8-3.6-2.2-8.4-3.8-12.6a2 2 0 0 1 1.5-2.6 702.4 702.4 0 0 0 4.3-.8m-18.8.7c1 0 1.8.6 2 1.6a105 105 0 0 1 1.7 12.8c0 1-.7 2-1.7 2l-4.2.7h-.3c-1 0-2-.8-2-1.9-.2-3.6-.7-8.3-1.4-12.5a2 2 0 0 1 1.8-2.3l3.9-.4h.2M43 17.5a6 6 0 0 0-5.2 3.2A60.4 60.4 0 0 1 23 37.9a6 6 0 0 0-1 8.3l1.2 1.6A6 6 0 0 0 26 50a5 5 0 0 0-1.7 3.7v3.6a5 5 0 0 0 5 5h5.3V70h-8a5 5 0 0 0-5 5v3.6a5 5 0 0 0 5 5h4.6v.1c-2 4.4-4.7 9.4-7.3 13.4a5 5 0 0 0 2.3 7.4l4.3 1.7a5 5 0 0 0 6-2 110 110 0 0 0 8-15.4 5 5 0 0 0-.8-5.2H50a5 5 0 0 0-3 5.4c.6 3.7 1 8.2 1.3 12.2a5 5 0 0 0 5.7 4.7l1.4-.2 2.8-.5a5 5 0 0 0 4.3-5.2c-.2-3.6-.9-8.5-1.8-13.2a5 5 0 0 0-2.1-3.2H68a5 5 0 0 0-2 6 88 88 0 0 1 3.7 12.1 5 5 0 0 0 5.8 3.9l4.3-.9a5 5 0 0 0 4-6c-1-4-2.8-9.1-4.6-13.5-.3-.6-.6-1.2-1-1.6h7.3a5 5 0 0 0-.6 5.9c3 5 5.7 10.2 7.3 13.8a5 5 0 0 0 6.5 2.6l1.5-.7 3-1.3a5 5 0 0 0 2.7-2.9 5 5 0 0 0-.2-4c-2-3.8-4.9-9-7.7-13.4h4a5 5 0 0 0 5-5V75a5 5 0 0 0-5-5h-6.5v-7.6h4.7a5 5 0 0 0 5-5v-3.6a5 5 0 0 0-5-5h-4.7v-4a5 5 0 0 0-1.4-3.6h4.3a6 6 0 0 0 6-6v-1.4a6 6 0 0 0-6-6h-49l.3-.7a6 6 0 0 0-3.4-8.7l-1.6-.5c-.6-.2-1.3-.3-1.9-.3zm35 23.6h5.4a5 5 0 0 0-1.5 3.5v4.1h-2.5v-4A5 5 0 0 0 78 41zm-16 0h5.7a5 5 0 0 0-1.4 3.5v4.1h-2.9v-4A5 5 0 0 0 62 41zm-15.2 0h5a5 5 0 0 0-1.5 3.5v4.1h-2v-4a5 5 0 0 0-1.5-3.6zm-14.3 7.6l2.2-2v2h-2.2zm47 13.6h2.4V70h-2.5v-7.6zm-16 0h2.8V70h-2.9v-7.6zm-15.3 0h2V70h-2v-7.6z" fill="#424242" opacity=".2"/><path d="M38.1 38.4c-2.4 3-5.1 5.8-7.9 8.2a3 3 0 0 1-4.4-.5l-1.3-1.7a3 3 0 0 1 .5-4.2c6-4.8 11.5-11.3 15.3-18.1a3 3 0 0 1 3.5-1.4l1.7.5a3 3 0 0 1 1.7 4.3L45 29.1a1 1 0 0 0 .8 1.6h52.7a3 3 0 0 1 3 3V35a3 3 0 0 1-3 3H38.9c-.3 0-.6.1-.8.3zm66 36.5v3.6a2 2 0 0 1-2 2H26.5a2 2 0 0 1-2-2v-3.6c0-1.1 1-2 2-2h10.1c.6 0 1-.5 1-1V60.3c0-.5-.4-1-1-1h-7.3a2 2 0 0 1-2-2v-3.6c0-1 1-2 2-2h7.3c.6 0 1-.4 1-1v-6.1c0-1.1 1-2 2-2h3.5a2 2 0 0 1 2 2v6.1c0 .6.5 1 1 1h6c.6 0 1-.4 1-1v-6.1c0-1.1 1-2 2-2h3.2a2 2 0 0 1 2 2v6.1c0 .6.5 1 1 1h6.9c.5 0 1-.4 1-1v-6.1c0-1.1.9-2 2-2h3.1a2 2 0 0 1 2 2v6.1c0 .6.5 1 1 1h6.5c.6 0 1-.4 1-1v-6.1c0-1.1 1-2 2-2h3.8a2 2 0 0 1 2 2v6.1c0 .6.5 1 1 1h6.7a2 2 0 0 1 2 2v3.6a2 2 0 0 1-2 2h-6.7a1 1 0 0 0-1 1V72c0 .6.5 1 1 1h8.5a2 2 0 0 1 2 2zM26.4 98.6a98 98 0 0 0 7.5-13.8 2 2 0 0 1 2.3-1l4.2 1a2 2 0 0 1 1.3 2.7c-2.1 5.1-5 10.8-7.7 15a2 2 0 0 1-2.4.8l-4.3-1.7a2 2 0 0 1-1-3zM46 73h6c.6 0 1-.5 1-1V60.3c0-.5-.4-1-1-1h-6a1 1 0 0 0-1 1V72c0 .6.5 1 1 1zm12 14.3a105 105 0 0 1 1.7 12.8c0 1-.7 2-1.7 2l-4.2.7a2 2 0 0 1-2.3-1.9c-.2-3.6-.7-8.3-1.4-12.4a2 2 0 0 1 1.8-2.3l3.9-.5c1-.1 2 .6 2.2 1.6zm2.4-27V72c0 .6.5 1 1 1h6.9c.5 0 1-.5 1-1V60.3c0-.5-.5-1-1-1h-6.9a1 1 0 0 0-1 1zm16.2 26a94 94 0 0 1 4.5 13 2 2 0 0 1-1.6 2.4l-4.3.8a2 2 0 0 1-2.4-1.5c-.8-3.6-2.2-8.4-3.8-12.6a2 2 0 0 1 1.5-2.6l4-.8a2 2 0 0 1 2.1 1.2zm-.2-26V72c0 .6.5 1 1 1h6.5c.6 0 1-.4 1-1V60.3c0-.5-.4-1-1-1h-6.5a1 1 0 0 0-1 1zM95 84.2c2.8 4.4 6 10 8.1 14.1a2 2 0 0 1-1 2.7l-4.5 2a2 2 0 0 1-2.6-1c-1.8-4-4.7-9.5-7.4-14.2a2 2 0 0 1 1-2.8l4-1.6a2 2 0 0 1 2.4.8z" fill="#FAFAFA"/></svg>