<svg viewBox="0 0 128 128" xmlns="http://www.w3.org/2000/svg"><linearGradient id="a" x1="64" x2="64" y1="4.5" y2="124.3" gradientUnits="userSpaceOnUse"><stop stop-color="#CDDC39" offset="0"/><stop stop-color="#BFC932" offset=".5"/><stop stop-color="#AFB42B" offset="1"/></linearGradient><path d="M116 124H12a8 8 0 0 1-8-8V12a8 8 0 0 1 8-8h104a8 8 0 0 1 8 8v104a8 8 0 0 1-8 8z" fill="url(#a)"/><path d="M116 7a5 5 0 0 1 5 5v104a5 5 0 0 1-5 5H12a5 5 0 0 1-5-5V12a5 5 0 0 1 5-5h104m0-3H12a8 8 0 0 0-8 8v104a8 8 0 0 0 8 8h104a8 8 0 0 0 8-8V12a8 8 0 0 0-8-8z" fill="#424242" opacity=".2"/><path d="M42 22c1 0 1.9.8 1.9 1.8v15c0 .5.5 1 1 1h6.9c1 0 1.8.8 1.8 1.8v4.5c0 1-.8 1.8-1.8 1.8h-6.9a1 1 0 0 0-1 1v13.3a1 1 0 0 0 1.3 1l6.6-1.9h.5c.9 0 1.7.6 1.8 1.5l.6 4.3c.1 1-.4 1.8-1.3 2l-8.8 2.6a1 1 0 0 0-.7 1v23.6c0 4.5-1 6.7-3.6 8-2.5 1.2-6 1.5-11.3 1.6a2 2 0 0 1-1.8-1.4c-.3-1.2-.7-2.7-1.2-4-.5-1.2.4-2.4 1.7-2.4h6c1.2 0 1.8-.4 1.8-1.8V75.7a1 1 0 0 0-1.3-1l-8.4 2.4h-.5a2 2 0 0 1-1.8-1.3l-1.3-4.7a2 2 0 0 1 1.4-2.3l11.1-2.7c.5-.1.8-.5.8-1V48.9c0-.5-.5-1-1-1H25c-1 0-1.8-.8-1.8-1.8v-4.5c0-1 .8-1.8 1.8-1.8h9.5c.5 0 1-.5 1-1v-15c0-1 .8-1.8 1.8-1.8h4.8m23 .2c1 0 1.8.8 1.8 1.8v6.8c0 1 .8 1.8 1.8 1.8h32.5c1 0 1.9.8 1.9 1.9V38c0 1-.8 1.9-1.9 1.9H68.7c-1 0-1.8.8-1.8 1.8v4.7c0 3.5 1 4.8 5 4.8h22.6c2.5 0 6.3-.1 8.9-.4h.2c.9 0 1.7.7 1.8 1.6l.4 3.7c.2 1-.6 2-1.6 2-2.4.3-6 .4-9.3.4H72c-10.3 0-13.5-3.2-13.5-12.2V24c0-1 .8-1.8 1.8-1.8H65m35.4 43.4c1 0 1.8.8 1.8 1.8v36.3c0 1-.8 1.8-1.8 1.8h-4.8c-1 0-1.8-.8-1.8-1.8s-.8-1.8-1.8-1.8H68.8c-1 0-1.8.8-1.8 1.8v.5c0 1-.8 1.8-1.8 1.8h-4.4c-1 0-1.9-.8-1.9-1.8V67.4c0-1 .9-1.8 1.9-1.8h39.7M68.8 80.4h23.3c1 0 1.8-.9 1.8-1.9v-4c0-1-.8-1.8-1.8-1.8H68.8c-1 0-1.8.8-1.8 1.8v4c0 1 .8 1.9 1.8 1.9m0 14.6h23.3c1 0 1.8-.8 1.8-1.8v-4.3c0-1-.8-1.9-1.8-1.9H68.8c-1 0-1.8.9-1.8 1.9v4.3c0 1 .8 1.8 1.8 1.8M42.1 19h-4.8a4.8 4.8 0 0 0-4.8 4.8v13H25a4.8 4.8 0 0 0-4.8 4.8v4.5c0 2.6 2.2 4.8 4.8 4.8h7.5v12.7l-9.6 2.3a4.8 4.8 0 0 0-3.6 6l.6 2 .7 2.7a4.8 4.8 0 0 0 6 3.4l3.5-1 2.4-.6V95h-4.7a4.8 4.8 0 0 0-4.6 6.5l1.1 3.6A4.8 4.8 0 0 0 29 109a31 31 0 0 0 12.6-1.8h.1c4.6-2.5 5.2-6.6 5.2-10.8V74.2l7.3-2.2c.7-.2 1.2-.5 1.7-.9v33a5 5 0 0 0 4.9 4.9h4.4c2.4 0 4.4-1.8 4.7-4.1h21.2a4.8 4.8 0 0 0 4.7 3.6h4.7c2.7 0 4.9-2.1 4.9-4.8V67.4c0-2.6-2.2-4.8-4.9-4.8H60.8a5 5 0 0 0-3.5 1.5l-.2-1.7a4.8 4.8 0 0 0-6.1-4l-3.3 1-.8.1V51h4.9a5 5 0 0 0 3.8-1.8c.8 8.8 5.7 12.5 16.4 12.5h23c3.8 0 7.3 0 9.5-.3a4.8 4.8 0 0 0 4.3-5.5l-.4-3.3v-.3A4.8 4.8 0 0 0 103 48c-2.5.3-6.1.4-8.6.4H71.9c-1.2 0-1.7-.1-1.8-.2-.1-.2-.2-.6-.2-1.7V43h31.3c2.7 0 4.9-2.1 4.9-4.8v-3.7c0-2.6-2.2-4.8-4.8-4.8H69.8V24c0-2.7-2.2-4.8-4.8-4.8h-4.8a4.8 4.8 0 0 0-4.8 4.8v14.5c-1-1-2.2-1.7-3.7-1.7h-4.9v-13c0-2.6-2.2-4.8-4.8-4.8zM70 75.7h21v1.6H70v-1.6zM70 90h21v2H70v-2z" fill="#424242" opacity=".2"/><path d="M53.4 69.2l-8.8 2.5a1 1 0 0 0-.7 1v23.6c0 4.5-1 6.7-3.6 8-2.5 1.2-6 1.5-11.3 1.6a2 2 0 0 1-1.8-1.4l-1.2-4c-.5-1.2.5-2.4 1.7-2.4h6c1.2 0 1.8-.4 1.8-1.8V75.7a1 1 0 0 0-1.3-1l-8.4 2.4c-1 .3-2-.3-2.3-1.3l-1.3-4.7a2 2 0 0 1 1.4-2.3l11.1-2.7c.5-.1.8-.5.8-1V49c0-.5-.5-1-1-1H25c-1 0-1.8-.8-1.8-1.8v-4.5c0-1 .8-1.8 1.8-1.8h9.5c.5 0 1-.5 1-1v-15c0-1 .8-1.8 1.8-1.8h4.8c1 0 1.8.8 1.8 1.8v15c0 .5.5 1 1 1h6.9c1 0 1.8.8 1.8 1.8v4.5c0 1-.8 1.8-1.8 1.8h-6.9a1 1 0 0 0-1 1v13.3a1 1 0 0 0 1.3 1l6.6-1.9c1-.3 2.1.4 2.3 1.5l.6 4.3c.1 1-.5 1.8-1.3 2zM72 58.6c-10.3 0-13.5-3.2-13.5-12.2V24c0-1 .8-1.8 1.8-1.8H65c1 0 1.8.8 1.8 1.8v6.8c0 1 .8 1.8 1.8 1.8h32.5c1 0 1.9.8 1.9 1.9V38c0 1-.8 1.9-1.9 1.9H68.7c-1 0-1.8.8-1.8 1.8v4.7c0 3.5 1 4.8 5 4.8h22.6c2.5 0 6.3-.1 8.9-.4 1 0 1.9.6 2 1.6l.4 3.7c.2 1-.6 2-1.6 2-2.4.3-6 .4-9.3.4H72zm-11.2 7h39.7c1 0 1.8.8 1.8 1.8v36.3c0 1-.8 1.8-1.8 1.8h-4.8c-1 0-1.8-.8-1.8-1.8s-.8-1.8-1.8-1.8H68.8c-1 0-1.8.8-1.8 1.8v.5c0 1-.8 1.8-1.8 1.8h-4.4c-1 0-1.9-.8-1.9-1.8V67.4c0-1 .8-1.8 1.9-1.8zm6.2 8.9v4c0 1 .8 1.8 1.8 1.8h23.3c1 0 1.8-.8 1.8-1.8v-4c0-1-.8-1.8-1.8-1.8H68.8c-1 0-1.8.8-1.8 1.8zm27 18.7v-4.3c0-1-.9-1.9-2-1.9H68.9c-1 0-1.8.9-1.8 1.9v4.3c0 1 .8 1.8 1.8 1.8h23.3c1 0 1.8-.8 1.8-1.8z" fill="#FAFAFA"/></svg>