<svg viewBox="0 0 128 128" xmlns="http://www.w3.org/2000/svg"><linearGradient id="a" x1="64" x2="64" y1="1.3" y2="126.6" gradientUnits="userSpaceOnUse"><stop stop-color="#4FC3F7" offset="0"/><stop stop-color="#3CBCF6" offset=".3"/><stop stop-color="#0AABF4" offset=".9"/><stop stop-color="#03A9F4" offset="1"/></linearGradient><path d="M116 124H12a8 8 0 0 1-8-8V12a8 8 0 0 1 8-8h104a8 8 0 0 1 8 8v104a8 8 0 0 1-8 8z" fill="url(#a)"/><path d="M116 7a5 5 0 0 1 5 5v104a5 5 0 0 1-5 5H12a5 5 0 0 1-5-5V12a5 5 0 0 1 5-5h104m0-3H12a8 8 0 0 0-8 8v104a8 8 0 0 0 8 8h104a8 8 0 0 0 8-8V12a8 8 0 0 0-8-8z" fill="#424242" opacity=".2"/><path d="M52.4 17.1h.5l5 1.3a2 2 0 0 1 1.5 2.5l-2.2 6.4a1 1 0 0 0 .9 1.3H102a2 2 0 0 1 2 2V35a2 2 0 0 1-2 2H53.7a1 1 0 0 0-.9.6c-1.2 2.5-2.5 5-3.9 7.4a1 1 0 0 0 .9 1.5H90a3 3 0 0 1 3 3v44.4c0 4.8-1 7.5-4.4 8.8-3 1.3-7.5 1.4-14.1 1.4a3 3 0 0 1-3-2.2 9 9 0 0 0-.6-2.2 3 3 0 0 1 2.9-4 199.8 199.8 0 0 0 8.4 0c1.6 0 2-.5 2-1.9v-7.2c0-.5-.4-1-1-1H47a1 1 0 0 0-1 .8 36.2 36.2 0 0 1-7.3 15.8 3 3 0 0 1-2.2 1 3 3 0 0 1-2.3-1L32 99.9a3 3 0 0 1-.2-4.1c6.1-7.1 6.7-16.4 6.7-24.4v-8.6c0-.6-.4-1-1-1a1 1 0 0 0-.7.3c-3 3.3-6.1 6.3-9.6 9a3 3 0 0 1-4.2-.5l-1.8-2.1a3 3 0 0 1 .5-4.4 78.7 78.7 0 0 0 21-25.6 1 1 0 0 0-1-1.5H23a2 2 0 0 1-2-2v-4.2c0-1.1 1-2 2-2h23.4a1 1 0 0 0 1-.7 105 105 0 0 0 3.2-9.4 2 2 0 0 1 2-1.5m-4.2 45.3h35.1c.6 0 1-.4 1-1v-6.2c0-.5-.5-1-1-1H48.3a1 1 0 0 0-1 1v6.2c0 .6.5 1 1 1m-.2 15.7h35.3c.6 0 1-.4 1-1v-6.3c0-.5-.5-1-1-1H48.3a1 1 0 0 0-1 1v.7c0 1.7 0 3.6-.2 5.5 0 .6.4 1.1 1 1.1m4.3-64a5 5 0 0 0-4.8 3.7C47 20.4 46 23 45 25.6H23a5 5 0 0 0-5 5V35a5 5 0 0 0 5 5h15.2a72.6 72.6 0 0 1-18.4 21.7 6 6 0 0 0-.9 8.8l1.7 2a6 6 0 0 0 8.3 1c2.3-1.8 4.4-3.7 6.5-5.7v3.6c0 8-.7 16.3-6 22.5a6 6 0 0 0 .4 8.1l2 2.2a6 6 0 0 0 4.6 2 6 6 0 0 0 4.5-2 38 38 0 0 0 7.5-15.5h33v4l-2.3.1h-5.2a6 6 0 0 0-5.7 7.9l.6 2a6 6 0 0 0 5.8 4.4 42 42 0 0 0 15.2-1.6c5.5-2.2 6.3-7 6.3-11.6V49.4a6 6 0 0 0-6-6H53l2-3.4h47a5 5 0 0 0 5-5v-4.3a5 5 0 0 0-5-5H61l1.2-3.7a5 5 0 0 0-3.6-6.4l-5-1.2-1.2-.2zm-2.1 43.1h31.1v2.2H50.3v-2.2zm0 15.6h31.1v2.3H50.2v-2.3z" fill="#424242" opacity=".2"/><path d="M52.8 37.5c-1.2 2.5-2.5 5-3.9 7.4a1 1 0 0 0 .9 1.5H90a3 3 0 0 1 3 3v44.4c0 4.8-1 7.5-4.4 8.8-3 1.3-7.5 1.4-14.1 1.4a3 3 0 0 1-3-2.2 9 9 0 0 0-.6-2.2 3 3 0 0 1 3-4h8.3c1.6 0 2.1-.4 2.1-1.9v-7.2c0-.5-.4-1-1-1H46.9a1 1 0 0 0-1 .8 36.2 36.2 0 0 1-7.3 15.8 3 3 0 0 1-4.5 0l-2.2-2.3a3 3 0 0 1-.1-4.1c6-7.1 6.7-16.4 6.7-24.4v-8.6a1 1 0 0 0-1.8-.7c-3 3.3-6.1 6.3-9.6 9a3 3 0 0 1-4.2-.5l-1.8-2.2a3 3 0 0 1 .5-4.3 78.7 78.7 0 0 0 21-25.6 1 1 0 0 0-1-1.5H23a2 2 0 0 1-2-2v-4.2c0-1.2.9-2 2-2h23.3a1 1 0 0 0 1-.7 105 105 0 0 0 3.2-9.4 2 2 0 0 1 2.4-1.4l5 1.2a2 2 0 0 1 1.5 2.5l-2.2 6.4a1 1 0 0 0 .9 1.3H102a2 2 0 0 1 2 2V35a2 2 0 0 1-2 2H53.7a1 1 0 0 0-.9.6zM84.4 77v-6c0-.6-.5-1-1-1H48.3a1 1 0 0 0-1 1v.6c0 1.7 0 3.6-.2 5.5 0 .6.4 1.1 1 1.1h35.3c.6 0 1-.4 1-1zm-1-22.8H48.3a1 1 0 0 0-1 1v6.1c0 .6.5 1 1 1h35.1c.6 0 1-.4 1-1v-6.1c0-.6-.5-1-1-1z" fill="#FAFAFA"/></svg>