<svg viewBox="0 0 128 128" xmlns="http://www.w3.org/2000/svg"><linearGradient id="a" x1="64" x2="64" y1="5.7" y2="121.9" gradientUnits="userSpaceOnUse"><stop stop-color="#7986CB" offset="0"/><stop stop-color="#6674C4" offset=".4"/><stop stop-color="#3F51B5" offset="1"/></linearGradient><path d="M116 124H12a8 8 0 0 1-8-8V12a8 8 0 0 1 8-8h104a8 8 0 0 1 8 8v104a8 8 0 0 1-8 8z" fill="url(#a)"/><path d="M116 7a5 5 0 0 1 5 5v104a5 5 0 0 1-5 5H12a5 5 0 0 1-5-5V12a5 5 0 0 1 5-5h104m0-3H12a8 8 0 0 0-8 8v104a8 8 0 0 0 8 8h104a8 8 0 0 0 8-8V12a8 8 0 0 0-8-8z" fill="#424242" opacity=".2"/><path d="M63 16.2a2 2 0 0 1 1.8 1c1.4 2.7 3 5.7 4.2 8.3a2 2 0 0 0 1.8 1.2h29.6a2 2 0 0 1 2 2V44a2 2 0 0 1-2 2h-4.9a2 2 0 0 1-2-2v-7.6a2 2 0 0 0-2-2H79.6a2 2 0 0 0-2 2v13c0 1 1 2 2 2h16.2c1.6 0 4-.2 6-.4h.2c1 0 1.9.8 2 1.8l.3 3.7a2 2 0 0 1-1.7 2.2c-1.9.2-4.3.2-6.6.2H80.7c-9.2 0-11.6-2.8-11.6-11.2V36.5a2 2 0 0 0-2-2h-6.2a2 2 0 0 0-2 1.8c-1.5 14.4-6.8 21.9-29 25.5h-.3a2 2 0 0 1-1.8-1.1c-.5-1-1-2.1-1.7-3.2a2 2 0 0 1 1.4-3C44.8 51.9 48.8 47 50 36.7a2 2 0 0 0-2-2.2H34.2a2 2 0 0 0-2 2v9.7a2 2 0 0 1-2 2h-4.5a2 2 0 0 1-2-2V28.7c0-1.1.9-2 2-2h30a2 2 0 0 0 2-2.8 97 97 0 0 0-1.6-3.4 2 2 0 0 1 1.2-2.8l5.2-1.5h.6m29.3 49.7a2 2 0 0 1 2 2v4a2 2 0 0 1-2 2H70a2 2 0 0 0-2 2v13.7c0 1.1.9 2 2 2h31.1a2 2 0 0 1 2 2v4.2a2 2 0 0 1-2 2H25.7a2 2 0 0 1-2-2v-4.2c0-1 .9-2 2-2H57a2 2 0 0 0 2-2V76a2 2 0 0 0-2-2H34.8a2 2 0 0 1-2-2v-4c0-1 .9-2 2-2h57.6M63 13.2a5 5 0 0 0-1.4.2l-5.2 1.4a5 5 0 0 0-3.1 7l.9 1.9H25.7a5 5 0 0 0-5 5v17.6a5 5 0 0 0 5 5h3.1l-1.7.2a5 5 0 0 0-3.5 7.6L25 62a5 5 0 0 0 5.4 3l.5-.2a5 5 0 0 0-1.1 3.2v4a5 5 0 0 0 5 5H56v11.7H25.7a5 5 0 0 0-5 5v4.2a5 5 0 0 0 5 5h75.5a5 5 0 0 0 5-5v-4.2a5 5 0 0 0-5-5H71.1V77h21.3a5 5 0 0 0 5-5v-4a5 5 0 0 0-5-5H39.3a33.5 33.5 0 0 0 15-7.6c4.2-4.2 6.5-9.5 7.5-17.8H66v10.3C66.1 58 70.2 62 80.7 62H96c3 0 5.2 0 6.8-.2a5 5 0 0 0 3.4-1.9 5 5 0 0 0 1.1-3.7l-.4-3.6a5 5 0 0 0-3.6-4.3 5 5 0 0 0 2.2-4.2V28.7a5 5 0 0 0-5-5h-29c-1.2-2.6-2.7-5.4-4-7.9a5 5 0 0 0-4.4-2.6zm17.6 24.3h9.8v6.6a5 5 0 0 0 2.5 4.3H80.7V37.5zm-45.5 0H47c-.9 6.1-2.8 10.3-14 13a5 5 0 0 0 2.3-4.3v-8.7z" fill="#424242" opacity=".2"/><path d="M30.2 48.3h-4.5a2 2 0 0 1-2-2V28.6c0-1.1.9-2 2-2h30a2 2 0 0 0 2-2.8 97 97 0 0 0-1.6-3.4 2 2 0 0 1 1.2-2.8l5.2-1.5a2 2 0 0 1 2.3 1c1.4 2.7 3 5.7 4.2 8.3a2 2 0 0 0 1.8 1.2h29.7a2 2 0 0 1 2 2V44a2 2 0 0 1-2 2h-5a2 2 0 0 1-2-2v-7.6a2 2 0 0 0-2-2H79.6a2 2 0 0 0-2 2v13c0 1 1 2 2 2h16.2c1.6 0 4-.2 6-.4a2 2 0 0 1 2.1 1.8l.4 3.7a2 2 0 0 1-1.8 2.2c-1.8.2-4.2.2-6.5.2H80.7c-9.2 0-11.6-2.9-11.6-11.2V36.5a2 2 0 0 0-2-2h-6.2a2 2 0 0 0-2 1.8c-1.5 14.4-6.8 21.9-29 25.5a2 2 0 0 1-2.1-1.1c-.5-1-1-2.1-1.7-3.2a2 2 0 0 1 1.4-3C44.8 51.9 48.8 47 50 36.7a2 2 0 0 0-2-2.2H34.2a2 2 0 0 0-2 2v9.7a2 2 0 0 1-2 2zm39.9 43.4h31.1a2 2 0 0 1 2 2v4.1a2 2 0 0 1-2 2H25.7a2 2 0 0 1-2-2v-4.1c0-1.1.9-2 2-2H57a2 2 0 0 0 2-2V75.9a2 2 0 0 0-2-2H34.8a2 2 0 0 1-2-2v-4c0-1 .9-2 2-2h57.6a2 2 0 0 1 2 2v4a2 2 0 0 1-2 2H70a2 2 0 0 0-2 2v13.8c0 1 .9 2 2 2z" fill="#FAFAFA"/></svg>