<svg viewBox="0 0 128 128" xmlns="http://www.w3.org/2000/svg"><linearGradient id="a" x1="64" x2="64" y1="5.7" y2="121.9" gradientUnits="userSpaceOnUse"><stop stop-color="#FF7043" offset="0"/><stop stop-color="#F45F30" offset=".5"/><stop stop-color="#E64A19" offset="1"/></linearGradient><path d="M116 124H12a8 8 0 0 1-8-8V12a8 8 0 0 1 8-8h104a8 8 0 0 1 8 8v104a8 8 0 0 1-8 8z" fill="url(#a)"/><path d="M116 7a5 5 0 0 1 5 5v104a5 5 0 0 1-5 5H12a5 5 0 0 1-5-5V12a5 5 0 0 1 5-5h104m0-3H12a8 8 0 0 0-8 8v104a8 8 0 0 0 8 8h104a8 8 0 0 0 8-8V12a8 8 0 0 0-8-8z" fill="#424242" opacity=".2"/><path d="M65.4 16c.3 0 .6 0 .8.2l4.8 2.4c1 .5 1.2 1.7.6 2.6l-1 1.5c-.5.7-.4 1.7.2 2.3a112.6 112.6 0 0 0 35.5 22.4c1 .5 1.4 2 .6 2.8a25.7 25.7 0 0 0-3.7 5 1.7 1.7 0 0 1-2.3.6A210.7 210.7 0 0 1 89.4 50c-.9 0-1.7.7-1.7 1.7v1.6c0 1-.8 1.8-1.8 1.8H41.5c-1 0-1.8-.8-1.8-1.8a1.8 1.8 0 0 0-2.6-1.5A111.3 111.3 0 0 1 26.5 57c-.6 0-1.1-.3-1.5-.8-1-1.5-2.4-3.4-3.9-5-.8-.8-.5-2.3.6-2.7A99.3 99.3 0 0 0 64 16.7a2 2 0 0 1 1.4-.7m-15 30.8H79c1.7 0 2.4-2.2 1-3.2-4.9-3.5-9.7-7.4-14.5-12.1-.4-.3-.8-.5-1.3-.5-.4 0-.9.2-1.2.5-4.1 4.4-8.7 8.5-13.6 12.2-1.3 1-.6 3 1 3m42.3 18.4c1 0 1.7.8 1.7 1.7v35c0 1-.8 1.8-1.7 1.8h-6c-1 0-1.7-.8-1.7-1.7v-1c0-1-.8-1.7-1.8-1.7H45c-1 0-1.7.8-1.7 1.7v1.4c0 1-.8 1.7-1.8 1.7H36c-1 0-1.8-.8-1.8-1.7V66.8c0-1 .8-1.7 1.8-1.7h56.7M45 90.9h38.2c1 0 1.8-.8 1.8-1.7V74.8c0-1-.8-1.7-1.8-1.7H45c-1 0-1.7.8-1.7 1.7v14.4c0 1 .8 1.7 1.7 1.7M65.4 13a5 5 0 0 0-3.9 2 95.7 95.7 0 0 1-41 30.8 4.8 4.8 0 0 0-1.6 7.6c1.5 1.7 2.8 3.5 3.7 4.7a4.7 4.7 0 0 0 5.8 1.6 111 111 0 0 0 8.7-4.5 4.8 4.8 0 0 0 4.4 2.9h44.4c2.5 0 4.5-1.9 4.8-4.2l8.9 4.6a4.7 4.7 0 0 0 6.3-2c.8-1.3 2-2.9 3.2-4.2a4.7 4.7 0 0 0-1.7-7.6 109.9 109.9 0 0 1-33.7-21.2l.4-.6a4.8 4.8 0 0 0-1.7-7l-4.8-2.4c-.7-.3-1.4-.5-2.2-.5zM54.1 43.8c3.7-3 7-6 10.2-9.3 3.6 3.4 7.2 6.5 10.9 9.3H54zM92.7 62H36a4.8 4.8 0 0 0-4.8 4.7v35.5c0 2.6 2.1 4.7 4.8 4.7h5.5c2.6 0 4.8-2.1 4.8-4.8H82a4.8 4.8 0 0 0 4.7 4.4h6c2.6 0 4.7-2.1 4.7-4.7v-35c0-2.7-2.1-4.8-4.7-4.8zM46.3 76H82v11.8H46.3V76.1z" fill="#424242" opacity=".2"/><path d="M71.6 21.2l-1 1.5c-.5.7-.4 1.7.2 2.3a112.6 112.6 0 0 0 35.5 22.4c1 .5 1.4 2 .6 2.8a25.7 25.7 0 0 0-3.7 5c-.4.7-1.5 1-2.3.6-3.6-1.8-7.2-3.6-10.6-5.6-1.2-.6-2.6.2-2.6 1.5v1.6c0 1-.8 1.8-1.8 1.8H41.4c-1 0-1.7-.8-1.7-1.8 0-1.3-1.5-2.2-2.6-1.5-3.3 1.9-6.6 3.7-10 5.2-.7.3-1.6 0-2-.6-1.2-1.6-2.5-3.4-4-5-.8-1-.5-2.3.6-2.8A99.3 99.3 0 0 0 64 16.8c.5-.8 1.4-1 2.2-.6l4.8 2.4c1 .5 1.2 1.7.6 2.6zM36 65h56.7c1 0 1.7.8 1.7 1.7v35c0 1-.8 1.8-1.7 1.8h-6c-1 0-1.7-.8-1.7-1.7v-1c0-1-.8-1.7-1.8-1.7H45c-1 0-1.7.8-1.7 1.7v1.4c0 1-.8 1.7-1.8 1.7H36c-1 0-1.8-.8-1.8-1.7V66.8c0-1 .8-1.7 1.8-1.7zm7.3 9.7v14.4c0 1 .7 1.7 1.7 1.7h38.2c1 0 1.8-.8 1.8-1.8V74.9c0-1-.8-1.7-1.8-1.7H45c-1 0-1.7.8-1.7 1.7zM80 43.6c-4.9-3.5-9.7-7.4-14.6-12.1-.7-.7-1.8-.7-2.4 0-4.2 4.4-8.7 8.5-13.6 12.2-1.3 1-.6 3 1 3H79c1.7 0 2.4-2 1-3z" fill="#FAFAFA"/></svg>