<svg viewBox="0 0 128 128" xmlns="http://www.w3.org/2000/svg" xmlns:xlink="http://www.w3.org/1999/xlink"><defs><path id="a" d="M116 124H12a8 8 0 0 1-8-8V12a8 8 0 0 1 8-8h104a8 8 0 0 1 8 8v104a8 8 0 0 1-8 8z"/></defs><clipPath id="b"><use xlink:href="#a"/></clipPath><g clip-path="url(#b)"><linearGradient id="c" x1="64" x2="64" y1="86" y2="3.6" gradientUnits="userSpaceOnUse"><stop stop-color="#FFA726" offset="0"/><stop stop-color="#F06292" offset=".5"/><stop stop-color="#C3549C" offset=".6"/><stop stop-color="#8D43A7" offset=".8"/><stop stop-color="#6B39AE" offset=".9"/><stop stop-color="#5E35B1" offset="1"/></linearGradient><path fill="url(#c)" d="M4 4h120v120H4z"/><linearGradient id="d" x1="22" x2="22" y1="83" y2="35.1" gradientUnits="userSpaceOnUse"><stop stop-color="#7B1FA2" offset="0"/><stop stop-color="#681B9A" offset=".3"/><stop stop-color="#521690" offset=".7"/><stop stop-color="#4A148C" offset="1"/></linearGradient><path d="M34 36h-2v-2a2 2 0 0 0-2-2H14a2 2 0 0 0-2 2v2h-2a2 2 0 0 0-2 2v70h28V38a2 2 0 0 0-2-2z" fill="url(#d)" opacity=".7"/><linearGradient id="e" x1="82" x2="82" y1="105.3" y2="17.6" gradientUnits="userSpaceOnUse"><stop stop-color="#7B1FA2" offset="0"/><stop stop-color="#681B9A" offset=".3"/><stop stop-color="#521690" offset=".7"/><stop stop-color="#4A148C" offset="1"/></linearGradient><path d="M118 48h-2v-2a2 2 0 0 0-2-2H90a2 2 0 0 0-2 2v2h-2a2 2 0 0 0-2 2v54H72V30a2 2 0 0 0-2-2h-2v-6a2 2 0 0 0-2-2h-4v-6a2 2 0 0 0-2-2h-4a2 2 0 0 0-2 2v6h-4a2 2 0 0 0-2 2v6h-2a2 2 0 0 0-2 2v86h76V50a2 2 0 0 0-2-2z" fill="url(#e)" opacity=".7"/><radialGradient id="f" cx="426.6" cy="-627.7" r="37.8" gradientTransform="rotate(-89.9 602.7 -63.2)" gradientUnits="userSpaceOnUse"><stop stop-color="#FF8A80" offset="0"/><stop stop-color="#EC8076" offset=".1"/><stop stop-color="#99534D" offset=".3"/><stop stop-color="#572F2C" offset=".6"/><stop stop-color="#281614" offset=".8"/><stop stop-color="#0B0605" offset=".9"/><stop offset="1"/></radialGradient><path d="M37.9 74a37.8 37.8 0 1 1-.1 75.7 37.8 37.8 0 0 1 .1-75.7z" fill="url(#f)"/><radialGradient id="g" cx="426.4" cy="-561.7" r="31.8" gradientTransform="rotate(-89.9 602.7 -63.2)" gradientUnits="userSpaceOnUse"><stop stop-color="#FF8A80" offset="0"/><stop stop-color="#EC8076" offset=".1"/><stop stop-color="#99534D" offset=".3"/><stop stop-color="#572F2C" offset=".6"/><stop stop-color="#281614" offset=".8"/><stop stop-color="#0B0605" offset=".9"/><stop offset="1"/></radialGradient><path d="M103.9 80.3a31.8 31.8 0 1 1-.1 63.7 31.8 31.8 0 0 1 0-63.6z" fill="url(#g)"/><linearGradient id="h" x1="64" x2="64" y1="117.3" y2="61" gradientUnits="userSpaceOnUse"><stop stop-color="#6A1B9A" offset="0"/><stop stop-color="#361070" offset=".4"/><stop stop-color="#0F084F" offset=".8"/><stop stop-color="#000543" offset="1"/></linearGradient><path d="M122 60h-20a2 2 0 0 0-2 2v42h-8V74a2 2 0 0 0-2-2H58a2 2 0 0 0-2 2v38h-8V58a2 2 0 0 0-2-2H18a2 2 0 0 0-2 2v26H6a2 2 0 0 0-2 2v30h120V62a2 2 0 0 0-2-2z" fill="url(#h)"/><linearGradient id="i" x1="64" x2="64" y1="124.5" y2="95.6" gradientUnits="userSpaceOnUse"><stop stop-color="#111762" offset="0"/><stop stop-color="#0B114D" offset=".3"/><stop stop-color="#030831" offset=".7"/><stop stop-color="#000526" offset="1"/></linearGradient><path d="M120.3 90.3c-4 2-7.4 5.2-9.6 9.1-.6.7-1 1.5-1.4 2.5v.2a1 1 0 0 1-1.3.7 4 4 0 0 0-1-.1 5 5 0 0 0-3.6 1.7 2 2 0 0 1-2.7.1 12.5 12.5 0 0 0-13.8-1 2 2 0 0 1-2.5-.7 19 19 0 0 0-28.1-3.2 1 1 0 0 1-1.3 0c-1-.7-2-1.2-3.1-1.2s-2.1.4-3 1.2a1 1 0 0 1-1.2 0 13.9 13.9 0 0 0-17.6 2c-.3.4-1 .4-1.4 0-1-.9-2-1.4-3.3-1.4a5 5 0 0 0-3.6 1.7c-.4.4-1 .5-1.5 0a19.2 19.2 0 0 0-14.1-6.2C5 95.7 4 96.7 4 98v26h120V92.6c0-2-2-3.2-3.7-2.4z" fill="url(#i)"/></g><defs><path id="j" d="M-28 124h-104a8 8 0 0 1-8-8V12a8 8 0 0 1 8-8h104a8 8 0 0 1 8 8v104a8 8 0 0 1-8 8z"/></defs><clipPath id="k"><use xlink:href="#j"/></clipPath><radialGradient id="l" cx="-80.2" cy="89.8" r="97.7" gradientUnits="userSpaceOnUse"><stop stop-color="#FFCA28" offset=".3"/><stop stop-color="#DD2C00" offset="1"/></radialGradient><path clip-path="url(#k)" fill="url(#l)" d="M-140 4h120v120h-120z"/><linearGradient id="m" x1="-122" x2="-122" y1="107" y2="31" gradientUnits="userSpaceOnUse"><stop stop-color="#FF9800" offset="0"/><stop stop-color="#FD850C" offset=".1"/><stop stop-color="#F86123" offset=".3"/><stop stop-color="#F54B31" offset=".5"/><stop stop-color="#F44336" offset=".6"/><stop stop-color="#D7312A" offset=".7"/><stop stop-color="#C02220" offset=".9"/><stop stop-color="#B71C1C" offset="1"/></linearGradient><path d="M-110 36h-2v-2a2 2 0 0 0-2-2h-16a2 2 0 0 0-2 2v2h-2a2 2 0 0 0-2 2v70h28V38a2 2 0 0 0-2-2z" clip-path="url(#k)" fill="url(#m)" opacity=".7"/><linearGradient id="n" x1="-62" x2="-62" y1="136.3" y2="18.3" gradientUnits="userSpaceOnUse"><stop stop-color="#FF9800" offset="0"/><stop stop-color="#FD850C" offset=".1"/><stop stop-color="#F86123" offset=".3"/><stop stop-color="#F54B31" offset=".5"/><stop stop-color="#F44336" offset=".6"/><stop stop-color="#D7312A" offset=".7"/><stop stop-color="#C02220" offset=".9"/><stop stop-color="#B71C1C" offset="1"/></linearGradient><path d="M-26 48h-2v-2a2 2 0 0 0-2-2h-24a2 2 0 0 0-2 2v2h-2a2 2 0 0 0-2 2v54h-12V30a2 2 0 0 0-2-2h-2v-6a2 2 0 0 0-2-2h-4v-6a2 2 0 0 0-2-2h-4a2 2 0 0 0-2 2v6h-4a2 2 0 0 0-2 2v6h-2a2 2 0 0 0-2 2v86h76V50a2 2 0 0 0-2-2z" clip-path="url(#k)" fill="url(#n)" opacity=".7"/><linearGradient id="o" x1="-80" x2="-80" y1="126" y2="61.2" gradientUnits="userSpaceOnUse"><stop stop-color="#F44336" offset=".2"/><stop stop-color="#D7312A" offset=".4"/><stop stop-color="#C02220" offset=".5"/><stop stop-color="#B71C1C" offset=".6"/><stop stop-color="#9E1818" offset=".7"/><stop stop-color="#7B1212" offset=".9"/><stop stop-color="#6E1010" offset="1"/></linearGradient><path d="M-22 60h-20a2 2 0 0 0-2 2v42h-8V74a2 2 0 0 0-2-2h-32a2 2 0 0 0-2 2v38h-8V58a2 2 0 0 0-2-2h-28a2 2 0 0 0-2 2v26h-10a2 2 0 0 0-2 2v30h120V62a2 2 0 0 0-2-2z" clip-path="url(#k)" fill="url(#o)"/><g clip-path="url(#k)"><linearGradient id="p" x1="-80" x2="-80" y1="127" y2="95.7" gradientUnits="userSpaceOnUse"><stop stop-color="#B71C1C" offset="0"/><stop stop-color="#6E1010" offset="1"/></linearGradient><path d="M-23.7 90.3c-4 2-7.4 5.2-9.6 9.1-.6.7-1 1.5-1.4 2.5v.2a1 1 0 0 1-1.3.7 4 4 0 0 0-1-.1 5 5 0 0 0-3.6 1.7 2 2 0 0 1-2.7.1 12.5 12.5 0 0 0-13.8-1 2 2 0 0 1-2.5-.7 19 19 0 0 0-28.1-3.2 1 1 0 0 1-1.3 0c-1-.7-2-1.2-3.1-1.2s-2.1.4-3 1.2a1 1 0 0 1-1.2 0 13.9 13.9 0 0 0-17.5 2c-.4.4-1 .4-1.5 0-1-.9-2-1.4-3.3-1.4a5 5 0 0 0-3.6 1.7c-.4.4-1 .5-1.5 0a19.2 19.2 0 0 0-14.1-6.2c-1.2 0-2.2 1-2.2 2.2v26h120V92.7c0-2-2-3.2-3.7-2.4z" fill="url(#p)"/></g><path d="M116 7a5 5 0 0 1 5 5v104a5 5 0 0 1-5 5H12a5 5 0 0 1-5-5V12a5 5 0 0 1 5-5h104m0-3H12a8 8 0 0 0-8 8v104a8 8 0 0 0 8 8h104a8 8 0 0 0 8-8V12a8 8 0 0 0-8-8zM-28 7a5 5 0 0 1 5 5v104a5 5 0 0 1-5 5h-104a5 5 0 0 1-5-5V12a5 5 0 0 1 5-5h104m0-3h-104a8 8 0 0 0-8 8v104a8 8 0 0 0 8 8h104a8 8 0 0 0 8-8V12a8 8 0 0 0-8-8z" fill="#eee" opacity=".2"/><path d="M-74.8 88h-4.5a.8.8 0 0 1-.7-.8v-4.5c0-.4.3-.7.8-.7h4.5c.4 0 .7.3.7.8v4.5c0 .4-.3.7-.8.7zm16-4h-4.5a.8.8 0 0 1-.7-.8v-4.5c0-.4.3-.7.8-.7h4.5c.4 0 .7.3.7.8v4.5c0 .4-.3.7-.8.7zm26-12h-4.5a.8.8 0 0 1-.7-.8v-4.5c0-.4.3-.7.8-.7h4.5c.4 0 .7.3.7.8v4.5c0 .4-.3.7-.8.7zm6 12h-4.4a.8.8 0 0 1-.8-.8v-4.5c0-.4.3-.7.8-.7h4.4c.5 0 .8.3.8.8v4.5c0 .4-.3.7-.8.7zm-76-14h-4.5a.8.8 0 0 1-.7-.8v-4.5c0-.4.3-.7.8-.7h4.5c.4 0 .7.3.7.8v4.5c0 .4-.3.7-.8.7zm-14 8h-4.5a.8.8 0 0 1-.7-.8v-4.5c0-.4.3-.7.8-.7h4.5c.4 0 .7.3.7.8v4.5c0 .4-.3.7-.8.7zm12 10h-4.5a.8.8 0 0 1-.7-.8v-4.5c0-.4.3-.7.8-.7h4.5c.4 0 .7.3.7.8v4.5c0 .4-.3.7-.8.7z" fill="#FFC107"/><path d="M-124.8 54h-4.5a.8.8 0 0 1-.7-.8v-4.5c0-.4.3-.7.8-.7h4.4c.5 0 .8.3.8.8v4.5c0 .4-.3.7-.8.7zm10-4h-4.5a.8.8 0 0 1-.7-.8v-4.5c0-.4.3-.7.8-.7h4.5c.4 0 .7.3.7.8v4.5c0 .4-.3.7-.8.7zm26-8h-4.5a.8.8 0 0 1-.7-.8v-4.5c0-.4.3-.7.8-.7h4.5c.4 0 .7.3.7.8v4.5c0 .4-.3.7-.8.7zm10 7h-4.5a.8.8 0 0 1-.7-.8v-4.5c0-.4.3-.7.8-.7h4.5c.4 0 .7.3.7.8v4.5c0 .4-.3.7-.8.7zm0 11h-4.5a.8.8 0 0 1-.7-.8v-4.5c0-.4.3-.7.8-.7h4.5c.4 0 .7.3.7.8v4.5c0 .4-.3.7-.8.7zm40-2h-4.5a.8.8 0 0 1-.7-.8v-4.5c0-.4.3-.7.8-.7h4.5c.4 0 .7.3.7.8v4.5c0 .4-.3.7-.8.7zm-10 6h-4.5a.8.8 0 0 1-.7-.8v-4.5c0-.4.3-.7.8-.7h4.5c.4 0 .7.3.7.8v4.5c0 .4-.3.7-.8.7z" fill="#E64A19" opacity=".2"/><path d="M69.3 88h-4.5a.8.8 0 0 1-.8-.8v-4.5c0-.4.3-.7.8-.7h4.5c.4 0 .7.3.7.8v4.5c0 .4-.3.7-.8.7zm16-4h-4.5a.8.8 0 0 1-.8-.8v-4.5c0-.4.3-.7.8-.7h4.5c.4 0 .7.3.7.8v4.5c0 .4-.3.7-.8.7zm26-12h-4.5a.8.8 0 0 1-.8-.8v-4.5c0-.4.3-.7.8-.7h4.5c.4 0 .7.3.7.8v4.5c0 .4-.3.7-.8.7zm6 12h-4.5a.8.8 0 0 1-.8-.8v-4.5c0-.4.3-.7.8-.7h4.5c.4 0 .7.3.7.8v4.5c0 .4-.3.7-.8.7zm-76-14h-4.5a.8.8 0 0 1-.8-.8v-4.5c0-.4.3-.7.8-.7h4.5c.4 0 .7.3.7.8v4.5c0 .4-.3.7-.8.7zm-14 8h-4.6a.8.8 0 0 1-.7-.8v-4.5c0-.4.3-.7.8-.7h4.4c.5 0 .8.3.8.8v4.5c0 .4-.3.7-.8.7zm12 10h-4.5a.8.8 0 0 1-.8-.8v-4.5c0-.4.3-.7.8-.7h4.5c.4 0 .7.3.7.8v4.5c0 .4-.3.7-.8.7z" fill="#FFC107"/><path d="M19.3 54h-4.6a.8.8 0 0 1-.7-.8v-4.5c0-.4.3-.7.8-.7h4.4c.5 0 .8.3.8.8v4.5c0 .4-.3.7-.8.7zm10-4h-4.6a.8.8 0 0 1-.7-.8v-4.5c0-.4.3-.7.8-.7h4.4c.5 0 .8.3.8.8v4.5c0 .4-.3.7-.8.7zm26-8h-4.5a.8.8 0 0 1-.8-.8v-4.5c0-.4.3-.7.8-.7h4.5c.4 0 .7.3.7.8v4.5c0 .4-.3.7-.8.7zm10 7h-4.5a.8.8 0 0 1-.8-.8v-4.5c0-.4.3-.7.8-.7h4.5c.4 0 .7.3.7.8v4.5c0 .4-.3.7-.8.7zm0 11h-4.5a.8.8 0 0 1-.8-.8v-4.5c0-.4.3-.7.8-.7h4.5c.4 0 .7.3.7.8v4.5c0 .4-.3.7-.8.7zm40-2h-4.5a.8.8 0 0 1-.8-.8v-4.5c0-.4.3-.7.8-.7h4.5c.4 0 .7.3.7.8v4.5c0 .4-.3.7-.8.7zm-10 6h-4.5a.8.8 0 0 1-.8-.8v-4.5c0-.4.3-.7.8-.7h4.5c.4 0 .7.3.7.8v4.5c0 .4-.3.7-.8.7z" fill="#7B1FA2" opacity=".2"/></svg>