<svg viewBox="0 0 128 128" xmlns="http://www.w3.org/2000/svg" xmlns:xlink="http://www.w3.org/1999/xlink"><radialGradient id="a" cx="64" cy="4" r="120" gradientUnits="userSpaceOnUse"><stop stop-color="#42A5F5" offset="0"/><stop stop-color="#42A5F5" offset=".4"/><stop stop-color="#2B8BE2" offset=".7"/><stop stop-color="#1976D2" offset="1"/></radialGradient><circle cx="64" cy="64" r="60" fill="url(#a)"/><defs><circle id="b" cx="64" cy="64" r="60"/></defs><clipPath id="c"><use xlink:href="#b"/></clipPath><g clip-path="url(#c)" fill="#424242" opacity=".2"><path d="M175.5 118.4c1.8 0 1.1 6.2-.6 8.5-.5.6-.9.8-1.2.8-1.1 0-1.7-2.4-2.4-3.8-.9-2 3.3-5 3.5-5.2.2-.2.5-.3.7-.3m0-3c-.8 0-1.6.3-2.4.8-.3.2-1.6 1.2-2.7 2.4-2.6 2.9-2.4 5.1-1.8 6.5l.4 1c.7 1.9 1.8 4.6 4.7 4.6 1.3 0 2.6-.6 3.6-2 1.9-2.5 3-8.2 1.7-11a4 4 0 0 0-3.5-2.3z"/><path d="M169.3 124.8a2 2 0 0 1 1.5 1c1.2 1.8 2 5.7-7.4 8.9a25 25 0 0 1-5 1.4c-2.2 0 7.2-5.3 10-10.7.1-.4.5-.6.9-.6m0-3a4 4 0 0 0-3.7 2.2c-1.3 2.6-5 5.6-7 7.4-2.6 2-4.2 3.3-3.4 5.6.4 1 1.4 2.1 3.1 2.1.9 0 2.1-.2 6-1.6 5.5-1.8 8.7-4.2 9.8-7.3a7 7 0 0 0-.7-6 5 5 0 0 0-4.1-2.3zm-225.7-111a3 3 0 0 1 1.8.5l4.2 2.5a20 20 0 0 0 13.6 2.6l12.5-2.1h.6c2 0 3.6 1.4 3.8 3.4l.4 5.1a4.6 4.6 0 0 1-3.8 5l-1.3.2a9 9 0 0 0-6.8 5.4c-.5 1.1-.2 2.5.7 3.4l7.8 7.9a1.8 1.8 0 0 0 1.5.5c.8-.1 1.5-.8 1.5-1.6l1-9c.1-2 1.7-3.4 3.7-3.4h.3c1.5 0 2.8.8 3.4 2.2l1.8 3.7a1.7 1.7 0 0 0 2.5.8c.3-.2.6-.3 1-.3.6 0 1.3.4 1.6 1l4.5 10.5c1 2.3 0 5-2.3 5.9l-3.7 1.5a42 42 0 0 0-16.1 12c-.3.3-.4.7-.4 1l.2 3.9c.1.7-.4 1.3-1.1 1.4h-.4c-1.2 0-2.3-.7-2.7-2a2.9 2.9 0 0 0-3.2-2l-2.5.4a5.4 5.4 0 0 0-4.2 3.3l-.8 1.7c-.2.7-.2 1.4.2 2a2.2 2.2 0 0 0 3.4.6 2 2 0 0 1 1.4-.6h.1l1.6.1c.9 0 1.5 1 1.2 1.8l-.2.7c-.5 1.2.4 2.5 1.8 2.5 1 0 1.7.7 1.8 1.6l.3 2.3c0 .9.8 1.6 1.6 1.7h.5c.6 0 1.3-.3 1.6-.9a5.3 5.3 0 0 1 5.2-2.5l5 .7a17 17 0 0 1 7.7 3.1L-.4 92c1 .8 1.8 1.9 2.3 3.2.5 1.7 1.7 3 3.3 3.8l7 3.4a4 4 0 0 1 1.8 5.5l-5 8.8a4 4 0 0 1-2.6 2l-2.9.6a4 4 0 0 0-3 3.6l-.1.5a7.8 7.8 0 0 1-2.1 4.7l-15 15.7a5.3 5.3 0 0 0-.4 6.7l1 1.5c.9 1 0 2.5-1.2 2.5h-.3l-2.7-.4a4.8 4.8 0 0 1-3.8-3.2l-1.2-3.5a9.2 9.2 0 0 1-.1-5.5l6.2-21.9c.7-2.4 0-5-1.8-6.7l-1.3-1.3a10.5 10.5 0 0 1-3-5.3l-1.4-6.3c-.4-2 0-4 1.1-5.8l.2-.3a2 2 0 0 0-1.2-2.9l-.4-.1c-.4-.1-.8-.4-1.1-.7l-3.6-4.8-.6-.5L-41 82c-2.2-.8-4.1-2.4-5.3-4.5L-54.8 63a15 15 0 0 1-2-6.5l-.2-4.2c0-2.9-1-5.7-2.6-8l-2.1-3.4a24 24 0 0 0-7.6-7.3l-.7-.3a7 7 0 0 0-4.2-1l-1.8.1a15 15 0 0 1-6.2-1.3l-7.2-3.3c-.6-.3-.8-1-.4-1.5l1.8-2.2c.7-.8.2-2-.8-2.2-.8-.1-1.3-1-1-1.8l.7-1.8c.2-.5.6-.8 1.2-.9 1 0 21.5-.6 27-5.2.9-.7 2-.6 3-1 .5-.3 1-.4 1.5-.4m0-3c-1 0-2 .2-2.8.6l-.6.2c-.8.2-1.9.4-2.9 1.3-2.1 1.7-9.8 3.9-24.9 4.5h-.5a4.4 4.4 0 0 0-3.8 2.8l-.7 1.8a4.3 4.3 0 0 0 1 4.7l-.5.7a4 4 0 0 0-.8 3.3 4 4 0 0 0 2.3 2.8l7.2 3.3a17.7 17.7 0 0 0 9.5 1.5h.4a4 4 0 0 1 2 .5l.7.4a19 19 0 0 1 6.6 6.3l2.1 3.3c1.3 2 2 4.2 2.2 6.6l.2 4.2a18 18 0 0 0 2.3 7.9l8.5 14.5a14 14 0 0 0 6.9 5.8l8.3 3 3.3 4.5c.5.7 1.1 1.2 1.8 1.5a10.8 10.8 0 0 0-1 7.2l1.4 6.2c.6 2.7 2 5 3.8 7l1.3 1.2c1 1 1.4 2.4 1 3.7l-6.2 22c-.6 2.3-.6 4.8.2 7.2l1.2 3.4a8 8 0 0 0 6.2 5.3l2.8.4h.7c1.7 0 3.3-1 4-2.5.8-1.5.7-3.4-.3-4.8l-1-1.4c-.7-1-.7-2.1.1-3L.5 130.2c1.7-1.8 2.7-4.1 3-6.6v-.4c0-.5.3-.8.8-1l2.8-.6a7 7 0 0 0 4.6-3.4l4.9-8.8a7 7 0 0 0-3.1-9.7l-7-3.4a3.4 3.4 0 0 1-1.8-2 9.3 9.3 0 0 0-3.4-4.7l-3.6-2.7a19 19 0 0 0-9-3.6l-5.1-.7a8.3 8.3 0 0 0-6.6 2c-.2-2-1.6-3.5-3.4-4a4.4 4.4 0 0 0-4-5.2l-1.6-.1h-.3c-.5 0-1 0-1.4.2.4-.7 1-1.2 1.8-1.3l2.4-.4a5.8 5.8 0 0 0 6.3 4c2.3-.2 4-2.3 3.8-4.5l-.2-3.3c4-4.6 9-8.3 14.6-10.7l3.7-1.5a7.4 7.4 0 0 0 4-9.8L-2 37.4a4.7 4.7 0 0 0-5.6-2.7l-1.3-2.6a6.8 6.8 0 0 0-6.1-4h-.3a6.8 6.8 0 0 0-6.8 6.2l-.6 6.4-6-6v-.2a6 6 0 0 1 4.5-3.6l1.3-.2a7.6 7.6 0 0 0 6.3-8.1l-.4-5.2a6.8 6.8 0 0 0-8-6.1l-12.4 2-2.8.3a17 17 0 0 1-8.8-2.5l-4.2-2.5c-1-.5-2.1-.8-3.3-.8z"/><path d="M4 5.8c1 0 2.2.2 3 .6l12.3 2.3c1.2.6 1.6 1.5 1 2.3L4.8 26c-.5.7-1.7 1.2-3.1 1.3l-2.2.2-.9.1c-2.4 0-4.4-1-4.3-2.2l.1-2.3c0-.7-.6-1.4-1.8-1.8l-1.2-.4c-1.5-.5-2.2-1.5-1.6-2.3.4-.6.2-1.3-.6-1.8l-2.6-1.8c-1-.7-1-1.6-.2-2.3l9-5.6c.6-.6 1.8-1 3-1l5-.4H4m0-3h-.8l-5 .4a9 9 0 0 0-4.6 1.5l-8.8 5.6-.2.1-.2.1a4.3 4.3 0 0 0-1.6 3.6c0 1.3.8 2.5 2 3.4l1.8 1.3c0 .6 0 1.2.2 1.8a5.5 5.5 0 0 0 3.6 3.2l1 .4-.1 1.1c-.1 1.2.3 2.3 1.1 3.2 1.3 1.4 3.6 2.2 6.2 2.2h1.2l2.2-.3c1.3-.1 3.6-.6 5-2.2L22.4 13l.2-.1v-.2c.9-1 1.2-2.3.9-3.5a5 5 0 0 0-3-3.3l-.3-.2h-.4l-12-2.3c-1-.5-2.4-.7-3.8-.7zm34.9 18.8a2 2 0 0 1 1.6.9l3.9 5.2c.8 1 1 2.5.3 3.7-.3.8-1 1.4-1.7 1.7l-2 1-.6.1c-.7 0-1.3-.5-1.3-1.3 0-.5-.5-.8-.9-.8-.3 0-.6.1-.7.5-.2.3-.5.5-.8.5-.1 0-.3 0-.4-.2l-.5-.2a2.9 2.9 0 0 1-1-3.8l1.1-2 .1-.6-.2-1.4c-.1-.8.2-1.7 1-2.2l.9-.7a2 2 0 0 1 1.2-.4m0-3c-1 0-2 .4-3 1l-.9.7a5.2 5.2 0 0 0-2.1 5v.7l-.7 1.5a6 6 0 0 0 2 7.7l.5.2a3.8 3.8 0 0 0 2.7.6 4.4 4.4 0 0 0 5 .8l2-1a6.6 6.6 0 0 0 2.5-10l-4-5.1c-.9-1.3-2.4-2-4-2z"/><path d="M130 8.7l2.1.1 19.2 2.9 34 4.1a4 4 0 0 1 3.4 2.6l.8 2.4c.4 1 0 2-.8 2.6l-5 3.3c-.3.3-.8.4-1.3.5l-3.7.6a2 2 0 0 0-1.8 2.4l.2 1.3c0 .3 0 .5-.2.7l-4 4.9c-.2.3-.6.5-1 .5-.7 0-1.3-.5-1.4-1.3l-.2-2c0-.9.3-1.8.9-2.5l6-7.5c.2-.3 0-.6-.2-.6h-.7a8 8 0 0 0-5 1.8l-1.7 1.4a6.7 6.7 0 0 1-4.2 1.4h-1.5c-2 0-3.9.8-5.4 2.1l-2.6 2.5a1 1 0 0 0 0 1.4l1.4 1c1 .7 1.3 2 1 3l-3.4 10a1 1 0 0 1-.8.7l-2.8.2a1 1 0 0 0-.6.3l-2.2 2.4a1 1 0 0 0-.2 1l.8 3.1c.1.3 0 .7-.2 1l-1.4 1.3a1 1 0 0 1-1.6-.5l-.6-3.1c0-.2-.1-.4-.3-.5l-1.4-1.6a1 1 0 0 0-.7-.3 1 1 0 0 0-.7.2l-2.4 2.1a1 1 0 0 0-.2 1.1l1.9 4.2c.7 1.5.7 3.1 0 4.6l-1.6 3.5a3 3 0 0 1-2.7 1.8l-4.8-.2c-.7 0-1.4.3-1.9 1a3.2 3.2 0 0 0 0 3.7l1 1.6c.8 1 .7 2.2 0 3l-1.6 2a1 1 0 0 1-1.4 0l-1.9-2.1a1 1 0 0 0-.7-.3 1 1 0 0 0-1 .9v1.2l3.2 3.9c.5.6.9 1.3 1 2l.6 2.7c.4 2 1.9 3.6 3.8 4.2l6.7 2c.4.2.5.7.3 1-.1.2-.3.3-.5.3h-.2l-9.1-2a5.6 5.6 0 0 1-3-1.8l-7.2-8.1a.6.6 0 0 1 0-.9l.1-.1a.6.6 0 0 1 .8 0l2.7 1.5h.3c.4 0 .8-.4.5-.8l-1.5-3v-.2l-.6-4.8a1 1 0 0 0-1.4-.9l-.5.1c-.4 0-.9-.2-1-.6l-2.2-5a1 1 0 0 0-1.5-.4l-4 2.9a7 7 0 0 0-2.8 5l-.1.9c0 .4-.3.9-.7 1.2l-.9.8a2 2 0 0 1-1.2.4c-.7 0-1.5-.5-1.7-1.3l-1.7-5.3c-.4-1.2-1-2.3-1.8-3.3l-2.7-3a3.7 3.7 0 0 0-2.2-1.3l-5.2-.8c-2-.3-4-1.5-5.6-3-.2-.2-.6-.3-1-.3-.3 0-.7.2-1 .5-.4.4-.5 1-.2 1.7l1.3 3c.2.3.5.5.9.5l.5-.1.9-.6c1 0 3.7 4 2 5L83 76c-.6.4-1.2.6-2 .6a4 4 0 0 1-3.4-2.2L73 65.5a1 1 0 0 0-1.7.8l5 11a4.1 4.1 0 0 0 3.7 2.4 5 5 0 0 0 2-.5l.6-.1c1 0 1.8.9 1.5 1.9l-.3 1.6a8 8 0 0 1-2.4 4.3l-3 2.8c-1.4 1.2-2 3-1.9 4.8l-.2 5.1a4 4 0 0 1-1.3 3 16.1 16.1 0 0 0-3 4l-3.9 6.7a9.3 9.3 0 0 1-5.7 4.4l-1.2.3-.8.1c-1.3 0-2.5-.8-3-2l-3.5-9.3c-.9-2.2-1.1-4.5-.7-6.8v-.7a13 13 0 0 0-.2-5.2l-1.7-6a4 4 0 0 0-4-3H47l-6.8.2H40c-1.6 0-3.2-.6-4.4-1.7l-3.2-3a7.4 7.4 0 0 1-2.3-6l.3-2.7a16 16 0 0 1 4-9.2l1-1.2c1.9-2.2 4.4-3.7 7.3-4.2l7.3-1.4h.4c1 0 2 .8 2 1.8 0 .8.2 1.5.8 2l4.3 3.2c.2.2.4.2.6.2.3 0 .6-.1.8-.3l1.8-2.2c.1-.3.4-.4.7-.4h.2l8 2.3h.2c.4 0 .7-.2.9-.6l1-3a1 1 0 0 0-.8-1.3l-3.8-.3a1 1 0 0 1-.7-.4l-.2-.3c-.2-.4-.2-.8 0-1.2.5-.8 1-1.6 1.7-2.3a1.2 1.2 0 0 1 1-.4l7.5.6h.1c0-.2 1.5-3.1 1.3-3.2a5443.2 5443.2 0 0 0-8.8-4.3 1 1 0 0 0-.8.4l-2.5 3.6a1 1 0 0 0 0 1.1l.4.4c.1.2.2.5 0 .7-.2.6-.5 1.2-1 1.8 0 .2-.3.3-.6.3h-.2l-.7-.1c-.3 0-.5 0-.6.3l-.3 1a1 1 0 0 1-1 .8 1 1 0 0 1-.6-.3l-1.7-1.9a1 1 0 0 1-.3-.8c.3-1.3 0-2.6-1-3.5L56 48c-.2-.2-.5-.3-.8-.3-.3 0-.5 0-.7.2-.7.5-.6 1.2-.1 1.6l2.6 2c.9.7.7 2.2-.8 2.4H56c-.7 0-1.4-.4-1.9-1l-2-2.6a3.3 3.3 0 0 0-3.8-1.1l-.5.2a5.9 5.9 0 0 0-2.9 2.3l-1.5 2.4a4 4 0 0 1-4 1.8l-2.2-.4c-1.2-.1-2-1.2-2-2.5l.1-.6a3.7 3.7 0 0 1 4-3.5h.2c1.3 0 2.3-1.4 1.6-2.7l-.7-1.5c-.6-1.2 0-2.6 1.1-3l3-1.3c1-.4 1.7-1.3 2-2.4 0-.7.6-1.1 1.3-1.1h.4c1 0 1.6-1 1.3-1.9a1.1 1.1 0 0 1 1.1-1.5c.5 0 .9.3 1 .8l.5.9c.1.3.5.6.9.6l5.2.6c.5 0 .8-.2 1-.6l1.3-3.4A1 1 0 0 1 62 32l.9.4.3.1c.2 0 .4-.1.5-.3.2-.3.1-.6 0-.8l-.7-.6a1 1 0 0 1-.2-1l.3-.8c0-.3.4-.5.7-.6l1.3-.2a1 1 0 0 0 .4-1.7l-.2-.1a1 1 0 0 0-.5-.2h-.3c-1.6 0-3-1-3.7-2.4l-.4-.7a1 1 0 0 1 .6-1.3c.3-.1.5-.3.6-.6l1.2-3.1c0-.3 0-.7-.4-.8L62 17h-.2c-.2 0-.4 0-.6.3l-3.3 6a1 1 0 0 0 .3 1.4c1 .8 1.2 2.3.7 3.5L57.5 32c0 .3-.2.4-.4.5a2.8 2.8 0 0 1-3.9-1.5l-.6-1.7a.9.9 0 0 0-.8-.6 1 1 0 0 0-.7.3l-1.3 1c-.3.2-.6.3-1 .3h-.5c-.6-.3-1-.8-1-1.5l-.1-2.8a4 4 0 0 1 1.4-3.3c1.2-1 2.1-2.2 2.5-3.6l.8-2.6a4.7 4.7 0 0 1 2.4-3l4-1.9a5.3 5.3 0 0 1 3.3-.4L74 13.7a10.9 10.9 0 0 0 3.2.2l23.8.4h.6a31 31 0 0 0 7-.8l19.9-4.7 1.5-.1M86 56.3a1 1 0 0 0 1-1c0-1.3.2-3.6 0-4 0-.2-1-1.3-1.7-2.2a1 1 0 0 1 .3-1.4l.8-.4c.4-.2.6-.7.5-1.1l-.2-.5a1 1 0 0 0-.9-.7 1 1 0 0 0-.4.1l-3.8 2.2a1 1 0 0 0-.4 1.3l1.7 3.2c.2.3.2.5.1.8l-.6 2a1 1 0 0 0 .7 1.2l2.7.4h.2m44-50.4a16.2 16.2 0 0 0-2.2.2L108 10.6c-2.1.5-4.3.7-6.5.7h-.5l-23.8-.5h-.3a9.7 9.7 0 0 1-2.3 0L62 8.2a8.3 8.3 0 0 0-5.3.7L53 11c-2 1-3.4 2.7-4 4.7l-.8 2.6a4 4 0 0 1-1.6 2.2 7 7 0 0 0-2.5 5.7l.2 2.8c0 1.8 1 3.3 2.7 4l-.3 1a4.4 4.4 0 0 0-3 3.5l-.3.2-2.9 1.2a5.2 5.2 0 0 0-2.7 7c-3 .6-5.2 3.2-5.4 6.4v.6c-.1 2 .9 4 2.5 4.9-.6.5-1.2 1-1.7 1.7l-1 1.2a19 19 0 0 0-4.7 10.9l-.3 2.6c-.3 3.2 1 6.4 3.3 8.6l3.1 2.9a9.5 9.5 0 0 0 6.6 2.6h.4l6.8-.3c.5 0 1 .3 1.1.8l1.7 6c.4 1.4.4 2.7.2 4v.7c-.5 2.8-.2 5.7.8 8.3l3.5 9.3a6.3 6.3 0 0 0 7.4 3.8l1.2-.3c3.2-.9 6-3 7.5-5.9l3.9-6.7a14 14 0 0 1 2.4-3.3 7 7 0 0 0 2.3-5l.2-5.1V94a3 3 0 0 1 1-2.3l3-2.7a11 11 0 0 0 3.3-6l.3-1.5c.3-1.4 0-2.8-1-3.9v-.1l4.4-2.6c1.3-.8 2.5-2.6 1.8-5.2l-.3-.9 3.9.7c.1 0 .3 0 .4.2L99 73c.5.6 1 1.4 1.2 2.2l1.7 5.3a4.8 4.8 0 0 0 7.7 2.2l1-.8c.9-.8 1.5-1.9 1.6-3.1l.1-1A4 4 0 0 1 114 75l2-1.4 1 2.6a4.1 4.1 0 0 0 3 2.4l.3 2c-.7.2-1.3.6-1.8 1v.2a3.6 3.6 0 0 0-.2 5l7.2 8a8.6 8.6 0 0 0 4.5 2.8l9.2 2 .8.1c1.2 0 2.3-.6 3-1.6.6-1 .8-2.2.4-3.3s-1.3-1.9-2.4-2.2l-6.6-2c-.9-.4-1.6-1-1.8-2l-.5-2.7c-.2-.8-.5-1.5-.9-2.2.4-.3.8-.6 1-1l1.6-1.8c1.6-2 1.7-4.8.2-6.8l-1-1.5 4 .2h.2a6 6 0 0 0 5.4-3.5l1.6-3.6c.7-1.5 1-3.1.7-4.7a4 4 0 0 0 4.7-.6L151 59a4 4 0 0 0 1-3.8l-.5-2 .9-1 2-.2a4 4 0 0 0 3.4-2.7l3.3-10.1c.7-2 .1-4.3-1.4-5.8l.9-.8a5 5 0 0 1 3.3-1.3h1.5a8 8 0 0 0 2.7-.4 6.7 6.7 0 0 0-.7 3.7l.1 2a4.4 4.4 0 0 0 7.8 2.3l4-4.8c.6-.9 1-2 .7-3v-.6l2.8-.4c1-.1 1.8-.4 2.6-1l5-3.3a5 5 0 0 0 2-6l-1-2.5a7 7 0 0 0-5.7-4.5l-34-4.2-19.2-2.8-2.5-.1zm-60.6 44l.3-.4 1 .5-1.3-.1zm-21.9 3.5c.4-.4.8-.8 1.4-1l.5-.2h.4l.5.8h-.8l-2 .4zM56 57h.7a5 5 0 0 0 1-.3l1.2 1.2.2.2-.8.6-.5.7-2.4-1.8-.1-.7h.7z"/><path d="M159.8 40c1 0 1.6.8 1.5 1.6l-.6 3.7c-.1.9.3 1.8 1 2.4.7.5.7 1.6 0 2.1l-1.9 1.7c-.2.3-.3 2.2-.3 3.9 0 1.4-.8 2.8-2 3.6l-6.4 4h-.4a.6.6 0 0 1-.6-.5l-.1-2c0-.1 0-.3.2-.4l3.1-2.5a9 9 0 0 0 2.6-3.3l2.3-5c.3-.8.6-1.7.6-2.5l.4-6.2c0-.4.3-.6.6-.6m0-3a3.6 3.6 0 0 0-3.6 3.4l-.4 6.2c0 .5-.2 1-.4 1.4l-2.2 5c-.4.9-1 1.6-1.7 2.2l-3.2 2.5c-1 .7-1.4 1.9-1.3 3v2a3.6 3.6 0 0 0 5.6 2.8l6.4-4a7.3 7.3 0 0 0 3.4-6l.1-2.5 1-.9c1-.8 1.7-2 1.7-3.4 0-1.2-.6-2.4-1.5-3.2l.5-3.4A4.5 4.5 0 0 0 160 37z"/><path d="M144.8 66.1c.2 0 .5.2.6.5l.2 1.2c.1.6 0 1.2-.3 1.7a2 2 0 0 0-.4 1.5v.7h-.6l-1-1.7c-.5-.6-.5-1.5-.1-2.1l.7-1.4c.1-.2.4-.4.6-.4h.3m0-3h-.3c-1.4 0-2.6.8-3.2 2l-.8 1.3c-.8 1.7-.8 3.6.2 5.2l1 1.7 1 1.4h5.6l-.4-3.4V71c.7-1 1-2.4.7-3.7l-.3-1.2a3.7 3.7 0 0 0-3.5-2.9zm-4.1 19.5h.5c.6.3 1 .8 1 1.5v2l-1.1 4.3a1.8 1.8 0 0 1-2.2 1.3l-4-1c-.5 0-.8-.4-1-.8l-.8-1.8c-.3-.7 0-1.5.6-1.8l6.3-3.5.7-.2m0-3a4 4 0 0 0-2.1.6l-6.3 3.4a4.4 4.4 0 0 0-2 5.7l.8 1.8a4.4 4.4 0 0 0 3 2.6l4.1 1h1.1a5 5 0 0 0 4.7-3.6l1-4.3.2-1V84a4.4 4.4 0 0 0-4.5-4.4zm13.6 8.9c.4 0 .8 0 1 .2l7.4 3.4c.8.4 1.4 1 1.7 1.9l.9 2.6-.2 1-2.6-2.3a2 2 0 0 0-2.7 0l-.4.2-2.2.2h-.2a3 3 0 0 1-2.4-1l-3.2-3.8c-.7-.8-.2-2 .8-2.1l1.8-.3h.3m0-3h-.8l-1.7.3a4.3 4.3 0 0 0-2.6 7l3.2 3.8a6 6 0 0 0 4.6 2h.5l2.1-.1c.5 0 1-.2 1.5-.5l2 1.8 4 3.6 1-5.2.1-1 .2-.8-.3-.8-1-2.6a6.2 6.2 0 0 0-3.1-3.6l-7.3-3.4c-.8-.3-1.6-.5-2.4-.5z"/><path d="M150.1 97.3h.4l3.3.4c.4 0 .6.5.5.8l-.5 2.1c0 .3.1.7.5.8l2.2.6h.4c.9 0 1.6-.7 1.6-1.6l-.1-1.8c0-.3.2-.6.6-.6h.4c.3 0 .5.2.6.4l.4 1c1 2.1 2.3 4 4 5.7l3.2 3.3c.8.7 1 1.8.9 2.8l-1.9 8.7c-.1.8-.6 1.6-1.3 2l-1.2.8a4 4 0 0 1-3.5.5l-1.8-.6a5 5 0 0 1-2.8-2.4l-.4-.7a1 1 0 0 0-1.5-.2 1 1 0 0 1-1.3 0l-1.5-1a3.5 3.5 0 0 0-3.2-.7l-5.5 1.7c-.5.2-1 .2-1.4.2a5 5 0 0 1-3-1l-1.3-1c-.5-.4-.6-1-.3-1.5.2-.3.3-.6.2-.9l-1.3-7c-.2-1 .4-2.2 1.5-2.6l3.7-1.2c.8-.3 1.5-.7 2.2-1.3l4.7-4.6c.7-.7 1.6-1 2.5-1m0-3c-1.7 0-3.4.6-4.6 1.8l-4.7 4.6-1 .7-3.7 1.2c-2.5.8-4 3.4-3.5 6l1.1 6.3a4 4 0 0 0 1.3 4.9l1.4 1a8 8 0 0 0 7.1 1.3l5.5-1.7h.4l1.4 1.2a4 4 0 0 0 3.2.9 8 8 0 0 0 3.8 2.8l1.9.6a7 7 0 0 0 6.2-.8l1.1-.8a5.9 5.9 0 0 0 2.6-3.9l1.8-8.7c.4-2-.2-4-1.6-5.5l-3.3-3.3c-1.4-1.4-2.5-3-3.3-4.9l-.4-1a3.7 3.7 0 0 0-3.2-2.1h-.5c-1 0-2 .3-2.6 1a3.7 3.7 0 0 0-2.3-1.2l-3.3-.4h-.8zM83 99.3c.4 0 .8.3 1 .7l.8 2.3c.2.5.2 1.1 0 1.6l-1.8 4.8a2 2 0 0 1-1.7 1.2h-.2a3 3 0 0 1-2.6-3.5l.3-2.2a5 5 0 0 1 1.6-3l1.8-1.6c.2-.2.5-.3.7-.3m0-3c-1 0-2 .4-2.7 1L78.4 99a8 8 0 0 0-2.6 4.8l-.3 2.3a6 6 0 0 0 5.8 6.9c2 0 3.8-1.2 4.5-3l1.8-5c.5-1.1.5-2.4 0-3.6l-.8-2.3a4.2 4.2 0 0 0-3.9-2.7zm-99.6-19.8c.6 0 1.2 0 1.8.2l8 2.3c.5.2.7.8.4 1.3l-.5.7a1.3 1.3 0 0 1-1.2.5l-8.2-1.3a7.2 7.2 0 0 0-2.2 0l-1.5.2a4 4 0 0 1-3.5-1.2l-.3-.3a.6.6 0 0 1 .3-1l5.5-1.3 1.4-.1m0-3c-.7 0-1.4 0-2.1.2l-5.6 1.4c-1.2.3-2.2 1.2-2.5 2.5s0 2.5.8 3.4l.4.4a7.1 7.1 0 0 0 6 2l1.6-.2a4.5 4.5 0 0 1 1.3 0l8 1.3h.8c1.4 0 2.7-.7 3.5-1.9l.5-.6a3.8 3.8 0 0 0-2.1-5.8l-4.4-1.3-3.5-1c-.9-.3-1.8-.4-2.7-.4z"/><path d="M-2.6 80l.2.1c2.1.4 6.7 2.9 5.8 3.7a1.3 1.3 0 0 1-1.2.3l-6.6-1.8a.2.2 0 0 1-.1-.3l.8-1.3c.3-.4.7-.6 1-.6m0-3a4 4 0 0 0-3.5 2l-.8 1.2a3.2 3.2 0 0 0 1.8 4.9L1.4 87l1.1.1c1 0 2-.4 2.8-1 1-.9 1.4-2.2 1-3.5-.8-3-6.5-5.2-8.2-5.4l-.7-.1z"/></g><g clip-path="url(#c)"><linearGradient id="d" x1="173.9" x2="173.9" y1="7.7" y2="152.3" gradientUnits="userSpaceOnUse"><stop stop-color="#AEEA00" offset="0"/><stop stop-color="#ADE903" offset=".2"/><stop stop-color="#A9E40B" offset=".4"/><stop stop-color="#A2DC1A" offset=".5"/><stop stop-color="#98D12F" offset=".6"/><stop stop-color="#8BC34A" offset=".7"/><stop stop-color="#8BC34A" offset="1"/></linearGradient><path d="M174.8 118.7c-.2.1-4.4 3.2-3.5 5.2 1 1.9 1.7 5.5 3.6 3 2-2.6 2.6-10-.2-8.2z" fill="url(#d)"/><linearGradient id="e" x1="164.8" x2="164.8" y1="7.7" y2="152.3" gradientUnits="userSpaceOnUse"><stop stop-color="#AEEA00" offset="0"/><stop stop-color="#ADE903" offset=".2"/><stop stop-color="#A9E40B" offset=".4"/><stop stop-color="#A2DC1A" offset=".5"/><stop stop-color="#98D12F" offset=".6"/><stop stop-color="#8BC34A" offset=".7"/><stop stop-color="#8BC34A" offset="1"/></linearGradient><path d="M168.3 125.4c.5-1 2-.6 2.5.3 1.2 2 2 5.8-7.4 9-13 4.5 1.4-2.3 5-9.3z" fill="url(#e)"/><linearGradient id="f" x1="-37.8" x2="-37.8" y1="7.7" y2="152.3" gradientUnits="userSpaceOnUse"><stop stop-color="#AEEA00" offset="0"/><stop stop-color="#ADE903" offset=".2"/><stop stop-color="#A9E40B" offset=".4"/><stop stop-color="#A2DC1A" offset=".5"/><stop stop-color="#98D12F" offset=".6"/><stop stop-color="#8BC34A" offset=".7"/><stop stop-color="#8BC34A" offset="1"/></linearGradient><path d="M-.5 92L-4 89.3a16.7 16.7 0 0 0-7.7-3.1l-5-.7c-2-.3-4.1.7-5.2 2.5a2 2 0 0 1-1.9.9h-.2a2 2 0 0 1-1.6-1.7l-.3-2.3c0-1-.9-1.7-1.8-1.7a1.9 1.9 0 0 1-1.8-2.5l.2-.6c.3-.9-.3-1.8-1.2-1.8l-1.6-.1c-.5 0-1.1.2-1.5.6-1 .9-2.7.6-3.4-.6v-.1c-.4-.6-.4-1.3-.2-1.9l.8-1.8c.7-1.7 2.3-3 4.2-3.3l2.5-.3a3 3 0 0 1 3.2 2 2.8 2.8 0 0 0 3 2c.8 0 1.3-.7 1.2-1.4l-.2-4c0-.3 0-.6.3-.9 4.4-5.3 10-9.4 16.2-12l3.7-1.6c2.2-1 3.3-3.5 2.3-5.8l-4.6-10.5c-.4-1-1.6-1.3-2.5-.8-.9.6-2 .3-2.5-.7l-1.8-3.7c-.6-1.4-2-2.2-3.4-2.2h-.3c-2 0-3.6 1.5-3.8 3.4l-.9 9a1.8 1.8 0 0 1-3 1l-7.8-7.8a3 3 0 0 1-.7-3.5 9 9 0 0 1 6.8-5.3l1.3-.2c2.4-.5 4-2.6 3.8-5l-.4-5.1a3.8 3.8 0 0 0-4.4-3.4l-12.5 2a20 20 0 0 1-13.7-2.5l-4.1-2.6c-1-.6-2.3-.6-3.3-.1-1 .4-2.1.4-2.9 1-5.6 4.7-26 5.2-27.1 5.3-.5 0-1 .4-1.2.9l-.7 1.8c-.3.8.2 1.6 1 1.8 1 .2 1.5 1.4.8 2.2l-1.8 2.2c-.4.5-.2 1.2.4 1.5l7.2 3.3c2.5 1.1 5.3 1.4 8 1.2a7 7 0 0 1 4.3 1l.6.3a24 24 0 0 1 7.6 7.3l2.1 3.3c1.6 2.4 2.5 5.2 2.7 8l.2 4.3c0 2.3.8 4.5 2 6.5l8.4 14.5c1.2 2 3 3.6 5.3 4.5l8.8 3.2.6.5 3.6 4.8c.2.4.6.6 1 .7l.5.1c1.3.3 2 1.8 1.2 2.9l-.2.4a7.8 7.8 0 0 0-1 5.8l1.3 6.2c.4 2 1.4 4 3 5.4l1.2 1.2A6.8 6.8 0 0 1-19 120l-6.3 22a9 9 0 0 0 .2 5.4l1.1 3.5c.6 1.7 2.1 3 3.9 3.2l2.7.4c1.4.3 2.4-1.3 1.6-2.5l-1.1-1.4c-1.5-2-1.3-5 .4-6.8l15-15.6c1.2-1.3 2-3 2-4.8v-.4a4 4 0 0 1 3.2-3.7l2.9-.6a4 4 0 0 0 2.6-2L14 108a4 4 0 0 0-1.7-5.6l-7-3.4a6.4 6.4 0 0 1-3.4-3.8A6.5 6.5 0 0 0-.5 92z" fill="url(#f)"/><linearGradient id="g" x1="529.3" x2="529.3" y1="7.7" y2="152.3" gradientTransform="matrix(-1 0 0 1 532.5 0)" gradientUnits="userSpaceOnUse"><stop stop-color="#AEEA00" offset="0"/><stop stop-color="#ADE903" offset=".2"/><stop stop-color="#A9E40B" offset=".4"/><stop stop-color="#A2DC1A" offset=".5"/><stop stop-color="#98D12F" offset=".6"/><stop stop-color="#8BC34A" offset=".7"/><stop stop-color="#8BC34A" offset="1"/></linearGradient><path d="M-5.7 25.5l.1-2.3c0-.7-.6-1.4-1.8-1.8l-1.2-.4c-1.5-.5-2.2-1.5-1.6-2.3.4-.6.1-1.3-.6-1.8l-2.6-1.8c-1-.7-1-1.6-.2-2.3l9-5.6c.6-.6 1.7-1 3-1l5-.4c1.3 0 2.6.1 3.6.6l12.2 2.3c1.3.6 1.7 1.5 1.1 2.3L4.8 26c-.5.7-1.7 1.2-3.1 1.3l-2.2.2c-2.7.3-5.3-.7-5.2-2z" fill="url(#g)"/><radialGradient id="h" cx="61.7" cy="12.3" r="104" gradientUnits="userSpaceOnUse"><stop stop-color="#AEEA00" offset="0"/><stop stop-color="#ADE903" offset=".2"/><stop stop-color="#A9E40B" offset=".4"/><stop stop-color="#A2DC1A" offset=".5"/><stop stop-color="#98D12F" offset=".6"/><stop stop-color="#8BC34A" offset=".7"/><stop stop-color="#8BC34A" offset="1"/></radialGradient><path d="M37.5 32.5c.4-.8 1.6-.6 1.6.3 0 1 1 1.6 2 1.2l2-1c.7-.3 1.3-1 1.6-1.7.6-1.2.5-2.6-.3-3.7l-3.9-5.3a2 2 0 0 0-2.8-.4l-1 .7c-.7.5-1 1.4-.9 2.2l.2 1.4v.5l-1.1 2c-.7 1.4-.3 3 1 3.8l.4.3c.4.3 1 .1 1.2-.3z" fill="url(#h)"/><path d="M189.6 20.8l-1-2.4a4 4 0 0 0-3.2-2.6l-34.1-4.1L132 8.9c-1.2-.2-2.4-.2-3.6-.1l-19.8 4.7c-2.6.6-5.2.9-7.7.8l-23.8-.5c-1.1.1-2.2.1-3.2-.1l-12.5-2.4c-1.1-.2-2.3 0-3.3.4l-4 2c-1.2.6-2 1.6-2.4 2.9l-.8 2.6a7.6 7.6 0 0 1-2.5 3.6 4 4 0 0 0-1.4 3.3v2.8a1.5 1.5 0 0 0 2.6 1.2l1.2-1c.7-.5 1.4-.2 1.6.4l.6 1.6a2.8 2.8 0 0 0 3.9 1.5c.2 0 .4-.2.4-.5l1.4-3.8c.5-1.2.3-2.7-.7-3.5a1 1 0 0 1-.3-1.4l3.3-6c.2-.3.5-.4.8-.3l.4.2c.3.1.5.5.4.8l-1.2 3.1c0 .3-.3.5-.5.6h-.1a1 1 0 0 0-.6 1.3l.4.7a4.2 4.2 0 0 0 4 2.4c.2 0 .4 0 .6.2h.1a1 1 0 0 1-.4 1.8l-1.3.2a1 1 0 0 0-.7.6l-.3.8c-.2.3 0 .8.2 1l.6.6c.2.2.3.5.1.8-.1.3-.5.4-.8.2L62 32a1 1 0 0 0-1.3.4L59.2 36a1 1 0 0 1-1 .5L53 36c-.4 0-.7-.3-.9-.7l-.4-.9a1 1 0 0 0-1.6-.6c-.5.3-.7.9-.5 1.3.3 1-.4 1.9-1.3 1.9h-.4c-.7 0-1.3.5-1.4 1.1-.2 1.1-1 2-2 2.5l-3 1.2a2.2 2.2 0 0 0-1 3l.7 1.5c.6 1.3-.4 2.9-1.9 2.7-2-.2-3.9 1.5-4 3.5v.7c0 1.3.8 2.3 2 2.4l2.1.4a4 4 0 0 0 4-1.8l1.6-2.4a6 6 0 0 1 2.8-2.3l.6-.2c1.3-.5 2.9-.1 3.8 1l2 2.7c.5.7 1.3 1.1 2.1 1 1.5-.2 1.7-1.7.9-2.3l-2.7-2.1a1 1 0 0 1 .1-1.6c.5-.3 1.1-.3 1.5 0l2 1.7c1 .9 1.3 2.2 1 3.5 0 .3 0 .6.3.8l1.7 1.9a1 1 0 0 0 1.6-.4l.3-1c.2-.6.8-.5 1.3-.3.4.1.7 0 1-.3l1-1.8c0-.2 0-.5-.2-.7l-.3-.4a1 1 0 0 1 0-1.1l2.5-3.6a1 1 0 0 1 1.2-.3l8.4 4.2c.2 0-1.3 3-1.3 3.2l-7.6-.6c-.4 0-.8 0-1 .4-.7.7-1.3 1.5-1.8 2.4a1 1 0 0 0 0 1.1l.2.3c.2.3.4.4.8.5l3.8.2c.6 0 1 .7.8 1.3l-1.1 3a1 1 0 0 1-1.2.6l-7.8-2.2a1 1 0 0 0-1 .3l-1.8 2.2a1 1 0 0 1-1.3.2l-4.3-3.3a3 3 0 0 1-1-2A2 2 0 0 0 50 56l-7.3 1.4c-2.8.5-5.4 2-7.3 4.2l-1 1.2a16.5 16.5 0 0 0-4 9.2l-.3 2.7c-.2 2.2.7 4.5 2.3 6l3.2 3c1.3 1.2 3 1.8 4.7 1.7l6.8-.3c2 0 3.7 1.2 4.2 3l1.7 6c.5 1.8.6 3.6.3 5.3l-.1.7c-.4 2.3-.1 4.6.7 6.8l3.5 9.2a3.2 3.2 0 0 0 3.8 2l1.2-.3a9.4 9.4 0 0 0 5.7-4.4l3.9-6.8c.8-1.5 1.7-2.8 3-4a4 4 0 0 0 1.3-2.9l.3-5.1c-.2-1.8.5-3.6 1.8-4.8l3-2.8a8 8 0 0 0 2.4-4.3l.4-1.6c.2-1.2-1-2.3-2.1-1.8-2.3 1-4.8.3-5.9-2l-4.9-10.9a1 1 0 0 1 .9-1.3c.3 0 .7.2.8.5l4.6 8.8a4 4 0 0 0 5.5 1.6l5.9-3.4c1.8-1.1-1.3-5.5-2-5l-.9.6a1 1 0 0 1-1.4-.4l-1.3-3c-.3-.6-.2-1.3.2-1.7.6-.6 1.5-.6 2-.1 1.7 1.4 3.5 2.6 5.6 2.9l5.2.8c.9.2 1.6.6 2.2 1.3l2.7 3.2c.8.9 1.4 2 1.8 3.2l1.7 5.3c.3 1.3 1.9 1.7 2.9.9l.9-.8c.4-.3.6-.8.6-1.2l.1-1a7 7 0 0 1 3-5l3.9-2.8a1 1 0 0 1 1.4.4l2.2 5c.3.6 1 .8 1.5.6a1 1 0 0 1 1.5.8l.6 4.8v.2l1.5 3c.3.5-.3 1.1-.9.8l-2.6-1.6a.6.6 0 0 0-.8.1v.1c-.3.3-.3.6-.1.9l7.2 8.1c.8 1 1.8 1.5 3 1.8l9 2c.3.1.6 0 .8-.2.2-.4 0-.9-.4-1l-6.6-2c-2-.6-3.4-2.2-3.8-4.2l-.6-2.7c-.2-.8-.5-1.5-1-2a50.7 50.7 0 0 1-3.2-4v-1.2a1 1 0 0 1 1.7-.6l1.9 2.1c.4.5 1 .5 1.4 0l1.6-1.9c.7-.9.7-2.2 0-3.1l-1-1.5a3.2 3.2 0 0 1 0-3.9c.5-.5 1.2-.8 2-.8l4.6.1a3 3 0 0 0 2.8-1.7l1.6-3.6c.6-1.4.6-3.1 0-4.6l-2-4.2a1 1 0 0 1 .3-1l2.4-2.2a1 1 0 0 1 1.4.1l1.4 1.6.3.5.6 3.1c.1.7 1 1 1.6.5l1.3-1.4c.3-.2.4-.5.3-.9l-.9-3.2c0-.3 0-.6.3-.8l2.2-2.4.6-.3 2.8-.2c.4 0 .7-.3.8-.7l3.3-10c.4-1.2 0-2.3-.9-3l-1.4-1a1 1 0 0 1 0-1.5l2.6-2.5a8 8 0 0 1 5.6-2h1c1.7 0 3.2-.5 4.4-1.5l1.7-1.3a8.5 8.5 0 0 1 5-1.8h.8c.3 0 .4.3.2.5l-6 7.5c-.7.7-1 1.7-.9 2.6l.2 2a1.4 1.4 0 0 0 2.4.7l4-4.9c.1-.2.2-.4.1-.7l-.2-1.3c-.1-1.2.7-2.3 1.8-2.4l3.8-.6c.5 0 1-.2 1.3-.5l5-3.3c.9-.6 1.2-1.6.9-2.6zM87 55.4c-.1.5-.6 1-1.1.8l-2.8-.4a1 1 0 0 1-.7-1.2l.6-2c.1-.3 0-.5 0-.8l-1.8-3.2a1 1 0 0 1 .4-1.3l3.8-2.2a1 1 0 0 1 1.4.6l.1.5c.1.4 0 .9-.5 1l-.8.5a1 1 0 0 0-.3 1.4c.7.9 1.7 2 1.8 2.3.2.3 0 2.6-.1 4z" fill="url(#h)"/><linearGradient id="i" x1="156.1" x2="156.1" y1="7.7" y2="152.3" gradientUnits="userSpaceOnUse"><stop stop-color="#AEEA00" offset="0"/><stop stop-color="#ADE903" offset=".2"/><stop stop-color="#A9E40B" offset=".4"/><stop stop-color="#A2DC1A" offset=".5"/><stop stop-color="#98D12F" offset=".6"/><stop stop-color="#8BC34A" offset=".7"/><stop stop-color="#8BC34A" offset="1"/></linearGradient><path d="M159.2 40.6l-.4 6.2c0 .8-.3 1.7-.6 2.5l-2.3 5a8.8 8.8 0 0 1-2.6 3.3l-3.1 2.4-.3.6.2 1.9c0 .4.5.7 1 .5l6.3-4c1.2-.8 2-2.2 2-3.6 0-1.7.1-3.6.4-4l1.8-1.6c.7-.6.7-1.6 0-2.2-.7-.5-1-1.4-.9-2.3l.5-3.7c.2-.8-.5-1.6-1.4-1.6-.3 0-.6.2-.6.6z" fill="url(#i)"/><linearGradient id="j" x1="144.3" x2="144.3" y1="7.7" y2="152.3" gradientUnits="userSpaceOnUse"><stop stop-color="#AEEA00" offset="0"/><stop stop-color="#ADE903" offset=".2"/><stop stop-color="#A9E40B" offset=".4"/><stop stop-color="#A2DC1A" offset=".5"/><stop stop-color="#98D12F" offset=".6"/><stop stop-color="#8BC34A" offset=".7"/><stop stop-color="#8BC34A" offset="1"/></linearGradient><path d="M144.8 66.1h-.3c-.3 0-.5.1-.6.3l-.7 1.4c-.4.7-.4 1.6 0 2.2l1 1.7h.8l-.1-.7c0-.5 0-1 .3-1.5a2 2 0 0 0 .4-1.7l-.3-1.2c0-.3-.3-.5-.6-.5z" fill="url(#j)"/><linearGradient id="k" x1="137.6" x2="137.6" y1="7.7" y2="152.3" gradientUnits="userSpaceOnUse"><stop stop-color="#AEEA00" offset="0"/><stop stop-color="#ADE903" offset=".2"/><stop stop-color="#A9E40B" offset=".4"/><stop stop-color="#A2DC1A" offset=".5"/><stop stop-color="#98D12F" offset=".6"/><stop stop-color="#8BC34A" offset=".7"/><stop stop-color="#8BC34A" offset="1"/></linearGradient><path d="M133.1 88l.8 2c.2.3.5.7 1 .8l4 .9c1 .2 2-.4 2.2-1.3l1-4.3v-2a1.4 1.4 0 0 0-2-1.3l-6.4 3.5c-.6.3-.9 1.1-.6 1.8z" fill="url(#k)"/><linearGradient id="l" x1="158.2" x2="158.2" y1="7.7" y2="152.3" gradientUnits="userSpaceOnUse"><stop stop-color="#AEEA00" offset="0"/><stop stop-color="#ADE903" offset=".2"/><stop stop-color="#A9E40B" offset=".4"/><stop stop-color="#A2DC1A" offset=".5"/><stop stop-color="#98D12F" offset=".6"/><stop stop-color="#8BC34A" offset=".7"/><stop stop-color="#8BC34A" offset="1"/></linearGradient><path d="M157.2 95.7l2.2-.2c.1 0 .3 0 .4-.2a2 2 0 0 1 2.7 0l2.6 2.3.2-1-1-2.6c-.2-.9-.8-1.5-1.6-1.9l-7.3-3.4c-.5-.2-1-.3-1.4-.2l-1.8.3c-1 .1-1.4 1.3-.8 2.1l3.3 3.7c.6.8 1.5 1.1 2.5 1z" fill="url(#l)"/><linearGradient id="m" x1="152" x2="152" y1="7.7" y2="152.3" gradientUnits="userSpaceOnUse"><stop stop-color="#AEEA00" offset="0"/><stop stop-color="#ADE903" offset=".2"/><stop stop-color="#A9E40B" offset=".4"/><stop stop-color="#A2DC1A" offset=".5"/><stop stop-color="#98D12F" offset=".6"/><stop stop-color="#8BC34A" offset=".7"/><stop stop-color="#8BC34A" offset="1"/></linearGradient><path d="M159.5 98h-.5c-.3 0-.6.3-.6.7v1.7c.1 1-.9 1.8-1.9 1.6l-2.2-.6a.6.6 0 0 1-.5-.8l.6-2c0-.4-.2-.8-.6-.8l-3.3-.4c-1-.1-2.1.2-2.9 1L143 103c-.6.6-1.4 1-2.2 1.3l-3.6 1.3a2.3 2.3 0 0 0-1.6 2.6l1.3 7c0 .2 0 .5-.2.8-.3.5-.2 1.1.3 1.5l1.3 1c1.3 1 3 1.3 4.4.8l5.5-1.7c1-.3 2.3 0 3.2.7l1.4 1.1c.4.3 1 .3 1.4 0a1 1 0 0 1 1.6.2l.3.6a5 5 0 0 0 2.8 2.4l1.9.6a4 4 0 0 0 3.5-.4l1.1-.8c.7-.5 1.2-1.2 1.4-2l1.8-8.8c.2-1-.1-2-.9-2.8l-3.2-3.2c-1.7-1.7-3-3.7-4-5.9l-.4-1c0-.1-.3-.3-.5-.3z" fill="url(#m)"/><path d="M78.8 104.2l-.3 2.2A3 3 0 0 0 81 110c.8 0 1.6-.4 1.9-1.2l1.8-4.8c.2-.5.2-1 0-1.6l-.8-2.2c-.3-.8-1.2-1-1.8-.5l-1.8 1.6a5 5 0 0 0-1.6 3z" fill="url(#h)"/><linearGradient id="n" x1="-15.2" x2="-15.2" y1="7.7" y2="152.3" gradientUnits="userSpaceOnUse"><stop stop-color="#AEEA00" offset="0"/><stop stop-color="#ADE903" offset=".2"/><stop stop-color="#A9E40B" offset=".4"/><stop stop-color="#A2DC1A" offset=".5"/><stop stop-color="#98D12F" offset=".6"/><stop stop-color="#8BC34A" offset=".7"/><stop stop-color="#8BC34A" offset="1"/></linearGradient><path d="M-18.1 76.6l-5.5 1.4c-.5.1-.6.6-.3 1l.3.3a4 4 0 0 0 3.5 1.2l1.5-.3h2.2l8.2 1.3c.5.1 1-.1 1.2-.5l.5-.7c.3-.4 0-1-.4-1.2l-8-2.4c-1-.3-2.2-.3-3.2 0z" fill="url(#n)"/><linearGradient id="o" x1="-.5" x2="-.5" y1="7.7" y2="152.3" gradientUnits="userSpaceOnUse"><stop stop-color="#AEEA00" offset="0"/><stop stop-color="#ADE903" offset=".2"/><stop stop-color="#A9E40B" offset=".4"/><stop stop-color="#A2DC1A" offset=".5"/><stop stop-color="#98D12F" offset=".6"/><stop stop-color="#8BC34A" offset=".7"/><stop stop-color="#8BC34A" offset="1"/></linearGradient><path d="M-3.7 80.7l-.8 1.3v.3L2.3 84c.4 0 .8 0 1.2-.3.9-.8-3.7-3.3-5.8-3.7-.5 0-1 .1-1.3.6z" fill="url(#o)"/></g><path d="M64 7a57 57 0 1 1-.1 114.1A57 57 0 0 1 64 7m0-3a60 60 0 1 0 0 120A60 60 0 0 0 64 4z" fill="#424242" opacity=".2"/></svg>