<svg viewBox="0 0 128 128" xmlns="http://www.w3.org/2000/svg" xmlns:xlink="http://www.w3.org/1999/xlink"><radialGradient id="a" cx="225.8" cy="598.2" r="52.6" gradientTransform="matrix(1.012 .00624 -.00621 1.0162 -160.8 -547.6)" gradientUnits="userSpaceOnUse"><stop stop-color="#FF8F00" offset=".4"/><stop stop-color="#FFB300" offset=".8"/></radialGradient><path d="M68.8 29.6L84.5 9c1-1.3 3-.4 2.8 1.2l-3.7 25.6a5.8 5.8 0 0 0 6.5 6.6l25.5-3.4c1.6-.2 2.5 1.9 1.1 2.8L96.1 57.3a5.8 5.8 0 0 0 0 9.3l20.4 15.7c1.3 1 .4 3-1.2 2.8l-25.5-3.7c-3.8-.6-7 2.7-6.6 6.5l3.4 25.6c.3 1.7-1.8 2.5-2.8 1.2L68.4 94a5.8 5.8 0 0 0-9.2-.1l-15.7 20.5c-1 1.3-3 .5-2.8-1.2l3.7-25.5A5.8 5.8 0 0 0 38 81l-25.5 3.5c-1.6.2-2.5-1.9-1.2-2.9L32 66.2c3-2.3 3.1-7 0-9.3L11.6 41.2c-1.3-1-.4-3 1.2-2.8L38.2 42c3.8.6 7-2.7 6.6-6.5L41.3 9.9c-.2-1.6 2-2.4 2.9-1.1l15.4 20.7a5.7 5.7 0 0 0 9.2 0z" fill="url(#a)"/><radialGradient id="b" cx="227.2" cy="597.9" r="52.6" gradientTransform="matrix(.9309 .3986 -.397 .9348 89.9 -587.8)" gradientUnits="userSpaceOnUse"><stop stop-color="#FF8F00" offset=".4"/><stop stop-color="#FFB300" offset=".8"/></radialGradient><path d="M80.8 34l22.4-13c1.4-.7 3 .9 2.1 2.3L92 45.4c-2 3.3-.2 7.6 3.5 8.6l24.8 6.8c1.6.4 1.6 2.7 0 3l-25 6.3a5.8 5.8 0 0 0-3.6 8.5l12.8 22.5c.8 1.4-.8 3-2.2 2.1L80.3 90c-3.3-2-7.6-.3-8.6 3.4l-6.7 25c-.5 1.6-2.7 1.6-3.1 0l-6.2-25.1a5.8 5.8 0 0 0-8.5-3.7l-22.4 13c-1.4.7-3-.9-2.1-2.3L36 78.1c2-3.4.2-7.7-3.5-8.7L7.7 62.7c-1.6-.4-1.6-2.7 0-3l25-6.3c3.7-1 5.5-5.2 3.6-8.6L23.5 22.4c-.8-1.4.8-3 2.2-2.1l22 13.3c3.4 2 7.6.3 8.6-3.5l6.8-25c.4-1.5 2.6-1.5 3 .1l6.2 25.1c1 3.8 5.2 5.6 8.5 3.6z" fill="url(#b)"/><ellipse cx="64.1" cy="61.7" rx="28.8" ry="28.9" fill="#FFEB3B"/><path d="M64.1 35.9a26 26 0 0 1 0 51.7 26 26 0 0 1 0-51.7m0-3a29 29 0 1 0 0 57.7 29 29 0 1 0 0-57.7z" fill="#eee" opacity=".2"/><path d="M64.5 11.3l4 15.7a3 3 0 0 0 2.8 2.3 3 3 0 0 0 2.4-1.2l9.8-12.9-2.4 16.4a3 3 0 0 0 3 3.5c.5 0 1-.2 1.5-.4l14.3-8.3-8.3 14a3 3 0 0 0 3 4.4l16-2.1-13.3 10a3 3 0 0 0 1 5.2l16 4.3-15.7 4c-1.1.2-2 1.1-2.2 2.3s.2 2.2 1 3l13 9.8L94 79h-.5a3 3 0 0 0-2.6 4.5l8.3 14.4-13.9-8.4a3 3 0 0 0-4.5 3l2.1 16.1-9.8-13.3a3 3 0 0 0-3-1.2 3 3 0 0 0-2.3 2.2l-4.3 16-4-15.7a3 3 0 0 0-2.8-2.3 3 3 0 0 0-2.4 1.2l-9.8 12.9 2.4-16.5a3 3 0 0 0-3-3.4 3 3 0 0 0-1.5.4l-14.3 8.3 8.3-14a3 3 0 0 0-3-4.5l-16 2.2 13.3-10a3 3 0 0 0-1-5.2l-16-4.4 15.7-3.9c1.1-.3 2-1.2 2.2-2.3s-.2-2.3-1-3l-13-9.9L34 44.5h.4a3 3 0 0 0 2.7-4.4l-8.3-14.5L42.7 34a3 3 0 0 0 4.5-3l-2.1-16 9.8 13.3a3 3 0 0 0 5.3-1l4.3-16m0-7.3c-.6 0-1.2.4-1.5 1.2l-5.7 21.3L44.2 8.8c-.3-.5-.8-.7-1.3-.7-.8 0-1.7.8-1.6 1.8l3 21.6-18.6-11.2-.8-.3c-1.1 0-2 1.3-1.4 2.4l11 19.1-21.8-3.1h-.3c-1.4 0-2.1 1.8-.9 2.8l17.2 13.2-21 5.2c-1.6.4-1.6 2.7 0 3l21.2 5.8-17.6 13.2c-1.3 1-.6 2.9.9 2.9h.2l21.4-2.9-11.1 18.6c-.7 1.1.2 2.4 1.3 2.4.3 0 .6 0 .8-.2l19.1-11-3.2 21.9a1.6 1.6 0 0 0 2.8 1.2l13.2-17.3 5.2 21c.2.9.8 1.3 1.5 1.3s1.3-.4 1.5-1.2L70.7 97l13.1 17.7c.3.5.8.7 1.3.7.8 0 1.7-.8 1.5-1.9L83.8 92l18.5 11.2c.3.2.5.3.8.3 1.1 0 2-1.3 1.4-2.4l-11-19.2 21.8 3.2h.2c1.5 0 2.2-1.9 1-2.8L99.3 69l21-5.2c1.6-.4 1.6-2.7 0-3.1L99.1 55l17.6-13.2c1.3-.9.6-2.8-.9-2.8h-.2l-21.4 2.9 11.1-18.6c.7-1.2-.2-2.4-1.3-2.4-.3 0-.6 0-.8.2L84 32l3.2-21.9A1.6 1.6 0 0 0 84.4 9l-13 17.3-5.3-21c-.1-1-.9-1.3-1.5-1.3z" fill="#eee" opacity=".2"/><linearGradient id="c" x1="64" x2="64" y1="64.5" y2="123.8" gradientUnits="userSpaceOnUse"><stop stop-color="#FFF9C3" offset="0"/><stop stop-color="#E4EDC5" offset=".1"/><stop stop-color="#6CB7CB" offset=".5"/><stop stop-color="#2095CF" offset=".9"/><stop stop-color="#0288D1" offset="1"/></linearGradient><path fill="url(#c)" d="M4 63.8h120v60.3H4z"/><path d="M121 66.8V121H7V66.7h114m3-3H4V124h120V63.7z" fill="#424242" opacity=".2"/><defs><path id="d" d="M4 63.8h120v60.3H4z"/></defs><clipPath id="e"><use xlink:href="#d"/></clipPath><g clip-path="url(#e)"><path d="M-20 74.4s-30.2 1.3-14.6 3.8c0 0 23.9 2.2 12.5 3.9-11.3 1.7-9.9 5 3.3 4.2s16 1.3 6.1 3.4-7.3 2.6 7.2 1.7S6.2 95.3-2.3 97s-2.4 3.7 10.2 2.8c12.5-.9 12.8-2.3 4.9-2.8-6.7-.5-5.8-5.1 4.8-6.4s6.5-3.4-5.6-3.4-16.7-3.4-.8-4.7 17.4-1.7 7.2-2.1-3.6-2.2 7.8-3.9c0 0 18.3-2.5 2.4-3l-48.6.9z" fill="#E1F5FE" opacity=".2"/><path d="M45 65.2S-2.6 67 22 70.7c0 0 37.7 3 19.7 5.5s-15.6 7.3 5.2 6.1 25.4 1.8 9.7 4.9c-15.6 3-11.5 3.6 11.3 2.4s17.9 4.5 4.5 7c-13.3 2.4-4 3.3 15.8 1.4s17.7-3.4 8.8-4.1c-10.6-.8-9.3-3.7 7.4-5.5s10.3-4.9-8.7-4.9-26.5-4.9-1.3-6.7 27.5-2.4 11.3-3-5.6-3 12.4-5.5c0 0 29-3.7 3.8-4.3l-76.8 1.2z" fill="#FFF9C4" opacity=".3"/><path d="M37 95.7c0 1-3.5 1.8-7.6 1.9s-7.6-.8-7.6-1.8 3.4-1.8 7.6-1.8 7.5.7 7.5 1.7z" fill="#E1F5FE" opacity=".2"/></g></svg>