<svg viewBox="0 0 128 128" xmlns="http://www.w3.org/2000/svg" xmlns:xlink="http://www.w3.org/1999/xlink"><defs><path id="a" d="M116 124H12a8 8 0 0 1-8-8V12a8 8 0 0 1 8-8h104a8 8 0 0 1 8 8v104a8 8 0 0 1-8 8z"/></defs><clipPath id="b"><use xlink:href="#a"/></clipPath><radialGradient id="c" cx="64" cy="120.3" r="119.7" gradientUnits="userSpaceOnUse"><stop stop-color="#512DA8" offset="0"/><stop stop-color="#352893" offset=".5"/><stop stop-color="#1A237E" offset="1"/></radialGradient><path clip-path="url(#b)" fill="url(#c)" d="M4 4h120v120H4z"/><g clip-path="url(#b)"><linearGradient id="d" x1="-41.5" x2="154.6" y1="17.9" y2="17.9" gradientTransform="scale(-1 1) rotate(57.2 5.7 -86.6)" gradientUnits="userSpaceOnUse"><stop stop-color="#90CAF9" stop-opacity="0" offset="0"/><stop stop-color="#1976D2" offset="1"/></linearGradient><path d="M137.6 38.5c9.3-15 16.2-30.9 19-48.4 1-6.4 1.4-12.9-.7-19.2a41.6 41.6 0 0 0-24.2-23.8c-3-1-3.5-.6-3.3 2.5 1.7 19.8-.9 39-8 57.6a106 106 0 0 1-12.2 23 92.5 92.5 0 0 1-45.5 35.4 110 110 0 0 1-42 5.8c-21.7-1-42.2-6.9-62-15.3-6.7-2.8-13.2-6-19.7-9.4l-2.9-1.1c-.7-.3-1.7-.8-2.2 0-.5.8.2 1.5.7 2.1 1.5 2 3.4 3.9 5.4 5.5C-53.2 59-46 64-38.9 69.1c5 3.5 11 5.4 16.7 7.7C-8.7 82.2 5 86.3 19.5 88.4c12.4 1.9 24.9 2.1 37.3.4 17.6-2.4 33.8-8.6 49-17.7a107.2 107.2 0 0 0 31.8-32.6z" fill="url(#d)"/></g><g clip-path="url(#b)"><linearGradient id="e" x1="75.6" x2="75.6" y1="-1.4" y2="98.8" gradientTransform="matrix(.9164 .5643 -.5774 .9377 4.8 -48.8)" gradientUnits="userSpaceOnUse"><stop stop-color="#5C6BC0" stop-opacity="0" offset="0"/><stop stop-color="#3949AB" offset="1"/></linearGradient><path d="M-61.5 44.3c2.4-1 4.4-.2 6.1 1.3a175.8 175.8 0 0 0 80.5 33.3 89 89 0 0 0 47.8-7.7 134.1 134.1 0 0 0 50-39c3.5-4.2 6.7-8.7 9.7-13.3 1.7-2.6 3.1-5.5 5.3-7.8 1-1 2-1.7 3.4-2l1.8 1.2c.9 1.5 1.4 3.1 1.6 5a98.4 98.4 0 0 1-18.3 62.6 87 87 0 0 1-29.6 25.3 104 104 0 0 1-36.7 10.6c-14.5 1.7-28.8.9-42.9-2.8a129.5 129.5 0 0 1-34.4-14.4c-.5-.3-1-.6-1.5-.6l-3.7-2.2c-.3-.4-.6-.8-1-1-5.2-3.2-10-6.9-14.8-10.8-8.3-7-15.7-14.9-21.5-24.2a17.7 17.7 0 0 1-3.4-11l1.6-2.5z" fill="url(#e)"/></g><g clip-path="url(#b)"><linearGradient id="f" x1="20.5" x2="20.5" y1="-8.7" y2="74.6" gradientTransform="rotate(14.3 123.6 -46.5)" gradientUnits="userSpaceOnUse"><stop stop-color="#5C6BC0" stop-opacity="0" offset="0"/><stop stop-color="#3949AB" stop-opacity=".6" offset="1"/></linearGradient><path d="M-73.8 32.3c1.5-1.3 3.2-1 4.8-.4A138.8 138.8 0 0 0-2 38c12.7-2 23.6-8 33.3-16.1a100.4 100.4 0 0 0 31.6-51c.7-2.3 1-4.7 2.1-6.8.5-1 1-1.7 2-2.2l1.7.4c1 1 1.7 2 2.3 3.2A72.8 72.8 0 0 1 72.2 15a64.5 64.5 0 0 1-15.8 25A90 90 0 0 1-.3 63.1c-9.7.3-19.3-.6-28.7-2.9-.4-.1-.8-.2-1.2 0l-3.2-1c-.3 0-.6-.3-1-.4a92 92 0 0 1-13.4-4.5c-7.7-3.3-15-7.3-21.5-12.7a14 14 0 0 1-5-7.2l.6-2.2z" fill="url(#f)"/></g><path d="M96.8 66.6a5.2 5.2 0 0 1-3.2-6.2 5.2 5.2 0 0 1-6 3.6 5 5 0 0 1 3.1 6.2 5.1 5.1 0 0 1 6-3.6z" clip-path="url(#b)" clip-rule="evenodd" fill="#FFEB3B" fill-rule="evenodd"/><path d="M64.2 62.8a5.3 5.3 0 0 1-3.6-6.1 5.3 5.3 0 0 1-6 4c2.7.8 4.3 3.5 3.7 6.2a5.3 5.3 0 0 1 5.9-4z" clip-path="url(#b)" clip-rule="evenodd" fill="#A7FFEB" fill-rule="evenodd"/><path d="M68.3 45c-2-.6-3.1-2.6-2.7-4.5-.4 2-2.3 3.2-4.3 3 2 .5 3 2.5 2.7 4.4.4-2 2.3-3.2 4.3-3z" clip-path="url(#b)" clip-rule="evenodd" fill="#FFF59D" fill-rule="evenodd"/><path d="M93.6 17a5.3 5.3 0 0 1-3.7-6.3 5.3 5.3 0 0 1-6 4.2c2.7.7 4.3 3.4 3.8 6.1a5.3 5.3 0 0 1 5.9-4zm-54 70.3a5.2 5.2 0 0 1-4-5.7 5.2 5.2 0 0 1-5.4 4.3c2.6.6 4.3 3.1 4 5.8a5.2 5.2 0 0 1 5.4-4.3z" clip-path="url(#b)" clip-rule="evenodd" fill="#FFEB3B" fill-rule="evenodd"/><path d="M23.5 82.1a5.3 5.3 0 0 1-3.6-6.1 5.3 5.3 0 0 1-6 4c2.7.8 4.3 3.5 3.7 6.2a5.3 5.3 0 0 1 5.9-4zm90.3-34.8a5.3 5.3 0 0 1-3.6-6.2 5.3 5.3 0 0 1-6 4c2.7.9 4.3 3.5 3.7 6.2a5.3 5.3 0 0 1 6-4z" clip-path="url(#b)" clip-rule="evenodd" fill="#A7FFEB" fill-rule="evenodd"/><path d="M77.4 81.8c-1.9-.6-3-2.6-2.6-4.5a4 4 0 0 1-4.3 3c1.9.5 3 2.5 2.6 4.4a4 4 0 0 1 4.3-3z" clip-path="url(#b)" clip-rule="evenodd" fill="#FFEB3B" fill-rule="evenodd"/><path d="M99.8 27.2a4.3 4.3 0 0 1-2.9-5 4.3 4.3 0 0 1-4.8 3.3c2.1.7 3.4 2.8 3 5a4.3 4.3 0 0 1 4.7-3.3z" clip-path="url(#b)" clip-rule="evenodd" fill="#A7FFEB" fill-rule="evenodd"/><circle cx="45.9" cy="27.7" r="3.4" clip-path="url(#b)" clip-rule="evenodd" fill="#5C6BC0" fill-rule="evenodd" opacity=".8"/><circle cx="83.5" cy="73.1" r="3.1" clip-path="url(#b)" clip-rule="evenodd" fill="#9575CD" fill-rule="evenodd" opacity=".5"/><circle cx="104.6" cy="81.5" r="2.5" clip-path="url(#b)" clip-rule="evenodd" fill="#9575CD" fill-rule="evenodd" opacity=".5"/><circle cx="40.1" cy="55.1" r="2.6" clip-path="url(#b)" clip-rule="evenodd" fill="#5C6BC0" fill-rule="evenodd" opacity=".8"/><circle cx="73.4" cy="20.1" r="3.6" clip-path="url(#b)" clip-rule="evenodd" fill="#9575CD" fill-rule="evenodd" opacity=".5"/><circle cx="103.6" cy="59.5" r="3.6" clip-path="url(#b)" clip-rule="evenodd" fill="#9575CD" fill-rule="evenodd" opacity=".5"/><radialGradient id="g" cx="104.8" cy="12.2" r="12.7" gradientTransform="rotate(12.6 66.4 54.4)" gradientUnits="userSpaceOnUse"><stop stop-color="#ff0" offset="0"/><stop stop-color="#FFD600" offset="1"/></radialGradient><path d="M114.1 21l.5 4.2c0 .1 0 .2.2.3l3.6 2c.3.2.3.6 0 .7l-3.8 1.7-.2.3-.8 4.1c0 .3-.5.5-.7.2l-2.8-3.1c0-.1-.2-.2-.3-.1l-4.2.5a.4.4 0 0 1-.4-.6l2.1-3.6v-.4l-1.8-3.8c-.1-.2.2-.6.5-.5l4 .9.4-.1 3-3c.3-.1.7 0 .7.3z" clip-path="url(#b)" fill="url(#g)"/><radialGradient id="h" cx="63.4" cy="76.8" r="13.3" gradientTransform="rotate(12.6 66.4 54.4)" gradientUnits="userSpaceOnUse"><stop stop-color="#ff0" offset="0"/><stop stop-color="#FFD600" offset="1"/></radialGradient><path d="M55.6 73.9l2.8 3h.3l4.1-.6c.3 0 .6.3.4.6l-2 3.6v.4l1.9 3.6c.1.3-.1.6-.4.6l-4-.8-.4.1-2.9 3c-.2.2-.6 0-.6-.3l-.6-4c0-.2 0-.3-.2-.3l-3.6-1.9a.4.4 0 0 1 0-.7l3.7-1.8.2-.2.6-4.1c0-.3.5-.4.7-.2z" clip-path="url(#b)" fill="url(#h)"/><radialGradient id="i" cx="78.2" cy="27" r="14.3" gradientTransform="rotate(12.6 66.4 54.4)" gradientUnits="userSpaceOnUse"><stop stop-color="#ff0" offset="0"/><stop stop-color="#FFD600" offset="1"/></radialGradient><path d="M76.5 33l4 .7h.4l2.9-3c.2-.2.6 0 .6.2L85 35c0 .1 0 .2.2.3L89 37c.3.2.3.6 0 .7l-3.7 1.8-.2.3-.6 4c0 .4-.5.5-.7.3l-2.8-3-.4-.1-4 .7a.4.4 0 0 1-.4-.6l2-3.6v-.4l-2-3.6c-.1-.3.1-.6.4-.6z" clip-path="url(#b)" fill="url(#i)"/><path d="M-2 107.3a898 898 0 0 1 18.5-10.2 10 10 0 0 1 8.7-.4l14 6c1.7.7 3.7 1 5.6.6l10.2-1.7c1.8-.3 3.6-.1 5.2.5l5.9 2.2c3.6 1.3 7.6.5 10.4-2.1l14.6-13.6a11 11 0 0 1 5.8-2.6h.5a10 10 0 0 1 8.6 3.2l5.9 6.3a9.8 9.8 0 0 0 5.5 3.1l2.2.4c4.8 1 8.3 5.2 8.2 10.2-.1 9.5-.3 23.6.2 23 .6-.5-92.8-.1-125.5 0-6 0-10.8-5-10.2-11l.6-6a10 10 0 0 1 5-7.9z" clip-path="url(#b)"/><path d="M116 7a5 5 0 0 1 5 5v104a5 5 0 0 1-5 5H12a5 5 0 0 1-5-5V12a5 5 0 0 1 5-5h104m0-3H12a8 8 0 0 0-8 8v104a8 8 0 0 0 8 8h104a8 8 0 0 0 8-8V12a8 8 0 0 0-8-8z" fill="#eee" opacity=".2"/></svg>