<svg viewBox="0 0 128 128" xmlns="http://www.w3.org/2000/svg" xmlns:xlink="http://www.w3.org/1999/xlink"><linearGradient id="a" x1="22" x2="22" y1="96.427" y2="27.142" gradientUnits="userSpaceOnUse"><stop stop-color="#1976D2" offset="0"/><stop offset="1"/></linearGradient><path d="M34 36h-2v-2c0-1.1-.9-2-2-2H14c-1.1 0-2 .9-2 2v2h-2c-1.1 0-2 .9-2 2v70h28V38c0-1.1-.9-2-2-2z" fill="url(#a)"/><linearGradient id="b" x1="82" x2="82" y1="106.33" y2="16.878" gradientUnits="userSpaceOnUse"><stop stop-color="#1976D2" offset="0"/><stop offset="1"/></linearGradient><path d="M118 48h-2v-2c0-1.1-.9-2-2-2H90c-1.1 0-2 .9-2 2v2h-2c-1.1 0-2 .9-2 2v54H72V30c0-1.1-.9-2-2-2h-2v-6c0-1.1-.9-2-2-2h-4v-6c0-1.1-.9-2-2-2h-4c-1.1 0-2 .9-2 2v6h-4c-1.1 0-2 .9-2 2v6h-2c-1.1 0-2 .9-2 2v86h76V50c0-1.1-.9-2-2-2z" fill="url(#b)"/><radialGradient id="c" cx="116.65" cy="10.566" r="36.044" gradientUnits="userSpaceOnUse"><stop stop-color="#ff0" offset="0"/><stop stop-color="#FFD600" offset=".996"/></radialGradient><path d="M116.15 6.07c-1.2-.82-2.47-1.48-3.77-1.98-1.21-.46-2.35.89-1.69 2 3.14 5.33 3.26 12.18-.27 17.76-3.53 5.59-9.76 8.42-15.92 7.88-1.29-.11-2.01 1.5-1.07 2.4.85.81 1.79 1.54 2.82 2.19 8.76 5.53 20.45 2.62 25.53-6.58 4.47-8.08 1.99-18.45-5.63-23.67z" fill="url(#c)"/><path d="M115.25 9.13c5.72 4.5 7.46 12.72 3.9 19.16a15.158 15.158 0 0 1-13.26 7.83c-2.33 0-4.62-.54-6.7-1.58 5.64-.9 10.64-4.16 13.76-9.09 3.13-4.94 3.9-10.87 2.3-16.32M111.89 4c-1 0-1.77 1.13-1.2 2.09 3.14 5.33 3.26 12.18-.27 17.76-3.24 5.14-8.77 7.95-14.43 7.95-.5 0-.99-.02-1.49-.07-.04 0-.09-.01-.13-.01-1.21 0-1.85 1.54-.94 2.4.85.81 1.79 1.54 2.82 2.19 3 1.89 6.35 2.8 9.65 2.8 6.34 0 12.54-3.33 15.88-9.38 4.47-8.09 2-18.46-5.63-23.68-1.2-.82-2.47-1.48-3.77-1.98-.17-.04-.33-.07-.49-.07z" fill="#424242" opacity=".2"/><path d="M29 35v4h4v66H11V39h4v-4h14m1-3H14c-1.1 0-2 .9-2 2v2h-2c-1.1 0-2 .9-2 2v70h28V38c0-1.1-.9-2-2-2h-2v-2c0-1.1-.9-2-2-2zM59 15v8h6v8h4v76h18V51h4v-4h22v4h4v62H47V31h4v-8h6v-8h2m1-3h-4c-1.1 0-2 .9-2 2v6h-4c-1.1 0-2 .9-2 2v6h-2c-1.1 0-2 .9-2 2v86h76V50c0-1.1-.9-2-2-2h-2v-2c0-1.1-.9-2-2-2H90c-1.1 0-2 .9-2 2v2h-2c-1.1 0-2 .9-2 2v54H72V30c0-1.1-.9-2-2-2h-2v-6c0-1.1-.9-2-2-2h-4v-6c0-1.1-.9-2-2-2z" fill="#eee" opacity=".2"/><defs><path id="d" d="M118 48h-2v-2c0-1.1-.9-2-2-2H90c-1.1 0-2 .9-2 2v2h-2c-1.1 0-2 .9-2 2v54H72V30c0-1.1-.9-2-2-2h-2v-6c0-1.1-.9-2-2-2h-4v-6c0-1.1-.9-2-2-2h-4c-1.1 0-2 .9-2 2v6h-4c-1.1 0-2 .9-2 2v6h-2c-1.1 0-2 .9-2 2v86h76V50c0-1.1-.9-2-2-2z"/></defs><defs><path id="e" d="M34 36h-2v-2c0-1.1-.9-2-2-2H14c-1.1 0-2 .9-2 2v2h-2c-1.1 0-2 .9-2 2v70h28V38c0-1.1-.9-2-2-2z"/></defs><linearGradient id="f" x1="64" x2="64" y1="149.5" y2="39.631" gradientUnits="userSpaceOnUse"><stop stop-color="#0D47A1" offset="0"/><stop stop-color="#0C4296" offset=".122"/><stop stop-color="#0A367A" offset=".334"/><stop stop-color="#06214C" offset=".611"/><stop stop-color="#01060D" offset=".939"/><stop offset="1"/></linearGradient><path d="M122 60h-20c-1.1 0-2 .9-2 2v42h-8V74c0-1.1-.9-2-2-2H58c-1.1 0-2 .9-2 2v38h-8V58c0-1.1-.9-2-2-2H18c-1.1 0-2 .9-2 2v26H6c-1.1 0-2 .9-2 2v30h120V62c0-1.1-.9-2-2-2z" fill="url(#f)"/><path d="M67.25 112h-4.5c-.41 0-.75-.34-.75-.75v-4.5c0-.41.34-.75.75-.75h4.5c.41 0 .75.34.75.75v4.5c0 .41-.34.75-.75.75z" fill="#F9A825"/><g fill="#FFC107"><path d="M69.25 88h-4.5c-.41 0-.75-.34-.75-.75v-4.5c0-.41.34-.75.75-.75h4.5c.41 0 .75.34.75.75v4.5c0 .41-.34.75-.75.75zM85.25 84h-4.5c-.41 0-.75-.34-.75-.75v-4.5c0-.41.34-.75.75-.75h4.5c.41 0 .75.34.75.75v4.5c0 .41-.34.75-.75.75zM111.25 72h-4.5c-.41 0-.75-.34-.75-.75v-4.5c0-.41.34-.75.75-.75h4.5c.41 0 .75.34.75.75v4.5c0 .41-.34.75-.75.75zM117.25 84h-4.5c-.41 0-.75-.34-.75-.75v-4.5c0-.41.34-.75.75-.75h4.5c.41 0 .75.34.75.75v4.5c0 .41-.34.75-.75.75zM41.25 70h-4.5c-.41 0-.75-.34-.75-.75v-4.5c0-.41.34-.75.75-.75h4.5c.41 0 .75.34.75.75v4.5c0 .41-.34.75-.75.75zM27.25 78h-4.5c-.41 0-.75-.34-.75-.75v-4.5c0-.41.34-.75.75-.75h4.5c.41 0 .75.34.75.75v4.5c0 .41-.34.75-.75.75zM39.25 88h-4.5c-.41 0-.75-.34-.75-.75v-4.5c0-.41.34-.75.75-.75h4.5c.41 0 .75.34.75.75v4.5c0 .41-.34.75-.75.75z"/></g><path d="M15.25 106h-4.5c-.41 0-.75-.34-.75-.75v-4.5c0-.41.34-.75.75-.75h4.5c.41 0 .75.34.75.75v4.5c0 .41-.34.75-.75.75z" fill="#F9A825"/><path d="M45 59v54H7V87h12V59h26m76 4v50H59V75h30v32h14V63h18m-75-7H18c-1.1 0-2 .9-2 2v26H6c-1.1 0-2 .9-2 2v30h120V62c0-1.1-.9-2-2-2h-20c-1.1 0-2 .9-2 2v42h-8V74c0-1.1-.9-2-2-2H58c-1.1 0-2 .9-2 2v38h-8V58c0-1.1-.9-2-2-2z" fill="#eee" opacity=".2"/><g fill="#FFC107"><path d="M19.25 54h-4.5c-.41 0-.75-.34-.75-.75v-4.5c0-.41.34-.75.75-.75h4.5c.41 0 .75.34.75.75v4.5c0 .41-.34.75-.75.75zM29.25 50h-4.5c-.41 0-.75-.34-.75-.75v-4.5c0-.41.34-.75.75-.75h4.5c.41 0 .75.34.75.75v4.5c0 .41-.34.75-.75.75zM55.25 42h-4.5c-.41 0-.75-.34-.75-.75v-4.5c0-.41.34-.75.75-.75h4.5c.41 0 .75.34.75.75v4.5c0 .41-.34.75-.75.75zM65.25 49h-4.5c-.41 0-.75-.34-.75-.75v-4.5c0-.41.34-.75.75-.75h4.5c.41 0 .75.34.75.75v4.5c0 .41-.34.75-.75.75zM65.25 60h-4.5c-.41 0-.75-.34-.75-.75v-4.5c0-.41.34-.75.75-.75h4.5c.41 0 .75.34.75.75v4.5c0 .41-.34.75-.75.75zM105.25 58h-4.5c-.41 0-.75-.34-.75-.75v-4.5c0-.41.34-.75.75-.75h4.5c.41 0 .75.34.75.75v4.5c0 .41-.34.75-.75.75zM95.25 64h-4.5c-.41 0-.75-.34-.75-.75v-4.5c0-.41.34-.75.75-.75h4.5c.41 0 .75.34.75.75v4.5c0 .41-.34.75-.75.75z"/></g><defs><path id="g" d="M4 84h120v40H4z"/></defs><defs><path id="h" d="M276 124H172c-4.42 0-8-3.58-8-8V12c0-4.42 3.58-8 8-8h104c4.42 0 8 3.58 8 8v104c0 4.42-3.58 8-8 8z"/></defs><clipPath id="i"><use xlink:href="#h"/></clipPath><radialGradient id="j" cx="223.83" cy="89.833" r="97.667" gradientUnits="userSpaceOnUse"><stop stop-color="#18FFFF" offset="0"/><stop stop-color="#18FEFE" offset=".002"/><stop stop-color="#21BBDD" offset=".145"/><stop stop-color="#2785C2" offset=".273"/><stop stop-color="#2C5FAF" offset=".384"/><stop stop-color="#2F48A3" offset=".472"/><stop stop-color="#303F9F" offset=".527"/><stop offset="1"/></radialGradient><path clip-path="url(#i)" fill="url(#j)" d="M164 4h120v120H164z"/><path d="M194 64h-2v-2c0-1.1-.9-2-2-2h-16c-1.1 0-2 .9-2 2v2h-2c-1.1 0-2 .9-2 2v50h28V66c0-1.1-.9-2-2-2zM278 76h-2v-2c0-1.1-.9-2-2-2h-24c-1.1 0-2 .9-2 2v2h-2c-1.1 0-2 .9-2 2v34h-12V58c0-1.1-.9-2-2-2h-2v-6c0-1.1-.9-2-2-2h-4v-6c0-1.1-.9-2-2-2h-4c-1.1 0-2 .9-2 2v6h-4c-1.1 0-2 .9-2 2v6h-2c-1.1 0-2 .9-2 2v66h76V78c0-1.1-.9-2-2-2z" clip-path="url(#i)" fill="#1A237E" opacity=".7"/><path d="M179.25 82h-4.5c-.41 0-.75-.34-.75-.75v-4.5c0-.41.34-.75.75-.75h4.5c.41 0 .75.34.75.75v4.5c0 .41-.34.75-.75.75zM189.25 78h-4.5c-.41 0-.75-.34-.75-.75v-4.5c0-.41.34-.75.75-.75h4.5c.41 0 .75.34.75.75v4.5c0 .41-.34.75-.75.75zM215.25 70h-4.5c-.41 0-.75-.34-.75-.75v-4.5c0-.41.34-.75.75-.75h4.5c.41 0 .75.34.75.75v4.5c0 .41-.34.75-.75.75zM225.25 77h-4.5c-.41 0-.75-.34-.75-.75v-4.5c0-.41.34-.75.75-.75h4.5c.41 0 .75.34.75.75v4.5c0 .41-.34.75-.75.75zM225.25 88h-4.5c-.41 0-.75-.34-.75-.75v-4.5c0-.41.34-.75.75-.75h4.5c.41 0 .75.34.75.75v4.5c0 .41-.34.75-.75.75zM265.25 86h-4.5c-.41 0-.75-.34-.75-.75v-4.5c0-.41.34-.75.75-.75h4.5c.41 0 .75.34.75.75v4.5c0 .41-.34.75-.75.75zM255.25 92h-4.5c-.41 0-.75-.34-.75-.75v-4.5c0-.41.34-.75.75-.75h4.5c.41 0 .75.34.75.75v4.5c0 .41-.34.75-.75.75z" clip-path="url(#i)" fill="#303F9F" opacity=".2"/><g clip-path="url(#i)"><defs><path id="k" d="M278 76h-2v-2c0-1.1-.9-2-2-2h-24c-1.1 0-2 .9-2 2v2h-2c-1.1 0-2 .9-2 2v34h-12V58c0-1.1-.9-2-2-2h-2v-6c0-1.1-.9-2-2-2h-4v-6c0-1.1-.9-2-2-2h-4c-1.1 0-2 .9-2 2v6h-4c-1.1 0-2 .9-2 2v6h-2c-1.1 0-2 .9-2 2v66h76V78c0-1.1-.9-2-2-2z"/></defs></g><g clip-path="url(#i)"><defs><path id="l" d="M194 64h-2v-2c0-1.1-.9-2-2-2h-16c-1.1 0-2 .9-2 2v2h-2c-1.1 0-2 .9-2 2v50h28V66c0-1.1-.9-2-2-2z"/></defs></g><radialGradient id="m" cx="250.3" cy="106.84" r="22.442" gradientTransform="translate(-64.4 -14.085)" gradientUnits="userSpaceOnUse"><stop stop-color="#0A82FF" offset="0"/><stop stop-color="#0971DD" offset=".09"/><stop stop-color="#064F9B" offset=".282"/><stop stop-color="#043364" offset=".465"/><stop stop-color="#021D39" offset=".633"/><stop stop-color="#010D1A" offset=".783"/><stop stop-color="#000307" offset=".911"/><stop offset="1"/></radialGradient><circle cx="185.56" cy="93.56" r="22.44" clip-path="url(#i)" fill="url(#m)"/><radialGradient id="n" cx="276.94" cy="125.06" r="35.866" gradientTransform="translate(-64.4 -14.085)" gradientUnits="userSpaceOnUse"><stop stop-color="#0091EA" offset="0"/><stop stop-color="#0089DD" offset=".037"/><stop stop-color="#00609B" offset=".24"/><stop stop-color="#003E64" offset=".434"/><stop stop-color="#002339" offset=".612"/><stop stop-color="#00101A" offset=".771"/><stop stop-color="#000407" offset=".906"/><stop offset="1"/></radialGradient><circle cx="212.13" cy="111.87" r="35.87" clip-path="url(#i)" fill="url(#n)"/><radialGradient id="o" cx="240.67" cy="125.18" r="35.866" gradientTransform="translate(-64.4 -14.085)" gradientUnits="userSpaceOnUse"><stop stop-color="#0091EA" offset="0"/><stop stop-color="#0089DD" offset=".037"/><stop stop-color="#00609B" offset=".24"/><stop stop-color="#003E64" offset=".434"/><stop stop-color="#002339" offset=".612"/><stop stop-color="#00101A" offset=".771"/><stop stop-color="#000407" offset=".906"/><stop offset="1"/></radialGradient><circle cx="175.87" cy="111.87" r="35.87" clip-path="url(#i)" fill="url(#o)"/><radialGradient id="p" cx="332.65" cy="121.15" r="35.866" gradientTransform="translate(-64.4 -14.085)" gradientUnits="userSpaceOnUse"><stop stop-color="#0091EA" offset="0"/><stop stop-color="#0089DD" offset=".037"/><stop stop-color="#00609B" offset=".24"/><stop stop-color="#003E64" offset=".434"/><stop stop-color="#002339" offset=".612"/><stop stop-color="#00101A" offset=".771"/><stop stop-color="#000407" offset=".906"/><stop offset="1"/></radialGradient><circle cx="267.87" cy="108.13" r="35.87" clip-path="url(#i)" fill="url(#p)"/><path d="M282 88h-20c-1.1 0-2 .9-2 2v22h-8v-10c0-1.1-.9-2-2-2h-32c-1.1 0-2 .9-2 2v18h-8V86c0-1.1-.9-2-2-2h-28c-1.1 0-2 .9-2 2v26h-10c-1.1 0-2 .9-2 2v10h120V90c0-1.1-.9-2-2-2z" clip-path="url(#i)"/><g clip-path="url(#i)"><radialGradient id="q" cx="264.65" cy="19.443" r="36.044" gradientUnits="userSpaceOnUse"><stop stop-color="#ff0" offset="0"/><stop stop-color="#FFD600" offset=".996"/></radialGradient><path d="M264.15 14.95c-1.2-.82-2.47-1.48-3.77-1.98-1.21-.46-2.35.89-1.69 2 3.14 5.33 3.26 12.18-.27 17.76-3.53 5.59-9.76 8.42-15.92 7.88-1.29-.11-2.01 1.5-1.07 2.4.85.81 1.79 1.54 2.82 2.19 8.76 5.53 20.45 2.62 25.53-6.58 4.47-8.09 1.99-18.46-5.63-23.67z" fill="url(#q)"/><path d="M259.89 12.88c.16 0 .33.03.49.09 1.3.5 2.56 1.15 3.77 1.98 7.63 5.22 10.1 15.59 5.63 23.68-3.34 6.05-9.54 9.38-15.88 9.38-3.3 0-6.65-.9-9.65-2.8-1.03-.65-1.97-1.39-2.82-2.19-.91-.86-.26-2.4.94-2.4.04 0 .08 0 .13.01.5.04.99.07 1.49.07 5.66 0 11.19-2.81 14.43-7.95 3.53-5.59 3.41-12.44.27-17.76-.57-.98.2-2.11 1.2-2.11m0-2c-1.21 0-2.33.66-2.94 1.73-.61 1.06-.6 2.32.02 3.38a14.977 14.977 0 0 1-.24 15.68 14.997 14.997 0 0 1-14.05 6.96c-.1-.01-.2-.01-.3-.01-1.38 0-2.6.84-3.12 2.14s-.2 2.75.8 3.71c.95.91 2.01 1.73 3.13 2.43 3.22 2.03 6.93 3.11 10.72 3.11 7.33 0 14.08-3.99 17.63-10.41 4.95-8.96 2.21-20.51-6.25-26.29-1.31-.89-2.71-1.63-4.18-2.19a3.12 3.12 0 0 0-1.22-.24z" fill="#424242" opacity=".2"/></g><radialGradient id="r" cx="257.6" cy="142.01" r="40.749" gradientTransform="translate(-64.4 -14.085)" gradientUnits="userSpaceOnUse"><stop stop-color="#2962FF" offset="0"/><stop stop-color="#1B40A6" offset=".313"/><stop stop-color="#0C1E4E" offset=".649"/><stop stop-color="#030816" offset=".886"/><stop offset="1"/></radialGradient><circle cx="192.75" cy="128.75" r="40.75" clip-path="url(#i)" fill="url(#r)" opacity=".7"/><radialGradient id="s" cx="298.19" cy="139.79" r="30.659" gradientTransform="translate(-64.4 -14.085)" gradientUnits="userSpaceOnUse"><stop stop-color="#2962FF" offset="0"/><stop stop-color="#1B40A6" offset=".313"/><stop stop-color="#0C1E4E" offset=".649"/><stop stop-color="#030816" offset=".886"/><stop offset="1"/></radialGradient><circle cx="233.34" cy="126.66" r="30.66" clip-path="url(#i)" fill="url(#s)" opacity=".7"/><radialGradient id="t" cx="338.02" cy="146.16" r="38.846" gradientTransform="translate(-64.4 -14.085)" gradientUnits="userSpaceOnUse"><stop stop-color="#2962FF" offset="0"/><stop stop-color="#1B40A6" offset=".313"/><stop stop-color="#0C1E4E" offset=".649"/><stop stop-color="#030816" offset=".886"/><stop offset="1"/></radialGradient><circle cx="273.15" cy="133.15" r="38.85" clip-path="url(#i)" fill="url(#t)" opacity=".7"/><g clip-path="url(#i)" fill="#FFC107"><path d="M229.25 116h-4.5c-.41 0-.75-.34-.75-.75v-4.5c0-.41.34-.75.75-.75h4.5c.41 0 .75.34.75.75v4.5c0 .41-.34.75-.75.75zM245.25 112h-4.5c-.41 0-.75-.34-.75-.75v-4.5c0-.41.34-.75.75-.75h4.5c.41 0 .75.34.75.75v4.5c0 .41-.34.75-.75.75zM271.25 100h-4.5c-.41 0-.75-.34-.75-.75v-4.5c0-.41.34-.75.75-.75h4.5c.41 0 .75.34.75.75v4.5c0 .41-.34.75-.75.75zM277.25 112h-4.5c-.41 0-.75-.34-.75-.75v-4.5c0-.41.34-.75.75-.75h4.5c.41 0 .75.34.75.75v4.5c0 .41-.34.75-.75.75zM201.25 98h-4.5c-.41 0-.75-.34-.75-.75v-4.5c0-.41.34-.75.75-.75h4.5c.41 0 .75.34.75.75v4.5c0 .41-.34.75-.75.75zM187.25 106h-4.5c-.41 0-.75-.34-.75-.75v-4.5c0-.41.34-.75.75-.75h4.5c.41 0 .75.34.75.75v4.5c0 .41-.34.75-.75.75zM199.25 116h-4.5c-.41 0-.75-.34-.75-.75v-4.5c0-.41.34-.75.75-.75h4.5c.41 0 .75.34.75.75v4.5c0 .41-.34.75-.75.75z"/></g><linearGradient id="u" x1="64" x2="64" y1="132.33" y2="76" gradientUnits="userSpaceOnUse"><stop stop-color="#004D40" offset="0"/><stop stop-color="#00241E" offset=".55"/><stop offset="1"/></linearGradient><path d="M120.3 90.25c-4.06 2-7.41 5.21-9.59 9.17-.59.69-1.07 1.52-1.42 2.51-.02.07-.05.14-.07.21-.17.51-.7.78-1.23.65-.32-.08-.64-.12-.98-.12-1.34 0-2.57.63-3.57 1.7-.71.76-1.91.79-2.73.15a12.53 12.53 0 0 0-7.69-2.64c-2.2 0-4.27.58-6.08 1.58-.87.48-1.95.18-2.54-.62-3.56-4.84-9.18-7.98-15.52-7.98-4.8 0-9.18 1.8-12.58 4.77-.38.34-.94.34-1.33.01-.9-.78-1.95-1.23-3.08-1.23-1.1 0-2.13.43-3.01 1.17-.34.29-.82.3-1.2.06a13.87 13.87 0 0 0-7.54-2.23c-3.9 0-7.42 1.62-9.99 4.23-.39.4-1.02.37-1.43-.02-.95-.92-2.1-1.47-3.34-1.47-1.36 0-2.61.65-3.61 1.74-.39.43-1.06.47-1.45.05-3.57-3.84-8.59-6.24-14.15-6.22C4.96 95.76 4 96.77 4 97.98V124h120V92.57c0-1.9-2-3.16-3.7-2.32z" fill="url(#u)"/><path d="M50.2 106.91c3.02.93 4.54 3.57 4.13 6.64-.28 2.14 3.07 2.2 3.35.08.19-1.41.04-2.77-.37-4.01 4.74-.01 8.82 2.53 10.88 6.87.93 1.95 3.87.36 2.95-1.59-2.62-5.52-8.29-8.93-14.39-8.62-.44.02-.79.19-1.06.43a9.616 9.616 0 0 0-4.57-3.02c-2.05-.64-2.98 2.58-.92 3.22zM106.05 111.43c2.1.71 3.11 2.58 2.77 4.72-.24 1.49 2.1 1.59 2.34.12.16-.98.08-1.93-.18-2.81 3.31.08 6.12 1.93 7.48 5 .61 1.38 2.7.32 2.09-1.05-1.73-3.91-5.63-6.4-9.9-6.29-.31.01-.56.12-.75.28a6.692 6.692 0 0 0-3.14-2.19c-1.43-.49-2.14 1.74-.71 2.22zM24.03 109.78c-4.55.1-8.07 2.94-9.2 7.37-.47 1.84-3.33 1.16-2.87-.68 1.45-5.68 6.11-9.5 11.99-9.63 1.9-.04 1.98 2.9.08 2.94z" fill="#eee" opacity=".2"/><path d="M121 93.26V121H7V98.77c4.23.2 8.16 2.04 11.13 5.24.74.8 1.79 1.26 2.88 1.26 1.12 0 2.21-.48 2.97-1.31.32-.35.83-.77 1.4-.77.4 0 .82.21 1.25.62a4.04 4.04 0 0 0 2.82 1.15c1.07 0 2.08-.42 2.83-1.18 2.12-2.15 4.91-3.34 7.85-3.34 2.09 0 4.13.61 5.91 1.75.66.42 1.42.65 2.19.65.94 0 1.84-.33 2.56-.93.37-.31.74-.47 1.08-.47.36 0 .74.17 1.12.5.73.63 1.66.98 2.62.98.97 0 1.91-.35 2.65-1 2.97-2.6 6.74-4.03 10.6-4.03 5.17 0 9.95 2.46 13.1 6.75.96 1.3 2.48 2.08 4.07 2.08.82 0 1.64-.21 2.35-.61 1.44-.8 2.99-1.2 4.62-1.2 2.13 0 4.15.7 5.86 2.01.9.69 2.02 1.07 3.15 1.07 1.37 0 2.69-.57 3.61-1.55.32-.34.82-.75 1.38-.75.09 0 .18.01.27.03.32.08.64.11.96.11 1.73 0 3.26-1.1 3.81-2.73l.06-.18c.21-.6.5-1.12.87-1.55l.2-.24.15-.27a19.17 19.17 0 0 1 7.68-7.6m.42-3.27c-.37 0-.76.08-1.12.27-4.06 2-7.41 5.21-9.59 9.17-.59.69-1.07 1.52-1.42 2.51-.02.07-.05.14-.07.21a1 1 0 0 1-.97.69c-.09 0-.17-.01-.26-.03-.32-.08-.64-.12-.98-.12-1.34 0-2.57.63-3.57 1.7-.38.4-.89.6-1.42.6-.46 0-.93-.15-1.31-.45a12.53 12.53 0 0 0-7.69-2.64c-2.2 0-4.27.58-6.08 1.58-.28.16-.59.23-.9.23-.63 0-1.25-.31-1.65-.85-3.56-4.84-9.18-7.98-15.52-7.98-4.8 0-9.18 1.8-12.58 4.77a.99.99 0 0 1-1.33.01c-.9-.78-1.95-1.23-3.08-1.23-1.1 0-2.13.43-3.01 1.17-.18.15-.4.23-.63.23-.2 0-.39-.06-.57-.17a13.87 13.87 0 0 0-7.54-2.23c-3.9 0-7.42 1.62-9.99 4.23-.19.19-.44.29-.69.29-.26 0-.53-.1-.74-.3-.95-.92-2.1-1.47-3.34-1.47-1.36 0-2.61.65-3.61 1.74-.21.22-.49.34-.77.34-.25 0-.5-.1-.68-.3-3.55-3.83-8.54-6.22-14.08-6.22h-.08C4.96 95.76 4 96.77 4 97.98V124h120V92.57c0-1.49-1.23-2.58-2.58-2.58z" fill="#eee" opacity=".2"/><radialGradient id="v" cx="228.16" cy="15.628" r="16.833" gradientUnits="userSpaceOnUse"><stop stop-color="#ff0" offset="0"/><stop stop-color="#FFD600" offset=".996"/></radialGradient><path d="M220.43 20.71l4.82-.2c.15-.01.28-.08.36-.21l2.57-4.09c.2-.32.67-.27.8.08l1.68 4.52c.05.14.17.24.31.28l4.68 1.18c.36.09.46.56.17.79l-3.78 3c-.12.09-.18.24-.17.38l.33 4.82c.03.37-.39.61-.7.41L227.49 29a.446.446 0 0 0-.42-.04l-4.48 1.8c-.35.14-.7-.18-.6-.54l1.3-4.65c.04-.14.01-.3-.09-.41l-3.1-3.7a.46.46 0 0 1 .33-.75z" fill="url(#v)"/><path d="M228.56 16c.18 0 .35.1.42.29l1.68 4.52c.05.14.17.24.31.28l4.68 1.18c.36.09.46.56.17.79l-3.78 3c-.12.09-.18.24-.17.38l.33 4.82a.45.45 0 0 1-.45.48c-.08 0-.17-.02-.25-.08L227.49 29a.438.438 0 0 0-.25-.08c-.06 0-.11.01-.17.03l-4.48 1.8c-.06.02-.11.03-.17.03-.28 0-.52-.27-.43-.57l1.3-4.65c.04-.14.01-.3-.09-.41l-3.1-3.7a.45.45 0 0 1 .33-.74l4.82-.2c.15-.01.28-.08.36-.21l2.57-4.09c.09-.14.23-.21.38-.21m0-2c-.85 0-1.62.43-2.07 1.15l-2.13 3.4-4.01.17c-.94.04-1.76.6-2.14 1.46s-.24 1.84.36 2.56l2.57 3.08-1.08 3.86c-.21.74-.06 1.52.41 2.14.46.61 1.19.97 1.95.97.31 0 .62-.06.91-.18l3.72-1.5 3.34 2.22c.4.27.87.41 1.35.41.68 0 1.33-.28 1.79-.78.46-.49.7-1.16.65-1.84l-.27-4 3.14-2.49c.74-.58 1.07-1.52.87-2.44s-.89-1.63-1.8-1.86l-3.89-.98-1.4-3.76c-.33-.95-1.25-1.59-2.27-1.59z" fill="#424242" opacity=".2"/><radialGradient id="w" cx="178.07" cy="16.843" r="13.004" gradientTransform="rotate(-42.625 182.214 17.96)" gradientUnits="userSpaceOnUse"><stop stop-color="#ff0" offset="0"/><stop stop-color="#FFD600" offset=".996"/></radialGradient><path d="M176.67 26.87l2.63-2.64c.08-.08.12-.2.1-.31l-.68-3.67c-.05-.28.24-.5.5-.37l3.32 1.69c.1.05.22.05.32 0l3.28-1.78c.25-.14.55.07.51.36l-.58 3.68c-.02.11.02.23.1.31l2.71 2.57c.21.2.1.55-.18.6l-3.68.59c-.11.02-.21.09-.26.19l-1.6 3.37c-.12.26-.49.27-.62.01l-1.7-3.32a.364.364 0 0 0-.26-.19l-3.7-.49c-.29-.05-.41-.4-.21-.6z" fill="url(#w)"/><path d="M186.31 19.74c.2 0 .38.18.34.4l-.58 3.68c-.02.11.02.23.1.31l2.71 2.57c.21.2.1.55-.18.6l-3.68.59c-.11.02-.21.09-.26.19l-1.6 3.37c-.06.13-.19.2-.31.2s-.24-.06-.31-.19l-1.7-3.32a.364.364 0 0 0-.26-.19l-3.7-.49a.348.348 0 0 1-.2-.59l2.63-2.64c.08-.08.12-.2.1-.31l-.68-3.67a.347.347 0 0 1 .5-.37l3.32 1.69c.05.03.1.04.16.04s.11-.01.17-.04l3.28-1.78c.04-.03.1-.05.15-.05m0-2c-.39 0-.78.1-1.12.29l-2.51 1.37-2.55-1.3c-.33-.17-.7-.26-1.06-.26a2.351 2.351 0 0 0-2.31 2.78l.52 2.81-2.02 2.02c-.64.64-.85 1.56-.56 2.41s1.02 1.45 1.92 1.57l2.84.37 1.3 2.55c.4.79 1.2 1.28 2.09 1.28.91 0 1.73-.51 2.12-1.34l1.23-2.58 2.82-.45c.89-.14 1.61-.76 1.87-1.62.27-.86.03-1.78-.63-2.4l-2.08-1.97.44-2.83a2.35 2.35 0 0 0-.53-1.89c-.44-.51-1.09-.81-1.78-.81z" fill="#424242" opacity=".2"/><radialGradient id="x" cx="199.9" cy="35.315" r="8.804" gradientUnits="userSpaceOnUse"><stop stop-color="#ff0" offset="0"/><stop stop-color="#FFD600" offset=".996"/></radialGradient><path d="M195.86 37.97l2.52-.11c.08 0 .15-.04.19-.11l1.34-2.14c.1-.17.35-.14.42.04l.88 2.37c.03.07.09.13.16.15l2.45.62c.19.05.24.29.09.41l-1.98 1.57c-.06.05-.09.12-.09.2l.17 2.52c.01.19-.2.32-.36.21l-2.1-1.4a.244.244 0 0 0-.22-.02l-2.34.94c-.18.07-.37-.09-.31-.28l.68-2.43c.02-.07 0-.15-.05-.21l-1.62-1.94a.236.236 0 0 1 .17-.39z" fill="url(#x)"/><path d="M200.11 35.51c.09 0 .18.05.22.15l.88 2.37c.03.07.09.13.16.15l2.45.62c.19.05.24.29.09.41l-1.98 1.57c-.06.05-.09.12-.09.2l.17 2.52c.01.15-.11.25-.24.25a.22.22 0 0 1-.13-.04l-2.1-1.4a.201.201 0 0 0-.13-.04c-.03 0-.06.01-.09.02l-2.34.94c-.03.01-.06.02-.09.02-.15 0-.27-.14-.23-.3l.68-2.43c.02-.07 0-.15-.05-.21l-1.62-1.94c-.13-.15-.02-.38.17-.39l2.52-.11c.08 0 .15-.04.19-.11l1.34-2.14c.07-.08.14-.11.22-.11m0-2c-.77 0-1.48.39-1.89 1.05l-.85 1.35-1.6.07c-.86.04-1.6.55-1.95 1.33s-.22 1.68.33 2.34l1.02 1.23-.43 1.54c-.19.68-.05 1.39.37 1.95.42.55 1.09.88 1.78.88.29 0 .57-.05.83-.16l1.48-.6 1.33.88c.37.24.8.37 1.24.37.62 0 1.21-.26 1.64-.71.42-.45.64-1.06.6-1.68l-.11-1.59 1.25-.99c.67-.53.98-1.38.8-2.22s-.81-1.49-1.64-1.7l-1.55-.39-.56-1.5a2.23 2.23 0 0 0-2.09-1.45z" fill="#424242" opacity=".2"/><path d="M276 7c2.76 0 5 2.24 5 5v104c0 2.76-2.24 5-5 5H172c-2.76 0-5-2.24-5-5V12c0-2.76 2.24-5 5-5h104m0-3H172c-4.42 0-8 3.58-8 8v104c0 4.42 3.58 8 8 8h104c4.42 0 8-3.58 8-8V12c0-4.42-3.58-8-8-8z" fill="#eee" opacity=".2"/><radialGradient id="y" cx="38.452" cy="5.5" r="17.79" gradientUnits="userSpaceOnUse"><stop stop-color="#ff0" offset="0"/><stop stop-color="#FFD600" offset=".996"/></radialGradient><path d="M39.74 4.37l1.86 5.57c.06.17.19.3.37.35l5.64 1.63c.44.13.54.7.17.97l-4.72 3.49c-.14.11-.23.28-.22.46l.2 5.87c.02.45-.5.73-.86.46l-4.78-3.41a.561.561 0 0 0-.5-.07l-5.52 2a.55.55 0 0 1-.71-.68l1.77-5.6c.05-.17.02-.36-.09-.5l-3.61-4.63a.543.543 0 0 1 .43-.88l5.87-.05c.18 0 .35-.09.45-.24l3.29-4.86c.24-.38.82-.31.96.12z" fill="url(#y)"/><radialGradient id="z" cx="12.505" cy="13.5" r="15.604" gradientUnits="userSpaceOnUse"><stop stop-color="#ff0" offset="0"/><stop stop-color="#FFD600" offset=".996"/></radialGradient><path d="M8.55 12.32l4.01 2.69c.12.08.28.1.42.04l4.49-1.77c.35-.14.7.18.6.54l-1.32 4.64c-.04.14-.01.3.09.41l3.07 3.72c.24.29.04.72-.33.74l-4.82.18c-.15.01-.28.08-.36.21l-2.59 4.07a.45.45 0 0 1-.8-.09l-1.66-4.53a.458.458 0 0 0-.31-.28l-4.67-1.2a.452.452 0 0 1-.17-.79L8 17.92a.43.43 0 0 0 .17-.38l-.3-4.82c-.05-.37.37-.61.68-.4z" fill="url(#z)"/><radialGradient id="A" cx="81" cy="14.5" r="16.833" gradientUnits="userSpaceOnUse"><stop stop-color="#ff0" offset="0"/><stop stop-color="#FFD600" offset=".996"/></radialGradient><path d="M73.27 19.59l4.82-.2c.15-.01.28-.08.36-.21l2.57-4.09c.2-.32.67-.27.8.08l1.68 4.52c.05.14.17.24.31.28l4.68 1.18c.36.09.46.56.17.79l-3.78 3c-.12.09-.18.24-.17.38l.33 4.82c.03.37-.39.61-.7.41l-4.02-2.67a.446.446 0 0 0-.42-.04l-4.48 1.8c-.35.14-.7-.18-.6-.54l1.3-4.65c.04-.14.01-.3-.09-.41l-3.1-3.7c-.23-.3-.04-.74.34-.75z" fill="url(#A)"/><path d="M38.78 7.8l.93 2.77c.27.8.9 1.41 1.71 1.64l2.81.81-2.35 1.74c-.67.5-1.06 1.3-1.03 2.13l.1 2.92-2.38-1.7c-.43-.31-.95-.47-1.48-.47-.3 0-.59.05-.87.15l-2.75 1 .88-2.79c.25-.8.1-1.67-.42-2.33l-1.8-2.31 2.92-.02c.84-.01 1.62-.43 2.09-1.12l1.64-2.42m.44-3.8c-.17 0-.34.08-.45.24L35.48 9.1c-.1.15-.27.24-.45.24l-5.87.05c-.45 0-.71.53-.43.88l3.61 4.63c.11.14.14.33.09.5L30.66 21c-.12.37.17.71.52.71.06 0 .13-.01.19-.03l5.52-2a.582.582 0 0 1 .51.07l4.78 3.41a.553.553 0 0 0 .87-.47l-.2-5.87c-.01-.18.08-.35.22-.46l4.72-3.49c.36-.27.26-.84-.17-.97l-5.64-1.63a.562.562 0 0 1-.37-.35l-1.86-5.57a.575.575 0 0 0-.53-.35zM10.04 15.73l1.4.94c.41.27.88.42 1.37.42.31 0 .61-.06.9-.17l1.57-.62-.46 1.62c-.22.78-.05 1.61.47 2.23l1.07 1.3-1.69.06c-.81.03-1.55.45-1.98 1.13l-.9 1.42-.58-1.58c-.28-.76-.91-1.33-1.69-1.53l-1.63-.42 1.33-1.04c.63-.5.98-1.28.93-2.08l-.11-1.68M8.3 12.24c-.24 0-.47.2-.45.48l.3 4.82a.43.43 0 0 1-.17.38l-3.8 2.98c-.29.23-.2.7.17.79l4.67 1.2c.14.04.26.14.31.28l1.66 4.53c.07.19.25.3.42.3.14 0 .29-.07.38-.21l2.59-4.07c.08-.12.22-.2.36-.21l4.82-.18c.37-.01.57-.45.33-.74l-3.07-3.72a.465.465 0 0 1-.09-.41l1.32-4.64c.09-.3-.15-.57-.43-.57-.05 0-.11.01-.17.03l-4.49 1.77c-.05.02-.11.03-.17.03-.09 0-.18-.03-.25-.08l-4.01-2.69a.37.37 0 0 0-.23-.07zM81.04 18.81l.59 1.58c.28.76.92 1.32 1.7 1.52l1.64.41-1.32 1.05c-.63.5-.98 1.28-.92 2.09l.11 1.68-1.41-.93a2.41 2.41 0 0 0-2.26-.23l-1.57.62.45-1.62c.22-.78.04-1.61-.48-2.23l-1.08-1.29 1.68-.07a2.42 2.42 0 0 0 1.97-1.15l.9-1.43m.36-3.94c-.14 0-.29.07-.38.21l-2.57 4.09c-.08.13-.21.2-.36.21l-4.82.2c-.37.02-.57.45-.33.74l3.1 3.7c.09.11.13.27.09.41l-1.3 4.65a.45.45 0 0 0 .6.54l4.48-1.8a.463.463 0 0 1 .42.05l4.02 2.67c.08.05.16.08.25.08.24 0 .47-.2.45-.48l-.33-4.82a.43.43 0 0 1 .17-.38l3.78-3c.29-.23.19-.7-.17-.79l-4.68-1.18a.458.458 0 0 1-.31-.28l-1.68-4.52c-.08-.2-.26-.3-.43-.3z" fill="#424242" opacity=".2"/></svg>