<svg viewBox="0 0 128 128" xmlns="http://www.w3.org/2000/svg"><radialGradient id="a" cx="50.1" cy="26.7" r="96.6" gradientTransform="scale(-1 1) rotate(14.3 0 -444.3)" gradientUnits="userSpaceOnUse"><stop stop-color="#FFF157" offset=".3"/><stop stop-color="#FEEE54" offset=".5"/><stop stop-color="#FAE44A" offset=".7"/><stop stop-color="#F4D538" offset=".9"/><stop stop-color="#F0C92C" offset="1"/></radialGradient><path d="M89.5 29A56 56 0 0 0 75.8 4 60.9 60.9 0 1 1 6.7 91.6 56.1 56.1 0 0 0 89.5 29z" fill="url(#a)"/><radialGradient id="b" cx="28" cy="84.9" r="14.3" gradientTransform="scale(-1 1) rotate(14.3 0 -444.3)" gradientUnits="userSpaceOnUse"><stop stop-color="#E0A800" offset="0"/><stop stop-color="#E0A800" stop-opacity=".1" offset=".6"/><stop stop-color="#E0A800" stop-opacity="0" offset=".7"/></radialGradient><path d="M91.8 80.3c.6 6.1 6.4 10.6 13 10 6.5-.7 11.3-6.2 10.7-12.4s-6.4-10.5-13-9.9c-6.5.7-11.3 6.2-10.7 12.3z" fill="url(#b)"/><radialGradient id="c" cx="40.1" cy="99.2" r="13.4" gradientTransform="scale(-1 1) rotate(14.3 0 -444.3)" gradientUnits="userSpaceOnUse"><stop stop-color="#E0A800" offset="0"/><stop stop-color="#E0A800" stop-opacity=".1" offset=".6"/><stop stop-color="#E0A800" stop-opacity="0" offset=".7"/></radialGradient><path d="M89.4 103.9a7.6 7.6 0 0 0 10.1 3.7 7.6 7.6 0 0 0-6.4-13.8 7.6 7.6 0 0 0-3.7 10z" fill="url(#c)"/><radialGradient id="d" cx="15" cy="66.2" r="9.2" gradientTransform="scale(-1 1) rotate(14.3 0 -444.3)" gradientUnits="userSpaceOnUse"><stop stop-color="#E0A800" offset="0"/><stop stop-color="#E0A800" stop-opacity=".1" offset=".6"/><stop stop-color="#E0A800" stop-opacity="0" offset=".7"/></radialGradient><path d="M107.4 62a5.2 5.2 0 1 0 9.5-4.3 5.2 5.2 0 0 0-9.5 4.4z" fill="url(#d)"/><radialGradient id="e" cx="64.8" cy="106.6" r="15.2" gradientTransform="scale(-1 1) rotate(14.3 0 -444.3)" gradientUnits="userSpaceOnUse"><stop stop-color="#E0A800" offset="0"/><stop stop-color="#E0A800" stop-opacity=".1" offset=".6"/><stop stop-color="#E0A800" stop-opacity="0" offset=".7"/></radialGradient><circle cx="73.2" cy="109.1" r="9" fill="url(#e)"/><path d="M84.6 10.4a58 58 0 1 1-69.8 88.2 59.2 59.2 0 0 0 69.8-88.2m-8.8-6.3A56.3 56.3 0 0 1 6.7 91.5a61 61 0 1 0 69-87.4z" fill="#424242" opacity=".2"/></svg>