<svg enable-background="new 0 0 128 128" viewBox="0 0 128 128" xmlns="http://www.w3.org/2000/svg"><radialGradient id="a" cx="47.842" cy="28.923" r="95.191" gradientUnits="userSpaceOnUse"><stop stop-color="#757575" offset="0"/><stop stop-color="#686868" offset=".202"/><stop stop-color="#4C4C4C" offset=".706"/><stop stop-color="#424242" offset="1"/></radialGradient><circle cx="64" cy="64" r="60" fill="url(#a)"/><circle cx="64" cy="64" r="60" fill="none"/><circle cx="64" cy="64" r="60" fill="none"/><radialGradient id="b" cx="26.86" cy="78.509" r="14.105" gradientUnits="userSpaceOnUse"><stop stop-color="#212121" offset="0"/><stop stop-color="#242424" offset=".281"/><stop stop-color="#2D2D2D" offset=".49"/><stop stop-color="#3E3E3E" offset=".676"/><stop stop-color="#545454" offset=".848"/><stop stop-color="#616161" offset=".926"/></radialGradient><path d="M39.05 80.35c.91 6-3.56 11.66-9.97 12.62-6.41.97-12.34-3.12-13.24-9.12s3.56-11.66 9.97-12.62c6.41-.97 12.34 3.11 13.24 9.12z" fill="url(#b)" opacity=".3"/><radialGradient id="c" cx="40" cy="97.421" r="13.252" gradientUnits="userSpaceOnUse"><stop stop-color="#212121" offset="0"/><stop stop-color="#242424" offset=".281"/><stop stop-color="#2D2D2D" offset=".49"/><stop stop-color="#3E3E3E" offset=".676"/><stop stop-color="#545454" offset=".848"/><stop stop-color="#616161" offset=".926"/></radialGradient><path d="M48.26 107.08c-.77 4.08-4.68 6.76-8.74 6s-6.73-4.69-5.96-8.76 4.68-6.76 8.74-6 6.72 4.69 5.96 8.76z" fill="url(#c)" opacity=".3"/><path d="M64 8c30.88 0 56 25.12 56 56s-25.12 56-56 56S8 94.88 8 64 33.12 8 64 8m0-4C30.86 4 4 30.86 4 64s26.86 60 60 60 60-26.86 60-60S97.14 4 64 4z" fill="#424242" opacity=".2"/><radialGradient id="d" cx="62.432" cy="95.26" r="15.023" gradientUnits="userSpaceOnUse"><stop stop-color="#212121" offset="0"/><stop stop-color="#242424" offset=".281"/><stop stop-color="#2D2D2D" offset=".49"/><stop stop-color="#3E3E3E" offset=".676"/><stop stop-color="#545454" offset=".848"/><stop stop-color="#616161" offset=".926"/></radialGradient><circle cx="63.07" cy="98.68" r="8.84" fill="url(#d)" opacity=".3"/><radialGradient id="e" cx="109.7" cy="55.417" r="11.738" gradientTransform="matrix(.0682 .9977 -1.0103 .069 154.2 -62.554)" gradientUnits="userSpaceOnUse"><stop stop-color="#212121" offset="0"/><stop stop-color="#242424" offset=".281"/><stop stop-color="#2D2D2D" offset=".49"/><stop stop-color="#3E3E3E" offset=".676"/><stop stop-color="#545454" offset=".848"/><stop stop-color="#616161" offset=".926"/></radialGradient><path d="M116.19 52.87c-.12 5.46-4.74 9.78-10.32 9.66s-10.01-4.64-9.89-10.1 4.74-9.78 10.32-9.66c5.58.13 10.01 4.65 9.89 10.1z" fill="url(#e)" opacity=".3"/><radialGradient id="f" cx="99.697" cy="104.51" r="7.47" fx="99.307" fy="104.06" gradientTransform="matrix(.9964 .0852 -.0775 .9066 21.531 -33.822)" gradientUnits="userSpaceOnUse"><stop stop-color="#212121" offset="0"/><stop stop-color="#242424" offset=".281"/><stop stop-color="#2D2D2D" offset=".49"/><stop stop-color="#3E3E3E" offset=".676"/><stop stop-color="#545454" offset=".848"/><stop stop-color="#616161" offset=".926"/></radialGradient><path d="M117.88 71c-.25 2.97-2.85 5.17-5.8 4.91-2.95-.25-5.14-2.86-4.89-5.83s2.85-5.17 5.8-4.91c2.95.25 5.14 2.86 4.89 5.83z" fill="url(#f)" opacity=".3"/><radialGradient id="g" cx="82.118" cy="67.727" r="7.47" fx="81.728" fy="67.28" gradientTransform="matrix(.9964 .0852 -.0775 .9066 21.813 -37.124)" gradientUnits="userSpaceOnUse"><stop stop-color="#212121" offset="0"/><stop stop-color="#242424" offset=".281"/><stop stop-color="#2D2D2D" offset=".49"/><stop stop-color="#3E3E3E" offset=".676"/><stop stop-color="#545454" offset=".848"/><stop stop-color="#616161" offset=".926"/></radialGradient><path d="M105.24 33.11c-.25 2.97-2.85 5.17-5.8 4.91s-5.14-2.86-4.89-5.83 2.85-5.17 5.8-4.91 5.15 2.86 4.89 5.83z" fill="url(#g)" opacity=".3"/><radialGradient id="h" cx="92.263" cy="125.22" r="7.47" fx="91.873" fy="124.77" gradientTransform="matrix(.9964 .0852 -.0775 .9066 21.372 -31.964)" gradientUnits="userSpaceOnUse"><stop stop-color="#212121" offset="0"/><stop stop-color="#242424" offset=".281"/><stop stop-color="#2D2D2D" offset=".49"/><stop stop-color="#3E3E3E" offset=".676"/><stop stop-color="#545454" offset=".848"/><stop stop-color="#616161" offset=".926"/></radialGradient><path d="M109.45 91c-.25 2.97-2.85 5.17-5.8 4.91-2.95-.25-5.14-2.86-4.89-5.83s2.85-5.17 5.8-4.91c2.96.25 5.15 2.86 4.89 5.83z" fill="url(#h)" opacity=".3"/><defs><filter id="i" x="4" y="4" width="120" height="120" filterUnits="userSpaceOnUse"><feColorMatrix values="1 0 0 0 0 0 1 0 0 0 0 0 1 0 0 0 0 0 1 0"/></filter></defs><mask id="k" x="4" y="4" width="120" height="120" maskUnits="userSpaceOnUse"><g filter="url(#i)"><radialGradient id="j" cx="28.645" cy="62.257" r="118.23" gradientUnits="userSpaceOnUse"><stop stop-color="#fff" offset=".507"/><stop stop-color="#C6C6C6" offset=".52"/><stop stop-color="#8B8B8B" offset=".535"/><stop stop-color="#595959" offset=".55"/><stop stop-color="#323232" offset=".563"/><stop stop-color="#171717" offset=".576"/><stop stop-color="#060606" offset=".587"/><stop offset=".595"/></radialGradient><circle cx="64" cy="64" r="67.66" fill="url(#j)"/></g></mask><g mask="url(#k)"><radialGradient id="l" cx="47.842" cy="28.923" r="95.191" gradientUnits="userSpaceOnUse"><stop stop-color="#FFF59D" offset=".362"/><stop stop-color="#FFF38A" offset=".449"/><stop stop-color="#FFF06F" offset=".603"/><stop stop-color="#FFEF5E" offset=".739"/><stop stop-color="#FFEE58" offset=".841"/></radialGradient><circle cx="64" cy="64" r="60" fill="url(#l)"/><circle cx="64" cy="64" r="60" fill="none"/><circle cx="64" cy="64" r="60" fill="none"/><radialGradient id="m" cx="26.86" cy="78.509" r="14.105" gradientUnits="userSpaceOnUse"><stop stop-color="#FDD835" offset=".154"/><stop stop-color="#FDDA38" offset=".426"/><stop stop-color="#FEE042" offset=".638"/><stop stop-color="#FFEA52" offset=".829"/><stop stop-color="#FFEE58" offset=".878"/></radialGradient><path d="M39.05 80.35c.91 6-3.56 11.66-9.97 12.62-6.41.97-12.34-3.12-13.24-9.12s3.56-11.66 9.97-12.62c6.41-.97 12.34 3.11 13.24 9.12z" fill="url(#m)"/><radialGradient id="n" cx="40" cy="97.421" r="13.252" gradientUnits="userSpaceOnUse"><stop stop-color="#FDD835" offset=".154"/><stop stop-color="#FDDA38" offset=".426"/><stop stop-color="#FEE042" offset=".638"/><stop stop-color="#FFEA52" offset=".829"/><stop stop-color="#FFEE58" offset=".878"/></radialGradient><path d="M48.26 107.08c-.77 4.08-4.68 6.76-8.74 6s-6.73-4.69-5.96-8.76 4.68-6.76 8.74-6 6.72 4.69 5.96 8.76z" fill="url(#n)"/><path d="M64 8c30.88 0 56 25.12 56 56s-25.12 56-56 56S8 94.88 8 64 33.12 8 64 8m0-4C30.86 4 4 30.86 4 64s26.86 60 60 60 60-26.86 60-60S97.14 4 64 4z" fill="#424242" opacity=".2"/><radialGradient id="o" cx="62.432" cy="95.26" r="15.023" gradientUnits="userSpaceOnUse"><stop stop-color="#FDD835" offset=".154"/><stop stop-color="#FDDA38" offset=".426"/><stop stop-color="#FEE042" offset=".638"/><stop stop-color="#FFEA52" offset=".829"/><stop stop-color="#FFEE58" offset=".878"/></radialGradient><circle cx="63.07" cy="98.68" r="8.84" fill="url(#o)"/><radialGradient id="p" cx="109.7" cy="55.417" r="11.738" gradientTransform="matrix(.0682 .9977 -1.0103 .069 154.2 -62.554)" gradientUnits="userSpaceOnUse"><stop stop-color="#FDD835" offset=".154"/><stop stop-color="#FDDA38" offset=".426"/><stop stop-color="#FEE042" offset=".638"/><stop stop-color="#FFEA52" offset=".829"/><stop stop-color="#FFEE58" offset=".878"/></radialGradient><path d="M116.19 52.87c-.12 5.46-4.74 9.78-10.32 9.66s-10.01-4.64-9.89-10.1 4.74-9.78 10.32-9.66c5.58.13 10.01 4.65 9.89 10.1z" fill="url(#p)"/><radialGradient id="q" cx="99.697" cy="104.51" r="7.47" fx="99.307" fy="104.06" gradientTransform="matrix(.9964 .0852 -.0775 .9066 21.531 -33.822)" gradientUnits="userSpaceOnUse"><stop stop-color="#FDD835" offset=".154"/><stop stop-color="#FDDA38" offset=".426"/><stop stop-color="#FEE042" offset=".638"/><stop stop-color="#FFEA52" offset=".829"/><stop stop-color="#FFEE58" offset=".878"/></radialGradient><path d="M117.88 71c-.25 2.97-2.85 5.17-5.8 4.91-2.95-.25-5.14-2.86-4.89-5.83s2.85-5.17 5.8-4.91c2.95.25 5.14 2.86 4.89 5.83z" fill="url(#q)"/><radialGradient id="r" cx="82.118" cy="67.727" r="7.47" fx="81.728" fy="67.28" gradientTransform="matrix(.9964 .0852 -.0775 .9066 21.813 -37.124)" gradientUnits="userSpaceOnUse"><stop stop-color="#FDD835" offset=".154"/><stop stop-color="#FDDA38" offset=".426"/><stop stop-color="#FEE042" offset=".638"/><stop stop-color="#FFEA52" offset=".829"/><stop stop-color="#FFEE58" offset=".878"/></radialGradient><path d="M105.24 33.11c-.25 2.97-2.85 5.17-5.8 4.91s-5.14-2.86-4.89-5.83 2.85-5.17 5.8-4.91 5.15 2.86 4.89 5.83z" fill="url(#r)"/><radialGradient id="s" cx="92.263" cy="125.22" r="7.47" fx="91.873" fy="124.77" gradientTransform="matrix(.9964 .0852 -.0775 .9066 21.372 -31.964)" gradientUnits="userSpaceOnUse"><stop stop-color="#FDD835" offset=".154"/><stop stop-color="#FDDA38" offset=".426"/><stop stop-color="#FEE042" offset=".638"/><stop stop-color="#FFEA52" offset=".829"/><stop stop-color="#FFEE58" offset=".878"/></radialGradient><path d="M109.45 91c-.25 2.97-2.85 5.17-5.8 4.91-2.95-.25-5.14-2.86-4.89-5.83s2.85-5.17 5.8-4.91c2.96.25 5.15 2.86 4.89 5.83z" fill="url(#s)"/></g></svg>