<svg viewBox="0 0 128 128" xmlns="http://www.w3.org/2000/svg" xmlns:xlink="http://www.w3.org/1999/xlink"><path d="M105.48 35.62C95.2 16.73 76.47 5.72 56.75 4.41c-1.89-.13-2.85 2.23-1.41 3.46 8.81 7.47 16.45 20.39 18.79 34.36 1.27 7.57-1.27 15.19-9.83 20.58-3.16 1.99-6.73 1.53-7.88 5.65-.76 2.72 2.17 5.19 5.69 6.63 3.78 1.54 6.03 8.84-1.12 17.29-1.57 1.85-5.77.88-8.47 3.32s.34 4.77-4.8 7.3c-9.74 4.77-19.67 6.17-30.55 4.69-1.97-.27-3.06 2.24-1.5 3.48 19.66 15.54 47.93 17.71 70.27 2.91 25.72-17.04 34.27-51.37 19.54-78.46z" fill="#FFEB3B"/><radialGradient id="a" cx="35.928" cy="82.484" r="14.08" gradientTransform="scale(-1 1) rotate(20.592 -1.274 -286.234)" gradientUnits="userSpaceOnUse"><stop stop-color="#FDD835" offset=".154"/><stop stop-color="#FDDA38" offset=".426"/><stop stop-color="#FEE042" offset=".638"/><stop stop-color="#FFEA52" offset=".829"/><stop stop-color="#FFEE58" offset=".878"/></radialGradient><path d="M85.38 78.01c1.26 5.93 7.42 9.64 13.74 8.3 6.33-1.35 10.44-7.25 9.17-13.17-1.26-5.93-7.42-9.64-13.74-8.3s-10.43 7.24-9.17 13.17z" fill="url(#a)" opacity=".5"/><radialGradient id="b" cx="61.88" cy="99.864" r="13.229" gradientTransform="scale(-1 1) rotate(20.592 -1.274 -286.234)" gradientUnits="userSpaceOnUse"><stop stop-color="#FDD835" offset=".154"/><stop stop-color="#FDDA38" offset=".426"/><stop stop-color="#FEE042" offset=".638"/><stop stop-color="#FFEA52" offset=".829"/><stop stop-color="#FFEE58" offset=".878"/></radialGradient><path d="M73.63 109.34c2.15 3.54 6.75 4.68 10.27 2.54s4.64-6.74 2.49-10.28-6.75-4.68-10.27-2.54-4.64 6.74-2.49 10.28z" fill="url(#b)" opacity=".6"/><radialGradient id="c" cx="23.821" cy="66.01" r="9.055" gradientTransform="scale(-1 1) rotate(20.592 -1.274 -286.234)" gradientUnits="userSpaceOnUse"><stop stop-color="#FDD835" offset=".154"/><stop stop-color="#FDDA38" offset=".426"/><stop stop-color="#FEE042" offset=".638"/><stop stop-color="#FFEA52" offset=".829"/><stop stop-color="#FFEE58" offset=".878"/></radialGradient><path d="M98.71 60.5c1.47 2.42 4.62 3.2 7.03 1.74s3.18-4.61 1.71-7.04c-1.47-2.42-4.62-3.2-7.03-1.74s-3.18 4.61-1.71 7.04z" fill="url(#c)" opacity=".3"/><radialGradient id="d" cx="79.377" cy="103.23" r="14.996" gradientTransform="scale(-1 1) rotate(20.592 -1.274 -286.234)" gradientUnits="userSpaceOnUse"><stop stop-color="#FDD835" offset=".154"/><stop stop-color="#FDDA38" offset=".426"/><stop stop-color="#FEE042" offset=".638"/><stop stop-color="#FFEA52" offset=".829"/><stop stop-color="#FFEE58" offset=".878"/></radialGradient><circle cx="63.36" cy="110.14" r="8.82" fill="url(#d)" opacity=".6"/><defs><path id="e" d="M63.49 78.94c1.24.59 2.6 2.68 2.06 4.73-1.45 5.5-3.95 8.14-3.95 8.14s7.99 5.74 16.23 1.4c8.23-4.33 16.84-8.87 12.1-12.89-7.87-6.67-28.24-2.25-26.44-1.38z"/></defs><clipPath id="f"><use xlink:href="#e"/></clipPath><path d="M59.66 82.13c-8.4-2.88-15.03-8.36-19.03-14.96-.85-1.4-3-.62-2.75 1 1.58 10.07 8.54 18.95 18.86 22.48s21.26.78 28.68-6.21c1.19-1.12-.03-3.06-1.56-2.47-7.19 2.76-15.8 3.04-24.2.16z" clip-path="url(#f)" fill="#6D4C41"/><path d="M84.63 45.73c-3.31 0-6.31 3.23-6.31 8.59s3.01 8.59 6.31 8.59c3.31 0 6.31-3.23 6.31-8.59s-3-8.59-6.31-8.59z" fill="#6D4C41"/><path d="M59.61 7.69c18.33 2.2 34.34 13.01 43.23 29.37 13.95 25.66 5.81 58.39-18.55 74.52-9.38 6.21-20.24 9.5-31.4 9.5-11.52 0-22.84-3.53-32.29-10.01 1.57.12 3.11.18 4.62.18 8.4 0 16.19-1.82 23.82-5.56 4.11-2.01 4.77-4.46 5.06-6.59.12-.87.15-.92.43-1.17.79-.72 2.08-.95 3.45-1.2 1.81-.33 3.87-.71 5.3-2.4 4.38-5.17 6.21-10.88 5.03-15.68-.74-3.02-2.59-5.32-5.07-6.33-2.97-1.21-4.03-2.69-3.93-3.04.33-1.2.78-1.46 2.93-2.24 1.11-.41 2.37-.86 3.66-1.68 8.83-5.56 12.81-13.94 11.19-23.61-2.14-12.83-8.74-25.58-17.48-34.06m-3-3.29c-1.79 0-2.67 2.27-1.27 3.46 8.81 7.47 16.45 20.39 18.79 34.36 1.27 7.57-1.27 15.19-9.83 20.58-3.16 1.99-6.73 1.53-7.88 5.65-.76 2.72 2.17 5.19 5.69 6.63 3.78 1.54 6.03 8.84-1.12 17.29-1.57 1.85-5.77.88-8.47 3.32s.34 4.77-4.8 7.3c-7.28 3.57-14.68 5.26-22.5 5.26-2.63 0-5.31-.19-8.04-.56-.1-.01-.2-.02-.29-.02-1.79 0-2.69 2.33-1.21 3.5a60.128 60.128 0 0 0 37.21 12.91c11.33 0 22.82-3.22 33.05-10 25.71-17.03 34.26-51.36 19.53-78.45-10.27-18.9-29-29.91-48.72-31.22-.05 0-.09-.01-.14-.01z" fill="#424242" opacity=".2"/></svg>