<svg viewBox="0 0 128 128" xmlns="http://www.w3.org/2000/svg" xmlns:xlink="http://www.w3.org/1999/xlink"><path d="M22.14 35.62C32.41 16.73 51.15 5.72 70.86 4.41c1.89-.13 2.85 2.23 1.41 3.46-8.81 7.47-16.45 20.39-18.79 34.36-1.27 7.57 1.27 15.19 9.83 20.58 3.16 1.99 6.73 1.53 7.88 5.65.76 2.72-2.17 5.19-5.69 6.63-3.78 1.54-6.03 8.84 1.12 17.29 1.57 1.85 5.77.88 8.47 3.32s-.34 4.77 4.8 7.3c9.74 4.77 19.67 6.17 30.55 4.69 1.97-.27 3.06 2.24 1.5 3.48-19.67 15.53-47.94 17.7-70.28 2.9C15.95 97.04 7.4 62.71 22.14 35.62z" fill="#FFEB3B"/><radialGradient id="a" cx="35.928" cy="82.484" r="14.08" gradientTransform="rotate(20.593 62.534 65.01)" gradientUnits="userSpaceOnUse"><stop stop-color="#FDD835" offset=".154"/><stop stop-color="#FDDA38" offset=".426"/><stop stop-color="#FEE042" offset=".638"/><stop stop-color="#FFEA52" offset=".829"/><stop stop-color="#FFEE58" offset=".878"/></radialGradient><path d="M42.23 78.01c-1.26 5.93-7.42 9.64-13.74 8.3s-10.44-7.25-9.17-13.17 7.42-9.64 13.74-8.3c6.33 1.34 10.43 7.24 9.17 13.17z" fill="url(#a)" opacity=".5"/><radialGradient id="b" cx="61.88" cy="99.864" r="13.229" gradientTransform="rotate(20.593 62.534 65.01)" gradientUnits="userSpaceOnUse"><stop stop-color="#FDD835" offset=".154"/><stop stop-color="#FDDA38" offset=".426"/><stop stop-color="#FEE042" offset=".638"/><stop stop-color="#FFEA52" offset=".829"/><stop stop-color="#FFEE58" offset=".878"/></radialGradient><path d="M53.98 109.34c-2.15 3.54-6.75 4.68-10.27 2.54s-4.64-6.74-2.49-10.28 6.75-4.68 10.27-2.54 4.64 6.74 2.49 10.28z" fill="url(#b)" opacity=".6"/><radialGradient id="c" cx="23.821" cy="66.01" r="9.055" gradientTransform="rotate(20.593 62.534 65.01)" gradientUnits="userSpaceOnUse"><stop stop-color="#FDD835" offset=".154"/><stop stop-color="#FDDA38" offset=".426"/><stop stop-color="#FEE042" offset=".638"/><stop stop-color="#FFEA52" offset=".829"/><stop stop-color="#FFEE58" offset=".878"/></radialGradient><path d="M28.9 60.5c-1.47 2.42-4.62 3.2-7.03 1.74s-3.18-4.61-1.71-7.04c1.47-2.42 4.62-3.2 7.03-1.74s3.18 4.61 1.71 7.04z" fill="url(#c)" opacity=".3"/><radialGradient id="d" cx="79.377" cy="103.23" r="14.996" gradientTransform="rotate(20.593 62.534 65.01)" gradientUnits="userSpaceOnUse"><stop stop-color="#FDD835" offset=".154"/><stop stop-color="#FDDA38" offset=".426"/><stop stop-color="#FEE042" offset=".638"/><stop stop-color="#FFEA52" offset=".829"/><stop stop-color="#FFEE58" offset=".878"/></radialGradient><circle cx="64.25" cy="110.14" r="8.82" fill="url(#d)" opacity=".6"/><defs><path id="e" d="M64.12 78.94c-1.24.59-2.6 2.68-2.06 4.73 1.45 5.5 3.95 8.14 3.95 8.14s-7.99 5.74-16.23 1.4c-8.23-4.33-16.84-8.87-12.1-12.89 7.88-6.67 28.24-2.25 26.44-1.38z"/></defs><clipPath id="f"><use xlink:href="#e"/></clipPath><path d="M67.95 82.13c8.4-2.88 15.03-8.36 19.03-14.96.85-1.4 3-.62 2.75 1-1.58 10.07-8.54 18.95-18.86 22.48s-21.26.78-28.68-6.21c-1.19-1.12.03-3.06 1.56-2.47 7.2 2.76 15.8 3.04 24.2.16z" clip-path="url(#f)" fill="#6D4C41"/><path d="M42.98 45.73c3.31 0 6.31 3.23 6.31 8.59s-3.01 8.59-6.31 8.59c-3.31 0-6.31-3.23-6.31-8.59s3-8.59 6.31-8.59z" fill="#6D4C41"/><path d="M68 7.69c-8.74 8.48-15.34 21.23-17.48 34.05-1.62 9.67 2.35 18.05 11.19 23.61 1.29.81 2.55 1.27 3.66 1.68 2.14.78 2.59 1.04 2.93 2.24.1.36-.96 1.83-3.93 3.04-2.48 1.01-4.33 3.32-5.07 6.33-1.18 4.79.66 10.51 5.03 15.68 1.44 1.69 3.49 2.07 5.3 2.4 1.37.25 2.65.49 3.45 1.2.28.25.31.3.43 1.17.3 2.13.96 4.58 5.06 6.59 7.63 3.74 15.42 5.56 23.82 5.56 1.51 0 3.05-.06 4.62-.18a57.278 57.278 0 0 1-32.29 10.01c-11.16 0-22.01-3.29-31.4-9.5-24.35-16.13-32.5-48.86-18.55-74.52C33.67 20.69 49.68 9.88 68 7.69m3-3.29h-.14C51.15 5.72 32.41 16.73 22.14 35.62 7.4 62.71 15.95 97.04 41.66 114.07c10.24 6.78 21.72 10 33.05 10 13.39 0 26.57-4.49 37.21-12.91 1.48-1.17.58-3.5-1.21-3.5-.09 0-.19.01-.29.02-2.74.37-5.41.56-8.04.56-7.82 0-15.22-1.68-22.5-5.26-5.14-2.52-2.1-4.85-4.8-7.3-2.7-2.44-6.9-1.47-8.47-3.32-7.16-8.45-4.9-15.75-1.12-17.29 3.53-1.43 6.45-3.91 5.69-6.63-1.15-4.12-4.71-3.66-7.88-5.65-8.55-5.38-11.09-13-9.83-20.58 2.34-13.98 9.97-26.9 18.79-34.36C73.68 6.67 72.8 4.4 71 4.4z" fill="#424242" opacity=".2"/></svg>