<svg viewBox="0 0 128 128" xmlns="http://www.w3.org/2000/svg"><radialGradient id="a" cx="37.056" cy="57.62" r="42.815" fx="12.018" fy="56.747" gradientTransform="matrix(.7322 -.5356 .5346 .7353 -19.453 49.68)" gradientUnits="userSpaceOnUse"><stop stop-color="#FFEB3B" offset="0"/><stop stop-color="#FBC02D" offset="1"/></radialGradient><path d="M24.02 41.66l19.61 13.66c1.16.81 2.7.81 3.85 0l19.54-13.69c2.62-1.83 6.08.68 5.16 3.75l-6.84 22.94a3.39 3.39 0 0 0 1.2 3.67L85.6 86.44c2.55 1.94 1.24 6.01-1.96 6.08l-23.84.5c-1.41.03-2.65.94-3.11 2.28l-7.76 22.61c-1.04 3.03-5.31 3.04-6.37.01l-7.9-22.62a3.394 3.394 0 0 0-3.12-2.27l-23.85-.47c-3.19-.06-4.52-4.13-1.98-6.07l18.97-14.48a3.395 3.395 0 0 0 1.18-3.68l-6.97-22.91c-.94-3.07 2.51-5.59 5.13-3.76z" fill="url(#a)"/><path d="M68.95 43.97c.12 0 .27.09.36.2.08.11.09.2.04.36l-7.07 23.69c-.62 2.07.12 4.34 1.85 5.65L83.81 88.8c.08.06.24.18.15.48-.09.28-.28.28-.38.28l-24.62.52a5.222 5.222 0 0 0-4.81 3.52l-8.01 23.36c-.03.1-.1.28-.38.28-.29 0-.36-.18-.39-.28L37.2 93.58a5.215 5.215 0 0 0-4.81-3.49L7.75 89.6c-.09 0-.29-.01-.38-.29-.09-.29.07-.41.14-.47L27.1 73.89c1.72-1.31 2.45-3.59 1.82-5.67l-7.2-23.66c-.05-.18-.02-.27.04-.36.09-.12.24-.2.36-.2.03 0 .1 0 .22.09L42.59 58.2a5.196 5.196 0 0 0 5.95-.01l20.18-14.14c.13-.08.2-.08.23-.08m0-2.96c-.64 0-1.3.19-1.92.62L46.85 55.77c-.39.27-.84.41-1.29.41s-.9-.13-1.28-.4L24.02 41.66c-.62-.43-1.28-.62-1.91-.62-2.09 0-3.94 2.03-3.23 4.38l7.2 23.66c.27.9-.04 1.88-.79 2.45L5.71 86.49c-2.54 1.94-1.21 6.01 1.98 6.07l24.64.49c.94.02 1.77.62 2.08 1.51l8.16 23.36c.53 1.51 1.86 2.27 3.18 2.27 1.33 0 2.66-.76 3.18-2.28l8.01-23.36c.31-.89 1.13-1.5 2.07-1.52l24.62-.52c3.19-.07 4.51-4.14 1.96-6.08L65.92 71.51a2.261 2.261 0 0 1-.8-2.45l7.07-23.69c.7-2.34-1.16-4.36-3.24-4.36z" fill="#424242" opacity=".2"/><linearGradient id="b" x1="71.716" x2="124" y1="42.564" y2="42.564" gradientUnits="userSpaceOnUse"><stop stop-color="#FBC02D" offset="0"/><stop stop-color="#FFEB3B" offset="1"/></linearGradient><path d="M77.64 38.37l-5.92 24.91s36.25-34.1 52.28-41.43c0 0-22.69.28-46.36 16.52z" fill="url(#b)"/><linearGradient id="c" x1="26.091" x2="104.76" y1="29.346" y2="29.346" gradientUnits="userSpaceOnUse"><stop stop-color="#FBC02D" offset="0"/><stop stop-color="#FFEB3B" offset="1"/></linearGradient><path d="M26.09 39.11l14.06 8.88s38.26-32.01 64.61-36.59c0 0-42.66-7.64-78.67 27.71z" fill="url(#c)"/><linearGradient id="d" x1="78.868" x2="120.82" y1="64.127" y2="64.127" gradientUnits="userSpaceOnUse"><stop stop-color="#FBC02D" offset="0"/><stop stop-color="#FFEB3B" offset="1"/></linearGradient><path d="M78.87 75.36l10.94 9.19s20.5-32.33 31.01-40.85c0 0-27.07 6.35-41.95 31.66z" fill="url(#d)"/><path d="M110.09 26.99c-11.52 8.29-25.13 20.22-33.26 27.57l3.42-14.39a95.25 95.25 0 0 1 29.84-13.18M124 22zm0-.15s-22.69.28-46.36 16.52l-5.92 24.91s36.25-34.1 52.28-41.43zM87.41 13.95c-20.35 9.03-41.42 25.49-47.49 30.4l-9.03-5.71c20.13-18.37 41.96-23.55 56.52-24.69m7.06-3.25c-14.84 0-43.23 3.72-68.38 28.41l14.06 8.88s38.26-32.01 64.61-36.59c0 0-3.88-.7-10.29-.7zM109.8 51.13c-8.05 9.88-16.9 23.21-20.67 28.99l-6.41-5.38c7.89-12.23 18.83-19.52 27.08-23.61M120.82 44zm0-.3s-27.07 6.35-41.95 31.66l10.94 9.19c-.01 0 20.5-32.33 31.01-40.85z" fill="#424242" opacity=".2"/></svg>