<svg viewBox="0 0 128 128" xmlns="http://www.w3.org/2000/svg"><radialGradient id="a" cx="37.1" cy="57.6" r="42.8" fx="12" fy="56.7" gradientTransform="matrix(.7322 -.5356 .5346 .7353 -19.5 49.7)" gradientUnits="userSpaceOnUse"><stop stop-color="#FFEB3B" offset="0"/><stop stop-color="#FBC02D" offset="1"/></radialGradient><path d="M24 41.7l19.6 13.6c1.2.8 2.7.8 3.9 0L67 41.6c2.6-1.8 6.1.7 5.2 3.8l-6.9 23c-.4 1.3.1 2.7 1.2 3.6l19.1 14.4c2.5 2 1.2 6-2 6.1l-23.8.5c-1.4 0-2.6 1-3.1 2.3l-7.8 22.6c-1 3-5.3 3-6.3 0l-8-22.6a3.4 3.4 0 0 0-3-2.3l-24-.4a3.4 3.4 0 0 1-1.9-6.1l19-14.5a3.4 3.4 0 0 0 1.2-3.7l-7-22.9c-1-3 2.5-5.6 5.1-3.7z" fill="url(#a)"/><path d="M69 44s.2 0 .3.2v.3l-7 23.7c-.6 2 .1 4.4 1.8 5.7l19.7 14.9s.3.2.2.5c-.1.3-.3.3-.4.3L59 90a5.2 5.2 0 0 0-4.8 3.5l-8 23.4-.4.2c-.3 0-.4-.1-.4-.2l-8.2-23.4c-.7-2-2.6-3.5-4.8-3.5l-24.6-.5c-.1 0-.3 0-.4-.3-.1-.3 0-.4.1-.5l19.6-15a5.2 5.2 0 0 0 1.8-5.6l-7.2-23.6v-.4l.4-.2h.2l20.3 14.2a5.2 5.2 0 0 0 6 0l20-14.1.2-.1m0-3c-.6 0-1.3.2-1.9.6L47 55.8a2.3 2.3 0 0 1-2.6 0L24 41.7a3 3 0 0 0-1.9-.7c-2 0-4 2-3.2 4.4L26 69.1c.2.9 0 1.9-.8 2.4l-19.6 15c-2.5 2-1.2 6 2 6l24.6.6c1 0 1.8.6 2.1 1.5l8.2 23.3a3.3 3.3 0 0 0 3.1 2.3c1.4 0 2.7-.8 3.2-2.3l8-23.3c.3-1 1.2-1.5 2.1-1.6l24.6-.5c3.2 0 4.5-4.1 2-6l-19.7-15c-.7-.6-1-1.5-.8-2.4l7-23.7a3.4 3.4 0 0 0-3-4.4z" fill="#424242" opacity=".2"/><linearGradient id="b" x1="71.7" x2="124" y1="42.6" y2="42.6" gradientUnits="userSpaceOnUse"><stop stop-color="#FBC02D" offset="0"/><stop stop-color="#FFEB3B" offset="1"/></linearGradient><path d="M77.6 38.4l-5.9 24.9S108 29.2 124 21.9c0 0-22.7.2-46.4 16.5z" fill="url(#b)"/><linearGradient id="c" x1="26.1" x2="104.8" y1="29.3" y2="29.3" gradientUnits="userSpaceOnUse"><stop stop-color="#FBC02D" offset="0"/><stop stop-color="#FFEB3B" offset="1"/></linearGradient><path d="M26 39.1L40.3 48s38.2-32 64.6-36.6c0 0-42.7-7.6-78.7 27.7z" fill="url(#c)"/><linearGradient id="d" x1="78.9" x2="120.8" y1="64.1" y2="64.1" gradientUnits="userSpaceOnUse"><stop stop-color="#FBC02D" offset="0"/><stop stop-color="#FFEB3B" offset="1"/></linearGradient><path d="M78.9 75.4l11 9.1s20.4-32.3 31-40.8c0 0-27.1 6.3-42 31.7z" fill="url(#d)"/><path d="M110 27a431 431 0 0 0-33.2 27.6l3.5-14.4A95.2 95.2 0 0 1 110 27m13.9-5zm0-.1s-22.7.2-46.4 16.5l-5.9 24.9S108 29.2 124 21.9zM87.4 14C67.1 23 46 39.3 40 44.3l-9-5.7A94.2 94.2 0 0 1 87.4 14m7-3.2a97.2 97.2 0 0 0-68.3 28.4L40 48s38.3-32 64.7-36.6c0 0-4-.7-10.3-.7zm15.4 40.3a377 377 0 0 0-20.7 29l-6.4-5.4a68 68 0 0 1 27.1-23.6m11-7.1zm0-.3s-27 6.4-42 31.7l11 9.2s20.5-32.4 31-40.9z" fill="#424242" opacity=".2"/></svg>