<svg viewBox="0 0 128 128" xmlns="http://www.w3.org/2000/svg" xmlns:xlink="http://www.w3.org/1999/xlink"><defs><path id="a" d="M4 4h120v120H4z"/></defs><clipPath id="b"><use xlink:href="#a"/></clipPath><path d="M62.7 63.4L59.4 57l9.2-1.2a22 22 0 0 0 8.3-2.7l2.7-1.6-1.6 2.2a22.3 22.3 0 0 1-10.2 8l-5 1.8z" clip-path="url(#b)" fill="#42A5F5"/><g clip-path="url(#b)"><radialGradient id="c" cx="-256.1" cy="-22.2" r="180.6" gradientTransform="matrix(-1 0 0 1 -244 0)" gradientUnits="userSpaceOnUse"><stop stop-color="#E3F2FD" offset=".3"/><stop stop-color="#90CAF9" offset=".9"/></radialGradient><path d="M-54.3 61.8c-1-3.5-.3-80.6 36.3-66.3 34.8 13.6 37.1 10 64.8 10 9.5 0 25.8 9.2 29 27 2.7 14.3-7.6 23.6-4.9 28 2.4 3.8 5.9 5.7 8.2 7.4 2.7 2 4.7 3.7 3.8 6.2-1.5 4.2-4.5 3.2-4.9 6-.3 3 2 .4 2.9 3.3 1.3 4.2-4 5.3-4.1 6.3-.4 2.4 2.7 3.4 1.5 5.6-1.8 3.7-5.4 1.5-6 3.4-.6 2.8 1.7 6.2-.5 9.5-8.4 13.2-26.1 2.7-38.3 2.8-11.7 0-7.5 17-53 17-10.3 0-19-10-22.7-19a22 22 0 0 1-10.3 1.1A22.5 22.5 0 0 1-72 88.4c-.2-12.5 16.8-26.7 17.7-26.6z" fill="url(#c)"/></g><path d="M40.8 64.7s9.2.3 14.1-1.1c6-1.8 11-7.1 11-7.1S62 66.3 56.5 68s-15.6-3.4-15.6-3.4z" clip-path="url(#b)" fill="#42A5F5"/><g clip-path="url(#b)" opacity=".2"><path d="M-107.3-18.1c2.3 0 4.8.5 7.5 1.6C-76.6-7.6-67.5-6-56-6c2.6 0 5.3 0 8.4-.2 3.9-.1 8.3-.3 13.6-.3A30 30 0 0 1-7.8 18.3a30.4 30.4 0 0 1-3.3 18c-1.7 4.2-3.3 7.8-1.3 11 2.6 4.2 5.7 6.8 7.9 8.7 1 1 2.5 2.2 2.6 2.6v.3c-.5 1.1-.9 1.3-2 1.7-1.1.4-2.8 1-4 3-1 1.6-.3 3.5.3 5.1l.6 1.9-1.2 1.2c-.9.8-2 1.7-2 3.4 0 .8.3 1.6.6 2.6l.3 1-.3.6-.3.1c-.7.3-2.5 1-3 3.3-.6 2.1.2 4 .8 5.8.7 1.7 1 2.6.6 3.2C-13.8 95.5-17 97-22 97c-3.9 0-8.2-1-12.5-2-4.2-.9-8.6-1.9-12.6-1.9h-.2c-5 0-7.9 2.6-10.9 5.3-5.2 4.7-13 11.7-42 11.7-8.5 0-16.5-8.6-20-17.1a3 3 0 0 0-3.8-1.7 19 19 0 0 1-9 1 19.4 19.4 0 0 1-16.8-18.8c-.1-9.9 13.4-22.2 15.8-23.7a3 3 0 0 0 1.9-3.6c-.7-4 .1-42.8 13-58.2a15 15 0 0 1 11.8-6.1m0-3c-28.1 0-28.7 64.9-27.7 68-1 0-18 14.2-17.8 26.6a22.5 22.5 0 0 0 22.3 22c2.7 0 5.2-.5 7.5-1.4 3.7 9 12.5 19 22.8 19 45.5 0 41.2-16.8 53-17h.1c7.5 0 17 4 25 4 5.2 0 9.9-1.6 13.1-6.7 2.2-3.4-1.7-7.1-1-10 .5-1.8 2.8-.3 3.7-4.3.2-.8-.9-3.2-.9-4 0-.7 3.2-2.3 3.2-4.4.1-1.9-1.9-4.8-1.3-5.7 1.4-2.4 4.6-1 6.1-5.2C2.5 55.3-4.6 54-9.8 45.6c-2.7-4.3 7.5-13.7 5-28C-8.2 0-24.6-9.3-34-9.3c-9.6 0-16.1.5-22 .5-11.1 0-20-1.5-42.7-10.4-3.1-1.2-6-1.8-8.6-1.8z" fill="#424242"/></g><g clip-path="url(#b)" opacity=".2"><path d="M-26.5-4.3c2.4 0 5 .6 7.8 1.7 23 9 32 10.5 43.4 10.5l8.5-.1c3.8-.2 8.2-.3 13.6-.3 9.2 0 24.1 9 27.1 25.4a30.9 30.9 0 0 1-3.3 18.6c-1.7 4-3 7.3-1.4 10 2.2 3.5 5.2 5.6 7.4 7l1.3 1c3 2.2 3.4 3 3 3.9-.5 1.6-1.2 2-2.1 2.6-1 .7-2.5 1.6-2.7 3.8-.3 2.3.6 3.6 2.6 4h.2v.2c.4 1.2 0 1.8-2 3-1 .6-1.9 1.2-2.1 2.4-.3 2 .6 3.3 1.3 4.2l.5.7v.1c-.6 1-1.2 1.2-2.5 1.3-1 .1-3.1.3-3.7 2.5-.4 1.5-.1 3 0 4.4.3 1.7.6 3.1-.3 4.5-2.5 4-6 5.8-11.4 5.8-4 0-8.4-1-12.6-2-4.4-1-8.6-1.9-12.5-1.9h-.1c-4.8 0-7.3 2.4-10.3 5-5.3 4.8-13.3 12-42.7 12-9 0-17.3-9-20.9-17.8a2 2 0 0 0-2.5-1.1 20 20 0 0 1-9.4 1A20.4 20.4 0 0 1-70 88.3c-.2-10.6 14-23.2 16.3-24.6a2 2 0 0 0 1.3-2.4c-.7-3.3 0-42.7 13-58.8 3.7-4.6 7.9-6.8 12.9-6.8m0-2c-28.2 0-28.7 65-27.8 68.1-1 0-17.9 14.1-17.7 26.6a22.5 22.5 0 0 0 22.3 21.9c2.6 0 5.1-.5 7.5-1.3 3.7 9 12.4 19 22.7 19 45.5 0 41.2-17 53-17h.2c7.4 0 16.9 3.9 25 3.9 5.2 0 9.8-1.6 13-6.7 2.2-3.3 0-6.7.7-9.5.4-2 4 .3 6-3.4 1-2.2-2-3.2-1.6-5.6.1-1 5.4-2 4-6.3-.9-2.9-3.2-.3-2.8-3.4.4-2.7 3.3-1.8 4.9-6 .8-2.4-1.1-4.1-3.9-6.2-2.2-1.6-5.7-3.5-8-7.3-2.8-4.4 7.4-13.7 4.8-28-3.2-17.8-19.5-27-29-27-9.6 0-16.2.4-22 .4C13.5 6 4.7 4.4-18-4.5a24 24 0 0 0-8.5-1.8z" fill="#424242"/></g><g clip-path="url(#b)"><path d="M62.7 75.3c-.6.6-.8 1.8-.4 2.3 1.6 2.1 3 6 2.6 10.6-.3 5.4-4.8 7.6-7.2 9.4-1.4 1-.8 2.1-.1 2.8s2.3 0 2.9-.3c4-2.2 8.3-7.3 8.2-12.6 0-4.2-1.6-10.8-4-12.2-.4-.3-2 0-2 0z" fill="#90CAF9"/></g><path d="M85.7 85.2c8 0 17.2-1 22.8-7.2 3.6-4 5.5-8.7 4.6-14.1-.8-4.5-3.7-8.2-8.6-7.4-6 1-7.6 8-3.5 12 1.4 1.5 3.5-.7 2.1-2-5-5 4.3-10.4 6.7-3.8.8 2.3.8 5.3 0 7.6-3.3 10-14.9 12-24 12-2 0-2 3 0 3zm-1.2 10.1c8.7.3 22.2 2.5 25.4 12.3.7 2 .6 4.8 0 7-2.2 7-11.9 1.7-6.8-3.4 1.4-1.4-.8-3.5-2.1-2.2-3.9 4-2.8 10.7 3 12 4.9 1 8.1-2.2 9-6.9 3.1-15.8-16.4-21.3-28.5-21.9-1.9 0-1.9 3 0 3z" fill="#90CAF9"/><path d="M85.3 90.5c7.5-.7 15.2-1.4 22.8-1 2.1.1 6.1 0 8 1.5 4 3.2-3.7 6-5.7 2.5-1-1.7-3.5-.2-2.6 1.5 3.4 5.9 16.4 2.6 12-4.6-1.9-3.3-7.4-3.6-10.8-3.8-7.8-.6-16 .2-23.7.9-2 .1-2 3.1 0 3z" fill="#90CAF9"/></svg>