<svg viewBox="0 0 128 128" xmlns="http://www.w3.org/2000/svg" xmlns:xlink="http://www.w3.org/1999/xlink"><defs><path id="a" d="M4 4h120v120H4z"/></defs><clipPath id="b"><use xlink:href="#a"/></clipPath><path clip-path="url(#b)" fill="#BDBDBD" d="M4 4h120v120H4z"/><g clip-path="url(#b)"><linearGradient id="c" x1="55.1" x2="55.1" y1="-.3" y2="42" gradientTransform="matrix(-.999 .0437 .0387 .885 90.9 -3)" gradientUnits="userSpaceOnUse"><stop stop-color="#E0E0E0" offset=".3"/><stop stop-color="#9E9E9E" offset=".9"/></linearGradient><path d="M7.3 23.2h1.4C8.3 22.2 8 21 8 20c-.3-6.6 5.5-12.2 13-12.5 3-.2 6 .7 8.4 2.2 2.8-5.3 8.8-9.2 16-9.5 10-.4 18.7 6.5 19 15.6v1c7.8.4 14 6 14.3 13 .3 7.5-9 13.5-39 14.8S-3.8 40.1-4 34.3c-.3-5.8 4.8-10.8 11.4-11z" fill="url(#c)"/></g><g clip-path="url(#b)"><linearGradient id="d" x1="86.4" x2="86.4" y1="8.1" y2="64.3" gradientTransform="matrix(.999 .0437 -.0387 .885 1.7 -3)" gradientUnits="userSpaceOnUse"><stop stop-color="#E0E0E0" offset=".3"/><stop stop-color="#9E9E9E" offset=".9"/></linearGradient><path d="M125.4 30.4h-1.8c.5-1.4.9-2.9 1-4.4.3-8.6-7.3-16-17-16.4-4.2-.2-8 1-11.1 3-3.8-7-11.6-12-21-12.5-13.3-.5-24.5 8.6-25 20.4v1.3c-10.1.6-18.3 7.9-18.7 17-.4 10 11.9 17.9 51 19.6 39.2 1.7 57.3-5.8 57.6-13.5.4-7.6-6.4-14.1-15-14.5z" fill="url(#d)"/></g><g clip-path="url(#b)"><linearGradient id="e" x1="27.2" x2="27.2" y1="36" y2="78.8" gradientTransform="matrix(.999 .0437 -.0387 .885 1.7 -3)" gradientUnits="userSpaceOnUse"><stop stop-color="#E0E0E0" offset=".3"/><stop stop-color="#9E9E9E" offset=".9"/></linearGradient><path d="M56.2 47.2h-1.4c.4-1 .7-2.2.7-3.3.3-6.6-5.5-12.2-12.9-12.5-3.2-.2-6 .7-8.5 2.2A18.9 18.9 0 0 0 18.2 24C8 23.7-.5 30.7-.9 39.7v1c-7.8.4-14 6-14.3 13-.3 7.5 9.1 13.5 39 14.8s43.6-4.4 43.9-10.2c.2-5.8-4.9-10.8-11.5-11z" fill="url(#e)"/></g><g clip-path="url(#b)"><linearGradient id="f" x1="123.7" x2="123.7" y1="74.2" y2="117" gradientTransform="matrix(.999 .0437 -.0387 .885 1.7 -3)" gradientUnits="userSpaceOnUse"><stop stop-color="#E0E0E0" offset=".3"/><stop stop-color="#9E9E9E" offset=".9"/></linearGradient><path d="M151.2 85.2h-1.4c.4-1 .7-2.2.7-3.3.3-6.6-5.5-12.2-12.9-12.5-3.1-.2-6 .7-8.5 2.2a18.9 18.9 0 0 0-15.9-9.5c-10.2-.4-18.7 6.5-19.1 15.6v1c-7.8.4-14 6-14.3 13-.3 7.5 9.1 13.5 39 14.8s43.6-4.4 43.9-10.2c.2-5.9-4.9-10.8-11.5-11z" fill="url(#f)"/></g><ellipse cx="88.3" cy="60.7" rx="30" ry="27" clip-path="url(#b)" fill="#eee"/><circle cx="47.7" cy="58.3" r="29" clip-path="url(#b)" fill="#eee"/><linearGradient id="g" x1="58.2" x2="58.2" y1="50" y2="125.5" gradientUnits="userSpaceOnUse"><stop stop-color="#E0E0E0" offset=".3"/><stop stop-color="#9E9E9E" offset=".9"/></linearGradient><path d="M88.2 73.4c-3.4 0-6.8.5-9.9 1.4-1.4-13-13.3-23.1-27.8-23.1-9.3 0-17.6 4.2-22.7 10.7l-3.3-.1C8.7 62.3-4 74-4 88.6s12.8 26.3 28.6 26.3c10 0 18.9-4.7 24-12a34.1 34.1 0 0 0 7.5-.4v.5c0 16.4 14.4 29.7 32.2 29.7s32.2-13.3 32.2-29.7c0-16.3-14.4-29.6-32.2-29.6z" clip-path="url(#b)" fill="url(#g)"/><circle cx="37.1" cy="130.3" r="27.8" clip-path="url(#b)" fill="#E0E0E0"/><ellipse transform="rotate(-85.6 71.5 113.4)" cx="71.5" cy="113.4" rx="25.6" ry="32.6" clip-path="url(#b)" fill="#E0E0E0"/><circle cx="111.1" cy="128.9" r="26.1" clip-path="url(#b)" fill="#E0E0E0"/><path d="M121 7v114H7V7h114m3-3H4v120h120V4z" fill="#424242" opacity=".2"/></svg>