<svg viewBox="0 0 128 128" xmlns="http://www.w3.org/2000/svg"><linearGradient id="a" x1="44.7" x2="114.6" y1="99.1" y2="99.1" gradientTransform="rotate(133.4 70.2 91.4)" gradientUnits="userSpaceOnUse"><stop stop-color="#8A0032" offset="0"/><stop stop-color="#8E0034" offset=".2"/><stop stop-color="#FF005D" offset=".4"/><stop stop-color="#FF1368" offset=".4"/><stop stop-color="#FF4C87" offset=".6"/><stop stop-color="#FF7CA2" offset=".7"/><stop stop-color="#FFA1B6" offset=".8"/><stop stop-color="#FFBBC5" offset=".9"/><stop stop-color="#FFCBCE" offset=".9"/><stop stop-color="#FFD1D1" offset="1"/></linearGradient><path d="M35.1 81.2c-10.9 8.3-20.7 31.4.5 33.2 3.7.3 2.4 2 6 3.8 3.9 2 3.7-.8 7 1.5C76.3 139.4 89 72.3 76.4 62.1c-9.5-7.7-42 19.6-41.3 19.1z" fill="url(#a)"/><linearGradient id="b" x1="51" x2="116.3" y1="126.9" y2="126.9" gradientTransform="rotate(-159.8 53.3 102.9)" gradientUnits="userSpaceOnUse"><stop stop-color="#8A0032" offset="0"/><stop stop-color="#FF005D" offset=".4"/><stop stop-color="#FF1368" offset=".4"/><stop stop-color="#FF4C87" offset=".6"/><stop stop-color="#FF7CA2" offset=".7"/><stop stop-color="#FFA1B6" offset=".8"/><stop stop-color="#FFBBC5" offset=".9"/><stop stop-color="#FFCBCE" offset=".9"/><stop stop-color="#FFD1D1" offset="1"/></linearGradient><path d="M37.1 44.7C25.1 37.9.1 37.9 6.8 58c1.2 3.6-.9 3-1.2 7-.3 4.5 1 3.1 1.4 7.1 4.7 40.8 52.4 10 61.5-4.3 6.3-9.9-32.1-23.7-31.4-23.2z" fill="url(#b)"/><linearGradient id="c" x1="50.8" x2="114.9" y1="169.5" y2="169.5" gradientTransform="matrix(-.0948 -.9955 1.045 -.0996 -114.8 136.4)" gradientUnits="userSpaceOnUse"><stop stop-color="#8A0032" offset="0"/><stop stop-color="#FF005D" offset=".3"/><stop stop-color="#FF1368" offset=".3"/><stop stop-color="#FF4C87" offset=".5"/><stop stop-color="#FF7CA2" offset=".6"/><stop stop-color="#FFA1B6" offset=".7"/><stop stop-color="#FFBBC5" offset=".8"/><stop stop-color="#FFCBCE" offset=".9"/><stop stop-color="#FFD1D1" offset="1"/></linearGradient><path d="M52.2 8.5c-2.6 2.6-3.1.5-6.9 2-4 1.5-1.8 3.2-5.7 4-33 7.7 5.3 61 32.7 52.7 22.2-6.7 3-81.2-20.1-58.7z" fill="url(#c)"/><path d="M48.8 48.4c17.6 8.5 26.7 21.2 23.5 23.4-3.8 2.6-3.5-8.8-23.5-23.4z" fill="#F8BBD0"/><path d="M56.7 60c1.1-.5 1.6-1.8 1-3s-1.8-1.7-3-1.2c-1.1.6-1.6 2-1 3.1.5 1.2 1.9 1.7 3 1.2z" fill="#FFD54F"/><path d="M52 56.7c1.2-.6 1.7-2 1.1-3.1s-1.9-1.7-3-1.2c-1.2.6-1.7 2-1.1 3.1s2 1.7 3 1.2z" fill="#FFECB3"/><path d="M63.8 54.8c1-.5 1.6-2 1-3s-1.9-1.8-3-1.2a2.1 2.1 0 0 0-1.1 3c.5 1.2 2 1.7 3 1.2z" fill="#FFD54F"/><path d="M59 52c1.1-.5 1.6-1.9 1-3s-1.9-1.7-3-1.2-1.6 1.9-1 3 1.8 1.8 3 1.2z" fill="#FFECB3"/><path d="M54.2 48.3c1.1-.5 1.6-1.9 1-3s-1.9-1.7-3-1.2-1.6 2-1 3c.5 1.3 1.8 1.8 3 1.2z" fill="#FFD54F"/><path d="M49.8 45c1.2-.5 1.6-1.8 1-3s-1.8-1.7-3-1.2c-1.1.6-1.6 2-1 3.1s1.9 1.7 3 1.2zm-4.6 2.4c1.1-.5 1.6-2 1-3s-1.9-1.8-3-1.2c-1.2.5-1.6 1.9-1 3s1.8 1.7 3 1.2z" fill="#AD1457"/><ellipse transform="rotate(-25.2 46.5 50.9)" cx="46.5" cy="50.9" rx="2.3" ry="2.3" fill="#AD1457"/><linearGradient id="d" x1="71" x2="124.4" y1="75.8" y2="75.8" gradientTransform="matrix(.6472 .8476 -.7948 .6069 91.6 -42.8)" gradientUnits="userSpaceOnUse"><stop stop-color="#FF005D" offset="0"/><stop stop-color="#FF0962" offset="0"/><stop stop-color="#FF3D7F" offset=".2"/><stop stop-color="#FF6B98" offset=".3"/><stop stop-color="#FF90AD" offset=".4"/><stop stop-color="#FFACBD" offset=".6"/><stop stop-color="#FFC1C8" offset=".7"/><stop stop-color="#FFCDCF" offset=".9"/><stop stop-color="#FFD1D1" offset="1"/></linearGradient><path d="M107.4 111.9c3.6-1.7 5.7-5.6 7.7-9.5 2.3-4.3-.4-4.2 2.6-7.3C143.1 69 84.3 55 72.2 67.5c-4.3 4.4-3.8 20.2-.2 29.4 6.9 17.6 11.3 26.1 35.4 15z" fill="url(#d)"/><linearGradient id="e" x1="78.1" x2="116.9" y1="65.1" y2="30.3" gradientUnits="userSpaceOnUse"><stop stop-color="#FF005D" offset="0"/><stop stop-color="#FF1468" offset="0"/><stop stop-color="#FF4684" offset=".2"/><stop stop-color="#FF719C" offset=".3"/><stop stop-color="#FF93AF" offset=".4"/><stop stop-color="#FFAFBE" offset=".6"/><stop stop-color="#FFC2C9" offset=".7"/><stop stop-color="#FFCDCF" offset=".9"/><stop stop-color="#FFD1D1" offset="1"/></linearGradient><path d="M123.7 42c-.8-4.4-4.2-4.6-5-9.4-.8-4.8-4.4-1.4-7-4.9C89.7-1 62.2 51.2 73.5 65.9c9.1 11.7 56.2 9.2 50.2-24z" fill="url(#e)"/><path d="M61.1 7.5c6.2 0 13 9.8 16.3 23.9a3 3 0 0 0 3 2.3 3 3 0 0 0 2.4-1.3c4.7-6.4 10-10 15-10 4 0 8 2.4 11.7 7.3 2 2.6 4.3 2.9 5.8 3l.5.2.1.4c.6 3.3 2.1 5 3.3 6.4.9 1 1.4 1.6 1.7 3 2.3 13-4.5 19.5-10.6 22.7-1 .6-1.7 1.6-1.6 2.8s.7 2.1 1.7 2.6c6.2 2.9 10 6.7 10.7 10.6.6 3.5-1.2 7.5-5.3 11.7-2.3 2.4-2.5 4-2.4 5.5 0 .7 0 1.2-.8 2.6v.2c-1.9 3.4-3.6 6.7-6.3 8a41.5 41.5 0 0 1-16 4.7c-5 0-8.1-2.4-11.4-8.9a3 3 0 0 0-2.7-1.7 3 3 0 0 0-2.7 2c-2.3 5.5-7.3 15-15 15-2.4 0-5.1-1-8-3a7 7 0 0 0-4.1-1.6 7 7 0 0 0-1.5.2l-.5.1-1.3-.4c-1-.6-1.3-1-1.7-1.5-1-1.3-2.3-2.4-5.4-2.7-4.5-.4-7.5-1.8-8.8-4.3-1.7-3-1-8 1.7-13.2.4-1 .4-2.1-.2-3a3 3 0 0 0-2.5-1.4h-.4c-9.2 0-14.3-5.8-15.6-17.7A11 11 0 0 0 9 68c-.2-.5-.3-.8-.2-2.5 0-1 .3-1.6.6-2.2.8-1.4 1.4-3 .4-6-1.4-4.1-1.3-7.4.3-9.6 1.8-2.5 5.8-3.9 11-3.9a32.8 32.8 0 0 1 9.5 1.3 3 3 0 0 0 2.7-4.4C29.8 34.3 29 28.4 31 24.2c1.5-3.2 4.7-5.3 9.4-6.4 3-.7 4-2 4.7-3.3.3-.4.4-.6 1.5-1 .8-.3 1.4-.3 1.8-.3h1.1c1.9 0 3.4-.7 5-2.3C56.8 8.6 59 7.5 61 7.5m0-3c-2.8 0-5.7 1.2-8.7 4.2-1.3 1.2-2 1.4-2.9 1.4h-1a8 8 0 0 0-3 .5c-4 1.6-1.8 3.2-5.7 4.1-14.6 3.4-15.3 15.5-9.2 27.4-3.1-.8-6.4-1.3-9.5-1.3-9.9 0-18.4 4.7-14.1 17.5 1.1 3.5-1 3-1.2 7-.3 4.4 1 3 1.4 7 1.7 15 9.3 20.4 18.6 20.4h.4c-5 9.6-4.9 20.6 9.6 21.9 3.7.3 2.4 2 6 3.8 1.1.6 2 .8 2.6.8.8 0 1.3-.3 2-.3.6 0 1.3.2 2.4 1a17 17 0 0 0 9.7 3.6c7.8 0 13.8-7.3 17.7-17 3.3 6.6 7.1 10.6 14 10.6a44 44 0 0 0 17.4-5c3.6-1.7 5.6-5.6 7.7-9.5 2.3-4.4-.4-4.3 2.6-7.4 11.8-12.1 5.3-21.7-6.3-27 8.7-4.6 14.6-13 12.2-26-.8-4.5-4.1-4.6-5-9.4-.7-4.8-4.3-1.4-7-5-4.6-6-9.4-8.4-14-8.4-6.5 0-12.7 4.7-17.5 11.3C77 16.8 69.8 4.5 61.1 4.5z" fill="#424242" opacity=".2"/></svg>