<svg viewBox="0 0 128 128" xmlns="http://www.w3.org/2000/svg"><radialGradient id="a" cx="47.576" cy="62.554" r="62.384" gradientUnits="userSpaceOnUse"><stop stop-color="#BA6959" offset=".049"/><stop stop-color="#B76656" offset=".078"/><stop stop-color="#8A4133" offset=".489"/><stop stop-color="#6F2A1D" offset=".809"/><stop stop-color="#652115" offset=".995"/></radialGradient><path d="M119.26 78.74C117.75 42 90.4 37.11 77.75 28.25 70.25 23 66.92 11.83 63.33 12.17c-3.58.33-6.08 13.33-25.08 23.33-17.6 9.26-35.86 22.9-27.75 56.17.79 3.22 1.83 6.11 3.07 8.71 33.93 19.12 72.35 9.34 104.12-7.35 1.2-4.22 1.79-8.97 1.57-14.29z" fill="url(#a)"/><linearGradient id="b" x1="65.631" x2="65.631" y1="102.75" y2="122.25" gradientUnits="userSpaceOnUse"><stop stop-color="#69452B" offset="0"/><stop stop-color="#7B563C" offset=".193"/><stop stop-color="#AA8267" offset=".577"/><stop stop-color="#D6AC90" offset=".906"/></linearGradient><path d="M13.57 100.38c11.6 24.28 41.23 23.15 53.66 23.96 11.84.77 43.01-5.24 50.46-31.31C101.81 101.37 82 95 66 106.25c-14.59 10.26-35.47-2.47-52.43-5.87z" fill="url(#b)"/><path d="M63.56 15.51c.79.86 1.97 2.67 2.88 4.06 2.36 3.62 5.3 8.13 9.59 11.14 2.74 1.92 6.05 3.62 9.55 5.42 13.17 6.78 29.55 15.21 30.68 42.73.2 4.77-.29 9.26-1.46 13.34-6.84 23.95-35.16 29.2-45.49 29.2-.67 0-1.31-.02-1.89-.06-1.2-.08-2.55-.14-3.98-.2-14-.63-37.43-1.68-47.16-22.06-1.23-2.58-2.19-5.3-2.86-8.11-3.42-14.38-2.23-25.68 3.63-34.55 5.47-8.27 14.56-13.78 22.66-18.3 12.74-7.11 18.45-15.14 21.86-19.95.66-.93 1.44-2.02 1.99-2.66m-.07-3.35c-.05 0-.1 0-.16.01-3.58.33-6.33 12.87-25.08 23.33C20.05 45.65 2.5 58 10.5 91.67c.77 3.23 1.83 6.11 3.07 8.71 11.6 24.28 41.23 23.15 53.66 23.96.64.04 1.34.06 2.09.06 13.06 0 41.33-6.71 48.37-31.38 1.2-4.22 1.79-8.96 1.57-14.28C117.75 42 90.4 37.11 77.75 28.25c-7.39-5.17-10.73-16.09-14.26-16.09z" fill="#eee" opacity=".2"/><path d="M91.07 44.92s.21.05.58.17c.37.13.93.28 1.59.55.33.13.71.26 1.11.44.41.18.81.42 1.27.66.46.25.94.52 1.45.8.5.3.97.65 1.49 1 .51.36 1.05.74 1.57 1.17s1.03.9 1.58 1.38c.55.47 1.05 1.01 1.57 1.56s1.03 1.13 1.54 1.73c.96 1.24 1.98 2.53 2.79 3.96.92 1.38 1.6 2.92 2.35 4.43.6 1.57 1.27 3.12 1.66 4.73.5 1.58.76 3.19 1.02 4.74.1.78.18 1.55.23 2.31.05.75.12 1.49.08 2.21-.02.72-.02 1.42-.05 2.09-.04.67-.13 1.33-.21 1.95-.1.62-.15 1.21-.27 1.77-.14.56-.27 1.09-.39 1.58-.22.98-.52 1.83-.8 2.51-.25.69-.52 1.21-.67 1.57-.16.36-.27.54-.27.54l-.5-.04s.02-.77.06-2.12c.04-.67.01-1.49-.03-2.43-.02-.47-.04-.97-.06-1.49-.05-.52-.09-1.07-.14-1.65-.06-.57-.09-1.17-.17-1.79-.09-.61-.19-1.25-.29-1.9-.08-.66-.22-1.32-.37-2s-.28-1.37-.46-2.07c-.39-1.39-.75-2.83-1.28-4.25-.45-1.44-1.09-2.84-1.66-4.27-.66-1.38-1.26-2.8-2.02-4.11-.68-1.35-1.51-2.59-2.26-3.82-.4-.6-.82-1.17-1.21-1.74s-.79-1.12-1.22-1.63c-.41-.51-.82-1.02-1.2-1.5-.39-.48-.82-.91-1.2-1.34-.39-.43-.76-.83-1.12-1.22l-1.05-1.05c-.66-.66-1.24-1.24-1.77-1.67-1.02-.89-1.61-1.4-1.61-1.4l.34-.36z" fill="#42210B" opacity=".63"/><path d="M74.07 39.31s.22.06.61.19c.38.14.98.32 1.67.62.35.15.74.29 1.16.48.43.2.85.46 1.33.72.48.27.99.56 1.52.87.52.32 1.02.7 1.57 1.08.54.39 1.1.8 1.65 1.25.54.46 1.08.97 1.66 1.48.58.5 1.11 1.08 1.65 1.67.55.58 1.09 1.2 1.62 1.84 1.01 1.32 2.08 2.69 2.94 4.21.97 1.47 1.69 3.1 2.48 4.7.64 1.66 1.34 3.3 1.77 5.01.53 1.67.82 3.38 1.1 5.02.11.83.2 1.64.26 2.44s.14 1.57.11 2.34c-.01.77-.01 1.5-.04 2.22-.04.71-.12 1.41-.2 2.06-.09.66-.15 1.29-.27 1.88-.14.59-.27 1.15-.39 1.68-.13.52-.22 1.01-.37 1.45-.14.45-.3.85-.43 1.22-.25.73-.52 1.29-.68 1.67-.17.38-.27.58-.27.58l-.5-.04s.02-.82.06-2.26c.04-.72.02-1.59-.03-2.59-.02-.5-.04-1.03-.06-1.59-.05-.56-.1-1.14-.15-1.76-.06-.61-.09-1.25-.19-1.91-.1-.65-.2-1.33-.31-2.03-.09-.7-.23-1.41-.4-2.13-.16-.72-.3-1.46-.49-2.21-.42-1.48-.8-3.02-1.36-4.53-.48-1.54-1.16-3.03-1.77-4.55-.7-1.47-1.34-2.98-2.15-4.38-.73-1.44-1.61-2.76-2.41-4.07-.42-.64-.87-1.25-1.29-1.85-.42-.61-.84-1.19-1.3-1.73-.44-.55-.87-1.08-1.28-1.6-.42-.51-.87-.97-1.28-1.43-.41-.45-.81-.89-1.19-1.3-.4-.39-.77-.77-1.13-1.12-.7-.71-1.32-1.31-1.88-1.77l-1.71-1.49.37-.34z" fill="#42210B" opacity=".57"/><path d="M45.97 41.32s-.13.21-.37.59c-.26.37-.61.95-1.1 1.62-.24.34-.51.72-.81 1.13-.26.41-.54.86-.84 1.34-.29.47-.6.96-.92 1.48-.34.49-.66 1.06-.98 1.66-.66 1.18-1.36 2.43-2 3.81-.72 1.33-1.23 2.84-1.91 4.31-.35.73-.54 1.55-.83 2.33-.26.79-.55 1.58-.77 2.41-.23.82-.47 1.64-.7 2.47L34.17 67c-.24.83-.32 1.71-.49 2.55-.07.43-.15.85-.24 1.28-.07.43-.11.86-.17 1.28-.09.86-.24 1.7-.35 2.54-.08.85-.15 1.69-.22 2.51-.11.83-.05 1.64-.14 2.45-.04.8-.14 1.6-.13 2.37.02 1.54-.1 3.02-.05 4.39.02 1.37 0 2.64.05 3.77s.01 2.14.07 2.96c.05.82.03 1.49.05 1.94 0 .46-.01.7-.01.7l-.38.12s-.26-.9-.73-2.48c-.25-.78-.47-1.76-.73-2.87-.13-.56-.27-1.15-.41-1.78-.11-.63-.22-1.3-.34-1.99-.27-1.38-.4-2.91-.57-4.51-.11-.8-.1-1.63-.15-2.48-.02-.85-.12-1.71-.07-2.59.02-.88.03-1.78.05-2.69.04-.91.14-1.82.21-2.75.04-.46.07-.93.13-1.39l.22-1.39c.17-.92.24-1.87.48-2.78.22-.92.44-1.83.66-2.74.26-.9.57-1.78.85-2.67.26-.89.62-1.74.98-2.57.37-.83.66-1.69 1.09-2.46.41-.78.82-1.55 1.21-2.3.37-.77.89-1.43 1.31-2.12.45-.67.84-1.36 1.31-1.96s.92-1.18 1.36-1.73c.82-1.15 1.8-2.03 2.58-2.87.4-.41.76-.81 1.13-1.15.37-.32.72-.62 1.03-.89 1.24-1.07 1.95-1.68 1.95-1.68l.26.3zM24.06 88.52s-.34-.44-.82-1.24c-.25-.39-.53-.89-.79-1.51-.14-.31-.29-.63-.44-.97-.14-.34-.25-.71-.39-1.1a43.1 43.1 0 0 1-.4-1.21c-.12-.42-.2-.86-.31-1.32-.22-.91-.36-1.88-.48-2.89-.07-1.01-.16-2.07-.11-3.13-.01-1.07.14-2.15.24-3.23.2-1.07.35-2.15.66-3.17.23-1.04.65-2.02.98-2.98.37-.95.79-1.84 1.24-2.65.23-.41.43-.81.66-1.18s.49-.72.71-1.05c.24-.33.44-.66.67-.95.24-.28.47-.55.69-.8.41-.51.83-.92 1.18-1.24.7-.65 1.14-.98 1.14-.98l.26.15s-.24.45-.67 1.23c-.22.39-.46.87-.72 1.43-.27.56-.57 1.19-.86 1.89-.32.69-.61 1.46-.9 2.28-.31.81-.56 1.7-.85 2.61-.24.92-.51 1.87-.69 2.85-.23.97-.36 1.98-.52 2.98-.12 1.01-.27 2.01-.32 3.01-.09.99-.09 1.98-.12 2.93.03.95.02 1.87.1 2.74.06.87.13 1.69.24 2.44.09.76.19 1.44.3 2.05.1.61.19 1.14.3 1.58l.3 1.37-.28.06z" fill="#D1A088"/><path d="M76.43 60.87s.15.04.39.12c.24.09.63.2 1.04.4.43.18.95.42 1.51.79.29.18.57.38.88.6.3.22.58.46.89.72.61.51 1.21 1.12 1.8 1.81.6.68 1.13 1.46 1.65 2.29.48.85.99 1.73 1.34 2.7.42.94.67 1.95.96 2.96.19 1.03.41 2.04.45 3.07.1 1.02.06 2.04-.01 3.01-.1.98-.23 1.91-.47 2.79-.22.87-.48 1.69-.81 2.42-.3.73-.65 1.38-1 1.94-.33.56-.69 1.03-1 1.4-.28.38-.58.65-.75.84-.18.19-.3.28-.3.28l-.49-.1s.06-.45.18-1.25c.07-.4.11-.88.15-1.44.05-.56.1-1.18.12-1.87.05-.68.05-1.43.04-2.21.01-.78-.07-1.61-.12-2.46-.1-.85-.17-1.73-.34-2.61-.12-.89-.35-1.78-.54-2.67-.23-.88-.42-1.77-.71-2.63-.24-.87-.57-1.69-.86-2.49-.34-.79-.63-1.56-.99-2.26-.34-.71-.67-1.37-1.02-1.96-.33-.6-.65-1.14-.94-1.61-.28-.48-.54-.89-.78-1.22l-.72-1.05.45-.31z" fill="#42210B" opacity=".57"/></svg>