<svg viewBox="0 0 128 128" xmlns="http://www.w3.org/2000/svg"><linearGradient id="a" x1="64" x2="64" y1="121.3" y2="93.4" gradientUnits="userSpaceOnUse"><stop stop-color="#5D4037" offset="0"/><stop stop-color="#8D6E63" offset="1"/></linearGradient><path d="M56.6 79.9c-1 0-1.8.4-1.7 1 .3 5.4 1.5 31.2-2 36.4a17 17 0 0 1-5.6 5c-1 .6-.2 1.6 1.3 1.6h30.8c1.6 0 2.4-1.1 1.2-1.7-2-1-4.2-2.6-6-5.1-3.3-4.6-3.2-31-3.2-36.5 0-.6-.8-1-1.8-1l-13 .3z" fill="url(#a)"/><path d="M67.8 83.2c-.1 25.1 2 33.5 3.9 36l.8 1H55.2l.7-.8c3.4-5 3.4-21.8 2.7-36l9.2-.2m1.9-3.7h-.1l-13 .4c-1 0-1.8.5-1.7 1 .3 5.4 1.5 31.2-2 36.4a17 17 0 0 1-5.6 5c-1 .6-.2 1.6 1.3 1.6h30.8c1.6 0 2.4-1 1.2-1.7-2-1-4.2-2.6-6-5.1-3.3-4.6-3.2-31-3.2-36.5 0-.6-.8-1-1.7-1z" fill="#424242" opacity=".2"/><linearGradient id="b" x1="55.2" x2="95.9" y1="42.6" y2="97.4" gradientUnits="userSpaceOnUse"><stop stop-color="#9CCC65" offset="0"/><stop stop-color="#689F38" offset="1"/></linearGradient><path d="M57 100c-9.5 0-17.8-6-20.7-15.1-.2-.7-.7-1-1.4-1h-1.7a21 21 0 0 1-20.7-21.4c0-7.3 3.6-14 9.6-18 .5-.4.8-1.1.6-1.7A20.7 20.7 0 0 1 47.5 16c.5 0 1-.3 1.2-.7a20.6 20.6 0 0 1 17.6-9.8c9.1 0 17.3 6 19.8 14.9a1.5 1.5 0 0 0 1.7 1c1.3-.2 2.6-.4 4-.4a20.7 20.7 0 0 1 13 36.7c-.3.2-.5.6-.5 1 0 .5.1 1 .5 1.2a20.7 20.7 0 0 1-14 35.8 21 21 0 0 1-13.9-5.3c-.2-.2-.6-.3-1-.3h-.1c-.5 0-.8.3-1 .6A22 22 0 0 1 57 100z" fill="url(#b)"/><path d="M66.3 7c8.4 0 16 5.7 18.4 13.8a3 3 0 0 0 3.4 2.1 19.2 19.2 0 0 1 15.8 33.6 3 3 0 0 0-1.1 2.2 3 3 0 0 0 1 2.3A19.2 19.2 0 1 1 78 89.3a3 3 0 0 0-2-.7h-.4a3 3 0 0 0-2.1 1.3 20.2 20.2 0 0 1-35.8-5.5 3 3 0 0 0-3-2h-1.5c-10.6 0-19.2-9-19.2-19.9a20 20 0 0 1 8.9-16.7 3 3 0 0 0 1.2-3.5 19.2 19.2 0 0 1 23.3-24.8c1 0 2-.5 2.6-1.4A19 19 0 0 1 66.3 7m0-3c-8 0-15 4.2-18.9 10.5a22.2 22.2 0 0 0-26.2 28.8A23 23 0 0 0 11 62.5a22.5 22.5 0 0 0 23.9 22.8 23.1 23.1 0 0 0 41 6.3 22 22 0 0 0 37-16.5c0-6.4-2.8-12.2-7.1-16.3A22.1 22.1 0 0 0 87.5 20 22.1 22.1 0 0 0 66.3 4z" fill="#689F38"/><path d="M22.5 44.3s7.5-5.7 19.5-5m2.5-12.8s.3-5 4.6-11.8m-.9 64.1s-3.9 3.3-11.8 4.8m30.1 2.2a21.1 21.1 0 0 0 17.2-.2m-4.1-23.7c5.6 1.1 12.9-3 14.9-8.2m-6 6.2c5.2 1.7 12 .6 16.8-2.6M39.7 72.5c3.7 4.8 10.5 7 16.6 5.5" fill="none" stroke="#689F38" stroke-linecap="round" stroke-linejoin="round" stroke-miterlimit="10" stroke-width="3"/></svg>