<svg viewBox="0 0 128 128" xmlns="http://www.w3.org/2000/svg"><linearGradient id="a" x1="61.1" x2="109" y1="49" y2="114.2" gradientTransform="matrix(-1 0 0 1 128 0)" gradientUnits="userSpaceOnUse"><stop stop-color="#A1887F" offset="0"/><stop stop-color="#5D4037" offset="1"/></linearGradient><path d="M21.6 112v-.4l-.9-2.5c-1.2-3-2-6.4-2-6.5l2-.6s.9 3.4 2 6.3c.3.4.4.8.5 1.1l.2-.4c1-2 3.4-5.7 6.1-10 2.4-3.5 5-7.5 7.1-11 2.2-3.8 7.1-11.7 11.8-19.1-.6-4-1-10.7-1-11h2s1 4.3 1 7.8l8.4-13.3 2.8 1.8-11.5 18.1c4.6-.8 8-2.1 8.1-2.1l.8 2a48 48 0 0 1-10.4 2.6l-9.1 14.7c-2.2 3.8-4.9 7.8-7.2 11.3l-.2.3 7.8.4v2.1c-3.4 0-8.4-.3-9.2-.4-2 3-3.6 5.7-4.3 7.1-1.7 3.9-9 13.3-9.3 13.7l-2.6-2c1.5-2 5-6.5 7.1-10z" fill="url(#a)"/><linearGradient id="b" x1="32.2" x2="72.4" y1="30.5" y2="30.5" gradientTransform="matrix(-1 0 0 1 128 0)" gradientUnits="userSpaceOnUse"><stop stop-color="#689F38" offset="0"/><stop stop-color="#9CCC65" offset="1"/></linearGradient><path d="M95.7 4.1s1.6 13-3.7 25.4c-6.2 14.3-17.1 25.8-30.1 27.3-13 1.6-2.6-22.6 5.1-33.3C73 15.3 83.2 7 95.7 4.1z" fill="url(#b)"/><path d="M92.6 8.4c0 4.5-.4 12.3-3.6 19.8-6.4 14.6-16.6 24.1-27.5 25.4h-.7c-1.2 0-1.3-.3-1.4-.5-2-3.8 3.3-18 10.3-27.7 5.6-7.8 14-14 23-17m3-4.3A50.4 50.4 0 0 0 67 23.5c-7.4 10.4-17.5 33.4-6.2 33.4h1c13-1.6 24-13 30.2-27.4 5.3-12.3 3.7-25.4 3.7-25.4z" fill="#424242" opacity=".2"/><linearGradient id="c" x1="73" x2="98.8" y1="31.6" y2="31.6" gradientTransform="matrix(-1 0 0 1 128 0)" gradientUnits="userSpaceOnUse"><stop stop-color="#689F38" offset="0"/><stop stop-color="#9CCC65" offset="1"/></linearGradient><path d="M29.6 4s-4.3 55.3 19 55.3c10 0 11.7-39-19-55.3z" fill="url(#c)"/><path d="M32.6 9.6a45 45 0 0 1 16 19.9A38 38 0 0 1 51 51.6c-.8 3.3-2 4.4-2.4 4.4-3 0-5.4-1.1-7.5-3.4-7.8-8.5-9-30.5-8.6-43m-3-5.6s-4.3 55.3 19 55.3c10 0 11.7-39-19-55.3z" fill="#424242" opacity=".2"/><linearGradient id="d" x1="4.2" x2="70.2" y1="66.8" y2="66.8" gradientTransform="matrix(-1 0 0 1 128 0)" gradientUnits="userSpaceOnUse"><stop stop-color="#689F38" offset="0"/><stop stop-color="#9CCC65" offset="1"/></linearGradient><path d="M123.9 58.3S114 71 104.2 75.6c-15 7-33 9.5-44.1 1.2S82.4 38 123.9 58.3z" fill="url(#d)"/><path d="M95.7 51.5v3.3c7.6 0 15.3 1.6 22.9 4.7a57.5 57.5 0 0 1-15.8 13.1A60 60 0 0 1 78 78.7c-6.5 0-11.9-1.5-16-4.5-.3-.4-1.2-1-.5-3 2.2-6.8 15.6-16.4 34.2-16.4v-3.3m0 0c-26.9 0-44 19-35.6 25.3A30 30 0 0 0 78 82c8.5 0 17.8-2.5 26.2-6.4a70 70 0 0 0 19.7-17.3 63.8 63.8 0 0 0-28.2-6.8z" fill="#424242" opacity=".2"/><linearGradient id="e" x1="3.2" x2="69.9" y1="95.6" y2="95.6" gradientTransform="scale(-1 1) rotate(-12.3 32 597.6)" gradientUnits="userSpaceOnUse"><stop stop-color="#689F38" offset="0"/><stop stop-color="#9CCC65" offset="1"/></linearGradient><path d="M105.5 104s-12.5 9.3-23 12.4c-17.6 5.3-48.3 3.5-45-13.8 2.2-11.4 43.8-19 68 1.3z" fill="url(#e)"/><path d="M67.2 94.5a59 59 0 0 1 32.7 9.3 77 77 0 0 1-18.3 9.5 66 66 0 0 1-18 2.5c-10.3 0-18.3-2.4-21.5-6.2a7.2 7.2 0 0 1-1.4-6.3c.7-3.7 11.1-8.8 26.5-8.8m0-3.3c-15.5 0-28.5 5.1-29.7 11.4-2.3 11.9 11.5 16.4 26 16.4 6.7 0 13.5-1 19-2.6a92.2 92.2 0 0 0 23-12.5 59.7 59.7 0 0 0-38.3-12.7z" fill="#424242" opacity=".2"/><linearGradient id="f" x1="97.3" x2="124.2" y1="68.3" y2="68.3" gradientTransform="scale(-1 1) rotate(3.8 46.4 -1878.2)" gradientUnits="userSpaceOnUse"><stop stop-color="#689F38" offset="0"/><stop stop-color="#9CCC65" offset="1"/></linearGradient><path d="M13.9 33.5S6.5 47.3 5 57.8c-2 15.9-1.3 36.4 9.4 44 10.6 7.5 20.3-14.2 15.4-36.4-4-17.9-8.6-20.7-16-31.8z" fill="url(#f)"/><path d="M14.5 41.3l.7.9c4.8 6.5 8 10.8 10.8 24 1.4 6.1 1.6 12.5.7 18.5a28 28 0 0 1-4.6 12.4c-.7.8-2 2.2-3.3 2.2-.6 0-1.3-.3-2-.8C8 92.3 7 73.6 9 58.2c.8-5.5 3.4-12.2 5.5-17m-.6-7.6S6.5 47.2 5 57.7c-2 15.9-1.3 36.4 9.3 44a8 8 0 0 0 4.4 1.5c8.7 0 15.3-18.8 11-38-3.9-17.8-8.5-20.6-16-31.6z" fill="#424242" opacity=".2"/><path d="M48 58l-.3-2.2-.6-5.8-1.4-8-.5-2.3a363 363 0 0 0-1.8-6.8l-1.5-4.5-1.6-4.4A85.3 85.3 0 0 0 33 10.2a35.7 35.7 0 0 1-.2-.6 247.6 247.6 0 0 0 1.4 1.8 75 75 0 0 1 10.5 21 90.9 90.9 0 0 1 2 7l.6 2.2a67.1 67.1 0 0 1 1.7 14V58c-.1.3-.4.5-.7.5-.3 0-.5-.2-.5-.5zM18.6 99.5V80.8a242 242 0 0 0-1.1-21.6 158.4 158.4 0 0 0-2-16l-.7-2.4.1-.2.1.1a83 83 0 0 0 3.8 18.4 424.3 424.3 0 0 1 2 26.7v4.5a91 91 0 0 1-.5 6.7l-.3 2.6c0 .3-.4.6-.8.5a.7.7 0 0 1-.6-.6zm39.1-43.9l1-2.3A116 116 0 0 1 72 30.6 147.5 147.5 0 0 1 84.6 15a53.3 53.3 0 0 1 7-5.7L89.7 11a64.1 64.1 0 0 0-10.4 11.7l-3 4.2-3 4.4a122.3 122.3 0 0 0-5.7 9A536.2 536.2 0 0 0 60 53.8L58.8 56c-.2.3-.5.3-.8.2a.5.5 0 0 1-.2-.7zm2.1 15.6l2.2-1.4a41.3 41.3 0 0 1 6.1-3 59.4 59.4 0 0 1 11.7-4 45.2 45.2 0 0 1 5.4-1.2 64.1 64.1 0 0 1 8.3-1.2 135.3 135.3 0 0 1 15-.7l6.7.2 2.5.1.1.1v.1l-9.4.2a151 151 0 0 0-23 2.7 39.8 39.8 0 0 0-5.2 1.3l-2.5.7-4.7 1.7-4.2 1.6-6.1 2.6-2.3 1c-.3.2-.6.1-.7-.2-.2-.2-.1-.5.1-.6zm-18.6 31.5l2.4-.7 3-.6 3.7-.7a79.7 79.7 0 0 1 14.8-1l5.6.1a243.4 243.4 0 0 1 20.3 1.7 49.3 49.3 0 0 1 8.8 2.7l-.6-.2-1.8-.5c-1.5-.4-3.8-1-6.5-1.3l-9.4-.8c-3.4-.2-7.2-.2-10.8-.2-3.7 0-7.4 0-10.8.3l-5 .5-4.4.5-6.6.8-2.5.4a.6.6 0 0 1-.6-.4c0-.3.1-.6.4-.6z" fill="#689F38"/></svg>