<svg viewBox="0 0 128 128" xmlns="http://www.w3.org/2000/svg"><path d="M67.2 117l.3-3-.8-6.5.2-3.1s.2 0 .2-.2l2.2-1.8-2.1-3.6.8-15.3-7.2.1-.1 17.7-3 3.8 3 1.8-.2 3.4c-.2 0-3.2 3.6-3.2 3.6s2 1.7 3.1 2.4v.6l.7 7h5.6l.2-2.8c.8-.7 2.7-2.9 2.7-2.9l-2.4-1.1z" fill="#7CB342"/><path d="M65.9 85.5l-.7 13.3a2 2 0 0 0 .3 1.1l1.2 2-.8.7c-.6.4-1 1-1 1.7l-.2 3.1v.3l.8 6.4-.3 2.8a2 2 0 0 0 1.1 2l-.7.7a2 2 0 0 0-.7 1.3v1.1h-2l-.5-5.2v-.5a2 2 0 0 0-1-1.7l-1.3-1a50 50 0 0 1 1.8-1.8c.4-.4.6-1 .6-1.4l.1-3.4v-.1a2 2 0 0 0-1-1.7l-1-.7 1.4-1.7c.4-.4.6-.9.6-1.4l.1-15.8H66m2-2.2zm0 0l-7.2.1-.1 17.7-3 3.8 3 1.8-.2 3.4c-.2 0-3.2 3.6-3.2 3.6s2 1.7 3.1 2.4v.6l.7 7h5.6l.2-2.8c.8-.7 2.7-2.9 2.7-2.9l-2.4-1.1.3-3.1-.8-6.5.2-3.1.2-.2 2.1-1.9-2-3.5.8-15.3z" fill="#424242" opacity=".2"/><path d="M65.3 91.7s2.2 9.7 12 12c7.2 1.6 18.6-5.5 18.6-5.5s-8-14.5-17.3-13.8c-8.3.6-11.5 5-13.3 7.3z" fill="#7CB342"/><path d="M79.3 87.4c3.5 0 7 3.1 9.3 5.8a23 23 0 0 1 3 4 30.4 30.4 0 0 1-11.9 3.7c-.6 0-1.2 0-1.7-.2-6-1.4-8.5-6.1-9.4-8.4 1.8-2 4.5-4.5 10.3-5h.4m0-3h-.7c-8.3.7-11.5 5.1-13.3 7.3 0 0 2.2 9.7 12 12l2.4.3c7 0 16.2-5.7 16.2-5.7s-7.6-13.8-16.6-13.8z" fill="#424242" opacity=".2"/><path d="M63.5 89s.1 10-10.5 14.1c-7.6 2.9-20.8-3.3-20.8-3.3s7-17.4 17.2-18c9.2-.6 12 5 14.1 7.2z" fill="#7CB342"/><path d="M50.7 84.7c5.4 0 7.5 2.6 9.4 5l.3.3c-.3 2.3-1.7 7.7-8.4 10.3-1 .4-2.3.6-3.8.6-4.2 0-9-1.6-12-2.7l3.3-5.6c2.4-3.4 6-7.6 10.1-7.8h1m0-3h-1.2c-10.2.6-17.2 18-17.2 18s8.7 4 16 4c1.7 0 3.4-.1 4.8-.7 10.6-4 10.5-14 10.5-14-2-2.2-4.6-7.4-12.8-7.4z" fill="#424242" opacity=".2"/><ellipse cx="63.4" cy="75.9" rx="20.3" ry="16.1" fill="#558B2F"/><path d="M63.4 62.7c9.5 0 17.3 6 17.3 13.2S72.9 89 63.4 89s-17.2-5.9-17.2-13.1 7.7-13.2 17.2-13.2m0-3C52.2 59.7 43.2 67 43.2 76s9 16 20.2 16 20.3-7.2 20.3-16.1-9.1-16.2-20.3-16.2z" fill="#424242" opacity=".2"/><path d="M66 17.6c1.7-4 5-7.2 9-8.7 3.3-1.3 7.2-1.6 9.9-4 2.1 2.7 4.3 5.5 5.8 8.6s2.1 6.7 1.2 10c-.8 2.8-2.6 5.1-5 6.8a22.7 22.7 0 0 1-7.7 3.6c-1.5.4-3 .7-4.6.4-1.4-.2-2.8-.8-4-1.5-1.4-.6-3.6-1.2-4.6-2.3-.8-.8-1-2.5-1.2-3.6a16.6 16.6 0 0 1 .4-7.1c.1-.6.7-1.6.7-2.2z" fill="#C40E00"/><path d="M40.8 42.9c-1.4 4.3-4.6 8.7-5.4 13.2a26 26 0 0 0 4.4 18.4C42.3 78 46 80.7 50 82c8.8 2.8 23.3 3.1 32.1-4s12.9-19.7 10-30.6c-.8-2.9-2-5.6-2.1-8.6a23 23 0 0 1 2.1-12c-4.2.5-6.6 2.4-10.7 3.6-6.3 2-14 2.2-19.6-1.3-14.7-9.4-22.2-2.9-21.8-.5 1.5 8.2 1.7 11.5.8 14.3z" fill="#C90000"/><linearGradient id="a" x1="55.9" x2="69.8" y1="29.8" y2="1.2" gradientUnits="userSpaceOnUse"><stop stop-color="#B71C1C" offset=".1"/><stop stop-color="#C82723" offset=".3"/><stop stop-color="#E0362E" offset=".6"/><stop stop-color="#EF4034" offset=".8"/><stop stop-color="#F44336" offset="1"/></linearGradient><path d="M48.3 24.2s-8.1-10.7 4.5-20c0 0 1.8 1.6 4.5 1.8s6-1.9 9.8 1.4S76 11 77.7 10.6s7 4-.7 9.6c-8.5 6-10.8 6.2-10.8 6.2S53 25.7 51 25.3c-2.1-.4-2.6-1-2.6-1z" fill="url(#a)"/><path d="M55 19.6s9.3-5.5 15-1.8-8 5.5-10.5 5.3-4.5-3.5-4.5-3.5z" fill="#A62121"/><path d="M22.6 42.7c2.2-.1 4.2 1.4 5.6 3.2s2.2 3.9 3.3 5.8a29 29 0 0 0 16 12.5 57.4 57.4 0 0 0 20.3 2.6c2 0 4.1-.1 6.1.2s4 1.1 5.4 2.6c0-2.8-1.7-5.4-3.9-7s-4.8-2.8-7.4-3.8l-14.3-5.6c-2.5-1-5-2-7.3-3.5-2.2-1.5-3.2-3.6-4-6.2a27 27 0 0 1-1.2-8.9c0-2.4-.3-5-1.7-7-1.3-1.8-2.8-1.4-4.6-.5-4 2-7.3 5-9.6 8.8-.3.5-2.9 6.8-2.7 6.8z" fill="#E50500"/><path d="M53.5 19.2c2.1-.9 8.8 2.3 11 2.6 4.4.7 5.4 1 9.7-1 3.2-1.5 4.4-2.2 6.8-6-1.9 4.3 1.5 9-.4 12.8-4.4 8.4-21.2 3.2-23.6 2-1.9-.9-7.3-2.6-3.5-10.4z" fill="#EF5350"/><linearGradient id="b" x1="30.6" x2="80.6" y1="24.7" y2="24.7" gradientUnits="userSpaceOnUse"><stop stop-color="#E53935" offset="0"/><stop stop-color="#E03632" offset=".2"/><stop stop-color="#D12D2A" offset=".5"/><stop stop-color="#B91D1D" offset=".8"/><stop stop-color="#B71C1C" offset=".9"/></linearGradient><path d="M35.9 11C19.2 23.3 47.3 37.2 53.5 39.1a27 27 0 0 0 18.2-1c1.6-.7 3.1-1.5 4.3-2.7s4.5-4.5 4.6-6.2c-8.7 3-26 1.5-32.7-8.6-3-4.6 0-9.4-1.1-10.3-2.7-2.2-8.4-1.3-11 .5z" fill="url(#b)"/><path d="M75.6 34.6c9.3-1 11.3-10.3 15.7-10 2.8 1.2 4.8 4 5 7s-1 6.2-3.5 8c-11.7 8.9-15.2.3-17.8 4.4-4.3 6.6-10 9.6-15.6 9-9-1-15-11.8-12.7-11.1 13.4 3.8 14.9-5.7 28.9-7.3z" fill="#F41E0F"/><path d="M53.4 8.9a11.6 11.6 0 0 0 7 .6l1.9-.2c.8 0 1.5.2 2.4 1 2 1.7 4.3 2.9 7 3.6l1 .1c.6 0 1.3-.2 2-.6l1.8-1 3-.9c1.5-.4 3.1-.8 4.6-1.5 1.3 1.6 2.4 3.3 3.3 5.1 1.2 2.6 1.5 5.3 1 7.4l-.3.7c-.8 1.9 0 4 1.9 4.9 1.5.7 2.6 2.3 2.7 4a5 5 0 0 1-2 4.4l-1.7.9a3.8 3.8 0 0 0-2.3 4.3 42.3 42.3 0 0 0 1.8 6.7c2.6 9.5-1 20.4-8.6 26.6-4 3.3-10 5-17 5-4 0-8.1-.5-11.5-1.6a17 17 0 0 1-8.4-6.1 22.4 22.4 0 0 1-3.7-15 4 4 0 0 0-1-3.3 20.4 20.4 0 0 1-4.3-6c-.8-1.5-1.5-3-2.6-4.4-1-1.4-2.3-2.5-3.6-3.3l1-2.5a20 20 0 0 1 7.6-7 3.8 3.8 0 0 0 1-6c-1.4-1.5-3-3.8-2.8-5.8.2-1.6 1.4-3.3 3.7-5a8 8 0 0 1 5.9-.8 3.8 3.8 0 0 0 3 1.4c1.4 0 2.8-.8 3.4-2.1.6-1.3 1.5-2.5 2.7-3.6M53 4.2a17.7 17.7 0 0 0-5.7 6.6l-.2-.4a7.2 7.2 0 0 0-4.6-1.3c-2.4 0-5 .8-6.4 1.8-7.5 5.6-6 11.5-1.4 16.5-3.7 2-6.9 5-9.1 8.5l-2.8 6.8h.2c2.1 0 4.1 1.4 5.4 3.2 1.4 1.8 2.2 3.9 3.4 5.8 1 1.9 2.3 3.5 3.8 5-.8 6 1 13 4.4 17.8 2.5 3.5 6.3 6.2 10.3 7.5 3.6 1.2 8 1.9 12.7 1.9a31 31 0 0 0 19.5-6 30.3 30.3 0 0 0 9.8-30.5c-.5-2.1-1.4-4.3-1.8-6.4 1-.4 1.8-.8 2.6-1.4a9 9 0 0 0 3.5-8 9 9 0 0 0-4.9-7l.4-1c1-3.4.3-7-1.2-10.1S87.2 7.7 85 5c-2.7 2.3-6.5 2.6-9.9 3.9l-2.5 1.3c-1.8-.5-3.7-1.3-5.4-2.8a7.3 7.3 0 0 0-5-1.9c-1.6 0-3.1.5-4.5.5h-.3A8.2 8.2 0 0 1 53 4.2z" fill="#424242" opacity=".2"/></svg>