<svg viewBox="0 0 128 128" xmlns="http://www.w3.org/2000/svg"><linearGradient id="a" x1="61.118" x2="109.03" y1="48.95" y2="114.24" gradientTransform="matrix(-1 0 0 1 128.09 0)" gradientUnits="userSpaceOnUse"><stop stop-color="#A1887F" offset=".011"/><stop stop-color="#5D4037" offset="1"/></linearGradient><path d="M21.64 112.06c-.04-.14-.07-.29-.1-.45-.1-.47-.23-1.11-.79-2.47-1.25-3.05-2.07-6.45-2.1-6.59l2.13-.51c.01.03.81 3.37 2 6.27.18.43.31.8.43 1.13.07-.15.15-.29.21-.42.94-2.11 3.35-5.75 6.13-9.97 2.32-3.52 4.96-7.5 7.09-11.14 2.15-3.67 7.09-11.59 11.77-19.02-.57-4.03-.98-10.71-.94-11.01h2c-.01.05.92 4.3.94 7.85 4.53-7.18 8.36-13.2 8.44-13.33l2.77 1.76c-.1.16-5.77 9.07-11.49 18.16 4.61-.81 8.03-2.12 8.07-2.14l.79 2.04c-.2.08-4.63 1.78-10.4 2.55-3.79 6.04-7.37 11.81-9.11 14.78-2.18 3.71-4.84 7.74-7.18 11.29l-.18.27c1.89.09 5.32.25 7.77.34l-.08 2.19c-3.3-.13-8.35-.37-9.08-.41-1.96 2.98-3.64 5.62-4.29 7.1-1.71 3.84-9.07 13.23-9.38 13.63l-2.58-2.03c1.49-1.92 4.94-6.46 7.16-9.87z" fill="url(#a)"/><linearGradient id="b" x1="32.165" x2="72.374" y1="30.521" y2="30.521" gradientTransform="matrix(-1 0 0 1 128.09 0)" gradientUnits="userSpaceOnUse"><stop stop-color="#689F38" offset=".005"/><stop stop-color="#9CCC65" offset="1"/></linearGradient><path d="M95.68 4.14S97.33 17.17 92 29.5c-6.19 14.33-17.12 25.83-30.13 27.34-13 1.51-2.54-22.66 5.13-33.34C72.91 15.27 83.17 7 95.68 4.14z" fill="url(#b)"/><path d="M92.63 8.4c.06 4.51-.42 12.32-3.65 19.79-6.33 14.63-16.6 24.12-27.49 25.38-.26.03-.51.05-.73.05-1.12 0-1.29-.33-1.4-.55-1.93-3.77 3.36-17.98 10.31-27.65C75.31 17.56 83.7 11.39 92.63 8.4m3.05-4.26C83.17 7 72.91 15.27 67 23.5c-7.44 10.36-17.51 33.41-6.24 33.41.35 0 .72-.02 1.11-.07C74.87 55.33 85.8 43.83 92 29.5c5.33-12.33 3.68-25.36 3.68-25.36z" fill="#424242" opacity=".2"/><linearGradient id="c" x1="72.986" x2="98.831" y1="31.628" y2="31.628" gradientTransform="matrix(-1 0 0 1 128.09 0)" gradientUnits="userSpaceOnUse"><stop stop-color="#689F38" offset=".005"/><stop stop-color="#9CCC65" offset="1"/></linearGradient><path d="M29.57 4s-4.29 55.26 19.12 55.26c9.9 0 11.63-39.02-19.12-55.26z" fill="url(#c)"/><path d="M32.58 9.64c8.89 6.08 13.56 13.94 15.97 19.83 3.71 9.09 3.77 17.4 2.6 22.14-.81 3.26-2.03 4.35-2.46 4.35-2.91 0-5.36-1.11-7.47-3.4-7.85-8.45-8.97-30.43-8.64-42.92M29.57 4s-4.29 55.26 19.12 55.26c9.9 0 11.63-39.02-19.12-55.26z" fill="#424242" opacity=".2"/><linearGradient id="d" x1="4.208" x2="70.158" y1="66.752" y2="66.752" gradientTransform="matrix(-1 0 0 1 128.09 0)" gradientUnits="userSpaceOnUse"><stop stop-color="#689F38" offset=".005"/><stop stop-color="#9CCC65" offset="1"/></linearGradient><path d="M123.88 58.34s-9.81 12.56-19.7 17.23c-14.95 7.05-32.93 9.49-44.08 1.23s22.26-38.76 63.78-18.46z" fill="url(#d)"/><path d="M95.7 51.49v3.29c7.6 0 15.27 1.6 22.86 4.76-3.46 3.87-9.69 10.19-15.78 13.06-8.37 3.95-17.17 6.12-24.77 6.12-6.5 0-11.87-1.53-15.95-4.56-.41-.31-1.27-.94-.58-3.05 2.2-6.68 15.66-16.33 34.22-16.33v-3.29m-.01 0c-26.89 0-44.05 19.05-35.6 25.31 4.92 3.64 11.17 5.21 17.91 5.21 8.52 0 17.82-2.5 26.17-6.44 9.89-4.67 19.7-17.23 19.7-17.23-10.03-4.91-19.6-6.85-28.18-6.85z" fill="#424242" opacity=".2"/><linearGradient id="e" x1="3.16" x2="69.911" y1="95.594" y2="95.594" gradientTransform="scale(-1 1) rotate(-12.339 31.91 597.553)" gradientUnits="userSpaceOnUse"><stop stop-color="#689F38" offset=".005"/><stop stop-color="#9CCC65" offset="1"/></linearGradient><path d="M105.5 103.94s-12.51 9.37-22.99 12.5c-17.6 5.25-48.33 3.42-45.05-13.79 2.19-11.5 43.83-19.13 68.04 1.29z" fill="url(#e)"/><path d="M67.23 94.5c7.46 0 21.03 1.28 32.71 9.33-4.34 2.9-11.85 7.53-18.37 9.47-5.24 1.56-11.8 2.46-18.02 2.46-10.24 0-18.26-2.31-21.46-6.18-1.43-1.72-1.89-3.79-1.41-6.31.7-3.67 11.14-8.77 26.55-8.77m0-3.29c-15.53 0-28.57 5.14-29.77 11.44-2.25 11.82 11.54 16.39 26.1 16.39 6.64 0 13.44-.95 18.95-2.59 10.48-3.13 22.99-12.5 22.99-12.5-10.94-9.24-25.45-12.74-38.27-12.74z" fill="#424242" opacity=".2"/><linearGradient id="f" x1="97.331" x2="124.19" y1="68.305" y2="68.305" gradientTransform="scale(-1 1) rotate(3.767 46.427 -1878.24)" gradientUnits="userSpaceOnUse"><stop stop-color="#689F38" offset=".005"/><stop stop-color="#9CCC65" offset="1"/></linearGradient><path d="M13.89 33.55S6.53 47.22 5.15 57.71c-2.09 15.85-1.36 36.42 9.3 43.97C25.1 109.23 34.8 87.5 29.89 65.3c-3.96-17.88-8.59-20.71-16-31.75z" fill="url(#f)"/><path d="M14.52 41.29c.22.29.43.58.64.86 4.79 6.51 7.95 10.81 10.87 23.99 1.36 6.16 1.59 12.58.66 18.55-.81 5.22-2.5 9.73-4.64 12.39-.65.81-1.94 2.17-3.28 2.17-.61 0-1.3-.27-2.05-.8-8.74-6.19-9.69-24.84-7.67-40.23.74-5.55 3.37-12.23 5.47-16.93m-.63-7.74S6.53 47.22 5.15 57.71c-2.09 15.85-1.36 36.42 9.3 43.97 1.47 1.04 2.93 1.53 4.33 1.53 8.73 0 15.34-18.78 11.11-37.92-3.96-17.87-8.59-20.7-16-31.74z" fill="#424242" opacity=".2"/><path d="M47.91 57.92s-.06-.79-.17-2.17c-.15-1.39-.32-3.37-.67-5.73-.32-2.37-.77-5.12-1.35-8.05-.16-.73-.31-1.47-.47-2.23-.18-.75-.36-1.5-.55-2.27-.4-1.52-.82-3.06-1.3-4.58-.45-1.52-1.01-3.05-1.5-4.53-.53-1.48-1.05-2.94-1.61-4.33-1.09-2.8-2.28-5.33-3.36-7.47s-2.14-3.85-2.91-5.01c-.39-.58-.7-1.04-.93-1.33-.22-.3-.34-.47-.34-.47a.091.091 0 0 1 .01-.12c.04-.03.09-.02.12.01l.38.44c.25.28.6.71 1.04 1.27.86 1.12 2.03 2.78 3.25 4.87 1.24 2.09 2.52 4.62 3.76 7.38.63 1.38 1.22 2.83 1.82 4.31.59 1.5 1.14 2.99 1.66 4.53.54 1.53 1.01 3.08 1.46 4.61.21.77.42 1.54.62 2.29.18.76.37 1.51.55 2.25.69 2.97 1.13 5.78 1.38 8.2.22 2.43.33 4.46.3 5.88 0 1.42-.09 2.25-.09 2.25-.03.3-.3.52-.6.49-.28 0-.48-.23-.5-.49zM18.64 99.45s0-3.68-.01-9.19c-.01-1.38-.01-2.87-.02-4.45-.02-1.58-.03-3.25-.05-4.97-.05-3.45-.19-7.13-.41-10.81-.23-3.69-.46-7.37-.68-10.83-.23-3.45-.55-6.66-.9-9.4-.36-2.74-.82-5-1.16-6.57-.34-1.58-.57-2.47-.57-2.47-.01-.06.02-.11.07-.13.05-.01.11.02.13.07 0 0 .3.88.77 2.43.46 1.56 1.06 3.8 1.59 6.54.55 2.74.97 5.96 1.37 9.41.39 3.45.78 7.14 1.1 10.82.34 3.7.59 7.4.76 10.88.09 1.74.14 3.42.15 5.02.03 1.6-.01 3.11-.03 4.5-.05 1.39-.1 2.67-.19 3.8-.07 1.13-.17 2.12-.26 2.93-.16 1.62-.33 2.55-.33 2.55-.06.36-.41.6-.77.53a.69.69 0 0 1-.56-.66zM57.68 55.65s.33-.85.98-2.3c.63-1.46 1.63-3.49 2.86-5.91 1.26-2.41 2.8-5.18 4.59-8.07.89-1.45 1.83-2.93 2.82-4.42.98-1.49 2-2.99 3.06-4.46 2.09-2.96 4.29-5.83 6.45-8.46 2.16-2.62 4.24-5.01 6.18-6.93 1.92-1.92 3.63-3.42 4.89-4.39.63-.48 1.13-.85 1.49-1.08l.54-.37c.04-.03.09-.02.12.02s.02.09-.02.12c0 0-.72.54-1.9 1.58s-2.79 2.6-4.59 4.61a115.38 115.38 0 0 0-5.82 7.13c-1.01 1.35-2.04 2.75-3.06 4.2-1.02 1.44-2.07 2.91-3.06 4.4-1.01 1.48-1.98 2.99-2.91 4.49-.94 1.5-1.83 2.99-2.68 4.44-1.7 2.91-3.24 5.64-4.56 7.99-1.31 2.35-2.41 4.32-3.18 5.69-.76 1.38-1.2 2.16-1.2 2.16-.15.27-.48.36-.75.21a.5.5 0 0 1-.25-.65zM59.82 71.15s.79-.54 2.21-1.35c.71-.41 1.59-.89 2.62-1.39 1.03-.51 2.19-1.08 3.48-1.64s2.7-1.14 4.23-1.67c1.51-.56 3.14-1.08 4.83-1.56.84-.25 1.71-.49 2.59-.71.87-.24 1.77-.45 2.67-.64.9-.21 1.81-.4 2.73-.56.91-.18 1.85-.35 2.77-.49 1.83-.31 3.71-.55 5.53-.75 1.83-.2 3.64-.35 5.38-.47 3.5-.21 6.77-.27 9.56-.21 2.8.05 5.12.16 6.75.22s2.56.1 2.56.1c.05 0 .09.04.09.09s-.04.08-.09.09c0 0-3.72.07-9.3.17-2.78.1-6.03.24-9.48.58-1.73.18-3.51.38-5.31.65-1.81.26-3.61.56-5.45.9-.92.16-1.81.34-2.71.54-.9.18-1.79.39-2.67.63-.88.21-1.75.45-2.6.7-.86.24-1.7.49-2.52.76-1.65.52-3.22 1.09-4.71 1.63-1.49.55-2.88 1.09-4.16 1.61-2.58 1.01-4.67 1.98-6.15 2.63-1.46.68-2.29 1.08-2.29 1.08-.27.13-.6.01-.73-.26a.52.52 0 0 1 .17-.68zM41.17 102.66s.9-.29 2.48-.67c.79-.2 1.76-.42 2.87-.62 1.11-.21 2.37-.46 3.75-.65 1.38-.2 2.88-.4 4.47-.54 1.59-.16 3.28-.27 5.02-.35s3.55-.13 5.38-.13c1.83-.01 3.7.05 5.54.1 3.7.12 7.4.32 10.87.59 1.73.15 3.41.3 4.99.49 1.59.18 3.08.43 4.45.67 2.74.51 4.99 1.12 6.53 1.64.77.26 1.37.48 1.77.65.4.16.62.24.62.24.04.02.07.07.05.11s-.07.06-.11.05l-.63-.2c-.41-.14-1.02-.32-1.79-.53-1.55-.42-3.8-.93-6.54-1.3-2.74-.35-5.95-.62-9.4-.78s-7.14-.19-10.83-.23c-3.69-.05-7.35.05-10.79.31-1.72.12-3.37.29-4.94.45-1.57.17-3.05.33-4.42.5-2.74.31-5 .67-6.6.89-1.58.25-2.49.39-2.49.39-.3.05-.58-.16-.63-.46-.04-.28.12-.53.38-.62z" fill="#689F38"/></svg>