<svg viewBox="0 0 128 128" xmlns="http://www.w3.org/2000/svg"><linearGradient id="a" x1="15.7" x2="55.1" y1="11.7" y2="104.5" gradientUnits="userSpaceOnUse"><stop stop-color="#FFCC80" offset="0"/><stop stop-color="#F57C00" offset="1"/></linearGradient><path d="M12.8 47.8c-11.5 23.8.2 54 .5 55.3-.4.5 46.2-1.4 56-35a51.2 51.2 0 0 0-17.8-53c0-2.7-.2-5.5-.4-8.2 0-.7-.3-2.6-1.5-2.8-1-.2-1.5 1.7-1.5 2.4a140 140 0 0 1-1 7.7 62.2 62.2 0 0 0-34.3 33.6z" fill="url(#a)"/><path d="M49 17.7l.7.7a46.2 46.2 0 0 1 16 48c-4.8 15.4-18.9 24.5-29.9 28.4a83 83 0 0 1-19.4 4.6c-1-3.5-2.6-9.4-3.6-16a63.2 63.2 0 0 1 3.5-34.6A55.5 55.5 0 0 1 49 17.7M49.3 4c-.8.2-1.2 1.8-1.2 2.4a140 140 0 0 1-1 7.7 62.3 62.3 0 0 0-34.3 33.6c-11.5 23.8.2 54 .5 55.3-.4.5 46.2-1.4 56-35a51.2 51.2 0 0 0-17.8-53c0-2.7-.2-5.5-.4-8.2 0-.7-.3-2.6-1.4-2.8h-.4z" fill="#424242" opacity=".2"/><path d="M66.8 57.1c-5.8-10.5-12-20.3-18.2-29.3a155 155 0 0 1-3.7 17 310 310 0 0 1 15.7 31.6 331 331 0 0 0-16-30 149 149 0 0 1-6.3 17.2 317 317 0 0 1 10.3 25c-3.4-8.3-7-16.2-10.9-23.7A145 145 0 0 1 29 81.8c1.6 4.2 3 8.6 4.4 13-1.5-4.2-3-8.4-4.7-12.4C25.3 88 21.5 93.1 17.5 98c3.9-5 7.4-10.3 10.7-15.8-4.7 1-9.5 2-14.3 2.7 5-1 9.8-2 14.6-3.3 3.1-5.4 5.9-11 8.3-16.8a291 291 0 0 1-25.6 7c9-2.4 17.8-5.1 26.1-8.4 2.3-5.6 4.3-11.4 5.9-17.4a236 236 0 0 1-29.5 11.7c10.5-3.8 20.5-8.2 30-13.3 1.4-5.6 2.5-11.2 3.3-17A218 218 0 0 1 20.3 42C30 37 39 31.2 47.4 24.8l.7-6.9 1.5.2-.6 7a330 330 0 0 1 17.8 32z" fill="#424242" opacity=".2"/><linearGradient id="b" x1="80.9" x2="133.9" y1="70.9" y2="114.5" gradientTransform="rotate(9.3 97.2 83.7)" gradientUnits="userSpaceOnUse"><stop stop-color="#FFCC80" offset="0"/><stop stop-color="#F57C00" offset="1"/></linearGradient><path d="M88 61.8l-2.8-3.5c-.2-.4-1-1.1-1.6-.7-.6.5-.2 1.5 0 1.8l2 4C84 67 74.8 78.9 80.1 92.9c5.8 15.6 31.7 31.3 31.9 31.5.6 1 16.7-25 4.6-47-10-18.2-25.2-16-28.7-15.5z" fill="url(#b)"/><path d="M87.7 64.1h.6c2.6-.2 17.1-2.4 26.2 14.4 5.2 10 4.5 22.2 2.1 29.9-1.6 5.5-4 9.7-5.5 12-2.4-1.6-6.7-4.5-11.1-8.1a56.4 56.4 0 0 1-17.3-20.2c-5.1-13.5 3.5-24.6 4.7-27.4l.3-.6M84 57.5l-.3.1c-.6.5-.2 1.5 0 1.8l2 4C84 67 74.9 78.8 80.2 92.9c5.8 15.6 31.7 31.3 31.9 31.5.6 1 16.7-25 4.6-47-10-18.2-25.2-16-28.7-15.5l-2.8-3.5c-.2-.3-.8-1-1.3-.8z" fill="#424242" opacity=".2"/><path d="M89.5 68.1l-2.1-3.3 1.3-.9a175 175 0 0 1 1.6 3.7c6.7 1.6 13.6 3.6 20.6 6a281 281 0 0 0-19.8-4.7c1.7 3.1 3.4 6.3 5 9.6 6.8 2.1 13.8 4.6 21 7.5a281 281 0 0 0-20.5-6.5c1.7 3.6 3.4 7.4 5 11.3a316 316 0 0 1 17.2 7.7c-5.7-2.5-11.3-4.7-16.8-6.8 1.6 4.1 3.2 8.3 4.6 12.7l9 5-8.8-4.5a265 265 0 0 1 4 14.2c-1.3-4.9-2.8-9.6-4.4-14.1a79.4 79.4 0 0 1-5 7.8c1.8-2.7 3.4-5.4 4.8-8.3-1.5-4.4-3.1-8.6-4.9-12.7a93 93 0 0 1-8.7 14.2 95 95 0 0 0 8.4-15c-1.7-3.8-3.4-7.5-5.2-11-2.7 6.3-6 12.3-10 17.7 3.8-5.7 7-12 9.5-18.7l-5.1-9.4c-2.2 6.3-5 12.3-8.5 17.8 3.3-6 6-12.4 7.7-19.2z" fill="#424242" opacity=".2"/></svg>