<svg viewBox="0 0 128 128" xmlns="http://www.w3.org/2000/svg"><radialGradient id="a" cx="51.6" cy="69.8" r="43.5" gradientTransform="matrix(1 0 0 .9654 0 4.3)" gradientUnits="userSpaceOnUse"><stop stop-color="#BD9563" offset="0"/><stop stop-color="#AA8252" offset=".3"/><stop stop-color="#795028" offset=".9"/><stop stop-color="#754C24" offset="1"/></radialGradient><path d="M39.3 55.4c-6.3 6.9-9.6 17-9.6 29.2s3.3 22.4 9.6 29.2c6 6.5 14.7 10.1 23.7 9.9 9 .2 17.7-3.4 23.7-9.9 6.3-6.8 9.7-17 9.7-29.2S93 62.3 86.7 55.4c-10.2-11.2-34.7-13.7-47.4 0z" fill="url(#a)"/><path d="M62.6 49a30 30 0 0 1 22 8.4c5.7 6.3 8.8 15.8 8.8 27.2s-3.1 21-8.9 27.2a28.2 28.2 0 0 1-20.7 8.9h-1.6c-8 0-15.5-3.2-20.7-8.9a39.4 39.4 0 0 1-8.8-27.2c0-11.4 3-20.8 8.8-27.1A28 28 0 0 1 62.6 49m0-3c-8.5 0-17.2 2.9-23.3 9.4-6.3 6.9-9.6 17-9.6 29.2s3.3 22.4 9.6 29.2a31.2 31.2 0 0 0 22.9 9.9h1.6c8.8 0 17-3.6 23-9.9 6.2-6.8 9.6-17 9.6-29.2S93 62.3 86.7 55.4a33.1 33.1 0 0 0-24-9.4z" fill="#424242" opacity=".2"/><radialGradient id="b" cx="62" cy="73.9" r="12.2" gradientTransform="matrix(1 0 0 .9654 0 4.3)" gradientUnits="userSpaceOnUse"><stop stop-color="#FFD03D" offset="0"/><stop stop-color="#FA8100" offset="1"/></radialGradient><path d="M53.5 76.9C57 74 60 71 63 67.9c3 3.2 6 6.2 9.4 9-3 3.2-6 6.2-9.4 9a93.5 93.5 0 0 1-9.5-9z" fill="url(#b)"/><radialGradient id="c" cx="63" cy="95.1" r="9.3" gradientTransform="matrix(1 0 0 .9654 0 4.3)" gradientUnits="userSpaceOnUse"><stop stop-color="#FFD03D" offset="0"/><stop stop-color="#FFCC3A" offset=".2"/><stop stop-color="#FEBF30" offset=".4"/><stop stop-color="#FDA91F" offset=".7"/><stop stop-color="#FB8B08" offset=".9"/><stop stop-color="#FA8100" offset="1"/></radialGradient><path d="M73.5 96a101.7 101.7 0 0 1-10.5 7.6A98.3 98.3 0 0 1 52.5 96 104 104 0 0 0 63 88.5c3.3 2.7 6.8 5.3 10.5 7.6z" fill="url(#c)"/><radialGradient id="d" cx="52.3" cy="62.8" r="14.5" gradientTransform="matrix(1 0 0 .9654 0 4.3)" gradientUnits="userSpaceOnUse"><stop stop-color="#FFD03D" offset="0"/><stop stop-color="#FA8100" offset="1"/></radialGradient><path d="M52.2 75.2c-2.6-3-4.9-6.3-6.8-9.9a101.5 101.5 0 0 0 7.4-6.9l1-1.1.4-.4.6.1h.1l.6 1 1 1.5.3.4c1.4 2 2.9 4 4.5 5.9l.3.4a89 89 0 0 1-9.4 9z" fill="url(#d)"/><radialGradient id="e" cx="40.4" cy="71.7" r="10.5" gradientTransform="matrix(1 0 0 .9654 0 4.3)" gradientUnits="userSpaceOnUse"><stop stop-color="#FFD03D" offset="0"/><stop stop-color="#FA8100" offset="1"/></radialGradient><path d="M50.6 76.5A97.8 97.8 0 0 1 40.3 84a31.4 31.4 0 0 1-5.7-10.8c3.1-2 6.2-4.2 9-6.6 2 3.5 4.4 6.8 7 9.9z" fill="url(#e)"/><radialGradient id="f" cx="50.5" cy="84.2" r="12.7" gradientTransform="matrix(1 0 0 .9654 0 4.3)" gradientUnits="userSpaceOnUse"><stop stop-color="#FFD03D" offset="0"/><stop stop-color="#FA8100" offset="1"/></radialGradient><path d="M52 78c2.9 3.3 6 6.3 9.4 9.2a114 114 0 0 1-10.7 7.5 73.3 73.3 0 0 1-9.1-9.1c3.6-2.3 7.1-4.8 10.4-7.5z" fill="url(#f)"/><radialGradient id="g" cx="50.1" cy="102" r="8.4" gradientTransform="matrix(1 0 0 .9654 0 4.3)" gradientUnits="userSpaceOnUse"><stop stop-color="#FFD03D" offset="0"/><stop stop-color="#FFCF3C" offset=".3"/><stop stop-color="#FFCC3A" offset=".5"/><stop stop-color="#FEC333" offset=".7"/><stop stop-color="#FDB327" offset=".8"/><stop stop-color="#FC9E16" offset=".9"/><stop stop-color="#FA8100" offset="1"/><stop stop-color="#FA8100" offset="1"/></radialGradient><path d="M54 100c2.3 1.8 4.7 3.3 7 4.8-3.4 2-7 4-10.7 5.5-3.5-2.4-6.9-5-10-8 3.5-1.4 7-3.1 10.2-5l3.6 2.7z" fill="url(#g)"/><radialGradient id="h" cx="62.9" cy="111.2" r="8.5" gradientTransform="matrix(1 0 0 .9654 0 4.3)" gradientUnits="userSpaceOnUse"><stop stop-color="#FFFDE7" offset="0"/><stop stop-color="#FFC400" offset="1"/></radialGradient><path d="M63 106c3.4 2.1 6.9 4 10.5 5.7-3.3 2.1-6.9 4-10.5 5.6a74.3 74.3 0 0 1-10.6-5.6C56 110 59.6 108 63 106z" fill="url(#h)"/><radialGradient id="i" cx="75.3" cy="103" r="8.7" gradientTransform="matrix(1 0 0 .9654 0 4.3)" gradientUnits="userSpaceOnUse"><stop stop-color="#FFD03D" offset="0"/><stop stop-color="#FFCD39" offset=".2"/><stop stop-color="#FFC52C" offset=".5"/><stop stop-color="#FFB816" offset=".8"/><stop stop-color="#FFAB00" offset="1"/></radialGradient><path d="M65 104.8c2.3-1.6 4.6-3.1 6.8-4.8l3.6-2.8c3.2 2 6.7 3.7 10.2 5.2a84.5 84.5 0 0 1-10 8 92.5 92.5 0 0 1-10.6-5.6z" fill="url(#i)"/><radialGradient id="j" cx="74.4" cy="85" r="9.3" gradientTransform="matrix(1 0 0 .9654 0 4.3)" gradientUnits="userSpaceOnUse"><stop stop-color="#FFD03D" offset="0"/><stop stop-color="#FFCD3B" offset=".3"/><stop stop-color="#FEC333" offset=".5"/><stop stop-color="#FDB226" offset=".7"/><stop stop-color="#FC9A14" offset=".9"/><stop stop-color="#FA8100" offset="1"/></radialGradient><path d="M75.1 94.7c-3.7-2.3-7.2-4.8-10.6-7.5 3.4-2.9 6.5-6 9.4-9.2 3.3 2.8 6.8 5.3 10.4 7.6a73.4 73.4 0 0 1-9.1 9.1z" fill="url(#j)"/><radialGradient id="k" cx="83.3" cy="73.6" r="8.5" gradientTransform="matrix(1 0 0 .9654 0 4.3)" gradientUnits="userSpaceOnUse"><stop stop-color="#FFD03D" offset="0"/><stop stop-color="#FFCB34" offset=".2"/><stop stop-color="#FFBD1D" offset=".6"/><stop stop-color="#FFAB00" offset="1"/></radialGradient><path d="M75.3 76.5c2.6-3 5-6.4 6.9-9.8 2.9 2.3 6 4.5 9 6.5A31 31 0 0 1 85.6 84c-3.6-2.3-7-4.8-10.3-7.5z" fill="url(#k)"/><radialGradient id="l" cx="72.5" cy="64" r="8.9" gradientTransform="matrix(1 0 0 .9654 0 4.3)" gradientUnits="userSpaceOnUse"><stop stop-color="#FFD03D" offset="0"/><stop stop-color="#FA8100" offset="1"/></radialGradient><path d="M73.7 75.2c-3.3-2.8-6.4-5.9-9.4-9l.4-.5a64 64 0 0 0 4.5-5.8l.3-.4 1-1.6.5-1h.8l.3.4 1.1 1.2a64.6 64.6 0 0 0 7.4 6.8 57 57 0 0 1-6.9 10z" fill="url(#l)"/><radialGradient id="m" cx="62.9" cy="58.8" r="4.6" gradientTransform="matrix(1 0 0 .9654 0 4.3)" gradientUnits="userSpaceOnUse"><stop stop-color="#FFD03D" offset="0"/><stop stop-color="#FFC937" offset=".2"/><stop stop-color="#FDB528" offset=".5"/><stop stop-color="#FB950F" offset=".8"/><stop stop-color="#FA8100" offset="1"/></radialGradient><path d="M68 58l-.4.6-.6.9-.6.7c-1 1.5-2.2 3-3.4 4.3a64.6 64.6 0 0 1-3.5-4.3l-.5-.7-.6-.9-.5-.7-.3-.4 1.4.1 1.6.1H67l1.3-.2-.3.4z" fill="url(#m)"/><radialGradient id="n" cx="47" cy="55" r="5.6" gradientTransform="matrix(1 0 0 .9654 0 4.3)" gradientUnits="userSpaceOnUse"><stop stop-color="#FFD03D" offset="0"/><stop stop-color="#FEC635" offset=".2"/><stop stop-color="#FDAC21" offset=".6"/><stop stop-color="#FA8100" offset="1"/></radialGradient><path d="M47.6 51.3l-.2.7c0 1.1.7 2.1 1.6 2.8l.3.2c.8.5 1.7 1 2.6 1.2l-1 1a51.4 51.4 0 0 1-6.6 6.3c-1.3-2.6-2-5.3-2.2-8 1.6-1.6 3.5-3 5.5-4.1z" fill="url(#n)"/><radialGradient id="o" cx="38.3" cy="62.1" r="5.9" gradientTransform="matrix(1 0 0 .9654 0 4.3)" gradientUnits="userSpaceOnUse"><stop stop-color="#FFD03D" offset="0"/><stop stop-color="#FFCB3A" offset=".2"/><stop stop-color="#FEBE2F" offset=".4"/><stop stop-color="#FCA81E" offset=".7"/><stop stop-color="#FB8A07" offset=".9"/><stop stop-color="#FA8100" offset="1"/></radialGradient><path d="M40.2 57.4c.5 2.6 1.3 5 2.5 7.4C40 67 37.1 69 34.2 71l-.1-1.8-.1-.4c1.2-4.2 3.4-8 6.2-11.4z" fill="url(#o)"/><radialGradient id="p" cx="35" cy="79.9" r="5.7" gradientTransform="matrix(1 0 0 .9654 0 4.3)" gradientUnits="userSpaceOnUse"><stop stop-color="#FFD03D" offset="0"/><stop stop-color="#FA8100" offset="1"/></radialGradient><path d="M31.6 85c0-3.5.3-7 .9-10.5l.2-.2C34 78.2 36 81.8 38.5 85a60.9 60.9 0 0 1-6.8 3.5l-.1-3.5z" fill="url(#p)"/><radialGradient id="q" cx="40.3" cy="92.7" r="7.9" gradientTransform="matrix(1 0 0 .9654 0 4.3)" gradientUnits="userSpaceOnUse"><stop stop-color="#FFD03D" offset="0"/><stop stop-color="#FFCC3A" offset=".2"/><stop stop-color="#FEC232" offset=".5"/><stop stop-color="#FDB024" offset=".7"/><stop stop-color="#FB9610" offset=".9"/><stop stop-color="#FA8100" offset="1"/></radialGradient><path d="M31.8 90.7c2.8-1.2 5.4-2.5 8-4a87 87 0 0 0 9 9.2 86.2 86.2 0 0 1-10.1 5 27 27 0 0 1-6.8-9.4v-.8z" fill="url(#q)"/><radialGradient id="r" cx="34.7" cy="99" r="2.2" gradientTransform="matrix(1 0 0 .9654 0 4.3)" gradientUnits="userSpaceOnUse"><stop stop-color="#FFD03D" offset="0"/><stop stop-color="#FA8100" offset="1"/></radialGradient><path d="M32.9 97.4c1.1 1.4 2.4 2.9 3.7 4.2l-2.3.7a43 43 0 0 1-1.4-5z" fill="url(#r)"/><radialGradient id="s" cx="41.5" cy="107.6" r="5.9" gradientTransform="matrix(1 0 0 .9654 0 4.3)" gradientUnits="userSpaceOnUse"><stop stop-color="#FFD03D" offset="0"/><stop stop-color="#FFCD3B" offset=".3"/><stop stop-color="#FEC434" offset=".5"/><stop stop-color="#FDB427" offset=".7"/><stop stop-color="#FC9E17" offset=".8"/><stop stop-color="#FA8201" offset="1"/><stop stop-color="#FA8100" offset="1"/></radialGradient><path d="M35 104.3l3.2-1c3 2.8 6.3 5.5 9.8 8-2.3.9-4.8 1.5-7.3 1.9a31.3 31.3 0 0 1-5.6-9z" fill="url(#s)"/><radialGradient id="t" cx="51.4" cy="116.3" r="6.9" gradientTransform="matrix(1 0 0 .9654 0 4.3)" gradientUnits="userSpaceOnUse"><stop stop-color="#FFFDE7" offset="0"/><stop stop-color="#FFC400" offset="1"/></radialGradient><path d="M42.6 115a43 43 0 0 0 7.5-2.3c3.2 2.1 6.6 4 10.2 5.7-2.9 1-5.9 1.8-9 2a27.5 27.5 0 0 1-8.7-5.4z" fill="url(#t)"/><path d="M63 122.5c-2.4 0-4.7-.2-7-.7a44 44 0 0 0 7-2.3 41 41 0 0 0 7 2.3c-2.3.5-4.7.7-7 .7z" fill="#FDD835"/><radialGradient id="u" cx="74.6" cy="116.3" r="6.9" gradientTransform="matrix(1 0 0 .9654 0 4.3)" gradientUnits="userSpaceOnUse"><stop stop-color="#FFD03D" offset="0"/><stop stop-color="#FFCD39" offset=".2"/><stop stop-color="#FFC52C" offset=".5"/><stop stop-color="#FFB816" offset=".8"/><stop stop-color="#FFAB00" offset="1"/></radialGradient><path d="M74.6 120.5c-3-.3-6-1-9-2.1 3.6-1.7 7-3.6 10.3-5.7 2.4 1 5 1.8 7.6 2.4a27.5 27.5 0 0 1-8.9 5.4z" fill="url(#u)"/><radialGradient id="v" cx="84.4" cy="107.7" r="5.9" gradientTransform="matrix(1 0 0 .9654 0 4.3)" gradientUnits="userSpaceOnUse"><stop stop-color="#FFD03D" offset="0"/><stop stop-color="#FFCD39" offset=".2"/><stop stop-color="#FFC52C" offset=".5"/><stop stop-color="#FFB816" offset=".8"/><stop stop-color="#FFAB00" offset="1"/></radialGradient><path d="M85.3 113.2c-2.5-.3-5-1-7.4-2 3.5-2.4 6.8-5 9.8-8l3.2 1.1a31.4 31.4 0 0 1-5.6 8.9z" fill="url(#v)"/><radialGradient id="w" cx="91.3" cy="98.9" r="2.3" gradientTransform="matrix(1 0 0 .9654 0 4.3)" gradientUnits="userSpaceOnUse"><stop stop-color="#FFD03D" offset="0"/><stop stop-color="#FA8100" offset="1"/></radialGradient><path d="M91.7 102.3l-2.3-.7a41 41 0 0 0 3.8-4.5 46 46 0 0 1-1.5 5.3z" fill="url(#w)"/><radialGradient id="x" cx="85.6" cy="92.7" r="8" gradientTransform="matrix(1 0 0 .9654 0 4.3)" gradientUnits="userSpaceOnUse"><stop stop-color="#fff" offset="0"/><stop stop-color="#FFFCF7" offset=".1"/><stop stop-color="#FFF5E2" offset=".2"/><stop stop-color="#FFEABF" offset=".4"/><stop stop-color="#FFDA8F" offset=".6"/><stop stop-color="#FFC652" offset=".8"/><stop stop-color="#FFAD07" offset="1"/><stop stop-color="#FFAB00" offset="1"/></radialGradient><path d="M94.2 91c-.7 2.7-3.3 6.2-7 9.9a94.8 94.8 0 0 1-10.1-5c3.2-2.8 6.3-6 9-9.2a60 60 0 0 0 8 4v.4z" fill="url(#x)"/><radialGradient id="y" cx="90.9" cy="79.9" r="5.8" gradientTransform="matrix(1 0 0 .9654 0 4.3)" gradientUnits="userSpaceOnUse"><stop stop-color="#FFD03D" offset="0"/><stop stop-color="#FFAB00" offset="1"/></radialGradient><path d="M93.5 74.5c.7 3.5 1 7 1 10.5 0 1.2 0 2.4-.2 3.5-2.3-1-4.7-2.2-6.9-3.5 2.6-3.2 4.5-6.8 5.8-10.7l.3.2z" fill="url(#y)"/><radialGradient id="z" cx="87.7" cy="62.1" r="5.9" gradientTransform="matrix(1 0 0 .9654 0 4.3)" gradientUnits="userSpaceOnUse"><stop stop-color="#FFD03D" offset="0"/><stop stop-color="#FA8100" offset="1"/></radialGradient><path d="M85.8 57.4c2.8 3.4 5 7.2 6.3 11.4a1 1 0 0 0-.2.5c0 .6 0 1.2-.2 1.8-2.9-2-5.7-4-8.5-6.2a27 27 0 0 0 2.5-7.5z" fill="url(#z)"/><radialGradient id="A" cx="78.9" cy="55" r="5.6" gradientTransform="matrix(1 0 0 .9654 0 4.3)" gradientUnits="userSpaceOnUse"><stop stop-color="#FFD03D" offset="0"/><stop stop-color="#FFCD38" offset=".1"/><stop stop-color="#FFBA19" offset=".4"/><stop stop-color="#FFAF07" offset=".8"/><stop stop-color="#FFAB00" offset="1"/></radialGradient><path d="M83.8 55.4c-.2 2.8-1 5.5-2.2 8a108.5 108.5 0 0 1-6.6-6.2l-1-1c1-.3 1.9-.7 2.7-1.3l.3-.2c1-.6 1.5-1.7 1.6-2.8l-.1-.5c2 1 3.7 2.4 5.3 4z" fill="url(#A)"/><linearGradient id="B" x1="63.5" x2="63.5" y1="5.9" y2="25.6" gradientUnits="userSpaceOnUse"><stop stop-color="#AED581" offset="0"/><stop stop-color="#8EBD60" offset=".3"/><stop stop-color="#73A743" offset=".7"/><stop stop-color="#689F38" offset=".9"/></linearGradient><path d="M63.5 6c2.2 1.8 6.3 6.5 6.9 17-1.7 1.5-3.3 3-4.7 4.7h-4.3L56.7 23c.5-10.6 4.7-15.3 6.8-17z" fill="url(#B)"/><linearGradient id="C" x1="55.4" x2="96.4" y1="24.2" y2="24.2" gradientUnits="userSpaceOnUse"><stop stop-color="#AED581" offset="0"/><stop stop-color="#8EBD60" offset=".3"/><stop stop-color="#73A743" offset=".7"/><stop stop-color="#689F38" offset=".9"/></linearGradient><path d="M96.4 3.8a86.3 86.3 0 0 0-27 16.7l-2.1 2.2-1.8 2-2-1.6c-2.5 1.7-7.5 6.4-8.1 16.8l5.6 4.6h5a58 58 0 0 1 5.7-4.6c-.2-2.2-.5-4.1-1-5.8 2.3-1.7 4.8-3.2 7.4-4.6 4-9.2 10.2-17.9 18.3-25.7z" fill="url(#C)"/><linearGradient id="D" x1="35" x2="62.2" y1="1.7" y2="35.7" gradientUnits="userSpaceOnUse"><stop stop-color="#388E3C" offset=".1"/><stop stop-color="#439542" offset=".3"/><stop stop-color="#60A654" offset=".5"/><stop stop-color="#90C36F" offset=".8"/><stop stop-color="#AED581" offset="1"/></linearGradient><path d="M30.6 3.8a86 86 0 0 1 25 14.8l2 2 2.3 2 2.1 2.5a32.6 32.6 0 0 0-5 9.4 77.8 77.8 0 0 0-8-5A80.5 80.5 0 0 0 30.6 3.8z" fill="url(#D)"/><linearGradient id="E" x1="68" x2="94.4" y1="46.9" y2="18" gradientUnits="userSpaceOnUse"><stop stop-color="#388E3C" offset=".1"/><stop stop-color="#439542" offset=".3"/><stop stop-color="#60A654" offset=".5"/><stop stop-color="#90C36F" offset=".8"/><stop stop-color="#AED581" offset="1"/></linearGradient><path d="M76.8 43.5l-.3.5-4.5 1.5-1.1.5-2.2 1-.7.4-1.6.9-.6-1-1-1.4-.3-.4-1.3-1.5-1-1 .3-.5c1-1.2 2-2.5 3.2-3.7l.8-.8.8-1 1.2-1 .4-.4a48.8 48.8 0 0 1 12.3-8c6-3 12.7-5 19.8-6.1a56 56 0 0 0-24.3 22z" fill="url(#E)"/><linearGradient id="F" x1="66.9" x2="80.9" y1="52.8" y2="38.7" gradientUnits="userSpaceOnUse"><stop stop-color="#388E3C" offset=".1"/><stop stop-color="#439542" offset=".3"/><stop stop-color="#60A654" offset=".5"/><stop stop-color="#90C36F" offset=".8"/><stop stop-color="#AED581" offset="1"/></linearGradient><path d="M83.8 41.3a26.4 26.4 0 0 0-6.9 5.3l-.5.6c-1.2 1.5-5.2 6.7-6.6 7a28.3 28.3 0 0 0-2.2-7l-.2-.4a45.6 45.6 0 0 1 7.1-3.6 36.7 36.7 0 0 1 9.2-1.9z" fill="url(#F)"/><linearGradient id="G" x1="33.3" x2="67" y1="19.5" y2="55.7" gradientUnits="userSpaceOnUse"><stop stop-color="#AED581" offset="0"/><stop stop-color="#8EBD60" offset=".3"/><stop stop-color="#73A743" offset=".7"/><stop stop-color="#689F38" offset=".9"/></linearGradient><path d="M63.9 41a64.3 64.3 0 0 0-4.2-4l-1.1-1-.4-.3a48.8 48.8 0 0 0-12.4-8.2 74 74 0 0 0-19.7-6c7.6 4 18.4 11.1 23.7 21a37.2 37.2 0 0 0-6.8-1.2 26.2 26.2 0 0 1 7 5.3l.6.6c1 1.3 4 5.2 5.7 6.5v.1a30.4 30.4 0 0 0 14.4 0c-.3-4.9-3.1-9-6.8-12.8z" fill="url(#G)"/><path d="M63.4 10.6c1.4 1.9 3 5 3.6 9.9a3 3 0 0 0 5 1.8l1.4-1.2c3.3-2.9 6.8-5.4 10.7-7.8a79.2 79.2 0 0 0-8.6 14.8 3 3 0 0 0 4.1 3.8h.1l2.7-1.5 1.4-.6a44.1 44.1 0 0 0-9.2 11.5 3 3 0 0 0 .2 3.2l-.3.3-.6.7v.1c-1.7 2.2-4 5-5.1 5.9a32 32 0 0 1-10.8 0 42.3 42.3 0 0 1-5.5-6.2l-.6-.6.1-.2a3 3 0 0 0 .3-3.3A43.7 43.7 0 0 0 43 29.8a77.6 77.6 0 0 1 4 2l.1.1a3 3 0 0 0 3.5-.4 3 3 0 0 0 .7-3.4 83 83 0 0 0-8.7-14.8c4 2.4 7.5 5 10.7 7.8l1.3 1 .2.2a3 3 0 0 0 3 .6 3 3 0 0 0 2-2.4c.6-4.9 2.2-8 3.5-9.9m33-6.6c-9.7 3.8-18 8.8-25 14.8L70 20.1c-1.2-8.3-4.7-12.3-6.6-13.8C61.5 7.8 58 11.8 57 20l-1.5-1.3A86 86 0 0 0 30.5 4c8 7.7 14.1 16.3 18.2 25.3h-.1l-2.9-1.6c-6-2.8-12.7-4.9-19.8-6 7.7 4 18.4 11.1 23.7 21L47 42c-1.4-.3-1.6-.6-3.8-.7 2.2 1 3.2 2.4 4.7 3.7l1.8 1.7.7.6c1 1.3 4 5.1 5.7 6.5v.1c1 .6 4 .9 7 .9 3.3 0 6.6-.3 7.5-.9v-.2c1.8-1.3 4.7-5.1 5.6-6.4l.6-.6c.4-.6 1-1 1.5-1.5a20 20 0 0 1 5.3-3.5c-1.5 0-3 .2-4.4.5l-2 .4c5.3-9.8 16-17 23.7-21a71.5 71.5 0 0 0-22.7 7.5c4-9 10.2-17.5 18.1-25.2zm4.5 17.7z" fill="#424242" opacity=".2"/></svg>