<svg viewBox="0 0 128 128" xmlns="http://www.w3.org/2000/svg"><radialGradient id="a" cx="44.8" cy="63.2" r="52.4" gradientTransform="matrix(.9025 .5073 -.5498 .8917 37.4 -15.9)" gradientUnits="userSpaceOnUse"><stop stop-color="#F4877F" offset=".1"/><stop stop-color="#F37B74" offset=".2"/><stop stop-color="#EF5C56" offset=".3"/><stop stop-color="#EA2927" offset=".5"/><stop stop-color="#E60505" offset=".7"/><stop stop-color="#B80404" offset=".9"/><stop stop-color="#B71C1C" offset="1"/></radialGradient><path d="M33.6 33c-9.2 3.2-25.7 17-20.3 45.6s24.9 41 30.9 43 7.9-.6 11.4.2 9.3 2.6 11.6 1.7 3-2 7-1.8 11.1-4.4 16.8-11.3 38.1-51.8 2-76c0 0-5.8-4.5-15.8-4-8.5.3-11.2 4.2-19.7 3.5-6.7-.5-12.1-4.8-24-.8z" fill="url(#a)"/><path d="M78.5 33.3a22 22 0 0 1 12.6 3.5l.2.1a32.3 32.3 0 0 1 15.1 22.5 54 54 0 0 1-6.2 30.5 99.6 99.6 0 0 1-11.5 18.6c-5.2 6.3-11.4 10.2-14.2 10.2h-1c-3.1 0-4.7.8-6 1.4l-1.3.6h-.7a40.1 40.1 0 0 1-9.2-1.8 9 9 0 0 0-2.1-.2c-1.2 0-2.2.2-3.2.4a10.4 10.4 0 0 1-6-.3c-4.6-1.6-23.5-13.2-28.7-40.7a41 41 0 0 1 4.2-30.2c4.2-6.7 10-10.6 14-12 3.1-1 5.9-1.5 8.5-1.5 3 0 5.5.6 8 1.3a27 27 0 0 0 8.4 1.3c4.1 0 7-1 9.7-1.9 2.5-.8 4.8-1.6 8.2-1.8h1.2m0-3h-1.3c-7.8.4-10.7 3.7-17.8 3.7l-1.9-.1C53 33.5 49 31.4 43 31.4a29 29 0 0 0-9.4 1.7c-9.2 3.1-25.7 17-20.3 45.5 5.5 28.6 24.8 41 30.8 43 1.7.6 3.1.8 4.3.8 2.4 0 4-.7 5.7-.7l1.5.1c2.8.7 7.2 2 10 2a5 5 0 0 0 1.6-.3c2.1-.8 2.9-1.9 6.3-1.9h1c4 0 11-4.4 16.5-11.2 5.6-6.9 38.1-51.8 2-76 0 0-5.3-4.1-14.5-4.1z" fill="#424242" opacity=".2"/><linearGradient id="b" x1="46.9" x2="79.6" y1="44.6" y2="44.6" gradientUnits="userSpaceOnUse"><stop stop-color="#E60505" stop-opacity="0" offset="0"/><stop stop-color="#42210B" offset=".5"/><stop stop-color="#E60505" stop-opacity="0" offset="1"/></linearGradient><path d="M48.3 44.8c-.8-.6-1.4-1.7-.8-2.4.6-.7 4.3-.3 7.2.2.7.2 5.7 1.6 8.7 1.5 2 0 4.3-.6 7.8-1.4 3.7-.9 3.6-1.3 5.3-1.4 1.6-.2 3.3-.2 3.5.7.2.7-.8 1.8-1.8 2.4A27.7 27.7 0 0 1 63.4 48c-6.4-.2-11.6-.9-15.1-3.3z" fill="url(#b)"/><linearGradient id="c" x1="68" x2="114.6" y1="18.8" y2="18.8" gradientTransform="rotate(3.9 86.3 20.3)" gradientUnits="userSpaceOnUse"><stop stop-color="#689F38" offset=".1"/><stop stop-color="#73A743" offset=".3"/><stop stop-color="#8EBD60" offset=".7"/><stop stop-color="#AED581" offset="1"/></linearGradient><path d="M112.5 8.5c-3 1.4-6.5-.8-10-2 0 0-7.3-2.8-15.4-1a25.5 25.5 0 0 0-11.3 5.7 27 27 0 0 0-8.2 14.6l.8 1.3h.1c4.4-.8 13 9.1 27.7 5.3s19.2-25.3 19.2-25.3h.1l-3 1.4z" fill="url(#c)"/><path d="M92.8 7.9c4.9 0 8.6 1.3 8.7 1.3l2 .9c2.3.9 4.5 1.9 7 1.9h.3c-2.2 6-6.9 15.3-15.3 17.5-2 .5-4 .8-6 .8a30 30 0 0 1-13.7-4c-1.8-.9-3.3-1.6-4.7-2A22.2 22.2 0 0 1 92.8 7.9m0-3.1a25.5 25.5 0 0 0-17 6.3 27.6 27.6 0 0 0-8.2 14.6l.8 1.4h.1l.5-.1c3.7 0 10.3 6.3 20.6 6.3 2 0 4.2-.3 6.6-.9 14.7-3.8 19.2-25.3 19.2-25.3h.1l-3 1.4a5 5 0 0 1-2 .4c-2.6 0-5.3-1.5-8-2.5 0 0-4.2-1.5-9.7-1.5z" fill="#424242" opacity=".2"/><path d="M61 38.9l.1-.2v-.4c.2-.4.3-1.2.5-2.1.5-1.9 1.2-4.6 3-7.5a19 19 0 0 1 7-7l.7-.2.8-.4c1.9-.8 4-1.3 6.2-1.5 2.2-.2 4.3 0 6.4.1 2 .2 4 .3 6 .2 2-.1 3.9-.5 5.7-1.2a40 40 0 0 0 9.4-4.7 62.1 62.1 0 0 0 7.7-5.7l.5-.5-.4.6c-.4.3-.8 1-1.5 1.6A54.2 54.2 0 0 1 98 20a20 20 0 0 1-6 1.6c-2.1.2-4.3.2-6.4.1-2 0-4-.1-6 .2-1.9.3-3.7.9-5.3 1.7l-.5.3-.7.4-1 .6-2 1.6c-1 1.2-2 2.5-2.6 3.7a22.6 22.6 0 0 0-2.6 8.7v.7l-.2.2-3.5-1z" fill="#558B2F"/><path d="M56.5 13.6c-.7-1.2-1.4-2-2-2.2-2.8-1-6.2 2.4-7 3.3 3 2.2 6.3.6 9-1.1z" fill="#42210B"/><linearGradient id="d" x1="52" x2="63" y1="13.2" y2="46.7" gradientUnits="userSpaceOnUse"><stop stop-color="#8C6239" offset="0"/><stop stop-color="#603813" offset="1"/></linearGradient><path d="M64.6 39c-1-6-5-20-8.2-25.4-2.6 1.7-6 3.3-8.8 1l-.2.3a50.3 50.3 0 0 1 12 18.8 40.2 40.2 0 0 1 3.4 13c-.2 1.2 2 .3 2 .3s1-.2-.2-8z" fill="url(#d)"/><path d="M53.5 13.3h.2l1 1.3c1.7 3.1 4 9.4 5.6 15.3-2.4-5.8-5-9.1-10-15 1-.8 2.3-1.6 3.2-1.6m0-2c-2.6 0-5.2 2.6-6 3.4v.1a50.3 50.3 0 0 1 12 18.9 40.2 40.2 0 0 1 3.3 13c0 .5.2.6.7.6.6 0 1.4-.3 1.4-.3s1-.2-.3-8c-1-6-5-20-8.1-25.4-.7-1.2-1.4-2-2-2.2l-1-.2z" fill="#424242" opacity=".2"/></svg>