<svg viewBox="0 0 128 128" xmlns="http://www.w3.org/2000/svg"><path d="M-166.8 31.8h3.3l-.4.5c-.5-1-1-2-1.2-3 .8.8 1.3 1.7 1.8 2.7l-.3.5c-1.1-.1-2.2-.3-3.2-.7zm4.3-19.2h3.3l-.3.5c-.5-1-1-2-1.2-3 .7.8 1.3 1.7 1.8 2.7l-.4.5c-1-.1-2.1-.3-3.2-.7zm7.7-6.6c1 .6 1.7 1.3 2.4 2.1l-.6.2c.3-1 .7-2.1 1.3-3 0 1-.3 2.1-.6 3.2l-.6.1c-.7-.8-1.4-1.6-1.9-2.6zm36 21.2c.7.8 1.3 1.8 1.8 2.7h-.6c.5-1 1.1-1.9 1.9-2.7-.3 1.1-.8 2-1.3 3h-.6c-.5-1-1-1.9-1.3-3zm-22.3-20.8c.3 1 .5 2.2.6 3.2l-.6-.2 2.8-1.7a13 13 0 0 1-2.4 2.3l-.5-.3c0-1-.1-2.2.1-3.3zm36.2 29.6c-.4 1-1 2-1.7 2.8l-.2-.5c1 0 2.2.2 3.2.6a14 14 0 0 1-3.3 0l-.2-.5c.6-.8 1.3-1.7 2.2-2.4zm.7 13.2c-.7.9-1.6 1.6-2.4 2.3l-.1-.6c1 .4 2 .8 3 1.4-1.2-.1-2.2-.4-3.3-.8V51c.8-.6 1.7-1.2 2.8-1.7zm0 10.8c-.8.7-1.8 1.3-2.7 1.8v-.6a13 13 0 0 1 2.6 2l-3-1.4v-.6c1-.5 2-1 3.1-1.2z" fill="#33691E"/><linearGradient id="a" x1="10.2" x2="107.7" y1="17.3" y2="114.8" gradientUnits="userSpaceOnUse"><stop stop-color="#9CCC65" offset="0"/><stop stop-color="#9BCB64" offset="0"/><stop stop-color="#76AB44" offset=".5"/><stop stop-color="#689F38" offset=".8"/></linearGradient><path d="M107.5 32.6a5 5 0 0 1-3.7-5.4c1.3-10.1-8-14.2-10.4-15-.3-.2-.6-.3-1-.3-17-2.5-20.7 21.7-21.4 34.3a5 5 0 0 1-5.6 4.7l-1.1-.2a5 5 0 0 1-3.8-6.5c4-12 9.5-35.8-7.2-39.8l-1-.1c-2.5-.1-12.7.2-15.2 10a5 5 0 0 1-5.4 3.8c-10.1-1.3-14.2 8-15 10.3l-.3 1C14 45.6 35.6 49.7 48.6 50.7a5 5 0 0 1 4.6 5.7 5 5 0 0 1-6.4 4.2c-12.4-4-34-8-37.9 7.8l-.1 1c0 2.5.3 12.7 10.1 15.2 2.5.6 4 3 3.7 5.4-1.3 10.1 8 14.2 10.4 15 .3.2.6.3 1 .3 15.7 2.3 20-18.2 21.2-31.2a5 5 0 0 1 3.7-4.4c-.4 6-3 27.8-18.9 39.4-.6.6-1.4 1-2 1.4l-2 1.2-3.7 1.7c-1 .4-2 .8-2.9 1l-2.6.8h-.3l-1 .5a5 5 0 0 0-2.2 4.5c.4 3 3.3 4 6 3.6 0 0 3-.3 5-1C61.5 113.5 62 77.4 63.5 70c1.6 1.2 2.1 3.9 1.5 6-3.8 12.5-7.3 33 8.1 36.8l1 .1c2.5.1 12.7-.2 15.2-10.1a5 5 0 0 1 5.5-3.7c10 1.3 14.1-8 15-10.4l.2-1c2.4-16.5-20.5-20.5-33.3-21.3a5 5 0 0 1-4.5-6.3l.2-.7a5 5 0 0 1 6.2-3.1c12.3 4 35 8.8 38.9-7.5l.1-1c.1-2.5-.2-12.7-10.1-15.2z" fill="url(#a)"/><path d="M51.8 7.3h.8c3.2.8 5.5 2.5 7 5.2 4.7 8.4.2 24.3-2 30.8a8 8 0 0 0 6.1 10.3 28.8 28.8 0 0 0 2.4.3 8 8 0 0 0 8-7.5c.2-4.7 1-13.6 3.9-20.8 2.9-7.3 6.8-10.9 12.1-10.9a14.2 14.2 0 0 1 2.3.3c1 .3 3.4 1.4 5.5 3.3a9.7 9.7 0 0 1 3 8.5 8 8 0 0 0 5.9 8.7c7.5 2 7.9 9.8 7.8 12.2v.4c-.6 2.2-2.2 9-15 9-7 0-14.8-2-20-3.6a7.9 7.9 0 0 0-10.3 5.9 8 8 0 0 0 7.2 10c13.9.9 24.2 4.4 28.4 9.5a10.3 10.3 0 0 1 2 8.8c-.7 2-3.6 8.5-10.3 8.5h-1.4l-1-.1a8 8 0 0 0-7.8 6c-.6 2.3-3 7.8-11.8 7.8h-.8c-3.2-.8-5.4-2.4-7-5-4.2-7.5-1.2-20.8 1-28 1-3 .4-7.1-2.5-9.3a3 3 0 0 0-4 .3c0-.2-.3-.4-.5-.5a3 3 0 0 0-2.6-.7 8 8 0 0 0-6 7.1 62.4 62.4 0 0 1-4.4 19.4c-2.9 6.2-6.6 9.3-11.5 9.3a14 14 0 0 1-2.3-.3c-1-.3-3.4-1.3-5.5-3.3a9.4 9.4 0 0 1-3-8.5 8 8 0 0 0-5.8-8.7c-7.6-2-8-9.8-8-12.2l.1-.4c.6-2.2 2.2-9.1 15-9.1 6.8 0 14.1 1.9 19 3.4a7.9 7.9 0 0 0 10.3-6.8l.1-.5a8 8 0 0 0-7.4-8.4c-7.8-.6-21.8-2.6-27.3-9.5a10.3 10.3 0 0 1-2-8.7c.7-2 3.6-8.5 10.3-8.5h1.5l1 .1a8 8 0 0 0 7.7-6c.6-2.3 3-7.8 11.8-7.8m4.5 85.3c-3.3 11.1-9.8 22.8-23 27.3h-.1c-1.3.5-3.5.9-4.2 1h-.1a5 5 0 0 1-.7 0c-.8 0-1.8-.2-2-1.1 0-.4.4-1.3.8-1.5l.3-.1.3-.1 2.6-.7h.2l2.3-1 .7-.2h.2l1-.5a27 27 0 0 0 5-2.7c.2 0 .3-.2.5-.3l1.7-1.2a46 46 0 0 0 14.5-18.9M51.8 4.2c-3 0-12.3.8-14.7 10.2a5 5 0 0 1-5.4 3.7 15 15 0 0 0-2-.2c-8.7 0-12.3 8.4-13 10.5l-.3 1C14 45.5 35.6 49.7 48.6 50.7a5 5 0 0 1 4.6 5.7 5 5 0 0 1-6.4 4.2c-5.6-1.8-13-3.6-20-3.6C18.6 57 11 59.7 9 68.4l-.1 1c0 2.5.3 12.6 10.1 15.2 2.4.6 4 3 3.7 5.4-1.3 10.1 8 14.2 10.4 15 .3.2.6.3 1 .3l2.3.2c13.8 0 17.8-19 18.9-31.4a5 5 0 0 1 3.7-4.4c-.4 6-3.1 27.8-18.9 39.4l-2 1.4-2 1.2-3.7 1.7c-1.1.4-2 .8-2.9 1l-2.6.8h-.3l-1 .5a5 5 0 0 0-2.2 4.5c.3 2.6 2.6 3.7 5 3.7h1s3-.4 5-1.2c27-9.2 27.6-45.3 29-52.7 1.6 1.2 2.1 3.9 1.5 6-3.8 12.5-7.3 33 8.1 36.8l1 .1h.5c3 0 12.3-.8 14.7-10a5 5 0 0 1 5.5-3.8l1.8.1c8.8 0 12.4-8.3 13.2-10.5l.2-1c2.4-16.5-20.5-20.5-33.3-21.3a5 5 0 0 1-4.5-6.3l.2-.7a4.9 4.9 0 0 1 6.2-3 71.8 71.8 0 0 0 21 3.8c8.3 0 15.8-2.7 17.9-11.4l.1-1c0-2.5-.3-12.7-10.1-15.2a5 5 0 0 1-3.7-5.5c1.3-10-8-14.1-10.4-15l-1-.2a16 16 0 0 0-2.3-.2c-15 0-18.4 22.5-19 34.5a5 5 0 0 1-5.7 4.6l-1.2-.1a5 5 0 0 1-3.8-6.5c4-12 9.6-35.8-7.2-39.8l-1-.2h-.4z" fill="#424242" opacity=".2"/></svg>