<svg viewBox="0 0 128 128" xmlns="http://www.w3.org/2000/svg"><path d="M123 83.74C123 104.32 97.14 120 64 120S5 104.32 5 83.74c0-2.9-.96-5.16-.96-5.16H124s-1 2.05-1 5.16z" fill="#9D9D9D"/><linearGradient id="a" x1="35.009" x2="88.772" y1="50.714" y2="104.48" gradientUnits="userSpaceOnUse"><stop stop-color="#FAFBFB" offset=".171"/><stop stop-color="#eee" offset=".87"/></linearGradient><ellipse cx="64" cy="79.71" rx="60" ry="37.26" fill="url(#a)"/><circle cx="76.08" cy="76.78" r="9" fill="#F5F5F5"/><circle cx="63.98" cy="83.25" r="9" fill="#F5F5F5"/><path d="M110.68 74.01c-.97 2.02 1.12 4.6 2.07 7.24 1.16 3.26-.14 7.81-4 11-4.51 3.74-6.33 2.53-9.39 4.47-2.93 1.86-1.6 4.17-5.37 6.66-1.43.94-6.67.39-9.4 1.03-3.87.91-8.51 3.21-17.79 3.32-5.88.07-13.41-.93-18.57-2.3-3.44-.91-4.51-2.78-7.52-4.09-6.58-2.88-15.7-1.99-20.7-10.22-1.61-2.64 0-3.48-.88-6.63-.75-2.69-3.23-2.81-3.23-7.79 0-16.74 16.2-28.48 49.96-28.48 29.24.01 50.69 13.61 44.82 25.79z" fill="#9A5A25"/><radialGradient id="b" cx="79.164" cy="55.665" r="10.855" gradientTransform="matrix(1 0 0 .6527 0 19.332)" gradientUnits="userSpaceOnUse"><stop stop-color="#FBC41F" offset=".559"/><stop stop-color="#D09C2B" offset="1"/></radialGradient><path d="M81.47 64.07s-5.4 1.07-8.95-3.98c-2.08-2.96.98-4.7 4.12-6.25 3.13-1.55 7.91-.63 10.78 1.15s2.56 3.97 2.56 3.97c-.1.22-.41 4.32-8.51 5.11z" fill="url(#b)"/><path d="M80.43 54.04c2.2 0 4.68.69 6.46 1.79 2.05 1.27 2.11 2.69 2.1 2.94-.01.02-.01.04-.02.06-.53 2.31-3.23 3.81-7.61 4.23-.03 0-.06.01-.09.01 0 0-.41.08-1.06.08-1.61 0-4.65-.47-6.88-3.65-.63-.9-.5-1.41-.46-1.58.33-1.29 2.75-2.49 4.2-3.2.92-.44 2.08-.68 3.36-.68m0-1c-1.37 0-2.68.24-3.79.79-3.13 1.55-6.19 3.29-4.12 6.25 2.49 3.55 5.89 4.08 7.7 4.08.77 0 1.25-.1 1.25-.1 8.09-.79 8.41-4.89 8.51-5.12 0 0 .31-2.19-2.56-3.97-1.85-1.13-4.5-1.93-6.99-1.93z" fill="#434343" opacity=".2"/><path d="M88.74 62.95c.46.47-4.8 2.18-7.18 2.18s-7.39-1.73-7.39-2.39 2.38-1.4 3.5-.8c4.31 2.32 7.58-2.59 11.07 1.01z" fill="#9A5A25"/><radialGradient id="c" cx="92.751" cy="61.605" r="8.062" gradientTransform="matrix(1 0 0 .7994 0 12.357)" gradientUnits="userSpaceOnUse"><stop stop-color="#F37123" offset=".535"/><stop stop-color="#E05F26" offset="1"/></radialGradient><path d="M86.56 64.16c1.22-3.53 2.2-4.17 5-5.51 2.79-1.34 6.78.17 9.07 2.39.02.02.05.04.07.07 1.98 1.97 1.41 5.36-1.07 6.63-.98.5-7.67 1.56-12.25-.01-1.18-.4-1.17-2.56-.82-3.57z" fill="url(#c)"/><path d="M65.86 49.23c22.97 0 38.47 8.01 43.14 15.44 1.9 3.03 2.16 6.03.78 8.91-.89 1.86.08 3.85 1.03 5.79.36.73.73 1.49.99 2.23 1.11 3.11-.41 7.18-3.69 9.9-2.54 2.1-4.14 2.53-5.68 2.94-1.11.29-2.25.6-3.61 1.45-1.63 1.03-2.18 2.26-2.66 3.33-.5 1.12-.97 2.18-2.72 3.34-.56.37-2.75.44-4.35.48-1.69.05-3.43.1-4.73.41-.97.23-1.99.54-3.07.87-3.39 1.04-7.62 2.34-14.5 2.42h-.58c-5.48 0-12.61-.91-17.73-2.27-1.82-.48-2.88-1.23-4.1-2.1-.94-.66-1.91-1.35-3.27-1.94-2.07-.91-4.4-1.46-6.65-1.99-5.08-1.2-10.32-2.45-13.59-7.83-.72-1.18-.65-1.83-.54-2.81.09-.88.21-1.98-.23-3.57-.34-1.2-.97-1.99-1.53-2.68-.86-1.06-1.67-2.07-1.67-4.84 0-8.15 4.09-14.95 11.84-19.66 8.53-5.19 21.02-7.82 37.12-7.82m0-1c-33.76 0-49.96 11.74-49.96 28.48 0 4.99 2.48 5.1 3.23 7.79.88 3.15-.73 3.99.88 6.63 5 8.23 14.12 7.34 20.7 10.22 3.01 1.32 4.07 3.18 7.52 4.09 4.99 1.32 12.2 2.3 17.99 2.3h.59c9.28-.11 13.92-2.42 17.79-3.32 2.73-.64 7.97-.08 9.4-1.03 3.77-2.49 2.44-4.81 5.37-6.66 3.06-1.94 4.88-.73 9.39-4.47 3.86-3.19 5.16-7.75 4-11-.94-2.64-3.04-5.22-2.07-7.24 5.86-12.19-15.59-25.79-44.83-25.79z" fill="#434343" opacity=".2"/><radialGradient id="d" cx="47.498" cy="47.741" r="37.28" gradientTransform="matrix(0 1 -1.0588 0 98.045 .243)" gradientUnits="userSpaceOnUse"><stop stop-color="#fff" offset=".483"/><stop stop-color="#ECEFF0" offset=".724"/><stop stop-color="#D0D8DC" offset=".965"/></radialGradient><path d="M78.22 73.61c-.02-.04-.04-.09-.07-.13-.36-.66-.42-1.41-.27-2.15.18-.87.05-1.83-.21-2.81-.23-.87-.52-1.5-.84-1.95-2.46-7.69-13.74-19.78-28.1-19.78-12.84 0-23.28 9.66-27.17 17.15 0 0-2.62 3.48-2.91 7.05-.3 3.67 2.14 4.29 2.3 5.65.23 1.92 1.05 4.23 3.3 4.66.89.17 1.5.97 1.99 1.7 2.36 3.5 4.56 4.48 8.37 4.58 1.54.04 5.18.63 5.89 1.02.98.53 2.21.85 3.55.85.91 0 1.77-.15 2.53-.4 1.14-.39 2.37-.37 3.51.01 1.06.35 2.32.5 3.66.38 1.42-.12 2.7-.52 3.72-1.1 1.14-.65 2.53-.83 3.79-.45 1.09.33 2.38.38 3.71.09 1.74-.38 3.17-1.26 3.99-2.34.72-.95 1.82-1.61 3.04-1.76.49-.06.99-.2 1.49-.41 1.16-.5 1.75-1.88 2.03-3.03.26-1.04.84-1.98 1.64-2.74 1.22-1.16 1.7-2.75 1.06-4.09z" fill="url(#d)"/><path d="M53.13 80.8c.19 1.01-1.02 2.15-2.69 2.54s-3.19-.11-3.37-1.12c-.19-1.01 1.02-2.15 2.69-2.54 1.67-.4 3.18.11 3.37 1.12zM71.13 73.07c.91.39 1.17 2.06.56 3.74-.6 1.68-1.83 2.72-2.75 2.33-.91-.39-1.17-2.06-.56-3.74s1.84-2.72 2.75-2.33zM31.31 82.59c-.99-.05-1.75-1.55-1.71-3.34s.87-3.2 1.86-3.15 1.75 1.55 1.71 3.34-.87 3.2-1.86 3.15zM43.71 83.83c.03 1.03-1.34 1.94-3.06 2.04-1.71.1-3.12-.66-3.15-1.69s1.34-1.94 3.06-2.04c1.72-.09 3.13.66 3.15 1.69z" fill="#90A4AE" opacity=".2"/><path d="M61.29 78.14c-.83.56-2.29-.18-3.26-1.66s-1.09-3.13-.26-3.69 2.29.18 3.26 1.66 1.08 3.13.26 3.69zM32.34 66.44c-.71-.12-1.11-1.16-.89-2.31s.97-1.99 1.68-1.87 1.11 1.16.89 2.31-.97 1.99-1.68 1.87zM38.94 77.56c-.71-.12-1.11-1.16-.89-2.31s.97-1.99 1.68-1.87 1.11 1.16.89 2.31-.97 1.99-1.68 1.87zM23 69c-.71-.12-1.11-1.16-.89-2.31s.97-1.99 1.68-1.87 1.11 1.16.89 2.31S23.71 69.12 23 69zM52.74 74.83c-.49.55-1.53.34-2.34-.48s-1.07-1.94-.58-2.49 1.53-.34 2.34.48 1.07 1.93.58 2.49z" fill="#D0D8DC" opacity=".2"/><path d="M64.36 83.04c.33.61-.29 1.54-1.38 2.08s-2.25.48-2.58-.13.29-1.54 1.38-2.08 2.25-.49 2.58.13z" fill="#90A4AE" opacity=".2"/><path d="M23.09 71.69c.8-.16 1.58.94 1.75 2.45s-.34 2.87-1.14 3.03-1.58-.94-1.75-2.45.34-2.87 1.14-3.03zM32.03 70.78c.32.78-.54 1.81-1.93 2.3-1.38.49-2.76.26-3.08-.53-.32-.78.54-1.81 1.93-2.3 1.39-.48 2.77-.25 3.08.53z" fill="#B0BEC5" opacity=".2"/><path d="M68.4 67.68c.22.66-.74 1.54-2.14 1.97s-2.72.25-2.94-.41.74-1.54 2.14-1.97 2.72-.24 2.94.41zM66.16 76.63c-.65.17-1.35-.69-1.57-1.9-.22-1.22.12-2.34.77-2.5.65-.17 1.35.69 1.57 1.9s-.13 2.33-.77 2.5zM53.39 67.08c-.65.17-1.35-.69-1.57-1.9-.22-1.22.12-2.34.77-2.5s1.35.69 1.57 1.9-.12 2.33-.77 2.5zM37.92 63.76c-.52-.43-.32-1.53.46-2.47s1.84-1.35 2.36-.92.32 1.53-.46 2.47-1.83 1.35-2.36.92zM29.36 59.61c.41.57.05 1.48-.8 2.04s-1.87.56-2.28-.01-.05-1.48.8-2.04 1.87-.56 2.28.01zM45.58 66.65c.41.57.05 1.48-.8 2.04s-1.87.56-2.28-.01-.05-1.48.8-2.04c.85-.55 1.87-.55 2.28.01zM60.14 63.86c.41.57.05 1.48-.8 2.04s-1.87.56-2.28-.01-.05-1.48.8-2.04 1.87-.56 2.28.01zM73.59 65.54c-.27.64-1.26.86-2.22.5s-1.52-1.18-1.26-1.82 1.26-.86 2.22-.5 1.52 1.18 1.26 1.82zM39.28 52.76c.23.65-.38 1.44-1.36 1.75s-1.96.04-2.19-.62.38-1.44 1.36-1.75 1.96-.03 2.19.62zM55.01 57.7c-.07.68-.97 1.16-2 1.06s-1.8-.74-1.73-1.42.97-1.16 2-1.06 1.81.74 1.73 1.42z" fill="#D0D8DC" opacity=".2"/><radialGradient id="e" cx="100.23" cy="70.48" r="7.641" gradientTransform="matrix(.9314 -.364 .1825 .4668 -5.982 74.066)" gradientUnits="userSpaceOnUse"><stop stop-color="#FBC41F" offset=".489"/><stop stop-color="#D09C2B" offset="1"/></radialGradient><path d="M94.97 73.38c-.64-1.93 2.87-3.77 5.23-4.83s4.87-.07 6.8 1.69c.02.02.04.04.06.05 1.37 1.29.78 3.6-1.01 4.2-3.07 1.01-9.83 2.61-11.08-1.11z" fill="url(#e)"/><path d="M93.93 59.15c1.98 0 4.39 1.05 6 2.61l.06.06c.7.7 1.02 1.68.86 2.69-.16 1.03-.77 1.88-1.68 2.34-.44.21-2.98.71-5.92.71-2.16 0-4.07-.27-5.54-.77-.08-.03-.24-.26-.31-.75-.08-.59.01-1.21.12-1.55 1.11-3.21 1.84-3.67 4.48-4.93.55-.27 1.2-.41 1.93-.41m0-1c-.84 0-1.65.16-2.37.5-2.79 1.34-3.78 1.98-5 5.51-.35 1.01-.36 3.16.81 3.57 1.79.62 3.9.83 5.87.83 3.06 0 5.78-.51 6.38-.82 2.49-1.26 3.05-4.66 1.07-6.63-.02-.02-.05-.04-.07-.07-1.69-1.64-4.31-2.89-6.69-2.89z" fill="#434343" opacity=".2"/><radialGradient id="f" cx="61.558" cy="99.358" r="5.915" gradientUnits="userSpaceOnUse"><stop stop-color="#F37123" offset=".535"/><stop stop-color="#E05F26" offset="1"/></radialGradient><path d="M68.68 100.99c.72-2.15-3.21-4.21-5.84-5.39s-5.43-.08-7.59 1.88l-.06.06c-1.53 1.44-.87 4.02 1.12 4.68 3.44 1.14 10.98 2.93 12.37-1.23z" fill="url(#f)"/><path d="M102.23 69.11c1.32 0 2.78.66 4.1 1.86l.04.04c.37.35.52.85.41 1.36-.12.55-.51.98-1.04 1.16-1.07.36-3.83 1.18-6.25 1.18-3.01 0-3.43-1.24-3.56-1.65-.04-.13-.29-1.37 4.69-3.6.51-.23 1.05-.35 1.61-.35m0-1c-.68 0-1.36.14-2.03.44-2.36 1.06-5.87 2.9-5.23 4.83.59 1.77 2.42 2.34 4.51 2.34 2.32 0 4.95-.7 6.57-1.23 1.79-.59 2.38-2.9 1.01-4.2-.02-.02-.04-.04-.06-.05-1.38-1.27-3.06-2.13-4.77-2.13z" fill="#434343" opacity=".2"/><path d="M101.31 67.15c.59.39-4.94 2.61-7.57 2.39-7.5-.63-8.41-3.1-7.71-2.93 1.52.37 1.66-.65 3.39-.26 6.18 1.4 7.22-2.23 11.89.8zM109.61 74.7c.64.39-5.29 2.61-8.1 2.39-8.03-.63-9.01-3.1-8.25-2.93 1.63.37 1.78-.65 3.63-.26 6.61 1.41 7.73-2.22 12.72.8z" fill="#9A5A25"/><path d="M64 45.45c15.47 0 29.98 3.71 40.84 10.46C115.26 62.38 121 70.83 121 79.71s-5.74 17.33-16.16 23.79c-10.86 6.75-25.37 10.46-40.84 10.46s-29.98-3.71-40.84-10.46C12.74 97.03 7 88.58 7 79.71s5.74-17.33 16.16-23.79C34.02 49.17 48.53 45.45 64 45.45m0-3c-33.14 0-60 16.68-60 37.26s26.86 37.26 60 37.26 60-16.68 60-37.26-26.86-37.26-60-37.26z" fill="#434343" opacity=".2"/><path d="M48.73 47.79c13.54 0 24.65 11.29 27.15 19.09.03.1.08.19.14.28.27.39.51.93.69 1.63.26.97.32 1.74.19 2.35-.21 1.02-.08 2 .37 2.83.01.03.03.06.04.08.43.89.1 2.04-.84 2.92-.96.91-1.63 2.02-1.92 3.22-.18.72-.6 1.98-1.46 2.35-.39.17-.8.28-1.21.34-1.46.18-2.81.97-3.71 2.15-.72.94-1.96 1.66-3.41 1.97-.5.11-1.01.16-1.51.16-.61 0-1.18-.08-1.71-.24s-1.08-.24-1.65-.24c-1.03 0-2.04.27-2.93.78-.93.53-2.07.87-3.3.97-.26.02-.53.03-.79.03-.87 0-1.73-.13-2.47-.37-.69-.22-1.39-.34-2.1-.34-.7 0-1.39.11-2.05.34-.69.23-1.43.35-2.21.35-1.12 0-2.21-.26-3.08-.73-1-.54-4.92-1.1-6.34-1.14-3.67-.1-5.51-1.1-7.56-4.14-.65-.96-1.42-1.89-2.63-2.12-1.82-.35-2.35-2.53-2.49-3.79-.09-.79-.57-1.34-1.04-1.87-.7-.8-1.42-1.63-1.26-3.58.24-2.98 2.34-6 2.67-6.47.05-.06.1-.13.14-.2 3.47-6.68 13.33-16.61 26.28-16.61m0-1c-12.84 0-23.28 9.66-27.17 17.15 0 0-2.62 3.48-2.91 7.05-.3 3.67 2.14 4.29 2.3 5.65.23 1.92 1.05 4.23 3.3 4.66.89.17 1.5.97 1.99 1.7 2.36 3.5 4.56 4.48 8.37 4.58 1.54.04 5.18.63 5.89 1.02.98.53 2.21.85 3.55.85.91 0 1.77-.15 2.53-.4.56-.19 1.15-.28 1.73-.28.6 0 1.2.1 1.79.29.83.27 1.77.42 2.78.42.29 0 .58-.01.88-.04 1.42-.12 2.7-.52 3.72-1.1.74-.42 1.59-.64 2.44-.64.46 0 .92.06 1.36.2.61.18 1.28.28 1.99.28.56 0 1.13-.06 1.72-.19 1.74-.38 3.17-1.26 3.99-2.34.72-.95 1.82-1.61 3.04-1.76.49-.06.99-.2 1.49-.41 1.16-.5 1.75-1.88 2.03-3.03.26-1.04.84-1.98 1.64-2.74 1.22-1.15 1.7-2.74 1.06-4.08-.02-.04-.04-.09-.07-.13-.36-.66-.42-1.41-.27-2.15.18-.87.05-1.83-.21-2.81-.23-.87-.52-1.5-.84-1.95-2.49-7.71-13.76-19.8-28.12-19.8z" fill="#434343" opacity=".2"/><path d="M79.82 75.71c.4-4.51-3.47-11.37-3.47-11.37s2.82 7.65-.28 8.27c-2.79.55-1.6 4.78-4 6.74-3.41 2.79-7.42-1.78-10.52 2.79-3.49 5.12-10.9 5.15-12.93 3.75-1.98-1.37-6.02-1.91-10.64-.55-7.1 2.09-12.76-4.26-13.25-3.8-2.86 2.69 12.77 14.87 47.34 4.85 6.29-1.82 7.35-6.17 7.75-10.68z" fill="#9A5A25"/><path d="M60.58 96.12c.64 0 1.26.13 1.85.4 5.53 2.48 5.38 3.9 5.3 4.16-.43 1.28-1.8 1.92-4.09 1.92-2.72 0-5.81-.93-7.02-1.33-.63-.21-1.09-.72-1.24-1.38-.14-.61.04-1.21.49-1.63l.05-.05c1.5-1.35 3.15-2.09 4.66-2.09m0-1c-1.91 0-3.78.96-5.33 2.37l-.06.06c-1.53 1.44-.87 4.02 1.12 4.68 1.8.6 4.74 1.38 7.33 1.38 2.33 0 4.38-.63 5.03-2.61.72-2.15-3.21-4.21-5.84-5.39-.73-.34-1.49-.49-2.25-.49z" fill="#434343" opacity=".2"/><path d="M72.6 98.6c.77.32-1.25 6.27-10.53 6.26-9.33-.01-10.44-3.1-9.56-2.93 1.89.37 3.9-.83 6.01-.29 9.52 2.42 10.26-4.65 14.08-3.04z" fill="#9A5A25"/><radialGradient id="g" cx="93.145" cy="73.228" r="8.96" gradientTransform="matrix(.7975 .6033 -.419 .554 42.851 -21.6)" gradientUnits="userSpaceOnUse"><stop stop-color="#6C463F" offset="0"/><stop stop-color="#5A352E" offset=".784"/></radialGradient><path d="M82.86 78.35c.76-2.25 3.28-5.07 6.22-4.4s5.48 1.54 7.01 4.64c0 0 3.66 5-3.05 5.55-3.77.32-11.65-1.44-10.18-5.79z" fill="url(#g)"/><path d="M88.19 74.85c.22 0 .45.03.67.08 2.66.61 4.97 1.34 6.34 4.11l.09.15c.25.34 1.11 1.81.69 2.72-.3.67-1.38 1.11-3.02 1.25-.25.02-.53.03-.82.03-2.95 0-6.88-1.04-8.08-2.72-.39-.55-.47-1.12-.24-1.79.61-1.85 2.46-3.83 4.37-3.83m0-1c-2.55 0-4.65 2.48-5.33 4.5-1.36 4.02 5.29 5.83 9.27 5.83.32 0 .62-.01.91-.03 6.71-.55 3.05-5.55 3.05-5.55-1.53-3.1-4.07-3.96-7.01-4.64-.3-.07-.6-.11-.89-.11z" fill="#434343" opacity=".2"/><path d="M99.75 81.86c.73.4-2.34 5.63-9.87 4.25-5.88-1.08-8.96-3.61-8.34-4.25.99-1.02 2.23-.64 4.31 0 11.32 3.49 10.26-1.98 13.9 0z" fill="#9A5A25"/><radialGradient id="h" cx="40.975" cy="88.555" r="8.821" gradientTransform="matrix(1 0 0 .6946 0 27.044)" gradientUnits="userSpaceOnUse"><stop stop-color="#6C463F" offset="0"/><stop stop-color="#5A352E" offset=".784"/></radialGradient><path d="M35.51 92c-.75-2.25 1.36-4.41 4.11-5.64s7.68-.09 9.94 1.97c.02.02.04.04.07.06 1.6 1.51.91 4.21-1.18 4.9-3.59 1.19-11.49 3.07-12.94-1.29z" fill="url(#h)"/><path d="M42.37 86.85c2.36 0 5.09.93 6.51 2.22l.05.05c.48.45.67 1.09.52 1.75-.16.7-.65 1.25-1.33 1.48-1.26.42-4.5 1.39-7.36 1.39-2.41 0-3.87-.69-4.32-2.04-.56-1.69 1.39-3.43 3.57-4.41.63-.29 1.44-.44 2.36-.44m0-1c-1.02 0-1.98.16-2.76.51-2.75 1.23-4.86 3.39-4.11 5.64.69 2.07 2.83 2.73 5.27 2.73 2.71 0 5.78-.82 7.67-1.44 2.09-.69 2.78-3.39 1.18-4.9a.435.435 0 0 0-.07-.06c-1.61-1.47-4.6-2.48-7.18-2.48z" fill="#434343" opacity=".2"/><path d="M52.57 89.7c.73.4-1.98 6.97-11.22 6.03-9.28-.94-9.97-5-9.11-4.74 1.84.56 3.96-.44 6.01.31 9.24 3.38 10.69-3.58 14.32-1.6z" fill="#9A5A25"/><radialGradient id="i" cx="83.052" cy="88.274" r="11.326" gradientTransform="matrix(.9908 -.1356 .0817 .5971 -7.283 46.87)" gradientUnits="userSpaceOnUse"><stop stop-color="#FBC41F" offset=".287"/><stop stop-color="#D09C2B" offset="1"/></radialGradient><path d="M73.78 91.58c-.69-2.82 4.54-5.03 8.02-6.26s6.94.47 9.48 3.2c.03.03.05.05.07.08 1.8 2 .69 5.22-1.93 5.86-4.49 1.08-14.31 2.57-15.64-2.88z" fill="url(#i)"/><path d="M84.14 85.91c2.15 0 4.43 1.17 6.4 3.29l.06.07c.59.66.78 1.53.51 2.4-.28.91-1 1.59-1.93 1.82-1.57.38-4.65 1.02-7.68 1.02-3.97 0-6.24-1.06-6.76-3.16-.17-.69.22-2.55 7.38-5.08.66-.24 1.34-.36 2.02-.36m0-1c-.78 0-1.56.13-2.35.41-3.48 1.23-8.7 3.44-8.02 6.26.74 3.04 4.11 3.92 7.73 3.92 2.88 0 5.92-.56 7.92-1.04 2.62-.63 3.73-3.85 1.93-5.86-.02-.03-.05-.05-.07-.08-1.97-2.12-4.49-3.61-7.14-3.61z" fill="#434343" opacity=".2"/><path d="M94.91 92.2c.58.6-.4 6.14-11.63 5.25-9.3-.73-10.24-3.72-9.37-3.49 1.87.48 3.44-1.54 5.51-.88 9.37 3 12.81-3.62 15.49-.88z" fill="#9A5A25"/></svg>