<svg viewBox="0 0 128 128" xmlns="http://www.w3.org/2000/svg"><linearGradient id="a" x1="86.6" x2="86.6" y1="68.9" y2="109.5" gradientUnits="userSpaceOnUse"><stop stop-color="#EF9D50" offset="0"/><stop stop-color="#CF8745" offset="1"/></linearGradient><path d="M51.8 108.8l10 14s46.3-22.2 52.4-25.4 6.8-4.7 7.1-6.4c.3-1.6-.4-30.5-.4-33.1C102.3 67.9 80.3 69 65.2 83a52.9 52.9 0 0 0-13.4 25.7z" fill="url(#a)"/><linearGradient id="b" x1="66.8" x2="66.8" y1="20" y2="77" gradientUnits="userSpaceOnUse"><stop stop-color="#EF8650" offset=".1"/><stop stop-color="#A85529" offset=".8"/><stop stop-color="#C66029" offset="1"/></linearGradient><path d="M123.7 46.5c-.5-10.4-12-14.6-25.9-18.6s-26.4-2.6-30.4-1.8-14.3 4.8-17 7-39.8 15.4-39.8 15.4l-.8.4 42 60A52 52 0 0 1 65 83.4c15-14 37-15.3 56-25.4v-.3s3-3.5 2.7-11.2z" fill="url(#b)"/><linearGradient id="c" x1="12.7" x2="74.5" y1="54.1" y2="128.3" gradientUnits="userSpaceOnUse"><stop stop-color="#FBDDA3" offset="0"/><stop stop-color="#E0C692" offset="1"/></linearGradient><path d="M5.3 53.2A13.3 13.3 0 0 0 4 60.7c.4 4 3.3 6.7 4.7 10.3 1.5 3.5.8 7 .8 10.7-.2 5.8 0 11.6-.1 17.4-.1 3.7-.5 10.7 2.8 13.1 3.1 2.3 7.3 3.3 11 4.3 7.3 1.9 14.7 3.8 22.1 5.3 3.4.7 6.8 1.3 10.3 1.6 1.8 0 4.7.5 6.3-.5 2-1.3 2.5-3.8 2.6-6l.2-10.1c0-7.9.2-15.7.5-23.5 0-.3 1.4-1.5 1.6-1.7 1.1-1.5 2-3.1 2.4-5 1-4 1.2-8.4-.2-12.5-2-6.1-7.6-8.4-13.6-9.1-4.2-.5-8.2-1-12.4-1.2-5-.2-9.8-1.7-14.5-3A53 53 0 0 0 14.8 48c-4.2 0-7.4 1.4-9.5 5.3z" fill="url(#c)"/><path d="M20 70.8c0-1.4 1.8-4 3.5-2.6s1.6 3.4.7 3.7c-.9.3-4.3 1.9-4.3-1.1zm6.4 5.3c.5 1.2 1.8 0 1.8 0s1.4-1 0-1.5-2.1.8-1.8 1.5zM13 66.3c.4.8 1.4 0 1.4 0s1-.8 0-1.2-1.6.6-1.4 1.2zm12-6.2c-.3 1.1 1.3 1 1.3 1s1.5.2.8-1c-.6-1-1.8-.6-2 0zm22.4 16.7c-.4 1.1 1.1 1 1.1 1s1.5.2 1-1c-.7-1-2-.6-2.2 0zM57.5 93c.4.9 1.4 0 1.4 0s1-.8 0-1.2-1.6.6-1.4 1.2zm-27.8 4.3c.4 1 1.5 0 1.5 0s1.2-.9 0-1.3c-1.1-.4-1.7.7-1.5 1.3zm5.6 11.5c-.4.8.8 1 .8 1s1.3.3.9-.7-1.5-.8-1.7-.3zm13.1-8.3c1 0 .5-1.3.5-1.3s-.5-1.2-1.1-.3c-.7.9 0 1.7.6 1.6zm-31 11.2c.7 0 .3-1 .3-1s-.3-1-.9-.3c-.5.7 0 1.3.5 1.3zm36.3-12.3c.5.3.8-.5.8-.5s.3-.8-.5-.7-.6 1-.3 1.2zM31.3 88c.6.8 1.3-.4 1.3-.4s.8-1-.3-1.1c-1.2 0-1.4 1-1 1.5zM52 66.4c.6.7 1.3-.4 1.3-.4s.7-1-.3-1-1.4 1-1 1.4zm3.1 20.3c.7.8 1.5-.4 1.5-.4s.9-1.2-.4-1.3c-1.2 0-1.5 1.2-1 1.7zM31.4 67.4c.6.7 1.3-.4 1.3-.4s.8-1-.3-1.1c-1.1 0-1.4 1-1 1.5zM48 79.2c.4.5.8-.2.8-.2s.6-.7-.2-.8c-.7 0-.9.7-.6 1zM12 73c.6.7 1.2-.4 1.2-.4s.7-1-.3-1-1.3 1-1 1.4zm6 11.1c.7.8 1.4-.4 1.4-.4s.9-1-.3-1.1-1.4 1-1 1.5zm36.6-10.5c.6.7 1.2-.4 1.2-.4s.7-1-.3-1-1.2 1-.9 1.4zM18 95c1.5.5 1.4-1.8 1.4-1.8S19.6 91 18 92c-1.7 1-1 2.7 0 3zm8.7 5.4c.7 1.9-.5 6.2-3.4 5.2s-3.8-3.6-2.8-4.5c1-.9 4.7-4.6 6.2-.7zM39.2 88c-1.3 1.2.9 2.4.9 2.4s2 1.4 2-.8c0-2-2-2.4-2.9-1.7z" fill="#BA9D66" opacity=".6"/><path d="M53.9 96.8c-2.1.1-1.1 2.8-1.1 2.8s.8 2.8 2.3 1c1.6-2 0-3.8-1.2-3.8z" fill="#BA9D66" opacity=".6"/><path d="M78 28.2c4.5 0 11.5.5 19 2.6 15.2 4.3 23.4 8 23.8 15.8.3 6.3-2 9.3-2.1 9.4-.5.6-.8 1.3-.7 2 .2 11.6.5 30.6.4 32.6-.1.4-.5 1.4-5.7 4.1-5.4 2.9-43.9 21.8-51 25.3a3 3 0 0 0-1.4.3s-.5.2-1.6.2h-2.2l-.7-.1a279.5 279.5 0 0 1-30-6.4l-2-.4c-3.3-1-7.1-1.9-9.8-3.8-1.8-1.4-1.7-7.4-1.6-10V81.7l.2-2.2c.1-3 .3-6.2-1-9.6-.7-1.6-1.5-3-2.3-4.2A12.9 12.9 0 0 1 7 60.4c-.3-2 0-4.2 1-5.8a6.2 6.2 0 0 1 3-3 412 412 0 0 0 41.4-16.1c2-1.7 11.8-5.6 15.7-6.4 1.8-.4 5.4-.9 9.9-.9m0-3c-5 0-8.7.5-10.5 1-4 .8-14.3 4.7-17 7A548.7 548.7 0 0 1 9.9 48.7a9.1 9.1 0 0 0-4.6 4.4A13.2 13.2 0 0 0 4 60.7c.4 4 3.3 6.7 4.7 10.3 1.5 3.5.8 7 .8 10.7-.2 5.8 0 11.6-.1 17.4-.1 3.7-.5 10.7 2.8 13.1 3.1 2.3 7.3 3.3 11 4.3 7.3 1.9 14.7 3.8 22.1 5.3 3.4.7 6.8 1.3 10.3 1.6l3 .2c1.2 0 2.3-.2 3.1-.6l.2.2s46.2-22.6 52.3-25.8c6-3.3 6.8-4.7 7.1-6.4.3-1.6-.3-33-.3-33s3.1-3.8 2.8-11.5c-.5-10.4-12-14.6-26-18.5A74 74 0 0 0 78 25.2z" fill="#424242" opacity=".2"/></svg>