<svg viewBox="0 0 128 128" xmlns="http://www.w3.org/2000/svg"><radialGradient id="a" cx="-237.3" cy="-43.5" r="61.3" gradientTransform="matrix(.5244 .8567 -1.2467 .7972 112.3 287.4)" gradientUnits="userSpaceOnUse"><stop stop-color="#FF9E96" offset="0"/><stop stop-color="#FF574A" offset=".3"/><stop stop-color="#FA4E43" offset=".4"/><stop stop-color="#EB3732" offset=".6"/><stop stop-color="#DB1F1F" offset=".8"/><stop stop-color="#ED2121" offset="1"/></radialGradient><path d="M107.5 79.7C112 63 101 44.4 82.8 30.3c-12.3-9.6-25-9.8-31.8-10-7.6-.4-15.3 2-21.8 6.8-10.1 7.7-14.6 20-16.9 42.8-.8 8.6-2 17.4-1.2 25.9.8 7.8 4 14.5 9 20a29.4 29.4 0 0 0 26.3 7.7c9-1.5 17.4-6.4 25.5-10.7l2.4-1.2c20.4-10.8 30-19.6 33.2-32z" fill="url(#a)"/><path d="M49.6 23.2h2.1c6.8.3 18.1.8 29.3 9.4 18.6 14.5 27.4 31.8 23.6 46.3-2.9 11-11.8 19.5-31.7 30l-1.7 1-.7.3-2.3 1.2a76.6 76.6 0 0 1-22.3 9.2c-1.7.2-3.4.4-5 .4a25 25 0 0 1-18.5-7.3A31.1 31.1 0 0 1 14 95.4a104.3 104.3 0 0 1 1.2-25.2c2.2-22.4 6.6-33.8 15.7-40.7 5.5-4.1 12-6.3 18.6-6.3m0-3c-7.2 0-14.3 2.3-20.4 7-10 7.5-14.6 19.8-16.8 42.6-.8 8.6-2 17.4-1.2 25.9.8 7.8 4 14.5 9 20a28 28 0 0 0 20.7 8.2c2 0 3.8-.2 5.6-.5 9-1.5 17.4-6.3 25.5-10.6l2.4-1.3c20.4-10.8 30-19.6 33.2-32 4.5-16.5-6.5-35-24.7-49.1-12.3-9.6-25-9.8-31.8-10l-1.4-.1z" fill="#424242" opacity=".2"/><g fill="#603813"><ellipse transform="rotate(-50.5 30 46.3)" cx="30" cy="46.3" rx="3.4" ry="2"/><ellipse transform="rotate(-87.3 46.7 53.6)" cx="46.6" cy="53.6" rx="3.4" ry="2"/><ellipse transform="rotate(-63.5 70.3 62.6)" cx="70.3" cy="62.6" rx="3.4" ry="2"/><ellipse transform="rotate(-83.8 38.7 65)" cx="38.7" cy="65" rx="3.4" ry="2"/><ellipse transform="rotate(-84.4 23.6 70.6)" cx="23.6" cy="70.6" rx="3.4" ry="2"/><ellipse transform="rotate(-63.5 35.6 83.9)" cx="35.6" cy="83.9" rx="3.4" ry="2"/><ellipse transform="rotate(-63.5 50.6 94.8)" cx="50.6" cy="94.8" rx="3.4" ry="2"/><ellipse transform="rotate(-26.1 62.8 105.7)" cx="62.8" cy="105.7" rx="3.4" ry="2"/><ellipse transform="rotate(-26.1 65.7 93)" cx="65.7" cy="93" rx="3.4" ry="2"/><ellipse transform="rotate(-21.9 31 106.2)" cx="31.1" cy="106.2" rx="2" ry="3.4"/><ellipse transform="rotate(-30 43.7 109.9)" cx="43.7" cy="109.9" rx="3.4" ry="2"/><ellipse transform="rotate(-15.5 22.8 88.9)" cx="22.8" cy="88.9" rx="2" ry="3.4"/><ellipse transform="rotate(-63.5 52 74.8)" cx="52" cy="74.8" rx="3.4" ry="2"/><ellipse transform="rotate(-45 65.2 77.4)" cx="65.2" cy="77.4" rx="3.4" ry="2"/><ellipse transform="rotate(-65.1 78.8 88)" cx="78.8" cy="88" rx="3.4" ry="2"/><ellipse transform="rotate(-53.9 88.4 76.6)" cx="88.4" cy="76.6" rx="3.4" ry="2"/></g><ellipse transform="rotate(-62.1 88.4 76.8)" cx="88.4" cy="76.8" rx="2.4" ry="1.4" fill="#FFFDE7"/><ellipse transform="rotate(-62.1 78.6 87.5)" cx="78.6" cy="87.5" rx="2.4" ry="1.4" fill="#FFFDE7"/><linearGradient id="b" x1="111.8" x2="78.9" y1="27.7" y2="46.9" gradientUnits="userSpaceOnUse"><stop stop-color="#AED581" offset="0"/><stop stop-color="#8EBD60" offset=".3"/><stop stop-color="#73A743" offset=".7"/><stop stop-color="#689F38" offset=".9"/></linearGradient><path d="M95.8 50c-5 2.6-11.7 3.7-16 .1-3.1-2.5-4.3-7-3.2-10.8s4-7 7.7-8.5c2.2-1 4.5-1.3 6.8-1.6 2-.2 4.1 0 6.2-.2 3-.3 6-1.2 8.6-2.5 2.2-1.2 4.1-2.9 6.4-4-.3.1-.3 3.6-.4 4a35.6 35.6 0 0 1-8.9 18.7 35 35 0 0 1-7.2 4.7z" fill="url(#b)"/><path d="M108.5 28.4l-.3 1.5a32.3 32.3 0 0 1-7.1 13.1c-2 1.7-4.4 3-6.7 4.3a17 17 0 0 1-7.8 2.1c-2 0-3.7-.5-5-1.6-2-1.7-3-4.8-2.1-7.7.7-2.7 3-5.2 6-6.5 2-.8 4-1.2 5.9-1.4h2.8c1.1 0 2.2 0 3.4-.2a30 30 0 0 0 9.7-2.8l1.2-.8m3.8-5.9c-2.3 1.2-4.2 2.8-6.4 4a25 25 0 0 1-8.6 2.5c-2 .2-4.2 0-6.2.2a26 26 0 0 0-6.8 1.6c-3.7 1.6-6.7 4.7-7.7 8.5s0 8.3 3.1 10.8a11 11 0 0 0 7 2.3c3 0 6.3-1 9-2.5 2.6-1.3 5.2-2.7 7.3-4.6a35.2 35.2 0 0 0 8.9-18.7c.1-.5.1-4 .4-4z" fill="#424242" opacity=".2"/><linearGradient id="c" x1="77.3" x2="79.3" y1="6.3" y2="43.7" gradientUnits="userSpaceOnUse"><stop stop-color="#AED581" offset="0"/><stop stop-color="#8EBD60" offset=".3"/><stop stop-color="#73A743" offset=".7"/><stop stop-color="#689F38" offset=".9"/></linearGradient><path d="M69.2 31.5c.8 4.7 3.4 9.8 8.1 11a9 9 0 0 0 9-3.4c2-2.7 2.5-6.4 1.7-9.6-.4-2-1.3-3.7-2.4-5.4-.9-1.5-2-2.8-3-4.4a21.5 21.5 0 0 1-2.7-7.1c-.4-2-.2-4.2-.6-6.3 0 .2-2.2 2-2.5 2.3a29.8 29.8 0 0 0-8.1 15.6 31 31 0 0 0 .5 7.3z" fill="url(#c)"/><path d="M77 13v.1a24.2 24.2 0 0 0 4.7 10.6l1.4 2c.8 1.2 1.6 2.8 2 4.5a8 8 0 0 1-1.2 7 6.3 6.3 0 0 1-4.8 2.4h-1c-3.5-.9-5.3-5.2-5.9-8.6a28 28 0 0 1-.5-6.6c.1-2 1-4 1.7-5.7a27.8 27.8 0 0 1 3.5-5.8m2.5-6.6c0 .2-2.3 2-2.6 2.3a29.8 29.8 0 0 0-8.1 15.6c-.2 2.4.2 4.9.5 7.3.8 4.8 3.4 9.8 8.1 11l1.8.2c2.7 0 5.5-1.4 7.2-3.6 2-2.7 2.6-6.3 1.8-9.6-.5-2-1.4-3.7-2.5-5.4-.9-1.5-2-2.8-3-4.4a21.5 21.5 0 0 1-2.7-7c-.3-2.2-.2-4.3-.5-6.4z" fill="#424242" opacity=".2"/><linearGradient id="d" x1="46.4" x2="78.3" y1="14.1" y2="38.6" gradientUnits="userSpaceOnUse"><stop stop-color="#AED581" offset="0"/><stop stop-color="#8EBD60" offset=".3"/><stop stop-color="#73A743" offset=".7"/><stop stop-color="#689F38" offset=".9"/></linearGradient><path d="M73.4 22c3.7 3.8 6.5 9.5 4.3 14.4-1.4 3.3-5.1 5.5-8.8 5.6s-7.3-2-9.6-4.8a22 22 0 0 1-3.2-5.7c-.7-1.7-1-3.6-1.8-5.4-1-2.6-2.6-5-4.5-7.1-1.5-1.7-3.6-3-5.1-4.7.1.2 3.2-.7 3.6-.7a31.7 31.7 0 0 1 11.9.5c2.4.5 5 1.3 7.2 2.6 2.3 1.4 4.2 3.4 6 5.3z" fill="url(#d)"/><path d="M53 16.3a30.5 30.5 0 0 1 12.8 3c2 1.2 3.8 3 5.5 4.8 2.7 2.8 5.3 7.4 3.7 11a6.8 6.8 0 0 1-6.1 3.8h-.1a9.6 9.6 0 0 1-7.2-3.6 19.2 19.2 0 0 1-3.5-7.4l-1-3a30 30 0 0 0-5-8l-.7-.6h1.5m0-3h-.7a34 34 0 0 0-3.9.3l-3.5.7h-.1c1.5 1.7 3.5 3 5.1 4.7 2 2 3.4 4.4 4.5 7 .7 1.9 1 3.7 1.8 5.5.8 2 1.8 4 3.2 5.7C61.6 40 65 42 68.8 42s7.5-2.2 9-5.6c2-4.8-.7-10.5-4.4-14.3-1.8-2-3.7-3.9-6-5.3a33.3 33.3 0 0 0-14.5-3.4z" fill="#424242" opacity=".2"/><linearGradient id="e" x1="-208" x2="-166.3" y1="-73.9" y2="-73.9" gradientTransform="rotate(26.3 -309.8 605.5)" gradientUnits="userSpaceOnUse"><stop stop-color="#689F38" offset=".1"/><stop stop-color="#73A743" offset=".3"/><stop stop-color="#8EBD60" offset=".7"/><stop stop-color="#AED581" offset="1"/></linearGradient><path d="M92.2 58.4c-5.4-1.8-11-5.8-11.3-11.6-.3-4 2.1-7.9 5.6-9.8s8-1.8 11.6-.3c2.2 1 4.1 2.3 6 3.9 1.5 1.3 2.8 3 4.4 4.3 2.4 2 5 3.5 8 4.6 2.3.8 4.8 1 7.2 1.8a37.2 37.2 0 0 1-14.8 8c-2.6.8-5.4 1.4-8.2 1.2-3-.2-5.7-1.1-8.5-2z" fill="url(#e)"/><path d="M92.5 38.6c1.5 0 3 .3 4.4.9a20.8 20.8 0 0 1 7.2 5.3l2.5 2.4c2.6 2.2 5.6 4 8.8 5l1.5.5a29.8 29.8 0 0 1-8.7 3.8 25.5 25.5 0 0 1-7.3 1c-2.6-.2-5.2-1-7.8-1.9-4-1.3-9-4.5-9.3-9a7.7 7.7 0 0 1 4.1-7 9.5 9.5 0 0 1 4.6-1m0-3c-2 0-4.2.4-6 1.4-3.5 2-6 5.9-5.6 9.8.4 5.8 5.9 9.8 11.3 11.6a36.6 36.6 0 0 0 9.7 2.1 35.8 35.8 0 0 0 18.7-6.7c.3-.2 2.8-2.5 3-2.5-2.3-.8-4.8-1-7.2-1.9-2.9-1-5.6-2.5-7.9-4.5-1.6-1.4-2.9-3-4.5-4.3a20 20 0 0 0-6-3.9c-1.7-.7-3.6-1.1-5.5-1.1z" fill="#424242" opacity=".2"/><linearGradient id="f" x1="75.7" x2="94.8" y1="23.5" y2="23.5" gradientUnits="userSpaceOnUse"><stop stop-color="#689F38" offset=".1"/><stop stop-color="#73A743" offset=".3"/><stop stop-color="#8EBD60" offset=".7"/><stop stop-color="#AED581" offset="1"/></linearGradient><path d="M87.6 4.3s4.9-1.4 6.6 1.3-.2 17-3 24S83.4 41 81 42.7 75.7 39 75.7 39s7-6.4 9-11.5 2-15.8 1.8-19.2 1-4 1-4z" fill="url(#f)"/><path d="M90.3 7c.8 0 1.2 0 1.3.2a58.8 58.8 0 0 1-3.2 21.4 26.7 26.7 0 0 1-8.6 11.2l-.3-.3a38 38 0 0 0 8-11c2.6-6.7 2-20.3 2-20.4V7h.8m0-3c-1.5 0-2.7.3-2.7.3s-1.3.5-1.1 4 .1 14-1.9 19.2c-2 5.1-8.9 11.6-8.9 11.6s2 4 4.1 4c.4 0 .8-.1 1.1-.4 2.5-1.8 7.5-6 10.3-13s4.7-21.4 3-24.1c-.9-1.3-2.5-1.7-3.9-1.7z" fill="#424242" opacity=".2"/><linearGradient id="g" x1="33.2" x2="75.7" y1="30.9" y2="42" gradientUnits="userSpaceOnUse"><stop stop-color="#AED581" offset="0"/><stop stop-color="#8EBD60" offset=".3"/><stop stop-color="#73A743" offset=".7"/><stop stop-color="#689F38" offset=".9"/></linearGradient><path d="M60.3 50.9c6.5.7 14-1 17-6.7A12 12 0 0 0 76 31.4a15.4 15.4 0 0 0-11.8-5.6c-2.7 0-5.3.5-7.8 1.2-2.3.7-4.4 1.8-6.7 2.4-3.3 1-6.8 1.4-10.2 1.1-2.8-.2-5.6-1.2-8.4-1.4.3 0 1.8 3.6 2 4a37.8 37.8 0 0 0 9.5 11c2.4 2 5.1 4 8 5 3.1 1.1 6.5 1.4 9.7 1.8z" fill="url(#g)"/><path d="M63.9 28.8h.3c3.7 0 7.4 1.7 9.5 4.4a9 9 0 0 1 1 9.5C73 46 68.5 48 63 48l-2.4-.1a39 39 0 0 1-9-1.6 37.2 37.2 0 0 1-15-13.1 26.3 26.3 0 0 0 5 .4A31.1 31.1 0 0 0 54.1 31c1-.4 2-.8 3.1-1 1.8-.6 4.3-1.2 6.7-1.2m0-3c-2.6 0-5 .5-7.5 1.2-2.3.7-4.4 1.8-6.7 2.4a28.6 28.6 0 0 1-10.2 1c-2.8-.1-5.6-1.1-8.4-1.3.3 0 1.8 3.6 2 4a37.8 37.8 0 0 0 9.5 11c2.4 2 5.1 4 8 5A41.4 41.4 0 0 0 63 51c5.7 0 11.7-2 14.4-7A12 12 0 0 0 76 31.4a15.4 15.4 0 0 0-11.8-5.6H64z" fill="#424242" opacity=".2"/><linearGradient id="h" x1="-215.6" x2="-168.1" y1="-61.2" y2="-61.2" gradientTransform="rotate(36.8 -231.6 426.3)" gradientUnits="userSpaceOnUse"><stop stop-color="#689F38" offset=".1"/><stop stop-color="#73A743" offset=".3"/><stop stop-color="#8EBD60" offset=".7"/><stop stop-color="#AED581" offset="1"/></linearGradient><path d="M75.5 61c-3-5.7-4.4-13.3-.3-18.3A12 12 0 0 1 87.4 39c4.4 1.1 8 4.6 9.8 8.7a30 30 0 0 1 1.9 7.7c.2 2.4 0 4.8.3 7.1a28 28 0 0 0 3 9.8c1.3 2.6 3.2 4.7 4.5 7.2-.1-.2-4-.2-4.6-.3a42 42 0 0 1-13.8-4.5 28.4 28.4 0 0 1-7.6-5.5 41 41 0 0 1-5.4-8.2z" fill="url(#h)"/><path d="M84.3 41.6a9 9 0 0 1 2.4.3c3.2.9 6.2 3.6 7.7 7A24.3 24.3 0 0 1 96.3 59a31.4 31.4 0 0 0 4.7 17 38.1 38.1 0 0 1-11-3.8 26 26 0 0 1-6.9-4.9c-2-2.2-3.5-5-5-7.6-2.3-4.4-4-11-.6-15 1.5-2 4-3 6.8-3m0-3c-3.5 0-7 1.4-9.1 4-4.1 5.1-2.8 12.7.3 18.4a41 41 0 0 0 5.4 8.2 40.8 40.8 0 0 0 21.4 10c.6 0 4.5 0 4.6.3-1.3-2.5-3.2-4.6-4.5-7.2a28 28 0 0 1-3-9.8c-.3-2.3 0-4.7-.3-7a27 27 0 0 0-1.9-7.8 15.4 15.4 0 0 0-9.8-8.7 12 12 0 0 0-3.1-.4z" fill="#424242" opacity=".2"/><ellipse transform="rotate(-50.5 29.6 46)" cx="29.6" cy="45.9" rx="2.4" ry="1.4" fill="#FFFDE7"/><ellipse transform="rotate(-81.7 23.4 70.3)" cx="23.4" cy="70.3" rx="2.2" ry="1.3" fill="#FFFDE7"/><ellipse cx="46.6" cy="53.2" rx="1.4" ry="2.4" fill="#FFFDE7"/><ellipse transform="rotate(-79.4 38.5 64.7)" cx="38.5" cy="64.7" rx="2.3" ry="1.3" fill="#FFFDE7"/><ellipse transform="rotate(-68.5 35.6 83.9)" cx="35.5" cy="83.9" rx="2.4" ry="1.4" fill="#FFFDE7"/><ellipse transform="rotate(-68.5 52 74.7)" cx="52" cy="74.7" rx="2.4" ry="1.4" fill="#FFFDE7"/><ellipse transform="rotate(-68.5 50.5 94.9)" cx="50.5" cy="94.9" rx="2.4" ry="1.4" fill="#FFFDE7"/><ellipse transform="rotate(-39.1 43.6 109.9)" cx="43.6" cy="109.9" rx="2.4" ry="1.4" fill="#FFFDE7"/><ellipse transform="rotate(-39.1 62.7 105.6)" cx="62.7" cy="105.6" rx="2.4" ry="1.4" fill="#FFFDE7"/><ellipse transform="rotate(-30 65.6 92.7)" cx="65.6" cy="92.7" rx="2.4" ry="1.4" fill="#FFFDE7"/><ellipse transform="rotate(-45 65.2 77.1)" cx="65.2" cy="77.1" rx="2.4" ry="1.4" fill="#FFFDE7"/><ellipse transform="rotate(-62.1 70.2 62.4)" cx="70.2" cy="62.4" rx="2.4" ry="1.4" fill="#FFFDE7"/><ellipse transform="rotate(-13.8 30.8 106.3)" cx="30.8" cy="106.3" rx="1.4" ry="2.4" fill="#FFFDE7"/><ellipse transform="rotate(-20.2 22.8 88.2)" cx="22.8" cy="88.3" rx="1.3" ry="2.3" fill="#FFFDE7"/></svg>