<svg viewBox="0 0 128 128" xmlns="http://www.w3.org/2000/svg"><radialGradient id="a" cx="109.1" cy="20.1" r="18.2" gradientTransform="matrix(-1 0 0 1 130.2 0)" gradientUnits="userSpaceOnUse"><stop stop-color="#FFE7CC" offset="0"/><stop stop-color="#D1B798" offset=".6"/></radialGradient><path d="M42.9 33.8s-13.7-7.7-15-12c-.8-2.2 0-4.5-.2-6.8-.4-2.7-2.5-4-5-4.7a6.4 6.4 0 0 0-4.2.1c-3.5 1.5-1.8 5-4.1 7-1.7 1.5-3.9 1.4-5.6 2.5a6.1 6.1 0 0 0-2.6 5.8c.7 5.1 6.3 5.3 10.3 5.6 7.3.5 10.5 9.4 12.9 13.8s7-1.6 9.4-4.6c2.3-3 4-6.7 4-6.7z" fill="url(#a)"/><path d="M20.6 13l1.2.2c2.7.8 2.8 1.7 3 2.2l-.1 2.3c-.2 1.4-.3 3.2.3 5.1 1.3 4 8.9 9.1 13.9 12.2a34 34 0 0 1-7 8.5l-.8-1.7c-2.4-4.8-6.4-13-14.4-13.5h-.2c-4.8-.3-7-.8-7.3-3-.2-1 .4-2.3 1.2-2.9l1.8-.6c1.2-.4 2.7-.8 4.1-2a8 8 0 0 0 2.5-4.9c.3-1.5.4-1.5.8-1.7l1-.2m0-3c-.7 0-1.4.2-2.1.4-3.5 1.5-1.8 5.1-4.1 7.1-1.6 1.4-3.9 1.3-5.6 2.4a6.1 6.1 0 0 0-2.6 5.8c.7 5.1 6.3 5.4 10.3 5.6 7.3.5 10.6 9.4 12.9 13.9.6 1 1.3 1.5 2.1 1.5 2.4 0 5.5-4 7.3-6.2 2.3-3 4-6.7 4-6.7s-13.6-7.7-15-12c-.7-2.2.2-4.5-.1-6.8-.4-2.7-2.5-4-5.1-4.7-.6-.2-1.3-.3-2-.3z" fill="#424242" opacity=".2"/><radialGradient id="b" cx="44.2" cy="63.8" r="54.9" gradientTransform="matrix(-.7018 .7124 .7447 .7336 69.5 -14.5)" gradientUnits="userSpaceOnUse"><stop stop-color="#FF9137" offset="0"/><stop stop-color="#F58631" offset=".2"/><stop stop-color="#DC6722" offset=".4"/><stop stop-color="#BA3F0E" offset=".7"/><stop stop-color="#C33F0E" offset="1"/></radialGradient><path d="M58.6 40.3c6 1.6 27.2 5 30.2 6.5l9.3 4.6 17 10.5s5.1 3 7.5 12.6 1.4 14.9.7 18.1c-.7 3.3 0 3.3-3.5 10.3s-10.3 14.9-16.8 17-7 2.5-10.2 3.4-18.2 2.1-23.8-1.4-13.5-6.5-16.2-16-6.6-28-10.3-36-10.8-17.7-13.1-20.7-2.6-8 4-13c3.3-2.6 8-5.4 10.3-5.2s8.8 7.6 14.9 9.3z" fill="url(#b)"/><path d="M43.3 34c.6.3 2.2 1.6 3.3 2.4 3.1 2.5 7 5.7 11.2 6.8 2.7.7 8 1.7 13.7 2.8 5.8 1.2 14.6 2.9 16 3.5l9.2 4.5 16.9 10.5c.1 0 4.1 2.7 6 10.7A34.4 34.4 0 0 1 120 94c-.2 1.5-.4 2.5-3 7.5-4 8.4-10.6 14.1-14.9 15.5l-6.6 2.3c-1.2.5-2 .8-3.5 1.2-1.3.3-5.4.8-9.8.8-5.4 0-9.6-.7-11.6-1.9l-2.9-1.7c-5-2.8-10-5.8-12-12.6-1-3.1-2-7.3-3.1-11.7-2.2-9-4.8-19.1-7.4-24.8a125.6 125.6 0 0 0-13.4-21.3 4 4 0 0 1-.9-3c.3-1.8 1.7-3.8 4.3-5.7 4-3 7-4.5 8-4.6m.2-3c-2.4 0-6.8 2.7-10 5.2-6.6 5-6.4 10-4 13s9.4 12.5 13.1 20.6C46.2 78 50 96.4 52.7 106s10.8 12.6 16.3 16a28 28 0 0 0 13.2 2.4c4.6 0 9-.5 10.6-1 3.2-.9 3.7-1.3 10.2-3.4s13.3-10 16.8-17 2.8-7 3.5-10.3 1.6-8.6-.7-18.1-7.5-12.6-7.5-12.6l-17-10.5s-6.2-3.2-9.3-4.6-24.2-4.9-30.2-6.5c-6-1.7-12.6-9-14.9-9.3h-.3z" fill="#424242" opacity=".2"/><path d="M114.2 87.3l1.3 3.3-2.6-.4c0-1.2.3-2.5 1-3.5m-4.7 13l1 2.3c-1-.2-1.8-.7-2.4-1.3.2-.7.8-1.2 1.4-1.4m7.3 6.7l1.7 3c-.6.6-1.8.4-2.2-.3s-.2-1.8.6-2.1m-9.8 10.4c.9.8.5 2.5-.6 2.8a3 3 0 0 1-.2-2.6l1 .7m-11.1 3.4l-5 1.1c1.3.9 3.3.5 4.3-.7m21.3-42a4 4 0 0 1 3 2.2c-1 .6-2.3-.7-1.7-1.6m-10.5 7l.9 1.2c-.5.5-1.4.3-1.6-.3s.3-1.4 1-1.3m10.9 1.1c.4.5.5 1.1.3 1.7-.6.2-1.2-.3-1.2-.9.1-.5 1-.8 1.3-.5M112.5 62a2 2 0 0 1 2.6.9c-1.1.7-2.8-.8-2.3-2M99.7 59c1.3.5 2.4 1.4 3.2 2.7h-3c-.3-.7.2-1.7 1-1.7m7.3 8.7l1.9 2c-1.2.6-2.9-.8-2.4-2M85.4 46c1.2-.6 2.5-1.1 3.8-.8 1.2.3 2.1 2.1 1.2 3-.7.6-1.8.5-2.5 0s-1-1.5-1.4-2.3M84 53.1c1-.5 2.3.4 2.3 1.6-.7 0-1.4-.1-1.8-.6s-.2-1.5.4-1.4m0 9.3l-2-1.3.7 3.3 2-2m-13.7 4.3l1.3 2c-.6.4-1.5.3-2-.2s-.4-1.5.2-2M82.7 83l.3 1.7c-.7.7-2 .4-2.4-.5s.5-2 1.5-2c1 .1 1.7 1.3 1.2 2.2M76.9 95l.9 2.2c-1 .6-2.4-.4-2.2-1.5s1.9-1.5 2.6-.7m6.2 18.5c-.6.6-1.8.1-1.8-.7s1.2-1.3 1.8-.7M63.5 98.2c.7 0 1.2 1 .7 1.5-.5.6-1.5.3-1.8-.4s.3-1.5 1-1.6m-5-23.5l3.1 5c-1.2.3-2.5-.3-3.2-1.4s-.6-2.5.2-3.5m40.8 11l1 1.3c-1.2.6-2.9 0-3.5-1.2h2.4m8-8.6c1 .3 1.8 1.4 1.7 2.5-1.6-.4-2.4-2.4-1.6-3.8M60.2 42.7c.9-.4 2 .5 2 1.4-.9.6-2.1.3-2.6-.6s0-2 .8-2.4m10.1 6.2a8 8 0 0 1 5 3.6c-1 .2-2.3.4-3.2-.3s-1-2.4.2-2.6m-26 1.3a14 14 0 0 1 3 4.7c-.8.2-1.8-.2-2.3-1s-.5-1.8 0-2.5M39 55.3l.2 2.3c-.9-.1-1.5-1-1.4-1.9s.9-1.6 1.7-1.6m3.4-16.4c2 .5 4 1.6 5.6 3.2-1.1 0-2.4 0-3.2-.7s-.5-2.5.6-2.5M63 48l2.9 2.3c-.8.5-2 .4-2.6-.2s-.8-1.8-.2-2.6M58.9 62l2 4.5a5.6 5.6 0 0 1-1.7-4.2l1.3.7m-9.6 14.3l.6 3c-1 .8-2.6.2-2.9-1-.2-1.3 1.1-2.5 2.3-2.1m2.4 12.4l1.6 5.2c-2-.8-2.6-4-1-5.4" fill="#DF5923"/></svg>