<svg viewBox="0 0 128 128" xmlns="http://www.w3.org/2000/svg"><path d="M123 83.7c0 20.6-25.9 36.3-59 36.3S5 104.3 5 83.7c0-2.9-1-5.1-1-5.1h120s-1 2-1 5.1z" fill="#9D9D9D"/><linearGradient id="a" x1="35" x2="88.8" y1="50.7" y2="104.5" gradientUnits="userSpaceOnUse"><stop stop-color="#FAFBFB" offset=".2"/><stop stop-color="#eee" offset=".9"/></linearGradient><ellipse cx="64" cy="79.7" rx="60" ry="37.3" fill="url(#a)"/><circle cx="76.1" cy="76.8" r="9" fill="#F5F5F5"/><circle cx="64" cy="83.3" r="9" fill="#F5F5F5"/><path d="M110.7 74c-1 2 1.1 4.6 2 7.3 1.2 3.2 0 7.8-4 11-4.5 3.7-6.3 2.5-9.3 4.4-3 1.9-1.6 4.2-5.4 6.7-1.4 1-6.7.4-9.4 1-3.9 1-8.5 3.2-17.8 3.3-5.9.1-13.4-.9-18.6-2.3-3.4-.9-4.5-2.8-7.5-4-6.6-3-15.7-2-20.7-10.3-1.6-2.6 0-3.5-.9-6.6-.7-2.7-3.2-2.8-3.2-7.8 0-16.7 16.2-28.5 50-28.5 29.2 0 50.6 13.6 44.8 25.8z" fill="#9A5A25"/><radialGradient id="b" cx="79.2" cy="55.7" r="10.9" gradientTransform="matrix(1 0 0 .6527 0 19.3)" gradientUnits="userSpaceOnUse"><stop stop-color="#FBC41F" offset=".6"/><stop stop-color="#D09C2B" offset="1"/></radialGradient><path d="M81.5 64s-5.4 1.1-9-4c-2-2.9 1-4.6 4.1-6.2 3.2-1.5 8-.6 10.8 1.2s2.6 4 2.6 4c-.1.2-.4 4.3-8.5 5z" fill="url(#b)"/><path d="M80.4 54c2.2 0 4.7.7 6.5 1.8 2 1.3 2.1 2.7 2 3-.5 2.3-3.2 3.8-7.5 4.3h-1.1c-1.7 0-4.7-.4-7-3.6-.6-.9-.5-1.4-.4-1.6.3-1.3 2.7-2.5 4.2-3.2a8 8 0 0 1 3.3-.7m0-1a10 10 0 0 0-3.8.8c-3 1.6-6.1 3.3-4 6.3a9 9 0 0 0 7.6 4h1.3c8-.8 8.4-5 8.5-5.2 0 0 .3-2.1-2.6-4-1.8-1-4.5-1.9-7-1.9z" fill="#434343" opacity=".2"/><path d="M88.7 63c.5.4-4.8 2.1-7.1 2.1s-7.4-1.7-7.4-2.4 2.3-1.4 3.5-.8c4.3 2.4 7.5-2.5 11 1z" fill="#9A5A25"/><radialGradient id="c" cx="92.8" cy="61.6" r="8.1" gradientTransform="matrix(1 0 0 .7994 0 12.4)" gradientUnits="userSpaceOnUse"><stop stop-color="#F37123" offset=".5"/><stop stop-color="#E05F26" offset="1"/></radialGradient><path d="M86.6 64.2c1.2-3.6 2.2-4.2 5-5.6 2.8-1.3 6.7.2 9 2.4l.1.1c2 2 1.4 5.4-1 6.6-1 .5-7.7 1.6-12.3 0-1.2-.4-1.2-2.5-.8-3.5z" fill="url(#c)"/><path d="M65.9 49.2c23 0 38.4 8 43.1 15.5 1.9 3 2.2 6 .8 8.9-1 1.8 0 3.8 1 5.8l1 2.2c1.1 3.1-.4 7.2-3.7 9.9a12.8 12.8 0 0 1-5.7 3c-1 .2-2.2.5-3.6 1.4a6.3 6.3 0 0 0-2.6 3.3c-.5 1.1-1 2.2-2.8 3.4-.5.3-2.7.4-4.3.4a17 17 0 0 0-4.7.5l-3.1.8c-3.4 1-7.6 2.4-14.5 2.4h-.6c-5.5 0-12.6-.9-17.7-2.2-1.8-.5-2.9-1.3-4.1-2.1-1-.7-2-1.4-3.3-2-2-.9-4.4-1.4-6.6-2-5.1-1.2-10.4-2.4-13.6-7.8a3.8 3.8 0 0 1-.6-2.8c.1-.9.2-2-.2-3.6-.3-1.2-1-2-1.5-2.6-.9-1.1-1.7-2.1-1.7-4.9 0-8.1 4-15 11.8-19.6 8.6-5.2 21-7.9 37.2-7.9m0-1c-33.8 0-50 11.8-50 28.5 0 5 2.5 5.1 3.2 7.8 1 3.2-.7 4 1 6.6 5 8.3 14 7.4 20.6 10.3 3 1.3 4 3.1 7.5 4a78 78 0 0 0 18 2.3h.6c9.3 0 14-2.4 17.8-3.3 2.7-.6 8 0 9.4-1 3.8-2.5 2.4-4.8 5.4-6.7 3-2 4.8-.7 9.4-4.4 3.8-3.2 5.1-7.8 4-11-1-2.7-3-5.3-2.1-7.3 5.9-12.2-15.6-25.8-44.8-25.8z" fill="#434343" opacity=".2"/><radialGradient id="d" cx="47.5" cy="47.7" r="37.3" gradientTransform="matrix(0 1 -1.0588 0 98 .2)" gradientUnits="userSpaceOnUse"><stop stop-color="#fff" offset=".5"/><stop stop-color="#ECEFF0" offset=".7"/><stop stop-color="#D0D8DC" offset="1"/></radialGradient><path d="M78.2 73.6v-.1c-.4-.7-.5-1.4-.3-2.2.2-.8 0-1.8-.2-2.8a32 32 0 0 0-29-21.7 32.9 32.9 0 0 0-27.1 17.1s-2.7 3.5-3 7c-.2 3.8 2.2 4.4 2.4 5.7.2 2 1 4.3 3.3 4.7.8.2 1.5 1 2 1.7 2.3 3.5 4.5 4.5 8.3 4.6 1.6 0 5.2.6 5.9 1a8 8 0 0 0 3.6.8c.9 0 1.7-.1 2.5-.4a7 7 0 0 1 3.5 0c1 .4 2.3.6 3.7.4 1.4 0 2.7-.5 3.7-1 1.1-.7 2.5-.9 3.8-.5 1 .3 2.3.4 3.7 0a6.8 6.8 0 0 0 4-2.3 4 4 0 0 1 3-1.7c.5 0 1-.2 1.5-.4 1.1-.5 1.7-2 2-3 .3-1.1.9-2 1.7-2.8 1.2-1.2 1.7-2.8 1-4z" fill="url(#d)"/><ellipse transform="rotate(-14.6 50 81.5)" cx="50.1" cy="81.5" rx="3.1" ry="1.9" fill="#90A4AE" opacity=".2"/><ellipse transform="rotate(-71.7 70 76.1)" cx="70" cy="76.1" rx="3.2" ry="1.8" fill="#90A4AE" opacity=".2"/><ellipse transform="rotate(-89.5 31.4 79.3)" cx="31.4" cy="79.3" rx="3.2" ry="1.8" fill="#90A4AE" opacity=".2"/><ellipse transform="rotate(-4.2 40.6 84)" cx="40.6" cy="84" rx="3.1" ry="1.9" fill="#90A4AE" opacity=".2"/><ellipse transform="rotate(-33.1 59.5 75.5)" cx="59.5" cy="75.5" rx="1.8" ry="3.2" fill="#D0D8DC" opacity=".2"/><ellipse transform="rotate(-78.8 32.7 64.3)" cx="32.7" cy="64.3" rx="2.1" ry="1.3" fill="#D0D8DC" opacity=".2"/><ellipse transform="rotate(-78.8 39.3 75.5)" cx="39.3" cy="75.5" rx="2.1" ry="1.3" fill="#D0D8DC" opacity=".2"/><ellipse transform="rotate(-78.8 23.4 67)" cx="23.4" cy="66.9" rx="2.1" ry="1.3" fill="#D0D8DC" opacity=".2"/><ellipse transform="rotate(-41.7 51.3 73.3)" cx="51.3" cy="73.3" rx="1.3" ry="2.1" fill="#D0D8DC" opacity=".2"/><ellipse transform="rotate(-25.1 62.4 84)" cx="62.4" cy="84" rx="2.2" ry="1.3" fill="#90A4AE" opacity=".2"/><ellipse transform="rotate(-4.4 23.4 74.5)" cx="23.4" cy="74.4" rx="1.5" ry="2.8" fill="#B0BEC5" opacity=".2"/><ellipse transform="rotate(-18.3 29.5 71.7)" cx="29.5" cy="71.7" rx="2.6" ry="1.5" fill="#B0BEC5" opacity=".2"/><ellipse transform="rotate(-16.6 65.9 68.5)" cx="65.9" cy="68.5" rx="2.6" ry="1.3" fill="#D0D8DC" opacity=".2"/><ellipse transform="rotate(-8.7 65.7 74.4)" cx="65.8" cy="74.4" rx="1.2" ry="2.2" fill="#D0D8DC" opacity=".2"/><ellipse transform="rotate(-8.7 53 64.9)" cx="53" cy="64.9" rx="1.2" ry="2.2" fill="#D0D8DC" opacity=".2"/><ellipse transform="rotate(-49.9 39.3 62)" cx="39.3" cy="62.1" rx="2.2" ry="1.2" fill="#D0D8DC" opacity=".2"/><ellipse transform="rotate(-31.2 27.8 60.6)" cx="27.8" cy="60.6" rx="1.9" ry="1.3" fill="#D0D8DC" opacity=".2"/><ellipse transform="rotate(-31.2 44 67.7)" cx="44" cy="67.7" rx="1.9" ry="1.3" fill="#D0D8DC" opacity=".2"/><ellipse transform="rotate(-31.2 58.6 64.9)" cx="58.6" cy="64.9" rx="1.9" ry="1.3" fill="#D0D8DC" opacity=".2"/><ellipse transform="rotate(-70.8 71.8 64.9)" cx="71.8" cy="64.9" rx="1.3" ry="1.9" fill="#D0D8DC" opacity=".2"/><ellipse transform="rotate(-16.3 37.5 53.3)" cx="37.5" cy="53.3" rx="1.9" ry="1.3" fill="#D0D8DC" opacity=".2"/><ellipse transform="rotate(-84.8 53.2 57.5)" cx="53.1" cy="57.5" rx="1.3" ry="1.9" fill="#D0D8DC" opacity=".2"/><radialGradient id="e" cx="100.2" cy="70.5" r="7.6" gradientTransform="matrix(.9314 -.364 .1825 .4668 -6 74)" gradientUnits="userSpaceOnUse"><stop stop-color="#FBC41F" offset=".5"/><stop stop-color="#D09C2B" offset="1"/></radialGradient><path d="M95 73.4c-.7-2 2.8-3.8 5.2-4.9s4.9 0 6.8 1.7c1.4 1.4.8 3.7-1 4.3-3 1-9.8 2.6-11-1.1z" fill="url(#e)"/><path d="M94 59.1c2 0 4.3 1.1 6 2.7.7.7 1 1.7.9 2.7-.2 1-.8 1.9-1.7 2.4a21.3 21.3 0 0 1-11.5-.1l-.3-.8.1-1.5c1.1-3.2 1.9-3.7 4.5-5a6 6 0 0 1 2-.3m0-1c-1 0-1.7.1-2.4.5-2.8 1.3-3.8 2-5 5.5-.4 1-.4 3.1.8 3.5 1.8.7 3.9.9 5.8.9 3.1 0 5.8-.5 6.4-.9 2.5-1.2 3-4.6 1-6.6a10.3 10.3 0 0 0-6.7-3z" fill="#434343" opacity=".2"/><radialGradient id="f" cx="61.6" cy="99.4" r="5.9" gradientUnits="userSpaceOnUse"><stop stop-color="#F37123" offset=".5"/><stop stop-color="#E05F26" offset="1"/></radialGradient><path d="M68.7 101c.7-2.2-3.2-4.2-5.9-5.4s-5.4 0-7.5 1.9h-.1c-1.5 1.5-.9 4 1.1 4.7 3.4 1.2 11 3 12.4-1.2z" fill="url(#f)"/><path d="M102.2 69.1c1.4 0 2.8.7 4.1 1.9.4.4.6.9.5 1.4-.1.5-.5 1-1 1.1a22 22 0 0 1-6.3 1.2c-3 0-3.4-1.2-3.6-1.6 0-.2-.3-1.4 4.7-3.6a3 3 0 0 1 1.6-.4m0-1a5 5 0 0 0-2 .5c-2.4 1-5.9 2.9-5.2 4.8.6 1.8 2.4 2.3 4.5 2.3 2.3 0 5-.7 6.5-1.2 1.8-.6 2.4-3 1-4.2a7.3 7.3 0 0 0-4.8-2.2z" fill="#434343" opacity=".2"/><path d="M101.3 67.2c.6.3-5 2.6-7.6 2.3-7.5-.6-8.4-3-7.7-2.9 1.6.4 1.7-.6 3.4-.2 6.2 1.3 7.2-2.3 12 .7zm8.3 7.5c.7.4-5.3 2.6-8 2.4-8.1-.6-9.1-3.1-8.3-3 1.6.4 1.7-.6 3.6-.2 6.6 1.4 7.7-2.2 12.7.8z" fill="#9A5A25"/><path d="M64 45.5c15.5 0 30 3.7 40.8 10.4 10.5 6.5 16.2 15 16.2 23.8s-5.7 17.3-16.2 23.8C94 110.3 79.5 114 64 114s-30-3.7-40.8-10.5C12.7 97 7 88.5 7 79.7S12.7 62.4 23.2 56A78.4 78.4 0 0 1 64 45.5m0-3C30.9 42.5 4 59 4 79.7S30.9 117 64 117s60-16.7 60-37.3-26.9-37.2-60-37.2z" fill="#434343" opacity=".2"/><path d="M48.7 47.8a31 31 0 0 1 28 21c.3 1 .3 1.7.2 2.3-.2 1 0 2 .4 2.9.4 1 .1 2-.8 3-1 .9-1.7 2-2 3.2-.1.7-.6 2-1.4 2.3l-1.2.4c-1.5.2-2.8 1-3.7 2.1-.7 1-2 1.7-3.4 2a7 7 0 0 1-3.3 0c-.5-.2-1-.3-1.6-.3-1 0-2 .2-3 .8a8 8 0 0 1-4 1c-.9 0-1.8-.2-2.5-.4s-1.4-.4-2.1-.4c-.7 0-1.4.2-2 .4a7 7 0 0 1-5.3-.4c-1-.5-5-1-6.4-1.1-3.6-.1-5.5-1.1-7.5-4.2-.7-1-1.5-1.9-2.7-2-1.8-.4-2.3-2.6-2.5-3.9 0-.8-.5-1.3-1-1.9a4.2 4.2 0 0 1-1.3-3.5 15 15 0 0 1 2.9-6.7 31.6 31.6 0 0 1 26.2-16.6m0-1a32.9 32.9 0 0 0-27.1 17.1s-2.7 3.5-3 7c-.2 3.8 2.2 4.4 2.4 5.7.2 2 1 4.3 3.3 4.7.8.2 1.5 1 2 1.7 2.3 3.5 4.5 4.5 8.3 4.6 1.6 0 5.2.6 5.9 1a8 8 0 0 0 3.6.8c.9 0 1.7-.1 2.5-.4a5.4 5.4 0 0 1 3.5 0 9 9 0 0 0 3.7.4c1.4 0 2.7-.5 3.7-1a5 5 0 0 1 3.8-.5 7 7 0 0 0 3.7 0 6.8 6.8 0 0 0 4-2.3c.7-.9 1.8-1.6 3-1.7.5 0 1-.2 1.5-.4 1.2-.5 1.8-1.9 2-3 .3-1 .9-2 1.7-2.8 1.2-1.1 1.7-2.7 1-4v-.2c-.4-.7-.4-1.4-.3-2.2.2-.8 0-1.8-.2-2.8a32.1 32.1 0 0 0-29-21.8z" fill="#434343" opacity=".2"/><path d="M79.8 75.7c.4-4.5-3.5-11.4-3.5-11.4s2.9 7.7-.2 8.3c-2.8.6-1.6 4.8-4 6.7-3.4 2.8-7.5-1.7-10.6 2.8-3.4 5.2-10.9 5.2-12.9 3.8-2-1.4-6-2-10.6-.6-7.1 2.1-12.8-4.2-13.3-3.8-2.8 2.7 12.8 15 47.4 4.9 6.3-1.8 7.3-6.2 7.7-10.7z" fill="#9A5A25"/><path d="M60.6 96.1c.6 0 1.2.2 1.8.4 5.6 2.5 5.4 4 5.3 4.2-.4 1.3-1.8 1.9-4 1.9-2.8 0-5.9-1-7-1.3-.7-.2-1.2-.7-1.3-1.4-.2-.6 0-1.2.5-1.6a7.3 7.3 0 0 1 4.7-2.2m0-1c-2 0-3.8 1-5.4 2.4-1.5 1.5-.9 4 1.1 4.7a25 25 0 0 0 7.3 1.4c2.4 0 4.4-.6 5-2.6.8-2.1-3.1-4.2-5.8-5.4-.7-.3-1.5-.5-2.2-.5z" fill="#434343" opacity=".2"/><path d="M72.6 98.6c.8.3-1.3 6.3-10.5 6.3-9.4 0-10.5-3.1-9.6-3 1.9.4 4-.8 6-.3 9.5 2.5 10.3-4.6 14.1-3z" fill="#9A5A25"/><radialGradient id="g" cx="93.1" cy="73.2" r="9" gradientTransform="matrix(.7975 .6033 -.419 .554 42.9 -21.6)" gradientUnits="userSpaceOnUse"><stop stop-color="#6C463F" offset="0"/><stop stop-color="#5A352E" offset=".8"/></radialGradient><path d="M82.9 78.3c.7-2.2 3.2-5 6.2-4.4s5.5 1.6 7 4.7c0 0 3.7 5-3 5.5-3.8.4-11.7-1.4-10.2-5.8z" fill="url(#g)"/><path d="M88.2 74.8l.7.1c2.6.6 5 1.4 6.3 4.1v.2c.3.3 1.2 1.8.8 2.7-.3.7-1.4 1.1-3 1.3h-1c-3 0-6.8-1-8-2.7a2 2 0 0 1-.3-1.8c.6-1.9 2.5-3.9 4.4-3.9m0-1c-2.6 0-4.7 2.5-5.3 4.5-1.4 4 5.3 5.9 9.2 5.9h1c6.7-.6 3-5.6 3-5.6-1.5-3.1-4-4-7-4.6a4 4 0 0 0-1-.2z" fill="#434343" opacity=".2"/><path d="M99.8 81.9c.7.4-2.4 5.6-10 4.2-5.8-1-8.9-3.6-8.3-4.2 1-1 2.3-.7 4.3 0 11.4 3.4 10.3-2 14 0z" fill="#9A5A25"/><radialGradient id="h" cx="41" cy="88.6" r="8.8" gradientTransform="matrix(1 0 0 .6946 0 27)" gradientUnits="userSpaceOnUse"><stop stop-color="#6C463F" offset="0"/><stop stop-color="#5A352E" offset=".8"/></radialGradient><path d="M35.5 92c-.7-2.3 1.4-4.4 4.1-5.6s7.7-.1 10 2a3 3 0 0 1-1.2 4.9c-3.5 1.2-11.4 3-12.9-1.3z" fill="url(#h)"/><path d="M42.4 86.8c2.3 0 5 1 6.5 2.3.5.5.7 1.1.5 1.8a2 2 0 0 1-1.3 1.4c-1.2.5-4.5 1.4-7.3 1.4-2.4 0-4-.7-4.4-2-.5-1.7 1.4-3.4 3.6-4.4.6-.3 1.4-.5 2.4-.5m0-1c-1 0-2 .2-2.8.6-2.7 1.2-4.9 3.3-4.1 5.6.7 2 2.8 2.7 5.3 2.7 2.7 0 5.7-.8 7.6-1.4a3 3 0 0 0 1.2-5 11.6 11.6 0 0 0-7.2-2.4z" fill="#434343" opacity=".2"/><path d="M52.6 89.7c.7.4-2 7-11.3 6-9.2-1-10-5-9-4.7 1.8.6 3.9-.4 6 .3 9.2 3.4 10.6-3.6 14.3-1.6z" fill="#9A5A25"/><radialGradient id="i" cx="83.1" cy="88.3" r="11.3" gradientTransform="matrix(.9908 -.1356 .0817 .5971 -7.3 46.9)" gradientUnits="userSpaceOnUse"><stop stop-color="#FBC41F" offset=".3"/><stop stop-color="#D09C2B" offset="1"/></radialGradient><path d="M73.8 91.6c-.7-2.8 4.5-5 8-6.3s7 .5 9.5 3.2v.1c1.8 2 .7 5.2-1.9 5.9-4.5 1-14.3 2.5-15.6-3z" fill="url(#i)"/><path d="M84.1 86c2.2 0 4.5 1 6.4 3.2h.1c.6.7.8 1.6.5 2.5-.3.9-1 1.6-2 1.8-1.5.4-4.6 1-7.6 1-4 0-6.2-1-6.8-3.2-.1-.6.3-2.5 7.4-5a5 5 0 0 1 2-.4m0-1a7 7 0 0 0-2.3.4c-3.5 1.2-8.7 3.5-8 6.3.7 3 4 3.9 7.7 3.9 2.9 0 6-.6 8-1 2.5-.7 3.7-3.9 1.9-5.9h-.1a10 10 0 0 0-7.2-3.7z" fill="#434343" opacity=".2"/><path d="M95 92.2c.5.6-.5 6.1-11.7 5.3-9.3-.8-10.3-3.8-9.4-3.5 1.9.4 3.4-1.6 5.5-1 9.4 3 12.8-3.5 15.5-.8z" fill="#9A5A25"/></svg>