<svg viewBox="0 0 128 128" xmlns="http://www.w3.org/2000/svg" xmlns:xlink="http://www.w3.org/1999/xlink"><path d="M113.9 64.2l-.1-.1c.3-1.2.4-2.8-.6-3.8-1.5-1.3-4.1-1-5.3.1l-.2.4a2.4 2.4 0 0 0-1 1c-.6.1-1.2.4-1.7 1l-.2.2-.5.4c-1 1.2-.8 3.3.6 4.6 1.2 1 2.7 1.4 3.8.9l.4.4c1.5 1.3 4 .8 5.1-.4l.2-.3c.2 0 .4-.2.5-.4 1.1-1.2.5-2.7-1-4z" fill="#346A34"/><path d="M103.2 61l-.1.2c-1-.5-2.4-.4-3.5.3-1.6 1.1-2.1 3-1.2 4.4.2.4.7.7 1.1 1a3 3 0 0 0 .4 2.2c.9 1.3 2.9 1.5 4.5.5 1.2-.9 1.8-2.2 1.6-3.4l.5-.3c1.5-1 2-3 1.2-4.4-1-1.3-3-1.5-4.5-.4z" fill="#568B3E"/><linearGradient id="a" x1="101.8" x2="112.5" y1="60.5" y2="60.5" gradientUnits="userSpaceOnUse"><stop stop-color="#8BC249" offset=".2"/><stop stop-color="#7CB342" offset=".9"/></linearGradient><path d="M111 60c0-1.2 0-2.7-1-3.6-1.5-1.2-3.5-1.1-4.6.1-.3.4-1 1.2-1 1.7-.8 0-1.5.4-2 1-1 1.3-.7 3.3.8 4.4 1.2 1 2.7 1.1 3.7.6l.5.4c1.4 1.2 3.5 1.1 4.5-.1 1-1.3.6-3.3-.9-4.5z" fill="url(#a)"/><defs><path id="b" d="M4 4h120v120H4z"/></defs><clipPath id="c"><use xlink:href="#b"/></clipPath><radialGradient id="d" cx="41.3" cy="54.9" r="77.5" gradientUnits="userSpaceOnUse"><stop stop-color="#F5F5F5" offset=".3"/><stop stop-color="#E0E0E0" offset=".9"/></radialGradient><ellipse cx="64" cy="57.2" rx="60" ry="20.2" clip-path="url(#c)" fill="url(#d)"/><radialGradient id="e" cx="49.9" cy="120.5" r="18.7" gradientUnits="userSpaceOnUse"><stop stop-color="#BDBDBD" offset="0"/><stop stop-color="#9D9D9D" offset=".9"/></radialGradient><ellipse cx="64" cy="115.6" rx="25" ry="8.4" clip-path="url(#c)" fill="url(#e)"/><g clip-path="url(#c)" opacity=".2"><path d="M64 109.2c14.9 0 23 4.2 23 6.4 0 1-1.8 2.7-6 4a56 56 0 0 1-17 2.4c-14.9 0-23-4.2-23-6.4 0-1 1.8-2.7 6-4a55.7 55.7 0 0 1 17-2.4m0-2c-13.8 0-25 3.7-25 8.4s11.2 8.4 25 8.4 25-3.8 25-8.4-11.2-8.4-25-8.4z" fill="#434343"/></g><g clip-path="url(#c)"><defs><ellipse id="f" cx="64" cy="57.2" rx="60" ry="20.2"/></defs><clipPath id="g"><use xlink:href="#f"/></clipPath><radialGradient id="h" cx="64.5" cy="63.6" r="55.1" gradientTransform="matrix(1 0 0 .3331 0 42.4)" gradientUnits="userSpaceOnUse"><stop stop-color="#F78C1E" offset=".1"/><stop stop-color="#F9A01B" offset=".9"/></radialGradient><ellipse cx="64" cy="64.5" rx="53.1" ry="17.8" clip-path="url(#g)" fill="url(#h)"/></g><g clip-path="url(#c)"><defs><ellipse id="i" cx="64" cy="64.5" rx="44.5" ry="14.9"/></defs><clipPath id="j"><use xlink:href="#i"/></clipPath><g clip-path="url(#j)"><path d="M27.2 54.8c20.5-3.8 47.5 3 60.3 20.3.6.8 2.5.3 1.8-.6C76 56.5 48 49.3 26.8 53.3c-1.3.2-.7 1.7.4 1.5z" fill="#FECC81"/></g><g clip-path="url(#j)"><path d="M23.9 57.4c17-3.4 43 1.8 49 20.6.3 1 2.3.7 2-.3C68.4 58 41.2 52.3 23.3 56c-1.3.2-.6 1.7.5 1.4z" fill="#FECC81"/></g><g clip-path="url(#j)"><path d="M35.6 52.5c10.8-2 22.3-.9 32.9 1.6 11.8 2.8 24.3 8 31.6 18.3.5.8 2.3-.2 1.7-1a52 52 0 0 0-30.1-18.3c-11.4-3-24-4.4-35.8-2.2-1 .1-1.6 1.8-.3 1.6z" fill="#FECC81"/></g><g clip-path="url(#j)"><path d="M41.3 51.4c21.7-4.2 51.5 1.1 66.2 19 .7.8 2.1-.5 1.5-1.2-15-18.4-45.3-23.9-67.6-19.6-1 .2-1.3 2-.1 1.8z" fill="#FCB64E"/></g><g clip-path="url(#j)"><path d="M39.5 56C27.1 56 15.1 65.4 15 78.3c0 1.3 1.7.6 1.7-.4.2-11.8 11.1-20 22.4-20.3 1 0 1.7-1.8.5-1.8z" fill="#FECC81"/></g><g clip-path="url(#j)"><path d="M50.6 57.1c-11.3 1.4-30.8 10.4-30.2 24.1.1 1.3 1.8.6 1.8-.4-.6-12.6 18-20.6 28.4-21.9 1-.1 1.3-2 0-1.8z" fill="#FECC81"/></g><g clip-path="url(#j)"><path d="M57.8 61.8C46.2 62 27.3 71.3 28 85c.1 1.2 1.8.5 1.8-.4-.6-12.4 17-20.8 27.6-21 1 0 1.7-1.8.5-1.8z" fill="#FECC81"/></g><g clip-path="url(#j)"><path d="M63.2 66.6C52 68 34.4 76.1 35 89.6c.1 1.2 1.8.5 1.8-.5-.7-12.3 16-19.5 26.3-20.7 1-.1 1.3-2 0-1.8z" fill="#FCB64E"/></g><g clip-path="url(#j)"><path d="M68.5 71.2c-11.2 1.4-28.8 9.5-28 23 0 1.2 1.7.5 1.6-.5-.6-12.3 16.1-19.5 26.4-20.7 1-.1 1.3-2 0-1.8z" fill="#FCB64E"/></g></g><g clip-path="url(#c)"><path d="M10.9 64.4c-.6-1.8-.2-3.6-.2-3.6s3.4-4 10.7-4.7c5.8-.6 15.9.4 18.5 4.5.5 1-.2 4-.8 4.7-4.9 4.5-8.3 6-17.3 5.8-7.6-.2-9.1-1.6-10.9-6.7z" fill="#CDA997"/></g><g clip-path="url(#c)"><radialGradient id="k" cx="19.5" cy="57.6" r="25.5" gradientTransform="matrix(.938 .1642 -.3441 .5484 22.4 22)" gradientUnits="userSpaceOnUse"><stop stop-color="#FFF3E1" offset=".4"/><stop stop-color="#FFE0B2" offset="1"/></radialGradient><path d="M10.7 61.3c-.8-3.4 4-6.5 11-6.9s17.9 2.1 18 5.7-10 7.2-17.1 7c-7.6-.2-11.2-2.6-12-5.8z" fill="url(#k)"/><radialGradient id="l" cx="23.6" cy="63.5" r="7.3" gradientTransform="matrix(.938 .1642 -.3441 .5484 22.4 22)" gradientUnits="userSpaceOnUse"><stop stop-color="#F36E21" offset="0"/><stop stop-color="#FAAA43" offset="1"/></radialGradient><path d="M15.3 60.8c-.1-2.2 2.4-4 6.8-4.3s8.3 1.1 8.4 3.3-3.5 4.3-7.9 4.5-7.2-1.4-7.3-3.5z" fill="url(#l)"/></g><g clip-path="url(#c)"><radialGradient id="m" cx="74.1" cy="53.5" r="19.8" gradientTransform="matrix(.9454 -.326 .1706 .4948 -5.1 51)" gradientUnits="userSpaceOnUse"><stop stop-color="#733619" offset=".1"/><stop stop-color="#8D401E" offset=".9"/></radialGradient><path d="M90.2 47c17.1 6.3-3.7 16.6-17.2 16.3-8.5-.2-15.2-2-12.1-6.5 3.5-4.8 22-12.6 29.3-9.9z" fill="url(#m)"/><radialGradient id="n" cx="74" cy="52.5" r="19.8" gradientTransform="matrix(.9454 -.326 .1706 .4948 -5 50.4)" gradientUnits="userSpaceOnUse"><stop stop-color="#BB5B27" offset=".4"/><stop stop-color="#8D401E" offset="1"/></radialGradient><path d="M90.1 46c17.1 6.3-3.7 16.6-17.2 16.3-8.4-.2-15.2-2-12-6.4 3.4-4.9 21.9-12.7 29.2-10z" fill="url(#n)"/><linearGradient id="o" x1="86" x2="75.6" y1="42.3" y2="60.4" gradientTransform="rotate(2.6 80 52.7)" gradientUnits="userSpaceOnUse"><stop stop-color="#C55833" offset=".1"/><stop stop-color="#CF6947" offset=".2"/><stop stop-color="#C65935" offset=".2"/><stop stop-color="#C55733" offset=".4"/><stop stop-color="#D67456" offset=".4"/><stop stop-color="#C3532E" offset=".5"/><stop stop-color="#C65A35" offset=".7"/><stop stop-color="#D67456" offset=".7"/><stop stop-color="#C55733" offset=".8"/><stop stop-color="#C55732" offset=".9"/><stop stop-color="#D06C4B" offset="1"/><stop stop-color="#C55732" offset="1"/></linearGradient><path d="M90 46.8c15.5 5.8-4.2 14.8-16.5 14.5-7.7-.1-14-1.4-11.2-5.4 3.2-4.4 21-11.6 27.7-9z" fill="url(#o)"/></g><g clip-path="url(#c)"><radialGradient id="p" cx="85.7" cy="61.5" r="19.8" gradientTransform="matrix(.9306 -.3662 .1917 .4871 -4.4 61.4)" gradientUnits="userSpaceOnUse"><stop stop-color="#733619" offset=".1"/><stop stop-color="#8D401E" offset=".9"/></radialGradient><path d="M103 53c17.3 5.6-3 16.7-16.6 17-8.4.2-15.3-1.4-12.3-5.9 3.2-5 21.4-13.5 28.9-11.1z" fill="url(#p)"/><radialGradient id="q" cx="85.5" cy="60.6" r="19.8" gradientTransform="matrix(.9306 -.3662 .1917 .4871 -4.2 60.8)" gradientUnits="userSpaceOnUse"><stop stop-color="#BB5B27" offset=".4"/><stop stop-color="#8D401E" offset="1"/></radialGradient><path d="M102.8 52c17.4 5.6-3 16.8-16.5 17-8.4.2-15.3-1.3-12.3-5.8 3.2-5 21.4-13.6 28.8-11.2z" fill="url(#q)"/><linearGradient id="r" x1="97.6" x2="87.2" y1="50.3" y2="68.4" gradientTransform="translate(1.5 -1.7)" gradientUnits="userSpaceOnUse"><stop stop-color="#C55833" offset=".1"/><stop stop-color="#CF6947" offset=".2"/><stop stop-color="#C65935" offset=".2"/><stop stop-color="#C55733" offset=".4"/><stop stop-color="#D67456" offset=".4"/><stop stop-color="#C3532E" offset=".5"/><stop stop-color="#C65A35" offset=".7"/><stop stop-color="#D67456" offset=".7"/><stop stop-color="#C55733" offset=".8"/><stop stop-color="#C55732" offset=".9"/><stop stop-color="#D06C4B" offset="1"/><stop stop-color="#C55732" offset="1"/></linearGradient><path d="M102.7 52.9c15.7 5-3.6 15-15.9 15.2-7.7.1-14-.8-11.3-5 3-4.5 20.4-12.4 27.2-10.2z" fill="url(#r)"/></g><g clip-path="url(#c)"><radialGradient id="s" cx="94.4" cy="64.4" r="19.8" gradientTransform="matrix(.9091 -.4167 .2181 .4758 -5 74.3)" gradientUnits="userSpaceOnUse"><stop stop-color="#733619" offset=".1"/><stop stop-color="#8D401E" offset=".9"/></radialGradient><path d="M110.4 57.7c17.6 4.7-2 17-15.6 18-8.4.6-15.3-.6-12.6-5.3 3-5.2 20.6-14.7 28.2-12.7z" fill="url(#s)"/><radialGradient id="t" cx="94.3" cy="63.4" r="19.8" gradientTransform="matrix(.9091 -.4167 .2181 .4758 -4.8 73.7)" gradientUnits="userSpaceOnUse"><stop stop-color="#8D401E" offset="0"/><stop stop-color="#BB5B27" offset=".6"/></radialGradient><path d="M110.2 56.8c17.6 4.6-2 16.9-15.6 17.9-8.4.6-15.3-.5-12.6-5.2 3-5.2 20.6-14.7 28.2-12.7z" fill="url(#t)"/><linearGradient id="u" x1="115.7" x2="85.8" y1="59.5" y2="72.4" gradientUnits="userSpaceOnUse"><stop stop-color="#C55833" offset=".1"/><stop stop-color="#CF6947" offset=".2"/><stop stop-color="#C65935" offset=".2"/><stop stop-color="#C55733" offset=".4"/><stop stop-color="#D67456" offset=".4"/><stop stop-color="#C3532E" offset=".5"/><stop stop-color="#C65A35" offset=".7"/><stop stop-color="#D67456" offset=".7"/><stop stop-color="#C55733" offset=".8"/><stop stop-color="#C55732" offset=".9"/><stop stop-color="#D06C4B" offset="1"/><stop stop-color="#C55732" offset="1"/></linearGradient><path d="M110 57.6c16.1 4.3-2.6 15.2-15 16-7.6.7-14 0-11.5-4.2 2.7-4.7 19.7-13.6 26.6-11.8z" fill="url(#u)"/></g><g clip-path="url(#c)"><radialGradient id="v" cx="82.7" cy="55.1" r="19.8" gradientTransform="matrix(.9091 -.4167 .2181 .4758 -4.5 65.1)" gradientUnits="userSpaceOnUse"><stop stop-color="#733619" offset=".1"/><stop stop-color="#8D401E" offset=".9"/></radialGradient><path d="M98.2 49c17.6 4.7-2.1 17-15.6 18-8.4.6-15.3-.6-12.7-5.3 3-5.1 20.7-14.6 28.3-12.7z" fill="url(#v)"/><radialGradient id="w" cx="82.5" cy="54.1" r="19.8" gradientTransform="matrix(.9091 -.4167 .2181 .4758 -4.3 64.6)" gradientUnits="userSpaceOnUse"><stop stop-color="#BB5B27" offset=".4"/><stop stop-color="#8D401E" offset="1"/></radialGradient><path d="M98 48.1c17.6 4.7-2 17-15.6 18-8.4.6-15.3-.6-12.6-5.3 3-5.2 20.6-14.7 28.2-12.7z" fill="url(#w)"/><linearGradient id="x" x1="103.5" x2="73.6" y1="50.8" y2="63.7" gradientUnits="userSpaceOnUse"><stop stop-color="#C55833" offset=".1"/><stop stop-color="#CF6947" offset=".2"/><stop stop-color="#C65935" offset=".2"/><stop stop-color="#C55733" offset=".4"/><stop stop-color="#D67456" offset=".4"/><stop stop-color="#C3532E" offset=".5"/><stop stop-color="#C65A35" offset=".7"/><stop stop-color="#D67456" offset=".7"/><stop stop-color="#C55733" offset=".8"/><stop stop-color="#C55732" offset=".9"/><stop stop-color="#D06C4B" offset="1"/><stop stop-color="#C55732" offset="1"/></linearGradient><path d="M97.9 49c16 4.2-2.8 15-15 16-7.7.6-14 0-11.6-4.3C74 56 91 47.1 97.9 49z" fill="url(#x)"/></g><path d="M105 53.8s25.2 8.4 5.7 16.3c-12.3 5-27.2 11.6-65.1 7.8-7.8-.8-27.9-2-21.5-8S57 54.2 62.4 53.5c3.8-.4.4 3 .7 4.5.5 2.8 2.4 4 8 2.4 12.8-3.8 6.8 1 13.5 1.3 16.6 1 20.3-8 20.3-8z" clip-path="url(#c)" fill="#F9A01B" opacity=".5"/><g clip-path="url(#c)"><radialGradient id="y" cx="94" cy="59.3" r="19.8" gradientTransform="matrix(.9673 -.2536 .1328 .5063 -4.2 54.3)" gradientUnits="userSpaceOnUse"><stop stop-color="#733619" offset=".1"/><stop stop-color="#8D401E" offset=".9"/></radialGradient><path d="M111.1 55.4c16.6 7.6-5 16.3-18.4 15-8.4-.9-15-3.2-11.6-7.3 3.9-4.6 23-11 30-7.7z" fill="url(#y)"/><radialGradient id="z" cx="93.8" cy="58.4" r="19.8" gradientTransform="matrix(.9673 -.2536 .1328 .5063 -4 53.8)" gradientUnits="userSpaceOnUse"><stop stop-color="#BB5B27" offset=".4"/><stop stop-color="#8D401E" offset="1"/></radialGradient><path d="M111 54.5c16.7 7.6-4.8 16.3-18.3 15-8.4-1-15-3.2-11.6-7.4 3.8-4.6 22.9-11 30-7.7z" fill="url(#z)"/><linearGradient id="A" x1="115" x2="85.1" y1="54.5" y2="67.3" gradientTransform="rotate(9.9 94.8 62.5)" gradientUnits="userSpaceOnUse"><stop stop-color="#C55833" offset=".1"/><stop stop-color="#CF6947" offset=".2"/><stop stop-color="#C65935" offset=".2"/><stop stop-color="#C55733" offset=".4"/><stop stop-color="#D67456" offset=".4"/><stop stop-color="#C3532E" offset=".5"/><stop stop-color="#C65A35" offset=".7"/><stop stop-color="#D67456" offset=".7"/><stop stop-color="#C55733" offset=".8"/><stop stop-color="#C55732" offset=".9"/><stop stop-color="#D06C4B" offset="1"/><stop stop-color="#C55732" offset="1"/></linearGradient><path d="M110.9 55.3c15 7-5.3 14.4-17.6 13.2-7.6-.8-13.8-2.4-10.7-6.2 3.5-4.2 21.8-10 28.3-7z" fill="url(#A)"/></g><g clip-path="url(#c)"><radialGradient id="B" cx="26.5" cy="71.7" r="25.5" gradientTransform="matrix(.9419 .2374 -.3343 .7322 23.9 5.4)" gradientUnits="userSpaceOnUse"><stop stop-color="#FFF3E1" offset=".4"/><stop stop-color="#FFE0B2" offset="1"/></radialGradient><path d="M14.8 70c-.9-4.7 3.8-8.7 11-9.1 7.1-.4 17.8 3.2 18 8 .3 4.7-9.8 9.5-17 9.1-7.5-.4-11.2-3.7-12-8z" fill="url(#B)"/><radialGradient id="C" cx="30.6" cy="77.6" r="7.3" gradientTransform="matrix(.9419 .2374 -.3343 .7322 23.9 5.4)" gradientUnits="userSpaceOnUse"><stop stop-color="#F36E21" offset="0"/><stop stop-color="#FAAA43" offset="1"/></radialGradient><path d="M19.4 69.3c-.2-2.9 2.4-5.3 6.7-5.6s8.4 1.7 8.5 4.6-3.4 5.7-7.8 6-7.3-2-7.4-5z" fill="url(#C)"/></g><radialGradient id="D" cx="45.3" cy="73.8" r="13.8" gradientTransform="matrix(.9995 .0309 -.0183 .5914 1.6 26)" gradientUnits="userSpaceOnUse"><stop stop-color="#8D6E63" offset=".2"/><stop stop-color="#6D4D42" offset=".8"/></radialGradient><path d="M59.6 75.7c-.2 4.6-6.6 8-14.2 7.7s-13.6-4.4-13.3-9c.2-4.7 6.5-8.1 14.1-7.8s13.6 4.5 13.4 9z" clip-path="url(#c)" fill="url(#D)"/><g clip-path="url(#c)"><path d="M91.3 66.5l-.1.1a4.8 4.8 0 0 0-4.7.6c-2.2 1.4-2.9 4-1.7 5.8.4.6 1 1 1.6 1.3-.3 1-.1 2.2.5 3 1.2 1.8 4 2.1 6 .7 1.7-1.2 2.5-3 2.2-4.6l.7-.4c2.1-1.4 2.8-4 1.6-5.9-1.2-1.8-4-2-6-.6z" fill="#568B3E"/><path d="M105.4 69.2h-.2a4.8 4.8 0 0 0-3.2-3.5c-2.4-1-5 0-5.7 2.1-.2.7-.2 1.4 0 2-1.1.4-2 1.2-2.3 2.2-.7 2 .7 4.4 3.1 5.3 1.9.6 3.9.2 5-1l.7.3c2.4.9 5-.1 5.7-2.1.7-2-.7-4.4-3.1-5.3z" fill="#346A34"/><radialGradient id="E" cx="95.2" cy="64.9" r="6.8" gradientUnits="userSpaceOnUse"><stop stop-color="#8BC249" offset=".4"/><stop stop-color="#7CB342" offset=".9"/></radialGradient><path d="M99.1 62.4H99c-.4-1.5-.8-3-2.6-3.4-2.5-.8-5 .3-5.6 2.4-.2.6-1 1.4-.8 2a4 4 0 0 0-2.1 2.3c-.7 2 .8 4.4 3.3 5.1a5 5 0 0 0 5-1.1l.6.2c2.5.8 5-.3 5.7-2.4.6-2-1-4.3-3.4-5z" fill="url(#E)"/></g><g clip-path="url(#c)"><path d="M108.9 59.9l-.2.1a4.8 4.8 0 0 0-4.7.5c-2.1 1.5-2.8 4.1-1.6 6 .4.5 1 1 1.6 1.2-.3 1-.2 2.1.4 3 1.2 1.8 4 2.1 6 .6 1.7-1 2.5-3 2.2-4.5l.7-.4c2.2-1.5 2.9-4.1 1.7-5.9-1.3-1.8-4-2-6.1-.6z" fill="#568B3E"/><path d="M117 59.4h-.2c-1.2-1-3-1.3-4.7-.8-2.5.8-4 3.2-3.2 5.2.2.7.6 1.2 1.1 1.7a4 4 0 0 0-.4 3c.7 2.1 3.2 3.1 5.6 2.3 2-.6 3.2-2.1 3.4-3.7l.8-.2c2.4-.8 3.9-3.1 3.2-5.2-.7-2-3.2-3.1-5.7-2.3z" fill="#346A34"/><radialGradient id="F" cx="112.7" cy="58.3" r="6.8" gradientUnits="userSpaceOnUse"><stop stop-color="#8BC249" offset=".4"/><stop stop-color="#7CB342" offset=".9"/></radialGradient><path d="M116.7 55.8h-.2c-.3-1.5-.8-3-2.5-3.5-2.5-.7-5 .3-5.7 2.4-.2.7-1 1.4-.8 2.1-1 .4-1.8 1.2-2 2.3-.7 2 .8 4.3 3.2 5.1 2 .6 3.9 0 5-1.2.2.2.4.3.7.3 2.4.8 5-.3 5.6-2.4.6-2-.9-4.3-3.3-5.1z" fill="url(#F)"/></g><g clip-path="url(#c)"><radialGradient id="G" cx="71.1" cy="66.1" r="13.8" gradientTransform="matrix(.9991 -.0417 .0247 .5912 -1 34)" gradientUnits="userSpaceOnUse"><stop stop-color="#8D6E63" offset=".2"/><stop stop-color="#6D4D42" offset=".8"/></radialGradient><path d="M86 73.7c.2 4.6-5.9 8.5-13.5 8.7s-13.9-3.4-14-8 6-8.5 13.6-8.7c7.6-.2 13.9 3.4 14 8z" fill="url(#G)"/><radialGradient id="H" cx="71.6" cy="67.1" r="6" gradientTransform="rotate(11.6 51.5 71.1)" gradientUnits="userSpaceOnUse"><stop stop-color="#FECC81" offset=".1"/><stop stop-color="#FAA629" offset=".8"/></radialGradient><path d="M78.6 71.5l-5 1-.2.3-1 4.2c-.1.3-.5.3-.6 0L70 72.8c0-.1 0-.2-.2-.2l-4.7-.6c-.3 0-.3-.6 0-.6l4.9-1 .2-.1.8-3c0-.3.4-.4.6-.1l1.6 3.2.2.1 5.1.2c.5 0 .5.8 0 .9z" fill="url(#H)"/></g><radialGradient id="I" cx="45.8" cy="74.9" r="6" gradientTransform="rotate(15.8 55.6 73.2)" gradientUnits="userSpaceOnUse"><stop stop-color="#FECC81" offset=".1"/><stop stop-color="#FAA629" offset=".8"/></radialGradient><path d="M52.3 73l-5 .6c-.2 0-.3.1-.3.3l-1.3 4c-.1.4-.5.4-.6 0l-1.3-4.4c0-.2-.1-.2-.2-.3l-4.7-.9c-.3 0-.3-.5 0-.6l5-.5.2-.2 1-3c.2-.2.5-.3.6 0l1.4 3.3.2.2 5 .5c.6.2.5.9 0 1z" clip-path="url(#c)" fill="url(#I)"/><g clip-path="url(#c)"><radialGradient id="J" cx="44.9" cy="81.3" r="71.6" gradientTransform="matrix(.9943 .1071 -.0752 .6984 6.4 19.7)" gradientUnits="userSpaceOnUse"><stop stop-color="#F5F5F5" offset=".2"/><stop stop-color="#BDBDBD" offset=".8"/><stop stop-color="#E0E0E0" offset="1"/></radialGradient><path d="M64 77.3c-30.8 0-56.2-7.8-59.6-17.9a4 4 0 0 0-.1 1.4c.9 11.6 7.6 57.5 59.9 57.5s59-45.9 59.8-57.5c0-.6 0-1.2-.2-1.8C121 69.3 95.3 77.3 64 77.3z" fill="url(#J)"/><circle cx="84.2" cy="88.5" r="2" fill="#A93023"/><circle cx="44" cy="88.3" r="2" fill="#BE3A26"/><circle cx="64" cy="89.4" r="2" fill="#BE3A26"/><ellipse cx="101" cy="85.8" rx="1.5" ry="2" fill="#8D372A"/><ellipse cx="26.9" cy="85.6" rx="1.5" ry="2" fill="#BE3A26"/><ellipse cx="114.8" cy="81.2" rx="1" ry="2" fill="#8D372A"/><ellipse cx="12.8" cy="81" rx="1" ry="2" fill="#BE3A26"/></g><g clip-path="url(#c)"><defs><path id="K" d="M64 77.3c-30.8 0-56.2-7.8-59.6-17.9a4 4 0 0 0-.1 1.4c.9 11.6 7.6 57.5 59.9 57.5s59-45.9 59.8-57.5c0-.6 0-1.2-.2-1.8C121 69.3 95.3 77.3 64 77.3z"/></defs><clipPath id="L"><use xlink:href="#K"/></clipPath><path d="M5.5 72.6s14 13 59 13 58.7-13 58.7-13" clip-path="url(#L)" fill="none" stroke="#BE3A26" stroke-linecap="round" stroke-linejoin="round" stroke-miterlimit="10" stroke-width="3"/><path d="M5.5 80s14 13 59 13 58.7-13 58.7-13" clip-path="url(#L)" fill="none" stroke="#BE3A26" stroke-linecap="round" stroke-linejoin="round" stroke-miterlimit="10" stroke-width="3"/></g><radialGradient id="M" cx="41.2" cy="55.9" r="77.3" gradientUnits="userSpaceOnUse"><stop stop-color="#F5F5F5" offset=".3"/><stop stop-color="#E0E0E0" offset=".9"/></radialGradient><path d="M64 38C30.8 38 4 47 4 58.3s26.8 20.1 60 20.1 59.8-9 59.8-20C123.8 47 97 38 63.9 38zm0 37.6c-31.3 0-56.7-8-56.7-18S32.7 39.9 64 39.9s56.6 8 56.6 17.9S95.3 75.7 64 75.7z" clip-path="url(#c)" fill="url(#M)"/><g clip-path="url(#c)" opacity=".2"><path d="M64 40c15.8 0 30.5 2 41.5 5.7 9.6 3.3 15.5 7.6 15.5 11.5v3.4a70.9 70.9 0 0 1-10 31.7c-9.8 15.3-25.6 23-46.7 23s-37-7.7-46.7-23A70.8 70.8 0 0 1 7.3 60.6V60L7 57.2c0-3.9 6-8.2 15.6-11.5C33.6 42 48.3 40 64 40m0-3C31 37 4 46 4 57.2l.3 3.6c.9 11.6 7.6 57.5 59.9 57.5s59-45.9 59.8-57.5v-3.6C124 46 97.2 37 64 37z" fill="#434343"/></g><linearGradient id="N" x1="86" x2="86" y1="5.2" y2="13.7" gradientUnits="userSpaceOnUse"><stop stop-color="#795649" offset=".3"/><stop stop-color="#5D4137" offset=".9"/></linearGradient><path d="M128 12.3l-81 .4a3 3 0 0 1 0-6l81-2.4v8z" clip-path="url(#c)" fill="url(#N)"/><g clip-path="url(#c)" opacity=".2"><path d="M126 6.4v4l-79 .3c-.5 0-1-.5-1-1s.4-1 1-1l79-2.3m2-2L47 6.5c-1.7 0-3 1.4-3 3.1s1.4 3 3 3l81-.4v-8z" fill="#434343"/></g><g clip-path="url(#c)"><linearGradient id="O" x1="52.3" x2="52.3" y1="8.1" y2="55.7" gradientUnits="userSpaceOnUse"><stop stop-color="#FECC81" offset=".2"/><stop stop-color="#FAA629" offset="1"/></linearGradient><path d="M54.6 5.9c-4.2-1.3-5.3 2.1-5.3 6.8 0 21.6 2.4 36.3-.2 52.8 0 .3 2 1.4 3.6-.3 3-3 .8-44.4.8-55.2 0-3 2.1-3.8 2.1-3.8l-1-.3z" fill="url(#O)"/></g><g clip-path="url(#c)"><linearGradient id="P" x1="63.2" x2="63.2" y1="25.3" y2="57.5" gradientUnits="userSpaceOnUse"><stop stop-color="#FECC81" offset=".5"/><stop stop-color="#FAA629" offset="1"/></linearGradient><path d="M62.5 5.5c-1.5 1.8-1 6-1 8-.3 6-.2 11.9-.2 17.8.1 10.4.5 20.7.5 31 0 1.8 3 1.1 3-.5 0-9.3-.4-18.6-.5-28V16c0-1.9-.5-7.8.5-9 1.3-1.5-1.2-2.8-2.3-1.5z" fill="url(#P)"/></g><linearGradient id="Q" x1="86" x2="86" y1="17.6" y2="25.5" gradientUnits="userSpaceOnUse"><stop stop-color="#795649" offset=".3"/><stop stop-color="#5D4137" offset=".9"/></linearGradient><path d="M128 18.9l-81-.4a3 3 0 0 0-.1 6l81 2.4.1-8z" clip-path="url(#c)" fill="url(#Q)"/><g clip-path="url(#c)" opacity=".2"><path d="M47 18.5v2l79 .3-.1 4-79-2.2c-.5 0-1-.5-1-1s.5-1 1-1v-2m0 0a3 3 0 0 0-3 2.9 3 3 0 0 0 3 3l81 2.4v-8l-81-.4z" fill="#434343"/></g><g clip-path="url(#c)"><linearGradient id="R" x1="67" x2="67" y1="25.3" y2="57.5" gradientUnits="userSpaceOnUse"><stop stop-color="#FECC81" offset=".6"/><stop stop-color="#FAA629" offset="1"/></linearGradient><path d="M64.7 7.4c1.4 2.2 1 6 1 8.4.1 5.7 0 11.5-.3 17.2-.4 11-1 22-.8 33 0 2 3.7.6 3.7-1.2-.2-12 .6-24 1-36 .1-5 .3-10 .1-15 0-2.6.2-6.1-1.2-8.4-1-1.6-4.5.4-3.5 2z" fill="url(#R)"/></g><g clip-path="url(#c)"><linearGradient id="S" x1="58" x2="58" y1="17.4" y2="60.9" gradientUnits="userSpaceOnUse"><stop stop-color="#FECC81" offset=".2"/><stop stop-color="#FAA629" offset="1"/></linearGradient><path d="M58.7 5.4c-4.5 1.4-3.3 18.8-3.2 27.8.1 9-1.1 23-1.3 32 0 1.5 3.6 1.4 4-.2 2-7.6-1.6-57 2.7-57.7 2-.4.5-2-1-1.8l-1.2-.1z" fill="url(#S)"/></g><path d="M18.8 41.1c-1 1.1-2.9 0-2.3-1.5 1.8-4.6 3.2-10.7.5-16.3-3.3-7.2-.4-11.6 2.4-14 .9-.8 2.3 0 2.3 1.1 0 2.6.8 7 4.4 14.5 2.3 4.9-2.8 11.5-7.3 16.2zm17.8 9.4c-1 1-2.9-.1-2.3-1.5 1.9-4.6 3.2-10.7.6-16.4-3.4-7.1-.4-11.6 2.3-14 1-.7 2.3 0 2.3 1.2 0 2.5.8 7 4.4 14.5 2.3 4.8-2.7 11.5-7.3 16.2z" fill="#E1F3F7"/></svg>