<svg viewBox="0 0 128 128" xmlns="http://www.w3.org/2000/svg"><radialGradient id="a" cx="63.4" cy="29.1" r="73.3" gradientTransform="matrix(1 0 0 1.0729 0 -2.1)" gradientUnits="userSpaceOnUse"><stop stop-color="#F5F5F5" offset=".5"/><stop stop-color="#D0D8DC" offset="1"/></radialGradient><path d="M123.8 99.4c0-.3 0-7.8-1.5-10.8a4.7 4.7 0 0 1-.3-3.7l.7-2.7c.8-5.5-1.1-10.8-4.9-14.5a4.9 4.9 0 0 1-1.4-4.3c.6-4-.7-8-3.2-10.8a24.8 24.8 0 0 1-5.6-9.8c-1.1-4-3.6-8.9-9.3-11.4a5.1 5.1 0 0 1-2.8-3c-1.3-3.7-6.6-8.6-10.9-9.2l-1.5-.1c-1.4 0-3.7-.6-4.6-1.6-3.2-3.6-6.5-5.5-14-5.8h-.9c-7.6.3-10.7 2.2-14 5.8-.8 1-3.1 1.5-4.5 1.6h-1.5c-4.3.7-9.7 5.6-11 9.3a5 5 0 0 1-2.7 3 16.8 16.8 0 0 0-9.3 11.4c-1 3.6-3 7-5.6 9.8a13 13 0 0 0-3.2 10.8 5 5 0 0 1-1.5 4.3 16.6 16.6 0 0 0-4.1 17.2c.4 1.2.3 2.5-.3 3.7-1.6 3-1.6 10.5-1.5 10.8.1.6-.4 5.5-.1 7.3a17 17 0 0 0 10 12.5c1.6 1.1 3.5 1.8 5.7 2a30 30 0 0 0 8.2 1c6 .5 16.8 1 35.8 1a442.6 442.6 0 0 0 41.2-1.4 32.3 32.3 0 0 0 7.6-2.1c5.7-2.5 10.1-6.9 11.1-13 .3-1.8-.2-6.7-.1-7.3z" fill="url(#a)"/><ellipse transform="rotate(-80.4 26.7 66.7)" cx="26.7" cy="66.7" rx="3" ry="6.9" fill="#B0BEC5" opacity=".5"/><linearGradient id="b" x1="64.1" x2="64.1" y1="124" y2="72" gradientUnits="userSpaceOnUse"><stop stop-color="#212E26" offset="0"/><stop stop-color="#334038" offset=".5"/><stop stop-color="#48534C" offset=".9"/></linearGradient><path d="M88.3 72H39.9a4 4 0 0 0-4 4v45c0 1.1.9 2 2 2 0 0 6.2 1 26 1s26.4-1 26.4-1a2 2 0 0 0 2-2V76a4 4 0 0 0-4-4z" fill="url(#b)"/><path d="M53.5 78.6a1.3 1.3 0 1 1-2.5 0c0-.7.5-3.3 1.3-3.3s1.3 2.6 1.3 3.3z" fill="#47524B" opacity=".5"/><path d="M43.7 83.9a1.3 1.3 0 1 1-2.6 0c0-.7.6-3.4 1.3-3.4s1.3 2.7 1.3 3.4zm21.6 0a1.3 1.3 0 1 1-2.6 0c0-.7.6-3.4 1.3-3.4s1.3 2.7 1.3 3.4zM53.5 94a1.3 1.3 0 1 1-2.5 0c0-.7.5-3.4 1.3-3.4s1.3 2.7 1.3 3.4zM87 83.9a1.3 1.3 0 1 1-2.6 0c0-.7.6-3.4 1.3-3.4S87 83.2 87 84z" fill="#47524B" opacity=".8"/><path d="M43.7 105a1.3 1.3 0 1 1-2.6 0c0-.8.6-3.4 1.3-3.4s1.3 2.6 1.3 3.3zm21.6 0a1.3 1.3 0 1 1-2.6 0c0-.8.6-3.4 1.3-3.4s1.3 2.6 1.3 3.3zm-11.8 8.3a1.3 1.3 0 1 1-2.5 0c0-.7.5-3.3 1.3-3.3s1.3 2.6 1.3 3.3z" fill="#47524B" opacity=".2"/><path d="M77.4 78.6a1.3 1.3 0 1 1-2.6 0c0-.7.6-3.3 1.3-3.3s1.3 2.6 1.3 3.3z" fill="#47524B" opacity=".5"/><path d="M77.4 94a1.3 1.3 0 1 1-2.6 0c0-.7.6-3.4 1.3-3.4s1.3 2.7 1.3 3.4z" fill="#47524B" opacity=".8"/><path d="M77.4 113.3a1.3 1.3 0 1 1-2.6 0c0-.7.6-3.3 1.3-3.3s1.3 2.6 1.3 3.3zM87 105a1.3 1.3 0 1 1-2.6 0c0-.8.6-3.4 1.3-3.4s1.3 2.6 1.3 3.3z" fill="#47524B" opacity=".2"/><ellipse transform="rotate(-39.3 38.3 45.7)" cx="38.3" cy="45.7" rx="3" ry="6.9" fill="#B0BEC5" opacity=".3"/><ellipse transform="rotate(-77.5 92.3 45)" cx="92.3" cy="45.1" rx="3" ry="6.9" fill="#B0BEC5" opacity=".5"/><ellipse transform="rotate(-29.9 68.6 30.5)" cx="68.7" cy="30.5" rx="6.9" ry="3" fill="#B0BEC5" opacity=".3"/><ellipse transform="rotate(-22.7 101.4 108.8)" cx="101.4" cy="108.8" rx="6.9" ry="3" fill="#B0BEC5"/><ellipse transform="rotate(-62.1 108.4 91.5)" cx="108.4" cy="91.5" rx="3" ry="6.9" fill="#B0BEC5"/><ellipse transform="rotate(-62.1 26.3 108.1)" cx="26.3" cy="108.1" rx="3" ry="6.9" fill="#B0BEC5"/><ellipse transform="rotate(-15.5 20.2 89.9)" cx="20.2" cy="89.9" rx="6.9" ry="3" fill="#B0BEC5"/><ellipse transform="rotate(-38 63.3 61.1)" cx="63.3" cy="61.1" rx="6.9" ry="3" fill="#B0BEC5" opacity=".5"/><ellipse transform="rotate(-43 89 60.2)" cx="89.1" cy="60.2" rx="3" ry="6.9" fill="#B0BEC5" opacity=".5"/><ellipse transform="rotate(-41.3 100.8 77)" cx="100.8" cy="76.9" rx="6.9" ry="3" fill="#B0BEC5"/><path d="M63.9 14.7h.4c6.8.2 9.3 1.8 12 4.8 1.7 2 5.2 2.5 6.8 2.6h1a14 14 0 0 1 8.6 7.3A8 8 0 0 0 97 34c3.8 1.7 6.3 4.9 7.6 9.5 1.1 3.9 3.2 7.6 6.3 11 2 2.3 3 5.3 2.5 8.3a8 8 0 0 0 2.2 7 13.6 13.6 0 0 1 3.5 14c-.7 2-.5 4.2.4 6 1 1.9 1.3 7.5 1.2 9.2v2.8c.1 1.3.3 3.6.1 4.4-1 6.1-6.2 9.3-9.3 10.6a9.4 9.4 0 0 1-3.5 1.3h-.3a30.2 30.2 0 0 1-7.3 1h-.8c-5.6.5-16.3 1-35.6 1-19.2 0-30-.5-35.6-1h-.8a29.6 29.6 0 0 1-6.9-.9h-.4a9.1 9.1 0 0 1-4.7-1.8c-3.3-1.7-7.5-4.8-8.4-10.2-.1-.8 0-3.1.1-4.4V99c0-1.7.3-7.3 1.2-9.1 1-1.9 1.2-4 .5-6.1a13.6 13.6 0 0 1 3.5-14 8 8 0 0 0 2.2-7c-.4-3 .5-6 2.5-8.3 3-3.4 5.2-7.1 6.3-11 1.2-4.6 3.8-7.8 7.6-9.5a8 8 0 0 0 4.4-4.7c1-2.7 5.4-6.8 8.5-7.3h1c1.6 0 5-.6 6.8-2.6 2.7-3 5.2-4.6 11.8-4.8h.2m.5-3h-.8c-7.6.3-10.7 2.2-14 5.8-.8 1-3.1 1.5-4.5 1.6h-1.6c-4.2.7-9.6 5.6-10.8 9.3a5 5 0 0 1-2.9 3 16.8 16.8 0 0 0-9.2 11.4c-1 3.6-3 7-5.6 9.8a13 13 0 0 0-3.2 10.8 5 5 0 0 1-1.5 4.3A16.6 16.6 0 0 0 6 84.8c.5 1.2.4 2.5-.2 3.7-1.6 3-1.6 10.5-1.5 10.8 0 .6-.5 5.5-.2 7.3a17 17 0 0 0 10 12.5c1.7 1 3.6 1.8 5.8 2a30 30 0 0 0 7.6 1h.6c6 .5 16.8 1 35.8 1a442.6 442.6 0 0 0 41.2-1.4 32.3 32.3 0 0 0 7.6-2.1c5.7-2.5 10.1-6.9 11.1-13 .3-1.8-.3-6.7-.1-7.3 0-.3 0-7.9-1.5-10.8a4.7 4.7 0 0 1-.3-3.7l.7-2.7c.8-5.5-1.1-10.8-4.9-14.5a4.9 4.9 0 0 1-1.4-4.3c.6-4-.7-8-3.3-10.8a24.8 24.8 0 0 1-5.5-9.9c-1.1-4-3.7-8.8-9.3-11.3a5.1 5.1 0 0 1-2.8-3c-1.3-3.7-6.6-8.6-10.9-9.2l-1.5-.2c-1.4 0-3.7-.5-4.6-1.5-3.2-3.7-6.5-5.6-14-5.8z" fill="#434343" opacity=".2"/><path d="M88.3 75c.5 0 1 .5 1 1v44.1c-2 .3-9.1 1-25.3 1-16.2 0-23.3-.7-25.1-1v-44c0-.6.4-1 1-1h48.4m0-3H39.9a4 4 0 0 0-4 4v45c0 1 .9 2 2 2 0 0 6.2 1 26 1s26.4-1 26.4-1a2 2 0 0 0 2-2V76a4 4 0 0 0-4-4z" fill="#eee" opacity=".2"/></svg>