<svg viewBox="0 0 128 128" xmlns="http://www.w3.org/2000/svg" xmlns:xlink="http://www.w3.org/1999/xlink"><linearGradient id="a" x1="68.214" x2="68.214" y1="26.055" y2="70.921" gradientTransform="matrix(1.0244 -.2537 .0584 .9617 -6.07 18.203)" gradientUnits="userSpaceOnUse"><stop stop-color="#F5F5F5" offset=".1"/><stop stop-color="#D0D8DC" offset="1"/></linearGradient><path d="M19.75 36.08s-.28 18.15 13.47 21.32c13.74 3.16 33.41 9.6 39.46 10.75 10.34 1.97 31.09 4.23 36.57-4.07 10.25-15.5-1.23-34.48-20.34-38.17s-53.84-1.42-61.76 3.3-7.4 6.87-7.4 6.87z" fill="url(#a)"/><path d="M83.69 56.67c1.35.43 1.53 2.66.4 4.99s-3.14 3.88-4.49 3.45-1.53-2.66-.4-4.99c1.13-2.32 3.14-3.87 4.49-3.45z" fill="#B0BEC5" opacity=".6"/><path d="M65.27 54.52c-.39-1.29 1.28-3.29 3.73-4.45 2.45-1.17 4.76-1.06 5.15.23s-1.28 3.29-3.73 4.45-4.75 1.06-5.15-.23zM61.25 55.68c.31 1.32-1.45 3.25-3.94 4.3s-4.76.83-5.07-.49 1.45-3.25 3.94-4.3c2.48-1.06 4.75-.84 5.07.49z" fill="#D0D8DC" opacity=".2"/><path d="M73.69 57.29c.31 1.32-1.45 3.25-3.94 4.3s-4.76.83-5.07-.49 1.45-3.25 3.94-4.3c2.48-1.05 4.75-.83 5.07.49z" fill="#B0BEC5" opacity=".6"/><path d="M48.48 51.76c1.04.84.43 3.16-1.38 5.18-1.8 2.02-4.11 2.97-5.16 2.13s-.43-3.16 1.38-5.18c1.8-2.02 4.11-2.97 5.16-2.13zM29.67 38.45c1.04.84.43 3.16-1.38 5.18s-4.11 2.97-5.16 2.13-.43-3.16 1.38-5.18 4.11-2.97 5.16-2.13zM35.93 49.84c-.17 1.44-2.39 2.86-4.96 3.18s-4.5-.59-4.33-2.02c.17-1.44 2.39-2.86 4.96-3.18s4.51.59 4.33 2.02zM43.3 36.09c.73 1.11-.47 3.32-2.68 4.95-2.21 1.62-4.59 2.04-5.31.93-.73-1.11.47-3.32 2.68-4.95 2.21-1.62 4.58-2.04 5.31-.93zM56.1 38.17c1.39-.86 3.49-.04 4.68 1.83s1.03 4.08-.37 4.94c-1.39.86-3.49.04-4.68-1.83s-1.03-4.09.37-4.94zM39.43 48.46c-.25-1.35 1.58-3.22 4.09-4.19s4.75-.66 5.01.69c.25 1.35-1.58 3.22-4.09 4.19s-4.76.66-5.01-.69z" fill="#D0D8DC" opacity=".2"/><path d="M64.37 46.24c-.34 1.44-2.67 2.66-5.19 2.71-2.53.06-4.3-1.07-3.96-2.51s2.67-2.66 5.19-2.71c2.52-.06 4.3 1.06 3.96 2.51z" fill="#D0D8DC" opacity=".2"/><linearGradient id="b" x1="35.468" x2="112.24" y1="10.439" y2="73.312" gradientTransform="matrix(1.026 -.2037 .00538 .9736 -1.919 14.356)" gradientUnits="userSpaceOnUse"><stop stop-color="#F4805C" offset=".259"/><stop stop-color="#F05323" offset="1"/></linearGradient><path d="M125.42 59.62s-8.25-8.68-13.64-18.71S82.65 3.67 42.29 14.8c-14.58 4.02-20.46 9.09-23.93 12.73-2.25 2.37-3.8 5.02-4.42 7.29 12.2-6.58 24.76-3.84 35.32 1.26 21.25 10.25 41.67 22.85 65.87 27.16 7.35-1.03 10.29-3.62 10.29-3.62z" fill="url(#b)"/><path d="M13.93 34.83c-.96 3.49.27 6.07 4.49 5.35 6.97-1.19 11.66-6.21 21.94-2.99s36.81 21.5 54.51 25c8.88 1.76 15.49 1.73 20.26 1.06C73.5 52.08 72.32 44.91 50.25 34.58c-11.75-5.5-29.5-5-36.32.25z" fill="#EF4137"/><defs><path id="c" d="M111.78 41.23C106.39 31.2 82.65 3.99 42.29 15.12c-14.58 4.02-20.46 9.09-23.93 12.73-2.25 2.37-3.8 5.02-4.42 7.29-.96 3.49.27 6.07 4.49 5.35 6.97-1.19 11.66-6.21 21.94-2.99s36.81 21.5 54.51 25c8.88 1.76 15.49 1.73 20.26 1.06 7.36-1.04 10.3-3.62 10.3-3.62s-8.27-8.68-13.66-18.71z"/></defs><clipPath id="d"><use xlink:href="#c"/></clipPath><g clip-path="url(#d)" fill="#FBCBBD" opacity=".6"><path d="M27.14 37.61c.67.75 1.59-.58 1.04-1.21-2.9-3.27-2.53-6.72-.52-9.78-.36-.51-.67-1.09-.94-1.74-3.17 4.31-2.42 9.53.42 12.73zM48.93 12.27c.68-.65-.12-1.91-.93-1.13-2.78 2.65-6.12 4.19-9.47 5.69 1.43-.11 2.87-.22 4.31-.32 2.12-1.09 4.11-2.35 6.09-4.24z" opacity=".6"/><path d="M37.54 18.93c1.89-.83 3.63-1.57 5.3-2.42-1.44.11-2.88.21-4.31.32-4.31 1.93-8.61 3.81-11.72 7.91-.03.04-.06.09-.09.13.26.65.57 1.24.94 1.74 2.1-3.2 6.01-5.98 9.88-7.68zM56.39 22.11c5.51-2.21 10.5-4.29 15.23-7.83-.92-.05-1.83-.08-2.76-.11-3.14 2.15-6.47 3.79-10.05 5.18-2.79 1.08-6.29.98-8.83 2.79-2.26 1.61-3.27 4.71-4.13 6.99.6.2 1.21.4 1.82.59.14-.36.28-.72.46-1.08 1.77-3.62 4.69-5.1 8.26-6.53zM45.1 40.64c.14.94 1.97.99 1.8-.16-.52-3.49-.67-7.09.78-10.75-.61-.19-1.22-.39-1.82-.59-1.42 3.79-1.27 8.09-.76 11.5z" opacity=".6"/><path d="M74.19 12.21c.83-.74-.57-1.82-1.42-1.07a39.084 39.084 0 0 1-3.91 3.03c.92.02 1.84.06 2.76.11.87-.64 1.72-1.32 2.57-2.07z" opacity=".6"/><path d="M57.02 49.64c-.49.46-.24 2.2.18 1.8 2.21-2.08 3.89-4.23 4.32-7.03.16-1.03.05-1.99 0-2.98-.37-.06-.73-.08-1.06-.01.08 2.65-.06 5.04-3.44 8.22z" opacity=".8"/><path d="M88.46 19.06c.48-.47.23-2.2-.18-1.8-1.3 1.26-2.68 2.18-4.11 2.9.7.21 1.4.44 2.09.68.74-.52 1.48-1.09 2.2-1.78zM60.61 36.7c-.31 1.77-.2 3.28-.15 4.72.33-.08.69-.05 1.06.01 0-.04 0-.08-.01-.12-.07-1.73 0-3.36.33-4.91-.38-.03-.76-.07-1.14-.1-.02.13-.06.26-.09.4z" opacity=".6"/><path d="M66.57 28.85c5.9-4.95 13.42-3.77 19.68-8.01-.69-.24-1.38-.47-2.09-.68-5.83 2.94-14.68 2.83-20 7.31-3.02 2.54-2.74 5.32-3.46 8.83.38.04.76.07 1.14.1.58-2.73 1.94-5.22 4.73-7.55zM78.7 46.86c.65 0 1.28.01 1.9.06-.64-1.94-.34-3.91.99-6.07l-2.17.12c-1.05 2.14-1.31 4.06-.72 5.89z" opacity=".6"/><path d="M82.49 39.55c2.71-3.46 6.6-3.89 10.32-5.16 2.39-.81 4.56-1.87 6.6-3.18-.54-.42-1.09-.82-1.65-1.21-2.94 1.76-6.02 2.96-9.59 4.09-3.51 1.12-6 2.24-8.07 5.63-.26.43-.48.84-.68 1.25.72-.04 1.44-.07 2.17-.12.26-.42.55-.85.9-1.3z" opacity=".6"/><path d="M105.09 26.64c.58-.57-.89-1.75-1.52-1.14a31.357 31.357 0 0 1-5.82 4.5c.56.39 1.11.79 1.65 1.21 2-1.28 3.86-2.8 5.69-4.57z" opacity=".6"/><path d="M82.08 50.1c-.13-.73-.54-1.16-.88-1.77-.26-.47-.45-.94-.6-1.41-.61-.05-1.25-.06-1.9-.06.16.5.37 1 .66 1.49 2.23 3.74-2.28 5.93-1.7 9.69.1.64 1.85 1.39 1.72.52-.43-2.79 3.21-5.53 2.7-8.46zM94.9 50.8c-.17 5.1 4.72 7.5-.76 13.06-.46.47.9 1.7 1.38 1.22 3.21-3.26 3.42-5.95 2.28-9.47-.72-2.21-1.01-3.89-.34-5.86-.74-.2-1.48-.39-2.21-.54-.2.52-.33 1.05-.35 1.59z" opacity=".8"/><path d="M114.48 34.96c-.3-.5-1.88-1.05-1.26-.03 3.1 5.09-3.84 4.68-7.18 5.41-3.21.7-5.29 1.56-7.51 4.16-1.29 1.51-2.66 3.07-3.28 4.72.73.15 1.47.34 2.21.54.24-.73.61-1.49 1.14-2.35 1.4-2.23 2.98-3.84 5.44-4.84 5-2.05 14.72-.57 10.44-7.61z"/></g><path d="M61.12 15.18c27.61 0 44.2 19.6 48.26 27.16 3.76 7 8.8 13.29 11.73 16.69-1.41.57-3.44 1.18-6.16 1.56-1.65.23-3.48.36-5.42.38-1 .01-1.93.52-2.48 1.36-.03.04-.05.09-.08.13C105 65.39 99.34 67 91.03 67c-7.08 0-14.03-1.13-17.54-1.8-2.64-.5-8.27-2.14-14.8-4.04-7.99-2.32-17.04-4.96-24.55-6.69-4.12-.95-9.35-4.28-10.85-14.77-.12-.85-.6-1.6-1.31-2.07-.5-.33-1.08-.5-1.66-.5-.25 0-.51.03-.75.1-.56.14-.99.24-1.4.31-.3.05-.58.08-.82.08-.22 0-.36-.02-.44-.04-.02-.09-.04-.26-.03-.49v-.16c-.01-.37.06-.83.19-1.3.51-1.87 1.9-4.11 3.7-6.01 3.42-3.59 9.07-8.19 22.56-11.91 6.06-1.68 12.05-2.53 17.79-2.53m0-3c-5.74 0-11.94.79-18.59 2.63-14.58 4.02-20.46 9.09-23.93 12.73-2.25 2.37-3.8 5.02-4.42 7.29-.21.77-.31 1.49-.3 2.14-.09 2.15.98 3.65 3.47 3.65.4 0 .84-.04 1.32-.12.56-.1 1.11-.22 1.65-.36.79 5.54 3.55 15.06 13.15 17.27C47.21 60.56 66.88 67 72.93 68.15c4.69.89 11.52 1.85 18.1 1.85 7.92 0 15.48-1.38 18.47-5.91.02-.04.04-.07.07-.11 2.18-.02 4.12-.17 5.81-.41 7.36-1.04 10.3-3.62 10.3-3.62s-.07-.07-.17-.18c.11-.08.17-.13.17-.13s-8.25-8.68-13.64-18.71c-4.52-8.39-21.82-28.75-50.92-28.75z" fill="#434343" opacity=".2"/><linearGradient id="e" x1="56.447" x2="56.447" y1="70.002" y2="114.87" gradientTransform="matrix(1.0244 -.2537 .0584 .9617 -6.07 18.203)" gradientUnits="userSpaceOnUse"><stop stop-color="#F5F5F5" offset=".1"/><stop stop-color="#D0D8DC" offset="1"/></linearGradient><path d="M10.26 81.34s-.28 18.15 13.47 21.32c13.75 3.16 33.41 9.59 39.46 10.75 10.34 1.97 31.09 4.23 36.57-4.07 10.25-15.5-1.23-34.48-20.34-38.17s-53.84-1.42-61.76 3.3-7.4 6.87-7.4 6.87z" fill="url(#e)"/><path d="M74.2 101.93c1.35.43 1.53 2.66.4 4.99s-3.14 3.88-4.49 3.45-1.53-2.66-.4-4.99 3.14-3.88 4.49-3.45zM89.6 105.15c.64 1.26-.83 2.95-3.29 3.78s-4.97.47-5.61-.79.83-2.95 3.29-3.78c2.46-.82 4.97-.47 5.61.79z" fill="#B0BEC5" opacity=".6"/><path d="M55.78 99.77c-.39-1.29 1.28-3.29 3.73-4.45 2.45-1.17 4.76-1.06 5.15.23s-1.28 3.29-3.73 4.45c-2.45 1.17-4.75 1.06-5.15-.23zM51.76 100.93c.31 1.32-1.45 3.25-3.94 4.3s-4.76.83-5.07-.49 1.45-3.25 3.94-4.3c2.48-1.06 4.75-.84 5.07.49z" fill="#D0D8DC" opacity=".2"/><path d="M64.2 102.54c.31 1.32-1.45 3.25-3.94 4.3s-4.76.83-5.07-.49 1.45-3.25 3.94-4.3c2.48-1.05 4.75-.83 5.07.49z" fill="#B0BEC5" opacity=".6"/><path d="M38.99 97.01c1.04.84.43 3.16-1.38 5.18-1.8 2.02-4.11 2.97-5.16 2.13-1.04-.84-.43-3.16 1.38-5.18 1.8-2.01 4.11-2.97 5.16-2.13zM20.18 83.7c1.04.84.43 3.16-1.38 5.18s-4.11 2.97-5.16 2.13-.43-3.16 1.38-5.18c1.8-2.02 4.11-2.97 5.16-2.13zM26.44 95.1c-.17 1.44-2.39 2.86-4.96 3.18s-4.5-.59-4.33-2.02 2.39-2.86 4.96-3.18 4.51.58 4.33 2.02zM33.81 81.34c.73 1.11-.47 3.32-2.68 4.95s-4.59 2.04-5.31.93.47-3.32 2.68-4.95 4.58-2.04 5.31-.93zM46.61 83.42c1.39-.86 3.49-.04 4.68 1.83s1.03 4.08-.37 4.94c-1.39.86-3.49.04-4.68-1.83s-1.03-4.08.37-4.94zM29.94 93.72c-.25-1.35 1.58-3.22 4.09-4.19s4.75-.66 5.01.69c.25 1.35-1.58 3.22-4.09 4.19-2.51.96-4.76.65-5.01-.69z" fill="#D0D8DC" opacity=".2"/><path d="M54.88 91.49c-.34 1.44-2.67 2.66-5.19 2.71-2.53.06-4.3-1.07-3.96-2.51s2.67-2.66 5.19-2.71c2.52-.06 4.3 1.07 3.96 2.51z" fill="#D0D8DC" opacity=".2"/><linearGradient id="f" x1="25.986" x2="102.76" y1="54.936" y2="117.81" gradientTransform="matrix(1.026 -.2037 .00538 .9736 -1.919 14.356)" gradientUnits="userSpaceOnUse"><stop stop-color="#F05454" offset=".259"/><stop stop-color="#ED1C24" offset="1"/></linearGradient><path d="M115.93 104.87s-8.25-8.68-13.64-18.71c-5.39-10.02-29.14-37.23-69.5-26.1-14.58 4.02-20.46 9.09-23.93 12.73-2.25 2.37-3.8 5.02-4.42 7.29 12.2-6.58 24.76-3.84 35.32 1.26 21.25 10.25 41.67 22.85 65.87 27.16 7.36-1.04 10.3-3.63 10.3-3.63z" fill="url(#f)"/><path d="M4.44 80.08c-.96 3.49.27 6.07 4.49 5.35 6.97-1.19 11.55-5.81 21.82-2.6s36.92 21.1 54.62 24.6c8.88 1.76 15.49 1.73 20.26 1.06-41.62-11.16-42.8-18.33-64.87-28.66-11.75-5.49-29.5-4.99-36.32.25z" fill="#CB2027"/><defs><path id="g" d="M102.29 86.49C96.9 76.46 73.15 49.25 32.8 60.37 18.22 64.39 12.34 69.46 8.87 73.1c-2.25 2.37-3.8 5.02-4.42 7.29-.96 3.49.27 6.07 4.49 5.35 6.97-1.19 11.66-6.21 21.94-2.99s37.31 21.33 55.01 24.83c8.88 1.76 14.99 1.9 19.76 1.23 7.36-1.04 10.3-3.62 10.3-3.62s-8.27-8.68-13.66-18.7z"/></defs><clipPath id="h"><use xlink:href="#g"/></clipPath><g clip-path="url(#h)" fill="#A31E22" opacity=".6"><path d="M17.65 82.86c.23-.02 1.59-.58 1.04-1.21-2.9-3.27-2.53-6.72-.52-9.78-.36-.51-.67-1.09-.94-1.74-3.17 4.31-3.83 13.19.42 12.73zM39.44 57.52c.68-.65-.12-1.91-.93-1.13-2.78 2.65-6.12 4.19-9.47 5.69 1.43-.11 2.87-.22 4.31-.32 2.12-1.09 4.11-2.35 6.09-4.24z" opacity=".6"/><path d="M28.05 64.18c1.89-.83 3.63-1.57 5.3-2.42-1.44.11-2.88.21-4.31.32-4.31 1.93-8.61 3.81-11.72 7.91-.03.04-.06.09-.09.13.26.65.57 1.24.94 1.74 2.1-3.2 6.01-5.98 9.88-7.68zM46.9 67.36c5.51-2.21 10.5-4.29 15.23-7.83-.92-.05-1.83-.08-2.76-.11-3.14 2.15-6.47 3.79-10.05 5.18-2.79 1.08-6.29.98-8.83 2.79-2.26 1.61-3.27 4.71-4.13 6.99.6.2 1.21.4 1.82.59.14-.36.28-.72.46-1.08 1.77-3.62 4.69-5.09 8.26-6.53zM35.61 85.9c.14.94 1.97.99 1.8-.16-.52-3.49-.67-7.09.78-10.75-.61-.19-1.22-.39-1.82-.59-1.42 3.79-1.27 8.08-.76 11.5z" opacity=".6"/><path d="M64.7 57.46c.83-.74-.57-1.82-1.42-1.07a39.084 39.084 0 0 1-3.91 3.03c.92.02 1.84.06 2.76.11.86-.64 1.72-1.32 2.57-2.07zM47.53 94.89c-.49.46-.24 2.2.18 1.8 2.21-2.08 3.89-4.23 4.32-7.03.16-1.03.05-1.99 0-2.98-.37-.06-.73-.08-1.06-.01.08 2.66-.06 5.04-3.44 8.22zM78.97 64.31c.48-.47.23-2.2-.18-1.8-1.3 1.26-2.68 2.18-4.11 2.9.7.21 1.4.44 2.09.68.74-.52 1.48-1.09 2.2-1.78z" opacity=".6"/><path d="M51.12 81.95c-.31 1.77-.2 3.28-.15 4.72.33-.08.69-.05 1.06.01 0-.04 0-.08-.01-.12-.07-1.73 0-3.36.33-4.91-.38-.03-.76-.07-1.14-.1-.02.13-.06.27-.09.4z" opacity=".6"/><path d="M57.08 74.1c5.9-4.95 13.42-3.77 19.68-8.01-.69-.24-1.38-.47-2.09-.68-5.83 2.94-14.68 2.83-20 7.31-3.02 2.54-2.74 5.32-3.46 8.83.38.04.76.07 1.14.1.58-2.73 1.94-5.21 4.73-7.55z" opacity=".6"/><g opacity=".6"><path d="M69.21 92.11c.65 0 1.28.01 1.9.06-.64-1.94-.34-3.91.99-6.07l-2.17.12c-1.05 2.14-1.31 4.07-.72 5.89z" opacity=".6"/><path d="M73 84.81c2.71-3.46 6.6-3.89 10.32-5.16 2.39-.81 4.56-1.87 6.6-3.18-.54-.42-1.09-.82-1.65-1.21-2.94 1.76-6.02 2.96-9.59 4.09-3.51 1.12-6 2.24-8.07 5.63-.26.43-.48.84-.68 1.25.72-.04 1.44-.07 2.17-.12.26-.43.55-.86.9-1.3z" opacity=".6"/><path d="M95.6 71.9c.58-.57-.89-1.75-1.52-1.14a31.357 31.357 0 0 1-5.82 4.5c.56.39 1.11.79 1.65 1.21 2-1.28 3.86-2.8 5.69-4.57z" opacity=".6"/><path d="M72.59 95.35c-.13-.73-.54-1.16-.88-1.77-.26-.47-.45-.94-.6-1.41-.61-.05-1.25-.06-1.9-.06.16.5.37 1 .66 1.49 2.23 3.74-2.28 5.93-1.7 9.69.1.64 1.85 1.39 1.72.52-.43-2.79 3.21-5.52 2.7-8.46z" opacity=".8"/></g><path d="M85.41 96.05c-.17 5.1 4.72 7.5-.76 13.06-.46.47.9 1.7 1.38 1.22 3.21-3.26 3.42-5.95 2.28-9.47-.72-2.21-1.01-3.89-.34-5.86-.74-.2-1.48-.39-2.21-.54-.2.52-.33 1.05-.35 1.59z" opacity=".6"/><path d="M104.99 80.21c-.3-.5-1.88-1.05-1.26-.03 3.1 5.09-3.84 4.68-7.18 5.41-3.21.7-5.29 1.56-7.51 4.16-1.29 1.51-2.66 3.07-3.28 4.72.73.15 1.47.34 2.21.54.24-.73.61-1.49 1.14-2.35 1.4-2.23 2.98-3.84 5.44-4.84 5-2.05 14.72-.57 10.44-7.61z" opacity=".6"/></g><path d="M51.38 60.1c27.61 0 44.2 19.6 48.26 27.16 3.76 7 8.8 13.29 11.73 16.69-1.41.57-3.43 1.18-6.16 1.56-1.62.23-3.31.34-5.16.34h-.2c-1.01 0-1.96.51-2.51 1.36-.03.05-.07.11-.1.17-1.97 2.93-7.63 4.54-15.95 4.54-7.08 0-14.03-1.12-17.54-1.79-2.64-.5-8.27-2.14-14.8-4.04-7.99-2.32-17.04-4.96-24.55-6.69-4.12-.95-9.35-4.28-10.85-14.77-.12-.85-.6-1.6-1.31-2.07-.5-.33-1.08-.5-1.66-.5-.25 0-.51.03-.75.1-.56.14-.99.24-1.4.31-.3.05-.58.08-.82.08-.22 0-.36-.02-.44-.04-.02-.09-.04-.26-.03-.49v-.16c-.01-.37.06-.83.19-1.3.51-1.87 1.9-4.11 3.7-6.01 3.42-3.59 9.07-8.19 22.56-11.91 6.06-1.69 12.05-2.54 17.79-2.54m0-3c-5.74 0-11.94.79-18.59 2.63-14.58 4.02-20.46 9.09-23.93 12.73-2.25 2.37-3.8 5.02-4.42 7.29-.21.77-.31 1.49-.3 2.14-.09 2.15.98 3.65 3.47 3.65.4 0 .84-.04 1.32-.12.56-.1 1.11-.22 1.65-.36.79 5.54 3.55 15.06 13.15 17.27 13.75 3.16 33.41 9.59 39.46 10.75 4.69.89 11.52 1.85 18.1 1.85 7.92 0 15.48-1.38 18.47-5.91l.09-.15h.2c2.06 0 3.9-.13 5.57-.37 7.36-1.04 10.3-3.62 10.3-3.62s-.07-.07-.17-.18c.11-.08.17-.13.17-.13s-8.25-8.68-13.64-18.71c-4.5-8.4-21.8-28.76-50.9-28.76z" fill="#434343" opacity=".2"/><linearGradient id="i" x1="-78.324" x2="-109.32" y1="-140.38" y2="-95.88" gradientUnits="userSpaceOnUse"><stop stop-color="#D0D8DC" offset="0"/><stop stop-color="#F5F5F5" offset="1"/></linearGradient><path d="M-56.73-127.23l-30.94 9.28c-6.33 1.94-16.36 5.29-26.74 2.99l-5.89-1.7 15.96-34.67s59.68-19.87 59.56-11.24c-.37 26.05-5.59 33.41-11.95 35.34z" fill="url(#i)"/><path d="M-121.15-115.52s-17.5 1.5-19-27.5c-.39-7.51 7.01-11.87 14.9-10.85l10.16.8c6.58.85 14.03 3.01 13.04 12.54-2.1 20.01-4.6 27.51-19.1 25.01z" fill="#eee"/><path d="M-65.36-149.64c1.26.69 1.43 2.99.38 5.15s-2.93 3.35-4.19 2.66-1.43-2.99-.38-5.15c1.06-2.16 2.93-3.35 4.19-2.66zM-59.36-152.08c.3-1.4 2.46-2.23 4.82-1.84 2.37.39 4.05 1.84 3.75 3.24s-2.46 2.23-4.82 1.84-4.04-1.84-3.75-3.24z" fill="#B0BEC5" opacity=".6"/><path d="M-54.31-139.49c-1.02-1.01-.55-3.27 1.05-5.06 1.6-1.78 3.74-2.41 4.76-1.41s.55 3.27-1.05 5.06c-1.61 1.79-3.74 2.42-4.76 1.41z" fill="#D0D8DC" opacity=".2"/><path d="M-63.29-140.89c.88-1.13 3.18-.93 5.14.45s2.84 3.42 1.96 4.56c-.88 1.13-3.18.93-5.14-.45s-2.84-3.42-1.96-4.56z" fill="#B0BEC5" opacity=".6"/><path d="M-82.88-123.41c-.37-1.39 1.19-3.1 3.48-3.82s4.44-.18 4.81 1.21-1.19 3.1-3.48 3.82-4.44.18-4.81-1.21zM-66.07-133.56c2.29-.72 4.44-.18 4.81 1.21M-83.23-130.38c.29 1.41-1.35 3.03-3.68 3.63-2.32.6-4.45-.06-4.74-1.46-.29-1.41 1.35-3.03 3.68-3.63 2.32-.59 4.44.06 4.74 1.46z" fill="#D0D8DC" opacity=".2"/><path d="M-77.9-142.71c.29 1.41-1.35 3.03-3.68 3.63s-4.45-.06-4.74-1.46c-.29-1.41 1.35-3.03 3.68-3.63 2.32-.6 4.45.06 4.74 1.46z" fill="#B0BEC5" opacity=".6"/><path d="M-74.16-140.62c1.43-.06 2.77 1.83 2.98 4.22s-.78 4.38-2.22 4.44c-1.43.06-2.77-1.83-2.98-4.22-.2-2.39.79-4.38 2.22-4.44zM-96.12-124.36c.98 1.05.4 3.29-1.28 5s-3.84 2.24-4.82 1.19-.4-3.29 1.28-5 3.85-2.24 4.82-1.19zM-130.35-137.81c.98 1.05.4 3.29-1.28 5s-3.84 2.24-4.82 1.19-.4-3.29 1.28-5 3.84-2.25 4.82-1.19zM-123.73-126.43c-.16 1.43-2.23 2.45-4.63 2.29-2.39-.16-4.21-1.45-4.04-2.87.16-1.43 2.23-2.45 4.63-2.29 2.39.16 4.2 1.45 4.04 2.87zM-115.01-138.61c.68 1.26-.44 3.29-2.5 4.52s-4.28 1.2-4.96-.06.44-3.29 2.5-4.52 4.28-1.21 4.96.06zM-109.09-134.57c1.3-.61 3.26.62 4.37 2.75s.96 4.34-.34 4.95-3.26-.62-4.37-2.75c-1.11-2.12-.96-4.34.34-4.95zM-117.98-121.8c-.24-1.42 1.47-2.97 3.82-3.48s4.44.23 4.68 1.65-1.47 2.97-3.82 3.48c-2.35.5-4.45-.23-4.68-1.65zM-92.38-134.17c-.32 1.4-2.49 2.19-4.85 1.77s-4.02-1.9-3.71-3.3 2.49-2.19 4.85-1.77c2.37.42 4.03 1.9 3.71 3.3z" fill="#D0D8DC" opacity=".2"/><path d="M-49.75-162.74c1.87 0 2.67.25 2.96.39-.42 27.03-6.2 31.9-10.51 33.21l-30.96 9.28-.88.27c-4.67 1.44-11.07 3.41-17.95 3.41-2.38 0-4.68-.24-6.84-.71l-.46-.13a2.09 2.09 0 0 0-.55-.08c-.05 0-.1 0-.16.01-.4.03-.83.05-1.26.05-1.31 0-2.81-.14-4.46-.43-.11-.02-.23-.03-.35-.03-.05 0-.1 0-.15.01-.03 0-.12.01-.28.01-2.55 0-15.31-1.24-16.57-25.62-.11-2.21.57-4.11 2.04-5.66 1.96-2.06 5.09-3.24 8.6-3.24.66 0 1.34.04 2.01.13.03 0 .07.01.1.01l10.11.8c2.68.35 6.5 1.04 8.87 3.03a1.972 1.972 0 0 0 1.73.42c.61-.14 1.12-.55 1.38-1.12l.44-.96c5.78-1.9 40.42-13.05 53.14-13.05m0-2c-14.3 0-54.6 13.41-54.6 13.41l-.8 1.75c-2.59-2.18-6.39-3.03-9.95-3.49l-10.16-.8c-.76-.1-1.52-.15-2.26-.15-6.98 0-12.99 4.22-12.64 11 1.36 26.28 15.86 27.51 18.57 27.51.28 0 .43-.01.43-.01 1.78.31 3.37.46 4.8.46.49 0 .96-.02 1.42-.05l.52.15c2.48.55 4.94.77 7.34.77 7.63 0 14.59-2.29 19.41-3.77l30.94-9.28c6.36-1.92 11.58-9.28 11.94-35.34.02-1.53-1.86-2.16-4.96-2.16z" fill="#434343" opacity=".2"/><path d="M-46.68-155.43s-6.89 1.18-23 5.99c-17.19 5.14-23.46 8.29-26.93 9.38-5.48 1.71-9.71.91-16.11-.57-6.81-1.58-14.35-2.72-23.38-2.95-6.66-.17-6.85-3.14-6.85-3.14-1.08-14.12 17.96-23.01 30.78-27.45 21.19-7.34 34.16-7.2 43-5.67 7.67 1.33 11.66 3.85 18.35 6.67 3.91 1.65 6.68 2.29 8.01 2.53.55.1.95.54 1 1.09.28 3.04.66 12.32-4.87 14.12z" fill="#F9A01B"/><linearGradient id="j" x1="-143.15" x2="-41.914" y1="-160.48" y2="-160.48" gradientUnits="userSpaceOnUse"><stop stop-color="#FFCB28" offset=".263"/><stop stop-color="#FCB316" offset=".826"/></linearGradient><path d="M-43.44-172.65c2.61 2.76 1.83 4.51-2.09 4.82-4.02.31-11.45 1.92-25.5 6.79-9.72 3.37-21.51 8.67-25.6 11.27-9.12 5.81-3.66 10.71-6.11 11.27-3.38.78-7.78-.81-14.18-2.3-6.81-1.58-9.9-2.18-18.92-2.4-6.66-.17-6.85-3.14-6.85-3.14-1.09-4.48-1.04-12.85 9-18.07 5.44-2.83 11.83-6.92 24.66-11.36 21.19-7.34 29.77-8.22 41.85-5.43 7.58 1.75 8.78 1.33 16.33 4.12 4.13 1.52 5.81 2.74 7.41 4.43z" fill="url(#j)"/><path d="M-79.53-180.68c2.92 0 5.48.34 8.67.9.41.07.86.15 1.35.23 6.34 1.08 23.18 3.94 25.68 9.81.02.05.04.09.06.13l.03.09c.2.57.25 1.13.16 1.73l-.03.1c-.04.17-.06.34-.06.51.05 2.56-.2 8.59-3.51 9.81-1.16.21-8.19 1.57-23.07 6.02-12.22 3.65-19.03 6.34-23.1 7.94-1.68.66-2.9 1.14-3.85 1.44-1.41.44-4.52 1.33-4.83 1.41-.88.2-1.71.3-2.61.3-2.18 0-4.92-.56-9.78-2-6.69-1.99-12.08-2.74-20.62-2.87-3.8-.06-5.08-.79-5.51-1.22s-.47-1.1-.5-2.17l-.01-.26c-.34-7.74 4.19-11.76 8.06-13.77.73-.38 1.52-.8 2.38-1.25 5.5-2.92 13.82-7.33 24.72-11 12.39-4.18 20.03-5.88 26.37-5.88m0-2c-6 0-13.44 1.41-27.02 5.97-12.75 4.29-21.94 9.54-27.38 12.37-10.04 5.22-9.17 14.41-9.13 15.86.07 2.37.12 5.21 7.98 5.33 8.11.13 13.39.8 20.09 2.79 4.77 1.42 7.79 2.09 10.35 2.09 1.07 0 2.06-.12 3.06-.35.27-.06 3.52-1 4.98-1.45 3.47-1.08 9.74-4.24 26.93-9.38 16.11-4.82 23-5.99 23-5.99 4.47-1.46 5.08-7.81 5-11.79.02-.09.05-.16.06-.27.15-.96.04-1.85-.25-2.69-.02-.21-.04-.33-.04-.33s-.04 0-.1-.01c-3.11-7.31-21.72-10.05-28.52-11.23-3.06-.52-5.83-.92-9.01-.92z" fill="#434343" opacity=".2"/><linearGradient id="k" x1="-63.698" x2="-101.49" y1="-138.43" y2="-175.71" gradientUnits="userSpaceOnUse"><stop stop-color="#212E26" offset="0"/><stop stop-color="#334038" offset=".505"/><stop stop-color="#48534C" offset=".909"/></linearGradient><path d="M-85.17-160.63s-9.75-3.15-21.36-5.36c-14.65-2.79-20.27-2.12-20.27-2.12s5.93-3.04 10.94-4.99c6.89-2.68 10.93-4.13 10.93-4.13s4.3-.09 17.42 2.46 21.7 4.9 21.7 4.9c6.79 1.42 11.6 7.49 11.42 14.43l-.65 24.6a4.472 4.472 0 0 1-3.23 4.18l-19.03 5.51a6.427 6.427 0 0 0 1.88-4.58l-.15-23c-.05-5.7-4.03-10.63-9.6-11.9z" fill="url(#k)"/><path d="M-104.59-175.22c1.2.04 5.86.31 16.7 2.42 12.89 2.5 21.47 4.84 21.55 4.86l.12.03c5.85 1.22 9.98 6.44 9.83 12.42l-.65 24.6a2.47 2.47 0 0 1-1.79 2.31l-14.71 4.26c.08-.47.12-.94.11-1.42l-.15-23a14.28 14.28 0 0 0-11.07-13.82c-.99-.32-10.49-3.29-21.51-5.39-5.19-.99-9.29-1.55-12.4-1.86 1.14-.5 2.3-.99 3.42-1.42 5.68-2.21 9.45-3.59 10.55-3.99m-.28-2h-.05s-4.04 1.45-10.93 4.13c-5.01 1.95-10.94 4.99-10.94 4.99s.59-.07 1.9-.07c2.71 0 8.49.31 18.38 2.19 11.61 2.21 21.36 5.36 21.36 5.36 5.57 1.27 9.54 6.19 9.6 11.91l.15 23c.01 1.72-.67 3.36-1.88 4.58l19.03-5.51a4.472 4.472 0 0 0 3.23-4.18l.65-24.6c.18-6.94-4.62-13.01-11.42-14.43 0 0-8.58-2.35-21.7-4.9-12.29-2.39-16.85-2.47-17.38-2.47z" fill="#eee" opacity=".2"/><path d="M95.19-126.3s-5.54-2.26-24.62 4.72c-14.42 5.27-25.65 10.05-30.78 12.52-5.18 2.49-6.94-.41-13.34-1.9-2.67-.62-3.66-2.68-3.87-4.95-.38-4.08 1.85-7.96 5.41-9.97 8.07-4.54 26.2-13.96 40.73-15.81 8.22-1.05 14.58-.91 19.16-.4 6.17.69 12.64 1.83 9.15 12.6-.44 1.38-.92 2.58-1.84 3.19z" fill="#BE3A26" opacity=".2"/><linearGradient id="l" x1="58.518" x2="56.606" y1="-112.04" y2="-75.717" gradientUnits="userSpaceOnUse"><stop stop-color="#D0D8DC" offset="0"/><stop stop-color="#F5F5F5" offset="1"/></linearGradient><path d="M78.7-98.61S55.4-84.82 26.25-84.44l-4.73-.79 13.3-36.43 60.33-13.2-.37 9.72c-.39 17.94-8.61 22.8-16.08 26.53z" fill="url(#l)"/><linearGradient id="m" x1="18.233" x2="18.233" y1="-120.05" y2="-86.383" gradientUnits="userSpaceOnUse"><stop stop-color="#D0D8DC" offset="0"/><stop stop-color="#F5F5F5" offset=".476"/></linearGradient><path d="M20.01-85.34S-.59-86.5.8-110.3c.47-8.04 4.8-14.92 12.45-13.91l9.84.8c6.38.85 12.63 5.9 12.63 12.54v13.49c.01 7.97-5.55 14.08-15.71 12.04z" fill="url(#m)"/><path d="M95.19-126.3s-5.54-2.26-24.62 4.72c-14.42 5.27-25.65 10.05-30.78 12.52-5.18 2.49-6.94-.41-13.34-1.9-2.67-.62-3.66-2.68-3.87-4.95-.38-4.08 1.85-7.96 5.41-9.97 8.07-4.54 26.2-13.96 40.73-15.81 8.22-1.05 14.58-.91 19.16-.4 6.17.69 12.64 1.83 9.15 12.6-.44 1.38-.92 2.58-1.84 3.19z" fill="#F1592B"/><path d="M97.55-137.82c.08 1.54.08-.22-1.46-.36-3.12-.28-10.33.7-27.95 6.81-9.72 3.37-21.51 8.67-25.6 11.27-9.12 5.81-3.66 10.71-6.11 11.27-3.38.78-7.78-.81-14.18-2.3-6.81-1.58-9.9-2.18-18.92-2.4-.07 0-.13 0-.2-.01-4.15-.14-6.82-4.42-5.27-8.27 5.31-13.22 22.35-19.44 33.72-23.58 21.95-8 32.71-7.93 41.55-6.39 7.67 1.33 8.41 1.34 15.11 4.17 7.94 3.36 9.14 6.49 9.31 9.79z" fill="#F37046"/><defs><path id="n" d="M97.55-137.82c-.23 1.53-.86.72-2.4.58-3.12-.28-12.86.42-29.36 6.81-10.86 4.21-20.04 7.41-23.72 10.57-6.82 5.84-1.93 10.15-4.23 10.68-3.38.78-8.46.48-14.86-1-6.81-1.58-10.71-2.67-18.82-2.8-8.56-.14-7.98-3.45-8.05-5.82-.04-1.45 1.12-4.85 9.34-13.81 4.14-4.52 14.28-10.15 27.17-14.42 20.78-6.89 27.18-6.58 36.02-5.05 7.67 1.33 30.37 4.63 28.91 14.26z"/></defs><clipPath id="o"><use xlink:href="#n"/></clipPath><path d="M-8.01-108.5s-43.25-.2-44.75-8.45c-1.01-5.58.46-10.81.46-10.81s.37 4.73 6.45 6.06c3.58.78 8.18 1.59 20.78 2.8 13.08 1.25 19.49-2.21 19.49-2.21l-2.43 12.61z" clip-path="url(#o)" fill="#F58967"/><path d="M93.04-132.35l-.28 7.17c-.36 17.49-8.46 21.53-14.96 24.79-.04.02-.08.04-.12.07-.23.14-23.1 13.48-51.33 13.89-.73-.09-4.33-.53-5.95-.85-.09-.02-.19-.03-.28-.04-.07 0-7.51-.49-12.6-6.2-3.55-3.98-5.13-9.58-4.72-16.64.52-8.95 5.16-12.12 8.98-12.12.39 0 .8.03 1.21.08.03 0 .07.01.1.01l9.79.79c3.14.43 6.24 2.04 8.3 4.32.38.42.92.66 1.48.66.05 0 .1 0 .15-.01.62-.04 1.17-.37 1.52-.88l1.71-2.55 57-12.49m2.1-2.51zl-60.33 13.2-2.15 3.23c-2.42-2.68-5.97-4.49-9.56-4.97l-9.84-.8c-.51-.07-1-.1-1.48-.1-6.73 0-10.53 6.5-10.97 14.01-1.4 23.8 19.21 24.96 19.21 24.96 1.9.38 6.24.89 6.24.89 29.13-.37 52.44-14.17 52.44-14.17 7.47-3.74 15.7-8.6 16.07-26.53l.37-9.72z" fill="#434343" opacity=".2"/><path d="M95.19-126.3s-5.54-2.26-24.62 4.72c-14.42 5.27-25.65 10.05-30.78 12.52-5.18 2.49-6.94-.41-13.34-1.9-2.67-.62-3.66-2.68-3.87-4.95-.38-4.08 1.85-7.96 5.41-9.97 8.07-4.54 26.2-13.96 40.73-15.81 8.22-1.05 14.58-.91 19.16-.4 6.17.69 12.64 1.83 9.15 12.6-.44 1.38-.92 2.58-1.84 3.19z" fill="#D74527"/><linearGradient id="p" x1="24.343" x2="87.343" y1="-138.97" y2="-113.63" gradientUnits="userSpaceOnUse"><stop stop-color="#F37046" offset=".259"/><stop stop-color="#F05323" offset="1"/></linearGradient><path d="M97.55-137.82c.08 1.54.08-.22-1.46-.36-3.12-.28-10.33.7-27.95 6.81-9.72 3.37-21.51 8.67-25.6 11.27-9.12 5.81-3.66 10.71-6.11 11.27-3.38.78-7.78-.81-14.18-2.3-6.81-1.58-9.9-2.18-18.92-2.4-.07 0-.13 0-.2-.01-4.15-.14-6.82-4.42-5.27-8.27 5.31-13.22 22.35-19.44 33.72-23.58 21.95-8 32.71-7.93 41.55-6.39 7.67 1.33 8.41 1.34 15.11 4.17 7.94 3.36 9.14 6.49 9.31 9.79z" fill="url(#p)"/><g opacity=".2"><linearGradient id="q" x1="-70.979" x2="-7.665" y1="-256.56" y2="-231.1" gradientUnits="userSpaceOnUse"><stop stop-color="#F37046" offset=".259"/><stop stop-color="#F05323" offset="1"/></linearGradient><path d="M-60.27-227.09c-.8 0-1.61-.17-2.72-.56a.948.948 0 0 0-.23-.05c-1.87-.2-4.1-.76-6.68-1.41-1.23-.31-2.54-.64-3.96-.97-7.11-1.65-10.16-2.2-19.12-2.43l-.19-.01a4.874 4.874 0 0 1-3.93-2.22 5.09 5.09 0 0 1-.45-4.67c5.15-12.82 21.99-18.95 33.13-23.01 13.36-4.87 23.59-7.14 32.17-7.14 2.92 0 5.73.25 8.86.8l1.44.25c6.33 1.09 7.3 1.26 13.45 3.85 7.78 3.28 8.56 6.2 8.7 8.91l.02.41c0 .11.03.21.06.31.64 1.7.46 4.14-.55 7.25-.35 1.1-.68 1.91-1.13 2.39-.54-.12-1.44-.25-2.81-.25-3.6 0-10.32.89-21.92 5.13-14.6 5.34-25.75 10.1-30.87 12.55-1.22.59-2.26.87-3.27.87z" fill="url(#q)"/><path d="M-32.24-268.58c2.86 0 5.62.25 8.69.78l1.44.25c6.23 1.08 7.19 1.24 13.23 3.79 7.85 3.31 7.99 6.04 8.09 8.04l.01.24.01.17c.01.21.05.42.13.61.56 1.48.37 3.7-.57 6.59-.12.37-.35 1.09-.63 1.61-.59-.08-1.36-.15-2.36-.15-3.68 0-10.53.9-22.26 5.19-14.63 5.35-25.82 10.13-30.96 12.59-1.1.53-2.01.77-2.86.77-.68 0-1.37-.15-2.38-.51-.15-.05-.3-.09-.46-.11-1.8-.19-4-.75-6.54-1.39-1.26-.32-2.55-.64-3.98-.98-7.04-1.63-10.31-2.23-19.32-2.46l-.18-.01a3.825 3.825 0 0 1-3.12-1.77c-.74-1.13-.87-2.5-.36-3.75 4.98-12.4 21.57-18.45 32.55-22.45 13.25-4.8 23.37-7.05 31.83-7.05m0-2c-7.54 0-17.35 1.67-32.52 7.2-11.37 4.14-28.41 10.36-33.72 23.58-1.55 3.85 1.12 8.13 5.27 8.27.07 0 .13 0 .2.01 9.02.23 12.11.82 18.92 2.4 4.45 1.03 7.91 2.1 10.76 2.4 1.04.37 2 .62 3.05.62 1.09 0 2.28-.27 3.73-.97 5.13-2.46 16.35-7.24 30.78-12.52 11.59-4.24 18.18-5.07 21.57-5.07 2.2 0 3.05.35 3.05.35.92-.62 1.4-1.81 1.85-3.19 1.17-3.6 1.22-6.12.54-7.91 0-.1-.01-.24-.02-.42-.17-3.3-1.37-6.43-9.31-9.78-6.7-2.82-7.44-2.83-15.11-4.17-2.74-.46-5.66-.8-9.04-.8z" fill="#434343"/></g></svg>