<svg viewBox="0 0 128 128" xmlns="http://www.w3.org/2000/svg" xmlns:xlink="http://www.w3.org/1999/xlink"><path d="M121 61.5a6.1 6.1 0 0 0-1.3-8.7l-8.2-5.9a6.1 6.1 0 0 1-2.5-5.5v-.1H19v.1c.2 2.2-.8 4.2-2.5 5.5l-8.2 6a6 6 0 0 0-1.2 8.6l6.2 8c1.3 1.7 1.6 4 .8 6l-3.7 9.4a6.1 6.1 0 0 0 3.7 8l9.5 3.4c2 .7 3.5 2.4 4 4.5l2 10a6 6 0 0 0 7.4 4.7l9.8-2.3a6 6 0 0 1 5.8 1.7l7 7.2a6.1 6.1 0 0 0 8.8 0l7-7.2a6.1 6.1 0 0 1 5.8-1.7l9.9 2.3c3.3.8 6.7-1.4 7.4-4.8l2-9.9a6 6 0 0 1 4-4.5l9.4-3.4c3.3-1.2 5-4.8 3.7-8l-3.7-9.4a6 6 0 0 1 .9-6l6.1-8z" fill="#B0BEC5"/><path fill="#B0BEC5" d="M5.8 52h3.1v6H5.8zm113.3 0h3.1v6h-3.1zM10 80h3.1v7.5H10zm104.8-.4h3.1v7.8h-3.1z"/><defs><path id="a" d="M121 61.5a6.1 6.1 0 0 0-1.3-8.7l-8.2-5.9a6.1 6.1 0 0 1-2.5-5.5v-.1H19v.1c.2 2.2-.8 4.2-2.5 5.5l-8.2 6a6 6 0 0 0-1.2 8.6l6.2 8c1.3 1.7 1.6 4 .8 6l-3.7 9.4a6.1 6.1 0 0 0 3.7 8l9.5 3.4c2 .7 3.5 2.4 4 4.5l2 10a6 6 0 0 0 7.4 4.7l9.8-2.3a6 6 0 0 1 5.8 1.7l7 7.2a6.1 6.1 0 0 0 8.8 0l7-7.2a6.1 6.1 0 0 1 5.8-1.7l9.9 2.3c3.3.8 6.7-1.4 7.4-4.8l2-9.9a6 6 0 0 1 4-4.5l9.4-3.4c3.3-1.2 5-4.8 3.7-8l-3.7-9.4a6 6 0 0 1 .9-6l6.1-8z"/></defs><clipPath id="b"><use xlink:href="#a"/></clipPath><path clip-path="url(#b)" fill="#90A4AE" d="M33.5 97h16v27.9h-16zM10 76h17.8v27.9H10zm54.7 22.6h13.8v27.9H64.7zm39.7-54.3h17.5v27.9h-17.5z"/><path clip-path="url(#b)" fill="#78909C" d="M94.9 83.7h6.5V117h-6.5z"/><path clip-path="url(#b)" fill="#90A4AE" d="M101.4 82.5h17.7v19.3h-17.7z"/><path d="M107 43.3a9 9 0 0 0 3.3 5.2L118 54a2 2 0 0 0 2 .2h.2v3.7a4 4 0 0 1-.9 2.4l-6.1 8a8.2 8.2 0 0 0-1.2 8l1.6 4a2 2 0 0 0 1.9 1.3h.4v4.9a4 4 0 0 1-2.7 4.5l-9.5 3.4a8.2 8.2 0 0 0-5.2 6l-2 10a4.1 4.1 0 0 1-5 3.1l-9.8-2.2a8.3 8.3 0 0 0-7.7 2.2l-7 7.2a4.1 4.1 0 0 1-6 0l-7-7.2a8.2 8.2 0 0 0-7.7-2.3l-9.8 2.3-1 .2a4.1 4.1 0 0 1-4-3.4l-2-9.8a8.2 8.2 0 0 0-5.2-6.1L14.8 91c-1.6-.5-2.7-2-2.7-3.6V82h.3a2 2 0 0 0 1.8-1.3l1.8-4.5c1-2.6.6-5.7-1.2-8l-6.1-7.9a5 5 0 0 1-.9-2.4v-3.8l.2.1a2 2 0 0 0 2-.1l7.7-5.6a8.2 8.2 0 0 0 3.2-5.2h86.2m1.9-2H19v.1c.2 2.2-.8 4.2-2.5 5.5l-7.6 5.5V52H5.8v6c0 1.2.5 2.5 1.3 3.5l6.1 8a6 6 0 0 1 .9 6L12.4 80H10v7.5a6.1 6.1 0 0 0 4.1 5.4l9.5 3.4c2 .7 3.5 2.4 4 4.5l2 10a6.1 6.1 0 0 0 7.4 4.7l9.8-2.3a6.1 6.1 0 0 1 5.8 1.7l7 7.2a6.1 6.1 0 0 0 8.8 0l7-7.2a6.1 6.1 0 0 1 5.8-1.7l9.8 2.3a6.1 6.1 0 0 0 7.5-4.8l2-9.9c.4-2 1.9-3.8 3.9-4.5l9.5-3.4c2.8-1 4.4-3.9 4-6.7v-6.6h-2.4l-1.6-4.1a6 6 0 0 1 .9-6l6.1-8a6 6 0 0 0 1.3-3.5v-6h-3v.4l-7.7-5.5a6.1 6.1 0 0 1-2.5-5.5v-.1z" fill="#434343" opacity=".2"/><linearGradient id="c" x1="29.8" x2="105" y1="23.8" y2="99.1" gradientUnits="userSpaceOnUse"><stop stop-color="#F5F5F5" offset=".2"/><stop stop-color="#E0E0E0" offset=".8"/></linearGradient><path d="M67 9.6l8.8-4.8c3-1.7 6.8-.6 8.5 2.4l4.6 8.6c1 1.9 3 3 5.1 3.2l10.1.6a6 6 0 0 1 5.8 6.4l-.9 9.8a6 6 0 0 0 2.5 5.3l8.2 5.7c2.8 2 3.3 5.9 1.2 8.5l-6.1 7.8a5.8 5.8 0 0 0-.9 5.8l3.7 9a6 6 0 0 1-3.7 7.9l-9.5 3.3a6 6 0 0 0-4 4.4l-2 9.6a6 6 0 0 1-7.4 4.6l-9.8-2.2c-2-.5-4.3.1-5.8 1.6l-7 7a6.3 6.3 0 0 1-8.8 0l-7-7a6.3 6.3 0 0 0-5.8-1.6l-9.8 2.2a6.1 6.1 0 0 1-7.5-4.6l-2-9.6a6 6 0 0 0-4-4.4l-9.4-3.3a6 6 0 0 1-3.7-7.8l3.7-9.1c.8-2 .5-4.2-.9-5.8l-6.1-7.8A5.8 5.8 0 0 1 8.3 47l8.2-5.8a5.9 5.9 0 0 0 2.5-5.3l-.9-9.8a6 6 0 0 1 5.8-6.4l10-.6a6 6 0 0 0 5.1-3.2l4.7-8.6c1.6-3 5.5-4 8.5-2.4L61 9.6c1.8 1 4.1 1 6 0z" fill="url(#c)"/><linearGradient id="d" x1="50.6" x2="102.9" y1="42.3" y2="113.7" gradientUnits="userSpaceOnUse"><stop stop-color="#F48FB1" offset=".2"/><stop stop-color="#EC407A" offset="1"/></linearGradient><path d="M67.9 63.4c-2.4 1.2-5.2 1.3-8.5-1.3-1.4-1-2.2-4.3-2-7.1.6-5.6 6.5-12.2 14.2-12.2 9.7 0 17.2 4.6 19.4 13.4 2 8.3-1 16.8-7.8 22a31 31 0 0 1-25 4.3 26.6 26.6 0 0 1-16.4-11c-7.8-9.8-5.6-29.8 6.4-37.7a49.9 49.9 0 0 1 18.2-7.3c1.5-.3 1.3-2.6-.3-2.6-6.1 0-14 1.5-22.3 6.3-16.7 9.9-19.3 32.2-8.3 48.1C48 96.3 79.5 97 93 79.6c7-8.8 8.6-24.6 1.8-33.8-8.1-10.9-24.7-14.9-35.7-9C49 42 45.5 53.3 48.4 60.9c4.4 11.3 13.5 13.3 21 12.4 16.5-1.9 17.4-24.2 4.9-22-3 .6-3.9 3.2-3.6 5.3.4 2.6-.5 5.5-2.8 6.7z" fill="url(#d)"/><path d="M78.8 7a3 3 0 0 1 2.8 1.6l4.7 8.7a9.2 9.2 0 0 0 7.6 4.7l10 .6c1 0 1.7.4 2.3 1 .5.7.7 1.4.7 2.2l-.9 9.7a9 9 0 0 0 3.8 8l8.1 5.8a3 3 0 0 1 1.3 2c0 .8-.1 1.5-.6 2.2l-6.2 7.7a8.9 8.9 0 0 0-1.3 8.8l3.7 9.1c.3.7.3 1.5 0 2.2a3 3 0 0 1-1.9 1.6l-9.5 3.3a9 9 0 0 0-5.9 6.7l-2 9.6a3.1 3.1 0 0 1-3 2.4l-.8-.1-9.8-2.2c-.7-.2-1.4-.2-2-.2-2.5 0-4.9 1-6.6 2.6l-7 7c-.6.7-1.4 1-2.3 1s-1.7-.3-2.3-1l-7-7a9.3 9.3 0 0 0-8.6-2.4l-9.8 2.2a3 3 0 0 1-.7 0c-1.5 0-2.8-1-3.1-2.3l-2-9.6c-.7-3-3-5.6-6-6.7L15.2 83a3 3 0 0 1-1.8-1.6c-.4-.7-.4-1.5 0-2.2l3.6-9.1c1.2-3 .7-6.3-1.3-8.8l-6.2-7.7a3 3 0 0 1-.6-2.2 3 3 0 0 1 1.3-2l8.1-5.7a9 9 0 0 0 3.8-8l-.9-9.8c0-.8.2-1.5.7-2.1.6-.7 1.4-1 2.3-1.1l10-.6c3.2-.2 6.1-2 7.6-4.7l4.7-8.7a3 3 0 0 1 2.8-1.6c.5 0 1 .1 1.6.4l8.7 4.8a9.3 9.3 0 0 0 9 0l8.7-4.8a3 3 0 0 1 1.6-.4m0-3c-1 0-2 .3-3 .8L67 9.6a6.2 6.2 0 0 1-6 0l-8.8-4.8a6.2 6.2 0 0 0-8.5 2.4l-4.6 8.6A6.2 6.2 0 0 1 34 19l-10 .6a6 6 0 0 0-6 6.4l1 9.8c.1 2-.9 4-2.6 5.3L8.3 47a5.8 5.8 0 0 0-1.2 8.4l6.2 7.8a5.8 5.8 0 0 1 .8 5.8l-3.7 9a6 6 0 0 0 3.7 7.9l9.5 3.3a6 6 0 0 1 4 4.4l2 9.6a6.1 6.1 0 0 0 7.4 4.6l9.8-2.2a6.2 6.2 0 0 1 5.8 1.7l7 7c1.2 1.2 2.8 1.8 4.4 1.8s3.2-.6 4.4-1.8l7-7a6.2 6.2 0 0 1 5.8-1.7l9.8 2.2 1.4.2a6 6 0 0 0 6-4.8l2-9.6a6 6 0 0 1 4-4.4l9.5-3.3a6 6 0 0 0 3.6-7.8l-3.6-9.1c-.8-2-.5-4.2.8-5.8l6.2-7.8a5.8 5.8 0 0 0-1.2-8.4l-8.2-5.8a5.9 5.9 0 0 1-2.5-5.3l.9-9.8a6 6 0 0 0-5.8-6.4L94 19a6.2 6.2 0 0 1-5.2-3.2l-4.7-8.6A6.2 6.2 0 0 0 78.8 4z" fill="#434343" opacity=".2"/></svg>