<svg viewBox="0 0 128 128" xmlns="http://www.w3.org/2000/svg" xmlns:xlink="http://www.w3.org/1999/xlink"><radialGradient id="a" cx="70.328" cy="14.204" r="17.496" gradientTransform="scale(-1 1) rotate(-2.677 3.296 2911.212)" gradientUnits="userSpaceOnUse"><stop stop-color="#FECC81" offset=".169"/><stop stop-color="#FFD492" offset=".226"/><stop stop-color="#FFE7BC" offset=".365"/><stop stop-color="#FFF2D7" offset=".472"/><stop stop-color="#FEF7E2" offset=".531"/></radialGradient><path d="M46.77 27.22S44.75 15.46 57.85 8.06c3-1.7 3.56-3.47 5.51-3.98 1.84-.48 2.58.96 2.39 2.85-.38 3.84.42 9.48 8.32 9.85.2.01.38.03.56.05-5.41 7.65-27.86 10.39-27.86 10.39z" fill="url(#a)"/><linearGradient id="b" x1="64" x2="64" y1="86.244" y2="124.34" gradientUnits="userSpaceOnUse"><stop stop-color="#FCB316" offset="0"/><stop stop-color="#FFCB28" offset=".072"/><stop stop-color="#FFC826" offset=".322"/><stop stop-color="#FEBF1E" offset=".565"/><stop stop-color="#FCB316" offset=".784"/></linearGradient><path d="M75.2 124.15H52.8c-4.45 0-8.23-3.29-8.88-7.74l-6.5-45.97h53.15l-6.5 45.97c-.65 4.44-4.42 7.74-8.87 7.74z" fill="url(#b)"/><defs><path id="c" d="M75.2 124.15H52.8c-4.45 0-8.23-3.29-8.88-7.74l-6.5-45.97h53.15l-6.5 45.97c-.65 4.44-4.42 7.74-8.87 7.74z"/></defs><clipPath id="d"><use xlink:href="#c"/></clipPath><g clip-path="url(#d)" fill="none" opacity=".2" stroke="#795649" stroke-linecap="round" stroke-linejoin="round" stroke-miterlimit="10" stroke-width="2"><path d="M56.01 79.77L39.03 98.71M75.64 77.2l-33.69 37.6M91.98 79.5l-42.2 47.1M108.13 79.5l-42.21 47.1M56.01 124.04L39.03 105.1M75.64 126.6L36.5 82.92M91.98 124.31L49.78 77.2M108.13 124.31L65.92 77.2"/></g><path d="M88.27 72.43l-6.17 43.68c-.51 3.44-3.47 6.03-6.9 6.03H52.8c-3.43 0-6.4-2.59-6.9-6.02l-6.17-43.69h48.54m2.3-2H37.43l6.5 45.97c.65 4.45 4.43 7.74 8.88 7.74H75.2c4.45 0 8.23-3.29 8.88-7.74l6.49-45.97z" fill="#434343" opacity=".2"/><linearGradient id="e" x1="30.661" x2="97.339" y1="72.455" y2="72.455" gradientUnits="userSpaceOnUse"><stop stop-color="#FFD54E" offset=".238"/><stop stop-color="#FEC111" offset=".754"/></linearGradient><path d="M91.37 83.91H36.63c-2.25 0-4.07-1.92-4.07-4.3L30.66 61h66.68l-1.9 18.62c0 2.37-1.82 4.29-4.07 4.29z" fill="url(#e)"/><path d="M95.12 63l-1.67 16.41c-.01.07-.01.14-.01.2 0 1.27-.93 2.3-2.07 2.3H36.63c-1.14 0-2.07-1.03-2.07-2.3 0-.07 0-.14-.01-.2L32.88 63h62.24m2.22-2H30.66l1.9 18.62c0 2.37 1.82 4.3 4.07 4.3h54.75c2.25 0 4.07-1.92 4.07-4.3L97.34 61z" fill="#434343" opacity=".2"/><radialGradient id="f" cx="52.285" cy="18.379" r="86.93" gradientTransform="matrix(.9782 .2304 -.1657 .649 27.321 -16.454)" gradientUnits="userSpaceOnUse"><stop stop-color="#FEF7E2" offset=".469"/><stop stop-color="#FFF2D7" offset=".528"/><stop stop-color="#FFE7BC" offset=".635"/><stop stop-color="#FFD492" offset=".774"/><stop stop-color="#FECC81" offset=".831"/></radialGradient><path d="M88.67 66.52L39.15 64.2l2.74-17.67 50.79-5.26c7.37 1.7 11.02 10.74 9.92 15.87-2.38 11.06-13.93 9.38-13.93 9.38z" fill="url(#f)"/><radialGradient id="g" cx="59.433" cy="19.915" r="45.23" gradientTransform="matrix(1.0264 -.159 .1026 .6636 -3.334 2.363)" gradientUnits="userSpaceOnUse"><stop stop-color="#FEF7E2" offset=".469"/><stop stop-color="#FFF2D7" offset=".528"/><stop stop-color="#FFE7BC" offset=".635"/><stop stop-color="#FFD492" offset=".774"/><stop stop-color="#FECC81" offset=".831"/></radialGradient><path d="M74.19 29.68l-22.23 4.89c-8.41 1.29-10.12-9.04-6.02-14.49 1.93-2.57 5.28-4.3 8.69-4.83l11.38-1.78c4.22-.66 8.46 1.21 10.73 4.73l.02.03c3.12 5.32 4.48 9.05-2.57 11.45z" fill="url(#g)"/><radialGradient id="h" cx="59.808" cy="26.02" r="65.185" gradientTransform="matrix(1.1621 -.1662 .1359 .6641 -13.024 6.115)" gradientUnits="userSpaceOnUse"><stop stop-color="#FEF7E2" offset=".469"/><stop stop-color="#FFF2D7" offset=".528"/><stop stop-color="#FFE7BC" offset=".635"/><stop stop-color="#FFD492" offset=".774"/><stop stop-color="#FECC81" offset=".831"/></radialGradient><path d="M82.66 46.49l-37.82 6.42c-10.88 1.4-14.79-9.75-9.78-18.68 1.91-3.41 5.46-5.77 9.6-6.39l30.4-4.56c5.25-.79 10.56 1.35 13.55 5.45l.43.6c5.54 7.59 3.37 15.9-6.38 17.16z" fill="url(#h)"/><radialGradient id="i" cx="59.609" cy="29.591" r="96.963" gradientTransform="matrix(.9738 -.2102 .1289 .5249 -1.667 26.807)" gradientUnits="userSpaceOnUse"><stop stop-color="#FEF7E2" offset=".447"/><stop stop-color="#FFF2D7" offset=".496"/><stop stop-color="#FFE7BC" offset=".583"/><stop stop-color="#FFD492" offset=".698"/><stop stop-color="#FECC81" offset=".745"/></radialGradient><path d="M97.93 45.12l-.21-.32c-2.74-4.18-7.85-6.41-12.97-5.67l-48.13 6.94c-4.13.6-7.84 2.91-9.73 6.44-3.52 6.53-.25 13.7 5.76 16.54 2.18 1.03 2.84.62 4.37 2.59 1.09 1.4 1.97 2.64 3.84 2.88 2.61.34 3.69-.55 4.28-2.07.39-.99.62-2.19.77-2.54 1.7-3.81 5.9-1.39 5.84 1.74l-.19 1.91c-.1 2.13 1.45 4.12 3.68 4.4 2.51.33 4.71-1.45 4.82-3.8l.28-3.98c.09-1.86 1.53-3.4 3.47-3.71 0 0 3.19-1.16 7.47-1.45 8.02-.54 11.21 1.09 12.35 3.19a6.761 6.761 0 0 0 4.84 3.44c4.12.67 7.79-2.22 7.97-6.05l.01-.12c.16-3.47 1.15-6.83 2.56-10.04 1.37-3.12 1.2-6.86-1.08-10.32z" fill="url(#i)"/><path d="M63.81 6.04c.03.17.06.45.02.84-.29 2.89.14 5.48 1.25 7.48.35.64 1.03 1.03 1.75 1.03.05 0 .11 0 .16-.01.24-.02.47-.03.71-.03 2.96 0 5.77 1.5 7.36 3.94.85 1.44 1.75 3.09 2.09 4.44.2.8.87 1.39 1.68 1.49 3.32.43 6.3 2.14 8.16 4.69l.44.6c2.23 3.05 3.07 6.29 2.32 8.88-.29.99.23 2.04 1.19 2.42 1.33.53 2.52 1.27 3.53 2.23.1.1.22.18.34.26 4.67 2.8 6.55 9.13 5.84 12.43-.7 3.26-2.4 5.55-5.05 6.79-.67.31-1.11.98-1.15 1.71-.01.06-.01.11-.01.17l-.01.12c-.11 2.38-2.21 4.24-4.78 4.24-.29 0-.58-.02-.87-.07a4.733 4.733 0 0 1-3.4-2.42c-.66-1.2-1.7-2.17-3.1-2.88-.25-.13-.53-.2-.81-.21l-13.9-.65h-.09c-.13 0-.25.01-.38.04-1.93.37-3.32.81-3.8.98-2.76.52-4.84 2.83-4.96 5.51l-.29 4.03c-.04 1.06-1.02 1.91-2.22 1.91-.11 0-.22-.01-.34-.02a2.252 2.252 0 0 1-1.94-2.28l.18-1.85c.01-.05.01-.1.01-.15.03-1.5-.58-3-1.66-4.11-1.01-1.03-2.34-1.62-3.64-1.62-1.88 0-3.47 1.14-4.36 3.13-.13.29-.22.63-.35 1.1-.12.47-.28 1.05-.46 1.52-.25.63-.43.87-1.39.87-.23 0-.49-.02-.77-.06-.89-.12-1.34-.6-2.38-1.95l-.14-.18c-1.33-1.71-2.31-2.14-3.65-2.6-.43-.15-.87-.3-1.44-.57-2.67-1.26-4.7-3.52-5.59-6.21-.58-1.76-.92-4.5.73-7.58 1.16-2.15 3.2-3.84 5.76-4.77.5-.18.91-.56 1.14-1.05.22-.49.24-1.05.05-1.55-1.25-3.24-.79-7.3 1.21-10.88 1.49-2.66 4.22-4.57 7.48-5.25a2.001 2.001 0 0 0 1.58-2.18c-.25-2.29.39-4.78 1.68-6.49.4-.53.91-1.04 1.51-1.53.23-.19.42-.43.55-.7 1.75-3.66 4.77-6.71 8.95-9.08 1.72-.97 2.75-1.95 3.59-2.74.78-.71 1.14-1.04 1.67-1.18M64.02 4c-.21 0-.44.03-.7.1-2.04.53-2.62 2.38-5.75 4.15-5.25 2.96-8.17 6.6-9.77 9.96-.7.56-1.34 1.19-1.86 1.89-1.66 2.2-2.37 5.2-2.07 7.91-3.79.79-7.02 3.04-8.81 6.23-2.37 4.22-2.74 8.92-1.34 12.58-2.92 1.06-5.4 3.03-6.84 5.7-3.52 6.53-.25 13.7 5.76 16.54 2.18 1.03 2.84.62 4.37 2.59 1.09 1.4 1.97 2.64 3.84 2.88.37.05.71.07 1.03.07 1.88 0 2.74-.84 3.25-2.14.39-.99.62-2.19.77-2.54.62-1.39 1.57-1.95 2.53-1.95 1.67 0 3.34 1.7 3.3 3.69l-.19 1.91c-.1 2.13 1.45 4.12 3.68 4.4.2.03.4.04.59.04 2.26 0 4.13-1.68 4.23-3.84l.28-3.98c.09-1.86 1.53-3.4 3.47-3.7 0 0 1.44-.52 3.68-.96l13.9.65c1.12.56 1.82 1.27 2.24 2.05a6.761 6.761 0 0 0 4.84 3.44c.4.07.8.1 1.19.1 3.61 0 6.61-2.69 6.78-6.15l.01-.12c0-.06.01-.11.01-.17 2.64-1.24 5.17-3.63 6.15-8.18.93-4.33-1.54-11.43-6.76-14.56-1.2-1.13-2.62-2.02-4.17-2.63.9-3.13.05-6.95-2.63-10.62l-.43-.6c-2.22-3.04-5.72-5-9.52-5.49-.38-1.48-1.24-3.14-2.33-4.99l-.02-.03c-1.97-3.05-5.41-4.86-9.04-4.86-.29 0-.58.01-.87.03-1.1-1.99-1.2-4.37-1.01-6.31.18-1.73-.38-3.09-1.79-3.09z" fill="#434343" opacity=".2"/></svg>