<svg viewBox="0 0 128 128" xmlns="http://www.w3.org/2000/svg" xmlns:xlink="http://www.w3.org/1999/xlink"><radialGradient id="a" cx="70.3" cy="14.2" r="17.5" gradientTransform="scale(-1 1) rotate(-2.7 3.3 2911.2)" gradientUnits="userSpaceOnUse"><stop stop-color="#FECC81" offset=".2"/><stop stop-color="#FFD492" offset=".2"/><stop stop-color="#FFE7BC" offset=".4"/><stop stop-color="#FFF2D7" offset=".5"/><stop stop-color="#FEF7E2" offset=".5"/></radialGradient><path d="M46.8 27.2s-2-11.7 11-19.1c3-1.7 3.6-3.5 5.6-4 1.8-.5 2.5 1 2.4 2.8-.4 3.9.4 9.5 8.3 9.9h.5c-5.4 7.7-27.8 10.4-27.8 10.4z" fill="url(#a)"/><linearGradient id="b" x1="64" x2="64" y1="86.2" y2="124.3" gradientUnits="userSpaceOnUse"><stop stop-color="#FCB316" offset="0"/><stop stop-color="#FFCB28" offset=".1"/><stop stop-color="#FFC826" offset=".3"/><stop stop-color="#FEBF1E" offset=".6"/><stop stop-color="#FCB316" offset=".8"/></linearGradient><path d="M75.2 124.2H52.8a9 9 0 0 1-8.9-7.8l-6.5-46h53.2l-6.5 46a9 9 0 0 1-8.9 7.8z" fill="url(#b)"/><defs><path id="c" d="M75.2 124.2H52.8a9 9 0 0 1-8.9-7.8l-6.5-46h53.2l-6.5 46a9 9 0 0 1-8.9 7.8z"/></defs><clipPath id="d"><use xlink:href="#c"/></clipPath><g clip-path="url(#d)" fill="none" opacity=".2" stroke="#795649" stroke-linecap="round" stroke-linejoin="round" stroke-miterlimit="10" stroke-width="2"><path d="M56 79.8L39 98.7m36.6-21.5L42 114.8m50-35.3l-42.2 47.1m58.3-47.1l-42.2 47.1M56 124l-17-18.9m36.6 21.5L36.5 82.9M92 124.3L49.8 77.2m58.3 47.1L65.9 77.2"/></g><path d="M88.3 72.4L82 116.1a7 7 0 0 1-6.9 6H52.8a7 7 0 0 1-6.9-6l-6.2-43.7h48.6m2.3-2H37.4l6.5 46a9 9 0 0 0 9 7.7h22.3a9 9 0 0 0 8.9-7.7l6.5-46z" fill="#434343" opacity=".2"/><linearGradient id="e" x1="30.7" x2="97.3" y1="72.5" y2="72.5" gradientUnits="userSpaceOnUse"><stop stop-color="#FFD54E" offset=".2"/><stop stop-color="#FEC111" offset=".8"/></linearGradient><path d="M91.4 84H36.6c-2.2 0-4-2-4-4.4l-2-18.6h66.7l-1.9 18.6c0 2.4-1.8 4.3-4 4.3z" fill="url(#e)"/><path d="M95.1 63l-1.6 16.4v.2c0 1.3-1 2.3-2.1 2.3H36.6c-1.1 0-2-1-2-2.3v-.2L32.9 63H95m2.2-2H30.7l1.9 18.6c0 2.4 1.8 4.3 4 4.3h54.8c2.2 0 4-1.9 4-4.3l2-18.6z" fill="#434343" opacity=".2"/><radialGradient id="f" cx="52.3" cy="18.4" r="86.9" gradientTransform="matrix(.9782 .2304 -.1657 .649 27.3 -16.5)" gradientUnits="userSpaceOnUse"><stop stop-color="#FEF7E2" offset=".5"/><stop stop-color="#FFF2D7" offset=".5"/><stop stop-color="#FFE7BC" offset=".6"/><stop stop-color="#FFD492" offset=".8"/><stop stop-color="#FECC81" offset=".8"/></radialGradient><path d="M88.7 66.5L39 64.2l3-17.7 50.8-5.2c7.4 1.7 11 10.7 9.9 15.8-2.4 11.1-14 9.4-14 9.4z" fill="url(#f)"/><radialGradient id="g" cx="59.4" cy="19.9" r="45.2" gradientTransform="matrix(1.0264 -.159 .1026 .6636 -3.3 2.4)" gradientUnits="userSpaceOnUse"><stop stop-color="#FEF7E2" offset=".5"/><stop stop-color="#FFF2D7" offset=".5"/><stop stop-color="#FFE7BC" offset=".6"/><stop stop-color="#FFD492" offset=".8"/><stop stop-color="#FECC81" offset=".8"/></radialGradient><path d="M74.2 29.7L52 34.6c-8.5 1.3-10.2-9-6-14.5 1.9-2.6 5.2-4.3 8.6-4.9L66 13.5c4.2-.7 8.5 1.2 10.7 4.7 3.2 5.4 4.5 9-2.5 11.5z" fill="url(#g)"/><radialGradient id="h" cx="59.8" cy="26" r="65.2" gradientTransform="matrix(1.1621 -.1662 .1359 .6641 -13 6.1)" gradientUnits="userSpaceOnUse"><stop stop-color="#FEF7E2" offset=".5"/><stop stop-color="#FFF2D7" offset=".5"/><stop stop-color="#FFE7BC" offset=".6"/><stop stop-color="#FFD492" offset=".8"/><stop stop-color="#FECC81" offset=".8"/></radialGradient><path d="M82.7 46.5l-37.9 6.4C34 54.3 30 43.2 35.1 34.2c1.9-3.4 5.4-5.7 9.6-6.4L75 23.3c5.2-.8 10.5 1.3 13.5 5.4l.4.6c5.6 7.6 3.4 16-6.3 17.2z" fill="url(#h)"/><radialGradient id="i" cx="59.6" cy="29.6" r="97" gradientTransform="matrix(.9738 -.2102 .1289 .5249 -1.7 26.8)" gradientUnits="userSpaceOnUse"><stop stop-color="#FEF7E2" offset=".4"/><stop stop-color="#FFF2D7" offset=".5"/><stop stop-color="#FFE7BC" offset=".6"/><stop stop-color="#FFD492" offset=".7"/><stop stop-color="#FECC81" offset=".7"/></radialGradient><path d="M98 45.1l-.3-.3a13.3 13.3 0 0 0-13-5.7l-48 7a13 13 0 0 0-9.8 6.4A11.8 11.8 0 0 0 32.7 69c2.1 1 2.8.7 4.3 2.6 1.1 1.4 2 2.7 3.9 3 2.6.3 3.7-.6 4.2-2.2L46 70c1.7-3.8 6-1.4 5.9 1.7l-.2 2a4.2 4.2 0 0 0 3.6 4.4c2.6.3 4.8-1.5 4.9-3.8l.2-4a4 4 0 0 1 3.5-3.7s3.2-1.2 7.5-1.5c8-.5 11.2 1.1 12.3 3.2 1 1.8 2.7 3.1 4.9 3.4 4 .7 7.8-2.2 8-6v-.1c.1-3.5 1.1-6.9 2.5-10 1.4-3.2 1.2-7-1-10.4z" fill="url(#i)"/><path d="M63.8 6v1c-.3 2.9.2 5.5 1.3 7.5.3.6 1 1 1.7 1h.9c3 0 5.8 1.4 7.4 3.9a19 19 0 0 1 2 4.4 2 2 0 0 0 1.7 1.5A12 12 0 0 1 87 30l.4.6c2.3 3 3.1 6.3 2.4 8.9a2 2 0 0 0 1.1 2.4 11 11 0 0 1 4 2.5c4.6 2.8 6.5 9.1 5.7 12.4a9.1 9.1 0 0 1-5 6.8 2 2 0 0 0-1.1 1.7v.2a4.8 4.8 0 0 1-4.9 4.3l-.8-.1a4.7 4.7 0 0 1-3.4-2.4 7 7 0 0 0-3.1-3 2 2 0 0 0-.8-.1l-14-.7H67c-2 .4-3.3.9-3.8 1a6 6 0 0 0-5 5.6l-.3 4c0 1-1 1.9-2.2 1.9h-.3c-1.1-.2-2-1.2-2-2.3l.2-1.8v-.2c0-1.5-.5-3-1.6-4.1-1-1-2.4-1.6-3.7-1.6-1.8 0-3.4 1.1-4.3 3.1l-.4 1.1c0 .5-.3 1-.4 1.5-.3.6-.5.9-1.4.9H41c-.9-.2-1.3-.7-2.4-2l-.1-.2a6.6 6.6 0 0 0-3.7-2.6l-1.4-.6a10.6 10.6 0 0 1-5.6-6.2c-.6-1.7-1-4.5.7-7.6 1.2-2.1 3.2-3.8 5.8-4.7a2 2 0 0 0 1.1-1c.3-.6.3-1.1 0-1.6a13 13 0 0 1 1.3-11 11 11 0 0 1 7.5-5.2 2 2 0 0 0 1.6-2.1c-.3-2.3.3-4.8 1.6-6.5.4-.6 1-1 1.5-1.6.3-.1.5-.4.6-.7a21 21 0 0 1 9-9c1.7-1 2.7-2 3.5-2.8A6 6 0 0 1 63.7 6m.2-2l-.7.1c-2 .5-2.6 2.4-5.7 4.2-5.3 3-8.2 6.6-9.8 10-.7.5-1.3 1.1-1.9 1.8a11.4 11.4 0 0 0-2 8c-3.8.7-7 3-8.8 6.1-2.4 4.3-2.8 9-1.4 12.6a12 12 0 0 0-6.8 5.7c-3.5 6.6-.3 13.7 5.7 16.6 2.2 1 2.9.6 4.4 2.6 1.1 1.4 2 2.6 3.8 2.8l1 .1c2 0 2.8-.8 3.3-2.1l.8-2.6c.6-1.4 1.6-2 2.5-2 1.7 0 3.4 1.8 3.3 3.8l-.2 1.9a4.2 4.2 0 0 0 4.3 4.4 4 4 0 0 0 4.2-3.8l.3-4a4 4 0 0 1 3.5-3.7s1.4-.5 3.7-1l13.9.7a5 5 0 0 1 2.2 2 6.8 6.8 0 0 0 6 3.6c3.6 0 6.6-2.7 6.8-6.2V65.3a11 11 0 0 0 6.2-8.2c1-4.3-1.5-11.4-6.8-14.5a13 13 0 0 0-4.1-2.6c.9-3.2 0-7-2.7-10.7l-.4-.6a14 14 0 0 0-9.5-5.5c-.4-1.4-1.3-3-2.3-5a10.8 10.8 0 0 0-10-4.8 11 11 0 0 1-1-6.3C66 5.4 65.4 4 64 4z" fill="#434343" opacity=".2"/></svg>