<svg viewBox="0 0 128 128" xmlns="http://www.w3.org/2000/svg"><path d="M123 87.74C123 108.32 97.14 124 64 124S5 108.32 5 87.74c0-2.9-.96-5.16-.96-5.16H124s-1 2.05-1 5.16z" fill="#9D9D9D"/><linearGradient id="a" x1="35.009" x2="88.772" y1="54.714" y2="108.48" gradientUnits="userSpaceOnUse"><stop stop-color="#FAFBFB" offset=".171"/><stop stop-color="#eee" offset=".87"/></linearGradient><ellipse cx="64" cy="83.71" rx="60" ry="37.26" fill="url(#a)"/><path d="M64 49.45c15.47 0 29.98 3.71 40.84 10.46C115.26 66.38 121 74.83 121 83.71s-5.74 17.33-16.16 23.79c-10.86 6.75-25.37 10.46-40.84 10.46s-29.98-3.71-40.84-10.46C12.74 101.03 7 92.58 7 83.71s5.74-17.33 16.16-23.79C34.02 53.17 48.53 49.45 64 49.45m0-3c-33.14 0-60 16.68-60 37.26s26.86 37.26 60 37.26 60-16.68 60-37.26-26.86-37.26-60-37.26z" fill="#434343" opacity=".2"/><ellipse cx="64" cy="80.41" rx="46.97" ry="28.76" fill="#6D4D42"/><path d="M64 53.66c24.79 0 44.97 12 44.97 26.76S88.79 107.17 64 107.17s-44.97-12-44.97-26.76S39.2 53.66 64 53.66m0-2c-25.94 0-46.97 12.87-46.97 28.76S38.06 109.17 64 109.17s46.97-12.87 46.97-28.76S89.94 51.66 64 51.66z" fill="#434343" opacity=".2"/><ellipse cx="64" cy="80.41" rx="39.89" ry="24.42" fill="#4E352E"/><radialGradient id="b" cx="63.402" cy="71.586" r="52.834" gradientTransform="matrix(1 0 0 .6458 0 25.352)" gradientUnits="userSpaceOnUse"><stop stop-color="#F8981D" offset=".194"/><stop stop-color="#F89A20" offset=".362"/><stop stop-color="#F9A02A" offset=".526"/><stop stop-color="#FBAC3D" offset=".689"/><stop stop-color="#FCB64E" offset=".797"/></radialGradient><path d="M96.6 45.41H31.39l-6.28 27.91c-.94 4.16-.23 8.55 2.12 12.12 6.04 9.19 20.23 15.65 36.78 15.65s30.73-6.45 36.78-15.64c2.35-3.57 3.05-7.97 2.11-12.14l-6.3-27.9z" fill="url(#b)"/><radialGradient id="c" cx="63.999" cy="47.039" r="27.069" gradientUnits="userSpaceOnUse"><stop stop-color="#F8981D" offset=".194"/><stop stop-color="#F89A20" offset=".362"/><stop stop-color="#F9A02A" offset=".526"/><stop stop-color="#FBAC3D" offset=".689"/><stop stop-color="#FCB64E" offset=".797"/></radialGradient><ellipse cx="64" cy="47.04" rx="32.65" ry="19.99" fill="url(#c)"/><radialGradient id="d" cx="63.538" cy="52.944" r="44.804" gradientTransform="matrix(1 0 0 .5914 0 21.63)" gradientUnits="userSpaceOnUse"><stop stop-color="#4E352E" offset=".241"/><stop stop-color="#513630" offset=".408"/><stop stop-color="#583C34" offset=".572"/><stop stop-color="#64463C" offset=".734"/><stop stop-color="#6D4D42" offset=".824"/></radialGradient><ellipse cx="64" cy="46.48" rx="29.71" ry="18.19" fill="url(#d)"/><path d="M64 29.05c15.9 0 29.32 7.3 30.55 16.62.03.23.1.46.21.66l6.2 27.42c.18.79.29 1.64.33 2.53.01.16.03.31.07.46.35 1.24.53 2.48.53 3.68 0 12.36-17 22.42-37.89 22.42S26.11 92.77 26.11 80.41c0-1.23.19-2.49.55-3.75.04-.15.07-.3.08-.46.04-.88.15-1.68.32-2.44l6.16-27.37c.12-.21.2-.45.23-.71C34.68 36.35 48.1 29.05 64 29.05m0-2c-17.13 0-31.17 8.08-32.53 18.36h-.08l-6.28 27.91c-.21.92-.32 1.85-.37 2.79-.41 1.4-.63 2.84-.63 4.31 0 13.49 17.86 24.42 39.89 24.42s39.89-10.93 39.89-24.42c0-1.44-.22-2.86-.61-4.23-.04-.96-.16-1.93-.38-2.88l-6.3-27.9h-.07C95.17 35.13 81.13 27.05 64 27.05z" fill="#434343" opacity=".2"/></svg>