<svg viewBox="0 0 128 128" xmlns="http://www.w3.org/2000/svg"><path d="M123 87.7c0 20.6-25.9 36.3-59 36.3S5 108.3 5 87.7c0-2.9-1-5.1-1-5.1h120s-1 2-1 5.1z" fill="#9D9D9D"/><linearGradient id="a" x1="35" x2="88.8" y1="54.7" y2="108.5" gradientUnits="userSpaceOnUse"><stop stop-color="#FAFBFB" offset=".2"/><stop stop-color="#eee" offset=".9"/></linearGradient><ellipse cx="64" cy="83.7" rx="60" ry="37.3" fill="url(#a)"/><path d="M64 49.5c15.5 0 30 3.7 40.8 10.4 10.5 6.5 16.2 15 16.2 23.8s-5.7 17.3-16.2 23.8C94 114.3 79.5 118 64 118s-30-3.7-40.8-10.5C12.7 101 7 92.5 7 83.7S12.7 66.4 23.2 60A78.4 78.4 0 0 1 64 49.5m0-3C30.9 46.5 4 63 4 83.7S30.9 121 64 121s60-16.7 60-37.3-26.9-37.2-60-37.2z" fill="#434343" opacity=".2"/><ellipse cx="64" cy="80.4" rx="47" ry="28.8" fill="#6D4D42"/><path d="M64 53.7c24.8 0 45 12 45 26.7s-20.2 26.8-45 26.8-45-12-45-26.8 20.2-26.7 45-26.7m0-2c-26 0-47 12.8-47 28.7s21 28.8 47 28.8 47-12.9 47-28.8-21-28.7-47-28.7z" fill="#434343" opacity=".2"/><ellipse cx="64" cy="80.4" rx="39.9" ry="24.4" fill="#4E352E"/><radialGradient id="b" cx="63.4" cy="71.6" r="52.8" gradientTransform="matrix(1 0 0 .6458 0 25.4)" gradientUnits="userSpaceOnUse"><stop stop-color="#F8981D" offset=".2"/><stop stop-color="#F89A20" offset=".4"/><stop stop-color="#F9A02A" offset=".5"/><stop stop-color="#FBAC3D" offset=".7"/><stop stop-color="#FCB64E" offset=".8"/></radialGradient><path d="M96.6 45.4H31.4l-6.3 28c-1 4-.2 8.5 2.1 12 6 9.2 20.3 15.7 36.8 15.7s30.7-6.5 36.8-15.6c2.3-3.6 3-8 2.1-12.2l-6.3-27.9z" fill="url(#b)"/><radialGradient id="c" cx="64" cy="47" r="27.1" gradientUnits="userSpaceOnUse"><stop stop-color="#F8981D" offset=".2"/><stop stop-color="#F89A20" offset=".4"/><stop stop-color="#F9A02A" offset=".5"/><stop stop-color="#FBAC3D" offset=".7"/><stop stop-color="#FCB64E" offset=".8"/></radialGradient><ellipse cx="64" cy="47" rx="32.6" ry="20" fill="url(#c)"/><radialGradient id="d" cx="63.5" cy="52.9" r="44.8" gradientTransform="matrix(1 0 0 .5914 0 21.6)" gradientUnits="userSpaceOnUse"><stop stop-color="#4E352E" offset=".2"/><stop stop-color="#513630" offset=".4"/><stop stop-color="#583C34" offset=".6"/><stop stop-color="#64463C" offset=".7"/><stop stop-color="#6D4D42" offset=".8"/></radialGradient><ellipse cx="64" cy="46.5" rx="29.7" ry="18.2" fill="url(#d)"/><path d="M64 29c15.9 0 29.3 7.4 30.6 16.7 0 .2 0 .4.2.6l6.2 27.5a14.3 14.3 0 0 1 .4 3c.3 1.2.5 2.4.5 3.6 0 12.4-17 22.4-37.9 22.4s-37.9-10-37.9-22.4a13.7 13.7 0 0 1 .6-4.2c0-.9.2-1.7.4-2.4l6.1-27.4.2-.7C34.7 36.3 48.1 29 64 29m0-2c-17.1 0-31.2 8.1-32.5 18.4h-.1l-6.3 28-.4 2.7a16 16 0 0 0-.6 4.3C24.1 94 42 104.8 64 104.8s39.9-10.9 39.9-24.4c0-1.4-.2-2.8-.6-4.2 0-1-.2-2-.4-2.9l-6.3-27.9C95.1 35.1 81 27.1 64 27.1z" fill="#434343" opacity=".2"/></svg>