<svg viewBox="0 0 128 128" xmlns="http://www.w3.org/2000/svg"><path fill="#FBAC35" d="M4 55.4h11.5v24.8H4zm108.5 0H124v24.8h-11.5z"/><linearGradient id="a" x1="64" x2="64" y1="28.9" y2="75" gradientUnits="userSpaceOnUse"><stop stop-color="#F8981D" offset="0"/><stop stop-color="#F8951D" offset=".2"/><stop stop-color="#F68D1E" offset=".4"/><stop stop-color="#F47F20" offset=".6"/><stop stop-color="#F47C20" offset=".6"/></linearGradient><path d="M64 29.4C35.7 29.4 12 49 5.7 67.8h116.6C116 49 92.3 29.4 64 29.4zm-.3 35.4c-10.2 0-18.4-4.1-18.4-9.1s8.2-9.2 18.4-9.2S82 50.6 82 55.7s-8.2 9-18.4 9z" fill="url(#a)"/><radialGradient id="b" cx="54" cy="102.3" r="59.9" gradientTransform="matrix(1 0 0 .4738 0 53.8)" gradientUnits="userSpaceOnUse"><stop stop-color="#FAA629" offset="0"/><stop stop-color="#FAA327" offset=".3"/><stop stop-color="#F99B23" offset=".5"/><stop stop-color="#F78D1F" offset=".7"/><stop stop-color="#F78C1E" offset=".8"/></radialGradient><path d="M5.7 67.8A30 30 0 0 0 4 77.2c0 21 19.8 40.7 60 40.7s60-19.8 60-40.7c0-3-.6-6.2-1.7-9.4H5.7z" fill="url(#b)"/><path d="M120.8 65.8l.2 11.4c0 10-4.9 19.1-13.7 25.8C97 110.8 82 115 64 115s-33-4.2-43.3-12A32.3 32.3 0 0 1 7 77.2l.1-11.4h113.7m3-3H4.1L4 77.2c0 21 19.8 40.7 60 40.7s60-19.8 60-40.7l-.3-14.4z" fill="#434343" opacity=".2"/><path d="M124 56.6c0-21-26.9-37.9-60-37.9-33 0-59.6 16.8-60 37.5 0 .6-.1 11.2.3 15.7.1 2.3 3.4 14.6 9.7 13 18.5-4.4 19.2 11.8 31.4 12.8C59.4 99 59.5 89.3 70 89c14.6-.6 17.9 8.8 29.8 6.2 10.6-2.2 10.2-17.9 15.4-15.8 5.5 2.3 8.5-2.6 8.5-2.6l.3-20.2zM63.7 31.2C90.5 31.2 91 44.4 91 52.5S76.8 65.1 63.8 65.1s-27.5-4.5-27.5-12.6c0-8 .7-21.3 27.5-21.3z" fill="#4E352E" opacity=".2"/><path d="M64 32.4c12.4 0 25.1 4.1 35.7 11.6a55.4 55.4 0 0 1 18.2 20.8H78.1c4.3-2.2 7-5.4 7-9.1 0-7-9.2-12.2-21.4-12.2s-21.4 5.2-21.4 12.2c0 3.7 2.7 6.9 7 9H10.1A62.5 62.5 0 0 1 64 32.4m0-2.9C35.7 29.4 12 49 5.7 67.8h116.6C116 49 92.3 29.4 64 29.4zm-.3 35.4c-10.2 0-18.4-4.1-18.4-9.1s8.2-9.2 18.4-9.2 18.3 4 18.3 9.1c0 5-8.2 9-18.4 9z" fill="#434343" opacity=".2"/><radialGradient id="c" cx="63.7" cy="47.6" r="51.8" gradientTransform="matrix(1 0 0 .5511 0 21.3)" gradientUnits="userSpaceOnUse"><stop stop-color="#8D6E63" offset="0"/><stop stop-color="#795649" offset=".4"/><stop stop-color="#775447" offset=".5"/><stop stop-color="#6E4D42" offset=".7"/><stop stop-color="#61433A" offset=".9"/><stop stop-color="#5D4137" offset=".9"/></radialGradient><path d="M124 53.6c0-21-26.9-38-60-38-33 0-59.6 16.9-60 37.6 0 .6-.1 11.2.3 15.7.1 2.3 3.4 14.6 9.7 13 18.5-4.5 19.2 11.8 31.4 12.8 14 1.1 14.1-8.4 24.6-8.8 14.6-.5 17.9 8.8 29.8 6.3 10.6-2.3 10.2-18 15.4-15.8 5.5 2.3 8.5-2.7 8.5-2.7l.3-20.1zM63.7 34.9c13 0 23.4 6.5 23.4 14.6S76.8 62 63.8 62s-23.5-4.5-23.5-12.6 10.5-14.6 23.5-14.6z" fill="url(#c)"/><path d="M42.5 31.1l-6.2-2.4a2.3 2.3 0 0 1 1.6-4.3l6.3 2.4a2.3 2.3 0 0 1-1.7 4.3z" fill="#84D2F6"/><path d="M50 87.8l-6-3.2a2.3 2.3 0 1 1 2.3-4l5.8 3.2a2.3 2.3 0 1 1-2.2 4z" fill="#EC407A"/><path d="M28.2 75.8L21.8 78a2.3 2.3 0 1 1-1.5-4.4l6.4-2.2a2.3 2.3 0 1 1 1.5 4.3zM101 81l-5.3 4c-1 .7-2.5.5-3.2-.5-.8-1-.6-2.5.5-3.2l5.3-4c1-.8 2.5-.6 3.2.4.8 1 .6 2.5-.5 3.2z" fill="#44B3E6"/><path d="M116.5 61.8L116 67a1.7 1.7 0 1 1-3.4-.4l.6-5.2a1.7 1.7 0 1 1 3.4.4zm-107.3 0l3.7 5c.4.5.3 1.3-.3 1.7l-.7.6c-.6.4-1.4.3-1.8-.3l-3.7-5c-.4-.5-.3-1.3.3-1.7l.7-.6c.6-.4 1.4-.3 1.8.3z" fill="#EC407A"/><path d="M94 31.8l-6.3-2.4a2.3 2.3 0 0 1 1.6-4.3l6.3 2.4a2.3 2.3 0 0 1-1.7 4.3z" fill="#84D2F6"/><path d="M112.6 39.5l-5 3.6a2.3 2.3 0 1 1-2.7-3.7l5-3.6a2.3 2.3 0 1 1 2.7 3.7zm-44-14.6l-5.2 1a2.3 2.3 0 1 1-.8-4.6l5.2-1a2.3 2.3 0 1 1 .8 4.6z" fill="#F48FB1"/><path d="M81.8 67.1l2-5.8a2.3 2.3 0 0 1 2.8-1.5c1.2.4 1.9 1.7 1.5 3l-2 5.8a2.3 2.3 0 1 1-4.3-1.5z" fill="#F06392"/><path d="M22 41.1l-5 3.6a2.3 2.3 0 1 1-2.7-3.7l5-3.6a2.3 2.3 0 1 1 2.7 3.7zm9.9 16l-5.8-1.9a2.3 2.3 0 1 1 1.4-4.3l5.8 1.9A2.3 2.3 0 1 1 32 57z" fill="#F48FB1"/><path d="M56.3 70h-6.1c-1.3 0-2.3-1-2.3-2.3 0-1.3 1-2.3 2.3-2.3h6.1c1.3 0 2.3 1 2.3 2.2 0 1.3-1 2.3-2.3 2.3zm45.2-13.4l-5.8-1.9a2.3 2.3 0 1 1 1.4-4.3l5.9 1.9a2.3 2.3 0 1 1-1.5 4.3z" fill="#84D2F6"/><path d="M64 18.7c15.4 0 30 3.8 40.8 10.6C115.2 36 121 44.5 121 53.6l-.3 19c-.6.6-1.6 1.4-2.6 1.4a2 2 0 0 1-.8-.1 7 7 0 0 0-2.7-.6c-4 0-5.9 3.7-7.6 7.4-1.9 3.8-3.8 7.7-7.9 8.6l-3.3.3c-3.3 0-5.9-1.2-9-2.6-4-2-8.5-4-15.7-4H70c-5.7.1-8.9 2.6-11.7 4.7-2.9 2.2-5.3 4-10.5 4h-2c-4-.3-6.6-2.8-9.5-5.6-3.9-3.7-8.2-8-16.3-8a28.5 28.5 0 0 0-6.9 1c-1.6 0-4.4-5-5.7-10.3L7 53.2c.3-19 25.9-34.5 57-34.5m0-3c-33 0-59.7 16.8-60 37.5l.4 16s3 12.9 8.6 12.9c.3 0 .6 0 1-.2a27 27 0 0 1 6-.7c12.8 0 14.6 12.6 25.4 13.5l2.3.1c11.8 0 12.4-8.5 22.3-8.9h1c12 0 16 6.7 24.7 6.7 1.2 0 2.5 0 4-.4 9.7-2 9.7-16 14.8-16 .5 0 1 .2 1.5.4a5 5 0 0 0 2 .4c3.3 0 5.6-3.3 5.6-3.3l.3-20.1c0-21-26.9-38-60-38z" fill="#434343" opacity=".2"/></svg>