<svg viewBox="0 0 128 128" xmlns="http://www.w3.org/2000/svg" xmlns:xlink="http://www.w3.org/1999/xlink"><path d="M90.7 45a5 5 0 0 1-.5-7.1l19.6-22.6a5 5 0 1 1 7.7 6.6L97.9 44.5a5 5 0 0 1-7.2.5z" fill="#44B3E6"/><path d="M113.7 15.5a3.1 3.1 0 0 1 2.3 5.1L96.4 43.2c-.6.7-1.5 1-2.4 1a3.1 3.1 0 0 1-2.3-5.1l19.6-22.5c.6-.7 1.5-1.1 2.4-1.1m0-2a5 5 0 0 0-3.9 1.8L90.2 37.9a5 5 0 1 0 7.7 6.6L117.5 22a5 5 0 0 0-3.8-8.4z" fill="#434343" opacity=".2"/><path d="M91.7 113c0 6.1-13.8 11-30.7 11s-30.8-4.9-30.8-11l.1-2.3s15.5-8.5 30.7-8.5c15.6 0 30.7 8.7 30.7 8.7v2.2z" fill="#3D82C4"/><radialGradient id="a" cx="61" cy="111" r="23.1" gradientUnits="userSpaceOnUse"><stop stop-color="#38A4DD" offset="0"/><stop stop-color="#58C1EF" offset="1"/></radialGradient><ellipse cx="61" cy="111" rx="30.7" ry="10.9" fill="url(#a)"/><path d="M61 102c17.8 0 28.7 5.3 28.7 9v2.1c0 3.7-11 8.9-28.7 8.9s-28.8-5.2-28.8-9v-2c0-3.7 11-9 28.8-9m0-2c-17 0-30.8 5-30.8 11v2.1C30.2 119 44 124 61 124s30.7-4.9 30.7-11v-2c0-6-13.8-11-30.7-11z" fill="#434343" opacity=".2"/><radialGradient id="b" cx="61" cy="96.5" r="15.1" gradientUnits="userSpaceOnUse"><stop stop-color="#44B3E6" offset=".2"/><stop stop-color="#84D2F6" offset=".9"/></radialGradient><path d="M65.9 79.3h-9.5s1.6 21-7 29c-2.7 2.4.6 3.7 2.4 4.3 2.3.6 5.6 1 9.3 1s7-.4 9.3-1c1.9-.6 4.4-3 2.5-4.3-8.3-6-7-29-7-29z" fill="url(#b)"/><path d="M63.8 81.3c0 2.3 0 6.2.5 10.5 1 8.9 3.4 14.9 7.1 17.8a3 3 0 0 1-1.5 1c-2.2.7-5.4 1-8.8 1s-6.5-.3-8.7-1c-1-.2-1.5-.5-1.8-.7l.1-.2c7.6-7 8-22.6 7.8-28.4h5.3m2.1-2zm0 0h-9.5s1.6 21-7 29c-2.7 2.4.6 3.7 2.4 4.3 2.3.6 5.6 1 9.3 1s7-.4 9.3-1c1.9-.6 4.4-3 2.5-4.3-8.3-6-7-29-7-29z" fill="#434343" opacity=".2"/><radialGradient id="c" cx="51.1" cy="64.4" r="49.5" gradientTransform="matrix(.9943 .0955 -.0752 .6232 5.1 15.9)" gradientUnits="userSpaceOnUse"><stop stop-color="#84D2F6" offset=".1"/><stop stop-color="#44B3E6" offset=".8"/></radialGradient><path d="M110.8 49.5a3 3 0 0 1 2 3c-.8 9-6.6 44.4-51.8 44.4S10 61.5 9.2 52.5c0-1.3.7-2.5 2-3 6.3-2.7 26.2-10.2 49.8-10.2s43.5 7.5 49.8 10.2z" fill="url(#c)"/><radialGradient id="d" cx="60.3" cy="53.2" r="53.2" gradientTransform="matrix(1 0 0 .4929 0 27)" gradientUnits="userSpaceOnUse"><stop stop-color="#BEDEF5" offset=".8"/><stop stop-color="#89B4D4" offset="1"/></radialGradient><ellipse cx="61" cy="51.6" rx="51.9" ry="17.4" fill="url(#d)"/><path d="M61 35.1c12.6 0 25.6 2.3 35.5 6.4 9.2 3.7 13.3 7.9 13.3 10.2v.5c-.8 9.8-6.7 41.6-48.7 41.6S13 62 12.3 52.2a4 4 0 0 0-.1-.8c.3-2.4 4.5-6.4 13.2-10 10-4 22.9-6.3 35.6-6.3m0-3c-28.7 0-52 11-52 19.6 0 .6.2.4.2.8.8 9 6.6 44.3 51.8 44.3s51-35.3 51.7-44.3v-.8C112.8 43 89.6 32 61 32z" fill="#434343" opacity=".2"/><defs><path id="e" d="M109.4 51.1V4H12.6v47.6c0 8.8 21.7 15.1 48.4 15.1s48.4-6.3 48.4-15.1V51z"/></defs><clipPath id="f"><use xlink:href="#e"/></clipPath><g clip-path="url(#f)"><radialGradient id="g" cx="61.6" cy="20.6" r="66.1" gradientTransform="matrix(0 1 -1.4924 0 92.3 -41)" gradientUnits="userSpaceOnUse"><stop stop-color="#FAE9E7" offset=".4"/><stop stop-color="#FAE9E7" offset=".7"/><stop stop-color="#A1887F" offset=".8"/></radialGradient><path d="M109.3 57.7c-.5-1.3-1.4-5.3-2.7-8.8a52 52 0 0 0-45.5-32c-20.8 0-37.6 15.7-44 27.8s-4.7 7.3-4.7 13.1.5 8.2 2 10.6c2 3 3.6 4.5 7.2 5.2 1.5.3 2.5 1.6 3.3 2.8 3.8 5.6 7.2 6.4 13.4 6.5 2.4 0 8.3 1 9.5 1.7a13 13 0 0 0 9.8.7 9 9 0 0 1 5.7 0 15.2 15.2 0 0 0 12-1.2 8 8 0 0 1 6.1-.7c1.8.6 3.9.6 6 .2a11 11 0 0 0 6.5-3.8c1.1-1.5 3-2.6 4.9-2.9a9 9 0 0 0 2.4-.6c1.9-.8 2.8-3 3.3-5A7.9 7.9 0 0 1 107 67c2.6-1.9 3-7 2.2-9.2z" fill="url(#g)"/><defs><path id="h" d="M109.3 57.7c-.5-1.3-1.4-5.5-2.7-8.8a52 52 0 0 0-45.5-32c-20.8 0-37.6 15.7-44 27.8s-4.7 7.3-4.7 13.1.5 8.2 2 10.6c2 3 3.6 4.5 7.2 5.2 1.5.3 2.5 1.6 3.3 2.8 3.8 5.6 7.2 6.4 13.4 6.5 2.4 0 8.3 1 9.5 1.7a13 13 0 0 0 9.8.7 9 9 0 0 1 5.7 0 15.2 15.2 0 0 0 12-1.2 8 8 0 0 1 6.1-.7c1.8.6 3.9.6 6 .2a11 11 0 0 0 6.5-3.8c1.1-1.5 3-2.6 4.9-2.9a9 9 0 0 0 2.4-.6c1.9-.8 2.8-3 3.3-5A7.9 7.9 0 0 1 107 67c2.6-1.9 3-7 2.2-9.2z"/></defs><clipPath id="i"><use xlink:href="#h"/></clipPath><g clip-path="url(#i)"><radialGradient id="j" cx="60.2" cy="12.4" r="68" gradientTransform="matrix(1 0 0 .905 0 1.2)" gradientUnits="userSpaceOnUse"><stop stop-color="#E53A35" offset="0"/><stop stop-color="#EF9A9B" offset=".4"/><stop stop-color="#FACDD2" offset=".7"/></radialGradient><path d="M20.6 56c3.1-.4 7.7-5.4 10.8-5.2 3.8.2 6.8 2.9 9.7 5.3s8.3 6.2 12 5.4c7-1.4 10.6-8.2 17.5-9.8 3-.6 10.3 3.6 13 5.1C91 61 94 58.4 95.3 55c.8-2.2 1.6-6.1 3.8-7 2-1 9 5.2 8.9 4.7-1.5-24-22.8-39.3-46.1-39.3-21.8 0-45.6 13.9-47.3 36 0 0 .3 7.4 6 6.6z" fill="url(#j)"/></g><path d="M61.1 20a45 45 0 0 1 28.1 10.6 44.8 44.8 0 0 1 16.6 25.7l.7 2.4c.5 1.4 0 5-1.1 5.9a10.7 10.7 0 0 0-3.8 6c-.4 1.9-1.1 2.7-1.6 3l-1.5.4c-2.8.3-5.3 1.8-7 4a8.1 8.1 0 0 1-4.7 2.7 9.9 9.9 0 0 1-4.5-.1 10.9 10.9 0 0 0-8.5 1 11.8 11.8 0 0 1-6 1.4c-1.2 0-2.5-.2-3.5-.5a12.2 12.2 0 0 0-7.6 0 9.7 9.7 0 0 1-7.5-.5 39 39 0 0 0-10.8-2c-5.5-.2-8-.7-11-5.3-.8-1.1-2.4-3.5-5.2-4-2.6-.5-3.6-1.3-5.2-3.8-1-1.7-1.5-3.4-1.5-9A26.9 26.9 0 0 1 19.8 46c5.5-10.5 21-26.2 41.3-26.2m0-3c-20.8 0-37.6 15.7-44 27.8s-4.7 7.3-4.7 13.1.5 8.2 2 10.7c2 3 3.6 4.4 7.2 5.1 1.5.3 2.5 1.6 3.3 2.8 3.8 5.6 7.2 6.4 13.4 6.5 2.5.1 8.3 1 9.5 1.7a13 13 0 0 0 9.8.7 8.7 8.7 0 0 1 5.7 0 14.5 14.5 0 0 0 6 .6c2.3-.2 4.3-.8 6-1.7a8 8 0 0 1 6.1-.8 11.5 11.5 0 0 0 6 .2 11 11 0 0 0 6.5-3.8c1.1-1.5 3-2.6 4.9-2.8a9 9 0 0 0 2.4-.7c1.9-.8 2.8-3 3.3-5A7.9 7.9 0 0 1 107 67c2.6-2 3-7.1 2.2-9.2-.5-1.4-1.3-5-2.7-8.8A52 52 0 0 0 61 17z" fill="#434343" opacity=".2"/></g><g opacity=".4"><circle cx="28.7" cy="51" r="3" fill="#EF9A9B"/><circle cx="36.9" cy="57.1" r="2" fill="#EF9A9B"/><circle cx="67.3" cy="49.4" r="2" fill="#EF9A9B"/><circle cx="45.5" cy="38.1" r="2" fill="#F05455"/><circle cx="70.4" cy="29.2" r="2" fill="#F05455"/><circle cx="83.4" cy="57.3" r="3" fill="#EF9A9B"/><circle cx="96.6" cy="48.4" r="3" fill="#EF9A9B"/><circle cx="83.7" cy="38.1" r="3" fill="#F05455"/></g><radialGradient id="k" cx="58.5" cy="12.4" r="14.6" gradientUnits="userSpaceOnUse"><stop stop-color="#EF4438" offset=".4"/><stop stop-color="#D32E2E" offset=".7"/></radialGradient><path d="M73.8 16.8c0 2.6-.7 5-2 7-2.3 3.5-1.6-.5-5.6 2.1-2.3 1.5-4 .8-9.1-.9-3-.9-4.5 1-5.8 0-2.4-1.9-3.2-4.9-3.2-8.2a12.8 12.8 0 0 1 25.7 0z" fill="url(#k)"/><path d="M61 6a10.8 10.8 0 0 1 9 16.7l-.2.4a4 4 0 0 0-1.2-.1c-1 0-2.2.4-3.6 1.3-.5.3-1 .4-1.3.4-1 0-2.3-.4-4.4-1-.5-.3-1-.4-1.6-.6-.8-.2-1.5-.4-2.3-.4-1 0-1.9.3-2.5.4l-.5.1c-1.5-1.2-2.2-3.4-2.2-6.4C50.2 10.8 55 6 61 6m0-2c-7.1 0-12.8 5.7-12.8 12.8 0 3.3.7 6.3 3.1 8.2.3.2.6.3 1 .3.7 0 1.7-.5 3.1-.5.5 0 1 0 1.7.2 3.2 1 5 1.7 6.6 1.7.9 0 1.6-.2 2.5-.8 1-.7 1.8-1 2.4-1 .7 0 1.1.4 1.6.4.3 0 .8-.3 1.5-1.5A12.8 12.8 0 0 0 61 4z" fill="#434343" opacity=".2"/></svg>