<svg viewBox="0 0 128 128" xmlns="http://www.w3.org/2000/svg"><linearGradient id="a" x1="53.1" x2="100.4" y1="64.1" y2="64.1" gradientUnits="userSpaceOnUse"><stop stop-color="#fff" offset="0"/><stop stop-color="#CEC3AB" offset=".7"/><stop stop-color="#D0C4AF" offset="1"/></linearGradient><path d="M100 54.7c-.9-17.4-8.5-26.1-11-29.7s-2.4-5.7 0-8.3 8.5-6.6 6-8.6c-4.3-3.7-18.1-3.7-18.1-3.7S63 4.4 58.5 8c-2.4 2 3.7 6 6 8.6s2.7 4.7 0 8.3c-2.5 3.6-10.2 12.3-11 29.8a1243 1243 0 0 0-.2 57.5c.1 4.2 3.1 8 7.7 9.5 3.7 1.1 8.8 2.1 15.8 2.1s12.1-1 15.8-2.2c4.5-1.5 7.5-5.2 7.6-9.4.2-12.7.5-43.9-.2-57.6z" fill="url(#a)"/><linearGradient id="b" x1="76.7" x2="76.7" y1="5.8" y2="17.6" gradientUnits="userSpaceOnUse"><stop stop-color="#E3D7BC" offset="0"/><stop stop-color="#8C8377" offset="1"/></linearGradient><ellipse cx="76.7" cy="9.6" rx="16.6" ry="3.9" fill="url(#b)"/><ellipse cx="76.7" cy="9.6" rx="16.6" ry="3.9" fill="url(#b)"/><path d="M76.8 6.4c4.9 0 13.5.8 16.6 3a22 22 0 0 1-3.4 3.5l-2.6 2.4c-3.2 3.5-3.2 6.7-.1 10.9l.7 1c3 4 9.2 12.2 10 27.6.7 13.7.3 44.7.2 57.4 0 3.4-2.5 6.4-6.3 7.6a49.2 49.2 0 0 1-15.1 2.1c-5.8 0-11-.7-15.2-2-3.8-1.3-6.2-4.3-6.3-7.6-.2-12.8-.6-43.8.1-57.5a46 46 0 0 1 10-27.6l.8-1c3-4.2 3-7.4-.1-10.9L63.5 13c-1-1-3-2.6-3.4-3.5 3-2.2 11.8-3 16.7-3m0-2S63 4.4 58.5 8c-2.4 2 3.7 6 6 8.6s2.7 4.7 0 8.3c-2.5 3.6-10.2 12.3-11 29.7a1243 1243 0 0 0-.1 57.6c0 4.2 3 8 7.6 9.5 3.7 1.1 8.8 2.1 15.8 2.1s12.1-1 15.8-2.2c4.5-1.5 7.5-5.2 7.6-9.4.2-12.7.5-43.9-.2-57.5-.9-17.4-8.5-26.1-11-29.7s-2.4-5.7 0-8.3c2.4-2.7 8.5-6.6 6-8.6-4.3-3.7-18-3.7-18-3.7z" fill="#424242" opacity=".2"/><linearGradient id="c" x1="34.6" x2="57.7" y1="112.8" y2="112.8" gradientUnits="userSpaceOnUse"><stop stop-color="#CEC3AB" offset="0"/><stop stop-color="#CBC0A8" offset=".3"/><stop stop-color="#C1B7A1" offset=".5"/><stop stop-color="#B0A793" offset=".7"/><stop stop-color="#999080" offset=".9"/><stop stop-color="#857D70" offset="1"/></linearGradient><path d="M57 119.4v-14.2a2 2 0 0 0-1-1.8 30.4 30.4 0 0 0-21.3-.7c-3 1.3-2.6 2-2.6 3.7v13s-.8 5 12.4 5 12.4-5 12.4-5z" fill="url(#c)"/><path d="M44.2 103.1c4.4 0 8.7.9 10.7 2.1v14.5l-.2.4c-.6.7-2.8 2.3-10.2 2.3-8.1 0-10.2-2-10.4-2.8V105.3l1.4-.8c2-.9 5.2-1.4 8.7-1.4m0-2c-3.6 0-7 .5-9.5 1.6-3 1.3-2.6 2-2.6 3.7v13s-.8 5 12.4 5 12.4-5 12.4-5v-14.2a2 2 0 0 0-1-1.8 25.6 25.6 0 0 0-11.7-2.3z" fill="#424242" opacity=".2"/><linearGradient id="d" x1="44.5" x2="44.5" y1="90" y2="120.5" gradientUnits="userSpaceOnUse"><stop stop-color="#fff" offset="0"/><stop stop-color="#FAF8F6" offset=".1"/><stop stop-color="#EBE6DD" offset=".3"/><stop stop-color="#D3C9B4" offset=".6"/><stop stop-color="#CEC3AB" offset=".6"/><stop stop-color="#D0C4AF" offset="1"/></linearGradient><path d="M61.3 113.9V94.7c0-1-.5-1.8-1.4-2.3a41 41 0 0 0-28.6-1c-4 1.7-3.5 2.8-3.5 5v17.5s-1.1 6.8 16.7 6.8 16.8-6.8 16.8-6.8z" fill="url(#d)"/><linearGradient id="e" x1="27.8" x2="61.2" y1="105" y2="105" gradientUnits="userSpaceOnUse"><stop stop-color="#fff" offset="0"/><stop stop-color="#FBF9F6" offset=".1"/><stop stop-color="#F0EADD" offset=".4"/><stop stop-color="#E0D4BA" offset=".6"/><stop stop-color="#E4D7BE" offset=".9"/><stop stop-color="#E8DBC3" offset="1"/></linearGradient><path d="M61.3 113.9V94.7c0-1-.5-1.8-1.4-2.3a41 41 0 0 0-28.6-1c-4 1.7-3.5 2.8-3.5 5v17.5s-1.1 6.8 16.7 6.8 16.8-6.8 16.8-6.8z" fill="url(#e)"/><path d="M44 91.3c6.2 0 12 1 14.9 2.8.2.1.4.4.4.6v19.4c0 .2-.1.7-.7 1.4-1.2 1.2-4.5 3.2-14 3.2s-13-2-14.1-3.2c-.7-.7-.7-1.2-.7-1.4V95.7c0-1.3 0-1.5 2.3-2.5 2.7-1.2 7.1-2 12-2m-.1-1.9c-4.8 0-9.6.6-12.8 2-4 1.8-3.5 2.9-3.5 5.1v17.5s-1.2 6.8 16.7 6.8 16.8-6.8 16.8-6.8V94.7c0-1-.6-1.8-1.4-2.3-3.3-2-9.6-3.1-15.8-3.1z" fill="#424242" opacity=".2"/><linearGradient id="f" x1="44.2" x2="44.2" y1="91.8" y2="103.1" gradientUnits="userSpaceOnUse"><stop stop-color="#E3D7BC" offset="0"/><stop stop-color="#D3C7AF" offset=".2"/><stop stop-color="#A89E8D" offset=".7"/><stop stop-color="#8C8377" offset="1"/></linearGradient><ellipse cx="44.2" cy="95.4" rx="13.6" ry="3.8" fill="url(#f)"/></svg>