<svg viewBox="0 0 128 128" xmlns="http://www.w3.org/2000/svg" xmlns:xlink="http://www.w3.org/1999/xlink"><ellipse cx="64" cy="96.9" rx="60" ry="27.1" fill="#75352B"/><path d="M64 71.5c15.8 0 30.6 2.7 41.8 7.8 10.7 4.8 16.6 11 16.6 17.6s-6 12.8-16.7 17.7c-11 5-25.9 7.8-41.7 7.8s-30.6-2.8-41.8-7.8c-10.7-4.8-16.6-11.1-16.6-17.7s6-12.8 16.6-17.6c11.2-5 26-7.8 41.8-7.8m0-1.7C30.9 69.8 4 82 4 97s26.9 27 60 27 60-12.1 60-27-26.9-27.2-60-27.2z" fill="#eee" opacity=".2"/><radialGradient id="a" cx="64" cy="94.1" r="55.9" gradientTransform="matrix(1 0 0 .457 0 51)" gradientUnits="userSpaceOnUse"><stop stop-color="#3B1A15" offset=".3"/><stop stop-color="#3F1C17" offset=".4"/><stop stop-color="#4B221C" offset=".6"/><stop stop-color="#5F2C24" offset=".8"/><stop stop-color="#7A3930" offset="1"/></radialGradient><ellipse cx="64" cy="94.1" rx="56.7" ry="25.6" fill="url(#a)"/><linearGradient id="b" x1="64" x2="64" y1="45.2" y2="112.6" gradientUnits="userSpaceOnUse"><stop stop-color="#fff" offset="0"/><stop stop-color="#E0E0E0" offset=".5"/><stop stop-color="#DEDEDE" offset=".5"/><stop stop-color="#B8B8B8" offset=".8"/><stop stop-color="#B8B8B8" offset="1"/></linearGradient><path d="M101.1 58.1C89.5 44.8 64 45.1 64 45.1s-25.5-.3-37 13c-5.2 5.9-5.4 16-4.7 22.5.6 5.8 3.3 19 14.5 25.6 5.5 3.3 16.4 6.4 27.2 6.4s21.8-3.1 27.3-6.4c11.2-6.6 14-19.8 14.6-25.6.7-6.6.4-16.6-4.7-22.5z" fill="url(#b)"/><path d="M64.2 47c2.5 0 25.2.2 35.7 12.2 5.4 6.3 4.7 17.8 4.3 21.3-.4 4-2.6 17.6-13.8 24.2-5 3-15.4 6.2-26.4 6.2s-21.5-3.2-26.5-6.2c-11-6.5-13.3-20.2-13.7-24.3-.5-4.4-1-15.2 4.3-21.2 10.4-12 33-12.3 35.5-12.3l.3.1h.3m0-1.8h-.5c-2.7 0-26 .3-36.9 12.9-5 5.9-5.3 16-4.6 22.5.6 5.8 3.3 19 14.5 25.6 5.5 3.3 16.4 6.4 27.3 6.4s21.7-3.1 27.2-6.4c11.2-6.6 14-19.8 14.6-25.6.7-6.6.4-16.6-4.7-22.5-11-12.5-34.3-13-37-13z" fill="#424242" opacity=".2"/><linearGradient id="c" x1="63.9" x2="63.9" y1="49.6" y2="73.8" gradientUnits="userSpaceOnUse"><stop stop-color="#DEDEDE" offset="0"/><stop stop-color="#B8B8B8" offset="1"/></linearGradient><path d="M98.7 64c0 8.2-12 15-35.1 15C41.9 79 29 72.3 29 64s15.6-14.8 35-14.8S98.7 55.8 98.7 64z" fill="url(#c)"/><defs><path id="d" d="M98.7 64c0 8.2-12 15.1-35.1 15.1-21.7 0-34.6-6.8-34.6-15s15.6-14.8 35-14.8S98.7 55.9 98.7 64z"/></defs><clipPath id="e"><use xlink:href="#d"/></clipPath><linearGradient id="f" x1="64.1" x2="64.1" y1="60.6" y2="87.5" gradientUnits="userSpaceOnUse"><stop stop-color="#7CB324" offset="0"/><stop stop-color="#76A724" offset=".2"/><stop stop-color="#678825" offset=".5"/><stop stop-color="#4E5726" offset="1"/></linearGradient><path d="M95.7 70.9c0 5.6-14.2 10-31.6 10s-31.6-4.4-31.6-10S46.6 60.7 64 60.7s31.6 4.5 31.6 10.2z" clip-path="url(#e)" fill="url(#f)"/><path d="M50.4 47c-1.3 4.2 2.8 9 5.3 11.3.2.2 0 .7-.3.6-3-.8-8.5-2.2-10.5-8.3-1.2-3.6.6-7.6 3.9-13.3 2-3.4 2.9-6.5 3.1-10.3.3-3.8-.6-6.7-2.3-8.6-.3-.4 0-.8.4-.6a13 13 0 0 1 7 9.1c.8 8-4.3 12.2-6.7 20z" fill="#78AC24" opacity=".3"/><path d="M67 49.2c-1.7 6.6 4.8 13.8 8.7 17.2.4.4.1 1-.5 1-4.7-1-13.1-3.1-16.4-12.4-2-5.5.6-11.7 5.5-20.6a35 35 0 0 0 4.4-16 18 18 0 0 0-3.9-13.2c-.4-.5 0-1.2.6-.9a20 20 0 0 1 11 13.7c1.7 12.4-6 19.1-9.3 31.2z" fill="#79AC24" opacity=".3"/></svg>