<svg viewBox="0 0 128 128" xmlns="http://www.w3.org/2000/svg"><path fill="#343434" d="M88.8 82.7l3.5 3.5-5.3 5.3-3.5-3.5z"/><path fill="#212121" d="M84.6 80l4 4-3.9 3.8-4-4z"/><linearGradient id="a" x1="91.2" x2="122.7" y1="41.8" y2="6.6" gradientTransform="rotate(90 66.8 63.9)" gradientUnits="userSpaceOnUse"><stop offset="0"/><stop stop-color="#4D4D4D" offset="1"/></linearGradient><path d="M123.4 119.2c3.5-5-5-12.3-17-23.4s-14.6-10-14.6-10l-4.3 4s-.5 1.3.4 3.3 15.8 18.9 28.2 25.8c0 0 5.1 3.4 7.3.3zm-5-2.7a1.7 1.7 0 1 1 3.5 0 1.7 1.7 0 0 1-3.4 0z" fill="url(#a)"/><path d="M84.6 81.6l2.8 2.7a1.1 1.1 0 0 0 1.5 0l2.2 2.3c.2.2.5.3.8.3h.1c.4 0 3.6.3 13.7 9.7l2 1.8c10.2 9.5 17.5 16.4 14.8 20.2a2 2 0 0 1-1.8.9c-1.8 0-4-1.4-4-1.5-12.2-6.8-27-23.7-27.8-25.4-.2-.5-.4-1-.4-1.4a1.1 1.1 0 0 0-1.1-1h-.1l-2-2.1a1.1 1.1 0 0 0-.2-1.6l-2.7-2.7 2.2-2.2m0-1.6L81 83.8l3.5 3.5-.8.8 3.5 3.4.3-.2c0 .5.2 1.1.5 1.9 1 1.9 15.8 18.9 28.2 25.8 0 0 2.4 1.6 4.6 1.6 1 0 2-.3 2.7-1.3 3.5-5-5-12.4-17-23.5-9.9-9.2-13.5-10-14.4-10l-3.1-3-.8.7-3.5-3.5z" fill="#eee" opacity=".2"/><circle cx="49.8" cy="51.7" r="45.4" fill="#252525"/><path d="M49.8 7.4a44.4 44.4 0 1 1-.1 88.8 44.4 44.4 0 0 1 0-88.8m0-1a45.4 45.4 0 1 0 0 90.8 45.4 45.4 0 0 0 0-90.9z" fill="#eee" opacity=".2"/><circle cx="49.8" cy="51.7" r="36.3" fill="#575757"/><radialGradient id="b" cx="54.9" cy="81.1" r="28.4" gradientTransform="rotate(90 66.8 63.9)" gradientUnits="userSpaceOnUse"><stop stop-color="#fff" offset="0"/><stop stop-color="#FDFDFD" offset=".5"/><stop stop-color="#F8F6F6" offset=".7"/><stop stop-color="#EEEBE9" offset=".8"/><stop stop-color="#E1DAD7" offset="1"/><stop stop-color="#DED7D4" offset="1"/></radialGradient><path d="M52 23.7c-5.3-1-10.6 1.4-15.4 3.7-4.6 2.2-9.5 4.6-11.9 9-2.5 4.8-1.5 10.5-2.4 15.8-.5 3.2-1.7 6.6-.3 9.5 1.2 2.3 3.7 3.6 5 5.9.9 1.7 1 3.7 1.6 5.6.8 2.6 2.8 4.9 5.3 6.1s5.5 1.4 8 .5c2.5-1 4.8-2.8 7.4-2.8 1.8 0 3.5.9 5.3 1.2 2.8.4 5.7-.6 8-2.2s4-4 5.7-6.2a167 167 0 0 0 4.7-7.1c1.4-2.3 2.9-4.6 3.8-7 2-5.3 1.5-11.3-1.2-16.2-2.6-4.6-6.6-7-11.4-9-4.4-1.8-7.2-6-12.3-6.8z" fill="url(#b)"/><path d="M32.4 39c-.3-.1-.7 0-1 .2s-.1.7 0 .9.7.3 1 0c.2-.2.2-.6 0-.8m0-3.7c-.4 0-.8.3-1 .7s.2 1 .6 1c.4 0 .7-.3.8-.6 0-.4 0-.8-.3-1m1.3-1.7c-.2 0-.5.1-.5.4s.3.5.5.4.3-.5 0-.7M36 32c-.2-.3-.7-.2-.8.2 0 .3.3.7.6.6s.6-.6.4-.9m3.8-1.4c-.2 0-.5.2-.5.4s.5.4.6.2c.2-.2 0-.6-.2-.5M28.4 58.7c.3.2.5.8.2 1.2-.2.4-.8.5-1.2.3s-.5-.8-.3-1.2a1 1 0 0 1 1.1-.4m.8 2.6c-.2-.3-.7-.3-1 0 0 .3.2.7.5.7s.6-.4.5-.7m1.5 4.1c-.2-.3-.7-.3-1 0s-.3.8 0 1 .9.2 1-.1c.3-.4.1-.9-.3-1m-2.6-17.5c-.4 0-.8.1-.9.4s0 .8.4.9c.3 0 .7-.1.8-.5 0-.2-.1-.5-.4-.6-.2-.2-.4-.2-.7-.2m-1 2.5h-.6c-.2.1-.1.4 0 .5s.5 0 .5-.2-.2-.4-.4-.4m-.1 1.1c-.2-.1-.5-.1-.7.1s0 .6.3.6c.2 0 .4-.2.4-.4s-.4-.4-.6-.3m1 1.8H25c-.2.1 0 .5 0 .6.4 0 .6-.4.4-.6m18.3-21.4c-.3-.2-.8 0-.9.4s.2.7.6.8.7-.3.7-.7-.5-.6-.9-.5M45 30c-.3 0-.6 0-.6.3 0 .2.2.5.4.5s.5-.3.5-.5-.2-.5-.5-.5M72 56.4c-.3-.2-.7-.1-.9.2s-.1.6 0 .9c.3.2.5.4.8.3s.6-.2.7-.5c0-.2-.1-.6-.4-.7m.3 2c-.3-.2-.7.1-.8.5s.4.7.8.6.5-.6.3-1m-.4 2.3c-.2-.3-.6-.3-.8 0s0 .6.2.7.6 0 .7-.4m-3.2 1.2c-.1-.2-.5-.1-.6.1s.2.5.4.5.4-.3.3-.6h-.1M65.6 65c-.2-.2-.7 0-.8.3s.4.7.7.5.4-.6.1-.8m7.8-22.6c-.1-.3-.5-.4-.8-.2s-.4.4-.3.7c.1.3.5.5.7.3s.4-.5.3-.7" fill="#A3A3A3"/><path d="M49.8 35.5c9.7 0 16 6 16 15.6S61 64.8 51.4 66.8C41.7 69 33.3 60.6 33.3 51s6.8-15.4 16.5-15.4z" fill="#E6DDD6" opacity=".4"/><radialGradient id="c" cx="41.6" cy="46.8" r="18.8" gradientUnits="userSpaceOnUse"><stop stop-color="#FDBF00" offset="0"/><stop stop-color="#FCB70B" offset=".2"/><stop stop-color="#FBA822" offset=".6"/><stop stop-color="#FAA32A" offset=".8"/><stop stop-color="#FC923B" offset="1"/></radialGradient><circle cx="49.9" cy="51" r="14.3" fill="url(#c)"/></svg>