<svg viewBox="0 0 128 128" xmlns="http://www.w3.org/2000/svg"><linearGradient id="a" x1="63.7" x2="63.7" y1="112.8" y2="123.9" gradientUnits="userSpaceOnUse"><stop stop-color="#F2F3ED" offset="0"/><stop stop-color="#C8C6B9" offset="1"/></linearGradient><ellipse cx="63.7" cy="118.2" rx="17.3" ry="5.5" fill="url(#a)"/><linearGradient id="b" x1="64" x2="64" y1="6.9" y2="117" gradientUnits="userSpaceOnUse"><stop stop-color="#F2F3ED" offset="0"/><stop stop-color="#C8C6B9" offset=".8"/><stop stop-color="#FFFCEC" offset="1"/></linearGradient><path d="M103.4 10.5c-.8-2.1-18-3.8-39.2-3.8-21.4 0-39 1.7-39.6 3.8v.1c0 .3 33 38.8 35 45 2.4 7 2.6 14 2.4 28.3-.2 14.2-1.2 31.5-1.2 31.5s-.1 2.4 3 2.4c3.3 0 3-2.4 3-2.4s-1-17.3-1.2-31.5c-.2-14.3 0-21.4 2.2-28.3 2-6.2 35.6-44.6 35.6-45v-.1z" fill="url(#b)"/><linearGradient id="c" x1="63.8" x2="63.8" y1="18.1" y2="48.7" gradientUnits="userSpaceOnUse"><stop stop-color="#E8FFA1" offset="0"/><stop stop-color="#9BA269" offset="1"/></linearGradient><path d="M92 21.6c0-2.2-12.6-4-28-4-15.5 0-28 1.8-28 4h-.3S55.1 49 63.8 49c7.9 0 24.2-22 27.5-26.6.4-.2.6-.5.6-.8z" fill="url(#c)"/><ellipse cx="64.2" cy="10.6" rx="39.2" ry="5.6" fill="#fff"/><path d="M62.9 44.5s1.3-2.5 3.6-6.1l4-6L73 29l2.4-3.5 2.5-3.4 2.5-3.2 4.6-5.7 4.6-5.4s-1.4 2.5-3.7 6c-1.1 1.9-2.5 4-4 6.2l-2.3 3.3-2.5 3.5-2.5 3.4-2.5 3.2-4.5 5.7-4.6 5.4z" fill="#8C6239"/><ellipse transform="rotate(-12.7 68.8 33)" cx="68.8" cy="33.1" rx="8.3" ry="6.9" fill="#81882D"/><ellipse transform="rotate(-12.7 77.4 24)" cx="77.3" cy="24" rx="6.2" ry="5.2" fill="#727724"/><ellipse transform="rotate(-45 67.4 32.9)" cx="67.4" cy="32.9" rx="4.2" ry="3.3" fill="#85471B"/><ellipse transform="rotate(-45 75.5 23.7)" cx="75.5" cy="23.7" rx="2.8" ry="2.3" fill="#85471B"/><ellipse cx="63.9" cy="21.6" rx="28" ry="4" fill="#E6EECB" opacity=".5"/><path d="M64.2 8c18.7 0 30.5 1.8 35 3.2L97 13.6c-21.5 25.3-30.8 37.2-32 41-.6 1.6-1 3.1-1.3 4.7a39 39 0 0 0-1.2-4.6c-1.3-4-10.6-15.9-32-41.4l-1.6-2C33.2 9.7 45 8 64.2 8m-.4 105.7a3 3 0 0 0 2.7 2 30 30 0 0 1 10.9 2.4c-1.6 1-6.1 2.5-13.7 2.5s-12.1-1.5-13.7-2.5a27 27 0 0 1 11-2.4 3 3 0 0 0 2.8-2M64.2 5C44.3 5 27.9 7 25.3 9.8c-.4.3-.7.5-.7.7v.1c0 .3 33 38.8 35 45 2.3 7 2.6 14 2.4 28.3a825 825 0 0 1-1 28.8c-8.3.5-14.6 2.7-14.6 5.5 0 3 7.7 5.5 17.3 5.5s17.2-2.5 17.2-5.5c0-2.7-6.2-5-14.3-5.4-.2-5.4-.9-18-1-29-.2-14.1 0-21.2 2.2-28.2 2-5.6 29.2-37.3 34.7-43.8.6-.3.9-.7 1-1.1v-.2c-.5-3-18-5.5-39.4-5.5zm39.2 6z" fill="#424242" opacity=".2"/></svg>