<svg viewBox="0 0 128 128" xmlns="http://www.w3.org/2000/svg"><linearGradient id="a" x1="108.6" x2="108.6" y1="43.4" y2="108.6" gradientTransform="scale(-1 1) rotate(-6.6 7.9 1467.2)" gradientUnits="userSpaceOnUse"><stop stop-color="#eee" offset="0"/><stop stop-color="#EAEAEA" offset=".3"/><stop stop-color="#ddd" offset=".6"/><stop stop-color="#C8C8C8" offset=".9"/><stop stop-color="#BDBDBD" offset="1"/></linearGradient><path d="M32.7 38.4l44.6 5.2 3.6.4L74 97c-1 9-17.2 10.5-26.7 9.4-9.6-1-24.7-6.3-23.7-15.2L29 38l3.7.4z" fill="url(#a)"/><path d="M31 40.5l1.5.1 22.3 2.6L77 45.8l1.4.1-6.8 51c-.3 2.4-2.3 4.4-6 5.8a47.5 47.5 0 0 1-33.3-2.8c-3.3-1.8-7-4.6-6.6-8.4l5.2-51M29 38l-5.5 53.3c-1 9 14 14.1 23.7 15.2 1.7.2 3.6.3 5.7.3 9.2 0 20.2-2.3 21-9.7L81 44l-3.6-.4-44.6-5.2L29 38z" fill="#424242" opacity=".2"/><linearGradient id="b" x1="108.7" x2="108.7" y1="44.8" y2="104.9" gradientTransform="scale(-1 1) rotate(-6.6 7.9 1467.2)" gradientUnits="userSpaceOnUse"><stop stop-color="#FFB300" offset="0"/><stop stop-color="#FFEA00" offset="1"/></linearGradient><path d="M34 40.3l-5.2 48c0 1.8 1.2 3.5 3 4.6a43 43 0 0 0 16.7 5c6.9.8 13 .1 16.5-1 2.3-.6 4.2-2.3 4.7-3.8l5.7-48L34 40.3z" fill="url(#b)"/><g fill="#E4A324"><circle cx="58.5" cy="93.8" r="1"/><circle cx="61" cy="91.3" r=".7"/><circle cx="56.8" cy="89.5" r="1.2"/><circle cx="61.1" cy="88.8" r="1.2"/><circle cx="57.7" cy="83" r="1"/><circle cx="60.3" cy="83.8" r=".9"/><circle cx="64.7" cy="78.6" r=".9"/><circle cx="56.8" cy="72.4" r="1.1"/><circle cx="61.5" cy="81.1" r="1.4"/><circle cx="58.4" cy="76.5" r="1.4"/><circle cx="63.2" cy="75.4" r="1"/></g><linearGradient id="c" x1="143.9" x2="143.9" y1="48.6" y2="93.9" gradientTransform="scale(-1 1) rotate(-6.6 7.9 1467.2)" gradientUnits="userSpaceOnUse"><stop stop-color="#eee" offset="0"/><stop stop-color="#EAEAEA" offset=".3"/><stop stop-color="#ddd" offset=".6"/><stop stop-color="#C8C8C8" offset=".9"/><stop stop-color="#BDBDBD" offset="1"/></linearGradient><path d="M30.8 43.5l-4.3-3.7s-3.2 3.1-9.7 3.5c-5.4.3-10.4 1.4-12 19.4-1.3 15.7.4 19.5 9.3 22.7 7.6 2.8 9.6 4.8 9.6 4.8L26 88l2-19.3 2.7-25.2zM16.4 74.6c-4.5-.5-4-5.3-3.3-11.3s1.3-10.8 5.8-10.3 4 5.4 3.4 11.4c-.7 6-1.6 10.7-5.9 10.2z" fill="url(#c)"/><path d="M26.4 42.6l2.1 1.8-2.5 24L24 87l-.5.4c-1.5-1-4.2-2.3-8.7-4-7.3-2.6-9-5-7.7-20.4 1.4-17 5.7-17.3 9.9-17.5a20 20 0 0 0 9.4-2.9M17 77c6 0 6.9-7.1 7.5-12.3.3-3 .6-6 .2-8.3-.7-4-3.4-5.2-5.5-5.5h-1c-5.9 0-6.6 6.2-7.3 12.2-.4 3.1-.7 6-.3 8.4.7 4 3.4 5.2 5.6 5.4h.8m9.5-37s-3.2 3.1-9.6 3.5c-5.5.3-10.5 1.4-12 19.4-1.4 15.7.3 19.5 9.1 22.7 7.7 2.8 9.7 4.8 9.7 4.8L26 88l2-19.4 2.7-25.1-4.3-3.7zM17 74.7a4 4 0 0 1-.6 0c-4.5-.6-4-5.4-3.3-11.4.7-5.7 1.2-10.3 5.2-10.3h.6c4.6.5 4 5.4 3.4 11.3-.7 5.7-1.5 10.4-5.3 10.4z" fill="#424242" opacity=".2"/><linearGradient id="d" x1="67.9" x2="131" y1="42.3" y2="36.5" gradientTransform="matrix(-1 0 0 1 155.1 0)" gradientUnits="userSpaceOnUse"><stop stop-color="#eee" offset="0"/><stop stop-color="#F2F2F2" offset=".5"/><stop stop-color="#fff" offset="1"/></linearGradient><path d="M25 34.2c.4-.8.5-1.7.3-2.6a7.7 7.7 0 0 1 8.7-9.4 4 4 0 0 0 3.2-.7 7.8 7.8 0 0 1 7.1-1.1c2-1.3 4.6-2 7.3-1.8 3.1.3 5.9 1.8 8 4a10 10 0 0 1 6-1.2c4.8.4 8.7 3.6 10.5 7.7h1.1A8.7 8.7 0 0 1 85 39a5.4 5.4 0 0 1 2 5.4 5 5 0 0 1-4.3 3.8c-.7 0-1.5 0-2.2-.3l-.2-.1a6.5 6.5 0 0 1-4.6 3.2c-.6.2-1.2.3-1.7.6-3 1.6-1.5 9.8-9 9.1-5-.5-6-4.5-6.2-7.1 0-1.5-.6-3-1.2-4.5a1 1 0 0 0-1.5-.5c-2.1 1.4-4.7 2-7.2 1.7-3-.2-5.7-1.6-7.8-3.6a4 4 0 0 0-4.8-1 8 8 0 0 1-5.4.7 8.7 8.7 0 0 1-6.8-7.3c-.2-1.8.1-3.4.9-4.8z" fill="url(#d)"/><path d="M50.5 21.6h.8c2.3.2 4.4 1.3 6 3a3 3 0 0 0 3.5.6 8.4 8.4 0 0 1 4.6-.8c3.4.3 6.5 2.6 7.9 5.9a3 3 0 0 0 2.8 1.8h.9c2.9.3 5.2 2.9 5 5.8v.5a3 3 0 0 0 1.1 2.8c.6.5 1.2 1.4 1 2.5-.2.7-1 1.3-1.7 1.4h-.7l-.1-.1a3 3 0 0 0-4 1.2 3 3 0 0 1-2.4 1.7l-.4.1-.4.2c-.5.1-1.2.3-1.8.7-2.1 1.1-2.9 3.3-3.5 5.2-1.1 3-1.6 3.5-3.2 3.5a6 6 0 0 1-.6 0c-1.5-.1-3.2-.6-3.5-4.4-.1-1.8-.7-3.6-1.4-5.3a4 4 0 0 0-6-1.9 8.4 8.4 0 0 1-5.3 1.3 9.5 9.5 0 0 1-5.8-2.8 7.5 7.5 0 0 0-5.3-2.3c-1 0-2.2.3-3.1.8-.7.3-1.5.5-2.2.5l-1.2-.1a5.7 5.7 0 0 1-4.4-4.8c-.1-1 0-2.1.5-3 .8-1.4 1-3 .6-4.6v-1.5a4.7 4.7 0 0 1 4.5-4.3h2a7 7 0 0 0 4.3-1.3 4.7 4.7 0 0 1 3.3-.9l1.2.3a3 3 0 0 0 2.5-.4 8.2 8.2 0 0 1 4.5-1.3m0-3c-2.3 0-4.4.7-6.2 1.8a8.4 8.4 0 0 0-2.5-.4c-1.7 0-3.3.6-4.6 1.5-.7.5-1.6.8-2.5.8H34l-1.2-.2h-.3a7.7 7.7 0 0 0-7.2 9.6c.2.8 0 1.7-.3 2.5-.8 1.4-1.1 3-1 4.8a8.7 8.7 0 0 0 8.6 7.5c1.3 0 2.6-.3 3.6-.9a4 4 0 0 1 1.8-.4c1.1 0 2.3.5 3.1 1.4a12.5 12.5 0 0 0 8.8 3.7c2.2 0 4.3-.6 6.1-1.8l.6-.2c.4 0 .8.3 1 .7.6 1.5 1 3 1.2 4.5.2 2.6 1.2 6.6 6.2 7l.8.1c6.6 0 5.3-7.6 8.1-9.1l1.8-.6c2-.4 3.6-1.6 4.5-3.2h.3c.4.3 1 .4 1.6.4h.5a4.8 4.8 0 0 0 4.3-3.8c.5-2.2-.4-4.2-2-5.5l.1-.8a8.7 8.7 0 0 0-8.4-9H76a12.7 12.7 0 0 0-11.5-7.7c-1.8 0-3.5.4-5 1.2-2-2.2-4.8-3.6-8-3.9h-1z" fill="#424242" opacity=".2"/><path d="M83.6 13.6l6.6-1.1c.3-.1.6.2.5.5l-.9 13.8c0 .5-.7.6-1 .1l-5.6-12.6c-.2-.3 0-.6.4-.7zm16.9-.2l5.5 3.9c.3.1.3.5 0 .8l-10.3 9c-.4.4-1 0-.8-.5l4.9-13c0-.2.5-.3.7-.2zm10.8 12.5l1.2 6.6c0 .3-.2.6-.5.6l-13.8-1c-.6 0-.7-.7-.2-1l12.6-5.6c.3-.1.6 0 .7.4z" fill="#F44336"/><linearGradient id="e" x1="76.9" x2="76.9" y1="60" y2="121.6" gradientTransform="rotate(-6.6 88.4 64.5)" gradientUnits="userSpaceOnUse"><stop stop-color="#eee" offset="0"/><stop stop-color="#EAEAEA" offset=".3"/><stop stop-color="#ddd" offset=".6"/><stop stop-color="#C8C8C8" offset=".9"/><stop stop-color="#BDBDBD" offset="1"/></linearGradient><path d="M97.4 58.7l-21 2.4-21 2.4-3.5.4 6.7 50.2c1 8.4 16.2 9.9 25.2 8.8s23.3-6 22.3-14.4L101 58.3l-3.5.4z" fill="url(#e)"/><path d="M99 60.6l5 48.2c.4 3.5-3.2 6.2-6.3 7.9a43.3 43.3 0 0 1-19.3 4.5c-7.8 0-17.1-2-17.8-7.4l-6.3-48 1.3-.2 42-4.8 1.5-.2m1.8-2.3l-3.5.4-42 4.8-3.5.4 6.7 50.2c.8 7 11.1 9.2 19.9 9.2 1.9 0 3.7-.2 5.3-.3 9-1 23.3-6 22.3-14.5L101 58.3z" fill="#424242" opacity=".2"/><linearGradient id="f" x1="76.9" x2="76.9" y1="61.4" y2="118" gradientTransform="rotate(-6.6 88.4 64.5)" gradientUnits="userSpaceOnUse"><stop stop-color="#FFB300" offset="0"/><stop stop-color="#FFEA00" offset="1"/></linearGradient><path d="M96.2 60.6l5 45.2c0 1.6-1.2 3.3-2.9 4.3-3 1.8-9 4-15.8 4.7-6.5.8-12.2.1-15.6-.9-2-.6-4-2.1-4.4-3.6L57 65.1l39.2-4.5z" fill="url(#f)"/><g fill="#E4A324"><circle cx="73.1" cy="110.9" r=".9"/><circle cx="70.7" cy="108.6" r=".7"/><circle cx="74.7" cy="106.9" r="1.1"/><circle cx="70.7" cy="106.2" r="1.2"/><circle cx="73.8" cy="100.8" r=".9"/><circle cx="71.4" cy="101.5" r=".8"/><circle cx="67.3" cy="96.6" r=".8"/><circle cx="74.7" cy="90.7" r="1.1"/><circle cx="70.3" cy="99" r="1.3"/><circle cx="73.2" cy="94.6" r="1.3"/><circle cx="68.7" cy="93.6" r=".9"/></g><linearGradient id="g" x1="110.2" x2="110.2" y1="64.9" y2="107.7" gradientTransform="rotate(-6.6 88.4 64.5)" gradientUnits="userSpaceOnUse"><stop stop-color="#eee" offset="0"/><stop stop-color="#EAEAEA" offset=".3"/><stop stop-color="#ddd" offset=".6"/><stop stop-color="#C8C8C8" offset=".9"/><stop stop-color="#BDBDBD" offset="1"/></linearGradient><path d="M101.8 87.2l1.9 18.3 2.3 2s1.8-1.9 9-4.5c8.4-3 10-6.6 8.7-21.4-1.4-17-6-18-11.3-18.3-6-.4-9.1-3.4-9.1-3.4l-4 3.6 2.5 23.7zm5.5-4c-.6-5.7-1.1-10.2 3.2-10.7s4.8 4 5.5 9.7 1.1 10.2-3.2 10.7c-4 .4-4.8-4.1-5.5-9.7z" fill="url(#g)"/><path d="M103.4 62.6c1.6 1.1 4.6 2.5 8.9 2.8 4 .2 8 .4 9.4 16.4 1.2 14.5-.4 16.8-7.3 19.3a42.1 42.1 0 0 0-8.3 3.8l-.4-.4-1.9-17.5-2.4-22.7 2-1.7m8.9 32.4h.8c2-.3 4.6-1.4 5.2-5.2.4-2.2 0-5-.2-7.9-.7-5.7-1.4-11.6-7-11.6h-.9c-2 .3-4.6 1.4-5.2 5.2-.4 2.2 0 5 .3 7.9.5 4.9 1.3 11.6 7 11.6m-9-35l-4 3.5 2.5 23.7 2 18.3 2.2 2s1.8-1.9 9-4.5c8.4-3 10-6.6 8.7-21.4-1.4-17-6-18-11.3-18.3-6-.4-9.1-3.3-9.1-3.3zm9 32.9c-3.6 0-4.4-4.4-5-9.7-.6-5.7-1.1-10.2 3.2-10.7h.6c3.7 0 4.3 4.3 4.9 9.7.6 5.6 1.1 10.2-3.2 10.7h-.5z" fill="#424242" opacity=".2"/><path d="M95 104.4c-1.6.4-3.2-.7-3.4-2.4l-2.9-25c-.1-1.4.8-2.7 2.2-3 1.6-.4 3.2.7 3.4 2.4l2.9 25c0 1.4-.8 2.7-2.2 3zm-8 5c-1.6.4-3.2-.7-3.4-2.4l-2.9-25c-.1-1.4.8-2.7 2.2-3 1.6-.4 3.2.7 3.4 2.4l2.9 25c0 1.4-.8 2.7-2.2 3z" fill="#fff" fill-opacity=".7" opacity=".5"/><linearGradient id="h" x1="44.9" x2="108" y1="63.3" y2="57.5" gradientUnits="userSpaceOnUse"><stop stop-color="#eee" offset="0"/><stop stop-color="#F2F2F2" offset=".5"/><stop stop-color="#fff" offset="1"/></linearGradient><path d="M107.2 55.2c-.5-.8-.6-1.7-.4-2.6a7.7 7.7 0 0 0-8.7-9.4 4 4 0 0 1-3.2-.7 7.8 7.8 0 0 0-7.1-1.1c-2-1.3-4.6-2-7.3-1.8-3 .3-5.9 1.8-7.9 4-1.8-1-3.9-1.4-6.1-1.2A13 13 0 0 0 56 50.1h-1a8.7 8.7 0 0 0-8 9.9 5.4 5.4 0 0 0-2 5.4c.5 2 2.3 3.6 4.4 3.8.6 0 1.5 0 2.1-.3l.2-.1a7 7 0 0 0 4.6 3.2c.6.2 1.2.3 1.7.6 3 1.6 1.5 9.8 9 9.1 5-.5 6-4.5 6.2-7.1 0-1.5.6-3 1.2-4.5a1 1 0 0 1 1.6-.5c2 1.4 4.6 2 7.2 1.7 3-.2 5.7-1.6 7.7-3.6 1.3-1.4 3.3-1.8 4.8-1a8 8 0 0 0 5.4.7A8.7 8.7 0 0 0 108 60c.2-1.8-.1-3.4-.8-4.8z" fill="url(#h)"/><path d="M81.6 42.6c1.7 0 3.2.5 4.6 1.3a3 3 0 0 0 2.5.4l1-.3h.6c1 0 2 .3 2.8 1a7.2 7.2 0 0 0 5.5 1.2h.9a4.7 4.7 0 0 1 4.4 5.8c-.4 1.6-.1 3.2.6 4.6.5.9.7 2 .5 3a5.8 5.8 0 0 1-5.5 4.9 5 5 0 0 1-2.2-.5c-1-.5-2-.8-3.2-.8-1.9 0-3.8.8-5.2 2.2a9.5 9.5 0 0 1-6 2.8h-.7c-1.6 0-3.2-.4-4.5-1.2a4 4 0 0 0-6 2c-.6 1.6-1.2 3.4-1.4 5.2-.3 3.8-2 4.3-3.5 4.4a6 6 0 0 1-.5 0c-1.7 0-2.2-.5-3.2-3.5-.7-2-1.4-4.1-3.5-5.2a6 6 0 0 0-1.8-.7 5 5 0 0 1-.5-.2H57c-1-.2-2-.9-2.4-1.8a3 3 0 0 0-4-1.2h-.8c-.7 0-1.4-.6-1.6-1.3-.2-1.1.3-2 1-2.5a3 3 0 0 0 1-2.8V59c-.1-3 2.1-5.5 5-5.8h1a3 3 0 0 0 2.7-1.8 9.7 9.7 0 0 1 8.8-6 8 8 0 0 1 3.7.9 3 3 0 0 0 3.5-.6 9.6 9.6 0 0 1 6-3h.8m0-3h-1c-3.2.3-6 1.8-8 4a11.4 11.4 0 0 0-6.1-1.2c-4.7.4-8.7 3.6-10.4 7.7h-.5a8.7 8.7 0 0 0-8.4 9.8 5.4 5.4 0 0 0-2 5.4 4.9 4.9 0 0 0 4.9 3.8 4 4 0 0 0 1.5-.3h.3a6.4 6.4 0 0 0 4.5 3.1l1.8.6c2.8 1.6 1.6 9.2 8 9.2h1c5-.5 5.9-4.6 6.1-7.2.1-1.5.6-3 1.2-4.4a1 1 0 0 1 1.6-.5 11.4 11.4 0 0 0 7.2 1.7c3-.3 5.7-1.7 7.7-3.7.9-.9 2-1.4 3.1-1.4a4 4 0 0 1 1.8.5 7.8 7.8 0 0 0 5.3.7A8.7 8.7 0 0 0 108 60a8 8 0 0 0-.8-4.7c-.5-.8-.6-1.7-.4-2.6a7.7 7.7 0 0 0-7.2-9.5h-1.4a6 6 0 0 1-.8.1c-1 0-1.8-.2-2.5-.8a7.8 7.8 0 0 0-7.1-1 11.1 11.1 0 0 0-6.2-2z" fill="#424242" opacity=".2"/><g fill="#E4A324"><circle cx="41.3" cy="67.1" r=".9"/><circle cx="43" cy="69.9" r=".7"/><circle cx="38.7" cy="70.6" r="1.1"/><circle cx="42.5" cy="72.3" r="1.2"/><circle cx="38.1" cy="76.7" r=".9"/><circle cx="40.6" cy="76.6" r=".8"/><circle cx="43.4" cy="82.4" r=".8"/><circle cx="34.7" cy="86.3" r="1.1"/><circle cx="41" cy="79.4" r="1.3"/><circle cx="37.1" cy="82.9" r="1.3"/><circle cx="41.2" cy="85" r=".9"/></g></svg>