<svg viewBox="0 0 128 128" xmlns="http://www.w3.org/2000/svg"><linearGradient id="a" x1="56.1" x2="56.1" y1="34.8" y2="123.1" gradientUnits="userSpaceOnUse"><stop stop-color="#eee" offset="0"/><stop stop-color="#EAEAEA" offset=".3"/><stop stop-color="#ddd" offset=".6"/><stop stop-color="#C8C8C8" offset=".9"/><stop stop-color="#BDBDBD" offset="1"/></linearGradient><path d="M86.4 34.5H20.7L22 107c0 12.2 21.4 16.8 34.5 16.8s34-4.7 34-16.9l1-72.4h-5z" fill="url(#a)"/><path d="M23.8 37.5h64.6l-.8 69.4c0 5.1-5.6 8.4-10.3 10.2a62 62 0 0 1-41.9 0c-4.8-1.7-10.4-5-10.4-10.1l-1.2-69.5m-3-3L22 107c0 12.2 21.4 16.8 34.5 16.8s34-4.7 34-16.9l1-72.4H20.6zm70.7 0z" fill="#424242" opacity=".2"/><linearGradient id="b" x1="56.1" x2="56.1" y1="38.9" y2="121.1" gradientUnits="userSpaceOnUse"><stop stop-color="#FFB300" offset="0"/><stop stop-color="#FFEA00" offset="1"/></linearGradient><path d="M84.3 36l-.3 66.2c-.3 2.3-2.2 4.5-4.7 5.7-4.5 2-13.4 4-23.3 4-9.4 0-17.4-1.8-22-3.7-3-1.3-5.3-3.8-5.7-6L28 36h56.4z" fill="url(#b)"/><g fill="#E4A324"><circle cx="40.2" cy="101.9" r="1.4"/><circle cx="37.2" cy="98.2" r=".9"/><circle cx="43.2" cy="96.5" r="1.6"/><circle cx="37.5" cy="94.8" r="1.7"/><circle cx="42.9" cy="87.6" r="1.4"/><circle cx="39.4" cy="88.3" r="1.2"/><circle cx="34.3" cy="80.5" r="1.2"/><circle cx="45.8" cy="73.4" r="1.5"/><circle cx="38.2" cy="84.4" r="1.9"/><circle cx="43" cy="78.7" r="1.8"/><circle cx="36.8" cy="76.5" r="1.4"/></g><linearGradient id="c" x1="103.9" x2="103.9" y1="41.9" y2="103.2" gradientUnits="userSpaceOnUse"><stop stop-color="#eee" offset="0"/><stop stop-color="#EAEAEA" offset=".3"/><stop stop-color="#ddd" offset=".6"/><stop stop-color="#C8C8C8" offset=".9"/><stop stop-color="#BDBDBD" offset="1"/></linearGradient><path d="M88 75.8l-.3 26.4 2.9 3.3s3-2.4 13.7-5c12.3-2.9 15.2-7.7 15.8-29 .8-24.4-5.7-26.7-13.1-28-8.6-1.5-12.4-6.2-12.4-6.2l-6.4 4.3-.3 34.2zm8.5-4.8c0-8.1 0-14.7 6.2-14.7S109 62.9 109 71s0 14.7-6.3 14.7c-5.8 0-6.2-6.6-6.2-14.7z" fill="url(#c)"/><path d="M94.3 41.1c2.2 1.8 6.2 4.3 12.2 5.4 3.7.6 6 1.4 7.6 4 2.4 3.6 3.3 10.5 3 20.9-.6 20.9-3.3 23.8-13.5 26.2-6.4 1.5-10.2 3-12.4 4l-.5-.5.2-25.2.3-32.7 3-2m8.5 47.5c3 0 6.8-1.1 8.4-6.5.9-3 .9-7 .9-11.2s0-8.2-1-11.3c-1.5-5.3-5.3-6.5-8.3-6.5s-6.7 1.2-8.3 6.5c-.9 3.1-.9 7-.9 11.3 0 7 0 17.7 9.2 17.7m-8.1-51.4l-6.4 4.3-.3 34.2-.2 26.4 2.9 3.3s3-2.4 13.7-5c12.3-2.9 15.2-7.7 15.8-29 .8-24.4-5.7-26.7-13.1-28-8.6-1.5-12.4-6.2-12.4-6.2zm8.1 48.4c-5.8 0-6.2-6.6-6.2-14.7s0-14.8 6.2-14.8S109 62.9 109 71s0 14.7-6.3 14.7z" fill="#424242" opacity=".2"/><path d="M74.8 98.2a4 4 0 0 1-4.5-4v-36a4 4 0 1 1 8 0v36a4 4 0 0 1-3.5 4zm-13.9 5a4 4 0 0 1-4.6-4v-36a4 4 0 1 1 8 0v36a4 4 0 0 1-3.4 4z" fill="#fff" fill-opacity=".7" opacity=".5"/><linearGradient id="d" x1="12" x2="97" y1="32.5" y2="32.5" gradientUnits="userSpaceOnUse"><stop stop-color="#eee" offset="0"/><stop stop-color="#F2F2F2" offset=".5"/><stop stop-color="#fff" offset="1"/></linearGradient><path d="M96 29.3a5 5 0 0 1-.4-3.5 9 9 0 0 0 .4-3.3A11.1 11.1 0 0 0 84.5 12c-1.6 0-3.2-.4-4.4-1.4a11 11 0 0 0-9.4-2.3 15.9 15.9 0 0 0-20.5 1A15.8 15.8 0 0 0 27.6 16H26a11 11 0 0 0-11 12.2A7 7 0 0 0 17.8 41c1 .2 2 .2 3 0 2.2-1 2.2-2 2.2-2 0 2.6.9 5 3.4 6.3.9.5 2 .8 2.8 1.3C33.1 49.1 30.7 60 40.8 60c6.7 0 8.2-5.3 8.6-8.8.3-2 1-4 2-6 .3-.7 1.3-1 2-.4a16 16 0 0 0 20.2-.8c1.8-1.6 4.5-2 6.6-.7a11 11 0 0 0 15.7-14z" fill="url(#d)"/><path d="M61 8c2.8 0 5.5 1 7.8 2.6a3 3 0 0 0 2.5.6L73 11a8 8 0 0 1 5.2 2 9.1 9.1 0 0 0 6 2H86a8 8 0 0 1 6.7 10 8 8 0 0 0 .5 5.6 8 8 0 0 1-11.4 10.2 8.3 8.3 0 0 0-4.4-1.3c-2.1 0-4.2.8-5.8 2.3a13 13 0 0 1-16.4.6c-.7-.6-1.7-.9-2.7-.9-1.7 0-3.2 1-4 2.6-.9 2-1.8 4.3-2 6.7-.7 5.5-3.3 6.2-5.8 6.2-4 0-4.8-2.1-6-6.2-.8-2.6-1.6-5.2-3.9-6.7-.8-.5-1.5-.8-2.2-1l-.9-.4c-.4-.3-1.7-.9-1.7-3.7a3 3 0 0 0-5.7-1.3l-.6.3H19a5 5 0 0 1-.9 0 4 4 0 1 1-1.5-7.2 3 3 0 0 0 1.4-3V27a8 8 0 0 1 9.6-7.9 3 3 0 0 0 2.7-1.7 13 13 0 0 1 18.3-5.6c.5.3 1 .4 1.6.4a3 3 0 0 0 2-.7A13 13 0 0 1 61 8m0-3c-4.2 0-8 1.6-10.8 4.3A15.8 15.8 0 0 0 27.6 16H26a11 11 0 0 0-11 12.2A7 7 0 0 0 17.8 41l1.4.1c.5 0 1 0 1.5-.2C23 40 23 39 23 39c0 2.6.9 5 3.4 6.3.9.5 2 .8 2.8 1.3C33.1 49.1 30.7 60 40.8 60c6.7 0 8.2-5.3 8.6-8.8.3-2 1-4 2-6 .1-.4.6-.7 1.1-.7.3 0 .7.1 1 .3a16 16 0 0 0 20-.8c1.1-1 2.5-1.5 3.9-1.5 1 0 2 .3 2.8.8a11 11 0 0 0 7.1 1.6A11 11 0 0 0 96 29.3a5 5 0 0 1-.3-3.5c.3-1 .4-2.1.4-3.3A11.1 11.1 0 0 0 85 12h-.9a6 6 0 0 1-4-1.4 11 11 0 0 0-9.4-2.3C68 6.3 64.7 5 61 5z" fill="#424242" opacity=".2"/></svg>