<svg viewBox="0 0 128 128" xmlns="http://www.w3.org/2000/svg"><radialGradient id="a" cx="63.202" cy="90.162" r="64.375" gradientTransform="matrix(1 0 0 .6458 0 31.931)" gradientUnits="userSpaceOnUse"><stop stop-color="#F8981D" offset=".082"/><stop stop-color="#F89A20" offset=".228"/><stop stop-color="#F9A02A" offset=".371"/><stop stop-color="#FBAC3D" offset=".512"/><stop stop-color="#FCB64E" offset=".606"/></radialGradient><path d="M113.28 92.98c.01-.19.02-.39.02-.58s-.02-.39-.02-.58V60.13H14.62v34.5h.16C16.57 111.04 37.9 124 63.97 124s47.41-12.96 49.19-29.37h.11v-1.65z" fill="url(#a)"/><path d="M111.28 62.13v29.75c0 .1.01.19.01.29 0 .08.01.16.01.24s-.01.16-.01.24c-.01.1-.01.19-.01.29v1.04c-.05.14-.08.29-.1.45C109.49 109.88 88.76 122 63.97 122s-45.52-12.12-47.21-27.59c-.02-.2-.07-.39-.15-.57V62.13h94.67m2-2H14.62v34.5h.16C16.57 111.04 37.9 124 63.97 124s47.41-12.96 49.19-29.37h.11v-1.65c.01-.19.02-.39.02-.58 0-.2-.02-.39-.02-.58V60.13h.01z" fill="#434343" opacity=".2"/><radialGradient id="b" cx="64.38" cy="69.544" r="59.663" gradientTransform="matrix(1 0 0 .5577 0 30.762)" gradientUnits="userSpaceOnUse"><stop stop-color="#FFE0B2" offset=".051"/><stop stop-color="#FFDFAF" offset=".321"/><stop stop-color="#FFDCA7" offset=".525"/><stop stop-color="#FFD69A" offset=".707"/><stop stop-color="#FFCF87" offset=".876"/><stop stop-color="#FECC81" offset=".927"/></radialGradient><path d="M115.42 57.03H12.5v22.34s2.91 12.65 11.02 10.95c10.5-2.21 9.25 11.67 21.91 13.48 14.73 2.1 13.43-8.01 28.52-1.43 15.68 6.84 18.97-11.14 28.52-9.12 14.83 3.14 12.96-13.87 12.96-13.87V57.03z" fill="url(#b)"/><radialGradient id="c" cx="64.532" cy="56.85" r="55.041" gradientTransform="matrix(1 0 0 .5755 0 24.135)" gradientUnits="userSpaceOnUse"><stop stop-color="#FFF3E1" offset=".344"/><stop stop-color="#FFF2DE" offset=".554"/><stop stop-color="#FFEFD6" offset=".712"/><stop stop-color="#FFE9C8" offset=".854"/><stop stop-color="#FFE1B4" offset=".985"/><stop stop-color="#FFE0B2" offset="1"/></radialGradient><ellipse cx="63.96" cy="58.28" rx="51.46" ry="31.51" fill="url(#c)"/><path d="M63.96 28.77c13.04 0 25.36 3.03 34.69 8.55 9.02 5.33 14.25 12.37 14.72 19.85.01.11.02.22.05.33v21.89c0 .07 0 .15.01.22.2 1.81.16 7.14-2.4 9.99-1.24 1.38-2.93 2.05-5.17 2.05-.91 0-1.92-.12-3-.34-.63-.13-1.27-.2-1.9-.2-4 0-6.98 2.7-9.86 5.31-3.14 2.84-6.1 5.53-10.47 5.53-1.79 0-3.78-.47-5.9-1.39-3.79-1.65-6.84-2.42-9.61-2.42-3.1 0-5.33.99-7.49 1.94-2.37 1.05-4.61 2.04-8.34 2.04-1.11 0-2.32-.09-3.59-.27-5.4-.77-7.89-4.08-10.3-7.28-2.4-3.17-4.87-6.46-9.76-6.46-.8 0-1.66.09-2.54.28-.36.08-.72.12-1.06.12-4.8 0-7.18-8-7.54-9.36V57.48c.02-.1.04-.21.05-.32.47-7.47 5.7-14.52 14.72-19.85 9.33-5.51 21.65-8.54 34.69-8.54m0-2c-27.74 0-50.34 13.44-51.41 30.26h-.05v22.36s2.55 11.11 9.54 11.11c.47 0 .96-.05 1.47-.16.77-.16 1.48-.24 2.13-.24 8.26 0 8.05 12.04 19.78 13.71 1.43.2 2.72.29 3.88.29 7.75 0 10.06-3.98 15.83-3.98 2.24 0 5 .6 8.81 2.26 2.53 1.1 4.74 1.56 6.7 1.56 9.55 0 13.32-10.84 20.33-10.85.48 0 .97.05 1.49.16 1.25.26 2.38.39 3.41.39 11.12 0 9.55-14.26 9.55-14.26V57.03h-.05C114.3 40.21 91.7 26.77 63.96 26.77z" fill="#434343" opacity=".2"/><radialGradient id="d" cx="75.894" cy="35.313" r="7.121" gradientUnits="userSpaceOnUse"><stop stop-color="#EF5451" offset="0"/><stop stop-color="#E53A35" offset=".784"/><stop stop-color="#C62828" offset="1"/></radialGradient><path d="M85.56 37.93c0 4.23-3.43 5.37-7.65 5.37s-7.65-1.14-7.65-5.37 3.43-7.65 7.65-7.65 7.65 3.43 7.65 7.65z" fill="url(#d)"/><radialGradient id="e" cx="48.086" cy="35.313" r="7.121" gradientUnits="userSpaceOnUse"><stop stop-color="#EF5451" offset="0"/><stop stop-color="#E53A35" offset=".784"/><stop stop-color="#C62828" offset="1"/></radialGradient><path d="M57.75 37.93c0 4.23-3.43 5.37-7.65 5.37s-7.65-1.14-7.65-5.37 3.43-7.65 7.65-7.65 7.65 3.43 7.65 7.65z" fill="url(#e)"/><path fill="#44B3E6" d="M57.67 30.08h12.22V53.4H57.67z"/><ellipse cx="63.78" cy="30.59" rx="6.16" ry="3.77" fill="#84D2F6"/><ellipse cx="63.78" cy="52.81" rx="6.16" ry="3.77" fill="#44B3E6"/><path d="M63.78 27.82c2.85 0 4.83 1.26 5.1 2.48 0 .01.01.03.01.04 0 .02 0 .05.01.07.01.05.02.11.03.18l-.03.18c-.01.04-.01.09-.01.14V52.5c0 .05 0 .09.01.14s.02.11.03.18l-.03.18c-.01.04-.01.07-.01.11-.01.02-.01.03-.01.05-.31 1.2-2.3 2.43-5.09 2.43-2.8 0-4.79-1.24-5.1-2.43 0-.02-.01-.03-.01-.05 0-.04 0-.08-.01-.11-.01-.05-.02-.11-.03-.18l.03-.18c.01-.04.01-.09.01-.14V30.9c0-.05 0-.09-.01-.14s-.02-.11-.03-.18l.03-.18c0-.02.01-.05.01-.07 0-.01.01-.03.01-.04.27-1.21 2.25-2.47 5.09-2.47m0-1c-3.12 0-5.66 1.42-6.08 3.26h-.03v.2c-.01.11-.05.21-.05.31 0 .11.04.21.05.31v21.59c-.01.11-.05.21-.05.31 0 .11.04.21.05.31v.28h.05c.46 1.8 2.99 3.18 6.06 3.18s5.6-1.38 6.06-3.18h.05v-.28c.01-.1.05-.21.05-.31 0-.11-.04-.21-.05-.31V30.9c.01-.1.05-.21.05-.31 0-.11-.04-.21-.05-.31v-.2h-.03c-.41-1.84-2.96-3.26-6.08-3.26z" fill="#434343" opacity=".2"/><radialGradient id="f" cx="60.617" cy="25.662" r="11.678" gradientTransform="matrix(1.0449 0 0 1.7881 1.115 -19.416)" gradientUnits="userSpaceOnUse"><stop stop-color="#F78F1E" offset=".236"/><stop stop-color="#FCB316" offset=".494"/><stop stop-color="#FFD740" offset=".761"/></radialGradient><path d="M71.9 20.55c0 7.39-4.53 10.23-7.9 10.23-3.36 0-7.9-2.84-7.9-10.23S60.64 4 64 4s7.9 9.15 7.9 16.55z" fill="url(#f)"/><radialGradient id="g" cx="45.375" cy="68.364" r="7.121" gradientUnits="userSpaceOnUse"><stop stop-color="#EF5451" offset="0"/><stop stop-color="#E53A35" offset=".784"/><stop stop-color="#C62828" offset="1"/></radialGradient><path d="M55.04 70.98c0 4.23-3.43 5.37-7.65 5.37s-7.65-1.14-7.65-5.37 3.43-7.65 7.65-7.65 7.65 3.43 7.65 7.65z" fill="url(#g)"/><radialGradient id="h" cx="27.889" cy="53.295" r="7.121" gradientUnits="userSpaceOnUse"><stop stop-color="#EF5451" offset="0"/><stop stop-color="#E53A35" offset=".784"/><stop stop-color="#C62828" offset="1"/></radialGradient><path d="M37.55 55.92c0 4.23-3.43 5.37-7.65 5.37s-7.65-1.14-7.65-5.37a7.65 7.65 0 1 1 15.3 0z" fill="url(#h)"/><radialGradient id="i" cx="97.692" cy="54.415" r="7.121" gradientUnits="userSpaceOnUse"><stop stop-color="#EF5451" offset="0"/><stop stop-color="#E53A35" offset=".784"/><stop stop-color="#C62828" offset="1"/></radialGradient><path d="M107.35 57.04c0 4.23-3.43 5.37-7.65 5.37-4.23 0-7.65-1.14-7.65-5.37s3.43-7.65 7.65-7.65c4.23-.01 7.65 3.42 7.65 7.65z" fill="url(#i)"/><path fill="#44B3E6" d="M32.62 39h12.22v23.32H32.62z"/><ellipse cx="38.73" cy="39.51" rx="6.16" ry="3.77" fill="#84D2F6"/><ellipse cx="38.73" cy="61.73" rx="6.16" ry="3.77" fill="#44B3E6"/><path d="M38.73 36.74c2.85 0 4.83 1.26 5.1 2.48 0 .01.01.03.01.04 0 .02 0 .05.01.07.01.05.02.11.03.18l-.03.18c-.01.04-.01.09-.01.14v21.59c0 .05 0 .09.01.14s.02.11.03.18l-.03.18c-.01.04-.01.07-.01.11-.01.02-.01.03-.01.05-.31 1.2-2.3 2.43-5.09 2.43-2.8 0-4.79-1.24-5.1-2.43 0-.02-.01-.03-.01-.05 0-.04 0-.08-.01-.11-.01-.05-.02-.11-.03-.18l.03-.18c.01-.04.01-.09.01-.14v-21.6c0-.05 0-.09-.01-.14s-.02-.11-.03-.18l.03-.18c0-.02.01-.05.01-.07 0-.01.01-.03.01-.04.26-1.21 2.24-2.47 5.09-2.47m0-1c-3.12 0-5.66 1.42-6.08 3.26h-.03v.2c-.01.11-.05.21-.05.31 0 .11.04.21.05.31v21.59c-.01.11-.05.21-.05.31s.04.21.05.31v.28h.05c.46 1.8 2.99 3.18 6.06 3.18s5.6-1.38 6.06-3.18h.05v-.28c.01-.1.05-.21.05-.31 0-.11-.04-.21-.05-.31V39.82c.01-.1.05-.21.05-.31 0-.11-.04-.21-.05-.31V39h-.04c-.41-1.84-2.96-3.26-6.07-3.26z" fill="#434343" opacity=".2"/><radialGradient id="j" cx="36.147" cy="35.352" r="11.678" gradientTransform="matrix(1.0449 0 0 1.7881 1.115 -27.908)" gradientUnits="userSpaceOnUse"><stop stop-color="#F78F1E" offset=".236"/><stop stop-color="#FCB316" offset=".494"/><stop stop-color="#FFD740" offset=".761"/></radialGradient><path d="M46.84 29.47c0 7.39-4.53 10.23-7.9 10.23s-7.9-2.84-7.9-10.23 4.53-16.55 7.9-16.55 7.9 9.15 7.9 16.55z" fill="url(#j)"/><path fill="#44B3E6" d="M82.87 39h12.22v23.32H82.87z"/><ellipse cx="88.98" cy="39.51" rx="6.16" ry="3.77" fill="#84D2F6"/><ellipse cx="88.98" cy="61.73" rx="6.16" ry="3.77" fill="#44B3E6"/><path d="M88.98 36.74c2.85 0 4.83 1.26 5.1 2.48 0 .01.01.03.01.04 0 .02 0 .05.01.07.01.05.02.11.03.18l-.03.18c-.01.04-.01.09-.01.14v21.59c0 .05 0 .09.01.14s.02.11.03.18l-.03.18c-.01.04-.01.07-.01.11-.01.02-.01.03-.01.05-.31 1.2-2.3 2.43-5.09 2.43-2.8 0-4.79-1.24-5.1-2.43 0-.02-.01-.03-.01-.05 0-.04 0-.08-.01-.11-.01-.05-.02-.11-.03-.18l.03-.18c.01-.04.01-.09.01-.14v-21.6c0-.05 0-.09-.01-.14s-.02-.11-.03-.18l.03-.18c0-.02.01-.05.01-.07 0-.01.01-.03.01-.04.26-1.21 2.24-2.47 5.09-2.47m0-1c-3.12 0-5.66 1.42-6.08 3.26h-.03v.2c-.01.11-.05.21-.05.31 0 .11.04.21.05.31v21.59c-.01.11-.05.21-.05.31s.04.21.05.31v.28h.05c.46 1.8 2.99 3.18 6.06 3.18s5.6-1.38 6.06-3.18h.05v-.28c.01-.1.05-.21.05-.31 0-.11-.04-.21-.05-.31V39.82c.01-.1.05-.21.05-.31 0-.11-.04-.21-.05-.31V39h-.03c-.42-1.84-2.97-3.26-6.08-3.26z" fill="#434343" opacity=".2"/><radialGradient id="k" cx="84.729" cy="35.446" r="11.678" gradientTransform="matrix(1.0449 0 0 1.7881 1.115 -27.99)" gradientUnits="userSpaceOnUse"><stop stop-color="#F78F1E" offset=".236"/><stop stop-color="#FCB316" offset=".494"/><stop stop-color="#FFD740" offset=".761"/></radialGradient><path d="M97.09 29.47c0 7.39-4.53 10.23-7.9 10.23-3.36 0-7.9-2.84-7.9-10.23s4.53-16.55 7.9-16.55 7.9 9.15 7.9 16.55z" fill="url(#k)"/><radialGradient id="l" cx="79.652" cy="67.916" r="7.121" gradientUnits="userSpaceOnUse"><stop stop-color="#EF5451" offset="0"/><stop stop-color="#E53A35" offset=".784"/><stop stop-color="#C62828" offset="1"/></radialGradient><path d="M89.31 70.54c0 4.23-3.43 5.37-7.65 5.37-4.23 0-7.65-1.14-7.65-5.37s3.43-7.65 7.65-7.65c4.23-.01 7.65 3.42 7.65 7.65z" fill="url(#l)"/></svg>