<svg viewBox="0 0 128 128" xmlns="http://www.w3.org/2000/svg"><linearGradient id="a" x1="64" x2="64" y1="-33" y2="74.7" gradientUnits="userSpaceOnUse"><stop stop-color="#1976D2" offset=".3"/><stop stop-color="#0D47A1" offset="1"/></linearGradient><path fill="url(#a)" d="M4 4h120v120H4z"/><radialGradient id="b" cx="66" cy="66.8" r="54.2" gradientTransform="matrix(-1.0236 0 0 -1 130.9 128.4)" gradientUnits="userSpaceOnUse"><stop stop-color="#FFF59D" offset=".2"/><stop stop-color="#FFEE58" offset="1"/></radialGradient><path d="M14.6 113.3l36-35.4c.7-.7.1-1.9-.8-1.8l-36.6 1.8 38.2-9-40-22 40.5 14.7c.9.3 1.7-.6 1.3-1.5l-23-41.5 28.6 37.8c.6.8 1.9.4 2-.5L63 5.2c0-1.3 2-1.3 2.1 0l2.4 50.6c0 1 1.4 1.4 2 .6L98 19 75.2 60c-.5 1 .4 1.9 1.3 1.6l22-7.5c1.4-.5 2.3 1.4 1 2.2L77 68.9l38.2 9L78.8 76c-1 0-1.6 1-.9 1.8l25.4 25.8-29.8-20.8c-.8-.6-1.9 0-1.7 1l7 35-14.5-35.6-9.5 23.4c-.5 1.4-2.7.8-2.4-.7l4.4-22a1 1 0 0 0-1.7-1.1l-40.4 30.4z" fill="url(#b)"/><path d="M63 101.2c.3-2.5 2-6.8 2-6.8s1.8 4.2 2.1 6.8c.4 2.5-.9 3.8-2 3.8s-2.3-1.4-2-3.9zm-16.4-4.9c1.6-2 5.3-4.8 5.3-4.8s-.7 4.5-1.8 6.9c-1 2.3-2.8 2.8-3.8 2.2-1-.6-1.2-2.4.3-4.3zM34.5 82.9c2.4-1 7-1.7 7-1.7s-2.8 3.6-5 5.2c-2 1.5-3.8 1.1-4.4.1s.1-2.6 2.4-3.6zM30 64c2.5.4 6.8 2.4 6.8 2.4s-4.4 1.4-7 1.6c-2.7.1-4-1.2-3.9-2.3.1-1.1 1.7-2.2 4.1-1.7zm9.1-17.6c1.8 1.8 4.3 5.6 4.3 5.6s-4.5-1-6.8-2.4-2.6-3-1.9-4c.7-.8 2.6-.9 4.4.8zM57 36c.4 2.5.1 7 .1 7s-3-3.5-4-5.8-.3-4 .8-4.3c1.1-.3 2.7.7 3.1 3.1zm20 1.1c-1.1 2.3-4 5.9-4 5.9s-.4-4.6 0-7.1 2.2-3.4 3.2-3c1.1.3 1.8 2 .8 4.2zM93.3 50c-2.1 1.5-6.5 3-6.5 3s2-4 3.8-6 3.6-1.8 4.4-1 .4 2.7-1.7 4zm6.7 18c-2.5-.1-7-1.3-7-1.3s4.1-2.2 6.7-2.7c2.6-.6 4 .5 4.1 1.6s-1.2 2.4-3.7 2.4zm-6 18c-2.2-1.3-5.4-4.7-5.4-4.7s4.7.3 7.2 1.1 3 2.6 2.6 3.6c-.5 1-2.4 1.4-4.5 0zM80.3 97.9C79.4 95.6 79 91 79 91s3.6 3 5 5c1.6 2.2 1 3.9 0 4.4-1 .5-2.7-.2-3.6-2.5z" fill="#FFF9C4"/><circle cx="31" cy="19.3" r="8" fill="#fff"/><circle cx="10" cy="46.3" r="5" fill="#fff"/><circle cx="14" cy="77.3" r="5" fill="#fff"/><circle cx="16" cy="112.3" r="7" fill="#fff"/><circle cx="53" cy="109.3" r="5" fill="#fff"/><circle cx="79" cy="118.3" r="5" fill="#fff"/><circle cx="106.2" cy="105.5" r="8" fill="#fff"/><circle cx="116" cy="78.3" r="5" fill="#fff"/><circle cx="106.7" cy="52.7" r="7.7" fill="#fff"/><circle cx="97" cy="21.3" r="5" fill="#fff"/><path d="M121 7v114H7V7h114m3-3H4v120h120V4z" fill="#424242" opacity=".2"/></svg>