<svg viewBox="0 0 128 128" xmlns="http://www.w3.org/2000/svg"><path d="M68.5 24.3H60c-.1-7.5-4.1-10.2-6.7-13-3.5-3.7-.8-7.2 4.5-7.2h.2a7 7 0 0 1 3.4.9c10 5.6 7.1 19.3 7.1 19.3z" fill="#2E7D32"/><path d="M58 7.1a4 4 0 0 1 2 .5c3.2 1.8 5.1 5 5.7 9.4.3 1.6.3 3 .2 4.3h-3.2a18 18 0 0 0-6-10.9l-1.2-1.1c-.7-.7-.8-1.2-.8-1.3.1-.2 1-.9 3.1-.9h.2m0-3h-.2c-5.3 0-8 3.5-4.5 7.3 2.6 2.7 6.6 5.4 6.7 12.9h8.5s3-13.7-7.1-19.3A7 7 0 0 0 58 4z" fill="#424242" opacity=".2"/><radialGradient id="a" cx="33.7" cy="38.9" r="43.9" gradientUnits="userSpaceOnUse"><stop stop-color="#FF9800" offset=".3"/><stop stop-color="#F57C00" offset=".9"/></radialGradient><ellipse cx="38.1" cy="71.9" rx="34.1" ry="51.9" fill="url(#a)"/><path d="M38 23c8.1 0 15.8 5 21.6 13.8 6.2 9.4 9.5 21.8 9.5 35s-3.3 25.8-9.5 35.1c-5.8 9-13.5 13.8-21.5 13.8s-15.8-4.9-21.6-13.8C10.4 97.6 7 85.1 7 71.9s3.4-25.7 9.5-35C22.3 27.8 30 23 38 23m0-3C19.2 20 4 43.2 4 71.9s15.3 51.9 34 51.9 34.1-23.3 34.1-52S57 20 38.1 20z" fill="#424242" opacity=".2"/><radialGradient id="b" cx="95.1" cy="39.9" r="43.9" gradientUnits="userSpaceOnUse"><stop stop-color="#FF9800" offset=".3"/><stop stop-color="#F57C00" offset=".9"/></radialGradient><ellipse cx="90.1" cy="71.9" rx="34.1" ry="51.9" fill="url(#b)"/><path d="M90 23c8.1 0 15.8 5 21.6 13.8 6.2 9.4 9.5 21.8 9.5 35s-3.3 25.8-9.5 35.1c-5.8 9-13.5 13.8-21.5 13.8s-15.8-4.9-21.6-13.8c-6.1-9.3-9.5-21.8-9.5-35s3.4-25.7 9.5-35C74.3 27.8 82 23 90 23m0-3c-18.7 0-34 23.2-34 51.9s15.3 51.9 34 51.9 34.1-23.3 34.1-52S109 20 90.1 20z" fill="#424242" opacity=".2"/><radialGradient id="c" cx="65.1" cy="38.9" r="44.7" gradientTransform="matrix(1 0 0 1.3395 0 -13.2)" gradientUnits="userSpaceOnUse"><stop stop-color="#FF9800" offset=".3"/><stop stop-color="#F57C00" offset=".9"/></radialGradient><ellipse cx="64.1" cy="71.9" rx="36.1" ry="51.9" fill="url(#c)"/><path d="M71 74.8H57.6c-1 0-1.5-1-1.1-1.7L62.6 62c.7-1.4 2.4-1.4 3.2 0l6.4 11c.4.8-.2 1.7-1.1 1.7z"/><path d="M64.1 23c18.3 0 33.1 22 33.1 48.9s-14.8 48.9-33 48.9-33.2-22-33.2-49S45.9 23 64.1 23m0-3C44.1 20 28 43.2 28 71.9s16.2 51.9 36.1 51.9 36.1-23.3 36.1-52S84.1 20 64.2 20z" fill="#424242" opacity=".2"/><path d="M47.3 63.7H31.1c-2 0-3.3-1.8-2.4-3.2l8-13.6c1-1.6 3.7-1.6 4.7 0l8.3 13.5c1 1.5-.4 3.3-2.4 3.3zm50.7 0H81.7c-2 0-3.2-1.8-2.4-3.2l8-13.6c1-1.6 3.8-1.6 4.8 0l8.3 13.5c.9 1.5-.4 3.3-2.4 3.3z"/><path d="M62.6 70.4c-.3 0-.4-.2-.3-.4l1.6-2.8c.1-.4.6-.4.8 0l1.6 2.8c0 .2 0 .4-.3.4" fill="#FFB74D" opacity=".3"/><path d="M90 100v-6.6h-6.9V104a42.5 42.5 0 0 1-17.2 3.6c-2.4 0-4.8 0-7.2-.3V97h-9.3v8.4a36.8 36.8 0 0 1-27.3-28l9.7 1.7v8.3l10.6 3V81c9.2 1.4 16 2 23 2v8h8.8v-8.6c8-.8 17.6-2.4 31.5-5-1.7 9-7.6 17.1-15.7 22.6z"/></svg>