<svg viewBox="0 0 128 128" xmlns="http://www.w3.org/2000/svg"><path d="M59.8 102.1c-3 4.9 2.4 10.1-1.8 14-7.8 7-17.4-12.1-29.5 7.4" fill="none" stroke="#795548" stroke-miterlimit="10" stroke-width="3"/><path d="M67.5 107.8h-1c-4.7.5-9.4 0-13.8-1.7l.3-.8c1.9-5 4.8-9.5 8.7-13.1.8 5.2 2.6 10.2 5.3 14.7l.5.9z" fill="#F4511E"/><path d="M60 98.5a44 44 0 0 0 2.5 6.5c-2 0-3.9-.3-5.8-.8 1-2 2-3.9 3.3-5.7m1.7-6.3a34.6 34.6 0 0 0-8.7 13.1l-.3.8a31.8 31.8 0 0 0 13.7 1.8l1-.1-.4-.9a40.7 40.7 0 0 1-5.3-14.7z" fill="#424242" opacity=".2"/><radialGradient id="a" cx="59" cy="25.3" r="46.1" gradientTransform="rotate(13.4 63.8 61.3)" gradientUnits="userSpaceOnUse"><stop stop-color="#FF7043" offset=".3"/><stop stop-color="#FE6C3F" offset=".4"/><stop stop-color="#FA6232" offset=".6"/><stop stop-color="#F4511E" offset=".8"/></radialGradient><path d="M111.2 51.5C103.6 83.3 72.5 97.8 61 95S29 63 36 33.6a38.6 38.6 0 0 1 75.2 18z" fill="url(#a)"/><path d="M73 4v3h.2a35.6 35.6 0 0 1 35 43.9A56.2 56.2 0 0 1 88.1 82a43 43 0 0 1-24 10.2c-.9 0-1.7 0-2.4-.2-4.4-1-11.8-8-17.5-19.1A57.8 57.8 0 0 1 39 34.3 35.2 35.2 0 0 1 73.2 7L73 4m.5 0a38.6 38.6 0 0 0-37.6 29.6C29 63 49.6 92.3 61 95c1 .2 2 .4 3.1.4 13.2 0 40-14.6 47-43.8A38.6 38.6 0 0 0 73.5 4z" fill="#424242" opacity=".2"/><path d="M63.3 98.1L58 97a3 3 0 0 1 1.4-6l5.2 1.3a3 3 0 0 1-1.4 6z" fill="#BF360C"/><path d="M58.8 92.9h.3l5.1 1.2.7.5c.2.2.1.5 0 .8a1 1 0 0 1-1.2.8l-5.1-1.3a1 1 0 0 1-.8-1.2 1 1 0 0 1 1-.8m0-2a3 3 0 0 0-.7 6l5.2 1.2h.7a3 3 0 0 0 .7-6L59.5 91l-.7-.1z" fill="#424242" opacity=".2"/></svg>