<svg viewBox="0 0 128 128" xmlns="http://www.w3.org/2000/svg" xmlns:xlink="http://www.w3.org/1999/xlink"><defs><path id="a" d="M4.25 4h120v120h-120z"/></defs><clipPath id="b"><use xlink:href="#a"/></clipPath><g clip-path="url(#b)"><path d="M22.94 31.64c-4.12-4.93-3.32-12.77-3.32-12.77s7.47.14 11.59 5.07 3.32 12.77 3.32 12.77-7.48-.14-11.59-5.07z" fill="#9CCC65"/><linearGradient id="c" x1="44.004" x2="36.545" y1="18.519" y2="115.78" gradientUnits="userSpaceOnUse"><stop stop-color="#AED581" offset=".09"/><stop stop-color="#8BC34A" offset=".42"/></linearGradient><path d="M41.42-14.98c-6.5 25.02-8.63 51.05-10.99 76.8-2.59 28.23-3.95 56.55-4.8 84.9-.31 10.18.64 20.1 2 30.17.5 3.75 4.84 6.05 8.03 5.54 3.77-.6 6.04-3.66 6.35-7.6.63-8.13 1.97-16.17 2.07-24.34.16-12.66.47-25.31.87-37.96.93-29.35 1.51-58.75 3.25-88.06.75-12.7 1.08-25.5 2.38-38.15.56-5.6-7.81-6.51-9.16-1.3z" fill="url(#c)"/><path d="M23.26 90.29c-4.13-1.49-8.53.54-8.53.54s2.29 4.46 6.42 5.95 8.53-.54 8.53-.54-2.3-4.45-6.42-5.95zM46.37 45.73L34.31 44.7c-2.69-.23-4.69-2.72-4.47-5.55.22-2.84 2.57-4.95 5.26-4.73l12.05 1.03c2.69.23 4.69 2.72 4.47 5.55-.21 2.84-2.57 4.95-5.25 4.73z" fill="#7CB342"/><path d="M28.92 86.06c-2.31-5.07-7.76-7.36-7.76-7.36s-1.7 5.93.61 11 7.76 7.36 7.76 7.36 1.7-5.93-.61-11z" fill="#9CCC65"/><path d="M43.55 106.68l-13.98-.38c-2.75-.07-4.92-2.49-4.85-5.39s2.35-5.19 5.1-5.12l13.98.38c2.75.07 4.92 2.49 4.85 5.39s-2.36 5.2-5.1 5.12z" fill="#689F38"/><path d="M46.04-15.43c.54 0 1.06.19 1.32.48.08.09.29.32.22.97-.91 8.88-1.36 17.93-1.78 26.69-.19 3.81-.38 7.74-.61 11.59-.21 3.55-.41 7.27-.6 11.07a3 3 0 0 0 2.46 3.1c.97.18 1.67 1.18 1.59 2.29-.08 1.04-.83 1.88-1.75 1.95-1.51.12-2.7 1.34-2.77 2.86-.68 15.79-1.15 31.84-1.6 47.37l-.1 3.5c-.04 1.26.72 2.41 1.89 2.88.83.33 1.36 1.2 1.34 2.17-.02.98-.61 1.82-1.45 2.09-1.21.39-2.04 1.5-2.08 2.76l-.05 1.57c-.05 1.51-.09 3.03-.14 4.54-.44 14-.73 26.44-.87 38.02-.06 5.04-.63 10.19-1.17 15.17-.32 2.93-.65 5.96-.89 8.98-.1 1.3-.67 4.36-3.83 4.86-.14.02-.29.03-.44.03-1.73 0-3.92-1.31-4.15-3.01-1.16-8.62-2.3-18.89-1.97-29.68.45-14.9 1-28.32 1.67-41.03.06-1.12-.51-2.18-1.48-2.75-.69-.41-1.11-1.19-1.09-2.05.02-.92.53-1.72 1.29-2.05a3.015 3.015 0 0 0 1.82-2.58c.74-12.24 1.58-23.45 2.58-34.27l.36-3.96c.42-4.58.85-9.31 1.3-13.96a2.98 2.98 0 0 0-1.3-2.77c-.64-.43-1-1.21-.94-2.03.06-.84.57-1.57 1.28-1.85a3.006 3.006 0 0 0 1.89-2.47c1.47-13.68 3.74-31.65 8.32-49.27.28-1.05 1.21-1.21 1.73-1.21m0-3c-1.99 0-4.02 1.11-4.63 3.45-4.23 16.26-6.6 32.95-8.4 49.71-1.73.68-3.02 2.35-3.18 4.41-.15 1.97.78 3.74 2.25 4.74-.58 5.98-1.12 11.97-1.67 17.94-1.05 11.44-1.89 22.9-2.58 34.36-1.78.76-3.06 2.58-3.11 4.74-.05 2.02 1.01 3.79 2.57 4.71-.73 13.69-1.26 27.39-1.68 41.1-.31 10.18.64 20.1 2 30.17.46 3.4 4.07 5.61 7.12 5.61.31 0 .62-.02.91-.07 3.77-.6 6.04-3.66 6.35-7.6.63-8.13 1.97-16.17 2.07-24.34.16-12.66.47-25.31.87-37.96.06-2.04.12-4.07.19-6.11 1.99-.64 3.47-2.55 3.53-4.87.06-2.3-1.3-4.27-3.23-5.03.49-16.94.96-33.89 1.7-50.82 2.36-.18 4.32-2.14 4.51-4.71.2-2.68-1.58-5.02-4.04-5.47.19-3.68.39-7.37.6-11.05.75-12.7 1.08-25.5 2.38-38.15.32-3.09-2.08-4.76-4.53-4.76z" fill="#424242" opacity=".2"/><path d="M51.55 31.09c2.89-1.26 6.12 0 6.12 0s-1.46 3.29-4.35 4.55-6.12 0-6.12 0 1.45-3.29 4.35-4.55z" fill="#7CB342"/><path d="M47.28 27.6c1.45-3.73 5.26-5.62 5.26-5.62s1.46 4.17.01 7.9-5.26 5.62-5.26 5.62-1.45-4.17-.01-7.9z" fill="#9CCC65"/></g><g clip-path="url(#b)"><path d="M69.67 161.25l-11.5-.46a3.259 3.259 0 0 1-3.12-3.38l.02-.62a3.259 3.259 0 0 1 3.38-3.12l11.5.46c1.79.07 3.19 1.59 3.12 3.38l-.02.62a3.265 3.265 0 0 1-3.38 3.12z" fill="#388E3C"/><path d="M67.84 19.11c-2.77-4.75-1.47-10.67-1.47-10.67s5.79 1.79 8.56 6.54 1.47 10.67 1.47 10.67-5.78-1.79-8.56-6.54z" fill="#7CB342"/><path d="M82.2 35.3c1.88 5 3.19 10.11 3.97 15.39-.24-1.63.24-3.36 0-5A73 73 0 0 0 82.2 30.3c.54 1.45-.56 3.53 0 5zM83.3 87.73c-1.83-7.05-8.85-13.32-16.2-13.45-1.1-.02-1.03 1.53 0 1.66 7.26.94 12.19 5.76 15.13 12.23.28.63 1.24.18 1.07-.44z" fill="#424242"/><linearGradient id="d" x1="91.569" x2="56.663" y1="6.723" y2="113.53" gradientUnits="userSpaceOnUse"><stop stop-color="#AED581" offset=".281"/><stop stop-color="#8BC34A" offset=".609"/></linearGradient><path d="M91.6-8.67c-15.53 17.99-23.58 42.79-30.84 65-7.93 24.23-14.05 48.87-18.51 73.96-1.35 7.6-3.18 15.63-2.74 23.41.65 11.39 17.67 12.25 17.99.49.02-.78.1-1.56.19-2.34.12-1.09.78-5.03.26-2.06.75-4.3 1.35-8.63 2.03-12.94.28-1.78.03-.21-.02.13l.27-1.63a599.682 599.682 0 0 1 2.08-11.68c1.1-5.86 2.28-11.71 3.52-17.54 5.51-25.84 10.81-51.8 19.63-76.77 3.78-10.71 8.09-21.66 15.01-30.79 3.91-5.17-4.59-12.2-8.87-7.24z" fill="url(#d)"/><path d="M57.3 146.91l-15.85-2.08a4.453 4.453 0 0 1-3.83-4.98 4.453 4.453 0 0 1 4.98-3.83l15.85 2.08c2.43.32 4.14 2.55 3.83 4.98s-2.54 4.15-4.98 3.83z" fill="#2E7D32"/><path d="M69.87 131.23c5.56 1.45 8.98 6.77 8.98 6.77s-5.59 2.96-11.15 1.51-8.98-6.77-8.98-6.77 5.59-2.96 11.15-1.51z" fill="#689F38"/><path d="M65.28 121.67c5.55-4.3 13.25-3.65 13.25-3.65s-1.29 7.62-6.84 11.92-13.25 3.65-13.25 3.65 1.29-7.62 6.84-11.92z" fill="#7CB342"/><path d="M81.45 34.85l-9.5-3.93c-2.67-1.11-3.94-4.17-2.83-6.84s4.17-3.94 6.84-2.83l9.5 3.93a5.233 5.233 0 0 1 2.83 6.84 5.226 5.226 0 0 1-6.84 2.83z" fill="#8BC34A"/><path d="M67.18 88.81l-12.77-2.49a6.173 6.173 0 0 1-4.88-7.25c.65-3.35 3.9-5.54 7.25-4.88l12.77 2.49c3.35.65 5.54 3.9 4.88 7.25-.65 3.35-3.9 5.53-7.25 4.88z" fill="#7CB342"/><path d="M95.19-7.36c1.1 0 2.46.93 3.03 2.07.5 1.01.16 1.65-.14 2.04-6.69 8.82-10.94 19.17-14.21 28.14-.44 1.22-.06 2.58.96 3.38.79.62 1.07 1.69.7 2.59-.35.84-1.16 1.38-2.08 1.38-1.29 0-2.44.83-2.85 2.06-4.06 12.32-7.63 25.51-11.55 42.76-.27 1.17.19 2.39 1.17 3.1 1.01.73 1.5 1.98 1.27 3.19a3.154 3.154 0 0 1-2.53 2.51 3.022 3.022 0 0 0-2.37 2.31c-.95 4.4-1.89 8.8-2.83 13.21l-.88 4.12c-1.27 5.95-2.46 11.87-3.53 17.61-.54 2.86-1.04 5.66-1.51 8.32-.2 1.14-.39 2.28-.58 3.42l-.17 1.05-.02.15-.04.23-.02.1c-.22 1.38-.42 2.76-.63 4.15-.43 2.87-.88 5.84-1.39 8.74-.03.17-.05.34-.05.51-.11.72-.2 1.35-.24 1.74-.09.85-.18 1.69-.2 2.58-.11 4.07-2.91 5.52-5.49 5.52-2.97 0-6.27-1.91-6.51-6.11-.36-6.23.87-12.8 2.05-19.16.22-1.19.44-2.38.65-3.56 2.66-14.98 5.98-30 9.87-44.66.33-1.24-.17-2.56-1.24-3.27a3.177 3.177 0 0 1-1.36-3.26c.28-1.44 1.5-2.49 2.97-2.56 1.28-.06 2.38-.93 2.74-2.16a531.31 531.31 0 0 1 5.44-17.68c2.85-8.71 5.8-17.72 9.26-26.56.41-1.06.19-2.25-.56-3.1a2.2 2.2 0 0 1-.42-2.34c.33-.8 1.08-1.32 1.96-1.36 1.13-.06 2.13-.75 2.59-1.78C81.7 10.21 87.4.79 93.87-6.71c.39-.45.8-.65 1.32-.65m0-3c-1.29 0-2.56.5-3.59 1.69-7.44 8.62-13.16 18.82-17.9 29.53-1.96.1-3.78 1.28-4.58 3.21s-.35 4.04.96 5.49c-3.5 8.94-6.47 18.05-9.33 26.76-1.93 5.89-3.74 11.8-5.46 17.74-2.78.13-5.22 2.13-5.77 4.99-.49 2.53.63 4.99 2.65 6.33a546.772 546.772 0 0 0-9.92 44.9c-1.35 7.6-3.18 15.63-2.74 23.41.33 5.86 5 8.93 9.5 8.93 4.24 0 8.33-2.73 8.49-8.44.02-.78.1-1.56.19-2.34.09-.8.47-3.15.46-3.15 0 0-.06.3-.2 1.09.75-4.3 1.35-8.63 2.03-12.94.02-.13.04-.24.05-.33.06-.39.13-.78.19-1.17a599.682 599.682 0 0 1 2.08-11.68c1.1-5.86 2.28-11.71 3.52-17.54 1.23-5.77 2.45-11.55 3.7-17.31a6.175 6.175 0 0 0 4.91-4.89c.48-2.44-.56-4.95-2.45-6.32C75.23 63.29 78.84 49 83.45 35h.01c2.05 0 4-1.09 4.84-3.11.92-2.22.18-4.62-1.61-6.04 3.5-9.59 7.6-19.17 13.78-27.32 2.97-3.92-1.22-8.89-5.28-8.89z" fill="#424242" opacity=".2"/><path d="M103.21 103.16s-1.46 2.35-6.6 4.86-8.22 2.62-8.22 2.62-3.26-.83-9.46-9.69c-2.88-4.11-4.04-9.31-4.51-12.68-.25-1.78 1.12-3.45 2.94-3.58 1.38-.1 3-.29 4.47-.67 1.04-.27 1.92-.44 2.65-.54 1.58-.22 3.02.76 3.37 2.29.48 2.09 1.64 5.36 4.43 8.77 5.28 6.45 10.93 8.62 10.93 8.62z" fill="#42A5F5"/><path d="M84.92 83.46v2.99c.56 2.44 1.89 6.15 5.04 9.99 2.84 3.47 5.81 5.82 8.1 7.32-.73.49-1.65 1.02-2.77 1.57-3.12 1.52-5.35 2.05-6.38 2.23-.96-.61-3.53-2.61-7.53-8.32-2.62-3.75-3.63-8.74-4-11.38 0-.02.02-.06.04-.09s.07-.08.14-.08c1.9-.13 3.58-.39 5.01-.76.84-.22 1.62-.38 2.32-.48h.03v-2.99c-.15 0-.29.01-.44.03-.73.1-1.61.27-2.65.54-1.46.38-3.09.57-4.47.67-1.82.13-3.19 1.79-2.94 3.58.47 3.38 1.63 8.57 4.51 12.68 6.2 8.86 9.46 9.69 9.46 9.69s3.08-.11 8.22-2.62 6.6-4.86 6.6-4.86-5.65-2.18-10.92-8.62c-2.79-3.41-3.95-6.67-4.43-8.77a3.005 3.005 0 0 0-2.94-2.32z" fill="#424242" opacity=".2"/><path d="M55.81 68.93c-1.33 6.22 4.74 10.96 9.34 13.96 5.25 3.42 11.29 6.34 17.34 8.03 1.16.33 1.65-1.58.49-1.79-4.76-.85-9.61-3.4-13.81-5.69C64 80.63 55.98 76 56.8 69.07c.07-.57-.87-.69-.99-.14z" fill="#424242"/><path d="M49.78 67.04c1.11 5.52 6.81 9.04 6.81 9.04s3.91-5.44 2.81-10.96-6.81-9.04-6.81-9.04-3.91 5.44-2.81 10.96zM94.59 16c6.28-3.13 13.7-1 13.7-1s-2.75 7.22-9.03 10.35-13.7 1-13.7 1 2.75-7.22 9.03-10.35z" fill="#7CB342"/><path d="M109.76 68.15s-1.74 2.55-7.64 4.88-9.4 2.11-9.4 2.11-3.66-1.32-10.36-12.26c-3.11-5.07-4.24-11.21-4.64-15.17-.22-2.09 1.39-3.86 3.46-3.8 1.56.04 3.41 0 5.08-.27 1.19-.19 2.19-.29 3.02-.33 1.8-.08 3.39 1.22 3.73 3.02.47 2.47 1.66 6.37 4.7 10.63 5.73 8.04 12.05 11.19 12.05 11.19z" fill="#F44336"/><path d="M89.44 46.31c.29 0 .57.26.63.59.53 2.81 1.87 7.14 5.21 11.81 3.34 4.68 6.88 7.83 9.44 9.74-.93.56-2.14 1.18-3.69 1.8-3.75 1.48-6.38 1.81-7.51 1.88-1.03-.74-4-3.32-8.59-10.81-2.77-4.52-3.82-10.06-4.22-13.91a.48.48 0 0 1 .11-.38c.1-.11.22-.12.28-.12h.01c.36.01.73.02 1.12.02 1.68 0 3.21-.11 4.53-.33.96-.16 1.86-.26 2.67-.29h.01m-.01-3h-.16c-.83.04-1.83.13-3.02.33-1.31.22-2.74.29-4.05.29-.35 0-.7-.01-1.03-.01h-.1c-2.02 0-3.58 1.75-3.36 3.81.41 3.96 1.54 10.09 4.64 15.17 6.7 10.94 10.36 12.26 10.36 12.26s.09.01.26.01c.92 0 4.17-.16 9.13-2.11 5.9-2.33 7.64-4.88 7.64-4.88s-6.3-3.18-12.03-11.22c-3.04-4.26-4.23-8.16-4.7-10.63-.33-1.75-1.84-3.02-3.58-3.02z" fill="#424242" opacity=".2"/><path d="M74.93 16.93c-4.59 2.08-2.17 8.22-.83 11.61 2.74 6.92 6.5 13.3 10.62 19.47.53.8 1.83.05 1.3-.76-2.68-4.02-17.58-25.74-10.34-29.03.89-.39.13-1.68-.75-1.29z" fill="#424242"/></g></svg>