<svg viewBox="0 0 128 128" xmlns="http://www.w3.org/2000/svg"><path d="M71.4 124.2H56.8A3 3 0 0 1 54 120l4.9-11.1a3 3 0 0 1 2.8-1.8h4.8a3 3 0 0 1 2.8 1.8l4.9 11a3 3 0 0 1-2.8 4.3z" fill="#6D4C41"/><path d="M66.5 110l5 11.2H56.7l4.8-11.1h5m1.9-3h-8.8L54 120a3 3 0 0 0 2.8 4.2h14.6a3 3 0 0 0 2.8-4.3l-5.7-12.8z" fill="#424242" opacity=".2"/><path d="M64 116c-54.6 0-52.5-8.3-51.4-9.8a81 81 0 0 0 19.8-23.7l.5-1c.4-.6 1.2-1 2-1l59.4.2c.8 0 1.5.4 2 1a80.5 80.5 0 0 0 19.6 24.5c1 1.6 2.9 9.8-51.8 9.8z" fill="#2E7D32"/><path d="M64 90.3c-45.1 0-44.8-7.8-43.7-9.3 8.5-7.4 16-16 21.8-25.7l3.2-5.3c.4-.7 1.1-1 1.9-1l33.8-.2c.7 0 1.4.3 1.9 1L86 55a112 112 0 0 0 22 26c1.2 1.5 1 9.3-44.1 9.3z" fill="#388E3C"/><path d="M63.9 65.9c-37 0-36.6-6.8-35.3-8.4a77.4 77.4 0 0 0 21.5-21l1.3-1.7c.4-.6 1.2-1 2-1H75c.8 0 1.5.4 2 1l.8 1.2a79.1 79.1 0 0 0 21.9 21.5c1.3 1.6 1.1 8.4-35.8 8.4z" fill="#43A047"/><path d="M64 44.1c-25.6 0-28.7-5-27.3-6.6a81.6 81.6 0 0 0 22.8-21l2.5-3.3a3.2 3.2 0 0 1 4.5 0l1.2 1.7A88.2 88.2 0 0 0 92 37.5c1.4 1.6-2.2 6.6-27.9 6.6z" fill="#4CAF50"/><path d="M64.2 15.2l1 1.4c6 8.4 13.6 15.7 22.5 21.8-1 .4-2.7 1-5.3 1.4a3 3 0 0 0-1.7 5 82.2 82.2 0 0 0 15.6 14c-.7.6-2.2 1.2-5 2a3 3 0 0 0-1.8 4.6c4.6 6.1 9.8 11.7 15.4 16.7a18 18 0 0 1-6.1 2.4A3 3 0 0 0 97 89c4.3 7 9.6 13.1 15.8 18.5-2 1.5-10.9 5.5-48.7 5.5-37.7 0-46.5-4-48.4-5.5a83.6 83.6 0 0 0 16.1-18.3 3 3 0 0 0-1.8-4.5c-4-1-5.8-2-6.6-2.5 5.7-5 10.8-10.6 15.3-16.7a3 3 0 0 0-1.7-4.7c-2.9-.7-4.4-1.4-5.1-1.9 5.8-4 11.1-8.8 15.7-14.2a3 3 0 1 0-1.7-4.9c-2.5-.4-4-1-5-1.4a83.6 83.6 0 0 0 21-20l2.3-3.2m0-3a3 3 0 0 0-2.2 1l-2.5 3.4a81.6 81.6 0 0 1-22.8 21c-1 1 .2 3.6 8.7 5.2a78.3 78.3 0 0 1-16.8 14.7c-.8 1-1.3 4 7.8 6.2A107 107 0 0 1 20.3 81c-.7 1-1 4.2 9 6.6a80.7 80.7 0 0 1-16.7 18.6c-1 1.5-3.2 9.8 51.5 9.8s52.9-8.2 51.8-9.8a80.4 80.4 0 0 1-16.4-18.8c9.5-2.4 9.3-5.5 8.7-6.4-6-5.2-11.5-11-16.2-17.4 8.7-2.1 8.5-5.1 7.7-6.1A81.2 81.2 0 0 1 83 42.8c8.5-1.6 9.8-4.2 8.9-5.3A88.2 88.2 0 0 1 67.7 15l-1.2-1.7a3 3 0 0 0-2.3-1z" fill="#424242" opacity=".2"/><path d="M65.4 5.1l2.2 4.5c.2.4.5.7 1 .7l5 .7c1 .2 1.4 1.5.7 2.3l-3.6 3.5c-.3.3-.5.7-.4 1.2l.8 4.9c.2 1-1 1.9-1.9 1.4l-4.4-2.4c-.4-.2-.8-.2-1.2 0L59 24.3c-1 .5-2-.3-1.9-1.4l.9-5c0-.4 0-.8-.4-1.1L54 13.3c-.8-.8-.3-2.1.8-2.3l4.9-.7c.4 0 .8-.3 1-.7L63 5.1c.5-1 1.9-1 2.4 0z" fill="#FFEB3B"/><path d="M64.2 7.2l1.6 3.3c.5 1 1.4 1.6 2.5 1.8l3.6.5-2.6 2.5c-.8.8-1.2 1.9-1 3l.6 3.5-3.2-1.6a3.3 3.3 0 0 0-3 0l-3.2 1.6.6-3.5c.1-1.1-.2-2.2-1-3l-2.6-2.5 3.6-.5c1-.2 2-.8 2.5-1.8l1.6-3.3m0-2.8c-.5 0-1 .2-1.2.7l-2.2 4.5c-.2.4-.6.7-1 .7l-5 .7c-1 .2-1.5 1.5-.7 2.3l3.6 3.5c.3.3.5.7.4 1.2l-.9 4.9a1.3 1.3 0 0 0 2 1.4l4.4-2.4a1.3 1.3 0 0 1 1.2 0l4.4 2.4.6.1c.8 0 1.5-.7 1.3-1.5l-.8-5c0-.4 0-.8.4-1.1l3.5-3.5c.8-.8.4-2.1-.7-2.3l-5-.7c-.4 0-.7-.3-1-.7l-2.1-4.5c-.3-.5-.7-.7-1.2-.7z" fill="#424242" opacity=".2"/><circle cx="85.4" cy="76.1" r="5" fill="#F44336"/><path d="M85.4 73c1.7 0 3 1.4 3 3s-1.3 3-3 3-3-1.3-3-3 1.4-3 3-3m0-2a5 5 0 1 0 0 10 5 5 0 0 0 0-10z" fill="#424242" opacity=".2"/><circle cx="45.4" cy="76.1" r="5" fill="#F44336"/><path d="M45.4 73c1.7 0 3 1.4 3 3s-1.3 3-3 3-3-1.3-3-3 1.4-3 3-3m0-2a5 5 0 1 0 0 10 5 5 0 0 0 0-10z" fill="#424242" opacity=".2"/><circle cx="53.4" cy="99.1" r="5" fill="#F44336"/><path d="M53.4 96c1.7 0 3 1.4 3 3s-1.3 3-3 3-3-1.3-3-3 1.4-3 3-3m0-2a5 5 0 1 0 0 10 5 5 0 0 0 0-10z" fill="#424242" opacity=".2"/><circle cx="62.4" cy="53.1" r="5" fill="#F44336"/><path d="M62.4 50c1.7 0 3 1.4 3 3s-1.3 3-3 3-3-1.3-3-3 1.4-3 3-3m0-2a5 5 0 1 0 0 10 5 5 0 0 0 0-10z" fill="#424242" opacity=".2"/><circle cx="71.4" cy="35.1" r="4" fill="#F44336"/><path d="M71.4 33c1.1 0 2 1 2 2s-.9 2-2 2-2-.8-2-2 1-2 2-2m0-2a4 4 0 1 0 0 8 4 4 0 0 0 0-8z" fill="#424242" opacity=".2"/><circle cx="74.4" cy="105.1" r="4" fill="#F44336"/><path d="M74.4 103c1.1 0 2 1 2 2s-.9 2-2 2-2-.8-2-2 1-2 2-2m0-2a4 4 0 1 0 0 8 4 4 0 0 0 0-8z" fill="#424242" opacity=".2"/><circle cx="47.4" cy="58.1" r="4" fill="#FFEE58"/><path d="M47.4 56c1.1 0 2 1 2 2s-.9 2-2 2-2-.8-2-2 1-2 2-2m0-2a4 4 0 1 0 0 8 4 4 0 0 0 0-8z" fill="#424242" opacity=".2"/><circle cx="66.4" cy="82.1" r="4" fill="#FFEB3B"/><path d="M66.4 80c1.1 0 2 1 2 2s-.9 2-2 2-2-.8-2-2 1-2 2-2m0-2a4 4 0 1 0 0 8 4 4 0 0 0 0-8z" fill="#424242" opacity=".2"/><circle cx="91.4" cy="97.1" r="4" fill="#FFEB3B"/><path d="M91.4 95c1.1 0 2 1 2 2s-.9 2-2 2-2-.8-2-2 1-2 2-2m0-2a4 4 0 1 0 0 8 4 4 0 0 0 0-8z" fill="#424242" opacity=".2"/><circle cx="34.4" cy="103.1" r="4" fill="#FFEB3B"/><path d="M34.4 101c1.1 0 2 1 2 2s-.9 2-2 2-2-.8-2-2 1-2 2-2m0-2a4 4 0 1 0 0 8 4 4 0 0 0 0-8z" fill="#424242" opacity=".2"/><circle cx="80.4" cy="58.1" r="4" fill="#FFEE58"/><path d="M80.4 56c1.1 0 2 1 2 2s-.9 2-2 2-2-.8-2-2 1-2 2-2m0-2a4 4 0 1 0 0 8 4 4 0 0 0 0-8z" fill="#424242" opacity=".2"/><circle cx="56.4" cy="36.1" r="4" fill="#FFEE58"/><path d="M56.4 34c1.1 0 2 1 2 2s-.9 2-2 2-2-.8-2-2 1-2 2-2m0-2a4 4 0 1 0 0 8 4 4 0 0 0 0-8z" fill="#424242" opacity=".2"/></svg>