<svg viewBox="0 0 128 128" xmlns="http://www.w3.org/2000/svg"><linearGradient id="a" x1="-70" x2="-70" y1="-107.4" y2="-51.3" gradientUnits="userSpaceOnUse"><stop stop-color="#eee" offset="0"/><stop stop-color="#EAEAEA" offset=".3"/><stop stop-color="#ddd" offset=".6"/><stop stop-color="#C8C8C8" offset=".9"/><stop stop-color="#BDBDBD" offset="1"/></linearGradient><path d="M-19.1-78.7l-5.9-27.4c-.5-2.2-2.1-3.9-4-3.8h-60.6c-.7 0-2.6 0-4.2 1.7-4.7 5.3-12.5 20.5-13.7 22-.1.2-6.3 2.4-9.1 4-1.2.7-1.8 2.2-2 3.7l-2.4 20.8c-.6 4 1.7 5.7 5.4 5.7h91.5c2.8 0 5.1-.7 5.1-5.7v-19.8l-.1-1.2z" fill="url(#a)"/><path d="M-29-107c.4 0 .9.6 1 1.4a7162.8 7162.8 0 0 1 6 28.1v19.8c0 2.8-.5 2.7-2.1 2.7h-91.5c-1.3 0-2-.2-2.3-.5s-.3-1-.1-1.8l2.5-20.9c0-.8.3-1.3.4-1.3 1.9-1.2 5.8-2.7 7.5-3.4 1.5-.5 1.9-.7 2.4-1.3l3-5c2.9-5.1 7.6-13.6 10.7-17 .5-.6 1.2-.8 1.8-.8H-29m0-3h-60.6c-.7 0-2.6 0-4.2 1.8-4.7 5.3-12.5 20.5-13.7 22-.1.2-6.3 2.4-9.1 4-1.1.7-1.8 2.2-2 3.7l-2.4 20.7c-.6 4.1 1.7 5.8 5.4 5.8h91.5c2.8 0 5.1-.7 5.1-5.7v-19.8l-.1-1.2-5.9-27.5c-.5-2.2-2.1-3.8-4-3.8z" fill="#424242" opacity=".2"/><linearGradient id="b" x1="69.4" x2="69.4" y1="-151.5" y2="-95.4" gradientUnits="userSpaceOnUse"><stop stop-color="#616161" offset="0"/><stop stop-color="#5D5D5D" offset=".2"/><stop stop-color="#505050" offset=".5"/><stop stop-color="#3B3B3B" offset=".8"/><stop stop-color="#212121" offset="1"/></linearGradient><path d="M120.3-123l-5.8-27.3c-.5-2.2-2.1-3.8-4-3.8H49.9c-.7 0-2.6 0-4.2 1.7-4.7 5.3-12.5 20.5-13.7 22-.1.2-6.3 2.4-9.1 4-1.2.7-1.8 2.2-2 3.7L18.6-102c-.6 4 1.7 5.8 5.4 5.8h91.5c2.8 0 5-.8 5-5.8v-21z" fill="url(#b)"/><path d="M110.5-151c.4 0 .9.4 1 1.3a7706 7706 0 0 1 6 28v19.8c0 2.8-.5 2.8-2.1 2.8H23.9c-1.3 0-2-.3-2.3-.5s-.3-1-.2-1.8v-.1l2.5-20.9c.1-.8.4-1.3.5-1.3 1.9-1.2 5.8-2.7 7.5-3.3 1.5-.6 1.9-.8 2.4-1.4l3-5c2.8-5 7.6-13.5 10.6-17 .6-.6 1.3-.7 2-.7h60.6m0-3H49.8c-.6 0-2.6 0-4 1.8-4.8 5.2-12.6 20.4-13.8 22-.1 0-6.3 2.3-9.1 4-1.2.6-1.8 2.1-2 3.6l-2.4 20.8c-.6 4.1 1.7 5.8 5.4 5.8h91.5c2.8 0 5-.8 5-5.8v-21l-5.9-27.4c-.5-2.3-2.1-3.8-4-3.8z" fill="#eee" opacity=".2"/><path d="M195 42.4A78.5 78.5 0 0 0 213.5 55c5.8 2.6 12 3.8 18 5.5a42 42 0 0 1 15 7c.8.7 1.9.2 2-.7l5.1-33.3c.1-.7-.2-1.5-.7-2-4.5-3.8-10-5.9-15.7-7.5-6.1-1.7-12.4-3-18.1-5.5-7-3-13-7.9-18.7-12.8L195 42.4z" fill="#fff"/><path d="M201.9 9.4c5 4.2 10.5 8.2 16.5 10.9 4.3 1.9 8.9 3 13.2 4.2l5.1 1.4a39.3 39.3 0 0 1 15.2 7.4l-3.5 22.9-1.4 9.4a46 46 0 0 0-14.8-6.7l-5.2-1.5c-4.3-1-8.7-2.2-12.7-4A74.8 74.8 0 0 1 197 41.6l5-32.2m-1.4-3.6L195 42.4A78.5 78.5 0 0 0 213.6 55c5.7 2.6 12 3.8 18 5.5a42 42 0 0 1 15 7c.3.3.5.3.8.3.6 0 1.1-.4 1.2-1l5.1-33.3c.1-.7-.2-1.5-.7-2-4.5-3.8-10-5.9-15.8-7.5-6-1.7-12.3-3-18-5.5-7-3-13-7.9-18.7-12.8z" fill="#424242" opacity=".2"/><path d="M182.6 124l-2.4-.3c-.8-.2-1.4-.9-1.2-1.7L197.4 6a2.7 2.7 0 1 1 5.3.8l-18.4 116c-.2.8-1 1.4-1.7 1.3z" fill="#BDBDBD"/><path d="M200 5h.3c.8.1 1.3.9 1.2 1.7l-18.5 116-.2.1-2.5-.3a.2.2 0 0 1-.1-.3l18.4-116c.1-.7.8-1.2 1.5-1.2m0-1.3c-1.3 0-2.5 1-2.7 2.3L179 122c0 .8.5 1.5 1.2 1.7l2.5.3h.2c.7 0 1.3-.4 1.5-1.1l18.4-116a2.7 2.7 0 0 0-2.6-3.2z" fill="#424242" opacity=".2"/><path d="M65.5 63.3L106.9 87c1.3.8 3 .2 3.5-1.3l13.8-38.1c.4-1.1 0-2.4-1-3L81 20.5 65.5 63.3z" fill="#fff"/><path d="M82.6 24.8l38.6 22.3-13.4 37L69.2 62l13.4-37M81 20.3L65.5 63.2l41.4 24 1.2.2c1 0 1.9-.6 2.2-1.6l13.9-38.1c.4-1.2 0-2.4-1-3L81 20.4z" fill="#424242" opacity=".2"/><circle cx="94.9" cy="54" r="13.7" fill="#E53935"/><path d="M50.3 112.1l-2.2-.7c-.7-.3-1-1-.8-1.7L79.7 17c.5-1.3 2-2 3.2-1.5 1.3.5 2 1.9 1.5 3.2L52 111.3c-.2.7-1 1-1.7.8z" fill="#BDBDBD"/><path d="M82 16.4l.6.1c.7.3 1.1 1.1.9 2L51 111l-.3.2-2.3-.8a.3.3 0 0 1-.2-.4l32.5-92.6c.2-.6.8-1 1.4-1m0-1c-1 0-2 .7-2.4 1.7l-32.4 92.6c-.2.6.1 1.4.8 1.6l2.2.8h.4c.6 0 1-.2 1.3-.8l32.4-92.5a2.5 2.5 0 0 0-2.3-3.4z" fill="#424242" opacity=".2"/><path d="M63 63.3L21.6 87c-1.3.8-3 .2-3.5-1.3l-13.8-38c-.4-1.1 0-2.4 1-3l42.2-24.2L63 63.3z" fill="#fff"/><path d="M45.9 24.8L59.3 62 20.7 84.2l-13.4-37 38.6-22.4m1.6-4.3L5.4 44.8c-1 .5-1.5 1.8-1 2.9l13.8 38.1a2.4 2.4 0 0 0 3.4 1.3L63 63.3 47.5 20.5z" fill="#424242" opacity=".2"/><circle cx="33.6" cy="54" r="13.7" fill="#E53935"/><path d="M78.2 112.1l2.2-.7c.7-.3 1-1 .8-1.7L48.8 17c-.5-1.3-2-2-3.2-1.5-1.3.5-2 1.9-1.5 3.2l32.4 92.5c.3.7 1 1 1.7.8z" fill="#BDBDBD"/><path d="M46.4 16.4c.7 0 1.2.5 1.4 1L80.2 110c.1.2 0 .3-.2.4l-2.1.8h-.1c-.2 0-.3 0-.3-.2L45 18.4a1.5 1.5 0 0 1 1.4-2m0-1l-.8.2c-1.3.4-2 1.9-1.5 3.2l32.4 92.5a1.3 1.3 0 0 0 1.7.8l2.2-.7c.7-.3 1-1 .8-1.7L48.8 17c-.4-1-1.4-1.7-2.4-1.7z" fill="#424242" opacity=".2"/></svg>