<svg viewBox="0 0 128 128" xmlns="http://www.w3.org/2000/svg"><path d="M59.84 102.1c-3.02 4.9 2.38 10.12-1.85 13.91-7.84 7.02-17.44-12.05-29.49 7.49" fill="none" stroke="#795548" stroke-miterlimit="10" stroke-width="3"/><path d="M67.47 107.78l-1.06.1c-4.65.43-9.33-.17-13.72-1.75l.31-.83c1.85-4.99 4.82-9.49 8.69-13.14.79 5.22 2.58 10.24 5.28 14.77l.5.85z" fill="#F4511E"/><path d="M60.03 98.54c.66 2.22 1.49 4.37 2.49 6.46-1.97-.06-3.92-.33-5.83-.79.92-2 2.04-3.91 3.34-5.67m1.66-6.38A34.581 34.581 0 0 0 53 105.3l-.31.83c3.47 1.25 7.12 1.88 10.79 1.88.98 0 1.95-.04 2.93-.13l1.06-.1-.5-.84c-2.7-4.54-4.5-9.56-5.28-14.78z" fill="#424242" opacity=".2"/><radialGradient id="a" cx="58.968" cy="25.271" r="46.068" gradientTransform="rotate(13.419 63.83 61.308)" gradientUnits="userSpaceOnUse"><stop stop-color="#FF7043" offset=".258"/><stop stop-color="#FE6C3F" offset=".428"/><stop stop-color="#FA6232" offset=".606"/><stop stop-color="#F4511E" offset=".782"/></radialGradient><path d="M111.15 51.54c-7.58 31.76-38.66 46.21-50.12 43.47s-32.1-32.02-25.08-61.43C40.9 12.88 61.74.11 82.5 5.07s33.6 25.76 28.65 46.47z" fill="url(#a)"/><path d="M73 4v3h.24c2.79 0 5.71.33 8.45.99 9.27 2.21 17.18 7.89 22.17 15.99 4.99 8.09 6.55 17.64 4.35 26.87-3.72 15.59-12.99 25.57-20.12 31.2-9.62 7.6-18.92 10.29-23.97 10.29-.91 0-1.71-.08-2.39-.24-4.43-1.06-11.86-7.97-17.49-19.14-3.7-7.34-9.32-22.13-5.37-38.67C42.7 18.22 56.7 7 73.23 7L73 4m.47 0C56 4 40.18 15.9 35.95 33.59c-7.02 29.4 13.61 58.69 25.08 61.43.91.22 1.95.33 3.09.33 13.17 0 40.06-14.57 47.03-43.8 4.94-20.71-7.88-41.51-28.65-46.47C79.48 4.35 76.45 4 73.47 4z" fill="#424242" opacity=".2"/><path d="M63.28 98.11l-5.16-1.23a3.038 3.038 0 0 1-2.25-3.65 3.038 3.038 0 0 1 3.65-2.25l5.16 1.23c1.63.39 2.63 2.02 2.25 3.65s-2.02 2.63-3.65 2.25z" fill="#BF360C"/><path d="M58.82 92.89c.08 0 .16.01.24.03l5.16 1.23c.27.06.5.23.64.46s.19.51.12.78a1.017 1.017 0 0 1-1.24.76l-5.16-1.23c-.55-.13-.9-.69-.76-1.24.11-.46.53-.79 1-.79m0-2c-1.37 0-2.61.94-2.95 2.33a3.03 3.03 0 0 0 2.25 3.65l5.16 1.23a3.048 3.048 0 0 0 3.66-2.25 3.03 3.03 0 0 0-2.25-3.65l-5.16-1.23c-.24-.05-.47-.08-.71-.08z" fill="#424242" opacity=".2"/></svg>