<svg viewBox="0 0 128 128" xmlns="http://www.w3.org/2000/svg"><radialGradient id="a" cx="64.5" cy="11.3" r="130.9" gradientUnits="userSpaceOnUse"><stop stop-color="#CFD8DC" offset="0"/><stop stop-color="#CBD4D9" offset=".2"/><stop stop-color="#BECACF" offset=".4"/><stop stop-color="#A8B8C0" offset=".6"/><stop stop-color="#90A4AE" offset=".8"/><stop stop-color="#90A4AE" offset="1"/></radialGradient><path d="M112 124H16a12 12 0 0 1-12-12V16A12 12 0 0 1 16 4h96a12 12 0 0 1 12 12v96a12 12 0 0 1-12 12z" fill="url(#a)"/><path d="M112 7c5 0 9 4 9 9v96c0 5-4 9-9 9H16c-5 0-9-4-9-9V16c0-5 4-9 9-9h96m0-3H16A12 12 0 0 0 4 16v96a12 12 0 0 0 12 12h96a12 12 0 0 0 12-12V16a12 12 0 0 0-12-12z" fill="#424242" opacity=".2"/><path d="M62 27.9c.2-.5.2-1-.1-1.5a2 2 0 0 0-2.6-.6L57.2 27c-.5.2-.8.6-1 1.1s0 1 .3 1.5a1.9 1.9 0 0 0 2.6.7l2-1.3c.5-.2.9-.6 1-1.1zm-10.7-12a2 2 0 0 0-2.6.7l-1.3 2a1.9 1.9 0 0 0 1.7 3 2 2 0 0 0 1.7-1l1.2-2.1c.5-1 .2-2.1-.7-2.6zm-26.4.7c-.3-.5-.7-.8-1.2-1a1.9 1.9 0 0 0-2.1 2.8l1.2 2.2a1.9 1.9 0 0 0 2.6.7c.4-.3.8-.7.9-1.2s0-1-.2-1.4L25 16.6zM16.4 27l-2.1-1.3c-1-.5-2.1-.2-2.6.7s-.3 2.1.7 2.6l2 1.2a1.9 1.9 0 0 0 2.7-.6c.5-1 .2-2.1-.7-2.6zm20.4-15c-1 0-2 .8-2 1.9v2.5a2 2 0 0 0 3.9 0v-2.5c0-1-.9-1.9-2-1.9z" fill="#ECEFF1"/><path d="M54.6 25c-.3 0-.6-.1-.9-.4-.5-.5-.5-1.2 0-1.7l1.8-1.8c.5-.5 1.3-.5 1.8 0s.5 1.3 0 1.8l-1.8 1.7c-.2.3-.6.4-.9.4zm-11.3-6.5H43c-.7-.2-1-.9-1-1.6l.7-2.4c.2-.6 1-1 1.6-.9.7.2 1 .9.9 1.6l-.7 2.4c-.1.5-.6 1-1.2 1zm-13 0c-.6 0-1.1-.4-1.3-1l-.6-2.3a1.3 1.3 0 0 1 2.4-.7l.7 2.4a1.3 1.3 0 0 1-1.2 1.6zM19 25c-.4 0-.7-.1-1-.4L16.4 23c-.5-.5-.5-1.3 0-1.8s1.3-.5 1.8 0l1.7 1.8a1.2 1.2 0 0 1-.9 2z" fill="#CFD8DC"/><path d="M116.3 27.9c.1-.5 0-1-.2-1.5a2 2 0 0 0-2.6-.6l-2.1 1.2c-.5.2-.8.6-1 1.1s0 1 .3 1.5a1.9 1.9 0 0 0 2.6.7l2.1-1.3c.5-.2.8-.6 1-1.1zm-10.8-12a2 2 0 0 0-2.6.7l-1.2 2a1.9 1.9 0 0 0 1.6 3 2 2 0 0 0 1.7-1l1.2-2.1c.5-1 .2-2.1-.7-2.6zm-26.4.7c-.3-.5-.7-.8-1.2-1a1.9 1.9 0 0 0-2.1 2.8l1.2 2.2a1.9 1.9 0 0 0 2.6.7c.5-.3.8-.7 1-1.2s0-1-.3-1.4l-1.2-2.1zM70.6 27l-2.1-1.3c-1-.5-2.1-.2-2.6.7s-.2 2.1.7 2.6l2.1 1.2a1.9 1.9 0 0 0 2.6-.6c.5-1 .2-2.1-.7-2.6zM91 12c-1 0-2 .8-2 1.9v2.5a2 2 0 0 0 3.9 0v-2.5c0-1-.8-1.9-1.9-1.9z" fill="#ECEFF1"/><path d="M108.8 25c-.3 0-.6-.1-.9-.4-.5-.5-.5-1.2 0-1.7l1.8-1.8c.5-.5 1.3-.5 1.8 0s.5 1.3 0 1.8l-1.8 1.7c-.2.3-.6.4-.9.4zm-11.3-6.5h-.3c-.7-.2-1-.9-.9-1.6l.7-2.4c.1-.6.8-1 1.5-.9.7.2 1 .9.9 1.6l-.7 2.4c-.1.5-.6 1-1.2 1zm-13 0c-.6 0-1.1-.4-1.3-1l-.6-2.3a1.3 1.3 0 0 1 2.4-.7l.7 2.4a1.3 1.3 0 0 1-1.2 1.6zM73.2 25c-.4 0-.7-.1-1-.4L70.6 23c-.5-.5-.5-1.3 0-1.8s1.3-.5 1.8 0l1.8 1.8a1.2 1.2 0 0 1-1 2.1z" fill="#CFD8DC"/><path d="M62 83.3c.2-.5.2-1-.1-1.4a2 2 0 0 0-2.6-.7l-2.1 1.2c-.5.3-.8.7-1 1.2s0 1 .3 1.4a1.9 1.9 0 0 0 2.6.7l2-1.2c.5-.3.9-.7 1-1.2zm-10.7-12a2 2 0 0 0-2.6.7l-1.3 2.1a1.9 1.9 0 0 0 1.7 2.9 2 2 0 0 0 1.7-1l1.2-2c.5-1 .2-2-.7-2.6zm-26.4.7c-.3-.4-.7-.7-1.2-.9a1.9 1.9 0 0 0-2.1 2.8l1.2 2.1a1.9 1.9 0 0 0 2.6.7c.4-.2.8-.6.9-1.1s0-1-.2-1.5l-1.2-2zm-8.5 10.4l-2.1-1.2c-1-.6-2.1-.2-2.6.7s-.3 2 .7 2.6l2 1.2a1.9 1.9 0 0 0 2.7-.7c.5-1 .2-2-.7-2.6zm20.4-15c-1 0-2 .9-2 2v2.4a2 2 0 0 0 3.9 0v-2.5c0-1-.9-1.9-2-1.9z" fill="#ECEFF1"/><path d="M54.6 80.5c-.3 0-.6-.2-.9-.4-.5-.5-.5-1.3 0-1.8l1.8-1.8c.5-.4 1.3-.4 1.8 0s.5 1.3 0 1.8l-1.8 1.8c-.2.2-.6.4-.9.4zM43.3 74H43c-.7-.3-1-1-1-1.6l.7-2.4c.2-.7 1-1 1.6-1 .7.2 1 1 .9 1.6l-.7 2.4c-.1.6-.6 1-1.2 1zm-13 0c-.6 0-1.1-.4-1.3-1l-.6-2.4c-.2-.7.2-1.4.9-1.5.7-.2 1.3.2 1.5.9l.7 2.4a1.3 1.3 0 0 1-1.2 1.6zM19 80.5c-.4 0-.7-.2-1-.4l-1.7-1.8c-.5-.5-.5-1.3 0-1.8s1.3-.4 1.8 0l1.7 1.8a1.2 1.2 0 0 1-.9 2.2z" fill="#CFD8DC"/><path d="M116.3 83.3c.1-.5 0-1-.2-1.4a2 2 0 0 0-2.6-.7l-2.1 1.2c-.5.3-.8.7-1 1.2s0 1 .3 1.4a1.9 1.9 0 0 0 2.6.7l2.1-1.2c.5-.3.8-.7 1-1.2zm-10.8-12a2 2 0 0 0-2.6.7l-1.2 2.1a1.9 1.9 0 0 0 1.6 2.9 2 2 0 0 0 1.7-1l1.2-2.1c.5-1 .2-2-.7-2.6zm-26.4.7c-.3-.4-.7-.7-1.2-.9a1.9 1.9 0 0 0-2.1 2.8L77 76a1.9 1.9 0 0 0 2.6.7c.5-.2.8-.6 1-1.1s0-1-.3-1.5l-1.2-2zm-8.5 10.4l-2.1-1.2c-1-.6-2.1-.2-2.6.7s-.2 2 .7 2.6l2.1 1.2a1.9 1.9 0 0 0 2.6-.7c.5-1 .2-2-.7-2.6zm20.4-15c-1 0-2 .9-2 2v2.4a2 2 0 0 0 3.9 0v-2.5c0-1-.8-1.9-1.9-1.9z" fill="#ECEFF1"/><path d="M108.8 80.5c-.3 0-.6-.2-.9-.4-.5-.5-.5-1.3 0-1.8l1.8-1.8c.5-.4 1.3-.4 1.8 0s.5 1.3 0 1.8l-1.8 1.8c-.2.2-.6.4-.9.4zM97.5 74h-.3c-.7-.3-1-1-.9-1.6L97 70c.1-.7.8-1 1.5-1 .7.2 1 1 .9 1.6l-.7 2.4c-.1.6-.6 1-1.2 1zm-13 0c-.6 0-1.1-.4-1.3-1l-.6-2.4c-.2-.7.2-1.4.9-1.5.7-.2 1.3.2 1.5.9l.7 2.4a1.3 1.3 0 0 1-1.2 1.6zm-11.3 6.5c-.4 0-.7-.2-1-.4l-1.7-1.8c-.5-.5-.5-1.3 0-1.8s1.3-.4 1.8 0l1.8 1.8a1.2 1.2 0 0 1-1 2.2z" fill="#CFD8DC"/><radialGradient id="b" cx="36.9" cy="21.8" r="40.2" gradientUnits="userSpaceOnUse"><stop stop-color="#40C4FF" offset="0"/><stop stop-color="#0091EA" offset="1"/></radialGradient><path d="M39.4 39l-1-1c-.6-.5-.6-1.4 0-2l11-11a20 20 0 1 0 3 3l-11 11c-.5.6-1.4.6-2 0z" fill="url(#b)"/><path d="M49.4 25l-11 11c-.6.6-.6 1.5 0 2l1 1c.5.6 1.4.6 2 0l11-11a21.5 21.5 0 0 0-3-3z" fill="#E1F5FE"/><radialGradient id="c" cx="91.1" cy="21.8" r="40.2" gradientTransform="matrix(-1 0 0 1 182.2 0)" gradientUnits="userSpaceOnUse"><stop stop-color="#40C4FF" offset="0"/><stop stop-color="#0091EA" offset="1"/></radialGradient><path d="M88.6 39l1-1c.5-.5.5-1.4 0-2l-11-11a20 20 0 1 1-3 3l11 11c.5.6 1.4.6 2 0z" fill="url(#c)"/><path d="M78.5 25l11 11c.6.6.6 1.5 0 2l-1 1c-.5.6-1.4.6-2 0l-11-11a21.5 21.5 0 0 1 3-3z" fill="#E1F5FE"/><radialGradient id="d" cx="36.9" cy="77.3" r="40.2" gradientUnits="userSpaceOnUse"><stop stop-color="#40C4FF" offset="0"/><stop stop-color="#0091EA" offset="1"/></radialGradient><path d="M39.4 94.5l-1-1c-.6-.6-.6-1.5 0-2l11-11a20 20 0 1 0 3 3l-11 11c-.5.5-1.4.5-2 0z" fill="url(#d)"/><path d="M49.4 80.4l-11 11c-.6.6-.6 1.5 0 2l1 1c.5.6 1.4.6 2 0l11-11a21.5 21.5 0 0 0-3-3z" fill="#E1F5FE"/><radialGradient id="e" cx="91.1" cy="77.3" r="40.2" gradientTransform="matrix(-1 0 0 1 182.2 0)" gradientUnits="userSpaceOnUse"><stop stop-color="#40C4FF" offset="0"/><stop stop-color="#0091EA" offset="1"/></radialGradient><path d="M88.6 94.5l1-1c.5-.6.5-1.5 0-2l-11-11a20 20 0 1 1-3 3l11 11c.5.5 1.4.5 2 0z" fill="url(#e)"/><path d="M78.5 80.4l11 11c.6.6.6 1.5 0 2l-1 1c-.5.6-1.4.6-2 0l-11-11a21.5 21.5 0 0 1 3-3z" fill="#E1F5FE"/><path d="M52.4 28a21.5 21.5 0 0 0-3-3 20 20 0 1 0 3 3zm54.3 0a21.5 21.5 0 0 0-3-3 20 20 0 1 0 3 3zM52.4 83.5a21.5 21.5 0 0 0-3-3 20 20 0 1 0 3 3zm54.3 0a21.5 21.5 0 0 0-3-3 20 20 0 1 0 3 3z" fill="none" opacity=".2" stroke="#424242" stroke-miterlimit="10" stroke-width="3"/></svg>