<svg viewBox="0 0 128 128" xmlns="http://www.w3.org/2000/svg"><radialGradient id="a" cx="62.75" cy="4.25" r="119.82" gradientUnits="userSpaceOnUse"><stop stop-color="#CFD8DC" offset="0"/><stop stop-color="#C6D1D6" offset=".195"/><stop stop-color="#AFBDC4" offset=".508"/><stop stop-color="#90A4AE" offset=".826"/><stop stop-color="#90A4AE" offset="1"/></radialGradient><path d="M80 124H48c-4.4 0-8-3.6-8-8V12c0-4.4 3.6-8 8-8h32c4.4 0 8 3.6 8 8v104c0 4.4-3.6 8-8 8z" fill="url(#a)"/><path d="M80 7c2.76 0 5 2.24 5 5v104c0 2.76-2.24 5-5 5H48c-2.76 0-5-2.24-5-5V12c0-2.76 2.24-5 5-5h32m0-3H48c-4.4 0-8 3.6-8 8v104c0 4.4 3.6 8 8 8h32c4.4 0 8-3.6 8-8V12c0-4.4-3.6-8-8-8z" fill="#BDBDBD" opacity=".2"/><path fill="#90A4AE" d="M47.94 23h32v1h-32zM47.94 35h32v1h-32zM47.94 47h32v1h-32zM47.94 59h32v1h-32zM47.94 71h32v1h-32zM47.94 83h32v1h-32zM47.94 95h32v1h-32zM47.94 107h32v1h-32z" opacity=".2"/><path d="M64 117.5a5.51 5.51 0 0 1-5.5-5.5V16c0-3.03 2.47-5.5 5.5-5.5s5.5 2.47 5.5 5.5v96c0 3.03-2.47 5.5-5.5 5.5z" fill="#607D8B"/><path d="M64 12c2.2 0 4 1.8 4 4v96c0 2.2-1.8 4-4 4s-4-1.8-4-4V16c0-2.2 1.8-4 4-4m0-3c-3.86 0-7 3.14-7 7v96c0 3.86 3.14 7 7 7s7-3.14 7-7V16c0-3.86-3.14-7-7-7z" fill="#78909C"/><path d="M64 14c1.1 0 2 .9 2 2v96c0 1.1-.9 2-2 2s-2-.9-2-2V16c0-1.1.9-2 2-2m0-2c-2.2 0-4 1.8-4 4v96c0 2.2 1.8 4 4 4s4-1.8 4-4V16c0-2.2-1.8-4-4-4z" fill="#BDBDBD" opacity=".2"/><radialGradient id="b" cx="63.833" cy="80.417" r="14.305" gradientUnits="userSpaceOnUse"><stop stop-color="#40C4FF" offset="0"/><stop stop-color="#3DC1FE" offset=".278"/><stop stop-color="#32B9FA" offset=".513"/><stop stop-color="#21ABF5" offset=".733"/><stop stop-color="#0898ED" offset=".942"/><stop stop-color="#0091EA" offset="1"/></radialGradient><path d="M73.55 89.75h-19.1c-1.35 0-2.45-1.1-2.45-2.45v-7.1c0-1.35 1.1-2.45 2.45-2.45h19.1c1.35 0 2.45 1.1 2.45 2.45v7.1c0 1.35-1.1 2.45-2.45 2.45z" fill="url(#b)"/><path d="M73 80.75v6H55v-6h18m.55-3h-19.1c-1.35 0-2.45 1.1-2.45 2.45v7.1c0 1.35 1.1 2.45 2.45 2.45h19.1c1.35 0 2.45-1.1 2.45-2.45v-7.1c0-1.35-1.1-2.45-2.45-2.45z" fill="#424242" opacity=".2"/></svg>