<svg viewBox="0 0 128 128" xmlns="http://www.w3.org/2000/svg"><path d="M94 25.2A20.1 20.1 0 0 0 82.8 8.9a42.8 42.8 0 0 0-37.8 0c-6 3.2-10.6 8.6-11.3 16.3-.6 7.1-1 12 .4 19.3a24.3 24.3 0 0 1 3.5-14.2c6-8.4 17-10.3 26.4-10.4 9.3 0 20.3 2 26.2 10.4 1.7 2.4 4.2 9.4 3.4 14.2 1.4-7.3 1-12.2.4-19.3z" fill="#FBC02D"/><linearGradient id="a" x1="70.3" x2="32.9" y1="64.5" y2="99" gradientUnits="userSpaceOnUse"><stop stop-color="#FDD835" offset=".6"/><stop stop-color="#FFEE58" offset=".9"/></linearGradient><path d="M93.2 21.2C91 37 75.5 59.2 58 73.5 43.3 85.2 8 99 8 99v25c18-4.2 35.3-14 49.9-25.6C75.5 84.3 90.3 65.8 94 41.9c1.5-9.6-.9-20.7-.9-20.7z" fill="url(#a)"/><path d="M64 7.5c6.4 0 12.8 1.6 17.4 4 3.3 1.8 9 6 9.6 14l.1 1.1C85.6 20.3 76.7 17 64 17c-12.7 0-21.9 3.4-27.4 9.8l.1-1.4c.7-7.9 6.4-12 9.7-13.8A40 40 0 0 1 64 7.5m27.5 28.7c0 1.7-.2 3.5-.5 5.3-3 20-15 38.3-35.2 54.5A126.3 126.3 0 0 1 11 120v-19c8-3.2 35.6-14.9 48.5-25.3a120.5 120.5 0 0 0 32-39.6M64 4.5a43 43 0 0 0-19 4.4 20 20 0 0 0-11.3 16.3c-.6 7.1-1 12 .4 19.3a24.3 24.3 0 0 1 3.5-14.2c6-8.5 17-10.3 26.4-10.5 9.3.2 20.3 2 26.2 10.5l.4.6a113.2 113.2 0 0 1-33 42.6C43.2 85.2 8 99 8 99v25a127 127 0 0 0 49.7-25.5C75.3 84.3 90.2 65.8 94 41.9a56.3 56.3 0 0 0 0-16.7A20.1 20.1 0 0 0 82.8 8.9 42.7 42.7 0 0 0 64 4.5z" fill="#424242" opacity=".2"/><linearGradient id="b" x1="67.6" x2="82.4" y1="37.5" y2="91.8" gradientUnits="userSpaceOnUse"><stop stop-color="#FDD835" offset=".2"/><stop stop-color="#FFEE58" offset=".9"/></linearGradient><path d="M34.5 21.2C37 37 52.4 59.2 70 73.5 84.5 85.2 120 99 120 99v25a130 130 0 0 1-50-25.6C52.4 84.2 37.5 65.7 33.7 41.8c-1.5-9.6.8-20.7.8-20.7z" fill="url(#b)"/><path d="M36.1 36a117.1 117.1 0 0 0 31.8 39.8c13 10.4 41.4 22.3 49.1 25.4v19.1c-15.1-4.1-31-12.7-45.4-24.2-20-16.1-31.9-34.5-35-54.6A39 39 0 0 1 36 36m-1.6-14.8s-2.4 11-1 20.7c3.8 24 18.6 42.4 36.2 56.6a131.2 131.2 0 0 0 50.2 25.7l.1-25s-35.7-14-50.3-25.7C52.1 59.3 36.8 37 34.5 21.2z" fill="#424242" opacity=".2"/></svg>