<svg viewBox="0 0 128 128" xmlns="http://www.w3.org/2000/svg" xmlns:xlink="http://www.w3.org/1999/xlink"><path fill="#006064" d="M2085.4 77h-40.2l-8-24.3v-44h56.2v44z"/><path fill="#E57373" d="M2045 76.5h40.8V81H2045z"/><linearGradient id="a" x1="64" x2="64" y1="5.3" y2="69.5" gradientUnits="userSpaceOnUse"><stop stop-color="#EF5350" offset=".3"/><stop stop-color="#E53935" offset=".9"/></linearGradient><path d="M74.3 70.4H53.7l-17-13.2a8 8 0 0 1-3-6.3V10.1a6 6 0 0 1 6-6h48.6a6 6 0 0 1 6 6v40.7a8 8 0 0 1-3 6.3l-17 13.3z" fill="url(#a)"/><defs><path id="b" d="M74.3 70.7H53.7l-17-13.2a8 8 0 0 1-3-6.3V10.4c0-3.4 2.7-6.3 6-6.3h48.6c3.3 0 6 3 6 6.3V51a8 8 0 0 1-3 6.3l-17 13.4z"/></defs><clipPath id="c"><use xlink:href="#b"/></clipPath><linearGradient id="d" x1="64.8" x2="64.8" y1="11.5" y2="74" gradientUnits="userSpaceOnUse"><stop stop-color="#FAFAFA" offset=".2"/><stop stop-color="#E0E0E0" offset=".8"/></linearGradient><path clip-path="url(#c)" fill="url(#d)" d="M46.1 2.4h37.4v70.1H46.1z"/><linearGradient id="e" x1="64.4" x2="64.4" y1="7.3" y2="69.5" gradientUnits="userSpaceOnUse"><stop stop-color="#64B5F6" offset=".1"/><stop stop-color="#2196F3" offset=".9"/></linearGradient><path clip-path="url(#c)" fill="url(#e)" d="M52.4 2.4h24.1v70.1H52.4z"/><defs><path id="f" d="M74.3 70.7H53.7l-17-13.2a8 8 0 0 1-3-6.3V10.4c0-3.4 2.7-6.3 6-6.3h48.6c3.3 0 6 3 6 6.3V51a8 8 0 0 1-3 6.3l-17 13.4z"/></defs><clipPath id="g"><use xlink:href="#f"/></clipPath><path clip-path="url(#g)" fill="none" d="M43.8 2.4h42.1v70.1H43.8z"/><path clip-path="url(#g)" fill="none" d="M49.7 2.4h29.4v70.1H49.7z"/><path d="M88.3 7.1a3 3 0 0 1 3 3v40.7a5 5 0 0 1-1.9 4L73.3 67.3H54.7L38.6 55a5 5 0 0 1-2-4V10.1a3 3 0 0 1 3-3h48.7m0-3H39.7a6 6 0 0 0-6 6V51a8 8 0 0 0 3 6.3l17 13.2h20.6l17-13.3a8 8 0 0 0 3-6.3V10a6 6 0 0 0-6-6z" fill="#424242" opacity=".2"/><radialGradient id="h" cx="49.2" cy="74.4" r="54" gradientUnits="userSpaceOnUse"><stop stop-color="#FFEB3B" offset=".3"/><stop stop-color="#FBC02D" offset="1"/></radialGradient><circle cx="64" cy="95.8" r="28.3" fill="url(#h)"/><path d="M78.7 71.6H49.6v-3.4a3 3 0 0 1 3-3h23a3 3 0 0 1 3 3v3.4z" fill="url(#h)"/><g fill="url(#i)"><radialGradient id="i" cx="52.6" cy="76.2" r="44.6" gradientTransform="translate(4 6) scale(.9369)" gradientUnits="userSpaceOnUse"><stop stop-color="#FDD835" offset=".1"/><stop stop-color="#F9A825" offset="1"/></radialGradient><path d="M65.7 74.4L71 85c.2.6.8 1 1.4 1L84 87.9l.5.1a22.2 22.2 0 0 0-19.1-14l.3.4zM43.9 87.8L55.5 86c.6-.1 1.2-.5 1.4-1l5.3-10.7c0-.2.2-.3.3-.4a22 22 0 0 0-19.2 13.9l.5-.1zm6 24.9l2-11.8c0-.6-.1-1.2-.6-1.6L42.8 91l-.3-.4a22.2 22.2 0 0 0 7.3 22.6v-.5zm35.6-22.1l-.3.4-8.5 8.3c-.5.4-.7 1-.6 1.7l2 11.7v.5a22.2 22.2 0 0 0 7.4-22.6zm-10.1 24.1L65 109a2 2 0 0 0-1.8 0l-10.5 5.6-.5.1a22.1 22.1 0 0 0 23.8 0l-.5-.1z"/></g><path d="M69 76.6c5 1.2 9.3 4.4 12 8.7l-8.3-1.2-3.7-7.5M65.4 74l.3.4L71 85c.2.6.8 1 1.4 1L84 87.9l.5.1a22.2 22.2 0 0 0-19.2-14zM59 76.6L55.3 84 47 85.3c2.7-4.3 7-7.5 12-8.7m3.6-2.6zm0 0a22 22 0 0 0-19.2 14c.1-.2.3-.2.4-.2L55.6 86c.6-.1 1.2-.5 1.4-1l5.3-10.8.3-.3zM43.9 94.8l6 5.9-1.4 8.3a20.2 20.2 0 0 1-4.6-14.2m-1.4-4.2a22.2 22.2 0 0 0 7.4 22.6v-.5l2-11.7c0-.7-.1-1.3-.5-1.7L42.8 91l-.3-.4zm41.7 4.2a20.4 20.4 0 0 1-4.7 14.2l-1.4-8.3 6-6m1.4-4.1l-.3.4-8.5 8.3c-.5.4-.7 1-.6 1.7l2 11.7v.5a22.2 22.2 0 0 0 7.4-22.6zM64 111l7.5 3.9a20.1 20.1 0 0 1-15 0l7.5-4m0-2c-.3 0-.6 0-.9.2l-10.5 5.6-.5.2a22.1 22.1 0 0 0 23.8 0l-.5-.2L65 109l-.9-.2z" fill="#424242" opacity=".2"/><path d="M75.4 68c.2 0 .6.2.6.4V70l-.2.3a3 3 0 0 0 1.2 3.3c7.8 5 12.2 13 12.2 21.9A25.3 25.3 0 1 1 50.7 74a3 3 0 0 0 1.5-2.6v-3c0-.2.4-.5.6-.5H75m.5-3H52.7C51 65 49 66.6 49 68.4v3a28.4 28.4 0 1 0 43.2 24c0-10.2-5.4-19.4-13.6-24.4h.4v-2.6c0-1.8-1.8-3.4-3.5-3.4z" fill="#424242" opacity=".2"/><linearGradient id="j" x1="-126.2" x2="-94.9" y1="8.1" y2="58.1" gradientTransform="matrix(-1 0 0 1 98.3 0)" gradientUnits="userSpaceOnUse"><stop stop-color="#1E88E5" offset=".2"/><stop stop-color="#1565C0" offset=".8"/></linearGradient><path fill="url(#j)" d="M179.4 55.2H211l30-48.5h-31.5z"/><linearGradient id="k" x1="-124" x2="-97.1" y1="14.9" y2="56.9" gradientTransform="matrix(-1 0 0 1 98.3 0)" gradientUnits="userSpaceOnUse"><stop stop-color="#eee" offset=".5"/><stop stop-color="#BDBDBD" offset="1"/></linearGradient><path fill="url(#k)" d="M190.3 55.2h13.4l30-48.5h-13.4z"/><linearGradient id="l" x1="-132.9" x2="-107.9" y1="13.1" y2="53.8" gradientTransform="matrix(-1 0 0 1 98.3 0)" gradientUnits="userSpaceOnUse"><stop stop-color="#E53935" offset=".3"/><stop stop-color="#C62828" offset=".9"/></linearGradient><path fill="url(#l)" d="M199.6 55.2H211l30-48.5h-11.2z"/><path d="M235.5 9.8l-26.3 42.4h-24.4l26.3-42.5h24.4m5.4-3zm0 0h-31.5l-30 48.5H211l30-48.5z" fill="#424242" opacity=".2"/><path d="M213 43h-36a8 8 0 0 0-8 8v16a4 4 0 0 0 4 4c2.3 0 5-1.8 5-4V57c0-1.1.9-2 2-2h30a2 2 0 0 1 2 2v10c0 2 2.4 3.6 4.2 4h.8a4 4 0 0 0 4-4V51a8 8 0 0 0-8-8z" fill="#FDD835"/><path fill="none" d="M255.5 71.4H134.9V13h120.6"/><path d="M213 45a6 6 0 0 1 6 6v16a2 2 0 0 1-2.4 2c-1.2-.2-2.6-1.4-2.6-2V57a4 4 0 0 0-4-4h-30a4 4 0 0 0-4 4v10c0 1-1.6 2-3 2a2 2 0 0 1-2-2V51a6 6 0 0 1 6-6h36m0-2h-36a8 8 0 0 0-8 8v16a4 4 0 0 0 4 4c2.3 0 5-1.8 5-4V57c0-1.1.9-2 2-2h30a2 2 0 0 1 2 2v10c0 2 2.4 3.6 4.2 4h.8a4 4 0 0 0 4-4V51a8 8 0 0 0-8-8z" fill="#424242" opacity=".2"/><linearGradient id="m" x1="165.8" x2="197.1" y1="8.1" y2="58.1" gradientUnits="userSpaceOnUse"><stop stop-color="#64B5F6" offset=".1"/><stop stop-color="#2196F3" offset=".9"/></linearGradient><path fill="url(#m)" d="M210.9 55.2h-31.5l-30-48.5H181z"/><linearGradient id="n" x1="169.2" x2="196.1" y1="10.5" y2="52.5" gradientUnits="userSpaceOnUse"><stop stop-color="#FAFAFA" offset=".2"/><stop stop-color="#E0E0E0" offset=".8"/></linearGradient><path fill="url(#n)" d="M204 55.2h-13.4l-30-48.5H174z"/><linearGradient id="o" x1="179.3" x2="204.3" y1="13.1" y2="53.8" gradientUnits="userSpaceOnUse"><stop stop-color="#EF5350" offset=".3"/><stop stop-color="#E53935" offset=".9"/></linearGradient><path fill="url(#o)" d="M210.8 55.2h-11.2l-30-48.5h11.2z"/><path d="M179.2 9.8l26.3 42.4H181L154.8 9.7h24.4m1.7-3h-31.5l30 48.5H211L181 6.7z" fill="#424242" opacity=".2"/><radialGradient id="p" cx="174" cy="66.5" r="72.6" gradientUnits="userSpaceOnUse"><stop stop-color="#FFEB3B" offset=".3"/><stop stop-color="#FBC02D" offset="1"/></radialGradient><circle cx="195" cy="95" r="38" fill="url(#p)"/><path d="M195 60a35 35 0 1 1 0 70 35 35 0 0 1 0-70m0-3a38 38 0 1 0 0 76 38 38 0 0 0 0-76z" fill="#424242" opacity=".2"/><g fill="url(#q)"><radialGradient id="q" cx="181" cy="70.3" r="54.5" gradientUnits="userSpaceOnUse"><stop stop-color="#FDD835" offset=".1"/><stop stop-color="#F9A825" offset="1"/></radialGradient><path d="M197.2 66.2l6.9 14c.3.6 1 1.1 1.8 1.3l15.4 2.2.6.2a29 29 0 0 0-25-18.2c0 .2.2.3.3.5zm-28.5 17.5l15.4-2.2c.8-.2 1.5-.7 1.8-1.4l6.9-13.9c0-.2.2-.3.3-.5a29 29 0 0 0-25 18.2l.6-.2zm7.9 32.5l2.6-15.3c.1-.8-.1-1.6-.7-2.2L167.4 88l-.4-.5a28.8 28.8 0 0 0 9.6 29.5v-.7zM223 87.4l-.4.5-11.1 10.8c-.6.6-.8 1.4-.7 2.2l2.6 15.3v.7a28.9 28.9 0 0 0 9.6-29.5zm-13.1 31.4l-13.8-7.3c-.7-.3-1.5-.3-2.2 0l-13.8 7.3-.7.2a28.8 28.8 0 0 0 31.2 0l-.7-.2z"/></g><path d="M202.3 69.7A26 26 0 0 1 216.4 80l-9.8-1.5-4.3-8.8m-5.4-4c0 .2.2.3.3.5l6.9 14c.3.6 1 1.1 1.8 1.3l15.4 2.2.6.2a29 29 0 0 0-25-18.2zm-9.2 4l-4.3 8.8-9.8 1.5a26 26 0 0 1 14.1-10.3m5.4-3.7zm0-.3a29 29 0 0 0-25 18.2l.6-.2 15.4-2.2c.8-.2 1.5-.7 1.8-1.4l6.9-13.9.3-.5zm-24.1 28l7.2 7-1.7 9.8c-3.5-4.5-5.4-10-5.4-16v-.8m-2.1-6.3a28.8 28.8 0 0 0 9.6 29.5v-.7l2.6-15.3c.1-.8-.1-1.6-.7-2.2l-11.1-10.8a2 2 0 0 1-.4-.5zm54 6.3v.9a26 26 0 0 1-5.5 15.9l-1.7-9.8 7.1-7m2.1-6.3l-.4.5-11.1 10.8c-.6.6-.8 1.4-.7 2.2l2.6 15.3v.7a28.9 28.9 0 0 0 9.6-29.5zm-28 26.9l8.9 4.7a25.8 25.8 0 0 1-17.8 0l8.9-4.7m0-3c-.4 0-.8 0-1.1.2l-13.8 7.3-.7.2a28.8 28.8 0 0 0 31.2 0 1 1 0 0 1-.7-.3l-13.8-7.2-1.1-.2z" fill="#424242" opacity=".2"/></svg>