<svg viewBox="0 0 128 128" xmlns="http://www.w3.org/2000/svg"><radialGradient id="a" cx="62.8" cy="4.3" r="119.8" gradientUnits="userSpaceOnUse"><stop stop-color="#CFD8DC" offset="0"/><stop stop-color="#C6D1D6" offset=".2"/><stop stop-color="#AFBDC4" offset=".5"/><stop stop-color="#90A4AE" offset=".8"/><stop stop-color="#90A4AE" offset="1"/></radialGradient><path d="M80 124H48a8 8 0 0 1-8-8V12a8 8 0 0 1 8-8h32a8 8 0 0 1 8 8v104a8 8 0 0 1-8 8z" fill="url(#a)"/><path d="M80 7a5 5 0 0 1 5 5v104a5 5 0 0 1-5 5H48a5 5 0 0 1-5-5V12a5 5 0 0 1 5-5h32m0-3H48a8 8 0 0 0-8 8v104a8 8 0 0 0 8 8h32a8 8 0 0 0 8-8V12a8 8 0 0 0-8-8z" fill="#BDBDBD" opacity=".2"/><path fill="#90A4AE" d="M47.9 23h32v1h-32zm0 12h32v1h-32zm0 12h32v1h-32zm0 12h32v1h-32zm0 12h32v1h-32zm0 12h32v1h-32zm0 12h32v1h-32zm0 12h32v1h-32z" opacity=".2"/><path d="M64 117.5c-3 0-5.5-2.5-5.5-5.5V16a5.5 5.5 0 0 1 11 0v96c0 3-2.5 5.5-5.5 5.5z" fill="#607D8B"/><path d="M64 12a4 4 0 0 1 4 4v96c0 2.2-1.8 4-4 4s-4-1.8-4-4V16a4 4 0 0 1 4-4m0-3a7 7 0 0 0-7 7v96a7 7 0 0 0 14 0V16a7 7 0 0 0-7-7z" fill="#78909C"/><path d="M64 14a2 2 0 0 1 2 2v96c0 1.1-.9 2-2 2s-2-.9-2-2V16c0-1.1.9-2 2-2m0-2a4 4 0 0 0-4 4v96c0 2.2 1.8 4 4 4s4-1.8 4-4V16a4 4 0 0 0-4-4z" fill="#BDBDBD" opacity=".2"/><radialGradient id="b" cx="63.8" cy="80.4" r="14.3" gradientUnits="userSpaceOnUse"><stop stop-color="#40C4FF" offset="0"/><stop stop-color="#3DC1FE" offset=".3"/><stop stop-color="#32B9FA" offset=".5"/><stop stop-color="#21ABF5" offset=".7"/><stop stop-color="#0898ED" offset=".9"/><stop stop-color="#0091EA" offset="1"/></radialGradient><path d="M73.5 89.8h-19a2.5 2.5 0 0 1-2.5-2.5v-7.1c0-1.4 1.1-2.5 2.4-2.5h19.1c1.4 0 2.5 1.1 2.5 2.5v7.1c0 1.4-1.1 2.5-2.5 2.5z" fill="url(#b)"/><path d="M73 80.8v6H55v-6h18m.6-3H54.4a2.5 2.5 0 0 0-2.5 2.4v7.1c0 1.4 1.1 2.5 2.4 2.5h19.1c1.4 0 2.5-1.1 2.5-2.5v-7.1c0-1.4-1.1-2.5-2.5-2.5z" fill="#424242" opacity=".2"/></svg>