<svg viewBox="0 0 128 128" xmlns="http://www.w3.org/2000/svg" xmlns:xlink="http://www.w3.org/1999/xlink"><path fill="#7986CB" d="M70.67 10.38l-7.33-6.33L68.51 4l4.75 5.51z"/><circle cx="72.23" cy="12.58" r="4.13" fill="#5C6BC0"/><radialGradient id="a" cx="59.367" cy="35.325" r="46.414" gradientUnits="userSpaceOnUse"><stop stop-color="#B3E5FC" offset=".003"/><stop stop-color="#4FC3F7" offset=".998"/></radialGradient><path d="M72.87 12.57C52.59 14.94 38.03 32.9 40.36 52.75c1.02 8.74 5.14 16.23 11.18 21.93l56.43-6.6c4.56-6.95 6.84-15.18 5.81-23.92-2.32-19.86-20.64-33.97-40.91-31.59z" fill="url(#a)"/><g fill="#FFEBEE"><path d="M56.62 32.27c-1.31 1.24-2.8.96-2.8.96s-.26-1.72.72-2.92c.9-1.1 2.02-1.94 2.87-2.18.23-.06-.69 1.66-.69 1.66s1.67-1.16 1.63-.88c-.14.95-.81 2.48-1.73 3.36zM55.24 36.77c-1.3-.85-1.13-2.69-1.13-2.69s1.66-1.17 2.89-.67c1.13.46 2.03 1.31 2.32 2.16.08.23-1.66.06-1.66.06s1.24 1.31.97 1.4c-.94.32-2.47.34-3.39-.26zM49.78 32.98c1.65-.33 2.66 1 2.66 1s-.69 1.91-2.07 2.42c-1.27.47-2.57.53-3.36.17-.21-.1 1.39-1.18 1.39-1.18s-1.9-.01-1.72-.26c.62-.85 1.93-1.92 3.1-2.15zM53.53 29.69c.5 1.55-.61 3.13-.61 3.13s-1.86.09-2.51-1.09c-.59-1.09-.8-2.39-.56-3.35.06-.25 1.27.92 1.27.92s-.22-1.94.04-1.86c.86.27 2.01 1.15 2.37 2.25zM50.98 37.16c.61-1.69 2.34-2.31 2.34-2.31s1.31 1.17 1.02 2.63c-.27 1.35-.93 2.62-1.68 3.29-.2.18-.29-1.65-.29-1.65s-1.04 1.83-1.17 1.59c-.42-.82-.65-2.36-.22-3.55z"/></g><path d="M88 62.33c-.34-16.2-5.83-40.5-13.3-50.05-.4.02-2.11.23-2.42.31 9.97 13.69 12.89 40.55 13.06 49.38.05 2.9-.65 5.02-1 8.02H87c.09-1.99 1.06-4.96 1-7.66z" fill="#9FA8DA"/><path d="M86.32 70.56c-1.67 14.78-10.39 30.38-25.06 34.36-.68.19.82 3.77.24 3.92 6.5-1.67 15.44-8.19 19.33-15.67 3.7-7.11 5.83-14.92 6.08-22.7l-.59.09z" fill="#7986CB"/><path d="M17.9 98.71s8.84 5.4 21.73 5.85 23.45-7.14 23.45-7.14l6.42 14.84s-13.34 8.34-25.55 10.83c-12 2.45-19.39-1.34-19.39-1.34s-6.83-5.01-7.96-8.84c-2.35-7.88 1.3-14.2 1.3-14.2z" fill="#E8EAF6"/><path d="M29.6 115.17s-1.38 1.17-4.86.96c-5.03-.3-7.76-2.36-7.76-2.36s3 4.69 7.1 7.59c4.07 2.87 8.84 2.44 8.84 2.44s-1.67-1.59-2.42-4.24c-.76-2.65-.9-4.39-.9-4.39z" fill="#C5CAE9"/><path d="M86.09 62.68c-4.37.51-7.43 5.04-6.98 8.84l15.82-1.85c-.45-3.8-4.47-7.5-8.84-6.99z" fill="#DCE775"/><path d="M87.94 78.5c4.37-.51 7.54-4.09 6.98-8.84L79.1 71.52c.56 4.74 4.47 7.49 8.84 6.98z" fill="#FFF59D"/><defs><path id="b" d="M72.87 12.57C52.59 14.94 38.03 32.9 40.36 52.75c1.02 8.74 5.14 16.23 11.18 21.93l56.43-6.6c4.56-6.95 6.84-15.18 5.81-23.92-2.32-19.86-20.64-33.97-40.91-31.59z"/></defs><clipPath id="c"><use xlink:href="#b"/></clipPath><g clip-path="url(#c)" fill="#FFEBEE"><path d="M53.54 51.34c-.28 3.68-3.35 5.42-3.35 5.42s-3.24-2.14-3.47-5.27c-.21-2.89.4-5.73 1.52-7.31.3-.42 1.48 3.39 1.48 3.39s1.06-4.09 1.44-3.62c1.27 1.6 2.58 4.77 2.38 7.39zM58.39 59.85c-3.66.63-6.34-2.28-6.34-2.28s1.03-4.08 3.99-5.12c2.74-.96 5.68-1.02 7.57-.21.5.22-2.81 2.48-2.81 2.48s4.31.11 3.97.65c-1.12 1.8-3.78 4.03-6.38 4.48zM42.67 62.21c2.38-2.86 6.3-2.38 6.3-2.38s1.87 3.77.29 6.49c-1.46 2.51-3.65 4.46-5.63 5.07-.52.16.53-3.71.53-3.71s-3.35 2.71-3.44 2.09c-.31-2.1.26-5.53 1.95-7.56zM43.94 52.04c3.39 1.52 3.99 5.42 3.99 5.42s-3.13 2.81-6.17 2.02c-2.81-.73-5.28-2.32-6.4-4.05-.3-.46 3.72-.49 3.72-.49s-3.51-2.5-2.94-2.75c1.94-.86 5.39-1.23 7.8-.15zM51.54 66.54c-1.66-3.32.36-6.72.36-6.72s4.2-.19 6.06 2.35c1.71 2.34 2.61 5.14 2.38 7.19-.06.54-3.18-1.98-3.18-1.98s1.13 4.16.52 3.99c-2.06-.56-4.96-2.47-6.14-4.83z"/></g><g clip-path="url(#c)"><path d="M86.3 13.2c1.35 2.54.05 4.96.05 4.96s-3.02-.06-4.47-2.03c-1.34-1.82-2.12-3.93-2.04-5.44.02-.4 2.38 1.62 2.38 1.62s-1.01-3.13-.56-2.98c1.51.52 3.69 2.07 4.64 3.87zM93.03 16.77c-2.14 1.94-5.11 1.14-5.11 1.14s-1.02-3.11.5-5.03c1.4-1.77 3.31-3.03 4.89-3.28.42-.07-.82 2.8-.82 2.8s2.88-1.72 2.88-1.23c0 1.66-.82 4.23-2.34 5.6z" fill="#E1BEE7"/><path d="M83.68 24.86c.37-2.86 3.15-4.18 3.15-4.18s2.79 1.7 2.89 4.15c.08 2.25-.55 4.45-1.59 5.67-.28.32-1.19-2.66-1.19-2.66s-1.08 3.17-1.39 2.8c-1.09-1.25-2.14-3.74-1.87-5.78zM80.28 17.65c2.86-.41 4.88 1.91 4.88 1.91s-.89 3.15-3.22 3.9c-2.15.69-4.44.67-5.89 0-.39-.18 2.24-1.87 2.24-1.87s-3.35-.18-3.07-.59c.92-1.38 3.03-3.06 5.06-3.35z" fill="#FFCDD2"/><path d="M91.31 24.02c-2.47-1.5-2.56-4.57-2.56-4.57s2.68-1.87 4.96-.97c2.1.83 3.86 2.29 4.55 3.74.19.38-2.91.02-2.91.02s2.47 2.26 2 2.41c-1.59.48-4.29.43-6.04-.63z" fill="#E1BEE7"/></g><g clip-path="url(#c)"><path d="M104.86 32.1c1.11 3.52-1.08 6.27-1.08 6.27s-3.8-.77-5.18-3.59c-1.27-2.6-1.77-5.45-1.32-7.33.12-.5 2.64 2.59 2.64 2.59s-.55-4.18-.02-3.89c1.78 1 4.17 3.45 4.96 5.95zM112.53 38.17c-3.15 1.95-6.71.26-6.71.26s-.57-4.16 1.79-6.23c2.17-1.91 4.87-3.07 6.93-3.02.55.01-1.68 3.34-1.68 3.34s4.03-1.5 3.92-.88c-.38 2.08-2.01 5.14-4.25 6.53z" fill="#E1BEE7"/><path d="M98.86 46.22c1.13-3.53 4.94-4.55 4.94-4.55s3.13 2.79 2.69 5.9c-.41 2.87-1.72 5.5-3.32 6.8-.42.35-.89-3.63-.89-3.63s-2.09 3.76-2.41 3.22c-1.07-1.85-1.82-5.23-1.01-7.74zM96.23 36.33c3.7.14 5.72 3.53 5.72 3.53s-1.85 3.77-4.96 4.18c-2.87.37-5.76-.17-7.44-1.36-.45-.32 3.26-1.84 3.26-1.84s-4.18-1-3.75-1.45c1.49-1.53 4.54-3.16 7.17-3.06z" fill="#FFCDD2"/><path d="M108.68 46.92c-2.78-2.46-2.18-6.36-2.18-6.36s3.82-1.74 6.48-.08c2.46 1.53 4.34 3.79 4.88 5.77.15.53-3.68-.65-3.68-.65s2.6 3.43 1.97 3.5c-2.1.25-5.49-.43-7.47-2.18z" fill="#E1BEE7"/></g><path d="M61.7 101.78l4 9.23c-4.19 2.38-13.65 7.36-22.35 9.13-2.47.51-4.93.76-7.3.76-.98 0-1.95-.04-2.9-.13-.09-.01-.18.08-.26.08-.2 0-.4.15-.6.15h-.05c-.96 0-3.44-.23-5.73-1.56-.1-.06-.21-.16-.32-.21-.02-.01-.05-.04-.07-.05-.14-.11-.34-.27-.57-.46-.02-.02-.05-.04-.07-.06-.56-.42-1.12-.9-1.67-1.41-.02-.02-.04-.04-.06-.05-3.45-3.08-4.14-4.71-4.26-5.14-1.09-3.68-.62-6.99 0-9.17 3.86 1.76 11 4.36 20.05 4.67.4.01.8.02 1.2.02 9.06-.01 16.84-3.51 20.96-5.8m1.38-4.37s-9.97 7.16-22.35 7.16c-.36 0-.73-.01-1.1-.02-12.89-.45-21.73-5.85-21.73-5.85s-3.64 6.32-1.3 14.2c.65 2.17 3.12 4.72 5.14 6.53.6.57 1.25 1.12 1.93 1.63.54.43.89.69.89.69s.16.08.43.2c2.88 1.68 5.91 1.88 7.24 1.88.44 0 .69-.02.69-.02l-.04-.04c.98.09 2.04.14 3.17.14 2.33 0 4.98-.22 7.9-.82 12.21-2.5 25.55-10.83 25.55-10.83l-6.42-14.85zM86.91 64.63c3.1 0 5.74 2.78 6.03 5.26.2 1.73-.21 3.29-1.21 4.51-.96 1.17-2.38 1.92-4.02 2.11-.27.03-.54.05-.8.05-3.11 0-5.45-2.12-5.82-5.28-.16-1.35.33-2.92 1.3-4.22 1.03-1.37 2.43-2.23 3.93-2.4.19-.02.39-.03.59-.03m0-2c-.27 0-.54.02-.82.05-4.37.51-7.43 5.04-6.98 8.84.51 4.37 3.87 7.05 7.8 7.05.34 0 .69-.02 1.03-.06 4.37-.51 7.54-4.09 6.98-8.84-.41-3.56-3.97-7.04-8.01-7.04z" fill="#424242" opacity=".2"/><g fill="#5C6BC0"><path d="M62.62 105.24c.01.04.01.09.02.13 0-.04-.01-.07-.01-.11-.01-.01-.01-.01-.01-.02zM62.62 105.23v.03-.03z"/><path d="M66.39 103.52c-1.01-.53-2.49-.92-3.6-.38-1.15.57-1.73 2.3-1.47 3.44.25 1.05.68 1.9 1.13 2.83.14.28.54.26.65-.04.21-.59.64-1.33 1.52-1.97 1.05-.76 2.65-.29 3.43.55-.03-.04-1.55-4.37-1.66-4.43z"/></g><path d="M77.31 15.31c17.14 0 31.54 12.55 33.48 29.19.84 7.22-.75 14.37-4.61 20.76l-53.59 6.27c-5.23-5.33-8.43-11.92-9.28-19.14-1.03-8.79 1.51-17.45 7.13-24.41 5.64-6.97 13.72-11.39 22.75-12.44 1.39-.15 2.77-.23 4.12-.23m0-3c-1.47 0-2.95.09-4.45.26-20.28 2.37-34.84 20.33-32.51 40.18 1.02 8.74 5.14 16.23 11.18 21.93l56.43-6.6c4.56-6.95 6.84-15.18 5.81-23.92-2.14-18.39-18.01-31.85-36.46-31.85z" fill="#424242" opacity=".2"/></svg>