<svg viewBox="0 0 128 128" xmlns="http://www.w3.org/2000/svg" xmlns:xlink="http://www.w3.org/1999/xlink"><path fill="#7986CB" d="M70.7 10.4L63.3 4h5.2l4.8 5.5z"/><circle cx="72.2" cy="12.6" r="4.1" fill="#5C6BC0"/><radialGradient id="a" cx="59.4" cy="35.3" r="46.4" gradientUnits="userSpaceOnUse"><stop stop-color="#B3E5FC" offset="0"/><stop stop-color="#4FC3F7" offset="1"/></radialGradient><path d="M72.9 12.6a36.5 36.5 0 0 0-32.5 40.1c1 8.8 5.1 16.3 11.1 22L108 68c4.5-7 6.8-15.2 5.8-24a36.5 36.5 0 0 0-41-31.5z" fill="url(#a)"/><path d="M56.6 32.3c-1.3 1.2-2.8 1-2.8 1s-.2-1.8.7-3c1-1 2-2 3-2.2l-.8 1.7s1.7-1.2 1.6-.9c0 1-.8 2.5-1.7 3.4zm-1.4 4.5c-1.3-.9-1-2.7-1-2.7s1.6-1.2 2.8-.7c1.1.5 2 1.3 2.3 2.2.1.2-1.6 0-1.6 0s1.2 1.3 1 1.4c-1 .4-2.5.4-3.5-.2zM49.8 33c1.6-.4 2.6 1 2.6 1s-.7 1.9-2 2.4-2.6.5-3.4.2c-.2-.1 1.4-1.2 1.4-1.2s-1.9 0-1.7-.3c.6-.8 2-1.9 3-2.1zm3.7-3.3c.5 1.5-.6 3.1-.6 3.1s-1.8.1-2.5-1a5 5 0 0 1-.5-3.4c0-.3 1.2.9 1.2.9s-.2-2 0-1.9a4 4 0 0 1 2.4 2.3zM51 37.2c.6-1.7 2.3-2.4 2.3-2.4s1.3 1.2 1 2.7a6.4 6.4 0 0 1-1.6 3.3c-.2.1-.3-1.7-.3-1.7s-1 1.8-1.2 1.6a5 5 0 0 1-.2-3.5z" fill="#FFEBEE"/><path d="M88 62.3c-.3-16.2-5.8-40.5-13.3-50l-2.4.3c10 13.7 12.9 40.5 13 49.4 0 2.9-.6 5-1 8H87c0-2 1-5 1-7.7z" fill="#9FA8DA"/><path d="M86.3 70.6c-1.7 14.7-10.4 30.3-25 34.3-.7.2.8 3.8.2 4a34.6 34.6 0 0 0 19.3-15.7c3.7-7.1 5.9-15 6.1-22.7h-.6z" fill="#7986CB"/><path d="M17.9 98.7s8.8 5.4 21.7 5.9 23.5-7.2 23.5-7.2l6.4 14.9s-13.3 8.3-25.6 10.8c-12 2.4-19.3-1.4-19.3-1.4s-6.9-5-8-8.8a19.4 19.4 0 0 1 1.3-14.2z" fill="#E8EAF6"/><path d="M29.6 115.2s-1.4 1.1-4.9 1c-5-.4-7.7-2.4-7.7-2.4s3 4.7 7 7.6c4.2 2.8 9 2.4 9 2.4s-1.7-1.6-2.5-4.2c-.8-2.7-.9-4.4-.9-4.4z" fill="#C5CAE9"/><path d="M86 62.7c-4.3.5-7.3 5-6.9 8.8L95 69.7a8.3 8.3 0 0 0-8.8-7z" fill="#DCE775"/><path d="M88 78.5c4.3-.5 7.5-4 7-8.8l-16 1.8a7.7 7.7 0 0 0 8.8 7z" fill="#FFF59D"/><defs><path id="b" d="M72.9 12.6a36.5 36.5 0 0 0-32.5 40.1c1 8.8 5.1 16.3 11.1 22L108 68c4.5-7 6.8-15.2 5.8-24a36.5 36.5 0 0 0-41-31.5z"/></defs><clipPath id="c"><use xlink:href="#b"/></clipPath><g clip-path="url(#c)" fill="#FFEBEE"><path d="M53.5 51.3c-.2 3.7-3.3 5.5-3.3 5.5s-3.3-2.2-3.5-5.3a12 12 0 0 1 1.5-7.3c.3-.4 1.5 3.4 1.5 3.4s1-4.1 1.5-3.6a12 12 0 0 1 2.3 7.3zm4.9 8.6c-3.7.6-6.3-2.3-6.3-2.3s1-4.1 4-5.2c2.7-1 5.6-1 7.5-.2.5.3-2.8 2.5-2.8 2.5s4.3.1 4 .7c-1.2 1.8-3.8 4-6.4 4.4zm-15.7 2.3c2.3-2.9 6.3-2.4 6.3-2.4s1.8 3.8.3 6.5a11.1 11.1 0 0 1-5.7 5c-.5.2.6-3.6.6-3.6s-3.4 2.7-3.5 2c-.3-2 .3-5.5 2-7.5zM44 52c3.3 1.6 4 5.5 4 5.5s-3.2 2.8-6.2 2c-2.8-.7-5.3-2.3-6.4-4-.3-.5 3.7-.6 3.7-.6s-3.5-2.5-3-2.7a11 11 0 0 1 7.8-.2zm7.5 14.5c-1.6-3.3.4-6.7.4-6.7s4.2-.2 6 2.4c1.8 2.3 2.7 5.1 2.4 7.2 0 .5-3.1-2-3.1-2s1 4.1.5 4c-2-.6-5-2.5-6.2-4.9z"/></g><g clip-path="url(#c)"><path d="M86.3 13.2c1.4 2.5 0 5 0 5s-3-.1-4.4-2a9.4 9.4 0 0 1-2-5.5c0-.4 2.3 1.6 2.3 1.6s-1-3.1-.5-3c1.5.5 3.6 2.1 4.6 3.9zm6.7 3.6c-2.1 2-5 1.1-5 1.1s-1.1-3.1.4-5c1.4-1.8 3.3-3 5-3.3.3 0-1 2.8-1 2.8s3-1.7 3-1.2c0 1.6-.9 4.2-2.4 5.6z" fill="#E1BEE7"/><path d="M83.7 24.9c.4-2.9 3.1-4.2 3.1-4.2s2.8 1.7 3 4.1c0 2.3-.6 4.5-1.7 5.7-.2.3-1.2-2.7-1.2-2.7s-1 3.2-1.3 2.8a8.3 8.3 0 0 1-2-5.7zm-3.4-7.3c2.8-.4 4.9 2 4.9 2s-1 3.1-3.3 3.9c-2.1.6-4.4.6-5.9 0-.3-.2 2.3-2 2.3-2s-3.4 0-3-.5c.8-1.4 3-3 5-3.4z" fill="#FFCDD2"/><path d="M91.3 24c-2.5-1.5-2.5-4.6-2.5-4.6s2.6-1.8 5-1c2 1 3.8 2.4 4.5 3.8.1.4-3 0-3 0s2.5 2.3 2 2.4a8 8 0 0 1-6-.6z" fill="#E1BEE7"/></g><g clip-path="url(#c)"><path d="M104.9 32.1c1 3.5-1.1 6.3-1.1 6.3s-3.8-.8-5.2-3.6a12 12 0 0 1-1.3-7.3c.1-.5 2.6 2.5 2.6 2.5s-.5-4.1 0-3.8a12 12 0 0 1 5 5.9zm7.6 6.1c-3.1 2-6.7.2-6.7.2s-.5-4.1 1.8-6.2c2.2-2 4.9-3 7-3 .5 0-1.7 3.3-1.7 3.3s4-1.5 3.9-.9c-.4 2.1-2 5.2-4.3 6.6z" fill="#E1BEE7"/><path d="M98.9 46.2c1-3.5 4.9-4.5 4.9-4.5s3.1 2.8 2.7 5.9c-.4 2.8-1.7 5.5-3.3 6.8-.5.3-1-3.7-1-3.7s-2 3.8-2.3 3.3a10.4 10.4 0 0 1-1-7.8zm-2.7-9.9c3.7.2 5.8 3.6 5.8 3.6s-1.9 3.7-5 4.1c-2.9.4-5.8-.1-7.4-1.3-.5-.3 3.2-1.9 3.2-1.9s-4.2-1-3.7-1.4c1.5-1.5 4.5-3.2 7.1-3z" fill="#FFCDD2"/><path d="M108.7 47c-2.8-2.5-2.2-6.4-2.2-6.4s3.8-1.8 6.5-.1a11 11 0 0 1 4.9 5.8c.1.5-3.7-.7-3.7-.7s2.6 3.4 2 3.5c-2.2.3-5.5-.4-7.5-2.2z" fill="#E1BEE7"/></g><path d="M61.7 101.8l4 9.2a84.7 84.7 0 0 1-22.4 9.1 36.2 36.2 0 0 1-10.1.7h-.3l-.6.2c-1 0-3.5-.2-5.8-1.6l-.3-.2-.6-.5h-.1l-1.7-1.4v-.1c-3.5-3-4.2-4.7-4.3-5.1-1.1-3.7-.6-7 0-9.2a53.5 53.5 0 0 0 21.2 4.7c9.1 0 16.9-3.5 21-5.8m1.4-4.4s-10 7.2-22.4 7.2h-1c-13-.5-21.8-5.9-21.8-5.9s-3.6 6.3-1.3 14.2a18 18 0 0 0 5.1 6.5A21.8 21.8 0 0 0 25 122c2.9 1.6 5.9 1.8 7.2 1.8h.7a34.7 34.7 0 0 0 11-.7c12.3-2.5 25.6-10.8 25.6-10.8l-6.4-14.9zM87 64.6c3 0 5.6 2.8 6 5.3.1 1.7-.3 3.3-1.3 4.5a6 6 0 0 1-4.8 2.2 5.7 5.7 0 0 1-5.8-5.3c-.2-1.4.3-3 1.3-4.2a5.8 5.8 0 0 1 4.5-2.5m0-2h-.8c-4.4.6-7.4 5.1-7 9a7.7 7.7 0 0 0 8.8 7 7.9 7.9 0 0 0 7-9c-.4-3.5-4-7-8-7z" fill="#424242" opacity=".2"/><path d="M62.6 105.2v.1zm0 0zm3.8-1.7c-1-.5-2.5-.9-3.6-.4-1.2.6-1.7 2.3-1.5 3.5.3 1 .7 1.9 1.2 2.8 0 .3.5.3.6 0 .2-.6.6-1.4 1.5-2 1-.8 2.7-.3 3.5.5l-1.7-4.4z" fill="#5C6BC0"/><path d="M77.3 15.3a33.4 33.4 0 0 1 33.5 29.2c.8 7.2-.8 14.4-4.6 20.8l-53.6 6.2A32.5 32.5 0 0 1 50.4 28a34.1 34.1 0 0 1 27-12.7m0-3a36.5 36.5 0 0 0-37 40.4c1 8.8 5 16.3 11.1 22L108 68c4.5-7 6.8-15.2 5.8-24a36.4 36.4 0 0 0-36.5-31.8z" fill="#424242" opacity=".2"/></svg>