<svg viewBox="0 0 128 128" xmlns="http://www.w3.org/2000/svg" xmlns:xlink="http://www.w3.org/1999/xlink"><defs><path id="a" d="M4 3.42h120v120H4z"/></defs><clipPath id="b"><use xlink:href="#a"/></clipPath><g clip-path="url(#b)" mask="url(#c)"><radialGradient id="d" cx="43.532" cy="26.472" r="85.832" gradientUnits="userSpaceOnUse"><stop stop-color="#FFF59D" offset=".362"/><stop stop-color="#FFF38A" offset=".449"/><stop stop-color="#FFF06F" offset=".603"/><stop stop-color="#FFEF5E" offset=".739"/><stop stop-color="#FFEE58" offset=".841"/></radialGradient><circle cx="58.1" cy="58.1" r="54.1" fill="url(#d)"/><circle cx="58.1" cy="58.1" r="54.1" fill="none"/><circle cx="58.1" cy="58.1" r="54.1" fill="none"/><radialGradient id="e" cx="24.612" cy="71.183" r="12.718" gradientUnits="userSpaceOnUse"><stop stop-color="#FDD835" offset=".154"/><stop stop-color="#FDDA38" offset=".426"/><stop stop-color="#FEE042" offset=".638"/><stop stop-color="#FFEA52" offset=".829"/><stop stop-color="#FFEE58" offset=".878"/></radialGradient><path d="M35.61 72.84c.82 5.41-3.21 10.51-8.99 11.38S15.5 81.41 14.68 76s3.21-10.51 8.99-11.38 11.12 2.81 11.94 8.22z" fill="url(#e)"/><radialGradient id="f" cx="36.461" cy="88.236" r="11.949" gradientUnits="userSpaceOnUse"><stop stop-color="#FDD835" offset=".154"/><stop stop-color="#FDDA38" offset=".426"/><stop stop-color="#FEE042" offset=".638"/><stop stop-color="#FFEA52" offset=".829"/><stop stop-color="#FFEE58" offset=".878"/></radialGradient><path d="M43.91 96.95c-.69 3.68-4.22 6.1-7.88 5.41s-6.07-4.23-5.37-7.9c.69-3.68 4.22-6.1 7.88-5.41 3.65.69 6.06 4.22 5.37 7.9z" fill="url(#f)"/><path d="M58.1 7c28.18 0 51.1 22.92 51.1 51.1s-22.92 51.1-51.1 51.1S7 86.28 7 58.1 29.92 7 58.1 7m0-3C28.22 4 4 28.22 4 58.1s24.22 54.1 54.1 54.1 54.1-24.22 54.1-54.1S87.98 4 58.1 4z" fill="#424242" opacity=".2"/><radialGradient id="g" cx="56.687" cy="86.288" r="13.546" gradientUnits="userSpaceOnUse"><stop stop-color="#FDD835" offset=".154"/><stop stop-color="#FDDA38" offset=".426"/><stop stop-color="#FEE042" offset=".638"/><stop stop-color="#FFEA52" offset=".829"/><stop stop-color="#FFEE58" offset=".878"/></radialGradient><circle cx="57.26" cy="89.38" r="7.97" fill="url(#g)"/><radialGradient id="h" cx="99.311" cy="23.849" r="10.584" gradientTransform="matrix(.0682 .9977 -1.0103 .069 113.02 -54.601)" gradientUnits="userSpaceOnUse"><stop stop-color="#FDD835" offset=".154"/><stop stop-color="#FDDA38" offset=".426"/><stop stop-color="#FEE042" offset=".638"/><stop stop-color="#FFEA52" offset=".829"/><stop stop-color="#FFEE58" offset=".878"/></radialGradient><path d="M105.16 48.07c-.11 4.92-4.27 8.82-9.31 8.71-5.03-.11-9.03-4.19-8.92-9.1s4.27-8.82 9.31-8.71c5.03.1 9.03 4.18 8.92 9.1z" fill="url(#h)"/><radialGradient id="i" cx="83.94" cy="-7.736" r="6.736" fx="83.588" fy="-8.139" gradientTransform="matrix(.9964 .0852 -.0775 .9066 17.837 62.849)" gradientUnits="userSpaceOnUse"><stop stop-color="#FDD835" offset=".154"/><stop stop-color="#FDDA38" offset=".426"/><stop stop-color="#FEE042" offset=".638"/><stop stop-color="#FFEA52" offset=".829"/><stop stop-color="#FFEE58" offset=".878"/></radialGradient><path d="M106.68 64.41c-.23 2.67-2.57 4.66-5.23 4.43s-4.63-2.58-4.41-5.25 2.57-4.66 5.23-4.43c2.67.23 4.64 2.58 4.41 5.25z" fill="url(#i)"/><radialGradient id="j" cx="68.089" cy="-40.901" r="6.736" fx="67.737" fy="-41.304" gradientTransform="matrix(.9964 .0852 -.0775 .9066 18.092 59.872)" gradientUnits="userSpaceOnUse"><stop stop-color="#FDD835" offset=".154"/><stop stop-color="#FDDA38" offset=".426"/><stop stop-color="#FEE042" offset=".638"/><stop stop-color="#FFEA52" offset=".829"/><stop stop-color="#FFEE58" offset=".878"/></radialGradient><path d="M95.29 30.24c-.23 2.67-2.57 4.66-5.23 4.43s-4.63-2.58-4.41-5.25 2.57-4.66 5.23-4.43c2.67.23 4.64 2.58 4.41 5.25z" fill="url(#j)"/><radialGradient id="k" cx="77.237" cy="10.937" r="6.736" fx="76.885" fy="10.534" gradientTransform="matrix(.9964 .0852 -.0775 .9066 17.694 64.525)" gradientUnits="userSpaceOnUse"><stop stop-color="#FDD835" offset=".154"/><stop stop-color="#FDDA38" offset=".426"/><stop stop-color="#FEE042" offset=".638"/><stop stop-color="#FFEA52" offset=".829"/><stop stop-color="#FFEE58" offset=".878"/></radialGradient><path d="M99.09 82.45c-.23 2.67-2.57 4.66-5.23 4.43s-4.63-2.58-4.41-5.25 2.57-4.66 5.23-4.43c2.66.22 4.63 2.57 4.41 5.25z" fill="url(#k)"/></g><g clip-path="url(#b)"><path fill="#795548" d="M105.63 128.73H66.2l3.09-35.55h33.25z"/><circle cx="85.82" cy="62.85" r="11.07" fill="#FFF8E1"/><path d="M85.82 53.78c5 0 9.07 4.07 9.07 9.07s-4.07 9.07-9.07 9.07-9.07-4.07-9.07-9.07 4.07-9.07 9.07-9.07m0-2c-6.11 0-11.07 4.96-11.07 11.07s4.96 11.07 11.07 11.07 11.07-4.96 11.07-11.07-4.96-11.07-11.07-11.07z" fill="#424242" opacity=".2"/><circle cx="76.31" cy="75.3" r="11.07" fill="#FFF8E1"/><path d="M76.31 66.23c5 0 9.07 4.07 9.07 9.07s-4.07 9.07-9.07 9.07-9.07-4.07-9.07-9.07 4.07-9.07 9.07-9.07m0-2c-6.11 0-11.07 4.96-11.07 11.07s4.96 11.07 11.07 11.07 11.07-4.96 11.07-11.07-4.96-11.07-11.07-11.07z" fill="#424242" opacity=".2"/><circle cx="95.33" cy="75.3" r="11.07" fill="#FFF8E1"/><path d="M95.33 66.23c5 0 9.07 4.07 9.07 9.07s-4.07 9.07-9.07 9.07-9.07-4.07-9.07-9.07 4.07-9.07 9.07-9.07m0-2c-6.11 0-11.07 4.96-11.07 11.07s4.96 11.07 11.07 11.07 11.07-4.96 11.07-11.07-4.95-11.07-11.07-11.07z" fill="#424242" opacity=".2"/><circle cx="69.91" cy="86.71" r="11.07" fill="#FFF8E1"/><circle cx="101.73" cy="86.71" r="11.07" fill="#FFF8E1"/><path d="M69.91 77.65c5 0 9.07 4.07 9.07 9.07s-4.07 9.07-9.07 9.07-9.07-4.07-9.07-9.07 4.07-9.07 9.07-9.07m0-2c-6.11 0-11.07 4.96-11.07 11.07s4.96 11.07 11.07 11.07 11.07-4.96 11.07-11.07c0-6.12-4.96-11.07-11.07-11.07zM101.73 77.65c5 0 9.07 4.07 9.07 9.07s-4.07 9.07-9.07 9.07-9.07-4.07-9.07-9.07 4.07-9.07 9.07-9.07m0-2c-6.11 0-11.07 4.96-11.07 11.07s4.96 11.07 11.07 11.07 11.07-4.96 11.07-11.07c0-6.12-4.96-11.07-11.07-11.07z" fill="#424242" opacity=".2"/><circle cx="85.82" cy="86.71" r="11.07" fill="#FFF8E1"/><path d="M85.82 77.65c5 0 9.07 4.07 9.07 9.07s-4.07 9.07-9.07 9.07-9.07-4.07-9.07-9.07 4.07-9.07 9.07-9.07m0-2c-6.11 0-11.07 4.96-11.07 11.07s4.96 11.07 11.07 11.07 11.07-4.96 11.07-11.07c0-6.12-4.96-11.07-11.07-11.07z" fill="#424242" opacity=".2"/><path d="M115.38 102.06H56.51c-1.6 0-2.89-1.29-2.89-2.89v-6.73c0-1.6 1.29-2.89 2.89-2.89h58.87c1.6 0 2.89 1.29 2.89 2.89v6.73c0 1.6-1.29 2.89-2.89 2.89z" fill="#8D6E63"/><path d="M115.14 93c.07 0-.14-.39-.14-.32v6.25c0 .07.21.07.14.07h-11.83c-.84 0-1.64.38-2.21 1s-.85 1.6-.78 2.44l2.03 23.56H69.47l2.03-23.55c.07-.84-.21-1.76-.78-2.38-.56-.62-1.36-1.07-2.2-1.07H56.75c-.07 0 .25 0 .25-.07v-6.25c0-.07-.32.32-.25.32H115m.14-3H56.75c-1.73 0-2.75.95-2.75 2.68v6.25c0 1.73 1.02 3.07 2.75 3.07h11.77l-2.32 27h39.43l-2.31-27h11.83c1.73 0 2.86-1.34 2.86-3.07v-6.25c-.01-1.73-1.14-2.68-2.87-2.68z" fill="#424242" opacity=".2"/></g><path d="M89.43 110.77c-.33-1.93-1.66-3.38-3.52-3.38s-3.18 1.45-3.52 3.38c-1.64.39-2.87.45-2.87 2.49 0 2.33 3.95 6.13 6.48 6.13s6.3-3.79 6.3-6.13c0-2.04-1.23-2.1-2.87-2.49z" clip-path="url(#b)" fill="#4E342E"/><path d="M73.14 17.13c-15.46-.98-32.59 9.18-42.03 20.65-15.68 19.06-15.86 46.61-15.64 70.1.07 7.44.43 14.85.93 22.27.31 4.61 8.41 4.64 8.1 0-.86-12.82-1.49-25.89-1.05-38.8 5.63-5.25 12.4-5.88 19.6-2.69 1.14.5 2.54-.89 1.44-1.87-4.46-3.99-10.53-4.95-15.95-3.41 5.99-4.18 13.72-5.33 20.91-3.65 1.27.3 2.15-1.52.92-2.18-5.1-2.74-11.44-2.93-17.19-1.19 7.36-4.29 15.61-6.01 24.45-3.85 1.62.4 2.76-1.97 1.17-2.78-10.28-5.29-22.21-2.04-31.23 4.53 2.17-3.35 4.81-6.37 8.02-8.84 8.14-6.28 18.63-7.95 28.66-7.24 1.8.13 2.22-2.81.43-3.17-10.97-2.2-22.98-.07-31.96 6.8-2.7 2.07-5.14 4.55-7.29 7.3l.01-.08c.33-2.07 2.29-4.98 3.74-6.5 7.18-7.52 16.47-10.27 27.12-10.84 1.57-.09 1.49-2.19 0-2.38-9.96-1.32-20.86 2.09-28.72 8.7 8.05-11.55 24.13-15.51 37.6-14.09 1.37.14 1.57-1.98.32-2.34-10.31-2.95-23.3-.84-32.75 5.4.04-.07.08-.14.12-.2.11-.18.23-.36.34-.53 8.04-9.78 22.66-12.93 34.41-14.81 1.76-.28 1.23-2.92-.4-2.99-6.81-.28-14.73.93-21.9 3.75 3.65-3.07 7.68-5.66 12.01-7.63 5.18-2.35 10.82-3.91 16.41-4.9 2.62-.47 1.79-2.39-.6-2.54z" clip-path="url(#b)" fill="#FFA726"/><g clip-path="url(#b)" opacity=".2"><path d="M71.05 18.07c.68 0 1.36.02 2.02.06.6.04.99.21 1.17.35-.12.06-.34.15-.68.21-6.2 1.1-11.81 2.77-16.65 4.98-4.31 1.96-8.43 4.57-12.24 7.77a1.001 1.001 0 0 0 1.01 1.7c6.09-2.4 13.04-3.72 19.56-3.72.65 0 1.29.01 1.92.04.34.01.53.4.54.66.02.3-.13.32-.25.34-12.84 2.05-27.05 5.46-35.02 15.16-.03.03-.05.07-.08.11l-.14.21-.21.33c-.03.05-.05.09-.08.14l-.04.07c-.24.4-.17.91.17 1.24.19.18.44.28.69.28.19 0 .38-.05.55-.17 6.3-4.16 14.45-6.55 22.37-6.55 3.38 0 6.59.43 9.56 1.27.03.01.06.02.09.11.04.13 0 .26-.03.27-1.78-.19-3.6-.28-5.42-.28-14.28 0-26.65 5.53-33.11 14.79-.29.41-.22.97.15 1.31.19.17.43.26.67.26.23 0 .46-.08.64-.24 6.6-5.56 15.26-8.75 23.75-8.75 1.42 0 2.83.09 4.19.27.27.04.28.22.28.28 0 .05 0 .11-.2.12-12.31.67-21.13 4.2-27.76 11.12-1.35 1.41-3.63 4.58-4.05 7.13-.07.45.17.89.59 1.08.13.06.27.08.4.08a1 1 0 0 0 .79-.39c2.15-2.76 4.54-5.16 7.1-7.12 6.26-4.79 14.42-7.43 22.96-7.43 2.75 0 5.51.27 8.19.81.36.07.36.45.34.62 0 .02-.06.58-.5.58-1.45-.1-2.9-.16-4.31-.16-10.07 0-18.5 2.56-25.03 7.6-3.13 2.41-5.9 5.47-8.24 9.09-.26.4-.2.94.15 1.27.19.18.44.27.69.27.21 0 .41-.06.59-.19 6.18-4.5 13.12-6.98 19.55-6.98 3.79 0 7.37.85 10.63 2.53.16.08.26.19.2.43-.06.25-.29.51-.56.51-.04 0-.08-.01-.12-.02-2.61-.64-5.25-.96-7.85-.96-5.91 0-11.74 1.65-17.34 4.92-.44.26-.62.8-.41 1.26.16.37.53.6.92.6.1 0 .19-.01.29-.04 2.38-.72 4.79-1.08 7.18-1.08 3.38 0 6.58.76 9.25 2.19.05.03.06.05.06.05.01.02 0 .1-.06.18-.02.03-.09.11-.17.11-.02 0-.03 0-.05-.01-2.19-.51-4.43-.77-6.66-.77-5.57 0-10.77 1.58-15.06 4.57a1.002 1.002 0 0 0 .57 1.82c.09 0 .18-.01.27-.04 1.54-.44 3.12-.66 4.69-.66 3.88 0 7.54 1.37 10.32 3.85.03.03.05.05.06.05-.04.07-.17.18-.33.18-.04 0-.07-.01-.1-.02-3.04-1.35-6-2.03-8.81-2.03-4.39 0-8.39 1.65-11.88 4.9-.19.18-.31.43-.32.7-.46 13.57.28 27.28 1.06 38.9.04.63-.13 1.16-.5 1.56-.49.53-1.36.84-2.31.84-1.51 0-3.18-.79-3.29-2.54-.57-8.51-.86-15.57-.93-22.21-.2-21.17-.46-50.16 15.41-69.46 8.09-9.77 23.79-20.31 39.2-20.31m0-1c-14.89 0-30.93 9.76-39.94 20.71-15.68 19.06-15.86 46.61-15.64 70.1.07 7.44.43 14.85.93 22.27.15 2.31 2.26 3.47 4.29 3.47 2.02 0 3.96-1.15 3.81-3.47-.86-12.82-1.49-25.89-1.05-38.8 3.38-3.15 7.16-4.63 11.2-4.63 2.7 0 5.52.66 8.4 1.94.17.07.34.11.5.11.99 0 1.88-1.14.94-1.98-3.13-2.8-7.05-4.11-10.99-4.11-1.67 0-3.35.24-4.96.69 4.22-2.95 9.32-4.39 14.48-4.39 2.15 0 4.31.25 6.43.75.1.02.19.03.28.03 1.11 0 1.78-1.6.64-2.21-2.95-1.58-6.3-2.31-9.72-2.31-2.5 0-5.03.39-7.46 1.13 5.2-3.03 10.85-4.78 16.84-4.78 2.48 0 5.02.3 7.61.93.12.03.24.04.36.04 1.42 0 2.28-2.07.81-2.83-3.56-1.83-7.32-2.64-11.09-2.64-7.11 0-14.25 2.88-20.14 7.18 2.17-3.35 4.81-6.37 8.02-8.84 6.99-5.4 15.74-7.39 24.42-7.39 1.42 0 2.83.05 4.24.15h.11c1.71 0 2.07-2.83.32-3.18-2.75-.55-5.57-.83-8.39-.83-8.42 0-16.84 2.49-23.57 7.64-2.7 2.07-5.14 4.55-7.29 7.3v-.03c.34-2.1 2.31-5.04 3.78-6.57 7.18-7.5 16.45-10.23 27.09-10.81 1.57-.09 1.49-2.19 0-2.38a32.76 32.76 0 0 0-4.32-.28c-8.7 0-17.66 3.31-24.39 8.99 7-10.09 20.1-14.39 32.27-14.39 1.8 0 3.58.09 5.32.28.04 0 .09.01.13.01 1.25 0 1.4-2 .19-2.35-3.09-.88-6.42-1.31-9.83-1.31-7.95 0-16.3 2.34-22.92 6.71.04-.07.08-.14.12-.2.11-.18.23-.36.34-.53 8.04-9.78 22.66-12.93 34.41-14.81 1.76-.28 1.23-2.92-.4-2.99-.65-.03-1.3-.04-1.97-.04-6.34 0-13.44 1.23-19.93 3.79 3.65-3.07 7.68-5.66 12.01-7.63 5.18-2.35 10.82-3.91 16.41-4.9 2.62-.47 1.8-2.39-.6-2.54-.7-.05-1.4-.07-2.1-.07z" fill="#424242"/></g></svg>