<svg viewBox="0 0 128 128" xmlns="http://www.w3.org/2000/svg" xmlns:xlink="http://www.w3.org/1999/xlink"><radialGradient id="a" cx="64" cy="7.7" r="63.2" gradientUnits="userSpaceOnUse"><stop stop-color="#9E9E9E" offset="0"/><stop stop-color="#999" offset=".2"/><stop stop-color="#8C8C8C" offset=".5"/><stop stop-color="#767676" offset=".7"/><stop stop-color="#757575" offset=".7"/><stop stop-color="#6B6B6B" offset=".9"/><stop stop-color="#616161" offset="1"/></radialGradient><path d="M92 25.8C92 13.8 79.5 4 64 4s-28 9.8-28 21.8v44.5C36 82.2 48.5 92 64 92s28-9.8 28-21.8V25.8z" fill="url(#a)"/><path d="M76.8 108H51.2a3.2 3.2 0 0 1-3.2-3.2v-7.6c0-1.7 1.5-3.2 3.2-3.2h25.6c1.8 0 3.2 1.5 3.2 3.2v7.6c0 1.8-1.4 3.2-3.2 3.2z" fill="#546E7A"/><radialGradient id="b" cx="63.7" cy="86.8" r="25.6" gradientUnits="userSpaceOnUse"><stop stop-color="#B0BEC5" offset="0"/><stop stop-color="#A8B7BF" offset=".2"/><stop stop-color="#91A4AE" offset=".5"/><stop stop-color="#78909C" offset=".7"/><stop stop-color="#607D8B" offset="1"/></radialGradient><path d="M72 112H56a4 4 0 0 1-4-4V88a4 4 0 0 1 4-4h16a4 4 0 0 1 4 4v20a4 4 0 0 1-4 4z" fill="url(#b)"/><path d="M72 87c.6 0 1 .5 1 1v20c0 .6-.5 1-1 1H56a1 1 0 0 1-1-1V88c0-.6.5-1 1-1h16m0-3H56a4 4 0 0 0-4 4v20a4 4 0 0 0 4 4h16a4 4 0 0 0 4-4V88a4 4 0 0 0-4-4z" fill="#424242" opacity=".2"/><radialGradient id="c" cx="64" cy="123.8" r="32.5" gradientUnits="userSpaceOnUse"><stop stop-color="#90A4AE" offset="0"/><stop stop-color="#8BA0AB" offset=".2"/><stop stop-color="#7E95A1" offset=".4"/><stop stop-color="#678290" offset=".7"/><stop stop-color="#607D8B" offset=".7"/><stop stop-color="#546E7A" offset="1"/></radialGradient><path d="M93 118l-23-2.3v-14.5c0-.7-.6-1.2-1.2-1.2h-9.6c-.6 0-1.2.6-1.2 1.2v14.5L35 118c-2.3.3-3 3.7-3 6h64c0-2.3-.7-5.7-3-6z" fill="url(#c)"/><path d="M67 103v15.5l2.7.2 22.7 2.3H35.6l22.7-2.3 2.7-.2V103h6m1.8-3h-9.6c-.7 0-1.2.6-1.2 1.2v14.5L35 118c-2.3.3-3 3.7-3 6h64c0-2.3-.7-5.7-3-6l-23-2.3v-14.5c0-.7-.6-1.2-1.2-1.2z" fill="#424242" opacity=".2"/><defs><path id="d" d="M92 25.8C92 13.8 79.5 4 64 4s-28 9.8-28 21.8v44.5C36 82.2 48.5 92 64 92s28-9.8 28-21.8V25.8z"/></defs><clipPath id="e"><use xlink:href="#d"/></clipPath><g clip-path="url(#e)" fill="#9E9E9E"><circle cx="36" cy="12.2" r="2" opacity=".2"/><circle cx="36" cy="20.2" r="2" opacity=".2"/><circle cx="36" cy="28.2" r="2" opacity=".2"/><circle cx="36" cy="36.2" r="2" opacity=".2"/><circle cx="36" cy="44.2" r="2" opacity=".2"/><circle cx="36" cy="52.2" r="2" opacity=".2"/><circle cx="36" cy="60.2" r="2" opacity=".2"/><circle cx="36" cy="68.2" r="2" opacity=".2"/><circle cx="36" cy="76.2" r="2" opacity=".2"/><circle cx="44" cy="16.2" r="2" opacity=".2"/><circle cx="44" cy="24.2" r="2" opacity=".2"/><circle cx="44" cy="32.2" r="2" opacity=".2"/><circle cx="44" cy="40.2" r="2" opacity=".2"/><circle cx="44" cy="48.2" r="2" opacity=".2"/><circle cx="44" cy="56.2" r="2" opacity=".2"/><circle cx="44" cy="64.2" r="2" opacity=".2"/><circle cx="44" cy="72.2" r="2" opacity=".2"/><circle cx="44" cy="80.2" r="2" opacity=".2"/><circle cx="52" cy="12.2" r="2" opacity=".2"/><circle cx="52" cy="20.2" r="2" opacity=".2"/><circle cx="52" cy="28.2" r="2" opacity=".2"/><circle cx="52" cy="36.2" r="2" opacity=".2"/><circle cx="52" cy="44.2" r="2" opacity=".2"/><circle cx="52" cy="52.2" r="2" opacity=".2"/><circle cx="52" cy="60.2" r="2" opacity=".2"/><circle cx="52" cy="68.2" r="2" opacity=".2"/><circle cx="52" cy="76.2" r="2" opacity=".2"/><circle cx="60" cy="16.2" r="2" opacity=".2"/><circle cx="60" cy="24.2" r="2" opacity=".2"/><circle cx="60" cy="32.2" r="2" opacity=".2"/><circle cx="60" cy="40.2" r="2" opacity=".2"/><circle cx="60" cy="48.2" r="2" opacity=".2"/><circle cx="60" cy="56.2" r="2" opacity=".2"/><circle cx="60" cy="64.2" r="2" opacity=".2"/><circle cx="60" cy="72.2" r="2" opacity=".2"/><circle cx="60" cy="80.2" r="2" opacity=".2"/><circle cx="68" cy="12.2" r="2" opacity=".2"/><circle cx="68" cy="20.2" r="2" opacity=".2"/><circle cx="68" cy="28.2" r="2" opacity=".2"/><circle cx="68" cy="36.2" r="2" opacity=".2"/><circle cx="68" cy="44.2" r="2" opacity=".2"/><circle cx="68" cy="52.2" r="2" opacity=".2"/><circle cx="68" cy="60.2" r="2" opacity=".2"/><circle cx="68" cy="68.2" r="2" opacity=".2"/><circle cx="68" cy="76.2" r="2" opacity=".2"/><circle cx="76" cy="16.2" r="2" opacity=".2"/><circle cx="76" cy="24.2" r="2" opacity=".2"/><circle cx="76" cy="32.2" r="2" opacity=".2"/><circle cx="76" cy="40.2" r="2" opacity=".2"/><circle cx="76" cy="48.2" r="2" opacity=".2"/><circle cx="76" cy="56.2" r="2" opacity=".2"/><circle cx="76" cy="64.2" r="2" opacity=".2"/><circle cx="76" cy="72.2" r="2" opacity=".2"/><circle cx="76" cy="80.2" r="2" opacity=".2"/><circle cx="84" cy="12.2" r="2" opacity=".2"/><circle cx="84" cy="20.2" r="2" opacity=".2"/><circle cx="84" cy="28.2" r="2" opacity=".2"/><circle cx="84" cy="36.2" r="2" opacity=".2"/><circle cx="84" cy="44.2" r="2" opacity=".2"/><circle cx="84" cy="52.2" r="2" opacity=".2"/><circle cx="84" cy="60.2" r="2" opacity=".2"/><circle cx="84" cy="68.2" r="2" opacity=".2"/><circle cx="84" cy="76.2" r="2" opacity=".2"/><circle cx="92" cy="16.2" r="2" opacity=".2"/><circle cx="92" cy="24.2" r="2" opacity=".2"/><circle cx="92" cy="32.2" r="2" opacity=".2"/><circle cx="92" cy="40.2" r="2" opacity=".2"/><circle cx="92" cy="48.2" r="2" opacity=".2"/><circle cx="92" cy="56.2" r="2" opacity=".2"/><circle cx="92" cy="64.2" r="2" opacity=".2"/><circle cx="92" cy="72.2" r="2" opacity=".2"/><circle cx="92" cy="80.2" r="2" opacity=".2"/></g><radialGradient id="f" cx="64" cy="61.2" r="31.9" gradientUnits="userSpaceOnUse"><stop stop-color="#B0BEC5" offset="0"/><stop stop-color="#A8B7BF" offset=".2"/><stop stop-color="#91A4AE" offset=".5"/><stop stop-color="#78909C" offset=".7"/><stop stop-color="#607D8B" offset="1"/></radialGradient><path d="M36 69.3v1C36 82.2 48.5 92 64 92s28-9.8 28-21.8v-.9H36z" fill="url(#f)"/><path fill="#CFD8DC" d="M36 69h56v2H36z"/><path d="M39 69.5v.7C39 80.6 50.2 89 64 89s25-8.4 25-18.8v-1.1H39v.4zM64 7c-13.8 0-25 8.4-25 18.8V69h50V25.8C89 15.4 77.8 7 64 7z" fill="none"/><path d="M39 25.8C39 15.4 50.2 7 64 7s25 8.4 25 18.8V69h3V25.8C92 13.8 79.5 4 64 4s-28 9.8-28 21.8V69h3V25.8z" fill="#eee" opacity=".2"/><path d="M92 69.1h-3v1.1C89 80.6 77.8 89 64 89s-25-8.4-25-18.8v-1.1h-3v1.2C36 82.2 48.5 92 64 92s28-9.8 28-21.8v-1.1z" fill="#424242" opacity=".2"/></svg>