<svg viewBox="0 0 128 128" xmlns="http://www.w3.org/2000/svg"><radialGradient id="a" cx="63" cy="52.7" r="76.8" gradientTransform="scale(1 1.0008)" gradientUnits="userSpaceOnUse"><stop stop-color="#00796B" offset="0"/><stop stop-color="#007365" offset=".3"/><stop stop-color="#006355" offset=".7"/><stop stop-color="#004D40" offset="1"/></radialGradient><path d="M116 124H12a4 4 0 0 1-4-4V48h112v72a4 4 0 0 1-4 4z" fill="url(#a)"/><path d="M117 51v69c0 .6-.4 1-1 1H12a1 1 0 0 1-1-1V51h106m3-3H8v72a4 4 0 0 0 4 4h104a4 4 0 0 0 4-4V48z" fill="#424242" opacity=".2"/><linearGradient id="b" x1="61.1" x2="61.1" y1="29.7" y2="52.6" gradientUnits="userSpaceOnUse"><stop stop-color="#FAFAFA" offset="0"/><stop stop-color="#eee" offset="1"/></linearGradient><path fill="url(#b)" d="M45.4 35.7l15.7 16.2h15.7L61.1 35.7z"/><linearGradient id="c" x1="17.9" x2="17.9" y1="36" y2="52.4" gradientUnits="userSpaceOnUse"><stop stop-color="#616161" offset="0"/><stop stop-color="#212121" offset="1"/></linearGradient><path fill="url(#c)" d="M6.1 35.7v16.2h23.6L14 35.7z"/><linearGradient id="d" x1="29.7" x2="29.7" y1="29.7" y2="52.6" gradientUnits="userSpaceOnUse"><stop stop-color="#FAFAFA" offset="0"/><stop stop-color="#eee" offset="1"/></linearGradient><path fill="url(#d)" d="M14 35.7l15.7 16.2h15.7L29.7 35.7z"/><linearGradient id="e" x1="45.4" x2="45.4" y1="36" y2="52.4" gradientUnits="userSpaceOnUse"><stop stop-color="#616161" offset="0"/><stop stop-color="#212121" offset="1"/></linearGradient><path fill="url(#e)" d="M29.7 35.7l15.7 16.2h15.7L45.4 35.7z"/><linearGradient id="f" x1="108.3" x2="108.3" y1="36" y2="52.4" gradientUnits="userSpaceOnUse"><stop stop-color="#616161" offset="0"/><stop stop-color="#212121" offset="1"/></linearGradient><path fill="url(#f)" d="M108.3 35.7H92.6l15.7 16.2H124z"/><linearGradient id="g" x1="116.1" x2="116.1" y1="29.7" y2="52.6" gradientUnits="userSpaceOnUse"><stop stop-color="#FAFAFA" offset="0"/><stop stop-color="#eee" offset="1"/></linearGradient><path fill="url(#g)" d="M124 35.7h-15.7L124 51.9z"/><linearGradient id="h" x1="92.6" x2="92.6" y1="29.7" y2="52.6" gradientUnits="userSpaceOnUse"><stop stop-color="#FAFAFA" offset="0"/><stop stop-color="#eee" offset="1"/></linearGradient><path fill="url(#h)" d="M76.8 35.7l15.8 16.2h15.7L92.6 35.7z"/><linearGradient id="i" x1="76.9" x2="76.9" y1="36" y2="52.4" gradientUnits="userSpaceOnUse"><stop stop-color="#616161" offset="0"/><stop stop-color="#212121" offset="1"/></linearGradient><path fill="url(#i)" d="M61.1 35.7l15.7 16.2h15.8L76.8 35.7z"/><linearGradient id="j" x1="61.2" x2="61.2" y1="5.5" y2="28.4" gradientTransform="rotate(-7.6 66 32)" gradientUnits="userSpaceOnUse"><stop stop-color="#FAFAFA" offset="0"/><stop stop-color="#eee" offset="1"/></linearGradient><path fill="url(#j)" d="M43 14.4l17.7 14 15.5-2-17.7-14.1z"/><linearGradient id="k" x1="18" x2="18" y1="11.8" y2="28.2" gradientTransform="rotate(-7.6 66 32)" gradientUnits="userSpaceOnUse"><stop stop-color="#616161" offset="0"/><stop stop-color="#212121" offset="1"/></linearGradient><path fill="url(#k)" d="M4 19.5l2.1 16.2 23.4-3.1-17.7-14.1z"/><linearGradient id="l" x1="29.8" x2="29.8" y1="5.5" y2="28.4" gradientTransform="rotate(-7.6 66 32)" gradientUnits="userSpaceOnUse"><stop stop-color="#FAFAFA" offset="0"/><stop stop-color="#eee" offset="1"/></linearGradient><path fill="url(#l)" d="M11.8 18.5l17.7 14 15.6-2-17.7-14z"/><linearGradient id="m" x1="45.5" x2="45.5" y1="11.8" y2="28.2" gradientTransform="rotate(-7.6 66 32)" gradientUnits="userSpaceOnUse"><stop stop-color="#616161" offset="0"/><stop stop-color="#212121" offset="1"/></linearGradient><path fill="url(#m)" d="M27.4 16.4l17.7 14 15.6-2-17.8-14z"/><linearGradient id="n" x1="108.3" x2="108.3" y1="11.8" y2="28.2" gradientTransform="rotate(-7.6 66 32)" gradientUnits="userSpaceOnUse"><stop stop-color="#616161" offset="0"/><stop stop-color="#212121" offset="1"/></linearGradient><path fill="url(#n)" d="M105.3 6L89.7 8.2l17.7 14.1 15.6-2z"/><linearGradient id="o" x1="116.2" x2="116.2" y1="5.5" y2="28.4" gradientTransform="rotate(-7.6 66 32)" gradientUnits="userSpaceOnUse"><stop stop-color="#FAFAFA" offset="0"/><stop stop-color="#eee" offset="1"/></linearGradient><path fill="url(#o)" d="M120.8 4l-15.5 2L123 20.2z"/><linearGradient id="p" x1="92.6" x2="92.6" y1="5.5" y2="28.4" gradientTransform="rotate(-7.6 66 32)" gradientUnits="userSpaceOnUse"><stop stop-color="#FAFAFA" offset="0"/><stop stop-color="#eee" offset="1"/></linearGradient><path fill="url(#p)" d="M74.1 10.2l17.7 14 15.6-2-17.7-14z"/><linearGradient id="q" x1="76.9" x2="76.9" y1="11.8" y2="28.2" gradientTransform="rotate(-7.6 66 32)" gradientUnits="userSpaceOnUse"><stop stop-color="#616161" offset="0"/><stop stop-color="#212121" offset="1"/></linearGradient><path fill="url(#q)" d="M58.5 12.3l17.8 14 15.5-2-17.7-14z"/><path d="M121 38.7v10.2H9.1V38.7H121m3-3H6.1v16.2H124V35.7zm-5.7-28.3l1.3 10.1-12.6 1.7-15.6 2.1-62.3 8.3-20.4 2.7-1.3-10.2 4.8-.6L105.7 9l12.6-1.7m2.5-3.4L27.4 16.4l-15.6 2.1-7.8 1 2.1 16.2 23.4-3.1L123 20l-2.2-16z" fill="#424242" opacity=".2"/><linearGradient id="r" x1="16" x2="112" y1="70" y2="70" gradientUnits="userSpaceOnUse"><stop stop-color="#FAFAFA" offset="0"/><stop stop-color="#eee" offset="1"/></linearGradient><path fill="url(#r)" d="M16.1 68h96v4h-96z"/><linearGradient id="s" x1="16" x2="112" y1="86" y2="86" gradientUnits="userSpaceOnUse"><stop stop-color="#FAFAFA" offset="0"/><stop stop-color="#eee" offset="1"/></linearGradient><path fill="url(#s)" d="M16.1 84h96v4h-96z"/><linearGradient id="t" x1="16" x2="112" y1="102" y2="102" gradientUnits="userSpaceOnUse"><stop stop-color="#FAFAFA" offset="0"/><stop stop-color="#eee" offset="1"/></linearGradient><path fill="url(#t)" d="M16.1 100h96v4h-96z"/><linearGradient id="u" x1="84" x2="88" y1="109" y2="109" gradientUnits="userSpaceOnUse"><stop stop-color="#FAFAFA" offset="0"/><stop stop-color="#eee" offset="1"/></linearGradient><path fill="url(#u)" d="M84 116v-14h4v14z"/><linearGradient id="v" x1="40" x2="44" y1="109" y2="109" gradientUnits="userSpaceOnUse"><stop stop-color="#FAFAFA" offset="0"/><stop stop-color="#eee" offset="1"/></linearGradient><path fill="url(#v)" d="M40 116v-14h4v14z"/><path fill="#B2DFDB" d="M16.1 60h16v4h-16zm0 16h24v4h-24zm0 16h16v4h-16z"/></svg>