<svg viewBox="0 0 128 128" xmlns="http://www.w3.org/2000/svg"><radialGradient id="a" cx="9.25" cy="66.25" r="58.443" gradientTransform="matrix(0 1 -.8128 0 63.095 57)" gradientUnits="userSpaceOnUse"><stop stop-color="#616161" offset="0"/><stop stop-color="#212121" offset="1"/></radialGradient><path d="M32 80L20 64h-8c-4.42 0-8 3.58-8 8v44c0 4.42 3.58 8 8 8h8l12-16h20V80H32z" fill="url(#a)"/><path fill="#424242" d="M16 64h3v60h-3z"/><linearGradient id="b" x1="112" x2="112" y1="73.234" y2="90.332" gradientUnits="userSpaceOnUse"><stop stop-color="#616161" offset="0"/><stop stop-color="#212121" offset="1"/></linearGradient><path d="M121.11 73.45L116 76h-16v12h16l5.11 2.55c1.33.66 2.89-.3 2.89-1.79V75.24c0-1.49-1.56-2.46-2.89-1.79z" fill="url(#b)"/><radialGradient id="c" cx="78.25" cy="47.083" r="24.002" gradientUnits="userSpaceOnUse"><stop stop-color="#616161" offset="0"/><stop stop-color="#212121" offset="1"/></radialGradient><path fill="url(#c)" d="M64 48h28v28H64z"/><path fill="#424242" d="M31.5 80h3v28h-3z" opacity=".2"/><path d="M18.5 67l12 16H49v22H30.5l-12 16H12c-2.76 0-5-2.24-5-5V72c0-2.76 2.24-5 5-5h6.5m1.5-3h-8c-4.42 0-8 3.58-8 8v44c0 4.42 3.58 8 8 8h8l12-16h20V80H32L20 64z" fill="#eee" opacity=".2"/><g fill="#eee" opacity=".2"><path d="M121 76.85v10.29l-3.66-1.83-.63-.31H103v-6h13.71l.63-.32 3.66-1.83m1-3.62c-.3 0-.6.07-.89.21L116 76h-16v12h16l5.11 2.55a1.999 1.999 0 0 0 2.89-1.79V75.24c0-1.16-.95-2.01-2-2.01zM89 51v22H67V51h22m3-3H64v28h28V48z"/></g><radialGradient id="d" cx="47.833" cy="2.833" r="65.133" gradientUnits="userSpaceOnUse"><stop stop-color="#757575" offset="0"/><stop stop-color="#424242" offset="1"/></radialGradient><circle cx="48" cy="36" r="32" fill="url(#d)"/><radialGradient id="e" cx="101.83" cy="23.333" r="44.59" gradientUnits="userSpaceOnUse"><stop stop-color="#757575" offset="0"/><stop stop-color="#424242" offset="1"/></radialGradient><circle cx="102" cy="46" r="22" fill="url(#e)"/><radialGradient id="f" cx="77.833" cy="68.167" r="58.648" gradientUnits="userSpaceOnUse"><stop stop-color="#616161" offset="0"/><stop stop-color="#212121" offset="1"/></radialGradient><path d="M104 120H52c-4.42 0-8-3.58-8-8V76c0-4.42 3.58-8 8-8h52c4.42 0 8 3.58 8 8v36c0 4.42-3.58 8-8 8z" fill="url(#f)"/><g fill="#424242" opacity=".2"><path d="M54 94c1.1 0 2 .9 2 2s-.9 2-2 2-2-.9-2-2 .9-2 2-2m0-2c-2.21 0-4 1.79-4 4s1.79 4 4 4 4-1.79 4-4-1.79-4-4-4zM54 102c1.1 0 2 .9 2 2s-.9 2-2 2-2-.9-2-2 .9-2 2-2m0-2c-2.21 0-4 1.79-4 4s1.79 4 4 4 4-1.79 4-4-1.79-4-4-4z"/></g><path d="M104 71c2.76 0 5 2.24 5 5v36c0 2.76-2.24 5-5 5H52c-2.76 0-5-2.24-5-5V76c0-2.76 2.24-5 5-5h52m0-3H52c-4.42 0-8 3.58-8 8v36c0 4.42 3.58 8 8 8h52c4.42 0 8-3.58 8-8V76c0-4.42-3.58-8-8-8zM48 7c15.99 0 29 13.01 29 29S63.99 65 48 65 19 51.99 19 36 32.01 7 48 7m0-3C30.33 4 16 18.33 16 36s14.33 32 32 32 32-14.33 32-32S65.67 4 48 4zM102 27c10.48 0 19 8.52 19 19s-8.52 19-19 19-19-8.52-19-19 8.52-19 19-19m0-3c-12.15 0-22 9.85-22 22s9.85 22 22 22 22-9.85 22-22-9.85-22-22-22z" fill="#eee" opacity=".2"/><linearGradient id="g" x1="80" x2="80" y1="90.172" y2="113.73" gradientUnits="userSpaceOnUse"><stop stop-color="#616161" offset="0"/><stop stop-color="#212121" offset="1"/></linearGradient><path d="M64 108.5c-2.48 0-4.5-2.02-4.5-4.5v-8c0-2.48 2.02-4.5 4.5-4.5h32c2.48 0 4.5 2.02 4.5 4.5v8c0 2.48-2.02 4.5-4.5 4.5H64z" fill="url(#g)"/><path d="M96 92c2.21 0 4 1.79 4 4v8c0 2.21-1.79 4-4 4H64c-2.21 0-4-1.79-4-4v-8c0-2.21 1.79-4 4-4h32m0-1H64c-2.76 0-5 2.24-5 5v8c0 2.76 2.24 5 5 5h32c2.76 0 5-2.24 5-5v-8c0-2.76-2.24-5-5-5z" fill="#424242"/><circle cx="48" cy="36" r="24" fill="none" stroke="#616161" stroke-miterlimit="10" stroke-width="2"/><circle cx="102" cy="46" r="14" fill="none" stroke="#616161" stroke-miterlimit="10" stroke-width="2"/><radialGradient id="h" cx="47.833" cy="27.167" r="16.602" gradientUnits="userSpaceOnUse"><stop stop-color="#9E9E9E" offset="0"/><stop stop-color="#616161" offset="1"/></radialGradient><circle cx="48" cy="36" r="8" fill="url(#h)" stroke="#757575" stroke-miterlimit="10" stroke-width="2"/><radialGradient id="i" cx="102" cy="37.333" r="16.334" gradientUnits="userSpaceOnUse"><stop stop-color="#9E9E9E" offset="0"/><stop stop-color="#616161" offset="1"/></radialGradient><circle cx="102" cy="46" r="8" fill="url(#i)" stroke="#757575" stroke-miterlimit="10" stroke-width="2"/><linearGradient id="j" x1="54" x2="54" y1="93.75" y2="97.768" gradientUnits="userSpaceOnUse"><stop stop-color="#FF1744" offset="0"/><stop stop-color="#D50000" offset="1"/></linearGradient><circle cx="54" cy="96" r="2" fill="url(#j)"/><linearGradient id="k" x1="54" x2="54" y1="101.75" y2="105.77" gradientUnits="userSpaceOnUse"><stop stop-color="#76FF03" offset="0"/><stop stop-color="#64DD17" offset="1"/></linearGradient><circle cx="54" cy="104" r="2" fill="url(#k)"/></svg>