<svg viewBox="0 0 128 128" xmlns="http://www.w3.org/2000/svg"><path d="M123.9 47.5v-9c-3 0-5.9-2.7-5.9-6v-.4H90v.1a6 6 0 0 1-12 0V32H11.1v.4a6 6 0 0 1-7 6v9h1a6 6 0 0 1 6 6 6 6 0 0 1-7 5.9v9h1a6 6 0 0 1 6 6 6 6 0 0 1-7 5.9v9.1H5a6 6 0 0 1 6 6v.4l66.8.1a6 6 0 0 1 12 0h28v-.5c0-3.2 3-5.8 6-6v-9c-3 0-5.8-2.7-5.8-5.9s2.8-5.8 5.8-6v-9c-3 0-5.8-2.7-5.8-6s2.8-5.8 5.8-5.9zM83.9 81a6 6 0 1 1 0-12 6 6 0 0 1 0 12zm0-21.3a6 6 0 1 1 0-12 6 6 0 0 1 0 12z" fill="#EC407A"/><path d="M19.8 43.5l90.2.2v40.8H19.7v-41m-2-2v45H112V41.7l-94.2-.2z" fill="#AD1457"/><path d="M46.6 58H29.9a2.9 2.9 0 0 1 0-5.8h16.7a2.9 2.9 0 0 1 0 5.8z" fill="#880E4F"/><path d="M102.4 78.3h-2.5a2.9 2.9 0 0 1 0-5.7h2.5a2.9 2.9 0 0 1 0 5.7z" fill="#C2185B"/><path d="M58.7 66.2h-30a1.7 1.7 0 0 1 0-3.4h30a1.7 1.7 0 0 1 0 3.4z" fill="#880E4F"/><path d="M58.7 77h-30a1.7 1.7 0 0 1 0-3.3h30a1.7 1.7 0 0 1 0 3.3z" fill="#C2185B"/><path d="M13.1 34h63a8 8 0 0 0 15.6 0h24.5a8.3 8.3 0 0 0 5.7 6.2V46c-3.3 1-5.8 4.1-5.8 7.6s2.5 6.6 5.8 7.7v5.6c-3.3 1-5.8 4.1-5.8 7.6s2.4 6.7 5.7 7.7v5.6a8.3 8.3 0 0 0-5.7 6.2H91.5a8 8 0 0 0-15.2 0L13 93.7a8 8 0 0 0-2.3-4.2 8 8 0 0 0-4.5-2.3v-5a8 8 0 0 0 7-8c0-4-3-7.3-7-7.9v-5.1a8 8 0 0 0 7-8c0-4-3-7.3-7-7.8v-5.1a8 8 0 0 0 7-6.5m70.7 27.7a8 8 0 1 0 0-16 8 8 0 0 0 0 16m0 21.3a8 8 0 1 0 0-16 8 8 0 0 0 0 16m-72.7-51v.5a6 6 0 0 1-6 6h-1v9h1a6 6 0 0 1 6 6 6 6 0 0 1-7 5.9v9h1c3.2 0 6 2.7 6 6s-2.8 6-6 6H5a4 4 0 0 1-.9-.1v9.1H5a6 6 0 0 1 6 6v.4l66.8.1a6 6 0 0 1 12 0h28v-.5c0-3.2 3-5.8 6-6v-9c-3 0-5.8-2.7-5.8-5.9s2.8-5.8 5.8-6v-9a6 6 0 0 1-5.8-6c0-3.2 2.8-5.8 5.8-5.9v-9c-3 0-5.9-2.7-5.9-6V32H90v.2a6 6 0 0 1-12 0V32H11.1zM84 59.6a6 6 0 1 1 0-12 6 6 0 0 1 0 12zm0 21.3a6 6 0 1 1 0-12 6 6 0 0 1 0 12z" fill="#424242" opacity=".2"/></svg>