<svg viewBox="0 0 128 128" xmlns="http://www.w3.org/2000/svg"><radialGradient id="a" cx="64.3" cy="12.7" r="35.4" gradientUnits="userSpaceOnUse"><stop stop-color="#757575" offset="0"/><stop stop-color="#6A6A6A" offset=".3"/><stop stop-color="#4B4B4B" offset=".9"/><stop stop-color="#424242" offset="1"/></radialGradient><path d="M64 10c-14.7 0-28 6-37.4 15.8l4.5 4.5a6 6 0 0 0 8 .4 39.8 39.8 0 0 1 49.8 0 6 6 0 0 0 8-.4l4.4-4.5A51.8 51.8 0 0 0 64 10z" fill="url(#a)"/><path d="M64 13c12.4 0 24 4.5 33 12.9l-2.2 2.3a3 3 0 0 1-4 .2 43 43 0 0 0-53.6 0 3 3 0 0 1-4-.2L31 25.9C40 17.5 51.6 13 64 13m0-3c-14.6 0-27.8 6-37.3 15.8l4.5 4.5a6 6 0 0 0 8 .5 39.7 39.7 0 0 1 49.8 0 6 6 0 0 0 8-.5l4.4-4.5A51.9 51.9 0 0 0 64 10z" fill="#eee" opacity=".2"/><radialGradient id="b" cx="63.8" cy="4" r="74.9" gradientUnits="userSpaceOnUse"><stop stop-color="#40C4FF" offset="0"/><stop stop-color="#0091EA" offset="1"/></radialGradient><path d="M64 12.3c24 0 43.7 19.6 43.7 43.7v27h8.3V56a52 52 0 0 0-104 0v27h8.3V56C20.3 32 40 12.3 64 12.3z" fill="url(#b)"/><path d="M64 7c27 0 49 22 49 49v24h-2.3V56a46.7 46.7 0 0 0-93.4 0v24H15V56C15 29 37 7 64 7m0-3a52 52 0 0 0-52 52v27h8.3V56a43.7 43.7 0 0 1 87.4 0v27h8.3V56A52 52 0 0 0 64 4z" fill="#424242" opacity=".2"/><radialGradient id="c" cx="28.7" cy="68.2" r="52" gradientUnits="userSpaceOnUse"><stop stop-color="#40C4FF" offset="0"/><stop stop-color="#0091EA" offset=".7"/><stop stop-color="#0091EA" offset="1"/></radialGradient><path d="M29 68C15.7 68 4 79.6 4 94s11.8 26 25 26h12V68H29z" fill="url(#c)"/><path d="M38 71v46h-9c-12 0-22-10.5-22-23s10-23 22-23h9m3-3H29C15.7 68 4 79.6 4 94s11.8 26 25 26h12V68z" fill="#424242" opacity=".2"/><radialGradient id="d" cx="99.3" cy="67.7" r="52.6" gradientUnits="userSpaceOnUse"><stop stop-color="#40C4FF" offset="0"/><stop stop-color="#0091EA" offset=".7"/><stop stop-color="#0091EA" offset="1"/></radialGradient><path d="M99 68c13.3 0 25 11.6 25 26s-11.8 26-25 26H87V68h12z" fill="url(#d)"/><path d="M99 71c12 0 22 10.5 22 23s-10 23-22 23h-9V71h9m0-3H87v52h12c13.3 0 25-11.6 25-26s-11.8-26-25-26z" fill="#424242" opacity=".2"/><radialGradient id="e" cx="35.7" cy="64.2" r="59.8" gradientUnits="userSpaceOnUse"><stop stop-color="#757575" offset="0"/><stop stop-color="#6A6A6A" offset=".3"/><stop stop-color="#4B4B4B" offset=".9"/><stop stop-color="#424242" offset="1"/></radialGradient><path d="M37 124h-2a7 7 0 0 1-7-7V71a7 7 0 0 1 7-7h2a7 7 0 0 1 7 7v46a7 7 0 0 1-7 7z" fill="url(#e)"/><radialGradient id="f" cx="91.7" cy="64.3" r="59.5" gradientUnits="userSpaceOnUse"><stop stop-color="#757575" offset="0"/><stop stop-color="#6A6A6A" offset=".3"/><stop stop-color="#4B4B4B" offset=".9"/><stop stop-color="#424242" offset="1"/></radialGradient><path d="M91 124h2a7 7 0 0 0 7-7V71a7 7 0 0 0-7-7h-2a7 7 0 0 0-7 7v46a7 7 0 0 0 7 7z" fill="url(#f)"/><path d="M37 67a4 4 0 0 1 4 4v46a4 4 0 0 1-4 4h-2a4 4 0 0 1-4-4V71a4 4 0 0 1 4-4h2m0-3h-2a7 7 0 0 0-7 7v46a7 7 0 0 0 7 7h2a7 7 0 0 0 7-7V71a7 7 0 0 0-7-7z" fill="#eee" opacity=".2"/><path d="M44 76h-7a1 1 0 0 1-1-1v-2c0-.6.5-1 1-1h7v4zm0 8h-7a1 1 0 0 1-1-1v-2c0-.6.5-1 1-1h7v4zm0 8h-7a1 1 0 0 1-1-1v-2c0-.6.5-1 1-1h7v4zm0 8h-7a1 1 0 0 1-1-1v-2c0-.6.5-1 1-1h7v4zm0 8h-7a1 1 0 0 1-1-1v-2c0-.6.5-1 1-1h7v4zm0 8h-7a1 1 0 0 1-1-1v-2c0-.6.5-1 1-1h7v4zm40-40h7c.6 0 1-.5 1-1v-2c0-.6-.5-1-1-1h-7v4zm0 8h7c.6 0 1-.5 1-1v-2c0-.6-.5-1-1-1h-7v4zm0 8h7c.6 0 1-.5 1-1v-2c0-.6-.5-1-1-1h-7v4zm0 8h7c.6 0 1-.5 1-1v-2c0-.6-.5-1-1-1h-7v4zm0 8h7c.6 0 1-.5 1-1v-2c0-.6-.5-1-1-1h-7v4zm0 8h7c.6 0 1-.5 1-1v-2c0-.6-.5-1-1-1h-7v4z" fill="#616161" opacity=".2"/><path d="M93 67a4 4 0 0 1 4 4v46a4 4 0 0 1-4 4h-2a4 4 0 0 1-4-4V71a4 4 0 0 1 4-4h2m0-3h-2a7 7 0 0 0-7 7v46a7 7 0 0 0 7 7h2a7 7 0 0 0 7-7V71a7 7 0 0 0-7-7z" fill="#eee" opacity=".2"/></svg>