<svg viewBox="0 0 128 128" xmlns="http://www.w3.org/2000/svg"><g fill="#BDBDBD"><path d="M112 58.3H16c-1.1 0-2-1-2-2s.9-2 2-2h96a2 2 0 0 1 0 4z"/><path d="M64 106a2 2 0 0 1-2-2V8.6a2 2 0 0 1 4 0V104a2 2 0 0 1-2 2z"/><path d="M98.5 92.6a2 2 0 0 1-1.4-.5L28 23.3c-.8-.7-.8-2 0-2.8s2-.8 2.8 0l69 68.7a2 2 0 0 1-1.4 3.4z"/><path d="M29.5 92.6a2 2 0 0 1-1.4-3.4l69-68.7c.8-.8 2-.8 2.8 0s.8 2 0 2.8L31 92.1a2 2 0 0 1-1.4.5z"/></g><g fill="#424242" opacity=".2"><path d="M112 55.3c.6 0 1 .4 1 1s-.5 1-1 1H16c-.6 0-1-.5-1-1s.5-1 1-1h96m0-1H16a2 2 0 0 0 0 4h96c1.1 0 2-1 2-2s-.9-2-2-2z"/><path d="M64 7.5c.6 0 1 .4 1 1V104c0 .5-.5 1-1 1s-1-.5-1-1V8.5c0-.6.5-1 1-1m0-1a2 2 0 0 0-2 2V104a2 2 0 0 0 4 0V8.5a2 2 0 0 0-2-2z"/><path d="M29.5 21c.3 0 .5 0 .7.2l69 68.7a1 1 0 0 1 0 1.4c-.2.2-.4.3-.7.3s-.5 0-.7-.3l-69-68.7a1 1 0 0 1 0-1.4c.2-.2.4-.3.7-.3m0-1a2 2 0 0 0-1.4 3.4L97 92c.4.4.9.6 1.4.6s1-.2 1.4-.6c.8-.7.8-2 0-2.8L31 20.5a2 2 0 0 0-1.4-.6z"/><path d="M98.5 21a1 1 0 0 1 .7 1.6l-69 68.7c-.2.2-.4.3-.7.3s-.5 0-.7-.3l-.3-.7c0-.3.1-.5.3-.7l69-68.7c.2-.2.4-.3.7-.3m0-1a2 2 0 0 0-1.4.6L28 89.2a2 2 0 1 0 2.8 2.8l69-68.7a2 2 0 0 0-1.4-3.4z"/></g><path d="M67.8 59.1a4 4 0 0 0-4.7-2.7 4.1 4.1 0 0 0-3 2.9L39 121.4a2 2 0 0 0 1.9 2.6H45a2 2 0 0 0 2-1.4l17-48.2 17 48.2a2 2 0 0 0 2 1.4h4a2 2 0 0 0 2-2.5L67.8 59z" fill="#9575CD"/><path d="M64 58.3a2 2 0 0 1 2 1.4L87 122h-4v-.1L65.8 73.7c-.3-.8-1-1.3-1.9-1.3s-1.6.5-1.9 1.3l-17 48.2v.1h-4.2L62 60v-.1c.3-.8.9-1.4 1.5-1.6h.5m0-2h-.9a4.1 4.1 0 0 0-3 3L39 121.4a2 2 0 0 0 2 2.6h4a2 2 0 0 0 2-1.4l17-48.2 17 48.2a2 2 0 0 0 2 1.4h4a2 2 0 0 0 2-2.5L67.8 59.2a4 4 0 0 0-3.8-3z" fill="#424242" opacity=".2"/><path d="M64 20.4a36 36 0 1 1-36 35.8 36 36 0 0 1 36-35.8m0-4a40 40 0 1 0-.2 79.9 40 40 0 0 0 .2-79.9z" fill="#7E57C2"/><path d="M64 9a47.4 47.4 0 0 1 47.5 47.3 47.4 47.4 0 0 1-95 0A47.4 47.4 0 0 1 64 9m0-4.5a51.9 51.9 0 1 0-.2 103.8A51.9 51.9 0 0 0 64 4.5z" fill="#7E57C2"/><path d="M64 17.4a39 39 0 0 1 39 38.9 39 39 0 0 1-78 0 39 39 0 0 1 39-38.8M64 93a37 37 0 0 0 37-36.8 37 37 0 0 0-74 0A37 37 0 0 0 64 93m0-76.6a40 40 0 1 0-.2 79.8 40 40 0 0 0 .2-79.8zM64 92c-19.9 0-36-16-36-35.8a36 36 0 0 1 72 0A36 36 0 0 1 64 92z" fill="#424242" opacity=".2"/><path d="M64 5.5a51 51 0 0 1 51 50.8 51 51 0 0 1-102 0A51 51 0 0 1 64 5.5m0 99a48.4 48.4 0 0 0 48.5-48.2 48.5 48.5 0 0 0-97 0A48.5 48.5 0 0 0 64 104.6M64 4.5a51.9 51.9 0 1 0-.2 103.8A51.9 51.9 0 0 0 64 4.5zm0 99a47.4 47.4 0 0 1-47.5-47.2 47.4 47.4 0 0 1 95 0c0 26-21.3 47.3-47.5 47.3z" fill="#424242" opacity=".2"/><ellipse cx="64" cy="56.3" rx="16" ry="15.9" fill="#FFEB3B"/><ellipse cx="64" cy="56.3" rx="10" ry="10" fill="#FFC107"/><path d="M64 42.3a14 14 0 1 1-14 14 14 14 0 0 1 14-14m0-2a16 16 0 1 0 16 16 16 16 0 0 0-16-16z" fill="#424242" opacity=".2"/><path d="M64.5 5.7h1c.4 0 .8-.4.8-.8 0-.5-.4-.9-.9-.9h-3.2c-.5 0-.9.4-.9.8 0 .5.4 1 .9 1h1.1l-1.3 3-1.7 3.8 1.2.5.6-1.5h3.8l.6 1.5 1.2-.5-3-7zM64 7.5l.7 1.4h-1.3l.6-1.4zm-1.5 3.3l.5-1h2l.5 1h-3z" fill="#FFEB3B"/><linearGradient id="a" x1="63.9" x2="63.9" y1="9.9" y2="25.9" gradientUnits="userSpaceOnUse"><stop stop-color="#FFEB3B" offset=".3"/><stop stop-color="#FEE539" offset=".5"/><stop stop-color="#FDD333" offset=".8"/><stop stop-color="#FBC02D" offset="1"/></linearGradient><path d="M73.4 27.9h-19a3 3 0 0 1-3-3v-13a3 3 0 0 1 3-3h19a3 3 0 0 1 3 3v13a3 3 0 0 1-3 3z" fill="url(#a)"/><path d="M73.4 10a2 2 0 0 1 2 2v12.9a2 2 0 0 1-2 2h-19a2 2 0 0 1-2-2v-13c0-1 1-2 2-2h19m0-1h-19a3 3 0 0 0-3 3v13a3 3 0 0 0 3 3h19a3 3 0 0 0 3-3v-13a3 3 0 0 0-3-3z" fill="#424242" opacity=".2"/><path d="M67.4 22.7h-7c-.6 0-1.1-.5-1.1-1.2v-8.1c0-.6.5-1.2 1.1-1.2h7c.6 0 1.1.6 1.1 1.2v8.1c0 .7-.5 1.2-1.1 1.2z" fill="#4FC3F7"/><path d="M67.4 13.2l.1.2v8.1l-.1.2h-7l-.1-.2v-8.1l.1-.2h7m0-1h-7c-.6 0-1.1.5-1.1 1.2v8.1c0 .6.5 1.2 1.1 1.2h7c.6 0 1.1-.6 1.1-1.2v-8.1c0-.6-.5-1.2-1.1-1.2z" fill="#424242" opacity=".2"/><path d="M56 22.7h-4.6V12.2H56c.7 0 1.2.6 1.2 1.2v8.1c0 .6-.5 1.2-1.2 1.2z" fill="#4FC3F7"/><path d="M56 13.2l.2.2v8.1s0 .2-.2.2h-3.6v-8.5H56m0-1h-4.6v10.5H56c.7 0 1.2-.6 1.2-1.2v-8.1c0-.6-.5-1.2-1.2-1.2z" fill="#424242" opacity=".2"/><path d="M76.4 22.7h-4.7c-.6 0-1.1-.5-1.1-1.2v-8.1c0-.6.5-1.2 1.1-1.2h4.7v10.5z" fill="#4FC3F7"/><path d="M75.4 13.2v8.5h-3.7l-.1-.2v-8.1l.1-.2h3.7m1-1h-4.7c-.6 0-1.1.6-1.1 1.2v8.1c0 .6.5 1.2 1.1 1.2h4.7V12.2z" fill="#424242" opacity=".2"/><path d="M28.1 22.1h1c.4 0 .8-.3.8-.8s-.4-.9-.9-.9h-3.2c-.5 0-.9.4-.9.9s.4.8.9.8h1.1l-1.4 3.2-1.7 3.8 1.2.5.6-1.5h3.8l.6 1.5 1.2-.5-3.1-7zm-.6 1.8l.6 1.4H27l.6-1.4zM26 27.3l.5-1h2l.5 1h-3z" fill="#FFEB3B"/><linearGradient id="b" x1="27.5" x2="27.5" y1="26.2" y2="42.2" gradientUnits="userSpaceOnUse"><stop stop-color="#FFEB3B" offset=".3"/><stop stop-color="#FEE539" offset=".5"/><stop stop-color="#FDD333" offset=".8"/><stop stop-color="#FBC02D" offset="1"/></linearGradient><path d="M37 44.3H18a3 3 0 0 1-3-3v-13a3 3 0 0 1 3-3h19a3 3 0 0 1 3 3v13a3 3 0 0 1-3 3z" fill="url(#b)"/><path d="M37 26.3a2 2 0 0 1 2 2v13a2 2 0 0 1-2 2H18a2 2 0 0 1-2-2v-13c0-1 .9-2 2-2h19m0-1H18a3 3 0 0 0-3 3v13a3 3 0 0 0 3 3h19a3 3 0 0 0 3-3v-13a3 3 0 0 0-3-3z" fill="#424242" opacity=".2"/><path d="M31 39h-7c-.6 0-1.1-.5-1.1-1.1v-8.1c0-.7.5-1.2 1.1-1.2h7c.6 0 1.1.5 1.1 1.2v8c0 .7-.5 1.2-1.1 1.2z" fill="#4FC3F7"/><path d="M31 29.6l.1.2v8l-.1.2h-7l-.1-.1v-8.1l.1-.2h7m0-1h-7c-.6 0-1.1.5-1.1 1.2v8c0 .7.5 1.2 1.1 1.2h7c.6 0 1.1-.5 1.1-1.1v-8.1c0-.7-.5-1.2-1.1-1.2z" fill="#424242" opacity=".2"/><path d="M19.6 39H15V28.6h4.6c.6 0 1.2.5 1.2 1.2v8c0 .7-.5 1.2-1.2 1.2z" fill="#4FC3F7"/><path d="M19.6 29.6c.1 0 .2 0 .2.2v8c0 .2-.1.2-.2.2H16v-8.4h3.6m0-1H15V39h4.6c.6 0 1.2-.5 1.2-1.1v-8.1c0-.7-.5-1.2-1.2-1.2z" fill="#424242" opacity=".2"/><path d="M40 39h-4.7c-.6 0-1.1-.5-1.1-1.1v-8.1c0-.7.5-1.2 1.1-1.2H40V39z" fill="#4FC3F7"/><path d="M39 29.6V38h-3.7l-.1-.1v-8.1l.1-.2H39m1-1h-4.7c-.6 0-1.1.5-1.1 1.2v8c0 .7.5 1.2 1.1 1.2H40V28.6z" fill="#424242" opacity=".2"/><path d="M101.1 22.1h1c.4 0 .8-.3.8-.8s-.4-.9-.9-.9h-3.2c-.5 0-.9.4-.9.9s.4.8.8.8h1.2l-1.4 3.2-1.7 3.8 1.2.5.6-1.5h3.8l.6 1.5 1.2-.5-3.1-7zm-.6 1.8l.6 1.4H100l.6-1.4zM99 27.3l.5-1h2l.5 1h-3z" fill="#FFEB3B"/><linearGradient id="c" x1="100.5" x2="100.5" y1="26.2" y2="42.2" gradientUnits="userSpaceOnUse"><stop stop-color="#FFEB3B" offset=".3"/><stop stop-color="#FEE539" offset=".5"/><stop stop-color="#FDD333" offset=".8"/><stop stop-color="#FBC02D" offset="1"/></linearGradient><path d="M110 44.3H91a3 3 0 0 1-3-3v-13a3 3 0 0 1 3-3h19a3 3 0 0 1 3 3v13a3 3 0 0 1-3 3z" fill="url(#c)"/><path d="M110 26.3a2 2 0 0 1 2 2v13a2 2 0 0 1-2 2H91a2 2 0 0 1-2-2v-13c0-1 .9-2 2-2h19m0-1H91a3 3 0 0 0-3 3v13a3 3 0 0 0 3 3h19a3 3 0 0 0 3-3v-13a3 3 0 0 0-3-3z" fill="#424242" opacity=".2"/><path d="M104 39h-7c-.6 0-1.1-.5-1.1-1.1v-8.1c0-.7.5-1.2 1.1-1.2h7c.6 0 1.1.5 1.1 1.2v8c0 .7-.5 1.2-1.1 1.2z" fill="#4FC3F7"/><path d="M104 29.6l.1.2v8l-.1.2h-7l-.1-.1v-8.1l.1-.2h7m0-1h-7c-.6 0-1.1.5-1.1 1.2v8c0 .7.5 1.2 1.1 1.2h7c.6 0 1.1-.5 1.1-1.1v-8.1c0-.7-.5-1.2-1.1-1.2z" fill="#424242" opacity=".2"/><path d="M92.6 39H88V28.6h4.6c.7 0 1.2.5 1.2 1.2v8c0 .7-.5 1.2-1.2 1.2z" fill="#4FC3F7"/><path d="M92.6 29.6c.1 0 .2 0 .2.2v8c0 .2-.1.2-.2.2H89v-8.4h3.6m0-1H88V39h4.6c.7 0 1.2-.5 1.2-1.1v-8.1c0-.7-.5-1.2-1.2-1.2z" fill="#424242" opacity=".2"/><path d="M113 39h-4.7c-.6 0-1.1-.5-1.1-1.1v-8.1c0-.7.5-1.2 1.1-1.2h4.7V39z" fill="#4FC3F7"/><path d="M112 29.6V38h-3.7l-.1-.1v-8.1l.1-.2h3.7m1-1h-4.7c-.6 0-1.1.5-1.1 1.2v8c0 .7.5 1.2 1.1 1.2h4.7V28.6z" fill="#424242" opacity=".2"/><path d="M27.1 89.5h1c.4 0 .8-.4.8-.8 0-.5-.4-.9-.9-.9h-3.2c-.5 0-.9.4-.9.8 0 .5.4 1 .9 1h1.1l-1.4 3.1-1.7 3.8 1.2.5.6-1.5h3.8L29 97l1.2-.5-3.1-7zm-.6 1.8l.6 1.4H26l.6-1.4zM25 94.7l.5-1.1h2l.5 1h-3z" fill="#FFEB3B"/><linearGradient id="d" x1="26.5" x2="26.5" y1="93.4" y2="109.4" gradientUnits="userSpaceOnUse"><stop stop-color="#FFEB3B" offset=".3"/><stop stop-color="#FEE539" offset=".5"/><stop stop-color="#FDD333" offset=".8"/><stop stop-color="#FBC02D" offset="1"/></linearGradient><path d="M36 111.4H17a3 3 0 0 1-3-3V95.5a3 3 0 0 1 3-3h19a3 3 0 0 1 3 3v13a3 3 0 0 1-3 3z" fill="url(#d)"/><path d="M36 93.5a2 2 0 0 1 2 2v13a2 2 0 0 1-2 2H17a2 2 0 0 1-2-2v-13c0-1.1.9-2 2-2h19m0-1H17a3 3 0 0 0-3 3v13a3 3 0 0 0 3 3h19a3 3 0 0 0 3-3v-13a3 3 0 0 0-3-3z" fill="#424242" opacity=".2"/><path d="M30 106.2h-7c-.6 0-1.1-.5-1.1-1.1v-8.2c0-.6.5-1.1 1.1-1.1h7c.6 0 1.1.5 1.1 1.1v8.2c0 .6-.5 1.1-1.1 1.1z" fill="#4FC3F7"/><path d="M30 96.8l.1.1v8.2l-.1.1h-7l-.1-.1v-8.2l.1-.1h7m0-1h-7c-.6 0-1.1.5-1.1 1.1v8.2c0 .6.5 1.1 1.1 1.1h7c.6 0 1.1-.5 1.1-1.1v-8.2c0-.6-.5-1.1-1.1-1.1z" fill="#424242" opacity=".2"/><path d="M18.6 106.2H14V95.8h4.6c.6 0 1.2.5 1.2 1.1v8.2c0 .6-.5 1.1-1.2 1.1z" fill="#4FC3F7"/><path d="M18.6 96.8l.2.1v8.2l-.2.1H15v-8.4h3.6m0-1H14v10.4h4.6c.6 0 1.2-.5 1.2-1.1v-8.2c0-.6-.5-1.1-1.2-1.1z" fill="#424242" opacity=".2"/><path d="M39 106.2h-4.7c-.6 0-1.1-.5-1.1-1.1v-8.2c0-.6.5-1.1 1.1-1.1H39v10.4z" fill="#4FC3F7"/><path d="M38 96.8v8.4h-3.7l-.1-.1v-8.2l.1-.1H38m1-1h-4.7c-.6 0-1.1.5-1.1 1.1v8.2c0 .6.5 1.1 1.1 1.1H39V95.8z" fill="#424242" opacity=".2"/><path d="M102.1 89.5h1c.4 0 .8-.4.8-.8 0-.5-.4-.9-.9-.9h-3.2c-.5 0-.9.4-.9.8 0 .5.4 1 .8 1h1.2l-1.4 3.1-1.7 3.8 1.2.5.6-1.5h3.8l.6 1.5 1.2-.5-3.1-7zm-.6 1.8l.6 1.4H101l.6-1.4zm-1.5 3.4l.5-1.1h2l.5 1h-3z" fill="#FFEB3B"/><linearGradient id="e" x1="101.5" x2="101.5" y1="93.4" y2="109.4" gradientUnits="userSpaceOnUse"><stop stop-color="#FFEB3B" offset=".3"/><stop stop-color="#FEE539" offset=".5"/><stop stop-color="#FDD333" offset=".8"/><stop stop-color="#FBC02D" offset="1"/></linearGradient><path d="M111 111.4H92a3 3 0 0 1-3-3V95.5a3 3 0 0 1 3-3h19a3 3 0 0 1 3 3v13a3 3 0 0 1-3 3z" fill="url(#e)"/><path d="M111 93.5a2 2 0 0 1 2 2v13a2 2 0 0 1-2 2H92a2 2 0 0 1-2-2v-13c0-1.1.9-2 2-2h19m0-1H92a3 3 0 0 0-3 3v13a3 3 0 0 0 3 3h19a3 3 0 0 0 3-3v-13a3 3 0 0 0-3-3z" fill="#424242" opacity=".2"/><path d="M105 106.2h-7c-.6 0-1.1-.5-1.1-1.1v-8.2c0-.6.5-1.1 1.1-1.1h7c.6 0 1.1.5 1.1 1.1v8.2c0 .6-.5 1.1-1.1 1.1z" fill="#4FC3F7"/><path d="M105 96.8l.1.1v8.2l-.1.1h-7l-.1-.1v-8.2l.1-.1h7m0-1h-7c-.6 0-1.1.5-1.1 1.1v8.2c0 .6.5 1.1 1.1 1.1h7c.6 0 1.1-.5 1.1-1.1v-8.2c0-.6-.5-1.1-1.1-1.1z" fill="#424242" opacity=".2"/><path d="M93.6 106.2H89V95.8h4.6c.7 0 1.2.5 1.2 1.1v8.2c0 .6-.5 1.1-1.2 1.1z" fill="#4FC3F7"/><path d="M93.6 96.8l.2.1v8.2l-.2.1H90v-8.4h3.6m0-1H89v10.4h4.6c.7 0 1.2-.5 1.2-1.1v-8.2c0-.6-.5-1.1-1.2-1.1z" fill="#424242" opacity=".2"/><path d="M114 106.2h-4.7c-.6 0-1.1-.5-1.1-1.1v-8.2c0-.6.5-1.1 1.1-1.1h4.7v10.4z" fill="#4FC3F7"/><path d="M113 96.8v8.4h-3.7l-.1-.1v-8.2l.1-.1h3.7m1-1h-4.7c-.6 0-1.1.5-1.1 1.1v8.2c0 .6.5 1.1 1.1 1.1h4.7V95.8z" fill="#424242" opacity=".2"/><path d="M15.1 57.6h1c.4 0 .8-.3.8-.8s-.4-.9-.9-.9h-3.2c-.5 0-.9.4-.9.9s.4.8.9.8h1.1l-1.4 3.2-1.7 3.8 1.2.5.6-1.5h3.8l.6 1.5 1.2-.5-3.1-7zm-.6 1.8l.6 1.4H14l.6-1.4zM13 62.8l.5-1h2l.5 1h-3z" fill="#FFEB3B"/><linearGradient id="f" x1="16.5" x2="16.5" y1="61.6" y2="77.6" gradientUnits="userSpaceOnUse"><stop stop-color="#FFEB3B" offset=".3"/><stop stop-color="#FEE539" offset=".5"/><stop stop-color="#FDD333" offset=".8"/><stop stop-color="#FBC02D" offset="1"/></linearGradient><path d="M26 79.6H7a3 3 0 0 1-3-3v-13a3 3 0 0 1 3-2.9h19a3 3 0 0 1 3 3v13a3 3 0 0 1-3 3z" fill="url(#f)"/><path d="M26 61.7a2 2 0 0 1 2 2v13a2 2 0 0 1-2 2H7a2 2 0 0 1-2-2v-13c0-1.1.9-2 2-2h19m0-1H7a3 3 0 0 0-3 3v13a3 3 0 0 0 3 3h19a3 3 0 0 0 3-3v-13a3 3 0 0 0-3-3z" fill="#424242" opacity=".2"/><path d="M20 74.4h-7c-.6 0-1.1-.5-1.1-1.1V65c0-.6.5-1.1 1.1-1.1h7c.6 0 1.1.5 1.1 1.1v8.2c0 .6-.5 1.1-1.1 1.1z" fill="#4FC3F7"/><path d="M20 65l.1.1v8.2l-.1.1h-7l-.1-.1V65l.1-.1h7m0-1h-7c-.6 0-1.1.5-1.1 1.1v8.2c0 .6.5 1.1 1.1 1.1h7c.6 0 1.1-.5 1.1-1.1V65c0-.6-.5-1.1-1.1-1.1z" fill="#424242" opacity=".2"/><path d="M8.6 74.4H4V64h4.6c.7 0 1.2.5 1.2 1.1v8.2c0 .6-.5 1.1-1.2 1.1z" fill="#4FC3F7"/><path d="M8.6 65l.2.1v8.2l-.2.1H5V65h3.6m0-1H4v10.4h4.6c.6 0 1.2-.5 1.2-1.1V65c0-.6-.5-1.1-1.2-1.1z" fill="#424242" opacity=".2"/><path d="M29 74.4h-4.7c-.6 0-1.1-.5-1.1-1.1V65c0-.6.5-1.1 1.1-1.1H29v10.4z" fill="#4FC3F7"/><path d="M28 65v8.4h-3.7l-.1-.1V65l.1-.1H28m1-1h-4.7c-.6 0-1.1.5-1.1 1.1v8.2c0 .6.5 1.1 1.1 1.1H29V64z" fill="#424242" opacity=".2"/><path d="M114.1 57.6h1c.4 0 .8-.3.8-.8s-.4-.9-.9-.9h-3.2c-.5 0-.9.4-.9.9s.4.8.8.8h1.2l-1.4 3.2-1.7 3.8 1.2.5.6-1.5h3.8l.6 1.5 1.2-.5-3.1-7zm-.6 1.8l.6 1.4H113l.6-1.4zm-1.5 3.4l.5-1h2l.5 1h-3z" fill="#FFEB3B"/><linearGradient id="g" x1="111.5" x2="111.5" y1="61.6" y2="77.6" gradientUnits="userSpaceOnUse"><stop stop-color="#FFEB3B" offset=".3"/><stop stop-color="#FEE539" offset=".5"/><stop stop-color="#FDD333" offset=".8"/><stop stop-color="#FBC02D" offset="1"/></linearGradient><path d="M121 79.6h-19a3 3 0 0 1-3-3v-13a3 3 0 0 1 3-2.9h19a3 3 0 0 1 3 3v13a3 3 0 0 1-3 3z" fill="url(#g)"/><path d="M121 61.7a2 2 0 0 1 2 2v13a2 2 0 0 1-2 2h-19a2 2 0 0 1-2-2v-13c0-1.1.9-2 2-2h19m0-1h-19a3 3 0 0 0-3 3v13a3 3 0 0 0 3 3h19a3 3 0 0 0 3-3v-13a3 3 0 0 0-3-3z" fill="#424242" opacity=".2"/><path d="M115 74.4h-7c-.6 0-1.1-.5-1.1-1.1V65c0-.6.5-1.1 1.1-1.1h7c.6 0 1.1.5 1.1 1.1v8.2c0 .6-.5 1.1-1.1 1.1z" fill="#4FC3F7"/><path d="M115 65l.1.1v8.2l-.1.1h-7l-.1-.1V65l.1-.1h7m0-1h-7c-.6 0-1.1.5-1.1 1.1v8.2c0 .6.5 1.1 1.1 1.1h7c.6 0 1.1-.5 1.1-1.1V65c0-.6-.5-1.1-1.1-1.1z" fill="#424242" opacity=".2"/><path d="M103.6 74.4H99V64h4.6c.7 0 1.2.5 1.2 1.1v8.2c0 .6-.5 1.1-1.2 1.1z" fill="#4FC3F7"/><path d="M103.6 65l.2.1v8.2l-.2.1H100V65h3.6m0-1H99v10.4h4.6c.7 0 1.2-.5 1.2-1.1V65c0-.6-.5-1.1-1.2-1.1z" fill="#424242" opacity=".2"/><path d="M124 74.4h-4.7c-.6 0-1.1-.5-1.1-1.1V65c0-.6.5-1.1 1.1-1.1h4.7v10.4z" fill="#4FC3F7"/><path d="M123 65v8.4h-3.7l-.1-.1V65l.1-.1h3.7m1-1h-4.7c-.6 0-1.1.5-1.1 1.1v8.2c0 .6.5 1.1 1.1 1.1h4.7V64z" fill="#424242" opacity=".2"/></svg>