<svg viewBox="0 0 128 128" xmlns="http://www.w3.org/2000/svg" xmlns:xlink="http://www.w3.org/1999/xlink"><defs><path id="a" d="M4 4h120v120H4z"/></defs><clipPath id="b"><use xlink:href="#a"/></clipPath><path d="M53 21.5c-5.5 5-11 11.9-8.7 19.2 2.7 8.3-5 15-12 14" clip-path="url(#b)" fill="none" stroke="#607D8B" stroke-linecap="round" stroke-linejoin="round" stroke-miterlimit="10" stroke-width="4"/><path d="M-13.5 45.3s-4-28.5 7.3-39.5" clip-path="url(#b)" fill="none" stroke="#B0BEC5" stroke-linecap="round" stroke-linejoin="round" stroke-miterlimit="10" stroke-width="3"/><g clip-path="url(#b)"><linearGradient id="c" x1="21.8" x2="30.4" y1="112.6" y2="122" gradientTransform="rotate(10.3 35.9 89.7)" gradientUnits="userSpaceOnUse"><stop stop-color="#64B5F6" offset="0"/><stop stop-color="#2196F3" offset="1"/></linearGradient><path d="M32.7 123.8l-4.4-1.9a23.4 23.4 0 0 0-11.1-1.8l-3.4.3c-1.1 0-1.8-1.2-1.2-2.1 2.6-4.2 8.4-12.4 13.2-11.6 4.7 1 7.6 10.8 8.7 15.6.3 1-.8 2-1.8 1.6z" fill="url(#c)"/><path d="M25 108.7h.4c2.3.4 5 5.4 6.9 12.8L29 120a25.2 25.2 0 0 0-12-2l-2.1.2c3.9-6 7.7-9.6 10-9.6m0-2c-4.6 0-10 7.7-12.4 11.6-.6.9 0 2 1 2h.2l3.4-.2H19c3.2 0 6.4.6 9.3 1.9l4.4 1.9h.5c.8 0 1.5-.7 1.3-1.6-1.1-4.8-4-14.7-8.7-15.5l-.7-.1z" fill="#444" opacity=".2"/><linearGradient id="d" x1="39.9" x2="54.2" y1="66.5" y2="103.1" gradientTransform="rotate(10.3 35.9 89.7)" gradientUnits="userSpaceOnUse"><stop stop-color="#64B5F6" offset="0"/><stop stop-color="#2196F3" offset=".7"/></linearGradient><path d="M38.8 106.4l-4.7-.9 17.3-36.2L62 75.7a3 3 0 0 1 1.2 3.6c-1 2.6-2.6 7-4.4 11-2.5 5.5-12 17.5-19.9 16z" fill="url(#d)"/><linearGradient id="e" x1="1" x2="9.5" y1="80.7" y2="102.7" gradientTransform="scale(-1 1) rotate(3.4 49.5 -233.3)" gradientUnits="userSpaceOnUse"><stop stop-color="#64B5F6" offset="0"/><stop stop-color="#2196F3" offset=".7"/></linearGradient><path d="M17.6 100.7l2.8-.2-7.2-22.6L6.4 81c-.8.4-1.2 1.3-1 2.1L7.1 90c1 3.4 5.7 11 10.5 10.7z" fill="url(#e)"/><path d="M51.9 70.8l9.5 5.7c.7.5 1 1.5.7 2.4-1 2.9-2.5 7.1-4.3 11-2.4 5.3-10.8 15.6-17.6 15.6l-1.2-.1-3.4-.6 16.3-34m-.5-1.5l-17.3 36.2 4.7.9 1.3.1c7.6 0 16.2-11 18.6-16.2 1.8-4 3.5-8.4 4.4-11a3 3 0 0 0-1.2-3.6l-10.5-6.4zm-38.8 10L19 99.6l-1.6.1h-.3c-4 0-8.3-7-9.2-10-.7-2.4-1.3-5-1.6-6.8-.1-.4 0-.8.4-1l5.8-2.6m.6-1.4L6.4 81c-.8.3-1.2 1.2-1 2l1.7 7c1 3.3 5.5 10.7 10.1 10.7h.4l2.9-.2-7.3-22.6z" fill="#444" opacity=".2"/><radialGradient id="f" cx="24.2" cy="68.1" r="51.4" gradientTransform="matrix(.9276 .1681 -.1696 .9359 18.3 -3.2)" gradientUnits="userSpaceOnUse"><stop stop-color="#BBDEFB" offset=".4"/><stop stop-color="#64B5F6" offset=".7"/></radialGradient><path d="M41.2 50.9l-5.6 2.7-4.1-4.5s-17.8 3.7-21.2 22.2a41 41 0 0 0 14.8 40.5s25.9-5 30.8-32.3C59.3 60.8 41.2 51 41.2 51z" fill="url(#f)"/><defs><path id="g" d="M41.2 50.9l-5.7 3-4-4.8s-17.8 3.8-21.2 22.2a41 41 0 0 0 14.8 40.6S51 106.6 56 79.4c3.4-18.7-14.7-28.7-14.7-28.7z"/></defs><clipPath id="h"><use xlink:href="#g"/></clipPath><radialGradient id="i" cx="7.4" cy="63.7" r="70.5" gradientTransform="matrix(.7367 .1335 -.1411 .7787 22.2 10)" gradientUnits="userSpaceOnUse"><stop stop-color="#E3F2FD" offset=".4"/><stop stop-color="#90CAF9" offset="1"/></radialGradient><path d="M27.6 113.8c3.3 8-36.4-5.2-36.4-5.2l12-66.4 33.5 3.3 12.1 4.3s8.1 15.3-12.6 22c-17.8 5.8-13.2 31.3-8.6 42z" clip-path="url(#h)" fill="url(#i)"/><ellipse transform="rotate(-79.7 40.3 62.6)" cx="40.4" cy="62.6" rx="3.1" ry="3.3" fill="#283593"/><path d="M22.8 65.8s1.5 3.7 10.1 5.3c8.7 1.6 11.7-1.5 11.7-1.5" fill="none" stroke="#82B1FF" stroke-linecap="round" stroke-linejoin="round" stroke-miterlimit="10" stroke-width="3"/><linearGradient id="j" x1="24.1" x2="35" y1="78.2" y2="78.2" gradientTransform="rotate(10.3 35.9 89.7)" gradientUnits="userSpaceOnUse"><stop stop-color="#64B5F6" offset="0"/><stop stop-color="#2196F3" offset=".7"/></linearGradient><path d="M33.4 84.3l-5.8-1c-1.5-.3-2.4-2-1.9-3.5 1.2-3.8 3.7-9.8 7-9.2 3 .6 3.6 7 3.6 11 0 1.7-1.4 3-3 2.8z" fill="url(#j)"/><path d="M30.8 51.3l3.3 3.9a2 2 0 0 0 2.4.4l4.6-2.5c3.5 2.3 15.5 11.3 12.8 26a36.7 36.7 0 0 1-16.2 25c-5.3 3.5-10.2 5-12.1 5.6a39.3 39.3 0 0 1-13.3-38 26 26 0 0 1 18.5-20.4m.7-2.2s-17.8 3.8-21.2 22.2a41 41 0 0 0 14.8 40.6S51 106.8 56 79.5C59.3 60.8 41.2 51 41.2 51l-5.6 3-4.1-4.8z" fill="#444" opacity=".2"/></g><radialGradient id="k" cx="60" cy="56.4" r="10.9" gradientTransform="rotate(13.2 77.1 65.8)" gradientUnits="userSpaceOnUse"><stop stop-color="#B3E5FC" offset=".2"/><stop stop-color="#4FC3F7" offset=".7"/></radialGradient><path d="M61.6 61.3l.1.1c3.4 5 11.4 2.7 11-3.5v-.5c-.4-3.6-3.2-6.3-6.4-7.7-1.7-.7-3.4-1.4-5.1-1.9l-2.6-.8c-.5 0-1.4.1-1.6.7-.3.8.2 2.4.4 3.2.8 3.7 2 7.3 4.2 10.4z" clip-path="url(#b)" fill="url(#k)"/><g clip-path="url(#b)" opacity=".2"><path d="M59 49.2l1 .3.6.2a55 55 0 0 1 4.9 1.8c3 1.3 5 3.6 5.3 6.2v.3c0 1.2-.3 2.1-1 2.9a4 4 0 0 1-3 1.2 4.1 4.1 0 0 1-3.5-1.9c-1.8-2.5-3-5.6-4-9.7l-.1-.7-.1-.6m-.8-2.2c-.5 0-1.1.2-1.3.7-.3.8.2 2.4.4 3.2.8 3.7 2 7.3 4.2 10.4l.1.1a6.1 6.1 0 0 0 5.1 2.7c3.2 0 6.2-2.3 6-6.2v-.5c-.5-3.6-3.3-6.3-6.5-7.7l-5.1-1.9a11 11 0 0 0-2.6-.7h-.3z" fill="#444"/></g><g clip-path="url(#b)"><path d="M52.2 25.3c12.5-13.3 25.2-15 37.1-10.9 21 7.2 24.3 26.5 24.6 35.5.3 8-1 19.7-2.3 27.7l-13.1 76.1c-1.4 8.1 8.1 9.7 9.5 1.6 5.3-30.5 11.1-60.9 15.4-91.5 2.1-15.6-.2-31.1-10-42.7A44.3 44.3 0 0 0 82 4.6C68.2 4 58.3 10.4 48.9 22c-2.5 3.1 1.6 5.1 3.3 3.3z" fill="#5D4037"/><path d="M80 6.6h1.8c11.3.6 22 6.2 30.1 15.8 10.8 12.8 11.1 29.4 9.5 41.1-3 22.3-7 44.8-11 66.5l-4.4 25c-.4 2.6-2 3.6-3.1 3.6-.7 0-1.3-.3-1.8-.8-.7-.8-1-2.2-.7-3.8l3-17c3.8-22.2 9.1-52.5 10.1-59.1.9-5.3 2.8-18.8 2.4-28-.3-8.7-3.5-29.7-25.9-37.4-4-1.3-8-2-11.8-2A37.6 37.6 0 0 0 50.5 24h-.3c0-.2 0-.4.3-.7C59.8 11.7 69 6.6 80 6.6m0-2C67.3 4.6 57.8 11 49 22c-2 2.3-.2 4 1.5 4 .6 0 1.3-.2 1.7-.7 8.7-9.2 17.4-12.8 26-12.8 3.8 0 7.5.7 11.1 2 21 7.1 24.3 26.4 24.6 35.4.3 8-1 19.7-2.3 27.7l-13.1 76.1c-.8 4.5 1.7 7 4.4 7 2.2 0 4.5-1.8 5.1-5.4 5.3-30.5 11.1-60.9 15.4-91.5 2.1-15.6-.2-31-10-42.7A44.3 44.3 0 0 0 80 4.6z" fill="#eee" opacity=".2"/><linearGradient id="l" x1="106.7" x2="120.3" y1="79.1" y2="131.8" gradientTransform="rotate(9.3 71.8 75)" gradientUnits="userSpaceOnUse"><stop stop-color="#FFA726" offset=".2"/><stop stop-color="#FB8C00" offset=".7"/></linearGradient><path d="M108.8 156l-11-1.8a3 3 0 0 1-2.4-3.5l10.1-62a3 3 0 0 1 3.5-2.5l11 1.8a3 3 0 0 1 2.4 3.4l-10.2 62a3 3 0 0 1-3.4 2.6z" fill="url(#l)"/><path d="M108.5 88.1h.2l10.9 1.8c.4 0 .6.3.6.4.1.2.3.4.2.8l-10.1 62c-.1.5-.5.9-1 .9h-.2l-10.9-1.8a1 1 0 0 1-.8-1.1L107.5 89c.1-.5.5-.9 1-.9m0-2a3 3 0 0 0-3 2.6l-10.1 62a3 3 0 0 0 2.5 3.5l10.9 1.8h.5a3 3 0 0 0 3-2.5l10.1-62.1a3 3 0 0 0-2.5-3.5L109 86.2h-.5z" fill="#444" opacity=".2"/><circle cx="96.4" cy="103.5" r="15.7" fill="#BDBDBD"/><circle cx="96.4" cy="103.5" r="7.2" fill="#757575"/><g fill="#444" opacity=".2"><path d="M96.4 89.8l2.2.2a13.7 13.7 0 1 1-2.2-.2m0-2a15.7 15.7 0 1 0 0 31.4 15.7 15.7 0 0 0 0-31.4z"/><path d="M96.4 98.3h.9a5.3 5.3 0 0 1 4.3 6 5.2 5.2 0 1 1-10.3-1.6 5.2 5.2 0 0 1 5.1-4.4m0-2a7.2 7.2 0 1 0 0 14.5 7.2 7.2 0 0 0 0-14.5z"/></g><path d="M96 109l-15 10.6c-1.2.9-2.9.6-3.8-.7l-.7-.9c-.9-1.3-.6-3 .7-3.9L92 103.5c1.2-1 3-.7 3.9.6l.7 1c.8 1.2.6 3-.7 3.8z" fill="#FFD54F"/><path d="M93.6 104c.6 0 1.1.2 1.5.7l.6 1c.6.7.4 1.8-.4 2.4l-14.8 10.7a1.8 1.8 0 0 1-2.5-.4l-.7-1c-.5-.8-.4-1.9.4-2.5l14.9-10.6c.3-.2.6-.3 1-.3m0-1c-.5 0-1.1.1-1.6.5L77.2 114a2.8 2.8 0 0 0-.7 4l.7.8a2.8 2.8 0 0 0 3.9.7l14.8-10.7c1.3-.9 1.5-2.6.6-3.9l-.6-.9a2.8 2.8 0 0 0-2.3-1.1z" fill="#444" opacity=".2"/></g></svg>