<svg viewBox="0 0 128 128" xmlns="http://www.w3.org/2000/svg"><path d="M81.7 4a3 3 0 0 0-2.8 2c-1.5 4.4-5 9.8-15 9.8s-13.4-5.4-15-9.7A3 3 0 0 0 46.2 4c-5 3.2-7.4 3.8-7 6.8 1.2 14.4 4 34 24.7 34s23-18 25.4-29.2c1.3-6.5-.2-8-7.5-11.6z" fill="#EF6C00"/><path d="M81.6 7.3a14 14 0 0 1 4.6 3.2c.4.5.7 1.4 0 4.5 0 .7-.2 1.4-.4 2.1-2.2 11-5 24.8-22 24.8-17.6 0-20.5-16.2-21.8-31.3v-.4c.2-.4 1.8-1.3 3-2l1.3-.8C49 15 55 18.8 63.9 18.8c9 0 15-3.8 17.7-11.5m.1-3.3a3 3 0 0 0-2.8 2c-1.5 4.4-5 9.8-15 9.8s-13.4-5.4-15-9.7A3 3 0 0 0 46.2 4c-5 3.2-7.4 3.8-7 6.8 1.2 14.4 4 34 24.7 34s23-18 25.4-29.2c1.4-6.5-.2-8-7.5-11.6z" fill="#444" opacity=".2"/><linearGradient id="a" x1="64" x2="64" y1="54" y2="111.5" gradientUnits="userSpaceOnUse"><stop stop-color="#FFA726" offset=".3"/><stop stop-color="#FF7300" offset=".8"/></linearGradient><path d="M109.6 99.8a251.3 251.3 0 0 1-.8-48.1 156.3 156.3 0 0 1-89.9 42.5l-.5 5.6-2 16.1a3 3 0 0 0 2.7 3.4S32.5 124 64 124s44.8-4.7 44.8-4.7a3 3 0 0 0 2.8-3.4l-2-16z" fill="url(#a)"/><linearGradient id="b" x1="20.4" x2="108.6" y1="87.9" y2="42.8" gradientUnits="userSpaceOnUse"><stop stop-color="#fff" offset=".3"/><stop stop-color="#E0E0E0" offset=".8"/></linearGradient><path d="M108.8 51.7c-.1-1-.9-1.8-1.8-2-7.6-.9-11-7.4-11.3-15.6C75.2 53 48.3 70.3 20 71.6c0 7.6-.4 15.1-1 22.6 33.3-4.2 66-18.8 89.8-42.5z" fill="url(#b)"/><linearGradient id="c" x1="57.9" x2="57.9" y1="6.1" y2="59.9" gradientUnits="userSpaceOnUse"><stop stop-color="#FFA726" offset=".3"/><stop stop-color="#FB8C00" offset=".8"/></linearGradient><path d="M20 71.6c28.3-1.3 55-18.4 75.7-37.5v-1.7l1-22.7a4 4 0 0 0-3.5-4.2L81.7 4c0 21-3.7 32-17.8 32-14 0-17.8-11-17.8-32L34.8 5.5a4 4 0 0 0-3.5 4.2l1 22.7c0 9-3.2 16.3-11.3 17.4a2.2 2.2 0 0 0-1.8 2.3c.5 6.5.8 13 .8 19.5z" fill="url(#c)"/><path d="M84.7 7.4l8.1 1.1c.5 0 .9.5.9 1l-1 22.7v.2c0 11.4 4.7 18.7 13 20.2-1.2 15.8-.8 31.8 1 47.6l1.9 16-.7.2c-.2 0-13.3 4.6-43.9 4.6-30.4 0-43.7-4.5-43.9-4.6l-.7-.1 2-16.1c1.7-15.8 2-31.8.9-47.6 8.3-1.5 13-8.8 13-20.2v-.2l-1-22.7c0-.5.4-1 .9-1l8-1C43.4 24.1 46.8 39 63.8 39S84.3 24.2 84.7 7.4m-3-3.4c0 21-3.7 32-17.8 32-14 0-17.8-11-17.8-32L34.8 5.5a4 4 0 0 0-3.5 4.2l1 22.7c0 9-3.2 16.3-11.3 17.4a2.2 2.2 0 0 0-1.8 2.3c1.2 16 1 32-.8 47.7l-2 16.1a3 3 0 0 0 2.7 3.4S32.5 124 64 124s44.8-4.7 44.8-4.7a3 3 0 0 0 2.8-3.4l-2-16c-1.8-15.9-2-31.9-.8-47.8 0-1.1-.7-2.2-1.9-2.3-8-1-11.3-8.5-11.3-17.4l1-22.7a4 4 0 0 0-3.4-4.2L81.7 4z" fill="#444" opacity=".2"/></svg>