<svg viewBox="0 0 128 128" xmlns="http://www.w3.org/2000/svg"><radialGradient id="a" cx="40" cy="42" r="81.904" gradientTransform="matrix(-.1861 .9825 -.7651 -.1449 79.58 8.787)" gradientUnits="userSpaceOnUse"><stop stop-color="#FFD740" offset="0"/><stop stop-color="#FFD435" offset=".173"/><stop stop-color="#FFCB17" offset=".478"/><stop stop-color="#FFC400" offset=".68"/><stop stop-color="#FFAB00" offset="1"/></radialGradient><path d="M110.86 23.9s-1.17-2.34-3.53-3.7c-3.21-1.85-4.4-7.69-6.9-11-3.02-3.99-7.85-5.18-10.11-5.2-4.44-.04-7.56 1.47-10.67 6.64-.87 1.45-24.91 52.96-33.88 72.21-.31.67-.83.27-1.13-.41-2.51-5.69 2.17-17.1 3.71-21.03 1.14-2.91 4.95-7.16 4.95-9.31 0-6.99-11.11-8.02-25.4-8.02C5.68 44.09 4 47.94 4 51.86c0 4.07 6.61 5.17 7.54 12.26.39 2.95-1.87 12.96-3.01 18.52-3.99 19.28 2.77 34.96 16.3 39.58 13.75 4.69 29.8.4 37.08-16.47 5.05-11.71 19.01-63.46 21.46-70.01 2.19-5.86 5.43-17.64 8.15-17.93 1.68-.17 3.64 6.98 11.07 9.24 5.21 1.59 12.45 1.6 12.45 1.6l-4.18-4.75z" fill="url(#a)"/><path d="M90.16 7h.14c1.23.01 5.28.77 7.74 4.02.79 1.04 1.48 2.53 2.21 4.11 1.38 2.99 2.81 6.07 5.59 7.68 1.29.75 2.09 2.01 2.29 2.35-1.58-.22-3.23-.53-4.67-.97-3.8-1.16-5.86-3.99-7.36-6.06-1.24-1.71-2.41-3.32-4.52-3.32-.12 0-.25.01-.37.02-3.66.38-5.59 4.99-9.11 15.43-.55 1.64-1.08 3.19-1.54 4.43-.93 2.5-3.32 10.79-6.35 21.29-5.03 17.44-11.92 41.32-15.05 48.59C54.65 115.01 45.97 121 35.35 121c-3.19 0-6.4-.54-9.55-1.62-12.19-4.16-17.95-18.68-14.33-36.13.14-.69.3-1.45.47-2.26 1.69-8.02 2.95-14.39 2.58-17.25-.66-5-3.52-7.66-5.61-9.6C7.93 53.23 7 52.37 7 51.86c0-1.11 0-1.78 1.86-2.63 3.13-1.43 9.54-2.15 19.03-2.15 6.67 0 22.23 0 22.4 4.93-.17.68-1.35 2.49-2.06 3.58-1.03 1.57-2.09 3.19-2.68 4.72l-.19.49c-3.16 8.03-6.04 17.02-3.46 22.85.7 1.59 2 2.55 3.48 2.55 1.33 0 2.52-.8 3.12-2.08 19.9-42.7 32.82-70.23 33.75-71.96C84.86 7.82 87.05 7 90.16 7m0-3c-4.36 0-7.43 1.53-10.51 6.64-.87 1.45-24.91 52.96-33.88 72.21-.11.24-.25.34-.4.34-.26 0-.54-.32-.73-.76-2.51-5.69 2.17-17.1 3.71-21.03 1.14-2.91 4.95-7.16 4.95-9.31 0-6.99-11.11-8.02-25.4-8.02C5.68 44.09 4 47.94 4 51.86c0 4.07 6.61 5.17 7.54 12.26.39 2.95-1.87 12.96-3.01 18.52-3.99 19.28 2.77 34.96 16.3 39.58 3.42 1.17 6.98 1.78 10.52 1.78 10.68 0 21.09-5.57 26.56-18.25 5.05-11.71 19.01-63.46 21.46-70.01 2.19-5.86 5.43-17.64 8.15-17.93h.06c1.67 0 3.67 7.01 11.01 9.24 5.21 1.59 12.45 1.6 12.45 1.6l-4.17-4.76s-1.17-2.34-3.53-3.7c-3.21-1.85-4.4-7.69-6.9-11C97.41 5.21 92.58 4.02 90.32 4h-.16z" fill="#424242" opacity=".2"/><linearGradient id="b" x1="110.09" x2="113.75" y1="17.776" y2="31.609" gradientUnits="userSpaceOnUse"><stop stop-color="#757575" offset="0"/><stop stop-color="#424242" offset=".995"/></linearGradient><path d="M121.47 27.25c-.4-.37-.47-.53-.72-1.12-.28-.67-.67-1.6-1.54-2.69-1.21-1.51-2.99-2.39-5.04-3.42-1.08-.54-2.2-1.09-3.35-1.8-1.39-.84-3.87-.44-4.47 1.21.47.4.92.67 1.11.94.95 1.4.55 3.13.05 4.4-.59 1.5-2.8 2.74-4.84 2.29-.1.37-.13.94-.14 1.33-.01.43.17.91.36 1.28.43.81 1.2 1.41 2.09 1.62 1.97.46 3.97.95 5.96 1.44 2.02.49 4.03.98 6.02 1.45l1.91.45c.3.09.85.25 1.51.25 1.51 0 2.84-.9 3.37-2.31.97-2.59-1.22-4.43-2.28-5.32z" fill="url(#b)"/><path d="M67.54 32.43c-.46 1-.02 2.19.98 2.65l3.63 1.67c1 .46 2.19.02 2.65-.98s.02-2.19-.98-2.65l-3.63-1.67c-1-.46-2.18-.02-2.65.98z" fill="#F4511E"/><ellipse transform="rotate(-65.29 68.957 33.13)" cx="68.96" cy="33.13" rx="6" ry="4" fill="#FF7043"/><path d="M60.86 46.97c-.46 1-.02 2.19.98 2.65l3.63 1.67c1 .46 2.19.02 2.65-.98s.02-2.19-.98-2.65l-3.63-1.67a1.981 1.981 0 0 0-2.65.98z" fill="#F4511E"/><ellipse transform="rotate(-65.29 62.267 47.666)" cx="62.27" cy="47.66" rx="6" ry="4" fill="#FF7043"/><path d="M54.17 61.5c-.46 1-.02 2.19.98 2.65l3.63 1.67c1 .46 2.19.02 2.65-.98s.02-2.19-.98-2.65l-3.63-1.67c-1-.46-2.19-.02-2.65.98z" fill="#F4511E"/><ellipse transform="rotate(-65.29 55.579 62.201)" cx="55.58" cy="62.2" rx="6" ry="4" fill="#FF7043"/><path d="M109.45 19.84c.15.03.26.07.33.11 1.19.73 2.32 1.29 3.41 1.83l.1.05c1.91.95 3.43 1.71 4.36 2.87.71.88 1.01 1.61 1.26 2.21.31.73.52 1.18 1.2 1.81.02.02.05.04.07.06 1.38 1.16 2.1 2.03 1.71 3.09-.23.63-.81 1.01-1.5 1.01-.37 0-.72-.11-.93-.17-.04-.01-.08-.02-.11-.03l-1.91-.45c-1.69-.4-3.4-.81-5.12-1.23l-.89-.22c-2.01-.49-4.01-.98-5.98-1.44-.22-.05-.42-.17-.57-.32 2.03-.42 3.81-1.77 4.5-3.52.85-2.17.88-4.07.07-5.66m-.3-2.03c-1.18 0-2.4.54-2.8 1.64.47.4.92.67 1.11.94.95 1.4.55 3.13.05 4.4-.51 1.29-2.2 2.38-3.96 2.38-.29 0-.59-.03-.88-.1-.1.37-.13.94-.14 1.33-.01.43.17.91.36 1.28.43.81 1.2 1.41 2.09 1.62 1.97.46 3.97.95 5.96 1.44 2.02.49 4.03.98 6.02 1.45l1.91.45c.3.09.85.25 1.51.25 1.51 0 2.84-.9 3.37-2.31.96-2.59-1.24-4.44-2.3-5.33-.4-.37-.47-.53-.72-1.12-.28-.67-.67-1.6-1.54-2.69-1.21-1.51-2.99-2.39-5.04-3.42-1.08-.54-2.2-1.09-3.35-1.8-.45-.27-1.04-.41-1.65-.41z" fill="#eee" opacity=".2"/></svg>