<svg viewBox="0 0 128 128" xmlns="http://www.w3.org/2000/svg"><radialGradient id="a" cx="63.3" cy="22" r="72" gradientUnits="userSpaceOnUse"><stop stop-color="#616262" offset=".5"/><stop stop-color="#212121" offset="1"/></radialGradient><path d="M63.9 4a60 60 0 1 0 .2 120A60 60 0 0 0 64 4z" fill="url(#a)"/><radialGradient id="b" cx="64" cy="32.4" r="59.5" gradientUnits="userSpaceOnUse"><stop stop-color="#eee" offset=".5"/><stop stop-color="#BDBDBD" offset="1"/></radialGradient><path d="M93 64a29 29 0 1 1-58 0 29 29 0 0 1 58 0z" fill="url(#b)"/><radialGradient id="c" cx="64" cy="41.8" r="35.2" gradientUnits="userSpaceOnUse"><stop stop-color="#616262" offset=".3"/><stop stop-color="#212121" offset="1"/></radialGradient><path d="M76.3 67.4c-1.2-1.7-2.8-3-4.8-4a11 11 0 0 0 4.2-3.8 10 10 0 0 0 1.5-5.4c0-3.6-1.2-6.4-3.6-8.5s-5.5-3.1-9.6-3.1c-4 0-7.3 1-9.7 3.1a11 11 0 0 0-3.5 8.5 10 10 0 0 0 5.7 9.2c-2 1-3.6 2.3-4.8 4s-1.8 3.7-1.8 6c0 3.7 1.3 6.6 3.8 8.8s6 3.2 10.3 3.2c4.4 0 7.8-1 10.3-3.2a11 11 0 0 0 3.8-8.8c0-2.3-.6-4.3-1.8-6zm-16-16.7c1-1 2.1-1.5 3.7-1.5s2.8.5 3.6 1.5c.9 1 1.3 2.3 1.3 4 0 1.6-.4 3-1.2 4s-2.1 1.5-3.7 1.5c-1.5 0-2.7-.5-3.6-1.6s-1.3-2.3-1.3-4c0-1.7.4-3 1.3-4zm8 26.5a6 6 0 0 1-4.3 1.6c-1.8 0-3.3-.6-4.3-1.7s-1.5-2.5-1.5-4.3c0-1.8.5-3.3 1.5-4.3s2.5-1.7 4.3-1.7c1.7 0 3.2.6 4.2 1.7s1.6 2.5 1.6 4.3a6 6 0 0 1-1.5 4.4z" fill="url(#c)"/><path d="M64 7a57 57 0 0 1 .1 114 57.1 57.1 0 0 1-.2-114h.1m0-3a60 60 0 0 0 .1 120h.1a60 60 0 0 0 0-120z" fill="#eee" opacity=".2"/></svg>