<svg viewBox="0 0 128 128" xmlns="http://www.w3.org/2000/svg" xmlns:xlink="http://www.w3.org/1999/xlink"><defs><path id="a" d="M106.7 91.3c-.2.4-.6.8-1.1 1-1 .2-2-.2-2.4-1L65 7.3c-.4-.8.1-1.7 1-2 1-.2 2 .2 2.4 1l38.4 84v1z"/></defs><use fill="#1565C0" xlink:href="#a"/><clipPath id="b"><use xlink:href="#a"/></clipPath><g clip-path="url(#b)"><path d="M98.6 73.2c-.2.5-.6.8-1.2 1-1 .3-2.2-.1-2.5-1l-32-70.4c-.4-.8.1-1.7 1.1-2 1-.3 2.1.1 2.5 1l32 70.4c.2.3.2.7 0 1z" fill="#EF6C00"/></g><path d="M99.2 84.3s3.2 3.4 6.2 3l-2.8-5.4-3.4 2.4z" fill="#0D47A1"/><path d="M99.5 78.9c-3.3 1-5.4 3-4.7 4.5.7 1.6 4 2 7.2 1.1 3.3-1 5.4-3 4.7-4.5-.7-1.6-4-2.1-7.2-1.1z" fill="#90CAF9"/><path d="M101 82c1.7-.8 1-1.7 1-1.7l-3.3-7.5-.1.4c-.2.5-.6.8-1.2 1-.8.3-1.8 0-2.3-.6l3.8 8.2c.3.4 1 .8 2 .2z" fill="#EF6C00"/><path d="M67.7 8.5c.4 0 .6.3.8.6l29.1 63.5v.2c0 .1 0 .3.2.4l2.5 5.7c.2.3.6.6 1 .6l1.5-.1c1.7 0 2.8.5 3 1 .3.5-.6 1.7-2.5 2.6a1 1 0 0 0-.5 1.3l.5 1.2 1 1.8v.4l1.4 3v.2c0 .2-.2.3-.4.4h-.3c-.4 0-.8-.1-.9-.4l-2.6-5.8a1 1 0 0 0-.3-.4l-.7-.5a1 1 0 0 0-.6-.3h-.1l-1 .1c-1.8 0-2.8-.5-3-1-.3-.6.6-1.7 2.4-2.6.5-.2.7-.8.5-1.3l-2.6-5.9-.2-.2-.1-.2-29-63.6V9c.1-.2.3-.3.6-.4h.3m0-1H67c-1 .3-1.5 1.2-1.2 2l29 63.7.2.3 2.7 5.9c-2.3 1-3.6 2.7-3 4 .5 1 2 1.5 4 1.5h1l.8.5 2.6 5.8c.3.6 1 1 1.7 1h.7c.5-.2.9-.6 1-1 .2-.3.2-.6 0-1l-1.3-3-1-2.3-.6-1.1c2.3-1 3.6-2.7 3-4-.5-1-2-1.5-4-1.5h-1.5l-2.5-5.6-.1-.6L69.4 8.7a2 2 0 0 0-1.7-1.2z" fill="#444" opacity=".2"/><path d="M62.2 15.3a12 12 0 0 0-.4 4.5c.1 1 .7 2 1.4 2.7a7 7 0 0 0 5 2.2h.3c1.3-.2 2.4-1 2.8-1.8.5-1 .1-3.4-1.5-3.7-.5 1-.4 2.3-2 2.4-1.5.1-2.2-1.3-2.6-2.3-1-2.6 1-5.1 1-7.7 0-.9-.4-4.5-2.3-3.6-1 .4-.6 2.2-.7 3-.2 1.4-.7 2.8-1 4.3z" fill="#2F2F2F"/><path d="M69.3 22.8h.1c2.8 2.2 5.7.9 7.2-1.4.9-1.3-.2-2.3-1-3.4-1-1.3-1.4-2.6-2-4l-2.3-5.4-.5-1.7c-.2-1.9-2-3.2-4.4-2.6-1 .2-2 .8-2.6 1.5-.9.8-1 2-.5 3 .8 1.4 2 2.6 2.7 4.2 1 2.3 2.2 5 2.4 7.5 0 1 0 1.6 1 2.3z" fill="#2F2F2F"/><path d="M67.5 5.2c1.3 0 2.2.7 2.3 1.8l.4 1.5.2.4 1.5 3.6a77.9 77.9 0 0 1 1.2 2.7c.4 1.1.9 2.3 1.7 3.4l.3.4c.9 1.1 1 1.4.7 1.8a4.2 4.2 0 0 1-3.5 2.1c-.4 0-.8 0-1.2-.2a1 1 0 0 0-.3 0 1 1 0 0 0-.7.3 3 3 0 0 1-1.9.8c-1.7 0-3.4-1-4.2-2-.7-.7-1-1.4-1.2-2-.2-1.5 0-3 .4-4.3l.3-1.3c.3-1 .6-2 .7-3v-1l.1-1.2v-.7c-.5-.8 0-1.5.2-1.8a4.7 4.7 0 0 1 3-1.3m.1 17.4h.4l.9-.3c.4-.1.6-.6.6-1l-.1-.7v-.2c-.2-2.6-1.4-5.3-2.4-7.6v-.2a1 1 0 0 0-1-.5h-.1a1 1 0 0 0-.9.7c0 .5-.2 1-.4 1.5-.5 1.6-1 3.5-.3 5.4.7 2 1.8 3 3.4 3m-.2-18.5a5.5 5.5 0 0 0-3.7 1.6c-.9.8-1 2-.5 3-.2.7 0 1.7-.1 2.1-.2 1.5-.7 3-1 4.4a12 12 0 0 0-.4 4.5c.1 1 .7 2 1.4 2.7 1 1.2 3 2.2 4.9 2.2h.4a4 4 0 0 0 2.3-1l1.5.2c1.8 0 3.3-1 4.3-2.5.9-1.3-.2-2.3-1-3.4-1-1.3-1.4-2.6-2-4-.7-1.8-1.7-3.6-2.3-5.4l-.5-1.7c-.2-1.6-1.5-2.7-3.3-2.7zm.1 17.4c-1.4 0-2-1.3-2.4-2.2-.8-2.2.3-4.3.8-6.3 1 2.2 2.2 5 2.4 7.4v1l-.5.1h-.2z" fill="#eee" opacity=".2"/><linearGradient id="c" x1="4" x2="92.7" y1="78.5" y2="78.5" gradientUnits="userSpaceOnUse"><stop stop-color="#4FC3F7" offset=".3"/><stop stop-color="#039BE5" offset=".8"/></linearGradient><path d="M5.1 41l50.1 65.3 2.6 3.4a59 59 0 0 0 9 9c4.7 3.6 10.8 6 16.2 5.2a12.6 12.6 0 0 0 9.1-6.4c.4-1.3.7-5.3.5-6.5-.2-1.2-7.4-.5-9.6-1-3.4-1-6.6-2.5-9.2-4.6L19 46.4c-1.7-2.1-3.5-4.3-5-6.6-1.6-2.8-10-6.9-10-6.9s-.2 6 1.1 8z" fill="url(#c)"/><linearGradient id="d" x1="4" x2="92.6" y1="75" y2="75" gradientUnits="userSpaceOnUse"><stop stop-color="#4FC3F7" offset=".3"/><stop stop-color="#039BE5" offset=".8"/></linearGradient><path d="M7 40l48.3 62.9a57.3 57.3 0 0 0 11.6 12.5c4.6 3.5 10.7 6 16 5a12.6 12.6 0 0 0 9.2-6.4c.9-2.6.8-5.6-2-6.8-2-.8-5-.1-7.1-.7a24 24 0 0 1-9.2-4.5L19 43c-1.7-2.2-3.5-4.3-5-6.7-1.6-2.7-3.4-7.8-7.5-6.7-1 .3-1.8 1-2.3 1.8-.5 2.2.3 5.4 2.8 8.5z" fill="url(#d)"/><linearGradient id="e" x1="21.2" x2="123.9" y1="60.3" y2="60.3" gradientUnits="userSpaceOnUse"><stop stop-color="#4FC3F7" offset=".3"/><stop stop-color="#039BE5" offset=".8"/></linearGradient><path d="M25.7 36.7c1 1 51.7 40.8 51.7 40.8 4 3.4 8.7 7.3 13 10.4 8.9 6.5 22.5 10.6 31.4 2.2.7-.7 1.4-1.5 1.9-2.5.3-1 .2-4.5.2-4.5s-4.9-1-7.6-.6c-6.7.7-13.5-2.6-19.4-6.4L33 34a31 31 0 0 1-5.6-6.1c-1.5-2.4-6.1-2.2-6.1-2.2l-.1 3.7c0 1.7.8 3.8 4.5 7.3z" fill="url(#e)"/><linearGradient id="f" x1="21.3" x2="123.9" y1="57.3" y2="57.3" gradientUnits="userSpaceOnUse"><stop stop-color="#4FC3F7" offset=".3"/><stop stop-color="#039BE5" offset=".8"/></linearGradient><path d="M25.7 33.5c1 1 2 1.9 3 2.4l48.7 38.5c4 3.4 8.7 7.2 13 10.4 8.9 6.5 22.5 10.6 31.4 2.2.7-.7 1.4-1.5 1.8-2.5.4-1.3.4-2.6-.1-3.7-1.6-3.4-4.5-1.7-7.2-1.4-6.7.7-13.4-2.6-19.4-6.4L33 31a31 31 0 0 1-5.6-6.1c-1.5-2.4-4.5-2.5-5.7-.6l-.3.4c-.6 2.5.6 5.5 4.3 9z" fill="url(#f)"/><path d="M7.6 31.4c1.5 0 2.8 2.4 3.8 4.4l1 1.6c1.2 2 2.6 3.8 4 5.6l1 1.2.1.1 54.8 59 .2.2a27 27 0 0 0 10 5c1.1.2 2.3.3 3.5.3h.4c1 0 2.2 0 3 .3.5.2 1.1.6 1.2 2v.5c.1.7 0 2.6-.2 4.3 0 .6-.3 1.1-.5 1.5a10.6 10.6 0 0 1-9.1 4.7c-4 0-8.8-1.8-12.7-4.9a55.2 55.2 0 0 1-11.3-12.1l-50-65.3A17.6 17.6 0 0 1 6 32c.2-.3.5-.5 1-.6h.5m0-2l-1.1.1c-1 .3-1.8 1-2.3 1.8L4 33s-.2 6 1.1 8l50.1 65.3 2.6 3.4c2.7 3.3 5.7 6.5 9 9 4 3.2 9.1 5.4 14 5.4.7 0 1.4 0 2.2-.2 3.3-.5 6.6-2.4 8.5-5.4a5 5 0 0 0 .9-2.3c.2-1.7.4-4.2.2-5.1v-.1c-.1-1.6-.8-3-2.5-3.8-1-.4-2.4-.4-3.7-.4H86c-1 0-2.1 0-3-.3a24 24 0 0 1-9.2-4.5L19 43c-1.7-2.2-3.5-4.3-5-6.6-1.4-2.5-3-7-6.4-7zm16.7-4.5c.5 0 1 .3 1.5 1a33.1 33.1 0 0 0 6.2 6.6l63.8 42.2h.1c5 3.2 11.7 6.8 18.6 6.8l2.1-.1 2-.4 2-.3c.3 0 .7 0 1.2 1l.2 1.3v.3l-.1 3.6-1.4 1.7c-3 2.8-6.6 4.2-11 4.2a31 31 0 0 1-17.8-6.5A9529.2 9529.2 0 0 1 27 35.2c-3.1-3-3.7-4.6-3.8-5.7v-3.7l.1-.5c.3-.4.7-.5.9-.5m0-2c-1 0-2 .5-2.5 1.4l-.3.4-.2 1.1v3.7c0 1.7.8 3.8 4.4 7.3 1.1 1 51.8 40.8 51.8 40.8 4 3.5 8.7 7.3 13 10.5a33.7 33.7 0 0 0 19 6.9c4.4 0 8.8-1.4 12.4-4.8.7-.6 1.4-1.5 1.9-2.5.3-1 .2-4.5.2-4.5 0-.8 0-1.6-.4-2.3-.8-1.7-1.9-2.1-3-2.1-1.4 0-2.8.5-4.2.7h-2c-6 0-12-3-17.5-6.3L33 30.8a31 31 0 0 1-5.6-6c-.8-1.3-2-2-3.2-2z" fill="#444" opacity=".2"/><defs><path id="g" d="M33 123.5c-.4.4-1 .6-1.5.5-1-.2-1.7-1-1.6-2.1L44.8 11.5a1.8 1.8 0 1 1 3.6.5L33.5 122.4c0 .4-.2.8-.5 1z"/></defs><use fill="#EF6C00" xlink:href="#g"/><clipPath id="h"><use xlink:href="#g"/></clipPath><g clip-path="url(#h)"><path d="M36.3 99.8a2 2 0 0 1-3.3-1.7L45.6 5.7a2 2 0 1 1 3.8.5L37 98.6c0 .5-.3 1-.6 1.2z" fill="#EF6C00"/></g><path d="M30.4 112.3s.9 5.3 3.8 6.2l.7-7.3-4.5 1.1z" fill="#E65100"/><path d="M33.8 106.4c-3.4-.4-6.5.8-6.7 2.9-.3 2 2.3 4.1 5.7 4.6 3.5.4 6.5-.8 6.8-2.9.3-2-2.3-4.1-5.8-4.6z" fill="#90CAF9"/><path d="M33.3 110.6c2-.2 1.9-1.4 1.9-1.4h.1l1.3-9.8c0 .2-.2.3-.3.4a2 2 0 0 1-3.3-1.1l-1.4 10.7c0 .5.4 1.3 1.7 1.2z" fill="#EF6C00"/><path d="M46.3 14h.1c.7 0 .6.9.6 1L36 98.5l-.2.4-.2.4-1 7.4c0 .5.3 1 .7 1 2 .8 3.5 2 3.3 3.2s-1.8 2-4 2a1 1 0 0 0-1 1l-.1 1.4-.3 2.6-.1.4-.6 4c0 .2 0 .4-.2.5l-.6.2h-.1a.8.8 0 0 1-.6-.3.9.9 0 0 1-.1-.7l1-7.6v-.4l-.3-1a1 1 0 0 0-.6-.6c-1.9-.7-3-2-3-3 .2-1 1.9-2 4-2a1 1 0 0 0 1-1l1-7.6v-.5l11.3-83.5c.1-.5.5-.9 1-.9m0-1a2 2 0 0 0-2 1.7L33 98.1v.6l-1 7.6c-2.6.2-4.7 1.3-5 3-.2 1.6 1.3 3.2 3.6 4l.3 1-1 7.6a1.8 1.8 0 0 0 1.8 2.1c.5 0 1-.2 1.3-.5l.5-1 .5-4h.1l.3-3 .2-1.5c2.7-.2 4.8-1.3 5-3s-1.5-3.4-4-4.2l1-7.4.3-.7 11-83.5c.2-1.1-.3-2-1.4-2.2h-.2z" fill="#444" opacity=".2"/><path d="M37.8 19.1c-1.2 1.5-2.3 3-3 4.8a7.2 7.2 0 0 0-.3 3.7c.2 1.7 1.4 3.9 3 4.7l.4.1c1.2.4 2.6.1 3.5-.7 1-.8 2.1-3.7.8-4.7-1 .7-1.7 2.3-3 1.7-1.6-.6-1.4-2.5-1.1-3.7.6-3.4 3.8-5.3 5.4-8.1.5-1 2.2-5 0-5-1 0-1.8 2.1-2.3 2.9-1 1.5-2.3 2.9-3.4 4.3z" fill="#2F2F2F"/><path d="M39.7 30.7v.1c1.3 3.6 4.6 3.5 7.3 1.7 1.5-1 1.2-2.6 1-4.2 0-1.8.4-3.5.7-5.3.3-2.3.5-4.7 1-7 .2-.7.3-1.5.6-2.1.9-2.2 0-4.5-2.4-5a5 5 0 0 0-3.2.5c-1.2.5-2 1.7-2.2 3-.1 2 .2 3.9 0 5.9-.5 3-1 6.6-2.3 9.4-.5 1.1-.9 1.8-.5 3z" fill="#2F2F2F"/><path d="M47 9.9h.6c.8.2 1.4.6 1.7 1.2.4.7.4 1.5 0 2.4l-.4 1.7-.1.5c-.4 1.6-.6 3.1-.8 4.7l-.3 2.4-.2 1.1a19.3 19.3 0 0 0-.4 5c.1 1.5.1 2.3-.7 2.8-1 .7-2 1-3 1-.9 0-1.6-.3-2.1-1a1 1 0 0 0-1.2-.3 3 3 0 0 1-1.2.2l-.7-.1H38a6 6 0 0 1-2.6-4 8 8 0 0 1 .3-3.2c.7-1.8 1.7-3.2 2.8-4.6l1-1.3 2.5-3 .5-1 .8-1.3.2-.6c0-1 .7-1.8 1.6-2.2.6-.3 1.3-.4 1.9-.4m-7.3 20a1 1 0 0 0 1-.7l.3-.9.1-.2a34 34 0 0 0 2.3-9.4v-.2a1 1 0 0 0-1-1.1 1 1 0 0 0-.8.4l-1.2 1.4a12 12 0 0 0-3.3 5.6c-.5 2.6 0 4.2 1.7 4.8.3.2.6.2.9.2m7.3-21a6 6 0 0 0-2.3.6c-1.3.5-2 1.7-2.2 3l-1.3 2.4c-1 1.5-2.3 2.9-3.4 4.3-1.2 1.5-2.3 3-3 4.8a7.2 7.2 0 0 0-.3 3.7c.2 1.7 1.4 3.9 3 4.7l.4.1 1 .2c.6 0 1.1-.1 1.6-.3.8 1 1.8 1.4 3 1.4 1.1 0 2.3-.4 3.5-1.2 1.5-1 1.2-2.6 1-4.2 0-1.8.4-3.5.7-5.3.3-2.3.5-4.7 1-7 .2-.7.3-1.5.6-2.1.9-2.2 0-4.5-2.4-5h-1zm-7.3 20H39c-1.5-.7-1.3-2.6-1-3.8.5-2.8 2.7-4.5 4.3-6.6-.4 3-.9 6.5-2.2 9.3l-.5 1.1z" fill="#eee" opacity=".2"/></svg>