<svg viewBox="0 0 128 128" xmlns="http://www.w3.org/2000/svg" xmlns:xlink="http://www.w3.org/1999/xlink"><linearGradient id="a" x1="64" x2="64" y1="27.125" y2="102.09" gradientUnits="userSpaceOnUse"><stop stop-color="#616161" offset="0"/><stop stop-color="#535353" offset=".286"/><stop stop-color="#2E2E2E" offset=".823"/><stop stop-color="#212121" offset="1"/></linearGradient><path d="M124 32v-6H6c-1.1 0-2 .9-2 2v72c0 1.1.9 2 2 2h118v-6H24V84.5h100v-6H24V67h100v-6H24V49.5h100v-6H24V32h100z" fill="url(#a)"/><path d="M122 28v2H24c-1.1 0-2 .9-2 2v11.5c0 1.1.9 2 2 2h98v2H24c-1.1 0-2 .9-2 2V61c0 1.1.9 2 2 2h98v2H24c-1.1 0-2 .9-2 2v11.5c0 1.1.9 2 2 2h98v2H24c-1.1 0-2 .9-2 2V96c0 1.1.9 2 2 2h98v2H6V28h116m2-2H6c-1.1 0-2 .9-2 2v72c0 1.1.9 2 2 2h118v-6H24V84.5h100v-6H24V67h100v-6H24V49.5h100v-6H24V32h100v-6z" fill="#eee" opacity=".2"/><defs><path id="b" d="M124 32v-6H6c-1.1 0-2 .9-2 2v72c0 1.1.9 2 2 2h118v-6H24V84.5h100v-6H24V67h100v-6H24V49.5h100v-6H24V32h100z"/></defs><clipPath id="c"><use xlink:href="#b"/></clipPath><g clip-path="url(#c)" opacity=".2"><path d="M71.06 4c1.75 0 3.51.59 4.82 1.73 3.93 3.41 5.67 7.96 5.34 13.91-.68 12.22-4.36 18.76-12.88 29.48l1.71 10.43c3.02.12 12.77 1.32 16.51 11.61 3.62 9.95.38 17.92-9.62 23.68-.44.25-.67.79-.56 1.3 1.03 4.57 2.83 15.89-2.62 22.12C70.58 121.92 65.89 124 61 124c-.52 0-1.05-.02-1.57-.07-4.73-.43-8.71-2.84-10.9-6.59-1.84-3.15-2.03-7.15-.47-9.99 1-2.42 3.07-4.16 5.56-4.64.01 0 .72-.12 1.48-.12.34 0 .7.02 1 .09v-.01c3.99.32 6.71 3.8 6.46 8.27-.14 2.56-1.62 4.94-3.95 6.36-.88.53-1.76.87-2.66 1.01.75.36 1.63.64 2.64.84 1.12.22 2.17.33 3.17.33 2.22 0 4.14-.55 5.73-1.65 3.81-2.64 4.53-7.56 4.54-7.61l.04-.18c.01-.03 1.14-3.69-.62-13-.04-.21-.2-.37-.36-.37h-.03c-.86.08-2.22.18-3.91.18-5.4 0-14.11-1-20.35-6.63-4.36-3.94-6.65-8.62-6.79-13.9-.19-7.08 3.53-14.81 10.46-21.76 2.26-2.27 4.29-4.21 6.08-5.93 2.48-2.39 4.34-4.17 5.31-5.36-1.1-3.97-7.71-29.94 5.36-38.21C68.36 4.35 69.71 4 71.06 4M66.9 39c11.66-11.65 8.75-21.42 5.89-26.3-.32-.54-.8-.92-1.31-1.05a1.502 1.502 0 0 0-1.14.19c-7.8 4.77-4.67 21.77-3.44 27.16m-.71 53.35c1.67 0 3.09-.15 4.04-.28.12-.02.21-.1.25-.16.09-.13.13-.3.1-.47l-4.11-20.75c-2.14 1.18-3.44 2.63-3.87 4.32-.79 3.11 1.47 6.58 2.89 8.37.48.61.47 1.45-.03 2.05-.32.39-.78.59-1.25.59-.23 0-.47-.05-.7-.16-5.87-2.72-7.18-7.22-7.23-7.41-2.72-10.26 6.41-16.15 8.99-17.59l-1.31-8.66C56 59.92 52.71 66.85 51.35 71.41c-1.55 5.19-.98 8.49-.97 8.52l.01.04c.59 4.19 2.33 7.36 5.16 9.43 3.22 2.38 7.38 2.95 10.64 2.95m9.25-1.84c1.75-1.32 3.18-2.8 4.25-4.39 2.75-4.11 2.55-9.89-.48-13.74-2.44-3.11-5.74-3.56-7.37-3.58l3.6 21.71M71.06 2c-1.78 0-3.48.48-4.91 1.38-13.33 8.44-8.31 32.38-6.5 39.38-1.01 1.09-2.59 2.6-4.48 4.42l-.05.05c-1.78 1.71-3.8 3.66-6.07 5.92-7.32 7.35-11.25 15.6-11.04 23.23.16 5.85 2.66 11.01 7.45 15.33 6.54 5.91 15.41 7.15 21.69 7.15.97 0 1.84-.03 2.58-.07 1.25 7.42.46 10.55.43 10.69l-.03.12-.04.18c-.01.06-.03.12-.03.19 0 .03-.65 4.14-3.69 6.24-1.24.86-2.79 1.29-4.59 1.29h-.16c1.75-1.73 2.82-4.02 2.95-6.43.31-5.58-3.16-9.94-8.25-10.37a7.37 7.37 0 0 0-1.21-.09c-.53 0-1.13.05-1.73.13-.07.01-.13.02-.19.03-3.09.62-5.67 2.76-6.93 5.73-1.85 3.47-1.64 8.11.55 11.86 2.53 4.32 7.06 7.08 12.45 7.58.58.05 1.17.08 1.76.08 5.51 0 10.72-2.34 14.28-6.42 1.99-2.28 6.24-9.07 3.19-23.31 10.41-6.22 13.86-15.13 9.98-25.79-3.63-9.98-12.33-12.28-16.67-12.8l-1.31-8.01c8.25-10.47 12.07-17.44 12.76-29.92.37-6.61-1.6-11.69-6.03-15.53C75.54 2.79 73.37 2 71.06 2zm-2.97 32.73c-1.5-8.77-1.36-17.92 3-20.98 2.77 4.76 4.28 12.09-3 20.98zm-1.9 55.62c-2.73 0-6.59-.44-9.48-2.56-2.38-1.74-3.85-4.47-4.36-8.1 0-.01-.01-.06-.01-.07-.01-.05-.46-3.02.91-7.64 1.1-3.7 3.61-9.2 9.32-15.49l.51 3.34c-5.92 3.75-11.03 10.51-8.74 19.13.17.59 1.74 5.66 8.32 8.71.49.23 1.01.34 1.54.34 1.08 0 2.1-.48 2.79-1.32.19-.22.34-.46.47-.71l.85 4.28c-.64.06-1.35.09-2.12.09zm10.62-3.79l-2.54-15.35a7.15 7.15 0 0 1 3.37 2.4c2.51 3.19 2.67 7.98.39 11.39-.36.54-.77 1.06-1.22 1.56zm-10.24-5.05c-1.05-1.45-2.55-3.98-2.04-6.01.11-.42.31-.83.61-1.22l1.43 7.23z" fill="#424242"/></g><linearGradient id="d" x1="64" x2="64" y1="10.667" y2="144.25" gradientUnits="userSpaceOnUse"><stop stop-color="#424242" offset="0"/><stop stop-color="#3E3E3E" offset=".234"/><stop stop-color="#303030" offset=".491"/><stop stop-color="#1A1A1A" offset=".759"/><stop offset="1"/></linearGradient><path d="M76.94 94.85c10-5.77 13.24-13.74 9.62-23.68-3.75-10.3-13.49-11.5-16.51-11.61l-1.71-10.43c8.52-10.72 12.2-17.27 12.88-29.48.33-5.95-1.42-10.5-5.34-13.91-2.33-2.02-6.05-2.31-8.66-.66-13.07 8.27-6.46 34.24-5.36 38.21-.97 1.18-2.83 2.97-5.31 5.36-1.79 1.72-3.81 3.66-6.08 5.93-6.94 6.95-10.65 14.68-10.46 21.76.14 5.28 2.43 9.96 6.79 13.9 8.19 7.39 20.64 6.8 24.26 6.45.17-.02.35.14.39.37 1.77 9.31.63 12.97.62 13l-.04.18c-.01.05-.72 4.97-4.54 7.61-2.3 1.59-5.3 2.03-8.9 1.32-1.01-.2-1.89-.48-2.64-.84.9-.14 1.78-.47 2.66-1.01 2.33-1.42 3.8-3.8 3.95-6.36.25-4.47-2.47-7.95-6.46-8.27v.01c-.98-.22-2.46.02-2.48.02-2.49.49-4.57 2.22-5.56 4.64-1.56 2.84-1.37 6.84.47 9.99 2.2 3.76 6.17 6.16 10.9 6.59.53.05 1.05.07 1.57.07 4.89 0 9.58-2.08 12.78-5.73 5.45-6.23 3.64-17.55 2.62-22.12-.13-.52.1-1.06.54-1.31zm-6.59-83.01a1.502 1.502 0 0 1 1.14-.19c.51.13.99.51 1.31 1.05 2.86 4.87 5.77 14.64-5.89 26.3-1.24-5.39-4.37-22.39 3.44-27.16zm.13 80.07c-.05.07-.13.15-.25.16-2.78.39-9.79.93-14.7-2.66-2.83-2.07-4.57-5.25-5.16-9.43l-.01-.04c-.01-.03-.57-3.33.97-8.52 1.36-4.55 4.65-11.49 12.61-19.21l1.31 8.66c-2.58 1.43-11.71 7.32-8.99 17.59.05.19 1.36 4.69 7.23 7.41.68.32 1.47.14 1.95-.44.5-.6.51-1.44.03-2.05-1.42-1.79-3.67-5.26-2.89-8.37.43-1.69 1.73-3.14 3.87-4.32l4.11 20.75c.05.17.01.34-.08.47zm4.96-1.4l-3.6-21.7c1.63.02 4.92.47 7.37 3.58 3.03 3.85 3.23 9.63.48 13.74-1.07 1.58-2.5 3.06-4.25 4.38z" fill="url(#d)"/><path d="M71.06 5.5c1.44 0 2.84.5 3.84 1.36 3.55 3.09 5.13 7.24 4.83 12.69-.66 11.88-4.24 18.17-12.56 28.63-.26.33-.37.76-.31 1.18l1.71 10.43c.12.7.71 1.23 1.42 1.26 2.69.11 11.73 1.19 15.16 10.63 3.38 9.29.45 16.45-8.96 21.87a2.703 2.703 0 0 0-1.27 2.93c.98 4.35 2.72 15.09-2.28 20.8-2.9 3.32-7.15 5.22-11.65 5.22-.48 0-.96-.02-1.44-.07-4.24-.39-7.8-2.52-9.75-5.86-1.58-2.7-1.76-6.12-.45-8.51.03-.05.05-.1.07-.15.8-1.94 2.45-3.34 4.43-3.73.43-.06.86-.09 1.22-.09.37 0 .58.03.67.06.11.02.22.04.32.04h.01c3.13.32 5.16 3.04 4.96 6.68-.12 2.07-1.32 4-3.23 5.17-.71.43-1.4.7-2.1.81-.65.1-1.16.61-1.26 1.26s.24 1.29.84 1.57c.86.41 1.87.73 3 .96 1.21.24 2.37.36 3.46.36 2.53 0 4.75-.64 6.59-1.92 4.11-2.85 5.04-7.84 5.16-8.56l.03-.12c.21-.78 1.06-4.84-.61-13.63-.17-.92-.95-1.59-1.83-1.59-.05 0-.12 0-.18.01-.82.08-2.13.17-3.77.17-3.37 0-6.56-.39-9.48-1.15-3.96-1.04-7.28-2.75-9.87-5.09-4.05-3.65-6.17-7.97-6.3-12.83-.18-6.67 3.38-14 10.03-20.66 2.24-2.24 4.25-4.17 6.02-5.88l-1.04-1.08 1.09 1.03c2.55-2.45 4.4-4.23 5.42-5.48.31-.38.42-.88.28-1.35-.81-2.92-7.56-28.77 4.72-36.54.89-.54 1.94-.83 3.06-.83m-4.16 35c.39 0 .78-.15 1.06-.44 12.41-12.4 9.16-22.94 6.12-28.12-.52-.89-1.34-1.53-2.24-1.75a2.939 2.939 0 0 0-2.28.36c-8.45 5.16-5.7 21.84-4.13 28.78.12.53.52.96 1.05 1.11.14.04.28.06.42.06m-.71 53.35c1.77 0 3.29-.16 4.25-.3.5-.07.95-.35 1.25-.76.34-.47.47-1.07.36-1.65L67.93 70.4c-.09-.47-.4-.87-.84-1.07-.2-.09-.42-.14-.63-.14-.25 0-.5.06-.72.19-2.52 1.38-4.07 3.16-4.6 5.27-.95 3.74 1.58 7.66 3.16 9.67.04.05.04.11 0 .16a.11.11 0 0 1-.1.05c-.02 0-.05-.01-.07-.02-5.22-2.42-6.37-6.29-6.41-6.43-2.42-9.14 5.72-14.47 8.27-15.89.55-.3.85-.92.75-1.54l-1.31-8.66a1.491 1.491 0 0 0-1.48-1.28c-.38 0-.76.15-1.04.42-8.24 7.99-11.62 15.21-13 19.86-1.65 5.54-1.04 9.07-1.01 9.2.65 4.6 2.59 8.11 5.76 10.43 3.63 2.67 8.28 3.23 11.53 3.23m9.25-1.84c.32 0 .64-.1.9-.3 1.89-1.42 3.43-3.02 4.59-4.75 3.1-4.63 2.88-11.15-.54-15.5-2.81-3.57-6.55-4.13-8.53-4.15h-.01c-.44 0-.85.19-1.14.52-.29.34-.41.78-.34 1.22l3.6 21.7c.09.52.44.95.92 1.15.17.07.36.11.55.11M71.06 4c-1.35 0-2.7.35-3.84 1.07-13.07 8.27-6.46 34.24-5.36 38.21-.97 1.18-2.83 2.97-5.31 5.36-1.79 1.72-3.81 3.66-6.08 5.93-6.94 6.95-10.65 14.68-10.46 21.76.14 5.28 2.43 9.96 6.79 13.9 6.24 5.63 14.95 6.63 20.35 6.63 1.69 0 3.05-.1 3.91-.18h.03c.16 0 .32.16.36.37 1.77 9.31.63 12.97.62 13l-.04.18c-.01.05-.72 4.97-4.54 7.61-1.59 1.1-3.51 1.65-5.73 1.65-1 0-2.05-.11-3.17-.33-1.01-.2-1.89-.48-2.64-.84.9-.14 1.78-.47 2.66-1.01 2.33-1.42 3.8-3.8 3.95-6.36.25-4.47-2.47-7.95-6.46-8.27v.01c-.3-.07-.66-.09-1-.09-.76 0-1.47.12-1.48.12-2.49.49-4.57 2.22-5.56 4.64-1.56 2.84-1.37 6.84.47 9.99 2.2 3.76 6.17 6.16 10.9 6.59.53.05 1.05.07 1.57.07 4.89 0 9.58-2.08 12.78-5.73 5.45-6.23 3.64-17.55 2.62-22.12-.11-.51.11-1.04.56-1.3 10-5.77 13.24-13.74 9.62-23.68-3.75-10.3-13.49-11.5-16.51-11.61l-1.71-10.43c8.52-10.72 12.2-17.27 12.88-29.48.33-5.95-1.42-10.5-5.34-13.91C74.57 4.59 72.81 4 71.06 4zM66.9 39c-1.22-5.39-4.36-22.4 3.45-27.16a1.502 1.502 0 0 1 1.14-.19c.51.13.99.51 1.31 1.05 2.85 4.88 5.76 14.65-5.9 26.3zm-.71 53.35c-3.25 0-7.42-.57-10.66-2.94-2.83-2.07-4.57-5.25-5.16-9.43l-.01-.04c-.01-.03-.57-3.33.97-8.52 1.36-4.55 4.65-11.49 12.61-19.21l1.31 8.66c-2.58 1.43-11.71 7.32-8.99 17.59.05.19 1.36 4.69 7.23 7.41.23.1.46.16.7.16.47 0 .93-.21 1.25-.59.5-.6.51-1.44.03-2.05-1.42-1.79-3.67-5.26-2.89-8.37.43-1.69 1.73-3.14 3.87-4.32l4.11 20.75c.03.17 0 .34-.1.47-.05.07-.13.15-.25.16-.93.13-2.36.27-4.02.27zm9.25-1.84l-3.6-21.7c1.63.02 4.92.47 7.37 3.58 3.03 3.85 3.23 9.63.48 13.74-1.07 1.58-2.5 3.06-4.25 4.38z" fill="#eee" opacity=".2"/></svg>