<svg viewBox="0 0 128 128" xmlns="http://www.w3.org/2000/svg" xmlns:xlink="http://www.w3.org/1999/xlink"><linearGradient id="a" x1="25.9" x2="103.9" y1="26.1" y2="103.1" gradientUnits="userSpaceOnUse"><stop stop-color="#945D4F" offset=".4"/><stop stop-color="#66352A" offset=".8"/></linearGradient><path d="M115.7 11.9C105.6 2.7 58.6-5.3 26.3 29.4S5.8 109.9 16 119c10.1 9.1 58.8 7.5 85.6-21.3C128.3 69 125.8 21 115.7 11.9z" fill="url(#a)"/><defs><path id="b" d="M115.7 11.9C105.6 2.7 58.6-5.3 26.3 29.4S5.8 109.9 16 119c10.1 9.1 58.8 7.5 85.6-21.3C128.3 69 125.8 21 115.7 11.9z"/></defs><clipPath id="c"><use xlink:href="#b"/></clipPath><g clip-path="url(#c)"><linearGradient id="d" x1="77.7" x2="115.8" y1="8" y2="46.2" gradientUnits="userSpaceOnUse"><stop stop-color="#F5F5F5" offset=".2"/><stop stop-color="#E0E0E0" offset=".6"/></linearGradient><path d="M123.6 63.6c-2.1 0-2 1.5-2.7-.7a94.9 94.9 0 0 0-52-53.7l-7.4-3.3c-2.7-1.2 1-2.4 2.3-5.2s4.5-4 7.3-2.7l2.5 1.2a110.6 110.6 0 0 1 55 56.7 5.5 5.5 0 0 1-5 7.7z" fill="url(#d)"/></g><g clip-path="url(#c)"><linearGradient id="e" x1="9.2" x2="47.3" y1="76.6" y2="114.7" gradientUnits="userSpaceOnUse"><stop stop-color="#F5F5F5" offset=".2"/><stop stop-color="#E0E0E0" offset=".6"/></linearGradient><path d="M59 128.2c-.7 0-1.4-.1-2.1-.4A106.9 106.9 0 0 1 0 72.2l-1-2.4c-1.2-2.7 0-6 2.8-7.2s4.2-5.3 5.4-2.5l3 7.7c10 22.6 28 40.3 50.8 49.8a5.5 5.5 0 0 1-2 10.6z" fill="url(#e)"/></g><path d="M117.8 11.5s-14 30.3-42.8 61.8-60 48.5-60 48.5" clip-path="url(#c)" fill="none" stroke="#212121" stroke-miterlimit="10" stroke-width="4"/><path d="M49 97.5s15-11.3 28-24.8c12.8-13.2 20.3-26.2 20.3-26.2" fill="none" stroke="#ECEFF0" stroke-linecap="round" stroke-linejoin="round" stroke-miterlimit="10" stroke-width="6"/><linearGradient id="f" x1="45.9" x2="71.5" y1="75.4" y2="101.1" gradientTransform="rotate(4 56.7 92.5)" gradientUnits="userSpaceOnUse"><stop stop-color="#EFEBE9" offset=".3"/><stop stop-color="#BDAAA4" offset="1"/></linearGradient><path d="M65.9 100.1c-.9 0-1.8-.4-2.4-1.1L51.2 84.8a3.5 3.5 0 1 1 5.3-4.6l12.3 14.2a3.5 3.5 0 0 1-3 5.7z" fill="url(#f)"/><linearGradient id="g" x1="57.2" x2="82.9" y1="66" y2="91.6" gradientTransform="rotate(1.5 68.1 82)" gradientUnits="userSpaceOnUse"><stop stop-color="#EFEBE9" offset=".3"/><stop stop-color="#BDAAA4" offset="1"/></linearGradient><path d="M77.5 90.3c-.9 0-1.7-.4-2.4-1.1L62.2 75.6a3.5 3.5 0 0 1 5-4.8l13 13.6a3.5 3.5 0 0 1-2.7 5.9z" fill="url(#g)"/><linearGradient id="h" x1="68.3" x2="94" y1="54.2" y2="79.9" gradientTransform="rotate(-3.8 80.2 69.7)" gradientUnits="userSpaceOnUse"><stop stop-color="#EFEBE9" offset=".3"/><stop stop-color="#BDAAA4" offset="1"/></linearGradient><path d="M89.4 77.7c-.9 0-1.8-.3-2.5-.9L72.8 64.5a3.5 3.5 0 0 1 4.6-5.3l14.1 12.3a3.5 3.5 0 0 1-2 6.2z" fill="url(#h)"/><linearGradient id="i" x1="78.4" x2="104.1" y1="42.4" y2="68" gradientTransform="rotate(-5.7 89.6 60)" gradientUnits="userSpaceOnUse"><stop stop-color="#EFEBE9" offset=".3"/><stop stop-color="#BDAAA4" offset="1"/></linearGradient><path d="M99.5 65.5c-.9 0-1.8-.2-2.5-.8L82.5 52.8a3.5 3.5 0 0 1 4.4-5.4l14.5 11.9a3.5 3.5 0 0 1-1.9 6.2z" fill="url(#i)"/><linearGradient id="j" x1="80.6" x2="134.4" y1="-88.9" y2="-35.1" gradientUnits="userSpaceOnUse"><stop stop-color="#945D4F" offset=".4"/><stop stop-color="#66352A" offset=".8"/></linearGradient><path d="M159.6-106.7a6 6 0 0 0-5.3-5.3c-13.9-1.6-50.8.1-73.8 23-22.9 23-24.6 60-23 73.7a6 6 0 0 0 5.3 5.3c13.8 1.6 50.7-.1 73.7-23 22.9-23 24.6-60 23-73.7z" fill="url(#j)"/><ellipse transform="rotate(-45 108.5 -61)" cx="108.5" cy="-61" rx="62.4" ry="39.5" fill="none" opacity=".2"/><defs><path id="k" d="M159.6-106.7a6 6 0 0 0-5.3-5.3c-13.9-1.6-50.8.1-73.8 23-22.9 23-24.6 60-23 73.7a6 6 0 0 0 5.3 5.3c13.8 1.6 50.7-.1 73.7-23 22.9-23 24.6-60 23-73.7z"/></defs><clipPath id="l"><use xlink:href="#k"/></clipPath><g clip-path="url(#l)"><linearGradient id="m" x1="123.7" x2="158.3" y1="-114.7" y2="-80" gradientUnits="userSpaceOnUse"><stop stop-color="#F5F5F5" offset=".2"/><stop stop-color="#E0E0E0" offset=".6"/></linearGradient><path d="M164.8-63.7a5 5 0 0 1-4.6-3 90.4 90.4 0 0 0-45-46.4l-2.3-1a5 5 0 1 1 4.2-9.1l2.3 1a100.5 100.5 0 0 1 50 51.6 5 5 0 0 1-4.6 7z" fill="url(#m)"/></g><g clip-path="url(#l)"><linearGradient id="n" x1="55.2" x2="89.8" y1="-46.2" y2="-11.5" gradientUnits="userSpaceOnUse"><stop stop-color="#F5F5F5" offset=".2"/><stop stop-color="#E0E0E0" offset=".6"/></linearGradient><path d="M101.2 0c-.7 0-1.3-.1-2-.4a97 97 0 0 1-51.5-50.4l-1-2.2a5 5 0 1 1 9.2-4l1 2.1A87 87 0 0 0 103-9.6a5 5 0 0 1-2 9.6z" fill="url(#n)"/></g><path d="M157.2-110.8s-10.8 14.4-47.4 51-53 49.4-53 49.4" clip-path="url(#l)" fill="none" stroke="#212121" stroke-miterlimit="10" stroke-width="2"/><path d="M84.2-36.9s12.1-10.4 25.1-24l24-25" fill="none" stroke="#ECEFF0" stroke-linecap="round" stroke-linejoin="round" stroke-miterlimit="10" stroke-width="6"/><path d="M145.8-109.5c3 0 5.8.2 8.1.4a3 3 0 0 1 2.7 2.7c.8 7.1.6 19.4-2.4 32.4a77.6 77.6 0 0 1-19.9 39c-21 21-53.6 22.6-63.1 22.6-3 0-5.8-.2-8.1-.4a3 3 0 0 1-2.7-2.7A106 106 0 0 1 62.8-48a77.6 77.6 0 0 1 19.9-38.8c21-21 53.6-22.7 63.1-22.7m0-3c-17 0-46 4.4-65.3 23.5-22.9 23-24.6 60-23 73.7a6 6 0 0 0 5.3 5.3c2.2.3 5 .5 8.4.5 17 0 46-4.4 65.3-23.5 22.9-23 24.6-60 23-73.8a6 6 0 0 0-5.3-5.3 81 81 0 0 0-8.4-.4z" fill="#434343" opacity=".2"/><linearGradient id="o" x1="79.3" x2="105" y1="-59.6" y2="-33.9" gradientUnits="userSpaceOnUse"><stop stop-color="#EFEBE9" offset=".3"/><stop stop-color="#BDAAA4" offset="1"/></linearGradient><path d="M99.9-35.5c-1 0-1.8-.4-2.5-1L84-49.9a3.5 3.5 0 1 1 5-5l13.3 13.3a3.5 3.5 0 0 1-2.5 6z" fill="url(#o)"/><linearGradient id="p" x1="90" x2="115.6" y1="-70.2" y2="-44.6" gradientUnits="userSpaceOnUse"><stop stop-color="#EFEBE9" offset=".3"/><stop stop-color="#BDAAA4" offset="1"/></linearGradient><path d="M110.5-46.2c-.9 0-1.8-.3-2.5-1L94.8-60.5a3.5 3.5 0 1 1 5-5L113-52.1a3.5 3.5 0 0 1-2.5 6z" fill="url(#p)"/><linearGradient id="q" x1="100.6" x2="126.3" y1="-80.9" y2="-55.2" gradientUnits="userSpaceOnUse"><stop stop-color="#EFEBE9" offset=".3"/><stop stop-color="#BDAAA4" offset="1"/></linearGradient><path d="M121.2-56.8c-1 0-1.8-.4-2.5-1l-13.3-13.3a3.5 3.5 0 1 1 5-5l13.2 13.3a3.5 3.5 0 0 1-2.4 6z" fill="url(#q)"/><linearGradient id="r" x1="111.3" x2="136.9" y1="-91.5" y2="-65.8" gradientUnits="userSpaceOnUse"><stop stop-color="#EFEBE9" offset=".3"/><stop stop-color="#BDAAA4" offset="1"/></linearGradient><path d="M131.8-67.5c-1 0-1.8-.3-2.5-1l-13.2-13.2a3.5 3.5 0 1 1 5-5l13.2 13.3a3.5 3.5 0 0 1-2.5 6z" fill="url(#r)"/><path d="M85 7c13.7 0 24.8 3.6 28.7 7.1 2.4 2.3 5.5 9.3 6 21.8a85.6 85.6 0 0 1-20.4 59.8C82 114.4 55 121 37 121c-10.7 0-16.9-2.2-19-4.2-4.3-3.8-9.1-15.8-9.7-30.6a75.4 75.4 0 0 1 20.2-54.8A76.6 76.6 0 0 1 85 7m0-3a79 79 0 0 0-58.7 25.4C-6 64 5.8 109.9 16 119c3.4 3 11.2 5 21 5 19.5 0 46.9-7.3 64.6-26.3C128.3 69 125.8 21 115.7 11.9 111.2 8 99.5 4 85 4z" fill="#434343" opacity=".2"/></svg>