<svg viewBox="0 0 128 128" xmlns="http://www.w3.org/2000/svg"><path d="M104 89.5a17.2 17.2 0 1 0 0 34.5 17.2 17.2 0 0 0 0-34.5zm0 28.6a11.3 11.3 0 1 1 0-22.7 11.3 11.3 0 0 1 0 22.7z"/><path d="M113.6 98.4l2 2.7-21.4 15-2-2.7z"/><path d="M115.1 113.7l-2 2.6L92.6 100l2-2.6z"/><radialGradient id="a" cx="104" cy="106.8" r="7" gradientUnits="userSpaceOnUse"><stop stop-color="#E0E0E0" offset="0"/><stop stop-color="#DBDBDB" offset=".2"/><stop stop-color="#CBCBCB" offset=".4"/><stop stop-color="#B1B1B1" offset=".6"/><stop stop-color="#8E8E8E" offset=".9"/><stop stop-color="#757575" offset="1"/></radialGradient><circle cx="104" cy="106.8" r="7" fill="url(#a)"/><circle cx="104" cy="106.8" r="3.2" fill="#666"/><path d="M34.8 77c.4-.2.9-1.2 4.3-2.6 3.4-1.4 5.2-1.4 8.1.3s23.9 11.9 26.6 13.5 8.6 7.7 10.5 9.5v15.9L34.8 76.9z" fill="#424242"/><path d="M87.1 80.9c.8-.3 1.7-.6 2.4-.2.5.3.8.9 1 1.4l2.7 6.2c-5.4 2.4-11 4.5-16.5 6.3-.6.2-3.3-4.2-3.6-4.8-.9-1.6-1.5-2.8.4-3.8 4.1-2.3 9.2-3.5 13.6-5.1z" fill="#999"/><path d="M20.8 89.9a17.2 17.2 0 1 0 0 34.5 17.2 17.2 0 0 0 0-34.5zm0 28.6a11.3 11.3 0 1 1 0-22.7 11.3 11.3 0 0 1 0 22.7z"/><path d="M30.5 98.7l1.9 2.7-21.3 15-2-2.7z"/><path d="M32 114l-2 2.6-20.6-16.1 2-2.6z"/><radialGradient id="b" cx="20.8" cy="107.1" r="7" gradientUnits="userSpaceOnUse"><stop stop-color="#E0E0E0" offset="0"/><stop stop-color="#DBDBDB" offset=".2"/><stop stop-color="#CBCBCB" offset=".4"/><stop stop-color="#B1B1B1" offset=".6"/><stop stop-color="#8E8E8E" offset=".9"/><stop stop-color="#757575" offset="1"/></radialGradient><circle cx="20.8" cy="107.1" r="7" fill="url(#b)"/><circle cx="20.8" cy="107.1" r="3.2" fill="#666"/><path d="M20.8 91.8a15.3 15.3 0 1 1 0 30.5 15.3 15.3 0 0 1 0-30.5m0-2a17.2 17.2 0 1 0 0 34.4 17.2 17.2 0 0 0 0-34.5zm83.2 2a15.3 15.3 0 1 1 0 30.5 15.3 15.3 0 0 1 0-30.5m0-2a17.2 17.2 0 1 0 0 34.4 17.2 17.2 0 0 0 0-34.5z" fill="#eee" opacity=".2"/><path d="M99.8 101.3L71 95.5l.1 5.8 27.5 5.5c.5-2.3.6-3.4 1.2-5.7z" fill="gray"/><linearGradient id="c" x1="78.6" x2="124.1" y1="100.7" y2="100.7" gradientUnits="userSpaceOnUse"><stop stop-color="#E0E0E0" offset="0"/><stop stop-color="#DBDBDB" offset=".2"/><stop stop-color="#CBCBCB" offset=".4"/><stop stop-color="#B1B1B1" offset=".6"/><stop stop-color="#8E8E8E" offset=".9"/><stop stop-color="#757575" offset="1"/></linearGradient><path d="M79.6 108.6l13.7-5.5c.5-.2.9-.7 1-1.2l.1-.8c.2-.5.5-1 1-1.1l24.9-10.2c.8-.3 1.7 0 2 .9L124 94c.4.9 0 1.9-.8 2.2l-24.5 10.4a2 2 0 0 1-1.5 0l-.9-.6c-.4-.2-1-.2-1.4 0l-14 5.5c-.5.3-1.2.2-1.6-.2-1-.8-.8-2.3.4-2.8z" fill="url(#c)"/><path d="M20.8 107.2c-.7-.2-1.2-.9-1-1.6l2.4-9.8a1.3 1.3 0 0 1 2.6.6l-2.4 9.8c-.2.7-1 1.2-1.6 1z" fill="#ccc"/><path d="M20 75.4c-.8-.7-1.5-2.9-2.8-3-1.7 4.2-1 8-.2 10.7 4.4-1.4 4.3-5.5 3-7.7z" fill="#FAFAFA"/><path d="M33 78l-.7-.1a2 2 0 0 1-1.2-2.6l3.1-7.8a3 3 0 0 1 1.7-1.8c1-.4 2.1 0 2.6.3l.2.1 4.5 3.2a2 2 0 0 1 .4 2.8 2 2 0 0 1-2.8.5l-3.3-2.4-2.7 6.5A2 2 0 0 1 33 78z" fill="#424242"/><linearGradient id="d" x1="48.4" x2="48.4" y1="57.8" y2="113.7" gradientUnits="userSpaceOnUse"><stop stop-color="#FFEB3B" offset="0"/><stop stop-color="#FDD333" offset=".2"/><stop stop-color="#FBBB2B" offset=".5"/><stop stop-color="#F9AD27" offset=".8"/><stop stop-color="#F9A825" offset="1"/></linearGradient><path d="M77 113.6c2.4 0 3.5-3 1.6-4.6a59 59 0 0 1-11-10.8c-1.8-3.8.2-4.7-9.5-11.6-7.1-5-10.1-7-11.3-7.7-.3-.3-.7-.4-1.2-.4-1.7-.1-7-.6-10.8-1.6-4.7-1.2-11.5-7.2-4.2-11.7S44.8 59.6 39 58c-4.4-1.2-15 5.4-20 11.8l-1.5 2.1c-.4 1 0 1.7 1 2.7.4.3.6.7.8 1 .5 1.7.4 4-1.2 5.5-.9.7-1.2 2-.7 3 1 2 2.4 3.5 4.1 4.1 5 1.7 6.5 6.6 8 8 1.7 1.3 7.8 6 9 9.2.6 1.7.8 4 .8 5.8 0 1.4 1.2 2.5 2.5 2.5H77z" fill="url(#d)"/><linearGradient id="e" x1="82.4" x2="103.4" y1="64.8" y2="86.3" gradientUnits="userSpaceOnUse"><stop stop-color="#616161" offset="0"/><stop stop-color="#4C4C4C" offset=".2"/><stop stop-color="#343434" offset=".5"/><stop stop-color="#262626" offset=".8"/><stop stop-color="#212121" offset="1"/></linearGradient><path d="M114 71c2-1 2.5-2.7 2.8-4.6-8.1.4-20.5 3.3-21.4 4-1.3 1-3.2 4.7-7.5 5.4s-13.2 1.5-13.2 1.5-6.5 7.7-3.7 9.3l2.8 1.6 6.8-3.4s4.2-.2 7.2.8c5-3.5 9.6-8.2 14.2-11.6 2-2 8-1 12-3z" fill="url(#e)"/><linearGradient id="f" x1="112.5" x2="122.8" y1="74" y2="87.8" gradientUnits="userSpaceOnUse"><stop stop-color="#BDBDBD" offset="0"/><stop stop-color="#B6B6B6" offset=".2"/><stop stop-color="#A1A1A1" offset=".4"/><stop stop-color="gray" offset=".8"/><stop stop-color="#616161" offset="1"/></linearGradient><path d="M121.5 87.4c.7.3 1.7.6 2.3 0 .6-.6.3-1.6-.1-2.3a69.6 69.6 0 0 0-4.5-7.8c-.7-1-1.4-2-2.4-2.4-1.5-.6-3.8.1-5 1.3-1.3 1.4 0 2.8 1 4 2.3 3 5.3 5.5 8.6 7.2z" fill="url(#f)"/><linearGradient id="g" x1="112.1" x2="122.1" y1="76.4" y2="76.4" gradientUnits="userSpaceOnUse"><stop stop-color="#E0E0E0" offset="0"/><stop stop-color="#DBDBDB" offset=".2"/><stop stop-color="#CBCBCB" offset=".4"/><stop stop-color="#B1B1B1" offset=".6"/><stop stop-color="#8E8E8E" offset=".9"/><stop stop-color="#757575" offset="1"/></linearGradient><path fill="url(#g)" d="M122 78.8h-10v-4.9l10 .2z"/><path fill="#FF6F00" d="M122 78.8h-1.8v-4.7h1.9z"/><linearGradient id="h" x1="59.8" x2="59.8" y1="66.8" y2="88.2" gradientUnits="userSpaceOnUse"><stop stop-color="#FFEB3B" offset="0"/><stop stop-color="#FDD333" offset=".2"/><stop stop-color="#FBBB2B" offset=".5"/><stop stop-color="#F9AD27" offset=".8"/><stop stop-color="#F9A825" offset="1"/></linearGradient><path d="M43.5 73.4s3.4-7.6 15.8-7 16.4 4.2 16.9 10.1l-5.2 10s-1.8 3.4-5.2 1.6a929.5 929.5 0 0 1-22.3-14.7z" fill="url(#h)"/><linearGradient id="i" x1="105.7" x2="105.7" y1="69.2" y2="85.9" gradientUnits="userSpaceOnUse"><stop stop-color="#FFEB3B" offset="0"/><stop stop-color="#FDD333" offset=".2"/><stop stop-color="#FBBB2B" offset=".5"/><stop stop-color="#F9AD27" offset=".8"/><stop stop-color="#F9A825" offset="1"/></linearGradient><path d="M116.8 66.4c-.3 1.9-.8 3.6-2.8 4.6-4 2-10 1-12 3-4.6 3.4-9.1 8.1-14.2 11.6.7.2 1.4.5 2 1 2.5 2.2 5.8 2 9.3.3s23.6-13.5 24.6-18.6c.3-1.7-2.7-2.1-7-2z" fill="url(#i)"/><path d="M8.8 92s6.4-5.6 13.9-4 5.1 9.8.1 10.7-1.5-4.8-5.4-5.2-9.7 2.3-8.6-1.6z" fill="#FFB300"/><linearGradient id="j" x1="41.1" x2="41.1" y1="80.9" y2="94.4" gradientUnits="userSpaceOnUse"><stop stop-color="#616161" offset="0"/><stop stop-color="#4C4C4C" offset=".2"/><stop stop-color="#343434" offset=".5"/><stop stop-color="#262626" offset=".8"/><stop stop-color="#212121" offset="1"/></linearGradient><path d="M32.7 82.4c-2 1.5 3.7 10.6 13.2 11.3s.2-5-4.8-9.8c-3.7-3.5-6.3-3-8.4-1.5z" fill="url(#j)"/><linearGradient id="k" x1="26.6" x2="33" y1="68.6" y2="75.2" gradientUnits="userSpaceOnUse"><stop stop-color="#616161" offset="0"/><stop stop-color="#4C4C4C" offset=".2"/><stop stop-color="#343434" offset=".5"/><stop stop-color="#262626" offset=".8"/><stop stop-color="#212121" offset="1"/></linearGradient><path d="M26.2 73c-.8-2.1.1-4.7 2-5.8.6-.3 1.3-.5 1.8-.2.4.3.6.8.8 1.2l1.9 5c.2.7.4 1.4.2 2-.4 1.2-2.6.8-3.5.5a4.8 4.8 0 0 1-3.2-2.7z" fill="url(#k)"/><circle cx="66" cy="98.7" r="5.7" fill="#333"/><path d="M66 93.5a5.2 5.2 0 1 1 0 10.4 5.2 5.2 0 0 1 0-10.4m0-1a6.2 6.2 0 1 0 0 12.4 6.2 6.2 0 0 0 0-12.4z" fill="gray"/><path d="M66 100.6a2 2 0 1 1 0-3.8 2 2 0 0 1 0 3.8z" fill="#333"/><path d="M66 97.3c.8 0 1.4.6 1.4 1.4s-.6 1.4-1.4 1.4-1.4-.6-1.4-1.4.6-1.4 1.4-1.4m0-1a2.4 2.4 0 1 0 0 4.8 2.4 2.4 0 1 0 0-4.8z" fill="gray"/><path d="M36.4 60v.1c-2 1-4.4 2-6.9 3.6-1.1.7-2 1.5-2.7 2.3a2 2 0 0 0 0 2.6 2 2 0 0 0 2.2.6l.5 1.4 1 2.6a2 2 0 0 0 1.8 1.3 2 2 0 0 0 1.9-1.3l1.9-4.8c.1-.3.3-.6.5-.7h.2c.2 0 .5 0 .7.2l4.5 3.2-3.4-2.4a2 2 0 0 0-1.7-.3 2 2 0 0 0-1.3 1.2l-2.5 6.5H33a2 2 0 0 0 1.8 3c.2 0 .5 0 .8-.2l.8-.6c.4-.3 1.2-1 3.4-1.9a9 9 0 0 1 3.6-.8 2 2 0 0 0 2-1.2c0-.2 2.8-5.8 12.5-5.8h1.2c12 .6 14.5 4 15 7.7a2 2 0 0 0 1.7 3h.2c2.5-.3 8.8-.9 12.2-1.4 4-.6 6.2-3.3 7.5-4.9l.8-.8a105.2 105.2 0 0 1 22.2-3.7c1.4 0 2.2.1 2.7.2-.4.7-1.4 2-3.8 4a2 2 0 0 0-.6 2.2 2 2 0 0 0 1.8 1.3h1.3v.8a2 2 0 0 0-1.6 3l3 5.3a22.8 22.8 0 0 1-7-6l-.4-.5-.5-.7a2 2 0 0 0-2.8-.5 151 151 0 0 1-12.6 7.7 9 9 0 0 1-4 1h-1.1a175.2 175.2 0 0 1-13.7 5.5 2 2 0 0 0-.8 3.3l2.6 2.5 1 1.1a2 2 0 0 0 1.7 1.7l10.6 2h.4c.5 0 1-.1 1.4-.4l24.4-10 1.2 2.8L98 105a2 2 0 0 0-.6-.3l-2.2-.4h-.4a2 2 0 0 0-.7.1l-10.5 4.2a2 2 0 0 0-1.2 1.3 2 2 0 0 0-1.7-.2l-.4.2a2 2 0 0 0-.7-.2 2 2 0 0 0-2 1.5c0 .2-.1.6-.6.6H42a.6.6 0 0 1-.6-.6c0-2.7-.4-4.9-1-6.5a30.2 30.2 0 0 0-9-9.6l-.4-.5c-.3-.2-.7-.9-1.1-1.5l-.7-1a2 2 0 0 0-2.2-.9 2 2 0 0 0-1.5 2c0 1.5-1.1 3.3-3 3.7a4 4 0 0 1-.5 0h-.1l-.2-.8c-.2-1.3-.6-4-4-4.4h-1.1a26 26 0 0 0-3.6.3h-.3a15.7 15.7 0 0 1 8-2.1 2 2 0 0 0 1-3.8 6.2 6.2 0 0 1-2.4-3 2 2 0 0 0-.5-1.1c-.8-3-.7-5.6.2-8 .2-.4.4-.7.4-1 .4-.7.7-1.3 1.2-1.9 4-5 11.5-10 16-11m1.1-2.2c-5 0-14.1 6-18.9 12L17.5 72a15.3 15.3 0 0 0-.5 11.3h.2c0 .2 0 .5.2.8.8 1.7 1.9 3 3.2 3.8h-.5C13.8 87.9 8.8 92 8.8 92c-.5 1.7.3 2 1.7 2 1.6 0 4-.5 6-.5h1c3.5.5.8 5.3 4.3 5.3h1a6 6 0 0 0 4.6-5.7c.9 1.3 1.5 2.4 2.2 3a37 37 0 0 1 8.8 9.2c.6 1.7.8 4 .9 5.9 0 1.3 1.1 2.5 2.5 2.5H77c1.4 0 2.3-1 2.6-2l.7.1h.6l.5-.3 3 2.2v-3.3l10.4-4.2 2.2.4.2.1a1.6 1.6 0 0 0 1.2.2h.3L123 96.4c.9-.3 1.3-1.3.9-2.1l-1.5-3.5a1.6 1.6 0 0 0-2.2-.9l-24.8 10.2c-.2 0-.4.2-.5.3l-10.7-2v-.6L80 93.7c4.4-1.6 8.8-3.3 13.1-5.2v-.2l1.1.1a11 11 0 0 0 4.8-1.3c1.8-.8 7.5-4.1 13-7.8l.8 1.2c2.3 3 5.3 5.4 8.6 7 .5.3 1 .5 1.5.5.3 0 .6-.1.9-.4.6-.6.2-1.6-.1-2.4l-3.5-6.2h1.9v-4.7h-3.3c2.7-2.3 4.6-4.3 4.8-5.8.3-1.4-1.8-2-5-2h-1.9a105 105 0 0 0-21.3 4c-1.3 1-3.2 4.8-7.5 5.5-3.4.5-9.6 1.1-12 1.3l.2-.6c-.5-6-4.5-9.5-16.9-10l-1.3-.1c-11.1 0-14.3 6.9-14.4 7h-.3a11 11 0 0 0-4.1 1c-3.4 1.4-4 2.3-4.4 2.5l.1-.1 2.7-6.6 3.3 2.4a2 2 0 0 0 2.8-.5 2 2 0 0 0-.4-2.8l-4.5-3.2-.2-.1c-.3-.2-1-.5-1.7-.5l-.9.1a3 3 0 0 0-1.7 1.8l-1.9 4.9-1.5-4.1c-.2-.5-.4-1-.8-1.2l-.6-.2c-.4 0-.7.1-1 .3.5-.6 1.2-1.3 2.2-1.9 7.2-4.5 14.2-5.7 8.4-7.3l-1.2-.2z" fill="#424242" opacity=".2"/></svg>