<svg xmlns="http://www.w3.org/2000/svg" viewBox="0 0 36 36"><path fill="#E2C196" d="M23.3 31.6c-.4-.7-2-3.5-2.2-4.2-.2-.7-.7-6-.5-8.5 0 0-4.1-2.7-3.8.3l1.4 9.3c.2.5 2.6 3.4 3.4 4.4.4.5 2-.7 1.7-1.3z"/><path fill="#BE1931" d="M20.8 18.9l-4.5.3c.2 1.6-.7 4.6 1.5 6 0 0 2.8-.6 4.4 0 .8.3-1.6-4.8-1.4-6.3z"/><path fill="#F3D2A2" d="M19.8 18c-.6-2.8-5.3.6-5.3.6s-1.7 8.6-1.7 9.4c0 .9.9 4.6 1.1 5.9.1.4 2.7.6 2.5-.4 0-.6-.5-4.4-.4-4.9 0-.5.5-2.9 1.1-4.4.5-1.1 3.3-2.3 2.7-6.1z"/><path fill="#DD2E44" d="M14 18.6l-1.8 5.8c2.4 1 5.5 1 5.6.8 0-.2-.5-.6-.5-.7.6-1.1 4.3-2.6 3.4-6.4-.6-2.9-6.8.5-6.8.5z"/><path fill="#66757F" d="M13.2 3.5c-.1.3-.6.3-1 0L9.4 2.1c-.4-.2 0-1.3.5-1l2.7 1.4c.4.3.5 1 .5 1z"/><path fill="#CCD6DD" d="M16.5 33.7c-.6-.8-4.7.3-6.1 1-1 .5-.7 1.3-.7 1.3h7s.5-1.4-.2-2.3z"/><path fill="#E2C196" d="M20.4 9c-2.2-1.2-5-2.8-7.3-5.8-.3-.3-2.1 1-2 1.2 2.1 3 4.5 5.5 11 7.4.2 0-.9-2.4-1.7-2.9z"/><path fill="#F3D2A2" d="M25.4 5.2a3.6 3.6 0 1 1-7.2 0 3.6 3.6 0 0 1 7.2 0"/><path fill="#DD2E44" d="M20 5.2C18.1 4 17.3 1.4 18 .7c1.2-1.3 3.7-.1 4.3 1 .7 1-1.8 3.9-2.4 3.5z"/><path fill="#9266CC" d="M14 18.6s-.7-6.8 2.3-9.2c2.3-1.8 6.2-.4 7.2 1.6s-2.7 3.2-2.7 8.3c0 1-6.9 1.3-6.9-.7z"/><path fill="#F3D2A2" d="M20.2 5.8c-.5 1-.8 2-1 2.8.6.3 1 1.3 1.7 1.5 1 .4 1.2-.2 1.2-.4.3-1.3 1-2.5 1.3-3.2.5-.8-2.6-2-3.2-.7z"/><path fill="#EA596E" d="M19 3c0 1.2 1.6 4.5 5 4.5 1.7 0 2-1.9 2-3.1 0-1.1-1.2-3-2.8-3.5-1.7-.4-4.2.7-4.2 2.2z"/><path fill="#CCD6DD" d="M23 31.5c1.4-.3 1.2 1.3 1.2 2-.1 1.3-.4 2.5-1.4 2.5h-3.3s-.2-1.5 1.6-1.9c.3 0-.3-2.3 1.8-2.6z"/><path fill="#F3D2A2" d="M18 9.7c-2 0-3.5-.5-4.4-1.5-.7-.8-1-2-.8-3.4.6-.3 1-.9 1-1.5 0-1-.7-1.7-1.7-1.7-.9 0-1.7.8-1.7 1.7l.1.5c-.9 7.2 4.1 7.9 5.8 8.1l1.6-2.2z"/><path fill="#FFE51E" d="M23.5 7.9s-.2-1 1.3-1.2c1.2-.1 1.6 1.3 2.5 1.7.6.4 1.4.4 2 0 0 0-.8 1-1.6 1.3a4 4 0 0 1-3-.2C23.6 9 23.4 8 23.4 8z"/><path fill="#66757F" d="M29.6 12v-.1l-.2-.1-15.6-8.7c-.4-.2-.7 1-.3 1.2l15 8.3c-.5.7-.8 1.8-.9 2.3-.2.8 1.1 1.6 2 1.6.9 0 1-4 0-4.6z"/><path fill="#9266CC" d="M14.4 8.4c-.3 1.3-1.6 2.7-1.6 2.7 1.8 1.6 3.9 1.7 3.9 1.7s1.8-2 2.1-3.3c-1.5.5-4.4-1.1-4.4-1.1z"/></svg>