<svg viewBox="0 0 128 128" xmlns="http://www.w3.org/2000/svg" xmlns:xlink="http://www.w3.org/1999/xlink"><defs><path id="a" d="M4 4h120v120H4z"/></defs><clipPath id="b"><use xlink:href="#a"/></clipPath><g clip-path="url(#b)"><path d="M20.2 42.2c-.8 0-1.7-.2-2-1.3 0-.6 0-1.1.4-1.5s.9-.7 1.6-.8l11.6-3.3h.5a2.4 2.4 0 0 1 .5 4.8l-11.7 2-1 .1z" fill="#E59600"/><path d="M32.3 35.8a2 2 0 0 1 .4 3.8l-11.7 2a4 4 0 0 1-.8.1c-1.3 0-1.4-.7-1.5-1 0-.4 0-.7.3-1 .2-.3.7-.5 1.3-.7L32 35.8h.4m0-1h-.6L20 38.1c-1.5.3-2.6 1.3-2.2 3 .2 1.1 1.2 1.6 2.4 1.6h1l11.7-2.2a3 3 0 0 0-.6-5.7z" fill="#D18100"/><linearGradient id="c" x1="37.1" x2="96.7" y1="44" y2="106.5" gradientUnits="userSpaceOnUse"><stop stop-color="#FFCA28" offset="0"/><stop stop-color="#FFB300" offset="1"/></linearGradient><path fill="url(#c)" d="M70 88l10-21.3 34.8 17.5-20 41.4L59.9 109z"/><linearGradient id="d" x1="50.9" x2="50.9" y1="39" y2="74.5" gradientUnits="userSpaceOnUse"><stop stop-color="#FFCA28" offset="0"/><stop stop-color="#FFB300" offset="1"/></linearGradient><path d="M89.3 71.2A36.8 36.8 0 0 1 76 60.6L59.2 39a6.6 6.6 0 0 0-4.8-3.1l-33.8-3c-1-.1-2 0-3 .3L12.3 35l-1.9.8C9.2 36.8 7 38.1 6 39c-.5.4-.8.8-.8 1.5 0 1.3 1.1 2.2 2.6 2 1-.3 2.3-1.4 3-2a2 2 0 0 1 1-.7l5.7-.7H19l7.6 1.5C29 41.2 47 47 47 47c1.3.4 2.5 1.3 3.2 2.5l6.7 10c2.7 4 2.7 9.2 0 13.1l-.1.1A59.5 59.5 0 0 0 49.7 88c-2.3 8.4-1.9 15.5 4.6 18.5l22.4 10.6 10-21.2 10-21.2-7.4-3.5z" fill="url(#d)" stroke="#ED9E00" stroke-miterlimit="10"/><linearGradient id="e" x1="47.3" x2="112.9" y1="97.6" y2="97.6" gradientUnits="userSpaceOnUse"><stop stop-color="#651FFF" offset="0"/><stop stop-color="#5914F2" offset=".7"/><stop stop-color="#530EEB" offset="1"/></linearGradient><path d="M83 122.4l-19.4-9.2c1-10.8-13.4-18.3-16.3-19.7l.2-1.1c2 .4 4 .6 5.7.6 9.3 0 12-5.5 12-5.5.2-.4 3.5-7.9-7.5-16.9l.6-1a43 43 0 0 0 14.8 2.8c5.4 0 9.5-1.4 12.2-4l27.7 15-20.5 43.4-9.4-4.5z" fill="url(#e)"/><path d="M85.4 69l26.9 14.7-20.1 42.5-9-4.3-19-9c.7-10.5-12.8-17.9-16.4-19.6l.1-.4c1.9.4 3.7.6 5.4.6 9.6 0 12.4-5.8 12.4-5.8.1-.4 3.5-8-7.3-17.2l.1-.3C61 71.1 67 73 73.1 73c5.4 0 9.5-1.3 12.3-4m-.2-1.2c-3 3.2-7.5 4.2-12 4.2A45 45 0 0 1 58 69c-.2.7-.6 1.2-1 1.8 11.3 9 7.8 16.5 7.8 16.5 0 .1-2.6 5.3-11.5 5.3-1.8 0-3.8-.2-6.2-.7l-.4 2c1.4.7 17.9 8.5 16.4 19.7l19.7 9.3 9.9 4.7 20.9-44.2-28.4-15.6z" fill="#4A00ED"/><path d="M56 90.2c-1.2 0-2.2-.3-3.2-1l-4-2.6 6.3-9.5 4 2.7A5.7 5.7 0 0 1 56 90.2z" fill="#E59600"/><path d="M55.3 77.8l3.5 2.4a5.2 5.2 0 0 1 1.5 7.2 5.2 5.2 0 0 1-7.2 1.4l-3.6-2.3 5.8-8.7m-.3-1.4l-6.8 10.3 4.4 3c1 .7 2.2 1 3.4 1a6.2 6.2 0 0 0 3.4-11.4L55 76.4z" fill="#D18100"/><path d="M20 61l.1-.3.2-.3c8-10.6 15.8-8.9 20.6-6.7C46 56 49.6 58 49.6 58l-.8.2-1 .5 3.5 3.2-10.6-1.5h-.2L39.3 63a79.3 79.3 0 0 1-4.2 7.2l-.2.3-.2.3a78.8 78.8 0 0 1-5 6.7L28 79.6v.2l5.5 9.2-4.3-2v1.9s-3.6-2.4-7.5-6.4C17.9 78.7 13.6 72.1 20 61z" fill="#6D4C41"/><path d="M33 91.2a4 4 0 0 1-2-.7 3.2 3.2 0 0 1-1.2-4l.4-.6 5.6 3.7c-.8 1-1.8 1.6-2.8 1.6z" fill="#E59600"/><path d="M30.3 86.6l4.7 3.1a3 3 0 0 1-2 1 3 3 0 0 1-1.7-.6 2.7 2.7 0 0 1-1.1-3.3l.1-.2m-.2-1.4l-.8 1.2s-1.2 2.7 1.5 4.5a4 4 0 0 0 2.2.8c1.4 0 2.7-1 3.5-2.2L30 85.2z" fill="#D18100"/><path d="M47.3 60.1l.4-.7s1-.9 2.3-.9c.6 0 1.2.2 1.8.6 1 .7 1.5 1.5 1.6 2.5 0 .7-.1 1.5-.6 2.2l-5.5-3.6z" fill="#E59600"/><path d="M50 59c.5 0 1 .2 1.5.6.9.5 1.3 1.2 1.4 2 0 .5 0 1-.3 1.5L48 60l.1-.2A3 3 0 0 1 50 59m0-1a4.2 4.2 0 0 0-2.7 1.1l-.7 1.2 6.4 4.2c1.2-1.8 1.5-4.2-.9-5.8A4 4 0 0 0 50 58z" fill="#D18100"/><linearGradient id="f" x1="46.1" x2="30.5" y1="59.5" y2="86.3" gradientUnits="userSpaceOnUse"><stop stop-color="#FFCA28" offset="0"/><stop stop-color="#FFC825" offset=".3"/><stop stop-color="#FFC21A" offset=".6"/><stop stop-color="#FFB809" offset=".9"/><stop stop-color="#FFB300" offset="1"/></linearGradient><path d="M43.2 91.4c-3.5 0-7.3-1.3-11.2-3.9-13.5-9-16.9-17-10.9-26.1 3.1-4.7 6.8-7 11.5-7 4.6 0 10 2.2 16.9 6.8 5.3 3.5 8.3 7.7 8.9 12.4a16 16 0 0 1-2.8 10.6 15 15 0 0 1-12.4 7.2z" fill="url(#f)"/><path d="M32.6 54v1c4.4 0 9.8 2.2 16.6 6.6 5.2 3.5 8.1 7.5 8.7 12a15 15 0 0 1-2.7 10.3c-1.4 2.1-5.3 7-12 7a20 20 0 0 1-10.9-3.8 34.3 34.3 0 0 1-12.2-11.9c-2.2-4.3-1.7-8.8 1.5-13.6 3-4.4 6.5-6.6 11-6.6v-1m0 0c-4.6 0-8.6 2-11.9 7-7.1 10.8-.6 19 11 26.9 4.4 2.8 8.2 4 11.5 4 6.1 0 10.4-3.8 12.9-7.5 3.8-5.8 5.8-15.7-6.3-23.7-6.3-4.1-12-6.8-17.2-6.8z" fill="#ED9E00"/><path d="M31 82v-.4l-.1-.3v-1.5l.1-.4.3-.7c0-.3.2-.5.4-.7l.5-.6.5-.6.3-.2.3-.1.3-.2.3-.1.3-.1h.2l.3-.1h.5c.4-.1.8.2.8.7l-.3.6h-.1l-.2.2h-.1l-.2.2-.3.2-.1.1-.2.2-.1.1-.2.2-.3.3-.3.4-.3.5-.2.4-.1.2v.2l-.1.2-.1.2c-.1 0 0 .2 0 .2l-.1.2c-.1 0 0 0 0 0v.3l-.1.3c-.1.4-.5.7-1 .6a.7.7 0 0 1-.5-.5zm13.5-17.9l-.2.2H44v.2h-.2l-.1.2h-.2l-.2.2-.1.2-.2.1-.3.4-.3.4-.3.4-.2.5v.2l-.1.1v.1l-.1.2-.1.2v.4l-.1.1v.1l-.1.3v.1c-.1.4-.6.7-1 .6a.8.8 0 0 1-.5-.5l-.1-.3v-.4l-.1-.3v-1.3l.2-.3.2-.7.4-.7.5-.7.6-.5.3-.2.3-.2.3-.1.3-.1.2-.1.3-.1h.2l.2-.1h.3c.4 0 .8.3.8.8 0 .2-.2.5-.4.6z" fill="#6D4C41"/><path d="M44.8 70.6c1.2.8 2.7.7 3.4-.3s.2-2.5-1-3.3-2.7-.6-3.4.4c-.6 1-.2 2.4 1 3.2m-5.9 9c1.2.8 1.6 2.2 1 3.2-.7 1-2.2 1.2-3.4.4-1.2-.8-1.7-2.3-1-3.3s2.2-1.1 3.4-.3" fill="#C07B47"/><path d="M29 87.2c0-1-.4-2-.7-2.8-.8-3 .2-6.2 1.3-9.1 1.6-4 3.6-8 6.6-11.2a17 17 0 0 1 11.4-5.5" fill="none"/><path d="M40.2 76.2c1.8 1.2 2.3 3.8.2 7-2.1 3-4.7 3.6-6.5 2.4s-2.8-4-.6-7.2c2.2-3.2 5-3.5 7-2.2z" fill="#01579B"/><defs><ellipse id="g" transform="rotate(-55.8 37 80.9)" cx="37" cy="80.9" rx="3.9" ry="3"/></defs><use fill="#B3E5FC" xlink:href="#g"/><clipPath id="h"><use xlink:href="#g"/></clipPath><path clip-path="url(#h)" fill="#fff" d="M40 85.7l-4.8-8.1.6-3 4.8 8z"/><path d="M48.4 64c1.9 1.3 2.3 3.8.2 7-2 3-4.7 3.6-6.5 2.4s-2.9-3.9-.7-7.2c2.2-3.1 5.2-3.4 7-2.2z" fill="#01579B"/><defs><ellipse id="i" transform="rotate(-55.8 45.3 68.7)" cx="45.3" cy="68.7" rx="3.9" ry="3"/></defs><use fill="#B3E5FC" xlink:href="#i"/><clipPath id="j"><use xlink:href="#i"/></clipPath><path clip-path="url(#j)" fill="#fff" d="M48.2 73.5l-4.7-8 .5-3.1 4.8 8z"/><path fill="#01579B" d="M43.5 73.6l-2.6 3.8-1.8-1.3 2.5-3.8zM48.2 59.9c1.3 1.5 1.4 3.3 1 5.3l-1.9-1.3c.7-1.6.6-3.3-1-5.3l2 1.3zM30 87c1.8.5 3.6-.1 5.3-1.2l-2-1.3c-1.1 1.3-2.8 1.8-5.2 1.1L30 87z"/><linearGradient id="k" x1="21.2" x2="33.8" y1="63" y2="70" gradientUnits="userSpaceOnUse"><stop stop-color="#651FFF" offset="0"/><stop stop-color="#5914F2" offset=".7"/><stop stop-color="#530EEB" offset="1"/></linearGradient><path d="M28.4 88c-1.4-.8-4.5-2.5-7.7-5.2-1.5-1.3-4.2-4-5.3-8.4C14.2 69.9 15 65 18 60l.2-.3.2-.3c5.2-6.8 11-8.3 15-8.3 3.6 0 6.2 1.2 7.2 1.8 3.7 2 6.5 4 7.8 5-.4 0-.7.3-.9.4A18 18 0 0 0 37.2 62a27.9 27.9 0 0 0-9.6 14.7c-.6 4.3.5 9.4.7 10.2v1z" fill="url(#k)"/><path d="M33.4 51.6c3.7 0 6.3 1.3 7 1.7a63 63 0 0 1 7 4.5c-4.3.3-6.6 1.3-10.4 3.7-4 2.5-9 10.4-9.8 15.2-.6 4.2.5 9.2.7 10.3v.1c-1.6-.8-4.2-2.4-6.9-4.7-2.4-2-9.9-9.8-2.5-22.2l.2-.2.2-.3c5.1-6.7 10.7-8 14.5-8m0-1c-4.6 0-10.3 1.8-15.3 8.4l-.2.3-.2.3c-7 11.7-1.4 20 2.7 23.4C25 87 29 88.8 29 88.8V87s-1.5-5.6-.8-10.2a28 28 0 0 1 9.3-14.4c3.8-2.4 5.9-3.4 10.3-3.6l1-.5.8-.2s-3.4-2.8-8.7-5.7c-1.6-.9-4.3-1.8-7.5-1.8z" fill="#4A00ED"/><path d="M46.6 76l-.1.2-1.8 2.9-.1.2c0 .3.1.6.5.7s1.5 0 2.3-1.2c.7-1.2.3-2.3 0-2.6a.6.6 0 0 0-.8-.1z" fill="#E59600"/><path d="M51.1 76.3c0 1.8-2.8 6.1-4.4 7-.9.4-.7 1.6.2 1.7.9.1 3.9-1.2 5.2-3.2s1.2-5.3.7-6a1 1 0 0 0-1.7.5z" fill="#795548"/></g><path d="M96 89.2c-6 0-9.4-7.2-16-7.2s-10 7.2-16 7.2S54.6 82 48 82s-10 7.2-16 7.2S22.6 82 16 82 6 89.2 0 89.2V82v46h128V89.2c-6-.1-9.4-7.2-16-7.2s-10 7.2-16 7.2z" clip-path="url(#b)" fill="#039BE5"/><path d="M128 105.7v-7.2c-6 0-9.5 7.2-16 7.2s-10-7.2-16-7.2-9.5 7.2-16 7.2-10-7.2-16-7.2-9.5 7.2-16 7.2-10-7.2-16-7.2-9.5 7.2-16 7.2-10-7.2-16-7.2V128h128v-22.3z" clip-path="url(#b)" fill="#29B6F6"/><path clip-path="url(#b)" fill="none" d="M4 4h120v120H4z"/><g clip-path="url(#b)"><path d="M96 99.5c2.6 0 4.8 1.6 7 3.3 2.6 2 5.3 3.9 9 3.9s6.3-2 9-4c1.9-1.4 3.8-2.8 6-3.1V127H1V99.6c2.2.3 4 1.7 6 3.2 2.7 2 5.3 3.9 9 3.9s6.4-2 9-4c2.2-1.6 4.4-3.2 7-3.2s4.8 1.6 7 3.3c2.7 2 5.3 3.9 9 3.9s6.4-2 9-4c2.2-1.6 4.4-3.2 7-3.2s4.8 1.6 7 3.3c2.7 2 5.3 3.9 9 3.9s6.4-2 9-4c2.2-1.6 4.3-3.2 7-3.2m32-1c-6 0-9.5 7.2-16 7.2s-10-7.2-16-7.2-9.5 7.2-16 7.2-10-7.2-16-7.2-9.5 7.2-16 7.2-10-7.2-16-7.2-9.5 7.2-16 7.2-10-7.2-16-7.2V128h128V98.5z" fill="#17A3E3"/></g><g clip-path="url(#b)"><path d="M112 83c3 0 5.3 1.7 7.7 3.5 2.2 1.6 4.4 3.2 7.2 3.6V127H1V90.1c2.8-.3 5.1-2 7.3-3.6C10.7 84.7 13 83 16 83s5.3 1.7 7.8 3.5c2.4 1.8 5 3.7 8.2 3.7s5.8-2 8.3-3.7C42.7 84.7 45 83 48 83s5.3 1.7 7.8 3.5c2.4 1.8 5 3.7 8.2 3.7s5.8-2 8.3-3.7C74.7 84.7 77 83 80 83s5.3 1.7 7.8 3.5c2.4 1.8 5 3.7 8.2 3.7s5.8-2 8.3-3.7c2.4-1.8 4.7-3.5 7.7-3.5m0-1c-6.6 0-10 7.2-16 7.2S86.6 82 80 82s-10 7.2-16 7.2S54.6 82 48 82s-10 7.2-16 7.2S22.6 82 16 82 6 89.2 0 89.2V82v46h128V89.2c-6-.1-9.5-7.2-16-7.2z" fill="#0089CC"/></g></svg>