<svg xmlns="http://www.w3.org/2000/svg" viewBox="0 0 36 36"><path fill="#F7DECE" d="M36 20.4c-1.4-.5-3.8-3.4-6-3.4-3 0-3-7-4-9s-3-4-3-5-3-2-8 0S7 5 5 5 2 7 1 9s0 2 0 2c1 1 2-2 4-3s3 1 5 0c1.5-.7 4.7.2 7-.1.8-.1 1.5-.4 2-.9 0 0 0 8 2 11 0 0-1 1-2 4s-2 0-2-2-1-5-5-7c-1.8-.9-5.7-.7-7 2-2 4 0 8 2 9s3 2 7 2c2 0 17.8.5 22 .4v-6z"/><path fill="#4289C1" d="M8.2 16.4c2.2-2 5.6-1.7 8 .5A9 9 0 0 0 12 13c-1.8-.9-5.7-.7-7 2-2 4 0 8 2 9l.7.4c-1.8-2.7-1.7-6 .5-8z"/><path fill="#D89882" d="M12 18.5l-.4-.1a.5.5 0 0 1 0-.8 3.6 3.6 0 0 1 2.4-1.1.5.5 0 0 1 0 1s-.8 0-1.6.9l-.4.1zm-4 3l-.4-.1a.5.5 0 0 1 0-.8 3.6 3.6 0 0 1 2.4-1.1.5.5 0 0 1 0 1s-.8 0-1.6.9l-.4.1z"/><path fill="#55ACEE" d="M0 24h36v12H0z"/><path fill="#55ACEE" d="M6 24c3-2 7-5 6-3s-1 3 1 2 5-2 4 0 2 1 3 0 4 0 3 1-9 2-12 2-5-2-5-2z"/></svg>