<svg viewBox="0 0 128 128" xmlns="http://www.w3.org/2000/svg"><path d="M44.2 108a.7.7 0 0 1-.8-.6l-.5-2.8a.7.7 0 0 1 1.4-.2l.5 2.8c0 .4-.2.7-.6.8z"/><path d="M41 108.1c-.5-2 2.6-3 3.4-2 1 1 1.7 2.5 1.7 2.5s6.5.7 10.6-2.3c3.7-2.7 7.6-1.9 8.2-.3.7 2-10.5 5.3-16.5 4.6s-6.9-.3-7.4-2.5z" fill="#ccc"/><path d="M61 101c0-.8-1.8-1-3.5-1.4a7.4 7.4 0 0 0-1.3 5c2.7-.6 5.7-1 4.8-3.6z" fill="#1A1A1A"/><path d="M60.6 97.9c-1.5.2-2.4.8-3.1 1.7 1.7.5 3.5.6 3.5 1.4.9 2.6-2 3-4.8 3.7v.7c3 1 10.1-2 9.8-4-.2-1.8-1-4.2-5.4-3.5z" fill="#B3B3B3"/><path d="M62 98.9c2.2 0 2.8 1 3 2.8-.2.9-4.3 3-7.3 3a8 8 0 0 1-.5 0c0-1 0-3 1-4.4a4 4 0 0 1 2.5-1.3l1.2-.1m0-1l-1.3.1c-1.5.2-2.4.9-3.1 1.7a7.5 7.5 0 0 0-1.3 5v.8l1.5.2c3.4 0 8.6-2.5 8.3-4.1-.2-1.7-.8-3.7-4-3.7z" fill="#424242" opacity=".2"/><linearGradient id="a" x1="12.3" x2="12.3" y1="110.3" y2="121" gradientUnits="userSpaceOnUse"><stop stop-color="#eee" offset=".3"/><stop stop-color="#E5E5E5" offset=".5"/><stop stop-color="#CECECE" offset=".8"/><stop stop-color="#BDBDBD" offset="1"/></linearGradient><path d="M4 119.2c0 .7.2 1.4.4 2a24.1 24.1 0 0 1 16.3.6c-.3-3.5-.7-7-.7-10.8a33 33 0 0 0-16 8.2z" fill="url(#a)"/><path d="M4.4 121.1l.4.9h16l-.1-.2a24.1 24.1 0 0 0-16.3-.7z" fill="#333"/><linearGradient id="b" x1="48.7" x2="48.7" y1="104.8" y2="121.5" gradientUnits="userSpaceOnUse"><stop stop-color="#ED1C24" offset="0"/><stop stop-color="#C1272D" offset="1"/></linearGradient><path d="M59 114c13-1.7 27.6-1.2 34.4-12.2l-5.5-.5c-6-.4-9.5-.9-9.5-.9l-6-3c-4-2-8.5-.6-8.5-.6l.2 7S60 106.3 54 107s-9.4.6-9.4.6l-3.4-2.5-8.3.9c-17.6 0-25 8.2-28.2 11.4-.5.6-.7 1.2-.7 1.8a33 33 0 0 1 16-8.2c0 4 .4 7.4.7 11H51c1.4-3.9 4.1-7.2 8.1-8z" fill="url(#b)"/><linearGradient id="c" x1="81.2" x2="81.2" y1="100.8" y2="121.5" gradientUnits="userSpaceOnUse"><stop stop-color="#eee" offset=".3"/><stop stop-color="#E5E5E5" offset=".5"/><stop stop-color="#CECECE" offset=".8"/><stop stop-color="#BDBDBD" offset="1"/></linearGradient><path d="M105.6 103.8c-5.2-.9-8-1.5-12.2-2-6.8 11-21.4 10.5-34.4 12.2-4 .8-6.7 4.1-8.1 8H92l.8-.8 7.7-.7 10.8-15.8-5.7-1z" fill="url(#c)"/><linearGradient id="d" x1="103.8" x2="123.8" y1="102.5" y2="102.5" gradientUnits="userSpaceOnUse"><stop stop-color="#ED1C24" offset="0"/><stop stop-color="#C1272D" offset="1"/></linearGradient><path d="M105.3 92c-.8 0-1.4.6-1.4 1.4v5.8c0 .3 0 .6.2.8.3.5 1 1 1.9 1.2 1.5.3 3.8 1.3 4.1 4.3.2 1.9.2 4.4.1 6 0 .8.6 1.5 1.5 1.5h4.2c2.3 0 6-3 6.3-5.4l1.6-14c0-.9-.6-1.6-1.5-1.6h-17z" fill="url(#d)"/><circle cx="26.3" cy="114.3" r="9.7"/><path d="M26.3 106.6a7.7 7.7 0 1 1 0 15.4 7.7 7.7 0 0 1 0-15.4m0-2a9.7 9.7 0 1 0 0 19.4 9.7 9.7 0 0 0 0-19.4z" fill="#eee" opacity=".2"/><circle cx="26.3" cy="114.3" r="5.5" fill="#BDBDBD"/><circle cx="26.3" cy="114.3" r="3.4"/><circle cx="26.3" cy="114.3" r="1.6" fill="none" stroke="#666" stroke-miterlimit="10" stroke-width=".5"/><path d="M114.9 122H104a3 3 0 0 1-3-3v-8a3 3 0 0 1 3-3h11a3 3 0 0 1 3 3v8c0 1.7-1.1 3.2-3 3z"/><path d="M115.6 122H50.8l1-2.1h63.8z"/><circle cx="105.3" cy="114.3" r="9.7"/><path d="M105.3 106.6a7.7 7.7 0 1 1 0 15.4 7.7 7.7 0 0 1 0-15.4m0-2a9.7 9.7 0 1 0 0 19.4 9.7 9.7 0 0 0 0-19.4z" fill="#eee" opacity=".2"/><circle cx="105.3" cy="114.3" r="5.5" fill="#BDBDBD"/><circle cx="105.3" cy="114.3" r="3.4"/><circle cx="105.3" cy="114.3" r="1.6" fill="none" stroke="#666" stroke-miterlimit="10" stroke-width=".5"/><path d="M123 100h-10.5a2 2 0 0 1-2-2v-1.3c0-1 .9-2 2-2h11.2l-.6 5.4z" fill="#E6E6E6"/><path d="M121.7 94v1l-1.4 12.3c-.2 1-1.5 2.5-3.2 3.3a2 2 0 0 0-1.1 1.8v6.9c0 .4-.3.7-.4.7H6.2c-.2-.3-.2-.6-.2-.8 0 0 0-.2.3-.4l.3-.3c3-3.2 10.2-10.6 26.5-10.6h.2l7.5-.8 2.8 2c.3.3.7.5 1.2.5h.1c.6 0 4 0 9.5-.7a28 28 0 0 0 10.7-3.4c.6-.3 1-1 1-1.7l-.2-5.4 2-.1c1.4 0 2.7.3 3.7.8a1699 1699 0 0 0 6.7 3.2c.1 0 3.6.6 9.7 1 2 0 3.7.2 5.4.4a277.8 277.8 0 0 0 16.6 2.8 2 2 0 0 0 1.8-2.7 6.8 6.8 0 0 0-5.3-4.5.8.8 0 0 1-.6-.3v-5h15.8m.8-2.2l-17 .1c-.8 0-1.7.6-1.7 1.4V99c0 .3.3.7.4 1 .3.4 1 1 2 1.2 1.3.2 3 1 3.8 3.2l-4.2-.8c-5.2-.9-8-1.5-12.2-2l-5.5-.4c-6-.4-9.5-1-9.5-1l-6-3c-1.6-.8-3.2-1-4.7-1-2.2 0-4 .5-4 .5l.2 7s-4 2.5-10 3.1c-5.2.6-8.5.6-9.2.6l-3.5-2.5-8.3 1c-17.6 0-25 8.2-28.2 11.4-.5.5-1 1.1-1 1.7 0 .7.3 1.5.5 2l.5 1h110.7c1.3 0 2.3-1.4 2.3-2.8l.1-6.9c2-1 4-3 4.3-4.8l1.4-12.4v-1.4c.1-1-.3-1.9-1.2-1.9z" fill="#424242" opacity=".2"/></svg>