<svg viewBox="0 0 128 128" xmlns="http://www.w3.org/2000/svg" xmlns:xlink="http://www.w3.org/1999/xlink"><defs><path id="a" d="M4 4h120v120H4z"/></defs><clipPath id="b"><use xlink:href="#a"/></clipPath><g clip-path="url(#b)"><radialGradient id="c" cx="61.2" cy="5.1" r="15.5" gradientUnits="userSpaceOnUse"><stop stop-color="#554138" offset="0"/><stop stop-color="#3C2C23" offset="1"/></radialGradient><path d="M50.2 11.8c-1-1.6-3.7-2.2-1.2-5.5 1.3-1.6 8.1-3.8 11.1 1 8 13.1 27.1 8 27.1 8s-7.6 12.4-24.2 8c-8-2-11.4-9-12.8-11.5z" fill="url(#c)"/></g><g clip-path="url(#b)"><path d="M54.5 5.4c1.4 0 3.5.4 4.7 2.5 4.8 7.8 13.3 9.4 19.5 9.4a46 46 0 0 0 6-.4A20.1 20.1 0 0 1 70 23.3c-2.1 0-4.3-.3-6.6-.9-7-1.9-10.5-8-12-10.6l-.2-.5L50 9.9c-1-1-1.4-1.3-.1-3 .4-.5 2.4-1.5 4.7-1.5m0-1c-2.5 0-4.8 1-5.5 2-2.5 3.2.2 3.8 1.2 5.4 1.4 2.4 4.9 9.5 12.8 11.6 2.5.6 4.8 1 6.9 1 11.8 0 17.3-9 17.3-9s-3.7 1-8.5 1c-6.1 0-14.1-1.7-18.6-9a6.3 6.3 0 0 0-5.6-3z" fill="#291D15"/></g><linearGradient id="d" x1="151.3" x2="56.9" y1="38.4" y2="123.8" gradientUnits="userSpaceOnUse"><stop stop-color="#0288D1" offset="0"/><stop stop-color="#29B6F6" offset="1"/></linearGradient><path d="M128 128H0v-21.4A269.7 269.7 0 0 0 128 5v123z" clip-path="url(#b)" fill="url(#d)"/><g clip-path="url(#b)"><path d="M127 8.3V127H1v-19.6a271.2 271.2 0 0 0 126-99m1-3.5A269.7 269.7 0 0 1 0 106.7V128h128V5z" fill="#007ABD"/></g><g clip-path="url(#b)"><path d="M112.9 91.3a4.3 4.3 0 0 0-2.8-3.2c-.7-.2-1.4-.4-2.2-.4a3 3 0 0 0-1.3.2c-.2.1-.4.3-.6.2l.4-.8c1-1.3 2.3-2.5 3-4 .9-1.8.7-3.5-.5-4.7a4.4 4.4 0 0 0-3-1.2c-1.2 0-5 1.8-4.3-.7.3-1 .8-2.6-.4-3.4-2.8-2-6.5 1.1-8.4 3-.3.3-.7.7-1 .7-.7 0-.6-.8-.8-1.2-.9-1.3-2.6-1.4-4-1a9.3 9.3 0 0 0-3.5 2.9c-.2.2-.6.4-.9.1-.5-.5-.1-1.5-.6-2.2a2 2 0 0 0-1.7-1c-1.5 0-3.1 1.6-3.9 2.6a103.9 103.9 0 0 1-4.6 5.6l-.5.4a36.8 36.8 0 0 1-2.7 2.2c-1.5 1-2.2 1.7-2.2 2.4v.3l.4.1c1.5.3 3.4 0 4.9-.2l1-.1c1-.3 2.2-.5 3-.3a27 27 0 0 1 7.7 3.1 59 59 0 0 1 3 2c1.2 1 3.2 2.8 3.2 5.5 0 3-1.5 5.5-2.7 7.2-.6.8-1.4 1.4-2.2 2-.7.3-1.6.5-2.2 1.1-.1.2-.2.5-.4.6l-.4.5c-.4.7-.9 1.5-1.6 2l-1.1.3c-.3 0-.5.3-.8.4-.3.2-1.3.7-.8 1.1.4.4 1.1 0 1.6 0a20.7 20.7 0 0 1 8.1.5l1 .2c1.7.3 3.3.6 4.9.1.8-.2 1.7-.6 2.5-1.6.7-1 .6-1.6.3-2.5l-.2-.7-.1-.7c0-.4-.2-1 .1-1.2.9-1 2.2-.5 3.2-.1 1.4.4 2.8.7 4.2.6 1.3-.1 2.5-.7 3.3-1.7.7-1 1-2 .7-3.2a7 7 0 0 0-1.3-2.4c-.6-.8-2.7-1.8-1.1-2.6 1.4-.7 3-1 4.6-1.5 1.7-.7 3.3-1.9 3.6-3.7a4 4 0 0 0 .1-1.6z" fill="#0277BD"/><path d="M104 96.3c1.8-.6 4-.5 5.3-2 .8-.8 1.2-1.6.8-2.7a2.6 2.6 0 0 0-2-2 7 7 0 0 0-5 .9c.2-.9.3-1.7.7-2.4.9-1.5 2.3-2.6 3-4.2.7-1.3.8-2.8-.3-3.8-1.3-1.2-3-1-4.4-.4-1.3.5-3.3.8-3-1.1.2-1 1.2-2.6 0-3.4-1.8-1.2-4.2 1.1-5.4 2.3-.8.8-2.1 2.3-3.4 1.8-.8-.3-.7-1.3-1-1.8a2.4 2.4 0 0 0-3.7-.2c-1 1-2.1 3.3-3.8 2.7-1.2-.3-.7-2-1.2-2.7-1.3-1.8-3.9.3-4.7 1.5a91.8 91.8 0 0 1-4.6 5.2c-.2 0-.3.2-.5.4l-2.3 1.8c-.4.3-2.2 1.4-2.2 2 1.5.2 3 0 4.6-.2 1.3-.2 2.7-.6 4-.4a24 24 0 0 1 7.5 3l3 1.8c1.8 1.2 3.2 3 3.2 5.3a12 12 0 0 1-2.7 6.8c-1.5 2-4.3 2.8-6.4 4.2-1.5.9-3.4 2-4.3 3.3-2.1 3 2.8.5 3.8.3 2.2-.6 4.6-1 6.8-.6 2 .3 3.6.8 5.5.3a4 4 0 0 0 2.2-1.4c.6-.7.5-1 .3-1.9-.3-1.2-1.5-2.7.2-3.2a10 10 0 0 1 2.9-.4c1.2 0 2.3.7 3.5.8 2 .1 4.9-1.2 4.1-3.5-.4-1.1-1-1.8-2-2.3-.6-.3-1.3-.4-1.5-1-.3-1.3 2.1-2.5 3-2.8z" fill="#E3F2FD"/><path d="M81.4 121.2c1.8 1.1 4.2-.7 3.2-2.7v-.1c-.7-1.2-2-1.7-3.2-1.7h-2l-1 .1c-.1 0-.4.2-.4.4 0 .4.4.8.6 1 .8 1.2 1.7 2.2 2.8 3zm2.1-52.9c.7-1.8-1.2-3.5-2.7-2.3h-.2c-.8.8-1 2-.9 3l.4 1.6c0 .3.2.6.3.8 0 .2.2.4.4.3.2 0 .6-.4.7-.6.9-.8 1.6-1.8 2-2.8zm12.1-.2c1.4-1.5.1-4-2-3.4-1.2.4-2 1.5-2.2 2.7l-.2 1.8v1c0 .1 0 .4.2.4l1-.3a10 10 0 0 0 3.2-2.2z" fill="#0277BD"/><path d="M100 89.6c-1.8-2.9-6-4.3-12.7-4.3a98 98 0 0 0-17.1 2 90.7 90.7 0 0 0-37.3 15.5c-4 3.2-8.4 7-8.6 11.2 0 1.3.3 3.3 2.2 5.1 2.7 2.5 7.7 3.6 16 3.6 10.2 0 18.7-2.7 26.5-5.2a99 99 0 0 0 20-9.3 27 27 0 0 0 11.2-11c1.6-3.7.8-6.2-.1-7.6zm-57.5 30.6z" fill="#00796B"/><linearGradient id="e" x1="23.5" x2="100.3" y1="101.8" y2="101.8" gradientUnits="userSpaceOnUse"><stop stop-color="#FFF176" offset="0"/><stop stop-color="#FFEB3B" offset="1"/></linearGradient><path d="M99.2 87.4c-1.9-3-6-4.3-12.7-4.3-6.3 0-13.5 1.2-17.2 2a90.7 90.7 0 0 0-37.2 15.4c-4 3.2-8.5 7-8.6 11.2-.1 1.4.2 3.3 2.2 5.2 2.6 2.4 7.7 3.6 16 3.6 9.2 0 17.8-2.5 26.5-5.3A97 97 0 0 0 88 106a27 27 0 0 0 11.3-11.1c1.5-3.7.8-6.1-.2-7.5z" fill="url(#e)"/><defs><path id="f" d="M99.2 87.4c-1.9-3-6-4.3-12.7-4.3-6.3 0-13.5 1.2-17.2 2a90.7 90.7 0 0 0-37.2 15.4c-4 3.2-8.5 7-8.6 11.2-.1 1.4.2 3.3 2.2 5.2 2.6 2.4 7.7 3.6 16 3.6 9.2 0 17.8-2.5 26.5-5.3A97 97 0 0 0 88 106a27 27 0 0 0 11.3-11.1c1.5-3.7.8-6.1-.2-7.5z"/></defs><clipPath id="g"><use xlink:href="#f"/></clipPath><linearGradient id="h" x1="90.4" x2="40.7" y1="79.2" y2="115.8" gradientUnits="userSpaceOnUse"><stop stop-color="#689F38" offset="0"/><stop stop-color="#8BC34A" offset="1"/></linearGradient><path clip-path="url(#g)" fill="url(#h)" d="M103.4 88.8L27.8 121l-9.1-8 76.8-30.2z"/><path d="M86.5 84c6.3 0 10.2 1.3 12 4 .7 1.1 1.4 3.2 0 6.5a26 26 0 0 1-11 10.5 91 91 0 0 1-19.7 9.1 86 86 0 0 1-26.3 5.3c-8 0-12.8-1-15.2-3.4a5.5 5.5 0 0 1-2-4.3c.2-3.9 4.4-7.4 8.3-10.5A89.9 89.9 0 0 1 69.5 86a96 96 0 0 1 17-2m0-1c-6.3 0-13.5 1.3-17.2 2a90.7 90.7 0 0 0-37.2 15.5c-4 3.2-8.5 7-8.6 11.2-.1 1.4.2 3.3 2.2 5.2 2.6 2.4 7.7 3.6 16 3.6 9.2 0 17.8-2.5 26.5-5.3A97 97 0 0 0 88 106a27 27 0 0 0 11.3-11.1c1.5-3.7.8-6.1-.2-7.5-1.8-3-6-4.3-12.7-4.3z" fill="#EDCB23"/></g><g clip-path="url(#b)"><linearGradient id="i" x1="90.4" x2="83.6" y1="180" y2="202.2" gradientTransform="rotate(-17.1 -496 263.9)" gradientUnits="userSpaceOnUse"><stop stop-color="#A56C43" offset=".6"/><stop stop-color="#8D5738" offset=".8"/><stop stop-color="#7A4C32" offset="1"/></linearGradient><path d="M49.4 8.7c-3.2-3.6-9.2-4-13.9-2.6C30.3 7.7 28 12 28 16.9c0 1.8.3 3.6.8 4.8l.5 1.5c.4 1.3-2 3-2 4.5-.1 1 2.3 1.5 2.5 1.6 1 .9.3 5.8 6.6 5.3 2.2-.1 4.2-.6 5 .9l3.6 4.2 4.9-.3s-3.4-9 1.2-15.3c3.2-4.3 1.1-12.3-1.6-15.4z" fill="url(#i)"/><linearGradient id="j" x1="27.2" x2="52.6" y1="22.5" y2="22.5" gradientUnits="userSpaceOnUse"><stop stop-color="#875334" offset="0"/><stop stop-color="#663B22" offset="1"/></linearGradient><path d="M40.6 6.3c3.4 0 6.3 1.1 8 3.1 2.6 2.9 4.4 10.3 1.6 14.1-3.8 5.3-2.5 12.2-1.7 15l-3.1.1-3.2-3.7c-.8-1.3-2.2-1.5-3.2-1.5l-1.8.1a181.9 181.9 0 0 1-1.7.2c-3.3 0-3.8-1.8-4.3-3.4-.2-.7-.4-1.3-.9-1.7a2 2 0 0 0-.8-.4c-.7-.2-1.2-.4-1.3-.6 0-.4.5-1 .9-1.5.6-1 1.4-2 1.1-3.1a5 5 0 0 0-.6-1.5v-.2a11 11 0 0 1-.7-4.3c0-3 1-8.1 7-10a16 16 0 0 1 4.7-.7m0-1c-1.8 0-3.5.3-5 .8-5.3 1.6-7.6 5.9-7.7 10.8 0 1.8.3 3.6.8 4.8l.5 1.5c.4 1.3-2 3-2 4.5-.1 1 2.3 1.5 2.5 1.6 1 .8.3 5.4 5.8 5.4h.8l2.7-.3c1 0 1.9.3 2.3 1l3.6 4.3 4.9-.3s-3.4-9 1.2-15.3c3.2-4.3 1.1-12.3-1.6-15.3a11.6 11.6 0 0 0-8.8-3.5z" fill="url(#j)"/><radialGradient id="k" cx="20.6" cy="57.3" r="13.4" gradientTransform="matrix(1.0302 -.1319 .1329 .9914 8 -42.8)" gradientUnits="userSpaceOnUse"><stop stop-color="#554138" offset="0"/><stop stop-color="#3C2C23" offset="1"/></radialGradient><path d="M42 27.1l1.2-5.4s3.4.6 2.7 4c-.4 2.5 1.2 5 2.3 5.2l.7.2c.9-3.7 5.2-5 5.3-14.5.1-8.1-7.3-12.2-14.1-12-6.6.4-13.7 5.2-12.5 14 0 .3 8.6.5 10.7 2.5 2.1 2 .8 6 3.7 6z" fill="url(#k)"/><defs><path id="l" d="M47.9 21l.3 8.9-.5.8.5.2.7.2c.9-3.7 5.2-5 5.3-14.5.1-8.1-7.3-12.2-14.1-12-6.6.4-13.8 5.5-12.6 14l1 .2v-1.4l10 .5 9.4 3.2z"/></defs><clipPath id="m"><use xlink:href="#l"/></clipPath><g clip-path="url(#m)"><path d="M40.8 5.7c3.7 0 7.3 1.3 9.6 3.6 2 2 2.9 4.4 2.8 7.3 0 6-1.8 8.4-3.4 10.6-.6.9-1.2 1.7-1.6 2.7a4.6 4.6 0 0 1-1.3-4c.3-1.3 0-2.5-.6-3.4a4.7 4.7 0 0 0-3-1.8h-.9l-.2.8-.9 4.3c-.2-.3-.4-.8-.6-1.8a6.9 6.9 0 0 0-1.7-3.7c-1.6-1.5-5.6-2-9.5-2.4l-1-.1c-.3-3 .5-5.6 2.3-7.8A13 13 0 0 1 40 5.7h.7m0-1H40c-6.6.3-13.7 5.2-12.6 14 0 .2 8.7.4 10.8 2.4 2.1 2 .8 6 3.7 6l1.2-5.4s3.4.6 2.7 4c-.4 2.5 1.2 5 2.3 5.2l.6.2c1-3.7 5.3-5 5.4-14.5.1-7.9-6.8-12-13.4-12z" fill="#291D15"/></g><path d="M31.5 22c-1.2.3-1.4-.5-1-1 .2-.5.9-.9 2.2-.6 1.3.2 1.8 1 2.1 1.4s.3.8 0 .8c-.4.1-2-1-3.3-.7z" fill="#42312C"/><path d="M32.8 57.8s-12-.5-12.8 0c-.8.6-.3 1.5.3 1.8s2 .4 2 .4c-.6.4-.7 1.1-.2 1.3 2.4 1 10.8-2 10.8-2v-1.5z" fill="#7A4C32" stroke="#663B22" stroke-linecap="round" stroke-linejoin="round" stroke-miterlimit="10"/><linearGradient id="n" x1="45.4" x2="29.6" y1="55" y2="49.8" gradientUnits="userSpaceOnUse"><stop stop-color="#8D5738" offset="0"/><stop stop-color="#97603D" offset=".2"/><stop stop-color="#A26941" offset=".6"/><stop stop-color="#A56C43" offset="1"/></linearGradient><path d="M28.5 62.1c-.2 0-.3 0-.3-.9l-.3-1.5-.5-1.4-.3-.7s0-.2.8-.4l11-3.6c.2 0 .3-.2.4-.3l3.9-11.8 6 2L44.5 57v.2a3.2 3.2 0 0 1-2.4 2.1L29 62l-.6.1z" fill="url(#n)"/><path d="M43.5 42.2l5 1.7-4.5 13v.1c-.3 1-1 1.6-2 1.8l-13 2.8-.3.1v-.4l-.3-1.6-.6-1.5-.1-.3h.4L39 54c.3-.1.5-.4.6-.7l3.8-11.2m-.7-1.3l-4 12.2-11 3.6c-2 .6-1 1.2-.4 3.1.4 1.7 0 2.8 1.1 2.8l.8-.1 13-2.7a3.7 3.7 0 0 0 2.6-2.5l4.9-14-7-2.4z" fill="#875334"/><defs><path id="o" d="M29.9 56.4l1.5-.5s-1.3-.6-2.1-.5c-.5 0-.9 0-1.4.2-1 .1-2 .3-3.8.2a44 44 0 0 1-6-.9c-.7 0-1.2.4-1.4.9-.2.4-.2 1 0 1.3.9 1.3 4.4 2 6.6 2.3a97 97 0 0 1 2.8.6v.3a6 6 0 0 1-1.8 1c-.9.2-1.3.6-1.4 1.2 0 .7.6 1.2 1 1.5.3.2.7.3 1.3.3 2 0 5-1.2 6.2-2 .4-.2 1.1-1.2 1.1-1.2l-1.4.2-1.2-5z"/></defs><clipPath id="p"><use xlink:href="#o"/></clipPath><linearGradient id="q" x1="25.7" x2="5.6" y1="-53.4" y2="-40.1" gradientTransform="rotate(20.4 -262.4 60.3)" gradientUnits="userSpaceOnUse"><stop stop-color="#8D5738" offset="0"/><stop stop-color="#97603D" offset=".2"/><stop stop-color="#A26941" offset=".6"/><stop stop-color="#A56C43" offset="1"/></linearGradient><path d="M32.4 58c-.9-1.5-1.6-1.6-2.8-1.5-1.3 0-2.6.2-5.3 0s-5.7-.8-5.7-.8c-.8 0-1.2.9-.8 1.4.6 1 3.5 1.7 5.9 2l2.5.4c.6 0 .8.8.4 1.2a6 6 0 0 1-1.9 1c-1.8.7-.6 1.6-.2 1.9 1 .7 4.5-.4 5.8-1.4 1.3-.8 2.8-3 2-4.3z" clip-path="url(#p)" fill="url(#q)" stroke="#875334" stroke-linecap="round" stroke-linejoin="round" stroke-miterlimit="10"/><path d="M48.5 52.1l-9.8-3-.1-.2 2.9-9.2a5.2 5.2 0 0 1 6.6-3.4c2.8.8 4.3 3.8 3.4 6.6L48.7 52h-.1z" fill="#3615AF"/><path d="M46.5 36.5c.5 0 1 0 1.4.2 2.5.8 4 3.5 3.2 6l-2.8 8.8-9.1-2.8 2.7-8.8a5 5 0 0 1 4.6-3.4m0-1a5.8 5.8 0 0 0-5.5 4l-3 9.4c-.1.3 0 .6.4.7l9.9 3.1h.1c.3 0 .5-.1.6-.4l3-9.3a5.8 5.8 0 0 0-5.5-7.5z" fill="#27089C"/><radialGradient id="r" cx="62.2" cy="100.3" r="23" gradientUnits="userSpaceOnUse"><stop stop-color="#D84315" stop-opacity=".5" offset=".4"/><stop stop-color="#F4511E" stop-opacity="0" offset="1"/></radialGradient><path d="M85 92.2c-1.1-1.9-3.9-2.8-8.2-2.8-4 0-8.7.8-11 1.3a58.9 58.9 0 0 0-24.2 10c-2.7 2-5.5 4.5-5.6 7.3 0 .8.2 2.1 1.4 3.3 1.7 1.6 5 2.4 10.3 2.4a56 56 0 0 0 17.2-3.5 61 61 0 0 0 13-6c2.5-1.5 5.8-4 7.2-7.1 1-2.4.6-4 0-4.9z" fill="url(#r)" opacity=".5"/><linearGradient id="s" x1="67.2" x2="67.2" y1="21" y2="148.8" gradientUnits="userSpaceOnUse"><stop stop-color="#663A21" offset="0"/><stop stop-color="#7A4629" offset="1"/></linearGradient><path d="M67.2 94.7c-.9 0-1.5-.6-1.6-1.4a3 3 0 0 1 1.6-3l.2-.4c0-.2 0-.3-.2-.4L58 83.2h-.1a4 4 0 0 1-1.6-5l6.8-21 9.1 3.4-7 17.6v.5l12.3 10.5.2.1.1.1c.3.6.7 2.1.8 2.6 0 1.1-.8 2.2-2 2.3l-9.3.4z" fill="url(#s)"/><path d="M63.3 58l8.2 2.9-7 17c0 .5 0 1 .3 1.2l12.3 10.5.2.1c.3.5.6 1.7.7 2.3a1.7 1.7 0 0 1-1.6 1.8l-9.2.4a1 1 0 0 1-1-1c-.2-1.3.6-2 1.2-2.4.3-.2.5-.5.5-.9a1 1 0 0 0-.4-.8l-9.3-6.3H58c-1.4-1-2-2.7-1.5-4.3v-.1l6.7-20.5m-.6-1.3l-7 21.6c-.7 2 .1 4.2 1.8 5.4h.1L67 90c-1.2.7-2 1.8-1.9 3.4.1 1 1 2 2 2h.2l9.2-.5A2.7 2.7 0 0 0 79 92s-.4-1.9-.8-2.7l-.4-.2V89L65.4 78.4l7.3-18-10.1-3.8z" fill="#542D16"/><circle cx="67.7" cy="58.5" r="5.4" fill="#FBC11B"/><linearGradient id="t" x1="57.1" x2="72.4" y1="64.2" y2="64.2" gradientUnits="userSpaceOnUse"><stop stop-color="#E53935" offset=".2"/><stop stop-color="#D83230" offset=".5"/><stop stop-color="#C62828" offset=".8"/></linearGradient><path d="M57 72l4-15.3a6 6 0 0 1 7.5-3.5 6 6 0 0 1 3.6 7.5l-5.5 14.8-9.5-3.4z" fill="url(#t)"/><path d="M66.5 53.3c.7 0 1.3.1 1.9.3 2.8 1 4.2 4.2 3.2 7l-5.3 14.3-8.7-3.1 3.8-15a5.4 5.4 0 0 1 5.1-3.5m0-1c-2.6 0-5 1.6-6 4.2l-4 15.9 10.4 3.8 5.6-15.3a6.4 6.4 0 0 0-6-8.6z" fill="#C62828"/><linearGradient id="u" x1="24.3" x2="141" y1="83.8" y2="83.8" gradientUnits="userSpaceOnUse"><stop stop-color="#8D5738" offset="0"/><stop stop-color="#A56C43" offset="1"/></linearGradient><path d="M41.8 113a2 2 0 0 1-2-2c0-1 .3-2 1-2.7.8-.8 2.2-1.3 3.9-1.3h2.7c.1 0 .3 0 .4-.2v-.4l-5.6-22.6c-.8-1.8-.4-5.2.5-6.8a5.5 5.5 0 0 1 .8-1l17.6-21.4 9.3 8.3L51.2 83l-.1.3v.4l5 22.9.1 3.6c0 .7-.2 1.4-.8 1.9a3 3 0 0 1-2 .8H41.8z" fill="url(#u)"/><path d="M61.2 55.3l8.5 7.6L51 82.7a1 1 0 0 0-.3.6v.5l5 22.9.1 3.5c0 1.4-1.2 2.1-2.3 2.2H41.8c-.7 0-1.5-.5-1.5-1.4 0-1 .3-1.5.9-2 .7-.8 2-1 3.5-1h2.7c.3 0 .6-.4.8-.6s.2-.7.1-1l-5.6-22.7v-.2c-.8-1.5-.4-4.8.4-6.3a5.5 5.5 0 0 1 .8-1l17.3-20.9m-.1-1.4L43 75.7a6 6 0 0 0-.8 1c-1 1.8-1.4 5.6-.6 7.5l5.7 22.8h-2.7c-3 0-5.4 1-5.4 4 0 1.5 1.1 2 2.5 2l11.6.1c1.8 0 3.3-.9 3.3-2.8V107h-.1l-5-23.2v-.3L71 62.8l-10-9z" fill="#734125"/><ellipse cx="66.1" cy="58.3" rx="6.7" ry="6.7" fill="#FBC11B"/><linearGradient id="v" x1="72.2" x2="46.9" y1="63.7" y2="66.5" gradientUnits="userSpaceOnUse"><stop stop-color="#E53935" offset="0"/><stop stop-color="#EA4643" offset=".4"/><stop stop-color="#EF5350" offset=".8"/></linearGradient><path d="M47.5 70.3l12-16a7.5 7.5 0 0 1 11.3 9.9l-14 14-9.3-8z" fill="url(#v)"/><path d="M65.2 52.2a7 7 0 0 1 5.3 11.7L56.7 77.6l-8.5-7.4 11.7-15.6a7 7 0 0 1 5.3-2.4m0-1a8 8 0 0 0-6 2.7L46.8 70.3l10 8.6 14.4-14.4a8 8 0 0 0-6-13.3z" fill="#D12724"/><linearGradient id="w" x1="48.6" x2="78.5" y1="57.1" y2="57.1" gradientTransform="matrix(.9709 -.0402 -.0402 .9445 -4 -5.5)" gradientUnits="userSpaceOnUse"><stop stop-color="#651FFF" offset="0"/><stop stop-color="#5914F2" offset=".7"/><stop stop-color="#530EEB" offset="1"/></linearGradient><path d="M44 42c-1.5-3.9-1.4-6.4.4-7.8l3-2a7.5 7.5 0 0 1 7.7 2.2l16.1 20.2-16.7 5.5-10.4-18.2z" fill="url(#w)"/><path d="M49.5 32.4c1.1 0 3.3.3 5.3 2.3l15.6 19.7-15.6 5-10.3-17.7c-1.4-3.6-1.3-5.9.2-7l2.8-2c.4-.1 1-.3 2-.3m0-1c-1 0-2 .2-2.5.5l-2.9 2c-2.3 1.6-1.9 4.8-.5 8.3l10.7 18.5L72 54.9 55.5 34c-2-2-4.2-2.6-6-2.6z" fill="#4A00ED"/><linearGradient id="x" x1="55.8" x2="84.4" y1="35.8" y2="42.3" gradientUnits="userSpaceOnUse"><stop stop-color="#8D5738" offset="0"/><stop stop-color="#97603D" offset=".2"/><stop stop-color="#A26941" offset=".6"/><stop stop-color="#A56C43" offset="1"/></linearGradient><path d="M81.8 40.8l-8.5-6c-.1-.2-.3-.2-.4-.3-.7-.4-1.5-.5-2.3-.5l-14.3-.3-.2 7.4 13.6.2h.2l9 4.8c1.7 1 3.6.9 4.7-.9s0-3.4-1.8-4.4z" fill="url(#x)" stroke="#875334" stroke-linecap="round" stroke-linejoin="round" stroke-miterlimit="10"/><defs><path id="y" d="M94.3 47.7c.2-.4.1-.7 0-1-.2-.3-.5-.5-1-.7.3-.3.5-.6.6-1 0-.3 0-.5-.2-.7-.4-.5-1.1-.5-2.2-.6l-2.6-.4c-1.2-.3-2.2-.8-3-1.2l-1-.5h-.1c-.8-.4-2.3-.4-2.3-.4l.6 1-3.4 4.1-1-.4s.3 1.6.9 2.2l.7 1c.4 1 .6 1.8.7 2.4.2.8.3 1.2.6 1.4l.7.4h.6c.9-.5 1.1-2 1.2-2.4v-1.7c.3.2.8.5 1.2 1l.3.2c1 1 1.7 1.8 2.6 2.4.5.3 1 .6 1.5.4.4-.1.7-.5.9-1 .1-.4 0-1-.4-1.5 1.1.4 2.2.6 2.7 0 .4-.4.4-.8.4-1.1-.1-.3-.3-.6-.6-.8.7-.2 1.4-.5 1.6-1z"/></defs><clipPath id="z"><use xlink:href="#y"/></clipPath><g clip-path="url(#z)" stroke="#875334" stroke-linecap="round" stroke-linejoin="round" stroke-miterlimit="10"><linearGradient id="A" x1="74.3" x2="92.7" y1="39.5" y2="52" gradientUnits="userSpaceOnUse"><stop stop-color="#8D5738" offset="0"/><stop stop-color="#97603D" offset=".2"/><stop stop-color="#A26941" offset=".6"/><stop stop-color="#A56C43" offset="1"/></linearGradient><path d="M91.4 46c.4.3 1.8-.1 2-1s-2.2-.6-4.6-1.2c-2-.5-3.3-1.4-4.2-1.8a4 4 0 0 0-4.1.7l-.2.2a3.7 3.7 0 0 0-.4 5l.9 1.1c.7 2 .8 3.3 1.1 3.6 1 .9 1.6-.9 1.7-1.7s-.2-2.3-.2-2.3c.4 0 1.5.4 2.3 1.2 1 1.1 1.8 2 2.8 2.6.7.5 1.2.6 1.6-.3.3-.9-1.8-2.7-1.9-2.9 0 0 3.5 2.1 4.3 1.2 1-1.1-1.4-2-1.4-2 .7.2 2.5-.2 2.7-.9.4-.8-.5-1.1-2.4-1.5z" fill="url(#A)"/><path fill="none" d="M91.2 48.4l-2.9-1.1m3.4-1.3l-2.1-.5"/></g><path d="M53 42.8A5.3 5.3 0 0 1 53 32h9.6c.1 0 .2 0 .2.2v10.3l-.2.1H53z" fill="#3615AF"/><path d="M62.3 32.6v9.6h-9.4a4.8 4.8 0 0 1 0-9.6h9.3m.4-1H53a5.8 5.8 0 0 0 0 11.7h9.7c.4 0 .6-.3.6-.7V32.3c0-.4-.2-.7-.6-.7z" fill="#27089C"/><ellipse transform="rotate(-5.4 32.3 24.7)" cx="32.4" cy="24.7" rx="1.2" ry="1.8" fill="#42312C"/><defs><path id="B" d="M49.4 8.7c-3.2-3.6-9.2-4-13.9-2.6C30.3 7.7 28 12 28 16.9c0 1.8.3 3.6.8 4.8l.5 1.5c.4 1.3-2 3-2 4.5-.1 1 2.3 1.5 2.5 1.6 1 .9.3 5.8 6.6 5.3 2.2-.1 4.2-.6 5 .9l3.6 4.2 4.9-.3s-3.4-9 1.2-15.3c3.2-4.3 1.1-12.3-1.6-15.4z"/></defs><clipPath id="C"><use xlink:href="#B"/></clipPath><g clip-path="url(#C)"><path d="M26.2 30c1.7 1.8 5 2.6 6.9.8.7-.7 0-1.3-.8-.8-1.4.9-4.1.3-5.2-.8-.7-.7-1.6.2-1 .9z" fill="#473530"/></g></g></svg>