<svg xmlns="http://www.w3.org/2000/svg" viewBox="0 0 36 36"><path fill="#F7DECE" d="M14.8 35.3a1 1 0 0 0 2-.6L15.1 29a1 1 0 1 0-2 .5l1.6 5.9zm4.5-.6a1 1 0 1 0 2 .6l1.4-5.8a1 1 0 1 0-1.9-.6l-1.5 5.8zm-5.1-20c.2.5-.2 2.3-.2 2.3-1 0-1.5-1.2-1.7-1.7L9 4.8a1 1 0 1 1 2-.6l3.2 10.5zm7.6 0c-.2.5.2 2.3.2 2.3 1 0 1.5-1.2 1.7-1.7L27 4.8a1 1 0 0 0-2-.6l-3.2 10.5z"/><path fill="#292F33" d="M18.4 3c-1 0-1.8.3-2.4.8a2.7 2.7 0 0 0-2.6 2.6c0 1.2 0 2.7 1.6 3.3a4.2 4.2 0 0 0 7.6-2.5C22.6 5 20.7 3 18.4 3z"/><path fill="#4289C1" d="M19 23h-2l-3 2-1 5h3l1-3h2l1 3h3l-1-5zm-6 13v-1s0-1 2-1 2 1 2 1v1h-4zm6 0v-1s0-1 2-1 2 1 2 1v1h-4z"/><path fill="#4289C1" d="M22 14h-8v10h8V14z"/><path fill="#F7DECE" d="M16.5 11.4v3a1.5 1.5 0 1 0 3 0v-3h-3z"/><path fill="#F7DECE" d="M21.8 5.3h-7.6v4.6a3.8 3.8 0 0 0 7.6 0V5.3z"/><path fill="#292F33" d="M16.4 5.2H14v3.2c1.9 0 2.3-2 2.4-2.8 0 .9.6 2.8 5.6 2.8V5.2h-5.6z"/><path fill="#C1694F" d="M19.5 12.2h-3s0 .7 1.5.7 1.5-.7 1.5-.7z"/><circle fill="#662113" cx="16.1" cy="9.5" r=".4"/><path fill="#662113" d="M20.3 9.5a.4.4 0 1 1-.8 0 .4.4 0 0 1 .8 0z"/><path fill="#C1694F" d="M17.2 10.6h1.6s0 .8-.8.8-.8-.8-.8-.8z"/><path fill="#662113" d="M14 23h8v2h-8z"/><path fill="#99AAB5" d="M33.5 3.5c0 .3-.2.5-.5.5H3a.5.5 0 0 1 0-1h30c.3 0 .5.2.5.5z"/><path fill="#292F33" d="M32 0a1 1 0 0 0-1 1 1 1 0 1 0-2 0v5a1 1 0 1 0 2 0 1 1 0 1 0 2 0V1c0-.6-.4-1-1-1zM6 0a1 1 0 0 0-1 1 1 1 0 1 0-2 0v5a1 1 0 1 0 2 0 1 1 0 1 0 2 0V1c0-.6-.4-1-1-1z"/></svg>