<svg xmlns="http://www.w3.org/2000/svg" viewBox="0 0 36 36"><path fill="#2A6797" d="M21 18.9c-.3 2.5 0 7.8.2 8.5.2.7 2.2 3.5 2.7 4.2.4.6-2 2.4-2.6 1.8-.8-1-3.2-4.4-3.4-5-.2-.5-1-6.2-1.4-9.2l4.5-.3z"/><path fill="#66757F" d="M12.1 3.5L9.5 2.1c-.4-.2 0-1.3.5-1l2.7 1.4-.6 1z"/><path fill="#CCD6DD" d="M16.5 33.7c-.7-.8-4.7.3-6.1 1-1 .5-.7 1.3-.7 1.3h7s.4-1.4-.2-2.3z"/><path fill="#CC9B7A" d="M20.4 9c-2.2-1.2-5-2.8-7.3-5.8-.3-.3-2.1 1-2 1.2 2.1 3 4.5 5.5 11 7.4.2 0-.9-2.4-1.7-2.9z"/><path fill="#4289C1" d="M22.7 30.4h.3l-.6-1-.3.2-.8-1.3h.4l-.5-1-.4.1-.3-1.5h.5v-1h-.6l-.2-1.6.7-.1v-1h-.7v-.6c.7-.9 1-2 .7-3.5H13l-1 10c0 .8.4 4.5.8 5.8 0 .4 3.9.6 3.7-.4 0-.6-.6-4.4-.5-4.9 0-.4.5-2.6 1.2-4.1v.4l.3-.2c0 .6 0 1 .2 1.5l-.2.1.2 1.2.2-.2.5 1.5-.2.2.5 1 .3-.3.8 1.3-.2.2.6.8.2-.2 1.1 1.7c.2 0 .6 0 1-.3l-1.4-2 .6-.4 1.4 2 .7-.7c-.4-.5-.8-1-1.1-1.7zm-4.1-4.8l-.2-1.6.8-.5.2 1.7-.8.4zm.1 1l.9-.4c0 .6.2 1.2.3 1.6l-.7.4-.5-1.6zm1.9 3.7l-.8-1.3.6-.3.8 1.3-.6.3z"/><path d="M19.2 22.6c.4-.3.8-.7 1.1-1.2-3.3.6-6 0-7.6-.6l-.1 1a16 16 0 0 0 6.6.8zM16.6 26l.3-1c-1.9 0-3.4-.3-4.6-.6l-.1 1c1 .3 2.6.6 4.3.6zm-.6 3v-1c-1.6 0-3-.2-4-.4a6.3 6.3 0 0 0 0 1c1 .2 2.2.4 3.6.4h.4zm-3.8 1.7l.2 1a17 17 0 0 0 3.9 0l-.1-1c-1.6.2-3 .1-4 0z" fill="#88C9F9"/><g fill="#55ACEE"><path d="M14.2 18.7a529.1 529.1 0 0 0-1.7 9.5l.7 6h1a730.8 730.8 0 0 1-.7-6.2l1.7-9-1-.3z"/><path d="M16.7 18.5a28 28 0 0 1-.8 4l-.8 2.5a34 34 0 0 0-1 3.2l.8 6 1-.1-.7-6a48.2 48.2 0 0 1 2-6.4l.2-.7.3-2.5h-1zm2.7.6c0 .6-.3 1.9-.5 2.5l-1 2 1.3-1 .6-.6.2-.5.4-2.4h-1z"/></g><path fill="#D5AB88" d="M25.4 5.2a3.6 3.6 0 1 1-7.2 0 3.6 3.6 0 0 1 7.2 0"/><path fill="#4289C1" d="M20 5.2C18.1 4 17.2 1.4 18 .7c1.2-1.3 3.7-.1 4.3 1 .6 1-1.9 3.9-2.4 3.5z"/><path fill="#77B255" d="M13 18.2s.2-6.4 3.3-8.8c2.3-1.8 6.1-.4 7.2 1.6 1 2-2.4 3.2-2.4 8.3 0 1-8 .9-8-1.1z"/><path fill="#D5AB88" d="M20.2 5.8c-.5 1-.8 2-1 2.8.6.3 1 1.3 1.7 1.5 1 .4 1.2-.2 1.2-.4.2-1.3.9-2.5 1.3-3.2.5-.8-2.6-2-3.2-.7z"/><path fill="#50A5E6" d="M19 3c0 1.2 1.6 4.5 5 4.5 1.6 0 2-1.9 2-3.1 0-1.1-1.2-3-2.9-3.5-1.6-.4-4.2.7-4.2 2.2z"/><path fill="#CCD6DD" d="M22.9 31.5c1.5-.3 1.3 1.3 1.2 2 0 1.3-.3 2.5-1.3 2.5h-3.3s-.2-1.5 1.6-1.9c.3 0-.4-2.3 1.8-2.6z"/><path fill="#D5AB88" d="M13.6 8.2c-.7-.8-1-2-.8-3.4.6-.3 1-.9 1-1.5 0-1-.7-1.7-1.7-1.7-.9 0-1.7.8-1.7 1.7l.1.5c-.9 7.2 4.1 7.9 5.8 8.1l1.6-2.2c-2 0-3.4-.5-4.3-1.5z"/><path fill="#77B255" d="M14.4 8.4c-.3 1.3-1.6 2.7-1.6 2.7 1.8 1.6 3.9 1.7 3.9 1.7s1.8-2 2.1-3.3c-1.5.5-4.4-1.1-4.4-1.1z"/><path fill="#66757F" d="M29.6 12v-.1l-.2-.1-15.6-8.7c-.5-.2-.7 1-.3 1.2l15 8.3c-.5.7-.8 1.8-1 2.3-.1.8 1.2 1.6 2 1.6 1 0 1.1-4 0-4.6z"/></svg>