<svg viewBox="0 0 128 128" xmlns="http://www.w3.org/2000/svg"><linearGradient id="a" x1="-70.047" x2="-70.047" y1="-107.41" y2="-51.291" gradientUnits="userSpaceOnUse"><stop stop-color="#eee" offset=".005"/><stop stop-color="#EAEAEA" offset=".282"/><stop stop-color="#ddd" offset=".577"/><stop stop-color="#C8C8C8" offset=".879"/><stop stop-color="#BDBDBD" offset="1"/></linearGradient><path d="M-19.13-78.72c-.91-4.33-4.3-20.11-5.87-27.41-.47-2.21-2.11-3.82-3.99-3.81-5.36 0-15.39-.05-16.6-.05h-44.08c-.61 0-2.56.06-4.11 1.79-4.7 5.27-12.54 20.52-13.76 22.07-.08.1-6.27 2.31-9.09 4-1.12.67-1.74 2.13-1.9 3.63l-2.46 20.75c-.64 4.1 1.7 5.76 5.37 5.76h91.51c2.8 0 5.11-.68 5.11-5.69v-19.79c0-.43-.05-.85-.13-1.25z" fill="url(#a)"/><defs><path id="b" d="M-19.13-78.78c-.91-4.32-4.3-20.06-5.87-27.34-.47-2.21-2.11-3.82-3.99-3.82-5.36 0-15.39-.06-16.6-.06h-44.08c-.61 0-2.56.07-4.11 1.8-4.7 5.26-12.54 20.51-13.76 22.05-.08.1-6.27 2.28-9.09 3.96-1.12.67-1.74 2.13-1.9 3.62l-2.46 20.76c-.64 4.09 1.7 5.81 5.37 5.81h91.51c2.8 0 5.11-.79 5.11-5.8v-19.74c0-.42-.05-.83-.13-1.24z"/></defs><path d="M-28.98-107c.36 0 .87.59 1.05 1.44 1.46 6.78 4.95 23.05 5.86 27.43.04.2.07.44.07.66v19.79c0 2.81-.49 2.69-2.11 2.69h-91.51c-1.3 0-2.02-.23-2.25-.5s-.3-.92-.16-1.77c.01-.04.01-.06.02-.09l2.47-20.83c.08-.8.36-1.28.46-1.36 1.87-1.12 5.83-2.66 7.51-3.31 1.46-.57 1.86-.72 2.39-1.39.5-.63 1.28-2 2.99-5.03 2.85-5.03 7.61-13.53 10.65-16.93.57-.64 1.22-.79 1.87-.79h60.69-.02m.02-3.01h-60.7c-.63 0-2.55.08-4.08 1.79-4.7 5.27-12.54 20.52-13.76 22.07-.08.1-6.27 2.31-9.09 4-1.12.67-1.74 2.13-1.9 3.63l-2.46 20.75c-.64 4.1 1.7 5.76 5.37 5.76h91.51c2.8 0 5.11-.68 5.11-5.69v-19.79c0-.42-.05-.84-.13-1.24-.91-4.33-4.3-20.17-5.87-27.47-.49-2.21-2.13-3.81-4-3.81z" fill="#424242" opacity=".2"/><linearGradient id="c" x1="69.43" x2="69.43" y1="-151.5" y2="-95.374" gradientUnits="userSpaceOnUse"><stop stop-color="#616161" offset=".011"/><stop stop-color="#5D5D5D" offset=".25"/><stop stop-color="#505050" offset=".504"/><stop stop-color="#3B3B3B" offset=".766"/><stop stop-color="#212121" offset="1"/></linearGradient><path d="M120.35-122.93c-.91-4.33-4.3-20.11-5.86-27.41-.47-2.21-2.11-3.75-3.99-3.75-5.36 0-15.39.01-16.6.01H49.82c-.61 0-2.56-.01-4.11 1.73-4.7 5.27-12.54 20.49-13.76 22.03-.08.1-6.27 2.3-9.09 3.99-1.12.67-1.74 2.12-1.9 3.62l-2.46 20.8c-.64 4.1 1.7 5.82 5.37 5.82h91.51c2.8 0 5.1-.8 5.1-5.81v-19.79c-.01-.42-.05-.83-.13-1.24z" fill="url(#c)"/><defs><path id="d" d="M120.35-122.98c-.91-4.32-4.3-20.06-5.86-27.34-.47-2.21-2.11-3.74-3.99-3.74-5.36 0-15.39.01-16.6.01H49.82c-.61 0-2.56-.01-4.11 1.72-4.7 5.26-12.54 20.47-13.76 22.01-.08.1-6.27 2.26-9.09 3.94-1.12.67-1.74 2.12-1.9 3.61L18.49-102c-.64 4.09 1.7 5.8 5.37 5.8h91.51c2.8 0 5.1-.79 5.1-5.8v-19.74c0-.42-.04-.84-.12-1.24z"/></defs><path d="M110.5-151.08c.36 0 .87.53 1.05 1.38 1.46 6.78 4.95 23.03 5.86 27.4.04.2.06.41.06.63v19.79c0 2.81-.49 2.81-2.1 2.81H23.86c-1.3 0-2.02-.29-2.25-.56s-.3-.95-.16-1.8l.02-.1 2.47-20.84c.08-.8.36-1.28.46-1.36 1.87-1.12 5.83-2.66 7.51-3.31 1.46-.57 1.86-.72 2.39-1.39.5-.63 1.28-2 2.99-5.03 2.85-5.03 7.61-13.46 10.65-16.87.57-.64 1.22-.72 1.87-.72h44.08c.75 0 4.84 0 9.12-.01l7.49-.02m0-3c-5.36 0-15.39.01-16.6.01H49.8c-.63 0-2.55.01-4.08 1.73-4.7 5.27-12.54 20.49-13.76 22.03-.08.1-6.27 2.3-9.09 3.99-1.12.67-1.74 2.12-1.9 3.62l-2.46 20.8c-.64 4.1 1.7 5.82 5.37 5.82h91.51c2.8 0 5.1-.8 5.1-5.81v-19.79c0-.42-.04-.84-.13-1.24-.91-4.33-4.3-20.11-5.86-27.41-.49-2.22-2.13-3.75-4-3.75z" fill="#eee" opacity=".2"/><path d="M27.69 64.01c11.78 3.01 23.93 5.62 36.08 5.14 10.19-.41 20.13-3.09 30.17-4.88 8.87-1.58 18-2.46 26.71-.5 1.49.34 2.78-1.09 2.32-2.55-3.43-10.85-13.86-43.79-16.39-51.8-.37-1.16-1.31-2.02-2.48-2.33-9.14-2.41-18.76-1.4-28.14.27-10.04 1.79-19.98 4.47-30.17 4.88-12.15.49-24.3-2.12-36.08-5.14l17.98 56.91z" fill="#fff"/><path d="M110.28 21.18c-7.6-2.35-15.7-2.29-23.66-1.28l13.74 43.42c6.82-.88 13.62-1.05 20.27.45 1.49.34 2.77-1.1 2.31-2.56l-12.66-40.03z" fill="#424242"/><path d="M90.9 33.41l4.27 13.5c7.96-1.01 16.05-1.07 23.65 1.27l-4.27-13.51c-7.6-2.34-15.69-2.27-23.65-1.26z" fill="#fff"/><path d="M84.73 34.36c-10.04 1.79-19.98 4.47-30.17 4.88-12.13.49-24.27-2.12-36.03-5.13l4.28 13.51c11.76 3.01 23.89 5.61 36.01 5.12 10.19-.41 20.13-3.09 30.17-4.88 2.05-.37 4.11-.69 6.19-.95l-4.27-13.5" fill="#424242"/><path d="M64.66 23.94c-4.77.88-9.57 1.6-14.42 1.79-2.77.11-5.53.05-8.3-.12L55.7 69.02c1.98.13 3.96.19 5.95.18.71-.01 1.41-.02 2.12-.05 4.93-.2 9.8-.93 14.65-1.83" fill="#424242"/><path d="M110.28 21.18l-3.72-11.76a3.498 3.498 0 0 0-2.46-2.33c-7.03-1.85-14.45-1.61-21.75-.68l4.27 13.49c7.97-1.01 16.06-1.07 23.66 1.28z" fill="#fff"/><g fill="#424242"><path d="M104.47 19.85c.01 0 .03 0 .04.01-.01-.01-.03-.01-.04-.01zM107.22 20.38c.14.03.27.06.41.1-.13-.04-.27-.07-.41-.1zM92.6 19.35h.03-.03zM82.36 6.41c-2.05.26-4.1.59-6.12.95-10.04 1.79-19.98 4.47-30.17 4.88-12.14.48-24.29-2.13-36.07-5.14l.75 2.43 3.51 11.09c11.75 3 23.87 5.6 35.98 5.11 10.19-.41 20.13-3.09 30.17-4.88 2.06-.37 4.13-.69 6.22-.96L82.36 6.41zM98.56 19.28h.04-.04zM101.54 19.48h.05-.05z"/></g><path d="M68.93 37.45c-4.76.88-9.53 1.59-14.37 1.78-2.79.11-5.57.05-8.36-.13l4.27 13.5c2.78.18 5.56.24 8.34.13 4.84-.19 9.62-.91 14.38-1.79l-4.26-13.49zM60.39 10.46c-4.74.87-9.5 1.58-14.32 1.77-2.81.11-5.61.05-8.41-.13l4.27 13.51c2.77.18 5.54.24 8.31.12 4.85-.19 9.64-.91 14.42-1.79l-4.27-13.48zM-163.65 62.5c.3.94 1.06 1.67 2.02 1.91 11.3 2.84 22.92 5.21 34.54 4.75 10.19-.41 20.13-3.09 30.17-4.88 9.33-1.67 19.09-2.54 28.21-.16.89.23 1.68-.61 1.4-1.48L-85.19 6.15c-.29-.9-.99-1.62-1.91-1.88-9.3-2.59-19.29-1.71-28.83-.01-10.04 1.79-19.98 4.47-30.17 4.88-11.45.46-22.9-1.83-34.04-4.62-.89-.22-1.68.61-1.4 1.49l17.89 56.49z" fill="#fff"/><path d="M-99.99 5.65c4.41 0 8.33.49 11.97 1.49l16.9 53.37c-3.09-.57-6.34-.85-9.87-.85-4.85 0-10.08.53-16.46 1.67-2.86.51-5.73 1.1-8.52 1.66-6.96 1.42-14.16 2.89-21.24 3.17-.93.04-1.89.06-2.85.06-10.63 0-21.51-2.37-30.75-4.69l-16.88-53.3c8.71 2.08 18.64 3.99 28.63 3.99 1.04 0 2.08-.02 3.09-.06 7.57-.3 15.01-1.82 22.2-3.29 2.75-.56 5.59-1.14 8.37-1.64 6.02-1.08 10.92-1.58 15.41-1.58m0-3c-5.32 0-10.69.69-15.93 1.62-10.04 1.79-19.98 4.47-30.17 4.88-.99.04-1.98.06-2.97.06-10.46 0-20.89-2.13-31.07-4.68-.1-.02-.2-.04-.29-.04-.76 0-1.36.75-1.11 1.53l17.89 56.48c.3.94 1.06 1.67 2.02 1.91 10.33 2.6 20.94 4.8 31.57 4.8.99 0 1.98-.02 2.97-.06 10.19-.41 20.13-3.09 30.17-4.88 5.24-.94 10.61-1.62 15.93-1.62 4.16 0 8.28.42 12.28 1.47a1.162 1.162 0 0 0 1.4-1.48L-85.19 6.15c-.29-.9-.99-1.62-1.91-1.88-4.19-1.16-8.52-1.62-12.89-1.62z" fill="#424242" opacity=".2"/><g fill="none" stroke="#000" stroke-miterlimit="10"><path d="M-80.48 21.3c-9.71-3.11-20.24-2.24-30.28-.44s-19.98 4.47-30.17 4.88c-12.15.49-24.3-2.12-36.08-5.14M-84.65 7.8c-9.71-3.11-20.24-2.24-30.28-.44s-19.98 4.47-30.17 4.88c-12.15.49-24.3-2.12-36.08-5.14M-80.48-18.7c-7.72-2.48-15.96-2.43-24.06-1.4-2.09.26-4.16.59-6.22.96-10.04 1.79-19.98 4.47-30.17 4.88-12.15.49-24.3-2.12-36.08-5.14M-84.65-32.2c-7.75-2.49-16.03-2.43-24.16-1.39-2.05.26-4.09.59-6.12.95-10.04 1.79-19.98 4.47-30.17 4.88-12.15.49-24.3-2.12-36.08-5.14M-76.16 34.8c-9.71-3.11-20.24-2.24-30.28-.44-10.04 1.79-19.98 4.47-30.17 4.88-12.15.49-24.3-2.12-36.08-5.14M-71.9 48.3c-9.71-3.11-20.24-2.24-30.28-.44-10.04 1.79-19.98 4.47-30.17 4.88-12.15.49-24.3-2.12-36.08-5.14M-67.73 61.8c-9.71-3.11-20.24-2.24-30.28-.44-10.04 1.79-19.98 4.47-30.17 4.88-12.15.49-24.3-2.12-36.08-5.14"/></g><path d="M-143.16 126.32l-3.84 1.19c-1.22.38-2.52-.3-2.91-1.53L-186.47 8.26c-.71-2.28.57-4.71 2.85-5.42s4.71.57 5.42 2.85l36.57 117.72c.37 1.23-.31 2.53-1.53 2.91z" fill="#EDC970"/><path d="M-182.34 4.65c1.03 0 1.92.66 2.22 1.64l36.57 117.72c.03.1.01.19-.02.24s-.08.12-.19.16l-3.84 1.19c-.03.01-.06.02-.1.02-.11 0-.26-.07-.31-.23L-184.56 7.67c-.38-1.23.31-2.53 1.53-2.92.23-.07.46-.1.69-.1m0-2c-.43 0-.86.06-1.29.2a4.334 4.334 0 0 0-2.85 5.42l36.57 117.72c.31.99 1.23 1.63 2.22 1.63.23 0 .46-.03.69-.11l3.84-1.19a2.328 2.328 0 0 0 1.53-2.91L-178.2 5.69a4.341 4.341 0 0 0-4.14-3.04z" fill="#424242" opacity=".2"/><path fill="none" stroke="#000" stroke-miterlimit="10" d="M-110 2.65l20.5 64.77M-86.75 2.65l20.5 64.77"/><path d="M92.22 8.65c4.07 0 7.7.44 11.1 1.33.19.05.33.18.38.33l11.23 35.49 4.64 14.67c-3.07-.57-6.28-.85-9.76-.85-4.8 0-10.01.53-16.42 1.68-2.86.51-5.73 1.1-8.52 1.66-6.96 1.42-14.16 2.89-21.24 3.17-.93.04-1.89.06-2.85.06-10.35 0-20.86-2.21-30.75-4.69L14.17 11.31c9.22 2.2 18.91 4 28.63 4 1.04 0 2.08-.02 3.09-.06 7.57-.3 15.01-1.82 22.2-3.29 2.75-.56 5.59-1.14 8.37-1.64 6.44-1.15 11.3-1.67 15.76-1.67m0-3c-5.42 0-10.89.74-16.28 1.71-10.04 1.79-19.98 4.47-30.17 4.88-.99.04-1.98.06-2.97.06-11.16 0-22.29-2.43-33.11-5.2l17.99 56.91c10.82 2.77 21.95 5.2 33.11 5.2.99 0 1.98-.02 2.97-.06 10.19-.41 20.13-3.09 30.17-4.88 5.25-.94 10.6-1.63 15.89-1.63 3.65 0 7.27.33 10.82 1.13.15.03.3.05.44.05 1.29 0 2.29-1.29 1.88-2.6-3.43-10.85-13.86-43.79-16.39-51.8-.37-1.16-1.31-2.02-2.48-2.33-3.89-1.03-7.87-1.44-11.87-1.44z" fill="#424242" opacity=".2"/><path fill="none" stroke="#000" stroke-miterlimit="10" d="M-133.25 2.65l20.5 64.77M-156.5 2.65l20.5 64.77M-179.75 2.65l20.5 64.77"/><path d="M47.21 122.81L43.38 124c-1.22.38-2.52-.3-2.91-1.53L5.32 9.59c-.71-2.29.56-4.71 2.85-5.42 2.28-.71 4.71.57 5.42 2.85L48.74 119.9a2.32 2.32 0 0 1-1.53 2.91z" fill="#BDBDBD"/><path d="M9.45 5.97c1.03 0 1.92.66 2.22 1.64L46.83 120.5c.03.1.01.19-.02.24s-.08.12-.19.16l-3.84 1.19c-.03.01-.06.02-.1.02-.11 0-.26-.07-.31-.23L7.23 8.99c-.19-.59-.13-1.22.16-1.77s.78-.96 1.37-1.14c.23-.07.46-.11.69-.11m0-2c-.43 0-.86.06-1.29.2a4.325 4.325 0 0 0-2.84 5.42l35.15 112.89c.31.99 1.23 1.63 2.22 1.63.23 0 .46-.03.69-.11l3.84-1.19a2.328 2.328 0 0 0 1.53-2.91L13.59 7.02a4.338 4.338 0 0 0-4.14-3.05z" fill="#424242" opacity=".2"/></svg>