<svg viewBox="0 0 128 128" xmlns="http://www.w3.org/2000/svg" xmlns:xlink="http://www.w3.org/1999/xlink"><path d="M178 46V30a3 3 0 1 1 6 0v16a3 3 0 1 1-6 0zm44.3 0V30a3 3 0 1 1 6 0v16a3 3 0 1 1-6 0z" fill="#FFCA28"/><circle cx="203" cy="80.3" r="43.4" fill="#FFCA28"/><circle cx="203" cy="79.6" r="32.8" fill="#FFB300"/><path d="M205.3 51l6.9 14c.4.8 1 1.3 1.9 1.4l15.5 2.3c2 .2 2.8 2.7 1.4 4.2l-11.3 11c-.6.5-.8 1.3-.7 2.1l2.7 15.5c.3 2-1.8 3.5-3.6 2.6l-14-7.3c-.6-.4-1.5-.4-2.2 0l-14 7.3c-1.7 1-3.8-.6-3.5-2.6L187 86c.2-.8 0-1.6-.7-2.2l-11.2-11c-1.5-1.3-.7-3.8 1.4-4.1l15.5-2.3c.8-.1 1.5-.6 1.9-1.3l7-14.1c.8-1.9 3.4-1.9 4.3 0z" fill="#FDD835"/><defs><path id="a" d="M142.9 4.2h120.5v29.6H142.9z"/></defs><clipPath id="b"><use xlink:href="#a"/></clipPath><g clip-path="url(#b)"><path fill="#1E88E5" d="M187.4 34.2H219l44-48.5h-31.5z"/><path fill="#D32F2F" d="M187.4 34.2h15.1l44-48.5h-15z"/><path fill="#BBDEFB" d="M197.6 34.2H209l44-48.5h-11.4z"/></g><g clip-path="url(#b)" opacity=".2"><path d="M256-11l-38.5 42h-28.7l-38.5-42h23.2L201 19.1a3 3 0 0 0 4.5 0L232.8-11H256m6.9-3zm0 0h-31.4l-28.3 31.1L174.9-14h-31.5l44 48H219l44-48z" fill="#424242"/></g><path d="M224.7 32.6h-43.5a3 3 0 1 1 0-6h43.5a3 3 0 1 1 0 6z" clip-path="url(#b)" fill="#FFCA28"/><path clip-path="url(#b)" fill="#42A5F5" d="M218.9 34.2h-31.5l-44-48.5H175z"/><path clip-path="url(#b)" fill="#E3F2FD" d="M209.9 34.2h-13.5l-44-48.5H166z"/><path clip-path="url(#b)" fill="#EF5350" d="M218.9 34.2h-11.5l-44-48.5H175z"/><g clip-path="url(#b)" opacity=".2"><path d="M173.8-11L212 31h-23.2l-38.5-42H174m.9-3h-31.4l44 48h31.4l-44-48z" fill="#424242"/></g><path d="M203 39.9a40.4 40.4 0 1 1 0 80.8 40.4 40.4 0 0 1 0-80.8m0-3a43.4 43.4 0 1 0 0 86.7 43.4 43.4 0 0 0 0-86.7z" fill="#424242" opacity=".2"/><defs><path id="c" d="M3.9 4h120.5v58.4H3.9z"/></defs><clipPath id="d"><use xlink:href="#c"/></clipPath><linearGradient id="e" x1="4.8" x2="36.1" y1="-.9" y2="49.1" gradientTransform="matrix(-1 0 0 1 98.3 0)" gradientUnits="userSpaceOnUse"><stop stop-color="#1E88E5" offset=".2"/><stop stop-color="#1565C0" offset=".8"/></linearGradient><path clip-path="url(#d)" fill="url(#e)" d="M48.4 46.2H80l30-48.5H78.4z"/><linearGradient id="f" x1="7.1" x2="33.9" y1="5.9" y2="47.9" gradientTransform="matrix(-1 0 0 1 98.3 0)" gradientUnits="userSpaceOnUse"><stop stop-color="#eee" offset=".5"/><stop stop-color="#BDBDBD" offset="1"/></linearGradient><path clip-path="url(#d)" fill="url(#f)" d="M59.3 46.2h13.4l30-48.5H89.3z"/><linearGradient id="g" x1="-1.9" x2="23.1" y1="4.1" y2="44.8" gradientTransform="matrix(-1 0 0 1 98.3 0)" gradientUnits="userSpaceOnUse"><stop stop-color="#E53935" offset=".3"/><stop stop-color="#C62828" offset=".9"/></linearGradient><path clip-path="url(#d)" fill="url(#g)" d="M68.6 46.2H80l30-48.5H98.7z"/><g clip-path="url(#d)" opacity=".2"><path d="M104.5.8L78.2 43.1H53.8L80.1.7h24.4m5.4-3zm0 0H78.4l-30 48.5H80l30-48.5z" fill="#424242"/></g><path d="M82 34H46a8 8 0 0 0-8 8v16a4 4 0 0 0 4 4c2.3 0 5-1.8 5-4V48c0-1.1.9-2 2-2h30a2 2 0 0 1 2 2v10c0 2 2.4 3.6 4.2 4h.8a4 4 0 0 0 4-4V42a8 8 0 0 0-8-8z" clip-path="url(#d)" fill="#FDD835"/><g clip-path="url(#d)" opacity=".2"><path d="M82 36a6 6 0 0 1 6 6v16a2 2 0 0 1-2.4 2c-1.2-.2-2.6-1.4-2.6-2V48a4 4 0 0 0-4-4H49a4 4 0 0 0-4 4v10c0 1-1.6 2-3 2a2 2 0 0 1-2-2V42a6 6 0 0 1 6-6h36m0-2H46a8 8 0 0 0-8 8v16a4 4 0 0 0 4 4c2.3 0 5-1.8 5-4V48c0-1.1.9-2 2-2h30a2 2 0 0 1 2 2v10c0 2 2.4 3.6 4.2 4h.8a4 4 0 0 0 4-4V42a8 8 0 0 0-8-8z" fill="#424242"/></g><linearGradient id="h" x1="34.8" x2="66.1" y1="-.9" y2="49.1" gradientUnits="userSpaceOnUse"><stop stop-color="#64B5F6" offset=".1"/><stop stop-color="#2196F3" offset=".9"/></linearGradient><path clip-path="url(#d)" fill="url(#h)" d="M79.9 46.2H48.4l-30-48.5H50z"/><linearGradient id="i" x1="38.2" x2="65.1" y1="1.5" y2="43.5" gradientUnits="userSpaceOnUse"><stop stop-color="#FAFAFA" offset=".2"/><stop stop-color="#E0E0E0" offset=".8"/></linearGradient><path clip-path="url(#d)" fill="url(#i)" d="M73 46.2H59.6l-30-48.5H43z"/><linearGradient id="j" x1="48.3" x2="73.3" y1="4.1" y2="44.8" gradientUnits="userSpaceOnUse"><stop stop-color="#EF5350" offset=".3"/><stop stop-color="#E53935" offset=".9"/></linearGradient><path clip-path="url(#d)" fill="url(#j)" d="M79.8 46.2H68.6l-30-48.5h11.2z"/><g clip-path="url(#d)" opacity=".2"><path d="M48.2.8l26.3 42.4H50L23.8.7h24.4m1.7-3H18.4l30 48.5H80L50-2.3z" fill="#424242"/></g><radialGradient id="k" cx="43" cy="57.5" r="72.6" gradientUnits="userSpaceOnUse"><stop stop-color="#FFEB3B" offset=".3"/><stop stop-color="#FBC02D" offset="1"/></radialGradient><circle cx="64" cy="86" r="38" fill="url(#k)"/><path d="M64 51a35 35 0 1 1 0 70 35 35 0 0 1 0-70m0-3a38 38 0 1 0 0 76 38 38 0 0 0 0-76z" fill="#424242" opacity=".2"/><g fill="url(#l)"><radialGradient id="l" cx="50" cy="61.3" r="54.5" gradientUnits="userSpaceOnUse"><stop stop-color="#FDD835" offset=".1"/><stop stop-color="#F9A825" offset="1"/></radialGradient><path d="M66.2 57.2l6.9 14c.3.6 1 1.1 1.8 1.3l15.4 2.2.6.2a29 29 0 0 0-25-18.2c0 .2.2.3.3.5zM37.7 74.7l15.4-2.2c.8-.2 1.5-.7 1.8-1.4l6.9-13.9c0-.2.2-.3.3-.5a29 29 0 0 0-25 18.2l.6-.2zm7.9 32.5l2.6-15.3c.1-.8-.1-1.6-.7-2.2L36.4 79l-.4-.5a28.8 28.8 0 0 0 9.6 29.5v-.7zM92 78.4l-.4.5-11 10.8c-.7.6-1 1.4-.8 2.2l2.6 15.3v.7A28.9 28.9 0 0 0 92 78.4zm-13.1 31.4L65 102.5c-.7-.3-1.5-.3-2.2 0L49 109.8l-.7.2a28.8 28.8 0 0 0 31.2 0l-.7-.2z"/></g><path d="M71.3 60.7A26.2 26.2 0 0 1 85.4 71l-9.8-1.5-4.3-8.8m-5.4-4c0 .2.2.3.3.5l6.9 14c.3.7 1 1.2 1.8 1.3l15.4 2.2.6.2a29 29 0 0 0-25-18.2zm-9.2 4l-4.3 8.8-9.8 1.5a26 26 0 0 1 14.1-10.3m5.4-3.7zm0-.3a29 29 0 0 0-25 18.2l.6-.2 15.4-2.2c.8-.2 1.5-.7 1.8-1.4l6.9-13.9.3-.5zM38 84.7l7.2 7-1.7 9.8c-3.5-4.5-5.4-10-5.4-16v-.8M36 78.4a28.8 28.8 0 0 0 9.6 29.5v-.7l2.6-15.3c.1-.8-.1-1.6-.7-2.2L36.4 78.9l-.4-.5zm54 6.3v.9a26 26 0 0 1-5.5 15.9l-1.7-9.8 7.1-7m2.1-6.3l-.4.5-11 10.8c-.7.6-1 1.4-.8 2.2l2.6 15.3v.7A28.9 28.9 0 0 0 92 78.4zm-28 26.9l8.9 4.7a25.8 25.8 0 0 1-17.8 0l8.9-4.7m0-3c-.4 0-.8 0-1.1.2L49 109.8l-.7.2a28.8 28.8 0 0 0 31.2 0 1 1 0 0 1-.7-.3L65 102.5l-1.1-.2z" fill="#424242" opacity=".2"/></svg>