<svg viewBox="0 0 128 128" xmlns="http://www.w3.org/2000/svg" xmlns:xlink="http://www.w3.org/1999/xlink"><linearGradient id="a" x1="40.1" x2="40.1" y1="33.8" y2="67.4" gradientUnits="userSpaceOnUse"><stop stop-color="#FFB300" offset="0"/><stop stop-color="#FFCA28" offset="1"/></linearGradient><path d="M40.1 62.6c-.4 0-.8 0-1.2-.2l-.5-.2L25.8 58l2.1-6.4 11.8 4 10.5-8.2 4.2 5.3-11.8 8.9-.4.3a3 3 0 0 1-2 .7z" fill="url(#a)"/><path d="M50.1 48l3.6 4.6-11 8.3-.8.6a3 3 0 0 1-2.8.4l-1-.3-11.7-3.9 1.8-5.4 11.1 3.6.5.2.4-.3 10-7.7m.1-1.4L39.6 55l-12-4-2.4 7.4 13.6 4.5a4 4 0 0 0 3.8-.6L55 52.8l-4.8-6.1z" fill="#EDA600"/><linearGradient id="b" x1="80.9" x2="80.9" y1="25.3" y2="62.9" gradientUnits="userSpaceOnUse"><stop stop-color="#FFB300" offset="0"/><stop stop-color="#FFCA28" offset="1"/></linearGradient><path d="M94.5 52.9l-8-10.6a4 4 0 0 0-3.6-1.8l-15.7 1 .5 7.7 13.6-.9 7 9.3 6.2-4.8z" fill="url(#b)"/><path d="M77 104.6h-.2c-.5 0-1 0-1.5-.2h-.1a6.3 6.3 0 0 1-4.4-4l-.1-.3-9.6-26 15.4-4.6 4.9 23.6c0 .2.2.3.3.4l23.6 7-1.7 6.6-26.5-2.5z" fill="#444"/><path d="M76.1 70.1L81 93.2c0 .4.3.7.7.8l23.2 6.8-1.5 5.7L77 104v-.2c-.2 0-.2.2-.3.2H75.3l-1.3-.5a5.8 5.8 0 0 1-2.8-3.2l-.2-.3-9.3-25.4L76 70m1-1l-16.5 4.9 9.8 26.7a6.8 6.8 0 0 0 4.8 4.4h.2l1.5.2h.3l27 2.5 2-7.5-24.1-7L77 69z" fill="#2D2E30"/><linearGradient id="c" x1="24.4" x2="24.4" y1="86.4" y2="113.8" gradientTransform="rotate(-17.1 -209.9 -25.5)" gradientUnits="userSpaceOnUse"><stop stop-color="#FFCA28" offset=".5"/><stop stop-color="#FFB300" offset=".8"/><stop stop-color="#E59600" offset="1"/></linearGradient><path d="M61 8.6c-3.7-4-10.4-4.6-15.6-3-5.9 1.8-8.5 6.6-8.6 12.2 0 2 .3 4 .9 5.3l.6 1.7c.4 1.5-2.2 3.3-2.3 5-.1 1.3 2.6 1.7 2.8 1.9 1.2 1 .3 6.4 7.4 6 2.4-.3 4.7-.8 5.7.9l4 4.7 5.5-.3s-3.8-10 1.4-17.2C66.3 21 64 12 60.9 8.6z" fill="url(#c)"/><linearGradient id="d" x1="35.9" x2="65.7" y1="29.7" y2="20.5" gradientUnits="userSpaceOnUse"><stop stop-color="#EDA600" offset="0"/><stop stop-color="#D18900" offset=".9"/></linearGradient><path d="M51 5.8a12 12 0 0 1 9.2 3.5C63 12.5 65 21 62 25.3c-4.4 6-2.8 13.7-2 16.8l-3.6.1-3.7-4.2c-.9-1.4-2.4-1.6-3.5-1.6a20.9 20.9 0 0 0-3 .2h-.9c-3.7 0-4.3-2-4.9-3.7-.2-.8-.4-1.5-1-2l-.8-.4c-1.1-.3-1.5-.5-1.6-.7 0-.5.6-1.2 1-1.8.8-1 1.6-2.2 1.3-3.4l-.6-1.7-.1-.1a15 15 0 0 1-.8-5c0-3.3 1.2-9.1 7.9-11.2 1.6-.6 3.5-.9 5.3-.9m0-1c-2 0-3.9.3-5.7 1-5.8 1.7-8.4 6.5-8.5 12 0 2.1.3 4 .9 5.4l.6 1.7c.4 1.5-2.2 3.3-2.3 5-.1 1.3 2.6 1.7 2.8 1.9 1 .9.4 6 6.5 6h.9l3-.3c1.2 0 2.1.2 2.7 1.2l4 4.7 5.5-.3s-3.8-10 1.4-17.2C66.3 21 64 12 60.9 8.6A13 13 0 0 0 51 4.7z" fill="url(#d)"/><radialGradient id="e" cx="6.1" cy="20" r="15" gradientTransform="matrix(1.0302 -.1319 .1329 .9914 37.8 -7.5)" gradientUnits="userSpaceOnUse"><stop stop-color="#6D4C41" offset="0"/><stop stop-color="#543930" offset="1"/></radialGradient><path d="M52.7 29.2l1.3-6s3.7.5 3 4.4c-.5 2.8 1.3 5.7 2.6 5.9l.7.1c1-4 5.9-5.6 6-16.2.1-9.1-8.2-13.7-15.9-13.4-7.3.3-15.3 5.7-14 15.7 0 .3 9.7.5 12.1 2.7 2.4 2.2.8 6.7 4.2 6.8z" fill="url(#e)"/><defs><path id="f" d="M59.2 22.4l.4 9.9-.6 1 .6.2.7.2c1-4.1 5.9-5.7 6-16.3.1-9.1-8.2-13.7-15.9-13.4-7.3.4-15.4 6-14 15.7l1.1.2v-1.6l11.2.6 10.5 3.5z"/></defs><clipPath id="g"><use xlink:href="#f"/></clipPath><g clip-path="url(#g)"><path d="M51.3 5c4.2 0 8.2 1.6 10.8 4.2 2.2 2.2 3.3 5 3.2 8.2 0 6.7-2 9.5-3.8 12-.7 1-1.4 2-1.8 3-.7-.3-2.1-2.4-1.7-4.6.3-1.4 0-2.7-.7-3.7a5.2 5.2 0 0 0-3.2-2H54a1 1 0 0 0-1 .9l-1.1 5c-.4-.3-.6-1-.8-2.2-.3-1.3-.7-3-2-4.1-1.7-1.6-6.1-2.3-10.5-2.7l-1.3-.2c-.3-3.3.6-6.4 2.7-8.8 2.4-3 6.3-4.8 10.5-5h.8m0-1h-.8C43 4.3 35 9.8 36.4 19.7c0 .3 9.7.5 12.1 2.7 2.4 2.2.9 6.7 4.2 6.8l1.3-6s3.8.5 3 4.4c-.5 2.8 1.4 5.7 2.6 5.9l.7.1c1-4 6-5.6 6-16.2.1-8.8-7.6-13.4-15-13.4z" fill="#452B22"/></g><path d="M42.2 30.8l-2.6.8.7 1.6c1.2 2.7 3.5 5.3 8.3 4.3a35 35 0 0 0-3.2-5.8l-3.2-1z" fill="none"/><defs><path id="h" d="M61 8.6c-3.7-4-10.4-4.6-15.6-3C38 8 35.5 14 36.9 21.3c0 0 .9 3 1.1 4.2.8 2.5-1.4 2.3-1.7 4.2-.2 1.8 2.3 1.8 2.5 2 1.2 1 .3 6.4 7.4 6 2.5-.3 4.8-.8 5.7.9l1.8 4.7 7.7-.3s-3.8-10 1.4-17.2C66.3 21 64 12 60.9 8.6z"/></defs><clipPath id="i"><use xlink:href="#h"/></clipPath><g clip-path="url(#i)"><path d="M34.9 32.5c1.8 2 5.6 3 7.7.8.8-.8 0-1.4-1-.8-1.5 1-4.5.3-5.7-1-.7-.8-1.8.2-1 1z" fill="#795548"/></g><ellipse transform="rotate(-5.4 42 26.3)" cx="42" cy="26.3" rx="1.3" ry="2" fill="#404040"/><path d="M40.8 23.4c-1.3.4-1.6-.4-1.1-1.1.3-.5 1-1 2.5-.7 1.4.3 2 1.1 2.3 1.6s.4 1 0 1-2.1-1.3-3.7-.8z" fill="#6D4C41"/><defs><path id="j" d="M16.1 57.1s2.2 2 6.3 2.4c3 .4 4.9-.7 4.9-.7l-.5-1s1-.3 1.8-2.2c.6-1.5.4-2.4.4-2.4l.6-1.5s1.3-2.3.2-3.4c-2-2.3-5.8-4.1-9.3-2.3C17 47.8 16 57 16 57z"/></defs><clipPath id="k"><use xlink:href="#j"/></clipPath><g clip-path="url(#k)"><radialGradient id="l" cx="-263.8" cy="-115.7" r="5.1" gradientTransform="matrix(.4163 .9092 -.9177 .4202 28.6 342.3)" gradientUnits="userSpaceOnUse"><stop stop-color="#FFB300" offset=".4"/><stop stop-color="#FFCA28" offset=".9"/></radialGradient><path d="M24.7 59a6 6 0 0 1-2.2-.5l-2.8-1c-.2-1 2.6-7.2 4-8.4.2-.2.5-.2 1-.2a5 5 0 0 1 4 2.3c.7.9 1.2 2.5.4 4.6-.8 2-2.4 3.1-4.4 3.1z" fill="url(#l)"/><path d="M24.7 49.4c1 0 2.7.7 3.6 2 .8 1.3 1 2.7.3 4.2a4.1 4.1 0 0 1-4 2.8c-.6 0-1.3 0-2-.3l-2.4-1a24 24 0 0 1 3.8-7.6l.7-.1m0-1a2 2 0 0 0-1.3.3c-1.2 1-5.3 8.7-4 9.2l3 1.1a5.3 5.3 0 0 0 7.2-3c1.8-4.7-2.4-7.6-5-7.6z" fill="#EDA600"/></g><radialGradient id="m" cx="18.3" cy="48.8" r="9.3" gradientUnits="userSpaceOnUse"><stop stop-color="#FFCA28" offset=".6"/><stop stop-color="#FFB300" offset="1"/></radialGradient><path d="M24.9 48.9l-3-1.3c-.6-.3-1.4 0-1.7.8-.3.7-.1 1.4.7 1.8l3 1.2-3.4-1.4a1.4 1.4 0 0 0-1.5 2.2l-.1.4c-.3.1-.6.4-.7.8-.3.7.1 1.5.8 1.8-.5.1-.9.5-1 1 0 .8.5 1.6 1.2 1.7l2 .3a1.3 1.3 0 1 0 1.3-2.3c.3 0 .6-.4.8-.8.1-.5 0-1-.3-1.3.6 0 1-.4 1.2-.9.2-.5 0-1.1-.4-1.5a1.4 1.4 0 0 0 1-2.5z" clip-path="url(#k)" fill="url(#m)" stroke="#EDA600" stroke-linecap="round" stroke-linejoin="round" stroke-miterlimit="10"/><path clip-path="url(#k)" fill="none" stroke="#EDA600" stroke-linecap="round" stroke-linejoin="round" stroke-miterlimit="10" d="M19.2 52.5l4.2 1.4m-4.3 1.3l3.3.9"/><g clip-path="url(#k)"><linearGradient id="n" x1="-63.1" x2="-57.8" y1="82.5" y2="72.7" gradientTransform="matrix(.8287 -.3016 .2891 .952 52.4 -39.8)" gradientUnits="userSpaceOnUse"><stop stop-color="#FFB300" offset=".1"/><stop stop-color="#FFCA28" offset=".7"/></linearGradient><path d="M21.3 49l1.8-.8 1.1-.3c.8 0 3 .4 4.1 1.9 1 1.2 2 3.9-1 4.4-1.4-.2-1.4-2.7-2-3.2-.3-.4-1-1-2.7-.1-.5.2-1.4.3-1.7-.1-.6-.7-.4-1.5.4-1.8z" fill="url(#n)"/><path d="M20 49.7c.2-.5.5-.9 1-1.1.2 0 1.8-.9 3.3-1 2.6-.3 3.6.6 4.4 1.4.4.4 1.6 3.6.6 3.4-.8 0-.5-3-2.5-3.8a6 6 0 0 0-2.6-.3c-.4 0-.8.2-1 .3l-1.4.5-.5.2c-.3.1-.5.3-.5.5s0 .6.2.8c.2.2 1 .2 1.4 0 .6-.3 1.3-.7 2-.6.5.1 1.2.4 1.4 1 .3.5.2 2 1 2.7l1.3.7s-.9.3-1.4 0c-.8-.4-1.2-1.4-1.4-2.2l-.3-1.1c-.3-.4-.7-.9-2.3-.1-.6.3-1.7.6-2.2 0-.4-.4-.5-.9-.4-1.3z" fill="#EDA600"/></g><path d="M45.3 48.7l8.5-6.8a5 5 0 0 1 7 .8l.8.8a5 5 0 0 1-.8 7.1l-8.4 6.8-7-8.7z" fill="#04A287"/><path d="M57 41.3c1.3 0 2.6.6 3.5 1.7l.7.8c1.6 2 1.2 4.8-.7 6.4l-8 6.5-6.5-7.9 8.1-6.5c.8-.7 1.8-1 2.9-1m0-1c-1.3 0-2.5.4-3.5 1.2l-8.9 7.2 7.7 9.4 8.8-7c2.4-2 2.8-5.5.9-7.9l-.7-.8a5.4 5.4 0 0 0-4.3-2.1z" fill="#008F76"/><path d="M30 114.9l12.1-21.5c2.3-4.1 5.2-7.7 8.8-10.7l10.8-9.3c.2-.2.2-.4.1-.6l-1.4-2.4L75 65.1c1.4 3.2 3.4 8 3.5 8.6 1 5.6-2.2 8.8-5.8 11.4l-.1.1-17.1 10.1-.2.1-20 23-5.3-3.5z" fill="#646464"/><path d="M74.8 65.8l3.3 8c1 5.6-2.4 8.6-5.6 10.9l-.2.1-17 10-.3.3-19.7 22.7-4.6-3 11.8-21.2A39 39 0 0 1 51.2 83L62 73.8c.4-.3.5-.9.2-1.3l-1-1.8 13.7-5m.5-1.2l-15.8 5.7 1.8 2.8-10.9 9.3A40 40 0 0 0 41.7 93l-12.3 22 6.1 4 20.3-23.4 17.3-10.2c3.2-2.3 7-5.7 6-11.9a170 170 0 0 0-3.7-9z" fill="#4F4F4F"/><path d="M107 117.6l-1.4-.4a3.9 3.9 0 0 1-3-3.2l-.7-7.1 1.6-7.2c.6-.2 2.2-1 3.6-1l.7.1 3 .7c.4 0 .7.5.6.9l-3.8 16.7c0 .3-.3.5-.5.5z" fill="#325599"/><path d="M107 99.2h.7l3 .8h.2v.3L107 117l-1.4-.2a3.4 3.4 0 0 1-2.6-2.8l-.7-7 1.6-7c.7-.3 2-.8 3-.8m0-1c-1.8 0-4 1.2-4 1.2l-1.6 7.5.7 7.2a4.4 4.4 0 0 0 3.3 3.6l1.4.3h.2c.5 0 1-.3 1.1-.8l3.8-16.7c.1-.7-.3-1.3-1-1.5l-3-.7h-.8z" fill="#224487"/><radialGradient id="o" cx="63.9" cy="55.5" r="15.8" gradientUnits="userSpaceOnUse"><stop stop-color="#00BFA5" offset=".4"/><stop stop-color="#00B29A" offset=".8"/><stop stop-color="#00AB94" offset="1"/></radialGradient><path d="M60.5 74.5c-1.8 0-3.3-1.3-3.9-3.1L52.5 50c-.7-3.9-1.2-6.5 2.4-10.6l4.1-2.3a3.8 3.8 0 0 1 4.7.7 16 16 0 0 1 3.2 4.8l8.7 23.1a5 5 0 0 1-.2 3.2c-.5 1-1.2 1.6-2.2 1.9l-11.8 3.5-1 .2z" fill="url(#o)"/><path d="M60.9 37c.9 0 1.8.5 2.5 1.2 1.4 1.5 2.5 3.1 3 4.6l8.7 23c.6 2-.3 4-2 4.5l-11.8 3.5a3 3 0 0 1-.9.2c-1.4 0-2.8-1.1-3.3-2.7L53 49.9c-.7-3.9-1.2-6.2 2.2-10.1l4-2.3c.5-.3 1.1-.4 1.7-.4m0-1c-.8 0-1.5.2-2.1.6L54.6 39c-3.8 4.4-3.3 7.2-2.6 11l4.1 21.5c.7 2.1 2.5 3.5 4.3 3.5.4 0 .8 0 1.2-.2l11.8-3.5c2.2-.7 3.4-3.3 2.7-5.8l-8.7-23c-.8-2-2-3.7-3.3-5-.9-1-2-1.4-3.2-1.4z" fill="#009984"/><radialGradient id="p" cx="-176.9" cy="-808.6" r="8.7" gradientTransform="matrix(-.2849 .1533 .0581 -.5295 82.3 -341)" gradientUnits="userSpaceOnUse"><stop stop-color="#FFC107" offset="0"/><stop stop-color="#FFA000" offset="1"/></radialGradient><path d="M89 55.5c-.7-.2-1.4.2-1.6.8l-1.3 4.5c-.2.7.1 1.4.8 1.6.6.2 1.3-.2 1.6-.8l1.3-4.5c.2-.7-.1-1.4-.8-1.6z" fill="url(#p)"/><radialGradient id="q" cx="-1155.3" cy="-371.1" r="10.7" gradientTransform="matrix(-.0417 -.2691 .3515 .0509 168.8 -230.5)" gradientUnits="userSpaceOnUse"><stop stop-color="#FFC107" offset="0"/><stop stop-color="#FFA000" offset="1"/></radialGradient><path d="M90.4 62.8c.3-.7 0-1.4-.6-1.7l-2-1a1.3 1.3 0 1 0-1 2.4l2 .9c.6.3 1.4 0 1.6-.7z" fill="url(#q)"/><radialGradient id="r" cx="246.4" cy="56.9" r="10.4" gradientTransform="matrix(-.7877 .3738 .3863 .814 266.4 -79.6)" gradientUnits="userSpaceOnUse"><stop stop-color="#FFC107" offset=".3"/><stop stop-color="#FFA000" offset="1"/></radialGradient><path d="M89.3 57.9l5.3-3.2 4.2 2.8s1.4 2.3.7 3.1c-.2.3-.8.3-1 .5-.3.3-.1 1-.6 1.4-.2.2-.9.2-1.3.2-.2 0-.5.3-.5.5-.1.6-.2.8-.6 1-.3.3-.8.3-1.2.2-.5 0-1 .2-1.2.6-.1.4-.8.8-1.5.5a9 9 0 0 1-2-2.4l-.3-5.3z" fill="url(#r)"/><linearGradient id="s" x1="242" x2="247" y1="49.2" y2="56.4" gradientTransform="matrix(-.7877 .3738 .3849 .8111 266 -80.6)" gradientUnits="userSpaceOnUse"><stop stop-color="#FFB300" offset="0"/><stop stop-color="#FFCA28" offset="1"/></linearGradient><path d="M87.3 56l6.5-4s6.7 5.7 5 7a5 5 0 0 1-.8.3c-.3 0-.3.2-.4.5-.2.3-.4.8-.7 1s-.8.1-1.1 0c-.3 0-.5.3-.6.5 0 .6-.1 1-.7 1.2-.4.2-1 .4-1.4.3-.4-.2-1.1 0-1.4.5-.1.2-.6.6-1.4.5-1.2-.1-3-7.8-3-7.8z" fill="url(#s)"/><path fill="none" d="M93.6 64.4L92.5 63"/><path d="M82.7 41.5h.4c1 0 2 .5 2.5 1.4l.1.1 7.5 9.8.2.2c1.8 1.6 4.1 4 4.6 5.2.5.9.7 1.5.7 1.8-.3 0-.6.2-.9.4l-.5 1v.3h-.7c-.7 0-1.4.7-1.5 1.4v.3H95l-.3.1H94a2 2 0 0 0-1.8 1H92c-.2 0-.7-.6-1.5-1.7a1 1 0 0 0-1.2-.3h-.2l-2-1H87v-.2s-.1-.1 0-.2l1.3-4.3v-.6l-.1-.2c0-.2 0-.3-.2-.4l-6-7.9a1 1 0 0 0-.8-.4l-12.6.8-.4-5.7 14.4-.9m.2-1l-15.7 1 .5 7.7 13.6-.8 6 7.8v.3L86 60.9l.1.8v.2l.7.6 2 .9h1a7 7 0 0 0 1.8 2c.2.2.3.2.5.2.5 0 .9-.3 1-.6.1-.4.5-.6 1-.6h.1a1.8 1.8 0 0 0 1.3-.1c.4-.2.5-.5.6-1 0-.3.3-.6.5-.6.4 0 1 0 1.3-.2.5-.4.3-1 .6-1.4.2-.1.8-.2 1-.4.6-.7-.2-2.2-.6-2.9-.7-1.8-4-4.7-4.9-5.6l-7.6-9.9a4 4 0 0 0-3.5-1.8z" fill="#EDA600"/><path d="M61.8 51.2a5 5 0 0 1-5-4.7l-.1-1a5 5 0 0 1 4.6-5.5l10.8-.9.9 11.2-10.9.9h-.4z" fill="#04A287"/><path d="M71.6 39.7l.9 10.1-10.4.8h-.4a4.6 4.6 0 0 1-4.5-4.1v-1.1c-.2-1.2.2-2.4 1-3.3s1.9-1.5 3-1.6l10.4-.8m1-1.1l-11.4.9c-3 .2-5.3 3-5 6v1a5.5 5.5 0 0 0 5.5 5.2h.5l11.3-1-1-12.1z" fill="#008F76"/><path d="M34.5 123.5l-.4-.1-14.3-9.5a.6.6 0 0 1-.2-.3v-.5l.8-1.2a3.9 3.9 0 0 1 4-1.6l7 1.9 6.1 4c.1.8.2 3-.6 4.4l-1.7 2.6a1 1 0 0 1-.7.3z" fill="#4568AD"/><path d="M23.7 110.7h.7l6.8 2 5.9 3.8c0 1 0 2.8-.6 3.8l-1.7 2.6-.3.1-14.4-9.5v-.1l.8-1.2c.6-1 1.6-1.5 2.8-1.5m0-1c-1.5 0-2.8.7-3.7 2l-.7 1.1c-.4.5-.2 1.2.3 1.5l14.3 9.5a1.2 1.2 0 0 0 1.7-.4l1.7-2.5c1.2-1.8.7-5 .7-5l-6.4-4.2-7-1.9h-1z" fill="#315499"/></svg>