<svg viewBox="0 0 128 128" xmlns="http://www.w3.org/2000/svg" xmlns:xlink="http://www.w3.org/1999/xlink"><defs><path id="a" d="M4 4h120v120H4z"/></defs><clipPath id="b"><use xlink:href="#a"/></clipPath><linearGradient id="c" x1="151.3" x2="56.9" y1="38.4" y2="123.8" gradientUnits="userSpaceOnUse"><stop stop-color="#0288D1" offset="0"/><stop stop-color="#29B6F6" offset="1"/></linearGradient><path d="M128 128H0v-21.4A269.7 269.7 0 0 0 128 5v123z" clip-path="url(#b)" fill="url(#c)"/><g clip-path="url(#b)"><path d="M127 8.3V127H1v-19.6a271.2 271.2 0 0 0 126-99m1-3.5A269.7 269.7 0 0 1 0 106.7V128h128V5z" fill="#007ABD"/></g><g clip-path="url(#b)"><path d="M112.9 91.3a4.3 4.3 0 0 0-2.8-3.2c-.7-.2-1.4-.4-2.2-.4a3 3 0 0 0-1.3.2c-.2.1-.4.3-.6.2l.4-.8c1-1.3 2.3-2.5 3-4 .9-1.8.7-3.5-.5-4.7a4.4 4.4 0 0 0-3-1.2c-1.2 0-5 1.8-4.3-.7.3-1 .8-2.6-.4-3.4-2.8-2-6.5 1.1-8.4 3-.3.3-.7.7-1 .7-.7 0-.6-.8-.8-1.2-.9-1.3-2.6-1.4-4-1a9.3 9.3 0 0 0-3.5 2.9c-.2.2-.6.4-.9.1-.5-.5-.1-1.5-.6-2.2a2 2 0 0 0-1.7-1c-1.5 0-3.1 1.6-3.9 2.6a103.9 103.9 0 0 1-4.6 5.6l-.5.4a36.8 36.8 0 0 1-2.7 2.2c-1.5 1-2.2 1.7-2.2 2.4v.3l.4.1c1.5.3 3.4 0 4.9-.2l1-.1c1-.3 2.2-.5 3-.3a27 27 0 0 1 7.7 3.1 59 59 0 0 1 3 2c1.2 1 3.2 2.8 3.2 5.5 0 3-1.5 5.5-2.7 7.2-.6.8-1.4 1.4-2.2 2-.7.3-1.6.5-2.2 1.1-.1.2-.2.5-.4.6l-.4.5c-.4.7-.9 1.5-1.6 2l-1.1.3c-.3 0-.5.3-.8.4-.3.2-1.3.7-.8 1.1.4.4 1.1 0 1.6 0a20.7 20.7 0 0 1 8.1.5l1 .2c1.7.3 3.3.6 4.9.1.8-.2 1.7-.6 2.5-1.6.7-1 .6-1.6.3-2.5l-.2-.7-.1-.7c0-.4-.2-1 .1-1.2.9-1 2.2-.5 3.2-.1 1.4.4 2.8.7 4.2.6 1.3-.1 2.5-.7 3.3-1.7.7-1 1-2 .7-3.2a7 7 0 0 0-1.3-2.4c-.6-.8-2.7-1.8-1.1-2.6 1.4-.7 3-1 4.6-1.5 1.7-.7 3.3-1.9 3.6-3.7a4 4 0 0 0 .1-1.6z" fill="#0277BD"/><path d="M104 96.3c1.8-.6 4-.5 5.3-2 .8-.8 1.2-1.6.8-2.7a2.6 2.6 0 0 0-2-2 7 7 0 0 0-5 .9c.2-.9.3-1.7.7-2.4.9-1.5 2.3-2.6 3-4.2.7-1.3.8-2.8-.3-3.8-1.3-1.2-3-1-4.4-.4-1.3.5-3.3.8-3-1.1.2-1 1.2-2.6 0-3.4-1.8-1.2-4.2 1.1-5.4 2.3-.8.8-2.1 2.3-3.4 1.8-.8-.3-.7-1.3-1-1.8a2.4 2.4 0 0 0-3.7-.2c-1 1-2.1 3.3-3.8 2.7-1.2-.3-.7-2-1.2-2.7-1.3-1.8-3.9.3-4.7 1.5a91.8 91.8 0 0 1-4.6 5.2c-.2 0-.3.2-.5.4l-2.3 1.8c-.4.3-2.2 1.4-2.2 2 1.5.2 3 0 4.6-.2 1.3-.2 2.7-.6 4-.4a24 24 0 0 1 7.5 3l3 1.8c1.8 1.2 3.2 3 3.2 5.3a12 12 0 0 1-2.7 6.8c-1.5 2-4.3 2.8-6.4 4.2-1.5.9-3.4 2-4.3 3.3-2.1 3 2.8.5 3.8.3 2.2-.6 4.6-1 6.8-.6 2 .3 3.6.8 5.5.3a4 4 0 0 0 2.2-1.4c.6-.7.5-1 .3-1.9-.3-1.2-1.5-2.7.2-3.2a10 10 0 0 1 2.9-.4c1.2 0 2.3.7 3.5.8 2 .1 4.9-1.2 4.1-3.5-.4-1.1-1-1.8-2-2.3-.6-.3-1.3-.4-1.5-1-.3-1.3 2.1-2.5 3-2.8z" fill="#E3F2FD"/><path d="M81.4 121.2c1.8 1.1 4.2-.7 3.2-2.7v-.1c-.7-1.2-2-1.7-3.2-1.7h-2l-1 .1c-.1 0-.4.2-.4.4 0 .4.4.8.6 1 .8 1.2 1.7 2.2 2.8 3zm2.1-52.9c.7-1.8-1.2-3.5-2.7-2.3h-.2c-.8.8-1 2-.9 3l.4 1.6c0 .3.2.6.3.8 0 .2.2.4.4.3.2 0 .6-.4.7-.6.9-.8 1.6-1.8 2-2.8zm12.1-.2c1.4-1.5.1-4-2-3.4-1.2.4-2 1.5-2.2 2.7l-.2 1.8v1c0 .1 0 .4.2.4l1-.3a10 10 0 0 0 3.2-2.2z" fill="#0277BD"/><path d="M100 89.6c-1.8-2.9-6-4.3-12.7-4.3a98 98 0 0 0-17.1 2 90.7 90.7 0 0 0-37.3 15.5c-4 3.2-8.4 7-8.6 11.2 0 1.3.3 3.3 2.2 5.1 2.7 2.5 7.7 3.6 16 3.6 10.2 0 18.7-2.7 26.5-5.2a99 99 0 0 0 20-9.3 27 27 0 0 0 11.2-11c1.6-3.7.8-6.2-.1-7.6zm-57.5 30.6z" fill="#00796B"/><linearGradient id="d" x1="23.5" x2="100.3" y1="101.8" y2="101.8" gradientUnits="userSpaceOnUse"><stop stop-color="#FFF176" offset="0"/><stop stop-color="#FFEB3B" offset="1"/></linearGradient><path d="M99.2 87.4c-1.9-3-6-4.3-12.7-4.3-6.3 0-13.5 1.2-17.2 2a90.7 90.7 0 0 0-37.2 15.4c-4 3.2-8.5 7-8.6 11.2-.1 1.4.2 3.3 2.2 5.2 2.6 2.4 7.7 3.6 16 3.6 9.2 0 17.8-2.5 26.5-5.3A97 97 0 0 0 88 106a27 27 0 0 0 11.3-11.1c1.5-3.7.8-6.1-.2-7.5z" fill="url(#d)"/><defs><path id="e" d="M99.2 87.4c-1.9-3-6-4.3-12.7-4.3-6.3 0-13.5 1.2-17.2 2a90.7 90.7 0 0 0-37.2 15.4c-4 3.2-8.5 7-8.6 11.2-.1 1.4.2 3.3 2.2 5.2 2.6 2.4 7.7 3.6 16 3.6 9.2 0 17.8-2.5 26.5-5.3A97 97 0 0 0 88 106a27 27 0 0 0 11.3-11.1c1.5-3.7.8-6.1-.2-7.5z"/></defs><clipPath id="f"><use xlink:href="#e"/></clipPath><linearGradient id="g" x1="90.4" x2="40.7" y1="79.2" y2="115.8" gradientUnits="userSpaceOnUse"><stop stop-color="#689F38" offset="0"/><stop stop-color="#8BC34A" offset="1"/></linearGradient><path clip-path="url(#f)" fill="url(#g)" d="M103.4 88.8L27.8 121l-9.1-8 76.8-30.2z"/><path d="M86.5 84c6.3 0 10.2 1.3 12 4 .7 1.1 1.4 3.2 0 6.5a26 26 0 0 1-11 10.5 91 91 0 0 1-19.7 9.1 86 86 0 0 1-26.3 5.3c-8 0-12.8-1-15.2-3.4a5.4 5.4 0 0 1-2-4.3c.2-3.9 4.4-7.4 8.3-10.5a89.9 89.9 0 0 1 37-15.2c3.6-.7 10.7-2 16.9-2m0-1a98 98 0 0 0-17.1 2A90.7 90.7 0 0 0 32 100.5c-4 3.2-8.4 7-8.6 11.2-.1 1.4.2 3.3 2.2 5.2 2.6 2.4 7.7 3.6 16 3.6 9.2 0 17.8-2.5 26.5-5.3A95.6 95.6 0 0 0 88 106a27 27 0 0 0 11.3-11.1c1.5-3.7.8-6.1-.2-7.5-1.8-3-6-4.3-12.7-4.3z" fill="#EDCB23"/></g><g clip-path="url(#b)"><linearGradient id="h" x1="56.6" x2="56.6" y1="89.5" y2="113.8" gradientTransform="rotate(-17.1 -209.9 116.4)" gradientUnits="userSpaceOnUse"><stop stop-color="#FFCA28" offset=".5"/><stop stop-color="#FFB300" offset=".8"/><stop stop-color="#E59600" offset="1"/></linearGradient><path d="M49.4 8.7c-3.2-3.6-9.2-4-13.9-2.6C30.3 7.7 28 12 28 16.9c0 1.8.3 3.6.8 4.8l.5 1.5c.4 1.3-2 3-2 4.5-.1 1 2.3 1.5 2.5 1.6 1 .9.3 5.8 6.6 5.3 2.2-.1 4.2-.6 5 .9l3.6 4.2 4.9-.3s-3.4-9 1.2-15.3c3.2-4.3 1.1-12.3-1.6-15.4z" fill="url(#h)"/><linearGradient id="i" x1="27.1" x2="53.7" y1="27.5" y2="19.4" gradientUnits="userSpaceOnUse"><stop stop-color="#EDA600" offset="0"/><stop stop-color="#D18900" offset="1"/></linearGradient><path d="M40.6 6.3c3.4 0 6.3 1.1 8 3.1 2.6 2.9 4.4 10.3 1.6 14.1-3.8 5.3-2.5 12.2-1.7 15l-3.1.1-3.2-3.7c-.8-1.3-2.2-1.5-3.2-1.5l-1.8.1a181.9 181.9 0 0 1-1.7.2c-3.3 0-3.8-1.8-4.3-3.4-.2-.7-.4-1.3-.9-1.7a2 2 0 0 0-.8-.4c-.7-.2-1.2-.4-1.3-.6 0-.4.5-1 .9-1.5.6-1 1.4-2 1.1-3.1a5 5 0 0 0-.6-1.5v-.2a11 11 0 0 1-.7-4.3c0-3 1-8.1 7-10a16 16 0 0 1 4.7-.7m0-1c-1.8 0-3.5.3-5 .8-5.3 1.6-7.6 5.9-7.7 10.8 0 1.8.3 3.6.8 4.8l.5 1.5c.4 1.3-2 3-2 4.5-.1 1 2.3 1.5 2.5 1.6 1 .8.3 5.4 5.8 5.4h.8l2.7-.3c1 0 1.9.3 2.3 1l3.6 4.3 4.9-.3s-3.4-9 1.2-15.3c3.2-4.3 1.1-12.3-1.6-15.3a11.6 11.6 0 0 0-8.8-3.5z" fill="url(#i)"/><radialGradient id="j" cx="14.8" cy="19.7" r="13.4" gradientTransform="matrix(1.0302 -.1319 .1329 .9914 19 -6.3)" gradientUnits="userSpaceOnUse"><stop stop-color="#6D4C41" offset="0"/><stop stop-color="#543930" offset="1"/></radialGradient><path d="M42 27.1l1.2-5.4s3.4.6 2.7 4c-.4 2.5 1.2 5 2.3 5.2l.7.2c.9-3.7 5.2-5 5.3-14.5.1-8.1-7.3-12.2-14.1-12-6.6.4-13.7 5.2-12.5 14 0 .3 8.6.5 10.7 2.5 2.1 2 .8 6 3.7 6z" fill="url(#j)"/><defs><path id="k" d="M47.9 21l.3 8.9-.5.8.5.2.7.2c.9-3.7 5.2-5 5.3-14.5.1-8.1-7.3-12.2-14.1-12-6.6.4-13.8 5.5-12.6 14l1 .2v-1.4l10 .5 9.4 3.2z"/></defs><clipPath id="l"><use xlink:href="#k"/></clipPath><g clip-path="url(#l)"><path d="M40.8 5.7c3.7 0 7.3 1.3 9.6 3.6 2 2 2.9 4.4 2.8 7.3 0 6-1.8 8.4-3.4 10.6-.6.9-1.2 1.7-1.6 2.7a4.6 4.6 0 0 1-1.3-4c.3-1.3 0-2.5-.6-3.4a4.7 4.7 0 0 0-3-1.8 1 1 0 0 0-1 .8l-1 4.3c-.2-.3-.4-.8-.6-1.8a6.3 6.3 0 0 0-1.7-3.6c-1.6-1.5-5.6-2-9.5-2.5l-1-.1c-.3-3 .5-5.6 2.3-7.8A13 13 0 0 1 40 5.7h.7m0-1H40c-6.6.3-13.7 5.2-12.6 14 0 .2 8.7.4 10.8 2.4 2.1 2 .8 6 3.7 6l1.2-5.4s3.4.5 2.7 4c-.4 2.4 1.2 5 2.3 5.2l.6.2c1-3.7 5.3-5 5.4-14.5.1-7.9-6.8-12-13.4-12z" fill="#452B22"/></g><path d="M31.5 22c-1.2.3-1.4-.5-1-1 .2-.5.9-.9 2.2-.6 1.3.2 1.8 1 2.1 1.4s.3.8 0 .8c-.4.1-2-1-3.3-.7z" fill="#6D4C41"/><path d="M32.8 57.8s-12-.5-12.8 0c-.8.6-.3 1.5.3 1.8s2 .4 2 .4c-.6.4-.7 1.1-.2 1.3 2.4 1 10.8-2 10.8-2v-1.5z" fill="#E59600" stroke="#D18100" stroke-linecap="round" stroke-linejoin="round" stroke-miterlimit="10"/><linearGradient id="m" x1="122.4" x2="101.5" y1="48.3" y2="62.2" gradientTransform="rotate(27.6 83.9 -104.4)" gradientUnits="userSpaceOnUse"><stop stop-color="#FFB300" offset="0"/><stop stop-color="#FFCA28" offset="1"/></linearGradient><path fill="url(#m)" d="M38.1 55l6.8 2.3 4.9-14-7-2.4z"/><linearGradient id="n" x1="175.7" x2="154.7" y1="20.1" y2="33.9" gradientTransform="rotate(51 71.6 -96.2)" gradientUnits="userSpaceOnUse"><stop stop-color="#FFB300" offset="0"/><stop stop-color="#FFCA28" offset="1"/></linearGradient><circle cx="41.4" cy="56.2" r="3.7" fill="url(#n)"/><linearGradient id="o" x1="180" x2="160.8" y1="15.4" y2="28.1" gradientTransform="matrix(.7179 .7527 -.9801 .6854 -67.9 -85.8)" gradientUnits="userSpaceOnUse"><stop stop-color="#FFB300" offset="0"/><stop stop-color="#FFCA28" offset="1"/></linearGradient><path d="M29.3 62.5l13-2.7-2.2-7L28 56.5c-2.1.6-.8 6.5 1.3 5.9z" fill="url(#o)"/><path d="M43.5 42.2l5 1.7-4.5 13v.1c-.3 1-1 1.6-2 1.8l-13 2.8-.3.1v-.4l-.3-1.6-.6-1.5-.1-.3h.4L39 54c.3-.1.5-.4.6-.7l3.8-11.2m-.7-1.3l-4 12.2-11 3.6c-2 .6-1 1.2-.4 3.1.4 1.7 0 2.8 1.1 2.8l.8-.1 13-2.7a3.7 3.7 0 0 0 2.6-2.5l4.9-14-7-2.4z" fill="#EDA600"/><defs><path id="p" d="M29.9 56.4l1.5-.5s-1.3-.6-2.1-.5c-.5 0-.9 0-1.4.2-1 .1-2 .3-3.8.2a44 44 0 0 1-6-.9c-.7 0-1.2.4-1.4.9-.2.4-.2 1 0 1.3.9 1.3 4.4 2 6.6 2.3a97 97 0 0 1 2.8.6v.3a6 6 0 0 1-1.8 1c-.9.2-1.3.6-1.4 1.2 0 .7.6 1.2 1 1.5.3.2.7.3 1.3.3 2 0 5-1.2 6.2-2 .4-.2 1.1-1.2 1.1-1.2l-1.4.2-1.2-5z"/></defs><clipPath id="q"><use xlink:href="#p"/></clipPath><linearGradient id="r" x1="94.9" x2="74.8" y1="37" y2="50.3" gradientTransform="rotate(20.4 23.8 -87.2)" gradientUnits="userSpaceOnUse"><stop stop-color="#FFB300" offset="0"/><stop stop-color="#FFCA28" offset="1"/></linearGradient><path d="M32.4 58c-.9-1.5-1.6-1.6-2.8-1.5-1.3 0-2.6.2-5.3 0s-5.7-.8-5.7-.8c-.8 0-1.2.9-.8 1.4.6 1 3.5 1.7 5.9 2l2.5.4c.6 0 .8.8.4 1.2a6 6 0 0 1-1.9 1c-1.8.7-.6 1.6-.2 1.9 1 .7 4.5-.4 5.8-1.4 1.3-.8 2.8-3 2-4.3z" clip-path="url(#q)" fill="url(#r)" stroke="#EDA600" stroke-linecap="round" stroke-linejoin="round" stroke-miterlimit="10"/><path d="M48.5 52.1l-9.8-3-.1-.2 2.9-9.2a5.2 5.2 0 0 1 6.6-3.4c2.7.8 4.3 3.8 3.4 6.6L48.7 52h-.1z" fill="#04A287"/><path d="M46.5 36.5c.5 0 1 0 1.4.2 2.5.8 4 3.5 3.2 6l-2.8 8.8-9.1-2.8 2.7-8.8a5 5 0 0 1 4.6-3.4m0-1a5.8 5.8 0 0 0-5.5 4l-3 9.4c-.1.3 0 .6.4.7l9.9 3.1h.1c.3 0 .5-.1.6-.4l3-9.3a5.8 5.8 0 0 0-5.5-7.5z" fill="#008F76"/><radialGradient id="s" cx="62.2" cy="100.3" r="23" gradientUnits="userSpaceOnUse"><stop stop-color="#D84315" stop-opacity=".5" offset=".4"/><stop stop-color="#F4511E" stop-opacity="0" offset="1"/></radialGradient><path d="M85 92.2c-1.1-1.9-3.9-2.8-8.2-2.8-4 0-8.7.8-11 1.3a58.9 58.9 0 0 0-24.2 10c-2.7 2-5.5 4.5-5.6 7.3 0 .8.2 2.1 1.4 3.3 1.7 1.6 5 2.4 10.3 2.4a56 56 0 0 0 17.2-3.5 61 61 0 0 0 13-6c2.5-1.5 5.8-4 7.2-7.1 1-2.4.6-4 0-4.9z" fill="url(#s)" opacity=".5"/><path d="M67.2 94.7c-.9 0-1.5-.6-1.6-1.4a3 3 0 0 1 1.6-3l.2-.4c0-.2 0-.3-.2-.4L58 83.2h-.1a4 4 0 0 1-1.6-5l6.8-21 9.1 3.4-7 17.6c-.2.2-.1.4 0 .5l12.3 10.5.2.1.1.1c.3.6.7 2.1.8 2.6 0 1.1-.8 2.2-2 2.3l-9.3.4z" fill="#E59600"/><path d="M63.3 58l8.2 2.9-7 17c0 .5 0 1 .3 1.2l12.3 10.5.2.1c.3.5.6 1.7.7 2.3 0 1-.7 1.7-1.6 1.8l-9.2.4a1 1 0 0 1-1-1c-.2-1.3.6-2 1.2-2.4.3-.2.5-.5.5-.9a1 1 0 0 0-.4-.8l-9.3-6.3H58c-1.4-1-2-2.7-1.4-4.3v-.1l6.6-20.5m-.6-1.3l-7 21.6c-.7 2 .1 4.2 1.8 5.4h.1L67 90c-1.2.7-2 1.8-1.9 3.4.1 1 1 2 2 2h.2l9.2-.5A2.7 2.7 0 0 0 79 92s-.4-1.9-.8-2.7V89l-.4-.5v.2L65.5 78.3l7.3-18-10.1-3.7z" fill="#D18100"/><circle cx="67.7" cy="58.5" r="5.4" fill="#FBC11B"/><path d="M57 72l4-15.3a6 6 0 0 1 7.5-3.5 6 6 0 0 1 3.6 7.5l-5.5 14.8-9.5-3.4z" fill="#E65100"/><path d="M66.5 53.3c.7 0 1.3.1 1.9.3 2.8 1 4.2 4.2 3.2 7l-5.3 14.3-8.7-3.1 3.8-15a5.4 5.4 0 0 1 5.1-3.5m0-1c-2.6 0-5 1.6-6 4.2l-4 15.9 10.4 3.8 5.7-15.3a6.4 6.4 0 0 0-6-8.6z" fill="#CC4800"/><linearGradient id="t" x1="48" x2="48" y1="68" y2="111.5" gradientUnits="userSpaceOnUse"><stop stop-color="#FFB300" offset="0"/><stop stop-color="#FFCA28" offset="1"/></linearGradient><path d="M53.4 113.3H41.9a2.6 2.6 0 0 1-2.6-2.5c0-3 2.3-4.8 5.4-4.9h12v4c0 1.8-1.5 3.4-3.3 3.4z" fill="url(#t)"/><linearGradient id="u" x1="43" x2="71.1" y1="68.6" y2="68.6" gradientUnits="userSpaceOnUse"><stop stop-color="#FFB300" offset="0"/><stop stop-color="#FFCA28" offset="1"/></linearGradient><path fill="url(#u)" d="M51.6 83.3L43 75.7l18-21.9 10.1 9z"/><linearGradient id="v" x1="49.2" x2="49.2" y1="73.4" y2="111" gradientUnits="userSpaceOnUse"><stop stop-color="#FFB300" offset="0"/><stop stop-color="#FFCA28" offset="1"/></linearGradient><path fill="url(#v)" d="M56.6 106l-8.8 1.5-6-24 9.7-.5z"/><linearGradient id="w" x1="47.2" x2="47.2" y1="67.5" y2="114.3" gradientUnits="userSpaceOnUse"><stop stop-color="#FFB300" offset="0"/><stop stop-color="#FFCA28" offset="1"/></linearGradient><path d="M52.4 82.2c-2.1 3.7-7.9 5.4-10.4 2-1.2-1.8-.8-5.6.3-7.4a5.7 5.7 0 0 1 10 5.4z" fill="url(#w)"/><ellipse cx="66.1" cy="58.3" rx="6.7" ry="6.7" fill="#FBC11B"/><path d="M61.2 55.3l8.5 7.6-18.6 19.8a1 1 0 0 0-.2.9l5.4 26.3c0 .6-.2 1.2-.6 1.6-.5.5-1 .7-1.7.7H41.8c-.8 0-1.5-.6-1.5-1.4 0-2.8 2.3-3.8 4.3-3.9h2.8a1 1 0 0 0 1-1.2l-5.9-21.5c-.9-3.2-1.2-5 1.9-8.7l16.8-20.2m-.1-1.5l-17.5 21c-3.4 4-3 6.3-2 9.6l5.8 21.5h-2.7c-3 0-5.4 1.8-5.4 4.9 0 1.4 1.2 2.5 2.6 2.5H54c1.9 0 3.4-1.6 3.4-3.5l-5.5-26.4L71 62.8l-10-9z" fill="#EDA602"/><linearGradient id="x" x1="72.2" x2="46.9" y1="63.7" y2="66.5" gradientUnits="userSpaceOnUse"><stop stop-color="#FF6F00" offset="0"/><stop stop-color="#FFA000" offset="1"/></linearGradient><path d="M47.5 70.3l12-16a7.5 7.5 0 0 1 11.3 10l-14 14-9.3-8z" fill="url(#x)"/><path d="M65.2 52.2a7 7 0 0 1 5.3 11.7L56.7 77.6l-8.5-7.4 11.7-15.6a7 7 0 0 1 5.3-2.4m0-1a8 8 0 0 0-6 2.7L46.8 70.3l10 8.6 14.4-14.4a8 8 0 0 0-6-13.3z" fill="#E66400"/><radialGradient id="y" cx="62.7" cy="53.5" r="15" gradientTransform="matrix(.9709 -.0402 -.0402 .9445 -1.6 -2.2)" gradientUnits="userSpaceOnUse"><stop stop-color="#00BFA5" offset=".4"/><stop stop-color="#00B29A" offset=".8"/><stop stop-color="#00AB94" offset="1"/></radialGradient><path d="M44 42c-1.5-3.9-1.4-6.4.4-7.8l3-2a7.5 7.5 0 0 1 7.7 2.2l16.1 20.2-16.7 5.5-10.4-18.2z" fill="url(#y)"/><path d="M49.5 32.4c1.1 0 3.3.3 5.3 2.3l15.6 19.7-15.6 5-10.3-17.7c-1.4-3.6-1.3-5.9.2-7l2.8-2c.4-.1 1-.3 2-.3m0-1c-1 0-2 .2-2.5.5l-2.9 2c-2.3 1.6-1.9 4.8-.5 8.3l10.7 18.5L72 54.9 55.5 34c-2-2-4.2-2.6-6-2.6z" fill="#009984"/><linearGradient id="z" x1="-78" x2="-60.1" y1="-74.7" y2="-62.6" gradientTransform="rotate(-79.7 60.3 -100.2)" gradientUnits="userSpaceOnUse"><stop stop-color="#FFB300" offset="0"/><stop stop-color="#FFCA28" offset="1"/></linearGradient><path fill="url(#z)" d="M71 41.4V34l-14.9-.3L56 41z"/><linearGradient id="A" x1="-82.1" x2="-64.3" y1="-78.6" y2="-66.4" gradientTransform="rotate(-83 60.6 -103.7)" gradientUnits="userSpaceOnUse"><stop stop-color="#FFB300" offset="0"/><stop stop-color="#FFCA28" offset="1"/></linearGradient><circle cx="70.9" cy="37.8" r="3.8" fill="url(#A)"/><linearGradient id="B" x1="-82.1" x2="-64.3" y1="-81.4" y2="-69.2" gradientTransform="matrix(.0769 -1.0196 1.0976 .185 169 -23.2)" gradientUnits="userSpaceOnUse"><stop stop-color="#FFB300" offset="0"/><stop stop-color="#FFCA28" offset="1"/></linearGradient><path d="M83.6 45.2c1-1.7 0-3.4-1.8-4.4l-8.7-6-3.8 6.3 9.6 5c1.7 1 3.6.9 4.7-.9z" fill="url(#B)"/><path d="M57 34.7l13.1.3c.8 0 1.5.1 2 .3l.4.2.9.7 7.9 5.4c.7.5 2.3 1.6 1.4 3.1-.4.7-1 1-1.7 1-.5 0-1-.1-1.6-.4l-9-4.8h-.2l-.2-.1h-.3L57 40v-5.4m-.9-1L56 41l13.7.2h.2l9 4.8c.7.4 1.4.7 2.1.7 1 0 2-.5 2.6-1.6 1-1.7 0-3.4-1.8-4.4l-8.7-6-.6-.4c-.7-.3-1.6-.4-2.4-.4l-14-.3z" fill="#EDA602"/><defs><path id="C" d="M94.3 47.7c.2-.4.1-.7 0-1-.2-.3-.5-.5-1-.7.3-.3.5-.6.6-1 0-.3 0-.5-.2-.7-.4-.5-1.1-.5-2.2-.6l-2.6-.4c-1.2-.3-2.2-.8-3-1.2l-1-.5h-.1c-.8-.4-2.3-.4-2.3-.4l.6 1-3.4 4.1-1-.4s.3 1.6.9 2.2l.7 1c.4 1 .6 1.8.7 2.4.2.8.3 1.2.6 1.4l.7.4h.6c.9-.5 1.1-2 1.2-2.4v-1.7c.3.2.8.5 1.2 1l.3.2c1 1 1.7 1.8 2.6 2.4.5.3 1 .6 1.5.4.4-.1.7-.5.9-1 .1-.4 0-1-.4-1.5 1.1.4 2.2.6 2.7 0 .4-.4.4-.8.4-1.1-.1-.3-.3-.6-.6-.8.7-.2 1.4-.5 1.6-1z"/></defs><clipPath id="D"><use xlink:href="#C"/></clipPath><g clip-path="url(#D)" stroke="#EDA600" stroke-linecap="round" stroke-linejoin="round" stroke-miterlimit="10"><linearGradient id="E" x1="70.8" x2="88.6" y1="42.1" y2="54.3" gradientTransform="rotate(-4.4 108.2 -86.5)" gradientUnits="userSpaceOnUse"><stop stop-color="#FFB300" offset="0"/><stop stop-color="#FFCA28" offset=".4"/></linearGradient><path d="M91.4 46c.4.3 1.8-.1 2-1s-2.2-.6-4.6-1.2c-2-.5-3.3-1.4-4.2-1.8a4 4 0 0 0-4.1.7l-.2.2a3.7 3.7 0 0 0-.4 5l.9 1.1c.7 2 .8 3.3 1.1 3.6 1 .9 1.6-.9 1.7-1.7l-.2-2.3c.4 0 1.5.4 2.3 1.2 1 1.1 1.8 2 2.8 2.6.7.5 1.2.6 1.6-.3.3-.9-1.8-2.7-1.9-2.9 0 0 3.5 2.1 4.3 1.2 1-1.1-1.4-2-1.4-2 .7.2 2.5-.2 2.7-.9.4-.8-.5-1.1-2.4-1.5z" fill="url(#E)"/><path fill="none" d="M91.2 48.4l-2.9-1.1m3.4-1.3l-2.1-.5"/></g><path d="M53 42.8A5.3 5.3 0 0 1 53 32h9.6c.1 0 .2 0 .2.2v10.3l-.2.1H53z" fill="#04A287"/><path d="M62.3 32.6v9.6h-9.4a4.8 4.8 0 0 1 0-9.6h9.4m.3-1H53a5.8 5.8 0 0 0 0 11.6h9.7c.4 0 .6-.2.6-.6V32.3c0-.4-.2-.7-.6-.7z" fill="#008F76"/><ellipse transform="rotate(-5.4 32.3 24.7)" cx="32.4" cy="24.7" rx="1.2" ry="1.8" fill="#404040"/><defs><path id="F" d="M49.4 8.7c-3.2-3.6-9.2-4-13.9-2.6C30.3 7.7 28 12 28 16.9c0 1.8.3 3.6.8 4.8l.5 1.5c.4 1.3-2 3-2 4.5-.1 1 2.3 1.5 2.5 1.6 1 .9.3 5.8 6.6 5.3 2.2-.1 4.2-.6 5 .9l3.6 4.2 4.9-.3s-3.4-9 1.2-15.3c3.2-4.3 1.1-12.3-1.6-15.4z"/></defs><clipPath id="G"><use xlink:href="#F"/></clipPath><g clip-path="url(#G)"><path d="M26.2 30c1.7 1.8 5 2.6 6.9.8.7-.7 0-1.3-.8-.8-1.4.9-4.1.3-5.2-.8-.7-.7-1.6.2-1 .9z" fill="#795548"/></g></g></svg>