<svg viewBox="0 0 128 128" xmlns="http://www.w3.org/2000/svg"><linearGradient id="a" x1="93.1" x2="93.1" y1="51" y2="66.8" gradientUnits="userSpaceOnUse"><stop stop-color="#8D6E63" offset="0"/><stop stop-color="#5D4037" offset="1"/></linearGradient><path d="M94.6 66.8h-3A2.8 2.8 0 0 1 89 64V48c0-1.5 1.2-2.7 2.8-2.7h2.9c1.5 0 2.8 1.2 2.8 2.8V64c0 1.6-1.3 2.8-2.8 2.8z" fill="url(#a)"/><path d="M94.4 48.2v15.6h-2.5V48.2h2.5m.2-3h-3a2.8 2.8 0 0 0-2.7 2.9V64c0 1.6 1.2 2.8 2.8 2.8h2.9c1.5 0 2.8-1.2 2.8-2.8V48c0-1.5-1.3-2.7-2.8-2.7z" fill="#424242" opacity=".2"/><linearGradient id="b" x1="64.1" x2="64.1" y1="51" y2="72.8" gradientTransform="matrix(-1 0 0 1 128 0)" gradientUnits="userSpaceOnUse"><stop stop-color="#43A047" offset="0"/><stop stop-color="#3F9943" offset=".3"/><stop stop-color="#328436" offset=".9"/><stop stop-color="#2E7D32" offset="1"/></linearGradient><path d="M4 54.6c0-2 2-3.2 3.7-2.3 4 2 7.4 5.2 9.6 9.1.6.7 1 1.6 1.4 2.6v.2c.2.5.8.7 1.3.6a4 4 0 0 1 1-.1 5 5 0 0 1 3.6 1.7 2 2 0 0 0 2.7.1 12.5 12.5 0 0 1 13.7-1c1 .5 2 .2 2.6-.6a19 19 0 0 1 28-3.2c.4.3 1 .3 1.4 0 .9-.8 2-1.3 3-1.3 1.1 0 2.2.5 3 1.2.4.3.9.3 1.3 0a13.8 13.8 0 0 1 17.5 2c.4.5 1 .4 1.4 0 1-.9 2-1.4 3.3-1.4a5 5 0 0 1 3.6 1.7c.4.4 1 .5 1.5 0 3.5-3.8 8.6-6.2 14.1-6.2 1.2 0 2.2 1 2.2 2.3v34H4V54.6z" fill="url(#b)"/><path d="M7 55.3a19 19 0 0 1 7.7 7.6l.1.3.2.2c.4.4.7 1 .9 1.5v.2a4 4 0 0 0 4.8 2.6h.3c.5 0 1 .4 1.3.8A5 5 0 0 0 26 70a6 6 0 0 0 3.1-1 9.5 9.5 0 0 1 10.5-.9c.7.4 1.5.6 2.3.6a5 5 0 0 0 4-2 16.1 16.1 0 0 1 23.8-2.8 4 4 0 0 0 5.3 0c.3-.3.7-.4 1-.4.4 0 .8.1 1.1.4a4 4 0 0 0 4.8.3 10.9 10.9 0 0 1 13.7 1.6 4 4 0 0 0 5.6 0c.4-.3.8-.6 1.3-.6.6 0 1 .4 1.4.8a4 4 0 0 0 3 1.3 4 4 0 0 0 2.9-1.3c3-3.2 6.8-5 11-5.2V91H7V55.3M6.6 52A2.6 2.6 0 0 0 4 54.6V94h119.9V60c0-1.2-1-2.2-2.2-2.2a19 19 0 0 0-14.1 6.2 1 1 0 0 1-.7.3 1 1 0 0 1-.8-.3 5 5 0 0 0-3.6-1.8c-1.2 0-2.4.5-3.3 1.5a1 1 0 0 1-.8.3 1 1 0 0 1-.7-.3 14 14 0 0 0-17.5-2 1 1 0 0 1-.5.2 1 1 0 0 1-.7-.3c-.8-.7-1.9-1.1-3-1.1s-2.1.4-3 1.2l-.7.2a1 1 0 0 1-.7-.2 19 19 0 0 0-28 3.2 2 2 0 0 1-1.7.8c-.3 0-.6 0-.9-.2a12.4 12.4 0 0 0-13.7 1c-.4.4-.9.5-1.4.5a2 2 0 0 1-1.4-.6 5 5 0 0 0-3.5-1.7 4 4 0 0 0-1 .1h-.3a1 1 0 0 1-1-.6V64c-.4-1-.9-1.9-1.4-2.5-2.2-4-5.6-7.2-9.6-9.2a2 2 0 0 0-1.1-.3z" fill="#424242" opacity=".2"/><path d="M77.7 69c-3 .9-4.5 3.5-4.1 6.6.3 2.1-3 2.2-3.3 0a9 9 0 0 1 .3-4c-4.7 0-8.8 2.6-10.8 6.9-1 2-4 .4-3-1.6a15 15 0 0 1 14.4-8.6c.4 0 .8.2 1 .4a9.6 9.6 0 0 1 4.6-3c2-.6 3 2.6 1 3.2z" fill="#424242" opacity=".2"/><radialGradient id="c" cx="63.8" cy="76.7" r="68.3" gradientTransform="scale(.999 1)" gradientUnits="userSpaceOnUse"><stop stop-color="#9CCC65" offset="0"/><stop stop-color="#88BB54" offset=".4"/><stop stop-color="#689F38" offset="1"/></radialGradient><path fill="url(#c)" d="M4 72h119.9v52H4z"/><path d="M120.9 75v46H7V75h113.9m3-3H4v52h119.9V72z" fill="#424242" opacity=".2"/><radialGradient id="d" cx="92.7" cy="5" r="49.3" gradientTransform="scale(.999 1)" gradientUnits="userSpaceOnUse"><stop stop-color="#388E3C" offset="0"/><stop stop-color="#388E3C" offset=".5"/><stop stop-color="#2E7E32" offset=".7"/><stop stop-color="#1B5E20" offset="1"/></radialGradient><path d="M120 50.3a76 76 0 0 1-8.6-7.5l3.2-.6c1.6-.4 2.1-2 .9-3a64.7 64.7 0 0 1-9.1-7.9l2.1-.4c1.6-.4 2.1-2 .8-3a51.7 51.7 0 0 1-9.4-8.7l3.7-.6c1.8-.4 2.4-2.1 1-3a43 43 0 0 1-10.1-11c-.7-.9-2-.8-2.6.1a40 40 0 0 1-10.4 10.9c-1.4.8-.8 2.5 1 3l3.9.5c-2.6 3-5.7 6.1-9.4 8.7-1.3.8-.8 2.4.8 2.8l2.3.5A60.4 60.4 0 0 1 71 39c-1.3.8-.8 2.4.8 2.8l3.4.7a71.3 71.3 0 0 1-8.7 7.4c-1.2.8-.7 2.4.9 2.8 17 4 34.7 4 51.8.4 1.6-.3 2.1-2 .9-2.8z" fill="url(#d)"/><path d="M93.2 8c1.8 2.6 4.2 5.4 7.2 8l-.9.2h-.4a2.7 2.7 0 0 0-1.8 4.5l.3.4a57 57 0 0 0 7.4 7.4l-1.6.3a1.7 1.7 0 0 0-.9 2.8l1.7 1.8c2.2 2.3 4.5 4.3 6.8 6.2l-.1.2-2.3.4c-1.4.3-2 2-1 3l1.7 1.7c2 2.1 4.3 4 6.4 5.8a115.6 115.6 0 0 1-45-.3c2.2-1.7 4.4-3.7 6.5-5.8l1.4-1.3a2 2 0 0 0-1-3.4l-2-.3v-.3c2.3-1.8 4.5-3.9 6.7-6.1l1.7-1.8c1-1 .4-2.6-1-2.8l-1.7-.3c2.6-2 5-4.5 7.4-7.2a3 3 0 0 0-2-5h-.9c3.2-2.7 5.5-5.5 7.4-8m0-4.1c-.5 0-1 .2-1.3.7a40 40 0 0 1-10.4 10.9c-1.4.9-.8 2.5 1 3l3.9.5c-2.6 3-5.7 6.1-9.5 8.7-1.2.8-.7 2.4.9 2.8l2.3.5A60.4 60.4 0 0 1 71 39c-1.3.8-.8 2.4.8 2.8l3.4.7a71.3 71.3 0 0 1-8.7 7.4c-1.2.8-.7 2.4.9 2.8a119.2 119.2 0 0 0 51.8.4c1.6-.3 2.1-2 .9-2.8a76 76 0 0 1-8.6-7.5l3.2-.7c1.6-.3 2.1-2 .9-2.9a64.7 64.7 0 0 1-9.1-8l2.1-.3c1.6-.4 2.1-2 .8-3a51.7 51.7 0 0 1-9.4-8.8l3.7-.5c1.8-.4 2.4-2.1 1-3a43 43 0 0 1-10.1-11c-.3-.4-.8-.6-1.3-.6z" fill="#424242" opacity=".2"/><g fill="#E65100"><path d="M64 45.6c-27.3 0-49.4 26-49.4 58h1.5V102c.8-30.4 22-54.8 47.9-54.8s47 24.4 47.8 54.8v1.6h1.5c0-32-22.1-58-49.3-58z"/><path d="M61.3 46.3h1.5v8.3h-1.5zm3.9 0h1.5v8.3h-1.5zM37.6 66.8l-1.1 1-5.4-6.2 1.1-1zm3-2.6l-1.2 1L34 59l1.2-1zM27 84.6l-.6 1.4-7.6-3.1.6-1.4zm1.5-3.6l-.6 1.4-7.6-3.2.6-1.4zm72.6 3.6l.6 1.4 7.6-3.1-.6-1.4zM99.6 81l.6 1.4 7.6-3.2-.6-1.4zm-9.1-14.2l1.2 1 5.4-6.2-1.2-1zm-2.9-2.6l1.1 1 5.4-6.2-1.2-1z"/></g><path d="M10.8 95.1l-1.5.5c-.3 0-.4.4-.3.7l3.7 7.4c.4.6 1.3.3 1.2-.4l-1.1-8.2c0-.3-.4-.5-.7-.4l-1.4.4z" fill="#795548"/><path d="M16.6 98.4l-5.6 2c-.4.2-.8 0-1-.4s.1-.8.5-1l5.5-2c.4-.2.9 0 1 .4s0 .8-.4 1z" fill="#E65100"/><path d="M117.1 95.1l1.4.5c.3 0 .5.4.3.7l-3.7 7.4c-.3.6-1.2.3-1.1-.4l1-8.2c.1-.3.4-.5.7-.4l1.4.4z" fill="#795548"/><path d="M111.3 98.4l5.5 2c.4.2.9 0 1-.4s0-.8-.4-1l-5.6-2c-.4-.2-.8 0-1 .4s.1.8.5 1z" fill="#E65100"/><radialGradient id="e" cx="63.8" cy="49.7" r="58.9" gradientTransform="scale(.999 1)" gradientUnits="userSpaceOnUse"><stop stop-color="#FFD600" offset="0"/><stop stop-color="#FF9100" offset="1"/></radialGradient><path d="M64 49.8c-22.4 0-41 19.4-44.6 44.8h89.2C105 69.2 86.4 49.8 64 49.8z" fill="url(#e)"/><path d="M19.4 94.6c-.5 3-.7 5.9-.7 9h90.5c0-3.1-.2-6-.6-9H19.3z" fill="#FF6D00"/><linearGradient id="f" x1="64" x2="64" y1="67.4" y2="95.3" gradientUnits="userSpaceOnUse"><stop stop-color="#FFE57F" offset="0"/><stop stop-color="#FFDB58" offset=".3"/><stop stop-color="#FFCE28" offset=".6"/><stop stop-color="#FFC70B" offset=".9"/><stop stop-color="#FFC400" offset="1"/></linearGradient><path d="M83.8 94.2l-19-26.7c-.4-.6-1.4-.6-1.8 0L44.2 94.2a1 1 0 0 0 .4 1.5c2.3 1 7 3.4 7 7.7v.2h24.7c0-4.4 4.7-7 7-7.9.6-.2.9-1 .5-1.5z" fill="url(#f)"/><path d="M63.2 68.7l-11.6 34.9h24.7l-11.6-35c-.2-.7-1.2-.7-1.5 0z" fill="#5D4037"/><path d="M64 52.8c10 0 19.6 4.2 27.2 12a54 54 0 0 1 15 35.8H21.8c0-1.9.3-3.7.5-5.6a54 54 0 0 1 14.5-30.2c7.6-7.8 17.2-12 27.2-12m0-3c-22.4 0-41 19.4-44.6 44.8-.5 3-.7 5.9-.7 9h90.5c0-3.1-.2-6-.6-9C105 69.2 86.4 49.8 64 49.8z" fill="#424242" opacity=".2"/><path d="M51.6 103.6h24.7v-.1H51.6zm31.7-7.9c.6-.2.9-1 .5-1.5l-19-26.7a1.1 1.1 0 0 0-1.8 0L44.2 94.2a1 1 0 0 0 .4 1.5c2.3 1 7 3.4 7 7.7v.1h24.7c0-4.3 4.7-6.8 7-7.8z" fill="none"/><path d="M84.5 98.5a4 4 0 0 0 1.7-6l-19-26.7a4.1 4.1 0 0 0-6.7 0L41.7 92.4a4 4 0 0 0 1.8 6.1c1.1.5 4.7 2.1 5 4.5v.5h3.1v-.1c0-4.3-4.7-6.7-7-7.7a1 1 0 0 1-.4-1.5L63 67.5c.2-.3.6-.5 1-.5s.6.2.8.5l19 26.6a1 1 0 0 1-.5 1.6c-2.3 1-7 3.4-7 7.8h3.2l-.2-.4c.4-2.4 4-4.1 5.2-4.6z" fill="#424242" opacity=".2"/></svg>