<svg viewBox="0 0 128 128" xmlns="http://www.w3.org/2000/svg"><linearGradient id="a" x1="64" x2="64" y1="74.333" y2="108.34" gradientUnits="userSpaceOnUse"><stop stop-color="#9CCC65" offset="0"/><stop stop-color="#83B64F" offset=".452"/><stop stop-color="#689F38" offset=".995"/></linearGradient><path d="M124 124H4V81c0-.55.45-1 1-1h118c.55 0 1 .45 1 1v43z" fill="url(#a)"/><path d="M121 83v38H7V83h114m2-3H5c-.55 0-1 .45-1 1v43h120V81c0-.55-.45-1-1-1z" fill="#424242" opacity=".2"/><radialGradient id="b" cx="86.127" cy="6.756" r="81.032" gradientUnits="userSpaceOnUse"><stop stop-color="#FFD54F" offset="0"/><stop stop-color="#FFD34B" offset=".179"/><stop stop-color="#FFCE3F" offset=".353"/><stop stop-color="#FFC62C" offset=".524"/><stop stop-color="#FFBA11" offset=".693"/><stop stop-color="#FFB300" offset=".778"/><stop stop-color="#FFB300" offset="1"/></radialGradient><path fill="url(#b)" d="M86.13 6.52l-35.35 30.3h2.52v44.7h65.65v-44.7h2.53z"/><linearGradient id="c" x1="96.843" x2="111.92" y1="45.132" y2="27.459" gradientUnits="userSpaceOnUse"><stop stop-color="#FFD54F" offset="0"/><stop stop-color="#FFD54F" stop-opacity="0" offset="1"/></linearGradient><path fill="url(#c)" d="M86.13 6.52l-35.35 30.3h2.52v44.7h65.65v-44.7h2.53z"/><path d="M86.13 10.48l29.91 25.64c-.06.23-.08.47-.08.71v41.69H56.3v-41.7c0-.25-.03-.48-.08-.71l29.91-25.63m0-3.96l-35.35 30.3h2.52v44.69h65.65V36.82h2.52L86.13 6.52z" fill="#424242" opacity=".2"/><path d="M91.81 24.41c.7 0 1.26.57 1.26 1.26v11.36c0 .7-.57 1.26-1.26 1.26H80.45c-.7 0-1.26-.57-1.26-1.26V25.67c0-.7.57-1.26 1.26-1.26h11.36m0-2H80.45a3.26 3.26 0 0 0-3.26 3.26v11.36c0 1.8 1.46 3.26 3.26 3.26h11.36c1.8 0 3.26-1.46 3.26-3.26V25.67c0-1.79-1.46-3.26-3.26-3.26z" fill="#424242" opacity=".2"/><path fill="#29B6F6" d="M80.13 25.36h11.99v11.99H80.13z"/><path d="M79.18 25.67v11.36c0 .7.57 1.26 1.26 1.26H91.8c.7 0 1.26-.57 1.26-1.26V25.67c0-.7-.57-1.26-1.26-1.26H80.45c-.7 0-1.27.57-1.27 1.26zm12.63 5.05h-5.05v-5.05h5.05v5.05zm-6.31-5.05v5.05h-5.05v-5.05h5.05zm-5.05 6.32h5.05v5.05h-5.05v-5.05zm6.31 5.05v-5.05h5.05v5.05h-5.05z" fill="#eee"/><path d="M108.62 44.41c.7 0 1.26.57 1.26 1.26v11.36c0 .7-.57 1.26-1.26 1.26H97.26c-.7 0-1.26-.57-1.26-1.26V45.67c0-.7.57-1.26 1.26-1.26h11.36m0-2H97.26A3.26 3.26 0 0 0 94 45.67v11.36c0 1.8 1.46 3.26 3.26 3.26h11.36c1.8 0 3.26-1.46 3.26-3.26V45.67c.01-1.8-1.46-3.26-3.26-3.26z" fill="#424242" opacity=".2"/><path fill="#29B6F6" d="M96.95 45.35h11.99v11.99H96.95z"/><path d="M96 45.67v11.36c0 .7.57 1.26 1.26 1.26h11.36c.7 0 1.26-.57 1.26-1.26V45.67c0-.7-.57-1.26-1.26-1.26H97.26c-.69 0-1.26.56-1.26 1.26zm12.62 5.05h-5.05v-5.05h5.05v5.05zm-6.31-5.05v5.05h-5.05v-5.05h5.05zm-5.05 6.31h5.05v5.05h-5.05v-5.05zm6.31 5.05v-5.05h5.05v5.05h-5.05z" fill="#eee"/><radialGradient id="d" cx="85.811" cy="3.842" r="42.695" gradientUnits="userSpaceOnUse"><stop stop-color="#F44336" offset="0"/><stop stop-color="#EE3F35" offset=".34"/><stop stop-color="#DC3531" offset=".803"/><stop stop-color="#D32F2F" offset=".996"/></radialGradient><path d="M122.92 35.06L88.15 4.76a3.072 3.072 0 0 0-4.04 0l-34.77 30.3c-1.3 1.13-1.45 3.13-.34 4.45a3.07 3.07 0 0 0 4.38.34l31.5-27.45a1.9 1.9 0 0 1 2.49 0l31.5 27.45c.59.51 1.3.76 2.02.76.87 0 1.74-.37 2.36-1.1 1.12-1.32.97-3.32-.33-4.45z" fill="url(#d)"/><path d="M86.13 6c.18 0 .45.05.71.27l34.77 30.3c.48.42.54 1.16.12 1.65a1.071 1.071 0 0 1-1.54.12l-31.5-27.45a3.892 3.892 0 0 0-5.12 0l-31.5 27.45a1.071 1.071 0 0 1-1.54-.12 1.19 1.19 0 0 1 .12-1.65l34.77-30.3c.25-.22.52-.27.71-.27m0-2c-.72 0-1.44.25-2.02.76l-34.77 30.3c-1.3 1.13-1.45 3.13-.34 4.45.61.73 1.48 1.1 2.36 1.1.71 0 1.43-.25 2.02-.76l31.5-27.45c.36-.31.8-.47 1.24-.47s.89.16 1.24.47l31.5 27.45c.59.51 1.3.76 2.02.76.87 0 1.74-.37 2.36-1.1 1.12-1.32.97-3.32-.34-4.45L88.15 4.76c-.58-.51-1.3-.76-2.02-.76z" fill="#424242" opacity=".2"/><radialGradient id="e" cx="170.38" cy="6.756" r="81.032" gradientTransform="matrix(-1 0 0 1 212.25 0)" gradientUnits="userSpaceOnUse"><stop stop-color="#FFD54F" offset="0"/><stop stop-color="#FFD34B" offset=".179"/><stop stop-color="#FFCE3F" offset=".353"/><stop stop-color="#FFC62C" offset=".524"/><stop stop-color="#FFBA11" offset=".693"/><stop stop-color="#FFB300" offset=".778"/><stop stop-color="#FFB300" offset="1"/></radialGradient><path fill="url(#e)" d="M41.87 6.52l35.35 30.3H74.7v44.7H9.05v-44.7H6.52z"/><path d="M41.87 10.48l29.91 25.64c-.06.23-.08.47-.08.71v41.69H12.05v-41.7c0-.25-.03-.48-.08-.71l29.9-25.63m0-3.96L6.52 36.82h2.52v44.69H74.7V36.82h2.52L41.87 6.52z" fill="#424242" opacity=".2"/><path d="M47.55 24.41c.7 0 1.26.57 1.26 1.26v11.36c0 .7-.57 1.26-1.26 1.26H36.19c-.7 0-1.26-.57-1.26-1.26V25.67c0-.7.57-1.26 1.26-1.26h11.36m0-2H36.19a3.26 3.26 0 0 0-3.26 3.26v11.36c0 1.8 1.46 3.26 3.26 3.26h11.36c1.8 0 3.26-1.46 3.26-3.26V25.67c.01-1.79-1.46-3.26-3.26-3.26z" fill="#424242" opacity=".2"/><linearGradient id="f" x1="30.089" x2="21.135" y1="40.973" y2="28.484" gradientUnits="userSpaceOnUse"><stop stop-color="#FFD54F" offset="0"/><stop stop-color="#FFD54F" stop-opacity="0" offset="1"/></linearGradient><path fill="url(#f)" d="M41.87 6.52l35.35 30.3H74.7v44.7H9.05v-44.7H6.52z"/><path fill="#29B6F6" d="M47.867 37.35h-11.99V25.36h11.99z"/><path d="M48.82 25.67v11.36c0 .7-.57 1.26-1.26 1.26H36.19c-.7 0-1.26-.57-1.26-1.26V25.67c0-.7.57-1.26 1.26-1.26h11.36c.7 0 1.27.57 1.27 1.26zm-12.63 5.05h5.05v-5.05h-5.05v5.05zm6.31-5.05v5.05h5.05v-5.05H42.5zm5.05 6.32H42.5v5.05h5.05v-5.05zm-6.31 5.05v-5.05h-5.05v5.05h5.05z" fill="#eee"/><path d="M30.74 44.41c.7 0 1.26.57 1.26 1.26v11.36c0 .7-.57 1.26-1.26 1.26H19.38c-.7 0-1.26-.57-1.26-1.26V45.67c0-.7.57-1.26 1.26-1.26h11.36m0-2H19.38a3.26 3.26 0 0 0-3.26 3.26v11.36c0 1.8 1.46 3.26 3.26 3.26h11.36c1.8 0 3.26-1.46 3.26-3.26V45.67c0-1.8-1.46-3.26-3.26-3.26z" fill="#424242" opacity=".2"/><path fill="#29B6F6" d="M31.053 57.35h-11.99V45.36h11.99z"/><path d="M32 45.67v11.36c0 .7-.57 1.26-1.26 1.26H19.38c-.7 0-1.26-.57-1.26-1.26V45.67c0-.7.57-1.26 1.26-1.26h11.36c.69 0 1.26.56 1.26 1.26zm-12.62 5.05h5.05v-5.05h-5.05v5.05zm6.31-5.05v5.05h5.05v-5.05h-5.05zm5.05 6.31h-5.05v5.05h5.05v-5.05zm-6.31 5.05v-5.05h-5.05v5.05h5.05z" fill="#eee"/><radialGradient id="g" cx="170.06" cy="3.842" r="42.695" gradientTransform="matrix(-1 0 0 1 212.25 0)" gradientUnits="userSpaceOnUse"><stop stop-color="#F44336" offset="0"/><stop stop-color="#EE3F35" offset=".34"/><stop stop-color="#DC3531" offset=".803"/><stop stop-color="#D32F2F" offset=".996"/></radialGradient><path d="M5.08 35.06l34.77-30.3a3.072 3.072 0 0 1 4.04 0l34.77 30.3c1.3 1.13 1.45 3.13.34 4.45a3.07 3.07 0 0 1-4.38.34L43.12 12.4a1.9 1.9 0 0 0-2.49 0L9.12 39.85c-.59.51-1.3.76-2.02.76-.87 0-1.74-.37-2.36-1.1-1.11-1.32-.96-3.32.34-4.45z" fill="url(#g)"/><path d="M41.87 6c.18 0 .45.05.71.27l34.77 30.3c.48.42.54 1.16.12 1.65a1.071 1.071 0 0 1-1.54.12l-31.5-27.45a3.892 3.892 0 0 0-5.12 0L7.81 38.34a1.071 1.071 0 0 1-1.54-.12 1.19 1.19 0 0 1 .12-1.65l34.77-30.3c.26-.22.53-.27.71-.27m0-2c-.72 0-1.44.25-2.02.76L5.08 35.06c-1.3 1.13-1.45 3.13-.34 4.45.61.73 1.48 1.1 2.36 1.1.72 0 1.43-.25 2.02-.76l31.5-27.45c.36-.31.8-.47 1.24-.47s.89.16 1.24.47l31.5 27.45c.59.51 1.3.76 2.02.76.87 0 1.74-.37 2.36-1.1a3.19 3.19 0 0 0-.34-4.45L43.89 4.76c-.58-.51-1.3-.76-2.02-.76z" fill="#424242" opacity=".2"/><linearGradient id="h" x1="21.656" x2="21.656" y1="63.98" y2="85.503" gradientUnits="userSpaceOnUse"><stop stop-color="#66BB6A" offset="0"/><stop stop-color="#59AE5D" offset=".127"/><stop stop-color="#419745" offset=".415"/><stop stop-color="#388E3C" offset=".592"/><stop stop-color="#1B5E20" offset="1"/></linearGradient><path d="M38.64 76.86c-.99-3.34-2.96-6.12-6.35-6.94a7.887 7.887 0 0 0-3.41-.08c-.99-3.38-4.1-5.84-7.78-5.84a8.1 8.1 0 0 0-6.89 3.83 8.019 8.019 0 0 0-3.39-.1c-3.47.63-6.24 3.5-6.59 7.01-.2 2.06.68 3.33.67 3.34-1.73 1.73-.78 5.24 1.29 5.24h33.07c-.01-.03.34-3.21-.62-6.46z" fill="url(#h)"/><path d="M38.64 76.86c-.99-3.34-2.96-6.12-6.35-6.94-.64-.16-1.28-.23-1.89-.23-.52 0-1.03.05-1.52.14-.99-3.37-4.1-5.83-7.78-5.83a8.1 8.1 0 0 0-6.89 3.83 8.222 8.222 0 0 0-3.39-.1c-3.47.63-6.24 3.5-6.59 7.01-.2 2.06.68 3.33.67 3.34-1.73 1.73-.78 5.24 1.29 5.24h33.07c-.01-.03.34-3.21-.62-6.46zM6.58 80.8c-.09-.28-.1-.74.09-.93.8-.8.95-2.09.39-3.07-.28-.5-.4-1.14-.33-1.81.23-2.33 2.13-4.34 4.52-4.77.34-.06.68-.09 1.01-.09.03 0 .07.01.1.01-1.35 2.31-1.3 4.3-1.3 4.39.02.68.58 1.22 1.26 1.22h.04c.7-.02 1.24-.61 1.22-1.3 0-.02-.02-1.83 1.46-3.8.12-.16.19-.35.22-.54.43-.2.8-.51 1.07-.93a5.56 5.56 0 0 1 4.74-2.64c2.47 0 4.67 1.65 5.36 4.02.05.18.15.34.24.5-1.99.5-3.69 2.04-4.27 3.92-1.19.08-2.37.39-3.43.93a1.264 1.264 0 0 0 .58 2.39c.19 0 .39-.04.57-.14 1.6-.81 3.66-.91 5.14-.24.63.28 1.38.01 1.67-.63.29-.63.01-1.38-.63-1.67-.4-.18-.83-.31-1.27-.42.55-1 1.74-1.78 2.93-1.8.62-.01 1.1-.47 1.2-1.05.06-.01.11-.01.17-.02.35-.07.7-.1 1.05-.1.43 0 .87.05 1.3.16 2.14.52 3.66 2.27 4.53 5.2.33 1.14.48 2.28.54 3.22H6.58z" fill="#424242" opacity=".2"/><linearGradient id="i" x1="106.34" x2="106.34" y1="63.98" y2="85.503" gradientUnits="userSpaceOnUse"><stop stop-color="#66BB6A" offset="0"/><stop stop-color="#59AE5D" offset=".127"/><stop stop-color="#419745" offset=".415"/><stop stop-color="#388E3C" offset=".592"/><stop stop-color="#1B5E20" offset="1"/></linearGradient><path d="M123.33 76.86c-.99-3.34-2.96-6.12-6.35-6.94a7.887 7.887 0 0 0-3.41-.08 8.1 8.1 0 0 0-7.78-5.83 8.1 8.1 0 0 0-6.89 3.83 8.019 8.019 0 0 0-3.39-.1c-3.47.63-6.24 3.5-6.59 7.01-.2 2.06.68 3.33.67 3.34-1.73 1.73-.78 5.24 1.29 5.24h33.07c-.01-.04.34-3.22-.62-6.47z" fill="url(#i)"/><path d="M123.33 76.86c-.99-3.34-2.96-6.12-6.35-6.94-.64-.16-1.28-.23-1.89-.23-.52 0-1.03.05-1.52.14a8.1 8.1 0 0 0-7.78-5.83 8.1 8.1 0 0 0-6.89 3.83 8.222 8.222 0 0 0-3.39-.1c-3.47.63-6.24 3.5-6.59 7.01-.2 2.06.68 3.33.67 3.34-1.73 1.73-.78 5.24 1.29 5.24h33.07c-.01-.03.34-3.21-.62-6.46zM91.27 80.8c-.09-.28-.1-.74.09-.93.8-.8.95-2.09.39-3.07-.28-.5-.4-1.14-.33-1.81.23-2.33 2.13-4.34 4.52-4.77.34-.06.68-.09 1.01-.09.03 0 .07.01.1.01-1.35 2.31-1.3 4.3-1.3 4.39.02.68.58 1.22 1.26 1.22h.04c.7-.02 1.24-.61 1.22-1.3 0-.02-.02-1.83 1.46-3.8.12-.16.19-.35.22-.54.43-.2.8-.51 1.07-.93a5.56 5.56 0 0 1 4.74-2.64c2.47 0 4.67 1.65 5.36 4.02.05.18.15.34.24.5-1.99.5-3.69 2.04-4.27 3.92-1.19.08-2.37.39-3.43.93a1.264 1.264 0 0 0 .58 2.39c.19 0 .39-.04.57-.14 1.6-.81 3.66-.91 5.14-.24.63.28 1.38.01 1.67-.63.29-.63.01-1.38-.63-1.67-.4-.18-.83-.31-1.27-.42.55-1 1.74-1.78 2.93-1.8.62-.01 1.1-.47 1.2-1.05.06-.01.11-.01.17-.02.35-.07.7-.1 1.05-.1.43 0 .87.05 1.3.16 2.14.52 3.66 2.27 4.53 5.2.33 1.14.48 2.28.54 3.22H91.27z" fill="#424242" opacity=".2"/><radialGradient id="j" cx="64" cy="15.137" r="101.6" gradientUnits="userSpaceOnUse"><stop stop-color="#FFD54F" offset="0"/><stop stop-color="#FFD34B" offset=".179"/><stop stop-color="#FFCE3F" offset=".353"/><stop stop-color="#FFC62C" offset=".524"/><stop stop-color="#FFBA11" offset=".693"/><stop stop-color="#FFB300" offset=".778"/><stop stop-color="#FFB300" offset="1"/></radialGradient><path fill="url(#j)" d="M64 14.85l-46.2 39.6h3.3v53.52h85.8V54.45h3.3z"/><path d="M64 14.85l-46.2 39.6h3.3v53.52h2.96l.04-53.52c0-.44-.09-.85-.26-1.23L64 18.8l40.16 34.42c-.17.37-.26.79-.26 1.23v50.52l.01 3h2.99V54.45h3.3L64 14.85z" fill="#424242" opacity=".2"/><path d="M71.42 33c.91 0 1.65.74 1.65 1.65V49.5c0 .91-.74 1.65-1.65 1.65H56.58c-.91 0-1.65-.74-1.65-1.65V34.65c0-.91.74-1.65 1.65-1.65h14.84m0-2H56.58c-2.01 0-3.65 1.64-3.65 3.65V49.5c0 2.01 1.64 3.65 3.65 3.65h14.85c2.01 0 3.65-1.64 3.65-3.65V34.65A3.666 3.666 0 0 0 71.42 31zM92.05 61.05c.91 0 1.65.74 1.65 1.65v23.1c0 .91-.74 1.65-1.65 1.65H77.2c-.91 0-1.65-.74-1.65-1.65V62.7c0-.91.74-1.65 1.65-1.65h14.85m0-2H77.2c-2.01 0-3.65 1.64-3.65 3.65v23.1c0 2.01 1.64 3.65 3.65 3.65h14.85c2.01 0 3.65-1.64 3.65-3.65V62.7c0-2.02-1.64-3.65-3.65-3.65z" fill="#424242" opacity=".2"/><radialGradient id="k" cx="48.636" cy="57.54" r="43.311" gradientUnits="userSpaceOnUse"><stop stop-color="#D32F2F" offset="0"/><stop stop-color="#CA2929" offset=".437"/><stop stop-color="#B71C1C" offset=".996"/></radialGradient><path d="M64 100.64H34.3V59.4c0-.91.74-1.65 1.65-1.65h26.4c.91 0 1.65.74 1.65 1.65v41.24z" fill="url(#k)"/><radialGradient id="l" cx="49.048" cy="59.809" r="38.879" gradientUnits="userSpaceOnUse"><stop stop-color="#EF5350" offset="0"/><stop stop-color="#E53935" offset="1"/></radialGradient><path d="M60.7 98.64H37.6c-.46 0-.82-.37-.82-.82V60.57c0-.46.37-.82.82-.82h23.1c.46 0 .82.37.82.82v37.24c.01.46-.36.83-.82.83z" fill="url(#l)"/><path fill="#4FC3F7" d="M56.16 34.24h15.67v15.67H56.16z"/><path d="M54.93 34.65V49.5c0 .91.74 1.65 1.65 1.65h14.85c.91 0 1.65-.74 1.65-1.65V34.65c0-.91-.74-1.65-1.65-1.65H56.58c-.92 0-1.65.74-1.65 1.65zm16.49 6.6h-6.6v-6.6h6.6v6.6zm-8.24-6.6v6.6h-6.6v-6.6h6.6zm-6.6 8.25h6.6v6.6h-6.6v-6.6zm8.24 6.6v-6.6h6.6v6.6h-6.6z" fill="#eee"/><path fill="#4FC3F7" d="M76.4 62.28h16.45V86.2H76.4z"/><g fill="url(#m)"><radialGradient id="m" cx="48.739" cy="63.315" r="34.33" gradientUnits="userSpaceOnUse"><stop stop-color="#E53935" offset="0"/><stop stop-color="#DC3431" offset=".407"/><stop stop-color="#C62828" offset="1"/></radialGradient><path d="M58.23 75.89H40.08c-.46 0-.82-.37-.82-.82V63.52c0-.46.37-.82.82-.82h18.15c.46 0 .82.37.82.82v11.55c0 .46-.37.82-.82.82zM58.23 95.69H40.08c-.46 0-.82-.37-.82-.82V80.02c0-.46.37-.82.82-.82h18.15c.46 0 .82.37.82.82v14.85c0 .45-.37.82-.82.82z"/></g><linearGradient id="n" x1="49.17" x2="49.17" y1="98.722" y2="104.11" gradientUnits="userSpaceOnUse"><stop stop-color="#BDBDBD" offset=".004"/><stop stop-color="#B5B5B5" offset=".215"/><stop stop-color="#9E9E9E" offset=".55"/><stop stop-color="#787878" offset=".965"/><stop stop-color="#757575" offset="1"/></linearGradient><path d="M67.32 103.38h-36.3v-3.02c0-1.13.92-2.04 2.04-2.04h32.21c1.13 0 2.04.92 2.04 2.04v3.02z" fill="url(#n)"/><path d="M65.28 99.32c.58 0 1.04.47 1.04 1.04v2.02h-34.3v-2.02c0-.58.47-1.04 1.04-1.04h32.22m0-1H33.07c-1.13 0-2.04.92-2.04 2.04v3.02h36.3v-3.02a2.064 2.064 0 0 0-2.05-2.04z" fill="#263238" opacity=".3"/><g fill="#424242"><ellipse transform="rotate(-66.932 47.583 100.293)" cx="47.58" cy="100.29" rx=".35" ry=".7" opacity=".2"/><ellipse transform="rotate(-50.926 63.326 101.837)" cx="63.33" cy="101.83" rx=".31" ry=".58" opacity=".2"/><ellipse cx="49.68" cy="101.5" rx=".85" ry=".41" opacity=".08"/><ellipse cx="57.01" cy="101.45" rx=".85" ry=".41" opacity=".08"/><ellipse cx="55.25" cy="100.4" rx=".58" ry=".35" opacity=".08"/><ellipse cx="64.77" cy="100.55" rx=".84" ry=".51" opacity=".08"/><ellipse cx="44.6" cy="100.27" rx=".58" ry=".28" opacity=".08"/><ellipse transform="rotate(-8.569 61.387 100.814)" cx="61.38" cy="100.8" rx=".95" ry=".46" opacity=".08"/><ellipse transform="rotate(-13.22 45.918 101.4)" cx="45.93" cy="101.41" rx=".92" ry=".46" opacity=".2"/><ellipse cx="58.52" cy="100.27" rx="1.17" ry=".43" opacity=".2"/><ellipse transform="rotate(-33.387 51.494 100.054)" cx="51.5" cy="100.06" rx=".71" ry=".31" opacity=".2"/><ellipse transform="rotate(-65.203 53.628 101.372)" cx="53.63" cy="101.37" rx=".48" ry="1.22" opacity=".2"/><ellipse transform="rotate(-50.926 40.97 102.22)" cx="40.97" cy="102.22" rx=".31" ry=".58" opacity=".2"/><ellipse cx="34.65" cy="101.83" rx=".85" ry=".41" opacity=".08"/><ellipse cx="32.89" cy="100.79" rx=".58" ry=".35" opacity=".08"/><ellipse cx="42.42" cy="100.93" rx=".84" ry=".51" opacity=".08"/><ellipse transform="rotate(-8.569 39.029 101.2)" cx="39.02" cy="101.18" rx=".95" ry=".46" opacity=".08"/><ellipse cx="36.16" cy="100.65" rx="1.17" ry=".43" opacity=".2"/></g><defs><path id="o" d="M92.05 61.05H77.2c-.91 0-1.65.74-1.65 1.65v23.1c0 .91.74 1.65 1.65 1.65h14.85c.91 0 1.65-.74 1.65-1.65V62.7c0-.92-.74-1.65-1.65-1.65z"/></defs><path d="M77.2 61.05c-.91 0-1.65.74-1.65 1.65v23.1c0 .91.74 1.65 1.65 1.65h14.85c.91 0 1.65-.74 1.65-1.65V62.7c0-.91-.74-1.65-1.65-1.65H77.2zm8.25 1.65h6.6v6.6h-6.6v-6.6zm-8.25 0h6.6v6.6h-6.6v-6.6zm0 8.25h6.6v6.6h-6.6v-6.6zm6.6 14.84h-6.6v-6.6h6.6v6.6zm8.25 0h-6.6v-6.6h6.6v6.6zm-6.6-8.25v-6.6h6.6v6.6h-6.6z" fill="#eee"/><circle cx="58.01" cy="78.37" r="3.47" fill="#FFC107"/><path d="M58.01 75.89a2.469 2.469 0 1 1 0 4.94c-1.37 0-2.47-1.11-2.47-2.47s1.1-2.47 2.47-2.47m0-2c-2.47 0-4.47 2.01-4.47 4.47 0 2.47 2.01 4.47 4.47 4.47s4.47-2.01 4.47-4.47-2.01-4.47-4.47-4.47z" fill="#C62828"/><path d="M94.52 90.74h-19.8c-.91 0-1.65-.74-1.65-1.65v-3.3c0-.91.74-1.65 1.65-1.65h19.8c.91 0 1.65.74 1.65 1.65v3.3c0 .92-.74 1.65-1.65 1.65z" fill="#795548"/><path d="M94.17 86.14v2.6h-19.1v-2.6h19.1m.35-2h-19.8c-.91 0-1.65.74-1.65 1.65v3.3c0 .91.74 1.65 1.65 1.65h19.8c.91 0 1.65-.74 1.65-1.65v-3.3c0-.91-.74-1.65-1.65-1.65z" fill="#424242" opacity=".2"/><radialGradient id="p" cx="63.588" cy="11.343" r="55.798" gradientUnits="userSpaceOnUse"><stop stop-color="#F44336" offset="0"/><stop stop-color="#EE3F35" offset=".34"/><stop stop-color="#DC3531" offset=".803"/><stop stop-color="#D32F2F" offset=".996"/></radialGradient><path d="M112.08 52.14l-45.44-39.6a4.015 4.015 0 0 0-5.28 0l-45.44 39.6c-1.7 1.48-1.9 4.09-.44 5.82s4.02 1.93 5.72.45l41.17-35.88c.93-.81 2.32-.81 3.25 0L106.8 58.4c.77.67 1.7.99 2.64.99 1.14 0 2.28-.49 3.08-1.44 1.46-1.72 1.26-4.33-.44-5.81z" fill="url(#p)"/><path d="M64 14.55c.17 0 .43.04.67.25l45.44 39.6c.46.4.52 1.15.12 1.62a1.023 1.023 0 0 1-1.46.12L67.6 20.26a5.47 5.47 0 0 0-7.2 0L19.23 56.14c-.24.21-.5.26-.67.26-.18 0-.51-.05-.79-.37-.4-.47-.35-1.22.12-1.62l45.44-39.6c.24-.22.5-.26.67-.26m0-3c-.94 0-1.88.33-2.64.99l-45.44 39.6c-1.7 1.48-1.9 4.09-.44 5.82.8.95 1.94 1.44 3.08 1.44.93 0 1.87-.33 2.64-.99l41.17-35.88c.47-.41 1.05-.61 1.63-.61s1.16.2 1.63.61L106.8 58.4c.77.67 1.7.99 2.64.99 1.14 0 2.28-.49 3.08-1.44a4.177 4.177 0 0 0-.44-5.82l-45.44-39.6c-.76-.65-1.7-.98-2.64-.98z" fill="#424242" opacity=".2"/><linearGradient id="q" x1="49.17" x2="49.17" y1="102.56" y2="107.91" gradientUnits="userSpaceOnUse"><stop stop-color="#BDBDBD" offset=".004"/><stop stop-color="#BABABA" offset=".397"/><stop stop-color="#B0B0B0" offset=".703"/><stop stop-color="#A0A0A0" offset=".979"/><stop stop-color="#9E9E9E" offset="1"/></linearGradient><path d="M70.62 108h-42.9v-3.47c0-1.19.96-2.15 2.15-2.15h38.59c1.19 0 2.15.96 2.15 2.15V108z" fill="url(#q)"/><path d="M68.47 102.38h-38.6c-1.19 0-2.15.96-2.15 2.15V108h1v-3.47c0-.64.52-1.15 1.15-1.15h38.59c.64 0 1.15.52 1.15 1.15V108h1v-3.47c.01-1.18-.95-2.15-2.14-2.15z" fill="#263238" opacity=".3"/><g fill="#424242"><path d="M63.79 105.08c.08.22.47.25.86.06s.64-.52.56-.74-.47-.25-.86-.06-.65.52-.56.74zM46.64 107.11c.12.16.44.1.71-.15s.4-.59.28-.75-.44-.1-.71.15-.4.59-.28.75z" opacity=".2"/><ellipse cx="62.18" cy="106.25" rx=".94" ry=".51" opacity=".08"/><ellipse cx="54.11" cy="106.18" rx=".94" ry=".51" opacity=".08"/><ellipse cx="56.05" cy="104.88" rx=".65" ry=".44" opacity=".08"/><ellipse cx="45.54" cy="105.06" rx=".93" ry=".63" opacity=".08"/><ellipse cx="67.79" cy="104.71" rx=".65" ry=".35" opacity=".08"/><path d="M48.24 105.2c-.04.31.39.65.96.75s1.07-.08 1.12-.39c.04-.31-.39-.65-.96-.75s-1.07.07-1.12.39z" opacity=".08"/><path d="M65.33 105.87c-.06.31.33.67.87.82s1.04.01 1.1-.3-.33-.67-.87-.82c-.54-.14-1.04-.01-1.1.3z" opacity=".2"/><ellipse cx="52.44" cy="104.72" rx="1.29" ry=".53" opacity=".2"/><path d="M59.53 103.97c-.1.18.1.54.46.8s.73.34.84.16c.1-.18-.1-.54-.46-.8s-.74-.33-.84-.16zM56.61 106.72c.12.3.77.25 1.44-.1s1.12-.88 1-1.17c-.12-.3-.77-.25-1.44.1s-1.12.87-1 1.17zM39.45 105.56c.08.22.47.25.86.06s.64-.52.56-.74-.47-.25-.86-.06-.64.52-.56.74z" opacity=".2"/><ellipse cx="37.85" cy="106.73" rx=".94" ry=".51" opacity=".08"/><ellipse cx="31.71" cy="105.36" rx=".65" ry=".44" opacity=".08"/><path d="M40.99 106.34c-.06.31.33.67.87.82s1.04.01 1.1-.3-.33-.67-.87-.82c-.54-.14-1.03-.01-1.1.3zM35.19 104.45c-.1.18.1.54.46.8.36.27.73.34.84.16.1-.18-.1-.54-.46-.8-.36-.27-.73-.34-.84-.16zM32.28 107.19c.12.3.77.25 1.44-.1s1.12-.88 1-1.17c-.12-.3-.77-.25-1.44.1-.68.35-1.12.88-1 1.17z" opacity=".2"/></g></svg>