<svg viewBox="0 0 128 128" xmlns="http://www.w3.org/2000/svg"><path d="M91.5 101.8l-4 4.8-2.4 2.8 2.3-2.8c1.5-1.7 2.9-3.3 4-4.8zm7.8-15.6zm-1.1-3.3zm.8 5.4zm-1.2 3.6zm-6.3 9.9z" fill="none"/><radialGradient id="a" cx="51" cy="42.2" r="64.7" gradientUnits="userSpaceOnUse"><stop stop-color="#78909C" offset="0"/><stop stop-color="#6C8490" offset=".4"/><stop stop-color="#546E7A" offset="1"/></radialGradient><path d="M85.4 72.6v.6l.4 1 .6.8 1 1c1.6 1.3 3.7 2.2 5.7 3.1l1.6.9c1 .6 2 1.2 2.8 2l.7.9c.4.6.7 1.2.9 2a6.9 6.9 0 0 1 .2 2 10.5 10.5 0 0 1-.4 2.2l-1 2.8a50.7 50.7 0 0 1-6.4 9.9l-4 4.8-2.4 2.8a380 380 0 0 0-5.5 6.6H4v-8.7c0-8.3 1.6-16.4 4.8-24a285 285 0 0 1 15-31.9v-.1l.6-1h.1l.5-.9.1-.2.5-.7.1-.2.6-.8.1-.1 5.2-.1c4.3-.2 8.7-.3 12.8-1.4a29 29 0 0 0 7-3l4.5-2.7c2.4 3 5.5 5.4 7.6 8.6 1.9 2.7 3.1 5.7 5.6 8 2.7 2.5 6.5 3.5 9.8 5 3 1.5 5.6 3 8.6 3.8-1 1.7-1.7 3.3-2 4.5-.2 1-.2 1.8-.1 2.5z" fill="url(#a)"/><radialGradient id="b" cx="94.5" cy="69" r="34.8" gradientUnits="userSpaceOnUse"><stop stop-color="#546E7A" offset="0"/><stop stop-color="#4C636E" offset=".4"/><stop stop-color="#37474F" offset="1"/></radialGradient><path d="M79.6 116l5.5-6.6 2.3-2.8c1.5-1.7 2.9-3.3 4-4.8A50.7 50.7 0 0 0 99 89l.2-.8a9.2 9.2 0 0 0 0-3.4 6 6 0 0 0-1.6-2.9c-.8-.8-1.7-1.4-2.8-2l-1.6-.8c-2-1-4.1-1.9-5.6-3.1a7 7 0 0 1-1.7-2 5 5 0 0 1-.4-1.5c-.1-.7-.1-1.5.1-2.5.3-1.2 1-2.8 2-4.5l2 .4c3.4.5 7 .3 10.4.3 3.4 0 8 .5 11.3-1.3l2 1.4c2 1.2 4 3.8 5.8 7.1 3.4 6.3 5 13.3 5 20.4V116H79.6z" fill="url(#b)"/><linearGradient id="c" x1="27.3" x2="48.6" y1="52.9" y2="122.3" gradientTransform="matrix(-1 0 0 1 128 0)" gradientUnits="userSpaceOnUse"><stop stop-color="#78909C" offset="0"/><stop stop-color="#6C8490" offset=".4"/><stop stop-color="#546E7A" offset="1"/></linearGradient><linearGradient id="d" x1="52" x2="45" y1="58.9" y2="118.4" gradientTransform="matrix(-1 0 0 1 128 0)" gradientUnits="userSpaceOnUse"><stop stop-color="#546E7A" offset="0"/><stop stop-color="#4C636E" offset=".4"/><stop stop-color="#37474F" offset="1"/></linearGradient><linearGradient id="e" x1="59.1" x2="59.1" y1="3" y2="74.4" gradientTransform="matrix(-1 0 0 1 128 0)" gradientUnits="userSpaceOnUse"><stop stop-color="#E1F5FE" offset="0"/><stop stop-color="#D5F1FD" offset=".4"/><stop stop-color="#B4E5FC" offset="1"/><stop stop-color="#B3E5FC" offset="1"/></linearGradient><path d="M23.8 51.4v-.1l.6-1 .1-.1.5-.8.1-.2.5-.7.1-.2a28.4 28.4 0 0 1 1.8-2.2 8.6 8.6 0 0 1 4.2-2.2l2-.2a10 10 0 0 0 4.8-1.3 8 8 0 0 0 1.6-1.3c1.7-1.8 7.9-16 13.8-26.2l1.8-3 .9-1.3a45.8 45.8 0 0 1 4.1-5.2c1-.9 2-1.4 2.8-1.4.4 0 .8.1 1.2.4A7 7 0 0 1 67 6.8l1 1.7c-.2.2-.2.2 0 0 2.3 4.5 4 10.7 6.4 10.7 4.6 0 4.8 17.7 10 21 1.6-1.9 2.9-3.2 4-3.8.4-.3.9-.5 1.3-.5 1.8 0 3.6 2.7 5.4 6.5 4.3 7.4 10.2 19.2 18.2 24l1.2.9c-1.5 3-4.1 6.2-8.1 5-7-2.4-10.5 0-14 4.6-.5.5-.9 1-1.3 1.2-3.7 2.4-8.9-1.4-11-2.8-2.2-1.6-10-3.5-17-.6l-.4.1C55.6 78 51 68 51.5 57s-5.4-9.8-9-7c-3 2-14 2.8-19.2 2.4l.5-.9z" fill="url(#e)"/><linearGradient id="f" x1="64" x2="64" y1="103.2" y2="77.5" gradientUnits="userSpaceOnUse"><stop stop-color="#37474F" offset="0"/><stop stop-color="#455A64" stop-opacity="0" offset="1"/></linearGradient><path d="M124 93.9c0-7.1-1.6-14.1-5-20.4-1.4-2.6-3-4.8-4.6-6.2l-.2-.2-.3-.3-.7-.4a18 18 0 0 1-1.7-1.1c-7-5.3-12.5-16-16.5-23-1.8-3.7-3.6-6.4-5.4-6.4-.4 0-.8.2-1.3.5-1 .6-2.4 2-4 3.8-5.2-3.3-5.4-21-10-21-2.3 0-4.1-6.2-6.4-10.6-.2.1-.2.1 0 0a22 22 0 0 0-1-1.8 7 7 0 0 0-2.2-2.4C64.3 4 64 4 63.5 4c-.8 0-1.8.5-2.8 1.4l-2.4 2.8a45.8 45.8 0 0 0-4.3 6.7c-6 10.3-12.1 24.4-14 26.3-.5.5-1 1-1.5 1.2a10 10 0 0 1-4.8 1.3c-.7 0-1.4 0-2 .2a7.8 7.8 0 0 0-4.3 2.2 7.3 7.3 0 0 0-1.2 1.4 28.4 28.4 0 0 0-1.1 1.7l-.2.2-.5.8v.2a2 2 0 0 0-.6 1h-.1l-.5.9c-4.4 7.7-9.7 19.6-14.5 31a62 62 0 0 0-4.8 24v8.7h70.4a10 10 0 0 0 6.5 2.4H94a10 10 0 0 0 6.5-2.4H124V93.9z" fill="url(#f)"/><path d="M108 75.5c-.8 0-1.8-.1-2.7-.4-1.5-.5-2.8-.8-3.9-.8-2.5 0-4.3 1.2-6.8 4.5a7 7 0 0 1-2 1.8 7.8 7.8 0 0 1-4.4 1.3c-4 0-7.8-2.7-9.7-4l-.1-.1c-.7-.5-3.6-1.6-7.5-1.6-2.4 0-4.7.5-6.8 1.3H64l-.2.1c-1.2.6-2.5.9-3.7.9-2.4 0-4.6-1-6.4-3-3.5-3.6-5.5-10.8-5.2-18.6.2-4.3-.8-5.5-1-5.7 0-.1-.1-.2-.4-.2-.6 0-1.6.3-2.9 1.3-4 3-16.2 3.1-17.6 3.1l-3.6-.1-1.3-.1 1.6-2.9 3.3.1c5.6 0 13.5-.8 15.8-2.5 1.4-1 3.1-1.9 4.7-1.9 2.5 0 4.7 2.2 4.4 9-.4 9.6 3 18.5 8.6 18.5a6 6 0 0 0 2.5-.6l.4-.1a21 21 0 0 1 8-1.5c4.1 0 7.7 1 9 2 1.6 1.2 5 3.6 8.2 3.6 1 0 2-.2 2.8-.7l1.3-1.2c2.6-3.4 5.2-5.6 9.1-5.6 1.4 0 3 .3 4.9.9l1.8.3c3 0 5-2.7 6.3-5.3a15 15 0 0 1 2.2 2.4c-2.8 4.8-6.1 5.8-8.5 5.8z" fill="#424242" opacity=".2"/><path d="M55.3 44c.6.8 1.2 1.4 1.9 2a34 34 0 0 1 3.9 4.5l1.5 2.5c1.2 2 2.4 4.2 4.4 6 2.5 2.2 5.4 3.4 8.1 4.5l2.5 1.1 2.2 1c2.2 1 4.4 2.2 7 2.9l2.2.4c2.3.4 4.6.4 6.4.4h4.6a56.8 56.8 0 0 1 4 0c2 0 4.5-.1 6.8-.9l.8.5c1 .6 2.7 2.2 4.8 6 3 5.6 4.6 12.2 4.6 19V113H7v-5.7c0-7.9 1.5-15.5 4.6-22.8a281 281 0 0 1 14.8-31.6l.1-.2.5-.7v-.2l.5-.7V51l.2-.2.2-.4h.2l3.7-.1 2-.1c3.7-.2 7.6-.3 11.4-1.4a35.4 35.4 0 0 0 10-4.7m.7-3.9c-1.6.9-3 2-4.5 2.8a31.9 31.9 0 0 1-7 2.9C40.3 47 36 47 31.6 47.3a66.6 66.6 0 0 1-5.2 0v.2a28.4 28.4 0 0 0-1.3 1.7l-.1.2-.5.8-.1.2-.6 1a285 285 0 0 0-15 32A62.4 62.4 0 0 0 4 107.2v8.7h120v-22c0-7.1-1.6-14.1-5-20.4a18.4 18.4 0 0 0-7.8-8.5 15 15 0 0 1-7.1 1.3h-8.7a41 41 0 0 1-7.9-.7c-3-.8-5.6-2.3-8.6-3.7-3.4-1.5-7-2.6-9.9-5.1-2.4-2.2-3.7-5.3-5.5-8-2.1-3.2-5.2-5.6-7.6-8.6z" fill="#424242" opacity=".2"/><path d="M36.1 58.6c.1-.5-.5-.7-.7-.3-2.7 5.7-13.8 22.2-17.8 29.3-.4.7.4 1.4 1 1 2-1.5 5.8-4.8 6-5.8.3-1.5 3-5.5 3.8-6.7l.5-.7 3.5-4.4c.7-.9 1.2-1.9 1.4-3l2.3-9.4zM45 55c.2-.4-.2-.7-.5-.5l-3.7 2.6a2 2 0 0 0-.5 1l-2.9 11.4c0 .5.7.6.8.1L45 55zm16.7 24.2c.1-.4-.3-.6-.6-.3-3 4-14.4 15.3-18.6 20.3-.5.4 0 1.1.7.9 1.7-.8 5.2-2.9 5.6-3.6a28 28 0 0 1 4-4.7l.6-.5 3.4-3c.7-.5 1.2-1.2 1.6-2l3.3-7.1zm-12.9 5.4c.3-.2 0-.6-.3-.6l-4 .6a2 2 0 0 0-1 .6l-7.1 8c-.2.4.3.8.6.5l11.8-9zm17.8-7.1c.1-.2.3 0 .4.2l.3 5c.2.2.2.6 0 1l-3 6.8.4-4.2c0-.2-.1-.3-.2-.2l-3.9 4.5c-.2.1-.4-.2-.9-.7l6.9-12.4z" fill="#eee" opacity=".2"/><path d="M110.5 76.3c-.1-.2.1-.2.4 0l4 4.9.7 1 3.2 8.6-3-4.5c0-.2-.2-.3-.2-.1l.8 6.5c0 .3-.4 0-1.2-.3l-4.7-16z" fill="#424242" opacity=".2"/><linearGradient id="g" x1="73.9" x2="62.7" y1="58.4" y2="19.2" gradientUnits="userSpaceOnUse"><stop stop-color="#81D4FA" offset="0"/><stop stop-color="#9ADDFB" offset=".1"/><stop stop-color="#CCEEFD" offset=".5"/><stop stop-color="#D5F1FD" offset=".6"/><stop stop-color="#E1F5FE" offset="1"/></linearGradient><path d="M62.9 74.8c1.4-3.9 4.3-14 .9-23.5-4.3-11.7-8.8-27.3 4-42.8 2.3 4.5 4 10.6 6.3 10.6 4.7 0 4.9 17.7 10.1 21A263.1 263.1 0 0 0 63 74.8z" fill="url(#g)"/><linearGradient id="h" x1="45.6" x2="45.6" y1="13.3" y2="66.5" gradientUnits="userSpaceOnUse"><stop stop-color="#fff" offset="0"/><stop stop-color="#F3FBFF" offset=".5"/><stop stop-color="#E1F5FE" offset="1"/></linearGradient><path d="M63.8 51.3a36 36 0 0 1-1 23.5h-.2C55.5 78 51 68 51.5 57s-5.4-10-9-7.2c-3 2.2-14 3-19.2 2.5l.5-.9v-.1l.6-1 .6-.9.1-.2.5-.7.1-.2a28.4 28.4 0 0 1 1.8-2.2 8.6 8.6 0 0 1 4.2-2.2l2-.2a10 10 0 0 0 4.8-1.3 8 8 0 0 0 1.6-1.2c1.7-2 7.9-16 13.8-26.3l1.8-3 .9-1.3a45.8 45.8 0 0 1 4.1-5.2c1-.9 2-1.4 2.8-1.4.4 0 .8.1 1.2.4A7 7 0 0 1 67 6.8l1 1.7c-.2.2-.2.2 0 0-13 15.5-8.4 31.2-4.2 42.8zm-1 23.4z" fill="url(#h)"/><path d="M80.8 40.8l-.7-.7a38.4 38.4 0 0 1-3.9-10.7c-.6-2.3-1.6-6.1-2.4-7.2-3.2-.3-4.8-3.8-6.6-8L65 10a3 3 0 0 1-.3-1 11.5 11.5 0 0 0-1.4-1.9l-.6.5a47 47 0 0 0-6.2 8.8c-3 5-6 11.2-8.5 16.2a60.7 60.7 0 0 1-5.8 10.6 10.8 10.8 0 0 1-8.3 3.5l-1.7.1c-.6.2-1.3.4-1.8.8l-.9.7c-.5.5-2.5 2.9-2.9 4h-3.4l.5-.9v-.1l.6-1 .1-.1.5-.8.2-.2.4-.7.2-.2a28.4 28.4 0 0 1 1.7-2.2 8.6 8.6 0 0 1 4.2-2.2l2-.2a10 10 0 0 0 4.8-1.3 8 8 0 0 0 1.6-1.3c1.8-1.8 8-16 13.9-26.2l1.7-3 1-1.3a45.8 45.8 0 0 1 4-5.2c1-.9 2-1.4 2.7-1.4.5 0 1 .1 1.3.4A7 7 0 0 1 67 6.7l1 1.8-.1.2v-.2h.1c2.3 4.5 4 10.7 6.3 10.7 4.7 0 4.9 17.7 10.1 21l-1.5 2c-.5-.2-1.4-1-2-1.4z" fill="#424242" opacity=".2"/><linearGradient id="i" x1="78" x2="78" y1="44.5" y2="74.3" gradientUnits="userSpaceOnUse"><stop stop-color="#fff" offset="0"/><stop stop-color="#F3FBFF" offset=".5"/><stop stop-color="#E1F5FE" offset="1"/></linearGradient><path d="M90 39a17.1 17.1 0 0 1 2.5 5.7l.1.6.1.8a20 20 0 0 1-.2 7.9l-.3 1.3-.3 1a33.7 33.7 0 0 1-4 8.8c-1.3 2-2 3.6-2.4 5-.2 1-.2 1.8-.1 2.5l.1.6c0 .3.2.6.4 1l.5.8 1 1a18 18 0 0 0 3.6 2.1c-3.7 2.4-8.9-1.4-11-2.8-2.2-1.6-10-3.5-17-.6a261.8 261.8 0 0 1 21.3-34.5c1.6-1.8 2.9-3.2 4-3.8A21.6 21.6 0 0 1 90 39z" fill="url(#i)"/><linearGradient id="j" x1="91.5" x2="98.6" y1="53.7" y2="67.7" gradientUnits="userSpaceOnUse"><stop stop-color="#E1F5FE" offset="0"/><stop stop-color="#D5F1FD" offset=".4"/><stop stop-color="#B4E5FC" offset="1"/><stop stop-color="#B3E5FC" offset="1"/></linearGradient><path d="M85.5 70.1c.4-1.4 1-3 2.3-5a44.1 44.1 0 0 0 4.1-8.9l.3-.9a23.6 23.6 0 0 0 .5-9.2l-.1-.9-.1-.5-.3-1a19 19 0 0 0-4-7.3 3 3 0 0 1 1.3-.5c1.8 0 3.7 2.7 5.5 6.5 4.3 7.4 10.2 19.2 18.2 24l1.2.9c-1.5 3-4.1 6.2-8.2 5-7-2.4-10.4 0-14 4.6-.4.5-.8 1-1.3 1.2-1.2-.6-2.5-1.2-3.4-2a7 7 0 0 1-1.7-2 5 5 0 0 1-.4-1.5c-.1-.7 0-1.5.1-2.5z" fill="url(#j)"/><path d="M84.3 40.2a22 22 0 0 1 4-3.8c.4-.3.9-.5 1.3-.5 1.7 0 3.6 2.7 5.4 6.5 4.3 7.4 10.2 19.3 18.2 24l1.2.9-1.1 2-1.4-.6c-1.1-.4-2.2-1-3.1-1.7-6.2-5-10.8-13.3-14.7-20l-1.7-3v-.2h-.1a16 16 0 0 0-2.8-4.6c-.4.3-1.3 1.1-2.8 2.9-1 1.4-12.5 16.9-19.4 30.4l-.4 1.1c-1.3.2-2.7.6-4 1.1a263.9 263.9 0 0 1 21.4-34.5z" fill="#424242" opacity=".2"/><path d="M52.5 29c.2-.1.4 0 .4.3l.2 5.3v1.1l-2.9 7.5.5-4.6c0-.2-.1-.4-.2-.2L46.9 43c-.1.2-.3-.1-.7-.7L52.5 29zM88 43.3c.1-.2.4-.2.5 0l1.3 4c.2.1.3.4.1.7l-2.3 6.4-.3-3.5c0-.2-.2-.2-.3-.1l-4 4.6c-.1.2-.4 0-1-.3l6-11.8zM63.3 31.2c0-.3.4-.4.4 0 1.2 3.6 6.7 14.8 8.6 19.5.2.4-.4.8-.7.5-1.1-1-3.2-3.5-3.2-4 0-1-1.4-3.7-1.8-4.5 0-.2-.2-.4-.3-.5l-1.8-3c-.3-.6-.5-1.3-.6-2l-.6-6zm2-11.3c0-.3.2-.3.5 0l4 4.9c.3.2.6.6.7 1l3.3 8.7-3-4.6c-.1-.2-.3-.3-.3-.1l.8 6.6c0 .2-.4 0-1.1-.3l-4.9-16.2z" fill="#E1F5FE"/><linearGradient id="k" x1="64" x2="64" y1="94.7" y2="123.6" gradientUnits="userSpaceOnUse"><stop stop-color="#E1F5FE" offset="0"/><stop stop-color="#DCF3FE" offset=".2"/><stop stop-color="#CFEFFD" offset=".5"/><stop stop-color="#B9E7FC" offset=".8"/><stop stop-color="#B3E5FC" offset=".8"/><stop stop-color="#B3E5FC" offset="1"/></linearGradient><path d="M124 92.6c0-2-2-3.2-3.7-2.4a23 23 0 0 0-9.6 9.2c-.6.7-1 1.5-1.4 2.5v.2a1 1 0 0 1-1.3.7 4 4 0 0 0-1-.1 5 5 0 0 0-3.6 1.7 2 2 0 0 1-2.7.1 12.5 12.5 0 0 0-13.8-1 2 2 0 0 1-2.5-.7 19 19 0 0 0-28.1-3.2 1 1 0 0 1-1.3 0c-1-.7-2-1.2-3.1-1.2s-2.1.4-3 1.2a1 1 0 0 1-1.2 0 13.9 13.9 0 0 0-17.6 2c-.3.4-1 .4-1.4 0-1-.9-2-1.4-3.3-1.4a5 5 0 0 0-3.6 1.7c-.4.4-1 .5-1.5 0a19.2 19.2 0 0 0-14.1-6.2C5 95.7 4 96.7 4 98v26h120V92.6z" fill="url(#k)"/><path d="M121 93.3V121H7V98.8c4.2.2 8.2 2 11.1 5.2a4 4 0 0 0 3 1.3A4 4 0 0 0 24 104c.3-.4.8-.8 1.4-.8.4 0 .8.2 1.2.6a4 4 0 0 0 5.7 0 11 11 0 0 1 13.7-1.6 4 4 0 0 0 4.8-.3c.4-.3.7-.5 1-.5.4 0 .8.2 1.2.5a4 4 0 0 0 5.3 0 16.1 16.1 0 0 1 23.7 2.7 5 5 0 0 0 4 2.1c.9 0 1.7-.2 2.4-.6a9.6 9.6 0 0 1 10.5.8c.9.7 2 1 3.1 1a5 5 0 0 0 3.6-1.5c.3-.3.8-.7 1.4-.7h.3l1 .1a4 4 0 0 0 3.7-2.7l.1-.2c.2-.6.5-1.1.9-1.5l.2-.3.1-.2c1.8-3.3 4.5-5.9 7.7-7.6m.4-3.3c-.4 0-.7 0-1.1.3-4 2-7.4 5.2-9.6 9.1-.6.7-1 1.6-1.4 2.5v.3a1 1 0 0 1-1 .6h-.3a4 4 0 0 0-1-.1 5 5 0 0 0-3.6 1.7 2 2 0 0 1-1.4.6c-.4 0-1-.2-1.3-.5a12.5 12.5 0 0 0-13.8-1l-.9.2a2 2 0 0 1-1.6-.8 19 19 0 0 0-28.1-3.2 1 1 0 0 1-1.3 0c-1-.8-2-1.3-3.1-1.3s-2.2.5-3 1.2a1 1 0 0 1-.7.2 1 1 0 0 1-.5-.1 13.9 13.9 0 0 0-17.6 2 1 1 0 0 1-.7.2 1 1 0 0 1-.7-.3c-1-.9-2-1.4-3.3-1.4a5 5 0 0 0-3.6 1.7 1 1 0 0 1-.8.4 1 1 0 0 1-.7-.3 19.1 19.1 0 0 0-14-6.3H6c-1 0-2 1-2 2.3v26h120V92.6c0-1.5-1.2-2.6-2.6-2.6z" fill="#424242" opacity=".2"/><path d="M50.2 107c3 .8 4.5 3.5 4.1 6.5-.2 2.2 3.1 2.2 3.4.1a9 9 0 0 0-.4-4c4.8 0 8.8 2.5 10.9 6.9 1 2 3.9.3 3-1.6a15 15 0 0 0-14.4-8.6c-.5 0-.8.2-1.1.4a9.6 9.6 0 0 0-4.6-3c-2-.7-3 2.6-.9 3.2zm55.8 4.4a4 4 0 0 1 2.8 4.8c-.2 1.4 2.1 1.5 2.4 0 .1-1 0-1.9-.2-2.7 3.3 0 6.1 1.9 7.5 5 .6 1.3 2.7.3 2-1-1.7-4-5.6-6.5-9.9-6.4a1 1 0 0 0-.7.3c-.8-1-1.9-1.8-3.1-2.2-1.5-.5-2.2 1.8-.8 2.2zm-82-1.6c-4.5 0-8 3-9.2 7.4-.4 1.8-3.3 1.1-2.8-.7 1.4-5.7 6-9.5 12-9.7 1.9 0 2 3 0 3z" fill="#E1F5FE"/></svg>