<svg viewBox="0 0 128 128" xmlns="http://www.w3.org/2000/svg"><path d="M19 24h4v24h-4zm20 0h4v24h-4zM85 24h4v24h-4zm20 0h4v24h-4z" fill="#BDBDBD"/><linearGradient id="a" x1="64" x2="64" y1="32" y2="86.3" gradientUnits="userSpaceOnUse"><stop stop-color="#DD2C00" offset="0"/><stop stop-color="#E03200" offset=".1"/><stop stop-color="#F15200" offset=".5"/><stop stop-color="#FB6600" offset=".8"/><stop stop-color="#FF6D00" offset="1"/></linearGradient><path d="M124 58c0-14.4-26.9-26-60-26S4 43.6 4 58v.7l2.2 27.6 115.3-5.2 2.5-22.4V58z" fill="url(#a)"/><path d="M22 25v22h-2V25h2m1-1h-4v24h4V24zm19 1v22h-2V25h2m1-1h-4v24h4V24zM88 25v22h-2V25h2m1-1h-4v24h4V24zm19 1v22h-2V25h2m1-1h-4v24h4V24z" fill="#424242" opacity=".2"/><linearGradient id="b" x1="63.9" x2="63.9" y1="66.8" y2="30.1" gradientUnits="userSpaceOnUse"><stop stop-color="#DD2C00" offset="0"/><stop stop-color="#E03200" offset=".1"/><stop stop-color="#F15200" offset=".5"/><stop stop-color="#FB6600" offset=".8"/><stop stop-color="#FF6D00" offset="1"/></linearGradient><ellipse cx="63.9" cy="58.9" rx="56.1" ry="26" fill="url(#b)"/><linearGradient id="c" x1="51.2" x2="30.7" y1="58.7" y2="39.7" gradientUnits="userSpaceOnUse"><stop stop-color="#FFAB91" offset="0"/><stop stop-color="#FF7043" offset="1"/></linearGradient><path d="M35.9 36.9s-1.3-.8-12 4l36 24h4l-28-28z" fill="url(#c)"/><linearGradient id="d" x1="79.7" x2="94.7" y1="58.3" y2="38.8" gradientUnits="userSpaceOnUse"><stop stop-color="#FFAB91" offset="0"/><stop stop-color="#FF7043" offset="1"/></linearGradient><path d="M91.9 36.9s1.2-.8 12 4l-36 24h-4l28-28z" fill="url(#d)"/><ellipse cx="63.8" cy="78.8" rx="44" ry="22" fill="#E0E0E0"/><linearGradient id="e" x1="63.9" x2="63.9" y1="62.2" y2="81.6" gradientUnits="userSpaceOnUse"><stop stop-color="#C6FF00" offset="0"/><stop stop-color="#C1FA00" offset=".4"/><stop stop-color="#B2ED00" offset=".9"/><stop stop-color="#AEEA00" offset="1"/></linearGradient><ellipse cx="63.9" cy="78.9" rx="40.1" ry="18" fill="url(#e)"/><path fill="#FAFAFA" d="M63.5 60.9h1v26.2h-1zM36 83.2h-1V72.5h-8.5l.4-.5.5-.5H36v11.7zm56 0h1V72.5h8.4l-.4-.5-.5-.5h-8.6v11.7z"/><path d="M47.7 84.8l-.2-1.6c0-6.3 7.4-11.4 16.5-11.4s16.5 5.1 16.5 11.4l-.2 1.6h1l.2-1.6c0-6.8-7.9-12.4-17.5-12.4s-17.5 5.6-17.5 12.4l.2 1.6h1z" fill="#FAFAFA"/><path d="M64 105c-25.8 0-50.5-9.5-60-19.5v4C14.7 99 38 108 64 108s49.3-9.1 60-18.5v-4c-9.5 10-34.2 19.5-60 19.6z" fill="#E0E0E0" opacity=".5"/><path fill="#FAFAFA" d="M63.5 60.9h1v26.2h-1zM36 83.2h-1V72.5h-8.5l.4-.5.5-.5H36v11.7zm56 0h1V72.5h8.4l-.4-.5-.5-.5h-8.6v11.7z"/><path d="M47.7 84.8l-.2-1.6c0-6.3 7.4-11.4 16.5-11.4s16.5 5.1 16.5 11.4l-.2 1.6h1l.2-1.6c0-6.8-7.9-12.4-17.5-12.4s-17.5 5.6-17.5 12.4l.2 1.6h1z" fill="#FAFAFA"/><path d="M64 105c-25.8 0-50.5-9.5-60-19.5v4C14.7 99 38 108 64 108s49.3-9.1 60-18.5v-4c-9.5 10-34.2 19.5-60 19.6z" fill="#E0E0E0" opacity=".5"/><linearGradient id="f" x1="63.9" x2="63.9" y1="66.8" y2="30.1" gradientUnits="userSpaceOnUse"><stop stop-color="#DD2C00" offset="0"/><stop stop-color="#E03200" offset=".1"/><stop stop-color="#F15200" offset=".5"/><stop stop-color="#FB6600" offset=".8"/><stop stop-color="#FF6D00" offset="1"/></linearGradient><ellipse cx="63.9" cy="58.9" rx="56.6" ry="26" fill="url(#f)"/><path d="M35.9 36.9s-1.3-.8-12 4l36 24h4l-28-28z" fill="url(#c)"/><path d="M91.9 36.9s1.2-.8 12 4l-36 24h-4l28-28z" fill="url(#d)"/><ellipse cx="63.8" cy="78.8" rx="44" ry="22" fill="#eee"/><ellipse cx="63.9" cy="78.9" rx="40.1" ry="18" fill="url(#e)"/><linearGradient id="g" x1="63.9" x2="63.9" y1="87.6" y2="67.3" gradientUnits="userSpaceOnUse"><stop stop-color="#D4E157" offset="0"/><stop stop-color="#D4E157" stop-opacity="0" offset="1"/></linearGradient><ellipse cx="63.9" cy="78.9" rx="40.1" ry="18" fill="url(#g)"/><linearGradient id="h" x1="64" x2="64" y1="62.3" y2="130.5" gradientUnits="userSpaceOnUse"><stop stop-color="#E0E0E0" offset="0"/><stop stop-color="#D8D8D8" offset=".2"/><stop stop-color="#C2C2C2" offset=".6"/><stop stop-color="#9F9F9F" offset="1"/><stop stop-color="#9E9E9E" offset="1"/></linearGradient><path d="M123.8 60C121.5 73.4 95.6 84 64 84S6.4 73.4 4 60v-1.1 41C6.4 113.5 32.3 124 64 124s57.6-10.6 60-24V58.7l-.2 1.3z" fill="url(#h)"/><linearGradient id="i" x1="4" x2="4" y1="63.5" y2="130.3" gradientUnits="userSpaceOnUse"><stop stop-color="#E0E0E0" offset="0"/><stop stop-color="#D8D8D8" offset=".2"/><stop stop-color="#C2C2C2" offset=".6"/><stop stop-color="#9F9F9F" offset="1"/><stop stop-color="#9E9E9E" offset="1"/></linearGradient><path d="M4 59v-1 1z" fill="url(#i)"/><linearGradient id="j" x1="124" x2="124" y1="63.5" y2="130.3" gradientUnits="userSpaceOnUse"><stop stop-color="#E0E0E0" offset="0"/><stop stop-color="#D8D8D8" offset=".2"/><stop stop-color="#C2C2C2" offset=".6"/><stop stop-color="#9F9F9F" offset="1"/><stop stop-color="#9E9E9E" offset="1"/></linearGradient><path d="M124 59v-1 1z" fill="url(#j)"/><path fill="#FAFAFA" d="M63.5 60.9h1v26.2h-1zM36 83.2h-1V72.5h-8.5l.4-.5.5-.5H36v11.7zm56 0h1V72.5h8.4l-.4-.5-.5-.5h-8.6v11.7z"/><path d="M47.7 84.8l-.2-1.6c0-6.3 7.4-11.4 16.5-11.4s16.5 5.1 16.5 11.4l-.2 1.6h1l.2-1.6c0-6.8-7.9-12.4-17.5-12.4s-17.5 5.6-17.5 12.4l.2 1.6h1z" fill="#FAFAFA"/><path d="M64 60.9c-22.2 0-40.1 8-40.1 18v.4h2V79c0-7.7 15.3-16 38-16 22.8 0 38 8.3 38 16v1.4h2V79c0-10-17.9-18-40-18z" fill="#424242" opacity=".2"/><linearGradient id="k" x1="64" x2="64" y1="32.1" y2="78.2" gradientUnits="userSpaceOnUse"><stop stop-color="#DD2C00" offset="0"/><stop stop-color="#E03306" offset=".1"/><stop stop-color="#F15326" offset=".5"/><stop stop-color="#FB6739" offset=".8"/><stop stop-color="#FF6E40" offset="1"/></linearGradient><path d="M64 32C30.9 32 4 43.8 4 58c0 7.9 8 14.8 20.4 19.6C13.8 73 7.3 66.3 7.3 59c0-14.4 25.3-26 56.6-26s56.6 11.6 56.6 26c0 7.6-7.2 14.5-18.6 19.2 13.5-4.7 22.1-12 22.1-20.1 0-14.4-26.9-26-60-26z" fill="url(#k)"/><path d="M121 70.6v29.1C118.9 110 96.6 121 64 121c-32.8 0-55-11-57-21.3v-29a46 46 0 0 0 14.9 9.1c11.5 4.7 26.4 7.2 42 7.2s30.6-2.5 42-7.2a46 46 0 0 0 15.1-9.2m3-12l-.2 1.4C121.5 73.4 95.6 84 64 84S6.4 73.4 4 60v-1.1 41C6.4 113.5 32.3 124 64 124s57.6-10.6 60-24V58.7zm-.2 1.4zM4 60zm0-2zm0 0zm120 0zm0 0z" fill="#424242" opacity=".2"/><path d="M64 110c-25.8 0-50.5-9.5-60-19.5v4C14.7 104 38 113 64 113s49.3-9.1 60-18.5v-4c-9.5 10-34.2 19.5-60 19.6z" fill="#BDBDBD" opacity=".5"/><path d="M64 98.3c-25.8 0-50.5-9.5-60-19.6v4.1c10.7 9.4 34 18.5 60 18.5s49.3-9.1 60-18.5v-4c-9.5 10-34.2 19.5-60 19.5z" fill="#BDBDBD" opacity=".5"/><radialGradient id="l" cx="64" cy="73.3" r="43.7" gradientUnits="userSpaceOnUse"><stop stop-color="#FF6E40" offset="0"/><stop stop-color="#FE6C3E" offset=".5"/><stop stop-color="#FB6538" offset=".7"/><stop stop-color="#F45A2C" offset=".8"/><stop stop-color="#EC491C" offset=".9"/><stop stop-color="#E13307" offset="1"/><stop stop-color="#DD2C00" offset="1"/></radialGradient><path d="M123.8 60C121.5 73.4 95.6 84 64 84 32.3 84 6.5 73.4 4 60v-1 3c0 14.4 26.7 26 60 26 33 0 60-11.6 60-26v-3.5l-.2 1.5z" fill="url(#l)"/><path d="M76 123.5s-6.7.5-12 .5c-9.4 0-12-.5-12-.5V108a12 12 0 1 1 24 0v15.5z" fill="#455A64"/><path d="M119 94.6h-2a1 1 0 0 1-1-1v-6c0-.6.5-1 1-1h2c.6 0 1 .4 1 1v6c0 .5-.5 1-1 1zm-10.7 6.2h-2a1 1 0 0 1-1-1v-6c0-.5.5-1 1-1h2c.6 0 1 .5 1 1v6c0 .6-.4 1-1 1zm-10.6 3.7h-2a1 1 0 0 1-1-1v-6c0-.6.4-1 1-1h2c.5 0 1 .4 1 1v6c0 .5-.5 1-1 1zM87 107h-2a1 1 0 0 1-1-1v-6c0-.6.5-1 1-1h2c.6 0 1 .5 1 1v6c0 .6-.5 1-1 1zM9 94.6h2c.6 0 1-.5 1-1v-6c0-.6-.5-1-1-1H9a1 1 0 0 0-1 1v6c0 .5.5 1 1 1zm10.7 6.2h2c.5 0 1-.4 1-1v-6c0-.5-.5-1-1-1h-2a1 1 0 0 0-1 1v6c0 .6.4 1 1 1zm10.6 3.7h2c.6 0 1-.5 1-1v-6c0-.6-.4-1-1-1h-2a1 1 0 0 0-1 1v6c0 .5.5 1 1 1zM41 107h2c.6 0 1-.5 1-1v-6c0-.6-.5-1-1-1h-2a1 1 0 0 0-1 1v6c0 .6.5 1 1 1z" fill="#546E7A"/><linearGradient id="m" x1="31" x2="31" y1="4.4" y2="27.9" gradientUnits="userSpaceOnUse"><stop stop-color="#9E9E9E" offset="0"/><stop stop-color="#616161" offset="1"/></linearGradient><path d="M46 26H16a4 4 0 0 1-4-4V8a4 4 0 0 1 4-4h30a4 4 0 0 1 4 4v14a4 4 0 0 1-4 4z" fill="url(#m)"/><circle cx="19" cy="10.5" r="3.5" fill="#ff0"/><path d="M19 7.5a3 3 0 1 1 0 6 3 3 0 0 1 0-6m0-1a4 4 0 1 0 0 8 4 4 0 0 0 0-8z" fill="#9E9E9E"/><circle cx="19" cy="19.5" r="3.5" fill="#ff0"/><path d="M19 16.5a3 3 0 1 1 0 6 3 3 0 0 1 0-6m0-1a4 4 0 1 0 0 8 4 4 0 0 0 0-8z" fill="#9E9E9E"/><circle cx="27" cy="10.5" r="3.5" fill="#ff0"/><path d="M27 7.5a3 3 0 1 1 0 6 3 3 0 0 1 0-6m0-1a4 4 0 1 0 0 8 4 4 0 0 0 0-8z" fill="#9E9E9E"/><circle cx="27" cy="19.5" r="3.5" fill="#ff0"/><path d="M27 16.5a3 3 0 1 1 0 6 3 3 0 0 1 0-6m0-1a4 4 0 1 0 0 8 4 4 0 0 0 0-8z" fill="#9E9E9E"/><circle cx="35" cy="10.5" r="3.5" fill="#ff0"/><path d="M35 7.5a3 3 0 1 1 0 6 3 3 0 0 1 0-6m0-1a4 4 0 1 0 0 8 4 4 0 0 0 0-8z" fill="#9E9E9E"/><circle cx="35" cy="19.5" r="3.5" fill="#ff0"/><path d="M35 16.5a3 3 0 1 1 0 6 3 3 0 0 1 0-6m0-1a4 4 0 1 0 0 8 4 4 0 0 0 0-8z" fill="#9E9E9E"/><circle cx="43" cy="10.5" r="3.5" fill="#ff0"/><path d="M43 7.5a3 3 0 1 1 0 6 3 3 0 0 1 0-6m0-1a4 4 0 1 0 0 8 4 4 0 0 0 0-8z" fill="#9E9E9E"/><circle cx="43" cy="19.5" r="3.5" fill="#ff0"/><path d="M43 16.5a3 3 0 1 1 0 6 3 3 0 0 1 0-6m0-1a4 4 0 1 0 0 8 4 4 0 0 0 0-8z" fill="#9E9E9E"/><linearGradient id="n" x1="97" x2="97" y1="4.4" y2="27.9" gradientUnits="userSpaceOnUse"><stop stop-color="#9E9E9E" offset="0"/><stop stop-color="#616161" offset="1"/></linearGradient><path d="M112 26H82a4 4 0 0 1-4-4V8a4 4 0 0 1 4-4h30a4 4 0 0 1 4 4v14a4 4 0 0 1-4 4z" fill="url(#n)"/><circle cx="85" cy="10.5" r="3.5" fill="#ff0"/><path d="M85 7.5a3 3 0 1 1 0 6 3 3 0 0 1 0-6m0-1a4 4 0 1 0 0 8 4 4 0 0 0 0-8z" fill="#9E9E9E"/><circle cx="85" cy="19.5" r="3.5" fill="#ff0"/><path d="M85 16.5a3 3 0 1 1 0 6 3 3 0 0 1 0-6m0-1a4 4 0 1 0 0 8 4 4 0 0 0 0-8z" fill="#9E9E9E"/><circle cx="93" cy="10.5" r="3.5" fill="#ff0"/><path d="M93 7.5a3 3 0 1 1 0 6 3 3 0 0 1 0-6m0-1a4 4 0 1 0 0 8 4 4 0 0 0 0-8z" fill="#9E9E9E"/><circle cx="93" cy="19.5" r="3.5" fill="#ff0"/><path d="M93 16.5a3 3 0 1 1 0 6 3 3 0 0 1 0-6m0-1a4 4 0 1 0 0 8 4 4 0 0 0 0-8z" fill="#9E9E9E"/><circle cx="101" cy="10.5" r="3.5" fill="#ff0"/><path d="M101 7.5a3 3 0 1 1 0 6 3 3 0 0 1 0-6m0-1a4 4 0 1 0 0 8 4 4 0 0 0 0-8z" fill="#9E9E9E"/><circle cx="101" cy="19.5" r="3.5" fill="#ff0"/><path d="M101 16.5a3 3 0 1 1 0 6 3 3 0 0 1 0-6m0-1a4 4 0 1 0 0 8 4 4 0 0 0 0-8z" fill="#9E9E9E"/><circle cx="109" cy="10.5" r="3.5" fill="#ff0"/><path d="M109 7.5a3 3 0 1 1 0 6 3 3 0 0 1 0-6m0-1a4 4 0 1 0 0 8 4 4 0 0 0 0-8z" fill="#9E9E9E"/><circle cx="109" cy="19.5" r="3.5" fill="#ff0"/><path d="M109 16.5a3 3 0 1 1 0 6 3 3 0 0 1 0-6m0-1a4 4 0 1 0 0 8 4 4 0 0 0 0-8z" fill="#9E9E9E"/><path d="M64 98a10 10 0 0 1 10 10v13.6c-2.3.2-6.4.4-9.9.4H64c-5.2 0-8.2-.2-9.9-.3V108a10 10 0 0 1 10-10m0-2a12 12 0 0 0-12 12v15.5s2.6.5 12 .5h.1c5.4 0 11.9-.5 11.9-.5V108a12 12 0 0 0-12-12zm54.9-8.4v6h-2v-6h2m0-1h-2a1 1 0 0 0-1 1v6c0 .5.5 1 1 1h2c.6 0 1-.5 1-1v-6c0-.6-.5-1-1-1zm-10.7 7.2v6h-2v-6h2m0-1h-2a1 1 0 0 0-1 1v6c0 .6.5 1 1 1h2c.6 0 1-.4 1-1v-6c0-.5-.4-1-1-1zm-10.6 4.7v6h-2v-6h2m0-1h-2a1 1 0 0 0-1 1v6c0 .5.4 1 1 1h2c.5 0 1-.5 1-1v-6c0-.6-.5-1-1-1zM87 100v6h-2v-6h2m0-1h-2a1 1 0 0 0-1 1v6c0 .6.5 1 1 1h2c.6 0 1-.5 1-1v-6c0-.6-.5-1-1-1zM11 87.6v6H9v-6h2m0-1H9a1 1 0 0 0-1 1v6c0 .5.5 1 1 1h2c.6 0 1-.5 1-1v-6c0-.6-.5-1-1-1zm10.7 7.2v6h-2v-6h2m0-1h-2a1 1 0 0 0-1 1v6c0 .6.4 1 1 1h2c.5 0 1-.4 1-1v-6c0-.5-.5-1-1-1zm10.6 4.7v6h-2v-6h2m0-1h-2a1 1 0 0 0-1 1v6c0 .5.5 1 1 1h2c.6 0 1-.5 1-1v-6c0-.6-.4-1-1-1zM43 100v6h-2v-6h2m0-1h-2a1 1 0 0 0-1 1v6c0 .6.5 1 1 1h2c.6 0 1-.5 1-1v-6c0-.6-.5-1-1-1zm3-93a2 2 0 0 1 2 2v14a2 2 0 0 1-2 2H16a2 2 0 0 1-2-2V8c0-1.1.9-2 2-2h30m0-2H16a4 4 0 0 0-4 4v14a4 4 0 0 0 4 4h30a4 4 0 0 0 4-4V8a4 4 0 0 0-4-4zm66 2a2 2 0 0 1 2 2v14a2 2 0 0 1-2 2H82a2 2 0 0 1-2-2V8c0-1.1.9-2 2-2h30m0-2H82a4 4 0 0 0-4 4v14a4 4 0 0 0 4 4h30a4 4 0 0 0 4-4V8a4 4 0 0 0-4-4z" fill="#424242" opacity=".2"/></svg>