<svg viewBox="0 0 128 128" xmlns="http://www.w3.org/2000/svg"><path d="M46 52.5a4 4 0 0 0-3.1-.4c-.8 1.5-.4 3.7 4.8 6 9.7 4.5 2.4 5.2-.8 6.6s-8 4.4-1.2 5.7c6 1 26.6 0 34.3-1.8V65c-18-4-29.6-9.8-34-12.4z" fill="#FFAB00"/><linearGradient id="a" x1="42" x2="42" y1="53.1" y2="75.8" gradientUnits="userSpaceOnUse"><stop stop-color="#FFE57F" offset="0"/><stop stop-color="#FFE376" offset=".1"/><stop stop-color="#FFDC5C" offset=".3"/><stop stop-color="#FFD133" offset=".5"/><stop stop-color="#FFC400" offset=".8"/><stop stop-color="#FFC400" offset="1"/></linearGradient><path d="M45.7 70.4c-6.9-1.3-2-4.3 1.2-5.7s10.5-2.1.8-6.5c-5.2-2.4-5.6-4.6-4.8-6l-1 .3c-8.2 4.4-20 8.2-31.9 11.3a8 8 0 0 0-6 7.8v15.8h76V68.6c-7.7 1.8-28.3 2.9-34.3 1.8z" fill="url(#a)"/><path d="M44 55a123.9 123.9 0 0 0 33 12.3v17.1H7V71.6a5 5 0 0 1 3.8-4.9A160 160 0 0 0 43.9 55m0-3a4.1 4.1 0 0 0-2 .5c-8.2 4.4-20 8.2-31.9 11.3a8 8 0 0 0-6 7.8v15.8h76V65c-18-4-29.6-9.8-34-12.3a4 4 0 0 0-2-.6z" fill="#424242" opacity=".2"/><path d="M91.7 57.5c9.7 3.9 2.4 4.6-.8 5.8s-8 3.9-1.2 5c6 1 26.6 9.3 34.3 7.7v-6a8 8 0 0 0-6.2-7.9c-14.5-3.4-24-7.7-27.8-9.6-1-.5-2-.6-3.1-.4-.8 1.4-.4 3.3 4.8 5.4z" fill="#FFAB00"/><linearGradient id="b" x1="64" x2="64" y1="56.1" y2="80.3" gradientUnits="userSpaceOnUse"><stop stop-color="#FFE57F" offset="0"/><stop stop-color="#FFD43D" offset=".5"/><stop stop-color="#FFC400" offset="1"/></linearGradient><path d="M89.7 68.3c-6.9-1.1-2-3.7 1.2-5s10.5-2 .8-5.8c-5.2-2-5.6-4-4.8-5.4l-1 .3C60.9 64.2 4 71.4 4 71.4v12h120V76c-7.7 1.6-28.3-6.7-34.3-7.7z" fill="url(#b)"/><linearGradient id="c" x1="64" x2="64" y1="75.8" y2="62.4" gradientUnits="userSpaceOnUse"><stop stop-color="#ECAA63" offset="0"/><stop stop-color="#ECAA63" stop-opacity="0" offset=".8"/></linearGradient><path d="M117.8 62.1c-14.5-3.4-24-7.7-27.8-9.6a4.6 4.6 0 0 0-4 0c-25.2 11.7-82 19-82 19v12h120V70a8 8 0 0 0-6.2-7.9z" fill="url(#c)"/><path d="M88 55a127.7 127.7 0 0 0 29.2 10 5 5 0 0 1 3.8 5v10.4H7v-6.3c11.6-1.6 57.7-8.4 80.2-19a1.6 1.6 0 0 1 .7-.1m0-3a4.4 4.4 0 0 0-2 .4C60.9 64.2 4 71.4 4 71.4v12h120V70a8 8 0 0 0-6.2-7.8c-14.5-3.4-24-7.6-27.8-9.6-.7-.3-1.4-.5-2-.5z" fill="#424242" opacity=".2"/><radialGradient id="d" cx="63.7" cy="77.3" r="75.4" gradientUnits="userSpaceOnUse"><stop stop-color="#FFD740" offset="0"/><stop stop-color="#FFD33A" offset=".2"/><stop stop-color="#FFC729" offset=".4"/><stop stop-color="#FFB40D" offset=".6"/><stop stop-color="#FFAB00" offset=".7"/><stop stop-color="#FFAB00" offset="1"/></radialGradient><path fill="url(#d)" d="M4 72h120v52H4z"/><ellipse cx="22.9" cy="78.9" rx="1.5" ry=".9" fill="#FFB300"/><ellipse cx="12.1" cy="98.4" rx="1.5" ry=".9" fill="#FFB300"/><ellipse cx="49.3" cy="92.6" rx="1.5" ry=".9" fill="#FFB300"/><ellipse cx="28.6" cy="82.4" rx=".9" ry=".6" fill="#FFD54F"/><ellipse cx="46.6" cy="78.5" rx=".9" ry=".6" fill="#FFD54F"/><ellipse cx="54.2" cy="80.7" rx="1.5" ry=".9" fill="#FFC107"/><ellipse cx="74.7" cy="82.2" rx="1.5" ry=".9" fill="#FFC107"/><ellipse cx="12.7" cy="76.1" rx=".9" ry=".6" fill="#FFD54F"/><ellipse cx="11.5" cy="88.5" rx="1.4" ry=".8" fill="#FFC107"/><ellipse cx="20.2" cy="94.1" rx=".9" ry=".6" fill="#FFC107"/><ellipse cx="33.9" cy="80.5" rx="1.3" ry=".8" fill="#FFC107"/><ellipse cx="84.5" cy="77.1" rx="1.3" ry=".8" fill="#FFC107"/><ellipse cx="28.9" cy="94.8" rx="1.5" ry=".9" fill="#FFB300"/><ellipse cx="53.3" cy="98.1" rx="1.5" ry=".9" fill="#FFB300"/><ellipse cx="64" cy="106.4" rx="1.5" ry=".9" fill="#FFB300"/><ellipse cx="58.9" cy="91.8" rx=".9" ry=".6" fill="#FFD54F"/><ellipse cx="39" cy="89.4" rx="1.9" ry="1.2" fill="#FFB300"/><ellipse cx="67.8" cy="90.1" rx="1.5" ry=".9" fill="#FFC107"/><ellipse cx="67.8" cy="103.8" rx="1.5" ry=".9" fill="#FFC107"/><ellipse cx="72.8" cy="116.8" rx=".9" ry=".6" fill="#FFD54F"/><ellipse cx="38" cy="93.5" rx="1.4" ry=".8" fill="#FFC107"/><ellipse cx="44.8" cy="104.2" rx=".9" ry=".6" fill="#FFC107"/><ellipse cx="24.2" cy="99.1" rx="1.3" ry=".8" fill="#FFC107"/><ellipse cx="58.5" cy="110.8" rx="1.3" ry=".8" fill="#FFC107"/><ellipse cx="31.1" cy="111.3" rx="1.5" ry=".9" fill="#FFB300"/><ellipse cx="43.5" cy="116.7" rx="1.5" ry=".9" fill="#FFB300"/><ellipse cx="35.9" cy="99" rx=".9" ry=".6" fill="#FFD54F"/><ellipse cx="43.5" cy="111.2" rx=".9" ry=".6" fill="#FFD54F"/><ellipse cx="53" cy="117.2" rx=".9" ry=".6" fill="#FFD54F"/><ellipse cx="38.2" cy="106" rx="1.8" ry="1.1" fill="#FFB300"/><ellipse cx="60.6" cy="119.4" rx="1.5" ry=".9" fill="#FFC107"/><ellipse cx="27.6" cy="104.8" rx=".9" ry=".6" fill="#FFD54F"/><ellipse cx="23" cy="112.7" rx="2.1" ry="1.3" fill="#FFC107"/><ellipse cx="7.9" cy="100.4" rx=".9" ry=".6" fill="#FFC107"/><ellipse cx="34.6" cy="100.4" rx="1.3" ry=".8" fill="#FFC107"/><ellipse cx="18.9" cy="117.7" rx="1.5" ry=".9" fill="#FFB300"/><ellipse cx="10.4" cy="114" rx=".9" ry=".6" fill="#FFD54F"/><ellipse cx="32.3" cy="119.3" rx="1.4" ry=".8" fill="#FFC107"/><ellipse cx="20" cy="85.7" rx=".9" ry=".6" fill="#FFC107"/><ellipse cx="93" cy="76.4" rx="1.5" ry=".9" fill="#FFB300"/><ellipse cx="61.5" cy="83.8" rx="1.5" ry=".9" fill="#FFB300"/><ellipse cx="112.5" cy="78.9" rx="1.5" ry=".9" fill="#FFB300"/><ellipse cx="105.3" cy="76.3" rx=".9" ry=".6" fill="#FFD54F"/><ellipse cx="120.7" cy="82.8" rx="1.5" ry=".9" fill="#FFC107"/><ellipse cx="88.3" cy="82.3" rx="1.4" ry=".8" fill="#FFC107"/><ellipse cx="97" cy="87.9" rx=".9" ry=".6" fill="#FFC107"/><ellipse cx="108.6" cy="94" rx="1.3" ry=".8" fill="#FFC107"/><ellipse cx="116.5" cy="98.9" rx="1.5" ry=".9" fill="#FFB300"/><ellipse cx="95.6" cy="115.3" rx="1.5" ry=".9" fill="#FFB300"/><ellipse cx="104.4" cy="108.2" rx="1.5" ry=".9" fill="#FFB300"/><ellipse cx="88" cy="97.6" rx=".9" ry=".6" fill="#FFD54F"/><ellipse cx="95.5" cy="109.7" rx=".9" ry=".6" fill="#FFD54F"/><ellipse cx="100.8" cy="96.9" rx="1.9" ry="1.2" fill="#FFD54F"/><ellipse cx="74" cy="98.7" rx="1.9" ry="1.2" fill="#FFD54F"/><ellipse cx="89.8" cy="103.9" rx="1.2" ry=".7" fill="#FFB300"/><ellipse cx="114.8" cy="89.6" rx="1.5" ry=".9" fill="#FFC107"/><ellipse cx="110.9" cy="116.2" rx="1.5" ry=".9" fill="#FFC107"/><ellipse cx="87.2" cy="121.3" rx=".9" ry=".6" fill="#FFC107"/><path d="M121 75v46H7V75h114m3-3H4v52h120V72z" fill="#424242" opacity=".2"/><radialGradient id="e" cx="22.3" cy="14" r="23.9" gradientUnits="userSpaceOnUse"><stop stop-color="#ff0" offset="0"/><stop stop-color="#FFEA00" offset="1"/></radialGradient><path d="M22 36a14 14 0 1 1 0-28 14 14 0 0 1 0 28z" fill="url(#e)"/><path d="M22 12a10 10 0 1 1 0 20 10 10 0 0 1 0-20m0-8a18 18 0 1 0 0 36 18 18 0 0 0 0-36z" fill="#FFFF8D"/><radialGradient id="f" cx="113.9" cy="22.5" r="38.8" gradientUnits="userSpaceOnUse"><stop stop-color="#9CCC65" offset="0"/><stop stop-color="#9BCB64" offset="0"/><stop stop-color="#76AB44" offset=".5"/><stop stop-color="#689F38" offset=".8"/></radialGradient><path d="M114 22.3a7.4 7.4 0 0 0-7.6 7.2v14.1c0 3-4 6.8-7 7v13.1c11.6 0 22.3-9.3 22.3-20V29.4c0-4-3.3-7.2-7.6-7.2z" fill="url(#f)"/><path d="M114 25.3c2.7 0 4.7 1.8 4.7 4.2v14.1c0 8-7.4 15.4-16.2 16.9l-.2-7.7c3.8-1.5 7.1-5.6 7.1-9.2V29.5c0-2.4 2-4.2 4.7-4.2m0-3c-4.3 0-7.7 3.2-7.7 7.2v14.1c0 3-4 6.8-7 7v13.1c11.6 0 22.3-9.3 22.3-20V29.4c0-4-3.3-7.2-7.6-7.2z" fill="#424242" opacity=".2"/><path d="M112.6 26.8c-1.8.5-1.1 8-1.1 10.4 0 4-.5 7.8-1.7 11-1.3 3.4-4.5 7.4-8 7.9" fill="none" stroke="#558B2F" stroke-linecap="round" stroke-linejoin="round" stroke-miterlimit="10" stroke-width="1.5"/><path d="M116.5 27.4c1 6.6 1.1 8.1.3 13.3-.6 4.2-1.8 8.2-4.3 11.7s-6.8 5.9-10.8 7" fill="none" stroke="#558B2F" stroke-linecap="round" stroke-linejoin="round" stroke-miterlimit="10" stroke-width="1.5"/><path fill="#33691E" d="M112.9 20.3l1.3 2h-.4l1.4-2-1 2.2h-.4zm-7.1 4.1l1.2.3 1.1.4-.3.3-.2-1.2V23l.4 1.1.3 1.2-.4.3-1-.5-1-.7zm17.2 2.4l-1.2 2-.1-.3 2.3.4-2.4.1-.2-.4zm.5 9.8l-1.7 1.7v-.5l2 1.1-2.3-.6v-.4zm.1 8l-2 1.3v-.5l1.9 1.5-2.2-1v-.5z"/><g opacity=".5"><linearGradient id="g" x1="94.5" x2="109" y1="53.9" y2="43.1" gradientUnits="userSpaceOnUse"><stop stop-color="#33691E" offset="0"/><stop stop-color="#33691E" stop-opacity="0" offset="1"/></linearGradient><path d="M114 22.3a7.4 7.4 0 0 0-7.6 7.2v14.1c0 3-4 6.8-7 7v13.1c11.6 0 22.3-9.3 22.3-20V29.4c0-4-3.3-7.2-7.6-7.2z" fill="url(#g)"/></g><path d="M22 7a15 15 0 1 1 0 30 15 15 0 0 1 0-30m0-3a18 18 0 1 0 0 36 18 18 0 0 0 0-36z" fill="#424242" opacity=".2"/><radialGradient id="h" cx="91.5" cy="6.1" r="85.8" gradientUnits="userSpaceOnUse"><stop stop-color="#9CCC65" offset="0"/><stop stop-color="#689F38" offset="1"/></radialGradient><path d="M91.4 6c-6.3 0-11.3 5-11.3 11.2L81.5 92H102l1-74.8c0-6.2-5.1-11.3-11.5-11.3z" fill="url(#h)"/><path d="M91.4 9c4.7 0 8.4 3.6 8.4 8.2L99 89H84.5L83 17.2c0-4.7 3.7-8.3 8.3-8.3m0-3C85 5.9 80 10.9 80 17.2L81.5 92H102l1-74.8c0-6.2-5.2-11.3-11.5-11.3z" fill="#424242" opacity=".2"/><path d="M87.6 11.4C83.9 14.2 85 25.5 85.2 31c.2 19.3 1.4 37 1.6 56.3m6-77.1c.6 2.4.4 3.5.4 6l.3 41.8c.1 9.8.7 21.2.6 30.2M97.3 16l-.6 41.9c-.1 9.8.2 21.2 0 30.2" fill="none" stroke="#689F38" stroke-linecap="round" stroke-linejoin="round" stroke-miterlimit="10" stroke-width="1.5"/><path d="M78 23.7h2.3l-.2.4a9 9 0 0 1-.5-1.1l-.4-1.2.7 1c.3.3.5.7.6 1l-.2.4c-.4 0-.8 0-1.2-.2a7 7 0 0 1-1.1-.3zm.7 12.6l1.2-.1h1.2l-.3.4a9 9 0 0 1-.5-1l-.3-1.2.7 1 .6 1-.3.4-1.2-.2-1.1-.3zm.3 17.5h2.5l-.2.4a9 9 0 0 1-.5-1.2l-.4-1.1.8 1 .5 1-.2.4-1.2-.2a7 7 0 0 1-1.1-.3zm5 1.7l1.1-.1h1.2l-.3.4a9 9 0 0 1-.4-1l-.4-1.2.7 1 .6 1-.3.4-1.1-.2a7 7 0 0 1-1.2-.3zm.6 25.9H87l-.3.4a9 9 0 0 1-.5-1.1l-.3-1.2.7 1 .6 1-.3.4-1.2-.2c-.4 0-.7-.1-1.1-.3zm-.8-45.1l1.2-.1h1l-.2.4a15.4 15.4 0 0 1-.9-2.3l.7 1 .6 1-.2.4-1.2-.1-1.2-.3zM81.1 9.5l1.2-.1h1.2l-.2.4a9 9 0 0 1-.5-1l-.4-1.3.7 1 .6 1.1-.3.4-1.1-.2a7 7 0 0 1-1.2-.3zm5.6-5l1 .8.8.9H88l.4-1L89 4l-.1 1.2-.3 1.2-.4.1a9.6 9.6 0 0 1-1.4-2zm10 .4l.4 2.4-.4-.2 2-1.2L97 7.5l-.4-.2zm7.1 28l-1.3 2-.2-.4 2.4.5h-2.4l-.2-.4zm-6 35.5l-1.2 2.1-.2-.4 2.4.4-2.4.1-.2-.4zm5.6-2.6l-1.2 2.1-.2-.4 2.3.5H102l-.2-.4zm.5 9.7l-2 1.5v-.4l2.1 1.2-2.3-.8v-.4zm0 7.7l-2 1.5v-.5l2.1 1.3-2.3-.8v-.4zm-.1-41.9l-1.3 2-.2-.4 2.4.5h-2.4l-.2-.4zm-6.4-17.8v2.4l-.4-.3 2.3-.8-2 1.3-.5-.3z" fill="#33691E"/><radialGradient id="i" cx="68.6" cy="26.6" r="48.8" gradientUnits="userSpaceOnUse"><stop stop-color="#9CCC65" offset="0"/><stop stop-color="#689F38" offset="1"/></radialGradient><path d="M85.7 64.5c-2.7-.3-10-1.2-10-9.6V33.7a7 7 0 1 0-14 0v21.1c-.2 14.8 11 22 24 22V64.5z" fill="url(#i)"/><path d="M68.6 29.6a4 4 0 0 1 4 4.1V55c0 6.5 3.7 10.8 10.1 12.2v6.5c-4.7-.4-9-2-12-4.6-4-3.3-6.2-8.1-6.2-14.2v-21a4 4 0 0 1 4-4.2m0-3a7 7 0 0 0-7 7.1v21.1c0 14.8 11.2 22 24.2 22V64.5c-2.7-.3-10-1.2-10-9.6V33.7a7 7 0 0 0-7.1-7.1z" fill="#424242" opacity=".2"/><path d="M66 32c.1 6.5 0 13-.2 19.6 0 2-.2 4 .3 6a22.5 22.5 0 0 0 4 8.1 16 16 0 0 0 11.7 6" fill="none" stroke="#689F38" stroke-linecap="round" stroke-linejoin="round" stroke-miterlimit="10" stroke-width="1.5"/><path d="M60 32.3h2.4l-.3.4a9 9 0 0 1-.4-1.1l-.4-1.2.7 1 .6 1-.3.4c-.4 0-.7 0-1.1-.2l-1.2-.3zm9-7.3l.8 2.3-.4-.1 1.8-1.6-1.4 2-.5-.2zm7 5.1l-.8 2.3-.3-.4h2.4l-2.3.5-.3-.3zM77 48l-1.5 1.8-.1-.4 2.2.8-2.3-.3-.1-.5zm-13.6-9.7l1.2-.1h1.2l-.3.4a9 9 0 0 1-.4-1.1l-.4-1.2.7 1 .6 1-.3.5-1.1-.2-1.2-.4zm-3.9 7.3l1.2-.4c.3-.2.7-.2 1.1-.3l-.1.4-.8-.9-.7-1 1 .7.8.9v.4l-1.3.2h-1.2zm3.5 4.3h2.3l-.2.4a9 9 0 0 1-.5-1.2c-.1-.3-.3-.7-.3-1.1l.7 1 .5 1-.2.4-1.2-.2A7 7 0 0 1 63 50zm-3.4 7.6l1.1-.5 1.1-.4v.4l-1-.8-.7-1 1 .7 1 .8-.1.4-1.2.3h-1.2zM86 69.8l1.2-.1h1.2l-.3.4a9 9 0 0 1-.5-1.1l-.3-1.2.7 1 .6 1-.3.5-1.2-.2a7 7 0 0 1-1.1-.3z" fill="#33691E"/></svg>