<svg viewBox="0 0 128 128" xmlns="http://www.w3.org/2000/svg" xmlns:xlink="http://www.w3.org/1999/xlink"><radialGradient id="a" cx="63" cy="12.125" r="25.024" gradientTransform="matrix(0 1.1125 -1.9256 0 86.348 -59.298)" gradientUnits="userSpaceOnUse"><stop stop-color="#eee" offset="0"/><stop stop-color="#eee" offset=".547"/><stop stop-color="#DFDFDF" offset=".716"/><stop stop-color="#BDBDBD" offset="1"/></radialGradient><path fill="url(#a)" d="M40 12.88l-4 22.24h56l-4-22.24z"/><path d="M55 28h-2c-.55 0-1-.45-1-1v-6c0-.55.45-1 1-1h2c.55 0 1 .45 1 1v6c0 .55-.45 1-1 1zM66 28h-4c-1.1 0-2-.9-2-2v-4c0-1.1.9-2 2-2h4c1.1 0 2 .9 2 2v4c0 1.1-.9 2-2 2zM75 28h-2c-.55 0-1-.45-1-1v-6c0-.55.45-1 1-1h2c.55 0 1 .45 1 1v6c0 .55-.45 1-1 1z" fill="#546E7A"/><path d="M85.49 15.88l2.92 16.25H39.59l2.92-16.25h42.98m2.51-3H40l-4 22.25h56l-4-22.25z" fill="#424242" opacity=".2"/><radialGradient id="b" cx="64" cy="4.5" r="16.668" gradientTransform="matrix(0 1 -2.9978 0 77.49 -59.5)" gradientUnits="userSpaceOnUse"><stop stop-color="#546E7A" offset="0"/><stop stop-color="#435761" offset=".35"/><stop stop-color="#37474F" offset=".659"/><stop stop-color="#37474F" offset="1"/></radialGradient><path d="M89.13 12c-.7 0-1.35-.37-1.71-.97l-3.76-6.27c-.27-.45-1.23-.76-2.33-.76H46.67c-1.1 0-2.06.31-2.33.76l-3.76 6.27c-.36.6-1.01.97-1.71.97h-4.98c-.67 0-1.18.65-.96 1.28A4.01 4.01 0 0 0 36.72 16H92a4.01 4.01 0 0 0 3.79-2.72c.21-.63-.29-1.28-.96-1.28h-5.7z" fill="url(#b)"/><path d="M81.33 7c.06 0 .12 0 .18.01l3.34 5.57c.09.15.19.29.29.43H42.87c.1-.14.2-.28.29-.43l3.34-5.57c.05-.01.11-.01.17-.01h34.66m0-3H46.67c-1.1 0-2.06.31-2.33.76l-3.76 6.27c-.36.6-1.01.97-1.71.97h-4.98c-.67 0-1.18.65-.96 1.28A4.01 4.01 0 0 0 36.72 16H92a4.01 4.01 0 0 0 3.79-2.72c.21-.63-.29-1.28-.96-1.28h-5.69c-.7 0-1.35-.37-1.71-.97l-3.76-6.27c-.28-.45-1.24-.76-2.34-.76z" fill="#424242" opacity=".2"/><linearGradient id="c" x1="64" x2="64" y1="33.625" y2="23.476" gradientUnits="userSpaceOnUse"><stop stop-color="#9E9E9E" offset="0"/><stop stop-color="#9E9E9E" stop-opacity="0" offset="1"/></linearGradient><path fill="url(#c)" d="M40 12.88l-4 22.24h56l-4-22.24z"/><linearGradient id="d" x1="64" x2="64" y1="37.531" y2="68.474" gradientUnits="userSpaceOnUse"><stop stop-color="#E0E0E0" offset="0"/><stop stop-color="#D1D1D1" offset=".327"/><stop stop-color="#BDBDBD" offset=".662"/><stop stop-color="#BDBDBD" offset="1"/></linearGradient><path fill="url(#d)" d="M105 64.75H23l3.73-25.13h74.54z"/><linearGradient id="e" x1="64" x2="64" y1="62.071" y2="47.859" gradientUnits="userSpaceOnUse"><stop stop-color="#9E9E9E" offset="0"/><stop stop-color="#9E9E9E" stop-opacity="0" offset="1"/></linearGradient><path fill="url(#e)" d="M105 64.75H23l3.73-25.13h74.54z"/><path d="M98.68 42.62l2.84 19.12H26.48l2.84-19.12h69.36m2.59-3H26.73L23 64.75h82l-3.73-25.13z" fill="#424242" opacity=".2"/><radialGradient id="f" cx="64.167" cy="31.833" r="19.501" gradientTransform="matrix(0 1 -3.5703 0 177.82 -32.333)" gradientUnits="userSpaceOnUse"><stop stop-color="#546E7A" offset="0"/><stop stop-color="#475D67" offset=".225"/><stop stop-color="#37474F" offset=".555"/><stop stop-color="#37474F" offset="1"/></radialGradient><path d="M105.24 40a2 2 0 0 1-1.79-1.11l-2.99-5.98c-.27-.54-1.04-.91-1.9-.91H29.44c-.86 0-1.63.37-1.9.91l-2.99 5.98A2 2 0 0 1 22.76 40h-5.59c-.67 0-1.18.65-.96 1.28A4.01 4.01 0 0 0 20 44h88a4.01 4.01 0 0 0 3.79-2.72c.21-.63-.29-1.28-.96-1.28h-5.59z" fill="url(#f)"/><path d="M98.15 35l2.62 5.24c.14.27.29.53.47.76H26.77c.18-.24.33-.49.47-.76L29.85 35h68.3m.41-3H29.44c-.86 0-1.63.37-1.9.91l-2.99 5.98A2 2 0 0 1 22.76 40h-5.59c-.67 0-1.18.65-.96 1.28A4.01 4.01 0 0 0 20 44h88a4.01 4.01 0 0 0 3.79-2.72c.21-.63-.29-1.28-.96-1.28h-5.59a2 2 0 0 1-1.79-1.11l-2.99-5.98c-.28-.54-1.04-.91-1.9-.91z" fill="#424242" opacity=".2"/><defs><path id="g" d="M110.83 40h-5.59a2 2 0 0 1-1.79-1.11l-2.99-5.98c-.27-.54-1.04-.91-1.9-.91H29.44c-.86 0-1.63.37-1.9.91l-2.99 5.98A2 2 0 0 1 22.76 40h-5.59c-.67 0-1.18.65-.96 1.28A4.01 4.01 0 0 0 20 44h6.08L23 64.75h82L101.92 44H108a4.01 4.01 0 0 0 3.79-2.72c.21-.63-.29-1.28-.96-1.28z"/></defs><radialGradient id="h" cx="63.237" cy="95.158" r="30.268" gradientTransform="matrix(0 1 -2.132 0 266.11 31.92)" gradientUnits="userSpaceOnUse"><stop stop-color="#A1887F" offset=".005"/><stop stop-color="#9E847B" offset=".264"/><stop stop-color="#94786E" offset=".543"/><stop stop-color="#856458" offset=".83"/><stop stop-color="#795548" offset="1"/></radialGradient><path fill="url(#h)" d="M124 124H4l8-28h104z"/><defs><path id="i" d="M124 124H4l8-28h104z"/></defs><clipPath id="j"><use xlink:href="#i"/></clipPath><path clip-path="url(#j)" fill="#A1887F" d="M85.25 88.96l.33 5.42 1.21 1 7.46-5.46.67-2.04z"/><path clip-path="url(#j)" fill="#A1887F" d="M91.88 90.5l6 4 1.66 2.21 3.75-1.59 1.63-4.33z"/><path clip-path="url(#j)" fill="#A1887F" d="M105 90.46l-1.62 3.33 1.29 1.59 2.5.45 3.66-3.16-.95-3.46z"/><path d="M80.11 123.48c.92.09 1.44 1.11.96 1.91l-.62 1.05.86.51 4-6.7c.12-.2.29-.36.49-.47l1.3-.69c.72-.38 1.6 0 1.82.78l1.63 5.94c.15.56.67.95 1.26.93l5.74-.16c.58-.02 1.08-.43 1.2-1l1.45-6.71c.06-.26 0-.54-.15-.77l-.1-.16c-.3-.46-.18-1.07.27-1.38l2.56-1.74c.51-.35 1.19-.28 1.62.16l2.75 2.83c.26.27.39.63.35 1l-.67 6.94 1 .1.63-6.55c.05-.52.41-.95.91-1.1l2.91-.83c.26-.07.54-.06.8.04l3.26 1.25c.49.19.81.65.81 1.17l.05 6.47 1-.01-.06-6.83c0-.46.24-.88.63-1.11l4.55-2.63-.5-.87-4.9 2.83a1.3 1.3 0 0 1-1.09.09l-2.5-.96c-.6-.23-.93-.87-.77-1.49l.48-1.89c.11-.45.47-.8.92-.92l4.59-1.15c.18-.04.37-.05.55-.01l4.43.86.19-.98-4.65-.9c-.18-.04-.37-.03-.55.01l-4.55 1.14c-.55.14-1.12-.11-1.4-.59l-.37-.63c-.32-.55-.18-1.25.33-1.64l3.6-2.76c.22-.17.49-.26.77-.26h7.59v-1h-7.55c-.5 0-.95-.29-1.15-.74l-4.87-10.74a1.27 1.27 0 0 1 .28-1.44l.88-.84-.69-.73c-.63.6-1.66.39-2.02-.4l-.74-1.63-.91.41 1.24 2.74c.22.49.11 1.07-.28 1.44l-2.32 2.2c-.29.28-.7.4-1.1.33l-1.14-.21a1.263 1.263 0 0 1-.9-1.82l1.35-2.66-.89-.45-2.23 4.41c-.13.26-.34.46-.6.58l-1.3.23c-.61.11-1.24-.06-1.71-.47l-4.73-4.01c-.45-.38-1.09-.4-1.56-.06l-4.4 3.2c-.79.57-1.9.08-2.01-.89l-.38-3.63-.99.1.88 8.39c.07.69-.42 1.31-1.11 1.39l-8.56 1.03c-.21.03-.43 0-.63-.08l-6.44-2.61c-.58-.23-.9-.85-.76-1.46l1.12-4.8c.19-.81-.45-1.58-1.28-1.55l-23.29.89-.18-.38-.41.46-9.88-.76v-.01h-.11l-1.19-.09.01.13-9.86.31c-.95.03-1.53 1.06-1.06 1.88l2.71 4.83c.33.6.13 1.35-.45 1.7l-6.44 3.89c-.09.06-.19.1-.3.13l-4.26 1.25c-.54.16-1.12-.06-1.42-.53L4.42 91.92l-.84.54L11 104.11c.32.51.25 1.17-.18 1.59L9.49 107c-.4.39-.5 1-.23 1.5l1.37 2.61c.31.59.11 1.33-.47 1.67l-5.08 3.07c-.56.34-.77 1.04-.49 1.63l3.83 8c.19.39.55.65.98.71l3.31.43c.57.07 1.13-.25 1.34-.79l1.39-3.5c.16-.41.53-.71.97-.78l4.32-.7c.63-.1 1.24.28 1.42.9l1.65 5.69c.19.66.87 1.05 1.53.87l4-1.04c.36-.09.66-.34.82-.68l2.58-5.4c.28-.59.98-.87 1.59-.64l3.68 1.4c.25.1.53.11.79.04l10.38-2.86c.42-.12.87-.01 1.19.28l8.22 7.47.67-.74-6.9-6.28c-.72-.66-.46-1.86.48-2.15l3.25-1.01c1.34-.36 10.84.48 10.84.48.61.03 1.11.49 1.19 1.1l1.06 8.1.99-.13-.29-2.23c-.11-.81.57-1.51 1.38-1.42m30.26-13.07l-2.54-1.65c-.66-.43-.77-1.35-.24-1.93l1.01-1.09c.23-.25.55-.39.89-.4l3.24-.1c.68-.02 1.25.49 1.3 1.17l.1 1.22c.03.39-.12.78-.42 1.04l-1.81 1.62c-.42.38-1.05.43-1.53.12zm-27.28 1.15l-3.37-4.36a1.27 1.27 0 0 1 .3-1.83l4.44-2.94c.16-.11.35-.18.55-.2l1.7-.2c.5-.06.98.18 1.24.61l4.3 7.2c.35.59.17 1.34-.4 1.71l-.85.55c-.22.14-.48.21-.74.2l-6.21-.24c-.38-.02-.73-.2-.96-.5zm15.82-2.77l3.17 1.17c.63.23.96.91.78 1.55l-1.13 3.83c-.1.33-.32.6-.62.76l-5.63 2.99c-.66.35-1.47.06-1.76-.63l-1.87-4.47c-.24-.57-.03-1.22.48-1.55l5.47-3.52c.32-.22.74-.26 1.11-.13zm4.03.43l-3.58-1.32c-.51-.19-.85-.69-.83-1.23l.08-2.48c.02-.61.48-1.12 1.08-1.21l5.98-.87c.58-.08 1.15.24 1.36.79l.56 1.42c.18.45.08.97-.25 1.33l-3.04 3.26c-.34.36-.88.49-1.36.31zm14.12-8.59l4.69-.15c.51-.02.98.28 1.19.74l1.81 4c.24.54.08 1.17-.38 1.53l-3.09 2.36c-.33.25-.76.33-1.16.2l-4.18-1.35c-.49-.16-.83-.59-.87-1.11l-.16-2.01 2.15-4.21zm3.2-1.11l-1.97.06c-.57.02-1.09-.35-1.25-.89l-.32-1.04c-.14-.46-.01-.96.34-1.29l1.29-1.22c.63-.6 1.66-.39 2.02.4l.99 2.19c.39.83-.2 1.76-1.1 1.79zm-11.99.28c.1-1.06.77-1.99 1.74-2.44l1.73-.79.09-.04.02-.01 2.91.53c.47.08.85.42.98.88l.41 1.35c.1.32.07.66-.08.95l-1.7 3.31c-.21.41-.63.67-1.09.69l-3.71.12c-.54.02-1.02-.3-1.22-.8l-.16-1.02c-.08-.51-.1-1.03-.05-1.54l.13-1.19zm-5.36-6.83l4.01 3.4c.31.26.47.65.44 1.05l-.16 2.44c-.04.6-.49 1.08-1.08 1.17l-7.31 1.06c-.33.05-.66-.03-.93-.23l-1.78-1.3c-.29-.21-.48-.53-.51-.89l-.17-1.65c-.05-.45.15-.89.51-1.16l5.42-3.95c.47-.34 1.11-.32 1.56.06zm-7.47 8.35l1.68 1.23c.34.25.53.65.52 1.07l-.12 3.64c-.01.42-.23.8-.58 1.02l-2.11 1.36c-.6.39-1.41.2-1.77-.42l-3.43-5.75c-.47-.79.03-1.8.94-1.91l3.99-.48c.3-.03.62.05.88.24zm-17.72 4.25l-9.56 1.59c-.79.13-1.5-.49-1.47-1.29l.08-2.51c.02-.51.34-.96.82-1.14l8.12-3.06c.3-.11.63-.11.92.01l4.57 1.86c.94.38 1.07 1.67.22 2.23l-3.21 2.13c-.15.09-.32.15-.49.18zm-14.12 5.84l2.46-2.63c.19-.2.44-.34.72-.38l1.66-.28c.84-.14 1.58.57 1.46 1.42l-.81 6c-.09.65-.66 1.13-1.32 1.1l-1.66-.09c-.44-.02-.83-.27-1.04-.65l-1.66-3.01c-.26-.48-.18-1.08.19-1.48zm-13.15.47l-2.6.59c-.46.1-.94-.06-1.24-.41l-2.97-3.48c-.38-.45-.41-1.09-.06-1.57l1.99-2.73c.32-.44.9-.63 1.42-.46l4.64 1.52c.64.21 1 .87.83 1.52l-1.06 4.1c-.12.46-.49.82-.95.92zm-10.24 4.11l-3.45-.77c-.41-.09-.75-.38-.9-.77l-1.26-3.18c-.18-.44-.09-.95.23-1.31l1.21-1.36c.27-.3.66-.45 1.06-.42l4.76.42c.33.03.64.19.85.44l2.31 2.71c.51.59.36 1.5-.31 1.9l-3.58 2.18c-.26.17-.6.23-.92.16zm-9.71 4.56l-4.04.66c-.8.13-1.51-.51-1.47-1.32l.26-4.63c.02-.33.16-.63.4-.86l3.79-3.54.11-.09 3.03.13c.5.02.94.33 1.12.8l1.19 3.03c.17.43.09.92-.2 1.27l-3.41 4.12c-.2.23-.48.39-.78.43zM34.11 99.2l1.51.8c.32.17.55.47.64.83l.13.56c.08.36.01.74-.21 1.04l-2.79 3.83c-.27.37-.71.56-1.17.51l-3.89-.44c-.37-.04-.7-.25-.91-.56l-2.93-4.39c-.4-.6-.22-1.41.4-1.79l1.11-.67c.21-.13.46-.19.71-.18l6.86.31c.19.01.38.06.54.15zm9.11 4.35l-5.06-1.66c-.42-.14-.74-.48-.84-.91l-.05-.22c-.1-.42.02-.86.32-1.17l5.55-5.76c.61-.64 1.68-.46 2.06.34l1.66 3.52c.17.35.16.77-.02 1.12l-2.11 4.13c-.27.54-.92.81-1.51.61zm-19.19 5.44l-2.3-.21c-.45-.04-.84-.31-1.03-.72l-1.67-3.53c-.29-.6-.05-1.33.53-1.65l2.44-1.35c.58-.32 1.3-.14 1.67.41l2.59 3.89c.32.48.28 1.11-.11 1.55l-1.06 1.19c-.26.3-.66.45-1.06.42zm21-4.43l2.38-4.66c.28-.55.91-.81 1.5-.64l7.1 2.16c.55.17.92.68.9 1.25l-.13 3.77c-.01.31-.13.6-.34.82l-2.44 2.6c-.37.39-.94.51-1.43.29l-7.1-3.12c-.57-.25-.87-.88-.72-1.48l.2-.76c.01-.07.04-.15.08-.23zm21.22-7.13l-8.49 3.2c-.26.1-.55.11-.82.03l-8.3-2.53c-.34-.1-.62-.35-.78-.67l-2.71-5.72.02-.02 21.53-.82c.83-.03 1.47.74 1.28 1.55l-.95 4.08c-.09.41-.38.75-.78.9zm-24.72-3.76l-4.41 4.91c-.39.43-1.02.54-1.54.27l-.7-.37c-.4-.21-.65-.62-.67-1.07l-.14-3.61v-.1l.05-1.32c.03-.72.65-1.27 1.36-1.21l5.2.4c1.05.07 1.55 1.32.85 2.1zm-8.47.12l-.12 3.06c-.03.71-.64 1.26-1.35 1.21l-4.38-.29c-.41-.03-.78-.25-1-.6l-2.38-3.91c-.51-.83.07-1.89 1.04-1.93l6.83-.22c.7-.02 1.28.52 1.31 1.22l.05 1.35v.11zm-20.12 11.44l3.63-1.07c.6-.18 1.24.11 1.5.67l2.01 4.24-.2.19-3.59 3.2c-.31.27-.73.38-1.13.29l-1.99-.47-.94-.31-1.73-3.28c-.26-.5-.17-1.1.23-1.5l1.68-1.65c.15-.15.33-.25.53-.31zm-.86 20.28l-2-.26a1.29 1.29 0 0 1-.98-.71l-3.21-6.69c-.28-.59-.07-1.29.49-1.63l4.95-2.99c.28-.17.62-.22.94-.15l.56.13c.04.01.07.02.1.03l1.53.5c.55.18.91.71.87 1.28l-.36 5.62c-.01.13-.04.26-.09.39l-1.47 3.69c-.21.54-.76.87-1.33.79zm16.56.9l-2.6.67a1.27 1.27 0 0 1-1.53-.87L23 120.97c-.12-.4-.03-.84.24-1.16l3.34-4.04c.3-.37.79-.53 1.25-.43l2.81.63c.43.1.78.41.92.83l.74 2.18c.11.31.09.65-.06.95l-2.77 5.8c-.17.34-.47.59-.83.68zm9.44-5.52l-4.12-1.56c-.35-.13-.63-.42-.75-.78l-.51-1.52c-.19-.56.03-1.18.54-1.49l4.37-2.66c.13-.08.26-.13.41-.16l3.88-.79c.41-.08.84.04 1.14.33l4.42 4.31c.7.68.4 1.87-.55 2.13l-8.04 2.22c-.27.08-.54.07-.79-.03zm11.28-3.84l-5.54-5.4c-.33-.32-.46-.78-.34-1.22l.36-1.39c.2-.75 1.02-1.16 1.73-.84l7.17 3.15c.26.11.47.31.6.55l1.42 2.58c.39.7.03 1.58-.73 1.82l-3.42 1.06c-.44.13-.92.01-1.25-.31zm11.91-2.54l.91-6.79c.07-.55.5-.99 1.05-1.08l5.12-.85c.46-.08.92.11 1.21.48l3.27 4.24c.39.51.34 1.22-.11 1.67L69 115.87c-.25.25-.6.38-.96.36l-5.58-.29a1.26 1.26 0 0 1-1.19-1.43zm20.58 8.14l-11.3-1.13c-.59-.06-1.05-.51-1.13-1.1l-.33-2.53c-.05-.39.08-.79.37-1.06l4.35-4.3c.25-.25.59-.38.94-.37l6.05.24c.49.02.93.32 1.12.78l2.41 5.76c.15.37.12.79-.08 1.14l-1.17 1.96c-.26.42-.74.65-1.23.61zm14.88 2.95l-4.17.11c-.58.02-1.1-.37-1.26-.93l-1.63-5.95c-.16-.57.1-1.18.63-1.45l2.63-1.25c.29-.14.61-.17.92-.08l3.95 1.06c.3.08.56.26.73.52l.39.59c.19.29.26.64.18.97l-1.17 5.41c-.12.57-.62.98-1.2 1zm1.49-9.42l-3.22-.86c-.69-.18-1.09-.9-.89-1.58l1.14-3.85c.06-.19.15-.36.29-.5l1.05-1.02c.3-.29.77-.34 1.12-.11l4.22 2.74c.25.16.44.41.52.7l.27.9c.16.53-.05 1.1-.5 1.41l-2.95 2.01c-.31.19-.69.26-1.05.16zm13.35.37l-2.63.75c-.45.13-.93 0-1.25-.34l-3.32-3.09c-.2-.19-.35-.43-.43-.7l-.52-1.76c-.14-.47 0-.98.37-1.3l2.49-2.23-.01-.02 4.95 1.6c.3.1.55.3.71.57l1.11 1.92c.17.29.21.63.13.95l-.7 2.75c-.13.43-.46.77-.9.9z" clip-path="url(#j)" fill="#D7CCC8"/><radialGradient id="k" cx="63.5" cy="71.77" r="32" gradientTransform="matrix(0 1.164 -2.032 0 209.33 -6.114)" gradientUnits="userSpaceOnUse"><stop stop-color="#eee" offset="0"/><stop stop-color="#eee" offset=".427"/><stop stop-color="#BDBDBD" offset="1"/></radialGradient><path fill="url(#k)" d="M12 68.06h104V96H12z"/><path d="M26 88h-4c-1.1 0-2-.9-2-2v-4c0-1.1.9-2 2-2h4c1.1 0 2 .9 2 2v4c0 1.1-.9 2-2 2zM42 88h-4c-1.1 0-2-.9-2-2v-4c0-1.1.9-2 2-2h4c1.1 0 2 .9 2 2v4c0 1.1-.9 2-2 2zM58 88h-4c-1.1 0-2-.9-2-2v-4c0-1.1.9-2 2-2h4c1.1 0 2 .9 2 2v4c0 1.1-.9 2-2 2zM74 88h-4c-1.1 0-2-.9-2-2v-4c0-1.1.9-2 2-2h4c1.1 0 2 .9 2 2v4c0 1.1-.9 2-2 2zM90 88h-4c-1.1 0-2-.9-2-2v-4c0-1.1.9-2 2-2h4c1.1 0 2 .9 2 2v4c0 1.1-.9 2-2 2zM106 88h-4c-1.1 0-2-.9-2-2v-4c0-1.1.9-2 2-2h4c1.1 0 2 .9 2 2v4c0 1.1-.9 2-2 2z" fill="#546E7A"/><path d="M113 71.06v25.36l.12.4 6.91 24.18H7.98l6.91-24.18.12-.4V71.06H113m3-3H12V96l-8 28h120l-8-28V68.06z" fill="#424242" opacity=".2"/><radialGradient id="l" cx="63" cy="58.833" r="18.276" gradientTransform="matrix(0 1 -3.7024 0 280.82 -4.167)" gradientUnits="userSpaceOnUse"><stop stop-color="#546E7A" offset="0"/><stop stop-color="#37474F" offset=".748"/><stop stop-color="#37474F" offset="1"/></radialGradient><path d="M115.45 66.89l-2.34-4.68a3.99 3.99 0 0 0-3.58-2.21H18.47c-1.52 0-2.9.86-3.58 2.21l-2.34 4.68A2 2 0 0 1 10.76 68H5.17c-.67 0-1.17.65-.96 1.28A4.01 4.01 0 0 0 8 72h112a4.01 4.01 0 0 0 3.79-2.72c.21-.63-.29-1.28-.96-1.28h-5.1c-1.25 0-1.94-.43-2.28-1.11z" fill="url(#l)"/><path d="M109.53 63c.38 0 .72.21.89.55l2.34 4.68c.11.23.27.49.47.76H14.77c.18-.24.33-.49.47-.76l2.34-4.68c.17-.34.51-.55.89-.55h91.06m0-3H18.47c-1.52 0-2.9.86-3.58 2.21l-2.34 4.68A2 2 0 0 1 10.76 68H5.17c-.67 0-1.17.65-.96 1.28A4.01 4.01 0 0 0 8 72h112a4.01 4.01 0 0 0 3.79-2.72c.21-.63-.29-1.28-.96-1.28h-5.1c-1.26 0-1.95-.43-2.29-1.11l-2.34-4.68a3.994 3.994 0 0 0-3.57-2.21z" fill="#424242" opacity=".2"/><radialGradient id="m" cx="63.5" cy="55.554" r="16.231" gradientTransform="matrix(0 1.0936 -2.4141 0 197.61 -13.819)" gradientUnits="userSpaceOnUse"><stop stop-color="#eee" offset="0"/><stop stop-color="#eee" offset=".547"/><stop stop-color="#DFDFDF" offset=".716"/><stop stop-color="#BDBDBD" offset="1"/></radialGradient><path d="M94.95 69.24H33.04c-.58 0-1.05-.47-1.05-1.05V51.87h64v16.32c.01.58-.46 1.05-1.04 1.05z" fill="url(#m)"/><path d="M93 54.87v11.36H35V54.88l58-.01m3-3H32v16.32c0 .58.47 1.05 1.05 1.05h61.91c.58 0 1.05-.47 1.05-1.05V51.87H96z" fill="#424242" opacity=".2"/><radialGradient id="n" cx="64.167" cy="41.333" r="21.476" gradientTransform="matrix(0 1.3194 -3.2878 0 200.06 -48.016)" gradientUnits="userSpaceOnUse"><stop stop-color="#546E7A" offset="0"/><stop stop-color="#475D67" offset=".206"/><stop stop-color="#37474F" offset=".508"/><stop stop-color="#37474F" offset="1"/></radialGradient><path d="M98.83 50.72h-4.81a9.99 9.99 0 0 1-3.68-.71L66.26 40.6a6.166 6.166 0 0 0-4.55 0l-24.04 9.41c-1.2.47-2.44.71-3.69.71h-4.8c-.67 0-1.18.86-.96 1.69C28.75 54.5 30.24 56 32 56h64c1.76 0 3.25-1.5 3.79-3.58.21-.84-.29-1.7-.96-1.7z" fill="url(#n)"/><path d="M56 69.24h-4v-7c0-.55.45-1 1-1h2c.55 0 1 .45 1 1v7zM50 69.24h-4v-7c0-.55.45-1 1-1h2c.55 0 1 .45 1 1v7zM68 69.24h-8v-6c0-1.1.9-2 2-2h4c1.1 0 2 .9 2 2v6zM76 69.24h-4v-7c0-.55.45-1 1-1h2c.55 0 1 .45 1 1v7zM82.18 69.24h-4v-7c0-.55.45-1 1-1h2c.55 0 1 .45 1 1v7z" fill="#546E7A"/><path d="M63.98 43.17c.39 0 .79.08 1.18.23l24.08 9.42c.17.07.34.13.51.19H38.24c.17-.06.35-.12.52-.19L62.8 43.4c.39-.16.79-.23 1.18-.23m0-3c-.77 0-1.53.15-2.28.44l-24.04 9.41c-1.2.47-2.44.71-3.69.71h-4.8c-.67 0-1.18.86-.96 1.69C28.75 54.5 30.24 56 32 56h64c1.76 0 3.25-1.5 3.79-3.58.21-.83-.29-1.69-.96-1.69h-4.81a9.99 9.99 0 0 1-3.68-.71L66.26 40.6a6.27 6.27 0 0 0-2.28-.43z" fill="#424242" opacity=".2"/></svg>