<svg viewBox="0 0 128 128" xmlns="http://www.w3.org/2000/svg"><linearGradient id="a" x1="64" x2="64" y1="20" y2="117" gradientUnits="userSpaceOnUse"><stop stop-color="#D7CCC8" offset="0"/><stop stop-color="#D4C9C5" offset=".3"/><stop stop-color="#CDBFBA" offset=".5"/><stop stop-color="#BFAEA8" offset=".7"/><stop stop-color="#AD978F" offset=".9"/><stop stop-color="#A1887F" offset="1"/></linearGradient><path fill="url(#a)" d="M8 20h112v96H8z"/><path d="M123 72H5a1 1 0 0 1-.8-1.6L8 66h112l3.8 4.5a1 1 0 0 1-.8 1.5z" fill="#795548"/><radialGradient id="b" cx="63.3" cy="-2.8" r="36.5" gradientTransform="matrix(0 1 -1.3123 0 59.6 -66)" gradientUnits="userSpaceOnUse"><stop stop-color="#795548" offset="0"/><stop stop-color="#5D4037" offset="1"/></radialGradient><path d="M124 20H4L18.8 5.2A4 4 0 0 1 21.7 4h84.7c1 0 2 .4 2.8 1.2L124 20z" fill="url(#b)"/><path d="M122 22H6a2 2 0 0 1-2-2h120a2 2 0 0 1-2 2z" fill="#6D4C41"/><path fill="#B2836B" d="M8 67.5h112v1H8z" opacity=".4"/><g opacity=".7"><path fill="#CCA88F" d="M8 27h112v1H8zm0 16h112v1H8zm0 16h112v1H8zm0 17h112v1H8zm0 12h112v1H8zm0 12h112v1H8zm0 12h112v1H8z" opacity=".4"/></g><linearGradient id="c" x1="64" x2="64" y1="-3" y2="25.2" gradientUnits="userSpaceOnUse"><stop stop-color="#795548" offset="0"/><stop stop-color="#5D4037" offset="1"/></linearGradient><path d="M124 20H4L18.8 5.2A4 4 0 0 1 21.7 4h84.7c1 0 2 .4 2.8 1.2L124 20z" fill="url(#c)"/><path d="M122 22H6a2 2 0 0 1-2-2h120a2 2 0 0 1-2 2z" fill="#5D4037"/><path d="M123 72H5a1 1 0 0 1-.8-1.6L8 66h112l3.8 4.5a1 1 0 0 1-.8 1.5z" fill="#6D4C41"/><linearGradient id="d" x1="49.1" x2="14.1" y1="68" y2="68" gradientUnits="userSpaceOnUse"><stop stop-color="#A1887F" offset="0"/><stop stop-color="#A1887F" stop-opacity="0" offset="1"/></linearGradient><path fill="url(#d)" opacity=".6" d="M8 20h48v96H8z"/><linearGradient id="e" x1="105.1" x2="70.1" y1="68" y2="68" gradientTransform="matrix(-1 0 0 1 184 0)" gradientUnits="userSpaceOnUse"><stop stop-color="#A1887F" offset="0"/><stop stop-color="#A1887F" stop-opacity="0" offset="1"/></linearGradient><path fill="url(#e)" opacity=".6" d="M72 116h48V20H72z"/><linearGradient id="f" x1="64" x2="64" y1="20.7" y2="121.3" gradientUnits="userSpaceOnUse"><stop stop-color="#D7CCC8" offset="0"/><stop stop-color="#D4C9C5" offset=".4"/><stop stop-color="#CCBFBA" offset=".7"/><stop stop-color="#BFAEA8" offset=".9"/><stop stop-color="#BCAAA4" offset="1"/></linearGradient><path d="M64 20L40 30v90h48V28v2L64 20z" fill="url(#f)"/><path d="M62.9 16.6L37.4 27.3a2.5 2.5 0 0 0 1 4.7H40v-2l22.9-9.4c.7-.4 1.5-.4 2.2 0L88 30v2h1.5a2.5 2.5 0 0 0 1.1-4.7L65.1 16.5c-.7-.3-1.5-.3-2.2 0z" fill="#4E342E"/><path d="M124 124H4v-4a4 4 0 0 1 4-4h112a4 4 0 0 1 4 4v4z" fill="#6D4C41"/><path fill="#4E342E" d="M57 96h14v20H57z"/><path d="M56 96h2v20h-2zm14 0h2v20h-2z" fill="#795548"/><path fill="#4E342E" d="M21.2 39h9.9v20h-9.9z"/><path d="M32 38H20v22h12V38zm-2 20h-8v-8h8v8zm0-10h-8v-8h8v8z" fill="#795548"/><path d="M33 60H19a.5.5 0 0 1-.5-.5v-1c0-.3.2-.5.5-.5h14c.3 0 .5.2.5.5v1c0 .3-.2.5-.5.5zm0-20H19a.5.5 0 0 1-.5-.5v-1c0-.3.2-.5.5-.5h14c.3 0 .5.2.5.5v1c0 .3-.2.5-.5.5z" fill="#5D4037"/><path fill="#4E342E" d="M21.2 81h9.9v20h-9.9z"/><path d="M32 80H20v22h12V80zm-2 20h-8v-8h8v8zm0-10h-8v-8h8v8z" fill="#795548"/><path d="M33 102H19a.5.5 0 0 1-.5-.5v-1c0-.3.2-.5.5-.5h14c.3 0 .5.2.5.5v1c0 .3-.2.5-.5.5zm0-20H19a.5.5 0 0 1-.5-.5v-1c0-.3.2-.5.5-.5h14c.3 0 .5.2.5.5v1c0 .3-.2.5-.5.5z" fill="#5D4037"/><path fill="#4E342E" d="M97.3 39h9.9v20h-9.9z"/><path d="M108 38H96v22h12V38zm-1.9 20h-8v-8h8v8zm0-10h-8v-8h8v8z" fill="#795548"/><path d="M109 60H95a.5.5 0 0 1-.5-.5v-1c0-.3.3-.5.5-.5h14c.3 0 .5.2.5.5v1c0 .3-.2.5-.5.5zm0-20H95a.5.5 0 0 1-.5-.5v-1c0-.3.3-.5.5-.5h14c.3 0 .5.2.5.5v1c0 .3-.2.5-.5.5z" fill="#5D4037"/><path fill="#4E342E" d="M97.3 81h9.9v20h-9.9z"/><path d="M108 80H96v22h12V80zm-1.9 20h-8v-8h8v8zm0-10h-8v-8h8v8z" fill="#795548"/><path d="M109 102H95a.5.5 0 0 1-.5-.5v-1c0-.3.3-.5.5-.5h14c.3 0 .5.2.5.5v1c0 .3-.2.5-.5.5zm0-20H95a.5.5 0 0 1-.5-.5v-1c0-.3.3-.5.5-.5h14c.3 0 .5.2.5.5v1c0 .3-.2.5-.5.5zM72 96H56c-1.1 0-2-.9-2-2s.9-2 2-2h16c1.1 0 2 .9 2 2s-.9 2-2 2z" fill="#5D4037"/><path fill="#FF1744" d="M46.6 33h34.8v6.9H46.6zm0 12.5h34.8v6.9H46.6z"/><path fill="#FF1744" d="M60.2 49.5h7.5v17h-7.5z"/><path d="M106.3 7c.3 0 .6.1.8.3L118.8 19H117v48.1l.7.9 1 1H117v50h3c.6 0 1 .4 1 1v1H7v-1c0-.6.5-1 1-1h3V69H9.4l.9-1 .7-.9V19H9.2L21 7.3c.1-.2.4-.3.7-.3h84.6m0-3H21.7a4 4 0 0 0-2.9 1.2L4 20c0 1.1.9 2 2 2h2v44l-3.8 4.5A1 1 0 0 0 5 72h3v44a4 4 0 0 0-4 4v4h120v-4a4 4 0 0 0-4-4V72h3a1 1 0 0 0 .8-1.6L120 66V22h2a2 2 0 0 0 2-2L109.2 5.2a4 4 0 0 0-2.9-1.2z" fill="#424242" opacity=".2"/></svg>