<svg viewBox="0 0 128 128" xmlns="http://www.w3.org/2000/svg"><linearGradient id="a" x1="64" x2="64" y1="20" y2="123.4" gradientUnits="userSpaceOnUse"><stop stop-color="#ECEFF1" offset="0"/><stop stop-color="#E2E7EA" offset=".3"/><stop stop-color="#C9D2D7" offset=".7"/><stop stop-color="#B0BEC5" offset="1"/></linearGradient><path d="M124 124H4V24a4 4 0 0 1 4-4h112a4 4 0 0 1 4 4v100z" fill="url(#a)"/><linearGradient id="b" x1="108" x2="124" y1="72" y2="72" gradientUnits="userSpaceOnUse"><stop stop-color="#B0BEC5" offset="0"/><stop stop-color="#C9D2D7" offset=".3"/><stop stop-color="#E2E7EA" offset=".7"/><stop stop-color="#ECEFF1" offset="1"/></linearGradient><path fill="url(#b)" d="M108 20h16v104h-16z"/><linearGradient id="c" x1="17.7" x2="33.7" y1="72" y2="72" gradientTransform="matrix(-1 0 0 1 37.7 0)" gradientUnits="userSpaceOnUse"><stop stop-color="#B0BEC5" offset="0"/><stop stop-color="#C9D2D7" offset=".3"/><stop stop-color="#E2E7EA" offset=".7"/><stop stop-color="#ECEFF1" offset="1"/></linearGradient><path fill="url(#c)" d="M4 124h16V20H4z"/><path d="M114 48h-8a2 2 0 0 1-2-2v-8c0-1.1.9-2 2-2h8a2 2 0 0 1 2 2v8a2 2 0 0 1-2 2zm0 20h-8a2 2 0 0 1-2-2v-8c0-1.1.9-2 2-2h8a2 2 0 0 1 2 2v8a2 2 0 0 1-2 2zm0 20h-8a2 2 0 0 1-2-2v-8c0-1.1.9-2 2-2h8a2 2 0 0 1 2 2v8a2 2 0 0 1-2 2zM22 48h-8a2 2 0 0 1-2-2v-8c0-1.1.9-2 2-2h8a2 2 0 0 1 2 2v8a2 2 0 0 1-2 2zm0 20h-8a2 2 0 0 1-2-2v-8c0-1.1.9-2 2-2h8a2 2 0 0 1 2 2v8a2 2 0 0 1-2 2zm0 20h-8a2 2 0 0 1-2-2v-8c0-1.1.9-2 2-2h8a2 2 0 0 1 2 2v8a2 2 0 0 1-2 2z" fill="#546E7A"/><path d="M120 23c.6 0 1 .5 1 1v97H7V24c0-.6.5-1 1-1h112m0-3H8a4 4 0 0 0-4 4v100h120V24a4 4 0 0 0-4-4z" fill="#424242" opacity=".2"/><linearGradient id="d" x1="64" x2="64" y1="4.5" y2="123.8" gradientUnits="userSpaceOnUse"><stop stop-color="#ECEFF1" offset="0"/><stop stop-color="#E2E7EA" offset=".3"/><stop stop-color="#C9D2D7" offset=".7"/><stop stop-color="#B0BEC5" offset="1"/></linearGradient><path d="M108 124H20V8a4 4 0 0 1 4-4h80a4 4 0 0 1 4 4v116z" fill="url(#d)"/><path d="M44 92h-8a2 2 0 0 1-2-2v-8c0-1.1.9-2 2-2h8a2 2 0 0 1 2 2v8a2 2 0 0 1-2 2zm24 0h-8a2 2 0 0 1-2-2v-8c0-1.1.9-2 2-2h8a2 2 0 0 1 2 2v8a2 2 0 0 1-2 2zm24 0h-8a2 2 0 0 1-2-2v-8c0-1.1.9-2 2-2h8a2 2 0 0 1 2 2v8a2 2 0 0 1-2 2zM44 72h-8a2 2 0 0 1-2-2v-8c0-1.1.9-2 2-2h8a2 2 0 0 1 2 2v8a2 2 0 0 1-2 2zm24 0h-8a2 2 0 0 1-2-2v-8c0-1.1.9-2 2-2h8a2 2 0 0 1 2 2v8a2 2 0 0 1-2 2zm24 0h-8a2 2 0 0 1-2-2v-8c0-1.1.9-2 2-2h8a2 2 0 0 1 2 2v8a2 2 0 0 1-2 2z" fill="#546E7A"/><path fill="#fff" stroke="#E53935" stroke-miterlimit="10" stroke-width="2" d="M82 27.9H69.1V15H59v12.9H46V38h12.9v13H69V38.1h13z"/><path fill="#78909C" d="M34.8 107.5h58.5V124H34.8z"/><path d="M98 109.5H30a2 2 0 0 1-2-2h72a2 2 0 0 1-2 2z" fill="#80DEEA"/><path d="M100 108H28v-2c0-.6.5-1 1-1h70c.6 0 1 .5 1 1v2z" fill="#E0F7FA"/><path d="M104 7c.6 0 1 .5 1 1v113H23V8c0-.6.5-1 1-1h80m0-3H24a4 4 0 0 0-4 4v116h88V8a4 4 0 0 0-4-4z" fill="#424242" opacity=".2"/></svg>