<svg viewBox="0 0 128 128" xmlns="http://www.w3.org/2000/svg"><radialGradient id="a" cx="64.3" cy="20.7" r="94.7" gradientUnits="userSpaceOnUse"><stop stop-color="#FCE4EC" offset="0"/><stop stop-color="#F8BBD0" offset=".7"/><stop stop-color="#F7ACC5" offset=".8"/><stop stop-color="#F48FB1" offset="1"/></radialGradient><path fill="url(#a)" d="M6 20h116v104H6z"/><path d="M124 124H4v-22c0-1.1.9-2 2-2h116a2 2 0 0 1 2 2v22z" fill="#EC407A"/><path d="M122 24H6a2 2 0 0 1-2-2h120a2 2 0 0 1-2 2z" fill="#E91E63"/><path d="M9.2 15.2L4 22h120l-5.2-6.8A4 4 0 0 0 116 14H12c-1 0-2 .4-2.8 1.2z" fill="#EC407A"/><path d="M122.5 108.8h-6.6c-.8 0-1.5-.7-1.5-1.5v-1.8c0-.8.7-1.5 1.5-1.5h6.6c.8 0 1.5.7 1.5 1.5v1.8c0 .8-.7 1.5-1.5 1.5zm-4 12.1h-1.8c-.8 0-1.5-.7-1.5-1.5v-1.8c0-.8.7-1.5 1.5-1.5h1.8c.8 0 1.5.7 1.5 1.5v1.8c0 .8-.7 1.5-1.5 1.5z" fill="#E91E63"/><path d="M26 48h-8a2 2 0 0 1-2-2v-8c0-1.1.9-2 2-2h8a2 2 0 0 1 2 2v8a2 2 0 0 1-2 2zm0 20h-8a2 2 0 0 1-2-2v-8c0-1.1.9-2 2-2h8a2 2 0 0 1 2 2v8a2 2 0 0 1-2 2zm0 20h-8a2 2 0 0 1-2-2v-8c0-1.1.9-2 2-2h8a2 2 0 0 1 2 2v8a2 2 0 0 1-2 2zm84 0h-8a2 2 0 0 1-2-2v-8c0-1.1.9-2 2-2h8a2 2 0 0 1 2 2v8a2 2 0 0 1-2 2zm0-40h-8a2 2 0 0 1-2-2v-8c0-1.1.9-2 2-2h8a2 2 0 0 1 2 2v8a2 2 0 0 1-2 2zm0 20h-8a2 2 0 0 1-2-2v-8c0-1.1.9-2 2-2h8a2 2 0 0 1 2 2v8a2 2 0 0 1-2 2z" fill="#4FC3F7"/><path d="M11.7 120.6H5.5c-.8 0-1.5-.6-1.5-1.5v-1.6c0-.8.7-1.5 1.5-1.5h6.2c.9 0 1.5.7 1.5 1.5v1.6c0 .9-.6 1.5-1.5 1.5zm9.7-8H15c-.8 0-1.5-.6-1.5-1.5v-1.6c0-.8.7-1.5 1.5-1.5h6.3c.8 0 1.5.7 1.5 1.5v1.6c0 .9-.7 1.5-1.5 1.5zM10.5 108H8.9c-.9 0-1.5-.7-1.5-1.5v-1.6c0-.9.6-1.5 1.5-1.5h1.6c.8 0 1.5.6 1.5 1.5v1.6c0 .8-.7 1.5-1.5 1.5zm12-3.4h-1.6c-.8 0-1.5-.6-1.5-1.5v-1.6c0-.8.7-1.5 1.5-1.5h1.6c.8 0 1.5.7 1.5 1.5v1.6c0 .9-.7 1.5-1.5 1.5zm7.7 8h-1.6c-.8 0-1.5-.6-1.5-1.5v-1.6c0-.8.7-1.5 1.5-1.5h1.6c.8 0 1.5.7 1.5 1.5v1.6c0 .9-.7 1.5-1.5 1.5zm-4 7.4h-1.7c-.8 0-1.5-.7-1.5-1.5v-1.6c0-.9.7-1.5 1.5-1.5h1.7c.8 0 1.5.6 1.5 1.5v1.6c0 .8-.7 1.5-1.5 1.5zm76.4-11.2H96c-.8 0-1.5-.7-1.5-1.5v-1.8c0-.8.7-1.5 1.5-1.5h6.6c.8 0 1.5.7 1.5 1.5v1.8c0 .8-.7 1.5-1.5 1.5zm-3.3 12h-1.8c-.8 0-1.5-.7-1.5-1.5v-1.8c0-.8.7-1.5 1.5-1.5h1.8c.9 0 1.5.7 1.5 1.5v1.8c0 .8-.6 1.5-1.5 1.5zm11.2-4.8h-6.6c-.8 0-1.5-.7-1.5-1.5v-1.8c0-.8.7-1.5 1.5-1.5h6.6c.8 0 1.5.7 1.5 1.5v1.8c0 .8-.7 1.5-1.5 1.5z" fill="#E91E63"/><linearGradient id="b" x1="36" x2="21" y1="62" y2="62" gradientUnits="userSpaceOnUse"><stop stop-color="#F48FB1" offset="0"/><stop stop-color="#F48FB1" stop-opacity=".9" offset=".1"/><stop stop-color="#F48FB1" stop-opacity="0" offset="1"/></linearGradient><path fill="url(#b)" d="M20 24h16v76H20z"/><linearGradient id="c" x1="88.5" x2="73.5" y1="62" y2="62" gradientTransform="matrix(-1 0 0 1 180.5 0)" gradientUnits="userSpaceOnUse"><stop stop-color="#F48FB1" offset="0"/><stop stop-color="#F48FB1" stop-opacity=".9" offset=".1"/><stop stop-color="#F48FB1" stop-opacity="0" offset="1"/></linearGradient><path fill="url(#c)" d="M92 100h16V24H92z"/><linearGradient id="d" x1="32" x2="13.2" y1="112" y2="112" gradientUnits="userSpaceOnUse"><stop stop-color="#C2185B" offset="0"/><stop stop-color="#C2185B" stop-opacity=".9" offset=".1"/><stop stop-color="#C2185B" stop-opacity="0" offset="1"/></linearGradient><path fill="url(#d)" d="M12 100h20v24H12z"/><linearGradient id="e" x1="108" x2="89.2" y1="112" y2="112" gradientTransform="matrix(-1 0 0 1 204 0)" gradientUnits="userSpaceOnUse"><stop stop-color="#C2185B" offset="0"/><stop stop-color="#C2185B" stop-opacity=".9" offset=".1"/><stop stop-color="#C2185B" stop-opacity="0" offset="1"/></linearGradient><path fill="url(#e)" d="M116 124H96v-24h20z"/><path d="M40 5.2L34.3 12h59.4L88 5.2A4 4 0 0 0 85.2 4H42.8c-1 0-2 .4-2.8 1.2zM32 96h64v28H32z" fill="#F06292"/><path d="M75.3 124h-1.8c-.8 0-1.5-.7-1.5-1.5v-1.9c0-.8.7-1.4 1.5-1.4h1.9c.8 0 1.4.6 1.4 1.5v1.8c0 .8-.6 1.5-1.5 1.5zm-26.7 0h-7.3c-.9 0-1.5-.7-1.5-1.5v-2.2c0-.8.6-1.5 1.5-1.5h7.3c.8 0 1.5.7 1.5 1.5v2.2c0 .8-.7 1.5-1.5 1.5z" fill="#EC407A"/><path d="M116 17c.2 0 .4 0 .6.2l3.4 4.5a3 3 0 0 0-1 2.3v76a3 3 0 0 0 2 2.8V121H7v-18.2a3 3 0 0 0 2-2.8V24a3 3 0 0 0-1-2.3l3.4-4.5.6-.2h104m0-3H12c-1 0-2 .4-2.8 1.2L4 22c0 1.1.9 2 2 2v76a2 2 0 0 0-2 2v22h120v-22a2 2 0 0 0-2-2V24a2 2 0 0 0 2-2l-5.2-6.8A4 4 0 0 0 116 14z" fill="#616161" opacity=".2"/><radialGradient id="f" cx="64.2" cy="16.7" r="78.8" gradientTransform="matrix(1 0 0 .6786 0 3.9)" gradientUnits="userSpaceOnUse"><stop stop-color="#FCE4EC" offset=".1"/><stop stop-color="#FBDEE8" offset=".3"/><stop stop-color="#FACEDD" offset=".7"/><stop stop-color="#F8BBD0" offset="1"/></radialGradient><path fill="url(#f)" d="M36 12h56v76H36z"/><path d="M88 5.2A4 4 0 0 0 85.2 4H42.8c-1 0-2 .4-2.8 1.2L34.3 12c0 1.1 1 2 2 2l5.9-6.8.6-.2h42.4c.2 0 .4 0 .6.2l5.9 6.8a2 2 0 0 0 2-2L88 5.2z" fill="#616161" opacity=".2"/><path d="M91.7 14H36.3a2 2 0 0 1-2-2h59.4a2 2 0 0 1-2 2z" fill="#9E9E9E"/><path d="M91.7 14H36.3a2 2 0 0 1-2-2h59.4a2 2 0 0 1-2 2zm-9.2 94.8h-1.8c-.8 0-1.5-.7-1.5-1.5v-1.8c0-.8.7-1.5 1.5-1.5h1.8c.8 0 1.5.7 1.5 1.5v1.8c0 .8-.7 1.5-1.5 1.5zm8 8.5H83c-.9 0-1.5-.7-1.5-1.5v-2.3c0-.8.6-1.5 1.5-1.5h7.5c.8 0 1.5.7 1.5 1.5v2.3c0 .8-.7 1.5-1.5 1.5zM55.8 116h-6.3c-.8 0-1.5-.7-1.5-1.5v-2.3c0-.9.7-1.5 1.5-1.5h6.3c.9 0 1.5.6 1.5 1.5v2.3c0 .8-.6 1.5-1.5 1.5zm-15.7-4h-2.6c-.8 0-1.5-.7-1.5-1.5v-2.6c0-.8.7-1.5 1.5-1.5h2.6c.8 0 1.5.7 1.5 1.5v2.6c0 .8-.7 1.5-1.5 1.5z" fill="#EC407A"/><linearGradient id="g" x1="64" x2="64" y1="87.7" y2="105" gradientUnits="userSpaceOnUse"><stop stop-color="#F06292" offset="0"/><stop stop-color="#EF5D8E" offset=".2"/><stop stop-color="#EE4E84" offset=".5"/><stop stop-color="#EB3674" offset=".8"/><stop stop-color="#E91E63" offset="1"/></linearGradient><path d="M101.3 97.1l-6.1-7.5a4 4 0 0 0-3-1.6H35.8a4 4 0 0 0-3 1.6l-6 7.5a6 6 0 0 0-1.3 3.8v.4c0 1.5 1 2.7 2.2 2.7h72.7c1.1 0 2.1-1.2 2.1-2.7v-.4c0-1.4-.4-2.8-1.2-3.8z" fill="url(#g)"/><radialGradient id="h" cx="64" cy="31.6" r="45.5" gradientTransform="translate(6.8 5.6) scale(.8934)" gradientUnits="userSpaceOnUse"><stop stop-color="#F06292" offset="0"/><stop stop-color="#F05F90" offset=".2"/><stop stop-color="#EF578A" offset=".4"/><stop stop-color="#ED4980" offset=".5"/><stop stop-color="#EC407A" offset=".5"/><stop stop-color="#DB306E" offset=".8"/><stop stop-color="#C2185B" offset="1"/></radialGradient><path d="M64 69c-.5 0-1-.2-1.3-.5l-2.3-2.3c-10.2-9-17.7-15.7-17.7-24A12 12 0 0 1 54.9 30c3.3 0 6.7 1.4 9.1 3.8 2.4-2.4 5.8-3.8 9.1-3.8a12 12 0 0 1 12.2 12.2c0 8.3-7.5 15-17.8 24l-2.2 2.3c-.3.3-.8.5-1.3.5z" fill="url(#h)"/><path d="M73.1 31a11 11 0 0 1 11.2 11.2c0 7.7-6.9 14-17.4 23.3l-2.3 2.2-.6.3c-.2 0-.4 0-.6-.3l-2.3-2.2C50.6 56.2 43.7 50 43.7 42.2A11 11 0 0 1 54.9 31a12 12 0 0 1 9.1 4.3 12 12 0 0 1 9.1-4.3m0-2c-3.3 0-6.6 1.3-9.1 3.4a14.2 14.2 0 0 0-9.1-3.4 13 13 0 0 0-13.2 13.2c0 8.8 7.6 15.5 18 24.8l2.3 2.2c.5.5 1.2.8 2 .8s1.5-.3 2-.8l2.2-2.2c10.5-9.3 18.1-16 18.1-24.8A13 13 0 0 0 73.1 29z" fill="#AF0B4E"/><path fill="#4FC3F7" d="M56 104h16v20H56z"/><path d="M56 104h2v20h-2zm14 0h2v20h-2z" fill="#424242" opacity=".2"/><path d="M92.2 91c.2 0 .4.2.6.4L99 99c.4.4.6 1.2.6 1.9v.1h-71v-.1c0-.7.2-1.5.6-2l6-7.5.7-.4h56.4m0-3H35.8a4 4 0 0 0-3 1.6l-6 7.5a6 6 0 0 0-1.3 3.8v.4c0 1.5 1 2.7 2.2 2.7h72.7c1.1 0 2.1-1.2 2.1-2.7v-.4a6 6 0 0 0-1.2-3.8l-6-7.5a4 4 0 0 0-3.1-1.6zM88 5.2A4 4 0 0 0 85.2 4H42.8c-1 0-2 .4-2.8 1.2L34.3 12c0 1.1 1 2 2 2l5.9-6.8.6-.2h42.4c.2 0 .4 0 .6.2l5.9 6.8a2 2 0 0 0 2-2L88 5.2z" fill="#616161" opacity=".2"/></svg>