<svg viewBox="0 0 128 128" xmlns="http://www.w3.org/2000/svg"><linearGradient id="a" x1="64" x2="64" y1="46" y2="128.6" gradientUnits="userSpaceOnUse"><stop stop-color="#BDBDBD" offset="0"/><stop stop-color="#757575" offset="1"/></linearGradient><path d="M116 124H12a8 8 0 0 1-8-8V12a8 8 0 0 1 8-8h104a8 8 0 0 1 8 8v104a8 8 0 0 1-8 8z" fill="url(#a)"/><path d="M116 7a5 5 0 0 1 5 5v104a5 5 0 0 1-5 5H12a5 5 0 0 1-5-5V12a5 5 0 0 1 5-5h104m0-3H12a8 8 0 0 0-8 8v104a8 8 0 0 0 8 8h104a8 8 0 0 0 8-8V12a8 8 0 0 0-8-8z" fill="#424242" opacity=".2"/><linearGradient id="b" x1="64" x2="64" y1="3.9" y2="71.3" gradientUnits="userSpaceOnUse"><stop stop-color="#82B1FF" offset="0"/><stop stop-color="#6FA0FF" offset=".3"/><stop stop-color="#3D74FF" offset=".8"/><stop stop-color="#2962FF" offset="1"/></linearGradient><path d="M104 68H24a4 4 0 0 1-4-4V20a4 4 0 0 1 4-4h80a4 4 0 0 1 4 4v44a4 4 0 0 1-4 4z" fill="url(#b)"/><path d="M104 19c.6 0 1 .5 1 1v44c0 .6-.5 1-1 1H24a1 1 0 0 1-1-1V20c0-.6.5-1 1-1h80m0-3H24a4 4 0 0 0-4 4v44a4 4 0 0 0 4 4h80a4 4 0 0 0 4-4V20a4 4 0 0 0-4-4z" fill="#424242" opacity=".2"/><g fill="#424242" opacity=".2"><path d="M39.6 29.1c.4 0 .8.3 1 .7L49.7 54a1 1 0 0 1-1 1.3h-2.5a1 1 0 0 1-1-.6l-1.6-4.8a1 1 0 0 0-1-.7H34a1 1 0 0 0-1 .7l-1.6 4.8a1 1 0 0 1-1 .6h-2.5a1 1 0 0 1-1-1.3L36 29.8a1 1 0 0 1 1-.7h2.6M36 45.6h4.7a1 1 0 0 0 1-1.4l-2.4-6.8c-.2-.5-.6-.7-1-.7s-.7.2-.9.7L35 44.2a1 1 0 0 0 1 1.4M39.6 26H37a4 4 0 0 0-3.7 2.6L24 53a4 4 0 0 0 3.8 5.4h2.6a4 4 0 0 0 3.7-2.6l1.2-3.5h6l1.1 3.5a4 4 0 0 0 3.8 2.6h2.6a4 4 0 0 0 3.7-5.4l-9.1-24.2a4 4 0 0 0-3.8-2.6zM69 29.1c.5 0 1 .5 1 1v1.7c0 .6-.5 1-1 1h-6.2a1 1 0 0 0-1 1v20.5c0 .6-.5 1-1 1h-2.5a1 1 0 0 1-1-1V33.8c0-.5-.5-1-1-1h-6.1a1 1 0 0 1-1-1v-1.7c0-.5.4-1 1-1H69m0-3H50.2a4 4 0 0 0-4 4v1.7a4 4 0 0 0 4 4h4v18.5a4 4 0 0 0 4 4h2.6a4 4 0 0 0 4-4V35.8H69a4 4 0 0 0 4-4v-1.7a4 4 0 0 0-4-4z"/><path d="M99.3 29.1c.5 0 1 .5 1 1v24.2c0 .6-.5 1-1 1h-2.5a1 1 0 0 1-1-1v-7.6l.2-5.5c0-.7-.5-1-1-1a1 1 0 0 0-1 .6l-5.3 13.9a1 1 0 0 1-1 .6H86a1 1 0 0 1-1-.6l-5.2-13.9a1 1 0 0 0-1-.6 1 1 0 0 0-1 1l.2 5.5v7.6c0 .6-.4 1-1 1h-2.5a1 1 0 0 1-1-1v-24c0-.6.4-1 1-1h4.2c.4 0 .8.2 1 .6l6.3 17c.2.4.6.6 1 .6s.7-.2 1-.7l6.3-16.9a1 1 0 0 1 1-.6h4m0-3h-4.1a4 4 0 0 0-3.7 2.5l-4.5 12-4.5-12a4 4 0 0 0-3.8-2.6h-4.2a4 4 0 0 0-4 4v24.2a4 4 0 0 0 4 4H77a4 4 0 0 0 4-4v-1.7l1.3 3.2a4 4 0 0 0 3.7 2.5h1.9a4 4 0 0 0 3.7-2.5l1.3-3.3v1.8a4 4 0 0 0 4 4h2.5a4 4 0 0 0 4-4V30.1a4 4 0 0 0-4-4z"/></g><path d="M117.3 27.9h-4.6a.7.7 0 0 1-.7-.7v-2.5c0-.4.3-.7.7-.7h4.6c.4 0 .7.3.7.7v2.5c0 .3-.3.7-.7.7zm0 10.7h-4.6a.7.7 0 0 1-.7-.7v-2.5c0-.4.3-.7.7-.7h4.6c.4 0 .7.3.7.7V38c0 .4-.3.7-.7.7zm0 10.7h-4.6a.7.7 0 0 1-.7-.7v-2.5c0-.3.3-.7.7-.7h4.6c.4 0 .7.4.7.7v2.5c0 .4-.3.7-.7.7zm0 10.7h-4.6a.7.7 0 0 1-.7-.7v-2.5c0-.3.3-.6.7-.6h4.6c.4 0 .7.3.7.6v2.5c0 .4-.3.7-.7.7zM15.3 27.9h-4.6a.7.7 0 0 1-.7-.7v-2.5c0-.4.3-.7.7-.7h4.6c.4 0 .7.3.7.7v2.5c0 .3-.3.7-.7.7zm0 10.7h-4.6a.7.7 0 0 1-.7-.7v-2.5c0-.4.3-.7.7-.7h4.6c.4 0 .7.3.7.7V38c0 .4-.3.7-.7.7zm0 10.7h-4.6a.7.7 0 0 1-.7-.7v-2.5c0-.3.3-.7.7-.7h4.6c.4 0 .7.4.7.7v2.5c0 .4-.3.7-.7.7zm0 10.7h-4.6a.7.7 0 0 1-.7-.7v-2.5c0-.3.3-.6.7-.6h4.6c.4 0 .7.3.7.6v2.5c0 .4-.3.7-.7.7z" fill="#757575"/><path d="M24.6 82.6h-7.4c-.7 0-1.2-.5-1.2-1.2v-4.9c0-.7.5-1.2 1.2-1.2h7.4c.6 0 1.2.5 1.2 1.2v4.9c0 .7-.6 1.2-1.2 1.2z" fill="#E0E0E0"/><path d="M20.9 81.4a.6.6 0 0 1-.6-.6V77c0-.3.3-.6.6-.6s.6.3.6.6v3.7c0 .3-.3.6-.6.6z" fill="#9E9E9E"/><path d="M24.6 92.4h-7.4c-.7 0-1.2-.5-1.2-1.2v-5c0-.6.5-1.1 1.2-1.1h7.4c.6 0 1.2.5 1.2 1.2v4.9c0 .7-.6 1.2-1.2 1.2z" fill="#E0E0E0"/><path d="M20.9 91.2a.6.6 0 0 1-.6-.6v-3.7c0-.3.3-.6.6-.6s.6.3.6.6v3.7c0 .3-.3.6-.6.6z" fill="#9E9E9E"/><path d="M24.6 102.2h-7.4c-.7 0-1.2-.5-1.2-1.2v-5c0-.6.5-1.1 1.2-1.1h7.4c.6 0 1.2.5 1.2 1.2v4.9c0 .7-.6 1.2-1.2 1.2z" fill="#E0E0E0"/><path d="M20.9 101a.6.6 0 0 1-.6-.6v-3.7c0-.3.3-.6.6-.6s.6.3.6.6v3.7c0 .3-.3.6-.6.6z" fill="#9E9E9E"/><path d="M24.6 112h-7.4c-.7 0-1.2-.6-1.2-1.2v-5c0-.6.5-1.1 1.2-1.1h7.4c.6 0 1.2.5 1.2 1.2v4.9c0 .7-.6 1.2-1.2 1.2z" fill="#E0E0E0"/><path d="M20.9 110.8a.6.6 0 0 1-.6-.6v-3.7c0-.3.3-.6.6-.6s.6.3.6.6v3.7c0 .3-.3.6-.6.6z" fill="#9E9E9E"/><path d="M39.3 82.6h-7.4c-.7 0-1.2-.5-1.2-1.2v-4.9c0-.7.5-1.2 1.2-1.2h7.4c.6 0 1.2.5 1.2 1.2v4.9c0 .7-.6 1.2-1.2 1.2z" fill="#E0E0E0"/><path d="M35.6 81.4a.6.6 0 0 1-.6-.6V77c0-.3.3-.6.6-.6s.6.3.6.6v3.7c0 .3-.3.6-.6.6z" fill="#9E9E9E"/><path d="M39.3 92.4h-7.4c-.7 0-1.2-.5-1.2-1.2v-5c0-.6.5-1.1 1.2-1.1h7.4c.6 0 1.2.5 1.2 1.2v4.9c0 .7-.6 1.2-1.2 1.2z" fill="#E0E0E0"/><path d="M35.6 91.2a.6.6 0 0 1-.6-.6v-3.7c0-.3.3-.6.6-.6s.6.3.6.6v3.7c0 .3-.3.6-.6.6z" fill="#9E9E9E"/><path d="M39.3 102.2h-7.4c-.7 0-1.2-.5-1.2-1.2v-5c0-.6.5-1.1 1.2-1.1h7.4c.6 0 1.2.5 1.2 1.2v4.9c0 .7-.6 1.2-1.2 1.2z" fill="#E0E0E0"/><path d="M35.6 101a.6.6 0 0 1-.6-.6v-3.7c0-.3.3-.6.6-.6s.6.3.6.6v3.7c0 .3-.3.6-.6.6z" fill="#9E9E9E"/><path d="M39.3 112h-7.4c-.7 0-1.2-.6-1.2-1.2v-5c0-.6.5-1.1 1.2-1.1h7.4c.6 0 1.2.5 1.2 1.2v4.9c0 .7-.6 1.2-1.2 1.2z" fill="#E0E0E0"/><path d="M35.6 110.8a.6.6 0 0 1-.6-.6v-3.7c0-.3.3-.6.6-.6s.6.3.6.6v3.7c0 .3-.3.6-.6.6z" fill="#9E9E9E"/><path d="M54 82.6h-7.4c-.7 0-1.2-.5-1.2-1.2v-4.9c0-.7.5-1.2 1.2-1.2h7.3c.7 0 1.3.5 1.3 1.2v4.9c0 .7-.6 1.2-1.3 1.2z" fill="#E0E0E0"/><path d="M50.3 81.4a.6.6 0 0 1-.6-.6V77c0-.3.2-.6.6-.6s.6.3.6.6v3.7c0 .3-.3.6-.6.6z" fill="#9E9E9E"/><path d="M54 92.4h-7.4c-.7 0-1.2-.5-1.2-1.2v-5c0-.6.5-1.1 1.2-1.1h7.3c.7 0 1.3.5 1.3 1.2v4.9c0 .7-.6 1.2-1.3 1.2z" fill="#E0E0E0"/><path d="M50.3 91.2a.6.6 0 0 1-.6-.6v-3.7c0-.3.2-.6.6-.6s.6.3.6.6v3.7c0 .3-.3.6-.6.6z" fill="#9E9E9E"/><path d="M54 102.2h-7.4c-.7 0-1.2-.5-1.2-1.2v-5c0-.6.5-1.1 1.2-1.1h7.3c.7 0 1.3.5 1.3 1.2v4.9c0 .7-.6 1.2-1.3 1.2z" fill="#E0E0E0"/><path d="M50.3 101a.6.6 0 0 1-.6-.6v-3.7c0-.3.2-.6.6-.6s.6.3.6.6v3.7c0 .3-.3.6-.6.6z" fill="#9E9E9E"/><path d="M54 112h-7.4c-.7 0-1.2-.6-1.2-1.2v-5c0-.6.5-1.1 1.2-1.1h7.3c.7 0 1.3.5 1.3 1.2v4.9c0 .7-.6 1.2-1.3 1.2z" fill="#E0E0E0"/><path d="M50.3 110.8a.6.6 0 0 1-.6-.6v-3.7c0-.3.2-.6.6-.6s.6.3.6.6v3.7c0 .3-.3.6-.6.6z" fill="#9E9E9E"/><path d="M68.6 82.6h-7.3c-.7 0-1.2-.5-1.2-1.2v-4.9c0-.7.5-1.2 1.2-1.2h7.3c.7 0 1.3.5 1.3 1.2v4.9c0 .7-.6 1.2-1.3 1.2z" fill="#EF5350"/><path d="M65 81.4a.6.6 0 0 1-.6-.6V77c0-.3.2-.6.6-.6s.6.3.6.6v3.7c0 .3-.3.6-.6.6z" fill="#E53935"/><path d="M68.6 92.4h-7.3c-.7 0-1.2-.5-1.2-1.2v-5c0-.6.5-1.1 1.2-1.1h7.3c.7 0 1.3.5 1.3 1.2v4.9c0 .7-.6 1.2-1.3 1.2z" fill="#66BB6A"/><path d="M65 91.2a.6.6 0 0 1-.6-.6v-3.7c0-.3.2-.6.6-.6s.6.3.6.6v3.7c0 .3-.3.6-.6.6z" fill="#43A047"/><path d="M68.6 102.2h-7.3c-.7 0-1.2-.5-1.2-1.2v-5c0-.6.5-1.1 1.2-1.1h7.3c.7 0 1.3.5 1.3 1.2v4.9c0 .7-.6 1.2-1.3 1.2z" fill="#FFEE58"/><path d="M65 101a.6.6 0 0 1-.6-.6v-3.7c0-.3.2-.6.6-.6s.6.3.6.6v3.7c0 .3-.3.6-.6.6z" fill="#FDD835"/><path d="M68.6 112h-7.3c-.7 0-1.2-.6-1.2-1.2v-5c0-.6.5-1.1 1.2-1.1h7.3c.7 0 1.3.5 1.3 1.2v4.9c0 .7-.6 1.2-1.3 1.2z" fill="#E0E0E0"/><path d="M65 110.8a.6.6 0 0 1-.6-.6v-3.7c0-.3.2-.6.6-.6s.6.3.6.6v3.7c0 .3-.3.6-.6.6z" fill="#9E9E9E"/><path d="M24.6 75.3c.6 0 1.2.5 1.2 1.2v4.9c0 .7-.6 1.2-1.2 1.2h-7.4c-.7 0-1.2-.5-1.2-1.2v-5c0-.6.5-1.1 1.2-1.1h7.4m0-1h-7.4c-1.2 0-2.2 1-2.2 2.2v4.9c0 1.2 1 2.2 2.2 2.2h7.4c1.2 0 2.2-1 2.2-2.2v-5c0-1.1-1-2.1-2.2-2.1zm0 10.7c.6 0 1.2.6 1.2 1.3v4.9c0 .7-.6 1.2-1.2 1.2h-7.4c-.7 0-1.2-.5-1.2-1.2v-5c0-.6.5-1.1 1.2-1.1h7.4m0-1h-7.4C16 84 15 85 15 86.3v4.9c0 1.2 1 2.2 2.2 2.2h7.4c1.2 0 2.2-1 2.2-2.2v-5c0-1.1-1-2.1-2.2-2.1zm0 10.8c.6 0 1.2.5 1.2 1.2v4.9c0 .7-.6 1.2-1.2 1.2h-7.4c-.7 0-1.2-.6-1.2-1.2v-5c0-.6.5-1.1 1.2-1.1h7.4m0-1h-7.4c-1.2 0-2.2 1-2.2 2.2v4.9c0 1.2 1 2.2 2.2 2.2h7.4c1.2 0 2.2-1 2.2-2.2v-5c0-1.1-1-2.1-2.2-2.1zm0 10.8c.6 0 1.2.5 1.2 1.2v4.9c0 .7-.6 1.2-1.2 1.2h-7.4c-.7 0-1.2-.6-1.2-1.2v-5c0-.6.5-1.1 1.2-1.1h7.4m0-1h-7.4c-1.2 0-2.2 1-2.2 2.2v4.9c0 1.2 1 2.2 2.2 2.2h7.4c1.2 0 2.2-1 2.2-2.2v-5c0-1.1-1-2.1-2.2-2.1zm14.7-28.4c.6 0 1.2.5 1.2 1.2v4.9c0 .7-.6 1.2-1.2 1.2h-7.4c-.7 0-1.2-.5-1.2-1.2v-5c0-.6.5-1.1 1.2-1.1h7.4m0-1h-7.4c-1.2 0-2.2 1-2.2 2.2v4.9c0 1.2 1 2.2 2.2 2.2h7.4c1.2 0 2.2-1 2.2-2.2v-5c0-1.1-1-2.1-2.2-2.1zm0 10.7c.6 0 1.2.6 1.2 1.3v4.9c0 .7-.6 1.2-1.2 1.2h-7.4c-.7 0-1.2-.5-1.2-1.2v-5c0-.6.5-1.1 1.2-1.1h7.4m0-1h-7.4c-1.2 0-2.2 1-2.2 2.2v4.9c0 1.2 1 2.2 2.2 2.2h7.4c1.2 0 2.2-1 2.2-2.2v-5c0-1.1-1-2.1-2.2-2.1zm0 10.8c.6 0 1.2.5 1.2 1.2v4.9c0 .7-.6 1.2-1.2 1.2h-7.4c-.7 0-1.2-.6-1.2-1.2v-5c0-.6.5-1.1 1.2-1.1h7.4m0-1h-7.4c-1.2 0-2.2 1-2.2 2.2v4.9c0 1.2 1 2.2 2.2 2.2h7.4c1.2 0 2.2-1 2.2-2.2v-5c0-1.1-1-2.1-2.2-2.1zm0 10.8c.6 0 1.2.5 1.2 1.2v4.9c0 .7-.6 1.2-1.2 1.2h-7.4c-.7 0-1.2-.6-1.2-1.2v-5c0-.6.5-1.1 1.2-1.1h7.4m0-1h-7.4c-1.2 0-2.2 1-2.2 2.2v4.9c0 1.2 1 2.2 2.2 2.2h7.4c1.2 0 2.2-1 2.2-2.2v-5c0-1.1-1-2.1-2.2-2.1zM54 75.3c.6 0 1.2.5 1.2 1.2v4.9c0 .7-.6 1.2-1.3 1.2h-7.3c-.7 0-1.2-.5-1.2-1.2v-5c0-.6.5-1.1 1.2-1.1h7.3m0-1h-7.3c-1.2 0-2.2 1-2.2 2.2v4.9c0 1.2 1 2.2 2.2 2.2h7.3c1.3 0 2.3-1 2.3-2.2v-5c0-1.1-1-2.1-2.3-2.1zM54 85c.6 0 1.2.6 1.2 1.3v4.9c0 .7-.6 1.2-1.3 1.2h-7.3c-.7 0-1.2-.5-1.2-1.2v-5c0-.6.5-1.1 1.2-1.1h7.3m0-1h-7.3c-1.2 0-2.2 1-2.2 2.2v4.9c0 1.2 1 2.2 2.2 2.2h7.3c1.3 0 2.3-1 2.3-2.2v-5c0-1.1-1-2.1-2.3-2.1zm.1 10.8c.6 0 1.2.5 1.2 1.2v4.9c0 .7-.6 1.2-1.3 1.2h-7.3c-.7 0-1.2-.6-1.2-1.2v-5c0-.6.5-1.1 1.2-1.1h7.3m0-1h-7.3c-1.2 0-2.2 1-2.2 2.2v4.9c0 1.2 1 2.2 2.2 2.2h7.3c1.3 0 2.3-1 2.3-2.2v-5c0-1.1-1-2.1-2.3-2.1zm.1 10.8c.6 0 1.2.5 1.2 1.2v4.9c0 .7-.6 1.2-1.3 1.2h-7.3c-.7 0-1.2-.6-1.2-1.2v-5c0-.6.5-1.1 1.2-1.1h7.3m0-1h-7.3c-1.2 0-2.2 1-2.2 2.2v4.9c0 1.2 1 2.2 2.2 2.2h7.3c1.3 0 2.3-1 2.3-2.2v-5c0-1.1-1-2.1-2.3-2.1zm14.7-28.4c.7 0 1.3.5 1.3 1.2v4.9c0 .7-.6 1.2-1.3 1.2h-7.3c-.7 0-1.2-.5-1.2-1.2v-5c0-.6.5-1.1 1.2-1.1h7.3m0-1h-7.3c-1.2 0-2.2 1-2.2 2.2v4.9c0 1.2 1 2.2 2.2 2.2h7.3c1.3 0 2.3-1 2.3-2.2v-5c0-1.1-1-2.1-2.3-2.1zm0 10.7c.7 0 1.3.6 1.3 1.3v4.9c0 .7-.6 1.2-1.3 1.2h-7.3c-.7 0-1.2-.5-1.2-1.2v-5c0-.6.5-1.1 1.2-1.1h7.3m0-1h-7.3c-1.2 0-2.2 1-2.2 2.2v4.9c0 1.2 1 2.2 2.2 2.2h7.3c1.3 0 2.3-1 2.3-2.2v-5c0-1.1-1-2.1-2.3-2.1zm0 10.8c.7 0 1.3.5 1.3 1.2v4.9c0 .7-.6 1.2-1.3 1.2h-7.3c-.7 0-1.2-.6-1.2-1.2v-5c0-.6.5-1.1 1.2-1.1h7.3m0-1h-7.3c-1.2 0-2.2 1-2.2 2.2v4.9c0 1.2 1 2.2 2.2 2.2h7.3c1.3 0 2.3-1 2.3-2.2v-5c0-1.1-1-2.1-2.3-2.1zm0 10.8c.7 0 1.3.5 1.3 1.2v4.9c0 .7-.6 1.2-1.3 1.2h-7.3c-.7 0-1.2-.6-1.2-1.2v-5c0-.6.5-1.1 1.2-1.1h7.3m0-1h-7.3c-1.2 0-2.2 1-2.2 2.2v4.9c0 1.2 1 2.2 2.2 2.2h7.3c1.3 0 2.3-1 2.3-2.2v-5c0-1.1-1-2.1-2.3-2.1z" fill="#424242" opacity=".2"/><path d="M42.6 49.2H34a1 1 0 0 0-1 .7l-1.6 4.8a1 1 0 0 1-1 .6h-2.5a1 1 0 0 1-1-1.3L36 29.8a1 1 0 0 1 1-.7h2.6c.4 0 .8.3 1 .7l9 24.2a1 1 0 0 1-1 1.3h-2.5a1 1 0 0 1-1-.6l-1.6-4.8a1 1 0 0 0-1-.7zM36 45.6h4.7a1 1 0 0 0 1-1.4l-2.4-6.8a1 1 0 0 0-1.9 0L35 44.2a1 1 0 0 0 1 1.4zm33-12.8h-6.2a1 1 0 0 0-1 1v20.5c0 .6-.5 1-1 1h-2.5a1 1 0 0 1-1-1V33.8c0-.5-.5-1-1-1h-6.1a1 1 0 0 1-1-1v-1.7c0-.5.4-1 1-1H69c.5 0 1 .5 1 1v1.7c0 .6-.5 1-1 1zm10.5-3l6.4 17c.4.8 1.6.8 1.9 0l6.4-17a1 1 0 0 1 .9-.7h4.2c.5 0 1 .5 1 1v24.2c0 .6-.5 1-1 1h-2.6a1 1 0 0 1-1-1v-7.6l.3-5.5c0-1.1-1.6-1.4-2-.4l-5.3 13.9a1 1 0 0 1-1 .6H86a1 1 0 0 1-1-.6l-5.2-13.9c-.4-1-2-.7-2 .4l.2 5.5v7.6c0 .6-.4 1-1 1h-2.5a1 1 0 0 1-1-1V30.1c0-.5.4-1 1-1h4.2c.4 0 .8.3 1 .7z" fill="#FAFAFA"/><path fill="#9E9E9E" d="M80 78.6h32v4H80z"/><path d="M111 77.6v4H81v-4h30m1-1H80v6h32v-6z" fill="#424242" opacity=".2"/><path d="M112 78.6H80v-1.8c0-.7.5-1.2 1.1-1.2h29.7c.7 0 1.2.5 1.2 1.2v1.8z" fill="#66BB6A"/><path d="M98.7 81c-.1-1-1.3-1.9-2.7-1.9s-2.6.9-2.6 1.9H80v2c0 .6.6 1 1.3 1h29.4c.7 0 1.3-.5 1.3-1v-2H98.7z" fill="#757575"/><path d="M110.8 76.6c.1 0 .2 0 .2.2v.8H81v-.8l.1-.2H111m0-1H81.2c-.7 0-1.2.5-1.2 1.2v1.8h32v-1.8c0-.7-.5-1.2-1.1-1.2zm-15 4.5c1 0 1.6.5 1.6 1l.1.9H111v1H81v-1h13.3v-1c0-.4.8-.9 1.7-.9m0-1c-1.4 0-2.6.9-2.6 1.9H80v2c0 .6.6 1 1.3 1h29.4c.7 0 1.3-.5 1.3-1v-2H98.6c0-1-1.2-1.9-2.6-1.9z" fill="#424242" opacity=".2"/><path d="M110.8 109H81.1c-.6 0-1.1-.5-1.1-1.1v-6.7c0-.7.5-1.2 1.1-1.2h29.7c.7 0 1.2.5 1.2 1.2v6.6c0 .7-.5 1.2-1.2 1.2z" fill="#757575"/><path d="M110.8 101l.2.1v6.7l-.1.2H81l-.1-.2v-6.6l.1-.2h29.7m0-1H81.1c-.6 0-1.1.5-1.1 1.1v6.7c0 .7.5 1.2 1.1 1.2h29.7c.7 0 1.2-.5 1.2-1.2v-6.6c0-.7-.5-1.2-1.2-1.2z" fill="#424242" opacity=".2"/><path fill="#616161" d="M82.7 104.4h26.7v2H82.7z"/><path fill="#9E9E9E" d="M82.7 102.6h26.7v2H82.7z"/><path d="M108.3 103.6v1.8H83.7v-1.8h24.6m1-1H82.7v3.8h26.6v-3.8z" fill="#424242" opacity=".2"/></svg>