<svg viewBox="0 0 128 128" xmlns="http://www.w3.org/2000/svg" xmlns:xlink="http://www.w3.org/1999/xlink"><linearGradient id="a" x1="100.6" x2="100.6" y1="13.3" y2="122.7" gradientUnits="userSpaceOnUse"><stop stop-color="#BCAAA4" offset=".2"/><stop stop-color="#B9A69F" offset=".4"/><stop stop-color="#AE9991" offset=".6"/><stop stop-color="#9E837A" offset=".8"/><stop stop-color="#8D6E63" offset="1"/></linearGradient><path d="M123.8 124H77.5V15a3 3 0 0 1 3-3h40.3a3 3 0 0 1 3 3v109z" fill="url(#a)"/><path d="M97.6 99h-6.3a2 2 0 0 1-2-2v-6c0-1 1-2 2-2h6.3a2 2 0 0 1 2 2v6a2 2 0 0 1-2 2zm0-16.6h-6.3a2 2 0 0 1-2-2v-6c0-1 1-2 2-2h6.3a2 2 0 0 1 2 2v6a2 2 0 0 1-2 2zm0-16.6h-6.3a2 2 0 0 1-2-2v-6c0-1.1 1-2 2-2h6.3a2 2 0 0 1 2 2v6a2 2 0 0 1-2 2zm0-17.8h-6.3a2 2 0 0 1-2-2v-6c0-1.1 1-2 2-2h6.3a2 2 0 0 1 2 2v6a2 2 0 0 1-2 2zm21 51h-9.8a2 2 0 0 1-2-2v-6c0-1 1-2 2-2h9.8a2 2 0 0 1 2 2v6a2 2 0 0 1-2 2zm0-16.6h-9.8a2 2 0 0 1-2-2v-6c0-1 1-2 2-2h9.8a2 2 0 0 1 2 2v6a2 2 0 0 1-2 2zm0-16.6h-9.8a2 2 0 0 1-2-2v-6c0-1.1 1-2 2-2h9.8a2 2 0 0 1 2 2v6a2 2 0 0 1-2 2zm0-17.8h-9.8a2 2 0 0 1-2-2v-6c0-1.1 1-2 2-2h9.8a2 2 0 0 1 2 2v6a2 2 0 0 1-2 2z" fill="#6D4C41"/><path fill="#C62828" d="M90.3 29.6h8v5h-8zm0 62.4h8v5h-8z"/><linearGradient id="b" x1="48" x2="48" y1="3.8" y2="124.8" gradientUnits="userSpaceOnUse"><stop stop-color="#D7CCC8" offset=".2"/><stop stop-color="#D3C8C3" offset=".4"/><stop stop-color="#C9BAB5" offset=".6"/><stop stop-color="#B8A59E" offset=".8"/><stop stop-color="#A1887F" offset="1"/></linearGradient><path d="M92 124H4V8a4 4 0 0 1 4-4h80a4 4 0 0 1 4 4v116z" fill="url(#b)"/><path d="M88 7c.6 0 1 .5 1 1v4a3 3 0 0 0 3 3h28.8v106H7V8c0-.6.5-1 1-1h80m0-3H8a4 4 0 0 0-4 4v116h119.8V15a3 3 0 0 0-3-3H92V8a4 4 0 0 0-4-4z" fill="#424242" opacity=".2"/><path d="M25 97H13.9a2 2 0 0 1-2-2v-5.7c0-1.1 1-2 2-2h11.3a2 2 0 0 1 2 2v5.8a2 2 0 0 1-2 2zm0-16.2H13.9a2 2 0 0 1-2-2V73c0-1 1-2 2-2h11.3a2 2 0 0 1 2 2v5.8a2 2 0 0 1-2 2zm0-16.3H13.9a2 2 0 0 1-2-2v-5.8c0-1 1-2 2-2h11.3a2 2 0 0 1 2 2v5.8a2 2 0 0 1-2 2zm0-16.3H13.9a2 2 0 0 1-2-2v-5.8c0-1 1-2 2-2h11.3a2 2 0 0 1 2 2v5.8a2 2 0 0 1-2 2zM53.3 97H42a2 2 0 0 1-2-2v-5.7c0-1.1.9-2 2-2h11.2a2 2 0 0 1 2 2v5.8a2 2 0 0 1-2 2zm0-16.2H42a2 2 0 0 1-2-2V73c0-1 .9-2 2-2h11.2a2 2 0 0 1 2 2v5.8a2 2 0 0 1-2 2zm0-16.3H42a2 2 0 0 1-2-2v-5.8c0-1 .9-2 2-2h11.2a2 2 0 0 1 2 2v5.8a2 2 0 0 1-2 2zm0-16.3H42a2 2 0 0 1-2-2v-5.8c0-1 .9-2 2-2h11.2a2 2 0 0 1 2 2v5.8a2 2 0 0 1-2 2zM81.5 97H70.3a2 2 0 0 1-2-2v-5.7c0-1.1.9-2 2-2h11.2a2 2 0 0 1 2 2v5.8a2 2 0 0 1-2 2zm0-16.2H70.3a2 2 0 0 1-2-2V73c0-1 .9-2 2-2h11.2a2 2 0 0 1 2 2v5.8a2 2 0 0 1-2 2zm0-16.3H70.3a2 2 0 0 1-2-2v-5.8c0-1 .9-2 2-2h11.2a2 2 0 0 1 2 2v5.8a2 2 0 0 1-2 2zm0-16.3H70.3a2 2 0 0 1-2-2v-5.8c0-1 .9-2 2-2h11.2a2 2 0 0 1 2 2v5.8a2 2 0 0 1-2 2zM25 31.9H13.9a2 2 0 0 1-2-2V24c0-1.1 1-2 2-2h11.3a2 2 0 0 1 2 2v5.8a2 2 0 0 1-2 2zm28.3 0H42a2 2 0 0 1-2-2V24c0-1.1.9-2 2-2h11.2a2 2 0 0 1 2 2v5.8a2 2 0 0 1-2 2zm28.2 0H70.3a2 2 0 0 1-2-2V24c0-1.1.9-2 2-2h11.2a2 2 0 0 1 2 2v5.8a2 2 0 0 1-2 2zM11 110h22.4v14H11z" fill="#6D4C41"/><path d="M11 110h2.8v14H11zm19.6 0h2.8v14h-2.8z" fill="#424242" opacity=".2"/><path fill="#6D4C41" d="M36.8 110h22.4v14H36.8z"/><path d="M36.8 110h2.8v14h-2.8zm19.6 0h2.8v14h-2.8z" fill="#424242" opacity=".2"/><path fill="#6D4C41" d="M62.6 110H85v14H62.6z"/><path d="M62.6 110h2.8v14h-2.8zm19.6 0H85v14h-2.8z" fill="#424242" opacity=".2"/><path d="M87.8 112H8.7a2 2 0 0 1-2-2v-.2h83v.3a2 2 0 0 1-2 2z" fill="#4DB6AC"/><path d="M89.8 110.4H6.7v-2.5c0-.5.4-1 1-1h81c.6 0 1 .5 1 1v2.5z" fill="#00796B"/><path d="M100 104.7a3 3 0 0 1-3-3V25a3 3 0 0 1 3-3h11.6a3 3 0 0 1 3 3v76.8a3 3 0 0 1-3 3H100z" fill="#EF5350"/><path d="M111.6 23c1 0 1.9 1 1.9 2v76.8c0 1-.9 1.9-2 1.9H100c-1 0-2-.9-2-2V25c0-1 1-2 2-2h11.6m0-2H100a4 4 0 0 0-4 4v76.8a4 4 0 0 0 4 4h11.6a4 4 0 0 0 4-4V25a4 4 0 0 0-4-4z" fill="#C62828"/><defs><path id="c" d="M92 124H4V8a4 4 0 0 1 4-4h80a4 4 0 0 1 4 4v116z"/></defs><clipPath id="d"><use xlink:href="#c"/></clipPath><path clip-path="url(#d)" fill="#BF360C" d="M-2 4h107.8v7.8H-2z"/></svg>