<svg viewBox="0 0 128 128" xmlns="http://www.w3.org/2000/svg"><linearGradient id="a" x1="-70.047" x2="-70.047" y1="-107.41" y2="-51.291" gradientUnits="userSpaceOnUse"><stop stop-color="#eee" offset=".005"/><stop stop-color="#EAEAEA" offset=".282"/><stop stop-color="#ddd" offset=".577"/><stop stop-color="#C8C8C8" offset=".879"/><stop stop-color="#BDBDBD" offset="1"/></linearGradient><path d="M-19.13-78.72c-.91-4.33-4.3-20.11-5.87-27.41-.47-2.21-2.11-3.82-3.99-3.81-5.36 0-15.39-.05-16.6-.05h-44.08c-.61 0-2.56.06-4.11 1.79-4.7 5.27-12.54 20.52-13.76 22.07-.08.1-6.27 2.31-9.09 4-1.12.67-1.74 2.13-1.9 3.63l-2.46 20.75c-.64 4.1 1.7 5.76 5.37 5.76h91.51c2.8 0 5.11-.68 5.11-5.69v-19.79c0-.43-.05-.85-.13-1.25z" fill="url(#a)"/><defs><path id="b" d="M-19.13-78.78c-.91-4.32-4.3-20.06-5.87-27.34-.47-2.21-2.11-3.82-3.99-3.82-5.36 0-15.39-.06-16.6-.06h-44.08c-.61 0-2.56.07-4.11 1.8-4.7 5.26-12.54 20.51-13.76 22.05-.08.1-6.27 2.28-9.09 3.96-1.12.67-1.74 2.13-1.9 3.62l-2.46 20.76c-.64 4.09 1.7 5.81 5.37 5.81h91.51c2.8 0 5.11-.79 5.11-5.8v-19.74c0-.42-.05-.83-.13-1.24z"/></defs><path d="M-28.98-107c.36 0 .87.59 1.05 1.44 1.46 6.78 4.95 23.05 5.86 27.43.04.2.07.44.07.66v19.79c0 2.81-.49 2.69-2.11 2.69h-91.51c-1.3 0-2.02-.23-2.25-.5s-.3-.92-.16-1.77c.01-.04.01-.06.02-.09l2.47-20.83c.08-.8.36-1.28.46-1.36 1.87-1.12 5.83-2.66 7.51-3.31 1.46-.57 1.86-.72 2.39-1.39.5-.63 1.28-2 2.99-5.03 2.85-5.03 7.61-13.53 10.65-16.93.57-.64 1.22-.79 1.87-.79h60.69-.02m.02-3.01h-60.7c-.63 0-2.55.08-4.08 1.79-4.7 5.27-12.54 20.52-13.76 22.07-.08.1-6.27 2.31-9.09 4-1.12.67-1.74 2.13-1.9 3.63l-2.46 20.75c-.64 4.1 1.7 5.76 5.37 5.76h91.51c2.8 0 5.11-.68 5.11-5.69v-19.79c0-.42-.05-.84-.13-1.24-.91-4.33-4.3-20.17-5.87-27.47-.49-2.21-2.13-3.81-4-3.81z" fill="#424242" opacity=".2"/><linearGradient id="c" x1="69.43" x2="69.43" y1="-151.5" y2="-95.374" gradientUnits="userSpaceOnUse"><stop stop-color="#616161" offset=".011"/><stop stop-color="#5D5D5D" offset=".25"/><stop stop-color="#505050" offset=".504"/><stop stop-color="#3B3B3B" offset=".766"/><stop stop-color="#212121" offset="1"/></linearGradient><path d="M120.35-122.93c-.91-4.33-4.3-20.11-5.86-27.41-.47-2.21-2.11-3.75-3.99-3.75-5.36 0-15.39.01-16.6.01H49.82c-.61 0-2.56-.01-4.11 1.73-4.7 5.27-12.54 20.49-13.76 22.03-.08.1-6.27 2.3-9.09 3.99-1.12.67-1.74 2.12-1.9 3.62l-2.46 20.8c-.64 4.1 1.7 5.82 5.37 5.82h91.51c2.8 0 5.1-.8 5.1-5.81v-19.79c-.01-.42-.05-.83-.13-1.24z" fill="url(#c)"/><defs><path id="d" d="M120.35-122.98c-.91-4.32-4.3-20.06-5.86-27.34-.47-2.21-2.11-3.74-3.99-3.74-5.36 0-15.39.01-16.6.01H49.82c-.61 0-2.56-.01-4.11 1.72-4.7 5.26-12.54 20.47-13.76 22.01-.08.1-6.27 2.26-9.09 3.94-1.12.67-1.74 2.12-1.9 3.61L18.49-102c-.64 4.09 1.7 5.8 5.37 5.8h91.51c2.8 0 5.1-.79 5.1-5.8v-19.74c0-.42-.04-.84-.12-1.24z"/></defs><path d="M110.5-151.08c.36 0 .87.53 1.05 1.38 1.46 6.78 4.95 23.03 5.86 27.4.04.2.06.41.06.63v19.79c0 2.81-.49 2.81-2.1 2.81H23.86c-1.3 0-2.02-.29-2.25-.56s-.3-.95-.16-1.8l.02-.1 2.47-20.84c.08-.8.36-1.28.46-1.36 1.87-1.12 5.83-2.66 7.51-3.31 1.46-.57 1.86-.72 2.39-1.39.5-.63 1.28-2 2.99-5.03 2.85-5.03 7.61-13.46 10.65-16.87.57-.64 1.22-.72 1.87-.72h44.08c.75 0 4.84 0 9.12-.01l7.49-.02m0-3c-5.36 0-15.39.01-16.6.01H49.8c-.63 0-2.55.01-4.08 1.73-4.7 5.27-12.54 20.49-13.76 22.03-.08.1-6.27 2.3-9.09 3.99-1.12.67-1.74 2.12-1.9 3.62l-2.46 20.8c-.64 4.1 1.7 5.82 5.37 5.82h91.51c2.8 0 5.1-.8 5.1-5.81v-19.79c0-.42-.04-.84-.13-1.24-.91-4.33-4.3-20.11-5.86-27.41-.49-2.22-2.13-3.75-4-3.75z" fill="#eee" opacity=".2"/><path fill="none" stroke="#CFD8DC" stroke-linecap="round" stroke-linejoin="round" stroke-miterlimit="10" stroke-width="2" d="M117.24 117.35l-94.7-7.95M10.76 10.87l7.95 94.7"/><path d="M15.86 111.9l-10.9 1.22c-.81.09-1.29-.89-.71-1.47l13.22-13.22c.14-.14.32-.23.52-.25l10.9-1.22c.81-.09 1.29.89.71 1.47l-13.22 13.22a.91.91 0 0 1-.52.25z" fill="#BF360C"/><path d="M16.16 112.13l-1.22 10.9c-.09.81.89 1.29 1.47.71l13.22-13.22c.14-.14.23-.32.25-.52l1.22-10.9c.09-.81-.89-1.29-1.47-.71l-13.22 13.22a.88.88 0 0 0-.25.52z" fill="#BF360C"/><path d="M28.62 97.99L15.7 110.91l-10.47 1.17 12.92-12.92 10.47-1.17m.37-1.04c-.03 0-.07 0-.1.01l-10.9 1.22c-.2.02-.38.11-.52.25L4.25 111.64c-.55.55-.14 1.48.6 1.48.03 0 .07 0 .1-.01l10.9-1.22c.2-.02.38-.11.52-.25L29.6 98.43c.55-.56.14-1.48-.61-1.48z" fill="#424242" opacity=".2"/><path d="M30.07 99.37l-1.17 10.47-12.92 12.92 1.17-10.47 12.92-12.92m.17-1.23c-.21 0-.43.08-.61.26l-13.22 13.22c-.14.14-.23.32-.25.52l-1.22 10.9c-.06.56.39.97.87.97.21 0 .43-.08.61-.26l13.22-13.22c.14-.14.23-.32.25-.52l1.22-10.9c.06-.57-.4-.97-.87-.97z" fill="#424242" opacity=".2"/><path d="M15.51 112.51c.7.7 1.83.7 2.53 0l102.11-102.1-2.53-2.53-102.11 102.1c-.7.7-.7 1.84 0 2.53z" fill="#8D6E63"/><path d="M117.62 9.29l1.11 1.11-101.4 101.4c-.15.15-.35.23-.56.23a.787.787 0 0 1-.56-1.34L117.62 9.29m0-1.41L15.51 109.98a1.787 1.787 0 0 0 2.52 2.53l102.12-102.1-2.53-2.53z" fill="#424242" opacity=".2"/><linearGradient id="e" x1="59.581" x2="73.14" y1="-11.41" y2="-11.41" gradientTransform="scale(-1 1) rotate(-45 .13 221.762)" gradientUnits="userSpaceOnUse"><stop stop-color="#9E9E9E" offset="0"/><stop stop-color="#E0E0E0" offset="1"/></linearGradient><path d="M107.75 10.69l15.55-6.64c.41-.18.83.24.65.65l-6.7 15.56c-.16.37-.68.41-.88.05l-2.79-4.82c-.26-.46-.64-.84-1.1-1.1l-4.79-2.82a.492.492 0 0 1 .06-.88z" fill="url(#e)"/><path d="M122.53 5.46l-5.8 13.48-2.29-3.95c-.35-.6-.85-1.11-1.45-1.46l-3.93-2.31 13.47-5.76M123.5 4c-.06 0-.13.01-.2.04l-15.55 6.64c-.37.16-.41.68-.06.88l4.79 2.82c.45.27.83.65 1.1 1.1l2.79 4.82c.1.17.26.25.43.25.19 0 .37-.1.46-.3l6.7-15.56a.504.504 0 0 0-.46-.69z" fill="#424242" opacity=".2"/><path d="M92.67 35.78c-9.45-9.45-30.37-8.8-44.17-8.8-13.81 0-32.24-4.87-43.14-15.55-1.66-1.63-1.85-4.46-.2-6.1.01-.02.02-.03.03-.04 1.63-1.63 4.42-1.51 6.07.11 9.44 9.25 27.77 12.49 40.61 12.49 13.25 0 39.35-2.58 50.28 8.34 10.92 10.92 8.32 37.23 8.32 50.26 0 12.85 3.02 30.96 12.28 40.4 1.62 1.65 1.46 4.16-.17 5.79l-.03.03c-1.65 1.65-4.18 1.76-5.81.1-10.69-10.9-15.42-29.04-15.42-42.84-.01-13.03.8-34.75-8.65-44.19z" fill="#FFA000"/><path d="M109.19 41.36l-9.55 9.55c-1.23-6.06-3.34-11.5-6.97-15.13-3.79-3.79-9.42-5.95-15.7-7.19l9.52-9.52c6.26 1.21 11.87 3.37 15.66 7.16 3.67 3.67 5.81 9.08 7.04 15.13z" fill="#6D4C41"/><path d="M8.1 6.12c.66 0 1.31.26 1.76.71 9.83 9.64 28.78 13.06 42.01 13.06 1.97 0 4.24-.06 6.64-.12 2.79-.07 5.96-.15 9.18-.15 10.74 0 25.86.83 33.05 8.02 8.71 8.71 8.2 28.91 7.85 42.28-.06 2.38-.12 4.63-.12 6.57 0 13.87 3.38 32.14 12.85 41.8.92.93.61 2.2-.19 3.01-.45.45-1.02.7-1.6.7-.36 0-.89-.1-1.37-.59-10.96-11.18-14.85-29.31-14.85-41.44 0-.91 0-1.87.01-2.86.06-13.29.14-33.37-9.23-42.74-8.67-8.67-25.37-9.4-40.34-9.4H48.5c-13.17 0-31.19-4.63-41.74-14.98-.47-.45-.74-1.12-.75-1.79 0-.34.07-.97.59-1.5.38-.37.91-.58 1.5-.58m0-2c-1.07 0-2.12.38-2.91 1.17l-.03.03c-1.65 1.65-1.47 4.47.2 6.1C16.26 22.11 34.7 26.97 48.5 26.97c1.66 0 3.42-.01 5.25-.01 13.42 0 30.62.5 38.93 8.81 9.45 9.45 8.64 31.16 8.64 44.19 0 13.8 4.74 31.94 15.42 42.84.79.81 1.79 1.19 2.8 1.19 1.08 0 2.16-.44 3.01-1.29l.03-.03c1.63-1.63 1.79-4.14.17-5.79-9.26-9.44-12.28-27.55-12.28-40.4 0-13.03 2.6-39.34-8.32-50.26-7.42-7.42-21.82-8.61-34.46-8.61-5.98 0-11.56.27-15.82.27-12.85 0-31.18-3.24-40.61-12.49A4.549 4.549 0 0 0 8.1 4.12z" fill="#424242" opacity=".2"/></svg>