<svg viewBox="0 0 128 128" xmlns="http://www.w3.org/2000/svg" xmlns:xlink="http://www.w3.org/1999/xlink"><radialGradient id="a" cx="64.1" cy="45.1" r="35.8" gradientTransform="matrix(0 .944 -.786 0 99.5 -12)" gradientUnits="userSpaceOnUse"><stop stop-color="#CFD8DC" offset="0"/><stop stop-color="#C1CDD2" offset=".3"/><stop stop-color="#9DAFB8" offset=".8"/><stop stop-color="#90A4AE" offset="1"/></radialGradient><path fill="url(#a)" d="M44 40h40v68H44z"/><linearGradient id="b" x1="64" x2="64" y1="85.9" y2="64.9" gradientUnits="userSpaceOnUse"><stop stop-color="#90A4AE" offset="0"/><stop stop-color="#90A4AE" stop-opacity="0" offset="1"/></linearGradient><path fill="url(#b)" opacity=".5" d="M44 40h40v68H44z"/><radialGradient id="c" cx="20" cy="44.8" r="34.2" gradientTransform="matrix(0 1.1476 -.6311 0 48.3 17.2)" gradientUnits="userSpaceOnUse"><stop stop-color="#CFD8DC" offset="0"/><stop stop-color="#ACBBC3" offset=".6"/><stop stop-color="#90A4AE" offset="1"/></radialGradient><path fill="url(#c)" d="M8 39.3h24V76H8z"/><linearGradient id="d" x1="20" x2="20" y1="78.5" y2="59.8" gradientUnits="userSpaceOnUse"><stop stop-color="#90A4AE" offset="0"/><stop stop-color="#90A4AE" stop-opacity="0" offset="1"/></linearGradient><path fill="url(#d)" opacity=".5" d="M8 39.3h24V76H8z"/><radialGradient id="e" cx="108" cy="44.8" r="34.2" gradientTransform="matrix(0 1.1476 -.6311 0 136.3 -83.8)" gradientUnits="userSpaceOnUse"><stop stop-color="#CFD8DC" offset="0"/><stop stop-color="#ACBBC3" offset=".6"/><stop stop-color="#90A4AE" offset="1"/></radialGradient><path fill="url(#e)" d="M96 39.3h24V76H96z"/><linearGradient id="f" x1="108" x2="108" y1="78.5" y2="58.9" gradientUnits="userSpaceOnUse"><stop stop-color="#90A4AE" offset="0"/><stop stop-color="#90A4AE" stop-opacity="0" offset="1"/></linearGradient><path fill="url(#f)" opacity=".5" d="M96 39.3h24V76H96z"/><path d="M53 59h-4a1 1 0 0 1-1-.9v-1.3c0-.6.4-1 1-1h4c.5 0 .9.4.9 1V58c0 .5-.4 1-1 1z" fill="#607D8B"/><path d="M81.3 64h-4c-.9 0-1.6-.7-1.6-1.5v-.9c0-.8.7-1.5 1.5-1.5h4c.9 0 1.6.7 1.6 1.5v.9c0 .8-.7 1.5-1.5 1.5zm-6.2 3.4h-3.4a.9.9 0 0 1-1-.9v-1.1c0-.5.5-.9 1-.9H75c.5 0 .9.4.9.9v1.1c0 .5-.4.9-.9.9z" fill="#90A4AE"/><path d="M83 69h-5a1 1 0 0 1-1-1v-2c0-.6.4-1 1-1h5c.5 0 1 .4 1 1v2c0 .6-.5 1-1 1z" fill="#78909C"/><path d="M79.8 73.6h-4.5a.8.8 0 0 1-.8-.7V71c0-.5.3-.8.8-.8h4.4c.5 0 .8.3.8.8v1.8c0 .4-.3.7-.7.7z" fill="#90A4AE" opacity=".3"/><path d="M105 49.1h-4.4a1 1 0 0 1-1-.9v-1.5c0-.5.5-1 1-1h4.3c.5 0 1 .5 1 1v1.5c0 .5-.5 1-1 1z" fill="#78909C"/><path d="M100.4 53.3h-3.5a.6.6 0 0 1-.6-.6V51c0-.3.3-.6.6-.6h3.5c.3 0 .6.3.6.6v1.7c0 .3-.3.6-.6.6z" fill="#90A4AE"/><path d="M51.2 54.8H45a1 1 0 0 1-.9-1v-2.6c0-.5.4-1 1-1h6.2c.5 0 1 .5 1 1V54c0 .5-.4 1-1 1zm-24.5 9.5h-4.8a.7.7 0 0 1-.7-.7v-2c0-.4.3-.7.7-.7h4.8c.4 0 .7.3.7.7v2c0 .4-.3.7-.7.7z" fill="#78909C"/><path d="M23 68h-4.2a.6.6 0 0 1-.6-.6v-1.8c0-.3.3-.6.6-.6H23c.3 0 .6.3.6.6v1.8c0 .3-.3.6-.6.6z" fill="#90A4AE" opacity=".3"/><path d="M81 43v62H47V43h34m3-3H44v68h40V40zm-55 2.3V73H11V42.2h18m3-3H8V76h24V39.2zm85 3.1V73H99V42.2h18m3-3H96V76h24V39.2z" fill="#424242" opacity=".2"/><radialGradient id="g" cx="63.7" cy="75.9" r="52.6" gradientTransform="matrix(0 .9995 -.8207 0 126 12.3)" gradientUnits="userSpaceOnUse"><stop stop-color="#CFD8DC" offset="0"/><stop stop-color="#C2CED3" offset=".3"/><stop stop-color="#A1B2BB" offset=".8"/><stop stop-color="#90A4AE" offset="1"/></radialGradient><path d="M92.9 76a1 1 0 0 0-1 .8 4 4 0 0 1-7.8 0 1 1 0 0 0-1-.8H81a1 1 0 0 0-1 .8 4 4 0 0 1-7.8 0 1 1 0 0 0-1-.8H69a1 1 0 0 0-1 .8 4 4 0 0 1-7.8 0 1 1 0 0 0-1-.8H57a1 1 0 0 0-1 .8 4 4 0 0 1-7.8 0 1 1 0 0 0-1-.8H45a1 1 0 0 0-1 .8 4 4 0 0 1-7.8 0 1 1 0 0 0-1-.8H32v48h64V76h-3.1z" fill="url(#g)"/><path d="M24 60h-8v-6.7a4 4 0 1 1 8 0V60zm88 0h-8v-6.7a4 4 0 1 1 8 0V60zm-42 8H58V58a6 6 0 0 1 12 0v10z" fill="#546E7A"/><radialGradient id="h" cx="64" cy="3.6" r="44.5" gradientTransform="scale(1 .9995)" gradientUnits="userSpaceOnUse"><stop stop-color="#2196F3" offset="0"/><stop stop-color="#2093EF" offset=".4"/><stop stop-color="#1D88E4" offset=".7"/><stop stop-color="#1976D2" offset="1"/></radialGradient><path d="M61.4 5.5l-21 38A3 3 0 0 0 43 48h42a3 3 0 0 0 2.6-4.6l-21-38a3 3 0 0 0-5.2 0z" fill="url(#h)"/><radialGradient id="i" cx="20" cy="15.3" r="28.5" gradientTransform="scale(1 .9995)" gradientUnits="userSpaceOnUse"><stop stop-color="#2196F3" offset="0"/><stop stop-color="#2092EE" offset=".3"/><stop stop-color="#1D85E1" offset=".7"/><stop stop-color="#1976D2" offset="1"/></radialGradient><path d="M17.4 17.5l-13 22A3 3 0 0 0 7 44h26a3 3 0 0 0 2.6-4.5l-13-22a3 3 0 0 0-5.2 0z" fill="url(#i)"/><radialGradient id="j" cx="108" cy="15.3" r="28.5" gradientTransform="scale(1 .9995)" gradientUnits="userSpaceOnUse"><stop stop-color="#2196F3" offset="0"/><stop stop-color="#2092EE" offset=".3"/><stop stop-color="#1D85E1" offset=".7"/><stop stop-color="#1976D2" offset="1"/></radialGradient><path d="M105.4 17.5l-13 22A3 3 0 0 0 95 44h26a3 3 0 0 0 2.6-4.5l-13-22a3 3 0 0 0-5.2 0z" fill="url(#j)"/><path d="M64 7l21 37.9H43L64 7m0-3c-1 0-2 .5-2.6 1.5l-21 38A3 3 0 0 0 43 48h42a3 3 0 0 0 2.6-4.6l-21-38A3 3 0 0 0 64 4zM20 19l13 22H7l13-22m0-3c-1 0-2 .5-2.6 1.5l-13 22A3 3 0 0 0 7 44h26a3 3 0 0 0 2.6-4.5l-13-22A3 3 0 0 0 20 16zm88 3l13 22H95l13-22m0-3c-1 0-2 .5-2.6 1.5l-13 22A3 3 0 0 0 95 44h26a3 3 0 0 0 2.6-4.5l-13-22A3 3 0 0 0 108 16z" fill="#424242" opacity=".2"/><path d="M49.9 110.5h-10a.6.6 0 0 1-.6-.6v-1c0-.3.2-.6.6-.6h10c.3 0 .6.3.6.6v1c0 .3-.3.6-.6.6z" fill="#78909C"/><path d="M44.6 106.5h-6a.9.9 0 0 1-.9-1v-2.4c0-.5.4-1 1-1h6c.4 0 .8.5.8 1v2.5c0 .5-.4.9-.9.9z" fill="#90A4AE"/><path d="M81.4 87.9h-6a.9.9 0 0 1-.9-.9v-2.5c0-.5.4-1 .9-1h6c.5 0 .9.5.9 1V87c0 .5-.4.9-.9.9zm6.9.6h-4a.9.9 0 0 1-.9-.9v-1.4c0-.5.4-1 .9-1h4c.5 0 1 .5 1 1v1.4c0 .5-.5 1-1 1zm-1.8 25.1h-10a.6.6 0 0 1-.7-.6v-1c0-.3.3-.6.6-.6h10c.4 0 .7.3.7.6v1c0 .3-.3.6-.6.6z" fill="#78909C"/><path d="M89.9 96h-6a.9.9 0 0 1-1-.9v-2.5c0-.5.5-.9 1-.9h6c.5 0 .9.4.9 1V95c0 .5-.4 1-1 1zM82 91.7h-3a.9.9 0 0 1-1-1v-.9c0-.5.4-.9 1-.9h3c.6 0 1 .4 1 1v.9c0 .5-.4.9-1 .9z" fill="#90A4AE"/><path d="M88.5 118h-4a1 1 0 0 1-1-1v-1.3c0-.6.5-1 1-1h4c.6 0 1 .4 1 1v1.3c0 .6-.4 1-1 1z" fill="#607D8B"/><defs><path id="k" d="M92 76.8a4 4 0 0 1-8 0 1 1 0 0 0-.9-.8H81a1 1 0 0 0-1 .8 4 4 0 0 1-7.8 0 1 1 0 0 0-1-.8H69a1 1 0 0 0-1 .8 4 4 0 0 1-7.8 0 1 1 0 0 0-1-.8H57a1 1 0 0 0-1 .8 4 4 0 0 1-7.8 0 1 1 0 0 0-1-.8H45a1 1 0 0 0-1 .8 4 4 0 0 1-7.8 0v-.2V124h56V76.5l-.2.2z"/></defs><clipPath id="l"><use xlink:href="#k"/></clipPath><linearGradient id="m" x1="34.6" x2="44.3" y1="100" y2="100" gradientUnits="userSpaceOnUse"><stop stop-color="#546E7A" offset="0"/><stop stop-color="#546E7A" stop-opacity="0" offset="1"/></linearGradient><path clip-path="url(#l)" fill="url(#m)" opacity=".7" d="M36 76h12v48H36z"/><defs><path id="n" d="M92 76.8a4 4 0 0 1-8 0 1 1 0 0 0-.9-.8H81a1 1 0 0 0-1 .8 4 4 0 0 1-7.8 0 1 1 0 0 0-1-.8H69a1 1 0 0 0-1 .8 4 4 0 0 1-7.8 0 1 1 0 0 0-1-.8H57a1 1 0 0 0-1 .8 4 4 0 0 1-7.8 0 1 1 0 0 0-1-.8H45a1 1 0 0 0-1 .8 4 4 0 0 1-7.8 0v-.2V124h56V76.5l-.2.2z"/></defs><clipPath id="o"><use xlink:href="#n"/></clipPath><linearGradient id="p" x1="78.6" x2="88" y1="100" y2="100" gradientTransform="matrix(-1 0 0 1 172 0)" gradientUnits="userSpaceOnUse"><stop stop-color="#546E7A" offset="0"/><stop stop-color="#546E7A" stop-opacity="0" offset="1"/></linearGradient><path clip-path="url(#o)" fill="url(#p)" opacity=".7" d="M80 124h12V76H80z"/><radialGradient id="q" cx="19.9" cy="67.5" r="56.7" gradientTransform="matrix(0 .9995 -.6611 0 64.5 47.6)" gradientUnits="userSpaceOnUse"><stop stop-color="#CFD8DC" offset="0"/><stop stop-color="#C9D3D8" offset=".2"/><stop stop-color="#B8C5CB" offset=".5"/><stop stop-color="#9CAEB7" offset=".9"/><stop stop-color="#90A4AE" offset="1"/></radialGradient><path d="M35 68h-2a1 1 0 0 0-1 .8 3 3 0 0 1-5.8 0 1 1 0 0 0-1-.8H24a1 1 0 0 0-1 .8 3 3 0 0 1-5.7 0c-.2-.5-.5-.8-1-.8H15a1 1 0 0 0-1 .8 3 3 0 0 1-5.8 0 1 1 0 0 0-1-.8H5a1 1 0 0 0-1 1v55h32V69c0-.6-.5-1-1-1z" fill="url(#q)"/><path d="M26 96H14V86a6 6 0 0 1 12 0v10z" fill="#546E7A"/><radialGradient id="r" cx="107.9" cy="67.5" r="56.7" gradientTransform="matrix(0 .9995 -.6611 0 152.5 -40.4)" gradientUnits="userSpaceOnUse"><stop stop-color="#CFD8DC" offset="0"/><stop stop-color="#C9D3D8" offset=".2"/><stop stop-color="#B8C5CB" offset=".5"/><stop stop-color="#9CAEB7" offset=".9"/><stop stop-color="#90A4AE" offset="1"/></radialGradient><path d="M123 68h-2a1 1 0 0 0-1 .8 3 3 0 0 1-5.8 0 1 1 0 0 0-1-.8H112a1 1 0 0 0-1 .8 3 3 0 0 1-5.7 0c-.2-.5-.5-.8-1-.8h-1.4a1 1 0 0 0-1 .8 3 3 0 0 1-5.7 0 1 1 0 0 0-1-.8H93a1 1 0 0 0-1 1v55h32V69c0-.6-.5-1-1-1z" fill="url(#r)"/><path d="M114 96h-12V86a6 6 0 0 1 12 0v10z" fill="#546E7A"/><path d="M120.8 109.4h-4c-.8 0-1.5-.7-1.5-1.5v-.9c0-.8.7-1.5 1.5-1.5h4c.9 0 1.6.7 1.6 1.5v.9c0 .8-.7 1.5-1.6 1.5zm-6.1 3.4h-3.5a.9.9 0 0 1-.8-.9v-1.1c0-.5.4-.9.8-.9h3.5c.5 0 .8.4.8.9v1.1c0 .5-.3.9-.8.9z" fill="#90A4AE"/><path d="M122.5 114.4h-5a1 1 0 0 1-1-1.1v-1.8c0-.6.5-1 1-1h5c.6 0 1 .4 1 1v1.8c0 .6-.4 1-1 1z" fill="#78909C"/><path d="M119.3 119h-4.5a.8.8 0 0 1-.7-.7v-1.8c0-.5.3-.8.7-.8h4.5c.4 0 .8.3.8.8v1.8c0 .4-.4.7-.8.7z" fill="#90A4AE"/><path d="M30.2 79.6h-5.7c-.6 0-1.2-.6-1.2-1.2v-2c0-.8.6-1.3 1.2-1.3h5.7c.7 0 1.3.6 1.3 1.2v2c0 .7-.6 1.3-1.3 1.3z" fill="#78909C"/><path d="M33.9 83.8h-4.4a.7.7 0 0 1-.8-.8v-1.7c0-.5.4-.8.8-.8h4.4c.4 0 .7.3.7.8V83c0 .4-.3.8-.7.8z" fill="#90A4AE"/><path d="M11.3 106h-6a.9.9 0 0 1-1-1v-2.5c0-.5.4-.9 1-.9h6c.4 0 .8.4.8 1v2.4c0 .5-.3 1-.8 1z" fill="#78909C"/><path d="M13.3 110.7H8.7a.7.7 0 0 1-.6-.7v-1.9c0-.4.3-.7.6-.7h4.6c.4 0 .7.3.7.7v2c0 .3-.3.6-.7.6z" fill="#90A4AE"/><path d="M112.6 71.9a6 6 0 0 0 8.4.6V121H7V72.4a6 6 0 0 0 8.5-.5 6 6 0 0 0 9 0 6 6 0 0 0 8.5.6v4.7l.2.5A7 7 0 1 0 46 79.6a7 7 0 0 0 12 0 7 7 0 0 0 12 0 7 7 0 0 0 12 0 7 7 0 0 0 6 3.4 7 7 0 0 0 6.8-5.3l.2-.5v-4.8a6 6 0 0 0 8.5-.5 6 6 0 0 0 9 0m10.5-4h-2a1 1 0 0 0-1 .9 3 3 0 0 1-5.8 0 1 1 0 0 0-1-.8H112a1 1 0 0 0-1 .8 3 3 0 0 1-5.7 0c-.2-.5-.5-.8-1-.8h-1.4a1 1 0 0 0-1 .8 3 3 0 0 1-5.7 0 1 1 0 0 0-1-.8H93a1 1 0 0 0-1 1v7.8a4 4 0 0 1-8 0 1 1 0 0 0-.9-.8H81a1 1 0 0 0-1 .8 4 4 0 0 1-7.8 0 1 1 0 0 0-1-.8H69a1 1 0 0 0-1 .8 4 4 0 0 1-7.8 0 1 1 0 0 0-1-.8H57a1 1 0 0 0-1 .8 4 4 0 0 1-7.8 0 1 1 0 0 0-1-.8H45a1 1 0 0 0-1 .8 4 4 0 0 1-7.8 0V69c0-.6-.5-1-1-1H33a1 1 0 0 0-1 .8 3 3 0 0 1-5.8 0c0-.5-.5-.8-1-.8H24a1 1 0 0 0-1 .8 3 3 0 0 1-5.7 0c-.2-.5-.5-.8-1-.8H15a1 1 0 0 0-1 .8 3 3 0 0 1-5.8 0 1 1 0 0 0-1-.8H5a1 1 0 0 0-1 1v55h120V69c0-.6-.5-1-1-1z" fill="#424242" opacity=".2"/><path d="M76 124H52v-16a12 12 0 1 1 24 0v16z" fill="#455A64"/><defs><path id="s" d="M76 124H52v-16a12 12 0 1 1 24 0v16z"/></defs><clipPath id="t"><use xlink:href="#s"/></clipPath><path d="M56 93.2v16l1.1 2.2a1 1 0 0 0 1.8 0l1.1-2.2v-16h-4zm6 0v16l1.1 2.2a1 1 0 0 0 1.8 0l1.1-2.2v-16h-4zm6 0v16l1.1 2.2a1 1 0 0 0 1.8 0l1.1-2.2v-16h-4z" clip-path="url(#t)" fill="#37474F"/><path clip-path="url(#t)" fill="#37474F" d="M52 102.9h24v4H52z"/><path d="M62.1 91.8h2.7c.7 0 1.3.7 1.1 1.3l-.7 2.8c-.1.4-.6.8-1.2.8h-1.3c-.6 0-1.1-.4-1.2-.9L61 93c-.1-.6.4-1.2 1.1-1.2z" fill="#607D8B"/><path d="M57 93.5l2-.8a1 1 0 0 1 1.3.8l.5 2.5c0 .5-.2 1-.7 1.1l-1.1.4c-.5.2-1 0-1.3-.4l-1.3-2.2a1 1 0 0 1 .5-1.5z" fill="#90A4AE"/><path d="M55.5 95.8l1.4 1.7c.4.4.4 1 0 1.4l-1.4 1.4a1 1 0 0 1-1.3.2l-2-1.1a1 1 0 0 1-.2-1.7l2-2a1 1 0 0 1 1.5.1z" fill="#607D8B"/><path d="M53.2 100.7l-2-.9a1 1 0 0 0-1.5.7l-.7 2.3a1 1 0 0 0 .8 1.3l2.3.5a1 1 0 0 0 1.2-.8l.5-1.9a1 1 0 0 0-.6-1.2z" fill="#90A4AE"/><path d="M51.6 105.1l-2.8-.3a1 1 0 0 0-1.2.9v.3a1 1 0 0 0 1 1.1h2.8a1 1 0 0 0 1-1 1 1 0 0 0-.8-1z" fill="#78909C"/><path d="M51.3 107.7h-2.8a1 1 0 0 0-1 1v2.3c0 .6.4 1 1 1l3 .1a1 1 0 0 0 1-1l-.2-2.4c0-.6-.5-1-1-1z" fill="#90A4AE"/><path d="M48.2 112.6h3c.6 0 1 .5 1 1v1.9c0 .5-.5.8-1 .8h-3c-.7 0-1.1-.4-1.1-1v-1.8c0-.5.5-1 1-1zm.2 4.4h2.9c.5 0 1 .3 1 1l.1 2.1c0 .6-.4 1.1-1 1.1h-3a1 1 0 0 1-1-1V118c0-.6.4-1 1-1z" fill="#78909C"/><path d="M48 122h3.5c.5 0 1 .2 1 .5v.7c.1.4-.3.6-.9.7H47v-1.3c-.1-.4.4-.7 1-.7z" fill="#546E7A"/><path d="M66.3 93.4l-.3 2.4c-.1.5.1 1 .6 1.1l1.6.6c.4.2 1 0 1.2-.4l1.4-2.3a1 1 0 0 0-.6-1.6l-2.6-.6a1 1 0 0 0-1.3.8z" fill="#78909C"/><path d="M71.5 94.9L70.2 97a1 1 0 0 0 .4 1.4l1.5 1c.4.2 1 .2 1.3-.2l1.9-2a1 1 0 0 0-.3-1.6l-2.1-1.1a1 1 0 0 0-1.4.4z" fill="#90A4AE"/><path d="M75.3 98.3l-1.8 1.5a1 1 0 0 0-.2 1.4l1 1.4c.3.4.7.5 1.2.3l2.2-.8c.6-.3.8-1 .5-1.5l-1.5-2a1 1 0 0 0-1.4-.3z" fill="#78909C"/><path d="M77.5 102.7l-2 .9a1 1 0 0 0-.6 1.1l.6 1.7c.1.5.6.7 1 .7l2.3-.4c.5-.1 1-.7.7-1.3l-.7-2.2a1 1 0 0 0-1.3-.5z" fill="#90A4AE"/><path d="M76.5 107.7l2.7-.4c.6-.1 1.1.3 1.2 1v.3c0 .7-.4 1.3-1 1.3l-2.8.2c-.6 0-1-.6-1-1.3 0-.5.4-1 .9-1z" fill="#78909C"/><path d="M76.5 110.6l3-.1c.6 0 1 .4 1 1v2.2c0 .6-.4 1-1 1h-2.9a1 1 0 0 1-1-1l-.1-2c0-.6.4-1.1 1-1.1z" fill="#90A4AE"/><path d="M76.4 115.3l3-.1c.6 0 1 .4 1 1v2c0 .6-.4 1-1 1l-3 .1a1 1 0 0 1-1-1v-2c0-.6.4-1 1-1z" fill="#78909C"/><path d="M76.3 120l3.4-.2c.6 0 1 .5 1.1 1.2v1.6c.1.8-.4 1.4-1 1.4h-3.6c-.6 0-1-.6-1-1.4l.1-1.5c0-.6.5-1.1 1-1.2z" fill="#546E7A"/></svg>