<svg viewBox="0 0 128 128" xmlns="http://www.w3.org/2000/svg"><path fill="none" stroke="#CFD8DC" stroke-linecap="round" stroke-linejoin="round" stroke-miterlimit="10" stroke-width="2" d="M117.3 117.4l-94.7-8M10.8 10.8l7.9 94.8"/><path d="M15.9 112l-11 1.2a.9.9 0 0 1-.7-1.5l13.3-13.3.5-.2L29 97c.7-.1 1.2.9.6 1.5l-13.2 13.2-.5.2z" fill="#F44336"/><path d="M20.1 108l-3.7 3.7-.2.5L15 123c-.1.8.9 1.3 1.4.7l3.4-3.3c0-4.2 0-8.3.3-12.6z" fill="#F44336"/><path d="M29.7 98.4l-9.5 9.5a135 135 0 0 0-.4 12.6l9.9-10 .2-.5 1.2-10.9c.1-.8-.9-1.3-1.4-.7z" fill="#F44336"/><path d="M28.7 98l-13 13-10.5 1 13-13 10.5-1m.3-1l-11 1.2c-.2 0-.4.1-.5.3L4.3 111.7c-.6.5-.2 1.5.6 1.5l11-1.3c.2 0 .4 0 .5-.2l13.2-13.2c.6-.6.2-1.5-.6-1.5z" fill="#424242" opacity=".2"/><path d="M30.1 99.4l-1.2 10.5-13 13 1.3-10.6L30 99.4m.3-1.2c-.2 0-.5 0-.6.2l-13.3 13.3-.2.5L15 123c-.1.6.3 1 .8 1l.6-.3 13.3-13.2.2-.6L31.1 99c0-.5-.4-1-.8-1z" fill="#424242" opacity=".2"/><path d="M15.5 112.6c.7.7 1.8.7 2.5 0L120.3 10.4l-2.6-2.6L15.5 110c-.7.7-.7 1.9 0 2.6z" fill="#8D6E63"/><path d="M117.7 9.2l1.2 1.2L17.4 111.8l-.6.3-.6-.2a.8.8 0 0 1 0-1.2L117.7 9.2m0-1.4L15.5 110a1.8 1.8 0 0 0 1.3 3c.5 0 1 0 1.3-.4L120.3 10.4l-2.6-2.6z" fill="#424242" opacity=".2"/><linearGradient id="a" x1="59.2" x2="73.4" y1="-10.6" y2="-10.6" gradientTransform="scale(-1 1) rotate(-45 .1 221.8)" gradientUnits="userSpaceOnUse"><stop stop-color="#9E9E9E" offset="0"/><stop stop-color="#E0E0E0" offset="1"/></linearGradient><path d="M109 9.2l11.5-4.9c2-.9 4.1 1.2 3.2 3.2L118.8 19c-.8 1.9-3.4 2-4.4.3l-1.7-3c-.2-.4-.5-.7-.9-1l-3-1.7c-1.8-1-1.6-3.6.3-4.4z" fill="url(#a)"/><path d="M121.5 5.3c.4 0 .8.2 1 .6.2.2.4.6.1 1.1l-5 11.5c-.2.7-.9.8-1 .8-.3 0-.8-.1-1.1-.6l-1.8-3c-.3-.6-.7-1-1.3-1.4l-3-1.8c-.4-.2-.6-.6-.6-1.1s.3-.9.7-1l11.5-5h.5m0-1.3c-.3 0-.6 0-1 .2l-11.4 4.9c-1.9.8-2 3.4-.3 4.4l3 1.8c.4.2.7.5.9.8l1.7 3c.5.9 1.3 1.3 2.1 1.3 1 0 1.9-.5 2.3-1.5l5-11.5c.7-1.7-.6-3.4-2.3-3.4z" fill="#424242" opacity=".2"/><path d="M92.8 35.8c-9.5-9.5-30.4-8.9-44.2-8.9-13.9 0-32.3-4.8-43.2-15.5-1.7-1.7-1.9-4.5-.2-6.1a4.3 4.3 0 0 1 6 0c9.5 9.3 27.9 12.5 40.7 12.5 13.3 0 39.4-2.6 50.4 8.4 10.9 11 8.3 37.3 8.3 50.3 0 12.9 3 31 12.3 40.4a4.1 4.1 0 0 1-.2 5.8c-1.7 1.7-4.2 1.8-5.9.2a65 65 0 0 1-15.4-43c0-13 .8-34.7-8.6-44.2z" fill="#9F6C4A"/><path d="M109.3 41.3L99.7 51c-1.2-6-3.3-11.5-7-15.1-3.7-3.8-9.4-6-15.7-7.2l9.6-9.6a30 30 0 0 1 15.6 7.2 28 28 0 0 1 7 15.1z" fill="#FBC02D"/><path d="M8.1 6c.7 0 1.3.3 1.8.8 9.8 9.6 28.8 13 42 13h6.6l9.2-.2c10.8 0 26 .8 33.1 8 8.7 8.7 8.2 29 7.9 42.3l-.1 6.6c0 13.9 3.3 32.2 12.8 41.8 1 1 .6 2.3-.2 3a2 2 0 0 1-1.6.8c-.3 0-.9-.1-1.3-.6-11-11.2-15-29.4-15-41.5l.1-2.9c0-13.3.1-33.4-9.2-42.8-8.7-8.6-25.4-9.4-40.4-9.4h-5.3c-13.2 0-31.2-4.6-41.8-15-.4-.4-.7-1-.7-1.7 0-.4 0-1 .6-1.5A2 2 0 0 1 8.1 6m0-2a4 4 0 0 0-3 1.1c-1.6 1.7-1.4 4.6.3 6.2A65.6 65.6 0 0 0 48.5 27h5.3c13.4 0 30.6.4 39 8.8 9.4 9.4 8.6 31.2 8.6 44.2 0 13.8 4.7 32 15.4 42.9a4 4 0 0 0 2.8 1.2c1.1 0 2.2-.5 3-1.3 1.7-1.7 1.9-4.2.3-5.8-9.3-9.5-12.3-27.6-12.3-40.5 0-13 2.6-39.4-8.4-50.3-7.4-7.4-21.8-8.6-34.5-8.6-6 0-11.5.3-15.8.3-12.8 0-31.2-3.3-40.6-12.5C10.4 4.5 9.3 4 8 4z" fill="#424242" opacity=".2"/></svg>