<svg viewBox="0 0 128 128" xmlns="http://www.w3.org/2000/svg"><path d="M124 107.2c-41.5 17.8-78.5-17.8-120 0V20.8c41.5-17.8 78.5 17.8 120 0v86.4z" fill="#424242"/><linearGradient id="a" x1="5.4" x2="122.4" y1="22.7" y2="105.2" gradientUnits="userSpaceOnUse"><stop stop-color="#fff" stop-opacity="0" offset="0"/><stop stop-color="#C8C8C8" stop-opacity=".2" offset=".2"/><stop stop-color="#828282" stop-opacity=".4" offset=".4"/><stop stop-color="#4A4A4A" stop-opacity=".6" offset=".6"/><stop stop-color="#222" stop-opacity=".8" offset=".8"/><stop stop-color="#090909" stop-opacity=".9" offset=".9"/><stop offset="1"/></linearGradient><path d="M124 107.2c-41.5 17.8-78.5-17.8-120 0V20.8c41.5-17.8 78.5 17.8 120 0v86.4z" fill="url(#a)" opacity=".3"/><path d="M121 25.5v80.4C81.4 120 46.6 88.4 7 102.5V22.1C46.6 8 81.4 39.6 121 25.5m3-4.7C82.5 38.6 45.5 3 4 20.8v86.4c41.5-17.8 78.5 17.8 120 0V20.8z" fill="#eee" opacity=".2"/><g fill="#fff"><path d="M37.4 68.8c1.7.8 3.5.2 4.1-1.4 4.5 2.3 6.7 3.6 11.1 6.3l7.8-.4C53.4 69 50 66.7 43 63c.6-1.5-.4-3.5-2-4.4s-3.5-.2-4.1 1.4c-.3 1-.2 2 .3 2.8-.9.2-1.6.8-1.9 1.7-.6 1.7.4 3.6 2 4.3zm51.2 17.9c-1.7-.8-3.5-.3-4.1 1.3-4.5-2.4-6.7-3.7-11.1-6.5l-7.8.4c7 4.4 10.4 6.6 17.3 10.4-.6 1.6.3 3.6 2 4.5s3.5.3 4.1-1.3c.3-.9.2-1.9-.3-2.7.9-.3 1.6-.9 1.9-1.8.5-1.6-.4-3.5-2-4.3z"/><path d="M84.5 78.7c.6 1.8 2.4 3 4 2.8 1.7-.3 2.7-2 2-3.8a4 4 0 0 0-1.8-2.3 3 3 0 0 0 .3-2.6c-.6-1.8-2.4-3-4-2.7s-2.7 1.8-2 3.6c-13.9 1.5-27.7 1-41.5 3-.5-1.8-2.4-3-4-2.7-1.7.4-2.6 2.2-2 3.9.2 1 1 1.7 1.8 2.2a3 3 0 0 0-.3 2.6c.6 1.8 2.4 3 4 2.7s2.7-2 2-3.8c14-1.6 27.8-1.2 41.6-2.9zM71.6 39c-5.3-4.4-11.8-6.5-17.2-5.1-5.5 1.4-10.5 6.1-5.4 19.3 0 0-2.7 8.2 6 8.6 0 0 1.4.2 1.3 2.2v1c0 .7.5 1.3 1.1 1.5.7.2 1.2-.2 1.2-.8v-1l1.4.5v1c0 .5.5 1.2 1.1 1.4.7.2 1.2-.2 1.2-.8v-1l1.4.5v1c0 .6.5 1.2 1.1 1.4.7.2 1.2-.1 1.2-.8v-1l1.4.5v1c0 .6.5 1.3 1.1 1.4.7.2 1.2-.1 1.2-.8v-1c0-2 1.3-1.4 1.3-1.4 8.7 4.5 6-5.4 6-5.4 5-10.6 0-17.8-5.4-22.2zM57 55.7c-2.4-.7-4.4-3.2-4.4-5.6s2-3.8 4.4-3.1c2.4.7 4.3 3.2 4.3 5.6 0 2.4-2 3.8-4.3 3zm7.4 6.9c-.8-.7-1.9-1-2.8-.9-.3.1-.5 0-.5-1V59c.1-1.1 1-1.7 2-1.4 1 .3 1.7 1.4 1.8 2.5l.1 1.7c0 1-.2 1-.5.8zm4.8-3.3c-2.4-.7-4.4-3.2-4.4-5.6s2-3.8 4.4-3 4.3 3.1 4.3 5.5-2 3.9-4.3 3.1z"/></g></svg>