<svg viewBox="0 0 128 128" xmlns="http://www.w3.org/2000/svg"><linearGradient id="a" x1="143.69" x2="143.69" y1=".932" y2="25.581" gradientTransform="rotate(-127.395 83.435 91.856)" gradientUnits="userSpaceOnUse"><stop stop-color="#6A889C" offset="0"/><stop stop-color="#81A2B5" offset=".202"/><stop stop-color="#9BBFD1" offset=".473"/><stop stop-color="#A5CADB" offset=".628"/></linearGradient><path d="M-25.1 87.09c1.97-2.69 4.9-.48 7.02.74 2.67 1.54 5.06 3.57 8.42 2.67 2.17-.58 5.59-3.88 6.91-4.4 2.67-1.05 2.83.01 1.92 3.06-1.13 3.77-4.65 7.68-8.42 9.25-8.87 3.69-21.71-3.3-15.85-11.32z" fill="url(#a)" stroke="#78909C" stroke-miterlimit="10" stroke-width="2"/><path d="M102.65 118.51c.87-.11 1.75-.24 2.64-.41 2.85-.53 4.51-1.47 5.07-2.86.44-.96.29-2.18.09-3.03a5.954 5.954 0 0 0-1.52-2.79c-1.27-1.32-3.24-2.29-5.87-2.87-1.9-.42-4.01-.64-6.65-.68h-.64c-1.84 0-3.76.09-5.86.28-3.6.33-7.34.89-11.43 1.72-3.51.72-6.26 1.43-7.95 1.91-.95.27-1.69.49-2.19.65l-.77.25a.537.537 0 0 1-.69-.34.58.58 0 0 1 .03-.41c.06-.12.17-.21.29-.26l.82-.25c.52-.15 1.27-.37 2.23-.62 1.72-.45 4.52-1.13 8.04-1.8 4.13-.77 7.9-1.28 11.54-1.55 1.8-.13 3.46-.2 5.07-.2.5 0 1 .01 1.5.02 2.72.08 4.8.33 6.76.79 1.89.46 4.29 1.23 6.05 3.1.77.82 1.34 1.9 1.56 2.96.07.29.1.55.14.81.02.16.02.21.02.27l.01.19v.35c-.02.62-.15 1.18-.38 1.66-.52 1.1-1.58 1.71-2.37 2.03-.94.38-1.85.58-2.92.75-.88.14-1.76.24-2.62.33z" fill="#FFBDBD"/><path d="M94.92 104.24c-1.75 0-3.47.08-5.14.2-4.31.33-8.27.94-11.65 1.57s-6.17 1.3-8.12 1.81c-.98.26-1.74.48-2.26.63-.52.16-.79.24-.79.24l-.02.01a1.53 1.53 0 0 0-.99 1.93 1.54 1.54 0 0 0 1.93 1h.01s.27-.09.76-.25c.49-.15 1.22-.38 2.16-.64 1.88-.53 4.59-1.22 7.88-1.89s7.16-1.32 11.32-1.7c1.88-.17 3.82-.28 5.79-.28h.62c2.17.03 4.37.19 6.45.65 2.07.46 4.08 1.25 5.36 2.58.63.66 1.07 1.45 1.27 2.33.22.9.24 1.8-.04 2.43-.52 1.3-2.55 1.92-4.33 2.25-1.84.35-3.68.52-5.37.75-1.7.23-3.28.5-4.68.89-1.39.39-2.59.91-3.5 1.51a7.98 7.98 0 0 0-1.91 1.7c-.37.47-.52.75-.52.75l-.02.04c-.2.36-.09.83.27 1.05.13.08.27.11.41.11.26 0 .52-.13.67-.37 0 0 .13-.21.43-.57.3-.35.79-.84 1.56-1.3.76-.46 1.8-.89 3.08-1.2 1.28-.32 2.78-.53 4.45-.7 1.67-.18 3.51-.29 5.51-.6 1-.17 2.05-.38 3.13-.81 1.06-.42 2.27-1.21 2.9-2.54.3-.65.45-1.34.47-2.01 0-.17.01-.38 0-.51-.01-.16 0-.22-.03-.46-.04-.31-.08-.63-.16-.94-.26-1.26-.92-2.49-1.81-3.44-1.82-1.93-4.25-2.82-6.55-3.39-2.33-.56-4.68-.75-6.96-.82-.56-.01-1.07-.01-1.58-.01z" fill="#D9A0A0"/><linearGradient id="b" x1="59.44" x2="59.44" y1="122.1" y2="65.168" gradientUnits="userSpaceOnUse"><stop stop-color="#6A889C" offset="0"/><stop stop-color="#81A2B5" offset=".202"/><stop stop-color="#9BBFD1" offset=".473"/><stop stop-color="#A5CADB" offset=".628"/></linearGradient><path d="M59.44 122.1c-7.41 0-19.84-2.52-19.84-19.43 0-16.38 16.27-33.85 19.84-37.49 3.58 3.61 19.84 20.89 19.84 37.49 0 16.9-12.43 19.43-19.84 19.43z" fill="url(#b)"/><path d="M59.45 66.6c4.56 4.73 18.83 20.76 18.83 36.06 0 8.41-3.27 18.43-18.84 18.43S40.6 111.07 40.6 102.66c0-15.1 14.29-31.29 18.85-36.06m-.01-2.84S38.6 83.7 38.6 102.66c0 14.84 9.33 20.43 20.84 20.43s20.84-5.6 20.84-20.43c0-19.22-20.84-38.9-20.84-38.9z" fill="#78909C"/><linearGradient id="c" x1="72.957" x2="72.957" y1="79" y2="103.9" gradientUnits="userSpaceOnUse"><stop stop-color="#A5CADB" offset=".372"/><stop stop-color="#9BBFD1" offset=".527"/><stop stop-color="#81A2B5" offset=".798"/><stop stop-color="#6A889C" offset="1"/></linearGradient><path d="M70.93 79.44c-2.9 1.24-2.52 5.86-1.57 7.96 1.2 2.66 2.89 5.1 1.72 8.18-.75 1.98-4.18 4.9-4.79 6.09-1.24 2.41-.26 2.67 2.7 2.1 3.66-.71 7.67-3.65 9.5-7.05 4.32-8.01-.39-20.35-7.56-17.28z" fill="url(#c)" stroke="#78909C" stroke-miterlimit="10" stroke-width="2"/><linearGradient id="d" x1="46.326" x2="46.326" y1="78.333" y2="102.87" gradientUnits="userSpaceOnUse"><stop stop-color="#A5CADB" offset=".372"/><stop stop-color="#9BBFD1" offset=".527"/><stop stop-color="#81A2B5" offset=".798"/><stop stop-color="#6A889C" offset="1"/></linearGradient><path d="M48.35 79.44c2.9 1.24 2.52 5.86 1.57 7.96-1.2 2.66-2.89 5.1-1.72 8.18.75 1.98 4.18 4.9 4.79 6.09 1.24 2.41.26 2.67-2.7 2.1-3.66-.71-7.67-3.65-9.5-7.05-4.31-8.01.39-20.35 7.56-17.28z" fill="url(#d)" stroke="#78909C" stroke-miterlimit="10" stroke-width="2"/><linearGradient id="e" x1="36.203" x2="36.203" y1="6.543" y2="42.198" gradientUnits="userSpaceOnUse"><stop stop-color="#A5CADB" offset=".372"/><stop stop-color="#9BBFD1" offset=".494"/><stop stop-color="#81A2B5" offset=".707"/><stop stop-color="#6A889C" offset=".867"/></linearGradient><path d="M36.2 37.23c-7.77 0-14.09-6.32-14.09-14.09S28.43 9.05 36.2 9.05s14.09 6.32 14.09 14.09c.01 7.76-6.32 14.09-14.09 14.09z" fill="url(#e)"/><path d="M36.2 10.04c7.22 0 13.09 5.87 13.09 13.09s-5.87 13.1-13.09 13.1-13.09-5.87-13.09-13.09 5.87-13.1 13.09-13.1m0-2c-8.34 0-15.09 6.76-15.09 15.09s6.76 15.09 15.09 15.09 15.1-6.75 15.1-15.09S44.54 8.04 36.2 8.04z" fill="#78909C"/><circle cx="36.2" cy="23.13" r="8.72" fill="#FFBDBD"/><linearGradient id="f" x1="81.716" x2="81.716" y1="6.543" y2="42.198" gradientUnits="userSpaceOnUse"><stop stop-color="#A5CADB" offset=".372"/><stop stop-color="#9BBFD1" offset=".494"/><stop stop-color="#81A2B5" offset=".707"/><stop stop-color="#6A889C" offset=".867"/></linearGradient><path d="M81.72 37.23c-7.77 0-14.09-6.32-14.09-14.09S73.95 9.05 81.72 9.05s14.09 6.32 14.09 14.09c0 7.76-6.32 14.09-14.09 14.09z" fill="url(#f)"/><path d="M81.72 10.04c7.22 0 13.09 5.87 13.09 13.09s-5.87 13.09-13.09 13.09-13.09-5.87-13.09-13.09 5.87-13.09 13.09-13.09m0-2c-8.34 0-15.09 6.76-15.09 15.09s6.76 15.09 15.09 15.09c8.34 0 15.09-6.76 15.09-15.09S90.05 8.04 81.72 8.04z" fill="#78909C"/><circle cx="81.72" cy="23.13" r="8.72" fill="#FFBDBD"/><linearGradient id="g" x1="58.961" x2="58.961" y1="83.009" y2="19.432" gradientUnits="userSpaceOnUse"><stop stop-color="#6A889C" offset=".134"/><stop stop-color="#81A2B5" offset=".293"/><stop stop-color="#9BBFD1" offset=".506"/><stop stop-color="#A5CADB" offset=".628"/></linearGradient><path d="M58.96 83.01c-10.45 0-28.47-15.51-28.47-31.4 0-8.42 2.54-16.29 7.17-22.15 5.17-6.56 12.54-10.03 21.3-10.03s16.13 3.47 21.3 10.03c4.62 5.86 7.17 13.73 7.17 22.15 0 15.88-18.01 31.4-28.47 31.4z" fill="url(#g)"/><path d="M58.96 20.43c8.44 0 15.54 3.34 20.51 9.65 4.42 5.6 6.95 13.45 6.95 21.53 0 15.08-17.62 30.4-27.47 30.4s-27.47-15.32-27.47-30.4c0-8.08 2.53-15.92 6.95-21.53 4.99-6.31 12.09-9.65 20.53-9.65m0-2c-19.6 0-29.47 16.71-29.47 33.18s18.72 32.4 29.47 32.4 29.47-15.92 29.47-32.4-9.86-33.18-29.47-33.18z" fill="#78909C"/><path d="M62.55 64.98l-2.97-2.06c-.24-.16-.54-.23-.84-.21-.3-.02-.6.05-.84.21l-2.97 2.06c-.24.16-.3.37-.3.61 0 3.61 3.24 4.29 4.1 4.29s4.1-.68 4.1-4.29c.02-.24-.04-.45-.28-.61z" fill="#fff"/><g fill="#404040"><ellipse cx="41.26" cy="43.89" rx="5.29" ry="5.99"/><ellipse cx="76.66" cy="43.89" rx="5.29" ry="5.99"/></g><g fill="none" stroke="#546E7A" stroke-linecap="round" stroke-linejoin="round" stroke-miterlimit="10" stroke-width="1.848"><path d="M58.56 60.45c0 2.68-2.17 4.86-4.86 4.86s-4.86-2.17-4.86-4.86M68.59 60.45c0 2.68-2.17 4.86-4.86 4.86-2.68 0-4.86-2.17-4.86-4.86"/></g><ellipse cx="58.96" cy="53.62" rx="6.7" ry="7.04" fill="#FFBDBD" stroke="#E57373" stroke-miterlimit="10" stroke-width="2"/><g fill="none" stroke="#404040" stroke-linecap="round" stroke-linejoin="round" stroke-miterlimit="10"><path stroke-width="1.848" d="M31.31 70.66l8.31-7.69M38.61 59.56l-10.3 4.11"/><path stroke-width="2" d="M26 57h12"/><path stroke-width="1.848" d="M86.72 70.66l-8.31-7.69M79.42 59.56l10.29 4.11"/><path stroke-width="2" d="M92 57H81"/></g><g stroke="#E57373" stroke-miterlimit="10"><path d="M32.4 119.24c0 2.63 4.69 4.76 8.69 4.76s8.69-2.13 8.69-4.76-4.69-7.66-8.69-7.66-8.69 5.04-8.69 7.66z" fill="#FFBDBD" stroke-width="1.319"/><path d="M38.85 115.73c-.86 2.47-1.01 5.18-.43 7.73M42.79 115.6c1.1 2.55 1 7.79.96 7.61" fill="none" stroke-linecap="round" stroke-linejoin="round" stroke-width="1.642"/><path d="M69.16 119.24c0 2.63 4.69 4.76 8.69 4.76s8.69-2.13 8.69-4.76-4.69-7.66-8.69-7.66-8.69 5.04-8.69 7.66z" fill="#FFBDBD" stroke-width="1.319"/><path d="M75.61 115.73c-.86 2.47-1.01 5.18-.43 7.73M79.55 115.6c1.1 2.55 1 7.79.96 7.61" fill="none" stroke-linecap="round" stroke-linejoin="round" stroke-width="1.642"/></g><path d="M110.23 160.6c.17-.5.46-1.06.98-1.13.43-.05.82.3.94.71s.22.6.04 1c-.27.61-.05 1.14-.12 1.81s3.39-2.27 5.09-3.07c.46-.22 1.12-.35 1.4.08.25.4-.19.83-.36 1.27-.69 1.81-1 2.29-2.15 4.39 1.95-.3 4.62-.22 4.87.08.25.29.15.75-.1 1.03-.26.28-.62.41-.98.54l-4.74 1.68c-1 .35-2.02.71-3.08.72-4.72.02-2.72-6.41-1.79-9.11z" fill="#FFBDBD" stroke="#E57373" stroke-linecap="round" stroke-linejoin="round" stroke-miterlimit="10" stroke-width="2"/><path d="M50.85 107.66c.17.39.44.83.86.85.35.01.57-2.36.47-2.89-.11-.53 2.88 1.61 4.3 2.15.39.15.93.21 1.12-.15.18-.34-.2-.66-.37-1-.67-1.41-.95-1.78-2.01-3.4 1.59.12 4-.98 3.77-1.19-.22-.21-.53-.29-.82-.37-1.31-.35-2.62-.7-3.93-1.06-.83-.22-1.68-.45-2.53-.38-3.79.27-1.78 5.33-.86 7.44zM69.64 107.66c-.17.39-.44.83-.86.85-.35.01-.57-2.36-.47-2.89.11-.53-2.88 1.61-4.3 2.15-.39.15-.93.21-1.12-.15-.18-.34.2-.66.37-1 .67-1.41.95-1.78 2.01-3.4-1.59.12-4-.98-3.77-1.19.22-.21.53-.29.82-.37 1.31-.35 2.62-.7 3.93-1.06.83-.22 1.68-.45 2.53-.38 3.8.27 1.78 5.33.86 7.44z" fill="#78909C"/></svg>