<svg viewBox="0 0 128 128" xmlns="http://www.w3.org/2000/svg" xmlns:xlink="http://www.w3.org/1999/xlink"><linearGradient id="a" x1="85.5" x2="80.1" y1="89.8" y2="119.9" gradientUnits="userSpaceOnUse"><stop stop-color="#DA7E1E" offset=".1"/><stop stop-color="#DB7F1E" offset=".1"/><stop stop-color="#EB9711" offset=".2"/><stop stop-color="#F6A907" offset=".3"/><stop stop-color="#FDB402" offset=".4"/><stop stop-color="#FFB700" offset=".5"/><stop stop-color="#FFECB3" offset=".8"/></linearGradient><path d="M73.7 84.1c3 4.2 7.4 8.6 8.5 13.9 1 4.6-1 13.2-4 13.1-5.3-.1-5.7 3.1-5.4 8.4.3 5 8.1 3.9 10.6 3.9 2.2 0 4.4 0 6.1-.8 2.6-1 4.2-5.5 5.2-13 .8-5.7 0-14.9-2.2-22.7C90.2 79 88.3 75 88.3 75" fill="url(#a)" stroke="#DE8900" stroke-linecap="round" stroke-linejoin="round" stroke-miterlimit="10" stroke-width="2"/><linearGradient id="b" x1="32.2" x2="52.9" y1="91.6" y2="131.8" gradientUnits="userSpaceOnUse"><stop stop-color="#DA7E1E" offset=".1"/><stop stop-color="#DB7F1E" offset=".1"/><stop stop-color="#EB9711" offset=".2"/><stop stop-color="#F6A907" offset=".3"/><stop stop-color="#FDB402" offset=".4"/><stop stop-color="#FFB700" offset=".5"/><stop stop-color="#FFECB3" offset=".9"/></linearGradient><path d="M33.2 104.4c1.5 2 2.8 4.8 1.3 6.8-1.2 1.6-3.7 1.8-5 3.3-1.6 2-.5 5.1 1.5 6.5s4.8 2.2 7.2 1.7c3.5-.8 13-3.3 13.5-6 .5-2-.2-4.3-1.2-6.2s-2.4-3.7-3.3-5.7c-3.4-7.7.5-17.6-4-24.7-1.8-3-18.7-5.7-18.8-2.8-.9 15 4 20.8 8.8 27z" fill="url(#b)" stroke="#DE8900" stroke-linecap="round" stroke-linejoin="round" stroke-miterlimit="10" stroke-width="2"/><path d="M118.2 107.9a8 8 0 0 1-2.7-.4c-2.5-.8-4.6-2.8-6-5.8a36.2 36.2 0 0 1-2.6-17.4V79a32.3 32.3 0 0 0-4.8-13.3 14.5 14.5 0 0 0-5.7-4.1 17 17 0 0 0-4-1.2l-.6-.1a2.9 2.9 0 0 1-2.5-3.3 3 3 0 0 1 3-2.4h.8a20.1 20.1 0 0 1 5.6 1.5 23 23 0 0 1 8 5.5c1.5 1.6 2.6 3.3 3.4 5.1a51.1 51.1 0 0 1 3.5 11.3 45.3 45.3 0 0 1 .5 10v1.6l.1 4.6c.2 1.4.4 2.6.8 3.5.4 1 .8 1.4 1 1.6h.2l.1.2.2.1a3 3 0 0 1 .6.2l.5.2h1.7a4 4 0 0 1 3.6 4.2c-.2 2.3-2 3.7-4.8 3.7z" fill="#FBB03B"/><path d="M92.2 55.6h.2a68.2 68.2 0 0 0 2.8.4 21.1 21.1 0 0 1 10.9 6.3c1.2 1.4 2.3 3 3.1 4.8a53.2 53.2 0 0 1 3.5 11.1c.3 2 .4 4 .5 5.9v5.5l.1 4.8c.2 1.4.5 2.7.8 3.7.4 1 1 1.7 1.4 2 .1.2.3.2.4.3l.4.2c.3 0 .5.2.7.3l.7.1h1.1l.4.1a3 3 0 0 1 2.8 3c-.2 2.1-2 2.8-3.8 2.8-.9 0-1.7-.1-2.4-.3-2.6-.8-4.3-3-5.4-5.3-1.9-4-2.4-8.8-2.6-13 0-3.1.4-6.4 0-9.4a33 33 0 0 0-5-13.8 15.7 15.7 0 0 0-6-4.4 17 17 0 0 0-4.2-1.3h-.7c-1-.2-1.8-1.2-1.6-2.2a2 2 0 0 1 2-1.6m0-2a3.9 3.9 0 0 0-3.3 6.1c.7.9 1.6 1.4 2.6 1.6h.7l1.5.4a14.6 14.6 0 0 1 5 2.3 14 14 0 0 1 2.5 2.4c.8 1 1.5 2 2 3.1a42.4 42.4 0 0 1 2.5 9.6c.2 1.6.2 3.3.1 5.2a37 37 0 0 0 2.7 17.9c1.5 3.2 3.8 5.4 6.6 6.3 1 .2 2 .4 3 .4 3.4 0 5.6-1.8 5.8-4.6 0-1.3-.4-2.5-1.2-3.5a5 5 0 0 0-3.4-1.7H118l-.6-.2-.3-.1-.2-.1-.2-.2s-.3-.2-.7-1.2a18 18 0 0 1-.7-3.1l-.1-4.6v-5.5a47.2 47.2 0 0 0-2-12.3c-.5-1.7-1.3-3.6-2.1-5.5a20.3 20.3 0 0 0-7.8-9 24.6 24.6 0 0 0-10-3.6h-.6l-.5-.1z" fill="#DE8900"/><defs><path id="c" d="M92.4 54.6a68.2 68.2 0 0 0 2.8.5 21.4 21.4 0 0 1 10.9 6.4c1.2 1.4 2.3 3 3.2 5a55.3 55.3 0 0 1 3.4 11.2c.3 2 .4 4 .5 6v5.6l.1 4.8c.2 1.5.5 2.8.9 3.8.3 1 .8 1.7 1.3 2.1l.4.3.4.2c.3 0 .5.2.7.3l.7.1h1.5a3 3 0 1 1-.4 6h-.9l-1-.2-1.5-.3-1.8-.8-1-.6-1-.7a10.4 10.4 0 0 1-2.7-4.4 29 29 0 0 1-1-10.7l.2-5.5a31 31 0 0 0-1.3-10.6c-.5-1.7-1-3.3-1.7-5a15.7 15.7 0 0 0-8.3-8.3l-2.5-.9-1.7-.3-.7-.1a2 2 0 0 1-1.6-2.2 2 2 0 0 1 2.1-1.7z"/></defs><clipPath id="d"><use xlink:href="#c"/></clipPath><path d="M123.3 103.7c.2-2.7-2.5-4.3-4.9-4-1 .1-1.9.6-2.7 1.2-.8.5-1.5.9-2 1.7-2.6 4.3 3.7 6.7 7 5.1l.7-.5a3.7 3.7 0 0 0 1.6-2.4c.1-.4.3-.7.3-1.2z" clip-path="url(#d)"/><linearGradient id="e" x1="64.3" x2="64.3" y1="121.1" y2="51" gradientUnits="userSpaceOnUse"><stop stop-color="#FFECB3" offset="0"/><stop stop-color="#FFD555" offset=".2"/><stop stop-color="#FFD658" offset=".2"/><stop stop-color="#FFE289" offset=".3"/><stop stop-color="#FFE9A8" offset=".4"/><stop stop-color="#FFECB3" offset=".4"/><stop stop-color="#FFE8A4" offset=".4"/><stop stop-color="#FFDC7C" offset=".5"/><stop stop-color="#FFC93C" offset=".5"/><stop stop-color="#FFB700" offset=".6"/><stop stop-color="#EF8E07" offset=".8"/><stop stop-color="#DB5E0F" offset="1"/></linearGradient><path d="M95.4 121.1c-5.2 0-6.4-.6-6.7-.8 0-1.3.6-3.2 1.2-5.3 1.8-6 4.3-14.2-2.3-22a1 1 0 0 0-1.2-.2A81.6 81.6 0 0 1 51.8 98h-.1a1 1 0 0 0-1 .6 79 79 0 0 1-3.6 9.5c-3.4 7.5-5.5 10.3-9.2 12.4l-6-8.8c-.2-.7.6-5.4 1.2-9.2l1.3-8c0-.3 0-.6-.2-.8A56.2 56.2 0 0 1 21 63c.6-8 2.3-9.5 11.4-9.5l4.2.1h.1c.2 0 18.3-2.6 37-2.6 5.2 0 10.1.3 14.5.7 14.5 1.3 19.3 13 19 23.5-.2 8 0 14.8.2 20.3l.2 7.8c0 11.4-5 16.6-6.2 17.6l-6 .2z" fill="url(#e)"/><path d="M73.6 52c5.3 0 10.2.2 14.5.6 11.7 1.1 18.5 9.6 18.2 22.6-.3 8 0 14.8.1 20.3l.2 7.8c0 10.4-4.2 15.3-5.6 16.6l-5.6.2a23 23 0 0 1-5.6-.4c.1-1.2.6-2.8 1-4.4 1.8-5.9 4.5-14.8-2.5-22.9A2 2 0 0 0 86 92a80.6 80.6 0 0 1-34.1 5h-.2a2 2 0 0 0-2 1.4c-1 3.3-2.4 6.7-3.6 9.3-3 6.8-5 9.6-8 11.5l-5.2-7.7c0-1.2.7-5.5 1.2-8.7.5-2.8 1-5.6 1.2-8.1 0-.6 0-1-.4-1.5-12.3-16-12.9-29-13-30 .6-7.2 1.5-8.6 10.5-8.6l4.1.1h.4C37 54.6 55 52 73.6 52m0-2c-19 0-37 2.6-37 2.6h-4.2c-9.8 0-11.8 2-12.4 10.4 0 0 0 14 13.3 31.3-.8 6.8-3 16.8-2.2 18a130 130 0 0 0 6.5 9.4c4.4-2.2 6.7-5 10.4-13.2a143 143 0 0 0 3.7-9.6 82.7 82.7 0 0 0 35.1-5.2c8.8 10.1.7 21.4 1 26.8 0 1.3 3.9 1.6 7.6 1.6 3.3 0 6.4-.2 6.4-.2s6.8-5.2 6.8-18.6c0-6.6-.7-15.8-.4-28s-5.7-23.3-20-24.6a140 140 0 0 0-14.6-.7z" fill="#DE8900"/><linearGradient id="f" x1="34.4" x2="34.4" y1="100.4" y2="84.3" gradientUnits="userSpaceOnUse"><stop stop-color="#FFECB3" offset="0"/><stop stop-color="#FFD555" offset=".2"/><stop stop-color="#FFCB38" offset=".2"/><stop stop-color="#FFC220" offset=".3"/><stop stop-color="#FFBC0E" offset=".3"/><stop stop-color="#FFB803" offset=".4"/><stop stop-color="#FFB700" offset=".5"/><stop stop-color="#EF8E07" offset=".7"/><stop stop-color="#DB5E0F" offset="1"/></linearGradient><path d="M35.2 84.3c-.6 6.3-.8 9.2-1.7 16" fill="url(#f)" stroke="#DE8900" stroke-linecap="round" stroke-linejoin="round" stroke-miterlimit="10" stroke-width="2"/><path d="M38.6 110.3l-3.7.1H32s-1.5-.5-3.2-.3c-1.2-.5-8.5-.7-8.9 6.5-.2 3.6 1.3 6.8 4.3 7s3-.4 3.5-.5c.6.2 1.5 1.1 4.2 1s2.6-1 4-1c1.1.2 2.4 1.1 3.6 1 3-.5 5.3-4 5.4-6.7a6.8 6.8 0 0 0-6.3-7z" fill="#FFECB3" stroke="#DE8900" stroke-linecap="round" stroke-linejoin="round" stroke-miterlimit="10" stroke-width="2"/><path d="M32.6 111c-1.3 1-2.2 1.6-2.6 3.2s-.2 3.3.5 4.8m-3.2-8.2a6.6 6.6 0 0 0-1.6 8" fill="none" stroke="#DE8900" stroke-linecap="round" stroke-linejoin="round" stroke-miterlimit="10" stroke-width="2"/><path d="M101 110.4c-1.8-.1-3.7.6-5.4.6 0 0-3.2-.4-3.5-.3-.6-.2-7.5-.8-7.5 6.5 0 3.7.6 6.8 4 6.8 0 0 1.2-.6 2.6-.5s.7.8 4.4 1c2.2 0 3-1 3-1 2.7 0 3.2 1.1 5.5-.3 2-1.1 3.3-4.2 3.2-6.4-.2-2.8-1.2-4.4-3.2-5.6-1-.5-2-.7-3-.8z" fill="#FFECB3" stroke="#DE8900" stroke-linecap="round" stroke-linejoin="round" stroke-miterlimit="10" stroke-width="2"/><path d="M96.6 110.9c-1.3.9-1.7 1.4-2 3s-.2 3.3.5 4.7m-3.7-7.6c-2.1 2-2.4 5.1-1 7.8" fill="none" stroke="#DE8900" stroke-linecap="round" stroke-linejoin="round" stroke-miterlimit="10" stroke-width="2"/><ellipse cx="38.8" cy="57.8" rx="19.2" ry="20.6" fill="#FFECB3"/><defs><path id="g" d="M88.3 52.7a302 302 0 0 0-51.9 1.5C23 53.9 20.7 53.5 20 63c0 0 0 14 13.3 31.3-.8 6.8-3 16.8-2.2 18 2.1 3.2 4.2 6.4 6.5 9.4 4.4-2.2 6.7-5 10.4-13.2a143 143 0 0 0 3.7-9.6c13.2 1.5 28-2.2 35.1-5.2 8.8 10.1.8 21.4 1 26.8 0 2.5 14 1.4 14 1.4s4.8-4.7 4.8-18c0-6.7-.4-16.2 0-28.5.2-12.3-6.2-21.7-18.4-22.7z"/></defs><clipPath id="h"><use xlink:href="#g"/></clipPath><path d="M75.4 49.8L74 61.1c-.3 1.8-2.1 1.8-2.3 0l-1.5-11.3c-.1-1 .4-2 1.2-2h2.9c.7 0 1.3 1 1.1 2zm11.1.7l-1.7 10.7c-.3 1.8-2.3 1.8-2.6 0l-1.7-11.5c-.1-1.1.6-2.1 1.5-2l3.5.8c.7.2 1.2 1 1 2zm13.2 3.3l-4.6 9.3c-.7 1.5-2.9 1-2.7-.8l1.2-11c0-1 1.2-1.7 2-1.3l3.5 1.7c.7.4 1 1.3.6 2.1z" clip-path="url(#h)" fill="#404040"/><g clip-path="url(#h)" fill="#404040"><path d="M48.8 101.7l-6.4-3.2c-1.4-.7-.8-2.7.9-2.7h7.4c1 0 1.8.9 1.5 1.8l-1 3.2c-.3 1-1.5 1.4-2.4 1zm2.7-8.1L45 90.4c-1.5-.7-.8-2.6.8-2.6h7.4c1.1 0 1.9.8 1.6 1.7l-1 3.2c-.3 1-1.5 1.4-2.4 1zm-6 16.4l-5.6-3.6c-1.4-.8-.5-2.7 1.1-2.6l7 .5c1.1.1 1.8 1 1.4 2l-1.4 3c-.4 1-1.6 1.3-2.5.8z"/></g><g clip-path="url(#h)" fill="#404040"><path d="M107.9 91.8l-8-.7c-2-.2-2.2-1.8-.3-2.3l7.6-1.9c1.2-.3 2.6.2 2.7 1l.4 2.6c.1.8-1 1.5-2.4 1.3zm.9 7.5l-8.3-1c-2-.3-2-1.9-.2-2.2l8.2-1.5c1.1-.2 2.3.3 2.4 1l.1 2.6c0 .7-1 1.2-2.2 1zm-.8 7.8l-7.6-1.5c-1.8-.4-1.7-2 .2-2.2l8-1c1.2-.2 2.3.4 2.2 1.1l-.2 2.6c-.1.7-1.4 1.2-2.5 1z"/></g><linearGradient id="i" x1="50" x2="50" y1="112" y2="86.2" gradientUnits="userSpaceOnUse"><stop stop-color="#FFECB3" offset="0"/><stop stop-color="#FFD555" offset=".2"/><stop stop-color="#FFCB38" offset=".2"/><stop stop-color="#FFC220" offset=".3"/><stop stop-color="#FFBC0E" offset=".3"/><stop stop-color="#FFB803" offset=".4"/><stop stop-color="#FFB700" offset=".5"/><stop stop-color="#EF8E07" offset=".7"/><stop stop-color="#DB5E0F" offset="1"/></linearGradient><path d="M45.2 112c3.1-5.2 8-20.2 9.6-25.8" fill="url(#i)" stroke="#DE8900" stroke-linecap="round" stroke-linejoin="round" stroke-miterlimit="10" stroke-width="2"/><linearGradient id="j" x1="4.2" x2="23.5" y1="20.3" y2="20.3" gradientUnits="userSpaceOnUse"><stop stop-color="#FFB700" offset=".5"/><stop stop-color="#FFB503" offset=".6"/><stop stop-color="#FFB10E" offset=".8"/><stop stop-color="#FFA920" offset=".9"/><stop stop-color="#FFA723" offset=".9"/></linearGradient><circle cx="13.8" cy="20.3" r="9.7" fill="url(#j)" stroke="#DE8900" stroke-linejoin="round" stroke-miterlimit="10" stroke-width="2"/><circle cx="13.8" cy="20.3" r="5.5" fill="#fff"/><linearGradient id="k" x1="48.5" x2="67.8" y1="20.3" y2="20.3" gradientUnits="userSpaceOnUse"><stop stop-color="#FFB700" offset=".5"/><stop stop-color="#FFB503" offset=".6"/><stop stop-color="#FFB10E" offset=".8"/><stop stop-color="#FFA920" offset=".9"/><stop stop-color="#FFA723" offset=".9"/></linearGradient><circle cx="58.2" cy="20.3" r="9.7" fill="url(#k)" stroke="#DE8900" stroke-linejoin="round" stroke-miterlimit="10" stroke-width="2"/><circle cx="58.2" cy="20.3" r="5.5" fill="#fff"/><linearGradient id="l" x1="36" x2="36" y1="13.6" y2="71.1" gradientUnits="userSpaceOnUse"><stop stop-color="#FFB700" offset=".5"/><stop stop-color="#FCB402" offset=".6"/><stop stop-color="#F2A90A" offset=".7"/><stop stop-color="#E29717" offset=".9"/><stop stop-color="#D98E1E" offset=".9"/></linearGradient><path d="M36 71.7c-14.4 0-29.8-9.2-29.8-29.3S21.6 13.2 36 13.2a28.2 28.2 0 0 1 29.8 29.3c0 19.1-15 29.2-29.8 29.2z" fill="url(#l)"/><path d="M36 14.2a27.3 27.3 0 0 1 28.8 28.2c0 8.5-3 15.8-8.7 21A29.8 29.8 0 0 1 36 70.6c-14 .1-28.8-8.8-28.8-28.2 0-8.7 3-16 8.7-21A30 30 0 0 1 36 14.1m0-2c-16 0-30.8 10.4-30.8 30.2C5.2 62.1 20 72.7 36 72.7s30.8-10.9 30.8-30.3S52 12.2 36 12.2z" fill="#DE8900"/><g fill="#404040"><ellipse cx="20.9" cy="38.5" rx="5" ry="5.6"/><ellipse cx="51" cy="38.4" rx="5" ry="5.6"/></g><path d="M36 57c6 0 10.8-2.4 10.8.6s-4.8 12-10.8 12-10.8-9-10.8-12 4.8-.5 10.8-.5z" fill="#ccc"/><path d="M36 54.2c7.9 0 14.3-2.3 14.3.5S44 65.5 36 65.5s-14.3-8-14.3-10.8 6.4-.5 14.3-.5z" fill="#231F20"/><path d="M32.4 32.2l.1-.3.3-.3.5-.3c.3-.3.7-.5 1.2-.6l.7-.2h1.6l.7.2a4.2 4.2 0 0 1 2 1.2c0 .2.2.3.2.3a1 1 0 0 1-1 1.4h-.3l-.7-.1h-.4l-.4-.1h-2.6l-.3.1h-.3l-.3.1a1 1 0 0 1-1.1-.8v-.6zm-2.8-5.6l.4-.5.5-.4a6.8 6.8 0 0 1 1.7-1.1l1.1-.5c.5 0 .9-.2 1.3-.3h2.8l1.2.3 1.2.5 1 .5.7.5.5.5.4.5c.3.4.2 1-.2 1.3-.2.2-.5.2-.8.2l-.6-.2-1.2-.4-.8-.1-1-.2a15.1 15.1 0 0 0-3.8 0c-.3 0-.6 0-.8.2l-.9.1-.6.2-.6.2-.5.2a1 1 0 0 1-1.2-.7c0-.3 0-.6.2-.8zm-.8-5.6l.4-.5.6-.5a7.6 7.6 0 0 1 2-1.2l1.2-.5 1.5-.3 1.5-.2c.5 0 1 0 1.5.2l1.5.3 1.3.5 1 .6.9.6.6.5.4.5a1 1 0 0 1-1 1.5l-.6-.2-1.4-.5-1-.2-1-.2-2.2-.2-1.1.1-1.1.1-1 .2-1 .2-.8.3c-.2 0-.4 0-.6.2l-.6.2a1 1 0 0 1-1.2-.6c0-.4 0-.7.2-1z" fill="#404040"/><path d="M36 38.6c-2.5 0-4 2-4 4.4v6c0 2.4 1.5 4.4 4 4.4s4-2 4-4.4v-6c0-2.4-1.5-4.4-4-4.4z" fill="#FF9D00"/><g fill="#fff"><circle cx="28.9" cy="53.6" r="9.1"/><circle cx="43.1" cy="53.6" r="9.1"/></g><linearGradient id="m" x1="36" x2="36" y1="45" y2="50.2" gradientUnits="userSpaceOnUse"><stop stop-color="#4D4D4D" offset=".2"/><stop stop-color="#373737" offset=".4"/><stop stop-color="#0F0F0F" offset=".8"/><stop offset="1"/></linearGradient><path d="M36 50c1.8 0 3.5-1.8 4.5-3.3.5-.8 0-1.7-1-1.7h-7c-1 0-1.5 1-1 1.7 1 1.5 2.7 3.3 4.5 3.3z" fill="url(#m)"/><defs><path id="n" d="M66.8 42.4C66.8 23 52 12.2 36 12.2S5.2 22.6 5.2 42.4C5.2 62.1 20 72.7 36 72.7s30.8-10.9 30.8-30.3z"/></defs><clipPath id="o"><use xlink:href="#n"/></clipPath><g clip-path="url(#o)" fill="#404040"><path d="M5.5 39l7.1 1c.5 0 .8.5.8 1 0 .3-.4.6-.8.7l-7 1A1.8 1.8 0 1 1 5 39h.5zm0 5.6l7.1 1c.5 0 .8.5.8 1 0 .3-.4.6-.8.7l-7 1a1.8 1.8 0 1 1-.6-3.7h.5zm0-10.9l7.1 1c.5 0 .8.4.8.9 0 .4-.4.7-.8.7l-7 1a1.8 1.8 0 1 1 0-3.6zm61.1 8.9l-7.1-1a.9.9 0 0 1-.7-.9c0-.4.3-.7.7-.7l7.1-1a1.8 1.8 0 1 1 0 3.6zm0 5.6l-7.1-1a.9.9 0 0 1-.7-.9c0-.4.3-.7.7-.7l7.1-1a1.8 1.8 0 1 1 .5 3.6h-.5zm0-10.9l-7.1-1a.9.9 0 0 1-.7-1c0-.3.3-.6.7-.6l7.1-1a1.8 1.8 0 1 1 .5 3.6h-.5z"/></g></svg>