<svg viewBox="0 0 128 128" xmlns="http://www.w3.org/2000/svg"><path d="M80 115.3c-1.4 2.9-.6 7.8-.5 8.4.2.7 7.8-4.1 7.8-4.7l-.4-4.5c-2.4 0-4.7.2-7 .8z" fill="#603813" stroke="#8C6239" stroke-miterlimit="10" stroke-width="2.1"/><linearGradient id="a" x1="94" x2="94" y1="82.1" y2="107.3" gradientUnits="userSpaceOnUse"><stop stop-color="#FFAF61" offset=".2"/><stop stop-color="#FCAC5F" offset=".4"/><stop stop-color="#F3A159" offset=".6"/><stop stop-color="#E38F50" offset=".7"/><stop stop-color="#CD7742" offset=".9"/><stop stop-color="#C46D3D" offset=".9"/></linearGradient><path d="M107.4 101.2s1.5-3.4 0-4.7-9.2-14.3-8.5-15.2c.8-1-17 1-17 1l3.5 3s5.2 7 8.6 10.1 5.1 4.5 3 6.6c-2 2-14 10.4-15.8 11.6-.5.4-.9 1.1-1.2 1.8 2.3-.6 4.5-.9 6.9-.9l20.5-13.3z" fill="url(#a)" stroke="#8C6239" stroke-miterlimit="10" stroke-width="2.1"/><linearGradient id="b" x1="39" x2="39" y1="63.8" y2="117.5" gradientUnits="userSpaceOnUse"><stop stop-color="#FFAF61" offset=".2"/><stop stop-color="#FCAC5F" offset=".4"/><stop stop-color="#F3A159" offset=".6"/><stop stop-color="#E38F50" offset=".7"/><stop stop-color="#CD7742" offset=".9"/><stop stop-color="#C46D3D" offset=".9"/></linearGradient><path d="M38.1 107.8a247.2 247.2 0 0 1-3.6-1.5c-1.6-.6-3.2-1.2-3.8-2.8-.3-.9-3.9-4.5-7-7.5l-.5-.4 1.5-7 13.7-7.2C48.8 74 51.7 73 53.1 73c1 0 1.4.5 1.6.9.8 1.4-.5 3.6-3.6 8.3-1 1.6-2.6 4-2.7 4.8.1.5.1 1-.1 1.4-.9 1.7-4.9 2.8-11.4 4.4-2.6.6-6 1.4-7 2a27 27 0 0 0 8.2 5.8c.2.1.6.2 2 .2h2.2l-.7 1.5c-.8 1.6-1.5 3.2-2 4.9l-.4 1-1-.4z" fill="url(#b)"/><path d="M53 74.2c3.7 0-6.4 11.6-5.7 13.2 1.4 3-17.8 5.2-18.5 7s6.8 6.2 8.8 7.3a6 6 0 0 0 2.5.3h.5l-2 4.9-1.8-.8c-2.1-1-4.5-1.3-5-3s-7.4-7.8-7.4-7.8l1.2-6 13.4-7c8.5-6 12.5-8.1 14-8.1m0-2.2c-1.6 0-4.6 1-15.1 8.5l-13.3 6.9-.8.4-.2 1-1.3 6-.2 1.2.8.8c3 2.7 6.4 6.2 6.9 7.1.7 2 2.6 2.7 4.3 3.4l1.8.7 1.8.8 2 1 .9-2.2c.5-1.6 1.2-3.1 2-4.8l1.3-3h-3.8a6 6 0 0 1-1.5 0 41 41 0 0 1-6.9-4.5l5.4-1.4c7.7-1.8 11.1-2.8 12.1-5 .3-.5.4-1.1.3-1.7a41 41 0 0 1 2.5-4.3c3.1-4.8 4.7-7.4 3.6-9.4-.5-1-1.4-1.5-2.5-1.5z" fill="#8C6239"/><path d="M45 110.9l-6.9-3-.9-.5.4-.9 2-5 .3-.6H44c1.9 0 3.2.1 3.9 1 .2.3.5.9.2 1.7l-1.8 6.5-.3 1.2-1-.4z" fill="#603813"/><path d="M44 101.9c2 0 3.5.2 3 1.4-.6 1.9-1.7 6.6-1.7 6.6l-6.7-3c.5-1.7 1.3-3.3 2-5H44m0-2.1h-4.8l-.5 1.3c-.8 1.6-1.5 3.4-2.1 5l-.7 1.9 1.8.8 6.8 3 2.3 1 .6-2.4s1-4.7 1.7-6.4c.3-1 .2-2-.4-2.7-1-1.4-3-1.5-4.7-1.5z" fill="#8C6239"/><path d="M42.8 15.1c1 0 2 .6 2.7 2.2.4 1 .3 2 .2 3 3 1 12.9 24.8 16 32.4.8.4 1.6.6 2.3.7l9.6.3c8.4 0 12.6-1 18.1-1.8l3.4-.2c7.7 0 18.9 3.4 20.2 16 1 8.8-3 14-7.8 16.8l2.7 2.8c1.3 1.5.7 3.1-1.3 4.6-2.5 2-10.2 4-13.6 6.9a21.5 21.5 0 0 1-.1 0c-1 .9-1.6 1.7-1.8 2.5-.8 3.5-8.6 3.6-8.6 3.6l.8-7.3c2-1.1 11.5-5.9 13-7 .7-.7-1.1-2-4.8-4.8h-2.1c-8.5 0-7 2.9-21 4.6-8.7 1-10.5.4-14.7.9l-3.7 15 7.9 7.7 1.6-1.5c1.5-1.4 3.8-3.2 5.3-3.2.5 0 1 .2 1.2.7 1.7 3.1 3.7 7.4 3.7 7.4l-8.2 1.3-5.8 1-13.8-13.5-1.3-17.6a26 26 0 0 1-6.5-8.5c-1.2-2.3-3.4-8.6-1.4-23.3l2.4-12.4s-4.2 4.4-9.5 4.6h-.4a20 20 0 0 1-9.2-2.5c-.7 0-4.4 2.1-6 2.1h-.1a9 9 0 0 1-7.3-3.9C3.3 42 4.4 38 6.2 35.2a29 29 0 0 1 5.6-3.7c9.3-5.6 27-15.1 28.8-15.9.8-.3 1.5-.5 2.2-.5m0-2c-.9 0-1.8.2-3 .7-2 .8-20 10.6-29 16h-.2c-5.4 3.3-5.8 3.9-6 4.3-2.3 3.3-3.5 8.1-1.4 11.7 1.4 2.3 5 4.7 9 4.8 1.4 0 3-.7 5.1-1.6l.8-.4c1.8 1 5.3 2.4 9.4 2.4h.5a15 15 0 0 0 6.5-2L33 56.2v.5c-2 14.7 0 21.5 1.5 24.3 2 3.7 4 6.5 6.4 8.6l1.2 16.7c0 .5.2 1 .6 1.3l13.8 13.5a2 2 0 0 0 1.7.6l5.9-1h.2l8-1.3a2 2 0 0 0 1.5-2.8c-.2-.2-2.1-4.4-3.8-7.5a3.3 3.3 0 0 0-3-1.8c-.6 0-2.6 0-6.7 3.6a2 2 0 0 0-.2.3l-5.7-5.4L57.6 93h3a73 73 0 0 0 10.4-.8c7.3-.9 10.5-2.1 13-3 2.4-1 3.9-1.5 7.6-1.5h1.5l2.7 2c-2 1.3-5.9 3.2-8 4.3l-3.3 1.7a2 2 0 0 0-1 2l-.7 6.9a2 2 0 0 0 2 2.2c1.6 0 9.4-.4 10.5-5.2 0 0 .2-.4 1.2-1.3l.2-.2c1.7-1.4 4.8-2.6 7.5-3.8 2.4-1 4.6-1.9 5.9-2.9 1.7-1.3 2.6-2.7 2.7-4.2a5 5 0 0 0-1-3.3l-1.2-1.2c5-4 7.5-10 6.7-17.3a18.3 18.3 0 0 0-8.7-14.2A26.6 26.6 0 0 0 91.4 50l-3.2.4a82.6 82.6 0 0 1-25 .8C53.6 28 49.6 21.4 47.6 19.4a7 7 0 0 0-.4-2.9c-1.1-3-3.3-3.4-4.5-3.4z" fill="#8C6239"/><linearGradient id="c" x1="111.4" x2="111.4" y1="21.1" y2="64.8" gradientTransform="matrix(.885 .4656 -.4334 .8236 33 -40.7)" gradientUnits="userSpaceOnUse"><stop stop-color="#C69C6D" offset="0"/><stop stop-color="#C59B6C" offset="0"/><stop stop-color="#7D542C" offset=".7"/><stop stop-color="#603813" offset="1"/></linearGradient><path d="M112.4 66.4c-1.8 0-3.5-.4-5-1.1a9 9 0 0 1-3-2.4l.3.2.7.3c.9.3 1.8.4 2.7.4 2 0 3.7-.7 4.7-1.8s1.6-2.9 1.5-4.7c-.1-1.6-1.5-3.2-3.2-5.2a24.4 24.4 0 0 1-6.8-13.3c-.6-6.4.6-8.6 2.9-12 .5-.8 2.3-2.8 3.3-3.4v.2l-.5 2c-.6 5.3 2.2 9.7 5.1 13.8l.5.7a38 38 0 0 1 6.7 11.8c.8 3 1.5 8.3-2.5 11.9a11.6 11.6 0 0 1-7.4 2.6z" fill="url(#c)"/><path d="M109 26c-.5 5.4 2.4 9.9 5.3 14l.5.6c2.7 3.8 5.5 7.6 6.6 11.6.7 2.6 1.4 7.6-2.2 10.8a11 11 0 0 1-10.3 1.8 7 7 0 0 0 4.7-2.2 7.2 7.2 0 0 0 1.7-5.4c-.2-1.9-1.6-3.6-3.4-5.8-2.7-3.1-6-7-6.6-12.8-.6-6 .5-8 2.7-11.3l1-1.2m2-3.9c-1.4 0-4.3 3.4-4.7 4-2.3 3.5-3.6 6-3 12.6 1 10 9.8 15.2 10 18.5 0 1.5-.2 3-1.2 4s-2.4 1.5-4 1.5c-.8 0-1.6 0-2.4-.4-.3 0-.6-.2-.8-.3l-.6-.4-.5-.3-.1-.2-.5-.2c-.3 0-.6.3-.5.6l.2.7c.2.4.4 1 1.1 1.8a12.7 12.7 0 0 0 8.4 3.3c3 0 6-1.1 8-2.9 3.8-3.2 4.1-8.2 2.9-12.8-1.3-4.6-4.4-8.8-7.4-13-2.8-3.7-5.5-8-4.9-13l.4-1.8.3-.7v-.6c-.2-.3-.4-.4-.7-.4z" fill="#734825"/><path d="M72 117.4s-2-4.3-3.7-7.4c-1-1.9-4.4.6-6.5 2.5.3 2.2.9 4.3 2 6.3l8.2-1.4zm14.7-19.9c-.3.2-1.1 0-1.1 0l-.8 7.4s7.8-.1 8.6-3.6c.2-.8.9-1.6 1.8-2.4-3 .4-5.8 0-8.5-1.4z" fill="#603813"/><linearGradient id="d" x1="63.6" x2="63.6" y1="14" y2="120.1" gradientUnits="userSpaceOnUse"><stop stop-color="#FFAF61" offset=".2"/><stop stop-color="#FCAC5F" offset=".4"/><stop stop-color="#F3A159" offset=".6"/><stop stop-color="#E38F50" offset=".7"/><stop stop-color="#CD7742" offset=".9"/><stop stop-color="#C46D3D" offset=".9"/></linearGradient><path d="M115.3 67.7C113.8 53 99.1 50.9 91.7 51.9c-7.3 1-12.4 2.5-27.6 1.5-.8 0-1.6-.3-2.5-.7-3-7.6-12.9-31.4-15.9-32.5.1-1 .2-2-.2-3-1-2.6-3-2.3-4.9-1.6-1.8.8-19.5 10.3-28.8 15.9 4.7 3.1 6.7 9.2 6.5 15a18 18 0 0 0 9.6 2.5c7.1-.5 9.6-5 9.6-5L35 56.8c-2 14.7.2 21 1.4 23.3a26 26 0 0 0 6.5 8.5l1.3 17.6L58 119.7l5.8-1c-1-2-1.6-4-2-6.2a10 10 0 0 0-1.6 1.6l-7.9-7.7 3.7-15c4.2-.6 6 0 14.7-1 15-1.9 12.2-5 23-4.6 3.8 2.8 5.6 4.1 4.9 4.8-1.5 1.2-11 5.9-13 7 2.7 1.4 6.7 1.6 9.7 1.2 3.4-2.9 11.1-5 13.6-6.9 2-1.5 2.6-3.1 1.3-4.6l-2.7-2.8c4.8-2.9 8.8-8 7.8-16.8z" fill="url(#d)"/><path d="M42.1 92.8L41.8 79" fill="none" stroke="#8C6239" stroke-linecap="round" stroke-miterlimit="10" stroke-width="2"/><path fill="none" stroke="#8C6239" stroke-linecap="round" stroke-miterlimit="10" stroke-width="2.1" d="M56.5 93.8l4-10.7"/><path d="M83.7 74.2c0 3.6 1.7 7 4.5 9.4 1.8 1.5 4 2.4 6 3.3 1.4.6 2.2 1.5 4 3" fill="none" stroke="#8C6239" stroke-linecap="round" stroke-miterlimit="10" stroke-width="2"/><linearGradient id="e" x1="12" x2="12" y1="38.2" y2="55.1" gradientTransform="rotate(18.2 30.3 43.7)" gradientUnits="userSpaceOnUse"><stop stop-color="#FFF1C4" offset="0"/><stop stop-color="#FFE2A7" offset=".4"/><stop stop-color="#FFCA7B" offset="1"/></linearGradient><path d="M11.8 31.5a29 29 0 0 0-5.6 3.7c-1.8 2.7-3 6.8-1.3 9.5 1 1.8 3.9 3.8 7.3 4 1.7 0 5.7-2.4 6-2.2.3-5.8-1.7-11.9-6.4-15z" fill="url(#e)"/><linearGradient id="f" x1="24.2" x2="48.3" y1="10.7" y2="23.7" gradientTransform="matrix(.9909 -.015 -.015 .9753 .4 .7)" gradientUnits="userSpaceOnUse"><stop stop-color="#C69C6D" offset="0"/><stop stop-color="#C59B6C" offset="0"/><stop stop-color="#7D542C" offset=".7"/><stop stop-color="#603813" offset="1"/></linearGradient><path d="M34 23.1c-2 0-4.2-.5-6.5-1.6a7.4 7.4 0 0 1-4-7.5 6.7 6.7 0 0 0 5 1.6 19 19 0 0 0 6.3-2.3c1.8-.9 3.8-2 5.8-2.1h.5a5 5 0 0 1 3.5 1.2c.4.5.6 1 .6 1.6-.2 2.8-4.2 9.1-11.1 9.1z" fill="url(#f)"/><path d="M41 12c1.2 0 2.4.4 3 1 .2.3.3.6.3 1-.1 2-3.5 8.3-10.2 8.3-2 0-4-.5-6.2-1.6a6.6 6.6 0 0 1-3.6-5.1 7.7 7.7 0 0 0 4.2.8 18 18 0 0 0 6.6-2.4c1.8-.8 3.7-1.8 5.5-2h.5m0-1.7h-.6c-2.1.3-4.2 1.3-6.1 2.3a17.5 17.5 0 0 1-6.6 2.2c-1.7 0-3.6-.8-4.4-2.1l-.3-.1c-.1 0-.2 0-.3.2a8.3 8.3 0 0 0 4.3 9.5 17 17 0 0 0 7 1.7c7.6 0 11.7-7 11.9-10 .1-2.4-2.5-3.7-5-3.7z" fill="#734825"/><ellipse transform="rotate(-71.8 32 30.6)" cx="32" cy="30.6" rx="3.7" ry="3.3" fill="#404040"/><path d="M12 39c.7.4 1 1.4 1 2.2s-.8 1.5-1.5 2c-.8.5-1.8.2-1.8-1 0-.5.8-1 .8-1.7 0-.8-2-1.1-.6-1.6.7-.1 1.5-.2 2.1.1z" fill="#404040"/><linearGradient id="g" x1="41" x2="75.7" y1="16" y2="61" gradientUnits="userSpaceOnUse"><stop stop-color="#C69C6D" offset="0"/><stop stop-color="#C59B6C" offset="0"/><stop stop-color="#7D542C" offset=".7"/><stop stop-color="#603813" offset="1"/></linearGradient><path d="M51.2 18.4c-.5.2-.7 1-.2 1.1l6.2 2.3c.4.1.2 1-.3 1.1l-.5.1c-.4.1-.6 1-.2 1.2 2 .9 3.8 2.2 5.4 3.8.3.3 0 1-.4 1.1l-1.9.3c2 .5 3.8 1.6 5.3 3.2.3.3 0 1.1-.4 1h-.4c-.4 0-.7 1-.4 1.3l5.4 4c.4.3 0 1.3-.4 1.3-.5 0-.8 1-.3 1.2 2.4 1.5 4.6 3.8 6.4 6.6.3.4 0 1.1-.4 1.2h-1.8c-.5 0-.8 1-.4 1.3l3.8 4.2c.3.3 0 1-.3 1.2a3 3 0 0 1-1.3.3c-.4 0-.7.6-.5 1.1l.2.8c.1.5-10.9 1.1-18.5-8.3-5.4-6.7-5.6-11-6.9-17.2-.8-3.8-1.7-9-2.1-10.2-.3-.8-4.1-2.2-3.6-3.2.5-1.1 2-1.2 2.9-1.4 2.4-.4 5.6.6 5.6.6z" fill="url(#g)" stroke="#734825" stroke-linecap="round" stroke-linejoin="round" stroke-miterlimit="10" stroke-width="2.1"/><path d="M48 11.5c1-.6 2.2.2 2.2 1.3-.3 5.2-1.8 16.4-9.6 12-7.6-4.2 2.6-10.7 7.4-13.3z" fill="#FFAF61"/><linearGradient id="h" x1="34.8" x2="36.7" y1="6.8" y2="17.7" gradientTransform="rotate(43.3 35.4 27.5)" gradientUnits="userSpaceOnUse"><stop stop-color="#D49151" offset="0"/><stop stop-color="#D28E4F" offset=".3"/><stop stop-color="#CE8349" offset=".6"/><stop stop-color="#C6713F" offset=".8"/><stop stop-color="#C46D3D" offset=".9"/></linearGradient><path d="M46.2 20.2a4 4 0 0 1-1.3 1.8c-.7.5-1.6.7-2.3.4-.8-.4-1.2-1.4-1-2.2s.6-1.6 1.1-2.3c.7-.7 3.4-2.9 5.4-4 .6-.3-1.6 5.4-2 6.3z" fill="url(#h)"/></svg>