<svg viewBox="0 0 128 128" xmlns="http://www.w3.org/2000/svg"><path d="M37.2 84.5a5.4 5.4 0 1 1 0-10.7 5.4 5.4 0 0 1 0 10.7z" fill="#fff"/><path d="M37.2 74.5a4.7 4.7 0 1 1 0 9.4 4.7 4.7 0 0 1 0-9.4m0-1.3a6 6 0 1 0 0 12 6 6 0 0 0 0-12z" fill="#B3B3B3"/><circle cx="37.2" cy="79.2" r="2.3"/><linearGradient id="a" x1="74.7" x2="89.5" y1="68.4" y2="68.4" gradientUnits="userSpaceOnUse"><stop stop-color="#689F38" offset="0"/><stop stop-color="#659D37" offset=".3"/><stop stop-color="#5D9534" offset=".5"/><stop stop-color="#4E8930" offset=".7"/><stop stop-color="#397729" offset=".8"/><stop stop-color="#1E6021" offset="1"/><stop stop-color="#1B5E20" offset="1"/></linearGradient><path d="M78.3 65.7c1.8-2 4.6-3.5 7.2-2.9 1.6.4 3 1.5 3.6 3s.5 3.3-.6 4.5a8 8 0 0 1-2.9 1.8c-1.7.8-3.5 1.6-5.5 1.9-1.6.3-5.4.5-5.4-1.7 0-2 2.3-5.2 3.6-6.6z" fill="url(#a)" stroke="#006837" stroke-miterlimit="10" stroke-width="2"/><path d="M118.5 74.3a9.4 9.4 0 0 0-2-1.9l.3-1.7c.5-5.6-.6-11.4-3.6-16a30 30 0 0 0-18.3-12C87.7 41 80.2 41 72.8 40.6c-7.4-.3-15-1-21.8-4-2.3-1-4.6-2.2-6.3-4.1s-2.7-4.5-2.4-7c.4-2.5 2-4.2 3.7-6 1.4-1.4 4.6-4 1.8-3.7-4.5.2-9.7 6-11 10-1.6 5.7-.9 12 3.7 15.7C57.4 55 78.8 50 87.4 55.5c1.8 1.1 3.9 3.4 3.8 5.3-.3 6-9.8 10.6-19.8 15.3-2.8 1.2-5.8 2-9 3-2.8-1.9-3.4-2.7-9.3-3.2-5.2-.5-9.9 2.6-14 5-7.3 4.6-13.9 5.1-22.6 6.9-4.2.8-8.5-.8-9.7 1-1.2 1.7-2 5.2-.2 6.5 2.2 1.5 7.9 0 10.4-.1 15.7-.3 17.5 4 20.5 3-16.4 5.3-13.8 6.3-21.7 5-1-.2-10.7-3.5-9.8-1.7.3.6 2 1.2 4 2a81.8 81.8 0 0 0 36.8 3.2c2.6-.2 5-1 7.6-1.4 1.3-.2 2.5-.3 3.7 0a8 8 0 0 1 3.4 2c.5.4 1 1 1.5 1.3l1.2.7c1.3.5 2.6.7 3.9.8h3l3.2.4-.5.2-7.4 2.1-4 3h3.5s-4.3 3.4-2.6 3.1c1.7-.3 4.5-1.2 4.5-1.2s-3 6-1.6 4.4c1.4-1.6 5.6-5.5 5.1-4.2-.4 1.3-1.8 5.7-.4 4.8 1.3-.8 2.4-3.4 5.8-4s14.8-1.3 19-5.7c3.3-3.5 5-6.2-.2-11.7A44.8 44.8 0 0 0 110 88l-.3 1.5-2 7.2c-.6 3 0 4.3.5 4.3.7 0 1-1.2 1-1.9s.4-1.4 1.1-1.3c.3.3 0 1.2 0 2 0 1 .2 2 .7 2 .7 0 .9-3.6 1.5-3.4.6.2.6 1 .5 1.6s.2 1.6.8 1.6c.5 0 .5-.7.6-1.1 0-.5.1-1.2.4-1.6.4-.4.6-.6 1-.3.4.4.3 2.4 1.5 2.6.3 0 .3-.5.3-.7 1-6 4.4-12.4 4.5-18.8 0-3.4-1-4.3-3.6-7.5z" fill="none" stroke="#006837" stroke-linecap="round" stroke-linejoin="round" stroke-miterlimit="10" stroke-width="3.9"/><linearGradient id="b" x1="4.6" x2="102.8" y1="20.8" y2="122.2" gradientUnits="userSpaceOnUse"><stop stop-color="#6CB52E" offset=".4"/><stop stop-color="#68B12D" offset=".5"/><stop stop-color="#5CA42B" offset=".7"/><stop stop-color="#498F28" offset=".8"/><stop stop-color="#2E7223" offset=".9"/><stop stop-color="#1B5E20" offset="1"/></linearGradient><path d="M118.5 73.8a9.4 9.4 0 0 0-2-1.9l.3-1.7c.5-5.6-.6-11.4-3.6-16a30 30 0 0 0-18.3-12c-7.2-1.7-14.7-1.8-22.1-2.2-7.4-.3-15-1-21.8-4-2.3-1-4.6-2.2-6.3-4.1s-2.7-4.5-2.4-7c.4-2.5 2-4.2 3.7-6 1.4-1.4 4.6-4 1.8-3.7-4.5.2-9.7 6-11 10-1.6 5.7-.9 12 3.7 15.7C57.4 54.5 78.8 49.5 87.4 55c1.8 1.1 3.9 3.4 3.8 5.3-.3 6-9.8 10.6-19.8 15.3-2.8 1.2-5.8 2-9 3-2.8-1.9-3.4-2.7-9.3-3.2-5.2-.5-9.9 2.6-13.9 5-7.4 4.6-14 5.1-22.7 6.9-4.2.8-8.5-.8-9.7 1-1.2 1.7-2 5.2-.2 6.5 2.2 1.5 7.2-.1 13-.1 10.9 0 14.6 2.5 17.6 1.7-16.4 5.2-21.9 4.5-29.7 3.2-1.1-.2-2.5.3-2 1.3.2.7 2.3 2.3 4.4 3 13.5 4.7 23.9 3.3 37 2.3 4.5-.3 10-3.4 14 0l.6.6a9 9 0 0 0 6.6 2.8h3l3.2.4-.5.2-7.4 2.1-4 3h3.5s-4.3 3.4-2.6 3.1c1.7-.3 4.5-1.2 4.5-1.2s-3 6-1.6 4.4c1.4-1.6 5.6-5.5 5.1-4.2-.4 1.3-1.8 5.7-.4 4.8 1.3-.8 2.4-3.4 5.8-4s14.8-1.3 19-5.7c3.3-3.5 5-6.2-.2-11.7A44.8 44.8 0 0 0 110 87.6l-.3 1.5-2 7.2c-.6 3 0 4.3.5 4.3.7 0 1-1.2 1-1.9s.4-1.4 1.1-1.3c.3.3 0 1.2 0 2 0 1 .2 2 .7 2 .7 0 .9-3.6 1.5-3.4.6.2.6 1 .5 1.6s.2 1.6.8 1.6c.5 0 .5-.7.6-1.1 0-.5.1-1.2.4-1.6.4-.4.6-.6 1-.3.4.4.3 2.4 1.5 2.6.3 0 .3-.5.4-.7 1-6 4.3-12.4 4.4-18.8 0-3.4-1-4.3-3.6-7.5z" fill="url(#b)"/><linearGradient id="c" x1="14.5" x2="41.8" y1="86.1" y2="106.5" gradientUnits="userSpaceOnUse"><stop stop-color="#FF5E65" offset="0"/><stop stop-color="#F74249" offset=".3"/><stop stop-color="#ED1C24" offset=".6"/><stop stop-color="#631C24" offset="1"/></linearGradient><path d="M4.3 99.9c.4-.9 2.2-1.2 4.2-.6s6.7-.3 11.6-1c5-.8 9 .4 13.1-1 4.1-1.5 11.1-6 15.2-6.3 4.4-.4 4.3 1 4.3 1s-7.5 2-9.3 4.9-6.5 6.1-11.9 5.7c-4.9-.4-10.6.4-13 1s-6.9 1.2-9.7.3c-2.8-1-5.1-2.7-4.5-4z" fill="url(#c)"/><path d="M82.4 96.9c8.1-.6 16.1 6 17.1 8.9" fill="none" stroke="#006837" stroke-linecap="round" stroke-linejoin="round" stroke-miterlimit="10" stroke-width="2"/><path d="M10.2 100.3l-1.5-3h3.1zm4.5-.5l-1.5-3h3.1zm4.1-.3l-1.5-3h3.1zm4.5.1l-1.5-3h3.1zm5.9.4l-1.6-3h3.2zm5.9-.4l-1.5-3h3.1zm6.1-1.7l-2.5-2.4 3-1z" fill="#E6E7E8"/><path d="M52 91.1c-3.5-.1-5.6-.4-7.4 1-1.7 1.3-8.2 5.3-13.8 4.7 0 0-3.8-.5-7.6-.5s-7.7.2-10.5.5C9.8 97 8 97.5 6 96m59 14.5c4.5.9 8.8 0 13-2m29.7-16.3c1.6-2 2-4.8.8-7.1-.8-1.8-2.4-3-3.7-4.6-1.3-1.5-2.2-3.6-1.5-5.5" fill="none" stroke="#006837" stroke-linecap="round" stroke-linejoin="round" stroke-miterlimit="10" stroke-width="2"/><path d="M109.7 70.4c4.2-.1 7.8 1.3 11.2 5.1" fill="none" stroke="#006837" stroke-linecap="round" stroke-linejoin="round" stroke-miterlimit="10" stroke-width="1.5"/><path d="M59.2 75.7c2 .6 4.2 3 6 4.2 1.6 1.3 5.6 4.3 7.4 5" fill="none" stroke="#006837" stroke-linecap="round" stroke-linejoin="round" stroke-miterlimit="10" stroke-width="1.3"/><path d="M87.6 94c.2.2.5.3.8.3l1-.2c.7-.4 1.4-1 1.9-1.8.1-.3.3-.7 0-1-.1-.2-.5-.2-.8-.2-1 0-4 1.4-2.9 2.8zm6.8-3.8c.3.3.7.3 1 .2a4 4 0 0 0 2.2-1c.4-.4.7-.8.5-1.2-.6-1.8-5.2.6-3.7 2zm20.1-20.5c.4 0 .7-.4.9-.7.3-.7.5-1.5.4-2.3 0-.5-.2-1-.6-1.2-1.8-.6-2.7 4.6-.7 4.2zm.9-5.9c.3-.2.4-.6.4-1 .1-.8 0-1.6-.4-2.3-.3-.4-.6-.8-1-.8-2 .1-.7 5.3 1 4.1zM93 95c.2.2.7.2 1 .2.8-.2 1.6-.5 2.2-1 .3-.4.6-.9.5-1.3-.6-1.8-5.3.7-3.7 2zm2.3 3c.3.3.7.3 1 .3a4 4 0 0 0 2.2-1c.4-.4.7-.8.5-1.3-.6-1.8-5.2.7-3.7 2zm6.7-4.5c.3.3.7.3 1.1.2.8-.1 1.6-.5 2.2-1 .3-.3.6-.8.5-1.2-.7-1.8-5.3.7-3.8 2zm-2-8.3c-.1.2-.3.5-.2.8 0 .2.3.3.5.4s.4 0 .6 0c.8-.2 1.5-.5 2.1-1l.5-.6v-.7c-.7-1.3-3 .4-3.5 1zm-2 6c0 .3-.2.6-.1.8 0 .2.2.4.4.4h.7c.8-.1 1.5-.5 2-1 .3-.1.5-.3.6-.5s.1-.5 0-.8c-.8-1.2-3 .5-3.5 1.1zm5.8-4.2c-.1.2-.3.5-.2.8 0 .2.3.3.5.4s.4 0 .6 0c.8-.2 1.5-.5 2.1-1l.5-.6c.1-.2.2-.5 0-.7-.7-1.3-3 .4-3.5 1zM81.5 98.7c-.6-.2-1.3.2-1.5.8s.2 1.3.8 1.5c.6.2 1.3 0 2-.4.6-.3 1.4-1 1.2-1.7-.1-.5-.7-.8-1.2-.8s-1 .3-1.5.5m-11.8 5.9l-1.2.4c-.4.3-.6.6-.6 1 0 .6.6 1 1.1 1 .6 0 1-.2 1.6-.4.5-.2 1.2-.6 1.1-1.3 0-.4-.4-.7-.8-.8a3 3 0 0 0-1.3 0m2-4.4c-.4 0-.9 0-1.2.3-.4.2-.7.6-.6 1 0 .6.6 1 1.1 1 .5 0 1-.2 1.5-.4.6-.2 1.3-.7 1.2-1.3 0-.4-.4-.7-.9-.8a3 3 0 0 0-1.2 0m2.8 6.2l-1.2.4c-.3.3-.6.6-.6 1 0 .6.6 1 1.2 1 .5 0 1-.2 1.5-.4.6-.2 1.2-.6 1.2-1.3 0-.4-.5-.7-1-.8a3 3 0 0 0-1.2 0m2.9-8.5l-1.2.4c-.4.2-.7.6-.6 1 0 .6.6 1 1.1 1 .5 0 1-.2 1.5-.4.6-.2 1.3-.7 1.2-1.3 0-.4-.4-.7-.9-.8a3 3 0 0 0-1.2 0m-1.6 4.9c-.3.2-.7.3-.9.6s-.4.5-.3.9c0 .3.3.5.6.6h1c.5 0 1-.2 1.5-.5.4-.3.8-.8.7-1.4-.1-.5-.7-.8-1.2-.8s-1 .3-1.4.5m5.3 1.1c-.5.1-1 .4-1.4.8s-.3 1.1 0 1.6c.3.3.8.5 1.2.5l1.3-.3 1.4-.7c.4-.3.7-1 .5-1.5-.2-.5-.8-.8-1.4-.8a3 3 0 0 0-1.6.5m.6 6.4c-.5.1-1 .4-1.3.8s-.4 1.1 0 1.6c.3.3.7.5 1.1.5l1.3-.3 1.4-.7c.4-.3.7-1 .5-1.5-.1-.5-.8-.8-1.3-.8-.6 0-1.2.2-1.7.5m8-2.8c-.5 0-1 .3-1.3.8s-.4 1.1 0 1.5c.3.4.7.5 1.1.5l1.3-.3c.5-.2 1-.3 1.4-.7s.7-1 .5-1.4c-.1-.6-.8-.9-1.3-.9-.6 0-1.2.3-1.7.5m-11.8 7c-.6.2-1 .5-1.4 1s-.3 1 0 1.5c.3.3.7.4 1.1.4l1.3-.3c.5-.1 1-.3 1.5-.7s.6-.9.5-1.4c-.2-.5-.9-.8-1.4-.8-.6 0-1.1.2-1.7.5m6.1-1.2c-.6 0-1 .3-1.4.8s-.3 1.1 0 1.5c.3.4.7.5 1.1.5l1.3-.3c.5-.2 1-.3 1.5-.7s.6-1 .5-1.4c-.2-.6-.9-.9-1.4-.9-.6 0-1.1.3-1.7.5m5.9-1.8c-.5.1-1 .4-1.3.8s-.4 1.1 0 1.6c.3.3.7.5 1.1.5l1.3-.3 1.4-.7c.4-.3.7-1 .5-1.5-.1-.5-.8-.8-1.3-.8-.6 0-1.2.2-1.7.5m4.6-3.5a2 2 0 0 0-.9 1.3c0 .6.2 1.2.7 1.4.4.2.8.1 1.2 0s.7-.6 1-.9c.4-.3.8-.7 1-1.2s.2-1.2-.1-1.6c-.4-.4-1.1-.4-1.6-.1-.6.2-1 .7-1.3 1.1m21.9-13.4c-.2.5-.1 1.1.1 1.6.3.5.9.8 1.4.7.4-.1.7-.5 1-.9s.2-.8.2-1.2c.1-.5.2-1 0-1.6s-.5-1-1-1.1c-.6 0-1.1.3-1.4.9-.2.5-.2 1-.3 1.7M114 82c0 .6.1 1 .5 1.4s.8.5 1.2.3c.4-.1.6-.5.7-.9v-1c0-.5 0-1-.3-1.4-.2-.4-.6-.8-1.1-.7-.5 0-.9.5-1 1V82m-.5 7.4l.1 1.4c.1.4.7.7 1.2.6.4 0 .7-.3.8-.7l.4-1v-1.4c0-.4-.4-1-.9-1a1 1 0 0 0-1.2.7l-.3 1.4m3.8-1.1c-.1.6-.1 1.1.2 1.6.2.5.8.8 1.3.7.4 0 .8-.4 1-.8l.3-1.2v-1.7c0-.6-.5-1-1-1-.6-.1-1.2.3-1.4.8-.3.5-.3 1.1-.3 1.7m.3-6.3c.1.6.3 1.1.7 1.5s1 .5 1.5.2c.4-.2.6-.7.7-1s0-1-.2-1.4c0-.5-.2-1-.5-1.5s-.8-.8-1.3-.7c-.6.1-1 .7-1 1.3-.1.5 0 1.1.2 1.7m-3.2-5.5c.1.5.4 1 .8 1.4s1.1.3 1.6 0c.3-.3.5-.7.5-1.1l-.3-1.3c-.2-.5-.3-1-.7-1.5-.3-.4-.9-.7-1.4-.5-.5.2-.9.8-.9 1.4 0 .5.3 1 .5 1.6M76.3 85.4l3.2-5.2.6 3s-1.4 1.6-3.8 2.2zm5.1-3l3.3-5.2.5 3s-1.4 1.6-3.8 2.2zm5.2-3.2l3.2-5.2.6 3a8 8 0 0 1-3.8 2.2zm6.2-4.2l2.1-5.7 1.2 2.8s-1 1.8-3.3 3zm4.8-4.7l.9-6 1.7 2.5s-.6 2-2.6 3.5zM70.2 80.8l3.2-5.2.6 3s-1.4 1.6-3.8 2.2zm5.6-3.3l3.2-5.2.6 3s-1.4 1.6-3.8 2.2zm6-3.5l3.3-5.2.6 3a8 8 0 0 1-3.9 2.2zm5.9-4l2-5.7L91 67s-1 1.8-3.3 3zm4.8-4.5l1-6L95 62s-.6 2-2.6 3.5zm8.7-1.2l1-6 1.7 2.5s-.7 2-2.7 3.5zM50.7 39.2l2.9-1.9 1.3 3.1zM44.8 37l2.9-1.8 1.3 3.1zm-5.5-5.8l3.4-.2-.3 3.4zM56.6 41l2.5-2.4 1.9 2.9zm6.8 1l2.6-2.4 1.8 2.9zm7 .7l2.6-2.3 1.8 2.8zm6.9.7l2.6-2.3 1.8 2.9zm8.4 1l2.9-2 1.3 3.2zm7.6 1.6l3-1.9 1.3 3zm5 3l3.2-1.3.8 3.3zm2.7 6l2.8-2.3.4 3.7zM54.3 44.5l2.9-1.8 1.3 3zm-6.1-2.1l2.9-1.8 1.3 3zM40.4 36l3.4-.2-.3 3.3zM60 46.5l2.6-2.3 1.8 2.8zm5.5.8L68 45l1.8 2.8zm7.1.7l2.6-2.3 1.8 2.8zm7.1 1l2.5-2.3 1.9 2.8zm6.1 1.2l3-1.9 1.3 3.1zm5.6 1.2l3.2-1.3.8 3.3zm2.4 4.9l2.6-1.1-.5 4z" fill="#006837"/><path d="M38.2 98l2.5 2-2.6 1.4zm-5.6 1.5l1.4 3h-3zm-6.1 0l1.6 3-3 .2zm-5.4.5l2 2.8-3 .6zm-4.3.8l1.7 2.8-3 .4zm-4.5.4l1.5 3h-3z" fill="#E6E7E8"/><path d="M52.4 84.7a5.5 5.5 0 1 1 0-11 5.5 5.5 0 0 1 0 11z" fill="#fff"/><path d="M52.4 74.3a4.8 4.8 0 1 1 0 9.7 4.8 4.8 0 0 1 0-9.7m0-1.3a6.2 6.2 0 1 0 0 12.4 6.2 6.2 0 0 0 0-12.4z" fill="#B3B3B3"/><circle cx="52.4" cy="78.7" r="2.4"/></svg>