<svg viewBox="0 0 128 128" xmlns="http://www.w3.org/2000/svg"><linearGradient id="a" x1="31.9" x2="46.4" y1="118" y2="93.1" gradientUnits="userSpaceOnUse"><stop stop-color="#F8F8F8" offset="0"/><stop stop-color="#EBEBEB" offset=".4"/><stop stop-color="#D4D4D4" offset="1"/></linearGradient><path d="M39.5 123.7c-1.7 0-3.7-.4-5.8-1.2-1-.4-2.3-1.7-2.7-3.3-.3-1.7.5-3.6 2.4-5.4l1.2-1c1.8-1.6 4.1-3.6 4.5-6.2.2-2-.4-3.9-1.1-5.7a23 23 0 0 1-1-3.4l-.3-1.6c-.5-2.5-1-5-1-7.4.1-1.7.5-4.7 2.8-5.9a4 4 0 0 1 2-.4c1.9 0 4.6.8 6.1 3.2 2 3 2.5 8 2.9 11.3v1c1 8.6-.3 16.3-4 22.3a8.1 8.1 0 0 1-2.8 3c-.8.5-2 .7-3.2.7z" fill="url(#a)"/><path d="M40.5 83.2c1.7 0 4 .9 5.3 2.8 1.7 2.8 2.3 7.6 2.6 10.8l.1 1c1 8.4-.3 15.9-3.8 21.6-.6 1-1.4 2.2-2.5 2.7-.7.4-1.6.6-2.7.6-1.6 0-3.5-.4-5.5-1.2a3.6 3.6 0 0 1-2-2.5c-.3-1.7 1-3.4 2.1-4.5l1.1-1c2-1.7 4.4-3.8 4.9-6.8.3-2.2-.5-4.2-1.1-6.2a17 17 0 0 1-1-3.2l-.3-1.6c-.5-2.6-1-5-1-7.2.1-1.5.4-4 2.2-5 .4-.2 1-.3 1.6-.3m0-2c-1 0-1.8.2-2.5.5-2.3 1.2-3.2 3.9-3.3 6.8 0 3 .7 6.1 1.3 9.2.6 3.1 2.4 6 2 8.7-.3 2.8-3.4 4.9-5.3 6.7-5.3 5-1.8 9.5.6 10.3 2.1.8 4.3 1.3 6.2 1.3 1.4 0 2.6-.2 3.7-.8 1.4-.7 2.4-2 3.2-3.4a36 36 0 0 0 4.2-23c-.4-3.4-.9-9-3.1-12.6a8.4 8.4 0 0 0-7-3.7z" fill="#B0B0B0"/><linearGradient id="b" x1="80.2" x2="80.2" y1="78.3" y2="121.2" gradientUnits="userSpaceOnUse"><stop stop-color="#fff" offset=".3"/><stop stop-color="#F2F2F2" offset=".6"/><stop stop-color="#D4D4D4" offset="1"/></linearGradient><path d="M59.6 122.9c-1 0-1.7-.9-1.7-2 0-1 .7-2.2 2-3a16 16 0 0 1 8.5-1.8c1 0 2.2 0 3.3.2h.1a1 1 0 0 0 1-.7 1 1 0 0 0-.3-1.2c-.5-.3-11.5-8.7-6-24.5 4.7-13.5 12.1-15.1 17.3-15.1 1.9 0 4 .2 6.3.7 6 1.2 13.5 9.8 12.4 21a29.2 29.2 0 0 1-10 18.6c-.3.2-.5.5-.5.8s.2.6.5.8c1.5 1.2 3.7 3.4 3.4 4.6-.2.7-1.8 1.3-4.2 1.6H59.6z" fill="url(#b)"/><path d="M83.8 75.8c1.8 0 3.8.2 6 .7 4.9 1 12.8 8.4 11.7 20-1.2 11-9.6 17.7-9.7 17.8a2 2 0 0 0 0 3.2c1.5 1.1 3 2.8 3 3.5 0 .1-.8.6-3.2.9h-32c-.5 0-.7-.5-.7-1 0-.7.6-1.5 1.6-2.1 1.1-.8 3.5-1.7 7.9-1.7 1 0 2.1 0 3.3.2h.1a2 2 0 0 0 2-1.3 2 2 0 0 0-.7-2.4c-.5-.3-10.9-8.3-5.6-23.4 4.4-12.9 11.4-14.4 16.3-14.4m0-2c-7.1 0-14 3.3-18.3 15.7a22.5 22.5 0 0 0 6.3 25.8c-1.2-.2-2.4-.2-3.4-.2-14.2 0-12.9 8.8-8.8 8.8h32.1c10.9-1 1.4-8 1.4-8s9.2-7 10.4-19.2c1.2-12.1-7-21-13.2-22.2-2.2-.4-4.3-.7-6.5-.7z" fill="#B0B0B0"/><linearGradient id="c" x1="96.4" x2="119.2" y1="79.9" y2="79.9" gradientUnits="userSpaceOnUse"><stop stop-color="#fff" offset=".3"/><stop stop-color="#F2F2F2" offset=".6"/><stop stop-color="#D4D4D4" offset="1"/></linearGradient><path d="M107.1 91c-1 0-2-.6-2.6-1.5a1 1 0 0 0-1.1-.5l-.6.1h-.1a3 3 0 0 1-3-2.8V86a1 1 0 0 0-.5-1 5.5 5.5 0 0 1-.3-9.3c.4-.2.5-.7.4-1.1l-.1-.7a3 3 0 0 1 2.9-3.1h1.1c.2 0 .5 0 .7-.2 1-1 2.4-1.7 3.9-1.8h.2c2 0 3.8 1 4.8 2.7a1 1 0 0 0 1.2.5l.6-.1h.1a3 3 0 0 1 3 2.8c0 .5 0 1-.3 1.4-.2.4-.2 1 .2 1.2 1 1 1.5 2.3 1.6 3.7 0 2-1 3.8-2.7 4.9a1 1 0 0 0-.5.8 3 3 0 0 1-2.9 3h-.1a3 3 0 0 1-1.8-.5 1 1 0 0 0-.6-.2h-.2a1 1 0 0 0-.6.5 3 3 0 0 1-2.5 1.5h-.2z" fill="url(#c)"/><path d="M108 69.8c1.7 0 3.2.8 4 2.2a2 2 0 0 0 2.2 1l.4-.1h.1c1.1 0 2 .8 2 1.8 0 .3 0 .7-.2 1a2 2 0 0 0 .4 2.3 5 5 0 0 1 1.3 3c0 1.6-.8 3.1-2.2 4-.6.4-1 1-1 1.7 0 1.1-.8 2-1.9 2a2 2 0 0 1-1.3-.4 2 2 0 0 0-2.9.7c-.4.6-1 1-1.7 1a2 2 0 0 1-1.8-1 2 2 0 0 0-2.3-1h-.4c-1.1 0-2-.7-2-1.7V86a2 2 0 0 0-1-1.8 4.4 4.4 0 0 1-2.3-3.7c0-1.6.7-3 2-4a2 2 0 0 0 .9-2.2l-.1-.5c0-1 .8-2 2-2h1c.5 0 1-.1 1.4-.5.9-1 2-1.4 3.2-1.5h.3m0-2h-.4c-1.8 0-3.4.9-4.5 2H102a4 4 0 0 0-3.9 4l.2 1a6.4 6.4 0 0 0 .3 11v.5a4 4 0 0 0 4 3.8h.2l.8-.1a4 4 0 0 0 3.5 2h.2a4 4 0 0 0 3.3-2 4 4 0 0 0 2.4.7h.2a4 4 0 0 0 3.8-4 6.4 6.4 0 0 0 1.2-10.1 4 4 0 0 0 .5-2 4 4 0 0 0-4-3.7h-1a6.6 6.6 0 0 0-5.6-3.1z" fill="#B0B0B0"/><linearGradient id="d" x1="68.7" x2="68.7" y1="63.8" y2="123.2" gradientUnits="userSpaceOnUse"><stop stop-color="#fff" offset=".3"/><stop stop-color="#F2F2F2" offset=".6"/><stop stop-color="#D4D4D4" offset="1"/></linearGradient><path d="M65.3 123c-2.2 0-3.4-1.6-3.3-3 0-1.5 1.8-3.2 5.8-3.2h2a1 1 0 0 0 0-2l-5-.5c-8-.8-17-1.6-22.8-5.8A42.3 42.3 0 0 1 25.4 77c0-.9.9-2.5 1.7-3.8l1.3-2.6c1.9-5.2 8-7.6 13.2-7.6 1 0 1.8 0 2.6.2 2 .3 3 1.3 4.4 2.7l.8.8a20.1 20.1 0 0 0 12 5.2c2.7 0 5.2-1 8-2C73.7 68.1 79 66 88 66h.1c13.2 0 23.9 11.5 23.9 25.3 0 6-4.9 31.7-14.6 31.7H65.3z" fill="url(#d)"/><path d="M41.6 64a9 9 0 0 1 2.4.2c1.7.3 2.5 1 3.9 2.4l.8.8A21.2 21.2 0 0 0 61.4 73c2.9 0 5.4-1 8.3-2.2C74 69.2 79.2 67 88.1 67h.1A23.6 23.6 0 0 1 111 91.1c0 2.4-1 10.6-3.6 18-1.6 4.7-5 12.9-10 12.9h-32c-1.6 0-2.5-1.1-2.4-2 0-1 1.6-2.2 4.8-2.2h2a2 2 0 0 0 .2-4l-5.1-.5c-7.8-.8-16.7-1.6-22.3-5.7A41.3 41.3 0 0 1 26.4 77c0-.6 1-2.3 1.5-3.2.6-1 1.2-2 1.5-2.8 1.6-4.8 7.6-7 12.2-7m0-2c-5.7 0-12.2 2.6-14.1 8.2-.6 1.8-3.2 5-3.1 6.8.5 12.3 7 25 17 32.3 7.4 5.3 19.3 5.4 28.4 6.5h-2c-9 0-8.4 7.2-2.5 8.2h32.2c10.8 0 15.6-27 15.6-32.7 0-14-11-26.3-24.9-26.3h-.1c-15.3 0-20.4 5.8-26.7 5.8h-1c-3.6-.4-7.8-2.4-10.3-4.9-1.9-1.7-3-3.3-5.8-3.7l-2.7-.2z" fill="#B0B0B0"/><linearGradient id="e" x1="52.5" x2="41.5" y1="92.4" y2="124.4" gradientUnits="userSpaceOnUse"><stop stop-color="#F8F8F8" offset="0"/><stop stop-color="#EBEBEB" offset=".4"/><stop stop-color="#D4D4D4" offset="1"/></linearGradient><path d="M58.3 96.3a44.6 44.6 0 0 1-7.2 22c-1 1.5-2 3-3.4 4a11.8 11.8 0 0 1-8.8 1.6c-2-.3-4.3-1.3-4.6-3.3-.3-1.5.7-3 1.9-3.8l3.8-2.4c2.2-1.6 3.6-4 4.4-6.7S45 94 45.5 91.2" fill="url(#e)" stroke="#B0B0B0" stroke-linejoin="round" stroke-miterlimit="10" stroke-width="2"/><linearGradient id="f" x1="11.9" x2="29.2" y1="4.3" y2="40.9" gradientTransform="rotate(-2.7 78.8 52.4)" gradientUnits="userSpaceOnUse"><stop stop-color="#fff" offset=".3"/><stop stop-color="#FBFBFB" offset=".4"/><stop stop-color="#F0F0F0" offset=".6"/><stop stop-color="#DEDEDE" offset=".7"/><stop stop-color="#C4C4C4" offset=".8"/><stop stop-color="#A3A3A3" offset=".9"/><stop stop-color="#878787" offset="1"/></linearGradient><path d="M33 50.1c-3.1 0-14-6.7-20.4-17.9-7.3-12.8-8.9-23-4-25.9.4-.3 1-.4 1.6-.4 4.8 0 12.5 7.4 18.3 17.7C35.7 36.4 34.6 49 33.2 50H33z" fill="url(#f)"/><path d="M10.3 7c3.6 0 11 6 17.3 17 6.2 11.1 6.2 22.5 5 25a38 38 0 0 1-19-17.3c-7-12.1-8.7-22-4.5-24.5a2 2 0 0 1 1.1-.3m0-2c-.8 0-1.5.1-2.2.5C2.2 9 4.6 20.1 11.7 32.7 18.2 44.2 29.3 51.2 33 51.2c.3 0 .6 0 .8-.2 2.3-1.7 2.7-15.4-4.4-28-6.1-10.8-14-18.2-19.1-18.2z" fill="#B0B0B0"/><linearGradient id="g" x1="17" x2="25.6" y1="15" y2="33.1" gradientTransform="rotate(-2.7 78.8 52.4)" gradientUnits="userSpaceOnUse"><stop stop-color="#FF87A8" offset=".2"/><stop stop-color="#F87C9F" offset=".3"/><stop stop-color="#D94874" offset="1"/></linearGradient><path d="M24.9 25.8c3.3 6 3.1 12.4 2 13.2-1 .8-7-2.7-10.4-8.6S12 19 14.7 17.4C17 16.2 21.5 20 25 25.9z" fill="url(#g)"/><linearGradient id="h" x1="106.5" x2="123.9" y1="4.3" y2="40.9" gradientTransform="scale(-1 1) rotate(2.7 8.7 -3630.7)" gradientUnits="userSpaceOnUse"><stop stop-color="#fff" offset=".3"/><stop stop-color="#FBFBFB" offset=".4"/><stop stop-color="#eee" offset=".5"/><stop stop-color="#DADADA" offset=".7"/><stop stop-color="#BDBDBD" offset=".8"/><stop stop-color="#989898" offset=".9"/><stop stop-color="#878787" offset="1"/></linearGradient><path d="M47.3 49.5h-.1c-1.5-1-3.8-13.5 2.2-27 5-11 12.2-19.3 16.8-19.3.5 0 1 .1 1.4.3C72.6 6 72 16.2 66 29.7c-5.3 11.9-15.8 19.8-18.7 19.8z" fill="url(#h)"/><path d="M66.2 4.3c.4 0 .7 0 1 .2 4.4 2 3.5 12-2.2 24.8a38.6 38.6 0 0 1-17.4 19C46.3 46 45.1 34.7 50.3 23c5.3-11.7 12.2-18.7 16-18.7m0-2.1c-5.2 0-12.6 8.2-17.9 20-5.9 13.1-4.2 26.8-1.7 28.2l.6.1c3.4 0 14.2-8.1 19.7-20.4 5.9-13.2 7-24.6 1-27.5a4 4 0 0 0-1.8-.4z" fill="#B0B0B0"/><linearGradient id="i" x1="111.7" x2="120.2" y1="15" y2="33.1" gradientTransform="scale(-1 1) rotate(2.7 8.7 -3630.7)" gradientUnits="userSpaceOnUse"><stop stop-color="#FF87A8" offset=".2"/><stop stop-color="#F87C9F" offset=".3"/><stop stop-color="#D94874" offset="1"/></linearGradient><path d="M53.2 24.5c-2.8 6.2-2 12.6-.8 13.3 1.1.7 6.8-3.3 9.6-9.6 2.8-6.2 3.4-11.6.5-13-2.4-1.1-6.5 3-9.3 9.3z" fill="url(#i)"/><linearGradient id="j" x1="40.4" x2="40.4" y1="80.7" y2="32.2" gradientTransform="rotate(-2.7 78.8 52.4)" gradientUnits="userSpaceOnUse"><stop stop-color="#D4D4D4" offset="0"/><stop stop-color="#E3E3E3" offset=".3"/><stop stop-color="#fff" offset=".7"/></linearGradient><path d="M38.8 82.6c-11.4 0-25.2-3.5-26-20a28 28 0 0 1 6-19.5A27.8 27.8 0 0 1 41.5 34C57.3 34 68 44.2 68.8 60c.9 18.4-16.5 22-27 22.5h-2.9z" fill="url(#j)"/><path d="M41.4 35c7.9 0 14.5 2.6 19.1 7.4A26.8 26.8 0 0 1 67.6 60c.4 6.6-1.8 11.9-6.4 15.5a34.3 34.3 0 0 1-19.5 5.8l-2.9.1c-11 0-24.2-3.3-25-18.9-.7-16 9.4-26.7 25.7-27.5h1.9m0-2.2l-2 .1c-19.2 1-28.3 14.4-27.6 29.7.7 14.5 11.2 21 27 21l3-.2c17.1-.8 28.7-8.2 28-23.5C69 45 59.3 33 41.3 33z" fill="#B0B0B0"/><g fill="#404040"><ellipse transform="rotate(-2.7 53.7 53.6)" cx="53.7" cy="53.6" rx="4.1" ry="4.4"/><ellipse transform="rotate(-2.7 27 54.7)" cx="27.1" cy="54.8" rx="4.1" ry="4.4"/></g><path d="M52.1 68.6c-.1 1-.6 2.1-1.4 3a5.6 5.6 0 0 1-7.9.1c-1-.8-1.6-3.6-1.8-4.7 0 1.1-.4 4-1.2 4.8a5.6 5.6 0 0 1-8 .4 5.7 5.7 0 0 1-1.7-2.8" fill="none" stroke="#B0B0B0" stroke-linecap="round" stroke-linejoin="round" stroke-miterlimit="10" stroke-width="2"/><linearGradient id="k" x1="40.4" x2="40.4" y1="60.1" y2="66.5" gradientTransform="rotate(-2.7 78.8 52.4)" gradientUnits="userSpaceOnUse"><stop stop-color="#FF87A8" offset=".2"/><stop stop-color="#FF6492" offset=".7"/><stop stop-color="#FF5589" offset="1"/></linearGradient><path d="M36.7 62c-1.4 0-2.2 1-1.7 2.2 1.1 2.6 3 4.3 6 4.2v-.1l.2-.1c3-.1 4.7-1.8 5.6-4.6.4-1.2-.6-2.1-2-2l-8.1.3z" fill="url(#k)"/><path d="M70.5 114.7c-5.2-4.2-8-11-7.7-17.7.5-6.6 4.3-13 10-16.5" fill="none" stroke="#B0B0B0" stroke-linecap="round" stroke-linejoin="round" stroke-miterlimit="10" stroke-width="2"/></svg>