<svg viewBox="0 0 128 128" xmlns="http://www.w3.org/2000/svg"><linearGradient id="a" x1="-80.864" x2="-80.864" y1="91.562" y2="121" gradientUnits="userSpaceOnUse"><stop stop-color="#F2E5DC" offset=".163"/><stop stop-color="#EDE0D8" offset=".461"/><stop stop-color="#DFD3CB" offset=".805"/><stop stop-color="#D4C8C0" offset="1"/></linearGradient><path d="M-82.37 119.33c-.74-3.99-3.84-20.79-4.85-28.66 1.91 1.66 4.93 3.74 8.12 3.74.69 0 1.37-.1 2.01-.29 0 0 .07-.02.23-.02.88 0 2.07.49 2.34.81-.83 6.62-2.06 20.53-2.37 24.13l-5.48.29z" fill="url(#a)"/><path d="M-85.89 92.98c1.89 1.3 4.27 2.43 6.8 2.43.79 0 1.56-.11 2.3-.34l-.06.02c.38 0 .91.15 1.28.31-.77 6.38-1.83 18.24-2.22 22.68l-3.75.2c-.86-4.61-3.21-17.43-4.35-25.3m-2.62-4.99c.42 6.37 5.31 32.38 5.31 32.38l7.24-.39s1.5-17.47 2.46-25.08c.12-.98-2.07-1.81-3.35-1.81-.2 0-.38.02-.52.06-.57.17-1.15.25-1.72.25-4.81.01-9.42-5.41-9.42-5.41z" fill="#ADA39D"/><path d="M-73.71 123.79c0-3.35-2.66-6.06-5.95-6.06-3.28 0-5.95 2.71-5.95 6.06 0 .07.01.14.01.21h5.09c.52-.8.51-1.66.79-2.43 0 .59.45 1.63 1.01 2.43h4.98c.01-.07.02-.14.02-.21z" fill="#998675" stroke="#736357" stroke-linejoin="round" stroke-miterlimit="10" stroke-width="1.424"/><linearGradient id="b" x1="-70.447" x2="-70.447" y1="91.562" y2="121" gradientUnits="userSpaceOnUse"><stop stop-color="#F2E5DC" offset=".163"/><stop stop-color="#EDE0D8" offset=".461"/><stop stop-color="#DFD3CB" offset=".805"/><stop stop-color="#D4C8C0" offset="1"/></linearGradient><path d="M-71.96 119.33c-.74-3.99-3.84-20.79-4.85-28.66 1.91 1.66 4.93 3.74 8.12 3.74.69 0 1.37-.1 2.01-.29 0 0 .07-.02.23-.02.88 0 2.07.49 2.34.81-.83 6.62-2.06 20.53-2.37 24.13l-5.48.29z" fill="url(#b)"/><path d="M-75.48 92.98c1.89 1.3 4.27 2.43 6.8 2.43.79 0 1.56-.11 2.3-.34l-.06.02c.38 0 .91.15 1.28.31-.77 6.38-1.83 18.24-2.22 22.68l-3.75.2c-.86-4.61-3.2-17.43-4.35-25.3m-2.61-4.99c.42 6.37 5.31 32.38 5.31 32.38l7.24-.39s1.5-17.47 2.46-25.08c.12-.98-2.07-1.81-3.35-1.81-.2 0-.38.02-.52.06-.57.17-1.15.25-1.72.25-4.81.01-9.42-5.41-9.42-5.41z" fill="#ADA39D"/><path d="M-63.29 123.79c0-3.35-2.66-6.06-5.95-6.06-3.28 0-5.95 2.71-5.95 6.06 0 .07.01.14.01.21h5.09c.52-.8.51-1.66.79-2.43 0 .59.45 1.63 1.01 2.43h4.98c.01-.07.02-.14.02-.21z" fill="#998675" stroke="#736357" stroke-linejoin="round" stroke-miterlimit="10" stroke-width="1.424"/><linearGradient id="c" x1="-110.61" x2="-110.61" y1="91.562" y2="121" gradientUnits="userSpaceOnUse"><stop stop-color="#F2E5DC" offset=".163"/><stop stop-color="#EDE0D8" offset=".461"/><stop stop-color="#DFD3CB" offset=".805"/><stop stop-color="#D4C8C0" offset="1"/></linearGradient><path d="M-112.12 119.33c-.74-3.99-3.84-20.79-4.85-28.66 1.91 1.66 4.93 3.74 8.12 3.74.69 0 1.37-.1 2.01-.29 0 0 .07-.02.23-.02.88 0 2.07.49 2.34.81-.83 6.62-2.06 20.53-2.37 24.13l-5.48.29z" fill="url(#c)"/><path d="M-115.64 92.98c1.89 1.3 4.27 2.43 6.8 2.43.79 0 1.56-.11 2.3-.34l-.06.02c.38 0 .91.15 1.28.31-.77 6.38-1.83 18.24-2.22 22.68l-3.75.2c-.86-4.61-3.21-17.43-4.35-25.3m-2.62-4.99c.42 6.37 5.31 32.38 5.31 32.38l7.24-.39s1.5-17.47 2.46-25.08c.12-.98-2.07-1.81-3.35-1.81-.2 0-.38.02-.52.06-.57.17-1.15.25-1.72.25-4.81.01-9.42-5.41-9.42-5.41z" fill="#ADA39D"/><path d="M-103.46 123.79c0-3.35-2.66-6.06-5.95-6.06-3.28 0-5.95 2.71-5.95 6.06 0 .07.01.14.01.21h5.09c.52-.8.51-1.66.79-2.43 0 .59.45 1.63 1.01 2.43h4.98c.01-.07.02-.14.02-.21z" fill="#998675" stroke="#736357" stroke-linejoin="round" stroke-miterlimit="10" stroke-width="1.424"/><linearGradient id="d" x1="-120.38" x2="-120.38" y1="91.562" y2="121" gradientUnits="userSpaceOnUse"><stop stop-color="#F2E5DC" offset=".163"/><stop stop-color="#EDE0D8" offset=".461"/><stop stop-color="#DFD3CB" offset=".805"/><stop stop-color="#D4C8C0" offset="1"/></linearGradient><path d="M-121.89 119.33c-.74-3.99-3.84-20.79-4.85-28.66 1.91 1.66 4.93 3.74 8.12 3.74.69 0 1.37-.1 2.01-.29 0 0 .07-.02.23-.02.88 0 2.07.49 2.34.81-.83 6.62-2.06 20.53-2.37 24.13l-5.48.29z" fill="url(#d)"/><path d="M-125.41 92.98c1.89 1.3 4.27 2.43 6.8 2.43.79 0 1.56-.11 2.3-.34l-.06.02c.38 0 .91.15 1.28.31-.77 6.38-1.83 18.24-2.22 22.68l-3.75.2c-.86-4.61-3.2-17.43-4.35-25.3m-2.61-4.99c.42 6.37 5.31 32.38 5.31 32.38l7.24-.39s1.5-17.47 2.46-25.08c.12-.98-2.07-1.81-3.35-1.81-.2 0-.38.02-.52.06-.57.17-1.15.25-1.72.25-4.81.01-9.42-5.41-9.42-5.41z" fill="#ADA39D"/><path d="M-113.22 123.79c0-3.35-2.66-6.06-5.95-6.06-3.28 0-5.95 2.71-5.95 6.06 0 .07.01.14.01.21h5.09c.52-.8.51-1.66.79-2.43 0 .59.45 1.63 1.01 2.43h4.98c.01-.07.02-.14.02-.21z" fill="#998675" stroke="#736357" stroke-linejoin="round" stroke-miterlimit="10" stroke-width="1.424"/><linearGradient id="e" x1="-101.21" x2="-101.21" y1="37.816" y2="114.95" gradientTransform="matrix(1 .00495 -.00495 1 3.002 -6.547)" gradientUnits="userSpaceOnUse"><stop stop-color="#F2E5DC" offset=".163"/><stop stop-color="#EDE1D8" offset=".398"/><stop stop-color="#DFD3CB" offset=".668"/><stop stop-color="#C8BEB6" offset=".956"/><stop stop-color="#C4BAB2" offset="1"/></linearGradient><path d="M-43.83 67.17c.22-8.86-5.74-17.17-15.99-16.79-.89-8.23-8.51-13.21-15.68-12.21-3.67-5.83-8.26-7.07-14.41-7.1-3.54-.02-6.91.62-9.93 1.78-3.73-2.08-8.19-3.3-12.99-3.32-9.68-.05-18.03 4.77-21.78 11.73-10.28.12-18.61 8.81-18.66 19.56-.02 4.91 3.27 8.56 6.11 12.02-.42 1.62-2.17 3.33-2.17 7.33 0 10.86 8.26 18.29 18.68 18.34 1.06.01 2.09-.1 3.1-.27 4.07 6.29 11.98 10.58 21.1 10.63 4.89.02 9.14-3.61 12.95-5.69 2.16.55 5.5 2.83 9.33 2.83 7.32 0 11.69-2.23 16.13-6.54 10.2-.12 16.47-5.14 15.2-17.79-.01-.15 8.75-4.26 9.01-14.51z" fill="url(#e)" stroke="#ADA39D" stroke-linecap="round" stroke-linejoin="round" stroke-miterlimit="10" stroke-width="2"/><path d="M-148.78 45.4c-4.29 0-8.02-2.09-10.24-5.72-3.06-5.02-2.96-12 .26-17.8 3.81-6.85 11.26-10.82 20.46-10.89h.23c12.36 0 18.62 8.15 20.16 10.48-.16.1-.34.21-.48.29-.61.35-1.13.66-1.41 1.11-4.2 6.77-7.64 11.74-8.95 12.95-.38-.37-1-1.35-1.52-2.16-2.06-3.22-5.51-8.62-11.7-8.62-1.12 0-2.29.18-3.49.53-5.67 1.67-7.73 6.06-7.24 9.43.43 2.97 2.68 4.97 5.6 4.97 2.63 0 4.76-1.12 5.67-2.99.25-.5.71-.54.85-.54.17 0 .59.05.76.52.63 1.67.44 3.31-.54 4.72-1.56 2.26-4.87 3.72-8.42 3.72z" fill="#C98B4D"/><path d="M-138.09 11.99c10.65 0 16.56 6.28 18.72 9.17-.51.31-.99.67-1.31 1.18-3.86 6.23-6.62 10.2-8.03 11.92-.25-.37-.52-.79-.74-1.14-2.17-3.4-5.81-9.08-12.54-9.08-1.22 0-2.49.19-3.77.57-6.24 1.84-8.49 6.75-7.95 10.53.5 3.49 3.15 5.83 6.59 5.83 2.93 0 5.32-1.24 6.46-3.34.38 1.25.21 2.43-.53 3.49-1.36 1.96-4.41 3.28-7.6 3.28-3.93 0-7.35-1.91-9.39-5.25-2.88-4.72-2.77-11.31.28-16.79 2.13-3.83 7.51-10.28 19.59-10.38l.22.01m0-2h-.24c-21.22.17-28.09 19.52-21.56 30.21 2.7 4.41 7.03 6.2 11.1 6.2 6.3 0 11.97-4.3 9.9-9.79-.3-.78-.99-1.17-1.7-1.17-.69 0-1.39.37-1.75 1.1-.73 1.48-2.44 2.43-4.78 2.43-6.05 0-7.04-9.79 1.92-12.44 1.15-.34 2.22-.49 3.21-.49 8.38 0 11.27 10.88 13.24 10.88.11 0 .22-.04.33-.11 1.85-1.31 7.61-10.47 9.44-13.42.36-.59 2.58-1.32 2.23-1.92-1.64-2.79-8.4-11.48-21.34-11.48z" fill="#8C6239"/><path d="M-149.71 18.59c-.55 2.93.93 5.41 2.93 7.51M-144.04 17.31c-.59 3.05-.24 5.37 2.01 7.51M-157.71 28.68c1.12 1.63 3.41 2.34 5.25 1.62M-137.61 25.36c-.76-2.09-.11-4.63 1.57-6.09M-158.32 34.34c1.32.7 3.96.76 5.19-.1M-155.03 22.62a7.48 7.48 0 0 0 3.67 4.94M-156.3 40.59c1.66.01 3.28-1.03 3.95-2.54M-149.05 39.86c.69 1.63.4 3.64-.73 5.01M-144.88 39.79c.55 1.1 1.1 2.2 1.64 3.3" fill="none" stroke="#8C6239" stroke-linecap="round" stroke-linejoin="round" stroke-miterlimit="10" stroke-width="2"/><path d="M-75.26 45.4c-3.56 0-6.86-1.46-8.42-3.71-.98-1.42-1.17-3.05-.54-4.73.18-.47.59-.52.77-.52.14 0 .61.04.85.54.92 1.87 3.04 2.99 5.67 2.99 2.92 0 5.17-2 5.6-4.97.49-3.37-1.57-7.75-7.24-9.42-1.2-.35-2.37-.53-3.49-.53-6.19 0-9.64 5.4-11.7 8.62-.52.81-1.14 1.78-1.52 2.16-1.32-1.21-4.75-6.17-8.95-12.95-.28-.45-.8-.76-1.41-1.11-.14-.08-.32-.19-.48-.29 1.54-2.33 7.8-10.48 20.16-10.48h.23c9.2.07 16.65 4.04 20.46 10.89 3.22 5.79 3.32 12.78.25 17.8-2.22 3.62-5.95 5.71-10.24 5.71z" fill="#C98B4D"/><path d="M-85.95 9.99v2h.22c12.08.1 17.46 6.54 19.59 10.38 3.05 5.48 3.16 12.07.28 16.79-2.04 3.33-5.46 5.25-9.39 5.25-3.19 0-6.24-1.32-7.6-3.28-.74-1.07-.92-2.24-.53-3.49 1.14 2.1 3.53 3.34 6.46 3.34 3.44 0 6.09-2.34 6.59-5.83.55-3.78-1.71-8.68-7.94-10.53-1.29-.38-2.56-.57-3.78-.57-6.73 0-10.37 5.68-12.54 9.08-.23.36-.5.78-.74 1.14-1.41-1.72-4.17-5.69-8.03-11.92-.32-.51-.8-.87-1.31-1.18 2.16-2.89 8.07-9.17 18.72-9.17V9.99M-85.96 9.99c-12.93 0-19.69 8.7-21.34 11.48-.35.6 1.86 1.33 2.23 1.92 1.83 2.95 7.59 12.11 9.44 13.42.11.08.22.11.33.11 1.97 0 4.87-10.88 13.24-10.88.99 0 2.06.15 3.21.49 8.96 2.65 7.97 12.44 1.92 12.44-2.34 0-4.05-.95-4.78-2.43a1.94 1.94 0 0 0-1.75-1.1c-.71 0-1.41.39-1.7 1.17-2.07 5.49 3.59 9.79 9.9 9.79 4.07 0 8.4-1.79 11.1-6.2 6.53-10.69-.34-30.04-21.56-30.21h-.24z" fill="#8C6239"/><path d="M-74.33 18.59c.55 2.93-.93 5.41-2.93 7.51M-80 17.31c.59 3.05.24 5.37-2.01 7.51M-66.33 28.68c-1.12 1.63-3.41 2.34-5.25 1.62M-86.43 25.36c.76-2.09.11-4.63-1.57-6.09M-65.72 34.34c-1.32.7-3.96.76-5.19-.1M-69.02 22.62a7.48 7.48 0 0 1-3.67 4.94M-67.74 40.59c-1.66.01-3.28-1.03-3.95-2.54M-74.99 39.86c-.69 1.63-.4 3.64.73 5.01M-79.16 39.79c-.55 1.1-1.1 2.2-1.64 3.3" fill="none" stroke="#8C6239" stroke-linecap="round" stroke-linejoin="round" stroke-miterlimit="10" stroke-width="2"/><linearGradient id="f" x1="-112.6" x2="-112.6" y1="18.272" y2="76.027" gradientUnits="userSpaceOnUse"><stop stop-color="#F2E5DC" offset=".163"/><stop stop-color="#EDE0D8" offset=".461"/><stop stop-color="#DFD3CB" offset=".805"/><stop stop-color="#D4C8C0" offset="1"/></linearGradient><path d="M-112.6 76.03c-13.32 0-24.74-18.94-24.74-34.44 0-13.73 10.17-23.32 24.74-23.32s24.74 9.59 24.74 23.32c0 6.78-2.72 15.49-6.93 22.21-2.88 4.57-9 12.23-17.81 12.23z" fill="url(#f)"/><path d="M-112.6 19.27c6.61 0 12.6 2.11 16.86 5.93 4.5 4.03 6.87 9.7 6.87 16.39 0 13.15-10.19 33.44-23.74 33.44-3.43 0-10.14-1.44-16.58-11.05-4.41-6.59-7.15-15.17-7.15-22.39 0-6.69 2.38-12.36 6.87-16.39 4.27-3.82 10.26-5.93 16.87-5.93m0-2c-14.21 0-25.74 9.07-25.74 24.32 0 15.42 11.4 35.44 25.74 35.44 15.42 0 25.74-22.05 25.74-35.44-.01-15.25-11.53-24.32-25.74-24.32z" fill="#ADA39D"/><path d="M-101.86 54.72c-1.74-2.1-3.94-3.93-5.82-5.8l-4.75-4.75c-2.98 2.98-5.97 5.95-8.94 8.96-2.65 2.69-4.74 5.54-4.74 9.49 0 6.8 6.12 12.31 13.68 12.31s13.68-5.51 13.68-12.31c0-2-.55-3.97-1.55-5.7-.45-.77-.98-1.5-1.56-2.2z" fill="#fff"/><g fill="#404040"><ellipse cx="-127.16" cy="44.32" rx="4.84" ry="5.47"/><ellipse cx="-97.95" cy="44.32" rx="4.84" ry="5.47"/></g><g fill="none" stroke="#595959" stroke-linecap="round" stroke-linejoin="round" stroke-miterlimit="10" stroke-width="1.4"><path d="M-112.72 61.86c0 4.51-1.55 6.12-3.45 6.12s-3.45-1.57-3.45-3.51M-105.59 64.47c0 1.94-1.55 3.51-3.45 3.51s-3.41-2.06-3.41-6.17"/></g><ellipse cx="-112.64" cy="58.26" rx="5.93" ry="3.18" fill="#EEC7B3"/><linearGradient id="g" x1="86.136" x2="86.136" y1="91.562" y2="121" gradientUnits="userSpaceOnUse"><stop stop-color="#F2E5DC" offset=".163"/><stop stop-color="#EDE0D8" offset=".461"/><stop stop-color="#DFD3CB" offset=".805"/><stop stop-color="#D4C8C0" offset="1"/></linearGradient><path d="M84.63 119.33c-.74-3.99-3.84-20.79-4.85-28.66 1.91 1.66 4.93 3.74 8.12 3.74.69 0 1.37-.1 2.01-.29 0 0 .07-.02.23-.02.88 0 2.07.49 2.34.81-.83 6.62-2.06 20.53-2.37 24.13l-5.48.29z" fill="url(#g)"/><path d="M81.11 92.98c1.89 1.3 4.27 2.43 6.8 2.43.79 0 1.56-.11 2.3-.34l-.06.02c.38 0 .91.15 1.28.31-.77 6.38-1.83 18.24-2.22 22.68l-3.75.2c-.86-4.61-3.21-17.43-4.35-25.3m-2.62-4.99c.42 6.37 5.31 32.38 5.31 32.38l7.24-.39s1.5-17.47 2.46-25.08c.12-.98-2.07-1.81-3.35-1.81-.2 0-.38.02-.52.06-.57.17-1.15.25-1.72.25-4.81.01-9.42-5.41-9.42-5.41z" fill="#ADA39D"/><path d="M93.29 123.79c0-3.35-2.66-6.06-5.95-6.06-3.28 0-5.95 2.71-5.95 6.06 0 .07.01.14.01.21h5.09c.52-.8.51-1.66.79-2.43 0 .59.45 1.63 1.01 2.43h4.98c.01-.07.02-.14.02-.21z" fill="#998675" stroke="#736357" stroke-linejoin="round" stroke-miterlimit="10" stroke-width="1.424"/><linearGradient id="h" x1="96.553" x2="96.553" y1="91.562" y2="121" gradientUnits="userSpaceOnUse"><stop stop-color="#F2E5DC" offset=".163"/><stop stop-color="#EDE0D8" offset=".461"/><stop stop-color="#DFD3CB" offset=".805"/><stop stop-color="#D4C8C0" offset="1"/></linearGradient><path d="M95.04 119.33c-.74-3.99-3.84-20.79-4.85-28.66 1.91 1.66 4.93 3.74 8.12 3.74.69 0 1.37-.1 2.01-.29 0 0 .07-.02.23-.02.88 0 2.07.49 2.34.81-.83 6.62-2.06 20.53-2.37 24.13l-5.48.29z" fill="url(#h)"/><path d="M91.52 92.98c1.89 1.3 4.27 2.43 6.8 2.43.79 0 1.56-.11 2.3-.34l-.06.02c.38 0 .91.15 1.28.31-.77 6.38-1.83 18.24-2.22 22.68l-3.75.2c-.86-4.61-3.2-17.43-4.35-25.3m-2.61-4.99c.42 6.37 5.31 32.38 5.31 32.38l7.24-.39s1.5-17.47 2.46-25.08c.12-.98-2.07-1.81-3.35-1.81-.2 0-.38.02-.52.06-.57.17-1.15.25-1.72.25-4.81.01-9.42-5.41-9.42-5.41z" fill="#ADA39D"/><path d="M103.71 123.79c0-3.35-2.66-6.06-5.95-6.06-3.28 0-5.95 2.71-5.95 6.06 0 .07.01.14.01.21h5.09c.52-.8.51-1.66.79-2.43 0 .59.45 1.63 1.01 2.43h4.98c.01-.07.02-.14.02-.21z" fill="#998675" stroke="#736357" stroke-linejoin="round" stroke-miterlimit="10" stroke-width="1.424"/><linearGradient id="i" x1="56.386" x2="56.386" y1="91.562" y2="121" gradientUnits="userSpaceOnUse"><stop stop-color="#F2E5DC" offset=".163"/><stop stop-color="#EDE0D8" offset=".461"/><stop stop-color="#DFD3CB" offset=".805"/><stop stop-color="#D4C8C0" offset="1"/></linearGradient><path d="M54.88 119.33c-.74-3.99-3.84-20.79-4.85-28.66 1.91 1.66 4.93 3.74 8.12 3.74.69 0 1.37-.1 2.01-.29 0 0 .07-.02.23-.02.88 0 2.07.49 2.34.81-.83 6.62-2.06 20.53-2.37 24.13l-5.48.29z" fill="url(#i)"/><path d="M51.36 92.98c1.89 1.3 4.27 2.43 6.8 2.43.79 0 1.56-.11 2.3-.34l-.06.02c.38 0 .91.15 1.28.31-.77 6.38-1.83 18.24-2.22 22.68l-3.75.2c-.86-4.61-3.21-17.43-4.35-25.3m-2.62-4.99c.42 6.37 5.31 32.38 5.31 32.38l7.24-.39s1.5-17.47 2.46-25.08c.12-.98-2.07-1.81-3.35-1.81-.2 0-.38.02-.52.06-.57.17-1.15.25-1.72.25-4.81.01-9.42-5.41-9.42-5.41z" fill="#ADA39D"/><path d="M63.54 123.79c0-3.35-2.66-6.06-5.95-6.06-3.28 0-5.95 2.71-5.95 6.06 0 .07.01.14.01.21h5.09c.52-.8.51-1.66.79-2.43 0 .59.45 1.63 1.01 2.43h4.98c.01-.07.02-.14.02-.21z" fill="#998675" stroke="#736357" stroke-linejoin="round" stroke-miterlimit="10" stroke-width="1.424"/><linearGradient id="j" x1="46.623" x2="46.623" y1="91.562" y2="121" gradientUnits="userSpaceOnUse"><stop stop-color="#F2E5DC" offset=".163"/><stop stop-color="#EDE0D8" offset=".461"/><stop stop-color="#DFD3CB" offset=".805"/><stop stop-color="#D4C8C0" offset="1"/></linearGradient><path d="M45.11 119.33c-.74-3.99-3.84-20.79-4.85-28.66 1.91 1.66 4.93 3.74 8.12 3.74.69 0 1.37-.1 2.01-.29 0 0 .07-.02.23-.02.88 0 2.07.49 2.34.81-.83 6.62-2.06 20.53-2.37 24.13l-5.48.29z" fill="url(#j)"/><path d="M41.59 92.98c1.89 1.3 4.27 2.43 6.8 2.43.79 0 1.56-.11 2.3-.34l-.06.02c.38 0 .91.15 1.28.31-.77 6.38-1.83 18.24-2.22 22.68l-3.75.2c-.86-4.61-3.2-17.43-4.35-25.3m-2.61-4.99c.42 6.37 5.31 32.38 5.31 32.38l7.24-.39s1.5-17.47 2.46-25.08c.12-.98-2.07-1.81-3.35-1.81-.2 0-.38.02-.52.06-.57.17-1.15.25-1.72.25-4.81.01-9.42-5.41-9.42-5.41z" fill="#ADA39D"/><path d="M53.78 123.79c0-3.35-2.66-6.06-5.95-6.06-3.28 0-5.95 2.71-5.95 6.06 0 .07.01.14.01.21h5.09c.52-.8.51-1.66.79-2.43 0 .59.45 1.63 1.01 2.43h4.98c.01-.07.02-.14.02-.21z" fill="#998675" stroke="#736357" stroke-linejoin="round" stroke-miterlimit="10" stroke-width="1.424"/><linearGradient id="k" x1="65.791" x2="65.791" y1="36.99" y2="114.12" gradientTransform="matrix(1 .00495 -.00495 1 3.002 -6.547)" gradientUnits="userSpaceOnUse"><stop stop-color="#F2E5DC" offset=".163"/><stop stop-color="#EDE1D8" offset=".398"/><stop stop-color="#DFD3CB" offset=".668"/><stop stop-color="#C8BEB6" offset=".956"/><stop stop-color="#C4BAB2" offset="1"/></linearGradient><path d="M123.17 67.17c.22-8.86-5.74-17.17-15.99-16.79-.89-8.23-8.51-13.21-15.68-12.21-3.67-5.83-8.26-7.07-14.41-7.1-3.54-.02-6.91.62-9.93 1.78-3.73-2.08-8.19-3.3-12.99-3.32-9.68-.05-18.03 4.77-21.78 11.73-10.28.12-18.61 8.81-18.66 19.56-.02 4.91 3.27 8.56 6.11 12.02-.42 1.62-2.17 3.33-2.17 7.33 0 10.86 8.26 18.29 18.68 18.34 1.06.01 2.09-.1 3.1-.27 4.07 6.29 11.98 10.58 21.1 10.63 4.89.02 9.14-3.61 12.95-5.69 2.16.55 5.5 2.83 9.33 2.83 7.32 0 11.69-2.23 16.13-6.54 10.2-.12 16.47-5.14 15.2-17.79-.01-.15 8.75-4.26 9.01-14.51z" fill="url(#k)" stroke="#ADA39D" stroke-linecap="round" stroke-linejoin="round" stroke-miterlimit="10" stroke-width="2"/><path d="M18.22 45.4c-4.29 0-8.02-2.09-10.24-5.72-3.06-5.02-2.96-12 .26-17.8 3.81-6.85 11.26-10.82 20.46-10.89h.23c12.36 0 18.62 8.15 20.16 10.48-.16.1-.34.21-.48.29-.61.35-1.13.66-1.41 1.11-4.2 6.77-7.64 11.74-8.95 12.95-.38-.37-1-1.35-1.52-2.16-2.06-3.22-5.51-8.62-11.7-8.62-1.12 0-2.29.18-3.49.53-5.67 1.67-7.73 6.06-7.24 9.43.43 2.97 2.68 4.97 5.6 4.97 2.63 0 4.76-1.12 5.67-2.99.25-.5.71-.54.85-.54.17 0 .59.05.76.52.63 1.67.44 3.31-.54 4.72-1.56 2.26-4.87 3.72-8.42 3.72z" fill="#C98B4D"/><path d="M28.91 11.99c10.65 0 16.56 6.28 18.72 9.17-.51.31-.99.67-1.31 1.18-3.86 6.23-6.62 10.2-8.03 11.92-.25-.37-.52-.79-.74-1.14-2.17-3.4-5.81-9.08-12.54-9.08-1.22 0-2.49.19-3.77.57-6.24 1.84-8.49 6.75-7.95 10.53.5 3.49 3.15 5.83 6.59 5.83 2.93 0 5.32-1.24 6.46-3.34.38 1.25.21 2.43-.53 3.49-1.36 1.96-4.41 3.28-7.6 3.28-3.93 0-7.35-1.91-9.39-5.25-2.87-4.71-2.77-11.3.28-16.78 2.13-3.83 7.51-10.28 19.59-10.38h.22m0-2h-.24C7.46 10.16.59 29.51 7.12 40.2c2.7 4.41 7.03 6.2 11.1 6.2 6.3 0 11.97-4.3 9.9-9.79-.3-.78-.99-1.17-1.7-1.17-.69 0-1.39.37-1.75 1.1-.73 1.48-2.44 2.43-4.78 2.43-6.05 0-7.04-9.79 1.92-12.44 1.15-.34 2.22-.49 3.21-.49 8.38 0 11.27 10.88 13.24 10.88.11 0 .22-.04.33-.11 1.85-1.31 7.61-10.47 9.44-13.42.36-.59 2.58-1.32 2.23-1.92-1.65-2.79-8.41-11.48-21.35-11.48z" fill="#8C6239"/><path d="M17.29 18.59c-.55 2.93.93 5.41 2.93 7.51M22.96 17.31c-.59 3.05-.24 5.37 2.01 7.51M9.29 28.68c1.12 1.63 3.41 2.34 5.25 1.62M29.39 25.36c-.76-2.09-.11-4.63 1.57-6.09M8.68 34.34c1.32.7 3.96.76 5.19-.1M11.97 22.62a7.48 7.48 0 0 0 3.67 4.94M10.7 40.59c1.66.01 3.28-1.03 3.95-2.54M17.95 39.86c.69 1.63.4 3.64-.73 5.01M22.12 39.79c.55 1.1 1.1 2.2 1.64 3.3" fill="none" stroke="#8C6239" stroke-linecap="round" stroke-linejoin="round" stroke-miterlimit="10" stroke-width="2"/><path d="M91.74 45.4c-3.56 0-6.86-1.46-8.42-3.71-.98-1.42-1.17-3.05-.54-4.73.18-.47.59-.52.77-.52.14 0 .61.04.85.54.92 1.87 3.04 2.99 5.67 2.99 2.92 0 5.17-2 5.6-4.97.49-3.37-1.57-7.75-7.24-9.42-1.2-.35-2.37-.53-3.49-.53-6.19 0-9.64 5.4-11.7 8.62-.52.81-1.14 1.78-1.52 2.16-1.32-1.21-4.75-6.17-8.95-12.95-.28-.45-.8-.76-1.41-1.11-.14-.08-.32-.19-.48-.29C62.42 19.15 68.68 11 81.04 11h.23c9.2.07 16.65 4.04 20.46 10.89 3.22 5.79 3.32 12.78.25 17.8-2.22 3.62-5.95 5.71-10.24 5.71z" fill="#C98B4D"/><path d="M81.05 9.99v2h.22c12.08.1 17.46 6.54 19.59 10.38 3.05 5.48 3.16 12.07.28 16.79-2.04 3.33-5.46 5.25-9.39 5.25-3.19 0-6.24-1.32-7.6-3.28-.74-1.07-.92-2.24-.53-3.49 1.14 2.1 3.53 3.34 6.46 3.34 3.44 0 6.09-2.34 6.59-5.83.55-3.78-1.71-8.68-7.94-10.53-1.29-.38-2.56-.57-3.78-.57-6.73 0-10.37 5.68-12.54 9.08-.23.36-.5.78-.74 1.14-1.41-1.72-4.17-5.69-8.03-11.92-.32-.51-.8-.87-1.31-1.18C64.49 18.28 70.4 12 81.05 12V9.99M81.04 9.99c-12.93 0-19.69 8.7-21.34 11.48-.35.6 1.86 1.33 2.23 1.92 1.83 2.95 7.59 12.11 9.44 13.42.11.08.22.11.33.11 1.97 0 4.87-10.88 13.24-10.88.99 0 2.06.15 3.21.49 8.96 2.65 7.97 12.44 1.92 12.44-2.34 0-4.05-.95-4.78-2.43a1.94 1.94 0 0 0-1.75-1.1c-.71 0-1.41.39-1.7 1.17-2.07 5.49 3.59 9.79 9.9 9.79 4.07 0 8.4-1.79 11.1-6.2 6.53-10.69-.34-30.04-21.56-30.21h-.24z" fill="#8C6239"/><path d="M92.67 18.59c.55 2.93-.93 5.41-2.93 7.51M87 17.31c.59 3.05.24 5.37-2.01 7.51M100.67 28.68c-1.12 1.63-3.41 2.34-5.25 1.62M80.57 25.36c.76-2.09.11-4.63-1.57-6.09M101.28 34.34c-1.32.7-3.96.76-5.19-.1M97.98 22.62a7.48 7.48 0 0 1-3.67 4.94M99.26 40.59c-1.66.01-3.28-1.03-3.95-2.54M92.01 39.86c-.69 1.63-.4 3.64.73 5.01M87.84 39.79c-.55 1.1-1.1 2.2-1.64 3.3" fill="none" stroke="#8C6239" stroke-linecap="round" stroke-linejoin="round" stroke-miterlimit="10" stroke-width="2"/><linearGradient id="l" x1="54.396" x2="54.396" y1="18.272" y2="76.027" gradientUnits="userSpaceOnUse"><stop stop-color="#F2E5DC" offset=".163"/><stop stop-color="#EDE0D8" offset=".461"/><stop stop-color="#DFD3CB" offset=".805"/><stop stop-color="#D4C8C0" offset="1"/></linearGradient><path d="M54.4 76.03c-13.32 0-24.74-18.94-24.74-34.44 0-13.73 10.17-23.32 24.74-23.32 14.56 0 24.74 9.59 24.74 23.32 0 6.78-2.72 15.49-6.93 22.21-2.88 4.57-9 12.23-17.81 12.23z" fill="url(#l)"/><path d="M54.4 19.27c6.61 0 12.6 2.11 16.86 5.93 4.5 4.03 6.87 9.7 6.87 16.39 0 13.15-10.19 33.44-23.74 33.44-3.43 0-10.14-1.44-16.58-11.05-4.41-6.59-7.15-15.17-7.15-22.39 0-6.69 2.38-12.36 6.87-16.39 4.27-3.82 10.26-5.93 16.87-5.93m0-2c-14.21 0-25.74 9.07-25.74 24.32 0 15.42 11.4 35.44 25.74 35.44 15.42 0 25.74-22.05 25.74-35.44-.01-15.25-11.53-24.32-25.74-24.32z" fill="#ADA39D"/><path d="M65.14 54.72c-1.74-2.1-3.94-3.93-5.82-5.8l-4.75-4.75c-2.98 2.98-5.97 5.95-8.94 8.96-2.65 2.69-4.74 5.54-4.74 9.49 0 6.8 6.12 12.31 13.68 12.31s13.68-5.51 13.68-12.31c0-2-.55-3.97-1.55-5.7-.45-.77-.98-1.5-1.56-2.2z" fill="#fff"/><g fill="none" stroke="#595959" stroke-linecap="round" stroke-linejoin="round" stroke-miterlimit="10" stroke-width="1.4"><path d="M54.28 61.86c0 4.51-1.55 6.12-3.45 6.12s-3.45-1.57-3.45-3.51M61.41 64.47c0 1.94-1.55 3.51-3.45 3.51-1.91 0-3.41-2.06-3.41-6.17"/></g><ellipse cx="54.36" cy="58.26" rx="5.93" ry="3.18" fill="#EEC7B3"/><g fill="#404040"><path d="M63.9 42.43s.03.03.09.1c.05.05.15.19.22.24.08.08.18.17.3.28s.27.22.42.34c.16.11.33.23.52.33.18.11.39.19.6.28.21.08.43.13.65.18.22.04.45.06.68.06h-.06.26c.11 0 .13-.01.17-.01.07 0 .19-.03.3-.04.22-.05.44-.1.65-.18.2-.09.41-.17.6-.28s.36-.22.52-.33c.31-.24.57-.47.74-.64s.27-.28.27-.28l.11-.12c.52-.57 1.41-.61 1.98-.08.45.41.56 1.05.34 1.58l-.06.15c-.04.09-.1.24-.19.41-.18.35-.47.83-.94 1.34a6.503 6.503 0 0 1-1.92 1.44c-.41.19-.85.36-1.32.47-.24.05-.46.1-.75.12-.13.02-.29.03-.36.03l-.33.01c-.49-.01-.98-.07-1.45-.17a6.87 6.87 0 0 1-1.32-.47 6.503 6.503 0 0 1-1.92-1.44 8 8 0 0 1-.58-.73c-.07-.12-.14-.22-.21-.32l-.17-.31c-.12-.2-.13-.28-.17-.37-.03-.08-.05-.12-.05-.12-.29-.73.06-1.55.79-1.84.57-.24 1.2-.07 1.59.37zM37.91 42.43s.03.03.09.1c.05.05.15.19.22.24.08.08.18.17.3.28s.27.22.42.34c.16.11.33.23.52.33.18.11.39.19.6.28.21.08.43.13.65.18.22.04.45.06.68.06h-.06.26c.11 0 .13-.01.17-.01.07 0 .19-.03.3-.04.22-.05.44-.1.65-.18.2-.09.41-.17.6-.28s.36-.22.52-.33c.31-.24.57-.47.74-.64s.27-.28.27-.28l.11-.12c.52-.57 1.41-.61 1.98-.08.45.41.56 1.05.34 1.58l-.06.15c-.04.09-.1.24-.19.41-.18.35-.47.83-.94 1.34a6.503 6.503 0 0 1-1.92 1.44c-.41.19-.85.36-1.32.47-.24.05-.46.1-.75.12-.13.02-.29.03-.36.03l-.33.01c-.49-.01-.98-.07-1.45-.17a6.87 6.87 0 0 1-1.32-.47 6.503 6.503 0 0 1-1.92-1.44 8 8 0 0 1-.58-.73c-.07-.12-.14-.22-.21-.32l-.17-.31c-.12-.2-.13-.28-.17-.37-.03-.08-.05-.12-.05-.12-.29-.73.06-1.55.79-1.84.56-.24 1.2-.07 1.59.37z"/></g></svg>