<svg viewBox="0 0 128 128" xmlns="http://www.w3.org/2000/svg" xmlns:xlink="http://www.w3.org/1999/xlink"><linearGradient id="a" x1="101.31" x2="101.31" y1="27.39" y2="71.061" gradientUnits="userSpaceOnUse"><stop stop-color="#FFC559" offset="0"/><stop stop-color="#D47500" offset=".999"/></linearGradient><path d="M98.71 70.51c-.52 0-1.04 0-1.56-.01a.996.996 0 0 1-.97-.83c-.08-.47.18-.94.63-1.11.2-.08.43-.16.7-.26 4.06-1.48 13.55-4.96 10.94-15.99-.68-2.85-2.16-4.18-5.29-4.75-.41-.07-.8-.11-1.16-.11-2.22 0-4.03 1.34-6.26 4.61-1.12 1.64-3.19 2.59-5.69 2.59-3.81 0-8.08-2.22-8.87-6.47-1.08-5.83.79-9.28 3.31-11.79-.15.02-.29.04-.41.06-.05.01-.11.01-.16.01-.36 0-.69-.19-.87-.51a.998.998 0 0 1 .11-1.14c1.41-1.66 3.65-2.91 5.9-3.69-.39-.13-.75-.25-1.02-.33-.4-.12-.68-.48-.71-.89s.21-.81.59-.98c1.22-.55 2.67-.83 4.31-.83 1.42 0 2.92.22 4.35.61l-.41-.63a.98.98 0 0 1 .01-1.1.999.999 0 0 1 1.02-.42c5.14 1 11.51 2.55 15.12 5.7 3.54 2.87 14.57 13.5 6.61 28.96-4.21 8.17-12.21 9.3-20.22 9.3z" fill="url(#a)"/><path d="M97.01 27.53c4.57.89 11.13 2.4 14.65 5.47 6.65 5.38 12.75 15.38 6.38 27.75-3.97 7.71-11.69 8.76-19.33 8.76-.52 0-1.03 0-1.55-.01 3.2-1.23 15.25-4.74 12.25-17.42-.79-3.34-2.71-4.89-6.08-5.5-.46-.08-.91-.13-1.34-.13-2.6 0-4.7 1.54-7.08 5.05-.99 1.45-2.85 2.15-4.86 2.15-3.4 0-7.2-1.99-7.88-5.65-1.27-6.86 1.79-10.16 5.42-12.94-.86.14-2.79.26-3.65.4 1.93-2.27 5.77-3.78 8.72-4.2-1.06-.32-3.26-1.11-4.32-1.43 1.15-.52 2.51-.74 3.9-.74 2.43 0 5 .67 6.87 1.64-.7-1.07-1.4-2.13-2.1-3.2m0-2a1.997 1.997 0 0 0-1.99 1.8c-.94-.16-1.88-.24-2.79-.24-1.78 0-3.36.31-4.72.91-.76.34-1.23 1.12-1.18 1.95.02.39.16.75.38 1.05-1.67.8-3.22 1.86-4.31 3.15a2.01 2.01 0 0 0 .23 2.82c-2.15 2.67-3.4 6.17-2.44 11.38.89 4.78 5.63 7.29 9.85 7.29 2.83 0 5.21-1.1 6.51-3.02 2.49-3.67 4.08-4.17 5.43-4.17.31 0 .64.03.99.09 2.73.49 3.91 1.54 4.49 3.99 2.12 8.97-4.02 12.53-10.31 14.82-.27.1-.51.19-.71.26-.89.34-1.42 1.27-1.25 2.22a2 2 0 0 0 1.94 1.65c.52.01 1.05.01 1.58.01 7.93 0 16.63-1.17 21.1-9.85 8.29-16.09-3.12-27.15-6.87-30.2-3.79-3.29-10.3-4.88-15.56-5.9-.11 0-.24-.01-.37-.01z" fill="#D3914F"/><path d="M118.42 60.06c5.86-11.94-.48-22.13-7.12-27.36-3.51-2.98-9.64-4.21-14.2-5.07.69 1.04 1.39 2.07 2.08 3.11-2.94-1.47-7.58-2.25-10.74-.87 1.05.31 3.25 1.08 4.3 1.39-2.94.4-6.78 1.87-8.7 4.08.86-.13 2.78-.25 3.64-.39-3.62 2.7-6.88 5.91-5.61 12.57.27 1.39.87 3.21 2.24 3.61 1.02.3 2.5.08 3.13-2.05 1.25-4.27.71-8.52 8.05-12.78s18.2.13 21.14 10.97c2.05 7.58-2.05 18.03-2.23 18.17 1.63-1.21 2.96-3.24 4.02-5.38z" fill="#FFECB3"/><linearGradient id="b" x1="29.916" x2="29.916" y1="122.38" y2="92.248" gradientUnits="userSpaceOnUse"><stop stop-color="#ED8300" offset=".001"/><stop stop-color="#F59F25" offset=".237"/><stop stop-color="#FAB442" offset=".462"/><stop stop-color="#FEC053" offset=".658"/><stop stop-color="#FFC559" offset=".803"/><stop stop-color="#FFC559" offset="1"/></linearGradient><path d="M20.8 123c-.22 0-.37-.12-.43-.19s-.17-.23-.15-.45c.03-.24.05-.5.07-.78.25-2.81.65-5.34 2.8-5.45 1.1-.06 1.9-.07 2.47-.08 1.25-.02 2.42-.04 2.48-1.45.04-1.14.05-1.26-.12-1.87a16.5 16.5 0 0 1-.26-1.06c-.75-3.46-1.92-7.57-3.17-11.92-1.66-5.79-3.37-11.78-4.12-16.47.46.44 1 1.02 1.46 1.49 1.77 1.86 3.78 3.97 5.67 4.66.94.34 1.57.73 2.19 1.1.98.6 1.92 1.16 3.54 1.16.99 0 2.16-.21 3.69-.65.01 0 .09-.02.26-.02.93 0 2.14.48 2.44.8-1.29 9.74-3.76 25.94-4.49 30.69-.04.28-.28.48-.57.48H20.8z" fill="url(#b)"/><path d="M21.97 86.38c1.62 1.67 3.39 3.35 5.17 4 .85.31 1.44.67 2.01 1.02 1.01.61 2.15 1.31 4.06 1.31 1.07 0 2.32-.21 3.91-.67h.04c.42 0 .98.15 1.37.31-1.28 9.58-3.57 24.62-4.35 29.66H21.26l.03-.33c.29-3.3.78-4.49 1.85-4.54 1.08-.06 1.86-.07 2.43-.08 1.18-.02 3.37-.05 3.46-2.42.04-1.16.05-1.4-.16-2.16-.06-.2-.13-.48-.25-1-.75-3.49-1.94-7.61-3.19-11.98-1.27-4.51-2.59-9.12-3.46-13.12m-2.35-4.8c-.34 0-.46.45-.29 1.58 1.27 8.26 5.58 20.55 7.35 28.72.39 1.83.42 1.05.36 2.68-.03.67-.41.37-4 .56-3.56.19-3.57 4.9-3.81 7.12-.1.93.63 1.75 1.57 1.75h13.75c.78 0 1.44-.56 1.56-1.33.73-4.75 3.23-21.07 4.51-30.85.13-.97-2.13-1.79-3.45-1.79-.21 0-.39.02-.54.06-1.5.43-2.57.61-3.41.61-2.25 0-2.82-1.26-5.39-2.2-2.98-1.09-6.99-6.91-8.21-6.91z" fill="#D3914F"/><linearGradient id="c" x1="89.997" x2="89.997" y1="122.4" y2="93.319" gradientUnits="userSpaceOnUse"><stop stop-color="#ED8300" offset=".001"/><stop stop-color="#F59F25" offset=".237"/><stop stop-color="#FAB442" offset=".462"/><stop stop-color="#FEC053" offset=".658"/><stop stop-color="#FFC559" offset=".803"/><stop stop-color="#FFC559" offset="1"/></linearGradient><path d="M83.55 123c-.22 0-.37-.12-.43-.19s-.17-.23-.15-.45c.03-.24.05-.5.07-.78.25-2.81.65-5.34 2.8-5.45 1.1-.06 1.9-.07 2.47-.08 1.24-.02 2.42-.04 2.48-1.44.04-1.14.05-1.26-.12-1.87-.06-.2-.14-.51-.26-1.06-1.52-7-7.83-22.28-9.82-27.01h18.79c.03 5.66.13 33.68-.51 37.85-.04.28-.28.48-.57.48H83.55z" fill="url(#c)"/><path d="M98.38 85.67c.05 10.32.04 31.84-.46 36.33H84.01l.03-.33c.29-3.3.78-4.49 1.85-4.54 1.08-.06 1.86-.07 2.43-.08 1.18-.02 3.37-.05 3.46-2.42.04-1.16.05-1.4-.16-2.16-.06-.2-.13-.48-.25-1-1.41-6.5-6.86-19.95-9.29-25.79h16.3m1.99-2.01H79.08s8.58 20.05 10.35 28.22c.39 1.83.42 1.05.36 2.68-.03.67-.41.37-4 .56-3.56.19-3.57 4.9-3.81 7.12-.1.93.63 1.75 1.57 1.75H98.3c.78 0 1.44-.56 1.56-1.33.73-4.75.51-39 .51-39z" fill="#D3914F"/><linearGradient id="d" x1="67.118" x2="67.118" y1="41.621" y2="102.96" gradientUnits="userSpaceOnUse"><stop stop-color="#FFC559" offset=".263"/><stop stop-color="#FEC356" offset=".465"/><stop stop-color="#FCBC4D" offset=".611"/><stop stop-color="#F8AF3D" offset=".739"/><stop stop-color="#F29E27" offset=".857"/><stop stop-color="#EB880A" offset=".967"/><stop stop-color="#E88000" offset="1"/></linearGradient><path d="M104.36 122.89c-1.71 0-2.25-.23-2.4-.42-.31-.39.07-1.92.19-2.43.04-.13.17-.48.29-.8.1-.27.19-.52.22-.62.64-2.05 1.7-2.22 2.82-2.22.17 0 .34.01.5.01s.32.01.46.01c.38 0 1.27 0 1.76-.71.5-.73.23-1.69-.09-2.53-.56-1.45-13.95-14.51-17.27-17.43-2.2-1.93-4.93-2.91-8.13-2.91-3.03 0-6.5.88-10.32 2.63-9.26 4.23-17.53 7.72-24.93 7.72-1.87 0-3.59-.21-5.27-.66C24.6 97.92 16.42 86.94 16.42 68c0-16.83 7.53-26.87 20.13-26.87 7.68 0 11.91 0 15.85 6.55 6.21 8.48 13.86 12.07 25.63 12.07h.4c1.72-.01 3.74-.29 6.07-.61 2.97-.41 6.34-.87 9.85-.87 5.49 0 10.04 1.17 13.91 3.58 6.1 3.8 9.58 16.35 7.75 27.98-1.54 9.87.44 23.26 1.77 30.36a2.265 2.265 0 0 1-2.23 2.68l-11.19.02z" fill="url(#d)"/><path d="M36.55 42.13c7.79 0 11.34 0 14.99 6.07.03.05.06.1.1.15 6.37 8.69 14.26 12.4 26.39 12.4h.41c1.78-.01 3.83-.29 6.2-.62 2.94-.4 6.27-.86 9.72-.86 5.3 0 9.68 1.12 13.38 3.43 5.05 3.14 9.27 14.35 7.3 26.98-1.57 10.02.44 23.54 1.77 30.7a1.266 1.266 0 0 1-1.25 1.5l-11.19.01c-.81 0-1.27-.05-1.51-.1.02-.25.08-.69.27-1.47.05-.15.16-.45.26-.72.11-.29.21-.56.24-.67.47-1.51 1.05-1.52 1.86-1.52h.01c.16 0 .32.01.47.01.17.01.34.01.49.01.44 0 1.8 0 2.58-1.15.86-1.26.27-2.8.01-3.46-.75-1.88-15.28-15.81-17.56-17.82-2.38-2.1-5.34-3.16-8.79-3.16-3.18 0-6.79.91-10.74 2.72-9.15 4.18-17.31 7.63-24.52 7.63-1.78 0-3.42-.2-5.02-.62-17.06-4.49-25-15.15-25-33.57 0-7.88 1.71-14.43 4.94-18.92 3.31-4.61 8.08-6.95 14.19-6.95m0-2c-14 0-21.13 11.46-21.13 27.87 0 22.86 12 31.69 26.5 35.5 1.8.47 3.64.69 5.53.69 7.56 0 15.84-3.48 25.35-7.81 3.29-1.5 6.72-2.54 9.91-2.54 2.74 0 5.31.77 7.47 2.66 4.17 3.67 16.6 16.02 17 17.04.65 1.69.18 1.89-.73 1.89-.28 0-.61-.02-.96-.02-1.32 0-2.95.28-3.77 2.92-.07.23-.47 1.26-.53 1.48-.77 3.19-.39 4.08 3.18 4.08l11.19-.01c2.05 0 3.59-1.86 3.21-3.87-1.22-6.57-3.3-20.16-1.76-30.02 1.94-12.42-1.96-25.09-8.21-28.98-4.66-2.9-9.69-3.73-14.44-3.73-6.3 0-12.11 1.46-15.93 1.48h-.39c-12.68 0-19.49-4.38-24.77-11.58-4.25-7.05-8.86-7.05-16.72-7.05z" fill="#D3914F"/><path d="M59.21 63.32c0 9.04-9.4 23.25-21 23.25s-21-14.22-21-23.25 9.4-12.92 21-12.92 21 3.88 21 12.92zM38.35 92.95c6.13.43 8.87.28 8.87.28l3.31 8.21s-8.68-.23-14.25-2.94c-4.74-2.31-2.99-5.91 2.07-5.55zM71.46 89.37c-5.94 1.56-8.67 1.92-8.67 1.92s-.77 5.46-.7 6.66c.01.19 6.15-2.83 12.33-5.4 2.08-.85 1.95-4.47-2.96-3.18z" fill="#FFECB3"/><linearGradient id="e" x1="53.171" x2="53.171" y1="122.99" y2="98.465" gradientUnits="userSpaceOnUse"><stop stop-color="#ED8300" offset=".077"/><stop stop-color="#F3991E" offset=".417"/><stop stop-color="#FFC559" offset="1"/></linearGradient><path d="M43.33 91.33c4.83 7.83 6.95 23.29 4.67 23.85-1 .25.74.1-2.83.54-1.98.24-3.24 3.85-3.48 6.05-.1.92.63 1.73 1.57 1.73l13.83-.08c.78 0 1.44-.55 1.56-1.32.73-4.69 6.01-30.93 6.01-30.93" fill="url(#e)" stroke="#D3914F" stroke-linecap="round" stroke-linejoin="round" stroke-miterlimit="10" stroke-width="2"/><linearGradient id="f" x1="37.755" x2="37.755" y1="72.869" y2="4.322" gradientUnits="userSpaceOnUse"><stop stop-color="#D47500" offset=".001"/><stop stop-color="#FFC559" offset="1"/></linearGradient><path d="M66.18 30.41c.57-2.74.75-7.4.84-8.93.23-4.09.27-8.19-.1-12.27-.17-1.9-.73-4.17-2.55-4.76-1.52-.49-3.08.49-4.35 1.46-1.95 1.5-3.96 2.96-5.6 4.77a8.41 8.41 0 0 1-3.28 2.23c-1.51.57-2.46.45-3.95.05-3.07-.84-6.26-1.21-9.43-1.21-2.12 0-4.24.16-6.34.53-1.89.33-3.6 1.25-5.58.99-2.13-.28-3.45-1.55-4.96-2.93-1.72-1.57-3.57-3-5.42-4.42-1.26-.97-2.83-1.95-4.35-1.46-1.81.58-2.37 2.85-2.54 4.75-.37 4.08-.34 8.18-.1 12.27.09 1.55.27 6.24.85 8.97-1.35 3.69-2.04 7.75-2.04 12.01 0 16.97 16.7 30.41 30.49 30.41 13.43 0 30.49-13.44 30.49-30.41-.02-4.28-.72-8.35-2.08-12.05z" fill="url(#f)"/><path d="M12.25 12.62c.08-.9.35-1.98 1.21-2.26.72-.23 1.46.23 2.06.69 1.43 1.1 3.02 2.33 4.15 3.75.54.68.95 1.49 1.01 2.35.07.92-.27 1.84-.79 2.61-.81 1.2-2.03 2.02-3.13 2.91-.69.56-1.49 1.01-2.38 1.16-.51.09-1.01.15-1.43-.22-.56-.5-.7-4.19-.76-5.18-.1-1.92-.12-3.87.06-5.81zM63.43 12.62c-.08-.9-.35-1.98-1.21-2.26-.72-.23-1.46.23-2.06.69-1.43 1.1-3.02 2.33-4.15 3.75-.54.68-.95 1.49-1.01 2.35-.07.92.27 1.84.79 2.61.81 1.2 2.03 2.02 3.13 2.91.69.56 1.49 1.01 2.38 1.16.51.09 1.01.15 1.43-.22.56-.5.7-4.19.76-5.18.1-1.92.11-3.87-.06-5.81z" fill="#FFECB3"/><defs><path id="g" d="M68.24 42.46c0 16.97-16.98 30.41-30.49 30.41-13.79 0-30.49-13.44-30.49-30.41s11-30.72 30.49-30.72S68.24 25.5 68.24 42.46z"/></defs><clipPath id="h"><use xlink:href="#g"/></clipPath><linearGradient id="i" x1="37.755" x2="37.755" y1="46.434" y2="72.506" gradientUnits="userSpaceOnUse"><stop stop-color="#FFF8E1" offset=".158"/><stop stop-color="#D8D3BF" offset=".707"/><stop stop-color="#C9C4B2" offset="1"/></linearGradient><path d="M63.99 37.75c-3.09-.66-8.4-.11-11.1 8.53-.58 1.88-2.43 4.12-4.28 4.16-3.67.09-4.42-4.42-10.97-4.42s-7.03 4.5-10.7 4.42c-1.85-.04-3.75-2.29-4.34-4.16-2.69-8.64-8.01-9.19-11.1-8.53-13.24 2.84-2.87 22.5 2.33 28.06 12.42 13.27 35.08 13.67 47.87 0 5.21-5.56 15.53-25.22 2.29-28.06z" clip-path="url(#h)" fill="url(#i)"/><path d="M22.47 11.74" fill="#E59242"/><ellipse cx="25.62" cy="37.31" rx="3.86" ry="4.36"/><ellipse cx="49.89" cy="37.31" rx="3.86" ry="4.36"/><linearGradient id="j" x1="37.5" x2="37.5" y1="56.82" y2="46.905" gradientUnits="userSpaceOnUse"><stop offset="0"/><stop stop-color="#262626" offset=".355"/><stop stop-color="#575757" offset=".837"/></linearGradient><path d="M37.67 57.01c-2.78 0-6.67-2.13-6.67-4.74v-.13c0-2.61 2.97-5.14 5.75-5.14h2.02c2.78 0 5.23 2.54 5.23 5.14v.06c0 2.61-3.55 4.81-6.33 4.81z" fill="url(#j)"/><path d="M53.9 54.73c-.06-.11-.2-.18-.45-.18-.72.02-1.14.62-1.55 1.06-.37.4-.71.82-1.08 1.22-.98 1.07-2.17 1.89-3.56 2.54-2.99 1.38-4.4.91-4.4.91-.47-.16-.98-.2-1.46-.39-1.22-.48-2.16-1.11-3.57-1.12-.9-.01-1.8.2-2.58.58-.81.4-1.61.8-2.56.93 0 0-1.38.47-4.37-.91-1.14-.53-2.2-1.19-3.07-2.02-.83-.8-1.48-1.72-2.38-2.48-.14-.12-.29-.24-.47-.31-.25-.09-.62-.05-.76.17-.15.22 0 .49.13.72 1.6 2.93 5.54 12.98 15.99 12.98s14.33-9.96 15.99-12.98c.12-.24.25-.53.15-.72z"/><defs><path id="k" d="M44 61.21c0 3.2-2.59 5.79-5.79 5.79h-1.43c-3.2 0-5.79-2.59-5.79-5.79v-.43c0-3.2 2.59-5.79 5.79-5.79h1.43c3.2 0 5.79 2.59 5.79 5.79v.43z"/></defs><clipPath id="l"><use xlink:href="#k"/></clipPath><path d="M27.3 66.83c0-3.12 4.68-6.48 10.46-6.48s10.46 3.35 10.46 6.48c0 3.12-4.68 5.66-10.46 5.66S27.3 69.95 27.3 66.83z" clip-path="url(#l)" fill="#FF8282"/><path d="M63.53 6.44c.08 0 .15.01.22.03.57.18 1.02 1.35 1.17 3.03.32 3.57.35 7.49.1 11.98l-.04.71c-.1 1.84-.29 5.68-.76 7.93-.08.37-.05.74.08 1.09 1.28 3.5 1.94 7.32 1.94 11.36 0 15.3-15.66 28.41-28.49 28.41-6.33 0-13.46-3.11-19.05-8.31-6.08-5.65-9.43-12.79-9.43-20.1 0-4.02.65-7.83 1.92-11.32.13-.35.16-.73.08-1.1-.47-2.25-.67-6.11-.77-7.97l-.04-.71c-.26-4.48-.22-8.4.1-11.98.15-1.69.6-2.85 1.17-3.03a.78.78 0 0 1 .22-.03c.76 0 1.91.89 2.29 1.18 1.93 1.49 3.67 2.83 5.29 4.31l.19.17c1.57 1.43 3.2 2.92 5.86 3.26.31.04.63.06.96.06 1.32 0 2.51-.34 3.55-.64.58-.17 1.14-.33 1.67-.42 1.91-.33 3.92-.5 5.99-.5 3.14 0 6.14.38 8.91 1.14.79.22 1.64.41 2.56.41.85 0 1.69-.17 2.63-.52a10.49 10.49 0 0 0 4.05-2.76c1.32-1.46 2.92-2.68 4.62-3.98l.71-.55c.39-.26 1.54-1.15 2.3-1.15m0-2c-1.24 0-2.48.8-3.51 1.59-1.95 1.5-3.96 2.96-5.6 4.77a8.41 8.41 0 0 1-3.28 2.23c-.73.28-1.33.39-1.92.39-.64 0-1.26-.13-2.03-.34-3.07-.84-6.26-1.21-9.43-1.21-2.12 0-4.24.16-6.34.53-1.66.29-3.19 1.04-4.88 1.04-.23 0-.46-.01-.7-.04-2.13-.28-3.45-1.55-4.96-2.93-1.72-1.57-3.57-3-5.42-4.42-1.03-.79-2.27-1.59-3.51-1.59-.28 0-.56.04-.84.13-1.81.57-2.37 2.84-2.54 4.74-.37 4.08-.34 8.18-.1 12.27.09 1.55.27 6.24.85 8.97-1.35 3.69-2.04 7.75-2.04 12.01 0 16.97 16.7 30.41 30.49 30.41 13.43 0 30.49-13.44 30.49-30.41 0-4.28-.7-8.35-2.06-12.05.57-2.74.75-7.4.84-8.93.23-4.09.27-8.19-.1-12.27-.17-1.9-.73-4.17-2.55-4.76-.3-.09-.58-.13-.86-.13z" fill="#D3914F"/></svg>