<svg viewBox="0 0 128 128" xmlns="http://www.w3.org/2000/svg"><linearGradient id="a" x1="13.3" x2="26.6" y1="7.7" y2="22.9" gradientUnits="userSpaceOnUse"><stop stop-color="#ECEFF1" offset=".2"/><stop stop-color="#E2E3E2" offset=".3"/><stop stop-color="#B9B2A3" offset=".6"/><stop stop-color="#A0937C" offset=".9"/><stop stop-color="#96876D" offset="1"/></linearGradient><path d="M11.5 30c-2-3.7-5.8-12.4-2.9-17.6C11.4 7.5 19 5.7 23.4 5.7l1.5.1c5 .7 10.9 4.5 14 6.9a63.5 63.5 0 0 0-27.4 17.2z" fill="url(#a)"/><path d="M23.4 7.2l1.3.1a30 30 0 0 1 10.9 4.8 66 66 0 0 0-23.7 15.3c-2-4.2-4.1-10.6-2-14.3 2.5-4.3 9.6-5.9 13.5-5.9m0-3c-4.5 0-12.8 1.8-16 7.5C3 19.2 11 32 11.1 32.4a60 60 0 0 1 31-19 40 40 0 0 0-17.1-9l-1.7-.2z" fill="#A1887F"/><linearGradient id="b" x1="22.6" x2="43.3" y1="16.3" y2="40" gradientUnits="userSpaceOnUse"><stop stop-color="#ECEFF1" offset=".2"/><stop stop-color="#D2CFC9" offset=".5"/><stop stop-color="#96876D" offset="1"/></linearGradient><path d="M24.7 57.1C18 52.1 8 42.5 11.5 30c1.9-6.3 6.8-11.1 14.5-14.3a49 49 0 0 1 18-3.3c7.4.3 15.7 7 19 10C47 30.7 33.8 42.7 24.6 57z" fill="url(#b)"/><path d="M43.1 13.7h1c5.8.3 12.6 5.1 16.3 8.2a105.2 105.2 0 0 0-36 33c-2.1-1.5-5-4-7.5-7.3a19.2 19.2 0 0 1-4-17.3C14.8 24.4 19.3 20 26.7 17c6-2.4 12.6-3.3 16.5-3.3m0-3c-7.6 0-28.4 3.1-33 18.8-4.9 17.4 14.3 29 15 29.8a103 103 0 0 1 40.2-36.8c-1.2-1.4-11.7-11.4-21.2-11.8h-1z" fill="#A1887F"/><linearGradient id="c" x1="96.1" x2="65.9" y1="107" y2="73.5" gradientTransform="rotate(-40 68.2 63.2)" gradientUnits="userSpaceOnUse"><stop stop-color="#754C24" offset="0"/><stop stop-color="#633D1B" offset=".3"/><stop stop-color="#4B290F" offset=".7"/><stop stop-color="#42210B" offset="1"/></linearGradient><path d="M101.3 114.5c-6.9 0-20.4-11.2-25.4-15.9L64.4 59.3l13.4-24.1c5 1.2 26.3 7.5 34.3 26.3 11.3 26.6-.1 41.5-7.6 51.4l-.4.4c-.6.8-1.5 1.2-2.8 1.2z" fill="url(#c)"/><path d="M78.5 37c6.3 1.6 25 8 32.2 25 11 25.9-.1 40.4-7.4 50l-.4.4c-.1.2-.4.6-1.6.6-5.6 0-17.5-9-24-15.2L66 59.5 78.5 37M77 33.5L62.8 59.1l11.8 40.3S92.1 116 101.3 116c1.7 0 3-.5 4-1.8 7.6-9.9 20-25.5 8.2-53.3C104 38.7 77 33.5 77 33.5z" fill="#42210B"/><linearGradient id="d" x1="37.5" x2="107.3" y1="38.5" y2="118.2" gradientUnits="userSpaceOnUse"><stop stop-color="#ECEFF1" offset=".1"/><stop stop-color="#E1E2E0" offset=".2"/><stop stop-color="#C1BBAF" offset=".4"/><stop stop-color="#A99F8B" offset=".6"/><stop stop-color="#9B8D75" offset=".7"/><stop stop-color="#96876D" offset=".8"/></linearGradient><path d="M105.6 122.2c-1.3 0-3.3-1.8-4-2.6l-.3-.2c-16.2-11.7-23.2-12.6-31.4-13.6-3.5-.4-7-.8-11.6-2A50.8 50.8 0 0 1 21.9 70a21 21 0 0 1 1.7-12.3l.2-.7a102.3 102.3 0 0 1 37.6-36.8c.4.2 1 .3 1.7.4A22 22 0 0 1 78.4 30c4.2 5.8 1.4 12.5-1.7 20.3-2.8 7-6 14.8-5 23.7 2.3 18.3 19.6 28 25 30.6a18 18 0 0 1 10 12.9c.5 2.4 0 4-.3 4.3a1 1 0 0 1-.8.4z" fill="url(#d)"/><path d="M61.5 21.8l1.3.3c3.3.6 9.3 1.7 14.4 8.8 3.5 4.8 1.6 10.3-1.9 18.8a48.4 48.4 0 0 0-5 24.4C70.8 79 74.4 95.6 96 106a17 17 0 0 1 8.9 10.3 9 9 0 0 1 .4 4.4 8.4 8.4 0 0 1-2.6-2l-.5-.4c-16.5-12-23.8-12.8-32.2-13.8-3.3-.4-6.8-.9-11.3-2a50 50 0 0 1-35.3-32.6c-1.1-6.2 1.5-11.4 1.5-11.4l.3-.8c10-16 22.6-28.3 36.3-35.8m-.1-3.3A104.1 104.1 0 0 0 22.3 57s-3.1 6-1.8 13.3 12.2 28.3 37.4 35c16 4.2 20.1-1 42.6 15.3 0 0 2.7 3 5.1 3 .7 0 1.3-.2 1.8-.7 2.6-2.7.5-14.6-10.1-19.7-6.2-3-22-12.5-24-29.4C71 55.4 88.2 41 79.5 29c-7.7-10.6-17.3-9.4-18.2-10.5z" fill="#A1887F"/></svg>