<svg viewBox="0 0 128 128" xmlns="http://www.w3.org/2000/svg" xmlns:xlink="http://www.w3.org/1999/xlink"><path d="M42.3 13.4s15.4 1 13.9 15.6M86 13.4s-15.3 1-13.8 15.6" fill="none" stroke="#000" stroke-linecap="round" stroke-linejoin="round" stroke-miterlimit="10" stroke-width="2"/><linearGradient id="a" x1="57" x2="81.8" y1="72.2" y2="106" gradientUnits="userSpaceOnUse"><stop stop-color="#FFD54F" offset="0"/><stop stop-color="#FFD045" offset=".2"/><stop stop-color="#FFC428" offset=".6"/><stop stop-color="#FFB300" offset="1"/></linearGradient><path d="M89.1 83.2c0 14.4-25 33.8-25 33.8s-25-19.4-25-33.8 11.2-26 25-26 25 11.6 25 26z" fill="url(#a)"/><ellipse cx="64" cy="52.6" rx="21.3" ry="13.2"/><defs><path id="b" d="M89.3 83.2C89.3 97.6 64 117 64 117S39 97.5 39 83s11.2-26 25-26 25.2 11.6 25.2 26z"/></defs><clipPath id="c"><use xlink:href="#b"/></clipPath><path clip-path="url(#c)" d="M31.9 70h64.4v9.7H31.9zm-.4 16.7h64.4v9.7H31.5zm.4 17.2h64.4v13.6H31.9z"/><path d="M60.3 112.3l3.8 12 4-11.8z"/><path d="M64 46.5c6.6 0 12.3 3.7 12.3 8 0 1.9-1 3.4-2 4.3a3 3 0 0 0 .7 4.6c7 4.3 11.2 12 11.2 20 0 4-2.7 13-21 28.7a3 3 0 0 0-.8 1.4l-.4 1.2-.4-1.2a3 3 0 0 0-1-1.4C49.8 101.1 42 90.3 42 83.4c0-8.2 4.2-15.8 10.9-20a3 3 0 0 0 .6-4.6c-.9-1-2-2.4-2-4.3 0-4.3 5.7-8 12.4-8m0-3c-8.5 0-15.4 5-15.4 11a9 9 0 0 0 2.8 6.4A26.2 26.2 0 0 0 39 83.4c0 11.1 15 25.2 21.7 31l3.3 10.1 3.3-10.1c6.8-5.8 22-19.8 22-31 0-9.6-5.3-18-12.8-22.6a9 9 0 0 0 2.8-6.3c0-6-6.9-11-15.4-11z" fill="#616161"/><linearGradient id="d" x1="64" x2="64" y1="20.7" y2="50.3" gradientUnits="userSpaceOnUse"><stop stop-color="#FFD54F" offset="0"/><stop stop-color="#FFD045" offset=".2"/><stop stop-color="#FFC428" offset=".6"/><stop stop-color="#FFB300" offset="1"/></linearGradient><path d="M64 50.6c-10.8 0-18.8-8.5-18.8-16.1 0-7.9 8.4-14.3 18.8-14.3s18.8 6.4 18.8 14.3c0 7.6-8 16.1-18.8 16.1z" fill="url(#d)"/><path d="M64 21.8c9.5 0 17.2 5.7 17.2 12.7 0 3.3-1.8 7-4.9 9.8a18.3 18.3 0 0 1-24.6 0c-3-2.8-4.9-6.5-4.9-9.8 0-7 7.7-12.7 17.2-12.7m0-3.2c-11.3 0-20.4 7.1-20.4 15.9S52.7 52.2 64 52.2s20.4-9 20.4-17.7c0-8.8-9.1-15.9-20.4-15.9z" fill="#F9A825"/><linearGradient id="e" x1="36.7" x2="36.7" y1="39.1" y2="99.9" gradientTransform="rotate(8.4 35.4 62.1)" gradientUnits="userSpaceOnUse"><stop stop-color="#eee" offset="0"/><stop stop-color="#E4E4E4" offset=".3"/><stop stop-color="#C8C8C8" offset=".8"/><stop stop-color="#BDBDBD" offset="1"/></linearGradient><path d="M21.3 90.4c-4 0-7-2.2-9.2-6.7-2-4.2-2-7.7 0-10.9 3.6-5.5 13.6-9.7 29-12A177 177 0 0 1 61 59c-2.5 3.1-7.3 9-13.1 14.7-11 11-20.2 16.7-26.7 16.7z" fill="url(#e)"/><path d="M58 60.5C49 71.3 32 89 21.3 89c-2.2 0-5.4-.6-7.9-5.9-1.7-3.7-1.8-6.8 0-9.5 5.8-9.4 30.4-12.4 44.6-13m6-3s-65.8 0-53.1 26.7c2.5 5.4 6.2 7.5 10.4 7.5C38 91.8 64 57.5 64 57.5z" fill="#BDBDBD"/><linearGradient id="f" x1="31.8" x2="31.8" y1="37.7" y2="97" gradientTransform="rotate(12.6 35 57.6)" gradientUnits="userSpaceOnUse"><stop stop-color="#eee" offset="0"/><stop stop-color="#E4E4E4" offset=".3"/><stop stop-color="#C8C8C8" offset=".8"/><stop stop-color="#BDBDBD" offset="1"/></linearGradient><path d="M24.8 62.8c-9 0-15-1.8-17.8-5.3-2-2.3-2.5-5.3-1.8-9.3 1.3-6.7 5.2-10 12.1-10 14.2 0 36 13.9 43.3 18.8-6.5 1.8-22.6 5.8-35.9 5.8z" fill="url(#f)"/><path d="M17.3 39.6c12.4 0 31 11 39.9 16.8-7.6 2-21 5-32.5 5-8.3 0-14-1.7-16.6-4.8-1.7-2-2.2-4.6-1.5-8.2 1.1-6 4.4-8.8 10.7-8.8m0-2.8c-6.8 0-12 3-13.5 11.1-2.3 12.7 8.1 16.3 21 16.3 17.3 0 39-6.7 39-6.7S35.1 36.8 17.3 36.8z" fill="#BDBDBD"/><linearGradient id="g" x1="76.9" x2="76.9" y1="38.9" y2="99.7" gradientTransform="scale(-1 1) rotate(8.4 -48.6 -1088)" gradientUnits="userSpaceOnUse"><stop stop-color="#eee" offset="0"/><stop stop-color="#E4E4E4" offset=".3"/><stop stop-color="#C8C8C8" offset=".8"/><stop stop-color="#BDBDBD" offset="1"/></linearGradient><path d="M106.2 90.4c-6.5 0-15.7-5.8-26.6-16.7A188 188 0 0 1 66.5 59c9.9.3 41.5 2.2 48.9 13.8 2 3.2 2 6.7 0 11-2.2 4.4-5.1 6.6-9.2 6.6z" fill="url(#g)"/><path d="M69.5 60.5c4.3.2 10.4.7 16.7 1.6 14.8 2.3 24.7 6.3 28 11.5 1.7 2.7 1.6 5.8-.1 9.5-2.5 5.3-5.7 5.9-7.9 5.9-10.8 0-27.7-17.6-36.7-28.5m-6-3s26 34.3 42.7 34.3c4.2 0 7.9-2.1 10.4-7.5 12.7-26.8-53-26.8-53-26.8z" fill="#BDBDBD"/><linearGradient id="h" x1="71.5" x2="71.5" y1="37.3" y2="96.6" gradientTransform="scale(-1 1) rotate(12.6 -49 -704.2)" gradientUnits="userSpaceOnUse"><stop stop-color="#eee" offset="0"/><stop stop-color="#E4E4E4" offset=".3"/><stop stop-color="#C8C8C8" offset=".8"/><stop stop-color="#BDBDBD" offset="1"/></linearGradient><path d="M102.8 62.8c-13.4 0-29.4-4-35.8-5.8 7.2-5 29-18.8 43.2-18.8 6.9 0 10.8 3.3 12 10 .8 4 .3 7-1.7 9.3-2.9 3.5-8.8 5.3-17.7 5.3z" fill="url(#h)"/><path d="M110.2 36.8v2.8c6.3 0 9.6 2.7 10.7 8.8.7 3.6.2 6.3-1.5 8.2-2.5 3.1-8.3 4.8-16.7 4.8-11.3 0-24.8-3-32.4-5 8.9-5.7 27.5-16.8 40-16.8v-2.8m0 0c-18 0-46.6 20.7-46.6 20.7s21.7 6.7 39 6.7c12.9 0 23.3-3.6 21-16.3-1.6-8.1-6.8-11.1-13.5-11.1z" fill="#BDBDBD"/><circle cx="54.1" cy="33.6" r="6.2" fill="#fff"/><circle cx="54.1" cy="33.6" r="2.8"/><circle cx="74" cy="33.6" r="6.2" fill="#fff"/><circle cx="74" cy="33.6" r="2.8"/><circle cx="40.2" cy="12.8" r="2.8" fill="#E6E7E8" stroke="#231F20" stroke-linecap="round" stroke-miterlimit="10"/><circle cx="87.3" cy="12.8" r="2.8" fill="#E6E7E8" stroke="#231F20" stroke-linecap="round" stroke-miterlimit="10"/></svg>