<svg viewBox="0 0 128 128" xmlns="http://www.w3.org/2000/svg"><path d="M57 91.7s-.9 8.8-1.8 11.9c-1 3-7.8 5.6-13 5.4-3.7-.2-5.2.3-5.8 2.6-.5 2.2.5 1.6.5 1.6s1.7-1 2.8-1c2.3.2 1.7.8 4 .4 2-.3 2-.8 2-.8s-1.4 1.7-.5 3.3c.9 1.7 1.1 1.4 1.1 1.4s.1-2.3 2.4-2.9 3.2-1.6 3.2-1.6 3.2-1.4 5 .2c1.7 1.6 2.8 1.7 4 1.5 1-.1 3.2 2 3.2 2s.9-3.4-2.6-4.8c-2.5-1-4.5-3.6-3.7-6.6.9-3 4.7-11.5 4.7-11.5l-5.5-1z" fill="#F7931E" stroke="#8C6239" stroke-linecap="round" stroke-linejoin="round" stroke-miterlimit="10" stroke-width="1.8"/><path d="M67.2 98.2s-1.7 8.8-2.7 12c-1 3-7.4 5.6-12.8 5.3-3.9-.1-5.5.4-6 2.6s.4 1.7.4 1.7 1.8-1 3-1c2.3.2 1.7.8 4.1.4 2.2-.3 2.1-.8 2.1-.8s-1.4 1.7-.5 3.3 1.2 1.4 1.2 1.4.1-2.3 2.5-2.9 3.4-1.6 3.4-1.6 3.3-1.4 5.2.2 3 1.7 4.1 1.5 3.5 2.1 3.5 2.1.9-3.5-2.8-5c-2.6-1-5.6-3.5-4.7-6.4S73 99.3 73 99.3l-5.8-1z" fill="#F7931E" stroke="#8C6239" stroke-linecap="round" stroke-linejoin="round" stroke-miterlimit="10" stroke-width="1.9"/><linearGradient id="a" x1="20.8" x2="27.8" y1="2.8" y2="18.7" gradientUnits="userSpaceOnUse"><stop stop-color="#F73D41" offset=".5"/><stop stop-color="#F43C40" offset=".6"/><stop stop-color="#EA3A3D" offset=".6"/><stop stop-color="#D83539" offset=".7"/><stop stop-color="#C02F32" offset=".8"/><stop stop-color="#A1272A" offset=".9"/><stop stop-color="#7C1E20" offset=".9"/><stop stop-color="#541415" offset="1"/></linearGradient><path d="M34.2 14.2c.5-1.4.4-3.9 0-5.3-.7-2.7-2 3-3.4 2.4-1.2-.5-.3-5-2.2-4.4s-2 6-2.8 6-.2-5.8-2.2-5.2-.2 5.9-.9 6.5c-.6.5-1.2-2.8-2.9-3-2.2.2 1 7.5-1.8 4.6-.6-.8-1.4-.4-1.3.6 0 2.3 1.4 5.3 3 6.4 1.8 1.1 4.1-2.1 5-3 1-1.2 2.9-1.4 4.4-1.5l2-.1c.7-.1 2.2-1.2 3.1-4z" fill="url(#a)" stroke="#C1272D" stroke-miterlimit="10" stroke-width="2"/><radialGradient id="b" cx="37.7" cy="68" r="48.1" gradientUnits="userSpaceOnUse"><stop stop-color="#824A38" offset="0"/><stop stop-color="#6A3C2D" offset=".2"/><stop stop-color="#2C1811" offset=".7"/><stop stop-color="#0A0502" offset="1"/></radialGradient><path d="M70.8 103h-.5c-5.4-.4-5.8-6.6-5.8-6.9a1 1 0 0 0-1-1 1 1 0 0 0-1 .9s-1 4.6-4 4.6a5 5 0 0 1-1.7-.3c-3.6-1.4-1.9-7-1.8-7l-.1-.8c-.1-.3-.4-.4-.7-.5a44 44 0 0 1-31-29.7l24-15.4A50.2 50.2 0 0 0 67.6 52c4 0 7-.7 9.2-2.2 2.4 1.6 5.2 2.4 8.3 2.4 2.8 0 5.9-.7 9.4-2 .6 2.9 2.8 6.3 3.7 7.6a72 72 0 0 1-3.7 9.1l-.2.7-2 5.2c-.9 2.6-1.8 5.4-3 7.7C86.8 85.2 83 90.9 76.9 93c-3.3 1.1-3.5 4.2-3.6 6.4-.2 2.7-.5 3.6-2.5 3.6z" fill="url(#b)"/><path d="M47.1 48c4.3 2.3 13.2 5 20.6 5 3.8 0 6.9-.7 9.2-2 2.5 1.4 5.2 2.2 8.3 2.2 2.6 0 5.5-.6 8.7-1.7a28 28 0 0 0 3.3 6.5c-.3.8-1 3-3.5 8.5l-.3.7-2 5.2c-.8 2.7-1.7 5.3-3 7.6-2.4 4.5-6 10-11.8 12-4 1.4-4.2 5-4.3 7.4-.2 2.6-.4 2.6-1.5 2.6h-.4c-1.8-.1-3.2-1-4-2.9-.8-1.5-.9-3-.9-3a2 2 0 0 0-1.8-2h-.2a2 2 0 0 0-2 1.7s-.9 3.8-3 3.8a3 3 0 0 1-1.3-.3c-2.7-1-1.3-5.7-1.3-5.7a2 2 0 0 0-1.5-2.6c-.2 0-22.4-4.7-30-28.3L47.1 48m0-2.3L22 61.9A45 45 0 0 0 54 93s-2 6.5 2.5 8.2c.7.3 1.3.4 2 .4 3.9 0 5-5.4 5-5.4s.4 7.3 6.8 7.8h.5c6 0 1-8.2 6.4-10 6.2-2.2 10-7.7 13-13 2.2-4 3.3-9 5-13 .4-.9 4.6-10.1 4-10.5 0 0-3.8-5.3-3.8-8.8-3.5 1.5-7 2.5-10.2 2.5-3 0-5.8-.8-8.3-2.7a14.6 14.6 0 0 1-9.3 2.5c-8 0-17.4-3.3-20.5-5.3zm48.3 3z" fill="#8C6239"/><path d="M44 74.7a32.6 32.6 0 0 0 20.2 5.7c1 0 2-.5 2-1.4-.2-.8-1-1.2-1.6-1.5L59 75.1a54 54 0 0 0 11.6 1c.7 0 1.6-.2 1.7-1 0-.7-.9-1.3-1.6-1.5-2.2-.8-4.3-1.5-6.5-2 3.9 1 8 1 11.6 0a.9.9 0 0 0 .1-1.7 35.8 35.8 0 0 0-9.6-2.5c3.8.6 7.6.4 11-.5.7-.2 1.4-.5 1.5-1.2.1-1-1.4-1.6-2.4-1.7l-2.7-.2c-1 0-1.1-1.4-.2-1.7l2.8-1.1c.8-.4 1.6-1 1.4-2-.3-.9-1.3-1.2-2.2-1.3-3.3-.5-6.7-.6-10-.2l7.2-1c.7-.1 1.6-.4 1.7-1.2 0-1.2-1.4-1.7-2.5-1.7a59.6 59.6 0 0 1-15.3-3c-4-1.4-13.4-5.3-17-3.5-1.9 1-6 4-7 6-7 14.7 8.6 19.7 11.4 21.6z" fill="#91352A"/><linearGradient id="c" x1="21.6" x2="21.7" y1="64.5" y2="64.9" gradientUnits="userSpaceOnUse"><stop stop-color="#FFD900" offset="0"/><stop stop-color="#FFC100" offset=".3"/><stop stop-color="#FF8300" offset=".8"/><stop stop-color="#FF6F00" offset="1"/></linearGradient><path d="M21.6 64.5l.1.4-.1-.4z" fill="url(#c)"/><linearGradient id="d" x1="29.2" x2="37.5" y1="17.5" y2="63" gradientUnits="userSpaceOnUse"><stop stop-color="#FFD900" offset="0"/><stop stop-color="#FFC100" offset=".3"/><stop stop-color="#FF8300" offset=".8"/><stop stop-color="#FF6F00" offset="1"/></linearGradient><path d="M23.9 65.7a56.2 56.2 0 0 1-.1-34.3l.2-.6-1-1c-1.7-2-3.7-4-3.7-5.6 0-4.6 3.3-7.6 8.4-7.6.6 0 3.3.8 4 1.1a14 14 0 0 1 2.9 6.7 41 41 0 0 0 4 11c3 5.6 7.1 9 10.1 11.6l.8.6a6 6 0 0 0-3.2 1.2c-1 .8-1.7 2.8-1.1 4.1v.3c.3.6.5 1.2.4 1.5 0 0-.1.2-.6.2-.6 0-1.4-.3-1.9-.6a4 4 0 0 0-1.8-.4 3 3 0 0 0-1.2.2c-1.7.7-1.7 2.2-1.7 3.2 0 .5 0 .9-.2 1.1 0 .3-.4.4-.8.4l-1.2-.3-.4-.1a7 7 0 0 0-2.4-.6c-.4 0-.9.1-1.2.3-1.7.7-1.2 2.5-1 3.3l.2.8h-.2c-.5 0-1-.2-1.5-.4-.7-.2-1.4-.6-2.3-.6l-1.2.3c-1 .4-1.7 1.2-2 2.1l-.4 2.1z" fill="url(#d)"/><path d="M27.7 17.6c.5 0 2.6.6 3.3 1 1.6 1.8 2 3.5 2.6 6a36.8 36.8 0 0 0 13.7 22.5c-.7.2-1.2.5-1.7 1-1.2 1-2 3.5-1.4 5.2l.1.3.1.2c-.3 0-.6-.2-.8-.3-.7-.4-1.5-.6-2.3-.6-.5 0-1 0-1.6.3-2.3 1-2.3 3-2.3 4.1v.5c-.2 0-.6 0-.9-.2a6 6 0 0 1-.3-.1c-.9-.3-1.8-.6-2.8-.6-.6 0-1.1 0-1.6.3-2 .8-2 2.6-1.7 3.7-.8-.3-1.7-.6-2.7-.6-.6 0-1.1 0-1.6.3-.9.3-1.6 1-2 1.7-2-7.3-2.9-21 .9-30.6l.4-1.1-.8-1-.6-.6c-1.4-1.5-3.4-3.6-3.4-4.8 0-4.8 3.8-6.6 7.4-6.6m0-2c-5.4 0-9.4 3.2-9.4 8.6 0 2.2 2.5 4.6 4.5 6.8-5 12.8-2.3 34.7 2 37.8-.5-.3.3-4.3.4-5a2.3 2.3 0 0 1 2.2-1.6c1.3 0 2.4 1 3.7 1h.7c1.8-.6-1-3.5.7-4.2l.9-.2c.8 0 1.7.4 2.5.7l1.5.2c.7 0 1.3-.2 1.7-.7.8-1.3-.4-3.2 1.4-4l.8-.2c.5 0 1 .2 1.3.4.6.3 1.5.7 2.4.7.6 0 1.1-.2 1.4-.8.5-.8 0-1.7-.3-2.6-.4-.8.2-2.4.8-3 1.4-1.3 5.2-.8 4.6-1.4-3-2.9-8.4-6.2-12-13.2-5.2-9.8-3-13.3-7.2-18a18 18 0 0 0-4.6-1.3z" fill="#D66620"/><path d="M28.4 15.5c2.5.1 4.8 1.5 5.8 4.2.7 1.8 2.2 7.9-3.2 10.5-4 2-7.2 2.3-10 .5-2.8-1.9-3.7-8.8-1.3-11.8 2.1-2.5 6-3.5 8.7-3.4z" fill="#F73D41" stroke="#C1272D" stroke-miterlimit="10" stroke-width="2"/><circle cx="27.1" cy="22.6" r="4.8" fill="#fff"/><circle cx="27" cy="21.7" r="1.3"/><linearGradient id="e" x1="14.2" x2="21.6" y1="35.5" y2="35.5" gradientUnits="userSpaceOnUse"><stop stop-color="#F73D41" offset=".5"/><stop stop-color="#F43C40" offset=".6"/><stop stop-color="#EA3A3D" offset=".6"/><stop stop-color="#D83539" offset=".7"/><stop stop-color="#C02F32" offset=".8"/><stop stop-color="#A1272A" offset=".9"/><stop stop-color="#7C1E20" offset=".9"/><stop stop-color="#541415" offset="1"/></linearGradient><path d="M18.5 31.8c-1.6 2.9-5 5.7-4.1 9.4.3 1.2 1.3 2.3 2.5 2.3.8 0 1.6-.4 2.2-1s.8-1.5 1-2.3c1.2-3.3 1.7-6.8 1.5-10.2 0-.8-.1-1.8-.6-2.4-.3-.4-1 1.4-1.1 1.5l-1.3 2.6v.1z" fill="url(#e)" stroke="#C1272D" stroke-miterlimit="10" stroke-width="2"/><path d="M20 29c.8-.2 1.1-2 1.1-2L14 25l2.7 2.4c1.2.8 3 1.7 3.4 1.6z" fill="#D96E00"/><path d="M18.7 27.4l1.1.3v.1c-.3 0-.7-.2-1-.4m-5-2.5s1.2 1.2 2.8 2.4c1.1.8 3 1.6 3.3 1.6.9 0 1.2-1.8 1.2-1.8L14 24.9z" fill="#F15A24" opacity=".2"/><path d="M17.5 22.4c-4.7 2-6 3.4-6 3.4s6.7.4 9.6 1.3c-.1-2-.5-6-3.6-4.7z" fill="#FFA726"/><path d="M18.6 23.2c.6 0 1.1.9 1.4 2.6-1.7-.4-4-.6-5.6-.8a27.1 27.1 0 0 1 4.2-1.8m0-1c-.4 0-.7 0-1.1.2-4.7 2-6 3.4-6 3.4s6.7.4 9.6 1.3c0-1.7-.4-4.9-2.5-4.9z" fill="#8C6239" opacity=".2"/><path d="M89.2 79.3c.8-6 .1-10.8-2-16.3a25.1 25.1 0 0 0-11.7-13c.7-.7 1.5-1.9 2.2-3.7 1.8-4.7 1.2-9.2.7-13.6-.4-3.7-.8-7 0-10.7 1.7-7 5.2-9 9.6-11.1 2.7-1.3 6.1-2 9.4-2 2 0 4 .3 5.6.9 4 1.5 8 4.3 11.6 8.3a28 28 0 0 1 3.7 5c-2.2-2.2-5-3.9-8.2-4.6a34 34 0 0 0-7.1-1 11 11 0 0 0-10.7 6.4c-.2.4-.2.8 0 1a1 1 0 0 0 1 .4 20 20 0 0 1 20.6 8.2 19.7 19.7 0 0 0-5.5-3 26.3 26.3 0 0 0-14.1-.9 1 1 0 0 0-.8 1c0 .4.3.8.8 1a34 34 0 0 1 13.8 5.6c2.7 2 5 4.5 6.3 7.2a27.3 27.3 0 0 0-18-7.9 1 1 0 0 0-1 .8c0 .5.2 1 .7 1.2a32 32 0 0 1 13.3 8.4 21 21 0 0 1 5 11.2 28 28 0 0 0-9.6-8.9 1 1 0 0 0-.7.3 1 1 0 0 0-.1 1.2 25.3 25.3 0 0 1 3.1 18c-.8-4.4-2.4-8.7-4.9-12.4a1 1 0 0 0-1.2-.3 1 1 0 0 0-.6 1 32 32 0 0 1-2.3 20.4 29 29 0 0 0-3.3-16 1 1 0 0 0-1.1-.4 1 1 0 0 0-.8 1c.3 6-1 12-3.7 17.3z" fill="#004A30"/><path d="M97.4 9.9c2 0 3.8.3 5.2.8 4 1.5 7.7 4.2 11.2 8a35.2 35.2 0 0 0-10.8-2.2 12 12 0 0 0-11.6 7 2 2 0 1 0 2.2 2.9 18.9 18.9 0 0 1 15.2 3.3v-.1c-2.7-1-5.8-1.5-9-1.5-1.8 0-3.6.2-5.6.5a2 2 0 1 0-.1 4 33.2 33.2 0 0 1 14.8 6.4c-3.8-2.1-8-3.3-12.4-3.5a2 2 0 0 0-.7 3.9 31 31 0 0 1 12.8 8.2c1.7 1.9 3 4 3.8 6.2-2-2-4.1-3.9-6.6-5.3a2 2 0 0 0-2.4.3 2 2 0 0 0-.3 2.4c2.1 3.4 3.3 7.5 3.5 11.5a32 32 0 0 0-3.6-7 2 2 0 0 0-3.6 1.6c1 4.8 1 10-.4 14.7-.4-3.9-1.5-7.7-3.3-11a2 2 0 0 0-3.8 1c.2 3.8-.3 7.6-1.4 11.3-.1-3.6-1-7-2.4-10.6a26 26 0 0 0-11-13c.5-.7 1-1.7 1.5-3 2-5 1.4-9.7.8-14.1-.4-3.6-.8-7 0-10.3 1.6-6.6 4.8-8.5 9-10.5 2.6-1.2 5.9-2 9-2m0-2c-3.4 0-7 .9-9.8 2.2-4.9 2.2-8.4 4.7-10.1 11.8-2 8.2 2.4 15.9-.8 24.1-1.4 3.7-3 4.3-3 4.3a24.2 24.2 0 0 1 12.5 13.2c3 7.4 2.8 13.5.9 21.1A35.6 35.6 0 0 0 93.9 62c3.4 6.3 4.2 14 2.1 21a33 33 0 0 0 5.4-26 31 31 0 0 1 5.1 17 26.1 26.1 0 0 0-1.7-23.7c4.5 2.7 8.2 6.7 10.4 11.5.8-5.6-1.4-11.3-5-15.4s-8.7-7-13.8-8.8c8.2.3 16.1 4.8 20.8 11.8-1-5.3-4.3-9.9-8.5-13s-9.2-4.8-14.2-5.8a36 36 0 0 1 5.3-.4c2.8 0 5.6.4 8.3 1.4 4.3 1.5 8.2 4.7 10 9a22.3 22.3 0 0 0-9.3-13.3 20.8 20.8 0 0 0-15.6-2.8c2.3-4.6 6-5.8 9.8-5.8 2.3 0 4.6.4 6.8.9 5.9 1.2 11 6.4 11.6 12.6.5-5.5-2.5-10.7-6-14.7a32.5 32.5 0 0 0-12-8.6c-1.9-.6-4-1-6-1z" fill="#002614"/><path d="M80 35.3c.8-2.6 2.8-6.3 5-7.7s4.7-2.2 7.2-2.5c-4.6 2.5-8 7.7-8.6 13.4.9-2.5 2.7-4.6 4.9-5.8a9.4 9.4 0 0 1 7.2-.6 13.9 13.9 0 0 0-8.5 10.2c1-2.4 3.2-4.2 5.6-4.7s5 .4 6.8 2.3c-3.5-.1-6.8 2.7-7.7 6.3a5.3 5.3 0 0 1 5.2-1.9c1.8.4 3.5 1.5 5 2.9 2.5 2.4 4.3 5.6 5.1 9.2a8.8 8.8 0 0 0-10.9-3.5c3.1.5 6 2.4 7.8 5s2.7 6.2 2.3 9.5a11 11 0 0 0-9.5-8c2.6 1.7 4.8 4.1 6 7.1s1.1 6.6-.5 9.3c-.4-4.5-4-10.2-7.8-12 4.4 4.2-4.5 15.7-6.8 17 .9-7 .2-13-5.2-23.3A32.3 32.3 0 0 1 80 35.3z" fill="#0F242B"/><path d="M20.9 32.2c-.7 3.3-3.2 7.2-1 10.6.7 1 2 1.8 3.2 1.5.9-.3 1.5-1 1.8-1.8s.3-1.7.3-2.6c0-3.6-.6-7.2-2-10.6-.3-.8-.6-1.7-1.3-2.1-.4-.3-.6 1.7-.6 1.9 0 1-.2 2-.4 3z" fill="#F73D41" stroke="#C1272D" stroke-miterlimit="10" stroke-width="2"/></svg>