<svg viewBox="0 0 128 128" xmlns="http://www.w3.org/2000/svg"><path d="M120.89 109.29c-.05 0-.11-.01-.17-.02-.98-.26-1.83-.68-2.46-1.01-.66-.34-1.33-.78-2.12-1.36-.74-.55-1.36-1.1-1.9-1.69-.48-.52-1.07-1.24-1.52-2.17l-.14-.18-.07-.1c-.97-1.96-1.89-3.89-2.81-5.86l-.75-1.58c-.68-1.43-1.35-2.86-2-4.3l-.21-.45c-.83-1.82-1.66-3.63-2.47-5.46l-2.63-5.92c-1.9-4.33-3.57-8.22-5.13-11.92l-.69-1.62c-.61-1.43-1.25-2.91-1.76-4.43-.15-.43-.29-.84-.41-1.24-.04.13-.08.25-.12.37-.43 1.3-.97 2.56-1.5 3.78-.2.46-.4.92-.59 1.38-.92 2.04-1.66 3.59-2.41 5.04-.82 1.58-1.73 3.27-2.78 4.9a.65.65 0 0 1-.8.25l-1.07-.44a.66.66 0 0 1-.39-.74c.41-1.9.95-3.74 1.48-5.44a111.6 111.6 0 0 1 1.84-5.26c.2-.48.38-.95.56-1.42.49-1.24.99-2.52 1.6-3.75.21-.42.42-.84.66-1.26.08-.15.16-.29.24-.42.15-.28.31-.55.48-.82.55-.91 1.12-1.69 1.71-2.37l.57-.66c.12-.14.3-.22.49-.22h.02c.19.01.38.1.5.25l.51.65c1.52 1.96 2.64 4.09 3.45 5.72.72 1.43 1.33 2.93 1.92 4.37.22.54.44 1.07.67 1.61a933.6 933.6 0 0 1 4.9 12.01l2.38 6.03c.7 1.77 1.38 3.55 2.06 5.33l.28.72c.57 1.46 1.11 2.93 1.65 4.4l.62 1.69c.62 1.67 1.33 3.61 2.02 5.57.66.18 1.31.45 2.06.85.7.38 1.38.85 2.1 1.43.75.62 1.34 1.17 1.84 1.73.47.52 1.08 1.24 1.57 2.13.12.23.1.51-.06.71l-.72.92c-.12.18-.31.27-.5.27z"/><path d="M93.64 53.56l.51.65c1.37 1.77 2.42 3.67 3.38 5.61.97 1.93 1.73 3.96 2.57 5.95 1.66 3.99 3.29 7.99 4.9 12l2.38 6.03c.8 2.01 1.56 4.03 2.34 6.05.78 2.01 1.51 4.05 2.26 6.08.73 1.96 1.45 3.92 2.13 5.9.84.18 1.56.51 2.25.88.72.39 1.37.86 1.99 1.36.62.51 1.22 1.05 1.76 1.66.55.6 1.07 1.24 1.49 2.01l-.72.91c-.85-.22-1.59-.57-2.31-.96-.72-.38-1.39-.83-2.04-1.31-.64-.48-1.25-1.01-1.81-1.61-.55-.6-1.06-1.25-1.44-2.07l-.18-.23c-.96-1.94-1.89-3.89-2.81-5.85s-1.86-3.91-2.74-5.88c-.9-1.97-1.8-3.93-2.67-5.91l-2.63-5.93c-1.73-3.96-3.45-7.92-5.12-11.91-.83-1.99-1.74-3.96-2.43-6.01a44.45 44.45 0 0 1-1.04-3.4c-.09.41-.21.81-.32 1.21-.12.45-.26.89-.41 1.33-.58 1.76-1.37 3.42-2.08 5.12-.76 1.68-1.54 3.35-2.39 5-.85 1.64-1.74 3.27-2.75 4.85l-1.07-.44c.39-1.83.91-3.61 1.46-5.38.56-1.76 1.18-3.5 1.83-5.23.69-1.71 1.31-3.45 2.13-5.1.2-.42.41-.83.64-1.23.24-.4.44-.81.7-1.21.49-.8 1.02-1.57 1.66-2.31l.58-.63m0-1.3c-.38 0-.74.16-.98.45l-.57.65c-.62.72-1.19 1.51-1.78 2.48-.17.26-.33.54-.49.82-.08.14-.15.27-.23.4-.23.4-.45.83-.69 1.32-.62 1.24-1.13 2.54-1.62 3.79-.18.46-.36.93-.55 1.39-.79 2.13-1.36 3.76-1.86 5.32-.54 1.72-1.09 3.57-1.5 5.5-.13.61.2 1.23.78 1.47l1.07.44c.16.07.33.1.49.1.43 0 .85-.22 1.09-.6 1.07-1.66 1.98-3.36 2.81-4.95.74-1.45 1.51-3.06 2.42-5.06.21-.5.41-.95.6-1.41.34-.79.69-1.6 1.02-2.43.48 1.35 1.05 2.67 1.6 3.95.23.54.46 1.07.68 1.61 1.57 3.72 3.24 7.62 5.13 11.93l2.63 5.93c.81 1.83 1.66 3.68 2.48 5.47l.2.45c.65 1.44 1.34 2.9 2 4.3l.75 1.58c.88 1.88 1.83 3.89 2.82 5.88.04.07.08.14.13.21l.1.13c.48.97 1.1 1.71 1.6 2.26.57.62 1.22 1.2 1.99 1.77.82.61 1.52 1.06 2.21 1.42.65.35 1.54.79 2.59 1.06a1.298 1.298 0 0 0 1.35-.46l.72-.91c.32-.41.37-.97.12-1.42-.52-.95-1.16-1.71-1.67-2.26-.51-.58-1.12-1.15-1.9-1.79-.75-.61-1.47-1.1-2.2-1.5-.68-.36-1.28-.63-1.87-.81-.58-1.66-1.19-3.33-1.91-5.27l-.61-1.65c-.54-1.46-1.09-2.97-1.67-4.45l-.17-.45c-.7-1.84-1.43-3.74-2.17-5.6l-2.38-6.03c-1.75-4.37-3.35-8.3-4.91-12.02-.23-.54-.45-1.08-.67-1.62-.6-1.45-1.21-2.96-1.94-4.41-.82-1.65-1.96-3.82-3.52-5.82l-.51-.65c-.24-.31-.6-.49-.99-.5 0-.01-.01-.01-.02-.01z" fill="#666"/><path d="M83.6 80.83c-.27 0-.53-.16-.64-.42-.01-.02-1.05-2.31-2.46-5.71-.89-2.1-1.92-4.64-2.87-7.02-.1 1.48-.34 2.89-.7 4.04-.33 1.12-.71 1.78-.72 1.81-.13.22-.36.36-.61.36l-1.24-.06a.688.688 0 0 1-.61-.42c-.01-.03-.32-.72-.55-1.89-.28-1.33-.37-3-.25-4.69l.42-6.35c.04-.6.09-1.2.16-1.82l.14-1.12c.02-.14.04-.29.15-.68.02-.07.09-.25.14-.35l.06-.12c.23-.49.85-.87.86-.88.33-.17.59-.31 1.11-.31.09 0 .19 0 .31.01.82.08 1.56.73 1.79 1.27l.14.35.4 1.05.32.89.61 1.76c1.61 4.79 3.13 9.53 4.16 13.01 1.06 3.53 1.7 5.96 1.71 5.98.09.36-.1.72-.45.85l-1.13.4c-.09.04-.17.06-.25.06z"/><path d="M76 55.91c.07 0 .16 0 .25.01.57.06 1.07.55 1.19.84l.01.03.04.11.09.22.39 1.03.31.88.61 1.76c1.58 4.7 3.09 9.42 4.15 12.98 1.07 3.56 1.7 5.96 1.7 5.96l-1.13.4s-1.03-2.26-2.46-5.69c-1.17-2.77-2.59-6.32-4.05-10.02-.05.93-.1 1.82-.14 2.64-.07 1.85-.37 3.38-.7 4.45-.32 1.07-.66 1.67-.66 1.67l-1.2-.06s-.29-.63-.5-1.73c-.23-1.1-.37-2.65-.24-4.51.12-1.86.27-4.03.42-6.35.04-.58.09-1.18.16-1.79l.12-.95c.04-.2.02-.27.15-.73.01-.03.05-.15.09-.22l.06-.12c-.01-.02.29-.44.55-.56.25-.15.4-.25.79-.25m0-1.42c-.64 0-1.01.17-1.37.35l-.07.04s-.81.46-1.16 1.18l-.06.12c-.08.16-.16.37-.2.5-.11.38-.14.57-.16.76l-.01.09c-.01.03-.01.06-.01.08l-.12.95c-.07.64-.12 1.25-.17 1.85l-.24 3.67-.18 2.7c-.12 1.75-.03 3.49.27 4.89.23 1.2.56 1.94.59 2.02.22.48.69.81 1.22.83l1.2.06h.07c.51 0 .98-.27 1.23-.71.04-.08.44-.78.79-1.97.14-.44.26-.93.37-1.45.64 1.59 1.28 3.15 1.87 4.53 1.42 3.4 2.46 5.7 2.47 5.72.24.52.75.83 1.29.83.16 0 .32-.03.48-.08l1.13-.4c.69-.25 1.08-.98.89-1.7-.01-.02-.65-2.47-1.72-6.01-1.03-3.48-2.55-8.23-4.16-13.03l-.62-1.77-.31-.88-.4-1.06-.1-.25-.04-.11c-.31-.76-1.24-1.62-2.36-1.73-.19-.01-.31-.02-.41-.02z" fill="#666"/><radialGradient id="a" cx="51.694" cy="76.869" r="4.207" gradientTransform="matrix(-1 0 0 1 129.06 0)" gradientUnits="userSpaceOnUse"><stop stop-color="#8F8F8F" offset="0"/><stop offset="1"/></radialGradient><path d="M78.68 84c-1.11-.03-2.32-.42-3.71-1.19-1.46-.81-3.36-2.2-4.11-4.22-.56-1.51-.3-3.64 1.11-4.58.62-.41 1.33-.62 2.13-.62 3.16 0 6.91 3.2 7.9 5.86.49 1.31.35 2.73-.37 3.6-.6.73-1.65 1.16-2.82 1.16l-.13-.01z" fill="url(#a)"/><path d="M74.1 74.88c2.47 0 5.69 2.73 6.49 4.88.29.78.24 1.68-.12 2.12-.31.37-.96.61-1.66.61h-.08c-.86-.02-1.85-.35-3.02-1-1.24-.69-2.84-1.84-3.44-3.43-.39-1.05-.14-2.36.54-2.82.36-.24.79-.36 1.29-.36m0-3c-1.04 0-2.05.27-2.97.88-1.96 1.32-2.5 4.14-1.68 6.35s2.73 3.87 4.79 5.01c1.35.75 2.84 1.33 4.39 1.37h.17c1.5 0 3.03-.56 3.98-1.71 1.13-1.38 1.24-3.4.61-5.07-1.19-3.21-5.45-6.83-9.29-6.83z" fill="#666"/><path d="M34 90.94c-.13 0-.27-.04-.38-.12a.636.636 0 0 1-.28-.43l-.22-1.17c-.07-.36.17-.71.53-.78l12.22-2.27c.62-2.14 1.36-4.45 2.27-7.02.44-1.27.89-2.53 1.37-3.79.49-1.31.94-2.54 1.43-3.76l.5-1.26c.32-.83.65-1.65.99-2.47l1.55-3.7c.46-1.14 1.02-2.46 1.79-3.7.66-1.07 1.5-2.3 2.77-3.39.11-.1.25-.15.4-.16l1.1-.05c.18 0 .35.07.47.2.99 1 1.8 2.08 2.45 3 .66.93 1.31 1.97 2.01 3.19.67 1.18 1.21 2.3 1.66 3.42.22.6.45 1.2.63 1.84.06.21.12.44.18.67l.07.28.06.26c.07.31.14.66.13.96a.68.68 0 0 1-.44.61l-1.12.41c-.07.03-.15.04-.23.04-.19 0-.38-.08-.5-.23-.1-.12-.19-.2-.28-.27-.12-.1-.23-.21-.36-.35l-.19-.22c-.15-.17-.3-.34-.44-.52-.42-.5-.8-1.04-1.14-1.52-.69-1-1.31-2.07-1.92-3.27-.42-.83-.78-1.59-1.09-2.3-.32 1.02-.74 2.02-1.26 3.16l-1.61 3.66c-.35.78-.71 1.56-1.07 2.33l-.61 1.32c-.54 1.19-1.12 2.37-1.7 3.55-.62 1.29-1.22 2.49-1.85 3.68-1.42 2.77-2.65 5.02-3.89 7.09l-.18.3c-.1.17-.26.28-.45.32l-13.24 2.46H34z"/><path d="M60.05 57.55c.91.91 1.66 1.9 2.38 2.92.72 1.01 1.36 2.07 1.98 3.14a26.94 26.94 0 0 1 1.62 3.33c.22.58.43 1.17.61 1.78.09.3.16.62.24.93.06.3.18.75.17 1.04l-1.12.41c-.24-.28-.42-.38-.64-.62-.21-.24-.42-.47-.62-.71-.4-.48-.76-.99-1.12-1.49-.7-1.02-1.31-2.09-1.87-3.18a37.81 37.81 0 0 1-1.53-3.37c-.11-.27-.2-.55-.3-.82-.09.44-.18.88-.3 1.32-.35 1.3-.87 2.53-1.42 3.75l-1.62 3.66c-.54 1.22-1.12 2.42-1.68 3.64-.55 1.22-1.14 2.41-1.73 3.62-.58 1.2-1.18 2.4-1.8 3.59-1.22 2.38-2.49 4.74-3.87 7.06l-.18.3-.26.05L34 90.27l-.22-1.17 12.63-2.34c.71-2.5 1.51-4.95 2.37-7.38.44-1.27.89-2.52 1.36-3.77s.93-2.51 1.43-3.75c.49-1.24.97-2.49 1.48-3.72l1.54-3.7c.5-1.24 1.03-2.46 1.74-3.61s1.5-2.26 2.64-3.23l1.08-.05m0-1.33h-.06l-1.07.05c-.3.01-.58.13-.81.32-1.33 1.14-2.21 2.43-2.9 3.54-.79 1.29-1.37 2.64-1.84 3.81l-1.54 3.68c-.33.81-.65 1.62-.97 2.43-.17.44-.34.88-.52 1.31-.49 1.2-.95 2.44-1.39 3.64l-.05.14c-.46 1.2-.91 2.45-1.37 3.8-.85 2.42-1.56 4.61-2.16 6.65l-11.82 2.19c-.72.13-1.2.83-1.07 1.55l.22 1.17c.06.35.26.66.56.86.22.15.49.23.75.23.08 0 .16-.01.24-.02l12.98-2.41.26-.05c.38-.07.71-.3.91-.64l.18-.3c1.24-2.07 2.48-4.34 3.91-7.13.66-1.26 1.25-2.45 1.81-3.62l.06-.13c.56-1.14 1.14-2.32 1.68-3.51.19-.42.39-.85.59-1.28.37-.79.74-1.58 1.09-2.37l1.62-3.67c.23-.51.48-1.07.72-1.66.13.27.27.56.42.85.63 1.23 1.27 2.32 1.96 3.34.36.51.76 1.06 1.2 1.59.13.16.29.34.45.52l.19.21c.16.19.31.31.42.41.09.08.15.13.21.21a1.332 1.332 0 0 0 1.46.38l1.12-.41c.51-.19.86-.67.88-1.22.01-.38-.07-.77-.15-1.11l-.04-.21c0-.02-.01-.05-.02-.07l-.06-.26c-.06-.25-.12-.5-.19-.74-.18-.63-.41-1.25-.63-1.85-.47-1.18-1.02-2.32-1.71-3.53-.72-1.27-1.37-2.3-2.05-3.25-.67-.95-1.49-2.05-2.52-3.09-.26-.21-.6-.35-.95-.35z" fill="#666"/><radialGradient id="b" cx="80.091" cy="63.492" r="4.55" gradientTransform="matrix(-1 0 0 1 129.06 0)" gradientUnits="userSpaceOnUse"><stop stop-color="#8F8F8F" offset="0"/><stop offset="1"/></radialGradient><path d="M49.61 69.11c-1.35 0-2.94-.42-4.03-1.08-1.73-1.04-3.42-2.96-3.24-4.37.2-1.62 1.95-2.53 3.49-2.57h.1c2.05 0 3.98 1.48 4.94 2.36 1.01.92 1.6 2 1.66 3.05.05.82-.11 1.44-.49 1.85-.46.49-1.33.76-2.43.76z" fill="url(#b)"/><path d="M45.93 62.59c1.11 0 2.58.74 3.93 1.97.71.65 1.14 1.39 1.18 2.04.03.48-.06.69-.09.73-.07.08-.47.29-1.34.29-1.09 0-2.4-.35-3.26-.87-1.53-.92-2.59-2.39-2.53-2.9.09-.72 1.13-1.23 2.04-1.25l.07-.01m0-3h-.14c-2.26.06-4.65 1.48-4.95 3.89-.28 2.33 2.09 4.72 3.96 5.84 1.27.76 3.11 1.29 4.8 1.29 2.45 0 4.62-1.1 4.42-4.21-.1-1.56-.98-2.99-2.15-4.06-1.58-1.46-3.73-2.75-5.94-2.75z" fill="#666"/><radialGradient id="c" cx="20.307" cy="75.48" r="21.575" gradientTransform="matrix(-1 0 0 1 129.06 0)" gradientUnits="userSpaceOnUse"><stop stop-color="#8F8F8F" offset="0"/><stop offset="1"/></radialGradient><path d="M109.89 99.13c-.68 0-1.39-.03-2.16-.08-6.28-.44-12.44-2.33-17.84-5.48-3.22-1.88-5.58-3.88-7.23-6.12-1.91-2.59-2.82-5.62-2.51-8.31.97-8.35 12.1-12.79 19.75-12.79.31 0 .62.01.92.02 7.23.34 14.23 4.28 18.73 10.54 2.6 3.62 3.81 7.71 3.39 11.51-.45 4.1-2.98 7.8-6.43 9.44-1.79.86-3.96 1.27-6.62 1.27z" fill="url(#c)"/><path d="M99.91 64.86v3c.29 0 .57.01.85.02 6.78.32 13.35 4.03 17.59 9.92 2.39 3.32 3.49 7.04 3.11 10.47-.4 3.59-2.59 6.83-5.58 8.25-1.59.75-3.55 1.12-5.98 1.12-.65 0-1.32-.02-2.05-.08a39.79 39.79 0 0 1-17.19-5.28c-3.04-1.77-5.25-3.64-6.78-5.71-1.68-2.29-2.49-4.93-2.23-7.24.87-7.48 11.17-11.46 18.26-11.46v-3.01c-8.41 0-20.16 4.79-21.24 14.12-.38 3.3.8 6.66 2.79 9.37s4.75 4.81 7.68 6.52a42.74 42.74 0 0 0 18.49 5.68c.75.05 1.51.08 2.26.08 2.51 0 5.03-.35 7.27-1.41 4.11-1.95 6.79-6.22 7.28-10.63.49-4.42-1.04-8.91-3.66-12.55-4.63-6.44-11.89-10.78-19.88-11.16-.33-.01-.66-.02-.99-.02z" fill="#666"/><path d="M35.32 43.17c-.82-.07-1.44-.79-1.37-1.62 0-.01.05-.59.09-1.65.05-1.12.06-2.79.05-4.42 0-1.74-.1-3.83-.28-6.23-.2-2.53-.52-4.89-.96-7.02-.47-2.46-1.09-4.73-1.86-6.74-.4-1.04-.83-2.02-1.26-2.91l-.69-1.29-.71-1.15-.15-.21c-.43-.61-.84-1.19-1.25-1.66-.29-.38-.57-.67-.84-.94-.14-.15-.28-.28-.4-.42-.7-.65-1.15-1.03-1.15-1.03-.63-.54-.74-1.43-.28-2.06.28-.39.74-.62 1.21-.62.32 0 .62.1.88.29 0 0 .54.39 1.45 1.13.16.15.3.28.45.41.34.31.73.65 1.11 1.09.5.5 1.05 1.16 1.74 2.09l.87 1.29.84 1.43c.65 1.21 1.13 2.24 1.52 3.25.87 2.2 1.58 4.66 2.12 7.32.44 2.29.75 4.8.93 7.48.17 2.53.13 4.82.08 6.53a60.75 60.75 0 0 1-.33 4.6c-.12 1.12-.22 1.77-.22 1.77-.11.73-.75 1.28-1.48 1.28.01.02-.1.02-.11.01z"/><path d="M25.47 3.72c.2 0 .41.06.59.19 0 0 .53.39 1.43 1.12.41.4.97.83 1.5 1.44.57.57 1.13 1.28 1.72 2.07.27.41.56.83.86 1.27.27.45.54.93.83 1.41.53.99 1.04 2.05 1.49 3.17.89 2.26 1.59 4.73 2.1 7.24.48 2.51.77 5.04.92 7.41.16 2.37.14 4.59.08 6.48-.06 1.9-.21 3.47-.33 4.57s-.21 1.74-.21 1.74a1 1 0 0 1-.99.85h-.08a.998.998 0 0 1-.91-1.08s.05-.59.09-1.67c.05-1.07.06-2.61.05-4.45 0-1.84-.11-3.98-.28-6.27-.18-2.28-.48-4.71-.97-7.08-.45-2.38-1.08-4.72-1.88-6.82-.41-1.05-.84-2.04-1.28-2.96-.24-.45-.48-.89-.7-1.31-.25-.41-.5-.8-.73-1.17-.51-.72-.97-1.39-1.44-1.93-.43-.57-.9-.98-1.25-1.37-.75-.7-1.2-1.08-1.2-1.08l-.04-.03c-.39-.34-.47-.92-.16-1.35.17-.25.48-.39.79-.39m0-1c-.64 0-1.24.31-1.62.82-.61.84-.47 2.03.32 2.7l.04.03s.43.37 1.13 1.02c.12.13.25.26.38.4.26.27.53.54.78.87.01.02.03.04.04.05.38.44.78 1.01 1.21 1.61l.15.22.36.58.34.54.45.84.24.44c.42.86.84 1.83 1.23 2.84.75 1.98 1.37 4.21 1.83 6.64.44 2.13.76 4.47.95 6.97.19 2.39.28 4.47.28 6.19 0 1.63 0 3.3-.05 4.4-.04 1.05-.09 1.63-.09 1.63-.09 1.1.73 2.07 1.83 2.16.06 0 .11.01.17.01.98 0 1.83-.73 1.98-1.7 0-.03.1-.68.22-1.79.11-1.08.28-2.71.33-4.65.05-1.72.09-4.03-.09-6.58-.18-2.7-.49-5.23-.94-7.54-.55-2.7-1.27-5.19-2.15-7.42-.4-1.02-.89-2.07-1.53-3.28l-.85-1.44c-.01-.02-.02-.04-.03-.05l-.86-1.27c-.73-.98-1.28-1.65-1.82-2.19-.39-.45-.78-.8-1.13-1.11a17 17 0 0 1-.41-.37l-.06-.06c-.9-.74-1.45-1.13-1.47-1.15-.33-.23-.74-.36-1.16-.36z" fill="#666"/><path d="M31.55 42.64c-.65 0-1.22-.42-1.42-1.04l-.47-1.46c-.21-.64-.51-1.47-.86-2.45l-.46-1.28c-.52-1.45-1.17-3.07-2.05-5.2-.13-.31-.27-.63-.41-.95-.27-.63-.54-1.28-.85-1.91-.48-1.05-.92-1.99-1.41-2.91-.51-1.08-1.07-2.09-1.51-2.85-.37-.7-.78-1.34-1.18-1.97l-.43-.68c-.32-.53-.67-1.01-1.01-1.48-.22-.3-.43-.59-.63-.88-.32-.46-.68-.87-1.02-1.26-.2-.23-.4-.46-.59-.69-.29-.36-.61-.66-.92-.94-.2-.19-.4-.37-.57-.55-.4-.43-.8-.73-1.18-.98l-1.3-.95c-.62-.46-.79-1.33-.39-1.99.27-.45.75-.71 1.27-.71.28 0 .55.08.78.22l1.38.85c.46.27 1.02.62 1.58 1.14.16.14.34.29.53.44.41.33.88.71 1.29 1.19.19.21.4.43.61.66.43.45.87.91 1.28 1.45.19.26.4.52.61.78.44.55.89 1.11 1.27 1.75l.42.65c.46.69.92 1.41 1.34 2.17.69 1.17 1.19 2.1 1.63 2.98.51 1 .97 2.02 1.44 3.07.32.68.6 1.37.87 2.05.13.32.26.65.4.96.78 1.96 1.39 3.79 1.93 5.47.5 1.55.83 2.86 1.08 3.81l.4 1.64c.18.76-.25 1.54-.99 1.78-.14.04-.3.07-.46.07z"/><path d="M14.15 10c.18 0 .36.05.52.15 0 0 .5.31 1.39.85.45.26.98.6 1.51 1.08.53.47 1.22.93 1.78 1.59.57.65 1.27 1.3 1.87 2.08.59.79 1.3 1.57 1.85 2.49.58.9 1.21 1.81 1.75 2.79.57.96 1.12 1.95 1.62 2.97.52 1.01.98 2.04 1.43 3.05.47 1.01.85 2.03 1.26 3 .78 1.96 1.4 3.83 1.91 5.43s.86 2.96 1.11 3.92c.23.96.37 1.51.37 1.51.12.5-.16 1.02-.66 1.19-.1.03-.21.05-.31.05-.42 0-.81-.27-.95-.69l-.01-.03s-.17-.52-.46-1.43-.78-2.2-1.33-3.75-1.28-3.33-2.06-5.22c-.41-.94-.8-1.93-1.27-2.89-.45-.98-.91-1.97-1.42-2.92-.47-.98-.99-1.94-1.51-2.86-.5-.95-1.08-1.81-1.62-2.67-.52-.87-1.14-1.61-1.65-2.38-.53-.76-1.13-1.36-1.64-1.98-.5-.62-1.07-1.06-1.52-1.52-.44-.47-.89-.8-1.26-1.05-.73-.54-1.15-.84-1.15-.84l-.14-.1a1 1 0 0 1-.26-1.32c.2-.33.52-.5.85-.5m0-1c-.7 0-1.33.35-1.7.95-.54.88-.31 2.04.52 2.65l.14.1 1.15.84c.37.26.75.53 1.12.93.19.2.39.39.6.58.3.27.6.56.87.89.19.23.39.47.6.7.34.39.69.78.99 1.22.2.29.41.59.64.89.34.46.68.93.98 1.43.15.24.29.47.44.69.39.62.8 1.26 1.15 1.92.44.78 1 1.78 1.5 2.83.51.96.94 1.88 1.42 2.91.31.64.58 1.29.85 1.91.14.32.27.65.41.96.71 1.73 1.46 3.57 2.03 5.16l.48 1.32c.35.95.64 1.77.84 2.39l.46 1.43c.28.86 1.04 1.41 1.91 1.41.21 0 .42-.03.62-.1.99-.32 1.57-1.36 1.32-2.37l-.37-1.51-.02-.1c-.25-.97-.6-2.3-1.1-3.89-.52-1.61-1.15-3.52-1.94-5.5-.14-.33-.27-.65-.4-.98-.27-.68-.56-1.38-.89-2.08-.46-1.04-.92-2.07-1.45-3.09-.43-.88-.94-1.82-1.65-3.02-.4-.75-.88-1.47-1.34-2.17-.15-.22-.29-.44-.43-.66-.39-.64-.85-1.22-1.3-1.78-.2-.25-.4-.51-.59-.76-.43-.57-.89-1.04-1.32-1.5-.21-.22-.41-.43-.6-.65-.43-.5-.92-.9-1.35-1.24-.18-.15-.36-.29-.51-.43-.59-.54-1.2-.92-1.67-1.2l-1.36-.79A2.05 2.05 0 0 0 14.15 9z" fill="#666"/><radialGradient id="d" cx="99.251" cy="48.152" r="14.634" gradientTransform="matrix(.5553 .8316 .9975 -.6661 -74.944 -1.116)" gradientUnits="userSpaceOnUse"><stop stop-color="#8F8F8F" offset="0"/><stop offset="1"/></radialGradient><path d="M32.1 72.34c-3.82 0-8-.89-12.42-2.64-3.92-1.55-6.73-3.26-8.87-5.38-2.55-2.54-4-5.72-3.99-8.74.05-9.14 10.53-12.13 13.74-12.82 2.68-.58 5.63-.89 8.53-.89 6.17 0 11.34 1.39 14.57 3.92 5.22 4.1 8.25 12.54 4.02 19.04-2.55 3.93-7.29 6.68-12.68 7.35-.93.11-1.91.16-2.9.16z" fill="url(#d)"/><path d="M29.1 40.37v3c5.83 0 10.68 1.28 13.64 3.6 4.7 3.69 7.45 11.25 3.69 17.04-2.32 3.56-6.65 6.06-11.61 6.67-.88.11-1.8.16-2.72.16-3.63 0-7.62-.85-11.87-2.53-3.72-1.47-6.38-3.08-8.36-5.05C9.6 61 8.31 58.21 8.33 55.59c.04-8.03 9.62-10.73 12.56-11.37 2.58-.56 5.42-.86 8.21-.86v-2.99c-3.15 0-6.22.35-8.85.92-7.23 1.57-14.87 5.99-14.92 14.28-.02 3.69 1.82 7.22 4.43 9.82s5.95 4.36 9.38 5.72c4.13 1.64 8.55 2.74 12.97 2.74 1.03 0 2.06-.06 3.09-.19 5.44-.67 10.77-3.42 13.75-8.02 4.47-6.88 1.85-16.17-4.36-21.03-3.95-3.1-9.84-4.24-15.49-4.24z" fill="#666"/><radialGradient id="e" cx="64.636" cy="71.765" r="6.359" gradientTransform="matrix(-1 0 0 1 129.06 0)" gradientUnits="userSpaceOnUse"><stop stop-color="#8F8F8F" offset="0"/><stop offset="1"/></radialGradient><path d="M66.28 83.81c-.4 0-.81-.03-1.21-.09-3.57-.54-6.98-2.29-9.6-4.94-1.89-1.92-4.34-4.8-3.74-7.73.54-2.68 2.08-3.93 4.84-3.93 3.19 0 7.21 1.74 9.78 3.46 2.44 1.64 4.79 3.51 5.44 6.08.43 1.71.25 4.07-1.12 5.49-1 1.06-2.6 1.66-4.39 1.66z" fill="url(#e)"/><path d="M56.57 68.63c2.86 0 6.64 1.66 8.95 3.2 2.19 1.47 4.3 3.12 4.82 5.2.39 1.55.08 3.23-.75 4.09-.72.75-1.93 1.19-3.31 1.19-.33 0-.66-.02-.98-.07-3.26-.49-6.37-2.09-8.76-4.51-2.62-2.66-3.68-4.68-3.34-6.37.4-1.99 1.32-2.73 3.37-2.73m0-3c-2.99 0-5.53 1.31-6.31 5.13-.72 3.52 1.82 6.73 4.15 9.08 2.79 2.82 6.51 4.78 10.44 5.37.47.07.95.11 1.43.11 2.04 0 4.08-.65 5.48-2.12 1.69-1.77 2.06-4.58 1.49-6.89-.79-3.14-3.49-5.25-6.06-6.97-2.59-1.73-6.95-3.71-10.62-3.71z" fill="#666"/><path d="M37.54 124.63c-.1 0-.2-.02-.29-.07l-1-.5a.655.655 0 0 1-.32-.8c.63-1.78 1.28-3.49 1.93-5.08.45-1.14.92-2.27 1.4-3.4.22-.53.45-1.06.67-1.59l.77-1.76c.47-1.07.94-2.13 1.42-3.19l.79-1.7c.47-1.01.93-2.03 1.42-3.04.17-.58.37-1.24.57-1.9.38-1.27.78-2.59 1.22-3.87l.98-2.95 1.05-2.95c.24-.7.51-1.4.79-2.1l.32-.83c.36-.98.76-1.95 1.17-2.92.29-.72.61-1.45.92-2.17l.31-.71c.47-1.05.92-1.99 1.37-2.87l.25-.5c.11-.22.34-.36.58-.36.07 0 .14.01.21.04l.57.2c1.93.67 3.7 1.48 5.17 2.19 1.46.72 3.18 1.59 4.89 2.59.79.46 1.59.92 2.37 1.4.93.56 1.67 1.05 2.33 1.53.75.55 1.43 1.12 2.06 1.71.04-.59.1-1.16.16-1.67.11-.87.24-1.64.39-2.35.07-.39.18-.87.47-1.32.26-.39.62-.83 1.33-1.18.09-.04.19-.07.29-.07.05 0 .09 0 .14.01l1.09.24c.14.03.27.11.37.22.5.62.65 1.16.73 1.62.08.54-.01 1.01-.12 1.43-.15.68-.35 1.43-.6 2.27-.23.73-.49 1.5-.81 2.27-.35.86-.7 1.57-1.1 2.23l-.26.43c-.12.2-.33.31-.56.31-.03 0-.06 0-.09-.01l-.58-.08c-.91-.12-1.81-.35-2.91-.74-.87-.31-1.74-.7-2.61-1.16-.73-.38-1.49-.83-2.41-1.42-.77-.48-1.54-1-2.3-1.51-1.68-1.12-3.27-2.33-4.47-3.25-.96-.76-1.84-1.5-2.67-2.24l-.18 1.01-.16.77c-.16.78-.32 1.55-.5 2.32-.23 1.01-.46 2.04-.73 3.05l-.22.86c-.18.73-.37 1.46-.58 2.18l-.83 2.99-.91 2.99c-.38 1.28-.81 2.58-1.22 3.83-.23.7-.47 1.4-.69 2.11l-.05.14c-.01.03-.03.07-.04.1l-.06.11c-.53 1.04-1.08 2.08-1.63 3.11l-.88 1.66c-.55 1.04-1.12 2.06-1.68 3.08l-.91 1.65-.85 1.49c-.61 1.07-1.23 2.14-1.87 3.2-.88 1.5-1.82 3.01-2.87 4.61a.59.59 0 0 1-.54.31z"/><path d="M53.85 80.03l.57.2c1.77.61 3.45 1.37 5.1 2.16 1.64.81 3.27 1.65 4.85 2.57.79.46 1.58.92 2.35 1.4.78.47 1.55.96 2.29 1.5s1.45 1.13 2.12 1.78c.32.31.63.64.94.99 0-.28 0-.56.01-.84.02-.79.1-1.56.19-2.33.1-.77.22-1.53.38-2.29.07-.38.16-.76.38-1.1.23-.35.52-.68 1.08-.95l1.09.24c.39.48.52.9.59 1.31.06.41-.01.79-.11 1.16-.17.76-.37 1.5-.59 2.25-.24.74-.48 1.48-.79 2.2-.29.73-.63 1.45-1.05 2.15l-.26.43-.58-.08c-.99-.13-1.9-.4-2.78-.71-.88-.32-1.72-.69-2.53-1.12-.81-.42-1.59-.9-2.35-1.39-.77-.49-1.53-.99-2.29-1.5-1.52-1.01-2.98-2.11-4.44-3.23-1.2-.95-2.38-1.95-3.51-3.02-.12.73-.24 1.46-.38 2.18-.21 1.02-.41 2.05-.65 3.06-.23 1.02-.46 2.03-.73 3.04-.26 1.01-.5 2.02-.79 3.02l-.84 3-.91 2.98c-.58 1.99-1.28 3.95-1.91 5.92l-.05.14-.06.11c-.82 1.6-1.67 3.18-2.51 4.77-.84 1.58-1.73 3.15-2.59 4.72-.9 1.56-1.77 3.13-2.71 4.67-.91 1.55-1.87 3.08-2.86 4.59l-1-.5c.6-1.7 1.24-3.39 1.92-5.06.66-1.68 1.38-3.32 2.07-4.98.73-1.64 1.44-3.29 2.18-4.92.73-1.58 1.45-3.16 2.2-4.73.61-1.95 1.16-3.91 1.83-5.85l.98-2.96 1.05-2.93c.34-.98.73-1.95 1.1-2.92.36-.97.76-1.94 1.16-2.9.39-.97.82-1.92 1.23-2.87.43-.95.87-1.9 1.35-2.84l.26-.52m0-1.3c-.48 0-.93.27-1.16.71l-.25.5c-.45.88-.89 1.82-1.37 2.89l-.31.7c-.32.72-.65 1.47-.95 2.23-.4.97-.8 1.94-1.17 2.92-.1.28-.21.56-.32.84-.27.69-.54 1.39-.79 2.11l-1.04 2.92-.99 2.98c-.44 1.28-.84 2.6-1.22 3.87-.19.64-.38 1.27-.58 1.91-.47.99-.93 1.98-1.38 2.97-.26.56-.52 1.12-.78 1.69-.49 1.07-.96 2.14-1.43 3.2-.25.58-.51 1.16-.77 1.74-.23.55-.45 1.07-.67 1.6-.47 1.12-.96 2.28-1.42 3.44-.65 1.59-1.3 3.31-1.93 5.09a1.3 1.3 0 0 0 .65 1.6l1 .5c.18.09.38.13.58.13.43 0 .84-.21 1.09-.59 1.03-1.59 2.01-3.15 2.89-4.64.64-1.05 1.26-2.14 1.87-3.2.28-.49.56-.98.85-1.47.32-.58.63-1.14.93-1.69.57-1.02 1.13-2.04 1.68-3.07.3-.57.6-1.13.89-1.69.55-1.03 1.09-2.06 1.62-3.1l.06-.11c.03-.06.06-.13.08-.2l.05-.14c.22-.69.45-1.39.68-2.08.42-1.26.85-2.56 1.24-3.87l.9-2.97.84-3.03c.21-.72.39-1.45.57-2.17.07-.29.15-.58.22-.87.27-1.01.5-2.03.73-3.07.19-.77.35-1.57.51-2.35l.13-.64c.58.5 1.19 1 1.83 1.5 1.22.94 2.83 2.16 4.52 3.29.78.52 1.54 1.03 2.32 1.52.92.59 1.7 1.06 2.44 1.45.89.47 1.8.87 2.69 1.19 1.13.4 2.1.65 3.05.78l.58.08c.06.01.12.01.17.01.45 0 .87-.23 1.11-.63l.26-.43c.42-.68.78-1.43 1.15-2.33.33-.78.6-1.59.82-2.3.26-.87.47-1.64.63-2.36.11-.42.22-.99.12-1.64-.09-.53-.26-1.2-.87-1.94-.19-.23-.45-.39-.73-.45l-1.09-.24c-.09-.02-.18-.03-.27-.03-.2 0-.4.05-.58.14-.85.42-1.29.97-1.58 1.39-.37.57-.5 1.13-.58 1.61-.14.68-.27 1.46-.39 2.34-.02.14-.03.28-.05.42-.37-.31-.75-.61-1.14-.9-.68-.5-1.43-.99-2.38-1.57-.77-.48-1.56-.94-2.37-1.41-1.75-1.02-3.55-1.93-4.92-2.61-1.51-.72-3.3-1.55-5.25-2.22l-.57-.2c-.16-.02-.31-.05-.45-.05z" fill="#666"/><path d="M111.03 125.27c-.19 0-.37-.08-.5-.23-.8-.95-1.58-1.96-2.31-3.02-.72-1.01-1.41-2.06-2.07-3.08-1.37-2.06-2.71-4.2-3.99-6.39-.02-.03-.03-.06-.05-.1l-.1-.25c-.54-1.33-.92-2.65-1.21-3.77-.29-1.13-.56-2.33-.83-3.8-.23-1.37-.43-2.59-.58-3.83l-.17-1.32c-.11-.82-.22-1.65-.32-2.48-.33-2.85-.58-5.35-.76-7.66-.11-1.39-.2-2.79-.26-4.19-.29.34-.58.66-.89.97-1 1.03-2.13 2.02-3.45 3-1.25.93-2.53 1.78-3.83 2.5-.71.39-1.45.74-2.08 1.04-.74.31-1.48.63-2.31.84l-.6.16a.88.88 0 0 1-.17.02c-.19 0-.37-.08-.5-.23l-.3-.36c-.69-.83-1.29-1.71-1.84-2.54-.59-.93-1.11-1.79-1.58-2.65-.5-.92-.99-1.82-1.38-2.78-.23-.55-.4-1.02-.55-1.48-.19-.59-.32-1.1-.4-1.6-.04-.28.09-.55.34-.68l1.07-.56c.1-.05.2-.07.3-.07.17 0 .33.06.45.18.36.34.7.74 1.09 1.25.29.38.58.79.9 1.3.56.86 1.01 1.77 1.46 2.66.46.92.87 1.84 1.29 2.85.09.23.18.47.27.71a.55.55 0 0 1 .07-.09c.46-.55.99-1.17 1.56-1.76 1.03-1.06 2.18-2.08 3.41-3.05 1.29-1.01 2.53-1.84 3.81-2.55.66-.38 1.37-.71 2.06-1.02l.21-.09c.68-.27 1.38-.55 2.17-.73l.81-.18c.05-.01.1-.02.14-.02.29 0 .55.19.63.48l.16.58c.73 2.72 1.31 5.46 1.73 7.54.45 2.27.9 4.75 1.36 7.58.13.81.25 1.62.37 2.43l.2 1.36c.21 1.31.36 2.65.49 3.83.14 1.49.21 2.72.24 3.9.02.99.02 2.27-.11 3.6 1.45 1.91 2.83 3.84 4.12 5.75.71 1.03 1.42 2.07 2.08 3.12.69 1.07 1.34 2.17 1.91 3.27.15.29.06.66-.21.84l-1 .67c-.1.1-.23.13-.35.13z"/><path d="M99.43 80.87l.16.58c.67 2.49 1.21 4.99 1.72 7.5.5 2.51.94 5.03 1.35 7.55.21 1.26.38 2.53.57 3.79.2 1.26.35 2.53.49 3.8.12 1.27.21 2.55.23 3.84.02 1.25 0 2.5-.13 3.78 1.47 1.94 2.89 3.91 4.25 5.92.71 1.02 1.41 2.05 2.07 3.1a35.76 35.76 0 0 1 1.88 3.23l-1 .67c-.81-.96-1.56-1.95-2.27-2.97-.72-1.01-1.4-2.05-2.08-3.09-1.38-2.07-2.69-4.18-3.96-6.33l-.1-.25c-.5-1.22-.86-2.46-1.19-3.7-.32-1.24-.59-2.5-.82-3.76-.21-1.26-.42-2.52-.57-3.79-.16-1.27-.34-2.53-.48-3.8-.29-2.54-.56-5.08-.76-7.63-.15-1.96-.27-3.93-.33-5.9l-.42.57c-.49.59-.98 1.18-1.51 1.71a27.71 27.71 0 0 1-3.38 2.94c-1.19.89-2.44 1.72-3.76 2.45-.66.36-1.35.69-2.04 1.01-.71.3-1.42.6-2.2.81l-.6.16-.3-.36c-.66-.79-1.23-1.63-1.79-2.48a52.39 52.39 0 0 1-1.55-2.6c-.48-.89-.96-1.77-1.34-2.71-.2-.47-.38-.94-.53-1.43-.16-.49-.29-.98-.38-1.51l1.07-.56c.38.37.71.77 1.02 1.17s.6.82.87 1.25c.55.85 1 1.75 1.45 2.65s.86 1.83 1.25 2.76c.24.6.46 1.21.67 1.82.25-.36.52-.71.78-1.05.49-.59.99-1.16 1.51-1.71 1.05-1.08 2.17-2.07 3.35-2.99 1.17-.92 2.4-1.76 3.72-2.49.65-.38 1.35-.69 2.04-1.01.72-.29 1.43-.59 2.23-.77l.81-.17m0-1.31c-.1 0-.19.01-.29.03l-.81.18c-.84.19-1.57.48-2.27.77l-.15.06c-.02.01-.04.02-.06.02-.72.33-1.45.66-2.15 1.07-1.28.71-2.55 1.56-3.87 2.6a34.76 34.76 0 0 0-3.47 3.1c-.33.35-.66.7-.95 1.05-.38-.91-.76-1.74-1.16-2.54l-.03-.06c-.45-.9-.92-1.83-1.5-2.73-.32-.51-.62-.94-.93-1.34-.39-.52-.76-.94-1.14-1.31-.25-.24-.57-.37-.9-.37-.2 0-.41.05-.6.15l-1.07.56c-.5.26-.77.81-.68 1.36.08.53.22 1.07.42 1.7.15.47.33.96.57 1.53.39.97.89 1.89 1.37 2.77l.03.05c.48.87 1 1.75 1.59 2.68.57.86 1.18 1.76 1.89 2.61l.3.36a1.307 1.307 0 0 0 1.33.43l.6-.16c.88-.23 1.67-.57 2.37-.87.68-.31 1.43-.67 2.16-1.07 1.33-.74 2.64-1.6 3.91-2.55 1.28-.96 2.39-1.92 3.38-2.93.05.89.11 1.78.18 2.67.19 2.31.44 4.82.77 7.68.1.83.2 1.65.31 2.47.06.45.12.89.17 1.34.15 1.24.34 2.42.58 3.84.28 1.5.55 2.73.85 3.87.31 1.15.69 2.5 1.25 3.86l.09.23c.03.07.06.13.09.2 1.29 2.19 2.63 4.34 3.99 6.39.68 1.04 1.37 2.1 2.11 3.13.73 1.06 1.52 2.09 2.34 3.05.26.3.62.46.99.46.25 0 .5-.07.72-.22l1-.67c.55-.37.73-1.09.43-1.68-.58-1.12-1.24-2.24-1.95-3.33-.66-1.05-1.38-2.1-2.08-3.11-1.25-1.85-2.59-3.72-4-5.59.1-1.28.1-2.48.09-3.42-.03-1.19-.1-2.44-.24-3.94-.14-1.21-.29-2.55-.5-3.89-.07-.44-.13-.88-.2-1.33-.12-.82-.24-1.65-.38-2.47-.46-2.84-.91-5.33-1.36-7.6-.42-2.09-1-4.85-1.74-7.58l-.16-.58c-.14-.54-.66-.93-1.24-.93z" fill="#666"/><path d="M17.25 110.98a.57.57 0 0 1-.22-.04.703.703 0 0 1-.37-.33l-.48-1.01a.651.651 0 0 1 .31-.86l11.59-5.46c.18-.99.41-2.01.7-3.03.32-1.16.68-2.3 1.07-3.4.68-1.98 1.51-3.93 2.31-5.82l.31-.72c.96-2.22 1.94-4.38 2.92-6.41 1-2.03 2.07-4.18 3.29-6.29l.24-.41a.65.65 0 0 1 .75-.29l.61.18c.78.23 1.56.55 2.4.97.66.32 1.35.7 2.16 1.21 1.39.87 2.64 1.86 3.91 2.88.41.33.81.67 1.21 1.01l.64.54c.41.34.8.7 1.19 1.06.2.19.41.37.61.56.76.73 1.45 1.42 2.07 2.09l.06-.14c.29-.61.63-1.17 1.03-1.69.3-.41.64-.78.97-1.14l.23-.25c.42-.45.83-.88 1.26-1.31.42-.42.86-.84 1.31-1.25.17-.15.32-.29.48-.43.29-.27.59-.53.9-.78 1.08-.91 2.04-1.62 3-2.2.11-.06.22-.1.34-.1.16 0 .31.06.43.17l.84.71c.21.19.28.5.15.76-.47 1.02-1.07 2.05-1.86 3.24-.21.33-.44.65-.67.97l-.36.51c-.36.5-.73.98-1.11 1.45-.37.47-.76.93-1.15 1.38l-.21.24c-.33.38-.66.76-1.05 1.12-.47.45-.99.85-1.53 1.18l-.27.15c-.21.12-.43.24-.67.34a5.7 5.7 0 0 1-1.04.37l-.58.15c-.05.01-.11.02-.16.02-.09 0-.18-.02-.26-.06l-.17-.08c-1.59-.71-3.07-1.57-4.34-2.32-.26-.17-.5-.32-.75-.47-.44-.28-.88-.55-1.31-.85l-.68-.46c-.44-.3-.88-.59-1.3-.9-1.26-.91-2.6-1.89-3.81-3-.7-.64-1.25-1.2-1.75-1.77-.06-.06-.11-.13-.17-.19-.4 1.38-.85 2.84-1.41 4.51-.74 2.16-1.55 4.38-2.41 6.62l-.3.77c-.75 1.9-1.52 3.86-2.42 5.75-.48 1.03-1.02 2.1-1.61 3.17-.62 1.14-1.25 2.15-1.92 3.08l-.17.24c-.07.09-.15.16-.25.21l-12.25 5.77c-.1.06-.19.08-.28.08z"/><path d="M39.49 77.51l.61.18c.82.24 1.57.56 2.3.93.73.35 1.43.75 2.11 1.18 1.36.85 2.61 1.84 3.85 2.83.62.5 1.22 1.03 1.83 1.54s1.19 1.07 1.78 1.6c.95.91 1.88 1.85 2.76 2.86.02-.08.03-.18.06-.26.09-.32.23-.59.35-.88.27-.56.59-1.07.94-1.54.35-.48.77-.91 1.17-1.34.41-.43.81-.87 1.24-1.28.42-.42.85-.83 1.29-1.24.45-.39.88-.81 1.35-1.18.92-.77 1.87-1.51 2.93-2.16l.83.74c-.53 1.12-1.15 2.15-1.82 3.15-.32.51-.69.98-1.03 1.47-.35.48-.71.95-1.09 1.42-.37.47-.75.92-1.14 1.37s-.77.9-1.21 1.31c-.43.41-.91.78-1.43 1.11-.28.15-.53.32-.84.44-.29.14-.61.25-.95.34l-.58.15-.17-.08c-1.5-.67-2.89-1.47-4.27-2.29-.67-.43-1.36-.84-2.02-1.29s-1.33-.89-1.97-1.36c-1.29-.93-2.58-1.88-3.76-2.96-.59-.54-1.16-1.1-1.7-1.72-.33-.37-.64-.76-.94-1.16-.53 1.92-1.12 3.82-1.74 5.71-.76 2.22-1.56 4.41-2.4 6.59-.86 2.17-1.7 4.36-2.7 6.47-.49 1.06-1.03 2.11-1.6 3.14-.56 1.03-1.18 2.04-1.88 3.02l-.17.24-.1.05-12.14 5.72-.48-1.01 11.9-5.61c.19-1.12.44-2.22.74-3.29.31-1.13.66-2.25 1.06-3.36.76-2.21 1.69-4.36 2.6-6.51.93-2.15 1.9-4.28 2.91-6.39 1.03-2.1 2.08-4.2 3.27-6.24l.25-.41m0-1.3c-.45 0-.89.24-1.12.65l-.24.41c-1.24 2.14-2.32 4.29-3.31 6.32-.99 2.07-1.97 4.23-2.93 6.44l-.32.76c-.8 1.89-1.63 3.85-2.32 5.85-.39 1.08-.75 2.24-1.08 3.43-.26.92-.48 1.84-.65 2.75l-11.29 5.32c-.31.15-.55.41-.67.74-.12.32-.1.68.05.99l.48 1.01a1.305 1.305 0 0 0 1.73.63l12.14-5.72.1-.05c.2-.09.37-.24.5-.42l.17-.24c.68-.96 1.32-1.99 1.96-3.15.59-1.07 1.15-2.15 1.64-3.21.9-1.9 1.68-3.87 2.43-5.78l.3-.76c.87-2.26 1.68-4.5 2.42-6.65.41-1.25.77-2.38 1.09-3.44.35.36.74.74 1.18 1.15 1.23 1.13 2.54 2.09 3.87 3.05.42.31.86.6 1.3.9.23.16.46.31.69.47.45.31.91.6 1.35.87.24.15.47.29.7.45 1.32.79 2.82 1.66 4.44 2.38l.17.08c.17.07.35.11.53.11.11 0 .22-.01.32-.04l.58-.15c.42-.11.81-.25 1.16-.42.27-.12.5-.25.71-.36.07-.04.14-.08.22-.12.02-.01.05-.03.07-.04.57-.36 1.12-.78 1.63-1.27.4-.37.74-.77 1.08-1.15l.21-.24c.41-.48.8-.94 1.18-1.42.41-.51.78-.99 1.12-1.46.13-.19.25-.35.37-.52.23-.32.47-.65.7-1.01.8-1.2 1.41-2.25 1.9-3.3.25-.52.12-1.14-.31-1.52l-.83-.74c-.24-.22-.55-.33-.87-.33-.23 0-.47.06-.68.19-.98.6-1.96 1.32-3.08 2.27-.31.25-.61.53-.91.79-.15.14-.3.27-.46.41-.45.41-.88.82-1.35 1.3-.43.42-.84.87-1.25 1.29l-.25.27c-.34.37-.7.76-1.03 1.21-.27.35-.51.72-.73 1.1-.45-.46-.93-.94-1.44-1.43-.24-.22-.44-.4-.65-.59-.38-.35-.78-.72-1.2-1.07-.22-.18-.43-.36-.64-.54-.4-.34-.81-.69-1.22-1.02-1.28-1.03-2.55-2.03-3.97-2.92-.82-.52-1.53-.91-2.24-1.25-.85-.43-1.67-.76-2.49-1l-.61-.18a.719.719 0 0 0-.35-.08z" fill="#666"/><ellipse transform="rotate(-61.02 34.282 55.197)" cx="34.28" cy="55.2" rx="6.06" ry="6.06" fill="#fff"/><ellipse transform="rotate(-3.848 34.276 55.187)" cx="34.28" cy="55.2" rx="2.77" ry="2.77"/></svg>