<svg viewBox="0 0 128 128" xmlns="http://www.w3.org/2000/svg"><linearGradient id="a" x1="13.502" x2="67.438" y1="85.3" y2="85.3" gradientTransform="matrix(1.0353 .0784 -.0778 1.0278 -3.624 -49.577)" gradientUnits="userSpaceOnUse"><stop stop-color="#B0B0B0" offset=".102"/><stop stop-color="#B2B2B2" offset=".15"/><stop stop-color="#BDBDBD" offset=".48"/></linearGradient><path d="M37.05 71.97c-5.92 0-16.73-2.68-22.26-8.64-2.48-2.68-3.61-5.75-3.35-9.13.05-.66-.34-1.28-.97-1.52a1.492 1.492 0 0 0-1.73.5c-1.03 1.36-1.47 2.86-1.61 4.48-3.72-6.15-1.87-11.83.65-15.76.35-.55.31-1.26-.1-1.76-.29-.36-.72-.55-1.16-.55-.18 0-.37.03-.54.1l-2.37.92c.58-4.9 3.53-9.78 8.19-13.37.47-.36.68-.96.54-1.53s-.6-1.01-1.18-1.13c-.83-.16-1.94-.34-3.26-.34 4.26-5.35 11.06-7.34 14.46-7.62.68-.06 1.23-.56 1.35-1.23s-.23-1.34-.85-1.62c-.71-.33-1.34-.58-1.97-.79 2.03-.71 4.11-1.06 6.28-1.06 3.76 0 7.76 1.03 12.22 3.16.21.1.43.15.64.15.48 0 .94-.23 1.23-.64.42-.6.34-1.42-.18-1.93-.26-.25-.55-.64-.86-1.05 5.44.16 12.99 1.84 19.28 12.08 2.35 3.82.38 11.47-.92 16.52-.22.87-.43 1.68-.61 2.42-.49 2.06-.8 4.24-1.13 6.55-.72 5.12-1.47 10.41-4.32 13.94-3.04 3.75-8.13 6.4-12.71 8.5-.15.07-.9.35-2.76.35z" fill="url(#a)"/><path d="M43.02 13.34c4.69.71 10.34 3.18 15.22 11.12 2.02 3.28.14 10.55-1.09 15.37-.22.87-.44 1.7-.61 2.45-.51 2.13-.84 4.45-1.15 6.69-.69 4.92-1.41 10-4 13.2-2.84 3.51-7.74 6.05-12.16 8.07-.01 0-.55.22-2.17.22-5.48 0-16-2.59-21.16-8.16-2.22-2.39-3.18-5.01-2.96-7.99a3 3 0 0 0-1.93-3.03c-.35-.13-.71-.19-1.06-.19-.92 0-1.82.43-2.39 1.19-.25.34-.48.68-.67 1.02-.88-3.41-.16-6.96 2.17-10.59.7-1.09.62-2.51-.21-3.52a2.998 2.998 0 0 0-3.2-.97c1.1-3.61 3.56-7.08 7.08-9.79.93-.72 1.36-1.92 1.09-3.07s-1.19-2.03-2.35-2.25c-.11-.02-.22-.04-.34-.06 3.83-3.37 8.73-4.71 11.38-4.93a3.006 3.006 0 0 0 2.32-4.54c.78-.1 1.57-.16 2.38-.16 3.54 0 7.32.99 11.57 3.01.41.2.85.29 1.29.29.95 0 1.88-.46 2.46-1.28.42-.63.58-1.38.49-2.1m-3.72-3.25c-.75 0-1.45.02-2.09.06.92.9 1.92 2.68 2.83 3.58-4.67-2.22-8.91-3.3-12.86-3.3-3.82 0-7.36 1.01-10.72 2.97 2.58.59 3.83.83 5.77 1.73-5.11.43-13.44 3.6-17.36 11.02 1.07-.29 2.09-.4 3.02-.4 1.17 0 2.19.16 2.98.31C5.54 30.17 1.81 36.36 2 42.85c1.5-.58 3.01-1.17 4.51-1.75-3.37 5.26-5.37 13.16 2.3 21.16-.38-3.41-.47-6.06 1.12-8.17-1.04 13.75 18.38 19.38 27.12 19.38 1.51 0 2.71-.17 3.42-.49 4.81-2.2 10.02-4.93 13.25-8.92 4.43-5.47 4.14-14.38 5.74-21.09 1.32-5.52 4.44-15.05 1.35-20.08-6.98-11.33-15.7-12.8-21.51-12.8z" fill="#A3A3A3"/><circle cx="32.73" cy="40.53" r="14.75" fill="#FFBDBD"/><linearGradient id="b" x1="1094" x2="1147.9" y1="2.732" y2="2.732" gradientTransform="matrix(-1.0353 .0784 .0778 1.0278 1256.7 -49.577)" gradientUnits="userSpaceOnUse"><stop stop-color="#B0B0B0" offset=".102"/><stop stop-color="#B2B2B2" offset=".15"/><stop stop-color="#BDBDBD" offset=".48"/></linearGradient><path d="M90.96 71.8c-1.87 0-2.61-.27-2.79-.36-4.58-2.1-9.67-4.75-12.71-8.5-2.85-3.52-3.6-8.82-4.32-13.94-.33-2.31-.63-4.49-1.12-6.55-.18-.74-.39-1.55-.61-2.42-1.3-5.06-3.27-12.71-.92-16.53 6.29-10.24 13.84-11.92 19.28-12.08-.31.42-.6.8-.86 1.05-.52.51-.6 1.33-.18 1.93.29.41.75.64 1.23.64.22 0 .44-.05.64-.15 4.46-2.13 8.45-3.16 12.22-3.16 2.18 0 4.26.35 6.29 1.06-.62.21-1.25.46-1.97.79-.62.29-.96.95-.85 1.62.12.67.67 1.18 1.35 1.23 3.39.29 10.2 2.27 14.46 7.62-1.32 0-2.43.18-3.26.34-.58.11-1.04.55-1.17 1.13a1.5 1.5 0 0 0 .54 1.53c4.66 3.59 7.61 8.47 8.19 13.37l-2.37-.92c-.18-.07-.36-.1-.54-.1-.44 0-.87.19-1.16.55-.41.5-.45 1.21-.1 1.76 2.52 3.93 4.38 9.61.65 15.76-.14-1.62-.58-3.12-1.61-4.48-.29-.38-.74-.6-1.2-.6-.18 0-.36.03-.53.1-.62.24-1.02.85-.97 1.52.26 3.38-.87 6.45-3.35 9.13-5.53 5.98-16.35 8.66-22.26 8.66z" fill="url(#b)"/><path d="M84.98 13.18c-.09.72.08 1.47.52 2.1.58.83 1.51 1.28 2.46 1.28.43 0 .88-.09 1.29-.29 4.25-2.03 8.03-3.01 11.57-3.01.81 0 1.6.05 2.38.16-.36.61-.51 1.34-.38 2.07a3.015 3.015 0 0 0 2.7 2.47c2.65.23 7.56 1.56 11.38 4.93-.12.02-.24.04-.34.06-1.16.22-2.08 1.1-2.35 2.25s.15 2.35 1.09 3.07c3.51 2.71 5.98 6.18 7.08 9.79a2.998 2.998 0 0 0-3.2.97c-.82 1-.91 2.42-.21 3.52 2.33 3.64 3.05 7.18 2.17 10.59-.2-.35-.42-.69-.67-1.02a2.983 2.983 0 0 0-2.39-1.19c-.35 0-.71.06-1.06.19a2.996 2.996 0 0 0-1.93 3.03c.23 2.99-.74 5.6-2.96 7.99-5.16 5.57-15.68 8.16-21.16 8.16-1.62 0-2.17-.22-2.17-.22-4.42-2.02-9.33-4.57-12.17-8.08-2.59-3.2-3.31-8.28-4-13.2-.32-2.24-.64-4.56-1.15-6.69-.18-.75-.39-1.57-.61-2.45-1.24-4.81-3.11-12.09-1.09-15.37 4.86-7.93 10.51-10.41 15.2-11.11m3.72-3.26c-5.81 0-14.53 1.47-21.5 12.81-3.09 5.03.03 14.56 1.35 20.08 1.6 6.71 1.31 15.62 5.74 21.09 3.23 3.99 8.44 6.72 13.25 8.92.71.33 1.9.49 3.42.49 8.74 0 28.15-5.63 27.11-19.38 1.59 2.11 1.5 4.76 1.12 8.17 7.67-8 5.67-15.9 2.3-21.16 1.5.58 3.01 1.17 4.51 1.75.18-6.49-3.54-12.68-8.87-16.79.78-.15 1.81-.31 2.98-.31.93 0 1.95.1 3.02.4-3.92-7.42-12.25-10.58-17.36-11.02 1.94-.9 3.19-1.14 5.77-1.73-3.36-1.96-6.9-2.97-10.72-2.97-3.95 0-8.2 1.08-12.86 3.3.92-.9 1.92-2.68 2.83-3.58-.64-.05-1.34-.07-2.09-.07z" fill="#A3A3A3"/><circle cx="95.67" cy="40.36" r="14.75" fill="#FFBDBD"/><linearGradient id="c" x1="64" x2="64" y1="116.58" y2="19.724" gradientUnits="userSpaceOnUse"><stop stop-color="#B0B0B0" offset=".102"/><stop stop-color="#C4C4C4" offset=".314"/><stop stop-color="#CFCFCF" offset=".482"/></linearGradient><path d="M64 116.58c-30.98 0-48.74-12.81-48.74-35.15 0-22.92 10.27-61.71 48.74-61.71 33.62 0 48.74 36.09 48.74 61.71 0 22.34-17.76 35.15-48.74 35.15z" fill="url(#c)"/><path d="M64 21.22c32.58 0 47.24 35.21 47.24 60.21 0 11.08-4.34 19.61-12.9 25.35-8.1 5.43-19.97 8.3-34.34 8.3s-26.24-2.87-34.34-8.3c-8.56-5.74-12.9-14.27-12.9-25.35 0-22.36 9.95-60.21 47.24-60.21m0-3c-38.49 0-50.24 37.83-50.24 63.21s21.2 36.65 50.24 36.65 50.24-11.27 50.24-36.65-15-63.21-50.24-63.21z" fill="#A3A3A3"/><g fill="none" stroke="#404040" stroke-linecap="round" stroke-linejoin="round" stroke-miterlimit="10" stroke-width="3"><path d="M63.74 93.42a8.209 8.209 0 1 1-16.42 0M80.69 93.42c0 4.54-3.68 8.21-8.21 8.21-4.54 0-8.21-3.68-8.21-8.21"/></g><linearGradient id="d" x1="64.003" x2="64.003" y1="50.558" y2="93.382" gradientUnits="userSpaceOnUse"><stop stop-color="#616161" offset=".106"/><stop stop-color="#212121" offset=".672"/><stop offset="1"/></linearGradient><path d="M49.35 74.35c0 10.6 6.56 19.2 14.65 19.2s14.65-8.6 14.65-19.2S71.01 49.98 64 49.98c-7 0-14.65 13.76-14.65 24.37z" fill="url(#d)"/><g fill="#404040"><path d="M42.5 72.28s-.03-.04-.08-.12l-.23-.32c-.08-.09-.18-.21-.29-.34-.12-.14-.25-.29-.39-.44s-.3-.3-.45-.42c-.15-.13-.32-.23-.45-.32-.14-.09-.27-.12-.35-.14-.05-.02-.08-.02-.11-.02-.02 0-.03-.01-.05 0h-.04.15l-.3.01c-.08 0-.02.01-.02.01h.04c.04-.02 0 0-.01 0-.02 0-.04 0-.06.01-.08.03-.21.05-.35.14-.14.08-.3.18-.45.32-.15.13-.31.28-.45.42-.28.3-.53.6-.7.82-.18.22-.28.35-.28.35l-.12.16c-.74.94-2.09 1.1-3.03.36-.63-.5-.91-1.29-.79-2.04 0 0 .04-.24.14-.65.11-.41.3-1.01.67-1.7s.91-1.51 1.82-2.25c.45-.37.99-.73 1.64-.97.16-.07.32-.12.5-.17s.32-.1.56-.14l.33-.05c.1-.01.25-.03.27-.03l.3-.02h.28l.14.01.27.02c.18.02.36.05.54.08.35.07.7.17 1.02.3.65.24 1.19.61 1.64.97.91.74 1.45 1.56 1.82 2.25.19.35.33.67.43.96.11.28.19.57.26.79.06.21.06.32.08.42.02.09.02.14.02.14.2 1.18-.6 2.3-1.78 2.5-.86.13-1.68-.25-2.14-.9zM90.43 72.28s-.03-.04-.08-.12l-.23-.32c-.08-.09-.18-.21-.29-.34-.12-.14-.25-.29-.39-.44s-.3-.3-.45-.42c-.15-.13-.32-.23-.45-.32-.14-.09-.27-.12-.35-.14-.05-.02-.08-.02-.11-.02-.02 0-.03-.01-.05 0h-.04.15l-.3.01c-.08 0-.02.01-.02.01h.04c.04-.02 0 0-.01 0-.02 0-.04 0-.06.01-.08.03-.21.05-.35.14-.14.08-.3.18-.45.32-.15.13-.31.28-.45.42-.28.3-.53.6-.7.82-.18.22-.28.35-.28.35l-.12.16c-.74.94-2.09 1.1-3.03.36-.63-.5-.91-1.29-.79-2.04 0 0 .04-.24.14-.65.11-.41.3-1.01.67-1.7s.91-1.51 1.82-2.25c.45-.37.99-.73 1.64-.97.16-.07.32-.12.5-.17s.32-.1.56-.14l.33-.05c.1-.01.25-.03.27-.03l.3-.02h.28l.14.01.27.02c.18.02.36.05.54.08.35.07.7.17 1.02.3.65.24 1.19.61 1.64.97.91.74 1.45 1.56 1.82 2.25.19.35.33.67.43.96.11.28.19.57.26.79.06.21.06.32.08.42.02.09.02.14.02.14.2 1.18-.6 2.3-1.78 2.5-.86.13-1.68-.25-2.14-.9z"/></g></svg>