<svg viewBox="0 0 128 128" xmlns="http://www.w3.org/2000/svg" xmlns:xlink="http://www.w3.org/1999/xlink"><linearGradient id="a" x1="7.2" x2="41.6" y1="25.9" y2="25.9" gradientUnits="userSpaceOnUse"><stop stop-color="#FFB700" offset=".5"/><stop stop-color="#FFB503" offset=".6"/><stop stop-color="#FFB10E" offset=".8"/><stop stop-color="#FFA920" offset=".9"/><stop stop-color="#FFA723" offset=".9"/></linearGradient><circle cx="24.4" cy="25.9" r="17.2" fill="url(#a)" stroke="#DE8900" stroke-linejoin="round" stroke-miterlimit="10" stroke-width="3"/><circle cx="24.4" cy="25.9" r="9.8" fill="#fff"/><linearGradient id="b" x1="86.4" x2="120.8" y1="25.9" y2="25.9" gradientUnits="userSpaceOnUse"><stop stop-color="#FFB700" offset=".5"/><stop stop-color="#FFB503" offset=".6"/><stop stop-color="#FFB10E" offset=".8"/><stop stop-color="#FFA920" offset=".9"/><stop stop-color="#FFA723" offset=".9"/></linearGradient><circle cx="103.6" cy="25.9" r="17.2" fill="url(#b)" stroke="#DE8900" stroke-linejoin="round" stroke-miterlimit="10" stroke-width="3"/><circle cx="103.6" cy="25.9" r="9.8" fill="#fff"/><linearGradient id="c" x1="64" x2="64" y1="13.7" y2="116.8" gradientUnits="userSpaceOnUse"><stop stop-color="#FFB700" offset=".5"/><stop stop-color="#FCB402" offset=".6"/><stop stop-color="#F2A90A" offset=".7"/><stop stop-color="#E29717" offset=".9"/><stop stop-color="#D98E1E" offset=".9"/></linearGradient><path d="M64 117.8c-25.8 0-53.5-16.4-53.5-52.5S38.2 12.8 64 12.8a55 55 0 0 1 37.2 13.6 50.6 50.6 0 0 1 16.3 39c0 15.8-5.6 29.2-16.3 38.8A55.3 55.3 0 0 1 64 117.8z" fill="url(#c)"/><path d="M64 14.3a49.2 49.2 0 0 1 52 51c0 15.4-5.5 28.5-15.8 37.8A53.8 53.8 0 0 1 64 116.3c-25 0-52-16-52-51 0-15.6 5.5-28.8 15.8-38a54 54 0 0 1 36.2-13m0-3c-28.6 0-55 18.7-55 54 0 35.2 26.4 54 55 54s55-19.3 55-54c0-34.8-26.4-54-55-54z" fill="#DE8900"/><g fill="#404040"><ellipse cx="37.1" cy="58.3" rx="8.8" ry="10"/><ellipse cx="90.9" cy="58.2" rx="8.8" ry="10"/></g><path d="M64 91.5c10.6 0 19.2-4.4 19.2 1s-8.6 21.3-19.2 21.3-19.2-15.9-19.2-21.3 8.6-1 19.2-1z" fill="#ccc"/><path d="M64 86.3c14.1 0 25.5-4 25.5 1S78.1 106.5 64 106.5 38.5 92.2 38.5 87.2s11.4-.9 25.5-.9z" fill="#231F20"/><path d="M57.5 47l.3-.4.2-.3.3-.2a7 7 0 0 1 1.8-1.3l1.2-.4c.4-.2.8-.3 1.3-.3l1.4-.2c.5 0 1 0 1.4.2.5 0 1 .1 1.3.3l1.2.5 1 .5a6 6 0 0 1 1.6 1.7 1.7 1.7 0 0 1-1.5 2.6h-.3l-.5-.1-1.1-.2a21.7 21.7 0 0 0-6.2 0h-.8l-.3.1-.5.2c-1 .1-1.9-.5-2-1.5-.1-.4 0-.8.2-1.2zm-4.9-10l.7-.7.3-.4.6-.4 1.3-1 .8-.5 1-.5 2-.8 2.3-.5c.8-.2 1.6-.2 2.4-.2.8 0 1.6 0 2.4.2.8 0 1.6.3 2.3.5l2 .8 1 .5.8.5c.5.3 1 .6 1.3 1l1 .8.6.8c.6.7.5 1.8-.2 2.3-.5.3-1 .4-1.4.3h-.2l-1-.3-.9-.3-1.2-.3-1.4-.3-1.6-.3-1.7-.2h-3.5l-1.7.2-1.6.3-1.5.3-1.1.3-.5.2-.5.1-1 .3a1.7 1.7 0 0 1-1.8-2.6zm-1.5-10l.8-.8.4-.4.6-.5c.5-.4 1-.8 1.5-1l1-.7 1-.5 2.3-.8a11 11 0 0 1 2.6-.6c.8-.2 1.8-.2 2.7-.2 1 0 1.8 0 2.7.2 1 0 1.8.3 2.6.5l2.3 1 1 .4 1 .6a11.2 11.2 0 0 1 2.5 2l.8 1a1.6 1.6 0 0 1-1.7 2.6h-.1l-1-.4-1.2-.4-1.4-.4-1.6-.4L68 28l-2-.2-2-.1h-2l-2 .3-1.8.3a17 17 0 0 0-3 .8l-.7.2-.5.2-1 .4c-1 .2-1.9-.3-2.2-1.2a2 2 0 0 1 .3-1.5z" fill="#404040"/><path d="M64 58.5a8 8 0 0 0-8 8v10.3a8 8 0 0 0 16 0V66.4a8 8 0 0 0-8-8z" fill="#FF9D00"/><g fill="#fff"><circle cx="51.2" cy="85.4" r="16.2"/><circle cx="76.8" cy="85.4" r="16.2"/></g><linearGradient id="d" x1="64" x2="64" y1="70" y2="79.2" gradientUnits="userSpaceOnUse"><stop stop-color="#4D4D4D" offset=".2"/><stop stop-color="#373737" offset=".4"/><stop stop-color="#0F0F0F" offset=".8"/><stop offset="1"/></linearGradient><path d="M64 78.9c3.2 0 6.2-3.3 8-6 .9-1.3 0-2.9-1.6-2.9H57.6c-1.6 0-2.5 1.6-1.6 3 1.8 2.6 4.8 5.9 8 5.9z" fill="url(#d)"/><defs><path id="e" d="M119 65.3c0-34.8-26.4-54-55-54S9 30 9 65.3c0 35.2 26.4 54 55 54s55-19.3 55-54z"/></defs><clipPath id="f"><use xlink:href="#e"/></clipPath><g clip-path="url(#f)" fill="#404040"><path d="M9.6 59.2L22.3 61c.9 0 1.4.8 1.3 1.7 0 .7-.6 1.2-1.3 1.3L9.6 65.7a3.3 3.3 0 1 1 0-6.5zm0 10L22.3 71c.9 0 1.4.8 1.3 1.7 0 .7-.6 1.2-1.3 1.3L9.6 75.7a3.3 3.3 0 1 1 0-6.5zm0-19.5l12.7 1.8c.9 0 1.4.8 1.3 1.7 0 .7-.6 1.2-1.3 1.3L9.6 56.2a3.3 3.3 0 1 1 0-6.5zm109.1 16L105.9 64c-.8-.1-1.4-.9-1.3-1.7.1-.7.7-1.2 1.3-1.3l12.8-1.8a3.3 3.3 0 1 1 0 6.5zm0 10L105.9 74c-.8-.1-1.4-1-1.3-1.7.1-.7.7-1.2 1.3-1.3l12.8-1.8a3.3 3.3 0 1 1 0 6.5zm0-19.5l-12.8-1.7c-.8-.1-1.4-.9-1.3-1.7.1-.7.7-1.2 1.3-1.3l12.8-1.8a3.3 3.3 0 1 1 0 6.5z"/></g></svg>