<svg viewBox="0 0 128 128" xmlns="http://www.w3.org/2000/svg"><path d="M57.7 117.4a1 1 0 0 0-.5-.2c-1.5 0-8.6-.3-10.5 1.2-.8.8-1 1.6-1 2.4 0 1 1 1.4 1.7.8 1-1 2.8-2 5-1.4 11.6 2.5 6.8-1.8 5.3-2.8z" fill="#666"/><path d="M68 119.7c1 0 .6 1.7-.3 2.2-1 .6-2.7 2.2-6 2.3-6.3.2-4.4-2-9-1.6-.7 0-1.4-.5-2-.2-.7.5-1.4.6-1.3-.3 0-.9.3-1.9 1-2.6 2.3-2.1 5.7-4.4 8.7-2.7a24 24 0 0 0 8.8 2.9z" fill="#666"/><linearGradient id="a" x1="63.1" x2="63.1" y1="34.9" y2="120.1" gradientUnits="userSpaceOnUse"><stop stop-color="#FF8F00" offset=".1"/><stop stop-color="#FF9300" offset=".1"/><stop stop-color="#FFA000" offset=".1"/><stop stop-color="#FFB600" offset=".2"/><stop stop-color="#FFD400" offset=".2"/><stop stop-color="#FFFA00" offset=".3"/><stop stop-color="#ff0" offset=".3"/><stop stop-color="#FFFF05" offset=".3"/><stop stop-color="#FFFF15" offset=".3"/><stop stop-color="#FFFF2E" offset=".3"/><stop stop-color="#FFFF52" offset=".3"/><stop stop-color="#FFFF7F" offset=".4"/><stop stop-color="#FFFFB7" offset=".4"/><stop stop-color="#FFFFF8" offset=".4"/><stop stop-color="#fff" offset=".4"/><stop stop-color="#F5F5F5" offset=".6"/><stop stop-color="#DCDCDC" offset=".8"/><stop stop-color="#BDBDBD" offset="1"/></linearGradient><path d="M48.2 30.4c-.1 7.8 1.4 11.4-1.2 16.8-8.5 17.5-22.2 53.3-2.5 62.4 9.9 4.7 19.2 11.8 37.5 11.8 16.3 0 7.4-21.9 7.4-21.9L73 29.3l-24.9 1.2z" fill="url(#a)"/><path d="M72.2 27.6l14.2 72.6v.2s.9 3 1.1 6.7c.3 4.6-.4 8.2-2 10.3-1.3 1.7-3.3 2.5-6.2 2.5a73.9 73.9 0 0 1-12.5-.8 3 3 0 0 0-2.6 1.5c-.7.3-2 .6-4.2.6h-.6c-1.9 0-2.4-.2-3-.5L55 120a3 3 0 0 0 .8-5.2c-1-.7-2.4-1.3-3.9-2-4.6-2-10.9-5-14.2-14.5-5.4-15.5 2.2-31.7 7.2-42.4 1.4-3 2.6-5.5 3.2-7.4 2-6.3 2.7-10.9 2.1-15.9l22-5m2.3-3.5l-27.6 6.3c1 5.3.8 9.8-1.6 17.2C42.6 56 27.6 78.2 35 99.2c4.8 14 15.3 15.3 19.3 18-2.7 0-6.3.3-7.5 1.3-.9.7-1.1 1.6-1.2 2.4 0 .7.6 1 1.1 1 .2 0 .5 0 .7-.2l1.3-.9-.3 1.3a1 1 0 0 0 1 1.2c.2 0 .4 0 .6-.2.4-.3 1-.5 1.5-.5h.8c3.4 0 2.4 1.6 7.2 1.6h.7c3.3-.1 5.1-.7 6.2-1.3.3-.2.5-.5.5-.9 3.6.7 7.8.9 12.5.9 16.4 0 10-23.3 10-23.3L74.5 24.1z" fill="#9E9E9E"/><linearGradient id="b" x1="65.2" x2="65.2" y1="3.5" y2="125.2" gradientUnits="userSpaceOnUse"><stop offset="0"/><stop stop-color="#080808" offset=".2"/><stop stop-color="#1E1E1E" offset=".5"/><stop stop-color="#424242" offset=".8"/><stop stop-color="#4D4D4D" offset=".9"/></linearGradient><path d="M96 125.2c-3 0-9.2-1-9.4-1-14.6-2.2-17-15-16-22.1.8-6.5 1.3-17.7.8-21.6-.7 1.5-1.6 4.3-2.3 6.4-2.8 8.6-4.3 12.3-6.2 12.5h-.2c-1 0-2-.5-2.8-1.4-1.5-1.5-4.9-6.4-4.7-20.3a75 75 0 0 1 9.5-32.6 20 20 0 0 1-3.5 1.1H61l-2 .1c-11.4 0-16.5-7.2-20.4-15l-.6-1-5-1.1-6.7-1.7c-.4-.1-1.7-.5-1.6-1.6.1-.8 1.3-1.3 2.6-1.6l-.9.1h-.3c-1 0-1.5-.6-1.6-1.1-.2-1 .4-2 1.4-2.5 1-.5 2.4-.6 4.3-.8 3.1-.2 7-.6 8.2-3 3-6.1 8-10.6 14.1-12.5A23.7 23.7 0 0 1 73.1 8a22.1 22.1 0 0 1 8 24c.2 2.4 1.5 5 3.4 9 2.3 5 5.5 11.6 8.7 21.9 4.5 14.8 3 23.2 1.4 32-.5 3-1.1 6.2-1.4 9.7-.8 9.8 7.4 12.6 10.9 13.8 1.2.4 1.8.6 2 1.2 0 .3 0 .7-.3 1-.2.2-.5.4-1 .5l.3.1.4.3c.2.3.4.8.2 1.3-.4.8-1.6 1.2-3.8 1.4h-.5c-1 0-2-.2-2.9-.4v.3c-.1.4-.5 1-1.6 1l-.8.1z" fill="url(#b)"/><path d="M59.2 4.5a21.1 21.1 0 0 1 21 27.4c.3 5.7 6.2 12.2 12 31.2 6.1 20 1.2 28.1 0 41.4s13.5 14.7 12.9 15.4c-.3.3-1.2.4-2.2.4l-3.7-.2c-.3 0-.3 0-.1.1l5.7 2s.6.8-3 1h-.5c-3.4 0-7-2-7.2-2 .2 0 5.3 2.8 2.7 3H96c-3 0-9.4-1-9.4-1-13.6-2-16.1-13.6-15.1-21 .9-7.3 1.6-23.7 0-23.7-1.8.5-6.1 19.7-8.8 19.9h-.1c-2.7 0-6.7-6-6.5-20.7.1-14 6.8-28.4 11.1-35.2a22 22 0 0 1-6.3 2.8h-2c-11.1 0-16-7.2-19.6-14.4l-.8-1.4c-4.5-1.1-9.6-2.2-12-3-3.1-.9 2.5-1.6 4.7-1.6h.4c.7 0 1.4.2 2 .3a13.5 13.5 0 0 0-7.4-1.8H26c-1.1 0-.9-1.2.2-1.8 2.3-1.2 10.8.1 13-4.1a22.8 22.8 0 0 1 13.5-12c2-.7 4.2-1 6.4-1m0-2v2-2a24.6 24.6 0 0 0-21.7 14c-1 2-4.7 2.3-7.4 2.5-2 .2-3.6.3-4.7 1-1.4.7-2.2 2.1-1.9 3.5.1.5.4.9.7 1.2a2 2 0 0 0-.4 1c-.1.7 0 2 2.2 2.7l6.8 1.7 4.6 1c0 .3.2.5.3.7 4 8 9.4 15.5 21.3 15.5l2.1-.1h.3l1.3-.4a74.7 74.7 0 0 0-8.5 30.9c0 10 1.7 17.6 5 21a5.2 5.2 0 0 0 3.5 1.6h.3c2.5-.2 4-3.7 7-13l.6-2c0 5-.3 11.7-1 16.6-1.3 10.1 3.4 21.2 16.8 23.2a88.8 88.8 0 0 0 10.5 1c1.3 0 2-.7 2.3-1.2l2.1.2h.6c2-.1 4-.4 4.6-2 .3-.6.3-1.3 0-1.9a2 2 0 0 0 .4-1.9c-.3-1.1-1.2-1.4-2.5-1.9-5.5-1.9-11-4.9-10.3-12.8.3-3.4.9-6.6 1.4-9.6A60 60 0 0 0 94 62.5c-3.2-10.4-6.4-17-8.8-22-1.8-3.7-3-6.3-3.2-8.4A23.1 23.1 0 0 0 59.2 2.6z" fill="#666"/><circle cx="53.2" cy="20.5" r="6.4" fill="#fff"/><circle cx="53" cy="19" r="2.9"/><path d="M33.8 26.3l2.3.4c.5.2 1 .4 1.3.8.2.3.3.8 0 1.2-.2.5-.7.4-1.3.3l-9-2.3c.2-.2.6-.2 1-.2a29 29 0 0 1 5.7-.2z" fill="#FF9F02"/></svg>