<svg viewBox="0 0 128 128" xmlns="http://www.w3.org/2000/svg"><linearGradient id="a" x1="83.1" x2="105.3" y1="36.6" y2="36.6" gradientUnits="userSpaceOnUse"><stop stop-color="#8D6E63" offset="0"/><stop stop-color="#76594F" offset=".4"/><stop stop-color="#4E342E" offset="1"/></linearGradient><path d="M89.2 43.2a25 25 0 0 1-6.1-5.8 76.6 76.6 0 0 1 21.4-7.4c.4.1.7.3.8 1.3 0 2.9-3.2 7.4-4.6 8l-1.2.5c-2.7 1-8.3 3.4-10.2 3.4h-.1z" fill="url(#a)"/><path d="M103.8 31.4c0 1.7-2.4 5.8-3.6 6.4l-1.3.6c-1.9.8-7.6 3.1-9.4 3.3-.7-.5-2.3-2-4-3.9 5-2.3 14.6-6.4 18.3-6.4m0-3c-6.2 0-23 8.3-23 8.5 0 0 6 7.6 8.2 7.8h.3c2.6 0 9.3-3 12-4 2.9-1.2 8.3-10.5 3.8-12.1a4 4 0 0 0-1.3-.2z" fill="#5D4037"/><path fill="#8D6E63" d="M30.3 103.4l.9 5 6.8-1.8"/><path fill="#A1887F" d="M47 108l3.7 3 4.6-2.6"/><path fill="#BCAAA4" d="M70.5 105.8l6.4 2.1 1.3-5.3"/><path fill="#8D6E63" d="M84.2 96.2l6.7-.8-.8-5.4"/><linearGradient id="b" x1="90.8" x2="108.3" y1="79.1" y2="79.1" gradientUnits="userSpaceOnUse"><stop stop-color="#8D6E63" offset="0"/><stop stop-color="#76594F" offset=".4"/><stop stop-color="#4E342E" offset="1"/></linearGradient><path d="M97 83.6c-2.7 0-4.9-.3-6.2-.6l2.3-8.3h3.1c5.2 0 9 1 10.6 2.9 1.2 1.3 1.7 2.5 1.5 3.1-.2.5-1.2 1.8-6.5 2.6a35 35 0 0 1-4.8.3z" fill="url(#b)"/><path d="M96.2 76.1c4.6 0 8.1 1 9.5 2.5.7.8 1 1.4 1 1.6-.3.3-1.5 1-5.2 1.6a31.7 31.7 0 0 1-8.9 0l1.7-5.6h2m0-3l-4.3.1-3.1 10.8a32.2 32.2 0 0 0 13 .6c7.3-1 10.2-3.4 6-8.1-2.5-3-7.9-3.5-11.7-3.5z" fill="#5D4037"/><linearGradient id="c" x1="64.2" x2="64.2" y1="27.6" y2="107.9" gradientTransform="rotate(-1.1 64.3 64.3)" gradientUnits="userSpaceOnUse"><stop stop-color="#5D2813" offset=".2"/><stop stop-color="#6A3A27" offset=".2"/><stop stop-color="#8D6859" offset=".4"/><stop stop-color="#C5B2AA" offset=".6"/><stop stop-color="#fff" offset=".8"/></linearGradient><path d="M52.5 107.2c-37.8-.6-45-29.2-46.3-41.5-.6-5.6-.5-10.6-.5-13.8V48l1.2-.4c1.3-.3 3-.7 3.1-2.4.2-1.6-1.2-2.5-2.4-3.2l-.5-.4c3.7-3.4 20-14.5 46.6-14.5h.7a44.6 44.6 0 0 1 41.9 26 7 7 0 0 0 5.8 2.8h.6l.5-.1 13.3-5.9 1.6-.2c1.2 0 4 0 4.2 7.3.4 8.4-2.8 8.7-4 8.8h-.1c-1.5 0-4.4-.8-7.3-1.6-3.8-1-7.7-2-10.3-2a5.9 5.9 0 0 0-6 6c-.1 2.2-1.5 39-41 39h-1z" fill="url(#c)"/><path d="M53.8 28.6h.6a43.4 43.4 0 0 1 39.7 23.8l1 1.6a8.6 8.6 0 0 0 7 3.4h.8l.9-.3 13.2-5.7a6 6 0 0 1 1.1-.2c.8 0 2.5 0 2.7 5.8.3 7-1.8 7.2-2.5 7.2h-.1a45 45 0 0 1-7-1.5c-3.8-1-7.8-2-10.6-2a7.4 7.4 0 0 0-7.6 7.5c0 1-.4 10-5.2 19-6.6 12.2-18.1 18.5-34.2 18.5h-1C15.8 105 9 77.3 7.6 65.4 7.1 60 7.2 55.1 7.2 52v-2.8c1.4-.3 4.1-1 4.4-3.8.1-1.7-.9-2.9-2-3.7 5.1-3.9 19.7-13 44.2-13m0-3C22.7 25.6 6.3 40 5.3 41.3c-1 1.2 3.3 2.4 3.2 3.8s-4.7.9-4.4 2.8-.4 9 .6 18c.6 5.7 4.7 42.1 47.8 42.8h1c42 0 42.6-40.5 42.6-40.5s-.2-3.1 3-4.3l1.5-.2c4.6 0 14.1 3.6 17.6 3.6h.3c4.2-.3 5.6-4 5.4-10.4-.3-5.4-1.9-8.7-5.8-8.7-.6 0-1.3 0-2 .3l-13.5 5.9h-.5c-1 0-3.2-.2-4.5-2.2-1.8-2.5-11.7-26.4-43.2-26.6h-.6z" fill="#6D4C41"/><linearGradient id="d" x1="37.7" x2="63.2" y1="49.1" y2="49.1" gradientTransform="rotate(-1.1 64.3 64.3)" gradientUnits="userSpaceOnUse"><stop stop-color="#5D4037" offset="0"/><stop stop-color="#462D28" offset=".8"/><stop stop-color="#3E2723" offset="1"/></linearGradient><path d="M37.3 43.7s4.1 2.4 1.8 7.3 6 8.2 12.4 8.3 11.6-10.9 11.2-16c-.3-5-15.2-5.7-25.4.4z" fill="url(#d)"/><path fill="#BCAAA4" d="M26.8 89.9l2 5.8 5.7-2.6m7.8 3.5l3.3 5 4.6-3.9"/><path fill="#D7CCC8" d="M16.3 86.7l-.9 9.7 8.6-1"/><path fill="#BCAAA4" d="M62.3 97.5l4.6 3.8 3.3-5.3m-15.1 8.3l4.6 3.7 3.4-5.2"/><path fill="#D7CCC8" d="M76.5 94.5l6.4 1.7-.2-6.5"/><path fill="#6D4C41" d="M37.8 80l2.5 5.7 4.2-4.1m8 6.1l4.4 4.1 2.3-5.5"/><path fill="#8D6E63" d="M53.9 70.2l3.6 5.3 2.8-5.8m7.2-2.2l5.4 3 .1-6.4m8.1 7.9l5.5 3v-6.5"/><path fill="#5D4037" d="M71.8 82.9l5.2 3.5.6-6.4"/><path fill="#3E2723" d="M86.9 58.2l1.3-8-8.2 1.2m-2.5-6l-1-8-7.5 3.7"/><path fill="#4E342E" d="M83.7 38.3L82.5 29l-8.8 4.3"/><path fill="#3E2723" d="M77.2 31.7l-2.6-9.1-8 5.7"/><path fill="#4E342E" stroke="#3E2723" stroke-miterlimit="10" stroke-width=".8" d="M44.4 29l-8-6.4-4 9.7"/><path fill="#3E2723" d="M63 34.1l-4.3-11.6L51 32"/><path fill="#3E2723" d="M55 28.1l-6-8.3-6.2 8.1M30 30.6l-8.6-5.3-2.8 10"/><path fill="#4E342E" d="M71.2 31l-3.8-9.7-8 6.1"/><path fill="#6D4C41" d="M20.6 72.2l.5 5.7 4.9-3"/><path fill="#BCAAA4" d="M12.6 75.1l-5.6 7h7.4"/><path fill="#6D4C41" d="M16.2 57l-4 5.4 6.5 1.6"/><path fill="#8D6E63" d="M34.3 66.5L35 73l5-3.7"/><ellipse cx="25" cy="39" rx="8.7" ry="9.2" fill="#fff"/><ellipse cx="25" cy="39" rx="4.6" ry="4.9"/></svg>