<svg viewBox="0 0 128 128" xmlns="http://www.w3.org/2000/svg"><path d="M98.5 35.4a18 18 0 0 1 12.5 4.4 17.7 17.7 0 0 1 5.6 17.6c-.3 2-.7 3.8-.7 5.6 0 1.7.3 3.5 1 5.1a6 6 0 0 0 3.5 3.4l-.4 1.6a8 8 0 0 1-5-4 14 14 0 0 1-1.8-6c-.1-2.2.1-4.2.3-6 .2-2 .2-3.7-.1-5.4A13.2 13.2 0 0 0 98.9 41l-.4-5.6z" fill="#786047"/><path d="M116.8 79c2.2 3.8.2 6 .2 7.8a16 16 0 0 0 2.6-4.1 10 10 0 0 0 .5 7.4l.6-4.8a8 8 0 0 0 3 5c-1.2-2.3-1-5-.4-7.5s1-5 .5-7.5c-.4-2.3-3.1-6.4-6-5.1-3.2 1.5-2.5 6-1 8.8z" fill="#603813"/><linearGradient id="a" x1="35.9" x2="35.9" y1="59.6" y2="120" gradientUnits="userSpaceOnUse"><stop stop-color="#DEA978" offset="0"/><stop stop-color="#D7A474" offset=".2"/><stop stop-color="#C39769" offset=".4"/><stop stop-color="#A28257" offset=".7"/><stop stop-color="#877148" offset=".9"/></linearGradient><path d="M31.9 122.5c-3.9 0-6.7-.7-7.2-1.8-.4-.7.5-1.9 1-2.5 1-1.2 2.3-1.7 3.3-2.1l1.6-.8c2.5-2 2.7-3.2 3-5.4l.5-2.3c.8-3.7 1.8-9.4.5-15.6-.3-1.6-1-3.5-1.8-5.6A73.2 73.2 0 0 1 28.4 71c-1-6.7-1.4-10.8 6.2-12.1h1.1c2.3 0 4.6 1 6.2 2.8 2.1 2.4 3.5 4.5 3.5 7.1 0 1.4.5 3.1 1 5 .5 2.1 1.2 4.6.8 6-1.7 6-1.8 9.6-2 13.7a55.7 55.7 0 0 1-4 20.2c-.7 2.3-1.3 4-1.4 5.1 0 2.8-.7 3-2.4 3.1l-1.5.3c-.4.1-2 .3-4 .3z" fill="url(#a)"/><path d="M35.7 59.9c2 0 4 1 5.4 2.5 2 2.2 3.3 4.2 3.2 6.4 0 1.5.5 3.3 1 5.2.5 2 1.2 4.4.8 5.6a52.8 52.8 0 0 0-2 13.8c0 2.1-.1 4.3-.4 7-.5 5-2.2 9.6-3.4 13a20 20 0 0 0-1.5 5.4c0 1.5-.4 1.8-.4 1.8a4 4 0 0 1-1.1.3l-1.7.3c-.3 0-1.7.3-3.7.3-4 0-6-.8-6.3-1.2 0-.1.2-.6.9-1.4.8-1 2-1.4 3-1.8l1.8-1a7.8 7.8 0 0 0 3.4-6c0-.7.2-1.4.4-2.3.9-3.8 1.8-9.6.5-16-.3-1.7-1-3.6-1.9-5.8a74.5 74.5 0 0 1-4.2-15.2c-1.1-6.5-1.3-9.7 5.3-10.9h1m0-2.1h-1.4c-8.8 1.6-8 7.2-7 13.4 1.7 10.6 5.3 16.7 6.2 21 1.2 6 .3 11.4-.6 15.2-.8 3.7 0 4.7-3 7-.9.7-3.4 1-5.1 3.1-4.2 5 2.2 6.1 7 6.1 2 0 3.6-.2 4.3-.4 2.3-.6 4.6.2 4.7-4.4 0-2.4 4-9.7 5-18.1.8-8.3-.2-11.7 2.3-20.6.8-3-1.8-8.2-1.7-11.3s-1.8-5.5-3.8-7.8a9.5 9.5 0 0 0-7-3.2z" fill="#786047"/><linearGradient id="b" x1="86.1" x2="86.1" y1="59.1" y2="120" gradientUnits="userSpaceOnUse"><stop stop-color="#DEA978" offset="0"/><stop stop-color="#D7A474" offset=".2"/><stop stop-color="#C39769" offset=".4"/><stop stop-color="#A28257" offset=".7"/><stop stop-color="#877148" offset=".9"/></linearGradient><path d="M80.8 122.5c-3.8 0-4.8-.5-5-.6 0-.7.9-2.6 2-4a10 10 0 0 1 2.3-2.6c5.5-4.1 9.2-9.6 10.8-15.9 1.2-4.8-2.3-9.8-5.7-14.7a65 65 0 0 1-3.9-6 55 55 0 0 1-6.2-23l-.2-1c-.4-4.2-1.7-7.3-2.6-9.5-.7-1.8-1.3-3.2-.9-3.9.7-1.1 5-1.7 8.6-2.1l1.6-.1c7 0 11.8 4.8 12.7 8.4C98 62.2 98 62.7 98.8 66.9l.6 3c1.9 10.4 2 18 .2 23.7-.8 2.5-2 5-3.2 7.5a30.1 30.1 0 0 0-3.5 9.7l-.2 1.7a39 39 0 0 1-1.2 7.7c-.6 1.6-1.7 2.2-4.6 2.2h-6.1z" fill="url(#b)"/><path d="M81.6 40.1c6.4 0 10.9 4.4 11.7 7.6 3.6 14.7 3.7 15.1 4.5 19.4l.5 3a49 49 0 0 1 .3 23.2c-.8 2.4-2 4.9-3.1 7.3-1.7 3.5-3.4 6.9-3.7 10.1l-.2 1.7c-.2 2.3-.5 5.8-1 7.5-.4.8-.8 1.4-3.7 1.4h-2.6l-3.5.1c-2 0-3.1-.1-3.7-.2a14 14 0 0 1 3.7-5c5.6-4.3 9.5-10 11.1-16.5 1.3-5.3-2.3-10.6-5.8-15.6-1.4-2-2.8-4-3.9-6-4.5-8.3-5.1-14-6.1-22.5l-.1-1c-.5-4.4-1.8-7.5-2.7-9.8-.4-1-1-2.5-1-3 .4-.3 1.9-1 7.8-1.6h1.5m0-2.2H80c-16.2 1.8-7.5 4.1-6 16.7 1 9.2 1.6 15.4 6.5 24.4 3.7 6.9 11 13.8 9.5 20s-5.2 11.5-10.4 15.3c-1 .8-1.9 1.8-2.6 2.8s-2.4 3.7-2.1 5c.2 1 3 1.3 6 1.3l6-.1c2.7 0 4.8-.4 5.7-2.8.9-2.4 1.1-7.2 1.4-9.7.5-5 4.8-11 6.7-17s1.7-13.9-.2-24.2c-1.4-7.7-.7-5-5.1-22.5-1-4-6.3-9.2-13.7-9.2z" fill="#786047"/><g fill="#42210B"><ellipse cx="31.4" cy="120.5" rx="3.8" ry="2.4"/><ellipse cx="36" cy="120.5" rx="3.8" ry="2.4"/></g><g fill="#42210B"><ellipse cx="79.9" cy="121.1" rx="4.8" ry="2.5"/><ellipse cx="85" cy="121.2" rx="4.8" ry="2.5"/></g><linearGradient id="c" x1="64" x2="64" y1="14.5" y2="122.8" gradientUnits="userSpaceOnUse"><stop stop-color="#DEA978" offset="0"/><stop stop-color="#D7A474" offset=".2"/><stop stop-color="#C39769" offset=".4"/><stop stop-color="#A28257" offset=".7"/><stop stop-color="#877148" offset=".9"/></linearGradient><path d="M96.2 122.8a43 43 0 0 1-8-.6c-.6-.2-.9-.4-1-.6 0-.2 0-.7 1-2.2.1-.4 1-.7 1.6-1 .7-.4 1.5-.8 2-1.3 3.6-3.8 4.7-8.6 6-13.7l.6-3c1.6-6.3-1-9.3-4.7-13.5l-1-1c-1.5-2-2.9-6-3.6-9l-.3-1.4-1.1.6-3.4 1.6c-5.5 2.6-9.4 4.5-15.6 4.5-3 0-6.5-.4-10.7-1.4l-.9-.2-.3.8-.3.7c-.5 1.7-1.7 6.2-4.9 10.7-3 4.3-3.6 11.8-3.5 17.4 0 1.2.3 3.2.7 5.2.4 2.3.8 5 .7 6.2 0 .1-.3 1-5.2 1l-5.5-.1-2.6-.2c-1.3 0-1.5-.5-1.5-.7-.3-.9.4-2.4.7-2.7 3.5-2.8 6.3-15.7 6.9-20.1v-.3c.4-2.7.8-5.7-1.4-8.9-2-2.9-4.9-8.4-6.2-13.7l-.2-.4-.3-.2a16 16 0 0 1-3.5-2.7A71.2 71.2 0 0 1 19 52.4c-2.9-8-1.9-13.6-.6-20.5l1.1-6.6c1-6.6 3-9 4.6-9 2 0 4.6 3.5 4.7 8C29 43 35.3 53 39.7 53c.7 0 1.4-.2 2-.8 1-1 1.4-2.7 1.4-5 0-11 3-13 5.3-14.3.8-.5 1.6-1 2.1-1.8a28 28 0 0 0 2.2-6c1.5-5 3-10.4 7.5-10.5h.2c5.4 0 6.7 4.2 8.1 10.2.9 3.7 1.7 7.1 4.7 7.2h.3c3.4 0 4.1-2.3 4.7-4.2l.3-1c.7-1.8 1.2-3.5 1.6-5 1.4-5 2-7.2 7-7.2h.5c3.8.2 5 3.3 6.5 8.4 1.3 4.1 2.8 8.8 6.9 11 5.5 3 6.5 10.4 7.1 14.8l.6 3.2c2 5.7 1.6 8 1.1 10.7-.5 2.8-1 6 .6 12.8 1.6 6.5-.2 12-2 17.5l-.8 2.4c-2 6.4-2.5 12-3 16.4v3.3c0 1.8.1 3.7-.4 5-.5 1.5-2.2 2.4-5.3 2.7h-2.7z" fill="url(#c)"/><path d="M87 15.6h.5c3 .1 4 2.4 5.6 7.6 1.4 4.4 2.9 9.2 7.4 11.6 5 2.8 6 9.9 6.6 14 .2 1.6.3 2.7.6 3.5 2 5.4 1.6 7.5 1 10.1-.4 3-1 6.2.7 13.2 1.5 6.3-.3 11.7-2 17l-.8 2.4c-2 6.5-2.6 12-3 16.6v3.5c0 1.6 0 3.4-.4 4.5-.1.4-.6 1.7-4.4 2l-2.6.1a48.4 48.4 0 0 1-7.9-.5l.7-1.2 1.2-.7a8 8 0 0 0 2.4-1.5c3.8-4 5-8.9 6.1-14.1l.7-3c1.8-6.8-1.2-10.2-5-14.5l-.8-1a23.8 23.8 0 0 1-3.4-8.6l-.6-2.6-2.4 1.1-3.4 1.6a32 32 0 0 1-15 4.5c-3 0-6.5-.5-10.6-1.5l-1.7-.4-.7 1.6-.3 1c-.5 1.6-1.7 6-4.8 10.3-3.2 4.5-3.7 12.3-3.7 18 0 1.3.4 3.3.7 5.4.3 2 .7 4.3.7 5.6-.4.1-1.4.4-4.1.4l-5.4-.2-2.7-.1a2 2 0 0 1-.6-.1c0-.4.3-1.2.5-1.5 4-3.4 6.8-17.5 7.2-20.8v-.3c.4-2.7 1-6-1.6-9.6-2-2.8-4.7-8.2-6-13.4l-.3-.8-.7-.5a15 15 0 0 1-3.2-2.4c-4.3-4.5-9.6-14-11.6-19.9a33.7 33.7 0 0 1-.5-20l1-6.5c.9-6 2.6-8.1 3.6-8.1 1.4 0 3.5 3 3.6 7C28 42.6 34.2 54 39.6 54c1 0 2-.4 2.8-1.2 1.2-1.1 1.7-3 1.7-5.7C44.1 36.6 47 35 49 33.8c.9-.6 1.9-1.2 2.5-2.3 1-1.6 1.6-3.8 2.3-6.2 1.6-5.6 3-9.6 6.5-9.7h.2c4.6 0 5.8 3.7 7 9.3 1 4 1.9 8 5.7 8h.3c4.3 0 5.2-3 5.8-4.9l.3-.9 1.6-5c1.5-5.4 2-6.5 6-6.5m-.2-2.1c-7.3 0-6.5 4.6-9.5 12.9-.7 2.2-.9 4.5-4 4.5h-.3c-5.4-.2-1.7-17.4-12.8-17.4h-.3c-7.5.2-7.7 12.2-10.5 17C48.1 33 42 31.6 42 47c0 3.2-1 4.8-2.4 4.8-3.4 0-9.5-9.4-9.9-27.6 0-5-2.9-9-5.7-9-2.3 0-4.6 2.7-5.6 9.9C17 35.3 14 42 17.9 52.7c2.2 6.2 7.6 16 12 20.6 1 1 2.3 2 3.7 2.9a48 48 0 0 0 6.4 14c2 3 1.6 5.8 1.2 8.4-.7 5.1-3.5 17.1-6.5 19.5-.8.7-2.8 5.1 1.4 5.3l8.2.3c3.4 0 6.1-.4 6.2-2 .2-2.5-1.3-9-1.4-11.5 0-5.6.5-12.9 3.4-16.8 3.8-5.5 5-11 5.2-11.6 4.5 1 8 1.5 11 1.5 7.6 0 12-2.9 19.4-6.3.7 3 2 7.4 3.9 9.5 4.2 4.9 7 7.5 5.4 13.7s-2.3 12-6.3 16.1c-1 1-3.2 1.4-3.9 2.5-1.9 3-.9 3.8.6 4.4a41.9 41.9 0 0 0 11.2.5c2.6-.2 5.3-1 6.2-3.4.9-2.4.2-6 .5-8.5.5-5 1-10.1 3-16.2s4.7-12.6 2.7-20.5c-3.3-13.5 2.5-12-1.7-23.5-1-2.7-.5-14.4-8.2-18.6-8-4.4-5-19.2-14-19.5H87z" fill="#786047"/><path d="M89.5 77.8c-.6-3.3-.5-6.7.2-9.9" fill="none" stroke="#786047" stroke-linecap="round" stroke-linejoin="round" stroke-miterlimit="10" stroke-width="2.1"/><path d="M56.5 82.4a47 47 0 0 0 3.7-16.2" fill="none" stroke="#786047" stroke-linecap="round" stroke-miterlimit="10" stroke-width="2.1"/><path d="M38.2 78.8c-1-4-1-8 .2-11.9" fill="none" stroke="#786047" stroke-linecap="round" stroke-miterlimit="10" stroke-width="2"/><g fill="#42210B"><ellipse cx="38.4" cy="120.9" rx="4.8" ry="2.5"/><ellipse cx="43.5" cy="121.1" rx="4.8" ry="2.5"/></g><g fill="#42210B"><ellipse cx="91.8" cy="121.4" rx="4.8" ry="2.5"/><ellipse cx="97" cy="121.5" rx="4.8" ry="2.5"/></g><path d="M13 16.4s-5.2.2-7.5-2.7-1.2-7.5-1.2-7.5 5 0 7.5 2.7 1.1 7.5 1.1 7.5zm21 0s5 .2 7.4-2.7 1.2-7.5 1.2-7.5-5.1 0-7.5 2.7-1.1 7.5-1.1 7.5z" fill="#D1A77D" stroke="#A67C52" stroke-miterlimit="10" stroke-width="1.6"/><linearGradient id="d" x1="22.6" x2="22.6" y1="5.5" y2="45.5" gradientUnits="userSpaceOnUse"><stop stop-color="#DEA978" offset="0"/><stop stop-color="#D7A474" offset=".2"/><stop stop-color="#C39769" offset=".4"/><stop stop-color="#A28257" offset=".7"/><stop stop-color="#877148" offset=".9"/></linearGradient><path d="M21 45.3c-4 0-8.6-6.8-9.9-10.4l-3.9-11c-.9-1.7-.9-4.3 0-6.9a14 14 0 0 1 7.2-8l.2-.2.1-.2C16.1 6.4 19.2 5 22.6 5c3.3 0 6.3 1.4 7.7 3.6l.2.2.2.1c6.3 2.7 9 11 7.5 15.2l-4 10.9c-1.2 3.6-5.8 10.4-9.9 10.4h-3.2z" fill="url(#d)"/><path d="M22.6 5.7c3 0 5.8 1.3 7 3.2l.3.5.5.2c6.3 2.6 8.3 10.7 7 14.1l-3.9 10.9c-.5 1.6-2 4.1-3.8 6.3-1.9 2.3-3.8 3.6-5.4 3.6h-3.2c-1.6 0-3.5-1.3-5.5-3.6a22.9 22.9 0 0 1-3.7-6.3l-4-11v-.2c-.8-1.4-.7-3.8 0-6.1a13 13 0 0 1 6.8-7.6l.5-.2.2-.5c1.2-2 4-3.3 7.2-3.3m0-1.6c-3.8 0-7 1.7-8.6 4.1-6.8 3-9.8 11.8-7.5 16l3.8 11c1.3 3.5 6 10.8 10.8 10.8h3.2c4.7 0 9.5-7.3 10.7-10.9l4-10.9c1.6-4.4-1.1-13.2-8-16.1-1.5-2.4-4.7-4-8.4-4z" fill="#786047"/><path d="M22.6 46.2c-6 0-9.9-4-9.9-10 0-6.5 4.3-13.9 9.9-13.9s9.8 7.4 9.8 13.8c0 6.1-3.9 10.1-9.8 10.1z" fill="#D1A77D"/><path d="M22.6 23c5 0 9 7 9 13.1s-4 9.3-9 9.3-9-3.1-9-9.3 4-13 9-13m0-1.6c-6.1 0-10.7 7.7-10.7 14.6 0 6.5 4.3 11 10.7 11s10.6-4.5 10.6-11c0-6.9-4.6-14.6-10.6-14.6z" fill="#998675"/><path d="M25.7 29.9h-6.3c-2.3 0-3.8-2.5-3.5-5.2l1.2-8.7c.2-1.6 1.7-3 3.3-3h4.4c1.5 0 3 1.4 3.2 3l1.2 8.7c.4 2.7-1.2 5.2-3.5 5.2z" fill="#D1A77D"/><path fill="none" stroke="#595959" stroke-linecap="round" stroke-linejoin="round" stroke-miterlimit="10" stroke-width="1.4" d="M22.6 28.2v11.1"/><path d="M14.4 25.1L20 18c1-1.4 3.9-1.4 5 0l5.7 7.3c1.1 1.5-.3 4.6-2.5 4.6l-3.2.6c-1.6.3-3.3.3-4.9 0l-3.1-.7c-2.2 0-3.7-3.1-2.6-4.6z" fill="#EDBD8E"/><path d="M15.2 38A13.3 13.3 0 0 0 30 38" fill="none" stroke="#595959" stroke-linecap="round" stroke-linejoin="round" stroke-miterlimit="10" stroke-width="1.4"/><ellipse transform="rotate(-61.6 18.5 27.5)" cx="18.5" cy="27.5" rx="1.2" ry="3.6" fill="#736357"/><ellipse transform="rotate(-28.4 26.8 27.5)" cx="26.8" cy="27.5" rx="3.6" ry="1.2" fill="#736357"/><ellipse transform="rotate(-24 11.6 21.2)" cx="11.6" cy="21.2" rx="3.3" ry="4.2" fill="#404040"/><ellipse transform="rotate(-66 33.3 21.2)" cx="33.3" cy="21.2" rx="4.2" ry="3.3" fill="#404040"/><path d="M10 16.7c-2 .8-3.1 3-2.3 5l7.6-2.8c-.8-2-3.2-3-5.3-2.2zm25 0c2.1.8 3.2 3 2.4 5L29.7 19c.8-2 3.2-3 5.3-2.2z" fill="#D1A77D"/></svg>