<svg viewBox="0 0 128 128" xmlns="http://www.w3.org/2000/svg" xmlns:xlink="http://www.w3.org/1999/xlink"><g stroke="#B0B0B0" stroke-linejoin="round" stroke-miterlimit="10" stroke-width="3"><linearGradient id="a" x1="16.4" x2="16.4" y1="110.3" y2="-56.9" gradientUnits="userSpaceOnUse"><stop stop-color="#E3E3E3" offset="0"/><stop stop-color="#E6E6E6" offset=".1"/><stop stop-color="#F1F1F1" offset=".3"/><stop stop-color="#fff" offset=".3"/></linearGradient><path d="M27 39.6s-8-3.9-16.5 4.6S6 60.7 6 60.7s8 3.9 16.4-4.7C31 47.5 27 39.6 27 39.6z" fill="url(#a)"/><linearGradient id="b" x1="111.6" x2="111.6" y1="110.3" y2="-56.9" gradientUnits="userSpaceOnUse"><stop stop-color="#E3E3E3" offset="0"/><stop stop-color="#E6E6E6" offset=".1"/><stop stop-color="#F1F1F1" offset=".3"/><stop stop-color="#fff" offset=".3"/></linearGradient><path d="M122.1 60.7s3.9-8-4.6-16.5-16.5-4.6-16.5-4.6-3.8 8 4.7 16.4c8.5 8.6 16.4 4.7 16.4 4.7z" fill="url(#b)"/></g><path d="M35.5 16.1c-3.1-5.4-.2-13-5.6-9.8s-7.3 10-4.2 15.5 10 7.3 15.5 4.1c5.4-3-2.5-4.4-5.7-9.8zm57 0c3.1-5.4.2-13 5.6-9.8s7.4 10 4.2 15.5-10 7.3-15.5 4.1c-5.4-3 2.5-4.4 5.7-9.8z" fill="#E6B175" stroke="#C28640" stroke-linejoin="round" stroke-miterlimit="10" stroke-width="3"/><linearGradient id="c" x1="64" x2="64" y1="108.6" y2="-53.4" gradientUnits="userSpaceOnUse"><stop stop-color="#D4D4D4" offset=".1"/><stop stop-color="#D7D7D7" offset=".2"/><stop stop-color="#E2E2E2" offset=".3"/><stop stop-color="#F3F3F3" offset=".3"/><stop stop-color="#fff" offset=".3"/></linearGradient><path d="M24.5 98l-2.9-44a39 39 0 0 1 38.8-39h7.2a39 39 0 0 1 38.8 39l-3 44H24.6z" fill="url(#c)"/><path d="M67.6 17a37 37 0 0 1 37.3 37L102 96H25.9l-2.8-42c0-20.6 16.8-37 37.3-37H68m-.4-3h-7.2a40.2 40.2 0 0 0-40.3 40l3 45H105l3-45c0-22.2-18.2-40-40.3-40z" fill="#B0B0B0"/><defs><path id="d" d="M67 14h-6.6a40.6 40.6 0 0 0-40.3 40.5l3 45.5H105l2.7-45.5"/></defs><clipPath id="e"><use xlink:href="#d"/></clipPath><path d="M56 58.4C56 47 46.9 38 35.6 38h-.2A20.4 20.4 0 0 0 15 58.4v2.2C15 72 24.1 81 35.4 81h.2C47 81 56 71.9 56 60.6v-2.2z" clip-path="url(#e)" fill="#C4C4C4"/><g fill="#404040"><ellipse cx="36.8" cy="58.1" rx="8.8" ry="9.9"/><ellipse cx="91.2" cy="58.1" rx="8.8" ry="9.9"/></g><linearGradient id="f" x1="63" x2="63" y1="138.8" y2="18.6" gradientUnits="userSpaceOnUse"><stop stop-color="#D69549" offset="0"/><stop stop-color="#D7974C" offset=".1"/><stop stop-color="#DB9E57" offset=".2"/><stop stop-color="#E1A969" offset=".3"/><stop stop-color="#E6B175" offset=".3"/></linearGradient><path d="M103.5 100.4a22 22 0 0 0-22-21.9h-37a22 22 0 1 0 0 44h37a22 22 0 0 0 22-22z" fill="url(#f)" stroke="#C28640" stroke-linejoin="round" stroke-miterlimit="10" stroke-width="3"/><g fill="#754C24"><ellipse cx="45.3" cy="99.3" rx="6.8" ry="8.3"/><ellipse cx="82.7" cy="99.3" rx="6.8" ry="8.3"/></g></svg>