<svg viewBox="0 0 128 128" xmlns="http://www.w3.org/2000/svg"><linearGradient id="a" x1="83.9" x2="100.4" y1="22.2" y2="5.2" gradientTransform="matrix(1.1392 .00063 .00063 1.1374 -14.1 -1.4)" gradientUnits="userSpaceOnUse"><stop stop-color="#0277BD" offset="0"/><stop stop-color="#1D8BCA" offset=".2"/><stop stop-color="#63BEEB" offset=".8"/><stop stop-color="#81D4FA" offset="1"/></linearGradient><path d="M94 28.8c-5.3 0-20.2-9.2-22.7-11.7 3-6.6 10.1-10.5 21.7-11.9h1.7a47 47 0 0 1 15.6 3.5 29.3 29.3 0 0 0-13.7 11c-1.9 3-2.6 5.8-2 8l.2 1-.7.1z" fill="url(#a)"/><path d="M94.7 6.5a42 42 0 0 1 11.9 2.3A31.4 31.4 0 0 0 95.4 19c-1.9 3-2.7 5.9-2.3 8.3-5-.9-16.5-7.7-20-10.6 3-5.5 9.6-8.9 20-10l1.6-.2m0-2.8l-2 .1c-12 1.4-19.8 5.6-23 13.3-.5 1.4 18 13.1 24.3 13.1 1.7 0 2.5-.8 2-2.8-1.7-6 8.7-16.5 17.4-18 2.4-.5-10.3-5.7-18.7-5.7z" fill="#0277BD"/><linearGradient id="b" x1="37.1" x2="93.5" y1="15.7" y2="122.5" gradientUnits="userSpaceOnUse"><stop stop-color="#81D4FA" offset="0"/><stop stop-color="#59B7E7" offset=".3"/><stop stop-color="#0277BD" offset="1"/></linearGradient><path d="M105.4 26.6C81 6.8 16 1 13 57.6c0 .6-.2 1.2-.7 1.5-2.9 2-11 10-7.4 14.7 1.8 2.2 2.4.5 13-2.2 11.7-3 15.7 7 35.6-1.6.3-.1 5.4 23.6 20.7 23.6 4.3 0-4.6-16.3.4-25.4 43.2 9 10.7 67.1-21.8 38.5-.7-.6-2.4-17-13.1-22.2-2.3-1 2.9 15.6.6 21.8-3.3 8.6-18.5 11.5-14.8 13.7 5.8 3.6 17.4 1.5 24.4-3.6C67 123 79 128.5 98 115.8c23.1-15.2 39.2-63.2 7.3-89.2z" fill="url(#b)"/><path d="M5.6 74.7c1.4 1.1 3-.5 12.3-2.8 10.7-2.7 17.4 6 35.2-1.5C42 57.9 12 63.2 5.6 74.7zm96.3 21c4-14.6-6.7-22.3-18-25.7 18.6 9.7 13.2 34.5-2.7 42.2 5.5-.9 16.6-1.6 20.7-16.5z" fill="#B3E5FC"/><circle cx="29.9" cy="48.9" r="6.6" fill="#fff"/><circle cx="29.9" cy="48.9" r="3.4"/><path d="M61.7 15.4a70 70 0 0 1 42 13.4 45.6 45.6 0 0 1 16.7 39 61 61 0 0 1-23.8 45.7 37 37 0 0 1-20.6 7.2 66 66 0 0 1-23.3-6.3l-1.8-.6a2.8 2.8 0 0 0-2.6.3 27.4 27.4 0 0 1-18 4.7c4.1-2.3 10.4-5.7 12.6-11.5 1.5-4.1.5-11-.3-16.6l-.2-.8c4.5 4.7 6.2 12 7 15.5.5 2 .7 2.7 1.5 3.4a31 31 0 0 0 20.3 8.6c15 0 25.6-13.2 26.9-25.4 1.6-15.7-10.8-24-23-26.6h-.5c-1 0-2 .5-2.5 1.4-3.3 6-1.6 14-.3 20 .2 1.2.6 2.7.7 3.8-6.5-1-11.9-7.7-15.9-20.2-.5-1.5-1-3.2-3.1-3.2a3 3 0 0 0-1.1.2 35 35 0 0 1-13.8 3.3c-3.1 0-5.7-.6-8.2-1.2a32 32 0 0 0-8-1.3c-1.7 0-3.4.2-5.2.7-3.8 1-6.4 1.8-8.2 2.4l-2 .6c0-.3-.2-.7 0-1.4.4-3 4.7-7.6 6.8-9a4.7 4.7 0 0 0 2-3.8c2.1-38.1 32.8-42.2 46-42.2m-.2-2.9C38 12.6 15 24.4 13 57.6c0 .6-.2 1.2-.7 1.5-2.8 2-11 10-7.3 14.7.5.7 1 1 1.6 1 1.5 0 4-1.4 11.3-3.2 1.6-.4 3-.6 4.5-.6 5.4 0 9.6 2.6 16.2 2.6 3.9 0 8.6-.9 14.9-3.6.4 0 5.5 23.6 20.7 23.6 4.3 0-4.6-16.3.4-25.4 34.8 7.2 20.5 46.4-3.4 46.4a28 28 0 0 1-18.4-7.9c-.7-.6-2.3-17-13.1-22.2h-.2c-1.8 0 3 15.8.8 21.8-3.3 8.6-18.4 11.5-14.8 13.7 2 1.3 4.6 1.8 7.5 1.8 5.7 0 12.3-2 17-5.4 9.5 3.7 17.5 7 26 7 6.7 0 13.7-2 22.1-7.6 23-15.2 39.2-63.2 7.3-89.2a73 73 0 0 0-43.7-14z" fill="#0277BD"/></svg>