<svg viewBox="0 0 128 128" xmlns="http://www.w3.org/2000/svg"><path d="M12.1 50.8c-.4-.8.3-1.8 1.3-1.6l37.5 7.6c2.1.4 4.5 1 3.8 4.7l-.1.4-8.4 15-.1.2c-4.9 6-8.5 2.7-11.7 0-3.2-2.7-6.4-5.2-9.4-8.3A81 81 0 0 1 13.6 54l-1.5-3.2zm103.8 0c.4-.8-.3-1.8-1.3-1.6l-37.5 7.6c-2.1.4-4.6 1-3.8 4.7v.4l8.5 15 .1.2c4.9 6 8.5 2.7 11.7 0 3.2-2.7 6.4-5.2 9.4-8.3A81 81 0 0 0 114.3 54l1.6-3.2z" fill="#FFD300"/><linearGradient id="a" x1="64" x2="64" y1="46.6" y2="107.7" gradientUnits="userSpaceOnUse"><stop stop-color="#FFEA00" offset=".3"/><stop stop-color="#FEE209" offset=".5"/><stop stop-color="#FCCC20" offset=".8"/><stop stop-color="#FBC02D" offset="1"/></linearGradient><path d="M98.2 74.6c4.2 19.1-16.5 33.7-34.2 33.4-17-.3-38.5-14.6-34.2-33.4C32.9 60.7 48.6 45.8 64 46.1c15.9.2 31 13.6 34.2 28.5z" fill="url(#a)"/><linearGradient id="b" x1="64" x2="64" y1="65.7" y2="8.9" gradientUnits="userSpaceOnUse"><stop stop-color="#FBC02D" offset="0"/><stop stop-color="#FDD219" offset=".1"/><stop stop-color="#FEE00B" offset=".3"/><stop stop-color="#FFE803" offset=".4"/><stop stop-color="#FFEA00" offset=".7"/></linearGradient><path d="M84 21.2l2.6-1.5c.8-.5.6-1.7-.4-2-3.3-.5-7.8-1-10.4-1.2a1 1 0 0 1-.6-1.8l3.7-3.6c.8-.7.2-1.9-.8-1.8A52 52 0 0 0 64.6 13c-1 .4-2-.7-1.3-1.6l2.5-3.1c1-1.3.3-2.4-.7-2.2a41 41 0 0 0-28.7 35.7c0 15 12.4 25.1 27.6 25.1s27.6-10.2 27.6-25.1c0-7.3-3-14-7.8-18.8a1 1 0 0 1 .2-1.7z" fill="url(#b)"/><path d="M114.6 49.2L88 54.6a24 24 0 0 0 3.6-13 27 27 0 0 0-7.8-18.8 1 1 0 0 1 .2-1.6l2.5-1.5a1 1 0 0 0-.3-2c-3.4-.5-7.8-1-10.4-1.2a1 1 0 0 1-.7-1.8l3.8-3.6c.7-.7.2-1.9-.8-1.8A52 52 0 0 0 64.5 13c-1 .4-1.8-.7-1.2-1.6l2.5-3.1c1-1.3.3-2.4-.7-2.2a41 41 0 0 0-28.7 35.6 24 24 0 0 0 3.6 13l-26.7-5.4c-.9-.2-1.6.7-1.2 1.6l1.5 3.2a78.6 78.6 0 0 0 16.5 19.5l-.3 1C25.5 93.5 47 107.8 64 108c17.7.3 38.4-14.3 34.2-33.4 0-.4-.2-.7-.3-1.1A73.8 73.8 0 0 0 114.4 54l1.5-3.2c.4-.8-.3-1.8-1.3-1.6z" fill="none" stroke="#FCC13C" stroke-linecap="round" stroke-linejoin="round" stroke-miterlimit="10" stroke-width="3"/><linearGradient id="c" x1="64" x2="64" y1="43.5" y2="51.9" gradientUnits="userSpaceOnUse"><stop stop-color="#F15A24" offset="0"/><stop stop-color="#ED1C24" offset="1"/></linearGradient><path d="M62.9 52.9L58.7 47c-.6-.7-.3-1.8.6-2l1.3-.6a10 10 0 0 1 6.8 0l1.3.5c.9.3 1.2 1.4.6 2.1l-4.2 6c-.5.7-1.7.7-2.2 0z" fill="url(#c)"/><radialGradient id="d" cx="44.3" cy="88.6" r="61.4" gradientUnits="userSpaceOnUse"><stop stop-color="#fff" offset="0"/><stop stop-color="#BDBDBD" offset="1"/></radialGradient><path d="M64 122.5A45 45 0 0 1 19 79l11.6 5.7 11-7.3 10.6 6.9 12-10L76 84l11-7 10.6 7 11.4-5.6a45 45 0 0 1-45 44z" fill="url(#d)"/><path d="M64.3 76.2l10 8.3 1.6 1.4 1.9-1.2 9.2-6 9 6.2 1.5 1 1.6-.8 8.3-4.2a43.6 43.6 0 0 1-86.7.6l8.4 4.2 1.6.8 1.4-1 9.5-6.4 9 5.8 1.8 1.2 1.7-1.4 10.2-8.5m0-3.9L52 82.4l-10.6-6.8-11 7.4-13-6.5v1a46.5 46.5 0 1 0 93-1.5l-12.7 6.4L87 75.1l-10.9 7-11.8-9.8z" fill="#AAA79F"/><ellipse cx="53.3" cy="36.7" rx="6.8" ry="7.3" fill="#fff"/><ellipse cx="53.1" cy="33.9" rx="3.9" ry="4.2"/><ellipse cx="74.7" cy="36.3" rx="6.8" ry="7.3" fill="#fff"/><ellipse cx="74.5" cy="33.5" rx="3.9" ry="4.2"/></svg>