<svg viewBox="0 0 128 128" xmlns="http://www.w3.org/2000/svg"><path d="M98.65 39.85h.5c.26 0 1.02 0 1.68.08 1.42.13 3.43.51 5.62 1.51 1.09.5 2.22 1.16 3.31 1.99.56.43 1.05.85 1.62 1.42.38.39.99 1.05 1.41 1.62 1.8 2.35 3.04 5.31 3.37 8.39.09.77.11 1.54.09 2.32-.01.32-.04.74-.07 1.12-.04.37-.08.73-.13 1.08-.2 1.42-.48 2.73-.67 3.97-.2 1.24-.31 2.39-.26 3.47.04 1.07.24 2.09.52 2.99s.66 1.67 1.08 2.27c.42.61.89 1.05 1.3 1.36.42.31.78.49 1.04.6.26.1.4.16.4.16l-.41 1.49s-.19-.06-.54-.16c-.35-.11-.86-.31-1.45-.67a7.89 7.89 0 0 1-1.85-1.63c-.61-.73-1.15-1.64-1.59-2.69-.43-1.05-.77-2.22-.93-3.52-.17-1.28-.15-2.65-.05-3.98.1-1.34.26-2.67.32-3.96.07-1.3.03-2.52-.21-3.71-.46-2.4-1.65-4.62-3.15-6.25-.4-.44-.68-.69-1.2-1.15a12.7 12.7 0 0 0-3.76-2.12c-1.65-.58-3.11-.73-4.1-.73-.55 0-.73.02-1.12.05-.32.03-.49.05-.49.05l-.28-5.37z" fill="#786047"/><path d="M115.99 81.25c2.08 3.67.18 5.68.17 7.42.67-.53 2.16-3.1 2.45-3.9-.75 2.31-.56 4.91.54 7.07.18-1.55.35-3.09.53-4.64.28 1.86 1.3 3.6 2.78 4.76-1.05-2.16-.79-4.72-.35-7.08s.98-4.76.54-7.13c-.4-2.19-3.02-6.07-5.72-4.84-3.06 1.39-2.4 5.77-.94 8.34z" fill="#603813"/><linearGradient id="a" x1="39.195" x2="39.195" y1="62.81" y2="120.18" gradientUnits="userSpaceOnUse"><stop stop-color="#DEA978" offset=".003"/><stop stop-color="#D7A474" offset=".165"/><stop stop-color="#C39769" offset=".406"/><stop stop-color="#A28257" offset=".695"/><stop stop-color="#877148" offset=".895"/></linearGradient><path d="M35.36 122.61c-3.69 0-6.38-.68-6.87-1.72-.33-.7.47-1.81.97-2.41.92-1.1 2.17-1.59 3.18-1.99.6-.24 1.11-.44 1.49-.74 2.34-1.86 2.6-3.05 2.91-5.15.09-.61.19-1.31.38-2.16.8-3.55 1.72-8.95.5-14.8-.32-1.55-.98-3.32-1.75-5.37-1.37-3.66-3.07-8.22-4.12-14.59-1.04-6.33-1.31-10.27 5.86-11.49.35-.06.71-.09 1.07-.09 2.14 0 4.32 1.02 5.84 2.73 2.03 2.29 3.38 4.31 3.37 6.75-.01 1.35.42 2.98.88 4.71.54 2.07 1.16 4.41.78 5.78-1.56 5.7-1.69 9.06-1.84 12.95-.08 2-.16 4.08-.44 6.71-.51 4.81-2.11 9.24-3.28 12.47-.8 2.2-1.37 3.79-1.39 4.87-.05 2.65-.71 2.74-2.29 2.97-.43.06-.93.13-1.43.27-.43.11-1.86.3-3.82.3.01 0 0 0 0 0z" fill="url(#a)"/><path d="M38.99 63.1c1.83 0 3.78.92 5.09 2.4 1.88 2.11 3.13 3.96 3.12 6.08-.01 1.48.44 3.18.91 4.97.49 1.85 1.09 4.15.79 5.26-1.59 5.81-1.72 9.22-1.88 13.17-.08 1.99-.16 4.04-.43 6.64-.5 4.69-2.08 9.05-3.23 12.24-.86 2.38-1.43 3.95-1.45 5.19-.03 1.76-.03 1.8-1.43 2-.46.07-.98.14-1.54.29-.32.09-1.65.27-3.56.27-3.84 0-5.63-.74-5.95-1.12.02-.12.13-.56.81-1.37.76-.91 1.83-1.33 2.78-1.71.64-.25 1.25-.49 1.75-.89 2.62-2.09 2.95-3.56 3.27-5.79.09-.6.18-1.27.37-2.09.82-3.64 1.76-9.19.51-15.22-.34-1.63-1.01-3.43-1.79-5.51-1.35-3.62-3.04-8.13-4.07-14.4-1.02-6.23-1.24-9.28 5.04-10.34.28-.05.58-.07.89-.07m0-2c-.41 0-.83.03-1.24.1-8.37 1.42-7.64 6.77-6.68 12.63 1.66 10.13 5.03 15.91 5.87 20 1.17 5.63.29 10.83-.5 14.38-.8 3.56-.09 4.48-2.94 6.75-.8.64-3.19.94-4.81 2.88-3.96 4.72 2.08 5.78 6.67 5.78 1.84 0 3.45-.17 4.08-.34 2.21-.6 4.38.19 4.46-4.19.04-2.35 3.81-9.23 4.67-17.25.83-7.83-.07-11.03 2.25-19.5.77-2.81-1.64-7.84-1.62-10.75.01-2.91-1.69-5.24-3.62-7.42-1.66-1.87-4.11-3.07-6.59-3.07z" fill="#786047"/><linearGradient id="b" x1="86.819" x2="86.819" y1="62.354" y2="120.16" gradientUnits="userSpaceOnUse"><stop stop-color="#DEA978" offset=".003"/><stop stop-color="#D7A474" offset=".165"/><stop stop-color="#C39769" offset=".406"/><stop stop-color="#A28257" offset=".695"/><stop stop-color="#877148" offset=".895"/></linearGradient><path d="M81.8 122.54c-3.62 0-4.53-.4-4.75-.55-.01-.66.84-2.44 1.83-3.81.79-1.09 1.54-1.89 2.29-2.45 5.19-3.88 8.71-9.09 10.21-15.06 1.15-4.59-2.17-9.36-5.39-13.97-1.32-1.89-2.68-3.85-3.7-5.75-4.37-8.11-5.03-13.84-5.94-21.78l-.12-1.03c-.45-3.93-1.62-6.85-2.48-8.98-.68-1.7-1.22-3.05-.85-3.66.67-1.12 4.7-1.69 8.13-2.06.51-.06 1.03-.08 1.54-.08 6.55 0 11.2 4.63 12.03 7.98 3.5 13.99 3.57 14.41 4.3 18.44.14.77.3 1.68.52 2.84 1.84 9.87 1.9 17.02.2 22.52-.73 2.36-1.89 4.76-3 7.08-1.58 3.28-3.07 6.38-3.37 9.28-.05.45-.1.99-.15 1.57-.22 2.39-.52 5.67-1.13 7.36-.55 1.52-1.62 2.01-4.39 2.01-.68 0-1.52.02-2.42.05-1.07.01-2.23.05-3.36.05z" fill="url(#b)"/><path d="M82.57 44.34c6.04 0 10.31 4.2 11.06 7.22 3.49 13.95 3.56 14.37 4.29 18.37.14.78.3 1.68.52 2.84 1.81 9.7 1.88 16.71.22 22.04-.71 2.29-1.85 4.65-2.95 6.94-1.62 3.36-3.14 6.54-3.47 9.61-.05.46-.1.99-.15 1.58-.2 2.21-.51 5.54-1.07 7.12-.3.84-.69 1.35-3.45 1.35-.7 0-1.55.03-2.46.05-1.04.03-2.21.07-3.32.07-1.89 0-2.95-.11-3.54-.22.28-.7.84-1.73 1.44-2.56.73-1.01 1.41-1.74 2.08-2.24 5.37-4.02 9.03-9.42 10.58-15.62 1.26-5.03-2.2-9.99-5.54-14.78-1.3-1.87-2.65-3.8-3.64-5.65-4.28-7.94-4.89-13.31-5.82-21.42l-.12-1.03c-.47-4.06-1.67-7.05-2.54-9.24-.4-1-.94-2.35-.91-2.79.33-.33 1.74-.95 7.36-1.57.48-.04.96-.07 1.43-.07m0-2c-.54 0-1.09.03-1.65.09-15.32 1.67-7.07 3.82-5.68 15.82 1 8.67 1.52 14.54 6.17 23.17 3.5 6.5 10.48 13.07 9 19s-4.94 10.84-9.83 14.5c-.97.72-1.79 1.69-2.5 2.67s-2.22 3.48-2 4.67c.19 1.06 2.84 1.28 5.72 1.28 2.09 0 4.3-.12 5.78-.12 2.49 0 4.49-.33 5.33-2.67.81-2.24 1.08-6.8 1.33-9.17.5-4.75 4.56-10.44 6.33-16.17 1.78-5.73 1.67-13.17-.17-23-1.35-7.26-.67-4.67-4.83-21.33-.96-3.84-6.02-8.74-13-8.74z" fill="#786047"/><g fill="#42210B"><ellipse cx="31.41" cy="120.48" rx="3.75" ry="2.36"/><ellipse cx="36.05" cy="120.48" rx="3.75" ry="2.36"/></g><g fill="#42210B"><ellipse cx="80.91" cy="121.21" rx="4.58" ry="2.33"/><ellipse cx="85.82" cy="121.38" rx="4.58" ry="2.33"/></g><linearGradient id="c" x1="65.893" x2="65.893" y1="20.075" y2="122.83" gradientUnits="userSpaceOnUse"><stop stop-color="#DEA978" offset=".003"/><stop stop-color="#D7A474" offset=".165"/><stop stop-color="#C39769" offset=".406"/><stop stop-color="#A28257" offset=".695"/><stop stop-color="#877148" offset=".895"/></linearGradient><path d="M96.45 122.83c-3.61 0-7.07-.27-7.64-.5-.55-.24-.82-.43-.88-.62-.04-.13-.1-.67.82-2.09.21-.33.97-.69 1.58-.99.71-.35 1.45-.7 1.95-1.22 3.42-3.53 4.48-8.11 5.6-12.96.21-.92.43-1.85.67-2.8 1.5-6-1.03-8.9-4.53-12.91l-.85-.98c-1.52-1.76-2.81-5.72-3.45-8.57l-.27-1.21-1.12.52c-1.13.52-2.18 1.03-3.19 1.52-5.19 2.51-8.95 4.32-14.78 4.32-2.9 0-6.25-.46-10.22-1.4l-.81-.19-.34.76c-.05.11-.13.36-.24.75-.46 1.6-1.69 5.86-4.66 10.08-2.89 4.09-3.42 11.28-3.35 16.59.01 1.14.32 2.99.64 4.95.36 2.17.76 4.64.69 5.81-.01.17-.3 1.04-4.94 1.04-1.6 0-3.42-.1-5.17-.19-.85-.04-1.7-.09-2.52-.12-1.22-.05-1.39-.52-1.44-.67-.31-.85.4-2.29.7-2.56 3.33-2.66 5.95-14.96 6.53-19.14l.04-.29c.35-2.53.75-5.4-1.38-8.42-1.93-2.74-4.6-7.98-5.9-13.01l-.1-.4-.36-.21c-1.34-.79-2.44-1.63-3.27-2.51-4.13-4.32-9.24-13.59-11.24-19.21-2.73-7.63-1.76-12.85-.53-19.47.36-1.96.74-3.98 1.04-6.2.86-6.34 2.81-8.59 4.35-8.59 1.98 0 4.35 3.33 4.44 7.62.35 16.84 5.6 26.9 10.46 26.9 1.03 0 3.5-.53 4.27-5.39 1.84-11.61 3.44-12.81 4.61-13.69.45-.34.96-.72 1.39-1.46.86-1.47 1.45-3.53 2.08-5.71 1.39-4.83 2.84-9.83 7.08-9.92h.22c5.07 0 6.38 3.99 7.68 9.62.8 3.48 1.56 6.77 4.41 6.88.1 0 .2.01.29.01 3.29 0 3.97-2.23 4.53-4.03.09-.3.18-.6.29-.9.62-1.77 1.07-3.36 1.47-4.76 1.36-4.83 1.93-6.83 6.6-6.83.16 0 .33 0 .5.01 3.63.11 4.74 3.09 6.26 7.96 1.22 3.9 2.6 8.31 6.5 10.42 5.26 2.84 6.2 9.88 6.76 14.08.18 1.33.32 2.38.56 3.05 1.93 5.36 1.53 7.57 1.07 10.14-.48 2.64-1.02 5.62.57 12.1 1.52 6.22-.22 11.51-1.9 16.63-.26.79-.51 1.57-.75 2.34-1.87 6.04-2.43 11.3-2.87 15.53-.1.96-.07 2.03-.03 3.17.05 1.71.11 3.47-.33 4.68-.55 1.51-2.16 2.34-5.06 2.59-.57.02-1.45.05-2.53.05z" fill="url(#c)"/><path d="M87.71 21.08c.15 0 .31 0 .47.01 2.81.08 3.78 2.27 5.34 7.25 1.27 4.08 2.72 8.7 6.98 11.01 4.81 2.6 5.71 9.32 6.25 13.33.19 1.44.33 2.48.61 3.25 1.84 5.11 1.48 7.1 1.03 9.62-.49 2.73-1.05 5.83.58 12.51 1.45 5.94-.24 11.1-1.87 16.08-.26.8-.52 1.58-.76 2.35-1.9 6.13-2.46 11.44-2.91 15.72-.11 1.03-.07 2.19-.04 3.3.05 1.54.1 3.28-.27 4.31-.14.4-.58 1.62-4.21 1.94-.54.05-1.42.07-2.45.07-3.26 0-6.56-.23-7.28-.44-.07-.03-.13-.06-.18-.09.08-.21.24-.57.59-1.11.18-.18.82-.48 1.2-.67.79-.38 1.61-.78 2.23-1.42 3.62-3.73 4.71-8.44 5.86-13.43.21-.91.43-1.84.66-2.79 1.62-6.5-1.19-9.73-4.74-13.81-.28-.32-.56-.64-.85-.98-1.31-1.52-2.57-5.18-3.23-8.13l-.54-2.42-2.28 1.06c-1.13.52-2.19 1.03-3.2 1.52-5.08 2.45-8.74 4.22-14.34 4.22-2.82 0-6.09-.45-9.99-1.37l-1.62-.38-.67 1.52c-.09.21-.16.44-.29.88-.45 1.56-1.64 5.7-4.52 9.78-3.04 4.31-3.6 11.72-3.53 17.18.02 1.21.33 3.1.66 5.1.3 1.83.67 4.07.69 5.26-.37.15-1.39.42-3.95.42-1.58 0-3.38-.1-5.12-.19-.86-.05-1.71-.09-2.53-.12-.3-.01-.47-.06-.56-.09-.03-.34.24-1.11.47-1.42 3.81-3.2 6.38-16.56 6.82-19.72l.04-.29c.36-2.58.81-5.79-1.55-9.14-1.88-2.67-4.48-7.77-5.75-12.68l-.21-.8-.71-.42c-1.26-.74-2.29-1.53-3.06-2.34-4.04-4.23-9.05-13.34-11.03-18.86-2.64-7.38-1.69-12.48-.49-18.95.37-1.97.74-4.01 1.05-6.25.77-5.67 2.43-7.73 3.36-7.73 1.3 0 3.37 2.85 3.44 6.64.21 10.16 2.1 16.57 3.64 20.16 2.1 4.9 4.96 7.71 7.83 7.71 1.28 0 4.37-.61 5.26-6.23 1.78-11.21 3.31-12.36 4.22-13.05.5-.37 1.12-.84 1.66-1.76.92-1.57 1.53-3.69 2.18-5.93 1.54-5.34 2.88-9.13 6.14-9.2h.2c4.34 0 5.47 3.5 6.71 8.85.85 3.69 1.74 7.51 5.35 7.65.11 0 .22.01.33.01 4.03 0 4.94-2.96 5.48-4.73.09-.28.18-.57.28-.86.64-1.8 1.09-3.4 1.49-4.82 1.41-5.03 1.85-6.09 5.63-6.09M87.71 19.08c-6.97 0-6.23 4.38-9.01 12.26-.73 2.07-.87 4.25-3.87 4.25h-.25c-5.11-.2-1.55-16.5-12.13-16.5h-.24c-7.13.16-7.38 11.62-10 16.12-1.4 2.4-3.62-.25-6.12 15.5-.48 3.03-1.74 4.54-3.29 4.54-3.71 0-9.1-8.7-9.46-25.92-.1-4.67-2.74-8.6-5.44-8.6-2.19 0-4.41 2.58-5.34 9.46-1.3 9.62-4.11 15.92-.46 26.14 2.08 5.84 7.24 15.14 11.46 19.57.96 1 2.16 1.89 3.49 2.68 1.32 5.14 4.05 10.5 6.05 13.34 1.98 2.81 1.51 5.48 1.17 8-.67 4.83-3.32 16.23-6.17 18.5-.8.64-2.67 4.83 1.33 5 2.52.11 5.32.31 7.73.31 3.29 0 5.84-.39 5.94-1.98.14-2.35-1.3-8.48-1.33-10.83-.07-5.37.5-12.22 3.17-16 3.68-5.21 4.76-10.46 5-11 4.21 1 7.57 1.43 10.45 1.43 7.22 0 11.43-2.7 18.38-5.93.65 2.87 1.97 7.04 3.67 9 3.99 4.63 6.65 7.07 5.17 13s-2.17 11.33-6.02 15.31c-.84.87-2.99 1.35-3.65 2.36-1.83 2.83-.83 3.58.5 4.17.82.36 4.96.58 8.04.58 1.06 0 2-.03 2.63-.08 2.48-.22 5.07-.91 5.92-3.25.81-2.24.17-5.71.42-8.08.5-4.75 1.06-9.61 2.83-15.33 1.78-5.73 4.5-12 2.67-19.5-3.13-12.81 2.29-11.35-1.67-22.33-.92-2.54-.43-13.68-7.79-17.67-7.62-4.12-4.75-18.25-13.21-18.5-.22-.02-.4-.02-.57-.02z" fill="#786047"/><path d="M90.07 80.08c-.56-3.08-.5-6.27.17-9.33" fill="none" stroke="#786047" stroke-linecap="round" stroke-linejoin="round" stroke-miterlimit="10" stroke-width="2"/><path d="M58.75 84.5c2-4.88 3.21-9.84 3.45-15.42M38.24 78.75c-1.04-3.86-.99-8.01.12-11.85" fill="none" stroke="#786047" stroke-linecap="round" stroke-miterlimit="10" stroke-width="2"/><g fill="#42210B"><ellipse cx="41.49" cy="121.04" rx="4.58" ry="2.33"/><ellipse cx="46.41" cy="121.21" rx="4.58" ry="2.33"/></g><g fill="#42210B"><ellipse cx="92.28" cy="121.5" rx="4.58" ry="2.33"/><ellipse cx="97.2" cy="121.67" rx="4.58" ry="2.33"/></g><linearGradient id="d" x1="10.882" x2="10.882" y1="6.946" y2="29.443" gradientUnits="userSpaceOnUse"><stop stop-color="#DEA978" offset=".003"/><stop stop-color="#D7A474" offset=".165"/><stop stop-color="#C39769" offset=".406"/><stop stop-color="#A28257" offset=".695"/><stop stop-color="#877148" offset=".895"/></linearGradient><path d="M16.2 21.79s-6.26.14-9.2-3.53-1.44-9.74-1.44-9.74 6.26-.14 9.2 3.53 1.44 9.74 1.44 9.74z" fill="url(#d)" stroke="#786047" stroke-miterlimit="10" stroke-width="2"/><linearGradient id="e" x1="47.481" x2="47.481" y1="6.946" y2="29.443" gradientUnits="userSpaceOnUse"><stop stop-color="#DEA978" offset=".003"/><stop stop-color="#D7A474" offset=".165"/><stop stop-color="#C39769" offset=".406"/><stop stop-color="#A28257" offset=".695"/><stop stop-color="#877148" offset=".895"/></linearGradient><path d="M42.16 21.79s6.26.14 9.2-3.53 1.44-9.74 1.44-9.74-6.26-.14-9.2 3.53c-2.94 3.66-1.44 9.74-1.44 9.74z" fill="url(#e)" stroke="#786047" stroke-miterlimit="10" stroke-width="2"/><linearGradient id="f" x1="28.112" x2="28.112" y1="7.507" y2="59.348" gradientUnits="userSpaceOnUse"><stop stop-color="#DEA978" offset=".003"/><stop stop-color="#D7A474" offset=".165"/><stop stop-color="#C39769" offset=".406"/><stop stop-color="#A28257" offset=".695"/><stop stop-color="#877148" offset=".895"/></linearGradient><path d="M26.24 59c-5.04 0-10.67-8.66-12.28-13.37L9.15 31.41l-.03-.03c-1.12-2.24-1.06-5.67.17-9.2 1.6-4.58 4.86-8.39 8.73-10.19l.29-.13.16-.27c1.69-2.95 5.48-4.86 9.65-4.86 4.08 0 7.84 1.86 9.57 4.73l.16.27.29.13c3.62 1.6 6.58 4.86 8.33 9.2 1.54 3.81 1.88 7.84.88 10.53l-4.81 14.05C40.93 50.34 35.3 59 30.26 59h-4.02z" fill="url(#f)"/><path d="M28.11 7.72c3.74 0 7.16 1.67 8.71 4.24l.33.54.58.26c7.37 3.25 10.52 13.5 8.68 18.47l-.02.06-4.8 14.03C40.05 49.83 34.58 58 30.26 58h-4.02c-4.32 0-9.79-8.17-11.33-12.69l-4.8-14.16-.04-.1-.06-.11c-.99-1.97-.91-5.2.22-8.43 1.51-4.33 4.58-7.93 8.21-9.62l.58-.27.32-.55c1.51-2.64 4.95-4.35 8.77-4.35m0-2c-4.68 0-8.71 2.2-10.52 5.37-8.43 3.93-12.13 15.26-9.37 20.77l4.8 14.1C14.58 50.55 20.41 60 26.24 60h4.02c5.83 0 11.66-9.45 13.22-14.05l4.8-14.09c2.13-5.75-1.26-17.22-9.75-20.96-1.85-3.08-5.81-5.18-10.42-5.18z" fill="#786047"/><path d="M28.1 60.46c-7.39 0-12.16-5.15-12.16-13.12 0-10.26 6.42-17.92 12.16-17.92s12.16 7.67 12.16 17.92c0 7.97-4.77 13.12-12.16 13.12z" fill="#E0BD9D"/><path d="M28.1 30.41c6.17 0 11.16 8.9 11.16 16.92s-5 12.12-11.16 12.12-11.16-4.1-11.16-12.12c-.01-8.02 4.99-16.92 11.16-16.92m0-2c-7.53 0-13.16 9.99-13.16 18.92 0 8.45 5.29 14.12 13.16 14.12s13.16-5.68 13.16-14.12c0-8.93-5.63-18.92-13.16-18.92z" fill="#BF9D80"/><path d="M32.03 39.24H24.2c-2.81 0-4.72-3.17-4.27-6.69l1.43-11.31c.28-2.17 2.08-3.83 4.04-3.83h5.43c1.95 0 3.76 1.65 4.04 3.83l1.43 11.31c.44 3.52-1.46 6.69-4.27 6.69z" fill="#E0BD9D"/><path fill="none" stroke="#595959" stroke-linecap="round" stroke-linejoin="round" stroke-miterlimit="10" stroke-width="1.809" d="M28.11 37.02v14.46"/><path d="M18.08 33.07l6.83-9.34c1.36-1.86 4.81-1.84 6.21.03l7 9.41c1.4 1.88-.31 5.94-3.07 5.92l-3.93.81c-2 .41-4.04.4-6.03-.04l-3.86-.85c-2.76 0-4.51-4.08-3.15-5.94z" fill="#FAD6B5"/><path d="M18.99 49.78c2.62 1.92 5.85 2.99 9.09 3.02s6.5-.97 9.16-2.83" fill="none" stroke="#595959" stroke-linecap="round" stroke-linejoin="round" stroke-miterlimit="10" stroke-width="1.828"/><ellipse transform="rotate(-60 23.03 36.16)" cx="23.03" cy="36.16" rx="1.57" ry="4.49" fill="#736357"/><ellipse transform="rotate(-30 33.295 36.16)" cx="33.3" cy="36.16" rx="4.49" ry="1.57" fill="#736357"/><ellipse transform="rotate(-20.042 14.559 27.695)" cx="14.56" cy="27.69" rx="4.1" ry="5.43" fill="#404040"/><ellipse transform="rotate(-69.958 41.573 28.006)" cx="41.57" cy="28" rx="5.43" ry="4.1" fill="#404040"/><path d="M12.81 22.13a5.072 5.072 0 0 0-2.9 6.55l9.44-3.65c-1-2.61-3.94-3.91-6.54-2.9zM43.66 22.13a5.072 5.072 0 0 1 2.9 6.55l-9.44-3.65c1-2.61 3.93-3.91 6.54-2.9z" fill="#E0BD9D"/></svg>