<svg viewBox="0 0 128 128" xmlns="http://www.w3.org/2000/svg" xmlns:xlink="http://www.w3.org/1999/xlink"><circle cx="22.1" cy="23" r="15.8" fill="#404040"/><path d="M22.1 8.8a14.3 14.3 0 1 1 0 28.6 14.3 14.3 0 0 1 0-28.6m0-3a17.3 17.3 0 1 0 0 34.5 17.3 17.3 0 0 0 0-34.5z" fill="#383838"/><circle cx="22.1" cy="23" r="9.9" fill="#6E6E6E"/><circle cx="105.9" cy="23" r="15.8" fill="#404040"/><path d="M105.9 8.8a14.3 14.3 0 1 1 0 28.6 14.3 14.3 0 0 1 0-28.6m0-3a17.3 17.3 0 1 0 0 34.5 17.3 17.3 0 0 0 0-34.5z" fill="#383838"/><circle cx="105.9" cy="23" r="9.9" fill="#6E6E6E"/><linearGradient id="a" x1="64" x2="64" y1="120.8" y2="9.4" gradientUnits="userSpaceOnUse"><stop stop-color="#D1D1D1" offset="0"/><stop stop-color="#D4D4D4" offset=".1"/><stop stop-color="#DFDFDF" offset=".2"/><stop stop-color="#F1F1F1" offset=".3"/><stop stop-color="#fff" offset=".3"/></linearGradient><path d="M64 120.8c-37 0-58.1-17.5-58.1-47.8 0-16 5.5-31.7 15.1-43.5 7.6-9.2 21.2-20.1 43-20.1s35.4 11 43 20.1A69.3 69.3 0 0 1 122 73c0 30.3-21.2 47.8-58.1 47.8z" fill="url(#a)"/><path d="M64 10.9a52.5 52.5 0 0 1 41.8 19.6A67.9 67.9 0 0 1 120.6 73a42 42 0 0 1-14.6 34.1c-9.7 8-24.2 12.2-42 12.2s-32.3-4.2-42-12.1A41.8 41.8 0 0 1 7.5 73a68 68 0 0 1 14.8-42.5c7.4-9 20.6-19.6 41.8-19.6m0-3C26 7.9 4.5 41.4 4.5 72.9s22.2 49.4 59.6 49.4 59.6-17.7 59.6-49.3S102.1 7.9 64 7.9z" fill="#B0B0B0"/><ellipse transform="rotate(-70.7 31.6 66.8)" cx="31.6" cy="66.8" rx="24.2" ry="18.6" fill="#404040"/><ellipse transform="rotate(-75.8 36.9 61.9)" cx="36.9" cy="61.9" rx="7.4" ry="6" fill="#fff"/><ellipse transform="rotate(-19.4 96.4 66.8)" cx="96.4" cy="66.8" rx="18.6" ry="24.2" fill="#404040"/><ellipse transform="rotate(-14.2 91.1 61.9)" cx="91.1" cy="61.9" rx="6" ry="7.4" fill="#fff"/><defs><path id="c" d="M75.1 94.2v.6a11 11 0 0 1-15.6 10.4 11.5 11.5 0 0 1-5.2-4.7 11 11 0 0 1-1.4-5.3v-.7c5 0 11-2.8 11-8.3 0 5.5 6.3 8 11.2 8z"/></defs><defs><path id="b" d="M75.1 94.2v.6a11 11 0 0 1-15.6 10.4 11.5 11.5 0 0 1-5.2-4.7 11 11 0 0 1-1.4-5.3v-.7c5 0 11-2.8 11-8.3 0 5.5 6.3 8 11.2 8z"/></defs><use fill="#424242" xlink:href="#b"/><clipPath id="d"><use xlink:href="#c"/></clipPath><clipPath id="e" clip-path="url(#d)"><use xlink:href="#b"/></clipPath><path d="M55 108a9.2 9.2 0 0 1 18.4-.4" clip-path="url(#e)" fill="#ED7770"/><path d="M63.9 84.3a9.6 9.6 0 0 1-15.8 7.5m15.8-7.5a9.6 9.6 0 0 0 16 7" fill="none" stroke="#404040" stroke-linecap="round" stroke-linejoin="round" stroke-miterlimit="10" stroke-width="2.3"/><linearGradient id="f" x1="64" x2="64" y1="77.4" y2="87.6" gradientUnits="userSpaceOnUse"><stop stop-color="#4D4D4D" offset=".2"/><stop stop-color="#373737" offset=".4"/><stop stop-color="#0F0F0F" offset=".8"/><stop offset="1"/></linearGradient><path d="M64 86.8c4.7 0 7.4-2 9-4.4s-.2-5.4-3-5.4H58c-2.8 0-4.6 3-3 5.4s4.3 4.4 9 4.4z" fill="url(#f)"/></svg>