<svg viewBox="0 0 128 128" xmlns="http://www.w3.org/2000/svg"><linearGradient id="a" x1="22.915" x2="22.915" y1="69.014" y2="-2.159" gradientUnits="userSpaceOnUse"><stop stop-color="#916747" offset="0"/><stop stop-color="#946A48" offset=".148"/><stop stop-color="#9F734C" offset=".274"/><stop stop-color="#A97C50" offset=".348"/></linearGradient><circle cx="22.92" cy="24.8" r="16.97" fill="url(#a)" stroke="#8B5E3C" stroke-linejoin="round" stroke-miterlimit="10" stroke-width="3"/><circle cx="22.92" cy="24.8" r="9.67" fill="#69472D"/><linearGradient id="b" x1="105.08" x2="105.08" y1="69.014" y2="-2.159" gradientUnits="userSpaceOnUse"><stop stop-color="#916747" offset="0"/><stop stop-color="#946A48" offset=".148"/><stop stop-color="#9F734C" offset=".274"/><stop stop-color="#A97C50" offset=".348"/></linearGradient><circle cx="105.08" cy="24.8" r="16.97" fill="url(#b)" stroke="#8B5E3C" stroke-linejoin="round" stroke-miterlimit="10" stroke-width="3"/><circle cx="105.08" cy="24.8" r="9.67" fill="#69472D"/><linearGradient id="c" x1="64" x2="64" y1="120.66" y2="11.406" gradientUnits="userSpaceOnUse"><stop stop-color="#7D593D" offset=".001"/><stop stop-color="#896242" offset=".185"/><stop stop-color="#A87B4F" offset=".513"/><stop stop-color="#A97C50" offset=".525"/></linearGradient><path d="M64 120.66c-46.7 0-56.5-24.26-56.5-44.61 0-15.76 5.39-31.72 14.78-43.77C29.7 22.75 42.96 11.41 64 11.41s34.3 11.35 41.72 20.87c9.4 12.06 14.78 28.01 14.78 43.77 0 20.35-9.8 44.61-56.5 44.61z" fill="url(#c)"/><path d="M64 12.91c20.44 0 33.33 11.03 40.54 20.29C113.73 44.99 119 60.61 119 76.05c0 35.63-29.91 43.11-55 43.11S9 111.68 9 76.05c0-15.44 5.27-31.06 14.47-42.85 7.2-9.26 20.09-20.29 40.53-20.29m0-3c-37.07 0-58 35.15-58 66.14s21.58 46.11 58 46.11 58-15.11 58-46.11S101.07 9.91 64 9.91z" fill="#8B5E3C"/><g fill="#404040"><ellipse cx="32.8" cy="62.05" rx="9.33" ry="10.55"/><ellipse cx="95.2" cy="62.05" rx="9.33" ry="10.55"/></g><path d="M72.96 71H55.04c-10.34 0-18.81 8.66-18.81 19s8.46 19 18.81 19h17.91c10.34 0 18.81-8.66 18.81-19s-8.46-19-18.8-19z" fill="#E6A965"/><linearGradient id="d" x1="64" x2="64" y1="71.033" y2="83.479" gradientUnits="userSpaceOnUse"><stop stop-color="#4D4D4D" offset=".163"/><stop stop-color="#373737" offset=".367"/><stop stop-color="#0F0F0F" offset=".784"/><stop offset="1"/></linearGradient><path d="M64 82.93c5.69 0 9.02-2.44 10.96-5.4 1.94-2.95-.24-6.53-3.77-6.53H56.81c-3.53 0-5.71 3.58-3.78 6.53 1.95 2.95 5.28 5.4 10.97 5.4z" fill="url(#d)"/><path d="M50.54 85.42s.09.1.27.29c.17.19.46.51.72.74.25.26.64.6 1.08.97.45.36.98.74 1.57 1.13.6.38 1.26.76 1.99 1.1.73.35 1.53.66 2.37.92.84.28 1.74.45 2.65.61.92.15 1.86.2 2.81.21.35-.02 1.14-.01 1.47-.06.41-.02.87-.08 1.34-.15.91-.16 1.81-.32 2.65-.61.84-.26 1.64-.57 2.37-.92.73-.34 1.4-.73 1.99-1.1 1.19-.77 2.1-1.53 2.68-2.13.3-.29.52-.53.68-.69.15-.16.24-.25.24-.25l.14-.15c.89-.93 2.36-.97 3.3-.08.82.78.95 2.03.35 2.95 0 0-.09.13-.25.38-.17.25-.38.63-.74 1.06-.33.45-.77.96-1.3 1.53-.53.56-1.16 1.17-1.92 1.76-.75.59-1.6 1.2-2.56 1.72-.95.54-2 1.05-3.13 1.44-1.12.41-2.32.73-3.55.95-.61.1-1.24.19-1.93.24-.77.08-1.09.06-1.85.09-2.54-.03-5.09-.45-7.33-1.29-1.13-.39-2.18-.9-3.13-1.44a19.004 19.004 0 0 1-4.48-3.48c-.52-.57-.96-1.08-1.32-1.56-.39-.49-.55-.79-.7-1.01-.14-.22-.21-.34-.21-.34-.69-1.09-.36-2.54.73-3.23 1-.61 2.25-.42 3 .4z" fill="#404040"/></svg>