<svg viewBox="0 0 128 128" xmlns="http://www.w3.org/2000/svg"><linearGradient id="a" x1="20.4" x2="47" y1="5" y2="61" gradientUnits="userSpaceOnUse"><stop stop-color="#fff" offset=".3"/><stop stop-color="#F2F2F2" offset=".4"/><stop stop-color="#CFCFCF" offset=".6"/><stop stop-color="#989898" offset=".9"/><stop stop-color="#878787" offset="1"/></linearGradient><path d="M53 72c-4.5 0-21-11.3-30-29C13 22.8 11.3 7.1 18.9 3.1a5 5 0 0 1 2.3-.6c7.3 0 18.6 12 27 28.4 10.1 20.1 7.5 39.5 5.2 41H53z" fill="url(#a)"/><path d="M21.1 4c5.7 0 16.6 9.7 25.6 27.6 4 7.9 6.5 17 7 25.7a30 30 0 0 1-1.1 13c-4.3-.7-19.5-10.9-28.1-28-9.7-19-11.7-34.3-5-37.8a3 3 0 0 1 1.6-.4m0-3.1c-1 0-2.1.2-3 .8C9 6.6 11.6 24 21.6 43.6 31 61.8 47.7 73.5 53 73.5c.5 0 .9-.1 1.2-.3 3.6-2.4 5.2-23.3-4.8-43C40.7 13 29 1 21.1 1z" fill="#B0B0B0"/><linearGradient id="b" x1="28.3" x2="41.3" y1="21.5" y2="49.1" gradientUnits="userSpaceOnUse"><stop stop-color="#FF87A8" offset=".2"/><stop stop-color="#F87C9F" offset=".3"/><stop stop-color="#D94874" offset="1"/></linearGradient><path d="M42.3 34c4.7 9.4 4 19.3 2.2 20.4-1.6 1-10.6-4.6-15.3-14s-6-17.5-1.8-19.8c3.6-1.9 10.2 4.1 14.9 13.5z" fill="url(#b)"/><linearGradient id="c" x1="67.8" x2="94.4" y1="5" y2="61" gradientTransform="matrix(-1 0 0 1 175.4 0)" gradientUnits="userSpaceOnUse"><stop stop-color="#fff" offset=".3"/><stop stop-color="#F2F2F2" offset=".4"/><stop stop-color="#CFCFCF" offset=".6"/><stop stop-color="#989898" offset=".9"/><stop stop-color="#878787" offset="1"/></linearGradient><path d="M75 72l-.3-.1c-2.3-1.5-5-20.9 5.2-41 8.4-16.4 19.7-28.4 27-28.4a5 5 0 0 1 2.4.6c7.5 4 5.8 19.7-4.4 39.9-9 17.7-25.4 29-30 29z" fill="url(#c)"/><path d="M106.9 4a3 3 0 0 1 1.6.5c6.7 3.5 4.7 18.7-5 37.8-8.6 17.1-23.8 27.2-28 28-.7-1.4-1.8-5.6-1.3-13 .6-8.7 3.1-17.8 7.1-25.7 9-17.9 20-27.5 25.6-27.5m0-3.1C99 1 87.3 13 78.6 30.2c-10 19.7-8.4 40.6-4.7 43 .2.2.6.2 1 .2 5.4 0 22.2-11.6 31.4-29.7 10-19.7 12.8-37 3.7-42-1-.5-2-.7-3.1-.7z" fill="#B0B0B0"/><linearGradient id="d" x1="75.7" x2="88.8" y1="21.5" y2="49.1" gradientTransform="matrix(-1 0 0 1 175.4 0)" gradientUnits="userSpaceOnUse"><stop stop-color="#FF87A8" offset=".2"/><stop stop-color="#F87C9F" offset=".3"/><stop stop-color="#D94874" offset="1"/></linearGradient><path d="M85.7 34c-4.7 9.4-4 19.3-2.2 20.4 1.6 1 10.6-4.6 15.3-14s6-17.5 1.8-19.8c-3.6-1.9-10.2 4.1-14.9 13.5z" fill="url(#d)"/><linearGradient id="e" x1="64" x2="64" y1="122.1" y2="47.5" gradientUnits="userSpaceOnUse"><stop stop-color="#D4D4D4" offset="0"/><stop stop-color="#E3E3E3" offset=".3"/><stop stop-color="#fff" offset=".7"/></linearGradient><path d="M64 122.1c-35.5 0-43-17.7-43-32.6 0-25.5 16.9-42 43-42s43 16.5 43 42c0 28.4-27 32.6-43 32.6z" fill="url(#e)"/><path d="M64 48.9c13 0 23.9 4.1 31.2 12a41.5 41.5 0 0 1 10.4 28.6c0 10.4-3.8 18.3-11.2 23.6a53 53 0 0 1-30.4 7.6c-19 0-41.6-5.4-41.6-31.2 0-11.3 3.7-21.4 10.4-28.6a41 41 0 0 1 31.2-12m0-2.8c-29.5 0-44.4 20-44.4 43.4s17.7 34 44.4 34c26.2 0 44.4-10.5 44.4-34S93.3 46.1 64 46.1z" fill="#B0B0B0"/><g fill="#404040"><ellipse cx="84.4" cy="78.6" rx="6.2" ry="6.7"/><ellipse cx="43.6" cy="78.5" rx="6.2" ry="6.7"/></g><path d="M80.8 101.4a8.3 8.3 0 0 1-2.3 4.4 8.5 8.5 0 0 1-12.1-.3c-1.4-1.4-2.2-5.6-2.4-7.3-.2 1.7-1 5.9-2.3 7.2a8.5 8.5 0 0 1-12 0 8.8 8.8 0 0 1-2.5-4.4" fill="none" stroke="#B3B3B3" stroke-linecap="round" stroke-linejoin="round" stroke-miterlimit="10" stroke-width="3"/><linearGradient id="f" x1="64" x2="64" y1="89.3" y2="99.9" gradientUnits="userSpaceOnUse"><stop stop-color="#FF87A8" offset=".2"/><stop stop-color="#FF6492" offset=".7"/><stop stop-color="#FF5589" offset="1"/></linearGradient><path d="M57.7 89c-2 0-3.4 2-2.7 3.9 1.6 4.1 4.3 7 8.8 7h.4c4.4 0 7.2-2.9 8.8-7 .7-2-.7-3.9-2.8-3.9H57.7z" fill="url(#f)"/></svg>