<svg viewBox="0 0 128 128" xmlns="http://www.w3.org/2000/svg"><path d="M122.27 64.17c-1.61.17-3.6-.4-6.65-1.07-5.13-1.13-7.45-1.38-9.6-.26-.89.47-1.93.04-2.31-.91-1.38-3.42-11.62-6.46-14.45-7.45-1.43-.5-3.09-.12-3.01 1.4.07 1.22.83 3.57 2.44 5.39 4.43 5 9.61 9.17 8.2 12.94-1.11 2.97-6.52 22.88-21.28 16.33-10.59-4.69 8.98-31.25-23.13-39.94C1.63 36.84 5.94 86.05 5.94 86.05l.17.11c-.13-.06-.21-.09-.21-.09s-.33 19.19 19.58 27.26c10.19 4.13 20.94 5.52 30.96 4.55 6.15 3.35 11.85 4.92 11.03 3.68-1.19-1.8-2.24-3.44-3.19-4.96 10.73-2.48 20.11-7.83 26.32-15.51.42-.33.77-.7 1.03-1.09 8.42-13.04 11.53-26.87 16.93-27.55 6.15-.78 11.15-1.11 15.14-5.63.99-1.11.03-2.81-1.43-2.65z" fill="none" stroke="#3592CA" stroke-linecap="round" stroke-linejoin="round" stroke-miterlimit="10" stroke-width="4"/><path d="M31.76 24.62c-.65 0-1.3-.15-1.98-.47-.97-.45-1.52-1.19-1.56-2.08-.04-1.05.62-2.1 1.72-2.74.56-.32 1.28-.48 2.16-.48 1.15 0 2.51.3 3.83.83 1.64.66 3.05 1.62 3.99 2.64h-.3c-1.69.05-3.14.7-4.42 1.28-1.17.52-2.28 1.02-3.44 1.02z" fill="#81D4FA"/><path d="M32.1 19.9c1.02 0 2.24.27 3.44.76.67.27 1.31.6 1.88.96-.97.27-1.84.66-2.64 1.03-1.11.5-2.07.94-3.01.94-.5 0-1-.12-1.53-.37-.62-.29-.94-.69-.96-1.18-.03-.65.44-1.35 1.2-1.79.37-.24.94-.35 1.62-.35m0-2.1c-1.01 0-1.93.19-2.68.62-2.78 1.6-3.17 5.22-.09 6.67.87.41 1.67.57 2.42.57 2.78 0 4.92-2.22 7.88-2.3h.1c.79 0 1.55.27 2.3.51-.57-2.1-3-4.07-5.71-5.17-1.4-.56-2.89-.9-4.22-.9z" fill="#449ACE"/><path d="M53.93 21.11c3.38-6.97 8.48-10.18 12.15-10.18.92 0 1.7.22 2.26.63 1.17.87 1.69 1.69 1.52 2.45-.34 1.55-3.3 3.19-7.2 4-2.96.61-6.38 1.96-8.73 3.1z" fill="#81D4FA"/><path d="M66.08 11.93c.69 0 1.29.15 1.66.44.86.64 1.19 1.18 1.14 1.43-.18.8-2.34 2.39-6.43 3.23-1.99.41-4.21 1.16-6.2 1.96 3.27-5.09 7.38-7.06 9.83-7.06m-.01-2c-4.27 0-10.7 4.01-14.21 13.49.76-.67 6.37-3.47 10.99-4.43 6.25-1.3 10.8-4.73 6.08-8.23-.73-.55-1.72-.83-2.86-.83z" fill="#449ACE"/><path d="M47.89 27.93c-.75-6.81-4.03-12.79-9.57-17.09-.82-.63-1.39-1.77-1.35-2.69.02-.53.22-.92.63-1.19a3.42 3.42 0 0 1 1.95-.59c2.76 0 6.06 2.94 7.51 6.7 1.4 3.61 1.62 9.41.83 14.86z" fill="#81D4FA"/><path d="M39.54 7.37c2.33 0 5.28 2.72 6.58 6.06.8 2.06 1.2 4.88 1.23 7.92-1.65-4.39-4.49-8.25-8.42-11.3-.55-.43-.99-1.27-.97-1.87.01-.27.11-.34.19-.4.42-.28.88-.41 1.39-.41m0-2c-.88 0-1.73.24-2.51.76-1.92 1.29-1 4.21.67 5.5 7.43 5.77 10.88 14.79 8.72 25.35 2.98-6.5 4.01-17.94 1.56-24.27-1.61-4.18-5.22-7.34-8.44-7.34z" fill="#449ACE"/><path d="M50.36 37.2c1.45-5.22 3.71-9.38 6.75-12.41 2.74-2.74 8.33-4.88 12.71-4.88 1.46 0 3.99.26 4.52 2.02.14.47.09.87-.18 1.27-.66 1-2.39 1.62-3.35 1.73-11.41 1.25-17.28 6.69-20.45 12.27z" fill="#81D4FA"/><path d="M69.82 20.91c.74 0 3.2.09 3.56 1.31.06.21.03.3-.05.43-.41.62-1.72 1.19-2.62 1.28-7.95.87-13.3 3.69-16.95 7.2 1.13-2.19 2.49-4.07 4.05-5.64 2.54-2.52 7.93-4.58 12.01-4.58m0-2c-4.45 0-10.39 2.15-13.42 5.17-5.82 5.8-8.21 14.91-8.82 24.16 1.62-7.58 5.05-20.32 23.34-22.32 1.74-.19 5.17-1.63 4.37-4.28-.57-1.92-2.74-2.73-5.47-2.73z" fill="#449ACE"/><linearGradient id="a" x1="6.792" x2="92.379" y1="102.2" y2="102.2" gradientTransform="translate(-1.083 -.012)" gradientUnits="userSpaceOnUse"><stop stop-color="#eee" offset="0"/><stop stop-color="#BDBDBD" offset="1"/></linearGradient><path d="M49.92 97.84c-2.45-1.68-5.76-3.29-9.09-2.56C31.61 97.3 5.9 86.07 5.9 86.07s-.33 19.19 19.58 27.26c24.92 10.12 53.23 3.82 66.04-13.4.18-.25-25.87 8.67-41.6-2.09z" fill="url(#a)"/><radialGradient id="b" cx="33.366" cy="60.328" r="56.906" gradientTransform="matrix(1.0014 -.00222 .00217 1.0244 -1.09 -2.98)" gradientUnits="userSpaceOnUse"><stop stop-color="#81D4FA" offset="0"/><stop stop-color="#1B99DE" offset="1"/></radialGradient><path d="M115.62 63.09c-5.13-1.13-7.45-1.38-9.6-.26-.89.47-1.93.04-2.31-.91-1.38-3.42-11.62-6.46-14.45-7.45-1.43-.5-3.09-.12-3.01 1.4.07 1.22.83 3.57 2.44 5.39 4.43 5 9.61 9.17 8.2 12.94-1.11 2.97-6.52 22.88-21.28 16.33-10.59-4.69 8.98-31.25-23.13-39.94C1.63 36.84 5.94 86.05 5.94 86.05s12.98 8.76 34.92 9.99c.35.02.17 4.25 2.48 9.77 4.43 10.57 25.67 18.08 24.13 15.76-10.34-15.62-10.95-20.54-10.82-20.47 7.26 3.66 31.15 4.84 34.98-1.09 8.42-13.04 11.53-26.87 16.93-27.55 6.15-.78 11.15-1.11 15.14-5.63.98-1.11.02-2.8-1.44-2.65-1.6.16-3.59-.42-6.64-1.09z" fill="url(#b)"/><path d="M38.42 79.26c.81 3.36-1.18 6.76-4.45 7.6s-6.58-1.21-7.4-4.57 1.18-6.76 4.45-7.6 6.58 1.21 7.4 4.57z" fill="#fff"/><path d="M34.69 76.55c1.53.88 2.08 2.87 1.22 4.45-.86 1.57-2.8 2.13-4.33 1.25s-2.08-2.87-1.22-4.45 2.8-2.13 4.33-1.25z"/></svg>