<svg viewBox="0 0 128 128" xmlns="http://www.w3.org/2000/svg"><path d="M38.26 16.81" fill="#E59242"/><path d="M41.85 54.44c-9.86 0-22.55-1.73-27.07-9.99C7.92 31.94 7.54 13.32 7.59 7.87c6.54.57 31.85 3.58 38.72 16.11 6.78 12.38 7.16 25.71 7.11 29.72-2.04.26-6.43.74-11.57.74z" fill="#999"/><path d="M9.09 9.51c3.16.33 8.36 1.03 13.92 2.42 7.93 1.99 18.19 5.82 21.98 12.76 5.99 10.94 6.85 22.71 6.92 27.68-2.27.26-5.91.58-10.06.58-18.02 0-23.87-5.77-25.76-9.21-6.11-11.16-6.94-27.45-7-34.23M6.12 6.25S5.1 29.91 13.46 45.18c4.88 8.91 18.17 10.77 28.39 10.77 7.29 0 13.02-.94 13.02-.94s1.11-16.48-7.25-31.75S6.12 6.25 6.12 6.25z" fill="#666"/><path d="M30.4 31.62c4.42 8.27-1.4 19.55-1.4 19.55s-13-2.12-17.43-10.39-2.16-19.55-2.16-19.55 16.57 2.12 20.99 10.39z" fill="#666"/><path d="M86.15 54.44c-5.14 0-9.52-.48-11.56-.75-.05-4.02.34-17.37 7.11-29.72 6.87-12.54 32.18-15.54 38.72-16.11.04 5.45-.34 24.09-7.19 36.59-4.53 8.26-17.23 9.99-27.08 9.99z" fill="#999"/><path d="M118.91 9.51c-.06 6.77-.88 23.04-7.01 34.22-1.88 3.44-7.73 9.21-25.76 9.21-4.14 0-7.78-.32-10.06-.58.07-4.97.93-16.74 6.92-27.67 3.79-6.92 14-10.74 21.89-12.73 5.59-1.41 10.84-2.11 14.02-2.45m2.97-3.26s-33.14 1.73-41.5 17S73.13 55 73.13 55s5.73.94 13.02.94c10.22 0 23.51-1.85 28.39-10.77 8.36-15.26 7.34-38.92 7.34-38.92z" fill="#666"/><path d="M97.54 32.57c-4.28 9.02 1.36 21.34 1.36 21.34s12.58-2.32 16.86-11.34 2.09-21.34 2.09-21.34-16.02 2.32-20.31 11.34z" fill="#666"/><linearGradient id="a" x1="63.911" x2="63.911" y1="119.12" y2="13.453" gradientUnits="userSpaceOnUse"><stop stop-color="#8F8F8F" offset=".04"/><stop stop-color="#949494" offset=".083"/><stop stop-color="#ACACAC" offset=".325"/><stop stop-color="#BABABA" offset=".55"/><stop stop-color="#BFBFBF" offset=".741"/></linearGradient><path d="M64.02 119.12c-12.59-.15-23.82-8.02-32.02-13.76l-1.31-.92c-7.81-5.44-16.63-8.37-25.54-8.5 9.83-19.88 9.78-20.85 9.74-21.41-.05-.79-.71-1.53-1.5-1.53H5.31L10 64.86c3.38-5.95 6.57-12.38 10.36-20.99 8.51-19.35 24.34-30.42 43.43-30.42l.61.02c18.66.23 34.16 11.06 42.53 29.71 3.8 8.47 6.95 14.68 10.21 20.43l5.4 9.39h-8.5c-.79 0-1.44.74-1.5 1.52-.04.55-.09 1.3 10.13 21.36-9.05.22-17.99 3.28-25.95 8.82-.87.61-1.77 1.26-2.69 1.92-7.82 5.57-17.55 12.5-29.63 12.5h-.38z" fill="url(#a)"/><path d="M63.78 14.99h.59c18.05.22 33.06 10.72 41.18 28.81 3.82 8.5 6.99 15 10.28 20.8l4.13 7.4h-5.93c-1.57 0-2.88 1.1-2.99 2.67-.07 1.02-.12 1.55 9.24 19.96-8.53.65-16.91 3.68-24.42 8.91-.88.61-1.78 1.24-2.7 1.89-7.65 5.44-17.16 12.21-28.76 12.21l-.37-.01c-12.13-.15-23.14-7.86-31.18-13.49l-1.31-.92c-7.37-5.14-15.62-8.11-24.02-8.68 8.99-18.23 8.94-18.85 8.87-19.86-.12-1.58-1.42-2.68-3-2.68H7.88l3.42-6.15c3.4-6 6.62-12.6 10.42-21.25 8.27-18.78 23.6-29.61 42.06-29.61m0-3c-21.65 0-37.05 13.71-44.8 31.35-3.13 7.12-6.45 14.16-10.29 20.92l-5 8.94c-.43.75.1 1.8.95 1.8h8.75c.06 1-7.12 15.9-9.61 20.93-.37.75.22 1.56 1.22 1.56v-.03c9 0 17.58 3.01 25.06 8.23 8.34 5.81 20.3 14.77 34.06 14.94h.35c13.99 0 24.67-8.98 33.15-14.88 7.74-5.39 16.77-8.75 26.15-8.75h-.01c.62 0 1.02-.33.73-.89C122.14 91.5 113.98 76 114.04 75h8.78c1.02 0 1.66-1.24 1.15-2.14l-5.52-9.8c-3.75-6.61-7.03-13.51-10.15-20.46-7.68-17.1-22.67-30.34-43.89-30.6-.21 0-.42-.01-.63-.01z" fill="#8E8E8E"/><linearGradient id="b" x1="64" x2="64" y1="36.242" y2="116.71" gradientUnits="userSpaceOnUse"><stop stop-color="#fff" offset=".004"/><stop stop-color="#FCFCFC" offset=".288"/><stop stop-color="#F3F3F3" offset=".49"/><stop stop-color="#E3E3E3" offset=".667"/><stop stop-color="#CDCDCD" offset=".828"/><stop stop-color="#B3B3B3" offset=".97"/></linearGradient><path d="M103.53 61.72c-.3-8.06-2.3-19.68-9.66-23.9-10.57-6.05-21.07 6.43-20.94 17.1.16 13.96 12.58 30.69 2.93 43.84-2.77 3.78-6.85 5.51-11.85 5.43-5 .08-8.76-1.65-11.54-5.43-9.65-13.15 2.51-29.88 2.68-43.84.13-10.67-10.43-23.15-20.99-17.09-7.37 4.22-9.38 15.84-9.69 23.9-.55 14.78 3.92 29.55 13.85 40.12C46.65 110.71 54 116.51 64 116.71c8-.2 17.68-6 26.02-14.87 9.93-10.57 14.07-25.34 13.51-40.12z" fill="url(#b)"/><path d="M73.19 107.6c-4.44 0-8.19-3.79-8.19-8.27V92c0-.83-.67-1.5-1.5-1.5S62 91.17 62 92v7.33c0 4.48-3.75 8.27-8.19 8.27-.83 0-1.5.67-1.5 1.5s.67 1.5 1.5 1.5c4.14 0 7.76-2.28 9.69-5.66 1.94 3.38 5.55 5.66 9.69 5.66.83 0 1.5-.67 1.5-1.5s-.67-1.5-1.5-1.5z" fill="#404040"/><linearGradient id="c" x1="63.688" x2="63.688" y1="84.332" y2="94.426" gradientUnits="userSpaceOnUse"><stop stop-color="#4D4D4D" offset=".163"/><stop stop-color="#373737" offset=".367"/><stop stop-color="#0F0F0F" offset=".784"/><stop offset="1"/></linearGradient><path d="M57.47 84c-2.06 0-3.46 1.83-2.73 3.7 1.55 3.97 4.31 6.83 8.76 6.83.07 0 .13-.05.19-.05.07 0 .13-.01.19-.01 4.44 0 7.21-2.79 8.76-6.75.73-1.87-.66-3.71-2.73-3.71H57.47z" fill="url(#c)"/><g fill="#404040"><ellipse cx="39.77" cy="64.92" rx="6.49" ry="6.3"/><ellipse cx="88.77" cy="64.92" rx="6.49" ry="6.3"/><path d="M31.87 57.37c3.59-1.11 7.64-.63 10.87 1.28 3.24 1.91 5.61 5.22 6.38 8.9M96.13 57.37c-3.59-1.11-7.64-.63-10.87 1.28-3.24 1.91-5.61 5.22-6.38 8.9"/></g></svg>