<svg viewBox="0 0 128 128" xmlns="http://www.w3.org/2000/svg"><path d="M26 52.1a20.6 20.6 0 1 1 .1-41.2 20.6 20.6 0 0 1 0 41.2z" fill="#FFC73B"/><path d="M26 12.4a19.1 19.1 0 1 1 0 38.2 19.1 19.1 0 0 1 0-38.2m0-3a22 22 0 1 0 0 44.2 22 22 0 0 0 0-44.2z" fill="#E67C00"/><circle cx="26.1" cy="31.5" r="12.8" fill="#754C24"/><path d="M102 52.1a20.6 20.6 0 1 1 0-41.2 20.6 20.6 0 0 1 0 41.2z" fill="#FFC73B"/><path d="M102 12.4a19.1 19.1 0 1 1-.1 38.2 19.1 19.1 0 0 1 0-38.2m0-3a22 22 0 1 0 0 44.2 22 22 0 0 0 0-44.2z" fill="#E67C00"/><circle cx="101.9" cy="31.5" r="12.8" fill="#754C24"/><linearGradient id="a" x1="64" x2="64" y1="117.1" y2="21.7" gradientUnits="userSpaceOnUse"><stop stop-color="#D47500" offset="0"/><stop stop-color="#DA8008" offset=".1"/><stop stop-color="#EA9F1E" offset=".3"/><stop stop-color="#F6B52E" offset=".6"/><stop stop-color="#FDC238" offset=".8"/><stop stop-color="#FFC73B" offset="1"/></linearGradient><path d="M64 117c-35.1 0-53-13.2-53-39.5 0-26.9 20.3-55.8 53-55.8s53 29 53 55.8c0 26.3-17.8 39.6-53 39.6z" fill="url(#a)"/><path d="M64 23.2a49 49 0 0 1 37.4 17c9 10 14 23.7 14 37.3 0 12.8-4.4 22.5-13 28.8-8.7 6.1-21.6 9.3-38.4 9.3s-29.7-3.2-38.3-9.3c-8.7-6.3-13.2-16-13.2-28.8 0-13.6 5.2-27.2 14-37.4 9.7-11 23-17 37.5-17m0-3c-33.2 0-54.5 29-54.5 57.4s20.3 41 54.5 41 54.5-12.6 54.5-41S97.2 20.2 64 20.2z" fill="#E67C00"/><linearGradient id="b" x1="64" x2="64" y1="36" y2="113.2" gradientUnits="userSpaceOnUse"><stop stop-color="#FFF8E1" offset="0"/><stop stop-color="#FDF6DF" offset=".5"/><stop stop-color="#F6F0D9" offset=".7"/><stop stop-color="#EBE4CF" offset=".8"/><stop stop-color="#DAD4C1" offset=".9"/><stop stop-color="#D1CBB9" offset="1"/></linearGradient><path d="M95.5 87c-2.7-8.3-17.9-13.2-17.9-22s4.5-11.1 4.5-16.5c0-8.8-7.7-13-18.1-13s-18.1 4.2-18.1 13c0 5.4 4.6 7.5 4.6 16.4S35.2 78.7 32.5 87c-2 6.7-3.1 26.3 31.5 26.3S97.6 93.7 95.5 87z" fill="url(#b)"/><path d="M61.7 107c-5.5 0-5.6-10.6-5.6-11.8 0-.8.3-1.6 1-2.1l7-5 6.9 5c.6.6 1 1.3 1 2 0 3.4-1.1 11.9-6 11.9h-4.3z" fill="#fff"/><path d="M64 89.3l6.3 4.6c.4.3.6.9.6 1.4 0 3.6-1.3 10.7-5 10.7h-4.2c-3.7 0-4.6-7.1-4.6-10.8 0-.5.2-1 .6-1.3l6.3-4.6m0-2.5l-1.2.8-6.3 4.6-.2.1c-.8.8-1.3 1.8-1.3 2.9 0 6 1.8 12.8 6.7 12.8H66c1.8 0 4.2-.8 5.8-5.3.9-2.6 1.2-5.5 1.2-7.5a4 4 0 0 0-1.3-2.9l-.2-.1-6.3-4.6-1.2-.9z" fill="#ccc"/><g fill="#404040"><ellipse cx="41.1" cy="66.1" rx="5.5" ry="9.3"/><ellipse cx="86.9" cy="66.1" rx="5.5" ry="9.3"/></g><path d="M63.8 85.1a8 8 0 1 1-16.2 0m32.8 0a8 8 0 1 1-16.1 0" fill="none" stroke="#C69C6D" stroke-linecap="round" stroke-linejoin="round" stroke-miterlimit="10" stroke-width="3.1"/><linearGradient id="c" x1="64" x2="64" y1="74.1" y2="86.8" gradientUnits="userSpaceOnUse"><stop stop-color="#575757" offset=".2"/><stop stop-color="#262626" offset=".6"/><stop offset="1"/></linearGradient><ellipse cx="64" cy="80.5" rx="11.1" ry="7" fill="url(#c)"/><g fill="none" stroke="#404040" stroke-linecap="round" stroke-linejoin="round" stroke-miterlimit="10"><path stroke-width="3.4" d="M14.4 108.4l14.9-13.7m-1.8-6.2L9.1 95.9"/><path stroke-width="3" d="M7 82.5h19"/><path stroke-width="3.4" d="M113.8 108.4L98.9 94.7m1.8-6.2l18.4 7.4"/><path stroke-width="3" d="M122 82.5h-20"/></g></svg>