<svg viewBox="0 0 128 128" xmlns="http://www.w3.org/2000/svg"><path d="M41.9 54.4c-10 0-22.6-1.7-27.1-10A82.1 82.1 0 0 1 7.6 8c6.5.5 31.8 3.5 38.7 16a63.5 63.5 0 0 1 7.1 29.8c-2 .3-6.4.7-11.5.7z" fill="#999"/><path d="M9 9.5c3.3.3 8.4 1 14 2.4 8 2 18.2 5.8 22 12.8a64 64 0 0 1 7 27.7c-2.4.2-6 .5-10.2.5-18 0-23.8-5.7-25.7-9.2A80.4 80.4 0 0 1 9 9.5M6 6.2s-1 23.7 7.4 39c4.8 8.9 18.1 10.7 28.3 10.7 7.3 0 13-.9 13-.9s1.2-16.5-7.2-31.7S6 6.3 6 6.3z" fill="#666"/><path d="M30.4 31.6C34.8 40 29 51.2 29 51.2S16 49 11.6 40.8 9.4 21.2 9.4 21.2s16.6 2.2 21 10.4z" fill="#666"/><path d="M86.2 54.4c-5.2 0-9.6-.4-11.6-.7 0-4 .3-17.4 7.1-29.7 6.9-12.6 32.2-15.6 38.7-16.1 0 5.4-.3 24-7.2 36.6-4.5 8.2-17.2 10-27 10z" fill="#999"/><path d="M119 9.5a83 83 0 0 1-7.1 34.2c-1.9 3.5-7.7 9.2-25.8 9.2-4.1 0-7.7-.3-10-.5 0-5 1-16.8 6.9-27.7 3.8-7 14-10.8 21.9-12.7a87.3 87.3 0 0 1 14-2.5m3-3.3S88.7 8 80.4 23.3 73 55 73 55s5.8 1 13 1c10.3 0 23.6-2 28.4-10.8 8.4-15.3 7.4-39 7.4-39z" fill="#666"/><path d="M97.5 32.6c-4.2 9 1.4 21.3 1.4 21.3s12.6-2.3 16.9-11.3 2-21.4 2-21.4-16 2.3-20.3 11.4z" fill="#666"/><linearGradient id="a" x1="63.9" x2="63.9" y1="119.1" y2="13.5" gradientUnits="userSpaceOnUse"><stop stop-color="#8F8F8F" offset="0"/><stop stop-color="#949494" offset=".1"/><stop stop-color="#ACACAC" offset=".3"/><stop stop-color="#BABABA" offset=".6"/><stop stop-color="#BFBFBF" offset=".7"/></linearGradient><path d="M64 119.1c-12.6-.1-23.8-8-32-13.7l-1.3-1A45.8 45.8 0 0 0 5 96c10-19.9 10-20.9 10-21.5 0-.8-.7-1.5-1.5-1.5h-8l4.6-8.1c3.4-6 6.6-12.4 10.4-21C29 24.5 44.8 13.5 63.9 13.5h.6c18.7.2 34.2 11 42.5 29.7 3.8 8.5 7 14.7 10.2 20.4l5.4 9.4H114c-.8 0-1.4.7-1.5 1.5 0 .6 0 1.3 10.2 21.4a48 48 0 0 0-26 8.8l-2.7 2c-7.8 5.5-17.5 12.4-29.6 12.4H64z" fill="url(#a)"/><path d="M63.8 15h.6c18 .2 33 10.7 41.1 28.8 3.9 8.5 7 15 10.3 20.8L120 72h-6a2.9 2.9 0 0 0-3 2.7c0 1 0 1.5 9.3 20a49.3 49.3 0 0 0-27.1 10.7c-7.7 5.5-17.2 12.2-28.8 12.2H64c-12.1-.1-23.1-7.8-31.2-13.5l-1.3-.9a47.6 47.6 0 0 0-24-8.7c9-18.2 9-18.8 8.9-19.8a3 3 0 0 0-3-2.7H7.9l3.4-6.2c3.4-6 6.6-12.6 10.4-21.2C30 25.8 45.3 15 63.7 15m0-3c-21.6 0-37 13.7-44.7 31.3-3.2 7.2-6.5 14.2-10.3 21l-5 8.9c-.4.7 0 1.8 1 1.8h8.7c0 1-7.1 15.9-9.6 21-.4.7.2 1.5 1.2 1.5 9 0 17.6 3 25 8.2 8.4 5.8 20.4 14.8 34.1 15h.4c14 0 24.6-9 33.1-15a46 46 0 0 1 26.2-8.7c.6 0 1-.3.7-.9A286.5 286.5 0 0 1 114 75h8.8c1 0 1.7-1.2 1.2-2.1l-5.6-9.8a278 278 0 0 1-10.1-20.5A48.3 48.3 0 0 0 64.4 12h-.6z" fill="#8E8E8E"/><linearGradient id="b" x1="64" x2="64" y1="36.2" y2="116.7" gradientUnits="userSpaceOnUse"><stop stop-color="#fff" offset="0"/><stop stop-color="#FCFCFC" offset=".3"/><stop stop-color="#F3F3F3" offset=".5"/><stop stop-color="#E3E3E3" offset=".7"/><stop stop-color="#CDCDCD" offset=".8"/><stop stop-color="#B3B3B3" offset="1"/></linearGradient><path d="M103.5 61.7c-.3-8-2.3-19.7-9.6-23.9-10.6-6-21.1 6.5-21 17.1.2 14 12.6 30.7 3 43.9a13.6 13.6 0 0 1-11.9 5.4 13 13 0 0 1-11.5-5.4c-9.7-13.2 2.5-30 2.7-43.9 0-10.7-10.5-23.1-21-17-7.4 4.1-9.4 15.8-9.7 23.8a55 55 0 0 0 13.8 40.1c8.4 9 15.7 14.7 25.7 15 8-.3 17.7-6 26-15a55 55 0 0 0 13.5-40z" fill="url(#b)"/><path d="M73.2 107.6a8.3 8.3 0 0 1-8.2-8.3V92a1.5 1.5 0 1 0-3 0v7.3c0 4.5-3.8 8.3-8.2 8.3a1.5 1.5 0 1 0 0 3 11 11 0 0 0 9.7-5.7c2 3.4 5.5 5.7 9.7 5.7a1.5 1.5 0 1 0 0-3z" fill="#404040"/><linearGradient id="c" x1="63.7" x2="63.7" y1="84.3" y2="94.4" gradientUnits="userSpaceOnUse"><stop stop-color="#4D4D4D" offset=".2"/><stop stop-color="#373737" offset=".4"/><stop stop-color="#0F0F0F" offset=".8"/><stop offset="1"/></linearGradient><path d="M57.5 84c-2 0-3.5 1.8-2.8 3.7 1.6 4 4.3 6.8 8.8 6.8h.4c4.4 0 7.2-2.8 8.7-6.8.8-1.9-.6-3.7-2.7-3.7H57.5z" fill="url(#c)"/><g fill="#404040"><ellipse cx="39.8" cy="64.9" rx="6.5" ry="6.3"/><ellipse cx="88.8" cy="64.9" rx="6.5" ry="6.3"/><path d="M31.9 57.4c3.6-1.1 7.6-.7 10.8 1.2a14 14 0 0 1 6.4 9m47-10.2c-3.6-1.1-7.6-.7-10.8 1.2-3.3 2-5.7 5.3-6.4 9"/></g></svg>