<svg viewBox="0 0 128 128" xmlns="http://www.w3.org/2000/svg"><linearGradient id="a" x1="19.272" x2="19.272" y1="69.861" y2="103.74" gradientUnits="userSpaceOnUse"><stop stop-color="#FFF1C4" offset="0"/><stop stop-color="#FFE2A7" offset=".426"/><stop stop-color="#FFCA7B" offset="1"/></linearGradient><path d="M13.04 69.34c-4.71 5.42-7.93 9.43-8.25 10.57-1.77 6.23-1.35 14.57 3.53 18.82 3.02 2.63 9.69 4.8 16.19 2.8 3.23-.99 9.46-7.98 10.21-7.83-3.26-11.1-10.76-21.4-21.68-24.36z" fill="url(#a)"/><linearGradient id="b" x1="68.513" x2="68.513" y1="17.527" y2="123.91" gradientUnits="userSpaceOnUse"><stop stop-color="#FFAF61" offset=".232"/><stop stop-color="#FCAC5F" offset=".415"/><stop stop-color="#F3A159" offset=".572"/><stop stop-color="#E38F50" offset=".719"/><stop stop-color="#CD7742" offset=".86"/><stop stop-color="#C46D3D" offset=".905"/></linearGradient><path d="M70.32 26.79c-.36-1.98-.94-3.95-2.22-5.49-3.67-4.4-7.16-2.68-10.2-.05-2.98 2.57-30.68 31.76-44.87 48.09C23.95 72.3 31.46 82.6 34.71 93.69c3.03.57 11.5 1.72 19.84-1.29C64.54 88.79 67.63 82 67.63 82l10.86 41.52H124V82.2S77.99 27.05 70.32 26.79z" fill="url(#b)"/><path d="M63.65 21.42c.71 0 1.52.55 2.42 1.62.79.95 1.07 2.48 1.37 4.11.25 1.36 1.31 2.37 2.69 2.45C73.96 30.4 94 48.54 121 77.7v42.64H80.82L70.53 81.32c-.33-1.25-1.39-2.16-2.68-2.24-.07 0-.12-.01-.19-.01-1.21 0-2.3.72-2.76 1.85-.1.22-2.44 5.41-10.93 8.47-3.34 1.2-7.09 1.81-11.15 1.81-3.27 0-5.91-.41-7.19-.65-.18-.03-.4-.05-.58-.05-1.49 0-2.36.79-4.92 3.13-1.58 1.44-4.86 4.44-6.19 4.84-1.41.43-2.9.65-4.43.65-3.94 0-7.35-1.43-8.98-2.85C6.81 93.04 6.37 86 7.86 80.66c.19-.36 1.35-2.31 7.66-9.54 14.5-16.63 41.89-45.39 44.67-47.79 1.5-1.29 2.63-1.91 3.46-1.91m0-3c-1.9 0-3.71 1.18-5.41 2.64-2.99 2.57-30.74 31.76-44.98 48.09-4.73 5.42-7.92 9.43-8.25 10.57-1.78 6.23-1.34 14.57 3.56 18.82 2.2 1.91 6.35 3.58 10.95 3.58 1.73 0 3.52-.24 5.31-.78 3.21-.98 9.38-7.84 10.23-7.84h.02c1.49.28 4.29.7 7.75.7 3.6 0 7.9-.45 12.17-1.99 10.02-3.61 12.68-10.12 12.68-10.12l10.84 41.25h45.49V76.52S78.02 26.86 70.32 26.6c-.36-1.98-.69-3.95-1.98-5.49-1.64-1.95-3.18-2.69-4.69-2.69z" fill="#AB7960"/><linearGradient id="c" x1="26.248" x2="63.087" y1="18.087" y2="41.77" gradientUnits="userSpaceOnUse"><stop stop-color="#C69C6D" offset=".001"/><stop stop-color="#C59B6C" offset=".007"/><stop stop-color="#7D542C" offset=".685"/><stop stop-color="#603813" offset="1"/></linearGradient><path d="M38.99 42.74c-1.59 0-3.28-.13-5.01-.39-4.7-.7-9.79-4.24-11.4-10.64 1.39.59 3 .91 4.66.91s3.27-.32 4.65-.92c3.78-1.64 6.85-4.69 9.56-7.38 2.5-2.49 5.34-5.3 8.66-6.7 1.24-.52 2.68-.81 4.05-.81 1.38 0 4.69.32 5.53 3.29.8 2.83.06 9.55-4.06 14.99-3.79 5.02-9.54 7.65-16.64 7.65z" fill="url(#c)"/><path d="M54.16 18.33c1.29 0 3.54.29 4.08 2.2.62 2.19.14 8.46-3.81 13.68-3.53 4.67-8.73 7.04-15.43 7.04-1.52 0-3.13-.13-4.79-.37-2.7-.4-7.03-2.31-9.24-6.92.74.12 1.5.18 2.28.18 1.86 0 3.68-.36 5.25-1.04 4.04-1.75 7.22-4.91 10.02-7.69 2.41-2.39 5.13-5.1 8.18-6.38 1.05-.46 2.28-.7 3.46-.7m0-3c-1.59 0-3.22.33-4.63.93-3.5 1.47-6.37 4.28-9.13 7.02s-5.62 5.56-9.1 7.07c-1.22.53-2.64.79-4.06.79-2.09 0-4.18-.57-5.66-1.71a.498.498 0 0 0-.32-.11c-.3 0-.58.26-.54.61 1.11 8.72 7.71 13.12 13.04 13.91 1.85.28 3.6.4 5.23.4 19.63 0 23.81-18.59 22.13-24.53-.87-3.1-3.84-4.38-6.96-4.38z" fill="#734825"/><ellipse cx="50.79" cy="55.04" rx="6.5" ry="7.35" fill="#404040"/><linearGradient id="d" x1="96.096" x2="96.096" y1="32.318" y2="79.958" gradientUnits="userSpaceOnUse"><stop stop-color="#C69C6D" offset=".001"/><stop stop-color="#C59B6C" offset=".007"/><stop stop-color="#7D542C" offset=".685"/><stop stop-color="#603813" offset="1"/></linearGradient><path d="M116.14 86.32c-2.25-3.25-6.16-13.5-7.96-18.22-.58-1.52-1.09-2.86-1.51-3.91-.23-.57-.78-.95-1.39-.95-.04 0-.08 0-.13.01-.66.05-1.2.53-1.34 1.18-.15.68-.22 1.78-.31 3.18-.1 1.48-.3 4.56-.72 6.09-1.81-2.92-5.3-13.06-7.64-21.69-.18-.65-.77-1-1.45-1h-.04c-.69 0-1.28.41-1.43 1.08-.14.67-.19 1.76-.27 3.72-.07 1.89-.22 5.85-.69 7.72-1.62-2.96-3.9-12.54-4.95-16.91-.76-3.2-1.21-5.06-1.53-5.88-.21-.56-.74-.94-1.33-.96h-.07c-.57 0-1.09.32-1.34.83-.66 1.33-.93 3.8-1.25 6.65-.15 1.36-.37 3.37-.64 4.64-5.82-5.88-9.52-23.77-10.98-33.03C77.79 22.33 107 35.27 123 53.62V85.1c-1-3.2-2.22-6.32-3.34-8.31-.27-.48-.85-.76-1.39-.76-.08 0-.21.01-.29.02-.62.11-1.13.59-1.25 1.21-.13.73-.19 2.02-.24 3.65-.04 1.39-.14 3.86-.35 5.41z" fill="url(#d)"/><path d="M70.86 21.27C81.5 25.75 107 37.74 121 54.17v22.57c0-.24-.16-.47-.28-.69-.54-.95-1.5-1.53-2.57-1.53a2.975 2.975 0 0 0-2.92 2.47c-.14.8-.18 1.93-.25 3.86v.03c-2-4.41-4.29-10.4-5.4-13.32-.58-1.52-1.1-2.88-1.51-3.93a3.005 3.005 0 0 0-3.04-1.88 2.987 2.987 0 0 0-2.68 2.36c-.17.78-.24 1.93-.34 3.39-.01.21-.03.46-.05.74-1.65-4.28-3.71-10.6-5.37-16.73a2.995 2.995 0 0 0-2.89-2.21h-.08a2.996 2.996 0 0 0-2.85 2.37c-.17.8-.22 1.93-.3 4.04-.01.26-.02.56-.03.89-1.07-3.74-2.1-8.07-2.64-10.34-.8-3.36-1.24-5.15-1.58-6.06a3.01 3.01 0 0 0-2.66-1.92h-.14c-1.13 0-2.18.64-2.69 1.66-.73 1.46-1.01 3.68-1.39 7.16-.04.32-.12.68-.16 1.06-3.72-6.14-6.72-17.69-8.32-26.89m-3.77-4.82S71.32 48 80.55 54h.01c1.75 0 1.57-10.27 2.84-12.82 1.06 2.76 5.02 23.8 7.9 24.43.05.01.11.04.16.04 2.28 0 1.8-11.34 2.23-13.37 1.8 6.62 6.85 23.1 9.11 23.49.05.01.09.01.13.01 2.12 0 1.9-8.82 2.35-10.89 2.55 6.41 8.64 24.1 11.39 24.1h.02c1.48 0 1.05-9.29 1.41-11.32 2.99 5.31 5.89 19.51 5.89 19.51V53.09c-17.99-22.3-56.9-36.64-56.9-36.64z" fill="#734825"/><path d="M18.79 77.23c1.62.43 2.72 2.09 2.81 3.76s-.7 3.29-1.84 4.52c-1.36 1.48-3.34 1.32-3.84-.86-.26-1.12.87-2.6.6-3.85-.31-1.41-4.55-1.14-1.9-2.69 1.2-.7 2.78-1.25 4.17-.88z" fill="#404040"/><path d="M58.11 6.25c.51-1.91 2.97-2.42 4.19-.86 5.9 7.57 17.55 24.96 3.18 28.49-14.16 3.46-9.9-18.07-7.37-27.63z" fill="#FFAF61"/><linearGradient id="e" x1="60.364" x2="63.953" y1="5.627" y2="25.817" gradientUnits="userSpaceOnUse"><stop stop-color="#D49151" offset="0"/><stop stop-color="#D28E4F" offset=".319"/><stop stop-color="#CE8349" offset=".593"/><stop stop-color="#C6713F" offset=".849"/><stop stop-color="#C46D3D" offset=".9"/></linearGradient><path d="M66.42 20.57c.48 1.34.86 2.77.69 4.19s-1 2.84-2.29 3.26c-1.44.48-3.03-.43-3.87-1.75-.85-1.32-1.11-2.97-1.27-4.57-.19-1.85.43-8.17 1.45-12.13.31-1.21 4.71 9.37 5.29 11z" fill="url(#e)"/></svg>