<svg viewBox="0 0 128 128" xmlns="http://www.w3.org/2000/svg"><linearGradient id="a" x1="64" x2="64" y1="118.5" y2="11" gradientUnits="userSpaceOnUse"><stop stop-color="#E08787" offset="0"/><stop stop-color="#FFB5B5" offset=".4"/></linearGradient><path d="M64 118.5c-34.2 0-53.8-16.8-53.8-46a69 69 0 0 1 14.1-42C31.3 21.5 44 11 64 11s32.7 10.6 39.7 19.4c9 11.4 14 26.7 14 42 0 29.3-19.5 46.1-53.7 46.1z" fill="url(#a)"/><path d="M64 12.5a47.7 47.7 0 0 1 38.5 18.9c8.7 11 13.7 26 13.7 41a41 41 0 0 1-13.5 33C93.7 113 80.4 117 64 117s-29.8-4-38.7-11.6a41 41 0 0 1-13.5-33c0-15 5-30 13.7-41 6.8-8.6 19-18.9 38.5-18.9m0-3c-35.3 0-55.3 32.4-55.3 63S29.4 120 64 120s55.3-17 55.3-47.6S99.3 9.5 64 9.5z" fill="#ED7E7E"/><g fill="#404040"><ellipse cx="33.3" cy="59.6" rx="9.2" ry="10.4"/><ellipse cx="94.7" cy="59.6" rx="9.2" ry="10.4"/></g><path d="M64 64.8c-12.8 0-23.1 11.8-23.1 23s10.3 17.8 23.1 17.8S87.1 99 87.1 87.8s-10.3-23-23.1-23z" fill="#EB7070"/><path d="M61.1 87.3a5.2 5.2 0 0 0 0-1c0-5-1.9-7.9-4.2-8.2a1.7 1.7 0 0 0-1 0c-2.2.3-4 3.2-4.2 8.2a5.2 5.2 0 0 0 0 1c.2 5 2 7.9 4.2 8.2a1.7 1.7 0 0 0 1 0c2.3-.3 4.1-3.2 4.2-8.2zm15.1 0a5.2 5.2 0 0 0 0-1c0-5-1.9-7.9-4.2-8.2a1.7 1.7 0 0 0-1 0c-2.2.3-4 3.2-4.2 8.2a5.2 5.2 0 0 0 0 1c.2 5 2 7.9 4.2 8.2a1.7 1.7 0 0 0 1 0c2.3-.3 4.1-3.2 4.2-8.2z" fill="#404040"/><linearGradient id="b" x1="-334.8" x2="-334.8" y1="57.1" y2="-34.3" gradientTransform="matrix(-1 0 0 1 -230 0)" gradientUnits="userSpaceOnUse"><stop stop-color="#f99" offset="0"/><stop stop-color="#FFB5B5" offset=".4"/></linearGradient><path d="M122.2 44.6a34.6 34.6 0 0 1-34.6-33.4h34.6v33.4z" fill="url(#b)"/><path d="M95.8 12.7h24.9v30.4A35 35 0 0 1 99 33.8a32.3 32.3 0 0 1-9.9-21l6.6-.1m0-3H86a36.2 36.2 0 0 0 37.6 36.5V9.7H95.9z" fill="#ED7E7E"/><linearGradient id="c" x1="-263" x2="-263" y1="57.1" y2="-34.3" gradientTransform="translate(286)" gradientUnits="userSpaceOnUse"><stop stop-color="#f99" offset="0"/><stop stop-color="#FFB5B5" offset=".4"/></linearGradient><path d="M5.8 11.2h34.6A34.6 34.6 0 0 1 5.8 44.6V11.2z" fill="url(#c)"/><path d="M32.1 12.7h6.7a32.4 32.4 0 0 1-10 21.1 35 35 0 0 1-21.5 9.3V12.7h24.8m0-3H4.3v36.5c20.8 0 37.6-15 37.6-36.5H32z" fill="#ED7E7E"/></svg>