<svg viewBox="0 0 128 128" xmlns="http://www.w3.org/2000/svg" xmlns:xlink="http://www.w3.org/1999/xlink"><linearGradient id="a" x1="64" x2="64" y1="38.9" y2="103" gradientUnits="userSpaceOnUse"><stop stop-color="#E91E63" offset="0"/><stop stop-color="#F06292" offset=".8"/></linearGradient><path d="M64.1 103.6c-24 0-34.5-11.8-43.6-20.1-8.2-7.6-16.1-11.7-16.1-11.7S35 28.5 51.7 28.5c6 0 9.3 2.3 11 4 .8.9 2.2 1 3 .1 2-1.7 5.5-4.2 10.8-4.2 17 0 47.1 43.7 47.1 43.7s-6.2 3-16.5 11.4c-9.3 7.4-21.3 20-43 20z" fill="url(#a)"/><linearGradient id="b" x1="63.9" x2="63.9" y1="43.5" y2="60.1" gradientUnits="userSpaceOnUse"><stop stop-color="#E0E0E0" offset=".1"/><stop stop-color="#FAFAFA" offset=".5"/></linearGradient><path d="M63.9 76.3c-31.3 0-46-6.5-46-6.5s20.2-26.5 46-26.5S110 69.8 110 69.8s-15 6.5-46.2 6.5z" fill="url(#b)"/><defs><path id="c" d="M63.9 76.3c-31.3 0-46-6.5-46-6.5s20.2-26.5 46-26.5S110 69.8 110 69.8s-15 6.5-46.2 6.5z"/></defs><clipPath id="d"><use xlink:href="#c"/></clipPath><linearGradient id="e" x1="64" x2="64" y1="50.5" y2="72.4" gradientUnits="userSpaceOnUse"><stop stop-color="#632627" offset=".5"/><stop stop-color="#522627" offset=".9"/></linearGradient><path d="M126.4 81.8c0 20.7-28 37.5-62.4 37.5S1.6 102.5 1.6 81.8c0-11 30.6-27.8 30.6-27.8s8.2 3.6 31.8 3.6 32.3-3.4 32.3-3.4 30 16.7 30 27.6z" clip-path="url(#d)" fill="url(#e)"/><path d="M76.5 31.4c3.4 0 11.7 2.7 27.7 20.8 6.6 7.5 12.2 15 15 19a130 130 0 0 0-17.7 13c-8.7 7.3-19.5 16.4-37.4 16.4-21 0-30.7-9.2-39.3-17.2l-2.3-2.1A92 92 0 0 0 8.7 70.9c3-3.9 8.6-11.3 15.3-18.7 16.2-18 24.3-20.7 27.7-20.7 4.7 0 7.4 1.7 8.8 3.1a5.2 5.2 0 0 0 7.2.2c1.8-1.5 4.6-3.4 8.8-3.4m0-3a16 16 0 0 0-10.8 4.2c-.4.4-1 .6-1.4.6a2 2 0 0 1-1.6-.7c-1.7-1.7-5-4-11-4-16.6 0-47.3 43.3-47.3 43.3s8 4.1 16.1 11.7c9 8.3 19.5 20 43.6 20 21.7 0 33.7-12.6 43-20 10.3-8.3 16.5-11.4 16.5-11.4s-30-43.7-47.1-43.7z" fill="#424242" opacity=".2"/><path d="M63.9 46.3c18.7 0 34.8 15.3 41 22-1.8.6-4.1 1.2-7 1.9-6.9 1.4-18.3 3.1-34 3.1-21.2 0-34.8-3-41-4.9 6.3-6.8 22.3-22 41-22m0-3c-25.8 0-46 26.4-46 26.4s14.7 6.5 46 6.5 46.2-6.5 46.2-6.5-20.5-26.5-46.2-26.5z" fill="#424242" opacity=".2"/></svg>