<svg viewBox="0 0 128 128" xmlns="http://www.w3.org/2000/svg"><radialGradient id="a" cx="-1108.4" cy="-225.4" r="78" gradientTransform="rotate(-47 -220.3 -1409)" gradientUnits="userSpaceOnUse"><stop stop-color="#E0BB95" offset="0"/><stop stop-color="#CCA47A" offset=".6"/></radialGradient><path d="M72.8 115.2c-4.4 0-8.8-1.6-13-4.7-3.6-2.7-39.8-35.6-40.2-36-2.1-1.9-4.1-4.8-1.5-7.6a5 5 0 0 1 3.7-1.7 7 7 0 0 1 4.6 2l15 13.5c.3.2.6.3 1 .3a1.5 1.5 0 0 0 1-2.5l-24-23c-2.3-2.2-3.4-5.7-.9-8.4a5 5 0 0 1 3.7-1.7 7 7 0 0 1 4.7 2l24.5 22.3a1.5 1.5 0 0 0 2-.1c.6-.6.6-1.5 0-2.1L23.9 39.4a7 7 0 0 1-2.3-4.3 5 5 0 0 1 1.4-4 5 5 0 0 1 3.7-1.7 7 7 0 0 1 4.7 2l30 27.2a1.5 1.5 0 0 0 2 0c.6-.6.6-1.6 0-2.2L41.6 35.6c-2.4-2.2-3.6-5.6-1-8.4a5 5 0 0 1 3.7-1.7 7 7 0 0 1 4.7 2l29.5 27.2c.6.6 1.2.8 1.7.8 1.7 0 2.5-2 2.6-3.8 0-2-.6-4.5-1.3-7-.7-3-1.6-6.5-.9-8.4 1.5-3.8 5-7 7-7h.4c3.5 1.6 3.5 3.7 3 8.8l-.1 1c-.5 5.2 2.4 11.6 5 17.3 1 2.3 2 4.4 2.7 6.4l1.8 3.9c3.9 7.7 9.7 19.4-7.3 37.7-6.7 7.2-13.5 10.8-20.3 10.8z" fill="url(#a)"/><path d="M44.3 27c1.2 0 2.5.6 3.7 1.7l29.4 27c1 1.1 2.2 1.3 2.8 1.3 2.3 0 4-2.1 4-5.3.1-2.3-.5-4.8-1.2-7.4-.7-2.7-1.6-6-1-7.5 1.3-3.4 4.5-5.9 5.5-6 2.4 1 2.5 2 2 7.1l-.1 1c-.6 5.7 2.4 12.3 5.1 18.1 1 2.3 2 4.4 2.7 6.3.5 1.2 1.1 2.6 1.9 4 3.9 7.8 9.2 18.5-7 36-6.5 7-13 10.4-19.3 10.4-4.1 0-8.2-1.5-12.2-4.4-2.8-2.2-29.9-26.6-40-35.8a7 7 0 0 1-2.2-3.3c-.1-.6-.1-1.3.8-2.3.7-.8 1.6-1.2 2.6-1.2 1.2 0 2.5.6 3.6 1.7l15 13.4a3 3 0 0 0 4-4.4l-24-23c-1.6-1.6-2.8-4.1-.8-6.3.8-.8 1.6-1.2 2.6-1.2 1.2 0 2.5.6 3.7 1.7l24.5 22.2a3 3 0 0 0 4-4.4L25 38.3c-1.7-1.6-2.9-4.1-1-6.2.8-.8 1.7-1.2 2.7-1.2 1.2 0 2.5.5 3.7 1.6l30 27.3a3 3 0 0 0 4-4.4l-21.8-21c-1.7-1.5-2.9-4-.9-6.1.8-.9 1.6-1.3 2.6-1.3m0-3c-1.7 0-3.4.7-4.8 2.2-3 3.2-2.1 7.5 1 10.4l21.9 21-30-27.3a8.4 8.4 0 0 0-5.7-2.4c-1.7 0-3.4.6-4.8 2.1-3 3.2-2.2 7.5 1 10.5l29.5 28-24.5-22.1a8.5 8.5 0 0 0-5.7-2.5c-1.7 0-3.4.7-4.8 2.2-3 3.1-2.1 7.4 1 10.4l24 23-15-13.3a8.4 8.4 0 0 0-5.6-2.5c-1.7 0-3.4.7-4.8 2.2-3 3.2-1.6 6.8 1.6 9.8 0 0 36.6 33.3 40.3 36 3 2.2 7.8 5 14 5 6 0 13.3-2.7 21.3-11.3 20.9-22.4 8.5-35.8 5.8-43.1-2.5-6.9-8.3-16.2-7.7-23 .6-5.5 1.3-9.2-3.7-11.3-.3-.2-.7-.2-1-.2-2.8 0-6.9 3.9-8.4 8-1.6 4 2.2 11.4 2 15.8 0 1.2-.4 2.4-1 2.4l-.6-.3L50 26.5a8.4 8.4 0 0 0-5.7-2.5z" fill="#BA8F63"/><radialGradient id="b" cx="-486.8" cy="49.7" r="78" gradientTransform="rotate(-21.6 -239.7 -1383)" gradientUnits="userSpaceOnUse"><stop stop-color="#E0BB95" offset=".4"/><stop stop-color="#CCA47A" offset=".9"/></radialGradient><path d="M67.8 117c-10.4 0-16-6.5-18.8-11.9-2-3.9-20.7-49.2-21-49.6-1-2.7-1.5-6.2 2-7.6a5 5 0 0 1 2-.4c2.3 0 4.4 1.6 5.4 4.3l7.8 18.5a1.5 1.5 0 0 0 2 .8c.7-.3 1-1.1.8-1.9L36.2 38.1a7.1 7.1 0 0 1-.3-4.8 5 5 0 0 1 3-3.1 5 5 0 0 1 2-.4c2.3 0 4.4 1.6 5.4 4.3L59 64.7a1.5 1.5 0 0 0 2 .8c.7-.3 1-1.2.8-2L47 25.6a7.1 7.1 0 0 1-.3-4.8 5 5 0 0 1 3-3.1 5 5 0 0 1 2-.4c2.3 0 4.4 1.6 5.5 4.3L72.7 59a1.5 1.5 0 0 0 1.9.8c.8-.3 1.1-1.2.8-2L64.7 29.7c-1.2-3-.8-6.5 2.7-8l2-.3c2.3 0 4.4 1.6 5.4 4.3l15 37.2c.4 1.2 1.3 1.6 2 1.6 1.7 0 2.9-2 3.2-2.5a26 26 0 0 0 1.9-7c.6-3 1.2-6.4 2.7-7.8 2.2-2 5.6-3.6 8-3.6.8 0 1.4.1 1.7.4 2.5 3 1.6 4.8-1 9.2l-.6.9c-2.7 4.5-2.8 11.5-2.9 17.8 0 2.5 0 4.9-.3 6.9V83c.2 8.6.4 21.7-22.8 31-5 2-9.7 3-13.9 3z" fill="url(#b)"/><path d="M51.9 18.7c1.6 0 3.1 1.3 4 3.4l15.4 37.4a3 3 0 0 0 5.5-2.2L66.1 29c-.8-2-.8-4.9 1.9-6a4 4 0 0 1 1.4-.2c1.7 0 3.2 1.3 4 3.4l15 37A3.6 3.6 0 0 0 92 66c2.5 0 4-2.5 4.4-3.3 1-2 1.6-4.6 2-7.3.6-2.7 1.2-6 2.4-7.2 2-2 5.2-3.1 7-3.1h.6c1.6 2 1.3 3-1.4 7.3l-.5 1c-2.9 4.8-3 12-3 18.4-.1 2.5-.1 4.9-.3 6.9-.2 1.3-.1 2.8-.1 4.4.2 8.8.4 20.7-21.8 29.5a36 36 0 0 1-13.4 3c-7.7 0-13.6-3.8-17.5-11-1.7-3.3-15.6-37-20.8-49.6-1.8-4.5.4-5.4 1-5.6A4 4 0 0 1 32 49c1.7 0 3.2 1.2 4 3.3L43.8 71a3 3 0 0 0 5.6-2.2L37.6 37.5c-.8-2-.8-4.9 1.9-6a4 4 0 0 1 1.4-.2c1.7 0 3.2 1.2 4 3.4l12.6 30.5a3 3 0 0 0 5.6-2.2L48.5 25c-.8-2.1-.8-5 2-6 .4-.2.9-.3 1.4-.3m0-3a6 6 0 0 0-2.6.5c-4 1.6-5.2 5.8-3.6 9.8l14.6 38-12.6-30.5c-1.2-3.1-3.8-5.2-6.8-5.2-.8 0-1.7.1-2.5.5-4 1.6-5.2 5.8-3.6 9.8l11.8 31.1-7.8-18.5C37.6 48.1 35 46 32 46c-.8 0-1.7.1-2.5.5-4 1.6-4.4 5.5-2.8 9.5 0 0 18.8 45.8 21 49.8a22 22 0 0 0 20.1 12.6c4 0 8.9-.9 14.5-3.1 28.5-11.3 23-28.7 23.7-36.5.7-7.2-.5-18.2 3-24 2.8-4.8 5-7.8 1.4-11.9-.6-.6-1.6-1-2.7-1-2.8 0-6.6 1.7-9.1 4-3.1 3-2.9 11.3-5 15.3-.4.9-1.2 1.7-1.7 1.7-.3 0-.5-.2-.6-.6L76.2 25c-1.2-3.1-3.8-5.2-6.8-5.2-.8 0-1.7.1-2.5.5-4 1.6-5.2 5.8-3.6 9.8L74 58.4 58.6 20.9c-1.2-3.1-3.8-5.2-6.7-5.2z" fill="#BA8F63"/><path fill="none" stroke="#000" stroke-linecap="round" stroke-linejoin="round" stroke-miterlimit="10" stroke-width="3" d="M97.3 33.5l15.4-6M83 24.1L81.7 9.5m11.1 16.4L103 10.8"/></svg>