<svg viewBox="0 0 128 128" xmlns="http://www.w3.org/2000/svg" xmlns:xlink="http://www.w3.org/1999/xlink"><defs><path id="a" d="M-138-136h120v120h-120z"/></defs><clipPath id="b"><use xlink:href="#a"/></clipPath><g clip-path="url(#b)"><defs><path id="c" d="M-142-140h128v128h-128z"/></defs><clipPath id="d"><use xlink:href="#c"/></clipPath><g clip-path="url(#d)"><radialGradient id="e" cx="-387.45" cy="-217.27" r="137.58" gradientTransform="scale(-1 1) rotate(-45 32.507 -732.102)" gradientUnits="userSpaceOnUse"><stop stop-color="#FFCA28" offset=".353"/><stop stop-color="#FFB300" offset=".872"/></radialGradient><path d="M-162.27 46.77c-11.49 0-22.52-5.2-32.79-15.47-28.1-28.1-34.45-44.27-26.13-66.52 3.4-9.11 17.58-32.15 18.86-34.21 1.07-1.08 8.9-8.95 15.12-15.83 6.47-7.15 11.55-16.06 12.16-17.14a3.91 3.91 0 0 1 3.06-1.5c.67 0 1.31.18 1.87.53 7 4.32 9.36 9.53 7.23 15.93-1.55 4.66-5.81 9.55-9.24 13.48-3.98 4.57-6.61 7.59-5.63 10.13.16.4.3.83.44 1.24.64 1.88 1.31 3.83 3.11 3.83.75 0 1.46-.39 2.1-1.17 1.06-1.12 34.54-32.64 52.09-49.14 3.27-3.27 6.56-4.98 9.55-4.98 2.15 0 4.14.91 5.93 2.7 2.2 2.2 3.06 4.71 2.56 7.44-.47 2.57-2.13 5.34-4.8 8.01l-36.58 39.81c-.54.58-.53 1.49.03 2.06.29.3.68.46 1.08.46.35 0 .7-.12.98-.37l54.86-47.41c.03-.02.05-.05.08-.07 3.23-3.23 6.53-4.94 9.52-4.94 2.15 0 4.14.91 5.93 2.7 5.75 5.75 1.06 12.15-2.24 15.45l-8.21 7.79c-.59.56-.62 1.5-.07 2.11a1.502 1.502 0 0 0 2.1.1c2.92-2.63 5.87-4.01 8.54-4.01 2.15 0 4.14.91 5.93 2.7 2.2 2.2 3.06 4.71 2.56 7.44-.47 2.57-2.13 5.34-4.8 8.01-.03.03-.05.06-.08.09l-39.28 46.02a1.498 1.498 0 0 0 1.14 2.47c.35 0 .71-.12.99-.37l26.96-23.74c3.3-3.3 6.6-5.01 9.59-5.01 2.15 0 4.14.91 5.93 2.7 3.91 3.91 2.94 8.07-3.35 14.35-.59.56-61.17 58.51-71.75 65.83-5.58 3.87-14.53 8.5-25.35 8.5z" fill="url(#e)"/><path d="M-110.47-112.55c1.76 0 3.35.74 4.87 2.26 1.86 1.86 2.56 3.86 2.14 6.11-.42 2.27-1.94 4.77-4.39 7.22l-.09.09-36.53 39.77a2.995 2.995 0 0 0 .06 4.12c.59.6 1.37.91 2.15.91.7 0 1.4-.24 1.96-.73l54.86-47.41c.06-.05.11-.1.16-.15 2.9-2.9 5.91-4.5 8.46-4.5 1.76 0 3.35.74 4.87 2.26 2.53 2.53 4.19 6.88-2.22 13.3l-8.18 7.77c-.37.34-.75.69-1.12 1.06a3.012 3.012 0 0 0-.03 4.22c.59.6 1.37.91 2.15.91.74 0 1.49-.27 2.07-.82l1-.95c2.63-2.36 5.22-3.6 7.51-3.6 1.76 0 3.35.74 4.87 2.26 1.86 1.86 2.56 3.86 2.14 6.11-.42 2.27-1.94 4.77-4.39 7.22-.06.06-.11.11-.16.17l-39.28 46.02a3.01 3.01 0 0 0 .18 4.09c.58.57 1.34.86 2.11.86.71 0 1.41-.25 1.98-.75l26.97-23.74c.05-.04.09-.09.14-.13 2.9-2.9 5.91-4.5 8.46-4.5 1.76 0 3.35.74 4.87 2.26 2.2 2.2 2.08 3.88 1.67 5.24-.58 1.9-2.21 4.18-4.99 6.97-1.5 1.43-61.16 58.48-71.57 65.69-5.43 3.76-14.08 8.23-24.52 8.23-11.08 0-21.75-5.06-31.73-15.03-14.27-14.27-22.36-24.88-26.22-34.4-3.95-9.75-3.82-19.16.43-30.53 3.29-8.79 16.91-31 18.64-33.8 1.46-1.46 9-9.08 15.05-15.76 6.38-7.06 11.43-15.79 12.29-17.3.45-.54 1.12-.85 1.81-.85a2 2 0 0 1 1.09.31c6.4 3.96 8.5 8.46 6.59 14.18-1.46 4.37-5.61 9.14-8.94 12.97-4.18 4.8-7.21 8.28-5.9 11.66.15.38.29.79.42 1.18.7 2.04 1.65 4.84 4.53 4.84.82 0 2.03-.28 3.18-1.62 1.71-1.73 31.96-30.21 52.04-49.09.02-.02.04-.04.07-.06 2.91-2.94 5.92-4.54 8.47-4.54m0-3c-3.61 0-7.31 2.11-10.58 5.38 0 0-51.53 48.45-52.22 49.27-.36.44-.67.62-.95.62-.95 0-1.44-2.26-2.15-4.11-1.36-3.52 11.71-13.06 14.89-22.6 3.39-10.18-4.46-15.57-7.86-17.68-.83-.51-1.75-.75-2.66-.75a5.4 5.4 0 0 0-4.31 2.18s-5.3 9.54-12.01 16.96-15.19 15.9-15.19 15.9-15.44 24.88-19.08 34.62c-8.92 23.87-.97 40.66 26.48 68.11 11.76 11.76 23.42 15.91 33.85 15.91 10.29 0 19.38-4.03 26.22-8.77 10.81-7.48 71.96-66.01 71.96-66.01 5.47-5.47 8.79-11.03 3.35-16.47-2.19-2.19-4.57-3.14-6.99-3.14-3.61 0-7.31 2.11-10.58 5.38L-105.28-17-66-63.01c5.47-5.47 7.69-12.13 2.24-17.57-2.19-2.19-4.57-3.14-6.99-3.14-3.23 0-6.54 1.69-9.55 4.4l-1.03.98c.34-.34.68-.67 1.03-.98l8.24-7.82c5.47-5.47 7.69-12.13 2.24-17.57-2.19-2.19-4.57-3.14-6.99-3.14-3.61 0-7.31 2.11-10.58 5.38l-54.86 47.41 36.53-39.77c5.47-5.47 7.69-12.13 2.24-17.57-2.19-2.19-4.57-3.15-6.99-3.15z" fill="#EDA600"/><linearGradient id="f" x1="-85.69" x2="-53.664" y1="-89.456" y2="-119.62" gradientUnits="userSpaceOnUse"><stop stop-color="#D32F2F" offset=".079"/><stop stop-color="#F44336" offset=".79"/></linearGradient><path d="M-68.05-92.69c-8.49 8.49-11.74 5.57-15.54 1.77s-6.72-7.06 1.77-15.54 18.45-12.28 22.26-8.48c3.79 3.8 0 13.76-8.49 22.25z" fill="url(#f)"/><linearGradient id="g" x1="-122.94" x2="-93.704" y1="-108.34" y2="-108.34" gradientUnits="userSpaceOnUse"><stop stop-color="#D32F2F" offset="0"/><stop stop-color="#F44336" offset=".644"/></linearGradient><path d="M-103.66-99.22c-8.49 8.49-11.74 5.57-15.54 1.77s-6.72-7.06 1.77-15.54 18.45-12.28 22.26-8.48c3.79 3.8 0 13.76-8.49 22.25z" fill="url(#g)"/><linearGradient id="h" x1="-79.066" x2="-49.686" y1="-39.975" y2="-39.975" gradientUnits="userSpaceOnUse"><stop stop-color="#D32F2F" offset="0"/><stop stop-color="#F44336" offset=".644"/></linearGradient><path d="M-60.41-30.91c-8.77 7.86-11.8 4.83-15.32.9s-6.21-7.27 2.56-15.13 18.73-11.05 22.25-7.12-.73 13.48-9.49 21.35z" fill="url(#h)"/><path d="M-131.67-31.17a1.5 1.5 0 0 1-1.02-2.6L-83.8-79.6c.61-.56 2.34-.7 2.9-.09s.3 1.94-.3 2.5l-49.44 45.62c-.3.27-.66.4-1.03.4z" fill="#EDA600"/><linearGradient id="i" x1="-82.307" x2="-54.735" y1="-76.232" y2="-76.232" gradientUnits="userSpaceOnUse"><stop stop-color="#D32F2F" offset="0"/><stop stop-color="#F44336" offset=".644"/></linearGradient><path d="M-64.12-67.64c-8 8-11.07 5.25-14.66 1.67-3.59-3.59-6.34-6.66 1.67-14.66s17.4-11.58 20.99-8c3.58 3.59 0 12.99-8 20.99z" fill="url(#i)"/></g><g clip-path="url(#d)"><path fill="#C62828" d="M-33.046-111.68l5.546 2.29-11.451 27.729-5.546-2.29z"/><linearGradient id="j" x1="408.59" x2="408.65" y1="-102.08" y2="-127.42" gradientTransform="matrix(1.142 .4716 -.3817 .9243 -535.48 -209.94)" gradientUnits="userSpaceOnUse"><stop stop-color="#F44336" offset=".167"/><stop stop-color="#D32F2F" offset=".696"/></linearGradient><path d="M-21.46-106.01l-18.26-7.54a5.767 5.767 0 0 1-3.13-7.54l16.97-41.09a5.767 5.767 0 0 1 7.54-3.13l18.26 7.54a5.767 5.767 0 0 1 3.13 7.54l-16.97 41.09c-1.21 2.95-4.59 4.35-7.54 3.13z" fill="url(#j)"/><radialGradient id="k" cx="443.17" cy="-50.016" r="12.201" gradientTransform="rotate(22.437 231.352 -1302.681)" gradientUnits="userSpaceOnUse"><stop stop-color="#EF5350" offset="0"/><stop stop-color="#E53935" offset="1"/></radialGradient><path d="M-61.74-59.67s3.93-1.87 6.32-4.34c3.51-3.64-.29-8.52 4.68-15.87 2.76-4.08 6.42-4.53 6.42-4.53l5.9 2.56s5.65 6.78-3.54 17.62c-8.58 10.11-19.78 4.56-19.78 4.56z" fill="url(#k)"/><linearGradient id="l" x1="408.59" x2="408.65" y1="-102.08" y2="-127.42" gradientTransform="matrix(1.142 .4716 -.3817 .9243 -535.48 -209.94)" gradientUnits="userSpaceOnUse"><stop stop-color="#F44336" offset="0"/><stop stop-color="#E53A33" offset=".286"/><stop stop-color="#D83230" offset=".66"/><stop stop-color="#D32F2F" offset="1"/></linearGradient><path d="M-21.46-106.01l-18.26-7.54a5.767 5.767 0 0 1-3.13-7.54l16.97-41.09a5.767 5.767 0 0 1 7.54-3.13l18.26 7.54a5.767 5.767 0 0 1 3.13 7.54l-16.97 41.09c-1.21 2.95-4.59 4.35-7.54 3.13z" fill="url(#l)"/><path d="M-20.54-162.75c.36 0 .72.07 1.06.21L-1.22-155a2.77 2.77 0 0 1 1.5 3.62l-16.97 41.09a2.774 2.774 0 0 1-3.62 1.51l-18.26-7.54a2.77 2.77 0 0 1-1.5-3.62l16.97-41.09a2.754 2.754 0 0 1 2.56-1.72m0-3c-2.27 0-4.42 1.34-5.34 3.57l-16.97 41.09a5.776 5.776 0 0 0 3.13 7.54l18.26 7.54a5.769 5.769 0 0 0 7.54-3.13l16.97-41.09a5.776 5.776 0 0 0-3.13-7.54l-18.26-7.54c-.72-.29-1.47-.44-2.2-.44zM-44.58-81.25l4.13 1.79c.74 1.44 2.26 6.12-3.81 13.29-2.72 3.2-6.02 4.89-9.81 5.01.28-.25.54-.51.8-.77 2.41-2.49 2.51-5.36 2.61-7.88.09-2.52.19-5.12 2.4-8.39 1.3-1.93 2.83-2.73 3.68-3.05m.25-3.16s-3.67.45-6.42 4.53c-4.97 7.35-1.17 12.23-4.68 15.87-2.39 2.47-6.32 4.34-6.32 4.34s3.07 1.52 7.22 1.52c3.78 0 8.47-1.26 12.55-6.08 9.19-10.84 3.54-17.62 3.54-17.62l-5.89-2.56z" fill="#424242" opacity=".2"/></g></g><g clip-path="url(#b)" opacity=".2"><path d="M-63.72-113.43c.65 0 1.54.1 2.03.6 1.9 1.9-.52 10.05-8.48 18.01-3.82 3.82-5.96 4.62-7.08 4.62-1.27 0-2.5-1.13-4.22-2.86-1.62-1.62-2.78-2.87-2.85-4.08-.07-1.12.68-3.28 4.62-7.22 6.26-6.26 12.54-9.07 15.98-9.07m-.01-3c-4.8 0-11.85 3.71-18.1 9.96-8.49 8.49-5.57 11.74-1.77 15.54 1.99 1.99 3.83 3.74 6.34 3.74 2.29 0 5.15-1.45 9.2-5.5 8.49-8.49 12.28-18.45 8.48-22.26-1-1-2.43-1.48-4.15-1.48z" fill="#424242"/></g><g clip-path="url(#b)" opacity=".2"><path d="M-99.33-119.96c.65 0 1.54.1 2.03.6.9.9.78 3.33-.31 6.18-1.43 3.76-4.41 8.07-8.17 11.83-3.82 3.82-5.96 4.62-7.08 4.62-1.27 0-2.5-1.13-4.22-2.86-1.62-1.62-2.78-2.87-2.85-4.08-.07-1.12.68-3.28 4.62-7.22 6.26-6.26 12.54-9.07 15.98-9.07m0-3c-4.8 0-11.85 3.71-18.1 9.96-8.49 8.49-5.57 11.74-1.77 15.54 1.99 1.99 3.83 3.74 6.34 3.74 2.29 0 5.15-1.45 9.2-5.5 8.49-8.49 12.28-18.45 8.48-22.26-1-1-2.43-1.48-4.15-1.48z" fill="#424242"/></g><g clip-path="url(#b)" opacity=".2"><path d="M-55.44-50.95c.76 0 1.77.12 2.28.69.82.91.56 3.26-.64 5.98-1.6 3.6-4.74 7.66-8.62 11.14-3.82 3.42-5.92 4.14-7.01 4.14-1.18 0-2.21-.93-4.08-3.01-1.5-1.67-2.56-2.94-2.56-4.11-.01-1.09.83-3.15 4.89-6.79 5.45-4.88 11.62-8.04 15.74-8.04m0-3c-4.7 0-11.52 3.23-17.74 8.8-8.77 7.86-6.08 11.2-2.56 15.13 1.92 2.14 3.68 4.01 6.31 4.01 2.2 0 5.01-1.32 9.01-4.91 8.77-7.86 13.01-17.42 9.49-21.35-1.02-1.14-2.59-1.68-4.51-1.68z" fill="#424242"/></g><g clip-path="url(#b)" opacity=".2"><path d="M-60.04-87.02c.58 0 1.37.09 1.79.51 1.74 1.74-.56 9.31-8 16.75-3.56 3.56-5.53 4.31-6.56 4.31-1.13 0-2.26-1.05-3.86-2.64-1.5-1.5-2.57-2.65-2.64-3.74-.06-1.02.63-3.01 4.31-6.68 5.88-5.88 11.75-8.51 14.96-8.51m0-3c-4.53 0-11.18 3.5-17.07 9.39-8 8-5.25 11.07-1.67 14.66 1.88 1.88 3.61 3.52 5.98 3.52 2.16 0 4.86-1.37 8.68-5.19 8-8 11.58-17.4 8-20.99-.95-.94-2.3-1.39-3.92-1.39z" fill="#424242"/></g><defs><path id="m" d="M4-136h120v120H4z"/></defs><clipPath id="n"><use xlink:href="#m"/></clipPath><g clip-path="url(#n)"><defs><path id="o" d="M0-140h128v128H0z"/></defs><clipPath id="p"><use xlink:href="#o"/></clipPath><g clip-path="url(#p)"><radialGradient id="q" cx="-487.86" cy="-317.68" r="137.58" gradientTransform="scale(-1 1) rotate(-45 32.507 -732.102)" gradientUnits="userSpaceOnUse"><stop stop-color="#70534A" offset=".352"/><stop stop-color="#5C4037" offset=".877"/></radialGradient><path d="M-20.27 46.77c-11.49 0-22.52-5.2-32.79-15.47-28.1-28.1-34.45-44.27-26.13-66.52 3.4-9.11 17.58-32.15 18.86-34.21 1.07-1.08 8.9-8.95 15.12-15.83 6.47-7.15 11.55-16.06 12.16-17.14a3.91 3.91 0 0 1 3.06-1.5c.67 0 1.31.18 1.87.53 7 4.32 9.36 9.53 7.23 15.93-1.55 4.66-5.81 9.55-9.24 13.48-3.98 4.57-6.61 7.59-5.63 10.13.16.4.3.83.44 1.24.64 1.88 1.31 3.83 3.11 3.83.75 0 1.46-.39 2.1-1.17 1.06-1.12 34.54-32.64 52.09-49.14 3.27-3.27 6.56-4.98 9.55-4.98 2.15 0 4.14.91 5.93 2.7 2.2 2.2 3.06 4.71 2.56 7.44-.47 2.57-2.13 5.34-4.8 8.01L-1.36-56.08c-.54.58-.53 1.49.03 2.06.29.3.68.46 1.08.46.35 0 .7-.12.98-.37l54.86-47.41c.03-.02.05-.05.08-.07 3.23-3.23 6.53-4.94 9.52-4.94 2.15 0 4.14.91 5.93 2.7 5.75 5.75 1.06 12.15-2.24 15.45l-8.21 7.79c-.59.56-.62 1.5-.07 2.11a1.502 1.502 0 0 0 2.1.1c2.92-2.63 5.87-4.01 8.54-4.01 2.15 0 4.14.91 5.93 2.7 2.2 2.2 3.06 4.71 2.56 7.44-.47 2.57-2.13 5.34-4.8 8.01-.03.03-.05.06-.08.09l-39.27 46a1.498 1.498 0 0 0 1.14 2.47c.35 0 .71-.12.99-.37l26.96-23.74c3.3-3.3 6.6-5.01 9.59-5.01 2.15 0 4.14.91 5.93 2.7 3.91 3.91 2.94 8.07-3.35 14.35-.58.56-61.16 58.51-71.74 65.83-5.6 3.88-14.55 8.51-25.37 8.51z" fill="url(#q)"/><path d="M31.53-112.55c1.76 0 3.35.74 4.87 2.26 1.86 1.86 2.56 3.86 2.14 6.11-.42 2.27-1.94 4.77-4.39 7.22l-.09.09L-2.46-57.1a2.995 2.995 0 0 0 .06 4.12c.59.6 1.37.91 2.15.91.7 0 1.4-.24 1.96-.73l54.86-47.41c.06-.05.11-.1.16-.15 2.9-2.9 5.91-4.5 8.46-4.5 1.76 0 3.35.74 4.87 2.26 2.53 2.53 4.19 6.88-2.22 13.3l-8.18 7.77c-.37.34-.75.69-1.12 1.06a3.012 3.012 0 0 0-.03 4.22c.59.6 1.37.91 2.15.91.74 0 1.49-.27 2.07-.82l1-.95c2.63-2.36 5.22-3.6 7.51-3.6 1.76 0 3.35.74 4.87 2.26 1.86 1.86 2.56 3.86 2.14 6.11-.42 2.27-1.94 4.77-4.39 7.22-.06.06-.11.11-.16.17L34.43-18.94a3.01 3.01 0 0 0 .18 4.09c.58.57 1.34.86 2.11.86.71 0 1.41-.25 1.98-.75l26.97-23.74c.05-.04.09-.09.14-.13 2.9-2.9 5.91-4.5 8.46-4.5 1.76 0 3.35.74 4.87 2.26 2.2 2.2 2.08 3.88 1.67 5.24-.58 1.9-2.21 4.18-4.99 6.97-1.5 1.43-61.16 58.48-71.57 65.69-5.43 3.76-14.08 8.23-24.52 8.23-11.08 0-21.75-5.06-31.73-15.03C-66.27 15.97-74.36 5.36-78.22-4.17c-3.95-9.75-3.82-19.16.43-30.53 3.29-8.79 16.91-31 18.64-33.8 1.46-1.46 9-9.08 15.05-15.76 6.38-7.06 11.43-15.79 12.29-17.3.45-.54 1.12-.85 1.81-.85a2 2 0 0 1 1.09.31c6.4 3.96 8.5 8.46 6.59 14.18-1.46 4.37-5.61 9.14-8.94 12.97-4.18 4.8-7.21 8.28-5.9 11.66.15.38.29.79.42 1.18.7 2.04 1.65 4.84 4.53 4.84.82 0 2.03-.28 3.18-1.62 1.7-1.72 31.96-30.21 52.03-49.09.02-.02.04-.04.07-.06 2.9-2.91 5.91-4.51 8.46-4.51m0-3c-3.61 0-7.31 2.11-10.58 5.38 0 0-51.53 48.45-52.22 49.27-.36.44-.67.62-.95.62-.95 0-1.44-2.26-2.15-4.11-1.36-3.52 11.71-13.06 14.89-22.6 3.39-10.18-4.46-15.57-7.86-17.68-.83-.51-1.75-.75-2.66-.75a5.4 5.4 0 0 0-4.31 2.18s-5.3 9.54-12.01 16.96-15.19 15.9-15.19 15.9-15.45 24.89-19.09 34.63c-8.92 23.87-.97 40.66 26.48 68.11 11.76 11.76 23.42 15.91 33.85 15.91 10.29 0 19.38-4.03 26.22-8.77 10.81-7.48 71.96-66.01 71.96-66.01 5.47-5.47 8.79-11.03 3.35-16.47-2.19-2.19-4.57-3.14-6.99-3.14-3.61 0-7.31 2.11-10.58 5.38L36.72-17 76-63.01c5.47-5.47 7.69-12.13 2.24-17.57-2.19-2.19-4.57-3.14-6.99-3.14-3.23 0-6.54 1.69-9.55 4.4l-1.03.98c.34-.34.68-.67 1.03-.98l8.24-7.82c5.47-5.47 7.69-12.13 2.24-17.57-2.19-2.19-4.57-3.14-6.99-3.14-3.61 0-7.31 2.11-10.58 5.38L-.26-55.07l36.53-39.77c5.47-5.47 7.69-12.13 2.24-17.57-2.18-2.18-4.56-3.14-6.98-3.14z" fill="#4A2F27"/><linearGradient id="r" x1="56.31" x2="88.336" y1="-89.456" y2="-119.62" gradientUnits="userSpaceOnUse"><stop stop-color="#D32F2F" offset=".079"/><stop stop-color="#F44336" offset=".79"/></linearGradient><path d="M73.95-92.69c-8.49 8.49-11.74 5.57-15.54 1.77s-6.72-7.06 1.77-15.54 18.45-12.28 22.26-8.48 0 13.76-8.49 22.25z" fill="url(#r)"/><linearGradient id="s" x1="19.06" x2="48.296" y1="-108.34" y2="-108.34" gradientUnits="userSpaceOnUse"><stop stop-color="#D32F2F" offset="0"/><stop stop-color="#F44336" offset=".644"/></linearGradient><path d="M38.34-99.22c-8.49 8.49-11.74 5.57-15.54 1.77s-6.72-7.06 1.77-15.54 18.45-12.28 22.26-8.48c3.79 3.8 0 13.76-8.49 22.25z" fill="url(#s)"/><linearGradient id="t" x1="62.934" x2="92.314" y1="-39.975" y2="-39.975" gradientUnits="userSpaceOnUse"><stop stop-color="#D32F2F" offset="0"/><stop stop-color="#F44336" offset=".644"/></linearGradient><path d="M81.59-30.91c-8.77 7.86-11.8 4.83-15.32.9s-6.21-7.27 2.56-15.13 18.73-11.05 22.25-7.12c3.52 3.92-.73 13.48-9.49 21.35z" fill="url(#t)"/><path d="M10.33-31.17a1.5 1.5 0 0 1-1.02-2.6L58.2-79.6c.61-.56 2.34-.7 2.9-.09s.3 1.94-.3 2.5L11.35-31.57c-.29.27-.65.4-1.02.4z" fill="#4A2F27"/><linearGradient id="u" x1="59.693" x2="87.265" y1="-76.232" y2="-76.232" gradientUnits="userSpaceOnUse"><stop stop-color="#D32F2F" offset="0"/><stop stop-color="#F44336" offset=".644"/></linearGradient><path d="M77.88-67.64c-8 8-11.07 5.25-14.66 1.67-3.59-3.59-6.34-6.66 1.67-14.66 8-8 17.4-11.58 20.99-8 3.58 3.59 0 12.99-8 20.99z" fill="url(#u)"/></g><g clip-path="url(#p)"><path fill="#C62828" d="M108.955-111.68l5.546 2.29-11.45 27.729-5.547-2.29z"/><linearGradient id="v" x1="514.81" x2="514.87" y1="-156.28" y2="-181.62" gradientTransform="matrix(1.142 .4716 -.3817 .9243 -535.48 -209.94)" gradientUnits="userSpaceOnUse"><stop stop-color="#F44336" offset=".167"/><stop stop-color="#D32F2F" offset=".696"/></linearGradient><path d="M120.54-106.01l-18.26-7.54a5.767 5.767 0 0 1-3.13-7.54l16.97-41.09a5.767 5.767 0 0 1 7.54-3.13l18.26 7.54a5.767 5.767 0 0 1 3.13 7.54l-16.97 41.09c-1.21 2.95-4.59 4.35-7.54 3.13z" fill="url(#v)"/><radialGradient id="w" cx="574.41" cy="-104.22" r="12.201" gradientTransform="rotate(22.437 231.352 -1302.681)" gradientUnits="userSpaceOnUse"><stop stop-color="#EF5350" offset="0"/><stop stop-color="#E53935" offset="1"/></radialGradient><path d="M80.26-59.67s3.93-1.87 6.32-4.34c3.51-3.64-.29-8.52 4.68-15.87 2.76-4.08 6.42-4.53 6.42-4.53l5.9 2.56s5.65 6.78-3.54 17.62c-8.58 10.11-19.78 4.56-19.78 4.56z" fill="url(#w)"/><linearGradient id="x" x1="514.81" x2="514.87" y1="-156.28" y2="-181.62" gradientTransform="matrix(1.142 .4716 -.3817 .9243 -535.48 -209.94)" gradientUnits="userSpaceOnUse"><stop stop-color="#F44336" offset="0"/><stop stop-color="#E53A33" offset=".286"/><stop stop-color="#D83230" offset=".66"/><stop stop-color="#D32F2F" offset="1"/></linearGradient><path d="M120.54-106.01l-18.26-7.54a5.767 5.767 0 0 1-3.13-7.54l16.97-41.09a5.767 5.767 0 0 1 7.54-3.13l18.26 7.54a5.767 5.767 0 0 1 3.13 7.54l-16.97 41.09c-1.21 2.95-4.59 4.35-7.54 3.13z" fill="url(#x)"/><path d="M121.46-162.75c.36 0 .72.07 1.06.21l18.26 7.54a2.77 2.77 0 0 1 1.5 3.62l-16.97 41.09a2.774 2.774 0 0 1-3.62 1.51l-18.26-7.54a2.77 2.77 0 0 1-1.5-3.62l16.97-41.09a2.754 2.754 0 0 1 2.56-1.72m0-3c-2.27 0-4.42 1.34-5.34 3.57l-16.97 41.09a5.776 5.776 0 0 0 3.13 7.54l18.26 7.54a5.769 5.769 0 0 0 7.54-3.13l16.97-41.09a5.776 5.776 0 0 0-3.13-7.54l-18.26-7.54c-.72-.29-1.47-.44-2.2-.44zM97.42-81.25l4.13 1.79c.74 1.44 2.26 6.12-3.81 13.29-2.72 3.2-6.02 4.89-9.81 5.01.28-.25.54-.51.8-.77 2.41-2.49 2.51-5.36 2.61-7.88.09-2.52.19-5.12 2.4-8.39 1.3-1.93 2.83-2.73 3.68-3.05m.25-3.16s-3.67.45-6.42 4.53c-4.97 7.35-1.17 12.23-4.68 15.87-2.39 2.47-6.32 4.34-6.32 4.34s3.07 1.52 7.22 1.52c3.78 0 8.47-1.26 12.55-6.08 9.19-10.84 3.54-17.62 3.54-17.62l-5.89-2.56z" fill="#424242" opacity=".2"/></g></g><g clip-path="url(#n)" opacity=".2"><path d="M78.28-113.43c.65 0 1.54.1 2.03.6 1.9 1.9-.52 10.05-8.48 18.01-3.82 3.82-5.96 4.62-7.08 4.62-1.27 0-2.5-1.13-4.22-2.86-1.62-1.62-2.78-2.87-2.85-4.08-.07-1.12.68-3.28 4.62-7.22 6.26-6.26 12.54-9.07 15.98-9.07m-.01-3c-4.8 0-11.85 3.71-18.1 9.96-8.49 8.49-5.57 11.74-1.77 15.54 1.99 1.99 3.83 3.74 6.34 3.74 2.29 0 5.15-1.45 9.2-5.5 8.49-8.49 12.28-18.45 8.48-22.26-1-1-2.43-1.48-4.15-1.48z" fill="#424242"/></g><g clip-path="url(#n)" opacity=".2"><path d="M42.67-119.96c.65 0 1.54.1 2.03.6.9.9.78 3.33-.31 6.18-1.43 3.76-4.41 8.07-8.17 11.83-3.82 3.82-5.96 4.62-7.08 4.62-1.27 0-2.5-1.13-4.22-2.86-1.62-1.62-2.78-2.87-2.85-4.08-.07-1.12.68-3.28 4.62-7.22 6.26-6.26 12.54-9.07 15.98-9.07m0-3c-4.8 0-11.85 3.71-18.1 9.96-8.49 8.49-5.57 11.74-1.77 15.54 1.99 1.99 3.83 3.74 6.34 3.74 2.29 0 5.15-1.45 9.2-5.5 8.49-8.49 12.28-18.45 8.48-22.26-1-1-2.43-1.48-4.15-1.48z" fill="#424242"/></g><g clip-path="url(#n)" opacity=".2"><path d="M86.56-50.95c.76 0 1.77.12 2.28.69.82.91.56 3.26-.64 5.98-1.6 3.6-4.74 7.66-8.62 11.14-3.81 3.42-5.92 4.14-7.01 4.14-1.18 0-2.21-.93-4.08-3.01-1.5-1.67-2.56-2.94-2.56-4.11-.01-1.09.83-3.15 4.89-6.79 5.45-4.88 11.62-8.04 15.74-8.04m0-3c-4.7 0-11.52 3.23-17.74 8.8-8.77 7.86-6.08 11.2-2.56 15.13 1.92 2.14 3.68 4.01 6.31 4.01 2.2 0 5.01-1.32 9.01-4.91 8.77-7.86 13.01-17.42 9.49-21.35-1.02-1.14-2.59-1.68-4.51-1.68z" fill="#424242"/></g><g clip-path="url(#n)" opacity=".2"><path d="M81.96-87.02c.58 0 1.37.09 1.79.51 1.74 1.74-.56 9.31-8 16.75-3.56 3.56-5.53 4.31-6.56 4.31-1.13 0-2.26-1.05-3.86-2.64-1.5-1.5-2.57-2.65-2.64-3.74-.06-1.02.63-3.01 4.31-6.68 5.88-5.88 11.75-8.51 14.96-8.51m0-3c-4.53 0-11.18 3.5-17.07 9.39-8 8-5.25 11.07-1.67 14.66 1.88 1.88 3.61 3.52 5.98 3.52 2.16 0 4.86-1.37 8.68-5.19 8-8 11.58-17.4 8-20.99-.95-.94-2.3-1.39-3.92-1.39z" fill="#424242"/></g><defs><path id="y" d="M146-136h120v120H146z"/></defs><clipPath id="z"><use xlink:href="#y"/></clipPath><g clip-path="url(#z)"><defs><path id="A" d="M142-140h128v128H142z"/></defs><clipPath id="B"><use xlink:href="#A"/></clipPath><g clip-path="url(#B)"><radialGradient id="C" cx="-588.27" cy="-418.08" r="137.58" gradientTransform="scale(-1 1) rotate(-45 32.507 -732.102)" gradientUnits="userSpaceOnUse"><stop stop-color="#A56C43" offset=".353"/><stop stop-color="#8D5738" offset=".872"/></radialGradient><path d="M121.73 46.77c-11.49 0-22.52-5.2-32.79-15.47-28.1-28.1-34.45-44.27-26.13-66.52 3.4-9.11 17.58-32.15 18.86-34.21 1.07-1.08 8.9-8.95 15.12-15.83 6.47-7.15 11.55-16.06 12.16-17.14a3.91 3.91 0 0 1 3.06-1.5c.67 0 1.31.18 1.87.53 7 4.32 9.36 9.53 7.23 15.93-1.55 4.66-5.81 9.55-9.24 13.48-3.98 4.57-6.61 7.59-5.63 10.13.16.4.3.83.44 1.24.64 1.88 1.31 3.83 3.11 3.83.75 0 1.46-.39 2.1-1.17 1.06-1.12 34.54-32.64 52.09-49.14 3.27-3.27 6.56-4.98 9.55-4.98 2.15 0 4.14.91 5.93 2.7 2.2 2.2 3.06 4.71 2.56 7.44-.47 2.57-2.13 5.34-4.8 8.01l-36.58 39.81c-.54.58-.53 1.49.03 2.06.29.3.68.46 1.08.46.35 0 .7-.12.98-.37l54.86-47.41c.03-.02.05-.05.08-.07 3.23-3.23 6.53-4.94 9.52-4.94 2.15 0 4.14.91 5.93 2.7 5.75 5.75 1.06 12.15-2.24 15.45l-8.21 7.79c-.59.56-.62 1.5-.07 2.11a1.502 1.502 0 0 0 2.1.1c2.92-2.63 5.87-4.01 8.54-4.01 2.15 0 4.14.91 5.93 2.7 2.2 2.2 3.06 4.71 2.56 7.44-.47 2.57-2.13 5.34-4.8 8.01-.03.03-.05.06-.08.09l-39.28 46.02a1.498 1.498 0 0 0 1.14 2.47c.35 0 .71-.12.99-.37l26.96-23.74c3.3-3.3 6.6-5.01 9.59-5.01 2.15 0 4.14.91 5.93 2.7 3.91 3.91 2.94 8.07-3.35 14.35-.59.56-61.17 58.51-71.75 65.83-5.58 3.87-14.53 8.5-25.35 8.5z" fill="url(#C)"/><path d="M173.53-112.55c1.76 0 3.35.74 4.87 2.26 1.86 1.86 2.56 3.86 2.14 6.11-.42 2.27-1.94 4.77-4.39 7.22l-.09.09-36.52 39.77a2.995 2.995 0 0 0 .06 4.12c.59.6 1.37.91 2.15.91.7 0 1.4-.24 1.96-.73l54.86-47.41c.06-.05.11-.1.16-.15 2.9-2.9 5.91-4.5 8.46-4.5 1.76 0 3.35.74 4.87 2.26 2.53 2.53 4.19 6.88-2.22 13.3l-8.18 7.77c-.37.34-.75.7-1.12 1.06a3.012 3.012 0 0 0-.03 4.22c.59.6 1.37.91 2.15.91.74 0 1.49-.27 2.07-.82l1-.95c2.63-2.36 5.22-3.6 7.51-3.6 1.76 0 3.35.74 4.87 2.26 1.86 1.86 2.56 3.86 2.14 6.11-.42 2.27-1.94 4.77-4.39 7.22-.06.06-.11.11-.16.17l-39.28 46.02a3.01 3.01 0 0 0 .18 4.09c.58.57 1.34.86 2.11.86.71 0 1.41-.25 1.98-.75l26.97-23.74c.05-.04.09-.09.14-.13 2.9-2.9 5.91-4.5 8.46-4.5 1.76 0 3.35.74 4.87 2.26 2.25 2.25 3.84 5.04-3.32 12.21-1.5 1.43-61.16 58.48-71.57 65.69-5.43 3.76-14.08 8.23-24.52 8.23-11.08 0-21.75-5.06-31.73-15.03C75.73 15.97 67.64 5.36 63.78-4.17c-3.95-9.75-3.82-19.16.43-30.53 3.29-8.79 16.91-31 18.64-33.8 1.46-1.46 9-9.08 15.05-15.76 6.38-7.06 11.43-15.79 12.29-17.3.45-.54 1.12-.85 1.81-.85a2 2 0 0 1 1.09.31c6.4 3.96 8.5 8.46 6.59 14.18-1.46 4.37-5.61 9.14-8.94 12.97-4.18 4.8-7.21 8.28-5.9 11.66.15.38.29.79.42 1.18.7 2.04 1.65 4.84 4.53 4.84.82 0 2.03-.28 3.18-1.62 1.71-1.73 31.96-30.21 52.04-49.09.02-.02.04-.04.07-.06 2.89-2.91 5.9-4.51 8.45-4.51m0-3c-3.61 0-7.31 2.11-10.58 5.38 0 0-51.53 48.45-52.22 49.27-.36.44-.67.62-.95.62-.95 0-1.44-2.26-2.15-4.11-1.36-3.52 11.71-13.06 14.89-22.6 3.39-10.18-4.46-15.57-7.86-17.68-.83-.51-1.75-.75-2.66-.75a5.4 5.4 0 0 0-4.31 2.18s-5.3 9.54-12.01 16.96-15.19 15.9-15.19 15.9S65.04-45.49 61.4-35.75c-8.92 23.87-.97 40.66 26.48 68.11 11.76 11.76 23.42 15.91 33.85 15.91 10.29 0 19.38-4.03 26.22-8.77 10.81-7.48 71.96-66.01 71.96-66.01 5.47-5.47 8.79-11.03 3.35-16.47-2.19-2.19-4.57-3.14-6.99-3.14-3.61 0-7.31 2.11-10.58 5.38L178.72-17 218-63.01c5.47-5.47 7.69-12.13 2.24-17.57-2.19-2.19-4.57-3.14-6.99-3.14-3.23 0-6.54 1.69-9.55 4.4l-1.03.98a31 31 0 0 1 1.03-.98l8.24-7.82c5.47-5.47 7.69-12.13 2.24-17.57-2.19-2.19-4.57-3.14-6.99-3.14-3.61 0-7.31 2.11-10.58 5.38l-54.86 47.41 36.53-39.77c5.47-5.47 7.69-12.13 2.24-17.57-2.19-2.19-4.57-3.15-6.99-3.15z" fill="#875334"/><linearGradient id="D" x1="198.31" x2="230.34" y1="-89.456" y2="-119.62" gradientUnits="userSpaceOnUse"><stop stop-color="#D32F2F" offset=".079"/><stop stop-color="#F44336" offset=".79"/></linearGradient><path d="M215.95-92.69c-8.49 8.49-11.74 5.57-15.54 1.77s-6.72-7.06 1.77-15.54 18.45-12.28 22.26-8.48c3.79 3.8 0 13.76-8.49 22.25z" fill="url(#D)"/><linearGradient id="E" x1="161.06" x2="190.3" y1="-108.34" y2="-108.34" gradientUnits="userSpaceOnUse"><stop stop-color="#D32F2F" offset="0"/><stop stop-color="#F44336" offset=".644"/></linearGradient><path d="M180.34-99.22c-8.49 8.49-11.74 5.57-15.54 1.77s-6.72-7.06 1.77-15.54c8.49-8.49 18.45-12.28 22.26-8.48 3.79 3.8 0 13.76-8.49 22.25z" fill="url(#E)"/><linearGradient id="F" x1="204.93" x2="234.31" y1="-39.975" y2="-39.975" gradientUnits="userSpaceOnUse"><stop stop-color="#D32F2F" offset="0"/><stop stop-color="#F44336" offset=".644"/></linearGradient><path d="M223.59-30.91c-8.77 7.86-11.8 4.83-15.32.9s-6.21-7.27 2.56-15.13 18.73-11.05 22.25-7.12c3.52 3.92-.73 13.48-9.49 21.35z" fill="url(#F)"/><path d="M152.33-31.17a1.5 1.5 0 0 1-1.02-2.6L200.2-79.6c.61-.56 2.34-.7 2.9-.09s.3 1.94-.3 2.5l-49.44 45.62c-.3.27-.66.4-1.03.4z" fill="#875334"/><linearGradient id="G" x1="201.69" x2="229.26" y1="-76.232" y2="-76.232" gradientUnits="userSpaceOnUse"><stop stop-color="#D32F2F" offset="0"/><stop stop-color="#F44336" offset=".644"/></linearGradient><path d="M219.88-67.64c-8 8-11.07 5.25-14.66 1.67-3.59-3.59-6.34-6.66 1.67-14.66 8-8 17.4-11.58 20.99-8 3.58 3.59 0 12.99-8 20.99z" fill="url(#G)"/></g><g clip-path="url(#B)"><path fill="#C62828" d="M250.957-111.68l5.546 2.29-11.451 27.73-5.546-2.291z"/><linearGradient id="H" x1="621.04" x2="621.1" y1="-210.48" y2="-235.82" gradientTransform="matrix(1.142 .4716 -.3817 .9243 -535.48 -209.94)" gradientUnits="userSpaceOnUse"><stop stop-color="#F44336" offset=".167"/><stop stop-color="#D32F2F" offset=".696"/></linearGradient><path d="M262.54-106.01l-18.26-7.54a5.767 5.767 0 0 1-3.13-7.54l16.97-41.09a5.767 5.767 0 0 1 7.54-3.13l18.26 7.54a5.767 5.767 0 0 1 3.13 7.54l-16.97 41.09c-1.21 2.95-4.59 4.35-7.54 3.13z" fill="url(#H)"/><radialGradient id="I" cx="705.66" cy="-158.42" r="12.201" gradientTransform="rotate(22.437 231.352 -1302.681)" gradientUnits="userSpaceOnUse"><stop stop-color="#EF5350" offset="0"/><stop stop-color="#E53935" offset="1"/></radialGradient><path d="M222.26-59.67s3.93-1.87 6.32-4.34c3.51-3.64-.29-8.52 4.68-15.87 2.76-4.08 6.42-4.53 6.42-4.53l5.9 2.56s5.65 6.78-3.54 17.62c-8.58 10.11-19.78 4.56-19.78 4.56z" fill="url(#I)"/><linearGradient id="J" x1="621.04" x2="621.1" y1="-210.48" y2="-235.82" gradientTransform="matrix(1.142 .4716 -.3817 .9243 -535.48 -209.94)" gradientUnits="userSpaceOnUse"><stop stop-color="#F44336" offset="0"/><stop stop-color="#E53A33" offset=".286"/><stop stop-color="#D83230" offset=".66"/><stop stop-color="#D32F2F" offset="1"/></linearGradient><path d="M262.54-106.01l-18.26-7.54a5.767 5.767 0 0 1-3.13-7.54l16.97-41.09a5.767 5.767 0 0 1 7.54-3.13l18.26 7.54a5.767 5.767 0 0 1 3.13 7.54l-16.97 41.09c-1.21 2.95-4.59 4.35-7.54 3.13z" fill="url(#J)"/><path d="M263.46-162.75c.36 0 .72.07 1.06.21l18.26 7.54a2.77 2.77 0 0 1 1.5 3.62l-16.97 41.09a2.774 2.774 0 0 1-3.62 1.51l-18.26-7.54a2.77 2.77 0 0 1-1.5-3.62l16.97-41.09a2.754 2.754 0 0 1 2.56-1.72m0-3c-2.27 0-4.42 1.34-5.34 3.57l-16.97 41.09a5.776 5.776 0 0 0 3.13 7.54l18.26 7.54a5.769 5.769 0 0 0 7.54-3.13l16.97-41.09a5.776 5.776 0 0 0-3.13-7.54l-18.26-7.54c-.72-.29-1.47-.44-2.2-.44zM239.42-81.25l4.13 1.79c.74 1.44 2.26 6.12-3.81 13.29-2.72 3.2-6.02 4.89-9.81 5.01.28-.25.54-.51.8-.77 2.41-2.49 2.51-5.36 2.61-7.88.09-2.52.19-5.12 2.4-8.39 1.3-1.93 2.83-2.73 3.68-3.05m.25-3.16s-3.67.45-6.42 4.53c-4.97 7.35-1.17 12.23-4.68 15.87-2.39 2.47-6.32 4.34-6.32 4.34s3.07 1.52 7.22 1.52c3.78 0 8.47-1.26 12.55-6.08 9.19-10.84 3.54-17.62 3.54-17.62l-5.89-2.56z" fill="#424242" opacity=".2"/></g></g><g clip-path="url(#z)" opacity=".2"><path d="M220.28-113.43c.65 0 1.54.1 2.03.6.9.9.78 3.33-.31 6.18-1.43 3.76-4.41 8.07-8.17 11.83-3.82 3.82-5.96 4.62-7.08 4.62-1.27 0-2.5-1.13-4.22-2.86-1.62-1.62-2.78-2.87-2.85-4.08-.07-1.12.68-3.28 4.62-7.22 6.26-6.26 12.54-9.07 15.98-9.07m-.01-3c-4.8 0-11.85 3.71-18.1 9.96-8.49 8.49-5.57 11.74-1.77 15.54 1.99 1.99 3.83 3.74 6.34 3.74 2.29 0 5.15-1.45 9.2-5.5 8.49-8.49 12.28-18.45 8.48-22.26-1-1-2.43-1.48-4.15-1.48z" fill="#424242"/></g><g clip-path="url(#z)" opacity=".2"><path d="M184.67-119.96c.65 0 1.54.1 2.03.6 1.9 1.9-.52 10.05-8.48 18.01-3.82 3.82-5.96 4.62-7.08 4.62-1.27 0-2.5-1.13-4.22-2.86-1.62-1.62-2.78-2.87-2.85-4.08-.07-1.12.68-3.28 4.62-7.22 6.26-6.26 12.54-9.07 15.98-9.07m0-3c-4.8 0-11.85 3.71-18.1 9.96-8.49 8.49-5.57 11.74-1.77 15.54 1.99 1.99 3.83 3.74 6.34 3.74 2.29 0 5.15-1.45 9.2-5.5 8.49-8.49 12.28-18.45 8.48-22.26-1-1-2.43-1.48-4.15-1.48z" fill="#424242"/></g><g clip-path="url(#z)" opacity=".2"><path d="M228.56-50.95c.76 0 1.77.12 2.28.69.82.91.56 3.26-.64 5.98-1.6 3.6-4.74 7.66-8.62 11.14-3.82 3.42-5.92 4.14-7.01 4.14-1.18 0-2.21-.93-4.08-3.01-1.5-1.67-2.56-2.94-2.56-4.11-.01-1.09.83-3.15 4.89-6.79 5.45-4.88 11.62-8.04 15.74-8.04m0-3c-4.7 0-11.52 3.23-17.74 8.8-8.77 7.86-6.08 11.2-2.56 15.13 1.92 2.14 3.68 4.01 6.31 4.01 2.2 0 5.01-1.32 9.01-4.91 8.77-7.86 13.01-17.42 9.49-21.35-1.02-1.14-2.59-1.68-4.51-1.68z" fill="#424242"/></g><g clip-path="url(#z)" opacity=".2"><path d="M223.96-87.02c.58 0 1.37.09 1.79.51 1.74 1.74-.56 9.31-8 16.75-3.56 3.56-5.53 4.31-6.56 4.31-1.13 0-2.26-1.05-3.86-2.64-1.5-1.5-2.57-2.65-2.64-3.74-.06-1.02.63-3.01 4.31-6.68 5.88-5.88 11.75-8.51 14.96-8.51m0-3c-4.53 0-11.18 3.5-17.07 9.39-8 8-5.25 11.07-1.67 14.66 1.88 1.88 3.61 3.52 5.98 3.52 2.16 0 4.86-1.37 8.68-5.19 8-8 11.58-17.4 8-20.99-.95-.94-2.3-1.39-3.92-1.39z" fill="#424242"/></g><radialGradient id="K" cx="-822.9" cy="-456.4" r="89.837" gradientTransform="rotate(-45.001 206.954 -1254.89)" gradientUnits="userSpaceOnUse"><stop stop-color="#70534A" offset=".352"/><stop stop-color="#5C4037" offset=".877"/></radialGradient><path d="M78.8 117c-5.45 0-10.73-2.01-15.71-6-3.95-3.17-44.19-42.4-44.6-42.79-1.62-1.62-2.64-3.3-2.92-4.84-.29-1.6.2-3 1.5-4.3 1.21-1.21 2.69-1.85 4.28-1.85 1.94 0 3.93.92 5.59 2.59l16.63 15.98c.29.28.67.42 1.04.42a1.494 1.494 0 0 0 1.07-2.54L19.13 46.25c-2.66-2.66-3.91-6.73-.75-9.89 1.21-1.21 2.69-1.85 4.28-1.85 1.94 0 3.93.92 5.59 2.59l27.16 26.48c.29.28.67.43 1.05.43s.77-.15 1.06-.44c.58-.58.59-1.52.01-2.11L24.91 28.02c-1.51-1.51-2.42-3.32-2.58-5.08-.15-1.79.48-3.45 1.83-4.8 1.21-1.21 2.69-1.85 4.28-1.85 1.94 0 3.93.92 5.59 2.58L67.3 51.31c.29.28.67.43 1.05.43s.77-.15 1.06-.44c.58-.58.59-1.52.01-2.11L45.26 24.36c-1.52-1.52-2.43-3.32-2.58-5.08-.15-1.79.48-3.45 1.83-4.8 1.21-1.21 2.69-1.85 4.28-1.85 1.94 0 3.93.92 5.59 2.59 8.86 8.7 31.99 31.45 32.77 32.29.62.75 1.33.92 1.8.92 1.74 0 2.66-2.03 2.81-4.04.17-2.34-.45-5.13-1.11-8.08-.82-3.68-1.67-7.49-.73-9.72 1.85-4.38 6.13-7.92 8.43-7.92.23 0 .43.04.6.12 4.14 1.94 3.99 4.43 3.19 10.38l-.15 1.15c-.77 5.92 2.32 13.35 5.04 19.91 1.11 2.67 2.16 5.2 2.89 7.46.44 1.37 1.11 2.83 1.89 4.52 4.15 9.08 10.43 22.79-9.91 43.13C94.13 113.08 86.36 117 78.8 117z" fill="url(#K)"/><path d="M48.79 14.12c1.52 0 3.17.78 4.55 2.16C65.9 28.63 84.85 47.26 86.03 48.5c1.07 1.23 2.28 1.42 2.92 1.42 2.34 0 4.07-2.18 4.3-5.44.18-2.56-.46-5.45-1.14-8.51-.73-3.29-1.57-7.02-.81-8.81 1.7-4.02 5.61-6.97 7.07-7 2.99 1.42 3.09 2.76 2.28 8.8l-.15 1.15c-.82 6.32 2.35 13.95 5.14 20.67 1.1 2.64 2.13 5.14 2.85 7.34.47 1.45 1.19 3.02 1.95 4.68 2 4.38 4.5 9.83 4.1 16.51-.48 8.04-4.96 16.2-13.71 24.94-7.47 7.47-14.88 11.26-22.03 11.26-5.1 0-10.07-1.91-14.77-5.68-3.23-2.59-33.21-31.7-44.46-42.67-2.82-2.82-3.3-5.19-1.44-7.04.94-.94 2.02-1.41 3.22-1.41 1.52 0 3.17.78 4.53 2.15l.04.04 16.61 15.96c.58.56 1.33.84 2.08.84.77 0 1.54-.3 2.13-.88a2.997 2.997 0 0 0 .03-4.2L20.18 45.17c-1.25-1.25-2.01-2.72-2.13-4.14-.12-1.36.35-2.57 1.39-3.61.94-.94 2.02-1.41 3.22-1.41 1.52 0 3.17.78 4.56 2.17l27.15 26.46c.58.57 1.34.85 2.09.85.77 0 1.54-.29 2.12-.88a3.012 3.012 0 0 0 .03-4.22L25.96 26.95c-3.13-3.13-2.35-6.13-.73-7.75.94-.94 2.02-1.41 3.22-1.41 1.52 0 3.17.78 4.56 2.17l33.26 32.43c.58.57 1.34.85 2.09.85.77 0 1.54-.29 2.12-.88a3 3 0 0 0 .03-4.21l-24.2-24.86c-1.25-1.25-2.01-2.72-2.13-4.14-.12-1.36.35-2.57 1.39-3.61.94-.94 2.02-1.42 3.22-1.42m0-3c-1.9 0-3.77.72-5.34 2.29-3.5 3.5-2.78 8.48.73 11.99l24.17 24.83L35.1 17.81c-1.94-1.94-4.32-3.02-6.65-3.02-1.9 0-3.77.72-5.34 2.29-3.5 3.5-2.78 8.48.73 11.99L56.46 62.5 29.31 36.04c-1.94-1.94-4.32-3.02-6.65-3.02-1.9 0-3.77.72-5.34 2.29-3.5 3.5-2.78 8.48.73 11.99l26.56 27.39L28 58.73c-1.94-1.94-4.32-3.02-6.65-3.02-1.9 0-3.77.72-5.34 2.29-3.5 3.5-2.07 7.77 1.44 11.29 0 0 40.65 39.64 44.71 42.89 3.49 2.8 9.22 6.34 16.64 6.34 6.78 0 14.97-2.95 24.15-12.14 24.82-24.82 11.16-40.65 8.39-49.18-2.57-7.94-8.87-18.9-7.86-26.71.8-6.21 1.77-10.43-3.89-13.08a2.8 2.8 0 0 0-1.23-.26c-3.2 0-7.9 4.29-9.81 8.83-1.93 4.58 2.09 13.17 1.72 18.28-.09 1.26-.6 2.65-1.31 2.65-.21 0-.44-.12-.68-.41-.44-.53-32.83-32.35-32.83-32.35-1.94-1.94-4.33-3.03-6.66-3.03z" fill="#4A2F27"/><defs><path id="L" d="M96.6 19.39c-3.39-.18-8.29 3.03-10.66 8.48-2 4.58 6.53 20.61 6.53 20.61l-7.26-1.78s-31.14 61.54-24.47 66.89 22.98 12.03 42.21-7.21c24.82-24.82 11.16-40.65 8.39-49.18-2.57-7.94-11.42-23.52-8.58-28.97 1.85-3.51-3.3-8.69-6.16-8.84z"/></defs><clipPath id="M"><use xlink:href="#L"/></clipPath><g clip-path="url(#M)"><path d="M87.88 44.63c-4.77 10.65-2.06 22.47 4.68 34.78.93 1.7 2.52.87 1.71-.88-8.5-18.2-.88-34.64-.88-34.64l-5.51.74z" fill="#4A2F27"/></g><path d="M17.37 80.69c1.62 4.69 4.95 7.93 9.81 9.1 1.88.45 2.68-2.44.8-2.89-3.8-.92-6.43-3.3-7.72-7.01-.63-1.81-3.53-1.03-2.89.8z"/><path d="M8.92 76.44c1.45 11.05 10.22 18.33 21.36 18.06 1.93-.05 1.93-3.05 0-3-9.33.23-17.12-5.59-18.36-15.06-.25-1.89-3.25-1.92-3 0zM69.77 18.22c3.79.92 6.52 3.19 7.8 6.91.62 1.81 3.52 1.03 2.89-.8-1.62-4.7-5.06-7.83-9.9-9-1.87-.46-2.67 2.44-.79 2.89z"/><path d="M65.53 10.29c9.48.32 16.22 7.33 16.88 16.7.13 1.92 3.13 1.93 3 0-.77-11.04-8.69-19.32-19.88-19.7-1.94-.06-1.93 2.94 0 3z"/></svg>