<svg viewBox="0 0 128 128" xmlns="http://www.w3.org/2000/svg" xmlns:xlink="http://www.w3.org/1999/xlink"><linearGradient id="a" x1="-185.8" x2="-185.8" y1="-1558" y2="-1528.6" gradientTransform="matrix(.1599 -1.1147 1.1712 .168 1864.9 148.2)" gradientUnits="userSpaceOnUse"><stop stop-color="#70534A" offset=".6"/><stop stop-color="#5C4037" offset="1"/></linearGradient><path d="M58 119.3c-1.1 0-2.4 0-3.7-.2-7.2-1-22.1-4.1-31.7-9-3.6-1.8-2.9-9.7-2.5-14.4v-.6c1.2-12.6 13-13.6 22.5-14.3 2-.2 3.8-.3 5.3-.6l2.5-.2c14.2 0 19.3 21.5 19.3 21.7 0 .2 2.2 8.6-1.7 13.7-2 2.6-5.3 4-10 4z" fill="url(#a)"/><path d="M50.4 78.5v3c13 0 17.8 20.4 17.9 20.6 0 .2 2 8-1.4 12.4-1.8 2.2-4.7 3.4-8.9 3.4l-3.5-.3c-7.6-1-22.3-4.3-31.2-8.8-2.7-1.3-2-9.2-1.7-13v-.5c1-10.6 9.8-12.1 21.1-13 2-.2 3.9-.3 5.5-.6l2.2-.2v-3m0 0l-2.7.3c-8.7 1.4-27.5-.5-29 16.2-.5 5.2-1.5 14.1 3.2 16.5a118.2 118.2 0 0 0 36.1 9.3c18.4 0 13.2-19.4 13.2-19.4S66 78.5 50.4 78.5z" fill="#4A2F27"/><defs><path id="b" d="M47.7 78.8c17.7-2.9 23.5 22.6 23.5 22.6s6 22-17.1 19.2a123 123 0 0 1-32.2-9.1c-4.7-2.4-4-11.3-3.2-16.5 2.2-14.8 20.3-14.8 29-16.3z"/></defs><clipPath id="c"><use xlink:href="#b"/></clipPath><path d="M42.4 123.3c-1.6 3.5-9-.3-14.2-3.7-10.1-6.6-7.4-22 6.2-12.3 7 5 9.7 12.6 8 16z" clip-path="url(#c)" fill="#331E19"/><linearGradient id="d" x1="-211.4" x2="-211.4" y1="-1727.8" y2="-1698.3" gradientTransform="matrix(-.1599 -1.1147 -1.1712 .168 -1939.8 148.2)" gradientUnits="userSpaceOnUse"><stop stop-color="#70534A" offset=".6"/><stop stop-color="#5C4037" offset="1"/></linearGradient><path d="M70 119.3c-4.7 0-8-1.3-10-3.9-4-5-1.8-13.5-1.7-13.6 0-.3 5-21.8 19.3-21.8l2.5.2c1.5.3 3.3.4 5.3.6 9.5.7 21.3 1.7 22.4 14.3v.6c.5 4.7 1.2 12.6-2.4 14.5a116 116 0 0 1-35.4 9.2z" fill="url(#d)"/><path d="M77.6 81.5c.7 0 1.5 0 2.2.2 1.6.3 3.5.4 5.4.6 11.4.9 20.2 2.4 21.1 13v.5c.4 3.8 1.1 11.6-1.6 13a116 116 0 0 1-34.7 9c-4.2 0-7.1-1-8.8-3.3-3.5-4.5-1.5-12.3-1.5-12.3v-.2S61 96.7 64 91.4c3.7-6.5 8.3-9.9 13.6-9.9m0-3c-15.6 0-20.8 22.9-20.8 22.9s-5.2 19.4 13.2 19.4c1.2 0 2.5 0 4-.2 7.3-1 22.4-4.3 32-9 4.8-2.5 3.8-11.4 3.3-16.6-1.5-16.7-20.3-14.8-29-16.2a16 16 0 0 0-2.7-.3z" fill="#4A2F27"/><defs><path id="e" d="M80.3 78.8c-17.7-2.9-23.5 22.6-23.5 22.6s-6 22 17.1 19.2a123 123 0 0 0 32.2-9.1c4.7-2.4 4-11.3 3.2-16.5-2.2-14.8-20.3-14.8-29-16.3z"/></defs><clipPath id="f"><use xlink:href="#e"/></clipPath><path d="M85.6 123.3c1.6 3.5 9-.3 14.2-3.7 10.1-6.6 7.4-22-6.2-12.3-7 5-9.7 12.6-8 16z" clip-path="url(#f)" fill="#331E19"/><radialGradient id="g" cx="63.8" cy="35.4" r="86.4" gradientTransform="matrix(0 1 -.5694 0 84 -28.4)" gradientUnits="userSpaceOnUse"><stop stop-color="#70534A" offset=".7"/><stop stop-color="#543A32" offset="1"/></radialGradient><path d="M87.4 81.9C86.7 57.2 76.6 7 76.6 7H51.3S41.1 57.2 40.5 81.9c-.3 11.4 0 23 2.3 28.8a18 18 0 0 0 9 10.7c3.9 1.7 8 2.4 12 2.3 3.3 0 6.7-.6 9.9-1.4 5.8-1.6 9.3-6.2 11.5-11.6a90.2 90.2 0 0 0 2.2-28.8z" fill="url(#g)"/><path d="M74.2 10c1.9 10 9 48 10.1 69.6a3 3 0 0 0 2.7 2.8c11.6 1 18.5 3.4 19.3 12.9v.5c.4 3.8 1.1 11.7-1.6 13a108 108 0 0 1-26.5 8 3 3 0 0 0-1.3.6 10 10 0 0 1-4 2c-3.3.8-6.4 1.3-9 1.3h-.5c-3.7 0-7.3-.6-10.4-2l-2.2-1.3a3 3 0 0 0-1.3-.6 110 110 0 0 1-26.2-8c-2.7-1.3-2-9.2-1.7-13v-.5c.5-4.8 2.5-8 6.4-10 3.6-1.9 8.3-2.5 12.9-2.9a3 3 0 0 0 2.7-2.8c1-21.6 8.2-59.7 10.1-69.6h20.5m2.4-3H51.2s-9.4 47-10.6 72.4c-9.2.8-20.8 2.6-22 15.6-.4 5.2-1.4 14.1 3.3 16.5 7.8 3.9 19.1 6.8 27.1 8.3l2.8 1.7a29 29 0 0 0 11.6 2.2h.5c3.2 0 6.6-.6 9.7-1.4 2-.5 3.7-1.4 5.1-2.5 8-1.4 19.5-4.4 27.4-8.3 4.7-2.4 3.7-11.3 3.2-16.5-1.2-13-12.8-14.8-22-15.6A686.5 686.5 0 0 0 76.6 7z" fill="#4A2F27"/></svg>