<svg viewBox="0 0 128 128" xmlns="http://www.w3.org/2000/svg"><linearGradient id="a" x1="898.7" x2="1015.3" y1="-827.1" y2="-827.1" gradientTransform="scale(-1 1) rotate(89.9 0 -893.2)" gradientUnits="userSpaceOnUse"><stop stop-color="#E0BB95" offset=".4"/><stop stop-color="#CCA47A" offset=".9"/></linearGradient><path d="M54.5 122c-1.2 0-2.2-.8-2.4-2l-.3-1.2c-1.5-6.4-5.2-12-10.8-16.4a14 14 0 0 1-3-3.4c-4.5-6.8-7-12.8-9.3-18.7a83.8 83.8 0 0 0-8-16 9.8 9.8 0 0 1-.4-7.2 5 5 0 0 1 3.1-3.3 9 9 0 0 1 3.4-.7c3.8 0 7 2.8 10.7 9.1 4 6.8 4.2 8.5 4.2 8.6 0 .8.7 1.4 1.5 1.4s1.5-.7 1.5-1.5v-57c0-2.1 1.3-8 7-8 6.5 0 8.7 5.7 8.7 8.3v19.6c0 .5.2.9.6 1.2a1.5 1.5 0 0 0 1.3.2 14 14 0 0 1 4-.6c3.9 0 6.3 2 7.7 3.6a5.8 5.8 0 0 0 6.3 1.7c.7-.2 1.5-.3 2.3-.3a10.5 10.5 0 0 1 8.2 4.2c1 1.1 2.8 3 5 3l1-.1 1.6-.2a9 9 0 0 1 8.2 5.2c1.6 3.4 1.6 22.4 1.6 28.7 0 16.5-11.4 39.9-11.5 40.1l-.1.3c-.3 1-1.3 1.8-2.4 1.8l-39.7-.4z" fill="url(#a)"/><path d="M51.6 7.1c6 0 7.3 5.5 7.3 6.9v19.6a3 3 0 0 0 3 3c.3 0 .5 0 .8-.2 1.3-.4 2.5-.5 3.7-.5 2.5 0 4.7 1 6.5 3a7.3 7.3 0 0 0 7.8 2.2 6 6 0 0 1 1.9-.3 9 9 0 0 1 7 3.7c1.1 1.3 3.3 3.6 6.2 3.6l1.4-.2 1.3-.2c2.2 0 5.2 1.2 6.7 4.4.7 1.4 1.5 7.4 1.5 28 0 16.1-11.2 39.3-11.4 39.5l-.1.5a1 1 0 0 1-1 .7l-39.7-.3a1 1 0 0 1-1-.8l-.3-1.3A30.8 30.8 0 0 0 42 101.2c-1-.9-2-1.9-2.7-3-4.3-6.7-6.8-12.7-9.1-18.4a85.5 85.5 0 0 0-8-16.4 8.5 8.5 0 0 1-.4-5.8c.6-1.7 1.5-2.2 2.2-2.5 1-.3 2-.5 3-.5 2 0 5 1 9.3 8.4a38 38 0 0 1 4 8 3 3 0 0 0 2.8 2.7h.2a3 3 0 0 0 3-2.7V13.7c0-.1.3-6.6 5.4-6.6m0-3c-6.3 0-8.3 6.4-8.3 9.5l-.1 57.1c0-.2-.3-2-4.4-9.2-3.8-6.7-7.5-9.9-12-9.9-1.2 0-2.5.3-3.9.7-5.7 2-5 10.3-3.4 12.8C26.8 76 28 86.4 36.7 99.9c1 1.5 2.2 2.7 3.4 3.6 5 4 8.7 9.4 10.2 15.6l.3 1.3a4 4 0 0 0 3.8 3.1l39.7.3a4 4 0 0 0 4-2.9s11.5-23.8 11.6-40.7c0-11.6-.2-26-1.8-29.4A10.4 10.4 0 0 0 95.8 45c-1.5 0-3-1.3-3.8-2.5-1-1.3-2.7-2.8-4.8-3.7a12 12 0 0 0-4.6-1c-1.1 0-2 .1-2.8.4l-1.4.2c-1.2 0-2.4-.6-3.3-1.5-1.6-2-4.4-4.1-8.8-4.1-1.3 0-2.8.2-4.4.7V14c0-3.2-2.6-9.9-10.3-9.9z" fill="#BA8F63"/><path d="M59.4 53.7l-.5-21.2 2.5 1.7c.5 0 1 .8 1 1.7l-.8 17.8c-.2 1.8-2.2 1.8-2.2 0zm-16.2 25l-2.8-7-1-2.4 3.4.9 3.2.9v7.5c0 1.4-2.2 1.2-2.8.1zm33.3-24.6l-.8-13c0-.7 2.5-.3 2.5-.3.6 0 1 .5 1 1.1l-.8 12.3c-.1 1.2-1.8 1.1-2 0zm16.6-.2l-.8-7c0-.4 2.6-.2 2.6-.2.5 0 1 .3 1 .6L95 54c0 .7-1.8.6-1.9 0z" fill="#BA8F63"/></svg>