<svg viewBox="0 0 128 128" xmlns="http://www.w3.org/2000/svg" xmlns:xlink="http://www.w3.org/1999/xlink"><linearGradient id="a" x1="64" x2="64" y1="77.7" y2="115.4" gradientUnits="userSpaceOnUse"><stop stop-color="#F44336" offset=".3"/><stop stop-color="#D32F2F" offset=".8"/></linearGradient><path d="M123.8 121.3c0 1.6-1.2 3-2.7 3L8 124.4c-2.2 0-4-2-3.7-4.4v-6.3l.2-4.2c.4-6 1.9-34.2 7.2-31.3 6.5 3.4 13 5.5 18.1 4.6 6.6-1.1 9.4-6.5 12.7-10.3 2.7-3 5.7-3.5 7-2 21.6 25 54.4 14.1 68 25 6.6 5.4 6.2 19.6 6.3 25.7z" fill="url(#a)"/><defs><path id="b" d="M123.8 121.3c0 1.6-1.2 3-2.7 3L8 124.4c-2.2 0-4-2-3.7-4.4v-6.3l.2-4.2c.4-6 1.9-34.2 7.2-31.3 6.5 3.4 13 5.5 18.1 4.6 6.6-1.1 9.4-6.5 12.7-10.3 2.7-3 5.7-3.5 7-2 21.6 25 54.4 14.1 68 25 6.6 5.4 6.2 19.6 6.3 25.7z"/></defs><clipPath id="c"><use xlink:href="#b"/></clipPath><path d="M82.4 132c-10.4 11.1 45.6 0 45.6 0V77.8H86s18.3 31-3.6 54.4z" clip-path="url(#c)" fill="#E0E0E0"/><path d="M128 115.8c0-1.7-1-2.8-2.1-2.8H1.9c-1.2 0-1.9 1-1.9 2.8v6.8c0 1.7.7 3.4 1.9 3.4h124c1.2 0 2.1-1.7 2.1-3.4v-6.8z" clip-path="url(#c)" fill="#B0BEC5"/><g clip-path="url(#c)"><path d="M0 87c12.8 14.1 51.7 7 43-11.6-2.3-5.2-5.6 0-11.7 2.5C24.2 80.7 0 71.5 0 71.5V87z" fill="#E0E0E0"/></g><g clip-path="url(#c)"><path d="M67.9 72.6c-4.7 4-9.6 7.8-14.8 11.1-2 1.4-3.2 3.6-2.1 6 1 2 4 3.5 6 2.2C62.8 88 68.4 84 73.7 79.4c4.3-3.8-1.5-10.7-5.8-6.8z" fill="#fff"/><path d="M70.6 73.4c1 0 2 .9 2.5 2 .2.6.3 1.6-.7 2.5a140.5 140.5 0 0 1-17.2 12.5c-1 0-2-.7-2.4-1.5-.8-1.8.7-3 1.4-3.5 5-3.2 9.9-7 15-11.3.4-.4 1-.7 1.4-.7m0-2c-.9 0-1.8.4-2.7 1.1-4.7 4.1-9.6 7.9-14.8 11.2-2 1.3-3.2 3.6-2.1 6a5 5 0 0 0 4.2 2.7 4 4 0 0 0 1.8-.5C62.8 88 68.4 84 73.7 79.4c3.4-3 .5-8-3-8z" fill="#424242" opacity=".2"/></g><g clip-path="url(#c)"><path d="M81.2 74.6A128 128 0 0 1 70 89.3c-1.6 1.8-2.2 4.3-.5 6.3 1.5 1.7 4.8 2.3 6.4.5 4.6-5.2 8.9-10.7 12.7-16.5 3.2-4.8-4.3-9.9-7.4-5z" fill="#fff"/><path d="M84.6 74.6c1 0 2 .7 2.5 1.6.4.7.4 1.5-.2 2.3-3.6 5.5-7.7 10.8-12.5 16.3-.3.4-1 .4-1.2.4a3 3 0 0 1-2.1-.8c-1.3-1.5-.2-3.2.4-3.8 4-4.4 7.6-9.3 11.3-15 .5-.7 1-1 1.8-1m0-2a4 4 0 0 0-3.4 2A128 128 0 0 1 70 89.3c-1.6 1.8-2.2 4.3-.5 6.4a5 5 0 0 0 3.7 1.5c1 0 2-.3 2.7-1.1 4.6-5.2 8.9-10.6 12.7-16.5 2.3-3.4-.9-7-4-7z" fill="#424242" opacity=".2"/></g><path d="M47.5 72.7c13.8 15.8 32 17.9 46.6 19.5 9 1 16.8 2 21.5 5.7 5 4 5.2 16 5.2 21.8v1.6L8 121.4c-.2 0-.3 0-.5-.2 0-.1-.3-.4-.3-.9v-6.5l.3-4 .1-1.6c1.2-18.7 2.9-24.8 3.8-26.8 6 3 11.4 4.6 16 4.6 1 0 2 0 3-.2 6.3-1.1 9.7-5.5 12.5-9l1.8-2.3a5.9 5.9 0 0 1 2.7-1.8m.2-3c-1.5 0-3.4.9-5.1 2.8-3.3 3.8-6 9.2-12.7 10.3l-2.4.2a37 37 0 0 1-15.7-4.8c-.2-.2-.5-.2-.7-.2-4.8 0-6 25.8-6.5 31.5l-.2 4.3v6.2c-.3 2.4 1.5 4.4 3.6 4.4H121c1.6 0 2.9-1.4 2.8-3.1 0-6.2.3-20.4-6.4-25.7-13.5-11-46.4-.2-67.9-25.1-.4-.5-1.1-.8-2-.8z" fill="#424242" opacity=".2"/></svg>