<svg viewBox="0 0 128 128" xmlns="http://www.w3.org/2000/svg" xmlns:xlink="http://www.w3.org/1999/xlink"><linearGradient id="a" x1="64" x2="64" y1="124" y2="4" gradientUnits="userSpaceOnUse"><stop stop-color="#558B2F" offset=".2"/><stop stop-color="#7CB342" offset=".9"/></linearGradient><path d="M124 67.5l-4.6-47.4a4 4 0 0 0-5.5-3.8l-8 3c-4.2 1.6-6.8 1.4-9.6-2.1l-5-5.4c-2-2.5-7.1-7.1-10.2-7.7H78.7c-6.9 0-14.7 12-14.7 12S55.7 4 49 4a6 6 0 0 0-2.1 0c-3.2.6-8.3 5.2-10.3 7.8l-5 5.3c-2.7 3.5-5.4 3.7-9.5 2.2l-8-3.1A4 4 0 0 0 8.5 20L4 67.5a8 8 0 0 0 6 8.2l19 9c3.7 1 7.5-.7 9.3-4 .9-1.7 1.5-3.5 1.7-5.4l.3-1.5c1.5 20.6 3.7 42.1 3.7 42.1a8 8 0 0 0 8 8h24.1a8 8 0 0 0 8.1-8S86 95.4 88 75.3c0 1.9.8 3.7 1.7 5.4a8 8 0 0 0 9.2 4l19.1-9a8 8 0 0 0 6-8.2z" fill="url(#a)"/><radialGradient id="b" cx="7" cy="19.5" r="45.8" gradientTransform="matrix(.7192 .6948 -.752 .7783 16.7 -.5)" gradientUnits="userSpaceOnUse"><stop stop-color="#FAFAFA" stop-opacity="0" offset=".4"/><stop stop-color="#212121" stop-opacity=".5" offset=".9"/></radialGradient><path d="M10 75.6l19.1 9c3.6 1 7.5-.6 9.2-4 1-1.6 1.5-3.4 1.8-5.3l-.9-38.4C39.2 9.3 50 3.6 47 4c-3.1.6-8.2 5.2-10.2 7.7l-5 5.4c-2.8 3.4-5.4 3.7-9.6 2.1l-8-3A4 4 0 0 0 8.6 20L4 67.5a8 8 0 0 0 6 8.1z" fill="url(#b)" opacity=".4"/><radialGradient id="c" cx="91.5" cy="19.5" r="45.8" gradientTransform="matrix(-.7192 .6948 .752 .7783 172.2 -59.3)" gradientUnits="userSpaceOnUse"><stop stop-color="#FAFAFA" stop-opacity="0" offset=".4"/><stop stop-color="#212121" stop-opacity=".5" offset=".9"/></radialGradient><path d="M118 75.6l-19 9a8 8 0 0 1-9.3-4c-.9-1.6-1.5-3.4-1.8-5.3l.9-38.4C88.8 9.3 78 3.6 81 4c3.1.6 8.2 5.2 10.2 7.7l5 5.4c2.8 3.4 5.5 3.7 9.6 2.1l8-3a4 4 0 0 1 5.5 3.7l4.6 47.5a8 8 0 0 1-6 8.1z" fill="url(#c)" opacity=".4"/><path d="M64 35.5c11.5 0 19.8.2 23.3.3l.3 8.2-.3 10.8a323 323 0 0 1-46.3 0 603.3 603.3 0 0 1-.2-13c0-2 0-4 .2-6 3.5 0 11.7-.3 23-.3m0-2c-12.2 0-21.4.2-24.9.4a197.8 197.8 0 0 0 0 22.8 312.7 312.7 0 0 0 50.1 0l.4-12.7c0-.8-.2-7.6-.4-10.1-3.3-.1-12.6-.4-25.2-.4z" fill="#424242" opacity=".2"/><defs><path id="d" d="M76.2 123.9h-24a8 8 0 0 1-8.2-8s-5.2-52-5.2-71.8c0-15.1 1.5-29.9 6.6-36.4C46.6 6 46.6 4 49.2 4 55.7 4.1 64 16 64 16S72 4.1 78.8 4.1c2 0 2.8 1.8 3.8 3.6 4 7 7 25.7 7 36.4 0 20-5.4 71.8-5.4 71.8a8 8 0 0 1-8 8z"/></defs><clipPath id="e"><use xlink:href="#d"/></clipPath><path d="M82.2 3.4s-8.6 4.1-16.3 15.1a171 171 0 0 0-12.5 21.8m-9-38.9a48.2 48.2 0 0 0 18.9 19" clip-path="url(#e)" fill="none" stroke="#FFCA28" stroke-linecap="round" stroke-linejoin="round" stroke-miterlimit="10" stroke-width="6"/><linearGradient id="f" x1="38.1" x2="90" y1="45.5" y2="45.5" gradientUnits="userSpaceOnUse"><stop stop-color="#E65100" offset="0"/><stop stop-color="#E75300" offset="0"/><stop stop-color="#EF6A00" offset=".2"/><stop stop-color="#F37700" offset=".4"/><stop stop-color="#F57C00" offset=".5"/><stop stop-color="#F37600" offset=".6"/><stop stop-color="#ED6600" offset=".8"/><stop stop-color="#E65100" offset="1"/></linearGradient><path d="M90 56.5s-8.5 1-25.8 1-26-1-26-1V33.9s9.1-.4 25.8-.4 26 .4 26 .4v22.6z" clip-path="url(#e)" fill="url(#f)"/><path d="M90 47.8s-11 .7-26 .7-25.8-.7-25.8-.7V43s11.5-.5 25.9-.5S90 43 90 43v4.8z" clip-path="url(#e)" fill="#FFCA28"/><g clip-path="url(#e)" opacity=".2"><path d="M64 35.5c12.2 0 19.9.2 23.1.4l.8 9.6-.8 9.2c-3 .3-10.3.9-22.9.9-12.6 0-20.2-.6-23.2-1-.5-6.2-.5-12.5 0-18.7 3.2-.2 10.9-.4 23-.4m0-2c-16.7 0-24.9.5-24.9.5v.9c-.6 7-.6 14.2 0 21.3v.3s7.9 1 25.1 1 24.7-1 24.7-1l1-11L89 34s-8.1-.4-24.9-.4z" fill="#424242"/></g><path d="M80 7h.4l.4.2c.3 0 .7.2 1.4.6a29.1 29.1 0 0 1 7 6.1l4.9 5.3a13.5 13.5 0 0 0 3.4 3 8.7 8.7 0 0 0 4.3 1c1.5 0 3.1-.3 5.1-1l8-3.1a1 1 0 0 1 1.4.5v.4l.1.3 4.6 47.4v.1a5 5 0 0 1-3.8 5l-.5.1L98 82h-1.1a5 5 0 0 1-4.5-2.6l-.6-1.4v-.1a7.8 7.8 0 0 1-.7-2v-.6a3 3 0 0 0-3-2.5H88a3 3 0 0 0-3 2.7 6553.8 6553.8 0 0 0-3.3 36l-.3 4.3v.2a5 5 0 0 1-5.2 5h-24a5 5 0 0 1-5.1-5v-.3c0-.1-1.5-14.7-2.8-31.2V84l-.1-.3V83l-.2-1v-1l-.1-1.3V79l-.2-1.3v-.4l-.2-1.8-.1-2a3 3 0 0 0-2.9-2.7h-.1a3 3 0 0 0-3 2.5l-.2 1.5a12 12 0 0 1-1.5 4.5 5 5 0 0 1-5.5 2.6l-18.9-9-.5-.1a5 5 0 0 1-3.7-5l4.5-47.4V20c0-.3.1-.5.3-.7A1 1 0 0 1 13 19l8 3c2 .8 3.6 1.2 5.2 1.2 3 0 5.4-1.3 7.7-4.1l5-5.3v-.2A25 25 0 0 1 47.3 7 70 70 0 0 0 49 7h.2c3.4.1 9.3 6.3 12.3 10.7A3 3 0 0 0 64 19c1 0 2-.5 2.5-1.3C69.4 13.3 75 7.2 78.6 7H80m0-3h-1.2c-6.9 0-14.7 12-14.7 12S55.7 4 49 4h-2.1c-3.2.6-8.3 5.2-10.3 7.8l-5 5.3c-1.7 2.2-3.4 3-5.4 3a11 11 0 0 1-4.1-.8l-8-3.1-1.5-.3a4 4 0 0 0-4 4L4 67.6a8 8 0 0 0 6 8.2l19 9 2.1.3a8 8 0 0 0 7.2-4.3c.9-1.7 1.5-3.5 1.8-5.4l.2-1.5.1 2 .2 1.7v.4l.1 1.4v.5l.2 1.3v1a458.5 458.5 0 0 0 .2 2v.5A2018 2018 0 0 0 44 116a8 8 0 0 0 8 8h24a8 8 0 0 0 8.2-8l.4-4.1c.6-6 1.7-17.6 2.7-30l.6-6.1.2.6c.1 1 .6 1.8 1 2.7.2.6-.1 1.1.9 1.7 1 2.7 3.8 4.3 6.8 4.3.7 0 1.4-.1 2-.3l19.2-9a8 8 0 0 0 6-8v-.2L119.4 20a4 4 0 0 0-5.5-3.8l-8 3.1c-1.6.6-3 1-4.2 1a5.6 5.6 0 0 1-2.8-.8l-1-.7c-.6-.4-1-1-1.6-1.6l-5-5.4c-1.5-1.9-4.8-5-7.6-6.6-.8-.5-1.5-.8-2.2-1l-.6-.1h-1z" fill="#424242" opacity=".2"/></svg>