<svg viewBox="0 0 128 128" xmlns="http://www.w3.org/2000/svg" xmlns:xlink="http://www.w3.org/1999/xlink"><path d="M123.4 91.4c-.9-8.6-7.4-40.8-55.9-40.8s-55 32.3-55.8 41a29 29 0 0 0 1 8.6l12.5 15.3c.9 2 2.9 3.3 5 3.3L60 118a432 432 0 0 1 16.1 0l28.8.8c2.3 0 4.3-1.3 5.2-3.3l12.5-15.4c.7-1.1 1-7.4 1-8.7z" fill="#FFF59D"/><path d="M13.4 102.5a2 2 0 0 1 2.1 1.9 2 2 0 0 1-1.8 2.3h-.3c-1 0-2-.8-2-1.9a2 2 0 0 1 1.8-2.3h.2m0-3a5 5 0 0 0-5 5.7 5 5 0 1 0 5-5.7z" fill="#00ACC1"/><radialGradient id="a" cx="67.7" cy="86.9" r="54.1" gradientUnits="userSpaceOnUse"><stop stop-color="#FFD54F" offset=".2"/><stop stop-color="#FFC107" offset=".7"/></radialGradient><path d="M118.4 96.6c-.9-8.7-2.4-38.8-50.9-38.8s-50 30.3-50.8 39c-.1 1.2-4.8 2.5-4 3.6l12.5 20.3c.9 2 2.9 3.3 5 3.3l29.7-.8a432 432 0 0 1 16.1 0l28.8.8c2.3 0 4.3-1.3 5.2-3.3l12.5-20.5c.7-1-4-2.3-4-3.6z" fill="url(#a)"/><path d="M-92 54.8c-9.6-1.2-22.8 0-30.6 6.9-4.5 4-6.1 11.6-2.1 16.5 3 3.8 7.5 4.1 12.2 2.6 8.3-2.7 17.3-11 19.9-16.2a3 3 0 0 0-.6-3.5 21 21 0 0 0-3.7-.5 3 3 0 0 0-.9 1c-2 4-3.9 5.5-7.6 8-2.6 1.6-9 5.1-11.3 1.5a4 4 0 0 1-.7-3.2C-116.3 63-105 60-97 60.6c1.2-.9 2.7-.5 3.7.5l1 .2c3.7 1.3.3-6.5.3-6.5z" fill="#BA68C8"/><path d="M-97.8 61.6c-2 4-3.9 5.5-7.6 8-2.5 1.6-9 5.1-11.3 1.6a4 4 0 0 1-.7-3.3c-2.7 4.8 0 11 5 12.9 8.2-2.7 17.2-11 19.8-16.2a3 3 0 0 0-.6-3.5 21 21 0 0 0-3.7-.5 3 3 0 0 0-.9 1z" fill="#AB47BC"/><path d="M-96.9 60.6c1.4 0 2.6.2 3.7.5-1-1-2.5-1.4-3.7-.5z" fill="#BA68C8"/><radialGradient id="b" cx="-61.4" cy="59.3" r="54.6" gradientUnits="userSpaceOnUse"><stop stop-color="#DCE775" offset=".3"/><stop stop-color="#CDDC39" offset="1"/></radialGradient><path d="M-7 112.3l-1.9-17C-11.7 68.4-26 48.1-52.3 48H-72c-26.4 0-38.4 20.4-41.1 47.3l-1.7 17a10.5 10.5 0 0 0 10.2 11.6h87.2c6.1 0 10.9-5.4 10.2-11.7z" fill="url(#b)"/><defs><path id="c" d="M-17.3 124h-87.2c-6 0-10.9-5.4-10.2-11.7l1.7-16.9c2.7-27 14.7-47.4 41.1-47.3h19.6c26.2 0 40.6 20.4 43.4 47.1l1.8 17.1c.7 6.2-4 11.7-10.2 11.7z"/></defs><clipPath id="d"><use xlink:href="#c"/></clipPath><linearGradient id="e" x1="-60.9" x2="-60.9" y1="65.9" y2="87.9" gradientUnits="userSpaceOnUse"><stop stop-color="#C0CA33" stop-opacity="0" offset=".3"/><stop stop-color="#AFB42B" offset="1"/></linearGradient><path d="M-116 67v17.2H-6V67h-110z" clip-path="url(#d)" fill="url(#e)"/><path clip-path="url(#d)" fill="#DCE775" d="M-115.9 83.5h110v3.1h-110z"/><path d="M-72 51.1h19.7c11.6 0 21.1 4.3 28.2 12.5a58 58 0 0 1 12.3 32l1.8 17c.2 2.2-.5 4.4-2 6a7 7 0 0 1-5.3 2.4h-87.2a7 7 0 0 1-5.3-2.4 7.7 7.7 0 0 1-2-6l1.8-16.9c2-20.3 10.3-44.6 38-44.6m0-3c-26.3 0-38.3 20.4-41 47.3l-1.7 17a10.5 10.5 0 0 0 10.2 11.6h87.2c6.1 0 10.9-5.4 10.2-11.7l-1.8-17C-11.7 68.4-26 48.1-52.3 48h-19.8z" fill="#424242" opacity=".2"/><path d="M10.2 123.7l-2-.3c-1.8-.4-3-2.3-2.4-4l3.3-11.6c.5-1.6 2-2.6 3.7-2.3 1.6.3 2.8 1.9 2.6 3.5L14 121c-.2 1.8-2 3.1-3.8 2.7z" fill="#81D4FA"/><path d="M12.2 107.4h.2c.6.2 1 .8 1 1.4l-1.4 12c0 .5-.6 1-1.2 1h-.2l-2-.4c-.4 0-.6-.4-.7-.6s-.3-.5-.2-1l3.3-11.5c.2-.5.6-.9 1.2-.9m0-2c-1.4 0-2.7 1-3.1 2.4l-3.3 11.5c-.5 1.8.6 3.7 2.5 4l1.9.4.6.1c1.6 0 3-1.2 3.2-2.8l1.4-12a3.2 3.2 0 0 0-3.2-3.6zm55.3-51.8c45.5 0 52 29.2 53 38 0 1-.3 6-.7 7.2l-12.4 20.3-.2.4c-.4.9-1.3 1.5-2.3 1.5l-28.8-.8a321 321 0 0 0-16.3 0l-29.6.8c-1 0-1.9-.6-2.3-1.5l-.2-.4L15.3 99a43 43 0 0 1-.6-7.2c.9-9 7.4-38.2 52.8-38.2m0-3c-48.5 0-55 32.3-55.8 41 0 .8.2 7.7 1 8.8L25 120.7c1 2 3 3.3 5.2 3.3l29.6-.8a301.2 301.2 0 0 1 16.1 0l28.8.8c2.2 0 4.3-1.3 5.2-3.3l12.5-20.5c.7-1 1-8 .9-8.8-.9-8.6-7.4-40.8-55.9-40.8z" fill="#424242" opacity=".2"/><defs><path id="f" d="M118.4 96.6c-.9-8.7-2.4-38.8-50.9-38.8s-50 30.3-50.8 39c-.1 1.2-4.8 2.5-4 3.6l12.5 20.3c.9 2 2.9 3.3 5 3.3l29.7-.8a432 432 0 0 1 16.1 0l28.8.8c2.3 0 4.3-1.3 5.2-3.3l12.5-20.5c.7-1-4-2.3-4-3.6z"/></defs><clipPath id="g"><use xlink:href="#f"/></clipPath><linearGradient id="h" x1="20.6" x2="20.6" y1="70.3" y2="123.9" gradientUnits="userSpaceOnUse"><stop stop-color="#F57C00" stop-opacity="0" offset="0"/><stop stop-color="#FF6F00" stop-opacity=".4" offset="1"/></linearGradient><path d="M28 125S9 112.9 9 98s13-27.2 13-27.2l1.4 2.4A57.5 57.5 0 0 1 28 125z" clip-path="url(#g)" fill="url(#h)"/><linearGradient id="i" x1="40.3" x2="40.3" y1="70.3" y2="123.9" gradientTransform="matrix(-1 0 0 1 154.4 0)" gradientUnits="userSpaceOnUse"><stop stop-color="#F57C00" stop-opacity="0" offset="0"/><stop stop-color="#FF6F00" stop-opacity=".4" offset="1"/></linearGradient><path d="M106.7 125s19-12.1 19-27-13-27.2-13-27.2l-1.4 2.4a57.5 57.5 0 0 0-4.6 51.8z" clip-path="url(#g)" fill="url(#i)"/></svg>