<svg viewBox="0 0 128 128" xmlns="http://www.w3.org/2000/svg" xmlns:xlink="http://www.w3.org/1999/xlink"><linearGradient id="a" x1="63.966" x2="63.966" y1="124" y2="4.038" gradientUnits="userSpaceOnUse"><stop stop-color="#558B2F" offset=".187"/><stop stop-color="#7CB342" offset=".926"/></linearGradient><path d="M123.97 67.54l-4.58-47.48c.02-2.82-2.83-4.77-5.49-3.76l-8.03 3.06c-4.14 1.58-6.8 1.3-9.54-2.16l-5.04-5.36c-2.01-2.53-7.11-7.17-10.22-7.71-.82-.14-1.53-.12-2.15-.01-.06 0-.12-.02-.18-.02C71.83 4.11 64 16.02 64 16.02s-8.33-11.9-14.91-11.9c-.04 0-.08.01-.12.01-.61-.1-1.31-.13-2.11.02-3.12.55-8.22 5.18-10.22 7.71L31.6 17.2c-2.74 3.45-5.4 3.73-9.54 2.16l-8.03-3.06c-2.66-1.01-5.51.94-5.49 3.76L3.96 67.54c-.19 3.77 2.31 7.15 5.99 8.12l19.11 9.03c3.63.96 7.45-.69 9.21-3.98.9-1.69 1.5-3.52 1.78-5.41l.25-1.51c1.54 20.61 3.69 42.15 3.69 42.15 0 4.42 3.61 8.05 8.07 8.05h24.05c4.46 0 8.13-3.64 8.13-8.05 0 0 1.76-20.49 3.76-40.64 0 1.89.81 3.72 1.72 5.41a8.058 8.058 0 0 0 9.18 3.98l19.1-9.03a8.005 8.005 0 0 0 5.97-8.12z" fill="url(#a)"/><radialGradient id="b" cx="7.003" cy="19.548" r="45.821" gradientTransform="matrix(.7192 .6948 -.752 .7783 16.666 -.533)" gradientUnits="userSpaceOnUse"><stop stop-color="#FAFAFA" stop-opacity="0" offset=".407"/><stop stop-color="#212121" stop-opacity=".5" offset=".946"/></radialGradient><path d="M10 75.64l19.11 9.03c3.63.96 7.45-.69 9.21-3.98.9-1.69 1.5-3.52 1.78-5.41l-.86-38.42C39.24 9.3 49.9 3.6 46.91 4.12c-3.11.55-8.21 5.18-10.22 7.71l-5.04 5.36c-2.74 3.45-5.4 3.73-9.54 2.16l-8.03-3.06c-2.66-1.01-5.51.94-5.49 3.76L4.01 67.52c-.18 3.77 2.31 7.15 5.99 8.12z" fill="url(#b)" opacity=".4"/><radialGradient id="c" cx="91.516" cy="19.548" r="45.821" gradientTransform="matrix(-.7192 .6948 .752 .7783 172.15 -59.254)" gradientUnits="userSpaceOnUse"><stop stop-color="#FAFAFA" stop-opacity="0" offset=".407"/><stop stop-color="#212121" stop-opacity=".5" offset=".946"/></radialGradient><path d="M118.03 75.64l-19.11 9.03c-3.63.96-7.45-.69-9.21-3.98-.9-1.69-1.5-3.52-1.78-5.41l.86-38.42c0-27.56-10.66-33.27-7.67-32.74 3.12.55 8.22 5.18 10.22 7.71l5.04 5.36c2.74 3.45 5.4 3.73 9.54 2.16l8.03-3.06c2.66-1.01 5.51.94 5.49 3.76l4.58 47.48c.19 3.76-2.31 7.14-5.99 8.11z" fill="url(#c)" opacity=".4"/><path d="M64 35.51c11.48 0 19.76.21 23.31.32.13 3.02.24 7.55.24 8.18 0 1.2-.15 7.26-.27 10.84-3.4.25-11.41.73-23.1.73-9.89 0-18.24-.36-23.15-.71-.08-2.1-.14-4.04-.19-5.79-.04-1.84-.07-3.49-.07-4.9 0-.82.01-1.65.02-2.47.03-1.89.1-3.86.2-5.89 3.54-.11 11.75-.31 23.01-.31m0-2c-12.2 0-21.36.24-24.89.37-.15 2.56-.26 5.17-.31 7.8-.01.83-.02 1.67-.02 2.5 0 1.48.02 3.15.07 4.95.06 2.32.14 4.87.26 7.59 3.49.31 12.54.86 25.08.86 12.84 0 21.79-.58 25.04-.88.12-2.72.34-11.16.34-12.69 0-.77-.18-7.56-.34-10.12-3.37-.13-12.67-.38-25.23-.38z" fill="#424242" opacity=".2"/><defs><path id="d" d="M76.16 123.87H52.11c-4.46 0-8.07-3.58-8.07-8 0 0-5.2-51.97-5.2-71.8 0-15.08 1.48-29.86 6.57-36.4 1.21-1.56 1.16-3.57 3.75-3.57C55.72 4.1 64.05 16 64.05 16S71.88 4.1 78.79 4.1c2.04 0 2.86 1.79 3.85 3.58 3.9 7.03 6.97 25.68 6.97 36.4 0 19.99-5.37 71.8-5.37 71.8 0 4.41-3.62 7.99-8.08 7.99z"/></defs><clipPath id="e"><use xlink:href="#d"/></clipPath><path d="M82.16 3.39S73.65 7.5 65.89 18.51c-6.7 9.5-12.5 21.79-12.5 21.79M44.39 1.39S52.9 5.5 60.66 16.51c.89 1.27 1.77 2.58 2.62 3.91" clip-path="url(#e)" fill="none" stroke="#FFCA28" stroke-linecap="round" stroke-linejoin="round" stroke-miterlimit="10" stroke-width="6"/><linearGradient id="f" x1="38.149" x2="89.956" y1="45.528" y2="45.528" gradientUnits="userSpaceOnUse"><stop stop-color="#E65100" offset="0"/><stop stop-color="#E75300" offset=".012"/><stop stop-color="#EF6A00" offset=".188"/><stop stop-color="#F37700" offset=".354"/><stop stop-color="#F57C00" offset=".5"/><stop stop-color="#F37600" offset=".644"/><stop stop-color="#ED6600" offset=".833"/><stop stop-color="#E65100" offset="1"/></linearGradient><path d="M89.96 56.5s-8.45 1.06-25.72 1.06-26.09-1.06-26.09-1.06V33.94s9.17-.45 25.9-.45 25.9.45 25.9.45V56.5z" clip-path="url(#e)" fill="url(#f)"/><path d="M89.96 47.79s-10.97.73-25.9.73-25.9-.73-25.9-.73v-4.76s11.51-.51 25.9-.51 25.9.51 25.9.51v4.76z" clip-path="url(#e)" fill="#FFCA28"/><g clip-path="url(#e)" opacity=".2"><path d="M64.05 35.5c12.17 0 19.85.24 23.06.37l.83 9.66-.84 9.17c-2.99.3-10.35.86-22.88.86-12.6 0-20.17-.57-23.23-.87-.5-6.25-.5-12.58-.01-18.83 3.23-.12 10.91-.36 23.07-.36m0-2c-16.73 0-24.9.45-24.9.45l-.08.93c-.61 7.09-.59 14.22.05 21.3l.03.32s7.81 1.06 25.08 1.06 24.72-1.06 24.72-1.06l1-10.97-1-11.59c.01 0-8.17-.44-24.9-.44z" fill="#424242"/></g><path d="M79.93 7.04c.14 0 .28.01.43.03l.42.09c.29.09.75.27 1.41.65 2.37 1.38 5.35 4.14 6.75 5.9.05.07.11.13.17.19l4.95 5.27c.62.77 1.24 1.41 1.89 1.95.48.4.99.76 1.5 1.04.53.3 1.09.54 1.66.72.84.26 1.72.39 2.64.39 1.53 0 3.18-.36 5.18-1.12l8.03-3.06c.13-.05.26-.07.39-.07.37 0 .74.22.92.54.08.14.11.29.11.47 0 .1.02.21.03.31L121 67.69v.14c0 2.31-1.51 4.33-3.76 4.92-.18.05-.36.11-.53.19l-18.82 8.9c-.35.07-.71.11-1.1.11-1.89 0-3.61-1.02-4.49-2.67-.21-.39-.41-.83-.63-1.39-.01-.03-.02-.06-.04-.09-.31-.71-.5-1.33-.59-1.9-.01-.06-.02-.12-.03-.17-.04-.18-.07-.37-.1-.56-.24-1.45-1.5-2.5-2.96-2.5h-.1c-1.5.05-2.74 1.21-2.88 2.7l-.6 6.15c-1.03 12.4-2.17 24.07-2.75 29.96-.23 2.64-.36 4.18-.36 4.18-.01.08-.01.18-.01.27 0 2.78-2.3 5.05-5.13 5.05H52.06c-2.8 0-5.07-2.27-5.07-5.05 0-.1 0-.2-.01-.3-.01-.15-1.47-14.77-2.83-31.23l-.02-.25-.02-.22-.03-.32-.06-.71-.09-1.07-.08-1-.1-1.27-.04-.53-.11-1.38-.03-.4-.14-1.76-.14-1.92a2.984 2.984 0 0 0-2.86-2.77h-.13c-1.46 0-2.72 1.06-2.96 2.52l-.25 1.51c0 .02-.01.04-.01.06-.22 1.55-.71 3.04-1.45 4.42a5.084 5.084 0 0 1-4.49 2.67c-.36 0-.72-.04-1.07-.11l-18.84-8.9c-.17-.08-.34-.14-.52-.19-2.27-.6-3.84-2.7-3.76-5.01l4.58-47.4c.01-.1.01-.21.01-.31 0-.27.09-.5.28-.69.2-.2.48-.32.75-.32.13 0 .26.02.39.07l8.03 3.06c2 .76 3.65 1.12 5.18 1.12 2.95 0 5.47-1.34 7.69-4.11l4.95-5.27c.06-.06.11-.13.17-.19 2.04-2.58 6.4-6.2 8.32-6.61.26 0 .73-.01 1.19-.02.15.02.31.04.47.04h.2c3.45.07 9.31 6.23 12.38 10.62A3.05 3.05 0 0 0 64 19h.04c.99 0 1.92-.51 2.46-1.34 2.86-4.34 8.49-10.43 12.13-10.55.06 0 .11.01.17.01h.12c.17 0 .34-.01.51-.04.16-.02.33-.04.5-.04m0-3c-.36 0-.7.03-1.01.09-.06 0-.12-.02-.18-.02C71.83 4.11 64 16.02 64 16.02s-8.33-11.9-14.91-11.9c-.05 0-.09.01-.13.01a3.52 3.52 0 0 0-.34-.04c-.71.03-1.54.03-1.54.03l-.23.03c-3.12.55-8.22 5.18-10.22 7.71L31.6 17.2c-1.71 2.16-3.39 3.08-5.43 3.08-1.22 0-2.56-.33-4.11-.92l-8.03-3.06c-.48-.18-.98-.27-1.46-.27-2.15 0-4.05 1.73-4.03 4.03L3.96 67.54c-.19 3.77 2.31 7.15 5.99 8.12l19.11 9.03c.69.18 1.39.27 2.08.27 2.93 0 5.71-1.59 7.13-4.25.9-1.69 1.5-3.52 1.78-5.41l.25-1.51v.02c.05.63.1 1.27.14 1.91v.05c.04.57.09 1.15.13 1.72l.03.41c.04.46.07.92.11 1.38.01.18.03.35.04.53.03.43.07.85.1 1.27.03.33.05.67.08 1l.09 1.07c.03.34.06.69.08 1.03.01.16.03.32.04.47 1.37 16.67 2.83 31.29 2.83 31.29 0 4.42 3.61 8.05 8.07 8.05h24.05c4.46 0 8.13-3.64 8.13-8.05 0 0 .13-1.54.36-4.18.59-5.95 1.72-17.59 2.75-29.98.2-2.02.39-4.07.6-6.11.04.23.08.46.13.68.14.9.6 1.79.97 2.64.23.58-.05 1.15.95 1.7v.02c1 2.66 3.86 4.27 6.79 4.27h.04c.68 0 1.37-.11 2.06-.29l19.1-9.04c3.6-.95 6.05-4.22 5.98-7.89v-.24l-4.58-47.48c.01-.7-.17-1.36-.48-1.92a4.066 4.066 0 0 0-3.56-2.11c-.48 0-.97.09-1.46.27l-8.03 3.06c-1.55.59-2.89.92-4.11.92-.61 0-1.19-.08-1.74-.26-.37-.12-.73-.27-1.09-.47s-.7-.44-1.05-.73c-.52-.43-1.03-.97-1.54-1.62l-5.04-5.36c-1.5-1.9-4.75-4.98-7.59-6.63-.78-.45-1.53-.79-2.2-.97l-.63-.13c-.31-.03-.62-.05-.92-.05z" fill="#424242" opacity=".2"/></svg>