<svg viewBox="0 0 128 128" xmlns="http://www.w3.org/2000/svg" xmlns:xlink="http://www.w3.org/1999/xlink"><g opacity=".2"><linearGradient id="a" x1="64" x2="64" y1="30.1" y2="123.2" gradientUnits="userSpaceOnUse"><stop stop-color="#eee" offset=".4"/><stop stop-color="#595959" offset="1"/></linearGradient><path d="M28.2 122.5c-8.4 0-15.2-6.8-15.2-15.2l-2-63c0-8.3 6.8-15.1 15.2-15.1h75.6c8.4 0 15.2 6.8 15.2 15.1l-2 63c0 8.4-6.8 15.2-15.2 15.2H28.2z" fill="url(#a)"/><path d="M101.8 30.7c7.6 0 13.7 6 13.7 13.6l-2 63c0 7.6-6.1 13.7-13.7 13.7H28.2c-7.6 0-13.7-6.1-13.7-13.7l-2-63c0-7.5 6.2-13.6 13.7-13.6h75.6m0-3H26.2C17 27.7 9.5 35 9.5 44.3l2 63c0 9.2 7.5 16.7 16.7 16.7h71.6c9.2 0 16.7-7.4 16.7-16.7l2-63c0-9.2-7.5-16.6-16.7-16.6z" fill="#424242"/></g><linearGradient id="b" x1="64" x2="64" y1="-3" y2="36.6" gradientUnits="userSpaceOnUse"><stop stop-color="#eee" offset=".4"/><stop stop-color="#BDBDBD" offset="1"/></linearGradient><path d="M95.2 18.8L64.2 52 32.7 18.7l7-11.7s4.6-3 24-3 24.6 3 24.6 3l7 11.8z" fill="url(#b)"/><g opacity=".2"><linearGradient id="c" x1="64" x2="64" y1="-1" y2="35.6" gradientUnits="userSpaceOnUse"><stop stop-color="#eee" offset=".4"/><stop stop-color="#BDBDBD" offset="1"/></linearGradient><path d="M34.6 18.5l6.1-10.4c1.2-.5 7-2.5 23-2.5s22.1 2 23.6 2.5l6 10.4-29.1 31.3-29.6-31.3z" fill="url(#c)"/><path d="M63.7 7a77 77 0 0 1 22.5 2.3l5.3 9-27.3 29.3-27.8-29.3 5.3-9c1.8-.6 7.7-2.2 22-2.2m0-3C44.3 4 39.7 7 39.7 7l-7 11.7L64.2 52l31-33.3L88.3 7s-5.2-2.8-24.6-2.8z" fill="#424242"/></g><path d="M85 103.6C82.8 92 72.2 61.5 72.2 61.5S84.7 52.3 84.7 40 64 40 64 40s-21.7-12.7-21.7 0 13.5 21.5 13.5 21.5S45.2 92 43 103.5c-1.3 6.5 16.4 22.9 21 22.9s22.3-16.4 21-22.8z" fill="#ED6C30"/><defs><path id="d" d="M85 103.6C82.8 92 72.2 61.5 72.2 61.5S84.7 52.3 84.7 40 64 40 64 40s-21.7-12.7-21.7 0 13.5 21.5 13.5 21.5S45.2 92 43 103.5c-1.3 6.5 16.4 22.9 21 22.9s22.3-16.4 21-22.8z"/></defs><clipPath id="e"><use xlink:href="#d"/></clipPath><path d="M33.4 94.7s6-10.5 19-19.8 24.8-11 24.8-11" clip-path="url(#e)" fill="none" stroke="#FFA726" stroke-linecap="round" stroke-linejoin="round" stroke-miterlimit="10" stroke-width="9"/><path d="M45.4 47s10.4 0 20.9 5.1 14 12.6 14 12.6" clip-path="url(#e)" fill="none" stroke="#FFA726" stroke-linecap="round" stroke-linejoin="round" stroke-miterlimit="10" stroke-width="10"/><path d="M40 113.7s6-10.5 19-19.8 24.8-11.1 24.8-11.1M49.6 132s6-10.5 19-19.8S93.3 101 93.3 101" clip-path="url(#e)" fill="none" stroke="#FFA726" stroke-linecap="round" stroke-linejoin="round" stroke-miterlimit="10" stroke-width="9"/><path d="M47.9 37.3c4.6 0 12 3.8 14.6 5.3a3 3 0 0 0 3 0c2.4-1.4 9.5-5 13.8-5 2 0 2.4.4 2.4 2.4 0 10.6-11.2 19-11.3 19a3 3 0 0 0-1 3.4c0 .3 10.5 30.6 12.7 41.7 0 0 .2 1.5-2.5 5.3-5 7-13.4 13.5-15.6 14-2.3-.5-10.7-7-15.6-14-2.7-3.8-2.5-5.3-2.5-5.3a515.7 515.7 0 0 1 12.7-41.7 3 3 0 0 0-1.2-3.5c-.1 0-12.1-8-12.1-18.9 0-.6 0-1.7.6-2.2.3-.3 1-.5 2-.5m0-3c-3.2 0-5.6 1.5-5.6 5.7 0 12.7 13.5 21.5 13.5 21.5S45.1 92 43 103.5c-1.3 6.5 16.4 22.9 21 22.9s22.3-16.4 21-22.8C82.8 92 72.2 61.5 72.2 61.5S84.7 52.3 84.7 40c0-4-2.3-5.4-5.4-5.4C73.2 34.6 64 40 64 40s-9.7-5.7-16.1-5.7z" fill="#424242" opacity=".2"/><linearGradient id="f" x1="64" x2="64" y1="71.6" y2="49.4" gradientTransform="matrix(1 0 0 .996 0 .2)" gradientUnits="userSpaceOnUse"><stop stop-color="#757575" stop-opacity="0" offset=".4"/><stop stop-color="#424242" offset=".8"/></linearGradient><path d="M89.2 62S77 55.9 63.8 55.9s-25 6-25 6V40h50.4v22z" fill="url(#f)" opacity=".2"/><path d="M36 25.5s11.6-3.3 27.7-3.3S92 25.5 92 25.5" fill="none" opacity=".2" stroke="#424242" stroke-linecap="round" stroke-linejoin="round" stroke-miterlimit="10"/><path d="M28 19.6a12.7 12.7 0 0 0-2 12.3l9 29.9c.8 2.6 4.5 3.4 6.4 1.3l22.4-23S48.4 28.8 43.9 21.5 39.7 6.9 39.7 6.9L27.9 19.6z" fill="#F5F5F5"/><path d="M37.5 13.6a33 33 0 0 0 3.9 9.5 87.8 87.8 0 0 0 17.9 17.3L39.3 61c-.3.3-.5.3-.7.3-.3 0-.7-.1-.8-.4l-9-30a10 10 0 0 1 1.4-9.3l7.3-8m2.2-6.8zm0 0L27.9 19.6a13.3 13.3 0 0 0-2 12.3l9 29.9a4 4 0 0 0 6.5 1.3l22.4-23S48.4 28.8 43.9 21.5 39.7 6.9 39.7 6.9z" fill="#424242" opacity=".2"/><path d="M100 19.6c2.8 3.6 3.5 8.1 2 12.3l-9 29.9c-.8 2.6-4.5 3.4-6.5 1.3L64.3 40s15.4-11.3 19.9-18.6 4.2-14.6 4.2-14.6l11.8 12.7z" fill="#F5F5F5"/><path d="M90.5 13.6l7.3 8c2 2.7 2.5 6.1 1.4 9.2v.2l-9 29.9c-.2.3-.6.4-.8.4a.8.8 0 0 1-.7-.3l-20-20.6a88 88 0 0 0 18-17.3c2-3.4 3.1-6.7 3.8-9.5m-2.2-6.8s.2 7.4-4.2 14.7-19.9 18.6-19.9 18.6l22.3 23c.8.8 1.9 1.2 2.9 1.2 1.6 0 3.1-1 3.6-2.5l9-30c1.5-4 .8-8.6-2-12.2L88.4 6.8z" fill="#424242" opacity=".2"/></svg>