<svg viewBox="0 0 128 128" xmlns="http://www.w3.org/2000/svg" xmlns:xlink="http://www.w3.org/1999/xlink"><path d="M-101.27 25.65l2.81-19.34c.22-1.53 1.81-2.56 3.46-2.25 1.49.28 2.49 1.57 2.29 2.95l-2.81 19.34c-.22 1.53-1.81 2.56-3.46 2.25-1.49-.28-2.5-1.57-2.29-2.95zM-52.18 25.65l-2.81-19.34c-.22-1.53-1.81-2.56-3.46-2.25-1.49.28-2.49 1.57-2.29 2.95l2.81 19.34c.22 1.53 1.81 2.56 3.46 2.25 1.49-.28 2.5-1.57 2.29-2.95z" fill="#EC407A"/><radialGradient id="a" cx="-75.953" cy="53.924" r="74.444" gradientTransform="matrix(1 0 0 .9072 0 5.007)" gradientUnits="userSpaceOnUse"><stop stop-color="#EC407A" offset=".208"/><stop stop-color="#F48FB1" offset=".768"/></radialGradient><path d="M-21.05 96.32l-36.5-50.58 8.82-27.59s-4.57-4.99-14.93-1.44c-6.93 2.37-13.18 12.84-13.18 12.84s-4.69-9.54-13.18-12.84c-10.21-3.97-15.23 1.44-15.23 1.44l9.11 27.59-36.81 50.58S-111.09 124-76.89 124s55.84-27.68 55.84-27.68z" fill="url(#a)"/><defs><path id="b" d="M-21.05 96.32l-36.5-50.58 8.82-27.59s-4.57-4.99-14.93-1.44c-6.93 2.37-13.18 12.84-13.18 12.84s-4.69-9.54-13.18-12.84c-10.21-3.97-15.23 1.44-15.23 1.44l9.11 27.59-36.81 50.58S-111.09 124-76.89 124s55.84-27.68 55.84-27.68z"/></defs><clipPath id="c"><use xlink:href="#b"/></clipPath><g clip-path="url(#c)"><path d="M-132.31 83.65c22.33 41.15 88.53 41.15 110.86 0 1.29-2.37-2.33-4.49-3.62-2.11-20.86 38.43-82.77 38.43-103.63 0-1.28-2.38-4.9-.26-3.61 2.11z" fill="#FFFDE7"/></g><path d="M-97.12 18.25c1.86 0 3.88.42 6.02 1.25 7.26 2.82 11.53 11.29 11.57 11.37.49.99 1.47 1.63 2.57 1.67h.12c1.05 0 2.03-.55 2.57-1.46 1.59-2.65 6.76-9.89 11.57-11.54 2.16-.74 4.18-1.11 6.01-1.11 2.02 0 3.48.45 4.42.91l-8.14 25.48c-.29.91-.13 1.9.42 2.67l35.12 48.66C-30.15 102-49.44 121-76.89 121s-46.89-18.99-52.23-24.85l35.41-48.65c.57-.78.73-1.79.42-2.71l-8.43-25.5c.99-.51 2.51-1.04 4.6-1.04m0-3c-5.44 0-8.13 2.9-8.13 2.9l9.11 27.59-36.81 50.58S-111.09 124-76.89 124s55.84-27.68 55.84-27.68l-36.5-50.58 8.82-27.59s-2.49-2.71-7.95-2.71c-1.94 0-4.26.34-6.98 1.27-6.93 2.37-13.18 12.84-13.18 12.84s-4.69-9.54-13.18-12.84c-2.74-1.07-5.11-1.46-7.1-1.46z" fill="#424242" opacity=".2"/><g opacity=".2"><linearGradient id="d" x1="-97.709" x2="-97.709" y1="62.933" y2="108.3" gradientTransform="rotate(5.19 -97.692 67.96)" gradientUnits="userSpaceOnUse"><stop stop-color="#EC407A" offset="0"/><stop stop-color="#F48FB1" offset=".583"/></linearGradient><path d="M-107.85 86.37a4.273 4.273 0 0 1-1.38-6.15l21.65-31 2.41 1.42-16.73 33.92c-1.08 2.2-3.81 3.03-5.95 1.81z" fill="url(#d)"/></g><path d="M-78.41 92.32l1.61-37.31 2.79.1 5.11 36.76c.39 2.81-1.74 5.34-4.58 5.44-2.77.09-5.05-2.21-4.93-4.99z" fill="#EC407A" opacity=".2"/><g opacity=".2"><linearGradient id="e" x1="-55.598" x2="-55.598" y1="62.933" y2="108.3" gradientTransform="rotate(-2.688 -55.631 67.407)" gradientUnits="userSpaceOnUse"><stop stop-color="#EC407A" offset="0"/><stop stop-color="#F48FB1" offset=".583"/></linearGradient><path d="M-50.36 84.21l-17.38-34 2.36-1.49 21.23 31.85c1.2 1.8.56 4.24-1.37 5.21-1.78.9-3.94.2-4.84-1.57z" fill="url(#e)"/></g><path d="M-54.9 44.06c-.08-2.15-.96-3.35-.96-3.35l-8.14 1.2a101.31 101.31 0 0 1-25.98-.1l-7.96-1.2s-.37 1.35-.5 3.7c-.12 2.25.4 4.12.4 4.12l8.06 1.16c2.81.38 5.64.62 8.47.76-1.45 4.33-6.53 7.36-10.48 10.17-4.58 3.26 4.85 10.53 8.37 8.02 5.14-3.66 7.36-11.08 7.06-18.06h.12c-.31 6.98 1.92 14.4 7.06 18.06 3.52 2.51 12.95-4.76 8.37-8.02-3.95-2.81-9.03-5.84-10.48-10.18 2.5-.13 5-.34 7.49-.65l8.61-1.1c.2.64.64-.66.49-4.53z" fill="#FFFDE7"/><path d="M-97.16 41.73l7.04 1.06a102 102 0 0 0 26.26.1l7.45-1.1c.21.47.47 1.25.51 2.3.07 1.82 0 2.94-.07 3.55l-8.16 1.05c-2.35.3-4.85.51-7.41.64-.31.02-.6.18-.78.43-.18.26-.22.58-.12.88 1.36 4.08 5.56 7 9.27 9.57.54.37 1.07.74 1.58 1.1.76.54.97 1.17.7 2.04-.7 2.19-4.26 4.69-6.68 4.69-.51 0-.92-.11-1.23-.33-4.14-2.95-6.66-8.75-6.74-15.49 0-.27.01-.54 0-.79 0-.25.01-.49.02-.74 0-.11-.01-.22-.04-.32-.1-.66-.64-.91-1.01-.91a1.01 1.01 0 0 0-1 1.05l.03.89c0 .27-.01.54 0 .79-.11 6.83-2.6 12.63-6.66 15.53-.31.22-.72.33-1.23.33-2.42 0-5.98-2.5-6.68-4.69-.28-.87-.06-1.5.7-2.04.51-.36 1.04-.73 1.58-1.1 3.7-2.57 7.9-5.48 9.27-9.56.1-.3.05-.62-.12-.88a.977.977 0 0 0-.78-.43c-2.89-.14-5.71-.39-8.37-.75l-7.37-1.06c-.13-.68-.29-1.86-.23-3.17.05-1.15.17-2.04.27-2.64m-.78-1.13s-.37 1.35-.5 3.7c-.12 2.25.4 4.12.4 4.12l8.06 1.16c2.81.38 5.64.62 8.47.76-1.45 4.33-6.53 7.36-10.48 10.17-3.93 2.8 2.44 8.54 6.56 8.54.69 0 1.31-.16 1.81-.52 4.71-3.36 6.98-9.88 7.08-16.33v-.79c0-.32-.01-.63-.03-.95.04 0 .01.18.05.18-.01.26-.02.51-.02.77v.79c.07 6.48 2.4 12.93 7.15 16.33.5.36 1.13.52 1.81.52 4.12 0 10.49-5.74 6.56-8.54-3.95-2.81-9.03-5.84-10.48-10.18 2.5-.13 5-.34 7.49-.65l8.61-1.1c.03.1.07.16.11.16.22 0 .5-1.44.38-4.68-.08-2.15-.96-3.35-.96-3.35l-8.14 1.2c-4.18.53-8.39.79-12.59.79-4.47 0-8.94-.3-13.39-.89l-7.95-1.21z" fill="#424242" opacity=".2"/><linearGradient id="f" x1="46.034" x2="46.034" y1="3.118" y2="23.033" gradientUnits="userSpaceOnUse"><stop stop-color="#3949AB" offset=".561"/><stop stop-color="#2D3B9B" offset=".802"/><stop stop-color="#283593" offset="1"/></linearGradient><path d="M41.41 19.62L45.78 4h4.95l-4.4 16.46c-.33 1.6-1.81 2.66-3.21 2.31-1.27-.32-2.02-1.7-1.71-3.15z" fill="url(#f)"/><linearGradient id="g" x1="81.825" x2="81.825" y1="4" y2="22.342" gradientUnits="userSpaceOnUse"><stop stop-color="#3949AB" offset=".561"/><stop stop-color="#2D3B9B" offset=".802"/><stop stop-color="#283593" offset="1"/></linearGradient><path d="M86.31 19.62L82.22 4h-4.95l4.12 16.46c.33 1.6 1.81 2.66 3.21 2.31 1.27-.32 2.02-1.7 1.71-3.15z" fill="url(#g)"/><path d="M49.43 5l-4.06 15.2c0 .02-.01.04-.01.05-.19.9-.91 1.58-1.68 1.58-.1 0-.21-.01-.31-.04-.73-.19-1.16-1.04-.99-1.94L46.54 5h2.89m1.3-1h-4.95l-4.37 15.62c-.3 1.45.45 2.82 1.71 3.15.18.05.37.07.55.07 1.22 0 2.37-.98 2.66-2.37L50.73 4zM81.45 5l3.89 14.85c.18.91-.25 1.76-.99 1.95-.1.03-.2.04-.31.04-.77 0-1.49-.68-1.69-1.62L78.55 5h2.9m.77-1h-4.95l4.12 16.46c.29 1.39 1.44 2.37 2.66 2.37.18 0 .37-.02.55-.07 1.27-.32 2.02-1.7 1.71-3.15L82.22 4z" fill="#eee" opacity=".2"/><linearGradient id="h" x1="64" x2="64" y1="26.82" y2="123.24" gradientUnits="userSpaceOnUse"><stop stop-color="#3949AB" offset="0"/><stop stop-color="#283593" offset="1"/></linearGradient><path d="M113.85 107.43L78.78 48.16l7.38-25.88c.96-2.79-1.14-5.86-4.09-5.82-2.26.03-18.15 11.41-18.15 11.41S47.99 16.4 45.62 16.46c-2.84.07-4.78 3.13-3.88 5.82l7.35 25.91-34.94 59.23c-.68.87-.55 2.12.3 2.83C20.62 115.39 41.71 124 64.12 124c22.4 0 43.31-8.6 49.44-13.74.85-.72.97-1.96.29-2.83z" fill="url(#h)"/><path d="M58.87 114.79l5.07-68.9v.18l5.02 68.73c.41 5.19-1.85 9.03-4.85 9.21-2.96.16-5.37-4.08-5.24-9.22zM27.9 107.62l29.92-60.29-.06.16-20.51 63.92c-1.52 4.84-5.02 7.46-7.87 6.49-2.8-.96-3.48-5.69-1.48-10.28zM100.77 107.62L70.85 47.33l.06.16 20.51 63.92c1.52 4.84 5.02 7.46 7.87 6.49 2.8-.96 3.48-5.69 1.48-10.28z" fill="#283593" opacity=".2"/><path fill="#1A237E" d="M78.78 48.16H49.09l-2.38-8.46H81.2z"/><path d="M82.34 19.48c.39.08.65.35.77.53.28.39.36.88.22 1.3-.02.05-.03.1-.05.15L75.9 47.33c-.23.79-.12 1.64.3 2.35l34.78 58.78C104.89 112.99 85.6 121 64.12 121c-21.56 0-40.96-8.01-47.1-12.54l34.65-58.74c.42-.71.53-1.55.3-2.34l-7.35-25.91c-.01-.05-.03-.09-.04-.14-.14-.43-.06-.92.22-1.33.11-.16.33-.41.66-.5 2.17.81 10.2 6.13 16.71 10.81.52.38 1.14.56 1.75.56s1.22-.19 1.75-.56c6.55-4.68 14.58-10.01 16.67-10.83m-.2-3.02h-.05c-2.26.03-18.15 11.41-18.15 11.41s-15.86-11.41-18.3-11.41h-.02c-2.84.07-4.78 3.13-3.88 5.82l7.35 25.91-34.94 59.23c-.68.87-.55 2.12.3 2.83C20.62 115.39 41.71 124 64.12 124c22.4 0 43.31-8.6 49.44-13.74.85-.71.97-1.95.29-2.82L78.78 48.16l7.38-25.88c.96-2.77-1.11-5.82-4.02-5.82z" fill="#eee" opacity=".2"/></svg>