<svg viewBox="0 0 128 128" xmlns="http://www.w3.org/2000/svg" xmlns:xlink="http://www.w3.org/1999/xlink"><path d="M99.1 110.2s-5.3-37.8 25-42.2c0 0-6.3 8.2-14.8 18.4A37.5 37.5 0 0 0 99 110.2z" fill="#7CB342"/><path d="M97 117c-.3 0-.5-.2-.7.1l1.1-20.4c.3-1.2 1.2-1 1.2-1 .3 0 1.1.2 1 2.2l-2.2 20c0-1-.2-.8-.5-.9z" fill="#388E3C"/><path d="M100.8 94.7h-1c.1-1 .4-2.5.7-3 .8-1.6 2.2-3.5 4.1-4.2.9-.3 1.8-.5 2.7-.5.6 0 1.2.1 1.7.3a9.3 9.3 0 0 1-2.5 5c-1 1-2.4 2-3.6 2.3l-2.1.1z" fill="#FFCA28"/><path d="M107.3 87.8h.9c-.3 1.5-1.3 3-2.3 4-.8 1-2.2 1.8-3.2 2-.2 0-.7.2-2 .2.1-.8.3-1.7.5-2 .7-1.4 2-3.2 3.7-3.8.7-.3 1.6-.4 2.3-.4m0-1.5c-1 0-2 .2-2.8.5-2 .7-3.5 2.6-4.5 4.5-.6 1-1 4.1-1 4.1h1.9l2.2-.1c1.4-.4 3-1.4 4-2.4a9.4 9.4 0 0 0 2.8-6c-.8-.4-1.7-.6-2.5-.6z" fill="#F49019"/><path d="M97.6 94.6c-1.4-.4-2.4-.9-3-1.2-1-.7-2.1-2-2.7-3.4-.8-1.6-1.2-4-.8-5.8h.1a7 7 0 0 1 4.2 1.7c1.7 1.3 2.3 3.7 2.6 5.4l-.4 3.3z" fill="#FFCA28"/><path d="M91.7 85c1 .2 2.2.7 3.2 1.5 1.5 1.2 2 3.3 2.3 5a9 9 0 0 1-.2 2.1l-2-.8a8 8 0 0 1-2.4-3c-.6-1.4-1-3.3-.9-4.8m-.5-1.5h-.6c-.8 2.2-.2 5 .6 6.8a9.5 9.5 0 0 0 3 3.7c1.2.8 4 1.6 4 1.6s.7-3.1.5-4.4a9.1 9.1 0 0 0-2.8-5.9 8 8 0 0 0-4.7-1.8z" fill="#F49019"/><path d="M102 75l-2.8-1.6a9.2 9.2 0 0 1-2.3-9.2c1.5.2 3 1.2 3.9 2.1 1.4 1.5 1.8 3.9 1.8 5.6 0 .7-.4 2.1-.7 3z" fill="#FFCA28"/><path d="M97.4 65c1.1.4 2.2 1.1 2.9 1.9 1.2 1.3 1.5 3.4 1.6 5l-.5 2-1.7-1c-.8-.7-1.7-2-2-3.3a9.2 9.2 0 0 1-.3-4.5m-1-1.7c-1 2-.7 4.8-.2 6.7.5 1.4 1.4 3 2.5 4 1 .8 3.6 1.9 3.6 1.9s1-3 1-4.1c0-2.2-.5-4.5-2-6a7.1 7.1 0 0 0-4.8-2.5z" fill="#F49019"/><path d="M104.9 66a10 10 0 0 1-2.5-1.8 8.5 8.5 0 0 1-2-3.7c-.2-1.7-.2-4 .7-5.7a7 7 0 0 1 3.6 2.6c1.3 1.6 1.4 4 1.2 5.6 0 .7-.6 2.2-1 3z" fill="#FFCA28"/><path d="M101.5 55.8c1 .4 2 1.2 2.6 2 1.1 1.5 1.2 3.6 1 5.2a8 8 0 0 1-.5 2c-1-.6-1.4-1-1.7-1.3a7.7 7.7 0 0 1-1.7-3.4 9 9 0 0 1 .3-4.5m-.8-1.8c-1.3 1.9-1.3 4.7-1 6.6a9.8 9.8 0 0 0 2.1 4.2c1 1 3.4 2.3 3.4 2.3s1.4-2.8 1.4-4c.2-2.2 0-4.5-1.3-6.2a7.2 7.2 0 0 0-4.6-2.9z" fill="#F49019"/><path d="M108.4 57.2l-2.2-2.1c-.7-1-1.2-2.7-1.2-4 0-1.8.4-4.1 1.4-5.5a7 7 0 0 1 3.2 3c1 1.8.7 4.2.3 5.8-.1.7-1 2-1.5 2.8z" fill="#FFCA28"/><path d="M106.7 46.5c1 .6 1.8 1.6 2.2 2.5 1 1.6.7 3.7.3 5.3-.1.4-.5 1.1-1 1.8l-1.4-1.5c-.6-.8-1-2.3-1-3.6-.1-1.4.2-3.2.9-4.5m-.5-1.8c-1.5 1.6-2 4.4-2 6.4 0 1.4.6 3.2 1.4 4.4.8 1 3 2.8 3 2.8s1.8-2.5 2-3.7c.6-2.1.7-4.5-.3-6.3a7.3 7.3 0 0 0-4.1-3.6z" fill="#F49019"/><path d="M99.2 84.8l-2.8-1.3c-1-.7-2-2-2.6-3.4-.6-1.6-1-3.9-.5-5.6 1.3 0 2.8.7 4 1.8 1.6 1.4 2.2 3.7 2.4 5.4 0 .7-.3 2.2-.5 3.1z" fill="#FFCA28"/><path d="M94 75.3c1 .2 2.1 1 2.9 1.6 1.4 1.2 1.8 3.3 2 4.9 0 .4 0 1.2-.2 2l-1.9-.9a7.7 7.7 0 0 1-2.3-3 9 9 0 0 1-.6-4.6m-.7-1.6h-.4c-.9 2.1-.4 5 .3 6.7a9.3 9.3 0 0 0 2.9 3.7c1 .8 3.7 1.7 3.7 1.7s.8-3 .7-4.2c-.2-2.2-1-4.4-2.5-5.9a8 8 0 0 0-4.7-2z" fill="#F49019"/><path d="M103.9 85.7l-2.8-.4c.3-.9.8-2.3 1.2-2.9a9 9 0 0 1 4.7-3.5l1.6-.1a6 6 0 0 1 2.8.6A9.3 9.3 0 0 1 108 84a8.5 8.5 0 0 1-3.9 1.6h-.3z" fill="#FFCA28"/><path d="M108.6 79.5c.7 0 1.3.1 1.9.3a9 9 0 0 1-2.8 3.6c-1 .8-2.5 1.4-3.6 1.5h-.2c-.4 0-1 0-1.8-.2l.8-1.9c1-1.2 2.4-2.8 4.2-3.1l1.5-.2m0-1.5c-.6 0-1.2 0-1.7.2a9 9 0 0 0-5.2 3.8c-.7 1-1.5 3.9-1.5 3.9s2.3.5 3.7.5h.4c1.4-.2 3.1-.9 4.3-1.8 1.5-1.2 3.3-3.3 3.6-5.6-1-.7-2.4-1-3.6-1z" fill="#F49019"/><path d="M107.4 76.6h-.4c-.6 0-1.6-.4-3-.9.5-.8 1.2-2.2 1.7-2.6 1.3-1.2 3.2-2.6 5.2-2.6h.1c1.7 0 3.2.4 4.2 1.2a9.3 9.3 0 0 1-4.1 4c-1 .6-2.5 1-3.7 1z" fill="#FFCA28"/><path d="M111 71.3c1 0 2.2.2 3.2.7a9.1 9.1 0 0 1-3.4 3 8 8 0 0 1-3.4.9h-.3c-.4 0-1-.2-2-.6l1.2-1.7c1-1 2.8-2.3 4.7-2.4m0-1.5c-2.2 0-4.2 1.3-5.8 2.8-.9.9-2.2 3.6-2.2 3.6s2.6 1.1 4 1.2h.4c1.4 0 3-.3 4-1 1.8-.8 4-2.6 4.7-4.8a7.2 7.2 0 0 0-5-1.8z" fill="#F49019"/><path d="M111.1 68.2h-.7l-3-1a8 8 0 0 1 1.9-2.6c1.2-1.1 3.1-2.4 5.1-2.4h.2a7 7 0 0 1 4.2 1.5c-.8 1.6-2.7 3-4.3 3.7a8 8 0 0 1-3.4.8z" fill="#FFCA28"/><path d="M114.4 63h.2c1 0 2.2.3 3.2.9a9.1 9.1 0 0 1-3.6 2.8 8 8 0 0 1-3.7.7l-2-.7 1.3-1.6c1.1-1 2.8-2.1 4.6-2.1m0-1.5a9 9 0 0 0-5.6 2.5c-1 .8-2.4 3.5-2.4 3.5s2.6 1.2 3.9 1.4h.8c1.3 0 2.7-.3 3.7-.8 1.8-.8 4-2.5 4.8-4.6a7.2 7.2 0 0 0-5-2h-.2z" fill="#F49019"/><path d="M114.3 59.4l-1.1-.1a11 11 0 0 1-2.9-1.2 8.8 8.8 0 0 1 7-4.5h.4a7 7 0 0 1 4 1.7 9.3 9.3 0 0 1-7.4 4.1z" fill="#FFCA28"/><path d="M117.3 54.4h.3c1 0 2.3.4 3.2 1a8.3 8.3 0 0 1-7.5 3.1c-.3 0-1-.2-1.9-.6.5-.7 1-1.4 1.3-1.6a8 8 0 0 1 4.6-2m0-1.4c-2 0-3.9 1-5.5 2.2a12 12 0 0 0-2.5 3.3s2.4 1.4 3.7 1.6l1.3.1a9.8 9.8 0 0 0 8.4-4.9 7.2 7.2 0 0 0-5-2.3h-.4z" fill="#F49019"/><path d="M114.3 51.2H113c.2-1 .5-2.8.9-3.5.9-1.6 2.4-3.8 4.6-4.5 1-.3 2-.5 2.8-.5.8 0 1.5.1 2.1.4-.1 2-1.6 4.3-2.9 5.6a9.4 9.4 0 0 1-4 2.4l-2 .1z" fill="#FFCA28"/><path d="M121.2 43.5h1.3c-.4 1.7-1.5 3.5-2.6 4.7-1 1-2.5 1.8-3.7 2.1-.2 0-.7.2-1.9.2h-.5c.2-1 .4-2 .7-2.4.8-1.6 2.2-3.5 4.2-4.2.8-.3 1.7-.4 2.5-.4m0-1.5c-1 0-2.1.2-3 .5-2.2.7-4 2.7-5 4.9-.7 1.1-1.2 4.5-1.2 4.5h2.4l2.1-.1a9.4 9.4 0 0 0 4.4-2.6c1.5-1.5 3.2-4.2 3.2-6.6-.9-.5-1.9-.6-2.9-.6z" fill="#F49019"/><defs><path id="a" d="M4 4h120v120H4z"/></defs><clipPath id="b"><use xlink:href="#a"/></clipPath><g clip-path="url(#b)"><linearGradient id="c" x1="56.2" x2="56.2" y1="97.2" y2="136" gradientUnits="userSpaceOnUse"><stop stop-color="#9CCC65" offset=".1"/><stop stop-color="#99C962" offset=".4"/><stop stop-color="#8FC059" offset=".6"/><stop stop-color="#7EB24B" offset=".8"/><stop stop-color="#689F38" offset="1"/></linearGradient><path d="M5.7 136v-15.3c0-16.2 25.4-23.5 50.5-23.5h.1c25 0 50.4 8 50.4 23.5V136H5.7z" fill="url(#c)"/><path d="M56.4 98.7c12.9 0 25.4 2.2 34.3 6 6.6 2.8 14.5 8 14.5 16v13.8h-98v-13.8c0-15.2 24.6-22 49-22h.2m0-3h-.2c-25.5 0-52 7.3-52 25v16.8h104v-16.7c0-16.8-26.2-25.1-51.8-25.1z" fill="#74B534"/></g><g clip-path="url(#b)"><path d="M100.8 129.8l-8-.3c-7-.7-11.7-4.7-10.8-13 2-18.2 21.9-12.3 23.7-6.4 2.7 8.8-1.8 20-4.9 19.7z" fill="#70534A"/><path d="M101 130.8h-.3l-8-.3c-4-.4-7.3-2-9.3-4.4-2-2.5-2.8-5.8-2.3-9.8.8-7.6 5-12.3 11.5-13 5.9-.5 12.8 2.7 14 6.5 2.3 7.4-.3 16.1-3 19.3-1 1.4-2 1.7-2.7 1.7zm-7-25.6l-1.2.1c-3.3.3-8.8 2.2-9.8 11.2-.4 3.5.2 6.3 1.9 8.4 1.7 2 4.4 3.3 8 3.7l8 .2c.2 0 .7-.2 1.3-.9a22 22 0 0 0 2.5-17.5c-.7-2.5-5.7-5.2-10.7-5.2z" fill="#4A2F27"/><path d="M93.5 126c-.3 1.7.9 3.3 2.6 3.6l4.3.7a3.1 3.1 0 0 0 1-6.2l-4.3-.7c-1.7-.3-3.3.9-3.6 2.6z" fill="#70534A"/><path d="M94.7 121.5c-.3 1.8 1 3.4 2.6 3.6l5.7.9c1.7.3 3.3-1 3.6-2.6.2-1.7-1-3.3-2.6-3.6l-5.7-.9c-1.7-.2-3.3 1-3.6 2.6z" fill="#70534A"/><path d="M103.5 127h-.6l-5.7-1a4.1 4.1 0 1 1 1.2-8l5.7.8a4.1 4.1 0 0 1-.6 8.2zm-7.8-5.3c-.2 1.2.6 2.3 1.8 2.5l5.7.8a2.2 2.2 0 0 0 .6-4.3l-5.7-.8c-1.1-.2-2.2.6-2.4 1.8z" fill="#4A2F27"/><path d="M95 117.3a3 3 0 0 0 2.7 3.3l7 .7a3 3 0 1 0 .6-6l-7-.8a3 3 0 0 0-3.3 2.8z" fill="#70534A"/><path d="M105 122.3h-.5l-6.9-.7a4 4 0 1 1 .8-8l7 .7a4 4 0 0 1-.4 8zm-9-5a2.1 2.1 0 0 0 1.8 2.4l7 .7a2.1 2.1 0 0 0 2.3-1.9c0-1.1-.8-2.2-2-2.3l-6.9-.7a2 2 0 0 0-2.3 1.9z" fill="#4A2F27"/><path d="M94.9 111.8a3 3 0 0 0 3 3.2l6.9.3a3 3 0 0 0 .3-6.1l-7-.3a3 3 0 0 0-3.2 2.9z" fill="#70534A"/><path d="M105 116.3h-.3l-7-.3a4 4 0 0 1-3.8-4.3 4 4 0 0 1 4.2-3.8l7 .3c2.3.1 4 2 3.9 4.2a4 4 0 0 1-4 3.9zm-7-6.5a2 2 0 0 0-1.5.6 2 2 0 0 0 1.3 3.6l7 .3c.6 0 1.1-.1 1.5-.5.5-.4.7-.9.7-1.4 0-1.2-.8-2.2-2-2.2l-7-.4zm-3.1 2z" fill="#4A2F27"/><path d="M105.6 105c-.8-.3-3.5-1.1-5.3-1.5a24 24 0 0 0-3-.5c-2.3 0-9.2 2.5-10.8 4-.8.9-5.8 12.2 4 10.4 4.1-.5 3-5.4 4.4-6.8 1-1 2.7-2.6 7.6-.9 1.4.5 3.8.5 4.6-.6 1.6-1.8.7-3.6-1.5-4.2z" fill="#70534A"/><path d="M109 106.3c-.3-1.1-1.4-2-2.9-2.3l-1.3-.4a71 71 0 0 0-7.4-1.6c-6.6-.1-9.7 2-11.6 4.3-1.3 1.5-1 4-.7 3.6a19 19 0 0 1 6.6-4.8 13 13 0 0 1 5.7-1.2l3 .5 3.9 1 1.4.4c.8.2 1.4.6 1.5 1a2 2 0 0 1-.3 1.9c-.5.6-2.6.7-3.9.3-1.8-.6-3.7-1.4-5.6-1-1.5.4-3.2 1.3-3.7 2.6-.6 1.4-.1 4.8-2.2 6.8-1 .9-3.2 2-3.2 2s2.5.5 3.9-.3c2-1.1 2.9-3.6 3.3-5.7.2-.9.1-2.5.4-2.7.9-.9 1.9-2.1 6.4-.6 1.6.5 4.7 1 6-.5.9-1 1.2-2.2.8-3.3z" fill="#4A2F27"/></g><path d="M55.4 107.2c-4 0-7.3-3.2-7.3-7.1v-9h16.2v9c0 4-3.3 7.1-7.3 7.1h-1.6z" fill="#3C2B24"/><path d="M63.3 92v8c0 3.5-2.8 6.2-6.3 6.2h-1.6a6.2 6.2 0 0 1-6.3-6.1v-8h14.2m2-2H47.1v10c0 4.5 3.7 8.1 8.3 8.1H57c4.6 0 8.3-3.6 8.3-8.1V90z" fill="#291B16"/><path fill="#AED581" d="M40.4 97.5l6.3-.6 8.3 11.3-8 11.2z"/><path d="M46.2 98l7.5 10.2-6.3 9-5.7-18.8 4.5-.5m1-2l-8 .7 7.4 25 9.6-13.4-9-12.4z" fill="#85BD53"/><path fill="#AED581" d="M57.5 108.2L65.8 97l6.3.7-6.6 21.8z"/><path d="M66.3 98l4.5.4-5.7 18.8-6.4-9L66.3 98m-1-2l-9 12.3 9.6 13.4 7.5-24.9-8-.9z" fill="#85BD53"/><defs><path id="d" d="M107.9 66.7c0 30.9-23.3 58.3-52 58.3S4 97.6 4 66.7s23.7-53.4 52.4-53.4S108 35.8 108 66.7z"/></defs><clipPath id="e"><use xlink:href="#d"/></clipPath><g clip-path="url(#e)"><path d="M28.9 72.3c-5.4 0-9.7-4.7-9.7-10.4s4.3-10.5 9.7-10.5h54.6c5.4 0 9.7 4.7 9.7 10.5S89 72.3 83.5 72.3H29z" fill="#3C2B24"/><path d="M83.5 52.4c4.8 0 8.7 4.3 8.7 9.4s-3.9 9.5-8.7 9.5H29c-4.8 0-8.7-4.3-8.7-9.5s3.9-9.4 8.7-9.4h54.6m0-2H29c-6 0-10.7 5.2-10.7 11.4 0 6.3 4.8 11.5 10.7 11.5h54.6c6 0 10.7-5.2 10.7-11.5s-4.8-11.4-10.7-11.4z" fill="#291B16"/><linearGradient id="f" x1="56.2" x2="56.2" y1="94.6" y2="12.8" gradientUnits="userSpaceOnUse"><stop stop-color="#5C4037" offset="0"/><stop stop-color="#63463D" offset=".2"/><stop stop-color="#6D5047" offset=".5"/><stop stop-color="#70534A" offset="1"/></linearGradient><path d="M56.2 95.3c-15.7 0-32.5-12.2-32.5-38.8 0-12.4 3.5-23.8 10-32.2 6-7.8 14.2-12.2 22.5-12.2s16.4 4.4 22.5 12.2c6.4 8.4 10 19.8 10 32.2a42 42 0 0 1-10.1 29.2 30.5 30.5 0 0 1-22.4 9.6z" fill="url(#f)"/><path d="M56.2 13c8 0 15.8 4.4 21.7 12a51.5 51.5 0 0 1 9.8 31.5c0 11.8-3.4 21.7-9.9 28.5a29.6 29.6 0 0 1-43.3 0 40.5 40.5 0 0 1-9.8-28.5c0-12.2 3.5-23.4 9.8-31.5a28.1 28.1 0 0 1 21.7-12m0-2c-17.4 0-33.5 18.7-33.5 45.5 0 26.6 16.6 39.8 33.5 39.8S89.7 83 89.7 56.5C89.7 29.7 73.6 11 56.2 11z" fill="#4A2F27"/><g fill="#1A1717"><path d="M32.2 50.7l.4-.5.2-.2.4-.4.4-.4.5-.3.5-.4.6-.3.6-.3.8-.3 1.5-.3 1.6-.2a5 5 0 0 1 1.7.2l1.5.3a8.6 8.6 0 0 1 1.4.6l.6.3.5.4.5.3.4.4.3.3.3.3.4.5c.5.7.4 1.7-.3 2.2-.5.3-1 .4-1.5.2h-.3l-.4-.3h-.3l-.3-.2-.7-.2-.4-.2h-.4l-.2-.1h-.3l-.4-.2h-1l-1-.1h-1.1l-1 .1-.5.1H37l-.2.1-.4.1-.4.2h-.4l-.3.2H35l-.3.2-.5.3c-.9.3-1.8 0-2.1-.9-.3-.5-.2-1 0-1.5z"/><ellipse cx="39.8" cy="58.8" rx="4.9" ry="5.1"/><path d="M78.2 53.1l-.5-.2-.3-.2H77l-.3-.2h-.4l-.4-.2-.4-.1h-.2l-.2-.1-.5-.1-1-.1h-3l-.5.2h-.5l-.4.2-.4.1c-.3 0-.5.2-.7.3h-.3l-.3.2-.5.2c-.9.4-1.8 0-2-.9-.2-.5-.1-1 .2-1.4l.4-.6.3-.3.3-.3.4-.3.5-.4.5-.3.6-.4.7-.3.7-.2 1.5-.4 1.7-.1 1.6.1c.5 0 1 .2 1.5.4a8.6 8.6 0 0 1 1.4.5l.6.4c.2 0 .4.2.5.3l.5.4.5.3c.2.1.2.3.3.4l.2.3.4.5c.5.7.3 1.7-.4 2.2-.5.3-1 .3-1.6.1z"/><ellipse cx="72.6" cy="58.8" rx="4.9" ry="5.1"/></g><path d="M60 68h-7.7c-.6.3-1 1-.7 1.7s1.8 2.7 4.6 2.7 4.2-2 4.5-2.7c.3-.7 0-1.4-.7-1.6z" fill="#33251F"/><path d="M64.8 76.1a25.6 25.6 0 0 1-16.9 0c-1.8-1-3.7.6-2.9 2.3.8 1.6 6.5 5.4 11.4 5.4s10.5-3.8 11.3-5.4c.7-1.7-1.1-3.4-3-2.3z" fill="#1A1717"/><radialGradient id="g" cx="56.5" cy="4.3" r="48.9" gradientTransform="matrix(1 0 0 .9503 0 3.2)" gradientUnits="userSpaceOnUse"><stop stop-color="#444140" offset="0"/><stop stop-color="#232020" offset="1"/></radialGradient><path d="M56.2 7C10.7 7.4 20 56.7 20 56.7l5.1 8.4A85.2 85.2 0 0 1 30 40.7c1-2.6 4-4.1 6.8-3.6 4.5.7 11.6 1.7 19.4 1.7h.2c7.8 0 14.9-1 19.3-1.7a6 6 0 0 1 6.8 3.6c2 5.2 5 17.4 4.8 24.3 0 .2 5.1-8.4 5.1-8.4s9.4-49.3-36-49.5z" fill="url(#g)"/><path d="M56.2 7C10.7 7.4 20 56.7 20 56.7l5.1 8.4.3-4.8-2.5-4.5c-.2-1.6-.9-6.7-.5-13 .4-6.6 2.2-16 8.2-23 5.7-6.4 14.3-9.7 25.6-9.8 11.3 0 20 3.4 25.6 9.8 10.8 12.4 8.2 32.7 7.7 36L87 60l.3 4.9 5-8.4s9.3-49.3-36-49.5z" fill="#1F1D1B"/></g><path d="M92.3 36.8s2.9 59.5-36 59.2c-38.7.3-36.5-59.3-36.5-59.3M56.4 97s-1.3 3.3-4.5 4.7c-3.3 1.5-6.5 1.7-7.2.5-.7-1.2 1.3-3.3 4.5-4.8 3.2-1.4 7.2-.4 7.2-.4zm0 0s1.6 3.4 4.8 4.8c3.2 1.5 6 1.5 6.8.4s-1.3-3.4-4.5-4.8-7.1-.5-7.1-.5z" fill="none" stroke="#8C6239" stroke-linecap="round" stroke-linejoin="round" stroke-miterlimit="10" stroke-width="2.5"/><linearGradient id="h" x1="56.5" x2="56.5" y1="12.4" y2="47.4" gradientUnits="userSpaceOnUse"><stop stop-color="#FFF59D" offset="0"/><stop stop-color="#FEE565" offset=".6"/><stop stop-color="#FDD835" offset="1"/></linearGradient><path d="M56.5 47.8C24.9 47.8 6 40.5 6 28.4c0-9 20.3-18.8 50.5-18.8s50.4 9.7 50.4 18.8c0 12-19.3 19.4-50.4 19.4z" fill="url(#h)"/><path d="M56.5 11c13.4 0 26 2.1 35.6 5.9 8.3 3.3 13.3 7.6 13.3 11.5 0 5.4-4.5 9.8-13.2 13-8.8 3.2-21.1 4.9-35.7 4.9-30.7 0-49-6.7-49-18 0-3.8 5-8.2 13.3-11.4A97.4 97.4 0 0 1 56.5 11m0-3c-28.7 0-52 9.2-52 20.3 0 14.8 23.3 20.8 52 20.8s51.9-6.5 51.9-20.8c0-11-23.3-20.3-52-20.3z" fill="#E6C22D"/><linearGradient id="i" x1="56.5" x2="56.5" y1="5.5" y2="32.1" gradientUnits="userSpaceOnUse"><stop stop-color="#FFF59D" offset="0"/><stop stop-color="#FFF394" offset=".2"/><stop stop-color="#FEEC7D" offset=".4"/><stop stop-color="#FEE156" offset=".8"/><stop stop-color="#FDD835" offset="1"/></linearGradient><path d="M56.5 32a48.3 48.3 0 0 1-19.6-2.8 7 7 0 0 1-3-2.3l6.4-18.6c.6-1.6 2.4-2.8 4.5-2.8H68c2 0 3.9 1.2 4.5 2.7L79 27c-.5.9-3.6 5-22.5 5z" fill="url(#i)"/><path d="M68 7c1.5 0 2.8.7 3.2 1.7l6.1 18a8 8 0 0 1-3 1.6c-2.7 1-8 2.2-17.8 2.2s-15.2-1.2-17.9-2.2a8 8 0 0 1-3-1.7l6-17.9c.4-1 1.7-1.7 3.2-1.7H68m0-3H44.8c-2.8 0-5.2 1.6-5.9 3.8l-6.5 19s0 6.6 24 6.6 24.1-6.6 24.1-6.6l-6.6-19C73.2 5.6 70.8 4 68.1 4z" fill="#E6C22D"/></svg>