<svg viewBox="0 0 128 128" xmlns="http://www.w3.org/2000/svg" xmlns:xlink="http://www.w3.org/1999/xlink"><defs><path id="a" d="M4 4h120v120H4z"/></defs><clipPath id="b"><use xlink:href="#a"/></clipPath><g clip-path="url(#b)"><radialGradient id="c" cx="160.7" cy="-132.1" r="57.9" gradientTransform="matrix(.826 0 0 .826 -68.5 101.3)" gradientUnits="userSpaceOnUse"><stop stop-color="#444140" offset="0"/><stop stop-color="#232020" offset="1"/></radialGradient><path d="M47 119.7s-6.8-.4-10.2-5.1c-7.4-10.3-11.4-35.8-11.4-72 0-1.7.3-16.5 10.7-26.9A38.7 38.7 0 0 1 64.5 5.5c12 0 21.5 3.4 28 10 9.8 10 10 24.2 10 27 0 36.3-4 61.9-11.4 72-3.3 4.7-9.8 5.1-10.3 5.2H47z" fill="url(#c)"/><path d="M64.6 7c11.6 0 20.7 3.3 27 9.6a38.5 38.5 0 0 1 9.5 25.8v.2c0 35.8-4 61.1-11.1 71.1-2.9 4-8.6 4.4-9.1 4.5H47c-.6 0-6.2-.6-9-4.5-7.3-10-11.2-35.2-11.2-71.2 0-.6 0-15.5 10.2-25.7A37.3 37.3 0 0 1 64.6 7m0-3c-41 0-40.7 38-40.7 38.6 0 24.5 1.9 59.2 11.7 72.9 3.9 5.4 11.4 5.7 11.4 5.7h34s7.5-.3 11.4-5.7c9.8-13.7 11.7-48.4 11.7-73 0-.5 1.5-38.5-39.5-38.5z" fill="#1F1D1B"/></g><g clip-path="url(#b)"><linearGradient id="d" x1="64" x2="64" y1="97.5" y2="130.5" gradientUnits="userSpaceOnUse"><stop stop-color="#eee" offset="0"/><stop stop-color="#EBEBEB" offset=".3"/><stop stop-color="#E0E0E0" offset=".7"/><stop stop-color="#CECECE" offset=".9"/><stop stop-color="#C9C9C9" offset="1"/></linearGradient><path d="M13.5 130.5V121c0-17.3 27.2-23.5 50.5-23.5h.1c13.4 0 25.9 2.1 35 6 7 3 15.4 8.5 15.4 17.5v9.5h-101z" fill="url(#d)"/><path d="M64.1 99c24.3 0 48.9 7.5 48.9 22v8H15v-8c0-7 4.9-12.5 14.5-16.4C38.3 101 50.5 99 64 99h.1m0-3H64c-25.6 0-52 7.1-52 25v11h104v-11c0-16.9-26.1-25-51.9-25z" fill="#CDCFD1"/></g><g clip-path="url(#b)"><path d="M63.2 119.6c-4 0-7.3-3.9-7.3-8.6V91h16.2v20c0 4.7-3.3 8.6-7.3 8.6h-1.6z" fill="#3C2B24"/><path d="M71 92v19c0 4.2-2.7 7.6-6.2 7.6h-1.6c-3.5 0-6.3-3.4-6.3-7.6V92h14.2m2-2H54.9v21c0 5.3 3.7 9.6 8.3 9.6h1.6c4.6 0 8.3-4.3 8.3-9.6V90z" fill="#291B16"/></g><path d="M12.5 121.3v11h103v-11c0-16.9-25.7-25.7-51.6-25.6-25.6 0-51.4 7.7-51.4 25.6z" clip-path="url(#b)" fill="none"/><g clip-path="url(#b)"><defs><path id="e" d="M12 121v11h104v-11c0-16.9-26.2-25-52-25-25.6 0-52 7.1-52 25z"/></defs><clipPath id="f"><use xlink:href="#e"/></clipPath><path clip-path="url(#f)" fill="#81D4FA" d="M52.7 102l3.8 22H72l3.4-22z"/><g clip-path="url(#f)"><path d="M70.9 125.1l3.1-28c3.8.2 6 .5 6.9.7l2.8 6.4-5.3 4.4 3 6.3L75 125h-4.2z" fill="#EFF2F5"/><path d="M74.9 98l5.3.7 2.3 5.2-4.1 3.4-1.2 1 .6 1.4 2.5 5.1-5.8 9.3H72l2.9-26m-1.8-2.2l-3.3 30.2h5.8l7-11.1-3-6.2 5.3-4.3-3.3-7.6s-2.5-.5-8.5-1z" fill="#ccc"/><path d="M53 125.1l-6.4-10.2 3-6.3-5.3-4.4 2.8-6.4c1-.2 3.2-.5 6.9-.8l3 28.1h-4z" fill="#EFF2F5"/><path d="M53.1 98l2.9 26.1h-2.5l-5.7-9.3 2.4-5.1.6-1.4-1.2-1-4-3.4 2.2-5.2L53 98m1.8-2.1c-6 .4-8.5.9-8.5.9l-3.3 7.6 5.3 4.4-3 6 7 11.2h5.8L55 96z" fill="#ccc"/></g></g><path d="M86 97.4c-.5-3-3.2-8.9-10.4-8.9H53.2c-7.2 0-9.9 5.8-10.3 8.9h-.7a8.6 8.6 0 0 0-7.6 8.5v5h3v-5a5.6 5.6 0 0 1 11.1 0v5h3v-5c0-4-2.7-7.4-6.5-8.3l.6.2c0-.2 1-6.3 7.4-6.3h22.4c6.4 0 7.3 6 7.4 6.3l2.5 12.6 3-.5L86 97.4z" clip-path="url(#b)" fill="#03A9F4"/><circle cx="87" cy="112.5" r="7" clip-path="url(#b)" fill="#03A9F4"/><path d="M39.2 121.9c-1.2 0-2.3-.5-3-1.4-1.9-1.8-1.9-4.8-1.9-5.1v-5l.3-.2h3l.2.2v5c0 .6.2 2 .8 2.7.2.2.4.3.9.3 1 0 1.8 1 1.7 2-.1 1-1 1.6-2 1.5zm7.6.1c-1 0-1.9-1-1.7-2.1a2 2 0 0 1 1.8-1.4c.4 0 .7-.1.8-.3.6-.6.8-2.1.8-2.7v-5c0-.1 0-.2.2-.2h3c.2 0 .3 0 .3.2v5c0 .3 0 3.3-1.8 5.1-.9 1-2 1.4-3.4 1.4z" clip-path="url(#b)" fill="#1E88E5"/><circle cx="87" cy="112.5" r="4" clip-path="url(#b)" fill="#1E88E5"/><g clip-path="url(#b)"><linearGradient id="g" x1="64" x2="64" y1="94.6" y2="17.8" gradientUnits="userSpaceOnUse"><stop stop-color="#5C4037" offset="0"/><stop stop-color="#63463D" offset=".2"/><stop stop-color="#6D5047" offset=".5"/><stop stop-color="#70534A" offset="1"/></linearGradient><path d="M64 95.2c-2.3 0-5-.5-7.6-1.4a38.7 38.7 0 0 1-24.5-38C31.9 27.2 49.2 17 64 17s32.1 10 32.1 38.9a38.6 38.6 0 0 1-24.6 37.9 23 23 0 0 1-7.5 1.4z" fill="url(#g)"/><path d="M64 18a29 29 0 0 1 21.6 9A41.3 41.3 0 0 1 95 55.9c0 21-12.9 33-24 37-2.4.8-5 1.3-7.1 1.3-2.2 0-4.7-.5-7.2-1.4-11-3.9-24-16-24-37 0-12 3.4-22 9.7-28.7A29 29 0 0 1 64 18m0-2c-17.2 0-33.1 12.7-33.1 39.9A39.8 39.8 0 0 0 56 94.7a24 24 0 0 0 7.9 1.5c2.4 0 5-.5 7.8-1.5A39.8 39.8 0 0 0 97.1 56c0-27.2-15.9-40-33.1-40z" fill="#4A2F27"/></g><g clip-path="url(#b)"><defs><path id="h" d="M30.4 88.8L29 37.3c0-17 15.8-29.8 32.7-29.8h5c17 0 32.5 12.9 32.5 29.8l-1.5 51.2-67.2.3z"/></defs><clipPath id="i"><use xlink:href="#h"/></clipPath><g clip-path="url(#i)"><radialGradient id="j" cx="194" cy="-123.3" r="48.2" gradientTransform="matrix(.796 0 0 .796 -90.4 97.6)" gradientUnits="userSpaceOnUse"><stop stop-color="#444140" offset="0"/><stop stop-color="#232020" offset="1"/></radialGradient><path d="M101.9 42.5S102.9 7 64 7 26 42.5 26 42.5 26.4 88 29.3 94s7.2 5.7 7.2 5.7-2-26.5-2.3-39c0-3-.9-13.7 5.2-15 22.4-5.1 35-17 35-17 3.3 7.2 13.6 14.2 17.3 16.9 3 2.2 2.6 11.2 2.5 15l-3 39s4.7.4 7.6-5.6c3-6 3-51.4 3-51.4z" fill="url(#j)"/></g></g><g clip-path="url(#b)"><path d="M67.8 68l-.3-.1h-7.3c-.6.3-1 1-.7 1.7s1.7 2.6 4.5 2.6 4.2-2 4.5-2.6c.3-.7 0-1.4-.7-1.6z" fill="#33251F"/><g fill="#1A1717"><ellipse cx="47.8" cy="58.8" rx="4.9" ry="5"/><ellipse cx="80.3" cy="58.8" rx="4.9" ry="5"/><path d="M55 49.7c-1-1.2-3-3-7.3-3s-6.3 1.8-7.2 3c-.4.6-.3 1.2 0 1.6.3.3 1 .6 1.9.4s2.5-1.2 5.3-1.2c2.9 0 4.5.9 5.4 1.2s1.6 0 1.9-.4c.3-.4.4-1 0-1.6zm32.5 0c-1-1.2-3-3-7.2-3s-6.4 1.8-7.3 3c-.4.6-.3 1.2 0 1.6.3.3 1 .6 1.9.4s2.5-1.2 5.3-1.2c2.9 0 4.5.9 5.4 1.2s1.6 0 1.9-.4c.3-.4.4-1 0-1.6z"/></g><path d="M72.3 76a25.3 25.3 0 0 1-16.6 0c-1.8-1-3.6.6-2.9 2.3.7 1.6 6.4 5.3 11.2 5.3s10.5-3.7 11.2-5.3c.7-1.7-1-3.3-2.9-2.3z" fill="#1A1717"/></g></svg>