<svg viewBox="0 0 128 128" xmlns="http://www.w3.org/2000/svg" xmlns:xlink="http://www.w3.org/1999/xlink"><defs><path id="a" d="M4 4h120v120H4z"/></defs><clipPath id="b"><use xlink:href="#a"/></clipPath><g clip-path="url(#b)"><radialGradient id="c" cx="48.1" cy="-128.6" r="39.1" gradientTransform="matrix(.826 0 0 .8186 -5.7 100.3)" gradientUnits="userSpaceOnUse"><stop stop-color="#6D4C41" offset="0"/><stop stop-color="#543930" offset="1"/></radialGradient><path d="M34.2 4C7.2 4 7.5 28.7 7.5 29c0 16 1.2 38.7 7.7 47.5 2.5 3.6 7.5 3.8 7.5 3.8H45s5-.2 7.5-3.8c6.4-8.8 7.7-31.4 7.7-47.4 0-.4 1-25.1-26-25.1z" fill="url(#c)"/></g><g clip-path="url(#b)"><path d="M1.5 126.3V88.1c0-9.2 7.4-16.5 19.7-19.4a53.5 53.5 0 0 1 21-.7c9.8 1.6 20.3 7.8 20.3 20v38.3h-61z" fill="#651FFF"/><path d="M33.6 68.7c2.8 0 5.6.3 8.4.7 5.6 1 10.3 3.1 13.7 6.3C59.2 79 61 83 61 88v36.7H3V88.1c0-12.6 14.2-16.9 18.6-18 4.1-.9 8-1.4 12-1.4m0-3c-4.4 0-8.6.6-12.7 1.6C9.6 69.9 0 76.8 0 88v39.7h64V88.1c0-12.2-9.6-19.6-21.5-21.6-3-.5-6-.8-8.9-.8z" fill="#540EED"/><linearGradient id="d" x1="6" x2="6" y1="97" y2="127" gradientUnits="userSpaceOnUse"><stop stop-color="#FFB300" offset="0"/><stop stop-color="#FFCA28" offset=".4"/></linearGradient><path fill="url(#d)" d="M1 97h10v30H1z"/><path d="M10 98v28H2V98h8m2-2H0v32h12V96z" fill="#EDA600"/></g><g clip-path="url(#b)"><radialGradient id="e" cx="120.2" cy="-127.9" r="39.3" gradientTransform="matrix(.826 0 0 .826 -5.7 100.6)" gradientUnits="userSpaceOnUse"><stop stop-color="#6D4C41" offset="0"/><stop stop-color="#543930" offset="1"/></radialGradient><path d="M93.8 4c-27.1 0-27 25-27 25.4 0 16.2 1.3 39.2 7.8 48.2 2.6 3.5 7.6 3.7 7.6 3.7h22.4s5-.2 7.5-3.7c6.5-9 7.8-32 7.8-48.2 0-.4 1-25.4-26.1-25.4z" fill="url(#e)"/></g><g clip-path="url(#b)"><path d="M65.5 88.4c0-10.6 7.4-18.2 19.8-20.3a51.2 51.2 0 0 1 21.5.8c12.3 2.9 19.7 10.2 19.7 19.5V127h-61V88.4z" fill="#a0f"/><path d="M94 68.8c4.2 0 8.3.5 12.4 1.5 4.4 1 18.6 5.4 18.6 18.1v37.1H67V88.4c0-9.8 7-16.8 18.6-18.8 2.7-.5 5.6-.8 8.5-.8m0-3c-3 0-6 .3-9 .8-12 2-21.1 9.5-21.1 21.8v40.1h64V88.4c0-11.4-9.6-18.3-20.9-21-4.1-1-8.5-1.6-13-1.6z" fill="#9900E6"/></g><g clip-path="url(#b)"><path d="M93.2 71.7c-2.5 0-4.5-2-4.5-4.4v-5.6h10v5.6c0 2.5-2 4.4-4.4 4.4h-1.1z" fill="#E59600"/><path d="M97.7 62.7v4.6c0 1.9-1.6 3.4-3.5 3.4h-1a3.4 3.4 0 0 1-3.5-3.4v-4.6h8m2-2h-12v6.6c0 3 2.4 5.4 5.4 5.4h1.1c3 0 5.5-2.4 5.5-5.4v-6.6z" fill="#D18100"/></g><g clip-path="url(#b)"><linearGradient id="f" x1="93.4" x2="93.4" y1="63.5" y2="13.4" gradientUnits="userSpaceOnUse"><stop stop-color="#FFB300" offset="0"/><stop stop-color="#FFB809" offset=".1"/><stop stop-color="#FFC21A" offset=".4"/><stop stop-color="#FFC825" offset=".7"/><stop stop-color="#FFCA28" offset="1"/></linearGradient><path d="M93.4 63.8a15 15 0 0 1-4.9-.9 25.2 25.2 0 0 1-16-24.7c0-18.7 11.3-25.4 20.9-25.4s20.9 6.7 20.9 25.4c0 14-8.7 22.1-16 24.7-1.8.6-3.5 1-5 1z" fill="url(#f)"/><path d="M93.4 13.8c9.1 0 19.9 6.4 19.9 24.4 0 13.6-8.3 21.3-15.4 23.8a14 14 0 0 1-4.5.8c-1.4 0-3-.3-4.6-.8a24.2 24.2 0 0 1-15.3-23.8c0-18 10.7-24.3 19.9-24.3m0-2c-11.4 0-21.9 8.4-21.9 26.3 0 14.4 9 23 16.7 25.7 1.8.6 3.6 1 5.2 1a16 16 0 0 0 5.2-1 26.3 26.3 0 0 0 16.7-25.7c0-18-10.6-26.3-22-26.3z" fill="#ED9E00"/></g><g clip-path="url(#b)"><radialGradient id="g" cx="138.9" cy="-120.6" r="31.8" gradientTransform="matrix(.796 0 0 .796 -16.9 97)" gradientUnits="userSpaceOnUse"><stop stop-color="#6D4C41" offset="0"/><stop stop-color="#543930" offset="1"/></radialGradient><path d="M118.7 29.4S119.4 6 93.7 6s-25 23.5-25 23.5.2 30 2 34c2 3.9 4.8 3.7 4.8 3.7s-1.3-17.5-1.4-25.8c0-1.9-.7-9 3.4-10a52 52 0 0 0 23-11c2.2 4.7 9 9.3 11.5 11 2 1.5 1.7 7.5 1.7 10l-2 25.8s3 .2 5-3.7 2-34 2-34z" fill="url(#g)"/></g><g clip-path="url(#b)"><path d="M96.2 46.2h-5c-.4.2-.7.6-.5 1s1.2 1.8 3 1.8 2.8-1.3 3-1.7c.2-.5 0-1-.5-1.1z" fill="#E59600"/><ellipse cx="83" cy="40.1" rx="3.2" ry="3.3" fill="#404040"/><ellipse cx="104.4" cy="40.1" rx="3.2" ry="3.3" fill="#404040"/><path d="M87.8 34.1c-.7-.8-2-2-4.8-2s-4.2 1.2-4.8 2c-.3.4-.2.8 0 1 .1.3.7.5 1.2.3s1.7-.7 3.6-.7c1.8 0 3 .5 3.5.7s1.1 0 1.3-.2a1 1 0 0 0 0-1zm21.4 0c-.6-.8-2-2-4.8-2s-4.1 1.2-4.8 2c-.2.4-.2.8 0 1 .2.3.7.5 1.3.3s1.7-.7 3.5-.7c1.9 0 3 .5 3.6.7s1 0 1.2-.2c.2-.3.3-.7 0-1z" fill="#6D4C41"/><path d="M98.9 51.5c-2.1 1.3-9 1.3-11 0-1.2-.7-2.4.4-2 1.5.6 1 4.3 3.5 7.5 3.5s6.9-2.4 7.4-3.5c.5-1-.7-2.2-2-1.5z" fill="#795548"/></g><g clip-path="url(#b)"><path d="M33.8 71c-2.5 0-4.4-2-4.4-4.4v-5.4h9.9v5.5c0 2.3-2 4.3-4.4 4.3h-1.1z" fill="#E59600"/><path d="M38.3 62.1v4.5c0 1.9-1.5 3.4-3.4 3.4h-1.1a3.4 3.4 0 0 1-3.4-3.4v-4.4h7.9m2-2h-12v6.5c0 2.9 2.5 5.3 5.5 5.3h1c3 0 5.5-2.4 5.5-5.4v-6.4z" fill="#D18100"/></g><g clip-path="url(#b)"><linearGradient id="h" x1="33.8" x2="33.8" y1="62.5" y2="13.1" gradientUnits="userSpaceOnUse"><stop stop-color="#FFB300" offset="0"/><stop stop-color="#FFB809" offset=".1"/><stop stop-color="#FFC21A" offset=".4"/><stop stop-color="#FFC825" offset=".7"/><stop stop-color="#FFCA28" offset="1"/></linearGradient><path d="M33.8 62.8a15 15 0 0 1-4.8-.9 24.8 24.8 0 0 1-16-24.3c0-18.5 11.2-25 20.8-25s20.8 6.5 20.8 25c0 13.8-8.6 21.7-16 24.3a15 15 0 0 1-4.8 1z" fill="url(#h)"/><path d="M33.8 13.6c9.2 0 19.8 6.3 19.8 24 0 13.3-8.2 21-15.3 23.4-1.6.5-3.1.8-4.5.8-1.3 0-2.9-.3-4.5-.8a24 24 0 0 1-15.2-23.4c0-17.7 10.6-24 19.7-24m0-2c-11.3 0-21.7 8.3-21.7 26a26 26 0 0 0 16.5 25.2 14.5 14.5 0 0 0 10.4 0 26 26 0 0 0 16.6-25.2c0-17.7-10.5-26-21.8-26z" fill="#ED9E00"/></g><g clip-path="url(#b)"><radialGradient id="i" cx="64.3" cy="-121" r="31.7" gradientTransform="matrix(.796 0 0 .7889 -16.9 96.7)" gradientUnits="userSpaceOnUse"><stop stop-color="#6D4C41" offset="0"/><stop stop-color="#543930" offset="1"/></radialGradient><path d="M59.2 29.3S60 6 34.4 6s-25 23.2-25 23.2.2 29.6 2.1 33.4 4.8 3.8 4.8 3.8-1.4-17.3-1.5-25.5c0-1.9-.7-9 3.4-9.8 14.6-3.3 23-11 23-11 2.1 4.7 8.9 9.3 11.3 11 2 1.4 1.7 7.3 1.7 9.8l-2 25.4s3 .2 5-3.7c2-3.9 2-33.4 2-33.4z" fill="url(#i)"/></g><g clip-path="url(#b)"><path d="M36.8 45.8h-5c-.4.2-.6.6-.4 1 .2.5 1 1.8 3 1.8s2.7-1.3 2.9-1.7c.2-.5 0-1-.5-1z" fill="#E59600"/><ellipse cx="23.6" cy="39.8" rx="3.2" ry="3.3" fill="#404040"/><ellipse cx="45" cy="39.8" rx="3.2" ry="3.3" fill="#404040"/><path d="M28.4 34c-.6-.9-2-2-4.8-2s-4 1.1-4.7 2c-.3.3-.2.7 0 1 .2.2.7.4 1.2.2.6-.2 1.7-.8 3.6-.8 1.8 0 3 .6 3.5.8.5.2 1 0 1.2-.3.2-.2.3-.6 0-1zm21.4 0c-.7-.9-2-2-4.8-2s-4.1 1.1-4.8 2a1 1 0 0 0 0 1c.2.2.7.4 1.3.2.6-.2 1.7-.8 3.5-.8 1.9 0 3 .6 3.5.8.6.2 1.1 0 1.3-.3.2-.2.2-.6 0-1z" fill="#6D4C41"/><path d="M39.3 50.7c-2 1.2-8.8 1.2-11 0-1.1-.7-2.3.4-1.8 1.4.5 1.1 4.2 3.5 7.4 3.5s6.8-2.4 7.3-3.5c.5-1-.7-2-1.9-1.4z" fill="#795548"/></g><path d="M15.3 69.5c-2.6-8.3-4.4-23-4.4-40.4 0-.4.1-9.8 6.5-16C21.4 9 27.2 7 34.7 7c7.4 0 13.1 2 17 5.9 6 6 6 15 6 16v.2c0 18-1.6 32-4.4 40.2l2.6 1.4c4-10.8 4.8-28.4 4.8-41.6 0-.4 1-25.1-26-25.1S8 28.7 8 29c0 13 1 31.2 4.7 42l2.6-1.5z" clip-path="url(#b)" fill="#3F2720"/><g clip-path="url(#b)"><linearGradient id="j" x1="122" x2="122" y1="97" y2="127" gradientUnits="userSpaceOnUse"><stop stop-color="#FFB300" offset="0"/><stop stop-color="#FFCA28" offset=".4"/></linearGradient><path fill="url(#j)" d="M117 97h10v30h-10z"/><path d="M126 98v28h-8V98h8m2-2h-12v32h12V96z" fill="#EDA600"/></g><path clip-path="url(#b)" fill="none" d="M0 0h128v128H0z"/><radialGradient id="k" cx="64" cy="97.2" r="29.2" gradientTransform="matrix(1 0 0 1.4568 0 -44.4)" gradientUnits="userSpaceOnUse"><stop stop-color="#212121" offset=".4"/><stop stop-color="#616161" stop-opacity=".1" offset="1"/></radialGradient><path d="M85.1 66.6c-11.9 2-21 9.5-21 21.8 0-12.3-9.7-19.7-21.6-21.8-1.9-.3-3.5-.5-5.5-.6v62.5h54V66c-2 0-4 .3-5.9.6z" clip-path="url(#b)" fill="url(#k)" opacity=".4"/><path d="M74.5 69.5c-2.6-8.3-4.4-23-4.4-40.4 0-.4.1-9.8 6.5-16C80.6 9 86.4 7 93.9 7c7.4 0 13 2 17 5.9 6 6 6 15 6 16v.2c0 18-1.6 32-4.4 40.2l2.6 1.4c4-10.8 4.8-28.4 4.8-41.6 0-.4 1-25.1-26-25.1S67.2 28.7 67.2 29c0 12.9 1 31.1 4.7 42l2.6-1.5z" clip-path="url(#b)" fill="#3F2720"/><g clip-path="url(#b)"><path d="M43.2 138.1V122c0-9.4 12.7-12.3 16.2-12.3H69c3.5 0 16 3 16 12.3v1.1c.3 10 .2 13.7.2 15.1h-42z" fill="#E1BEE7"/><path d="M69 110.6c3.3 0 15 2.7 15 11.3v.3l.1.8.1 14.1h-40V122c0-8.6 11.9-11.3 15.2-11.3H69m0-2h-9.6c-4.4 0-17.1 3.3-17.1 13.3 0 0-.3 17.2 0 17.2H86c.3 0 0-16.5 0-16.9v-.3c0-10-12.7-13.3-17.1-13.3z" fill="#CCA1D4"/><path d="M63.7 115.8c-2 0-3.8-1.7-3.8-3.8v-1.9h8.6v2c0 2-1.7 3.7-3.8 3.7h-1z" fill="#E59600"/><path d="M68 110.6v1.4c0 1.8-1.5 3.3-3.3 3.3h-1a3.3 3.3 0 0 1-3.3-3.3v-1.4H68m1-1h-9.5v2.4c0 2.4 2 4.3 4.3 4.3h1c2.3 0 4.3-2 4.3-4.3v-2.4z" fill="#D18100"/><defs><path id="l" d="M40.5 64.2h46.9v46.9H40.5z"/></defs><clipPath id="m"><use xlink:href="#l"/></clipPath><g clip-path="url(#m)"><radialGradient id="n" cx="46" cy="99.4" r="11.3" gradientUnits="userSpaceOnUse"><stop stop-color="#6D4C41" offset="0"/><stop stop-color="#543930" offset=".9"/></radialGradient><path d="M45.6 111l.6-2.8-5.4 1.3s-.4-5.2 4.3-8.2c5-3.3 10.9.2 10.9.2s-.6 4-4 7.3c-2.4 2.3-6.4 2.3-6.4 2.3z" fill="url(#n)"/></g><g clip-path="url(#m)"><path d="M50 101.9c1.4 0 2.7.4 3.6.7a12 12 0 0 1-3 4.8 6 6 0 0 1-2.5 1.3v-.1l.7-3.2-3.1.8-2.5.6a7.2 7.2 0 0 1 3-3.8 7 7 0 0 1 3.7-1.1m0-2c-1.5 0-3.2.3-4.8 1.4-4.7 3-4.3 8.2-4.3 8.2l5.4-1.4-.6 3s4 0 6.3-2.3c3.5-3.4 4-7.3 4-7.3s-2.6-1.6-6-1.6z" fill="#402720"/></g><g clip-path="url(#m)"><radialGradient id="o" cx="81.6" cy="99.6" r="11.3" gradientUnits="userSpaceOnUse"><stop stop-color="#6D4C41" offset="0"/><stop stop-color="#543930" offset=".9"/></radialGradient><path d="M82.7 111l-.6-2.8 5.4 1.3s.3-5.2-4.3-8.2c-5.1-3.3-11 .2-11 .2s.6 4 4.1 7.3c2.4 2.3 6.4 2.3 6.4 2.3z" fill="url(#o)"/></g><g clip-path="url(#m)"><path d="M78.3 101.9a8 8 0 0 1 3.8 1 7.1 7.1 0 0 1 3 4l-2.6-.7-3-.7.6 3v.2c-.9-.3-1.8-.7-2.4-1.3a12.8 12.8 0 0 1-3-4.8 11 11 0 0 1 3.6-.7m0-2c-3.3 0-6 1.6-6 1.6s.5 4 4 7.3c2.3 2.3 6.3 2.3 6.4 2.3l-.7-3 5.4 1.4s.4-5.2-4.2-8.2a8.7 8.7 0 0 0-4.9-1.4z" fill="#402720"/></g><g clip-path="url(#m)"><path d="M49.5 99.8c-3 0-5.3-2.2-5.3-5s2.3-5 5.3-5h29.4c2.8 0 5 2 5 5 0 2.9-2.2 5-5 5H49.5z" fill="#E59600"/><path d="M79 90.2c2.4 0 4.3 2 4.3 4.6s-1.9 4.5-4.4 4.5H49.4c-2.6 0-4.7-2-4.7-4.5s2.1-4.6 4.7-4.6H79m0-1H49.4c-3.1 0-5.7 2.5-5.7 5.6s2.6 5.5 5.7 5.5H79c3.2 0 5.4-2.5 5.4-5.5s-2.2-5.6-5.4-5.6z" fill="#CC8600"/></g><g clip-path="url(#m)"><linearGradient id="p" x1="64" x2="64" y1="110.6" y2="78.9" gradientUnits="userSpaceOnUse"><stop stop-color="#FFB300" offset="0"/><stop stop-color="#FFB809" offset=".1"/><stop stop-color="#FFC21A" offset=".4"/><stop stop-color="#FFC825" offset=".7"/><stop stop-color="#FFCA28" offset="1"/></linearGradient><path d="M64 110.6c-7.1 0-17-6.3-17-20.4 0-13.2 7.4-23.4 17-23.4S81 77 81 90.2c0 14-10 20.4-17 20.4z" fill="url(#p)"/><path d="M64 67.3c8.1 0 16.5 8.5 16.5 22.9 0 13.7-9.6 20-16.5 20s-16.6-6.3-16.6-20c0-14.4 8.4-23 16.6-23m0-1c-9.4 0-17.6 9.9-17.6 24 0 14 9.9 21 17.6 21s17.5-7 17.5-21c0-14.1-8.2-24-17.5-24z" fill="#EDA600"/></g><path d="M79 42.2c1.6-2.5.7-5.6.7-5.6s-1.1 2.8-4.7 2.2h-.6c-2.6-1.3-6-2.2-10.3-2.2-19 0-20.5 16.2-19.8 23.3l.5 3 3.5 2.9L48 64l-1.7-1.5-.3-2.4 18.2-10.3 18 12.8L80 64l-.1 1.8 3.5-2.8.2-3.2c.4-8.1-.2-12.6-4.5-17.7z" clip-path="url(#m)" fill="none"/><path d="M66 96.7h-4c-.3.1-.5.5-.3.9.1.3.8 1.3 2.3 1.3s2.2-1 2.3-1.3c.2-.4 0-.7-.3-.9z" clip-path="url(#m)" fill="#E59600"/><g clip-path="url(#m)" fill="#6D4C41"><path d="M51.8 89.4l.2-.3.3-.2.2-.2.2-.2.3-.2.3-.2.4-.1.3-.2.8-.1a5.7 5.7 0 0 1 1.7 0l.8.1.3.2.4.1.3.2.3.2.2.2.2.1.2.2.1.1.2.4c.3.3.2.8-.1 1-.3.2-.5.3-.8.2h-.1l-.3-.2H58l-.4-.2h-.2l-.2-.1h-.4l-.2-.1-.5-.1h-1.6l-.2.1h-.2l-.3.1h-.2l-.2.2h-.2l-.2.1-.3.2c-.4.1-.9 0-1-.5a.7.7 0 0 1 0-.8zm23.4 1.2l-.3-.1h-.1l-.2-.1h-.1l-.2-.1h-.2l-.2-.1h-.1l-.1-.1h-.3L73 90h-1.6l-.2.1H71l-.3.1c0 .1 0 0-.2 0a3 3 0 0 0-.3.2H70v.1l-.3.1h-.2a.8.8 0 0 1-.9-1.2l.2-.3.2-.1.1-.2.2-.1c0-.2.2-.2.3-.2l.2-.2.4-.2.3-.1.4-.2.7-.2a5.7 5.7 0 0 1 1.7 0l.8.2.4.2.3.1.3.2.3.2.2.1.3.2.1.2.2.1c0 .2.2.3.2.3.2.4.1.9-.3 1.1-.2.2-.5.2-.8.1z"/></g><g clip-path="url(#m)" fill="#404040"><ellipse cx="55.5" cy="94.1" rx="2.5" ry="2.6"/><ellipse cx="72.5" cy="94.1" rx="2.5" ry="2.6"/></g><path d="M68.3 101c-1.6 1-7 1-8.6 0-1-.5-2 .3-1.6 1.2.4.8 3.4 2.8 5.9 2.8s5.4-2 5.8-2.8c.4-.8-.6-1.7-1.5-1.1z" clip-path="url(#m)" fill="#795548"/><g clip-path="url(#m)"><radialGradient id="q" cx="45.7" cy="33.6" r="24" gradientTransform="translate(16 -1.4) scale(1.0432)" gradientUnits="userSpaceOnUse"><stop stop-color="#6D4C41" offset="0"/><stop stop-color="#543930" offset=".9"/></radialGradient><path d="M79.6 37.2a14.4 14.4 0 0 0-4.7-3.5A25.3 25.3 0 0 0 64 31.5c-19.8 0-21.2 16.3-20.4 23.4.7 6.3 4 7.8 4 7.8s-.7-5.5.4-9.4c.8-3.2 2.8-5.5 2.8-5.5s3.6 3 10.2 5.1c3.3 1 7.4.5 7.4.5l-2.3-4.1s3.8 2.8 6.1 3.3c3 .7 5.3.4 5.3.4l-1.2-4.3s2 1.2 3.4 4.7.6 9.3.6 9.3 3.4-1.5 4-7.8c.7-7.9-.3-12.6-4.8-17.7z" fill="url(#q)"/><defs><path id="r" d="M79.6 37.2a12.3 12.3 0 0 0-4.7-3.5A25.3 25.3 0 0 0 64 31.5c-19.8 0-21.2 16.3-20.4 23.4.7 6.3 4 7.8 4 7.8v-1.5S46.4 60 46 59.1c-.4-.9 0-12 0-12l18-4.8 18 4.8s.7 11.3 0 12.1-1.5 1.3-1.5 1.3l-.1 2.2s3.4-1.5 4-7.8c.7-7.9-.3-12.6-4.8-17.7z"/></defs><clipPath id="s"><use xlink:href="#r"/></clipPath><g clip-path="url(#s)"><path d="M64.2 34.5c3.5 0 6.7.6 9.4 1.9l.4.2c.7.3 2.2 1.2 3.4 2.5 2.9 3.3 4 6.3 4.2 11a11.9 11.9 0 0 0-3.5-4L71.6 42l2 7.5v.4l-.6-.1c-1.2-.3-3.7-1.8-5-2.8l-11.3-8.3 6.6 11.7a27.7 27.7 0 0 1-10.5-4.8l-2.3-2-2 2.3c0 .2-1 1.2-1.8 2.8.4-3 1.4-6.4 3.9-9.2 3-3.2 7.5-5 13.6-5m0-3c-20 0-21.3 16.4-20.5 23.5.7 6.3 4 7.8 4 7.8s-.7-5.5.4-9.4c.8-3.2 2.8-5.5 2.8-5.5s3.6 3 10.3 5.1c1.6.5 3.4.6 4.8.6l2.5-.1-2.3-4.1s3.8 2.8 6.1 3.3c1.7.4 3 .5 4 .5h1.3l-1.1-4.4s1.9 1.2 3.3 4.7.6 9.3.6 9.3 3.4-1.5 4-7.8c.6-8-.4-12.7-4.8-18-2-2.2-4.5-3.4-4.7-3.4a25.5 25.5 0 0 0-10.7-2.2z" fill="#402720"/></g></g><path clip-path="url(#m)" fill="none" d="M72 85H50"/><g clip-path="url(#m)"><radialGradient id="t" cx="45.7" cy="67.3" r="23.5" gradientTransform="translate(16 -2.9) scale(1.0432)" gradientUnits="userSpaceOnUse"><stop stop-color="#6D4C41" offset="0"/><stop stop-color="#543930" offset="1"/></radialGradient><path d="M79.6 70c-2.3-2.5-4.5-2.6-4.7-2.6A25.3 25.3 0 0 0 64 65.2c-19.8 0-21.2 15.3-20.4 22.4.7 6.3 4.4 7.9 4.4 7.9l-.6-6.1s7.3-2 11-4.9 5.5-5.3 5.5-5.3 1.3 1.8 5.4 5.3 11 5 11 5l-.4 6s3.8-1.6 4.4-7.9C85 79.7 84 75 79.6 70z" fill="url(#t)"/><defs><path id="u" d="M79.6 70a12.3 12.3 0 0 0-4.7-3.5A25.3 25.3 0 0 0 64 64.3c-19.8 0-21.2 16.3-20.4 23.4.7 6.3 4.4 7.9 4.4 7.9v-1.4l-2-5a12 12 0 0 1 0-6.4l.7-2.9L64 69.6l17.2 10.3.7 3.2a12 12 0 0 1 0 7L80 93.8l-.1 1.8s3.8-1.6 4.4-7.9c.7-7.9-.3-12.6-4.8-17.7z"/></defs><clipPath id="v"><use xlink:href="#u"/></clipPath><g clip-path="url(#v)"><path d="M64.2 66.3c3.6 0 7 .7 9.8 2l.3.1c.6.3 2.4 1.3 3.8 3 4 4.4 5 8.3 4.3 16.1l-.2 1.2a11 11 0 0 0-.5-3.2 12.6 12.6 0 0 0-4.1-5.7L73.2 77l1.3 5 .5 2-2.2-.4c-1.4-.3-4.1-2-5.4-3L59.9 75l4.5 8.1.7 1.2c-1.3 0-2.4-.2-3.4-.5a28.4 28.4 0 0 1-9.5-4.7l-1.5-1.4-1.3 1.6a15.8 15.8 0 0 0-3.6 8.6l-.1-.4c-.3-2.4-.7-10.4 4.2-15.9 3-3.5 7.9-5.3 14.3-5.3m0-2c-20 0-21.3 16.3-20.5 23.4.7 6.3 4.4 7.9 4.4 7.9S47 90 48 86c.8-3.2 2.8-5.5 2.8-5.5s3.6 3.1 10.2 5.1c1.7.5 3.5.6 5 .6h2.4L66.2 82s3.8 2.8 6.1 3.3c1.7.4 3 .5 4 .5h1.3l-1.1-4.4s1.9 1.3 3.3 4.7c.8 1.8.3 7.6.3 7.6l-.1 1.8s3.8-1.6 4.4-7.9c.6-7.9-.3-12.6-4.8-17.7-2-2.2-4.5-3.5-4.7-3.5A25.4 25.4 0 0 0 64 64.3z" fill="#402720"/></g></g></g></svg>