<svg viewBox="0 0 128 128" xmlns="http://www.w3.org/2000/svg" xmlns:xlink="http://www.w3.org/1999/xlink"><defs><path id="a" d="M4 4h120v120H4z"/></defs><clipPath id="b"><use xlink:href="#a"/></clipPath><g clip-path="url(#b)"><linearGradient id="c" x1="64" x2="64" y1="97.5" y2="130.5" gradientUnits="userSpaceOnUse"><stop stop-color="#616161" offset=".003"/><stop stop-color="#545454" offset=".277"/><stop stop-color="#323232" offset=".783"/><stop stop-color="#212121" offset="1"/></linearGradient><path d="M13.5 130.5v-9.51c0-17.29 27.21-23.46 50.5-23.49h.14c13.39 0 25.82 2.15 35.01 6.05 7 2.98 15.35 8.42 15.35 17.44v9.51h-101z" fill="url(#c)"/><path d="M64.14 99c24.28 0 48.86 7.55 48.86 21.99V129H15v-8.01c0-6.95 4.88-12.47 14.52-16.42C38.26 100.99 50.51 99.02 64 99h.14m0-3H64c-25.65.03-52 7.1-52 24.99V132h104v-11.01C116 104.13 89.9 96 64.14 96z" fill="#404042"/></g><g clip-path="url(#b)"><path d="M63.17 107.23c-4 0-7.26-3.22-7.26-7.17v-8.98h16.16v8.98c0 3.96-3.26 7.17-7.26 7.17h-1.64z" fill="#E59600"/><path d="M71.08 92.08v7.98c0 3.4-2.81 6.17-6.26 6.17h-1.65c-3.45 0-6.26-2.77-6.26-6.17v-7.98h14.17m2-2H54.92v9.98c0 4.51 3.7 8.17 8.26 8.17h1.65c4.56 0 8.26-3.66 8.26-8.17v-9.98h-.01z" fill="#D18100"/></g><path d="M12.54 121.29v11.01h102.93v-11.01c0-16.89-25.69-25.65-51.55-25.6-25.63.06-51.38 7.71-51.38 25.6z" clip-path="url(#b)" fill="none"/><g clip-path="url(#b)"><defs><path id="d" d="M12 120.99V132h104v-11.01C116 104.1 89.81 95.97 64 96c-25.65.03-52 7.1-52 24.99z"/></defs><clipPath id="e"><use xlink:href="#d"/></clipPath><path clip-path="url(#e)" fill="#E0E0E0" d="M52.66 106l3.85 18H71.9l3.44-18z"/><g clip-path="url(#e)" fill="#212121"><path d="M66.85 113.53h-5.63l-1.78-7.5h9.12zM68.82 131.81h-9.64l2-18.28h5.64z"/></g><g fill="#FAFAFA" clip-path="url(#e)"><path d="M54.88 94.33c.04 1.79.17 3.8 2.99 7.48 3.17 4.13 6.11 4.19 6.11 4.19l-10.27 8.54-3.86-19.71 5.03-.5zM73.09 94.48c-.04 1.88-.15 3.66-2.97 7.33-3.17 4.13-6.13 4.19-6.13 4.19l10.29 8.54 3.86-19.71-5.05-.35z"/></g><g clip-path="url(#e)"><path d="M51.26 125.09l-10.51-10.24 4.89-6.29-7.22-4.41 3.54-5.66c1.11-.25 4.5-.97 8.86-1.34l6.09 27.93h-5.65z" fill="#303030"/><path d="M50.03 98.23l5.64 25.86h-4l-9.58-9.33 3.65-4.7 1.37-1.77-1.91-1.17-5.4-3.3 2.78-4.44c1.27-.27 4-.81 7.45-1.15m1.58-2.14c-5.92.43-10.28 1.53-10.28 1.53l-4.29 6.86 7.12 4.36-4.75 6.11 11.44 11.14h7.29l-6.53-30z" fill="#404042"/><path d="M71.09 125.09l6.09-27.93c4.36.37 7.75 1.09 8.86 1.34l3.54 5.66-7.22 4.41 4.89 6.29-10.51 10.24h-5.65z" fill="#303030"/><path d="M77.97 98.23c3.45.34 6.18.88 7.45 1.15l2.78 4.44-5.4 3.3-1.91 1.17 1.37 1.77 3.65 4.7-9.58 9.33h-4l5.64-25.86m-1.58-2.14l-6.54 30h7.29l11.44-11.14-4.75-6.11 7.12-4.36-4.29-6.86c.01 0-4.35-1.1-10.27-1.53z" fill="#404042"/></g></g><g clip-path="url(#b)"><path d="M36.67 72.26c-5.36 0-9.71-4.67-9.71-10.41s4.36-10.41 9.71-10.41h54.65c5.36 0 9.71 4.67 9.71 10.41s-4.36 10.41-9.71 10.41H36.67z" fill="#E59600"/><path d="M91.33 52.43c4.8 0 8.71 4.22 8.71 9.41s-3.91 9.41-8.71 9.41H36.67c-4.8 0-8.71-4.22-8.71-9.41s3.91-9.41 8.71-9.41h54.66m0-2H36.67c-5.89 0-10.71 5.14-10.71 11.41 0 6.28 4.82 11.41 10.71 11.41h54.65c5.89 0 10.71-5.14 10.71-11.41.01-6.27-4.81-11.41-10.7-11.41z" fill="#D18100"/><linearGradient id="f" x1="64" x2="64" y1="94.591" y2="12.825" gradientUnits="userSpaceOnUse"><stop stop-color="#FFB300" offset="0"/><stop stop-color="#FFB809" offset=".102"/><stop stop-color="#FFC21A" offset=".371"/><stop stop-color="#FFC825" offset=".659"/><stop stop-color="#FFCA28" offset="1"/></linearGradient><path d="M64 95.27c-15.66 0-32.52-12.14-32.52-38.81 0-12.38 3.56-23.79 10.02-32.13 6.04-7.8 14.25-12.27 22.5-12.27s16.45 4.47 22.5 12.27c6.46 8.34 10.02 19.75 10.02 32.13 0 12.09-3.51 22.19-10.14 29.21-5.86 6.19-13.81 9.6-22.38 9.6z" fill="url(#f)"/><path d="M64 13.07c7.94 0 15.85 4.33 21.71 11.88 6.33 8.16 9.81 19.35 9.81 31.52 0 11.83-3.41 21.7-9.87 28.52-5.67 5.99-13.36 9.29-21.65 9.29s-15.98-3.3-21.65-9.29c-6.46-6.82-9.87-16.69-9.87-28.52 0-12.16 3.49-23.35 9.81-31.52C48.15 17.4 56.06 13.07 64 13.07m0-2c-17.4 0-33.52 18.61-33.52 45.39 0 26.64 16.61 39.81 33.52 39.81S97.52 83.1 97.52 56.46c0-26.78-16.12-45.39-33.52-45.39z" fill="#ED9E00"/><path d="M39.99 50.73s.13-.19.38-.51c.07-.08.12-.16.22-.26.11-.11.23-.22.37-.34s.28-.24.43-.38c.15-.13.31-.23.48-.35.17-.11.34-.24.53-.35.19-.1.4-.21.6-.32.21-.12.43-.21.66-.3s.47-.18.71-.27c.49-.14 1-.29 1.54-.36.53-.1 1.08-.11 1.63-.14.55.03 1.09.03 1.63.14.53.07 1.05.22 1.54.36.24.08.48.17.71.27.23.09.45.18.66.3.21.11.41.22.6.32.19.11.36.24.53.35.17.12.33.22.47.34s.27.24.4.35c.12.11.24.21.34.31s.18.21.26.29c.31.36.46.57.46.57.51.7.35 1.69-.36 2.19-.43.31-.96.37-1.43.21l-.29-.1s-.19-.07-.49-.2c-.08-.03-.15-.07-.25-.11-.1-.03-.19-.07-.3-.11-.21-.08-.44-.17-.7-.25-.13-.04-.26-.09-.4-.13-.14-.03-.28-.07-.43-.11l-.22-.06c-.08-.01-.15-.03-.23-.04-.16-.03-.31-.07-.47-.1-.33-.04-.66-.11-1-.12-.34-.04-.69-.03-1.03-.05-.35.02-.7.01-1.03.05-.34.02-.67.09-1 .12-.16.03-.31.07-.47.1-.08.01-.16.03-.23.04l-.22.06c-.15.04-.29.07-.43.11s-.27.09-.4.13-.25.08-.37.11c-.1.04-.2.07-.29.1l-.27.09c-.1.04-.2.1-.29.14-.36.18-.57.27-.57.27-.83.34-1.77-.05-2.11-.87-.24-.48-.16-1.06.13-1.49z" fill="#6D4C41"/><ellipse cx="47.56" cy="58.81" rx="4.93" ry="5.1" fill="#404040"/><path d="M86.05 53.13s-.22-.09-.57-.27c-.09-.04-.19-.1-.29-.14-.09-.02-.18-.06-.27-.09s-.19-.07-.29-.1c-.12-.04-.24-.07-.37-.11s-.26-.09-.4-.13-.28-.07-.43-.11l-.22-.06c-.08-.01-.15-.03-.23-.04-.16-.03-.31-.07-.47-.1-.33-.04-.66-.11-1-.12-.34-.04-.69-.03-1.03-.05-.35.02-.7.01-1.03.05-.34.02-.67.09-1 .12-.16.03-.31.07-.47.1-.08.01-.16.03-.23.04l-.22.06c-.15.04-.29.08-.43.11-.14.04-.27.09-.4.13-.26.07-.49.16-.7.25-.11.04-.2.08-.3.11-.09.04-.17.08-.25.11-.3.13-.49.2-.49.2l-.28.1c-.82.29-1.72-.15-2-.97-.17-.5-.08-1.03.21-1.44 0 0 .16-.22.46-.57.08-.09.16-.19.26-.29s.22-.2.34-.31.26-.23.4-.35.31-.22.47-.34c.17-.12.34-.24.53-.35.19-.1.4-.21.6-.32.21-.12.43-.21.66-.3s.46-.18.71-.27c.49-.14 1-.29 1.54-.36.53-.1 1.08-.11 1.63-.14.55.03 1.09.03 1.63.14.53.06 1.05.22 1.54.36.24.08.48.17.71.27.23.09.45.18.66.3.21.11.41.22.6.32.19.11.36.24.53.35.17.12.32.22.48.35.15.13.3.26.43.38s.26.23.37.34c.09.1.15.18.22.26.25.31.38.51.38.51.5.74.31 1.74-.43 2.25-.49.28-1.07.32-1.56.12z" fill="#6D4C41"/><ellipse cx="80.44" cy="58.81" rx="4.93" ry="5.1" fill="#404040"/><path d="M67.86 68.06c-.11-.04-.21-.07-.32-.08h-7.07c-.11.01-.22.04-.32.08-.64.26-.99.92-.69 1.63s1.71 2.69 4.55 2.69 4.25-1.99 4.55-2.69c.29-.71-.06-1.37-.7-1.63z" fill="#E59600"/><path d="M72.42 76.14c-3.19 1.89-13.63 1.89-16.81 0-1.83-1.09-3.7.58-2.94 2.24.75 1.63 6.45 5.42 11.37 5.42s10.55-3.79 11.3-5.42c.75-1.66-1.09-3.33-2.92-2.24z" fill="#795548"/><defs><path id="g" d="M64 4.03h-.04c-45.43.24-36.12 52.14-36.12 52.14s5.1 8.99 5.1 8.81c-.03-1.41.46-6.89.46-6.89l-2.68-2.92s3.89-25.44 6.79-24.91c4.45.81 26.54 2 26.57 2 7.83 0 14.92-.36 19.37-1.17 2.9-.53 9.64 1.7 10.68 4.45 1.33 3.54 3.13 19.71 3.13 19.71l-2.68 2.83s.49 5.51.46 6.89c0 .18 5.1-8.81 5.1-8.81S109.44 4.27 64 4.03z"/></defs><radialGradient id="h" cx="64.26" cy="4.274" r="48.85" gradientUnits="userSpaceOnUse"><stop stop-color="#6D4C41" offset="0"/><stop stop-color="#543930" offset="1"/></radialGradient><path d="M64.02 4.03h-.04c-45.43.24-36.13 52.14-36.13 52.14s5.1 8.99 5.1 8.81c-.16-7.25 2.74-20.09 4.8-25.55a6.075 6.075 0 0 1 6.79-3.83c4.46.8 11.55 1.8 19.38 1.8h.16c7.83 0 14.92-1 19.37-1.81 2.9-.53 5.76 1.08 6.79 3.83 2.06 5.47 4.96 18.3 4.8 25.55 0 .18 5.1-8.81 5.1-8.81s9.31-51.89-36.12-52.13z" fill="url(#h)"/><path d="M64.02 4.03h-.04c-45.43.24-36.13 52.14-36.13 52.14s5 8.81 5.1 8.81c-.03-1.48.07-3.2.26-5.03-.12-.29-2.46-4.75-2.48-4.79-.24-1.6-.93-6.98-.55-13.56.41-7.04 2.17-16.96 8.22-24.22 5.67-6.8 14.27-10.28 25.56-10.35H64c11.32.06 19.93 3.54 25.6 10.35 10.81 12.96 8.18 34.33 7.67 37.79-.02.04-2.46 4.58-2.49 4.65.2 1.89.31 3.65.27 5.17.09 0 5.1-8.81 5.1-8.81s9.3-51.91-36.13-52.15z" fill="#3F2720"/></g><g clip-path="url(#b)"><linearGradient id="i" x1="63.964" x2="63.964" y1="25.818" y2="43.693" gradientUnits="userSpaceOnUse"><stop stop-color="#666" offset=".004"/><stop stop-color="#606060" offset=".08"/><stop stop-color="#3F3F3F" offset=".546"/><stop stop-color="#333" offset=".802"/></linearGradient><path d="M63.74 44.18c-22.64-.15-33.43-6.59-36.55-8.88 2.21-2.56 10.65-9.58 36.55-9.58 25.68 0 34.55 6.52 37 9.01-3.29 2.45-14.51 9.3-37 9.45z" fill="url(#i)"/><path d="M63.74 27.22c21.72 0 31.02 4.69 34.58 7.39-4.39 2.81-15.06 7.94-34.56 8.07-19.4-.13-29.92-4.99-34.2-7.61 3.31-2.79 12.33-7.85 34.18-7.85m0-3c-33.25 0-38.58 11.36-38.58 11.36s10.25 9.91 38.58 10.1c28.33-.19 39.11-10.73 39.11-10.73s-5.86-10.73-39.11-10.73z" fill="#2A2A2B"/></g><path d="M23.58 34.5c1.57 6.19 3.07 8.81 3.07 8.81 1.6-2 11.06-11.31 37.29-11.31h.14c26.22 0 35.26 9.36 36.85 11.36 0 0 1.9-2.8 3.47-8.99C108.05 20.05 90.01 4 64.05 4c-25.9 0-44.09 16.2-40.47 30.5z" clip-path="url(#b)" fill="#303030"/><g clip-path="url(#b)"><defs><path id="j" d="M23.58 34.5c1.57 6.19 3.07 8.81 3.07 8.81 1.6-2 11.06-11.31 37.29-11.31h.14c26.22 0 35.26 9.36 36.85 11.36 0 0 1.9-2.8 3.47-8.99C108.05 20.05 90.01 4 64.05 4c-25.9 0-44.09 16.2-40.47 30.5z"/></defs><clipPath id="k"><use xlink:href="#j"/></clipPath><path d="M97.06 35.56a4.647 4.647 0 0 0-1.6-2.76c-3.48-2.91-13.85-10.09-31.41-10.09-18.01 0-28.11 7.17-31.47 10.09-.81.7-1.35 1.65-1.53 2.71l-.01.06c-.58 3.3 2.44 6.12 5.68 5.29 6.33-1.62 16.35-3.6 27.33-3.63 10.98.02 20.99 2.01 27.33 3.63 3.24.81 6.26-2 5.68-5.3z" clip-path="url(#k)" fill="#212121"/></g><g clip-path="url(#b)"><path d="M64.05 7.06c17.17 0 28.83 7.13 34.02 13.8 2.31 2.97 4.77 7.61 3.43 12.89-.51 1.99-1.04 3.86-1.53 5.11C95.07 35.15 84.46 30 64.05 30h-.11c-20.3 0-30.99 5.12-36 8.9-.45-1.29-.95-3.05-1.45-5.01-1.33-5.25 1.14-9.94 3.44-12.9 5.22-6.7 16.92-13.93 34.12-13.93m0-3c-25.9 0-44.09 16.13-40.47 30.44 1.57 6.19 3.22 9.53 3.22 9.53C28.39 42.03 37.71 33 63.94 33h.14c26.22 0 35.26 8.86 36.85 10.86 0 0 1.9-3.05 3.47-9.24C108.05 20.3 90.01 4.06 64.05 4.06z" fill="#404042"/></g><g clip-path="url(#b)" fill="#FFC107"><path d="M57.31 20.48c-.09.06-.18.1-.29.1h-9.84c-.36 0-.5.46-.21.67.23.17.46.33.69.48.8.54 1.74.82 2.71.82h7.72c-.23-.74-.49-1.44-.78-2.07zM56.84 19.51c-.52-1-1.03-1.78-1.4-2.3H42.8c-.27 0-.4.34-.2.51.12.11.25.22.37.33a5.88 5.88 0 0 0 3.88 1.46h9.99zM58.38 23.62h-6.79c-.21 0-.28.29-.09.39 4.11 2.05 6.44 1.91 6.44 1.91h.79c-.05-.8-.17-1.57-.35-2.3zM80.82 20.58h-9.84c-.11 0-.21-.04-.29-.1-.29.63-.55 1.33-.78 2.07h7.72c.96 0 1.91-.28 2.71-.82.23-.15.45-.31.69-.48.29-.21.15-.67-.21-.67zM85.21 17.21H72.57c-.37.52-.88 1.3-1.4 2.3h9.99c1.43 0 2.81-.51 3.88-1.46.12-.11.24-.22.37-.33.19-.18.06-.51-.2-.51zM76.41 23.62h-6.79c-.17.73-.29 1.5-.35 2.3h.79s2.33.14 6.44-1.91c.18-.1.12-.39-.09-.39zM68.25 14.53c-.76.35-1.66.56-2.49.69-1.17.18-2.36.18-3.53 0-.83-.13-1.73-.34-2.49-.69-.48-.22-1.04.02-1.24.51l-.8 1.98c-.21.52-.17.86.02 1.12.71.96 2.39 3.59 2.5 6.76.01.35.2.67.52.83.65.31 1.79.91 2.64 1.61.36.3.86.3 1.22 0 .86-.71 1.99-1.3 2.64-1.61.32-.15.51-.47.52-.83.11-3.17 1.8-5.79 2.5-6.76.19-.26.23-.6.11-.89-.23-.56-.6-1.49-.89-2.21a.911.911 0 0 0-1.23-.51z"/></g><g clip-path="url(#b)" fill="#FFC107"><path d="M92.2 119.78c-.04.02-.08.04-.12.04h-4.12c-.15 0-.21.19-.09.28.1.07.19.14.29.2.33.23.73.34 1.13.34h3.23c-.09-.3-.2-.59-.32-.86zM92 119.38c-.22-.42-.43-.74-.59-.96h-5.29c-.11 0-.17.14-.08.22.05.05.1.09.15.14.45.4 1.03.61 1.62.61H92zM92.65 121.1h-2.84c-.09 0-.12.12-.04.16 1.72.86 2.69.8 2.69.8h.33a5.84 5.84 0 0 0-.14-.96zM102.04 119.82h-4.12c-.05 0-.09-.02-.12-.04-.12.26-.23.56-.32.87h3.23c.4 0 .8-.12 1.13-.34.09-.06.19-.13.29-.2.12-.09.06-.29-.09-.29zM103.88 118.41h-5.29c-.16.22-.37.54-.59.96h4.18c.6 0 1.18-.21 1.62-.61.05-.05.1-.09.15-.14.09-.07.04-.21-.07-.21zM100.19 121.1h-2.84c-.07.31-.12.63-.15.96h.33s.97.06 2.69-.8c.09-.04.06-.16-.03-.16zM96.78 117.29c-.32.15-.7.24-1.04.29-.49.07-.99.07-1.48 0-.35-.05-.72-.14-1.04-.29-.2-.09-.44.01-.52.21l-.33.83c-.09.22-.07.36.01.47.3.4 1 1.5 1.05 2.83.01.15.08.28.22.35.27.13.75.38 1.11.68.15.12.36.12.51 0 .36-.3.83-.54 1.11-.68.13-.06.21-.2.22-.35.05-1.33.75-2.42 1.05-2.83.08-.11.1-.25.04-.37-.09-.23-.25-.62-.37-.92-.1-.21-.34-.31-.54-.22z"/></g></svg>