<svg viewBox="0 0 128 128" xmlns="http://www.w3.org/2000/svg" xmlns:xlink="http://www.w3.org/1999/xlink"><defs><path id="a" d="M4 4h120v120H4z"/></defs><clipPath id="b"><use xlink:href="#a"/></clipPath><g clip-path="url(#b)"><linearGradient id="c" x1="64" x2="64" y1="97.5" y2="130.5" gradientUnits="userSpaceOnUse"><stop stop-color="#eee" offset="0"/><stop stop-color="#EBEBEB" offset=".3"/><stop stop-color="#E0E0E0" offset=".7"/><stop stop-color="#CECECE" offset=".9"/><stop stop-color="#C9C9C9" offset="1"/></linearGradient><path d="M13.5 130.5V121c0-17.3 27.2-23.5 50.5-23.5h.1c13.4 0 25.9 2.1 35 6 7 3 15.4 8.5 15.4 17.5v9.5h-101z" fill="url(#c)"/><path d="M64.1 99c24.3 0 48.9 7.5 48.9 22v8H15v-8c0-7 4.9-12.5 14.5-16.4C38.3 101 50.5 99 64 99h.1m0-3H64c-25.6 0-52 7.1-52 25v11h104v-11c0-16.9-26.1-25-51.9-25z" fill="#CDCFD1"/></g><g clip-path="url(#b)"><path d="M63.2 119.6c-4 0-7.3-3.9-7.3-8.6V91h16.2v20c0 4.7-3.3 8.6-7.3 8.6h-1.6z" fill="#EDC391"/><path d="M71 92v19c0 4.2-2.7 7.6-6.2 7.6h-1.6c-3.5 0-6.3-3.4-6.3-7.6V92h14.2m2-2H54.9v21c0 5.3 3.7 9.6 8.3 9.6h1.6c4.6 0 8.3-4.3 8.3-9.6V90z" fill="#D9AC77"/></g><path d="M12.5 121.3v11h103v-11c0-16.9-25.7-25.7-51.6-25.6-25.6 0-51.4 7.7-51.4 25.6z" clip-path="url(#b)" fill="none"/><g clip-path="url(#b)"><defs><path id="d" d="M12 121v11h104v-11c0-16.9-26.2-25-52-25-25.6 0-52 7.1-52 25z"/></defs><clipPath id="e"><use xlink:href="#d"/></clipPath><path clip-path="url(#e)" fill="#81D4FA" d="M52.7 102l3.8 22H72l3.4-22z"/><g clip-path="url(#e)"><path d="M70.9 125.1l3.1-28c3.8.2 6 .5 6.9.7l2.8 6.4-5.3 4.4 3 6.3L75 125h-4.2z" fill="#EFF2F5"/><path d="M74.9 98l5.3.7 2.3 5.2-4.1 3.4-1.2 1 .6 1.4 2.5 5.1-5.8 9.3H72l2.9-26m-1.8-2.2l-3.3 30.2h5.8l7-11.1-3-6.2 5.3-4.3-3.3-7.6s-2.5-.5-8.5-1z" fill="#ccc"/><path d="M53 125.1l-6.4-10.2 3-6.3-5.3-4.4 2.8-6.4c1-.2 3.2-.5 6.9-.8l3 28.1h-4z" fill="#EFF2F5"/><path d="M53.1 98l2.9 26.1h-2.5l-5.7-9.3 2.4-5.1.6-1.4-1.2-1-4-3.4 2.2-5.2L53 98m1.8-2.1c-6 .4-8.5.9-8.5.9l-3.3 7.6 5.3 4.4-3 6 7 11.2h5.8L55 96z" fill="#ccc"/></g></g><path d="M86 97.4c-.5-3-3.2-8.9-10.4-8.9H53.2c-7.2 0-9.9 5.8-10.3 8.9h-.7a8.6 8.6 0 0 0-7.6 8.5v5h3v-5a5.6 5.6 0 0 1 11.1 0v5h3v-5c0-4-2.7-7.4-6.5-8.3l.6.2c0-.2 1-6.3 7.4-6.3h22.4c6.4 0 7.3 6 7.4 6.3l2.5 12.6 3-.5L86 97.4z" clip-path="url(#b)" fill="#03A9F4"/><circle cx="87" cy="112.5" r="7" clip-path="url(#b)" fill="#03A9F4"/><path d="M39.2 121.9c-1.2 0-2.3-.5-3-1.4-1.9-1.8-1.9-4.8-1.9-5.1v-5l.3-.2h3l.2.2v5c0 .6.2 2 .8 2.7.2.2.4.3.9.3 1 0 1.8 1 1.7 2-.1 1-1 1.6-2 1.5zm7.6.1c-1 0-1.9-1-1.7-2.1a2 2 0 0 1 1.8-1.4c.4 0 .7-.1.8-.3.6-.6.8-2.1.8-2.7v-5c0-.1 0-.2.2-.2h3c.2 0 .3 0 .3.2v5c0 .3 0 3.3-1.8 5.1-.9 1-2 1.4-3.4 1.4z" clip-path="url(#b)" fill="#1E88E5"/><circle cx="87" cy="112.5" r="4" clip-path="url(#b)" fill="#1E88E5"/><g clip-path="url(#b)"><path d="M36.7 72.3c-5.4 0-9.7-4.7-9.7-10.4s4.3-10.5 9.7-10.5h54.6c5.4 0 9.7 4.7 9.7 10.5s-4.3 10.4-9.7 10.4H36.7z" fill="#FFD29C"/><path d="M91.3 52.4c4.8 0 8.7 4.3 8.7 9.4s-3.9 9.5-8.7 9.5H36.7c-4.8 0-8.7-4.3-8.7-9.5s3.9-9.4 8.7-9.4h54.6m0-2H36.7c-6 0-10.7 5.2-10.7 11.4 0 6.3 4.8 11.5 10.7 11.5h54.6c6 0 10.7-5.2 10.7-11.5 0-6.2-4.8-11.4-10.7-11.4z" fill="#EDBD82"/><linearGradient id="f" x1="64" x2="64" y1="94.6" y2="12.8" gradientUnits="userSpaceOnUse"><stop stop-color="#FFD29C" offset="0"/><stop stop-color="#FFD39E" offset="0"/><stop stop-color="#FCD8AF" offset=".3"/><stop stop-color="#FADCBA" offset=".6"/><stop stop-color="#F9DDBD" offset="1"/></linearGradient><path d="M64 95.3c-15.7 0-32.5-12.2-32.5-38.8 0-12.4 3.5-23.8 10-32.2 6-7.8 14.3-12.2 22.5-12.2s16.4 4.4 22.5 12.2c6.5 8.4 10 19.8 10 32.2a42 42 0 0 1-10.1 29.2A30.5 30.5 0 0 1 64 95.3z" fill="url(#f)"/><path d="M64 13c8 0 15.8 4.4 21.7 12a51.5 51.5 0 0 1 9.8 31.5c0 11.8-3.4 21.7-9.8 28.5a29.6 29.6 0 0 1-43.3 0 40.5 40.5 0 0 1-10-28.5 51.3 51.3 0 0 1 10-31.5A28.1 28.1 0 0 1 64 13m0-2c-17.4 0-33.5 18.7-33.5 45.5C30.5 83 47 96.3 64 96.3S97.5 83 97.5 56.5C97.5 29.7 81.4 11 64 11z" fill="#EDBD82"/><radialGradient id="g" cx="47.6" cy="50.2" r="6" gradientUnits="userSpaceOnUse"><stop stop-color="#454140" offset=".1"/><stop stop-color="#454140" offset="1"/></radialGradient><path d="M40 50.7l.4-.5.2-.2.4-.4c.2 0 .2-.2.4-.4l.5-.3.5-.4.6-.3.7-.3c.3 0 .4-.2.7-.3l1.5-.3 1.6-.2a5 5 0 0 1 1.7.2l1.5.3a8.6 8.6 0 0 1 1.4.6l.6.3.5.4.5.3.4.4.3.3.3.3.4.5c.5.7.4 1.7-.3 2.2-.4.3-1 .4-1.4.2H53l-.5-.3h-.3l-.3-.2-.7-.2-.4-.2h-.4l-.2-.1H50l-.4-.2h-1l-1-.1h-1l-1 .1-.6.1h-.2l-.2.1-.4.1-.4.2h-.4l-.3.2h-.3l-.3.2-.5.3c-.9.3-1.8 0-2.1-.9-.3-.5-.2-1 0-1.5z" fill="url(#g)"/><ellipse cx="47.6" cy="58.8" rx="4.9" ry="5.1" fill="#312D2D"/><radialGradient id="h" cx="80.4" cy="50.2" r="6" gradientUnits="userSpaceOnUse"><stop stop-color="#454140" offset=".1"/><stop stop-color="#454140" offset="1"/></radialGradient><path d="M86 53.1l-.5-.2-.3-.2h-.3l-.3-.2h-.3l-.4-.2-.5-.1h-.2L83 52l-.5-.1-1-.1h-3l-.5.2h-.5l-.4.2-.4.1c-.3 0-.5.2-.7.3h-.3l-.3.2-.4.2h-.3c-.8.4-1.7 0-2-.9-.2-.5-.1-1 .2-1.4l.4-.6.3-.3.3-.3.4-.3.5-.4.5-.3.6-.4c.3 0 .5-.2.7-.3l.7-.2 1.6-.4 1.6-.1 1.6.1c.5 0 1 .2 1.6.4a8.6 8.6 0 0 1 1.3.5l.6.4.6.3.4.4.5.3c.2.1.2.3.3.4l.3.3.3.5c.5.7.3 1.7-.4 2.2-.5.3-1 .3-1.6.1z" fill="url(#h)"/><ellipse cx="80.4" cy="58.8" rx="4.9" ry="5.1" fill="#312D2D"/><path d="M67.9 68h-7.7c-.7.3-1 1-.7 1.7s1.7 2.7 4.5 2.7 4.3-2 4.6-2.7c.3-.7-.1-1.4-.7-1.6z" fill="#DBA689"/><path d="M72.4 76.1a25.6 25.6 0 0 1-16.8 0c-1.8-1-3.7.6-3 2.3.8 1.6 6.5 5.4 11.4 5.4s10.6-3.8 11.3-5.4c.8-1.7-1-3.4-2.9-2.3z" fill="#424242"/><radialGradient id="i" cx="64.3" cy="4.3" r="48.9" gradientUnits="userSpaceOnUse"><stop stop-color="#454140" offset="0"/><stop stop-color="#312D2D" offset="1"/></radialGradient><path d="M64 4c-45.5.3-36.2 52.2-36.2 52.2L33 65a90 90 0 0 1 4.8-25.6 6 6 0 0 1 6.8-3.8c4.5.8 11.6 1.8 19.4 1.8h.1c8 0 15-1 19.4-1.8a6 6 0 0 1 6.8 3.8A90 90 0 0 1 95 65l5.1-8.8s9.3-52-36-52.2z" fill="url(#i)"/><path d="M64 4c-45.5.3-36.2 52.2-36.2 52.2L33 65l.3-5-2.5-4.8c-.2-1.6-.9-7-.5-13.6.4-7 2.1-17 8.2-24.2C44.1 10.6 52.7 7 64 7s20 3.6 25.6 10.4c10.8 13 8.2 34.3 7.7 37.8l-2.5 4.6c.2 2 .3 3.7.2 5.2l5.1-8.8s9.3-52-36-52.2z" fill="#1F1A1A"/></g></svg>