<svg viewBox="0 0 128 128" xmlns="http://www.w3.org/2000/svg" xmlns:xlink="http://www.w3.org/1999/xlink"><defs><path id="a" d="M4 4h120v120H4z"/></defs><clipPath id="b"><use xlink:href="#a"/></clipPath><g clip-path="url(#b)"><radialGradient id="c" cx="-52.3" cy="-142.1" r="39.1" gradientTransform="matrix(.826 0 0 .8265 107.2 112.5)" gradientUnits="userSpaceOnUse"><stop stop-color="#6D4C41" offset="0"/><stop stop-color="#543930" offset="1"/></radialGradient><path d="M64.2 4c-27 0-26.7 25-26.7 25.4 0 16.1 1.2 39 7.7 47.9 2.5 3.6 7.5 3.8 7.5 3.8H75s5-.2 7.5-3.8c6.4-9 7.7-31.8 7.7-48 0-.3 1-25.3-26-25.3z" fill="url(#c)"/></g><g clip-path="url(#b)"><linearGradient id="d" x1="90.9" x2="90.9" y1="97.1" y2="127" gradientUnits="userSpaceOnUse"><stop stop-color="#FFB300" offset="0"/><stop stop-color="#FFCA28" offset=".4"/></linearGradient><path fill="url(#d)" d="M86.9 97.2h8v29.9h-8z"/><path d="M93.8 98.2V126h-6V98.1h6m2-2h-10V128h10V96.1z" fill="#EDA600"/></g><g clip-path="url(#b)"><path d="M33.5 127V88.4c0-9.3 7.4-16.6 19.7-19.5a53 53 0 0 1 21-.8c9.8 1.7 20.3 8 20.3 20.3v38.7h-61z" fill="#651FFF"/><path d="M65.6 68.8c2.8 0 5.6.3 8.4.8 5.6 1 10.3 3.1 13.6 6.2 3.6 3.4 5.4 7.6 5.4 12.6v37.1H35V88.4c0-12.7 14.2-17 18.6-18 4.1-1 8-1.6 12-1.6m0-3c-4.4 0-8.6.6-12.7 1.6C41.6 70.1 32 77 32 88.4v40.1h64V88.4c0-12.3-9.6-19.7-21.5-21.8-3-.5-6-.8-8.9-.8z" fill="#540EED"/><linearGradient id="e" x1="91" x2="91" y1="97.8" y2="127.8" gradientUnits="userSpaceOnUse"><stop stop-color="#FFB300" offset="0"/><stop stop-color="#FFCA28" offset=".4"/></linearGradient><path fill="url(#e)" d="M87 97.8h8v30h-8z"/><path d="M94 98.8v28h-6v-28h6m2-2H86v32h10v-32z" fill="#EDA600"/><linearGradient id="f" x1="37" x2="37" y1="97.8" y2="127.8" gradientUnits="userSpaceOnUse"><stop stop-color="#FFB300" offset="0"/><stop stop-color="#FFCA28" offset=".4"/></linearGradient><path fill="url(#f)" d="M33 97.8h8v30h-8z"/><path d="M40 98.8v28h-6v-28h6m2-2H32v32h10v-32z" fill="#EDA600"/></g><g clip-path="url(#b)"><linearGradient id="g" x1="37.1" x2="37.1" y1="97.1" y2="127" gradientUnits="userSpaceOnUse"><stop stop-color="#FFB300" offset="0"/><stop stop-color="#FFCA28" offset=".4"/></linearGradient><path fill="url(#g)" d="M33.2 97.2h8v29.9h-8z"/><path d="M40.1 98.2V126h-6V98.1h6m2-2h-10V128h10V96.1z" fill="#EDA600"/></g><g clip-path="url(#b)"><path d="M63.5 71.4c-2.5 0-4.5-2-4.5-4.3v-5.6h10v5.6c0 2.4-2 4.3-4.5 4.3h-1z" fill="#E59600"/><path d="M68 62.5v4.6c0 1.8-1.6 3.3-3.5 3.3h-1a3.4 3.4 0 0 1-3.5-3.3v-4.6h8m2-2H58v6.6c0 3 2.5 5.3 5.5 5.3h1c3 0 5.5-2.4 5.5-5.3v-6.6z" fill="#D18100"/></g><g clip-path="url(#b)"><linearGradient id="h" x1="63.8" x2="63.8" y1="63.3" y2="13.4" gradientUnits="userSpaceOnUse"><stop stop-color="#FFB300" offset="0"/><stop stop-color="#FFB809" offset=".1"/><stop stop-color="#FFC21A" offset=".4"/><stop stop-color="#FFC825" offset=".7"/><stop stop-color="#FFCA28" offset="1"/></linearGradient><path d="M63.8 63.6a15 15 0 0 1-4.8-.9 25 25 0 0 1-16-24.6C43 19.5 54.4 13 63.9 13s20.7 6.5 20.7 25c0 14-8.6 22-16 24.6-1.6.6-3.3 1-4.8 1z" fill="url(#h)"/><path d="M63.8 13.9c9.2 0 19.8 6.3 19.8 24.2a24 24 0 0 1-15.3 23.7c-1.6.5-3.1.8-4.5.8-1.3 0-2.9-.3-4.5-.9a24.1 24.1 0 0 1-15.2-23.6C44 20.2 54.7 14 63.8 14m0-2c-11.3 0-21.7 8.4-21.7 26.2 0 14.3 8.8 22.8 16.5 25.5a14.5 14.5 0 0 0 10.4 0 26.2 26.2 0 0 0 16.6-25.5C85.6 20.3 75.1 12 63.8 12z" fill="#ED9E00"/></g><g clip-path="url(#b)"><radialGradient id="i" cx="-64.7" cy="-134.8" r="31.7" gradientTransform="matrix(.796 0 0 .7966 115.5 108.4)" gradientUnits="userSpaceOnUse"><stop stop-color="#6D4C41" offset="0"/><stop stop-color="#543930" offset="1"/></radialGradient><path d="M88.9 29.3S89.6 6 64 6 39.1 29.3 39.1 29.3s.2 30 2.1 33.8S46 67 46 67s-1.3-17.5-1.5-25.7c0-2-.6-9 3.4-10a52 52 0 0 0 23-11c2.2 4.7 9 9.3 11.4 11 2 1.5 1.7 7.4 1.7 10l-2 25.6s3 .3 5-3.7 2-33.8 2-33.8z" fill="url(#i)"/></g><g clip-path="url(#b)"><path d="M66.5 46h-5c-.4.2-.7.6-.5 1s1.1 1.8 3 1.8 2.8-1.2 3-1.7c.1-.5 0-.9-.5-1z" fill="#E59600"/><ellipse cx="53.3" cy="40" rx="3.2" ry="3.3" fill="#404040"/><ellipse cx="74.7" cy="40" rx="3.2" ry="3.3" fill="#404040"/><path d="M58 34c-.5-.8-2-2-4.7-2s-4.1 1.2-4.7 2c-.3.4-.2.8 0 1 .1.3.6.5 1.2.3s1.7-.7 3.5-.8c1.9 0 3 .6 3.6.8.5.2 1 0 1.2-.2.2-.3.3-.7 0-1zm21.4 0c-.6-.8-2-2-4.7-2s-4.2 1.2-4.8 2c-.2.4-.2.8 0 1 .2.3.7.5 1.3.3.5-.2 1.6-.7 3.5-.8 1.8 0 3 .6 3.5.8.6.2 1 0 1.3-.2.1-.3.2-.7 0-1z" fill="#6D4C41"/><path d="M69.3 51.4c-2 1.2-8.8 1.2-11 0-1.1-.7-2.3.4-1.8 1.4.5 1.1 4.2 3.6 7.4 3.6s6.8-2.5 7.3-3.6c.5-1-.7-2.1-1.9-1.4z" fill="#795548"/></g><path d="M45 70.2a152 152 0 0 1-4.4-40.9c0-.4 0-9.8 6.5-16.2 4-4 9.8-6.1 17.3-6.1 7.3 0 13 2 17 6 6 6.1 6 15.2 6 16.2v.1a136 136 0 0 1-4.5 40.6c1 .4 1.8 1 2.7 1.4a144 144 0 0 0 4.7-42c0-.4 1-25.3-26-25.3-26.9 0-26.6 25-26.6 25.3 0 13 1 31.4 4.7 42.3l2.6-1.4z" clip-path="url(#b)" fill="#3F2720"/><path clip-path="url(#b)" fill="none" d="M0 0h128v128H0z"/><g clip-path="url(#b)" opacity=".4"><radialGradient id="j" cx="63.3" cy="128.7" r="62.4" gradientUnits="userSpaceOnUse"><stop stop-color="#212121" offset="0"/><stop stop-color="#616161" stop-opacity="0" offset=".5"/></radialGradient><path d="M32 128.5h64v-40c0-12.3-9.6-19.7-21.5-21.8a52.7 52.7 0 0 0-21.6 1C41.6 70.3 32 77 32 88.4v40.1z" fill="url(#j)"/></g><g clip-path="url(#b)"><path d="M18 138.1V122c0-9.4 12.7-12.3 16.2-12.3h9.6c3.5 0 16 3 16 12.3v.3l.1.8c.2 10 .1 13.7 0 15.1H18z" fill="#E1BEE7"/><path d="M43.8 110.6c3.3 0 15.1 2.7 15.1 11.3v1.1c.2 8.3.2 12.2.1 14.1H19V122c0-8.6 11.8-11.3 15.2-11.3h9.5m0-2h-9.5C29.7 108.7 17 112 17 122c0 0-.3 17.2 0 17.2h43.8c.3 0 0-16.5 0-16.9v-.3c0-10-12.7-13.3-17.1-13.3z" fill="#CCA1D4"/><path d="M38.5 115.8c-2 0-3.8-1.7-3.8-3.8v-1.9h8.5v2c0 2-1.7 3.7-3.7 3.7h-1z" fill="#E59600"/><path d="M42.8 110.6v1.4c0 1.8-1.5 3.3-3.3 3.3h-1a3.3 3.3 0 0 1-3.3-3.3v-1.4h7.6m1-1h-9.6v2.4c0 2.4 2 4.3 4.3 4.3h1c2.3 0 4.3-2 4.3-4.3v-2.4z" fill="#D18100"/><defs><path id="k" d="M15.4 64.2h46.9v46.9H15.4z"/></defs><clipPath id="l"><use xlink:href="#k"/></clipPath><g clip-path="url(#l)"><radialGradient id="m" cx="20.8" cy="99.4" r="11.3" gradientUnits="userSpaceOnUse"><stop stop-color="#6D4C41" offset="0"/><stop stop-color="#543930" offset=".9"/></radialGradient><path d="M20.4 111l.6-2.8-5.4 1.3s-.4-5.2 4.3-8.2c5-3.3 11 .2 11 .2s-.7 4-4.1 7.3c-2.4 2.3-6.4 2.3-6.4 2.3z" fill="url(#m)"/></g><g clip-path="url(#l)"><path d="M24.8 101.9c1.4 0 2.7.4 3.6.7-.4 1.2-1.3 3.1-3 4.8a6 6 0 0 1-2.5 1.3v-.1l.7-3.2-3 .8-2.6.6a7 7 0 0 1 6.8-5m0-2a10 10 0 0 0-5 1.5c-4.6 3-4.2 8.2-4.2 8.2l5.4-1.4-.6 3s4 0 6.3-2.3c3.5-3.4 4.1-7.3 4.1-7.3s-2.7-1.6-6-1.6z" fill="#402720"/></g><g clip-path="url(#l)"><radialGradient id="n" cx="56.4" cy="99.6" r="11.3" gradientUnits="userSpaceOnUse"><stop stop-color="#6D4C41" offset="0"/><stop stop-color="#543930" offset=".9"/></radialGradient><path d="M57.5 111l-.6-2.8 5.4 1.3s.3-5.2-4.3-8.2c-5-3.3-11 .2-11 .2s.6 4 4.1 7.3c2.4 2.3 6.4 2.3 6.4 2.3z" fill="url(#n)"/></g><g clip-path="url(#l)"><path d="M53.1 101.9a8 8 0 0 1 3.8 1 7.1 7.1 0 0 1 3 4l-2.5-.7-3.1-.7.6 3v.2a8 8 0 0 1-2.4-1.3 12.8 12.8 0 0 1-3-4.8c.9-.3 2.2-.7 3.6-.7m0-2c-3.3 0-6 1.6-6 1.6s.5 4 4 7.3c2.3 2.3 6.3 2.3 6.4 2.3l-.6-3 5.4 1.4s.3-5.2-4.3-8.2a8.8 8.8 0 0 0-4.9-1.4z" fill="#402720"/></g><g clip-path="url(#l)"><path d="M24.3 99.8c-3 0-5.3-2.2-5.3-5s2.4-5 5.3-5h29.4c2.8 0 5 2.1 5 5s-2.2 5-5 5H24.4z" fill="#E59600"/><path d="M53.8 90.2c2.5 0 4.3 2 4.3 4.6s-1.9 4.5-4.4 4.5H24.4c-2.7 0-4.8-2-4.8-4.5 0-2.6 2.1-4.6 4.8-4.6h29.4m0-1H24.4c-3.2 0-5.8 2.5-5.8 5.6s2.6 5.5 5.8 5.5h29.4c3.2 0 5.4-2.5 5.4-5.5s-2.2-5.6-5.4-5.6z" fill="#CC8600"/></g><g clip-path="url(#l)"><linearGradient id="o" x1="38.8" x2="38.8" y1="110.6" y2="78.9" gradientUnits="userSpaceOnUse"><stop stop-color="#FFB300" offset="0"/><stop stop-color="#FFB809" offset=".1"/><stop stop-color="#FFC21A" offset=".4"/><stop stop-color="#FFC825" offset=".7"/><stop stop-color="#FFCA28" offset="1"/></linearGradient><path d="M38.8 110.6c-7.1 0-17-6.3-17-20.4 0-13.2 7.4-23.4 17-23.4s17 10.3 17 23.4c0 14-10 20.4-17 20.4z" fill="url(#o)"/><path d="M38.8 67.3c8.1 0 16.6 8.5 16.6 22.9 0 13.7-9.7 20-16.6 20s-16.6-6.3-16.6-20c0-14.4 8.4-23 16.6-23m0-1c-9.3 0-17.6 9.9-17.6 24 0 14 9.9 21 17.6 21s17.6-7 17.6-21c0-14.1-8.3-24-17.6-24z" fill="#EDA600"/></g><path d="M53.8 42.2c1.6-2.5.8-5.6.8-5.6s-1.2 2.8-4.7 2.2h-.7c-2.6-1.3-6-2.2-10.3-2.2-19 0-20.5 16.2-19.8 23.3.3 2.4.6 3 .6 3l3.4 2.9-.3-1.8-1.7-1.5-.3-2.4L39 49.8l18 12.8-2.2 1.5-.2 1.8L58 63l.2-3.2c.4-8.1-.2-12.6-4.5-17.7z" clip-path="url(#l)" fill="none"/><path d="M40.8 96.7h-4c-.3.1-.5.5-.3.9.1.3.8 1.3 2.3 1.3s2.2-1 2.3-1.3c.2-.4 0-.7-.3-.9z" clip-path="url(#l)" fill="#E59600"/><g clip-path="url(#l)" fill="#6D4C41"><path d="M26.6 89.4l.2-.3.3-.2.2-.2.2-.2.3-.2.3-.2.4-.1.3-.2.8-.1a5.7 5.7 0 0 1 1.7 0l.8.1.3.2.4.1.3.2.3.2.2.2.2.1.2.2.1.1.3.4c.2.3.1.8-.2 1-.2.2-.5.3-.8.2h-.1l-.3-.2h-.2l-.4-.2h-.2l-.2-.1h-.2l-.3-.1-.5-.1h-1.6l-.2.1H29l-.3.1h-.2l-.1.2H28.1l-.2.1-.3.2c-.4.1-.9 0-1-.5a.8.8 0 0 1 0-.8zM50 90.6l-.3-.1h-.1l-.1-.1h-.2l-.2-.1H49l-.2-.1h-.1l-.1-.1h-.3l-.5-.1h-1.5l-.3.1h-.2l-.2.1c0 .1-.2 0-.2 0a3 3 0 0 0-.4.2h-.1l-.2.1-.2.1h-.2a.8.8 0 0 1-.9-1.2l.3-.3V89l.3-.2.2-.1.2-.2.3-.2.3-.2.3-.1.4-.2.8-.2H48l.8.2.4.2.3.1.3.2.3.2.3.1.2.2.2.2v.1l.3.3c.2.4.1.9-.2 1.1a1 1 0 0 1-.9.1z"/></g><g clip-path="url(#l)" fill="#404040"><ellipse cx="30.3" cy="94.1" rx="2.5" ry="2.6"/><ellipse cx="47.4" cy="94.1" rx="2.5" ry="2.6"/></g><path d="M43.1 101c-1.6 1-7 1-8.6 0-1-.5-2 .3-1.5 1.2.3.8 3.3 2.8 5.8 2.8s5.4-2 5.8-2.8c.4-.8-.5-1.7-1.5-1.1z" clip-path="url(#l)" fill="#795548"/><g clip-path="url(#l)"><radialGradient id="p" cx="48.4" cy="33.6" r="24" gradientTransform="translate(-12 -1.4) scale(1.0432)" gradientUnits="userSpaceOnUse"><stop stop-color="#6D4C41" offset="0"/><stop stop-color="#543930" offset=".9"/></radialGradient><path d="M54.4 37.2a14.4 14.4 0 0 0-4.7-3.5A25.3 25.3 0 0 0 39 31.5c-20 0-21.3 16.3-20.5 23.4.7 6.3 4 7.8 4 7.8s-.6-5.5.4-9.4c.8-3.2 2.8-5.5 2.8-5.5s3.6 3 10.3 5.1c3.2 1 7.3.5 7.3.5L41 49.3s3.8 2.8 6.1 3.3c3 .7 5.3.4 5.3.4l-1.1-4.3s1.9 1.2 3.3 4.7.6 9.3.6 9.3 3.4-1.5 4-7.8c.7-7.9-.3-12.6-4.8-17.7z" fill="url(#p)"/><defs><path id="q" d="M54.4 37.2a12.3 12.3 0 0 0-4.7-3.5A25.3 25.3 0 0 0 39 31.5c-20 0-21.3 16.3-20.5 23.4.7 6.3 4 7.8 4 7.8v-1.5s-1.2-1.3-1.6-2.1 0-12 0-12l18-4.8 17.9 4.8s.7 11.2 0 12.1-1.5 1.3-1.5 1.3l-.1 2.2s3.4-1.5 4-7.8c.7-7.9-.3-12.6-4.8-17.7z"/></defs><clipPath id="r"><use xlink:href="#q"/></clipPath><g clip-path="url(#r)"><path d="M39 34.5c3.5 0 6.7.6 9.4 1.9l.5.2c.6.3 2.1 1.2 3.3 2.5 2.9 3.3 4 6.3 4.2 11a11.9 11.9 0 0 0-3.5-4L46.4 42l2 7.5v.4l-.6-.1c-1.2-.3-3.7-1.8-5-2.8l-11.3-8.3L38 50.3a27.7 27.7 0 0 1-10.5-4.8l-2.3-2-2 2.3c0 .2-1 1.2-1.8 2.8.4-3 1.4-6.4 3.9-9.2 3-3.2 7.5-5 13.6-5m0-3c-20 0-21.3 16.4-20.5 23.5.7 6.3 4 7.8 4 7.8s-.6-5.5.4-9.4c.8-3.2 2.8-5.5 2.8-5.5s3.6 3 10.3 5.1c1.6.5 3.4.6 4.8.6l2.5-.1-2.3-4.1s3.8 2.8 6.1 3.3c1.7.4 3 .5 4 .5h1.3l-1.1-4.4s1.9 1.2 3.3 4.7.6 9.3.6 9.3 3.4-1.5 4-7.8c.7-7.9-.3-12.6-4.8-17.8-2-2.2-4.5-3.4-4.7-3.4A25.5 25.5 0 0 0 39 31.5z" fill="#402720"/></g></g><path clip-path="url(#l)" fill="none" d="M47 85H25"/><g clip-path="url(#l)"><radialGradient id="s" cx="48.4" cy="66.3" r="24" gradientTransform="translate(-12 -2.9) scale(1.0432)" gradientUnits="userSpaceOnUse"><stop stop-color="#6D4C41" offset="0"/><stop stop-color="#543930" offset="1"/></radialGradient><path d="M54.4 70a14.4 14.4 0 0 0-4.7-3.6A25.3 25.3 0 0 0 39 64.2c-20 0-21.3 16.3-20.5 23.4.7 6.3 4.4 7.9 4.4 7.9l-.6-6.1s7.3-2 11-4.9 5.5-5.4 5.5-5.4 1.3 2 5.4 5.4 11 4.9 11 4.9l-.4 6s3.8-1.5 4.4-7.8c.7-7.8-.3-12.6-4.8-17.7z" fill="url(#s)"/><defs><path id="t" d="M54.4 70a12.3 12.3 0 0 0-4.7-3.5A25.3 25.3 0 0 0 39 64.3c-20 0-21.3 16.3-20.5 23.4.7 6.3 4.4 7.9 4.4 7.9v-1.4l-2-5a12 12 0 0 1 0-6.4l.7-2.9 17.2-10.3L56 79.9l.8 3.2a12 12 0 0 1-.1 7l-1.8 3.7-.1 1.8s3.8-1.6 4.4-7.9c.7-7.9-.3-12.6-4.8-17.7z"/></defs><clipPath id="u"><use xlink:href="#t"/></clipPath><g clip-path="url(#u)"><path d="M39 66.3c3.6 0 7 .7 9.8 2l.3.1c.6.3 2.4 1.3 3.8 3 4 4.4 5 8.3 4.3 16.1l-.2 1.2a11 11 0 0 0-.5-3.2 12.6 12.6 0 0 0-4.1-5.7L48 77l1.3 5 .5 1.9-2.2-.4c-1.4-.3-4-2-5.4-3L34.7 75l4.6 8.1.6 1.2c-1.3 0-2.4-.2-3.4-.5a28.4 28.4 0 0 1-9.5-4.7l-1.5-1.4-1.3 1.6a15.8 15.8 0 0 0-3.6 8.6v-.4c-.3-2.3-.8-10.4 4-15.9 3.2-3.5 8-5.3 14.4-5.3m0-2c-20 0-21.3 16.3-20.5 23.4.7 6.3 4.4 7.9 4.4 7.9s-1-5.5 0-9.5c.8-3.2 2.8-5.5 2.8-5.5s3.6 3.1 10.3 5.1c1.6.5 3.4.6 4.8.6h2.5L41 82s3.8 2.8 6.1 3.3c1.7.4 3 .5 4 .5h1.3l-1.1-4.4s1.9 1.3 3.3 4.7c.8 1.8.3 7.6.3 7.6l-.1 1.8s3.8-1.6 4.4-7.9c.7-7.9-.3-12.6-4.8-17.7-2-2.2-4.5-3.5-4.7-3.5A25.4 25.4 0 0 0 39 64.3z" fill="#402720"/></g></g></g><g clip-path="url(#b)"><path d="M67.6 138.1l.1-16.2c0-9.4 12.6-12.3 16.2-12.3h9.5c3.5 0 16.1 3 16.1 12.3v1.1c.2 10 .2 13.7.1 15.1h-42z" fill="#E1BEE7"/><path d="M93.4 110.6c3.3 0 15.1 2.7 15.1 11.3v1.1l.2 14.1H68.6l.1-15.2c0-8.6 11.8-11.3 15.2-11.3h9.5m0-2h-9.5c-4.4 0-17.2 3.3-17.2 13.3 0 0-.3 17.2 0 17.2h43.8c.4 0 0-16.5 0-16.9v-.3c0-10-12.7-13.3-17.1-13.3z" fill="#CCA1D4"/><path d="M88.1 115.8c-2 0-3.7-1.7-3.7-3.8v-1.9h8.5v2c0 2-1.7 3.7-3.8 3.7h-1z" fill="#E59600"/><path d="M92.4 110.6v1.4c0 1.8-1.5 3.3-3.3 3.3h-1A3.3 3.3 0 0 1 85 112v-1.4h7.5m1-1H84v2.4c0 2.4 1.9 4.3 4.2 4.3h1c2.4 0 4.3-2 4.3-4.3v-2.4z" fill="#D18100"/><defs><path id="v" d="M65 64.2h46.9v46.9H65z"/></defs><clipPath id="w"><use xlink:href="#v"/></clipPath><g clip-path="url(#w)"><radialGradient id="x" cx="70.5" cy="99.4" r="11.3" gradientUnits="userSpaceOnUse"><stop stop-color="#6D4C41" offset="0"/><stop stop-color="#543930" offset=".9"/></radialGradient><path d="M70 111l.6-2.8-5.3 1.3s-.4-5.2 4.2-8.2c5.1-3.3 11 .2 11 .2s-.6 4-4.1 7.3c-2.4 2.3-6.4 2.3-6.4 2.3z" fill="url(#x)"/></g><g clip-path="url(#w)"><path d="M74.4 101.9c1.4 0 2.7.4 3.7.7-.5 1.2-1.4 3.1-3.1 4.8a6 6 0 0 1-2.4 1.3v-.1l.6-3.2-3 .8-2.6.6a7 7 0 0 1 6.8-5m0-2c-1.6 0-3.3.5-4.9 1.5-4.6 3-4.3 8.2-4.3 8.2l5.4-1.4-.6 3s4 0 6.4-2.3c3.4-3.4 4-7.3 4-7.3s-2.7-1.6-6-1.6z" fill="#402720"/></g><g clip-path="url(#w)"><radialGradient id="y" cx="106" cy="99.6" r="11.3" gradientUnits="userSpaceOnUse"><stop stop-color="#6D4C41" offset="0"/><stop stop-color="#543930" offset=".9"/></radialGradient><path d="M107.1 111l-.6-2.8 5.4 1.3s.4-5.2-4.3-8.2c-5-3.3-11 .2-11 .2s.7 4 4.2 7.3c2.3 2.3 6.3 2.3 6.3 2.3z" fill="url(#y)"/></g><g clip-path="url(#w)"><path d="M102.7 101.9a8 8 0 0 1 3.8 1 7.1 7.1 0 0 1 3 4l-2.5-.7-3.1-.7.6 3v.2a8 8 0 0 1-2.4-1.3 12.8 12.8 0 0 1-3-4.8c.9-.3 2.2-.7 3.6-.7m0-2c-3.3 0-6 1.6-6 1.6s.6 4 4 7.3c2.4 2.3 6.3 2.3 6.4 2.3l-.6-3 5.4 1.4s.4-5.2-4.3-8.2a8.7 8.7 0 0 0-4.9-1.4z" fill="#402720"/></g><g clip-path="url(#w)"><path d="M73.9 99.8c-3 0-5.3-2.2-5.3-5s2.4-5 5.3-5h29.5c2.8 0 4.9 2.1 4.9 5s-2.1 5-5 5H74z" fill="#E59600"/><path d="M103.4 90.2c2.5 0 4.4 2 4.4 4.6s-2 4.5-4.4 4.5H73.9c-2.7 0-4.8-2-4.8-4.5 0-2.6 2.2-4.6 4.8-4.6h29.5m0-1H73.9c-3.2 0-5.8 2.5-5.8 5.6s2.6 5.5 5.8 5.5h29.5c3.1 0 5.4-2.5 5.4-5.5s-2.2-5.6-5.4-5.6z" fill="#CC8600"/></g><g clip-path="url(#w)"><linearGradient id="z" x1="88.4" x2="88.4" y1="110.6" y2="78.9" gradientUnits="userSpaceOnUse"><stop stop-color="#FFB300" offset="0"/><stop stop-color="#FFB809" offset=".1"/><stop stop-color="#FFC21A" offset=".4"/><stop stop-color="#FFC825" offset=".7"/><stop stop-color="#FFCA28" offset="1"/></linearGradient><path d="M88.4 110.6c-7 0-17-6.3-17-20.4 0-13.2 7.4-23.4 17-23.4s17 10.3 17 23.4c0 14-9.9 20.4-17 20.4z" fill="url(#z)"/><path d="M88.4 67.3c8.2 0 16.6 8.5 16.6 22.9 0 13.7-9.7 20-16.6 20S72 103.8 72 90.1c0-14.4 8.4-23 16.5-23m0-1c-9.3 0-17.5 9.9-17.5 24 0 14 9.8 21 17.5 21s17.6-7 17.6-21c0-14.1-8.2-24-17.6-24z" fill="#EDA600"/></g><path d="M103.4 42.2c1.6-2.5.8-5.6.8-5.6s-1.2 2.8-4.7 2.2h-.7a22.4 22.4 0 0 0-10.2-2.2c-19 0-20.6 16.2-19.8 23.3.2 2.4.5 3 .5 3l3.4 2.9-.3-1.8-1.7-1.5-.3-2.4 18.2-10.3 18 12.8-2.2 1.5-.2 1.8 3.5-2.8.3-3.2c.3-8.1-.3-12.6-4.6-17.7z" clip-path="url(#w)" fill="none"/><path d="M90.4 96.7h-3.9c-.4.1-.6.5-.4.9.2.3.9 1.3 2.3 1.3s2.2-1 2.4-1.3c.1-.4 0-.7-.4-.9z" clip-path="url(#w)" fill="#E59600"/><g clip-path="url(#w)" fill="#6D4C41"><path d="M76.2 89.4l.2-.3h.1l.2-.2.2-.2.3-.2.2-.2.3-.2.4-.1.4-.2.7-.1a5.7 5.7 0 0 1 1.7 0l.8.1.4.2.3.1.3.2.3.2s.2 0 .2.2l.2.1.2.2.1.1.3.4c.2.3.2.8-.2 1-.2.2-.5.3-.7.2h-.2l-.2-.2h-.3l-.4-.2h-.2l-.2-.1h-.2L81 90l-.5-.1H79l-.2.1h-.2l-.2.1h-.2l-.2.2H77.7l-.2.1-.3.2c-.4.1-.9 0-1-.5a.8.8 0 0 1 0-.8zm23.5 1.2l-.3-.1h-.2l-.1-.1h-.2l-.2-.1h-.2l-.2-.1-.2-.1h-.2l-.6-.1h-1.5l-.3.1h-.2l-.2.1c-.1.1-.2 0-.2 0a3 3 0 0 0-.4.2h-.1l-.2.1-.2.1h-.1a.8.8 0 0 1-1-1.2l.3-.3.1-.1.2-.2.2-.1c0-.2.1-.2.2-.2l.3-.2.3-.2.3-.1.4-.2.8-.2a5.7 5.7 0 0 1 1.7 0l.7.2.4.2.3.1.4.2.2.2.3.1.2.2.2.2.1.1.2.3c.3.4.2.9-.2 1.1-.3.2-.6.2-.8.1z"/></g><g clip-path="url(#w)" fill="#404040"><ellipse cx="79.9" cy="94.1" rx="2.5" ry="2.6"/><ellipse cx="97" cy="94.1" rx="2.5" ry="2.6"/></g><path d="M92.7 101c-1.6 1-7 1-8.6 0-1-.5-1.9.3-1.5 1.2.4.8 3.3 2.8 5.8 2.8s5.4-2 5.8-2.8c.4-.8-.5-1.7-1.5-1.1z" clip-path="url(#w)" fill="#795548"/><g clip-path="url(#w)"><radialGradient id="A" cx="96" cy="33.6" r="24" gradientTransform="translate(-12 -1.4) scale(1.0432)" gradientUnits="userSpaceOnUse"><stop stop-color="#6D4C41" offset="0"/><stop stop-color="#543930" offset=".9"/></radialGradient><path d="M104 37.2a14.4 14.4 0 0 0-4.7-3.5 25.3 25.3 0 0 0-10.7-2.2c-19.9 0-21.3 16.3-20.5 23.4.7 6.3 4 7.8 4 7.8s-.6-5.5.4-9.4c.8-3.2 2.8-5.5 2.8-5.5s3.6 3 10.3 5.1c3.2 1 7.3.5 7.3.5l-2.3-4.1s3.8 2.8 6.2 3.3c3 .7 5.2.4 5.2.4l-1.1-4.3s2 1.2 3.3 4.7.6 9.3.6 9.3 3.5-1.5 4-7.8c.7-7.9-.3-12.6-4.7-17.7z" fill="url(#A)"/><defs><path id="B" d="M104 37.2a12.3 12.3 0 0 0-4.7-3.5 25.3 25.3 0 0 0-10.7-2.2c-19.9 0-21.3 16.3-20.5 23.4.7 6.3 4 7.8 4 7.8v-1.5S71 60 70.5 59.1s0-12 0-12l18-4.8 17.9 4.8s.7 11.2 0 12.1-1.4 1.3-1.4 1.3l-.2 2.2s3.5-1.5 4-7.8c.7-7.9-.3-12.6-4.7-17.7z"/></defs><clipPath id="C"><use xlink:href="#B"/></clipPath><g clip-path="url(#C)"><path d="M88.6 34.5c3.5 0 6.7.6 9.5 1.9l.4.2c.6.3 2.1 1.2 3.3 2.5 2.9 3.3 4.1 6.3 4.2 11a11.9 11.9 0 0 0-3.5-4L96 42l2 7.5v.4l-.6-.1c-1.2-.3-3.7-1.8-5-2.8L81 38.6l6.6 11.7a27.7 27.7 0 0 1-10.5-4.8l-2.2-2-2 2.3c-.1.2-1 1.2-1.8 2.8.3-3 1.4-6.4 3.8-9.2 3-3.2 7.5-5 13.6-5m0-3C68.7 31.5 67.3 47.9 68 55c.7 6.3 4 7.8 4 7.8s-.6-5.5.4-9.4c.9-3.2 2.8-5.5 2.8-5.5s3.6 3 10.3 5.1c1.6.5 3.4.6 4.9.6l2.4-.1-2.3-4.1s3.8 2.8 6.2 3.3c1.6.4 3 .5 4 .5h1.2l-1.1-4.4s2 1.2 3.4 4.7.5 9.3.5 9.3 3.5-1.5 4-7.8c.7-7.9-.2-12.6-4.7-17.8-2-2.2-4.6-3.4-4.8-3.4a25.5 25.5 0 0 0-10.7-2.2z" fill="#402720"/></g></g><path clip-path="url(#w)" fill="none" d="M97 85H75"/><g clip-path="url(#w)"><radialGradient id="D" cx="96" cy="66.3" r="24" gradientTransform="translate(-12 -2.9) scale(1.0432)" gradientUnits="userSpaceOnUse"><stop stop-color="#6D4C41" offset="0"/><stop stop-color="#543930" offset="1"/></radialGradient><path d="M104 70a14.4 14.4 0 0 0-4.7-3.6 25.3 25.3 0 0 0-10.7-2.2c-19.9 0-21.3 16.3-20.5 23.4.7 6.3 4.4 7.9 4.4 7.9l-.6-6.1s7.3-2 11-4.9 5.5-5.4 5.5-5.4 1.3 2 5.5 5.4 11 4.9 11 4.9l-.5 6s3.8-1.5 4.4-7.8c.7-7.8-.3-12.6-4.7-17.7z" fill="url(#D)"/><defs><path id="E" d="M104 70a12.3 12.3 0 0 0-4.7-3.5 25.3 25.3 0 0 0-10.7-2.2c-19.9 0-21.3 16.3-20.5 23.4.7 6.3 4.4 7.9 4.4 7.9v-1.4l-2-5a12 12 0 0 1 0-6.4l.7-2.9 17.3-10.3 17.1 10.3.8 3.2a12 12 0 0 1 0 7l-1.8 3.7-.2 1.8s3.8-1.6 4.4-7.9c.7-7.9-.3-12.6-4.7-17.7z"/></defs><clipPath id="F"><use xlink:href="#E"/></clipPath><g clip-path="url(#F)"><path d="M88.6 66.3c3.7 0 7 .7 9.9 2l.2.1h.1c.6.3 2.4 1.3 3.8 3 3.9 4.4 4.9 8.3 4.2 16.1l-.1 1.2a11 11 0 0 0-.6-3.2 12.6 12.6 0 0 0-4.1-5.7L97.7 77l1.3 5 .4 1.9-2.2-.4c-1.4-.3-4-2-5.4-3L84.3 75l4.6 8.1.7 1.2a11 11 0 0 1-3.4-.5 28.4 28.4 0 0 1-9.6-4.7l-1.5-1.4-1.3 1.6c0 .1-2.3 2.7-3.2 6.3l-.4 2.3v-.4c-.3-2.3-.8-10.4 4-15.9 3.2-3.5 8-5.3 14.4-5.3m0-2c-19.9 0-21.3 16.3-20.5 23.4.7 6.3 4.4 7.9 4.4 7.9s-1-5.5 0-9.5c.9-3.2 2.8-5.5 2.8-5.5s3.6 3.1 10.3 5.1c1.6.5 3.4.6 4.9.6h2.4L90.6 82s3.8 2.8 6.2 3.3c1.6.4 3 .5 4 .5h1.2l-1.1-4.4s2 1.3 3.4 4.7c.7 1.8.3 7.6.3 7.6l-.2 1.8s3.9-1.6 4.4-7.9c.7-7.9-.2-12.6-4.7-17.7-2-2.2-4.6-3.5-4.8-3.5a25.4 25.4 0 0 0-10.7-2.2z" fill="#402720"/></g></g></g></svg>