<svg viewBox="0 0 128 128" xmlns="http://www.w3.org/2000/svg" xmlns:xlink="http://www.w3.org/1999/xlink"><radialGradient id="a" cx="36.4" cy="-2.1" r="21.8" gradientUnits="userSpaceOnUse"><stop stop-color="#6D4C41" offset="0"/><stop stop-color="#543930" offset="1"/></radialGradient><path d="M36.5 4c-18.2 0-18 16.8-18 17 0 11 .8 26.4 5.1 32.4 1.8 2.4 5.1 2.5 5.1 2.5h15.1s3.3 0 5-2.5c4.4-6 5.2-21.4 5.2-32.3 0-.3.7-17.1-17.5-17.1z" fill="url(#a)"/><linearGradient id="b" x1="55.6" x2="55.6" y1="54.6" y2="82.4" gradientTransform="rotate(9 58 69.5)" gradientUnits="userSpaceOnUse"><stop stop-color="#FFB300" offset="0"/><stop stop-color="#FFCA28" offset=".4"/></linearGradient><path d="M62 83.2c-1 0-2-.6-2.4-1.4l-12.4-26 .7-2.4 7 .5c.8 2.6 3.5 11.8 4.8 14.8l4.4 11c.5 1.1 0 2.6-1 3.2a2 2 0 0 1-1.1.3z" fill="url(#b)"/><path d="M48.6 54.5l5.5.4c1 3.2 3.5 11.4 4.7 14.2l4.4 11c.3.7 0 1.6-.5 2l-.7.1c-.6 0-1.3-.3-1.5-.8L48.3 55.7l.3-1.2m-1.4-2.1l-1 3.4 12.5 26.4c.6 1.3 2 2 3.3 2 .6 0 1.2-.1 1.7-.4 1.4-.9 2-2.9 1.4-4.5l-4.4-11c-1.5-3.4-5-15.3-5-15.3l-8.5-.6z" fill="#EDA600"/><path d="M36.5 6c5 0 8.8 1.4 11.5 4 4 4.2 4 10.3 4 11 0 15.9-1.7 27-4.8 31.3-1 1.4-3.3 1.6-3.5 1.7H28.8c-.3 0-2.5-.3-3.5-1.7-3.1-4.4-4.8-15.4-4.8-31.2 0-.3 0-6.7 4.3-11A16 16 0 0 1 36.5 6m0-2c-18.2 0-18 16.8-18 17 0 11 .8 26.4 5.1 32.4 1.8 2.4 5.1 2.5 5.1 2.5h15.1s3.3 0 5-2.5c4.4-6 5.2-21.4 5.2-32.3 0-.3.7-17.1-17.5-17.1z" fill="#402821"/><linearGradient id="c" x1="36.1" x2="36.1" y1="122.7" y2="78" gradientUnits="userSpaceOnUse"><stop stop-color="#616161" offset="0"/><stop stop-color="#6B6B6B" offset=".4"/><stop stop-color="#6E6E6E" offset="1"/></linearGradient><path d="M22.1 78v44.7h5.7l7.9-38.2c0-.3.2-.4.4-.4s.4.1.5.4l7.8 38.2h5.7V78H22z" fill="url(#c)"/><path d="M45.2 121.7l-7.7-37.4c-.2-.7-.8-1.2-1.5-1.2s-1.3.5-1.4 1.2l-7.7 37.4h-3.8v-46h26v46h-4z" fill="#616161"/><path d="M48 76.6v44h-2l-7.5-36.5c-.3-1.2-1.3-2-2.5-2s-2.2.8-2.4 2l-7.5 36.6h-2v-44h24m2-2H22v48h5.6l7.9-38.2c0-.3.2-.4.4-.4s.5.1.5.4l7.9 38.2H50v-48z" fill="#4F4F4F"/><linearGradient id="d" x1="4.2" x2="22.6" y1="86.5" y2="55.8" gradientUnits="userSpaceOnUse"><stop stop-color="#FFCA28" offset=".6"/><stop stop-color="#FFB300" offset="1"/></linearGradient><path d="M5.1 87c-.5 0-1.5-.9-1.6-1.2-.2-.3-.7-1.6 0-4.4a8.2 8.2 0 0 1 3-4.8l6.2-9.2v-.2l5.8-12.7 8 .5-.3 2.8-15 21-.1.5-.6 4A28 28 0 0 1 9 85.4v-.1l.2-1.1c.2-.7.4-1.3 0-1.9-.1-.3-.4-.5-.7-.6h-.4c-1.3 0-1.7 1.5-2 3-.2.7-.5 1.9-.9 2.2H5z" fill="url(#d)"/><path d="M19 55.6l6.4.4-.1 1.5-14.9 20.8a2 2 0 0 0-.3.8l-.3 2.2a2.3 2.3 0 0 0-1.6-.6c-2.1 0-2.6 2.1-3 3.7-.1.3-.2 1-.4 1.3-.2 0-.4-.3-.5-.4 0-.2-.4-1.2.3-3.6.5-2.2.8-2.6 2.5-4.3l.2-.3a3209.1 3209.1 0 0 0 6.4-9.5l5.4-12m-1.3-2.1l-6 13.3L5.7 76a9.1 9.1 0 0 0-3 5.2c-.8 2.8-.5 4.4-.1 5C2.8 86.8 4 88 5 88c.3 0 .6-.1.9-.4 1.2-1 1.1-5 2.2-5h.1c.6.2-.2 1.5-.2 2.7 0 .8.4 1.2 1 1.2.1 0 .3 0 .5-.2.3-.1 1.8-2.7 1.8-2.7l.7-4.2 15.1-21.2.3-4.1-9.7-.6z" fill="#EDA600"/><linearGradient id="e" x1="2.7" x2="2.7" y1="84.1" y2="84.1" gradientUnits="userSpaceOnUse"><stop stop-color="#FFB300" offset="0"/><stop stop-color="#FFCA28" offset=".4"/></linearGradient><path d="M2.7 84.2v-.3.3z" fill="url(#e)"/><path d="M2.7 84zm0 0v-.2z" fill="#EDA600"/><linearGradient id="f" x1="106.2" x2="123.2" y1="58" y2="86.1" gradientUnits="userSpaceOnUse"><stop stop-color="#FFB300" offset="0"/><stop stop-color="#FFCA28" offset=".4"/></linearGradient><path d="M122.3 87l-.2-.1c-.3-.3-.6-1.5-.8-2.3-.3-1.4-.7-3-2-3l-.4.1c-.3 0-.6.3-.8.6-.3.6-.1 1.2 0 1.9l.3 1v.2c-.3-.4-1-1.3-1.4-2.1l-.6-4-.2-.5-15-21-.2-2.8 8-.5 5.7 12.7v.2l6.3 9.1v.2a8.2 8.2 0 0 1 2.9 4.7c.7 2.8.2 4 0 4.4 0 .3-1 1.2-1.6 1.2z" fill="url(#f)"/><path d="M108.4 55.6l5.4 12a3209.1 3209.1 0 0 0 6.6 9.8c1.6 1.7 2 2.1 2.5 4.3.6 2.4.3 3.4.2 3.6l-.4.5-.4-1.4c-.4-1.6-1-3.7-3-3.7a2.3 2.3 0 0 0-1.6.6l-.3-2.2a2 2 0 0 0-.4-.8l-14.8-20.8-.1-1.5 6.3-.4m1.2-2.1l-9.7.6.4 4 15 21.3.7 4.2s1.6 2.6 1.9 2.7l.6.2c.5 0 1-.4.9-1.2 0-1.2-.8-2.5-.2-2.6 1.1 0 1 3.8 2.3 5 .2.2.5.3.8.3 1.1 0 2.3-1.2 2.6-1.7.3-.7.7-2.3 0-5.1a9.2 9.2 0 0 0-3.1-5.2l-6.2-9.2-6-13.3z" fill="#EDA600"/><linearGradient id="g" x1="95.9" x2="95.9" y1="84.1" y2="84.1" gradientTransform="matrix(-1 0 0 1 220.7 0)" gradientUnits="userSpaceOnUse"><stop stop-color="#FFB300" offset="0"/><stop stop-color="#FFCA28" offset=".4"/></linearGradient><path d="M124.8 84.2v-.3.3z" fill="url(#g)"/><path d="M25.1 124h-4.4c-.8 0-1.4-1-1.2-1.8a6 6 0 0 1 5.6-4.3 6 6 0 0 1 5.7 4.5c.2.8-.4 1.6-1.2 1.6H25zm22.1 0h4.4c.9 0 1.4-1 1.2-1.8a6 6 0 0 0-5.6-4.3 6 6 0 0 0-5.7 4.5c-.2.8.4 1.6 1.2 1.6h4.5z" fill="#2B2D2D"/><path d="M23 77V59.7a1 1 0 0 0-.6-1L15 56c2.1-5.4 4.1-8.2 10.7-10a47 47 0 0 1 10.2-.9h.2c3.8 0 8 .3 10.3 1 6.6 1.7 8.6 4.5 10.7 10l-7.5 2.8a1 1 0 0 0-.6 1V77H23z" fill="#651FFF"/><path d="M36 46c3.9 0 8 .3 10.1.9 5.8 1.6 7.8 3.9 9.7 8.5L49.3 58a2 2 0 0 0-1.3 1.8V76H24V59.7a2 2 0 0 0-1.3-1.9l-6.4-2.4c2-4.8 3.8-7 9.6-8.5a46 46 0 0 1 10-1h.1m0-1.9c-4 0-8.2.3-10.6 1-7.6 2-9.4 5.5-11.7 11.6l8.3 3.1V78h28V59.7l8.4-3.2C56 50.5 54.2 47 46.7 45c-2.4-.7-6.6-1-10.6-1z" fill="#540EED"/><path d="M36.1 49.9a4 4 0 0 1-4-3.9v-4.8h9V46a4 4 0 0 1-4 3.9h-1z" fill="#E49800"/><path d="M40.6 41.7V46c0 1.9-1.6 3.4-3.6 3.4h-.9c-2 0-3.5-1.5-3.5-3.4v-4.3h8m1-1h-10V46c0 2.4 2 4.4 4.5 4.4h1c2.5 0 4.5-2 4.5-4.4v-5.3z" fill="#C78500"/><linearGradient id="h" x1="57.5" x2="67.1" y1="84.7" y2="84.7" gradientTransform="rotate(8.2 62.7 85.4)" gradientUnits="userSpaceOnUse"><stop stop-color="#FFB300" offset="0"/><stop stop-color="#FFCA28" offset=".4"/></linearGradient><path d="M67 85.4c0 1.6-.9.6-1.5 1.1s-.8 1.1-2 1.5c-1 .2-1.7-.4-2.2-.2-.6.4-.3.6-1 .9-2 .5-2.3-1.7-2.1-2.3.6-2.3-1 .5-.7-1.5s3.3-4.6 5.4-4.6c2 0 4.2 2 4.2 5.1z" fill="url(#h)" stroke="#EDA600" stroke-linecap="round" stroke-linejoin="round" stroke-miterlimit="10" stroke-width="2"/><defs><path id="i" d="M16.5 4h40v57.8h-40z"/></defs><clipPath id="j"><use xlink:href="#i"/></clipPath><g clip-path="url(#j)"><linearGradient id="k" x1="36.5" x2="36.5" y1="43.2" y2="18.9" gradientUnits="userSpaceOnUse"><stop stop-color="#FFB300" offset="0"/><stop stop-color="#FFCA28" offset="1"/></linearGradient><path d="M36.5 43.5c-1 0-2.1-.3-3.3-.7a17 17 0 0 1-10.9-16.7c0-12.7 7.7-17.2 14.2-17.2 6.6 0 14.2 4.5 14.2 17.2a17 17 0 0 1-10.9 16.7c-1.1.5-2.3.7-3.3.7z" fill="url(#k)"/><path d="M36.5 9.4c6.3 0 13.7 4.4 13.7 16.7 0 9.3-5.7 14.6-10.5 16.3-1.1.4-2.2.6-3.2.6s-2-.2-3.1-.6c-4.9-1.7-10.6-7-10.6-16.3 0-12.3 7.4-16.7 13.7-16.7m0-1C29 8.4 21.8 14 21.8 26c0 9.7 6 15.4 11.2 17.2 1.3.5 2.5.7 3.5.7s2.3-.3 3.5-.7A17.7 17.7 0 0 0 51.2 26c0-12-7-17.7-14.7-17.7z" fill="#EDA600"/><g fill="#404040"><ellipse cx="29.4" cy="28.3" rx="2.2" ry="2.2"/><ellipse cx="43.8" cy="28.3" rx="2.2" ry="2.2"/></g><path d="M38.2 32.4H34.8c-.3.1-.4.4-.3.7.2.3.8 1.2 2 1.2s1.9-.9 2-1.2c.1-.3 0-.6-.3-.7z" fill="#E59600"/><path d="M32.6 24.3c-.4-.5-1.3-1.3-3.2-1.3-1.8 0-2.8.8-3.2 1.3-.2.3-.1.5 0 .7.1.2.5.3.8.2s1.2-.5 2.4-.5c1.3 0 2 .4 2.4.5s.7 0 .8-.2c.2-.2.2-.4 0-.7zm14.4 0c-.4-.5-1.3-1.3-3.2-1.3-1.8 0-2.8.8-3.2 1.3-.2.3-.1.5 0 .7.1.2.5.3.8.2s1.2-.5 2.4-.5c1.3 0 2 .4 2.4.5s.7 0 .8-.2c.2-.2.2-.4 0-.7z" fill="#6D4C41"/><radialGradient id="l" cx="67.5" cy="3.4" r="16.5" gradientTransform="matrix(0 1 -.9288 0 39.6 -64)" gradientUnits="userSpaceOnUse"><stop stop-color="#6D4C41" offset="0"/><stop stop-color="#543930" offset="1"/></radialGradient><path d="M52 22.1c0-5.8-3.7-15.6-15.5-15.6-12 0-15.8 11.4-15.8 15.6C20.7 35 21.8 41.3 23 44c.2.5 1 .8 1.2-.4 0 0-.9-7.8-1-13.3 0-1.3-.4-6.1 2.3-6.7A35.6 35.6 0 0 0 41 16c1.5 3.2 6 6.3 7.7 7.4 1.3 1 1.1 5 1.1 6.7l-1.3 13.3s0 3.2 1.4.5c1.3-2.6 2-17.5 2-21.8z" fill="url(#l)"/><path d="M40.2 36c-1.4.8-6 .8-7.4 0-.8-.5-1.6.2-1.3 1 .3.7 2.8 2.3 5 2.3s4.6-1.6 5-2.3c.3-.8-.5-1.5-1.3-1z" fill="#795548"/></g><linearGradient id="m" x1="59.1" x2="76.7" y1="86.9" y2="60" gradientUnits="userSpaceOnUse"><stop stop-color="#FFCA28" offset=".6"/><stop stop-color="#FFB300" offset="1"/></linearGradient><path d="M58.5 88.2c-.9 0-1.4-.8-2-1.8l-.5-.7c-1.4-1.9-1-2.6-.4-3.5 1.3-1.8 3-3.1 4.5-4.2a46.1 46.1 0 0 0 1.3-1.2l4.8-8.4c1.7-2.7 5.1-11 6-13.3h7.4l-.2 2.8-13 22a1 1 0 0 0 0 1c1.8 4.7 1.2 5 .4 5.4h-.5l-.3-1c-.2-.8-.6-2.1-1.8-2.1H64c-1.4.1-2 1-2.4 2l-.8 1.6c-1 1.4-1.3 1.4-1.9 1.4h-.4z" fill="url(#m)"/><path d="M73 56l5.5.1v1.5l-13 21.9a2 2 0 0 0-.1 1.7L66 83c-.4-.5-1-.8-1.9-.8h-.3c-2 .2-2.6 1.6-3.1 2.6l-.8 1.5-.7.9h-.7c-.4 0-.9-.8-1.2-1.4a10 10 0 0 0-.5-.7c-1-1.4-.8-1.7-.4-2.3 1.2-1.6 3-3 4.3-4a31.3 31.3 0 0 0 1.6-1.5L67 69c1.7-2.7 4.7-10 6-13m-1.5-1.8S67.2 64.9 65.2 68l-4.7 8.4c-1.4 1.2-4 2.9-5.8 5.3-1 1.3-1.2 2.5.4 4.7.7.9 1.5 2.9 3.3 2.9h.4c.9 0 1.6-.1 2.7-1.9 1.2-2 1.2-3 2.5-3.1 1 0 .7 2.6 1.8 3l.8.1h.6c1.6-1 1.8-2 0-6.8l13-22.3.4-4.1h-9z" fill="#EDA600"/><radialGradient id="n" cx="91.4" cy="-2.1" r="21.8" gradientUnits="userSpaceOnUse"><stop stop-color="#6D4C41" offset="0"/><stop stop-color="#543930" offset="1"/></radialGradient><path d="M91.5 4c-18.2 0-18 16.8-18 17 0 11 .8 26.4 5.1 32.4 1.8 2.4 5.1 2.5 5.1 2.5h15.1s3.3 0 5-2.5c4.4-6 5.2-21.4 5.2-32.3 0-.3.7-17.1-17.5-17.1z" fill="url(#n)"/><path d="M91.5 6c5 0 8.8 1.4 11.5 4 4 4.2 4 10.3 4 11 0 15.9-1.7 27-4.8 31.2-1 1.5-3.3 1.7-3.5 1.7H83.8c-.3 0-2.5-.2-3.5-1.7-3.1-4.3-4.8-15.3-4.8-31.1 0-.3 0-6.7 4.3-11A16 16 0 0 1 91.5 6m0-2c-18.2 0-18 16.8-18 17 0 11 .8 26.4 5.1 32.4 1.8 2.4 5.1 2.5 5.1 2.5h15.1s3.3 0 5-2.5c4.4-6 5.2-21.4 5.2-32.3 0-.3.7-17.1-17.5-17.1z" fill="#402821"/><linearGradient id="o" x1="91.1" x2="91.1" y1="122.7" y2="78" gradientUnits="userSpaceOnUse"><stop stop-color="#616161" offset="0"/><stop stop-color="#6B6B6B" offset=".4"/><stop stop-color="#6E6E6E" offset="1"/></linearGradient><path d="M77.1 78v44.7h5.7l7.9-38.2c0-.3.2-.4.4-.4s.4.1.5.4l7.8 38.2h5.7V78H77z" fill="url(#o)"/><path d="M100.2 121.7l-7.7-37.4c-.1-.7-.7-1.2-1.5-1.2s-1.3.5-1.4 1.2l-7.7 37.4h-3.8v-46h26v46h-4z" fill="#616161"/><path d="M103 76.6v44h-2l-7.5-36.5c-.3-1.2-1.3-2-2.5-2s-2.2.8-2.4 2l-7.5 36.6h-2v-44h24m2-2H77v48h5.6l7.9-38.2c0-.3.2-.4.4-.4s.5.1.5.4l7.9 38.2h5.6v-48z" fill="#4F4F4F"/><path d="M80.1 124h-4.4c-.8 0-1.4-1-1.2-1.8a6 6 0 0 1 5.6-4.3 6 6 0 0 1 5.7 4.5c.2.8-.4 1.6-1.2 1.6H80zm22.1 0h4.4c.9 0 1.4-1 1.2-1.8a6 6 0 0 0-5.6-4.3 6 6 0 0 0-5.7 4.5c-.2.8.4 1.6 1.2 1.6h4.5z" fill="#2B2D2D"/><linearGradient id="p" x1="91" x2="91" y1="45" y2="77" gradientUnits="userSpaceOnUse"><stop stop-color="#a0f" offset="0"/><stop stop-color="#A100F2" offset=".4"/><stop stop-color="#9000D9" offset="1"/></linearGradient><path d="M78 77V59.7a1 1 0 0 0-.6-1L70 56c2.1-5.4 4.1-8.2 10.7-10a47 47 0 0 1 10.2-.9h.2c3.9 0 8 .3 10.3 1 6.6 1.7 8.6 4.5 10.7 10l-7.5 2.8a1 1 0 0 0-.6 1V77H78z" fill="url(#p)"/><path d="M91 46c3.9 0 8 .3 10.1.9 5.9 1.6 7.8 3.9 9.7 8.5l-6.5 2.5a2 2 0 0 0-1.3 1.8V76H79V59.7a2 2 0 0 0-1.3-1.9l-6.4-2.4c2-4.8 3.8-7 9.6-8.5a46 46 0 0 1 10-1h.1m0-1.9c-4 0-8.2.3-10.6 1-7.6 2-9.4 5.5-11.7 11.6l8.3 3.1V78h28V59.7l8.4-3.2c-2.3-6-4.2-9.5-11.7-11.5-2.4-.7-6.6-1-10.6-1z" fill="#7F00BF"/><path d="M91.1 49.9a4 4 0 0 1-4-3.9v-4.8h9V46a4 4 0 0 1-4 3.9h-1z" fill="#E49800"/><path d="M95.6 41.7V46c0 1.9-1.6 3.4-3.6 3.4h-.9c-2 0-3.5-1.5-3.5-3.4v-4.3h8m1-1h-10V46c0 2.4 2 4.4 4.5 4.4h1c2.5 0 4.5-2 4.5-4.4v-5.3z" fill="#C78500"/><defs><path id="q" d="M71.5 4h40v57.8h-40z"/></defs><clipPath id="r"><use xlink:href="#q"/></clipPath><g clip-path="url(#r)"><linearGradient id="s" x1="91.5" x2="91.5" y1="43.2" y2="18.9" gradientUnits="userSpaceOnUse"><stop stop-color="#FFB300" offset="0"/><stop stop-color="#FFCA28" offset="1"/></linearGradient><path d="M91.5 43.5c-1 0-2.2-.3-3.3-.7a17 17 0 0 1-10.9-16.7c0-12.7 7.7-17.2 14.2-17.2 6.6 0 14.2 4.5 14.2 17.2a17 17 0 0 1-10.9 16.7c-1.1.5-2.3.7-3.3.7z" fill="url(#s)"/><path d="M91.5 9.4c6.3 0 13.7 4.4 13.7 16.7 0 9.3-5.7 14.6-10.5 16.3-1.1.4-2.2.6-3.2.6s-2-.2-3.2-.6c-4.8-1.7-10.5-7-10.5-16.3 0-12.3 7.4-16.7 13.7-16.7m0-1C84 8.4 76.8 14 76.8 26c0 9.7 6 15.4 11.2 17.2 1.3.5 2.5.7 3.5.7s2.3-.3 3.5-.7A17.7 17.7 0 0 0 106.2 26c0-12-7-17.7-14.7-17.7z" fill="#EDA600"/><g fill="#404040"><ellipse cx="84.4" cy="28.3" rx="2.2" ry="2.2"/><ellipse cx="98.8" cy="28.3" rx="2.2" ry="2.2"/></g><path d="M93.2 32.4H89.8c-.3.1-.4.4-.3.7.2.3.8 1.2 2 1.2s1.9-.9 2-1.2c.1-.3 0-.6-.3-.7z" fill="#E59600"/><path d="M87.6 24.3c-.4-.5-1.3-1.3-3.2-1.3s-2.8.8-3.2 1.3c-.2.3-.1.5 0 .7.1.2.5.3.8.2s1.2-.5 2.4-.5c1.3 0 2 .4 2.4.5s.7 0 .8-.2c.2-.2.2-.4 0-.7zm14.4 0c-.4-.5-1.3-1.3-3.2-1.3s-2.8.8-3.2 1.3c-.2.3-.1.5 0 .7.1.2.5.3.9.2s1-.5 2.3-.5c1.3 0 2 .4 2.4.5s.7 0 .8-.2c.2-.2.2-.4 0-.7z" fill="#6D4C41"/><radialGradient id="t" cx="124.6" cy="3.4" r="16.5" gradientTransform="matrix(0 1 -.9288 0 94.6 -121.1)" gradientUnits="userSpaceOnUse"><stop stop-color="#6D4C41" offset="0"/><stop stop-color="#543930" offset="1"/></radialGradient><path d="M107 22.1c0-5.8-3.8-15.6-15.5-15.6-12 0-15.8 11.4-15.8 15.6C75.7 35 76.8 41.3 78 44c.3.5 1 .8 1.2-.4 0 0-.9-7.8-1-13.3 0-1.3-.4-6.1 2.3-6.7C90.6 21.2 96 16 96 16c1.5 3.2 6 6.3 7.7 7.4 1.3 1 1.1 5 1.1 6.7l-1.3 13.3s0 3.2 1.4.5c1.3-2.6 2-17.5 2-21.8z" fill="url(#t)"/><path d="M95.2 36c-1.4.8-6 .8-7.4 0-.8-.5-1.6.2-1.3 1 .3.7 2.8 2.3 5 2.3s4.6-1.6 5-2.3c.3-.8-.5-1.5-1.3-1z" fill="#795548"/></g><linearGradient id="u" x1="56.8" x2="59.6" y1="85.4" y2="85.4" gradientTransform="rotate(-13.7 58 84.7)" gradientUnits="userSpaceOnUse"><stop stop-color="#FFB300" offset="0"/><stop stop-color="#FFCA28" offset=".4"/></linearGradient><path d="M57.3 86.8c1.2-2 2.2-3 2.2-3" fill="url(#u)" stroke="#EDA600" stroke-linecap="round" stroke-linejoin="round" stroke-miterlimit="10"/><linearGradient id="v" x1="55.6" x2="58.7" y1="83.7" y2="83.7" gradientTransform="rotate(-13.7 58 84.7)" gradientUnits="userSpaceOnUse"><stop stop-color="#FFB300" offset="0"/><stop stop-color="#FFCA28" offset=".4"/></linearGradient><path d="M55.7 85.4c1.3-2 2.4-3 2.4-3" fill="url(#v)" stroke="#EDA600" stroke-linecap="round" stroke-linejoin="round" stroke-miterlimit="10"/><g fill="#EDA602"><path d="M60.5 86.5c.2 0 .5.2.6.4l.3.8a.7.7 0 0 1-.5.9.6.6 0 0 1-.6-.4l-.4-.8a.7.7 0 0 1 .6-.9m0-.9c-.2 0-.4 0-.6.2-.8.3-1.2 1.2-.8 2l.4.8a1.5 1.5 0 1 0 2.8-1.3l-.4-.8c-.2-.5-.8-.9-1.4-.9z"/><path d="M61.7 84.4c.3 0 .5.2.6.5l.5 1.4a.7.7 0 0 1-.6 1 .7.7 0 0 1-.7-.6l-.5-1.4a.7.7 0 0 1 .7-.9m0-.9a1.6 1.6 0 0 0-1.5 2.1l.4 1.4a1.6 1.6 0 0 0 2 1c.9-.2 1.3-1 1-2l-.4-1.4c-.2-.7-.8-1.1-1.5-1.1z"/><path d="M62.8 83.1c.2 0 .5.1.6.4l1.2 2c.2.3 0 .8-.3 1H64a.7.7 0 0 1-.6-.3l-1.2-2c-.2-.4 0-.8.3-1h.3m0-1a1.6 1.6 0 0 0-1.4 2.4l1.2 2a1.6 1.6 0 0 0 2.2.6c.4-.2.6-.5.7-1s0-.8-.1-1.2l-1.2-2c-.3-.5-.8-.8-1.4-.8z"/><path d="M64.7 82.5c.2 0 .5.2.6.5l.7 1.5c.1.3 0 .7-.4.9h-.3a.7.7 0 0 1-.7-.3l-.7-1.5c-.1-.4 0-.8.4-1h.4m0-1c-.3 0-.5 0-.7.2h-.1c-.8.4-1.2 1.3-.8 2.1l.7 1.6a1.6 1.6 0 0 0 2.1.8h.1c.4-.2.7-.6.9-1v-1.2l-.8-1.5c-.2-.6-.8-1-1.4-1z"/></g><path d="M61.2 88.1c-.4.2-.8 0-1-.3l-.1-.4c-.2-.4 0-.8.3-1s.8 0 1 .4l.1.4c.2.3 0 .7-.3.9zm1.5-.8c-.3.1-.7 0-.9-.3l-.6-1.4c-.2-.3 0-.7.3-1 .3 0 .7 0 .9.4l.6 1.4c.2.3 0 .7-.3.9zm1.7-.9c-.3.2-.7 0-.9-.3l-1-2c-.3-.4-.1-.8.2-1s.7 0 1 .3l1 2.1c.2.4 0 .8-.3 1zm1.6-.9c-.3.2-.8 0-1-.3l-.8-1.8c-.2-.4 0-.8.3-1 .3-.2.8 0 1 .3l.9 1.9c.1.3 0 .7-.4.9z" fill="#FFCA28"/></svg>