<svg xmlns="http://www.w3.org/2000/svg" viewBox="0 0 36 36"><path fill="#E1E8ED" d="M32 36v-2a6 6 0 0 0-6-6H10a6 6 0 0 0-6 6v2h28z"/><path fill="#292F33" d="M30 7.5c0 4.1-5.4 7.5-12 7.5S6 11.6 6 7.5 11.4 0 18 0s12 3.4 12 7.5"/><path fill="#FFDC5D" d="M13.6 28.1c1.8 1.3 2.9 2 4.4 2 1.5 0 2.6-.7 4.4-2v-3.8h-8.8V28z"/><path fill="#F9CA55" d="M13.6 26a5.7 5.7 0 0 0 4.4 1.7c1.6 0 3.1-.4 4.4-1.7v-3.5h-8.8V26z"/><path fill="#FFDC5D" d="M11.4 16c0 1.4-.7 2.6-1.6 2.6s-1.6-1.2-1.6-2.7.7-2.6 1.6-2.6c1 0 1.6 1.2 1.6 2.6m16.4 0c0 1.5-.7 2.7-1.6 2.7-1 0-1.6-1.2-1.6-2.7s.7-2.6 1.6-2.6c.9 0 1.6 1.2 1.6 2.6"/><path fill="#FFDC5D" d="M9.5 17c0-5.6 3.8-10.2 8.5-10.2s8.5 4.6 8.5 10.2-3.8 10-8.5 10-8.5-4.5-8.5-10"/><path fill="#C1694F" d="M18 23.8c-2.8 0-3.6-.7-3.7-.8a.7.7 0 0 1 .9-1s.7.5 2.8.5c2.2 0 2.8-.5 2.8-.5.3-.3.7-.2 1 0 .2.3.2.7 0 1-.2.1-1 .8-3.8.8"/><path fill="#FFAC33" d="M18 3.5c5.6 0 9.2 4.1 9.2 7.6s-.7 4.9-1.4 3.5l-1.4-2.8s-4.3 0-5.7-1.4c0 0 2.1 4.2-2.1 0 0 0 .7 2.8-3.5-.7 0 0-2.2 1.4-2.9 4.9-.2 1-1.4 0-1.4-3.5s2.8-7.6 9.2-7.6"/><path fill="#662113" d="M14 17a1 1 0 0 1-1-1v-1c0-.6.5-1 1-1s1 .5 1 1v1c0 .6-.5 1-1 1m8 0a1 1 0 0 1-1-1v-1c0-.6.5-1 1-1s1 .5 1 1v1c0 .6-.5 1-1 1"/><path fill="#C1694F" d="M18.8 19.8h-1.6a.8.8 0 0 1 0-1.6h1.6a.8.8 0 0 1 0 1.6"/><path fill="#292F33" d="M8.5 9c0-1.1 4.3-2 9.5-2s9.5.9 9.5 2-4.3 2-9.5 2-9.5-.9-9.5-2"/><path fill="#66757F" d="M27.5 8h-19V4.6S12.5 1 18 1s9.5 3.6 9.5 3.6V8z"/><path fill="#FFAC33" d="M15 5c0-2.8 1.3-1 3-1s3-1.8 3 1c0 1.7-1.3 2-3 2s-3-.3-3-2"/><path fill="#FDCB58" d="M16 5a2 2 0 1 1 4 0 2 2 0 0 1-4 0m11.5 4h-19c-.3 0-.5-.2-.5-.5s.2-.5.5-.5h19c.3 0 .5.2.5.5s-.2.5-.5.5"/><path fill="#292F33" d="M11.6 29l-6 1a.5.5 0 0 1-.5-.4l-.2-1c0-.3.2-.5.4-.6l6-1c.2 0 .5.2.5.5l.2 1c0 .3-.2.5-.4.6"/><path fill="#FDCB58" d="M5.8 28l1-.2.3 2-1 .1zm2-.4l1-.1.3 2-1 .1zm2-.3l1-.1.3 2h-1z"/><path fill="#292F33" d="M30.3 30l-5.9-1a.5.5 0 0 1-.4-.5l.2-1c0-.3.3-.5.5-.4l6 1c.2 0 .4.2.4.5l-.2 1c0 .2-.3.4-.6.4"/><path fill="#FDCB58" d="M25 29.1l.2-2 1 .2-.3 2zm1.9.3l.3-2 1 .2-.3 2zm2 .4l.3-2 1 .1-.3 2z"/><path fill="#99AAB5" d="M18 30.9l4 2.8c.3 0-.3-3.7-.3-3.7h-7.4s-.5 3.8-.3 3.6c.7-.3 4-2.7 4-2.7"/><path fill="#292F33" d="M19.3 33.4l.5-.9.5-1.5-2.2-1h-.3l-.2.1c-.2 0 0 0 0 0l-1.9.9.5 1.5.5 1s-.7.5-1 2.5h4.6c-.2-1.6-1-2.6-1-2.6"/><path fill="#F5F8FA" d="M13.3 26.6c.6.6 4.7 3.4 4.7 3.4s-2.1 1.2-4 3.5c-.3.3-1.6-4.6-1.7-5.7 0-.3.7-1.4 1-1.2m9.4 0c-.5.6-4.7 3.4-4.7 3.4s2.1 1.3 4.1 3.5a23 23 0 0 0 1.6-5.7c0-.3-.7-1.4-1-1.2"/><path fill="#323A3F" d="M18 30.7c.4 0 1.6.8 1.4 1.2-.4 1.9-.8 1.4-1.4 1.4-.6 0-1 .5-1.3-1.3-.1-.4.8-1.3 1.3-1.3m2 5.3h-4s.6-2.2 2-2.2 2 2.2 2 2.2"/></svg>