<svg viewBox="0 0 128 128" xmlns="http://www.w3.org/2000/svg" xmlns:xlink="http://www.w3.org/1999/xlink"><defs><path id="a" d="M4 4h120v120H4z"/></defs><clipPath id="b"><use xlink:href="#a"/></clipPath><g clip-path="url(#b)"><linearGradient id="c" x1="64" x2="64" y1="97.5" y2="130.5" gradientUnits="userSpaceOnUse"><stop stop-color="#3B78E7" offset="0"/><stop stop-color="#386EDA" offset=".2"/><stop stop-color="#3052B8" offset=".6"/><stop stop-color="#283593" offset="1"/></linearGradient><path d="M13.5 130.5V121c0-17.3 27.2-23.5 50.5-23.5h.1c13.4 0 25.9 2.1 35 6 7 3 15.4 8.5 15.4 17.5v9.5h-101z" fill="url(#c)"/><path d="M64.1 99c24.3 0 48.9 7.5 48.9 22v8H15v-8c0-7 4.9-12.5 14.5-16.4C38.3 101 50.5 99 64 99h.1m0-3H64c-25.6 0-52 7.1-52 25v11h104v-11c0-16.9-26.1-25-51.9-25z" fill="#2E51B0"/></g><g clip-path="url(#b)"><path d="M63.2 111.2c-4 0-7.3-3.2-7.3-7.1V91h16.2v13c0 4-3.3 7.1-7.3 7.1h-1.6z" fill="#7A4C32"/><path d="M71 92v12c0 3.5-2.7 6.2-6.2 6.2h-1.6a6.2 6.2 0 0 1-6.3-6.1V92h14.2m2-2H54.9v14c0 4.5 3.7 8.1 8.3 8.1h1.6c4.6 0 8.3-3.6 8.3-8.1V90z" fill="#663B22"/></g><g clip-path="url(#b)"><path d="M31.5 105.3c-3.4 0-7-.5-12-1.6-1-.2-1.9-.8-2.3-1.6a3 3 0 0 1-.4-2.3l.8-2.7a3.2 3.2 0 0 1 3.8-2.2 45 45 0 0 0 10.1 1.3 44.8 44.8 0 0 0 10.8-1.4c1.5 0 2.8 1 3.1 2.3l.8 2.7a3 3 0 0 1-.4 2.3c-.4.8-1.3 1.4-2.2 1.6a54 54 0 0 1-12 1.6z" fill="#3674CE"/><path d="M42.3 95.8c1 0 2 .6 2.2 1.6l.7 2.6c.3 1.2-.5 2.4-1.8 2.7-4.7 1-8.3 1.6-11.9 1.6s-7.2-.5-11.8-1.6c-1.4-.3-2.2-1.5-2-2.7l.8-2.6a2.2 2.2 0 0 1 2.7-1.6c4 1 7.2 1.4 10.3 1.4a46.4 46.4 0 0 0 10.8-1.4m0-2h-1c-4.1 1-7 1.4-9.8 1.4a43.9 43.9 0 0 1-10.8-1.4c-2 0-3.6 1.2-4.1 3l-.6 2.3-.1.4c-.3 1-.2 2.2.4 3.1.6 1 1.7 1.8 3 2 5 1.2 8.7 1.7 12.2 1.7s7.2-.5 12.3-1.6a5 5 0 0 0 3-2.1c.5-1 .6-2 .4-3l-.8-2.8a4 4 0 0 0-4-3z" fill="#2E51B0"/></g><g clip-path="url(#b)"><path d="M96.6 105.3c-3.4 0-7-.5-12-1.6-1-.2-1.8-.8-2.3-1.6a3 3 0 0 1-.4-2.3l.8-2.7a3.2 3.2 0 0 1 3.8-2.2 45 45 0 0 0 10.1 1.3 45 45 0 0 0 10.8-1.4c1.5 0 2.8 1 3.2 2.3l.7 2.7a3 3 0 0 1-.3 2.3c-.5.8-1.3 1.4-2.3 1.6-5 1.1-8.6 1.6-12 1.6z" fill="#3674CE"/><path d="M107.4 95.8c1 0 2 .6 2.2 1.6l.7 2.6c.3 1.2-.5 2.4-1.8 2.7-4.7 1-8.3 1.6-11.9 1.6s-7.2-.5-11.8-1.6c-1.4-.3-2.2-1.5-2-2.7l.8-2.6a2.2 2.2 0 0 1 2.7-1.6c4 1 7.2 1.4 10.3 1.4a46.4 46.4 0 0 0 10.8-1.4m0-2h-1c-4.1 1-7 1.4-9.8 1.4a43.9 43.9 0 0 1-10.8-1.4c-2 0-3.6 1.2-4.1 3l-.6 2.3-.1.4c-.3 1-.2 2.2.4 3.1.6 1 1.7 1.8 3 2 5 1.2 8.7 1.7 12.2 1.7s7.2-.5 12.3-1.6a5 5 0 0 0 3-2.1c.5-1 .6-2 .4-3l-.2-.5-.6-2.3a4 4 0 0 0-4-3z" fill="#2E51B0"/></g><path clip-path="url(#b)" fill="#20457A" d="M64 109l-10.7 7.3L56 130h16.7l2.3-13.4z"/><path clip-path="url(#b)" fill="#fc0" d="M66.8 115h-5.6l-1.8-7.4L64 109l4.6-1.5zm2 18.4h-9.6l2-18.3h5.6z"/><g clip-path="url(#b)"><path d="M51.3 97.6l2.7-.2a19.4 19.4 0 0 0 8.3 11.9l-11 9.3v-21z" fill="#3674CE"/><path d="M53.3 98.4a25 25 0 0 0 4 7.8c1.1 1.3 2.3 2.3 3.4 3l-8.4 7.2V98.5h1m1.6-2.2l-4.6.4v24L64 109.1s-3-1.6-5-4.2c-2.2-2.5-4.1-7-4.1-8.6z" fill="#2E51B0"/><path d="M65.7 109.2c1.1-.7 2.8-2 4.2-3.6a23 23 0 0 0 4-8.2l2.8.2v21l-11-9.4z" fill="#3674CE"/><path d="M74.7 98.4l1 .1v18l-8.4-7.2a20 20 0 0 0 3.3-3c1.7-2 3.4-5.4 4.1-7.9m-1.6-2.1c0 1.6-2 6.1-4 8.6-2.1 2.6-5 4.2-5 4.2l13.6 11.6v-24l-4.6-.4z" fill="#2E51B0"/></g><path d="M36.7 72.3c-5.4 0-9.7-4.7-9.7-10.4s4.3-10.5 9.7-10.5h54.6c5.4 0 9.7 4.7 9.7 10.5s-4.3 10.4-9.7 10.4H36.7z" fill="#7A4C32"/><path d="M91.3 52.4c4.8 0 8.7 4.3 8.7 9.4s-3.9 9.5-8.7 9.5H36.7c-4.8 0-8.7-4.3-8.7-9.5s3.9-9.4 8.7-9.4h54.6m0-2H36.7c-6 0-10.7 5.2-10.7 11.4 0 6.3 4.8 11.5 10.7 11.5h54.6c6 0 10.7-5.2 10.7-11.5 0-6.2-4.8-11.4-10.7-11.4z" fill="#663B22"/><linearGradient id="d" x1="64" x2="64" y1="94.6" y2="12.8" gradientUnits="userSpaceOnUse"><stop stop-color="#8D5738" offset="0"/><stop stop-color="#97603D" offset=".2"/><stop stop-color="#A26941" offset=".6"/><stop stop-color="#A56C43" offset="1"/></linearGradient><path d="M64 95.3c-15.7 0-32.5-12.2-32.5-38.8 0-12.4 3.5-23.8 10-32.2 6-7.8 14.3-12.2 22.5-12.2s16.4 4.4 22.5 12.2c6.5 8.4 10 19.8 10 32.2a42 42 0 0 1-10.1 29.2A30.5 30.5 0 0 1 64 95.3z" fill="url(#d)"/><path d="M64 13c8 0 15.8 4.4 21.7 12a51.5 51.5 0 0 1 9.8 31.5c0 11.8-3.4 21.7-9.8 28.5a29.6 29.6 0 0 1-43.3 0 40.5 40.5 0 0 1-10-28.5 51.3 51.3 0 0 1 10-31.5A28.1 28.1 0 0 1 64 13m0-2c-17.4 0-33.5 18.7-33.5 45.5C30.5 83 47 96.3 64 96.3S97.5 83 97.5 56.5C97.5 29.7 81.4 11 64 11z" fill="#875334"/><g fill="#42312C"><path d="M40 50.7l.4-.5.2-.2.4-.4c.2 0 .2-.2.4-.4l.5-.3.5-.4.6-.3.7-.3c.3 0 .4-.2.7-.3l1.5-.3 1.6-.2a5 5 0 0 1 1.7.2l1.5.3a8.6 8.6 0 0 1 1.4.6l.6.3.5.4.5.3.4.4.3.3.3.3.4.5c.5.7.4 1.7-.3 2.2-.4.3-1 .4-1.4.2H53l-.5-.3h-.3l-.3-.2-.7-.2-.4-.2h-.4l-.2-.1H50l-.4-.2h-1l-1-.1h-1l-1 .1-.6.1h-.2l-.2.1-.4.1-.4.2h-.4l-.3.2h-.3l-.3.2-.5.3c-.9.3-1.8 0-2.1-.9-.3-.5-.2-1 0-1.5z"/><ellipse cx="47.6" cy="58.8" rx="4.9" ry="5.1"/><path d="M86 53.1l-.5-.2-.3-.2h-.3l-.3-.2h-.3l-.4-.2-.5-.1h-.2L83 52l-.5-.1-1-.1h-3l-.5.2h-.5l-.4.2-.4.1c-.3 0-.5.2-.7.3h-.3l-.3.2-.4.2h-.3c-.8.4-1.7 0-2-.9-.2-.5-.1-1 .2-1.4l.4-.6.3-.3.3-.3.4-.3.5-.4.5-.3.6-.4c.3 0 .5-.2.7-.3l.7-.2 1.6-.4 1.6-.1 1.6.1c.5 0 1 .2 1.6.4a8.6 8.6 0 0 1 1.3.5l.6.4.6.3.4.4.5.3c.2.1.2.3.3.4l.3.3.3.5c.5.7.3 1.7-.4 2.2-.5.3-1 .3-1.6.1z"/><ellipse cx="80.4" cy="58.8" rx="4.9" ry="5.1"/></g><path d="M67.9 68h-7.7c-.7.3-1 1-.7 1.7s1.7 2.7 4.5 2.7 4.3-2 4.6-2.7c.3-.7-.1-1.4-.7-1.6z" fill="#875334"/><path d="M72.4 76.1a25.6 25.6 0 0 1-16.8 0c-1.8-1-3.7.6-3 2.3.8 1.6 6.5 5.4 11.4 5.4s10.6-3.8 11.3-5.4c.8-1.7-1-3.4-2.9-2.3z" fill="#473530"/><radialGradient id="e" cx="64.3" cy="4.3" r="48.9" gradientUnits="userSpaceOnUse"><stop stop-color="#554138" offset="0"/><stop stop-color="#3C2C23" offset="1"/></radialGradient><path d="M64 4c-45.5.3-36.2 52.2-36.2 52.2L33 65a90 90 0 0 1 4.8-25.6 6 6 0 0 1 6.8-3.8c4.5.8 11.6 1.8 19.4 1.8h.1c8 0 15-1 19.4-1.8a6 6 0 0 1 6.8 3.8A90 90 0 0 1 95 65l5.1-8.8s9.3-52-36-52.2z" fill="url(#e)"/><path d="M64 4c-45.5.3-36.2 52.2-36.2 52.2L33 65l.3-5-2.5-4.8c-.2-1.6-.9-7-.5-13.6.4-7 2.1-17 8.2-24.2C44.1 10.6 52.7 7 64 7s20 3.6 25.6 10.4c10.8 13 8.2 34.3 7.7 37.8l-2.5 4.6c.2 2 .3 3.7.2 5.2l5.1-8.8s9.3-52-36-52.2z" fill="#291D15"/><linearGradient id="f" x1="64" x2="64" y1="25.8" y2="43.7" gradientUnits="userSpaceOnUse"><stop stop-color="#666" offset="0"/><stop stop-color="#606060" offset=".1"/><stop stop-color="#3F3F3F" offset=".7"/><stop stop-color="#333" offset="1"/></linearGradient><path d="M63.7 44.2c-22.5-.2-33.4-6.6-36.5-9 2.2-2.5 10.7-9.5 36.5-9.5 25.7 0 34.6 6.5 37 9-3.2 2.5-14.5 9.3-37 9.5z" fill="url(#f)"/><path d="M63.7 27.2c21.7 0 31 4.7 34.6 7.4a30 30 0 0 1-6 3c-5.3 2.3-14.7 5-28.5 5-19.4 0-30-5-34.2-7.5 3.3-2.9 12.3-7.9 34.1-7.9m0-3c-33.2 0-38.5 11.4-38.5 11.4s10.2 9.9 38.5 10c28.4-.1 39.1-10.7 39.1-10.7s-5.8-10.7-39-10.7z" fill="#2A2A2B"/><linearGradient id="g" x1="64" x2="64" y1="4.4" y2="34.3" gradientUnits="userSpaceOnUse"><stop stop-color="#3B78E7" offset="0"/><stop stop-color="#3B77E6" offset="0"/><stop stop-color="#335BC2" offset=".3"/><stop stop-color="#2D46A8" offset=".6"/><stop stop-color="#293998" offset=".8"/><stop stop-color="#283593" offset="1"/></linearGradient><path d="M23.6 34.5c1.5 6.2 3 8.8 3 8.8C28.3 41.3 37.8 32 64 32h.1c26.3 0 35.3 9.4 37 11.4 0 0 1.8-2.8 3.4-9C108 20 90 4 64 4 38.3 4 20 20.2 23.7 34.5z" fill="url(#g)"/><defs><path id="h" d="M23.6 34.5c1.5 6.2 3 8.8 3 8.8C28.3 41.3 37.8 32 64 32h.1c26.3 0 35.3 9.4 37 11.4 0 0 1.8-2.8 3.4-9C108 20 90 4 64 4 38.3 4 20 20.2 23.7 34.5z"/></defs><clipPath id="i"><use xlink:href="#h"/></clipPath><path d="M97 35.6a4.3 4.3 0 0 0-1.5-2.8c-3.5-3-13.9-10-31.4-10a47 47 0 0 0-31.5 10c-.8.7-1.4 1.7-1.5 2.7a4.6 4.6 0 0 0 5.6 5.4c6.4-1.7 16.4-3.6 27.4-3.7 11 0 21 2 27.3 3.7 3.2.8 6.2-2 5.7-5.3z" clip-path="url(#i)" fill="#3B78E7"/><path d="M71.2 13.8a1 1 0 0 0-.7.3c-.5.9-1.3 1.5-2.7 1.5-1.4 0-2.4-1.3-3-2.1a1 1 0 0 0-.8-.4 1 1 0 0 0-.9.4c-.5.8-1.5 2-2.9 2s-2.2-.5-2.7-1.3a.7.7 0 0 0-.7-.4l-.6.3-.3.4c-.3.5-.4 1.1-.1 1.7.4.8.6 1.6.6 2.5v3.5c0 2.6 4.1 7.7 7.6 7.7s7.6-5.2 7.6-7.7v-3.5c0-.9.2-1.7.6-2.5.3-.6.2-1.2-.1-1.7l-.4-.4a.7.7 0 0 0-.6-.3z" fill="#F7CB4D"/><path d="M64 7c17.3 0 29 7.3 34 14 2.4 3 4.8 7.6 3.5 12.9-.5 2-1 3.8-1.5 5-5-3.6-15.5-8.8-36-8.8-20.4 0-31 5.1-36 8.9-.5-1.3-1-3-1.5-5-1.3-5.3 1.1-10 3.4-13A43.8 43.8 0 0 1 64 7.2m0-3C38.1 4 20 20 23.6 34.5a53 53 0 0 0 3.2 9.5c1.6-2 11-11 37.1-11h.1c26.3 0 35.3 8.9 37 10.9 0 0 1.8-3 3.4-9.3C108 20.3 90 4.1 64 4.1z" fill="#2E51B0"/></svg>