<svg viewBox="0 0 128 128" xmlns="http://www.w3.org/2000/svg" xmlns:xlink="http://www.w3.org/1999/xlink"><linearGradient id="a" x1="55.6" x2="55.6" y1="54.6" y2="82.4" gradientTransform="scale(-1 1) rotate(9 -5.7 -738.9)" gradientUnits="userSpaceOnUse"><stop stop-color="#FFB300" offset="0"/><stop stop-color="#FFCA28" offset=".4"/></linearGradient><path d="M65.5 83.2c-.4 0-.9 0-1.2-.3-1-.6-1.5-2-1-3.1l4.4-11.1c1.3-3 4-12.2 4.9-14.8l7-.5.6 2.3L68 81.8c-.4.8-1.4 1.4-2.4 1.4z" fill="url(#a)"/><path d="M78.8 54.5l.4 1.2-12.3 25.7c-.2.5-.8.8-1.4.8-.3 0-.5 0-.7-.2-.6-.3-.8-1.2-.6-1.8V80l4.5-11c1.2-2.8 3.7-11 4.6-14.2l5.5-.4m1.5-2.1l-8.5.6s-3.5 12-5 15.3l-4.4 11c-.7 1.6 0 3.6 1.4 4.5.5.3 1 .4 1.7.4 1.3 0 2.7-.7 3.3-2l12.5-26.4-1-3.4z" fill="#EDA600"/><linearGradient id="b" x1="4.2" x2="22.6" y1="86.5" y2="55.8" gradientTransform="matrix(-1 0 0 1 127.5 0)" gradientUnits="userSpaceOnUse"><stop stop-color="#FFCA28" offset=".6"/><stop stop-color="#FFB300" offset="1"/></linearGradient><path d="M122.3 87l-.2-.1c-.3-.3-.6-1.5-.8-2.3-.3-1.4-.7-3-2-3l-.4.1c-.3 0-.6.3-.8.6-.3.6-.1 1.2 0 1.9l.3 1v.2c-.3-.4-1-1.3-1.4-2.1l-.6-4-.2-.5-15-21-.2-2.8 8-.5 5.7 12.7v.2l6.3 9.1v.2a8.2 8.2 0 0 1 2.9 4.7c.7 2.8.2 4 0 4.4 0 .3-1 1.2-1.6 1.2z" fill="url(#b)"/><path d="M108.4 55.6l5.4 12a3209.1 3209.1 0 0 0 6.6 9.8c1.6 1.7 2 2.1 2.5 4.3.6 2.4.3 3.4.2 3.6l-.4.5-.4-1.4c-.4-1.6-1-3.7-3-3.7a2.3 2.3 0 0 0-1.6.6l-.3-2.2a2 2 0 0 0-.4-.8l-14.8-20.8-.1-1.5 6.3-.4m1.2-2.1l-9.7.6.4 4 15 21.3.7 4.2s1.6 2.6 1.9 2.7l.6.2c.5 0 1-.4.9-1.2 0-1.2-.8-2.5-.2-2.6 1.1 0 1 3.8 2.3 5 .2.2.5.3.8.3 1.1 0 2.3-1.2 2.6-1.7.3-.7.7-2.3 0-5.1a9.2 9.2 0 0 0-3.1-5.2l-6.2-9.2-6-13.3z" fill="#EDA600"/><linearGradient id="c" x1="2.7" x2="2.7" y1="84.1" y2="84.1" gradientTransform="matrix(-1 0 0 1 127.5 0)" gradientUnits="userSpaceOnUse"><stop stop-color="#FFB300" offset="0"/><stop stop-color="#FFCA28" offset=".4"/></linearGradient><path d="M124.8 84.2v-.3.3z" fill="url(#c)"/><linearGradient id="d" x1="106.2" x2="123.2" y1="58" y2="86.1" gradientTransform="matrix(-1 0 0 1 127.5 0)" gradientUnits="userSpaceOnUse"><stop stop-color="#FFB300" offset="0"/><stop stop-color="#FFCA28" offset=".4"/></linearGradient><path d="M5.1 87c-.5 0-1.5-.9-1.6-1.2-.2-.3-.7-1.6 0-4.4a8.2 8.2 0 0 1 3-4.8l6.2-9.2v-.2l5.8-12.7 8 .5-.3 2.8-15 21-.1.5-.6 4A28 28 0 0 1 9 85.4v-.1l.2-1.1c.2-.7.4-1.3 0-1.9-.1-.3-.4-.5-.7-.6h-.4c-1.3 0-1.7 1.5-2 3-.2.7-.5 1.9-.9 2.2H5z" fill="url(#d)"/><path d="M19 55.6l6.4.4-.1 1.5-14.9 20.8a2 2 0 0 0-.3.8l-.3 2.2a2.3 2.3 0 0 0-1.6-.6c-2.1 0-2.6 2.1-3 3.7-.1.3-.2 1-.4 1.3-.2 0-.4-.3-.5-.4 0-.2-.4-1.2.3-3.6.5-2.2.8-2.6 2.5-4.3l.2-.3a3209.1 3209.1 0 0 0 6.4-9.5l5.4-12m-1.3-2.1l-6 13.3L5.7 76a9.1 9.1 0 0 0-3 5.2c-.8 2.8-.5 4.4-.1 5C2.8 86.8 4 88 5 88c.3 0 .6-.1.9-.4 1.2-1 1.1-5 2.2-5h.1c.6.2-.2 1.5-.2 2.7 0 .8.4 1.2 1 1.2.1 0 .3 0 .5-.2.3-.1 1.8-2.7 1.8-2.7l.7-4.2 15.1-21.2.3-4.1-9.7-.6z" fill="#EDA600"/><linearGradient id="e" x1="95.9" x2="95.9" y1="84.1" y2="84.1" gradientTransform="translate(-93.3)" gradientUnits="userSpaceOnUse"><stop stop-color="#FFB300" offset="0"/><stop stop-color="#FFCA28" offset=".4"/></linearGradient><path d="M2.7 84.2v-.3.3z" fill="url(#e)"/><path d="M2.7 84zm0 0v-.2z" fill="#EDA600"/><linearGradient id="f" x1="57.5" x2="67.1" y1="84.7" y2="84.7" gradientTransform="scale(-1 1) rotate(8.2 -1 -806.4)" gradientUnits="userSpaceOnUse"><stop stop-color="#FFB300" offset="0"/><stop stop-color="#FFCA28" offset=".4"/></linearGradient><path d="M60.4 85.4c0 1.6 1 .6 1.6 1.1s.8 1.1 2 1.5c.9.2 1.7-.4 2.1-.2.7.4.3.6 1.1.9 2 .5 2.3-1.7 2-2.3-.6-2.3 1 .5.8-1.5s-3.4-4.6-5.5-4.6c-1.9 0-4.1 2-4.1 5.1z" fill="url(#f)" stroke="#EDA600" stroke-linecap="round" stroke-linejoin="round" stroke-miterlimit="10" stroke-width="2"/><linearGradient id="g" x1="59.1" x2="76.7" y1="86.9" y2="60" gradientTransform="matrix(-1 0 0 1 127.5 0)" gradientUnits="userSpaceOnUse"><stop stop-color="#FFCA28" offset=".6"/><stop stop-color="#FFB300" offset="1"/></linearGradient><path d="M68.5 88.2c-.5 0-.9 0-1.8-1.4l-.8-1.5c-.5-1-1-2-2.4-2.1h-.2c-1.3 0-1.6 1.3-1.8 2.1l-.3 1h-.5c-.8-.4-1.4-.7.4-5.4a1 1 0 0 0 0-1L48 58l-.3-2.8h7.4c1 2.4 4.4 10.6 6.1 13.4l4.7 8.3.2.3 1.1.9c1.5 1 3.2 2.4 4.5 4.2.7.9 1 1.6-.3 3.4l-.5.7c-.7 1.1-1.2 1.9-2 1.9h-.4z" fill="url(#g)"/><path d="M54.5 56a118 118 0 0 0 6 13l4.6 8.3.5.6 1.1.9a20 20 0 0 1 4.3 4c.5.6.7.9-.3 2.3l-.5.7c-.4.6-.9 1.4-1.2 1.4h-.7s-.3-.2-.8-1l-.7-1.4c-.6-1-1.2-2.4-3.2-2.6h-.3c-.9 0-1.5.3-1.9.8l.7-1.8a2 2 0 0 0-.2-1.7L49 57.5v-1.4h5.5m1.3-2h-9l.3 4 13.1 22.4c-1.8 4.8-1.6 5.9 0 6.7l.5.1.9-.1c1-.4.7-3 1.7-3 1.4.1 1.3 1.2 2.6 3.1 1.1 1.8 1.8 1.9 2.7 1.9h.4c1.8 0 2.6-2 3.3-3 1.6-2.1 1.3-3.3.4-4.6-1.9-2.4-4.4-4.1-5.8-5.3L62.2 68c-2-3-6.4-13.8-6.4-13.8z" fill="#EDA600"/><linearGradient id="h" x1="56.8" x2="59.6" y1="85.4" y2="85.4" gradientTransform="scale(-1 1) rotate(-13.7 -5.8 616)" gradientUnits="userSpaceOnUse"><stop stop-color="#FFB300" offset="0"/><stop stop-color="#FFCA28" offset=".4"/></linearGradient><path d="M70.2 86.8c-1.3-2-2.2-3-2.2-3" fill="url(#h)" stroke="#EDA600" stroke-linecap="round" stroke-linejoin="round" stroke-miterlimit="10"/><linearGradient id="i" x1="55.6" x2="58.7" y1="83.7" y2="83.7" gradientTransform="scale(-1 1) rotate(-13.7 -5.8 616)" gradientUnits="userSpaceOnUse"><stop stop-color="#FFB300" offset="0"/><stop stop-color="#FFCA28" offset=".4"/></linearGradient><path d="M71.8 85.4c-1.3-2-2.5-3-2.5-3" fill="url(#i)" stroke="#EDA600" stroke-linecap="round" stroke-linejoin="round" stroke-miterlimit="10"/><g fill="#EDA602"><path d="M67 86.5h.2c.4.2.5.6.4 1l-.4.7a.6.6 0 0 1-.9.3c-.3-.1-.4-.5-.3-.8l.4-.8c0-.3.3-.4.6-.4m0-.9c-.6 0-1.2.4-1.4 1l-.4.7c-.2.4-.2.8 0 1.2.1.4.4.7.8.8l.6.2c.6 0 1.2-.4 1.4-1l.4-.7a1.5 1.5 0 0 0-1.4-2.2z"/><path d="M65.8 84.4h.2c.3.2.5.5.4.9l-.5 1.4a.7.7 0 0 1-.8.5.7.7 0 0 1-.4-.9L65 85c.1-.3.4-.5.7-.5m0-.9c-.7 0-1.4.5-1.6 1.1l-.4 1.5a1.6 1.6 0 0 0 1.5 2c.7 0 1.3-.4 1.5-1l.5-1.5c.1-.4 0-.8-.1-1.2-.2-.4-.5-.7-1-.8l-.4-.1z"/><path d="M64.7 83.1l.3.1c.3.2.4.6.3 1l-1.2 2-.6.3H63a.7.7 0 0 1-.2-1l1.2-2c.1-.3.3-.4.6-.4m0-1c-.6 0-1.1.4-1.4.9L62 85c-.2.4-.3.8-.2 1.3a1.6 1.6 0 0 0 1.6 1.1c.5 0 1-.3 1.4-.8l1.2-2a1.6 1.6 0 0 0-1.4-2.4z"/><path d="M62.8 82.5l.3.1c.4.2.6.6.4 1L63 85a.7.7 0 0 1-1 .3c-.4-.2-.6-.6-.4-1l.7-1.4c0-.3.3-.5.6-.5m0-.9c-.6 0-1.2.4-1.5 1l-.7 1.5a1.6 1.6 0 0 0 .9 2.1c.3.2.5.2.7.2.6 0 1.2-.4 1.5-1l.7-1.5c.3-.8 0-1.7-.8-2.1h-.1l-.7-.2z"/></g><path d="M66.3 88.1c.3.2.8 0 1-.3l.1-.4c.2-.4 0-.8-.3-1s-.8 0-1 .4l-.1.4c-.2.3 0 .7.3.9zm-1.5-.8c.3.1.7 0 .9-.3l.6-1.4c.2-.3 0-.7-.3-1a.7.7 0 0 0-.9.4l-.7 1.4c-.1.3 0 .7.3.9zm-1.8-.9c.4.2.8 0 1-.3l1-2c.2-.4.1-.8-.2-1s-.8 0-1 .3l-1 2.1c-.2.4 0 .8.2 1zm-1.6-.9c.4.2.8 0 1-.3l1-1.8c0-.4 0-.8-.4-1a.7.7 0 0 0-1 .3l-.9 1.9c-.2.3 0 .7.3.9z" fill="#FFCA28"/><radialGradient id="j" cx="91.4" cy="-2.1" r="21.8" gradientTransform="matrix(-1 0 0 1 127.5 0)" gradientUnits="userSpaceOnUse"><stop stop-color="#6D4C41" offset="0"/><stop stop-color="#543930" offset="1"/></radialGradient><path d="M36 4c18.2 0 18 16.8 18 17 0 11-.8 26.4-5.2 32.4-1.7 2.4-5 2.5-5 2.5H28.6s-3.4 0-5-2.5c-4.4-6-5.3-21.4-5.3-32.3C18.4 20.8 17.8 4 36 4z" fill="url(#j)"/><path d="M36 6c5 0 9 1.4 11.7 4.1a16.9 16.9 0 0 1 4.3 11c0 15.8-1.7 26.8-4.8 31.1-1 1.5-3.3 1.7-3.5 1.7H28.8c-.3 0-2.5-.2-3.5-1.7-3.1-4.3-4.8-15.3-4.8-31.1 0-.8 0-6.9 4-11C27.1 7.3 31 6 36 6m0-2C17.8 4 18.4 20.8 18.4 21c0 11 .9 26.4 5.2 32.4 1.8 2.4 5.1 2.5 5.1 2.5h15.1s3.3 0 5-2.5c4.4-6 5.2-21.4 5.2-32.3 0-.3.2-17.1-18-17.1z" fill="#402821"/><linearGradient id="k" x1="36.1" x2="36.1" y1="122.7" y2="78" gradientTransform="matrix(-1 0 0 1 127.5 0)" gradientUnits="userSpaceOnUse"><stop stop-color="#616161" offset="0"/><stop stop-color="#6B6B6B" offset=".4"/><stop stop-color="#6E6E6E" offset="1"/></linearGradient><path d="M105.3 78v44.7h-5.6l-7.9-38.2c0-.3-.2-.4-.5-.4s-.4.1-.4.4L83 122.7h-5.6V78h28z" fill="url(#k)"/><path d="M100.6 121.7l-7.7-37.4c-.2-.7-.8-1.2-1.5-1.2s-1.3.5-1.4 1.2l-7.7 37.4h-3.9v-46h26v46h-3.8z" fill="#616161"/><path d="M103.4 76.6v44h-2l-7.6-36.5c-.2-1.2-1.2-2-2.4-2s-2.2.8-2.4 2l-7.6 36.6h-2v-44h24m2-2h-28v48h5.7L91 84.5c0-.3.2-.4.4-.4s.4.1.5.4l7.8 38.2h5.7v-48z" fill="#4F4F4F"/><path d="M102.3 124h4.5c.8 0 1.4-1 1.2-1.8a6 6 0 0 0-5.7-4.3 6 6 0 0 0-5.6 4.5c-.3.8.4 1.6 1.2 1.6h4.4zm-22 0h-4.5c-.8 0-1.4-1-1.1-1.8a6 6 0 0 1 5.6-4.3 6 6 0 0 1 5.7 4.5c.2.8-.4 1.6-1.3 1.6h-4.4z" fill="#2B2D2D"/><linearGradient id="l" x1="36" x2="36" y1="44.8" y2="77" gradientTransform="matrix(-1 0 0 1 127.5 0)" gradientUnits="userSpaceOnUse"><stop stop-color="#00BFA5" offset="0"/><stop stop-color="#00B29A" offset=".7"/><stop stop-color="#00AB94" offset="1"/></linearGradient><path d="M78.5 77V59.7a1 1 0 0 0-.7-1L70.4 56c2-5.5 4-8.3 10.7-10 2.3-.7 6.4-1 10.3-1h.1c3.9 0 8 .3 10.3 1 6.6 1.7 8.5 4.5 10.6 10l-7.3 2.9a1 1 0 0 0-.6 1V77h-26z" fill="url(#l)"/><path d="M91.5 45.8c3.8 0 7.8.4 10 1 5.9 1.6 7.7 3.8 9.7 8.6l-6.5 2.5a2 2 0 0 0-1.2 1.8V76h-24V59.7a2 2 0 0 0-1.3-1.9l-6.5-2.4c1.8-4.7 3.8-7 9.6-8.6 2.2-.6 6.3-1 10-1h.2m0-2h-.1c-4 0-8.2.4-10.6 1-7.5 2-9.4 5.6-11.7 11.7l8.4 3.2V78h28V59.7l8.2-3.2c-2.2-6-4-9.6-11.6-11.6-2.4-.7-6.6-1-10.6-1z" fill="#009984"/><path d="M90.9 49.9a4 4 0 0 1-4-3.9v-4.8h9V46a4 4 0 0 1-4 3.9h-1z" fill="#E49800"/><path d="M95.3 41.7V46c0 1.9-1.5 3.4-3.5 3.4h-.9c-2 0-3.6-1.5-3.6-3.4v-4.3h8m1-1h-10V46c0 2.4 2 4.4 4.6 4.4h1c2.4 0 4.5-2 4.5-4.4v-5.3z" fill="#C78500"/><defs><path id="m" transform="rotate(-180 91.4 24)" d="M71.4 4h40v40h-40z"/></defs><clipPath id="n"><use xlink:href="#m"/></clipPath><g clip-path="url(#n)"><path d="M79.4 33.8c-2.3 0-4.2-2-4.2-4.5s1.9-4.5 4.2-4.5h24c2.3 0 4.1 2 4.1 4.5s-1.8 4.5-4.1 4.5h-24z" fill="#E59600"/><path d="M103.3 25.3c2 0 3.7 1.8 3.7 4s-1.6 4-3.7 4H79.4c-2 0-3.7-1.7-3.7-4s1.7-4 3.7-4h24m0-1h-24c-2.6 0-4.7 2.3-4.7 5s2.1 5 4.7 5h24c2.5 0 4.6-2.2 4.6-5s-2-5-4.7-5z" fill="#CC8600"/><linearGradient id="o" x1="36" x2="36" y1="7" y2="43.5" gradientTransform="matrix(-1 0 0 1 127.5 0)" gradientUnits="userSpaceOnUse"><stop stop-color="#FFCA28" offset=".6"/><stop stop-color="#FFB300" offset="1"/></linearGradient><path d="M91.4 43.5c-6.8 0-14.2-5.3-14.2-17 0-9.3 5.5-19.3 14.2-19.3s14.2 10 14.2 19.4c0 11.6-7.3 16.9-14.2 16.9z" fill="url(#o)"/><path d="M91.4 7.7c3.5 0 6.9 1.8 9.4 5.1 2.8 3.6 4.3 8.4 4.3 13.8 0 5.1-1.5 9.4-4.3 12.4-2.5 2.6-5.8 4-9.4 4s-7-1.4-9.4-4c-2.8-3-4.3-7.3-4.3-12.4 0-5.4 1.5-10.2 4.3-13.8a12 12 0 0 1 9.4-5.1m0-1c-7.6 0-14.7 8.1-14.7 19.9C76.7 38.1 84 44 91.4 44s14.7-5.8 14.7-17.4c0-11.8-7-20-14.7-20z" fill="#EDA600"/><path d="M101.9 24.5l-.2-.3-.2-.2-.2-.2-.2-.1-.3-.2-.2-.1-.3-.1-.3-.2-.7-.1H98l-.7.1-.3.2h-.3l-.2.2-.3.2-.2.1-.2.2-.1.1-.1.1-.2.3a.7.7 0 0 0 .8 1h.2l.1-.1h.2c0-.1.1-.2.3-.2h.1l.2-.1h.2l.2-.1h2.3l.2.1.2.1h.2l.1.1h.1l.3.2c.3.2.8 0 1-.4 0-.2 0-.4-.2-.6zm-20.2 1h.3v-.1h.2l.1-.1h.2l.2-.1h.2V25h.4l.4-.1h1.6l.2.1h.1l.2.1.3.1h.2v.1l.3.1h.1a.7.7 0 0 0 .8-1l-.2-.2-.1-.2-.2-.1a2.6 2.6 0 0 0-.6-.5l-.2-.1-.3-.1-.3-.1-.7-.2h-1.4c-.3 0-.5 0-.7.2h-.3l-.3.2-.3.1-.2.2-.2.1-.2.2-.2.2-.2.3c-.2.3-.2.8.2 1h.6z" fill="#6D4C41"/><g fill="#404040"><ellipse cx="98.6" cy="28.4" rx="2.2" ry="2.2"/><ellipse cx="84.2" cy="28.4" rx="2.2" ry="2.2"/></g><radialGradient id="p" cx="36.1" cy="5.1" r="13.3" gradientTransform="matrix(-1 0 0 1 127.5 0)" gradientUnits="userSpaceOnUse"><stop stop-color="#6D4C41" offset="0"/><stop stop-color="#543930" offset="1"/></radialGradient><path d="M91.3 4c20 0 15.8 23 15.8 23l-2.1 3.7a42 42 0 0 0-2.1-11.2 2.8 2.8 0 0 0-3-1.7 49.2 49.2 0 0 1-16.8 0c-1.3-.2-2.7.7-3 2l-2.5 11-2-4S71.3 4 91.2 4z" fill="url(#p)"/><defs><path id="q" d="M91.3 4c20 0 16 22.5 16 22.5l-2.3 4.2-.4-3.5c.7-1.4 1.1-3 1.1-4.8V22l-1.1-4.4-13.3-8.2-13 8.1-1 5-.1.5c.2 1.5.6 2.8 1.2 4.2l-.8 3.5-2.1-4.2S71.5 4 91.2 4z"/></defs><clipPath id="r"><use xlink:href="#q"/></clipPath><g clip-path="url(#r)"><path d="M91.3 6c4.8 0 8.5 1.4 10.9 4.3 2.9 3.4 3.5 8.2 3.5 11.7-.3-1.3-.7-2.4-1-3.2a4.7 4.7 0 0 0-5.2-3 46.3 46.3 0 0 1-16.8 0c-2.2 0-4 1.5-4.5 3.5l-1 4c-.1-3.4.2-9.2 3.5-13.1C83 7.4 86.6 6 91.3 6m0-2C71.4 4 75.5 26.7 75.5 26.7l2.1 4 2.5-10.9a2.7 2.7 0 0 1 3-2 49 49 0 0 0 17.3 0c1 0 2 .7 2.5 1.7.9 2.4 2.2 8 2 11.2l2.5-4.2S111.4 4 91.2 4z" fill="#402821"/></g><path d="M87.8 36.4c1.4.9 6 .9 7.4 0 .8-.4 1.6.3 1.2 1-.3.7-2.8 2.4-5 2.4s-4.6-1.7-4.9-2.4c-.3-.7.5-1.4 1.3-1z" fill="#795548"/><path d="M90 32.4h3.4c.2.1.4.4.3.7-.2.3-.8 1.2-2 1.2s-1.9-.9-2-1.2c-.2-.3 0-.6.3-.7z" fill="#E59600"/></g><linearGradient id="s" x1="91.1" x2="91.1" y1="122.7" y2="78" gradientTransform="matrix(-1 0 0 1 127.5 0)" gradientUnits="userSpaceOnUse"><stop stop-color="#616161" offset="0"/><stop stop-color="#6B6B6B" offset=".4"/><stop stop-color="#6E6E6E" offset="1"/></linearGradient><path d="M50.3 78v44.7h-5.6l-7.9-38.2c0-.3-.2-.4-.4-.4s-.5.1-.5.4L28 122.7h-5.6V78h28z" fill="url(#s)"/><path d="M45.6 121.7l-7.7-37.4c-.2-.7-.8-1.2-1.5-1.2s-1.3.5-1.4 1.2l-7.7 37.4h-3.9v-46h26v46h-3.8z" fill="#616161"/><path d="M48.4 76.6v44h-2l-7.6-36.5c-.2-1.2-1.2-2-2.4-2s-2.2.8-2.4 2l-7.6 36.6h-2v-44h24m2-2h-28v48h5.7L36 84.5c0-.3.2-.4.4-.4s.4.1.5.4l7.9 38.2h5.6v-48z" fill="#4F4F4F"/><path d="M47.3 124h4.5c.8 0 1.4-1 1.2-1.8a6 6 0 0 0-5.7-4.3 6 6 0 0 0-5.6 4.5c-.3.8.4 1.6 1.2 1.6h4.4zm-22 0h-4.5c-.8 0-1.4-1-1.1-1.8a6 6 0 0 1 5.6-4.3 6 6 0 0 1 5.7 4.5c.2.8-.4 1.6-1.3 1.6h-4.4z" fill="#2B2D2D"/><linearGradient id="t" x1="91" x2="91" y1="44.8" y2="77" gradientTransform="matrix(-1 0 0 1 127.5 0)" gradientUnits="userSpaceOnUse"><stop stop-color="#a0f" offset="0"/><stop stop-color="#A100F2" offset=".4"/><stop stop-color="#9000D9" offset="1"/></linearGradient><path d="M23.5 77V59.7a1 1 0 0 0-.7-1L15.4 56c2-5.5 4-8.3 10.7-10 2.3-.7 6.4-1 10.3-1h.1c3.9 0 8 .3 10.3 1 6.6 1.7 8.5 4.5 10.6 10l-7.3 2.9a1 1 0 0 0-.6 1V77h-26z" fill="url(#t)"/><path d="M36.5 45.8c3.8 0 7.8.4 10 1 5.9 1.6 7.7 3.8 9.6 8.6l-6.4 2.5a2 2 0 0 0-1.3 1.8V76h-24V59.7a2 2 0 0 0-1.2-1.9l-6.5-2.4c1.8-4.7 3.8-7 9.6-8.6 2.2-.6 6.3-1 10-1h.2m0-2h-.1c-4 0-8.2.4-10.6 1-7.5 2-9.4 5.6-11.7 11.7l8.4 3.2V78h28V59.7l8.2-3.2c-2.2-6-4-9.6-11.6-11.6-2.4-.7-6.6-1-10.6-1z" fill="#7F00BF"/><path d="M35.4 49.9a4 4 0 0 1-4-3.9v-4.8h9V46a4 4 0 0 1-4 3.9h-1z" fill="#E49800"/><path d="M39.9 41.7V46c0 1.9-1.6 3.4-3.6 3.4h-.9c-2 0-3.5-1.5-3.5-3.4v-4.3h8m1-1h-10V46c0 2.4 2 4.4 4.5 4.4h1c2.5 0 4.5-2 4.5-4.4v-5.3z" fill="#C78500"/><defs><path id="u" transform="rotate(-180 36 31.8)" d="M16 4h40v55.6H16z"/></defs><clipPath id="v"><use xlink:href="#u"/></clipPath><g clip-path="url(#v)"><linearGradient id="w" x1="91.5" x2="91.5" y1="44.4" y2="18.3" gradientTransform="matrix(-1 0 0 1 127.5 0)" gradientUnits="userSpaceOnUse"><stop stop-color="#FFB300" offset="0"/><stop stop-color="#FFCA28" offset=".4"/></linearGradient><path d="M36 43.5c-1 0-2.2-.3-3.4-.7a17 17 0 0 1-10.9-16.7c0-12.7 7.7-17.2 14.2-17.2 6.6 0 14.2 4.5 14.2 17.2 0 9.5-5.8 15-10.8 16.8-1.2.4-2.3.6-3.4.6z" fill="url(#w)"/><path d="M36 9.4c6.3 0 13.6 4.4 13.6 16.7 0 9.2-5.6 14.5-10.5 16.3-1.1.4-2.2.6-3.2.6s-2-.2-3.1-.6c-4.9-1.7-10.5-7-10.5-16.3 0-12.3 7.3-16.7 13.6-16.7m0-1C28.3 8.4 21.2 14 21.2 26c0 9.7 6 15.4 11.3 17.2a9 9 0 0 0 6.9 0A17.7 17.7 0 0 0 50.6 26c0-12-7-17.7-14.7-17.7z" fill="#EDA600"/><radialGradient id="x" cx="93.4" cy="35.1" r="3.9" gradientTransform="matrix(-.9783 0 0 .9783 126.9 3.7)" gradientUnits="userSpaceOnUse"><stop stop-color="#543930" offset="0"/><stop stop-color="#543930" offset="1"/></radialGradient><path d="M31.9 36.4c1.4.9 6 .9 7.3 0 .8-.4 1.6.3 1.3 1-.3.7-2.8 2.4-5 2.4s-4.6-1.7-5-2.4c-.3-.7.6-1.4 1.4-1z" fill="url(#x)"/><g fill="#404040"><ellipse cx="43.1" cy="28.3" rx="2.2" ry="2.2"/><ellipse cx="28.5" cy="28.3" rx="2.2" ry="2.2"/></g><path d="M34 32.4h3.6c.3.1.4.4.3.7-.2.3-.8 1.2-2 1.2s-1.9-.9-2-1.2c-.1-.3 0-.6.3-.7z" fill="#E59600"/><path d="M39.7 24.3c.4-.5 1.4-1.3 3.2-1.3s2.8.8 3.2 1.3c.2.3.2.5 0 .7 0 .2-.4.3-.8.2s-1.1-.5-2.4-.5c-1.2 0-2 .4-2.3.5s-.8 0-.9-.2a.6.6 0 0 1 0-.7zm-14.3 0c.5-.5 1.4-1.3 3.3-1.3s2.8.8 3.2 1.3c.2.3.1.5 0 .7-.1.2-.5.3-.9.2s-1-.5-2.3-.5c-1.3 0-2 .4-2.4.5s-.7 0-.8-.2a.6.6 0 0 1 0-.7z" fill="#6D4C41"/></g><defs><path id="y" transform="rotate(-180 36 32.9)" d="M16 4h40v57.8H16z"/></defs><clipPath id="z"><use xlink:href="#y"/></clipPath><g clip-path="url(#z)"><linearGradient id="A" x1="91.5" x2="91.5" y1="43.2" y2="18.9" gradientTransform="matrix(-1 0 0 1 127.5 0)" gradientUnits="userSpaceOnUse"><stop stop-color="#FFB300" offset="0"/><stop stop-color="#FFCA28" offset="1"/></linearGradient><path d="M36 43.5c-1 0-2.2-.3-3.4-.7a17 17 0 0 1-10.9-16.7c0-12.7 7.7-17.2 14.2-17.2 6.6 0 14.2 4.5 14.2 17.2 0 9.5-5.8 15-10.8 16.8-1.2.4-2.3.6-3.4.6z" fill="url(#A)"/><path d="M36 9.4c6.3 0 13.6 4.4 13.6 16.7 0 9.2-5.6 14.5-10.5 16.3-1.1.4-2.2.6-3.2.6s-2-.2-3.1-.6c-4.9-1.7-10.5-7-10.5-16.3 0-12.3 7.3-16.7 13.6-16.7m0-1C28.3 8.4 21.2 14 21.2 26c0 9.7 6 15.4 11.3 17.2a9 9 0 0 0 6.9 0A17.7 17.7 0 0 0 50.6 26c0-12-7-17.7-14.7-17.7z" fill="#EDA600"/><g fill="#404040"><ellipse cx="43" cy="28.3" rx="2.2" ry="2.2"/><ellipse cx="28.6" cy="28.3" rx="2.2" ry="2.2"/></g><path d="M34.3 32.4h3.4c.2.1.4.4.3.7-.2.3-.8 1.2-2 1.2s-1.9-.9-2-1.2c-.2-.3 0-.6.3-.7z" fill="#E59600"/><path d="M39.8 24.3c.5-.5 1.4-1.3 3.3-1.3 1.8 0 2.8.8 3.2 1.3v.7c-.1.2-.5.3-.9.2s-1.1-.5-2.3-.5c-1.3 0-2 .4-2.4.5s-.7 0-.8-.2a.5.5 0 0 1 0-.7zm-14.4 0c.4-.5 1.4-1.3 3.2-1.3s2.8.8 3.2 1.3c.2.3.2.5 0 .7 0 .2-.4.3-.8.2s-1.1-.5-2.3-.5c-1.3 0-2 .4-2.4.5s-.7 0-.9-.2a.5.5 0 0 1 0-.7z" fill="#6D4C41"/><radialGradient id="B" cx="124.6" cy="3.4" r="16.5" gradientTransform="matrix(0 1 -.9288 0 39.3 -121.1)" gradientUnits="userSpaceOnUse"><stop stop-color="#6D4C41" offset="0"/><stop stop-color="#543930" offset="1"/></radialGradient><path d="M51.8 22.1c0-5.8-3.8-15.6-15.6-15.6-12 0-15.8 11.4-15.8 15.6a59 59 0 0 0 2.4 21.8c.3.5 1 .8 1.2-.4 0 0-.9-7.8-1-13.3 0-1.3-.4-6.1 2.3-6.7 10-2.3 15.5-7.5 15.5-7.5 1.5 3.2 6 6.3 7.7 7.4 1.3 1 1.1 5 1.1 6.7l-1.3 13.3s0 3.2 1.4.5c1.3-2.6 2-17.5 2-21.8z" fill="url(#B)"/><path d="M32.3 36c1.4.8 6 .8 7.4 0 .8-.5 1.6.2 1.2 1-.3.7-2.8 2.3-5 2.3S31.5 37.8 31 37c-.3-.8.5-1.5 1.3-1z" fill="#795548"/></g></svg>