<svg viewBox="0 0 128 128" xmlns="http://www.w3.org/2000/svg" xmlns:xlink="http://www.w3.org/1999/xlink"><defs><path id="a" d="M4 4h120v120H4z"/></defs><clipPath id="b"><use xlink:href="#a"/></clipPath><g clip-path="url(#b)"><defs><path id="c" d="M8 20.1h84v100H8z"/></defs><clipPath id="d"><use xlink:href="#c"/></clipPath><g clip-path="url(#d)"><radialGradient id="e" cx="75.4" cy="-131.9" r="57.9" gradientTransform="matrix(.826 0 0 .826 -12 101.3)" gradientUnits="userSpaceOnUse"><stop stop-color="#554138" offset="0"/><stop stop-color="#3C2C23" offset="1"/></radialGradient><path d="M33 119.8s-6.8-.3-10.2-5c-7.4-10.3-11.4-35.9-11.4-72 0-1.8.3-16.5 10.7-27a38.7 38.7 0 0 1 28.5-10c12 0 21.5 3.4 28 10 9.8 10 10 24.2 10 27 0 36.2-4 61.8-11.4 72-3.3 4.6-9.8 5.1-10.3 5.1H33z" fill="url(#e)"/><path d="M50.6 7.2c11.6 0 20.7 3.2 27 9.6A38.5 38.5 0 0 1 87 42.6v.1c0 36-4 61.2-11.1 71.2-2.9 3.9-8.6 4.4-9.1 4.4H33c-.6 0-6.2-.5-9-4.4-7.3-10-11.2-35.3-11.2-71.2 0-.6 0-15.6 10.2-25.8a37.3 37.3 0 0 1 27.5-9.7m0-3C9.6 4.2 9.9 42 9.9 42.7c0 24.6 1.9 59.3 11.7 73 3.9 5.3 11.4 5.6 11.4 5.6h34s7.5-.3 11.4-5.7c9.8-13.6 11.7-48.3 11.7-72.9 0-.6 1.5-38.5-39.5-38.5z" fill="#291D15"/></g></g><g clip-path="url(#b)"><linearGradient id="f" x1="50" x2="50" y1="97.3" y2="136.1" gradientUnits="userSpaceOnUse"><stop stop-color="#448AFF" offset="0"/><stop stop-color="#3B7DFF" offset=".4"/><stop stop-color="#2962FF" offset="1"/></linearGradient><path d="M-.5 136v-15.2c0-16.2 25.4-23.5 50.5-23.6h.1c25 0 50.4 8.1 50.4 23.6v15.3H-.5z" fill="url(#f)"/><path d="M50.1 98.8c13 0 25.5 2.2 34.4 6 6.6 2.8 14.5 7.9 14.5 16v13.8H1v-13.8c0-15.2 24.6-22 49-22h.1m0-3H50c-25.5 0-52 7.2-52 25v16.8h104v-16.8c0-16.7-26.3-25-51.9-25z" fill="#4073D4"/></g><g clip-path="url(#b)"><path d="M49.2 109.5c-4 0-7.3-3.2-7.3-7.1v-9h16.2v9c0 4-3.3 7.1-7.3 7.1h-1.6z" fill="#7A4C32"/><path d="M57 94.4v8a6 6 0 0 1-6.2 6.1h-1.6a6.2 6.2 0 0 1-6.3-6.1v-8h14.2m2-2H40.9v10c0 4.5 3.7 8.1 8.3 8.1h1.6c4.6 0 8.3-3.6 8.3-8.1v-10z" fill="#663B22"/></g><g clip-path="url(#b)"><path fill="#F5F5F5" d="M39.4 104.6h20l-9.4 26z"/><linearGradient id="g" x1="38" x2="38" y1="97.3" y2="120.6" gradientUnits="userSpaceOnUse"><stop stop-color="#1565C0" offset="0"/><stop stop-color="#0D47A1" offset=".7"/><stop stop-color="#0D47A1" offset="1"/></linearGradient><path fill="url(#g)" d="M27.9 105.2l8-7.7 4.3-.5 7.8 30z"/><path d="M39.4 98.1l6.6 25.3-16.7-18.2 7.1-6.8 3-.3M41 96l-5.4.5-9 8.7L50 130.6 41 96z" fill="#004EA3"/><linearGradient id="h" x1="62" x2="62" y1="97.3" y2="120.6" gradientUnits="userSpaceOnUse"><stop stop-color="#1565C0" offset="0"/><stop stop-color="#0D47A1" offset=".7"/><stop stop-color="#0D47A1" offset="1"/></linearGradient><path fill="url(#h)" d="M59.8 97.1l4.3.5 8 7.6L52 127z"/><path d="M60.6 98.2l3 .3 7.1 6.8-16.7 18 6.6-25.1M59 96l-9 34.6 23.4-25.4-9-8.6L59 96z" fill="#004EA3"/></g><g clip-path="url(#b)"><linearGradient id="i" x1="50.3" x2="50.3" y1="94.8" y2="17.9" gradientUnits="userSpaceOnUse"><stop stop-color="#8D5738" offset="0"/><stop stop-color="#97603D" offset=".2"/><stop stop-color="#A26941" offset=".6"/><stop stop-color="#A56C43" offset="1"/></linearGradient><path d="M50.3 95.3c-2.3 0-4.9-.5-7.5-1.4A38.7 38.7 0 0 1 18.1 56c0-28.7 17.3-38.9 32.1-38.9s32.1 10.2 32.1 39a38.6 38.6 0 0 1-24.6 37.8 21 21 0 0 1-7.5 1.4z" fill="url(#i)"/><path d="M50.3 18.1A29 29 0 0 1 72 27.3 41.3 41.3 0 0 1 81.4 56a38 38 0 0 1-23.9 37c-2.5.9-5 1.3-7.2 1.3s-4.7-.4-7.2-1.3c-11-4-24-16-24-37 0-12 3.4-22 9.7-28.8a29 29 0 0 1 21.5-9.1m0-2c-17.2 0-33.1 12.8-33.1 40a39.8 39.8 0 0 0 25.2 38.7 24 24 0 0 0 8 1.5c2.3 0 5-.5 7.8-1.4A39.8 39.8 0 0 0 83.4 56c0-27.1-15.9-39.9-33-39.9z" fill="#875334"/><defs><path id="j" d="M16.4 89L15 37.4c0-17 15.8-29.9 32.7-29.9h5c17 0 32.5 13 32.5 29.9l-1.5 51.1-67.2.3z"/></defs><clipPath id="k"><use xlink:href="#j"/></clipPath><g clip-path="url(#k)"><radialGradient id="l" cx="93.3" cy="-123.1" r="48.2" gradientTransform="matrix(.796 0 0 .796 -24.3 97.6)" gradientUnits="userSpaceOnUse"><stop stop-color="#554138" offset="0"/><stop stop-color="#3C2C23" offset="1"/></radialGradient><path d="M87.9 42.7S88.9 7.1 50 7.1 12 42.7 12 42.7s.3 45.5 3.2 51.4 7.2 5.7 7.2 5.7-2-26.5-2.3-39c0-3-.9-13.8 5.2-15.1 22.4-5 35-16.9 35-16.9C63.7 36 74 43 77.7 45.7c3 2.1 2.6 11.2 2.5 15l-3 39s4.7.4 7.6-5.6c3-6 3-51.4 3-51.4z" fill="url(#l)"/></g><path d="M54.4 68.1h-7.7c-.6.3-1 1-.6 1.6s1.6 2.7 4.4 2.7 4.2-2 4.5-2.7c.3-.7 0-1.3-.6-1.6z" fill="#875334"/><g fill="#42312C"><ellipse cx="35.3" cy="58.9" rx="4.9" ry="5"/><ellipse cx="65.8" cy="58.9" rx="4.9" ry="5"/><path d="M41.5 49.9c-.9-1.2-3-3-7.2-3s-6.3 1.8-7.2 3c-.4.5-.3 1.2 0 1.5.2.4 1 .7 1.9.4s2.5-1.1 5.3-1.2c2.8 0 4.5 1 5.4 1.2s1.6 0 1.9-.4c.3-.3.4-1 0-1.5zm32.5 0c-.9-1.2-3-3-7.2-3s-6.3 1.8-7.2 3c-.4.5-.3 1.2 0 1.5.2.4 1 .7 1.9.4s2.5-1.1 5.3-1.2c2.8 0 4.5 1 5.4 1.2s1.6 0 1.9-.4c.2-.3.3-1 0-1.5z"/></g><path d="M58.6 76.2a25.3 25.3 0 0 1-16.6 0c-1.8-1-3.6.6-2.9 2.2.7 1.6 6.4 5.4 11.2 5.4s10.5-3.8 11.2-5.4c.8-1.6-1-3.3-2.9-2.2z" fill="#473530"/></g><g clip-path="url(#b)"><linearGradient id="m" x1="10" x2="10" y1="29" y2="45.1" gradientUnits="userSpaceOnUse"><stop stop-color="#BDBDBD" offset="0"/><stop stop-color="#757575" offset="1"/></linearGradient><path d="M8 43a3 3 0 0 1-3-3v-8a3 3 0 0 1 3-3h4a3 3 0 0 1 3 3v8a3 3 0 0 1-3 3H8z" fill="url(#m)"/><path d="M12 30a2 2 0 0 1 2 2v8a2 2 0 0 1-2 2H8a2 2 0 0 1-2-2v-8c0-1 .9-2 2-2h4m0-2H8a4 4 0 0 0-4 4v8a4 4 0 0 0 4 4h4a4 4 0 0 0 4-4v-8a4 4 0 0 0-4-4z" fill="#807978"/><linearGradient id="n" x1="90" x2="90" y1="29" y2="45.1" gradientUnits="userSpaceOnUse"><stop stop-color="#BDBDBD" offset="0"/><stop stop-color="#757575" offset="1"/></linearGradient><path d="M88 43a3 3 0 0 1-3-3v-8a3 3 0 0 1 3-3h4a3 3 0 0 1 3 3v8a3 3 0 0 1-3 3h-4z" fill="url(#n)"/><path d="M92 30a2 2 0 0 1 2 2v8a2 2 0 0 1-2 2h-4a2 2 0 0 1-2-2v-8c0-1 .9-2 2-2h4m0-2h-4a4 4 0 0 0-4 4v8a4 4 0 0 0 4 4h4a4 4 0 0 0 4-4v-8a4 4 0 0 0-4-4z" fill="#807978"/><path d="M78.7 21.7H21.3V6.3S26.7 4 48 4c13.2 0 30.7 2.5 30.7 2.5v15.2z" fill="#423F3E" opacity=".7"/><path d="M49.6 32.8c-13.3 0-31 6.5-39.1 11v9.9c7.5-6.4 22.8-11.5 39.1-11.5 16.5 0 29 6.3 39.8 11.6 0-2.1.4-10.2-.7-12.7-8-4.7-25.6-8.3-39.1-8.3z" fill="#807978"/><linearGradient id="o" x1="50" x2="50" y1="4.4" y2="51.6" gradientUnits="userSpaceOnUse"><stop stop-color="#BDBDBD" offset="0"/><stop stop-color="#757575" offset="1"/></linearGradient><path d="M90 31.6c0-1-.3-2.1-.7-3.1L81.5 9a7.8 7.8 0 0 0-3-3c-.3-.2-.5 0-.5.3v9c0 1-.8 1.8-1.8 1.8H23.8c-1 0-1.8-.8-1.8-1.8V6.2c0-.2-.2-.3-.3-.2a8 8 0 0 0-3.2 3l-7.8 19.4a8 8 0 0 0-.6 3L6 56.3v.4c.2.6.6 1.8 1.7 2.5 0 0 11.3-19.4 40.6-21.6h3.4C81 39.7 92.2 59 92.2 59a4 4 0 0 0 1.7-2.5l.1-.4-4-24.6z" fill="url(#o)"/><path d="M67.6 28c-.6 0-1-.3-1-.7v-4.7c0-.4.4-.7 1-.7s1 .3 1 .7v4.7c0 .4-.5.8-1 .8zm-9.3 2c-.6 0-1-.4-1-.8v-8.4c0-.5.4-.8 1-.8s1 .3 1 .8v8.4c0 .4-.5.7-1 .7zM50 28.4c-.6 0-1-.3-1-.7v-5.4c0-.5.5-.8 1-.8s1 .3 1 .8v5.4c0 .4-.5.7-1 .7zM32.4 28c-.5 0-1-.3-1-.7v-4.7c0-.4.5-.7 1-.7s1 .3 1 .7v4.7c0 .4-.4.8-1 .8zm9.3 2c-.5 0-1-.4-1-.8v-8.4c0-.5.5-.8 1-.8s1 .3 1 .8v8.4c0 .4-.4.7-1 .7zM22 6.2c0-.2-.1-.2-.2-.2h-.1a8 8 0 0 0-3.2 3.1l-7.8 19.4c-.4 1-.6 2-.6 3.1L6 56.2v.4c.2.6.7 1.8 1.8 2.5 0 0 .7-1.3 2.3-3.2.2-.3-.2-2.3-.3-4.3L13 32.1v-.4c0-.7.2-1.4.5-2.1l7.8-19.2.7-1V6.3zm68 25.4c0-1-.3-2.1-.7-3.1L81.5 9a7.8 7.8 0 0 0-3.2-3H78v3.5c.3.2.6.5.7.8l7.8 19.2A6.6 6.6 0 0 1 87 32l3.2 19.5a40 40 0 0 0-1.1-1.1v4.4c2.2 2.4 3.2 4.2 3.2 4.2 1-.7 1.5-2 1.6-2.5l.1-.4-4-24.6z" fill="#807978"/><linearGradient id="p" x1="50" x2="50" y1="33.3" y2="59.2" gradientUnits="userSpaceOnUse"><stop stop-color="#BDBDBD" offset="0"/><stop stop-color="#757575" offset="1"/></linearGradient><path d="M7.8 59S19.3 39 50 37.5C80.7 39 92.3 59 92.3 59c1-.7 1.5-1.9 1.6-2.5-2.9-5.7-12.6-17.8-36.4-22.8-3.5-.7-11.4-.7-14.8 0-23.8 5-33.7 17-36.6 22.8A4 4 0 0 0 7.8 59z" fill="url(#p)"/></g><g clip-path="url(#b)"><g stroke-miterlimit="10"><path d="M121 54.8l-14.1-.3a7.7 7.7 0 0 0-7.8 7.8l-.6 36.3 3.8.1.6-36.4c0-2.1 1.8-3.9 3.9-3.8l14 .3.2-4z" fill="#82B1FF" stroke="#6187BF"/><path d="M106.6 60.1h-1.4a2 2 0 0 1-2-2.1v-2.2c0-1.2.9-2.1 2-2h1.5a2 2 0 0 1 2 2v2.3c0 1.1-1 2-2 2zm-3.1 30.1c0-1-1.3-2-3-2s-3 .8-3 1.9l-.5 37.8 6 .1.5-37.8z" fill="#2979FF" stroke="#4073D4"/></g><linearGradient id="q" x1="100.5" x2="100.5" y1="83.3" y2="116.9" gradientTransform="rotate(1.1 -335.7 89.2)" gradientUnits="userSpaceOnUse"><stop stop-color="#1565C0" offset="0"/><stop stop-color="#0D47A1" offset=".7"/><stop stop-color="#0D47A1" offset="1"/></linearGradient><path d="M98.2 125.4h3.7c1.6 0 2.8-1.3 2.9-3L105 95c0-1.9-1.3-3.4-3-3.4h-3.3c-1.7 0-3 1.4-3 3.3l-.4 27.3c0 1.8 1.2 3.2 2.7 3.2z" fill="url(#q)" stroke="#30569E" stroke-miterlimit="10"/><path d="M113.6 62.3c-3 0-6.1-1.6-6.8-5.3-.2-1.2-.1-3.1.3-4a6.3 6.3 0 0 1 2.9-2.7c1-.5 2.2-.8 3.2-.8h.2c2.3 0 4.7 1 6.8 2.8l.1.1c1.2 1 2.5 2.1 2.8 3.4.7 2.5-3.8 5-6.7 6-1 .4-1.9.5-2.8.5z" fill="#FF6D00"/><path d="M113.4 50.3c2 0 4.3 1 6.2 2.6l.2.2c1 .8 2.2 2 2.5 3 .4 1.6-3.4 4-6.2 5-.8.2-1.6.4-2.5.4-2.6 0-5.4-1.4-6-4.7a7 7 0 0 1 .3-3.4c.5-1 1.3-1.8 2.4-2.3 1-.5 2-.8 3-.8m0-1.7h-.1c-1.2 0-2.5.4-3.6 1a7 7 0 0 0-3.2 3 8.4 8.4 0 0 0-.4 4.5c.7 3.8 4 6 7.6 6 1 0 2-.1 3-.5 2.6-.8 8.2-3.6 7.3-7-.4-1.6-2-2.9-3.2-4-2-1.7-4.6-3-7.3-3z" fill="#EB491F"/><path d="M109.2 54.5c.4-.5 1-1 1.8-1.3a6 6 0 0 1 2-.4c1.5 0 3 .5 4 1.3.7.4 1.5 1 1.7 1.6.5 1.5-2.6 2.8-4 3.2-2.5.8-5.3-.2-5.7-2.3-.2-.6-.1-1.5.2-2z" fill="#FFD600"/></g><g clip-path="url(#b)"><path d="M100.8 129.8l-8-.3c-7-.7-11.7-4.7-10.8-13 2-18.2 21.9-12.3 23.7-6.4 2.7 8.8-1.8 20-4.9 19.7z" fill="#FF7043" stroke="#E03B0E" stroke-linecap="round" stroke-linejoin="round" stroke-miterlimit="10" stroke-width="2"/><path d="M93.5 126c-.3 1.7.9 3.3 2.6 3.6l4.3.7c1.7.2 3.3-1 3.6-2.6.3-1.7-.9-3.3-2.6-3.6l-4.3-.7c-1.7-.3-3.3.9-3.6 2.6z" fill="#FF7043" stroke="#E03B0E" stroke-linecap="round" stroke-linejoin="round" stroke-miterlimit="10" stroke-width="2"/><path d="M94.7 121.5c-.3 1.8 1 3.4 2.6 3.6l5.7.9c1.7.3 3.3-1 3.6-2.6.2-1.7-1-3.3-2.6-3.6l-5.7-.9c-1.7-.2-3.3 1-3.6 2.6z" fill="#FF7043" stroke="#E03B0E" stroke-linecap="round" stroke-linejoin="round" stroke-miterlimit="10" stroke-width="2"/><path d="M95 117.3a3 3 0 0 0 2.7 3.3l7 .7a3 3 0 1 0 .6-6.1l-7-.7a3 3 0 0 0-3.3 2.8z" fill="#FF7043" stroke="#E03B0E" stroke-linecap="round" stroke-linejoin="round" stroke-miterlimit="10" stroke-width="2"/><path d="M94.9 111.8a3 3 0 0 0 3 3.2l6.9.3a3 3 0 0 0 .3-6.1l-7-.3a3 3 0 0 0-3.2 2.9z" fill="#FF7043" stroke="#E03B0E" stroke-linecap="round" stroke-linejoin="round" stroke-miterlimit="10" stroke-width="2"/><path d="M105.6 105c-.8-.3-3.5-1.1-5.3-1.5a24 24 0 0 0-3-.5c-2.3 0-9.2 2.5-10.8 4-.8.9-.9 2.3-1 3.3.3-.4-4.8 9 5 7.1 4.1-.5 3-5.4 4.4-6.8 1-1 2.7-2.6 7.6-.9 1.4.5 3.8.5 4.6-.6 1.5-1.8.7-3.6-1.5-4.2z" fill="#FF7043"/><path d="M109 106.3c-.3-1.1-1.4-2-2.9-2.3l-1.3-.4a71 71 0 0 0-7.4-1.6c-6.6-.1-9.7 2-11.6 4.3-1.3 1.5-1 4.1-.8 3.6 1.3-1.9 4-3.8 6.7-4.8a13 13 0 0 1 5.7-1.2l3 .5 3.9 1 1.4.4c.8.2 1.4.6 1.5 1.1a2 2 0 0 1-.3 1.8c-.5.6-2.6.7-3.9.3-1.8-.6-3.7-1.4-5.6-1-1.5.4-3.2 1.3-3.7 2.6-.6 1.4-.1 4.8-2.2 6.8-1 .9-3.2 2-3.2 2s2.5.5 3.9-.3c2-1.1 2.9-3.6 3.3-5.7.1-.9.1-2.5.4-2.7.9-.9 1.9-2.1 6.4-.6 1.6.5 4.7 1 6-.5.9-1 1.2-2.2.8-3.3z" fill="#E03B0E"/></g></svg>