<svg viewBox="0 0 128 128" xmlns="http://www.w3.org/2000/svg" xmlns:xlink="http://www.w3.org/1999/xlink"><defs><path id="a" d="M4 4h120v120H4z"/></defs><clipPath id="b"><use xlink:href="#a"/></clipPath><g clip-path="url(#b)"><linearGradient id="c" x1="56.2" x2="56.2" y1="97.2" y2="136" gradientUnits="userSpaceOnUse"><stop stop-color="#E3E3E3" offset="0"/><stop stop-color="#C9C9C9" offset="1"/></linearGradient><path d="M5.7 136v-15.3c0-16.2 25.4-23.5 50.5-23.5h.1c25 0 50.4 8 50.4 23.5V136H5.7z" fill="url(#c)"/><path d="M56.4 98.7c12.9 0 25.4 2.2 34.3 6 6.6 2.8 14.5 8 14.5 16v13.8h-98v-13.8c0-15.2 24.6-22 49-22h.2m0-3h-.2c-25.5 0-52 7.3-52 25v16.8h104v-16.7c0-16.8-26.2-25.1-51.8-25.1z" fill="#C3C5C7"/></g><g clip-path="url(#b)"><path d="M55.4 107.2c-4 0-7.3-3.2-7.3-7.1v-9h16.2v9c0 4-3.3 7.1-7.3 7.1h-1.6z" fill="#C48E6A"/><path d="M63.3 92v8c0 3.5-2.8 6.2-6.3 6.2h-1.6a6.2 6.2 0 0 1-6.3-6.1v-8h14.2m2-2H47.1v10c0 4.5 3.7 8.1 8.3 8.1H57c4.6 0 8.3-3.6 8.3-8.1V90z" fill="#B07853"/></g><g clip-path="url(#b)"><linearGradient id="d" x1="67.7" x2="64.2" y1="91.6" y2="106.3" gradientUnits="userSpaceOnUse"><stop stop-color="#0053AB" offset="0"/><stop stop-color="#0068BF" offset=".4"/><stop stop-color="#008EE3" offset="1"/></linearGradient><path d="M71.6 95.2c1.5 2.2 1.7 7-2.6 11.1-2.5 2.4-6.7 2.8-10 2.7-.7 0-1.4-.2-1.8-.8-.3-.8.1-1.7.8-2.1s1.4-.5 2.1-.8c1.5-.5 4-3.3 4.5-7.4.4-2.7.1-4 .2-4.8 0-.7 5.7.4 6.8 2z" fill="url(#d)"/><linearGradient id="e" x1="38.5" x2="59.2" y1="96.3" y2="110.3" gradientUnits="userSpaceOnUse"><stop stop-color="#008EE3" offset="0"/><stop stop-color="#0053AB" offset="1"/></linearGradient><path d="M41.5 106.6a21 21 0 0 0 17.7 3.6c.9-.2 1.9-.7 2-1.5 0-1.2-1.6-2.4-2.8-2.6-3-.4-6.3-2-8.2-4.3-1.7-2-2.4-3.6-2.4-7.3 0-1.5-6.7-.2-8.4.7-2.6 1.3-4 7 2 11.4z" fill="url(#e)"/><linearGradient id="f" x1="95.4" x2="95.4" y1="113.2" y2="128" gradientTransform="matrix(.812 -.00759 -.00759 .8119 -16.6 19.2)" gradientUnits="userSpaceOnUse"><stop stop-color="#0053AB" offset="0"/><stop stop-color="#008EE3" offset="1"/></linearGradient><path d="M57 113.5c.2 4.5 2.5 6 1.1 9.5 2.3-1.5 3.8-3.8 4.4-6.4s.5-5.3-.3-7.8c-.3-.7-.5-1.5-1-2-2.8-2.4-4.3 5-4.2 6.7z" fill="url(#f)"/><linearGradient id="g" x1="62.9" x2="72.2" y1="107.5" y2="113.8" gradientUnits="userSpaceOnUse"><stop stop-color="#0053AB" offset="0"/><stop stop-color="#008EE3" offset="1"/></linearGradient><path d="M66 114c4.4 2 6.7.5 9.6 5a13 13 0 0 0-3-9c-2.2-2.4-5-4.1-8.1-5.1a5 5 0 0 0-2.7-.3c-4.4 1 .3 7.8 4.2 9.5z" fill="url(#g)"/><ellipse transform="rotate(-11.8 59.5 107.4)" cx="59.5" cy="107.4" rx="5.3" ry="3.4" fill="#1565C0"/></g><g clip-path="url(#b)"><path d="M28.9 72.3c-5.4 0-9.7-4.7-9.7-10.4s4.3-10.5 9.7-10.5h54.6c5.4 0 9.8 4.7 9.8 10.5s-4.4 10.4-9.8 10.4H29z" fill="#C48E6A"/><path d="M83.5 52.4c4.8 0 8.8 4.3 8.8 9.4s-4 9.5-8.8 9.5H29c-4.8 0-8.7-4.3-8.7-9.5s3.9-9.4 8.7-9.4h54.6m0-2H29c-5.9 0-10.7 5.2-10.7 11.4 0 6.3 4.8 11.5 10.7 11.5h54.6c6 0 10.8-5.2 10.8-11.5s-4.9-11.4-10.8-11.4z" fill="#B07853"/><linearGradient id="h" x1="56.2" x2="56.2" y1="94.6" y2="12.8" gradientUnits="userSpaceOnUse"><stop stop-color="#CCA47A" offset="0"/><stop stop-color="#D6B088" offset=".3"/><stop stop-color="#DEB892" offset=".6"/><stop stop-color="#E0BB95" offset="1"/></linearGradient><path d="M56.2 95.3c-15.6 0-32.5-12.2-32.5-38.8 0-12.4 3.6-23.8 10-32.2 6-7.8 14.3-12.2 22.5-12.2s16.5 4.4 22.5 12.2c6.5 8.4 10 19.8 10 32.2a42 42 0 0 1-10.1 29.2 30.5 30.5 0 0 1-22.4 9.6z" fill="url(#h)"/><path d="M56.2 13a28 28 0 0 1 21.7 12 51.5 51.5 0 0 1 9.8 31.5c0 11.8-3.4 21.7-9.8 28.5a29.6 29.6 0 0 1-43.3 0 40.5 40.5 0 0 1-9.9-28.5c0-12.2 3.5-23.4 9.8-31.5a28.1 28.1 0 0 1 21.7-12m0-2c-17.4 0-33.5 18.7-33.5 45.5 0 26.6 16.6 39.8 33.5 39.8S89.7 83 89.7 56.5c0-26.8-16-45.4-33.5-45.4z" fill="#BA8F63"/><path d="M32.2 50.7l.4-.5.2-.2.4-.4c.2 0 .3-.2.4-.4.2 0 .3-.2.5-.3l.5-.4.6-.3.7-.3c.3 0 .4-.2.7-.3l1.5-.3 1.7-.2c.5 0 1 0 1.6.2l1.5.3a8.6 8.6 0 0 1 1.4.6l.6.3.5.4.5.3.4.4.3.3.3.3.5.5c.5.7.3 1.7-.4 2.2-.4.3-1 .4-1.4.2h-.3l-.5-.3h-.3l-.3-.2-.7-.2-.4-.2h-.4l-.2-.1h-.2l-.5-.2h-1l-1-.1h-1l-1 .1-.5.1H37l-.2.1-.4.1-.4.2h-.4l-.3.2h-.2l-.3.2-.6.3c-.8.3-1.8 0-2.1-.9-.3-.5-.2-1 .1-1.5z" fill="#AB872F"/><ellipse cx="39.8" cy="58.8" rx="4.9" ry="5.1" fill="#5D4037"/><path d="M78.3 53.1l-.6-.2-.3-.2h-.3l-.2-.2h-.4l-.4-.2-.5-.1h-.2l-.2-.1-.5-.1-1-.1h-3l-.5.2h-.5l-.4.2-.4.1-.7.3H68l-.2.2-.5.2H67c-.8.4-1.7 0-2-.9-.2-.5 0-1 .2-1.4l.5-.6.2-.3.4-.3c.2 0 .2-.2.4-.3l.4-.4.6-.3.6-.4.6-.3.7-.2 1.6-.4 1.6-.1 1.6.1c.6 0 1 .2 1.6.4a8.6 8.6 0 0 1 1.3.5l.6.4.6.3.5.4.4.3.4.4.2.3.4.5c.5.7.3 1.7-.5 2.2-.5.3-1 .3-1.5.1z" fill="#AB872F"/><ellipse cx="72.7" cy="58.8" rx="4.9" ry="5.1" fill="#5D4037"/><path d="M60 68h-7.6c-.7.3-1 1-.7 1.7s1.7 2.7 4.5 2.7 4.3-2 4.6-2.7c.3-.7 0-1.4-.7-1.6z" fill="#C48E6A"/><path d="M64.8 76.1a25.6 25.6 0 0 1-16.9 0c-1.8-1-3.7.6-2.9 2.3.8 1.6 6.5 5.4 11.4 5.4s10.5-3.8 11.3-5.4c.7-1.7-1.1-3.4-3-2.3z" fill="#6D4C41"/><radialGradient id="i" cx="56.5" cy="4.3" r="48.9" gradientUnits="userSpaceOnUse"><stop stop-color="#BFA055" offset="0"/><stop stop-color="#AB872F" offset="1"/></radialGradient><path d="M56.2 4c-45.4.3-36.1 52.2-36.1 52.2l5 8.8A90 90 0 0 1 30 39.4a6 6 0 0 1 6.8-3.8A111 111 0 0 0 56 37.4h.2c7.8 0 15-1 19.4-1.8a6 6 0 0 1 6.8 3.8A90 90 0 0 1 87.3 65l5-8.8s9.4-52-36-52.2z" fill="url(#i)"/><path d="M56.2 4c-45.4.3-36.1 52.2-36.1 52.2l5 8.8.3-5c0-.3-2.4-4.8-2.4-4.8-.3-1.6-1-7-.6-13.6.4-7 2.2-17 8.2-24.2C36.3 10.6 45 7 56.2 7c11.3 0 20 3.6 25.6 10.4 10.8 13 8.2 34.3 7.7 37.8L87 59.8l.3 5.2 5-8.8s9.4-52-36-52.2z" fill="#8F7635"/></g><g clip-path="url(#b)"><path d="M110.1 69.2l-3 10.6c1.6.3 3 1 4.2 1.6l3.4-10.9-4.6-1.4z" fill="#A7A9AC" stroke="#939598" stroke-miterlimit="10" stroke-width="2"/><path d="M87.9 147.7l2.8.8 20.6-67.1c-1.2-.5-2.6-1.3-4.2-1.6L88 147.7z" fill="#603913" stroke="#4F2F1C" stroke-miterlimit="10" stroke-width="2"/><path d="M114.3 62.7c-3 1.4-3 5.7-7.2 4.6a5.4 5.4 0 0 0 3.9 5 6 6 0 0 0 7-2.9c-1.2-2.5 1.6-8-3.7-6.7z" fill="#D1D3D4"/><path d="M113.2 52.5c.3.4-.6 2.5-.7 3l-1.3 3c-1 1.9-2.5 3.5-3.4 5.5a7.5 7.5 0 0 0-.7 3.3c4.2 1.1 4.3-3.2 7.2-4.6 5.3-1.3 2.5 4.2 3.7 6.7.3-.4.5-1 .7-1.5 2.1-7.4-3.2-12.4-5.5-15.4z" fill="#00AEEF"/><path d="M114 53.2a.5.5 0 0 0-.8.2 44 44 0 0 1-2 5c-1 2-2.5 3.6-3.4 5.6a7.5 7.5 0 0 0-.7 3.3 5.4 5.4 0 0 0 3.9 5 6 6 0 0 0 7-2.9l.7-1.5c1.9-6.7-2.1-11.6-4.6-14.7z" fill="none" stroke="#2A9AC4" stroke-linecap="round" stroke-linejoin="round" stroke-miterlimit="10" stroke-width="2"/><linearGradient id="j" x1="100.1" x2="100.1" y1="91.9" y2="136.7" gradientUnits="userSpaceOnUse"><stop stop-color="#FFDBB5" offset="0"/><stop stop-color="#A97C50" offset="1"/></linearGradient><path d="M96.7 138.8l-1.7-.2c-.5-.2-.6-.3-.6-.4-.1-.1-.2-.2-.1-.3l.1-.7 1.2-1.9 1-1.5c.7-1 1.8-2.8 1.5-4.5-.2-.8-.6-1.4-1.3-1.8a4 4 0 0 0-1.8-.4c-1.3 0-2.6.6-3.6 1l-.6.4-2.4 1.2-.4.2a10 10 0 0 1-5 1.7h-1.9c-.7-.3-1.3-.8-1.7-1.5a10 10 0 0 1-1.8-4c-.4-2-.5-3.7-.3-5.8.4-4.2 1.3-7.7 2.9-11.1a31 31 0 0 1 15.8-17c3.3-1.4 6.6-2.1 9.6-2.1 7 0 12.7 3.7 15.6 9.8 3 6.7 3 17.5-6 28.1a38.7 38.7 0 0 1-4.6 4.6 26 26 0 0 1-13.9 6.2z" fill="url(#j)"/><path d="M105.7 91c6.6 0 11.9 3.5 14.6 9.4 3 6.3 3 16.7-5.9 27-1.8 2.1-3 3.4-4.4 4.5a25.1 25.1 0 0 1-13.3 5.9c-.5 0-1 0-1.4-.2l1-1.8 1.1-1.4c.8-1.1 2-3.3 1.6-5.3-.2-1-.8-1.9-1.8-2.4a4 4 0 0 0-2.2-.6c-1.5 0-2.9.7-4 1.2a14 14 0 0 1-.6.3l-1.3.7-1.2.6-.4.2a9.4 9.4 0 0 1-4.5 1.6h-1.5c-.5-.3-1-.6-1.3-1.1a9 9 0 0 1-1.6-3.7 17 17 0 0 1-.3-5.5c.4-4 1.3-7.5 2.8-10.8a29.8 29.8 0 0 1 15.3-16.5c3.2-1.4 6.3-2 9.2-2m0-2c-3 0-6.4.7-10 2.1a32.4 32.4 0 0 0-16.3 17.6 35.4 35.4 0 0 0-3 11.4c-.1 2-.1 3.8.3 6 .4 1.6.9 3 2 4.5.5.8 1.3 1.4 2.2 1.7.4.2.9.2 1.5.2h.8c2.3-.1 3.8-1 5.7-2l2.4-1.3c1.2-.5 2.5-1.3 3.8-1.3.5 0 .9.1 1.3.4 1.8 1 .5 3.5-.5 4.8a71.6 71.6 0 0 0-2.2 3.6 3 3 0 0 0-.3 1c0 .3 0 .6.3 1 .2.3.7.5 1.2.7.6.2 1.2.2 2 .2l1.8-.1a28 28 0 0 0 12.7-6.2c1.5-1.3 2.8-2.6 4.6-4.7 15.3-17.9 7.3-39.6-10.2-39.6z" fill="#C7946B"/><path d="M99 99c-.3-1.7-1.8-3.3-3.6-3.4-2-.1-3.2 1.7-3.7 3.4s-.5 3.8.7 5.3a3.2 3.2 0 0 0 5 0 6 6 0 0 0 1-2.2c.7-.8.9-2 .7-3z" fill="#00AEEF"/><path d="M110.4 94c-1.7-1.2-4.3-.2-5.8 1-1.7 1-3 3.4-2 5.4.9 2 3.4 2.7 5.3 1.9 1.7-.7 3.7-2.6 3.6-4.6.5-1.3.4-2.8-1-3.8z" fill="#00C853"/><path d="M115.6 103.2c-1.7 0-3.5.7-4.8 1.8-1.4 1.1-2.4 2.8-1.5 4.6.9 1.6 2.8 2.2 4.5 2a5.4 5.4 0 0 0 4-2.5c.3-.4.6-1 .6-1.6l.3-1c.2-1.9-1.3-3.2-3.1-3.3z" fill="#FFF200"/><path d="M112 116.6c-.8-1.3-2.4-1.7-3.8-2-1.6-.3-3.5-.2-4.8 1a3 3 0 0 0 .5 4.7l1.2.6c1.5 1 3.4.7 5 .1 1.3-.4 2.3-1.5 2.3-2.8.1-.8 0-1.3-.4-1.6z" fill="#EF4136"/></g></svg>