<svg viewBox="0 0 128 128" xmlns="http://www.w3.org/2000/svg" xmlns:xlink="http://www.w3.org/1999/xlink"><defs><path id="a" d="M4 4h120v120H4z"/></defs><clipPath id="b"><use xlink:href="#a"/></clipPath><g clip-path="url(#b)"><radialGradient id="c" cx="-21.8" cy="-132" r="57.9" gradientTransform="matrix(.826 0 0 .826 68.2 101.3)" gradientUnits="userSpaceOnUse"><stop stop-color="#454140" offset="0"/><stop stop-color="#312D2D" offset="1"/></radialGradient><path d="M33 119.8s-6.8-.4-10.2-5.1c-7.4-10.3-11.4-35.8-11.4-72 0-1.7.3-16.4 10.7-26.9A38.7 38.7 0 0 1 50.6 5.6c12 0 21.5 3.4 28 10 9.8 10 10 24.2 10 27 0 36.3-4 61.8-11.4 72-3.3 4.7-9.8 5.1-10.3 5.2H33z" fill="url(#c)"/><path d="M50.6 7.1c11.6 0 20.7 3.3 27 9.6A38.5 38.5 0 0 1 87 42.5v.1c0 36-4 61.2-11.1 71.2-2.9 4-8.6 4.4-9.1 4.4H33c-.6 0-6.2-.5-9-4.4-7.3-10-11.2-35.3-11.2-71.2 0-.6 0-15.6 10.2-25.7A37.3 37.3 0 0 1 50.6 7m0-3C9.6 4 9.9 42 9.9 42.5c0 24.6 1.9 59.3 11.7 73 3.9 5.4 11.4 5.7 11.4 5.7h34s7.5-.3 11.4-5.8c9.8-13.6 11.7-48.3 11.7-72.9 0-.6 1.5-38.5-39.5-38.5z" fill="#1F1A1A"/></g><g clip-path="url(#b)"><linearGradient id="d" x1="50" x2="50" y1="97.2" y2="136" gradientUnits="userSpaceOnUse"><stop stop-color="#303F9F" offset="0"/><stop stop-color="#273492" offset=".5"/><stop stop-color="#1A237E" offset="1"/></linearGradient><path d="M-.5 136v-15.3c0-16.2 25.4-23.5 50.5-23.5h.1c25 0 50.4 8 50.4 23.5V136H-.5z" fill="url(#d)"/><path d="M50.1 98.7c13 0 25.5 2.2 34.4 6 6.6 2.8 14.5 8 14.5 16v13.8H1v-13.8c0-15.2 24.6-22 49-22h.1m0-3H50c-25.5 0-52 7.3-52 25v16.8h104v-16.7c0-16.8-26.3-25.1-51.9-25.1z" fill="#1B2B8F"/></g><g clip-path="url(#b)"><defs><path id="e" d="M-2 120.8v16.7h104v-16.8c0-16.7-26.4-25-52-25-25.5 0-52 7.3-52 25z"/></defs><clipPath id="f"><use xlink:href="#e"/></clipPath><linearGradient id="g" x1="50" x2="50" y1="96.9" y2="128.8" gradientUnits="userSpaceOnUse"><stop stop-color="#FF9100" offset="0"/><stop stop-color="#FF7A00" offset=".7"/><stop stop-color="#FF6E00" offset="1"/></linearGradient><path d="M83 120v-20a83 83 0 0 0-10-2.7v19.6c0 .5-.4 1-1 1H28a1 1 0 0 1-1-1V97.3a91 91 0 0 0-10 2.6v20a12 12 0 0 1-.6 3.9l-4.6 13.5h76.4l-4.6-13.5a12 12 0 0 1-.6-3.8z" clip-path="url(#f)" fill="url(#g)"/></g><g clip-path="url(#b)"><path d="M49.2 109.5c-4 0-7.3-3.2-7.3-7.2v-9h16.2v9c0 4-3.3 7.2-7.3 7.2h-1.6z" fill="#EDC391"/><path d="M57 94.3v8c0 3.4-2.7 6.2-6.2 6.2h-1.6a6.2 6.2 0 0 1-6.3-6.2v-8h14.2m2-2H40.9v10c0 4.5 3.7 8.2 8.3 8.2h1.6c4.6 0 8.3-3.7 8.3-8.2v-10z" fill="#D9AC77"/></g><g clip-path="url(#b)"><linearGradient id="h" x1="50.3" x2="50.3" y1="94.7" y2="17.9" gradientUnits="userSpaceOnUse"><stop stop-color="#FFD29C" offset="0"/><stop stop-color="#FFD39E" offset="0"/><stop stop-color="#FCD8AF" offset=".3"/><stop stop-color="#FADCBA" offset=".6"/><stop stop-color="#F9DDBD" offset="1"/></linearGradient><path d="M50.3 95.3c-2.3 0-4.9-.5-7.5-1.5A38.7 38.7 0 0 1 18.1 56c.1-28.8 17.4-39 32.2-39s32.1 10.2 32.1 39a38.6 38.6 0 0 1-24.6 37.8 23 23 0 0 1-7.5 1.5z" fill="url(#h)"/><path d="M50.3 18A29 29 0 0 1 72 27.2 41.3 41.3 0 0 1 81.4 56a38 38 0 0 1-23.9 37c-2.5.8-5 1.3-7.2 1.3s-4.7-.5-7.2-1.4c-11-3.9-24-16-24-37 0-12 3.4-22 9.7-28.7A29 29 0 0 1 50.3 18m0-2c-17.2 0-33.1 12.8-33.1 40a39.8 39.8 0 0 0 25.2 38.8 24 24 0 0 0 8 1.5c2.3 0 5-.5 7.8-1.5A39.8 39.8 0 0 0 83.4 56c0-27.2-15.9-40-33-40z" fill="#EDBD82"/><defs><path id="i" d="M16.4 88.8L15 37.4c0-17 15.8-29.8 32.7-29.8h5c17 0 32.5 12.9 32.5 29.8l-1.5 51.2-67.2.3z"/></defs><clipPath id="j"><use xlink:href="#i"/></clipPath><g clip-path="url(#j)"><radialGradient id="k" cx="-24.9" cy="-123.1" r="48.2" gradientTransform="matrix(.796 0 0 .796 69.8 97.6)" gradientUnits="userSpaceOnUse"><stop stop-color="#454140" offset="0"/><stop stop-color="#312D2D" offset="1"/></radialGradient><path d="M87.9 42.6S88.9 7.1 50 7.1 12 42.6 12 42.6s.3 45.5 3.2 51.4 7.2 5.7 7.2 5.7-2-26.5-2.3-39c0-3-.9-13.7 5.2-15 22.4-5.1 35-17 35-17C63.7 36 74 43 77.7 45.6c3 2.2 2.6 11.2 2.5 15l-3 39s4.7.4 7.6-5.6c3-6 3-51.4 3-51.4z" fill="url(#k)"/></g><path d="M54.4 68h-7.7c-.6.3-1 1-.6 1.7s1.6 2.6 4.4 2.6 4.2-2 4.5-2.6c.3-.7 0-1.4-.6-1.7z" fill="#DBA689"/><ellipse cx="35.3" cy="58.9" rx="4.9" ry="5" fill="#312D2D"/><ellipse cx="65.8" cy="58.9" rx="4.9" ry="5" fill="#312D2D"/><radialGradient id="l" cx="34.3" cy="49.3" r="5.6" gradientUnits="userSpaceOnUse"><stop stop-color="#454140" offset=".1"/><stop stop-color="#454140" offset="1"/></radialGradient><path d="M41.5 49.8c-.9-1.2-3-3-7.2-3s-6.3 1.8-7.2 3c-.4.6-.3 1.2 0 1.6.2.3 1 .6 1.9.4s2.5-1.2 5.3-1.2 4.5.9 5.4 1.2 1.6 0 1.9-.4c.3-.4.4-1 0-1.6z" fill="url(#l)"/><radialGradient id="m" cx="66.8" cy="49.3" r="5.6" gradientUnits="userSpaceOnUse"><stop stop-color="#454140" offset=".1"/><stop stop-color="#454140" offset="1"/></radialGradient><path d="M74 49.8c-.9-1.2-3-3-7.2-3s-6.3 1.8-7.2 3c-.4.6-.3 1.2 0 1.6.2.3 1 .6 1.9.4s2.5-1.2 5.3-1.2 4.5.9 5.4 1.2 1.6 0 1.9-.4c.2-.4.3-1 0-1.6z" fill="url(#m)"/><path d="M58.6 76.1a25.3 25.3 0 0 1-16.6 0c-1.8-1-3.6.6-2.9 2.3.7 1.6 6.4 5.3 11.2 5.3s10.5-3.7 11.2-5.4c.8-1.6-1-3.2-2.9-2.2z" fill="#424242"/></g><g clip-path="url(#b)"><linearGradient id="n" x1="106.5" x2="99.8" y1="40" y2="115.1" gradientTransform="rotate(5.2 -59.5 86)" gradientUnits="userSpaceOnUse"><stop stop-color="#90A4AE" offset="0"/><stop stop-color="#889DA8" offset=".3"/><stop stop-color="#78909C" offset=".6"/><stop stop-color="#607D8B" offset="1"/></linearGradient><path d="M96.6 131.8a4 4 0 0 1-1.2-.2c-2-.6-3.2-2.7-2.8-4.9l7.8-42.2c.5-2.7-.4-5.4-2.4-7.4a16.2 16.2 0 0 1 1-24l.4-.1.6.3c.1.1.2.3.1.5l-1.4 8c-.2.8 0 1.6.6 2.3l6.2 6.5a2.7 2.7 0 0 0 3.1.5l8-3.8c.9-.4 1.4-1.1 1.6-2l1.4-7.9c.1-.4.5-.5.7-.5.2 0 .5 0 .6.3a16.3 16.3 0 0 1-7.6 22.8 8.1 8.1 0 0 0-5 6l-7.8 42.5a4 4 0 0 1-4 3.3z" fill="url(#n)"/><path d="M99 54.5l-1.3 7c-.2 1.2.1 2.4 1 3.2l6 6.5a3.7 3.7 0 0 0 4.4.8l8-3.8a3.3 3.3 0 0 0 2-2.7l1.4-7A15.3 15.3 0 0 1 113 79a9.2 9.2 0 0 0-5.6 6.8l-7.8 42.5a3 3 0 0 1-3.9 2.4 3.3 3.3 0 0 1-2.1-3.8l7.8-42.2c.6-3-.5-6.1-2.7-8.3a14.8 14.8 0 0 1-4.3-13.5c.6-3.3 2.2-6.2 4.6-8.4m.4-2.5c-.3 0-.7.1-1 .4a17.2 17.2 0 0 0-1.1 25.4 7.2 7.2 0 0 1 2.1 6.5l-7.8 42.3c-.4 2.6 1 5.2 3.5 6a5 5 0 0 0 6.5-4l7.8-42.4c.4-2.4 2-4.4 4.3-5.3 5-2 9-6.7 10-12.6a17 17 0 0 0-1.9-11.6c-.3-.6-.9-.8-1.5-.8-.7 0-1.5.4-1.6 1.3l-1.5 8c0 .5-.4 1-1 1.2l-8 3.8-.7.2c-.5 0-1-.2-1.3-.5l-6.1-6.5c-.4-.4-.5-1-.5-1.5l1.5-7.9c.2-1.1-.7-2-1.7-2z" fill="#587D8C"/></g><g clip-path="url(#b)"><path d="M100.8 129.8l-8-.3c-7-.7-11.7-4.7-10.8-13 2-18.2 21.9-12.3 23.7-6.4 2.7 8.8-1.8 20-4.9 19.7z" fill="#FFD29C"/><path d="M101 130.8h-.3l-8-.3c-4-.4-7.3-2-9.3-4.4-2-2.5-2.8-5.8-2.3-9.8.8-7.6 5-12.3 11.5-13 5.9-.5 12.8 2.7 14 6.5 2.3 7.4-.3 16.1-3 19.3-1 1.4-2 1.7-2.7 1.7zm-7-25.6l-1.2.1c-3.3.3-8.8 2.2-9.8 11.2-.4 3.5.2 6.3 1.9 8.4 1.7 2 4.4 3.3 8 3.7l8 .2c.2 0 .7-.2 1.3-.9a22 22 0 0 0 2.5-17.5c-.7-2.5-5.7-5.2-10.7-5.2z" fill="#E3B57C"/><path d="M93.5 126c-.3 1.7.9 3.3 2.6 3.6l4.3.7a3.1 3.1 0 0 0 1-6.2l-4.3-.7c-1.7-.3-3.3.9-3.6 2.6z" fill="#FFD29C"/><path d="M101 131.1h-.7l-4.3-.7a4 4 0 0 1 1.2-7.8l4.3.7a4 4 0 0 1 3.3 4.5 4 4 0 0 1-3.9 3.3zm-6.7-5c-.2 1.3.7 2.4 2 2.6l4.3.7a2.3 2.3 0 1 0 .7-4.5l-4.4-.7c-1.2-.2-2.4.7-2.6 2z" fill="#E3B57C"/><path d="M94.7 121.5c-.3 1.8 1 3.4 2.6 3.6l5.7.9c1.7.3 3.3-1 3.6-2.6.2-1.7-1-3.3-2.6-3.6l-5.7-.9c-1.7-.2-3.3 1-3.6 2.6z" fill="#FFD29C"/><path d="M103.5 127h-.6l-5.7-1a4.1 4.1 0 1 1 1.2-8l5.7.8a4 4 0 0 1-.6 8.2zm-7.8-5.3c-.2 1.2.6 2.3 1.8 2.5l5.7.8a2.1 2.1 0 0 0 2.4-1.8 2.2 2.2 0 0 0-1.8-2.5l-5.7-.8c-1.1-.2-2.2.6-2.4 1.8z" fill="#E3B57C"/><path d="M95 117.3a3 3 0 0 0 2.7 3.3l7 .7a3 3 0 1 0 .6-6l-7-.8a3 3 0 0 0-3.3 2.8z" fill="#FFD29C"/><path d="M105 122.3h-.5l-6.9-.7a4 4 0 1 1 .8-8l7 .7a4 4 0 0 1-.4 8zm-7-6.8a2.1 2.1 0 0 0-.2 4.2l7 .7a2.1 2.1 0 1 0 .4-4.2l-7-.7H98zm-3 1.8z" fill="#E3B57C"/><path d="M94.9 111.8a3 3 0 0 0 3 3.2l6.9.3a3 3 0 0 0 .3-6.1l-7-.3a3 3 0 0 0-3.2 2.9z" fill="#FFD29C"/><path d="M105 116.3h-.3l-7-.3a4 4 0 0 1-3.8-4.3 4 4 0 0 1 4.2-3.8l7 .3a4 4 0 0 1 2.5 7 4 4 0 0 1-2.7 1zm-9.1-4.5a2 2 0 0 0 2 2.2l7 .3c.5 0 1-.1 1.4-.5.5-.4.7-.9.7-1.4 0-1.2-.8-2.2-2-2.2l-7-.4a2 2 0 0 0-2.1 2z" fill="#E3B57C"/><path d="M105.6 105c-.8-.3-3.5-1.1-5.3-1.5a24 24 0 0 0-3-.5c-2.3 0-9.2 2.5-10.8 4-.8.9-5.8 12.2 4 10.4 4.1-.5 3-5.4 4.4-6.8 1-1 2.7-2.6 7.6-.9 1.4.5 3.8.5 4.6-.6 1.6-1.8.7-3.6-1.5-4.2z" fill="#FFD29C"/><path d="M109 106.3c-.3-1.1-1.4-2-2.9-2.3l-1.3-.4a71 71 0 0 0-7.4-1.6c-6.6-.1-9.7 2-11.6 4.3-1.3 1.5-1 4-.7 3.6a19 19 0 0 1 6.6-4.8 13 13 0 0 1 5.7-1.2l3 .5 3.9 1 1.4.4c.8.2 1.4.6 1.5 1a2 2 0 0 1-.3 1.9c-.5.6-2.6.7-3.9.3-1.8-.6-3.7-1.4-5.6-1-1.5.4-3.2 1.3-3.7 2.6-.6 1.4-.1 4.8-2.2 6.8-1 .9-3.2 2-3.2 2s2.5.5 3.9-.3c2-1.1 2.9-3.6 3.3-5.7.2-.9.1-2.5.4-2.7.9-.9 1.9-2.1 6.4-.6 1.6.5 4.7 1 6-.5.9-1 1.2-2.2.8-3.3z" fill="#E3B57C"/></g></svg>