<svg viewBox="0 0 128 128" xmlns="http://www.w3.org/2000/svg" xmlns:xlink="http://www.w3.org/1999/xlink"><defs><path id="a" d="M4 4h120v120H4z"/></defs><clipPath id="b"><use xlink:href="#a"/></clipPath><g clip-path="url(#b)"><linearGradient id="c" x1="95.3" x2="95.3" y1="69.4" y2="127.7" gradientUnits="userSpaceOnUse"><stop stop-color="#FF8530" offset="0"/><stop stop-color="#FD7D2A" offset=".2"/><stop stop-color="#F86918" offset=".6"/><stop stop-color="#F24D00" offset="1"/></linearGradient><path d="M64.8 128V89.4c0-9.3 7.3-16.6 19.7-19.5a53 53 0 0 1 21-.8c9.8 1.7 20.2 8 20.2 20.3v38.7h-61z" fill="url(#c)"/><path d="M96.9 69.8c2.7 0 5.5.3 8.3.8 5.6 1 10.3 3.1 13.7 6.2a17 17 0 0 1 5.3 12.6v37.1h-58V89.4c0-12.7 14.2-17 18.6-18 4.2-1 8.1-1.6 12-1.6m0-3c-4.3 0-8.5.6-12.7 1.6-11.2 2.7-20.8 9.6-20.8 21v40.1h64V89.4c0-12.3-9.7-19.7-21.5-21.8-3.1-.5-6-.8-9-.8z" fill="#DB5200"/><path d="M95.3 74.1a6 6 0 0 1-6-6v-5.4h12v5.4a6 6 0 0 1-6 6z" fill="#E59600"/><path d="M100.3 63.7v4.4a5 5 0 0 1-10 0v-4.4h10m2-2h-14v6.4a7 7 0 1 0 14 0v-6.4z" fill="#D18100"/><linearGradient id="d" x1="121.3" x2="121.3" y1="98.8" y2="128.8" gradientUnits="userSpaceOnUse"><stop stop-color="#FFB300" offset="0"/><stop stop-color="#FFCA28" offset=".4"/></linearGradient><path fill="url(#d)" d="M116.3 98.8h10v30h-10z"/><path d="M125.3 99.8v28h-8v-28h8m2-2h-12v32h12v-32z" fill="#EDA600"/><defs><path id="e" d="M65 5.2h60.5v60.5H65z"/></defs><clipPath id="f"><use xlink:href="#e"/></clipPath><path d="M74.7 20.8c-3.9.9-6.6 2.6-6.7 6.6-.1 6.9.3 19.3 4.4 27.4 5.2 10 22.5-.5 22.5-.5l-5-37-15.2 3.5zm41 0c3.8.9 6 3.7 6.5 7.6.8 8.5-.2 18.3-4.3 26.4-5.1 10-22.5-.5-22.5-.5l5-37 15.3 3.5z" clip-path="url(#f)" fill="#543930"/><path d="M122.3 30.1V29c-.3-5-5-23.7-26.8-23.7h-.1C83.4 5.3 82 11 81.7 11l-1.2-.2c-3.3 0-7.3 2.6-9.7 6.8-1.7 3-2.4 5.9-2.6 8.5l-.2 1.4c-.1 6.9.3 19.3 4.4 27.4C74.1 58 77 59 80.2 59a6.8 6.8 0 0 1-1.7-2 5.9 5.9 0 0 1-4.5-3 63.1 63.1 0 0 1-4.2-26.5c0-.3 0-.7.2-1V26a18 18 0 0 1 2.4-7.7c2.1-3.8 5.7-5.8 8.1-5.8h1.2c1 0 1.6-.8 1.8-1.1 1.7-3 5.7-4.5 11.9-4.5h.1c8.7 0 15.4 3 20 9.2a26.2 26.2 0 0 1 5 12.8v1.2c.6 8.8-.8 17.2-4.2 23.7-.7 1.5-2.6 2.5-4.2 3 0 .2-1.4 2-1.6 2.2 3.5 0 6-1.6 7.4-4.3a48 48 0 0 0 4.4-24.7z" clip-path="url(#f)" fill="#3F2720"/><g clip-path="url(#f)"><path d="M77.3 50c-3.5 0-6.3-3-6.3-6.8s2.8-6.8 6.3-6.8h36c3.5 0 6.3 3 6.3 6.8s-2.8 6.8-6.3 6.8h-36z" fill="#E59600"/><path d="M113.3 37.2c3 0 5.5 2.7 5.5 6s-2.5 6-5.5 6h-36c-3 0-5.6-2.7-5.6-6s2.5-6 5.6-6h36m0-1.5h-36c-3.9 0-7 3.4-7 7.5s3.1 7.5 7 7.5h36c3.8 0 7-3.4 7-7.5s-3.1-7.5-7-7.5z" fill="#D18100"/></g><g clip-path="url(#f)"><linearGradient id="g" x1="95.3" x2="95.3" y1="64.7" y2="11" gradientUnits="userSpaceOnUse"><stop stop-color="#FFB300" offset="0"/><stop stop-color="#FFB809" offset=".1"/><stop stop-color="#FFC21A" offset=".4"/><stop stop-color="#FFC825" offset=".7"/><stop stop-color="#FFCA28" offset="1"/></linearGradient><path d="M95.3 65.1a20 20 0 0 1-14.7-6.3A27.2 27.2 0 0 1 74 39.7a34 34 0 0 1 6.6-21.1c4-5.1 9.3-8 14.7-8s10.8 2.9 14.7 8c4.3 5.5 6.6 13 6.6 21s-2.3 14.6-6.6 19.2a20 20 0 0 1-14.7 6.3z" fill="url(#g)"/><path d="M95.3 11.3c5.2 0 10.3 2.8 14.1 7.7a33.7 33.7 0 0 1 6.4 20.7c0 7.7-2.2 14.2-6.4 18.6-3.7 4-8.7 6-14.1 6s-10.4-2-14.1-6a26.5 26.5 0 0 1-6.5-18.6c0-8 2.3-15.3 6.5-20.7 3.8-4.9 9-7.7 14-7.7m0-1.5c-11.4 0-22 12.2-22 29.9 0 17.5 11 26.2 22 26.2s22.2-8.7 22.2-26.2c0-17.7-10.7-30-22.1-30z" fill="#ED9E00"/></g><path d="M98.3 47.4l-.3-.1h-5.7a1 1 0 0 0-.6 1.3c.3.6 1.4 2.1 3.6 2.1s3.3-1.5 3.5-2c.3-.6 0-1.1-.5-1.3z" clip-path="url(#f)" fill="#E59600"/><g clip-path="url(#f)"><path d="M101 53.2c-2 1.4-9.5 1.4-11.4 0-1.1-.8-2.6-.2-2.3.8.3 1 4.2 4 8 4s7.7-3 8-4c.3-1-1.1-1.6-2.3-.8z" fill="#795548"/></g><path d="M79.6 36.8l.2-.3.2-.2.2-.2.3-.2.3-.3.3-.2.4-.2.5-.2.4-.2 1-.2 1.1-.1h1a5.5 5.5 0 0 1 1.6.5l.4.2.4.2.3.2.4.3.2.2.2.2.2.2.3.4a1 1 0 0 1-.2 1.4 1 1 0 0 1-1 .2l-.2-.1-.3-.1-.1-.1c-.1-.1-.2 0-.2 0a4 4 0 0 0-.5-.2l-.3-.1-.2-.1h-.3l-.3-.1-.7-.1h-2l-.3.1h-.2l-.1.1h-.3l-.3.2h-.2l-.2.1h-.2l-.2.2c-.2 0-.3.2-.3.2a1 1 0 0 1-1.4-.6c-.2-.4-.1-.8 0-1z" clip-path="url(#f)" fill="#6D4C41"/><ellipse cx="84.5" cy="42.2" rx="3.2" ry="3.4" clip-path="url(#f)" fill="#404040"/><path d="M109.9 38.4l-.4-.2h-.2l-.2-.1c0-.1 0 0-.1 0l-.3-.2h-.2l-.3-.1h-.3l-.3-.2h-2.7l-.3.1H104.3l-.3.1-.3.1a6 6 0 0 0-.6.3h-.2l-.3.2h-.2a1 1 0 0 1-1.2-1.6l.3-.3.2-.2.2-.2.3-.3.3-.2.4-.2.4-.2.4-.2.5-.2 1-.3h2.1c.4 0 .7.2 1 .3.2 0 .3 0 .5.2l.4.2c.2 0 .3 0 .4.2l.4.2.3.2.3.3.2.2.1.2.3.3a1 1 0 0 1-.3 1.5 1 1 0 0 1-1 .1z" clip-path="url(#f)" fill="#6D4C41"/><ellipse cx="106.2" cy="42.2" rx="3.2" ry="3.4" clip-path="url(#f)" fill="#404040"/><radialGradient id="h" cx="94.9" cy="16" r="24.4" gradientUnits="userSpaceOnUse"><stop stop-color="#6D4C41" offset="0"/><stop stop-color="#543930" offset="1"/></radialGradient><path d="M95.4 5.2c-12.1 0-13.4 5.7-13.7 5.7-3.5-.7-8.3 2-10.9 6.6-6.7 12 1.5 21.5 1.7 22.6 1 5.4 1.4 6.4 1.4 6.4S74 39 78.2 34c2.7-3.2 5.2-10 5.2-10s7.3 2.7 12.9 6c4.7 2.7 7.7 6.4 7.7 6.4s.9-2.8.2-5.7c-1.5-6.3-7.4-9-7.4-9s3 .7 7 4.4c8.7 8 11 22.4 11 22.4a25 25 0 0 0 7.5-19.7c-.3-5-5-23.8-27-23.7z" clip-path="url(#f)" fill="url(#h)"/><path d="M115.5 16.2a26.2 26.2 0 0 1 5 12.8v1.2c.3 3.7.1 7.3-.3 10.8a27 27 0 0 0 2.2-4.3 56 56 0 0 0 0-6.6l-.1-1.2c-.3-5-5-23.7-26.8-23.7h-.1c-12 0-13.3 5.7-13.7 5.7l-1.2-.2c-3.3 0-7.3 2.6-9.7 6.8-1.7 3-2.4 5.9-2.6 8.5l-.2 1.4c0 2.1 0 4.9.2 7.8l.4.3c.6.4 1 .9 1.5 1.4a95.4 95.4 0 0 1-.1-10.5V26a18 18 0 0 1 2.4-7.7c2.1-3.8 5.7-5.8 8.1-5.8h1.2c1 0 1.6-.8 1.8-1.1 1.7-3 5.7-4.5 11.9-4.5h.1c8.7 0 15.5 3 20 9.2z" clip-path="url(#f)" fill="#3F2720"/></g><g clip-path="url(#b)"><defs><path id="i" d="M0 0h128v128H0z"/></defs><clipPath id="j"><use xlink:href="#i"/></clipPath><g clip-path="url(#j)"><linearGradient id="k" x1="32" x2="32" y1="68.8" y2="130.1" gradientUnits="userSpaceOnUse"><stop stop-color="#67B730" offset="0"/><stop stop-color="#64AF2E" offset=".2"/><stop stop-color="#5A9B2A" offset=".6"/><stop stop-color="#4D7D23" offset="1"/></linearGradient><path d="M1.5 127V88.4c0-9.3 7.4-16.6 19.7-19.5a53 53 0 0 1 21-.8c9.8 1.7 20.3 8 20.3 20.3v38.7h-61z" fill="url(#k)"/><path d="M33.6 68.8c2.8 0 5.6.3 8.4.8 5.6 1 10.3 3.1 13.7 6.2A17 17 0 0 1 61 88.4v37.1H3V88.4c0-12.7 14.2-17 18.6-18 4.1-1 8-1.6 12-1.6m0-3c-4.4 0-8.6.6-12.7 1.6C9.6 70.1 0 77 0 88.4v40.1h64V88.4c0-12.3-9.6-19.7-21.5-21.8-3-.5-6-.8-8.9-.8z" fill="#518626"/><path d="M32 73.1a6 6 0 0 1-6-6v-5.4h12v5.4a6 6 0 0 1-6 6z" fill="#E59600"/><path d="M37 62.7v4.4a5 5 0 0 1-10 0v-4.4h10m2-2H25v6.4a7 7 0 1 0 14 0v-6.4z" fill="#D18100"/><defs><path id="l" d="M1.6 5.2h60.5v60.5H1.6z"/></defs><clipPath id="m"><use xlink:href="#l"/></clipPath><radialGradient id="n" cx="18" cy="38.2" r="17.6" gradientUnits="userSpaceOnUse"><stop stop-color="#6D4C41" offset="0"/><stop stop-color="#543930" offset="1"/></radialGradient><path d="M11.2 20.8c-3.8.9-6.5 2.6-6.6 6.6-.1 6.9.3 19.3 4.4 27.4 5.2 10 22.5-.5 22.5-.5l-5-37-15.3 3.5z" clip-path="url(#m)" fill="url(#n)"/><radialGradient id="o" cx="33" cy="38.2" r="17.6" gradientTransform="matrix(-1 0 0 1 78.5 0)" gradientUnits="userSpaceOnUse"><stop stop-color="#6D4C41" offset="0"/><stop stop-color="#543930" offset="1"/></radialGradient><path d="M52.3 20.8c3.8.9 6 3.7 6.5 7.6.8 8.5-.2 18.3-4.3 26.4-5.1 10-22.5-.5-22.5-.5l5-37 15.3 3.5z" clip-path="url(#m)" fill="url(#o)"/><path d="M58.8 28.4l-.1-.4c-.8-6-6-22.8-26.7-22.8h-.1c-12 0-13.4 5.7-13.7 5.7H17c-3.3 0-7.4 2.5-9.7 6.7a19.5 19.5 0 0 0-2.7 9.8C4.4 34.3 5 46.7 9 54.8c1.5 3 4.4 4.1 7.4 4.3l-1.6-2a6.4 6.4 0 0 1-4.2-3.2c-4.2-8.2-4.3-21.2-4.2-26.5v-.7c.2-2.8 1-5.6 2.5-8.3 2.1-3.8 5.7-5.8 8.1-5.8h.8l.2.1h.2c1 0 1.6-.8 1.8-1.2 1.7-3 5.7-4.4 11.9-4.5h.1a24 24 0 0 1 24.9 21.3v.2c1 9.3-.5 18.5-4 25.4a5.8 5.8 0 0 1-4 3.2c-.6.7-1 1.4-1.7 2a8 8 0 0 0 7.3-4.3c4.1-8.1 5.1-18 4.2-26.4z" clip-path="url(#m)" fill="#3F2720"/><g clip-path="url(#m)"><path d="M13.9 50c-3.5 0-6.3-3-6.3-6.8s2.8-6.8 6.3-6.8h36c3.4 0 6.3 3 6.3 6.8S53.3 50 49.9 50h-36z" fill="#E59600"/><path d="M49.9 37.2c3 0 5.5 2.7 5.5 6s-2.5 6-5.5 6h-36c-3 0-5.6-2.7-5.6-6s2.5-6 5.6-6h36m0-1.5h-36c-3.9 0-7 3.4-7 7.5s3.1 7.5 7 7.5h36c3.8 0 7-3.4 7-7.5s-3.2-7.5-7-7.5z" fill="#D18100"/></g><g clip-path="url(#m)"><linearGradient id="p" x1="31.9" x2="31.9" y1="64.7" y2="11" gradientUnits="userSpaceOnUse"><stop stop-color="#FFB300" offset="0"/><stop stop-color="#FFB809" offset=".1"/><stop stop-color="#FFC21A" offset=".4"/><stop stop-color="#FFC825" offset=".7"/><stop stop-color="#FFCA28" offset="1"/></linearGradient><path d="M31.9 65.1a20 20 0 0 1-14.7-6.3 27.2 27.2 0 0 1-6.6-19.1c0-8.2 2.3-15.6 6.5-21.1 4-5.1 9.4-8 14.8-8s10.7 2.9 14.7 8c4.2 5.5 6.6 13 6.6 21s-2.3 14.6-6.7 19.2A20 20 0 0 1 32 65.1z" fill="url(#p)"/><path d="M31.9 11.3c5.1 0 10.3 2.8 14.1 7.7a33.7 33.7 0 0 1 6.4 20.7c0 7.7-2.2 14.2-6.4 18.6-3.7 4-8.7 6-14.1 6s-10.4-2-14.1-6a26.5 26.5 0 0 1-6.5-18.6c0-8 2.3-15.3 6.4-20.7 3.9-4.9 9-7.7 14.2-7.7m0-1.5C20.4 9.8 9.8 22 9.8 39.7c0 17.5 11 26.2 22 26.2S54 57.2 54 39.7c0-17.7-10.6-30-22-30z" fill="#ED9E00"/></g><radialGradient id="q" cx="31.4" cy="16" r="24.4" gradientUnits="userSpaceOnUse"><stop stop-color="#6D4C41" offset="0"/><stop stop-color="#543930" offset="1"/></radialGradient><path d="M31.9 5.2C19.8 5.2 18.5 11 18.2 11c-3.5-.7-8.3 2-10.9 6.6C.6 29.5 8.8 39.1 9 40.1c1 5.5 2 8.7 2 8.7s1.6-7.4 3.1-12.8 3.3-9.1 3.3-9.1 5.3.6 10.6 2.9 12.5 6.7 12.5 6.7.9-2.7.2-5.6C39.1 24.6 38 25 38 25s-.7-.9 3.3 2.8c8.8 8 10 20.9 10 20.9 3-2.8 8-9.6 7.4-19.8-.3-5-5-23.7-27-23.7z" clip-path="url(#m)" fill="url(#q)"/><ellipse cx="21.8" cy="42" rx="2.8" ry="3.2" clip-path="url(#m)" fill="#404040"/><ellipse cx="41.5" cy="42" rx="2.8" ry="3.2" clip-path="url(#m)" fill="#404040"/><path d="M34.9 47.4l-.3-.1h-5.7a1 1 0 0 0-.6 1.3c.3.6 1.4 2.1 3.6 2.1s3.3-1.5 3.5-2c.3-.6 0-1.1-.5-1.3z" clip-path="url(#m)" fill="#E59600"/><path d="M16.3 38.3a.2.2 0 0 1-.3-.3 6 6 0 0 1 5.7-3.3c2.3.3 3.8 1.3 4.6 2.3.4.5 0 1.3-.7 1.1a11 11 0 0 0-9.3.2zm30.1 0c.2.1.4-.1.3-.3a6 6 0 0 0-5.8-3.3 6.8 6.8 0 0 0-4.5 2.3c-.5.5 0 1.3.6 1.1a11.6 11.6 0 0 1 9.4.2z" clip-path="url(#m)" fill="#6D4C41"/><g clip-path="url(#m)"><path d="M37.6 53.2c-2 1.4-9.5 1.4-11.4 0-1.2-.8-2.6-.2-2.3.8.3 1 4.2 4 8 4s7.6-3 8-4c.3-1-1.2-1.6-2.3-.8z" fill="#795548"/></g><path d="M57 28.3v.2a52.6 52.6 0 0 1 0 12 3 3 0 0 1 1.8-1.6c.3-3.6.3-7.2 0-10.5l-.1-.4c-.8-6-6-22.8-26.7-22.8h-.1c-12 0-13.4 5.7-13.7 5.7H17c-3.3 0-7.4 2.5-9.7 6.7a19.5 19.5 0 0 0-2.7 9.8v6.8c.8.9 1.5 1.8 2 2.7a95.9 95.9 0 0 1-.1-10v-.2c0-2.8.9-5.6 2.4-8.3 2.1-3.8 5.7-5.8 8.1-5.8h.8l.2.1h.2c1 0 1.6-.8 1.8-1.2 1.7-3 5.7-4.4 11.9-4.5h.1a24 24 0 0 1 25 21.3z" clip-path="url(#m)" fill="#3F2720"/><linearGradient id="r" x1="6" x2="6" y1="97.8" y2="127.8" gradientUnits="userSpaceOnUse"><stop stop-color="#FFB300" offset="0"/><stop stop-color="#FFCA28" offset=".4"/></linearGradient><path fill="url(#r)" d="M1 97.8h10v30H1z"/><path d="M10 98.8v28H2v-28h8m2-2H0v32h12v-32z" fill="#EDA600"/></g><radialGradient id="s" cx="64" cy="97.2" r="29.2" gradientTransform="matrix(1 0 0 1.4568 0 -44.4)" gradientUnits="userSpaceOnUse"><stop stop-color="#212121" offset=".4"/><stop stop-color="#616161" stop-opacity=".1" offset="1"/></radialGradient><path d="M85.1 66.6c-11.9 2-21 9.5-21 21.8 0-12.3-9.7-19.7-21.6-21.8-1.9-.3-3.5-.5-5.5-.6v62.5h54V66c-2 0-4 .3-5.9.6z" clip-path="url(#j)" fill="url(#s)" opacity=".4"/><g clip-path="url(#j)"><path d="M43.2 138.1c-.1-2.6 0-10.8 0-16.1 0-9.3 12.5-12.2 16-12.2h9.3c3.5 0 16 3 16 12.2v16H43.2z" fill="#9B40D0"/><path d="M68.5 110.8c3.3 0 15 2.7 15 11.2v15H44.2v-15c0-8.5 11.7-11.2 15-11.2h9.3m0-2h-9.3c-4.4 0-17 3.3-17 13.2 0 0-.2 17.1 0 17.1h43.2c.3 0 0-16.5 0-16.8v-.3c0-9.9-12.5-13.2-16.9-13.2z" fill="#8838B5"/><path d="M63.8 115.8a4.2 4.2 0 0 1-4.1-4.2v-3H68v3c0 2.3-1.8 4.2-4.2 4.2z" fill="#E59600"/><path d="M67.5 109v2.6a3.7 3.7 0 0 1-7.3 0V109h7.3m1-1h-9.4v3.6a4.7 4.7 0 0 0 9.4 0V108z" fill="#D18100"/><defs><path id="t" d="M40.5 64.2h46.9v46.9H40.5z"/></defs><clipPath id="u"><use xlink:href="#t"/></clipPath><g clip-path="url(#u)"><path d="M49.4 99.8c-3 0-5.3-2.2-5.3-5s2.3-5 5.2-5h29.5c3 0 5.3 2.2 5.3 5s-2.4 5-5.3 5H49.4z" fill="#E59600"/><path d="M78.8 90.2c2.7 0 4.8 2 4.8 4.6 0 2.5-2.1 4.5-4.8 4.5H49.4c-2.7 0-4.8-2-4.8-4.5 0-2.6 2.1-4.6 4.7-4.6h29.5m0-1H49.4c-3.2 0-5.8 2.5-5.8 5.6s2.6 5.5 5.7 5.5h29.5c3.2 0 5.8-2.5 5.8-5.5s-2.6-5.6-5.8-5.6z" fill="#CC8600"/><linearGradient id="v" x1="64" x2="64" y1="110.6" y2="66.4" gradientUnits="userSpaceOnUse"><stop stop-color="#FFB300" offset="0"/><stop stop-color="#FFB809" offset=".1"/><stop stop-color="#FFC21A" offset=".4"/><stop stop-color="#FFC825" offset=".7"/><stop stop-color="#FFCA28" offset="1"/></linearGradient><path d="M64 110.6c-8.4 0-17.5-6.4-17.5-20.4 0-11.3 6.7-23.4 17.5-23.4s17.4 12.1 17.4 23.4c0 14-9 20.4-17.4 20.4z" fill="url(#v)"/><path d="M64 67.3c4.3 0 8.5 2.3 11.7 6.2a26.8 26.8 0 0 1 5.2 16.7 21 21 0 0 1-5.3 15 16.1 16.1 0 0 1-23.3 0 21.1 21.1 0 0 1-5.3-15c0-6.5 1.9-12.4 5.3-16.7A15 15 0 0 1 64 67.3m0-1c-9.3 0-18 9.8-18 23.9 0 14 9 21 18 21s18-7 18-21c0-14.1-8.7-24-18-24z" fill="#EDA600"/><path d="M66 96.7h-4c-.3.1-.5.5-.3.9.1.3.8 1.3 2.3 1.3s2.2-1 2.3-1.3c.2-.4 0-.7-.3-.9z" fill="#E59600"/><path d="M51.8 89.4l.2-.3.3-.2.2-.2.2-.2.3-.2.3-.2.4-.1.3-.2.8-.1a5.7 5.7 0 0 1 1.7 0l.8.1.3.2.4.1.3.2.3.2.2.2.2.1.2.2.1.1.2.4c.3.3.2.8-.1 1-.3.2-.5.3-.8.2h-.1l-.3-.2H58l-.4-.2h-.2l-.2-.1h-.4l-.2-.1-.5-.1h-1.6l-.2.1h-.2l-.3.1h-.2l-.2.2h-.2l-.2.1-.3.2c-.4.1-.9 0-1-.5a.7.7 0 0 1 0-.8zm23.4 1.2l-.3-.1h-.1l-.2-.1h-.1l-.2-.1h-.2l-.2-.1h-.1l-.1-.1h-.3L73 90h-1.6l-.2.1H71l-.3.1c0 .1 0 0-.2 0a3 3 0 0 0-.3.2H70v.1l-.3.1h-.2a.8.8 0 0 1-.9-1.2l.2-.3.2-.1.1-.2.2-.1c0-.2.2-.2.3-.2l.2-.2.4-.2.3-.1.4-.2.7-.2a5.7 5.7 0 0 1 1.7 0l.8.2.4.2.3.1.3.2.3.2.2.1.3.2.1.2.2.1c0 .2.2.3.2.3.2.4.1.9-.3 1.1-.2.2-.5.2-.8.1z" fill="#6D4C41"/><g fill="#404040"><ellipse cx="55.5" cy="94.1" rx="2.5" ry="2.6"/><ellipse cx="72.5" cy="94.1" rx="2.5" ry="2.6"/></g><radialGradient id="w" cx="72.5" cy="66.2" r="24" gradientTransform="translate(-12 -2.9) scale(1.0432)" gradientUnits="userSpaceOnUse"><stop stop-color="#6D4C41" offset="0"/><stop stop-color="#543930" offset=".9"/></radialGradient><path d="M79.6 69.8a14.4 14.4 0 0 0-4.7-3.5A25.3 25.3 0 0 0 64 64.2c-19.8 0-21.2 16.2-20.4 23.4.7 6.3 4 7.8 4 7.8s-.7-5.5.4-9.5c.8-3.1 2.8-5.5 2.8-5.5s3.6 3.2 10.2 5.2c3.3 1 7.4.5 7.4.5L66.2 82s3.8 2.8 6.1 3.3c3 .7 5.3.4 5.3.4l-1.2-4.3s2 1.2 3.4 4.7.6 9.3.6 9.3 3.4-1.5 4-7.8c.7-8-.3-12.7-4.8-17.8z" fill="url(#w)"/><defs><path id="x" d="M79.6 69.8a12.3 12.3 0 0 0-4.7-3.5A25.3 25.3 0 0 0 64 64.2c-19.8 0-21.2 16.2-20.4 23.4.7 6.3 4 7.8 4 7.8V94l-1.4-3.7a15 15 0 0 1-.8-7.1l.5-3.3 18-11.6 18 11.6.4 3.2a14 14 0 0 1-.9 7.6l-1 2.6-.1 2.2s3.4-1.5 4-7.8c.7-8-.3-12.7-4.8-17.8z"/></defs><clipPath id="y"><use xlink:href="#x"/></clipPath><g clip-path="url(#y)"><path d="M64.2 66.2c3.6 0 7 .6 9.8 2h.3v.1c.6.3 2.4 1.3 3.8 2.9 4 4.4 5 8.3 4.3 16.2v.3c-.2-.8-.4-1.7-.8-2.4a12.6 12.6 0 0 0-4-5.6l-4.4-2.9 1.3 5 .5 1.9c-.6 0-1.4-.2-2.2-.4-1.4-.3-4-2-5.4-3l-7.5-5.5 4.6 8.2.6 1.2c-1.3 0-2.4-.3-3.4-.5a28.4 28.4 0 0 1-9.5-4.8l-1.5-1.3-1.3 1.5c-.1.2-2.3 2.8-3.2 6.3l-.4 2.2v-.3c-.3-2.3-.8-10.4 4-15.9 3.2-3.5 8-5.2 14.4-5.2m0-2c-20 0-21.3 16.2-20.5 23.4.7 6.2 4 7.8 4 7.8s-.7-5.5.4-9.5c.8-3.1 2.8-5.5 2.8-5.5s3.6 3.1 10.2 5.2c1.7.5 3.5.6 5 .6l2.4-.1-2.3-4.1s3.8 2.8 6.1 3.3c1.7.4 3 .4 4 .4h1.3l-1.1-4.4s1.9 1.3 3.3 4.8.6 9.3.6 9.3 3.4-1.5 4-7.8c.7-8-.3-12.7-4.8-17.8-2-2.2-4.5-3.4-4.7-3.5A25.5 25.5 0 0 0 64 64.2z" fill="#402720"/></g><path d="M68.3 100.9c-1.6 1-7 1-8.6 0-1-.6-2 .3-1.6 1.1.4.9 3.4 2.8 5.9 2.8s5.4-2 5.8-2.8c.4-.8-.6-1.7-1.5-1.1z" fill="#795548"/></g></g></g></svg>