<svg viewBox="0 0 128 128" xmlns="http://www.w3.org/2000/svg" xmlns:xlink="http://www.w3.org/1999/xlink"><defs><path id="a" d="M4 4h120v120H4z"/></defs><clipPath id="b"><use xlink:href="#a"/></clipPath><g clip-path="url(#b)"><radialGradient id="c" cx="153.59" cy="-98.066" r="57.903" gradientTransform="matrix(.826 0 0 .826 -6.75 73.271)" gradientUnits="userSpaceOnUse"><stop stop-color="#6D4C41" offset="0"/><stop stop-color="#543930" offset="1"/></radialGradient><path d="M102.89 119.76s-6.8-.35-10.21-5.09c-7.37-10.23-11.42-35.81-11.42-72.02 0-1.66.26-16.41 10.66-26.83 6.75-6.76 16.34-10.19 28.52-10.19 12.08 0 21.52 3.38 28.05 10.04 9.82 10.02 10.04 24.16 9.99 26.89 0 36.31-4.06 61.89-11.42 72.12-3.33 4.62-9.8 5.06-10.25 5.09l-16.93-.03-16.99.02z" fill="url(#c)"/><path d="M120.44 7.12c11.66 0 20.74 3.23 26.98 9.59 9.6 9.8 9.59 24.2 9.56 25.81v.12c0 35.9-3.96 61.17-11.14 71.15-2.84 3.94-8.55 4.43-9.08 4.46l-16.9-.03-16.88.03c-.58-.04-6.25-.54-9.08-4.46-7.18-9.98-11.14-35.24-11.14-71.17 0-.63.08-15.58 10.22-25.75 6.46-6.46 15.69-9.75 27.46-9.75m0-3c-41.01 0-40.68 37.92-40.68 38.52 0 24.56 1.88 59.25 11.71 72.9 3.9 5.41 11.43 5.71 11.43 5.71l16.97-.03 16.97.03s7.53-.3 11.43-5.71c9.83-13.65 11.71-48.34 11.71-72.9-.01-.6 1.46-38.52-39.54-38.52z" fill="#3F2720"/><linearGradient id="d" x1="119.87" x2="119.87" y1="97.5" y2="130.5" gradientUnits="userSpaceOnUse"><stop stop-color="#a0f" offset="0"/><stop stop-color="#A100F2" offset=".419"/><stop stop-color="#9000D9" offset="1"/></linearGradient><path d="M69.37 130.5v-9.51c0-17.29 27.21-23.46 50.5-23.49h.13c13.39 0 25.82 2.15 35.01 6.05 7 2.98 15.35 8.42 15.35 17.44v9.51H69.37z" fill="url(#d)"/><path d="M120 99c24.28 0 48.86 7.55 48.86 21.99V129h-98v-8.01c0-6.95 4.88-12.47 14.52-16.42 8.75-3.58 20.99-5.56 34.49-5.57h.13m0-3h-.14c-25.65.03-52 7.1-52 24.99V132h104v-11.01C171.87 104.13 145.77 96 120 96z" fill="#7F00BF"/><path d="M119.04 107.23c-4 0-7.26-3.22-7.26-7.17v-8.98h16.16v8.98c0 3.96-3.26 7.17-7.26 7.17h-1.64z" fill="#E59600"/><path d="M126.95 92.08v7.98c0 3.4-2.81 6.17-6.26 6.17h-1.65c-3.45 0-6.26-2.77-6.26-6.17v-7.98h14.17m2-2h-18.16v9.98c0 4.51 3.7 8.17 8.26 8.17h1.65c4.56 0 8.26-3.66 8.26-8.17v-9.98h-.01z" fill="#D18100"/><linearGradient id="e" x1="119.87" x2="119.87" y1="94.708" y2="17.885" gradientUnits="userSpaceOnUse"><stop stop-color="#FFB300" offset="0"/><stop stop-color="#FFB809" offset=".102"/><stop stop-color="#FFC21A" offset=".371"/><stop stop-color="#FFC825" offset=".659"/><stop stop-color="#FFCA28" offset="1"/></linearGradient><path d="M119.87 95.27c-2.3 0-4.91-.5-7.56-1.43-11.33-4.01-24.57-16.34-24.57-37.88 0-28.72 17.31-38.91 32.13-38.91S152 27.23 152 55.95c0 21.58-13.26 33.9-24.61 37.9-2.64.93-5.24 1.42-7.52 1.42z" fill="url(#e)"/><path d="M119.87 18.04c8.41 0 16.06 3.25 21.55 9.15 6.27 6.73 9.58 16.68 9.58 28.77 0 21.06-12.9 33.07-23.94 36.96-2.53.89-5.01 1.36-7.19 1.36-2.19 0-4.69-.48-7.23-1.38-11.03-3.9-23.9-15.92-23.9-36.94 0-12.09 3.31-22.03 9.58-28.77 5.49-5.9 13.14-9.15 21.55-9.15m0-2c-17.2 0-33.13 12.79-33.13 39.91 0 21.79 13.49 34.67 25.23 38.83 2.8.99 5.5 1.49 7.9 1.49 2.38 0 5.07-.49 7.85-1.47C139.47 90.66 153 77.77 153 55.95c0-27.12-15.93-39.91-33.13-39.91z" fill="#ED9E00"/><defs><path id="f" d="M86.27 88.85l-1.5-51.44c0-16.95 15.78-29.85 32.73-29.85h4.93c16.95 0 32.54 12.9 32.54 29.85l-1.5 51.18-67.2.26z"/></defs><clipPath id="g"><use xlink:href="#f"/></clipPath><g clip-path="url(#g)"><radialGradient id="h" cx="173.29" cy="-89.217" r="48.206" gradientTransform="matrix(.796 0 0 .796 -18.075 70.598)" gradientUnits="userSpaceOnUse"><stop stop-color="#6D4C41" offset="0"/><stop stop-color="#543930" offset="1"/></radialGradient><path d="M157.76 42.65s1.02-35.57-37.81-35.57-37.97 35.57-37.97 35.57.33 45.48 3.2 51.39 7.2 5.71 7.2 5.71-2.03-26.54-2.26-39.04c-.06-2.92-.94-13.73 5.16-15.09 22.36-5.02 35.01-16.89 35.01-16.89 3.29 7.19 13.58 14.19 17.27 16.86 3.03 2.19 2.61 11.2 2.55 15.03l-3.05 39.06s4.68.37 7.65-5.64c2.95-6.02 3.05-51.39 3.05-51.39z" fill="url(#h)"/></g><path d="M123.68 68.05c-.1-.04-.21-.07-.32-.08h-6.99c-.11.01-.21.04-.32.08-.63.26-.98.91-.68 1.61s1.69 2.66 4.49 2.66 4.19-1.96 4.49-2.66c.31-.69-.04-1.35-.67-1.61z" fill="#E59600"/><ellipse cx="103.62" cy="58.87" rx="4.87" ry="5.04" fill="#404040"/><ellipse cx="136.11" cy="58.87" rx="4.87" ry="5.04" fill="#404040"/><path d="M110.85 49.82c-.93-1.23-3.07-3.01-7.23-3.01s-6.31 1.79-7.23 3.01c-.41.54-.31 1.17-.02 1.55.26.35 1.04.68 1.9.39s2.54-1.16 5.35-1.18c2.81.02 4.49.89 5.35 1.18s1.64-.03 1.9-.39c.29-.38.39-1.01-.02-1.55zM143.35 49.82c-.93-1.23-3.07-3.01-7.23-3.01s-6.31 1.79-7.23 3.01c-.41.54-.31 1.17-.02 1.55.26.35 1.04.68 1.9.39s2.54-1.16 5.35-1.18c2.81.02 4.49.89 5.35 1.18s1.64-.03 1.9-.39c.28-.38.39-1.01-.02-1.55z" fill="#6D4C41"/><path d="M128.18 76.14c-3.15 1.87-13.46 1.87-16.61 0-1.81-1.07-3.65.57-2.9 2.21.74 1.61 6.37 5.36 11.23 5.36 4.87 0 10.42-3.75 11.16-5.36.75-1.64-1.07-3.29-2.88-2.21z" fill="#795548"/></g><g clip-path="url(#b)"><radialGradient id="i" cx="18.81" cy="-98.066" r="57.903" gradientTransform="matrix(.826 0 0 .826 -6.75 73.271)" gradientUnits="userSpaceOnUse"><stop stop-color="#6D4C41" offset="0"/><stop stop-color="#543930" offset="1"/></radialGradient><path d="M-8.44 119.76s-6.8-.35-10.21-5.09c-7.37-10.23-11.42-35.81-11.42-72.02 0-1.66.26-16.41 10.66-26.83 6.75-6.77 16.34-10.2 28.52-10.2 12.08 0 21.52 3.38 28.05 10.04 9.82 10.02 10.04 24.16 9.99 26.89 0 36.31-4.06 61.89-11.42 72.12-3.3 4.59-9.79 5.06-10.25 5.09l-16.93-.03-16.99.03z" fill="url(#i)"/><path d="M9.11 7.12c11.66 0 20.74 3.23 26.98 9.59 9.6 9.8 9.59 24.2 9.56 25.81v.12c0 35.9-3.96 61.17-11.14 71.15-2.84 3.94-8.55 4.43-9.08 4.46l-16.9-.03-16.88.03c-.58-.04-6.25-.54-9.08-4.46-7.18-9.98-11.14-35.24-11.14-71.17 0-.63.08-15.58 10.22-25.75 6.46-6.46 15.7-9.75 27.46-9.75m0-3c-41.01 0-40.68 37.92-40.68 38.52 0 24.56 1.88 59.25 11.71 72.9 3.9 5.41 11.43 5.71 11.43 5.71l16.97-.03 16.97.03s7.53-.3 11.43-5.71c9.83-13.65 11.71-48.34 11.71-72.9-.01-.6 1.46-38.52-39.54-38.52z" fill="#3F2720"/><linearGradient id="j" x1="8.536" x2="8.536" y1="97.5" y2="130.5" gradientUnits="userSpaceOnUse"><stop stop-color="#651FFF" offset="0"/><stop stop-color="#5914F2" offset=".705"/><stop stop-color="#530EEB" offset="1"/></linearGradient><path d="M-41.96 130.5v-9.51c0-17.29 27.21-23.46 50.5-23.49h.14c13.39 0 25.82 2.15 35.01 6.05 7 2.98 15.35 8.42 15.35 17.44v9.51h-101z" fill="url(#j)"/><path d="M8.67 99c24.28 0 48.86 7.55 48.86 21.99V129h-98v-8.01c0-6.95 4.88-12.47 14.52-16.42 8.75-3.58 20.99-5.56 34.49-5.57h.13m0-3h-.14c-25.65.03-52 7.1-52 24.99V132h104v-11.01C60.54 104.13 34.44 96 8.67 96z" fill="#4A00ED"/><path d="M7.71 107.23c-4 0-7.26-3.22-7.26-7.17v-8.98h16.16v8.98c0 3.96-3.25 7.17-7.26 7.17H7.71z" fill="#E59600"/><path d="M15.62 92.08v7.98c0 3.4-2.81 6.17-6.26 6.17H7.71c-3.45 0-6.26-2.77-6.26-6.17v-7.98h14.17m2-2H-.54v9.98c0 4.51 3.7 8.17 8.26 8.17h1.65c4.56 0 8.26-3.66 8.26-8.17v-9.98h-.01z" fill="#D18100"/><linearGradient id="k" x1="8.536" x2="8.536" y1="94.708" y2="17.885" gradientUnits="userSpaceOnUse"><stop stop-color="#FFB300" offset="0"/><stop stop-color="#FFB809" offset=".102"/><stop stop-color="#FFC21A" offset=".371"/><stop stop-color="#FFC825" offset=".659"/><stop stop-color="#FFCA28" offset="1"/></linearGradient><path d="M8.54 95.27c-2.3 0-4.91-.5-7.56-1.43-11.33-4.01-24.57-16.34-24.57-37.88 0-28.72 17.31-38.91 32.13-38.91s32.13 10.19 32.13 38.91c0 21.58-13.26 33.9-24.61 37.9-2.64.92-5.24 1.41-7.52 1.41z" fill="url(#k)"/><path d="M8.54 18.04c8.41 0 16.06 3.25 21.55 9.15 6.27 6.73 9.58 16.68 9.58 28.77 0 21.06-12.9 33.07-23.94 36.96-2.53.89-5.01 1.36-7.19 1.36-2.19 0-4.69-.48-7.23-1.38-11.03-3.9-23.9-15.92-23.9-36.94 0-12.09 3.31-22.03 9.58-28.77 5.49-5.9 13.14-9.15 21.55-9.15m0-2c-17.2 0-33.13 12.79-33.13 39.91 0 21.79 13.49 34.67 25.23 38.83 2.8.99 5.5 1.49 7.9 1.49 2.38 0 5.07-.49 7.85-1.47 11.76-4.14 25.28-17.03 25.28-38.84 0-27.13-15.93-39.92-33.13-39.92z" fill="#ED9E00"/><defs><path id="l" d="M-25.06 88.85l-1.5-51.44c0-16.95 15.78-29.85 32.73-29.85h4.93c16.95 0 32.54 12.9 32.54 29.85l-1.5 51.18-67.2.26z"/></defs><clipPath id="m"><use xlink:href="#l"/></clipPath><g clip-path="url(#m)"><radialGradient id="n" cx="33.43" cy="-89.217" r="48.206" gradientTransform="matrix(.796 0 0 .796 -18.075 70.598)" gradientUnits="userSpaceOnUse"><stop stop-color="#6D4C41" offset="0"/><stop stop-color="#543930" offset="1"/></radialGradient><path d="M46.43 42.65S47.45 7.08 8.62 7.08s-37.97 35.57-37.97 35.57.33 45.48 3.2 51.39 7.2 5.71 7.2 5.71-2.03-26.54-2.26-39.04c-.06-2.92-.94-13.73 5.16-15.09C6.31 40.6 18.96 28.73 18.96 28.73c3.29 7.19 13.58 14.19 17.27 16.86 3.03 2.19 2.61 11.2 2.55 15.03l-3.05 39.06s4.68.37 7.65-5.64c2.95-6.02 3.05-51.39 3.05-51.39z" fill="url(#n)"/></g><path d="M12.35 68.05c-.1-.04-.21-.07-.32-.08H5.04c-.11.01-.21.04-.32.08-.63.26-.98.91-.68 1.61s1.69 2.66 4.49 2.66 4.19-1.96 4.49-2.66c.31-.69-.04-1.35-.67-1.61z" fill="#E59600"/><ellipse cx="-7.71" cy="58.87" rx="4.87" ry="5.04" fill="#404040"/><ellipse cx="24.78" cy="58.87" rx="4.87" ry="5.04" fill="#404040"/><path d="M-.48 49.82c-.93-1.23-3.07-3.01-7.23-3.01s-6.31 1.79-7.23 3.01c-.41.54-.31 1.17-.02 1.55.26.35 1.04.68 1.9.39s2.54-1.16 5.35-1.18c2.81.02 4.49.89 5.35 1.18s1.64-.03 1.9-.39c.29-.38.39-1.01-.02-1.55zM32.02 49.82c-.93-1.23-3.07-3.01-7.23-3.01s-6.31 1.79-7.23 3.01c-.41.54-.31 1.17-.02 1.55.26.35 1.04.68 1.9.39s2.54-1.16 5.35-1.18c2.81.02 4.49.89 5.35 1.18s1.64-.03 1.9-.39c.28-.38.39-1.01-.02-1.55z" fill="#6D4C41"/><path d="M16.85 76.14c-3.15 1.87-13.46 1.87-16.61 0-1.81-1.07-3.65.57-2.9 2.21.74 1.61 6.37 5.36 11.23 5.36S19 79.96 19.73 78.35c.75-1.64-1.07-3.29-2.88-2.21z" fill="#795548"/></g><g clip-path="url(#b)"><linearGradient id="o" x1="64.22" x2="64.22" y1="-4.38" y2="54.603" gradientUnits="userSpaceOnUse"><stop stop-color="#F48FB1" offset="0"/><stop stop-color="#EC407A" offset="1"/></linearGradient><path d="M64.22 70.89c-.66 0-1.28-.26-1.75-.73-1.16-1.17-2.64-2.66-4.33-4.36-8.42-8.45-22.51-22.58-26.83-29-2.03-3.03-3.26-5.96-3.76-8.95-.55-3.29-.52-7.96.77-10.97C31.37 9.75 37.53 5.5 44.79 5.5l.94.02c2.79.05 5.6.65 8.37 1.81 1.88.79 3.4 1.87 5 3.01.81.58 1.66 1.18 2.57 1.76.74.47 1.62.72 2.55.72s1.8-.25 2.54-.72c.91-.58 1.74-1.17 2.55-1.75 1.61-1.15 3.14-2.24 5.03-3.03 2.76-1.15 5.57-1.76 8.35-1.8l.96-.02c7.26 0 13.42 4.25 16.47 11.38 1.29 3.01 1.32 7.68.77 10.97-.51 3.02-1.75 5.95-3.76 8.94-4.31 6.43-18.43 20.58-26.86 29.03-1.68 1.69-3.15 3.16-4.3 4.33-.47.48-1.09.74-1.75.74z" fill="url(#o)"/><path d="M44.79 7h.06c.15 0 .3.01.45.01.13 0 .26 0 .42.01 2.58.04 5.21.61 7.79 1.69 1.73.73 3.11 1.71 4.71 2.85.83.59 1.69 1.2 2.64 1.81.98.62 2.14.95 3.35.95s2.37-.33 3.35-.95c.94-.6 1.79-1.2 2.61-1.79 1.61-1.15 3-2.14 4.73-2.87 2.59-1.08 5.21-1.65 7.83-1.69.13 0 .26-.01.39-.01.15 0 .3 0 .45-.01h.06c6.74 0 12.24 3.82 15.09 10.47 1.16 2.72 1.16 7.16.67 10.12-.48 2.81-1.63 5.55-3.53 8.37-4.23 6.3-18.27 20.38-26.67 28.8-1.69 1.69-3.16 3.17-4.31 4.34a.941.941 0 0 1-1.36 0c-1.16-1.17-2.64-2.66-4.33-4.36-8.39-8.41-22.42-22.48-26.65-28.78-1.91-2.86-3.06-5.59-3.53-8.36-.5-2.98-.5-7.42.67-10.14C32.55 10.82 38.05 7 44.79 7m38.86-3h-.11c-.3.01-.58.01-.88.02-3.08.05-6.07.74-8.9 1.92-3.03 1.27-5.11 3.18-7.8 4.89-.51.32-1.12.48-1.74.48s-1.24-.16-1.74-.48c-2.7-1.71-4.77-3.62-7.8-4.89-2.83-1.18-5.82-1.87-8.9-1.92-.29-.01-.59-.01-.88-.02h-.11c-7.83 0-14.51 4.48-17.85 12.29-1.42 3.32-1.45 8.32-.87 11.81.58 3.47 2.04 6.61 3.99 9.54 5.26 7.82 24.32 26.44 31.33 33.57.77.79 1.79 1.18 2.81 1.18s2.04-.39 2.81-1.18c7.01-7.13 26.08-25.75 31.33-33.57 1.97-2.92 3.41-6.06 4-9.54.58-3.49.56-8.49-.87-11.81C98.15 8.48 91.47 4 83.65 4z" fill="#D92E67"/></g></svg>