<svg viewBox="0 0 128 128" xmlns="http://www.w3.org/2000/svg" xmlns:xlink="http://www.w3.org/1999/xlink"><defs><path id="a" d="M4 4h120v120H4z"/></defs><clipPath id="b"><use xlink:href="#a"/></clipPath><g clip-path="url(#b)"><linearGradient id="c" x1="64" x2="64" y1="95.9" y2="126.5" gradientUnits="userSpaceOnUse"><stop stop-color="#651FFF" offset="0"/><stop stop-color="#5914F2" offset=".7"/><stop stop-color="#530EEB" offset="1"/></linearGradient><path d="M14 126.5v-6.6c0-7.7 5.1-13.8 15.2-18a92.2 92.2 0 0 1 34.8-6h.1c24.8 0 49.9 8.3 49.9 24v6.6H14z" fill="url(#c)"/><path d="M64.1 97.5c12.9 0 25.3 2.2 34.1 6 6.5 3 14.3 8.1 14.3 16.4v5.1h-97v-5.1c0-15.5 24.4-22.4 48.5-22.5h.1m0-3H64c-25.7 0-51.5 7.6-51.5 25.5v8.1h103v-8.1c0-16.9-25.6-25.5-51.4-25.5z" fill="#4A00ED"/></g><g clip-path="url(#b)"><path d="M63.2 107.2c-4 0-7.3-3.2-7.3-7.1v-9h16.2v9c0 4-3.3 7.1-7.3 7.1h-1.6z" fill="#EDC391"/><path d="M71 92v8c0 3.5-2.7 6.2-6.2 6.2h-1.6a6.2 6.2 0 0 1-6.3-6.1v-8h14.2m2-2H54.9v10c0 4.5 3.7 8.1 8.3 8.1h1.6c4.6 0 8.3-3.6 8.3-8.1V90z" fill="#D9AC77"/></g><g clip-path="url(#b)"><linearGradient id="d" x1="28.5" x2="99.5" y1="62.5" y2="62.5" gradientUnits="userSpaceOnUse"><stop stop-color="#FFD29C" offset="0"/><stop stop-color="#FFD39E" offset="0"/><stop stop-color="#FCD8AF" offset=".3"/><stop stop-color="#FADCBA" offset=".6"/><stop stop-color="#F9DDBD" offset="1"/></linearGradient><path d="M37.8 71c-5.1 0-9.3-3.8-9.3-8.5s4.2-8.5 9.3-8.5h52.4c5.1 0 9.3 3.8 9.3 8.5S95.3 71 90.2 71H37.8z" fill="url(#d)"/><path d="M90.2 55c4.6 0 8.3 3.4 8.3 7.5S94.8 70 90.2 70H37.8c-4.6 0-8.3-3.4-8.3-7.5s3.7-7.5 8.3-7.5h52.4m0-2H37.8c-5.7 0-10.3 4.3-10.3 9.5S32.1 72 37.8 72h52.4c5.7 0 10.3-4.3 10.3-9.5S95.9 53 90.2 53z" fill="#EDBD82"/><linearGradient id="e" x1="63.8" x2="63.8" y1="92.6" y2="12.8" gradientUnits="userSpaceOnUse"><stop stop-color="#FFD29C" offset="0"/><stop stop-color="#FFD39E" offset="0"/><stop stop-color="#FCD8AF" offset=".3"/><stop stop-color="#FADCBA" offset=".6"/><stop stop-color="#F9DDBD" offset="1"/></linearGradient><path d="M63.8 93.1c-2.3 0-4.9-.5-7.5-1.4a40.5 40.5 0 0 1-24.6-38.9C31.7 26.4 43.2 12 64 12c20.6 0 32 14.5 32 41a40.4 40.4 0 0 1-24.7 38.8 21 21 0 0 1-7.5 1.4z" fill="url(#e)"/><path d="M64 13c20 0 31 14 31 39.8a43 43 0 0 1-8 25.4 35 35 0 0 1-16 12.6c-2.5.9-5 1.3-7.2 1.3s-4.7-.4-7.2-1.3c-6-2.2-11.8-6.7-16-12.6a43 43 0 0 1-8-25.4C32.7 27.1 43.9 13 64 13m0-2c-21 0-33.3 14.8-33.3 42a41.3 41.3 0 0 0 25.2 39.7 24 24 0 0 0 8 1.5c2.3 0 5-.5 7.8-1.4a41.3 41.3 0 0 0 25.3-40C97 25.7 85 11 64 11z" fill="#EDBD82"/><g fill="#312D2D"><ellipse cx="47.7" cy="58.9" rx="4.9" ry="5"/><ellipse cx="80.6" cy="58.9" rx="4.9" ry="5"/></g><path d="M68 68h-7.7c-.6.3-1 1-.6 1.7s1.6 2.6 4.4 2.6 4.2-2 4.5-2.6c.3-.7 0-1.4-.6-1.7z" fill="#DBA689"/><radialGradient id="f" cx="48.6" cy="49.3" r="5.6" gradientUnits="userSpaceOnUse"><stop stop-color="#454140" offset=".1"/><stop stop-color="#454140" offset="1"/></radialGradient><path d="M55.8 49.8c-1-1.2-3-3-7.2-3s-6.4 1.8-7.3 3c-.4.6-.3 1.2 0 1.6.3.3 1 .6 1.9.4s2.5-1.2 5.3-1.2c2.9 0 4.5.9 5.4 1.2s1.6 0 1.9-.4c.3-.4.4-1 0-1.6z" fill="url(#f)"/><radialGradient id="g" cx="80.7" cy="49.3" r="5.6" gradientUnits="userSpaceOnUse"><stop stop-color="#454140" offset=".1"/><stop stop-color="#454140" offset="1"/></radialGradient><path d="M88 49.8c-1-1.2-3.1-3-7.3-3s-6.3 1.8-7.2 3c-.5.6-.4 1.2 0 1.6.2.3 1 .6 1.8.4s2.6-1.2 5.4-1.2c2.8 0 4.5.9 5.3 1.2s1.7 0 2-.4c.2-.4.3-1 0-1.6z" fill="url(#g)"/><path d="M72 76.1a25.3 25.3 0 0 1-16.6 0c-1.8-1-3.6.6-2.9 2.3.8 1.6 6.4 5.3 11.3 5.3 4.8 0 10.4-3.7 11.1-5.4.8-1.6-1-3.2-2.9-2.2z" fill="#424242"/></g></svg>