<svg viewBox="0 0 128 128" xmlns="http://www.w3.org/2000/svg" xmlns:xlink="http://www.w3.org/1999/xlink"><defs><path id="a" d="M4 4h120v120H4z"/></defs><clipPath id="b"><use xlink:href="#a"/></clipPath><g clip-path="url(#b)"><radialGradient id="c" cx="9.087" cy="-131.98" r="57.904" gradientTransform="matrix(.826 0 0 .826 42.745 101.29)" gradientUnits="userSpaceOnUse"><stop stop-color="#BFA055" offset="0"/><stop stop-color="#AB872F" offset="1"/></radialGradient><path d="M33.02 119.76s-6.8-.35-10.21-5.09c-7.37-10.23-11.42-35.81-11.42-72.02 0-1.66.26-16.4 10.66-26.83C28.8 9.05 38.4 5.62 50.57 5.62c12.08 0 21.52 3.38 28.05 10.04 9.82 10.02 10.04 24.16 9.99 26.89 0 36.31-4.06 61.89-11.42 72.12-3.33 4.62-9.8 5.06-10.25 5.09L50 119.73l-16.98.03z" fill="url(#c)"/><path d="M50.57 7.12c11.66 0 20.74 3.23 26.98 9.59 9.6 9.8 9.59 24.2 9.56 25.81v.12c0 35.9-3.96 61.17-11.14 71.15-2.84 3.94-8.55 4.43-9.08 4.46l-16.9-.03-16.89.03c-.54-.04-6.24-.53-9.08-4.46-7.18-9.98-11.14-35.24-11.14-71.17 0-.63.08-15.58 10.22-25.75 6.47-6.46 15.71-9.75 27.47-9.75m0-3C9.56 4.12 9.89 42.04 9.89 42.65c0 24.56 1.88 59.25 11.71 72.9 3.9 5.41 11.43 5.71 11.43 5.71l16.97-.03 16.97.03s7.53-.3 11.43-5.71c9.83-13.65 11.71-48.34 11.71-72.9-.01-.61 1.47-38.53-39.54-38.53z" fill="#8F7635"/></g><g clip-path="url(#b)"><linearGradient id="d" x1="50" x2="50" y1="97.196" y2="136.01" gradientUnits="userSpaceOnUse"><stop stop-color="#eee" offset=".001"/><stop stop-color="#EBEBEB" offset=".348"/><stop stop-color="#E0E0E0" offset=".651"/><stop stop-color="#CECECE" offset=".937"/><stop stop-color="#C9C9C9" offset="1"/></linearGradient><path d="M-.5 136.01v-15.26c0-16.24 25.36-23.53 50.5-23.56h.13c25.03 0 50.36 8.09 50.36 23.56v15.26H-.5z" fill="url(#d)"/><path d="M50.13 98.7c12.9 0 25.42 2.19 34.36 6 6.62 2.83 14.51 7.91 14.51 16.05v13.76H1v-13.76c0-15.2 24.61-22.03 49-22.06l.13.01m0-3H50c-25.49.03-52 7.28-52 25.06v16.76h104v-16.76C102 104 75.74 95.7 50.13 95.7z" fill="#CDCFD1"/></g><g clip-path="url(#b)"><path d="M49.17 109.48c-4 0-7.26-3.22-7.26-7.17v-8.98h16.16v8.98c0 3.96-3.26 7.17-7.26 7.17h-1.64z" fill="#C48E6A"/><path d="M57.08 94.33v7.98c0 3.4-2.81 6.17-6.26 6.17h-1.65c-3.45 0-6.26-2.77-6.26-6.17v-7.98h14.17m2-2H40.92v9.98c0 4.51 3.7 8.17 8.26 8.17h1.65c4.56 0 8.26-3.66 8.26-8.17v-9.98h-.01z" fill="#B07853"/></g><linearGradient id="e" x1="50.079" x2="50.079" y1="105" y2="133.28" gradientUnits="userSpaceOnUse"><stop stop-color="#80CBC4" offset=".003"/><stop stop-color="#73C6BE" offset=".333"/><stop stop-color="#51B8AE" offset=".941"/><stop stop-color="#4DB6AC" offset="1"/></linearGradient><path clip-path="url(#b)" fill="url(#e)" d="M39.51 105l3.59 28h14.34l3.21-28z"/><g clip-path="url(#b)"><path d="M56.9 125.06l3.07-27.91c3.81.3 6.17.67 7.13.83l2.58 6.02-5.43 4.54 4.99 6.29-8.08 10.22H56.9z" fill="#EFF2F5"/><path d="M60.86 98.23c2.67.23 4.51.49 5.54.65l2.07 4.84-4.11 3.43-1.49 1.25 1.21 1.53 3.89 4.91-7.29 9.22h-2.66l2.84-25.83m-1.78-2.15l-3.29 29.98h5.86l8.87-11.22-4.87-6.15 5.25-4.39-3.09-7.2s-2.81-.59-8.73-1.02z" fill="#ccc"/><path d="M38.83 125.06l-8.08-10.22 4.99-6.29-5.43-4.54 2.62-6.11c.97-.15 3.31-.47 7.1-.76l3.07 27.93h-4.27z" fill="#EFF2F5"/><path d="M39.14 98.21l2.84 25.85h-2.66l-7.29-9.22 3.89-4.91 1.21-1.53-1.49-1.25-4.11-3.43 2.11-4.91c1.03-.15 2.85-.38 5.5-.6m1.78-2.15c-5.93.43-8.69.94-8.69.94l-3.13 7.3 5.25 4.39-4.87 6.15 8.87 11.22h5.86l-3.29-30z" fill="#ccc"/></g><g clip-path="url(#b)"><radialGradient id="f" cx="108.61" cy="71.688" r="26.429" gradientTransform="matrix(.9467 .00884 -.00837 1 -1.71 1.81)" gradientUnits="userSpaceOnUse"><stop stop-color="#CE93D8" offset="0"/><stop stop-color="#CA8AD5" offset=".205"/><stop stop-color="#BF73CC" offset=".537"/><stop stop-color="#AD4CBE" offset=".95"/><stop stop-color="#AB47BC" offset="1"/></radialGradient><path d="M100.4 76.71c-3.56-.03-6.44-1.18-6.42-2.56l-.27 32.78c-.03 3.76 2.83 6.83 6.39 6.87 3.56.03 6.47-2.99 6.5-6.75l.27-32.78c-.01 1.38-2.91 2.47-6.47 2.44z" fill="url(#f)" opacity=".8"/><linearGradient id="g" x1="100.36" x2="100.36" y1="50.48" y2="73.187" gradientTransform="matrix(1 .00884 -.00884 1 .695 1.81)" gradientUnits="userSpaceOnUse"><stop stop-color="#B3E5FC" offset="0"/><stop stop-color="#B0E4FC" offset=".309"/><stop stop-color="#A5E0FB" offset=".571"/><stop stop-color="#94DAFB" offset=".815"/><stop stop-color="#81D4FA" offset="1"/></linearGradient><path d="M100.6 52.89c-3.56-.03-6.45 1.06-6.47 2.44l-.16 18.82c.01-1.38 2.91-2.47 6.47-2.44s6.44 1.18 6.42 2.56l.16-18.82c.02-1.38-2.86-2.52-6.42-2.56z" fill="url(#g)" opacity=".8"/><ellipse transform="matrix(.00837 -1 1 .00837 25.372 174.01)" cx="100.42" cy="74.21" rx="2.5" ry="6.45" fill="#9575CD" opacity=".8"/><path d="M102.38 80.27c-.21 0-.41-.02-.61-.03l-.01 1.37c.2.01.4.03.61.03 1.72.02 3.28-.24 4.45-.65l.01-1.38c-1.16.41-2.72.67-4.45.66zM102.34 84.61c-.21 0-.41-.02-.61-.03l-.01 1.37c.2.01.4.03.61.03 1.72.02 3.28-.24 4.45-.65l.01-1.38c-1.16.42-2.71.68-4.45.66zM102.31 88.96c-.21 0-.41-.02-.61-.03l-.01 1.37c.2.01.4.03.61.03 1.72.02 3.28-.24 4.45-.65l.01-1.38c-1.16.42-2.72.67-4.45.66zM102.27 93.3c-.21 0-.41-.02-.61-.03l-.01 1.37c.2.01.4.03.61.03 1.72.02 3.28-.24 4.45-.65l.01-1.38c-1.16.42-2.72.68-4.45.66z" fill="#EDE7F6"/><path d="M100.44 54.35h.14c2.6.02 4.27.68 4.83 1.09-.57.41-2.21.99-4.7.99h-.14c-2.6-.02-4.27-.68-4.83-1.09.57-.41 2.22-.99 4.7-.99m0-1.46c-3.49 0-6.3 1.08-6.31 2.44-.01 1.38 2.86 2.53 6.42 2.56h.16c3.49 0 6.3-1.08 6.31-2.44.01-1.38-2.86-2.53-6.42-2.56h-.16z" fill="#A26FAD"/><path d="M100.45 54.35h.14c2.33.02 4.09.56 4.81 1.08.08.06.13.11.17.14l-.16 18.69-.04 5.33v.25l-.04 4.93v.55l-.02 2.96-.01.93-.03 3.42v.09l-.12 14.33c-.02 2.92-2.26 5.3-5.03 5.3-2.75-.03-4.97-2.45-4.94-5.4l.27-32.78.16-18.68c.08-.08.27-.23.64-.4.1-.05.21-.09.32-.13.19-.07.42-.14.69-.21.07-.02.14-.04.21-.05.23-.06.47-.1.72-.15.7-.14 1.47-.2 2.26-.2m0-1.46c-.9 0-1.75.07-2.52.2-.29.05-.56.1-.82.17a7.917 7.917 0 0 0-1.07.32c-.15.06-.29.11-.42.17-.92.42-1.48.97-1.49 1.58l-.16 18.82-.27 32.78c-.03 3.76 2.83 6.83 6.39 6.87h.06c3.53 0 6.41-3.01 6.44-6.75l.12-14.33v-.09l.03-3.42.01-.93.02-2.96v-.55l.04-4.93v-.25l.04-5.33.16-18.82c0-.43-.27-.84-.77-1.2-1.08-.79-3.21-1.34-5.66-1.36-.03.01-.08.01-.13.01z" fill="#A26FAD"/></g><g clip-path="url(#b)"><path d="M100.82 129.79l-8-.25c-6.96-.71-11.7-4.77-10.79-13.12 1.97-18.12 21.83-12.18 23.64-6.3 2.7 8.8-1.75 19.98-4.85 19.67z" fill="#80CBC4" stroke="#5DA89F" stroke-linecap="round" stroke-linejoin="round" stroke-miterlimit="10" stroke-width="1.937"/><path d="M93.5 126c-.27 1.7.89 3.29 2.59 3.57l4.33.69c1.7.27 3.29-.89 3.57-2.59.27-1.7-.89-3.29-2.59-3.57l-4.33-.69c-1.7-.27-3.3.89-3.57 2.59z" fill="#80CBC4" stroke="#5DA89F" stroke-linecap="round" stroke-linejoin="round" stroke-miterlimit="10" stroke-width="1.669"/><path d="M94.71 121.54c-.26 1.71.91 3.31 2.62 3.58l5.68.87c1.71.26 3.31-.91 3.58-2.62.26-1.71-.91-3.31-2.62-3.58l-5.68-.87c-1.71-.26-3.32.91-3.58 2.62z" fill="#80CBC4" stroke="#5DA89F" stroke-linecap="round" stroke-linejoin="round" stroke-miterlimit="10" stroke-width="1.937"/><path d="M94.97 117.26a3.065 3.065 0 0 0 2.74 3.36l6.95.71a3.065 3.065 0 1 0 .62-6.1l-6.95-.71a3.059 3.059 0 0 0-3.36 2.74z" fill="#80CBC4" stroke="#5DA89F" stroke-linecap="round" stroke-linejoin="round" stroke-miterlimit="10" stroke-width="1.937"/><path d="M94.89 111.78a3.072 3.072 0 0 0 2.92 3.21l6.98.33c1.69.08 3.13-1.23 3.21-2.92a3.072 3.072 0 0 0-2.92-3.21l-6.98-.33a3.072 3.072 0 0 0-3.21 2.92z" fill="#80CBC4" stroke="#5DA89F" stroke-linecap="round" stroke-linejoin="round" stroke-miterlimit="10" stroke-width="1.937"/><path d="M105.57 104.92c-.77-.19-3.45-1.06-5.22-1.45-.67-.15-2.45-.48-3.13-.49-2.18-.04-9.12 2.5-10.74 4.1-.79.78-5.75 12.15 4.03 10.37 4.09-.52 3.01-5.45 4.36-6.82 1.03-1.05 2.7-2.6 7.64-.91 1.38.47 3.76.45 4.63-.6 1.51-1.83.67-3.64-1.57-4.2z" fill="#80CBC4"/><path d="M109.09 106.31c-.38-1.13-1.46-1.99-2.96-2.35-.26-.06-.74-.2-1.32-.37-1.17-.34-2.78-.8-4-1.07-.62-.14-2.52-.49-3.38-.51-6.63-.15-9.7 2.08-11.66 4.3-1.29 1.45-.98 4.03-.63 3.54.69-.95 3.8-3.73 6.56-4.78 2.42-.92 3.83-1.2 5.72-1.17.58.01 2.26.31 2.97.46 1.15.25 2.72.71 3.87 1.04.62.18 1.13.33 1.4.39.83.2 1.41.6 1.57 1.1.14.43.13 1.25-.34 1.79-.49.57-2.61.73-3.88.3-1.8-.6-3.74-1.37-5.64-.94-1.44.33-3.14 1.25-3.71 2.6-.56 1.32-.09 4.75-2.2 6.8-.87.84-3.13 1.89-3.13 1.89s2.47.54 3.86-.25c1.96-1.12 2.9-3.62 3.29-5.64.17-.9.14-2.5.42-2.76.87-.86 1.88-2.12 6.41-.61 1.58.52 4.68 1.03 5.95-.45.89-1.06 1.19-2.24.83-3.31z" fill="#5DA89F"/></g><g clip-path="url(#b)"><defs><path id="h" d="M4 4h120v120H4z"/></defs></g><g clip-path="url(#b)"><linearGradient id="i" x1="50" x2="50" y1="94.708" y2="17.885" gradientUnits="userSpaceOnUse"><stop stop-color="#CCA47A" offset="0"/><stop stop-color="#D6B088" offset=".257"/><stop stop-color="#DEB892" offset=".589"/><stop stop-color="#E0BB95" offset="1"/></linearGradient><path d="M50 95.27c-2.3 0-4.91-.5-7.56-1.43C31.1 89.83 17.87 77.5 17.87 55.95c0-28.72 17.31-38.91 32.13-38.91s32.13 10.19 32.13 38.91c0 21.58-13.26 33.9-24.61 37.9-2.63.93-5.23 1.42-7.52 1.42z" fill="url(#i)"/><path d="M50 18.04c8.41 0 16.06 3.25 21.55 9.15 6.27 6.73 9.58 16.68 9.58 28.77 0 21.06-12.9 33.07-23.94 36.96-2.53.89-5.01 1.36-7.19 1.36-2.19 0-4.69-.48-7.23-1.38-11.03-3.9-23.9-15.92-23.9-36.94 0-12.09 3.31-22.03 9.58-28.77 5.49-5.9 13.14-9.15 21.55-9.15m0-2c-17.2 0-33.13 12.79-33.13 39.91 0 21.79 13.49 34.67 25.23 38.83 2.8.99 5.5 1.49 7.9 1.49 2.38 0 5.07-.49 7.85-1.47 11.76-4.14 25.28-17.03 25.28-38.84 0-27.13-15.93-39.92-33.13-39.92z" fill="#BA8F63"/></g><g clip-path="url(#b)"><path d="M53.81 68.05c-.1-.04-.21-.07-.32-.08H46.5c-.11.01-.21.04-.32.08-.63.26-.98.91-.68 1.61s1.69 2.66 4.49 2.66 4.19-1.96 4.49-2.66c.31-.69-.03-1.35-.67-1.61z" fill="#C48E6A"/><ellipse cx="33.75" cy="58.87" rx="4.87" ry="5.04" fill="#5D4037"/><ellipse cx="66.25" cy="58.87" rx="4.87" ry="5.04" fill="#5D4037"/><path d="M40.98 49.82c-.93-1.23-3.07-3.01-7.23-3.01s-6.31 1.79-7.23 3.01c-.41.54-.31 1.17-.02 1.55.26.35 1.04.68 1.9.39s2.54-1.16 5.35-1.18c2.81.02 4.49.89 5.35 1.18s1.64-.03 1.9-.39c.29-.38.39-1.01-.02-1.55zM73.48 49.82c-.93-1.23-3.07-3.01-7.23-3.01s-6.31 1.79-7.23 3.01c-.41.54-.31 1.17-.02 1.55.26.35 1.04.68 1.9.39s2.54-1.16 5.35-1.18c2.81.02 4.49.89 5.35 1.18s1.64-.03 1.9-.39c.29-.38.39-1.01-.02-1.55z" fill="#AB872F"/><path d="M58.32 76.14c-3.15 1.87-13.46 1.87-16.61 0-1.81-1.07-3.65.57-2.9 2.21.74 1.61 6.37 5.36 11.23 5.36s10.42-3.75 11.16-5.36c.75-1.64-1.08-3.29-2.88-2.21z" fill="#6D4C41"/></g><g clip-path="url(#b)"><linearGradient id="j" x1="90.167" x2="76.541" y1="54.79" y2="54.79" gradientUnits="userSpaceOnUse"><stop stop-color="#F5F5F5" offset="0"/><stop stop-color="#E0E0E0" offset="1"/></linearGradient><path d="M84.02 57.6l-3.77 6.88c-.55 1.03-2.48 2.6-3.65 2.6l.2-24.59h.46c.96 0 1.87.44 2.47 1.19l4.6 5.44s-.02 3.75-.06 4.31c-.04.57-.25 4.17-.25 4.17z" fill="url(#j)"/><linearGradient id="k" x1="10.417" x2="20.92" y1="54.79" y2="54.79" gradientUnits="userSpaceOnUse"><stop stop-color="#F5F5F5" offset="0"/><stop stop-color="#E0E0E0" offset="1"/></linearGradient><path d="M23.2 42.5h-.46c-.96 0-1.87.44-2.47 1.19l-4.6 5.44s.02 3.75.06 4.31.25 4.17.25 4.17l3.77 6.88c.55 1.03 2.48 2.6 3.65 2.6l-.2-24.59z" fill="url(#k)"/><path d="M22.35 44.1h55.19v20.12s-3.94 5.5-13.44 3.19-13.87-5-13.87-5-8.25 6.12-20.62 5.88c0 0-6.38-.56-7.56-4.56l.3-19.63z" fill="#B3E5FC" opacity=".5"/><radialGradient id="l" cx="49.644" cy="42.707" r="32.642" gradientTransform="matrix(0 1 -1.4084 0 109.79 -6.937)" gradientUnits="userSpaceOnUse"><stop stop-color="#F5F5F5" offset="0"/><stop stop-color="#eee" offset=".676"/><stop stop-color="#E0E0E0" offset="1"/></radialGradient><path d="M52.06 42.43H22.92c-1.1 0-2 .9-2 2v20.53c0 .74.4 1.42 1.05 1.76 1.8.96 5.79 2.69 11.15 2.69.58 0 1.17-.02 1.78-.06 4.86-.35 11.41-2.3 15.08-5.31 3.67 3.01 10.22 4.96 15.08 5.31.61.04 1.2.06 1.78.06 5.36 0 9.35-1.73 11.15-2.69a1.99 1.99 0 0 0 1.05-1.76V44.43c0-1.1-.9-2-2-2H52.06zm23.97 21.28c0 .4-.23.76-.6.92a21.451 21.451 0 0 1-10.17 1.73c-4.11-.29-10.05-1.9-13.39-4.63-.55-.45-1.23-.68-1.9-.68s-1.35.23-1.9.68c-3.34 2.74-9.28 4.34-13.39 4.63a21.493 21.493 0 0 1-10.17-1.73.995.995 0 0 1-.6-.92V46.43c0-.55.45-1 1-1h50.12c.55 0 1 .45 1 1v17.28z" fill="url(#l)"/></g><g clip-path="url(#b)"><defs><path id="m" d="M16.06 88.84l-2.1-51.68c0-17.03 16.2-29.99 33.6-29.99h5.06c17.4 0 33.41 12.96 33.41 29.99l-2.7 51.43-67.27.25z"/></defs><clipPath id="n"><use xlink:href="#m"/></clipPath><g clip-path="url(#n)"><radialGradient id="o" cx="12.636" cy="-123.13" r="48.206" gradientTransform="matrix(.796 0 0 .796 39.942 97.597)" gradientUnits="userSpaceOnUse"><stop stop-color="#BFA055" offset="0"/><stop stop-color="#AB872F" offset="1"/></radialGradient><path d="M87.89 42.65S88.91 7.08 50.08 7.08 12.11 42.65 12.11 42.65s.33 45.48 3.2 51.39 7.2 5.71 7.2 5.71-2.03-26.54-2.26-39.04c-.06-2.92-.94-13.73 5.16-15.09 22.36-5.02 35.01-16.89 35.01-16.89C63.71 35.92 74 42.92 77.69 45.59c3.03 2.19 2.61 11.2 2.55 15.03l-3.05 39.06s4.68.37 7.65-5.64c2.96-6.02 3.05-51.39 3.05-51.39z" fill="url(#o)"/></g></g></svg>