<svg viewBox="0 0 128 128" xmlns="http://www.w3.org/2000/svg" xmlns:xlink="http://www.w3.org/1999/xlink"><path d="M17.8 119.6v4.4h94.4v-4.4c0-13.4-23.8-19.9-47.2-19.8-23.3 0-47.2 5.6-47.2 19.8z"/><path d="M63.2 107.2c-4 0-7.3-3.2-7.3-7.1v-9h16.2v9c0 4-3.3 7.1-7.3 7.1h-1.6z" fill="#C48E6A"/><path d="M71 92v8c0 3.5-2.7 6.2-6.2 6.2h-1.6a6.2 6.2 0 0 1-6.3-6.1v-8h14.2m2-2H54.9v10c0 4.5 3.7 8.1 8.3 8.1h1.6c4.6 0 8.3-3.6 8.3-8.1V90z" fill="#B07853"/><path d="M36.7 72.3c-5.4 0-9.7-4.7-9.7-10.4s4.3-10.5 9.7-10.5h54.6c5.4 0 9.7 4.7 9.7 10.5s-4.3 10.4-9.7 10.4H36.7z" fill="#C48E6A"/><path d="M91.3 52.4c4.8 0 8.7 4.3 8.7 9.4s-3.9 9.5-8.7 9.5H36.7c-4.8 0-8.7-4.3-8.7-9.5s3.9-9.4 8.7-9.4h54.6m0-2H36.7c-6 0-10.7 5.2-10.7 11.4 0 6.3 4.8 11.5 10.7 11.5h54.6c6 0 10.7-5.2 10.7-11.5 0-6.2-4.8-11.4-10.7-11.4z" fill="#B07853"/><linearGradient id="a" x1="64" x2="64" y1="94.6" y2="12.8" gradientUnits="userSpaceOnUse"><stop stop-color="#CCA47A" offset="0"/><stop stop-color="#D6B088" offset=".3"/><stop stop-color="#DEB892" offset=".6"/><stop stop-color="#E0BB95" offset="1"/></linearGradient><path d="M64 95.3c-15.7 0-32.5-12.2-32.5-38.8 0-12.4 3.5-23.8 10-32.2 6-7.8 14.3-12.2 22.5-12.2s16.4 4.4 22.5 12.2c6.5 8.4 10 19.8 10 32.2a42 42 0 0 1-10.1 29.2A30.5 30.5 0 0 1 64 95.3z" fill="url(#a)"/><path d="M64 13c8 0 15.8 4.4 21.7 12a51.5 51.5 0 0 1 9.8 31.5c0 11.8-3.4 21.7-9.8 28.5a29.6 29.6 0 0 1-43.3 0 40.5 40.5 0 0 1-10-28.5 51.3 51.3 0 0 1 10-31.5A28.1 28.1 0 0 1 64 13m0-2c-17.4 0-33.5 18.7-33.5 45.5C30.5 83 47 96.3 64 96.3S97.5 83 97.5 56.5C97.5 29.7 81.4 11 64 11z" fill="#BA8F63"/><linearGradient id="b" x1="51.1" x2="51.1" y1="40" y2="83.1" gradientUnits="userSpaceOnUse"><stop stop-color="#EC0000" offset="0"/><stop stop-color="#E80102" offset=".2"/><stop stop-color="#DD0507" offset=".5"/><stop stop-color="#CB0B11" offset=".7"/><stop stop-color="#B1141E" offset=".9"/><stop stop-color="#A11926" offset="1"/></linearGradient><path fill="url(#b)" d="M42.3 41.7l28.1-10.2-12.7 16.7L67.8 46 37.6 82.4l1.9-15.2-7.6 3.1z"/><path d="M40 50.7l.4-.5.2-.2.4-.4c.2 0 .2-.2.4-.4l.5-.3.5-.4.6-.3.7-.3c.3 0 .4-.2.7-.3l1.5-.3 1.6-.2a5 5 0 0 1 1.7.2l1.5.3a8.6 8.6 0 0 1 1.4.6l.6.3.5.4.5.3.4.4.3.3.3.3.4.5c.5.7.4 1.7-.3 2.2-.4.3-1 .4-1.4.2H53l-.5-.3h-.3l-.3-.2-.7-.2-.4-.2h-.4l-.2-.1H50l-.4-.2h-1l-1-.1h-1l-1 .1-.6.1h-.2l-.2.1-.4.1-.4.2h-.4l-.3.2h-.3l-.3.2-.5.3c-.9.3-1.8 0-2.1-.9-.3-.5-.2-1 0-1.5z" fill="#AB872F"/><ellipse cx="47.6" cy="58.8" rx="4.9" ry="5.1" fill="#5D4037"/><path d="M86 53.1l-.5-.2-.3-.2h-.3l-.3-.2h-.3l-.4-.2-.5-.1h-.2L83 52l-.5-.1-1-.1h-3l-.5.2h-.5l-.4.2-.4.1c-.3 0-.5.2-.7.3h-.3l-.3.2-.4.2h-.3c-.8.4-1.7 0-2-.9-.2-.5-.1-1 .2-1.4l.4-.6.3-.3.3-.3.4-.3.5-.4.5-.3.6-.4c.3 0 .5-.2.7-.3l.7-.2 1.6-.4 1.6-.1 1.6.1c.5 0 1 .2 1.6.4a8.6 8.6 0 0 1 1.3.5l.6.4.6.3.4.4.5.3c.2.1.2.3.3.4l.3.3.3.5c.5.7.3 1.7-.4 2.2-.5.3-1 .3-1.6.1z" fill="#AB872F"/><ellipse cx="80.4" cy="58.8" rx="4.9" ry="5.1" fill="#5D4037"/><path d="M67.9 68h-7.7c-.7.3-1 1-.7 1.7s1.7 2.7 4.5 2.7 4.3-2 4.6-2.7c.3-.7-.1-1.4-.7-1.6z" fill="#C48E6A"/><path d="M72.4 76.1a25.6 25.6 0 0 1-16.8 0c-1.8-1-3.7.6-3 2.3.8 1.6 6.5 5.4 11.4 5.4s10.6-3.8 11.3-5.4c.8-1.7-1-3.4-2.9-2.3z" fill="#6D4C41"/><radialGradient id="c" cx="64.3" cy="4.3" r="48.9" gradientUnits="userSpaceOnUse"><stop stop-color="#BFA055" offset="0"/><stop stop-color="#AB872F" offset="1"/></radialGradient><path d="M64 4c-45.5.3-36.2 52.2-36.2 52.2L33 65a90 90 0 0 1 4.8-25.6 6 6 0 0 1 6.8-3.8c4.5.8 11.6 1.8 19.4 1.8h.1c8 0 15-1 19.4-1.8a6 6 0 0 1 6.8 3.8A90 90 0 0 1 95 65l5.1-8.8s9.3-52-36-52.2z" fill="url(#c)"/><path d="M64 4c-45.5.3-36.2 52.2-36.2 52.2L33 65l.3-5-2.5-4.8c-.2-1.6-.9-7-.5-13.6.4-7 2.1-17 8.2-24.2C44.1 10.6 52.7 7 64 7s20 3.6 25.6 10.4c10.8 13 8.2 34.3 7.7 37.8l-2.5 4.6c.2 2 .3 3.7.2 5.2l5.1-8.8s9.3-52-36-52.2z" fill="#8F7635"/><path d="M12.5 121.3v11h103v-11c0-16.9-25.7-25.7-51.6-25.6-25.6 0-51.4 7.7-51.4 25.6z" fill="none"/><defs><path id="d" d="M4 4h120v120H4z"/></defs><clipPath id="e"><use xlink:href="#d"/></clipPath><g clip-path="url(#e)"><path d="M97.6 81.8l-1.3-18c-.1-1.8.9-3.4 2.7-3.5s3 1.4 3.1 3.2l2 16.2a80 80 0 0 1 12-1.2l1.2-8.2c.2-1.9 1.4-3.3 3.3-3.2s3 1.8 2.8 3.7l-.6 11v6c0 7.6-5 13.8-13.3 13.8-14 0-16-15.5-12-19.8z" fill="#E0BB95"/><path d="M99.2 61.8c1.3 0 1.4 1.5 1.4 1.8l2 16.2c.1.5.3.8.7 1a1.5 1.5 0 0 0 1.1.3 77 77 0 0 1 11.6-1c.8 0 1.4-.6 1.5-1.3l1.3-8.3c0-.4.2-1.9 1.5-1.9h.2c1 .1 1.5 1.2 1.5 2l-.2 11.2-.2 6c-.3 7-5 12.4-11.8 12.4-7.1 0-10.2-4.4-11.3-7-1.8-4-1.4-8.6.3-10.3.3-.4.4-.8.3-1.2l-1.3-18c0-.5 0-1 .3-1.4.3-.3.6-.4 1-.4m0-1.6c-2 .1-3 1.7-2.8 3.5l1.3 18c-4 4.3-2.1 19.8 12 19.8 8.1 0 13.2-6.2 13.2-13.8l.6-17c.1-2-1-3.5-2.8-3.7h-.2c-1.8 0-3 1.4-3 3.2l-1.4 8.2c-3.6 0-8.2.5-11.8 1.1l-2-16.1c-.2-1.8-1.3-3.2-3-3.2z" fill="#BA8F63"/><path d="M104 90.1c1-.2 2-.4 3 0s1.6 1.5 2 2.5c.4.8 1.8.5 1.5-.4-.6-1.4-1.3-2.7-2.7-3.4a5.9 5.9 0 0 0-4.2-.1c-1 .3-.5 1.7.4 1.4z" fill="#BA8F63"/><path d="M107.7 87.7c1.8-.2 3.2-1.6 3-3.2l-.5-6.8c-.1-1.6-1.7-2.9-3.6-2.7s-3.2 1.5-3 3.1l.5 6.8c.1 1.6 1.7 2.9 3.6 2.8z" fill="#E0BB95"/><path d="M106.9 76.5c1 0 1.8.6 1.8 1.3l.6 6.8c0 .4-.2.7-.4 1a2 2 0 0 1-1.3.6h-.2c-1 0-1.8-.6-1.8-1.4L105 78c0-.4.1-.7.3-.9a2 2 0 0 1 1.3-.6h.2m0-1.5h-.3c-1.8 0-3.2 1.5-3 3.1l.5 6.8c.1 1.6 1.6 2.8 3.3 2.8h.3c1.8-.2 3.2-1.6 3-3.2l-.5-6.8c-.1-1.5-1.6-2.7-3.3-2.7z" fill="#BA8F63"/><path d="M112.7 87.2c2 .2 3.6-1 3.8-2.7l.7-5.5c.2-1.7-1.2-3.2-3-3.4-2-.2-3.6 1-3.8 2.7l-.7 5.6c-.2 1.6 1.2 3.1 3 3.3z" fill="#E0BB95"/><path d="M113.8 77.1h.2c.6 0 1 .3 1.4.7.1.2.3.6.3 1l-.7 5.5c0 .8-1 1.4-1.9 1.4h-.2a2 2 0 0 1-1.4-.7 1 1 0 0 1-.3-1l.7-5.5c0-.8.9-1.4 1.9-1.4m0-1.5c-1.8 0-3.2 1.2-3.4 2.7l-.7 5.6c-.2 1.6 1.2 3.1 3 3.3h.4c1.7 0 3.2-1.1 3.4-2.7l.7-5.5c.2-1.7-1.2-3.2-3-3.4h-.4z" fill="#BA8F63"/><defs><path id="f" d="M111.6 81.8c2.2-.3 2.9 2 2.5 3.4s-1.9 2.5-3.3 2.5c-5 .1-6.2 1-6.7 2.4-.7 2-1.8 3.5-3.6 3.7-3.4.4-4-4-3.5-6.8.5-3.9 7-5 7-5s6.6 0 7.6-.2z"/></defs><clipPath id="g"><use xlink:href="#f"/></clipPath><g clip-path="url(#g)"><path d="M111.6 81.8c2.2-.3 2.9 2 2.5 3.4s-1.9 2.5-3.3 2.5c-5 .1-6.2 1-6.7 2.4-.7 2-1.5 5.2-2.6 5.4-3.7.4-6.1-3-6-7.3.2-3.2 8.5-6.3 8.5-6.3l7.6-.1z" fill="#E0BB95"/><path d="M112 83.3c.2 0 .3 0 .4.2.3.3.4.9.2 1.3-.2.7-1 1.4-1.8 1.4-5.2.1-7.3 1-8.1 3.4l-.5 1.4-1.1 3h-.3c-.9 0-2 0-2.3-.6-.9-1.6-1.3-3.4-1.4-5.2 0-1 3.4-3.3 7.2-4.8l7.5-.1h.2m0-1.5h-.4l-7.6.1s-8.3 3.1-8.4 6.2c-.2 4 1.9 7.4 5.2 7.4h.7c1.1-.2 1.9-3.4 2.6-5.4.5-1.4 1.7-2.3 6.7-2.4 1.5 0 3-1.2 3.3-2.5.4-1.3-.2-3.4-2.1-3.4z" fill="#BA8F63"/></g><linearGradient id="h" x1="36" x2="36" y1="102.6" y2="128.3" gradientUnits="userSpaceOnUse"><stop stop-color="#666" offset="0"/><stop stop-color="#656565" offset="0"/><stop stop-color="#484747" offset=".3"/><stop stop-color="#343131" offset=".5"/><stop stop-color="#272324" offset=".8"/><stop stop-color="#231F20" offset="1"/></linearGradient><path d="M17.8 126.5c-.1 0-.3-.2-.3-.5v-20c0-4.9 1-6.8 3.2-6.8 1.8 0 4.3.9 7.1 2 4.2 1.5 9.3 3.4 15.3 3.4 3.6 0 7-.7 10.4-2.1l1 24.1H17.8z" fill="url(#h)"/><path d="M20.7 100.6c1.6 0 4 .9 6.6 1.8 4.3 1.6 9.6 3.5 15.8 3.5 3 0 6-.5 9-1.4l.8 20.5H19v-19.1c0-4.7.8-5.3 1.7-5.3m0-3c-4.7 0-4.7 5.7-4.7 8.3V126c0 1.1.8 2 1.8 2H56l-1-28a26 26 0 0 1-12 3c-9.7 0-17.3-5.4-22.3-5.4z" fill="#47474D"/><linearGradient id="i" x1="-213.4" x2="-213.4" y1="102.6" y2="128.3" gradientTransform="matrix(-1 0 0 1 -120.2 0)" gradientUnits="userSpaceOnUse"><stop stop-color="#666" offset="0"/><stop stop-color="#656565" offset="0"/><stop stop-color="#484747" offset=".3"/><stop stop-color="#343131" offset=".5"/><stop stop-color="#272324" offset=".8"/><stop stop-color="#231F20" offset="1"/></linearGradient><path d="M74.8 126.5l-.2-24.2a28 28 0 0 0 10.7 2.1c6 0 11.6-1.9 16-3.4 3-1 5.5-2 7.3-2 2.3 0 3.2 2 3.2 6.9V126c0 .3-.1.5-.3.5H74.7z" fill="url(#i)"/><path d="M108.6 100.6c.9 0 1.7.6 1.7 5.3V125h-34l-.2-20.5c3 1 6 1.4 9.1 1.4 6.4 0 12-2 16.6-3.5 2.7-1 5.2-1.8 6.8-1.8m0-3c-5 0-13.3 5.3-23.4 5.3-3.8 0-7.9-.8-12.1-2.9l.2 28h38.2c1 0 1.8-.9 1.8-2v-20c0-2.6 0-8.3-4.7-8.3z" fill="#47474D"/><linearGradient id="j" x1="40.7" x2="40.7" y1="114.3" y2="128" gradientUnits="userSpaceOnUse"><stop stop-color="#666" offset="0"/><stop stop-color="#717273" offset=".3"/><stop stop-color="#7C7E81" offset=".6"/><stop stop-color="#808285" offset="1"/></linearGradient><path fill="url(#j)" d="M58.4 126.8L56.2 112l-33 6.2 6 8.5z"/><linearGradient id="k" x1="41.8" x2="41.8" y1="99.2" y2="126.7" gradientUnits="userSpaceOnUse"><stop stop-color="#EC0000" offset="0"/><stop stop-color="#E80102" offset=".2"/><stop stop-color="#DC0508" offset=".5"/><stop stop-color="#C90C12" offset=".7"/><stop stop-color="#AD1520" offset=".9"/><stop stop-color="#A11926" offset="1"/></linearGradient><path fill="url(#k)" d="M42.7 128.4h15.7l-3.5-31.5-29.6 7.2 12.8 17.7z"/><linearGradient id="l" x1="87.1" x2="87.1" y1="114.3" y2="128" gradientUnits="userSpaceOnUse"><stop stop-color="#666" offset="0"/><stop stop-color="#717273" offset=".3"/><stop stop-color="#7C7E81" offset=".6"/><stop stop-color="#808285" offset="1"/></linearGradient><path fill="url(#l)" d="M69.3 126.8l2-14.8 33.6 6.3-6.1 8.5z"/><linearGradient id="m" x1="85.9" x2="85.9" y1="99.2" y2="126.7" gradientUnits="userSpaceOnUse"><stop stop-color="#EC0000" offset="0"/><stop stop-color="#E80102" offset=".2"/><stop stop-color="#DC0508" offset=".5"/><stop stop-color="#C90C12" offset=".7"/><stop stop-color="#AD1520" offset=".9"/><stop stop-color="#A11926" offset="1"/></linearGradient><path fill="url(#m)" d="M85 126.8H69.5L73.3 97l29.1 5.7-12.8 17.7z"/><path d="M7.5 129.3v-30a1 1 0 0 0-.4-.8 1 1 0 0 0-1 0h-.3a.8.8 0 0 1-.8-1c0-.2.2-.4.4-.5l4.2-2.4.2-.1c.3 0 .6-.3.7-.6a1 1 0 0 0 0-.8l-.2-.5 22.2-13.3.5-.6a6.5 6.5 0 1 1 3.7 7.4 1 1 0 0 0-.8 0l-24 10a1 1 0 0 0-.5-.4h-.2a1 1 0 0 0-.7.2l-1.3.8a1 1 0 0 0-.5.8v31.8H7.5z" fill="#5D5F61"/><path d="M39.3 74.6a5.5 5.5 0 0 1 2.5 10.5 5.5 5.5 0 0 1-4.7 0 2 2 0 0 0-1.5 0L12 95a2 2 0 0 0-.9-.3l.2-.3c.2-.4.2-.8.1-1.3l21.6-13a2 2 0 0 0 1-1.2 5.5 5.5 0 0 1 5.3-4.3M7.8 96.8a2 2 0 0 0-.1.7v.2a2 2 0 0 0-.9-.3l1-.6m31.5-24.2a7.5 7.5 0 0 0-7.3 5.8L9 92.2l.6 1.3a2 2 0 0 0-.5.2L5 96c-.9.6-1.2 1.7-.6 2.5a1.8 1.8 0 0 0 2.2.7v31h3.2V97.5l1.2-.7.2-.2.4.7L36.3 87a7.6 7.6 0 0 0 6.4-.1 7.5 7.5 0 0 0-3.4-14.3z" fill="#47474D"/><linearGradient id="n" x1="109.3" x2="109.3" y1="98" y2="136.4" gradientUnits="userSpaceOnUse"><stop stop-color="#666" offset="0"/><stop stop-color="#393637" offset=".6"/><stop stop-color="#231F20" offset="1"/></linearGradient><path fill="url(#n)" d="M97.8 135.5V98h22.7l.2 37.5z"/><path d="M119 99.4l.2 34.6H99.3V99.5H119m3-3H96.3V137h26l-.3-40.6z" fill="#47474D"/><circle cx="98.7" cy="105.3" r="4.1" fill="#E6E7E8"/><circle cx="109.3" cy="105.3" r="4.1" fill="#ED1C24"/><circle cx="119.9" cy="105.2" r="4.1" fill="#808285"/></g></svg>