<svg viewBox="0 0 128 128" xmlns="http://www.w3.org/2000/svg" xmlns:xlink="http://www.w3.org/1999/xlink"><radialGradient id="a" cx="120.7" cy="-33.4" r="57.9" gradientTransform="matrix(.826 0 0 .826 -35.4 19.8)" gradientUnits="userSpaceOnUse"><stop stop-color="#6D4C41" offset="0"/><stop stop-color="#543930" offset="1"/></radialGradient><path d="M47 119.8s-6.8-.4-10.2-5.1c-7.4-10.3-11.4-35.8-11.4-72 0-1.7.3-16.5 10.7-26.9A38.7 38.7 0 0 1 64.5 5.6c12 0 21.5 3.4 28 10 9.8 10 10 24.2 10 27 0 36.3-4 61.8-11.4 72-3.3 4.7-9.8 5.1-10.3 5.2H47z" fill="url(#a)"/><path d="M64.6 7.1c11.6 0 20.7 3.3 27 9.6a38.5 38.5 0 0 1 9.5 25.8v.1c0 36-4 61.2-11.1 71.2-2.9 4-8.6 4.4-9.1 4.4H47c-.5 0-6.2-.5-9-4.4-7.3-10-11.2-35.3-11.2-71.2 0-.6 0-15.6 10.2-25.7A37.3 37.3 0 0 1 64.6 7m0-3c-41 0-40.7 38-40.7 38.5 0 24.6 1.9 59.3 11.7 73 3.9 5.3 11.4 5.6 11.4 5.6h34s7.5-.2 11.4-5.7c9.8-13.6 11.7-48.3 11.7-72.9 0-.6 1.5-38.5-39.5-38.5z" fill="#3F2720"/><defs><path id="b" d="M4 4h120v120H4z"/></defs><clipPath id="c"><use xlink:href="#b"/></clipPath><g clip-path="url(#c)"><linearGradient id="d" x1="64" x2="64" y1="97.5" y2="130.5" gradientUnits="userSpaceOnUse"><stop stop-color="#616161" offset="0"/><stop stop-color="#545454" offset=".3"/><stop stop-color="#323232" offset=".8"/><stop stop-color="#212121" offset="1"/></linearGradient><path d="M13.5 130.5V121c0-17.3 27.2-23.5 50.5-23.5h.1c13.4 0 25.9 2.1 35 6 7 3 15.4 8.5 15.4 17.5v9.5h-101z" fill="url(#d)"/><path d="M64.1 99c24.3 0 48.9 7.5 48.9 22v8H15v-8c0-7 4.9-12.5 14.5-16.4C38.3 101 50.5 99 64 99h.1m0-3H64c-25.6 0-52 7.1-52 25v11h104v-11c0-16.9-26.1-25-51.9-25z" fill="#404042"/></g><g clip-path="url(#c)"><path d="M63.2 107.2c-4 0-7.3-3.2-7.3-7.1v-9h16.2v9c0 4-3.3 7.1-7.3 7.1h-1.6z" fill="#E59600"/><path d="M71 92v8c0 3.5-2.7 6.2-6.2 6.2h-1.6a6.2 6.2 0 0 1-6.3-6.1v-8h14.2m2-2H54.9v10c0 4.5 3.7 8.1 8.3 8.1h1.6c4.6 0 8.3-3.6 8.3-8.1V90z" fill="#D18100"/></g><path d="M12.5 121.3v11h103v-11c0-16.9-25.7-25.7-51.6-25.6-25.6 0-51.4 7.7-51.4 25.6z" clip-path="url(#c)" fill="none"/><g clip-path="url(#c)"><defs><path id="e" d="M12 121v11h104v-11c0-16.9-26.2-25-52-25-25.6 0-52 7.1-52 25z"/></defs><clipPath id="f"><use xlink:href="#e"/></clipPath><g clip-path="url(#f)"><path fill="#BBDEFB" d="M52.7 105.8l3.8 20H72l3.4-20-11.3.2z"/><path d="M54.7 94.5c0 1.8.3 3.6 3.2 7.3 3.1 4.1 6 4.2 6 4.2l-10.2 8.5L50 94.8l4.8-.3zm18.6 0c0 1.9-.3 3.6-3.2 7.3C67 106 64 106 64 106l10.3 8.5L78 94.8l-4.8-.3z" fill="#fff"/><g fill="#64B5F6"><circle cx="64" cy="112.3" r="1.7"/><circle cx="64" cy="120.3" r="1.7"/></g></g></g><g clip-path="url(#c)"><path d="M51 125l-10.5-10 4.9-6.3-7.2-4.4 3.4-5.2c1.1-.2 4.6-.8 9-1.3l6 27.4H51z" fill="#303030"/><path d="M49.7 98.8l5.7 25.3h-4l-9.6-9.3 3.6-4.7 1.4-1.8L45 107l-5.3-3.2 2.6-4c1.3-.2 4-.7 7.5-1.1m1.6-2.2L41 98l-4.2 6.4 7 4.3-4.7 6.2 11.5 11h7.3l-6.6-29.4z" fill="#404042"/><path d="M71.4 125l6-27.3a87 87 0 0 1 9 1.5l3.4 5-7.2 4.4 5 6.3L77 125h-5.6z" fill="#303030"/><path d="M78.3 98.8c3.4.4 6.3 1 7.6 1.3l2.5 3.8-5.3 3.2-2 1.2 1.4 1.8 3.7 4.7-9.6 9.3h-4l5.7-25.3m-1.6-2.1L70.1 126h7.3L89 115l-4.8-6.2 7.1-4.3-4.1-6.2s-4.6-1-10.4-1.6z" fill="#404042"/></g><linearGradient id="g" x1="64" x2="64" y1="94.7" y2="17.9" gradientUnits="userSpaceOnUse"><stop stop-color="#FFB300" offset="0"/><stop stop-color="#FFB809" offset=".1"/><stop stop-color="#FFC21A" offset=".4"/><stop stop-color="#FFC825" offset=".7"/><stop stop-color="#FFCA28" offset="1"/></linearGradient><path d="M64 95.3c-2.3 0-5-.5-7.6-1.5A38.7 38.7 0 0 1 32 56c-.1-28.8 17.2-39 32-39s32.1 10.2 32.1 39a38.6 38.6 0 0 1-24.6 37.8 23 23 0 0 1-7.5 1.5z" fill="url(#g)"/><path d="M64 18a29 29 0 0 1 21.6 9.2A41.3 41.3 0 0 1 95 56c0 21-12.9 33-24 37-2.4.8-5 1.3-7.1 1.3-2.2 0-4.7-.5-7.2-1.4-11-3.9-24-16-24-37 0-12 3.4-22 9.7-28.7A29 29 0 0 1 64 18m0-2c-17.2 0-33.1 12.8-33.1 40A39.8 39.8 0 0 0 56 94.7a24 24 0 0 0 7.9 1.5c2.4 0 5-.5 7.8-1.5A39.8 39.8 0 0 0 97.1 56c0-27.2-15.9-40-33.1-40z" fill="#ED9E00"/><defs><path id="h" d="M30.4 88.8L29 37.4c0-17 15.8-29.8 32.7-29.8h5c17 0 32.5 12.9 32.5 29.8l-1.5 51.2-67.2.3z"/></defs><clipPath id="i"><use xlink:href="#h"/></clipPath><g clip-path="url(#i)"><radialGradient id="j" cx="145.3" cy="-24.5" r="48.2" gradientTransform="matrix(.796 0 0 .796 -51.7 19)" gradientUnits="userSpaceOnUse"><stop stop-color="#6D4C41" offset="0"/><stop stop-color="#543930" offset="1"/></radialGradient><path d="M101.9 42.6s1-35.5-37.8-35.5-38 35.5-38 35.5.3 45.5 3.2 51.4 7.2 5.7 7.2 5.7-2-26.5-2.3-39c0-3-.9-13.7 5.2-15 22.4-5.1 35-17 35-17C77.7 36 88 43 91.7 45.6c3 2.2 2.6 11.2 2.5 15l-3 39s4.7.4 7.6-5.6c3-6 3-51.4 3-51.4z" fill="url(#j)"/></g><path d="M67.8 68h-7.6c-.6.3-1 1-.7 1.7s1.7 2.6 4.5 2.6 4.2-2 4.5-2.6c.3-.7 0-1.4-.7-1.7z" fill="#E59600"/><ellipse cx="47.8" cy="58.9" rx="4.9" ry="5" fill="#404040"/><ellipse cx="80.3" cy="58.9" rx="4.9" ry="5" fill="#404040"/><path d="M55 49.8c-1-1.2-3-3-7.3-3s-6.3 1.8-7.2 3c-.4.6-.3 1.2 0 1.6.3.3 1 .6 1.9.4s2.5-1.2 5.3-1.2c2.9 0 4.5.9 5.4 1.2s1.6 0 1.9-.4c.3-.4.4-1 0-1.6zm32.5 0c-1-1.2-3-3-7.2-3s-6.4 1.8-7.3 3c-.4.6-.3 1.2 0 1.6.3.3 1 .6 1.9.4s2.5-1.2 5.3-1.2c2.9 0 4.5.9 5.4 1.2s1.6 0 1.9-.4c.3-.4.4-1 0-1.6z" fill="#6D4C41"/><path d="M72.3 76.1a25.3 25.3 0 0 1-16.6 0c-1.8-1-3.6.6-2.9 2.3.7 1.6 6.4 5.3 11.2 5.3s10.5-3.7 11.2-5.4c.7-1.6-1-3.2-2.9-2.2z" fill="#795548"/></svg>