<svg viewBox="0 0 128 128" xmlns="http://www.w3.org/2000/svg" xmlns:xlink="http://www.w3.org/1999/xlink"><defs><path id="a" d="M4 4h120v120H4z"/></defs><clipPath id="b"><use xlink:href="#a"/></clipPath><g clip-path="url(#b)"><radialGradient id="c" cx="-16.554" cy="-142.25" r="39.288" gradientTransform="matrix(.826 0 0 .826 107.23 112.42)" gradientUnits="userSpaceOnUse"><stop stop-color="#6D4C41" offset="0"/><stop stop-color="#543930" offset="1"/></radialGradient><path d="M93.76 3.98c-27.08 0-26.87 25.04-26.87 25.44 0 16.22 1.24 39.13 7.73 48.15 2.57 3.57 7.55 3.77 7.55 3.77l11.21-.02 11.21.02s4.98-.2 7.55-3.77c6.49-9.01 7.73-31.93 7.73-48.15 0-.4.97-25.44-26.11-25.44z" fill="url(#c)"/><path d="M65.5 88.4c0-10.57 7.41-18.16 19.81-20.31 2.87-.5 5.82-.75 8.77-.75 4.21 0 8.49.51 12.71 1.51 12.34 2.93 19.71 10.23 19.71 19.54v38.62l-61 .01V88.4z" fill="#651FFF"/><path d="M94.08 68.85c4.1 0 8.26.49 12.37 1.47C110.8 71.36 125 75.71 125 88.4v37.12l-58 .01V88.4c0-9.78 6.94-16.82 18.57-18.83 2.78-.47 5.64-.72 8.51-.72m-.01-3c-2.96 0-5.97.24-9.02.77C73.18 68.67 64 76.12 64 88.4v40.14l64-.02V88.4c0-11.37-9.63-18.33-20.86-21-4.15-.98-8.54-1.55-13.07-1.55z" fill="#540EED"/><path d="M92.83 71.73c-2.46 0-4.45-1.97-4.45-4.4v-5.59h10v5.59c0 2.42-2 4.4-4.45 4.4h-1.1z" fill="#E59600"/><path d="M97.38 62.74v4.59c0 1.87-1.55 3.4-3.45 3.4h-1.09c-1.9 0-3.45-1.52-3.45-3.4v-4.59h7.99m2-2h-12v6.59c0 2.98 2.44 5.4 5.45 5.4h1.09c3.01 0 5.45-2.42 5.45-5.4v-6.59h.01z" fill="#D18100"/><linearGradient id="d" x1="93.38" x2="93.38" y1="63.467" y2="13.397" gradientUnits="userSpaceOnUse"><stop stop-color="#FFB300" offset="0"/><stop stop-color="#FFB809" offset=".102"/><stop stop-color="#FFC21A" offset=".371"/><stop stop-color="#FFC825" offset=".659"/><stop stop-color="#FFCA28" offset="1"/></linearGradient><path d="M93.38 63.83c-1.48 0-3.17-.32-4.88-.93-7.38-2.61-16-10.65-16-24.7 0-18.72 11.25-25.36 20.88-25.36s20.88 6.64 20.88 25.36c0 14.08-8.63 22.11-16.03 24.71-1.7.61-3.38.92-4.85.92z" fill="url(#d)"/><path d="M93.38 13.85c9.17 0 19.88 6.38 19.88 24.36 0 13.55-8.27 21.27-15.36 23.77-1.6.56-3.16.86-4.52.86-1.37 0-2.94-.3-4.55-.87-7.07-2.5-15.33-10.23-15.33-23.76 0-17.98 10.71-24.36 19.88-24.36m0-2c-11.36 0-21.88 8.45-21.88 26.36 0 14.39 8.91 22.9 16.67 25.64 1.85.65 3.63.98 5.22.98 1.57 0 3.35-.33 5.18-.97 7.76-2.73 16.7-11.25 16.7-25.65-.01-17.92-10.53-26.36-21.89-26.36z" fill="#ED9E00"/><radialGradient id="e" cx="-27.82" cy="-134.93" r="31.838" gradientTransform="matrix(.796 0 0 .796 115.53 108.38)" gradientUnits="userSpaceOnUse"><stop stop-color="#6D4C41" offset="0"/><stop stop-color="#543930" offset="1"/></radialGradient><path d="M118.4 29.42s.67-23.49-24.97-23.49-25.07 23.49-25.07 23.49.22 30.04 2.11 33.94c1.89 3.91 4.75 3.77 4.75 3.77s-1.34-17.53-1.49-25.78c-.04-1.93-.62-9.06 3.4-9.97 14.77-3.32 23.12-11.15 23.12-11.15 2.17 4.75 8.97 9.37 11.41 11.13 2 1.44 1.72 7.4 1.69 9.93l-2.01 25.8s3.09.25 5.05-3.73c1.95-3.97 2.01-33.94 2.01-33.94z" fill="url(#e)"/><path d="M95.9 46.2a.537.537 0 0 0-.21-.05h-4.62c-.07.01-.14.03-.21.05-.42.17-.65.6-.45 1.06s1.12 1.76 2.97 1.76 2.77-1.3 2.97-1.76-.03-.89-.45-1.06z" fill="#E59600"/><ellipse cx="82.65" cy="40.13" rx="3.21" ry="3.33" fill="#404040"/><ellipse cx="104.11" cy="40.13" rx="3.21" ry="3.33" fill="#404040"/><path d="M87.43 34.15c-.61-.81-2.03-1.99-4.78-1.99s-4.16 1.18-4.78 1.99c-.27.36-.2.77-.01 1.02.17.23.69.45 1.26.26s1.68-.77 3.54-.78c1.86.01 2.97.59 3.54.78s1.08-.02 1.26-.26c.17-.24.24-.66-.03-1.02zM108.89 34.15c-.61-.81-2.03-1.99-4.78-1.99s-4.16 1.18-4.78 1.99c-.27.36-.2.77-.01 1.02.17.23.69.45 1.26.26s1.68-.77 3.54-.78c1.86.01 2.97.59 3.54.78s1.08-.02 1.26-.26c.17-.24.24-.66-.03-1.02z" fill="#6D4C41"/><path d="M98.87 51.54c-2.08 1.24-8.89 1.24-10.97 0-1.19-.71-2.41.38-1.92 1.46.49 1.07 4.21 3.54 7.42 3.54s6.88-2.47 7.37-3.54c.5-1.09-.7-2.17-1.9-1.46z" fill="#795548"/><path d="M116.87 29.32c.02-1.02.03-10.14-6.02-16.31-3.92-4-9.67-6.03-17.09-6.03-7.49 0-13.35 2.07-17.41 6.14-6.4 6.42-6.46 15.88-6.46 16.28 0 18.54 1.58 32.71 4.52 41.01 3.1-1.84 6.72-3.12 10.65-3.79 3.05-.53 6.06-.77 9.02-.77 4.53 0 8.91.57 13.06 1.55 1.94.46 3.83 1.06 5.63 1.78 2.67-8.44 4.1-22.12 4.1-39.76v-.1z" fill="none"/><path d="M69.89 29.4c0-.4.05-9.86 6.46-16.28 4.07-4.08 9.92-6.14 17.41-6.14 7.42 0 13.17 2.03 17.09 6.03 6.05 6.17 6.04 15.29 6.02 16.31v.1c0 17.64-1.43 31.32-4.1 39.76.94.37 1.86.78 2.74 1.23 3.57-11.01 4.36-28.11 4.36-40.99 0-.4.97-25.44-26.11-25.44S66.89 29.02 66.89 29.42c0 13.58.87 31.85 4.96 42.73.8-.63 1.66-1.2 2.55-1.73-2.93-8.31-4.51-22.47-4.51-41.02z" fill="#3F2720"/></g><g clip-path="url(#b)"><defs><path id="f" d="M0 0h128v128H0z"/></defs><clipPath id="g"><use xlink:href="#f"/></clipPath><g clip-path="url(#g)"><path d="M1.5 127.03V88.4c0-9.31 7.37-16.61 19.71-19.54 4.28-1.02 8.35-1.51 12.42-1.51 2.85 0 5.74.25 8.61.75 9.79 1.69 20.25 7.91 20.25 20.31v38.64l-60.99-.02z" fill="#00BFA5"/><path d="M33.63 68.85c2.76 0 5.57.24 8.36.72 5.59.96 10.31 3.14 13.66 6.28C59.2 79.2 61 83.42 61 88.4v37.14l-58-.01V88.4c0-12.69 14.2-17.05 18.56-18.08 4.16-.99 8.11-1.47 12.07-1.47m0-3c-4.4 0-8.62.57-12.77 1.55C9.63 70.07 0 77.04 0 88.4v40.12l64 .02V88.4c0-12.28-9.62-19.73-21.5-21.78-3.05-.52-5.99-.77-8.87-.77z" fill="#00A68F"/></g><g clip-path="url(#g)"><path d="M33.46 73.12c-3.31 0-6-2.69-6-6V61.7h12v5.42c0 3.31-2.69 6-6 6z" fill="#E59600"/><path d="M38.46 62.7v4.42c0 2.76-2.24 5-5 5s-5-2.24-5-5V62.7h10m2-2h-14v6.42c0 3.87 3.13 7 7 7s7-3.13 7-7V60.7z" fill="#D18100"/></g><g clip-path="url(#g)"><linearGradient id="h" x1="6" x2="6" y1="97.824" y2="127.82" gradientUnits="userSpaceOnUse"><stop stop-color="#FFB300" offset="0"/><stop stop-color="#FFCA28" offset=".401"/></linearGradient><path fill="url(#h)" d="M1 97.82h10v30H1z"/><path d="M10 98.82v28H2v-28h8m2-2H0v32h12v-32z" fill="#EDA600"/></g><g clip-path="url(#g)"><linearGradient id="i" x1="122" x2="122" y1="97" y2="127" gradientUnits="userSpaceOnUse"><stop stop-color="#FFB300" offset="0"/><stop stop-color="#FFCA28" offset=".401"/></linearGradient><path fill="url(#i)" d="M117 97h10v30h-10z"/><path d="M126 98v28h-8V98h8m2-2h-12v32h12V96z" fill="#EDA600"/></g><radialGradient id="j" cx="64" cy="97.246" r="29.228" gradientTransform="matrix(1 0 0 1.4568 0 -44.424)" gradientUnits="userSpaceOnUse"><stop stop-color="#212121" offset=".422"/><stop stop-color="#616161" stop-opacity=".05" offset="1"/></radialGradient><path d="M85.1 66.62c-11.88 2.05-21.08 9.5-21.08 21.78 0-12.28-9.67-19.73-21.55-21.78-1.84-.32-3.47-.52-5.47-.64v62.56l27 .01 27-.01V65.95c-2 .11-3.93.33-5.9.67z" clip-path="url(#g)" fill="url(#j)" opacity=".4"/><g clip-path="url(#g)"><path d="M43.18 138.12c-.09-2.59.01-10.89.1-16.18 0-9.41 12.59-12.37 16.15-12.37h9.52c3.56 0 16.13 2.96 16.13 12.35v.28c0 .04 0 .33.01.8.16 10.03.14 13.75.09 15.12h-42z" fill="#E1BEE7"/><path d="M68.96 110.57c3.34 0 15.13 2.72 15.13 11.35v.28c0 .05 0 .34.01.81.14 8.31.14 12.24.11 14.1H44.16c-.05-3.17.03-10.15.13-15.2 0-8.63 11.81-11.35 15.15-11.35h9.52m0-1.99h-9.52c-4.42 0-17.15 3.35-17.15 13.35 0 0-.31 17.2 0 17.2H86.1c.31 0 0-16.56 0-16.92v-.28c-.01-10-12.72-13.35-17.14-13.35z" fill="#CCA1D4"/><path d="M63.7 115.8c-2.09 0-3.79-1.7-3.79-3.79v-1.88h8.53v1.88c0 2.09-1.7 3.79-3.79 3.79h-.95z" fill="#E59600"/><path d="M67.95 110.63v1.38c0 1.81-1.47 3.29-3.29 3.29h-.96c-1.81 0-3.29-1.47-3.29-3.29v-1.38h7.54m1-1h-9.53v2.38a4.29 4.29 0 0 0 4.29 4.29h.96a4.29 4.29 0 0 0 4.29-4.29v-2.38h-.01z" fill="#D18100"/><defs><path id="k" d="M40.55 64.24h46.9v46.9h-46.9z"/></defs><clipPath id="l"><use xlink:href="#k"/></clipPath><g clip-path="url(#l)"><radialGradient id="m" cx="46.022" cy="99.42" r="11.336" gradientUnits="userSpaceOnUse"><stop stop-color="#6D4C41" offset="0"/><stop stop-color="#543930" offset=".901"/></radialGradient><path d="M45.58 111.08l.62-2.92-5.39 1.35s-.38-5.2 4.26-8.2c5.08-3.31 10.93.2 10.93.2s-.58 3.93-4.06 7.3c-2.34 2.28-6.36 2.27-6.36 2.27z" fill="url(#m)"/></g><g clip-path="url(#l)"><path d="M49.95 101.89c1.43 0 2.75.37 3.67.72-.44 1.23-1.34 3.09-3.08 4.77-.65.63-1.55 1.03-2.42 1.29l.02-.11.66-3.13-3.1.77-2.53.63c.41-1.26 1.25-2.76 2.97-3.87 1.12-.71 2.4-1.07 3.81-1.07m0-2c-1.56 0-3.27.36-4.89 1.41-4.64 3-4.26 8.2-4.26 8.2l5.39-1.35-.62 2.92c.08 0 4.05-.01 6.36-2.26 3.48-3.38 4.06-7.3 4.06-7.3s-2.7-1.62-6.04-1.62z" fill="#402720"/></g><g clip-path="url(#l)"><radialGradient id="n" cx="81.588" cy="99.615" r="11.336" gradientUnits="userSpaceOnUse"><stop stop-color="#6D4C41" offset="0"/><stop stop-color="#543930" offset=".901"/></radialGradient><path d="M82.68 111.08l-.62-2.92 5.39 1.35s.38-5.2-4.26-8.2c-5.09-3.29-10.94.22-10.94.22s.58 3.93 4.06 7.3c2.34 2.26 6.37 2.25 6.37 2.25z" fill="url(#n)"/></g><g clip-path="url(#l)"><path d="M78.3 101.89c1.41 0 2.69.37 3.8 1.09a7.122 7.122 0 0 1 2.97 3.87l-2.53-.63-3.1-.77.66 3.13.02.11c-.87-.26-1.78-.66-2.42-1.29a12.831 12.831 0 0 1-3.08-4.77c.94-.37 2.25-.74 3.68-.74m0-2c-3.34 0-6.05 1.63-6.05 1.63s.58 3.93 4.06 7.3c2.32 2.25 6.28 2.26 6.36 2.26l-.62-2.92 5.39 1.35s.38-5.2-4.26-8.2c-1.61-1.06-3.31-1.42-4.88-1.42z" fill="#402720"/></g><g clip-path="url(#l)"><path d="M49.46 99.84c-2.91 0-5.28-2.27-5.28-5.06s2.37-5.06 5.28-5.06h29.48c2.79 0 4.89 2.18 4.89 5.06 0 2.89-2.1 5.06-4.89 5.06H49.46z" fill="#E59600"/><path d="M78.94 90.21c2.5 0 4.39 1.96 4.39 4.56s-1.89 4.56-4.39 4.56H49.45c-2.64 0-4.78-2.05-4.78-4.56 0-2.52 2.14-4.56 4.78-4.56h29.49m0-1H49.45c-3.18 0-5.78 2.5-5.78 5.56s2.6 5.56 5.78 5.56h29.49c3.18 0 5.39-2.5 5.39-5.56-.01-3.06-2.22-5.56-5.39-5.56z" fill="#CC8600"/></g><g clip-path="url(#l)"><linearGradient id="o" x1="63.981" x2="63.981" y1="110.62" y2="78.892" gradientUnits="userSpaceOnUse"><stop stop-color="#FFB300" offset="0"/><stop stop-color="#FFB809" offset=".102"/><stop stop-color="#FFC21A" offset=".371"/><stop stop-color="#FFC825" offset=".659"/><stop stop-color="#FFCA28" offset="1"/></linearGradient><path d="M63.98 110.62c-7.09 0-17.07-6.35-17.07-20.45 0-13.12 7.5-23.4 17.07-23.4s17.07 10.28 17.07 23.4c0 14.1-9.98 20.45-17.07 20.45z" fill="url(#o)"/><path d="M63.98 67.27c8.15 0 16.57 8.56 16.57 22.9 0 13.76-9.69 19.95-16.57 19.95s-16.57-6.19-16.57-19.95c0-14.34 8.42-22.9 16.57-22.9m0-1c-9.33 0-17.57 9.8-17.57 23.9 0 14.02 9.87 20.95 17.57 20.95s17.57-6.93 17.57-20.95c0-14.11-8.24-23.9-17.57-23.9z" fill="#EDA600"/></g><path d="M78.97 42.22c1.59-2.56.78-5.64.78-5.64s-1.19 2.81-4.7 2.25c-.22-.04-.44-.07-.65-.09-2.6-1.24-5.94-2.17-10.28-2.17-19.05.03-20.56 16.25-19.78 23.38.26 2.36.51 2.94.51 2.94l3.44 2.91-.29-1.84-1.7-1.43-.31-2.41 18.23-10.3 18.03 12.75-2.31 1.55-.17 1.76 3.55-2.8s.21-2.91.22-3.14c.32-8.15-.27-12.61-4.57-17.72z" clip-path="url(#l)" fill="none"/><path d="M65.98 96.72a.471.471 0 0 0-.17-.04h-3.63c-.06.01-.11.02-.17.04-.33.13-.51.47-.35.84.16.36.88 1.38 2.34 1.38s2.18-1.02 2.34-1.38c.15-.37-.03-.71-.36-.84z" clip-path="url(#l)" fill="#E59600"/><g clip-path="url(#l)" fill="#6D4C41"><path d="M51.77 89.41s.07-.1.2-.26c.03-.04.06-.08.11-.13.06-.06.12-.11.19-.17s.14-.13.22-.19.16-.12.25-.18l.27-.18c.1-.05.2-.11.31-.17s.22-.11.34-.15c.12-.05.24-.09.36-.14.25-.07.52-.15.79-.18.27-.05.55-.06.84-.07.28.01.56.02.84.07.27.03.54.11.79.18.12.04.25.09.36.14.12.05.23.09.34.15s.21.11.31.17.19.12.27.18c.09.06.17.11.24.18.07.06.14.12.2.18s.12.11.17.16.09.11.13.15c.16.18.24.3.24.3.26.36.18.87-.18 1.13a.8.8 0 0 1-.73.11l-.15-.05s-.1-.03-.25-.1c-.04-.02-.08-.04-.13-.06l-.15-.06c-.11-.04-.23-.09-.36-.13-.07-.02-.13-.05-.2-.07l-.22-.06-.11-.03c-.04-.01-.08-.01-.12-.02-.08-.01-.16-.04-.24-.05-.17-.02-.34-.05-.51-.06-.17-.02-.35-.02-.53-.03-.18.01-.36 0-.53.03-.18.01-.35.04-.51.06-.08.01-.16.04-.24.05-.04.01-.08.01-.12.02s-.08.02-.11.03c-.08.02-.15.04-.22.06s-.14.05-.2.07c-.07.02-.13.04-.19.06-.05.02-.1.04-.15.05-.05.02-.09.03-.14.04-.05.02-.1.05-.15.07-.18.09-.29.14-.29.14a.83.83 0 0 1-1.09-.45c-.15-.27-.1-.57.05-.79zM75.23 90.64s-.11-.05-.29-.14c-.04-.02-.1-.05-.15-.07-.05-.01-.09-.03-.14-.04-.05-.02-.1-.03-.15-.05-.06-.02-.12-.04-.19-.06s-.13-.05-.2-.07l-.22-.06-.11-.03c-.04-.01-.08-.01-.12-.02-.08-.01-.16-.04-.24-.05-.17-.02-.34-.05-.51-.06-.17-.02-.35-.02-.53-.03-.18.01-.36 0-.53.03-.18.01-.35.04-.51.06-.08.01-.16.04-.24.05-.04.01-.08.01-.12.02s-.08.02-.11.03c-.08.02-.15.04-.22.06s-.14.05-.2.07c-.13.04-.25.08-.36.13l-.15.06c-.05.02-.09.04-.13.06-.15.07-.25.1-.25.1l-.14.05a.811.811 0 0 1-.92-1.24s.08-.11.24-.3c.04-.05.08-.1.13-.15s.11-.1.17-.16.13-.12.2-.18.16-.11.24-.18l.27-.18c.1-.05.2-.11.31-.17s.22-.11.34-.15c.12-.05.24-.09.36-.14.25-.07.52-.15.79-.18.27-.05.55-.06.84-.07.28.01.56.02.83.07.27.03.54.11.79.18.12.04.25.09.36.14.12.05.23.09.34.15s.21.11.31.17.19.12.27.18c.09.06.17.11.25.18l.22.19c.07.06.13.12.19.17.05.05.08.09.11.13.13.16.2.26.2.26.26.38.16.9-.22 1.15-.26.17-.56.19-.81.09z"/></g><g clip-path="url(#l)" fill="#404040"><ellipse cx="55.46" cy="94.07" rx="2.53" ry="2.62"/><ellipse cx="72.54" cy="94.07" rx="2.53" ry="2.62"/></g><path d="M68.3 101.05c-1.64.97-7 .97-8.64 0-.94-.56-1.9.3-1.51 1.15.38.84 3.31 2.79 5.84 2.79s5.42-1.95 5.8-2.79c.4-.85-.55-1.71-1.49-1.15z" clip-path="url(#l)" fill="#795548"/><g clip-path="url(#l)"><radialGradient id="p" cx="72.542" cy="33.572" r="24.009" gradientTransform="translate(-11.966 -1.45) scale(1.0432)" gradientUnits="userSpaceOnUse"><stop stop-color="#6D4C41" offset="0"/><stop stop-color="#543930" offset=".901"/></radialGradient><path d="M79.63 37.16c-2.33-2.43-4.54-3.46-4.76-3.49-2.71-1.24-6.2-2.18-10.72-2.18-19.87 0-21.25 16.27-20.45 23.4.7 6.29 3.98 7.84 3.98 7.84s-.64-5.49.4-9.47c.83-3.16 2.8-5.5 2.8-5.5s3.58 3.12 10.27 5.15c3.22.98 7.35.49 7.35.49l-2.32-4.1s3.78 2.79 6.14 3.32c3.02.68 5.24.39 5.24.39l-1.11-4.33s1.92 1.26 3.36 4.71.55 9.34.55 9.34 3.46-1.54 4.01-7.84c.69-7.89-.26-12.61-4.74-17.73z" fill="url(#p)"/><defs><path id="q" d="M79.63 37.16c-2.19-2.49-4.54-3.46-4.76-3.49-2.71-1.24-6.2-2.18-10.72-2.18-19.87 0-21.25 16.27-20.45 23.4.7 6.29 3.98 7.86 3.98 7.86v-1.54s-1.23-1.29-1.64-2.14c-.41-.83-.04-11.94-.04-11.94l18.03-4.81 17.92 4.81s.71 11.24.05 12.11-1.47 1.25-1.47 1.25l-.17 2.26s3.46-1.55 4.01-7.85c.69-7.89-.26-12.62-4.74-17.74z"/></defs><clipPath id="r"><use xlink:href="#q"/></clipPath><g clip-path="url(#r)"><path d="M64.15 34.49c3.52 0 6.71.64 9.47 1.91l.42.19.04.01c.62.32 2.11 1.22 3.29 2.54 2.88 3.29 4.11 6.31 4.19 11.05-1.5-2.61-3.1-3.77-3.47-4.01l-6.49-4.27 1.93 7.52.1.4c-.21-.04-.43-.08-.66-.13-1.18-.27-3.7-1.84-5.03-2.81l-11.28-8.31 6.64 11.76c-.48-.08-.91-.17-1.3-.29-5.9-1.79-9.15-4.52-9.17-4.54l-2.3-2-1.97 2.33c-.15.17-.99 1.2-1.85 2.79.38-2.98 1.4-6.45 3.85-9.19 2.95-3.28 7.52-4.95 13.59-4.95m0-3c-19.87 0-21.25 16.27-20.45 23.4.7 6.29 3.98 7.84 3.98 7.84s-.64-5.49.4-9.47c.83-3.16 2.8-5.5 2.8-5.5s3.58 3.12 10.27 5.15c1.61.49 3.44.61 4.87.61 1.44 0 2.48-.12 2.48-.12l-2.32-4.1s3.78 2.79 6.14 3.32c1.63.37 3.02.45 3.96.45.81 0 1.28-.06 1.28-.06l-1.11-4.33s1.92 1.26 3.36 4.71.55 9.34.55 9.34 3.46-1.54 4.01-7.84c.69-7.89-.25-12.62-4.74-17.74-1.98-2.21-4.54-3.46-4.76-3.49-2.71-1.23-6.2-2.17-10.72-2.17z" fill="#402720"/></g></g><path clip-path="url(#l)" fill="none" d="M72 85H50"/><g clip-path="url(#l)"><radialGradient id="s" cx="72.542" cy="66.32" r="24.009" gradientTransform="translate(-11.966 -2.864) scale(1.0432)" gradientUnits="userSpaceOnUse"><stop stop-color="#6D4C41" offset="0"/><stop stop-color="#543930" offset="1"/></radialGradient><path d="M79.63 69.91c-2.33-2.43-4.54-3.46-4.76-3.49-2.71-1.24-6.2-2.18-10.72-2.18-19.87 0-21.25 16.27-20.45 23.4.7 6.29 4.37 7.84 4.37 7.84l-.6-6.12s7.29-1.92 11.04-4.83S64 79.16 64 79.16s1.27 1.87 5.44 5.34 11.04 4.92 11.04 4.92l-.51 6.07s3.85-1.54 4.4-7.84c.69-7.9-.26-12.63-4.74-17.74z" fill="url(#s)"/><defs><path id="t" d="M79.63 69.99c-2.19-2.49-4.54-3.46-4.76-3.49-2.71-1.24-6.2-2.18-10.72-2.18-19.87 0-21.25 16.27-20.45 23.4.7 6.29 4.37 7.86 4.37 7.86l-.03-1.34-1.97-5.04c-.59-2.08-.61-4.29-.05-6.38l.77-2.87 17.24-10.39 17.13 10.39.79 3.2c.57 2.3.72 4.72-.08 6.95l-1.73 3.74-.18 1.74s3.85-1.55 4.4-7.85c.7-7.89-.25-12.62-4.73-17.74z"/></defs><clipPath id="u"><use xlink:href="#t"/></clipPath><g clip-path="url(#u)"><path d="M64.15 66.32c3.67 0 6.99.67 9.88 2l.28.13.06.01c.56.27 2.34 1.27 3.75 2.85 3.9 4.45 4.94 8.4 4.25 16.24-.04.43-.09.82-.16 1.2-.07-1.27-.23-2.49-.56-3.29-1.63-3.9-3.86-5.45-4.1-5.61L73.22 77l1.29 5.02.47 1.84c-.64-.06-1.4-.16-2.22-.35-1.41-.32-4.06-2-5.4-2.98L59.85 75l4.59 8.12.69 1.22c-1.31-.05-2.48-.23-3.4-.51-6.14-1.86-9.51-4.72-9.53-4.74l-1.53-1.34-1.31 1.56c-.09.11-2.27 2.73-3.2 6.28-.19.74-.33 1.53-.41 2.32a5.46 5.46 0 0 1-.05-.4c-.26-2.35-.74-10.43 4.15-15.9 3.12-3.51 7.93-5.29 14.3-5.29m0-2c-19.87 0-21.25 16.27-20.45 23.4.7 6.29 4.37 7.84 4.37 7.84s-1.03-5.49.01-9.47c.83-3.16 2.8-5.5 2.8-5.5s3.58 3.12 10.27 5.15c1.61.49 3.44.61 4.87.61 1.44 0 2.48-.12 2.48-.12l-2.32-4.1s3.78 2.79 6.14 3.32c1.63.37 3.02.45 3.96.45.81 0 1.28-.06 1.28-.06l-1.11-4.33s1.92 1.26 3.36 4.71c.76 1.81.3 7.54.3 7.54l-.15 1.86s3.85-1.6 4.4-7.9c.69-7.89-.25-12.62-4.74-17.74-1.98-2.21-4.54-3.46-4.76-3.49-2.7-1.23-6.19-2.17-10.71-2.17z" fill="#402720"/></g></g></g></g><g clip-path="url(#b)"><defs><path id="v" d="M3.69 4.11h60.22v60.22H3.69z"/></defs><clipPath id="w"><use xlink:href="#v"/></clipPath><g clip-path="url(#w)"><path d="M15.78 49.3c-3.62 0-6.57-3.15-6.57-7.03s2.95-7.03 6.57-7.03h36.05c3.62 0 6.57 3.15 6.57 7.03s-2.95 7.03-6.57 7.03H15.78z" fill="#E59600"/><path d="M51.83 35.74c3.35 0 6.07 2.93 6.07 6.53s-2.72 6.53-6.07 6.53H15.78c-3.35 0-6.07-2.93-6.07-6.53s2.72-6.53 6.07-6.53h36.05m0-1H15.78c-3.89 0-7.07 3.39-7.07 7.53s3.18 7.53 7.07 7.53h36.05c3.89 0 7.07-3.39 7.07-7.53s-3.18-7.53-7.07-7.53z" fill="#CC8600"/><linearGradient id="x" x1="33.733" x2="33.733" y1="8.91" y2="63.352" gradientUnits="userSpaceOnUse"><stop stop-color="#FFCA28" offset=".599"/><stop stop-color="#FFB300" offset="1"/></linearGradient><path d="M33.73 63.32c-5.56 0-10.71-2.21-14.51-6.23-4.32-4.56-6.6-11.14-6.6-19.03 0-8.09 2.32-15.55 6.54-20.98 3.92-5.06 9.23-7.96 14.57-7.96s10.65 2.9 14.57 7.96c4.22 5.44 6.54 12.89 6.54 20.98 0 7.89-2.28 14.47-6.6 19.03-3.79 4.02-8.95 6.23-14.51 6.23z" fill="url(#x)"/><path d="M33.73 10.11c5.03 0 10.05 2.76 13.78 7.57 4.08 5.26 6.33 12.5 6.33 20.37 0 7.63-2.19 13.97-6.32 18.35-3.61 3.81-8.51 5.91-13.79 5.91s-10.18-2.1-13.79-5.91c-4.14-4.37-6.32-10.72-6.32-18.35 0-7.87 2.25-15.11 6.33-20.37 3.73-4.81 8.76-7.57 13.78-7.57m0-2c-11.48 0-22.11 12.28-22.11 29.94 0 17.57 10.95 26.26 22.11 26.26s22.11-8.69 22.11-26.26c0-17.66-10.63-29.94-22.11-29.94z" fill="#EDA600"/><g fill="#6D4C41"><path d="M17.97 34.93s.09-.13.25-.33c.04-.05.08-.11.14-.17.07-.07.15-.14.24-.22l.28-.25c.1-.08.2-.15.31-.23s.23-.16.35-.23c.13-.07.26-.14.4-.21.14-.08.28-.14.43-.2s.31-.12.47-.18c.32-.09.66-.19 1.01-.24.35-.07.71-.07 1.07-.09.36.02.72.02 1.07.09.35.04.69.15 1.01.24.16.05.32.11.47.18.15.06.3.12.43.2.14.07.27.14.4.21.12.07.24.16.35.23.11.08.22.15.31.23l.26.23c.08.07.16.14.22.21.07.07.12.14.17.19.2.24.31.38.31.38.33.46.23 1.11-.24 1.45-.28.2-.63.24-.94.14l-.19-.07s-.13-.04-.32-.13c-.05-.02-.1-.05-.16-.07s-.13-.05-.2-.07c-.14-.06-.29-.11-.46-.16-.09-.03-.17-.06-.26-.09-.09-.02-.19-.05-.28-.07-.05-.01-.1-.03-.15-.04l-.15-.03c-.1-.02-.21-.05-.31-.06-.22-.02-.43-.07-.66-.08-.22-.03-.45-.02-.68-.03-.23.01-.46.01-.68.04-.23.01-.44.06-.66.08-.11.02-.21.05-.31.06l-.15.03c-.05.01-.1.03-.15.04-.1.02-.19.05-.28.07s-.18.06-.26.09-.17.05-.24.08c-.07.02-.13.05-.19.07l-.18.06c-.06.03-.13.07-.19.09-.24.12-.38.18-.38.18-.54.23-1.17-.03-1.39-.58-.14-.37-.08-.75.11-1.04zM48.35 36.52s-.14-.06-.38-.18c-.06-.03-.13-.07-.19-.09-.06-.01-.12-.04-.18-.06s-.12-.04-.19-.07c-.08-.02-.16-.05-.24-.08-.09-.03-.17-.06-.26-.09-.09-.02-.19-.05-.28-.07-.05-.01-.1-.03-.15-.04l-.15-.03c-.1-.02-.21-.05-.31-.06-.22-.02-.43-.07-.66-.08-.22-.03-.45-.02-.68-.04-.23.01-.46.01-.68.03-.23.01-.44.06-.66.08-.11.02-.21.05-.31.06l-.15.03c-.05.01-.1.03-.15.04-.1.03-.19.05-.28.07s-.18.06-.26.09c-.17.05-.33.11-.46.16-.07.03-.13.05-.2.07-.06.02-.11.05-.16.07-.2.09-.32.13-.32.13l-.19.06c-.54.19-1.13-.1-1.32-.64-.11-.33-.05-.68.14-.95 0 0 .1-.14.31-.38.05-.06.11-.13.17-.19.07-.07.14-.13.22-.21l.26-.23c.09-.08.2-.15.31-.23s.23-.16.35-.23c.13-.07.26-.14.4-.21.14-.08.28-.14.43-.2s.31-.12.47-.18c.32-.09.66-.19 1.01-.24.35-.07.71-.07 1.07-.09.36.02.72.02 1.07.09.35.04.69.15 1.01.24.16.05.32.11.47.18.15.06.3.12.43.2.14.07.27.14.4.21.12.07.24.16.35.23.11.08.21.15.31.23.1.09.2.17.28.25.09.08.17.15.24.22.06.07.1.12.14.17l.25.33c.33.49.21 1.15-.28 1.48-.29.26-.68.28-1 .15z"/></g><g fill="#404040"><ellipse cx="22.96" cy="40.92" rx="3.25" ry="3.37"/><ellipse cx="44.65" cy="40.92" rx="3.25" ry="3.37"/></g><radialGradient id="y" cx="33.877" cy="5.831" r="20.048" gradientUnits="userSpaceOnUse"><stop stop-color="#6D4C41" offset="0"/><stop stop-color="#543930" offset="1"/></radialGradient><path d="M33.99 4.13c-30.21 0-23.86 34.71-23.86 34.71s3.18 5.61 3.18 5.49c-.11-4.78 1.81-13.25 3.17-16.86a4.005 4.005 0 0 1 4.48-2.53c2.94.53 7.62 1.19 12.78 1.19 4.96 0 9.51-.61 12.5-1.13 2.05-.36 4.03.9 4.57 2.91l3.74 16.41 3.09-6c0 .02 6.19-34.19-23.65-34.19z" fill="url(#y)"/><defs><path id="z" d="M33.99 4.13C3.78 4.13 9.75 37.99 9.75 37.99s3.57 6.47 3.57 6.35c-.02-1.02.64-5.25.64-5.25a15.428 15.428 0 0 1-1.78-7.19v-.74l1.78-6.6 19.89-12.28 19.6 12.17 1.66 7.6.05.69c-.27 2.21-.95 4.22-1.79 6.29l1.18 5.3 3.18-6.29c0 .01 6.1-33.91-23.74-33.91z"/></defs><clipPath id="A"><use xlink:href="#z"/></clipPath><g clip-path="url(#A)"><path d="M33.99 7.13c7.09 0 12.46 2.12 15.96 6.31 4.93 5.88 5.41 14.66 5.17 19.92l-1.39-6.1-.03-.11a7.02 7.02 0 0 0-6.77-5.19c-.4 0-.81.04-1.21.1-2.84.49-7.22 1.08-11.98 1.08-4.91 0-9.37-.62-12.24-1.14-.42-.08-.84-.11-1.26-.11-2.91 0-5.54 1.82-6.56 4.54-.45 1.2-.96 2.91-1.45 4.84.02-5.18.95-12.51 5.31-17.68 3.6-4.29 9.14-6.46 16.45-6.46m0-3C3.78 4.13 9.68 37.99 9.68 37.99s3.57 6.35 3.63 6.35c-.11-4.78 1.81-13.25 3.17-16.86a4.005 4.005 0 0 1 4.49-2.52c2.94.53 7.62 1.19 12.78 1.19 4.96 0 9.51-.61 12.5-1.13a3.995 3.995 0 0 1 4.56 2.91l3.74 16.41 3.09-6S63.83 4.13 33.99 4.13z" fill="#402821"/></g><path d="M39.21 52.94c-2.1 1.25-8.99 1.25-11.09 0-1.21-.72-2.44.38-1.94 1.48.49 1.08 4.25 3.58 7.5 3.58s6.96-2.5 7.45-3.58c.51-1.1-.71-2.2-1.92-1.48z" fill="#795548"/><path d="M35.9 46.88a.537.537 0 0 0-.21-.05h-4.67c-.07.01-.14.03-.21.05-.42.17-.66.61-.46 1.08s1.13 1.78 3 1.78 2.8-1.31 3-1.78c.21-.47-.02-.91-.45-1.08z" fill="#E59600"/></g></g></svg>