<svg viewBox="0 0 128 128" xmlns="http://www.w3.org/2000/svg" xmlns:xlink="http://www.w3.org/1999/xlink"><path d="M113 53.9c0-2-.9-3.7-2.3-4.9a6.1 6.1 0 0 0-1.5-10.2 6.1 6.1 0 0 0-2-9.3 5 5 0 0 0-1.6-2.3c.4-.7.6-1.4.6-2.2 0-2.6-2.1-4.7-4.9-5l.1-.8c0-2.8-2.5-5.1-5.6-5.1h-.3v-.5c0-2.8-2.5-5-5.6-5-1 0-2 .2-2.8.6-.2-2.6-2.6-4.7-5.6-4.7A6 6 0 0 0 77.6 6a5.7 5.7 0 0 0-5-2.9c-1.9 0-3.5.8-4.5 2a5.8 5.8 0 0 0-4.8-2.5c-1.7 0-3.3.7-4.3 1.8a6 6 0 0 0-8.6 1.2c-1-.6-2.1-1-3.3-1-2.8 0-5 1.8-5.6 4.1A6 6 0 0 0 39 8c-3.2 0-5.7 2.3-5.7 5.1v.3h-.7c-3 0-5.6 2.3-5.6 5 0 .8.2 1.5.5 2.1-2.8.3-5 2.4-5 5 0 1.3.6 2.5 1.4 3.4A6.2 6.2 0 0 0 18 35a6 6 0 0 0 .9 3.2l-.4 1.1a6.2 6.2 0 0 0-.7 9.7 6.2 6.2 0 0 0 .8 10.3 6.1 6.1 0 0 0 2.6 9.2c-.5.8-.7 1.9-.7 3 0 3 2.3 5.6 5.3 6a6.2 6.2 0 0 0 7 8.3l-.1.4a6.2 6.2 0 0 0 8.6 5.7 5.5 5.5 0 0 0 8.4 3.8c2.2 4.6 8.1 7.8 15 7.8 6.8 0 12.5-3 14.9-7.4a5.6 5.6 0 0 0 7.6-4.2 6.2 6.2 0 0 0 8.6-6H97a6.2 6.2 0 0 0 5.9-8.3 6.2 6.2 0 0 0 4.5-9.1 6.2 6.2 0 0 0 2.7-9.2c1.8-1.1 3-3.1 3-5.4z" fill="#232020"/><defs><path id="a" d="M4 4h120v120H4z"/></defs><clipPath id="b"><use xlink:href="#a"/></clipPath><g clip-path="url(#b)"><linearGradient id="c" x1="64" x2="64" y1="95.9" y2="126.5" gradientUnits="userSpaceOnUse"><stop stop-color="#651FFF" offset="0"/><stop stop-color="#5914F2" offset=".7"/><stop stop-color="#530EEB" offset="1"/></linearGradient><path d="M14 126.5v-6.6c0-7.7 5.1-13.8 15.2-18a92.2 92.2 0 0 1 34.8-6h.1c24.8 0 49.9 8.3 49.9 24v6.6H14z" fill="url(#c)"/><path d="M64.1 97.5c12.9 0 25.3 2.2 34.1 6 6.5 3 14.3 8.1 14.3 16.4v5.1h-97v-5.1c0-15.5 24.4-22.4 48.5-22.5h.1m0-3H64c-25.7 0-51.5 7.6-51.5 25.5v8.1h103v-8.1c0-16.9-25.6-25.5-51.4-25.5z" fill="#4A00ED"/></g><g clip-path="url(#b)"><path d="M63.3 107.2c-4 0-7.3-3.2-7.3-7.2v-9h16.2v9c0 4-3.3 7.2-7.3 7.2h-1.6z" fill="#3C2B24"/><path d="M71.2 92v8c0 3.4-2.8 6.2-6.3 6.2h-1.6A6.2 6.2 0 0 1 57 100v-8h14.2m2-2H55v10c0 4.6 3.7 8.2 8.3 8.2H65c4.5 0 8.2-3.6 8.2-8.2V90z" fill="#291B16"/></g><g clip-path="url(#b)"><linearGradient id="d" x1="64" x2="64" y1="94.7" y2="17.9" gradientUnits="userSpaceOnUse"><stop stop-color="#5C4037" offset="0"/><stop stop-color="#63463D" offset=".2"/><stop stop-color="#6D5047" offset=".5"/><stop stop-color="#70534A" offset="1"/></linearGradient><path d="M64 95.3c-2.3 0-5-.5-7.6-1.5A38.7 38.7 0 0 1 32 56c-.1-28.8 17.2-39 32-39s32.1 10.2 32.1 39a38.6 38.6 0 0 1-24.6 37.8 23 23 0 0 1-7.5 1.5z" fill="url(#d)"/><path d="M64 18a29 29 0 0 1 21.6 9.2A41.3 41.3 0 0 1 95 56c0 21-12.9 33-24 37-2.4.8-5 1.3-7.1 1.3-2.2 0-4.7-.5-7.2-1.4-11-3.9-24-16-24-37 0-12 3.4-22 9.7-28.7A29 29 0 0 1 64 18m0-2c-17.2 0-33.1 12.8-33.1 40A39.8 39.8 0 0 0 56 94.7a24 24 0 0 0 7.9 1.5c2.4 0 5-.5 7.8-1.5A39.8 39.8 0 0 0 97.1 56c0-27.2-15.9-40-33.1-40z" fill="#4A2F27"/></g><g clip-path="url(#b)"><path d="M67.8 68h-7.6c-.6.3-1 1-.7 1.7s1.7 2.6 4.5 2.6 4.2-2 4.5-2.6c.3-.7 0-1.4-.7-1.7z" fill="#33251F"/><g fill="#1A1717"><ellipse cx="47.8" cy="58.9" rx="4.9" ry="5"/><ellipse cx="80.3" cy="58.9" rx="4.9" ry="5"/><path d="M55 49.8c-1-1.2-3-3-7.3-3s-6.3 1.8-7.2 3c-.4.6-.3 1.2 0 1.6.3.3 1 .6 1.9.4s2.5-1.2 5.3-1.2c2.9 0 4.5.9 5.4 1.2s1.6 0 1.9-.4c.3-.4.4-1 0-1.6zm32.5 0c-1-1.2-3-3-7.2-3s-6.4 1.8-7.3 3c-.4.6-.3 1.2 0 1.6.3.3 1 .6 1.9.4s2.5-1.2 5.3-1.2c2.9 0 4.5.9 5.4 1.2s1.6 0 1.9-.4c.3-.4.4-1 0-1.6z"/></g><path d="M72.3 76.1a25.3 25.3 0 0 1-16.6 0c-1.8-1-3.6.6-2.9 2.3.7 1.6 6.4 5.3 11.2 5.3s10.5-3.7 11.2-5.4c.7-1.6-1-3.2-2.9-2.2z" fill="#1A1717"/></g><radialGradient id="e" cx="64.6" cy="12.4" r="44.8" gradientUnits="userSpaceOnUse"><stop stop-color="#444140" offset="0"/><stop stop-color="#232020" offset="1"/></radialGradient><path d="M107.5 48.4c.7-.6 1-1.5 1-2.5 0-.6-.2-1-.5-1.5 1-.7 1.5-1.7 1.5-2.9-.1-1.3-1-2.3-2-2.9.4-.6.7-1.3.7-2.2a3.4 3.4 0 0 0-1.8-2.7 4.7 4.7 0 0 0-.8-6.5 5 5 0 0 0 .6-2.1c0-2.6-2.2-4.7-4.9-5l.1-.9c0-2.8-2.5-5-5.7-5h-.2v-.5c0-2.9-2.5-5.2-5.6-5.2-1 0-2 .3-2.8.7-.2-2.6-2.7-4.7-5.6-4.7a6 6 0 0 0-3.9 1.4 5.8 5.8 0 0 0-9.5-1 5.8 5.8 0 0 0-4.8-2.4c-1.8 0-3.3.7-4.3 1.8A6 6 0 0 0 55.2 3c-2 0-3.9 1-4.9 2.4a5.8 5.8 0 0 0-8.8 3.2A6 6 0 0 0 39 8c-3.2 0-5.7 2.3-5.7 5.1v.4l-.7-.1c-3 0-5.6 2.3-5.6 5.1 0 .7.2 1.4.5 2-2.8.4-5 2.5-5 5.1 0 1.3.6 2.5 1.5 3.4-2.2.4-3.9 2.1-3.9 4.2a4 4 0 0 0 1.5 3.1c-1.8.4-3.1 1.8-3.1 3.6 0 1.1.6 2.1 1.5 2.8a3.5 3.5 0 0 0-2.4 3.2c0 1.6 1.2 2.9 2.7 3.3-.9 1-1.4 2.3-1.4 3.6 0 3 11.6 5.5 11.6 5.5l1.9-9.1c2.2-.4 3.9-2.1 3.9-4.3a4 4 0 0 0-.7-2.1l1.8.3a5 5 0 0 0 3.8-1.7 7.8 7.8 0 0 0 11.3-2c1 .6 2.1 1 3.3 1 3 0 5.6-2 6.5-4.8a6.8 6.8 0 0 0 7.8 2c1.6 2.4 3.2 4.5 7.5 4s4.5-2.5 5.3-2.8c1.3 4.8 7.8 5.3 10.5 3.7-.4.7 9.3 18.8 10.8 16.4h.8c2.2 0 3.8-1.7 3.7-3.6 0-.8-.4-1.5-1-2 .7-.7 1-1.6 1-2.5 0-1-.5-1.8-1.2-2.4z" fill="url(#e)"/><path d="M113 53.9c0-2-.9-3.7-2.3-4.9a6.1 6.1 0 0 0-1.5-10.2 6.1 6.1 0 0 0-2-9.3 5 5 0 0 0-1.6-2.3c.4-.7.6-1.4.6-2.2 0-2.6-2.1-4.7-4.9-5l.1-.8c0-2.8-2.5-5.1-5.6-5.1h-.3v-.5c0-2.8-2.5-5-5.6-5-1 0-2 .2-2.8.6-.2-2.6-2.6-4.7-5.6-4.7A6 6 0 0 0 77.6 6a5.7 5.7 0 0 0-5-2.9c-1.9 0-3.5.8-4.5 2a5.8 5.8 0 0 0-4.8-2.5c-1.7 0-3.3.7-4.3 1.8a6 6 0 0 0-8.6 1.2c-1-.6-2.1-1-3.3-1-2.8 0-5 1.8-5.6 4.1A6 6 0 0 0 39 8c-3.2 0-5.7 2.3-5.7 5.1v.3h-.7c-3 0-5.6 2.3-5.6 5 0 .8.2 1.5.5 2.1-2.8.3-5 2.4-5 5 0 1.3.6 2.5 1.4 3.4A6.2 6.2 0 0 0 18 35a6 6 0 0 0 .9 3.2l-.4 1.1a6.2 6.2 0 0 0-.7 9.7 6.2 6.2 0 0 0 .8 10.3 6.1 6.1 0 0 0 2.6 9.2c-.5.8-.7 1.9-.7 3 0 3 2.3 5.6 5.3 6a6.2 6.2 0 0 0 7 8.3l-.1.4a6.2 6.2 0 0 0 8.6 5.7c.4 2 1.7 3.5 3.4 4.2l5.7-.6 1.6-1.1v-.6a3 3 0 0 0-1.5-1 3 3 0 0 0-2.4.4c-.4.2-.8.3-1.3.3-1.2 0-2.3-.9-2.5-2a3 3 0 0 0-3-2.6 3 3 0 0 0-1.1.2 3.2 3.2 0 0 1-4.5-3 3 3 0 0 0-3.5-3.1 3.2 3.2 0 0 1-3.8-3.2c0-.4 0-.8.2-1.2a3 3 0 0 0-2.4-4 3.2 3.2 0 0 1-2.7-3.1c0-.6.1-1.1.4-1.6a3 3 0 0 0-1.5-4.2 3.4 3.4 0 0 1-1.9-3c0-.6.2-1.2.6-1.7a3 3 0 0 0-1-4.3 3.2 3.2 0 0 1-.4-5.3 3 3 0 0 0 .1-4.6 3.2 3.2 0 0 1 .4-5 3 3 0 0 0 1.3-2.1v-.1c.5-1 .5-2 0-3A3 3 0 0 1 21 35c0-1.6 1.4-3 3-3.1 1.2-.1 2.3-.9 2.7-2s.2-2.3-.6-3.1c-.3-.3-.6-.7-.6-1.3 0-1 1-1.9 2.3-2a3 3 0 0 0 2.4-4.3c-.2-.2-.2-.5-.2-.7 0-1.2 1.2-2.1 2.6-2.1h.7a3 3 0 0 0 3-3.2V13c0-1 1.3-2 2.7-2 .4 0 .8.2 1.3.4a3 3 0 0 0 2.6 0 3 3 0 0 0 1.6-2.1c.2-1 1.3-1.8 2.6-1.8a3 3 0 0 1 1.6.5c.5.3 1.1.5 1.7.5 1 0 1.9-.5 2.5-1.3.4-.8 1.3-1.2 2.3-1.2a3 3 0 0 1 1.9.7 3 3 0 0 0 4.1-.3c.5-.6 1.3-.9 2.1-.9 1 0 1.9.4 2.3 1.1A3 3 0 0 0 68 8h.2a3 3 0 0 0 2.3-1c.5-.6 1.3-.9 2.1-.9 1 0 2 .5 2.5 1.3a3 3 0 0 0 4.5.9 3 3 0 0 1 2-.7c1.4 0 2.5.9 2.6 2a3 3 0 0 0 4.4 2.4c.4-.2.9-.4 1.4-.4 1.4 0 2.6 1 2.6 2v.3c0 .9.2 1.7.8 2.4a3 3 0 0 0 2.2.9h.4c1.4 0 2.5 1 2.5 2v.3A3 3 0 0 0 101 23c1.3.2 2.3 1 2.3 2l-.2.8a3 3 0 0 0 .6 3.7c.3.2.5.6.6 1a3 3 0 0 0 1.6 1.8 3.2 3.2 0 0 1 1 4.8c-.5.7-.7 1.6-.5 2.5s.8 1.6 1.6 2c1.2.6 1.9 1.7 1.9 2.9a3 3 0 0 1-1.1 2.4 3 3 0 0 0 .1 4.6c.8.6 1.3 1.5 1.3 2.5a3 3 0 0 1-1.7 2.7c-.7.5-1.2 1.2-1.4 2s0 1.7.5 2.4c.3.5.5 1.1.5 1.7 0 1.3-.7 2.5-2 3a3 3 0 0 0-1.3 4.2c.2.5.4 1 .4 1.5 0 1.6-1.2 3-2.8 3.2-.9.1-1.7.7-2.1 1.4s-.6 1.8-.3 2.6c.2.4.2.7.2 1.1a3.2 3.2 0 0 1-3.8 3.2h-.5a3 3 0 0 0-3 3.2 3.2 3.2 0 0 1-4.5 3 3 3 0 0 0-4 2.3 2.5 2.5 0 0 1-2.6 2.1c-.3 0-.7 0-1-.2-.4-.2-.7-.2-1.1-.2a3 3 0 0 0-2 .8l1.1 1.5 4.6.9c2-.6 3.5-2.3 3.9-4.4a6.2 6.2 0 0 0 8.6-6h1a6.2 6.2 0 0 0 6-8.3 6.2 6.2 0 0 0 4.5-9.2 6.2 6.2 0 0 0 2.6-9.1 6 6 0 0 0 3.2-5.4zM96 17" fill="#1F1D1B"/></svg>