<svg viewBox="0 0 128 128" xmlns="http://www.w3.org/2000/svg" xmlns:xlink="http://www.w3.org/1999/xlink"><linearGradient id="a" x1="55.6" x2="55.6" y1="54.6" y2="82.4" gradientTransform="rotate(9 58 69.5)" gradientUnits="userSpaceOnUse"><stop stop-color="#FFB300" offset="0"/><stop stop-color="#FFCA28" offset=".4"/></linearGradient><path d="M62 83.2c-1 0-2-.6-2.4-1.4l-12.4-26 .7-2.4 7 .5c.8 2.6 3.5 11.8 4.8 14.8l4.4 11c.5 1.1 0 2.6-1 3.2a2 2 0 0 1-1.1.3z" fill="url(#a)"/><path d="M48.6 54.5l5.5.4c1 3.2 3.5 11.4 4.7 14.2l4.4 11c.3.7 0 1.6-.5 2l-.7.1c-.6 0-1.3-.3-1.5-.8L48.3 55.7l.3-1.2m-1.4-2.1l-1 3.4 12.5 26.4c.6 1.3 2 2 3.3 2 .6 0 1.2-.1 1.7-.4 1.4-.9 2-2.9 1.4-4.5l-4.4-11c-1.5-3.4-5-15.3-5-15.3l-8.5-.6z" fill="#EDA600"/><linearGradient id="b" x1="4.2" x2="22.6" y1="86.5" y2="55.8" gradientUnits="userSpaceOnUse"><stop stop-color="#FFCA28" offset=".6"/><stop stop-color="#FFB300" offset="1"/></linearGradient><path d="M5.1 87c-.5 0-1.5-.9-1.6-1.2-.2-.3-.7-1.6 0-4.4a8.2 8.2 0 0 1 3-4.8l6.2-9.2v-.2l5.8-12.7 8 .5-.3 2.8-15 21-.1.5-.6 4A28 28 0 0 1 9 85.4v-.1l.2-1.1c.2-.7.4-1.3 0-1.9-.1-.3-.4-.5-.7-.6h-.4c-1.3 0-1.7 1.5-2 3-.2.7-.5 1.9-.9 2.2H5z" fill="url(#b)"/><path d="M19 55.6l6.4.4-.1 1.5-14.9 20.8a2 2 0 0 0-.3.8l-.3 2.2a2.3 2.3 0 0 0-1.6-.6c-2.1 0-2.6 2.1-3 3.7-.1.3-.2 1-.4 1.3-.2 0-.4-.3-.5-.4 0-.2-.4-1.2.3-3.6.5-2.2.8-2.6 2.5-4.3l.2-.3a3209.1 3209.1 0 0 0 6.4-9.5l5.4-12m-1.3-2.1l-6 13.3L5.7 76a9.1 9.1 0 0 0-3 5.2c-.8 2.8-.5 4.4-.1 5C2.8 86.8 4 88 5 88c.3 0 .6-.1.9-.4 1.2-1 1.1-5 2.2-5h.1c.6.2-.2 1.5-.2 2.7 0 .8.4 1.2 1 1.2.1 0 .3 0 .5-.2.3-.1 1.8-2.7 1.8-2.7l.7-4.2 15.1-21.2.3-4.1-9.7-.6z" fill="#EDA600"/><linearGradient id="c" x1="2.7" x2="2.7" y1="84.1" y2="84.1" gradientUnits="userSpaceOnUse"><stop stop-color="#FFB300" offset="0"/><stop stop-color="#FFCA28" offset=".4"/></linearGradient><path d="M2.7 84.2v-.3.3z" fill="url(#c)"/><path d="M2.7 84zm0 0v-.2z" fill="#EDA600"/><linearGradient id="d" x1="106.2" x2="123.2" y1="58" y2="86.1" gradientUnits="userSpaceOnUse"><stop stop-color="#FFB300" offset="0"/><stop stop-color="#FFCA28" offset=".4"/></linearGradient><path d="M122.3 87l-.2-.1c-.3-.3-.6-1.5-.8-2.3-.3-1.4-.7-3-2-3l-.4.1c-.3 0-.6.3-.8.6-.3.6-.1 1.2 0 1.9l.3 1v.2c-.3-.4-1-1.3-1.4-2.1l-.6-4-.2-.5-15-21-.2-2.8 8-.5 5.7 12.7v.2l6.3 9.1v.2a8.2 8.2 0 0 1 2.9 4.7c.7 2.8.2 4 0 4.4 0 .3-1 1.2-1.6 1.2z" fill="url(#d)"/><path d="M108.4 55.6l5.4 12a3209.1 3209.1 0 0 0 6.6 9.8c1.6 1.7 2 2.1 2.5 4.3.6 2.4.3 3.4.2 3.6l-.4.5-.4-1.4c-.4-1.6-1-3.7-3-3.7a2.3 2.3 0 0 0-1.6.6l-.3-2.2a2 2 0 0 0-.4-.8l-14.8-20.8-.1-1.5 6.3-.4m1.2-2.1l-9.7.6.4 4 15 21.3.7 4.2s1.6 2.6 1.9 2.7l.6.2c.5 0 1-.4.9-1.2 0-1.2-.8-2.5-.2-2.6 1.1 0 1 3.8 2.3 5 .2.2.5.3.8.3 1.1 0 2.3-1.2 2.6-1.7.3-.7.7-2.3 0-5.1a9.2 9.2 0 0 0-3.1-5.2l-6.2-9.2-6-13.3z" fill="#EDA600"/><linearGradient id="e" x1="95.9" x2="95.9" y1="84.1" y2="84.1" gradientTransform="matrix(-1 0 0 1 220.7 0)" gradientUnits="userSpaceOnUse"><stop stop-color="#FFB300" offset="0"/><stop stop-color="#FFCA28" offset=".4"/></linearGradient><path d="M124.8 84.2v-.3.3z" fill="url(#e)"/><linearGradient id="f" x1="57.5" x2="67.1" y1="84.7" y2="84.7" gradientTransform="rotate(8.2 62.7 85.4)" gradientUnits="userSpaceOnUse"><stop stop-color="#FFB300" offset="0"/><stop stop-color="#FFCA28" offset=".4"/></linearGradient><path d="M67 85.4c0 1.6-.9.6-1.5 1.1s-.8 1.1-2 1.5c-1 .2-1.7-.4-2.2-.2-.6.4-.3.6-1 .9-2 .5-2.3-1.7-2.1-2.3.6-2.3-1 .5-.7-1.5s3.3-4.6 5.4-4.6c2 0 4.2 2 4.2 5.1z" fill="url(#f)" stroke="#EDA600" stroke-linecap="round" stroke-linejoin="round" stroke-miterlimit="10" stroke-width="2"/><linearGradient id="g" x1="59.1" x2="76.7" y1="86.9" y2="60" gradientUnits="userSpaceOnUse"><stop stop-color="#FFCA28" offset=".6"/><stop stop-color="#FFB300" offset="1"/></linearGradient><path d="M58.5 88.2c-.9 0-1.4-.8-2-1.8l-.5-.7c-1.4-1.9-1-2.6-.4-3.5 1.3-1.8 3-3.1 4.5-4.2a46.1 46.1 0 0 0 1.3-1.2l4.8-8.4c1.7-2.7 5.1-11 6-13.3h7.4l-.2 2.8-13 22a1 1 0 0 0 0 1c1.8 4.7 1.2 5 .4 5.4h-.5l-.3-1c-.2-.8-.6-2.1-1.8-2.1H64c-1.4.1-2 1-2.4 2l-.8 1.6c-1 1.4-1.3 1.4-1.9 1.4h-.4z" fill="url(#g)"/><path d="M73 56l5.5.1v1.5l-13 21.9a2 2 0 0 0-.1 1.7L66 83c-.4-.5-1-.8-1.9-.8h-.3c-2 .2-2.6 1.6-3.1 2.6l-.8 1.5-.7.9h-.7c-.4 0-.9-.8-1.2-1.4a10 10 0 0 0-.5-.7c-1-1.4-.8-1.7-.4-2.3 1.2-1.6 3-3 4.3-4a31.3 31.3 0 0 0 1.6-1.5L67 69c1.7-2.7 4.7-10 6-13m-1.5-1.8S67.2 64.9 65.2 68l-4.7 8.4c-1.4 1.2-4 2.9-5.8 5.3-1 1.3-1.2 2.5.4 4.7.7.9 1.5 2.9 3.3 2.9h.4c.9 0 1.6-.1 2.7-1.9 1.2-2 1.2-3 2.5-3.1 1 0 .7 2.6 1.8 3l.8.1h.6c1.6-1 1.8-2 0-6.8l13-22.3.4-4.1h-9z" fill="#EDA600"/><linearGradient id="h" x1="56.8" x2="59.6" y1="85.4" y2="85.4" gradientTransform="rotate(-13.7 58 84.7)" gradientUnits="userSpaceOnUse"><stop stop-color="#FFB300" offset="0"/><stop stop-color="#FFCA28" offset=".4"/></linearGradient><path d="M57.3 86.8c1.2-2 2.2-3 2.2-3" fill="url(#h)" stroke="#EDA600" stroke-linecap="round" stroke-linejoin="round" stroke-miterlimit="10"/><linearGradient id="i" x1="55.6" x2="58.7" y1="83.7" y2="83.7" gradientTransform="rotate(-13.7 58 84.7)" gradientUnits="userSpaceOnUse"><stop stop-color="#FFB300" offset="0"/><stop stop-color="#FFCA28" offset=".4"/></linearGradient><path d="M55.7 85.4c1.3-2 2.4-3 2.4-3" fill="url(#i)" stroke="#EDA600" stroke-linecap="round" stroke-linejoin="round" stroke-miterlimit="10"/><g fill="#EDA602"><path d="M60.5 86.5c.2 0 .5.2.6.4l.3.8a.7.7 0 0 1-.5.9.6.6 0 0 1-.6-.4l-.4-.8a.7.7 0 0 1 .6-.9m0-.9c-.2 0-.4 0-.6.2-.8.3-1.2 1.2-.8 2l.4.8a1.5 1.5 0 1 0 2.8-1.3l-.4-.8c-.2-.5-.8-.9-1.4-.9z"/><path d="M61.7 84.4c.3 0 .5.2.6.5l.5 1.4a.7.7 0 0 1-.6 1 .7.7 0 0 1-.7-.6l-.5-1.4a.7.7 0 0 1 .7-.9m0-.9a1.6 1.6 0 0 0-1.5 2.1l.4 1.4a1.6 1.6 0 0 0 2 1c.9-.2 1.3-1 1-2l-.4-1.4c-.2-.7-.8-1.1-1.5-1.1z"/><path d="M62.8 83.1c.2 0 .5.1.6.4l1.2 2c.2.3 0 .8-.3 1H64a.7.7 0 0 1-.6-.3l-1.2-2c-.2-.4 0-.8.3-1h.3m0-1a1.6 1.6 0 0 0-1.4 2.4l1.2 2a1.6 1.6 0 0 0 2.2.6c.4-.2.6-.5.7-1s0-.8-.1-1.2l-1.2-2c-.3-.5-.8-.8-1.4-.8z"/><path d="M64.7 82.5c.2 0 .5.2.6.5l.7 1.5c.1.3 0 .7-.4.9h-.3a.7.7 0 0 1-.7-.3l-.7-1.5c-.1-.4 0-.8.4-1h.4m0-1c-.3 0-.5 0-.7.2h-.1c-.8.4-1.2 1.3-.8 2.1l.7 1.6a1.6 1.6 0 0 0 2.1.8h.1c.4-.2.7-.6.9-1v-1.2l-.8-1.5c-.2-.6-.8-1-1.4-1z"/></g><path d="M61.2 88.1c-.4.2-.8 0-1-.3l-.1-.4c-.2-.4 0-.8.3-1s.8 0 1 .4l.1.4c.2.3 0 .7-.3.9zm1.5-.8c-.3.1-.7 0-.9-.3l-.6-1.4c-.2-.3 0-.7.3-1 .3 0 .7 0 .9.4l.6 1.4c.2.3 0 .7-.3.9zm1.7-.9c-.3.2-.7 0-.9-.3l-1-2c-.3-.4-.1-.8.2-1s.7 0 1 .3l1 2.1c.2.4 0 .8-.3 1zm1.6-.9c-.3.2-.8 0-1-.3l-.8-1.8c-.2-.4 0-.8.3-1 .3-.2.8 0 1 .3l.9 1.9c.1.3 0 .7-.4.9z" fill="#FFCA28"/><linearGradient id="j" x1="36.1" x2="36.1" y1="122.7" y2="78" gradientUnits="userSpaceOnUse"><stop stop-color="#616161" offset="0"/><stop stop-color="#6B6B6B" offset=".4"/><stop stop-color="#6E6E6E" offset="1"/></linearGradient><path d="M22.1 78v44.7h5.7l7.9-38.2c0-.3.2-.4.4-.4s.4.1.5.4l7.8 38.2h5.7V78H22z" fill="url(#j)"/><path d="M45.2 121.7l-7.7-37.4c-.2-.7-.8-1.2-1.5-1.2s-1.3.5-1.4 1.2l-7.7 37.4h-3.8v-46h26v46h-4z" fill="#616161"/><path d="M48 76.6v44h-2l-7.5-36.5c-.3-1.2-1.3-2-2.5-2s-2.2.8-2.4 2l-7.5 36.6h-2v-44h24m2-2H22v48h5.6l7.9-38.2c0-.3.2-.4.4-.4s.5.1.5.4l7.9 38.2H50v-48z" fill="#4F4F4F"/><path d="M25.1 124h-4.4c-.8 0-1.4-1-1.2-1.8a6 6 0 0 1 5.6-4.3 6 6 0 0 1 5.7 4.5c.2.8-.4 1.6-1.2 1.6H25zm22.1 0h4.4c.9 0 1.4-1 1.2-1.8a6 6 0 0 0-5.6-4.3 6 6 0 0 0-5.7 4.5c-.2.8.4 1.6 1.2 1.6h4.5z" fill="#2B2D2D"/><path d="M23 77V59.7a1 1 0 0 0-.6-1L15 56c2.1-5.4 4.1-8.2 10.7-10a47 47 0 0 1 10.2-.9h.2c3.8 0 8 .3 10.3 1 6.6 1.7 8.6 4.5 10.7 10l-7.5 2.8a1 1 0 0 0-.6 1V77H23z" fill="#007689"/><path d="M36 46c3.9 0 8 .3 10.1.9 5.8 1.6 7.8 3.9 9.7 8.5L49.3 58a2 2 0 0 0-1.3 1.8V76H24V59.7a2 2 0 0 0-1.3-1.9l-6.4-2.4c2-4.8 3.8-7 9.6-8.5a46 46 0 0 1 10-1h.1m0-1.9c-4 0-8.2.3-10.6 1-7.6 2-9.4 5.5-11.7 11.6l8.3 3.1V78h28V59.7l8.4-3.2C56 50.5 54.2 47 46.7 45c-2.4-.7-6.6-1-10.6-1z" fill="#006575"/><path d="M35.7 49.9a4 4 0 0 1-4-3.9v-4.8h9V46a4 4 0 0 1-4.1 3.9h-1z" fill="#E49800"/><path d="M40.1 41.7V46c0 1.9-1.6 3.4-3.5 3.4h-1a3.5 3.5 0 0 1-3.5-3.4v-4.3h8m1-1h-10V46c0 2.4 2 4.4 4.6 4.4h.9c2.5 0 4.5-2 4.5-4.4v-5.3z" fill="#C78500"/><defs><path id="k" d="M16.1 4h40v40h-40z"/></defs><clipPath id="l"><use xlink:href="#k"/></clipPath><g clip-path="url(#l)"><path d="M24.1 33.8c-2.3 0-4.2-2-4.2-4.5s2-4.5 4.2-4.5h24c2.3 0 4.2 2 4.2 4.5s-2 4.5-4.2 4.5H24z" fill="#E59600"/><path d="M48 25.3c2.1 0 3.8 1.8 3.8 4s-1.7 4-3.7 4H24c-2 0-3.7-1.7-3.7-4s1.7-4 3.7-4h24m0-1H24c-2.6 0-4.7 2.3-4.7 5s2.1 5 4.7 5h24c2.5 0 4.7-2.2 4.7-5s-2.2-5-4.7-5z" fill="#CC8600"/><linearGradient id="m" x1="36" x2="36" y1="7" y2="43.5" gradientUnits="userSpaceOnUse"><stop stop-color="#FFCA28" offset=".6"/><stop stop-color="#FFB300" offset="1"/></linearGradient><path d="M36 43.5c-6.8 0-14.2-5.3-14.2-17 0-9.3 5.5-19.3 14.2-19.3s14.2 10 14.2 19.4c0 11.6-7.3 16.9-14.2 16.9z" fill="url(#m)"/><path d="M36 7.7c3.5 0 7 1.8 9.4 5.1 2.8 3.6 4.3 8.4 4.3 13.8 0 5.1-1.5 9.4-4.3 12.4-2.4 2.6-5.8 4-9.4 4s-7-1.4-9.4-4c-2.8-3-4.3-7.3-4.3-12.4a23 23 0 0 1 4.3-13.8c2.6-3.3 6-5.1 9.4-5.1m0-1c-7.6 0-14.6 8.1-14.6 19.9C21.4 38.1 28.6 44 36 44s14.7-5.8 14.7-17.4c0-11.8-7-20-14.7-20z" fill="#EDA600"/><path d="M25.6 24.5l.1-.3h.1l.2-.2.2-.2.2-.1.2-.2.3-.1.3-.1.3-.2.7-.1h1.4l.6.1.4.2h.2a10.2 10.2 0 0 0 .5.4l.2.1.2.2.2.1v.1l.3.3a.7.7 0 0 1-.8 1H31v-.1h-.2l-.3-.2h-.2l-.2-.1h-.2l-.2-.1h-2.1l-.2.1-.1.1H27l-.1.1h-.2l-.2.2c-.4.2-.8 0-1-.4 0-.2 0-.4.2-.6zm20.2 1h-.3l-.1-.1h-.2v-.1H45l-.2-.1h-.2l-.1-.1H44.2l-.5-.1h-1.6l-.1.1h-.2l-.2.1-.3.1h-.1l-.1.1-.2.1h-.1a.7.7 0 0 1-.8-1l.2-.2V24l.2-.1a2.6 2.6 0 0 1 .6-.5l.3-.1.3-.1.3-.1.7-.2H44c.2 0 .4 0 .7.2h.3l.3.2.2.1.2.2.3.1.1.2.2.2h.1l.2.3c.2.3.1.8-.2 1h-.7z" fill="#6D4C41"/><g fill="#404040"><ellipse cx="28.9" cy="28.4" rx="2.2" ry="2.2"/><ellipse cx="43.3" cy="28.4" rx="2.2" ry="2.2"/></g><radialGradient id="n" cx="36.1" cy="5.1" r="13.3" gradientUnits="userSpaceOnUse"><stop stop-color="#6D4C41" offset="0"/><stop stop-color="#543930" offset="1"/></radialGradient><path d="M36.2 4c-20 0-15.8 23-15.8 23l2 3.7a42 42 0 0 1 2.2-11.2c.4-1.2 1.7-1.9 3-1.7a49.2 49.2 0 0 0 16.7 0c1.4-.2 2.7.7 3 2l2.6 11 2-4S56 4 36.2 4z" fill="url(#n)"/><defs><path id="o" d="M36.2 4c-20 0-16 22.5-16 22.5l2.3 4.2.4-3.5c-.8-1.4-1.2-3-1.2-4.8V22l1.2-4.4 13.2-8.2 13 8.1 1.1 5v.5c-.1 1.5-.6 2.8-1.1 4.2l.8 3.5 2-4.2S56 4 36.3 4z"/></defs><clipPath id="p"><use xlink:href="#o"/></clipPath><g clip-path="url(#p)"><path d="M36.2 6c4.7 0 8.3 1.4 10.6 4.2 3.3 3.9 3.6 9.7 3.4 13.2l-.9-4v-.1a4.7 4.7 0 0 0-5.3-3.4 47.5 47.5 0 0 1-17-.1 4.7 4.7 0 0 0-4.3 3l-1 3.2c0-3.4.7-8.3 3.6-11.7 2.4-2.8 6-4.3 11-4.3m0-2C16 4 20 26.5 20 26.5l2.4 4.2c-.1-3.2 1.2-8.8 2-11.2a2.7 2.7 0 0 1 3-1.7 49.2 49.2 0 0 0 17.3 0c1.2 0 2.3.8 2.6 2l2.5 11 2-4S56 4 36.2 4z" fill="#402821"/></g><path d="M39.7 36.4c-1.4.9-6 .9-7.4 0-.8-.4-1.6.3-1.3 1 .4.7 2.8 2.4 5 2.4s4.6-1.7 5-2.4c.3-.7-.5-1.4-1.3-1z" fill="#795548"/><path d="M37.5 32.4H34c-.3.1-.4.4-.3.7.1.3.8 1.2 2 1.2s1.9-.9 2-1.2c.1-.3 0-.6-.3-.7z" fill="#E59600"/></g><linearGradient id="q" x1="91" x2="91" y1="122.7" y2="78" gradientUnits="userSpaceOnUse"><stop stop-color="#616161" offset="0"/><stop stop-color="#6B6B6B" offset=".4"/><stop stop-color="#6E6E6E" offset="1"/></linearGradient><path d="M77 78v44.7h5.7l7.9-38.2c0-.3.2-.4.4-.4s.5.1.5.4l7.9 38.2h5.6V78H77z" fill="url(#q)"/><path d="M100.1 121.7l-7.7-37.4c-.1-.7-.7-1.2-1.4-1.2s-1.3.5-1.5 1.2l-7.7 37.4H78v-46h26v46h-4z" fill="#616161"/><path d="M103 76.6v44h-2l-7.6-36.5c-.2-1.2-1.2-2-2.4-2s-2.2.8-2.5 2L81 120.7h-2v-44h24m2-2H77v48h5.6l8-38.2c0-.3.1-.4.4-.4s.4.1.4.4l7.9 38.2h5.6v-48z" fill="#4F4F4F"/><path d="M80 124h-4.4c-.8 0-1.4-1-1.2-1.8A6 6 0 0 1 80 118a6 6 0 0 1 5.7 4.5c.2.8-.4 1.6-1.2 1.6H80zm22.1 0h4.5c.8 0 1.4-1 1.1-1.8a6 6 0 0 0-5.6-4.3 6 6 0 0 0-5.7 4.5c-.2.8.4 1.6 1.2 1.6h4.5z" fill="#2B2D2D"/><linearGradient id="r" x1="91" x2="91" y1="45" y2="77" gradientUnits="userSpaceOnUse"><stop stop-color="#00BFA5" offset="0"/><stop stop-color="#00B29A" offset=".7"/><stop stop-color="#00AB94" offset="1"/></linearGradient><path d="M78 77V59.7a1 1 0 0 0-.7-1L70 56c2.2-5.4 4.1-8.2 10.7-10 2.3-.6 6.4-.9 10.2-.9h.2c3.9 0 8 .3 10.3 1 6.6 1.7 8.6 4.5 10.7 10l-7.4 2.8a1 1 0 0 0-.6 1V77H78z" fill="url(#r)"/><path d="M91 46c3.8 0 7.8.3 10 .9 5.9 1.6 7.8 3.9 9.7 8.5l-6.4 2.5a2 2 0 0 0-1.3 1.8V76H79V59.7a2 2 0 0 0-1.3-1.9l-6.5-2.4c2-4.8 3.8-7 9.6-8.5a46 46 0 0 1 10-1h.2m0-1.9h-.1c-4 0-8.2.3-10.6 1-7.5 2-9.4 5.5-11.6 11.6l8.3 3.1V78h28V59.7l8.3-3.2c-2.2-6-4.2-9.5-11.7-11.5-2.4-.7-6.6-1-10.6-1z" fill="#009984"/><path d="M90.6 49.9a4 4 0 0 1-4-3.9v-4.8h9V46a4 4 0 0 1-4.1 3.9h-1z" fill="#E49800"/><path d="M95 41.7V46c0 1.9-1.6 3.4-3.5 3.4h-1A3.5 3.5 0 0 1 87 46v-4.3h8m1-1H86V46c0 2.4 2 4.4 4.6 4.4h.9c2.5 0 4.5-2 4.5-4.4v-5.3z" fill="#C78500"/><defs><path id="s" d="M71 4h40v40H71z"/></defs><clipPath id="t"><use xlink:href="#s"/></clipPath><g clip-path="url(#t)"><path d="M79 33.8c-2.3 0-4.1-2-4.1-4.5s1.8-4.5 4.1-4.5h24c2.3 0 4.2 2 4.2 4.5s-1.9 4.5-4.2 4.5H79z" fill="#E59600"/><path d="M103 25.3c2 0 3.7 1.8 3.7 4s-1.7 4-3.7 4H79c-2 0-3.7-1.7-3.7-4s1.7-4 3.7-4h24m0-1H79c-2.5 0-4.7 2.3-4.7 5s2.2 5 4.7 5h24c2.6 0 4.7-2.2 4.7-5s-2.1-5-4.7-5z" fill="#CC8600"/><linearGradient id="u" x1="91" x2="91" y1="7" y2="43.5" gradientUnits="userSpaceOnUse"><stop stop-color="#FFCA28" offset=".6"/><stop stop-color="#FFB300" offset="1"/></linearGradient><path d="M91 43.5c-6.9 0-14.2-5.3-14.2-17 0-9.3 5.4-19.3 14.2-19.3s14.2 10 14.2 19.4c0 11.6-7.4 16.9-14.2 16.9z" fill="url(#u)"/><path d="M91 7.7c3.4 0 6.8 1.8 9.4 5.1 2.7 3.6 4.2 8.4 4.2 13.8 0 5.1-1.4 9.4-4.2 12.4-2.5 2.6-5.8 4-9.4 4s-7-1.4-9.4-4c-2.9-3-4.3-7.3-4.3-12.4 0-5.4 1.5-10.2 4.2-13.8 2.6-3.3 6-5.1 9.5-5.1m0-1c-7.7 0-14.7 8.1-14.7 19.9C76.3 38.1 83.6 44 91 44s14.7-5.8 14.7-17.4c0-11.8-7.1-20-14.7-20z" fill="#EDA600"/><path d="M80.5 24.5l.2-.3.2-.2.2-.2.2-.1.2-.2.3-.1.3-.1.3-.2.7-.1h1.4l.7.1.3.2h.3l.2.2.3.2.2.1.1.2.2.1v.1l.3.3a.7.7 0 0 1-.8 1H86l-.1-.1h-.2l-.3-.2h-.2l-.1-.1h-.2l-.3-.1h-2.1l-.2.1-.2.1H81.8l-.1.1h-.1l-.3.2c-.4.2-.8 0-1-.4 0-.2 0-.4.2-.6zm20.2 1h-.3l-.1-.1h-.1l-.1-.1h-.2l-.2-.1h-.2V25h-.4l-.4-.1H97.1l-.2.1h-.2l-.1.1-.3.1H96v.1l-.3.1h-.1a.7.7 0 0 1-.8-1l.2-.2.1-.2.2-.1a2.6 2.6 0 0 1 .6-.5l.2-.1.3-.1.3-.1.7-.2h1.4c.3 0 .5 0 .7.2h.3l.3.2.3.1.2.2.2.1.2.2.1.2h.1l.2.3c.2.3.1.8-.2 1h-.6z" fill="#6D4C41"/><g fill="#404040"><ellipse cx="83.8" cy="28.4" rx="2.2" ry="2.2"/><ellipse cx="98.2" cy="28.4" rx="2.2" ry="2.2"/></g><radialGradient id="v" cx="91.1" cy="5.1" r="13.3" gradientUnits="userSpaceOnUse"><stop stop-color="#6D4C41" offset="0"/><stop stop-color="#543930" offset="1"/></radialGradient><path d="M91.1 4c-20 0-15.8 23-15.8 23l2.1 3.7a42 42 0 0 1 2.1-11.2 2.8 2.8 0 0 1 3-1.7 49.2 49.2 0 0 0 16.8 0c1.3-.2 2.6.7 3 2l2.5 11 2-4S111 4 91.1 4z" fill="url(#v)"/><defs><path id="w" d="M91.1 4c-20 0-16 22.5-16 22.5l2.3 4.2.4-3.5c-.7-1.4-1.1-3-1.1-4.8V22l1.1-4.4L91 9.4l13 8.1 1.2 5v.5c-.2 1.5-.6 2.8-1.2 4.2l.8 3.5 2.1-4.2S110.9 4 91.1 4z"/></defs><clipPath id="x"><use xlink:href="#w"/></clipPath><g clip-path="url(#x)"><path d="M91.1 6c4.7 0 8.3 1.4 10.6 4.2 3.3 3.9 3.6 9.7 3.5 13.2l-1-4v-.1a4.7 4.7 0 0 0-5.3-3.4 47.5 47.5 0 0 1-16.9-.1c-2 0-3.7 1.2-4.4 3l-1 3.2a19 19 0 0 1 3.6-11.7c2.4-2.9 6-4.3 11-4.3m0-2C71 4 75 26.5 75 26.5l2.4 4.2a42 42 0 0 1 2.1-11.2 2.7 2.7 0 0 1 3-1.7 49.2 49.2 0 0 0 17.2 0c1.2 0 2.3.8 2.6 2l2.5 11 2-4S111 4 91.1 4z" fill="#402821"/></g><path d="M94.6 36.4c-1.4.9-6 .9-7.4 0-.8-.4-1.6.3-1.3 1 .4.7 2.9 2.4 5 2.4s4.6-1.7 5-2.4-.5-1.4-1.3-1z" fill="#795548"/><path d="M92.4 32.4H89c-.2.1-.4.4-.3.7.2.3.8 1.2 2 1.2s1.9-.9 2-1.2c.1-.3 0-.6-.3-.7z" fill="#E59600"/></g></svg>