<svg viewBox="0 0 128 128" xmlns="http://www.w3.org/2000/svg" xmlns:xlink="http://www.w3.org/1999/xlink"><defs><path id="a" d="M124 4v120H4V4"/></defs><clipPath id="b"><use xlink:href="#a"/></clipPath><g clip-path="url(#b)"><linearGradient id="c" x1="45.6" x2="45.6" y1="27.9" y2="123.5" gradientTransform="matrix(-1 0 0 1 128.2 0)" gradientUnits="userSpaceOnUse"><stop stop-color="#64B5F6" offset=".2"/><stop stop-color="#2196F3" offset=".8"/></linearGradient><path d="M75.2 100.5v-.9c-7.6-2.2-14.3-8-17.6-17.2-3.4-1.3-5.3-12.4-4.4-14-.7-4.7-5-41.5 29.3-41.7 34.6.2 30.1 37.2 29.4 41.8 1 1.5-1 12.6-4.4 13.9-3.4 9.3-10 15-17.6 17.2v.9c18 1.3 34 7.5 34 20.2v3.3H41.2v-3.3c0-12 16-18.8 34-20.2z" fill="url(#c)"/><path d="M82.5 29.7c9 0 15.7 2.8 20.2 8 9 10.5 6.6 28.4 6.3 30.4a16 16 0 0 1-.6 6.8c-.8 3.1-1.8 4.4-2 4.7a3 3 0 0 0-1.8 1.8 23.7 23.7 0 0 1-15.5 15.4 3 3 0 0 0-2.2 2.8v1a3 3 0 0 0 2.8 2.9c15.1 1.1 31.3 6.2 31.3 17.2v4.3H44v-4.3c0-10.2 15.8-16 31.4-17.2a3 3 0 0 0 2.8-3v-.9a3 3 0 0 0-2.2-2.8 23.6 23.6 0 0 1-15.6-15.5 3 3 0 0 0-1.7-1.7 21.1 21.1 0 0 1-2.8-10c.3-.5.3-1 .2-1.6-.3-2-2.6-19.9 6.3-30.3 4.5-5.2 11.3-7.9 20.1-8m0-3c-34.4.2-30 37-29.3 41.8-1 1.5 1 12.6 4.4 13.9 3.3 9.3 10 15 17.6 17.2v1c-18 1.4-34.1 8.1-34.1 20.1v7.3H124v-7.3c0-12.7-16.1-18.9-34-20.2v-.9c7.5-2.2 14.1-8 17.5-17.2 3.4-1.3 5.3-12.4 4.4-13.9.7-4.6 5.2-41.6-29.3-41.8z" fill="#424242" opacity=".2"/><linearGradient id="d" x1="82.5" x2="82.5" y1="27.9" y2="123.5" gradientTransform="matrix(-1 0 0 1 128.2 0)" gradientUnits="userSpaceOnUse"><stop stop-color="#1976D2" offset=".3"/><stop stop-color="#0D47A1" offset=".9"/></linearGradient><path d="M38.3 100.5v-.9c-7.6-2.2-14.3-8-17.6-17.2-3.4-1.3-5.3-12.4-4.4-14-.8-4.7-5-41.5 29.3-41.7C80.3 27 75.8 64 75 68.5c1 1.5-1 12.6-4.4 13.9-3.4 9.3-10 15-17.6 17.2v1c18 1.2 34 7.4 34 20.1v3.3H4.3v-3.3c0-12 16-18.8 34-20.2z" fill="url(#d)"/><path d="M45.6 29.7c9 0 15.7 2.8 20.2 8 9 10.5 6.6 28.4 6.3 30.4a16 16 0 0 1-.6 6.8c-.8 3.1-1.8 4.4-2 4.7a3 3 0 0 0-1.8 1.8 23.7 23.7 0 0 1-15.6 15.4 3 3 0 0 0-2.1 2.8v1a3 3 0 0 0 2.8 2.9c15.1 1.1 31.3 6.2 31.3 17.2v4.3H7v-4.3c0-10.2 15.8-16 31.4-17.2a3 3 0 0 0 2.8-3v-.9a3 3 0 0 0-2.2-2.8 23.6 23.6 0 0 1-15.6-15.5 3 3 0 0 0-1.6-1.7c-.4-.3-1.3-1.6-2-4.7-.7-2.5-.9-4.6-.8-5.3.2-.5.2-1 .1-1.6-.3-2-2.6-19.9 6.3-30.3 4.5-5.2 11.3-7.9 20.1-8m0-3c-34.4.2-30 37-29.3 41.8-1 1.5 1 12.6 4.4 13.9 3.4 9.3 10 15 17.6 17.2v1c-18 1.4-34.1 8.1-34.1 20.1v7.3h83v-7.3c0-12.7-16.2-18.9-34.2-20.2v-.9c7.6-2.2 14.3-8 17.6-17.2C74 81 76 70 75 68.5c.6-4.6 5-41.6-29.4-41.8z" fill="#424242" opacity=".2"/></g></svg>