<svg viewBox="0 0 128 128" xmlns="http://www.w3.org/2000/svg" xmlns:xlink="http://www.w3.org/1999/xlink"><defs><path id="a" d="M4 4h120v120H4z"/></defs><clipPath id="b"><use xlink:href="#a"/></clipPath><g clip-path="url(#b)"><linearGradient id="c" x1="64" x2="64" y1="97.5" y2="130.5" gradientUnits="userSpaceOnUse"><stop stop-color="#eee" offset=".001"/><stop stop-color="#EBEBEB" offset=".348"/><stop stop-color="#E0E0E0" offset=".651"/><stop stop-color="#CECECE" offset=".937"/><stop stop-color="#C9C9C9" offset="1"/></linearGradient><path d="M13.5 130.5v-9.51c0-17.29 27.21-23.46 50.5-23.49h.14c13.39 0 25.82 2.15 35.01 6.05 7 2.98 15.35 8.42 15.35 17.44v9.51h-101z" fill="url(#c)"/><path d="M64.14 99c24.28 0 48.86 7.55 48.86 21.99V129H15v-8.01c0-6.95 4.88-12.47 14.52-16.42C38.26 100.99 50.51 99.02 64 99h.14m0-3H64c-25.65.03-52 7.1-52 24.99V132h104v-11.01C116 104.13 89.9 96 64.14 96z" fill="#CDCFD1"/></g><g clip-path="url(#b)"><path d="M63.17 119.56c-4 0-7.26-3.83-7.26-8.53V91.08h16.16v19.96c0 4.7-3.26 8.53-7.26 8.53h-1.64z" fill="#3C2B24"/><path d="M71.08 92.08v18.96c0 4.15-2.81 7.53-6.26 7.53h-1.65c-3.45 0-6.26-3.38-6.26-7.53V92.08h14.17m2-2H54.92v20.96c0 5.26 3.7 9.53 8.26 9.53h1.65c4.56 0 8.26-4.27 8.26-9.53V90.08h-.01z" fill="#291B16"/></g><path d="M12.54 121.29v11.01h102.93v-11.01c0-16.89-25.69-25.65-51.55-25.6-25.63.06-51.38 7.71-51.38 25.6z" clip-path="url(#b)" fill="none"/><g clip-path="url(#b)"><defs><path id="d" d="M12 120.99V132h104v-11.01C116 104.1 89.81 95.97 64 96c-25.65.03-52 7.1-52 24.99z"/></defs><clipPath id="e"><use xlink:href="#d"/></clipPath><path clip-path="url(#e)" fill="#81D4FA" d="M52.66 102l3.85 22H71.9l3.44-22z"/><g clip-path="url(#e)"><path d="M70.9 125.1l3.11-28.08c3.74.29 5.96.6 6.89.75l2.78 6.43-5.27 4.37 2.97 6.32-6.3 10.21H70.9z" fill="#EFF2F5"/><path d="M74.9 98.09c2.58.22 4.32.44 5.31.58l2.26 5.24-4.1 3.4-1.19.99.66 1.4 2.41 5.13-5.72 9.27h-2.51l2.88-26.01m-1.78-2.14l-3.34 30.15h5.86l6.87-11.14-2.87-6.11 5.25-4.36-3.29-7.62c.01 0-2.55-.49-8.48-.92z" fill="#ccc"/><path d="M52.91 125.1l-6.3-10.21 2.97-6.32-5.27-4.37 2.78-6.43c.93-.15 3.16-.46 6.89-.75l3.11 28.08h-4.18z" fill="#EFF2F5"/><path d="M53.1 98.09l2.88 26.01h-2.51l-5.72-9.27 2.41-5.13.66-1.4-1.19-.99-4.1-3.4 2.26-5.24c1-.14 2.73-.36 5.31-.58m1.78-2.14c-5.92.43-8.48.93-8.48.93l-3.29 7.62 5.25 4.36-2.87 6.11 6.87 11.14h5.86l-3.34-30.16z" fill="#ccc"/></g></g><path d="M85.96 97.41c-.44-3.08-3.17-8.91-10.36-8.91H53.23c-7.19 0-9.92 5.83-10.35 8.88l-.64-.03c-4.3.46-7.65 4.11-7.65 8.52v5.1h3v-5.1c0-3.07 2.5-5.57 5.57-5.57s5.57 2.5 5.57 5.57v5.1h3v-5.1c0-4.01-2.77-7.37-6.49-8.31l.6.27c.04-.26 1.03-6.34 7.39-6.34H75.6c6.36 0 7.35 6.08 7.39 6.35l2.56 12.54 2.96-.46-2.55-12.51z" clip-path="url(#b)" fill="#03A9F4"/><circle cx="87.03" cy="112.5" r="7" clip-path="url(#b)" fill="#03A9F4"/><path d="M39.16 121.9c-1.19-.07-2.23-.54-3.04-1.36-1.8-1.84-1.78-4.86-1.78-5.19v-4.91c0-.14.12-.26.26-.26h2.96c.14 0 .26.12.26.26v4.95c-.01.64.17 2.1.79 2.73.16.16.38.32.86.32 1.04 0 1.87.91 1.72 1.98-.12.95-1.06 1.53-2.03 1.48zM46.84 122c-1.08 0-1.93-.98-1.7-2.1.16-.81.93-1.36 1.75-1.38.45-.01.66-.17.81-.32.62-.64.8-2.11.79-2.68v-5.02c0-.13.1-.23.23-.23h3.02c.13 0 .23.1.23.23v4.98c.01.3.03 3.31-1.78 5.15-.88.9-2.04 1.37-3.35 1.37z" clip-path="url(#b)" fill="#1E88E5"/><circle cx="87.03" cy="112.5" r="4" clip-path="url(#b)" fill="#1E88E5"/><g clip-path="url(#b)"><path d="M36.67 72.26c-5.36 0-9.71-4.67-9.71-10.41s4.36-10.41 9.71-10.41h54.65c5.36 0 9.71 4.67 9.71 10.41s-4.36 10.41-9.71 10.41H36.67z" fill="#3C2B24"/><path d="M91.33 52.43c4.8 0 8.71 4.22 8.71 9.41s-3.91 9.41-8.71 9.41H36.67c-4.8 0-8.71-4.22-8.71-9.41s3.91-9.41 8.71-9.41h54.66m0-2H36.67c-5.89 0-10.71 5.14-10.71 11.41 0 6.28 4.82 11.41 10.71 11.41h54.65c5.89 0 10.71-5.14 10.71-11.41.01-6.27-4.81-11.41-10.7-11.41z" fill="#291B16"/><linearGradient id="f" x1="64" x2="64" y1="94.591" y2="12.825" gradientUnits="userSpaceOnUse"><stop stop-color="#5C4037" offset="0"/><stop stop-color="#63463D" offset=".158"/><stop stop-color="#6D5047" offset=".533"/><stop stop-color="#70534A" offset="1"/></linearGradient><path d="M64 95.27c-15.66 0-32.52-12.14-32.52-38.81 0-12.38 3.56-23.79 10.02-32.13 6.04-7.8 14.25-12.27 22.5-12.27s16.45 4.47 22.5 12.27c6.46 8.34 10.02 19.75 10.02 32.13 0 12.09-3.51 22.19-10.14 29.21-5.86 6.19-13.81 9.6-22.38 9.6z" fill="url(#f)"/><path d="M64 13.07c7.94 0 15.85 4.33 21.71 11.88 6.33 8.16 9.81 19.35 9.81 31.52 0 11.83-3.41 21.7-9.87 28.52-5.67 5.99-13.36 9.29-21.65 9.29s-15.98-3.3-21.65-9.29c-6.46-6.82-9.87-16.69-9.87-28.52 0-12.16 3.49-23.35 9.81-31.52C48.15 17.4 56.06 13.07 64 13.07m0-2c-17.4 0-33.52 18.61-33.52 45.39 0 26.64 16.61 39.81 33.52 39.81S97.52 83.1 97.52 56.46c0-26.78-16.12-45.39-33.52-45.39z" fill="#4A2F27"/><g fill="#1A1717"><path d="M39.99 50.73s.13-.19.38-.51c.07-.08.12-.16.22-.26.11-.11.23-.22.37-.34s.28-.24.43-.38c.15-.13.31-.23.48-.35.17-.11.34-.24.53-.35.19-.1.4-.21.6-.32.21-.12.43-.21.66-.3s.47-.18.71-.27c.49-.14 1-.29 1.54-.36.53-.1 1.08-.11 1.63-.14.55.03 1.09.03 1.63.14.53.07 1.05.22 1.54.36.24.08.48.17.71.27.23.09.45.18.66.3.21.11.41.22.6.32.19.11.36.24.53.35.17.12.33.22.47.34s.27.24.4.35c.12.11.24.21.34.31s.18.21.26.29c.31.36.46.57.46.57.51.7.35 1.69-.36 2.19-.43.31-.96.37-1.43.21l-.29-.1s-.19-.07-.49-.2c-.08-.03-.15-.07-.25-.11-.1-.03-.19-.07-.3-.11-.21-.08-.44-.17-.7-.25-.13-.04-.26-.09-.4-.13-.14-.03-.28-.07-.43-.11l-.22-.06c-.08-.01-.15-.03-.23-.04-.16-.03-.31-.07-.47-.1-.33-.04-.66-.11-1-.12-.34-.04-.69-.03-1.03-.05-.35.02-.7.01-1.03.05-.34.02-.67.09-1 .12-.16.03-.31.07-.47.1-.08.01-.16.03-.23.04l-.22.06c-.15.04-.29.07-.43.11s-.27.09-.4.13-.25.08-.37.11c-.1.04-.2.07-.29.1l-.27.09c-.1.04-.2.1-.29.14-.36.18-.57.27-.57.27-.83.34-1.77-.05-2.11-.87-.24-.48-.16-1.06.13-1.49z"/><ellipse cx="47.56" cy="58.81" rx="4.93" ry="5.1"/><path d="M86.05 53.13s-.22-.09-.57-.27c-.09-.04-.19-.1-.29-.14-.09-.02-.18-.06-.27-.09s-.19-.07-.29-.1c-.12-.04-.24-.07-.37-.11s-.26-.09-.4-.13-.28-.07-.43-.11l-.22-.06c-.08-.01-.15-.03-.23-.04-.16-.03-.31-.07-.47-.1-.33-.04-.66-.11-1-.12-.34-.04-.69-.03-1.03-.05-.35.02-.7.01-1.03.05-.34.02-.67.09-1 .12-.16.03-.31.07-.47.1-.08.01-.16.03-.23.04l-.22.06c-.15.04-.29.08-.43.11-.14.04-.27.09-.4.13-.26.07-.49.16-.7.25-.11.04-.2.08-.3.11-.09.04-.17.08-.25.11-.3.13-.49.2-.49.2l-.28.1c-.82.29-1.72-.15-2-.97-.17-.5-.08-1.03.21-1.44 0 0 .16-.22.46-.57.08-.09.16-.19.26-.29s.22-.2.34-.31.26-.23.4-.35.31-.22.47-.34c.17-.12.34-.24.53-.35.19-.1.4-.21.6-.32.21-.12.43-.21.66-.3s.46-.18.71-.27c.49-.14 1-.29 1.54-.36.53-.1 1.08-.11 1.63-.14.55.03 1.09.03 1.63.14.53.06 1.05.22 1.54.36.24.08.48.17.71.27.23.09.45.18.66.3.21.11.41.22.6.32.19.11.36.24.53.35.17.12.32.22.48.35.15.13.3.26.43.38s.26.23.37.34c.09.1.15.18.22.26.25.31.38.51.38.51.5.74.31 1.74-.43 2.25-.49.28-1.07.32-1.56.12z"/><ellipse cx="80.44" cy="58.81" rx="4.93" ry="5.1"/></g><path d="M67.86 68.06c-.11-.04-.21-.07-.32-.08h-7.07c-.11.01-.22.04-.32.08-.64.26-.99.92-.69 1.63s1.71 2.69 4.55 2.69 4.25-1.99 4.55-2.69c.29-.71-.06-1.37-.7-1.63z" fill="#33251F"/><path d="M72.42 76.14c-3.19 1.89-13.63 1.89-16.81 0-1.83-1.09-3.7.58-2.94 2.24.75 1.63 6.45 5.42 11.37 5.42s10.55-3.79 11.3-5.42c.75-1.66-1.09-3.33-2.92-2.24z" fill="#1A1717"/><defs><path id="g" d="M64 4.03h-.04c-45.43.24-36.12 52.14-36.12 52.14s5.1 8.99 5.1 8.81c-.03-1.41.46-6.89.46-6.89l-2.68-2.92s3.89-25.44 6.79-24.91c4.45.81 26.54 2 26.57 2 7.83 0 14.92-.36 19.37-1.17 2.9-.53 9.64 1.7 10.68 4.45 1.33 3.54 3.13 19.71 3.13 19.71l-2.68 2.83s.49 5.51.46 6.89c0 .18 5.1-8.81 5.1-8.81S109.44 4.27 64 4.03z"/></defs><radialGradient id="h" cx="64.26" cy="4.274" r="48.85" gradientUnits="userSpaceOnUse"><stop stop-color="#444140" offset="0"/><stop stop-color="#232020" offset="1"/></radialGradient><path d="M64.02 4.03h-.04c-45.43.24-36.13 52.14-36.13 52.14s5.1 8.99 5.1 8.81c-.16-7.25 2.74-20.09 4.8-25.55a6.075 6.075 0 0 1 6.79-3.83c4.46.8 11.55 1.8 19.38 1.8h.16c7.83 0 14.92-1 19.37-1.81 2.9-.53 5.76 1.08 6.79 3.83 2.06 5.47 4.96 18.3 4.8 25.55 0 .18 5.1-8.81 5.1-8.81s9.31-51.89-36.12-52.13z" fill="url(#h)"/><path d="M64.02 4.03h-.04c-45.43.24-36.13 52.14-36.13 52.14s5 8.81 5.1 8.81c-.03-1.48.07-3.2.26-5.03-.12-.29-2.46-4.75-2.48-4.79-.24-1.6-.93-6.98-.55-13.56.41-7.04 2.17-16.96 8.22-24.22 5.67-6.8 14.27-10.28 25.56-10.35H64c11.32.06 19.93 3.54 25.6 10.35 10.81 12.96 8.18 34.33 7.67 37.79-.02.04-2.46 4.58-2.49 4.65.2 1.89.31 3.65.27 5.17.09 0 5.1-8.81 5.1-8.81s9.3-51.91-36.13-52.15z" fill="#1F1D1B"/></g></svg>