<svg viewBox="0 0 128 128" xmlns="http://www.w3.org/2000/svg" xmlns:xlink="http://www.w3.org/1999/xlink"><linearGradient id="a" x1="64" x2="64" y1="19.8" y2="121" gradientUnits="userSpaceOnUse"><stop stop-color="#8D6E63" offset="0"/><stop stop-color="#6D4C41" offset="1"/></linearGradient><path d="M26 122c-5.7 0-10.6-5-10.8-11.3l-5.7-78c-.1-3.9 1.1-7.5 3.6-10 1.9-2 4.4-3.1 7-3.1H108c2.6 0 5.1 1 7 3 2.4 2.6 3.7 6.2 3.6 10l-5.7 78c-.2 6.4-5 11.4-10.7 11.4H25.9z" fill="url(#a)"/><path d="M107.9 21c2.8 0 4.8 1.5 6 2.7a12 12 0 0 1 3.1 8.9l-5.7 78c-.2 5.5-4.3 9.9-9.2 9.9H25.9c-4.9 0-9-4.4-9.2-9.9l-5.7-78a12 12 0 0 1 3.1-8.9 8.2 8.2 0 0 1 6-2.7H108m0-3H20c-7 0-12.4 6.7-12 14.7l5.6 78c.3 7.1 5.8 12.8 12.2 12.8H102c6.4 0 12-5.7 12.2-12.7l5.7-78c.3-8.1-5.1-14.7-12.1-14.7z" fill="#6D533A"/><defs><path id="b" d="M4 4h120v120H4z"/></defs><clipPath id="c"><use xlink:href="#b"/></clipPath><g clip-path="url(#c)"><linearGradient id="d" x1="64" x2="64" y1="97.5" y2="130.5" gradientUnits="userSpaceOnUse"><stop stop-color="#616161" offset="0"/><stop stop-color="#545454" offset=".3"/><stop stop-color="#323232" offset=".8"/><stop stop-color="#212121" offset="1"/></linearGradient><path d="M13.5 130.5V121c0-17.3 27.2-23.5 50.5-23.5h.1c13.4 0 25.9 2.1 35 6 7 3 15.4 8.5 15.4 17.5v9.5h-101z" fill="url(#d)"/><path d="M64.1 99c24.3 0 48.9 7.5 48.9 22v8H15v-8c0-7 4.9-12.5 14.5-16.4C38.3 101 50.5 99 64 99h.1m0-3H64c-25.6 0-52 7.1-52 25v11h104v-11c0-16.9-26.1-25-51.9-25z" fill="#404042"/></g><g clip-path="url(#c)"><path d="M63.2 107.2c-4 0-7.3-3.2-7.3-7.1v-9h16.2v9c0 4-3.3 7.1-7.3 7.1h-1.6z" fill="#E59600"/><path d="M71 92v8c0 3.5-2.7 6.2-6.2 6.2h-1.6a6.2 6.2 0 0 1-6.3-6.1v-8h14.2m2-2H54.9v10c0 4.5 3.7 8.1 8.3 8.1h1.6c4.6 0 8.3-3.6 8.3-8.1V90z" fill="#D18100"/></g><g clip-path="url(#c)"><defs><path id="e" d="M8 121v11h112v-11c0-16.9-28.2-25-56-25-27.6 0-56 7.1-56 25z"/></defs><clipPath id="f"><use xlink:href="#e"/></clipPath><g clip-path="url(#f)"><path fill="#D8D8D8" d="M53.4 108l7 19H68l6.8-19-10.9-2z"/><path d="M66.8 113.5h-5.6l-1.8-7.5 4.6.2 4.6-.2zm2 18.3h-9.6l2-18.3h5.6z" fill="#ED1C24"/><path d="M54.8 95.8L64 106l-7.9 9.3-7.2-19zm18.4 0L64 106l8.1 9.5 7-19.1z" fill="#fff"/></g></g><path d="M36.7 72.3c-5.4 0-9.7-4.7-9.7-10.4s4.3-10.5 9.7-10.5h54.6c5.4 0 9.7 4.7 9.7 10.5s-4.3 10.4-9.7 10.4H36.7z" fill="#E59600"/><path d="M91.3 52.4c4.8 0 8.7 4.3 8.7 9.4s-3.9 9.5-8.7 9.5H36.7c-4.8 0-8.7-4.3-8.7-9.5s3.9-9.4 8.7-9.4h54.6m0-2H36.7c-6 0-10.7 5.2-10.7 11.4 0 6.3 4.8 11.5 10.7 11.5h54.6c6 0 10.7-5.2 10.7-11.5 0-6.2-4.8-11.4-10.7-11.4z" fill="#D18100"/><linearGradient id="g" x1="64" x2="64" y1="94.6" y2="12.8" gradientUnits="userSpaceOnUse"><stop stop-color="#FFB300" offset="0"/><stop stop-color="#FFB809" offset=".1"/><stop stop-color="#FFC21A" offset=".4"/><stop stop-color="#FFC825" offset=".7"/><stop stop-color="#FFCA28" offset="1"/></linearGradient><path d="M64 95.3c-15.7 0-32.5-12.2-32.5-38.8 0-12.4 3.5-23.8 10-32.2 6-7.8 14.3-12.2 22.5-12.2s16.4 4.4 22.5 12.2c6.5 8.4 10 19.8 10 32.2a42 42 0 0 1-10.1 29.2A30.5 30.5 0 0 1 64 95.3z" fill="url(#g)"/><path d="M64 13c8 0 15.8 4.4 21.7 12a51.5 51.5 0 0 1 9.8 31.5c0 11.8-3.4 21.7-9.8 28.5a29.6 29.6 0 0 1-43.3 0 40.5 40.5 0 0 1-10-28.5 51.3 51.3 0 0 1 10-31.5A28.1 28.1 0 0 1 64 13m0-2c-17.4 0-33.5 18.7-33.5 45.5C30.5 83 47 96.3 64 96.3S97.5 83 97.5 56.5C97.5 29.7 81.4 11 64 11z" fill="#ED9E00"/><path d="M40 50.7l.4-.5.2-.2.4-.4c.2 0 .2-.2.4-.4l.5-.3.5-.4.6-.3.7-.3c.3 0 .4-.2.7-.3l1.5-.3 1.6-.2a5 5 0 0 1 1.7.2l1.5.3a8.6 8.6 0 0 1 1.4.6l.6.3.5.4.5.3.4.4.3.3.3.3.4.5c.5.7.4 1.7-.3 2.2-.4.3-1 .4-1.4.2H53l-.5-.3h-.3l-.3-.2-.7-.2-.4-.2h-.4l-.2-.1H50l-.4-.2h-1l-1-.1h-1l-1 .1-.6.1h-.2l-.2.1-.4.1-.4.2h-.4l-.3.2h-.3l-.3.2-.5.3c-.9.3-1.8 0-2.1-.9-.3-.5-.2-1 0-1.5z" fill="#6D4C41"/><ellipse cx="47.6" cy="58.8" rx="4.9" ry="5.1" fill="#404040"/><path d="M86 53.1l-.5-.2-.3-.2h-.3l-.3-.2h-.3l-.4-.2-.5-.1h-.2L83 52l-.5-.1-1-.1h-3l-.5.2h-.5l-.4.2-.4.1c-.3 0-.5.2-.7.3h-.3l-.3.2-.4.2h-.3c-.8.4-1.7 0-2-.9-.2-.5-.1-1 .2-1.4l.4-.6.3-.3.3-.3.4-.3.5-.4.5-.3.6-.4c.3 0 .5-.2.7-.3l.7-.2 1.6-.4 1.6-.1 1.6.1c.5 0 1 .2 1.6.4a8.6 8.6 0 0 1 1.3.5l.6.4.6.3.4.4.5.3c.2.1.2.3.3.4l.3.3.3.5c.5.7.3 1.7-.4 2.2-.5.3-1 .3-1.6.1z" fill="#6D4C41"/><ellipse cx="80.4" cy="58.8" rx="4.9" ry="5.1" fill="#404040"/><path d="M67.9 68h-7.7c-.7.3-1 1-.7 1.7s1.7 2.7 4.5 2.7 4.3-2 4.6-2.7c.3-.7-.1-1.4-.7-1.6z" fill="#E59600"/><path d="M72.4 76.1a25.6 25.6 0 0 1-16.8 0c-1.8-1-3.7.6-3 2.3.8 1.6 6.5 5.4 11.4 5.4s10.6-3.8 11.3-5.4c.8-1.7-1-3.4-2.9-2.3z" fill="#795548"/><radialGradient id="h" cx="64.3" cy="4.3" r="48.9" gradientUnits="userSpaceOnUse"><stop stop-color="#6D4C41" offset="0"/><stop stop-color="#543930" offset="1"/></radialGradient><path d="M64 4c-45.5.3-36.2 52.2-36.2 52.2L33 65a90 90 0 0 1 4.8-25.6 6 6 0 0 1 6.8-3.8c4.5.8 11.6 1.8 19.4 1.8h.1c8 0 15-1 19.4-1.8a6 6 0 0 1 6.8 3.8A90 90 0 0 1 95 65l5.1-8.8s9.3-52-36-52.2z" fill="url(#h)"/><path d="M64 4c-45.5.3-36.2 52.2-36.2 52.2L33 65l.3-5-2.5-4.8c-.2-1.6-.9-7-.5-13.6.4-7 2.1-17 8.2-24.2C44.1 10.6 52.7 7 64 7s20 3.6 25.6 10.4c10.8 13 8.2 34.3 7.7 37.8l-2.5 4.6c.2 2 .3 3.7.2 5.2l5.1-8.8s9.3-52-36-52.2z" fill="#3F2720"/></svg>