<svg viewBox="0 0 128 128" xmlns="http://www.w3.org/2000/svg" xmlns:xlink="http://www.w3.org/1999/xlink"><radialGradient id="a" cx="22.1" cy="45.9" r="108.6" gradientUnits="userSpaceOnUse"><stop stop-color="#E30400" offset=".1"/><stop stop-color="#DE0400" offset=".2"/><stop stop-color="#CF0401" offset=".5"/><stop stop-color="#B70302" offset=".7"/><stop stop-color="#960204" offset=".9"/><stop stop-color="#880205" offset="1"/></radialGradient><path d="M95.2 97.4s-5.8 5.4-15.7 4.6C57.7 100.5 48 63.5 40.4 48c-2.5-5.3-8.4-10.3-11.6-15-2.3-3.2-2.6-7-2.6-7S6 33.6 3.6 46.7C1.6 58 6.4 62.2 9 70c3.9 11.6 3 54 3 54l4-.1s-1-44.4 9-47.5c2.8-.9 7 .5 19.2 19 11.9 18.1 15.3 28.7 33.4 28.7h42.1c3.3 0 6-5.5 2.4-8.2-8.8-6.5-26.8-18.5-26.8-18.5z" fill="url(#a)"/><defs><path id="b" d="M95.2 97.4s-5.8 5.4-15.7 4.6C57.7 100.5 48 63.5 40.4 48c-2.5-5.3-8.4-10.3-11.6-15-2.3-3.2-2.6-7-2.6-7S6 33.6 3.6 46.7C1.6 58 6.4 62.2 9 70c3.9 11.6 3 54 3 54l4-.1s-1-44.4 9-47.5c2.8-.9 7 .5 19.2 19 11.9 18.1 15.3 28.7 33.4 28.7h42.1c3.3 0 6-5.5 2.4-8.2-8.8-6.5-26.8-18.5-26.8-18.5z"/></defs><clipPath id="c"><use xlink:href="#b"/></clipPath><linearGradient id="d" x1="43.8" x2="43.8" y1="55.4" y2="127.8" gradientUnits="userSpaceOnUse"><stop stop-color="#4D4D4D" offset="0"/><stop offset="1"/></linearGradient><path d="M115.4 134.6l-.2-7-44.5-.3c-10.7 0-15.8-4.4-21.2-17.8a96.8 96.8 0 0 0-22-34.4c-13-12.4-19-19.7-38.7-20.1-25-.5-20.5 81.2 4.6 81.2 19.8 0 122-1.6 122-1.6z" clip-path="url(#c)" fill="url(#d)"/><path d="M25.7 26.5s.4-1.6 3 .5 13 17.4 15.3 26.2S56.3 88 65.5 91.5c9.3 3.4 23.1.4 30 6.2 6.9 5.8-15.5 6.7-25 3S44.6 74.2 39.1 61.1C25 27.9 25.7 26.5 25.7 26.5z" fill="#30060A"/><path d="M26.6 29.1l.3.2c2 1.6 12 16.3 14.2 24.6 2 7 12 36.2 23.4 40.4 4.3 1.6 9.3 1.9 14 2.2 6 .4 11.5.7 14.8 3.3l.8.4c3.1 2.1 18.3 12.3 26 18 .4.3.8.7.6 1.5-.3.8-.9 1.3-1 1.3H77.4c-13.7 0-17.9-6.6-26-19.7-1.6-2.4-3.1-4.9-5-7.6-11.1-17-16.2-20.5-20.4-20.5l-2.1.3c-3 1-7 4.1-9.3 19.6a108 108 0 0 0-2.8-24C11 66.8 10 64.8 9.2 63c-2.2-4.7-4-8.4-2.6-15.7 1.8-10 17-16.8 20-18m0-3.3a1 1 0 0 0-.7.3c-2.8 1-20 8.4-22.3 20.5C1.6 58 6.4 62.2 9 70c3.9 11.6 3 54 3 54l4-.1s-1-44.4 9-47.5a4 4 0 0 1 1.2-.2c2.9 0 7.5 3.2 18 19.2C56 113.4 59.4 124 77.5 124h42.1c3.3 0 6-5.4 2.4-8.2-8.8-6.5-26.8-18.4-26.8-18.4-7-5.4-20.6-2.5-29.7-6C56.2 88 46.4 62 44 53.3A85.3 85.3 0 0 0 28.8 27c-1-.8-1.8-1.1-2.2-1.1z" fill="#424242" opacity=".2"/></svg>