<svg viewBox="0 0 128 128" xmlns="http://www.w3.org/2000/svg" xmlns:xlink="http://www.w3.org/1999/xlink"><linearGradient id="a" x1="64" x2="64" y1="10.611" y2="85.746" gradientUnits="userSpaceOnUse"><stop stop-color="#7BC9C1" offset="0"/><stop stop-color="#26A69A" offset="1"/></linearGradient><path fill="url(#a)" d="M6.45 10.13h115.11v75.55H6.45z"/><path d="M119.11 12.58v70.65H8.89V12.58h110.22m4.89-4.9H4v80.44h120V7.68z" fill="#5D4037"/><path d="M103.59 111.41l-1.28-.17a.997.997 0 0 1-.86-1.13l11.81-81.87s.15-.68.65-.63c.53.05.5.7.5.7l-9.71 82.23c-.06.55-.56.94-1.11.87z" fill="#FF6F00"/><defs><path id="b" d="M4 4h120v120H4z"/></defs><clipPath id="c"><use xlink:href="#b"/></clipPath><g clip-path="url(#c)"><linearGradient id="d" x1="56.223" x2="56.223" y1="97.196" y2="136.01" gradientUnits="userSpaceOnUse"><stop stop-color="#80A8BA" offset=".001"/><stop stop-color="#546E7A" offset="1"/></linearGradient><path d="M5.72 136.01v-15.26c0-16.24 25.36-23.53 50.5-23.56h.13c25.03 0 50.36 8.09 50.36 23.56v15.26H5.72z" fill="url(#d)"/><path d="M56.36 98.7c12.9 0 25.42 2.19 34.36 6 6.62 2.83 14.51 7.91 14.51 16.05v13.76h-98v-13.76c0-15.2 24.61-22.03 49-22.06l.13.01m0-3h-.13c-25.49.03-52 7.28-52 25.06v16.76h104v-16.76C108.22 104 81.96 95.7 56.36 95.7z" fill="#62889C"/></g><g clip-path="url(#c)"><path d="M55.44 109.48c-4 0-7.26-3.22-7.26-7.17v-8.98h16.17v8.98c0 3.96-3.26 7.17-7.26 7.17h-1.65z" fill="#3C2B24"/><path d="M63.34 94.33v7.98c0 3.4-2.81 6.17-6.26 6.17h-1.65c-3.45 0-6.26-2.77-6.26-6.17v-7.98h14.17m2-2H47.18v9.98c0 4.51 3.7 8.17 8.26 8.17h1.65c4.56 0 8.26-3.66 8.26-8.17v-9.98h-.01z" fill="#291B16"/></g><path clip-path="url(#c)" fill="#405966" d="M45.73 105l3.59 28h14.35l3.2-28z"/><g clip-path="url(#c)"><linearGradient id="e" x1="45.278" x2="45.278" y1="97.843" y2="129.7" gradientUnits="userSpaceOnUse"><stop stop-color="#E6E6E6" offset=".005"/><stop stop-color="#E3E3E3" offset=".32"/><stop stop-color="#D9D9D9" offset=".573"/><stop stop-color="#C8C8C8" offset=".803"/><stop stop-color="#B3B3B3" offset="1"/></linearGradient><path fill="url(#e)" d="M49.25 131.12l-11.98-17.35 6.28-6.41-6.79-5.25 9.74-4.62 7.3 33.63z"/><path d="M45.79 98.94l6.76 31.19h-2.78l-11.22-16.25 4.91-5.01 1.57-1.61-1.78-1.38-4.61-3.57 7.15-3.37m1.42-2.89l-12.35 5.85 7.19 5.57-6.07 6.19 12.75 18.47h6.31l-7.83-36.08z" fill="#B3B3B3"/><linearGradient id="f" x1="-1232.6" x2="-1232.6" y1="97.686" y2="129.54" gradientTransform="matrix(-1 0 0 1 -1165.4 0)" gradientUnits="userSpaceOnUse"><stop stop-color="#E6E6E6" offset=".005"/><stop stop-color="#E3E3E3" offset=".32"/><stop stop-color="#D9D9D9" offset=".573"/><stop stop-color="#C8C8C8" offset=".803"/><stop stop-color="#B3B3B3" offset="1"/></linearGradient><path fill="url(#f)" d="M58.73 130.97l7.29-33.63 9.74 4.61-6.78 5.26 6.27 6.4-11.98 17.36z"/><path d="M66.73 98.78l7.13 3.38-4.61 3.57-1.78 1.38 1.57 1.61 4.91 5.01-11.22 16.25h-2.78l6.78-31.2m-1.42-2.89l-7.82 36.07h6.31l12.75-18.47-6.07-6.19 7.19-5.57-12.36-5.84z" fill="#B3B3B3"/></g><g clip-path="url(#c)"><path d="M100.82 129.79l-8-.25c-6.96-.71-11.7-4.77-10.79-13.12 1.97-18.12 21.83-12.18 23.64-6.3 2.7 8.8-1.75 19.98-4.85 19.67z" fill="#70534A"/><path d="M100.94 130.76c-.06 0-.13 0-.19-.01l-7.97-.25c-4.16-.42-7.38-1.95-9.39-4.43-1.98-2.45-2.77-5.74-2.33-9.76.83-7.61 5.03-12.33 11.52-12.95 5.89-.56 12.83 2.64 14 6.47 2.27 7.38-.28 16.1-2.91 19.3-1.07 1.32-2.04 1.63-2.73 1.63zm-6.93-25.52c-.41 0-.83.02-1.24.06-3.23.31-8.79 2.17-9.78 11.23-.38 3.49.26 6.3 1.91 8.33 1.67 2.07 4.45 3.35 8.01 3.72l7.93.25h.07c.2.02.68-.2 1.27-.92 2.41-2.94 4.55-11.02 2.56-17.5-.76-2.48-5.76-5.17-10.73-5.17z" fill="#4A2F27"/><path d="M93.5 126c-.27 1.7.89 3.29 2.59 3.57l4.33.69c1.7.27 3.29-.89 3.57-2.59.27-1.7-.89-3.29-2.59-3.57l-4.33-.69c-1.7-.27-3.3.89-3.57 2.59z" fill="#70534A"/><path d="M100.91 131.12c-.21 0-.41-.02-.62-.05l-4.33-.69c-2.15-.34-3.62-2.37-3.28-4.52s2.39-3.62 4.52-3.28l4.33.69c1.04.17 1.96.73 2.58 1.58s.87 1.9.7 2.94a3.949 3.949 0 0 1-3.9 3.33zm-6.58-4.99c-.2 1.24.65 2.41 1.89 2.61l4.33.69c1.24.2 2.41-.65 2.61-1.89.1-.6-.05-1.2-.41-1.7-.36-.49-.88-.82-1.49-.91l-4.33-.69c-1.24-.21-2.41.64-2.6 1.89z" fill="#4A2F27"/><path d="M94.71 121.54c-.26 1.71.91 3.31 2.62 3.58l5.68.87c1.71.26 3.31-.91 3.58-2.62.26-1.71-.91-3.31-2.62-3.58l-5.68-.87c-1.71-.26-3.32.91-3.58 2.62z" fill="#70534A"/><path d="M103.5 127c-.21 0-.42-.02-.63-.05l-5.68-.87a4.096 4.096 0 0 1-3.43-4.68 4.101 4.101 0 0 1 4.68-3.43l5.69.88c1.08.17 2.04.74 2.69 1.63.65.88.91 1.97.75 3.05a4.083 4.083 0 0 1-1.63 2.68c-.73.51-1.57.79-2.44.79zm-7.83-5.31c-.18 1.18.63 2.29 1.81 2.47l5.68.87a2.155 2.155 0 0 0 2.47-1.81 2.155 2.155 0 0 0-1.81-2.47l-5.69-.88c-1.16-.17-2.28.64-2.46 1.82z" fill="#4A2F27"/><path d="M94.97 117.26a3.065 3.065 0 0 0 2.74 3.36l6.95.71a3.065 3.065 0 1 0 .62-6.1l-6.95-.71a3.059 3.059 0 0 0-3.36 2.74z" fill="#70534A"/><path d="M104.97 122.31c-.14 0-.28-.01-.42-.02l-6.95-.71a4.033 4.033 0 0 1-3.61-4.42 4.05 4.05 0 0 1 4.42-3.6l6.95.71c1.07.11 2.04.63 2.72 1.46s1 1.88.89 2.96a4.033 4.033 0 0 1-1.46 2.72c-.72.58-1.61.9-2.54.9zm-6.96-6.84a2.096 2.096 0 1 0-.21 4.18l6.95.71a2.096 2.096 0 1 0 .43-4.17l-6.95-.71c-.07-.01-.15-.01-.22-.01zm-3.04 1.79z" fill="#4A2F27"/><path d="M94.89 111.78a3.072 3.072 0 0 0 2.92 3.21l6.98.33c1.69.08 3.13-1.23 3.21-2.92s-1.23-3.13-2.92-3.21l-6.98-.33a3.072 3.072 0 0 0-3.21 2.92z" fill="#70534A"/><path d="M104.94 116.28h-.2l-6.98-.33c-2.22-.1-3.94-2-3.84-4.22.11-2.22 2-3.93 4.22-3.84l6.98.33c2.22.11 3.94 2 3.84 4.22a3.973 3.973 0 0 1-1.32 2.79c-.74.69-1.7 1.05-2.7 1.05zm-9.08-4.46c-.05 1.16.84 2.14 1.99 2.19l6.98.33c.54.03 1.09-.17 1.51-.54.41-.38.66-.89.68-1.45a2.1 2.1 0 0 0-2-2.19l-6.98-.33c-1.14-.09-2.12.84-2.18 1.99z" fill="#4A2F27"/><path d="M105.57 104.92c-.77-.19-3.45-1.06-5.22-1.45-.67-.15-2.45-.48-3.13-.49-2.18-.04-9.12 2.5-10.74 4.1-.79.78-5.75 12.15 4.03 10.37 4.09-.52 3.01-5.45 4.36-6.82 1.03-1.05 2.7-2.6 7.64-.91 1.38.47 3.76.45 4.63-.6 1.51-1.83.67-3.64-1.57-4.2z" fill="#70534A"/><path d="M109.09 106.31c-.38-1.13-1.46-1.99-2.96-2.35-.26-.06-.74-.2-1.32-.37-1.17-.34-2.78-.8-4-1.07-.62-.14-2.52-.49-3.38-.51-6.63-.15-9.7 2.08-11.66 4.3-1.29 1.45-.98 4.03-.63 3.54.69-.95 3.8-3.73 6.56-4.78 2.42-.92 3.83-1.2 5.72-1.17.58.01 2.26.31 2.97.46 1.15.25 2.72.71 3.87 1.04.62.18 1.13.33 1.4.39.83.2 1.41.6 1.57 1.1.14.43.13 1.25-.34 1.79-.49.57-2.61.73-3.88.3-1.8-.6-3.74-1.37-5.64-.94-1.44.33-3.14 1.25-3.71 2.6-.56 1.32-.09 4.75-2.2 6.8-.87.84-3.13 1.89-3.13 1.89s2.47.54 3.86-.25c1.96-1.12 2.9-3.62 3.29-5.64.17-.9.14-2.5.42-2.76.87-.86 1.88-2.12 6.41-.61 1.58.52 4.68 1.03 5.95-.45.89-1.06 1.19-2.24.83-3.31z" fill="#4A2F27"/></g><path d="M28.9 72.26c-5.36 0-9.71-4.67-9.71-10.41s4.36-10.41 9.71-10.41h54.65c5.36 0 9.71 4.67 9.71 10.41s-4.36 10.41-9.71 10.41H28.9z" fill="#3C2B24"/><path d="M83.55 52.43c4.8 0 8.71 4.22 8.71 9.41s-3.91 9.41-8.71 9.41H28.9c-4.8 0-8.71-4.22-8.71-9.41s3.91-9.41 8.71-9.41h54.65m0-2H28.9c-5.89 0-10.71 5.14-10.71 11.41 0 6.28 4.82 11.41 10.71 11.41h54.65c5.89 0 10.71-5.14 10.71-11.41s-4.82-11.41-10.71-11.41z" fill="#291B16"/><linearGradient id="g" x1="56.222" x2="56.222" y1="94.591" y2="12.825" gradientUnits="userSpaceOnUse"><stop stop-color="#5C4037" offset="0"/><stop stop-color="#63463D" offset=".158"/><stop stop-color="#6D5047" offset=".533"/><stop stop-color="#70534A" offset="1"/></linearGradient><path d="M56.22 95.27c-15.66 0-32.52-12.14-32.52-38.81 0-12.38 3.56-23.79 10.02-32.13 6.04-7.8 14.24-12.27 22.5-12.27 8.25 0 16.45 4.47 22.5 12.27 6.46 8.33 10.02 19.75 10.02 32.13 0 12.09-3.51 22.19-10.14 29.21-5.86 6.19-13.81 9.6-22.38 9.6z" fill="url(#g)"/><path d="M56.22 13.07c7.94 0 15.85 4.33 21.71 11.88 6.33 8.16 9.81 19.35 9.81 31.52 0 11.83-3.41 21.7-9.87 28.52-5.67 5.99-13.36 9.29-21.65 9.29s-15.98-3.3-21.65-9.29c-6.46-6.82-9.87-16.69-9.87-28.52 0-12.16 3.49-23.35 9.81-31.52 5.86-7.55 13.77-11.88 21.71-11.88m0-2c-17.4 0-33.52 18.61-33.52 45.39 0 26.64 16.61 39.81 33.52 39.81S89.74 83.1 89.74 56.46c0-26.78-16.11-45.39-33.52-45.39z" fill="#4A2F27"/><g fill="#1A1717"><path d="M32.21 50.73s.13-.19.38-.51c.07-.08.12-.16.22-.26.11-.11.23-.22.37-.34s.28-.24.43-.38c.15-.13.31-.23.48-.35.17-.11.34-.24.53-.35.19-.1.4-.21.6-.32.21-.12.43-.21.66-.3s.47-.18.71-.27c.49-.14 1-.29 1.54-.36.53-.1 1.08-.11 1.63-.14.55.03 1.09.03 1.63.14.53.07 1.05.22 1.54.36.24.08.48.17.71.27.23.09.45.18.66.3.21.11.41.22.6.32.19.11.36.24.53.35.17.12.33.22.47.34s.27.24.4.35c.12.11.24.21.34.31s.18.21.26.29c.31.36.46.57.46.57.51.7.35 1.69-.36 2.19-.43.31-.96.37-1.43.21l-.29-.1s-.19-.07-.49-.2c-.08-.03-.15-.07-.25-.11-.1-.03-.19-.07-.3-.11-.21-.08-.44-.17-.7-.25-.13-.04-.26-.09-.4-.13-.14-.03-.28-.07-.43-.11l-.22-.06c-.08-.01-.15-.03-.23-.04-.16-.03-.31-.07-.47-.1-.33-.04-.66-.11-1-.12-.34-.04-.69-.03-1.03-.05-.35.02-.7.01-1.03.05-.34.02-.67.09-1 .12-.16.03-.31.07-.47.1-.08.01-.16.03-.23.04l-.22.06c-.15.04-.29.07-.43.11s-.27.09-.4.13-.25.08-.37.11c-.1.04-.2.07-.29.1l-.27.09c-.1.04-.2.1-.29.14-.36.18-.57.27-.57.27-.83.34-1.77-.05-2.11-.87-.24-.48-.16-1.06.13-1.49z"/><ellipse cx="40.41" cy="58.81" rx="4.93" ry="5.1"/><path d="M78.27 53.13s-.22-.09-.57-.27c-.09-.04-.19-.1-.29-.14-.09-.02-.18-.06-.27-.09s-.19-.07-.29-.1c-.12-.04-.24-.07-.37-.11s-.26-.09-.4-.13-.28-.07-.43-.11l-.22-.06c-.08-.01-.15-.03-.23-.04-.16-.03-.31-.07-.47-.1-.33-.04-.66-.11-1-.12-.34-.04-.69-.03-1.03-.05-.35.02-.7.01-1.03.05-.34.02-.67.09-1 .12-.16.03-.31.07-.47.1-.08.01-.16.03-.23.04l-.22.06c-.15.04-.29.08-.43.11-.14.04-.27.09-.4.13-.26.07-.49.16-.7.25-.11.04-.2.08-.3.11-.09.04-.17.08-.25.11-.3.13-.49.2-.49.2l-.28.1c-.82.29-1.72-.15-2-.97-.17-.5-.08-1.03.21-1.44 0 0 .16-.22.46-.57.08-.09.16-.19.26-.29s.22-.2.34-.31.26-.23.4-.35.31-.22.47-.34c.17-.12.34-.24.53-.35.19-.1.4-.21.6-.32.21-.12.43-.21.66-.3s.46-.18.71-.27c.49-.14 1-.29 1.54-.36.53-.1 1.08-.11 1.63-.14.55.03 1.09.03 1.63.14.53.06 1.05.22 1.54.36.24.08.48.17.71.27.23.09.45.18.66.3.21.11.41.22.6.32.19.11.36.24.53.35.17.12.32.22.48.35.15.13.3.26.43.38s.26.23.37.34c.09.1.15.18.22.26.25.31.38.51.38.51.5.74.31 1.74-.43 2.25-.49.28-1.07.32-1.56.12z"/><ellipse cx="71.56" cy="58.81" rx="4.93" ry="5.1"/></g><path d="M60.08 68.06c-.11-.04-.21-.07-.32-.08h-7.07c-.11.01-.22.04-.32.08-.64.26-.99.92-.69 1.63s1.71 2.69 4.55 2.69 4.25-1.99 4.55-2.69c.3-.71-.06-1.37-.7-1.63z" fill="#33251F"/><path d="M64.75 76.14c-3.19 1.89-13.63 1.89-16.81 0-1.83-1.09-3.7.58-2.94 2.24.75 1.63 6.45 5.42 11.37 5.42s10.55-3.79 11.3-5.42c.76-1.66-1.09-3.33-2.92-2.24z" fill="#1A1717"/><defs><path id="h" d="M56.22 4.03h-.04c-45.43.24-36.12 52.14-36.12 52.14s5.1 8.99 5.1 8.81c-.03-1.41.46-6.89.46-6.89l-2.68-2.92s3.89-25.44 6.79-24.91c4.45.81 26.54 2 26.57 2 7.83 0 14.92-.36 19.37-1.17 2.9-.53 9.64 1.7 10.68 4.45 1.33 3.54 3.13 19.71 3.13 19.71l-2.68 2.83s.49 5.51.46 6.89c0 .18 5.1-8.81 5.1-8.81s9.3-51.89-36.14-52.13z"/></defs><radialGradient id="i" cx="56.482" cy="4.274" r="48.85" gradientUnits="userSpaceOnUse"><stop stop-color="#444140" offset="0"/><stop stop-color="#232020" offset="1"/></radialGradient><path d="M56.24 4.03h-.04c-45.43.24-36.12 52.14-36.12 52.14s5.1 8.99 5.1 8.81c-.16-7.25 2.74-20.09 4.8-25.55a6.075 6.075 0 0 1 6.79-3.83c4.45.81 11.55 1.81 19.37 1.81h.16c7.83 0 14.92-1 19.37-1.81 2.9-.53 5.76 1.08 6.79 3.83 2.06 5.47 4.96 18.3 4.8 25.55 0 .18 5.1-8.81 5.1-8.81s9.32-51.9-36.12-52.14z" fill="url(#i)"/><path d="M56.24 4.03h-.04c-45.43.24-36.12 52.14-36.12 52.14s5 8.81 5.1 8.81c-.03-1.48.07-3.2.26-5.03-.12-.29-2.46-4.75-2.48-4.79-.24-1.6-.93-6.98-.55-13.56.41-7.04 2.17-16.96 8.22-24.22C36.3 10.58 44.9 7.1 56.19 7.03h.04c11.32.06 19.93 3.54 25.6 10.35C92.63 30.34 90 51.7 89.49 55.16c-.02.04-2.46 4.58-2.49 4.65.2 1.89.31 3.65.27 5.17.1 0 5.1-8.81 5.1-8.81s9.31-51.9-36.13-52.14z" fill="#1F1D1B"/><path d="M86.26 52.93c-.07-1.19-.12-1.31-1.69-1.81-1.23-.39-7.95-.94-13.01-.66-.36.02-.71.04-1.04.07-4.59.39-10.1 2.24-14.24 2.34-1.76.04-9.01-1.86-14.14-2.26-.33-.02-.66-.05-1-.06-5.07-.26-11.82.34-13.05.73-1.57.5-1.62.63-1.68 1.82-.07 1.19.13 2.2 1.06 2.51 1.27.41 1.28 2 2.13 6.54.77 4.14 2.62 7.41 10.57 7.98.34.02.66.04.98.04 7.03.1 9.45-4.53 10.25-6.07 1.5-2.86 1.02-6.8 4.96-6.81s3.55 3.86 5.07 6.71c.81 1.53 3.17 6.18 10.14 6.08.34-.01.69-.02 1.05-.05 7.94-.62 9.78-3.9 10.52-8.04.82-4.55.83-6.13 2.09-6.56.91-.3 1.11-1.31 1.03-2.5zM45.7 68.17c-1.21.57-2.85.86-4.57.85-3.59-.01-7.57-1.27-9.01-3.81-2.04-3.62-2.57-10.94.03-12.47 1.14-.67 4.99-1.13 8.97-.96 4.13.18 8.41 1.04 9.94 3.06 2.56 3.34-1.49 11.51-5.36 13.33zm34.9-3.1c-1.43 2.56-5.44 3.85-9.05 3.86-1.7.01-3.31-.27-4.51-.83-3.87-1.8-7.97-9.94-5.45-13.3 1.53-2.04 5.82-2.92 9.96-3.12 3.97-.19 7.81.25 8.94.91 2.62 1.53 2.13 8.85.11 12.48z" fill="#212121" stroke="#212121" stroke-miterlimit="10" stroke-width=".55"/></svg>