<svg viewBox="0 0 128 128" xmlns="http://www.w3.org/2000/svg" xmlns:xlink="http://www.w3.org/1999/xlink"><defs><path id="a" d="M4 4h120v120H4z"/></defs><clipPath id="b"><use xlink:href="#a"/></clipPath><g clip-path="url(#b)"><radialGradient id="c" cx="63.7" cy="62.7" r="48.7" gradientUnits="userSpaceOnUse"><stop stop-color="#fff" offset="0"/><stop stop-color="#F8F8F8" offset=".1"/><stop stop-color="#E6E6E6" offset=".3"/><stop stop-color="#D6D6D6" offset=".4"/></radialGradient><path d="M46.7 119.8s-6.8-.4-10.2-5.1C29 104.4 25 78.9 25 42.7c0-1.7.2-16.5 10.6-26.9A38.7 38.7 0 0 1 64.2 5.6c12.1 0 21.6 3.4 28 10 10 10 10.1 24.2 10 27 0 36.3-4 61.8-11.3 72-3.3 4.7-9.8 5.1-10.3 5.2h-34z" fill="url(#c)"/><path d="M64.2 7.1c11.7 0 20.8 3.3 27 9.6a38.5 38.5 0 0 1 9.6 25.8v.1c0 36-4 61.2-11.2 71.2-2.8 4-8.5 4.4-9 4.4H46.8c-.6 0-6.3-.5-9.1-4.4-7.2-10-11.1-35.3-11.1-71.2 0-.6 0-15.6 10.2-25.7A37.3 37.3 0 0 1 64.2 7m0-3c-41 0-40.6 38-40.6 38.5 0 24.6 1.8 59.3 11.7 73 3.9 5.3 11.4 5.6 11.4 5.6h34s7.5-.3 11.4-5.7c9.8-13.6 11.7-48.3 11.7-72.9 0-.6 1.5-38.5-39.6-38.5z" fill="#B0B0B0"/></g><g clip-path="url(#b)"><linearGradient id="d" x1="64" x2="64" y1="95.9" y2="126.5" gradientUnits="userSpaceOnUse"><stop stop-color="#651FFF" offset="0"/><stop stop-color="#5914F2" offset=".7"/><stop stop-color="#530EEB" offset="1"/></linearGradient><path d="M14 126.5v-6.6c0-7.7 5.1-13.8 15.2-18a92.2 92.2 0 0 1 34.8-6h.1c24.8 0 49.9 8.3 49.9 24v6.6H14z" fill="url(#d)"/><path d="M64.1 97.5c12.9 0 25.3 2.2 34.1 6 6.5 3 14.3 8.1 14.3 16.4v5.1h-97v-5.1c0-15.5 24.4-22.4 48.5-22.5h.1m0-3H64c-25.7 0-51.5 7.6-51.5 25.5v8.1h103v-8.1c0-16.9-25.6-25.5-51.4-25.5z" fill="#4A00ED"/></g><g clip-path="url(#b)"><path d="M63.2 107.2c-4 0-7.3-3.2-7.3-7.1v-9h16.2v9c0 4-3.3 7.1-7.3 7.1h-1.6z" fill="#E49800"/><path d="M71 92v8c0 3.5-2.7 6.2-6.2 6.2h-1.6a6.2 6.2 0 0 1-6.3-6.1v-8h14.2m2-2H54.9v10c0 4.5 3.7 8.1 8.3 8.1h1.6c4.6 0 8.3-3.6 8.3-8.1V90z" fill="#C78500"/></g><g clip-path="url(#b)"><linearGradient id="e" x1="63.8" x2="63.8" y1="92.6" y2="15.8" gradientUnits="userSpaceOnUse"><stop stop-color="#FFB300" offset="0"/><stop stop-color="#FFB809" offset=".1"/><stop stop-color="#FFC21A" offset=".4"/><stop stop-color="#FFC825" offset=".7"/><stop stop-color="#FFCA28" offset="1"/></linearGradient><path d="M63.8 93.1c-2.3 0-4.9-.5-7.5-1.4a38.7 38.7 0 0 1-24.6-37.9C31.7 25.1 49 15 63.8 15S96 25.1 96 54a38.6 38.6 0 0 1-24.7 37.8 21 21 0 0 1-7.5 1.4z" fill="url(#e)"/><path d="M63.8 16a29 29 0 0 1 21.6 9 41.3 41.3 0 0 1 9.5 28.8C95 74.8 82 87 71 90.8c-2.5.9-5 1.3-7.2 1.3s-4.7-.4-7.2-1.3c-11-4-24-16-24-37 0-12 3.4-22 9.7-28.7a29 29 0 0 1 21.5-9.2m0-2c-17.2 0-33.1 12.8-33.1 40a39.8 39.8 0 0 0 25.2 38.7 24 24 0 0 0 8 1.5c2.3 0 5-.5 7.8-1.4A39.8 39.8 0 0 0 97 53.8C97 26.7 81 14 63.8 14z" fill="#EDA600"/><g fill="#404040"><ellipse cx="47.7" cy="58.9" rx="4.9" ry="5"/><ellipse cx="80.6" cy="58.9" rx="4.9" ry="5"/></g><path d="M68 68h-7.7c-.6.3-1 1-.6 1.7s1.6 2.6 4.4 2.6 4.2-2 4.5-2.6c.3-.7 0-1.4-.6-1.7z" fill="#E59600"/><path d="M55.8 49.8c-1-1.2-3-3-7.2-3s-6.4 1.8-7.3 3c-.4.6-.3 1.2 0 1.6.3.3 1 .6 1.9.4s2.5-1.2 5.3-1.2c2.9 0 4.5.9 5.4 1.2s1.6 0 1.9-.4c.3-.4.4-1 0-1.6zm32.2 0c-1-1.2-3.1-3-7.3-3s-6.3 1.8-7.2 3c-.5.6-.4 1.2 0 1.6.2.3 1 .6 1.8.4s2.6-1.2 5.4-1.2c2.8 0 4.5.9 5.3 1.2s1.7 0 2-.4c.2-.4.3-1 0-1.6z" fill="#6D4C41"/><defs><path id="f" d="M30.4 88.8L29 37.4c0-17 15.8-29.8 32.7-29.8h5c17 0 32.5 12.9 32.5 29.8l-1.5 51.2-67.2.3z"/></defs><clipPath id="g"><use xlink:href="#f"/></clipPath><g clip-path="url(#g)"><radialGradient id="h" cx="-10" cy="-93" r="48.2" gradientTransform="matrix(.796 0 0 .796 72 73.6)" gradientUnits="userSpaceOnUse"><stop stop-color="#fff" offset="0"/><stop stop-color="#FAFAFA" offset=".3"/><stop stop-color="#EBEBEB" offset=".7"/><stop stop-color="#D6D6D6" offset="1"/></radialGradient><path d="M102 42.6s1-35.5-37.8-35.5-38 35.5-38 35.5.3 45.5 3.2 51.4 7.2 5.7 7.2 5.7-2-26.5-2.3-39c0-3-.9-13.7 5.2-15 22.4-5.1 35-17 35-17C77.8 36 88.1 43 91.8 45.6c3 2.2 2.6 11.2 2.5 15l-3 39s4.7.4 7.6-5.6 3-51.4 3-51.4z" fill="url(#h)"/></g><path d="M72 76.1a25.3 25.3 0 0 1-16.6 0c-1.8-1-3.6.6-2.9 2.3.8 1.6 6.4 5.3 11.3 5.3 4.8 0 10.4-3.7 11.1-5.4.8-1.6-1-3.2-2.9-2.2z" fill="#795548"/></g></svg>