<svg viewBox="0 0 128 128" xmlns="http://www.w3.org/2000/svg" xmlns:xlink="http://www.w3.org/1999/xlink"><defs><path id="a" d="M4 4h120v120H4z"/></defs><clipPath id="b"><use xlink:href="#a"/></clipPath><g clip-path="url(#b)"><linearGradient id="c" x1="56.222" x2="56.222" y1="97.196" y2="136.01" gradientUnits="userSpaceOnUse"><stop stop-color="#E3E3E3" offset=".001"/><stop stop-color="#C9C9C9" offset="1"/></linearGradient><path d="M5.72 136.01v-15.26c0-16.24 25.36-23.53 50.5-23.56h.13c25.03 0 50.36 8.09 50.36 23.56v15.26H5.72z" fill="url(#c)"/><path d="M56.36 98.7c12.9 0 25.42 2.19 34.36 6 6.62 2.83 14.51 7.91 14.51 16.05v13.76h-98v-13.76c0-15.2 24.61-22.03 49-22.06l.13.01m0-3h-.13c-25.49.03-52 7.28-52 25.06v16.76h104v-16.76C108.22 104 81.96 95.7 56.36 95.7z" fill="#C3C5C7"/></g><g clip-path="url(#b)"><path d="M55.4 107.23c-4 0-7.26-3.22-7.26-7.17v-8.98H64.3v8.98c0 3.96-3.26 7.17-7.26 7.17H55.4z" fill="#E59600"/><path d="M63.3 92.08v7.98c0 3.4-2.81 6.17-6.26 6.17H55.4c-3.45 0-6.26-2.77-6.26-6.17v-7.98H63.3m2-2H47.14v9.98c0 4.51 3.7 8.17 8.26 8.17h1.65c4.56 0 8.26-3.66 8.26-8.17v-9.98h-.01z" fill="#D18100"/></g><g clip-path="url(#b)"><linearGradient id="d" x1="67.713" x2="64.189" y1="91.644" y2="106.33" gradientUnits="userSpaceOnUse"><stop stop-color="#0053AB" offset="0"/><stop stop-color="#0068BF" offset=".362"/><stop stop-color="#008EE3" offset="1"/></linearGradient><path d="M71.64 95.18c1.45 2.18 1.64 7.04-2.61 11.15-2.49 2.4-6.74 2.73-10.03 2.64-.67-.02-1.44-.16-1.76-.81-.36-.73.11-1.68.76-2.1s1.42-.51 2.14-.75c1.51-.51 3.9-3.31 4.46-7.45.36-2.67.13-3.89.19-4.74.05-.68 5.75.41 6.85 2.06z" fill="url(#d)"/><linearGradient id="e" x1="38.538" x2="59.214" y1="96.322" y2="110.28" gradientUnits="userSpaceOnUse"><stop stop-color="#008EE3" offset=".001"/><stop stop-color="#0053AB" offset="1"/></linearGradient><path d="M41.46 106.63c5.15 3.8 11.58 5.17 17.75 3.6.85-.22 1.86-.68 1.91-1.56.06-1.18-1.55-2.4-2.7-2.57-2.95-.44-6.33-1.94-8.23-4.25-1.68-2.05-2.43-3.61-2.37-7.37.02-1.47-6.69-.18-8.4.71-2.58 1.34-3.94 7.03 2.04 11.44z" fill="url(#e)"/><linearGradient id="f" x1="60.829" x2="60.829" y1="111.52" y2="126.32" gradientTransform="matrix(.812 -.00759 -.00759 .8119 11.441 20.34)" gradientUnits="userSpaceOnUse"><stop stop-color="#0053AB" offset="0"/><stop stop-color="#008EE3" offset="1"/></linearGradient><path d="M57 113.52c.19 4.44 2.5 5.89 1.14 9.45 2.23-1.42 3.77-3.81 4.41-6.39s.41-5.3-.37-7.8c-.23-.71-.52-1.44-1.07-1.93-2.75-2.4-4.18 5-4.11 6.67z" fill="url(#f)"/><linearGradient id="g" x1="62.947" x2="72.22" y1="107.5" y2="113.81" gradientUnits="userSpaceOnUse"><stop stop-color="#0053AB" offset="0"/><stop stop-color="#008EE3" offset="1"/></linearGradient><path d="M66.02 114.06c4.41 1.9 6.73.39 9.61 4.98.22-3.24-1.03-6.5-3.11-8.97-2.09-2.47-4.96-4.2-8.02-5.19-.87-.28-1.81-.51-2.71-.3-4.39 1.02.27 7.77 4.23 9.48z" fill="url(#g)"/><path d="M64.71 106.35c.37 1.81-1.66 3.77-4.53 4.36s-5.49-.4-5.86-2.21 1.66-3.77 4.53-4.36c2.87-.6 5.49.39 5.86 2.21z" fill="#1565C0"/></g><g clip-path="url(#b)"><path d="M28.9 72.26c-5.36 0-9.71-4.67-9.71-10.41s4.36-10.41 9.71-10.41h54.65c5.36 0 9.71 4.67 9.71 10.41s-4.36 10.41-9.71 10.41H28.9z" fill="#E59600"/><path d="M83.55 52.43c4.8 0 8.71 4.22 8.71 9.41s-3.91 9.41-8.71 9.41H28.9c-4.8 0-8.71-4.22-8.71-9.41s3.91-9.41 8.71-9.41h54.65m0-2H28.9c-5.89 0-10.71 5.14-10.71 11.41 0 6.28 4.82 11.41 10.71 11.41h54.65c5.89 0 10.71-5.14 10.71-11.41s-4.82-11.41-10.71-11.41z" fill="#D18100"/><linearGradient id="h" x1="56.222" x2="56.222" y1="94.591" y2="12.825" gradientUnits="userSpaceOnUse"><stop stop-color="#FFB300" offset="0"/><stop stop-color="#FFB809" offset=".102"/><stop stop-color="#FFC21A" offset=".371"/><stop stop-color="#FFC825" offset=".659"/><stop stop-color="#FFCA28" offset="1"/></linearGradient><path d="M56.22 95.27c-15.66 0-32.52-12.14-32.52-38.81 0-12.38 3.56-23.79 10.02-32.13 6.04-7.79 14.25-12.27 22.5-12.27s16.45 4.47 22.5 12.27c6.46 8.33 10.02 19.75 10.02 32.13 0 12.09-3.51 22.19-10.14 29.21-5.86 6.19-13.81 9.6-22.38 9.6z" fill="url(#h)"/><path d="M56.22 13.07c7.94 0 15.85 4.33 21.71 11.88 6.33 8.16 9.81 19.35 9.81 31.52 0 11.83-3.41 21.7-9.87 28.52-5.67 5.99-13.36 9.29-21.65 9.29s-15.98-3.3-21.65-9.29c-6.46-6.82-9.87-16.69-9.87-28.52 0-12.16 3.49-23.35 9.81-31.52 5.86-7.55 13.77-11.88 21.71-11.88m0-2c-17.4 0-33.52 18.61-33.52 45.39 0 26.64 16.61 39.81 33.52 39.81S89.74 83.1 89.74 56.46c0-26.78-16.11-45.39-33.52-45.39z" fill="#ED9E00"/><path d="M32.21 50.73s.13-.19.38-.51c.07-.08.12-.16.22-.26.11-.11.23-.22.37-.34s.28-.24.43-.38c.15-.13.31-.23.48-.35.17-.11.34-.24.53-.35.19-.1.4-.21.6-.32.21-.12.43-.21.66-.3s.47-.18.71-.27c.49-.14 1-.29 1.54-.36.53-.1 1.08-.11 1.63-.14.55.03 1.09.03 1.63.14.53.07 1.05.22 1.54.36.24.08.48.17.71.27.23.09.45.18.66.3.21.11.41.22.6.32.19.11.36.24.53.35.17.12.33.22.47.34s.27.24.4.35c.12.11.24.21.34.31s.18.21.26.29c.31.36.46.57.46.57.51.7.35 1.69-.36 2.19-.43.31-.96.37-1.43.21l-.29-.1s-.19-.07-.49-.2c-.08-.03-.15-.07-.25-.11-.1-.03-.19-.07-.3-.11-.21-.08-.44-.17-.7-.25-.13-.04-.26-.09-.4-.13-.14-.03-.28-.07-.43-.11l-.22-.06c-.08-.01-.15-.03-.23-.04-.16-.03-.31-.07-.47-.1-.33-.04-.66-.11-1-.12-.34-.04-.69-.03-1.03-.05-.35.02-.7.01-1.03.05-.34.02-.67.09-1 .12-.16.03-.31.07-.47.1-.08.01-.16.03-.23.04l-.22.06c-.15.04-.29.07-.43.11s-.27.09-.4.13-.25.08-.37.11c-.1.04-.2.07-.29.1l-.27.09c-.1.04-.2.1-.29.14-.36.18-.57.27-.57.27-.83.34-1.77-.05-2.11-.87-.24-.48-.16-1.06.13-1.49z" fill="#6D4C41"/><ellipse cx="39.79" cy="58.81" rx="4.93" ry="5.1" fill="#404040"/><path d="M78.27 53.13s-.22-.09-.57-.27c-.09-.04-.19-.1-.29-.14-.09-.02-.18-.06-.27-.09s-.19-.07-.29-.1c-.12-.04-.24-.07-.37-.11s-.26-.09-.4-.13-.28-.07-.43-.11l-.22-.06c-.08-.01-.15-.03-.23-.04-.16-.03-.31-.07-.47-.1-.33-.04-.66-.11-1-.12-.34-.04-.69-.03-1.03-.05-.35.02-.7.01-1.03.05-.34.02-.67.09-1 .12-.16.03-.31.07-.47.1-.08.01-.16.03-.23.04l-.22.06c-.15.04-.29.08-.43.11-.14.04-.27.09-.4.13-.26.07-.49.16-.7.25-.11.04-.2.08-.3.11-.09.04-.17.08-.25.11-.3.13-.49.2-.49.2l-.28.1c-.82.29-1.72-.15-2-.97-.17-.5-.08-1.03.21-1.44 0 0 .16-.22.46-.57.08-.09.16-.19.26-.29s.22-.2.34-.31.26-.23.4-.35.31-.22.47-.34c.17-.12.34-.24.53-.35.19-.1.4-.21.6-.32.21-.12.43-.21.66-.3s.46-.18.71-.27c.49-.14 1-.29 1.54-.36.53-.1 1.08-.11 1.63-.14.55.03 1.09.03 1.63.14.53.06 1.05.22 1.54.36.24.08.48.17.71.27.23.09.45.18.66.3.21.11.41.22.6.32.19.11.36.24.53.35.17.12.32.22.48.35.15.13.3.26.43.38s.26.23.37.34c.09.1.15.18.22.26.25.31.38.51.38.51.5.74.31 1.74-.43 2.25-.49.28-1.07.32-1.56.12z" fill="#6D4C41"/><ellipse cx="72.66" cy="58.81" rx="4.93" ry="5.1" fill="#404040"/><path d="M60.08 68.06c-.11-.04-.21-.07-.32-.08h-7.07c-.11.01-.22.04-.32.08-.64.26-.99.92-.69 1.63s1.71 2.69 4.55 2.69 4.25-1.99 4.55-2.69c.3-.71-.06-1.37-.7-1.63z" fill="#E59600"/><path d="M64.75 76.14c-3.19 1.89-13.63 1.89-16.81 0-1.83-1.09-3.7.58-2.94 2.24.75 1.63 6.45 5.42 11.37 5.42s10.55-3.79 11.3-5.42c.76-1.66-1.09-3.33-2.92-2.24z" fill="#795548"/><defs><path id="i" d="M56.22 4.03h-.04c-45.43.24-36.12 52.14-36.12 52.14s5.1 8.99 5.1 8.81c-.03-1.41.46-6.89.46-6.89l-2.68-2.92s3.89-25.44 6.79-24.91c4.45.81 26.54 2 26.57 2 7.83 0 14.92-.36 19.37-1.17 2.9-.53 9.64 1.7 10.68 4.45 1.33 3.54 3.13 19.71 3.13 19.71l-2.68 2.83s.49 5.51.46 6.89c0 .18 5.1-8.81 5.1-8.81s9.3-51.89-36.14-52.13z"/></defs><radialGradient id="j" cx="56.482" cy="4.274" r="48.85" gradientUnits="userSpaceOnUse"><stop stop-color="#6D4C41" offset="0"/><stop stop-color="#543930" offset="1"/></radialGradient><path d="M56.24 4.03h-.04c-45.43.24-36.12 52.14-36.12 52.14s5.1 8.99 5.1 8.81c-.16-7.25 2.74-20.09 4.8-25.55a6.075 6.075 0 0 1 6.79-3.83c4.45.81 11.55 1.81 19.37 1.81h.16c7.83 0 14.92-1 19.37-1.81 2.9-.53 5.76 1.08 6.79 3.83 2.06 5.47 4.96 18.3 4.8 25.55 0 .18 5.1-8.81 5.1-8.81s9.32-51.9-36.12-52.14z" fill="url(#j)"/><path d="M56.24 4.03h-.04c-45.43.24-36.12 52.14-36.12 52.14s5 8.81 5.1 8.81c-.03-1.48.07-3.2.26-5.03-.12-.29-2.46-4.75-2.48-4.79-.24-1.6-.93-6.98-.55-13.56.41-7.04 2.17-16.96 8.22-24.22C36.3 10.58 44.9 7.1 56.19 7.03h.04c11.32.06 19.93 3.54 25.6 10.35C92.63 30.34 90 51.7 89.49 55.16c-.02.04-2.46 4.58-2.49 4.65.2 1.89.31 3.65.27 5.17.09 0 5.1-8.81 5.1-8.81s9.31-51.9-36.13-52.14z" fill="#3F2720"/></g><g clip-path="url(#b)"><path d="M110.12 69.15l-3.01 10.63c1.6.36 2.97 1.08 4.23 1.6l3.34-10.88-4.56-1.35z" fill="#A7A9AC" stroke="#939598" stroke-miterlimit="10" stroke-width="2"/><path d="M87.86 147.7l2.85.84 20.63-67.16c-1.26-.51-2.62-1.23-4.23-1.6L87.86 147.7z" fill="#603913" stroke="#4F2F1C" stroke-miterlimit="10" stroke-width="2"/><path d="M114.29 62.68c-2.93 1.47-3.04 5.76-7.17 4.66.12 2.18 1.39 4.18 3.87 5 2.62.87 5.56-.4 7.01-2.94-1.2-2.45 1.58-8.04-3.71-6.72z" fill="#D1D3D4"/><path d="M113.15 52.53c.3.38-.51 2.47-.68 2.94-.35 1.02-.82 2-1.31 2.95-1 1.94-2.46 3.58-3.32 5.6-.47 1.1-.77 2.21-.71 3.32 4.12 1.1 4.23-3.19 7.17-4.66 5.29-1.32 2.51 4.27 3.72 6.73.26-.45.49-.93.64-1.46 2.15-7.41-3.17-12.42-5.51-15.42z" fill="#00AEEF"/><path d="M114.07 53.23a.514.514 0 0 0-.89.17c-.48 1.56-1.65 4.32-2.02 5.02-1 1.94-2.46 3.58-3.32 5.6-.47 1.1-.77 2.21-.71 3.32.12 2.18 1.39 4.18 3.87 5 2.62.87 5.56-.4 7.01-2.94.26-.45.49-.93.64-1.46 1.95-6.71-2.07-11.62-4.58-14.71z" fill="none" stroke="#2A9AC4" stroke-linecap="round" stroke-linejoin="round" stroke-miterlimit="10" stroke-width="2"/><linearGradient id="k" x1="100.12" x2="100.12" y1="91.877" y2="136.72" gradientUnits="userSpaceOnUse"><stop stop-color="#FFDBB5" offset=".002"/><stop stop-color="#A97C50" offset="1"/></linearGradient><path d="M96.71 138.77c-.62 0-1.18-.07-1.7-.21-.49-.14-.62-.29-.65-.33a.524.524 0 0 1-.1-.36c.01-.17.08-.39.18-.64.21-.51.57-1.13 1.12-1.93.34-.5.7-1.01 1.07-1.51.7-.96 1.81-2.82 1.46-4.48-.16-.76-.62-1.38-1.33-1.79-.52-.3-1.11-.45-1.75-.45-1.28 0-2.56.62-3.59 1.12-.2.1-.4.19-.59.28l-2.47 1.26-.37.2c-1.73.94-2.98 1.62-4.93 1.72-.27.01-.52.02-.74.02-.54 0-.9-.04-1.18-.15-.71-.25-1.29-.7-1.78-1.37-1.12-1.54-1.51-2.88-1.77-4.1-.39-1.89-.48-3.65-.28-5.71.41-4.2 1.31-7.74 2.85-11.15 3.86-8.56 9.2-14.29 15.84-17.03 3.33-1.37 6.57-2.07 9.63-2.07 6.9 0 12.71 3.69 15.54 9.86 3.04 6.63 3.05 17.49-6.05 28.08-1.88 2.18-3.14 3.48-4.5 4.62-3.81 3.19-8.12 5.31-12.16 5.96-.63.11-1.21.16-1.75.16z" fill="url(#k)"/><path d="M105.65 91.06c6.6 0 11.95 3.39 14.66 9.29 2.92 6.36 2.9 16.8-5.9 27.03-1.84 2.14-3.07 3.41-4.39 4.51-3.67 3.08-7.82 5.12-11.69 5.75-.61.1-1.14.15-1.62.15-.51 0-.96-.05-1.37-.16 0-.01.01-.02.01-.02.19-.44.52-1.02 1.02-1.76.34-.5.69-.99 1.05-1.49.79-1.09 2.06-3.23 1.63-5.25-.22-1.04-.84-1.88-1.8-2.43-.67-.39-1.42-.58-2.23-.58-1.5 0-2.89.67-4.01 1.21-.2.1-.39.19-.57.27-.03.01-.05.02-.07.04l-1.29.66-1.19.61-.35.19c-1.68.91-2.78 1.51-4.51 1.6-.26.01-.48.02-.69.02-.41 0-.69-.03-.86-.09-.52-.18-.94-.51-1.32-1.03-1.02-1.39-1.37-2.61-1.6-3.72-.38-1.81-.46-3.43-.27-5.42.4-4.09 1.28-7.54 2.77-10.84 3.76-8.32 8.92-13.88 15.33-16.53 3.21-1.34 6.33-2.01 9.26-2.01m0-1.95c-3.07 0-6.43.67-10.01 2.14-7.87 3.25-13.02 10.14-16.36 17.53-1.7 3.78-2.55 7.49-2.93 11.46-.19 1.93-.16 3.8.3 6.01.32 1.53.81 2.93 1.94 4.47.55.76 1.27 1.37 2.24 1.72.39.14.85.2 1.51.2.23 0 .5-.01.79-.02 2.31-.12 3.73-.97 5.69-2.03.81-.41 1.62-.83 2.43-1.24 1.11-.51 2.49-1.31 3.77-1.31.44 0 .86.09 1.26.32 1.83 1.06.48 3.59-.44 4.85-.37.51-.73 1.02-1.08 1.53-.48.71-.93 1.44-1.21 2.11-.13.32-.23.63-.25.93-.03.33.03.65.26.99.24.36.69.58 1.19.72.64.18 1.29.25 1.96.25.64 0 1.29-.07 1.93-.17 4.62-.75 9.04-3.18 12.63-6.18 1.49-1.25 2.81-2.63 4.61-4.73 15.33-17.82 7.28-39.55-10.23-39.55z" fill="#C7946B"/><path d="M99.06 99.04c-.34-1.76-1.85-3.31-3.67-3.43-2.08-.14-3.15 1.66-3.67 3.41s-.55 3.76.65 5.25c1.32 1.63 3.72 1.57 5.01-.04.47-.58.82-1.32 1.04-2.1.63-.86.85-1.99.64-3.09z" fill="#00AEEF"/><path d="M110.43 93.94c-1.73-1.12-4.33-.09-5.85.97-1.71 1.18-2.97 3.48-2.02 5.54.93 2.02 3.41 2.62 5.36 1.83 1.71-.7 3.65-2.57 3.6-4.54.49-1.37.35-2.87-1.09-3.8z" fill="#00C853"/><path d="M115.59 103.24c-1.69-.09-3.47.7-4.76 1.74-1.41 1.13-2.4 2.84-1.49 4.6.84 1.61 2.79 2.18 4.48 1.99 1.59-.17 3.13-1.09 4-2.43.32-.48.54-1.05.59-1.62.12-.31.22-.64.26-1 .23-1.89-1.31-3.19-3.08-3.28z" fill="#FFF200"/><path d="M111.98 116.56c-.81-1.25-2.38-1.71-3.78-1.98-1.62-.31-3.49-.16-4.75 1.03-1.48 1.39-1.19 3.58.46 4.67.34.22.74.41 1.17.57 1.48 1.12 3.4.8 5.02.19 1.25-.47 2.28-1.57 2.34-2.85 0-.02.01-.03.01-.05.09-.69-.11-1.21-.47-1.58z" fill="#EF4136"/></g></svg>