<svg viewBox="0 0 128 128" xmlns="http://www.w3.org/2000/svg" xmlns:xlink="http://www.w3.org/1999/xlink"><path d="M63.17 107.23c-4 0-7.26-3.22-7.26-7.17v-8.98h16.16v8.98c0 3.96-3.26 7.17-7.26 7.17h-1.64z" fill="#E59600"/><path d="M71.08 92.08v7.98c0 3.4-2.81 6.17-6.26 6.17h-1.65c-3.45 0-6.26-2.77-6.26-6.17v-7.98h14.17m2-2H54.92v9.98c0 4.51 3.7 8.17 8.26 8.17h1.65c4.56 0 8.26-3.66 8.26-8.17v-9.98h-.01z" fill="#D18100"/><path fill="none" d="M4 4h120v120H4z"/><path d="M71.57 122.18h-.24c-1.75 0-3.17-1.43-3.17-3.17 0-1.75 1.43-3.17 3.17-3.17h.24c1.75 0 3.17 1.43 3.17 3.17s-1.43 3.17-3.17 3.17z" fill="#616161"/><path d="M81.75 122.18h-.24c-1.75 0-3.17-1.43-3.17-3.17 0-1.75 1.43-3.17 3.17-3.17h.24c1.75 0 3.17 1.43 3.17 3.17.01 1.74-1.42 3.17-3.17 3.17z" fill="#F5F5F5"/><defs><path id="a" d="M4 4h120v120H4z"/></defs><clipPath id="b"><use xlink:href="#a"/></clipPath><g clip-path="url(#b)"><linearGradient id="c" x1="63.874" x2="63.874" y1="93.619" y2="124.48" gradientUnits="userSpaceOnUse"><stop stop-color="#E6E6E6" offset=".004"/><stop stop-color="#D9D9D9" offset=".333"/><stop stop-color="#B7B7B7" offset=".941"/><stop stop-color="#B3B3B3" offset="1"/></linearGradient><path d="M13.58 124.5v-.93c0-9.65 5.25-17.26 15.6-22.61 9.01-4.66 21.47-7.24 35.09-7.26h.13c13.26 0 25.57 2.74 34.64 7.7 6.9 3.78 15.13 10.69 15.13 22.17v.93H13.58z" fill="url(#c)"/><path d="M64.4 95.2c13.02 0 25.06 2.67 33.92 7.52 6.43 3.52 14.07 9.88 14.34 20.28H15.09c.21-8.77 5.18-15.74 14.78-20.71 8.8-4.55 21.02-7.07 34.4-7.09h.13m0-3h-.13c-25.81.04-52.19 9.31-52.19 31.37V126h103.58v-2.43c.01-20.8-25.33-31.37-51.26-31.37z" fill="#BDBDBD"/><path d="M85.13 127H44.69c-2.19 0-3.99-.8-3.99-2.99v-8.77c0-2.19 1.8-3.99 3.99-3.99h40.44c2.19 0 3.99 1.8 3.99 3.99v8.77c0 2.19-1.79 2.99-3.99 2.99z" fill="#A6A6A6"/><defs><path id="d" d="M12.08 123.57V126h103.58v-2.43c0-20.83-25.42-31.41-51.4-31.37-25.81.03-52.18 9.31-52.18 31.37z"/></defs><path d="M109.67 127.41c2.17.02 4.34.14 6.5.29v-4.11c0-5.12-2.25-8.34-3.4-11.25l-8.06 2.81 4.59 12.29c.12-.02.24-.03.37-.03zM19.48 127.32c.89-2.04 1.32-4.24 1.32-6.55 0-4.02-1.62-7.73-4.44-10.77-2.73 3.6-4.2 7.67-4.2 12.22v4.76c2.44.04 4.86.22 7.32.34z" fill="#757575"/></g><linearGradient id="e" x1="64" x2="64" y1="92.563" y2="108.3" gradientUnits="userSpaceOnUse"><stop stop-color="#E6E6E6" offset=".004"/><stop stop-color="#D9D9D9" offset=".333"/><stop stop-color="#B7B7B7" offset=".941"/><stop stop-color="#B3B3B3" offset="1"/></linearGradient><path d="M64 107.87c-1.43 0-2.88-.04-4.33-.11-1.45-.08-2.92-.19-4.37-.34-1.5-.16-3-.36-4.47-.59-1.54-.25-3.09-.54-4.62-.87a85.56 85.56 0 0 1-9.82-2.78 77.44 77.44 0 0 1-5.26-2.05c-1.55-.67-2.9-1.67-3.9-2.9-.92-1.13-1.49-2.4-1.66-3.66-.15-1.18.07-2.33.66-3.32l.44-.74c.58-.98 1.45-1.77 2.59-2.34 1.09-.55 2.34-.85 3.64-.89h.25c1.24 0 2.45.25 3.59.74 1.66.71 3.37 1.37 5.07 1.94 1.57.53 3.19 1.01 4.8 1.43a68.473 68.473 0 0 0 8.94 1.7c1.4.17 2.83.3 4.25.39 1.39.08 2.8.13 4.18.13 1.39 0 2.79-.04 4.19-.13 1.42-.09 2.85-.22 4.25-.39 1.46-.18 2.93-.41 4.38-.68 1.54-.29 3.07-.63 4.56-1.02 1.61-.42 3.22-.9 4.8-1.43 1.7-.58 3.41-1.23 5.07-1.94a9.05 9.05 0 0 1 3.59-.74h.25c1.3.04 2.55.34 3.64.89 1.14.57 2.01 1.36 2.59 2.34l.44.75c.58.99.81 2.14.66 3.32-.16 1.26-.74 2.52-1.66 3.66-1 1.23-2.35 2.23-3.9 2.9a81.764 81.764 0 0 1-10.28 3.63c-1.57.44-3.19.85-4.8 1.2-1.52.33-3.07.62-4.61.87-1.47.24-2.97.43-4.47.59a81.9 81.9 0 0 1-4.37.34c-1.43.06-2.88.1-4.31.1z" fill="url(#e)"/><path d="M33.16 88.77c1.04 0 2.05.21 3 .62a70.54 70.54 0 0 0 10.08 3.44c1.53.4 3.1.75 4.66 1.04 1.48.28 2.98.51 4.47.69a70.669 70.669 0 0 0 8.62.53 70.669 70.669 0 0 0 8.62-.53c1.49-.18 3-.42 4.47-.69 1.56-.29 3.13-.64 4.66-1.04 1.64-.43 3.29-.92 4.9-1.46 1.74-.59 3.49-1.26 5.18-1.98.95-.41 1.96-.62 3-.62h.21c1.08.03 2.12.28 3.01.73.88.44 1.54 1.04 1.97 1.76l.26.44.18.3c.42.71.57 1.5.46 2.36-.13.97-.6 2-1.33 2.9-.85 1.04-2 1.9-3.33 2.47-1.69.73-3.43 1.4-5.17 2.01-1.62.57-3.28 1.09-4.93 1.55-1.55.44-3.14.83-4.71 1.17-1.5.33-3.02.61-4.53.86-1.45.23-2.93.43-4.39.58-1.42.15-2.87.26-4.29.34-1.41.07-2.84.11-4.25.11s-2.84-.04-4.25-.11c-1.43-.07-2.87-.19-4.29-.34a81.088 81.088 0 0 1-8.92-1.44 85.2 85.2 0 0 1-4.71-1.17c-1.65-.46-3.31-.99-4.93-1.55-1.74-.61-3.48-1.29-5.17-2.01-1.33-.57-2.48-1.42-3.33-2.47-.74-.91-1.21-1.94-1.33-2.9-.11-.86.04-1.66.47-2.38l.43-.73c.43-.73 1.09-1.32 1.97-1.76.89-.45 1.93-.7 3.01-.73.09.01.16.01.23.01m0-3h-.29c-1.5.04-2.97.39-4.27 1.05-1.31.66-2.44 1.62-3.21 2.91-.18.3-.26.45-.44.74-.77 1.29-1.05 2.77-.86 4.28.2 1.51.87 3.05 1.98 4.41s2.64 2.55 4.48 3.33c1.83.78 3.62 1.47 5.36 2.09s3.44 1.14 5.11 1.61a84.819 84.819 0 0 0 9.58 2.11 85.82 85.82 0 0 0 9 .95c1.47.08 2.94.11 4.4.11s2.93-.04 4.4-.11 2.95-.19 4.45-.35 3.01-.36 4.55-.6 3.1-.54 4.7-.89c1.59-.35 3.22-.75 4.88-1.22s3.36-1 5.11-1.61 3.53-1.3 5.36-2.09 3.37-1.97 4.48-3.33 1.79-2.9 1.98-4.41c.2-1.51-.09-2.98-.86-4.28-.18-.3-.26-.45-.44-.74-.77-1.29-1.9-2.26-3.21-2.91s-2.78-1.01-4.27-1.05h-.29c-1.4 0-2.82.27-4.19.86a67.674 67.674 0 0 1-9.65 3.3c-1.52.39-3.01.72-4.46 1-1.45.27-2.88.49-4.28.67a66.95 66.95 0 0 1-8.25.5c-1.36 0-2.72-.04-4.09-.12s-2.75-.21-4.16-.38-2.83-.39-4.28-.67c-1.45-.27-2.94-.6-4.46-1s-3.09-.86-4.69-1.4-3.26-1.17-4.96-1.9c-1.39-.59-2.81-.86-4.21-.86z" fill="#BDBDBD"/><ellipse cx="64" cy="52.94" rx="49.17" ry="48.69" fill="#212121"/><path d="M38.82 74.06c-4.89 0-8.87-4.27-8.87-9.52s3.98-9.52 8.87-9.52h50.36c4.89 0 8.87 4.27 8.87 9.52s-3.98 9.52-8.87 9.52H38.82z" fill="#C48E6A"/><path d="M89.18 56.03c4.34 0 7.87 3.82 7.87 8.52s-3.53 8.52-7.87 8.52H38.82c-4.34 0-7.87-3.82-7.87-8.52s3.53-8.52 7.87-8.52h50.36m0-2H38.82c-5.43 0-9.87 4.73-9.87 10.52s4.44 10.52 9.87 10.52h50.36c5.43 0 9.87-4.73 9.87-10.52s-4.44-10.52-9.87-10.52z" fill="#B07853"/><linearGradient id="f" x1="64" x2="64" y1="94.646" y2="19.453" gradientUnits="userSpaceOnUse"><stop stop-color="#CCA47A" offset="0"/><stop stop-color="#D6B088" offset=".257"/><stop stop-color="#DEB892" offset=".589"/><stop stop-color="#E0BB95" offset="1"/></linearGradient><path d="M64 95.27c-7.88 0-15.18-3.13-20.56-8.82-6.1-6.45-9.33-15.74-9.33-26.86 0-11.39 3.27-21.89 9.22-29.56C48.89 22.86 56.42 18.76 64 18.76s15.11 4.11 20.67 11.27c5.95 7.67 9.22 18.16 9.22 29.56 0 11.12-3.22 20.41-9.33 26.86-5.38 5.69-12.68 8.82-20.56 8.82z" fill="url(#f)"/><path d="M64 19.76c7.27 0 14.51 3.97 19.88 10.89 5.81 7.49 9.01 17.77 9.01 28.95 0 10.86-3.13 19.91-9.05 26.17-5.2 5.48-12.24 8.5-19.84 8.5s-14.64-3.02-19.84-8.51c-5.92-6.26-9.05-15.31-9.05-26.17 0-11.17 3.2-21.45 9.01-28.95C49.49 23.72 56.73 19.76 64 19.76m0-2c-16.04 0-30.89 17.15-30.89 41.83 0 24.55 15.3 36.68 30.89 36.68s30.89-12.14 30.89-36.68c0-24.68-14.85-41.83-30.89-41.83z" fill="#BA8F63"/><path d="M41.87 54.3s.12-.18.35-.47c.06-.07.11-.15.2-.24.1-.1.21-.2.34-.31.12-.11.26-.22.4-.35.14-.12.28-.21.44-.32s.32-.22.49-.33c.18-.1.36-.19.56-.3.19-.11.39-.19.61-.27.21-.08.43-.17.65-.24.45-.13.92-.27 1.42-.33.49-.1.99-.1 1.5-.13.5.03 1.01.03 1.5.13.49.06.96.2 1.42.33.22.08.44.16.65.24s.42.17.61.27.38.2.55.3.34.22.49.33.3.21.44.32c.13.11.25.22.36.32s.22.19.31.29l.24.27c.28.33.43.53.43.53.47.65.32 1.55-.33 2.02-.4.28-.89.34-1.31.2l-.27-.09s-.18-.06-.45-.19c-.07-.03-.14-.07-.23-.1s-.18-.07-.27-.1c-.19-.08-.4-.16-.65-.23l-.36-.12c-.13-.03-.26-.07-.4-.1l-.2-.06c-.07-.01-.14-.03-.21-.04-.14-.02-.29-.06-.44-.09-.3-.03-.6-.1-.92-.11-.31-.04-.63-.03-.95-.05-.32.02-.64.01-.95.05-.32.01-.62.08-.92.11-.15.03-.29.07-.43.09-.07.01-.14.03-.21.04-.07.02-.14.04-.2.06-.14.03-.27.07-.4.1s-.24.08-.36.12-.23.07-.34.11l-.27.09c-.09.03-.17.06-.25.08-.09.04-.19.09-.27.13-.33.17-.53.25-.53.25-.76.32-1.63-.04-1.95-.8a1.44 1.44 0 0 1 .11-1.41z" fill="#AB872F"/><ellipse cx="48.85" cy="61.75" rx="4.54" ry="4.7" fill="#5D4037"/><path d="M84.32 56.52s-.2-.08-.53-.25c-.08-.04-.18-.1-.27-.13-.08-.02-.16-.05-.25-.08a4.26 4.26 0 0 0-.27-.09c-.11-.03-.22-.07-.34-.11l-.36-.12c-.13-.03-.26-.07-.4-.1l-.2-.06c-.07-.01-.14-.03-.21-.04-.14-.02-.29-.06-.43-.09-.3-.03-.6-.1-.92-.11-.31-.04-.63-.03-.95-.05-.32.02-.64.01-.95.05-.32.01-.62.08-.92.11-.15.03-.29.07-.43.09-.07.01-.14.03-.21.04-.07.02-.14.04-.2.06-.13.04-.27.07-.4.1s-.24.08-.36.12c-.24.07-.46.15-.65.23-.1.04-.19.07-.27.1s-.16.07-.23.1c-.28.12-.45.19-.45.19l-.26.09a1.447 1.447 0 0 1-1.65-2.21s.14-.2.43-.53c.07-.08.15-.18.24-.27s.2-.18.31-.29c.11-.1.24-.21.36-.32.13-.11.28-.21.44-.32s.32-.22.49-.33c.18-.1.36-.19.55-.3s.39-.19.61-.27c.21-.08.43-.17.65-.24.45-.13.92-.27 1.42-.33.49-.1.99-.1 1.5-.13.5.03 1.01.03 1.5.13.49.06.96.2 1.42.33.22.08.44.16.65.24s.42.17.61.27.38.2.56.3c.17.1.34.22.49.33s.3.2.44.32.27.24.4.35c.12.11.24.21.34.31.09.09.14.17.2.24.23.29.35.47.35.47.46.68.29 1.61-.39 2.07-.48.27-1.01.31-1.46.13z" fill="#AB872F"/><ellipse cx="79.15" cy="61.75" rx="4.54" ry="4.7" fill="#5D4037"/><path d="M67.56 70.27c-.1-.04-.2-.06-.3-.08h-6.52c-.1.01-.2.04-.3.08-.59.24-.92.85-.64 1.5s1.58 2.48 4.19 2.48c2.62 0 3.91-1.83 4.19-2.48.29-.65-.03-1.26-.62-1.5z" fill="#C48E6A"/><path d="M71.76 77.72c-2.94 1.75-12.56 1.75-15.49 0-1.69-1-3.41.53-2.71 2.06.69 1.51 5.94 5 10.48 5s9.72-3.49 10.41-5c.69-1.53-1.01-3.06-2.69-2.06z" fill="#6D4C41"/><defs><path id="g" d="M64 11.27h-.04c-41.86.23-33.29 48.05-33.29 48.05s4.7 8.28 4.7 8.12c-.03-1.3.42-6.35.42-6.35l-2.47-2.69s3.58-23.44 6.25-22.95c4.1.74 24.46 1.84 24.48 1.84 7.21 0 13.75-.33 17.85-1.08 2.67-.48 8.89 1.56 9.84 4.1 1.23 3.26 2.88 18.17 2.88 18.17l-2.47 2.61s.45 5.07.42 6.35c0 .17 4.7-8.12 4.7-8.12S105.87 11.5 64 11.27z"/></defs><radialGradient id="h" cx="64.239" cy="11.495" r="45.015" gradientUnits="userSpaceOnUse"><stop stop-color="#BFA055" offset="0"/><stop stop-color="#AB872F" offset="1"/></radialGradient><path d="M64.02 11.27h-.04c-41.87.23-33.29 48.05-33.29 48.05s4.7 8.28 4.7 8.12c-.15-6.68 2.53-18.51 4.42-23.55a5.6 5.6 0 0 1 6.26-3.53c4.1.74 10.64 1.67 17.85 1.67h.16c7.21 0 13.75-.92 17.85-1.67 2.67-.48 5.31.99 6.26 3.53 1.89 5.04 4.57 16.87 4.42 23.55 0 .17 4.7-8.12 4.7-8.12s8.58-47.82-33.29-48.05z" fill="url(#h)"/><path d="M64.02 11.27h-.04c-41.87.23-33.29 48.05-33.29 48.05s4.61 8.12 4.7 8.12c-.03-1.36.06-2.95.24-4.64-.11-.27-2.26-4.37-2.28-4.41-.22-1.47-.86-6.44-.51-12.5.38-6.49 2-15.63 7.57-22.32 5.22-6.27 13.15-9.47 23.56-9.53H64c10.43.06 18.36 3.26 23.59 9.53 9.96 11.95 7.54 31.63 7.07 34.82-.02.04-2.26 4.22-2.3 4.29.18 1.74.28 3.36.25 4.76.09 0 4.7-8.12 4.7-8.12s8.58-47.82-33.29-48.05z" fill="#8F7635"/><radialGradient id="i" cx="64.833" cy="7.5" r="26" gradientUnits="userSpaceOnUse"><stop stop-color="#F2F2F2" offset=".005"/><stop stop-color="#E5E5E5" offset=".422"/><stop stop-color="#ccc" offset="1"/></radialGradient><path d="M64.07 22.61c21.76 0 40.51 12.81 49.16 31.29 0-.24.02-.48.02-.73C113.24 26.02 91.23 4 64.07 4S14.89 26.02 14.89 53.18c0 .24.01.49.02.73 8.65-18.49 27.4-31.3 49.16-31.3z" fill="url(#i)"/><path d="M64.17 7.25c25.46 0 46.17 20.5 46.17 45.69s-20.71 45.7-46.17 45.7c-12.55 0-24.3-4.79-33.08-13.49-8.73-8.65-13.53-20.16-13.53-32.4 0-25.09 20.91-45.5 46.61-45.5m0-3c-27.16 0-49.61 21.6-49.61 48.49s21.92 48.9 49.61 48.9c27.16 0 49.17-21.8 49.17-48.69 0-26.9-22.01-48.7-49.17-48.7z" fill="#BDBDBD"/></svg>