<svg viewBox="0 0 128 128" xmlns="http://www.w3.org/2000/svg" xmlns:xlink="http://www.w3.org/1999/xlink"><defs><path id="a" d="M4 4h120v120H4z"/></defs><clipPath id="b"><use xlink:href="#a"/></clipPath><g clip-path="url(#b)"><radialGradient id="c" cx="-16.6" cy="-142.3" r="39.3" gradientTransform="matrix(.826 0 0 .826 107.2 112.4)" gradientUnits="userSpaceOnUse"><stop stop-color="#6D4C41" offset="0"/><stop stop-color="#543930" offset="1"/></radialGradient><path d="M93.8 4c-27.1 0-27 25-27 25.4 0 16.2 1.3 39.2 7.8 48.2 2.6 3.5 7.6 3.7 7.6 3.7h22.4s5-.2 7.5-3.7c6.5-9 7.8-32 7.8-48.2 0-.4 1-25.4-26.1-25.4z" fill="url(#c)"/><path d="M65.5 88.4c0-10.6 7.4-18.2 19.8-20.3a51.2 51.2 0 0 1 21.5.8c12.3 2.9 19.7 10.2 19.7 19.5V127h-61V88.4z" fill="#651FFF"/><path d="M94 68.8c4.2 0 8.3.5 12.4 1.5 4.4 1 18.6 5.4 18.6 18.1v37.1H67V88.4c0-9.8 7-16.8 18.6-18.8 2.7-.5 5.6-.8 8.5-.8m0-3c-3 0-6 .3-9 .8-12 2-21.1 9.5-21.1 21.8v40.1h64V88.4c0-11.4-9.6-18.3-20.9-21-4.1-1-8.5-1.6-13-1.6z" fill="#540EED"/><path d="M92.8 71.7c-2.4 0-4.4-2-4.4-4.4v-5.6h10v5.6c0 2.5-2 4.4-4.5 4.4h-1z" fill="#E59600"/><path d="M97.4 62.7v4.6c0 1.9-1.6 3.4-3.5 3.4h-1a3.4 3.4 0 0 1-3.5-3.4v-4.6h8m2-2h-12v6.6c0 3 2.4 5.4 5.4 5.4H94c3 0 5.5-2.4 5.5-5.4v-6.6z" fill="#D18100"/><linearGradient id="d" x1="93.4" x2="93.4" y1="63.5" y2="13.4" gradientUnits="userSpaceOnUse"><stop stop-color="#FFB300" offset="0"/><stop stop-color="#FFB809" offset=".1"/><stop stop-color="#FFC21A" offset=".4"/><stop stop-color="#FFC825" offset=".7"/><stop stop-color="#FFCA28" offset="1"/></linearGradient><path d="M93.4 63.8a15 15 0 0 1-4.9-.9 25.2 25.2 0 0 1-16-24.7c0-18.7 11.3-25.4 20.9-25.4s20.9 6.7 20.9 25.4c0 14-8.7 22.1-16 24.7-1.8.6-3.5 1-5 1z" fill="url(#d)"/><path d="M93.4 13.8c9.1 0 19.9 6.4 19.9 24.4 0 13.6-8.3 21.3-15.4 23.8a14 14 0 0 1-4.5.8c-1.4 0-3-.3-4.6-.8a24.2 24.2 0 0 1-15.3-23.8c0-18 10.7-24.3 19.9-24.3m0-2c-11.4 0-21.9 8.4-21.9 26.3 0 14.4 9 23 16.7 25.7 1.8.6 3.6 1 5.2 1a16 16 0 0 0 5.2-1 26.3 26.3 0 0 0 16.7-25.7c0-18-10.6-26.3-22-26.3z" fill="#ED9E00"/><radialGradient id="e" cx="-27.8" cy="-134.9" r="31.8" gradientTransform="matrix(.796 0 0 .796 115.5 108.4)" gradientUnits="userSpaceOnUse"><stop stop-color="#6D4C41" offset="0"/><stop stop-color="#543930" offset="1"/></radialGradient><path d="M118.4 29.4S119.1 6 93.4 6s-25 23.5-25 23.5.2 30 2 34c2 3.9 4.8 3.7 4.8 3.7S74 49.6 73.7 41.3c0-1.9-.6-9 3.4-10 14.8-3.2 23.2-11 23.2-11 2.1 4.7 9 9.3 11.4 11 2 1.5 1.7 7.5 1.7 10l-2 25.8s3 .2 5-3.7c2-4 2-34 2-34z" fill="url(#e)"/><path d="M95.9 46.2h-5c-.5.2-.7.6-.5 1s1.1 1.8 3 1.8 2.8-1.3 3-1.7 0-1-.5-1.1z" fill="#E59600"/><ellipse cx="82.7" cy="40.1" rx="3.2" ry="3.3" fill="#404040"/><ellipse cx="104.1" cy="40.1" rx="3.2" ry="3.3" fill="#404040"/><path d="M87.4 34.1c-.6-.8-2-2-4.7-2s-4.2 1.2-4.8 2c-.3.4-.2.8 0 1 .1.3.6.5 1.2.3s1.7-.7 3.6-.7c1.8 0 3 .5 3.5.7s1 0 1.3-.2c.1-.3.2-.7 0-1zm21.5 0c-.6-.8-2-2-4.8-2s-4.1 1.2-4.8 2c-.2.4-.2.8 0 1 .2.3.7.5 1.3.3s1.7-.7 3.5-.7c1.9 0 3 .5 3.6.7s1 0 1.2-.2c.2-.3.3-.7 0-1z" fill="#6D4C41"/><path d="M98.9 51.5c-2.1 1.3-9 1.3-11 0-1.2-.7-2.4.4-2 1.5.6 1 4.3 3.5 7.5 3.5s6.9-2.4 7.4-3.5c.5-1-.7-2.2-2-1.5z" fill="#795548"/><path d="M116.9 29.3c0-1 0-10.1-6-16.3-4-4-9.7-6-17.1-6-7.5 0-13.4 2-17.4 6.1a25.1 25.1 0 0 0-6.5 16.3c0 18.5 1.6 32.7 4.5 41a31 31 0 0 1 10.7-3.8 52.6 52.6 0 0 1 27.7 2.6c2.6-8.5 4-22.1 4-39.8z" fill="none"/><path d="M69.9 29.4c0-.4 0-9.9 6.4-16.3 4.1-4 10-6.1 17.5-6.1 7.4 0 13.1 2 17 6 6.1 6.2 6 15.3 6 16.3v.1c0 17.7-1.4 31.3-4 39.8 1 .3 1.8.8 2.7 1.2 3.6-11 4.4-28.1 4.4-41 0-.4 1-25.4-26.1-25.4s-27 25-27 25.4c0 13.6 1 31.9 5 42.7l2.6-1.7a137 137 0 0 1-4.5-41z" fill="#3F2720"/></g><g clip-path="url(#b)"><defs><path id="f" d="M0 0h128v128H0z"/></defs><clipPath id="g"><use xlink:href="#f"/></clipPath><g clip-path="url(#g)"><path d="M1.5 127V88.4c0-9.3 7.4-16.6 19.7-19.5a53 53 0 0 1 21-.8c9.8 1.7 20.3 8 20.3 20.3v38.7h-61z" fill="#00BFA5"/><path d="M33.6 68.8c2.8 0 5.6.3 8.4.8 5.6 1 10.3 3.1 13.7 6.2A17 17 0 0 1 61 88.4v37.1H3V88.4c0-12.7 14.2-17 18.6-18 4.1-1 8-1.6 12-1.6m0-3c-4.4 0-8.6.6-12.7 1.6C9.6 70.1 0 77 0 88.4v40.1h64V88.4c0-12.3-9.6-19.7-21.5-21.8-3-.5-6-.8-8.9-.8z" fill="#00A68F"/></g><g clip-path="url(#g)"><path d="M33.5 73.1a6 6 0 0 1-6-6v-5.4h12v5.4a6 6 0 0 1-6 6z" fill="#E59600"/><path d="M38.5 62.7v4.4a5 5 0 0 1-10 0v-4.4h10m2-2h-14v6.4a7 7 0 1 0 14 0v-6.4z" fill="#D18100"/></g><g clip-path="url(#g)"><linearGradient id="h" x1="6" x2="6" y1="97.8" y2="127.8" gradientUnits="userSpaceOnUse"><stop stop-color="#FFB300" offset="0"/><stop stop-color="#FFCA28" offset=".4"/></linearGradient><path fill="url(#h)" d="M1 97.8h10v30H1z"/><path d="M10 98.8v28H2v-28h8m2-2H0v32h12v-32z" fill="#EDA600"/></g><g clip-path="url(#g)"><linearGradient id="i" x1="122" x2="122" y1="97" y2="127" gradientUnits="userSpaceOnUse"><stop stop-color="#FFB300" offset="0"/><stop stop-color="#FFCA28" offset=".4"/></linearGradient><path fill="url(#i)" d="M117 97h10v30h-10z"/><path d="M126 98v28h-8V98h8m2-2h-12v32h12V96z" fill="#EDA600"/></g><radialGradient id="j" cx="64" cy="97.2" r="29.2" gradientTransform="matrix(1 0 0 1.4568 0 -44.4)" gradientUnits="userSpaceOnUse"><stop stop-color="#212121" offset=".4"/><stop stop-color="#616161" stop-opacity=".1" offset="1"/></radialGradient><path d="M85.1 66.6c-11.9 2-21 9.5-21 21.8 0-12.3-9.7-19.7-21.6-21.8-1.9-.3-3.5-.5-5.5-.6v62.5h54V66c-2 0-4 .3-5.9.6z" clip-path="url(#g)" fill="url(#j)" opacity=".4"/><g clip-path="url(#g)"><path d="M43.2 138.1c-.1-2.6 0-10.8 0-16.1 0-9.3 12.5-12.2 16-12.2h9.3c3.5 0 16 3 16 12.2v16H43.2z" fill="#B2EBF2"/><path d="M68.5 110.8c3.3 0 15 2.7 15 11.2v15H44.2v-15c0-8.5 11.7-11.2 15-11.2h9.3m0-2h-9.3c-4.4 0-17 3.3-17 13.2 0 0-.2 17.1 0 17.1h43.2c.3 0 0-16.5 0-16.8v-.3c0-9.9-12.5-13.2-16.9-13.2z" fill="#84BDC4"/><path d="M63.8 115.8a4.2 4.2 0 0 1-4.1-4.2v-3H68v3c0 2.3-1.8 4.2-4.2 4.2z" fill="#E59600"/><path d="M67.5 109v2.6a3.7 3.7 0 0 1-7.3 0V109h7.3m1-1h-9.4v3.6a4.7 4.7 0 0 0 9.4 0V108z" fill="#D18100"/><defs><path id="k" d="M40.5 64.2h46.9v46.9H40.5z"/></defs><clipPath id="l"><use xlink:href="#k"/></clipPath><g clip-path="url(#l)"><path d="M49.4 99.8c-3 0-5.3-2.2-5.3-5s2.3-5 5.2-5h29.5c3 0 5.3 2.2 5.3 5s-2.4 5-5.3 5H49.4z" fill="#E59600"/><path d="M78.8 90.2c2.7 0 4.8 2 4.8 4.6 0 2.5-2.1 4.5-4.8 4.5H49.4c-2.7 0-4.8-2-4.8-4.5 0-2.6 2.1-4.6 4.7-4.6h29.5m0-1H49.4c-3.2 0-5.8 2.5-5.8 5.6s2.6 5.5 5.7 5.5h29.5c3.2 0 5.8-2.5 5.8-5.5s-2.6-5.6-5.8-5.6z" fill="#CC8600"/><linearGradient id="m" x1="64" x2="64" y1="110.6" y2="66.4" gradientUnits="userSpaceOnUse"><stop stop-color="#FFB300" offset="0"/><stop stop-color="#FFB809" offset=".1"/><stop stop-color="#FFC21A" offset=".4"/><stop stop-color="#FFC825" offset=".7"/><stop stop-color="#FFCA28" offset="1"/></linearGradient><path d="M64 110.6c-8.4 0-17.5-6.4-17.5-20.4 0-11.3 6.7-23.4 17.5-23.4s17.4 12.1 17.4 23.4c0 14-9 20.4-17.4 20.4z" fill="url(#m)"/><path d="M64 67.3c4.3 0 8.5 2.3 11.7 6.2a26.8 26.8 0 0 1 5.2 16.7 21 21 0 0 1-5.3 15 16.1 16.1 0 0 1-23.3 0 21.1 21.1 0 0 1-5.3-15c0-6.5 1.9-12.4 5.3-16.7A15 15 0 0 1 64 67.3m0-1c-9.3 0-18 9.8-18 23.9 0 14 9 21 18 21s18-7 18-21c0-14.1-8.7-24-18-24z" fill="#EDA600"/><path d="M66 96.7h-4c-.3.1-.5.5-.3.9.1.3.8 1.3 2.3 1.3s2.2-1 2.3-1.3c.2-.4 0-.7-.3-.9z" fill="#E59600"/><path d="M51.8 89.4l.2-.3.3-.2.2-.2.2-.2.3-.2.3-.2.4-.1.3-.2.8-.1a5.7 5.7 0 0 1 1.7 0l.8.1.3.2.4.1.3.2.3.2.2.2.2.1.2.2.1.1.2.4c.3.3.2.8-.1 1-.3.2-.5.3-.8.2h-.1l-.3-.2H58l-.4-.2h-.2l-.2-.1h-.4l-.2-.1-.5-.1h-1.6l-.2.1h-.2l-.3.1h-.2l-.2.2h-.2l-.2.1-.3.2c-.4.1-.9 0-1-.5a.7.7 0 0 1 0-.8zm23.4 1.2l-.3-.1h-.1l-.2-.1h-.1l-.2-.1h-.2l-.2-.1h-.1l-.1-.1h-.3L73 90h-1.6l-.2.1H71l-.3.1c0 .1 0 0-.2 0a3 3 0 0 0-.3.2H70v.1l-.3.1h-.2a.8.8 0 0 1-.9-1.2l.2-.3.2-.1.1-.2.2-.1c0-.2.2-.2.3-.2l.2-.2.4-.2.3-.1.4-.2.7-.2a5.7 5.7 0 0 1 1.7 0l.8.2.4.2.3.1.3.2.3.2.2.1.3.2.1.2.2.1c0 .2.2.3.2.3.2.4.1.9-.3 1.1-.2.2-.5.2-.8.1z" fill="#6D4C41"/><g fill="#404040"><ellipse cx="55.5" cy="94.1" rx="2.5" ry="2.6"/><ellipse cx="72.5" cy="94.1" rx="2.5" ry="2.6"/></g><radialGradient id="n" cx="72.5" cy="66.2" r="24" gradientTransform="translate(-12 -2.9) scale(1.0432)" gradientUnits="userSpaceOnUse"><stop stop-color="#6D4C41" offset="0"/><stop stop-color="#543930" offset=".9"/></radialGradient><path d="M79.6 69.8a14.4 14.4 0 0 0-4.7-3.5A25.3 25.3 0 0 0 64 64.2c-19.8 0-21.2 16.2-20.4 23.4.7 6.3 4 7.8 4 7.8s-.7-5.5.4-9.5c.8-3.1 2.8-5.5 2.8-5.5s3.6 3.2 10.2 5.2c3.3 1 7.4.5 7.4.5L66.2 82s3.8 2.8 6.1 3.3c3 .7 5.3.4 5.3.4l-1.2-4.3s2 1.2 3.4 4.7.6 9.3.6 9.3 3.4-1.5 4-7.8c.7-8-.3-12.7-4.8-17.8z" fill="url(#n)"/><defs><path id="o" d="M79.6 69.8a12.3 12.3 0 0 0-4.7-3.5A25.3 25.3 0 0 0 64 64.2c-19.8 0-21.2 16.2-20.4 23.4.7 6.3 4 7.8 4 7.8V94l-1.4-3.7a15 15 0 0 1-.8-7.1l.5-3.3 18-11.6 18 11.6.4 3.2a14 14 0 0 1-.9 7.6l-1 2.6-.1 2.2s3.4-1.5 4-7.8c.7-8-.3-12.7-4.8-17.8z"/></defs><clipPath id="p"><use xlink:href="#o"/></clipPath><g clip-path="url(#p)"><path d="M64.2 66.2c3.6 0 7 .6 9.8 2h.3v.1c.6.3 2.4 1.3 3.8 2.9 4 4.4 5 8.3 4.3 16.2v.3c-.2-.8-.4-1.7-.8-2.4a12.6 12.6 0 0 0-4-5.6l-4.4-2.9 1.3 5 .5 1.9c-.6 0-1.4-.2-2.2-.4-1.4-.3-4-2-5.4-3l-7.5-5.5 4.6 8.2.6 1.2c-1.3 0-2.4-.3-3.4-.5a28.4 28.4 0 0 1-9.5-4.8l-1.5-1.3-1.3 1.5c-.1.2-2.3 2.8-3.2 6.3l-.4 2.2v-.3c-.3-2.3-.8-10.4 4-15.9 3.2-3.5 8-5.2 14.4-5.2m0-2c-20 0-21.3 16.2-20.5 23.4.7 6.2 4 7.8 4 7.8s-.7-5.5.4-9.5c.8-3.1 2.8-5.5 2.8-5.5s3.6 3.1 10.2 5.2c1.7.5 3.5.6 5 .6l2.4-.1-2.3-4.1s3.8 2.8 6.1 3.3c1.7.4 3 .4 4 .4h1.3l-1.1-4.4s1.9 1.3 3.3 4.8.6 9.3.6 9.3 3.4-1.5 4-7.8c.7-8-.3-12.7-4.8-17.8-2-2.2-4.5-3.4-4.7-3.5A25.5 25.5 0 0 0 64 64.2z" fill="#402720"/></g><path d="M68.3 100.9c-1.6 1-7 1-8.6 0-1-.6-2 .3-1.6 1.1.4.9 3.4 2.8 5.9 2.8s5.4-2 5.8-2.8c.4-.8-.6-1.7-1.5-1.1z" fill="#795548"/></g></g></g><g clip-path="url(#b)"><defs><path id="q" d="M3.7 4.1h60.2v60.2H3.7z"/></defs><clipPath id="r"><use xlink:href="#q"/></clipPath><g clip-path="url(#r)"><path d="M15.8 49.3c-3.6 0-6.6-3.1-6.6-7s3-7 6.6-7h36c3.7 0 6.6 3 6.6 7s-3 7-6.6 7h-36z" fill="#E59600"/><path d="M51.8 35.7c3.4 0 6.1 3 6.1 6.6s-2.7 6.5-6 6.5H15.7c-3.4 0-6-3-6-6.5s2.6-6.6 6-6.6h36m0-1h-36c-4 0-7 3.4-7 7.6s3 7.5 7 7.5h36c4 0 7.1-3.4 7.1-7.5s-3.2-7.6-7-7.6z" fill="#CC8600"/><linearGradient id="s" x1="33.7" x2="33.7" y1="8.9" y2="63.4" gradientUnits="userSpaceOnUse"><stop stop-color="#FFCA28" offset=".6"/><stop stop-color="#FFB300" offset="1"/></linearGradient><path d="M33.7 63.3c-5.5 0-10.7-2.2-14.5-6.2a27 27 0 0 1-6.6-19c0-8.1 2.3-15.6 6.6-21 3.9-5 9.2-8 14.5-8s10.7 3 14.6 8a34.3 34.3 0 0 1 6.5 21 27 27 0 0 1-6.6 19c-3.8 4-9 6.2-14.5 6.2z" fill="url(#s)"/><path d="M33.7 10.1c5 0 10 2.8 13.8 7.6 4 5.2 6.3 12.5 6.3 20.4a26 26 0 0 1-6.3 18.3 19 19 0 0 1-27.6 0 26 26 0 0 1-6.3-18.3c0-8 2.3-15.2 6.3-20.4 3.8-4.8 8.8-7.6 13.8-7.6m0-2c-11.5 0-22 12.3-22 30 0 17.5 10.9 26.2 22 26.2s22.1-8.7 22.1-26.2c0-17.7-10.6-30-22-30z" fill="#EDA600"/><path d="M18 35l.2-.4.2-.2.2-.2.3-.2.3-.3.3-.2.4-.2.5-.2.4-.2 1-.2 1.1-.1h1l1.1.3.5.2.4.2.4.2.3.2.4.3.2.2.2.2.2.2.3.4a1 1 0 0 1-1.2 1.6l-.2-.1-.3-.1-.1-.1c-.1-.1-.2 0-.2 0a4 4 0 0 0-.5-.2l-.3-.1-.2-.1h-.3l-.3-.1-.7-.1h-2l-.3.1H21l-.1.1h-.3l-.3.2h-.2l-.2.1h-.2l-.2.2-.4.2A1 1 0 0 1 18 36c-.2-.4-.1-.8 0-1zm30.4 1.5l-.4-.2h-.2l-.2-.1c-.1-.1-.1 0-.2 0l-.2-.2h-.3l-.3-.1h-.3l-.3-.2h-2.7l-.3.1h-.2l-.2.1-.3.1a6 6 0 0 0-.7.3h-.1l-.3.2H41a1 1 0 0 1-1.2-1.6l.3-.3.2-.2.2-.2.2-.3.4-.2.3-.2.4-.2.4-.2.5-.2 1-.3h2.2l1 .3c.1 0 .3 0 .4.2a14.6 14.6 0 0 1 .8.4l.4.2.3.2.3.3.2.2.2.2.2.3a1 1 0 0 1-.2 1.5 1 1 0 0 1-1 .1z" fill="#6D4C41"/><g fill="#404040"><ellipse cx="23" cy="40.9" rx="3.3" ry="3.4"/><ellipse cx="44.6" cy="40.9" rx="3.3" ry="3.4"/></g><radialGradient id="t" cx="33.9" cy="5.8" r="20" gradientUnits="userSpaceOnUse"><stop stop-color="#6D4C41" offset="0"/><stop stop-color="#543930" offset="1"/></radialGradient><path d="M34 4.1c-30.2 0-24 34.7-24 34.7l3.2 5.5a59.3 59.3 0 0 1 3.2-16.8 4 4 0 0 1 4.5-2.6 73.8 73.8 0 0 0 25.2.1c2-.4 4 .9 4.6 3l3.8 16.3 3-6S63.8 4.1 34 4.1z" fill="url(#t)"/><defs><path id="u" d="M34 4.1C3.8 4.1 9.8 38 9.8 38l3.5 6.3c0-1 .7-5.2.7-5.2a15.4 15.4 0 0 1-1.8-7.2v-.7l1.8-6.6 19.9-12.3 19.6 12.2L55 32v.6c0 2.4-.7 4.4-1.5 6.4l1.2 5.3 3.1-6.3S63.8 4.1 34 4.1z"/></defs><clipPath id="v"><use xlink:href="#u"/></clipPath><g clip-path="url(#v)"><path d="M34 7.1c7 0 12.5 2.2 16 6.3 4.9 6 5.4 14.7 5.1 20l-1.4-6.1V27a7 7 0 0 0-8-5 72.2 72.2 0 0 1-25.5-.2 7 7 0 0 0-6.5 4.5c-.5 1.2-1 3-1.5 4.9a28 28 0 0 1 5.3-17.7C21.1 9.3 26.7 7 34 7m0-3C3.8 4.1 9.7 38 9.7 38l3.6 6.3a59.3 59.3 0 0 1 3.2-16.8A4 4 0 0 1 21 25a73.8 73.8 0 0 0 26 0 4 4 0 0 1 3.8 3l3.8 16.3 3-6S63.8 4.1 34 4.1z" fill="#402821"/></g><path d="M39.2 53c-2 1.2-9 1.2-11 0-1.3-.8-2.5.3-2 1.4.5 1.1 4.2 3.6 7.5 3.6s7-2.5 7.4-3.6c.5-1-.7-2.2-1.9-1.5z" fill="#795548"/><path d="M35.9 46.9H30.8c-.4.2-.7.6-.5 1s1.2 1.8 3 1.8 2.8-1.3 3-1.7c.3-.5 0-1-.4-1.1z" fill="#E59600"/></g></g></svg>