<svg viewBox="0 0 128 128" xmlns="http://www.w3.org/2000/svg" xmlns:xlink="http://www.w3.org/1999/xlink"><radialGradient id="a" cx="296.06" cy="-121.03" r="57.904" gradientTransform="matrix(.826 0 0 .826 -187.74 92.238)" gradientUnits="userSpaceOnUse"><stop stop-color="#6D4C41" offset="0"/><stop stop-color="#543930" offset="1"/></radialGradient><path d="M39.58 119.76s-6.8-.35-10.21-5.09C22 104.44 17.95 78.87 17.95 42.65c0-1.66.26-16.41 10.66-26.83 6.75-6.77 16.34-10.2 28.52-10.2 12.08 0 21.52 3.38 28.05 10.04C95 25.68 95.22 39.82 95.17 42.55c0 36.31-4.06 61.89-11.42 72.12-3.3 4.59-9.79 5.06-10.25 5.09l-16.93-.03-16.99.03z" fill="url(#a)"/><path d="M57.13 7.12c11.66 0 20.74 3.23 26.98 9.59 9.6 9.8 9.59 24.2 9.56 25.81v.12c0 35.9-3.96 61.17-11.14 71.15-2.84 3.94-8.55 4.43-9.08 4.46l-16.9-.03-16.89.03c-.54-.04-6.24-.53-9.08-4.46-7.18-9.98-11.14-35.24-11.14-71.17 0-.63.08-15.58 10.22-25.75 6.47-6.46 15.7-9.75 27.47-9.75m0-3c-41.01 0-40.68 37.92-40.68 38.52 0 24.56 1.88 59.25 11.71 72.9 3.9 5.41 11.43 5.71 11.43 5.71l16.97-.03 16.97.03s7.53-.3 11.43-5.71c9.83-13.65 11.71-48.34 11.71-72.9-.01-.6 1.46-38.52-39.54-38.52z" fill="#3F2720"/><path d="M52.78 107.11c-3.65 0-6.62-3.28-6.62-7.3v-9.16h14.79v9.16c0 4.02-2.97 7.3-6.62 7.3h-1.55z" fill="#E59600"/><path d="M59.83 91.77v8.04c0 3.41-2.47 6.18-5.5 6.18h-1.55c-3.03 0-5.5-2.77-5.5-6.18v-8.04h12.55m2.25-2.25H45.04V99.8c0 4.65 3.47 8.42 7.74 8.42h1.55c4.28 0 7.74-3.77 7.74-8.42V89.52h.01z" fill="#D18100"/><defs><path id="b" d="M4 4h120v120H4z"/></defs><clipPath id="c"><use xlink:href="#b"/></clipPath><g clip-path="url(#c)"><linearGradient id="d" x1="56.25" x2="56.25" y1="97.196" y2="136.01" gradientUnits="userSpaceOnUse"><stop stop-color="#E3E3E3" offset=".001"/><stop stop-color="#C9C9C9" offset="1"/></linearGradient><path d="M5.75 136.01v-15.26c0-16.24 25.36-23.53 50.5-23.56h.13c25.03 0 50.36 8.09 50.36 23.56v15.26H5.75z" fill="url(#d)"/><path d="M56.38 98.7c12.9 0 25.42 2.19 34.36 6 6.62 2.83 14.51 7.91 14.51 16.05v13.76h-98v-13.76c0-15.2 24.61-22.03 49-22.06l.13.01m0-3h-.13c-25.49.03-52 7.28-52 25.06v16.76h104v-16.76c0-16.76-26.26-25.06-51.87-25.06z" fill="#C3C5C7"/></g><g clip-path="url(#c)"><path d="M110.12 69.15l-3.01 10.63c1.6.36 2.97 1.08 4.23 1.6l3.34-10.88-4.56-1.35z" fill="#A7A9AC" stroke="#939598" stroke-miterlimit="10" stroke-width="2"/><path d="M87.86 147.7l2.85.84 20.63-67.16c-1.26-.51-2.62-1.23-4.23-1.6L87.86 147.7z" fill="#603913" stroke="#4F2F1C" stroke-miterlimit="10" stroke-width="2"/><path d="M114.29 62.68c-2.93 1.47-3.04 5.76-7.17 4.66.12 2.18 1.39 4.18 3.87 5 2.62.87 5.56-.4 7.01-2.94-1.2-2.45 1.58-8.04-3.71-6.72z" fill="#D1D3D4"/><path d="M113.15 52.53c.3.38-.51 2.47-.68 2.94-.35 1.02-.82 2-1.31 2.95-1 1.94-2.46 3.58-3.32 5.6-.47 1.1-.77 2.21-.71 3.32 4.12 1.1 4.23-3.19 7.17-4.66 5.29-1.32 2.51 4.27 3.72 6.73.26-.45.49-.93.64-1.46 2.15-7.41-3.17-12.42-5.51-15.42z" fill="#00AEEF"/><path d="M114.07 53.23a.514.514 0 0 0-.89.17c-.48 1.56-1.65 4.32-2.02 5.02-1 1.94-2.46 3.58-3.32 5.6-.47 1.1-.77 2.21-.71 3.32.12 2.18 1.39 4.18 3.87 5 2.62.87 5.56-.4 7.01-2.94.26-.45.49-.93.64-1.46 1.95-6.71-2.07-11.62-4.58-14.71z" fill="none" stroke="#2A9AC4" stroke-linecap="round" stroke-linejoin="round" stroke-miterlimit="10" stroke-width="2"/><linearGradient id="e" x1="100.12" x2="100.12" y1="91.877" y2="136.72" gradientUnits="userSpaceOnUse"><stop stop-color="#FFDBB5" offset=".002"/><stop stop-color="#A97C50" offset="1"/></linearGradient><path d="M96.71 138.77c-.62 0-1.18-.07-1.7-.21-.49-.14-.62-.29-.65-.33a.524.524 0 0 1-.1-.36c.01-.17.08-.39.18-.64.21-.51.57-1.13 1.12-1.93.34-.5.7-1.01 1.07-1.51.7-.96 1.81-2.82 1.46-4.48-.16-.76-.62-1.38-1.33-1.79-.52-.3-1.11-.45-1.75-.45-1.28 0-2.56.62-3.59 1.12-.2.1-.4.19-.59.28l-2.47 1.26-.37.2c-1.73.94-2.98 1.62-4.93 1.72-.27.01-.52.02-.74.02-.54 0-.9-.04-1.18-.15-.71-.25-1.29-.7-1.78-1.37-1.12-1.54-1.51-2.88-1.77-4.1-.39-1.89-.48-3.65-.28-5.71.41-4.2 1.31-7.74 2.85-11.15 3.86-8.56 9.2-14.29 15.84-17.03 3.33-1.37 6.57-2.07 9.63-2.07 6.9 0 12.71 3.69 15.54 9.86 3.04 6.63 3.05 17.49-6.05 28.08-1.88 2.18-3.14 3.48-4.5 4.62-3.81 3.19-8.12 5.31-12.16 5.96-.63.11-1.21.16-1.75.16z" fill="url(#e)"/><path d="M105.65 91.06c6.6 0 11.95 3.39 14.66 9.29 2.92 6.36 2.9 16.8-5.9 27.03-1.84 2.14-3.07 3.41-4.39 4.51-3.67 3.08-7.82 5.12-11.69 5.75-.61.1-1.14.15-1.62.15-.51 0-.96-.05-1.37-.16 0-.01.01-.02.01-.02.19-.44.52-1.02 1.02-1.76.34-.5.69-.99 1.05-1.49.79-1.09 2.06-3.23 1.63-5.25-.22-1.04-.84-1.88-1.8-2.43-.67-.39-1.42-.58-2.23-.58-1.5 0-2.89.67-4.01 1.21-.2.1-.39.19-.57.27-.03.01-.05.02-.07.04l-1.29.66-1.19.61-.35.19c-1.68.91-2.78 1.51-4.51 1.6-.26.01-.48.02-.69.02-.41 0-.69-.03-.86-.09-.52-.18-.94-.51-1.32-1.03-1.02-1.39-1.37-2.61-1.6-3.72-.38-1.81-.46-3.43-.27-5.42.4-4.09 1.28-7.54 2.77-10.84 3.76-8.32 8.92-13.88 15.33-16.53 3.21-1.34 6.33-2.01 9.26-2.01m0-1.95c-3.07 0-6.43.67-10.01 2.14-7.87 3.25-13.02 10.14-16.36 17.53-1.7 3.78-2.55 7.49-2.93 11.46-.19 1.93-.16 3.8.3 6.01.32 1.53.81 2.93 1.94 4.47.55.76 1.27 1.37 2.24 1.72.39.14.85.2 1.51.2.23 0 .5-.01.79-.02 2.31-.12 3.73-.97 5.69-2.03.81-.41 1.62-.83 2.43-1.24 1.11-.51 2.49-1.31 3.77-1.31.44 0 .86.09 1.26.32 1.83 1.06.48 3.59-.44 4.85-.37.51-.73 1.02-1.08 1.53-.48.71-.93 1.44-1.21 2.11-.13.32-.23.63-.25.93-.03.33.03.65.26.99.24.36.69.58 1.19.72.64.18 1.29.25 1.96.25.64 0 1.29-.07 1.93-.17 4.62-.75 9.04-3.18 12.63-6.18 1.49-1.25 2.81-2.63 4.61-4.73 15.33-17.82 7.28-39.55-10.23-39.55z" fill="#C7946B"/><path d="M99.06 99.04c-.34-1.76-1.85-3.31-3.67-3.43-2.08-.14-3.15 1.66-3.67 3.41s-.55 3.76.65 5.25c1.32 1.63 3.72 1.57 5.01-.04.47-.58.82-1.32 1.04-2.1.63-.86.85-1.99.64-3.09z" fill="#00AEEF"/><path d="M110.43 93.94c-1.73-1.12-4.33-.09-5.85.97-1.71 1.18-2.97 3.48-2.02 5.54.93 2.02 3.41 2.62 5.36 1.83 1.71-.7 3.65-2.57 3.6-4.54.49-1.37.35-2.87-1.09-3.8z" fill="#00C853"/><path d="M115.59 103.24c-1.69-.09-3.47.7-4.76 1.74-1.41 1.13-2.4 2.84-1.49 4.6.84 1.61 2.79 2.18 4.48 1.99 1.59-.17 3.13-1.09 4-2.43.32-.48.54-1.05.59-1.62.12-.31.22-.64.26-1 .23-1.89-1.31-3.19-3.08-3.28z" fill="#FFF200"/><path d="M111.98 116.56c-.81-1.25-2.38-1.71-3.78-1.98-1.62-.31-3.49-.16-4.75 1.03-1.48 1.39-1.19 3.58.46 4.67.34.22.74.41 1.17.57 1.48 1.12 3.4.8 5.02.19 1.25-.47 2.28-1.57 2.34-2.85 0-.02.01-.03.01-.05.09-.69-.11-1.21-.47-1.58z" fill="#EF4136"/></g><path d="M55.42 107.23c-4 0-7.26-3.22-7.26-7.17v-8.98h16.16v8.98c0 3.96-3.25 7.17-7.26 7.17h-1.64z" fill="#E59600"/><path d="M63.33 92.08v7.98c0 3.4-2.81 6.17-6.26 6.17h-1.65c-3.45 0-6.26-2.77-6.26-6.17v-7.98h14.17m2-2H47.17v9.98c0 4.51 3.7 8.17 8.26 8.17h1.65c4.56 0 8.26-3.66 8.26-8.17v-9.98h-.01z" fill="#D18100"/><linearGradient id="f" x1="67.713" x2="64.189" y1="91.644" y2="106.33" gradientUnits="userSpaceOnUse"><stop stop-color="#0053AB" offset="0"/><stop stop-color="#0068BF" offset=".362"/><stop stop-color="#008EE3" offset="1"/></linearGradient><path d="M71.64 95.18c1.45 2.18 1.64 7.04-2.61 11.15-2.49 2.4-6.74 2.73-10.03 2.64-.67-.02-1.44-.16-1.76-.81-.36-.73.11-1.68.76-2.1s1.42-.51 2.14-.75c1.51-.51 3.9-3.31 4.46-7.45.36-2.67.13-3.89.19-4.74.05-.68 5.75.41 6.85 2.06z" fill="url(#f)"/><linearGradient id="g" x1="38.538" x2="59.214" y1="96.322" y2="110.28" gradientUnits="userSpaceOnUse"><stop stop-color="#008EE3" offset=".001"/><stop stop-color="#0053AB" offset="1"/></linearGradient><path d="M41.46 106.63c5.15 3.8 11.58 5.17 17.75 3.6.85-.22 1.86-.68 1.91-1.56.06-1.18-1.55-2.4-2.7-2.57-2.95-.44-6.33-1.94-8.23-4.25-1.68-2.05-2.43-3.61-2.37-7.37.02-1.47-6.69-.18-8.4.71-2.58 1.34-3.94 7.03 2.04 11.44z" fill="url(#g)"/><linearGradient id="h" x1="60.829" x2="60.829" y1="111.52" y2="126.32" gradientTransform="matrix(.812 -.00759 -.00759 .8119 11.441 20.34)" gradientUnits="userSpaceOnUse"><stop stop-color="#0053AB" offset="0"/><stop stop-color="#008EE3" offset="1"/></linearGradient><path d="M57 113.52c.19 4.44 2.5 5.89 1.14 9.45 2.23-1.42 3.77-3.81 4.41-6.39s.41-5.3-.37-7.8c-.23-.71-.52-1.44-1.07-1.93-2.75-2.4-4.18 5-4.11 6.67z" fill="url(#h)"/><linearGradient id="i" x1="62.947" x2="72.22" y1="107.5" y2="113.81" gradientUnits="userSpaceOnUse"><stop stop-color="#0053AB" offset="0"/><stop stop-color="#008EE3" offset="1"/></linearGradient><path d="M66.02 114.06c4.41 1.9 6.73.39 9.61 4.98.22-3.24-1.03-6.5-3.11-8.97-2.09-2.47-4.96-4.2-8.02-5.19-.87-.28-1.81-.51-2.71-.3-4.39 1.02.27 7.77 4.23 9.48z" fill="url(#i)"/><path d="M64.71 106.35c.37 1.81-1.66 3.77-4.53 4.36s-5.49-.4-5.86-2.21 1.66-3.77 4.53-4.36c2.87-.6 5.49.39 5.86 2.21z" fill="#1565C0"/><linearGradient id="j" x1="56.556" x2="56.556" y1="94.708" y2="17.885" gradientUnits="userSpaceOnUse"><stop stop-color="#FFB300" offset="0"/><stop stop-color="#FFB809" offset=".102"/><stop stop-color="#FFC21A" offset=".371"/><stop stop-color="#FFC825" offset=".659"/><stop stop-color="#FFCA28" offset="1"/></linearGradient><path d="M56.56 95.27c-2.3 0-4.91-.5-7.56-1.43-11.34-4.01-24.58-16.34-24.58-37.89 0-28.72 17.31-38.91 32.13-38.91s32.13 10.19 32.13 38.91c0 21.58-13.26 33.9-24.61 37.9-2.63.93-5.23 1.42-7.51 1.42z" fill="url(#j)"/><path d="M56.56 18.04c8.41 0 16.06 3.25 21.55 9.15 6.27 6.73 9.58 16.68 9.58 28.77 0 21.06-12.9 33.07-23.94 36.96-2.53.89-5.01 1.36-7.19 1.36-2.19 0-4.69-.48-7.23-1.38-11.03-3.9-23.9-15.92-23.9-36.94 0-12.09 3.31-22.03 9.58-28.77 5.48-5.9 13.14-9.15 21.55-9.15m0-2c-17.2 0-33.13 12.79-33.13 39.91 0 21.79 13.49 34.67 25.23 38.83 2.8.99 5.5 1.49 7.9 1.49 2.38 0 5.07-.49 7.85-1.47 11.76-4.14 25.28-17.03 25.28-38.84 0-27.13-15.93-39.92-33.13-39.92z" fill="#ED9E00"/><defs><path id="k" d="M22.66 88.85l-1.5-51.44c0-16.95 15.78-29.85 32.73-29.85h4.93c16.95 0 32.54 12.9 32.54 29.85l-1.5 51.18-67.2.26z"/></defs><clipPath id="l"><use xlink:href="#k"/></clipPath><g clip-path="url(#l)"><radialGradient id="m" cx="359.88" cy="-112.18" r="48.206" gradientTransform="matrix(.796 0 0 .796 -230.23 88.877)" gradientUnits="userSpaceOnUse"><stop stop-color="#6D4C41" offset="0"/><stop stop-color="#543930" offset="1"/></radialGradient><path d="M94.14 42.65S95.16 7.08 56.33 7.08 18.36 42.65 18.36 42.65s.33 45.48 3.2 51.39 7.2 5.71 7.2 5.71-2.03-26.54-2.26-39.04c-.06-2.92-.94-13.73 5.16-15.09 22.36-5.02 35.01-16.89 35.01-16.89 3.29 7.19 13.58 14.19 17.27 16.86 3.03 2.19 2.61 11.2 2.55 15.03l-3.05 39.06s4.68.37 7.65-5.64c2.96-6.02 3.05-51.39 3.05-51.39z" fill="url(#m)"/></g><path d="M60.62 68.05c-.1-.04-.21-.07-.32-.08h-6.99c-.11.01-.21.04-.32.08-.63.26-.98.91-.68 1.61s1.69 2.66 4.49 2.66 4.19-1.96 4.49-2.66c.31-.69-.04-1.35-.67-1.61z" fill="#E59600"/><ellipse cx="40.56" cy="58.87" rx="4.87" ry="5.04" fill="#404040"/><ellipse cx="73.05" cy="58.87" rx="4.87" ry="5.04" fill="#404040"/><path d="M47.79 49.82c-.93-1.23-3.07-3.01-7.23-3.01s-6.31 1.79-7.23 3.01c-.41.54-.31 1.17-.02 1.55.26.35 1.04.68 1.9.39s2.54-1.16 5.35-1.18c2.81.02 4.49.89 5.35 1.18s1.64-.03 1.9-.39c.29-.38.39-1.01-.02-1.55zM80.29 49.82c-.93-1.23-3.07-3.01-7.23-3.01s-6.31 1.79-7.23 3.01c-.41.54-.31 1.17-.02 1.55.26.35 1.04.68 1.9.39s2.54-1.16 5.35-1.18c2.81.02 4.49.89 5.35 1.18s1.64-.03 1.9-.39c.28-.38.39-1.01-.02-1.55z" fill="#6D4C41"/><path d="M64.87 76.14c-3.15 1.87-13.46 1.87-16.61 0-1.81-1.07-3.65.57-2.9 2.21.74 1.61 6.37 5.36 11.23 5.36s10.42-3.75 11.16-5.36c.75-1.64-1.07-3.29-2.88-2.21z" fill="#795548"/></svg>