<svg viewBox="0 0 128 128" xmlns="http://www.w3.org/2000/svg" xmlns:xlink="http://www.w3.org/1999/xlink"><defs><path id="a" d="M4 4h120v120H4z"/></defs><clipPath id="b"><use xlink:href="#a"/></clipPath><g clip-path="url(#b)"><radialGradient id="c" cx="-7.368" cy="-131.98" r="57.904" gradientTransform="matrix(.826 0 0 .826 70.336 101.29)" gradientUnits="userSpaceOnUse"><stop stop-color="#6D4C41" offset="0"/><stop stop-color="#543930" offset="1"/></radialGradient><path d="M47.02 119.76s-6.8-.35-10.21-5.09c-7.37-10.23-11.42-35.81-11.42-72.02 0-1.66.26-16.4 10.66-26.83C42.8 9.05 52.4 5.62 64.57 5.62c12.08 0 21.52 3.38 28.05 10.04 9.82 10.02 10.04 24.16 9.99 26.89 0 36.31-4.06 61.89-11.42 72.12-3.3 4.59-9.79 5.06-10.25 5.09L64 119.73l-16.98.03z" fill="url(#c)"/><path d="M64.57 7.12c11.66 0 20.74 3.23 26.98 9.59 9.6 9.8 9.59 24.2 9.56 25.81v.12c0 35.9-3.96 61.17-11.14 71.15-2.84 3.94-8.55 4.43-9.08 4.46l-16.9-.03-16.88.03c-.58-.04-6.25-.54-9.08-4.46-7.18-9.98-11.14-35.24-11.14-71.17 0-.63.08-15.58 10.22-25.75 6.46-6.46 15.7-9.75 27.46-9.75m0-3c-41.01 0-40.68 37.92-40.68 38.52 0 24.56 1.88 59.25 11.71 72.9 3.9 5.41 11.43 5.71 11.43 5.71l16.97-.02 16.97.03s7.53-.3 11.43-5.71c9.83-13.65 11.71-48.34 11.71-72.9-.01-.61 1.47-38.53-39.54-38.53z" fill="#3F2720"/></g><g clip-path="url(#b)"><linearGradient id="d" x1="64" x2="64" y1="97.5" y2="130.5" gradientUnits="userSpaceOnUse"><stop stop-color="#616161" offset=".003"/><stop stop-color="#545454" offset=".277"/><stop stop-color="#323232" offset=".783"/><stop stop-color="#212121" offset="1"/></linearGradient><path d="M13.5 130.5v-9.51c0-17.29 27.21-23.46 50.5-23.49h.14c13.39 0 25.82 2.15 35.01 6.05 7 2.98 15.35 8.42 15.35 17.44v9.51h-101z" fill="url(#d)"/><path d="M64.14 99c24.28 0 48.86 7.55 48.86 21.99V129H15v-8.01c0-6.95 4.88-12.47 14.52-16.42C38.26 100.99 50.51 99.02 64 99h.14m0-3H64c-25.65.03-52 7.1-52 24.99V132h104v-11.01C116 104.13 89.9 96 64.14 96z" fill="#404042"/></g><g clip-path="url(#b)"><path d="M63.17 107.23c-4 0-7.26-3.22-7.26-7.17v-8.98h16.16v8.98c0 3.96-3.26 7.17-7.26 7.17h-1.64z" fill="#E59600"/><path d="M71.08 92.08v7.98c0 3.4-2.81 6.17-6.26 6.17h-1.65c-3.45 0-6.26-2.77-6.26-6.17v-7.98h14.17m2-2H54.92v9.98c0 4.51 3.7 8.17 8.26 8.17h1.65c4.56 0 8.26-3.66 8.26-8.17v-9.98h-.01z" fill="#D18100"/></g><path d="M12.54 121.29v11.01h102.93v-11.01c0-16.89-25.69-25.65-51.55-25.6-25.63.06-51.38 7.71-51.38 25.6z" clip-path="url(#b)" fill="none"/><g clip-path="url(#b)"><defs><path id="e" d="M12 120.99V132h104v-11.01C116 104.1 89.81 95.97 64 96c-25.65.03-52 7.1-52 24.99z"/></defs><clipPath id="f"><use xlink:href="#e"/></clipPath><g clip-path="url(#f)"><path fill="#E0E0E0" d="M52.66 106l3.85 18H71.9l3.44-18z"/><g fill="#FAFAFA"><path d="M54.88 94.33c.04 1.79.17 3.8 2.99 7.48 3.17 4.13 6.11 4.19 6.11 4.19l-10.27 8.54-3.86-19.71 5.03-.5zM73.09 94.48c-.04 1.88-.15 3.66-2.97 7.33-3.17 4.13-6.13 4.19-6.13 4.19l10.29 8.54 3.86-19.71-5.05-.35z"/></g><path d="M51.26 125.09l-10.51-10.24 4.89-6.29-7.22-4.41 3.54-5.66c1.11-.25 4.5-.97 8.86-1.34l6.09 27.93h-5.65z" fill="#303030"/><path d="M50.03 98.23l5.64 25.86h-4l-9.58-9.33 3.65-4.7 1.37-1.77-1.91-1.17-5.4-3.3 2.78-4.44c1.27-.27 4-.81 7.45-1.15m1.58-2.14c-5.92.43-10.28 1.53-10.28 1.53l-4.29 6.86 7.12 4.36-4.75 6.11 11.44 11.14h7.29l-6.53-30z" fill="#404042"/><path d="M71.09 125.09l6.09-27.93c4.36.37 7.75 1.09 8.86 1.34l3.54 5.66-7.22 4.41 4.89 6.29-10.51 10.24h-5.65z" fill="#303030"/><path d="M77.97 98.23c3.45.34 6.18.88 7.45 1.15l2.78 4.44-5.4 3.3-1.91 1.17 1.37 1.77 3.65 4.7-9.58 9.33h-4l5.64-25.86m-1.58-2.14l-6.54 30h7.29l11.44-11.14-4.75-6.11 7.12-4.36-4.29-6.86c.01 0-4.35-1.1-10.27-1.53z" fill="#404042"/><g fill="#212121"><circle cx="64" cy="112.31" r="1.69"/><circle cx="64" cy="120.31" r="1.69"/></g></g></g><g clip-path="url(#b)"><linearGradient id="g" x1="64" x2="64" y1="94.708" y2="17.885" gradientUnits="userSpaceOnUse"><stop stop-color="#FFB300" offset="0"/><stop stop-color="#FFB809" offset=".102"/><stop stop-color="#FFC21A" offset=".371"/><stop stop-color="#FFC825" offset=".659"/><stop stop-color="#FFCA28" offset="1"/></linearGradient><path d="M64 95.27c-2.3 0-4.91-.5-7.56-1.43C45.1 89.83 31.87 77.5 31.87 55.95c0-28.72 17.31-38.91 32.13-38.91s32.13 10.19 32.13 38.91c0 21.58-13.26 33.9-24.61 37.9-2.63.93-5.23 1.42-7.52 1.42z" fill="url(#g)"/><path d="M64 18.04c8.41 0 16.06 3.25 21.55 9.15 6.27 6.73 9.58 16.68 9.58 28.77 0 21.06-12.9 33.07-23.94 36.96-2.53.89-5.01 1.36-7.19 1.36-2.19 0-4.69-.48-7.23-1.38-11.03-3.9-23.9-15.92-23.9-36.94 0-12.09 3.31-22.03 9.58-28.77 5.49-5.9 13.14-9.15 21.55-9.15m0-2c-17.2 0-33.13 12.79-33.13 39.91 0 21.79 13.49 34.67 25.23 38.83 2.8.99 5.5 1.49 7.9 1.49 2.38 0 5.07-.49 7.85-1.47 11.76-4.14 25.28-17.03 25.28-38.84 0-27.13-15.93-39.92-33.13-39.92z" fill="#ED9E00"/></g><g clip-path="url(#b)"><defs><path id="h" d="M30.41 88.85l-1.5-51.44c0-16.95 15.78-29.85 32.73-29.85h4.93c16.95 0 32.54 12.9 32.54 29.85l-1.5 51.18-67.2.26z"/></defs><clipPath id="i"><use xlink:href="#h"/></clipPath><g clip-path="url(#i)"><radialGradient id="j" cx="-10.406" cy="-123.13" r="48.206" gradientTransform="matrix(.796 0 0 .796 72.284 97.597)" gradientUnits="userSpaceOnUse"><stop stop-color="#6D4C41" offset="0"/><stop stop-color="#543930" offset="1"/></radialGradient><path d="M101.89 42.65s1.02-35.57-37.81-35.57-37.97 35.57-37.97 35.57.33 45.48 3.2 51.39 7.2 5.71 7.2 5.71-2.03-26.54-2.26-39.04c-.06-2.92-.94-13.73 5.16-15.09 22.36-5.02 35.01-16.89 35.01-16.89C77.71 35.92 88 42.92 91.69 45.59c3.03 2.19 2.61 11.2 2.55 15.03l-3.05 39.06s4.68.37 7.65-5.64 3.05-51.39 3.05-51.39z" fill="url(#j)"/></g></g><g clip-path="url(#b)"><path d="M67.81 68.05c-.1-.04-.21-.07-.32-.08H60.5c-.11.01-.21.04-.32.08-.63.26-.98.91-.68 1.61s1.69 2.66 4.49 2.66 4.19-1.96 4.49-2.66c.31-.69-.03-1.35-.67-1.61z" fill="#E59600"/><ellipse cx="47.75" cy="58.87" rx="4.87" ry="5.04" fill="#404040"/><ellipse cx="80.25" cy="58.87" rx="4.87" ry="5.04" fill="#404040"/><path d="M54.98 49.82c-.93-1.23-3.07-3.01-7.23-3.01s-6.31 1.79-7.23 3.01c-.41.54-.31 1.17-.02 1.55.26.35 1.04.68 1.9.39s2.54-1.16 5.35-1.18c2.81.02 4.49.89 5.35 1.18s1.64-.03 1.9-.39c.29-.38.39-1.01-.02-1.55zM87.48 49.82c-.93-1.23-3.07-3.01-7.23-3.01s-6.31 1.79-7.23 3.01c-.41.54-.31 1.17-.02 1.55.26.35 1.04.68 1.9.39s2.54-1.16 5.35-1.18c2.81.02 4.49.89 5.35 1.18s1.64-.03 1.9-.39c.29-.38.39-1.01-.02-1.55z" fill="#6D4C41"/><path d="M72.32 76.14c-3.15 1.87-13.46 1.87-16.61 0-1.81-1.07-3.65.57-2.9 2.21.74 1.61 6.37 5.36 11.23 5.36s10.42-3.75 11.16-5.36c.75-1.64-1.08-3.29-2.88-2.21z" fill="#795548"/></g><g clip-path="url(#b)"><linearGradient id="k" x1="64.023" x2="64.023" y1="25.963" y2="43.838" gradientUnits="userSpaceOnUse"><stop stop-color="#666" offset=".004"/><stop stop-color="#606060" offset=".08"/><stop stop-color="#3F3F3F" offset=".546"/><stop stop-color="#333" offset=".802"/></linearGradient><path d="M63.79 44.33c-22.51-.15-33.39-6.6-36.54-8.89 2.22-2.56 10.66-9.57 36.54-9.57 25.68 0 34.55 6.52 37 9.01-3.29 2.45-14.51 9.3-37 9.45z" fill="url(#k)"/><path d="M63.79 27.37c21.72 0 31.02 4.69 34.58 7.39-4.39 2.81-15.06 7.94-34.56 8.07-19.39-.13-29.91-4.99-34.2-7.61 3.33-2.83 12.33-7.85 34.18-7.85m0-3c-33.25 0-38.58 11.36-38.58 11.36s10.25 9.91 38.58 10.1c28.34-.19 39.11-10.73 39.11-10.73s-5.85-10.73-39.11-10.73z" fill="#2A2A2B"/></g><path d="M20.41 34.64c1.69 6.19 3.31 8.74 3.31 8.74C25.44 41.39 35.65 32 63.93 32h.16c28.28 0 38.03 9.43 39.74 11.43 0 0 2.04-2.76 3.74-8.95C111.5 20.16 92.04 4.12 64.04 4.12c-27.92.01-47.54 16.22-43.63 30.52z" clip-path="url(#b)" fill="#303030"/><g clip-path="url(#b)"><defs><path id="l" d="M20.41 34.64c1.69 6.19 3.31 8.74 3.31 8.74C25.44 41.39 35.65 32 63.93 32h.16c28.28 0 38.03 9.43 39.74 11.43 0 0 2.04-2.76 3.74-8.95C111.5 20.16 92.04 4.12 64.04 4.12c-27.92.01-47.54 16.22-43.63 30.52z"/></defs><clipPath id="m"><use xlink:href="#l"/></clipPath><path d="M99.67 35.76a4.58 4.58 0 0 0-1.72-2.8c-3.74-2.9-14.93-10.1-33.89-10.1-19.45 0-30.34 7.19-33.95 10.09-.86.69-1.45 1.67-1.65 2.75l-.01.06c-.62 3.29 2.35 6.14 5.61 5.36 6.79-1.64 17.85-3.73 30-3.75 12.15.02 23.21 2.12 30 3.75 3.25.78 6.23-2.07 5.61-5.36z" clip-path="url(#m)" fill="#212121"/></g><g clip-path="url(#b)"><path d="M64.06 7.21c16.03 0 30.79 5.78 37.61 14.71 2.11 2.77 4.35 7.09 3.02 11.93-.58 2.12-1.2 3.82-1.75 5.11-1.79-1.31-4.34-2.66-7.88-4.11-8.16-3.34-18.58-4.85-31-4.85h-.12c-12.39 0-22.88 1.5-31.18 4.82-3.52 1.41-6.09 2.8-7.89 4.06-.47-1.28-1.01-2.96-1.56-4.98-1.31-4.8.92-9.13 3.03-11.89C33.19 13.03 48 7.21 64.06 7.21m0-3c-27.94 0-47.55 16.13-43.65 30.44 1.69 6.19 3.31 9.24 3.31 9.24C25.44 41.89 35.65 33 63.93 33h.16c28.28 0 38.03 8.93 39.74 10.93 0 0 2.04-3.01 3.74-9.2 3.94-14.32-15.51-30.52-43.51-30.52z" fill="#404042"/></g><g clip-path="url(#b)" fill="#FFC107"><path d="M57.31 20.48c-.09.06-.18.1-.29.1h-9.84c-.36 0-.5.46-.21.67.23.17.46.33.69.48.8.54 1.74.82 2.71.82h7.72c-.23-.74-.49-1.44-.78-2.07zM56.84 19.51c-.52-1-1.03-1.78-1.4-2.3H42.8c-.27 0-.4.34-.2.51.12.11.25.22.37.33a5.88 5.88 0 0 0 3.88 1.46h9.99zM58.38 23.62h-6.79c-.21 0-.28.29-.09.39 4.11 2.05 6.44 1.91 6.44 1.91h.79c-.05-.8-.17-1.57-.35-2.3zM80.82 20.58h-9.84c-.11 0-.21-.04-.29-.1-.29.63-.55 1.33-.78 2.07h7.72c.96 0 1.91-.28 2.71-.82.23-.15.45-.31.69-.48.29-.21.15-.67-.21-.67zM85.21 17.21H72.57c-.37.52-.88 1.3-1.4 2.3h9.99c1.43 0 2.81-.51 3.88-1.46.12-.11.24-.22.37-.33.19-.18.06-.51-.2-.51zM76.41 23.62h-6.79c-.17.73-.29 1.5-.35 2.3h.79s2.33.14 6.44-1.91c.18-.1.12-.39-.09-.39zM68.25 14.53c-.76.35-1.66.56-2.49.69-1.17.18-2.36.18-3.53 0-.83-.13-1.73-.34-2.49-.69-.48-.22-1.04.02-1.24.51l-.8 1.98c-.21.52-.17.86.02 1.12.71.96 2.39 3.59 2.5 6.76.01.35.2.67.52.83.65.31 1.79.91 2.64 1.61.36.3.86.3 1.22 0 .86-.71 1.99-1.3 2.64-1.61.32-.15.51-.47.52-.83.11-3.17 1.8-5.79 2.5-6.76.19-.26.23-.6.11-.89-.23-.56-.6-1.49-.89-2.21a.911.911 0 0 0-1.23-.51z"/></g><g clip-path="url(#b)" fill="#FFC107"><path d="M92.2 119.78c-.04.02-.08.04-.12.04h-4.12c-.15 0-.21.19-.09.28.1.07.19.14.29.2.33.23.73.34 1.13.34h3.23c-.09-.3-.2-.59-.32-.86zM92 119.38c-.22-.42-.43-.74-.59-.96h-5.29c-.11 0-.17.14-.08.22.05.05.1.09.15.14.45.4 1.03.61 1.62.61H92zM92.65 121.1h-2.84c-.09 0-.12.12-.04.16 1.72.86 2.69.8 2.69.8h.33a5.84 5.84 0 0 0-.14-.96zM102.04 119.82h-4.12c-.05 0-.09-.02-.12-.04-.12.26-.23.56-.32.87h3.23c.4 0 .8-.12 1.13-.34.09-.06.19-.13.29-.2.12-.09.06-.29-.09-.29zM103.88 118.41h-5.29c-.16.22-.37.54-.59.96h4.18c.6 0 1.18-.21 1.62-.61.05-.05.1-.09.15-.14.09-.07.04-.21-.07-.21zM100.19 121.1h-2.84c-.07.31-.12.63-.15.96h.33s.97.06 2.69-.8c.09-.04.06-.16-.03-.16zM96.78 117.29c-.32.15-.7.24-1.04.29-.49.07-.99.07-1.48 0-.35-.05-.72-.14-1.04-.29-.2-.09-.44.01-.52.21l-.33.83c-.09.22-.07.36.01.47.3.4 1 1.5 1.05 2.83.01.15.08.28.22.35.27.13.75.38 1.11.68.15.12.36.12.51 0 .36-.3.83-.54 1.11-.68.13-.06.21-.2.22-.35.05-1.33.75-2.42 1.05-2.83.08-.11.1-.25.04-.37-.09-.23-.25-.62-.37-.92-.1-.21-.34-.31-.54-.22z"/></g></svg>