<svg viewBox="0 0 128 128" xmlns="http://www.w3.org/2000/svg" xmlns:xlink="http://www.w3.org/1999/xlink"><path d="M76 75.4l2.3-2.4h1.3l.5.6.9.2c.4 0 .6.5.5.9v.2c0 .4-.5.6-.8.5l-1.4-.3-2.4 1.7c-.3.2-.8.1-1-.2l-.1-.2a.7.7 0 0 1 .2-1zm28.9-.3l-2.7-2.2c-.1-.1-.7.3-.9.3l-.5.2-1 .1c-.3.1-.6.5-.5.9v.2c.1.4.5.7.9.6l1.4-.4 2.4 1.7c.3.3.7.2 1-.2v-.1c.3-.4.2-.8-.1-1zm-84.9.3l2.3-2.4h1.3l.5.6.9.2c.4 0 .6.5.5.9v.2c0 .4-.5.6-.9.5l-1.3-.3-2.4 1.7c-.3.2-.8.1-1-.2l-.1-.2a.7.7 0 0 1 .2-1zm28.9-.3L46.3 73c-.2-.1-.8.3-1 .3l-.5.2-1 .1c-.3.1-.6.5-.5.9v.2c.1.4.5.7.9.6l1.4-.4 2.4 1.7c.3.3.7.2 1-.2v-.1c.3-.4.2-.8-.1-1z" fill="#EDA602"/><path d="M64.8 113.2c-.5-2.5-3.2-5.2-5.8-7.8-1.7-1.6-4.8-1.3-6.5.4s-2 4.8-.2 6.5c2.6 2.6 5.3 5.2 7.8 5.7 1.9.5 3.5-.2 4-.7.6-.6 1.2-2.2.7-4.1z" fill="#2B2D2D"/><path d="M56.1 105.3a3 3 0 0 1 2.2.9c2.2 2.2 5 5 5.6 7.2.3 1.6-.2 2.8-.5 3.2-.2.2-1 .6-2 .6l-1.1-.1c-2.2-.5-5-3.3-7.3-5.5-1.2-1.2-1.1-3.7.3-5a4 4 0 0 1 2.8-1.2m0-1c-1.3 0-2.6.5-3.6 1.4-1.6 1.7-2 4.8-.2 6.5 2.6 2.6 5.3 5.2 7.8 5.7l1.2.2c1.3 0 2.4-.5 2.8-1 .6-.5 1.2-2.1.7-4-.5-2.5-3.2-5.2-5.8-7.8a4 4 0 0 0-2.9-1z" fill="#eee" opacity=".2"/><linearGradient id="a" x1="41.7" x2="41.7" y1="86.3" y2="124" gradientUnits="userSpaceOnUse"><stop stop-color="#FFB300" offset="0"/><stop stop-color="#FFCA28" offset=".4"/></linearGradient><path d="M22.2 82.6l7 41.2h6.1l-1-35.3c0-.2.3-.4.5-.4s1.3.1 1.4.4L43 101c.3.6.7 1.1 1.2 1.5l12.2 10.7a3 3 0 0 0 3.2.2 3 3 0 0 0 .6-4.7l-8.6-11.2a4 4 0 0 1-.6-1l-4.7-14-12.7-8-11.4 8z" fill="url(#a)"/><linearGradient id="b" x1="51.1" x2="61.2" y1="103.5" y2="114.6" gradientUnits="userSpaceOnUse"><stop stop-color="#FFB300" stop-opacity=".6" offset="0"/><stop stop-color="#FFCA28" stop-opacity="0" offset=".4"/></linearGradient><path d="M60.2 108.8l-9.3-11.9-.2-.3c.5 1 .8 2.3.3 3.7a4.5 4.5 0 0 1-6.7 2.3l12.1 10.7a3 3 0 0 0 3.2.2 3 3 0 0 0 .6-4.7z" fill="url(#b)"/><linearGradient id="c" x1="51.4" x2="51.4" y1="97.2" y2="104.1" gradientUnits="userSpaceOnUse"><stop stop-color="#FFB300" offset="0"/><stop stop-color="#FFCA28" offset=".4"/></linearGradient><path d="M51.2 97l.3.4-.3-.4z" fill="url(#c)"/><linearGradient id="d" x1="44.6" x2="44.6" y1="97.2" y2="104.1" gradientUnits="userSpaceOnUse"><stop stop-color="#FFB300" offset="0"/><stop stop-color="#FFCA28" offset=".4"/></linearGradient><path d="M44.1 102.5l1 .9-.9-.8z" fill="url(#d)"/><path d="M33.6 75.8l11.9 7.5L50 97c.2.4.4.9.7 1.2l8.6 11.2v.1a2 2 0 0 1-2.4 3L45 101.9a5 5 0 0 1-1-1.3l-7-12.4c-.4-1-2-1-2.3-1-.7 0-1.3.5-1.4 1.2v.2l.9 34.3H30l-6.8-39.7 10.3-7.3m0-1.2l-11.4 8 7 41.2h6.1l-1-35.3c0-.2.3-.4.5-.4s1.3.1 1.4.4L43 101c.3.6.7 1.1 1.2 1.5l12.2 10.7a2.9 2.9 0 0 0 3.2.2 3 3 0 0 0 .6-4.7l-8.6-11.2a4 4 0 0 1-.6-1l-4.7-14-12.7-8z" fill="#EDA600"/><path d="M53.8 60.3s-3.1-7.4-20-7.4-19 7.4-19 7.4l5.3 4.9h28.3l5.4-4.9z" fill="#444"/><linearGradient id="e" x1="34.2" x2="34.2" y1="43.3" y2="89.9" gradientUnits="userSpaceOnUse"><stop stop-color="#616161" offset="0"/><stop stop-color="#212121" offset=".9"/></linearGradient><path d="M53.7 60.3s-3-7.4-20-7.4-19 7.4-19 7.4l7.5 7v15.4l9.7 6.4a5.5 5.5 0 0 0 5 0l9.4-6.4V67.2l7.4-6.9z" fill="url(#e)"/><linearGradient id="f" x1="43" x2="48.6" y1="62.9" y2="71" gradientUnits="userSpaceOnUse"><stop stop-color="#FFB300" offset=".2"/><stop stop-color="#FFCA28" offset=".5"/></linearGradient><path d="M45.7 82c-1 0-1.5-.4-1.7-.6v-.7c0-.3-.2-.5-.4-.6l-.2-.2.3-.5c.2-.4 0-1-.3-1.2L43 78l.2-.5a1 1 0 0 0 0-1.5s0-.2.2-.3a5.4 5.4 0 0 1 1.8-.4h.4l2 .1h1l5.2-4.4.2-.3c0-.1 0-.3-.2-.4l-7-6.5 5.3-3.8 7 9.4c1 1 1 2.6.1 3.5L49 81.3c-1.3.5-2.5.7-3.4.7z" fill="url(#f)"/><path d="M52.1 60.6l6.8 9c.7.8.7 2.1.1 2.8l-10.2 8.3a9 9 0 0 1-3.1.7c-.6 0-1 0-1.2-.2v-.6a1 1 0 0 0-.5-.8l.1-.2c.3-.6.1-1.4-.4-1.8.5-.6.6-1.3.3-2l1.3-.1h.4l2 .1h.6c.3 0 .5 0 .7-.2l5.2-4.3a1 1 0 0 0 0-1.5l-6.5-6.1 4.4-3m.2-1.5l-6.2 4.4 7.5 7-5.2 4.3-2.7-.2h-.4s-1.7.1-2.1.5c-.4.3-.4.8-.2 1 .2.2.2.7 0 .9a1 1 0 0 0-.4.8c0 .3.2.5.5.7.1.1.2.4.1.5l-.3 1c.1.3.6.4.7.8 0 0-.4.5 0 .9.4.3 1 .6 2.1.6 1 0 2.1-.2 3.6-.8l10.4-8.4c1-1.1 1-3 0-4.2l-7.4-9.8z" fill="#EDA600"/><linearGradient id="g" x1="128.2" x2="133.8" y1="62.9" y2="71" gradientTransform="matrix(-1 0 0 1 154.1 0)" gradientUnits="userSpaceOnUse"><stop stop-color="#FFB300" offset=".2"/><stop stop-color="#FFCA28" offset=".5"/></linearGradient><path d="M23.1 82c-.9 0-2-.3-3.3-.8L9.5 72.8c-.8-.8-.8-2.4 0-3.4l7.1-9.5 5.3 3.8-7 6.5-.1.4c0 .2 0 .2.2.3l5.2 4.3.3.2h.7l2-.2h.4c.8 0 1.6.2 1.8.4v.3c-.3.4-.3 1 .1 1.5l.2.5-.2.3a1 1 0 0 0-.3 1.2l.2.5-.2.2-.4.6v.5l.1.2c-.2.2-.7.5-1.7.5z" fill="url(#g)"/><path d="M16.8 60.6l4.3 3.1-6.5 6.1c-.2.2-.3.5-.3.8s.1.5.3.7l5.2 4.3c.2.2.4.3.7.3h.7l2-.2h.4l1.3.2c-.3.6-.2 1.4.2 1.9-.5.4-.7 1.2-.4 1.8l.1.2c-.1.2-.4.4-.5.8v.6l-1.1.2a9 9 0 0 1-3.2-.6L9.8 72.5c-.6-.8-.6-2 .1-2.8l6.9-9m-.3-1.5L9.2 69c-1 1.2-1.1 3 0 4.2l10.3 8.4c1.6.6 2.7.8 3.7.8s1.6-.2 2-.6c.5-.4 0-.8 0-1 .2-.3.6-.3.7-.8 0-.2-.1-.6-.3-.8 0-.2 0-.5.2-.6.3-.2.4-.4.4-.7 0-.3 0-.6-.3-.8s-.3-.6 0-.9c.1-.2.2-.7-.2-1-.5-.4-2.1-.5-2.1-.5h-.4l-2.7.2-5.2-4.3 7.4-7-6.2-4.4z" fill="#EDA600"/><linearGradient id="h" x1="34.3" x2="34.3" y1="43.3" y2="89.9" gradientUnits="userSpaceOnUse"><stop stop-color="#616161" offset="0"/><stop stop-color="#212121" offset=".9"/></linearGradient><path d="M53.8 60.3s-3.1-7.4-20-7.4-19 7.4-19 7.4l7.3 6.9h24.3l7.4-6.9z" fill="url(#h)"/><path d="M24.2 74.8v-7.6c0-.5-.3-1-.7-1.4l-6.3-5.9a9 9 0 0 1 2.2-1.9c2.1-1.4 6.4-3 14.3-3a30 30 0 0 1 15 3.1c1.1.7 1.9 1.4 2.4 2l-6.2 5.7a2 2 0 0 0-.7 1.4V75c.6-.2 1.4-.3 2-.2v-7.5l7.5-6.9s-3-7.4-20-7.4-19 7.4-19 7.4l7.5 7v7.4h2z" fill="#eee" opacity=".2"/><defs><path id="i" d="M16.3 16.1h35.8v50H16.3z"/></defs><clipPath id="j"><use xlink:href="#i"/></clipPath><g clip-path="url(#j)"><linearGradient id="k" x1="34.3" x2="34.3" y1="52.5" y2="29.2" gradientUnits="userSpaceOnUse"><stop stop-color="#FFB300" offset="0"/><stop stop-color="#FFCA28" offset=".4"/></linearGradient><path d="M34.3 51.8c-.9 0-2-.2-3-.6a15.3 15.3 0 0 1-9.7-15c0-11.4 6.8-15.4 12.7-15.4 5.8 0 12.7 4 12.7 15.4 0 8.5-5.3 13.4-9.7 15-1 .4-2.1.5-3 .5z" fill="url(#k)"/><path d="M34.3 21.3c5.6 0 12.2 3.9 12.2 14.9 0 8.3-5 13-9.4 14.5-1 .4-2 .5-2.8.5-.8 0-1.8-.1-2.8-.5a14.8 14.8 0 0 1-9.4-14.5c0-11 6.6-15 12.2-15m0-1c-6.8 0-13.2 5.2-13.2 16a16 16 0 0 0 10 15.5 9.3 9.3 0 0 0 6.3 0c4.7-1.7 10-6.8 10-15.5 0-10.8-6.3-16-13.1-16z" fill="#EDA600"/><radialGradient id="l" cx="16.2" cy="44.1" r="3.5" gradientTransform="matrix(.9783 0 0 .9812 18.8 3.6)" gradientUnits="userSpaceOnUse"><stop stop-color="#543930" offset="0"/><stop stop-color="#543930" offset="1"/></radialGradient><path d="M38 45.5a10 10 0 0 1-6.6 0c-.8-.5-1.5.2-1.2.9.3.6 2.5 2.1 4.5 2.1s4.1-1.5 4.4-2.1c.3-.7-.4-1.3-1.1-1z" fill="url(#l)"/><g fill="#404040"><ellipse cx="27.9" cy="38" rx="1.9" ry="2"/><ellipse cx="40.9" cy="38" rx="1.9" ry="2"/></g><path d="M36 41.7h-3.1c-.3 0-.4.3-.3.6s.7 1 1.8 1a2 2 0 0 0 1.8-1c.1-.3 0-.5-.3-.6z" fill="#E59600"/><path d="M31 34.4c-.5-.5-1.3-1.2-3-1.2s-2.5.7-2.8 1.2c-.2.2-.2.5 0 .6 0 .2.4.3.7.2.4-.1 1-.5 2.1-.5 1.2 0 1.8.4 2.2.5s.6 0 .7-.2c.1-.1.2-.4 0-.6zm12.7 0c-.4-.5-1.2-1.2-2.9-1.2s-2.5.7-2.9 1.2v.6c.1.2.4.3.8.2.3-.1 1-.5 2.1-.5s1.8.4 2.2.5.6 0 .7-.2v-.6z" fill="#6D4C41"/></g><defs><path id="m" d="M53.8 60.3s-3.1-7.4-20-7.4-19 7.4-19 7.4l7.3 6.9h24.3l7.4-6.9z"/></defs><clipPath id="n"><use xlink:href="#m"/></clipPath><g clip-path="url(#n)"><linearGradient id="o" x1="34.3" x2="34.3" y1="51.6" y2="64.6" gradientUnits="userSpaceOnUse"><stop stop-color="#E49800" offset="0"/><stop stop-color="#FFB300" offset=".2"/><stop stop-color="#FFCA28" offset=".6"/></linearGradient><path d="M34.3 61.6c-6.8 0-10.5-4.4-10.5-7.4 0-3.1 4.7-5.7 10.5-5.7s10.5 2.6 10.5 5.7c0 3-3.8 7.4-10.5 7.4z" fill="url(#o)"/><path d="M34.3 49c5.4 0 10 2.4 10 5.2 0 2.8-3.6 6.9-10 6.9s-10-4-10-6.9c0-2.8 4.5-5.2 10-5.2m0-1c-6.1 0-11 2.8-11 6.2s4 7.9 11 7.9 11-4.4 11-7.9-5-6.2-11-6.2z" fill="#EDA600"/></g><path d="M33.9 57.3c-2 0-3.6-1.5-3.6-3.4v-4.3h8V54c0 1.9-1.7 3.4-3.6 3.4h-.9z" fill="#E49800"/><path d="M37.7 50.1V54a3 3 0 0 1-3 2.9h-.8c-1.7 0-3.1-1.3-3.1-2.9v-3.8h7m1-1h-9V54a4 4 0 0 0 4 3.9h.9a4 4 0 0 0 4-3.9v-4.8z" fill="#C78500"/><radialGradient id="p" cx="29.6" cy="101.9" r="3.2" gradientUnits="userSpaceOnUse"><stop stop-color="#FFD54F" offset=".2"/><stop stop-color="#FFCA28" offset=".8"/></radialGradient><ellipse cx="29.6" cy="101.9" rx="3.2" ry="3.2" fill="url(#p)"/><radialGradient id="q" cx="47.5" cy="99.9" r="3.2" gradientUnits="userSpaceOnUse"><stop stop-color="#FFD54F" offset=".2"/><stop stop-color="#FFCA28" offset=".7"/></radialGradient><ellipse cx="47.5" cy="99.9" rx="3.2" ry="3.2" fill="url(#q)"/><path d="M32 124h-4.4c-.8 0-1.4-1-1.1-1.8.7-2.4 3-4.2 5.5-4.2a6 6 0 0 1 5.6 4.4c.2.8-.4 1.6-1.2 1.6H32z" fill="#2B2D2D"/><path d="M32 119c2.1 0 4 1.5 4.6 3.7v.2l-.2.1h-8.7l-.2-.1c0-.1-.1-.3 0-.4.5-2 2.4-3.5 4.5-3.5m0-1a5.9 5.9 0 0 0-5.5 4.3c-.3.8.3 1.7 1.1 1.7h8.8c.8 0 1.4-.8 1.2-1.6A6 6 0 0 0 32 118z" fill="#eee" opacity=".2"/><defs><path id="r" d="M16.3 16.1h35.8v35.8H16.3z"/></defs><clipPath id="s"><use xlink:href="#r"/></clipPath><g clip-path="url(#s)"><path d="M23.5 42.8c-2 0-3.7-1.8-3.7-4s1.7-4 3.7-4H45c2 0 3.7 1.9 3.7 4s-1.7 4-3.7 4H23.5z" fill="#E59600"/><path d="M45 35.4c1.7 0 3.2 1.5 3.2 3.4s-1.5 3.5-3.2 3.5H23.5c-1.7 0-3.2-1.5-3.2-3.5s1.5-3.4 3.2-3.4H45m0-1H23.5c-2.3 0-4.2 2-4.2 4.4s2 4.5 4.2 4.5H45c2.3 0 4.2-2 4.2-4.4s-2-4.5-4.2-4.5z" fill="#CC8600"/><linearGradient id="t" x1="34.2" x2="34.2" y1="18.9" y2="51.5" gradientUnits="userSpaceOnUse"><stop stop-color="#FFCA28" offset=".6"/><stop stop-color="#FFB300" offset="1"/></linearGradient><path d="M34.2 51.5c-6 0-12.7-4.8-12.7-15.2.1-8.3 5-17.3 12.8-17.3S47 28 47 36.3c0 10.4-6.6 15.2-12.7 15.2z" fill="url(#t)"/><path d="M34.2 19.5c3 0 6.1 1.7 8.4 4.6a20 20 0 0 1 3.8 12.2c0 4.6-1.3 8.5-3.8 11.1a11.4 11.4 0 0 1-8.4 3.6c-3.2 0-6.1-1.3-8.3-3.6a15.7 15.7 0 0 1-3.8-11c0-4.8 1.3-9.1 3.8-12.3 2.2-2.9 5.3-4.6 8.3-4.6m0-1c-6.8 0-13.1 7.3-13.1 17.9C21 46.8 27.6 52 34.2 52s13.2-5.2 13.2-15.6c0-10.6-6.4-17.9-13.2-17.9z" fill="#EDA600"/><path d="M24.8 34.5l.2-.2v-.1l.2-.1.2-.2.2-.1.2-.2.2-.1.3-.1.2-.1.7-.2h1.2l.6.2h.3l.3.2.2.1.2.2.2.1.2.1.1.2h.1l.2.3c.2.3.1.7-.2.9h-.8l-.1-.1h-.1l-.3-.2h-.5l-.2-.1H26.7c-.1 0 0 0 0 0l-.3.1H26.1v.1h-.2v.1l-.3.1c-.3.2-.7 0-.8-.3v-.6zm18.2.9h-.3l-.1-.1h-.1l-.1-.1h-.2l-.1-.1H41.8l-.3-.1h-1.9l-.1.1h-.2l-.3.1-.2.1-.2.1c-.4.2-.7 0-.9-.3l.1-.6.2-.2v-.1l.2-.2.2-.1.2-.1.2-.2.2-.1.3-.1.3-.1.6-.2h1.2l.6.2h.3l.3.2.2.1.2.2.2.1.2.2h.1l.1.2.2.2c.2.3 0 .7-.2.9H43z" fill="#6D4C41"/><g fill="#404040"><ellipse cx="27.8" cy="38" rx="1.9" ry="2"/><ellipse cx="40.7" cy="38" rx="1.9" ry="2"/></g><radialGradient id="u" cx="34.3" cy="17.2" r="11.9" gradientUnits="userSpaceOnUse"><stop stop-color="#6D4C41" offset="0"/><stop stop-color="#543930" offset="1"/></radialGradient><path d="M34.4 16.2c-18.4 0-14.2 20.3-14.2 20.3l1.9 3.6c-.1-2.9 1-7.9 1.8-10a2.5 2.5 0 0 1 2.7-1.6 43.4 43.4 0 0 0 15 0c1.3-.1 2.4.6 2.8 1.8l2.2 9.8 1.8-3.6s3.7-20.3-14-20.3z" fill="url(#u)"/><defs><path id="v" d="M34.4 16.2c-18 0-14.5 20.1-14.5 20.1l2.2 3.8.3-3.1-.4-2s-.6-3.7-.1-6 1.2-2.2 2.7-3l9.7-5 9.6 5c1.5.8 2.2 1.3 2.6 3 .5 1.6-.1 6.4-.1 6.4l-.5 1.6.7 3.1 1.9-3.7S52 16.2 34.4 16.2z"/></defs><clipPath id="w"><use xlink:href="#v"/></clipPath><g clip-path="url(#w)"><path d="M34.4 18.2c4.1 0 7.3 1.2 9.3 3.6 2.4 2.9 3 7 3 10l-.4-2a4.4 4.4 0 0 0-5-3.2 42.8 42.8 0 0 1-15.1 0 4.4 4.4 0 0 0-4.2 2.8l-.2.8c.2-2.7 1-5.9 3-8.3 2-2.5 5.3-3.7 9.6-3.7m0-2c-18 0-14.4 20.2-14.4 20.2l2 3.7c0-2.9 1.1-7.9 2-10a2.4 2.4 0 0 1 2.6-1.5 43.4 43.4 0 0 0 15 0h.4c1.1 0 2 .7 2.4 1.7l2.2 9.8 1.8-3.6s3.7-20.3-14-20.3z" fill="#402821"/></g><path d="M37.5 45.2a10 10 0 0 1-6.6 0c-.8-.4-1.5.2-1.2.9.3.6 2.5 2.1 4.5 2.1s4.1-1.5 4.4-2.1c.3-.7-.4-1.3-1.1-.9z" fill="#795548"/><path d="M35.5 41.6h-3c-.3.1-.4.4-.3.6s.7 1.1 1.8 1.1a2 2 0 0 0 1.8-1c0-.3 0-.6-.3-.7z" fill="#E59600"/></g><linearGradient id="x" x1="34.3" x2="34.3" y1="-.6" y2="24.7" gradientUnits="userSpaceOnUse"><stop stop-color="#444" offset="0"/><stop stop-color="#212121" offset=".6"/></linearGradient><path d="M49.8 5.3c-.1-1-1.2-1.6-2.1-1.2-2.2.8-6 2.6-7.9 6-1.4 2.4-2 6-2.2 9.1a2 2 0 0 1-2.2 1.9h-2.3a2 2 0 0 1-2.1-1.9c-.3-3-.9-6.7-2.3-9.2a15.2 15.2 0 0 0-7.9-5.9c-1-.3-2 .2-2.1 1.2-.4 2.4-.8 6.6 1.2 9.9 1.4 2.4 4.3 4.8 6.7 6.5a1 1 0 0 1 0 1.6 11 11 0 0 0-2.3 2.6c-.6.9.5 2 1.4 1.4 1.7-1.1 4.4-2 8.5-2s6.9.9 8.6 2c1 .6 2-.5 1.4-1.4-.6-1-1.4-1.8-2.4-2.6a1 1 0 0 1 0-1.6c2.5-1.7 5.4-4 6.8-6.6 2-3.2 1.6-7.4 1.2-9.8z" fill="url(#x)"/><path d="M42.2 11.8c-1 1.8-1.3 4.8-1.3 6.1 0 .3.3.5.5.4 1.1-.7 3.6-2.5 4.7-4.3.9-1.5.8-3.5.7-4.6 0-.5-.6-.7-1-.5-1 .4-2.7 1.3-3.6 2.9zm-15.8 0c1 1.8 1.2 4.8 1.3 6.2 0 .3-.3.4-.6.3-1.1-.7-3.6-2.4-4.7-4.3a7.9 7.9 0 0 1-.7-4.6c.1-.4.6-.7 1-.5 1 .4 2.7 1.3 3.6 2.9z" fill="#FF4081"/><path d="M20.2 5h.2c2 .8 5.7 2.5 7.4 5.5 1.1 2 1.8 5 2.2 8.8a3 3 0 0 0 3 2.7h.2a19.2 19.2 0 0 1 2.3 0 3 3 0 0 0 3-2.7 22 22 0 0 1 2.2-8.8A14.3 14.3 0 0 1 48.3 5c.2 0 .5.2.6.5.3 2.1.7 6-1.1 9.1a22 22 0 0 1-6.5 6.3 2 2 0 0 0-.9 1.6c0 .6.3 1.2.8 1.6a10 10 0 0 1 2.2 2.4C41 25 38 24.2 34.2 24.2s-6.8.8-9 2.2c.5-.9 1.2-1.6 2-2.3.6-.4.9-1 .8-1.7s-.3-1.2-.8-1.5a21.8 21.8 0 0 1-6.5-6.3c-1.8-3-1.4-7-1-9.1 0-.3.3-.5.5-.5m0-1c-.7 0-1.4.5-1.5 1.3-.4 2.4-.8 6.5 1.1 9.8 1.5 2.5 4.3 4.9 6.8 6.6a1 1 0 0 1 0 1.6 11 11 0 0 0-2.3 2.6c-.5.7.1 1.6.8 1.6.2 0 .4 0 .6-.2 1.7-1.1 4.5-2 8.6-2s6.8.9 8.5 2l.6.2c.7 0 1.3-.9.8-1.6-.6-1-1.3-1.8-2.3-2.6a1 1 0 0 1 0-1.6c2.5-1.7 5.3-4 6.8-6.6 1.9-3.3 1.5-7.4 1.1-9.8a1.6 1.6 0 0 0-2.1-1.2c-2.2.8-6 2.6-7.9 6a24 24 0 0 0-2.3 9.1c0 1-1 1.9-2 1.9h-2.6a2 2 0 0 1-2-1.9c-.2-3-.8-6.7-2.2-9.2a15.2 15.2 0 0 0-8.5-6z" fill="#eee" opacity=".2"/><path d="M120.8 113.2c-.5-2.5-3.2-5.2-5.8-7.8-1.7-1.6-4.8-1.3-6.5.4s-2 4.8-.2 6.5c2.6 2.6 5.3 5.2 7.8 5.7 1.9.5 3.5-.2 4-.7.6-.6 1.2-2.2.7-4.1z" fill="#2B2D2D"/><path d="M112.1 105.3a3 3 0 0 1 2.2.9c2.2 2.2 5 5 5.6 7.2.3 1.6-.2 2.8-.5 3.2-.2.2-1 .6-2 .6l-1.1-.1c-2.2-.5-5-3.3-7.3-5.5-1.2-1.2-1.1-3.7.3-5a4 4 0 0 1 2.8-1.2m0-1c-1.3 0-2.6.5-3.6 1.4-1.6 1.7-2 4.8-.2 6.5 2.6 2.6 5.3 5.2 7.8 5.7l1.2.2c1.3 0 2.4-.5 2.8-1 .6-.5 1.2-2.1.7-4-.5-2.5-3.2-5.2-5.8-7.8a4 4 0 0 0-2.9-1z" fill="#eee" opacity=".2"/><linearGradient id="y" x1="97.7" x2="97.7" y1="86.3" y2="124" gradientUnits="userSpaceOnUse"><stop stop-color="#FFB300" offset="0"/><stop stop-color="#FFCA28" offset=".4"/></linearGradient><path d="M78.2 82.6l7 41.2h6.1l-1-35.3c0-.2.3-.4.5-.4s1.3.1 1.4.4L99 101c.3.6.7 1.1 1.2 1.5l12.2 10.7a3 3 0 0 0 3.2.2 3 3 0 0 0 .6-4.7l-8.6-11.2a4 4 0 0 1-.6-1l-4.7-14-12.7-8-11.4 8z" fill="url(#y)"/><linearGradient id="z" x1="107" x2="117.2" y1="103.5" y2="114.6" gradientUnits="userSpaceOnUse"><stop stop-color="#FFB300" stop-opacity=".6" offset="0"/><stop stop-color="#FFCA28" stop-opacity="0" offset=".4"/></linearGradient><path d="M116.2 108.8l-9.3-11.9-.2-.3c.5 1 .8 2.3.3 3.7a4.5 4.5 0 0 1-6.7 2.3l12.1 10.7a3 3 0 0 0 3.2.2 3 3 0 0 0 .6-4.7z" fill="url(#z)"/><linearGradient id="A" x1="107.3" x2="107.3" y1="97.2" y2="104.1" gradientUnits="userSpaceOnUse"><stop stop-color="#FFB300" offset="0"/><stop stop-color="#FFCA28" offset=".4"/></linearGradient><path d="M107.2 97l.3.4-.3-.4z" fill="url(#A)"/><linearGradient id="B" x1="100.6" x2="100.6" y1="97.2" y2="104.1" gradientUnits="userSpaceOnUse"><stop stop-color="#FFB300" offset="0"/><stop stop-color="#FFCA28" offset=".4"/></linearGradient><path d="M100.1 102.5l1 .9-.9-.8z" fill="url(#B)"/><path d="M89.6 75.8l11.9 7.5L106 97l.8 1.2 8.5 11.2v.1a2 2 0 0 1-2.4 3L101 101.9a5 5 0 0 1-1-1.3l-7-12.4c-.4-1-2-1-2.3-1-.7 0-1.3.5-1.4 1.2v.2l.9 34.3H86l-6.8-39.7 10.3-7.3m0-1.2l-11.4 8 7 41.2h6.1l-1-35.3c0-.2.3-.4.5-.4s1.3.1 1.4.4L99 101c.3.6.8 1.1 1.2 1.5l12.2 10.7a2.9 2.9 0 0 0 3.2.2 3 3 0 0 0 .6-4.7l-8.6-11.2a4 4 0 0 1-.5-1l-4.8-14-12.7-8z" fill="#EDA600"/><path d="M109.8 60.3s-3.1-7.4-20-7.4-19 7.4-19 7.4l5.3 4.9h28.3l5.4-4.9z" fill="#444"/><linearGradient id="C" x1="90.2" x2="90.2" y1="43.3" y2="89.9" gradientUnits="userSpaceOnUse"><stop stop-color="#616161" offset="0"/><stop stop-color="#212121" offset=".9"/></linearGradient><path d="M109.7 60.3s-3-7.4-20-7.4-19 7.4-19 7.4l7.5 7v15.4l9.7 6.4a5.5 5.5 0 0 0 5 0l9.3-6.4V67.2l7.5-6.9z" fill="url(#C)"/><linearGradient id="D" x1="99" x2="104.6" y1="62.9" y2="71" gradientUnits="userSpaceOnUse"><stop stop-color="#FFB300" offset=".2"/><stop stop-color="#FFCA28" offset=".5"/></linearGradient><path d="M101.7 82c-1 0-1.5-.4-1.7-.6v-.7c0-.3-.2-.5-.4-.6l-.2-.2.3-.5c.1-.4 0-1-.3-1.2L99 78l.2-.5a1 1 0 0 0 0-1.5s0-.2.2-.3a5.4 5.4 0 0 1 1.8-.4h.4l2 .1h1l5.2-4.4.2-.3c0-.1 0-.3-.2-.4l-7-6.5 5.3-3.8 7 9.4c1 1 1 2.6.1 3.5L105 81.3c-1.3.5-2.5.7-3.4.7z" fill="url(#D)"/><path d="M108.1 60.6l6.8 9c.7.8.7 2.1.1 2.8l-10.2 8.3a9 9 0 0 1-3.1.7c-.6 0-1 0-1.2-.2v-.6a1 1 0 0 0-.5-.8l.1-.2c.3-.6.1-1.4-.4-1.8.5-.6.6-1.3.3-2l1.3-.1h.4l2 .1h.6c.3 0 .5 0 .7-.2l5.2-4.3a1 1 0 0 0 0-1.5l-6.5-6.1 4.4-3m.2-1.5l-6.2 4.4 7.5 7-5.2 4.3-2.7-.2h-.4s-1.7.1-2.1.4c-.4.4-.4.9-.2 1.1.2.2.2.7 0 .9-.2.2-.4.5-.4.8 0 .3.2.5.5.7.1.1.2.4.1.5-.1.3-.3.7-.2.9 0 .4.5.5.6.8 0 .2-.4.6 0 1 .4.3 1 .6 2.1.6 1 0 2.1-.2 3.6-.8l10.4-8.4c1-1.2 1-3 0-4.2l-7.4-9.8z" fill="#EDA600"/><linearGradient id="E" x1="72.2" x2="77.8" y1="62.9" y2="71" gradientTransform="matrix(-1 0 0 1 154.1 0)" gradientUnits="userSpaceOnUse"><stop stop-color="#FFB300" offset=".2"/><stop stop-color="#FFCA28" offset=".5"/></linearGradient><path d="M79.2 82c-1 0-2.1-.3-3.4-.8l-10.3-8.4c-.8-.8-.8-2.4 0-3.4l7.1-9.5 5.3 3.8-7 6.5-.1.4c0 .2 0 .2.2.3l5.2 4.3.3.2h.7l2-.2h.4c.8 0 1.6.2 1.8.4v.3c-.3.4-.3 1 .1 1.5l.2.5-.2.3a1 1 0 0 0-.3 1.2l.2.5-.2.2-.4.6v.5l.1.2c-.2.2-.7.5-1.8.5z" fill="url(#E)"/><path d="M72.8 60.6l4.3 3.1-6.5 6.1c-.2.2-.3.5-.3.8s.1.5.4.7l5.1 4.3c.2.2.5.3.7.3h.7l2-.2h.4l1.3.2c-.3.6-.2 1.4.2 1.9-.5.4-.7 1.2-.4 1.8l.1.2c-.1.2-.4.4-.5.8v.6l-1.1.2a9 9 0 0 1-3.2-.6l-10.2-8.3c-.6-.8-.6-2 .1-2.8l6.8-9m-.2-1.5L65.2 69c-1 1.2-1.1 3 0 4.2l10.3 8.4c1.6.6 2.7.8 3.7.8s1.6-.2 2-.6c.5-.4 0-.8 0-1 .2-.3.6-.3.7-.8 0-.2-.1-.6-.3-.8 0-.2 0-.5.2-.6.3-.2.4-.4.4-.7 0-.3 0-.6-.3-.8s-.3-.6 0-.9c.1-.2.2-.7-.2-1-.5-.4-2.1-.5-2.1-.5h-.4l-2.7.2-5.2-4.3 7.4-7-6.2-4.4z" fill="#EDA600"/><linearGradient id="F" x1="90.3" x2="90.3" y1="43.3" y2="89.9" gradientUnits="userSpaceOnUse"><stop stop-color="#616161" offset="0"/><stop stop-color="#212121" offset=".9"/></linearGradient><path d="M109.8 60.3s-3.1-7.4-20-7.4-19 7.4-19 7.4l7.3 6.9h24.3l7.4-6.9z" fill="url(#F)"/><defs><path id="G" d="M72.3 16.1h35.8v50H72.3z"/></defs><clipPath id="H"><use xlink:href="#G"/></clipPath><g clip-path="url(#H)"><linearGradient id="I" x1="90.3" x2="90.3" y1="52.5" y2="29.2" gradientUnits="userSpaceOnUse"><stop stop-color="#FFB300" offset="0"/><stop stop-color="#FFCA28" offset=".4"/></linearGradient><path d="M90.3 51.8c-.9 0-2-.2-3-.6a15.3 15.3 0 0 1-9.7-15c0-11.4 6.9-15.4 12.7-15.4 5.8 0 12.7 4 12.7 15.4 0 8.5-5.3 13.4-9.7 15-1 .4-2.1.5-3 .5z" fill="url(#I)"/><path d="M90.3 21.3c5.6 0 12.2 3.9 12.2 14.9 0 8.3-5 13-9.4 14.5-1 .4-2 .5-2.8.5-.8 0-1.8-.1-2.8-.5a14.8 14.8 0 0 1-9.4-14.5c0-11 6.6-15 12.2-15m0-1c-6.8 0-13.2 5.2-13.2 16a16 16 0 0 0 10 15.5c1.2.3 2.3.5 3.2.5s2-.2 3.1-.5c4.7-1.7 10-6.8 10-15.5 0-10.8-6.3-16-13.1-16z" fill="#EDA600"/><radialGradient id="J" cx="73.5" cy="44.1" r="3.5" gradientTransform="matrix(.9783 0 0 .9812 18.8 3.6)" gradientUnits="userSpaceOnUse"><stop stop-color="#543930" offset="0"/><stop stop-color="#543930" offset="1"/></radialGradient><path d="M94 45.5a10 10 0 0 1-6.6 0c-.8-.5-1.5.2-1.2.9.3.6 2.5 2.1 4.5 2.1s4.1-1.5 4.4-2.1c.3-.7-.4-1.3-1.1-1z" fill="url(#J)"/><g fill="#404040"><ellipse cx="83.9" cy="38" rx="1.9" ry="2"/><ellipse cx="96.9" cy="38" rx="1.9" ry="2"/></g><path d="M92 41.7h-3.1c-.3 0-.4.3-.3.6s.7 1 1.8 1a2 2 0 0 0 1.8-1c.1-.3 0-.5-.3-.6z" fill="#E59600"/><path d="M87 34.4c-.5-.5-1.3-1.2-3-1.2s-2.5.7-2.8 1.2c-.2.2-.2.5 0 .6 0 .2.4.3.7.2.4-.1 1-.5 2.1-.5 1.2 0 1.8.4 2.2.5s.6 0 .7-.2c.1-.1.2-.4 0-.6zm12.7 0c-.4-.5-1.2-1.2-2.9-1.2s-2.5.7-2.9 1.2v.6c.1.2.4.3.8.2.3-.1 1-.5 2.1-.5s1.8.4 2.1.5.7 0 .8-.2v-.6z" fill="#6D4C41"/></g><path d="M80.2 74.8v-7.6c0-.5-.3-1-.7-1.4l-6.3-5.9a9 9 0 0 1 2.2-1.9c2.1-1.4 6.4-3 14.3-3a30 30 0 0 1 15 3.1c1.1.7 1.9 1.4 2.4 2l-6.2 5.7a2 2 0 0 0-.7 1.4V75c.6-.2 1.4-.3 2-.2v-7.5l7.5-6.9s-3-7.4-20-7.4-19 7.4-19 7.4l7.5 7v7.4h2z" fill="#eee" opacity=".2"/><defs><path id="K" d="M109.8 60.3s-3.1-7.4-20-7.4-19 7.4-19 7.4l7.3 6.9h24.3l7.4-6.9z"/></defs><clipPath id="L"><use xlink:href="#K"/></clipPath><g clip-path="url(#L)"><linearGradient id="M" x1="90.3" x2="90.3" y1="51.6" y2="64.6" gradientUnits="userSpaceOnUse"><stop stop-color="#E49800" offset="0"/><stop stop-color="#FFB300" offset=".2"/><stop stop-color="#FFCA28" offset=".6"/></linearGradient><path d="M90.3 61.6c-6.8 0-10.5-4.4-10.5-7.4 0-3.1 4.7-5.7 10.5-5.7s10.5 2.6 10.5 5.7c0 3-3.8 7.4-10.5 7.4z" fill="url(#M)"/><path d="M90.3 49c5.4 0 10 2.4 10 5.2 0 2.8-3.6 6.9-10 6.9s-10-4-10-6.9c0-2.8 4.5-5.2 10-5.2m0-1c-6.1 0-11 2.8-11 6.2s4 7.9 11 7.9 11-4.4 11-7.9-5-6.2-11-6.2z" fill="#EDA600"/></g><path d="M89.8 57.3c-2 0-3.5-1.5-3.5-3.4v-4.3h8V54c0 1.9-1.7 3.4-3.6 3.4h-.9z" fill="#E49800"/><path d="M93.7 50.1V54a3 3 0 0 1-3 2.9h-.8c-1.7 0-3.1-1.3-3.1-2.9v-3.8h7m1-1h-9V54a4 4 0 0 0 4 3.9h.9a4 4 0 0 0 4-3.9v-4.8z" fill="#C78500"/><radialGradient id="N" cx="85.6" cy="101.9" r="3.2" gradientUnits="userSpaceOnUse"><stop stop-color="#FFD54F" offset=".2"/><stop stop-color="#FFCA28" offset=".8"/></radialGradient><ellipse cx="85.6" cy="101.9" rx="3.2" ry="3.2" fill="url(#N)"/><radialGradient id="O" cx="103.5" cy="99.9" r="3.2" gradientUnits="userSpaceOnUse"><stop stop-color="#FFD54F" offset=".2"/><stop stop-color="#FFCA28" offset=".7"/></radialGradient><ellipse cx="103.5" cy="99.9" rx="3.2" ry="3.2" fill="url(#O)"/><path d="M88 124h-4.4c-.8 0-1.4-1-1.1-1.8.7-2.4 3-4.2 5.5-4.2a6 6 0 0 1 5.6 4.4c.2.8-.4 1.6-1.2 1.6H88z" fill="#2B2D2D"/><path d="M88 119c2.1 0 4 1.5 4.6 3.7v.2l-.2.1h-8.7l-.2-.1c0-.1-.1-.3 0-.4.5-2 2.4-3.5 4.5-3.5m0-1a5.9 5.9 0 0 0-5.5 4.3c-.3.8.3 1.7 1.1 1.7h8.8c.8 0 1.4-.8 1.2-1.6A6 6 0 0 0 88 118z" fill="#eee" opacity=".2"/><defs><path id="P" d="M72.3 16.1h35.8v35.8H72.3z"/></defs><clipPath id="Q"><use xlink:href="#P"/></clipPath><g clip-path="url(#Q)"><path d="M79.5 42.8c-2 0-3.7-1.8-3.7-4s1.7-4 3.7-4H101c2 0 3.7 1.9 3.7 4s-1.7 4-3.7 4H79.5z" fill="#E59600"/><path d="M101 35.4c1.8 0 3.2 1.5 3.2 3.4s-1.5 3.5-3.2 3.5H79.5c-1.7 0-3.2-1.5-3.2-3.5s1.5-3.4 3.2-3.4H101m0-1H79.5c-2.3 0-4.2 2-4.2 4.4s2 4.5 4.2 4.5H101c2.3 0 4.2-2 4.2-4.4s-2-4.5-4.2-4.5z" fill="#CC8600"/><linearGradient id="R" x1="90.2" x2="90.2" y1="18.9" y2="51.5" gradientUnits="userSpaceOnUse"><stop stop-color="#FFCA28" offset=".6"/><stop stop-color="#FFB300" offset="1"/></linearGradient><path d="M90.2 51.5c-6 0-12.7-4.8-12.7-15.2 0-8.3 5-17.3 12.8-17.3S103 28 103 36.3c0 10.4-6.6 15.2-12.7 15.2z" fill="url(#R)"/><path d="M90.2 19.5c3 0 6.1 1.7 8.4 4.6a20 20 0 0 1 3.8 12.2c0 4.6-1.4 8.5-3.9 11.1a11.4 11.4 0 0 1-8.3 3.6C87 51 84 49.7 82 47.4a15.7 15.7 0 0 1-3.9-11c0-4.8 1.4-9.1 3.9-12.3 2.2-2.9 5.3-4.6 8.3-4.6m0-1c-6.8 0-13.2 7.3-13.2 17.9C77 46.8 83.6 52 90.3 52s13.2-5.2 13.2-15.6c0-10.6-6.4-17.9-13.2-17.9z" fill="#EDA600"/><path d="M80.8 34.5l.2-.2v-.1l.2-.1.2-.2.2-.1.2-.2.2-.1.3-.1.2-.1.6-.2h1.3l.6.2h.3l.3.2.2.1.2.2.2.1.2.1.1.2h.1l.2.3c.2.3.1.7-.2.9h-.8l-.1-.1h-.1l-.3-.2h-.4l-.2-.1h-2c-.1 0 0 0 0 0l-.3.1H82.1v.1h-.2v.1l-.3.1c-.3.2-.7 0-.8-.3v-.6zm18.2.9h-.3l-.1-.1h-.1l-.1-.1h-.2l-.1-.1H97.8l-.3-.1h-1.9l-.1.1h-.2l-.3.1-.2.1-.2.1c-.4.2-.7 0-.9-.3l.1-.6.2-.2v-.1l.2-.2.2-.1.2-.1.2-.2.2-.1.3-.1.3-.1.6-.2h1.2l.6.2h.3l.3.2.2.1.2.2.2.1.2.2h.1l.1.2.2.2c.2.3 0 .7-.2.9H99z" fill="#6D4C41"/><g fill="#404040"><ellipse cx="83.8" cy="38" rx="1.9" ry="2"/><ellipse cx="96.7" cy="38" rx="1.9" ry="2"/></g><radialGradient id="S" cx="90.3" cy="17.2" r="11.9" gradientUnits="userSpaceOnUse"><stop stop-color="#6D4C41" offset="0"/><stop stop-color="#543930" offset="1"/></radialGradient><path d="M90.4 16.2c-18.4 0-14.2 20.3-14.2 20.3l1.8 3.6c0-2.9 1.1-7.9 2-10a2.3 2.3 0 0 1 2.6-1.6 43.4 43.4 0 0 0 15 0c1.3-.1 2.4.6 2.8 1.8l2.2 9.8 1.8-3.6s3.7-20.3-14-20.3z" fill="url(#S)"/><defs><path id="T" d="M90.4 16.2c-18 0-14.5 20.1-14.5 20.1l2.2 3.8.3-3.1-.4-2s-.6-3.7-.1-6 1.2-2.2 2.7-3l9.7-5 9.6 5c1.4.8 2.2 1.3 2.6 3 .5 1.6-.1 6.4-.1 6.4l-.5 1.6.7 3.1 1.9-3.7s3.6-20.2-14.1-20.2z"/></defs><clipPath id="U"><use xlink:href="#T"/></clipPath><g clip-path="url(#U)"><path d="M90.4 18.2c4.1 0 7.2 1.2 9.3 3.6 2.4 2.9 3 7 3 10l-.4-2a4.4 4.4 0 0 0-5-3.2 42.8 42.8 0 0 1-15.1 0 4.4 4.4 0 0 0-4.2 2.8l-.2.8c.2-2.7 1-5.9 3-8.3 2-2.5 5.3-3.7 9.6-3.7m0-2c-18 0-14.4 20.2-14.4 20.2l2 3.7c0-2.9 1.1-7.9 2-10a2.4 2.4 0 0 1 2.6-1.5 43.4 43.4 0 0 0 15 0h.4c1.1 0 2 .7 2.4 1.7l2.2 9.8 1.8-3.6s3.7-20.3-14-20.3z" fill="#402821"/></g><path d="M93.5 45.2a10 10 0 0 1-6.6 0c-.8-.4-1.5.2-1.2.9.3.6 2.5 2.1 4.5 2.1s4.1-1.5 4.4-2.1c.3-.7-.4-1.3-1.1-.9z" fill="#795548"/><path d="M91.5 41.6h-3c-.3.1-.4.4-.3.6s.7 1.1 1.8 1.1a2 2 0 0 0 1.8-1c0-.3 0-.6-.3-.7z" fill="#E59600"/></g><linearGradient id="V" x1="90.3" x2="90.3" y1="-.6" y2="24.7" gradientUnits="userSpaceOnUse"><stop stop-color="#444" offset="0"/><stop stop-color="#212121" offset=".6"/></linearGradient><path d="M105.8 5.3c-.1-1-1.2-1.6-2.1-1.2-2.2.8-6 2.6-7.9 6-1.4 2.4-2 6-2.2 9.1a2 2 0 0 1-2.2 1.9h-2.3a2 2 0 0 1-2.1-1.9c-.3-3-.9-6.7-2.3-9.2a15.2 15.2 0 0 0-7.9-5.9c-1-.3-2 .2-2.1 1.2-.4 2.4-.7 6.6 1.2 9.9 1.4 2.4 4.3 4.8 6.8 6.5a1 1 0 0 1 0 1.6c-1 .8-1.8 1.7-2.4 2.6-.6.9.5 2 1.4 1.4 1.7-1.1 4.5-2 8.6-2s6.8.9 8.5 2c1 .6 2-.5 1.4-1.4-.6-1-1.4-1.8-2.4-2.6a1 1 0 0 1 0-1.6c2.5-1.7 5.4-4 6.9-6.6 1.9-3.2 1.5-7.4 1.1-9.8z" fill="url(#V)"/><path d="M98.2 11.8c-1 1.8-1.3 4.8-1.3 6.1 0 .3.2.5.5.4 1.1-.7 3.6-2.5 4.7-4.3.9-1.5.8-3.5.7-4.6 0-.5-.5-.7-1-.5-1 .4-2.7 1.3-3.6 2.9zm-15.9 0a15 15 0 0 1 1.3 6.2c0 .3-.2.4-.5.3-1.1-.7-3.6-2.4-4.7-4.3a7.9 7.9 0 0 1-.7-4.6c.1-.4.6-.7 1-.5 1 .4 2.7 1.3 3.6 2.9z" fill="#FF4081"/><path d="M76.2 5h.2c2 .8 5.7 2.5 7.4 5.5 1.1 2 1.8 5 2.2 8.8a3 3 0 0 0 3 2.7h.2a19.2 19.2 0 0 1 2.3 0 3 3 0 0 0 3-2.7 22 22 0 0 1 2.2-8.8 14.3 14.3 0 0 1 7.5-5.5c.3 0 .6.2.6.5.4 2.1.7 6-1 9.1a22 22 0 0 1-6.5 6.3 2 2 0 0 0-.9 1.6c0 .6.3 1.2.8 1.6a10 10 0 0 1 2.2 2.4C97 25 94 24.2 90.2 24.2s-6.8.8-9 2.2c.5-.9 1.2-1.6 2-2.3.6-.4.9-1 .8-1.7s-.3-1.2-.8-1.5a21.8 21.8 0 0 1-6.5-6.3c-1.8-3-1.4-7-1-9.1 0-.3.3-.5.5-.5m0-1c-.7 0-1.4.5-1.5 1.3-.4 2.4-.8 6.5 1.1 9.8 1.5 2.5 4.4 4.9 6.8 6.6a1 1 0 0 1 0 1.6 11 11 0 0 0-2.3 2.6c-.5.7.1 1.6.8 1.6.2 0 .4 0 .6-.2 1.8-1.1 4.5-2 8.6-2s6.8.9 8.6 2l.5.2c.7 0 1.3-.9.8-1.6-.6-1-1.3-1.8-2.3-2.6a1 1 0 0 1 0-1.6c2.5-1.7 5.3-4 6.8-6.6 1.9-3.3 1.6-7.4 1.2-9.8a1.6 1.6 0 0 0-2.2-1.2c-2.2.8-6 2.6-7.9 6-1.4 2.4-2 6-2.2 9.1-.1 1-1 1.9-2 1.9H89c-1 0-2-.8-2-1.9-.3-3-.9-6.7-2.3-9.2a15.2 15.2 0 0 0-8.5-6zM43.8 82l-7.9 5.3a3.6 3.6 0 0 1-3 0l-8-5.2c-.7.3-1.7.4-2.6.3h-.2v.2l9.8 6.5a5.5 5.5 0 0 0 5 0l9.3-6.5v-.2c-.7.1-1.8 0-2.4-.5zm56 0l-7.9 5.3a3.6 3.6 0 0 1-3 0l-8-5.2c-.7.3-1.7.4-2.6.3h-.2v.2l9.8 6.5a5.5 5.5 0 0 0 5 0l9.3-6.5v-.2c-.7.1-1.8 0-2.4-.5z" fill="#eee" opacity=".2"/></svg>