<svg viewBox="0 0 128 128" xmlns="http://www.w3.org/2000/svg" xmlns:xlink="http://www.w3.org/1999/xlink"><defs><path id="a" d="M4 4h120v120H4z"/></defs><clipPath id="b"><use xlink:href="#a"/></clipPath><g clip-path="url(#b)"><linearGradient id="c" x1="56.223" x2="56.223" y1="97.196" y2="136.01" gradientUnits="userSpaceOnUse"><stop stop-color="#E3E3E3" offset=".001"/><stop stop-color="#C9C9C9" offset="1"/></linearGradient><path d="M5.72 136.01v-15.26c0-16.24 25.36-23.53 50.5-23.56h.13c25.03 0 50.37 8.09 50.37 23.56v15.26h-101z" fill="url(#c)"/><path d="M56.36 98.7c12.9 0 25.42 2.19 34.36 6 6.62 2.83 14.51 7.91 14.51 16.05v13.76h-98v-13.76c0-15.2 24.61-22.03 49-22.06l.13.01m0-3h-.13c-25.49.03-52 7.28-52 25.06v16.76h104v-16.76C108.22 104 81.96 95.7 56.36 95.7z" fill="#BBBDBF"/></g><g clip-path="url(#b)"><path d="M55.4 106.23c-4 0-7.26-3.22-7.26-7.17v-8.98H64.3v8.98c0 3.96-3.26 7.17-7.26 7.17H55.4z" fill="#C48E6A"/><path d="M63.3 91.08v7.98c0 3.4-2.81 6.17-6.26 6.17H55.4c-3.45 0-6.26-2.77-6.26-6.17v-7.98H63.3m2-2H47.14v9.98c0 4.51 3.7 8.17 8.26 8.17h1.65c4.56 0 8.26-3.66 8.26-8.17v-9.98h-.01z" fill="#B07853"/></g><g clip-path="url(#b)"><path d="M100.82 129.79l-8-.25c-6.96-.71-11.7-4.77-10.79-13.12 1.97-18.12 21.83-12.18 23.64-6.3 2.7 8.8-1.75 19.98-4.85 19.67z" fill="#E0BB95"/><path d="M100.94 130.76c-.06 0-.13 0-.19-.01l-7.97-.25c-4.16-.42-7.39-1.95-9.39-4.43-1.98-2.45-2.77-5.74-2.33-9.76.83-7.61 5.03-12.33 11.52-12.95 5.89-.56 12.83 2.64 14 6.47 2.27 7.38-.28 16.1-2.91 19.3-1.07 1.32-2.04 1.63-2.73 1.63zm-6.93-25.52c-.41 0-.83.02-1.24.06-3.23.31-8.79 2.17-9.78 11.23-.38 3.49.26 6.3 1.91 8.33 1.67 2.07 4.45 3.35 8.01 3.72l7.93.25h.07c.19.02.68-.2 1.27-.92 2.41-2.94 4.55-11.02 2.56-17.5-.76-2.48-5.76-5.17-10.73-5.17z" fill="#BA8F63"/><path d="M93.5 126c-.27 1.7.89 3.29 2.59 3.57l4.33.69c1.7.27 3.29-.89 3.57-2.59.27-1.7-.89-3.29-2.59-3.57l-4.33-.69c-1.7-.27-3.3.89-3.57 2.59z" fill="#E0BB95"/><path d="M100.91 131.12c-.21 0-.41-.02-.62-.05l-4.33-.69c-1.04-.17-1.96-.73-2.58-1.58s-.87-1.9-.7-2.94.73-1.96 1.58-2.58 1.9-.87 2.94-.7l4.33.69a3.949 3.949 0 1 1-.62 7.85zm-6.58-4.99c-.1.6.05 1.2.41 1.7s.89.82 1.49.91l4.33.69c1.24.2 2.41-.65 2.61-1.89s-.65-2.41-1.89-2.61l-4.33-.69c-.6-.1-1.2.05-1.7.41s-.83.88-.92 1.48z" fill="#BA8F63"/><path d="M94.71 121.54c-.26 1.71.91 3.31 2.62 3.58l5.68.87c1.71.26 3.31-.91 3.58-2.62.26-1.71-.91-3.31-2.62-3.58l-5.68-.87c-1.71-.26-3.32.91-3.58 2.62z" fill="#E0BB95"/><path d="M103.5 127c-.21 0-.42-.02-.63-.05l-5.68-.87c-1.08-.17-2.04-.75-2.69-1.63s-.91-1.97-.75-3.05a4.09 4.09 0 0 1 1.63-2.69c.88-.65 1.97-.91 3.05-.75l5.69.88c1.08.17 2.04.75 2.69 1.63s.91 1.97.75 3.05a4.09 4.09 0 0 1-1.63 2.69c-.72.51-1.56.79-2.43.79zm-5.69-7.15c-1.05 0-1.98.77-2.14 1.84a2.155 2.155 0 0 0 1.81 2.47l5.68.87a2.155 2.155 0 0 0 2.47-1.81 2.155 2.155 0 0 0-1.81-2.47l-5.69-.88c-.1-.01-.21-.02-.32-.02zm-3.1 1.69z" fill="#BA8F63"/><path d="M94.97 117.26a3.065 3.065 0 0 0 2.74 3.36l6.95.71a3.065 3.065 0 1 0 .62-6.1l-6.95-.71a3.059 3.059 0 0 0-3.36 2.74z" fill="#E0BB95"/><path d="M104.97 122.31c-.14 0-.28-.01-.42-.02l-6.95-.71a4.033 4.033 0 0 1-3.61-4.42 4.043 4.043 0 0 1 4.42-3.6l6.95.71c2.21.23 3.83 2.21 3.6 4.42a4.033 4.033 0 0 1-1.46 2.72c-.71.58-1.6.9-2.53.9zm-9.04-4.95a2.096 2.096 0 0 0 1.87 2.3l6.95.71c.57.06 1.1-.11 1.54-.46a2.098 2.098 0 0 0-1.11-3.71l-6.95-.71c-1.15-.13-2.18.71-2.3 1.87z" fill="#BA8F63"/><path d="M94.89 111.78a3.072 3.072 0 0 0 2.92 3.21l6.98.33c1.69.08 3.13-1.23 3.21-2.92s-1.23-3.13-2.92-3.21l-6.98-.33a3.072 3.072 0 0 0-3.21 2.92z" fill="#E0BB95"/><path d="M104.93 116.28h-.19l-6.98-.33c-2.22-.11-3.94-2-3.84-4.22a4.054 4.054 0 0 1 4.22-3.84l6.98.33c2.22.11 3.94 2 3.84 4.22a4.034 4.034 0 0 1-4.03 3.84zm-9.07-4.46c-.05 1.16.84 2.14 2 2.19l6.98.33c1.17.04 2.14-.84 2.19-2s-.84-2.14-2-2.19l-6.98-.33c-1.11-.06-2.13.85-2.19 2z" fill="#BA8F63"/><path d="M105.57 104.92c-.77-.19-3.45-1.06-5.22-1.45-.67-.15-2.45-.48-3.13-.49-2.18-.04-9.12 2.5-10.74 4.1-.79.78-5.75 12.15 4.03 10.37 4.09-.52 3.01-5.45 4.36-6.82 1.03-1.05 2.7-2.6 7.64-.91 1.38.47 3.76.45 4.63-.6 1.51-1.83.67-3.64-1.57-4.2z" fill="#E0BB95"/><path d="M109.09 106.31c-.38-1.13-1.46-1.99-2.96-2.35-.26-.06-.74-.2-1.32-.37-1.17-.34-2.78-.8-4-1.07-.62-.14-2.52-.49-3.38-.51-6.63-.15-9.7 2.08-11.66 4.3-1.29 1.45-.98 4.03-.63 3.54.69-.95 3.8-3.73 6.56-4.78 2.42-.92 3.83-1.2 5.72-1.17.58.01 2.26.31 2.97.46 1.15.25 2.72.71 3.87 1.04.62.18 1.13.33 1.4.39.83.2 1.41.6 1.57 1.1.14.43.13 1.25-.34 1.79-.49.57-2.61.73-3.88.3-1.8-.6-3.74-1.37-5.64-.94-1.44.33-3.14 1.25-3.71 2.6-.56 1.32-.09 4.75-2.2 6.8-.87.84-3.13 1.89-3.13 1.89s2.47.54 3.86-.25c1.96-1.12 2.9-3.62 3.29-5.64.17-.9.14-2.5.42-2.76.87-.86 1.88-2.12 6.41-.61 1.58.52 4.68 1.03 5.95-.45.89-1.06 1.19-2.24.83-3.31z" fill="#BA8F63"/></g><path d="M57.85 124.12h-3v-19.11c0-.53.67-.95 1.5-.95s1.5.43 1.5.95v19.11z" fill="#757575"/><circle cx="62.81" cy="112.3" r="2" fill="#757575"/><circle cx="62.81" cy="120.32" r="2" fill="#757575"/><path d="M73.24 93.31l-10.28 2.17c-3.41.75-6.07 3.73-6.61 8.58-.54-4.85-3.3-7.83-6.61-8.58l-10.28-2.17c-.63 0-1.15.66-1.15 1.47v8.5c0 .81.51 1.47 1.15 1.47 0 0 5.8 2.35 16.89 2.35s16.9-2.35 16.9-2.35c.63 0 1.15-.66 1.15-1.47v-8.5c-.01-.81-.53-1.47-1.16-1.47z" fill="#1565C0"/><path d="M28.9 72.26c-5.36 0-9.71-4.67-9.71-10.41s4.36-10.41 9.71-10.41h54.65c5.36 0 9.71 4.67 9.71 10.41s-4.36 10.41-9.71 10.41H28.9z" fill="#C48E6A"/><path d="M83.55 52.43c4.8 0 8.71 4.22 8.71 9.41s-3.91 9.41-8.71 9.41H28.9c-4.8 0-8.71-4.22-8.71-9.41s3.91-9.41 8.71-9.41h54.65m0-2H28.9c-5.89 0-10.71 5.14-10.71 11.41S23 73.26 28.9 73.26h54.65c5.89 0 10.71-5.14 10.71-11.41s-4.82-11.42-10.71-11.42z" fill="#B07853"/><linearGradient id="d" x1="56.222" x2="56.222" y1="94.591" y2="12.825" gradientUnits="userSpaceOnUse"><stop stop-color="#CCA47A" offset="0"/><stop stop-color="#D6B088" offset=".257"/><stop stop-color="#DEB892" offset=".589"/><stop stop-color="#E0BB95" offset="1"/></linearGradient><path d="M56.22 95.27c-15.66 0-32.52-12.14-32.52-38.81 0-12.38 3.56-23.79 10.02-32.13 6.04-7.79 14.25-12.27 22.5-12.27s16.45 4.47 22.5 12.27c6.46 8.34 10.02 19.75 10.02 32.13 0 12.09-3.51 22.19-10.14 29.21-5.86 6.19-13.81 9.6-22.38 9.6z" fill="url(#d)"/><path d="M56.22 13.07c7.94 0 15.85 4.33 21.71 11.88 6.33 8.16 9.81 19.35 9.81 31.52 0 11.83-3.41 21.7-9.87 28.52-5.67 5.99-13.36 9.29-21.65 9.29s-15.98-3.3-21.65-9.29c-6.46-6.82-9.87-16.69-9.87-28.52 0-12.16 3.49-23.35 9.81-31.52 5.86-7.55 13.77-11.88 21.71-11.88m0-2c-17.4 0-33.52 18.61-33.52 45.39 0 26.64 16.61 39.81 33.52 39.81S89.74 83.1 89.74 56.46c0-26.78-16.11-45.39-33.52-45.39z" fill="#BA8F63"/><path d="M32.21 50.73s.13-.19.38-.51c.07-.08.12-.16.22-.26.11-.11.23-.22.37-.34s.28-.24.43-.38c.15-.13.31-.23.48-.35.17-.11.34-.24.53-.35.19-.1.4-.21.6-.32.21-.12.43-.21.66-.3s.47-.18.71-.27c.49-.14 1-.29 1.54-.36.53-.1 1.08-.11 1.63-.14.55.03 1.09.03 1.63.14.53.07 1.05.22 1.54.36.24.08.48.17.71.27.23.09.45.18.66.3.21.11.41.22.6.32.19.11.36.24.53.35.17.12.33.22.47.34s.27.24.4.35c.12.11.24.21.34.31s.18.21.26.29c.31.36.46.57.46.57.51.7.35 1.69-.36 2.19-.43.31-.96.37-1.43.21l-.29-.1s-.19-.07-.49-.2c-.08-.03-.15-.07-.25-.11-.1-.03-.19-.07-.3-.11-.21-.08-.44-.17-.7-.25-.13-.04-.26-.09-.4-.13-.14-.03-.28-.07-.43-.11l-.22-.06c-.08-.01-.15-.03-.23-.04-.16-.03-.31-.07-.47-.1-.33-.04-.66-.11-1-.12-.34-.04-.69-.03-1.03-.05-.35.02-.7.01-1.03.05-.34.02-.67.09-1 .12-.16.03-.31.07-.47.1-.08.01-.16.03-.23.04l-.22.06c-.15.04-.29.07-.43.11s-.27.09-.4.13-.25.08-.37.11c-.1.04-.2.07-.29.1l-.27.09c-.1.04-.2.1-.29.14-.36.18-.57.27-.57.27-.83.34-1.77-.05-2.11-.87-.24-.48-.16-1.06.13-1.49z" fill="#AB872F"/><ellipse cx="39.79" cy="58.81" rx="4.93" ry="5.1" fill="#5D4037"/><path d="M78.27 53.13s-.22-.09-.57-.27c-.09-.04-.19-.1-.29-.14-.09-.02-.18-.06-.27-.09s-.19-.07-.29-.1c-.12-.04-.24-.07-.37-.11s-.26-.09-.4-.13-.28-.07-.43-.11l-.22-.06c-.08-.01-.15-.03-.23-.04-.16-.03-.31-.07-.47-.1-.33-.04-.66-.11-1-.12-.34-.04-.69-.03-1.03-.05-.35.02-.7.01-1.03.05-.34.02-.67.09-1 .12-.16.03-.31.07-.47.1-.08.01-.16.03-.23.04l-.22.06c-.15.04-.29.08-.43.11-.14.04-.27.09-.4.13-.26.07-.49.16-.7.25-.11.04-.2.08-.3.11-.09.04-.17.08-.25.11-.3.13-.49.2-.49.2l-.28.1c-.82.29-1.72-.15-2-.97-.17-.5-.08-1.03.21-1.44 0 0 .16-.22.46-.57.08-.09.16-.19.26-.29s.22-.2.34-.31.26-.23.4-.35.31-.22.47-.34c.17-.12.34-.24.53-.35.19-.1.4-.21.6-.32.21-.12.43-.21.66-.3s.46-.18.71-.27c.49-.14 1-.29 1.54-.36.53-.1 1.08-.11 1.63-.14.55.03 1.09.03 1.63.14.53.06 1.05.22 1.54.36.24.08.48.17.71.27.23.09.45.18.66.3.21.11.41.22.6.32.19.11.36.24.53.35.17.12.32.22.48.35.15.13.3.26.43.38s.26.23.37.34c.09.1.15.18.22.26.25.31.38.51.38.51.5.74.31 1.74-.43 2.25-.49.28-1.07.32-1.56.12z" fill="#AB872F"/><ellipse cx="72.66" cy="58.81" rx="4.93" ry="5.1" fill="#5D4037"/><path d="M60.08 68.06c-.11-.04-.21-.07-.32-.08h-7.07c-.11.01-.22.04-.32.08-.64.26-.99.92-.69 1.63s1.71 2.69 4.55 2.69 4.25-1.99 4.55-2.69c.3-.71-.06-1.37-.7-1.63z" fill="#C48E6A"/><path d="M64.75 76.14c-3.19 1.89-13.63 1.89-16.81 0-1.83-1.09-3.7.58-2.94 2.24.75 1.63 6.45 5.42 11.37 5.42s10.55-3.79 11.3-5.42c.76-1.66-1.09-3.33-2.92-2.24z" fill="#6D4C41"/><defs><path id="e" d="M56.22 4.03h-.04c-45.43.24-36.12 52.14-36.12 52.14s5.1 8.99 5.1 8.81c-.03-1.41.46-6.89.46-6.89l-2.68-2.92s3.89-25.44 6.79-24.91c4.45.81 26.54 2 26.57 2 7.83 0 14.92-.36 19.37-1.17 2.9-.53 9.64 1.7 10.68 4.45 1.33 3.54 3.13 19.71 3.13 19.71l-2.68 2.83s.49 5.51.46 6.89c0 .18 5.1-8.81 5.1-8.81s9.3-51.89-36.14-52.13z"/></defs><radialGradient id="f" cx="56.482" cy="4.274" r="48.85" gradientUnits="userSpaceOnUse"><stop stop-color="#BFA055" offset="0"/><stop stop-color="#AB872F" offset="1"/></radialGradient><path d="M56.24 4.03h-.04c-45.43.24-36.12 52.14-36.12 52.14s5.1 8.99 5.1 8.81c-.16-7.25 2.74-20.09 4.8-25.55a6.075 6.075 0 0 1 6.79-3.83c4.45.81 11.55 1.81 19.37 1.81h.16c7.83 0 14.92-1 19.37-1.81 2.9-.53 5.76 1.08 6.79 3.83 2.06 5.47 4.96 18.3 4.8 25.55 0 .18 5.1-8.81 5.1-8.81s9.32-51.9-36.12-52.14z" fill="url(#f)"/><path d="M56.24 4.03h-.04c-45.43.24-36.12 52.14-36.12 52.14s5 8.81 5.1 8.81c-.03-1.48.07-3.2.26-5.03-.12-.29-2.46-4.75-2.48-4.79-.24-1.6-.93-6.98-.55-13.56.41-7.04 2.17-16.96 8.22-24.22C36.3 10.58 44.9 7.1 56.19 7.03h.04c11.32.06 19.93 3.54 25.6 10.35C92.63 30.34 90 51.7 89.49 55.16c-.02.04-2.46 4.58-2.49 4.65.2 1.89.31 3.65.27 5.17.1 0 5.1-8.81 5.1-8.81s9.31-51.9-36.13-52.14z" fill="#8F7635"/><defs><path id="g" d="M97.43 102.01s.72.01 1.72.2c1.27.24 3.09.66 4.8 1.14.33.09.65.19.98.28.85.25 1.09.3 1.6.44 3.6.98 13.59-9.19 13.59-9.19l6.38-7.54-2-22.5-23.92-9.5L87.42 65.5l-2 20.25 6.33 13.67 5.68 2.59z"/></defs><clipPath id="h"><use xlink:href="#g"/></clipPath><g clip-path="url(#h)"><linearGradient id="i" x1="107.57" x2="102.07" y1="63.451" y2="113.07" gradientTransform="rotate(-1.329 -58.63 87.807)" gradientUnits="userSpaceOnUse"><stop stop-color="#616161" offset="0"/><stop stop-color="#5C5C5C" offset=".059"/><stop stop-color="#4C4C4C" offset=".312"/><stop stop-color="#434343" offset=".6"/><stop stop-color="#404040" offset=".996"/></linearGradient><path d="M99.7 104.61l1.48-8.97a.77.77 0 0 0-.55-.86c-8.55-2.36-14.01-10.46-12.98-19.27 1.05-9 8.67-15.79 17.72-15.79.7 0 1.4.04 2.1.12 4.74.55 8.98 2.92 11.94 6.66s4.28 8.41 3.73 13.15c-.97 8.33-7.73 14.93-16.07 15.71-.36.03-.64.31-.69.67l-1.08 9.41c-.74-.09-5.6-.83-5.6-.83z" fill="url(#i)"/><path d="M105.37 60.49c.67 0 1.34.04 2.01.12 9.37 1.09 16.09 9.6 15 18.97-.93 7.97-7.4 14.3-15.39 15.04-.72.07-1.29.63-1.37 1.34l-.99 8.63c-.83-.13-2.1-.32-4.04-.61l1.35-8.21a1.51 1.51 0 0 0-1.1-1.71c-8.19-2.26-13.41-10.01-12.43-18.44 1-8.63 8.29-15.13 16.96-15.13m0-1.52c-9.32 0-17.36 6.98-18.47 16.46-1.08 9.25 4.83 17.69 13.54 20.09l-1.6 9.73c.01 0 7.04 1.06 7.12 1.08l1.18-10.19c8.57-.8 15.72-7.48 16.76-16.38 1.19-10.21-6.12-19.46-16.33-20.66-.75-.09-1.48-.13-2.2-.13z" fill="#2B2B2E"/><path d="M116.41 77.81c1.83 7.54-3.84 15.13-10.79 10.19-6.94-4.95-13.26-4-10.77-10.6 2.5-6.6 4.49-12.41 9.7-11.04s10.04 3.91 11.86 11.45z" fill="#fff"/><linearGradient id="j" x1="105.58" x2="105.58" y1="75.929" y2="85.488" gradientTransform="rotate(-1.329 -58.63 87.807)" gradientUnits="userSpaceOnUse"><stop stop-color="#FFCA28" offset="0"/><stop stop-color="#FFC825" offset=".341"/><stop stop-color="#FFC21A" offset=".629"/><stop stop-color="#FFB809" offset=".898"/><stop stop-color="#FFB300" offset="1"/></linearGradient><circle cx="105.38" cy="77.23" r="5.16" fill="url(#j)"/></g><linearGradient id="k" x1="56.351" x2="56.351" y1="5.839" y2="45.116" gradientUnits="userSpaceOnUse"><stop stop-color="#E6E6E6" offset=".004"/><stop stop-color="#E3E3E3" offset=".349"/><stop stop-color="#DADADA" offset=".589"/><stop stop-color="#CBCBCB" offset=".796"/><stop stop-color="#B5B5B5" offset=".985"/><stop stop-color="#B3B3B3" offset="1"/></linearGradient><path d="M19.38 36.33c-.07-.6-.47-1.1-1.01-1.31-4.65-2.79-6.82-6.33-6.82-11.12v-2.04c0-13.54 17.14-16.26 44.8-16.26 30.14 0 44.8 5.32 44.8 16.26v2.04c0 5.2-1.93 8.55-6.44 11.22-.46.27-.74.74-.78 1.25-.11.77-1.32 7.53-2.27 12.83-4.26-.99-16.3-3.35-34.58-3.35-18.37 0-31.48 2.87-36.14 4.06l-1.56-13.58z" fill="url(#k)"/><path d="M56.35 7.2c29.07 0 43.2 4.8 43.2 14.66v2.04c0 4.62-1.64 7.47-5.66 9.84-.89.53-1.46 1.44-1.56 2.44-.13.84-1.11 6.33-1.96 11.11-5.37-1.13-16.85-3.03-33.31-3.03-16.56 0-28.93 2.32-34.75 3.68l-1.35-11.79c-.13-1.15-.86-2.1-1.87-2.55-4.11-2.5-5.95-5.5-5.95-9.7v-2.04C13.15 9.65 29.68 7.2 56.35 7.2m0-3.2C31.2 4 9.95 5.93 9.95 21.86v2.04c0 5.61 2.67 9.59 7.76 12.59-.05.01.08.02.08.02l1.77 15.43s14.79-4.5 37.51-4.5 35.86 3.72 35.86 3.72 2.64-14.67 2.59-14.68c5.09-3.01 7.23-6.98 7.23-12.59v-2.04C102.75 7.52 81.5 4 56.35 4z" fill="#B9BBBD"/><path d="M19.94 38.67c-.83 0-1.6-.54-1.87-1.39-.33-1.05.24-2.18 1.27-2.51.55-.18 13.81-4.42 36.93-4.42 23.13 0 35.84 4.24 36.37 4.42 1.03.35 1.58 1.48 1.24 2.53s-1.45 1.61-2.48 1.27c-.12-.04-12.71-4.22-35.13-4.22-22.45 0-35.61 4.18-35.74 4.23-.2.06-.4.09-.59.09z" fill="#B9BBBD"/></svg>