<svg xmlns="http://www.w3.org/2000/svg" viewBox="0 0 36 36"><path fill="#77B255" d="M32 36v-2a6 6 0 0 0-6-6H10a6 6 0 0 0-6 6v2h28z"/><path fill="#5C913B" d="M13.1 36a29.4 29.4 0 0 1 14-7.9A6 6 0 0 0 26 28h-3.6a39.7 39.7 0 0 0-11.5 8h2.2z"/><path fill="#AF7E57" d="M13.6 28.1c1.8 1.3 2.9 2 4.4 2 1.5 0 2.6-.7 4.3-2v-3.8h-8.7V28zm-2.2-12.2c0 1.5-.7 2.7-1.6 2.7s-1.6-1.2-1.6-2.7.7-2.6 1.6-2.6c.9 0 1.6 1.2 1.6 2.6m16.4 0c0 1.5-.7 2.7-1.6 2.7-1 0-1.7-1.2-1.7-2.7s.8-2.6 1.7-2.6c.9 0 1.6 1.2 1.6 2.6"/><path fill="#AF7E57" d="M9.5 17c0-5.6 3.7-11 8.4-11s8.6 5.4 8.6 11c0 5.5-3.8 10-8.5 10s-8.5-4.5-8.5-10"/><path fill="#60352A" d="M14 17a1 1 0 0 1-1-1v-1c0-.6.4-1 1-1s1 .5 1 1v1c0 .6-.5 1-1 1m8 0a1 1 0 0 1-1-1v-1c0-.6.4-1 1-1s1 .5 1 1v1c0 .6-.5 1-1 1"/><path fill="#915A34" d="M18.7 19.8h-1.5a.8.8 0 0 1 0-1.6h1.5a.8.8 0 0 1 0 1.6"/><path fill="#60352A" d="M24.3 20.3c-.7.8-2.1 2.3-3.5 1.5-2-1-2.8-.7-2.8-.7s-.9-.4-2.9.7c-1.4.8-2.8-.7-3.5-1.5-.5-.6-2.1-1.6-2.1 0a7 7 0 0 0 1.4 4c1.4 3.9 4.2 3.9 4.2 3.9.7.7 5 .7 5.7 0 0 0 2.8 0 4.2-4 0 0 1.4-1.6 1.4-4 0-1.5-1.6-.5-2 0zM18 23.9c-3 0-5-1.4 0-1.4s3 1.4 0 1.4z"/><path fill="#E6E7E8" d="M18 10s7.1 1.8 8.2 5.1c.5-1 .8-3.2.8-4.5C27 6.8 24 4 19.1 4H17c-4.2 0-8 2.8-8 6.6 0 1.3.3 3.7.8 4.7 1-3.3 8.2-5.4 8.2-5.4z"/><path fill="#D1D3D4" d="M24.2 9.4l2.1-.1c.2 0 .4-.1.5-.3 0-.3-.2-.7-.4-1v-.1c-3 0-5.8.7-8.6 2.1h.2s.8.1 2 .6a19 19 0 0 1 1.9-.7c1.7.6 3.5 1.7 5 3v-1.7c-.8-.7-1.7-1.3-2.7-1.8zm-15 3a30 30 0 0 1 16.3-5.9c-.5-.5-1-1-1.6-1.3C17.2 5.7 11.5 9 9 10.7l.1 1.6zm0-3.4a36 36 0 0 1 12.4-4.8C20.8 4 20 4 19.1 4h-1.7c-2.8 1-5.2 1.9-7 2.9A5 5 0 0 0 9.2 9z"/></svg>