<svg viewBox="0 0 128 128" xmlns="http://www.w3.org/2000/svg"><symbol id="f" viewBox="-64.5 -64.5 129 129"><g fill="none" stroke="#4285F4" stroke-miterlimit="10"><path d="M-64-64H64V64H-64z"/><path d="M36.95 37.82C27.32 46.32 14.2 51 0 51c-14.27 0-27.39-4.62-36.96-13.01C-47.45 28.79-53 15.65-53 0c0-15.58 5.55-28.69 16.04-37.92C-27.36-46.35-14.24-51 0-51c14.17 0 27.29 4.71 36.95 13.25C47.45-28.45 53-15.4 53 0c0 15.47-5.55 28.55-16.05 37.82z"/><path d="M0 55c-29.59 0-57-19.01-57-55 0-35.8 27.41-55 57-55S57-35.31 57 0c0 35.51-27.41 55-57 55z"/><path d="M0-43c-12.29 0-23.54 3.94-31.68 11.09C-40.39-24.25-45-13.21-45 0c0 29.7 22.6 43 45 43 21.67 0 45-13.46 45-43S21.67-43 0-43zM-.01 51V-51M-16 48.95v-97.88M15.99 48.91v-97.84M53 .08H-53"/></g></symbol><path d="M26.18 13.63c9.48 1.89 17.27 9.93 18.6 19.2" fill="none" stroke="#BA1E7B" stroke-miterlimit="10" stroke-width="4"/><radialGradient id="a" cx="20.342" cy="12.446" r="7.118" gradientUnits="userSpaceOnUse"><stop stop-color="#FFA3C1" offset=".166"/><stop stop-color="#FA98BC" offset=".291"/><stop stop-color="#ED7AAF" offset=".513"/><stop stop-color="#D94B99" offset=".802"/><stop stop-color="#CC2D8C" offset=".965"/></radialGradient><path d="M20.3 19.42c-3.81 0-6.97-2.86-7.2-6.51-.24-3.83 2.81-7.16 6.81-7.42.16-.01.33-.02.49-.02 3.81 0 6.97 2.86 7.2 6.51.24 3.83-2.81 7.16-6.81 7.42-.17.01-.33.02-.49.02z" fill="url(#a)"/><path d="M20.39 6.98c3.02 0 5.52 2.24 5.7 5.1.09 1.44-.41 2.83-1.4 3.93a5.885 5.885 0 0 1-4 1.9c-.13.01-.26.01-.4.01-3.02 0-5.52-2.24-5.71-5.1-.19-3.01 2.23-5.62 5.4-5.82.15-.02.28-.02.41-.02m0-3c-.2 0-.39 0-.59.02-4.83.3-8.5 4.34-8.2 9 .29 4.48 4.12 7.91 8.7 7.91.19 0 .39-.01.59-.02 4.83-.31 8.5-4.34 8.21-9.01-.3-4.47-4.13-7.9-8.71-7.9z" fill="#BA1E7B"/><path d="M102.18 12.63c-9.48 1.89-17.27 9.93-18.6 19.2" fill="none" stroke="#BA1E7B" stroke-miterlimit="10" stroke-width="4"/><radialGradient id="b" cx="107.02" cy="12.446" r="7.118" gradientUnits="userSpaceOnUse"><stop stop-color="#FFA3C1" offset=".166"/><stop stop-color="#FA98BC" offset=".291"/><stop stop-color="#ED7AAF" offset=".513"/><stop stop-color="#D94B99" offset=".802"/><stop stop-color="#CC2D8C" offset=".965"/></radialGradient><path d="M107.07 19.42c-.16 0-.33 0-.49-.02-4-.26-7.05-3.58-6.81-7.42.23-3.65 3.4-6.51 7.2-6.51.16 0 .33 0 .49.02 1.95.12 3.73.97 5.01 2.38 1.27 1.4 1.91 3.19 1.79 5.03-.22 3.66-3.39 6.52-7.19 6.52z" fill="url(#b)"/><path d="M106.97 6.98c.13 0 .26 0 .4.01 3.17.2 5.6 2.82 5.4 5.82-.18 2.86-2.69 5.1-5.71 5.1-.13 0-.26 0-.4-.01-1.56-.1-2.98-.77-4-1.9-1-1.09-1.5-2.49-1.4-3.93.19-2.85 2.7-5.09 5.71-5.09m0-3c-4.58 0-8.41 3.43-8.7 7.91-.3 4.67 3.38 8.7 8.21 9.01.2.01.39.02.59.02 4.58 0 8.41-3.43 8.7-7.91.3-4.67-3.38-8.7-8.21-9.01-.2-.02-.39-.02-.59-.02z" fill="#BA1E7B"/><radialGradient id="c" cx="49.199" cy="43.508" r="57.748" gradientUnits="userSpaceOnUse"><stop stop-color="#FFA3C1" offset=".166"/><stop stop-color="#FA98BC" offset=".291"/><stop stop-color="#ED7AAF" offset=".513"/><stop stop-color="#D94B99" offset=".802"/><stop stop-color="#CC2D8C" offset=".965"/></radialGradient><path d="M79.25 122.5c-4.5 0-8.01-2.06-9.88-5.79-1.1-2.2-1.33-4.16-1.33-5.41V77.81l-1.55.05c-1.18.04-2.36.06-3.53.06-.49 0-.99 0-1.48-.01l-1.52-.02v33.41c0 1.26-.23 3.21-1.33 5.41-1.87 3.74-5.38 5.79-9.88 5.79s-8.01-2.06-9.88-5.79c-1.1-2.2-1.33-4.16-1.33-5.41 0-1.98 1.61-3.58 3.58-3.58s3.58 1.61 3.58 3.58c0 .43.15 1.37.57 2.21.8 1.61 2.14 1.83 3.47 1.83s2.66-.22 3.47-1.83c.42-.84.57-1.78.57-2.21V77.46l-1.34-.14c-.77-.08-1.53-.17-2.29-.27-.48-.06-1.49-.23-2.69-.45l-1.76-.31v14.68c0 1.26-.23 3.21-1.33 5.41-1.87 3.74-5.38 5.79-9.88 5.79s-8.01-2.06-9.88-5.79c-1.1-2.2-1.33-4.16-1.33-5.41 0-1.98 1.61-3.58 3.58-3.58s3.58 1.61 3.58 3.58c0 .43.15 1.37.57 2.21.83 1.6 2.17 1.82 3.49 1.82 1.33 0 2.66-.22 3.47-1.83.42-.84.57-1.78.57-2.21v-16.3l-1.04-.33c-5.3-1.69-14.2-5.55-14.2-12.38 0-22.42 18.24-40.65 40.65-40.65s40.65 18.24 40.65 40.65c0 5.95-6.64 9.64-12.2 11.69l-1.12.41.16 1.19c.02.15.03.31.03.47v15.25c0 .43.15 1.37.58 2.21.8 1.61 2.14 1.83 3.47 1.83 1.32 0 2.66-.22 3.47-1.83.42-.85.58-1.79.58-2.21 0-1.98 1.61-3.58 3.58-3.58s3.58 1.61 3.58 3.58c0 1.26-.23 3.21-1.33 5.41-1.87 3.74-5.37 5.79-9.88 5.79-4.5 0-8.01-2.06-9.88-5.79-1.1-2.2-1.33-4.16-1.33-5.41V75.84l-1.86.47c-1.31.24-3.38.57-4.63.74l-1.58.21v34.04c0 .43.15 1.37.57 2.21.81 1.61 2.14 1.83 3.47 1.83s2.66-.22 3.47-1.83c.42-.84.58-1.78.58-2.21 0-1.98 1.61-3.58 3.58-3.58s3.58 1.61 3.58 3.58c0 1.26-.23 3.21-1.33 5.41-1.9 3.73-5.41 5.79-9.91 5.79z" fill="url(#c)"/><path d="M62.95 22.8c21.59 0 39.15 17.56 39.15 39.15 0 2.81-1.95 6.87-11.22 10.28l-2.25.83.31 2.37c.01.09.02.18.02.27v15.25c0 .7.23 1.87.73 2.88 1.19 2.39 3.32 2.66 4.81 2.66s3.62-.28 4.81-2.66c.51-1.01.73-2.18.73-2.88 0-1.15.93-2.08 2.08-2.08s2.08.93 2.08 2.08c0 1.09-.2 2.8-1.17 4.74-1.62 3.25-4.57 4.96-8.53 4.96s-6.91-1.72-8.53-4.96c-.97-1.94-1.17-3.65-1.17-4.74v-13.2l-.02-3.61-3.55.67c-1.34.25-3.38.57-4.63.74l-.3.05-2.6.35v35.34c0 .7.23 1.87.73 2.88 1.19 2.38 3.32 2.66 4.81 2.66s3.62-.28 4.81-2.66c.51-1.01.73-2.18.73-2.88 0-1.15.93-2.08 2.08-2.08s2.08.93 2.08 2.08c0 1.09-.2 2.8-1.17 4.74-1.62 3.25-4.57 4.96-8.53 4.96s-6.91-1.72-8.53-4.96c-.97-1.94-1.17-3.65-1.17-4.74V76.26l-3.09.1c-1.16.04-2.34.06-3.5.06-.48 0-.97 0-1.45-.01l-3.04-.04v34.93c0 1.09-.2 2.8-1.17 4.74-1.62 3.25-4.57 4.96-8.53 4.96s-6.91-1.72-8.53-4.96c-.97-1.94-1.17-3.65-1.17-4.74 0-1.15.93-2.08 2.08-2.08s2.08.93 2.08 2.08c0 .7.23 1.87.73 2.88 1.19 2.38 3.32 2.66 4.81 2.66s3.62-.28 4.81-2.66c.51-1.01.73-2.18.73-2.88V76.11l-2.68-.29c-.76-.08-1.51-.17-2.25-.27-.41-.05-1.39-.22-2.62-.44l-3.53-.63v16.47c0 1.09-.2 2.8-1.17 4.74-1.62 3.25-4.57 4.96-8.53 4.96s-6.91-1.72-8.53-4.96c-.97-1.94-1.17-3.65-1.17-4.74 0-1.15.93-2.08 2.08-2.08s2.08.93 2.08 2.08c0 .7.23 1.87.73 2.88 1.19 2.38 3.32 2.66 4.81 2.66s3.62-.28 4.81-2.66c.51-1.01.73-2.18.73-2.88V73.56l-2.09-.67c-4.92-1.57-13.16-5.08-13.16-10.95C23.8 40.37 41.36 22.8 62.95 22.8m0-3c-23.28 0-42.15 18.87-42.15 42.15 0 6.32 6.21 10.92 15.25 13.81v15.2c0 .23-.12.94-.42 1.54-.36.72-.79 1-2.12 1s-1.77-.28-2.12-1c-.3-.6-.42-1.3-.42-1.54 0-2.81-2.28-5.08-5.08-5.08s-5.08 2.28-5.08 5.08c0 1.67.36 3.82 1.49 6.09 2.02 4.05 5.89 6.62 11.22 6.62s9.19-2.57 11.22-6.62c1.13-2.26 1.49-4.41 1.49-6.09V78.07c1.23.22 2.27.39 2.76.46.77.1 1.54.19 2.32.28v32.49c0 .23-.12.94-.42 1.54-.36.72-.79 1-2.12 1-1.34 0-1.77-.28-2.12-1-.3-.6-.42-1.3-.42-1.54 0-2.81-2.28-5.08-5.08-5.08s-5.08 2.28-5.08 5.08c0 1.67.36 3.82 1.49 6.09 2.02 4.05 5.89 6.62 11.22 6.62s9.19-2.57 11.22-6.62c1.13-2.26 1.49-4.41 1.49-6.09V79.4c.5.01.99.01 1.49.01 1.2 0 2.4-.02 3.59-.06v31.94c0 1.67.36 3.82 1.49 6.09 2.02 4.05 5.89 6.62 11.22 6.62s9.19-2.57 11.22-6.62c1.13-2.26 1.49-4.41 1.49-6.09a5.08 5.08 0 0 0-10.16 0c0 .23-.12.94-.42 1.54-.36.72-.79 1-2.12 1-1.34 0-1.77-.28-2.12-1-.3-.6-.42-1.3-.42-1.54V78.57c.09-.01.19-.03.29-.04 1.39-.19 3.44-.52 4.77-.77h.02v13.2c0 1.67.36 3.82 1.49 6.09 2.02 4.05 5.89 6.62 11.22 6.62s9.19-2.57 11.22-6.62c1.13-2.26 1.49-4.41 1.49-6.09 0-2.81-2.28-5.08-5.08-5.08s-5.08 2.28-5.08 5.08c0 .23-.12.94-.42 1.54-.36.72-.79 1-2.12 1-1.34 0-1.77-.28-2.12-1-.3-.6-.42-1.3-.42-1.54V75.71c0-.22-.01-.44-.04-.66 7.91-2.91 13.19-7.28 13.19-13.1-.06-23.28-18.93-42.15-42.21-42.15z" fill="#BA1E7B"/><circle cx="64" cy="49.68" r="16.75" fill="#fff" stroke="#BA1E7B" stroke-miterlimit="10" stroke-width="3"/><path d="M72.5 49.68c0 4.69-3.8 8.5-8.5 8.5s-8.5-3.81-8.5-8.5c0-4.7 3.8-8.5 8.5-8.5s8.5 3.8 8.5 8.5" fill="#242424"/></svg>