<svg viewBox="0 0 128 128" xmlns="http://www.w3.org/2000/svg" xmlns:xlink="http://www.w3.org/1999/xlink"><defs><path id="a" d="M4 4h120v120H4z"/></defs><clipPath id="b"><use xlink:href="#a"/></clipPath><g clip-path="url(#b)"><linearGradient id="c" x1="64" x2="64" y1="96.2" y2="129.4" gradientUnits="userSpaceOnUse"><stop stop-color="#00BFA5" offset="0"/><stop stop-color="#00B29A" offset=".7"/><stop stop-color="#00AB94" offset="1"/></linearGradient><path d="M14.4 129.4V120c0-7.6 5-13.7 15-18A93.6 93.6 0 0 1 64 96.2h.1c24.6 0 49.5 8.2 49.5 23.8v9.4H14.4z" fill="url(#c)"/><path d="M64.1 97.7a90 90 0 0 1 34 6c6.4 3 14 8 14 16.3v7.9H16v-8c0-15.3 24.2-22.2 48.1-22.2h.1m0-3H64c-25.5 0-51.1 7.5-51.1 25.3v10.9H115v-11c0-16.7-25.4-25.2-51-25.2z" fill="#009984"/></g><g clip-path="url(#b)"><path d="M63.2 107.2c-4 0-7.3-3.2-7.3-7.1v-9h16.2v9c0 4-3.3 7.1-7.3 7.1h-1.6z" fill="#C48E6A"/><path d="M71 92v8c0 3.5-2.7 6.2-6.2 6.2h-1.6a6.2 6.2 0 0 1-6.3-6.1v-8h14.2m2-2H54.9v10c0 4.5 3.7 8.1 8.3 8.1h1.6c4.6 0 8.3-3.6 8.3-8.1V90z" fill="#B07853"/></g><g clip-path="url(#b)"><defs><path id="d" d="M18.4 4h91.3v91.3H18.4z"/></defs><clipPath id="e"><use xlink:href="#d"/></clipPath><g clip-path="url(#e)"><path d="M36.7 72.3c-5.4 0-9.7-4.7-9.7-10.4s4.3-10.5 9.7-10.5h54.6c5.4 0 9.7 4.7 9.7 10.5s-4.3 10.4-9.7 10.4H36.7z" fill="#C48E6A"/><path d="M91.3 52.4c4.8 0 8.7 4.3 8.7 9.4s-3.9 9.5-8.7 9.5H36.7c-4.8 0-8.7-4.3-8.7-9.5s3.9-9.4 8.7-9.4h54.6m0-2H36.7c-6 0-10.7 5.2-10.7 11.4 0 6.3 4.8 11.5 10.7 11.5h54.6c6 0 10.7-5.2 10.7-11.5 0-6.2-4.8-11.4-10.7-11.4z" fill="#B07853"/><linearGradient id="f" x1="31.5" x2="96.5" y1="52.7" y2="52.7" gradientUnits="userSpaceOnUse"><stop stop-color="#CCA47A" offset="0"/><stop stop-color="#D6B088" offset=".3"/><stop stop-color="#DEB892" offset=".6"/><stop stop-color="#E0BB95" offset="1"/></linearGradient><path d="M64 94.3c-15.7 0-32.5-12.2-32.5-38.8 0-12.4 3.5-23.8 10-32.2 6-7.8 14.3-12.2 22.5-12.2s16.4 4.4 22.5 12.2c6.5 8.4 10 19.8 10 32.2a42 42 0 0 1-10.1 29.2A30.5 30.5 0 0 1 64 94.3z" fill="url(#f)"/><path d="M64 12c8 0 15.8 4.4 21.7 12a51.5 51.5 0 0 1 9.8 31.5c0 11.8-3.4 21.7-9.8 28.5a29.6 29.6 0 0 1-43.3 0 40.5 40.5 0 0 1-10-28.5 51.3 51.3 0 0 1 10-31.5A28.1 28.1 0 0 1 64 12m0-2c-17.4 0-33.5 18.7-33.5 45.5C30.5 82 47 95.3 64 95.3S97.5 82 97.5 55.5C97.5 28.7 81.4 10 64 10z" fill="#BA8F63"/><path d="M40.2 50.7l.4-.5.2-.2.4-.4.4-.4.5-.3.5-.4.6-.3.6-.3.8-.3 1.5-.3 1.6-.2a5 5 0 0 1 1.7.2l1.5.3a8.6 8.6 0 0 1 1.4.6l.6.3.5.4.5.3.4.4.3.3.3.3.4.5c.5.7.4 1.7-.3 2.2-.5.3-1 .4-1.5.2h-.3l-.4-.3h-.3l-.3-.2-.7-.2-.4-.2h-.4l-.2-.1h-.3l-.4-.2h-1l-1-.1h-1.1l-1 .1-.5.1H45l-.2.1-.4.1-.4.2h-.4l-.3.2H43l-.3.2-.5.3c-.9.3-1.8 0-2.1-.9-.3-.5-.2-1 0-1.5zm45.7 2.4l-.6-.2-.3-.2h-.3l-.3-.2h-.3l-.4-.2-.5-.1H83l-.2-.1-.5-.1-1-.1h-3l-.5.2h-.5l-.4.2-.4.1c-.3 0-.5.2-.7.3h-.3l-.2.2-.5.2h-.3c-.8.4-1.7 0-2-.9-.2-.5 0-1 .2-1.4l.5-.6.2-.3.4-.3c.2 0 .2-.2.4-.3l.4-.4.6-.3.6-.4.6-.3.7-.2 1.6-.4 1.6-.1 1.6.1c.6 0 1 .2 1.6.4a8.6 8.6 0 0 1 1.3.5l.6.4.6.3.4.4.5.3c.2.1.2.3.3.4l.3.3.3.5c.5.7.4 1.7-.4 2.2-.5.3-1 .3-1.5.1z" fill="#AB872F"/><g fill="#5D4037"><ellipse cx="47.4" cy="58.8" rx="4.9" ry="5.1"/><ellipse cx="80.6" cy="58.8" rx="4.9" ry="5.1"/></g><radialGradient id="g" cx="64.2" cy="4.3" r="48.9" gradientUnits="userSpaceOnUse"><stop stop-color="#FFEE58" offset="0"/><stop stop-color="#FDD835" offset="1"/></radialGradient><path d="M64 4c-45.5.3-36.2 52.2-36.2 52.2L33 65a90 90 0 0 1 4.8-25.6 6 6 0 0 1 6.8-3.8A111 111 0 0 0 64 37.4h.2c7.8 0 14.9-1 19.3-1.8a6 6 0 0 1 6.8 3.8A90 90 0 0 1 95 65c0 .2 5.1-8.8 5.1-8.8S109.4 4.2 64 4z" fill="url(#g)"/><path d="M67.9 68h-7.7c-.7.3-1 1-.7 1.7s1.7 2.7 4.5 2.7 4.3-2 4.6-2.7c.3-.7-.1-1.4-.7-1.6z" fill="#C48E6A"/><path d="M72.2 76.1a25.6 25.6 0 0 1-16.8 0c-1.8-1-3.7.6-3 2.3.8 1.6 6.5 5.4 11.4 5.4s10.6-3.8 11.3-5.4c.8-1.7-1-3.4-2.9-2.3z" fill="#6D4C41"/><defs><path id="h" d="M64 4c-45.5.3-36.2 52.2-36.2 52.2L33 65l.5-7-2.7-2.8s4-25.5 6.8-25c4.5.9 26.5 2 26.6 2 7.8 0 14.9-.3 19.4-1.1 2.9-.5 9.6 1.7 10.6 4.4 1.4 3.6 3.2 19.8 3.2 19.8L94.6 58s.5 5.5.4 6.9l5.1-8.8S109.4 4.2 64 4z"/></defs><clipPath id="i"><use xlink:href="#h"/></clipPath><g clip-path="url(#i)"><path d="M64 7c11.3 0 20 3.6 25.6 10.4 10.8 13 8.2 34.3 7.7 37.8h-.1c-1-6.3-2.8-13.1-4.2-16.8a9.1 9.1 0 0 0-10-5.8c-4.5.8-11.4 1.8-19 1.8v3-3a108.4 108.4 0 0 1-20.5-1.9 9.1 9.1 0 0 0-8.5 5.9 99.5 99.5 0 0 0-4.2 16.8c-.2-1.6-1-7-.5-13.6.4-7 2.1-17 8.2-24.2C44 10.6 52.7 7 64 7m0-3c-45.5.3-36.2 52.2-36.2 52.2L33 65a90 90 0 0 1 4.8-25.6 6 6 0 0 1 6.8-3.8A111 111 0 0 0 64 37.4h.2a111 111 0 0 0 20.4-1.9 6 6 0 0 1 5.7 4A90 90 0 0 1 95 65l5.1-8.8S109.4 4.2 64 4z" fill="#FBB914"/></g></g></g></svg>