<svg viewBox="0 0 128 128" xmlns="http://www.w3.org/2000/svg"><ellipse cx="64" cy="64.6" rx="53" ry="56.6"/><radialGradient id="a" cx="64.2" cy="48.9" r="57.5" gradientTransform="matrix(.9391 0 0 1.0904 3.8 -6.1)" gradientUnits="userSpaceOnUse"><stop stop-color="red" offset="0"/><stop stop-color="#FD0100" offset=".5"/><stop stop-color="#F60300" offset=".7"/><stop stop-color="#EA0700" offset=".9"/><stop stop-color="#D90D00" offset="1"/><stop stop-color="#D60E00" offset="1"/></radialGradient><path d="M64 122c-23.7 0-43-25.1-43-56l-.2-11.2c-.5-14.6-.9-27.2 6.7-35C33.8 13.1 45.8 10 64 10s30.2 3.1 36.5 9.6c7.6 7.9 7.2 20.5 6.7 35L107 66c0 30.9-19.3 56-43 56z" fill="url(#a)"/><path d="M64 12c17.7 0 29.1 3 35 9.1 7 7.2 6.7 19.4 6.2 33.6L105 66c0 29.8-18.4 54-41 54S23 95.8 23 66l-.2-11.3c-.5-14.1-.8-26.4 6.2-33.6 5.9-6 17.3-9 35-9m0-4C11 8 19 34 19 66s20.1 58 45 58 45-26 45-58 8-58-45-58z" fill="#B71C1C"/><path d="M34.4 24l2.5-2.7a2.7 2.7 0 0 1 4.5.7c2.6 6 8 17 12.7 16.4 6.4-.8 2.5-10.1 2.5-10.1 1 0 7 14.6-1.5 16.3-10.6 2-17.1-6.2-21.3-17.7-.3-1-.1-2 .6-2.8zm59.1 0l-2.6-2.7a2.7 2.7 0 0 0-4.4.7c-2.7 6-8.1 17-12.8 16.4-6.4-.8-2.4-10.1-2.4-10.1-1 0-7.1 14.6 1.5 16.3 10.5 2 17-6.2 21.2-17.7.4-1 .2-2-.5-2.8z"/><path d="M44.8 61.5L37.2 60a10 10 0 0 1-7.8-11.6c.6-3 3.5-5 6.4-4.4l11.9 2.3c3.3.6 5.5 4 4.8 7.3l-.5 3a6.2 6.2 0 0 1-7.2 4.9z" fill="#F6E56A"/><path d="M41.5 47.5c-2.3 0-4.4 2-4.4 5.3s2.1 5.2 4.4 5.2 4.4-2 4.4-5.2-2.1-5.2-4.4-5.2z"/><path d="M81.3 60.8l7.3-1.4c5-1 8.4-6 7.5-11.1a5.3 5.3 0 0 0-6.2-4.3l-11.4 2.2a6 6 0 0 0-4.6 7l.5 2.8a6 6 0 0 0 6.9 4.8z" fill="#F6E56A"/><path d="M84.7 47.4c-2.2 0-4.2 1.9-4.2 5s2 5 4.2 5 4.2-1.9 4.2-5-2-5-4.2-5zM27.6 81s.6 7.7 10.6 9.9c9.1 2 21.2-.4 24.2-1.8s5.5-2-.6-2.2-20.2-3-23.1-9.4c-3-6.4-12.5-6.1-11.1 3.5z"/><path d="M100.4 81s-.6 7.7-10.6 9.9c-9.1 2-21.3-.4-24.3-1.8s-5.4-2 .7-2.2 20.2-3 23.1-9.4c3-6.4 12.5-6.1 11.1 3.5z"/><radialGradient id="b" cx="63" cy="65.2" r="17.1" gradientTransform="scale(1 1.0106)" gradientUnits="userSpaceOnUse"><stop stop-color="red" offset="0"/><stop stop-color="#FD0100" offset=".5"/><stop stop-color="#F60300" offset=".7"/><stop stop-color="#EA0700" offset=".9"/><stop stop-color="#D90D00" offset="1"/><stop stop-color="#D60E00" offset="1"/></radialGradient><ellipse cx="64" cy="72.7" rx="15" ry="15.2" fill="url(#b)" stroke="#8A1515" stroke-miterlimit="10" stroke-width="4.2"/><path d="M86.8 109.6l-.1-.7c0-.2 0-.5-.2-.8v-.6l-.2-.5-.4-1.3-.7-1.5-.9-1.5-1.2-1.6-1.6-1.4-.9-.7-1-.7a111.2 111.2 0 0 0-2.1-1.2l-2.4-.9a31 31 0 0 0-10.9-1.7 34 34 0 0 0-5.6.5c-.5 0-1 .2-1.4.3l-1.3.3-2.6.7c-1.6.6-3.2 1.4-4.5 2.2l-2 1.3-1.5 1.5c-.5.4-.9 1-1.3 1.5l-1 1.5-.6 1.4-.4 1.3c-.3.8-.3 1.5-.4 2l-.2.6v.1c0 .3-.3.5-.6.4a.5.5 0 0 1-.4-.5V106.7l.2-1.5.5-1.8.9-1.9.6-1 .7-1c.5-.6 1-1.3 1.6-1.8.6-.7 1.4-1.2 2.1-1.8a29 29 0 0 1 11-4.6 38.5 38.5 0 0 1 12.5-.1c2 .4 4 1 5.9 1.7 1 .3 1.8.8 2.7 1.3l1.2.7 1.2.9c1.5 1 2.7 2.4 3.7 3.7l1.2 2 .8 2 .5 1.7.2 1.6v2.8c0 .3-.3.5-.6.5a.6.6 0 0 1-.5-.5z"/><ellipse cx="63.7" cy="12.3" rx="13.1" ry="8.1"/><ellipse transform="rotate(-61.7 55.7 117.4)" cx="55.7" cy="117.4" rx="4.8" ry="7.8"/><ellipse transform="rotate(-28.3 72.6 117.4)" cx="72.7" cy="117.4" rx="7.8" ry="4.8"/></svg>