<svg xmlns="http://www.w3.org/2000/svg" viewBox="0 0 36 36"><path fill="#9266CC" d="M31 36v-3.5c0-3.3-3.7-5.5-7-5.5H12c-3.3 0-7 2.2-7 5.5V36h26z"/><path fill="#744EAA" d="M14.2 31.3c.6 1.9 2 3.2 3.8 3.2s3.2-1.3 3.8-3.2c2-.9 3.2-2.4 3.2-4V27l-1-.1H11v.2c0 1.7 1.2 3.2 3.2 4z"/><path fill="#F7DECE" d="M23.5 27h-1.8v-3.2h-7.4V27h-1.8v.3c0 1.2 1.2 2.3 3 2.9.2 1.6 1.2 2.8 2.5 2.8s2.3-1.2 2.5-2.8c1.8-.6 3-1.7 3-3V27z"/><path fill="#EEC2AD" d="M14.3 25.2c1 1.1 2.3 1.4 3.7 1.4 1.4 0 2.6-.3 3.7-1.4v-3h-7.4v3z"/><path fill="#F7DECE" d="M27.8 16c0 1.4-.7 2.6-1.6 2.6-1 0-1.6-1.2-1.6-2.7s.7-2.6 1.6-2.6c.9 0 1.6 1.2 1.6 2.6m-16.4 0c0 1.5-.7 2.7-1.6 2.7s-1.6-1.2-1.6-2.7.7-2.6 1.6-2.6c1 0 1.6 1.2 1.6 2.6"/><path fill="#F7DECE" d="M9.7 15.7C9.7 10 13.4 5.2 18 5.2c4.6 0 8.3 4.7 8.3 10.5 0 5.9-3.7 10.3-8.3 10.3-4.5 0-8.2-4.4-8.2-10.3"/><path fill="#DF1F32" d="M18 23.5c-1.7 0-2.5-.8-2.6-.8a.7.7 0 1 1 1-1s.5.5 1.5.5 1.6-.5 1.6-.5c.3-.3.7-.3 1 0 .2.3.2.7 0 1-.1 0-1 .8-2.6.8"/><path fill="#662113" d="M14.6 17.9a.8.8 0 0 1-.8-.9v-.8c0-.5.3-.9.8-.9s.9.4.9.9v.8c0 .5-.4.9-.9.9m6.8 0a.8.8 0 0 1-.9-.9v-.8c0-.5.4-.9.9-.9.4 0 .8.4.8.9v.8c0 .5-.4.9-.8.9"/><path fill="#C1694F" d="M18.8 20.5h-1.7a.4.4 0 0 1-.4-.4v-.2c0-.2.2-.4.4-.4h1.7c.3 0 .5.2.5.4v.2c0 .2-.2.4-.5.4"/><path fill="#E6E7E8" d="M18 9.7s6.8 1.8 7.8 5c.4-1 .7-3.2.7-4.4 0-3.6-3-6.3-7.4-6.3h-2.2C13 4 9.5 6.7 9.5 10.3c0 1.2.3 3.5.7 4.5 1-3.2 7.8-5 7.8-5z"/><path fill="#D1D3D4" d="M23.9 9.3l2-.2c.1 0 .3 0 .4-.2 0-.4-.2-.7-.4-1v-.1c-2.7 0-5.4.7-8.1 2h.2l1.8.5 1.9-.6a13 13 0 0 1 4.6 2.8l.2-1.6a14 14 0 0 0-2.6-1.6zM9.6 12A29 29 0 0 1 25 6.5c-.4-.5-.8-.9-1.4-1.3C17.3 5.7 12 9 9.5 10.5l.1 1.5zm0-3.1a34 34 0 0 1 11.8-4.6C20.7 4 20 4 19.1 4h-1.7c-2.6 1-4.9 1.8-6.6 2.8-.5.6-1 1.3-1.1 2z"/></svg>