<svg xmlns="http://www.w3.org/2000/svg" viewBox="0 0 36 36"><path fill="#FFE51E" d="M18 3c6 0 16 3 16 16s0 16-3 16-7-3-13-3-10 3-13 3c-3.3 0-3-12-3-16C2 6 12 3 18 3z"/><path fill="#FFDC5D" d="M6 18.6C6 10 11.4 3 18 3s12 7 12 15.5S24.6 34 18 34 6 27 6 18.6z"/><path fill="#FFAC33" d="M13.3 32.7l-.2-.1a15.7 15.7 0 0 1-7-13.2c.2-2.3 1.4-3.2 2.6-4.2L10 14l3.2-3.1.3.2s4.7 2.8 8.3 2.8c3.6 0 7.7 1.7 8 5.6-.2 5.8-2.8 10.7-6.9 13l-.2.2h-.2c-1.3-.4-7.7-.4-9 0h-.2zm0-20.6l-2.6 2.6-1.4 1.2c-1.2 1-2 1.7-2.2 3.6.2 5.2 2.6 10 6.3 12.1 1.7-.3 7.5-.3 9.2 0 3.7-2.2 6.1-6.8 6.3-12-.3-3.3-3.9-4.8-7-4.8-3.5 0-7.4-2-8.6-2.7z"/><path fill="#FFDC5D" d="M7.1 20C7.1 12.3 12 6 18 6s10.9 6.3 10.9 14S24 34 18 34 7.1 27.7 7.1 20z"/><path fill="#FFAC33" d="M29 19.6c-.4-3.3-4-4.8-7.2-4.8-3.4 0-7.3-2-8.5-2.7l-2.6 2.6-1.4 1.2c-1.2 1-2 1.7-2.2 3.6l-1-.1c.2-2.3 1.4-3.2 2.6-4.2L10 14l3.2-3.1.3.2s4.7 2.8 8.3 2.8c3.6 0 7.7 1.7 8 5.6l-.9.1z"/><path fill="#FFE51E" d="M3 24v-1c0-5 3 .6 3-3s2-4 4-6l3-3s5 3 9 3 8 2 8 6 3-2 3 3v1h1v-5C34 6 24 1 18 1S2 6 2 19v5h1z"/><path fill="#DF1F32" d="M18 30a5.3 5.3 0 0 1-3.7-1.3 1 1 0 0 1 1.4-1.4s.8.7 2.3.7c1.5 0 2.3-.7 2.3-.7a1 1 0 0 1 1.4 0c.4.4.4 1 0 1.4-.1.1-1.4 1.3-3.7 1.3z"/><path fill="#C1694F" d="M19 25h-2a1 1 0 1 1 0-2h2a1 1 0 1 1 0 2z"/><path d="M13 22a1 1 0 0 1-1-1v-2a1 1 0 0 1 2 0v2c0 .6-.4 1-1 1zm10 0a1 1 0 0 1-1-1v-2a1 1 0 1 1 2 0v2c0 .6-.4 1-1 1z" fill="#662113"/></svg>