<svg xmlns="http://www.w3.org/2000/svg" viewBox="0 0 36 36"><path fill="#F3D2A2" d="M32 20c0-2.2-1.1-4-2.5-4C28 9.7 23.4 5.1 18 5.1S8 9.7 6.5 16.1V16C5.1 16 4 17.8 4 20c0 2.1 1 3.8 2.3 4 1.2 6.6 6 11 11.7 11 5.7 0 10.5-4.4 11.7-11 1.3-.2 2.3-2 2.3-4z"/><path fill="#662113" d="M13 21a1 1 0 0 1-1-1v-2a1 1 0 0 1 2 0v2c0 .6-.4 1-1 1zm10 0a1 1 0 0 1-1-1v-2a1 1 0 1 1 2 0v2c0 .6-.4 1-1 1z"/><path fill="#C1694F" d="M18 31c-4.2 0-5.5-1-5.7-1.3a1 1 0 0 1 1.4-1.4s1 .7 4.3.7c3.4 0 4.3-.7 4.3-.7a1 1 0 0 1 1.4 0c.4.4.4 1 0 1.4-.2.2-1.5 1.3-5.7 1.3zm1-5h-2a1 1 0 1 1 0-2h2a1 1 0 1 1 0 2z"/><path fill="#FFE51E" d="M18 1c8 0 13 6 13 11s-1 7-2 5l-2-4s-6 0-8-2c0 0 3 6-3 0 0 0 1 4-5-1 0 0-3 2-4 7-.3 1.4-2 0-2-5S9 1 18 1z"/></svg>