<svg viewBox="0 0 128 128" xmlns="http://www.w3.org/2000/svg" xmlns:xlink="http://www.w3.org/1999/xlink"><defs><path id="a" d="M4 4h120v120H4z"/></defs><clipPath id="b"><use xlink:href="#a"/></clipPath><g clip-path="url(#b)"><linearGradient id="c" x1="50" x2="50" y1="97.281" y2="136.1" gradientUnits="userSpaceOnUse"><stop stop-color="#448AFF" offset=".003"/><stop stop-color="#3B7DFF" offset=".404"/><stop stop-color="#2962FF" offset="1"/></linearGradient><path d="M-.5 136.1v-15.26c0-16.23 25.36-23.53 50.5-23.56h.13c25.03 0 50.36 8.09 50.36 23.56v15.26H-.5z" fill="url(#c)"/><path d="M50.13 98.78c12.9 0 25.42 2.19 34.36 6 6.62 2.83 14.51 7.91 14.51 16.05v13.76H1v-13.76c0-15.2 24.61-22.03 49-22.06l.13.01m0-3H50c-25.49.03-52 7.28-52 25.06v16.76h104v-16.76c0-16.76-26.26-25.06-51.87-25.06z" fill="#4073D4"/></g><g clip-path="url(#b)"><path d="M49.17 109.56c-4 0-7.26-3.22-7.26-7.17v-8.98h16.16v8.98c0 3.95-3.26 7.17-7.26 7.17h-1.64z" fill="#C48E6A"/><path d="M57.08 94.41v7.98c0 3.4-2.81 6.17-6.26 6.17h-1.65c-3.45 0-6.26-2.77-6.26-6.17v-7.98h14.17m2-2H40.92v9.98c0 4.51 3.7 8.17 8.26 8.17h1.65c4.56 0 8.26-3.66 8.26-8.17v-9.98h-.01z" fill="#B07853"/></g><g clip-path="url(#b)"><defs><path id="d" d="M-2 120.84v16.76h104v-16.76c0-16.79-26.35-25.09-52-25.06-25.49.03-52 7.28-52 25.06z"/></defs><clipPath id="e"><use xlink:href="#d"/></clipPath><g clip-path="url(#e)"><linearGradient id="f" x1="31.928" x2="31.928" y1="95.94" y2="136.89" gradientUnits="userSpaceOnUse"><stop stop-color="#FF9100" offset=".003"/><stop stop-color="#FF8400" offset=".44"/><stop stop-color="#FF6D00" offset="1"/></linearGradient><path d="M15.55 100.57v37.03h32.76L36.18 94.11c-7.72 1.24-14.88 3.35-20.63 6.46z" fill="url(#f)"/><linearGradient id="g" x1="30.757" x2="30.757" y1="96.019" y2="137.59" gradientUnits="userSpaceOnUse"><stop stop-color="#ff0" offset=".003"/><stop stop-color="#FFF200" offset=".678"/><stop stop-color="#FFEA00" offset="1"/></linearGradient><path d="M21.13 98.03l1.77 39.57h17.48L29.8 95.38a67.63 67.63 0 0 0-8.67 2.65z" fill="url(#g)"/><linearGradient id="h" x1="-233.83" x2="-233.83" y1="95.94" y2="136.89" gradientTransform="matrix(-1 0 0 1 -165.76 0)" gradientUnits="userSpaceOnUse"><stop stop-color="#FF9100" offset=".003"/><stop stop-color="#FF8400" offset=".44"/><stop stop-color="#FF6D00" offset="1"/></linearGradient><path d="M84.45 100.57v37.03H51.69l12.12-43.48c7.73 1.23 14.89 3.34 20.64 6.45z" fill="url(#h)"/><linearGradient id="i" x1="-235" x2="-235" y1="96.019" y2="137.59" gradientTransform="matrix(-1 0 0 1 -165.76 0)" gradientUnits="userSpaceOnUse"><stop stop-color="#ff0" offset=".003"/><stop stop-color="#FFF200" offset=".678"/><stop stop-color="#FFEA00" offset="1"/></linearGradient><path d="M78.87 98.03L77.1 137.6H59.62L70.2 95.38c3.05.72 5.96 1.61 8.67 2.65z" fill="url(#i)"/></g></g><path d="M4 52.5c0 9.34 20.59 16.92 46 16.92s46-7.57 46-16.92-92-9.35-92 0z" clip-path="url(#b)" fill="#FFEA00"/><path d="M91.38 52.49c-8.12-5.32-19.54-9.71-41.38-9.72-21.85.01-33.27 4.4-41.38 9.72-.62.41-.78 1.21-.32 1.8 4.45 5.83 23.46 11.57 41.7 11.59 18.24-.02 38-6.62 41.71-11.58.44-.6.3-1.4-.33-1.81z" clip-path="url(#b)" fill="#EDBF00"/><path clip-path="url(#b)" fill="none" d="M11 20.08h78v84H11z"/><g clip-path="url(#b)"><defs><path id="j" d="M8 32.04h84v76H8z"/></defs><clipPath id="k"><use xlink:href="#j"/></clipPath><g clip-path="url(#k)"><path d="M22.67 72.34c-5.36 0-9.71-4.67-9.71-10.41s4.36-10.41 9.71-10.41h54.65c5.36 0 9.71 4.67 9.71 10.41s-4.36 10.41-9.71 10.41H22.67z" fill="#C48E6A"/><path d="M77.33 52.52c4.8 0 8.71 4.22 8.71 9.41s-3.91 9.41-8.71 9.41H22.67c-4.8 0-8.71-4.22-8.71-9.41s3.91-9.41 8.71-9.41h54.66m0-2H22.67c-5.89 0-10.71 5.14-10.71 11.41 0 6.28 4.82 11.41 10.71 11.41h54.65c5.89 0 10.71-5.14 10.71-11.41.01-6.28-4.81-11.41-10.7-11.41z" fill="#B07853"/><linearGradient id="l" x1="50" x2="50" y1="94.676" y2="12.91" gradientUnits="userSpaceOnUse"><stop stop-color="#CCA47A" offset="0"/><stop stop-color="#D6B088" offset=".257"/><stop stop-color="#DEB892" offset=".589"/><stop stop-color="#E0BB95" offset="1"/></linearGradient><path d="M50 95.36c-15.66 0-32.52-12.14-32.52-38.81 0-12.38 3.56-23.79 10.02-32.13 6.04-7.8 14.25-12.27 22.5-12.27s16.45 4.47 22.5 12.27c6.46 8.34 10.02 19.75 10.02 32.13 0 12.09-3.51 22.19-10.14 29.21-5.86 6.19-13.81 9.6-22.38 9.6z" fill="url(#l)"/><path d="M50 13.15c7.94 0 15.85 4.33 21.71 11.88 6.33 8.16 9.81 19.35 9.81 31.52 0 11.83-3.41 21.7-9.87 28.52-5.67 5.99-13.36 9.29-21.65 9.29s-15.98-3.3-21.65-9.29c-6.46-6.82-9.87-16.69-9.87-28.52 0-12.16 3.49-23.35 9.81-31.52C34.15 17.48 42.06 13.15 50 13.15m0-2c-17.4 0-33.52 18.61-33.52 45.39 0 26.64 16.61 39.81 33.52 39.81s33.52-13.17 33.52-39.81c0-26.78-16.12-45.39-33.52-45.39z" fill="#BA8F63"/><path d="M25.99 50.81s.13-.19.38-.51c.07-.08.12-.16.22-.26.11-.11.23-.22.37-.34s.28-.24.43-.38c.15-.13.31-.23.48-.35.17-.11.34-.24.53-.35.19-.1.4-.21.6-.32.21-.12.43-.21.66-.3s.47-.18.71-.27c.49-.14 1-.29 1.54-.36.53-.1 1.08-.11 1.63-.14.55.03 1.09.03 1.63.14.53.07 1.05.22 1.54.36.24.08.48.17.71.27.23.09.45.18.66.3.21.11.41.22.6.32.19.11.36.24.53.35.17.12.33.22.47.34s.27.24.4.35c.12.11.24.21.34.31s.18.21.26.29c.31.36.46.57.46.57.51.7.35 1.69-.36 2.19-.43.31-.96.37-1.43.21l-.29-.1s-.19-.07-.49-.2c-.08-.03-.15-.07-.25-.11-.1-.03-.19-.07-.3-.11-.21-.08-.44-.17-.7-.25-.13-.04-.26-.09-.4-.13-.14-.03-.28-.07-.43-.11l-.22-.06c-.08-.01-.15-.03-.23-.04-.16-.03-.31-.07-.47-.1-.33-.04-.66-.11-1-.12-.34-.04-.69-.03-1.03-.05-.35.02-.7.01-1.03.05-.34.02-.67.09-1 .12-.16.03-.31.07-.47.1-.08.01-.16.03-.23.04l-.22.06c-.15.04-.29.07-.43.11s-.27.09-.4.13-.25.08-.37.11c-.1.04-.2.07-.29.1l-.27.09c-.1.04-.2.1-.29.14-.36.18-.57.27-.57.27-.83.34-1.77-.05-2.11-.87-.24-.48-.16-1.05.13-1.49z" fill="#AB872F"/><ellipse cx="34.19" cy="58.9" rx="4.93" ry="5.1" fill="#5D4037"/><path d="M72.05 53.22s-.22-.09-.57-.27c-.09-.04-.19-.1-.29-.14-.09-.02-.18-.06-.27-.09s-.19-.07-.29-.1c-.12-.04-.24-.07-.37-.11s-.26-.09-.4-.13-.28-.07-.43-.11l-.22-.06c-.08-.01-.15-.03-.23-.04-.16-.03-.31-.07-.47-.1-.33-.04-.66-.11-1-.12-.34-.04-.69-.03-1.03-.05-.35.02-.7.01-1.03.05-.34.02-.67.09-1 .12-.16.03-.31.07-.47.1-.08.01-.16.03-.23.04l-.22.06c-.15.04-.29.08-.43.11-.14.04-.27.09-.4.13-.26.07-.49.16-.7.25-.11.04-.2.08-.3.11-.09.04-.17.08-.25.11-.3.13-.49.2-.49.2l-.28.1c-.82.29-1.72-.15-2-.97-.17-.5-.08-1.03.21-1.44 0 0 .16-.22.46-.57.08-.09.16-.19.26-.29s.22-.2.34-.31.26-.23.4-.35.31-.22.47-.34c.17-.12.34-.24.53-.35.19-.1.4-.21.6-.32.21-.12.43-.21.66-.3s.46-.18.71-.27c.49-.14 1-.29 1.54-.36.53-.1 1.08-.11 1.63-.14.55.03 1.09.03 1.63.14.53.06 1.05.22 1.54.36.24.08.48.17.71.27.23.09.45.18.66.3.21.11.41.22.6.32.19.11.36.24.53.35.17.12.32.22.48.35.15.13.3.26.43.38s.26.23.37.34c.09.1.15.18.22.26.25.31.38.51.38.51.5.74.31 1.74-.43 2.25-.49.28-1.07.31-1.56.12z" fill="#AB872F"/><ellipse cx="65.33" cy="58.9" rx="4.93" ry="5.1" fill="#5D4037"/><path d="M53.86 68.14c-.11-.04-.21-.07-.32-.08h-7.07c-.11.01-.22.04-.32.08-.64.26-.99.92-.69 1.63s1.71 2.69 4.55 2.69 4.25-1.99 4.55-2.69c.29-.7-.06-1.37-.7-1.63z" fill="#C48E6A"/><path d="M58.53 76.23c-3.19 1.89-13.63 1.89-16.81 0-1.83-1.09-3.7.58-2.94 2.24.75 1.63 6.45 5.42 11.37 5.42s10.55-3.79 11.3-5.42c.75-1.67-1.09-3.33-2.92-2.24z" fill="#6D4C41"/><defs><path id="m" d="M50 4.12h-.04c-45.43.24-36.12 52.13-36.12 52.13s5.1 8.99 5.1 8.81c-.03-1.41.46-6.89.46-6.89l-2.68-2.92s3.89-25.44 6.79-24.91c4.45.81 26.54 2 26.57 2 7.83 0 14.92-.36 19.37-1.17 2.9-.53 9.64 1.7 10.68 4.45 1.33 3.54 3.13 19.71 3.13 19.71l-2.68 2.83s.49 5.51.46 6.89c0 .18 5.1-8.81 5.1-8.81S95.44 4.36 50 4.12z"/></defs><radialGradient id="n" cx="50.26" cy="4.359" r="48.85" gradientUnits="userSpaceOnUse"><stop stop-color="#BFA055" offset="0"/><stop stop-color="#AB872F" offset="1"/></radialGradient><path d="M50.02 4.12h-.04c-45.43.24-36.13 52.13-36.13 52.13s5.1 8.99 5.1 8.81c-.16-7.25 2.74-20.09 4.8-25.55a6.075 6.075 0 0 1 6.79-3.83c4.45.81 11.55 1.81 19.37 1.81h.16c7.83 0 14.92-1 19.37-1.81 2.9-.53 5.76 1.08 6.79 3.83 2.06 5.47 4.96 18.3 4.8 25.55 0 .18 5.1-8.81 5.1-8.81S95.45 4.36 50.02 4.12z" fill="url(#n)"/><path d="M50.02 4.12h-.04c-45.43.24-36.13 52.13-36.13 52.13s5 8.81 5.1 8.81c-.03-1.48.07-3.2.26-5.03-.12-.29-2.46-4.75-2.48-4.79-.24-1.6-.93-6.98-.55-13.56.41-7.04 2.17-16.96 8.22-24.22 5.67-6.8 14.27-10.28 25.56-10.35H50c11.32.06 19.93 3.54 25.6 10.35 10.81 12.96 8.18 34.33 7.67 37.79-.02.04-2.46 4.58-2.49 4.65.2 1.89.31 3.65.27 5.17.1 0 5.1-8.81 5.1-8.81s9.3-51.9-36.13-52.14z" fill="#8F7635"/></g></g><g clip-path="url(#b)"><radialGradient id="o" cx="50" cy="31.676" r="34.638" gradientTransform="matrix(1 0 0 .9806 0 .078)" gradientUnits="userSpaceOnUse"><stop stop-color="#ff0" offset="0"/><stop stop-color="#FFF600" offset=".325"/><stop stop-color="#FFDE00" offset=".854"/><stop stop-color="#FFD600" offset=".998"/></radialGradient><path d="M50.41 7.92C3.66 7.92 7.18 54.35 7.18 54.35s12.21-10.8 43.5-10.8 42.09 9.8 42.09 9.8 4.4-45.43-42.36-45.43z" fill="url(#o)"/><linearGradient id="p" x1="50.321" x2="50.321" y1="4.735" y2="41.773" gradientUnits="userSpaceOnUse"><stop stop-color="#ff0" offset="0"/><stop stop-color="#FFF900" offset=".446"/><stop stop-color="#FFEA00" offset="1"/></linearGradient><path d="M60.72 42.15h-20.8V9.05c0-2.79 2.26-5.05 5.05-5.05h10.7c2.79 0 5.05 2.26 5.05 5.05v33.1z" fill="url(#p)"/><defs><path id="q" d="M50.41 7.92C3.66 7.92 7.18 54.35 7.18 54.35s12.21-10.8 43.5-10.8 42.09 9.8 42.09 9.8 4.4-45.43-42.36-45.43z"/></defs><clipPath id="r"><use xlink:href="#q"/></clipPath><path d="M33.12 10.23l6.95-2.3v23.29c-1.41-10.07-3.43-17.35-6.95-20.99zM67.71 10.23l-6.95-2.3v23.29c1.41-10.07 3.43-17.35 6.95-20.99z" clip-path="url(#r)" fill="#EDBF00" opacity=".5"/><path d="M55.62 7c1.11 0 2.03.84 2.08 1.91.07 1.4 1.1 2.57 2.49 2.8 13.61 2.34 22.72 9.9 27.07 22.45 1.8 5.19 2.4 10.24 2.56 13.81-6.1-3.12-18.28-7.41-39.14-7.41-21.22 0-34.04 4.85-40.44 8.27.24-3.65.94-8.76 2.82-14.03 4.58-12.85 13.81-20.6 27.42-23.04a3.005 3.005 0 0 0 2.47-2.83C42.98 7.85 43.9 7 45.02 7h10.6m0-3h-10.6c-2.75 0-4.97 2.14-5.08 4.81C4.21 15.2 7.18 54.35 7.18 54.35s12.21-10.8 43.5-10.8 42.09 9.8 42.09 9.8 3.72-38.44-32.08-44.6C60.56 6.11 58.35 4 55.62 4z" fill="#EDBF00"/><path d="M95.53 50.99c-.25-.42-.63-.74-1.07-.99C76.36 39.59 50 39.93 50 39.93S23.64 39.59 5.54 50c-.44.25-.82.57-1.07.99-.53.9-.97 2.61.75 5.08 0 0 10.95-10.85 44.78-11.54 33.82.68 44.78 11.54 44.78 11.54 1.72-2.47 1.28-4.18.75-5.08z" fill="#FFEA00"/></g><g clip-path="url(#b)"><linearGradient id="s" x1="107.11" x2="98.034" y1="70.895" y2="132.86" gradientTransform="rotate(-5.062 -34.442 93.024)" gradientUnits="userSpaceOnUse"><stop stop-color="#FF7043" offset="0"/><stop stop-color="#FD6A3C" offset=".327"/><stop stop-color="#F75928" offset=".811"/><stop stop-color="#F4511E" offset="1"/></linearGradient><path d="M99.69 132.24c-.12 0-.25 0-.38-.01-1.15-.08-2.22-.51-2.74-1.1-.19-.21-.27-.42-.26-.6l3.8-59.59 7.91.52-5.52 59.45c-.04.63-1.21 1.33-2.81 1.33z" fill="url(#s)"/><path d="M101.05 72l5.89.39-5.42 58.35c-.17.17-.78.51-1.83.51-.1 0-.21 0-.31-.01-1.19-.08-1.88-.55-2.05-.76L101.05 72m-1.87-2.13l-3.86 60.58c-.1 1.38 1.67 2.62 3.92 2.77.15.01.3.01.45.01 2.05 0 3.72-.96 3.82-2.24l5.61-60.47-9.94-.65z" fill="#E3461E"/><linearGradient id="t" x1="110.33" x2="105.65" y1="68.876" y2="88.911" gradientTransform="rotate(-5.062 -34.442 93.024)" gradientUnits="userSpaceOnUse"><stop stop-color="#78909C" offset="0"/><stop stop-color="#6A828E" offset=".359"/><stop stop-color="#546E7A" offset=".768"/><stop stop-color="#546E7A" offset="1"/></linearGradient><path d="M118.77 73.81c-.27-.01-1.59-.07-3.04-.31-.62-.19-1-.4-1.3-.58-.85-.52-1.85-.8-2.87-.8-.62 0-1.24.1-1.83.3-.47.16-.87.36-1.11.47l-.81-.07c-.24-.02-.44-.04-.57-.05-.02 0-.05-.01-.07-.01l-7.24-.67c-.63-.06-1.17-.39-1.41-.87-.08-.15-.32-.76-.36-.89-.15-.48-.21-1.12-.28-1.73-.16-1.48-.35-3.33-2.04-3.68-.15-.03-.32-.05-.49-.05-.74 0-1.54.29-2.31.58-.52.19-1.12.41-1.45.43h-.02c-.4 0-.59-.07-.63-.11.01 0-.04-.25.29-.91.19-.38 2.02-3.8 7.33-5.23 1.85-.5 4-.75 6.4-.75 2.29 0 4.24.23 5.29.35.33.04.58.07.72.08.2.01.38.02.56.02 1.56 0 2.45-.47 3.16-.84.33-.17.59-.31.87-.38.02-.01.14-.03.46-.03 1.46 0 4.24.5 4.26.51.62.06.96.39 1.12.58.28.33.42.75.39 1.12L120.73 72c-.2 1.12-.81 1.7-1.96 1.81z" fill="url(#t)"/><path d="M116.02 59.08c1.13 0 3.33.36 4.08.49.06.01.12.02.17.02.17.02.3.14.36.21.14.16.17.33.16.39l-1.06 11.62c-.15.75-.44.93-.99.99-.35-.01-1.5-.07-2.78-.29-.48-.15-.76-.31-1-.46a6.504 6.504 0 0 0-3.4-.95c-.73 0-1.46.12-2.15.36-.39.13-.72.28-.97.4l-.57-.05c-.2-.01-.38-.03-.5-.04-.03-.01-.07-.01-.11-.01l-7.25-.67c-.32-.03-.54-.19-.6-.32s-.26-.62-.3-.74c-.12-.39-.18-.98-.24-1.54-.16-1.52-.43-4.06-2.83-4.55-.22-.05-.45-.07-.69-.07-.91 0-1.8.32-2.66.64-.03.01-.07.03-.11.04.95-1.3 2.96-3.08 6.22-3.96 1.77-.48 3.83-.72 6.14-.72 2.24 0 4.14.23 5.17.35.36.04.62.07.77.08.22.01.43.02.63.02 1.81 0 2.9-.58 3.63-.96.27-.14.48-.25.6-.28.01.01.09 0 .28 0m0-2c-.29 0-.53.02-.7.06-1.14.28-1.76 1.19-3.79 1.19-.16 0-.32-.01-.49-.02-.59-.04-3.03-.43-6.07-.43-2.07 0-4.43.18-6.66.79-4.89 1.32-7.26 4.34-7.96 5.76-1.12 2.25.51 2.46 1.16 2.46h.15c1.03-.05 2.65-1 3.71-1 .1 0 .2.01.29.03 1.46.3 1.03 2.99 1.57 4.73.05.17.32.83.42 1.04.38.76 1.2 1.33 2.21 1.42l7.24.67c.13.01.37.04.65.06l1.07.09c.08 0 .58-.32 1.25-.54.49-.17 1-.25 1.51-.25.82 0 1.64.22 2.35.65.39.24.85.49 1.59.7 1.74.3 3.29.34 3.29.34 1.64-.13 2.63-1.07 2.92-2.72l1.07-11.71c.12-1.23-.88-2.64-2.33-2.78-.01-.02-2.89-.54-4.45-.54z" fill="#476570"/><linearGradient id="u" x1="103.16" x2="92.37" y1="64.782" y2="115.53" gradientTransform="rotate(-4.554 25.458 43.204)" gradientUnits="userSpaceOnUse"><stop stop-color="#FF7043" offset="0"/><stop stop-color="#FD6A3C" offset=".327"/><stop stop-color="#F75928" offset=".811"/><stop stop-color="#F4511E" offset="1"/></linearGradient><path d="M104.68 59.94c-.92-.04-1.86-.17-3.06-.42-.59-.12-1.02-.26-1.28-.42-.19-.11-.27-.25-.27-.29l-.01-.23c-.01-.34-.03-.73.04-.97.05-.16.06-.22.76-.45.83-.27 1.86-.4 3.08-.4.29 0 .57.01.85.02 1.45.07 3.07.15 4.25.71.29.14.29.14.29.49-.01.35-.09.69-.2 1.1-.06.03-.16.07-.24.11l-.16.07c-.23.1-.48.17-.73.24-.18.05-.35.1-.52.16-.3.1-.67.13-1.07.17l-.26.02c-.48.05-.86.09-1.25.09h-.22z" fill="url(#u)"/><path d="M103.94 57.77c.27 0 .54.01.83.02 1.2.06 2.53.12 3.53.48-.01.03-.01.07-.02.1-.14.06-.35.12-.56.18-.19.05-.38.11-.56.17-.19.06-.52.09-.84.12l-.29.03-.1.01c-.39.04-.72.07-1.04.07h-.18c-.86-.04-1.75-.16-2.9-.4-.38-.08-.62-.15-.77-.21v-.17c.04-.01.08-.03.13-.04.73-.25 1.66-.36 2.77-.36m0-2c-1.16 0-2.35.12-3.38.45-.78.25-1.22.45-1.42 1.12-.14.47-.09 1.03-.08 1.51.01.44.33.86.76 1.12.45.26 1.06.43 1.58.54 1.07.22 2.11.39 3.22.44.09 0 .18.01.27.01.45 0 .89-.05 1.34-.1.51-.05 1.06-.07 1.55-.23.43-.14.93-.25 1.34-.43.52-.23.82-.31.95-.8.12-.46.23-.89.24-1.37.02-.66-.13-1.07-.86-1.42-1.38-.66-3.12-.74-4.64-.81-.26-.03-.56-.03-.87-.03z" fill="#E3461E"/></g><g clip-path="url(#b)"><path d="M100.82 130.36l-8-.25c-6.96-.71-11.7-4.77-10.79-13.12 1.97-18.12 21.83-12.18 23.64-6.3 2.7 8.8-1.75 19.98-4.85 19.67z" fill="#E0BB95"/><path d="M100.94 131.33c-.06 0-.13 0-.19-.01l-7.97-.25c-4.16-.42-7.38-1.95-9.39-4.43-1.98-2.45-2.77-5.74-2.33-9.76.83-7.61 5.03-12.33 11.52-12.95 5.89-.56 12.83 2.64 14 6.47 2.27 7.38-.28 16.1-2.91 19.3-1.07 1.32-2.04 1.63-2.73 1.63zm-6.93-25.52c-.41 0-.83.02-1.24.06-3.23.31-8.79 2.17-9.78 11.23-.38 3.49.26 6.3 1.91 8.33 1.67 2.07 4.45 3.35 8.01 3.72l7.93.25h.07c.2.02.68-.2 1.27-.92 2.41-2.94 4.55-11.02 2.56-17.5-.76-2.48-5.76-5.17-10.73-5.17z" fill="#BA8F63"/><path d="M93.5 126.56c-.27 1.7.89 3.29 2.59 3.57l4.33.69c1.7.27 3.29-.89 3.57-2.59.27-1.7-.89-3.29-2.59-3.57l-4.33-.69c-1.7-.26-3.3.89-3.57 2.59z" fill="#E0BB95"/><path d="M100.91 131.69c-.21 0-.41-.02-.62-.05l-4.33-.69c-2.15-.34-3.62-2.37-3.28-4.52s2.38-3.62 4.52-3.28l4.33.69c1.04.17 1.96.73 2.58 1.58s.87 1.9.7 2.94a3.958 3.958 0 0 1-3.9 3.33zm-6.58-5c-.2 1.24.65 2.41 1.89 2.61l4.33.69c1.24.2 2.41-.65 2.61-1.89.1-.6-.05-1.2-.41-1.7-.36-.49-.88-.82-1.49-.91l-4.33-.69c-.61-.1-1.21.05-1.7.41-.48.35-.81.88-.9 1.48z" fill="#BA8F63"/><path d="M94.71 122.11c-.26 1.71.91 3.31 2.62 3.58l5.68.87c1.71.26 3.31-.91 3.58-2.62.26-1.71-.91-3.31-2.62-3.58l-5.68-.87c-1.71-.27-3.32.91-3.58 2.62z" fill="#E0BB95"/><path d="M103.5 127.57c-.21 0-.42-.02-.63-.05l-5.68-.87a4.096 4.096 0 0 1-3.43-4.68 4.101 4.101 0 0 1 4.68-3.43l5.69.88c1.08.17 2.04.74 2.69 1.63.65.88.91 1.97.75 3.05a4.083 4.083 0 0 1-1.63 2.68c-.73.51-1.57.79-2.44.79zm-7.83-5.31c-.18 1.18.63 2.29 1.81 2.47l5.68.87a2.155 2.155 0 0 0 2.47-1.81c.09-.57-.05-1.15-.39-1.61-.34-.47-.85-.77-1.42-.86l-5.69-.88c-1.16-.17-2.28.64-2.46 1.82z" fill="#BA8F63"/><path d="M94.97 117.82a3.065 3.065 0 0 0 2.74 3.36l6.95.71a3.065 3.065 0 1 0 .62-6.1l-6.95-.71a3.066 3.066 0 0 0-3.36 2.74z" fill="#E0BB95"/><path d="M104.97 122.88c-.14 0-.28-.01-.42-.02l-6.95-.71a4.033 4.033 0 0 1-3.61-4.42 4.043 4.043 0 0 1 4.42-3.6l6.95.71c2.21.23 3.83 2.21 3.6 4.42a4.033 4.033 0 0 1-1.46 2.72c-.71.58-1.6.9-2.53.9zm-6.96-6.84a2.096 2.096 0 1 0-.21 4.18l6.95.71c.57.06 1.1-.11 1.54-.46a2.098 2.098 0 0 0-1.11-3.71l-6.95-.71c-.07-.01-.15-.01-.22-.01z" fill="#BA8F63"/><path d="M94.89 112.34a3.072 3.072 0 0 0 2.92 3.21l6.98.33c1.69.08 3.13-1.23 3.21-2.92s-1.23-3.13-2.92-3.21l-6.98-.33c-1.69-.07-3.13 1.23-3.21 2.92z" fill="#E0BB95"/><path d="M104.93 116.85h-.19l-6.98-.33c-1.08-.05-2.07-.52-2.79-1.31s-1.1-1.83-1.05-2.91c.11-2.22 2.02-3.95 4.22-3.84l6.98.33c2.22.11 3.94 2 3.84 4.22a4.034 4.034 0 0 1-4.03 3.84zm-9.07-4.46a2.087 2.087 0 0 0 1.99 2.19l6.98.33c1.17.07 2.14-.84 2.19-2s-.84-2.14-2-2.19l-6.98-.33c-1.13-.06-2.12.84-2.18 2z" fill="#BA8F63"/><path d="M105.57 105.48c-.77-.19-3.45-1.06-5.22-1.45-.67-.15-2.45-.48-3.13-.49-2.18-.04-9.12 2.5-10.74 4.1-.79.78-1.27 1.75-1.47 2.75.38-.41-4.29 9.4 5.49 7.62 4.09-.52 3.01-5.45 4.36-6.82 1.03-1.05 2.7-2.6 7.64-.91 1.38.47 3.76.45 4.63-.6 1.52-1.82.68-3.63-1.56-4.2z" fill="#E0BB95"/><path d="M109.09 106.88c-.38-1.13-1.46-1.99-2.96-2.35-.26-.06-.74-.2-1.32-.37-1.17-.34-2.78-.8-4-1.07-.62-.14-2.52-.49-3.38-.51-6.63-.15-9.7 2.08-11.66 4.3-1.29 1.45-.98 4.03-.63 3.54.69-.95 3.8-3.73 6.56-4.78 2.42-.92 3.83-1.2 5.72-1.17.58.01 2.26.31 2.97.46 1.15.25 2.72.71 3.87 1.04.62.18 1.13.33 1.4.39.83.2 1.41.6 1.57 1.1.14.43.13 1.25-.34 1.79-.49.57-2.61.73-3.88.3-1.8-.6-3.74-1.37-5.64-.94-1.44.33-3.14 1.25-3.71 2.6-.56 1.32-.09 4.75-2.2 6.8-.87.84-3.13 1.89-3.13 1.89s2.47.54 3.86-.25c1.96-1.12 2.9-3.62 3.29-5.64.17-.9.14-2.5.42-2.76.87-.86 1.88-2.12 6.41-.61 1.58.52 4.68 1.03 5.95-.45.89-1.06 1.19-2.24.83-3.31z" fill="#BA8F63"/></g></svg>