<svg viewBox="0 0 128 128" xmlns="http://www.w3.org/2000/svg"><linearGradient id="a" x1="29.2" x2="40.8" y1="116.2" y2="116.2" gradientUnits="userSpaceOnUse"><stop stop-color="#40C0E7" offset="0"/><stop stop-color="#40C0E7" offset="1"/></linearGradient><path fill="url(#a)" d="M29.2 110.4h11.6V122H29.2z"/><linearGradient id="b" x1="29.2" x2="40.8" y1="11.8" y2="11.8" gradientUnits="userSpaceOnUse"><stop stop-color="#f0f" offset="0"/><stop stop-color="#f0f" offset="1"/></linearGradient><path fill="url(#b)" d="M29.2 6h11.6v11.6H29.2z"/><linearGradient id="c" x1="87.2" x2="98.8" y1="116.2" y2="116.2" gradientUnits="userSpaceOnUse"><stop stop-color="#40C0E7" offset="0"/><stop stop-color="#40C0E7" offset="1"/></linearGradient><path fill="url(#c)" d="M87.2 110.4h11.6V122H87.2z"/><linearGradient id="d" x1="64" x2="64" y1="110.4" y2="17.6" gradientUnits="userSpaceOnUse"><stop stop-color="#792D85" offset=".1"/><stop stop-color="#AC1CB3" offset=".3"/><stop stop-color="#D90DDC" offset=".5"/><stop stop-color="#F503F6" offset=".7"/><stop stop-color="#f0f" offset=".8"/></linearGradient><path d="M110.4 52.4V40.8H98.8V29.2H87.2V17.6H75.6v11.6H52.4V17.6H40.8v11.6H29.2v11.6H17.6v11.6H6v46.4h11.6V64h11.6v34.8h11.6v11.6h11.6V91.1H40.8V79.5h46.4V91H75.6v19.3h11.6V98.8h11.6V64h11.6v34.8H122V52.4h-11.6zM40.8 40.8h11.6v11.6H40.8V40.8zm46.4 11.6H75.6V40.8h11.6v11.6z" fill="url(#d)"/><linearGradient id="e" x1="87.2" x2="98.8" y1="11.8" y2="11.8" gradientUnits="userSpaceOnUse"><stop stop-color="#f0f" offset="0"/><stop stop-color="#f0f" offset="1"/></linearGradient><path fill="url(#e)" d="M87.2 6h11.6v11.6H87.2z"/><g stroke="#6F21A1" stroke-miterlimit="10" stroke-width="4"><path fill="#792D85" d="M29.2 110.4h11.6V122H29.2z"/><path fill="none" d="M29.2 6h11.6v11.6H29.2z"/><path fill="#792D85" d="M98.8 122H87.2v-11.6h11.6z"/><path d="M110.4 52.4V40.8H98.8V29.2H87.2V17.6H75.6v11.6H52.4V17.6H40.8v11.6H29.2v11.6H17.6v11.6H6v46.4h11.6V64h11.6v34.8h11.6v11.6h11.6V91.1H40.8V79.5h46.4V91H75.6v19.3h11.6V98.8h11.6V64h11.6v34.8H122V52.4h-11.6zM40.8 40.8h11.6v11.6H40.8V40.8zm46.4 11.6H75.6V40.8h11.6v11.6zm11.6-34.8H87.2V6h11.6z" fill="none"/></g><linearGradient id="f" x1="-66" x2="-66" y1="-124.1" y2="-43.1" gradientUnits="userSpaceOnUse"><stop stop-color="#792D85" offset=".1"/><stop stop-color="#AC1CB3" offset=".3"/><stop stop-color="#D90DDC" offset=".5"/><stop stop-color="#F503F6" offset=".7"/><stop stop-color="#f0f" offset=".8"/></linearGradient><path d="M-66-36c-24.6 0-51-15.4-51-49.2s26.4-49.1 51-49.1c13.6 0 26.2 4.5 35.5 12.6A47 47 0 0 1-15-85.2a47 47 0 0 1-15.5 36.4A53.3 53.3 0 0 1-66-36z" fill="url(#f)"/><path d="M-66-132.3c13.1 0 25.3 4.3 34.2 12.1a45.1 45.1 0 0 1 14.8 35 45 45 0 0 1-14.8 34.9A51.7 51.7 0 0 1-66-38a51.5 51.5 0 0 1-34.2-12.1A45.1 45.1 0 0 1-115-85.2a45 45 0 0 1 14.8-35.1c8.9-7.8 21-12 34.2-12m0-4c-27.5 0-53 17.6-53 51.1C-119-51.9-93.5-34-66-34s53-18.4 53-51.2c0-33-25.5-51.1-53-51.1z" fill="#6F21A1"/></svg>