<svg viewBox="0 0 128 128" xmlns="http://www.w3.org/2000/svg" xmlns:xlink="http://www.w3.org/1999/xlink"><defs><path id="a" d="M4 4h120v120H4z"/></defs><clipPath id="b"><use xlink:href="#a"/></clipPath><linearGradient id="c" x1="64" x2="64" y1="7.4" y2="83.6" gradientUnits="userSpaceOnUse"><stop stop-color="#E53935" offset=".3"/><stop stop-color="#C62828" offset="1"/></linearGradient><path d="M40 104V34c0-13.3 4.8-30 18-30s30 16.8 30 30v70c0 13.3-48 13.3-48 0z" clip-path="url(#b)" fill="url(#c)"/><linearGradient id="d" x1="53" x2="81.1" y1="10.8" y2="37.2" gradientTransform="matrix(.9756 .0193 .0193 .9731 1 -.2)" gradientUnits="userSpaceOnUse"><stop stop-color="#E57373" offset=".2"/><stop stop-color="#EF5350" offset=".9"/></linearGradient><path d="M81.3 38c-3.7 4-13.2 1.1-21.2-6.4s-11.5-16.8-7.7-20.8 13.2-1 21.2 6.4S85 34 81.3 38z" clip-path="url(#b)" fill="url(#d)"/><g clip-path="url(#b)" opacity=".2"><path d="M58 7c11.6 0 27 15.4 27 27v70c0 3.4-8.4 7-21 7s-21-3.7-21-7V34c0-7 1.4-13.8 3.7-18.7C49.4 9.8 53.2 7 58 7m0-3C44.7 4 40 20.8 40 34v70c0 6.6 12 10 24 10s24-3.4 24-10V34C88 20.7 71.2 4 58 4z" fill="#424242"/></g><linearGradient id="e" x1="36" x2="92" y1="94.5" y2="94.5" gradientUnits="userSpaceOnUse"><stop stop-color="#EDC139" offset="0"/><stop stop-color="#FFE596" offset=".5"/><stop stop-color="#EDC139" offset="1"/></linearGradient><path d="M92 108H36V85a4 4 0 0 1 4-4h48a4 4 0 0 1 4 4v23z" clip-path="url(#b)" fill="url(#e)"/><path clip-path="url(#b)" fill="#424242" opacity=".3" d="M36 101.2h56v15.7H36z"/><linearGradient id="f" x1="31.7" x2="95.1" y1="120.5" y2="120.5" gradientUnits="userSpaceOnUse"><stop stop-color="#D9B136" offset=".1"/><stop stop-color="#F7D66A" offset=".5"/><stop stop-color="#D9B136" offset=".8"/></linearGradient><path d="M96.1 136H31.9v-26.8a4 4 0 0 1 4-4h56.2a4 4 0 0 1 4 4v26.7z" clip-path="url(#b)" fill="url(#f)"/><g clip-path="url(#b)" opacity=".2"><path d="M88 84c.5 0 1 .5 1 1v20a3 3 0 0 0 3 3h.1c.5 0 .9.5.9 1.1V133H35v-23.9c0-.6.4-1.1.9-1.1h.1a3 3 0 0 0 3-3V85c0-.5.5-1 1-1h48m0-3H40a4 4 0 0 0-4 4v20h-.1c-2.2 0-3.9 2-3.9 4.2V136h64v-26.9c0-2.2-1.7-4.1-3.9-4.1H92V85a4 4 0 0 0-4-4z" fill="#424242"/></g></svg>