<svg viewBox="0 0 128 128" xmlns="http://www.w3.org/2000/svg" xmlns:xlink="http://www.w3.org/1999/xlink"><radialGradient id="a" cx="64.1" cy="22" r="98.9" gradientTransform="matrix(0 1.0276 -.5662 0 76.6 -43.8)" gradientUnits="userSpaceOnUse"><stop stop-color="#FAFAFA" offset="0"/><stop stop-color="#eee" offset=".4"/><stop stop-color="#E0E0E0" offset="1"/></radialGradient><path fill="url(#a)" d="M40 20h48v102.8H40z"/><linearGradient id="b" x1="44" x2="84" y1="70" y2="70" gradientUnits="userSpaceOnUse"><stop stop-color="#fff" offset="0"/><stop stop-color="#FAFAFA" offset=".2"/><stop stop-color="#EAEAEA" offset=".5"/><stop stop-color="#D1D1D1" offset=".8"/><stop stop-color="#D4D4D4" offset=".9"/><stop stop-color="#DFDFDF" offset=".9"/><stop stop-color="#eee" offset="1"/></linearGradient><path fill="url(#b)" d="M44 20h40v100H44z"/><defs><path id="c" d="M44 20h40v100H44z"/></defs><clipPath id="d"><use xlink:href="#c"/></clipPath><path clip-path="url(#d)" fill="#08128A" d="M94.8 18.4L26.2 58.1V43.6L94.8 3.9z"/><path clip-path="url(#d)" fill="#D40004" d="M94.8 47.7L26.2 87.3V72.8l68.6-39.6z"/><path clip-path="url(#d)" fill="#08128A" d="M94.8 77.2l-68.6 39.6v-14.5l68.6-39.6z"/><path clip-path="url(#d)" fill="#D40004" d="M94.8 106.7l-68.6 39.6V132l68.6-39.7z"/><radialGradient id="e" cx="60.8" cy="12" r="23" gradientUnits="userSpaceOnUse"><stop stop-color="#F5F5F5" offset="0"/><stop stop-color="#BDBDBD" offset="1"/></radialGradient><path d="M42 22.7C42 12.4 51.9 4 64 4s22 8.4 22 18.7H42z" fill="url(#e)"/><linearGradient id="f" x1="64" x2="64" y1="117.2" y2="124" gradientUnits="userSpaceOnUse"><stop stop-color="#BDBDBD" offset="0"/><stop stop-color="#FAFAFA" offset="1"/></linearGradient><path d="M88 124H40a3 3 0 1 1 0-6h48a3 3 0 1 1 0 6z" fill="url(#f)"/><linearGradient id="g" x1="64" x2="64" y1="20" y2="25.9" gradientUnits="userSpaceOnUse"><stop stop-color="#FAFAFA" offset="0"/><stop stop-color="#BDBDBD" offset="1"/></linearGradient><path d="M88 26H40a3 3 0 1 1 0-6h48a3 3 0 1 1 0 6z" fill="url(#g)"/><path d="M64 7c9.4 0 17.5 5.8 18.8 13.5a3 3 0 0 0 3 2.5H88a3 3 0 0 0-3 3v92a3 3 0 0 0 3 3H40a3 3 0 0 0 3-3V26a3 3 0 0 0-3-3h2.2a3 3 0 0 0 3-2.5C46.5 12.8 54.6 7 64 7m0-3c-11 0-20.3 7-21.8 16H40a3 3 0 1 0 0 6v92a3 3 0 1 0 0 6h48a3 3 0 1 0 0-6V26a3 3 0 1 0 0-6h-2.2C84.3 11 75 4 64 4z" fill="#424242" opacity=".2"/></svg>