<svg xmlns="http://www.w3.org/2000/svg" viewBox="0 0 36 36"><path fill="#9AAAB4" d="M30.2 8.2L15.3 23s-.7-2.1.7-3.5L28.8 6.7l1.4 1.5z"/><path fill="#67757F" d="M28.8 6.7c-2 2-2.6 4.5-1.5 5.7s3.7.5 5.7-1.4c2-2 2.6-4.5 1.4-5.7-1.2-1.1-3.7-.5-5.6 1.4zm1.4 1.4C31.3 7 32.6 6.4 33 6.8c.4.4-.2 1.7-1.4 2.9-1.2 1.1-2.5 1.8-2.8 1.4-.4-.4.2-1.7 1.4-2.9z"/><path fill="#292F33" d="M20 11A11 11 0 0 0 4.2 1.1a7 7 0 0 0-4.2.6v26.9a12 12 0 0 0 16.6-.6c5.8.5 12.4 8 12.4 8l7-9c-15-6-16-16-16-16z"/><path fill="#9268CA" d="M20.6 29.3A4 4 0 0 0 17 27H0v9h21v-5a4 4 0 0 0-.4-1.7z"/><path fill="#7450A8" d="M16 32h1v4h-1z"/><path fill="#F7DECE" d="M4 5s0 4.6-4 5.7v10.4a9 9 0 0 0 5 4.4V28a3 3 0 1 0 6 0v-2.5a9 9 0 0 0 6-8.5v-5C5.9 11.6 4 5 4 5z"/><path fill="#DF1F32" d="M12 21H4s1 2 4 2 4-2 4-2z"/><path fill="#C1694F" d="M9 19.5H7a.5.5 0 0 1 0-1h2a.5.5 0 0 1 0 1z"/><path fill="#662113" d="M4 16a1 1 0 0 1-1-1v-1a1 1 0 0 1 2 0v1c0 .6-.4 1-1 1zm8 0a1 1 0 0 1-1-1v-1a1 1 0 0 1 2 0v1c0 .6-.4 1-1 1z"/><path fill="#9AAAB4" d="M24 6v21s2-1 2-3V6h-2z"/><circle fill="#67757F" cx="25" cy="12" r="1"/><path fill="#67757F" d="M23 1c-1.7 0-3 2.2-3 5s1.3 5 3 5 3-2.2 3-5-1.3-5-3-5zm0 8c-.6 0-1-1.3-1-3s.4-3 1-3 1 1.3 1 3-.4 3-1 3z"/></svg>