<svg xmlns="http://www.w3.org/2000/svg" viewBox="0 0 36 36"><path fill="#292F33" d="M14 0a11 11 0 0 0-4.8 1.1A7 7 0 0 0 1 8v12a12 12 0 0 0 24 0v-9c0-6-5-11-11-11z"/><path fill="#9268CA" d="M22 27H4a4 4 0 0 0-4 4v5h26v-5a4 4 0 0 0-4-4z"/><path fill="#7450A8" d="M21 32h1v4h-1zM4 32h1v4H4z"/><path fill="#F7DECE" d="M10 22v6a3 3 0 1 0 6 0v-6h-6z"/><path fill="#F7DECE" d="M9 5s0 5.3-5 6v6a9 9 0 1 0 18 0v-5C10.9 11.6 9 5 9 5z"/><path fill="#DF1F32" d="M17 22H9s1 2 4 2 4-2 4-2z"/><path fill="#9268CA" d="M29 36h-7l1-17h6z"/><path fill="#EEC2AD" d="M31.5 15.4c-.1-.7-.8-1.1-1.5-1l-2.6.6H25a2 2 0 0 0-2 2v2h5c1 0 2-.9 2-2h1v-.2c.4-.3.7-.8.5-1.4z"/><path fill="#F7DECE" d="M36 16c0-.6-.4-1-1-1l-6 1h-5a1 1 0 0 0-1 1v2h6l6-2s1-.4 1-1z"/><path fill="#C1694F" d="M14 19.5h-2a.5.5 0 0 1 0-1h2a.5.5 0 0 1 0 1z"/><path fill="#662113" d="M9 16a1 1 0 0 1-1-1v-1a1 1 0 0 1 2 0v1c0 .6-.4 1-1 1zm8 0a1 1 0 0 1-1-1v-1a1 1 0 0 1 2 0v1c0 .6-.4 1-1 1z"/></svg>