<svg viewBox="0 0 128 128" xmlns="http://www.w3.org/2000/svg" xmlns:xlink="http://www.w3.org/1999/xlink"><linearGradient id="a" x1="64.2" x2="64.2" y1="-9.1" y2="31.5" gradientUnits="userSpaceOnUse"><stop stop-color="#757575" offset="0"/><stop stop-color="#424242" offset=".8"/></linearGradient><path d="M101.2 22.6C97.3 6.2 75 4.6 65 4.4h-2C53 4.5 31 6 27 22.5a248.6 248.6 0 0 0-2.8 43.7c1 11 5.7 14.6 20.4 19C55.3 88.4 60 89.5 63 89.8v.1h2c2-.4 7.9-1.5 18.6-4.7 14.7-4.4 19.5-8 20.5-19a249 249 0 0 0-3-43.6z" fill="url(#a)"/><path d="M62.9 7h1.8C90 7.4 97.3 16 99 23c2.3 9.5 3.4 37.2 2.9 42.7-.9 9.1-4.2 12-18.9 16.3a152.3 152.3 0 0 1-19.2 4.6H62.9c-1.7-.3-7-1.3-18.3-4.6-14.5-4.2-17.8-7.2-18.6-16.4-.5-5.7.5-33.1 2.8-42.7 1.7-7 8.9-15.5 33.7-15.9h.3M65 4h-2c-10 .2-32.9 1.8-36.8 18.2a242 242 0 0 0-3 43.6c1 11.1 6 14.7 21 19 11 3.3 15.8 4.3 18.8 4.7l.3.1H65v-.1c2-.4 8-1.4 19-4.6 15-4.4 20-8 21-19 .4-5.6-.5-33.6-3-43.7C98.1 5.8 75 4.2 65 4z" fill="#383535"/><radialGradient id="b" cx="89.9" cy="-128.8" r="56.3" gradientTransform="matrix(.7929 0 0 .7696 -7 102)" gradientUnits="userSpaceOnUse"><stop stop-color="#BFA055" offset="0"/><stop stop-color="#AB872F" offset="1"/></radialGradient><path d="M48.1 118.3s-6.3-.3-9.5-4.6C31.8 104.5 28 81.3 28 48.4c0-1.4.2-14.5 9.6-24a36.5 36.5 0 0 1 27-9.5C76 15 84.8 18.1 91 24.3a35 35 0 0 1 9 24c0 33-3.8 56.2-10.6 65.4-3.1 4.2-9.1 4.6-9.6 4.6H48.1z" fill="url(#b)"/><path d="M64.5 16.4c11 0 19.6 3 25.4 9a34 34 0 0 1 8.6 23c0 32.6-3.7 55.4-10.3 64.4-2.6 3.5-7.9 4-8.4 4H48.2c-.5 0-5.8-.5-8.4-4-6.6-9-10.3-31.8-10.3-64.4 0-.6 0-13.7 9.2-22.9 6-6 14.7-9 25.8-9m0-3c-38.3 0-38 34.4-38 35 0 22.2 1.7 53.7 11 66.1 3.6 5 10.6 5.2 10.6 5.2H80s7-.3 10.7-5.2c9.2-12.4 11-43.9 11-66.2 0-.5 1.3-35-37-35z" fill="#8F7635"/><defs><path id="c" d="M4 4h120v120H4z"/></defs><clipPath id="d"><use xlink:href="#c"/></clipPath><g clip-path="url(#d)"><linearGradient id="e" x1="64" x2="64" y1="97.4" y2="130.6" gradientUnits="userSpaceOnUse"><stop stop-color="#F44336" offset="0"/><stop stop-color="#E73B32" offset=".4"/><stop stop-color="#C62828" offset="1"/></linearGradient><path d="M13.4 130.6V121c0-17.3 27.3-23.5 50.6-23.6h.2c13.4 0 25.8 2.2 35 6.1 7 3 15.4 8.4 15.4 17.5v9.6H13.5z" fill="url(#e)"/><path d="M64.1 98.9c24.4 0 49 7.6 49 22v8.2H15V121c0-7 4.9-12.6 14.6-16.5 8.7-3.6 21-5.6 34.5-5.6h.1m0-2.9H64c-25.6 0-52 7.1-52 25v11h104v-11c0-16.9-26.1-25-51.9-25z" fill="#CC2623"/><path d="M66 130.7h-4v-23.9c0-.5.9-1 2-1s2 .5 2 1v23.9z" fill="#fff"/><circle cx="74.1" cy="118.2" r="3" fill="#fff"/></g><path d="M24.2 107.8c-3.5 0-6-1-7.5-3.4-1-1.5-.9-3.7.1-5.6.7-1.3 2.5-3.4 6.4-3.4h1.1c4.7 0 14.9-2 20.3-3.4l2.1-.2c2.5 0 4.5 1.3 4.9 3.1.4 2-1 3.7-3.6 5l-2.8 1.2a57.5 57.5 0 0 1-21 6.8z" fill="#404040"/><path d="M46.7 90.8v2c2.3 0 3.6 1.2 3.9 2.3.3 1.4-.9 2.9-3 3.8l-2.9 1.3a56.7 56.7 0 0 1-20.5 6.6c-3.1 0-5.3-1-6.6-3-.7-1-.8-2.8.1-4.5a6 6 0 0 1 5.5-2.9h1.1a118 118 0 0 0 22.4-3.6v-2m0 0c-.7 0-1.5 0-2.3.3-5.1 1.3-15.5 3.3-20.1 3.3h-1.1c-7.4 0-9.5 7.1-7.3 10.5 1.9 2.9 4.9 4 8.4 4 8 0 18.8-5.8 24.1-8.2 7-3 4.5-10-1.7-10z" fill="#383535"/><path d="M103.8 107.8c-6.7 0-15.3-4-21-6.7L80 99.8c-2.6-1.1-4-3-3.6-4.9.4-1.8 2.4-3.1 4.9-3.1.6 0 1.4 0 2 .2 5.5 1.4 15.7 3.4 20.4 3.4h1.1c4 0 5.7 2.1 6.4 3.4 1 1.9 1 4.1 0 5.6-1.4 2.3-3.9 3.4-7.4 3.4z" fill="#404040"/><path d="M81.3 92.8c.6 0 1.2 0 1.8.2a118 118 0 0 0 20.6 3.4h1.1c3.4 0 4.9 1.8 5.5 2.9 1 1.7.8 3.6.1 4.5-1.3 2-3.5 3-6.6 3-6.5 0-15-4-20.6-6.6L80.4 99c-2.1-1-3.3-2.4-3-3.8.3-1.1 1.6-2.3 3.9-2.3m0-2c-6.3 0-8.7 6.8-1.7 10 5.3 2.3 16 8 24.1 8 3.5 0 6.5-1 8.4-3.9 2.2-3.4.1-10.5-7.3-10.5h-1.1c-4.6 0-15-2-20-3.3l-2.4-.3z" fill="#383535"/><path d="M64 106.5c-6.5 0-10.8-.5-11.6-.9-.3-.2-.5-.6-.5-1v-9.2c0-1.4.3-1.7.3-1.7l1 .2h.2l2.6 1c1.8.5 3.7 1.2 5.1 1.5.9.1 1.7 1 2 2.2 0 .5.4.8.9.8s.9-.3 1-.8c.2-1.1 1-2 1.8-2.2 2.3-.5 5.7-1.5 7.9-2.3l1.1-.6.2-.1v11.2c0 .4-.1.8-.5 1-.7.4-5 .9-11.5.9z" fill="#404040"/><path d="M53 94.9l2.7.9c1.8.6 3.8 1.3 5.3 1.5.3.1.9.7 1 1.5a2 2 0 0 0 4 0c.1-.8.7-1.4 1-1.5 2.4-.3 6-1.3 8-2.3v9.7c-.8.4-4.7.8-11 .8a51.2 51.2 0 0 1-11.1-1v-9.6M76.3 92c-.5 0-1.2.8-2 1-2.2 1-5.5 1.9-7.6 2.3-1.3.2-2.4 1.5-2.7 3-.3-1.5-1.4-2.8-2.7-3-2-.4-5.3-1.7-7.7-2.4l-1.4-.3c-.7 0-1.3.5-1.3 2.7v9.2c0 .8.4 1.5 1 1.9 1.2.7 6.6 1 12 1s11-.3 12.1-1c.7-.4 1-1.1 1-1.9v-9.2c.1-2.5-.2-3.3-.7-3.3z" fill="#383535"/><linearGradient id="f" x1="64" x2="64" y1="94.7" y2="17.9" gradientUnits="userSpaceOnUse"><stop stop-color="#CCA47A" offset="0"/><stop stop-color="#D6B088" offset=".3"/><stop stop-color="#DEB892" offset=".6"/><stop stop-color="#E0BB95" offset="1"/></linearGradient><path d="M64 95.3c-2.3 0-5-.5-7.6-1.5A38.7 38.7 0 0 1 32 56c-.1-28.8 17.2-39 32-39s32.1 10.2 32.1 39a38.6 38.6 0 0 1-24.6 37.8 23 23 0 0 1-7.5 1.5z" fill="url(#f)"/><path d="M64 18a29 29 0 0 1 21.6 9.2A41.3 41.3 0 0 1 95 56c0 21-12.9 33-24 37-2.4.8-5 1.3-7.1 1.3-2.2 0-4.7-.5-7.2-1.4-11-3.9-24-16-24-37 0-12 3.4-22 9.7-28.7A29 29 0 0 1 64 18m0-2c-17.2 0-33.1 12.8-33.1 40A39.8 39.8 0 0 0 56 94.7a24 24 0 0 0 7.9 1.5c2.4 0 5-.5 7.8-1.5A39.8 39.8 0 0 0 97.1 56c0-27.2-15.9-40-33.1-40z" fill="#BA8F63"/><defs><path id="g" d="M30.4 88.8L29 37.4c0-17 15.8-29.8 32.7-29.8h5c17 0 32.5 12.9 32.5 29.8l-1.5 51.2-67.2.3z"/></defs><clipPath id="h"><use xlink:href="#g"/></clipPath><g clip-path="url(#h)"><defs><path id="i" d="M32 88.2l-2.2-50.1C29.8 21.6 45.2 9 61.7 9h4.8C83 9 98.2 21.6 98.2 38L96 88l-64 .2z"/></defs><clipPath id="j"><use xlink:href="#i"/></clipPath><g clip-path="url(#j)"><radialGradient id="k" cx="100" cy="-118.8" r="46.5" gradientTransform="matrix(.796 0 0 .796 -15.6 97)" gradientUnits="userSpaceOnUse"><stop stop-color="#BFA055" offset="0"/><stop stop-color="#AB872F" offset="1"/></radialGradient><path d="M101 43.2s1-33.5-37-33.5-37 33.5-37 33.5.4 44.3 3.2 50 7 5.7 7 5.7-2-26-2.2-38.1c0-2.8-.9-13.4 5-14.7a79.3 79.3 0 0 0 34.1-16.5c3.3 7 13.3 13.9 16.9 16.5 3 2 2.5 10.9 2.5 14.6l-3 38s4.6.4 7.5-5.4c2.9-5.9 3-50.1 3-50.1z" fill="url(#k)"/></g></g><path d="M67.8 74h-7.6c-.6.3-1 1-.7 1.7s1.7 2.6 4.5 2.6 4.2-2 4.5-2.6c.3-.7 0-1.4-.7-1.7z" fill="#C48E6A"/><path d="M72.3 81.1a25.3 25.3 0 0 1-16.6 0c-1.8-1-3.6.6-2.9 2.3.7 1.6 6.4 5.3 11.2 5.3s10.5-3.7 11.2-5.4c.7-1.6-1-3.2-2.9-2.2z" fill="#6D4C41"/><g fill="#5D4037"><ellipse cx="47.6" cy="64.3" rx="4.9" ry="5.1"/><ellipse cx="80.5" cy="64.3" rx="4.9" ry="5.1"/></g><path d="M92.1 64.1S84.8 93.4 64 93.4 35.9 64 35.9 64" fill="none" stroke="#6D4C41" stroke-linecap="round" stroke-linejoin="round" stroke-miterlimit="10" stroke-width="3"/><linearGradient id="l" x1="64" x2="64" y1="9" y2="64.2" gradientUnits="userSpaceOnUse"><stop stop-color="#575757" offset="0"/><stop stop-color="#494949" offset=".5"/><stop stop-color="#424242" offset="1"/></linearGradient><path d="M99.4 23.8C95.7 8.5 74 7 64.7 6.8h-2c-9.3.2-30.6 1.7-34.2 17-2.3 9.4-3.2 36-2.7 41.2.4 5.2 19.3-.8 38.2-.8 18.9 0 37.8 6 38.2.8.5-5.2-.5-31.8-2.8-41.2z" fill="url(#l)"/></svg>