<svg viewBox="0 0 128 128" xmlns="http://www.w3.org/2000/svg" xmlns:xlink="http://www.w3.org/1999/xlink"><defs><path id="a" d="M4 4h120v120H4z"/></defs><clipPath id="b"><use xlink:href="#a"/></clipPath><g clip-path="url(#b)"><defs><path id="c" d="M33.3 5h154v154h-154z"/></defs><clipPath id="d"><use xlink:href="#c"/></clipPath><g clip-path="url(#d)"><path d="M79 96.2c-6.5 0-11.8-5.7-11.8-12.7s5.3-12.7 11.9-12.7h68c6.4 0 11.7 5.7 11.7 12.7s-5.3 12.7-11.8 12.7H79z" fill="#E59600"/><path d="M147 72.3c5.7 0 10.3 5 10.3 11.2s-4.6 11.2-10.3 11.2H79c-5.6 0-10.3-5-10.3-11.2s4.7-11.2 10.4-11.2h68m0-3H79c-7.4 0-13.4 6.4-13.4 14.2s6 14.2 13.4 14.2h68c7.2 0 13.2-6.4 13.2-14.2s-6-14.2-13.3-14.2z" fill="#CC8600"/><linearGradient id="e" x1="109.2" x2="109.2" y1="-8.2" y2="95.2" gradientTransform="rotate(4.9 -221 71)" gradientUnits="userSpaceOnUse"><stop stop-color="#FFCA28" offset=".6"/><stop stop-color="#FFB300" offset="1"/></linearGradient><path d="M109.2 123.5l-3.3-.1a38 38 0 0 1-26.5-14.2A51.4 51.4 0 0 1 70 72c1.2-14.7 6.5-28 14.8-37.5a36.9 36.9 0 0 1 30-13.8A36 36 0 0 1 141 38.3a65 65 0 0 1 9 40.7 52.3 52.3 0 0 1-14.3 33.7 37.8 37.8 0 0 1-26.6 10.8z" fill="url(#e)"/><path d="M112.3 22.2h2.3c9.7 1 18.9 7 25.2 16.9 7 10.7 10 24.8 8.7 39.8a51 51 0 0 1-13.8 32.7A36.3 36.3 0 0 1 106 122a36.2 36.2 0 0 1-25.4-13.7 49.9 49.9 0 0 1-9.1-36 64.4 64.4 0 0 1 14.4-36.6 35.5 35.5 0 0 1 26.4-13.4m0-3c-20.7 0-41 21-43.8 52.8-2.8 33 16.3 51 37.3 52.9l3.4.1c19.9 0 39.7-14.7 42.4-45.9 2.8-33.1-15.2-58-36.7-59.8l-2.6-.1z" fill="#EDA600"/><path d="M80.9 63.2c1.3-1.3 4.2-3 9.1-2.1 4.9.9 7 3.6 7.8 5.3.3.7 0 1.5-.4 1.9-.4.4-1.4.6-2.3 0s-2.7-2-6-2.6c-3.3-.6-5.4.1-6.5.3-1 .2-1.9-.4-2.1-.9-.3-.5-.2-1.3.4-1.9zm36.4 3.8c1.3-1.3 4.3-3 9.1-2 4.9.8 7 3.5 7.8 5.2.3.8 0 1.5-.4 2-.4.3-1.4.5-2.3 0s-2.7-2-6-2.6c-3.3-.6-5.4 0-6.5.2-1 .2-1.9-.4-2.1-.8-.3-.6-.3-1.4.4-2z" fill="#6D4C41"/><radialGradient id="f" cx="-345.9" cy="103.5" r="19.9" gradientTransform="rotate(-5.3 -128.2 -5019)" gradientUnits="userSpaceOnUse"><stop stop-color="#EC407A" stop-opacity=".4" offset=".1"/><stop stop-color="#EC407A" stop-opacity=".1" offset=".5"/><stop stop-color="#FFB300" stop-opacity="0" offset=".8"/><stop stop-color="#FFB300" stop-opacity="0" offset="1"/></radialGradient><circle cx="126.8" cy="101.8" r="17.8" fill="url(#f)"/><radialGradient id="g" cx="-387.3" cy="92.6" r="19.9" gradientTransform="rotate(-5.3 -128.2 -5019)" gradientUnits="userSpaceOnUse"><stop stop-color="#EC407A" stop-opacity=".4" offset=".1"/><stop stop-color="#EC407A" stop-opacity=".1" offset=".5"/><stop stop-color="#FFB300" stop-opacity="0" offset=".8"/><stop stop-color="#FFB300" stop-opacity="0" offset="1"/></radialGradient><circle cx="84.6" cy="94.8" r="17.8" fill="url(#g)"/><path d="M79 73.4c-.6.1-1 1.5-.6 4.1a9.5 9.5 0 0 0 4.7 6.4c2.5 1.2 7.3 2 11.2-.7 4.4-3 3.1-5.6 1.5-5-1.6.6-4.6 1.2-7 1-2.5-.1-5.3-1.3-7-3-1.3-1.1-2.2-2.9-2.9-2.8zm36 6.5c-.5 0-1 1.5-.4 4a9.2 9.2 0 0 0 4.7 6.5c2.4 1.2 7.3 2 11.1-.7 4.4-3 3.1-5.6 1.5-5-1.6.6-4.5 1.2-7 1-2.5-.1-5.2-1.3-7-3-1.3-1.1-2.2-2.9-2.8-2.8z" fill="#444"/><path d="M97 93.3c2.9.2 2.9-1.5 3.8-.5 1.8 2 2.2 3.3 1.9 4-.6 1-1.6 1-4.5.3s-5.9-1.9-6-3c0-.7.1-2 1.2-3.2.5-.6.8 2.2 3.7 2.4z" fill="#E59600"/><radialGradient id="h" cx="-64.2" cy="84.2" r="9.4" gradientTransform="matrix(-.7326 -.1212 -.0816 .6179 55 43.9)" gradientUnits="userSpaceOnUse"><stop stop-color="#543930" offset="0"/><stop stop-color="#543930" offset="1"/></radialGradient><path d="M99.5 101c-.2-.2-5.9-2-7.2.9-1.2 2.6 3.5 4 3.5 4s-4.6-1-5.2 2.3c-.7 3.3 6.4 4.8 6.4 4.8" fill="none" stroke="url(#h)" stroke-linecap="round" stroke-linejoin="round" stroke-miterlimit="10" stroke-width="3"/><radialGradient id="i" cx="106.5" cy="31.9" r="45.2" gradientTransform="matrix(-1.0193 -.0197 0 .9956 219.3 -.6)" gradientUnits="userSpaceOnUse"><stop stop-color="#6D4C41" offset="0"/><stop stop-color="#543930" offset="1"/></radialGradient><path d="M110 9.1c22.8.5 25.1 11.1 25.8 11 6.5-1.2 15.6 4 20.5 12.6 12.8 22.5-2.8 39.7-3.2 41.6-1.7 10-2.5 11.8-2.5 11.8s-.5-13.9-8.3-23c-5-6-9.7-18.7-9.7-18.7s-13.8 4.7-24.4 10.6c-9 5-14.5 11.6-14.5 11.6S92 61.3 93.3 56c2.8-11.4 14-16.4 14-16.4s-5.6 1.4-13.1 8c-16.7 14.3-21 41-21 41A46.6 46.6 0 0 1 59 51.9c.6-9.3 9.5-43.7 50.8-42.8z" fill="url(#i)"/><path d="M132.8 20.9c-3.3-5.7-11-8.9-22.9-9.1h-.2C93 11.5 80.2 17 71.5 28.4c-7 9-9.3 19.6-9.6 24.2a45.2 45.2 0 0 0 12 32.5l-.8 3.6a47.1 47.1 0 0 1-14-36.9c.6-9.2 9.4-43.6 50.6-42.8h.2c22.7.4 25.2 11 25.8 11v.1c.9-.1 1.7-.2 2.7-.1 6.5 0 12.6 4.3 17.3 11.7 13.8 22-2.3 40.7-2.6 42.7-1.7 10-2.5 11.7-2.5 11.7s-.2-3.1-1.1-7.4l1.1-6.1c.3-.5 14.7-19.8 2.8-39-4-6.6-9.4-10.7-15-10.8l-2 .1h-.7c-1.7 0-2.5-1.4-2.9-2z" fill="#3F2720"/></g><path clip-path="url(#d)" fill="none" d="M55.9 13.1h108.9V122H55.9z"/></g><g clip-path="url(#b)"><defs><path id="j" transform="rotate(180 16.2 82)" d="M-60.8 5h154v154h-154z"/></defs><clipPath id="k"><use xlink:href="#j"/></clipPath><g clip-path="url(#k)"><path d="M-20.5 96.2c-6.5 0-11.8-5.7-11.8-12.7s5.3-12.7 11.8-12.7h68c6.5 0 11.8 5.7 11.8 12.7S54 96.2 47.4 96.2h-68z" fill="#E59600"/><path d="M47.4 72.3c5.7 0 10.4 5 10.4 11.2S53 94.7 47.4 94.7h-68c-5.6 0-10.2-5-10.2-11.2s4.6-11.2 10.3-11.2h68m0-3h-68c-7.3 0-13.3 6.4-13.3 14.2s6 14.2 13.3 14.2h68c7.3 0 13.3-6.4 13.3-14.2s-6-14.2-13.4-14.2z" fill="#CC8600"/><linearGradient id="l" x1="15.4" x2="15.4" y1="-.1" y2="103.2" gradientTransform="scale(-1 1) rotate(4.9 -237.1 -305)" gradientUnits="userSpaceOnUse"><stop stop-color="#FFCA28" offset=".6"/><stop stop-color="#FFB300" offset="1"/></linearGradient><path d="M17.3 123.5c-10 0-19.4-3.8-26.6-10.8-8.1-8-13-19.6-14.2-33.7a65 65 0 0 1 8.9-40.7 36 36 0 0 1 28.9-17.6c9.9 0 19.6 5 27.4 14A65.9 65.9 0 0 1 56.5 72a51 51 0 0 1-9.4 37 37.7 37.7 0 0 1-29.8 14.4z" fill="url(#l)"/><path d="M14.3 22.2c9.4 0 18.8 4.8 26.3 13.4 8 9.3 13.2 22.3 14.4 36.6a50 50 0 0 1-9 36A36.2 36.2 0 0 1 17.2 122c-9.6 0-18.7-3.7-25.5-10.4a50.9 50.9 0 0 1-13.9-32.7 63.5 63.5 0 0 1 8.8-39.8 34.5 34.5 0 0 1 27.6-17m0-3l-2.7.2C-9.9 21.2-27.9 45.9-25 79.1c2.6 31.2 22.4 45.9 42.3 45.9l3.4-.1c21-1.9 40.1-20 37.3-53-2.7-31.8-23-52.7-43.8-52.7z" fill="#EDA600"/><path d="M45.6 63.2c-1.3-1.3-4.3-3-9.1-2.1-4.9.9-7 3.6-7.8 5.3-.3.7 0 1.5.4 1.9.4.4 1.3.6 2.3 0s2.7-2 6-2.6c3.3-.6 5.4.1 6.5.3 1 .2 1.9-.4 2.1-.9.3-.5.2-1.3-.4-1.9zM9.2 67C8 65.8 5 64 .1 65c-4.9.8-7 3.5-7.8 5.2-.3.8 0 1.5.4 2 .4.3 1.3.5 2.3 0s2.7-2 6-2.6c3.3-.6 5.4 0 6.5.2 1 .2 1.9-.4 2.1-.8.3-.6.3-1.4-.4-2z" fill="#6D4C41"/><radialGradient id="m" cx="-439.6" cy="94.8" r="19.9" gradientTransform="scale(-1 1) rotate(-5.3 -144.4 -4668.3)" gradientUnits="userSpaceOnUse"><stop stop-color="#EC407A" stop-opacity=".4" offset=".1"/><stop stop-color="#EC407A" stop-opacity=".1" offset=".5"/><stop stop-color="#FFB300" stop-opacity="0" offset=".8"/><stop stop-color="#FFB300" stop-opacity="0" offset="1"/></radialGradient><circle cx="-.3" cy="101.8" r="17.8" fill="url(#m)"/><radialGradient id="n" cx="-481" cy="84" r="19.9" gradientTransform="scale(-1 1) rotate(-5.3 -144.4 -4668.3)" gradientUnits="userSpaceOnUse"><stop stop-color="#EC407A" stop-opacity=".4" offset=".1"/><stop stop-color="#EC407A" stop-opacity=".1" offset=".5"/><stop stop-color="#FFB300" stop-opacity="0" offset=".8"/><stop stop-color="#FFB300" stop-opacity="0" offset="1"/></radialGradient><circle cx="41.9" cy="94.8" r="17.8" fill="url(#n)"/><path d="M47.6 73.4c.5.1 1 1.5.5 4.1a9.5 9.5 0 0 1-4.7 6.4c-2.5 1.2-7.3 2-11.2-.7-4.4-3-3.1-5.6-1.5-5 1.6.6 4.6 1.2 7 1 2.5-.1 5.3-1.3 7-3 1.3-1.1 2.2-2.9 2.9-2.8zm-36.2 6.5c.6 0 1 1.5.5 4a9.2 9.2 0 0 1-4.7 6.5c-2.4 1.2-7.3 2-11.1-.7-4.4-3-3.1-5.6-1.5-5 1.6.6 4.5 1.2 7 1 2.5-.1 5.2-1.3 7-3 1.3-1.1 2.2-2.9 2.8-2.8z" fill="#444"/><path d="M29.4 93.3c-2.8.2-2.8-1.5-3.7-.5-1.8 2-2.2 3.3-1.9 4 .6 1 1.6 1 4.5.3s5.9-1.9 6-3c0-.7-.1-2-1.2-3.2-.5-.6-.8 2.2-3.6 2.4z" fill="#E59600"/><radialGradient id="o" cx="61.6" cy="108.5" r="9.4" gradientTransform="matrix(.7326 -.1212 .0816 .6179 -22.7 43.9)" gradientUnits="userSpaceOnUse"><stop stop-color="#543930" offset="0"/><stop stop-color="#543930" offset="1"/></radialGradient><path d="M27 101c.2-.2 5.8-2 7.2.9 1.2 2.6-3.5 4-3.5 4s4.6-1 5.2 2.3c.7 3.3-6.4 4.8-6.4 4.8" fill="none" stroke="url(#o)" stroke-linecap="round" stroke-linejoin="round" stroke-miterlimit="10" stroke-width="3"/><radialGradient id="p" cx="15.5" cy="30.1" r="45.2" gradientTransform="matrix(1.0193 -.0197 0 .9956 1 -.6)" gradientUnits="userSpaceOnUse"><stop stop-color="#6D4C41" offset="0"/><stop stop-color="#543930" offset="1"/></radialGradient><path d="M17.7 9.1C-5 9.6-7.5 20.2-8 20.1c-6.6-1.2-15.6 4-20.5 12.6-12.8 22.5 2.8 39.7 3.1 41.6 1.8 10 2.6 11.8 2.6 11.8s.5-13.9 8.2-23c5-6 9.7-18.7 9.7-18.7S9 49.1 19.5 55C28.4 60 34 66.6 34 66.6s1.7-5.2.3-10.6c-2.8-11.4-13.9-16.4-13.9-16.4s5.6 1.4 13.1 8c16.6 14.3 21 41 21 41 5.7-5.3 15.2-18 14-36.7A47.1 47.1 0 0 0 17.8 9z" fill="url(#p)"/><path d="M-5.2 20.9c3.4-5.7 11.1-8.9 23-9.1h.2c16.6-.3 29.5 5.3 38.2 16.6 6.9 9 9.2 19.6 9.6 24.2 1 14.2-6.5 26.6-12 32.5l.8 3.6a47.1 47.1 0 0 0 14-36.9A47.2 47.2 0 0 0 18 9h-.3C-5 9.4-7.4 20-8 20v.1l-2.6-.2c-6.6.2-12.6 4.4-17.3 11.8-13.9 22 2.2 40.7 2.5 42.7 1.8 10 2.6 11.7 2.6 11.7s.1-3.1 1-7.4l-1-6.1c-.3-.5-14.7-19.9-2.9-39 4.1-6.6 9.5-10.7 15.1-10.8l2 .1h.6c1.8 0 2.6-1.4 3-2z" fill="#3F2720"/></g><path transform="rotate(180 16.2 67.6)" clip-path="url(#k)" fill="none" d="M-38.3 13.1H70.6V122H-38.3z"/></g><linearGradient id="q" x1="64.2" x2="64.2" y1="-4.4" y2="54.6" gradientUnits="userSpaceOnUse"><stop stop-color="#F48FB1" offset="0"/><stop stop-color="#EC407A" offset="1"/></linearGradient><path d="M64.2 70.9c-.6 0-1.3-.3-1.7-.7L58 65.8a312.6 312.6 0 0 1-26.8-29 22.7 22.7 0 0 1-3-20c3-7 9.2-11.3 16.5-11.3h1A22.6 22.6 0 0 1 59 10.3l2.6 1.8c.7.5 1.6.7 2.5.7s1.8-.2 2.6-.7l2.5-1.8c1.6-1.1 3.2-2.2 5-3 2.8-1.1 5.6-1.7 8.4-1.8h1c7.2 0 13.4 4.2 16.4 11.4a22 22 0 0 1-3 19.9 312.6 312.6 0 0 1-26.8 29L66 70.1c-.5.5-1.1.8-1.8.8z" fill="url(#q)"/><path d="M44.8 7h.9a21 21 0 0 1 12.5 4.6l2.7 1.8c1 .6 2.1 1 3.3 1s2.4-.4 3.4-1a56 56 0 0 0 2.6-1.8A21 21 0 0 1 82.8 7h.8a16 16 0 0 1 15.1 10.5A21 21 0 0 1 96 36a315.3 315.3 0 0 1-31.7 33.4 1 1 0 0 1-.7-.3l-4.3-4.4A314.9 314.9 0 0 1 32.5 36a20.8 20.8 0 0 1-2.9-18.5A16.1 16.1 0 0 1 44.9 7m38.9-3h-1c-3.1 0-6.1.8-9 2-3 1.2-5 3.1-7.7 4.8-.5.3-1.2.5-1.8.5s-1.2-.2-1.7-.5c-2.7-1.7-4.8-3.6-7.8-4.9a24 24 0 0 0-9-1.9h-.9c-7.9 0-14.6 4.5-18 12.3a23.7 23.7 0 0 0 3.2 21.3c5.2 7.9 24.3 26.5 31.3 33.6a4 4 0 0 0 5.6 0c7-7.1 26-25.7 31.3-33.6a24.2 24.2 0 0 0 3.2-21.3A19 19 0 0 0 83.6 4z" fill="#D92E67"/></svg>