<svg viewBox="0 0 128 128" xmlns="http://www.w3.org/2000/svg" xmlns:xlink="http://www.w3.org/1999/xlink"><linearGradient id="a" x1="64" x2="64" y1="108" y2="20" gradientUnits="userSpaceOnUse"><stop stop-color="#BDBDBD" offset="0"/><stop stop-color="#eee" offset=".8"/></linearGradient><path d="M113.5 108h-99C8.7 108 4 103.3 4 97.5v-67C4 24.7 8.7 20 14.5 20h99c5.8 0 10.5 4.7 10.5 10.5v67c0 5.8-4.7 10.5-10.5 10.5z" fill="url(#a)"/><defs><path id="b" d="M113.5 108h-99C8.7 108 4 103.3 4 97.5v-67C4 24.7 8.7 20 14.5 20h99c5.8 0 10.5 4.7 10.5 10.5v67c0 5.8-4.7 10.5-10.5 10.5z"/></defs><clipPath id="c"><use xlink:href="#b"/></clipPath><path clip-path="url(#c)" fill="none" stroke="#B0BEC5" stroke-miterlimit="10" stroke-width="6" d="M-3 111.1l67-56 67 55.2"/><path clip-path="url(#c)" fill="none" stroke="#B0BEC5" stroke-miterlimit="10" stroke-width="8" d="M-3 14.1l67 53.5L131 15"/><path clip-path="url(#c)" fill="#F5F5F5" d="M-3 13.1l67.2 52.6L131 13.9"/><path d="M113.5 23c4.2 0 7.5 3.3 7.5 7.5v67c0 4.2-3.4 7.6-7.5 7.6h-99A7.5 7.5 0 0 1 7 97.5v-67c0-4.2 3.4-7.6 7.5-7.6h99m0-3h-99C8.7 20 4 24.8 4 30.6v67c0 5.8 4.7 10.6 10.5 10.6h99c5.8 0 10.5-4.8 10.5-10.6v-67c0-5.8-4.7-10.5-10.5-10.5z" fill="#424242" opacity=".2"/><radialGradient id="d" cx="64.4" cy="48.5" r="33.2" gradientUnits="userSpaceOnUse"><stop stop-color="#E53935" offset=".5"/><stop stop-color="#C62828" offset=".9"/></radialGradient><path d="M83.2 41c-10.2-4-18.8 7-18.8 7s-8-10.5-18.6-7.2c-16.5 5.1-15.2 25.6-7 36A103.6 103.6 0 0 0 64 98.3v.1c3-1 17.9-12 25.7-22.1 8.1-10.5 9.6-29.4-6.5-35.3z" fill="url(#d)"/><path d="M78.8 43.1A14.8 14.8 0 0 1 92 53.8c1.8 6.4 0 14.6-4.6 20.5A120.8 120.8 0 0 1 64 94.7c-5.8-4-17-11.9-23-19.6a26 26 0 0 1-4.3-21.7A14.2 14.2 0 0 1 50 43.3c6.9 0 12.1 6.5 12.2 6.6.5.7 1.4 1.1 2.3 1.1s1.8-.4 2.4-1.1c0 0 5.4-6.8 12-6.8m0-3c-8.2 0-14.4 8-14.4 8s-6-7.8-14.5-7.8c-1.3 0-2.6.2-4 .6-16.6 5.1-15.3 25.6-7.2 36C46.5 87 63 97.3 64 98.3v.1c2-1 17.9-12 25.7-22.1 8.1-10.5 9.6-29.4-6.5-35.3-1.5-.5-3-.8-4.4-.8zM64.4 98.3zm-.2 0zm.1 0z" fill="#424242" opacity=".2"/></svg>