<svg xmlns="http://www.w3.org/2000/svg" viewBox="0 0 36 36"><path fill="#F3D2A2" d="M15 22v6a3 3 0 1 0 6 0v-6h-6z"/><path fill="#4289C1" d="M27 27H9a4 4 0 0 0-4 4v5h26v-5a4 4 0 0 0-4-4z"/><path fill="#2A6797" d="M26 32h1v4h-1zM9 32h1v4H9z"/><path fill="#F3D2A2" d="M15 22v6a3 3 0 1 0 6 0v-6h-6z"/><path fill="#F3D2A2" d="M9 6v11a9 9 0 1 0 18 0V6.2L9 6z"/><path fill="#F3D2A2" d="M10.8 13.7c0 1.6-.8 2.9-1.7 2.9s-1.8-1.3-1.8-2.9C7.3 12.1 8 11 9 11s1.7 1.2 1.7 2.8zm18 0c0 1.6-.9 2.9-1.9 2.9s-1.7-1.3-1.7-2.9c0-1.6.8-2.8 1.7-2.8s1.8 1.2 1.8 2.8z"/><path fill="#FFE51E" d="M18 .8C11 .8 7.9 5.5 7.9 9.4c0 4 1.3 5 1.5 4 .8-4 3.1-5.2 3.1-5.2 4.7 4 4 .8 4 .8 4.6 4.7 2.3 0 2.3 0 1.5 1.6 6.2 1.6 6.2 1.6l1.6 2.7c.8 1.6 1.5 0 1.5-3.9S24.2.8 18 .8z"/><ellipse fill="#C1694F" cx="18" cy="22" rx="2" ry="1"/><path fill="#C1694F" d="M19 19.5h-2a.5.5 0 0 1 0-1h2a.5.5 0 0 1 0 1z"/><path fill="#E2C196" d="M28.6 4.4l-2-2-.5.7-3.5-1.3v1.6L20 4a1.1 1.1 0 0 0 .5 2.2l3.6-.9 1.8 1.8 1.3.8.7 5.6s0 .8.9.8.8-.8.8-.8v-7l-1-2.1z"/><path fill="#F3D2A2" d="M29 4l-2-1.9-.5-2.1H23v3l-2.7.6a1.1 1.1 0 0 0 .6 2.2l3.5-.8 1.8 1.8c.3.3.8.6 1.4.7l.6 5.6s0 .9.9.9.9-.9.9-.9v-7l-1-2z"/><path fill="#E2C196" d="M7.4 4.4l2-2 .5.7 3.5-1.4v1.7L16 4a1.1 1.1 0 0 1-.5 2.2l-3.6-.9-1.8 1.8-1.3.8-.7 5.6s0 .8-.9.8-.8-.8-.8-.8v-7l1-2.1z"/><path fill="#F3D2A2" d="M7 4l2-1.9.5-2.1H13v3l2.7.6a1.1 1.1 0 0 1-.6 2.2L11.6 5 9.8 6.8c-.3.3-.8.6-1.4.7l-.6 5.6s0 .9-.9.9-.9-.9-.9-.9v-7l1-2z"/><path d="M24 15h-.4s-.6.5-1.9.5c-1.2 0-1.8-.4-1.8-.5a.3.3 0 0 0-.4.4s.8 1.6 2.2 1.6c1.5 0 2.2-1.6 2.3-1.6V15zm-7.6 0h-.3s-.6.5-1.9.5c-1.2 0-1.8-.4-1.8-.5a.3.3 0 0 0-.4.4s.8 1.6 2.3 1.6c1.4 0 2.1-1.6 2.2-1.6V15z" fill="#662113"/></svg>