<svg viewBox="0 0 128 128" xmlns="http://www.w3.org/2000/svg" xmlns:xlink="http://www.w3.org/1999/xlink"><defs><path id="a" d="M-141 4h120v120h-120z"/></defs><clipPath id="b"><use xlink:href="#a"/></clipPath><g clip-path="url(#b)"><defs><path id="c" d="M-145 0h128v128h-128z"/></defs><clipPath id="d"><use xlink:href="#c"/></clipPath><g clip-path="url(#d)"><radialGradient id="e" cx="-1116" cy="-377.8" r="137.6" gradientTransform="scale(-1 1) rotate(-45 32.5 -1625.4)" gradientUnits="userSpaceOnUse"><stop stop-color="#BA8D68" offset=".4"/><stop stop-color="#A47B62" offset=".9"/></radialGradient><path d="M-165.3 186.8a46.3 46.3 0 0 1-32.8-15.5c-28-28.1-34.4-44.3-26-66.5a299 299 0 0 1 18.8-34.2c1-1.1 8.9-9 15-15.9 6.6-7.1 11.6-16 12.3-17.1a4 4 0 0 1 3-1.5c.7 0 1.3.2 1.9.5 7 4.4 9.3 9.6 7.2 16A45.7 45.7 0 0 1-175 66c-4 4.6-6.6 7.6-5.7 10.2l.5 1.2c.6 1.9 1.3 3.8 3 3.8.8 0 1.6-.3 2.2-1.1 1-1.1 34.5-32.7 52-49.2 3.4-3.2 6.6-5 9.6-5 2.2 0 4.2 1 6 2.8A8 8 0 0 1-105 36a16 16 0 0 1-4.8 8l-36.6 39.8c-.5.6-.5 1.5 0 2a1.5 1.5 0 0 0 2.1.2l54.9-47.5c3.3-3.3 6.6-5 9.6-5 2.1 0 4.1 1 6 2.7 5.7 5.8 1 12.2-2.3 15.5l-8.2 7.8c-.6.5-.6 1.5-.1 2a1.5 1.5 0 0 0 2.1.2c3-2.6 5.9-4 8.5-4 2.2 0 4.2.9 6 2.7a8 8 0 0 1 2.5 7.4 16 16 0 0 1-4.8 8v.1l-39.3 46a1.5 1.5 0 0 0 2.1 2.1l27-23.7c3.3-3.3 6.6-5 9.6-5 2.1 0 4 .9 5.9 2.7 3.9 3.9 3 8-3.4 14.3-.6.6-61.1 58.5-71.7 65.9a45.2 45.2 0 0 1-25.4 8.5z" fill="url(#e)"/><path d="M-113.5 27.4c1.8 0 3.4.8 4.9 2.3 2.5 2.5 4.2 6.9-2.2 13.3l-.1.1-36.6 39.8a3 3 0 0 0 4.2 4.3l54.9-47.4.1-.2c3-2.9 6-4.5 8.5-4.5 1.8 0 3.3.8 4.9 2.3 2.5 2.5 4.2 6.9-2.3 13.3l-8.1 7.8-1.2 1a3 3 0 0 0 4.2 4.3l1-1c2.7-2.3 5.3-3.5 7.5-3.5a7 7 0 0 1 5 2.2c1.8 2 2.5 4 2 6.2a14.7 14.7 0 0 1-4.5 7.3l-39.3 46a3 3 0 0 0 4.3 4.3l27-23.8.1-.1c2.9-2.9 6-4.5 8.5-4.5 1.7 0 3.3.7 4.8 2.3 2.3 2.2 3.9 5-3.3 12.2-1.5 1.4-61.1 58.4-71.6 65.7-5.4 3.7-14 8.2-24.5 8.2a45 45 0 0 1-31.7-15c-14.3-14.3-22.4-25-26.2-34.4-4-9.8-3.8-19.2.4-30.6 3.3-8.8 17-31 18.6-33.8 1.5-1.4 9-9 15-15.7 6.5-7 11.5-15.8 12.4-17.3.4-.6 1.1-.9 1.8-.9.4 0 .8.1 1 .3 6.5 4 8.6 8.5 6.7 14.2-1.5 4.4-5.6 9.1-9 13-4.1 4.8-7.2 8.3-5.9 11.6l.5 1.2c.7 2 1.6 4.9 4.5 4.9.8 0 2-.3 3.2-1.7A12253.9 12253.9 0 0 1-122 32c3-3 6-4.6 8.5-4.6m0-3c-3.6 0-7.3 2.2-10.5 5.4 0 0-51.6 48.5-52.3 49.3-.3.4-.6.6-1 .6-.9 0-1.4-2.2-2-4-1.4-3.6 11.6-13.2 14.8-22.7 3.4-10.2-4.4-15.6-7.8-17.7a5 5 0 0 0-2.7-.7c-1.6 0-3.3.8-4.3 2.2 0 0-5.3 9.5-12 17s-15.2 15.8-15.2 15.8-15.4 24.9-19 34.6c-9 24-1 40.7 26.4 68.2a47.5 47.5 0 0 0 33.8 15.9c10.3 0 19.4-4 26.3-8.8 10.8-7.5 72-66 72-66 5.4-5.5 8.7-11 3.3-16.5a9.7 9.7 0 0 0-7-3.1c-3.6 0-7.3 2-10.6 5.3l-27 23.8L-69 77c5.5-5.5 7.7-12.1 2.2-17.6a9.7 9.7 0 0 0-7-3.1c-3.2 0-6.5 1.7-9.5 4.4l-1 1 1-1 8.2-7.8c5.5-5.5 7.7-12.2 2.3-17.6a9.7 9.7 0 0 0-7-3.1c-3.6 0-7.3 2-10.6 5.3L-145.2 85l36.5-39.7c5.5-5.5 7.7-12.2 2.2-17.6a9.7 9.7 0 0 0-7-3.2z" fill="#91674D"/><linearGradient id="f" x1="-88.7" x2="-56.7" y1="50.5" y2="20.4" gradientUnits="userSpaceOnUse"><stop stop-color="#D32F2F" offset=".1"/><stop stop-color="#F44336" offset=".8"/></linearGradient><path d="M-71 47.3c-8.5 8.5-11.8 5.6-15.6 1.8s-6.7-7 1.8-15.6 18.4-12.2 22.2-8.4 0 13.7-8.5 22.2z" fill="url(#f)"/><linearGradient id="g" x1="-125.9" x2="-96.7" y1="31.7" y2="31.7" gradientUnits="userSpaceOnUse"><stop stop-color="#D32F2F" offset="0"/><stop stop-color="#F44336" offset=".6"/></linearGradient><path d="M-106.7 40.8c-8.4 8.5-11.7 5.6-15.5 1.8s-6.7-7.1 1.8-15.6 18.4-12.3 22.2-8.5 0 13.8-8.5 22.3z" fill="url(#g)"/><linearGradient id="h" x1="-82.1" x2="-52.7" y1="100" y2="100" gradientUnits="userSpaceOnUse"><stop stop-color="#D32F2F" offset="0"/><stop stop-color="#F44336" offset=".6"/></linearGradient><path d="M-63.4 109c-8.8 8-11.8 5-15.3 1s-6.2-7.3 2.5-15.1 18.8-11 22.3-7.2c3.5 4-.7 13.5-9.5 21.4z" fill="url(#h)"/><path d="M-134.7 108.8a1.5 1.5 0 0 1-1-2.6l48.9-45.8c.6-.6 2.3-.7 2.9 0s.3 1.8-.3 2.4l-49.4 45.6c-.3.3-.7.4-1 .4z" fill="#91674D"/><linearGradient id="i" x1="-85.3" x2="-57.7" y1="63.8" y2="63.8" gradientUnits="userSpaceOnUse"><stop stop-color="#D32F2F" offset="0"/><stop stop-color="#F44336" offset=".6"/></linearGradient><path d="M-67.1 72.4c-8 8-11 5.2-14.7 1.6-3.6-3.6-6.3-6.6 1.7-14.6s17.4-11.6 21-8c3.6 3.6 0 13-8 21z" fill="url(#i)"/></g><g clip-path="url(#d)"><path fill="#C62828" d="M-36 28.3l5.5 2.3-11.4 27.7-5.6-2.3z"/><linearGradient id="j" x1="298.5" x2="298.6" y1="-124.3" y2="-149.6" gradientTransform="matrix(1.142 .4716 -.3817 .9243 -421.3 2.5)" gradientUnits="userSpaceOnUse"><stop stop-color="#F44336" offset=".2"/><stop stop-color="#D32F2F" offset=".7"/></linearGradient><path d="M-24.5 34l-18.2-7.5a5.8 5.8 0 0 1-3.1-7.6l17-41c1.1-3 4.5-4.4 7.5-3.2l18.2 7.5c3 1.3 4.4 4.6 3.1 7.6l-17 41a5.8 5.8 0 0 1-7.5 3.2z" fill="url(#j)"/><radialGradient id="k" cx="408" cy="-72.2" r="12.2" gradientTransform="rotate(22.4 -196.7 -1162.7)" gradientUnits="userSpaceOnUse"><stop stop-color="#EF5350" offset="0"/><stop stop-color="#E53935" offset="1"/></radialGradient><path d="M-64.7 80.3s3.9-1.8 6.3-4.3c3.5-3.7-.3-8.5 4.7-15.9a10 10 0 0 1 6.4-4.5l5.9 2.5s5.6 6.8-3.6 17.7c-8.5 10-19.7 4.5-19.7 4.5z" fill="url(#k)"/><linearGradient id="l" x1="298.5" x2="298.6" y1="-124.3" y2="-149.6" gradientTransform="matrix(1.142 .4716 -.3817 .9243 -421.3 2.5)" gradientUnits="userSpaceOnUse"><stop stop-color="#F44336" offset="0"/><stop stop-color="#E53A33" offset=".3"/><stop stop-color="#D83230" offset=".7"/><stop stop-color="#D32F2F" offset="1"/></linearGradient><path d="M-24.5 34l-18.2-7.5a5.8 5.8 0 0 1-3.1-7.6l17-41c1.1-3 4.5-4.4 7.5-3.2l18.2 7.5c3 1.3 4.4 4.6 3.1 7.6l-17 41a5.8 5.8 0 0 1-7.5 3.2z" fill="url(#l)"/><path d="M-23.5-22.8c.3 0 .7.1 1 .3L-4.2-15c1.4.6 2 2.2 1.5 3.6l-17 41.1a2.8 2.8 0 0 1-3.6 1.5l-18.3-7.5c-1.4-.6-2-2.2-1.5-3.6L-26-21c.4-1 1.4-1.8 2.6-1.8m0-3a5.8 5.8 0 0 0-5.4 3.6l-17 41.1c-1.2 3 .2 6.3 3.2 7.6l18.2 7.5a6 6 0 0 0 2.2.4c2.3 0 4.5-1.3 5.4-3.5L0-10.2c1.2-3-.2-6.4-3.2-7.6l-18.2-7.5a6 6 0 0 0-2.2-.5zm-24.2 84.6l4.2 1.7c.7 1.5 2.2 6.2-3.9 13.3-2.7 3.2-6 5-9.8 5l.8-.7c2.4-2.5 2.5-5.4 2.6-8 .1-2.4.2-5 2.4-8.3 1.3-2 2.9-2.7 3.7-3m.3-3.2s-3.7.4-6.5 4.5c-5 7.4-1.1 12.3-4.6 15.9-2.4 2.5-6.4 4.3-6.4 4.3s3.1 1.6 7.3 1.6A16 16 0 0 0-45 75.8c9.2-10.9 3.6-17.6 3.6-17.6l-6-2.6z" fill="#424242" opacity=".2"/></g></g><g clip-path="url(#b)" opacity=".2"><path d="M-66.7 26.6c.6 0 1.5 0 2 .6 1 .9.8 3.3-.3 6.2-1.4 3.7-4.4 8-8.2 11.8-3.8 3.8-6 4.6-7 4.6-1.3 0-2.5-1.1-4.3-2.9-1.6-1.6-2.7-2.8-2.8-4 0-1.2.7-3.3 4.6-7.3 6.3-6.2 12.5-9 16-9m0-3c-4.8 0-11.9 3.7-18.1 10-8.5 8.4-5.6 11.7-1.8 15.5 2 2 3.8 3.7 6.3 3.7 2.3 0 5.2-1.4 9.2-5.5 8.5-8.5 12.3-18.4 8.5-22.2-1-1-2.4-1.5-4.1-1.5z" fill="#424242"/></g><g clip-path="url(#b)" opacity=".2"><path d="M-102.3 20c.6 0 1.5.1 2 .6 1.9 2-.5 10-8.5 18-3.8 3.9-6 4.7-7 4.7-1.3 0-2.6-1.2-4.3-2.9-1.6-1.6-2.8-2.9-2.8-4-.1-1.2.7-3.3 4.6-7.3 6.3-6.2 12.5-9 16-9m0-3c-4.8 0-11.9 3.7-18.1 9.9-8.5 8.5-5.6 11.7-1.8 15.5 2 2 3.8 3.8 6.3 3.8 2.3 0 5.2-1.5 9.2-5.5 8.5-8.5 12.3-18.5 8.5-22.3-1-1-2.4-1.5-4.1-1.5z" fill="#424242"/></g><g clip-path="url(#b)" opacity=".2"><path d="M-58.4 89c.7 0 1.7.2 2.2.7.9 1 .6 3.3-.6 6a35.4 35.4 0 0 1-8.6 11.2c-3.8 3.4-6 4.1-7 4.1-1.2 0-2.2-1-4.1-3-1.5-1.7-2.6-3-2.6-4.1 0-1.1.9-3.2 5-6.8 5.4-4.9 11.5-8 15.7-8m0-3c-4.7 0-11.6 3.2-17.8 8.7-8.8 8-6 11.2-2.5 15.2 1.9 2.1 3.6 4 6.3 4 2.2 0 5-1.3 9-5 8.7-7.8 13-17.3 9.5-21.3a6 6 0 0 0-4.5-1.7z" fill="#424242"/></g><g clip-path="url(#b)" opacity=".2"><path d="M-63 53c.5 0 1.3 0 1.8.5 1.7 1.7-.6 9.3-8 16.7-3.6 3.6-5.6 4.3-6.6 4.3-1.1 0-2.3-1-3.9-2.6-1.5-1.5-2.5-2.6-2.6-3.7 0-1 .6-3 4.3-6.7 5.9-5.9 11.8-8.5 15-8.5m0-3c-4.6 0-11.2 3.5-17.1 9.4-8 8-5.3 11-1.7 14.6 1.9 2 3.6 3.6 6 3.6 2.2 0 4.9-1.4 8.7-5.2 8-8 11.6-17.4 8-21-1-1-2.3-1.4-4-1.4z" fill="#424242"/></g><defs><path id="m" d="M4 4h120v120H4z"/></defs><clipPath id="n"><use xlink:href="#m"/></clipPath><g clip-path="url(#n)"><defs><path id="o" d="M0 0h128v128H0z"/></defs><clipPath id="p"><use xlink:href="#o"/></clipPath><g clip-path="url(#p)"><radialGradient id="q" cx="-1218.5" cy="-480.3" r="137.6" gradientTransform="scale(-1 1) rotate(-45 32.5 -1625.4)" gradientUnits="userSpaceOnUse"><stop stop-color="#E0BB95" offset=".4"/><stop stop-color="#CCA47A" offset=".9"/></radialGradient><path d="M-20.3 186.8A46.3 46.3 0 0 1-53 171.3c-28-28.1-34.4-44.3-26-66.5a299 299 0 0 1 18.8-34.2c1-1.1 8.9-9 15-15.9A96 96 0 0 0-33 37.6a4 4 0 0 1 3.1-1.5c.7 0 1.3.2 1.9.5 7 4.4 9.3 9.6 7.2 16A45.7 45.7 0 0 1-30 66c-4 4.6-6.6 7.6-5.7 10.2l.5 1.2c.6 1.9 1.3 3.8 3 3.8.8 0 1.5-.3 2.2-1.1 1-1.1 34.5-32.7 52-49.2 3.4-3.2 6.6-5 9.6-5 2.2 0 4.2 1 6 2.8A8 8 0 0 1 40 36a16 16 0 0 1-4.8 8L-1.4 83.9c-.5.6-.5 1.5 0 2a1.5 1.5 0 0 0 2.1.2l54.9-47.4v-.1c3.3-3.2 6.6-5 9.6-5 2.1 0 4.1 1 6 2.7 5.7 5.8 1 12.2-2.3 15.5l-8.2 7.8c-.6.5-.6 1.5-.1 2.1a1.5 1.5 0 0 0 2.1.1c3-2.6 5.9-4 8.5-4 2.2 0 4.2.9 6 2.7a8 8 0 0 1 2.5 7.4 16 16 0 0 1-4.8 8v.1l-39.3 46a1.5 1.5 0 0 0 2.1 2.2l27-23.8c3.3-3.3 6.6-5 9.6-5 2.1 0 4 1 5.9 2.7 3.9 4 3 8-3.4 14.4-.6.5-61.1 58.5-71.7 65.8a45.3 45.3 0 0 1-25.4 8.5z" fill="url(#q)"/><path d="M31.5 27.4c1.8 0 3.4.8 4.9 2.3 2.5 2.5 4.2 6.9-2.2 13.3l-.1.1L-2.5 83a3 3 0 0 0 4.2 4.3l54.9-47.4.1-.2c3-2.9 6-4.5 8.5-4.5 1.7 0 3.3.8 4.9 2.3 2.5 2.5 4.2 6.9-2.3 13.3l-8.1 7.8-1.2 1a3 3 0 0 0 4.2 4.3l1-1c2.7-2.3 5.3-3.5 7.5-3.5a7 7 0 0 1 5 2.2c1.8 2 2.5 4 2 6.2a14.7 14.7 0 0 1-4.5 7.3l-39.3 46a3 3 0 0 0 4.3 4.3l27-23.8.1-.1c2.9-2.9 6-4.5 8.5-4.5 1.7 0 3.3.7 4.8 2.3 2.3 2.2 3.9 5-3.3 12.2-1.5 1.4-61.1 58.4-71.6 65.7-5.4 3.7-14 8.2-24.5 8.2a45 45 0 0 1-31.7-15c-14.3-14.3-22.4-25-26.2-34.4-4-9.8-3.8-19.2.4-30.6 3.3-8.8 17-31 18.6-33.8 1.5-1.4 9-9 15-15.7 6.5-7 11.5-15.8 12.4-17.3.4-.6 1.1-.9 1.8-.9.4 0 .8.1 1 .3 6.5 4 8.6 8.5 6.7 14.2-1.5 4.4-5.6 9.1-9 13-4.1 4.8-7.2 8.3-5.9 11.6l.5 1.2c.7 2 1.6 4.9 4.5 4.9.8 0 2-.3 3.2-1.7A10440.5 10440.5 0 0 1 23 32c3-3 6-4.6 8.5-4.6m0-3c-3.6 0-7.3 2.2-10.5 5.4 0 0-51.6 48.5-52.3 49.3-.3.4-.6.6-1 .6-.9 0-1.4-2.2-2-4C-35.8 72-22.8 62.4-19.6 53c3.4-10.2-4.4-15.6-7.8-17.7a5 5 0 0 0-2.7-.7c-1.6 0-3.3.8-4.3 2.2 0 0-5.3 9.5-12 17s-15.2 15.8-15.2 15.8-15.4 24.9-19 34.6c-9 24-1 40.7 26.4 68.2a47.5 47.5 0 0 0 33.8 15.9c10.3 0 19.4-4 26.3-8.8 10.8-7.5 72-66 72-66 5.4-5.5 8.7-11 3.3-16.5a9.7 9.7 0 0 0-7-3.1c-3.6 0-7.3 2-10.6 5.3l-27 23.8L76 77c5.5-5.5 7.7-12.1 2.2-17.6a9.7 9.7 0 0 0-7-3.1c-3.2 0-6.5 1.7-9.5 4.4l-1 1 1-1 8.2-7.8c5.5-5.5 7.7-12.2 2.3-17.6a9.7 9.7 0 0 0-7-3.1c-3.6 0-7.3 2-10.6 5.3L-.2 85l36.5-39.7c5.5-5.5 7.7-12.2 2.2-17.6a9.7 9.7 0 0 0-7-3.1z" fill="#BA8F63"/><linearGradient id="r" x1="56.3" x2="88.3" y1="50.5" y2="20.4" gradientUnits="userSpaceOnUse"><stop stop-color="#D32F2F" offset=".1"/><stop stop-color="#F44336" offset=".8"/></linearGradient><path d="M74 47.3c-8.5 8.5-11.8 5.6-15.6 1.8s-6.7-7 1.8-15.6 18.4-12.2 22.2-8.4 0 13.7-8.4 22.2z" fill="url(#r)"/><linearGradient id="s" x1="19.1" x2="48.3" y1="31.7" y2="31.7" gradientUnits="userSpaceOnUse"><stop stop-color="#D32F2F" offset="0"/><stop stop-color="#F44336" offset=".6"/></linearGradient><path d="M38.3 40.8c-8.4 8.5-11.7 5.6-15.5 1.8s-6.7-7.1 1.8-15.6S43 14.7 46.8 18.5c3.8 3.8 0 13.8-8.5 22.3z" fill="url(#s)"/><linearGradient id="t" x1="62.9" x2="92.3" y1="100" y2="100" gradientUnits="userSpaceOnUse"><stop stop-color="#D32F2F" offset="0"/><stop stop-color="#F44336" offset=".6"/></linearGradient><path d="M81.6 109c-8.8 8-11.8 5-15.3 1s-6.2-7.3 2.5-15.1 18.8-11 22.3-7.2c3.5 4-.7 13.5-9.5 21.4z" fill="url(#t)"/><path d="M10.3 108.8a1.5 1.5 0 0 1-1-2.6l48.9-45.8c.6-.6 2.3-.7 2.9 0s.3 1.8-.3 2.4l-49.4 45.6c-.3.3-.7.4-1 .4z" fill="#BA8F63"/><linearGradient id="u" x1="59.7" x2="87.3" y1="63.8" y2="63.8" gradientUnits="userSpaceOnUse"><stop stop-color="#D32F2F" offset="0"/><stop stop-color="#F44336" offset=".6"/></linearGradient><path d="M77.9 72.4c-8 8-11 5.2-14.7 1.6-3.6-3.6-6.3-6.6 1.7-14.6s17.4-11.6 21-8c3.6 3.6 0 13-8 21z" fill="url(#u)"/></g><g clip-path="url(#p)"><path fill="#C62828" d="M109 28.3l5.5 2.3-11.4 27.7-5.6-2.3z"/><linearGradient id="v" x1="407" x2="407.1" y1="-179.7" y2="-205" gradientTransform="matrix(1.142 .4716 -.3817 .9243 -421.3 2.5)" gradientUnits="userSpaceOnUse"><stop stop-color="#F44336" offset=".2"/><stop stop-color="#D32F2F" offset=".7"/></linearGradient><path d="M120.5 34l-18.2-7.5a5.8 5.8 0 0 1-3.1-7.6l17-41c1.1-3 4.5-4.4 7.5-3.2l18.2 7.5c3 1.3 4.4 4.6 3.2 7.6l-17 41a5.8 5.8 0 0 1-7.6 3.2z" fill="url(#v)"/><radialGradient id="w" cx="542" cy="-127.6" r="12.2" gradientTransform="rotate(22.4 -196.7 -1162.7)" gradientUnits="userSpaceOnUse"><stop stop-color="#EF5350" offset="0"/><stop stop-color="#E53935" offset="1"/></radialGradient><path d="M80.3 80.3s3.9-1.8 6.3-4.3c3.5-3.7-.3-8.5 4.7-15.9a10 10 0 0 1 6.4-4.5l5.9 2.5s5.6 6.8-3.6 17.7c-8.5 10-19.7 4.5-19.7 4.5z" fill="url(#w)"/><linearGradient id="x" x1="407" x2="407.1" y1="-179.7" y2="-205" gradientTransform="matrix(1.142 .4716 -.3817 .9243 -421.3 2.5)" gradientUnits="userSpaceOnUse"><stop stop-color="#F44336" offset="0"/><stop stop-color="#E53A33" offset=".3"/><stop stop-color="#D83230" offset=".7"/><stop stop-color="#D32F2F" offset="1"/></linearGradient><path d="M120.5 34l-18.2-7.5a5.8 5.8 0 0 1-3.1-7.6l17-41c1.1-3 4.5-4.4 7.5-3.2l18.2 7.5c3 1.3 4.4 4.6 3.2 7.6l-17 41a5.8 5.8 0 0 1-7.6 3.2z" fill="url(#x)"/><path d="M121.5-22.8c.3 0 .7.1 1 .3l18.3 7.5c1.4.6 2 2.2 1.5 3.6l-17 41.1a2.8 2.8 0 0 1-3.6 1.5l-18.3-7.5c-1.4-.6-2-2.2-1.5-3.6L119-21c.4-1 1.4-1.8 2.6-1.8m0-3a5.8 5.8 0 0 0-5.4 3.6L99.1 19c-1.2 3 .2 6.3 3.2 7.6l18.2 7.5a6 6 0 0 0 2.2.4c2.3 0 4.5-1.3 5.4-3.5l17-41.1c1.2-3-.2-6.3-3.2-7.6l-18.2-7.5c-.8-.3-1.5-.5-2.2-.5zM97.4 58.8l4.1 1.7c.8 1.5 2.3 6.2-3.8 13.3-2.7 3.2-6 5-9.8 5l.8-.7c2.4-2.5 2.5-5.4 2.6-8 .1-2.4.2-5 2.4-8.3 1.3-2 2.9-2.7 3.7-3m.3-3.2S94 56 91.2 60c-5 7.4-1.1 12.3-4.6 15.9-2.4 2.5-6.4 4.3-6.4 4.3s3.1 1.6 7.3 1.6a16 16 0 0 0 12.5-6.1c9.2-10.9 3.6-17.6 3.6-17.6l-6-2.6z" fill="#424242" opacity=".2"/></g></g><g clip-path="url(#n)" opacity=".2"><path d="M78.3 26.6c.6 0 1.5 0 2 .6 1 .9.8 3.3-.3 6.2-1.4 3.7-4.4 8-8.2 11.8-3.8 3.8-6 4.6-7 4.6-1.3 0-2.5-1.1-4.3-2.9-1.6-1.6-2.7-2.8-2.8-4 0-1.2.7-3.3 4.6-7.3 6.3-6.2 12.5-9 16-9m0-3c-4.8 0-11.9 3.7-18.1 10-8.5 8.4-5.6 11.7-1.8 15.5 2 2 3.8 3.7 6.3 3.7 2.3 0 5.2-1.4 9.2-5.5 8.5-8.5 12.3-18.4 8.5-22.2-1-1-2.4-1.5-4.1-1.5z" fill="#424242"/></g><g clip-path="url(#n)" opacity=".2"><path d="M42.7 20c.6 0 1.5.1 2 .6 1.9 2-.5 10-8.5 18-3.8 3.9-6 4.7-7 4.7-1.3 0-2.6-1.2-4.3-2.9-1.6-1.6-2.8-2.9-2.8-4-.1-1.2.6-3.3 4.6-7.3 6.3-6.2 12.5-9 16-9m0-3c-4.8 0-11.9 3.7-18.1 9.9-8.5 8.5-5.6 11.7-1.8 15.5 2 2 3.8 3.8 6.3 3.8 2.3 0 5.2-1.5 9.2-5.5 8.5-8.5 12.3-18.5 8.5-22.3-1-1-2.4-1.5-4.1-1.5z" fill="#424242"/></g><g clip-path="url(#n)" opacity=".2"><path d="M86.6 89c.7 0 1.7.2 2.2.7.9 1 .6 3.3-.6 6a35.4 35.4 0 0 1-8.6 11.2c-3.8 3.4-6 4.1-7 4.1-1.2 0-2.2-1-4.1-3-1.5-1.7-2.6-3-2.6-4.1 0-1.1.9-3.2 5-6.8 5.4-4.9 11.5-8 15.7-8m0-3c-4.7 0-11.6 3.2-17.8 8.7-8.8 8-6 11.2-2.5 15.2 1.9 2.1 3.6 4 6.3 4 2.2 0 5-1.3 9-5 8.8-7.8 13-17.3 9.5-21.3a6 6 0 0 0-4.5-1.7z" fill="#424242"/></g><g clip-path="url(#n)" opacity=".2"><path d="M82 53c.5 0 1.3 0 1.7.5 1.8 1.7-.5 9.3-8 16.7-3.5 3.6-5.5 4.3-6.5 4.3-1.1 0-2.3-1-3.9-2.6-1.5-1.5-2.5-2.6-2.6-3.7 0-1 .6-3 4.3-6.7 5.9-5.9 11.8-8.5 15-8.5m0-3c-4.6 0-11.2 3.5-17.1 9.4-8 8-5.3 11-1.7 14.6 1.9 2 3.6 3.6 6 3.6 2.2 0 4.9-1.4 8.7-5.2 8-8 11.6-17.4 8-21-1-1-2.3-1.4-4-1.4z" fill="#424242"/></g><defs><path id="y" d="M146 4h120v120H146z"/></defs><clipPath id="z"><use xlink:href="#y"/></clipPath><g clip-path="url(#z)"><defs><path id="A" d="M142 0h128v128H142z"/></defs><clipPath id="B"><use xlink:href="#A"/></clipPath><g clip-path="url(#B)"><radialGradient id="C" cx="-1318.9" cy="-580.7" r="137.6" gradientTransform="scale(-1 1) rotate(-45 32.5 -1625.4)" gradientUnits="userSpaceOnUse"><stop stop-color="#F9DDBD" offset=".4"/><stop stop-color="#EDC391" offset=".9"/></radialGradient><path d="M121.7 186.8A46.3 46.3 0 0 1 89 171.3c-28-28.1-34.4-44.3-26-66.5a299 299 0 0 1 18.8-34.2c1-1.1 8.9-9 15-15.9 6.6-7.1 11.6-16 12.3-17.1a4 4 0 0 1 3-1.5c.7 0 1.3.2 1.9.5 7 4.4 9.3 9.6 7.2 16A45.7 45.7 0 0 1 112 66c-4 4.6-6.6 7.6-5.7 10.2l.5 1.2c.6 1.9 1.3 3.8 3 3.8.8 0 1.6-.3 2.2-1.1 1-1.1 34.5-32.7 52-49.2 3.4-3.2 6.6-5 9.6-5 2.2 0 4.2 1 6 2.8A8 8 0 0 1 182 36a16 16 0 0 1-4.8 8l-36.6 39.8c-.5.6-.5 1.5 0 2a1.5 1.5 0 0 0 2.1.2l54.9-47.5c3.3-3.3 6.6-5 9.6-5 2.1 0 4.1 1 6 2.7 5.7 5.8 1 12.2-2.3 15.5l-8.2 7.8c-.6.5-.6 1.5-.1 2a1.5 1.5 0 0 0 2.1.2c3-2.6 5.9-4 8.5-4 2.2 0 4.2.9 6 2.7a8 8 0 0 1 2.5 7.4 16 16 0 0 1-4.8 8v.1l-39.3 46a1.5 1.5 0 0 0 2.1 2.1l27-23.7c3.3-3.3 6.6-5 9.6-5 2.1 0 4 .9 5.9 2.7 3.9 3.9 3 8-3.4 14.3-.6.6-61.1 58.5-71.7 65.9a45.2 45.2 0 0 1-25.4 8.5z" fill="url(#C)"/><path d="M173.5 27.4c1.8 0 3.4.8 4.9 2.3 2.5 2.5 4.2 6.9-2.2 13.3l-.1.1L139.5 83a3 3 0 0 0 4.2 4.3l54.9-47.4.1-.2c3-2.9 6-4.5 8.5-4.5 1.8 0 3.3.8 4.9 2.3 2.5 2.5 4.2 6.9-2.3 13.3l-8.1 7.8-1.2 1a3 3 0 0 0 4.2 4.3l1-1c2.7-2.3 5.3-3.5 7.5-3.5a7 7 0 0 1 5 2.2c1.8 2 2.5 4 2 6.2a14.7 14.7 0 0 1-4.5 7.3l-39.3 46a3 3 0 0 0 4.3 4.3l27-23.8.1-.1c2.9-2.9 6-4.5 8.5-4.5 1.7 0 3.3.7 4.8 2.3 2.3 2.2 3.9 5-3.3 12.2-1.5 1.4-61.2 58.4-71.6 65.7-5.4 3.7-14 8.2-24.5 8.2a45 45 0 0 1-31.7-15c-14.3-14.3-22.4-25-26.2-34.4-4-9.8-3.8-19.2.4-30.6 3.3-8.8 17-31 18.6-33.8 1.5-1.4 9-9 15-15.7 6.5-7 11.5-15.8 12.4-17.3.4-.6 1.1-.9 1.8-.9.4 0 .8.1 1 .3 6.5 4 8.6 8.5 6.7 14.2-1.5 4.4-5.6 9.1-9 13-4.1 4.8-7.2 8.3-5.9 11.6l.5 1.2c.7 2 1.6 4.9 4.5 4.9.8 0 2-.3 3.2-1.7A12253.9 12253.9 0 0 1 165 32c3-3 6-4.6 8.5-4.6m0-3c-3.6 0-7.3 2.2-10.5 5.4 0 0-51.6 48.5-52.3 49.3-.3.4-.6.6-1 .6-.9 0-1.4-2.2-2-4-1.4-3.6 11.6-13.2 14.8-22.7 3.4-10.2-4.4-15.6-7.8-17.7a5 5 0 0 0-2.7-.7c-1.6 0-3.3.8-4.3 2.2 0 0-5.3 9.5-12 17S80.5 69.5 80.5 69.5s-15.5 25-19.1 34.7c-9 23.8-1 40.6 26.5 68a47.5 47.5 0 0 0 33.8 16c10.3 0 19.4-4 26.3-8.8 10.8-7.5 72-66 72-66 5.4-5.5 8.7-11 3.3-16.5a9.7 9.7 0 0 0-7-3.1c-3.6 0-7.3 2-10.6 5.4l-27 23.7L218 77c5.5-5.5 7.7-12.1 2.2-17.6a9.7 9.7 0 0 0-7-3.1c-3.2 0-6.5 1.7-9.5 4.4l-1 1 1-1 8.2-7.8c5.5-5.5 7.7-12.2 2.3-17.6a9.7 9.7 0 0 0-7-3.2c-3.6 0-7.3 2.2-10.6 5.4L141.7 85l36.6-39.7c5.4-5.5 7.7-12.2 2.2-17.6a9.7 9.7 0 0 0-7-3.2z" fill="#E6B77E"/><linearGradient id="D" x1="198.3" x2="230.3" y1="50.5" y2="20.4" gradientUnits="userSpaceOnUse"><stop stop-color="#D32F2F" offset=".1"/><stop stop-color="#F44336" offset=".8"/></linearGradient><path d="M216 47.3c-8.5 8.5-11.8 5.6-15.6 1.8s-6.7-7 1.8-15.6 18.4-12.2 22.2-8.4c3.8 3.8 0 13.7-8.5 22.2z" fill="url(#D)"/><linearGradient id="E" x1="161.1" x2="190.3" y1="31.7" y2="31.7" gradientUnits="userSpaceOnUse"><stop stop-color="#D32F2F" offset="0"/><stop stop-color="#F44336" offset=".6"/></linearGradient><path d="M180.3 40.8c-8.5 8.5-11.7 5.6-15.5 1.8s-6.7-7.1 1.8-15.6 18.4-12.3 22.2-8.5c3.8 3.8 0 13.8-8.5 22.3z" fill="url(#E)"/><linearGradient id="F" x1="204.9" x2="234.3" y1="100" y2="100" gradientUnits="userSpaceOnUse"><stop stop-color="#D32F2F" offset="0"/><stop stop-color="#F44336" offset=".6"/></linearGradient><path d="M223.6 109c-8.8 8-11.8 5-15.3 1s-6.2-7.3 2.5-15.1 18.8-11 22.3-7.2c3.5 4-.7 13.5-9.5 21.4z" fill="url(#F)"/><path d="M152.3 108.8a1.5 1.5 0 0 1-1-2.6l48.9-45.8c.6-.6 2.3-.7 2.9 0s.3 1.8-.3 2.4l-49.4 45.6c-.3.3-.7.4-1 .4z" fill="#E6B77E"/><linearGradient id="G" x1="201.7" x2="229.3" y1="63.8" y2="63.8" gradientUnits="userSpaceOnUse"><stop stop-color="#D32F2F" offset="0"/><stop stop-color="#F44336" offset=".6"/></linearGradient><path d="M219.9 72.4c-8 8-11 5.2-14.7 1.6-3.6-3.6-6.3-6.6 1.7-14.6s17.4-11.6 21-8c3.6 3.6 0 13-8 21z" fill="url(#G)"/></g><g clip-path="url(#B)"><path fill="#C62828" d="M251 28.3l5.5 2.3-11.4 27.7-5.6-2.3z"/><linearGradient id="H" x1="513.2" x2="513.3" y1="-233.8" y2="-259.2" gradientTransform="matrix(1.142 .4716 -.3817 .9243 -421.3 2.5)" gradientUnits="userSpaceOnUse"><stop stop-color="#F44336" offset=".2"/><stop stop-color="#D32F2F" offset=".7"/></linearGradient><path d="M262.5 34l-18.2-7.5a5.8 5.8 0 0 1-3.1-7.6l17-41c1.1-3 4.5-4.4 7.5-3.2l18.2 7.5c3 1.3 4.4 4.6 3.2 7.6l-17 41a5.8 5.8 0 0 1-7.6 3.2z" fill="url(#H)"/><radialGradient id="I" cx="673.3" cy="-181.8" r="12.2" gradientTransform="rotate(22.4 -196.7 -1162.7)" gradientUnits="userSpaceOnUse"><stop stop-color="#EF5350" offset="0"/><stop stop-color="#E53935" offset="1"/></radialGradient><path d="M222.3 80.3s3.9-1.8 6.3-4.3c3.5-3.7-.3-8.5 4.7-15.9a10 10 0 0 1 6.4-4.5l5.9 2.5s5.6 6.8-3.6 17.7c-8.5 10-19.7 4.5-19.7 4.5z" fill="url(#I)"/><linearGradient id="J" x1="513.2" x2="513.3" y1="-233.8" y2="-259.2" gradientTransform="matrix(1.142 .4716 -.3817 .9243 -421.3 2.5)" gradientUnits="userSpaceOnUse"><stop stop-color="#F44336" offset="0"/><stop stop-color="#E53A33" offset=".3"/><stop stop-color="#D83230" offset=".7"/><stop stop-color="#D32F2F" offset="1"/></linearGradient><path d="M262.5 34l-18.2-7.5a5.8 5.8 0 0 1-3.1-7.6l17-41c1.1-3 4.5-4.4 7.5-3.2l18.2 7.5c3 1.3 4.4 4.6 3.2 7.6l-17 41a5.8 5.8 0 0 1-7.6 3.2z" fill="url(#J)"/><path d="M263.5-22.8c.3 0 .7.1 1 .3l18.3 7.5c1.4.6 2 2.2 1.5 3.6l-17 41.1a2.8 2.8 0 0 1-3.6 1.5l-18.3-7.5c-1.4-.6-2-2.2-1.5-3.6L261-21c.4-1 1.4-1.8 2.6-1.8m0-3a5.8 5.8 0 0 0-5.4 3.6l-17 41.1c-1.2 3 .2 6.3 3.2 7.6l18.2 7.5a6 6 0 0 0 2.2.4c2.3 0 4.5-1.3 5.4-3.5l17-41.1c1.2-3-.2-6.4-3.2-7.6l-18.2-7.5a6 6 0 0 0-2.2-.5zm-24.2 84.6l4.1 1.7c.8 1.5 2.3 6.2-3.8 13.3-2.7 3.2-6 5-9.8 5l.8-.7c2.4-2.5 2.5-5.4 2.6-8 .1-2.4.2-5 2.4-8.3 1.3-2 2.9-2.7 3.7-3m.3-3.2s-3.7.4-6.4 4.5c-5 7.4-1.2 12.3-4.7 15.9-2.4 2.5-6.3 4.3-6.3 4.3s3 1.6 7.2 1.6a16 16 0 0 0 12.5-6.1c9.2-10.9 3.6-17.6 3.6-17.6l-6-2.6z" fill="#424242" opacity=".2"/></g></g><g clip-path="url(#z)" opacity=".2"><path d="M220.3 26.6c.6 0 1.5 0 2 .6 1 .9.8 3.3-.3 6.2-1.4 3.7-4.4 8-8.2 11.8-3.8 3.8-6 4.6-7 4.6-1.3 0-2.6-1.1-4.3-2.9-1.6-1.6-2.7-2.8-2.8-4 0-1.2.7-3.3 4.6-7.3 6.3-6.2 12.5-9 16-9m0-3c-4.8 0-11.9 3.7-18.1 10-8.5 8.4-5.6 11.7-1.8 15.5 2 2 3.8 3.7 6.3 3.7 2.3 0 5.2-1.4 9.2-5.5 8.5-8.5 12.3-18.4 8.5-22.2-1-1-2.4-1.5-4.1-1.5z" fill="#424242"/></g><g clip-path="url(#z)" opacity=".2"><path d="M184.7 20c.6 0 1.5.1 2 .6 1.9 2-.5 10-8.5 18-3.8 3.9-6 4.7-7 4.7-1.3 0-2.6-1.2-4.3-2.9-1.6-1.6-2.8-2.9-2.8-4-.1-1.2.6-3.3 4.6-7.3 6.3-6.2 12.5-9 16-9m0-3c-4.8 0-11.9 3.7-18.1 9.9-8.5 8.5-5.6 11.7-1.8 15.5 2 2 3.8 3.8 6.3 3.8 2.3 0 5.2-1.5 9.2-5.5 8.5-8.5 12.3-18.5 8.5-22.3-1-1-2.4-1.5-4.1-1.5z" fill="#424242"/></g><g clip-path="url(#z)" opacity=".2"><path d="M228.6 89c.7 0 1.7.2 2.2.7.9 1 .6 3.3-.6 6a35.4 35.4 0 0 1-8.6 11.2c-3.8 3.4-6 4.1-7 4.1-1.2 0-2.2-1-4.1-3-1.5-1.7-2.6-3-2.6-4.1 0-1.1.9-3.2 5-6.8 5.4-4.9 11.5-8 15.7-8m0-3c-4.7 0-11.6 3.2-17.8 8.7-8.8 8-6 11.2-2.5 15.2 1.9 2.1 3.6 4 6.3 4 2.2 0 5-1.3 9-5 8.7-7.8 13-17.3 9.5-21.3a6 6 0 0 0-4.5-1.7z" fill="#424242"/></g><g clip-path="url(#z)" opacity=".2"><path d="M224 53c.5 0 1.3 0 1.8.5 1.7 1.7-.6 9.3-8 16.7-3.6 3.6-5.6 4.3-6.6 4.3-1.1 0-2.3-1-3.9-2.6-1.5-1.5-2.5-2.6-2.6-3.7 0-1 .6-3 4.3-6.7 5.9-5.9 11.8-8.5 15-8.5m0-3c-4.6 0-11.2 3.5-17.1 9.4-8 8-5.3 11-1.7 14.6 1.9 2 3.6 3.6 6 3.6 2.2 0 4.9-1.4 8.7-5.2 8-8 11.6-17.4 8-21-1-1-2.3-1.4-4-1.4z" fill="#424242"/></g></svg>