<svg viewBox="0 0 128 128" xmlns="http://www.w3.org/2000/svg" xmlns:xlink="http://www.w3.org/1999/xlink"><defs><path id="a" d="M-130 4h120v120h-120z"/></defs><clipPath id="b"><use xlink:href="#a"/></clipPath><g clip-path="url(#b)"><radialGradient id="c" cx="-1152" cy="61" r="18.2" gradientTransform="scale(-1 1) rotate(5 38.4 14153.1)" gradientUnits="userSpaceOnUse"><stop stop-color="#BFA055" offset="0"/><stop stop-color="#AB872F" offset="1"/></radialGradient><path d="M-92.3 45c-4.1 0-7.3-1.9-8.4-5-1-3 .5-6.4 4-9 3-2.2 3.1-3.7 2.7-7.6-.3-4 0-7.2 1.1-9.9a13 13 0 0 1 12.1-7.8c4.4 0 8.3 2 10.6 5.5 4 6 2.6 15.4-1 21.1 0 .2 0 .3-.2.5A23.3 23.3 0 0 1-92.3 45z" fill="url(#c)"/><path d="M-80.8 6.2c4.3 0 8 2 10.2 5.3 3.8 5.8 2.5 15-1 20.6 0 0 0 .3-.2.5a22.8 22.8 0 0 1-20.4 12c-4 0-7-1.8-8-4.7-.9-2.8.5-6 3.7-8.4 3.3-2.4 3.4-4 3-8.2-.3-3.9 0-7 1.1-9.6 1.8-4.5 6.4-7.5 11.6-7.5m0-1c-5.2 0-10.4 2.8-12.5 8.1a21.8 21.8 0 0 0-1.1 10.1c.3 4 .1 5.2-2.7 7.3-7.9 5.9-4.4 14.8 4.9 14.8h1.3c15-1.3 19.4-11.5 20.2-13 3.8-6 5-15.6 1-21.6a13 13 0 0 0-11-5.7z" fill="#8F7635"/></g><g clip-path="url(#b)"><linearGradient id="d" x1="-63.6" x2="-63.1" y1="41.9" y2="41.9" gradientUnits="userSpaceOnUse"><stop stop-color="#E0BB95" offset="0"/><stop stop-color="#DEB892" offset=".4"/><stop stop-color="#D6B088" offset=".7"/><stop stop-color="#CCA47A" offset="1"/></linearGradient><path d="M-76.8 49.2c-2.4 0-5.3-.4-8-1.3l-5.7-8.7c1.1-1 5.2-4 12.3-4 1.6 0 3.3.1 5 .4l1.7.1c1 0 3.3 0 5.5-1.2l1 8.8c-.5.7-3.3 4.3-8.3 5.6-1 .2-2.2.3-3.5.3z" fill="url(#d)"/><path d="M-66.4 35.3l1 7.8c-.8 1-3.4 4.1-8 5.3a27.4 27.4 0 0 1-11.1-.9l-5.3-8.2c1.4-1 5.3-3.7 11.6-3.7 1.6 0 3.3.2 5 .5l1.7.2c1 0 3-.2 5.1-1m.8-1.6a11.9 11.9 0 0 1-7.5 1.4c-1.8-.3-3.5-.5-5-.5-8.7 0-13 4.6-13 4.6l6 9.2c2.8.8 5.8 1.3 8.4 1.3a15 15 0 0 0 3.5-.4c6-1.4 8.8-5.9 8.8-5.9l-1.2-9.7z" fill="#BA8F63"/><linearGradient id="e" x1="-59" x2="-59" y1="15.7" y2="39.5" gradientUnits="userSpaceOnUse"><stop stop-color="#E0BB95" offset="0"/><stop stop-color="#DEB892" offset=".4"/><stop stop-color="#D6B088" offset=".7"/><stop stop-color="#CCA47A" offset="1"/></linearGradient><path d="M-66 42.7a34 34 0 0 1-2.7-6.9c1.7-1 8.6-5.1 11.8-7.4.2 0 .3-.3.2-.5a59 59 0 0 0-1-3.3L-61 14.4l-.1-.4v-.1c-.3-.5-.4-1.3.3-1.9l3-2.6c.4-.3 1-.7 1.3-.7.2 0 .3.1.4.3a.5.5 0 0 0 .5.4l.3-.1c1-.9 3.7-3 4.8-3.2v.3A49.6 49.6 0 0 0-57 13l.1.2c1 2.2 2 4 3.1 6a44.9 44.9 0 0 1 4.4 8.9 3 3 0 0 1 0 2.1c-.2.6-.6 1.2-1 1.6l-.2.1c-4.5 3.7-8.5 7-11.8 9.5a8 8 0 0 1-3.5 1.3z" fill="url(#e)"/><path d="M-54 8.8a51.2 51.2 0 0 0-3.3 3.2 1 1 0 0 0-.3 1.1l.1.2v.1c1 2.2 2 4 3.2 6 1.5 2.5 3 5.2 4.2 8.7v.2c.2.4.4 1 .1 1.8-.1.5-.5 1-.9 1.3l-.1.1A292 292 0 0 1-62.8 41c-.7.5-2 1-3 1.2-.4-.9-1.5-3.6-2.3-6.1 2.1-1.3 8.4-5.1 11.5-7.3.3-.2.5-.6.4-1l-1-3.3-3.4-10.3V14l-.2-.3c0-.2-.3-.7.3-1.2l3-2.7c.3-.2.7-.4 1-.4 0 .3.3.5.6.6h.2c.3 0 .5-.1.7-.3l1-.8m3.4-3.2c-1.5.3-5 3.3-5 3.3-.2-.5-.5-.6-1-.6s-1.1.3-1.5.7l-3 2.7c-.9.7-1 1.7-.5 2.4l.1.5 3.4 10.2 1 3.2c-3.7 2.6-12.2 7.5-12.2 7.5S-66.9 43-66 43c1.2 0 3-.6 3.9-1.3l12-9.5a3.6 3.6 0 0 0 1.1-4.3c-2-6.4-5.3-9.9-7.4-14.9l-.1-.2 1.4-1.3s2.9-3.1 5-4.7c.5-.4.3-1.2-.4-1.2z" fill="#BA8F63"/><linearGradient id="f" x1="-61.7" x2="-78.5" y1="34.4" y2="45.6" gradientUnits="userSpaceOnUse"><stop stop-color="#E31C00" offset=".3"/><stop stop-color="#BC1B00" offset=".9"/></linearGradient><path d="M-74.4 34.4c3 0 3.6.6 7-.4.4-.1 1.1.3 1.4.6 1.3.9 2.3 2.2 3.1 3.5a7.6 7.6 0 0 1 1.5 4c0 .6-3.8 3.5-5.1 3-1.9-.6-3.4-3.4-4.2-5.2a25 25 0 0 0-3.7-5.5" fill="url(#f)"/><linearGradient id="g" x1="-94.8" x2="-94.8" y1="45.6" y2="69.7" gradientUnits="userSpaceOnUse"><stop stop-color="#E0BB95" offset="0"/><stop stop-color="#DEB892" offset=".4"/><stop stop-color="#D6B088" offset=".7"/><stop stop-color="#CCA47A" offset="1"/></linearGradient><path d="M-91.3 76.7l-.2-.1v-.2c.7-2.5 1.2-6.6 1.2-6.8l.4-2c0-.2 0-.4-.2-.5a38 38 0 0 0-5.5-4.3 45.1 45.1 0 0 1-7.4-6.2l-.1-.1a3.2 3.2 0 0 1 0-4.5l.1-.2 10.5-11c.7-.6 2.4-1.5 3.3-1.6.6.5 2.2 3.6 3.6 6.4-1.4 1.1-7 5.6-10.1 8.3-.2.2-.2.5 0 .7l.1.2 1.2 1.4 7.3 8 .2.2.1.1v.1l.3.5v.7l-1 4c0 .6-.5 1.3-.8 1.3l-.3-.1-.3-.1h-.1c-.2 0-.3.2-.3.3a19 19 0 0 1-2 5.5z" fill="url(#g)"/><path d="M-89.4 39.7c.7.8 2 3.4 3.1 5.8-1.7 1.4-6.9 5.5-9.8 8a1 1 0 0 0 0 1.4l.1.2 1.3 1.5 7.3 8 .1.1.1.1c.1.1 0 0 0 .1h.1v.7l-.8 4-.4 1a1 1 0 0 0-1-.2 1 1 0 0 0-.5.7l-.4 1.3a60.5 60.5 0 0 0 .8-4.7c0-.4 0-.8-.5-1l-.2-.2a34.2 34.2 0 0 0-5.3-4.1 44 44 0 0 1-7.3-6.1v-.2a2.7 2.7 0 0 1 0-3.8l.1-.1 10.5-11c.6-.5 1.9-1.2 2.7-1.5m.3-.7a7 7 0 0 0-3.7 1.7c-4.2 4.2-8.6 8.8-10.6 11-.5.5-1 1.1-1 1.9-.3 1.2.1 2.3.9 3.2l.1.1c4.5 4.8 8.7 6.6 12.6 10.3l.4.3-.4 2s-.4 4.2-1.2 6.8c-.1.4.2.8.6.8l.5-.1c1-1.1 2-5.7 2-5.7.2.2.4.2.6.2.7 0 1.2-1 1.4-1.7l.8-4v-.6l-.1-.8-.2-.2-.1-.1-.2-.3L-94 56l-1.4-1.6C-91.8 51-85 45.9-85 45.9s-3.3-6.9-4.1-6.9z" fill="#BA8F63"/><linearGradient id="h" x1="-88.7" x2="-76.8" y1="27.5" y2="76.1" gradientUnits="userSpaceOnUse"><stop stop-color="#BC1B00" offset="0"/><stop stop-color="#E31C00" offset=".3"/><stop stop-color="#BC1B00" offset=".7"/><stop stop-color="#DD1C00" offset=".9"/></linearGradient><path d="M-40 67c1.7.2-7.3 5.6-19.6-1.3-4-2.2-6.5-5.3-7-9s1.9-6 2.1-9.2c.4-5.3-3.5-6.3-5.5-8.6s-4.4-4.5-4.4-4.5h-1.2c1.6 1.8 5.7 10.3 2 12s-11.7-11-11.7-11l-1.4.5a17 17 0 0 0-7.1 4.9c0 .4 7.8 8.6 10.2 12 .8 1 3 5 2.2 8.3-5.8 12.3-.2 14.7.4 19 1.3 9-9 30.7-26.5 30.7l8.2 4.7 15.7-1 8.7-7.5 11.9-1.8 4.2-8.6 4.1-11.6 15.2-10-.5-8z" fill="url(#h)"/><path d="M-94.6 41.4c-.3.2-.5.5-.5.8 0 .2 0 .4.2.6a21.9 21.9 0 0 0 6.3 6.8c.3.1 2.1-1.2 2.2-1.4.4-.3.2-1 0-1.4-.9-1.5-1.7-3-2.9-4.3s-2.4-2.2-4-2.3l-1.3 1.2z" fill="#DD2C00"/><defs><path id="i" d="M-40 67c1.7.2-7.3 5.6-19.6-1.3-4-2.2-6.5-5.3-7-9s1.9-6 2.1-9.2c.4-5.3-3.5-6.3-5.5-8.6s-4.4-4.5-4.4-4.5h-1.2c1.6 1.8 5.7 10.3 2 12s-11.7-11-11.7-11l-1.4.5a17 17 0 0 0-7.1 4.9c0 .4 7.8 8.6 10.2 12 .8 1 3 5 2.2 8.3-5.8 12.3-.2 14.7.4 19 1.3 9-9 30.7-26.5 30.7l8.2 4.7 15.7-1 8.7-7.5 11.9-1.8 4.2-8.6 4.1-11.6 15.2-10-.5-8z"/></defs><clipPath id="j"><use xlink:href="#i"/></clipPath><g clip-path="url(#j)"><path d="M-80.8 96.6c-1.4.8-2.9 2.3-4.4 4.9-1.3 2.2-4.4 7.8-6.8 8.2-2.3.5-5.4-.6-6.5-2.6l-.5-.9-1.8 1 .5.8c1.4 2.5 4.4 3.6 7 3.6l1.7-.1c3.4-.7 6-6 7.3-8.3 1-1.7 2-2.8 3-3.6-.1-1 0-2 .5-3zM-60 70.3c2.2 0 4.1.6 4.1.6l-.7-.5c-1.2-.6-3.7-1.9-6-1.7.8.9 1.8 1.2 2.6 1.6zM-68.3 85c2 4.7 5.7 12.8 2.4 15.2-.7.4-2.2.2-4.1-.8-1.5-.8-3.1-2-4.9-2.9.2.8.5 1.6.5 2.4 1.5.5 2.8 1.3 4 2 2.2 1.1 4 1.8 5.7.3 4.3-3.7.2-10-1.8-15-2-4.8-1.8-8.3-.2-11.1l-2.4-.8c-1.2 3.3-.7 7.1.9 10.7z" fill="#FF8F00"/><path d="M-63.5 71.5c1-.8 2.3-1 3.5-1.2-.8-.4-1.8-.7-2.5-1.6-.6 0-1.1.2-1.6.4a9.8 9.8 0 0 0-5 5.2l2.4.8c.7-1.4 1.8-2.5 3.2-3.6zm-17.3 25.1a8 8 0 0 0-.6 3c2.4-1.9 4.8-1.6 7-.7 0-.8-.3-1.6-.5-2.4-1.8-.8-3.8-1.2-5.9 0z" fill="#FFB300"/></g><g clip-path="url(#j)"><path d="M-49 74.3v-.5c3-.5 2.1-4.6 2-5.3l2-.3c0 .4.6 3.6-1 5.4-.6.5-3 .7-3 .7z" fill="#FF8F00"/></g><radialGradient id="k" cx="-66.8" cy="99.2" r="47.4" gradientUnits="userSpaceOnUse"><stop stop-color="#892002" offset="0"/><stop stop-color="#B42002" offset=".5"/><stop stop-color="#892002" offset="1"/></radialGradient><path d="M-36 64.4c5.5-.7 9.8 5.2 7.7 10.5a5.6 5.6 0 0 1-3.2 3.3c-1 .4-1 2 .1 2.3.8.2 2.2-.6 3.5.1a5 5 0 0 1 2.8 4.7c0 2.7-1.2 5.4-3.8 6.1-3.8 1-4.6 4.5-4.7 8.7 0 1.8-.5 4.5-2.7 6-7.4 5-12.1-2-17.8 1-9.8 5.3-3.7 16.1-28.3 8.8-5.9-1.7-15.6 10.5-24 5.4-6.7-4-4.7-9-2.1-10.8 5.2-3.5 6 3.7 17.7 3 6.1-.3 4.6-10.5 12.8-13 6.4-2 9 7.3 14 3 7.7-6.7-3.5-17.2-.5-24.7 1.8-4.7 5.7-7.3 9.7-6.3s3.7 4 6.3 4.8c2.8.9 4.5-2 5.2-4 1-3.4 1.7-8.2 7.2-8.9z" fill="url(#k)"/><path d="M-67.3 35l.7.4a12 12 0 0 1 2.9 3.2c.6 1 1.2 2.2 1.3 3.3-.4.4-1.6 1.4-2.8 2a1 1 0 0 0-.5 1.1c.2.7.3 1.5.2 2.4 0 1.2-.5 2.4-1 3.5-.7 1.8-1.4 3.6-1 6 .5 3.9 3.2 7.4 7.4 9.7 4.3 2.4 8.6 3.6 12.9 3.6a18 18 0 0 0 5.9-1c.2 0 .4-.2.5-.4a6 6 0 0 1 4.8-3.4h.8c2 0 4 1 5.2 2.8a6.8 6.8 0 0 1 .8 6.3 4.6 4.6 0 0 1-2.7 2.7c-.9.4-1.4 1.2-1.4 2.2a2.2 2.2 0 0 0 2.3 2.1l.9-.1.9-.1c.3 0 .6 0 .8.2 1.6.9 2.3 2 2.3 3.7 0 2.2-.9 4.6-3 5.2-4.7 1.2-5.4 5.6-5.5 9.7 0 1.7-.5 3.9-2.2 5.1A8.8 8.8 0 0 1-42 107c-1.6 0-3-.5-4.5-.9a17 17 0 0 0-4.4-.8c-1.3 0-2.5.3-3.7 1-3.2 1.7-4.9 4-6.3 6-1.9 2.9-3.4 5-8.6 5-3 0-7.2-.7-12.6-2.3-.5-.2-1-.2-1.6-.2-2.4 0-5.2 1.5-8.2 3a21.8 21.8 0 0 1-10 3.8c-1.5 0-2.8-.4-4-1.1-2.6-1.6-4-3.5-4-5.4 0-1.8 1-3.1 2-3.8a4 4 0 0 1 2.2-.8 5 5 0 0 1 2.1.7 1 1 0 0 0 .7 0C-87.5 108-78.7 88.8-80 80c-.3-1.3-.8-2.4-1.4-3.5-1.5-3-3.2-6.3.9-15v-.2c1-3.8-1.6-8.2-2.4-9-.6-1-1.8-2.4-3.4-4.3a1 1 0 0 0-.7-.3 1 1 0 0 0-.6.2l-1 .7-.2-.2a21 21 0 0 1-5.3-6l-.1-.2.2-.2 1.2-1.3c1-1 3.7-3.1 6.3-4l.7-.2c.7 1 2 3 3.7 5 3.3 4 5.8 5.8 7.8 5.8.4 0 .8 0 1.1-.2a4 4 0 0 0 2-2.4c.5-2.7-1-6.8-2.4-9.3h1.3l1.5.2c1 0 2-.2 3.4-.6m0-1h-.1a10 10 0 0 1-3.1.6l-3.5-.2V34h-1.6c1.6 2 5.7 10.5 2 12.2l-.6.2c-4 0-11-11-11-11l-1.5.3a21 21 0 0 0-6.7 4.3l-1.2 1.3a1 1 0 0 0-.5.9c0 .2 0 .4.2.6a22 22 0 0 0 6.3 6.9c.3 0 1.1-.6 1.7-1 1.4 1.6 2.6 3 3.3 4.1.9 1 3.1 5 2.3 8.3-5.9 12.4-.3 14.8.4 19 1.1 8.2-7.4 27-22.2 30.2-1-.5-1.7-.8-2.6-.8-.8 0-1.7.3-2.8 1-2.6 1.8-4.6 6.8 2.1 10.8 1.5 1 3 1.3 4.5 1.3 6.6 0 13.5-6.8 18.3-6.8a48 48 0 0 0 14.2 2.6c9.6 0 7.9-7.3 15.3-11.3 1.1-.5 2.1-.7 3.2-.7 2.8 0 5.7 1.6 9 1.6 1.7 0 3.6-.5 5.6-2 2.2-1.4 2.6-4.1 2.7-5.8.1-4.3 1-7.8 4.7-8.8 2.6-.7 3.8-3.3 3.8-6.1 0-2.4-1.2-3.8-2.8-4.6-.4-.3-.9-.4-1.3-.4l-1.8.2h-.4c-1-.3-1.2-1.9-.1-2.3a5.6 5.6 0 0 0 3.3-3.3c1.9-5-1.9-10.5-7-10.5h-.9c-3 .4-4.6 2-5.5 4a19 19 0 0 1-5.6.8c-3.4 0-7.6-.8-12.4-3.4-4-2.2-6.5-5.4-7-9s1.9-6 2.1-9.3c.1-1 0-2-.2-2.7 1.5-.8 3.3-2.2 3.3-2.6 0-1.5-.7-2.8-1.5-4a13 13 0 0 0-3-3.6c-.4-.3-1-.6-1.4-.6z" fill="#424242" opacity=".2"/><path d="M-33.8 115.6c1.6 1 4.8 4.2 5.7 5.9.2.5.5 1.6.1 2-.2.4-6.5.8-11-1.7a4 4 0 0 1-1-1.4c-.4-.6-.8-.7-.9 0h-1.6c-.4-4.1-1.1-3.7-1-6.6 0-2.3 1.6-2.8 2.3-3 0 0 5 3 7.4 4.8z" fill="#DD2C00"/><path d="M-41.3 111.9c1.2.7 5 3 7 4.5 1.5 1 4.5 4 5.3 5.5l.2.9h-1.4c-1.1 0-5.1 0-8.3-1.9l-.7-1c-.3-.6-.8-1-1.4-1-.3 0-.7.2-1 .5l-.6-3a7 7 0 0 1-.3-2.5c0-1.3.6-1.8 1.2-2m0-1.1c-.6.2-2.2.7-2.2 3 0 3 .6 2.5 1 6.5h1.6c0-.2.2-.4.3-.4.2 0 .4.2.6.5a4 4 0 0 0 1 1.4 19.8 19.8 0 0 0 11.1 1.8c.3-.5 0-1.7-.2-2.1-.9-1.7-4-4.9-5.6-6a98.7 98.7 0 0 0-7.5-4.7z" fill="#424242" opacity=".2"/><linearGradient id="l" x1="-53.5" x2="-33.4" y1="97.5" y2="97.5" gradientTransform="matrix(1 .00866 -.00866 1 .9 5)" gradientUnits="userSpaceOnUse"><stop stop-color="#CCA47A" offset="0"/><stop stop-color="#D6B088" offset=".3"/><stop stop-color="#DEB892" offset=".6"/><stop stop-color="#E0BB95" offset="1"/></linearGradient><path d="M-34.9 117.6a7 7 0 0 1-1.2 0c-1-.3-1.6-.8-2.4-1.7a10.8 10.8 0 0 1-2-4.5l-1-3c-1.4-3-4.4-7-7.2-10.7-1.6-2.2-3.2-4.2-4.3-6-.3-.5-.5-1-.4-1.4.3-1 1.5-1.8 2.7-2.5a7.3 7.3 0 0 1 3.4-1.2c.7 0 1.2.2 1.5.8 4 8.4 5.6 12 9 20.1l2.6 6.3c.4.9.8 2.5.7 3.1 0 .2-.1.7-1.4.7z" fill="url(#l)"/><path d="M-47.3 87c.7 0 .9.4 1 .6 4 8.4 5.6 12 9 20.1l2.6 6.3c.4.9.8 2.4.7 2.8 0 .1 0 .3-.9.3a7 7 0 0 1-1 0c-1-.2-1.4-.7-2.2-1.6a10 10 0 0 1-2-4.2c-.2-1-.5-2-1-3.1a65 65 0 0 0-7.2-10.8 98.5 98.5 0 0 1-4.2-5.9c-.5-.7-.4-1-.4-1.1.2-.8 1.4-1.5 2.5-2.2a6.8 6.8 0 0 1 3.1-1.1m0-1c-1.1 0-2.5.6-3.6 1.3-2 1.3-3.9 2.4-2.5 4.7 2.8 4.4 9.2 11.7 11.4 16.5 1.2 2.7 1.2 5.4 3.1 7.6.9 1 1.5 1.6 2.8 1.8l1.2.2c1 0 1.7-.3 1.9-1.2.1-.8-.4-2.6-.7-3.4l-2.7-6.3a362 362 0 0 0-9-20c-.4-.9-1-1.2-1.9-1.2z" fill="#BA8F63"/><path d="M-74 121.4c-.3-2.6-2.5-6.8-4.8-6.8s-4.6 4.2-5 6.8l-.1 1.7c0 .4.4.9 1 .9h8c.6 0 1-.6 1-1v-1.6z" fill="#B41301"/><path d="M-78.8 115.7c1.5 0 3.4 3.3 3.8 5.8v1.4l-4 .1h-3.9v-1.5c.4-2.4 2.6-5.8 4.1-5.8m0-1c-2.3 0-4.6 4.1-5 6.7l-.1 1.7c0 .4.4.9 1 .9h8c.6 0 1-.6 1-1v-1.6c-.4-2.6-2.6-6.8-4.9-6.8z" fill="#424242" opacity=".2"/><path d="M-78 118.3h-.5c-1-.2-1.5-.5-1.8-.8-.2-.4-.2-1 0-1.7a70 70 0 0 1 1.4-5.5l.5-1.7c0-.1.7-.5 2-.5s2.7.4 3 .9v.3l-2.7 6.8c-.5 1.7-1 2.2-1.9 2.2z" fill="#C48E6A"/><path d="M-76.5 108.6c1.4 0 2.4.4 2.7.6l-2.8 6.7v.1c-.5 1.7-.9 1.8-1.4 1.8h-.4c-1-.2-1.3-.4-1.4-.6-.2-.2-.1-.7 0-1.3l1.4-5.5.4-1.5c.2-.1.7-.3 1.5-.3m0-1c-1.2 0-2.2.3-2.4.9-.4 1.4-1.5 5.1-1.8 7.1-.6 2 0 2.8 2.1 3.2h.6c1.4 0 2-1 2.4-2.5l2.8-6.9c.3-1.1-1.8-1.8-3.7-1.8z" fill="#B07853"/></g><g clip-path="url(#b)"><defs><path id="m" transform="rotate(175 -80.3 24.9)" d="M-100 5.2h39.4v39.4H-100z"/></defs><clipPath id="n"><use xlink:href="#m"/></clipPath><g clip-path="url(#n)"><path d="M-79.3 38.9c-1.2 0-2.1-1-2.2-2l-.3-2.8 5-.4.2 2.7c0 .6-.1 1.2-.5 1.6s-1 .8-1.5.8h-.8z" fill="#C48E6A"/><path d="M-77.3 34.2l.2 2.3c0 .9-.6 1.7-1.6 1.8h-.6c-1 0-1.7-.6-1.7-1.5l-.2-2.2 2-.2 1.9-.2m1-1l-6 .4.3 3.3a2.7 2.7 0 0 0 2.6 2.4h.8a2.7 2.7 0 0 0 2.5-3l-.3-3.2z" fill="#B07853"/><linearGradient id="o" x1="-1152" x2="-1152" y1="84.9" y2="60" gradientTransform="scale(-1 1) rotate(5 38.4 14153.1)" gradientUnits="userSpaceOnUse"><stop stop-color="#CCA47A" offset="0"/><stop stop-color="#D6B088" offset=".3"/><stop stop-color="#DEB892" offset=".6"/><stop stop-color="#E0BB95" offset="1"/></linearGradient><path d="M-79.7 35a8 8 0 0 1-2-.3c-3.7-1-8.3-4.6-9-11.6-.8-9.2 4.5-13 9.3-13.4h.9c4.6 0 9.7 3 10.5 11.6.6 7-3.3 11.3-6.8 13a7.7 7.7 0 0 1-3 .6z" fill="url(#o)"/><path d="M-80.5 10.2c4.4 0 9.3 2.9 10 11.2A12 12 0 0 1-77 33.8a7 7 0 0 1-2.3.6h-.4c-.6 0-1.2 0-1.8-.2A12 12 0 0 1-90.1 23c-.8-8.9 4.2-12.5 8.7-13h1m-.1-1h-1c-5.6.6-10.4 5.2-9.7 14a13 13 0 0 0 9.4 12l2 .3h.6a8 8 0 0 0 2.6-.7 13 13 0 0 0 7.1-13.4c-.7-8.4-5.7-12.1-11-12.1z" fill="#BA8F63"/><defs><path id="p" d="M-66.2 31.8s-2-14.5-2.8-16.7c-2-5.9-6.4-9.2-12-8.7l-1.5.1c-10.3.9-11 11.4-11 13.7s.3 5.3.4 6.7c.3 3-6.1 7.7-6.1 7.7l33-2.8z"/></defs><clipPath id="q"><use xlink:href="#p"/></clipPath><g clip-path="url(#q)"><radialGradient id="r" cx="-1151.5" cy="54.2" r="11.5" gradientTransform="matrix(-.9962 .0872 .084 .9601 -1234.1 52.5)" gradientUnits="userSpaceOnUse"><stop stop-color="#BFA055" offset="0"/><stop stop-color="#AB872F" offset="1"/></radialGradient><path d="M-93.4 27.5c.4-5-.2-6.7 0-8.5 0-1.6.5-11.8 11.6-12.7a11.5 11.5 0 0 1 13.5 10.5l.3 4.1s-.1 2.5-1.2 5.5c-1.1 3-2.3 5.2-2.3 5.2s1.4-4.5 1-8.7c0-1 0-4.5-2-4.8-7.5-1-12-4.5-12-4.5-.9 2.5-4 5-5.2 6-.9.8-.5 3.8-.4 5l1 5.7c-1.3-.7-3.6-1.5-4.3-2.8z" fill="url(#r)"/></g><path d="M-81.2 26.3l2.3-.2h.2c.2 0 .3.3.2.5s-.5 1-1.4 1c-.9 0-1.4-.5-1.5-.7-.1-.3 0-.5.2-.6z" fill="#C48E6A"/><ellipse transform="rotate(-5 -74.9 22.7)" cx="-74.9" cy="22.7" rx="1.6" ry="1.6" fill="#5D4037"/><ellipse transform="rotate(-5 -85.5 23.7)" cx="-85.6" cy="23.7" rx="1.6" ry="1.6" fill="#5D4037"/><path d="M-77.6 20c.3-.4 1-1 2.3-1.2s2.1.4 2.5.8v.5l-.6.2c-.3 0-.8-.3-1.8-.3-.9.1-1.4.5-1.7.6l-.6-.1a.4.4 0 0 1 0-.5zm-10.6 1c.3-.5 1-1.2 2.3-1.3s2.1.4 2.5.8v.5c0 .1-.3.3-.6.2s-.9-.3-1.8-.2c-1 0-1.4.4-1.7.5h-.6c-.1-.2-.2-.4 0-.6z" fill="#AB872F"/><path d="M-82.5 29c1.1.6 4.5.3 5.5-.4.5-.4 1.2 0 1 .6-.2.6-2 2-3.5 2.1s-3.6-1-3.8-1.4c-.3-.5.2-1.1.8-.8z" fill="#6D4C41"/></g></g><g clip-path="url(#b)"><linearGradient id="s" x1="-8.3" x2="5.5" y1="58.8" y2="58.8" gradientUnits="userSpaceOnUse"><stop stop-color="#DD1C00" offset=".1"/><stop stop-color="red" offset=".7"/></linearGradient><path d="M5.5 57.8S2 59 .7 60C-2.5 62.6-3 67.5-3 67.5S-5.6 53.7-8.3 50c0 0 4.6 4.3 6.7 5.5a34 34 0 0 0 7.1 2.3z" fill="url(#s)"/></g><g clip-path="url(#b)"><linearGradient id="t" x1="-5.2" x2="5.3" y1="214.6" y2="214.6" gradientTransform="rotate(-14 -574.8 89.4)" gradientUnits="userSpaceOnUse"><stop stop-color="#DD1C00" offset=".1"/><stop stop-color="red" offset=".7"/></linearGradient><path d="M18.4 71.2s-2.1.9-3.1 2C13.9 75 13.5 78 13.5 78s-3.1-6.6-6.6-9.5c0 0 3 1.7 5.3 2l6.2.8z" fill="url(#t)"/></g><defs><path id="u" d="M4 4h120v120H4z"/></defs><clipPath id="v"><use xlink:href="#u"/></clipPath><g clip-path="url(#v)"><radialGradient id="w" cx="-1285.4" cy="72.7" r="18.2" gradientTransform="scale(-1 1) rotate(5 38.4 14153.1)" gradientUnits="userSpaceOnUse"><stop stop-color="#454140" offset="0"/><stop stop-color="#312D2D" offset="1"/></radialGradient><path d="M41.7 45c-4.1 0-7.3-1.9-8.4-5-1-3 .5-6.4 4-9 3-2.2 3.1-3.7 2.8-7.6-.4-4 0-7.2 1-9.9a13 13 0 0 1 12.1-7.8c4.4 0 8.3 2 10.6 5.5 4 6 2.6 15.4-1 21.1 0 .2 0 .3-.2.5A23.3 23.3 0 0 1 41.7 45z" fill="url(#w)"/><path d="M53.2 6.2c4.3 0 8 2 10.2 5.3 3.8 5.8 2.5 15-1 20.6 0 0 0 .3-.2.5a22.8 22.8 0 0 1-20.5 12c-3.9 0-7-1.8-7.9-4.7-.9-2.8.5-6 3.7-8.4 3.3-2.4 3.4-4 3-8.2-.3-3.9 0-7 1.1-9.6 1.8-4.5 6.4-7.5 11.6-7.5m0-1C48 5.2 42.8 8 40.7 13.3a21.8 21.8 0 0 0-1.1 10.1c.3 4 .1 5.2-2.7 7.3-7.9 5.9-4.4 14.8 4.9 14.8H43c15-1.3 19.4-11.5 20.2-13 3.8-6 5-15.6 1-21.6a13 13 0 0 0-11-5.7z" fill="#1F1A1A"/></g><g clip-path="url(#v)"><linearGradient id="x" x1="70.4" x2="70.9" y1="41.9" y2="41.9" gradientUnits="userSpaceOnUse"><stop stop-color="#FFD29C" offset="0"/><stop stop-color="#FFD39E" offset="0"/><stop stop-color="#FCD8AF" offset=".3"/><stop stop-color="#FADCBA" offset=".6"/><stop stop-color="#F9DDBD" offset="1"/></linearGradient><path d="M57.3 49.2c-2.5 0-5.4-.4-8.2-1.3l-5.6-8.7c1.1-1 5.2-4 12.3-4 1.6 0 3.3.1 5 .4l1.7.1c1 0 3.3 0 5.5-1.2l1 8.8c-.5.7-3.3 4.3-8.3 5.6-1 .2-2.2.3-3.5.3z" fill="url(#x)"/><path d="M67.6 35.3l1 7.8c-.8 1-3.4 4.1-8 5.3a27.4 27.4 0 0 1-11.1-.9l-5.3-8.2c1.4-1 5.3-3.7 11.6-3.7 1.6 0 3.3.2 5 .5l1.7.2c1 0 3-.2 5.1-1m.8-1.6a11.9 11.9 0 0 1-7.5 1.4c-1.8-.3-3.5-.5-5-.5-8.7 0-13 4.6-13 4.6l6 9.2c2.8.8 5.8 1.3 8.4 1.3a15 15 0 0 0 3.5-.4c6-1.4 8.8-5.9 8.8-5.9l-1.2-9.7z" fill="#EDBD82"/><linearGradient id="y" x1="75" x2="75" y1="15.7" y2="39.5" gradientUnits="userSpaceOnUse"><stop stop-color="#F9DDBD" offset="0"/><stop stop-color="#FADCBA" offset=".4"/><stop stop-color="#FCD8AF" offset=".7"/><stop stop-color="#FFD39E" offset="1"/><stop stop-color="#FFD29C" offset="1"/></linearGradient><path d="M68 42.7a34 34 0 0 1-2.7-6.9c1.7-1 8.6-5.1 11.8-7.4.2 0 .3-.3.2-.5a59 59 0 0 0-1-3.3L73 14.4l-.1-.4v-.1c-.3-.5-.4-1.3.3-1.9l3-2.6c.4-.3 1-.7 1.3-.7.2 0 .3.1.4.3a.5.5 0 0 0 .4.4l.4-.1c1-.9 3.6-3 4.8-3.2v.3A49.6 49.6 0 0 0 77 13l.1.2c.9 2.1 2 4 3.1 6a44.9 44.9 0 0 1 4.4 8.9 3 3 0 0 1 0 2.1c-.2.6-.6 1.2-1.1 1.6h-.1c-4.5 3.8-8.5 7-11.8 9.6-.8.6-2.5 1.2-3.5 1.3z" fill="url(#y)"/><path d="M80 8.8a51.2 51.2 0 0 0-3.3 3.2 1 1 0 0 0-.2 1.1v.3c1 2.2 2 4 3.2 6 1.5 2.5 3 5.2 4.2 8.7v.2c.2.4.4 1 .1 1.8-.1.5-.5 1-.9 1.3l-.1.1A292 292 0 0 1 71.2 41c-.7.5-2 1-3 1.2-.4-.9-1.5-3.6-2.3-6.1 2.1-1.3 8.4-5.1 11.5-7.3.3-.2.5-.6.4-1l-1-3.3-3.4-10.3V14l-.2-.3c0-.2-.3-.7.3-1.2l3-2.7c.3-.2.7-.4 1-.4 0 .3.3.5.6.6h.2c.3 0 .5-.1.7-.3l1-.8m3.4-3.2c-1.5.3-5 3.3-5 3.3-.2-.5-.6-.6-1-.6-.5 0-1.1.3-1.5.7l-3 2.7c-.9.7-1 1.7-.5 2.4l.1.5 3.4 10.2 1 3.2c-3.7 2.6-12.2 7.5-12.2 7.5S67.1 43 68 43c1.2 0 3-.6 3.9-1.3l12-9.5a3.6 3.6 0 0 0 1.1-4.3c-2-6.4-5.3-9.9-7.4-14.9l-.1-.2 1.4-1.3s2.9-3.1 5-4.7c.5-.4.3-1.2-.4-1.2z" fill="#EDBD82"/><linearGradient id="z" x1="72.3" x2="55.5" y1="34.4" y2="45.6" gradientUnits="userSpaceOnUse"><stop stop-color="#E31C00" offset=".3"/><stop stop-color="#BC1B00" offset=".9"/></linearGradient><path d="M59.6 34.4c3 0 3.6.6 7-.4.4-.1 1.1.3 1.4.6 1.3.9 2.3 2.2 3.1 3.5.8 1.2 1.6 2.6 1.5 4 0 .6-3.8 3.5-5.1 3-1.9-.6-3.4-3.4-4.2-5.2a25 25 0 0 0-3.7-5.5" fill="url(#z)"/><linearGradient id="A" x1="39.2" x2="39.2" y1="45.6" y2="69.7" gradientUnits="userSpaceOnUse"><stop stop-color="#FFD29C" offset="0"/><stop stop-color="#FFD39E" offset="0"/><stop stop-color="#FCD8AF" offset=".3"/><stop stop-color="#FADCBA" offset=".6"/><stop stop-color="#F9DDBD" offset="1"/></linearGradient><path d="M42.6 76.7l-.1-.1v-.2c.7-2.5 1.2-6.6 1.2-6.8l.4-2c0-.2 0-.4-.2-.5l-.3-.3a38 38 0 0 0-5.2-4 45.1 45.1 0 0 1-7.4-6.2l-.1-.1a3.2 3.2 0 0 1 0-4.5l.1-.2c4-4.3 7.6-8 10.6-11a8 8 0 0 1 3.2-1.6c.6.5 2.2 3.6 3.6 6.4-1.4 1.1-7 5.6-10.1 8.3-.2.2-.2.5 0 .7l.1.2 1.2 1.4 7.3 8 .2.2.1.1v.1l.3.5v.7l-1 4c0 .6-.5 1.3-.8 1.3l-.3-.1-.3-.1H45c-.2 0-.3.2-.3.3a19 19 0 0 1-2 5.5z" fill="url(#A)"/><path d="M44.6 39.7c.7.8 2 3.4 3.1 5.8l-9.8 8a1 1 0 0 0 0 1.4l.1.2 1.3 1.5 7.3 8 .1.1.1.1c.1.1 0 0 0 .1h.1v.7l-.8 4-.4 1a1 1 0 0 0-1-.2 1 1 0 0 0-.5.7l-.4 1.3a60.5 60.5 0 0 0 .8-4.7c0-.4 0-.8-.5-1l-.2-.2a39 39 0 0 0-5.2-4.1 44 44 0 0 1-7.3-6.1l-.1-.1v-.1a2.7 2.7 0 0 1 0-3.8l.1-.1 10.5-11c.6-.5 1.9-1.2 2.7-1.5m.3-.7a7 7 0 0 0-3.7 1.7c-4.2 4.2-8.6 8.8-10.6 11-.5.5-1 1.1-1 1.9-.3 1.2.1 2.3.9 3.2l.1.1c4.5 4.8 8.7 6.6 12.6 10.3l.4.3-.4 2s-.5 4.2-1.2 6.8c-.2.4.2.8.6.8l.4-.1c1-1.1 2.1-5.7 2.1-5.7.2.2.4.2.6.2.7 0 1.2-1 1.4-1.7l.8-4v-.6l-.1-.8-.2-.2-.1-.1-.2-.3L40 56l-1.4-1.6C42.1 51 49 45.9 49 45.9S45.7 39 44.9 39z" fill="#EDBD82"/><linearGradient id="B" x1="45.3" x2="57.2" y1="27.5" y2="76.1" gradientUnits="userSpaceOnUse"><stop stop-color="#BC1B00" offset="0"/><stop stop-color="#E31C00" offset=".3"/><stop stop-color="#BC1B00" offset=".7"/><stop stop-color="#DD1C00" offset=".9"/></linearGradient><path d="M94 67c1.7.2-7.3 5.6-19.6-1.3-4-2.2-6.5-5.3-7-9s1.9-6 2.1-9.2c.4-5.3-3.5-6.3-5.5-8.6s-4.4-4.5-4.4-4.5h-1.2c1.6 1.8 5.7 10.3 2 12s-11.7-11-11.7-11l-1.4.5a17 17 0 0 0-7.1 4.9c0 .4 7.8 8.6 10.2 12 .8 1 3 5 2.3 8.3-6 12.3-.3 14.7.3 19 1.3 9-9 30.7-26.5 30.7l8.2 4.7 15.7-1 8.7-7.5 11.9-1.8 4.2-8.6L79.3 85l15.2-10-.4-8z" fill="url(#B)"/><path d="M39.4 41.4c-.3.2-.5.5-.5.8 0 .2 0 .4.2.6a21.9 21.9 0 0 0 6.3 6.8c.3.1 2.1-1.2 2.3-1.4.3-.3 0-1-.2-1.4-.8-1.5-1.6-3-2.8-4.3s-2.4-2.2-4-2.3l-1.3 1.2z" fill="#DD2C00"/><defs><path id="C" d="M94 67c1.7.2-7.3 5.6-19.6-1.3-4-2.2-6.5-5.3-7-9s1.9-6 2.1-9.2c.4-5.3-3.5-6.3-5.5-8.6s-4.4-4.5-4.4-4.5h-1.2c1.6 1.8 5.7 10.3 2 12s-11.7-11-11.7-11l-1.4.5a17 17 0 0 0-7.1 4.9c0 .4 7.8 8.6 10.2 12 .8 1 3 5 2.3 8.3-6 12.3-.3 14.7.3 19 1.3 9-9 30.7-26.5 30.7l8.2 4.7 15.7-1 8.7-7.5 11.9-1.8 4.2-8.6L79.3 85l15.2-10-.4-8z"/></defs><clipPath id="D"><use xlink:href="#C"/></clipPath><g clip-path="url(#D)"><path d="M53.2 96.6c-1.4.8-2.9 2.3-4.4 4.9-1.3 2.2-4.4 7.8-6.8 8.2-2.3.5-5.4-.6-6.5-2.6l-.5-.9-1.7 1 .4.8c1.4 2.5 4.4 3.6 7 3.6l1.7-.1c3.4-.7 6-6 7.3-8.3 1-1.6 2-2.8 3-3.6-.1-1 0-2 .5-3zM74 70.3c2.2 0 4.1.6 4.1.6l-.7-.5c-1.2-.6-3.7-1.9-6-1.7.8.9 1.8 1.2 2.6 1.6zM65.8 85c2 4.7 5.6 12.8 2.3 15.2-.7.4-2.2.2-4.1-.8-1.5-.8-3.1-2-4.9-2.9.2.8.5 1.6.5 2.4 1.4.5 2.8 1.3 4 2 2.2 1.1 4 1.8 5.7.3 4.3-3.7.2-10-1.8-15-2-4.8-1.8-8.3-.2-11.1l-2.4-.8c-1.2 3.3-.7 7.1.8 10.7z" fill="#FF8F00"/><path d="M70.5 71.5c1-.8 2.3-1 3.5-1.2-.8-.4-1.8-.7-2.5-1.6-.6 0-1.1.2-1.6.4a9.8 9.8 0 0 0-5 5.2l2.4.8c.7-1.4 1.8-2.5 3.2-3.6zM53.2 96.6a8 8 0 0 0-.6 3c2.4-1.9 4.8-1.6 7-.7 0-.8-.3-1.6-.5-2.4-1.8-.8-3.8-1.2-5.9 0z" fill="#FFB300"/></g><g clip-path="url(#D)"><path d="M85 74.3v-.5c3-.5 2.1-4.6 2-5.3l2-.3c0 .4.6 3.6-1 5.4-.6.5-3 .7-3 .7z" fill="#FF8F00"/></g><radialGradient id="E" cx="67.2" cy="99.2" r="47.4" gradientUnits="userSpaceOnUse"><stop stop-color="#892002" offset="0"/><stop stop-color="#B42002" offset=".5"/><stop stop-color="#892002" offset="1"/></radialGradient><path d="M98 64.4c5.5-.7 9.8 5.2 7.7 10.5a5.6 5.6 0 0 1-3.2 3.3c-1 .4-1 2 .1 2.3.8.2 2.2-.6 3.5.1a5 5 0 0 1 2.8 4.7c0 2.7-1.2 5.4-3.8 6.1-3.8 1-4.6 4.5-4.7 8.7 0 1.8-.5 4.5-2.7 6-7.4 5-12.1-2-17.8 1-9.8 5.3-3.7 16.1-28.3 8.8-5.9-1.7-15.6 10.5-24 5.4-6.7-4-4.7-9-2.1-10.8 5.2-3.5 6 3.7 17.7 3 6.1-.3 4.6-10.5 12.8-13 6.4-2 9 7.3 14 3 7.7-6.7-3.5-17.2-.5-24.7 1.8-4.7 5.7-7.3 9.7-6.3s3.7 4 6.3 4.8c2.8.9 4.5-2 5.2-4 1-3.4 1.7-8.2 7.2-8.9z" fill="url(#E)"/><path d="M66.7 35l.7.4a12 12 0 0 1 2.9 3.2c.6 1 1.2 2.2 1.3 3.3-.4.4-1.6 1.4-2.8 2a1 1 0 0 0-.5 1.1c.2.7.3 1.5.2 2.4 0 1.2-.5 2.4-1 3.5-.7 1.8-1.4 3.6-1 6 .5 3.9 3.2 7.4 7.4 9.7 4.3 2.4 8.6 3.6 12.9 3.6a18 18 0 0 0 5.9-1c.2 0 .4-.2.5-.4a6 6 0 0 1 4.8-3.4h.8c2 0 4 1 5.2 2.8a6.8 6.8 0 0 1 .8 6.3 4.6 4.6 0 0 1-2.7 2.7c-.9.4-1.4 1.2-1.4 2.2a2.2 2.2 0 0 0 2.3 2.1l.9-.1.9-.1c.3 0 .6 0 .8.2 1.6.9 2.3 2 2.3 3.7 0 2.2-.9 4.6-3 5.2-4.7 1.2-5.4 5.6-5.5 9.7 0 1.7-.5 3.9-2.2 5.1A8.8 8.8 0 0 1 92 107c-1.6 0-3-.5-4.5-.9a17 17 0 0 0-4.4-.8c-1.3 0-2.5.3-3.7 1-3.2 1.7-4.9 4-6.3 6-1.9 2.9-3.4 5-8.5 5-3.1 0-7.3-.7-12.7-2.3-.5-.2-1-.2-1.6-.2-2.4 0-5.2 1.5-8.2 3a21.8 21.8 0 0 1-10 3.8c-1.5 0-2.8-.4-4-1.1-2.6-1.6-4-3.5-4-5.4 0-1.8 1-3.1 2-3.8a4 4 0 0 1 2.2-.8 5 5 0 0 1 2.1.7 1 1 0 0 0 .7 0C46.5 108 55.3 88.8 54 80c-.3-1.3-.8-2.4-1.4-3.5-1.5-3-3.2-6.3.9-15v-.2c1-3.8-1.6-8.2-2.4-9-.6-1-1.8-2.4-3.4-4.3a1 1 0 0 0-.7-.3 1 1 0 0 0-.6.2l-1 .7-.2-.2a21 21 0 0 1-5.3-6l-.1-.2.2-.2 1.2-1.3c1-1 3.7-3.1 6.3-4l.7-.2c.7 1 2 3 3.7 5 3.3 4 5.8 5.8 7.8 5.8.4 0 .8 0 1.1-.2a4 4 0 0 0 2-2.4c.5-2.7-1-6.8-2.4-9.3h1.3l1.5.2c1 0 2-.2 3.4-.6m0-1h-.1a10 10 0 0 1-3.1.6l-3.5-.2V34h-1.6c1.6 2 5.7 10.5 2 12.2l-.6.2c-4 0-11-11-11-11l-1.5.3a21 21 0 0 0-6.7 4.3l-1.2 1.3a1 1 0 0 0-.5.9c0 .2 0 .4.2.6a22 22 0 0 0 6.3 6.9c.3 0 1.1-.6 1.7-1 1.3 1.6 2.6 3 3.3 4.1.9 1 3.1 5 2.3 8.3-5.9 12.4-.3 14.8.4 19 1.1 8.2-7.4 27-22.2 30.2-1-.5-1.7-.8-2.6-.8-.8 0-1.7.3-2.8 1-2.6 1.8-4.6 6.8 2.1 10.8 1.5 1 3 1.3 4.5 1.3 6.6 0 13.4-6.8 18.3-6.8a48 48 0 0 0 14.2 2.6c9.6 0 7.9-7.3 15.3-11.3 1.1-.5 2.1-.7 3.2-.7 2.8 0 5.6 1.6 9 1.6 1.7 0 3.5-.5 5.6-2 2.2-1.4 2.6-4.1 2.7-5.8.1-4.3 1-7.8 4.7-8.8 2.6-.7 3.8-3.3 3.8-6.1 0-2.4-1.2-3.8-2.8-4.6-.4-.3-.9-.4-1.3-.4l-1.8.2h-.4c-1-.3-1.2-1.9-.1-2.3a5.6 5.6 0 0 0 3.3-3.3c1.9-5-1.9-10.5-7-10.5h-.9c-3 .4-4.6 2-5.5 4a19 19 0 0 1-5.6.8c-3.4 0-7.6-.8-12.4-3.4-4-2.2-6.5-5.4-7-9s1.9-6 2.1-9.3c.1-1 0-2-.2-2.7 1.5-.8 3.3-2.2 3.3-2.6 0-1.5-.7-2.8-1.5-4a13 13 0 0 0-3-3.6c-.4-.3-1-.6-1.4-.6z" fill="#424242" opacity=".2"/><path d="M100.2 115.6c1.7 1 4.8 4.2 5.7 5.9.2.5.5 1.6.1 2-.2.4-6.5.8-11-1.7a4 4 0 0 1-1-1.4c-.4-.6-.8-.7-.9 0h-1.6c-.4-4.1-1.1-3.7-1-6.6 0-2.3 1.6-2.8 2.3-3 0 0 5 3 7.4 4.8z" fill="#DD2C00"/><path d="M92.7 111.9c1.2.7 5 3 7 4.5 1.5 1 4.5 4 5.3 5.5l.2.9h-1.4c-1.1 0-5.1 0-8.3-1.9-.2 0-.5-.6-.7-1-.3-.6-.8-1-1.4-1-.3 0-.7.2-1 .5l-.6-3a7 7 0 0 1-.3-2.5c0-1.3.6-1.8 1.2-2m0-1.1c-.6.2-2.2.7-2.2 3 0 3 .6 2.5 1 6.5h1.6c0-.2.2-.4.3-.4.2 0 .4.2.6.5a4 4 0 0 0 1 1.4 19.8 19.8 0 0 0 11.1 1.8c.3-.5 0-1.7-.2-2.1-.9-1.7-4-4.9-5.7-6a98.7 98.7 0 0 0-7.4-4.7z" fill="#424242" opacity=".2"/><linearGradient id="F" x1="80.5" x2="100.6" y1="96.3" y2="96.3" gradientTransform="matrix(1 .00866 -.00866 1 .9 5)" gradientUnits="userSpaceOnUse"><stop stop-color="#FFD29C" offset="0"/><stop stop-color="#FFD39E" offset="0"/><stop stop-color="#FCD8AF" offset=".3"/><stop stop-color="#FADCBA" offset=".6"/><stop stop-color="#F9DDBD" offset="1"/></linearGradient><path d="M99.1 117.6a7 7 0 0 1-1.1 0 4.7 4.7 0 0 1-2.5-1.7 10.8 10.8 0 0 1-2-4.5l-1-3c-1.4-3-4.3-7-7.2-10.7-1.6-2.2-3.2-4.2-4.3-6-.3-.5-.4-1-.3-1.4.2-1 1.4-1.8 2.6-2.5a7.3 7.3 0 0 1 3.4-1.2c.7 0 1.2.2 1.5.8 4 8.4 5.6 12 9 20.1l2.6 6.3c.4.9.8 2.5.7 3.1 0 .2-.1.7-1.4.7z" fill="url(#F)"/><path d="M86.7 87c.7 0 .9.4 1 .6 4 8.4 5.6 12 9 20.1l2.6 6.3c.4.9.8 2.4.7 2.8 0 .1 0 .3-.8.3a7 7 0 0 1-1.1 0c-1-.2-1.4-.7-2.2-1.6a10 10 0 0 1-2-4.2c-.2-1-.5-2-1-3.1a65 65 0 0 0-7.2-10.8 98.5 98.5 0 0 1-4.2-5.9c-.5-.7-.4-1-.4-1.1.2-.8 1.4-1.5 2.5-2.2a6.8 6.8 0 0 1 3.1-1.1m0-1c-1.1 0-2.5.6-3.6 1.3-2 1.3-3.9 2.4-2.5 4.7 2.9 4.4 9.2 11.7 11.4 16.5 1.2 2.7 1.2 5.4 3.1 7.6.9 1 1.5 1.6 2.8 1.8l1.3.2c.9 0 1.6-.3 1.8-1.2.2-.8-.4-2.6-.7-3.4l-2.7-6.3a362 362 0 0 0-9-20c-.4-.9-1-1.2-1.9-1.2z" fill="#EDBD82"/><path d="M60 121.4c-.3-2.6-2.5-6.8-4.8-6.8s-4.6 4.2-5 6.8L50 123c0 .4.4.9 1 .9h8c.6 0 1-.6 1-1v-1.6z" fill="#B41301"/><path d="M55.2 115.7c1.5 0 3.4 3.3 3.8 5.8v1.4l-4 .1h-3.9v-1.5c.4-2.4 2.6-5.8 4.1-5.8m0-1c-2.3 0-4.6 4.1-5 6.7L50 123c0 .4.4.9 1 .9h8c.6 0 1-.6 1-1v-1.6c-.4-2.6-2.6-6.8-4.9-6.8z" fill="#424242" opacity=".2"/><path d="M56 118.3h-.5c-1-.2-1.5-.5-1.8-.8-.2-.4-.2-1 0-1.7a70 70 0 0 1 1.4-5.5l.5-1.7c0-.1.6-.5 2-.5 1.3 0 2.7.4 3 .9v.3l-2.7 6.8c-.5 1.7-1 2.2-1.9 2.2z" fill="#EDC391"/><path d="M57.5 108.6c1.4 0 2.4.4 2.7.6l-2.8 6.7v.1c-.5 1.7-.9 1.8-1.4 1.8h-.4c-1-.2-1.3-.4-1.5-.6l.1-1.3 1.4-5.5.4-1.5c.2-.1.7-.3 1.5-.3m0-1c-1.2 0-2.2.3-2.4.9-.4 1.4-1.5 5.1-1.8 7.1-.6 2 0 2.8 2.1 3.2h.6c1.4 0 2-1 2.4-2.5l2.8-6.9c.3-1.1-1.8-1.8-3.7-1.8z" fill="#D9AC77"/></g><g clip-path="url(#v)"><defs><path id="G" transform="rotate(175 53.7 24.9)" d="M34 5.2h39.4v39.4H34z"/></defs><clipPath id="H"><use xlink:href="#G"/></clipPath><g clip-path="url(#H)"><path d="M54.6 38.9c-1 0-2-1-2.1-2l-.3-2.8 5-.4.2 2.7c0 .6-.1 1.2-.5 1.6s-1 .8-1.5.8h-.7z" fill="#EDC391"/><path d="M56.7 34.2l.2 2.3c0 .9-.6 1.7-1.6 1.8h-.6c-1 0-1.7-.6-1.7-1.5l-.2-2.2 2-.2 1.9-.2m1-1l-6 .4.3 3.3a2.7 2.7 0 0 0 2.7 2.4h.7a2.7 2.7 0 0 0 2.5-3l-.3-3.2z" fill="#D9AC77"/><linearGradient id="I" x1="-1285.5" x2="-1285.5" y1="96.6" y2="71.7" gradientTransform="scale(-1 1) rotate(5 38.4 14153.1)" gradientUnits="userSpaceOnUse"><stop stop-color="#FFD29C" offset="0"/><stop stop-color="#FFD39E" offset="0"/><stop stop-color="#FCD8AF" offset=".3"/><stop stop-color="#FADCBA" offset=".6"/><stop stop-color="#F9DDBD" offset="1"/></linearGradient><path d="M54.3 35a8 8 0 0 1-2-.3c-3.7-1-8.3-4.6-9-11.6-.8-9.2 4.5-13 9.3-13.4h.9c4.6 0 9.7 3 10.5 11.6.6 7-3.3 11.3-6.8 13a7.7 7.7 0 0 1-3 .6z" fill="url(#I)"/><path d="M53.5 10.2c4.4 0 9.3 2.9 10 11.2A12 12 0 0 1 57 33.8a7 7 0 0 1-2.3.6h-.4c-.6 0-1.2 0-1.8-.2A12 12 0 0 1 43.8 23c-.7-8.9 4.3-12.5 8.8-13h1m-.1-1h-1c-5.6.6-10.4 5.2-9.7 14a13 13 0 0 0 9.4 12l2 .3h.6a8 8 0 0 0 2.6-.7 13 13 0 0 0 7.1-13.4c-.7-8.4-5.7-12.1-11-12.1z" fill="#EDBD82"/><defs><path id="J" d="M67.8 31.8s-2-14.5-2.8-16.7c-2-5.9-6.4-9.2-12-8.7l-1.6.1c-10.2.9-11 11.4-11 13.7s.4 5.3.5 6.7c.3 3-6.1 7.7-6.1 7.7l33-2.8z"/></defs><clipPath id="K"><use xlink:href="#J"/></clipPath><g clip-path="url(#K)"><radialGradient id="L" cx="-1285" cy="65.9" r="11.5" gradientTransform="matrix(-.9962 .0872 .084 .9601 -1234.1 53)" gradientUnits="userSpaceOnUse"><stop stop-color="#454140" offset="0"/><stop stop-color="#312D2D" offset="1"/></radialGradient><path d="M40.6 27.5c.4-5-.2-6.7 0-8.5 0-1.6.5-11.8 11.7-12.7a11.5 11.5 0 0 1 13.4 10.5l.3 4.1s-.1 2.5-1.2 5.5c-1.1 3-2.3 5.2-2.3 5.2s1.4-4.5 1-8.7c0-1 0-4.5-2-4.8-7.5-1-12-4.5-12-4.5-.9 2.5-4 5-5.2 6-.9.8-.5 3.8-.4 5l1 5.7c-1.3-.7-3.6-1.5-4.3-2.8z" fill="url(#L)"/></g><path d="M52.8 26.3l2.4-.2c.3 0 .4.3.3.5s-.4 1-1.4 1c-.9 0-1.4-.5-1.5-.7-.1-.3 0-.5.2-.6z" fill="#DBA689"/><ellipse transform="rotate(-5 59 22.7)" cx="59.1" cy="22.7" rx="1.6" ry="1.6" fill="#404040"/><ellipse transform="rotate(-5 48.4 23.6)" cx="48.4" cy="23.7" rx="1.6" ry="1.6" fill="#404040"/><radialGradient id="M" cx="58.8" cy="19.7" r="1.9" gradientUnits="userSpaceOnUse"><stop stop-color="#454140" offset=".1"/><stop stop-color="#454140" offset="1"/></radialGradient><path d="M56.4 20c.3-.4 1-1 2.3-1.2s2.1.4 2.5.8v.5l-.6.2c-.3 0-.9-.3-1.8-.3-.9.1-1.4.5-1.7.6l-.6-.1a.4.4 0 0 1 0-.5z" fill="url(#M)"/><radialGradient id="N" cx="48.2" cy="20.6" r="1.9" gradientUnits="userSpaceOnUse"><stop stop-color="#454140" offset=".1"/><stop stop-color="#454140" offset="1"/></radialGradient><path d="M45.8 21c.3-.5 1-1.2 2.3-1.3s2.1.4 2.5.8v.5c0 .1-.3.3-.6.2s-.9-.3-1.8-.2c-1 0-1.4.4-1.7.5h-.6c-.1-.2-.2-.4 0-.6z" fill="url(#N)"/><path d="M51.5 29c1.1.6 4.5.3 5.5-.4.5-.4 1.2 0 1 .6-.2.6-2 2-3.6 2.1s-3.5-1-3.8-1.4c-.2-.5.3-1.1 1-.8z" fill="#424242"/></g></g><g clip-path="url(#v)"><linearGradient id="O" x1="125.8" x2="139.5" y1="58.8" y2="58.8" gradientUnits="userSpaceOnUse"><stop stop-color="#DD1C00" offset=".1"/><stop stop-color="red" offset=".7"/></linearGradient><path d="M139.5 57.8S136 59 134.7 60c-3.2 2.6-3.7 7.5-3.7 7.5s-2.6-13.8-5.3-17.5c0 0 4.6 4.3 6.7 5.5a34 34 0 0 0 7.1 2.3z" fill="url(#O)"/></g><g clip-path="url(#v)"><linearGradient id="P" x1="124.8" x2="135.4" y1="246.9" y2="246.9" gradientTransform="rotate(-14 -574.8 89.4)" gradientUnits="userSpaceOnUse"><stop stop-color="#DD1C00" offset=".1"/><stop stop-color="red" offset=".7"/></linearGradient><path d="M152.4 71.2s-2.1.9-3.1 2c-1.4 1.7-1.8 4.7-1.8 4.7s-3.1-6.6-6.6-9.5c0 0 3 1.7 5.3 2l6.2.8z" fill="url(#P)"/></g></svg>