<svg viewBox="0 0 128 128" xmlns="http://www.w3.org/2000/svg" xmlns:xlink="http://www.w3.org/1999/xlink"><defs><path id="a" d="M4 4h120v120H4z"/></defs><clipPath id="b"><use xlink:href="#a"/></clipPath><g clip-path="url(#b)"><linearGradient id="c" x1="48" x2="48" y1="97.5" y2="130.5" gradientUnits="userSpaceOnUse"><stop stop-color="#00BFA5" offset="0"/><stop stop-color="#00B29A" offset=".7"/><stop stop-color="#00AB94" offset="1"/></linearGradient><path d="M1.5 130.5v-9.4c0-16.3 23.5-23.6 46.9-23.6 23 0 46.1 8.1 46.1 23.6v9.4h-93z" fill="url(#c)"/><path d="M48.5 99c22.1 0 44.5 7.6 44.5 22.1v7.9H3v-7.9C3 106 25.8 99.1 48.4 99m0-3C24.4 96 0 103.5 0 121.1V132h96v-10.9C96 104.5 72.5 96 48.5 96z" fill="#009984"/><path d="M47.2 103.1c-4 0-7.3-3.2-7.3-7.2v-9h16.2v9c0 4-3.3 7.2-7.3 7.2h-1.6z" fill="#E59600"/><path d="M55.1 88v8c0 3.3-2.8 6.1-6.3 6.1h-1.6a6.2 6.2 0 0 1-6.3-6.2v-8h14.2m2-2H38.9v10c0 4.5 3.7 8.2 8.3 8.2h1.7c4.5 0 8.2-3.7 8.2-8.2V86z" fill="#D18100"/><path d="M20.7 72.3c-5.4 0-9.7-4.7-9.7-10.4s4.3-10.5 9.7-10.5h54.6c5.4 0 9.8 4.7 9.8 10.5s-4.4 10.4-9.8 10.4H20.7z" fill="#E59600"/><path d="M75.3 52.4c4.8 0 8.8 4.3 8.8 9.4s-4 9.5-8.8 9.5H20.7c-4.8 0-8.7-4.3-8.7-9.5s3.9-9.4 8.7-9.4h54.6m0-2H20.7c-5.9 0-10.7 5.2-10.7 11.4 0 6.3 4.8 11.5 10.7 11.5h54.6c6 0 10.8-5.2 10.8-11.5s-4.9-11.4-10.8-11.4z" fill="#D18100"/><linearGradient id="d" x1="48" x2="48" y1="94.6" y2="12.8" gradientUnits="userSpaceOnUse"><stop stop-color="#FFB300" offset="0"/><stop stop-color="#FFB809" offset=".1"/><stop stop-color="#FFC21A" offset=".4"/><stop stop-color="#FFC825" offset=".7"/><stop stop-color="#FFCA28" offset="1"/></linearGradient><path d="M48 95.3c-15.7 0-32.5-12.2-32.5-38.8 0-12.4 3.5-23.8 10-32.2 6-7.8 14.3-12.2 22.5-12.2s16.5 4.4 22.5 12.2c6.5 8.4 10 19.8 10 32.2a42 42 0 0 1-10.1 29.2A30.5 30.5 0 0 1 48 95.3z" fill="url(#d)"/><path d="M48 13a28 28 0 0 1 21.7 12 51.5 51.5 0 0 1 9.8 31.5c0 11.8-3.4 21.7-9.8 28.5a29.6 29.6 0 0 1-43.3 0 40.5 40.5 0 0 1-10-28.5 51.3 51.3 0 0 1 10-31.5A28.1 28.1 0 0 1 48 13m0-2c-17.4 0-33.5 18.7-33.5 45.5C14.5 83 31 96.3 48 96.3S81.5 83 81.5 56.5C81.5 29.7 65.5 11 48 11z" fill="#ED9E00"/><path d="M24 50.7l.4-.5.2-.2.4-.4c.2 0 .2-.2.4-.4l.5-.3.5-.4.6-.3.7-.3c.3 0 .4-.2.7-.3l1.5-.3 1.7-.2c.5 0 1 0 1.6.2l1.5.3a8.6 8.6 0 0 1 1.4.6l.6.3.5.4.5.3.4.4.3.3.3.3.4.5c.6.7.4 1.7-.3 2.2-.4.3-1 .4-1.4.2H37l-.5-.3h-.3l-.3-.2-.7-.2-.4-.2h-.4l-.2-.1H34l-.5-.2h-1l-1-.1h-1l-1 .1-.5.1h-.3l-.2.1-.4.1-.4.2h-.4l-.3.2h-.3l-.2.2-.6.3c-.8.3-1.8 0-2.1-.9-.3-.5-.2-1 .1-1.5z" fill="#6D4C41"/><ellipse cx="31.6" cy="58.8" rx="4.9" ry="5.1" fill="#404040"/><path d="M70 53.1l-.5-.2-.3-.2h-.3l-.3-.2h-.3l-.4-.2-.5-.1h-.2L67 52l-.5-.1-1-.1h-3l-.5.2h-.5l-.4.2-.4.1c-.3 0-.5.2-.7.3h-.3l-.2.2-.5.2h-.3c-.8.4-1.7 0-2-.9-.2-.5 0-1 .2-1.4l.5-.6.2-.3.4-.3c.2 0 .2-.2.4-.3l.4-.4.6-.3.6-.4.6-.3.7-.2 1.6-.4 1.6-.1 1.6.1c.6 0 1 .2 1.6.4a8.6 8.6 0 0 1 1.3.5l.6.4.6.3.4.4.5.3c.2.1.2.3.3.4l.3.3.3.5c.5.7.4 1.7-.4 2.2-.5.3-1 .3-1.5.1z" fill="#6D4C41"/><ellipse cx="64.5" cy="58.8" rx="4.9" ry="5.1" fill="#404040"/><path d="M51.9 68h-7.7c-.7.3-1 1-.7 1.7s1.7 2.7 4.5 2.7 4.3-2 4.6-2.7c.3-.7 0-1.4-.7-1.6z" fill="#E59600"/><path d="M56.4 76.1a25.6 25.6 0 0 1-16.8 0c-1.8-1-3.7.6-3 2.3.8 1.6 6.5 5.4 11.4 5.4s10.6-3.8 11.3-5.4c.8-1.7-1-3.4-2.9-2.3z" fill="#795548"/><radialGradient id="e" cx="48.3" cy="4.3" r="48.9" gradientUnits="userSpaceOnUse"><stop stop-color="#6D4C41" offset="0"/><stop stop-color="#543930" offset="1"/></radialGradient><path d="M48 4c-45.4.3-36.1 52.2-36.1 52.2l5 8.8a90 90 0 0 1 4.9-25.6 6 6 0 0 1 6.8-3.8 111 111 0 0 0 19.3 1.8h.1c8 0 15-1 19.5-1.8a6 6 0 0 1 6.7 3.8A90 90 0 0 1 79 65c0 .2 5.1-8.8 5.1-8.8s9.4-52-36-52.2z" fill="url(#e)"/><path d="M48 4c-45.4.3-36.1 52.2-36.1 52.2l5 8.8.3-5c0-.3-2.4-4.8-2.4-4.8-.3-1.6-1-7-.6-13.6.4-7 2.2-17 8.2-24.2C28.1 10.6 36.7 7 48 7s20 3.6 25.6 10.4c10.8 13 8.2 34.3 7.7 37.8l-2.5 4.6.3 5.2 5-8.8s9.4-52-36-52.2z" fill="#3F2720"/></g><linearGradient id="f" x1="79.2" x2="70.2" y1="114.1" y2="112.2" gradientUnits="userSpaceOnUse"><stop stop-color="#00A68E" offset="0"/><stop stop-color="#00BFA5" stop-opacity="0" offset="1"/></linearGradient><path clip-path="url(#b)" fill="url(#f)" d="M78.3 124h-9.5l5.2-23.2 7.5 1.9z"/><g clip-path="url(#b)"><linearGradient id="g" x1="129.8" x2="101.8" y1="62.4" y2="66.5" gradientUnits="userSpaceOnUse"><stop stop-color="#FFB300" offset="0"/><stop stop-color="#FFB809" offset=".1"/><stop stop-color="#FFC21A" offset=".4"/><stop stop-color="#FFC825" offset=".7"/><stop stop-color="#FFCA28" offset="1"/></linearGradient><path d="M90.6 72.2c-2.3 0-3.3-1.7-3.5-3.1-.2-1.9.8-4 3.5-4.6l10.6-2.4a8 8 0 0 1 1.8-.3c1.2 0 2.2.3 2.6.8 0 .1.4.4.2 1.2A1 1 0 0 0 107 65c.1 0 8-1.7 12.9-1.7 1.4 0 2.2.2 2.6.3.2.1.5.7.5 1.5 0 1-.3 1.8-.5 2a344.5 344.5 0 0 1-18 3.3c-3.4.8-9 1.8-13.7 2h-.2z" fill="url(#g)"/><path d="M103 62.8c1 0 1.7.3 1.8.5v.4a2 2 0 0 0 2.4 2.2 78 78 0 0 1 14.7-1.5c.1.4.1 1.2 0 1.6l-10.2 2-7.4 1.4c-3.4.7-9 1.7-13.5 1.8h-.2c-1.6 0-2.4-1.2-2.5-2.3-.1-1.3.5-3 2.6-3.4l10.7-2.5 1.6-.2m0-2a6 6 0 0 0-2 .3l-10.7 2.4c-6 1.4-5.3 9.7.3 9.7h.3c4.5-.1 10.2-1 13.8-1.9s11.4-2 18-3.4c1.6-.3 1.8-4.6.2-5.3-.8-.3-1.8-.4-3-.4-5 0-13 1.8-13 1.8.3-2.4-1.8-3.2-4-3.2z" fill="#EDA600"/></g><g clip-path="url(#b)"><linearGradient id="h" x1="89.5" x2="89.5" y1="72.7" y2="130.5" gradientUnits="userSpaceOnUse"><stop stop-color="#00BFA5" offset="0"/><stop stop-color="#00B29A" offset=".7"/><stop stop-color="#00AB94" offset="1"/></linearGradient><path d="M75.7 130.5L88 73.1V73c0-.2.1-.3.2-.3l12.8.8.2.2 2.2 56.8H75.7z" fill="url(#h)"/><path d="M89.1 74.3l10.5.6 2.1 54.1H77.6L89 74.3m-1-3c-.8 0-1.6.6-1.7 1.5L73.9 132h31l-2.3-58.3c0-1-.7-1.6-1.6-1.7l-12.8-.8z" fill="#009984"/></g></svg>