<svg viewBox="0 0 128 128" xmlns="http://www.w3.org/2000/svg" xmlns:xlink="http://www.w3.org/1999/xlink"><defs><path id="a" d="M-130 4h120v120h-120z"/></defs><clipPath id="b"><use xlink:href="#a"/></clipPath><radialGradient id="c" cx="-78.135" cy="13.748" r="18.722" gradientTransform="scale(-1 1) rotate(5.002 38.094 1837.212)" gradientUnits="userSpaceOnUse"><stop stop-color="#6D4C41" offset="0"/><stop stop-color="#543930" offset="1"/></radialGradient><path d="M-94.44 23.4c-.3-3.42-.16-6.91 1.11-10.06 3.87-9.61 17.86-11.01 23.56-2.4 3.97 6 2.88 15.56-.91 21.66-.88 1.42-5.29 11.56-20.27 12.87-10.18.89-14.39-8.63-6.14-14.78 2.8-2.08 3-3.3 2.65-7.29z" clip-path="url(#b)" fill="url(#c)" stroke="#402821" stroke-linecap="round" stroke-linejoin="round" stroke-miterlimit="10"/><g clip-path="url(#b)"><linearGradient id="d" x1="-63.581" x2="-63.103" y1="41.881" y2="41.881" gradientUnits="userSpaceOnUse"><stop stop-color="#FFB401" offset=".044"/><stop stop-color="#FFB401" offset=".36"/><stop stop-color="#FFCA28" offset="1"/></linearGradient><path d="M-76.75 49.23c-2.47 0-5.34-.46-8.11-1.3l-5.59-8.7c1.07-.94 5.16-4.09 12.28-4.09 1.6 0 3.27.16 4.96.47.5.09 1.09.14 1.71.14.97 0 3.33-.13 5.52-1.22l1.02 8.75c-.54.75-3.29 4.32-8.37 5.58-.97.24-2.13.37-3.42.37z" fill="url(#d)"/><path d="M-66.39 35.27l.92 7.87c-.71.95-3.34 4.08-7.97 5.23-.94.23-2.06.35-3.3.35-2.37 0-5.12-.43-7.79-1.22l-5.25-8.17c1.38-1.12 5.26-3.69 11.62-3.69 1.57 0 3.21.16 4.87.46.53.1 1.15.15 1.81.15.91 0 3-.11 5.09-.98m.83-1.53c-1.81 1.1-4.12 1.51-5.93 1.51-.61 0-1.17-.05-1.62-.13-1.83-.34-3.51-.48-5.05-.48-8.68 0-12.93 4.51-12.93 4.51l5.91 9.2c2.86.88 5.84 1.37 8.43 1.37 1.3 0 2.5-.12 3.55-.38 5.94-1.47 8.77-5.94 8.77-5.94l-1.13-9.66z" fill="#EDA600"/><linearGradient id="e" x1="-58.997" x2="-58.997" y1="15.731" y2="39.493" gradientUnits="userSpaceOnUse"><stop stop-color="#FFCA28" offset=".232"/><stop stop-color="#FFB300" offset="1"/></linearGradient><path d="M-65.96 42.69c-.51-.54-1.75-3.83-2.7-6.84 1.61-.97 8.56-5.16 11.77-7.42a.5.5 0 0 0 .2-.53c-.3-1.19-.61-2.26-.93-3.28l-3.39-10.22c-.05-.16-.08-.29-.11-.41-.01-.05-.03-.09-.05-.13-.27-.48-.32-1.21.36-1.81l3.05-2.69c.34-.3.88-.61 1.26-.61.17 0 .29.05.38.3a.518.518 0 0 0 .47.34c.12 0 .23-.04.33-.12.95-.82 3.67-2.98 4.79-3.2-.01.01.05.01.08.11.02.07.02.16-.03.19-2.15 1.62-4.96 4.64-5.08 4.77-.52.49-.97.91-1.39 1.29-.15.14-.21.36-.13.55l.09.22c.9 2.16 1.98 3.99 3.12 5.93 1.52 2.58 3.09 5.25 4.3 8.83 0 .04.01.09.03.13.27.71.3 1.44.07 2.13-.2.63-.59 1.17-1.12 1.58-.04.03-.07.06-.1.1-4.5 3.72-8.47 6.93-11.83 9.53-.77.59-2.51 1.22-3.44 1.26z" fill="url(#e)"/><path d="M-53.99 8.8c-1 .98-1.77 1.8-1.91 1.96-.53.5-.97.91-1.38 1.28-.31.28-.41.71-.27 1.1l.05.12c.01.03.02.05.03.09.01.02.01.04.02.06.9 2.16 1.99 4.01 3.14 5.97 1.5 2.55 3.05 5.18 4.24 8.68.01.07.03.13.05.19.16.42.3 1.07.07 1.8-.17.53-.5.99-.94 1.33-.06.04-.1.09-.15.14-4.51 3.73-8.47 6.93-11.78 9.49-.63.49-2.01 1.02-2.9 1.14-.52-.85-1.53-3.56-2.35-6.09 2.09-1.26 8.39-5.07 11.46-7.24.34-.24.49-.66.39-1.06-.31-1.21-.62-2.29-.95-3.32l-3.39-10.22c-.05-.13-.07-.25-.1-.36-.02-.09-.06-.18-.1-.26-.11-.19-.3-.7.26-1.19l3.05-2.69c.28-.25.64-.43.86-.47.12.29.37.51.67.59.08.02.17.03.26.03.24 0 .47-.08.65-.24.3-.25.65-.53 1.02-.83m3.41-3.23h-.06c-1.49.29-5.02 3.31-5.02 3.31-.16-.46-.49-.63-.85-.63-.55 0-1.2.38-1.6.73l-3.05 2.69c-.84.74-.87 1.72-.47 2.43.03.14.07.29.13.46l3.38 10.22c.34 1.07.65 2.16.93 3.25-3.65 2.58-12.08 7.51-12.08 7.51S-66.91 43-66.08 43h.05c1.08 0 2.98-.62 3.82-1.28 4.7-3.65 9.63-7.67 11.93-9.57l-.01.01c.59-.45 1.05-1.05 1.29-1.81.27-.84.21-1.69-.08-2.46h.01c-2.11-6.35-5.38-9.88-7.45-14.86-.03-.09-.06-.15-.09-.24.42-.38.87-.8 1.42-1.32 0 0 2.87-3.1 5.01-4.71.44-.34.23-1.19-.4-1.19z" fill="#EDA600"/><linearGradient id="f" x1="-61.699" x2="-78.509" y1="34.37" y2="45.56" gradientUnits="userSpaceOnUse"><stop stop-color="#E31C00" offset=".29"/><stop stop-color="#BC1B00" offset=".884"/></linearGradient><path d="M-74.36 34.35c2.92 0 3.58.64 6.92-.36.4-.12 1.14.32 1.47.56 1.27.93 2.23 2.21 3.08 3.54.79 1.23 1.54 2.61 1.47 4.08-.02.53-3.76 3.39-5.1 2.95-1.84-.61-3.36-3.43-4.16-5.2-.79-1.77-2.39-4.13-3.68-5.57" fill="url(#f)"/><linearGradient id="g" x1="-94.832" x2="-94.832" y1="45.59" y2="69.672" gradientUnits="userSpaceOnUse"><stop stop-color="#FFCA28" offset=".599"/><stop stop-color="#FFB300" offset="1"/></linearGradient><path d="M-91.35 76.65c-.05 0-.11-.04-.15-.09-.02-.02-.05-.07-.03-.12.78-2.58 1.25-6.67 1.27-6.84.14-.75.26-1.4.38-1.98a.506.506 0 0 0-.23-.53c-.14-.08-.24-.16-.33-.26-1.7-1.6-3.4-2.8-5.2-4.08-2.38-1.69-4.83-3.44-7.38-6.16 0 0-.05-.06-.08-.09-.02-.03-.03-.05-.05-.07-.7-.76-.99-1.76-.81-2.76.12-.65.43-1.24.91-1.7.04-.03.06-.07.09-.12 4.02-4.3 7.55-7.98 10.51-10.96.7-.71 2.33-1.55 3.26-1.7.57.47 2.23 3.58 3.55 6.44-1.38 1.09-6.99 5.53-10.08 8.28a.5.5 0 0 0-.05.69l.17.21c.4.48.8.96 1.22 1.43l7.29 7.93c.04.05.17.2.17.21.05.06.09.1.12.15l.08.11c.14.24.19.38.18.51.02.27.01.44-.03.62l-.87 3.97c-.13.63-.54 1.32-.88 1.32-.08 0-.17-.03-.27-.1a.468.468 0 0 0-.28-.09.483.483 0 0 0-.48.38c-.29 1.22-1.19 4.58-1.97 5.41l-.03-.01z" fill="url(#g)"/><path d="M-89.37 39.74c.62.77 1.97 3.34 3.1 5.74-1.77 1.4-6.88 5.47-9.79 8.05-.4.36-.45.97-.1 1.39l.16.19c.4.48.82.98 1.26 1.47l7.29 7.93c.03.03.05.06.08.09l.08.09c.01.02.03.03.04.04.02.02.04.05.06.08s.05.06.07.09l.83-.55-.81.6c.06.09.07.14.07.14v.16c.01.14.01.26-.02.39l-.87 3.97c-.08.39-.28.74-.41.89a.988.988 0 0 0-.53-.15c-.12 0-.25.02-.36.07a1 1 0 0 0-.61.7c-.09.39-.2.83-.33 1.28.23-1.38.36-2.5.38-2.72.14-.77.26-1.4.38-1.96a.981.981 0 0 0-.46-1.06c-.09-.06-.16-.11-.22-.17l-.04-.04c-1.7-1.6-3.42-2.81-5.23-4.1-2.36-1.67-4.79-3.41-7.3-6.09l-.06-.06a.7.7 0 0 0-.08-.1c-.59-.64-.84-1.49-.68-2.33.1-.55.37-1.04.77-1.44.05-.05.09-.1.13-.16 3.99-4.27 7.52-7.95 10.47-10.92.56-.57 1.88-1.28 2.73-1.51m.24-.74h-.02c-1.07 0-2.9.93-3.66 1.7-4.2 4.22-8.57 8.8-10.61 10.98l.01-.03c-.52.52-.9 1.17-1.05 1.95-.22 1.2.17 2.35.93 3.18h-.01l.11.11c.01.01.02.03.04.04 4.48 4.8 8.68 6.59 12.58 10.25.14.14.28.25.43.34-.12.58-.25 1.23-.39 2.02 0 0-.48 4.19-1.25 6.76-.13.42.25.85.66.85.14 0 .28-.05.4-.16 1.03-1.11 2.09-5.64 2.09-5.64.19.13.38.19.55.19.72 0 1.22-1.02 1.37-1.72l.87-3.97c.05-.25.06-.48.04-.69.02-.22-.05-.46-.21-.72-.01-.03-.03-.05-.05-.08-.03-.05-.06-.09-.1-.14a1.07 1.07 0 0 0-.14-.16c-.06-.08-.11-.14-.19-.23l-7.29-7.92c-.48-.53-.93-1.08-1.39-1.63 3.55-3.15 10.36-8.34 10.36-8.34S-88.28 39-89.13 39z" fill="#EDA600"/><linearGradient id="h" x1="-88.707" x2="-76.772" y1="27.494" y2="76.131" gradientUnits="userSpaceOnUse"><stop stop-color="#BC1B00" offset="0"/><stop stop-color="#E31C00" offset=".29"/><stop stop-color="#BC1B00" offset=".693"/><stop stop-color="#DD1C00" offset=".914"/></linearGradient><path d="M-39.95 67.05c1.67.16-7.35 5.52-19.63-1.31-4-2.22-6.48-5.38-7.01-9.01s1.85-5.97 2.1-9.25c.41-5.28-3.55-6.24-5.53-8.54-1.98-2.29-4.36-4.58-4.36-4.58h-1.19c1.58 1.83 5.67 10.31 2.04 12.01s-11.73-10.91-11.73-10.91l-1.44.42c-3.58 1.21-7.17 4.54-7.12 4.9.06.41 7.8 8.67 10.22 12.03.84 1.04 3.06 5.01 2.25 8.28-5.88 12.36-.26 14.76.37 19.07 1.29 8.85-9.04 30.6-26.54 30.6l8.25 4.75 15.67-1.03 8.66-7.45 11.9-1.78 4.2-8.61L-54.67 85l15.17-10-.45-7.95z" fill="url(#h)"/><path d="M-94.64 41.41c-.22.22-.46.47-.48.78-.02.23.09.45.2.65 1.25 2.37 3.45 4.71 5.55 6.38.22.18.46.36.73.41.36.07 2.17-1.25 2.29-1.39.33-.37.11-.95-.13-1.39-.8-1.52-1.62-3.05-2.78-4.31s-2.4-2.26-4.11-2.35c-.01.01-.95.9-1.27 1.22z" fill="#DD2C00"/><defs><path id="i" d="M-39.95 67.05c1.67.16-7.35 5.52-19.63-1.31-4-2.22-6.48-5.38-7.01-9.01s1.85-5.97 2.1-9.25c.41-5.28-3.55-6.24-5.53-8.54-1.98-2.29-4.36-4.58-4.36-4.58h-1.19c1.58 1.83 5.67 10.31 2.04 12.01s-11.73-10.91-11.73-10.91l-1.44.42c-3.58 1.21-7.17 4.54-7.12 4.9.06.41 7.8 8.67 10.22 12.03.84 1.04 3.06 5.01 2.25 8.28-5.88 12.36-.26 14.76.37 19.07 1.29 8.85-9.04 30.6-26.54 30.6l8.25 4.75 15.67-1.03 8.66-7.45 11.9-1.78 4.2-8.61L-54.67 85l15.17-10-.45-7.95z"/></defs><clipPath id="j"><use xlink:href="#i"/></clipPath><g clip-path="url(#j)"><path d="M-80.78 96.57c-1.4.82-2.87 2.35-4.38 4.9-1.31 2.21-4.43 7.82-6.84 8.28-2.25.43-5.39-.61-6.52-2.67l-.48-.88-1.75.96.48.88c1.35 2.47 4.32 3.59 6.99 3.59.57 0 1.12-.05 1.64-.15 3.44-.66 6.07-6.02 7.37-8.27.96-1.66 1.93-2.82 2.92-3.61-.09-.96.12-2.01.57-3.03zM-60.01 70.34c2.17-.12 4.13.53 4.13.53l-.75-.5c-1.17-.56-3.69-1.83-5.92-1.67.74.9 1.72 1.24 2.54 1.64zM-68.25 85c2.01 4.69 5.68 12.84 2.33 15.17-.67.47-2.14.23-4.08-.79-1.49-.78-3.13-2.06-4.9-2.87.24.79.46 1.59.54 2.37 1.41.56 2.75 1.35 3.98 2 2.22 1.17 4 1.78 5.7.32 4.3-3.69.18-9.96-1.82-14.98-1.93-4.83-1.76-8.36-.23-11.12-.82-.23-1.59-.51-2.33-.77-1.24 3.23-.72 7.1.81 10.67z" fill="#FF8F00"/><path d="M-63.5 71.5c1.02-.79 2.29-1.09 3.49-1.16-.83-.4-1.8-.74-2.53-1.64-.55.04-1.09.16-1.58.41-2.55 1.29-4.11 3.12-4.93 5.22.73.26 1.51.54 2.33.77.76-1.37 1.86-2.55 3.22-3.6zM-80.78 96.57c-.46 1.02-.66 2.08-.58 3.04 2.36-1.89 4.76-1.62 7-.73-.09-.78-.3-1.58-.54-2.37-1.82-.84-3.78-1.17-5.88.06z" fill="#FFB300"/></g><g clip-path="url(#j)"><path d="M-49 74.31v-.49c3.07-.57 2.12-4.61 2.01-5.28l1.91-.34c.06.37.66 3.62-1.01 5.39-.48.51-2.91.75-2.91.72z" fill="#FF8F00"/></g><radialGradient id="k" cx="-66.755" cy="99.194" r="47.355" gradientUnits="userSpaceOnUse"><stop stop-color="#892002" offset="0"/><stop stop-color="#B42002" offset=".537"/><stop stop-color="#892002" offset="1"/></radialGradient><path d="M-36.09 64.4c5.55-.68 9.85 5.23 7.83 10.48-.67 1.73-1.9 2.77-3.24 3.29-.01.01-.03.01-.04.02-1.03.42-.91 1.96.16 2.27.81.24 2.14-.58 3.51.18 1.56.86 2.8 2.2 2.76 4.64-.05 2.76-1.21 5.44-3.76 6.12-3.81 1-4.62 4.45-4.75 8.74-.05 1.72-.49 4.42-2.65 5.91-7.39 5.11-12.17-1.95-17.82 1.08-9.77 5.23-3.73 16.1-28.34 8.81-5.86-1.73-15.57 10.5-23.99 5.39-6.7-4.07-4.69-9.06-2.09-10.82 5.22-3.51 6.08 3.65 17.75 3 6.06-.34 4.6-10.55 12.75-13 6.43-1.93 9.08 7.28 14 3 7.75-6.75-3.5-17.25-.5-24.75 1.86-4.66 5.75-7.25 9.75-6.25s3.67 4.08 6.25 4.83c2.83.83 4.56-1.95 5.17-4 1.02-3.43 1.75-8.26 7.25-8.94z" fill="url(#k)"/><path d="M-67.27 34.98c.15.04.46.2.71.38 1.21.88 2.11 2.15 2.83 3.27.67 1.04 1.28 2.15 1.32 3.26-.37.4-1.57 1.37-2.75 1.94-.44.21-.67.72-.52 1.19.21.71.28 1.49.21 2.38-.1 1.24-.54 2.35-1.01 3.53-.7 1.76-1.43 3.58-1.09 5.95.57 3.91 3.24 7.37 7.51 9.75 4.28 2.38 8.6 3.58 12.84 3.58 2.13 0 4.22-.33 5.9-.93.24-.09.44-.26.56-.49 1.04-2.06 2.52-3.11 4.8-3.39.25-.03.5-.05.75-.05 2.03 0 3.98 1.07 5.22 2.87 1.3 1.89 1.6 4.24.8 6.3-.63 1.63-1.8 2.38-2.68 2.72 0 0-.05.02-.06.02-.86.35-1.38 1.19-1.33 2.12.05.96.67 1.76 1.59 2.03.2.06.4.09.64.09.31 0 .62-.05.93-.1.3-.05.6-.1.89-.1.33 0 .6.06.86.2 1.58.87 2.27 2.02 2.24 3.74-.04 2.12-.85 4.6-3.02 5.17-4.63 1.22-5.37 5.58-5.49 9.68-.05 1.67-.47 3.91-2.22 5.12-1.72 1.19-3.36 1.74-5.16 1.74-1.55 0-3.04-.41-4.49-.82-1.44-.4-2.93-.81-4.45-.81-1.3 0-2.48.3-3.62.9-3.28 1.75-4.89 4.09-6.31 6.16-1.91 2.78-3.42 4.97-8.58 4.97-3.09 0-7.24-.78-12.69-2.39-.47-.14-.98-.21-1.52-.21-2.47 0-5.26 1.52-8.2 3.13-3.32 1.81-6.74 3.69-10.05 3.69-1.45 0-2.76-.36-3.99-1.11-2.6-1.58-4-3.43-4.05-5.35-.04-1.77 1.05-3.14 2-3.78.84-.56 1.54-.82 2.21-.82.68 0 1.36.27 2.15.66a.997.997 0 0 0 .66.09C-87.51 107.93-78.7 88.73-79.97 80c-.19-1.31-.75-2.4-1.34-3.55-1.51-2.95-3.23-6.3.89-14.95.03-.06.05-.12.07-.19.96-3.86-1.68-8.2-2.41-9.1-.67-.93-1.79-2.29-3.41-4.17-.2-.23-.48-.35-.76-.35-.2 0-.41.06-.58.19-.48.35-.85.57-1.07.69-.06-.04-.12-.09-.17-.13-2.25-1.8-4.22-4.07-5.28-6.08-.03-.06-.05-.11-.07-.14.03-.04.08-.11.17-.2.28-.28 1.05-1.09 1.24-1.28l.01-.01c1.05-1.01 3.71-3.14 6.3-4.03l.71-.18c.65.97 2.04 2.96 3.7 4.98 3.24 3.94 5.77 5.85 7.72 5.85.42 0 .81-.09 1.17-.25.97-.45 1.62-1.3 1.89-2.44.63-2.7-.93-6.72-2.32-9.28.47.02.87.06 1.27.09.52.05 1 .09 1.53.09 1.05-.01 2.08-.18 3.44-.58m-.02-1.01c-.05 0-.1.01-.15.02-1.47.44-2.24.56-3.09.56-1.09 0-2.47-.2-3.47-.2V34h-1.55c1.58 2 5.67 10.48 2.04 12.19a1.7 1.7 0 0 1-.74.16c-3.88 0-10.98-10.98-10.98-10.98l-1.44.37c-2.83.96-5.66 3.27-6.7 4.27 0 0-.94.99-1.26 1.31-.22.22-.46.52-.48.83-.02.23.09.47.2.68 1.25 2.37 3.45 4.72 5.55 6.4.22.18.46.36.73.42h.03c.28 0 1.1-.53 1.68-.94 1.37 1.58 2.61 3.08 3.36 4.1.84 1.04 3.06 5.01 2.25 8.28-5.88 12.36-.26 14.76.37 19.07 1.18 8.09-7.34 26.93-22.17 30.13-.91-.45-1.73-.77-2.6-.77-.83 0-1.71.28-2.77 1-2.61 1.75-4.61 6.75 2.09 10.82 1.47.89 2.98 1.26 4.51 1.26 6.6 0 13.43-6.82 18.25-6.82.43 0 .84.05 1.23.17 5.84 1.73 9.96 2.44 12.97 2.44 9.66 0 7.92-7.26 15.36-11.25 1.07-.57 2.11-.78 3.14-.78 2.87 0 5.68 1.63 8.94 1.63 1.75 0 3.64-.47 5.73-1.92 2.15-1.49 2.6-4.19 2.65-5.91.12-4.29.93-7.74 4.75-8.74 2.55-.67 3.72-3.35 3.76-6.12.04-2.44-1.19-3.78-2.76-4.64-.46-.25-.91-.33-1.34-.33-.69 0-1.32.2-1.82.2-.13 0-.25-.01-.35-.04-1.07-.31-1.19-1.85-.16-2.27.01-.01.03-.01.04-.02 1.34-.53 2.58-1.56 3.24-3.29 1.91-4.96-1.85-10.53-6.96-10.53-.29 0-.58.02-.87.05-3.01.37-4.59 1.98-5.57 3.93-1.29.46-3.2.87-5.57.87-3.34 0-7.61-.82-12.36-3.46-4-2.22-6.48-5.38-7.01-9.01s1.85-5.97 2.1-9.25c.09-1.08-.02-1.98-.25-2.75 1.54-.74 3.3-2.2 3.31-2.56.06-1.47-.68-2.84-1.47-4.08-.85-1.32-1.81-2.61-3.08-3.54-.29-.25-.9-.61-1.31-.61z" fill="#424242" opacity=".2"/><path d="M-33.77 115.59c1.62 1.02 4.79 4.18 5.66 5.88.25.49.48 1.68.15 2.11-.28.36-6.55.73-11.05-1.82-.39-.22-.89-1.04-1.05-1.36-.3-.6-.75-.67-.82-.04-.59-.03-1.01.02-1.6-.01-.42-4.09-1.12-3.64-1.05-6.51.06-2.33 1.66-2.83 2.29-3.07.1-.04 5.08 3.06 7.47 4.82z" fill="#DD2C00"/><path d="M-41.29 111.87c1.18.69 4.95 3.07 6.93 4.53.02.01.04.03.06.04 1.48.93 4.52 3.98 5.3 5.49.1.19.18.57.2.85-.3.03-.76.07-1.36.07-1.15 0-5.17-.14-8.34-1.93-.15-.11-.5-.61-.67-.95-.33-.66-.84-1.04-1.41-1.04-.33 0-.68.14-.93.43h-.08c-.19-1.46-.42-2.25-.61-2.9-.22-.75-.36-1.25-.33-2.59.03-1.31.66-1.75 1.24-2m.06-1.1c-.63.24-2.24.74-2.29 3.07-.07 2.87.63 2.42 1.05 6.51.16.01.3.01.45.01.24 0 .46-.01.71-.01.14 0 .29 0 .44.01.03-.3.16-.44.31-.44.16 0 .36.17.52.48.16.32.66 1.14 1.05 1.36 2.91 1.64 6.56 2.07 8.85 2.07 1.25 0 2.1-.13 2.2-.26.33-.44.1-1.63-.15-2.11-.88-1.7-4.04-4.86-5.66-5.88-2.39-1.74-7.33-4.81-7.48-4.81z" fill="#424242" opacity=".2"/><linearGradient id="l" x1="-53.515" x2="-33.389" y1="102.12" y2="102.12" gradientTransform="matrix(1 .00866 -.00866 1 .907 .356)" gradientUnits="userSpaceOnUse"><stop stop-color="#FFB300" offset="0"/><stop stop-color="#FFCA28" offset=".401"/></linearGradient><path d="M-34.86 117.64c-.34 0-.73-.04-1.19-.12-1.08-.19-1.61-.73-2.46-1.67-1.14-1.27-1.57-2.81-2.03-4.43-.28-.99-.56-2.01-1.02-3.02-1.38-3.04-4.29-6.91-7.11-10.65-1.66-2.21-3.23-4.29-4.29-5.97-.37-.58-.49-1.07-.39-1.52.22-.94 1.47-1.71 2.67-2.45 1.28-.78 2.52-1.23 3.41-1.23.71 0 1.16.26 1.42.82 4 8.36 5.6 11.99 9.01 20.11l2.65 6.31c.35.84.8 2.46.69 3.08-.05.23-.14.74-1.36.74z" fill="url(#l)"/><path d="M-47.27 87.09c.63 0 .84.26.97.54 3.99 8.34 5.59 11.96 9 20.08l1.37 3.25 1.28 3.06c.36.85.74 2.34.66 2.8-.02.11-.06.32-.86.32-.31 0-.67-.04-1.1-.11-.92-.16-1.36-.61-2.18-1.52-1.07-1.18-1.48-2.67-1.92-4.24-.28-1-.57-2.04-1.05-3.09-1.4-3.1-4.33-6.98-7.17-10.74-1.66-2.2-3.22-4.27-4.27-5.93-.43-.68-.35-1.02-.32-1.14.17-.74 1.38-1.48 2.45-2.13 1.17-.72 2.35-1.15 3.14-1.15m0-1c-1.14 0-2.53.61-3.67 1.31-2.03 1.25-3.86 2.42-2.45 4.66 2.83 4.47 9.18 11.73 11.37 16.55 1.2 2.64 1.2 5.43 3.13 7.58.86.96 1.48 1.61 2.75 1.83.43.08.87.13 1.28.13.92 0 1.69-.27 1.85-1.15.15-.81-.4-2.6-.72-3.36-.88-2.1-1.77-4.21-2.65-6.31-3.5-8.34-5.11-11.96-9.02-20.12-.37-.81-1.06-1.12-1.87-1.12z" fill="#EDA600"/><path d="M-73.91 121.36c-.42-2.54-2.56-6.71-4.87-6.71s-4.64 4.17-5.06 6.71c-.06.34-.08 1.44-.08 1.71 0 .01.01.02.01.02.02.38.43.9 1.01.9 1.4 0 2.71 0 4.01.01 1.3 0 2.61-.01 4.01-.01.61 0 1.03-.57 1.01-.95v-.01c0-.26.01-1.34-.04-1.67z" fill="#B41301"/><path d="M-78.78 115.65c1.47 0 3.4 3.36 3.82 5.87.02.1-.04.41-.04 1.34v.11c0 .01.05.02.05.02-1.4 0-2.68.01-3.97.01H-82.89c-.01 0-.02-.02-.03-.03.01-.41.04-1.24.07-1.45.39-2.43 2.57-5.87 4.07-5.87m0-1c-2.31 0-4.64 4.17-5.06 6.71-.06.34-.08 1.44-.08 1.71 0 .01.01.02.01.02.02.38.43.9 1.01.9 1.4 0 2.71 0 4.01.01 1.3 0 2.61-.01 4.01-.01.61 0 1.03-.57 1.01-.95v-.01c0-.27.02-1.34-.04-1.67-.42-2.54-2.56-6.71-4.87-6.71z" fill="#424242" opacity=".2"/><path d="M-77.96 118.33c-.16 0-.33-.02-.52-.05-.99-.19-1.56-.45-1.8-.83-.21-.34-.21-.89.01-1.67.27-1.5.92-3.82 1.4-5.52.18-.66.34-1.23.45-1.63.05-.18.67-.51 1.96-.51 1.37 0 2.72.38 3.08.87.08.1.09.2.06.31l-2.76 6.8c-.49 1.66-.98 2.23-1.88 2.23z" fill="#E59600"/><path d="M-76.45 108.62c1.35 0 2.35.37 2.62.61l-2.72 6.69c-.01.03-.02.06-.03.1-.49 1.68-.9 1.82-1.38 1.82-.13 0-.27-.01-.42-.04-1.02-.19-1.36-.43-1.47-.6-.13-.21-.1-.66.07-1.27.01-.03.02-.06.02-.1.26-1.42.91-3.74 1.38-5.43.17-.6.31-1.13.42-1.51.17-.12.67-.27 1.51-.27m0-1c-1.21 0-2.29.28-2.45.88-.37 1.41-1.47 5.1-1.84 7.13-.57 2 .13 2.75 2.17 3.13.22.04.42.06.61.06 1.33 0 1.89-1.01 2.34-2.54l2.78-6.84c.36-1.17-1.77-1.82-3.61-1.82z" fill="#D18100"/></g><g clip-path="url(#b)"><defs><path id="m" transform="rotate(175.003 -80.277 24.882)" d="M-99.96 5.2h39.36v39.36h-39.36z"/></defs><clipPath id="n"><use xlink:href="#m"/></clipPath><g clip-path="url(#n)"><path d="M-79.35 38.86c-1.13 0-2.09-.87-2.19-1.99l-.24-2.76 4.94-.43.24 2.76c.05.58-.13 1.14-.51 1.59s-.91.72-1.5.77l-.54.05c-.06 0-.13.01-.2.01z" fill="#E59600"/><path d="M-77.3 34.21l.2 2.26c.08.92-.62 1.74-1.56 1.82l-.54.05c-.05 0-.1.01-.15.01-.87 0-1.62-.67-1.69-1.53l-.2-2.26 1.97-.17 1.97-.18m.91-1.08l-5.94.52.29 3.26c.12 1.39 1.3 2.44 2.69 2.44.08 0 .16 0 .24-.01l.54-.05a2.69 2.69 0 0 0 2.46-2.91l-.28-3.25z" fill="#D18100"/><linearGradient id="o" x1="-78.094" x2="-78.094" y1="38.008" y2="13.148" gradientTransform="scale(-1 1) rotate(5.002 38.094 1837.212)" gradientUnits="userSpaceOnUse"><stop stop-color="#FFB300" offset="0"/><stop stop-color="#FFB809" offset=".102"/><stop stop-color="#FFC21A" offset=".371"/><stop stop-color="#FFC825" offset=".659"/><stop stop-color="#FFCA28" offset="1"/></linearGradient><path d="M-79.72 34.94c-.61 0-1.26-.09-1.94-.26-3.77-.97-8.39-4.57-9-11.53-.81-9.26 4.47-13.03 9.23-13.45.31-.03.62-.04.93-.04 4.58 0 9.74 3.07 10.49 11.68.61 6.95-3.31 11.3-6.84 12.91-.82.37-1.64.6-2.38.67-.15.01-.32.02-.49.02z" fill="url(#o)"/><path d="M-80.49 10.15c4.36 0 9.27 2.95 9.99 11.22.59 6.69-3.16 10.87-6.55 12.41-.77.35-1.53.57-2.21.63-.15.01-.29.02-.45.02a7.1 7.1 0 0 1-1.82-.25c-3.61-.93-8.04-4.39-8.62-11.09-.78-8.89 4.24-12.51 8.78-12.91.28-.01.58-.03.88-.03m-.01-1c-.32 0-.65.01-.98.04-5.62.49-10.46 5.13-9.68 13.99.62 7.13 5.41 10.95 9.37 11.97.73.19 1.43.28 2.07.28.18 0 .36-.01.54-.02.78-.07 1.65-.31 2.54-.71 3.72-1.69 7.76-6.29 7.14-13.41-.74-8.35-5.72-12.14-11-12.14z" fill="#ED9E00"/><defs><path id="p" d="M-66.2 31.83s-2.02-14.55-2.78-16.74c-2.05-5.88-6.42-9.21-11.96-8.73l-1.61.14c-10.23.9-11.01 11.4-10.97 13.73s.3 5.26.42 6.63c.27 3.08-6.1 7.78-6.1 7.78l33-2.81z"/></defs><clipPath id="q"><use xlink:href="#p"/></clipPath><g clip-path="url(#q)"><radialGradient id="r" cx="-77.551" cy="7.322" r="11.492" gradientTransform="matrix(-.9962 .0872 .084 .9601 -160.32 3.941)" gradientUnits="userSpaceOnUse"><stop stop-color="#6D4C41" offset="0"/><stop stop-color="#543930" offset="1"/></radialGradient><path d="M-93.43 27.54c.47-5.01-.18-6.73-.04-8.56.12-1.55.62-11.75 11.72-12.72C-69.06 5.15-68.33 16.8-68.33 16.8l.31 4.15s-.09 2.48-1.19 5.48c-1.11 3.01-2.29 5.14-2.29 5.14s1.4-4.51 1.04-8.64c-.08-.95-.09-4.51-2.12-4.78-7.45-1-11.92-4.52-11.92-4.52-.87 2.44-4.03 5.03-5.16 6-.93.8-.53 3.73-.4 4.98l.95 5.69c-1.26-.66-3.57-1.5-4.32-2.76z" fill="url(#r)"/></g><path d="M-81.23 26.3c.03-.02.07-.03.1-.04l2.28-.2c.04 0 .07.01.11.02.21.07.35.27.27.51s-.48.92-1.39 1c-.92.08-1.43-.52-1.54-.74-.13-.22-.03-.45.17-.55z" fill="#E59600"/><ellipse transform="rotate(-4.997 -74.898 22.723)" cx="-74.94" cy="22.73" rx="1.6" ry="1.65" fill="#404040"/><ellipse transform="rotate(-4.997 -85.511 23.653)" cx="-85.56" cy="23.66" rx="1.6" ry="1.65" fill="#404040"/><path d="M-77.56 19.98c.27-.43.92-1.07 2.28-1.19s2.11.4 2.45.78c.15.17.13.37.05.51-.08.12-.32.25-.61.18s-.86-.31-1.78-.23c-.92.09-1.44.42-1.72.54-.27.12-.54.04-.63-.07a.43.43 0 0 1-.04-.52zM-88.18 20.91c.27-.43.92-1.07 2.28-1.19s2.11.4 2.45.78c.15.17.13.37.05.51-.08.12-.32.25-.61.18s-.86-.31-1.78-.23c-.92.09-1.44.42-1.72.54-.27.12-.54.04-.63-.07-.1-.13-.16-.34-.04-.52z" fill="#6D4C41"/><path d="M-82.47 29.07c1.08.52 4.45.23 5.43-.47.56-.4 1.21.08 1.01.64-.19.55-1.93 1.93-3.52 2.07s-3.51-.93-3.8-1.43c-.29-.52.26-1.11.88-.81z" fill="#795548"/></g></g><g clip-path="url(#b)"><linearGradient id="s" x1="-8.25" x2="5.5" y1="58.75" y2="58.75" gradientUnits="userSpaceOnUse"><stop stop-color="#DD1C00" offset=".086"/><stop stop-color="red" offset=".71"/></linearGradient><path d="M5.5 57.75S1.95 59.03.75 60C-2.5 62.62-3 67.5-3 67.5S-5.56 53.67-8.25 50c0 0 4.52 4.33 6.62 5.5 2.25 1.25 7.13 2.25 7.13 2.25z" fill="url(#s)"/></g><g clip-path="url(#b)"><linearGradient id="t" x1="10.66" x2="21.189" y1="84.958" y2="84.958" gradientTransform="rotate(-13.952 -36.711 89.415)" gradientUnits="userSpaceOnUse"><stop stop-color="#DD1C00" offset=".086"/><stop stop-color="red" offset=".71"/></linearGradient><path d="M18.42 71.18s-2.15.87-3.14 2.06c-1.34 1.61-1.74 4.69-1.74 4.69s-3.16-6.6-6.66-9.52c0 0 2.93 1.71 5.31 2.06s6.23.71 6.23.71z" fill="url(#t)"/></g><defs><path id="u" d="M4 4h120v120H4z"/></defs><clipPath id="v"><use xlink:href="#u"/></clipPath><g clip-path="url(#v)"><radialGradient id="w" cx="-211.49" cy="25.79" r="18.231" gradientTransform="scale(-1 1) rotate(5.002 38.094 1837.212)" gradientUnits="userSpaceOnUse"><stop stop-color="#444140" offset="0"/><stop stop-color="#232020" offset="1"/></radialGradient><path d="M41.74 45.02c-4.16 0-7.37-1.91-8.39-4.97-1.01-3.06.43-6.41 3.86-8.96 3.05-2.27 3.19-3.75 2.84-7.73-.35-3.96 0-7.17 1.08-9.83 1.91-4.74 6.66-7.79 12.1-7.79 4.42 0 8.28 2 10.58 5.48 3.94 5.95 2.63 15.41-.92 21.12-.07.11-.16.28-.28.49C58.6 40.1 52.01 44.18 43 44.97c-.42.03-.85.05-1.26.05z" fill="url(#w)"/><path d="M53.23 6.23c4.25 0 7.95 1.92 10.17 5.26 3.83 5.78 2.54 15-.92 20.58-.07.12-.17.29-.29.52-3.93 7.11-10.4 11.11-19.22 11.88-.41.04-.82.05-1.22.05-3.93 0-6.97-1.77-7.91-4.63-.94-2.84.44-5.98 3.68-8.4 3.24-2.41 3.4-4.07 3.04-8.18-.34-3.88 0-7.02 1.04-9.6 1.83-4.55 6.39-7.48 11.63-7.48m0-1c-5.21 0-10.42 2.8-12.56 8.11-1.27 3.15-1.41 6.64-1.11 10.06.35 3.99.15 5.21-2.64 7.29-7.89 5.87-4.39 14.83 4.83 14.83.42 0 .86-.02 1.31-.06 14.98-1.31 19.39-11.45 20.27-12.87 3.79-6.1 4.88-15.66.91-21.66-2.56-3.85-6.78-5.7-11.01-5.7z" fill="#1F1D1B"/></g><g clip-path="url(#v)"><linearGradient id="x" x1="70.419" x2="70.897" y1="41.881" y2="41.881" gradientUnits="userSpaceOnUse"><stop stop-color="#5C4037" offset="0"/><stop stop-color="#63463D" offset=".158"/><stop stop-color="#6D5047" offset=".533"/><stop stop-color="#70534A" offset="1"/></linearGradient><path d="M57.25 49.23c-2.47 0-5.34-.46-8.11-1.3l-5.59-8.7c1.07-.94 5.16-4.09 12.28-4.09 1.6 0 3.27.16 4.96.47.5.09 1.09.14 1.71.14.97 0 3.33-.13 5.52-1.22l1.02 8.75c-.54.75-3.29 4.32-8.37 5.58-.97.24-2.13.37-3.42.37z" fill="url(#x)"/><path d="M67.61 35.27l.92 7.87c-.71.95-3.34 4.08-7.97 5.23-.94.23-2.06.35-3.3.35-2.37 0-5.12-.43-7.79-1.22l-5.25-8.17c1.38-1.12 5.26-3.69 11.62-3.69 1.57 0 3.21.16 4.87.46.53.1 1.15.15 1.81.15.91 0 3-.11 5.09-.98m.83-1.53c-1.81 1.1-4.12 1.51-5.93 1.51-.61 0-1.17-.05-1.62-.13-1.83-.34-3.51-.48-5.05-.48-8.68 0-12.93 4.51-12.93 4.51l5.91 9.2c2.86.88 5.84 1.37 8.43 1.37 1.3 0 2.5-.12 3.55-.38 5.94-1.47 8.77-5.94 8.77-5.94l-1.13-9.66z" fill="#4A2F27"/><linearGradient id="y" x1="75.003" x2="75.003" y1="15.731" y2="39.493" gradientUnits="userSpaceOnUse"><stop stop-color="#5C4037" offset="0"/><stop stop-color="#63463D" offset=".158"/><stop stop-color="#6D5047" offset=".533"/><stop stop-color="#70534A" offset="1"/></linearGradient><path d="M68.04 42.69c-.51-.54-1.75-3.83-2.7-6.84 1.61-.97 8.56-5.16 11.77-7.42a.5.5 0 0 0 .2-.53c-.3-1.19-.61-2.26-.93-3.28L72.99 14.4c-.05-.16-.08-.29-.11-.41-.01-.05-.03-.09-.05-.13-.27-.48-.32-1.21.36-1.81l3.05-2.69c.34-.3.88-.61 1.26-.61.17 0 .29.05.38.3a.518.518 0 0 0 .47.34c.12 0 .23-.04.33-.12.95-.82 3.67-2.98 4.79-3.2-.01.01.05.01.08.11.02.07.02.16-.03.19-2.15 1.62-4.96 4.64-5.08 4.77-.52.49-.97.91-1.39 1.29-.15.14-.21.36-.13.55l.08.21c.9 2.16 1.98 3.99 3.12 5.93 1.52 2.58 3.09 5.25 4.3 8.83 0 .04.01.09.03.13.27.71.3 1.44.07 2.13-.2.63-.59 1.17-1.12 1.58-.04.03-.07.06-.1.1-4.5 3.72-8.47 6.93-11.83 9.53-.76.6-2.5 1.23-3.43 1.27z" fill="url(#y)"/><path d="M80.01 8.81c-1 .98-1.77 1.8-1.91 1.96-.53.5-.97.91-1.38 1.28-.31.28-.41.71-.27 1.1l.05.12c.01.03.02.05.03.09.01.02.01.04.02.06.9 2.16 1.99 4.01 3.14 5.97 1.5 2.55 3.05 5.18 4.24 8.68.01.07.03.13.05.19.16.42.3 1.07.07 1.8-.17.53-.5.99-.94 1.33-.06.04-.1.09-.15.14-4.5 3.73-8.47 6.92-11.78 9.49-.63.49-2.01 1.02-2.9 1.14-.52-.85-1.53-3.56-2.35-6.09 2.09-1.26 8.39-5.07 11.46-7.24.34-.24.49-.66.39-1.06-.31-1.21-.62-2.3-.95-3.32l-3.39-10.22c-.05-.13-.07-.25-.1-.36-.02-.09-.06-.18-.1-.26-.11-.19-.3-.7.26-1.19l3.05-2.69c.28-.25.64-.43.86-.47.12.29.37.51.67.59.08.02.17.03.26.03.24 0 .47-.08.65-.24.3-.26.65-.54 1.02-.83m3.41-3.24h-.06c-1.49.29-5.02 3.31-5.02 3.31-.16-.46-.49-.63-.85-.63-.55 0-1.2.38-1.6.73l-3.05 2.69c-.84.74-.87 1.72-.47 2.43.03.14.07.29.13.46l3.38 10.22c.34 1.07.65 2.16.93 3.25-3.65 2.58-12.07 7.51-12.07 7.51S67.09 43 67.92 43h.05c1.08 0 2.98-.62 3.82-1.28 4.7-3.65 9.63-7.67 11.93-9.57l-.01.01c.59-.45 1.05-1.05 1.29-1.81.27-.84.21-1.69-.08-2.46h.01c-2.11-6.35-5.38-9.88-7.45-14.86-.03-.09-.06-.15-.09-.24.42-.38.87-.8 1.42-1.32 0 0 2.87-3.1 5.01-4.71.44-.34.23-1.19-.4-1.19z" fill="#4A2F27"/><linearGradient id="z" x1="72.301" x2="55.491" y1="34.37" y2="45.56" gradientUnits="userSpaceOnUse"><stop stop-color="#E31C00" offset=".29"/><stop stop-color="#BC1B00" offset=".884"/></linearGradient><path d="M59.64 34.35c2.92 0 3.58.64 6.92-.36.4-.12 1.14.32 1.47.56 1.27.93 2.23 2.21 3.08 3.54.79 1.23 1.54 2.61 1.47 4.08-.02.53-3.76 3.39-5.1 2.95-1.84-.61-3.36-3.43-4.16-5.2-.79-1.77-2.39-4.13-3.68-5.57" fill="url(#z)"/><linearGradient id="A" x1="39.168" x2="39.168" y1="45.59" y2="69.672" gradientUnits="userSpaceOnUse"><stop stop-color="#5C4037" offset="0"/><stop stop-color="#63463D" offset=".158"/><stop stop-color="#6D5047" offset=".533"/><stop stop-color="#70534A" offset="1"/></linearGradient><path d="M42.65 76.65c-.05 0-.11-.04-.15-.09-.02-.02-.05-.07-.03-.12.78-2.58 1.25-6.67 1.27-6.84.14-.75.26-1.4.38-1.98a.506.506 0 0 0-.23-.53c-.14-.08-.24-.16-.33-.26-1.7-1.6-3.4-2.8-5.2-4.08-2.38-1.69-4.83-3.44-7.38-6.16 0 0-.05-.06-.08-.09-.02-.03-.03-.05-.05-.07-.7-.76-.99-1.76-.81-2.76.12-.65.43-1.24.91-1.7.04-.03.06-.07.09-.12 4.02-4.3 7.55-7.98 10.51-10.96.7-.71 2.33-1.55 3.26-1.7.57.47 2.23 3.58 3.55 6.44-1.38 1.09-6.99 5.53-10.08 8.28a.5.5 0 0 0-.05.69l.17.21c.4.48.8.96 1.22 1.43l7.29 7.93c.04.05.17.2.17.21.05.06.09.1.12.15l.08.11c.14.24.19.38.18.51.02.27.01.44-.03.62l-.87 3.97c-.13.63-.54 1.32-.88 1.32-.08 0-.17-.03-.27-.1a.468.468 0 0 0-.28-.09.483.483 0 0 0-.48.38c-.29 1.22-1.19 4.58-1.97 5.41l-.03-.01z" fill="url(#A)"/><path d="M44.63 39.74c.62.77 1.97 3.34 3.1 5.74-1.77 1.4-6.88 5.47-9.79 8.05-.4.36-.45.97-.1 1.39l.16.19c.4.48.82.98 1.26 1.47l7.29 7.93c.03.03.05.06.07.09l.08.1c.01.02.03.03.04.04.02.02.04.05.06.08s.05.06.07.1c.01.02.02.03.03.04.06.09.07.14.07.14v.16c.01.14.01.26-.02.39l-.87 3.97c-.08.39-.28.74-.41.89a.988.988 0 0 0-.53-.15c-.12 0-.25.02-.36.07a1 1 0 0 0-.61.7c-.09.38-.2.82-.33 1.27.22-1.38.36-2.49.38-2.71.14-.77.26-1.4.38-1.96a.981.981 0 0 0-.46-1.06c-.09-.06-.16-.11-.22-.17l-.04-.04c-1.7-1.6-3.42-2.81-5.23-4.1-2.36-1.67-4.79-3.41-7.3-6.1l-.06-.06a.7.7 0 0 0-.08-.1c-.59-.64-.84-1.49-.68-2.33.1-.55.37-1.04.77-1.44.05-.05.09-.1.13-.16 3.99-4.27 7.52-7.94 10.47-10.92.56-.57 1.88-1.28 2.73-1.51m.24-.74h-.02c-1.07 0-2.9.93-3.66 1.7-4.2 4.22-8.57 8.8-10.61 10.98l.01-.03c-.52.52-.9 1.17-1.05 1.95-.22 1.2.17 2.35.93 3.18h-.01l.11.11c.01.01.02.03.04.04 4.48 4.8 8.68 6.59 12.58 10.25.14.14.28.25.43.34-.12.58-.25 1.23-.39 2.02 0 0-.48 4.19-1.25 6.76-.13.42.25.85.66.85.14 0 .28-.05.41-.16 1.03-1.11 2.09-5.64 2.09-5.64.19.13.38.19.55.19.72 0 1.22-1.02 1.37-1.72l.87-3.97c.05-.25.06-.48.04-.69.02-.22-.05-.46-.21-.72-.01-.03-.03-.05-.05-.08-.03-.05-.06-.09-.1-.14a1.07 1.07 0 0 0-.14-.16c-.06-.08-.11-.14-.19-.23l-7.29-7.92c-.48-.53-.93-1.08-1.39-1.63 3.55-3.15 10.36-8.34 10.36-8.34S45.72 39 44.87 39z" fill="#4A2F27"/><linearGradient id="B" x1="45.293" x2="57.228" y1="27.494" y2="76.131" gradientUnits="userSpaceOnUse"><stop stop-color="#BC1B00" offset="0"/><stop stop-color="#E31C00" offset=".29"/><stop stop-color="#BC1B00" offset=".693"/><stop stop-color="#DD1C00" offset=".914"/></linearGradient><path d="M94.05 67.05c1.67.16-7.35 5.52-19.63-1.31-4-2.22-6.48-5.38-7.01-9.01s1.85-5.97 2.1-9.25c.41-5.28-3.55-6.24-5.53-8.54-1.98-2.29-4.36-4.58-4.36-4.58h-1.19c1.58 1.83 5.67 10.31 2.04 12.01S48.74 35.46 48.74 35.46l-1.44.42c-3.58 1.21-7.17 4.54-7.12 4.9.06.41 7.8 8.67 10.22 12.03.84 1.04 3.06 5.01 2.25 8.28-5.88 12.36-.26 14.76.37 19.07 1.29 8.85-9.04 30.6-26.54 30.6l8.25 4.75 15.67-1.03 8.66-7.45 11.9-1.78 4.2-8.61L79.33 85 94.5 75l-.45-7.95z" fill="url(#B)"/><path d="M39.36 41.41c-.22.22-.46.47-.48.78-.02.23.09.45.2.65 1.25 2.37 3.45 4.71 5.55 6.38.22.18.46.36.73.41.36.07 2.17-1.25 2.29-1.39.33-.37.11-.95-.13-1.39-.8-1.52-1.62-3.05-2.78-4.31s-2.4-2.26-4.11-2.35c-.01.01-.95.9-1.27 1.22z" fill="#DD2C00"/><defs><path id="C" d="M94.05 67.05c1.67.16-7.35 5.52-19.63-1.31-4-2.22-6.48-5.38-7.01-9.01s1.85-5.97 2.1-9.25c.41-5.28-3.55-6.24-5.53-8.54-1.98-2.29-4.36-4.58-4.36-4.58h-1.19c1.58 1.83 5.67 10.31 2.04 12.01S48.74 35.46 48.74 35.46l-1.44.42c-3.58 1.21-7.17 4.54-7.12 4.9.06.41 7.8 8.67 10.22 12.03.84 1.04 3.06 5.01 2.25 8.28-5.88 12.36-.26 14.76.37 19.07 1.29 8.85-9.04 30.6-26.54 30.6l8.25 4.75 15.67-1.03 8.66-7.45 11.9-1.78 4.2-8.61L79.33 85 94.5 75l-.45-7.95z"/></defs><clipPath id="D"><use xlink:href="#C"/></clipPath><g clip-path="url(#D)"><path d="M53.22 96.57c-1.4.82-2.87 2.35-4.38 4.9-1.31 2.21-4.43 7.82-6.84 8.28-2.25.43-5.39-.61-6.52-2.67l-.48-.87-1.75.96.48.88c1.35 2.47 4.32 3.59 6.99 3.59.57 0 1.12-.05 1.64-.15 3.44-.66 6.07-6.02 7.37-8.27.96-1.66 1.93-2.82 2.92-3.61-.09-.97.12-2.02.57-3.04zM73.99 70.34c2.17-.12 4.13.53 4.13.53l-.75-.5c-1.17-.56-3.69-1.83-5.92-1.67.74.9 1.72 1.24 2.54 1.64zM65.75 85c2.01 4.69 5.68 12.84 2.33 15.17-.67.47-2.14.23-4.08-.79-1.49-.78-3.13-2.06-4.9-2.87.24.79.46 1.59.54 2.37 1.41.56 2.75 1.35 3.98 2 2.22 1.17 4 1.78 5.7.32 4.3-3.69.18-9.96-1.82-14.98-1.93-4.83-1.76-8.36-.23-11.12-.82-.23-1.59-.51-2.33-.77-1.24 3.23-.72 7.1.81 10.67z" fill="#FF8F00"/><path d="M70.5 71.5c1.02-.79 2.29-1.09 3.49-1.16-.83-.4-1.8-.74-2.53-1.64-.55.04-1.09.16-1.58.41-2.55 1.29-4.11 3.12-4.93 5.22.73.26 1.51.54 2.33.77.76-1.37 1.86-2.55 3.22-3.6zM53.22 96.57c-.46 1.02-.66 2.08-.58 3.04 2.36-1.89 4.76-1.62 7-.73-.09-.78-.3-1.58-.54-2.37-1.82-.84-3.78-1.17-5.88.06z" fill="#FFB300"/></g><g clip-path="url(#D)"><path d="M85 74.31v-.49c3.07-.57 2.12-4.61 2.01-5.28l1.91-.34c.06.37.66 3.62-1.01 5.39-.48.51-2.91.75-2.91.72z" fill="#FF8F00"/></g><radialGradient id="E" cx="67.245" cy="99.194" r="47.355" gradientUnits="userSpaceOnUse"><stop stop-color="#892002" offset="0"/><stop stop-color="#B42002" offset=".537"/><stop stop-color="#892002" offset="1"/></radialGradient><path d="M97.91 64.4c5.55-.68 9.85 5.23 7.83 10.48-.67 1.73-1.9 2.77-3.24 3.29-.01.01-.03.01-.04.02-1.03.42-.91 1.96.16 2.27.81.24 2.14-.58 3.51.18 1.56.86 2.8 2.2 2.76 4.64-.05 2.76-1.21 5.44-3.76 6.12-3.81 1-4.62 4.45-4.75 8.74-.05 1.72-.49 4.42-2.65 5.91-7.39 5.11-12.17-1.95-17.82 1.08-9.77 5.23-3.73 16.1-28.34 8.81-5.86-1.73-15.57 10.5-23.99 5.39-6.7-4.07-4.69-9.06-2.09-10.82 5.22-3.51 6.08 3.65 17.75 3 6.06-.34 4.6-10.55 12.75-13 6.43-1.93 9.08 7.28 14 3 7.75-6.75-3.5-17.25-.5-24.75 1.86-4.66 5.75-7.25 9.75-6.25s3.67 4.08 6.25 4.83c2.83.83 4.56-1.95 5.17-4 1.02-3.43 1.75-8.26 7.25-8.94z" fill="url(#E)"/><path d="M66.73 34.98c.15.04.46.2.71.38 1.21.88 2.11 2.15 2.83 3.27.67 1.04 1.28 2.15 1.32 3.26-.37.4-1.57 1.37-2.75 1.94-.44.21-.67.72-.52 1.19.21.71.28 1.49.21 2.38-.1 1.24-.54 2.35-1.01 3.53-.7 1.76-1.43 3.58-1.09 5.95.57 3.91 3.24 7.37 7.51 9.75 4.28 2.38 8.6 3.58 12.84 3.58 2.13 0 4.22-.33 5.9-.93.24-.09.44-.26.56-.49 1.04-2.06 2.52-3.11 4.8-3.39.25-.03.5-.05.75-.05 2.03 0 3.98 1.07 5.22 2.87 1.3 1.89 1.6 4.24.8 6.3-.62 1.63-1.8 2.38-2.68 2.72 0 0-.05.02-.06.02-.86.35-1.38 1.19-1.33 2.12.05.96.67 1.76 1.59 2.03.2.06.4.09.64.09.31 0 .62-.05.93-.1.3-.05.6-.1.89-.1.33 0 .6.06.86.2 1.58.87 2.27 2.02 2.24 3.74-.04 2.12-.85 4.6-3.02 5.17-4.63 1.22-5.37 5.58-5.49 9.68-.05 1.67-.47 3.91-2.22 5.12-1.72 1.19-3.36 1.74-5.16 1.74-1.55 0-3.04-.41-4.49-.82-1.44-.4-2.93-.81-4.45-.81-1.3 0-2.48.3-3.62.9-3.28 1.75-4.89 4.09-6.31 6.16-1.91 2.78-3.42 4.97-8.58 4.97-3.09 0-7.24-.78-12.69-2.39-.47-.14-.98-.21-1.52-.21-2.47 0-5.26 1.52-8.2 3.13-3.32 1.81-6.74 3.69-10.05 3.69-1.45 0-2.76-.36-3.99-1.11-2.6-1.58-4-3.43-4.05-5.35-.04-1.77 1.05-3.14 2-3.78.84-.56 1.54-.83 2.21-.83.68 0 1.36.27 2.15.66a.997.997 0 0 0 .66.09C46.49 107.93 55.3 88.73 54.03 80c-.19-1.3-.75-2.4-1.34-3.55-1.51-2.95-3.23-6.3.89-14.95.03-.06.05-.12.07-.19.96-3.86-1.68-8.2-2.41-9.1-.67-.93-1.79-2.29-3.41-4.17-.2-.23-.48-.35-.76-.35-.2 0-.41.06-.58.19-.48.35-.85.57-1.07.69-.06-.04-.12-.09-.17-.13-2.25-1.8-4.22-4.07-5.28-6.08-.03-.06-.05-.11-.07-.14.03-.04.08-.11.17-.2.28-.28 1.05-1.09 1.24-1.28l.01-.01c1.05-1.01 3.71-3.14 6.3-4.03l.71-.18c.65.97 2.04 2.96 3.7 4.98 3.24 3.94 5.77 5.85 7.72 5.85.42 0 .81-.09 1.17-.25.97-.45 1.62-1.3 1.89-2.44.63-2.7-.93-6.72-2.32-9.28.47.02.87.06 1.27.09.52.05 1 .09 1.53.09 1.05-.01 2.08-.18 3.44-.58m-.02-1.01a.68.68 0 0 0-.15.02c-1.47.44-2.24.56-3.09.56-1.09 0-2.47-.2-3.47-.2V34h-1.55c1.58 2 5.67 10.48 2.04 12.19a1.7 1.7 0 0 1-.74.16c-3.88 0-10.98-10.98-10.98-10.98l-1.44.37c-2.83.96-5.66 3.27-6.7 4.27 0 0-.94.99-1.26 1.31-.22.22-.46.52-.48.83-.02.23.09.47.2.68 1.25 2.37 3.45 4.72 5.55 6.4.22.18.46.36.73.42h.03c.28 0 1.1-.53 1.68-.94 1.37 1.58 2.61 3.08 3.36 4.1.84 1.04 3.06 5.01 2.25 8.28-5.88 12.36-.26 14.76.37 19.07 1.18 8.09-7.34 26.93-22.17 30.13-.91-.45-1.73-.77-2.6-.77-.83 0-1.71.28-2.77 1-2.61 1.75-4.61 6.75 2.09 10.82 1.47.89 2.98 1.26 4.51 1.26 6.6 0 13.43-6.82 18.25-6.82.43 0 .84.05 1.23.17 5.84 1.73 9.96 2.44 12.97 2.44 9.66 0 7.92-7.26 15.36-11.25 1.07-.57 2.11-.78 3.14-.78 2.87 0 5.68 1.63 8.94 1.63 1.75 0 3.64-.47 5.73-1.92 2.15-1.49 2.6-4.19 2.65-5.91.12-4.29.93-7.74 4.75-8.74 2.55-.67 3.72-3.35 3.76-6.12.04-2.44-1.19-3.78-2.76-4.64-.46-.25-.91-.33-1.34-.33-.69 0-1.32.2-1.82.2-.13 0-.25-.01-.35-.04-1.07-.31-1.19-1.85-.16-2.27.01-.01.03-.01.04-.02 1.34-.53 2.58-1.56 3.24-3.29 1.91-4.96-1.85-10.53-6.96-10.53-.29 0-.58.02-.87.05-3.01.37-4.59 1.98-5.57 3.93-1.29.46-3.2.87-5.57.87-3.34 0-7.61-.82-12.36-3.46-4-2.22-6.48-5.38-7.01-9.01s1.85-5.97 2.1-9.25c.09-1.08-.02-1.98-.25-2.75 1.54-.74 3.3-2.2 3.31-2.56.06-1.47-.68-2.84-1.47-4.08-.85-1.32-1.81-2.61-3.08-3.54-.29-.25-.9-.61-1.31-.61z" fill="#424242" opacity=".2"/><path d="M100.23 115.59c1.62 1.02 4.79 4.18 5.66 5.88.25.49.48 1.68.15 2.11-.28.36-6.55.73-11.05-1.82-.39-.22-.89-1.04-1.05-1.36-.3-.6-.75-.67-.82-.04-.59-.03-1.01.02-1.6-.01-.42-4.09-1.12-3.64-1.05-6.51.06-2.33 1.66-2.83 2.29-3.07.1-.04 5.08 3.06 7.47 4.82z" fill="#DD2C00"/><path d="M92.71 111.87c1.18.69 4.95 3.07 6.93 4.53.02.01.04.03.06.04 1.48.93 4.52 3.98 5.3 5.49.1.19.18.57.2.85-.3.03-.76.07-1.36.07-1.15 0-5.17-.14-8.34-1.93-.15-.11-.5-.61-.67-.95-.33-.66-.84-1.04-1.41-1.04-.33 0-.68.14-.93.43h-.08c-.19-1.46-.42-2.25-.61-2.9-.22-.75-.36-1.25-.33-2.59.03-1.31.66-1.75 1.24-2m.06-1.1c-.63.24-2.24.74-2.29 3.07-.07 2.87.63 2.42 1.05 6.51.16.01.3.01.45.01.24 0 .46-.01.71-.01.14 0 .29 0 .44.01.03-.3.16-.44.31-.44.16 0 .36.17.52.48.16.32.66 1.14 1.05 1.36 2.91 1.64 6.56 2.07 8.85 2.07 1.25 0 2.1-.13 2.2-.26.33-.44.1-1.63-.15-2.11-.88-1.7-4.04-4.86-5.66-5.88-2.39-1.74-7.33-4.81-7.48-4.81z" fill="#424242" opacity=".2"/><linearGradient id="F" x1="80.48" x2="100.61" y1="100.96" y2="100.96" gradientTransform="matrix(1 .00866 -.00866 1 .907 .356)" gradientUnits="userSpaceOnUse"><stop stop-color="#5C4037" offset="0"/><stop stop-color="#63463D" offset=".158"/><stop stop-color="#6D5047" offset=".533"/><stop stop-color="#70534A" offset="1"/></linearGradient><path d="M99.14 117.64c-.34 0-.73-.04-1.19-.12-1.08-.19-1.61-.73-2.46-1.67-1.14-1.27-1.57-2.81-2.03-4.43-.28-.99-.56-2.01-1.02-3.02-1.38-3.04-4.29-6.91-7.11-10.65-1.66-2.21-3.23-4.29-4.29-5.97-.37-.58-.49-1.07-.39-1.52.22-.94 1.47-1.71 2.67-2.45 1.28-.78 2.52-1.23 3.41-1.23.71 0 1.16.26 1.42.82 4 8.36 5.6 11.99 9.01 20.11l2.65 6.31c.35.84.8 2.46.69 3.08-.05.23-.14.74-1.36.74z" fill="url(#F)"/><path d="M86.73 87.09c.63 0 .84.26.97.54 3.99 8.34 5.59 11.96 9 20.08l2.65 6.31c.36.85.74 2.34.66 2.8-.02.11-.06.32-.86.32-.31 0-.67-.04-1.1-.11-.92-.16-1.36-.61-2.18-1.52-1.06-1.18-1.48-2.67-1.92-4.24-.28-1-.57-2.04-1.05-3.09-1.4-3.1-4.33-6.98-7.17-10.74-1.66-2.2-3.22-4.27-4.27-5.93-.43-.68-.35-1.02-.32-1.14.17-.74 1.38-1.48 2.45-2.13 1.17-.72 2.35-1.15 3.14-1.15m0-1c-1.14 0-2.53.61-3.67 1.31-2.03 1.25-3.86 2.42-2.44 4.66 2.83 4.47 9.18 11.73 11.37 16.55 1.2 2.64 1.2 5.43 3.13 7.58.86.96 1.48 1.61 2.75 1.83.43.08.87.13 1.28.13.92 0 1.69-.27 1.85-1.15.15-.81-.4-2.6-.72-3.36-.88-2.1-1.77-4.21-2.65-6.31-3.5-8.34-5.11-11.96-9.02-20.12-.38-.81-1.07-1.12-1.88-1.12z" fill="#4A2F27"/><path d="M60.09 121.36c-.42-2.54-2.56-6.71-4.87-6.71s-4.64 4.17-5.06 6.71c-.06.34-.08 1.44-.08 1.71 0 .01.01.02.01.02.02.38.43.9 1.01.9 1.4 0 2.71 0 4.01.01 1.3 0 2.61-.01 4.01-.01.61 0 1.03-.57 1.01-.95v-.01c0-.26.01-1.34-.04-1.67z" fill="#B41301"/><path d="M55.22 115.65c1.47 0 3.4 3.36 3.82 5.87.02.1-.04.41-.04 1.34v.11c0 .01.05.02.05.02-1.4 0-2.68.01-3.97.01H51.11c-.01 0-.02-.02-.03-.03.01-.41.04-1.24.07-1.45.39-2.43 2.57-5.87 4.07-5.87m0-1c-2.31 0-4.64 4.17-5.06 6.71-.06.34-.08 1.44-.08 1.71 0 .01.01.02.01.02.02.38.43.9 1.01.9 1.4 0 2.71 0 4.01.01 1.3 0 2.61-.01 4.01-.01.61 0 1.03-.57 1.01-.95v-.01c0-.27.02-1.34-.04-1.67-.42-2.54-2.56-6.71-4.87-6.71z" fill="#424242" opacity=".2"/><path d="M56.04 118.33c-.16 0-.33-.02-.52-.05-.99-.19-1.56-.45-1.8-.83-.21-.34-.21-.89.01-1.67.27-1.5.92-3.82 1.4-5.52.18-.66.34-1.23.45-1.63.05-.18.67-.51 1.96-.51 1.37 0 2.72.38 3.08.87.08.1.09.2.06.31l-2.76 6.8c-.49 1.66-.98 2.23-1.88 2.23z" fill="#3C2B24"/><path d="M57.55 108.62c1.35 0 2.35.37 2.62.61l-2.72 6.69c-.01.03-.02.06-.03.1-.49 1.68-.9 1.82-1.38 1.82-.13 0-.27-.01-.42-.04-1.02-.19-1.36-.43-1.47-.6-.13-.21-.1-.66.07-1.27.01-.03.02-.06.02-.1.26-1.42.91-3.74 1.38-5.43.17-.6.32-1.13.42-1.52.17-.11.67-.26 1.51-.26m0-1c-1.21 0-2.29.28-2.45.88-.37 1.41-1.47 5.1-1.84 7.13-.57 2 .13 2.75 2.17 3.13.22.04.42.06.61.06 1.33 0 1.89-1.01 2.34-2.54l2.78-6.84c.36-1.17-1.77-1.82-3.61-1.82z" fill="#291B16"/></g><g clip-path="url(#v)"><defs><path id="G" transform="rotate(175.003 53.722 24.885)" d="M34.04 5.2H73.4v39.36H34.04z"/></defs><clipPath id="H"><use xlink:href="#G"/></clipPath><g clip-path="url(#H)"><path d="M54.65 38.86c-1.13 0-2.09-.87-2.19-1.99l-.24-2.76 4.94-.43.24 2.76c.05.58-.13 1.14-.51 1.59s-.91.72-1.5.77l-.54.05c-.06 0-.13.01-.2.01z" fill="#3C2B24"/><path d="M56.7 34.21l.2 2.26c.08.92-.62 1.74-1.56 1.82l-.54.05c-.05 0-.1.01-.15.01-.87 0-1.62-.67-1.69-1.53l-.2-2.26 1.97-.17 1.97-.18m.91-1.08l-5.94.52.29 3.26c.12 1.39 1.3 2.44 2.69 2.44.08 0 .16 0 .24-.01l.54-.05a2.69 2.69 0 0 0 2.46-2.91l-.28-3.25z" fill="#291B16"/><linearGradient id="I" x1="-211.58" x2="-211.58" y1="49.687" y2="24.827" gradientTransform="scale(-1 1) rotate(5.002 38.094 1837.212)" gradientUnits="userSpaceOnUse"><stop stop-color="#5C4037" offset="0"/><stop stop-color="#63463D" offset=".158"/><stop stop-color="#6D5047" offset=".533"/><stop stop-color="#70534A" offset="1"/></linearGradient><path d="M54.28 34.94c-.61 0-1.26-.09-1.94-.26-3.77-.97-8.39-4.57-9-11.53-.81-9.26 4.47-13.03 9.23-13.45.31-.03.62-.04.93-.04 4.58 0 9.74 3.07 10.49 11.68.61 6.95-3.31 11.3-6.84 12.91-.82.37-1.64.6-2.38.67-.15.01-.32.02-.49.02z" fill="url(#I)"/><path d="M53.51 10.15c4.36 0 9.27 2.95 9.99 11.22.59 6.69-3.16 10.87-6.55 12.41-.77.35-1.53.57-2.21.63-.15.01-.29.02-.45.02a7.1 7.1 0 0 1-1.82-.25c-3.61-.93-8.04-4.39-8.62-11.09-.78-8.89 4.24-12.51 8.78-12.91.28-.01.58-.03.88-.03m-.01-1c-.32 0-.65.01-.98.04-5.62.49-10.46 5.13-9.68 13.99.62 7.13 5.41 10.95 9.37 11.97.73.19 1.43.28 2.07.28.18 0 .36-.01.54-.02.78-.07 1.65-.31 2.54-.71 3.72-1.69 7.76-6.29 7.14-13.41-.74-8.35-5.72-12.14-11-12.14z" fill="#4A2F27"/><defs><path id="J" d="M67.8 31.83s-2.02-14.55-2.78-16.74C62.97 9.2 58.6 5.87 53.06 6.36l-1.61.14c-10.23.9-11.01 11.4-10.97 13.73s.3 5.26.42 6.63c.27 3.08-6.1 7.78-6.1 7.78l33-2.81z"/></defs><clipPath id="K"><use xlink:href="#J"/></clipPath><g clip-path="url(#K)"><radialGradient id="L" cx="-211.04" cy="19.001" r="11.492" gradientTransform="matrix(-.9962 .0872 .084 .9601 -160.29 4.363)" gradientUnits="userSpaceOnUse"><stop stop-color="#444140" offset="0"/><stop stop-color="#232020" offset="1"/></radialGradient><path d="M40.57 27.54c.47-5.01-.18-6.73-.04-8.56.12-1.55.62-11.75 11.72-12.72C64.94 5.15 65.67 16.8 65.67 16.8l.31 4.15s-.09 2.48-1.19 5.48c-1.11 3.01-2.29 5.14-2.29 5.14s1.4-4.51 1.04-8.64c-.08-.95-.09-4.51-2.12-4.78-7.45-1-11.92-4.52-11.92-4.52-.87 2.44-4.03 5.03-5.16 6-.93.8-.53 3.73-.4 4.98l.95 5.69c-1.26-.66-3.57-1.5-4.32-2.76z" fill="url(#L)"/></g><path d="M52.77 26.3c.03-.02.07-.03.1-.04l2.28-.2c.04 0 .07.01.11.02.21.07.35.27.27.51s-.48.92-1.39 1c-.92.08-1.43-.52-1.54-.74-.13-.22-.03-.45.17-.55z" fill="#33251F"/><g fill="#1A1717"><ellipse transform="rotate(-4.997 59.034 22.713)" cx="59.06" cy="22.73" rx="1.6" ry="1.65"/><ellipse transform="rotate(-4.997 48.422 23.642)" cx="48.44" cy="23.66" rx="1.6" ry="1.65"/><path d="M56.44 19.98c.27-.43.92-1.07 2.28-1.19s2.11.4 2.45.78c.15.17.13.37.05.51-.08.12-.32.25-.61.18s-.86-.31-1.78-.23c-.92.09-1.44.42-1.72.54-.27.12-.54.04-.63-.07a.43.43 0 0 1-.04-.52zM45.82 20.91c.27-.43.92-1.07 2.28-1.19s2.11.4 2.45.78c.15.17.13.37.05.51-.08.12-.32.25-.61.18s-.86-.31-1.78-.23c-.92.09-1.44.42-1.72.54-.27.12-.54.04-.63-.07-.1-.13-.16-.34-.04-.52z"/></g><path d="M51.53 29.07c1.08.52 4.45.23 5.43-.47.56-.4 1.21.08 1.01.64-.19.55-1.93 1.93-3.52 2.07s-3.51-.93-3.8-1.43c-.29-.52.26-1.11.88-.81z" fill="#1A1717"/></g></g><g clip-path="url(#v)"><linearGradient id="M" x1="125.75" x2="139.5" y1="58.75" y2="58.75" gradientUnits="userSpaceOnUse"><stop stop-color="#DD1C00" offset=".086"/><stop stop-color="red" offset=".71"/></linearGradient><path d="M139.5 57.75s-3.55 1.28-4.75 2.25c-3.25 2.62-3.75 7.5-3.75 7.5s-2.56-13.83-5.25-17.5c0 0 4.52 4.33 6.62 5.5 2.25 1.25 7.13 2.25 7.13 2.25z" fill="url(#M)"/></g><g clip-path="url(#v)"><linearGradient id="N" x1="140.71" x2="151.24" y1="117.26" y2="117.26" gradientTransform="rotate(-13.952 -36.711 89.415)" gradientUnits="userSpaceOnUse"><stop stop-color="#DD1C00" offset=".086"/><stop stop-color="red" offset=".71"/></linearGradient><path d="M152.42 71.18s-2.15.87-3.14 2.06c-1.34 1.61-1.74 4.69-1.74 4.69s-3.16-6.6-6.66-9.52c0 0 2.93 1.71 5.31 2.06s6.23.71 6.23.71z" fill="url(#N)"/></g></svg>