<svg viewBox="0 0 128 128" xmlns="http://www.w3.org/2000/svg"><radialGradient id="a" cx="34.5" cy="42" r="64.2" gradientUnits="userSpaceOnUse"><stop stop-color="#E53935" offset=".5"/><stop stop-color="#C62828" offset="1"/></radialGradient><path d="M85.2 57.2c-15.7-8.5-31.6 7-31.6 7S58 42.4 42.4 33.8C30.6 27.3 12 29.3 5.3 53.3c-6.7 24 15.4 70.6 15.4 70.6l.3-.1c-.1 0 0 .2 0 .2s51-6.4 67.7-25 8.3-35.3-3.5-41.8z" fill="url(#a)"/><path d="M30.1 33.6c3.8 0 7.5 1 10.9 2.8 13.5 7.5 9.7 27 9.6 27.2l-2 9.6 7-6.8c.2-.1 9.1-8.7 19.6-8.7 3 0 5.9.7 8.5 2.2a21 21 0 0 1 11 14.9c1.3 7.1-1.6 14.8-8.3 22.3-13.9 15.5-54.5 22.3-63.8 23.7-4-8.7-20-46.5-14.4-66.6 5-18 15.9-20.6 22-20.6m0-3c-10 0-20.3 6-25 22.7-6.6 24 15.5 70.6 15.5 70.6l.3-.1v.2s51-6.4 67.7-25 8.3-35.3-3.5-41.8a20.6 20.6 0 0 0-10-2.5c-11.8 0-21.6 9.5-21.6 9.5S58 42.4 42.4 33.8c-3.6-2-7.9-3.2-12.3-3.2z" fill="#424242" opacity=".2"/><radialGradient id="b" cx="61.8" cy="13.7" r="38.5" gradientTransform="matrix(.9585 -.2796 .2615 .8963 17.6 18.2)" gradientUnits="userSpaceOnUse"><stop stop-color="#E53935" offset=".5"/><stop stop-color="#C62828" offset="1"/></radialGradient><path d="M104.4 4.5C94.1 7.5 94 21 94 21s-7.4-11.2-17.8-8.2c-7.8 2.3-15 11-7.5 24.2 7.4 13.2 36.7 23.6 36.7 23.6l.1-.1h.2s19-24.5 18.2-39.6C123 6 112.3 2.2 104.4 4.5z" fill="url(#b)"/><path d="M108.8 6.9c7 0 11.5 5.3 12 14.2.6 10.6-10.7 28.2-16.4 36-9-3.5-28-12.3-33.2-21.5-2.8-5-3.5-9.5-2-13.2a11.8 11.8 0 0 1 10.5-7.1c6.7 0 11.6 7.3 11.7 7.4l5.4 8.2.1-9.8c0-.1.3-11.3 8.4-13.7 1.1-.3 2.3-.5 3.5-.5m0-3c-1.5 0-3 .2-4.4.6C94.1 7.5 94 21 94 21s-5.7-8.7-14.2-8.7c-1.2 0-2.4.1-3.6.5-7.8 2.3-15 11-7.5 24.2 7.4 13.2 36.7 23.6 36.7 23.6l.1-.1h.2s19-24.5 18.2-39.6c-.6-12.4-8-17-15-17z" fill="#424242" opacity=".2"/></svg>