<svg viewBox="0 0 128 128" xmlns="http://www.w3.org/2000/svg" xmlns:xlink="http://www.w3.org/1999/xlink"><defs><path id="a" d="M4 4h120v120H4z"/></defs><clipPath id="b"><use xlink:href="#a"/></clipPath><g clip-path="url(#b)"><linearGradient id="c" x1="120" x2="120" y1="96.2" y2="129.4" gradientUnits="userSpaceOnUse"><stop stop-color="#FF8530" offset="0"/><stop stop-color="#FD7D2A" offset=".2"/><stop stop-color="#F86918" offset=".6"/><stop stop-color="#F24D00" offset="1"/></linearGradient><path d="M70.4 129.4V120c0-7.6 5-13.7 15-18a93.6 93.6 0 0 1 34.6-5.8h.1c24.6 0 49.5 8.2 49.5 23.8v9.4H70.4z" fill="url(#c)"/><path d="M120.1 97.7a90 90 0 0 1 34 6c6.4 3 14 8 14 16.3v7.9H72v-8c0-15.3 24.1-22.2 48.1-22.2h.1m0-3h-.1C94.6 94.7 69 102.2 69 120v10.9h102v-11c0-16.7-25.4-25.2-51-25.2z" fill="#DB5200"/><path d="M119.2 107.2c-4 0-7.3-3.2-7.3-7.1v-9h16.2v9c0 4-3.3 7.1-7.3 7.1h-1.6z" fill="#E49800"/><path d="M127 92v8c0 3.5-2.7 6.2-6.2 6.2h-1.6a6.2 6.2 0 0 1-6.3-6.1v-8h14.2m2-2h-18.2v10c0 4.5 3.7 8.1 8.3 8.1h1.6c4.6 0 8.3-3.6 8.3-8.1V90z" fill="#C78500"/><defs><path id="d" d="M74.3 4h91.3v91.3H74.3z"/></defs><clipPath id="e"><use xlink:href="#d"/></clipPath><g clip-path="url(#e)"><path d="M92.9 71.6c-5.2 0-9.5-4.6-9.5-10.2s4.3-10.2 9.5-10.2h54.3c5.3 0 9.5 4.6 9.5 10.2s-4.2 10.2-9.5 10.2H93z" fill="#E59600"/><path d="M147.2 52.4c4.6 0 8.4 4 8.4 9s-3.8 9-8.4 9H93c-4.6 0-8.3-4-8.3-9s3.7-9 8.3-9h54.3m0-2.3H93c-5.8 0-10.7 5-10.7 11.3S87 72.7 93 72.7h54.3c5.9 0 10.7-5 10.7-11.3s-4.8-11.3-10.7-11.3z" fill="#D18100"/><linearGradient id="f" x1="120" x2="120" y1="93.8" y2="12.8" gradientUnits="userSpaceOnUse"><stop stop-color="#FFB300" offset="0"/><stop stop-color="#FFB809" offset=".1"/><stop stop-color="#FFC21A" offset=".4"/><stop stop-color="#FFC825" offset=".7"/><stop stop-color="#FFCA28" offset="1"/></linearGradient><path d="M120 94.5A30 30 0 0 1 98 85a41 41 0 0 1-10.1-29 52 52 0 0 1 10-31.8c5.9-7.7 14-12.1 22.1-12.1s16.3 4.4 22.3 12.1a52 52 0 0 1 10 31.9c0 12-3.6 22-10.1 28.9a30.1 30.1 0 0 1-22.1 9.5z" fill="url(#f)"/><path d="M120 13.2a28 28 0 0 1 21.4 11.7 51 51 0 0 1 9.7 31.2 40 40 0 0 1-9.8 28 29 29 0 0 1-21.2 9.2 29 29 0 0 1-21.3-9.1A40 40 0 0 1 89 56c0-12 3.4-23.1 9.6-31.2A27.6 27.6 0 0 1 120 13.1m0-2.2c-17.3 0-33.4 18.4-33.4 45 0 26.5 16.5 39.6 33.4 39.6s33.3-13 33.3-39.5c0-26.6-16-45.1-33.3-45.1z" fill="#ED9E00"/><path d="M96.2 50.4l.4-.5.2-.3.3-.3.5-.4.5-.3.5-.4.6-.3.6-.3.7-.3c.5-.1 1-.3 1.6-.3l1.6-.2c.5 0 1 0 1.6.2l1.5.3a11.4 11.4 0 0 1 1.4.6l.6.3.5.4c.2 0 .3.2.5.3l.4.4c0 .2.2.2.3.3l.3.3.4.5a1.6 1.6 0 0 1-1.7 2.4h-.3l-.5-.3-.3-.1-.3-.1-.7-.2-.3-.2h-.5l-.2-.1h-.2l-.5-.2-1-.1h-2l-1 .1-.5.1h-.2l-.3.1-.4.1-.4.2h-.3l-.3.2H99l-.3.2-.6.3a1.6 1.6 0 0 1-1.9-2.4z" fill="#6D4C41"/><ellipse cx="103.7" cy="58.4" rx="4.9" ry="5.1" fill="#404040"/><path d="M142 52.8l-.6-.3-.3-.2h-.3l-.3-.2h-.3l-.4-.2-.4-.1h-.3l-.2-.1-.4-.1-1-.1h-2.1l-1 .1-.5.1h-.2l-.2.1-.4.1-.4.1-.7.3h-.3l-.3.2-.5.2-.2.1c-.8.3-1.7-.1-2-1-.2-.5-.1-1 .2-1.4l.4-.6.3-.3.3-.3.4-.3.5-.4c.2 0 .3-.2.5-.3l.6-.3.7-.3.7-.3 1.5-.3 1.6-.2c.6 0 1.1 0 1.6.2.6 0 1 .2 1.6.3a11.4 11.4 0 0 1 1.3.6l.6.3.6.3.4.4.5.4.3.3.2.2.4.5c.5.8.3 1.8-.4 2.3-.5.3-1 .3-1.5.1z" fill="#6D4C41"/><ellipse cx="136.4" cy="58.4" rx="4.9" ry="5.1" fill="#404040"/><path d="M123.9 67.6l-.3-.1h-7.4c-.6.3-1 1-.7 1.7s1.7 2.7 4.6 2.7 4.2-2 4.5-2.7c.3-.7 0-1.4-.7-1.6z" fill="#E59600"/><path d="M128.4 75.5a25.5 25.5 0 0 1-16.7 0c-1.8-1-3.7.6-3 2.3.8 1.6 6.5 5.4 11.4 5.4s10.5-3.8 11.2-5.4c.8-1.7-1-3.3-2.9-2.3z" fill="#795548"/><radialGradient id="g" cx="119.3" cy="20.4" r="36.8" gradientUnits="userSpaceOnUse"><stop stop-color="#6D4C41" offset="0"/><stop stop-color="#543930" offset="1"/></radialGradient><path d="M120 4c-18.2.1-20 8.8-20.6 8.7-5.2-1.1-12.4 3-16.4 10-10.2 18.1 2.3 32.4 2.6 34 1.3 8.3 2 9.7 2 9.7S88 55 94.2 47.7c4-4.7 7.7-15.1 7.7-15.1s11.1 4 19.5 9c7.2 4.2 11.6 9.7 11.6 9.7s1.4-4.2.3-8.6c-2.2-9.4-11-13.7-11-13.7s4.3 1.3 10.3 6.8c13.3 12 16.9 33.9 16.9 33.9a37.8 37.8 0 0 0 11.2-29.8A39 39 0 0 0 120 4z" fill="url(#g)"/><path d="M101.8 13.3c2.7-4.6 8.8-7 18.3-7h.2a36 36 0 0 1 30.5 14.2 41.8 41.8 0 0 1 7.6 19.9 36.8 36.8 0 0 1-9.6 26.4c.2 1 .6 2.3.6 3a38.2 38.2 0 0 0 11.2-30A39 39 0 0 0 120.3 4h-.2c-18.2 0-20.2 8.7-20.7 8.7l-2-.2C92 12.5 87.2 16 83.5 22c-11 17.8 1.8 33.3 2 34.9 1.4 8.2 2.1 9.7 2.1 9.7s0-2.6.9-6.1l-1-5c-.2-.4-11.7-16.5-2.2-32 3.3-5.3 7.6-8.6 12-8.6a8 8 0 0 1 1.7.2h.4c1.4 0 2-1.1 2.4-1.7z" fill="#3F2720"/></g></g><g clip-path="url(#b)"><linearGradient id="h" x1="9" x2="9" y1="96.2" y2="129.4" gradientUnits="userSpaceOnUse"><stop stop-color="#67B730" offset="0"/><stop stop-color="#64AF2E" offset=".2"/><stop stop-color="#5A9B2A" offset=".6"/><stop stop-color="#4D7D23" offset="1"/></linearGradient><path d="M-40.6 129.4V120c0-7.6 5-13.7 15-18A93.6 93.6 0 0 1 9 96.2h.1c24.6 0 49.5 8.2 49.5 23.8v9.4h-99.2z" fill="url(#h)"/><path d="M9.1 97.7a90 90 0 0 1 34 6c6.4 3 14 8 14 16.3v7.9H-39v-8c0-15.3 24.2-22.2 48.1-22.2h.1m0-3H9c-25.5 0-51.1 7.5-51.1 25.3v10.9H60v-11c0-16.7-25.4-25.2-51-25.2z" fill="#518626"/><path d="M8.2 107.2c-4 0-7.3-3.2-7.3-7.1v-9h16.2v9c0 4-3.3 7.1-7.3 7.1H8.2z" fill="#E49800"/><path d="M16 92v8c0 3.5-2.7 6.2-6.2 6.2H8.2a6.2 6.2 0 0 1-6.3-6.1v-8h14.2m2-2H-.1v10c0 4.5 3.7 8.1 8.3 8.1h1.6c4.6 0 8.3-3.6 8.3-8.1V90z" fill="#C78500"/><defs><path id="i" d="M-36.8 4.8h91.3v91.3h-91.3z"/></defs><clipPath id="j"><use xlink:href="#i"/></clipPath><g clip-path="url(#j)"><path d="M-18.3 72.4c-5.2 0-9.5-4.6-9.5-10.2S-23.5 52-18.3 52H36c5.3 0 9.5 4.6 9.5 10.2S41.3 72.4 36 72.4h-54.3z" fill="#E59600"/><path d="M36 53.1c4.6 0 8.4 4.1 8.4 9s-3.8 9.1-8.4 9.1h-54.3c-4.6 0-8.3-4-8.3-9s3.7-9 8.3-9H36m0-2.4h-54.3c-5.8 0-10.6 5.2-10.6 11.4s4.8 11.3 10.6 11.3H36c5.9 0 10.7-5 10.7-11.3S41.9 50.8 36 50.8z" fill="#D18100"/><linearGradient id="k" x1="8.9" x2="8.9" y1="94.6" y2="13.6" gradientUnits="userSpaceOnUse"><stop stop-color="#FFB300" offset="0"/><stop stop-color="#FFB809" offset=".1"/><stop stop-color="#FFC21A" offset=".4"/><stop stop-color="#FFC825" offset=".7"/><stop stop-color="#FFCA28" offset="1"/></linearGradient><path d="M8.9 95.3c-8.5 0-16.3-3.4-22.1-9.5a41 41 0 0 1-10-29A52 52 0 0 1-13.4 25C-7.3 17.3.7 13 8.9 13S25 17.3 31 25a52 52 0 0 1 10 31.8c0 12-3.5 22-10 29a30.2 30.2 0 0 1-22.2 9.5z" fill="url(#k)"/><path d="M8.9 14c7.8 0 15.6 4.3 21.3 11.7 6.3 8 9.7 19.1 9.7 31.1A40 40 0 0 1 30.2 85a29 29 0 0 1-21.3 9 29 29 0 0 1-21.3-9A40 40 0 0 1-22 56.8c0-12 3.4-23 9.7-31A27.6 27.6 0 0 1 8.9 14m0-2.3c-17.3 0-33.3 18.5-33.3 45.1 0 26.5 16.5 39.6 33.3 39.6s33.3-13 33.3-39.6-16-45-33.3-45z" fill="#ED9E00"/><path d="M-14 49.5l.4-.4.2-.3.3-.2.4-.3.5-.3a10.3 10.3 0 0 1 1-.5l.6-.2.6-.2 1.3-.2h1.4l1.4.2 1.3.4.6.3.5.3.5.3.4.3.4.3.3.4.3.3.2.2.4.6a1.3 1.3 0 0 1-1.7 1.9l-.2-.1-.5-.2-.2-.1-.2-.1-.6-.3-.3-.1-.4-.1-.2-.1h-.2l-.4-.2-.8-.1-.9-.2h-1.7l-.4.1h-.4l-.4.1-.3.1-.4.1h-.2l-.3.1-.2.1-.5.2c-.8.3-1.5-.1-1.8-.9-.1-.4 0-.9.3-1.2zm45.5 0l-.4-.4c0-.1 0-.2-.2-.3l-.3-.2-.4-.3-.4-.3a10.3 10.3 0 0 0-1-.5l-.6-.2-.6-.2-1.4-.2h-1.4l-1.3.2-1.3.4-.6.3-.6.3-.4.3-.5.3-.4.3-.3.4-.2.3-.2.2-.4.6a1.3 1.3 0 0 0 1.7 1.9l.2-.1.4-.2.2-.1.3-.1.5-.3.4-.1.3-.1.2-.1h.2l.4-.2.9-.1.8-.2H27l.4.1h.4l.4.1.3.1.3.1h.3l.2.1.3.1.5.2c.7.3 1.5-.1 1.8-.9 0-.4 0-.9-.3-1.2z" fill="#6D4C41"/><ellipse cx="-7.4" cy="59.2" rx="4.9" ry="5.1" fill="#404040"/><ellipse cx="25.2" cy="59.2" rx="4.9" ry="5.1" fill="#404040"/><path d="M12.7 68.4l-.3-.1H5c-.6.3-1 1-.6 1.7s1.7 2.7 4.5 2.7 4.2-2 4.5-2.7c.3-.7 0-1.4-.7-1.6z" fill="#E59600"/><path d="M15.7 78c-2.3 1.6-11.3 1.6-13.6 0-1.4-1-3-.4-2.7.9.3 1.2 5 4.7 9.5 4.7s9.1-3.5 9.5-4.7c.4-1.2-1.3-2-2.7-1z" fill="#795548"/><radialGradient id="l" cx="8.2" cy="21.2" r="36.8" gradientUnits="userSpaceOnUse"><stop stop-color="#6D4C41" offset="0"/><stop stop-color="#543930" offset="1"/></radialGradient><path d="M8.9 4.9c-18.3 0-20.1 8.7-20.6 8.6-5.3-1.1-12.5 3-16.5 10-10.2 18 2.3 32.4 2.6 34 1.4 8.2 3 13 3 13L-12 35.8a214.2 214.2 0 0 0 33.9 16.3s1.3-4.2.3-8.6c-2.3-9.4-3.8-8.8-3.8-8.8s-1.2-1.3 4.9 4.1c13.2 12 15 31.6 15 31.6a37.8 37.8 0 0 0 11.2-29.8A39 39 0 0 0 8.9 5z" fill="url(#l)"/><path d="M-9.4 14.1c2.7-4.6 8.8-7 18.3-7h.2a36 36 0 0 1 30.5 14.1 41.8 41.8 0 0 1 7.7 20 36.8 36.8 0 0 1-9.6 26.4l.6 3a39 39 0 0 0 11.2-30A39 39 0 0 0 9 4.8h-.2c-18.1 0-20.1 8.6-20.6 8.6l-2.1-.1c-5.3 0-10.1 3.3-13.9 9.3-11 17.8 1.8 33.3 2 35 1.5 8.2 3.2 13 3.2 13s.4-.7 1.1-4.2c-.2-1.7-1.9-8.4-2.2-10.3-.2-.3-11.8-16.4-2.3-31.9 3.3-5.3 7.6-8.6 12.1-8.6a8 8 0 0 1 1.6.2h.5c1.4 0 2-1.2 2.3-1.7z" fill="#3F2720"/></g></g><linearGradient id="m" x1="64.2" x2="64.2" y1="-4.4" y2="54.6" gradientUnits="userSpaceOnUse"><stop stop-color="#F48FB1" offset="0"/><stop stop-color="#EC407A" offset="1"/></linearGradient><path d="M64.2 70.9c-.6 0-1.3-.3-1.7-.7L58 65.8a312.6 312.6 0 0 1-26.8-29 22.7 22.7 0 0 1-3-20c3-7 9.2-11.3 16.5-11.3h1A22.6 22.6 0 0 1 59 10.3l2.6 1.8c.7.5 1.6.7 2.5.7s1.8-.2 2.6-.7l2.5-1.8c1.6-1.1 3.2-2.2 5-3 2.8-1.1 5.6-1.7 8.4-1.8h1c7.2 0 13.4 4.2 16.4 11.4a22 22 0 0 1-3 19.9 312.6 312.6 0 0 1-26.8 29L66 70.1c-.5.5-1.1.8-1.8.8z" fill="url(#m)"/><path d="M44.8 7h.9a21 21 0 0 1 12.5 4.6l2.7 1.8c1 .6 2.1 1 3.3 1s2.4-.4 3.4-1a56 56 0 0 0 2.6-1.8A21 21 0 0 1 82.8 7h.8a16 16 0 0 1 15.1 10.5A21 21 0 0 1 96 36a315.3 315.3 0 0 1-31.7 33.4 1 1 0 0 1-.7-.3l-4.3-4.4A314.9 314.9 0 0 1 32.5 36a20.8 20.8 0 0 1-2.9-18.5A16.1 16.1 0 0 1 44.9 7m38.9-3h-1c-3.1 0-6.1.8-9 2-3 1.2-5 3.1-7.7 4.8-.5.3-1.2.5-1.8.5s-1.2-.2-1.7-.5c-2.7-1.7-4.8-3.6-7.8-4.9a24 24 0 0 0-9-1.9h-.9c-7.9 0-14.6 4.5-18 12.3a23.7 23.7 0 0 0 3.2 21.3c5.2 7.9 24.3 26.5 31.3 33.6a4 4 0 0 0 5.6 0c7-7.1 26-25.7 31.3-33.6a24.2 24.2 0 0 0 3.2-21.3A19 19 0 0 0 83.6 4z" fill="#D92E67"/></svg>