<svg viewBox="0 0 128 128" xmlns="http://www.w3.org/2000/svg" xmlns:xlink="http://www.w3.org/1999/xlink"><path d="M124 80H4l12-12h94.3a4 4 0 0 1 2.9 1.2L124 80z" fill="#F06292"/><linearGradient id="a" x1="64" x2="64" y1="118" y2="124.4" gradientUnits="userSpaceOnUse"><stop stop-color="#FAFAFA" offset="0"/><stop stop-color="#F3F3F3" offset=".4"/><stop stop-color="#eee" offset="1"/></linearGradient><path fill="url(#a)" d="M4 120h120v4H4z"/><linearGradient id="b" x1="64" x2="64" y1="108" y2="120.9" gradientUnits="userSpaceOnUse"><stop stop-color="#FAFAFA" offset="0"/><stop stop-color="#F3F3F3" offset=".4"/><stop stop-color="#eee" offset="1"/></linearGradient><path fill="url(#b)" d="M4 112h120v8H4z"/><linearGradient id="c" x1="64" x2="64" y1="100" y2="112.9" gradientUnits="userSpaceOnUse"><stop stop-color="#FAFAFA" offset="0"/><stop stop-color="#F3F3F3" offset=".4"/><stop stop-color="#eee" offset="1"/></linearGradient><path fill="url(#c)" d="M4 104h120v8H4z"/><linearGradient id="d" x1="64" x2="64" y1="92" y2="104.9" gradientUnits="userSpaceOnUse"><stop stop-color="#FAFAFA" offset="0"/><stop stop-color="#F3F3F3" offset=".4"/><stop stop-color="#eee" offset="1"/></linearGradient><path fill="url(#d)" d="M4 96h120v8H4z"/><linearGradient id="e" x1="64" x2="64" y1="84" y2="96.9" gradientUnits="userSpaceOnUse"><stop stop-color="#FAFAFA" offset="0"/><stop stop-color="#F3F3F3" offset=".4"/><stop stop-color="#eee" offset="1"/></linearGradient><path fill="url(#e)" d="M4 88h120v8H4z"/><linearGradient id="f" x1="64" x2="64" y1="76" y2="88.9" gradientUnits="userSpaceOnUse"><stop stop-color="#FAFAFA" offset="0"/><stop stop-color="#F3F3F3" offset=".4"/><stop stop-color="#eee" offset="1"/></linearGradient><path fill="url(#f)" d="M4 80h120v8H4z"/><radialGradient id="g" cx="53.7" cy="79.4" r="64.3" gradientTransform="matrix(0 1 -1.4167 0 166.1 25.7)" gradientUnits="userSpaceOnUse"><stop stop-color="#E0E0E0" stop-opacity="0" offset="0"/><stop stop-color="#E0E0E0" stop-opacity=".9" offset=".9"/><stop stop-color="#E0E0E0" offset="1"/></radialGradient><path fill="url(#g)" opacity=".7" d="M4 80h120v44H4z"/><path fill="#E0E0E0" d="M4 120h120v1H4zm0-8h120v1H4zm0-8h120v1H4zm0-8h120v1H4zm0-8h120v1H4z" opacity=".4"/><linearGradient id="h" x1="36" x2="36" y1="72" y2="84.9" gradientUnits="userSpaceOnUse"><stop stop-color="#FAFAFA" offset="0"/><stop stop-color="#F3F3F3" offset=".4"/><stop stop-color="#eee" offset="1"/></linearGradient><path fill="url(#h)" d="M16 76h40v8H16z"/><radialGradient id="i" cx="62.3" cy="66.3" r="3.1" gradientTransform="scale(-1 1) rotate(-6.6 -55 907.4)" gradientUnits="userSpaceOnUse"><stop stop-color="#FFA000" offset="0"/><stop stop-color="#FF8F00" offset=".7"/><stop stop-color="#FF8F00" offset="1"/></radialGradient><circle cx="35.8" cy="56.9" r="1.8" fill="url(#i)"/><radialGradient id="j" cx="62.2" cy="47.9" r="2.6" gradientTransform="scale(-1 1) rotate(-6.6 -55 907.4)" gradientUnits="userSpaceOnUse"><stop stop-color="#FFD740" offset="0"/><stop stop-color="#FFD43C" offset=".2"/><stop stop-color="#FFCB2F" offset=".4"/><stop stop-color="#FFBD1A" offset=".6"/><stop stop-color="#FFAB00" offset=".8"/><stop stop-color="#FFAB00" offset="1"/></radialGradient><circle cx="37.5" cy="42.1" r="1.2" fill="url(#j)"/><radialGradient id="k" cx="62.2" cy="49.8" r="15.4" gradientTransform="scale(-1 1) rotate(-6.6 -55 907.4)" gradientUnits="userSpaceOnUse"><stop stop-color="#FFD740" offset="0"/><stop stop-color="#FFD43C" offset=".2"/><stop stop-color="#FFCB2F" offset=".4"/><stop stop-color="#FFBD1A" offset=".6"/><stop stop-color="#FFAB00" offset=".8"/><stop stop-color="#FFAB00" offset="1"/></radialGradient><path d="M31 46.2c.6-5.3 6.5-4 6.5-4s6 0 5.3 5.3 1 8 1 8l-15.4-1.9s2-2.2 2.6-7.4z" fill="url(#k)"/><path d="M27.9 55.4l15.9 1.8c.5.1 1-.3 1-.7 0-.5-.3-1-.8-1l-16-1.9c-.4 0-.9.3-1 .8 0 .5.4 1 .9 1z" fill="#FFD740"/><radialGradient id="l" cx="62.3" cy="63.3" r="11.5" gradientTransform="scale(-1 1) rotate(-6.6 -55 907.4)" gradientUnits="userSpaceOnUse"><stop stop-color="#FFD740" offset="0"/><stop stop-color="#FFD43C" offset=".2"/><stop stop-color="#FFCB2F" offset=".5"/><stop stop-color="#FFBD1A" offset=".8"/><stop stop-color="#FFAB00" offset="1"/></radialGradient><path d="M27.9 55.4l15.9 1.8c.5.1 1-.3 1-.7 0-.5-.3-1-.8-1l-16-1.9c-.4 0-.9.3-1 .8 0 .5.4 1 .9 1z" fill="url(#l)"/><path d="M37.5 41h.1c.7 0 1.1.6 1 1.3 1.7.4 4.7 1.5 4.2 5.3-.6 5.2 1 7.8 1 7.8h.2c.5.1.8.6.8 1 0 .5-.4.9-.9.9h-.1l-6.3-.8v.6c0 1-.9 1.6-1.7 1.6h-.3c-1-.1-1.6-1-1.5-2 0-.2 0-.4.2-.6l-6.4-.7a.9.9 0 0 1-.7-1c0-.4.4-.8.9-.8h.4s2-2.2 2.6-7.4c.4-3.6 3.3-4.2 5-4.2h.3c0-.6.6-1 1.2-1m0-1c-.8 0-1.5.4-2 1-3.1.2-5.1 2-5.5 5-.4 3.8-1.6 5.8-2.1 6.6a1.9 1.9 0 0 0-.1 3.8l5.2.6c0 1.4 1 2.5 2.4 2.7h.4a3 3 0 0 0 2.7-2l5.2.5h.2a1.9 1.9 0 0 0 .5-3.7 15 15 0 0 1-.6-6.8c.4-3-1.2-5.3-4.2-6.2-.3-.8-1-1.4-1.9-1.5h-.2z" fill="#424242" opacity=".2"/><path fill="#E0E0E0" d="M4 80h120v1H4z" opacity=".4"/><linearGradient id="m" x1="52" x2="72" y1="96" y2="96" gradientUnits="userSpaceOnUse"><stop stop-color="#BDBDBD" offset="0"/><stop stop-color="#BDBDBD" stop-opacity="0" offset="1"/></linearGradient><path fill="url(#m)" d="M52 68h20v56H52z"/><defs><path id="n" d="M113.2 69.2a4 4 0 0 0-2.9-1.2H16L4 80v44h120V80l-10.8-10.8z"/></defs><clipPath id="o"><use xlink:href="#n"/></clipPath><linearGradient id="p" x1="-4" x2="8" y1="96" y2="96" gradientTransform="matrix(-1 0 0 1 12 0)" gradientUnits="userSpaceOnUse"><stop stop-color="#BDBDBD" offset="0"/><stop stop-color="#BDBDBD" stop-opacity="0" offset="1"/></linearGradient><path clip-path="url(#o)" fill="url(#p)" d="M4 124h12V68H4z"/><radialGradient id="q" cx="36" cy="68.1" r="60.7" gradientUnits="userSpaceOnUse"><stop stop-color="#FAFAFA" offset="0"/><stop stop-color="#eee" offset=".5"/><stop stop-color="#E0E0E0" offset="1"/></radialGradient><path fill="url(#q)" d="M36 68L12 88v36h48V88z"/><defs><path id="r" d="M16 37.7v81.2h40V37.7H16zm30 28H26V51a10 10 0 0 1 20 0v14.7z"/></defs><clipPath id="s"><use xlink:href="#r"/></clipPath><linearGradient id="t" x1="36" x2="36" y1="106.9" y2="119.7" gradientUnits="userSpaceOnUse"><stop stop-color="#FAFAFA" offset="0"/><stop stop-color="#F3F3F3" offset=".4"/><stop stop-color="#eee" offset="1"/></linearGradient><path clip-path="url(#s)" fill="url(#t)" d="M16 110.9h40v8H16z"/><linearGradient id="u" x1="36" x2="36" y1="98.9" y2="111.7" gradientUnits="userSpaceOnUse"><stop stop-color="#FAFAFA" offset="0"/><stop stop-color="#F3F3F3" offset=".4"/><stop stop-color="#eee" offset="1"/></linearGradient><path clip-path="url(#s)" fill="url(#u)" d="M16 102.9h40v8H16z"/><linearGradient id="v" x1="36" x2="36" y1="90.9" y2="103.7" gradientUnits="userSpaceOnUse"><stop stop-color="#FAFAFA" offset="0"/><stop stop-color="#F3F3F3" offset=".4"/><stop stop-color="#eee" offset="1"/></linearGradient><path clip-path="url(#s)" fill="url(#v)" d="M16 94.9h40v8H16z"/><linearGradient id="w" x1="36" x2="36" y1="82.9" y2="95.7" gradientUnits="userSpaceOnUse"><stop stop-color="#FAFAFA" offset="0"/><stop stop-color="#F3F3F3" offset=".4"/><stop stop-color="#eee" offset="1"/></linearGradient><path clip-path="url(#s)" fill="url(#w)" d="M16 86.9h40v8H16z"/><linearGradient id="x" x1="36" x2="36" y1="74.9" y2="87.7" gradientUnits="userSpaceOnUse"><stop stop-color="#FAFAFA" offset="0"/><stop stop-color="#F3F3F3" offset=".4"/><stop stop-color="#eee" offset="1"/></linearGradient><path clip-path="url(#s)" fill="url(#x)" d="M16 78.9h40v8H16z"/><linearGradient id="y" x1="36" x2="36" y1="66.9" y2="79.7" gradientUnits="userSpaceOnUse"><stop stop-color="#FAFAFA" offset="0"/><stop stop-color="#F3F3F3" offset=".4"/><stop stop-color="#eee" offset="1"/></linearGradient><path clip-path="url(#s)" fill="url(#y)" d="M16 70.9h40v8H16z"/><linearGradient id="z" x1="36" x2="36" y1="58.9" y2="71.7" gradientUnits="userSpaceOnUse"><stop stop-color="#FAFAFA" offset="0"/><stop stop-color="#F3F3F3" offset=".4"/><stop stop-color="#eee" offset="1"/></linearGradient><path clip-path="url(#s)" fill="url(#z)" d="M16 62.9h40v8H16z"/><linearGradient id="A" x1="36" x2="36" y1="50.9" y2="63.7" gradientUnits="userSpaceOnUse"><stop stop-color="#FAFAFA" offset="0"/><stop stop-color="#F3F3F3" offset=".4"/><stop stop-color="#eee" offset="1"/></linearGradient><path clip-path="url(#s)" fill="url(#A)" d="M16 54.9h40v8H16z"/><linearGradient id="B" x1="36" x2="36" y1="42.9" y2="55.7" gradientUnits="userSpaceOnUse"><stop stop-color="#FAFAFA" offset="0"/><stop stop-color="#F3F3F3" offset=".4"/><stop stop-color="#eee" offset="1"/></linearGradient><path clip-path="url(#s)" fill="url(#B)" d="M16 46.9h40v8H16z"/><linearGradient id="C" x1="36" x2="36" y1="34.9" y2="47.7" gradientUnits="userSpaceOnUse"><stop stop-color="#FAFAFA" offset="0"/><stop stop-color="#F3F3F3" offset=".4"/><stop stop-color="#eee" offset="1"/></linearGradient><path clip-path="url(#s)" fill="url(#C)" d="M16 38.9h40v8H16z"/><linearGradient id="D" x1="36" x2="36" y1="26.9" y2="39.7" gradientUnits="userSpaceOnUse"><stop stop-color="#FAFAFA" offset="0"/><stop stop-color="#F3F3F3" offset=".4"/><stop stop-color="#eee" offset="1"/></linearGradient><path clip-path="url(#s)" fill="url(#D)" d="M16 30.9h40v8H16z"/><defs><path id="E" d="M36 72L12 92v32h48V92z"/></defs><clipPath id="F"><use xlink:href="#E"/></clipPath><linearGradient id="G" x1="36" x2="36" y1="116" y2="128.9" gradientUnits="userSpaceOnUse"><stop stop-color="#FAFAFA" offset="0"/><stop stop-color="#F3F3F3" offset=".4"/><stop stop-color="#eee" offset="1"/></linearGradient><path clip-path="url(#F)" fill="url(#G)" d="M12 120h48v8H12z"/><linearGradient id="H" x1="36" x2="36" y1="108" y2="120.9" gradientUnits="userSpaceOnUse"><stop stop-color="#FAFAFA" offset="0"/><stop stop-color="#F3F3F3" offset=".4"/><stop stop-color="#eee" offset="1"/></linearGradient><path clip-path="url(#F)" fill="url(#H)" d="M12 112h48v8H12z"/><linearGradient id="I" x1="36" x2="36" y1="100" y2="112.9" gradientUnits="userSpaceOnUse"><stop stop-color="#FAFAFA" offset="0"/><stop stop-color="#F3F3F3" offset=".4"/><stop stop-color="#eee" offset="1"/></linearGradient><path clip-path="url(#F)" fill="url(#I)" d="M12 104h48v8H12z"/><linearGradient id="J" x1="36" x2="36" y1="92" y2="104.9" gradientUnits="userSpaceOnUse"><stop stop-color="#FAFAFA" offset="0"/><stop stop-color="#F3F3F3" offset=".4"/><stop stop-color="#eee" offset="1"/></linearGradient><path clip-path="url(#F)" fill="url(#J)" d="M12 96h48v8H12z"/><linearGradient id="K" x1="36" x2="36" y1="84" y2="96.9" gradientUnits="userSpaceOnUse"><stop stop-color="#FAFAFA" offset="0"/><stop stop-color="#F3F3F3" offset=".4"/><stop stop-color="#eee" offset="1"/></linearGradient><path clip-path="url(#F)" fill="url(#K)" d="M12 88h48v8H12z"/><linearGradient id="L" x1="36" x2="36" y1="76" y2="88.9" gradientUnits="userSpaceOnUse"><stop stop-color="#FAFAFA" offset="0"/><stop stop-color="#F3F3F3" offset=".4"/><stop stop-color="#eee" offset="1"/></linearGradient><path clip-path="url(#F)" fill="url(#L)" d="M12 80h48v8H12z"/><linearGradient id="M" x1="36" x2="36" y1="68" y2="80.9" gradientUnits="userSpaceOnUse"><stop stop-color="#FAFAFA" offset="0"/><stop stop-color="#F3F3F3" offset=".4"/><stop stop-color="#eee" offset="1"/></linearGradient><path clip-path="url(#F)" fill="url(#M)" d="M12 72h48v8H12z"/><path d="M36 41a10 10 0 0 1 10 10v14.7H26V51a10 10 0 0 1 10-10m0-1c-6 0-11 5-11 11v15.7h22V51c0-6-5-11-11-11z" fill="#424242" opacity=".2"/><radialGradient id="N" cx="93.2" cy="6.3" r="42.8" gradientUnits="userSpaceOnUse"><stop stop-color="#F48FB1" offset="0"/><stop stop-color="#EF5A8C" offset=".5"/><stop stop-color="#EC407A" offset=".7"/><stop stop-color="#EC407A" offset="1"/></radialGradient><path d="M95.3 46.4l-2-2.7C84 32 77.8 24.2 79.3 16a11.7 11.7 0 0 1 13.6-9.7c3.7.6 7 3 8.9 6A13 13 0 0 1 112 9.7a11.7 11.7 0 0 1 9.7 13.8c-1.4 8-9.8 13.4-22.5 21.3l-2.8 2c-.4.2-1 .1-1.2-.3z" fill="url(#N)"/><radialGradient id="O" cx="73.2" cy="40.5" r="27.6" gradientUnits="userSpaceOnUse"><stop stop-color="#F48FB1" offset="0"/><stop stop-color="#EF6090" offset=".4"/><stop stop-color="#EC407A" offset=".8"/><stop stop-color="#EC407A" offset="1"/></radialGradient><path d="M71.2 63.8L69.9 62c-6.1-7.3-10-12.3-9.3-17.4.7-4.3 4.4-7 8.6-6.4 2.4.4 4.5 1.8 5.7 3.8a8.3 8.3 0 0 1 6.6-2c4.2.7 7 4.5 6.4 8.7-.8 5.2-6.1 8.7-14.2 14L72 63.8c-.3.2-.6.1-.8-.1z" fill="url(#O)"/><radialGradient id="P" cx="34.8" cy="10.8" r="33.8" gradientUnits="userSpaceOnUse"><stop stop-color="#F48FB1" offset="0"/><stop stop-color="#EF5A8C" offset=".6"/><stop stop-color="#EC407A" offset="1"/></radialGradient><path d="M59.6 38l-4.2-2c-1-.5-1.6-1.2-2-2L38.8 5.4c-1-1.9-4.5-1.9-5.5 0L18.6 34c-.4.8-1.1 1.5-2 2l-4.2 2c-.9.7-.2 2 1.1 2h45c1.3 0 2-1.3 1-2z" fill="url(#P)"/><path d="M48 124H24v-16a12 12 0 1 1 24 0v16z" fill="#4FC3F7"/><path d="M36 98a10 10 0 0 1 10 10v14H26v-14a10 10 0 0 1 10-10m0-2a12 12 0 0 0-12 12v16h24v-16a12 12 0 0 0-12-12z" fill="#424242" opacity=".2"/><radialGradient id="Q" cx="35.5" cy="57.4" r="32" gradientUnits="userSpaceOnUse"><stop stop-color="#F48FB1" offset="0"/><stop stop-color="#EF5A8C" offset=".6"/><stop stop-color="#EC407A" offset="1"/></radialGradient><path d="M62 85.7l-24-20a3 3 0 0 0-4 0l-24 20a3 3 0 0 0 4 4.6L36 72l22 18.4a3 3 0 0 0 4.3-.4 3 3 0 0 0-.4-4.2z" fill="url(#Q)"/><path d="M90.8 9.2l1.6.1a10 10 0 0 1 6.8 4.7 3 3 0 0 0 4.5.8 10 10 0 0 1 7.9-2.2c2.4.4 4.5 1.7 5.8 3.6s1.9 4.3 1.4 6.6c-1 6.7-8.3 11.5-21 19.4h-.2l-1 .8-.8-1-.1-.2C86.3 30.1 81 23.2 82.2 16.6a8.7 8.7 0 0 1 8.6-7.4m0-3c-5.7 0-10.6 4-11.6 9.9-1.4 8 4.8 16 14.2 27.6l2 2.7c0 .3.4.4.6.4l.6-.1 2.7-2c12.8-7.9 21.1-13.2 22.5-21.3a11.7 11.7 0 0 0-11.7-14c-3 0-6 1.2-8.3 3a13 13 0 0 0-11-6.2zM68 41.1h.8c1.4.3 2.8 1.2 3.6 2.5a3 3 0 0 0 2.5 1.4 3 3 0 0 0 2-.7A5.3 5.3 0 0 1 81 43c2.6.4 4.3 2.7 3.9 5.3-.6 3.7-5.2 7-12.8 11.7-5.7-6.8-9.1-11.2-8.6-15a4.5 4.5 0 0 1 4.5-3.9m0-3a7.5 7.5 0 0 0-7.4 6.5c-.8 5.1 3.2 10 9.3 17.4l1.3 1.8a.6.6 0 0 0 .8 0l1.7-1.2c8-5.2 13.4-8.7 14.2-13.9a7.5 7.5 0 0 0-7.6-8.7c-2 0-3.9.7-5.4 2a8.3 8.3 0 0 0-6.9-3.9z" fill="#424242" opacity=".2"/><path d="M113.2 69.2a4 4 0 0 0-2.9-1.2H56V40h2.5c1.3 0 2-1.3 1-2l-4.1-2c-1-.5-1.6-1.2-2-2L38.8 5.4C38.2 4.4 37 4 36 4s-2.2.5-2.8 1.4L18.6 34c-.4.8-1.1 1.5-2 2l-4.2 2c-.9.7-.2 2 1.1 2H16v28L4 80v44h120V80l-10.8-10.8zM121 121H7V81.2l9-9 .4-.3.8-.9h1.9L19 40c0-1.4 2-4 2.3-4.6L35.8 7a1 1 0 0 1 .4 0l14.5 28.3s1 1.7 2.3 4.7v31h57.4c.2 0 .5.1.7.3l10 10V121z" fill="#424242" opacity=".2"/><defs><path id="R" d="M87.4 102A16.8 16.8 0 0 0 84 91.5c-2-2.4-3.9-3.4-3.9-3.4s-2 1-4 3.4l-.6 1a16.8 16.8 0 0 0-2.8 9.5v13.9h14.8V102z"/></defs><clipPath id="S"><use xlink:href="#R"/></clipPath><g clip-path="url(#S)"><path fill="#673AB7" d="M78 91.7v1.5l1-1.5z"/><path d="M75.6 92.1l-.2.2c-.6 1-1.2 2-1.7 3.3h1.9v-3.5z" fill="#4DD0E1"/><path d="M76.8 95.7l1.3-2.5v-1.6h-2.2l-.3.5v3.6h1.2z" fill="#26C6DA"/><path fill="#4DD0E1" d="M76.9 109.2l-1.3 4H78v-4z"/><path d="M77.5 107.4l-.6 1.8H78V108l-.6-.6z" fill="#A5D6A7"/><path d="M78 108v1.2h1.4l-.3-.3-1-1z" fill="#FFEB3B"/><path d="M75.3 98.4l1.5-2.7h-3.1c-.5 1.3-.9 2.8-1 4.5h1a4 4 0 0 1 1.6-1.8z" fill="#80DEEA"/><path d="M73.5 101.4l.3-1.2h-1.2v3.3l1-1.9v-.2z" fill="#3F51B5"/><path d="M75.6 105.5l-.7-.8-.5-.6-.3.6-.6 1.3-1 2v1.2h2.1l1-2.3.3-.9-.3-.4z" fill="#64B5F6"/><path fill="#29B6F6" d="M75.6 113.2l-1 2.8h3.5v-2.8z"/><path fill="#81D4FA" d="M72.5 109.2v5.2l.5-1.2 1.6-4z"/><path fill="#F44336" d="M80 89.7l-1 2h1z"/><path d="M79 91.7l-1 1.5-1.2 2.5-1.5 2.7c.5-.3 1.1-.5 1.8-.5h.3l.7-1.4.4-.8 1.4-3v-1h-1z" fill="#C5E1A5"/><path d="M73.5 101.6l-1 2v4.4l1-2 .6-1.3.3-.6a5 5 0 0 1-.8-2.5z" fill="#1E88E5"/><path fill="#FB8C00" d="M72.5 114.5v1.5-1.6z"/><path fill="#80DEEA" d="M75.6 113.2H73l-.5 1.2v1.6h2.2z"/><linearGradient id="T" x1="73" x2="77.5" y1="109.6" y2="109.6" gradientUnits="userSpaceOnUse"><stop stop-color="#FFC107" offset="0"/><stop stop-color="#FFF59D" offset="1"/></linearGradient><path d="M76 106l-.4 1-1 2.2-1.6 4h2.6l1.3-4 .6-1.8L76 106z" fill="url(#T)"/><path fill="#673AB7" d="M82 91.7h-1l1 1.5zm-2.1 3.9h.2v-3l-.1-.1v.2l-.1 3zm.1-3.3v-.6 1-.2zm.1 3.3z"/><path d="M86.3 95.7a16 16 0 0 0-1.7-3.4l-.2-.2v3.6h2z" fill="#4DD0E1"/><path d="M82 93.2l1.2 2.4h1.2v-3.5l-.3-.5h-2.2v1.6z" fill="#26C6DA"/><path fill="#2196F3" d="M80.1 95.7h-.2l.1.2zm.1.6v-.6z"/><path fill="#2196F3" d="M80.2 96.3v-.6H80l-.1.2zm-.4 2.7v-.3z"/><path fill="#4DD0E1" d="M82 109.2v4h2.4l-1.3-4z"/><path d="M82 108v1.2h1l-.6-1.8-.6.6z" fill="#A5D6A7"/><path d="M78 89.4l-2 2v.2h3l1-2V88s-.8.4-2 1.4zm6 2.1a15 15 0 0 0-2-2.1c-1.2-1-2-1.4-2-1.4v1.6l1 2h3v-.1z" fill="#B39DDB"/><path fill="#009688" d="M80 89.7v-1.4zm0 0v-.1zm0 0v2zm0-.1z"/><path fill="#FFEB3B" d="M80.6 109.2l-.2.2-.4.4-.4-.4-.2-.2h-1.3v4h3.8v-4z"/><path fill="#80CBC4" d="M80.5 113.2H78v2.8h3.8v-2.8z"/><path d="M81 108.9l-.4.3h1.3V108l-1 .9z" fill="#FFEB3B"/><path d="M83.2 95.7l1.5 2.7c.7.4 1.2 1 1.5 1.8h1.2a25 25 0 0 0-1-4.5h-3.2z" fill="#80DEEA"/><path d="M86.5 106l-.6-1.3-.3-.6-.4.6-.8.8c0 .2-.2.3-.3.5l.4 1 .9 2.2h2V108l-.9-2z" fill="#64B5F6"/><path d="M86.5 101.4v.2l1 2V102l-.1-1.8h-1.2l.3 1.2z" fill="#3F51B5"/><path fill="#29B6F6" d="M82 113.2v2.8h3.4l-1-2.8z"/><path fill="#81D4FA" d="M85.4 109.2l1.6 4 .5 1.2v-5.2z"/><path fill="#F44336" d="M80 92.5v.2-1 .6zm0 0v-.8.6zm1-.8l-1-2v2zm-1-2.1zm0 2.1v-2zm0 0v-2 2z"/><path d="M83.2 95.7L82 93.2l-.8-1.6h-1v1l1.4 3 .4.9.7 1.4h.3c.7 0 1.3.2 1.8.5l-1.5-2.7z" fill="#C5E1A5"/><path d="M86.5 101.6c0 .9-.4 1.7-1 2.5l.4.6.6 1.3 1 2v-4.4l-1-2z" fill="#1E88E5"/><path fill="#FB8C00" d="M87.5 114.4v1.6-1.5z"/><path fill="#80DEEA" d="M87 113.2h-2.6l1 2.8h2v-1.6z"/><path fill="#FFEA00" d="M79.8 98.6v.1zm.4.4v-.4z"/><linearGradient id="U" x1="82.5" x2="87" y1="109.6" y2="109.6" gradientUnits="userSpaceOnUse"><stop stop-color="#FFC107" offset="0"/><stop stop-color="#FFF59D" offset="1"/></linearGradient><path d="M85.4 109.2l-1-2.3-.3-.9H84l-1.5 1.4.6 1.8 1.4 4H87l-1.6-4z" fill="url(#U)"/><path fill="#F44336" d="M79.9 95.7v.6zm-.1 2.9v-2.3zm.1-3zm.1.3l-.1-.2v.6zm.2 2.7v-2.3z"/><path d="M82 96.5l-.5-.8-1.4-3v5.9-2.3l-.1-.4-.1.3v2.4-6l-1.4 3-.4.9-.7 1.4.7.1a3.8 3.8 0 0 1 1.7 1v-.3.3l.2.2.2-.2.5-.4.3-.2a3.8 3.8 0 0 1 1.6-.5l-.7-1.4z" fill="#26C6DA"/><path d="M78 98h-.6l-.3.6-.8 1.6h2l.6-1.6v-.2l-.8-.4z" fill="#FF8A80"/><path d="M78 100.2h-1.7l-.7 1.5-1.2 2.4.4.6.8.8c0 .2.2.3.3.5l.5-1.3 1.9-4.5H78z" fill="#F06292"/><path d="M75.6 100.2h-1.8c-.2.4-.3.8-.3 1.3v.2c0 .8.4 1.6 1 2.4l1-2.4.8-1.5h-.7z" fill="#FF80AB"/><path d="M77 97.9c-.6 0-1.2.2-1.7.4-.7.4-1.2 1-1.5 1.9h2.5l.8-1.6.3-.7h-.3z" fill="#F8BBD0"/><path d="M78 104.7h-1.6L76 106h.1l1.5 1.4.4-1.4.2-.4.3-1H78z" fill="#FF9800"/><path fill="#F06292" d="M80.2 100.4v-.2h-.3l-.1.2-1.4 4.3h3.2z"/><path fill="#FF80AB" d="M79.8 100.2h-1.5l-1.8 4.5h1.9l1.4-4.3v-.2z"/><path d="M82 106v-.4l-.4-1h-3.2l-.3 1-.2.4-.4 1.4.6.6 1 .9.9.9 1-1 1-.8.5-.6-.4-1.4z" fill="#EC407A"/><path d="M83 98.6l-.4-.7-.7.1-.9.4v.2l.7 1.6h2l-.8-1.6z" fill="#FF8A80"/><path d="M84.4 101.7l-.7-1.5h-2l1.9 4.5.5 1.3.3-.5.7-.8.5-.6-1.2-2.4z" fill="#F06292"/><path d="M86.2 100.2h-2.5l.7 1.5 1.2 2.4a5 5 0 0 0 .8-2.5v-.2c0-.4 0-.8-.2-1.2z" fill="#FF80AB"/><path d="M84.7 98.4c-.5-.3-1.1-.5-1.8-.5h-.3l.4.7.7 1.6h2.6c-.3-.8-.9-1.4-1.6-1.8z" fill="#F8BBD0"/><path fill="#FF80AB" d="M81.7 100.2h-1.5v.2l1.4 4.3h1.9z"/><path d="M83.5 104.7h-1.9l.3 1 .2.3.4 1.4c.6-.4 1-1 1.5-1.4l-.5-1.3z" fill="#FF9800"/><path d="M81 98.6v-.2l-.3.2-.5.5-.2.1-.2-.1-.8-.7v.2l-.7 1.6h3.4l-.6-1.6z" fill="#FF5722"/><linearGradient id="V" x1="80" x2="80" y1="88" y2="98.1" gradientUnits="userSpaceOnUse"><stop stop-color="#F48FB1" offset="0"/><stop stop-color="#FCE4EC" offset="1"/></linearGradient><path d="M80 99.2c.8-3.7 2.6-6.2 4-7.6-2-2.5-4-3.5-4-3.5s-2 1-4 3.5c1.4 1.4 3.2 3.9 4 7.6z" fill="url(#V)"/></g><path d="M88 100.8a17.3 17.3 0 0 0-3.6-10.2 14 14 0 0 0-4.1-3.6H80l-.3.1a14.2 14.2 0 0 0-4.8 4.5 17.3 17.3 0 0 0-2.9 9.3V116h16v-15zm-8-12.6c.6.3 2 1.3 3.3 2.9a16.4 16.4 0 0 0-3.3 7c-.8-3.2-2.1-5.5-3.3-7a14 14 0 0 1 3.3-3zM73.2 102v-.6c0-3.5 1-6.6 2.7-9.2l.1-.2a16 16 0 0 1 3.5 10.3v12.5h-6.3V102zm7.3 12.7V102c.1-5 2-8.1 3.4-10l.2.3c1.8 2.6 2.7 5.7 2.7 9.2v13.4h-6.3z" fill="#FAFAFA"/><defs><path id="W" d="M111.4 102a16.8 16.8 0 0 0-3.5-10.5c-2-2.4-4-3.4-4-3.4s-1.9 1-3.8 3.4l-.7 1a16.8 16.8 0 0 0-2.8 9.5v13.9h14.8V102z"/></defs><clipPath id="X"><use xlink:href="#W"/></clipPath><g clip-path="url(#X)"><path fill="#673AB7" d="M102 91.7v1.5l1-1.5z"/><path d="M99.6 92.1l-.2.2c-.6 1-1.2 2-1.7 3.3h1.9v-3.5z" fill="#4DD0E1"/><path d="M100.8 95.7l1.3-2.5v-1.6h-2.2l-.3.5v3.6h1.2z" fill="#26C6DA"/><path fill="#4DD0E1" d="M100.9 109.2l-1.3 4h2.5v-4z"/><path d="M101.5 107.4l-.6 1.8h1.2V108l-.6-.6z" fill="#A5D6A7"/><path d="M102 108v1.2h1.4l-.3-.3-1-1z" fill="#FFEB3B"/><path d="M99.3 98.4l1.5-2.7h-3.1c-.5 1.3-.9 2.8-1 4.5h1a4 4 0 0 1 1.6-1.8z" fill="#80DEEA"/><path d="M97.5 101.4l.3-1.2h-1.2v3.3l1-1.9v-.2z" fill="#3F51B5"/><path d="M99.6 105.5l-.7-.8-.5-.6-.3.6-.6 1.3-1 2v1.2h2.1l1-2.3.3-.9-.3-.4z" fill="#64B5F6"/><path fill="#29B6F6" d="M99.6 113.2l-1 2.8h3.5v-2.8z"/><path fill="#81D4FA" d="M96.5 109.2v5.2l.5-1.2 1.6-4z"/><path fill="#F44336" d="M104 89.7l-1 2h1z"/><path d="M103 91.7l-1 1.5-1.2 2.5-1.5 2.7c.5-.3 1.1-.5 1.8-.5h.3l.7-1.4.4-.8 1.4-3v-1h-1z" fill="#C5E1A5"/><path d="M97.5 101.6l-1 2v4.4l1-2 .6-1.3.3-.6a5 5 0 0 1-.8-2.5z" fill="#1E88E5"/><path fill="#FB8C00" d="M96.5 114.5v1.5-1.6z"/><path fill="#80DEEA" d="M99.6 113.2H97l-.5 1.2v1.6h2.2z"/><linearGradient id="Y" x1="97" x2="101.5" y1="109.6" y2="109.6" gradientUnits="userSpaceOnUse"><stop stop-color="#FFC107" offset="0"/><stop stop-color="#FFF59D" offset="1"/></linearGradient><path d="M100 106l-.4 1-1 2.2-1.6 4h2.6l1.3-4 .6-1.8-1.5-1.4z" fill="url(#Y)"/><path fill="#673AB7" d="M106 91.7h-1l1 1.5zm-2.1 3.9h.2v-3l-.1-.1v.2l-.1 3zm.1-3.3v-.6 1-.2zm.1 3.3z"/><path d="M110.3 95.7a16 16 0 0 0-1.7-3.4l-.2-.2v3.6h2z" fill="#4DD0E1"/><path d="M106 93.2l1.2 2.4h1.2v-3.5l-.3-.5h-2.2v1.6z" fill="#26C6DA"/><path fill="#2196F3" d="M104.1 95.7h-.2l.1.2zm.1.6v-.6zm0 0v-.6h-.1l-.1.2zm-.4 2.7v-.3z"/><path fill="#4DD0E1" d="M106 109.2v4h2.4l-1.3-4z"/><path d="M106 108v1.2h1.1l-.6-1.8-.6.6z" fill="#A5D6A7"/><path d="M102 89.4l-2 2v.2h3l1-2V88s-.8.4-2 1.4zm6 2.1a15 15 0 0 0-2-2.1c-1.2-1-2-1.4-2-1.4v1.6l1 2h3v-.1z" fill="#B39DDB"/><path fill="#009688" d="M104 89.7v-1.4zm0 0v-.1zm0 0v2zm0-.1z"/><path fill="#FFEB3B" d="M104.6 109.2l-.2.2-.4.4-.4-.4-.2-.2h-1.3v4h3.8v-4z"/><path fill="#80CBC4" d="M104.5 113.2H102v2.8h3.8v-2.8z"/><path d="M105 108.9l-.4.3h1.3V108l-1 .9z" fill="#FFEB3B"/><path d="M107.2 95.7l1.5 2.7c.7.4 1.2 1 1.5 1.8h1.2a25 25 0 0 0-1-4.5h-3.2z" fill="#80DEEA"/><path d="M110.5 106l-.6-1.3-.3-.6-.4.6-.8.8c0 .2-.2.3-.3.5l.4 1 .9 2.2h2V108l-.9-2z" fill="#64B5F6"/><path d="M110.5 101.4v.2l1 2V102l-.1-1.8h-1.2l.3 1.2z" fill="#3F51B5"/><path fill="#29B6F6" d="M106 113.2v2.8h3.4l-1-2.8z"/><path fill="#81D4FA" d="M109.4 109.2l1.6 4 .5 1.2v-5.2z"/><path fill="#F44336" d="M104 92.5v.2-1 .6zm0 0v-.8.6zm1-.8l-1-2v2zm-1-2.1zm0 2.1v-2zm0 0v-2 2z"/><path d="M107.2 95.7l-1.3-2.5-.8-1.6h-1v1l1.4 3 .4.9.7 1.4h.3c.7 0 1.3.2 1.8.5l-1.5-2.7z" fill="#C5E1A5"/><path d="M110.5 101.6c0 .9-.4 1.7-1 2.5l.4.6.6 1.3 1 2v-4.4l-1-2z" fill="#1E88E5"/><path fill="#FB8C00" d="M111.5 114.4v1.6-1.5z"/><path fill="#80DEEA" d="M111 113.2h-2.6l1 2.8h2v-1.6z"/><path fill="#FFEA00" d="M103.8 98.6v.1zm.4.4v-.4z"/><linearGradient id="Z" x1="106.5" x2="111" y1="109.6" y2="109.6" gradientUnits="userSpaceOnUse"><stop stop-color="#FFC107" offset="0"/><stop stop-color="#FFF59D" offset="1"/></linearGradient><path d="M109.4 109.2l-1-2.3-.3-.9h-.1l-1.5 1.4.6 1.8 1.4 4h2.5l-1.6-4z" fill="url(#Z)"/><path fill="#F44336" d="M103.9 95.7v.6zm-.1 2.9v-2.3zm.1-3zm.1.3l-.1-.2v.6zm.2 2.7v-2.3z"/><path d="M106 96.5l-.5-.8-1.4-3v5.9-2.3l-.1-.4-.1.3v2.4-6l-1.4 3-.4.9-.7 1.4.7.1a3.8 3.8 0 0 1 1.7 1v-.3.3l.2.2.2-.2.5-.4.3-.2a3.8 3.8 0 0 1 1.6-.5l-.7-1.4z" fill="#26C6DA"/><path d="M102 98h-.6l-.3.6-.8 1.6h2l.6-1.6v-.2l-.8-.4z" fill="#FF8A80"/><path d="M102 100.2h-1.7l-.7 1.5-1.2 2.4.4.6.8.8c0 .2.2.3.3.5l.5-1.3 1.9-4.5h-.2z" fill="#F06292"/><path d="M99.6 100.2h-1.8c-.2.4-.3.8-.3 1.3v.2c0 .8.4 1.6 1 2.4l1-2.4.8-1.5h-.7z" fill="#FF80AB"/><path d="M101 97.9c-.6 0-1.2.2-1.7.4-.7.4-1.2 1-1.5 1.9h2.5l.8-1.6.3-.7h-.3z" fill="#F8BBD0"/><path d="M102 104.7h-1.6l-.5 1.3h.1l1.5 1.4.4-1.4.2-.4.3-1h-.3z" fill="#FF9800"/><path fill="#F06292" d="M104.2 100.4v-.2h-.3l-.1.2-1.4 4.3h3.2z"/><path fill="#FF80AB" d="M103.8 100.2h-1.5l-1.8 4.5h1.9l1.4-4.3v-.2z"/><path d="M106 106v-.4l-.4-1h-3.2l-.3 1-.2.4-.4 1.4.6.6 1 .9.9.9.9-1 1-.8.6-.6-.4-1.4z" fill="#EC407A"/><path d="M107 98.6l-.4-.7-.7.1-.9.4v.2l.7 1.6h2l-.8-1.6z" fill="#FF8A80"/><path d="M108.4 101.7l-.7-1.5h-2l1.9 4.5.5 1.3.3-.5.7-.8.5-.6-1.2-2.4z" fill="#F06292"/><path d="M110.2 100.2h-2.5l.7 1.5 1.2 2.4a5 5 0 0 0 .8-2.5v-.2c0-.4 0-.8-.2-1.2z" fill="#FF80AB"/><path d="M108.7 98.4c-.5-.3-1.1-.5-1.8-.5h-.3l.4.7.7 1.6h2.6c-.3-.8-.9-1.4-1.6-1.8z" fill="#F8BBD0"/><path fill="#FF80AB" d="M105.7 100.2h-1.5v.2l1.4 4.3h1.9z"/><path d="M107.5 104.7h-1.9l.3 1 .2.3.4 1.4c.6-.4 1-1 1.5-1.4l-.5-1.3z" fill="#FF9800"/><path d="M105 98.6v-.2l-.3.2-.5.5-.2.1-.2-.1-.8-.7v.2l-.7 1.6h3.4l-.6-1.6z" fill="#FF5722"/><linearGradient id="aa" x1="104" x2="104" y1="88" y2="98.1" gradientUnits="userSpaceOnUse"><stop stop-color="#F48FB1" offset="0"/><stop stop-color="#FCE4EC" offset="1"/></linearGradient><path d="M104 99.2c.8-3.7 2.6-6.2 4-7.6-2-2.5-4-3.5-4-3.5s-2 1-4 3.5c1.4 1.4 3.2 3.9 4 7.6z" fill="url(#aa)"/></g><path d="M112 100.8a17.3 17.3 0 0 0-3.6-10.2 14 14 0 0 0-4.1-3.6l-.3-.1-.3.1a14.2 14.2 0 0 0-4.8 4.5 17.3 17.3 0 0 0-2.9 9.3V116h16v-15zm-8-12.6c.6.3 2 1.3 3.3 2.9a16.4 16.4 0 0 0-3.3 7c-.8-3.2-2.1-5.5-3.3-7a14 14 0 0 1 3.3-3zM97.2 102v-.6c0-3.5 1-6.6 2.7-9.2l.1-.2a16 16 0 0 1 3.5 10.3v12.5h-6.3V102zm7.3 12.7V102c.1-5 2-8.1 3.4-10l.2.3c1.8 2.6 2.7 5.7 2.7 9.2v13.4h-6.3z" fill="#FAFAFA"/></svg>