<svg viewBox="0 0 128 128" xmlns="http://www.w3.org/2000/svg"><linearGradient id="a" x1="2" x2="97" y1="44.1" y2="44.1" gradientUnits="userSpaceOnUse"><stop stop-color="#EF9A9A" offset=".5"/><stop stop-color="#EF5350" offset=".9"/></linearGradient><path d="M97.5 22a119 119 0 0 0-60-1.4C20 25.3 8.4 34.9 5 47.6a30.5 30.5 0 0 0-.3 14l1.8 9.2 1.1-9.3c.1-1.1.4-2.3.7-3.7 3-11.3 13.5-20 29.6-24.6 16.2-4.6 36.3-4.5 56.6.4l1.4.4 3-11.7-1.4-.4z" fill="url(#a)"/><linearGradient id="b" x1="39.8" x2="134.8" y1="78.1" y2="78.1" gradientUnits="userSpaceOnUse"><stop stop-color="#EF5350" offset=".1"/><stop stop-color="#EF9A9A" offset=".5"/></linearGradient><path d="M123.3 60.6l-1.8-9.2-1.1 9.3c-.1 1.1-.4 2.3-.7 3.7-3 11.2-13.5 20-29.6 24.6a113.9 113.9 0 0 1-56.6-.4l-1.4-.4-3 11.7 1.4.3a136 136 0 0 0 34.2 4.6 99 99 0 0 0 25.7-3.2c17.7-4.8 29.2-14.4 32.6-27a30 30 0 0 0 .3-14z" fill="url(#b)"/><path d="M97.5 22a119 119 0 0 0-60-1.4C20 25.3 8.4 34.9 5 47.6a30.5 30.5 0 0 0-.3 14l1.8 9.2 1.1-9.3c.1-1.1.4-2.3.7-3.7 3-11.3 13.5-20 29.6-24.6 16.2-4.6 36.3-4.5 56.6.4l1.4.4 3-11.7-1.4-.4zm25.8 38.6l-1.8-9.2-1.1 9.3c-.1 1.1-.4 2.3-.7 3.7-3 11.2-13.5 20-29.6 24.6a113.9 113.9 0 0 1-56.6-.4l-1.4-.4-3 11.7 1.4.3a136 136 0 0 0 34.2 4.6 99 99 0 0 0 25.7-3.2c17.7-4.8 29.2-14.4 32.6-27a30 30 0 0 0 .3-14z" fill="none" opacity=".2"/><radialGradient id="c" cx="59.4" cy="-24.3" r="0" gradientUnits="userSpaceOnUse"><stop stop-color="#E53935" offset=".5"/><stop stop-color="#C62828" offset=".9"/></radialGradient><radialGradient id="d" cx="59.3" cy="-24.2" r="0" gradientUnits="userSpaceOnUse"><stop stop-color="#E53935" offset=".5"/><stop stop-color="#C62828" offset=".9"/></radialGradient><path d="M59.4-24.2h-.2.2z" fill="url(#d)"/><radialGradient id="e" cx="59.5" cy="-24.3" r="0" gradientUnits="userSpaceOnUse"><stop stop-color="#E53935" offset=".5"/><stop stop-color="#C62828" offset=".9"/></radialGradient><radialGradient id="f" cx="-184.8" cy="-25.2" r="11.6" fx="-194.7" fy="-19.9" gradientTransform="matrix(1.0262 .3345 -.6593 1.9943 -36.4 50.1)" gradientUnits="userSpaceOnUse"><stop stop-color="#E53935" offset=".5"/><stop stop-color="#C62828" offset=".9"/></radialGradient><path d="M-196.6-42c-21.2-10.3-21-28.7-21-28.7s2.3 13.3 28.5 16.2c11.3 1.3 6.6 19.5-7.5 12.6z" fill="url(#f)"/><radialGradient id="g" cx="-162" cy="-119.2" r="32.5" gradientTransform="matrix(.983 -.2098 .2113 .9761 11.7 10.5)" gradientUnits="userSpaceOnUse"><stop stop-color="#E53935" offset=".5"/><stop stop-color="#C62828" offset=".9"/></radialGradient><path d="M-156.2-83c-10.8-1.5-16.6 10.8-16.6 10.8s-10-8.4-19.4-3.1c-14.9 8.2-9.4 27.5.6 35.9 9.6 8 27.6 14.4 28.8 15.1 0 .1.2 0 .2 0l-.2.1a113 113 0 0 0 20.1-26.4c5.7-11.8 3.2-30.1-13.5-32.4z" fill="url(#g)"/><radialGradient id="h" cx="66" cy="13.3" r="8.9" gradientTransform="matrix(-.2672 1.0391 -2.0483 -.5193 -147.8 -177.4)" gradientUnits="userSpaceOnUse"><stop stop-color="#E53935" offset=".5"/><stop stop-color="#C62828" offset=".9"/></radialGradient><path d="M-196.2-121.1a41 41 0 0 1 20.9-19.6s-12 7.4-12.7 23.7c-.3 7-12 4.9-8.2-4.1z" fill="url(#h)"/><radialGradient id="i" cx="157.5" cy="-153.8" r="12.2" gradientTransform="matrix(-1.0274 -.3307 .652 -1.9967 144.8 -371)" gradientUnits="userSpaceOnUse"><stop stop-color="#E53935" offset=".5"/><stop stop-color="#C62828" offset=".9"/></radialGradient><path d="M-127.1-137a56 56 0 0 1 25.2 30.1s-9.2-16.8-31.6-19.2c-9.7-1-5.7-16.7 6.4-10.8z" fill="url(#i)"/><radialGradient id="j" cx="-177.1" cy="-98.3" r="25.5" gradientTransform="matrix(1.0031 .0685 -.069 .996 -21.7 -5.4)" gradientUnits="userSpaceOnUse"><stop stop-color="#E53935" offset=".5"/><stop stop-color="#C62828" offset=".9"/></radialGradient><path d="M-177.8-120.2c-7.7-3.4-14.8 4.6-14.8 4.6s-5.7-8.5-14-6.6c-13 3-13 18.8-7.4 27.3 5.5 8 17.7 16.8 18.4 17.6h.2-.2c1.7-.7 14.5-8.3 21-15.6 6.8-7.6 9-22-3.2-27.3z" fill="url(#j)"/><radialGradient id="k" cx="-132" cy="-98.3" r="22.8" gradientTransform="matrix(.984 .2054 -.2069 .977 -35.5 -13.2)" gradientUnits="userSpaceOnUse"><stop stop-color="#E53935" offset=".5"/><stop stop-color="#C62828" offset=".9"/></radialGradient><path d="M-131.2-138.9c-6.5-4-13.8 2.2-13.8 2.2s-4-8.2-11.6-7.5c-11.9 1.1-14 15-10 23.3 4 7.9 13.6 17 14.2 17.9h.2-.2c1.6-.4 13.8-5.5 20.5-11.2 7-6 10.7-18.4.7-24.7z" fill="url(#k)"/><radialGradient id="l" cx="37.8" cy="-237.1" r="11.9" gradientTransform="matrix(.1235 -1.0654 2.1002 .24 369 45)" gradientUnits="userSpaceOnUse"><stop stop-color="#E53935" offset=".5"/><stop stop-color="#C62828" offset=".9"/></radialGradient><path d="M-107.7-58.4c-4.2 17.3-21.9 27-21.9 27s13.2-10.9 11.3-30.6c-.7-8.5 15.9-18.3 10.6 3.6z" fill="url(#l)"/><radialGradient id="m" cx="331.2" cy="-148.8" r="21.2" gradientTransform="matrix(-.984 .2054 .2069 .977 237.3 -13.2)" gradientUnits="userSpaceOnUse"><stop stop-color="#E53935" offset=".5"/><stop stop-color="#C62828" offset=".9"/></radialGradient><path d="M-132.2-92.9c6-3.7 12.8 2 12.8 2s3.7-7.6 10.8-7c11 1.1 13 14 9.2 21.7-3.6 7.3-12.6 15.8-13.1 16.6l-.2.1h.2A74.3 74.3 0 0 1-131.7-70c-6.5-5.5-10-17.1-.6-22.9z" fill="url(#m)"/><radialGradient id="n" cx="59.4" cy="123.7" r="0" gradientUnits="userSpaceOnUse"><stop stop-color="#E53935" offset=".5"/><stop stop-color="#C62828" offset=".9"/></radialGradient><radialGradient id="o" cx="59.3" cy="123.8" r="0" gradientUnits="userSpaceOnUse"><stop stop-color="#E53935" offset=".5"/><stop stop-color="#C62828" offset=".9"/></radialGradient><path d="M59.4 123.8h-.2.2z" fill="url(#o)"/><radialGradient id="p" cx="59.5" cy="123.7" r="0" gradientUnits="userSpaceOnUse"><stop stop-color="#E53935" offset=".5"/><stop stop-color="#C62828" offset=".9"/></radialGradient><radialGradient id="q" cx="42.4" cy="57.4" r="49.5" gradientTransform="matrix(.9985 0 0 .9337 .1 -5.6)" gradientUnits="userSpaceOnUse"><stop stop-color="#E53935" offset=".5"/><stop stop-color="#C62828" offset="1"/></radialGradient><path d="M62.1 53c-14.2 0-19.4 17-19.4 17s-5-17-19.3-17C12.7 53 .4 61.5 5 80.8S42.6 124 42.6 124l.2-.2.1.2s33-24 37.6-43.2S72.8 53 62 53z" fill="url(#q)"/><path d="M62.1 56c5.1 0 10 2.2 12.9 6 3.4 4.3 4.3 10.6 2.6 18.1-3.7 15.6-28.3 35.3-34.8 40.3-6.6-5-31.3-24.7-35-40.3-1.7-7.5-.8-13.8 2.7-18.2 3-3.7 7.8-5.9 12.9-5.9 4.8 0 9 2.4 12.5 7 2.8 3.9 4 7.8 4 7.8l2.8 9.3 3-9.3s1.2-4 4-7.7C53 58.4 57.2 56 62 56m0-3c-14.2 0-19.4 17-19.4 17s-5-17-19.3-17C12.7 53 .4 61.5 5 80.8S42.6 124 42.6 124l.2-.2.1.2s33-24 37.6-43.2S72.8 53 62 53z" fill="#424242" opacity=".2"/><radialGradient id="r" cx="92.1" cy="5.9" r="40.5" gradientTransform="matrix(.9985 0 0 .9337 .1 -5.6)" gradientUnits="userSpaceOnUse"><stop stop-color="#E53935" offset=".5"/><stop stop-color="#C62828" offset="1"/></radialGradient><path d="M108.2 4C96.6 4 92.4 17.8 92.4 17.8S88.2 4 76.5 4c-8.7 0-18.7 7-15 22.7C65.2 42.5 92.3 62 92.3 62l.1-.1h.1s27-19.4 30.7-35.2C127 10.9 117 4 108.2 4z" fill="url(#r)"/><path d="M108.2 7c4 0 7.8 1.7 10 4.6 2.8 3.4 3.5 8.4 2.1 14.4a51.7 51.7 0 0 1-15.8 22c-5 4.7-9.7 8.5-12.1 10.3-8.2-6.2-25.3-21-28-32.3-1.4-6-.7-11 2-14.4C68.8 8.7 72.6 7 76.6 7c9.3 0 13 11.6 13 11.7l2.9 9.4 2.8-9.4c0-.1 3.7-11.7 13-11.7m0-3C96.6 4 92.4 17.8 92.4 17.8S88.2 4 76.5 4c-8.7 0-18.7 7-15 22.7C65.2 42.5 92.3 62 92.3 62l.1-.1h.1s27-19.4 30.7-35.2C127 10.9 117 4 108.2 4z" fill="#424242" opacity=".2"/></svg>