<svg viewBox="0 0 128 128" xmlns="http://www.w3.org/2000/svg"><radialGradient id="a" cx="64.6" cy="24.5" r="63.3" gradientUnits="userSpaceOnUse"><stop stop-color="#E53935" offset=".5"/><stop stop-color="#C62828" offset=".9"/></radialGradient><path d="M100.4 10C80.7 2.8 64.6 23.8 64.6 23.8S49.2 3.8 29 9.9c-31.5 9.9-29 48.9-13.5 69C30.4 98 61 117.4 64 119.4l.3.1H64v-.1c4-2 34-23 48.9-42.1C128.3 57.2 131 21.2 100.3 10z" fill="url(#a)"/><path d="M92 11.5a31.2 31.2 0 0 1 27.7 22.3c3.7 13 0 29.7-9.2 41.6-13.2 17.2-39.7 35.7-46.5 40.4-10.6-7-33.9-23.2-46-38.9a51.1 51.1 0 0 1-8.7-44 30 30 0 0 1 27.6-21.1c14.4 0 25.2 13.8 25.3 14 .6.7 1.4 1.2 2.4 1.2s1.8-.5 2.3-1.3c.2-.1 11-14.2 25.1-14.2m0-3c-15.7 0-27.4 15.3-27.4 15.3S53 8.8 36.9 8.8c-2.5 0-5.1.3-7.8 1.2-31.5 9.7-29 48.7-13.5 68.8C30.4 97.9 61 117.4 64 119.4c3-2 34-23 48.9-42.1 15.5-20 18.2-56-12.5-67.3A24 24 0 0 0 92 8.5zm-27.5 111h-.1.1zm-.4 0zm.3 0z" fill="#424242" opacity=".2"/><radialGradient id="b" cx="64.6" cy="24.5" r="63.3" gradientUnits="userSpaceOnUse"><stop stop-color="#FFEBEE" offset=".5"/><stop stop-color="#EF9A9A" offset=".9"/></radialGradient><path d="M100.4 10C80.7 2.8 64.6 23.8 64.6 23.8S49.2 3.8 29 9.9c-31.5 9.9-29 48.9-13.5 69C30.4 98 61 117.4 64 119.4l.3.1H64v-.1c4-2 34-23 48.9-42.1C128.3 57.2 131 21.2 100.3 10z" fill="url(#b)"/><path d="M92 11.5a31.2 31.2 0 0 1 27.7 22.3c3.7 13 0 29.7-9.2 41.6-13.2 17.2-39.7 35.7-46.5 40.4-10.6-7-33.9-23.2-46-38.9a51.1 51.1 0 0 1-8.7-44 30 30 0 0 1 27.6-21.1c14.4 0 25.2 13.8 25.3 14 .6.7 1.4 1.2 2.4 1.2s1.8-.5 2.3-1.3c.2-.1 11-14.2 25.1-14.2m0-3c-15.7 0-27.4 15.3-27.4 15.3S53 8.8 36.9 8.8c-2.5 0-5.1.3-7.8 1.2-31.5 9.7-29 48.7-13.5 68.8C30.4 97.9 61 117.4 64 119.4c3-2 34-23 48.9-42.1 15.5-20 18.2-56-12.5-67.3A24 24 0 0 0 92 8.5zm-27.5 111h-.1.1zm-.4 0zm.3 0z" fill="#424242" opacity=".2"/><radialGradient id="c" cx="64.4" cy="47.4" r="26.6" gradientUnits="userSpaceOnUse"><stop stop-color="#E53935" offset=".5"/><stop stop-color="#C62828" offset=".9"/></radialGradient><path d="M79.5 41.3c-8.3-3-15 5.8-15 5.8s-6.6-8.5-15-5.8c-13.3 4-12.3 20.5-5.8 29 6.3 8 19.3 16.2 20.3 17 2-.8 14.4-9.7 20.6-17.7 6.6-8.5 7.8-23.6-5.1-28.3z" fill="url(#c)"/><path d="M76 43.6a11.3 11.3 0 0 1 10 8.1 19 19 0 0 1-3.6 16 95.1 95.1 0 0 1-18.2 16 84 84 0 0 1-18-15.3 20 20 0 0 1-3.4-17 10.8 10.8 0 0 1 10-7.7c5.2 0 9.2 5.1 9.2 5.2a3 3 0 0 0 2.4 1.1 3 3 0 0 0 2.4-1.1s4.2-5.3 9.2-5.3m0-3c-6.7 0-11.6 6.5-11.6 6.5s-4.8-6.3-11.6-6.3c-1 0-2.2.1-3.3.5-13.3 4-12.3 20.5-5.8 29 6.3 8 19.3 16.2 20.3 17 1-.8 14.4-9.7 20.6-17.7 6.6-8.5 7.7-23.6-5.2-28.3a9.9 9.9 0 0 0-3.4-.7zM64.4 87.3zm-.2 0h.1zm.1 0z" fill="#424242" opacity=".2"/><radialGradient id="d" cx="64.5" cy="36.9" r="43.5" gradientUnits="userSpaceOnUse"><stop stop-color="#E53935" offset=".5"/><stop stop-color="#C62828" offset=".9"/></radialGradient><path d="M89.2 26.9c-13.6-5-24.7 9.5-24.7 9.5s-10.6-13.8-24.4-9.6c-21.7 6.7-20 33.6-9.3 47.4C41 87.3 62 100.7 64 102c3-1.4 23.4-15.8 33.6-29 10.7-13.8 12.6-38.5-8.4-46.2z" fill="url(#d)"/><path d="M83.4 28.8a20.3 20.3 0 0 1 18.2 14.7 33 33 0 0 1-6.2 27.8 164 164 0 0 1-31.3 27.2 143 143 0 0 1-30.9-26.2A34.2 34.2 0 0 1 27.4 43a19.5 19.5 0 0 1 18-13.9c9.5 0 16.7 9 16.7 9 .6.7 1.5 1 2.4 1s1.8-.3 2.4-1c0 0 7.3-9.2 16.5-9.2m0-3c-10.8 0-18.9 10.5-18.9 10.5s-8-10.3-19-10.3c-1.8 0-3.6.3-5.4.8-21.7 6.7-20 33.6-9.3 47.4C41 87.3 62 100.7 64 102c2-1.4 23.4-15.8 33.6-29 10.7-13.8 12.6-38.5-8.5-46.2-2-.8-3.9-1-5.7-1zm-19 76.3zm-.2 0zm.2 0z" fill="#424242" opacity=".2"/><radialGradient id="e" cx="64.5" cy="35.7" r="45.4" gradientUnits="userSpaceOnUse"><stop stop-color="#EF9A9A" offset=".5"/><stop stop-color="#EF5350" offset=".9"/></radialGradient><path d="M90.3 25.2c-14.2-5.2-25.8 10-25.8 10s-11-14.5-25.5-10c-22.6 7-20.8 35-9.7 49.4C40 88.4 62 102.3 64 103.7v.1c3-1.5 24.5-16.5 35.1-30.3 11.1-14.4 13.1-40.2-8.8-48.3z" fill="url(#e)"/><path d="M84.2 27.1c1.7 0 3.4.3 5 1 7.2 2.6 12 7.6 14 14.5 2.7 9 0 20.7-6.4 29a167.6 167.6 0 0 1-32.7 28.5 147.4 147.4 0 0 1-32.3-27.3A35.8 35.8 0 0 1 25.6 42a20.4 20.4 0 0 1 19-14.7c10 0 17.4 9.5 17.5 9.6.6.7 1.5 1.1 2.4 1.1s1.8-.4 2.4-1.1c0-.1 7.7-9.8 17.3-9.8m0-3c-11.3 0-19.7 11-19.7 11s-8.3-10.8-19.9-10.8c-1.8 0-3.7.3-5.6.9-22.6 7-20.8 35-9.7 49.4C40 88.4 62 102.3 64 103.7v.1c2-1.5 24.5-16.5 35.1-30.3 11.1-14.4 13.1-40.2-8.9-48.3-2-.7-4-1-6-1zm-19.7 79.7h-.1zm-.4 0h.1zm.3 0z" fill="#424242" opacity=".2"/><radialGradient id="f" cx="64.4" cy="46.7" r="27.8" gradientUnits="userSpaceOnUse"><stop stop-color="#E53935" offset=".5"/><stop stop-color="#C62828" offset=".9"/></radialGradient><path d="M80.2 40.3c-8.7-3.2-15.8 6-15.8 6s-6.7-8.8-15.6-6C35 44.6 36 61.7 42.8 70.5c6.5 8.4 20.2 17 21.2 17.8 2-.8 15-10 21.5-18.5 6.8-8.8 8.1-24.6-5.3-29.5z" fill="url(#f)"/><path d="M76.5 42.6A12 12 0 0 1 87 51.2 20 20 0 0 1 83.3 68a100 100 0 0 1-19.1 16.7c-5-3.3-14-9.8-18.9-16a21 21 0 0 1-3.5-17.8 11.4 11.4 0 0 1 10.5-8.1c5.5 0 9.7 5.2 9.8 5.2.5.8 1.4 1 2.3 1s1.9-.2 2.4-1c0 0 4.4-5.4 9.7-5.4m0-3c-7 0-12 6.7-12 6.7s-5.1-6.6-12.2-6.6c-1.1 0-2.3.2-3.5.6-13.8 4.3-12.8 21.4-6 30.2 6.6 8.4 20.2 17 21.2 17.8 2-.9 15-10 21.5-18.5 6.8-8.8 8-24.6-5.4-29.5a9.6 9.6 0 0 0-3.6-.7zM64.4 88.3zm-.2 0zm.1 0z" fill="#424242" opacity=".2"/></svg>