<svg viewBox="0 0 128 128" xmlns="http://www.w3.org/2000/svg"><linearGradient id="a" x1="65.3" x2="102.3" y1="66.8" y2="112.9" gradientUnits="userSpaceOnUse"><stop stop-color="#00897B" offset="0"/><stop stop-color="#4DB6AC" offset="1"/></linearGradient><path d="M111 103.2c-1-1.6-.8-3.6-1-6.4-.6-6.7-.7-13.4-1-20.1-.3-6.5.4-27.1.5-33.6 0-1.8-5 13.9-5 14.8-.2 3.4-2 5.8-4.2 8.2-1.4 1.4-3.1 2.2-4.5 3.6A87.1 87.1 0 0 0 87.1 81c-.8 1-1.3 2.3-2.4 3-1.8 1.5-4.2 2.2-6.3 3-2.8 1.2-5.8 1.6-8.4 3-1.6 1-2.8 2.2-4.2 3.4-1.4 1.1-2.7 2-3.8 3.5-1.7 2.3-3.7 4.4-5.6 6.5l-1.4 1.5c-.4.5-1.3.9-1.3.9s-29.3 2.2-13.4 3.6c7.2.7 29.6 1.4 36.9 2.1l12.9 1.6c2 .3 4.5 0 6.5.8a39.2 39.2 0 0 0 14.3-10.7z" fill="url(#a)"/><path d="M114 105.7l-.4-.2a6 6 0 0 1-2.7-2.3A39.3 39.3 0 0 1 96.6 114c1.1.3 2 1 2.6 2.1l.2.5c6-2 10.7-6 14.6-10.8z" fill="#AEEA00"/><linearGradient id="b" x1="105.2" x2="114.3" y1="109.1" y2="120.5" gradientUnits="userSpaceOnUse"><stop stop-color="#00897B" offset="0"/><stop stop-color="#4DB6AC" offset="1"/></linearGradient><path d="M118.3 108.6a16 16 0 0 0-4.3-2.9c-4 4.8-8.5 8.8-14.5 10.8 1 2.2 1.3 5 3.3 6.3 6.4 4.4 15-5 16.6-11 .3-1.2-.2-2.3-1.1-3.2z" fill="url(#b)"/><path d="M106 32.2c8.2 10.6 3 43-20.5 62.4s-56 17.8-64.2 7.2 2.3-37.5 26-56.9S97.8 21.6 106 32.2z" fill="#00695C"/><linearGradient id="c" x1="3.5" x2="46.2" y1="103.1" y2="74.7" gradientUnits="userSpaceOnUse"><stop stop-color="#9CCC65" offset="0"/><stop stop-color="#00AD51" offset="1"/></linearGradient><path d="M27 76.6c9.6-2.8 24.4 3.7 24.4 3.7S44.4 91.9 32 96c-15.8 5.3-27.8-2.7-27.8-2.7S11 81.3 27 76.6z" fill="url(#c)"/><linearGradient id="d" x1="10" x2="53.3" y1="114.1" y2="85.3" gradientUnits="userSpaceOnUse"><stop stop-color="#9CCC65" offset="0"/><stop stop-color="#00AD51" offset="1"/></linearGradient><path d="M31.6 86.7c5.1-10 21.3-17.2 21.3-17.2s3.7 14.7-2.6 27.9C42.3 114.4 27 118 27 118s-4.1-14.8 4.6-31.4z" fill="url(#d)"/><linearGradient id="e" x1="67.9" x2="119.6" y1="54.8" y2="19.3" gradientUnits="userSpaceOnUse"><stop stop-color="#00AD51" offset="0"/><stop stop-color="#9CCC65" offset="1"/></linearGradient><path d="M89.7 26.3c8.2-7.4 25.9-8.2 25.9-8.2s-1.6 15-12 25c-13.3 13-28.8 11-28.8 11s1.1-15.3 15-27.8z" fill="url(#e)"/><linearGradient id="f" x1="75.5" x2="126.5" y1="65.5" y2="30.5" gradientUnits="userSpaceOnUse"><stop stop-color="#00AD51" offset="0"/><stop stop-color="#9CCC65" offset="1"/></linearGradient><path d="M99.8 39.5c10.8.3 24.4 12.1 24.4 12.1s-11 9.9-25.3 10c-18.3.2-28.4-12.2-28.4-12.2s11-10.4 29.3-9.9z" fill="url(#f)"/><linearGradient id="g" x1="61.4" x2="80.7" y1="61.6" y2="111.7" gradientUnits="userSpaceOnUse"><stop stop-color="#00AD51" offset="0"/><stop stop-color="#9CCC65" offset="1"/></linearGradient><path d="M94.5 70.8C82.3 56.6 64.3 58.3 64.3 58.3s-.5 2-.8 5c-3.1-1.3-5.2-1.7-5.2-1.7s-1.1 1.8-2.2 4.7c-2.6-1.6-4.4-2.3-4.4-2.3s-13 14.8-7.2 32.8c4.6 13.9 20.9 20.8 20.9 20.8s2.6-4.2 5-9.8c5.7 3 10.6 4 10.6 4s2.5-6 3.8-13.2c7.6 2.2 14.5 1.8 14.5 1.8s2.4-21.2-4.8-29.6z" fill="url(#g)"/><g fill="#B39DDB"><ellipse cx="86" cy="19.1" rx="10" ry="10.3"/><ellipse cx="73" cy="25" rx="10" ry="10.3"/><ellipse cx="78.7" cy="38.4" rx="10" ry="10.3"/><ellipse cx="91.6" cy="32.5" rx="10" ry="10.3"/></g><ellipse cx="82.3" cy="28.8" rx="4.2" ry="4.3" fill="#EDE7F6"/><path d="M34.2 59.2C43 63.3 47.6 71.7 45 78s-12 7.8-20.7 3.6C11.4 75.5 6 59.3 6 59.3s15.4-6.2 28.2 0z" fill="#C62828"/><path d="M24.8 69.5c4.5 8.7 12.9 13.1 18.7 10s6.8-13 2.3-21.6C39 45 23.2 40.5 23.2 40.5s-5 16.2 1.6 29z" fill="#C62828"/><path d="M39.7 58.2c7 6.8 8.9 16.2 4.4 21.2s-13.8 3.5-20.8-3.3c-10.2-10-10.4-27-10.4-27s16.5-.9 26.8 9.1z" fill="#FF5252"/><path d="M56.7 32.6c7.8 7.7 10 18.5 4.8 24s-15.7 4-23.5-3.8C26.5 41.3 26.4 22 26.4 22s18.8-.8 30.3 10.6z" fill="#F06292"/><path d="M43 40c1.7 11.1 9 19 16.5 17.8s11.8-11.2 10-22.2c-2.5-16.3-18-27.3-18-27.3S40.4 23.8 43 40z" fill="#F06292"/><path d="M63 33.6c5 9.9 3.7 20.8-3 24.4s-16-1.5-21-11.4c-7.4-14.6-1.5-33-1.5-33s18 5.4 25.4 20z" fill="#FF80AB"/><radialGradient id="h" cx="50.3" cy="80.9" r="23.7" gradientTransform="matrix(1.0056 0 0 1.0389 0 -4.8)" gradientUnits="userSpaceOnUse"><stop stop-color="#FFFC1F" offset="0"/><stop stop-color="#FCC21B" offset="1"/></radialGradient><path d="M68.2 86.2c3.5-.3 6.2-3.2 6.2-6.9s-2.7-6.6-6.2-6.8l-.5-.5v-.7c2.3-2.7 2.2-6.8-.3-9.4s-6.4-2.7-9-.3h-.7l-.5-.5c-.3-3.6-3.1-6.4-6.6-6.4s-6.4 2.8-6.7 6.4l-.5.5h-.6c-2.7-2.4-6.6-2.3-9.1.3s-2.6 6.7-.3 9.4v.7l-.5.5a6.8 6.8 0 0 0-6.2 6.8c0 3.7 2.7 6.6 6.2 6.9l.5.5v.7c-2.3 2.7-2.2 6.8.3 9.4s6.4 2.7 9 .3h.7l.5.5c.3 3.6 3.1 6.4 6.7 6.4s6.3-2.8 6.6-6.4l.5-.5h.7c2.6 2.3 6.5 2.2 9-.3s2.6-6.7.3-9.4v-.7l.5-.5z" fill="url(#h)"/><path d="M50.6 85.1c-3.1 0-5.6-2.6-5.6-5.8s2.5-5.7 5.6-5.7 5.5 2.6 5.5 5.7c0 3.2-2.5 5.8-5.5 5.8z" fill="#FFFDE7"/><radialGradient id="i" cx="60.7" cy="50.9" r="20.4" gradientTransform="matrix(1.0056 0 0 1.0389 0 -4.8)" gradientUnits="userSpaceOnUse"><stop stop-color="#fe0" offset="0"/><stop stop-color="#FC9E1B" offset="1"/></radialGradient><path d="M76.2 54c3-.2 5.3-2.7 5.3-5.9s-2.3-5.6-5.3-5.8l-.4-.5v-.6c2-2.3 1.9-5.8-.2-8s-5.6-2.3-7.8-.3h-.6l-.4-.4C66.6 29.4 64 27 61 27s-5.5 2.4-5.8 5.5l-.4.4h-.5c-2.3-2-5.7-2-7.8.3s-2.3 5.7-.3 8v.6l-.4.5c-3 .2-5.3 2.7-5.3 5.8s2.3 5.7 5.3 6l.4.4v.6c-2 2.3-1.9 5.8.3 8s5.5 2.3 7.8.3h.5l.4.4a5.9 5.9 0 0 0 5.8 5.5c3 0 5.4-2.4 5.7-5.5l.4-.4h.6c2.2 2 5.6 2 7.7-.3s2.3-5.7.3-8v-.6l.4-.5z" fill="url(#i)"/><path d="M61 53.1c-2.6 0-4.7-2.2-4.7-5s2.1-5 4.8-5 4.8 2.3 4.8 5-2.2 5-4.8 5z" fill="#FFFDE7"/><path d="M86 11.8c.8 0 1.7.2 2.5.5a7.5 7.5 0 0 1 4 9.4 3 3 0 0 0 4.1 3.7 53.9 53.9 0 0 1 15.3-4c-.8 3.5-2.6 9-6 14.2a3 3 0 0 0-.3 2.5c.4 1.3.7 2.8.8 4.3.2 1 .8 2 1.8 2.4 4.4 2 8.4 4.8 11 6.8-2.4 1.7-6.3 4-11 5.5a3 3 0 0 0-2.1 2.8c-.1 6-.3 13.4-.1 17l.2 5.4c.1 4.8.3 9.8.7 14.8l.1 1.8c.1 2 .2 4 1.3 5.8a9.1 9.1 0 0 0 4 3.5l.3.2c1 .6 2.7 1.4 3.5 2.3l.3.4c-1 4.1-6.3 9.9-10 9.9-.7 0-1.3-.2-1.9-.6-.7-.5-1-1.7-1.6-3l-.7-2v-.1l-.3-.6c-1-1.7-2.4-3-4.3-3.6-1.7-.6-3.5-.7-5-.8l-2.1-.1A287.8 287.8 0 0 0 69 108h-.2a3 3 0 0 0-2.7 1.7 78 78 0 0 1-2 4c-2.1-1.1-5.2-3-8.3-5.7a3 3 0 0 0-1.8-.7 505 505 0 0 1-12.4-.7h-.2a3 3 0 0 0-2 .8 35.9 35.9 0 0 1-10.2 6.7c-.2-2-.4-4.8-.2-8.1a3 3 0 0 0-1.5-2.9c-1.7-1-3-2-4-3.1-.6-.8-1-1.9-1.4-3s-1.5-2.2-2.7-2.2a31 31 0 0 1-10.8-2.6c2.2-2.7 6.4-7 13-10.3a3 3 0 0 0 .3-5.1 40 40 0 0 1-12-15.6c1.2-.4 2.7-.7 4.4-1a3 3 0 0 0 2-1.3c.4-.7.6-1.5.4-2.3-.3-1.7-.6-3.2-.7-4.5a43.5 43.5 0 0 1 5.4.7 3 3 0 0 0 3-2.8c.2-2.2.5-4.1.8-5.6l5.2 2.6a3 3 0 0 0 3.6-.5 3 3 0 0 0 .5-3.5 53 53 0 0 1-5-18 53.4 53.4 0 0 1 6 .7 3 3 0 0 0 3-2.7c.2-2.1.6-4 1-5.4 1.4.6 3.3 1.4 5.4 2.6a3 3 0 0 0 2.4.2 3 3 0 0 0 1.8-1.6c1-2.5 2.2-4.6 3-6 2.4 2 6 5.5 9 10a3 3 0 0 0 2.5 1.4h.3a3 3 0 0 0 2.5-2 7 7 0 0 1 6.5-4.6 7 7 0 0 1 2.5.5 3 3 0 0 0 2.4 0 3 3 0 0 0 1.6-1.7 7 7 0 0 1 6.5-4.6M51.5 8.3s-2.6 3.6-5 9.3c-5-2.8-9-4-9-4s-1.2 3.7-1.9 9c-3.9-.6-7-.7-8.4-.7h-.8s0 11.8 5.6 22.5c-4.8-2.8-8.8-4-8.8-4s-1.2 4-1.7 9.3c-3.4-.6-6.3-.6-7.7-.6h-1s.1 3.4 1 8c-4.6 1-7.8 2.2-7.8 2.2s4.3 12.8 14.3 20c-11.2 5.4-16 14-16 14s6 4 15 4.5c.4 1.5 1.1 2.9 2 4 1.2 1.5 2.8 2.8 4.9 4-.6 7.3.8 12.3.8 12.3s7.3-1.8 14.5-8.6c3 .3 7.5.5 12.5.8 5.6 4.9 11.4 7.3 11.4 7.3s1.6-2.7 3.5-6.6a237.8 237.8 0 0 1 21.2 2c2 .4 4.5.2 6.5.9 1.1.3 2 1 2.6 2.1l.3.5c1 2.2 1.3 5 3.3 6.3 1.2.8 2.4 1.1 3.6 1.1 5.7 0 11.7-7.2 13-12 .3-1.3-.2-2.4-1.1-3.3a16 16 0 0 0-4.3-2.9l-.4-.2a6 6 0 0 1-2.7-2.3c-1-1.6-.7-3.7-1-6.4-.5-6.7-.6-13.4-1-20.1 0-3.3 0-10 .2-16.8 9-2.8 15-8.3 15-8.3s-6.8-6-14.7-9.5c-.2-1.8-.5-3.4-1-4.8 6.1-9.2 7.2-19.2 7.2-19.2s-11.5.5-20.2 4.6c1.8-5.3-.7-11.1-5.8-13.2a9.7 9.7 0 0 0-3.6-.7 10 10 0 0 0-9.3 6.6 9.7 9.7 0 0 0-3.7-.8 10 10 0 0 0-9.3 6.6 54 54 0 0 0-12.2-13zm64 9.8z" fill="#424242" opacity=".2"/><radialGradient id="j" cx="85.9" cy="62.2" r="19.2" gradientTransform="matrix(1.0056 0 0 1.0389 0 -4.8)" gradientUnits="userSpaceOnUse"><stop stop-color="#FFFC1F" offset="0"/><stop stop-color="#FCC21B" offset="1"/></radialGradient><path d="M100.7 65.4c2.8-.2 5-2.6 5-5.5s-2.2-5.4-5-5.6l-.4-.4v-.5c1.8-2.2 1.7-5.5-.3-7.6s-5.2-2.2-7.3-.3H92l-.4-.4c-.2-2.9-2.5-5.2-5.3-5.2s-5.2 2.3-5.4 5.2l-.4.4H80c-2-1.9-5.3-1.8-7.3.3s-2.1 5.4-.3 7.6v.5l-.4.4c-2.8.2-5 2.6-5 5.6s2.2 5.3 5 5.5l.4.4v.6c-1.8 2.2-1.7 5.5.3 7.6s5.2 2.1 7.3.2h.6l.4.4c.2 3 2.5 5.2 5.4 5.2s5.1-2.3 5.3-5.2l.4-.4h.6c2.1 2 5.3 1.8 7.3-.2s2.1-5.4.3-7.6v-.6l.4-.4z" fill="url(#j)"/><path d="M86.4 64.5c-2.5 0-4.6-2-4.6-4.6s2-4.7 4.6-4.7 4.5 2 4.5 4.7-2 4.6-4.5 4.6z" fill="#FFFDE7"/></svg>