<svg viewBox="0 0 128 128" xmlns="http://www.w3.org/2000/svg"><linearGradient id="a" x1="64" x2="64" y1="4.3" y2="124.4" gradientUnits="userSpaceOnUse"><stop stop-color="#80D8FF" offset="0"/><stop stop-color="#36C1FF" offset=".6"/><stop stop-color="#00B0FF" offset="1"/></linearGradient><path d="M76.4 44.9l10.2-10.3a8 8 0 0 0 0-11.3l-17-17a8 8 0 0 0-11.2 0l-17 17a8 8 0 0 0 0 11.3l10.2 10.2a4 4 0 0 0 4.4.9 19.8 19.8 0 0 1 16 0 4 4 0 0 0 4.4-.9z" fill="url(#a)"/><linearGradient id="b" x1="103" x2="103" y1="4.3" y2="124.4" gradientUnits="userSpaceOnUse"><stop stop-color="#80D8FF" offset="0"/><stop stop-color="#36C1FF" offset=".6"/><stop stop-color="#00B0FF" offset="1"/></linearGradient><path d="M121.7 58.3l-17-17a8 8 0 0 0-11.3 0L83 51.7a4 4 0 0 0-.8 4.4 19.6 19.6 0 0 1 0 16 4 4 0 0 0 .9 4.4l10.2 10.2a8 8 0 0 0 11.3 0l17-17a8 8 0 0 0 0-11.3z" fill="url(#b)"/><linearGradient id="c" x1="25" x2="25" y1="4.3" y2="124.4" gradientUnits="userSpaceOnUse"><stop stop-color="#80D8FF" offset="0"/><stop stop-color="#36C1FF" offset=".6"/><stop stop-color="#00B0FF" offset="1"/></linearGradient><path d="M44.9 51.6L34.5 41.4a8 8 0 0 0-11.3 0l-17 17a8 8 0 0 0 0 11.3l17 17a8 8 0 0 0 11.3 0l10.2-10.3a4 4 0 0 0 .9-4.4 19.7 19.7 0 0 1 0-16 4 4 0 0 0-.9-4.4z" fill="url(#c)"/><path d="M51.6 83.2L41.4 93.4a8 8 0 0 0 0 11.3l17 17a8 8 0 0 0 11.3 0l17-17a8 8 0 0 0 0-11.3L76.3 83a4 4 0 0 0-4.4-.8 19.6 19.6 0 0 1-16 0 4 4 0 0 0-4.4.9z" fill="url(#a)"/><linearGradient id="d" x1="64" x2="64" y1="48.8" y2="81.8" gradientUnits="userSpaceOnUse"><stop stop-color="#42A5F5" offset="0"/><stop stop-color="#1976D2" offset="1"/></linearGradient><circle cx="64" cy="64" r="16" fill="url(#d)"/><path d="M64 7a5 5 0 0 1 3.5 1.5l17 17c1 .9 1.5 2.1 1.5 3.5s-.6 2.6-1.5 3.5L74.3 42.7a1 1 0 0 1-1.1.2 22.7 22.7 0 0 0-18.8.1 1 1 0 0 1-.7-.3L43.5 32.5a5 5 0 0 1 0-7l17-17A5 5 0 0 1 64 7m0-3c-2 0-4 .8-5.7 2.3l-17 17a8 8 0 0 0 0 11.3l10.3 10.2a4 4 0 0 0 4.4.9 19.8 19.8 0 0 1 16 0 4 4 0 0 0 4.4-.9l10.2-10.2a8 8 0 0 0 0-11.3l-17-17A8 8 0 0 0 64 4zm35 38a5 5 0 0 1 3.6 1.5l17 17a5 5 0 0 1 0 7l-17 17a5 5 0 0 1-7.1 0L85.3 74.3a1 1 0 0 1-.2-1.1 22.7 22.7 0 0 0 0-18.4 1 1 0 0 1 .2-1l10.2-10.3A5 5 0 0 1 99 42m0-3c-2 0-4 .8-5.6 2.4L83 51.6a4 4 0 0 0-.8 4.4 19.6 19.6 0 0 1 0 16 4 4 0 0 0 .9 4.4l10.2 10.2a8 8 0 0 0 11.3 0l17-17a8 8 0 0 0 0-11.2l-17-17A8 8 0 0 0 99 39zm-70 3a5 5 0 0 1 3.5 1.5l10.2 10.2c.3.3.4.7.2 1.1a22.7 22.7 0 0 0 0 18.4c.2.4.1.8-.2 1L32.5 84.6c-1 1-2.2 1.5-3.5 1.5s-2.6-.6-3.6-1.5l-17-17a5 5 0 0 1 0-7l17-17A5 5 0 0 1 29 42m0-3c-2 0-4.1.8-5.7 2.4l-17 17a8 8 0 0 0 0 11.3l17 17a8 8 0 0 0 11.3 0l10.2-10.3a4 4 0 0 0 .9-4.4 19.5 19.5 0 0 1 0-16 4 4 0 0 0-.9-4.4L34.6 41.4A8 8 0 0 0 29 39zm44.6 46c.3 0 .5 0 .7.3l10.2 10.2c1 1 1.5 2.2 1.5 3.5s-.6 2.6-1.5 3.6l-17 17a5 5 0 0 1-7 0l-17-17a5 5 0 0 1 0-7.1l10.2-10.2a1 1 0 0 1 1.1-.2 22.7 22.7 0 0 0 18.8-.1m0-3a4 4 0 0 0-1.6.3 19.8 19.8 0 0 1-16 0 4 4 0 0 0-4.4.9L41.4 93.4a8 8 0 0 0 0 11.3l17 17a8 8 0 0 0 11.3 0l17-17a8 8 0 0 0 0-11.3L76.3 83a4 4 0 0 0-2.8-1.1zM64 51a13 13 0 1 1 0 26 13 13 0 0 1 0-26m0-3a16 16 0 1 0 0 32 16 16 0 0 0 0-32z" fill="#424242" opacity=".2"/></svg>