<svg viewBox="0 0 128 128" xmlns="http://www.w3.org/2000/svg"><path d="M31.2 18.8l-1-1c-2.6-1.8-5.7 1.5-4.3 4a8 8 0 0 0 1.5 2c2.5-.5 4-2.4 3.8-5z" fill="#F44336"/><path d="M80.4 4.7c-10.2-.5-17.3 7-25.3 12A26.7 26.7 0 0 1 38 21.5c-1.5-.2-3-.4-4.5-1-1-.4-1.6-1-2.2-1.7 0 2.6-1.4 4.5-3.8 5 3 2.9 8.1 3.6 11.9 3.7 9.9.3 17.4-4.5 25.1-10 5-3.7 16.7-11.6 21.8-4 2.7 4 0 13-4.7 14.7-3.6 1.3-2 7 1.6 5.8 6.2-2.2 9.8-9.4 10.1-15.7.4-8-5.2-13.2-12.9-13.6z" fill="#212121"/><path d="M80.4 4.7c-10.2-.5-17.3 7-25.3 12A26.7 26.7 0 0 1 38 21.5c-1.5-.2-3-.4-4.5-1-1-.4-1.6-1-2.2-1.7 0 2.6-1.4 4.5-3.8 5 3 2.9 8.1 3.6 11.9 3.7 9.9.3 17.4-4.5 25.1-10 5-3.7 16.7-11.6 21.8-4 2.7 4 0 13-4.7 14.7-3.6 1.3-2 7 1.6 5.8 6.2-2.2 9.8-9.4 10.1-15.7.4-8-5.2-13.2-12.9-13.6z" fill="#212121"/><path d="M79.4 5.7h1c3.7.2 7 1.6 9 4 2.1 2.2 3 5.2 2.9 8.5-.4 8-5.2 13.3-9.4 14.8a2 2 0 0 1-.7.1c-1 0-1.5-.8-1.6-1.6-.2-.9 0-2 1.3-2.4 2.4-.8 4.6-3.4 5.7-6.9 1.2-3.5 1-7-.5-9.3a8 8 0 0 0-7-3.6c-4.1 0-9.5 2.4-16.2 7.3-7.2 5.2-14.4 10-23.8 10h-.7c-3-.2-8.3-.7-11.3-3.5-.6-.5-1-1.1-1.3-1.7-.5-.9-.1-1.7 0-2 .5-.7 1.2-1.1 1.8-1.1.4 0 .7 0 1 .3l1 .8.1.2a7 7 0 0 0 2.5 1.8 25 25 0 0 0 7 1.1c5.2 0 10.2-1.6 15.5-5 1.8-1.1 3.5-2.4 5.2-3.6 5.9-4.2 11.4-8.2 18.5-8.2m0-1c-9.7 0-16.6 7-24.3 12A27.5 27.5 0 0 1 38 21.5c-1.5-.2-3-.4-4.5-1-1-.4-1.6-1-2.2-1.7l-1.2-1c-.4-.4-1-.5-1.5-.5-2 0-3.8 2.5-2.7 4.6.4.7 1 1.4 1.6 2 3 2.8 8.1 3.5 11.9 3.6h.7c9.6 0 16.9-4.6 24.4-10 3.4-2.6 10.2-7.2 15.7-7.2a7 7 0 0 1 6.1 3.2c2.7 4 0 13-4.7 14.7-3.2 1.1-2.3 6 .6 6l1-.2c6.2-2.2 9.8-9.4 10.1-15.7.4-8-5.2-13.2-12.9-13.6h-1z" fill="#eee" opacity=".2"/><radialGradient id="a" cx="60.4" cy="67" r="47.6" gradientTransform="rotate(17 61.8 67.9)" gradientUnits="userSpaceOnUse"><stop stop-color="#616161" offset=".2"/><stop stop-color="#212121" offset=".9"/></radialGradient><path d="M100 44.2l-3.3-11.4c-.5-2.1-2.3-3.4-4.4-4l-12.7-4c-2-.6-4.2-.5-5.9 1l-9.1 7.8a45.3 45.3 0 0 0-7.7 88.4 45.4 45.4 0 0 0 43-77.8z" fill="url(#a)"/><path d="M77.2 27.5c.5 0 1 0 1.5.2l12.7 4c1.4.3 2.2 1 2.4 1.8v.1L97.1 45c.1.6.5 1.1.9 1.5a42.5 42.5 0 1 1-68.4 19.7 42.4 42.4 0 0 1 35.3-29.6 3 3 0 0 0 1.6-.7l9.2-7.9c.3-.2.7-.5 1.5-.5m0-3c-1.3 0-2.5.4-3.5 1.2l-9.1 8a45.3 45.3 0 0 0 5.6 90.3A45.5 45.5 0 0 0 100 44.2l-3.3-11.4c-.5-2.2-2.3-3.4-4.4-4l-12.7-4-2.4-.3z" fill="#eee" opacity=".2"/><path d="M-32.3-8l2.8-4c.3-.4 1-.2 1 .3v4.3c0 1 1 1.4 1.8.9l9.7-7c.5-.3 1 .2.8.7L-24.1-.4c-.2.3 0 .8.4.8h6.5c.6 0 .8.8.2 1l-5.9 2.4c-.4.2-.4.8 0 1l5 1.5c.5.2.5 1 0 1l-5.8 1.3c-.4.1-.5.5-.3.8l6.1 10c.3.4-.3 1-.8.6l-7-6.1a.9.9 0 0 0-1.5.8l1.8 6.8c.2 1-.6 1-1.3.4l-4.8-6c-.7-.7-1.8-.3-2 .7l-.7 3.7c-.1 1.2-.8 1.2-1.3.1L-37 18c-.4-1-1.7-1.4-2.6-.6l-5.8 5.3c-.4.4-1 0-.9-.5l2.4-6.4a1 1 0 0 0-1.5-1.3l-6 3.7c-.5.3-1-.4-.6-.8l5.1-6.2c.3-.3 0-.8-.3-.9l-3.7-.8c-1 0-1.2-.8-.3-1.3l3-1.8c1-.6.9-2.1-.2-2.6l-4-1.8c-.4-.2-.3-1 .2-1l4-.5A2.3 2.3 0 0 0-46.5-3l-4.6-6.3c-.4-.4.3-1 .7-.7l6.5 5.2a.8.8 0 0 0 1.2-.9l-1-3c-.2-.5.4-1 .8-.5l2 2c.7.8 2 .4 2-.6l.7-5.4c0-.5.8-.6 1 0l2 5a1.7 1.7 0 0 0 3 .2z" fill="#FF9100"/><path d="M-29.1-.7c.5-.2.8.1.5.6-.5.6-1.4 1.9-1.8 2.2-.4.4-.2 1 .3 1.3l1.8.3c.3.2.3.7 0 .8l-1.7.4c-.5.1-.7.8-.3 1.2l1.7 2.4c.2.2 0 .5-.3.4l-2.5-1.2c-1-.6-2-.2-2.3.8l-.9 2.6c0 .3-.4.3-.5 0l-.6-2.2a.9.9 0 0 0-1.5-.4l-2.1 2.1c-.3.2-.6 0-.4-.4l1-2c.2-.4-.2-1.3-.6-1.2l-2-.2c-.2 0-.5-.2-.5-.6 0-.2.1-.3.3-.4l2.3-1.3c.9-.4 1.1-1.5.6-2.3l-1.8-2.4c-.3-.4 0-1 .6-.8l3.2 2.3a1 1 0 0 0 1.3-.7L-35-2c0-.3.4-.4.5-.1l1 2c.4.8 1.3 1 2 .7L-29-.7z" fill="#FFEA00"/><path d="M-40.9 40.5a3.9 3.9 0 0 0 6.4.3 3.4 3.4 0 0 0 5.2 2l2.6-2-3.2 5a2.7 2.7 0 0 0 1.4 4c-.5.6-.8 1.3-.8 2 0 .9.5 1.7 1.1 2.1a2.7 2.7 0 0 0-1.6 4.1l.6 1.1a3.1 3.1 0 0 0-4.1 3.3l-.4-.5-.2-.2a3.4 3.4 0 0 0-5.6 1.8 3.8 3.8 0 0 0-5.5-.3l-.8.7c.4-1 .2-2-.4-2.9a3.2 3.2 0 0 0-2.6-1.4 2.7 2.7 0 0 0-2-4 3.7 3.7 0 0 0 .3-5.8 4.4 4.4 0 0 0 2.6-4.9h.4a3 3 0 0 0 2.9-2.1h.5c1.5 0 2.7-1 3.2-2.3m-.8-6.8c-.3 0-.5.2-.5.5l-.7 5.3a1.2 1.2 0 0 1-2 .7l-2-2a.5.5 0 0 0-.4-.2c-.3 0-.6.3-.5.6l1 3c.3.6-.2 1.1-.7 1.1-.1 0-.3 0-.4-.2l-6.5-5.1a.5.5 0 0 0-.3-.1c-.4 0-.7.4-.4.8l4.7 6.3c1 1.4.2 3.4-1.5 3.5l-4.2.5c-.6 0-.7.8-.2 1l4 1.8c1 .5 1.2 2 .1 2.6l-3 1.8c-.8.6-.6 1.3.4 1.4l3.6.8c.5 0 .7.5.4.8l-5.2 6.2c-.2.4 0 .9.4.9h.3l6-3.7.5-.2a1 1 0 0 1 1 1.4l-2.4 6.4c-.1.4.2.7.5.7l.4-.1 5.8-5.4c.3-.3.7-.4 1.1-.4.6 0 1.3.4 1.5 1l1.5 2.5c.2.5.5.8.8.8.2 0 .4-.3.5-1l.8-3.7c0-.6.6-1 1.1-1 .3 0 .6 0 .8.3l4.8 6c.3.3.7.4.9.4.3 0 .5-.2.4-.8l-1.8-6.7a.9.9 0 0 1 1.5-.9l7 6.2h.4c.4 0 .7-.3.4-.7l-6.1-10c-.2-.3 0-.6.3-.7l5.8-1.3c.5-.1.5-.8 0-1l-5-1.6a.5.5 0 0 1 0-1l6-2.3c.5-.2.3-1-.2-1h-6.5c-.4 0-.7-.5-.5-.9l7.9-12.4c.2-.3 0-.8-.4-.8-.1 0-.2 0-.3.2l-9.7 7a1.1 1.1 0 0 1-1.9-1v-4.2a.5.5 0 0 0-1-.3l-2.8 3.9c-.3.5-.9.7-1.4.7-.6 0-1.3-.4-1.6-1l-2-5a.6.6 0 0 0-.5-.4z" fill="#424242" opacity=".2"/><linearGradient id="b" x1="28.7" x2="28.8" y1="2.7" y2="14" gradientUnits="userSpaceOnUse"><stop stop-color="#FF9100" offset=".4"/><stop stop-color="#FF8A04" offset=".5"/><stop stop-color="#FF760F" offset=".6"/><stop stop-color="#FF5621" offset=".8"/><stop stop-color="#FF2A39" offset=".9"/><stop stop-color="#FF1744" offset="1"/></linearGradient><path fill="url(#b)" d="M28.7 2.7L30.3 14h-3z"/><linearGradient id="c" x1="13.3" x2="24.5" y1="13.8" y2="13.8" gradientUnits="userSpaceOnUse"><stop stop-color="#FF9100" offset=".4"/><stop stop-color="#FF8A04" offset=".5"/><stop stop-color="#FF760F" offset=".6"/><stop stop-color="#FF5621" offset=".8"/><stop stop-color="#FF2A39" offset=".9"/><stop stop-color="#FF1744" offset="1"/></linearGradient><path fill="url(#c)" d="M13.3 9.9l11.2 5.3-1.6 2.6z"/><linearGradient id="d" x1="13.5" x2="23" y1="25.3" y2="22.7" gradientUnits="userSpaceOnUse"><stop stop-color="#FF9100" offset=".4"/><stop stop-color="#FF8A04" offset=".5"/><stop stop-color="#FF760F" offset=".6"/><stop stop-color="#FF5621" offset=".8"/><stop stop-color="#FF2A39" offset=".9"/><stop stop-color="#FF1744" offset="1"/></linearGradient><path fill="url(#d)" d="M11.5 25.2l11.3-4 .6 2.9z"/><linearGradient id="e" x1="19.6" x2="26.1" y1="36.3" y2="27.2" gradientUnits="userSpaceOnUse"><stop stop-color="#FF9100" offset=".4"/><stop stop-color="#FF8A04" offset=".5"/><stop stop-color="#FF760F" offset=".6"/><stop stop-color="#FF5621" offset=".8"/><stop stop-color="#FF2A39" offset=".9"/><stop stop-color="#FF1744" offset="1"/></linearGradient><path fill="url(#e)" d="M27.3 28l-7.6 8.6 5.2-10.2z"/><linearGradient id="f" x1="29.6" x2="34.9" y1="38.6" y2="31.1" gradientTransform="rotate(-45.1 29.9 34.8)" gradientUnits="userSpaceOnUse"><stop stop-color="#FF9100" offset=".4"/><stop stop-color="#FF8A04" offset=".5"/><stop stop-color="#FF760F" offset=".6"/><stop stop-color="#FF5621" offset=".8"/><stop stop-color="#FF2A39" offset=".9"/><stop stop-color="#FF1744" offset="1"/></linearGradient><path fill="url(#f)" d="M32 28.4l.5 9.4-2.9-9z"/><linearGradient id="g" x1="34.5" x2="41.5" y1="14.6" y2="6.6" gradientUnits="userSpaceOnUse"><stop stop-color="#FF1744" offset="0"/><stop stop-color="#FF2A39" offset=".1"/><stop stop-color="#FF5621" offset=".2"/><stop stop-color="#FF760F" offset=".4"/><stop stop-color="#FF8A04" offset=".5"/><stop stop-color="#FF9100" offset=".6"/></linearGradient><path fill="url(#g)" d="M33 14l8.7-7.5-6.4 9.5z"/><circle cx="22.9" cy="10.2" r=".9" fill="#F44336"/><circle cx="17.8" cy="19.4" r="1" fill="#F44336"/><circle cx="38" cy="17.4" r="1" fill="#F44336"/><circle cx="26.3" cy="32.9" r=".6" fill="#F44336"/><circle cx="17.4" cy="29.5" r="1" fill="#F44336"/></svg>