<svg viewBox="0 0 128 128" xmlns="http://www.w3.org/2000/svg"><radialGradient id="a" cx="65" cy="56.8" r="55.9" gradientUnits="userSpaceOnUse"><stop stop-color="#FAFAFA" offset=".7"/><stop stop-color="#E0E0E0" offset="1"/></radialGradient><path d="M124 63.8c0-4.9-1.5-9.5-4-13.3a17.6 17.6 0 0 0-14.7-27.3h-.2a15.8 15.8 0 0 0-22.6-12.8A24.7 24.7 0 0 0 47 12.9a24.3 24.3 0 0 0-31.8 34.7 24.5 24.5 0 0 0 13 43.7c3.1.3 6.2 0 9-.8A21.1 21.1 0 0 0 75.6 101a21 21 0 0 0 34-14.7A24.5 24.5 0 0 0 124 63.8z" fill="url(#a)"/><radialGradient id="b" cx="25.6" cy="103.3" r="9.1" gradientUnits="userSpaceOnUse"><stop stop-color="#FAFAFA" offset=".7"/><stop stop-color="#E0E0E0" offset="1"/></radialGradient><path d="M26.5 94.3a9 9 0 0 0-1.8 18 9 9 0 0 0 1.8-18z" fill="url(#b)"/><radialGradient id="c" cx="10.1" cy="118.1" r="6" gradientUnits="userSpaceOnUse"><stop stop-color="#FAFAFA" offset=".7"/><stop stop-color="#E0E0E0" offset="1"/></radialGradient><path d="M10.7 112.1c-3.4-.3-6.3 2.1-6.7 5.4s2.1 6.3 5.5 6.6c3.3.3 6.2-2 6.6-5.4s-2.1-6.2-5.5-6.6z" fill="url(#c)"/><g fill="#424242" opacity=".2"><path d="M66 7.1a22 22 0 0 1 14.5 5.5 3 3 0 0 0 3.3.5 12.7 12.7 0 0 1 18.3 10.2 2.9 2.9 0 0 0 3 2.7h.3a14.7 14.7 0 0 1 12.1 22.8 3 3 0 0 0 0 3.3 21.6 21.6 0 0 1-9.3 31.4 3 3 0 0 0-1.7 2.5 18 18 0 0 1-29.2 12.6 3 3 0 0 0-4.2.5 18 18 0 0 1-14.6 7.4 18 18 0 0 1-18.1-16.3 3 3 0 0 0-3-2.7l-.8.1a21.8 21.8 0 0 1-22.7-7.2A21.4 21.4 0 0 1 17.2 50a3 3 0 0 0 .6-4 21.3 21.3 0 0 1 27.9-30.4l1.4.3a3 3 0 0 0 2.3-1A21.7 21.7 0 0 1 66 7m0-3c-7.6 0-14.3 3.4-18.9 8.8a24.3 24.3 0 0 0-31.8 34.7 24.5 24.5 0 0 0 15.4 43.8c2.3 0 4.6-.3 6.7-.9a21.1 21.1 0 0 0 38 10.4 21 21 0 0 0 34-14.7A24.5 24.5 0 0 0 120 50.5a17.6 17.6 0 0 0-14.7-27.3h-.2a15.8 15.8 0 0 0-22.6-12.8A24.7 24.7 0 0 0 66 4.1z"/><path d="M25.6 97.3h.6a6 6 0 1 1-1.2 12 6 6 0 0 1 .6-12m0-3a9 9 0 1 0 0 18 9 9 0 1 0 0-18zM10 115a3.2 3.2 0 0 1 2.4 1.2c.5.6.8 1.4.7 2.2a3 3 0 0 1-3.4 2.7 3 3 0 0 1-2.7-3.3 3 3 0 0 1 3-2.7m0-3a6 6 0 1 0 0 12 6 6 0 1 0 0-12z"/></g></svg>