<svg viewBox="0 0 128 128" xmlns="http://www.w3.org/2000/svg"><linearGradient id="a" x1="65.8" x2="65.8" y1="29.2" y2="121.8" gradientUnits="userSpaceOnUse"><stop stop-color="#EF5350" offset="0"/><stop stop-color="#E0403E" offset=".6"/><stop stop-color="#D32F2F" offset="1"/></linearGradient><path d="M28.8 90.3c10.8-3.1 39-12 76-10 1.1 0 1.3 1.8.1 2C87.7 85.8 44.4 95 32.3 99.7a4 4 0 0 1-5-2l-1-1.8a4 4 0 0 1 2.5-5.6z" fill="url(#a)"/><linearGradient id="b" x1="64" x2="64" y1="29.2" y2="121.8" gradientUnits="userSpaceOnUse"><stop stop-color="#EF5350" offset="0"/><stop stop-color="#E0403E" offset=".6"/><stop stop-color="#D32F2F" offset="1"/></linearGradient><path d="M7 113.3c17-4.2 88.4-22.1 116-21.8 1.2 0 1.4 1.7.2 2-21.5 4.6-95.6 21.8-112.6 30.1a4 4 0 0 1-5.5-2.3l-.8-2.4c-.9-2.7.4-5 2.7-5.6z" fill="url(#b)"/><linearGradient id="c" x1="23.7" x2="23.7" y1="29.2" y2="121.8" gradientUnits="userSpaceOnUse"><stop stop-color="#EF5350" offset="0"/><stop stop-color="#E0403E" offset=".6"/><stop stop-color="#D32F2F" offset="1"/></linearGradient><path d="M6.5 27.3C3 28.8 3.5 22 5.9 20 13 14.5 30.1 8.1 40 4.2c2-.8 4 1.3 3.1 3.3C37.8 19.7 22 55.3 12 86.7c-.5 1.6-3.8 1.7-4 0-.9-9.2 5.5-34.5 19.1-64.2.5-1-.6-2.2-1.7-2-4 1-10.1 3.1-18.9 6.8z" fill="url(#c)"/><linearGradient id="d" x1="80.9" x2="80.9" y1="29.2" y2="121.8" gradientUnits="userSpaceOnUse"><stop stop-color="#EF5350" offset="0"/><stop stop-color="#E0403E" offset=".6"/><stop stop-color="#D32F2F" offset="1"/></linearGradient><path d="M111.8 8.7l-1.8-.4c-30-1-42.2 8.5-42.7 8.9a4 4 0 0 0-.6 5.6 3.5 3.5 0 0 0 2.9 1.5c.2 0 .4.2.5.4 1.2 5 1.4 12-.8 20.2C65.6 59.1 57.3 67 53 67h-.7c-1.7-.6-3.5-3.3-4.5-7a41.8 41.8 0 0 1 .7-20.6c2.7-10 7.5-16.8 11.7-20a17 17 0 0 0 4.5-5.5c.5-1 2.8-5.5.1-5.6-9.8 0-20.5 12-25 28.8C35 55.5 39.5 72.8 50 75.6c1 .3 2 .4 3 .4 9.9 0 20.6-12 25-28.8 2.5-9.3 2.6-18.3.7-25.3-.3-.8.2-1.7 1-2 3-1 7-2 12-2.8.8 0 1.3.8.8 1.5A53.7 53.7 0 0 0 83.8 37C79 55.5 83.5 72.8 94 75.6c1 .3 2 .4 3 .4 9.9 0 20.6-12 25-28.8 5-18.4.4-35.7-10.2-38.5zm1.5 36.2C109.6 59.1 101.3 67 97 67h-.7c-1.7-.6-3.5-3.3-4.5-7a41.8 41.8 0 0 1 .7-20.6c3.8-14.2 12-22.1 16.3-22.1h.7c3.7 1 8 12.3 3.8 27.6z" fill="url(#d)"/><path d="M86.3 83.1A537.9 537.9 0 0 0 30.9 97a1 1 0 0 1-1-.6l-.9-1.8a1 1 0 0 1 .6-1.4l2-.6c9.7-2.8 29.2-8.5 54.7-9.5m7.4-3.1c-31.5 0-55.2 7.5-64.9 10.3a4 4 0 0 0-2.4 5.6l.9 1.9a4 4 0 0 0 5 2c12.2-4.8 55.5-14 72.6-17.5 1.2-.2 1-2-.2-2l-11-.3zm-5.9 18.5c-29.4 7-66.8 16.7-78.5 22.4a1 1 0 0 1-.4.1 1 1 0 0 1-1-.7l-.8-2.4a2 2 0 0 1 0-1.3l.6-.4.6-.1c25-6.3 55.1-13.3 79.5-17.6m34.5-7c-28 0-98.5 17.6-115.3 21.8-2.3.6-3.6 3-2.7 5.6l.8 2.4a4 4 0 0 0 3.8 2.7c.6 0 1.1-.1 1.7-.4 17-8.3 91.1-25.5 112.6-30.2 1.2-.2 1-2-.2-2h-.7zm-82.4-84a837 837 0 0 0-28.4 71c1.7-10.9 7-30 18.3-54.7.6-1.4.5-3-.3-4.2a4.6 4.6 0 0 0-4.8-2c-4.1 1-10 3-17.6 6.2.2-.6.4-1.2.7-1.4a156 156 0 0 1 29.6-14l2.5-1m1-3.4c-.3 0-.6 0-.9.2C30 8.2 13 14.6 6 20c-2.3 1.7-2.9 7.5-.4 7.5.3 0 .6 0 .9-.2a130 130 0 0 1 19.2-6.8c1 0 1.8 1 1.4 2-13.6 29.7-20 55-19.1 64.2 0 .9 1 1.3 1.8 1.3 1 0 2-.4 2.2-1.3 9.9-31.4 25.7-67 31.1-79.2C44 5.8 42.6 4 41 4zm64.5 7.2a127.5 127.5 0 0 1 5.6.4c8.8 2.3 12.5 18.3 8.1 34.9-4 14.8-13.6 26.5-22 26.5-.8 0-1.6-.1-2.3-.3-4-1-7.1-5-8.8-11.3a47.1 47.1 0 0 1 .7-23.6 50.8 50.8 0 0 1 8.2-17.4c1-1.2 1-2.8.4-4.1a3.9 3.9 0 0 0-4-2.1 68 68 0 0 0-12.6 3 4.6 4.6 0 0 0-3 5.5 47 47 0 0 1-.6 23.8c-4 14.8-13.6 26.5-22 26.5-.8 0-1.6-.1-2.3-.3-4-1-7.1-5-8.8-11.3a47.1 47.1 0 0 1 .7-23.6c3.6-13.5 12-24.3 19.8-26.2a15 15 0 0 1-4.2 5.4 41.1 41.1 0 0 0-12.7 21.6 46 46 0 0 0-.7 22c.6 2.4 2.5 8.1 6.7 9.2l1.4.2c7.9 0 16.1-12.6 19.2-24.3 2-7.8 2.3-15.5.8-21.7a3.5 3.5 0 0 0-3.5-2.7L69 21c-.3-.3-.2-.6-.2-.7s.1-.5.4-.7c.1 0 10.6-8.3 36.2-8.3M97 70c7.9 0 16.1-12.6 19.2-24.3 2-7.2 2.3-14.5 1-20.6-1.2-5.9-3.7-9.8-7-10.6l-1.4-.2c-7.9 0-16.1 12.6-19.2 24.3a46 46 0 0 0-.7 22c.6 2.5 2.5 8.1 6.7 9.2l1.4.2m8.4-61.8c-26.7 0-37.6 8.6-38 9a4 4 0 0 0-.7 5.6c1 1.3 2.2 1.5 2.8 1.5.3 0 .5.2.6.4 1.2 5 1.4 12-.8 20.2C65.5 59.1 57.3 67 53 67h-.7c-1.7-.6-3.5-3.3-4.5-7a41.8 41.8 0 0 1 .7-20.6c2.6-10 7.5-16.8 11.7-20a17 17 0 0 0 4.5-5.5c.5-1 2.8-5.5.1-5.6-9.8 0-20.5 12-25 28.8C35 55.5 39.5 72.8 50 75.6c1 .3 2 .4 3 .4 9.9 0 20.6-12 25-28.8 2.5-9.3 2.6-18.3.7-25.3-.3-.8.2-1.7 1-2 3-1 7-2 12-2.8h.1c.7 0 1.2.9.7 1.5A53.7 53.7 0 0 0 83.8 37C79 55.5 83.5 72.8 94 75.6c1 .3 2 .4 3 .4 9.9 0 20.6-12 25-28.8 5-18.4.4-35.7-10.2-38.5l-1.8-.4h-4.6zM97 67h-.7c-1.7-.6-3.5-3.3-4.5-7a41.8 41.8 0 0 1 .7-20.6c3.8-14.2 12-22.1 16.3-22.1h.7c3.7 1 8 12.3 3.8 27.6C109.5 59.1 101.3 67 97 67z" fill="#424242" opacity=".2"/></svg>