<svg viewBox="0 0 128 128" xmlns="http://www.w3.org/2000/svg"><radialGradient id="a" cx="37.1" cy="15.6" r="49.1" fx="42.1" fy="-33.3" gradientTransform="rotate(-23.8 177.7 66)" gradientUnits="userSpaceOnUse"><stop stop-color="#90CAF9" offset=".5"/><stop stop-color="#42A5F5" offset=".9"/></radialGradient><path d="M61.8 93.4c-.6 16.9-14.2 30.4-31 30.2S4.1 111 4.1 97.6C4.2 83 11.4 72 15 62.8c3.8-10.1 4-18.9 5-24a3 3 0 0 1 4.8-1.8c10.5 8 38 31.2 37.1 56.4z" fill="url(#a)"/><path d="M23 39.4c8.6 6.6 36.7 29.7 35.8 53.9a27.9 27.9 0 0 1-27.6 27.3h-.4a22.5 22.5 0 0 1-23.6-23c0-10.2 3.9-18.7 7.3-26.3a121 121 0 0 0 3.2-7.5c3-7.8 3.9-14.8 4.5-20l.7-4.4m0-3a3 3 0 0 0-3 2.5c-.9 5-1.2 13.7-5 23.8C11.4 72 4.2 83.1 4.2 97.6c0 13.5 9.6 25.7 26.6 26h.4a31 31 0 0 0 30.6-30.2C62.8 68 35.2 44.9 24.7 37a3 3 0 0 0-1.8-.6z" fill="#424242" opacity=".2"/><radialGradient id="b" cx="106.4" cy="38.1" r="43.9" gradientTransform="matrix(.594 -.8763 .8777 .6068 -15.2 144.3)" gradientUnits="userSpaceOnUse"><stop stop-color="#90CAF9" offset=".5"/><stop stop-color="#42A5F5" offset=".9"/></radialGradient><path d="M116 89.1c6.2 11.1 3 25-7.8 31.5a19 19 0 0 1-27-6.2c-5.8-9.3-5.6-19.2-7.1-26.5-1.6-8-4.9-13.7-6.3-17.3-.6-1.5.6-3.2 2.3-3 9.8 1 36.4 5 45.8 21.5z" fill="url(#b)"/><path d="M71.1 70.7c9.2 1 33.8 5.1 42.2 20a20 20 0 0 1-6.6 27.4 18 18 0 0 1-9.3 2.7c-5.4 0-10.6-3-13.7-8-4-6.4-4.9-13.3-5.7-19.4l-1-6.1c-1.2-6.2-3.4-11.1-5-14.7l-.9-1.9m-1.2-3.1a2.2 2.2 0 0 0-2 3C69.1 74.2 72.4 80 74 88c1.5 7.3 1.4 17.2 7 26.5a19.2 19.2 0 0 0 27.2 6.2 23.1 23.1 0 0 0 7.6-31.5c-9.4-16.5-36-20.6-45.8-21.5h-.2z" fill="#424242" opacity=".2"/><radialGradient id="c" cx="130.7" cy="-34.8" r="62.3" gradientTransform="rotate(-78.4 125 31.4)" gradientUnits="userSpaceOnUse"><stop stop-color="#90CAF9" offset=".5"/><stop stop-color="#42A5F5" offset=".9"/></radialGradient><path d="M111.3 12.9c13.4 10.3 16.6 29.1 6.6 42.8S92.4 70 81.3 62.2c-11.7-8.4-16.6-20.7-22.2-28.9-6-8.9-13-14.2-16.5-18a3 3 0 0 1 1.3-4.9c12.5-4 47.4-13 67.4 2.5z" fill="url(#c)"/><path d="M80.7 7.2c12.1 0 21.8 2.7 28.8 8a27.8 27.8 0 0 1 6 38.7 23.3 23.3 0 0 1-18.8 10.3c-4.8 0-9.5-1.5-13.6-4.5-8.3-5.9-13-14-17.2-21a87.5 87.5 0 0 0-18-22.2 87.5 87.5 0 0 1-3.1-3.2C52 11 66.2 7.2 80.7 7.2m0-3c-15 0-29.6 4-36.8 6.2a3 3 0 0 0-1.3 5c3.6 3.7 10.5 9 16.6 18 5.5 8.1 10.4 20.4 22.2 28.8 4.5 3.2 9.9 5 15.3 5a26 26 0 0 0 21.2-11.6 30.9 30.9 0 0 0-6.6-42.8 49.9 49.9 0 0 0-30.6-8.6z" fill="#424242" opacity=".2"/></svg>