<svg viewBox="0 0 128 128" xmlns="http://www.w3.org/2000/svg"><path d="M83.19 33.96c6.22-2.2 9.77-9.39 10.11-15.67.42-7.91-5.18-13.2-12.89-13.59-10.18-.51-17.33 6.91-25.28 12.02-5.23 3.36-10.89 5.32-17.18 4.74-2.15-.2-6.02-1.01-6.89-2.63-1.85-3.39-7.03-.37-5.18 3.03 2.43 4.47 8.98 5.55 13.5 5.67 9.89.25 17.43-4.52 25.12-10.12 4.93-3.6 16.74-11.53 21.83-3.91 2.7 4.04-.04 13.03-4.73 14.68-3.62 1.27-2.07 7.07 1.59 5.78z" fill="#212121"/><ellipse transform="rotate(-73.889 27.748 24.09)" cx="27.75" cy="24.09" rx="15.34" ry="15.34" fill="#F57F17"/><ellipse transform="rotate(-73.889 27.748 24.09)" cx="27.75" cy="24.09" rx="6.59" ry="6.59" fill="#FFEB3B"/><radialGradient id="a" cx="60.375" cy="67.033" r="47.649" gradientTransform="rotate(17.001 61.803 67.877)" gradientUnits="userSpaceOnUse"><stop stop-color="#616161" offset=".231"/><stop stop-color="#212121" offset=".928"/></radialGradient><path d="M99.96 44.22l-3.23-11.43c-.56-2.13-2.31-3.39-4.42-4.03l-12.69-3.88c-2.11-.64-4.26-.58-5.92.87l-9.14 7.89C47.31 35.77 32.1 47.63 26.69 65.33c-7.33 23.99 6.18 49.32 30.17 56.66 23.99 7.33 49.39-6.19 56.72-30.18 5.43-17.7-.5-36.18-13.62-47.59z" fill="url(#a)"/><path d="M77.21 27.49c.46 0 .98.09 1.54.26l12.69 3.88c1.36.42 2.17 1.06 2.39 1.92 0 .02.01.04.02.06l3.23 11.43c.16.56.48 1.07.92 1.45 12.63 10.99 17.63 28.43 12.73 44.45-2.71 8.87-8.09 16.43-15.57 21.88-7.23 5.27-16.11 8.17-25 8.17-4.19 0-8.36-.63-12.4-1.86-10.84-3.31-19.74-10.64-25.06-20.62-5.32-9.99-6.43-21.45-3.12-32.29 4.87-15.93 18.75-27.54 35.37-29.59a2.96 2.96 0 0 0 1.59-.71L75.7 28c.25-.22.68-.51 1.51-.51m0-3c-1.27 0-2.48.37-3.5 1.26l-9.14 7.89C47.32 35.77 32.11 47.63 26.7 65.33c-7.33 23.99 6.18 49.32 30.17 56.66 4.42 1.35 8.89 1.99 13.28 1.99 19.45 0 37.46-12.61 43.44-32.18 5.41-17.7-.52-36.18-13.63-47.59l-3.23-11.43c-.56-2.13-2.31-3.39-4.42-4.03l-12.69-3.88c-.8-.24-1.61-.38-2.41-.38z" fill="#eee" opacity=".2"/><ellipse transform="rotate(-73.889 27.748 24.09)" cx="27.75" cy="24.09" rx="6.59" ry="6.59" fill="#FFEB3B"/><path d="M28 9v2.75c1 0 2.18.16 3.3.49 6.54 1.89 10.25 8.74 8.37 15.28-1.52 5.25-6.42 8.92-11.88 8.92-1.15 0-2.33-.16-3.45-.49-6.54-1.89-10.2-8.74-8.31-15.28C17.55 15.41 22 11.75 28 11.75V9m-.26-.25c-6.66 0-12.79 4.37-14.73 11.09-2.35 8.14 2.34 16.64 10.48 18.99 1.42.41 2.85.61 4.26.61 6.66 0 12.79-4.37 14.73-11.09C44.83 20.21 40.14 11.71 32 9.36c-1.42-.42-2.85-.61-4.26-.61z" fill="#424242" opacity=".2"/></svg>