<svg viewBox="0 0 128 128" xmlns="http://www.w3.org/2000/svg"><linearGradient id="a" x1="-93" x2="-93" y1="-73.4" y2="-17.3" gradientUnits="userSpaceOnUse"><stop stop-color="#eee" offset="0"/><stop stop-color="#EAEAEA" offset=".3"/><stop stop-color="#ddd" offset=".6"/><stop stop-color="#C8C8C8" offset=".9"/><stop stop-color="#BDBDBD" offset="1"/></linearGradient><path d="M-42.1-44.7L-48-72.1c-.5-2.2-2.1-3.9-4-3.8h-60.6c-.7 0-2.6 0-4.2 1.7-4.7 5.3-12.5 20.5-13.7 22-.1.2-6.3 2.4-9.1 4-1.2.7-1.8 2.2-2 3.7l-2.4 20.8c-.6 4 1.7 5.7 5.4 5.7h91.5c2.8 0 5.1-.7 5.1-5.7v-19.8l-.1-1.2z" fill="url(#a)"/><path d="M-52-73c.4 0 .9.6 1 1.4a7598 7598 0 0 1 6 28.1v19.8c0 2.8-.5 2.7-2.1 2.7h-91.5c-1.3 0-2-.2-2.3-.5s-.3-1-.1-1.8l2.5-20.9c0-.8.3-1.3.4-1.3 1.9-1.2 5.9-2.7 7.5-3.4 1.5-.5 1.9-.7 2.4-1.3l3-5c2.9-5.1 7.6-13.6 10.7-17 .5-.6 1.2-.8 1.8-.8H-52m0-3h-60.6c-.7 0-2.6 0-4.2 1.8-4.7 5.3-12.5 20.5-13.7 22-.1.2-6.3 2.4-9.1 4-1.1.7-1.8 2.2-2 3.7l-2.4 20.7c-.6 4.1 1.7 5.8 5.4 5.8h91.5c2.8 0 5.1-.7 5.1-5.7v-19.8l-.1-1.2-5.9-27.5c-.5-2.2-2.1-3.8-4-3.8z" fill="#424242" opacity=".2"/><linearGradient id="b" x1="46.4" x2="46.4" y1="-117.5" y2="-61.4" gradientUnits="userSpaceOnUse"><stop stop-color="#616161" offset="0"/><stop stop-color="#5D5D5D" offset=".2"/><stop stop-color="#505050" offset=".5"/><stop stop-color="#3B3B3B" offset=".8"/><stop stop-color="#212121" offset="1"/></linearGradient><path d="M97.3-89l-5.8-27.3c-.5-2.3-2.1-3.8-4-3.8H26.9c-.7 0-2.6 0-4.2 1.7C18-113 10.2-97.8 9-96.3c-.1.2-6.3 2.4-9.1 4-1.2.7-1.8 2.2-2 3.7l-2.4 20.8C-5.1-63.7-2.8-62 .9-62h91.5c2.8 0 5-.8 5-5.8v-21z" fill="url(#b)"/><path d="M87.5-117c.4 0 .9.5 1 1.3a10841.5 10841.5 0 0 1 6 28v19.8c0 2.8-.5 2.8-2.1 2.8H.9c-1.3 0-2-.3-2.3-.5s-.3-1-.2-1.8v-.1L1-88.4c.1-.8.4-1.3.5-1.3C3.3-91 7.2-92.4 8.9-93c1.5-.6 1.9-.8 2.4-1.4l3-5c2.8-5 7.6-13.5 10.6-17 .6-.6 1.3-.7 2-.7h60.6m0-3H26.8a5 5 0 0 0-4 1.8C18-113.1 10.1-98 9-96.3c-.1 0-6.3 2.3-9.1 4-1.2.6-1.8 2.1-2 3.6l-2.4 20.8c-.6 4.1 1.7 5.8 5.4 5.8h91.5c2.8 0 5-.8 5-5.8v-21l-6-27.4c-.4-2.3-2-3.8-3.9-3.8z" fill="#eee" opacity=".2"/><path d="M110.3 124H17.1c-7.3 0-13.3-6-13.3-13.4V17.4c0-7.4 6-13.3 13.3-13.3h93.2c7.4 0 13.4 6 13.4 13.3v93.2c0 7.4-6 13.3-13.4 13.3z" fill="#616161"/><linearGradient id="c" x1="63.7" x2="63.7" y1="7.9" y2="120" gradientUnits="userSpaceOnUse"><stop stop-color="#F5F5F5" offset="0"/><stop stop-color="#E0E0E0" offset="1"/></linearGradient><path d="M63.7 8a56 56 0 1 0 .1 112.1A56 56 0 0 0 63.8 8zm0 70a14 14 0 1 1 0-28 14 14 0 1 1 0 28z" fill="url(#c)"/><path d="M98.8 99c6-5.9 10.1-13 12.4-20.6L77.5 61.1a14 14 0 0 1-16.6 16.6L78 111.5A49.4 49.4 0 0 0 98.8 99zM28.7 29c-6 5.9-10.1 13-12.4 20.6L50 66.9a14 14 0 0 1 16.6-16.6L49.3 16.5A49.3 49.3 0 0 0 28.7 29z" fill="#fff" opacity=".7"/><path d="M63.7 41.7A22.4 22.4 0 1 0 86 64c0-12.4-10-22.4-22.4-22.4zm0 36.3a14 14 0 1 1 0-28 14 14 0 1 1 0 28z" fill="#BDBDBD"/><path d="M120.6 79H83.3a3.1 3.1 0 0 1-3.3-3V52c0-1.7 1.4-3.1 3.2-3.1h37.3v30z" fill="#616161"/><path d="M120.6 76H85c-.9 0-1.5-.7-1.5-1.6V53.5c0-.8.6-1.5 1.5-1.5h35.7v24z" fill="#F5F5F5"/><path d="M110.3 7c5.7 0 10.4 4.7 10.4 10.4v93.2c0 5.7-4.7 10.3-10.4 10.3H17.1c-5.7 0-10.3-4.6-10.3-10.3V17.4c0-5.7 4.6-10.3 10.3-10.3h93.2m0-3H17.1A13.2 13.2 0 0 0 3.8 17.4v93.2c0 7.4 6 13.3 13.3 13.3h93.2c7.4 0 13.4-6 13.4-13.3V17.4c0-7.4-6-13.3-13.4-13.3z" fill="#eee" opacity=".2"/></svg>