<svg viewBox="0 0 128 128" xmlns="http://www.w3.org/2000/svg"><path d="M119.5 108H8.2a4.3 4.3 0 0 1-4.3-4.3V36.2c0-2.4 2-4.3 4.3-4.3h111.3c2.4 0 4.4 2 4.4 4.3v67.5c0 2.4-2 4.3-4.4 4.3z" fill="#1565C0"/><linearGradient id="a" x1="63.9" x2="63.9" y1="96" y2="31.7" gradientUnits="userSpaceOnUse"><stop stop-color="#1E88E5" offset="0"/><stop stop-color="#42A5F5" offset="1"/></linearGradient><path d="M119.7 95.9H8a4.2 4.2 0 0 1-4.2-4.2V36.2c0-2.4 2-4.3 4.4-4.3h111.2c2.4 0 4.4 2 4.4 4.3v55.4c0 2.4-2 4.3-4.2 4.3z" fill="url(#a)"/><circle cx="84.7" cy="63.9" r="18.5" fill="#1565C0" opacity=".5"/><path d="M106.3 39c.9 5.5 5.2 9.7 10.6 10.6v28.5a13 13 0 0 0-10.6 10.6h-85a13 13 0 0 0-10.4-9.9V50.3c5.6-1 10-5.5 10.6-11.2h84.8m1.9-2H19.6v.6c0 6-4.8 10.7-10.7 10.7v32.3c5.7 0 10.3 4.4 10.7 10h88.6c0-6 4.8-10.7 10.7-10.7V47.8c-6 0-10.7-4.8-10.7-10.7z" fill="#1565C0"/><path fill="#FFECB3" d="M52.9 31.9h22v76.2h-22z"/><path fill="#FFB74D" opacity=".5" d="M52.9 95.9h22v12.2h-22z"/><path d="M119.5 32.9c1.9 0 3.4 1.5 3.4 3.4v67.4c0 1.9-1.5 3.4-3.4 3.4H8.2a3.4 3.4 0 0 1-3.3-3.4V36.2c0-1.8 1.5-3.3 3.3-3.3h111.3m0-1H8.2c-2.4 0-4.3 2-4.3 4.4v67.4c0 2.4 2 4.4 4.3 4.4h111.3c2.4 0 4.4-2 4.4-4.4V36.2c0-2.4-2-4.3-4.4-4.3z" fill="#424242" opacity=".2"/><path d="M41.9 68.4h-8c-.3 0-.5.2-.5.5.1 2.8.9 5 2.2 6.5a7.5 7.5 0 0 0 6 2.5c1.5 0 2.9-.2 4.2-.5a1 1 0 0 1 1.1.8l.2 1.9c0 .4-.2.9-.7 1a26 26 0 0 1-4.8.5c-4 0-7-1.1-9.2-3.4a13.7 13.7 0 0 1-3.5-9.4c0-.2-.3-.4-.5-.4h-3.2a.6.6 0 0 1-.6-.6V66c0-.3.3-.6.6-.6h3.2c.2 0 .4-.2.4-.4v-2.3c0-.3-.2-.5-.4-.5h-3.2a.6.6 0 0 1-.6-.6v-1.8c0-.3.3-.5.6-.5h3.2c.2 0 .4-.2.5-.5.2-3.9 1.4-7 3.5-9.1 2.3-2.3 5.3-3.4 9.1-3.4 1.5 0 3 .2 4.9.5.5.1.8.6.7 1l-.2 1.9c0 .6-.6 1-1.2.8-1.4-.3-2.7-.5-4.1-.5-2.6 0-4.6.8-6 2.4-1.3 1.5-2 3.6-2.2 6.3 0 .3.2.6.5.6h8c.3 0 .5.2.5.5v1.8c0 .4-.2.6-.5.6h-8c-.3 0-.5.2-.5.5V65c0 .2.2.4.4.4h8c.4 0 .6.3.6.6v1.8c0 .3-.2.6-.5.6z" fill="#fff"/></svg>