<svg viewBox="0 0 128 128" xmlns="http://www.w3.org/2000/svg"><linearGradient id="a" x1="-93" x2="-93" y1="-73.4" y2="-17.3" gradientUnits="userSpaceOnUse"><stop stop-color="#eee" offset="0"/><stop stop-color="#EAEAEA" offset=".3"/><stop stop-color="#ddd" offset=".6"/><stop stop-color="#C8C8C8" offset=".9"/><stop stop-color="#BDBDBD" offset="1"/></linearGradient><path d="M-42.1-44.7L-48-72.1c-.5-2.2-2.1-3.9-4-3.8h-60.6c-.7 0-2.6 0-4.2 1.7-4.7 5.3-12.5 20.5-13.7 22-.1.2-6.3 2.4-9.1 4-1.2.7-1.8 2.2-2 3.7l-2.4 20.8c-.6 4 1.7 5.7 5.4 5.7h91.5c2.8 0 5.1-.7 5.1-5.7v-19.8l-.1-1.2z" fill="url(#a)"/><path d="M-52-73c.4 0 .9.6 1 1.4a7598 7598 0 0 1 6 28.1v19.8c0 2.8-.5 2.7-2.1 2.7h-91.5c-1.3 0-2-.2-2.3-.5s-.3-1-.1-1.8l2.5-20.9c0-.8.3-1.3.4-1.3 1.9-1.2 5.9-2.7 7.5-3.4 1.5-.5 1.9-.7 2.4-1.3l3-5c2.9-5.1 7.6-13.6 10.7-17 .5-.6 1.2-.8 1.8-.8H-52m0-3h-60.6c-.7 0-2.6 0-4.2 1.8-4.7 5.3-12.5 20.5-13.7 22-.1.2-6.3 2.4-9.1 4-1.1.7-1.8 2.2-2 3.7l-2.4 20.7c-.6 4.1 1.7 5.8 5.4 5.8h91.5c2.8 0 5.1-.7 5.1-5.7v-19.8l-.1-1.2-5.9-27.5c-.5-2.2-2.1-3.8-4-3.8z" fill="#424242" opacity=".2"/><linearGradient id="b" x1="46.4" x2="46.4" y1="-117.5" y2="-61.4" gradientUnits="userSpaceOnUse"><stop stop-color="#616161" offset="0"/><stop stop-color="#5D5D5D" offset=".2"/><stop stop-color="#505050" offset=".5"/><stop stop-color="#3B3B3B" offset=".8"/><stop stop-color="#212121" offset="1"/></linearGradient><path d="M97.3-89l-5.8-27.3c-.5-2.3-2.1-3.8-4-3.8H26.9c-.7 0-2.6 0-4.2 1.7C18-113 10.2-97.8 9-96.3c-.1.2-6.3 2.4-9.1 4-1.2.7-1.8 2.2-2 3.7l-2.4 20.8C-5.1-63.7-2.8-62 .9-62h91.5c2.8 0 5-.8 5-5.8v-21z" fill="url(#b)"/><path d="M87.5-117c.4 0 .9.5 1 1.3a10841.5 10841.5 0 0 1 6 28v19.8c0 2.8-.5 2.8-2.1 2.8H.9c-1.3 0-2-.3-2.3-.5s-.3-1-.2-1.8v-.1L1-88.4c.1-.8.4-1.3.5-1.3C3.3-91 7.2-92.4 8.9-93c1.5-.6 1.9-.8 2.4-1.4l3-5c2.8-5 7.6-13.5 10.6-17 .6-.6 1.3-.7 2-.7h60.6m0-3H26.8a5 5 0 0 0-4 1.8C18-113.1 10.1-98 9-96.3c-.1 0-6.3 2.3-9.1 4-1.2.6-1.8 2.1-2 3.6l-2.4 20.8c-.6 4.1 1.7 5.8 5.4 5.8h91.5c2.8 0 5-.8 5-5.8v-21l-6-27.4c-.4-2.3-2-3.8-3.9-3.8z" fill="#eee" opacity=".2"/><linearGradient id="c" x1="63.9" x2="63.9" y1="104.2" y2="27.8" gradientUnits="userSpaceOnUse"><stop stop-color="#FFCA28" offset="0"/><stop stop-color="#FFE082" offset="1"/></linearGradient><path d="M116.3 103.8H11.6A7.6 7.6 0 0 1 4 96.2V35.6c0-4.2 3.4-7.7 7.6-7.7h104.7c4.2 0 7.6 3.5 7.6 7.7v60.6c0 4.2-3.4 7.6-7.6 7.6z" fill="url(#c)"/><path fill="#424242" d="M4 43.8h120v16.1H4z"/><path d="M114.1 80H13.8c-1 0-1.8-.8-1.8-1.8v-8.4c0-1 .8-1.8 1.8-1.8h100.3c1 0 1.8.8 1.8 1.8v8.4c0 1-.8 1.8-1.8 1.8z" fill="#fff"/><path d="M116.3 31c2.5 0 4.6 2 4.6 4.6v60.6c0 2.6-2 4.6-4.6 4.6H11.6c-2.6 0-4.6-2-4.6-4.6V35.6c0-2.6 2-4.7 4.6-4.7h104.7m0-3H11.6A7.6 7.6 0 0 0 4 35.6v60.6c0 4.2 3.4 7.6 7.6 7.6h104.7c4.2 0 7.6-3.4 7.6-7.6V35.6c0-4.2-3.4-7.7-7.6-7.7z" fill="#424242" opacity=".2"/><path d="M26.3 72c-1 .3-1.4 1.7-1 2.7.5 1 1.5 1.5 2.5 1.8 2.2.7 4.6.5 6.5-.6 2.2-1.2 3.8-3.3 6-4.2 3.3-1.3 7 .2 10.2 1.8s6.7 3.3 10.2 2.5c3.5-.9 6.5-4.4 10-3.9 2.2.4 3.8 2 5.7 3.1 4 2.3 9 1.5 13.3 0 4.3-1.4 8.6-3.5 13.1-3.6" fill="none" stroke="#424242" stroke-linecap="round" stroke-linejoin="round" stroke-miterlimit="10" stroke-width="2"/></svg>