<svg viewBox="0 0 128 128" xmlns="http://www.w3.org/2000/svg"><linearGradient id="a" x1="64" x2="64" y1="4.5" y2="124.6" gradientUnits="userSpaceOnUse"><stop stop-color="#fff" offset="0"/><stop stop-color="#FDFDFD" offset=".4"/><stop stop-color="#F6F6F6" offset=".5"/><stop stop-color="#EAEAEA" offset=".7"/><stop stop-color="#D8D8D8" offset=".8"/><stop stop-color="#C2C2C2" offset=".8"/><stop stop-color="#A6A6A6" offset=".9"/><stop stop-color="#868686" offset="1"/><stop stop-color="#757575" offset="1"/></linearGradient><path d="M88.9 28a3.6 3.6 0 0 1-3.5-3.4C84.9 13.4 81.7 5.9 76.7 4H19.8a3 3 0 0 0-3 3v114a3 3 0 0 0 3 3h88.5a3 3 0 0 0 3-3V35c-2.6-5.3-13.6-6.6-22.4-7z" fill="url(#a)"/><linearGradient id="b" x1="93.9" x2="93.9" y1="4.5" y2="124.6" gradientUnits="userSpaceOnUse"><stop stop-color="#fff" offset="0"/><stop stop-color="#FDFDFD" offset=".4"/><stop stop-color="#F6F6F6" offset=".5"/><stop stop-color="#EAEAEA" offset=".7"/><stop stop-color="#D8D8D8" offset=".8"/><stop stop-color="#C2C2C2" offset=".8"/><stop stop-color="#A6A6A6" offset=".9"/><stop stop-color="#868686" offset="1"/><stop stop-color="#757575" offset="1"/></linearGradient><path d="M76.6 4c5 1.9 8.2 9.4 8.8 20.6a3.6 3.6 0 0 0 3.4 3.3c9 .4 19.8 1.7 22.5 7 0 0 0-5.1-13-18.2C86.3 4.5 76.6 4 76.6 4z" fill="url(#b)"/><linearGradient id="c" x1="82.6" x2="102.6" y1="27.3" y2="13.5" gradientUnits="userSpaceOnUse"><stop stop-color="#BDBDBD" offset="0"/><stop stop-color="#fff" offset="1"/></linearGradient><path d="M76.6 4c5 1.9 6 8.7 6.6 19.9.3 4.3 4.2 4.7 6 4.8 8.9.4 19.3 1.1 22 6.4 0 0 0-5.3-12.9-18.4C86.3 4.5 76.6 4 76.6 4z" fill="url(#c)"/><path d="M31.2 38.7h65.5M31.2 53.3h65.5M31.2 67.9h65.5M31.2 82.5h65.5M31.2 97.2h28" fill="none" stroke="#757575" stroke-linecap="round" stroke-linejoin="round" stroke-miterlimit="10" stroke-width="4"/><path d="M76.3 6.9c.8 0 9.3 1.2 19.8 11.8 10.7 10.8 12 15.7 12.1 16.3v85.8H19.7V6.9h56.6m.2-3H19.7a3 3 0 0 0-3 3v113.9a3 3 0 0 0 3 3h88.5a3 3 0 0 0 3-3v-86s0-5.1-13-18.2C86.2 4.4 76.5 3.9 76.5 3.9z" fill="#424242" opacity=".2"/></svg>