<svg viewBox="0 0 128 128" xmlns="http://www.w3.org/2000/svg"><path d="M63.8 4a60 60 0 1 0 .1 120.1A60 60 0 0 0 64 4zm0 75a15 15 0 0 1-15-15 15 15 0 0 1 15-15 15 15 0 0 1 15 15 15 15 0 0 1-15 15z" fill="#FBC02D"/><path d="M101.4 101.5c6.4-6.4 10.8-14 13.2-22l-36-18.6c1 4.8-.4 10-4.2 13.7a15 15 0 0 1-13.6 4.1l18.4 36.1a52.7 52.7 0 0 0 22.2-13.2zM26.3 26.4A52.7 52.7 0 0 0 13 48.6L49.1 67A15 15 0 0 1 67 49.3L48.4 13.2a52.8 52.8 0 0 0-22.1 13.2z" fill="#FFFDE7" opacity=".7"/><path d="M63.8 40a24 24 0 1 0 0 48 24 24 0 1 0 0-48zm0 39a15 15 0 0 1-15-15 15 15 0 0 1 15-15 15 15 0 0 1 15 15 15 15 0 0 1-15 15z" fill="#FFA000"/><path d="M63.8 7a57 57 0 1 1-.1 114.1A57 57 0 0 1 63.8 7m0 75a18 18 0 1 0 0-36 18 18 0 0 0 0 36m0-78a60 60 0 1 0 .1 120.1A60 60 0 0 0 64 4zm0 75a15 15 0 0 1-15-15 15 15 0 0 1 15-15 15 15 0 0 1 15 15 15 15 0 0 1-15 15z" fill="#424242" opacity=".2"/></svg>