<svg viewBox="0 0 128 128" xmlns="http://www.w3.org/2000/svg"><path d="M110.8 124.2H17.1a10 10 0 0 1-10-10V34.8c0-5.7 4.7-10.4 10.5-10.4h92.8c5.8 0 10.4 4.7 10.4 10.4v79.4a10 10 0 0 1-10 10z" fill="#BDBDBD"/><path d="M111.1 118.4H17a9.7 9.7 0 0 1-9.8-9.7v3.4c0 5.3 4.4 9.7 9.8 9.7h94c5.4 0 9.8-4.4 9.8-9.7v-3.4c0 5.3-4.4 9.7-9.8 9.7z" fill="#949494"/><path d="M111.1 112H17a9.7 9.7 0 0 1-9.8-9.7v3.4c0 5.4 4.4 9.8 9.8 9.8h94c5.4 0 9.8-4.4 9.8-9.8v-3.4c0 5.4-4.4 9.8-9.8 9.8z" fill="#949494"/><path d="M110.8 109.2H17.1a10 10 0 0 1-10-10v-70c0-5.8 4.7-10.5 10.5-10.5h92.8c5.8 0 10.4 4.7 10.4 10.4v70.1a10 10 0 0 1-10 10z" fill="#E0E0E0"/><linearGradient id="a" x1="64" x2="64" y1="49.1" y2="108.9" gradientUnits="userSpaceOnUse"><stop stop-color="#fff" offset="0"/><stop stop-color="#C8C9CA" offset="1"/></linearGradient><path d="M105 108.7H23.1c-7.6 0-13 .3-13-11.3v-65a13 13 0 0 1 13-13h81.7a13 13 0 0 1 13 13v63.3c0 12.4-5.8 13-13 13z" fill="url(#a)"/><path d="M120.8 48.4H7.3V13.7a8 8 0 0 1 8-8H113a8 8 0 0 1 8 8v34.7z" fill="#1E88E5"/><linearGradient id="b" x1="98.1" x2="108.7" y1="92" y2="105" gradientUnits="userSpaceOnUse"><stop stop-color="#C8C9CA" offset="0"/><stop stop-color="#C0C0C1" offset=".2"/><stop stop-color="#A9A9AA" offset=".5"/><stop stop-color="#848384" offset=".8"/><stop stop-color="#717071" offset="1"/></linearGradient><path d="M113.1 103.2c8-9 7.8-14 7.8-14s-2.4 3-9.6 3.7c-4.4.5-12.4-2.8-12.4-2.8s1 4.8-1.4 12c-2 5.8-8 10-8 10s14.7 1.2 23.6-8.9z" fill="url(#b)"/><circle cx="26.2" cy="14.5" r="6.8" fill="#01579B"/><circle cx="101.5" cy="14.5" r="6.8" fill="#01579B"/><path d="M19.7 3.8v8a6.6 6.6 0 0 0 13.2 0v-8H19.7zm75.3 0v8a6.6 6.6 0 0 0 13.3 0v-8H95z" fill="#BDBDBD"/><path d="M105.5 6.8a3 3 0 0 0 2.8 1.8h4.1c3 0 5.4 2.5 5.4 5.5v99.5c0 4.1-3.3 7.5-7.5 7.5H17.7a7.6 7.6 0 0 1-7.6-7.5V14c0-3 2.5-5.5 5.5-5.5h4.1a3 3 0 0 0 2.8-1.8h7.7a3 3 0 0 0 2.7 1.8H95a3 3 0 0 0 2.8-1.8h7.7m2.8-3H95v1.8H32.9V3.8H19.7v1.8h-4.1A8.5 8.5 0 0 0 7 14.1v99.5c0 5.8 4.8 10.5 10.6 10.5h92.6c5.8 0 10.5-4.7 10.5-10.5V14c0-4.7-3.7-8.5-8.4-8.5h-4.1V3.8z" fill="#424242" opacity=".2"/><path d="M47.3 17h4v13.7c0 1.2-.2 2.3-.8 3.3s-1.3 1.7-2.3 2.2c-1 .5-2.2.8-3.5.8-2 0-3.7-.5-4.8-1.6S38 32.8 38 31h4.1c0 1 .2 1.7.6 2.1s1 .7 2 .7c.7 0 1.3-.2 1.8-.8s.7-1.3.7-2.2V17zm16.1 18.2a5 5 0 0 1-4 1.8c-1.6 0-2.8-.5-3.6-1.4-.9-.9-1.3-2.2-1.3-4v-9.5h4v9.5c0 1.5.6 2.2 2 2.2 1.3 0 2.3-.4 2.8-1.3V22h3.9v14.6h-3.7l-.1-1.5zm10.9 1.5h-4V16h4v20.8zm8.7-5.5l2.7-9.1h4.2l-6 17-.3.7a4.4 4.4 0 0 1-4.3 2.9c-.6 0-1.2-.1-1.7-.3v-3h.6c.7 0 1.3 0 1.6-.3s.7-.6.9-1.1l.4-1.2-5-14.7h4.1l2.8 9z" fill="#fff"/><path d="M52.2 102.1H44V70.4l-9.8 3v-6.6l17.1-6.1h1V102zm41.6-36.8l-16 36.8h-8.7l16-34.8H64.7v-6.6h29.2v4.6z" fill="#2F2F2F"/></svg>