<svg viewBox="0 0 128 128" xmlns="http://www.w3.org/2000/svg"><linearGradient id="a" x1="12.2" x2="124" y1="13.9" y2="125.8" gradientUnits="userSpaceOnUse"><stop stop-color="#F5F5F5" offset="0"/><stop stop-color="#D3D3D3" offset=".2"/><stop stop-color="#7F7F7F" offset=".7"/><stop stop-color="#424242" offset="1"/><stop stop-color="#757575" offset="1"/></linearGradient><path d="M38.7 124.2A35 35 0 0 0 63.3 114L122 55.3v-.4l-5.6-5.6a.3.3 0 0 0-.4 0L57.3 108a25.5 25.5 0 0 1-36 .7 25.5 25.5 0 0 1 .8-36l56-55.9a16.1 16.1 0 0 1 22.7 22.8l-57 57a7 7 0 0 1-9.7 0 6.9 6.9 0 0 1 0-9.8l50.8-50.9c.1 0 .1-.3 0-.4L79.4 30a.3.3 0 0 0-.4 0L28.5 80.5a15.2 15.2 0 0 0 12 26.4A16 16 0 0 0 50 102l57.6-57.5-.1-.1A24.5 24.5 0 0 0 73 9.9v-.1l-1 1-56 56a33.9 33.9 0 0 0-.7 47.8 32.7 32.7 0 0 0 23.3 9.5z" fill="url(#a)"/><path d="M89.5 6.8a21.5 21.5 0 0 1 15.9 35.7l-.5.6L48 100a12.9 12.9 0 0 1-9 3.8 12.2 12.2 0 0 1-12.3-13.4 13 13 0 0 1 3.9-8L79.2 34l1.7 1.7-49 49a9.9 9.9 0 0 0 7 16.8c2.7 0 5.3-1 7-2.9l57-56.9a19.1 19.1 0 0 0-27-27l-56 56a28.5 28.5 0 0 0-.7 40.2c5.2 5 12 8 19.5 8a29 29 0 0 0 20.7-8.8l56.8-56.7L118 55l-56.7 56.7c-6 6-14 9.4-22.5 9.4-8 0-15.6-3-21.2-8.6a30.9 30.9 0 0 1 .8-43.6l55.9-56 .3-.3.6-.5c4-3.5 9.1-5.4 14.4-5.4m0-3c-5.8 0-11.7 2-16.4 6.2v-.1l-1 1-56 56a33.9 33.9 0 0 0-.7 47.8 32.7 32.7 0 0 0 23.3 9.5 35 35 0 0 0 24.6-10.2L122 55.3v-.4l-5.6-5.6h-.4L57.3 108c-5.2 5.2-12 7.8-18.6 7.8-6.4 0-12.6-2.3-17.3-7a25.5 25.5 0 0 1 .7-36l56-56a16 16 0 0 1 22.7 0 16.1 16.1 0 0 1 0 22.8l-57 57a7 7 0 0 1-9.8-.1 6.9 6.9 0 0 1 0-9.7l51-50.9v-.4L79.3 30l-.2-.1H79L28.5 80.6a15.2 15.2 0 0 0 12 26.4 16 16 0 0 0 9.5-5l57.6-57.5-.1-.1a24.5 24.5 0 0 0-18-40.7z" fill="#424242" opacity=".2"/></svg>