<svg viewBox="0 0 128 128" xmlns="http://www.w3.org/2000/svg"><path d="M104 24H24C13 24 4 32.7 4 43.8v40c0 11 9 20 20 20h80c11 0 20-8.9 20-20V44c0-11-9-20-20-20z" fill="#424242"/><path d="M24 27h80a17 17 0 0 1 17 17v40a17 17 0 0 1-17 17l-80-.2a17 17 0 0 1-17-17V44a17 17 0 0 1 17-17m0-3C13 24 4 33 4 44v40c0 11 9 19.9 20 19.9l80 .1c11 0 20-8.9 20-20V44c0-11-9-20-20-20H24z" fill="#eee" opacity=".2"/><path d="M117.3 68.7a14 14 0 0 1-14 13.7H24.8c-7.8 0-14-6.2-14-13.7v-21a14 14 0 0 1 14-13.7h78.3c7.9 0 14.1 6.2 14.1 13.8v20.9z" fill="#212121"/><linearGradient id="a" x1="-93" x2="-93" y1="-73.4" y2="-17.3" gradientUnits="userSpaceOnUse"><stop stop-color="#eee" offset="0"/><stop stop-color="#EAEAEA" offset=".3"/><stop stop-color="#ddd" offset=".6"/><stop stop-color="#C8C8C8" offset=".9"/><stop stop-color="#BDBDBD" offset="1"/></linearGradient><path d="M-42.1-44.7L-48-72.1c-.5-2.2-2.1-3.9-4-3.8h-60.6c-.7 0-2.6 0-4.2 1.7-4.7 5.3-12.5 20.5-13.7 22-.1.2-6.3 2.4-9.1 4-1.2.7-1.8 2.2-2 3.7l-2.4 20.8c-.6 4 1.7 5.7 5.4 5.7h91.5c2.8 0 5.1-.7 5.1-5.7v-19.8l-.1-1.2z" fill="url(#a)"/><path d="M-52-73c.4 0 .9.6 1 1.4a7598 7598 0 0 1 6 28.1v19.8c0 2.8-.5 2.7-2.1 2.7h-91.5c-1.3 0-2-.2-2.3-.5s-.3-1-.1-1.8l2.5-20.9c0-.8.3-1.3.4-1.3 1.9-1.2 5.9-2.7 7.5-3.4 1.5-.5 1.9-.7 2.4-1.3l3-5c2.9-5.1 7.6-13.6 10.7-17 .5-.6 1.2-.8 1.8-.8H-52m0-3h-60.6c-.7 0-2.6 0-4.2 1.8-4.7 5.3-12.5 20.5-13.7 22-.1.2-6.3 2.4-9.1 4-1.1.7-1.8 2.2-2 3.7l-2.4 20.7c-.6 4.1 1.7 5.8 5.4 5.8h91.5c2.8 0 5.1-.7 5.1-5.7v-19.8l-.1-1.2-5.9-27.5c-.5-2.2-2.1-3.8-4-3.8z" fill="#424242" opacity=".2"/><linearGradient id="b" x1="46.4" x2="46.4" y1="-117.5" y2="-61.4" gradientUnits="userSpaceOnUse"><stop stop-color="#616161" offset="0"/><stop stop-color="#5D5D5D" offset=".2"/><stop stop-color="#505050" offset=".5"/><stop stop-color="#3B3B3B" offset=".8"/><stop stop-color="#212121" offset="1"/></linearGradient><path d="M97.3-89l-5.8-27.3c-.5-2.3-2.1-3.8-4-3.8H26.9c-.7 0-2.6 0-4.2 1.7C18-113 10.2-97.8 9-96.3c-.1.2-6.3 2.4-9.1 4-1.2.7-1.8 2.2-2 3.7l-2.4 20.8C-5.1-63.7-2.8-62 .9-62h91.5c2.8 0 5-.8 5-5.8v-21z" fill="url(#b)"/><path d="M87.5-117c.4 0 .9.5 1 1.3a10841.5 10841.5 0 0 1 6 28v19.8c0 2.8-.5 2.8-2.1 2.8H.9c-1.3 0-2-.3-2.3-.5s-.3-1-.2-1.8v-.1L1-88.4c.1-.8.4-1.3.5-1.3C3.3-91 7.2-92.4 8.9-93c1.5-.6 1.9-.8 2.4-1.4l3-5c2.8-5 7.6-13.5 10.6-17 .6-.6 1.3-.7 2-.7h60.6m0-3H26.8a5 5 0 0 0-4 1.8C18-113.1 10.1-98 9-96.3c-.1 0-6.3 2.3-9.1 4-1.2.6-1.8 2.1-2 3.6l-2.4 20.8c-.6 4.1 1.7 5.8 5.4 5.8h91.5c2.8 0 5-.8 5-5.8v-21l-6-27.4c-.4-2.3-2-3.8-3.9-3.8z" fill="#eee" opacity=".2"/><path d="M103.2 39c0-1.8-1.4-3.2-3.1-3.2H24.9c-6.9 0-12.5 5.4-12.5 12v20.9c0 6.6 5.6 12 12.5 12h75.2c1.7 0 3.1-1.5 3.1-3.2V38.9zm.6-3.2c1.2.7 1.7 1.6 1.7 4v17.5h9.9v-9.5c0-5.6-5.3-10.7-11.6-12zm0 44.8c1.2-.7 1.7-1.5 1.7-4V59.2h9.9v9.6c0 5.6-5.3 10.6-11.6 12z" fill="#424242"/><path d="M108 53.5l1.9-7.4c.1-.6 1-.6 1 0l2 7.4c.1.3-.1.7-.5.7h-4c-.3 0-.6-.4-.5-.7zm.5 8.8h4c.3 0 .6.3.5.7l-2 7.4c-.2.5-1 .5-1 0l-2-7.5c-.2-.3 0-.6.5-.6zM99 96.6h-6c-2.8 0-5-2.2-5-5s2.2-4.8 5-4.8h6c2.8 0 5 2.1 5 4.9a5 5 0 0 1-5 4.9zm-20 0h-6.2c-2.7 0-4.9-2.2-4.9-5s2.2-4.8 5-4.8H79c2.8 0 5 2.1 5 4.9a5 5 0 0 1-5 4.9zm-20 0h-6c-2.8 0-5-2.2-5-5s2.2-4.8 5-4.8h6c2.8 0 5 2.1 5 4.9a5 5 0 0 1-5 4.9z" fill="#FAFAFA"/><linearGradient id="c" x1="60.8" x2="60.8" y1="72.4" y2="44.1" gradientUnits="userSpaceOnUse"><stop stop-color="#7CB342" offset="0"/><stop stop-color="#558B2F" offset="1"/></linearGradient><path d="M100.7 69c0 1.9-1.5 3.4-3.3 3.4H24a3.3 3.3 0 0 1-3.3-3.4V47.4c0-1.9 1.5-3.3 3.3-3.3h73.3c1.8 0 3.3 1.4 3.3 3.3V69z" fill="url(#c)"/><path d="M30.7 55.8l-1.4 1.5c-.2.2-.6.2-.8 0l-1.4-1.5a.6.6 0 0 1-.2-.4v-4s0-.2.2-.3l1.4-1.5c.2-.2.6-.2.8 0l1.4 1.5.2.4v4s0 .2-.2.3zm10.5 0l-1.5 1.5c-.2.2-.6.2-.8 0l-1.4-1.5a.6.6 0 0 1-.2-.4v-4s0-.2.2-.3l1.4-1.5c.3-.2.6-.2.8 0l1.5 1.5.1.4v4l-.1.3zm-10.5 9.6l-1.4 1.4c-.2.2-.6.2-.8 0l-1.4-1.4a.6.6 0 0 1-.2-.4v-4c0-.2 0-.3.2-.4l1.4-1.5c.2-.2.6-.2.8 0l1.4 1.5.2.4v4l-.2.4zm10.5 0l-1.5 1.4c-.2.2-.6.2-.8 0l-1.4-1.4a.6.6 0 0 1-.2-.4v-4c0-.2 0-.3.2-.4l1.4-1.5c.3-.2.6-.2.8 0l1.5 1.5.1.4v4l-.1.4zm-9.5-14.9l-1.4-1.4a.6.6 0 0 1 0-.8l1.4-1.4.4-.2h4c.2 0 .3 0 .4.2l1.5 1.4c.2.2.2.6 0 .8l-1.5 1.4-.4.2h-4c-.1 0-.3 0-.4-.2zm0 9.5l-1.4-1.4a.6.6 0 0 1 0-.8l1.4-1.4.4-.2h4c.2 0 .3 0 .4.2l1.5 1.4c.2.2.2.6 0 .8L36.5 60l-.4.2h-4c-.1 0-.3 0-.4-.2zm0 9.6L30.3 68a.6.6 0 0 1 0-.8l1.4-1.4.4-.2h4c.2 0 .3 0 .4.2l1.5 1.4c.2.3.2.6 0 .8l-1.5 1.5-.4.1h-4l-.4-.1zm16.8-13.8L47 57.3c-.3.2-.6.2-.8 0l-1.5-1.5a.6.6 0 0 1-.1-.4v-4l.1-.3 1.5-1.5c.2-.2.5-.2.8 0l1.4 1.5.2.4v4l-.2.3zm10.5 0l-1.5 1.5c-.2.2-.6.2-.8 0l-1.4-1.5a.6.6 0 0 1-.2-.4v-4s0-.2.2-.3l1.4-1.5c.2-.2.6-.2.8 0l1.4 1.5.2.4v4s0 .2-.2.3zm-10.5 9.6L47 66.8c-.3.2-.6.2-.8 0l-1.5-1.4a.6.6 0 0 1-.1-.4v-4l.1-.4 1.5-1.5c.2-.2.5-.2.8 0l1.4 1.5.2.4v4l-.2.4zm10.5 0l-1.5 1.4c-.2.2-.6.2-.8 0l-1.4-1.4a.6.6 0 0 1-.2-.4v-4c0-.2 0-.3.2-.4l1.4-1.5c.2-.2.6-.2.8 0l1.4 1.5.2.4v4l-.2.4zm-9.5-14.9L48 49.1a.6.6 0 0 1 0-.8l1.4-1.4.4-.2h4c.1 0 .3 0 .4.2l1.4 1.4c.2.2.2.6 0 .8l-1.4 1.4-.4.2h-4c-.2 0-.3 0-.4-.2zm0 9.5L48 58.6a.6.6 0 0 1 0-.8l1.4-1.4.4-.2h4c.1 0 .3 0 .4.2l1.4 1.4c.2.2.2.6 0 .8L54.3 60l-.4.2h-4c-.2 0-.3 0-.4-.2zm0 9.6L48 68a.6.6 0 0 1 0-.8l1.4-1.4.4-.2h4c.1 0 .3 0 .4.2l1.4 1.4c.2.3.2.6 0 .8l-1.4 1.5-.4.1h-4l-.4-.1zm16.8-13.8l-1.5 1.5c-.2.2-.6.2-.8 0l-1.4-1.5a.6.6 0 0 1-.2-.4v-4s0-.2.2-.3l1.4-1.5c.2-.2.6-.2.8 0l1.4 1.5c.2 0 .2.2.2.4v4s0 .2-.2.3zm10.4 0l-1.4 1.5c-.3.2-.6.2-.8 0L73 55.8a.6.6 0 0 1-.1-.4v-4l.1-.3 1.5-1.5c.2-.2.5-.2.8 0l1.4 1.5.2.4v4l-.2.3zm-10.4 9.6l-1.5 1.4c-.2.2-.6.2-.8 0l-1.4-1.4a.6.6 0 0 1-.2-.4v-4c0-.2 0-.3.2-.4L64 59c.2-.2.6-.2.8 0l1.4 1.5c.2 0 .2.2.2.4v4l-.2.4zm10.4 0l-1.4 1.4c-.3.2-.6.2-.8 0L73 65.4a.6.6 0 0 1-.1-.4v-4l.1-.4 1.5-1.5c.2-.2.5-.2.8 0l1.4 1.5.2.4v4l-.2.4zm-9.4-14.9l-1.5-1.4a.6.6 0 0 1 0-.8l1.4-1.4.4-.2h4c.2 0 .3 0 .4.2l1.5 1.4c.2.2.2.6 0 .8L72 50.5l-.4.2h-4c-.1 0-.2 0-.3-.2zm0 9.5l-1.5-1.4a.6.6 0 0 1 0-.8l1.4-1.4.4-.2h4c.2 0 .3 0 .4.2l1.5 1.4c.2.2.2.6 0 .8L72 60l-.4.2h-4c-.1 0-.2 0-.3-.2zm0 9.6L65.8 68a.6.6 0 0 1 0-.8l1.4-1.4.4-.2h4c.2 0 .3 0 .4.2l1.5 1.4c.2.3.2.6 0 .8L72 69.6l-.4.1h-4l-.3-.1zM84 55.8l-1.4 1.5c-.2.2-.6.2-.8 0l-1.4-1.5a.6.6 0 0 1-.2-.4v-4s0-.2.2-.3l1.4-1.5c.2-.2.6-.2.8 0l1.4 1.5.2.4v4s0 .2-.2.3zm10.5 0L93 57.3c-.2.2-.6.2-.8 0l-1.4-1.5a.6.6 0 0 1-.2-.4v-4s0-.2.2-.3l1.4-1.5c.2-.2.6-.2.8 0l1.4 1.5c.2 0 .2.2.2.4v4l-.1.3zM84 65.4l-1.4 1.4c-.2.2-.6.2-.8 0l-1.4-1.4a.6.6 0 0 1-.2-.4v-4c0-.2 0-.3.2-.4l1.4-1.5c.2-.2.6-.2.8 0l1.4 1.5.2.4v4l-.2.4zm10.5 0L93 66.8c-.2.2-.6.2-.8 0l-1.4-1.4a.6.6 0 0 1-.2-.4v-4c0-.2 0-.3.2-.4l1.4-1.5c.2-.2.6-.2.8 0l1.4 1.5c.2 0 .2.2.2.4v4l-.1.4zM85 50.5l-1.4-1.4a.6.6 0 0 1 0-.8l1.4-1.4.4-.2h4c.2 0 .3 0 .4.2l1.4 1.4c.3.2.3.6 0 .8l-1.4 1.4-.4.2h-4c-.1 0-.3 0-.4-.2zm0 9.5l-1.4-1.4a.6.6 0 0 1 0-.8l1.4-1.4.4-.2h4c.2 0 .3 0 .4.2l1.4 1.4c.3.2.3.6 0 .8L89.8 60l-.4.2h-4c-.1 0-.3 0-.4-.2zm0 9.6L83.6 68a.6.6 0 0 1 0-.8L85 66l.4-.2h4c.2 0 .3 0 .4.2l1.4 1.4c.3.3.3.6 0 .8l-1.4 1.5-.4.1h-4l-.4-.1z" opacity=".5"/></svg>