<svg viewBox="0 0 128 128" xmlns="http://www.w3.org/2000/svg"><linearGradient id="a" x1="65.3" x2="65.3" y1="11" y2="124.4" gradientUnits="userSpaceOnUse"><stop stop-color="#fff" offset="0"/><stop stop-color="#FDFDFD" offset=".4"/><stop stop-color="#F5F5F5" offset=".6"/><stop stop-color="#E7E7E7" offset=".7"/><stop stop-color="#D5D5D5" offset=".9"/><stop stop-color="#BDBDBD" offset="1"/></linearGradient><path d="M102.2 123.9H28.4a4 4 0 0 1-4-4V14.8a4 4 0 0 1 4-4h73.8a4 4 0 0 1 4 4v105a4 4 0 0 1-4 4z" fill="url(#a)"/><path d="M102.2 13.6c.7 0 1.2.6 1.2 1.2v105c0 .7-.5 1.2-1.2 1.2H28.4c-.6 0-1.1-.5-1.1-1.1V14.8c0-.6.5-1.2 1.1-1.2h73.8m0-2.8H28.4a4 4 0 0 0-4 4v105a4 4 0 0 0 4 4h73.8a4 4 0 0 0 4-4v-105a4 4 0 0 0-4-4z" fill="#424242" opacity=".2"/><linearGradient id="b" x1="84.9" x2="120" y1="99.4" y2="99.4" gradientUnits="userSpaceOnUse"><stop stop-color="#E0E0E0" offset="0"/><stop stop-color="#EAEAEA" offset=".1"/><stop stop-color="#F6F6F6" offset=".2"/><stop stop-color="#FDFDFD" offset=".5"/><stop stop-color="#fff" offset="1"/></linearGradient><path fill="url(#b)" d="M84.9 93.3H120v12.3H84.9z"/><path fill="#4480F7" d="M103.5 93.3H120v12.3h-16.5z"/><path d="M117.8 95.5v7.8H87v-7.8h30.7m2.2-2.2H85v12.2h35V93.3z" fill="#757575" opacity=".2"/><linearGradient id="c" x1="84.9" x2="120" y1="41.8" y2="41.8" gradientUnits="userSpaceOnUse"><stop stop-color="#E0E0E0" offset="0"/><stop stop-color="#EAEAEA" offset=".1"/><stop stop-color="#F6F6F6" offset=".2"/><stop stop-color="#FDFDFD" offset=".5"/><stop stop-color="#fff" offset="1"/></linearGradient><path fill="url(#c)" d="M84.9 35.7H120V48H84.9z"/><path fill="#FBBE00" d="M103.5 35.7H120V48h-16.5z"/><path d="M117.8 37.9v7.9H87v-8h30.7m2.2-2.1H85v12.2h35V35.7z" fill="#757575" opacity=".2"/><linearGradient id="d" x1="52.4" x2="52.4" y1="4.2" y2="114.6" gradientUnits="userSpaceOnUse"><stop stop-color="#fff" offset="0"/><stop stop-color="#FDFDFD" offset=".4"/><stop stop-color="#F5F5F5" offset=".6"/><stop stop-color="#E7E7E7" offset=".7"/><stop stop-color="#D5D5D5" offset=".9"/><stop stop-color="#BDBDBD" offset="1"/></linearGradient><path d="M91.3 114.1H13.5a4 4 0 0 1-4-4V8a4 4 0 0 1 4-4h77.8a4 4 0 0 1 4 4v102.1a4 4 0 0 1-4 4z" fill="url(#d)"/><path d="M91.3 6.9c.7 0 1.2.5 1.2 1.1v102.1c0 .7-.5 1.2-1.2 1.2H13.5c-.6 0-1-.5-1-1.2V8c0-.6.4-1.1 1-1.1h77.8m0-2.9H13.5a4 4 0 0 0-4 4v102.1a4 4 0 0 0 4 4h77.8a4 4 0 0 0 4-4V8a4 4 0 0 0-4-4z" fill="#424242" opacity=".2"/><path d="M21.6 30.5h61.7M21.6 44.3h61.7M21.6 58h61.7M21.6 71.8h61.7M21.6 85.6H48" fill="none" stroke="#757575" stroke-linecap="round" stroke-linejoin="round" stroke-miterlimit="10" stroke-width="3.8"/><linearGradient id="e" x1="78.7" x2="113.8" y1="20" y2="20" gradientUnits="userSpaceOnUse"><stop stop-color="#E0E0E0" offset="0"/><stop stop-color="#EAEAEA" offset=".1"/><stop stop-color="#F6F6F6" offset=".2"/><stop stop-color="#FDFDFD" offset=".5"/><stop stop-color="#fff" offset="1"/></linearGradient><path fill="url(#e)" d="M78.7 13.8h35.1v12.3H78.7z"/><path fill="#EC4431" d="M97.3 13.8h16.5v12.3H97.3z"/><path d="M111.6 16v8H80.9v-8h30.7m2.2-2.2h-35v12.3h35V13.8z" fill="#757575" opacity=".2"/><linearGradient id="f" x1="78.7" x2="113.8" y1="72.9" y2="72.9" gradientUnits="userSpaceOnUse"><stop stop-color="#E0E0E0" offset="0"/><stop stop-color="#EAEAEA" offset=".1"/><stop stop-color="#F6F6F6" offset=".2"/><stop stop-color="#FDFDFD" offset=".5"/><stop stop-color="#fff" offset="1"/></linearGradient><path fill="url(#f)" d="M78.7 66.8h35.1v12.3H78.7z"/><path fill="#2CA94F" d="M97.3 66.8h16.5v12.3H97.3z"/><path d="M111.6 69v7.8H80.9V69h30.7m2.2-2.2h-35V79h35V66.7z" fill="#757575" opacity=".2"/></svg>