<svg viewBox="0 0 128 128" xmlns="http://www.w3.org/2000/svg"><linearGradient id="a" x1="-93" x2="-93" y1="-73.4" y2="-17.3" gradientUnits="userSpaceOnUse"><stop stop-color="#eee" offset="0"/><stop stop-color="#EAEAEA" offset=".3"/><stop stop-color="#ddd" offset=".6"/><stop stop-color="#C8C8C8" offset=".9"/><stop stop-color="#BDBDBD" offset="1"/></linearGradient><path d="M-42.1-44.7L-48-72.1c-.5-2.2-2.1-3.9-4-3.8h-60.6c-.7 0-2.6 0-4.2 1.7-4.7 5.3-12.5 20.5-13.7 22-.1.2-6.3 2.4-9.1 4-1.2.7-1.8 2.2-2 3.7l-2.4 20.8c-.6 4 1.7 5.7 5.4 5.7h91.5c2.8 0 5.1-.7 5.1-5.7v-19.8l-.1-1.2z" fill="url(#a)"/><path d="M-52-73c.4 0 .9.6 1 1.4a7598 7598 0 0 1 6 28.1v19.8c0 2.8-.5 2.7-2.1 2.7h-91.5c-1.3 0-2-.2-2.3-.5s-.3-1-.1-1.8l2.5-20.9c0-.8.3-1.3.4-1.3 1.9-1.2 5.9-2.7 7.5-3.4 1.5-.5 1.9-.7 2.4-1.3l3-5c2.9-5.1 7.6-13.6 10.7-17 .5-.6 1.2-.8 1.8-.8H-52m0-3h-60.6c-.7 0-2.6 0-4.2 1.8-4.7 5.3-12.5 20.5-13.7 22-.1.2-6.3 2.4-9.1 4-1.1.7-1.8 2.2-2 3.7l-2.4 20.7c-.6 4.1 1.7 5.8 5.4 5.8h91.5c2.8 0 5.1-.7 5.1-5.7v-19.8l-.1-1.2-5.9-27.5c-.5-2.2-2.1-3.8-4-3.8z" fill="#424242" opacity=".2"/><linearGradient id="b" x1="46.4" x2="46.4" y1="-117.5" y2="-61.4" gradientUnits="userSpaceOnUse"><stop stop-color="#616161" offset="0"/><stop stop-color="#5D5D5D" offset=".2"/><stop stop-color="#505050" offset=".5"/><stop stop-color="#3B3B3B" offset=".8"/><stop stop-color="#212121" offset="1"/></linearGradient><path d="M97.3-89l-5.8-27.3c-.5-2.3-2.1-3.8-4-3.8H26.9c-.7 0-2.6 0-4.2 1.7C18-113 10.2-97.8 9-96.3c-.1.2-6.3 2.4-9.1 4-1.2.7-1.8 2.2-2 3.7l-2.4 20.8C-5.1-63.7-2.8-62 .9-62h91.5c2.8 0 5-.8 5-5.8v-21z" fill="url(#b)"/><path d="M87.5-117c.4 0 .9.5 1 1.3a10841.5 10841.5 0 0 1 6 28v19.8c0 2.8-.5 2.8-2.1 2.8H.9c-1.3 0-2-.3-2.3-.5s-.3-1-.2-1.8v-.1L1-88.4c.1-.8.4-1.3.5-1.3C3.3-91 7.2-92.4 8.9-93c1.5-.6 1.9-.8 2.4-1.4l3-5c2.8-5 7.6-13.5 10.6-17 .6-.6 1.3-.7 2-.7h60.6m0-3H26.8a5 5 0 0 0-4 1.8C18-113.1 10.1-98 9-96.3c-.1 0-6.3 2.3-9.1 4-1.2.6-1.8 2.1-2 3.6l-2.4 20.8c-.6 4.1 1.7 5.8 5.4 5.8h91.5c2.8 0 5-.8 5-5.8v-21l-6-27.4c-.4-2.3-2-3.8-3.9-3.8z" fill="#eee" opacity=".2"/><linearGradient id="c" x1="36.1" x2="79.7" y1="92.2" y2="48.5" gradientUnits="userSpaceOnUse"><stop stop-color="#212121" offset="0"/><stop stop-color="#3D3D3D" offset=".4"/><stop stop-color="#575757" offset=".8"/><stop stop-color="#616161" offset="1"/></linearGradient><path d="M38.7 43l6.4-5.6c1.6-1.7 2.4-3.2 2.4-4.3 0-.8-.2-1.6-.6-2.4L31 4.6c-1.2-1.2-5.6-.6-7.7.5-1.6 1-3 1.7-4.3 2.7l-1.6 1C5 18 3.7 28.6 4 33.3c.2 5.3 3.6 33.5 31.2 59.6 34.3 32.6 58 31.2 59.6 31.2a32 32 0 0 0 25.6-14.7l1-1.6 1.3-3.2c1-2.2 1.9-6.4.7-7.6-.5-.5-25.4-15-26.2-15.5s-1.7-.5-2.4-.5c-1.2 0-2.5.8-4.2 2.4l-4.3 5-1.2 1.6a44.5 44.5 0 0 1-3.2 3.8c-1.6 1.6-2.8 2.4-3.9 2.4-.5 0-1.2-.1-1.8-.4-.8-.3-8.8-4.4-25.3-18.8-16.5-14.5-18.6-24-18.8-26.5 0-1 .8-2.4 2.4-3.9l2.7-2.4 1.5-1.2z" fill="url(#c)"/><path d="M28.5 7h.4c2.4 3.7 14.6 23.7 15.4 25.1l.2 1c0 .1-.3.8-1.6 2.2a78.3 78.3 0 0 1-5 4.3l-1.2 1.1-1.4 1.1-1.8 1.6a23.2 23.2 0 0 1-1 1c-2.2 2-3.4 4.1-3.4 6v.2c.2 2.8 2 13 19.8 28.7a126 126 0 0 0 26.2 19.3c1 .4 2 .6 3 .6 2.3 0 4.3-1.6 6-3.2.6-.7 2.1-2.4 3.4-4.2l1.1-1.4 4-4.8c1.6-1.5 2.2-1.6 2.2-1.6l1 .2C97 84.8 117 96.5 121 99c0 1-.4 2.8-1 4.5l-.5 1.2-.8 1.6-.8 1.6a29.2 29.2 0 0 1-23 13.2H94c-5.8 0-27.1-2.2-56.8-30.4C9.3 64.2 7 36.2 7 33.1c-.3-3.8.5-13.3 12-21.8l1.6-1c1.2-.9 2.4-1.6 4-2.6.8-.4 2.5-.8 3.9-.8m0-3c-1.8 0-4 .5-5.3 1.2-1.6 1-3 1.7-4.3 2.7l-1.6 1C4.9 18 3.7 28.6 4 33.3c.2 5.3 3.6 33.4 31.2 59.6 31.7 30 54.4 31.2 58.9 31.2h.7a32 32 0 0 0 25.6-14.7l1-1.6 1.3-3.2c1-2.2 1.9-6.4.7-7.6-.5-.5-25.4-15-26.2-15.5s-1.7-.5-2.4-.5c-1.2 0-2.5.8-4.2 2.4l-4.3 5-1.2 1.6a44.5 44.5 0 0 1-3.2 3.8c-1.6 1.6-2.8 2.4-3.9 2.4-.5 0-1.2-.1-1.8-.4-.8-.3-8.9-4.4-25.3-18.8-16.5-14.5-18.7-24-18.8-26.5 0-1 .8-2.4 2.4-3.9 1-.8 1.7-1.7 2.7-2.4l1.5-1.2 6.4-5.6c1.6-1.7 2.4-3.2 2.4-4.3 0-.8-.2-1.6-.6-2.4L31 4.6c-.4-.5-1.4-.7-2.4-.7z" fill="#eee" opacity=".2"/></svg>