<svg viewBox="0 0 128 128" xmlns="http://www.w3.org/2000/svg" xmlns:xlink="http://www.w3.org/1999/xlink"><path d="M108.8 124H22a6 6 0 0 1-6-6V26a6 6 0 0 1 6-6h86.8v104z" fill="#424242"/><linearGradient id="a" x1="64" x2="64" y1="4.3" y2="111.7" gradientUnits="userSpaceOnUse"><stop stop-color="#FF9800" offset="0"/><stop stop-color="#EF6C00" offset="1"/></linearGradient><path d="M112 111.1H22a6 6 0 0 1-6-6V10a6 6 0 0 1 6-6h90v107.1z" fill="url(#a)"/><path d="M109 7v101.1h-.2a3 3 0 0 0-3 3v9.9H22.4a3.4 3.4 0 0 1-3.4-3.4V10.4C19 8.5 20.5 7 22.4 7H109m3-3H22.4a6.4 6.4 0 0 0-6.4 6.4v107.2c0 3.5 2.8 6.4 6.4 6.4h86.4v-12.9h3.2V4z" fill="#424242" opacity=".2"/><g fill="#D96200"><path d="M89 21.3H43c-1 0-1.7.7-1.7 1.8v26.3c0 1 .6 1.7 1.7 1.7h46c1 0 1.7-.7 1.7-1.7V23c0-1-.7-1.8-1.7-1.8zm-1.7 26.3H44.6V24.8h42.7v22.8z"/><path d="M58.3 35.4h15.4c1 0 1.7-.7 1.7-1.8s-.7-1.7-1.7-1.7H58.3c-1 0-1.7.7-1.7 1.7s.6 1.8 1.7 1.8zm-5.2 7h25.7c1 0 1.7-.7 1.7-1.8s-.7-1.7-1.7-1.7H53.1c-1 0-1.7.7-1.7 1.7s.7 1.8 1.7 1.8z"/></g><linearGradient id="b" x1="19.1" x2="104.5" y1="116" y2="116" gradientUnits="userSpaceOnUse"><stop stop-color="#BDBDBD" offset="0"/><stop stop-color="#F5F5F5" offset="1"/></linearGradient><path d="M104.5 120.8H23.6c-2.5 0-4.5-2-4.5-4.5v-.6c0-2.5 2-4.5 4.5-4.5h81v9.6z" fill="url(#b)"/><defs><path id="c" d="M112 111.1H22a6 6 0 0 1-6-6V10a6 6 0 0 1 6-6h90v107.1z"/></defs><clipPath id="d"><use xlink:href="#c"/></clipPath><path clip-path="url(#d)" fill="#424242" d="M10.3-.3h12.9v128.6H10.3z"/></svg>