<svg viewBox="0 0 128 128" xmlns="http://www.w3.org/2000/svg"><linearGradient id="a" x1="64" x2="64" y1="5" y2="123.9" gradientUnits="userSpaceOnUse"><stop stop-color="#A1887F" offset="0"/><stop stop-color="#9D8279" offset=".2"/><stop stop-color="#8D6E63" offset="1"/></linearGradient><path d="M110.2 96.6V18a14 14 0 0 0-14-13.8H17.9a13.9 13.9 0 0 0 0 27.7h9.3v78.4A14 14 0 0 0 41 124.2h69.3a13.8 13.8 0 1 0 0-27.7z" fill="url(#a)"/><path d="M17.8 8.9c5.1 0 9.3 4.1 9.3 9.2v4.4c-.1-5-4.2-9-9.2-9-4.3 0-8 3-9 7a9.2 9.2 0 0 1 8.9-11.6z" fill="#5D4037"/><circle cx="17.9" cy="21.2" r="4.6" fill="#6D4C41"/><linearGradient id="b" x1="66.8" x2="66.8" y1="9.5" y2="119.6" gradientUnits="userSpaceOnUse"><stop stop-color="#D7C1AE" offset="0"/><stop stop-color="#D1BBA9" offset=".3"/><stop stop-color="#C0A99A" offset=".6"/><stop stop-color="#A48C82" offset="1"/><stop stop-color="#A1887F" offset="1"/></linearGradient><path d="M31.7 110.4V18.1c0-3.6-1.4-6.8-3.6-9.2h68.2c5 0 9.2 4.1 9.2 9.2v78.5H41a9.2 9.2 0 1 0 9 11.5l.2 2.3c0 5-4 9-9 9.2H41c-5 0-9.2-4.1-9.2-9.2z" fill="url(#b)"/><path d="M45.5 105.8a4.6 4.6 0 0 1-9.2 0c0-2.5 2-4.6 4.6-4.6 2.6 0 4.7 2 4.7 4.6z" fill="#5D4037"/><path d="M110.2 119.6h-59a13.8 13.8 0 0 0 0-18.4h59a9.2 9.2 0 0 1 0 18.4z"/><linearGradient id="c" x1="85.3" x2="85.3" y1="101.5" y2="120.9" gradientUnits="userSpaceOnUse"><stop stop-color="#D7C1AE" offset="0"/><stop stop-color="#CFB9A7" offset=".2"/><stop stop-color="#B9A294" offset=".6"/><stop stop-color="#A1887F" offset=".9"/></linearGradient><path d="M110.1 119.6h-59a13.7 13.7 0 0 0 0-18.4h59a9.2 9.2 0 0 1 0 18.4z" fill="url(#c)"/><path d="M94.5 30.4H45.9c-1 0-2-1-2-2.3s1-2.3 2-2.3h48.6c1.1 0 2 1 2 2.3s-.9 2.3-2 2.3zm0 14.1H45.9c-1 0-2-1-2-2.3s1-2.3 2-2.3h48.6c1.1 0 2 1 2 2.3 0 1.3-.9 2.3-2 2.3zm0 14H45.9c-1 0-2-1-2-2.3s1-2.3 2-2.3h48.6c1.1 0 2 1 2 2.4s-.9 2.3-2 2.3zm0 14.1H45.9c-1 0-2-1-2-2.3s1-2.3 2-2.3h48.6c1.1 0 2 1 2 2.3s-.9 2.3-2 2.3zM66.7 86.7H46c-1 0-2-1-2-2.3s1-2.3 2-2.3h20.8c1.1 0 2 1 2 2.3s-.9 2.3-2 2.3z" fill="#8D6E63"/><path d="M96.3 7.3c6 0 10.8 4.8 10.8 10.8v78.5a3 3 0 0 0 3 3 10.9 10.9 0 0 1 .4 21.7H40.8c-6-.1-10.7-5-10.7-10.9V32a3 3 0 0 0-3-3h-9.3a10.9 10.9 0 0 1 0-21.7h78.5m0-3H17.8a13.9 13.9 0 0 0 0 27.7h9.3v78.5a14 14 0 0 0 13.8 13.9h69.3a13.8 13.8 0 1 0 0-27.7V18c0-7.6-6.2-13.8-13.9-13.8z" fill="#424242" opacity=".2"/></svg>