<svg viewBox="0 0 128 128" xmlns="http://www.w3.org/2000/svg"><path d="M113.8 112.4H13.9a6.1 6.1 0 0 1-6.1-6.1v-24c0-3.4 2.7-6.2 6.1-6.2h99.9c3.4 0 6.1 2.8 6.1 6.2v24a6 6 0 0 1-6.1 6.1z" fill="#795548"/><path d="M113.8 79.1c1.7 0 3.1 1.4 3.1 3.2v24c0 1.7-1.4 3.1-3.1 3.1H13.9a3.1 3.1 0 0 1-3.1-3.1v-24c0-1.8 1.4-3.2 3.1-3.2h99.9m0-3H13.9a6.1 6.1 0 0 0-6.1 6.1v24a6 6 0 0 0 6.1 6.2h99.9a6 6 0 0 0 6.1-6.1v-24c0-3.4-2.7-6.2-6.1-6.2z" fill="#444" opacity=".2"/><path fill="#ECEFF1" d="M11.9 87.9h104v21.7h-104z"/><path fill="none" stroke="#90A4AE" stroke-linecap="round" stroke-linejoin="round" stroke-miterlimit="10" stroke-width="2" d="M32.2 93h63.6"/><path d="M114 89.9v17.7H13.9V90h100m2-2H12v21.7h104V88z" fill="#444" opacity=".2"/><path fill="none" stroke="#90A4AE" stroke-linecap="round" stroke-linejoin="round" stroke-miterlimit="10" stroke-width="2" d="M32.2 99h63.6"/><linearGradient id="a" x1="63.9" x2="63.9" y1="52" y2="132.8" gradientUnits="userSpaceOnUse"><stop stop-color="#FFCC80" offset=".3"/><stop stop-color="#FFA726" offset="1"/></linearGradient><path d="M92 76.1c0 13.2-8.3 27.9-28 27.9S36 89.3 36 76H10a6 6 0 0 0-6 6v36a6 6 0 0 0 6 6h108a6 6 0 0 0 6-6V82a6 6 0 0 0-6-6H92z" fill="url(#a)"/><path d="M98.7 79.1H118a3 3 0 0 1 3 3v36a3 3 0 0 1-3 3H10a3 3 0 0 1-3-3V82a3 3 0 0 1 3-3h23.3c1.1 14 11 27.9 30.8 27.9S93.6 93 94.9 79h3.8m0-3H92c0 13.2-8.3 27.9-28 27.9S36 89.3 36 76H9.9a6 6 0 0 0-6 6v36a6 6 0 0 0 6 6h108a6 6 0 0 0 6-6V82a6 6 0 0 0-6-6H98.7z" fill="#444" opacity=".2"/><linearGradient id="b" x1="64.1" x2="64.1" y1="8.8" y2="66" gradientTransform="translate(0 -2.2)" gradientUnits="userSpaceOnUse"><stop stop-color="#2196F3" offset="0"/><stop stop-color="#64B5F6" offset="1"/></linearGradient><path d="M63 67.5L36.1 45.8c-1.2-1-.5-3 1-3H91c1.6 0 2.3 2 1 3L65.1 67.5c-.6.5-1.5.5-2 0z" fill="url(#b)"/><linearGradient id="c" x1="64.1" x2="64.1" y1="14.8" y2="63.6" gradientTransform="translate(0 -2.2)" gradientUnits="userSpaceOnUse"><stop stop-color="#2196F3" offset="0"/><stop stop-color="#64B5F6" offset="1"/></linearGradient><path d="M77 47.4H51.2a2 2 0 0 1-2-2V11c0-1.1.9-2 2-2H77a2 2 0 0 1 2 2v34.3a2 2 0 0 1-2 2z" fill="url(#c)"/><path d="M76.5 11.6v31.2c0 1.3 1.1 2.5 2.5 2.5h9.7L64 65.3l-24.6-20h9.7c1.3 0 2.4-1.2 2.4-2.5V11.6h24.9m.8-2.5H50.8c-.9 0-1.6.7-1.6 1.7v32h-12c-1.6 0-2.3 2-1.1 2.9l27 21.8c.2.3.6.4 1 .4s.7-.1 1-.4l27-21.8c1.1-1 .4-3-1.1-3H79v-32c0-.9-.8-1.6-1.7-1.6z" fill="#444" opacity=".2"/></svg>