<svg viewBox="0 0 128 128" xmlns="http://www.w3.org/2000/svg" xmlns:xlink="http://www.w3.org/1999/xlink"><linearGradient id="a" x1="63.8" x2="63.8" y1="92.2" y2="124.8" gradientUnits="userSpaceOnUse"><stop stop-color="#757575" offset=".3"/><stop stop-color="#BDBDBD" offset="1"/></linearGradient><path fill="url(#a)" d="M54.8 84h18v40h-18z"/><path d="M69.8 87v34h-12V87h12m3-3h-18v40h18V84z" fill="#444" opacity=".2"/><linearGradient id="b" x1="-106.6" x2="-106.6" y1="56.7" y2="124.2" gradientUnits="userSpaceOnUse"><stop stop-color="#FFC107" offset="0"/><stop stop-color="#FFD54F" offset="1"/></linearGradient><path d="M-50.6 123.9h-112a4 4 0 0 1-4-4v-72a4 4 0 0 1 4-4h112a4 4 0 0 1 4 4v72a4 4 0 0 1-4 4z" fill="url(#b)"/><linearGradient id="c" x1="-106.6" x2="-106.6" y1="44.7" y2="107.1" gradientUnits="userSpaceOnUse"><stop stop-color="#FFE082" offset="0"/><stop stop-color="#FFCA28" offset="1"/></linearGradient><path d="M-46.6 50v-2a4 4 0 0 0-4-4h-112a4 4 0 0 0-4 4v2l60 46.1 60-46z" fill="url(#c)"/><defs><path id="d" d="M-50.6 123.9h-112a4 4 0 0 1-4-4v-72a4 4 0 0 1 4-4h112a4 4 0 0 1 4 4v72a4 4 0 0 1-4 4z"/></defs><clipPath id="e"><use xlink:href="#d"/></clipPath><g clip-path="url(#e)" fill="none" stroke="#FFB300" stroke-miterlimit="10" stroke-width="3"><path d="M-127.6 80.6l-43.2 47.2m85.1-47.3l43.1 47.5"/></g><path clip-path="url(#e)" fill="none" stroke="#FFB300" stroke-miterlimit="10" stroke-width="3" d="M-170.5 47.7l63.8 48.3 64-48.2"/><path d="M-50.6 46.9c.6 0 1 .4 1 1v72c0 .5-.4 1-1 1h-112a1 1 0 0 1-1-1v-72c0-.6.5-1 1-1h112m0-3h-112a4 4 0 0 0-4 4v72a4 4 0 0 0 4 4h112a4 4 0 0 0 4-4v-72a4 4 0 0 0-4-4z" fill="#444" opacity=".2"/><linearGradient id="f" x1="76.1" x2="76.1" y1="23.5" y2="90.4" gradientUnits="userSpaceOnUse"><stop stop-color="#64B5F6" offset="0"/><stop stop-color="#2196F3" offset=".7"/></linearGradient><path d="M124 96H28.2V24H98a26 26 0 0 1 26 26v46z" fill="url(#f)"/><linearGradient id="g" x1="26.4" x2="26.4" y1="23.8" y2="96" gradientUnits="userSpaceOnUse"><stop stop-color="#90CAF9" offset=".3"/><stop stop-color="#42A5F5" offset="1"/></linearGradient><path d="M48.8 96H4V46.4a22.4 22.4 0 1 1 44.8 0V96z" fill="url(#g)"/><path d="M37.4 51.6h-22a2 2 0 0 1-2-2v-4c0-1 .9-2 2-2h22a2 2 0 0 1 2 2v4a2 2 0 0 1-2 2z" fill="#1E88E5"/><path d="M98 27a23 23 0 0 1 23 23v43H7V46.4A19.4 19.4 0 0 1 28.2 27H98m0-3H26.4C14 24 4 34 4 46.4V96h120V50a26 26 0 0 0-26-26z" fill="#444" opacity=".2"/><linearGradient id="h" x1="76.9" x2="76.9" y1="12.5" y2="64.5" gradientUnits="userSpaceOnUse"><stop stop-color="#EF5350" offset=".2"/><stop stop-color="#E53935" offset=".8"/></linearGradient><path d="M85.9 4.2h-18a6 6 0 0 0-6 6v46.9c0 1.4 1 2.5 2.5 2.5h5c1.3 0 2.5-1.1 2.5-2.5V20h14a6 6 0 0 0 6-6v-3.8a6 6 0 0 0-6-6z" fill="url(#h)"/><path d="M85.9 6.2a4 4 0 0 1 4 4V14a4 4 0 0 1-4 4h-14a2 2 0 0 0-2 2v37c0 .4-.3.6-.5.6h-5a.5.5 0 0 1-.6-.5V10.2a4 4 0 0 1 4-4h18m0-2h-18a6 6 0 0 0-6 6v46.9c0 1.4 1.2 2.5 2.5 2.5h5c1.4 0 2.6-1.1 2.6-2.5V20h14a6 6 0 0 0 6-6v-3.8a6 6 0 0 0-6-6z" fill="#444" opacity=".2"/><radialGradient id="i" cx="63.9" cy="56.2" r="14.9" gradientUnits="userSpaceOnUse"><stop stop-color="#ECEFF1" offset="0"/><stop stop-color="#B0BEC5" offset=".7"/></radialGradient><circle cx="66.8" cy="59.4" r="9" fill="url(#i)"/><path d="M66.8 52.4a7 7 0 1 1 0 14 7 7 0 0 1 0-14m0-2a9 9 0 1 0 0 18 9 9 0 0 0 0-18z" fill="#444" opacity=".2"/></svg>