<svg viewBox="0 0 128 128" xmlns="http://www.w3.org/2000/svg" xmlns:xlink="http://www.w3.org/1999/xlink"><linearGradient id="a" x1="64" x2="64" y1="56.7" y2="124.2" gradientUnits="userSpaceOnUse"><stop stop-color="#FFC107" offset="0"/><stop stop-color="#FFD54F" offset="1"/></linearGradient><path d="M120 123.9H8a4 4 0 0 1-4-4v-72a4 4 0 0 1 4-4h112a4 4 0 0 1 4 4v72a4 4 0 0 1-4 4z" fill="url(#a)"/><linearGradient id="b" x1="64" x2="64" y1="28.3" y2="92" gradientUnits="userSpaceOnUse"><stop stop-color="#FFE082" offset="0"/><stop stop-color="#FFCA28" offset="1"/></linearGradient><path d="M124 50v-2a4 4 0 0 0-4-4H8a4 4 0 0 0-4 4v2l60 46 60-46z" fill="url(#b)"/><defs><path id="c" d="M120 123.9H8a4 4 0 0 1-4-4v-72a4 4 0 0 1 4-4h112a4 4 0 0 1 4 4v72a4 4 0 0 1-4 4z"/></defs><clipPath id="d"><use xlink:href="#c"/></clipPath><g clip-path="url(#d)" fill="none" stroke="#FFB300" stroke-miterlimit="10" stroke-width="3"><path d="M43 80.6L-.2 127.8m85.1-47.3L128 128"/></g><path clip-path="url(#d)" fill="none" stroke="#FFB300" stroke-miterlimit="10" stroke-width="3" d="M0 47.7L64 96l64-48.2"/><path d="M120 46.9c.6 0 1 .4 1 1v72c0 .5-.5 1-1 1H8a1 1 0 0 1-1-1v-72c0-.6.5-1 1-1h112m0-3H8a4 4 0 0 0-4 4v72a4 4 0 0 0 4 4h112a4 4 0 0 0 4-4v-72a4 4 0 0 0-4-4z" fill="#444" opacity=".2"/><linearGradient id="e" x1="64.2" x2="64.2" y1="9" y2="78.2" gradientUnits="userSpaceOnUse"><stop stop-color="#64B5F6" offset="0"/><stop stop-color="#2196F3" offset="1"/></linearGradient><path d="M80.3 58.4H48.2a2 2 0 0 1-2-2V6c0-1.1.9-2 2-2h32a2 2 0 0 1 2 2v50.4a2 2 0 0 1-2 2z" fill="url(#e)"/><linearGradient id="f" x1="64" x2="64" y1="9" y2="78.2" gradientUnits="userSpaceOnUse"><stop stop-color="#64B5F6" offset="0"/><stop stop-color="#2196F3" offset="1"/></linearGradient><path d="M62.7 82.8L30.1 56.3a2 2 0 0 1 1.3-3.5h65.2a2 2 0 0 1 1.3 3.5L65.3 82.8a2 2 0 0 1-2.6 0z" fill="url(#f)"/><path d="M79.3 7v45.8a3 3 0 0 0 3 3h11.5L64 80 34.2 55.8h12a3 3 0 0 0 3-3V7h30m1-3h-32a2 2 0 0 0-2 2v46.8H31.4a2 2 0 0 0-1.3 3.5l32.6 26.5a2 2 0 0 0 2.5 0L98 56.3a2 2 0 0 0-1.3-3.5H82.3V6a2 2 0 0 0-2-2z" fill="#444" opacity=".2"/></svg>