<svg viewBox="0 0 128 128" xmlns="http://www.w3.org/2000/svg"><linearGradient id="a" x1="24" x2="24" y1="31.4" y2="39.1" gradientUnits="userSpaceOnUse"><stop stop-color="#BDBDBD" offset="0"/><stop stop-color="#B8B8B8" offset=".2"/><stop stop-color="#A8A8A8" offset=".5"/><stop stop-color="#8E8E8E" offset=".8"/><stop stop-color="#757575" offset="1"/></linearGradient><path d="M38.9 43H9.1c-1 0-1.8-.8-1.8-1.8v-8.4c0-1 .8-1.8 1.8-1.8h29.8c1 0 1.8.8 1.8 1.8v8.4c0 1-.8 1.8-1.8 1.8z" fill="url(#a)"/><path d="M37.7 34v6H10.3v-6h27.4m1.2-3H9.1c-1 0-1.8.8-1.8 1.8v8.4c0 1 .8 1.8 1.8 1.8h29.8c1 0 1.8-.8 1.8-1.8v-8.4c0-1-.8-1.8-1.8-1.8z" fill="#424242" opacity=".2"/><radialGradient id="b" cx="76.8" cy="63" r="71.2" gradientTransform="matrix(-.00258 1 -1.1098 -.00286 147 -13.7)" gradientUnits="userSpaceOnUse"><stop stop-color="#616161" offset="0"/><stop stop-color="#212121" offset="1"/></radialGradient><path fill="url(#b)" d="M4 51h120v68H4z"/><path d="M121 54v62H7V54h114m3-3H4v68h120V51z" fill="#eee" opacity=".2"/><path d="M120 124H8a4 4 0 0 1-4-4v-4h120v4a4 4 0 0 1-4 4zm0-96H48a4 4 0 0 0-4 4v5a2 2 0 0 1-2 2H8a4 4 0 0 0-4 4v12h120V32a4 4 0 0 0-4-4z" fill="#BDBDBD"/><path d="M70.4 39c.9 0 1.6.7 1.6 1.6v4.8c0 .9-.7 1.6-1.6 1.6H53.6c-.9 0-1.6-.7-1.6-1.6v-4.8c0-.9.7-1.6 1.6-1.6h16.8m0-2H53.6c-2 0-3.6 1.6-3.6 3.6v4.8c0 2 1.6 3.6 3.6 3.6h16.8c2 0 3.6-1.6 3.6-3.6v-4.8c0-2-1.6-3.6-3.6-3.6zm42.8-.8c1 0 1.8.8 1.8 1.8v7.2c0 1-.8 1.8-1.8 1.8H98.8c-1 0-1.8-.8-1.8-1.8V38c0-1 .8-1.8 1.8-1.8h14.4m0-2H98.8A3.8 3.8 0 0 0 95 38v7.2c0 2.1 1.7 3.8 3.8 3.8h14.4c2.1 0 3.8-1.7 3.8-3.8V38c0-2.1-1.7-3.8-3.8-3.8zM121 116v4c0 .6-.5 1-1 1H8a1 1 0 0 1-1-1v-4H4v4a4 4 0 0 0 4 4h112a4 4 0 0 0 4-4v-4h-3z" fill="#424242" opacity=".2"/><path d="M120 28H48a4 4 0 0 0-4 4v5a2 2 0 0 1-2 2H8a4 4 0 0 0-4 4v12h3V43c0-.5.4-1 1-1h34a5 5 0 0 0 5-5v-5c0-.5.4-1 1-1h72c.5 0 1 .5 1 1v23h3V32a4 4 0 0 0-4-4z" fill="#424242" opacity=".2"/><radialGradient id="c" cx="106" cy="41.6" r="12.3" gradientTransform="scale(.9999 1)" gradientUnits="userSpaceOnUse"><stop stop-color="#616161" offset="0"/><stop stop-color="#212121" offset="1"/></radialGradient><path d="M113.2 47H98.8c-1 0-1.8-.8-1.8-1.8V38c0-1 .8-1.8 1.8-1.8h14.4c1 0 1.8.8 1.8 1.8v7.2c0 1-.8 1.8-1.8 1.8z" fill="url(#c)"/><path d="M70.4 47H53.6c-.9 0-1.6-.7-1.6-1.6v-4.8c0-.9.7-1.6 1.6-1.6h16.8c.9 0 1.6.7 1.6 1.6v4.8c0 .9-.7 1.6-1.6 1.6zM82 47a2 2 0 0 1-2-2v-4c0-1.1.9-2 2-2s2 .9 2 2v4a2 2 0 0 1-2 2z" fill="#E0E0E0"/><path d="M82 42c-.6 0-1-.5-1-1s.5-1 1-1 1 .5 1 1-.5 1-1 1z" fill="#757575"/><path d="M82 46c-.6 0-1-.5-1-1s.5-1 1-1 1 .5 1 1-.5 1-1 1z" fill="#FAFAFA"/><path d="M53.5 39h1v8h-1zm2 0h1v8h-1zm2.1 0h1v8h-1zm2 0h1v8h-1zm2.1 0h1v8h-1zm2 0h1v8h-1zm2 0h1v8h-1zm2.1 0h1v8h-1zm2 0h1v8h-1z" fill="#F5F5F5"/><path d="M44.5 59a3 3 0 1 1 0 6 3 3 0 0 1 0-6m0-2a5 5 0 1 0 0 10 5 5 0 0 0 0-10zM82 39a2 2 0 0 1 2 2v4c0 1.1-.9 2-2 2s-2-.9-2-2v-4c0-1.1.9-2 2-2m0-2a4 4 0 0 0-4 4v4a4 4 0 1 0 8 0v-4a4 4 0 0 0-4-4z" fill="#424242" opacity=".2"/><circle cx="44.5" cy="62" r="3" fill="#E0E0E0"/><path d="M31 51a2 2 0 0 1 2 2v4.4a5 5 0 1 1-4 0V53c0-1.1.9-2 2-2m0-2a4 4 0 0 0-4 4v3.3a7 7 0 1 0 8 0V53a4 4 0 0 0-4-4z" fill="#424242" opacity=".2"/><ellipse cx="78" cy="85" rx="32" ry="32" fill="#BDBDBD"/><linearGradient id="d" x1="78" x2="78" y1="58.9" y2="110.8" gradientUnits="userSpaceOnUse"><stop stop-color="#616161" offset="0"/><stop stop-color="#212121" offset="1"/></linearGradient><ellipse cx="78" cy="85" rx="26" ry="26" fill="url(#d)"/><radialGradient id="e" cx="77.9" cy="61.6" r="46.9" gradientTransform="scale(.9999 1)" gradientUnits="userSpaceOnUse"><stop stop-color="#424242" offset="0"/><stop stop-color="#212121" offset="1"/></radialGradient><ellipse cx="78" cy="85" rx="23" ry="23" fill="url(#e)"/><radialGradient id="f" cx="77.9" cy="85" r="10" gradientTransform="scale(.9999 1)" gradientUnits="userSpaceOnUse"><stop stop-color="#757575" offset="0"/><stop stop-color="#6A6A6A" offset=".2"/><stop stop-color="#4D4D4D" offset=".6"/><stop stop-color="#212121" offset="1"/></radialGradient><circle cx="78" cy="85" r="10" fill="url(#f)"/><path d="M78 75a10 10 0 1 1 0 20 10 10 0 0 1 0-20m0-3a13 13 0 1 0 0 26 13 13 0 0 0 0-26z" fill="#eee" opacity=".2"/><linearGradient id="g" x1="31" x2="31" y1="51.1" y2="59.2" gradientUnits="userSpaceOnUse"><stop stop-color="#E0E0E0" offset="0"/><stop stop-color="#9E9E9E" offset="1"/></linearGradient><path d="M31 63a2 2 0 0 1-2-2v-8c0-1.1 1-2 2-2s2 .9 2 2v8a2 2 0 0 1-2 2z" fill="url(#g)"/><circle cx="31" cy="62" r="5" fill="#E0E0E0"/><path d="M31 65.5a3.5 3.5 0 1 1 0-7 3.5 3.5 0 0 1 0 7z" fill="#757575"/><path d="M31 59a3 3 0 1 1 0 6 3 3 0 0 1 0-6m0-1a4 4 0 1 0 0 8 4 4 0 0 0 0-8z" fill="#9E9E9E"/><path d="M31 56.2a1 1 0 0 1-1-1v-2c0-.5.5-1 1-1 .6 0 1 .5 1 1v2c0 .6-.4 1-1 1z" fill="#F44336"/><path d="M78 77a8 8 0 1 1 0 16 8 8 0 0 1 0-16m0-2a10 10 0 1 0 0 20 10 10 0 0 0 0-20z" fill="#424242" opacity=".2"/></svg>