<svg viewBox="0 0 128 128" xmlns="http://www.w3.org/2000/svg"><linearGradient id="a" x1="36" x2="36" y1="76.4" y2="103.7" gradientUnits="userSpaceOnUse"><stop stop-color="#29B6F6" offset="0"/><stop stop-color="#0277BD" offset="1"/></linearGradient><path fill="url(#a)" d="M20 76h32v28H20z"/><linearGradient id="b" x1="18" x2="18" y1="61.4" y2="115.1" gradientUnits="userSpaceOnUse"><stop stop-color="#29B6F6" offset="0"/><stop stop-color="#0277BD" offset="1"/></linearGradient><path d="M10.6 57L32 76v28l-21.4 19a4 4 0 0 1-6.6-3V60a4 4 0 0 1 6.6-3z" fill="url(#b)"/><linearGradient id="c" x1="45.9" x2="33" y1="90" y2="90" gradientUnits="userSpaceOnUse"><stop stop-color="#0288D1" offset="0"/><stop stop-color="#0288D1" stop-opacity="0" offset="1"/></linearGradient><path fill="url(#c)" d="M32 76h16v28H32z"/><path d="M8 59c.2 0 .4 0 .6.2l21.4 19 .9.8H49v22H30.9l-.9.8-21.4 19a1 1 0 0 1-.6.2c-.3 0-1-.2-1-1V60c0-.3.1-.5.3-.7.2-.2.5-.3.7-.3m0-3a4 4 0 0 0-4 4v60a4 4 0 0 0 6.6 3L32 104h20V76H32L10.6 57A4 4 0 0 0 8 56z" fill="#424242" opacity=".2"/><radialGradient id="d" cx="87.4" cy="59.1" r="63.9" gradientTransform="matrix(.9516 0 0 .9668 2 4)" gradientUnits="userSpaceOnUse"><stop stop-color="#81D4FA" offset="0"/><stop stop-color="#039BE5" offset="1"/></radialGradient><path d="M116 120H54.9a8 8 0 0 1-8-8V68a8 8 0 0 1 8-8H116a8 8 0 0 1 8 8v44a8 8 0 0 1-8 8z" fill="url(#d)"/><path d="M54.8 108.7h31.8c.8 0 1.4.6 1.4 1.4v.5c0 .7-.7 1.4-1.4 1.4H54.8c-.8 0-1.5-.7-1.5-1.4v-.5c0-.8.7-1.4 1.5-1.4zm0-6h31.8c.8 0 1.4.6 1.4 1.4v.5c0 .7-.7 1.4-1.4 1.4H54.8c-.8 0-1.5-.7-1.5-1.4v-.5c0-.8.7-1.4 1.5-1.4zm0-6h31.8c.8 0 1.4.6 1.4 1.4v.5c0 .7-.7 1.4-1.4 1.4H54.8c-.8 0-1.5-.7-1.5-1.4V98c0-.8.7-1.4 1.5-1.4z" fill="#0288D1"/><path d="M116 63a5 5 0 0 1 5 5v44a5 5 0 0 1-5 5H54.9a5 5 0 0 1-5-5V68a5 5 0 0 1 5-5H116m0-3H54.9a8 8 0 0 0-8 8v44a8 8 0 0 0 8 8H116a8 8 0 0 0 8-8V68a8 8 0 0 0-8-8z" fill="#424242" opacity=".2"/><radialGradient id="e" cx="48.4" cy="5.6" r="61.8" gradientUnits="userSpaceOnUse"><stop stop-color="#42A5F5" offset="0"/><stop stop-color="#1565C0" offset="1"/></radialGradient><path d="M48 4a32 32 0 1 0 0 64 32 32 0 0 0 0-64zm4.3 19l3.2-10.2a1 1 0 0 1 1.4-.7 25.3 25.3 0 0 1 15.5 16.5 1 1 0 0 1-.7 1.3l-10.2 3a1 1 0 0 1-1.3-.7 12.6 12.6 0 0 0-7.3-8 1 1 0 0 1-.6-1.2zm-28 3.5a25.4 25.4 0 0 1 15-14.5 1 1 0 0 1 1.3.8l3 10.2c.2.5 0 1-.6 1.3a12.7 12.7 0 0 0-6.5 6.2 1 1 0 0 1-1.3.6L25 27.9a1 1 0 0 1-.7-1.4zm20 22.8L41 59.4a1 1 0 0 1-1.3.7A25.4 25.4 0 0 1 24.2 45a1 1 0 0 1 .7-1.4l10.2-3c.5-.1 1 0 1.3.6a12.4 12.4 0 0 0 7.2 6.8c.5.2.8.7.6 1.3zm-1.6-8a7.5 7.5 0 1 1 10.6-10.6 7.5 7.5 0 0 1-10.6 10.6zm29.6 2.3a25.5 25.5 0 0 1-16.6 16.7 1 1 0 0 1-1.3-.7l-3-10.2A1 1 0 0 1 52 48a12.6 12.6 0 0 0 8.2-8.3 1 1 0 0 1 1.3-.6l10.1 3c.6.3 1 .9.7 1.4z" fill="url(#e)"/><radialGradient id="f" cx="102.3" cy="20.8" r="43.4" gradientUnits="userSpaceOnUse"><stop stop-color="#42A5F5" offset="0"/><stop stop-color="#1565C0" offset="1"/></radialGradient><path d="M102 20a22 22 0 1 0 0 44 22 22 0 0 0 0-44zm3 13l2.1-7c.2-.4.6-.6 1-.4a17.4 17.4 0 0 1 10.7 11.3c0 .4-.1.8-.5.9l-7 2c-.4.1-.8 0-1-.4a8.7 8.7 0 0 0-5-5.5.7.7 0 0 1-.3-.9zm-19.3 2.5a17.7 17.7 0 0 1 10.3-10c.4-.1.8.1 1 .5l2 7c0 .4 0 .8-.4 1a8.6 8.6 0 0 0-4.5 4.2c-.2.4-.6.5-.9.4l-7-2.2a.7.7 0 0 1-.5-1zM99.4 51l-2.2 7c0 .4-.5.6-.9.5a17.4 17.4 0 0 1-10.7-10.4c-.1-.4 0-.9.5-1l7-2c.4-.1.8 0 1 .3a7.8 7.8 0 0 0 4.9 4.7c.3.2.5.6.4 1zm-1-5.6a5 5 0 1 1 7.2-7 5 5 0 0 1-7.1 7zm20.3 1.7a17.5 17.5 0 0 1-11.4 11.5.7.7 0 0 1-1-.5l-2-7c-.1-.4.1-.8.5-.9a8.6 8.6 0 0 0 5.6-5.7c0-.4.5-.6.9-.4l7 2.1c.3.1.6.5.4 1z" fill="url(#f)"/><path d="M114 100c1.1 0 2 .9 2 2s-.9 2-2 2-2-.9-2-2 .9-2 2-2m0-2a4 4 0 1 0 0 8 4 4 0 0 0 0-8zm0 10c1.1 0 2 .9 2 2s-.9 2-2 2-2-.9-2-2 .9-2 2-2m0-2a4 4 0 1 0 0 8 4 4 0 0 0 0-8z" fill="#424242" opacity=".2"/><linearGradient id="g" x1="114" x2="114" y1="99.7" y2="103.8" gradientUnits="userSpaceOnUse"><stop stop-color="#FF1744" offset="0"/><stop stop-color="#D50000" offset="1"/></linearGradient><circle cx="114" cy="102" r="2" fill="url(#g)"/><linearGradient id="h" x1="114" x2="114" y1="107.8" y2="111.8" gradientUnits="userSpaceOnUse"><stop stop-color="#76FF03" offset="0"/><stop stop-color="#64DD17" offset="1"/></linearGradient><circle cx="114" cy="110" r="2" fill="url(#h)"/><path d="M48 7a29 29 0 1 1 0 58 29 29 0 0 1 0-58m0-3a32 32 0 1 0 0 64 32 32 0 0 0 0-64z" fill="#424242" opacity=".2"/><path d="M102 23a19 19 0 1 1 0 38 19 19 0 0 1 0-38m0-3a22 22 0 1 0 0 44 22 22 0 0 0 0-44zm-62.4-8c.5 0 .9.3 1 .8l3 10.2c.2.5 0 1-.6 1.3a12.7 12.7 0 0 0-6.5 6.2 1 1 0 0 1-1 .6h-.3L25 27.9a1 1 0 0 1-.7-1.4A25.4 25.4 0 0 1 39.6 12m17 0h.3a25.3 25.3 0 0 1 15.5 16.6 1 1 0 0 1-.7 1.3l-10.2 3a1 1 0 0 1-.3 0 1 1 0 0 1-1-.7 12.6 12.6 0 0 0-7.3-8 1 1 0 0 1-.6-1.2l3.2-10.2a1 1 0 0 1 1-.8M48 28.5a7.5 7.5 0 1 1 0 15 7.5 7.5 0 0 1 0-15m13.2 10.6h.3l10.1 3.2c.6.2 1 .8.7 1.3a25.5 25.5 0 0 1-17 16.8 1 1 0 0 1-1-.8l-3-10.2A1 1 0 0 1 52 48a12.6 12.6 0 0 0 8.1-8.3 1 1 0 0 1 1-.7m-25.7 1.5c.4 0 .8.2 1 .6a12.4 12.4 0 0 0 7.2 6.8c.5.1.8.7.6 1.3l-3.1 10.1a1 1 0 0 1-1.3.7A25.4 25.4 0 0 1 24 45a1 1 0 0 1 .8-1.4l10.2-3h.3M39.6 11a26.4 26.4 0 0 0-16.2 15 2 2 0 0 0 0 1.7c.3.5.8.9 1.3 1L35 32l.6.1a2 2 0 0 0 1.9-1.2 11.9 11.9 0 0 1 6-5.7 2 2 0 0 0 1.2-2.5l-3-10.2a2 2 0 0 0-2-1.5zm17 0a2 2 0 0 0-2 1.5l-3.2 10.2a2 2 0 0 0 1.2 2.5 11.6 11.6 0 0 1 6.6 7.3 2 2 0 0 0 2.5 1.3l10.2-3a2 2 0 0 0 1.3-1c.2-.4.3-1 .1-1.5A26.5 26.5 0 0 0 56.5 11zM48 27.5A8.5 8.5 0 1 0 54 42a8.5 8.5 0 0 0-6-14.5zm13.1 10.6a2 2 0 0 0-1.9 1.4 11.5 11.5 0 0 1-7.5 7.6 2 2 0 0 0-1.3 2.6l3 10.2a2 2 0 0 0 2.6 1.4 26.5 26.5 0 0 0 17.3-17.4c.1-.5.1-1-.2-1.5a2 2 0 0 0-1.2-1l-10.1-3.2a2 2 0 0 0-.7 0zm-25.7 1.5a2 2 0 0 0-.6 0l-10.2 3a2 2 0 0 0-1.4 2.7 26.2 26.2 0 0 0 16.9 15.9 2 2 0 0 0 2-1.5l3.1-10.1A2 2 0 0 0 44 47a11.6 11.6 0 0 1-6.7-6.2c-.4-.8-1-1.2-2-1.2z" fill="#424242" opacity=".2"/><path d="M96.2 25.5c.3 0 .6.2.7.5l2 7c.2.4 0 .8-.3 1a8.6 8.6 0 0 0-4.5 4.2c-.1.3-.4.4-.7.4h-.2l-7-2.2a.7.7 0 0 1-.5-1A17.7 17.7 0 0 1 96 25.6h.2m11.6 0h.3A17.4 17.4 0 0 1 118.8 37c0 .4-.1.8-.5.9l-7 2h-.3a.7.7 0 0 1-.6-.4 8.7 8.7 0 0 0-5-5.5.7.7 0 0 1-.4-.9l2.1-7c.1-.3.4-.5.7-.5M102 37a5 5 0 1 1 0 10 5 5 0 0 1 0-10m9 7.1h.3l7 2.2c.3.1.5.5.4 1a17.5 17.5 0 0 1-11.6 11.4.7.7 0 0 1-.7-.5l-2-7c-.2-.4 0-.8.4-.9a8.6 8.6 0 0 0 5.5-5.7c.1-.3.4-.5.7-.5m-17.7 1c.3 0 .6.2.7.5a8.8 8.8 0 0 0 5 4.7c.3 0 .5.5.4.8l-2.1 7c-.1.3-.4.5-.7.5h-.3a17.4 17.4 0 0 1-10.7-10.4c-.1-.4 0-.9.5-1l7-2h.2m3-20.7h-.6a18.5 18.5 0 0 0-10.9 10.6c-.2.4-.2 1 0 1.4.3.4.6.7 1.1.9l7 2.1.6.1c.6 0 1.2-.4 1.5-1a7.7 7.7 0 0 1 4-3.8c.8-.3 1.2-1.2 1-2l-2.1-7c-.2-.8-1-1.3-1.7-1.3zm11.6 0c-.8 0-1.5.5-1.7 1.2l-2.2 7c-.2 1 .2 1.8 1 2.1a7.8 7.8 0 0 1 4.4 4.9 1.7 1.7 0 0 0 2.1 1.1l7-2c.5-.2.9-.5 1-.9.3-.4.4-.9.2-1.3a18.6 18.6 0 0 0-11.3-12h-.6zM102 36zm9 7.1c-.7 0-1.4.5-1.6 1.2a7.7 7.7 0 0 1-5 5c-.8.3-1.3 1.3-1 2.2l2 7a1.7 1.7 0 0 0 2.2 1.2 18.6 18.6 0 0 0 12-12.2c.2-.4.2-.9 0-1.3s-.6-.7-1-.8l-7-2.2h-.6zm-17.7 1l-.5.1-7 2c-.5.2-.9.5-1 1-.3.4-.3.9-.1 1.3a18.5 18.5 0 0 0 11.9 11.1c.7 0 1.4-.5 1.6-1.2l2.2-7c.2-.9-.2-1.8-1-2.1a7.6 7.6 0 0 1-4.5-4.2c-.3-.6-.9-1-1.6-1z" fill="#424242" opacity=".2"/></svg>