<svg viewBox="0 0 128 128" xmlns="http://www.w3.org/2000/svg"><radialGradient id="a" cx="63.333" cy="54.833" r="32.002" gradientTransform="matrix(0 1 -2.9061 0 222.68 -8.5)" gradientUnits="userSpaceOnUse"><stop stop-color="#B3E5FC" offset="0"/><stop stop-color="#4FC3F7" offset="1"/></radialGradient><path fill="url(#a)" d="M8 40h112v48H8z"/><radialGradient id="b" cx="87.917" cy="43.667" r="40.84" gradientUnits="userSpaceOnUse"><stop stop-color="#616161" offset="0"/><stop stop-color="#212121" offset="1"/></radialGradient><circle cx="88" cy="64" r="20" fill="url(#b)"/><radialGradient id="c" cx="88" cy="52.833" r="21.412" gradientUnits="userSpaceOnUse"><stop stop-color="#eee" offset="0"/><stop stop-color="#BDBDBD" offset="1"/></radialGradient><circle cx="88" cy="64" r="10" fill="url(#c)"/><circle cx="88" cy="64" r="16" fill="none" opacity=".2" stroke="#eee" stroke-miterlimit="10" stroke-width=".941"/><circle cx="88" cy="64" r="13" fill="none" opacity=".2" stroke="#eee" stroke-miterlimit="10"/><radialGradient id="d" cx="39.833" cy="43.75" r="40.847" gradientUnits="userSpaceOnUse"><stop stop-color="#616161" offset="0"/><stop stop-color="#212121" offset="1"/></radialGradient><circle cx="40" cy="64" r="20" fill="url(#d)"/><radialGradient id="e" cx="39.667" cy="53.333" r="21.006" gradientUnits="userSpaceOnUse"><stop stop-color="#eee" offset="0"/><stop stop-color="#BDBDBD" offset="1"/></radialGradient><circle cx="40" cy="64" r="10" fill="url(#e)"/><circle cx="40" cy="64" r="16" fill="none" opacity=".2" stroke="#eee" stroke-miterlimit="10" stroke-width=".941"/><circle cx="40" cy="64" r="13" fill="none" opacity=".2" stroke="#eee" stroke-miterlimit="10"/><path d="M88 55c4.96 0 9 4.04 9 9s-4.04 9-9 9-9-4.04-9-9 4.04-9 9-9m0-1c-5.52 0-10 4.48-10 10s4.48 10 10 10 10-4.48 10-10-4.48-10-10-10zM40 55c4.96 0 9 4.04 9 9s-4.04 9-9 9-9-4.04-9-9 4.04-9 9-9m0-1c-5.52 0-10 4.48-10 10s4.48 10 10 10 10-4.48 10-10-4.48-10-10-10z" fill="#424242" opacity=".2"/><path d="M40 46c9.93 0 18 8.07 18 18s-8.07 18-18 18-18-8.07-18-18 8.07-18 18-18m0-2c-11.05 0-20 8.95-20 20s8.95 20 20 20 20-8.95 20-20-8.95-20-20-20zM88 46c9.93 0 18 8.07 18 18s-8.07 18-18 18-18-8.07-18-18 8.07-18 18-18m0-2c-11.05 0-20 8.95-20 20s8.95 20 20 20 20-8.95 20-20-8.95-20-20-20z" fill="#424242" opacity=".2"/><radialGradient id="f" cx="64.5" cy="28.75" r="87.882" gradientUnits="userSpaceOnUse"><stop stop-color="#616161" offset="0"/><stop stop-color="#212121" offset="1"/></radialGradient><path d="M4 32v64c0 2.21 1.79 4 4 4h112c2.21 0 4-1.79 4-4V32c0-2.21-1.79-4-4-4H8c-2.21 0-4 1.79-4 4zm36 46c0 1.1-.9 2-2 2H20c-2.21 0-8-7.16-8-16s5.79-16 8-16h18c1.1 0 2 .9 2 2v28zm68 2H90c-1.1 0-2-.9-2-2V50c0-1.1.9-2 2-2h18c2.21 0 8 7.16 8 16s-5.79 16-8 16z" fill="url(#f)"/><path fill="#424242" opacity=".2" d="M12 38h104v2H12zM12 42h104v2H12zM12 34h104v2H12zM12 88h104v2H12zM12 92h104v2H12zM12 84h104v2H12zM82 48c1.1 0 2 .9 2 2v28c0 1.1-.9 2-2 2H46c-1.1 0-2-.9-2-2V50c0-1.1.9-2 2-2h36m0-2H46c-2.21 0-4 1.79-4 4v28c0 2.21 1.79 4 4 4h36c2.21 0 4-1.79 4-4V50c0-2.21-1.79-4-4-4z"/><path d="M120 31c.55 0 1 .45 1 1v64c0 .55-.45 1-1 1H8c-.55 0-1-.45-1-1V32c0-.55.45-1 1-1h112m0-3H8c-2.21 0-4 1.79-4 4v64c0 2.21 1.79 4 4 4h112c2.21 0 4-1.79 4-4V32c0-2.21-1.79-4-4-4z" fill="#eee" opacity=".2"/><radialGradient id="g" cx="63.5" cy="48.5" r="21.844" gradientUnits="userSpaceOnUse"><stop stop-color="#EF5350" offset="0"/><stop stop-color="#E53935" offset="1"/></radialGradient><path d="M84 50c0-1.1-.9-2-2-2H46c-1.1 0-2 .9-2 2v6h40v-6z" fill="url(#g)"/><radialGradient id="h" cx="63.333" cy="55.167" r="28.404" gradientUnits="userSpaceOnUse"><stop stop-color="#FAFAFA" offset="0"/><stop stop-color="#eee" offset="1"/></radialGradient><path d="M44 56v22c0 1.1.9 2 2 2h36c1.1 0 2-.9 2-2V56H44z" fill="url(#h)"/><path d="M77 66H51c-.55 0-1-.45-1-1v-2c0-.55.45-1 1-1h26c.55 0 1 .45 1 1v2c0 .55-.45 1-1 1zM77 74H51c-.55 0-1-.45-1-1v-2c0-.55.45-1 1-1h26c.55 0 1 .45 1 1v2c0 .55-.45 1-1 1z" fill="#BDBDBD"/><path d="M108 48c2.21 0 8 7.16 8 16s-5.79 16-8 16H90c-1.1 0-2-.9-2-2V50c0-1.1.9-2 2-2h18m-70 0c1.1 0 2 .9 2 2v28c0 1.1-.9 2-2 2H20c-2.21 0-8-7.16-8-16s5.79-16 8-16h18m70-2H90c-2.21 0-4 1.79-4 4v28c0 2.21 1.79 4 4 4h18c3.77 0 10-8.41 10-18s-6.23-18-10-18zm-70 0H20c-3.77 0-10 8.41-10 18s6.23 18 10 18h18c2.21 0 4-1.79 4-4V50c0-2.21-1.79-4-4-4z" fill="#424242" opacity=".2"/></svg>