<svg viewBox="0 0 128 128" xmlns="http://www.w3.org/2000/svg"><path d="M26 124h-4a2 2 0 0 1-2-2v-14h8v14a2 2 0 0 1-2 2zm80 0h-4a2 2 0 0 1-2-2v-14h8v14a2 2 0 0 1-2 2zM14.5 31.7l-2-8.4L103 4c1.1-.2 2.3.5 2.5 1.7S105 8 104 8.3L14.5 31.7z" fill="#546E7A"/><path d="M27 109v13c0 .6-.5 1-1 1h-4a1 1 0 0 1-1-1v-13h6m1-1h-8v14c0 1.1.9 2 2 2h4a2 2 0 0 0 2-2v-14zm79 1v13c0 .6-.5 1-1 1h-4a1 1 0 0 1-1-1v-13h6m1-1h-8v14c0 1.1.9 2 2 2h4a2 2 0 0 0 2-2v-14zM103.3 5c.6 0 1 .4 1.2 1 .1.6-.3 1.2-.9 1.4l-88.3 23-1.5-6.3L103 5l.2-.1m0-1h-.4L12.6 23.4l2 8.4 89.3-23.4a2.2 2.2 0 1 0-.6-4.3z" fill="#eee" opacity=".2"/><radialGradient id="a" cx="65" cy="30.7" r="85.3" gradientTransform="matrix(.9966 0 0 1 .2 0)" gradientUnits="userSpaceOnUse"><stop stop-color="#FFC400" offset="0"/><stop stop-color="#FFBE00" offset=".3"/><stop stop-color="#FFAE00" offset=".7"/><stop stop-color="#FFAB00" offset=".8"/><stop stop-color="#FFAB00" offset="1"/></radialGradient><path d="M114 118H14a10 10 0 0 1-10-10V31.7a10 10 0 0 1 10-10h100a10 10 0 0 1 10 10V108a10 10 0 0 1-10 10z" fill="url(#a)"/><radialGradient id="b" cx="62.2" cy="35" r="47.7" gradientTransform="matrix(.9966 0 0 1 .2 0)" gradientUnits="userSpaceOnUse"><stop stop-color="#4FC3F7" offset="0"/><stop stop-color="#03A9F4" offset="1"/></radialGradient><path d="M108 53.8H20a4 4 0 0 1-4-4V37.6a4 4 0 0 1 4-4h88a4 4 0 0 1 4 4v12a4 4 0 0 1-4 4z" fill="url(#b)"/><path d="M114 24.7a7 7 0 0 1 7 7V108a7 7 0 0 1-7 7H14a7 7 0 0 1-7-7V31.7a7 7 0 0 1 7-7h100m0-3H14a10 10 0 0 0-10 10V108a10 10 0 0 0 10 10h100a10 10 0 0 0 10-10V31.7a10 10 0 0 0-10-10z" fill="#424242" opacity=".2"/><path d="M72.7 85.6h-1.8c-.5 0-1-.4-1-1s.5-.9 1-.9h1.8c.5 0 .9.4.9 1s-.4.9-1 .9zm38.3 0h-1.7c-.5 0-1-.4-1-1s.5-.9 1-.9h1.8c.5 0 .9.4.9 1s-.4.9-1 .9zm-2.4-4.8a1 1 0 0 1-.2-1.8l1.8-.5a1 1 0 0 1 .4 1.8l-1.7.5h-.3zm-1.8-4.4a1 1 0 0 1-.5-1.7l1.6-1c.5-.2 1 0 1.3.4.2.4 0 1-.4 1.3l-1.5.9a1 1 0 0 1-.5 0zm-2.9-3.8a1 1 0 0 1-.7-1.6l1.3-1.3a1 1 0 0 1 1.3 1.3l-1.3 1.3c-.1.2-.4.3-.6.3zm-3.8-2.9a.9.9 0 0 1-.8-1.4l1-1.6c.2-.4.7-.6 1.2-.3s.6.8.3 1.2l-.9 1.6c-.2.3-.5.5-.8.5zm-4.4-1.9h-.2a1 1 0 0 1-.7-1.1l.5-1.8a1 1 0 1 1 1.8.5l-.5 1.8c-.1.4-.5.6-.9.6zm-9.5 0a1 1 0 0 1-.8-.6l-.5-1.8a1 1 0 1 1 1.8-.5l.4 1.8a1 1 0 0 1-.9 1.1zm-4.4 1.9a1 1 0 0 1-.8-.5l-.9-1.6a1 1 0 0 1 .4-1.2 1 1 0 0 1 1.2.3l1 1.6c.2.5 0 1-.4 1.3h-.5zM78 72.6a1 1 0 0 1-.6-.3L76 71a1 1 0 0 1 1.3-1.3l1.3 1.3c.3.4.3 1 0 1.3a1 1 0 0 1-.7.3zm-2.9 3.8a1 1 0 0 1-.4-.1l-1.6-1a.9.9 0 0 1-.3-1.2 1 1 0 0 1 1.2-.3l1.6.9c.4.2.6.8.3 1.2a1 1 0 0 1-.8.5zm-1.8 4.4h-.2l-1.8-.5a1 1 0 1 1 .5-1.8l1.7.5a1 1 0 0 1-.2 1.8zM91 67.2a1 1 0 0 1-1-.9v-1.8c0-.5.5-1 1-1s.9.5.9 1v1.8c0 .5-.4 1-1 1z" fill="#FF6F00"/><path d="M91 69.8a14 14 0 1 1 0 28 14 14 0 0 1 0-28m0-3a17 17 0 1 0 .1 34.1 17 17 0 0 0 0-34z" fill="#FFA000"/><radialGradient id="c" cx="90.6" cy="70.8" r="26.9" gradientTransform="matrix(.9966 0 0 1 .2 0)" gradientUnits="userSpaceOnUse"><stop stop-color="#4FC3F7" offset="0"/><stop stop-color="#03A9F4" offset="1"/></radialGradient><path d="M92.8 82.8l-.7-.7a1 1 0 0 1 0-1.4l7.7-7.8a14 14 0 0 0-18.7 1c-5.4 5.5-5.4 14.4 0 19.9s14.4 5.5 19.8 0a14 14 0 0 0 1-18.7l-7.7 7.7a1 1 0 0 1-1.4 0z" fill="url(#c)"/><path d="M99.8 73l-7.7 7.7a1 1 0 0 0 0 1.4l.7.7c.4.4 1 .4 1.4 0l7.7-7.7a13.1 13.1 0 0 0-2-2.2z" fill="#B3E5FC"/><path d="M91 71.8a12 12 0 0 1 9.4 4.5 12 12 0 0 1-17.8 16 12.1 12.1 0 0 1 0-17 12 12 0 0 1 8.4-3.5m0-2a14 14 0 0 0 0 28 14 14 0 0 0 0-28z" fill="#424242" opacity=".2"/><path d="M18 106a2 2 0 0 1-2-2V67.7a2 2 0 0 1 4 .1V104c0 1-.9 2-2 2zm8 0a2 2 0 0 1-2-2V67.7a2 2 0 0 1 4 .1V104c0 1-.9 2-2 2zm8 0a2 2 0 0 1-2-2V67.7a2 2 0 0 1 4 .1V104c0 1-.9 2-2 2zm8 0a2 2 0 0 1-2-2V67.7a2 2 0 0 1 4 .1V104c0 1-.9 2-2 2zm8 0a2 2 0 0 1-2-2V67.7a2 2 0 0 1 4 .1V104c0 1-.9 2-2 2zm8 0a2 2 0 0 1-2-2V67.7a2 2 0 0 1 4 .1V104c0 1-.9 2-2 2z" fill="#546E7A"/><path fill="#B3E5FC" d="M20 45.7h4v8h-4zm8.4 0h4v8h-4zm16.8 0h4v8h-4zm8.4 0h4v8h-4zm8.4 0h4v8h-4zm8.4 0h4v8h-4zm8.4 0h4v8h-4zm8.4 0h4v8h-4zm8.4 0h4v8h-4zm8.4 0h4v8h-4z"/><path fill="#FF6F00" d="M36.8 33.7h4v20.1h-4z"/><path d="M108 36.7c.5 0 1 .5 1 1v12c0 .6-.5 1-1 1H20a1 1 0 0 1-1-1v-12c0-.6.4-1 1-1h88m0-3H20a4 4 0 0 0-4 4v12a4 4 0 0 0 4 4h88a4 4 0 0 0 4-4v-12a4 4 0 0 0-4-4zM18 66.8c.6 0 1 .4 1 1V104c0 .5-.4 1-1 1a1 1 0 0 1-1-1V67.7c0-.5.4-.9 1-.9m0-1a2 2 0 0 0-2 2V104c0 1 .9 2 2 2s2-1 2-2V67.7c0-1-.9-1.9-2-1.9zm8 1c.6 0 1 .4 1 1V104c0 .5-.4 1-1 1a1 1 0 0 1-1-1V67.7c0-.5.4-.9 1-.9m0-1a2 2 0 0 0-2 2V104c0 1 .9 2 2 2s2-1 2-2V67.7c0-1-.9-1.9-2-1.9zm8 1c.6 0 1 .4 1 1V104c0 .5-.4 1-1 1a1 1 0 0 1-1-1V67.7c0-.5.4-.9 1-.9m0-1a2 2 0 0 0-2 2V104c0 1 .9 2 2 2s2-1 2-2V67.7c0-1-.9-1.9-2-1.9zm8 1c.6 0 1 .4 1 1V104c0 .5-.4 1-1 1a1 1 0 0 1-1-1V67.7c0-.5.4-.9 1-.9m0-1a2 2 0 0 0-2 2V104c0 1 .9 2 2 2s2-1 2-2V67.7c0-1-.9-1.9-2-1.9zm8 1c.6 0 1 .4 1 1V104c0 .5-.4 1-1 1a1 1 0 0 1-1-1V67.7c0-.5.4-.9 1-.9m0-1a2 2 0 0 0-2 2V104c0 1 .9 2 2 2s2-1 2-2V67.7c0-1-.9-1.9-2-1.9zm8 1c.6 0 1 .4 1 1V104c0 .5-.4 1-1 1a1 1 0 0 1-1-1V67.7c0-.5.4-.9 1-.9m0-1a2 2 0 0 0-2 2V104c0 1 .9 2 2 2s2-1 2-2V67.7c0-1-.9-1.9-2-1.9z" fill="#424242" opacity=".2"/></svg>