<svg viewBox="0 0 128 128" xmlns="http://www.w3.org/2000/svg"><linearGradient id="a" x1="64" x2="64" y1="3.4" y2="125.1" gradientUnits="userSpaceOnUse"><stop stop-color="#616161" offset="0"/><stop stop-color="#212121" offset="1"/></linearGradient><path d="M92.3 7.3C89.3 6.5 81 4 64 4S37.4 6.8 35.7 7.3A5 5 0 0 0 32 12v104a5 5 0 0 0 3.7 4.7c1.7.5 11.3 3.3 28.3 3.3s25.2-2.5 28.3-3.3A5 5 0 0 0 96 116V12a5 5 0 0 0-3.7-4.7z" fill="url(#a)"/><path d="M78 16H50c-1.1 0-2-.9-2-2s.9-2 2-2h28c1.1 0 2 .9 2 2s-.9 2-2 2z" fill="#212121"/><linearGradient id="b" x1="64" x2="64" y1="37" y2="119.1" gradientUnits="userSpaceOnUse"><stop stop-color="#29B6F6" offset="0"/><stop stop-color="#0288D1" offset="1"/></linearGradient><path d="M86 104H42a2 2 0 0 1-2-2V26c0-1.1.9-2 2-2h44a2 2 0 0 1 2 2v76a2 2 0 0 1-2 2z" fill="url(#b)"/><circle cx="42" cy="14" r="2" fill="#9E9E9E"/><path d="M78 13c.6 0 1 .5 1 1s-.5 1-1 1H50c-.6 0-1-.5-1-1s.5-1 1-1h28m0-1H50c-1.1 0-2 .9-2 2s.9 2 2 2h28c1.1 0 2-.9 2-2s-.9-2-2-2z" fill="#eee" opacity=".2"/><path d="M42 13c.6 0 1 .5 1 1s-.5 1-1 1-1-.5-1-1 .5-1 1-1m0-1c-1.1 0-2 .9-2 2s.9 2 2 2 2-.9 2-2-.9-2-2-2zm44 12a2 2 0 0 1 2 2v76a2 2 0 0 1-2 2H42a2 2 0 0 1-2-2V26c0-1.1.9-2 2-2h44m0-3H42a5 5 0 0 0-5 5v76a5 5 0 0 0 5 5h44a5 5 0 0 0 5-5V26a5 5 0 0 0-5-5z" fill="#424242" opacity=".2"/><path d="M64 7c15.4 0 23.4 2.1 26.8 3l.8.2c.7.2 1.4 1 1.4 1.8v104a2 2 0 0 1-1.4 1.8l-.8.2c-3.4.9-11.3 3-26.8 3-15 0-24.2-2.2-27.5-3.2h-.1A2 2 0 0 1 35 116V12a2 2 0 0 1 1.4-1.8h.1A100 100 0 0 1 64 7m0-3a101 101 0 0 0-28.3 3.3A5 5 0 0 0 32 12v104a5 5 0 0 0 3.7 4.7c1.7.5 11.3 3.3 28.3 3.3s25.2-2.5 28.3-3.3A5 5 0 0 0 96 116V12a5 5 0 0 0-3.7-4.7C89.3 6.5 81 4 64 4z" fill="#eee" opacity=".2"/><linearGradient id="c" x1="12" x2="12" y1="16.9" y2="112.9" gradientUnits="userSpaceOnUse"><stop stop-color="#FFAB40" offset="0"/><stop stop-color="#FF9C30" offset=".3"/><stop stop-color="#FF7407" offset=".9"/><stop stop-color="#FF6D00" offset="1"/></linearGradient><path d="M19.5 75.9L13.9 64l5.6-11.9c.7-1.5.7-3.3 0-4.8l-5.6-11.8 5.6-12c1.1-2.4.3-5.5-1.9-6.8-.7-.5-1.5-.7-2.3-.7-1.7 0-3.3 1-4 2.8L4.4 33a5.7 5.7 0 0 0 0 4.8L10 49.6 4.4 61.5a5.7 5.7 0 0 0 0 4.8L10 78.2 4.5 90a5.7 5.7 0 0 0 0 4.9l6.7 14.2a4.6 4.6 0 0 0 4.2 2.8c.7 0 1.5-.2 2.2-.6 2.2-1.4 3-4.5 1.9-7l-5.6-11.9 5.6-11.8c.7-1.5.7-3.3 0-4.8z" fill="url(#c)"/><linearGradient id="d" x1="108" x2="108" y1="16.9" y2="112.9" gradientTransform="matrix(-1 0 0 1 224 0)" gradientUnits="userSpaceOnUse"><stop stop-color="#FFAB40" offset="0"/><stop stop-color="#FF9C30" offset=".3"/><stop stop-color="#FF7407" offset=".9"/><stop stop-color="#FF6D00" offset="1"/></linearGradient><path d="M108.5 75.9l5.6-11.9-5.6-11.9a5.7 5.7 0 0 1 0-4.8l5.6-11.8-5.6-12a5.6 5.6 0 0 1 1.9-6.9 4.5 4.5 0 0 1 6.4 2.2l6.7 14.2a6 6 0 0 1 0 4.9l-5.6 11.8 5.6 11.9c.7 1.5.7 3.3 0 4.8l-5.6 11.9 5.6 11.8a6 6 0 0 1 0 4.9l-6.7 14.2a4.6 4.6 0 0 1-4.2 2.8c-.7 0-1.5-.2-2.2-.6-2.2-1.4-3-4.5-1.9-7l5.6-11.9-5.6-11.8a5.7 5.7 0 0 1 0-4.8z" fill="url(#d)"/><path d="M15.3 19c.3 0 .5 0 .7.2 1 .6 1.3 2 .8 3.1l-5.6 11.9a3 3 0 0 0 0 2.5l5.6 11.9a3 3 0 0 1 0 2.3l-5.6 11.8a3 3 0 0 0 0 2.6L16.8 77a3 3 0 0 1 0 2.3l-5.6 11.9a3 3 0 0 0 0 2.5l5.6 11.9c.5 1 .1 2.6-.8 3.1l-.6.2c-.6 0-1.1-.4-1.5-1L7.2 93.7C7 93 7 92 7.2 91.4l5.6-11.9a3 3 0 0 0 0-2.5L7.3 65.1c-.4-.7-.4-1.5 0-2.2L12.8 51a3 3 0 0 0 0-2.5l-5.5-12c-.4-.6-.4-1.5 0-2.2L14 20.1c.3-.7.8-1.1 1.4-1.1m0-3c-1.8 0-3.4 1-4.2 2.8L4.5 33a5.7 5.7 0 0 0 0 4.8l5.6 11.8-5.6 11.9a5.7 5.7 0 0 0 0 4.8l5.6 11.9L4.5 90a5.7 5.7 0 0 0 0 4.9l6.7 14.2a4.6 4.6 0 0 0 4.2 2.8c.7 0 1.5-.2 2.2-.6 2.2-1.4 3-4.5 1.9-7l-5.6-11.9 5.6-11.8c.7-1.5.7-3.3 0-4.8L13.9 64l5.6-11.9c.7-1.5.7-3.3 0-4.8l-5.6-11.8 5.6-12c1.1-2.4.3-5.5-1.9-6.8-.7-.5-1.5-.7-2.2-.7zm97.3 3c.5 0 1 .4 1.4 1l6.7 14.3a3 3 0 0 1 0 2.3l-5.6 11.8a3 3 0 0 0 0 2.6l5.6 11.9c.3.7.3 1.5 0 2.2L115.2 77a3 3 0 0 0 0 2.5l5.6 12c.3.6.3 1.5 0 2.2l-6.7 14.2c-.4.7-.9 1-1.5 1l-.6-.1c-1-.6-1.3-2-.8-3.1l5.6-11.9a3 3 0 0 0 0-2.5l-5.6-11.9a3 3 0 0 1 0-2.3l5.6-11.8a3 3 0 0 0 0-2.6l-5.6-11.9c-.3-.7-.3-1.5 0-2.2l5.6-11.9a3 3 0 0 0 0-2.5l-5.6-11.9c-.5-1-.1-2.6.8-3.1l.7-.2m0-3c-.8 0-1.6.2-2.3.6-2.2 1.4-3 4.5-1.9 7l5.6 11.9-5.6 11.8a5.7 5.7 0 0 0 0 4.8l5.6 11.9-5.6 11.9a5.7 5.7 0 0 0 0 4.8l5.6 11.8-5.6 12a5.6 5.6 0 0 0 1.9 6.9c.7.4 1.5.6 2.3.6 1.7 0 3.3-1 4-2.8l6.8-14.2a6 6 0 0 0 0-4.9l-5.6-11.8 5.6-11.9c.7-1.5.7-3.3 0-4.8l-5.6-11.9 5.6-11.8a6 6 0 0 0 0-4.9l-6.7-14.2a4.6 4.6 0 0 0-4.1-2.8z" fill="#424242" opacity=".2"/></svg>