<svg viewBox="0 0 128 128" xmlns="http://www.w3.org/2000/svg"><path d="M61.5 78.4h.8a10 10 0 0 0 10-10V30c0-5.7-4.6-10.4-10.3-10.4H42c-5.5 0-10 4.6-10 10.2v20.5a4 4 0 0 1-4 3.9h-7.6a3.9 3.9 0 0 1-3.9-3.9V30A25.8 25.8 0 0 1 42.3 4.2h20c14 0 25.4 11.4 25.4 25.5v38.4a25.8 25.8 0 0 1-25.6 25.7h-.6V78.4z" fill="#BDBDBD"/><path d="M62.3 7.3c12.4 0 22.4 10 22.4 22.4v38.4c0 11.7-8.8 21.3-20.2 22.5v-9.4a13 13 0 0 0 10.9-12.9V30c0-7.4-6-13.4-13.4-13.4H42c-7.2 0-13 6-13 13.2v20.5c0 .5-.5.9-1 .9h-7.6a.9.9 0 0 1-.9-.9V30A22.8 22.8 0 0 1 42.3 7.2h20m0-3h-20A25.8 25.8 0 0 0 16.5 30v20.3c0 2.2 1.7 3.9 3.9 3.9H28a4 4 0 0 0 4-3.9V29.8a10 10 0 0 1 10-10.1h20c5.7 0 10.3 4.6 10.3 10.3v38.3a10 10 0 0 1-10 10h-.8v15.5h.5A25.8 25.8 0 0 0 87.7 68V29.7c0-14-11.4-25.4-25.4-25.4z" fill="#424242" opacity=".2"/><linearGradient id="a" x1="52.1" x2="52.1" y1="123.2" y2="50.2" gradientUnits="userSpaceOnUse"><stop stop-color="#FFA000" offset="0"/><stop stop-color="#FFC107" offset="1"/></linearGradient><path d="M91 123.5H13.2c-4 0-7.2-3.2-7.2-7.2V57.2c0-4 3.3-7.3 7.3-7.3H91c4 0 7.3 3.3 7.3 7.3v59c0 4.1-3.3 7.3-7.3 7.3z" fill="url(#a)"/><path d="M91 53c2.4 0 4.3 1.8 4.3 4.2v59c0 2.4-2 4.3-4.3 4.3H13.2a4.2 4.2 0 0 1-4.2-4.2V57.2c0-2.4 2-4.3 4.3-4.3H91m0-3H13.2c-4 0-7.2 3.3-7.2 7.3v59c0 4 3.3 7.3 7.3 7.3H91c4 0 7.3-3.2 7.3-7.2V57.2c0-4-3.3-7.3-7.3-7.3z" fill="#424242" opacity=".2"/><linearGradient id="b" x1="73.4" x2="73.4" y1="66.8" y2="105.4" gradientUnits="userSpaceOnUse"><stop stop-color="#E0E0E0" offset="0"/><stop stop-color="#9E9E9E" offset="1"/></linearGradient><path d="M124 66.4c-12 0-31-.4-46.4-3.5-24.4-4.8-28.2 10.4-50.3 17.4-4.6 1.4-4.4 3.9-4.4 3.9s-.2 2.4 4.3 3.9c22.1 6.9 26 22.2 50.4 17.3 15.4-3 34.4-3.5 46.4-3.5V66.4z" fill="url(#b)"/><path d="M80.2 85.3H24.1a1.2 1.2 0 1 1 0-2.5h56.2c.6-3.4 3.6-6 7.2-6a7.4 7.4 0 1 1-7.3 8.5z" fill="#757575"/><path d="M87.5 79.7a4.4 4.4 0 1 1-4.3 5.1l-.2-.7.2-.7a4.5 4.5 0 0 1 4.3-3.7m0-3a7.4 7.4 0 0 0-7.3 6.1H24.1a1.2 1.2 0 1 0 0 2.5h56.1a7.4 7.4 0 1 0 7.3-8.5z" fill="#424242" opacity=".2"/><path d="M68.7 65c2.5 0 5.2.3 8.2.9a239 239 0 0 0 43.8 3.5V99a245 245 0 0 0-43.8 3.5c-3 .6-5.7 1-8.2 1-8.7 0-14-3.6-20.6-8a74.4 74.4 0 0 0-20-10.2 5.7 5.7 0 0 1-2-1c.2-.3.8-.7 2-1.1a71.4 71.4 0 0 0 20-10.2c6.7-4.4 12-8 20.6-8m0-3c-17 0-22.3 12.3-41.5 18.3-4.5 1.5-4.3 4-4.3 4s-.2 2.4 4.3 3.9c19.2 6 24.5 18.2 41.5 18.2 2.6 0 5.5-.3 8.8-.9 15.1-3 33.5-3.5 45.7-3.5h.5V66.4h-.5c-12.2 0-30.6-.5-45.7-3.5-3.3-.6-6.2-1-8.8-1z" fill="#424242" opacity=".2"/><linearGradient id="c" x1="158" x2="158" y1="11.8" y2="18.1" gradientTransform="matrix(0 1 1 0 98.7 -73.9)" gradientUnits="userSpaceOnUse"><stop stop-color="#FFC107" offset="0"/><stop stop-color="#FFA000" offset="1"/></linearGradient><path d="M116 106.3V61.9a5 5 0 0 0-5 5v34.5a5 5 0 0 0 5 4.9z" fill="url(#c)"/><linearGradient id="d" x1="120" x2="120" y1="59.8" y2="114.8" gradientUnits="userSpaceOnUse"><stop stop-color="#616161" offset="0"/><stop stop-color="#212121" offset="1"/></linearGradient><path fill="url(#d)" d="M124 63.4l-8-1.4v44.3l8-1.4z"/><path d="M118 64.4l4 .7v38.2l-4 .7V64.4m-2-2.4v44.3l8-1.4V63.4l-8-1.4z" fill="#eee" opacity=".2"/></svg>