<svg viewBox="0 0 128 128" xmlns="http://www.w3.org/2000/svg"><linearGradient id="a" x1="69.8" x2="69.8" y1="72.2" y2="82" gradientTransform="scale(-1 1) rotate(-45 4.6 224.6)" gradientUnits="userSpaceOnUse"><stop stop-color="#eee" offset="0"/><stop stop-color="#9E9E9E" offset="1"/></linearGradient><path fill="url(#a)" d="M29.2 90l8.5 8.6 33.8-34-8.5-8.5z"/><path d="M63 60.4l4.2 4.2-29.5 29.7-4.2-4.2L63 60.4m0-4.3l-33.8 34 8.5 8.5 33.8-34-8.5-8.5z" fill="#424242" opacity=".2"/><radialGradient id="b" cx="43.4" cy="4.3" r="82" gradientTransform="matrix(-1.0004 0 0 1 128 0)" gradientUnits="userSpaceOnUse"><stop stop-color="#E0E0E0" offset="0"/><stop stop-color="#DBDBDB" offset=".2"/><stop stop-color="#CDCDCD" offset=".5"/><stop stop-color="#B5B5B5" offset=".8"/><stop stop-color="#9E9E9E" offset="1"/></radialGradient><ellipse cx="83.2" cy="45" rx="40.8" ry="41" fill="url(#b)"/><radialGradient id="c" cx="39.5" cy="75.3" r="49.1" gradientUnits="userSpaceOnUse"><stop stop-color="#FFA726" offset="0"/><stop stop-color="#FFA623" offset="0"/><stop stop-color="#FF9800" offset=".5"/><stop stop-color="#FB8C00" offset="1"/></radialGradient><path d="M19.7 89.3a52.8 52.8 0 0 1 19.5-13 11 11 0 0 0 4.2-2.8l1.8-1.7L56 82.5l-1.8 1.7a10.9 10.9 0 0 0-2.7 4.3c-2 6-6.5 13.1-13 19.6A49.4 49.4 0 0 1 16.8 122l-.9.9a4 4 0 0 1-5.7 0l-1.6-1.6-1-.8-.8-1-1.6-1.6a4 4 0 0 1 0-5.8l.9-.9a49.8 49.8 0 0 1 13.6-21.8z" fill="url(#c)"/><path d="M83.2 7c10 0 19.6 4 26.7 11.1a38.2 38.2 0 0 1 0 53.8 37.4 37.4 0 0 1-53.4 0 38.2 38.2 0 0 1 0-53.8A37.4 37.4 0 0 1 83.2 7m0-3a41.2 41.2 0 0 0 0 82 41.2 41.2 0 0 0 0-82zm-38 72l6.5 6.6a14 14 0 0 0-3 5.1 50.6 50.6 0 0 1-12.3 18.4A46.7 46.7 0 0 1 16 119l-.8.2-.6.6-.9.9a1 1 0 0 1-1.5 0l-1.6-1.6-.2-.2-.3-.2a3 3 0 0 1-.9-1l-.1-.2-.3-.3-1.6-1.6c-.4-.4-.4-1 0-1.5l1-.9.5-.6.2-.8a47 47 0 0 1 12.8-20.4c6-6 12.6-10.4 18.3-12.3 1.9-.6 3.6-1.7 5.1-3.1m0-4.2l-1.8 1.7a11 11 0 0 1-4.2 2.8c-6 2-13 6.5-19.5 13A49.6 49.6 0 0 0 6 111.1l-1 .9a4 4 0 0 0 0 5.8l1.7 1.6.8 1 1 .8 1.6 1.6a4 4 0 0 0 5.7 0l1-.9a49.3 49.3 0 0 0 21.6-13.7c6.5-6.5 11-13.6 13-19.6.5-1.6 1.5-3 2.7-4.3l1.8-1.7-10.8-10.8z" fill="#424242" opacity=".2"/><radialGradient id="d" cx="23" cy="23.5" r="65.1" gradientTransform="translate(38.5)" gradientUnits="userSpaceOnUse"><stop stop-color="#B3E5FC" offset="0"/><stop stop-color="#ADE3FC" offset=".2"/><stop stop-color="#9DDDFB" offset=".4"/><stop stop-color="#81D4FA" offset=".6"/><stop stop-color="#5CC7F8" offset=".9"/><stop stop-color="#4FC3F7" offset="1"/></radialGradient><ellipse cx="83.3" cy="45" rx="33" ry="33.2" fill="url(#d)"/><path d="M83.3 14.7a30.4 30.4 0 0 1 21.2 51.6 29.7 29.7 0 0 1-42.5 0 30.4 30.4 0 0 1 0-42.7 29.7 29.7 0 0 1 21.3-8.9m0-3a33.4 33.4 0 0 0 0 66.4 33.4 33.4 0 0 0 0-66.4z" fill="#039BE5" opacity=".2"/><radialGradient id="e" cx="77.2" cy="74.7" r="12.9" gradientTransform="matrix(-1.0004 0 0 1 128 0)" gradientUnits="userSpaceOnUse"><stop stop-color="#E0E0E0" offset="0"/><stop stop-color="#9E9E9E" offset="1"/></radialGradient><path d="M40.8 77.1l10 10c1.1 1.2 3 1.2 4 0l1-1a3 3 0 0 0 0-4l-10-10a2.9 2.9 0 0 0-4 0l-1 .9a3 3 0 0 0 0 4.1z" fill="url(#e)"/><path d="M43.8 73.2c.2 0 .4 0 .7.2l10 10c.3.4.3 1 0 1.4l-1 1c-.2.2-.5.2-.6.2s-.4 0-.7-.3l-10-10a1 1 0 0 1 0-1.3l1-1c.2-.2.5-.2.6-.2m0-2c-.7 0-1.5.2-2 .8l-1 1a3 3 0 0 0 0 4.1l10 10c.6.6 1.3.9 2 .9s1.5-.3 2-.9l1-1a3 3 0 0 0 0-4l-10-10c-.5-.6-1.2-1-2-1z" fill="#424242" opacity=".2"/></svg>