<svg viewBox="0 0 128 128" xmlns="http://www.w3.org/2000/svg"><g fill="url(#a)"><radialGradient id="a" cx="91.3" cy="15.9" r="106.8" gradientTransform="matrix(1 0 0 1.0016 0 -.1)" gradientUnits="userSpaceOnUse"><stop stop-color="#FFB74D" offset="0"/><stop stop-color="#FEB449" offset=".2"/><stop stop-color="#FDAA3C" offset=".5"/><stop stop-color="#FA9A27" offset=".7"/><stop stop-color="#F6840A" offset=".9"/><stop stop-color="#F57C00" offset="1"/></radialGradient><path d="M124 63.8a56.1 56.1 0 0 0-45.6-55 2 2 0 0 0-2.4 1.9v8.2a2 2 0 0 0 1.6 2 44.1 44.1 0 0 1 0 86 2 2 0 0 0-1.6 1.9v8.1a2 2 0 0 0 2.4 2 56.1 56.1 0 0 0 45.6-55z"/><path d="M107.3 63.8c0-18-12.2-33.3-28.8-38a2 2 0 0 0-2.5 2v8.4a2 2 0 0 0 1.3 1.9 27.4 27.4 0 0 1 0 51.4 2 2 0 0 0-1.3 2v8.3a2 2 0 0 0 2.5 2 39.5 39.5 0 0 0 28.8-38z"/><path d="M90.7 63.8c0-8.5-4.8-16-11.8-19.8a2 2 0 0 0-2.9 1.7v10.4c0 .4.2.9.5 1.2a10.6 10.6 0 0 1 0 13c-.3.4-.5.8-.5 1.3v10.3a2 2 0 0 0 3 1.8c7-3.9 11.7-11.4 11.7-19.9z"/></g><g fill="#424242" opacity=".2"><path d="M79 11.9a53 53 0 0 1 0 103.8v-6.1a47.2 47.2 0 0 0 25.5-75.4A47.2 47.2 0 0 0 79 18.1v-6.2m-1-3.2c-1 0-2 .9-2 2v8.2a2 2 0 0 0 1.6 2 44.1 44.1 0 0 1 0 86 2 2 0 0 0-1.6 1.9v8.1a2 2 0 0 0 2.4 2A56.1 56.1 0 0 0 78 8.7z"/><path d="M79 29.1a36.5 36.5 0 0 1 0 69.4v-6.4a30.5 30.5 0 0 0 0-56.6v-6.4m-1-3.3c-1 0-2 .9-2 2v8.4a2 2 0 0 0 1.3 1.9 27.4 27.4 0 0 1 0 51.4 2 2 0 0 0-1.3 2v8.3a2 2 0 0 0 2.5 2 39.5 39.5 0 0 0-.5-76z"/><path d="M79 47.5a19.7 19.7 0 0 1 0 32.6V72a13.5 13.5 0 0 0 0-16.2v-8.2m-1-3.8c-1 0-2 .9-2 2v10.4c0 .4.2.9.5 1.2a10.6 10.6 0 0 1 0 13c-.3.4-.5.8-.5 1.3V82c0 1.2 1 2 2 2 .3 0 .6 0 1-.2A22.7 22.7 0 0 0 79 44a2 2 0 0 0-1-.2z"/></g><radialGradient id="b" cx="19.2" cy="37.7" r="64.3" gradientTransform="matrix(1 0 0 1.0016 0 -.1)" gradientUnits="userSpaceOnUse"><stop stop-color="#64B5F6" offset="0"/><stop stop-color="#5FB2F5" offset=".2"/><stop stop-color="#51A9F1" offset=".4"/><stop stop-color="#3A9AEC" offset=".6"/><stop stop-color="#1E88E5" offset=".8"/><stop stop-color="#1E88E5" offset="1"/></radialGradient><path d="M36 92H8a4 4 0 0 1-4-4V40a4 4 0 0 1 4-4h28v56z" fill="url(#b)"/><path fill="#1E88E5" d="M12 36h4v56.1h-4z"/><radialGradient id="c" cx="58" cy="8.7" r="105" gradientTransform="matrix(1 0 0 1.0016 0 -.1)" gradientUnits="userSpaceOnUse"><stop stop-color="#BBDEFB" offset="0"/><stop stop-color="#B3DAFB" offset=".1"/><stop stop-color="#9ED0FA" offset=".3"/><stop stop-color="#7BC0F8" offset=".5"/><stop stop-color="#4CAAF5" offset=".8"/><stop stop-color="#42A5F5" offset=".8"/><stop stop-color="#2196F3" offset="1"/></radialGradient><path d="M56.8 6.3A173 173 0 0 1 24 36v56s13.1 8 32.8 29.8c3.8 4.2 11.2 2.1 11.2-3.3V9.5c0-5.4-7.4-7.5-11.2-3.2z" fill="url(#c)"/><path d="M62 7c1 0 3 .5 3 2.5v109c0 1.8-1.9 2.5-3 2.5a4 4 0 0 1-3-1.2 175 175 0 0 0-33.4-30.3l-.8-.5H8a1 1 0 0 1-1-1V40c0-.6.4-1 1-1h16.8l.8-.5c.5-.3 13.6-8.4 33.4-30.2A4 4 0 0 1 62 7m0-3c-1.9 0-3.8.7-5.2 2.3A177 177 0 0 1 24 36H8a4 4 0 0 0-4 4v48a4 4 0 0 0 4 4h16s13.1 8 32.8 29.8A6.9 6.9 0 0 0 62 124c3.1 0 6.1-2 6.1-5.5V9.5C68 6.1 65 4 62 4z" fill="#424242" opacity=".2"/></svg>