<svg viewBox="0 0 128 128" xmlns="http://www.w3.org/2000/svg"><radialGradient id="a" cx="47.2" cy="37.7" r="64.3" gradientTransform="matrix(1 0 0 1.0016 0 -.1)" gradientUnits="userSpaceOnUse"><stop stop-color="#64B5F6" offset="0"/><stop stop-color="#5FB2F5" offset=".2"/><stop stop-color="#51A9F1" offset=".4"/><stop stop-color="#3A9AEC" offset=".6"/><stop stop-color="#1E88E5" offset=".8"/><stop stop-color="#1E88E5" offset="1"/></radialGradient><path d="M64 92H36a4 4 0 0 1-4-4V40a4 4 0 0 1 4-4h28v56z" fill="url(#a)"/><path fill="#1E88E5" d="M40 36h4v56.1h-4z"/><radialGradient id="b" cx="86" cy="8.7" r="105" gradientTransform="matrix(1 0 0 1.0016 0 -.1)" gradientUnits="userSpaceOnUse"><stop stop-color="#BBDEFB" offset="0"/><stop stop-color="#B3DAFB" offset=".1"/><stop stop-color="#9ED0FA" offset=".3"/><stop stop-color="#7BC0F8" offset=".5"/><stop stop-color="#4CAAF5" offset=".8"/><stop stop-color="#42A5F5" offset=".8"/><stop stop-color="#2196F3" offset="1"/></radialGradient><path d="M84.8 6.3A173 173 0 0 1 52 36v56s13.1 8 32.8 29.8c3.8 4.2 11.2 2.1 11.2-3.3V9.5c0-5.4-7.4-7.5-11.2-3.2z" fill="url(#b)"/><path d="M90 7c1 0 3 .5 3 2.5v109c0 1.8-1.9 2.5-3 2.5a4 4 0 0 1-3-1.2 175 175 0 0 0-33.4-30.3l-.8-.5H36a1 1 0 0 1-1-1V40c0-.6.5-1 1-1h16.8l.8-.5c.5-.3 13.6-8.4 33.4-30.2A4 4 0 0 1 90 7m0-3c-1.9 0-3.8.7-5.2 2.3A177 177 0 0 1 52 36H36a4 4 0 0 0-4 4v48a4 4 0 0 0 4 4h16s13.1 8 32.8 29.8A6.9 6.9 0 0 0 90 124c3.1 0 6.1-2 6.1-5.5V9.5C96 6.1 93 4 90 4z" fill="#424242" opacity=".2"/></svg>