<svg viewBox="0 0 128 128" xmlns="http://www.w3.org/2000/svg"><linearGradient id="a" x1="64" x2="64" y1="15.8" y2="112.2" gradientUnits="userSpaceOnUse"><stop stop-color="#FFAB40" offset="0"/><stop stop-color="#FF6D00" offset="1"/></linearGradient><path d="M64 36a28 28 0 1 0 0 56 28 28 0 0 0 0-56zm0 44a16 16 0 1 1 0-32 16 16 0 0 1 0 32zm-4-52h8a2 2 0 0 0 2-2v-8a2 2 0 0 0-2-2h-8a2 2 0 0 0-2 2v8c0 1.1.9 2 2 2zm8 72h-8a2 2 0 0 0-2 2v8c0 1.1.9 2 2 2h8a2 2 0 0 0 2-2v-8a2 2 0 0 0-2-2z" fill="url(#a)"/><linearGradient id="b" x1="22" x2="22" y1="15.8" y2="112.2" gradientUnits="userSpaceOnUse"><stop stop-color="#FFAB40" offset="0"/><stop stop-color="#FF6D00" offset="1"/></linearGradient><path d="M28 68v-8a2 2 0 0 0-2-2h-8a2 2 0 0 0-2 2v8c0 1.1.9 2 2 2h8a2 2 0 0 0 2-2z" fill="url(#b)"/><linearGradient id="c" x1="106" x2="106" y1="15.8" y2="112.2" gradientUnits="userSpaceOnUse"><stop stop-color="#FFAB40" offset="0"/><stop stop-color="#FF6D00" offset="1"/></linearGradient><path d="M110 58h-8a2 2 0 0 0-2 2v8c0 1.1.9 2 2 2h8a2 2 0 0 0 2-2v-8a2 2 0 0 0-2-2z" fill="url(#c)"/><linearGradient id="d" x1="93.1" x2="93.1" y1="15.8" y2="112.2" gradientUnits="userSpaceOnUse"><stop stop-color="#FFAB40" offset="0"/><stop stop-color="#FF6D00" offset="1"/></linearGradient><path d="M91.6 41.4c.8.7 2 .7 2.9 0l5.6-5.7c.8-.8.8-2 0-2.8l-5.6-5.7a2 2 0 0 0-2.9 0L86 33a2 2 0 0 0 0 2.8l5.6 5.7z" fill="url(#d)"/><linearGradient id="e" x1="33.7" x2="33.7" y1="15.8" y2="112.2" gradientUnits="userSpaceOnUse"><stop stop-color="#FFAB40" offset="0"/><stop stop-color="#FF6D00" offset="1"/></linearGradient><path d="M35 86.6a2 2 0 0 0-2.8 0l-5.6 5.7a2 2 0 0 0 0 2.8l5.6 5.7c.8.8 2 .8 2.9 0l5.6-5.7c.8-.8.8-2 0-2.8l-5.6-5.7zm-2.8-45.2c.8.7 2 .7 2.9 0l5.6-5.7c.8-.8.8-2 0-2.8l-5.6-5.7a2 2 0 0 0-2.9 0L26.6 33a2 2 0 0 0 0 2.8l5.6 5.7z" fill="url(#e)"/><path d="M94.5 86.6a2 2 0 0 0-2.9 0L86 92.3a2 2 0 0 0 0 2.8l5.6 5.7c.8.8 2 .8 2.9 0L100 95c.8-.8.8-2 0-2.8l-5.6-5.7z" fill="url(#d)"/><path d="M64 39a25 25 0 1 1 0 50 25 25 0 0 1 0-50m0 44a19 19 0 1 0 0-38 19 19 0 0 0 0 38m0-47a28 28 0 1 0 0 56 28 28 0 0 0 0-56zm0 44a16 16 0 1 1 0-32 16 16 0 0 1 0 32zm3-61v6h-6v-6h6m1-3h-8a2 2 0 0 0-2 2v8c0 1.1.9 2 2 2h8a2 2 0 0 0 2-2v-8a2 2 0 0 0-2-2zm-1 87v6h-6v-6h6m1-3h-8a2 2 0 0 0-2 2v8c0 1.1.9 2 2 2h8a2 2 0 0 0 2-2v-8a2 2 0 0 0-2-2zM25 61v6h-6v-6h6m1-3h-8a2 2 0 0 0-2 2v8c0 1.1.9 2 2 2h8a2 2 0 0 0 2-2v-8a2 2 0 0 0-2-2zm83 3v6h-6v-6h6m1-3h-8a2 2 0 0 0-2 2v8c0 1.1.9 2 2 2h8a2 2 0 0 0 2-2v-8a2 2 0 0 0-2-2zM93 30l4.3 4.3-4.3 4.2-4.2-4.2 4.3-4.2m0-3.5a2 2 0 0 0-1.5.6L86 33a2 2 0 0 0 0 2.8l5.6 5.7a2 2 0 0 0 2.9 0l5.6-5.7c.8-.8.8-2 0-2.8l-5.6-5.7a2 2 0 0 0-1.5-.6zM33.7 89.5l4.2 4.2-4.2 4.2-4.3-4.2 4.3-4.2m0-3.5a2 2 0 0 0-1.5.6l-5.6 5.7a2 2 0 0 0 0 2.8l5.6 5.7a2 2 0 0 0 2.9 0l5.6-5.7c.8-.8.8-2 0-2.8l-5.6-5.7a2 2 0 0 0-1.4-.6zm0-56l4.2 4.3-4.2 4.2-4.3-4.2 4.3-4.2m0-3.5a2 2 0 0 0-1.5.6L26.6 33a2 2 0 0 0 0 2.8l5.6 5.7a2 2 0 0 0 2.9 0l5.6-5.7c.8-.8.8-2 0-2.8l-5.6-5.7a2 2 0 0 0-1.4-.6zM93 89.5l4.3 4.2-4.3 4.2-4.2-4.2 4.3-4.2m0-3.5a2 2 0 0 0-1.5.6L86 92.3a2 2 0 0 0 0 2.8l5.6 5.7a2 2 0 0 0 2.9 0L100 95c.8-.8.8-2 0-2.8l-5.6-5.7A2 2 0 0 0 93 86z" fill="#424242" opacity=".2"/></svg>