<svg viewBox="0 0 128 128" xmlns="http://www.w3.org/2000/svg"><linearGradient id="a" x1="69.8" x2="69.8" y1="72.2" y2="82" gradientTransform="rotate(-45 68.6 70)" gradientUnits="userSpaceOnUse"><stop stop-color="#eee" offset="0"/><stop stop-color="#9E9E9E" offset="1"/></linearGradient><path fill="url(#a)" d="M98.8 90l-8.5 8.6-33.8-34 8.5-8.5z"/><path d="M65 60.4L94.5 90l-4.2 4.2-29.5-29.7 4.2-4.2m0-4.3l-8.5 8.5 33.8 34 8.5-8.5L65 56z" fill="#424242" opacity=".2"/><radialGradient id="b" cx="43.4" cy="4.3" r="82" gradientTransform="scale(1.0004 1)" gradientUnits="userSpaceOnUse"><stop stop-color="#E0E0E0" offset="0"/><stop stop-color="#DBDBDB" offset=".2"/><stop stop-color="#CDCDCD" offset=".5"/><stop stop-color="#B5B5B5" offset=".8"/><stop stop-color="#9E9E9E" offset="1"/></radialGradient><ellipse cx="44.8" cy="45" rx="40.8" ry="41" fill="url(#b)"/><radialGradient id="c" cx="83.3" cy="72.5" r="51.6" gradientUnits="userSpaceOnUse"><stop stop-color="#FFA726" offset="0"/><stop stop-color="#FFA623" offset="0"/><stop stop-color="#FF9800" offset=".5"/><stop stop-color="#FB8C00" offset="1"/></radialGradient><path d="M108.3 89.3a52.8 52.8 0 0 0-19.5-13 11 11 0 0 1-4.2-2.8l-1.8-1.7L72 82.5l1.8 1.7c1.2 1.3 2.2 2.7 2.7 4.3 2 6 6.5 13.1 13 19.6a49.4 49.4 0 0 0 21.7 13.7l.9.9a4 4 0 0 0 5.7 0l1.6-1.6 1-.8.8-1 1.6-1.6a4 4 0 0 0 0-5.8l-.9-.9a49.8 49.8 0 0 0-13.6-21.8z" fill="url(#c)"/><path d="M44.8 7C55 7 64.4 11 71.5 18.1a38.2 38.2 0 0 1 0 53.8 37.4 37.4 0 0 1-53.4 0 38.2 38.2 0 0 1 0-53.8A37.5 37.5 0 0 1 44.8 7m0-3a41.2 41.2 0 0 0 0 82 41.2 41.2 0 0 0 0-82zm38 72a14 14 0 0 0 5 3.1 50.3 50.3 0 0 1 18.4 12.3 47 47 0 0 1 12.8 20.4l.2.8.6.6.9 1c.4.4.4 1 0 1.5l-1.6 1.6-.2.2-.2.3-.4.5a3 3 0 0 1-.5.4l-.3.2-.2.2-1.6 1.6a1 1 0 0 1-1.5 0l-.9-.9-.6-.6-.8-.2c-6-1.4-13.6-6.2-20.3-12.9a50.7 50.7 0 0 1-12.2-18.4 14 14 0 0 0-3.1-5.1l6.5-6.6m0-4.2L72 82.6l1.8 1.7c1.2 1.3 2.2 2.7 2.7 4.3 2 6 6.5 13.1 13 19.6a49.4 49.4 0 0 0 21.7 13.7l.8.9a4 4 0 0 0 5.8 0l1.6-1.6 1-.8.8-1 1.6-1.6a4 4 0 0 0 0-5.8l-.9-.9a49.7 49.7 0 0 0-13.6-21.8 52.8 52.8 0 0 0-19.5-13 11 11 0 0 1-4.3-2.8l-1.7-1.7z" fill="#424242" opacity=".2"/><radialGradient id="d" cx="23" cy="23.5" r="65.1" gradientUnits="userSpaceOnUse"><stop stop-color="#B3E5FC" offset="0"/><stop stop-color="#ADE3FC" offset=".2"/><stop stop-color="#9DDDFB" offset=".4"/><stop stop-color="#81D4FA" offset=".6"/><stop stop-color="#5CC7F8" offset=".9"/><stop stop-color="#4FC3F7" offset="1"/></radialGradient><ellipse cx="44.7" cy="45" rx="33" ry="33.2" fill="url(#d)"/><path d="M44.7 14.7A30.4 30.4 0 0 1 66 66.3a29.7 29.7 0 0 1-42.4 0 30.4 30.4 0 0 1 0-42.7 29.7 29.7 0 0 1 21.2-8.9m0-3a33.4 33.4 0 0 0 0 66.4 33.4 33.4 0 0 0 0-66.4z" fill="#039BE5" opacity=".2"/><radialGradient id="e" cx="77.2" cy="74.7" r="12.9" gradientTransform="scale(1.0004 1)" gradientUnits="userSpaceOnUse"><stop stop-color="#E0E0E0" offset="0"/><stop stop-color="#9E9E9E" offset="1"/></radialGradient><path d="M87.2 77.1l-10 10a2.9 2.9 0 0 1-4 0l-1-1a3 3 0 0 1 0-4l10-10c1-1.2 2.9-1.2 4 0l1 .9a3 3 0 0 1 0 4.1z" fill="url(#e)"/><path d="M84.2 73.2c.1 0 .4 0 .6.2l1 1c.3.4.3 1 0 1.3l-10 10c-.2.3-.5.3-.6.3s-.4 0-.7-.3l-1-1a1 1 0 0 1 0-1.2l10-10c.3-.3.6-.3.7-.3m0-2c-.8 0-1.5.2-2 .8l-10 10a3 3 0 0 0 0 4.2l1 1a2.8 2.8 0 0 0 4-.1l10-10a3 3 0 0 0 0-4.1l-1-1a3 3 0 0 0-2-.8z" fill="#424242" opacity=".2"/></svg>