<svg viewBox="0 0 128 128" xmlns="http://www.w3.org/2000/svg"><linearGradient id="a" x1="64" x2="64" y1="4.3" y2="124.4" gradientUnits="userSpaceOnUse"><stop stop-color="#40C4FF" offset="0"/><stop stop-color="#2DB5F9" offset=".4"/><stop stop-color="#0091EA" offset="1"/></linearGradient><path d="M116 124H12a8 8 0 0 1-8-8V12a8 8 0 0 1 8-8h104a8 8 0 0 1 8 8v104a8 8 0 0 1-8 8z" fill="url(#a)"/><path d="M116 7a5 5 0 0 1 5 5v104a5 5 0 0 1-5 5H12a5 5 0 0 1-5-5V12a5 5 0 0 1 5-5h104m0-3H12a8 8 0 0 0-8 8v104a8 8 0 0 0 8 8h104a8 8 0 0 0 8-8V12a8 8 0 0 0-8-8z" fill="#424242" opacity=".2"/><g fill="#424242" opacity=".2"><path d="M44 12c2 0 4 1.6 4 4v14c0 1.1.9 2 2 2h34c15.5 0 28 14.3 28 32a36 36 0 0 1-1.2 9.3L96 60c-.5-10.5-7.2-12-12-12H50a2 2 0 0 0-2 2v14a4 4 0 0 1-6.6 3l-24-24a4 4 0 0 1 0-6l24-24c.8-.7 1.7-1 2.6-1m0-3a7 7 0 0 0-4.6 1.7l-.1.2-24 24a7 7 0 0 0 0 10.3l24 24h.1A7 7 0 0 0 51 64V51h33c6 0 8.7 2.7 9 9.1v1.3l1 .8 14.8 13.3 2.8 2.6 1.6-3 .3-.2.2-.8c.9-3.3 1.3-6.7 1.3-10.1 0-19.3-14-35-31-35H51V16a7 7 0 0 0-7-7z"/><path d="M17.2 54.7L32 68c.5 10.5 7.2 12 12 12h34a2 2 0 0 0 2-2V64a4 4 0 0 1 6.6-3l24 24a4 4 0 0 1 0 6l-24 24a4 4 0 0 1-6.6-3V98a2 2 0 0 0-2-2H44c-15.5 0-28-14.3-28-32 0-3.2.4-6.3 1.2-9.3m-.8-4.8l-1.6 3-.3.2-.2.8C13.4 57.2 13 60.6 13 64c0 19.3 14 35 31 35h33v13a7 7 0 0 0 11.6 5.3l.2-.2 23.9-24a7 7 0 0 0 0-10.3l-24-24A7 7 0 0 0 77 64v13H44c-6 0-8.7-2.7-9-9.1v-1.3l-1-.8-14.8-13.4-2.8-2.5z"/></g><g fill="#FAFAFA"><path d="M41.4 67a4 4 0 0 0 6.6-3V50c0-1.1.9-2 2-2h34c4.8 0 11.6 1.5 12 12l14.8 13.3c.8-3 1.2-6 1.2-9.3 0-17.7-12.5-32-28-32H50a2 2 0 0 1-2-2V16a4 4 0 0 0-6.6-3l-24 24a4 4 0 0 0 0 6l24 24z"/><path d="M86.6 61a4 4 0 0 0-6.6 3v14a2 2 0 0 1-2 2H44c-4.8 0-11.6-1.5-12-12L17.2 54.7c-.8 3-1.2 6-1.2 9.3 0 17.7 12.5 32 28 32h34a2 2 0 0 1 2 2v14a4 4 0 0 0 6.6 3l24-24a4 4 0 0 0 0-6l-24-24z"/></g></svg>