<svg viewBox="0 0 128 128" xmlns="http://www.w3.org/2000/svg"><linearGradient id="a" x1="5.5" x2="118.8" y1="5.3" y2="119" gradientUnits="userSpaceOnUse"><stop stop-color="#81D4FA" offset="0"/><stop stop-color="#0094D6" offset="1"/></linearGradient><path d="M116 124H12a8 8 0 0 1-8-8V12a8 8 0 0 1 8-8h104a8 8 0 0 1 8 8v104a8 8 0 0 1-8 8z" fill="url(#a)"/><path d="M116 7a5 5 0 0 1 5 5v104a5 5 0 0 1-5 5H12a5 5 0 0 1-5-5V12a5 5 0 0 1 5-5h104m0-3H12a8 8 0 0 0-8 8v104a8 8 0 0 0 8 8h104a8 8 0 0 0 8-8V12a8 8 0 0 0-8-8z" fill="#424242" opacity=".2"/><linearGradient id="b" x1="21.2" x2="106.3" y1="20.7" y2="106.7" gradientUnits="userSpaceOnUse"><stop stop-color="#C2ECFF" offset="0"/><stop stop-color="#BDEAFE" offset=".2"/><stop stop-color="#AEE3FA" offset=".3"/><stop stop-color="#95D7F5" offset=".6"/><stop stop-color="#73C7ED" offset=".8"/><stop stop-color="#49B3E3" offset="1"/></linearGradient><path d="M101 109H27a8 8 0 0 1-8-8V27a8 8 0 0 1 8-8h74a8 8 0 0 1 8 8v74a8 8 0 0 1-8 8z" fill="url(#b)"/><path d="M49.2 29.6c.6 0 1.2.5 1.2 1.2v66.4c0 .6-.6 1.2-1.2 1.2h-9c-.6 0-1.2-.5-1.2-1.2V45a1.2 1.2 0 0 0-1.6-1.1l-10 3.3H27c-.6 0-1.2-.5-1.2-1.2v-7c0-.5.3-1 .8-1.1l22.1-8.2.5-.1m0-3c-.5 0-1 0-1.5.2L25.6 35a4.3 4.3 0 0 0-2.8 4v7a4.2 4.2 0 0 0 5.6 4l7.6-2.5v49.7c0 2.3 1.9 4.2 4.2 4.2h9c2.3 0 4.2-1.9 4.2-4.2V30.8c0-2.3-1.9-4.2-4.2-4.2z" fill="#424242" opacity=".2"/><path d="M49.2 98.4h-9c-.6 0-1.2-.5-1.2-1.2V45c0-.8-.8-1.4-1.6-1.1l-10 3.3c-.8.3-1.6-.3-1.6-1.2v-7c0-.5.3-1 .8-1.1l22.1-8.2.5-.1c.6 0 1.2.6 1.2 1.2v66.4c0 .7-.6 1.2-1.2 1.2z" fill="#FAFAFA"/><path d="M80.3 29.6c7.3 0 12.8 2.4 16.4 7s5.4 11.7 5.5 21v11.6c0 9.7-1.8 16.9-5.4 21.8-3.6 4.9-9 7.3-16.4 7.3-7.2 0-12.7-2.4-16.3-7.1S58.5 79.4 58.4 70V58.5a36 36 0 0 1 5.4-21.7c3.6-4.8 9.1-7.2 16.5-7.2m0 59.8c3.7 0 6.3-1.4 8-4.2S91 77.9 91 71.9V56.8c0-6.3-.8-10.9-2.5-13.8s-4.5-4.4-8.2-4.4c-3.6 0-6.3 1.4-8 4.2a25 25 0 0 0-2.7 13v15a29 29 0 0 0 2.6 14c1.7 3 4.5 4.6 8.2 4.6m-.1-62.8c-8.3 0-14.7 2.9-18.9 8.5-4 5.3-6 13.1-6 23.4V70a38 38 0 0 0 6.3 23c4.2 5.5 10.5 8.3 18.7 8.3 8.3 0 14.6-2.8 18.8-8.5 4-5.4 6-13.3 6-23.5V57.7c-.1-10-2.2-17.7-6.1-22.9-4.2-5.4-10.5-8.2-18.8-8.2zm0 59.8c-2.6 0-4.3-1-5.5-3a26.4 26.4 0 0 1-2.2-12.5V55.7a23 23 0 0 1 2.2-11.4c1.2-1.8 3-2.7 5.5-2.7 2.7 0 4.4.9 5.6 2.9 1 1.7 2.1 5.2 2.1 12.3v15a24 24 0 0 1-2.2 11.8c-1.2 2-2.9 2.8-5.4 2.8z" fill="#424242" opacity=".2"/><path d="M102.2 69.3c0 9.6-1.8 16.8-5.4 21.7-3.6 4.9-9 7.3-16.4 7.3-7.2 0-12.7-2.4-16.3-7.1S58.5 79.4 58.4 70V58.5a36 36 0 0 1 5.4-21.7c3.6-4.8 9.1-7.2 16.5-7.2 7.3 0 12.8 2.4 16.4 7s5.4 11.7 5.5 21v11.6zM91 56.8c0-6.3-.8-10.9-2.5-13.8s-4.5-4.4-8.2-4.4c-3.6 0-6.3 1.4-8 4.1a25.5 25.5 0 0 0-2.7 13V71a29 29 0 0 0 2.6 14c1.7 3 4.5 4.5 8.2 4.5 3.6 0 6.2-1.4 8-4.2S91 77.9 91 71.9V56.8z" fill="#FAFAFA"/></svg>