<svg viewBox="0 0 128 128" xmlns="http://www.w3.org/2000/svg"><path d="M72.84 73.74h.72c5.22 0 9.46-4.23 9.46-9.46V28.22c0-5.35-4.38-9.73-9.73-9.73H54.55c-5.26 0-9.57 4.31-9.57 9.57v10.65a3.64 3.64 0 0 1-3.64 3.64h-7.22a3.64 3.64 0 0 1-3.64-3.64V28.22C30.49 14.9 41.39 4 54.71 4h18.86C86.8 4 97.52 14.72 97.52 27.95v36.12c0 13.29-10.87 24.16-24.16 24.16h-.51V73.74z" fill="#BDBDBD"/><path d="M73.56 7c11.55 0 20.95 9.4 20.95 20.95v36.12c0 10.83-8.17 19.78-18.67 21.02v-8.55c5.79-1.07 10.18-6.16 10.18-12.25V28.22c0-7.02-5.71-12.73-12.73-12.73H54.55c-6.93 0-12.57 5.64-12.57 12.57v10.65c0 .35-.28.64-.64.64h-7.22a.63.63 0 0 1-.63-.64V28.22C33.49 16.52 43.01 7 54.71 7h18.85m0-3H54.71C41.39 4 30.49 14.9 30.49 28.22v10.49c0 2.01 1.63 3.64 3.63 3.64h7.22a3.64 3.64 0 0 0 3.64-3.64V28.06c0-5.26 4.31-9.57 9.57-9.57h18.74c5.35 0 9.73 4.38 9.73 9.73v36.07c0 5.22-4.23 9.46-9.46 9.46h-.72v14.49h.51c13.29 0 24.16-10.87 24.16-24.16V27.95C97.51 14.72 86.79 4 73.56 4z" fill="#424242" opacity=".2"/><linearGradient id="a" x1="64" x2="64" y1="122.93" y2="54.974" gradientUnits="userSpaceOnUse"><stop stop-color="#FFA000" offset=".005"/><stop stop-color="#FFC107" offset="1"/></linearGradient><path d="M100.11 124H27.89c-4.04 0-7.32-3.28-7.32-7.32V62.05c0-4.04 3.28-7.32 7.32-7.32h72.21c4.04 0 7.32 3.28 7.32 7.32v54.64c0 4.03-3.27 7.31-7.31 7.31z" fill="url(#a)"/><path d="M100.11 57.73c2.38 0 4.32 1.94 4.32 4.32v54.64c0 2.38-1.94 4.32-4.32 4.32H27.89c-2.38 0-4.32-1.94-4.32-4.32V62.05c0-2.38 1.94-4.32 4.32-4.32h72.22m0-3H27.89c-4.04 0-7.32 3.28-7.32 7.32v54.64c0 4.04 3.28 7.32 7.32 7.32h72.21c4.04 0 7.32-3.28 7.32-7.32V62.05c0-4.04-3.27-7.32-7.31-7.32z" fill="#424242" opacity=".2"/></svg>