<svg viewBox="0 0 128 128" xmlns="http://www.w3.org/2000/svg"><linearGradient id="a" x1="64" x2="64" y1="4.3" y2="124.4" gradientUnits="userSpaceOnUse"><stop stop-color="#40C4FF" offset="0"/><stop stop-color="#2DB5F9" offset=".4"/><stop stop-color="#0091EA" offset="1"/></linearGradient><path d="M116 124H12a8 8 0 0 1-8-8V12a8 8 0 0 1 8-8h104a8 8 0 0 1 8 8v104a8 8 0 0 1-8 8z" fill="url(#a)"/><path d="M116 7a5 5 0 0 1 5 5v104a5 5 0 0 1-5 5H12a5 5 0 0 1-5-5V12a5 5 0 0 1 5-5h104m0-3H12a8 8 0 0 0-8 8v104a8 8 0 0 0 8 8h104a8 8 0 0 0 8-8V12a8 8 0 0 0-8-8z" fill="#424242" opacity=".2"/><g fill="#424242" opacity=".2"><path d="M25.4 84.4c3.1 0 5.5.6 7.1 1.8s2.5 3.2 2.5 5.6c0 1.3-.4 2.4-1 3.4s-1.7 1.8-3 2.4c1.5.4 2.6 1.1 3.4 2.3s1.2 2.4 1.2 4c0 2.5-.8 4.5-2.5 6s-4 2-7 2H17a1 1 0 0 1-1-1V85.4c0-.6.4-1 1-1h8.4M21.8 96h3.7c1.5 0 2.6-.4 3.5-1s1.2-1.7 1.2-2.9c0-1.4-.4-2.3-1.1-3s-2-.9-3.7-.9h-3.6a1 1 0 0 0-1 1V95c0 .5.4 1 1 1m0 12H26c1.5 0 2.7-.3 3.5-1a4 4 0 0 0 1.3-3.2c0-2.8-1.5-4.3-4.4-4.3h-4.7a1 1 0 0 0-1 1v6.5c0 .6.4 1 1 1m3.6-26.6H17a4 4 0 0 0-4 4v25.5a4 4 0 0 0 4 4h9c3.8 0 6.9-1 9-2.8a10 10 0 0 0 3.6-8.2 9.6 9.6 0 0 0-2.4-6.6l.2-.4a9 9 0 0 0 1.6-5c0-4.4-2-6.8-3.7-8a14.3 14.3 0 0 0-8.9-2.5zm-1.6 9.8h1.6c1.1 0 1.6.2 1.7.3l.1.6-.1.5c-.3.2-.9.4-1.6.4h-1.7v-1.8zm0 11.3h2.7c1.3 0 1.4.2 1.4 1.3 0 .7-.2.8-.3.9-.2.2-.8.3-1.5.3h-2.3v-2.5z"/><path d="M52 84.4c.4 0 .8.2.9.6l9.7 25.5a1 1 0 0 1-1 1.4h-2.8a1 1 0 0 1-1-.7l-1.7-5a1 1 0 0 0-1-.7H46a1 1 0 0 0-1 .7l-1.7 5a1 1 0 0 1-1 .7h-2.8a1 1 0 0 1-1-1.3L48.2 85a1 1 0 0 1 1-.7H52m-4 17.2h5a1 1 0 0 0 1-1.3L51.5 93c-.2-.5-.6-.7-1-.7s-.8.2-1 .7l-2.5 7.3a1 1 0 0 0 1 1.3m4-20.2h-3a4 4 0 0 0-3.7 2.6l-9.6 25.5a4 4 0 0 0 3.7 5.4h2.8a4 4 0 0 0 3.8-2.7l1.3-3.7h6.4l1.3 3.7a4 4 0 0 0 3.8 2.7h2.8a4 4 0 0 0 3.8-5.4L55.7 84a4 4 0 0 0-3.7-2.6z"/><path d="M76.2 84c3 0 5.5.8 7.4 2.5a9.8 9.8 0 0 1 3 5.7 1 1 0 0 1-1 1.2H83a1 1 0 0 1-1-.8 6.2 6.2 0 0 0-1.6-3.4c-1-1-2.3-1.3-4-1.3-2.1 0-3.7.7-4.8 2.2a11.3 11.3 0 0 0-1.8 6.7v2.5c0 3 .6 5.2 1.6 6.8 1.1 1.5 2.7 2.3 4.7 2.3s3.3-.4 4.3-1.2a6 6 0 0 0 1.6-3.5 1 1 0 0 1 1-.8h2.8a1 1 0 0 1 1 1.2 9.5 9.5 0 0 1-3.1 5.7 11 11 0 0 1-7.6 2.5c-2.2 0-4-.5-5.8-1.6s-3-2.5-3.8-4.4a16 16 0 0 1-1.4-6.7V97c0-2.6.4-4.8 1.3-6.8s2.3-3.5 4-4.6c1.7-1 3.7-1.6 6-1.6m0-3a13.4 13.4 0 0 0-12.6 8 19.2 19.2 0 0 0-1.8 8v2.6c0 3 .6 5.7 1.7 8a13.2 13.2 0 0 0 12.4 7.7c3.9 0 7-1 9.5-3.2a12 12 0 0 0 4-7.4 4 4 0 0 0-3.9-4.7H83a4 4 0 0 0-4 3.2c-.2 1.2-.5 1.6-.7 1.7-.1.2-.7.5-2.2.5-1.3 0-1.8-.5-2.2-1-.5-.7-1-2.2-1-5.1v-2.5c0-2.2.3-3.9 1-4.9.4-.5 1-1 2.4-1 1 0 1.7.2 2 .5.2.1.5.5.8 1.8a4 4 0 0 0 4 3.3h2.6a4 4 0 0 0 4-4.8c-.6-3-2-5.6-4-7.5a13.5 13.5 0 0 0-9.4-3.2z"/><path d="M110.2 84.4a1 1 0 0 1 .8 1.6l-8.4 10a1 1 0 0 0 0 1.2l9.2 13.1a1 1 0 0 1-.8 1.6h-3.2a1 1 0 0 1-.8-.4L99.7 101a1 1 0 0 0-.8-.4 1 1 0 0 0-.8.3l-2 2.1a1 1 0 0 0-.2.7v7.2c0 .6-.5 1-1 1H92a1 1 0 0 1-1-1V85.4c0-.6.4-1 1-1h2.8c.5 0 1 .4 1 1v9a1 1 0 0 0 1.8.7l.8-1 7.8-9.4c.2-.2.4-.3.7-.3h3.2m0-3H107a4 4 0 0 0-3 1.4L98.9 89v-3.5a4 4 0 0 0-4-4H92a4 4 0 0 0-4 4V111a4 4 0 0 0 4 4h2.8a4 4 0 0 0 4-4v-5.8l5.6 8a4 4 0 0 0 3.3 1.8h3.2a4 4 0 0 0 3.3-6.3l-8.4-11.9 7.4-8.7a4 4 0 0 0 .5-4.3 4 4 0 0 0-3.6-2.3z"/></g><path d="M16 110.9V85.4c0-.6.5-1 1-1h8.4c3.2 0 5.5.6 7.2 1.8s2.4 3.2 2.4 5.6c0 1.3-.3 2.4-1 3.4s-1.7 1.8-3 2.4c1.5.4 2.6 1.1 3.4 2.3s1.3 2.4 1.3 4c0 2.5-.9 4.5-2.5 6s-4 2-7.2 2h-9a1 1 0 0 1-1-1zm4.8-16c0 .6.4 1 1 1h3.7c1.5 0 2.6-.3 3.5-1s1.2-1.6 1.2-2.8c0-1.4-.4-2.3-1.1-3s-2-.9-3.7-.9h-3.6a1 1 0 0 0-1 1V95zm0 5.6v6.5c0 .6.4 1 1 1H26c1.5 0 2.7-.3 3.5-1a4 4 0 0 0 1.3-3.1c0-2.9-1.5-4.3-4.4-4.4h-4.7a1 1 0 0 0-1 1zm34.3 5H46a1 1 0 0 0-1 .7l-1.7 5a1 1 0 0 1-1 .7h-2.8a1 1 0 0 1-1-1.3L48.2 85a1 1 0 0 1 1-.7H52c.4 0 .8.3 1 .7l9.6 25.5a1 1 0 0 1-1 1.3h-2.8a1 1 0 0 1-1-.6l-1.7-5.1a1 1 0 0 0-1-.7zm-7.2-3.9h5.2a1 1 0 0 0 1-1.3L51.4 93a1 1 0 0 0-2 0l-2.5 7.3a1 1 0 0 0 1 1.3zm37.7 1.4a1 1 0 0 1 1 1.1 9.5 9.5 0 0 1-3 5.7 11 11 0 0 1-7.6 2.5 10.4 10.4 0 0 1-9.7-6 16 16 0 0 1-1.4-6.7V97c0-2.6.5-4.8 1.4-6.8s2.2-3.5 4-4.6a11 11 0 0 1 6-1.6c3 0 5.4.8 7.3 2.5a9.8 9.8 0 0 1 3 5.7 1 1 0 0 1-1 1.2H83a1 1 0 0 1-1-.8 6.2 6.2 0 0 0-1.6-3.4c-1-1-2.3-1.3-4-1.3-2.1 0-3.7.7-4.9 2.2a11.3 11.3 0 0 0-1.7 6.7v2.5c0 3 .6 5.2 1.6 6.8a5.6 5.6 0 0 0 4.7 2.3c1.9 0 3.3-.4 4.3-1.2a6 6 0 0 0 1.6-3.5 1 1 0 0 1 1-.8h2.7zm12.5-2l-2 2a1 1 0 0 0-.2.7v7.2c0 .5-.5 1-1 1H92a1 1 0 0 1-1-1V85.4c0-.6.4-1 1-1h2.8c.5 0 1 .4 1 1v9a1 1 0 0 0 1.8.7l.8-1 7.8-9.4c.2-.2.4-.3.7-.3h3.2a1 1 0 0 1 .8 1.6l-8.4 10a1 1 0 0 0 0 1.2l9.2 13.1a1 1 0 0 1-.8 1.6h-3.2a1 1 0 0 1-.8-.4L99.7 101a1 1 0 0 0-1.6 0z" fill="#FAFAFA"/><path d="M50 16c2 0 4 1.6 4 4v14c0 1.1.9 2 2 2h46a4 4 0 0 1 4 4v8a4 4 0 0 1-4 4H56a2 2 0 0 0-2 2v14a4 4 0 0 1-6.6 3l-24-24a4 4 0 0 1 0-6l24-24c.8-.7 1.7-1 2.6-1m0-3a7 7 0 0 0-4.6 1.7l-.1.2-24 24a7 7 0 0 0 0 10.3l24 24A7 7 0 0 0 57 68V55h45a7 7 0 0 0 7-7v-8a7 7 0 0 0-7-7H57V20a7 7 0 0 0-7-7z" fill="#424242" opacity=".2"/><path d="M47.4 71l-24-24a4 4 0 0 1 0-6l24-24a4 4 0 0 1 6.6 3v14c0 1.1.9 2 2 2h46a4 4 0 0 1 4 4v8a4 4 0 0 1-4 4H56a2 2 0 0 0-2 2v14a4 4 0 0 1-6.6 3z" fill="#FAFAFA"/></svg>