<svg viewBox="0 0 128 128" xmlns="http://www.w3.org/2000/svg"><linearGradient id="a" x1="-93.047" x2="-93.047" y1="-73.413" y2="-17.291" gradientUnits="userSpaceOnUse"><stop stop-color="#eee" offset=".005"/><stop stop-color="#EAEAEA" offset=".282"/><stop stop-color="#ddd" offset=".577"/><stop stop-color="#C8C8C8" offset=".879"/><stop stop-color="#BDBDBD" offset="1"/></linearGradient><path d="M-42.13-44.72c-.91-4.33-4.3-20.11-5.87-27.41-.47-2.21-2.11-3.82-3.99-3.81-5.36 0-15.39-.05-16.6-.05h-44.08c-.61 0-2.56.06-4.11 1.79-4.7 5.27-12.54 20.52-13.76 22.07-.08.1-6.27 2.31-9.09 4-1.12.67-1.74 2.13-1.9 3.63l-2.46 20.75c-.64 4.1 1.7 5.76 5.37 5.76h91.51c2.8 0 5.11-.68 5.11-5.69v-19.79c0-.43-.05-.85-.13-1.25z" fill="url(#a)"/><defs><path id="b" d="M-42.13-44.78c-.91-4.32-4.3-20.06-5.87-27.34-.47-2.21-2.11-3.82-3.99-3.82-5.36 0-15.39-.06-16.6-.06h-44.08c-.61 0-2.56.07-4.11 1.8-4.7 5.26-12.54 20.51-13.76 22.05-.08.1-6.27 2.28-9.09 3.96-1.12.67-1.74 2.13-1.9 3.62l-2.46 20.76c-.64 4.09 1.7 5.81 5.37 5.81h91.51c2.8 0 5.11-.79 5.11-5.8v-19.74c0-.42-.05-.83-.13-1.24z"/></defs><path d="M-51.98-73c.36 0 .87.59 1.05 1.44 1.46 6.78 4.95 23.06 5.86 27.43.04.2.07.44.07.66v19.79c0 2.81-.49 2.69-2.11 2.69h-91.51c-1.3 0-2.02-.23-2.25-.5s-.3-.92-.16-1.77c.01-.04.01-.06.02-.09l2.47-20.83c.08-.8.36-1.28.46-1.36 1.87-1.12 5.83-2.66 7.51-3.31 1.46-.57 1.86-.72 2.39-1.39.5-.63 1.28-2 2.99-5.03 2.85-5.03 7.61-13.53 10.65-16.93.57-.64 1.22-.79 1.87-.79h60.69-.02m.02-3.01s-.01 0 0 0h-60.7c-.63 0-2.55.08-4.08 1.79-4.7 5.27-12.54 20.52-13.76 22.07-.08.1-6.27 2.31-9.09 4-1.12.67-1.74 2.13-1.9 3.63l-2.46 20.75c-.64 4.1 1.7 5.76 5.37 5.76h91.51c2.8 0 5.11-.68 5.11-5.69v-19.79c0-.42-.05-.84-.13-1.24-.91-4.33-4.3-20.17-5.87-27.47-.49-2.21-2.13-3.81-4-3.81z" fill="#424242" opacity=".2"/><linearGradient id="c" x1="46.43" x2="46.43" y1="-117.5" y2="-61.374" gradientUnits="userSpaceOnUse"><stop stop-color="#616161" offset=".011"/><stop stop-color="#5D5D5D" offset=".25"/><stop stop-color="#505050" offset=".504"/><stop stop-color="#3B3B3B" offset=".766"/><stop stop-color="#212121" offset="1"/></linearGradient><path d="M97.35-88.93c-.91-4.33-4.3-20.11-5.86-27.41-.47-2.21-2.11-3.75-3.99-3.75-5.36 0-15.39.01-16.6.01H26.82c-.61 0-2.56-.01-4.11 1.73C18-113.07 10.16-97.86 8.95-96.31c-.08.1-6.27 2.3-9.09 3.99-1.12.67-1.74 2.12-1.9 3.62L-4.5-67.9c-.64 4.1 1.7 5.82 5.37 5.82h91.51c2.8 0 5.1-.8 5.1-5.81v-19.79c-.01-.43-.05-.84-.13-1.25z" fill="url(#c)"/><defs><path id="d" d="M97.35-88.98c-.91-4.32-4.3-20.06-5.86-27.34-.47-2.21-2.11-3.74-3.99-3.74-5.36 0-15.39.01-16.6.01H26.82c-.61 0-2.56-.01-4.11 1.72C18-113.06 10.16-97.85 8.95-96.31c-.08.1-6.27 2.26-9.09 3.94-1.12.67-1.74 2.12-1.9 3.61L-4.51-68c-.64 4.09 1.7 5.8 5.37 5.8h91.51c2.8 0 5.1-.79 5.1-5.8v-19.74c0-.42-.04-.84-.12-1.24z"/></defs><path d="M87.5-117.08c.36 0 .87.53 1.05 1.38 1.46 6.78 4.94 23.03 5.86 27.4.04.2.06.41.06.63v19.79c0 2.81-.49 2.81-2.1 2.81H.86c-1.3 0-2.02-.29-2.25-.56s-.3-.95-.16-1.8l.02-.1L.94-88.37c.08-.8.36-1.28.46-1.36 1.87-1.12 5.83-2.66 7.51-3.31 1.46-.57 1.86-.72 2.39-1.39.5-.63 1.28-2 2.99-5.03 2.85-5.03 7.61-13.46 10.65-16.87.57-.64 1.22-.72 1.87-.72h44.08c.75 0 4.89 0 9.21-.01l7.4-.02m0-3c-5.36 0-15.39.01-16.6.01H26.8c-.63 0-2.55.01-4.08 1.73C18-113.07 10.16-97.86 8.95-96.31c-.08.1-6.27 2.3-9.09 3.99-1.12.67-1.74 2.12-1.9 3.62L-4.5-67.9c-.64 4.1 1.7 5.82 5.37 5.82h91.51c2.8 0 5.1-.8 5.1-5.81v-19.79c0-.42-.04-.84-.13-1.24-.91-4.33-4.3-20.11-5.86-27.41-.48-2.22-2.12-3.75-3.99-3.75z" fill="#eee" opacity=".2"/><linearGradient id="e" x1="73.662" x2="109.93" y1="109.25" y2="72.982" gradientTransform="rotate(90 63.953 63.787)" gradientUnits="userSpaceOnUse"><stop stop-color="#BDBDBD" offset="0"/><stop stop-color="#9E9E9E" offset="1"/></linearGradient><path d="M19.69 108.05c-5.15-5.15-5.15-13.53 0-18.69l14.68-14.68c1.62-1.62 3.66-2.81 5.88-3.41 2.16-.58 4.46-.61 6.63-.08 2.24.55 4.31 1.69 5.97 3.28.07.07.14.13.21.2 5.15 5.15 5.15 13.53 0 18.69l-14.68 14.68c-5.16 5.16-13.54 5.16-18.69.01zM61.34 66.4c-9.7-9.7-25.57-9.7-35.27 0L11.39 81.07c-9.7 9.7-9.7 25.57 0 35.27s25.57 9.7 35.27 0l14.68-14.68c9.7-9.69 9.7-25.56 0-35.26z" fill="url(#e)"/><path d="M43.71 62.12c5.88 0 11.39 2.27 15.51 6.4 8.55 8.55 8.55 22.47 0 31.03l-14.68 14.68c-4.12 4.12-9.63 6.4-15.51 6.4s-11.39-2.27-15.51-6.4c-8.55-8.55-8.55-22.47 0-31.03L28.2 68.52c4.12-4.13 9.63-6.4 15.51-6.4m-14.68 52.8c4.33 0 8.41-1.68 11.46-4.74L55.17 95.5c6.32-6.32 6.32-16.61 0-22.93l-.25-.25a16.26 16.26 0 0 0-7.33-4.03c-1.26-.31-2.57-.47-3.88-.47a16.166 16.166 0 0 0-11.47 4.74L17.57 87.24c-6.32 6.32-6.32 16.61 0 22.93 3.05 3.06 7.13 4.75 11.46 4.75m14.68-55.8c-6.39 0-12.79 2.42-17.64 7.27L11.39 81.07c-9.7 9.7-9.7 25.57 0 35.27 4.85 4.85 11.24 7.27 17.64 7.27s12.79-2.42 17.64-7.27l14.68-14.68c9.7-9.7 9.7-25.57 0-35.27-4.86-4.84-11.25-7.27-17.64-7.27zm-14.68 52.8c-3.38 0-6.77-1.29-9.34-3.86-5.15-5.15-5.15-13.53 0-18.69l14.68-14.68c1.62-1.62 3.66-2.81 5.88-3.41 1.13-.3 2.3-.46 3.46-.46 1.07 0 2.13.13 3.17.38 2.24.55 4.31 1.69 5.97 3.28.07.07.14.13.21.2 5.15 5.15 5.15 13.53 0 18.69l-14.68 14.68a13.19 13.19 0 0 1-9.35 3.87z" fill="#424242" opacity=".2"/><linearGradient id="f" x1="53.118" x2="18.499" y1="19.452" y2="54.071" gradientTransform="rotate(90 63.953 63.787)" gradientUnits="userSpaceOnUse"><stop stop-color="#9E9E9E" offset="0"/><stop stop-color="#BDBDBD" offset="1"/></linearGradient><path d="M74.86 52.88c-5.15-5.15-5.15-13.53 0-18.69l14.68-14.68c1.62-1.62 3.66-2.81 5.88-3.41 2.16-.58 4.46-.61 6.63-.08 2.24.55 4.31 1.69 5.97 3.28.07.07.14.13.21.2 5.15 5.15 5.15 13.53 0 18.69L93.54 52.88c-5.15 5.15-13.53 5.15-18.68 0zm41.65-41.65c-9.7-9.7-25.57-9.7-35.27 0L66.56 25.9c-9.7 9.7-9.7 25.57 0 35.27s25.57 9.7 35.27 0l14.68-14.68c9.7-9.69 9.7-25.56 0-35.26z" fill="url(#f)"/><path d="M98.88 6.95c5.88 0 11.39 2.27 15.51 6.4 4.12 4.12 6.4 9.63 6.4 15.51s-2.27 11.39-6.4 15.51L99.71 59.05c-4.12 4.12-9.63 6.4-15.51 6.4s-11.39-2.27-15.51-6.4c-8.55-8.55-8.55-22.47 0-31.03l14.68-14.68c4.11-4.12 9.62-6.39 15.51-6.39M84.2 59.75c4.33 0 8.41-1.68 11.46-4.74l14.68-14.68c6.32-6.32 6.32-16.61 0-22.93l-.25-.25a16.26 16.26 0 0 0-7.33-4.03c-1.26-.31-2.57-.47-3.88-.47a16.153 16.153 0 0 0-11.46 4.73L72.73 32.07c-6.32 6.32-6.32 16.61 0 22.93a16.11 16.11 0 0 0 11.47 4.75m14.68-55.8c-6.39 0-12.79 2.42-17.64 7.27L66.56 25.9c-9.7 9.7-9.7 25.57 0 35.27 4.85 4.85 11.24 7.27 17.64 7.27 6.39 0 12.79-2.42 17.64-7.27l14.68-14.68c9.7-9.7 9.7-25.57 0-35.27-4.86-4.84-11.25-7.27-17.64-7.27zM84.2 56.75c-3.38 0-6.77-1.29-9.34-3.86-5.15-5.15-5.15-13.53 0-18.69l14.68-14.68c1.62-1.62 3.66-2.81 5.88-3.41 1.13-.3 2.3-.46 3.46-.46 1.07 0 2.13.13 3.17.38 2.24.55 4.31 1.69 5.97 3.28.07.07.14.13.21.2 5.15 5.15 5.15 13.53 0 18.69L93.54 52.88a13.15 13.15 0 0 1-9.34 3.87z" fill="#424242" opacity=".2"/><linearGradient id="g" x1="15.881" x2="53.881" y1="267.59" y2="267.59" gradientUnits="userSpaceOnUse"><stop stop-color="#9E9E9E" offset="0"/><stop stop-color="#BDBDBD" offset="1"/></linearGradient><path d="M24.88 278.46v-5.26c0-5.39 4.12-10.06 9.5-10.32 5.82-.28 10.5 4.37 10.5 10.13v5.45c0 1.45 1.18 2.62 2.62 2.62h3.75c1.45 0 2.62-1.18 2.62-2.62v-5.45c0-10.53-8.47-18.93-19-18.93h.07c-10.53 0-19.07 8.4-19.07 18.93v5.45c0 1.45 1.18 2.62 2.62 2.62h3.75c1.47.01 2.64-1.17 2.64-2.62z" fill="url(#g)"/><linearGradient id="h" x1="73.84" x2="112.12" y1="190.91" y2="190.91" gradientUnits="userSpaceOnUse"><stop stop-color="#9E9E9E" offset="0"/><stop stop-color="#BDBDBD" offset="1"/></linearGradient><path d="M92.98 209.02c-5.59 0-10.14-4.55-10.14-10.14v-15.93c0-1.6.38-3.18 1.11-4.61.61-1.2 1.47-2.27 2.49-3.14a10.17 10.17 0 0 1 3.53-1.94c.97-.3 1.99-.46 3.01-.46 5.59 0 10.14 4.55 10.14 10.14v15.93c0 5.6-4.55 10.15-10.14 10.15zm0-45.21c-10.53 0-19.14 8.61-19.14 19.14v15.93c0 10.53 8.61 19.14 19.14 19.14s19.14-8.61 19.14-19.14v-15.93c0-10.53-8.61-19.14-19.14-19.14z" fill="url(#h)"/><path d="M92.98 165.81c9.45 0 17.14 7.69 17.14 17.14v15.93c0 9.45-7.69 17.14-17.14 17.14s-17.14-7.69-17.14-17.14v-15.93c0-9.45 7.69-17.14 17.14-17.14m0 45.21c6.69 0 12.14-5.45 12.14-12.14v-15.93c0-6.69-5.45-12.14-12.14-12.14-1.23 0-2.44.18-3.6.55-1.53.48-3 1.28-4.23 2.32a12.329 12.329 0 0 0-2.98 3.75c-.87 1.7-1.33 3.6-1.33 5.52v15.93c0 6.69 5.45 12.14 12.14 12.14m0-47.21c-10.53 0-19.14 8.61-19.14 19.14v15.93c0 10.53 8.61 19.14 19.14 19.14s19.14-8.61 19.14-19.14v-15.93c0-10.53-8.61-19.14-19.14-19.14zm0 45.21c-5.59 0-10.14-4.55-10.14-10.14v-15.93c0-1.6.38-3.18 1.11-4.61.61-1.2 1.47-2.27 2.49-3.14a10.17 10.17 0 0 1 3.53-1.94c.97-.3 1.99-.46 3.01-.46 5.59 0 10.14 4.55 10.14 10.14v15.93c0 5.6-4.55 10.15-10.14 10.15z" fill="#424242" opacity=".2"/><linearGradient id="i" x1="73.84" x2="112.12" y1="251.15" y2="251.15" gradientUnits="userSpaceOnUse"><stop stop-color="#9E9E9E" offset="0"/><stop stop-color="#BDBDBD" offset="1"/></linearGradient><path d="M92.98 269.26c-5.59 0-10.14-4.55-10.14-10.14v-15.93c0-1.6.38-3.18 1.11-4.61.69-1.35 1.69-2.54 2.9-3.46 1.21-.93 2.63-1.57 4.13-1.87.66-.13 1.33-.2 2.01-.2 5.59 0 10.14 4.55 10.14 10.14v15.93c-.01 5.59-4.56 10.14-10.15 10.14zm0-45.21c-10.53 0-19.14 8.61-19.14 19.14v15.93c0 10.53 8.61 19.14 19.14 19.14s19.14-8.61 19.14-19.14v-15.93c0-10.53-8.61-19.14-19.14-19.14z" fill="url(#i)"/><path d="M92.98 226.05c9.45 0 17.14 7.69 17.14 17.14v15.93c0 9.45-7.69 17.14-17.14 17.14s-17.14-7.69-17.14-17.14v-15.93c0-9.45 7.69-17.14 17.14-17.14m0 45.21c6.69 0 12.14-5.45 12.14-12.14v-15.93c0-6.69-5.45-12.14-12.14-12.14-.81 0-1.62.08-2.4.24-1.78.36-3.49 1.14-4.95 2.24a12.144 12.144 0 0 0-4.79 9.66v15.93c0 6.69 5.45 12.14 12.14 12.14m0-47.21c-10.53 0-19.14 8.61-19.14 19.14v15.93c0 10.53 8.61 19.14 19.14 19.14s19.14-8.61 19.14-19.14v-15.93c0-10.53-8.61-19.14-19.14-19.14zm0 45.21c-5.59 0-10.14-4.55-10.14-10.14v-15.93c0-1.6.38-3.18 1.11-4.61.69-1.35 1.69-2.54 2.9-3.46 1.21-.93 2.63-1.57 4.13-1.87.66-.13 1.33-.2 2.01-.2 5.59 0 10.14 4.55 10.14 10.14v15.93c-.01 5.59-4.56 10.14-10.15 10.14z" fill="#424242" opacity=".2"/><linearGradient id="j" x1="73.002" x2="98.31" y1="170.15" y2="170.15" gradientUnits="userSpaceOnUse"><stop stop-color="#9E9E9E" offset="0"/><stop stop-color="#BDBDBD" offset="1"/></linearGradient><path d="M88.88 163.81v11.1c0 2.24 1.76 4.21 4 4.21 2.31 0 4-1.89 4-4.2v-11.11c0-1.45-1.18-2.62-2.62-2.62h-2.75c-1.45 0-2.63 1.17-2.63 2.62z" fill="url(#j)"/><linearGradient id="k" x1="72.114" x2="98.677" y1="221.09" y2="221.09" gradientUnits="userSpaceOnUse"><stop stop-color="#9E9E9E" offset="0"/><stop stop-color="#BDBDBD" offset="1"/></linearGradient><path d="M92.98 238.52c-2.31 0-4.2-1.89-4.2-4.2v-26.47c0-2.31 1.89-4.2 4.2-4.2s4.2 1.89 4.2 4.2v26.47c0 2.31-1.89 4.2-4.2 4.2z" fill="url(#k)"/><linearGradient id="l" x1="73.002" x2="98.31" y1="272.6" y2="272.6" gradientUnits="userSpaceOnUse"><stop stop-color="#9E9E9E" offset="0"/><stop stop-color="#BDBDBD" offset="1"/></linearGradient><path d="M96.88 278.46v-10.15c0-2.24-1.76-4.21-4-4.21-2.31 0-4 1.89-4 4.2v10.16c0 1.45 1.18 2.62 2.62 2.62h2.75c1.46.01 2.63-1.17 2.63-2.62z" fill="url(#l)"/><path d="M34.92 256.09c9.35.02 16.97 7.61 16.97 16.93v5.45c0 .34-.28.62-.62.62h-3.75c-.34 0-.62-.28-.62-.62v-5.45c0-6.69-5.38-12.14-12-12.14-.2 0-.39 0-.59.01-6.4.31-11.41 5.72-11.41 12.32v5.26c0 .34-.28.62-.62.62h-3.75c-.34 0-.62-.28-.62-.62v-5.45c-.03-9.32 7.61-16.92 17.01-16.93m.03-2zh-.07.07zm-.03 0c-10.51.02-19.03 8.41-19.03 18.93v5.45c0 1.45 1.18 2.62 2.62 2.62h3.75c1.45 0 2.62-1.18 2.62-2.62v-5.26c0-5.39 4.12-10.06 9.5-10.32.17-.01.33-.01.5-.01 5.59 0 10 4.55 10 10.14v5.45c0 1.45 1.18 2.62 2.62 2.62h3.75c1.45 0 2.62-1.18 2.62-2.62v-5.45c.01-10.52-8.44-18.92-18.95-18.93z" fill="#424242" opacity=".2"/><linearGradient id="m" x1="58.258" x2="47.9" y1="84.104" y2="84.104" gradientTransform="rotate(45.001 83.367 86.879)" gradientUnits="userSpaceOnUse"><stop stop-color="#9E9E9E" offset="0"/><stop stop-color="#BDBDBD" offset="1"/></linearGradient><path d="M48.01 79.73a5.486 5.486 0 0 1 0-7.74L72.4 47.6c2.13-2.13 5.61-2.13 7.74 0s2.13 5.61 0 7.74L55.75 79.73c-2.13 2.12-5.61 2.12-7.74 0z" fill="url(#m)"/><path d="M94.26 163.19c.34 0 .62.28.62.62v11.11c0 1.25-.86 2.2-2 2.2-1.08 0-2-1.01-2-2.21v-11.1c0-.34.28-.62.62-.62h2.76m0-2h-2.75c-1.45 0-2.62 1.18-2.62 2.62v11.1c0 2.24 1.76 4.21 4 4.21 2.31 0 4-1.89 4-4.2v-11.11a2.631 2.631 0 0 0-2.63-2.62z" fill="#424242" opacity=".2"/><linearGradient id="n" x1="14.156" x2="40.719" y1="251.03" y2="251.03" gradientUnits="userSpaceOnUse"><stop stop-color="#9E9E9E" offset="0"/><stop stop-color="#BDBDBD" offset="1"/></linearGradient><path d="M35.02 268.46c-2.31 0-4.2-1.89-4.2-4.2v-26.47c0-2.31 1.89-4.2 4.2-4.2s4.2 1.89 4.2 4.2v26.47c0 2.31-1.89 4.2-4.2 4.2z" fill="url(#n)"/><path d="M92.98 205.65c1.21 0 2.2.99 2.2 2.2v26.47c0 1.21-.99 2.2-2.2 2.2s-2.2-.99-2.2-2.2v-26.47c0-1.21.99-2.2 2.2-2.2m0-2c-2.31 0-4.2 1.89-4.2 4.2v26.47c0 2.31 1.89 4.2 4.2 4.2s4.2-1.89 4.2-4.2v-26.47c0-2.31-1.89-4.2-4.2-4.2zM92.88 266.11c1.08 0 2 1.01 2 2.21v10.15c0 .34-.28.62-.62.62h-2.75c-.34 0-.62-.28-.62-.62V268.3c-.01-1.25.85-2.19 1.99-2.19m0-2c-2.31 0-4 1.89-4 4.2v10.16c0 1.45 1.18 2.62 2.62 2.62h2.75c1.45 0 2.62-1.18 2.62-2.62v-10.15c.01-2.25-1.75-4.21-3.99-4.21z" fill="#424242" opacity=".2"/><linearGradient id="o" x1="-144.09" x2="-105.82" y1="73.672" y2="73.672" gradientUnits="userSpaceOnUse"><stop stop-color="#9E9E9E" offset="0"/><stop stop-color="#E0E0E0" offset="1"/></linearGradient><path d="M-124.95 55.57c5.59 0 10.14 4.55 10.14 10.14v15.93c0 5.59-4.55 10.14-10.14 10.14s-10.14-4.55-10.14-10.14V65.71c0-5.59 4.54-10.14 10.14-10.14m0-9c-10.53 0-19.14 8.61-19.14 19.14v15.93c0 10.53 8.61 19.14 19.14 19.14s19.14-8.61 19.14-19.14V65.71c-.01-10.53-8.62-19.14-19.14-19.14z" fill="url(#o)"/><linearGradient id="p" x1="-144.09" x2="-105.82" y1="133.91" y2="133.91" gradientUnits="userSpaceOnUse"><stop stop-color="#9E9E9E" offset="0"/><stop stop-color="#E0E0E0" offset="1"/></linearGradient><path d="M-124.95 115.81c5.59 0 10.14 4.55 10.14 10.14v15.93c0 5.59-4.55 10.14-10.14 10.14s-10.14-4.55-10.14-10.14v-15.93c0-5.59 4.54-10.14 10.14-10.14m0-9c-10.53 0-19.14 8.61-19.14 19.14v15.93c0 10.53 8.61 19.14 19.14 19.14s19.14-8.61 19.14-19.14v-15.93c-.01-10.53-8.62-19.14-19.14-19.14z" fill="url(#p)"/><linearGradient id="q" x1="-144.09" x2="-105.82" y1="194.03" y2="194.03" gradientUnits="userSpaceOnUse"><stop stop-color="#9E9E9E" offset="0"/><stop stop-color="#E0E0E0" offset="1"/></linearGradient><path d="M-124.95 175.93c5.59 0 10.14 4.55 10.14 10.14V202c0 5.59-4.55 10.14-10.14 10.14s-10.14-4.55-10.14-10.14v-15.93c0-5.59 4.54-10.14 10.14-10.14m0-9c-10.53 0-19.14 8.61-19.14 19.14V202c0 10.53 8.61 19.14 19.14 19.14s19.14-8.61 19.14-19.14v-15.93c-.01-10.53-8.62-19.14-19.14-19.14z" fill="url(#q)"/><linearGradient id="r" x1="-145.82" x2="-119.26" y1="103.84" y2="103.84" gradientUnits="userSpaceOnUse"><stop stop-color="#9E9E9E" offset="0"/><stop stop-color="#E0E0E0" offset="1"/></linearGradient><path d="M-124.95 121.28c-2.31 0-4.2-1.89-4.2-4.2V90.61c0-2.31 1.89-4.2 4.2-4.2s4.2 1.89 4.2 4.2v26.47c-.01 2.31-1.9 4.2-4.2 4.2z" fill="url(#r)"/><linearGradient id="s" x1="-145.82" x2="-119.26" y1="164.08" y2="164.08" gradientUnits="userSpaceOnUse"><stop stop-color="#9E9E9E" offset="0"/><stop stop-color="#E0E0E0" offset="1"/></linearGradient><path d="M-124.95 181.51c-2.31 0-4.2-1.89-4.2-4.2v-26.47c0-2.31 1.89-4.2 4.2-4.2s4.2 1.89 4.2 4.2v26.47c-.01 2.32-1.9 4.2-4.2 4.2z" fill="url(#s)"/><path d="M35.02 235.59c1.21 0 2.2.99 2.2 2.2v26.47c0 1.21-.99 2.2-2.2 2.2s-2.2-.99-2.2-2.2v-26.47c0-1.21.99-2.2 2.2-2.2m0-2c-2.31 0-4.2 1.89-4.2 4.2v26.47c0 2.31 1.89 4.2 4.2 4.2s4.2-1.89 4.2-4.2v-26.47c0-2.31-1.89-4.2-4.2-4.2zM76.27 49.01c.66 0 1.28.25 1.75.72.96.96.96 2.53 0 3.49L53.63 77.61c-.46.46-1.08.72-1.75.72-.66 0-1.28-.25-1.75-.72-.96-.96-.96-2.53 0-3.49l24.39-24.39c.46-.47 1.08-.72 1.75-.72m0-3c-1.4 0-2.8.53-3.87 1.6L48.01 71.99a5.486 5.486 0 0 0 0 7.74c1.06 1.06 2.47 1.6 3.87 1.6s2.8-.53 3.87-1.6l24.39-24.39a5.486 5.486 0 0 0 0-7.74 5.482 5.482 0 0 0-3.87-1.59z" fill="#424242" opacity=".2"/><linearGradient id="t" x1="-86.136" x2="-47.857" y1="103.97" y2="103.97" gradientUnits="userSpaceOnUse"><stop stop-color="#9E9E9E" offset="0"/><stop stop-color="#E0E0E0" offset="1"/></linearGradient><path d="M-67 85.87c5.59 0 10.14 4.55 10.14 10.14v15.93c0 5.59-4.55 10.14-10.14 10.14s-10.14-4.55-10.14-10.14V96.01c0-5.59 4.55-10.14 10.14-10.14m0-9c-10.53 0-19.14 8.61-19.14 19.14v15.93c0 10.53 8.61 19.14 19.14 19.14s19.14-8.61 19.14-19.14V96.01c0-10.53-8.61-19.14-19.14-19.14z" fill="url(#t)"/><linearGradient id="u" x1="-86.136" x2="-47.857" y1="164.21" y2="164.21" gradientUnits="userSpaceOnUse"><stop stop-color="#9E9E9E" offset="0"/><stop stop-color="#E0E0E0" offset="1"/></linearGradient><path d="M-67 146.11c5.59 0 10.14 4.55 10.14 10.14v15.93c0 5.59-4.55 10.14-10.14 10.14s-10.14-4.55-10.14-10.14v-15.93c0-5.59 4.55-10.14 10.14-10.14m0-9c-10.53 0-19.14 8.61-19.14 19.14v15.93c0 10.53 8.61 19.14 19.14 19.14s19.14-8.61 19.14-19.14v-15.93c0-10.53-8.61-19.14-19.14-19.14z" fill="url(#u)"/><linearGradient id="v" x1="-87.861" x2="-61.298" y1="74.744" y2="74.744" gradientUnits="userSpaceOnUse"><stop stop-color="#9E9E9E" offset="0"/><stop stop-color="#E0E0E0" offset="1"/></linearGradient><path d="M-67 92.18c-2.31 0-4.2-1.89-4.2-4.2V61.51c0-2.31 1.89-4.2 4.2-4.2s4.2 1.89 4.2 4.2v26.47c0 2.31-1.89 4.2-4.2 4.2z" fill="url(#v)"/><linearGradient id="w" x1="-87.861" x2="-61.298" y1="134.14" y2="134.14" gradientUnits="userSpaceOnUse"><stop stop-color="#9E9E9E" offset="0"/><stop stop-color="#E0E0E0" offset="1"/></linearGradient><path d="M-67 151.57c-2.31 0-4.2-1.89-4.2-4.2V120.9c0-2.31 1.89-4.2 4.2-4.2s4.2 1.89 4.2 4.2v26.47c0 2.32-1.89 4.2-4.2 4.2z" fill="url(#w)"/><linearGradient id="x" x1="-87.861" x2="-61.298" y1="194.59" y2="194.59" gradientUnits="userSpaceOnUse"><stop stop-color="#9E9E9E" offset="0"/><stop stop-color="#E0E0E0" offset="1"/></linearGradient><path d="M-67 212.03c-2.31 0-4.2-1.89-4.2-4.2v-26.47c0-2.31 1.89-4.2 4.2-4.2s4.2 1.89 4.2 4.2v26.47c0 2.31-1.89 4.2-4.2 4.2z" fill="url(#x)"/></svg>