<svg viewBox="0 0 128 128" xmlns="http://www.w3.org/2000/svg"><linearGradient id="a" x1="64" x2="64" y1="8.3" y2="120.1" gradientUnits="userSpaceOnUse"><stop stop-color="#616161" offset="0"/><stop stop-color="#515151" offset=".3"/><stop stop-color="#292929" offset=".9"/><stop stop-color="#212121" offset="1"/></linearGradient><circle cx="64" cy="64" r="56" fill="url(#a)"/><path d="M77.5 30c5.8 0 10.5 1.6 14 4.8S97 42.5 97 48.1a16.4 16.4 0 0 1-9.7 14.8 19 19 0 0 1 8.2 6.6c2 2.8 3 6 3 9.6 0 5.8-2 10.3-5.8 13.7-3.9 3.4-9 5.1-15.3 5.1-6.3 0-11.4-1.7-15.2-5s-5.8-8-5.8-13.7a18 18 0 0 1 11-16.3c-2.9-1.4-5.2-3.4-7-6S58 51.4 58 48c0-5.6 1.8-10 5.4-13.3 3.6-3.2 8.3-4.9 14.2-4.9m0 29.6c3.3 0 6-1 8-3.1 2-2 3-4.8 3-8.2s-1-6-3-8.2-4.8-3.2-8-3.2c-3.3 0-6 1-8 3.1a11 11 0 0 0-3.1 8.3c0 3.4 1 6.1 3 8.2 2 2 4.7 3.1 8 3.1m0 31.6c4 0 7-1.1 9.3-3.3s3.4-5.1 3.4-8.8c0-3.7-1.2-6.7-3.5-9-2.4-2.4-5.4-3.6-9.2-3.6s-6.9 1.2-9.1 3.5-3.5 5.3-3.5 9 1.1 6.8 3.4 9c2.2 2 5.3 3.2 9.3 3.2m0-64.2c-6.6 0-12 2-16.2 5.7A20 20 0 0 0 55 48.1a18.6 18.6 0 0 0 6.7 14.6 20.5 20.5 0 0 0-8.3 16.5c0 6.5 2.3 11.9 6.8 15.9a25.1 25.1 0 0 0 17.3 5.8c7 0 12.8-2 17.2-5.8 4.5-4 6.8-9.3 6.8-16 0-4.2-1.2-8-3.6-11.4a21 21 0 0 0-4.8-5 18.4 18.4 0 0 0 7-14.7 20 20 0 0 0-6.5-15.4A23.1 23.1 0 0 0 77.5 27zm0 29.6a8 8 0 0 1-6-2.2 8.3 8.3 0 0 1-2.1-6c0-2.8.7-4.8 2.2-6.3s3.4-2.2 5.9-2.2c2.4 0 4.3.8 5.8 2.3a8.3 8.3 0 0 1 2.3 6.1c0 2.6-.8 4.6-2.2 6.1a7.8 7.8 0 0 1-6 2.2zm0 31.6c-3.2 0-5.6-.8-7.2-2.4-1.7-1.6-2.5-3.8-2.5-6.7 0-3 .9-5.3 2.6-7 1.7-1.7 4-2.6 7-2.6s5.3.9 7 2.6c1.8 1.8 2.7 4 2.7 7 0 2.9-.8 5-2.4 6.6-1.7 1.7-4 2.5-7.2 2.5zM47.3 30.6c.8 0 1.4.6 1.4 1.4v63a2 2 0 0 1-2 2h-4.6a2 2 0 0 1-1.9-2V43.8a2 2 0 0 0-2.6-1.8l-5.5 2a2 2 0 0 1-2.6-1.8v-3.6a2 2 0 0 1 1.2-1.8l16.3-6h.1l.2-.1m0-3a4.1 4.1 0 0 0-1.3.2L29.7 34a5 5 0 0 0-3.2 4.6v3.6a5 5 0 0 0 6.6 4.7l4.1-1.5V95a5 5 0 0 0 5 4.9h4.5a5 5 0 0 0 5-5V32c0-2.4-2-4.4-4.4-4.4z" fill="#424242" opacity=".2"/><path d="M97 48.1a16.4 16.4 0 0 1-9.7 14.8 19 19 0 0 1 8.2 6.6c2 2.8 3 6 3 9.6 0 5.8-2 10.3-5.8 13.7-3.9 3.4-9 5.1-15.3 5.1-6.3 0-11.4-1.7-15.2-5s-5.8-8-5.8-13.7a18 18 0 0 1 11-16.3c-2.9-1.4-5.2-3.4-7-6S58 51.4 58 48c0-5.6 1.8-10 5.4-13.3s8.2-4.7 14-4.7c5.9 0 10.6 1.7 14.1 5A17 17 0 0 1 97 48zM90 79c0-3.7-1.2-6.7-3.5-9-2.4-2.4-5.4-3.6-9.2-3.6s-6.9 1.2-9.1 3.5-3.5 5.3-3.5 9 1.1 6.8 3.4 9 5.3 3.1 9.3 3.1c4 0 7-1 9.2-3.2 2.3-2.2 3.4-5.1 3.4-8.8zM77.5 36.8c-3.3 0-6 1-8 3.1a11 11 0 0 0-3.1 8.3c0 3.4 1 6.1 3 8.2s4.7 3.1 8 3.1 6.1-1 8.1-3.1c2-2 3-4.8 3-8.2s-1-6-3-8.2-4.8-3.2-8-3.2zM47 30.6l-16.3 6.1a2 2 0 0 0-1.2 1.8v3.6a2 2 0 0 0 2.6 1.8l5.5-2a2 2 0 0 1 2.6 1.8v51.4c0 1 .9 1.9 2 1.9h4.6c1 0 1.9-.9 1.9-2V32a1.4 1.4 0 0 0-1.7-1.4z" fill="#FAFAFA"/><path d="M64 17a47 47 0 1 1-.1 94.1A47 47 0 0 1 64 17m0-3a50 50 0 1 0 0 100 50 50 0 0 0 0-100z" fill="#424242" opacity=".2"/><linearGradient id="b" x1="64" x2="64" y1="4" y2="124.1" gradientUnits="userSpaceOnUse"><stop stop-color="#FF5252" offset="0"/><stop stop-color="#F33B3B" offset=".3"/><stop stop-color="#D50000" offset="1"/></linearGradient><path d="M64 4a60 60 0 1 0 0 120A60 60 0 0 0 64 4zm50 60c0 12-4.2 23-11.3 31.6L32.4 25.3A50 50 0 0 1 114 64zM14 64c0-12 4.2-23 11.3-31.6l70.3 70.3A50 50 0 0 1 14 64z" fill="url(#b)"/><path d="M64 7a57 57 0 1 1-.1 114.1A57 57 0 0 1 64 7m0-3a60 60 0 1 0 0 120A60 60 0 0 0 64 4z" fill="#424242" opacity=".2"/></svg>