<svg viewBox="0 0 128 128" xmlns="http://www.w3.org/2000/svg"><linearGradient id="a" x1="64" x2="64" y1="122" y2="6.7" gradientTransform="matrix(-1 0 0 1 128 0)" gradientUnits="userSpaceOnUse"><stop stop-color="#E67716" offset="0"/><stop stop-color="#ED9500" offset="1"/></linearGradient><path d="M6.3 121.6L26 116c.3 0 .5-.2.6-.3l48.8-48.8a32 32 0 0 0 38.4-5.6A32.4 32.4 0 0 0 69.2 14a32.6 32.6 0 0 0-6.7 40.4l-5.3 5.2L41 64.8c-.5.2-1 .8-1 1.4V76c0 .6-.4 1.2-1 1.4l-12.1 2.1c-.7.1-1.2.7-1.2 1.4v9.3c0 .6-.6 1.2-1.2 1.3l-12.7 2.6c-.5.1-1 .5-1 1L4.4 120c-.3 1 .7 2 1.8 1.7zM88 23.8a12.3 12.3 0 1 1 17.4 17.4A12.3 12.3 0 0 1 88 23.8z" fill="url(#a)"/><path d="M91 8.7a29.5 29.5 0 0 1 20.7 50.4 29.3 29.3 0 0 1-34.9 5.1 3 3 0 0 0-3.5.5l-48.5 48.5L8.1 118l5.2-21.1L25 94.5c2-.4 3.5-2.2 3.5-4.3v-8l10.8-1.9A4.4 4.4 0 0 0 43 76v-8.7l15.2-5c.4-.1.8-.4 1.1-.7l5.3-5.1a3 3 0 0 0 .5-3.7 29.8 29.8 0 0 1 6.1-36.6A29.5 29.5 0 0 1 91 8.7m5.8 39c4.1 0 8-1.5 10.9-4.4a15.3 15.3 0 1 0-10.9 4.5M91 5.7a32.5 32.5 0 0 0-28.4 48.6l-5.2 5.2L41 64.8c-.5.2-1 .8-1 1.4V76c0 .6-.4 1.2-1 1.4l-12.1 2.1c-.7.1-1.2.7-1.2 1.4v9.3c0 .6-.6 1.2-1.2 1.3l-12.7 2.6c-.5.1-1 .5-1 1L4.4 120a1.4 1.4 0 0 0 1.8 1.7L26 116c.3 0 .5-.2.6-.4l48.8-48.7a32.3 32.3 0 0 0 38.5-5.6 32.4 32.4 0 0 0-23-55.5zm5.8 39a12.3 12.3 0 0 1-8.7-21 12.3 12.3 0 0 1 17.4 0 12.3 12.3 0 0 1-8.7 21z" fill="#424242" opacity=".2"/></svg>