<svg viewBox="0 0 128 128" xmlns="http://www.w3.org/2000/svg"><radialGradient id="a" cx="64" cy="64" r="60" gradientUnits="userSpaceOnUse"><stop stop-color="#039BE5" offset="0"/><stop stop-color="#079EE7" offset=".3"/><stop stop-color="#13A6EC" offset=".7"/><stop stop-color="#27B5F5" offset="1"/><stop stop-color="#29B6F6" offset="1"/></radialGradient><circle cx="64" cy="64" r="60" fill="url(#a)"/><path d="M64 7a57 57 0 1 1-.1 114.1A57 57 0 0 1 64 7m0-3a60 60 0 1 0 0 120A60 60 0 0 0 64 4z" fill="#424242" opacity=".2"/><path d="M64 20a44 44 0 1 1 0 87.9A44 44 0 0 1 64 20m0-3z" fill="#424242" opacity=".2"/><radialGradient id="b" cx="63.7" cy="24" r="82.5" gradientTransform="matrix(0 1 -.7673 0 82 -39.7)" gradientUnits="userSpaceOnUse"><stop stop-color="#B3E5FC" offset="0"/><stop stop-color="#4FC3F7" offset="1"/></radialGradient><path d="M98.3 36.4a45 45 0 0 0-6.7-6.7 44 44 0 1 0 6.7 6.7z" fill="url(#b)"/><path d="M64 23a41 41 0 1 1 0 82 41 41 0 0 1 0-82m0-3a44 44 0 1 0 0 88 44 44 0 0 0 0-88z" fill="#eee" opacity=".2"/></svg>