<svg viewBox="0 0 128 128" xmlns="http://www.w3.org/2000/svg"><linearGradient id="a" x1="64" x2="64" y1="4.3" y2="124.4" gradientUnits="userSpaceOnUse"><stop stop-color="#40C4FF" offset="0"/><stop stop-color="#2DB5F9" offset=".4"/><stop stop-color="#0091EA" offset="1"/></linearGradient><path d="M116 124H12a8 8 0 0 1-8-8V12a8 8 0 0 1 8-8h104a8 8 0 0 1 8 8v104a8 8 0 0 1-8 8z" fill="url(#a)"/><path d="M116 7a5 5 0 0 1 5 5v104a5 5 0 0 1-5 5H12a5 5 0 0 1-5-5V12a5 5 0 0 1 5-5h104m0-3H12a8 8 0 0 0-8 8v104a8 8 0 0 0 8 8h104a8 8 0 0 0 8-8V12a8 8 0 0 0-8-8z" fill="#424242" opacity=".2"/><path d="M64 16a4 4 0 0 1 3 1.4l24 24a4 4 0 0 1-3 6.6H74a2 2 0 0 0-2 2v22a4 4 0 0 1-4 4h-8a4 4 0 0 1-4-4V50a2 2 0 0 0-2-2H40a4 4 0 0 1-3-6.6l24-24a4 4 0 0 1 3-1.4m0-3a7 7 0 0 0-5.2 2.3l-24 24c-1.9 2.2-2.3 5-1.2 7.6s3.6 4 6.4 4h13v21a7 7 0 0 0 7 7h8a7 7 0 0 0 7-7V51h13a7 7 0 0 0 6.4-4.1 7 7 0 0 0-1.2-7.5v-.1l-24-24A7 7 0 0 0 64 13zM44.6 84.4c.6 0 1 .4 1 1v1.8c0 .5-.4 1-1 1h-6.5a1 1 0 0 0-1 1v21.4c0 .6-.4 1-1 1h-2.7a1 1 0 0 1-1-1V89.2c0-.6-.4-1-1-1H25a1 1 0 0 1-1-1v-1.8c0-.6.4-1 1-1h19.6m0-3H25a4 4 0 0 0-4 4v1.8a4 4 0 0 0 4 4h4.4v19.4a4 4 0 0 0 4 4h2.7a4 4 0 0 0 4-4V91.2h4.5a4 4 0 0 0 4-4v-1.8a4 4 0 0 0-4-4zM64.3 84a10.5 10.5 0 0 1 9.9 6.2c1 2 1.4 4.3 1.4 7v1.5c0 2.7-.4 5-1.4 7a10.4 10.4 0 0 1-9.9 6.3 10.6 10.6 0 0 1-9.9-6.2c-1-2-1.4-4.3-1.4-7v-1.5c0-2.6.5-5 1.4-7 1-2 2.3-3.6 4-4.7s3.7-1.6 6-1.6m0 24.1c2 0 3.7-.8 4.8-2.4s1.7-4 1.7-7v-1.4c0-3-.6-5.4-1.7-7a5.6 5.6 0 0 0-4.9-2.4c-2 0-3.6.8-4.8 2.4a11.7 11.7 0 0 0-1.8 6.8v1.6c0 3 .6 5.3 1.8 7s2.8 2.4 4.9 2.4m0-27.1c-2.9 0-5.4.7-7.6 2-2.2 1.5-4 3.5-5.1 6a19.6 19.6 0 0 0-1.7 8.3V99c0 3 .6 5.8 1.7 8.1a13.6 13.6 0 0 0 12.7 8c2.8 0 5.3-.7 7.5-2a14 14 0 0 0 5-6c1.2-2.4 1.7-5.2 1.7-8.3v-1.5c0-3.1-.6-5.9-1.7-8.3a13.4 13.4 0 0 0-12.6-8zm0 24.1c-1.2 0-1.9-.3-2.5-1.2a9.1 9.1 0 0 1-1.1-5.2v-1.6c0-2.2.4-4 1.2-5 .5-.8 1.2-1.2 2.3-1.2 1.2 0 1.9.4 2.4 1.2.8 1 1.2 2.9 1.2 5.2v1.4c0 2.4-.4 4.2-1.1 5.3-.6.8-1.3 1.1-2.4 1.1zM94 84.4c3.1 0 5.5.8 7.3 2.3s2.7 3.7 2.7 6.3c0 2.7-.9 4.8-2.6 6.3s-4.2 2.2-7.4 2.2h-4.6a1 1 0 0 0-1 1v8.1c0 .6-.5 1-1 1h-2.7a1 1 0 0 1-1-1V85.4c0-.6.4-1 1-1H94m-4.7 13.3H94c1.6 0 3-.4 3.8-1.2s1.3-2 1.3-3.4c0-1.5-.4-2.7-1.3-3.6s-2.1-1.3-3.7-1.3h-4.8a1 1 0 0 0-1 1v7.5c0 .5.4 1 1 1M94 81.4h-9.5a4 4 0 0 0-4 4v25.2a4 4 0 0 0 4 4h2.8a4 4 0 0 0 4-4v-6H94c3.9 0 7-1 9.3-3 2.4-2 3.7-5 3.7-8.6a11 11 0 0 0-3.7-8.5 14 14 0 0 0-9.2-3.1zm-2.7 9.8h2.8c1.1 0 1.5.4 1.6.5.1.1.5.4.5 1.4 0 .6-.2 1-.4 1.2-.3.2-1 .4-1.8.4h-2.7v-3.5z" fill="#424242" opacity=".2"/><path d="M91 41.4l-24-24a4 4 0 0 0-6 0l-24 24a4 4 0 0 0 3 6.6h14a2 2 0 0 1 2 2v22a4 4 0 0 0 4 4h8a4 4 0 0 0 4-4V50c0-1.1.9-2 2-2h14a4 4 0 0 0 3-6.6zM44.6 88.2h-6.5a1 1 0 0 0-1 1v21.4c0 .6-.4 1-1 1h-2.7a1 1 0 0 1-1-1V89.2c0-.6-.4-1-1-1H25a1 1 0 0 1-1-1v-1.8c0-.6.4-1 1-1h19.6c.6 0 1 .4 1 1v1.8c0 .5-.4 1-1 1zm31 10.5c0 2.7-.4 5-1.4 7a10.4 10.4 0 0 1-9.8 6.3 10.6 10.6 0 0 1-10-6.2c-.9-2-1.4-4.3-1.4-7v-1.5c0-2.6.5-5 1.4-7 1-2 2.3-3.6 4-4.7s3.7-1.6 6-1.6a10.5 10.5 0 0 1 9.9 6.2c.8 2 1.3 4.3 1.3 7v1.5zM71 97.3c0-3-.6-5.4-1.7-7a5.6 5.6 0 0 0-4.9-2.4c-2 0-3.6.8-4.8 2.4a11.7 11.7 0 0 0-1.8 6.8v1.6c0 3 .6 5.3 1.8 7s2.8 2.4 4.9 2.4c2 0 3.7-.8 4.8-2.4s1.7-4 1.7-7v-1.4zm17.4 5.2v8.1c0 .6-.5 1-1 1h-2.8a1 1 0 0 1-1-1V85.4c0-.6.5-1 1-1h9.5c3 0 5.4.8 7.2 2.3s2.7 3.7 2.7 6.3c0 2.7-.9 4.8-2.6 6.3s-4.2 2.2-7.4 2.2h-4.6a1 1 0 0 0-1 1zm0-5.8c0 .5.4 1 1 1H94c1.6 0 3-.4 3.8-1.2s1.3-2 1.3-3.4c0-1.5-.4-2.7-1.3-3.6s-2.1-1.3-3.7-1.3h-4.8a1 1 0 0 0-1 1v7.5z" fill="#FAFAFA"/></svg>