<svg viewBox="0 0 128 128" xmlns="http://www.w3.org/2000/svg"><radialGradient id="a" cx="43.1" cy="10.6" r="24.9" gradientTransform="rotate(45 69.3 99) scale(.946 1.3604)" gradientUnits="userSpaceOnUse"><stop stop-color="#E1F5FE" offset="0"/><stop stop-color="#81D4FA" offset="1"/></radialGradient><path d="M119.5 46c-4.2 4.2-19.1-3.8-26.5-11.2s-15.2-22-11-26.3 19 3.5 26.4 10.9 15.4 22.3 11.1 26.6z" fill="url(#a)"/><radialGradient id="b" cx="41.8" cy="52.8" r="70.5" gradientTransform="matrix(-.00558 1 -.8204 -.00458 85.4 11.2)" gradientUnits="userSpaceOnUse"><stop stop-color="#FFAB40" offset="0"/><stop stop-color="#FF9100" offset=".5"/><stop stop-color="#FF6D00" offset="1"/></radialGradient><path d="M74 36.8L5.8 105.2c-3.1 3.1-1.8 9.5 2.9 14.2s11 6 14.2 2.9l68.4-68.4L74 37z" fill="url(#b)"/><radialGradient id="c" cx="75.2" cy="14.8" r="45.5" gradientUnits="userSpaceOnUse"><stop stop-color="#FFAB40" offset="0"/><stop stop-color="#FF9100" offset=".6"/><stop stop-color="#FF6D00" offset="1"/></radialGradient><path fill="url(#c)" d="M77.8 10.3L72.1 16l-8.6 31.2 17 17L112 56l5.7-5.7z"/><path d="M85.7 9.3c5 0 15.2 5.5 21.3 11.5 3.5 3.5 7.2 9 9.5 13.9 2.5 5.4 2.6 8.8 1.6 9.8-.5.5-1.4.6-2 .6-5.2 0-15.6-5.6-21.7-11.7A50.2 50.2 0 0 1 85 19.6c-2.6-5.7-2.5-8.8-1.5-9.7.5-.5 1.4-.6 2.2-.6m0-2c-1.6 0-2.8.4-3.6 1.2-4.3 4.2 3.5 18.9 10.9 26.3 6 6 16.8 12.4 23 12.4 1.5 0 2.7-.4 3.5-1.2 4.3-4.3-3.7-19.2-11.1-26.6-6-6-16.6-12.1-22.8-12.1z" fill="#424242" opacity=".2"/><path d="M77.8 14.5l35.7 35.7-3 3-30.3 8a3 3 0 0 0-1.4.8l-58.1 58.2c-.6.5-1.4.8-2.5.8-2.3 0-5.2-1.4-7.5-3.7-1.8-1.8-3.1-4-3.5-6.2-.2-1-.4-2.7.7-3.8l57.8-57.8a3 3 0 0 0 .9-2.2v-.2l8.2-29.5 3-3m0-4.3L72.1 16l-8.7 31.2.2.1-57.9 57.9c-3.1 3.1-1.8 9.5 2.9 14.2 3 3 6.6 4.6 9.6 4.6 1.8 0 3.4-.6 4.6-1.7L81 64.2l31.1-8.3 5.7-5.7-39.9-40z" fill="#424242" opacity=".2"/><radialGradient id="d" cx="-1.7" cy="85.3" r="28.8" gradientTransform="translate(19.7 7.6) scale(1.007)" gradientUnits="userSpaceOnUse"><stop stop-color="#616161" offset="0"/><stop stop-color="#212121" offset="1"/></radialGradient><path d="M23 122.4L5.5 105c-.7-.8-.7-2 0-2.7l9.3-9.2c.7-.7 1.9-.7 2.6 0l17.3 17.3c.7.7.7 1.9 0 2.6l-9.3 9.3c-.7.7-1.9.7-2.6 0z" fill="url(#d)"/><radialGradient id="e" cx="106.7" cy="-12.3" r="54.2" gradientTransform="translate(-18.4 15) scale(1.007)" gradientUnits="userSpaceOnUse"><stop stop-color="#616161" offset="0"/><stop stop-color="#212121" offset="1"/></radialGradient><path d="M112 55.9l-39.9-40a2 2 0 0 1 0-2.8l8.6-8.5a2 2 0 0 1 2.8 0l39.9 39.9c.8.8.8 2 0 2.8l-8.5 8.6a2 2 0 0 1-2.9 0z" fill="url(#e)"/><path fill="#757575" opacity=".2" d="M85.5 6.8L87 8.2 75.6 19.5 74.2 18zm4.9 4.9l1.4 1.4-11.3 11.3-1.4-1.4zm5 5L97 18 85.5 29.4 84.1 28zm5 4.8l1.4 1.5-11.3 11.3-1.4-1.4zm4.9 5.1l1.5 1.4-11.4 11.3-1.4-1.4zm4.9 4.9l1.4 1.4-11.3 11.3-1.4-1.4zm5 5l1.5 1.4-11.4 11.3-1.4-1.4zm4.9 4.9l1.4 1.4-11.3 11.3-1.4-1.4z"/><path d="M16.2 96.1l15.7 15.7-7.7 7.7-15.7-15.7 7.7-7.7m0-3.4c-.5 0-1 .1-1.3.5l-9.3 9.3c-.7.7-.7 1.9 0 2.6L23 122.4a1.9 1.9 0 0 0 2.6 0l9.3-9.3c.7-.7.7-1.9 0-2.6L17.5 93.2c-.4-.4-.8-.5-1.3-.5z" fill="#424242" opacity=".2"/><path d="M52.1 71.9c1 0 2 .3 2.9 1.1a4 4 0 0 1 0 5.7l-5.7 5.7a4 4 0 0 1-5.7-5.7l5.7-5.7a4 4 0 0 1 2.7-1m0-2a6 6 0 0 0-4.2 1.7l-5.7 5.7a6 6 0 0 0 8.5 8.5l5.7-5.7A6 6 0 0 0 52 70z" fill="#F57C00" opacity=".2"/><path d="M82 7.4L120.7 46l-7.2 7.2L75 14.6l7.2-7.2M82 4a2 2 0 0 0-1.4.6L72 13a2 2 0 0 0 0 2.9l40 39.9a2 2 0 0 0 2.8 0l8.5-8.6c.8-.7.8-2 0-2.8l-39.9-40a2 2 0 0 0-1.4-.5z" fill="#424242" opacity=".2"/><radialGradient id="f" cx="32.1" cy="66.5" r="14.2" gradientTransform="translate(16.7 6.7)" gradientUnits="userSpaceOnUse"><stop stop-color="#616161" offset="0"/><stop stop-color="#212121" offset="1"/></radialGradient><path d="M46.4 86.1c-1.2 0-2.3-.5-3.2-1.3a4.5 4.5 0 0 1 0-6.4l5.7-5.7c.9-.9 2-1.3 3.2-1.3a4.5 4.5 0 0 1 3.2 7.7l-5.7 5.7c-.8.8-2 1.3-3.2 1.3z" fill="url(#f)"/><path d="M52.1 71.9c1 0 2 .3 2.9 1.1a4 4 0 0 1 0 5.7l-5.7 5.7a4 4 0 0 1-5.7-5.7l5.7-5.7a4 4 0 0 1 2.7-1m0-1a5 5 0 0 0-3.5 1.4L42.9 78a5 5 0 0 0 7 7.1l5.8-5.7A5 5 0 0 0 52 71z" fill="#424242"/></svg>