<svg viewBox="0 0 128 128" xmlns="http://www.w3.org/2000/svg"><linearGradient id="a" x1="64" x2="64" y1="4.833" y2="131.11" gradientUnits="userSpaceOnUse"><stop stop-color="#42A5F5" offset="0"/><stop stop-color="#1976D2" offset="1"/></linearGradient><path d="M58.34 121.65l-52-52c-3.12-3.12-3.12-8.19 0-11.31l52-52c3.12-3.12 8.19-3.12 11.31 0l52 52c3.12 3.12 3.12 8.19 0 11.31l-52 52c-3.12 3.13-8.18 3.13-11.31 0z" fill="url(#a)"/><path d="M64 7c1.34 0 2.59.52 3.54 1.46l52 52c.94.94 1.46 2.2 1.46 3.54s-.52 2.59-1.46 3.54l-52 52c-.94.94-2.2 1.46-3.54 1.46s-2.59-.52-3.54-1.46l-52-52C7.52 66.59 7 65.34 7 64s.52-2.59 1.46-3.54l52-52C61.41 7.52 62.66 7 64 7m0-3c-2.05 0-4.09.78-5.66 2.34l-52 52c-3.12 3.12-3.12 8.19 0 11.31l52 52c1.56 1.56 3.61 2.34 5.66 2.34s4.09-.78 5.66-2.34l52-52c3.12-3.12 3.12-8.19 0-11.31l-52-52A7.997 7.997 0 0 0 64 4z" fill="#424242" opacity=".2"/></svg>