<svg viewBox="0 0 128 128" xmlns="http://www.w3.org/2000/svg"><linearGradient id="a" x1="64" x2="64" y1="35.833" y2="92.972" gradientUnits="userSpaceOnUse"><stop stop-color="#EF5350" offset="0"/><stop stop-color="#E0403E" offset=".578"/><stop stop-color="#D32F2F" offset="1"/></linearGradient><path d="M60.66 38.06l-28 48.53C31.42 89.08 33.22 92 36 92h56c2.78 0 4.58-2.92 3.34-5.4l-28-48.53c-1.37-2.76-5.3-2.76-6.68-.01z" fill="url(#a)"/><path d="M64 39c.21 0 .49.07.66.41l.08.16L92.68 88c.12.28.04.51-.06.66-.09.15-.28.34-.62.34H36c-.34 0-.53-.19-.62-.35a.724.724 0 0 1-.06-.66l27.94-48.43.08-.16c.17-.33.46-.4.66-.4m0-3c-1.33 0-2.65.69-3.34 2.06l-28 48.53C31.42 89.08 33.22 92 36 92h56c2.78 0 4.58-2.92 3.34-5.4l-28-48.53A3.688 3.688 0 0 0 64 36z" fill="#424242" opacity=".2"/></svg>