<svg viewBox="0 0 128 128" xmlns="http://www.w3.org/2000/svg"><radialGradient id="a" cx="7.6" cy="18.6" r="116.6" gradientTransform="matrix(0 1 -.893 0 24.2 11)" gradientUnits="userSpaceOnUse"><stop stop-color="#616161" offset="0"/><stop stop-color="#414141" offset=".5"/><stop stop-color="#212121" offset="1"/></radialGradient><path d="M64 4L5.5 19.6a2 2 0 0 0-1.5 2v84.9a2 2 0 0 0 1.5 1.9L64 124V4z" fill="url(#a)"/><path d="M64 4l58.5 15.6a2 2 0 0 1 1.5 2v84.9a2 2 0 0 1-1.5 1.9L64 124V4z" fill="#212121"/><radialGradient id="b" cx="5" cy="38.3" r="62.8" gradientUnits="userSpaceOnUse"><stop stop-color="#FFCA28" offset="0"/><stop stop-color="#FFC51F" offset=".3"/><stop stop-color="#FFB808" offset=".8"/><stop stop-color="#FFB300" offset="1"/></radialGradient><path d="M20 65.2a4 4 0 0 0-2.6-3.8c.4-.3.6-.8.6-1.4a2 2 0 0 0-2-2 2 2 0 0 0-1.4 3.5 4 4 0 0 0-.5 7.2 2 2 0 0 0 3.8 0 4 4 0 0 0 2.1-3.5zm32 0a4 4 0 0 0-2.6-3.8c.4-.3.6-.8.6-1.4a2 2 0 0 0-2-2 2 2 0 0 0-1.4 3.5 4 4 0 0 0-.5 7.2 2 2 0 0 0 3.8 0 4 4 0 0 0 2.1-3.5z" fill="url(#b)"/><radialGradient id="c" cx="64.8" cy="28.8" r="67.1" gradientUnits="userSpaceOnUse"><stop stop-color="#FFB300" offset="0"/><stop stop-color="#fa0" offset=".4"/><stop stop-color="#FF9300" offset=".9"/><stop stop-color="#FF8F00" offset="1"/></radialGradient><path d="M84 65.2a4 4 0 0 0-2.6-3.8c.4-.3.6-.8.6-1.4a2 2 0 0 0-2-2 2 2 0 0 0-1.4 3.5 4 4 0 0 0-.5 7.2 2 2 0 0 0 3.8 0 4 4 0 0 0 2.1-3.5zm32 0a4 4 0 0 0-2.6-3.8 2 2 0 1 0-2.8 0 4 4 0 0 0-.5 7.3c.3.8 1 1.3 1.9 1.3s1.6-.5 1.9-1.3a4 4 0 0 0 2.1-3.5z" fill="url(#c)"/><path fill="url(#b)" d="M4 40l60-8v12L4 48z"/><path fill="url(#c)" d="M124 40l-60-8v12l60 4z"/><path d="M26 60h12a2 2 0 0 1 2 2v4a2 2 0 0 1-2 2H26a2 2 0 0 1-2-2v-4c0-1.1.9-2 2-2zm32 0h6v8h-6a2 2 0 0 1-2-2v-4c0-1.1.9-2 2-2z" fill="url(#b)"/><path d="M64 60h6a2 2 0 0 1 2 2v4a2 2 0 0 1-2 2h-6v-8zm26 0h12a2 2 0 0 1 2 2v4a2 2 0 0 1-2 2H90a2 2 0 0 1-2-2v-4c0-1.1.9-2 2-2z" fill="url(#c)"/><path d="M64 7.1l57 15.2v83.4l-57 15.2-57-15.2V22.3L64 7.1M64 4L5.5 19.6a2 2 0 0 0-1.5 2v84.9a2 2 0 0 0 1.5 1.9L64 124l58.5-15.6a2 2 0 0 0 1.5-2V21.6a2 2 0 0 0-1.5-1.9L64 4z" fill="#eee" opacity=".2"/></svg>