<svg viewBox="0 0 128 128" xmlns="http://www.w3.org/2000/svg"><linearGradient id="a" x1="64" x2="64" y1="4.3" y2="124.4" gradientUnits="userSpaceOnUse"><stop stop-color="#B388FF" offset="0"/><stop stop-color="#A175FF" offset=".4"/><stop stop-color="#7C4DFF" offset="1"/></linearGradient><path d="M116 124H12a8 8 0 0 1-8-8V12a8 8 0 0 1 8-8h104a8 8 0 0 1 8 8v104a8 8 0 0 1-8 8z" fill="url(#a)"/><path d="M116 7a5 5 0 0 1 5 5v104a5 5 0 0 1-5 5H12a5 5 0 0 1-5-5V12a5 5 0 0 1 5-5h104m0-3H12a8 8 0 0 0-8 8v104a8 8 0 0 0 8 8h104a8 8 0 0 0 8-8V12a8 8 0 0 0-8-8z" fill="#424242" opacity=".2"/><g opacity=".2" fill="#424242"><path d="M46.2 34.1c27 0 17.1 23 5.7 30.4-5.6 3.6 3 7.3 7.8 7.3h.8c19.4-2 11.9-22.3 30.4-24.6.8-.2 1.6-.2 2.4-.2 6.5 0 11.4 3.5 14.5 8 7.2 10.3 3.4 28.2 1.3 34.3-3.4 9.6-8.6 12.7-16.2 12.7-7.8 0-14-6.2-16.4-14 0-.2.1-.4.4-.4l.2.1c1.8 2 5.1 6 12.5 6 2.2 0 4.9-.4 8-1.4 6.9-2 9.8-11.7 10.2-18.7.7-12-3-20-8-21.5-.8-.3-1.6-.4-2.5-.4-6.5 0-12.9 6.9-15.5 12.7-4 8.7-16.7 7.6-19 10-2.6 2.4 5.8 14 2 23.7A22.5 22.5 0 0 1 43.5 112c-9.2 0-23.8-4-27.5-25 0-.3.2-.5.5-.5.1 0 .3 0 .4.3 2.8 5 10.5 15.1 25.1 15.1 12.8 0 24.5-14.8 15-25-3.5-4-12.4-.2-16.2-6-1.3-2-4.9-7.3-3-7.4C62.3 62.2 62.7 42 48.7 42h-1.5a49.4 49.4 0 0 0-17 7.3.5.5 0 0 1-.3-.2l-4.3-7c-.2-.2-.1-.4.1-.6A35.6 35.6 0 0 1 46 34.1h.2m0-3H46c-10 0-18.2 5.1-22.2 8.1a3.5 3.5 0 0 0-.9 4.6l4.3 7c.6 1 1.8 1.6 3 1.6a4 4 0 0 0 1.8-.5A46 46 0 0 1 48.6 45c3.8 0 6.2 1.9 6.3 4.8.1 3.9-4.4 9.9-17.2 10.5-1.3.1-2.4.8-3 2-1.1 2.2.1 4.8 3.4 9.8l.2.4c2.9 4.4 7.8 4.8 11.5 5 2 .2 4.3.4 5 1.2 3.6 4 3 8 1.7 10.7A16.5 16.5 0 0 1 42 98.9a25.6 25.6 0 0 1-22.5-13.6 3.5 3.5 0 0 0-6.4 2.3c4.3 24.7 22.7 27.4 30.4 27.4 10.9 0 20.3-6.2 24-15.8 2.8-6.8.5-13.8-1.1-19a24 24 0 0 1-1-3.8c.7-.3 2-.5 3-.7 5-1.1 12.8-2.8 16.1-10 2.4-5.3 8-11 12.8-11 .6 0 1.2.1 1.7.3 3.3 1 6.5 7.8 5.8 18.4-.4 6.7-3.1 14.6-8.1 16-2.6.9-5 1.3-7.1 1.3-5.8 0-8.4-3-10.1-4.8l-.1-.2a3.3 3.3 0 0 0-5.2.3 3 3 0 0 0-.5 3c3 9.6 10.7 16 19.2 16 9.5 0 15.5-4.7 19-14.7.1-.3 8-23.3-1.6-37a20.4 20.4 0 0 0-19.8-9.1c-10.7 1.3-14 8-17 13.8-2.9 5.6-5.1 10-13.3 10.8h-.5a12.8 12.8 0 0 1-6.1-1.8c8-5.3 15-16.8 12.4-25.5-1.4-4.7-6-10.4-19.8-10.4z"/><path d="M100 26.4a2 2 0 0 1 1.8 1c.6.6 1.3 1.4 2.2 2 1.2 1 1.2 3-.2 3.7A40 40 0 0 1 83.6 40h-.1c-12 0-20.2-5.5-22.6-9.5-1-1.8-1.1-2.4-.6-2.4 1.8 0 10 6 19.1 6h2c10.2-1 14.6-4.5 17-7 .5-.5 1-.7 1.6-.7m0-3c-1.4 0-2.7.6-3.7 1.6-2.3 2.3-6.1 5.1-15.2 6l-1.7.1c-5.7 0-11.2-2.7-14.5-4.4-2.2-1-3.3-1.6-4.6-1.6-1.2 0-2.3.6-2.9 1.6-1 2 .1 4 1 5.3 3.1 5.4 12.8 11 25 11h.2c8.4 0 16.5-4 21.8-7.3a5.2 5.2 0 0 0 2.5-4.2c0-1.7-.7-3.3-2.1-4.4l-1.6-1.6a5.2 5.2 0 0 0-4.2-2z"/><path d="M82.4 16c.5 0 1 .2 1.4.6l4.2 4.2c.8.7.8 2 0 2.8l-4.2 4.2a2 2 0 0 1-2.8 0l-4-4.2a2 2 0 0 1 0-2.8l4.1-4.2a2 2 0 0 1 1.4-.6m0-3a5 5 0 0 0-3.5 1.5l-4.2 4.1c-1 1-1.4 2.2-1.4 3.6s.5 2.6 1.4 3.5L79 30a5 5 0 0 0 7 0l4.2-4.2c1-1 1.5-2.2 1.5-3.5s-.5-2.6-1.5-3.6L86 14.5a5 5 0 0 0-3.6-1.5z"/></g><path d="M107.8 55c-3.4-5-9.2-8.8-16.9-7.8-18.5 2.3-11 22.6-30.4 24.6-4.6.5-14.5-3.4-8.6-7.3 11.4-7.4 21.4-30.5-6-30.3-9 0-16.6 4.6-20.3 7.4-.2.2-.3.5-.1.7l4.3 6.9.4.2h.2A49.8 49.8 0 0 1 47 42.2c15.5-1.5 15.9 20-9.2 21.3-2 0 1.7 5.4 3 7.5 3.7 5.7 12.6 2 16.2 5.8 9.4 10.3-2.3 25.1-15 25.1a28.8 28.8 0 0 1-25.2-15.1c-.3-.5-1-.2-.9.3 3.7 21 18.3 25 27.5 25 8.6 0 17.6-4.7 21.3-14 3.8-9.7-4.5-21.3-2-23.7 2.4-2.3 15-1.3 19-10 3-6.6 10.8-14.6 18.1-12.3 5 1.6 8.7 9.5 8 21.5-.5 7-3.4 16.6-10.3 18.8-13 4-18.2-2-20.5-4.7-.2-.3-.7 0-.6.4 2.5 7.7 8.6 14 16.4 14 7.6 0 12.9-3.2 16.2-12.8 2-6 6-24-1.3-34.3z" fill="#FAFAFA"/><g fill="#FAFAFA"><path d="M101.8 27.3c-.8-1-2.4-1.2-3.3-.2-2.5 2.5-6.9 6-17.1 7-13 1.2-24.8-11-20.5-3.6 2.4 4 10.6 9.4 22.6 9.5 7.7 0 15.2-3.7 20.3-6.9 1.4-.8 1.4-2.7.2-3.6-1-.7-1.6-1.5-2.2-2.2z"/><path d="M83.8 16.6l4.2 4.2c.8.7.8 2 0 2.8l-4.2 4.2a2 2 0 0 1-2.8 0l-4.2-4.2a2 2 0 0 1 0-2.8l4.2-4.2a2 2 0 0 1 2.8 0z"/></g></svg>