<svg viewBox="0 0 128 128" xmlns="http://www.w3.org/2000/svg" xmlns:xlink="http://www.w3.org/1999/xlink"><defs><path id="a" d="M4 4h120v120H4z"/></defs><clipPath id="b"><use xlink:href="#a"/></clipPath><g clip-path="url(#b)"><linearGradient id="c" x1="50" x2="50" y1="97.1" y2="135.9" gradientUnits="userSpaceOnUse"><stop stop-color="#606060" offset=".2"/><stop stop-color="#606060" offset=".3"/><stop stop-color="#595959" offset=".4"/><stop stop-color="#464646" offset=".7"/><stop stop-color="#262626" offset="1"/><stop stop-color="#212121" offset="1"/></linearGradient><path d="M-.5 135.9v-15.3c0-16.2 25.4-23.5 50.5-23.5h.1c25 0 50.4 8 50.4 23.5V136H-.5z" fill="url(#c)"/><path d="M50.1 98.5c13 0 25.5 2.2 34.4 6 6.6 2.9 14.5 8 14.5 16.1v13.8H1v-13.8c0-15.2 24.6-22 49-22h.1m0-3H50c-25.5 0-52 7.2-52 25v16.8h104v-16.8c0-16.8-26.3-25-51.9-25z" fill="#404042"/></g><path d="M80.6 87c0 2.2-2.3 4.2-6 5.8-5.7 2.3-16.7 32.6-26.7 32.6-6.5 0-10.5-29.5-15.4-30.6-8-1.7-13-4.5-13-7.8 0-5.2 13.6-9.5 30.5-9.5s30.6 4.3 30.6 9.5z" clip-path="url(#b)" fill="#212121"/><g clip-path="url(#b)"><path d="M49.2 109.3c-4 0-7.3-3.2-7.3-7.1v-9h16.2v9c0 4-3.3 7.1-7.3 7.1h-1.6z" fill="#EDC391"/><path d="M57 94.2v8a6 6 0 0 1-6.2 6.1h-1.6a6.2 6.2 0 0 1-6.3-6.1v-8h14.2m2-2H40.9v10c0 4.5 3.7 8.1 8.3 8.1h1.6c4.6 0 8.3-3.6 8.3-8.1v-10z" fill="#D9AC77"/></g><path clip-path="url(#b)" fill="#BDBDBD" d="M39.4 105l3.6 28h14.4l3.2-28z"/><g clip-path="url(#b)"><defs><path id="d" d="M10.5 29.4H88v74.4H10.5z"/></defs><clipPath id="e"><use xlink:href="#d"/></clipPath><g clip-path="url(#e)"><path d="M22.7 72.1c-5.4 0-9.7-4.7-9.7-10.4s4.3-10.4 9.7-10.4h54.6c5.4 0 9.7 4.7 9.7 10.4s-4.3 10.4-9.7 10.4H22.7z" fill="#FFD29C"/><path d="M77.3 52.3c4.8 0 8.7 4.2 8.7 9.4s-3.9 9.4-8.7 9.4H22.7c-4.8 0-8.7-4.2-8.7-9.4s3.9-9.4 8.7-9.4h54.6m0-2H22.7c-6 0-10.7 5.1-10.7 11.4s4.8 11.4 10.7 11.4h54.6c6 0 10.7-5.1 10.7-11.4s-4.8-11.4-10.7-11.4z" fill="#EDBD82"/><linearGradient id="f" x1="50" x2="50" y1="94.4" y2="12.7" gradientUnits="userSpaceOnUse"><stop stop-color="#FFD29C" offset="0"/><stop stop-color="#FFD39E" offset="0"/><stop stop-color="#FCD8AF" offset=".3"/><stop stop-color="#FADCBA" offset=".6"/><stop stop-color="#F9DDBD" offset="1"/></linearGradient><path d="M50 95.1c-15.7 0-32.5-12.1-32.5-38.8a52 52 0 0 1 10-32.1c6-7.8 14.2-12.3 22.5-12.3s16.4 4.5 22.5 12.3a52 52 0 0 1 10 32.1c0 12.1-3.5 22.2-10.1 29.2A30.5 30.5 0 0 1 50 95.1z" fill="url(#f)"/><path d="M50 13c8 0 15.8 4.3 21.7 11.8a51.5 51.5 0 0 1 9.8 31.5c0 11.9-3.4 21.7-9.8 28.5a29.6 29.6 0 0 1-43.3 0 40.5 40.5 0 0 1-10-28.5c0-12.1 3.6-23.3 9.9-31.5A28.1 28.1 0 0 1 50 12.9m0-2c-17.4 0-33.5 18.6-33.5 45.4C16.5 83 33 96.1 50 96.1S83.5 83 83.5 56.3C83.5 29.5 67.4 11 50 11z" fill="#EDBD82"/><radialGradient id="g" cx="33.6" cy="50.1" r="6" gradientUnits="userSpaceOnUse"><stop stop-color="#454140" offset=".1"/><stop stop-color="#454140" offset="1"/></radialGradient><path d="M26 50.6l.4-.5c0-.1 0-.2.2-.3l.4-.3.4-.4.5-.4.5-.3.6-.3c.2-.2.4-.2.7-.3l.7-.3 1.5-.4 1.6-.1 1.7.1 1.5.4a8.6 8.6 0 0 1 1.4.6l.6.3.5.3.5.4c.2 0 .2.2.4.3l.3.3.3.3.4.6c.5.7.4 1.7-.3 2.2-.4.3-1 .4-1.4.2l-.3-.1-.5-.2-.3-.1-.3-.1-.7-.3-.4-.1-.4-.1h-.2l-.3-.1-.4-.1-1-.1h-3l-.6.2h-.4l-.4.2-.4.1-.4.1-.3.1-.3.1-.3.2-.5.2c-.9.4-1.8 0-2.1-.8-.3-.5-.2-1 0-1.5z" fill="url(#g)"/><ellipse cx="34.2" cy="58.7" rx="4.9" ry="5.1" fill="#312D2D"/><path d="M53.9 68l-.4-.2h-7l-.4.1c-.6.3-1 1-.6 1.6s1.7 2.7 4.5 2.7 4.3-2 4.6-2.7c.2-.7-.1-1.3-.7-1.6z" fill="#DBA689"/><path d="M58.5 76a25.6 25.6 0 0 1-16.8 0c-1.8-1-3.7.6-3 2.2.8 1.7 6.5 5.5 11.4 5.5s10.6-3.8 11.3-5.5c.8-1.6-1-3.3-2.9-2.2z" fill="#424242"/><radialGradient id="h" cx="50.3" cy="4.1" r="48.9" gradientUnits="userSpaceOnUse"><stop stop-color="#454140" offset="0"/><stop stop-color="#312D2D" offset="1"/></radialGradient><path d="M50 3.9C4.5 4 13.8 56 13.8 56l5.1 8.8a90 90 0 0 1 4.8-25.5 6 6 0 0 1 6.8-3.8A111 111 0 0 0 50 37.3h.2c7.8 0 14.9-1 19.3-1.8a6 6 0 0 1 6.8 3.8A90 90 0 0 1 81 64.8c0 .2 5.1-8.8 5.1-8.8s9.4-51.9-36-52z" fill="url(#h)"/><path d="M50 3.9C4.5 4 13.8 56 13.8 56l5.1 8.8.3-5-2.5-4.8c-.2-1.6-.9-7-.5-13.6.4-7 2.1-17 8.2-24.2C30.1 10.4 38.7 7 50 7s20 3.5 25.6 10.3c10.8 13 8.2 34.4 7.7 37.8l-2.5 4.7.3 5.1 5-8.8s9.3-52-36-52.1z" fill="#1F1A1A"/></g></g><ellipse cx="65.8" cy="60" rx="6" ry="6.2" clip-path="url(#b)" fill="#312D2D"/><radialGradient id="i" cx="66.8" cy="49.8" r="6.7" gradientUnits="userSpaceOnUse"><stop stop-color="#454140" offset=".1"/><stop stop-color="#454140" offset="1"/></radialGradient><path d="M75.5 50.4c-1.1-1.5-3.7-3.6-8.7-3.6s-7.5 2-8.7 3.6c-.5.6-.3 1.4 0 1.8.3.4 1.3.8 2.3.5s3-1.4 6.4-1.4c3.4 0 5.4 1 6.4 1.4s2 0 2.3-.5c.3-.4.5-1.2 0-1.8z" clip-path="url(#b)" fill="url(#i)"/><g clip-path="url(#b)"><path d="M93.4 137.3s0-4 2-12.4l2.5-10.3a5.7 5.7 0 0 1 7-4.7l10 2.5 4.2 24-25.7.8z" fill="#616161"/><path d="M114.8 112.4h-3.1c0 1 .4 2 .2 3h.4l3.2 18H98.7l-3.8 1-.3 2h24.5l-4.3-24z" fill="#404042"/></g><ellipse cx="106.5" cy="114.4" rx="8.7" ry="8" clip-path="url(#b)" fill="#212121"/><g clip-path="url(#b)"><path d="M6.2 104.5c-.6.6-.7 1.5-.2 2l3.1 3.8c.5.6 1.6 1.5 2.3 1 3.1-2.1 10.6-7.2 16.3-5.4l-3.8-7.7S12.5 97 6.2 104.5z" fill="gray" stroke="#575757" stroke-miterlimit="10" stroke-width="2"/><circle cx="11.3" cy="105.5" r="2.7" fill="#757575" stroke="#9E9E9E" stroke-miterlimit="10"/><g fill="#424242"><circle cx="12.2" cy="105.6" r=".6"/><circle cx="10.4" cy="105.3" r=".6"/></g></g><g clip-path="url(#b)"><path d="M91.9 104.5c.5.6.7 1.5.1 2l-3 3.8c-.6.6-1.7 1.5-2.4 1-3.1-2.1-10.6-7.2-16.2-5.4l3.8-7.7s11.3-1.3 17.7 6.3z" fill="gray" stroke="#575757" stroke-miterlimit="10" stroke-width="2"/><circle cx="86.7" cy="105.5" r="2.7" fill="#757575" stroke="#9E9E9E" stroke-miterlimit="10"/><g fill="#424242"><circle cx="85.8" cy="105.6" r=".6"/><circle cx="87.7" cy="105.3" r=".6"/></g></g><g clip-path="url(#b)"><linearGradient id="j" x1="34.7" x2="34.7" y1="94.8" y2="136.2" gradientUnits="userSpaceOnUse"><stop stop-color="#757575" offset=".1"/><stop stop-color="#707070" offset=".3"/><stop stop-color="#626262" offset=".5"/><stop stop-color="#4B4B4B" offset=".7"/><stop stop-color="#2B2B2B" offset=".9"/><stop stop-color="#212121" offset="1"/></linearGradient><path d="M36.9 136.7L21.3 90a39.2 39.2 0 0 0 20.6 5c.7 0 1.3.7 1.5 1.5l4.7 40.2H36.9z" fill="url(#j)"/><path d="M23 92a38.8 38.8 0 0 0 19 4l.4.6 4.6 39h-9.4L23 92m-3.6-4.3l16.8 50h13l-4.8-41.4c-.3-1.2-1.3-2.2-2.5-2.2h-2.4c-10.8 0-20-6.4-20-6.4z" fill="#575757"/><linearGradient id="k" x1="65.3" x2="65.3" y1="94.8" y2="136.2" gradientUnits="userSpaceOnUse"><stop stop-color="#757575" offset=".1"/><stop stop-color="#707070" offset=".3"/><stop stop-color="#626262" offset=".5"/><stop stop-color="#4B4B4B" offset=".7"/><stop stop-color="#2B2B2B" offset=".9"/><stop stop-color="#212121" offset="1"/></linearGradient><path d="M51.8 136.7l4.8-40.3c.2-.7.8-1.4 1.4-1.4h.1c.9.2 1.8.2 2.7.2 7.4 0 14.4-3.3 18-5.2L63 136.7H51.8z" fill="url(#k)"/><path d="M77 92l-14.6 43.7h-9.5l4.7-39c.1-.4.3-.6.4-.7l2.8.2C67 96.2 73 93.9 77 92m3.6-4.3zm0 0s-9.7 6.5-19.8 6.5l-2.6-.1H58c-1.1 0-2.1 1-2.4 2.2l-5 41.4h13.2l16.8-50z" fill="#575757"/></g><radialGradient id="l" cx="54.4" cy="30.4" r="59.4" gradientTransform="matrix(.9534 0 0 .7823 -1.9 10)" gradientUnits="userSpaceOnUse"><stop stop-color="#757575" offset="0"/><stop stop-color="#686868" offset=".3"/><stop stop-color="#464646" offset=".9"/><stop stop-color="#424242" offset="1"/></radialGradient><path d="M83.5 25.8c-4.5-1-11-2-17-2.5-5.1-.5-10.7.5-16.5.5s-11.4-1-16.5-.6c-6 .6-13.6 2.7-18.1 3.7C7.4 29 4 30.8 4 33.6s4.1 4.1 12 6c4.5 1 8 3.6 16 4.5 5 .6 13.5-1.2 19.3-1.2 5.8 0 13.4 1.8 18.5 1.4 6.1-.6 9.7-3 14.2-4 7.9-1.9 12-3.9 12-6.7s-4.6-5.9-12.5-7.8z" fill="url(#l)"/><radialGradient id="m" cx="47.4" cy="7.5" r="32.2" gradientTransform="matrix(0 .9331 -1.4673 0 60.3 -37.5)" gradientUnits="userSpaceOnUse"><stop stop-color="#757575" offset="0"/><stop stop-color="#686868" offset=".3"/><stop stop-color="#464646" offset=".9"/><stop stop-color="#424242" offset="1"/></radialGradient><path d="M64.6 4.3c-2.9-.7-7.4-.4-10.3 0-7.1 1.3-6.1.6-12.8 0-2.6-.3-6.2-.5-8.8.3-10 3-11.1 11.4-17.4 24.4 0 11.9 70 11.8 69.8 0-6-12.4-10-22-20.5-24.7z" fill="url(#m)"/><path d="M38.8 10a16 16 0 0 0 11 2.8 33 33 0 0 0 10.1-3.2c.6-.3 1.1.3.9.9a15 15 0 0 1-11.4 6.2c-5.6 0-9.3-2.3-11.2-5.7-.3-.4 0-1.5.6-1z" fill="#eee" opacity=".2"/><path d="M82 22.6c-11.5 6.5-52.3 6.6-63.7 0l-3 6.4c0 11.9 70 11.8 69.8 0l-3-6.4z" fill="#404042"/><path d="M83.6 25.9l-1.5-3.3H82c-4.6-9.2-8.9-16.1-17.4-18.3-2.9-.7-7.4-.4-10.3 0-7.1 1.3-6.1.6-12.8 0-2.6-.3-6.2-.5-8.8.3-9.4 2.8-11 10.4-16.4 22.1l-1 .3C7.6 28.8 4 30.8 4 33.6s4.1 4.1 12 6c4.5 1 8 3.6 16 4.5 5 .6 13.5-1.2 19.3-1.2 5.8 0 13.4 1.8 18.5 1.4 6.1-.6 9.7-3 14.2-4 7.9-1.9 12-3.9 12-6.7 0-2.8-4.5-5.8-12.4-7.7z" fill="none" stroke="#575757" stroke-linecap="round" stroke-linejoin="round" stroke-miterlimit="10" stroke-width="3"/><g opacity=".6"><radialGradient id="n" cx="56.5" cy="21.8" r="41.9" gradientTransform="rotate(6.4 -118 74.3)" gradientUnits="userSpaceOnUse"><stop stop-color="#FAFAFA" offset="0"/><stop stop-color="#eee" offset="1"/></radialGradient><path d="M90.3 43.4c7.3 9.2 5.8 22.7-3.4 30s-22.5 6-29.9-3.3-5.8-22.7 3.4-30 22.6-6 29.9 3.3z" fill="url(#n)"/></g><path d="M99.9 85l-3.6-4.4.3-.2c.7-.6.8-1.5.3-2.2l-.5-.5c-.5-.7-1.5-.8-2.1-.3l-.3.2-3.1-3.9a24.6 24.6 0 0 0 1.6-32.4 24.3 24.3 0 0 0-34.2-3.8 24.6 24.6 0 0 0-3.8 34.4c7.7 9.7 21.2 12 31.5 5.7l3.1 4-.6.5c-.7.5-.8 1.5-.3 2.1l.5.6c.5.7 1.5.8 2.1.2l.7-.5L95 89l4.9-4zM58 69c-6.8-8.6-5.4-21.1 3.1-28s21-5.4 27.8 3.2A19.8 19.8 0 0 1 58 69z" fill="none" stroke="#919191" stroke-miterlimit="10" stroke-width="2.9"/><path fill="#C7C7C7" d="M99.9 85l-5 4-10.8-13.7 5-4z"/><radialGradient id="o" cx="72.9" cy="32" r="49" gradientTransform="rotate(-1.3 85 69.4)" gradientUnits="userSpaceOnUse"><stop stop-color="#E0E0E0" offset="0"/><stop stop-color="#DBDBDB" offset=".2"/><stop stop-color="#CDCDCD" offset=".5"/><stop stop-color="#B5B5B5" offset=".8"/><stop stop-color="#9E9E9E" offset="1"/></radialGradient><path d="M92.5 41.3a24.3 24.3 0 0 0-34.2-3.8c-10.5 8.4-12.2 23.8-3.8 34.4s23.7 12.3 34.2 3.8 12.2-23.9 3.8-34.4zM85.8 72c-8.5 6.9-21 5.5-27.8-3-6.8-8.6-5.4-21.1 3.2-28s20.9-5.4 27.7 3.1a20 20 0 0 1-3.1 28z" fill="url(#o)"/><radialGradient id="p" cx="94.8" cy="55.4" r="24.8" gradientTransform="rotate(6.4 -118 74.3)" gradientUnits="userSpaceOnUse"><stop stop-color="#FFA726" offset="0"/><stop stop-color="#FFA623" offset="0"/><stop stop-color="#FF9800" offset=".5"/><stop stop-color="#FB8C00" offset="1"/></radialGradient><path d="M108.6 105.5c-.3 0-.7-.2-.9-.5l-.4-.5a27.3 27.3 0 0 1-16-19c-.2-1-.7-1.9-1.3-2.7l-.3-.3 4.8-3.8.2.2c.7.9 1.5 1.6 2.4 2a27 27 0 0 1 9 7.7 25.3 25.3 0 0 1 5.9 12.1l.4.5c.4.5.3 1.3-.2 1.7l-.9.7-.1.2a2.1 2.1 0 0 1-.8.6h-.2l-.9.8a1 1 0 0 1-.7.3z" fill="url(#p)"/><path d="M94.3 80c.7.8 1.5 1.4 2.4 1.8 2.8 1.3 6 4 8.7 7.4 3 3.8 5 8 5.4 11.1 0 .4.2.7.5 1l.4.5v.3l-1 .8-.3.3-.2.2-.2.1-.3.2-1 .8h-.2l-.4-.6a2 2 0 0 0-1-.6c-3-1-6.5-4-9.6-7.8a26.3 26.3 0 0 1-5.2-10.1c-.2-1-.6-1.9-1.2-2.8l3.2-2.6m.3-2.7l-6.2 5 .8 1c.6.8 1 1.6 1.2 2.5a28 28 0 0 0 5.6 11 26 26 0 0 0 10.5 8.3l.4.5a2.1 2.1 0 0 0 3 .4l1-.8c.2 0 .4-.2.5-.3l.5-.5 1-.8c.9-.7 1-2 .3-3l-.4-.5c-.4-3.4-2.5-7.9-5.9-12.2-3-3.7-6.4-6.5-9.4-8-.8-.3-1.5-.9-2-1.6l-.9-1z" fill="#EB6A1F"/><path d="M96.6 80.4L90.8 85c-.6.5-1.6.4-2.1-.2l-.5-.6c-.5-.6-.4-1.6.3-2.1l5.8-4.7c.6-.5 1.6-.4 2.1.3l.5.5c.5.7.4 1.6-.3 2.2z" fill="#ABABAB"/><path d="M120.2 109.7l-5.8 5.7c-5.5 4.7-11.9 5.3-17.4-1.3-12-14.3 6.5-24.8 12.1-22 8.4 4.3 13.5 15.5 11.1 17.6z" fill="#FFD29C"/><path d="M106 120a13 13 0 0 1-9.7-5.3c-5-6-5.6-12.5-1.4-17.7 3.8-4.9 11-7.7 14.7-5.8 7 3.6 11.7 11.6 12.2 15.9.2 1.9-.4 2.8-1 3.3L115 116c-3 2.6-6 3.9-9 3.9zm.8-27.4a15 15 0 0 0-10.3 5.6c-2.1 2.6-4.7 8.1 1.3 15.3 2.3 2.7 4.8 4.2 7.5 4.5 2.7.2 5.6-1 8.4-3.3l5.8-5.7c.2-.2.4-.7.3-1.7-.5-3.8-5-11.2-11.1-14.3-.5-.2-1.1-.4-1.9-.4z" fill="#E3B57C"/><path d="M112.2 112.4c1 1.4 3 1.7 4.5.6l3.6-2.7c1.4-1 1.6-3 .6-4.5s-3-1.7-4.5-.6l-3.6 2.7c-1.4 1-1.6 3.1-.6 4.5z" fill="#FFD29C"/><path d="M114.8 114.5h-.6a4 4 0 0 1-1.9-7.2l3.6-2.8c.9-.6 2-1 3-.8 1 .2 2 .7 2.7 1.6a4 4 0 0 1-.8 5.7l-3.6 2.7a4 4 0 0 1-2.4.8zm-1.9-2.6c.4.5 1 .8 1.5.9.7 0 1.3 0 1.8-.5l3.5-2.7a2.3 2.3 0 0 0-2.8-3.7l-3.6 2.7c-1 .8-1.2 2.3-.4 3.3z" fill="#E3B57C"/><path d="M109.8 108.3c1 1.5 3 1.7 4.5.6l4.7-3.5a3.4 3.4 0 0 0 .6-4.6 3.3 3.3 0 0 0-4.5-.6l-4.7 3.6a3.2 3.2 0 0 0-.6 4.5z" fill="#FFD29C"/><path d="M112.3 110.6h-.5a4.2 4.2 0 0 1-2-7.5l4.7-3.6a4.2 4.2 0 0 1 5.8.7 4.3 4.3 0 0 1-.7 6l-4.7 3.5c-.8.6-1.6.9-2.6.9zm4.7-10c-.5 0-1 .1-1.3.4l-4.7 3.6a2.2 2.2 0 0 0 1 4c.6 0 1.2 0 1.7-.5l4.7-3.5a2.2 2.2 0 0 0-1-4h-.4z" fill="#E3B57C"/><path d="M106.8 105.1a3.1 3.1 0 0 0 4.4.4l5.5-4.7c1.3-1.1 1.4-3 .3-4.4s-3-1.5-4.4-.4l-5.4 4.7a3.1 3.1 0 0 0-.4 4.4z" fill="#FFD29C"/><path d="M109.2 107.2h-.3a4.2 4.2 0 0 1-2.3-7.3l5.4-4.6c.8-.7 1.9-1 3-1a4.2 4.2 0 0 1 2.3 7.3l-5.4 4.6a4 4 0 0 1-2.7 1zm5.4-11c-.5 0-1 .2-1.3.6l-5.5 4.6c-.9.8-1 2.2-.2 3a2.1 2.1 0 0 0 3 .3l5.4-4.6c1-.8 1-2.2.3-3a2 2 0 0 0-1.5-.8h-.2z" fill="#E3B57C"/><path d="M102.7 101.3a3.1 3.1 0 0 0 4.4 0l5.2-4.8c1.3-1.2 1.3-3.2.1-4.5s-3.1-1.3-4.4-.1l-5.2 5a3.2 3.2 0 0 0 0 4.4z" fill="#FFD29C"/><path d="M105 103.3h-.1a4.2 4.2 0 0 1-2.7-7.1l5.1-5a4.1 4.1 0 0 1 5.8.2 4.2 4.2 0 0 1 0 5.8l-5.3 5c-.8.6-1.8 1-2.8 1zm5.2-11.3a2 2 0 0 0-1.5.6l-5.2 5a2.2 2.2 0 0 0 1.4 3.7c.6 0 1.1-.2 1.6-.6l5.1-5a2.2 2.2 0 0 0-1.4-3.7z" fill="#E3B57C"/><path d="M105.2 88.5l-4.8 2.8-2.5 2a26.5 26.5 0 0 0-4.6 10.9c0 1.1.4 2.1 1 3 0-.6 3.9 9.8 9.5 1.3 2.5-3.4-2-6-2-8 0-1.5 0-3.9 4.8-6.3 1.3-.7 3-2.5 2.8-3.9-.3-2.4-2.2-3-4.2-1.8z" fill="#FFD29C"/><path d="M108.7 86.9c-1-.6-2.5-.4-3.8.5l-1.2.7-3.6 2.2a16.6 16.6 0 0 0-8 14.5c.2 2 2.5 3.4 2.4 2.8-.8-3.2-.7-5.3.8-8.7a14.5 14.5 0 0 1 5.8-7l3.5-2 1.3-.8c.8-.5 1.5-.6 2-.4.4.2 1 .8 1 1.5 0 .8-1.3 2.4-2.5 3-1.7 1-3.7 1.9-4.7 3.6-.8 1.3-1.3 3.2-.7 4.6.6 1.4 3.4 3.4 3.5 6.5 0 1.2-.9 3.6-.9 3.6s2.2-1.4 2.6-3c.5-2.3-.6-4.8-1.9-6.5-.5-.7-1.7-1.8-1.7-2.2 0-1.3-.2-3 4-5.2 1.6-.8 4.2-2.8 4-4.8-.2-1.4-.8-2.4-1.9-3z" fill="#E3B57C"/></svg>