<svg viewBox="0 0 128 128" xmlns="http://www.w3.org/2000/svg" xmlns:xlink="http://www.w3.org/1999/xlink"><radialGradient id="a" cx="64" cy="120" r="23.8" gradientTransform="matrix(1 0 0 .305 0 83.4)" gradientUnits="userSpaceOnUse"><stop stop-color="#212121" stop-opacity=".8" offset=".1"/><stop stop-color="#616161" stop-opacity=".3" offset=".5"/><stop stop-color="#616161" stop-opacity="0" offset=".9"/></radialGradient><path d="M79.3 120c0 2.2-6.8 4-15.3 4s-15.3-1.8-15.3-4 6.8-4 15.3-4 15.3 1.8 15.3 4z" fill="url(#a)"/><linearGradient id="b" x1="60.5" x2="60.5" y1="100.4" y2="111.8" gradientUnits="userSpaceOnUse"><stop stop-color="#212121" offset="0"/><stop stop-color="#616161" offset=".8"/></linearGradient><path d="M63.9 108.5c0 1.5 0 3.6-2.4 3.6-2.6 0-4-5.8-4.1-7.3-.2-1.4-.2-4.1-.2-4.1h6.7v7.8z" fill="url(#b)"/><linearGradient id="c" x1="60.6" x2="60.6" y1="100.7" y2="107.5" gradientUnits="userSpaceOnUse"><stop stop-color="#BDBDBD" offset=".1"/><stop stop-color="#eee" offset=".7"/></linearGradient><path d="M63 105.3c0 1-.8 2.5-1.7 2.5-1.8 0-2.8-4.1-3-5.1v-2.2H63v4.7z" fill="url(#c)"/><linearGradient id="d" x1="67.2" x2="67.2" y1="100.4" y2="111.8" gradientUnits="userSpaceOnUse"><stop stop-color="#212121" offset="0"/><stop stop-color="#616161" offset=".8"/></linearGradient><path d="M63.9 108.5c0 1.5.2 3.6 2.3 3.6 2.7 0 4-5.8 4.2-7.3s.2-4.1.2-4.1h-6.8v7.8z" fill="url(#d)"/><linearGradient id="e" x1="67.1" x2="67.1" y1="100.7" y2="107.5" gradientUnits="userSpaceOnUse"><stop stop-color="#BDBDBD" offset=".1"/><stop stop-color="#eee" offset=".7"/></linearGradient><path d="M64.8 105.3c0 1 .7 2.5 1.6 2.5 1.9 0 2.8-4.1 3-5.1v-2.2h-4.7v4.7z" fill="url(#e)"/><path d="M69.4 102s0 2-.2 2.7c-.3 2.3-1.7 6.4-3.2 6.4-.7 0-1.3-.1-1.4-2.1 0-.6-.4-1-1-1s-1 .4-1 1c0 1.9-.3 2.1-1.3 2.1-1.5 0-2.9-4-3.1-6.1l-.2-3h11m1.4-1zm0 0H57s0 2.6.2 4 1.5 7.1 4.1 7.1c2.2 0 2.3-1.6 2.3-3.1 0 1.5.4 3.1 2.4 3.1 2.7 0 4-5.8 4.2-7.2.2-1.5.2-3.9.2-3.9z" fill="#424242" opacity=".2"/><linearGradient id="f" x1="76" x2="76" y1="74.6" y2="64.8" gradientUnits="userSpaceOnUse"><stop stop-color="#F9DDBD" offset="0"/><stop stop-color="#FFD29C" offset="1"/></linearGradient><path d="M74.1 74.6c-.2 0-.4 0-.6-.3-.6-.6-.7-2-.7-3V71l.8-4.3c.2-1 2-1.9 3.3-1.9a2.3 2.3 0 0 1 2.3 2.8l-.6 2.7a6 6 0 0 1-1.6 3.3 6 6 0 0 1-2.8 1z" fill="url(#f)"/><path d="M76.9 65.3c.5 0 1 .3 1.4.7s.5 1 .4 1.5l-.6 2.7a5.5 5.5 0 0 1-1.4 3c-.5.4-2 .9-2.6.9l-.3-.1c-.3-.4-.5-1.5-.5-2.7v-.2l.8-4.3c.1-.7 1.7-1.5 2.8-1.5m0-1c-1.4 0-3.5 1-3.8 2.3l-.7 4.3v.4c-.2 1.6.2 3.8 1.7 3.8a6 6 0 0 0 3.3-1.2 6 6 0 0 0 1.7-3.5l.6-2.8c.3-1.7-1-3.3-2.7-3.3h-.1z" fill="#EDBD82"/><linearGradient id="g" x1="51.8" x2="51.8" y1="74.5" y2="64.8" gradientUnits="userSpaceOnUse"><stop stop-color="#F9DDBD" offset="0"/><stop stop-color="#FFD29C" offset="1"/></linearGradient><path d="M53.6 74.5c-.8 0-2.5-.6-3.1-1.4a6.7 6.7 0 0 1-1.4-3l-.4-2.5c-.2-.7 0-1.4.4-1.9.5-.5 1.1-.8 1.8-.8 3.7 0 4 5.9 4 6v.3c.1 1 0 2.4-.6 3-.1.2-.4.3-.6.3z" fill="url(#g)"/><path d="M50.9 65.3c3.2 0 3.5 5.5 3.5 5.5v.4c.1 1.2 0 2.3-.4 2.7l-.4.1a5 5 0 0 1-2.7-1.2c-.6-.8-1-1.7-1.3-2.9l-.5-2.4a1.8 1.8 0 0 1 1.8-2.2m0-1c-1.8 0-3 1.7-2.7 3.4l.4 2.4c.3 1.2.7 2.4 1.5 3.3a6 6 0 0 0 3.5 1.6c1.6 0 2-2.2 1.9-3.8v-.4s-.4-6.5-4.6-6.5z" fill="#EDBD82"/><linearGradient id="h" x1="63.9" x2="63.9" y1="64.6" y2="98.6" gradientUnits="userSpaceOnUse"><stop stop-color="#212121" offset="0"/><stop stop-color="#616161" offset=".9"/></linearGradient><path d="M69.6 102H58.2a2 2 0 0 1-2-1.9l-3-32.4h21.5l-3 32.4a2 2 0 0 1-2 1.9z" fill="url(#h)"/><linearGradient id="i" x1="63.9" x2="63.9" y1="101" y2="71.9" gradientUnits="userSpaceOnUse"><stop stop-color="#616161" stop-opacity=".2" offset="0"/><stop stop-color="#212121" offset=".8"/></linearGradient><path d="M63.1 72c-.4.3-.7.8-.7 1.4l1 27.5h1.1l.8-27.6c0-.5-.2-1-.7-1.2-.5-.3-1-.3-1.5 0z" fill="url(#i)" opacity=".5"/><path d="M73.4 68.9h5.5c1 0 2-.8 2-1.9l.3-2.9h-7.8V69z" fill="#fff"/><path d="M80.1 65.1l-.2 1.8c0 .6-.4 1-1 1h-4.5V65H80m1-1zm0 0h-7.7v5h5.5c1 0 2-.8 2-1.9l.3-2.9z" fill="#424242" opacity=".2"/><path d="M54.8 68.9h-5.5c-1 0-2-.8-2-1.9l-.3-2.9h7.8V69z" fill="#fff"/><path d="M53.8 65.1V68h-4.5a1 1 0 0 1-1-1l-.2-1.8h5.7m1-1H47l.3 3c0 1 1 1.8 2 1.8h5.5v-5z" fill="#424242" opacity=".2"/><linearGradient id="j" x1="64" x2="64" y1="39.3" y2="77.5" gradientUnits="userSpaceOnUse"><stop stop-color="#5F5F5F" offset=".3"/><stop stop-color="#212121" offset="1"/></linearGradient><path d="M80.6 38.2l-6.2-1.6c-7-1.8-14.5-1.8-21.6 0l-5.4 1.5c-2.2.5-2.6 3.6-2.6 5.4l2 22H53l.7 7.3 10.3.1h10.2l.8-7.4h6.3l2-22c0-1.8-.4-4.8-2.6-5.3z" fill="url(#j)"/><path fill="#fff" d="M61.9 42.1h3.5v11.5h-3.5z"/><path d="M63.6 43.1a3.1 3.1 0 0 1-3.2-3v-3.7h7V40a3 3 0 0 1-3.1 3h-.7z" fill="#EDC391"/><path d="M67 36.9V40c0 1.4-1.2 2.5-2.7 2.5h-.8c-1.4 0-2.6-1-2.6-2.5v-3h6m1-1h-8v4c0 2 1.6 3.5 3.7 3.5h.7c2 0 3.7-1.5 3.7-3.5v-4z" fill="#D9AC77"/><path fill="#E5E5E5" d="M68.6 50.5l-4.6 6-4.1-6v-9h8.7z"/><path fill="#D32F2F" d="M64 57.1l-2.3-3.9 1.3-9.4h2l1.3 9.4z"/><path fill="#D32F2F" d="M65.1 43.9H63l-1-2.2.4-1.2h3.3l.4 1.2z"/><path d="M59.7 34.8l4.2 5.6-4.6 4c-.3.4-.9.3-1.1-.1l-2-7a1 1 0 0 1 .4-1l3.1-1.5zm8.5 0L64 40.4l4.6 4c.3.4.9.3 1.1-.1l2-7a1 1 0 0 0-.4-1l-3.1-1.5z" fill="#fff"/><path fill="#D32F2F" d="M74.3 51h-5.1v-.7l2.6-2 2.5 2z"/><linearGradient id="k" x1="57.6" x2="57.6" y1="29.1" y2="55.5" gradientUnits="userSpaceOnUse"><stop stop-color="#616161" offset=".2"/><stop stop-color="#212121" offset=".8"/></linearGradient><path fill="url(#k)" d="M52.7 36.9l2 3.6-3.4.4L64 59.1v-4l-6.3-19.5z"/><linearGradient id="l" x1="70.3" x2="70.3" y1="29.1" y2="55.5" gradientUnits="userSpaceOnUse"><stop stop-color="#616161" offset=".2"/><stop stop-color="#212121" offset=".8"/></linearGradient><path fill="url(#l)" d="M75.3 36.9l-2 3.6 3.4.4-12.8 18.2v-4l6.4-19.5z"/><linearGradient id="m" x1="52.7" x2="52.7" y1="64.5" y2="46.6" gradientUnits="userSpaceOnUse"><stop stop-color="#616161" stop-opacity=".2" offset="0"/><stop stop-color="#212121" offset=".8"/></linearGradient><path d="M51.6 47.6l1 17h1.2l-.3-17.2c0-.4-.4-.9-1-.8s-1 .7-.9 1z" fill="url(#m)" opacity=".5"/><linearGradient id="n" x1="75.3" x2="75.3" y1="64.5" y2="46.6" gradientUnits="userSpaceOnUse"><stop stop-color="#616161" stop-opacity=".2" offset="0"/><stop stop-color="#212121" offset=".8"/></linearGradient><path d="M76.3 47.6l-1 16.9h-1.1l.2-17.1c0-.4.4-.9 1-.8s1 .7 1 1z" fill="url(#n)" opacity=".5"/><circle cx="64.2" cy="63.2" r="2" fill="#212121"/><path d="M63.5 36.3c3.7 0 7.4.4 11 1.3l5.7 1.5c1.7.4 1.8 3.4 1.8 4.2L80 64h-5.3c-.5 0-1 .6-1 1.1L70.4 100c0 .3-.1 1.1-.8 1.1H58.1a1 1 0 0 1-1-1l-3.4-34.8c0-.6-.4-1.2-1-1.2h-5.2l-1.9-20.8c0-1.8.5-4 1.8-4.3l5.7-1.4c3.3-.9 6.8-1.2 10.4-1.2m0-1c-3.6 0-7.2.4-10.6 1.3l-5.7 1.5c-2.2.5-2.6 3.3-2.6 5.2l2 21.7h6.2l3.2 35c.1 1 1 2 2 2h11.6c1 0 1.7-1 1.8-2l3.3-35H81l2-21.7c0-1.8-.4-4.8-2.6-5.3l-5.7-1.4c-3.7-1-7.4-1.3-11.2-1.3z" fill="#424242" opacity=".2"/><defs><path id="o" d="M47.8 4.8h32.3v32.3H47.8z"/></defs><clipPath id="p"><use xlink:href="#o"/></clipPath><g clip-path="url(#p)"><path d="M54.5 28.9c-1.8 0-3.3-1.6-3.3-3.6s1.5-3.5 3.3-3.5H74c1.8 0 3.3 1.6 3.3 3.5S75.7 29 73.9 29H54.5z" fill="#EDC391"/><path d="M73.9 22.3c1.5 0 2.8 1.4 2.8 3s-1.3 3-2.8 3H54.5c-1.5 0-2.8-1.3-2.8-3s1.3-3 2.8-3H74m0-1H54.5c-2 0-3.8 1.8-3.8 4s1.7 4 3.8 4H74c2 0 3.8-1.7 3.8-4s-1.7-4-3.8-4z" fill="#D9AC77"/><linearGradient id="q" x1="64.2" x2="64.2" y1="7.4" y2="36.7" gradientUnits="userSpaceOnUse"><stop stop-color="#FFD29C" offset="0"/><stop stop-color="#FFD39E" offset="0"/><stop stop-color="#FCD8AF" offset=".3"/><stop stop-color="#FADCBA" offset=".6"/><stop stop-color="#F9DDBD" offset="1"/></linearGradient><path d="M64.2 36.7c-5.5 0-11.4-4.3-11.4-13.6 0-7.5 4.4-15.6 11.4-15.6s11.4 8 11.4 15.6c0 9.3-6 13.6-11.4 13.6z" fill="url(#q)"/><path d="M64.2 8c2.7 0 5.4 1.5 7.4 4.1a18 18 0 0 1 3.5 11 14 14 0 0 1-3.5 9.9 10.3 10.3 0 0 1-15 0 14 14 0 0 1-3.3-10 18 18 0 0 1 3.4-10.9c2-2.6 4.8-4.1 7.5-4.1m0-1C58 7 52.3 13.6 52.3 23c0 9.5 5.9 14.2 11.9 14.2S76 32.5 76 23c0-9.4-5.7-16-12-16z" fill="#EDBD82"/><radialGradient id="r" cx="58.4" cy="21.2" r="2.1" gradientUnits="userSpaceOnUse"><stop stop-color="#454140" offset=".1"/><stop stop-color="#454140" offset="1"/></radialGradient><path d="M55.7 21.4l.1-.2.2-.2.2-.1.1-.1.2-.2h.2l.3-.2h.2l.6-.2h1.1l.6.1.2.1.2.1.3.1.1.1.2.2h.2v.2l.2.1.1.2c.2.3.1.6-.1.8h-.8l-.2-.1-.2-.1h-.2l-.1-.1h-.1c-.1 0 0 0 0 0H59l-.3-.1H57.3l-.2.1H57l-.1.1h-.2l-.1.1-.2.1c-.3.2-.7 0-.8-.3v-.5z" fill="url(#r)"/><radialGradient id="s" cx="70" cy="21.2" r="2.1" gradientUnits="userSpaceOnUse"><stop stop-color="#454140" offset=".1"/><stop stop-color="#454140" offset="1"/></radialGradient><path d="M72 22.3l-.2-.2H71.5l-.1-.1h-.2l-.1-.1H71c-.1 0 0 0 0 0h-.2l-.4-.1h-1.3l-.1.1H68.7l-.3.2h-.2a2 2 0 0 1-.1.1H68a.6.6 0 0 1-.7-.8l.2-.2.2-.2.1-.1.2-.1.2-.2h.2l.2-.2h.3l.5-.2h1.2l.5.1.3.1.2.1.2.1.2.2a2.5 2.5 0 0 1 .5.3v.1l.2.2c.2.3 0 .6-.2.8H72z" fill="url(#s)"/><g fill="#404040"><ellipse cx="58.4" cy="24.6" rx="1.8" ry="1.8"/><ellipse cx="70" cy="24.6" rx="1.8" ry="1.8"/></g><linearGradient id="t" x1="51.1" x2="77.2" y1="15.7" y2="15.7" gradientUnits="userSpaceOnUse"><stop stop-color="#454140" offset="0"/><stop stop-color="#3D3939" offset=".2"/><stop stop-color="#343030" offset=".5"/><stop stop-color="#312D2D" offset="1"/></linearGradient><path d="M64.3 4.9C48 4.9 51.4 23.5 51.4 23.5l1.7 3c0-2.6 1-7.2 1.7-9.1.4-1 1.4-1.5 2.5-1.4a39 39 0 0 0 13.5 0c1.1-.1 2.2.6 2.5 1.6l2 8.8 1.7-3.2S80.3 5 64.3 5z" fill="url(#t)"/><defs><path id="u" d="M64.3 4.9c-16.2 0-13 18.1-13 18.1l2 3.4.3-2.8c-.7-1.2-1-2.5-1-3.8v-.4l1-3.6 10.6-6.6 10.6 6.6.9 4v.4c-.2 1.2-.5 2.3-1 3.4l.7 2.9L77 23S80.3 4.9 64.3 4.9z"/></defs><clipPath id="v"><use xlink:href="#u"/></clipPath><g clip-path="url(#v)"><path d="M64.3 5.9c4 0 7 1.2 9 3.6 4 4.6 3 12.3 2.8 13.4l-.4.7-1.4-6.2a3.2 3.2 0 0 0-3.6-2.3A39.1 39.1 0 0 1 57 15c-1.3 0-2.5.8-3 2-.4 1.4-1 3.9-1.4 6.2l-.3-.5c-.1-1.2-1-8.6 2.8-13.2C57 7.1 60.2 6 64.3 6m0-1c-16.2 0-13 18.1-13 18.1l2 3.5c-.2-2.6.9-7.2 1.6-9.1a2.2 2.2 0 0 1 2.4-1.3 39 39 0 0 0 14 0c1 0 1.8.6 2 1.5l2 8.9 1.7-3.3S80.3 5 64.3 5z" fill="#1F1A1A"/></g><path d="M67 31.1a9 9 0 0 1-6 0c-.6-.3-1.2.2-1 .8.3.6 2.3 2 4 2s3.8-1.4 4-2c.3-.5-.3-1.1-1-.8z" fill="#424242"/><path d="M65.5 27.8h-2.7c-.3.1-.4.3-.3.6s.6 1 1.6 1 1.5-.8 1.7-1c0-.3 0-.5-.3-.6z" fill="#DBA689"/></g><radialGradient id="w" cx="64" cy="23.5" r="1.4" gradientUnits="userSpaceOnUse"><stop stop-color="#212121" offset="0"/><stop stop-color="#212121" offset="1"/></radialGradient><path d="M65.6 24.7h-.1a7 7 0 0 0-3.1 0v-2.2c1-.2 2-.2 3 0h.2v2.2z" fill="url(#w)"/><linearGradient id="x" x1="66.4" x2="74.4" y1="20.7" y2="28.7" gradientUnits="userSpaceOnUse"><stop stop-color="#616161" offset="0"/><stop stop-color="#212121" offset="1"/></linearGradient><path d="M75.2 22.1c-3.2-.8-6.6-.8-9.9 0h-.2c-.2 0-.3.2-.3.4 0 0 .6 8 5.7 8 2.8 0 4.4-1.8 4.7-3.7l-.2-2.7c.3 0 0-.2 0-.5v-1c0-.3.5-.4.2-.5z" fill="url(#x)"/><linearGradient id="y" x1="54.1" x2="61.7" y1="20.9" y2="28.4" gradientUnits="userSpaceOnUse"><stop stop-color="#616161" offset="0"/><stop stop-color="#212121" offset="1"/></linearGradient><path d="M53 22.1c3.3-.8 6.7-.8 10 0h.3c.2 0 .3.2.3.4 0 0-.7 8-5.7 8-2.8 0-4.4-1.8-4.7-3.7v-2.7c-.3 0-.2-.2-.2-.5v-1c0-.3-.3-.4 0-.5z" fill="url(#y)"/><path d="M70.4 22.5c1.6 0 3.6.2 4.6.5v.2c0 .1-.4.4-.4.7l-.4 2.8c-.2 1.2-1.3 2.7-3.8 2.7s-3.7-2.7-4.3-5a1 1 0 0 0-.8-.7 7.5 7.5 0 0 0-2.3 0 1 1 0 0 0-.8.7c-.6 2.3-1.8 5-4.3 5s-3.6-1.5-3.8-2.7l-.5-2.8c0-.3-.6-.6-.6-.7V23c2-.3 3.2-.5 4.8-.5 1.6 0 3.2.2 4.8.5h.1c.2.3.5.4.8.4h1.3c.3 0 .6-.1.8-.4a21 21 0 0 1 4.8-.5m.1-1c-1.7 0-3.4.2-5 .5l-.3.1c-.2 0-.3.2-.4.3a6.9 6.9 0 0 0-1.2 0l-.4-.3h-.3a22.3 22.3 0 0 0-10.1 0h-.3c-.3 0-.5.2-.5.5v1c0 .3.3.5.6.5l.5 2.8c.3 1.8 2 3.5 4.8 3.5 3.3 0 4.7-3.4 5.3-5.7a6.6 6.6 0 0 1 2 0c.6 2.4 2 5.7 5.3 5.7 2.8 0 4.4-1.6 4.7-3.5l.4-2.8c.3 0 .4-.2.4-.5v-1c0-.2 0-.4-.3-.5h-.2c-1.6-.4-3.3-.6-5-.6z" fill="#eee" opacity=".2"/><linearGradient id="z" x1="64.2" x2="64.2" y1="2.7" y2="16.7" gradientUnits="userSpaceOnUse"><stop stop-color="#616161" offset="0"/><stop stop-color="#212121" offset="1"/></linearGradient><path d="M77.3 14.9s-1.3-7.4-2.7-9C73.2 4.3 67.6 4 64.2 4c-3.4 0-9 .3-10.4 1.9-1.5 1.6-2.7 9-2.7 9s-5.5 1.6-3.1 3c1.2.7 6.3 1.1 16.2 1.1 10 0 15-.4 16.2-1 2.4-1.5-3.1-3.1-3.1-3.1z" fill="url(#z)"/><path d="M64.2 5c6.1 0 9 .8 9.6 1.6 1 1 2 5.5 2.5 8.4 0 .4.3.7.7.8 1.1.4 2.3 1 2.8 1.3-.6.2-3.3 1-15.6 1-12.4 0-15-.8-15.6-1 .5-.4 1.6-1 2.8-1.3.4 0 .6-.4.7-.8.5-2.9 1.6-7.5 2.4-8.4.7-.8 3.6-1.6 9.7-1.6m0-1c-3.4 0-9 .3-10.4 1.9-1.5 1.6-2.7 9-2.7 9s-5.5 1.6-3.1 3c1.2.7 6.3 1.1 16.2 1.1 10 0 15-.4 16.2-1 2.4-1.5-3.1-3.1-3.1-3.1s-1.3-7.4-2.7-9C73.2 4.3 67.6 4 64.2 4z" fill="#eee" opacity=".2"/></svg>