<svg viewBox="0 0 128 128" xmlns="http://www.w3.org/2000/svg"><path d="M116.2 36.6a2.3 2.3 0 0 0 .8-3.1 2.3 2.3 0 0 0-3.2-.9l-3.6 2a83.2 83.2 0 0 1-43.8-25V5.3c0-1.2-1-2.3-2.4-2.3-1.2 0-2.3 1-2.3 2.3v4.2A83.2 83.2 0 0 1 18 34.8l-3.6-2a2.4 2.4 0 0 0-3.4 2.6c.2.6.5 1.1 1 1.4l3.7 2.1a83.1 83.1 0 0 1 0 50.5l-3.5 2.1a2.3 2.3 0 0 0 .5 4.3c.7.2 1.3 0 1.8-.2l3.6-2.1A83.2 83.2 0 0 1 62 118.6v4.2c0 1.3 1 2.4 2.4 2.4 1.3 0 2.3-1 2.3-2.4v-4.1a83.2 83.2 0 0 1 43.7-25.4l3.6 2.1c.5.3 1.2.4 1.8.2a2.3 2.3 0 0 0 1.6-2.8c-.1-.6-.5-1.1-1-1.5l-3.7-2a83.2 83.2 0 0 1 0-50.6l3.6-2zM66.5 75v-6.8l5.9 3.4-5.9 3.4zM107 86l-11.7-6.6a87.1 87.1 0 0 1 0-30.6l11.6-6.7a84.6 84.6 0 0 0 0 44zM66.6 98.8A87.2 87.2 0 0 1 93 83.4l11.6 6.6a84.4 84.4 0 0 0-38 22V98.8zm-.2-69.2V16a84.4 84.4 0 0 0 38.1 22L93 44.7a87 87 0 0 1-26.5-15.2zm0 18.3V35.5a94 94 0 0 0 21.3 12.2L77.2 54c-3.9-2-7.4-4-10.6-6.1zm23.7 28.5l-10.6-6.1c-.2-3.9-.2-8 0-12.3L90 51.8c-1 8.1-1 16.4 0 24.5zm-2.3 4a91.4 91.4 0 0 0-21.2 12.4V80.4a125 125 0 0 1 10.6-6.1l10.6 6zm-13-12.8l-6-3.4 6-3.4v6.8zM66.4 60v-6.8a194 194 0 0 0 5.9 3.4L66.5 60zm-4.7-6.8V60L56 56.7l6-3.5zm0 45.5l.1 13.4a84.3 84.3 0 0 0-38-22l11.5-6.6a87.3 87.3 0 0 1 26.5 15.2zm-38-60.6a84.2 84.2 0 0 0 38-22v13.4a87 87 0 0 1-26.5 15.3l-11.6-6.7zm-2.4 4L33 49a87.1 87.1 0 0 1 0 30.5l-11.5 6.7a84.5 84.5 0 0 0-.1-44zm40.4 38.3v12.2c-6.4-5-13.6-9-21.2-12.2l10.6-6c3.9 2 7.4 4 10.6 6zM38.2 52l10.7 6c.2 4 .2 8 0 12.4l-10.6 6.1c1-8.2 1-16.4 0-24.5zm2.3-4.1a91.7 91.7 0 0 0 21.3-12.4v12.3c-3.6 2.3-7.1 4.4-10.7 6.2l-10.6-6.1zm13.1 13l5.9 3.3-5.9 3.4v-6.8zm8.2 7.3V75a211 211 0 0 0-5.8-3.4l5.8-3.4z"/><path d="M116.2 36.6a2.3 2.3 0 0 0 .8-3.1 2.3 2.3 0 0 0-3.2-.9l-3.6 2a83.2 83.2 0 0 1-43.8-25V5.3c0-1.2-1-2.3-2.4-2.3-1.2 0-2.3 1-2.3 2.3v4.2A83.2 83.2 0 0 1 18 34.8l-3.6-2a2.4 2.4 0 0 0-3.4 2.6c.2.6.5 1.1 1 1.4l3.7 2.1a83.1 83.1 0 0 1 0 50.5l-3.5 2.1a2.3 2.3 0 0 0 .5 4.3c.7.2 1.3 0 1.8-.2l3.6-2.1A83.2 83.2 0 0 1 62 118.6v4.2c0 1.3 1 2.4 2.4 2.4 1.3 0 2.3-1 2.3-2.4v-4.1a83.2 83.2 0 0 1 43.7-25.4l3.6 2.1c.5.3 1.2.4 1.8.2a2.3 2.3 0 0 0 1.6-2.8c-.1-.6-.5-1.1-1-1.5l-3.7-2a83.2 83.2 0 0 1 0-50.6l3.6-2zM66.5 75v-6.8l5.9 3.4-5.9 3.4zM107 86l-11.7-6.6a87.1 87.1 0 0 1 0-30.6l11.6-6.7a84.6 84.6 0 0 0 0 44zM66.6 98.8A87.2 87.2 0 0 1 93 83.4l11.6 6.6a84.4 84.4 0 0 0-38 22V98.8zm-.2-69.2V16a84.4 84.4 0 0 0 38.1 22L93 44.7a87 87 0 0 1-26.5-15.2zm0 18.3V35.5a94 94 0 0 0 21.3 12.2L77.2 54c-3.9-2-7.4-4-10.6-6.1zm23.7 28.5l-10.6-6.1c-.2-3.9-.2-8 0-12.3L90 51.8c-1 8.1-1 16.4 0 24.5zm-2.3 4a91.4 91.4 0 0 0-21.2 12.4V80.4a125 125 0 0 1 10.6-6.1l10.6 6zm-13-12.8l-6-3.4 6-3.4v6.8zM66.4 60v-6.8a194 194 0 0 0 5.9 3.4L66.5 60zm-4.7-6.8V60L56 56.7l6-3.5zm0 45.5l.1 13.4a84.3 84.3 0 0 0-38-22l11.5-6.6a87.3 87.3 0 0 1 26.5 15.2zm-38-60.6a84.2 84.2 0 0 0 38-22v13.4a87 87 0 0 1-26.5 15.3l-11.6-6.7zm-2.4 4L33 49a87.1 87.1 0 0 1 0 30.5l-11.5 6.7a84.5 84.5 0 0 0-.1-44zm40.4 38.3v12.2c-6.4-5-13.6-9-21.2-12.2l10.6-6c3.9 2 7.4 4 10.6 6zM38.2 52l10.7 6c.2 4 .2 8 0 12.4l-10.6 6.1c1-8.2 1-16.4 0-24.5zm2.3-4.1a91.7 91.7 0 0 0 21.3-12.4v12.3c-3.6 2.3-7.1 4.4-10.7 6.2l-10.6-6.1zm13.1 13l5.9 3.3-5.9 3.4v-6.8zm8.2 7.3V75a211 211 0 0 0-5.8-3.4l5.8-3.4z" fill="none" stroke="#eee" stroke-linecap="round" stroke-linejoin="round" stroke-miterlimit="10" stroke-width="3" opacity=".5"/></svg>