<svg viewBox="0 0 128 128" xmlns="http://www.w3.org/2000/svg"><linearGradient id="a" x1="-93" x2="-93" y1="-73.4" y2="-17.3" gradientUnits="userSpaceOnUse"><stop stop-color="#eee" offset="0"/><stop stop-color="#EAEAEA" offset=".3"/><stop stop-color="#ddd" offset=".6"/><stop stop-color="#C8C8C8" offset=".9"/><stop stop-color="#BDBDBD" offset="1"/></linearGradient><path d="M-42.1-44.7L-48-72.1c-.5-2.2-2.1-3.9-4-3.8h-60.6c-.7 0-2.6 0-4.2 1.7-4.7 5.3-12.5 20.5-13.7 22-.1.2-6.3 2.4-9.1 4-1.2.7-1.8 2.2-2 3.7l-2.4 20.8c-.6 4 1.7 5.7 5.4 5.7h91.5c2.8 0 5.1-.7 5.1-5.7v-19.8l-.1-1.2z" fill="url(#a)"/><path d="M-52-73c.4 0 .9.6 1 1.4a7598 7598 0 0 1 6 28.1v19.8c0 2.8-.5 2.7-2.1 2.7h-91.5c-1.3 0-2-.2-2.3-.5s-.3-1-.1-1.8l2.5-20.9c0-.8.3-1.3.4-1.3 1.9-1.2 5.9-2.7 7.5-3.4 1.5-.5 1.9-.7 2.4-1.3l3-5c2.9-5.1 7.6-13.6 10.7-17 .5-.6 1.2-.8 1.8-.8H-52m0-3h-60.6c-.7 0-2.6 0-4.2 1.8-4.7 5.3-12.5 20.5-13.7 22-.1.2-6.3 2.4-9.1 4-1.1.7-1.8 2.2-2 3.7l-2.4 20.7c-.6 4.1 1.7 5.8 5.4 5.8h91.5c2.8 0 5.1-.7 5.1-5.7v-19.8l-.1-1.2-5.9-27.5c-.5-2.2-2.1-3.8-4-3.8z" fill="#424242" opacity=".2"/><linearGradient id="b" x1="46.4" x2="46.4" y1="-117.5" y2="-61.4" gradientUnits="userSpaceOnUse"><stop stop-color="#616161" offset="0"/><stop stop-color="#5D5D5D" offset=".2"/><stop stop-color="#505050" offset=".5"/><stop stop-color="#3B3B3B" offset=".8"/><stop stop-color="#212121" offset="1"/></linearGradient><path d="M97.3-89l-5.8-27.3c-.5-2.3-2.1-3.8-4-3.8H26.9c-.7 0-2.6 0-4.2 1.7C18-113 10.2-97.8 9-96.3c-.1.2-6.3 2.4-9.1 4-1.2.7-1.8 2.2-2 3.7l-2.4 20.8C-5.1-63.7-2.8-62 .9-62h91.5c2.8 0 5-.8 5-5.8v-21z" fill="url(#b)"/><path d="M87.5-117c.4 0 .9.5 1 1.3a10841.5 10841.5 0 0 1 6 28v19.8c0 2.8-.5 2.8-2.1 2.8H.9c-1.3 0-2-.3-2.3-.5s-.3-1-.2-1.8v-.1L1-88.4c.1-.8.4-1.3.5-1.3C3.3-91 7.2-92.4 8.9-93c1.5-.6 1.9-.8 2.4-1.4l3-5c2.8-5 7.6-13.5 10.6-17 .6-.6 1.3-.7 2-.7h60.6m0-3H26.8a5 5 0 0 0-4 1.8C18-113.1 10.1-98 9-96.3c-.1 0-6.3 2.3-9.1 4-1.2.6-1.8 2.1-2 3.6l-2.4 20.8c-.6 4.1 1.7 5.8 5.4 5.8h91.5c2.8 0 5-.8 5-5.8v-21l-6-27.4c-.4-2.3-2-3.8-3.9-3.8z" fill="#eee" opacity=".2"/><path d="M7.4 63a3 3 0 0 1-1.2-5.7c6.8-3 11-9 11-16.7v-2.7c0-21 11.4-34 29.6-34C62.8 4 70 17 70 29.8a3 3 0 1 1-6 0C64 10.8 49.7 10 46.8 10c-21.2 0-23.5 19.5-23.5 27.9v2.7c0 10.2-5.6 18.2-14.7 22.2a3 3 0 0 1-1.2.3z" fill="#424242"/><path d="M46.8 5C62.2 5 69 17.4 69 29.6c0 1.1-.9 2-2 2s-2-.9-2-2C65 10 49.8 9 46.8 9c-7.4 0-24.5 2.8-24.5 28.9v2.7c0 9.5-5.2 17.3-14 21.3l-.9.2a2 2 0 0 1-.8-3.9 18.7 18.7 0 0 0 11.7-17.6V38c0-20.3 11-33 28.5-33m0-1C28.6 4 17.3 17 17.3 38v2.7c0 7.8-4.3 13.7-11.1 16.7a3 3 0 0 0 2.4 5.5c9-4 14.7-12 14.7-22.2V38c0-8.4 2.3-28 23.5-28C49.7 10 64 11 64 29.8a3 3 0 1 0 6 0C70 16.9 62.8 4 46.8 4z" fill="#eee" opacity=".2"/><path d="M198.4 3.8a42 42 0 0 0-42 42V56h84V45.7a42 42 0 0 0-42-41.9zm-54.4-81V-25h42v-10.3a42 42 0 0 0-42-42zm3 63.1V38h4v-52.1a44.1 44.1 0 0 0-4 0z" fill="#757575"/><linearGradient id="c" x1="63.6" x2="63.6" y1="16.2" y2="123.4" gradientUnits="userSpaceOnUse"><stop stop-color="#757575" offset="0"/><stop stop-color="#424242" offset="1"/></linearGradient><path d="M103.8 55.8c0 33.1-20.2 68-40.2 68s-40.1-34.9-40.1-68 18-40 40.1-40 40.1 6.9 40.1 40z" fill="url(#c)"/><path d="M40.9 20c-8.3 4-14.3 11.1-16.5 24h5.9c1.4 0 2.7-.9 3.3-2.2 2-4.8 5.1-9 9-12.3 1.4-1.1 1.8-3 1-4.5l-2.7-5zm45.5 0c8.2 4 14.2 11.1 16.4 24H97c-1.5 0-2.8-.9-3.3-2.2-2-4.8-5.2-9-9.1-12.3a3.6 3.6 0 0 1-1-4.5l2.8-5z" fill="#212121" opacity=".5"/><path d="M63.6 18.8c12.2 0 20.7 2.2 26.5 7 7.2 5.7 10.6 15.5 10.6 30 0 15.3-4.4 31.7-12.1 44.9-7.4 12.5-16.7 20-25 20s-17.6-7.5-25-20a91.3 91.3 0 0 1-12.1-45c0-14.4 3.5-24.2 10.6-30 5.9-4.7 14.3-6.9 26.5-6.9m0-3c-22.1 0-40.1 6.9-40.1 40s20.1 68 40.1 68 40.1-34.9 40.1-68-18-40-40-40z" fill="#eee" opacity=".2"/><circle cx="63.6" cy="54" r="24.8" fill="#212121" opacity=".3"/><linearGradient id="d" x1="63.6" x2="63.6" y1="34.1" y2="74.1" gradientUnits="userSpaceOnUse"><stop stop-color="#F44336" offset="0"/><stop stop-color="#D32F2F" offset="1"/></linearGradient><circle cx="63.6" cy="54" r="20" fill="url(#d)"/></svg>