<svg viewBox="0 0 128 128" xmlns="http://www.w3.org/2000/svg"><linearGradient id="a" x1="-93.047" x2="-93.047" y1="-73.413" y2="-17.291" gradientUnits="userSpaceOnUse"><stop stop-color="#eee" offset=".005"/><stop stop-color="#EAEAEA" offset=".282"/><stop stop-color="#ddd" offset=".577"/><stop stop-color="#C8C8C8" offset=".879"/><stop stop-color="#BDBDBD" offset="1"/></linearGradient><path d="M-42.13-44.72c-.91-4.33-4.3-20.11-5.87-27.41-.47-2.21-2.11-3.82-3.99-3.81-5.36 0-15.39-.05-16.6-.05h-44.08c-.61 0-2.56.06-4.11 1.79-4.7 5.27-12.54 20.52-13.76 22.07-.08.1-6.27 2.31-9.09 4-1.12.67-1.74 2.13-1.9 3.63l-2.46 20.75c-.64 4.1 1.7 5.76 5.37 5.76h91.51c2.8 0 5.11-.68 5.11-5.69v-19.79c0-.43-.05-.85-.13-1.25z" fill="url(#a)"/><defs><path id="b" d="M-42.13-44.78c-.91-4.32-4.3-20.06-5.87-27.34-.47-2.21-2.11-3.82-3.99-3.82-5.36 0-15.39-.06-16.6-.06h-44.08c-.61 0-2.56.07-4.11 1.8-4.7 5.26-12.54 20.51-13.76 22.05-.08.1-6.27 2.28-9.09 3.96-1.12.67-1.74 2.13-1.9 3.62l-2.46 20.76c-.64 4.09 1.7 5.81 5.37 5.81h91.51c2.8 0 5.11-.79 5.11-5.8v-19.74c0-.42-.05-.83-.13-1.24z"/></defs><path d="M-51.98-73c.36 0 .87.59 1.05 1.44 1.46 6.78 4.95 23.06 5.86 27.43.04.2.07.44.07.66v19.79c0 2.81-.49 2.69-2.11 2.69h-91.51c-1.3 0-2.02-.23-2.25-.5s-.3-.92-.16-1.77c.01-.04.01-.06.02-.09l2.47-20.83c.08-.8.36-1.28.46-1.36 1.87-1.12 5.83-2.66 7.51-3.31 1.46-.57 1.86-.72 2.39-1.39.5-.63 1.28-2 2.99-5.03 2.85-5.03 7.61-13.53 10.65-16.93.57-.64 1.22-.79 1.87-.79h60.69-.02m.02-3.01s-.01 0 0 0h-60.7c-.63 0-2.55.08-4.08 1.79-4.7 5.27-12.54 20.52-13.76 22.07-.08.1-6.27 2.31-9.09 4-1.12.67-1.74 2.13-1.9 3.63l-2.46 20.75c-.64 4.1 1.7 5.76 5.37 5.76h91.51c2.8 0 5.11-.68 5.11-5.69v-19.79c0-.42-.05-.84-.13-1.24-.91-4.33-4.3-20.17-5.87-27.47-.49-2.21-2.13-3.81-4-3.81z" fill="#424242" opacity=".2"/><linearGradient id="c" x1="46.43" x2="46.43" y1="-117.5" y2="-61.374" gradientUnits="userSpaceOnUse"><stop stop-color="#616161" offset=".011"/><stop stop-color="#5D5D5D" offset=".25"/><stop stop-color="#505050" offset=".504"/><stop stop-color="#3B3B3B" offset=".766"/><stop stop-color="#212121" offset="1"/></linearGradient><path d="M97.35-88.93c-.91-4.33-4.3-20.11-5.86-27.41-.47-2.21-2.11-3.75-3.99-3.75-5.36 0-15.39.01-16.6.01H26.82c-.61 0-2.56-.01-4.11 1.73C18-113.07 10.16-97.86 8.95-96.31c-.08.1-6.27 2.3-9.09 3.99-1.12.67-1.74 2.12-1.9 3.62L-4.5-67.9c-.64 4.1 1.7 5.82 5.37 5.82h91.51c2.8 0 5.1-.8 5.1-5.81v-19.79c-.01-.43-.05-.84-.13-1.25z" fill="url(#c)"/><defs><path id="d" d="M97.35-88.98c-.91-4.32-4.3-20.06-5.86-27.34-.47-2.21-2.11-3.74-3.99-3.74-5.36 0-15.39.01-16.6.01H26.82c-.61 0-2.56-.01-4.11 1.72C18-113.06 10.16-97.85 8.95-96.31c-.08.1-6.27 2.26-9.09 3.94-1.12.67-1.74 2.12-1.9 3.61L-4.51-68c-.64 4.09 1.7 5.8 5.37 5.8h91.51c2.8 0 5.1-.79 5.1-5.8v-19.74c0-.42-.04-.84-.12-1.24z"/></defs><path d="M87.5-117.08c.36 0 .87.53 1.05 1.38 1.46 6.78 4.94 23.03 5.86 27.4.04.2.06.41.06.63v19.79c0 2.81-.49 2.81-2.1 2.81H.86c-1.3 0-2.02-.29-2.25-.56s-.3-.95-.16-1.8l.02-.1L.94-88.37c.08-.8.36-1.28.46-1.36 1.87-1.12 5.83-2.66 7.51-3.31 1.46-.57 1.86-.72 2.39-1.39.5-.63 1.28-2 2.99-5.03 2.85-5.03 7.61-13.46 10.65-16.87.57-.64 1.22-.72 1.87-.72h44.08c.75 0 4.89 0 9.21-.01l7.4-.02m0-3c-5.36 0-15.39.01-16.6.01H26.8c-.63 0-2.55.01-4.08 1.73C18-113.07 10.16-97.86 8.95-96.31c-.08.1-6.27 2.3-9.09 3.99-1.12.67-1.74 2.12-1.9 3.62L-4.5-67.9c-.64 4.1 1.7 5.82 5.37 5.82h91.51c2.8 0 5.1-.8 5.1-5.81v-19.79c0-.42-.04-.84-.13-1.24-.91-4.33-4.3-20.11-5.86-27.41-.48-2.22-2.12-3.75-3.99-3.75z" fill="#eee" opacity=".2"/><path d="M101.67 53.67C101.67 32.9 84.77 16 64 16S26.33 32.9 26.33 53.67v32.58c0 20.77 16.9 37.67 37.67 37.67s37.67-16.9 37.67-37.67V53.67z" fill="#E0E0E0"/><path d="M7.42 63.06c-1.15 0-2.24-.66-2.74-1.78-.68-1.51 0-3.28 1.51-3.96 6.84-3.06 11.08-8.96 11.08-16.72l.02-2.6v-.13c0-20.91 11.3-33.9 29.5-33.9 16.06 0 23.25 12.9 23.25 25.68 0 1.66-1.34 3-3 3s-3-1.34-3-3c0-18.73-14.37-19.68-17.25-19.68-21.21 0-23.5 19.51-23.5 27.9l-.02 2.76c0 10.13-5.61 18.13-14.63 22.17-.39.17-.81.26-1.22.26z" fill="#424242"/><path d="M46.79 4.97c15.37 0 22.25 12.4 22.25 24.68 0 1.1-.9 2-2 2s-2-.9-2-2c0-19.69-15.2-20.68-18.25-20.68-7.37 0-24.5 2.82-24.5 28.89l-.02 2.76c0 9.52-5.12 17.26-14.04 21.26-.25.12-.53.18-.81.18a2 2 0 0 1-1.83-1.18c-.22-.49-.23-1.03-.04-1.53s.56-.89 1.05-1.11c7.42-3.32 11.67-9.75 11.67-17.63l.02-2.6v-.13c0-20.3 10.92-32.91 28.5-32.91m0-1c-18.2 0-29.5 12.99-29.5 33.9V38l-.02 2.6c0 7.76-4.25 13.66-11.08 16.72a2.996 2.996 0 0 0-1.51 3.96 3.01 3.01 0 0 0 2.74 1.78c.41 0 .83-.08 1.22-.26 9.03-4.04 14.63-12.04 14.63-22.17l.02-2.76c0-8.39 2.29-27.9 23.5-27.9 2.88 0 17.25.95 17.25 19.68 0 1.66 1.34 3 3 3s3-1.34 3-3c0-12.78-7.19-25.68-23.25-25.68z" fill="#eee" opacity=".2"/><path d="M-105.41 79.57c7.85-3.52 12.86-11.23 12.86-20.28l.02-1.75V37.87c0-17.58 8.38-30.9 26.5-30.9 15.38 0 20.25 12.94 20.25 22.68" fill="none" stroke="#424242" stroke-linecap="round" stroke-linejoin="round" stroke-miterlimit="10" stroke-width="6"/><linearGradient id="e" x1="64" x2="64" y1="16.15" y2="123.84" gradientUnits="userSpaceOnUse"><stop stop-color="#E0E0E0" offset="0"/><stop stop-color="#9E9E9E" offset="1"/></linearGradient><path d="M101.67 53.67C101.67 32.9 84.77 16 64 16S26.33 32.9 26.33 53.67v32.58c0 20.77 16.9 37.67 37.67 37.67s37.67-16.9 37.67-37.67V53.67z" fill="url(#e)"/><path d="M198.38 3.83c-23.11 0-42 18.8-42 41.92V56h84V45.75c0-23.11-18.89-41.92-42-41.92zM144.04-77.21H144v52.16h42V-35.3c0-23.11-18.85-41.91-41.96-41.91zM147-14.12V38h4v-52.12c-.66-.03-1.33-.05-2-.05s-1.34.02-2 .05z" fill="#757575"/><path d="M64.08 16c-3.75 0-7.19.56-10.78 1.59V66.5c0 5.97 4.82 10.8 10.78 10.8s10.78-4.84 10.78-10.8V17.59C71.27 16.56 67.83 16 64.08 16z" fill="#757575" opacity=".6"/><path d="M64 52.06c-3.97 0-7.19-3.22-7.19-7.19V34a7.191 7.191 0 0 1 14.38 0v10.87c0 3.98-3.22 7.19-7.19 7.19z" fill="#424242"/><path d="M64 19c19.12 0 34.67 15.55 34.67 34.67v32.58c0 19.12-15.55 34.67-34.67 34.67s-34.67-15.55-34.67-34.67V53.67C29.33 34.55 44.88 19 64 19m0-3c-20.77 0-37.67 16.9-37.67 37.67v32.58c0 20.77 16.9 37.67 37.67 37.67s37.67-16.9 37.67-37.67V53.67C101.67 32.9 84.77 16 64 16z" fill="#424242" opacity=".2"/></svg>