<svg viewBox="0 0 128 128" xmlns="http://www.w3.org/2000/svg"><linearGradient id="a" x1="-93" x2="-93" y1="-73.4" y2="-17.3" gradientUnits="userSpaceOnUse"><stop stop-color="#eee" offset="0"/><stop stop-color="#EAEAEA" offset=".3"/><stop stop-color="#ddd" offset=".6"/><stop stop-color="#C8C8C8" offset=".9"/><stop stop-color="#BDBDBD" offset="1"/></linearGradient><path d="M-42.1-44.7L-48-72.1c-.5-2.2-2.1-3.9-4-3.8h-60.6c-.7 0-2.6 0-4.2 1.7-4.7 5.3-12.5 20.5-13.7 22-.1.2-6.3 2.4-9.1 4-1.2.7-1.8 2.2-2 3.7l-2.4 20.8c-.6 4 1.7 5.7 5.4 5.7h91.5c2.8 0 5.1-.7 5.1-5.7v-19.8l-.1-1.2z" fill="url(#a)"/><path d="M-52-73c.4 0 .9.6 1 1.4a7598 7598 0 0 1 6 28.1v19.8c0 2.8-.5 2.7-2.1 2.7h-91.5c-1.3 0-2-.2-2.3-.5s-.3-1-.1-1.8l2.5-20.9c0-.8.3-1.3.4-1.3 1.9-1.2 5.9-2.7 7.5-3.4 1.5-.5 1.9-.7 2.4-1.3l3-5c2.9-5.1 7.6-13.6 10.7-17 .5-.6 1.2-.8 1.8-.8H-52m0-3h-60.6c-.7 0-2.6 0-4.2 1.8-4.7 5.3-12.5 20.5-13.7 22-.1.2-6.3 2.4-9.1 4-1.1.7-1.8 2.2-2 3.7l-2.4 20.7c-.6 4.1 1.7 5.8 5.4 5.8h91.5c2.8 0 5.1-.7 5.1-5.7v-19.8l-.1-1.2-5.9-27.5c-.5-2.2-2.1-3.8-4-3.8z" fill="#424242" opacity=".2"/><linearGradient id="b" x1="27.1" x2="27.1" y1="-73.4" y2="-17.3" gradientUnits="userSpaceOnUse"><stop stop-color="#616161" offset="0"/><stop stop-color="#5D5D5D" offset=".2"/><stop stop-color="#505050" offset=".5"/><stop stop-color="#3B3B3B" offset=".8"/><stop stop-color="#212121" offset="1"/></linearGradient><path d="M78-44.8l-5.8-27.5c-.5-2.2-2.2-3.7-4-3.7H7.5c-.6 0-2.6 0-4.1 1.7-4.7 5.3-12.6 20.5-13.8 22 0 .2-6.3 2.4-9 4-1.2.7-1.8 2.2-2 3.7l-2.4 20.8c-.7 4 1.7 5.8 5.3 5.8H73c2.8 0 5.1-.8 5.1-5.8v-21z" fill="url(#b)"/><path d="M68.2-73c.3 0 .8.5 1 1.4a10841.5 10841.5 0 0 1 6 28v19.8c0 2.8-.6 2.8-2.2 2.8h-91.5c-1.3 0-2-.3-2.2-.6s-.3-.9-.2-1.8l2.5-20.9c0-.8.4-1.3.5-1.4 1.8-1 5.8-2.6 7.5-3.3 1.4-.5 1.8-.7 2.4-1.4.5-.6 1.2-2 3-5 2.8-5 7.6-13.4 10.6-16.9.6-.6 1.2-.7 1.9-.7h60.7m0-3H7.5c-.7 0-2.6 0-4.1 1.7-4.7 5.3-12.6 20.5-13.8 22 0 .2-6.3 2.4-9 4-1.2.7-1.8 2.2-2 3.7l-2.4 20.8c-.7 4 1.7 5.8 5.3 5.8h91.6c2.8 0 5-.8 5-5.8v-21l-6-27.5c-.4-2.2-2-3.7-4-3.7z" fill="#eee" opacity=".2"/><path fill="#546E7A" d="M36 4h24v120H36z"/><path fill="#455A64" d="M36 59.3l24 22V70L36 48zm0-22.1l24 22V48.1L36 26zm0-22l24 22V26L36 4zM46.7 80L36 70.2V80z"/><path fill="#546E7A" d="M115.1 27H92.7l3.7-14h15z"/><path d="M109.1 16l2.1 8H96.6l2.1-8h10.4m2.4-3H96.3l-3.7 14H115l-3.7-14z" fill="#424242" opacity=".2"/><path d="M114 36H94a6 6 0 0 1 0-12h20a6 6 0 0 1 0 12z" fill="#90A4AE"/><path d="M114 27c1.6 0 3 1.3 3 3s-1.4 3-3 3H94c-1.7 0-3-1.4-3-3s1.3-3 3-3h20m0-3H94a6 6 0 0 0 0 12h20a6 6 0 0 0 0-12z" fill="#424242" opacity=".2"/><path fill="#546E7A" d="M115.1 73H92.7l3.7 14h15z"/><path d="M96.6 76h14.6l-2 8H98.6l-2.1-8m-3.9-3l3.7 14h15l3.7-14H92.7z" fill="#424242" opacity=".2"/><path d="M114 64H94a6 6 0 0 0 0 12h20a6 6 0 0 0 0-12z" fill="#90A4AE"/><path d="M114 67c1.6 0 3 1.4 3 3s-1.4 3-3 3H94c-1.7 0-3-1.4-3-3s1.3-3 3-3h20m0-3H94a6 6 0 0 0 0 12h20a6 6 0 0 0 0-12zM57 7v114H39V7h18m3-3H36v120h24V4z" fill="#424242" opacity=".2"/><path fill="#616161" d="M12 110.1h72.1v8H12z"/><path d="M81.9 112.3v3.6H14.2v-3.6h67.7M84 110H12v8h72v-8z" fill="#424242" opacity=".2"/><circle cx="84" cy="114" r="8" fill="#424242"/><circle cx="12" cy="114" r="8" fill="#424242"/><path d="M119.4 20H28.6C26 20 24 18 24 15.5v-7C24 6.2 26 4 28.6 4h90.8c2.5 0 4.6 2 4.6 4.6v6.9c0 2.5-2.1 4.5-4.6 4.5zm0 76H28.5C26 96 24 94 24 91.4v-6.8c0-2.6 2-4.6 4.5-4.6h90.9c2.5 0 4.5 2 4.5 4.6v6.8c0 2.6-2 4.6-4.5 4.6z" fill="#90A4AE"/><path d="M84 109a5 5 0 1 1 0 10 5 5 0 0 1 0-10m0-3a8 8 0 1 0 0 16 8 8 0 0 0 0-16zm-72 3a5 5 0 1 1 0 10 5 5 0 0 1 0-10m0-3a8 8 0 1 0 0 16 8 8 0 0 0 0-16z" fill="#424242" opacity=".2"/><path d="M64.3 124H31.8c-2 0-3.7-1.6-3.7-3.6v-12.7c0-2 1.6-3.7 3.7-3.7h32.5c2 0 3.7 1.7 3.7 3.7v12.6c0 2-1.6 3.7-3.7 3.7z" fill="#90A4AE"/><path d="M64.3 107c.4 0 .7.3.7.7v12.7c0 .3-.3.6-.7.6H31.8a.7.7 0 0 1-.7-.6v-12.7c0-.4.3-.7.7-.7h32.5m0-3H31.8c-2 0-3.7 1.7-3.7 3.7v12.7c0 2 1.6 3.6 3.7 3.6h32.5c2 0 3.7-1.6 3.7-3.6v-12.7c0-2-1.6-3.7-3.7-3.7zm55.1-97c.8 0 1.5.7 1.5 1.6v6.9c0 .8-.7 1.5-1.5 1.5H28.6c-1 0-1.6-.7-1.6-1.5v-7c0-.8.7-1.5 1.6-1.5h90.8m0-3H28.6C26 4 24 6 24 8.6v6.9c0 2.5 2 4.5 4.6 4.5h90.8c2.5 0 4.6-2 4.6-4.5v-7c0-2.4-2.1-4.5-4.6-4.5zm0 79c.8 0 1.5.7 1.5 1.6v6.8c0 1-.7 1.6-1.5 1.6H28.5c-.8 0-1.5-.7-1.5-1.6v-6.8c0-.9.7-1.6 1.5-1.6h90.9m0-3H28.5C26 80 24 82 24 84.6v6.8c0 2.6 2 4.6 4.5 4.6h90.9c2.5 0 4.5-2 4.5-4.6v-6.8c0-2.6-2-4.6-4.5-4.6z" fill="#424242" opacity=".2"/></svg>