<svg viewBox="0 0 128 128" xmlns="http://www.w3.org/2000/svg" xmlns:xlink="http://www.w3.org/1999/xlink"><path d="M120 87.8L70.3 40.7S59 42 52.2 46.7s-9.2 18-9.2 18 33.2 41 43.8 47.4 22.3.3 25-2 10.6-14 8.1-22.3z" fill="#848484"/><path d="M106.1 89.3s5.3 3.8 3.8 9-6.3 8-6.3 8L86.8 90.2s14.3-5 19.3-.8z" fill="#646464"/><path d="M92.4 112.1s-9.1-4.2-6-13.7c3-8.6 14.4-10.4 19.7-9L83.8 68s-17.4 9.4-16.3 16.6 14.9 26.6 24.9 27.4z" fill="#C2C2C2"/><path d="M100.5 118.8a38 38 0 0 1-13-.1c-9-2.3-15.6-10.6-17.6-13l5.2-7.3A58.3 58.3 0 0 0 91 114c7 3 16.7-.1 22.2-5.7 8.6-8.7 6.4-22.6 7.6-22.6.8 0 2 7.4-.2 14.7a26.8 26.8 0 0 1-20 18.4z" fill="#646464"/><path d="M77 105.5c-1-2.4-2.5-7.5-.7-13C79 84 88.9 78 100.5 78.5a29 29 0 0 0-9.4 4.2c-1.2 1-12.6 9.4-10 19.2 2 7.3 10.4 11.4 17.2 11.3 10 0 20-8.8 22-21.8l-1.4 9.6c-.4 1-1 2.7-2 4.5a23.3 23.3 0 0 1-31.1 8.5" fill="#646464"/><linearGradient id="a" x1="8.7" x2="123.5" y1="72.5" y2="72.5" gradientUnits="userSpaceOnUse"><stop stop-color="#A3A3A3" offset="0"/><stop stop-color="#9A9A9A" offset=".2"/><stop stop-color="#838383" offset=".6"/><stop stop-color="#646464" offset="1"/></linearGradient><path d="M119.5 103.4C126.6 86 107 76 97.5 79c-6.1 2-11.2 5.2-15 9.3-.6.7-3 3.4-5.2 7.6-2.5 4.8-6 11.5-5.8 15.5 0 .3.3 7.2-.3 7.5C70.6 119.2 28 68 9 55.2c-.2-.2-.2-.6-.2-.8.5-3.3 3.6-26.4 24.6-28 22.7-1.7 25 3.2 25 3.2s40 36 57.5 47.7a18 18 0 0 1 3.7 26.1z" fill="url(#a)"/><linearGradient id="b" x1="3.7" x2="86.7" y1="63.5" y2="63.5" gradientUnits="userSpaceOnUse"><stop stop-color="#EEEEEF" offset="0"/><stop stop-color="#E5E5E6" offset=".2"/><stop stop-color="#CECECF" offset=".5"/><stop stop-color="#A8A8A9" offset=".9"/><stop stop-color="#9E9E9F" offset="1"/></linearGradient><path d="M20.7 24.1s-11.3.2-17 12.7c-.1.3 0 .7.1 1 3 4 34 24.3 64.8 65 0 0 7.8-16.6 18-22.1L20.7 24z" fill="url(#b)"/><path d="M32.3 41.6s-4.8 3.6-7.4 6l-11.1-11s6.8-6.6 11.7-6.7l6.8 11.8zm4.7 6.1s-4.8 2.4-7.4 6.5c0 0 8.6 8 15.4 16.5 0 0 4.6-5.5 7-6.8L37 47.7zm22.6 17.5s-7.6 4.4-10.3 8.3c0 0 7.5 9.4 15.9 17.6 0 0 6.4-8.2 9-9.5L59.6 65.2z" fill="#848484"/><path d="M45.1 14.8l-29.5 3.7a1 1 0 0 0-.8 1.5 289.6 289.6 0 0 0 62 67.8c1.5-1.7 4-4.2 7.5-6.5 3.4-2.2 9.6-6.4 18-6a20 20 0 0 1 10.7 4.4c2.2 1.6 7.7 4.8 9 6.6-.7-3-61.9-47.2-76.9-71.5z" fill="#C2C2C2"/><linearGradient id="c" x1="16.2" x2="113.4" y1="17" y2="83.3" gradientUnits="userSpaceOnUse"><stop stop-color="#EEEEEF" offset="0"/><stop stop-color="#ECECED" offset=".3"/><stop stop-color="#E3E3E4" offset=".5"/><stop stop-color="#D6D6D7" offset=".7"/><stop stop-color="#C2C2C3" offset=".8"/><stop stop-color="#A8A8A9" offset="1"/><stop stop-color="#9E9E9F" offset="1"/></linearGradient><path d="M17 14.2c2.1-4.2 10.9-7.6 25.6-3.5 0 0 47 49.5 73.4 66.7 0 0-10.1-8.2-23.3-3.5-8.3 3-15 9.4-15 9.4S60.9 65 51.1 52.8a444.1 444.1 0 0 0-34.3-37c-.4-.5 0-1 .2-1.6z" fill="url(#c)"/><path d="M42.6 88.3a23.1 23.1 0 0 1-2.7-13 30.5 30.5 0 0 1 3.1-12c1-2 2-3.9 3.3-5.7l.3-.3v-.1l.2-.2.6-.6 1-1.3 1.2-1.3 1.3-1.1A31.4 31.4 0 0 1 66.7 45l2.3-.3 2.1-.2h3.4l2.2.3c.5.1 1.2 1.5 1.2 1.5h-1.3l-2 .3-3.1.6-1.9.6-2 .6a47.6 47.6 0 0 0-9 4.5c-1.5 1-3 2.2-4.3 3.5l-1 1-1 1-.8 1.2-.5.6-.1.1s-.1.1 0 0v.1l-.3.3a41.4 41.4 0 0 0-6.4 15.2 29.8 29.8 0 0 0 .6 11.7l.6 2 .3 1c0 .4-2.7-1.3-3.1-2.2z" fill="#A1887F"/><path d="M39.5 84.6c-2-3.1-1.7-8.8-1.7-9.7l.1-2.5c0-.9.2-1.8.4-2.7A33.3 33.3 0 0 1 42.5 58c1.1-1.8 2.5-3.6 4-5.2l.2-.2.2-.2.3-.2.5-.6 1.3-1c.8-.8 1.7-1.4 2.6-2A35 35 0 0 1 68 42.8l2.3-.1 2.1.1 1.8.2 1.5.3c1 .2.8.3 1.3.5 1.6 1 1 2.4 1 2.4s-.7-.7-1.2-.7c-.4 0-.4-.2-1.3-.1l-3 .2c-.7 0-1.3.2-2 .3l-2 .4a40.2 40.2 0 0 0-14 6.4l-2 1.8c-.4.3-.7.5-1.1 1l-1 1a31.6 31.6 0 0 0-7.8 14c-.5 1.6-.8 3.2-1 4.6l-.3 2.1-.2 2v3l.1 3.2c-.3.4-.5.2-1.7-.9z" fill="#795548"/><defs><path id="d" d="M17 14.2c2.1-4.2 10.9-7.6 25.6-3.5 0 0 46 50.5 73.9 66.7 0 0-10.6-8.2-23.8-3.5-8.3 3-15 9.4-15 9.4S60.9 65 51 52.8a441.8 441.8 0 0 0-34.3-37c-.4-.5 0-1 .2-1.6z"/></defs><clipPath id="e"><use xlink:href="#d"/></clipPath><g clip-path="url(#e)"><path d="M90.6 29.8s-8.7-.2-18.2 5.9l-12.2-14s7.7-5.6 19-3.6c0 0 8.2 9.1 11.4 11.7z" fill="#848484"/><path d="M44.8 36.7A27 27 0 0 1 65 31.6" fill="none" stroke="#B4B4B5" stroke-linecap="round" stroke-linejoin="round" stroke-miterlimit="10" stroke-width="2.9"/><path d="M51.8 43a27 27 0 0 1 20.3-5m-5.6 19a27 27 0 0 1 20.2-5.1M74 63.7a27 27 0 0 1 20.3-5.1M81.8 69.9a27 27 0 0 1 20.2-5.1" fill="none" stroke="#B4B4B5" stroke-linecap="round" stroke-linejoin="round" stroke-miterlimit="10" stroke-width="2"/></g><path d="M30.2 11.8c3.2 0 6.8.5 10.7 1.5l32.3 32.2 1.4.7h.4a3 3 0 0 0 1 1.8c2 2 14 12.7 14.5 13.2l7.4 6.3 11.4 8.9 1.3.8.4.4 1.5 1 .1.2 1 .6.4.3c2.3 1.5 5.3 5 6.1 9.5.8 4-.3 8.2-3.1 12.3a24.2 24.2 0 0 1-5.5 8.1c-4 4-8.5 5.5-11.6 6.2-1.9.2-4 .5-6.4.5-2 0-3.9-.2-5.4-.6a29 29 0 0 1-14-9.7 3 3 0 0 0-5.2 1.2c-.4 1.6-.6 3-.6 4.2l-2.5-2.9c-4.7-5.2-11.1-12.5-18-20a3 3 0 0 0-1.6-1l-1.2-.8a18 18 0 0 1-.8-1.8 3 3 0 0 0-.6-.9l-.5-.5a3 3 0 0 0-1.3-.8l-.3-.6a238.8 238.8 0 0 0-29.8-28.6 44 44 0 0 1 2.2-8.3 3 3 0 0 0-.9-3.4l-.5-.4-5.6-4.7c3.4-6.5 8.6-8.6 11.5-9.3a3 3 0 0 0 1.8-4.6L19 21h.4a3 3 0 1 0 1.7-5.1l-1-1.1c1.2-1.4 4.2-3 10.1-3m0-3c-7.4 0-11.9 2.5-13.3 5.3-.3.6-.7 1.1-.2 1.6L19 18l-3.6.4a1 1 0 0 0-.7 1.5l3 4.6c-3.7.9-10.2 3.6-14 12.2a1 1 0 0 0 0 1 68 68 0 0 0 7.4 6.4c-1.8 4.8-2.4 9-2.6 10.3 0 0 0 .6.2.7 7.6 5.1 19 16.4 30 28l.7 1.5c.8.7 1.2 1 1.4 1h.2l.4.5 1 2.2a8 8 0 0 0 3 2.2h.1c13.6 14.8 25.1 28.3 25.6 28.3.5-.3.3-7.2.3-7.5 0-1 .1-2 .4-3.3a33 33 0 0 0 15.6 10.6c2 .5 4 .7 6.1.7a26.8 26.8 0 0 0 25.9-16 18 18 0 0 0-3.5-26l-1.7-1.1-1.4-1 .7.4a92 92 0 0 1-13.7-10.4L92.5 59 78 46c0-.6 0-1.4-1.1-2.1-.5-.1-.3-.3-1.3-.4l-.3-.1-32.8-32.6a45.9 45.9 0 0 0-12.3-2z" fill="#444" opacity=".2"/></svg>