<svg viewBox="0 0 128 128" xmlns="http://www.w3.org/2000/svg"><linearGradient id="a" x1="-93.047" x2="-93.047" y1="-73.413" y2="-17.291" gradientUnits="userSpaceOnUse"><stop stop-color="#eee" offset=".005"/><stop stop-color="#EAEAEA" offset=".282"/><stop stop-color="#ddd" offset=".577"/><stop stop-color="#C8C8C8" offset=".879"/><stop stop-color="#BDBDBD" offset="1"/></linearGradient><path d="M-42.13-44.72c-.91-4.33-4.3-20.11-5.87-27.41-.47-2.21-2.11-3.82-3.99-3.81-5.36 0-15.39-.05-16.6-.05h-44.08c-.61 0-2.56.06-4.11 1.79-4.7 5.27-12.54 20.52-13.76 22.07-.08.1-6.27 2.31-9.09 4-1.12.67-1.74 2.13-1.9 3.63l-2.46 20.75c-.64 4.1 1.7 5.76 5.37 5.76h91.51c2.8 0 5.11-.68 5.11-5.69v-19.79c0-.43-.05-.85-.13-1.25z" fill="url(#a)"/><defs><path id="b" d="M-42.13-44.78c-.91-4.32-4.3-20.06-5.87-27.34-.47-2.21-2.11-3.82-3.99-3.82-5.36 0-15.39-.06-16.6-.06h-44.08c-.61 0-2.56.07-4.11 1.8-4.7 5.26-12.54 20.51-13.76 22.05-.08.1-6.27 2.28-9.09 3.96-1.12.67-1.74 2.13-1.9 3.62l-2.46 20.76c-.64 4.09 1.7 5.81 5.37 5.81h91.51c2.8 0 5.11-.79 5.11-5.8v-19.74c0-.42-.05-.83-.13-1.24z"/></defs><path d="M-51.98-73c.36 0 .87.59 1.05 1.44 1.46 6.78 4.95 23.06 5.86 27.43.04.2.07.44.07.66v19.79c0 2.81-.49 2.69-2.11 2.69h-91.51c-1.3 0-2.02-.23-2.25-.5s-.3-.92-.16-1.77c.01-.04.01-.06.02-.09l2.47-20.83c.08-.8.36-1.28.46-1.36 1.87-1.12 5.83-2.66 7.51-3.31 1.46-.57 1.86-.72 2.39-1.39.5-.63 1.28-2 2.99-5.03 2.85-5.03 7.61-13.53 10.65-16.93.57-.64 1.22-.79 1.87-.79h60.69-.02m.02-3.01s-.01 0 0 0h-60.7c-.63 0-2.55.08-4.08 1.79-4.7 5.27-12.54 20.52-13.76 22.07-.08.1-6.27 2.31-9.09 4-1.12.67-1.74 2.13-1.9 3.63l-2.46 20.75c-.64 4.1 1.7 5.76 5.37 5.76h91.51c2.8 0 5.11-.68 5.11-5.69v-19.79c0-.42-.05-.84-.13-1.24-.91-4.33-4.3-20.17-5.87-27.47-.49-2.21-2.13-3.81-4-3.81z" fill="#424242" opacity=".2"/><linearGradient id="c" x1="46.43" x2="46.43" y1="-117.5" y2="-61.374" gradientUnits="userSpaceOnUse"><stop stop-color="#616161" offset=".011"/><stop stop-color="#5D5D5D" offset=".25"/><stop stop-color="#505050" offset=".504"/><stop stop-color="#3B3B3B" offset=".766"/><stop stop-color="#212121" offset="1"/></linearGradient><path d="M97.35-88.93c-.91-4.33-4.3-20.11-5.86-27.41-.47-2.21-2.11-3.75-3.99-3.75-5.36 0-15.39.01-16.6.01H26.82c-.61 0-2.56-.01-4.11 1.73C18-113.07 10.16-97.86 8.95-96.31c-.08.1-6.27 2.3-9.09 3.99-1.12.67-1.74 2.12-1.9 3.62L-4.5-67.9c-.64 4.1 1.7 5.82 5.37 5.82h91.51c2.8 0 5.1-.8 5.1-5.81v-19.79c-.01-.43-.05-.84-.13-1.25z" fill="url(#c)"/><defs><path id="d" d="M97.35-88.98c-.91-4.32-4.3-20.06-5.86-27.34-.47-2.21-2.11-3.74-3.99-3.74-5.36 0-15.39.01-16.6.01H26.82c-.61 0-2.56-.01-4.11 1.72C18-113.06 10.16-97.85 8.95-96.31c-.08.1-6.27 2.26-9.09 3.94-1.12.67-1.74 2.12-1.9 3.61L-4.51-68c-.64 4.09 1.7 5.8 5.37 5.8h91.51c2.8 0 5.1-.79 5.1-5.8v-19.74c0-.42-.04-.84-.12-1.24z"/></defs><path d="M87.5-117.08c.36 0 .87.53 1.05 1.38 1.46 6.78 4.94 23.03 5.86 27.4.04.2.06.41.06.63v19.79c0 2.81-.49 2.81-2.1 2.81H.86c-1.3 0-2.02-.29-2.25-.56s-.3-.95-.16-1.8l.02-.1L.94-88.37c.08-.8.36-1.28.46-1.36 1.87-1.12 5.83-2.66 7.51-3.31 1.46-.57 1.86-.72 2.39-1.39.5-.63 1.28-2 2.99-5.03 2.85-5.03 7.61-13.46 10.65-16.87.57-.64 1.22-.72 1.87-.72h44.08c.75 0 4.89 0 9.21-.01l7.4-.02m0-3c-5.36 0-15.39.01-16.6.01H26.8c-.63 0-2.55.01-4.08 1.73C18-113.07 10.16-97.86 8.95-96.31c-.08.1-6.27 2.3-9.09 3.99-1.12.67-1.74 2.12-1.9 3.62L-4.5-67.9c-.64 4.1 1.7 5.82 5.37 5.82h91.51c2.8 0 5.1-.8 5.1-5.81v-19.79c0-.42-.04-.84-.13-1.24-.91-4.33-4.3-20.11-5.86-27.41-.48-2.22-2.12-3.75-3.99-3.75z" fill="#eee" opacity=".2"/><linearGradient id="e" x1="90.28" x2="101.56" y1="26.238" y2="37.523" gradientUnits="userSpaceOnUse"><stop stop-color="#B0BEC5" offset=".002"/><stop stop-color="#90A4AE" offset="1"/></linearGradient><path d="M113.73 14.59l-.52-.52a7.61 7.61 0 0 0-10.76 0L72.73 43.79l11.28 11.28 29.71-29.71c2.98-2.98 2.98-7.8.01-10.77z" fill="url(#e)"/><path fill="#78909C" d="M82.45 34.07l.97 21.6 5.23-5.24-.96-21.6zM92.82 23.7l.97 21.6 5.23-5.24-.96-21.6zM103.19 13.33l.96 21.6 5.24-5.24-.96-21.6z"/><path d="M107.83 14.84c1.23 0 2.39.48 3.26 1.35l.52.52c1.8 1.8 1.8 4.72 0 6.52l-27.59 27.6-7.04-7.04 27.59-27.59c.87-.88 2.03-1.36 3.26-1.36m0-3c-1.95 0-3.9.74-5.38 2.23L72.73 43.79l11.28 11.28 29.71-29.71a7.61 7.61 0 0 0 0-10.76l-.52-.52a7.542 7.542 0 0 0-5.37-2.24z" fill="#424242" opacity=".2"/><linearGradient id="f" x1="57.367" x2="91.472" y1="45.374" y2="45.374" gradientTransform="scale(1 -1) rotate(-45 -99.712 18.315)" gradientUnits="userSpaceOnUse"><stop stop-color="#eee" offset="0"/><stop stop-color="#BDBDBD" offset="1"/></linearGradient><path d="M77.68 67.12l-61.76 51.49-9.14 5.13c-1.63.91-3.42-.89-2.51-2.51L9.44 112l51.27-61.86 13.3-8.74 12.41 12.41-8.74 13.31z" fill="url(#f)"/><path d="M73.61 45.25l8.95 8.95-7.15 10.9-61.21 51.03-5.32 2.98 3.03-5.41 50.81-61.3 10.89-7.15m.4-3.85l-13.3 8.74L9.44 112l-5.17 9.23c-.74 1.32.31 2.76 1.6 2.76.3 0 .61-.08.91-.25l9.14-5.13 61.76-51.49 8.73-13.32-12.4-12.4z" fill="#424242" opacity=".2"/><ellipse transform="rotate(-45.001 111.993 16.026)" cx="111.99" cy="16.02" rx="12" ry="12" fill="#546E7A"/><path d="M111.99 7.02c2.4 0 4.67.94 6.37 2.64 3.51 3.51 3.51 9.22 0 12.73-1.7 1.7-3.96 2.64-6.37 2.64s-4.67-.94-6.37-2.64c-3.51-3.51-3.51-9.22 0-12.73a8.983 8.983 0 0 1 6.37-2.64m0-3c-3.07 0-6.14 1.17-8.49 3.52-4.69 4.69-4.69 12.29 0 16.97 2.34 2.34 5.42 3.52 8.49 3.52s6.14-1.17 8.49-3.52c4.69-4.69 4.69-12.29 0-16.97a11.947 11.947 0 0 0-8.49-3.52z" fill="#424242" opacity=".2"/><path d="M103.51 68.94c-.01-.01 0-.03-.01-.03l-.02-.02-44.52-44.53-.02-.02c-3.31-3.31-8.7-3.3-12.01.01s-3.47 8.84-.15 12.16c2.81 2.81 7.43 2.9 10.2 1.43l32.91 32.91c-1.47 2.77-1.39 7.4 1.42 10.21 3.31 3.31 8.77 3.23 12.08-.08 3.3-3.3 3.39-8.72.12-12.04z" fill="#546E7A"/><path d="M52.94 24.86c1.47 0 2.84.57 3.89 1.62l44.35 44.35c.06.07.12.15.19.21 2.11 2.14 2.06 5.64-.11 7.81a5.618 5.618 0 0 1-4 1.65c-1.47 0-2.83-.56-3.84-1.57-1.89-1.89-1.73-5.1-.89-6.68.62-1.16.4-2.59-.53-3.52L59.1 35.82c-.58-.58-1.34-.88-2.12-.88-.48 0-.96.11-1.4.35-.71.38-1.69.59-2.68.59-1.59 0-3.05-.54-4-1.49-1.01-1.01-1.56-2.4-1.53-3.9s.64-2.96 1.68-4.01 2.42-1.62 3.89-1.62m0-3c-2.18 0-4.36.83-6.01 2.49-3.31 3.31-3.47 8.84-.15 12.16 1.66 1.66 3.95 2.37 6.12 2.37 1.5 0 2.95-.34 4.08-.94l32.91 32.91c-1.47 2.77-1.39 7.4 1.42 10.21a8.392 8.392 0 0 0 5.96 2.45c2.22 0 4.44-.85 6.12-2.53 3.3-3.3 3.39-8.72.12-12.03-.01-.01 0-.03-.01-.03l-.02-.02-44.52-44.54-.02-.02a8.49 8.49 0 0 0-6-2.48z" fill="#424242" opacity=".2"/></svg>