<svg viewBox="0 0 128 128" xmlns="http://www.w3.org/2000/svg"><radialGradient id="a" cx="64" cy="15.5" r="120.5" gradientTransform="matrix(0 1 -.437 0 70.8 -48.5)" gradientUnits="userSpaceOnUse"><stop stop-color="#EF5350" offset="0"/><stop stop-color="#EC4F4C" offset=".3"/><stop stop-color="#E34341" offset=".7"/><stop stop-color="#D32F2F" offset="1"/><stop stop-color="#D32F2F" offset="1"/></radialGradient><path d="M102 120h-2.8l-.2-.3-2-2-.3-.2a60.7 60.7 0 0 1-5.8-7.6l-.1-.2A81.1 81.1 0 0 1 83.5 96l-.9-2a162.7 162.7 0 0 1-3-8c-2.6-7.4-4.8-15.3-7-23.4a45 45 0 0 1-.9-5.3L66 5.8c-.2-2.4-3.8-2.4-4 0l-5.7 51.5a31 31 0 0 1-1 5.3 307 307 0 0 1-10 31.4l-.8 2-.4 1a114.5 114.5 0 0 1-6.9 12.8 63.4 63.4 0 0 1-6 7.7l-.2.3-2 2-.2.1H26a2 2 0 0 0-2 2v2h20v-2a2 2 0 0 0-2-2h-.1a26.3 26.3 0 0 1 44.1 0 2 2 0 0 0-2 2v2h20v-2c0-1-.9-1.9-2-1.9zM76 88l1.2 3.1c.1.5-.4.8-.8.5L73.8 89a.6.6 0 0 1 .5-1H76zm-4.9 1.1l4 3.9c.3.4 0 1-.5 1h-7.8a.6.6 0 0 1-.4-1l4-3.9c.1-.2.5-.2.7 0zM65 90.5V88h2.2c.5 0 .7.6.4 1l-1.8 1.8c-.3.3-.8.1-.8-.3zM52 88h1.7c.6 0 .8.6.5 1l-2.6 2.6c-.4.4-1 0-.8-.5L52 88zm5.7 1.1l3.9 3.9c.4.4.1 1-.4 1h-7.8a.6.6 0 0 1-.4-1l3.9-3.9c.2-.2.6-.2.8 0zM48.1 98c0-.3.2-.5.3-.7a2 2 0 0 1 1.8-1.2H54c.4 0 .6.5.3.8l-4.9 4.8c-.2.2-.5.2-.7 0-1-1-1.3-2.4-.7-3.7zm4.8 3.3l4-4.2h.7l4.1 4.2c.3.3.1.8-.3.8h-8.2a.5.5 0 0 1-.4-.8zm9-2.6l-1.7-1.8c-.3-.3 0-.8.3-.8h2c.3 0 .5.2.5.5v1.7c0 .5-.6.8-1 .4zm.3-7.8L60.4 89a.6.6 0 0 1 .4-1H63v2.5c0 .4-.5.6-.8.3zM53.3 84a291 291 0 0 0 5-17.3A3.6 3.6 0 0 1 62 64h4c1.7 0 3 1.1 3.5 2.7 1.6 6 3.3 11.7 5.1 17.3H53.3zm12.2 12h2c.4 0 .6.5.3.8L66 98.6c-.4.4-1 0-1-.4v-1.7c0-.3.2-.5.5-.5zm.8 5.2l4-4.2h.7l4.2 4.2c.3.3 0 .8-.4.8h-8.2a.5.5 0 0 1-.3-.8zm12.2.4l-4.9-4.8c-.3-.3 0-.8.4-.8h4.2c.5 0 1 .4 1.3.9l.4 1c.6 1.3.3 2.8-.7 3.7-.2.2-.5.2-.7 0z" fill="url(#a)"/><path fill="#eee" d="M67.1 16H61l-1.4 12h9zm2.7 24H58.2L57 52h14z"/><path d="M64 6l5.7 51.5c.2 2 .6 3.8 1 5.6a310.4 310.4 0 0 0 10 31.7l1 2v.3c.2.2.3.4.3.7l1 2a112.3 112.3 0 0 0 6.1 11v.2l2 2.7a60 60 0 0 0 2 2.6l.1.2 2 2.3.3.2 2 2.2.3.2.6.6h3.6-12.4l-1.9-3c-4.9-8-14-13-23.8-13s-18.8 5-23.7 13l-1.9 3H42 29.6l.5-.5h.1l.2-.3a55 55 0 0 0 2-2l.1-.2.2-.2 2-2.3.2-.1v-.1l2-2.5 2-2.8v-.1a81.3 81.3 0 0 0 7-13.1l.3-.6.2-.4.8-2 2.4-6 .7-2.1c2.9-8.2 5.2-16.9 7-23.5.4-1.8.8-3.7 1-5.6L64 6m0-2a2 2 0 0 0-2 1.8l-5.7 51.5a31 31 0 0 1-1 5.3 307 307 0 0 1-10 31.4l-.8 2-.4 1a114.5 114.5 0 0 1-6.9 12.8 63.4 63.4 0 0 1-6 7.7l-.2.3-2 2-.2.1H26a2 2 0 0 0-2 2v2h20v-2a2 2 0 0 0-2-2h-.1a26.3 26.3 0 0 1 44.1 0 2 2 0 0 0-2 2v2h20v-2a2 2 0 0 0-2-2h-2.8l-.2-.2-2-2-.3-.2a60.7 60.7 0 0 1-5.8-7.6l-.1-.2A81.1 81.1 0 0 1 83.5 96l-.9-2a162.7 162.7 0 0 1-3-8c-2.6-7.4-4.8-15.3-7-23.4a45 45 0 0 1-.9-5.3L66 5.8A2 2 0 0 0 64 4z" fill="#424242" opacity=".2"/><path d="M78 84H50a2 2 0 0 1-2-2v-8c0-1.1.9-2 2-2h28a2 2 0 0 1 2 2v8a2 2 0 0 1-2 2z" fill="#eee"/><path d="M54 77.3h-1c-.6 0-1-.5-1-1s.5-1 1-1h1c.6 0 1 .4 1 1s-.5 1-1 1zm5.3 0h-1a1 1 0 0 1 0-2h1c.5 0 1 .4 1 1s-.5 1-1 1zm5.2 0h-1c-.6 0-1-.5-1-1s.5-1 1-1h1c.6 0 1 .4 1 1s-.5 1-1 1zm5.3 0h-1a1 1 0 0 1 0-2h1c.5 0 1 .4 1 1s-.5 1-1 1zm5.2 0h-1c-.6 0-1-.5-1-1s.5-1 1-1h1c.6 0 1 .4 1 1s-.5 1-1 1zM54 80.7h-1c-.6 0-1-.4-1-1s.5-1 1-1h1c.6 0 1 .5 1 1s-.5 1-1 1zm5.3 0h-1c-.6 0-1-.4-1-1s.4-1 1-1h1c.5 0 1 .5 1 1s-.5 1-1 1zm5.2 0h-1c-.6 0-1-.4-1-1s.5-1 1-1h1c.6 0 1 .5 1 1s-.5 1-1 1zm5.3 0h-1c-.6 0-1-.4-1-1s.4-1 1-1h1c.5 0 1 .5 1 1s-.5 1-1 1zm5.2 0h-1c-.6 0-1-.4-1-1s.5-1 1-1h1c.6 0 1 .5 1 1s-.5 1-1 1z" fill="#E0E0E0"/><path d="M78 74v8H50v-8h28m0-2H50a2 2 0 0 0-2 2v8c0 1.1.9 2 2 2h28a2 2 0 0 0 2-2v-8a2 2 0 0 0-2-2z" fill="#424242" opacity=".2"/></svg>