<svg viewBox="0 0 128 128" xmlns="http://www.w3.org/2000/svg"><radialGradient id="a" cx="62.6" cy="24.5" r="55.3" gradientTransform="matrix(0 1 -1.2391 0 93 -38)" gradientUnits="userSpaceOnUse"><stop stop-color="#1976D2" offset="0"/><stop stop-color="#1873CF" offset=".3"/><stop stop-color="#1669C5" offset=".5"/><stop stop-color="#1259B4" offset=".7"/><stop stop-color="#0D47A1" offset=".8"/><stop stop-color="#0D47A1" offset="1"/></radialGradient><path d="M72 5.3H56S41.5 28.5 8 47.1a8 8 0 0 0-4.1 7v39.2h119.9V54.1a8 8 0 0 0-4.2-7C86.5 28.4 72 5.3 72 5.3z" fill="url(#a)"/><linearGradient id="b" x1="63.9" x2="63.9" y1="64.6" y2="42.5" gradientUnits="userSpaceOnUse"><stop stop-color="#283593" offset="0"/><stop stop-color="#283593" stop-opacity="0" offset="1"/></linearGradient><path d="M72 5.3H56S41.5 28.5 8 47.1a8 8 0 0 0-4.1 7v39.2h119.9V54.1a8 8 0 0 0-4.2-7C86.5 28.4 72 5.3 72 5.3z" fill="url(#b)"/><radialGradient id="c" cx="62.1" cy="7.8" r="19.6" gradientTransform="scale(.999 1)" gradientUnits="userSpaceOnUse"><stop stop-color="#fff" offset="0"/><stop stop-color="#FCFEFF" offset=".4"/><stop stop-color="#F4FBFF" offset=".7"/><stop stop-color="#E5F6FE" offset="1"/><stop stop-color="#E1F5FE" offset="1"/></radialGradient><path d="M39 34.5s7.7-8.7 8.9-5.9 1.7 2 2.8 11.4c0 0 1 2.9 1.9-1.9s1.1-9.6 3.7-8.5.7 2.6 3.2 5.2c2.4 2.7 3.9-8.5 7.6-8s7.8 11.4 19.3 14c0 0 2.5.4-1.7-3.4S79 27 81.5 27.4c2.4.4 8 7.6 9.3 7.3s-2.1-2.9 0-3.3C92.6 31 104 43.2 113 43.1A136.2 136.2 0 0 1 72.9 5.4 3.2 3.2 0 0 0 70.2 4l-3.8.6a14 14 0 0 1-5 0L57.8 4c-1 0-2 .5-2.7 1.4-2.4 3.5-9.8 14.5-22.9 25.3 0 1-.3 2.3-1.5 4 0 0 11.5-9 8.4-.2z" fill="url(#c)"/><linearGradient id="d" x1="77.4" x2="77.4" y1="3.3" y2="33" gradientUnits="userSpaceOnUse"><stop stop-color="#E1F5FE" offset="0"/><stop stop-color="#D5F1FD" offset=".4"/><stop stop-color="#B4E5FC" offset="1"/><stop stop-color="#B3E5FC" offset="1"/></linearGradient><path d="M69.9 17s.6-.2.8 1c.2 1.1.2 5.9.9 6 .6.1 1.3-.2.9-3.1S74.2 23 75 23s.8-.1 1.7.9c.8 1-.2-2.1-1.8-4.3s1.2-.3 1.5.1 3.2 4.2 3.7 5.1c1.7 3.3 6.5 4.5 6 3.8-1.3-1.4-1.5-3.3-4.7-5.8s-2.6-6-4.6-5.6c-1 .2-1.6-.2-1.7-.3l-.1-.1c-4.2-8.8-4.8-8.3-5.3-8.3l-.4.2c-.3 1.8-1.2 8.5.6 8.2z" fill="url(#d)"/><linearGradient id="e" x1="66" x2="66" y1="3.3" y2="33" gradientUnits="userSpaceOnUse"><stop stop-color="#E1F5FE" offset="0"/><stop stop-color="#D5F1FD" offset=".4"/><stop stop-color="#B4E5FC" offset="1"/><stop stop-color="#B3E5FC" offset="1"/></linearGradient><path d="M64.2 16.5c0 1 0 2.2.3 2.3.3 0 .5-1.1.9-1.8s.3.5.4 1c.3 2.4.8 3.8 1.9 4.8.2.3-1.6-5.5-1.2-8l.5-3c-.2 0-1.2-1-1.9-1.2-.3 1.5-.9 5.1-.9 6z" fill="url(#e)"/><path d="M93.3 38c-.2-.3.2-.6.5-.4 3.9 3 17.6 10.4 23 14 .5.3.2 1-.4 1-2-.3-5.8-1.3-6.3-2-.7-.8-4-2.6-5-3.2l-.7-.3-4-1.8a5 5 0 0 1-2-1.5l-5-5.8zm-5-1c-.2-.1-.4 0-.4.4l1.6 5.8c0 .4.1.8.4 1.1L96 51l-2-4.7c-.1-.2 0-.4.2-.3l6.2 3.6c.3.1.4-.4.7-1.2L88.3 37zM70 30.9c-.2-.3-.5 0-.5.4L70 39c-.2.5 0 1 .2 1.5l6.2 10.2-1.5-6.5c0-.3.1-.6.3-.4l7 6.2c.4.2.7-.3 1.3-1.3l-13.4-18zM37.2 37c.2-.3-.2-.6-.5-.4-3.9 3-17.8 11-23.2 14.5-.5.4-.2 1.2.4 1.1 2-.3 5.8-1.4 6.3-2a27.5 27.5 0 0 1 5.8-3.7l4-2c.9-.3 1.6-.8 2.2-1.5l5-6zm7.3-3.5c.2-.2.5 0 .5.4l-1.2 6.6c0 .4 0 .9-.3 1.2l-6.3 8.1 2-5.4c0-.2-.1-.5-.3-.3l-6.6 4.5c-.3.2-.5-.3-1-1.2l13.2-13.9z" fill="#0D47A1" opacity=".4"/><linearGradient id="f" x1="52.5" x2="52.5" y1="3.3" y2="33" gradientUnits="userSpaceOnUse"><stop stop-color="#E1F5FE" offset="0"/><stop stop-color="#D5F1FD" offset=".4"/><stop stop-color="#B4E5FC" offset="1"/><stop stop-color="#B3E5FC" offset="1"/></linearGradient><path d="M56.6 11.5c.2-.2.4 0 .4.3l-.3 4.9c0 .3 0 .7-.2 1l-4 6.3 1-4.1c0-.2 0-.3-.2-.2l-4.5 3.8c-.2.2-.3-.2-.7-.8l8.5-11.2z" fill="url(#f)"/><linearGradient id="g" x1="-232.1" x2="-232.1" y1="51.7" y2="66.2" gradientTransform="matrix(-1 0 0 1 -168 0)" gradientUnits="userSpaceOnUse"><stop stop-color="#9CCC65" offset="0"/><stop stop-color="#95C75E" offset=".3"/><stop stop-color="#83B849" offset=".7"/><stop stop-color="#7DB443" offset=".8"/><stop stop-color="#7CB342" offset="1"/></linearGradient><path d="M4.1 60c0-7.3 9.7-10 13.2-3.6v.1c.7.7 1.2 1.6 1.5 2.5v.3c.2.5.8.7 1.3.6a4 4 0 0 1 1-.1 5 5 0 0 1 3.6 1.7c.7.8 1.9.8 2.7.1a12.5 12.5 0 0 1 13.8-1c.8.5 1.9.2 2.5-.6a19 19 0 0 1 28-3.2c.4.3 1 .3 1.4 0 .9-.8 2-1.3 3-1.3 1.2 0 2.2.5 3 1.2.4.3.9.3 1.3 0a13.8 13.8 0 0 1 17.5 2c.4.5 1 .4 1.4 0 1-.9 2.1-1.4 3.3-1.4a5 5 0 0 1 3.6 1.7c.4.4 1.1.5 1.5 0h.1c5.8-6.2 16.2-2 16.2 6.5V71H4.1V60z" fill="url(#g)"/><path d="M59.2 54c4 0 8 1.5 11.2 4.3a3 3 0 0 0 4 0c.6-.5 1.2-.7 1.8-.7.6 0 1.1.2 1.7.7a3 3 0 0 0 3.5.2 11.9 11.9 0 0 1 15 1.7 3 3 0 0 0 2.2.9 3 3 0 0 0 2-.9c.7-.6 1.4-.9 2-.9 1 0 1.7.6 2.2 1.1a3 3 0 0 0 2.2 1 3 3 0 0 0 2.2-1 7 7 0 0 1 5.3-2.3c4.6 0 7.5 3.8 7.5 7.4v3.6H6.1V60a5 5 0 0 1 5.2-5.1c1 0 3 .3 4.3 2.5v.1l.1.2.2.2c.4.5.8 1.1 1 1.8l.1.2a3 3 0 0 0 3.6 2l.5-.1c1 0 1.6.6 2.1 1 .7.9 1.8 1.3 2.9 1.3.9 0 1.8-.3 2.5-.9a10.5 10.5 0 0 1 11.6-.8c.5.3 1.2.4 1.8.4a4 4 0 0 0 3.3-1.6A17 17 0 0 1 59.2 54m0-2c-6.4 0-12 3.1-15.5 8a2 2 0 0 1-1.7.8c-.3 0-.6 0-.9-.2a12.4 12.4 0 0 0-13.7 1c-.4.4-.9.5-1.3.5a2 2 0 0 1-1.5-.6 5 5 0 0 0-3.5-1.7 4 4 0 0 0-1 .1h-.3a1 1 0 0 1-1-.6V59a7.7 7.7 0 0 0-1.5-2.7 6.7 6.7 0 0 0-6-3.6A7 7 0 0 0 4.1 60v11H124v-5.6c0-5.7-4.7-9.5-9.5-9.5a9 9 0 0 0-6.7 3l-.1.1a1 1 0 0 1-.7.3 1 1 0 0 1-.8-.3 5 5 0 0 0-3.6-1.8c-1.2 0-2.4.6-3.3 1.5a1 1 0 0 1-.7.3 1 1 0 0 1-.7-.3 14 14 0 0 0-17.5-2 1 1 0 0 1-.6.2 1 1 0 0 1-.6-.3c-1-.7-2-1.1-3-1.1-1.2 0-2.2.4-3.1 1.2a1 1 0 0 1-.7.3l-.7-.3c-3.3-3-7.7-4.8-12.5-4.8z" fill="#424242" opacity=".2"/><path d="M57.6 7l3.4.6a19 19 0 0 0 5.9 0l3.4-.6.1.1a143.2 143.2 0 0 0 47.9 42.6 5 5 0 0 1 2.6 4.4v36.3H7V54a5 5 0 0 1 2.6-4.4c8.8-4.9 17.1-10.6 24.7-16.9 12.5-10.4 20-21 22.7-25l.5-.7m12.8-3l-3.8.6a15.5 15.5 0 0 1-5 0L57.8 4c-1 0-2 .5-2.7 1.4-2.4 3.4-9.7 14.4-22.6 25A161 161 0 0 1 8.1 47.2a8 8 0 0 0-4.1 7v39.2h119.9V54.1a8 8 0 0 0-4.2-7c-2.3-1.3-4.6-2.6-6.7-4A136.2 136.2 0 0 1 72.9 5.4 3.2 3.2 0 0 0 70.2 4z" fill="#424242" opacity=".2"/><radialGradient id="h" cx="63.7" cy="65.8" r="75.8" gradientTransform="scale(.999 1)" gradientUnits="userSpaceOnUse"><stop stop-color="#90CAF9" offset="0"/><stop stop-color="#81C3F8" offset="0"/><stop stop-color="#58B0F6" offset=".1"/><stop stop-color="#3AA2F4" offset=".2"/><stop stop-color="#2799F3" offset=".3"/><stop stop-color="#2196F3" offset=".4"/><stop stop-color="#1B7FDB" offset=".6"/><stop stop-color="#0D47A1" offset="1"/></radialGradient><path fill="url(#h)" d="M4 64h119.9v60H4z"/><path d="M120.9 67v54H7V67h113.9m3-3H4v60h119.9V64z" fill="#424242" opacity=".2"/><linearGradient id="i" x1="63.9" x2="63.9" y1="48.4" y2="79.3" gradientUnits="userSpaceOnUse"><stop stop-color="#1976D2" offset="0"/><stop stop-color="#166AC5" offset=".2"/><stop stop-color="#0D47A1" offset=".8"/><stop stop-color="#0D47A1" offset=".8"/><stop stop-color="#0D47A1" offset="1"/></linearGradient><path d="M4 64v5.5c0 2.7 1.6 5.1 4.1 6.5 9.7 5 17.7 10.3 24.3 15.4l-.3-.2c0-1-.3-2.2-1.5-3.7 0 0 11.5 8.4 8.4.1 0 0 7.6 8.2 8.9 5.6s1.7-1.8 2.8-10.6c0 0 1-2.7 1.9 1.7s1.1 9 3.7 8 .7-2.5 3.1-5 4 8 7.7 7.6c3.6-.4 7.8-10.6 19.3-13.1 0 0 2.5-.3-1.7 3.2s-5.7 9.7-3.2 9.3c2.4-.4 8-7 9.3-6.9s-2.1 2.7 0 3.1c1.9.4 13.1-10.9 22.2-10.8l6.7-3.8a7.4 7.4 0 0 0 4.2-6.5V64H4z" fill="url(#i)" opacity=".2"/><linearGradient id="j" x1="71.8" x2="71.8" y1="79.1" y2="97.3" gradientUnits="userSpaceOnUse"><stop stop-color="#fff" offset="0"/><stop stop-color="#F3FBFF" offset=".5"/><stop stop-color="#E1F5FE" offset="1"/></linearGradient><path d="M113 79.7c-9 0-20.4 11.2-22.3 10.8-2-.4 1.4-2.8 0-3-1.2-.3-6.8 6.4-9.2 6.8s-1-5.9 3.2-9.3c4.2-3.5 1.7-3.2 1.7-3.2C75 84.3 70.7 94.5 67.1 94.9s-5.2-10-7.7-7.5c-2.4 2.4-.5 3.8-3 4.8s-3-3.4-3.8-7.9c-.8-4.4-1.9-1.7-1.9-1.7-1.1 8.8-1.6 8-2.8 10.6S39 87.7 39 87.7c3.1 8.2-8.4-.2-8.4-.2 1.2 1.5 1.6 2.7 1.5 3.7l.3.2c12.9 10 20.2 20.1 22.6 23.3.6.8 1.6 1.3 2.7 1.3l3.8-.5c1.6-.3 3.3-.3 4.9 0l3.8.5c1 0 2-.5 2.7-1.3 3.3-4.5 16-21 40-35z" fill="url(#j)" opacity=".2"/><g opacity=".1"><linearGradient id="k" x1="77.4" x2="77.4" y1="-48.6" y2="-21.1" gradientTransform="matrix(1 0 0 -1 0 68)" gradientUnits="userSpaceOnUse"><stop stop-color="#E1F5FE" offset="0"/><stop stop-color="#D5F1FD" offset=".4"/><stop stop-color="#B4E5FC" offset="1"/><stop stop-color="#B3E5FC" offset="1"/></linearGradient><path d="M69.9 104s.6.2.8-1c.2-1 .2-5.4.9-5.6s1.3.2.9 3 1.7-2.1 2.5-2.1.8 0 1.7-.9-.2 2-1.8 4 1.2.3 1.5 0l3.7-4.8c1.7-3 6.5-4.1 6-3.5-1.3 1.3-1.5 3-4.7 5.4s-2.6 5.5-4.6 5.2c-1-.2-1.6.2-1.7.3H75c-4.2 8.3-4.8 7.7-5.3 7.7l-.4-.1c-.3-1.7-1.2-8 .6-7.7z" fill="url(#k)"/><linearGradient id="l" x1="66" x2="66" y1="-48.6" y2="-21.1" gradientTransform="matrix(1 0 0 -1 0 68)" gradientUnits="userSpaceOnUse"><stop stop-color="#E1F5FE" offset="0"/><stop stop-color="#D5F1FD" offset=".4"/><stop stop-color="#B4E5FC" offset="1"/><stop stop-color="#B3E5FC" offset="1"/></linearGradient><path d="M64.2 104.3c0-1 0-2 .3-2 .3-.1.5 1 .9 1.6.4.7.3-.4.4-.8.3-2.3.8-3.6 1.9-4.6.2-.3-1.6 5.2-1.2 7.4l.5 2.9c-.2 0-1.2.8-1.9 1.1a55 55 0 0 1-.9-5.5z" fill="url(#l)"/></g><linearGradient id="m" x1="52.5" x2="52.5" y1="-48.6" y2="-21.1" gradientTransform="matrix(1 0 0 -1 0 68)" gradientUnits="userSpaceOnUse"><stop stop-color="#E1F5FE" offset="0"/><stop stop-color="#D5F1FD" offset=".4"/><stop stop-color="#B4E5FC" offset="1"/><stop stop-color="#B3E5FC" offset="1"/></linearGradient><path d="M56.6 109c.2.2.4 0 .4-.2l-.3-4.5c0-.3 0-.7-.2-1l-4-5.9 1 3.8c0 .2 0 .3-.2.3l-4.5-3.6c-.2-.1-.4.2-.7.7l8.5 10.4z" fill="url(#m)" opacity=".1"/><g opacity=".5"><linearGradient id="n" x1="-232.1" x2="-232.1" y1="-144.7" y2="-129.1" gradientTransform="rotate(180 -84 -32.4)" gradientUnits="userSpaceOnUse"><stop stop-color="#9CCC65" offset="0"/><stop stop-color="#95C75E" offset=".3"/><stop stop-color="#83B849" offset=".9"/><stop stop-color="#7CB342" offset="1"/></linearGradient><path d="M4.1 72c0 7.3 9.7 10 13.2 3.6v-.1c.7-.7 1.2-1.6 1.5-2.6v-.2a1 1 0 0 1 1.3-.6l1 .1a5 5 0 0 0 3.6-1.7 2 2 0 0 1 2.7-.1 12.5 12.5 0 0 0 13.8 1 2 2 0 0 1 2.5.6 19 19 0 0 0 28 3.2 1 1 0 0 1 1.4 0c.9.8 2 1.3 3 1.3 1.2 0 2.2-.5 3-1.2a1 1 0 0 1 1.3 0 13.8 13.8 0 0 0 17.5-2c.4-.5 1-.4 1.4 0 1 .9 2.1 1.4 3.3 1.4a5 5 0 0 0 3.6-1.7c.4-.4 1.1-.5 1.5 0h.1c5.8 6.2 16.2 6 16.2-2.5V64H4.1v8z" fill="url(#n)"/></g></svg>