<svg viewBox="0 0 128 128" xmlns="http://www.w3.org/2000/svg" xmlns:xlink="http://www.w3.org/1999/xlink"><linearGradient id="a" x1="64" x2="64" y1="19.7" y2="107.7" gradientUnits="userSpaceOnUse"><stop stop-color="#FEE133" offset=".5"/><stop stop-color="#FEDE32" offset=".6"/><stop stop-color="#FCD32F" offset=".7"/><stop stop-color="#FAC12B" offset=".8"/><stop stop-color="#F7A924" offset=".9"/><stop stop-color="#F6A323" offset=".9"/></linearGradient><path d="M64 119.9c-28 0-58-17.5-58-55.9S36 8.1 64 8.1c15.5 0 29.8 5.1 40.4 14.4A53.5 53.5 0 0 1 122 64c0 16.9-6.1 31.2-17.6 41.4A60.6 60.6 0 0 1 64 119.9z" fill="url(#a)"/><path d="M64 10.1c15 0 28.9 5 39 14A51.5 51.5 0 0 1 120 64c0 16.3-5.9 30-17 39.9-10.2 9-24 14-39 14s-28.9-5-39-13.8A51.5 51.5 0 0 1 8 64c0-16.5 5.9-30.4 17-40.2a58.9 58.9 0 0 1 39-13.7m0-4C32.9 6.1 4 26.1 4 64c0 37.7 28.9 57.9 60 57.9s60-20.7 60-57.9c0-37.4-28.9-57.9-60-57.9z" fill="#EB8F00"/><defs><path id="b" d="M63.5 62.5A244 244 0 0 1 21 59c-3-.6-5.7 2-5.1 5a47.7 47.7 0 0 0 47.5 36.2c26.3 0 44-16.8 47.7-36.2.5-3-2.1-5.6-5.1-5a238.5 238.5 0 0 1-42.5 3.5z"/></defs><clipPath id="c"><use xlink:href="#b"/></clipPath><path d="M63.5 62.5A244 244 0 0 1 21 59c-3-.6-5.7 2-5.1 5a47.7 47.7 0 0 0 47.5 36.2c26.3 0 44-16.8 47.7-36.2.5-3-2.1-5.6-5.1-5a238.5 238.5 0 0 1-42.5 3.5z" clip-path="url(#c)" fill="#242424"/><path d="M116.7 61.4v-15H10.2v15c16.4 9.6 34.4 15 53.3 15s36.8-5.4 53.2-15z" clip-path="url(#c)" fill="#fff"/><path d="M63.5 86.4c-11.8 0-22 6.4-27.6 16 7.2 3.9 16.9 6.3 27.6 6.3s20.4-2.4 27.5-6.3a31.7 31.7 0 0 0-27.5-16z" clip-path="url(#c)" fill="#ED7770"/><g clip-path="url(#c)"><defs><path id="d" d="M10.2 46.5v14.9c16.4 9.6 34.4 15 53.3 15s36.8-5.4 53.2-15v-15H10.2zm53.3 40c-11.8 0-22 6.3-27.5 15.9a58.5 58.5 0 0 0 27.5 6.3c10.7 0 20.4-2.4 27.5-6.3a31.7 31.7 0 0 0-27.5-16z"/></defs><clipPath id="e"><use xlink:href="#d"/></clipPath><g clip-path="url(#e)"><path d="M106.8 62.9l.3.1v.3a39 39 0 0 1-13.9 23 47 47 0 0 1-29.7 9.8 47 47 0 0 1-28.8-9.7 40 40 0 0 1-14.9-23.1V63l.4-.1a243 243 0 0 0 43.3 3.6c15.4 0 30.4-1.2 43.2-3.6m0-4h-.7a237.6 237.6 0 0 1-42.5 3.6A238.5 238.5 0 0 1 20.2 59a4.3 4.3 0 0 0-4.3 5.2c4 19.8 23.5 36 47.5 36 26.3 0 44-16.8 47.7-36.1a4.3 4.3 0 0 0-4.3-5.1z" fill="#EB8F00"/></g></g><path d="M82.7 30.2c4.2 0 8 3.5 8 9.4S87 49 82.7 49s-8-3.5-8-9.4 3.8-9.4 8-9.4zm-37.5 0c-4.2 0-8 3.5-8 9.4s3.8 9.4 8 9.4 8-3.5 8-9.4-3.8-9.4-8-9.4z" fill="#242424"/></svg>