<svg viewBox="0 0 128 128" xmlns="http://www.w3.org/2000/svg" xmlns:xlink="http://www.w3.org/1999/xlink"><symbol id="h" viewBox="-64.5 -64.5 129 129"><g fill="none" stroke="#4285F4" stroke-miterlimit="10"><path d="M-64-64H64V64H-64z"/><path d="M36.95 37.82C27.32 46.32 14.2 51 0 51c-14.27 0-27.39-4.62-36.96-13.01C-47.45 28.79-53 15.65-53 0c0-15.58 5.55-28.69 16.04-37.92C-27.36-46.35-14.24-51 0-51c14.17 0 27.29 4.71 36.95 13.25C47.45-28.45 53-15.4 53 0c0 15.47-5.55 28.55-16.05 37.82z"/><path d="M0 55c-29.59 0-57-19.01-57-55 0-35.8 27.41-55 57-55S57-35.31 57 0c0 35.51-27.41 55-57 55z"/><path d="M0-43c-12.29 0-23.54 3.94-31.68 11.09C-40.39-24.25-45-13.21-45 0c0 29.7 22.6 43 45 43 21.67 0 45-13.46 45-43S21.67-43 0-43zM-.01 51V-51M-16 48.95v-97.88M15.99 48.91v-97.84M53 .08H-53"/></g></symbol><linearGradient id="a" x1="64.495" x2="64.495" y1="22.01" y2="105.44" gradientUnits="userSpaceOnUse"><stop stop-color="#FEE133" offset=".5"/><stop stop-color="#FEDE32" offset=".612"/><stop stop-color="#FCD32F" offset=".708"/><stop stop-color="#FAC12B" offset=".797"/><stop stop-color="#F7A924" offset=".883"/><stop stop-color="#F6A323" offset=".9"/></linearGradient><path d="M64.5 117c-26.49 0-55-16.58-55-53 0-36.41 28.51-53 55-53 14.68 0 28.28 4.86 38.27 13.69C113.71 34.34 119.5 47.94 119.5 64c0 15.99-5.78 29.56-16.73 39.24C92.74 112.11 79.15 117 64.5 117z" fill="url(#a)"/><path d="M64.5 13c14.19 0 27.32 4.68 36.95 13.18 10.5 9.27 16.05 22.34 16.05 37.82 0 15.4-5.55 28.45-16.05 37.75C91.78 110.29 78.66 115 64.49 115c-14.24 0-27.36-4.65-36.96-13.08C17.04 92.69 11.5 79.58 11.5 64c0-15.65 5.55-28.79 16.04-37.99C37.1 17.62 50.23 13 64.5 13m0-4c-29.59 0-57 19.01-57 55 0 35.8 27.41 55 57 55s57-19.69 57-55c0-35.51-27.41-55-57-55z" fill="#EB8F00"/><defs><path id="b" d="M63.99 70.6c-14.92 0-28.79-1.25-40.36-3.39-2.87-.53-5.41 1.99-4.83 4.85 3.84 18.82 22.37 34.27 45.17 34.27 24.95 0 41.75-15.96 45.23-34.34.54-2.84-1.99-5.32-4.83-4.79-11.57 2.15-25.45 3.4-40.38 3.4z"/></defs><clipPath id="c"><use xlink:href="#b"/></clipPath><path d="M63.99 70.6c-14.92 0-28.79-1.25-40.36-3.39-2.87-.53-5.41 1.99-4.83 4.85 3.84 18.82 22.37 34.27 45.17 34.27 24.95 0 41.75-15.96 45.23-34.34.54-2.84-1.99-5.32-4.83-4.79-11.57 2.15-25.45 3.4-40.38 3.4z" clip-path="url(#c)" fill="#242424"/><path d="M114.58 69.51V55.36H13.42V69.5C28.98 78.65 46.06 83.73 64 83.73s35.02-5.08 50.58-14.22z" clip-path="url(#c)" fill="#fff"/><path d="M64 93.3c-11.19 0-20.95 6.1-26.16 15.15 6.76 3.69 15.98 5.97 26.16 5.97s19.39-2.28 26.16-5.97C84.95 99.4 75.19 93.3 64 93.3z" clip-path="url(#c)" fill="#ED7770"/><g clip-path="url(#c)"><defs><path id="d" d="M13.42 63.08v11.79C28.98 82.5 46.06 86.73 64 86.73s35.02-4.24 50.58-11.86V63.08H13.42zM64 93.3c-11.19 0-20.95 6.1-26.16 15.15 6.76 3.69 15.98 5.97 26.16 5.97s19.39-2.28 26.16-5.97C84.95 99.4 75.19 93.3 64 93.3z"/></defs><clipPath id="e"><use xlink:href="#d"/></clipPath><g clip-path="url(#e)"><path d="M105.14 71.13c.07 0 .13.07.13.11-1.59 8.41-6.27 16.11-13.16 21.7-7.57 6.14-17.3 9.38-28.15 9.38-19.9 0-37.64-13.36-41.26-31.1.01-.02.07-.09.17-.09h.01c12.22 2.26 26.43 3.46 41.09 3.46 14.67 0 28.89-1.2 41.11-3.46.04.01.05 0 .06 0m0-4c-.25 0-.51.02-.77.07-11.57 2.15-25.45 3.4-40.38 3.4-14.92 0-28.79-1.25-40.36-3.39-.26-.05-.52-.07-.77-.07-2.53 0-4.59 2.32-4.05 4.92 3.84 18.82 22.37 34.27 45.17 34.27 24.95 0 41.75-15.96 45.23-34.34.49-2.58-1.56-4.86-4.07-4.86z" fill="#EB8F00"/></g></g><path d="M45.55 34.72c.04-.02.08-.03.12-.05 1.95-.78 1.15-3.72-.91-3.35-1.62.29-3.23.73-4.82 1.34-4.35 1.66-8 4.22-10.87 7.35-1.43 1.56.63 3.82 2.33 2.57 4.23-3.1 8.96-5.77 14.15-7.86zM82.45 34.72c-.04-.02-.08-.03-.12-.05-1.95-.78-1.15-3.72.91-3.35 1.62.29 3.23.73 4.82 1.34 4.35 1.66 8 4.22 10.87 7.35 1.43 1.56-.63 3.82-2.33 2.57-4.23-3.1-8.96-5.77-14.15-7.86z" fill="#EB8F00" stroke="#EB8F00" stroke-miterlimit="10"/><path d="M12.42 88.18c-3.09 0-5.88-1.08-7.84-3.05-2.07-2.07-3.15-5-3.04-8.26.1-3.07 1.3-6.05 3.22-7.97 2.57-2.57 6.58-4.35 12.13-6.81.8-.35 1.63-.72 2.48-1.1 4.94-2.22 10.88-4.06 14.26-5.04-1.1 3.19-3.06 8.78-5.16 14.25-3.42 8.91-5.14 12.22-7.67 14.75-2.02 2.02-5.15 3.23-8.38 3.23z" fill="#5F7AFF"/><path d="M31.25 58.22c-1.11 3.17-2.61 7.33-4.18 11.44-3.33 8.68-4.97 11.87-7.33 14.23-1.75 1.75-4.49 2.79-7.32 2.79-2.69 0-5.1-.93-6.78-2.61-1.77-1.77-2.7-4.31-2.6-7.15.09-2.7 1.13-5.3 2.78-6.96 2.37-2.37 6.28-4.1 11.68-6.5.8-.35 1.63-.72 2.49-1.11 3.69-1.65 7.96-3.1 11.26-4.13M35.97 54zm0-.26s-9.66 2.49-17.21 5.88c-6.89 3.09-11.9 5.06-15.06 8.22-4.51 4.51-5.2 13.33-.18 18.35 2.39 2.39 5.66 3.49 8.9 3.49 3.55 0 7.09-1.31 9.45-3.67 2.84-2.84 4.63-6.47 8.01-15.28 3.22-8.42 6.09-16.99 6.09-16.99z" fill="#4864ED"/><path d="M115.58 88.18c-3.23 0-6.36-1.21-8.38-3.23-2.53-2.53-4.25-5.84-7.67-14.75-2.1-5.48-4.06-11.06-5.16-14.25 3.38.98 9.32 2.83 14.26 5.04.86.38 1.68.75 2.48 1.1 5.55 2.46 9.57 4.24 12.14 6.81 1.92 1.92 3.12 4.9 3.22 7.97.1 3.26-.98 6.19-3.04 8.26-1.98 1.97-4.76 3.05-7.85 3.05z" fill="#5F7AFF"/><path d="M96.75 58.22c3.3 1.02 7.57 2.48 11.26 4.13.86.38 1.69.75 2.49 1.11 5.4 2.4 9.31 4.13 11.68 6.5 1.66 1.66 2.7 4.26 2.78 6.96.09 2.84-.83 5.38-2.6 7.15-1.68 1.68-4.09 2.61-6.78 2.61-2.84 0-5.58-1.04-7.32-2.79-2.36-2.36-4-5.55-7.33-14.23-1.58-4.1-3.07-8.27-4.18-11.44m-4.72-4.48s2.87 8.57 6.1 16.99c3.38 8.81 5.17 12.44 8.01 15.28 2.36 2.36 5.89 3.67 9.45 3.67 3.25 0 6.51-1.09 8.9-3.49 5.02-5.02 4.33-13.84-.18-18.35-3.16-3.16-8.18-5.13-15.06-8.22-7.56-3.39-17.22-5.88-17.22-5.88z" fill="#4864ED"/><g fill="#242424"><path d="M48.15 57.77s-.06-.08-.18-.22c-.06-.07-.13-.16-.21-.27-.09-.11-.18-.23-.26-.29l-.62-.62c-.25-.25-.55-.52-.86-.79-.64-.54-1.4-1.04-2.2-1.39-.81-.34-1.62-.53-2.45-.52.35-.01.09 0 .17 0H41.25l-.29.01c-.26 0-.21.02-.29.03-.07-.01-.35.06-.54.09-.4.1-.82.22-1.22.39-.8.35-1.56.85-2.2 1.39-.63.54-1.16 1.07-1.51 1.47-.36.41-.57.64-.57.64l-.3.34a3.323 3.323 0 0 1-4.69.28c-1.04-.92-1.36-2.36-.93-3.6 0 0 .04-.11.11-.32.08-.21.17-.53.35-.91.33-.78.89-1.87 1.82-3.08.91-1.21 2.25-2.51 4.03-3.54.9-.49 1.89-.96 2.97-1.25.56-.13 1.04-.26 1.74-.34.3-.04.74-.09.87-.09l.76-.04c1.14.02 2.28.18 3.37.47 1.08.28 2.07.75 2.97 1.25 1.78 1.03 3.12 2.33 4.03 3.54.47.6.84 1.18 1.13 1.7.29.5.53 1.01.72 1.44.11.22.16.38.2.5.04.13.08.24.11.33l.09.27c.57 1.77-.4 3.67-2.17 4.24-1.36.44-2.81-.05-3.66-1.11zM93.48 57.77s-.06-.08-.18-.22c-.06-.07-.13-.16-.21-.27-.09-.11-.18-.23-.26-.29l-.62-.62c-.25-.25-.55-.52-.86-.79-.64-.54-1.4-1.04-2.2-1.39-.81-.34-1.62-.53-2.45-.52.35-.01.09 0 .17 0H86.58l-.29.01c-.26 0-.21.02-.29.03-.07-.01-.35.06-.54.09-.4.1-.82.22-1.22.39-.8.35-1.56.85-2.2 1.39-.63.54-1.16 1.07-1.52 1.47-.36.41-.57.64-.57.64l-.3.34a3.323 3.323 0 0 1-4.69.28c-1.04-.92-1.36-2.36-.93-3.6 0 0 .04-.11.11-.32.08-.21.17-.53.35-.91.33-.78.89-1.87 1.82-3.08.91-1.21 2.25-2.51 4.03-3.54.9-.49 1.89-.96 2.97-1.25.56-.13 1.04-.26 1.74-.34.3-.04.73-.09.87-.09l.76-.04c1.14.02 2.28.18 3.37.47 1.08.28 2.07.75 2.97 1.25 1.78 1.03 3.12 2.33 4.03 3.54.47.6.84 1.18 1.13 1.7.29.5.53 1.01.72 1.44.11.22.16.38.2.5.04.13.08.24.11.33l.09.27c.57 1.77-.4 3.67-2.17 4.24-1.35.44-2.8-.05-3.65-1.11z"/></g></svg>