<svg viewBox="0 0 128 128" xmlns="http://www.w3.org/2000/svg"><linearGradient id="a" x1="64" x2="64" y1="19.7" y2="107.7" gradientUnits="userSpaceOnUse"><stop stop-color="#FEE133" offset=".5"/><stop stop-color="#FEDE32" offset=".6"/><stop stop-color="#FCD32F" offset=".7"/><stop stop-color="#FAC12B" offset=".8"/><stop stop-color="#F7A924" offset=".9"/><stop stop-color="#F6A323" offset=".9"/></linearGradient><path d="M64 119.9c-28 0-58-17.5-58-55.9S36 8.1 64 8.1c15.5 0 29.8 5.1 40.4 14.4A53.5 53.5 0 0 1 122 64c0 16.9-6.1 31.2-17.6 41.4A60.6 60.6 0 0 1 64 119.9z" fill="url(#a)"/><path d="M64 10.1c15 0 28.9 5 39 14A51.5 51.5 0 0 1 120 64c0 16.3-5.9 30-17 39.9-10.2 9-24 14-39 14s-28.9-5-39-13.8A51.5 51.5 0 0 1 8 64c0-16.5 5.9-30.4 17-40.2a58.9 58.9 0 0 1 39-13.7m0-4C32.9 6.1 4 26.1 4 64c0 37.7 28.9 57.9 60 57.9s60-20.7 60-57.9c0-37.4-28.9-57.9-60-57.9z" fill="#EB8F00"/><g fill="#242424"><path d="M72.7 57.5l.2-.2.2-.2.5-.3a11.3 11.3 0 0 1 3-1.4 16.2 16.2 0 0 1 9.2-.8 26.4 26.4 0 0 1 4.7 1.2 17.6 17.6 0 0 1 6.2 4.2l.6.8.2.2a2.7 2.7 0 0 1-3.8 3.8l-.3-.2-.6-.4a16.7 16.7 0 0 0-4.6-2 26 26 0 0 0-1.7-.3l-.8-.2-1-.2a24.3 24.3 0 0 0-6.5 0l-1.1.2-.8.2H76l-.3.2h-.2a2.8 2.8 0 0 1-2.8-4.6z"/><path d="M72 57.8l.1-.2.5-.8 2-2.3 3.1-2.7c.6-.4 1.2-.9 2-1.3a68 68 0 0 1 2-1.3l2-1 2.1-1a27.5 27.5 0 0 1 7-1.8H94a2.8 2.8 0 0 1 .8 5.3l-.2.1-.7.3a45.6 45.6 0 0 0-5.3 2.4l-1.7.9a46.3 46.3 0 0 0-3.6 2l-1.7 1a80.3 80.3 0 0 0-4.7 3.3l-.5.4-.2.2c-1.1 1-2.9.9-3.9-.2-.8-1-.9-2.3-.3-3.3z"/></g><path d="M29.8 43.8c-.9 0-1.7-.4-2.1-1.1-.5-.7-.6-1.6-.3-2.5A21.4 21.4 0 0 1 44.3 27h.4c1.3 0 2.3.8 2.5 2 .2 1.2-.4 2.6-1.9 3.1l-.4-.7.3.8a24.7 24.7 0 0 0-13 10.3 3 3 0 0 1-2.4 1.3z" fill="#EB8F00" stroke="#EB8F00" stroke-miterlimit="10"/><path d="M64.3 94.4c-12.8 0-21.9-6.6-24.6-10.7-1-1.6-1.3-3.4-.6-4.7a3 3 0 0 1 2.7-1.6l1.2.2a72.2 72.2 0 0 0 42.5 0 4 4 0 0 1 1.2-.2 3 3 0 0 1 2.7 1.6c.7 1.3.5 3-.6 4.7-2.7 4.1-11.8 10.7-24.5 10.7zM44.7 46c-4.2 0-8 3.5-8 9.4s3.8 9.4 8 9.4 8-3.6 8-9.4-3.8-9.5-8-9.5z" fill="#242424"/></svg>