<svg viewBox="0 0 128 128" xmlns="http://www.w3.org/2000/svg"><symbol id="d" viewBox="-64.5 -64.5 129 129"><g fill="none" stroke="#4285F4" stroke-miterlimit="10"><path d="M-64-64H64V64H-64z"/><path d="M36.95 37.82C27.32 46.32 14.2 51 0 51c-14.27 0-27.39-4.62-36.96-13.01C-47.45 28.79-53 15.65-53 0c0-15.58 5.55-28.69 16.04-37.92C-27.36-46.35-14.24-51 0-51c14.17 0 27.29 4.71 36.95 13.25C47.45-28.45 53-15.4 53 0c0 15.47-5.55 28.55-16.05 37.82z"/><path d="M0 55c-29.59 0-57-19.01-57-55 0-35.8 27.41-55 57-55S57-35.31 57 0c0 35.51-27.41 55-57 55z"/><path d="M0-43c-12.29 0-23.54 3.94-31.68 11.09C-40.39-24.25-45-13.21-45 0c0 29.7 22.6 43 45 43 21.67 0 45-13.46 45-43S21.67-43 0-43zM-.01 51V-51M-16 48.95v-97.88M15.99 48.91v-97.84M53 .08H-53"/></g></symbol><linearGradient id="a" x1="63.992" x2="63.992" y1="19.717" y2="107.7" gradientUnits="userSpaceOnUse"><stop stop-color="#FEE133" offset=".5"/><stop stop-color="#FEDE32" offset=".612"/><stop stop-color="#FCD32F" offset=".708"/><stop stop-color="#FAC12B" offset=".797"/><stop stop-color="#F7A924" offset=".883"/><stop stop-color="#F6A323" offset=".9"/></linearGradient><path d="M63.99 119.89c-27.93 0-58-17.49-58-55.89s30.07-55.89 58-55.89c15.48 0 29.81 5.12 40.36 14.43 11.54 10.19 17.64 24.52 17.64 41.46 0 16.86-6.1 31.17-17.64 41.39-10.57 9.35-24.91 14.5-40.36 14.5z" fill="url(#a)"/><path d="M63.99 10.11c14.99 0 28.86 4.95 39.03 13.93 11.1 9.8 16.97 23.61 16.97 39.96 0 16.27-5.87 30.07-16.97 39.89-10.21 9.03-24.07 14-39.03 14-15.04 0-28.9-4.91-39.04-13.82C13.86 94.32 7.99 80.46 7.99 64c0-16.54 5.86-30.42 16.96-40.15 10.11-8.86 23.97-13.74 39.04-13.74m0-4c-31.15 0-60 20.01-60 57.89 0 37.68 28.85 57.89 60 57.89s60-20.73 60-57.89c0-37.37-28.85-57.89-60-57.89z" fill="#EB8F00"/><path d="M51.46 58.81c-1.38-1.98-2.93-3.58-7.8-3.58-6.21 0-12.03 2.36-15.99 6.11-1.95 1.9.57 4.49 2.62 3.15 2.78-1.77 5.98-3.06 9.35-3.79-.23.81-.36 1.71-.36 2.68 0 4.9 3.17 7.85 6.67 7.85 3.49 0 6.67-2.95 6.67-7.85-.01-1.81-.44-3.35-1.16-4.57zM99.88 58.81c-1.38-1.98-2.93-3.58-7.8-3.58-6.21 0-12.03 2.36-15.99 6.11-1.95 1.9.57 4.49 2.62 3.15 2.78-1.77 5.98-3.06 9.35-3.79-.23.81-.36 1.71-.36 2.68 0 4.9 3.17 7.85 6.67 7.85 3.49 0 6.67-2.95 6.67-7.85 0-1.81-.44-3.35-1.16-4.57zM51.14 94h.44c.29 0 .72.17 1.16.16.48-.01 1.07.06 1.74.04.68-.03 1.44-.02 2.27-.08 1.65-.12 3.56-.28 5.54-.63.99-.16 1.99-.39 2.97-.63.99-.24 1.96-.55 2.89-.91.94-.33 1.82-.73 2.63-1.18s1.56-.91 2.22-1.44c.67-.52 1.23-1.07 1.75-1.63.24-.29.49-.56.69-.86.23-.28.43-.57.6-.86.2-.28.34-.57.5-.85.17-.27.3-.54.41-.81.26-.52.43-1.01.59-1.41.29-.84.45-1.32.45-1.32l.13-.38c.61-1.75 2.52-2.69 4.27-2.08a3.36 3.36 0 0 1 2.26 3.29s-.01.18-.02.51c-.02.33-.01.82-.09 1.45-.09.63-.16 1.4-.39 2.27-.09.44-.22.91-.38 1.39-.15.49-.33 1-.57 1.52-.42 1.06-1.04 2.15-1.79 3.24-.77 1.07-1.66 2.17-2.73 3.11-1.06.96-2.21 1.86-3.48 2.58a24.79 24.79 0 0 1-3.89 1.87c-1.34.49-2.68.89-4.01 1.18-1.32.32-2.64.48-3.89.61-1.26.15-2.47.16-3.62.17-1.14 0-2.22-.05-3.2-.15-.99-.08-1.88-.21-2.67-.34-.8-.12-1.46-.27-2.06-.4-.61-.13-1-.25-1.27-.33s-.42-.12-.42-.12c-1.8-.52-2.83-2.58-2.31-4.38.45-1.47 1.81-2.6 3.28-2.6z" fill="#242424"/><path d="M23.62 49.7c-.7-.14-1.27-.6-1.54-1.22s-.19-1.32.21-1.96c2.34-3.63 6.17-6.29 10.53-7.3 1.62-.38 3.26-.52 4.89-.4.12.01.22.03.32.05 1.03.21 1.69 1.05 1.65 2.07-.04.93-.74 1.95-1.98 2.09l-.18-.62.08.63c-4.5.59-8.85 2.78-11.94 6.01-.54.56-1.28.81-2.04.65zM88.61 41.21c-.3-.65-.27-1.38.08-1.97.34-.58.95-.93 1.71-.99 4.31-.26 8.72 1.26 12.12 4.17a16.47 16.47 0 0 1 3.22 3.71c.06.1.11.19.15.28.44.96.16 1.98-.7 2.55-.78.52-2.01.56-2.85-.36l.39-.51-.46.44c-3.13-3.28-7.47-5.49-11.91-6.07-.79-.09-1.43-.55-1.75-1.25z" fill="#EB8F00" stroke="#EB8F00" stroke-miterlimit="10"/></svg>