<svg viewBox="0 0 128 128" xmlns="http://www.w3.org/2000/svg" xmlns:xlink="http://www.w3.org/1999/xlink"><symbol id="h" viewBox="-64.5 -64.5 129 129"><g fill="none" stroke="#4285F4" stroke-miterlimit="10"><path d="M-64-64H64V64H-64z"/><path d="M36.95 37.82C27.32 46.32 14.2 51 0 51c-14.27 0-27.39-4.62-36.96-13.01C-47.45 28.79-53 15.65-53 0c0-15.58 5.55-28.69 16.04-37.92C-27.36-46.35-14.24-51 0-51c14.17 0 27.29 4.71 36.95 13.25C47.45-28.45 53-15.4 53 0c0 15.47-5.55 28.55-16.05 37.82z"/><path d="M0 55c-29.59 0-57-19.01-57-55 0-35.8 27.41-55 57-55S57-35.31 57 0c0 35.51-27.41 55-57 55z"/><path d="M0-43c-12.29 0-23.54 3.94-31.68 11.09C-40.39-24.25-45-13.21-45 0c0 29.7 22.6 43 45 43 21.67 0 45-13.46 45-43S21.67-43 0-43zM-.01 51V-51M-16 48.95v-97.88M15.99 48.91v-97.84M53 .08H-53"/></g></symbol><linearGradient id="a" x1="64.01" x2="64.01" y1="19.984" y2="107.63" gradientUnits="userSpaceOnUse"><stop stop-color="#FEE133" offset=".5"/><stop stop-color="#FEDE32" offset=".612"/><stop stop-color="#FCD32F" offset=".708"/><stop stop-color="#FAC12B" offset=".797"/><stop stop-color="#F7A924" offset=".883"/><stop stop-color="#F6A323" offset=".9"/></linearGradient><path d="M64.01 119.78c-27.83 0-57.78-17.43-57.78-55.68S36.18 8.42 64.01 8.42c15.42 0 29.7 5.11 40.21 14.38 11.5 10.15 17.57 24.43 17.57 41.3 0 16.8-6.08 31.05-17.58 41.23-10.53 9.32-24.81 14.45-40.2 14.45z" fill="url(#a)"/><path d="M64.01 10.42c14.93 0 28.74 4.93 38.88 13.88 11.05 9.76 16.9 23.52 16.9 39.81 0 16.21-5.84 29.95-16.9 39.73-10.17 9-23.97 13.95-38.88 13.95-14.98 0-28.79-4.89-38.89-13.77C14.07 94.3 8.23 80.5 8.23 64.1c0-16.47 5.84-30.3 16.89-39.99C35.19 15.28 49 10.42 64.01 10.42m0-4C32.97 6.42 4.23 26.35 4.23 64.1c0 37.54 28.74 57.68 59.78 57.68s59.78-20.65 59.78-57.68c0-37.24-28.74-57.68-59.78-57.68z" fill="#EB8F00"/><defs><path id="b" d="M103.02 67.51c-3.31 17.46-19.27 32.62-42.97 32.62-21.66 0-39.26-14.68-42.91-32.56l-12.7 45.76L97.58 129l22.86-5.25 4.23-29.3-21.65-26.94z"/></defs><clipPath id="c"><use xlink:href="#b"/></clipPath><g clip-path="url(#c)"><defs><path id="d" d="M57.83 109.17l31.29 31.29 48.21-48.21-31.29-31.29c-5.92 8.42-13.48 17.29-21.94 25.75-8.45 8.45-17.3 16-25.71 21.92"/></defs><clipPath id="e"><use xlink:href="#d"/></clipPath><path d="M114.91 114.15l-2.32 2.32c-6.73 6.73-17.65 6.73-24.39 0L60.73 89.01 87.45 62.3l27.46 27.46c6.73 6.74 6.73 17.66 0 24.39z" clip-path="url(#e)" fill="#E04C74"/><g clip-path="url(#e)" opacity=".3"><path d="M87.45 67.96l24.63 24.63c2.5 2.5 3.88 5.83 3.88 9.37s-1.38 6.86-3.88 9.37l-2.32 2.32c-2.5 2.5-5.83 3.88-9.37 3.88s-6.86-1.38-9.37-3.88L66.39 89.01l21.06-21.05m0-5.66L60.73 89.01l27.46 27.46c3.37 3.37 7.78 5.05 12.19 5.05s8.83-1.68 12.19-5.05l2.32-2.32c6.73-6.73 6.73-17.65 0-24.39L87.45 62.3z" fill="#AB3F2E"/></g><path clip-path="url(#e)" fill="none" opacity=".3" stroke="#AB3F2E" stroke-linecap="round" stroke-miterlimit="10" stroke-width="4.218" d="M74.09 75.66l24.18 24.18"/></g><path d="M25.12 70.49s.18.37.52 1.05c.34.66.83 1.77 1.51 2.85.35.56.67 1.2 1.12 1.87.46.67.96 1.4 1.49 2.17.58.73 1.2 1.52 1.86 2.34.71.78 1.44 1.61 2.22 2.45 1.65 1.6 3.48 3.31 5.65 4.8 2.12 1.56 4.56 2.9 7.14 4.12 2.58 1.24 5.43 2.1 8.34 2.79l2.22.42c.74.16 1.5.18 2.25.28.75.09 1.51.18 2.27.18l2.17.08 2.45-.08c.4-.02.84-.01 1.2-.06l1.09-.13c.73-.1 1.44-.12 2.19-.28l2.22-.42c2.91-.69 5.76-1.55 8.34-2.79 2.58-1.22 5.02-2.56 7.14-4.12 2.18-1.49 4-3.2 5.65-4.8.79-.84 1.52-1.67 2.22-2.45.65-.82 1.28-1.61 1.86-2.34.53-.78 1.03-1.5 1.49-2.17.45-.68.8-1.34 1.15-1.92.71-1.15 1.13-2.13 1.47-2.78.33-.65.5-1 .5-1l.08-.16c.55-1.1 1.9-1.55 3-1 1.05.53 1.51 1.78 1.07 2.85 0 0-.16.4-.47 1.14-.33.73-.7 1.87-1.43 3.19-.35.66-.7 1.43-1.17 2.21s-.99 1.62-1.53 2.51c-.61.86-1.26 1.77-1.95 2.73-.74.92-1.55 1.87-2.41 2.84-1.8 1.87-3.81 3.86-6.21 5.63-2.35 1.84-5.06 3.49-8.01 4.88-2.94 1.44-6.17 2.47-9.5 3.29-.84.17-1.69.34-2.53.5-.84.18-1.76.24-2.64.36l-1.34.15c-.45.06-.83.05-1.24.07l-2.45.11-2.73-.11c-.87-.01-1.73-.12-2.6-.23-.86-.12-1.73-.17-2.57-.35-.85-.17-1.69-.34-2.53-.5-3.33-.82-6.56-1.85-9.5-3.29-2.95-1.39-5.66-3.04-8.01-4.88-2.41-1.77-4.42-3.76-6.21-5.63-.86-.98-1.66-1.92-2.41-2.84-.69-.96-1.34-1.87-1.95-2.73-.55-.9-1.06-1.74-1.53-2.51-.47-.78-.83-1.58-1.19-2.26-.76-1.39-1.08-2.4-1.4-3.12-.29-.71-.45-1.09-.45-1.09-.47-1.14.07-2.45 1.22-2.93 1.09-.41 2.34.07 2.86 1.11z" fill="#242424"/><g fill="#242424"><path d="M49.56 47.79s-.05-.07-.16-.2l-.42-.54c-.15-.16-.33-.35-.54-.57-.21-.24-.47-.49-.73-.75-.27-.25-.55-.51-.84-.72-.28-.23-.59-.4-.84-.54-.26-.16-.5-.2-.65-.25-.08-.03-.15-.03-.21-.04-.03.01-.06-.01-.09 0l-.04.01h-.03c.12 0-.27.01.27-.01l-.55.02c-.14 0-.05.01-.04.01.03 0 .05 0 .07-.01.08-.03 0 0-.02 0a.26.26 0 0 0-.11.03c-.16.05-.4.09-.65.25-.25.14-.56.31-.84.54-.28.22-.57.47-.84.72-.52.51-.98 1.02-1.3 1.39-.33.38-.51.6-.51.6l-.23.27c-1.37 1.6-3.89 1.87-5.62.61-1.18-.86-1.69-2.2-1.47-3.48 0 0 .07-.41.27-1.12.21-.71.56-1.72 1.25-2.91.69-1.18 1.69-2.57 3.38-3.84.83-.62 1.84-1.24 3.04-1.66.29-.11.6-.21.92-.29.33-.08.59-.17 1.04-.23l.62-.09c.19-.02.47-.05.51-.05l.55-.04.31-.01h.09l.13.01.26.01.51.03c.34.03.67.09 1 .14.65.12 1.3.29 1.89.51a11.1 11.1 0 0 1 3.04 1.66c1.69 1.27 2.69 2.66 3.38 3.84.35.59.61 1.15.8 1.64.21.47.36.97.48 1.34.11.36.11.55.16.72.03.16.04.25.04.25.37 2.02-1.12 3.93-3.31 4.26-1.59.24-3.1-.39-3.97-1.51zM87.06 47.79s-.05-.07-.16-.2l-.42-.54c-.15-.16-.33-.35-.54-.57-.21-.24-.47-.49-.73-.75-.27-.25-.55-.51-.84-.72-.28-.23-.59-.4-.84-.54-.26-.16-.5-.2-.65-.25-.08-.03-.15-.03-.21-.04-.03.01-.06-.01-.09 0l-.04.01h-.04c.12 0-.27.01.27-.01l-.55.02c-.14 0-.05.01-.04.01.03 0 .05 0 .07-.01.08-.03 0 0-.02 0a.26.26 0 0 0-.11.03c-.16.05-.4.09-.65.25-.25.14-.56.31-.84.54-.28.22-.57.47-.84.72-.52.51-.98 1.02-1.3 1.39-.33.38-.51.6-.51.6l-.23.27c-1.37 1.6-3.89 1.87-5.62.61-1.18-.86-1.69-2.2-1.47-3.48 0 0 .07-.41.27-1.12.21-.71.56-1.72 1.25-2.91.69-1.18 1.69-2.57 3.38-3.84.83-.62 1.84-1.24 3.04-1.66.29-.11.6-.21.92-.29.33-.08.59-.17 1.04-.23l.62-.09c.19-.02.47-.05.51-.05l.55-.04.31-.01h.09l.13.01.26.01.51.03c.34.03.67.09 1 .14.65.12 1.3.29 1.89.51a11.1 11.1 0 0 1 3.04 1.66c1.69 1.27 2.69 2.66 3.38 3.84.35.59.61 1.15.8 1.64.21.47.36.97.48 1.34.11.36.11.55.16.72.03.16.04.25.04.25.37 2.02-1.12 3.93-3.31 4.26-1.59.24-3.1-.39-3.96-1.51z"/></g></svg>