<svg viewBox="0 0 128 128" xmlns="http://www.w3.org/2000/svg"><path d="M19.1 44.4h-1.6a58 58 0 0 1-10-35.6C18.2 19.8 30.5 26 41 26h.7C37.4 34.8 28 44.3 19 44.3z" fill="#873191"/><path d="M9.4 13.5a52.1 52.1 0 0 0 29.1 14.4C34 35.5 26.1 42.4 19.1 42.4h-.5c-5-6.5-8.7-18.4-9.2-29m-2-6.6a2 2 0 0 0-2 1.9 60 60 0 0 0 10.6 37c.3.3.8.5 1.2.6l2 .1c9.6 0 19.7-9.7 24.4-19.5a2 2 0 0 0-1.8-2.8H41C29.8 24 17.9 16.6 8.9 7.4a2 2 0 0 0-1.4-.6z" fill="#6F21A1"/><path d="M108.8 44.7c-9 0-18.3-9.5-22.7-18.4h.8c10.5 0 22.8-6.3 33.6-17.3.7 12.4-3.7 28-10.1 35.6h-1.6z" fill="#873191"/><path d="M118.5 13.7c-.4 10.6-4 22.5-9.1 29h-.6c-7 0-14.8-7-19.4-14.5 9.4-.8 19.7-6 29.1-14.5m2-6.7a2 2 0 0 0-1.4.6c-9 9.2-21 16.7-32.2 16.7h-.7a2 2 0 0 0-1.9 2.9c4.8 9.7 14.9 19.5 24.5 19.5.7 0 1.3 0 2-.2.4 0 .8-.3 1.1-.6 6.7-8 11.3-23.9 10.6-37a2 2 0 0 0-2-1.9z" fill="#6F21A1"/><linearGradient id="a" x1="64" x2="64" y1="29.9" y2="110.9" gradientUnits="userSpaceOnUse"><stop stop-color="#792D85" offset=".1"/><stop stop-color="#AC1CB3" offset=".3"/><stop stop-color="#D90DDC" offset=".5"/><stop stop-color="#F503F6" offset=".7"/><stop stop-color="#f0f" offset=".8"/></linearGradient><path d="M64 118c-24.6 0-51-15.4-51-49.2s26.4-49.1 51-49.1c13.6 0 26.2 4.5 35.5 12.6A47 47 0 0 1 115 68.8a47 47 0 0 1-15.5 36.4A53.3 53.3 0 0 1 64 118z" fill="url(#a)"/><path d="M64 21.6c13.1 0 25.3 4.4 34.2 12.2a45.1 45.1 0 0 1 14.8 35 45 45 0 0 1-14.8 34.9A51.5 51.5 0 0 1 64 115.9a51.5 51.5 0 0 1-34.2-12A45.1 45.1 0 0 1 15 68.8a45 45 0 0 1 14.8-35.1c8.9-7.8 21-12 34.2-12m0-4c-27.5 0-53 17.6-53 51.1 0 33.3 25.5 51.1 53 51.1s53-18.3 53-51.1c0-33-25.5-51.2-53-51.2z" fill="#6F21A1"/><path d="M81.3 87.5c1.2 0 2.3.7 2.9 1.7.7 1.4.5 3-.5 4.6-2.2 3.4-9.5 8.7-19.7 8.7s-17.5-5.3-19.7-8.7c-1-1.5-1.2-3.2-.5-4.5a3.3 3.3 0 0 1 3-1.7l1.1.1a54.5 54.5 0 0 0 32.1 0l1.3-.2z" fill="#242424"/><g fill="#242424"><path d="M55.1 72.2c-.7 0-1.3-.2-1.9-.7-3-2.5-12.7-8-16.3-9.7a3 3 0 0 1-1.7-3.3 2.9 2.9 0 0 1 3.5-2.2c1.4.4 2.7.8 3.9 1.4 3.3 1.6 12.6 7 14.8 9.8.7.9.9 2 .4 3a3 3 0 0 1-2.7 1.7zm17.8 0c.7 0 1.4-.2 1.9-.7 3-2.5 12.7-8 16.3-9.7a3 3 0 0 0 1.7-3.3 2.9 2.9 0 0 0-3.5-2.2c-1.4.4-2.7.8-3.9 1.4-3.3 1.6-12.6 7-14.8 9.8a3 3 0 0 0-.4 3 3 3 0 0 0 2.7 1.7z"/><path d="M40.3 73.8c0 4.3 3.3 7.8 7.5 7.8s7.5-3.5 7.5-7.8v-1.4c0-4.3-3.4-7.8-7.5-7.8s-7.5 3.5-7.5 7.8v1.4zm32.4 0c0 4.3 3.4 7.8 7.5 7.8s7.5-3.5 7.5-7.8v-1.4c0-4.3-3.3-7.8-7.5-7.8s-7.5 3.5-7.5 7.8v1.4z"/></g></svg>