<svg viewBox="0 0 128 128" xmlns="http://www.w3.org/2000/svg"><linearGradient id="a" x1="64" x2="64" y1="19.7" y2="107.7" gradientUnits="userSpaceOnUse"><stop stop-color="#F6A323" offset=".6"/><stop stop-color="#FEE133" offset=".9"/></linearGradient><path d="M64 119.9c-28 0-58-17.5-58-55.9S36 8.1 64 8.1c15.5 0 29.8 5.1 40.4 14.4A53.5 53.5 0 0 1 122 64c0 16.9-6.1 31.2-17.6 41.4A60.6 60.6 0 0 1 64 119.9z" fill="url(#a)"/><path d="M64 10.1c15 0 28.9 5 39 14A51.5 51.5 0 0 1 120 64c0 16.3-5.9 30-17 39.9-10.2 9-24 14-39 14s-28.9-5-39-13.8A51.5 51.5 0 0 1 8 64c0-16.5 5.9-30.4 17-40.2a58.9 58.9 0 0 1 39-13.7m0-4C32.9 6.1 4 26.1 4 64c0 37.7 28.9 57.9 60 57.9s60-20.7 60-57.9c0-37.4-28.9-57.9-60-57.9z" fill="#EB8F00"/><path fill="none" stroke="#242424" stroke-linecap="round" stroke-linejoin="round" stroke-miterlimit="10" stroke-width="8" d="M35.3 88.1l9.6 9.2 9.5-9.2 9.6 9.2 9.5-9.2 9.6 9.2 9.6-9.2"/><path d="M32.2 69l12.2-2.3-12.6-5.2-.4-.3c-2.6-1.6-3-4.8-.7-6.9 1.8-1.6 4.7-1.6 6.8-.3l21.3 13c.8.6.7 1.6-.2 2l-23 8.6-.4.2c-3 .8-6.3-1-6.8-3.8-.3-2.2 1.4-4.3 3.8-5zm63.6-.2l-12.2-2.4 12.6-5.2.4-.2c2.6-1.6 3-4.9.7-7-1.8-1.5-4.7-1.5-6.8-.2l-21.3 13c-.8.5-.7 1.6.2 2l23 8.5.4.2c3 .8 6.3-.9 6.8-3.8.3-2.2-1.4-4.2-3.8-4.9z" fill="#242424"/></svg>