<svg viewBox="0 0 128 128" xmlns="http://www.w3.org/2000/svg"><linearGradient id="a" x1="64.1" x2="64.1" y1="19.7" y2="107.8" gradientUnits="userSpaceOnUse"><stop stop-color="#FEE133" offset=".5"/><stop stop-color="#FEDE32" offset=".6"/><stop stop-color="#FCD32F" offset=".7"/><stop stop-color="#FAC12B" offset=".8"/><stop stop-color="#F7A924" offset=".9"/><stop stop-color="#F6A323" offset=".9"/></linearGradient><path d="M64 120c-27.9 0-58-17.5-58-56C6 25.7 36.1 8.2 64 8.2c15.6 0 30 5.2 40.5 14.5A53.5 53.5 0 0 1 122 64c0 16.8-6 31.2-17.6 41.4A60.6 60.6 0 0 1 64 120z" fill="url(#a)"/><path d="M64 10.1c15 0 29 5 39.1 14a51.6 51.6 0 0 1 17 40c0 16.3-5.9 30-17 39.9-10.2 9-24 14-39 14s-29-5-39.1-13.8A51.6 51.6 0 0 1 8 64c0-16.5 6-30.4 17-40.1A59 59 0 0 1 64 10m0-4C32.9 6 4 26 4 64c0 37.8 29 58 60 58 31.2 0 60.1-20.7 60.1-58S95.2 6.2 64.1 6.2z" fill="#EB8F00"/><path d="M29 44c-.8 0-1.6-.4-2-1-.6-.8-.6-1.6-.3-2.5a21.4 21.4 0 0 1 16.8-13.3h.4c1.3 0 2.3.9 2.5 2.1.2 1.2-.4 2.6-1.8 3l-.4-.6.2.7a26 26 0 0 0-13 10.3c-.5.9-1.4 1.4-2.3 1.4z" fill="#EB8F00" stroke="#EB8F00" stroke-miterlimit="10"/><path d="M97.7 95.5c-3.1 0-6.6-.3-10.5-1 1.6-2.6 2.1-5.8 1.3-9-1.5-5.3-2.6-12.7.7-17.6a8 8 0 0 1 11.2-2.2 8 8 0 0 1 3.7 7.3 2 2 0 0 0 2.8 2 8.2 8.2 0 0 1 11.6 5.7c.4 2.1 0 4.3-1.2 6.1-3.9 6-10.1 8.7-19.6 8.7z" fill="#CC1775"/><path d="M96 66.3a6.1 6.1 0 0 1 6.1 6.6 4 4 0 0 0 5.7 3.9 6.3 6.3 0 0 1 6 .4c1.5 1 2.4 2.3 2.7 4a6 6 0 0 1-.9 4.5c-2.2 3.4-6.4 7.8-18 7.8-2.2 0-4.7-.2-7.4-.5.8-2.5 1-5.3.2-8-1.4-5-2.5-11.7.4-16 1.2-1.7 3-2.7 5.1-2.7m0-4c-3.2 0-6.5 1.6-8.4 4.4-3.6 5.5-2.7 13.3-1 19.4 1 3.6-.2 7.5-3 9.9a76 76 0 0 0 14.2 1.5c11 0 17.4-3.6 21.3-9.6a10 10 0 0 0 1.5-7.5 10.2 10.2 0 0 0-14.4-7.2c.2-3.5-1.4-7-4.5-9.2a9.7 9.7 0 0 0-5.7-1.7z" fill="#B3005C"/><path d="M62.9 74.5h1.4a20.3 20.3 0 0 1 3 .3l1.7.4c.5.1 1.1.3 1.6.6A8.8 8.8 0 0 1 74 78c.5.5 1 1.1 1.2 1.9.4.6.5 1.4.7 2v2.2l-.2.7-.2.6a5 5 0 0 1-.6 1.1 5 5 0 0 1-.7 1l-.8.7a8.4 8.4 0 0 1-3.4 1.6 13.6 13.6 0 0 1-3.3.4V85l1 .1 1 .2 1.8.5c1.2.5 2.4 1.2 3.4 2.3a8.6 8.6 0 0 1 1.8 3l.2 1 .2 1v1.4l-.1.7-.2.6c0 .3-.2.5-.3.8l-.3.7-.4.5-.7 1-1 .8-.8.6-.9.5-.9.4-1.7.5a21.7 21.7 0 0 1-5 .8l-1.7.1a3.5 3.5 0 0 1 .1-7h2.7c.8 0 1.6-.1 2.3-.3l1-.2.5-.2c.1 0 .3 0 .4-.2l.3-.1.2-.2.2-.1c0 .1 0 .2 0 0l.2-.7v-.1.3-1.1l-.1-.2-.3-.6-1.3-1a6.2 6.2 0 0 0-1.4-.4l-.5-.1a2.7 2.7 0 0 1 .1-5.4 9.2 9.2 0 0 0 2-.4l1.2-.7.1-.2c.1 0 0-.1 0-.1v.1-.8.2l-.1-.4-.3-.2-.4-.3-.7-.3-.8-.2a11.3 11.3 0 0 0-3.1-.2H63a3.5 3.5 0 1 1-.6-7h.3z" fill="#242424"/><g fill="#242424"><path d="M72.7 52.2l.2-.2.2-.2.5-.3a11.3 11.3 0 0 1 3-1.5 22 22 0 0 1 4.2-.9c1.6-.1 3.3 0 5 .1l1 .2a26.4 26.4 0 0 1 3.6 1 17.6 17.6 0 0 1 6.3 4.3l.6.7.2.3a2.7 2.7 0 0 1-3.8 3.8l-.3-.2-.6-.4a16.7 16.7 0 0 0-4.6-2 26 26 0 0 0-1.7-.4l-.8-.2-1-.1a24.3 24.3 0 0 0-6.5 0l-1.1.2-.8.2H76l-.3.1-.2.1a2.8 2.8 0 0 1-2.8-4.6z"/><path d="M72 52.5l.1-.3.5-.7c.5-.6 1.1-1.5 2-2.3.9-1 2-1.8 3.1-2.7.6-.5 1.2-1 2-1.3a68 68 0 0 1 2-1.3l2-1 2.1-1a27.5 27.5 0 0 1 7-1.8H94a2.8 2.8 0 0 1 .8 5.3h-.2l-.7.3a45.6 45.6 0 0 0-5.3 2.4l-1.7 1a46.3 46.3 0 0 0-3.6 2l-1.7 1a80.3 80.3 0 0 0-4.7 3.3c-.2 0-.3.2-.5.3l-.2.2c-1.1 1-2.9 1-3.9-.2-.8-.9-.9-2.2-.3-3.2z"/></g><radialGradient id="b" cx="29.8" cy="66.9" r="19.4" gradientTransform="matrix(.9791 0 0 .9301 2 8)" gradientUnits="userSpaceOnUse"><stop stop-color="#ED7770" offset="0"/><stop stop-color="#ED7770" stop-opacity="0" offset=".9"/></radialGradient><circle cx="31.3" cy="70.3" r="17.5" fill="url(#b)" opacity=".8"/><path d="M44.7 40.6c-4.2 0-8 3.5-8 9.4s3.8 9.5 8 9.5 8-3.6 8-9.5-3.8-9.4-8-9.4z" fill="#242424"/></svg>