<svg viewBox="0 0 128 128" xmlns="http://www.w3.org/2000/svg"><linearGradient id="a" x1="64.5" x2="64.5" y1="19.7" y2="107.7" gradientUnits="userSpaceOnUse"><stop stop-color="#FEE133" offset=".5"/><stop stop-color="#FEDE32" offset=".6"/><stop stop-color="#FCD32F" offset=".7"/><stop stop-color="#FAC12B" offset=".8"/><stop stop-color="#F7A924" offset=".9"/><stop stop-color="#F6A323" offset=".9"/></linearGradient><path d="M64.5 119.9c-28 0-58-17.5-58-55.9s30-55.9 58-55.9c15.5 0 29.8 5.1 40.4 14.4A53.5 53.5 0 0 1 122.5 64c0 16.9-6.1 31.2-17.6 41.4a60.6 60.6 0 0 1-40.4 14.5z" fill="url(#a)"/><path d="M64.5 10.1c15 0 28.9 5 39 14a51.5 51.5 0 0 1 17 39.9c0 16.3-5.9 30-17 39.9-10.2 9-24 14-39 14s-28.9-5-39-13.8A51.5 51.5 0 0 1 8.5 64c0-16.5 5.9-30.4 17-40.2a58.9 58.9 0 0 1 39-13.7m0-4c-31.1 0-60 20-60 57.9 0 37.7 28.9 57.9 60 57.9s60-20.7 60-57.9c0-37.4-28.9-57.9-60-57.9z" fill="#EB8F00"/><path d="M27.8 47.3c-1 0-1.7-.4-2.2-1-.5-.8-.6-1.6-.2-2.5a21.4 21.4 0 0 1 16.8-13.3h.4c1.3 0 2.3.9 2.5 2.1.2 1.2-.4 2.6-1.9 3L43 35l.2.8c-5.3 1.8-10 5.6-13 10.3-.5.9-1.4 1.3-2.3 1.3z" fill="#EB8F00" stroke="#EB8F00" stroke-miterlimit="10"/><radialGradient id="b" cx="29.7" cy="69.7" r="19.4" gradientTransform="matrix(.9791 0 0 .9301 -1.9 9.3)" gradientUnits="userSpaceOnUse"><stop stop-color="#ED7770" offset="0"/><stop stop-color="#ED7770" stop-opacity="0" offset=".9"/></radialGradient><circle cx="27.3" cy="74.2" r="17.5" fill="url(#b)" opacity=".8"/><radialGradient id="c" cx="104.8" cy="69.7" r="19.4" gradientTransform="matrix(.9791 0 0 .9301 -1.9 9.3)" gradientUnits="userSpaceOnUse"><stop stop-color="#ED7770" offset="0"/><stop stop-color="#ED7770" stop-opacity="0" offset=".9"/></radialGradient><circle cx="100.8" cy="74.2" r="17.5" fill="url(#c)" opacity=".8"/><path d="M100.2 47.3c1 0 1.7-.4 2.2-1 .5-.8.6-1.6.2-2.5a21.4 21.4 0 0 0-16.8-13.3h-.4c-1.3 0-2.3.9-2.5 2.1-.2 1.2.4 2.6 1.9 3l.3-.7-.2.8c5.3 1.8 10 5.6 13 10.3.5.9 1.3 1.3 2.3 1.3z" fill="#EB8F00" stroke="#EB8F00" stroke-miterlimit="10"/><path d="M62.9 74.5h1.4a20.3 20.3 0 0 1 3 .3l1.7.4c.5.1 1.1.3 1.6.6A8.8 8.8 0 0 1 74 78c.5.5 1 1.1 1.2 1.9.4.6.5 1.4.7 2v2.2l-.2.7-.2.6a5 5 0 0 1-.6 1.1 5 5 0 0 1-.7 1l-.8.7a8.4 8.4 0 0 1-3.4 1.6 13.6 13.6 0 0 1-3.3.4V85l1 .1 1 .2 1.8.5c1.2.5 2.4 1.2 3.4 2.3a8.6 8.6 0 0 1 1.8 3l.2 1 .2 1v1.4l-.1.7-.2.6c0 .3-.2.5-.3.8l-.3.7-.4.5-.7 1-1 .8-.8.6-.9.5-.9.4-1.7.5a21.7 21.7 0 0 1-5 .8l-1.7.1a3.5 3.5 0 0 1 .1-7h2.7c.8 0 1.6-.1 2.3-.3l1-.2.5-.2c.1 0 .3 0 .4-.2l.3-.1.2-.2.2-.1c0 .1 0 .2 0 0l.2-.7v-.1.3-1.1l-.1-.2-.3-.6-1.3-1a6.2 6.2 0 0 0-1.4-.4l-.5-.1a2.7 2.7 0 0 1 .1-5.4 9.2 9.2 0 0 0 2-.4l1.2-.7.1-.2c.1 0 0-.1 0-.1v.1-.8.2l-.1-.4-.3-.2-.4-.3-.7-.3-.8-.2a11.3 11.3 0 0 0-3.1-.2H63a3.5 3.5 0 1 1-.6-7h.3zM48.1 62.3L48 62l-.2-.3-.3-.3-.6-.6-.9-.8a6.9 6.9 0 0 0-4.6-1.9h.1-.8l-.6.1-1.2.4c-.8.3-1.5.8-2.2 1.4-.6.5-1.2 1-1.5 1.5l-.6.6-.3.3a3.3 3.3 0 0 1-5.6-3.3l.1-.3.4-1A14.1 14.1 0 0 1 38 50l1.7-.3.9-.1h.8c1.1 0 2.2.1 3.3.4a13.6 13.6 0 0 1 8.9 8l.2.4v.4l.2.2a3.4 3.4 0 0 1-5.8 3.2zm45.4 0l-.2-.2-.2-.3-.3-.3-.6-.6-.9-.8a6.9 6.9 0 0 0-4.6-1.9h.2-.9l-.5.1-1.3.4c-.8.3-1.5.8-2.2 1.4l-1.5 1.5-.6.6-.3.3a3.3 3.3 0 0 1-5.6-3.3l.1-.3.4-1a14.1 14.1 0 0 1 8.8-7.8l1.7-.3 1-.1h.7c1.1 0 2.3.1 3.3.4a13.6 13.6 0 0 1 8.8 8l.3.4.1.4.1.2c.6 1.8-.4 3.7-2.2 4.3-1.3.4-2.8 0-3.6-1.1z" fill="#242424"/></svg>