<svg viewBox="0 0 128 128" xmlns="http://www.w3.org/2000/svg" xmlns:xlink="http://www.w3.org/1999/xlink"><symbol id="h" viewBox="-64.5 -64.5 129 129"><g fill="none" stroke="#4285F4" stroke-miterlimit="10"><path d="M-64-64H64V64H-64z"/><path d="M36.95 37.82C27.32 46.32 14.2 51 0 51c-14.27 0-27.39-4.62-36.96-13.01C-47.45 28.79-53 15.65-53 0c0-15.58 5.55-28.69 16.04-37.92C-27.36-46.35-14.24-51 0-51c14.17 0 27.29 4.71 36.95 13.25C47.45-28.45 53-15.4 53 0c0 15.47-5.55 28.55-16.05 37.82z"/><path d="M0 55c-29.59 0-57-19.01-57-55 0-35.8 27.41-55 57-55S57-35.31 57 0c0 35.51-27.41 55-57 55z"/><path d="M0-43c-12.29 0-23.54 3.94-31.68 11.09C-40.39-24.25-45-13.21-45 0c0 29.7 22.6 43 45 43 21.67 0 45-13.46 45-43S21.67-43 0-43zM-.01 51V-51M-16 48.95v-97.88M15.99 48.91v-97.84M53 .08H-53"/></g></symbol><linearGradient id="a" x1="64" x2="64" y1="19.096" y2="107.08" gradientUnits="userSpaceOnUse"><stop stop-color="#FEE133" offset=".5"/><stop stop-color="#FEDE32" offset=".612"/><stop stop-color="#FCD32F" offset=".708"/><stop stop-color="#FAC12B" offset=".797"/><stop stop-color="#F7A924" offset=".883"/><stop stop-color="#F6A323" offset=".9"/></linearGradient><path d="M64 119.28c-27.94 0-58-17.49-58-55.9 0-38.4 30.07-55.9 58-55.9 15.48 0 29.81 5.13 40.36 14.43C115.9 32.1 122 46.44 122 63.38c0 16.86-6.1 31.18-17.64 41.39-10.57 9.35-24.91 14.51-40.36 14.51z" fill="url(#a)"/><path d="M64 9.48c14.99 0 28.86 4.95 39.04 13.93 11.1 9.8 16.97 23.62 16.97 39.96 0 16.27-5.87 30.07-16.97 39.89-10.21 9.03-24.07 14-39.03 14.01-15.04 0-28.9-4.91-39.04-13.82C13.86 93.7 8 79.84 8 63.38c0-16.54 5.86-30.42 16.96-40.15C35.07 14.37 48.93 9.48 64 9.48m0-4c-31.15 0-60 20.01-60 57.9 0 37.68 28.85 57.9 60 57.9s60-20.73 60-57.9c0-37.37-28.85-57.9-60-57.9z" fill="#EB8F00"/><defs><path id="b" d="M62.66 80.43c-12.72 0-24.54-1.07-34.4-2.89-2.45-.45-4.61 1.7-4.11 4.13 3.28 16.04 19.07 29.21 38.5 29.21 21.27 0 35.58-13.6 38.55-29.27.46-2.42-1.7-4.53-4.12-4.08-9.86 1.83-21.69 2.9-34.42 2.9z"/></defs><clipPath id="c"><use xlink:href="#b"/></clipPath><path d="M62.66 80.43c-12.72 0-24.54-1.07-34.4-2.89-2.45-.45-4.61 1.7-4.11 4.13 3.28 16.04 19.07 29.21 38.5 29.21 21.27 0 35.58-13.6 38.55-29.27.46-2.42-1.7-4.53-4.12-4.08-9.86 1.83-21.69 2.9-34.42 2.9z" clip-path="url(#c)" fill="#242424"/><g clip-path="url(#c)" opacity=".6"><path d="M97.13 81.59c-1.46 6.75-5.29 12.91-10.86 17.43-6.35 5.15-14.51 7.87-23.62 7.87-16.41 0-31.07-10.82-34.42-25.29 10.29 1.85 22.18 2.83 34.44 2.83s24.16-.98 34.46-2.84m.61-4.12c-.22 0-.43.02-.66.06-9.87 1.83-21.69 2.9-34.42 2.9-12.72 0-24.54-1.07-34.4-2.89-.22-.04-.44-.06-.66-.06-2.16 0-3.91 1.98-3.46 4.2 3.28 16.04 19.07 29.21 38.5 29.21 21.27 0 35.58-13.6 38.55-29.27.43-2.2-1.31-4.15-3.45-4.15z"/></g><path d="M62.66 80.43c-12.72 0-24.54-1.07-34.4-2.89-2.45-.45-4.61 1.7-4.11 4.13 3.28 16.04 19.07 29.21 38.5 29.21 21.27 0 35.58-13.6 38.55-29.27.46-2.42-1.7-4.53-4.12-4.08-9.86 1.83-21.69 2.9-34.42 2.9z" fill="none"/><path d="M62.66 80.43c-12.72 0-24.54-1.07-34.4-2.89-2.45-.45-4.61 1.7-4.11 4.13 3.28 16.04 19.07 29.21 38.5 29.21 21.27 0 35.58-13.6 38.55-29.27.46-2.42-1.7-4.53-4.12-4.08-9.86 1.83-21.69 2.9-34.42 2.9z" fill="none"/><defs><path id="d" d="M28.26 82.35v44.16h68.05V82.35c-10.12 1.76-21.72 2.69-33.66 2.69-11.92 0-23.5-.92-33.62-2.68"/></defs><clipPath id="e"><use xlink:href="#d"/></clipPath><path d="M65.03 126.16h-3.28c-9.51 0-17.21-7.71-17.21-17.21V70.18h37.71v38.76c-.01 9.51-7.71 17.22-17.22 17.22z" clip-path="url(#e)" fill="#E04C74"/><g clip-path="url(#e)" opacity=".3"><path d="M78.24 74.18v34.76c0 7.29-5.93 13.21-13.21 13.21h-3.28c-7.29 0-13.21-5.93-13.21-13.21V74.18h29.7m4-4h-37.7v38.76c0 9.51 7.71 17.21 17.21 17.21h3.28c9.51 0 17.21-7.71 17.21-17.21V70.18z" fill="#AB3F2E"/></g><path clip-path="url(#e)" fill="none" opacity=".3" stroke="#AB3F2E" stroke-linecap="round" stroke-miterlimit="10" stroke-width="4" d="M63.39 70.18v34.14"/><g fill="#242424"><path d="M83.76 38.05c3.69 0 7.04 4.33 7.04 11.5s-3.35 11.5-7.04 11.5-7.04-4.33-7.04-11.5 3.36-11.5 7.04-11.5zM44.22 38.05c-3.69 0-7.04 4.33-7.04 11.5s3.35 11.5 7.04 11.5 7.04-4.33 7.04-11.5-3.35-11.5-7.04-11.5z"/></g></svg>