<svg viewBox="0 0 128 128" xmlns="http://www.w3.org/2000/svg"><linearGradient id="a" x1="64" x2="64" y1="19.7" y2="107.7" gradientUnits="userSpaceOnUse"><stop stop-color="#FEE133" offset=".5"/><stop stop-color="#FEDE32" offset=".6"/><stop stop-color="#FCD32F" offset=".7"/><stop stop-color="#FAC12B" offset=".8"/><stop stop-color="#F7A924" offset=".9"/><stop stop-color="#F6A323" offset=".9"/></linearGradient><path d="M64 119.9c-28 0-58-17.5-58-55.9S36 8.1 64 8.1c15.5 0 29.8 5.1 40.4 14.4A53.5 53.5 0 0 1 122 64c0 16.9-6.1 31.2-17.7 41.4A60.6 60.6 0 0 1 64 119.9z" fill="url(#a)"/><path d="M64 10.1c15 0 28.9 5 39 14A51.5 51.5 0 0 1 120 64c0 16.3-5.9 30-17 39.9-10.2 9-24 14-39 14s-29-5-39-13.8C13.9 94.3 8 80.5 8 64s5.9-30.4 17-40.2a58.9 58.9 0 0 1 39-13.7m0-4C32.8 6.1 4 26.1 4 64c0 37.7 28.8 57.9 60 57.9s60-20.7 60-57.9c0-37.4-29-57.9-60-57.9z" fill="#EB8F00"/><path d="M87 30.4h-.2c-2-.7-1.7-3.9.7-3.6a20.7 20.7 0 0 1 16.2 12.8c.9 2.2-2.2 3.4-3.3 1.5a26 26 0 0 0-13.5-10.7zm-46.3 0h.2c2-.7 1.7-3.9-.7-3.6A20.7 20.7 0 0 0 24 39.6c-.9 2.2 2.2 3.4 3.3 1.5a26 26 0 0 1 13.4-10.7z" fill="#EB8F00" stroke="#EB8F00" stroke-miterlimit="10"/><path d="M65.5 84.9c10.1 2 16.3 8.7 17.8 12.5.5 1.4.4 2.9-.4 3.8-.5.7-1.4 1-2.3.8A58.5 58.5 0 0 0 46 94.8h-1c-1-.3-1.6-.9-2-1.7-.3-1.2.2-2.6 1.3-3.7 2.8-2.8 11.1-6.6 21.2-4.5z" fill="#242424"/><path fill="none" stroke="#242424" stroke-linecap="round" stroke-linejoin="round" stroke-miterlimit="10" stroke-width="7" d="M25 54.5h26"/><path d="M43.2 52.6c-3.6 0-7 2.5-7 6.7s3.4 6.7 7 6.7 7-2.5 7-6.7-3.4-6.7-7-6.7z" fill="#242424"/><path fill="none" stroke="#242424" stroke-linecap="round" stroke-linejoin="round" stroke-miterlimit="10" stroke-width="7" d="M76 54.5h26"/><path d="M94.2 52.6c-3.6 0-7 2.5-7 6.7s3.4 6.7 7 6.7 7-2.5 7-6.7-3.4-6.7-7-6.7z" fill="#242424"/></svg>