<svg viewBox="0 0 128 128" xmlns="http://www.w3.org/2000/svg"><symbol id="d" viewBox="-64.5 -64.5 129 129"><g fill="none" stroke="#4285F4" stroke-miterlimit="10"><path d="M-64-64H64V64H-64z"/><path d="M36.95 37.82C27.32 46.32 14.2 51 0 51c-14.27 0-27.39-4.62-36.96-13.01C-47.45 28.79-53 15.65-53 0c0-15.58 5.55-28.69 16.04-37.92C-27.36-46.35-14.24-51 0-51c14.17 0 27.29 4.71 36.95 13.25C47.45-28.45 53-15.4 53 0c0 15.47-5.55 28.55-16.05 37.82z"/><path d="M0 55c-29.59 0-57-19.01-57-55 0-35.8 27.41-55 57-55S57-35.31 57 0c0 35.51-27.41 55-57 55z"/><path d="M0-43c-12.29 0-23.54 3.94-31.68 11.09C-40.39-24.25-45-13.21-45 0c0 29.7 22.6 43 45 43 21.67 0 45-13.46 45-43S21.67-43 0-43zM-.01 51V-51M-16 48.95v-97.88M15.99 48.91v-97.84M53 .08H-53"/></g></symbol><linearGradient id="a" x1="64" x2="64" y1="19.717" y2="107.7" gradientUnits="userSpaceOnUse"><stop stop-color="#F6A323" offset=".438"/><stop stop-color="#FAC42C" offset=".637"/><stop stop-color="#FDD931" offset=".806"/><stop stop-color="#FEE133" offset=".917"/></linearGradient><path d="M64 119.89C36.07 119.89 6 102.4 6 64S36.07 8.11 64 8.11c15.48 0 29.81 5.12 40.36 14.43C115.9 32.72 122 47.06 122 64c0 16.86-6.1 31.17-17.64 41.39-10.58 9.35-24.91 14.5-40.36 14.5z" fill="url(#a)"/><path d="M64 10.11c14.99 0 28.86 4.95 39.03 13.93C114.13 33.83 120 47.65 120 64c0 16.27-5.87 30.07-16.97 39.89-10.21 9.03-24.07 14-39.03 14-15.04 0-28.9-4.91-39.04-13.82C13.86 94.32 8 80.46 8 64c0-16.54 5.86-30.42 16.96-40.15C35.07 14.99 48.93 10.11 64 10.11m0-4c-31.15 0-60 20-60 57.89 0 37.68 28.85 57.89 60 57.89s60-20.73 60-57.89c0-37.37-28.85-57.89-60-57.89z" fill="#EB8F00"/><path d="M64 78.61c11.99 0 20.54 6.22 23.11 10.14.99 1.51 1.19 3.16.52 4.39-.5.93-1.42 1.47-2.51 1.47-.37 0-.75-.06-1.13-.18-6.04-1.89-12.97-2.89-20.03-2.89-7.02 0-13.92 1-19.94 2.89-.39.12-.77.18-1.13.18-1.09 0-2.01-.54-2.51-1.47-.67-1.24-.47-2.88.52-4.39 2.56-3.92 11.11-10.14 23.1-10.14z" fill="#242424"/><g fill="#6D4C41" stroke="#6D4C41" stroke-miterlimit="10"><path d="M32.88 31.55c.36-1.12 1.35-1.86 2.54-1.89 3.28-.14 6.53-1.74 8.67-4.3.86-1.07 2.3-1.37 3.45-.75 1.11.59 1.59 1.8 1.21 3.01-.05.16-.12.32-.2.48a12.64 12.64 0 0 1-2.73 3.43c-2.95 2.65-6.99 3.9-10.8 3.34-.85-.14-1.51-.57-1.91-1.21-.37-.62-.45-1.39-.23-2.11zM91.88 31.55c-.36-1.12-1.35-1.86-2.54-1.89-3.28-.14-6.53-1.74-8.67-4.3-.86-1.07-2.3-1.37-3.45-.75-1.11.59-1.59 1.8-1.21 3.01.05.16.12.32.2.48a12.64 12.64 0 0 0 2.73 3.43c2.95 2.65 6.99 3.9 10.8 3.34.85-.14 1.51-.57 1.91-1.21.37-.62.46-1.39.23-2.11z"/></g><path d="M83.76 38.8c3.69 0 7.04 4.33 7.04 11.5s-3.35 11.5-7.04 11.5-7.04-4.33-7.04-11.5 3.36-11.5 7.04-11.5zM44.22 38.8c-3.69 0-7.04 4.33-7.04 11.5s3.35 11.5 7.04 11.5 7.04-4.33 7.04-11.5-3.35-11.5-7.04-11.5z" fill="#242424"/></svg>