<svg width="128" height="128" viewBox="-151 297 128 128" xmlns="http://www.w3.org/2000/svg"><linearGradient id="a" x1="-87" x2="-87" y1="407.3" y2="319.3" gradientTransform="matrix(1 0 0 -1 0 724)" gradientUnits="userSpaceOnUse"><stop stop-color="#F6A323" offset=".6"/><stop stop-color="#FEE133" offset=".9"/></linearGradient><path d="M-87 416.9c-28 0-58-17.5-58-55.9s30-55.9 58-55.9c15.5 0 29.8 5.1 40.4 14.4A53.5 53.5 0 0 1-29 361c0 16.9-6.1 31.2-17.6 41.4A60.6 60.6 0 0 1-87 416.9z" fill="url(#a)"/><path d="M-87 307.1c15 0 28.9 5 39 14A51.5 51.5 0 0 1-31 361c0 16.3-5.9 30-17 39.9-10.2 9-24 14-39 14s-28.9-5-39-13.8a51.5 51.5 0 0 1-17-40.1c0-16.5 5.9-30.4 17-40.1A58.9 58.9 0 0 1-87 307m0-4c-31.1 0-60 20-60 57.9 0 37.7 28.9 57.9 60 57.9s60-20.7 60-57.9c0-37.4-28.9-57.9-60-57.9z" fill="#EB8F00"/><path d="M-98.3 400a9.5 9.5 0 0 1-8.2-4.7 8 8 0 0 1 .4-8.8c4.3-6 10.9-9.2 19-9.2a22 22 0 0 1 19.1 9.2 8 8 0 0 1 .5 8.9 9.4 9.4 0 0 1-8.2 4.6c-1 0-2-.2-3.1-.5-2.7-.9-5.4-2.3-8.2-2.3s-5.6 1.4-8.2 2.3c-1 .3-2 .5-3.1.5zm30-53c4.2 0 8 3.5 8 9.4s-3.8 9.4-8 9.4-8-3.6-8-9.4 3.8-9.5 8-9.5zm-37.5 0c-4.2 0-8 3.5-8 9.4s3.8 9.4 8 9.4 8-3.6 8-9.4-3.8-9.5-8-9.5z" fill="#242424"/><path d="M-121.6 339v-.8l.1-.4.1-.6.2-.6c0-.3.2-.5.3-.7a12.4 12.4 0 0 1 1.6-3c.3-.4.7-1 1.2-1.3.4-.5 1-1 1.5-1.3.5-.4 1-.8 1.6-1l1.7-.9a13.4 13.4 0 0 1 4.6-.7 7 7 0 0 1 2 .3 1.8 1.8 0 0 1 0 3.4h-.2l-.7.3c-.2 0-.4 0-.7.2l-.9.2-1 .4-1 .6-1.2.6-1.1.8-1 .8-1 .9-.8.9-.7.8-.5.8-.2.3-.2.3-.3.7c-.6.8-1.7 1.1-2.5.6-.6-.3-1-1-.9-1.6zm65.8 1l-.4-.7s0-.2-.2-.3 0-.2-.2-.3c0-.2-.3-.4-.5-.7l-.6-.9-.8-.9-1-.9-1-.8-1.1-.8-1.1-.6-1.1-.5-1-.4-1-.3-.7-.2-.6-.2h-.3c-1-.4-1.4-1.4-1.1-2.3.1-.6.6-1 1.2-1.2l1-.2h2.3a11.5 11.5 0 0 1 3.3.7c.5.2 1.1.4 1.7.8l1.6 1 1.5 1.3c.5.4.8 1 1.2 1.4a11.2 11.2 0 0 1 1.6 3l.3.6.1.7.2.5v1.2c.1 1-.7 1.9-1.7 1.9-.7 0-1.3-.4-1.6-.9z" fill="#6D4C41"/></svg>