<svg viewBox="0 0 128 128" xmlns="http://www.w3.org/2000/svg"><linearGradient id="a" x1="64" x2="64" y1="20.2" y2="107.3" gradientUnits="userSpaceOnUse"><stop stop-color="#FEE133" offset=".5"/><stop stop-color="#FEDE32" offset=".6"/><stop stop-color="#FCD32F" offset=".7"/><stop stop-color="#FAC12B" offset=".8"/><stop stop-color="#F7A924" offset=".9"/><stop stop-color="#F6A323" offset=".9"/></linearGradient><path d="M64 119.3C36.3 119.3 6.6 102 6.6 64S36.3 8.7 64 8.7A60 60 0 0 1 104 23a53 53 0 0 1 17.4 41 53 53 0 0 1-17.5 41 60 60 0 0 1-40 14.3z" fill="url(#a)"/><path d="M64 10.7a58 58 0 0 1 38.6 13.8A51 51 0 0 1 119.4 64a51 51 0 0 1-16.8 39.5A58 58 0 0 1 64 117.3a58.2 58.2 0 0 1-38.6-13.6A51 51 0 0 1 8.6 64a51 51 0 0 1 16.8-39.7A58.2 58.2 0 0 1 64 10.7m0-4C33 6.7 4.6 26.5 4.6 64c0 37.3 28.6 57.3 59.4 57.3 30.8 0 59.4-20.5 59.4-57.3 0-37-28.6-57.3-59.4-57.3z" fill="#EB8F00"/><radialGradient id="b" cx="35.9" cy="56" r="19.4" gradientTransform="matrix(.9791 0 0 .764 2 9.7)" gradientUnits="userSpaceOnUse"><stop stop-color="#ED7770" offset="0"/><stop stop-color="#ED7770" stop-opacity="0" offset=".9"/></radialGradient><ellipse cx="37.3" cy="52.5" rx="17.5" ry="14.4" fill="url(#b)" opacity=".8"/><radialGradient id="c" cx="90.6" cy="56" r="19.4" gradientTransform="matrix(.9791 0 0 .764 2 9.7)" gradientUnits="userSpaceOnUse"><stop stop-color="#ED7770" offset="0"/><stop stop-color="#ED7770" stop-opacity="0" offset=".9"/></radialGradient><ellipse cx="90.8" cy="52.5" rx="17.5" ry="14.4" fill="url(#c)" opacity=".8"/><path d="M73.9 37.1l.2.2.3.1.2.1a19.6 19.6 0 0 0 4.1 1.2l1.5.2h3.2c.5 0 1 0 1.5-.2a17.3 17.3 0 0 0 4.7-1.5l.5-.3a3 3 0 0 1 3.7 4.5l-.2.3-.6.7a15.3 15.3 0 0 1-10 4.2h-1.2a24.4 24.4 0 0 1-4.7-.6 15 15 0 0 1-6.5-3.7l-.4-.4-.2-.2-.1-.2a3 3 0 0 1 4-4.4zm-36.9 0l.3.2.2.1.2.1a19.6 19.6 0 0 0 4.2 1.2l1.5.2h3.2c.5 0 1 0 1.5-.2a17.3 17.3 0 0 0 4.7-1.5l.5-.3a3 3 0 0 1 3.7 4.5l-.2.3-.6.7c-.6.5-1.4 1.3-2.5 1.9a15.3 15.3 0 0 1-7.6 2.2H45a24.4 24.4 0 0 1-4.8-.5 15 15 0 0 1-6.4-3.7l-.4-.4-.2-.2-.2-.2a3 3 0 0 1 4-4.4zM84 77.7c-.5 0-.8-.1-1.1-.3-5.5-3.2-12-4.9-18.8-4.9s-13.3 1.7-18.8 4.9a2 2 0 0 1-1 .2 2 2 0 1 1-1.6-3.4 28.2 28.2 0 0 1 42.8.1c.5.6.6 1.4.3 2.1a2 2 0 0 1-1.9 1.3z" fill="#242424"/><path d="M70.3 31.4c-1 0-2-.6-2.5-1.6-.5-.9-.4-2 .3-2.8a21.6 21.6 0 0 1 12.2-7.6c1.2 0 2.3 1 2.6 2.2.3 1.2-.3 2.5-1.5 3a43.8 43.8 0 0 0-9.4 6.1c-.5.5-1.1.7-1.8.7zm-12.5 0c-.7 0-1.3-.2-1.8-.6-2.8-2.4-6-4.5-9.3-6.1a2.7 2.7 0 0 1-1.6-3.1 2.7 2.7 0 0 1 3.4-2c1.2.2 2.4.7 3.6 1.2 3 1.5 5.7 3.6 7.8 6.2.7.8.8 2 .3 2.9-.4.9-1.4 1.5-2.5 1.5z" fill="#EB8F00" stroke="#EB8F00" stroke-miterlimit="10"/><path d="M91.2 78c-.1-7 5.1-12.9 12-13.5h.2a10.4 10.4 0 0 1 17.8 10.9 3 3 0 0 0 .3 3.4 10.4 10.4 0 0 1-13.8 15.3 3 3 0 0 0-3.7.2 10.4 10.4 0 0 1-16.9-6c-.8-4.2 1-8 4-10.4z" fill="#fff"/><path d="M112.3 59.7h.5a10.4 10.4 0 0 1 8.4 15.7 3 3 0 0 0 .3 3.4 10.4 10.4 0 0 1-13.8 15.4 3 3 0 0 0-1.7-.6c-.7 0-1.4.3-2 .8a10.4 10.4 0 0 1-6.7 2.4h-.5C92 96.4 88 93 87 88.2c-.8-4.1 1-8 4-10.4 5.4-4.5 8-6.3 12-13l.3-.3c1.9-3 5-4.9 8.9-4.9m0-4c-5 0-9.4 2.4-12.1 6.5l-.5.7a36 36 0 0 1-9.4 10.5c-.5.5-1 1-1.7 1.4a14.4 14.4 0 0 0 8 26h.7c3.2 0 6.2-1 8.7-3a14.3 14.3 0 0 0 10.8 1.8 14.4 14.4 0 0 0 8.2-22.8 14.4 14.4 0 0 0-12-21l-.7-.1z" fill="#EB8F00"/><path fill="#fff" d="M91.8 79.7L104.6 65l-23.9-9zM37.2 78c.1-7-5.1-12.9-12.1-13.5h-.2A10.4 10.4 0 0 0 7.1 75.4a3 3 0 0 1-.3 3.4 10.4 10.4 0 0 0 13.9 15.3 3 3 0 0 1 3.6.2 10.4 10.4 0 0 0 17-6c.8-4.2-1-8-4-10.4z"/><path d="M16.1 59.7c3.8 0 7 2 8.8 4.8l.3.5c4 6.6 6.7 8.4 12 13a10.4 10.4 0 0 1-5.6 18.7H31c-2.5 0-4.8-.9-6.6-2.4-.6-.4-1.3-.7-2-.7a3 3 0 0 0-1.7.5 10.4 10.4 0 0 1-8.2 1.6 10.5 10.5 0 0 1-5.6-17c.8-.9.9-2.3.3-3.3a10.4 10.4 0 0 1 8.3-15.7h.6m0-4h-.8a14.5 14.5 0 0 0-12 21 14.4 14.4 0 0 0 19 21.1c2.5 2 5.6 3 8.7 3h.8c6.5-.4 12.1-5.3 13.4-11.7 1-5.5-1-11-5.5-14.3l-1.6-1.4a36 36 0 0 1-10-11.2c-2.6-4-7.1-6.5-12-6.5z" fill="#EB8F00"/><path fill="#fff" d="M36.5 79.7L23.8 65l23.8-9z"/></svg>