<svg viewBox="0 0 128 128" xmlns="http://www.w3.org/2000/svg"><linearGradient id="a" x1="64" x2="64" y1="19.7" y2="107.7" gradientUnits="userSpaceOnUse"><stop stop-color="#FEE133" offset=".5"/><stop stop-color="#FEDE32" offset=".6"/><stop stop-color="#FCD32F" offset=".7"/><stop stop-color="#FAC12B" offset=".8"/><stop stop-color="#F7A924" offset=".9"/><stop stop-color="#F6A323" offset=".9"/></linearGradient><path d="M64 120c-28 0-58-17.6-58-56S36 8.1 64 8.1a61 61 0 0 1 40.4 14.5A53.5 53.5 0 0 1 122 64c0 16.9-6.1 31.2-17.6 41.4A60.6 60.6 0 0 1 64 120z" fill="url(#a)"/><path d="M64 10.1c15 0 28.9 5 39 14a51.5 51.5 0 0 1 17 40c0 16.2-5.9 30-17 39.8-10.2 9-24 14-39 14s-28.9-4.9-39-13.8A51.5 51.5 0 0 1 8 64c0-16.6 5.9-30.5 17-40.2A58.9 58.9 0 0 1 64 10m0-4C32.9 6 4 26 4 64c0 37.6 28.9 57.8 60 57.8s60-20.7 60-57.9C124 26.6 95.1 6 64 6z" fill="#EB8F00"/><path d="M55.7 103.3A6.8 6.8 0 0 1 50 92.6c3.1-4.8 8-7.3 14-7.3s10.9 2.5 14 7.3c1.4 2.2 1.6 4.8.3 7s-3.5 3.7-6 3.7c-.7 0-1.5-.1-2.3-.4a18.5 18.5 0 0 0-12 0c-.8.3-1.6.4-2.3.4z" fill="#242424"/><path d="M79.2 31.2H79c-2-.7-1.7-3.9.7-3.6A20.7 20.7 0 0 1 96 40.4c.9 2.2-2.1 3.4-3.3 1.5a26 26 0 0 0-13.4-10.7zm-30.4 0h.2c2-.7 1.7-3.9-.7-3.6A20.7 20.7 0 0 0 32 40.4c-.9 2.2 2.1 3.4 3.3 1.5a26 26 0 0 1 13.4-10.7z" fill="#EB8F00"/><path d="M106.2 104.5c-8.8 0-13.2-6.6-17.5-13-3.8-5.7-7.8-11.6-14.7-11.9a33.7 33.7 0 0 1 16-8 47 47 0 0 1 6-.6c7.5 0 13.8 2 18.4 5.9 4 3.2 6.4 7.5 7 12.2.5 5.6-1.9 12.8-10.6 14.7a21 21 0 0 1-4.8.6z" fill="#5F7AFF"/><path d="M96 73.2c15 0 22.5 8.1 23.4 16.2.5 4.8-1.5 11-8.9 12.6-1.5.3-3 .5-4.4.5-7.1 0-10.7-4.6-15.8-12.1-3-4.6-6.5-9.7-11.7-11.8a28 28 0 0 1 17.5-5.4m0-4c-2 0-4.2 0-6.4.4-6.4.8-13 5-17.8 9.2-1.1 1-.7 2.9.8 2.9h.9c13.3 0 14.3 24.8 32.6 24.8 1.6 0 3.3-.2 5.2-.6 20-4.4 15.5-36.8-15.3-36.8z" fill="#4864ED"/><path d="M49.6 54.7l-.2.2-.5.5a56.5 56.5 0 0 1-2.9 2l-1.3.5-1.5.4-1.6.1h.1-1l-.7-.1-1.5-.4-1.4-.5a16.6 16.6 0 0 1-2.9-2l-.6-.6-.3-.3a3.5 3.5 0 0 0-4.5-.1c-1 .8-1.3 2.1-.8 3.2l.1.3.5.8a12.8 12.8 0 0 0 4 4.4 14 14 0 0 0 5.6 2.3l1.8.3h.8l.8.1 3.3-.3a15.9 15.9 0 0 0 7.5-4c.5-.5 1-1 1.3-1.5l.5-.7.4-.6.4-.8.1-.2c.7-1.5-.1-3.2-1.8-3.8a3.6 3.6 0 0 0-3.7.8zm44.9 0l-.2.2-.5.5a56.5 56.5 0 0 1-2.9 2l-1.4.5-1.5.4-1.5.1h.1-1l-.7-.1-1.5-.4-1.4-.5a16.6 16.6 0 0 1-2.9-2l-.6-.6-.3-.3a3.5 3.5 0 0 0-4.5-.1c-1 .8-1.3 2.1-.8 3.2l.1.3.5.8a12.8 12.8 0 0 0 4 4.4 14 14 0 0 0 5.6 2.3l1.8.3h.8l.8.1 3.3-.3a15.9 15.9 0 0 0 7.5-4c.5-.5 1-1 1.3-1.5l.5-.7.4-.6.4-.8v-.2c.8-1.5 0-3.2-1.7-3.8a3.5 3.5 0 0 0-3.7.8z" fill="#242424"/></svg>