<svg viewBox="0 0 128 128" xmlns="http://www.w3.org/2000/svg"><linearGradient id="a" x1="64" x2="64" y1="19.7" y2="107.7" gradientUnits="userSpaceOnUse"><stop stop-color="#F6A323" offset=".6"/><stop stop-color="#FEE133" offset=".9"/></linearGradient><path d="M64 119.9c-28 0-58-17.5-58-55.9S36 8.1 64 8.1c15.5 0 29.8 5.1 40.4 14.4A53.5 53.5 0 0 1 122 64c0 16.9-6.1 31.2-17.6 41.4A60.6 60.6 0 0 1 64 119.9z" fill="url(#a)"/><path d="M64 10.1c15 0 28.9 5 39 14A51.5 51.5 0 0 1 120 64c0 16.3-5.9 30-17 39.9-10.2 9-24 14-39 14s-28.9-5-39-13.8A51.5 51.5 0 0 1 8 64c0-16.5 5.9-30.4 17-40.2a58.9 58.9 0 0 1 39-13.7m0-4C32.9 6.1 4 26.1 4 64c0 37.7 28.9 57.9 60 57.9s60-20.7 60-57.9c0-37.4-28.9-57.9-60-57.9z" fill="#EB8F00"/><path d="M64 79.4c10.8 0 18.4 5.6 20.7 9.1a4 4 0 0 1 .5 4c-.5.8-1.3 1.3-2.3 1.3-.3 0-.6 0-1-.2a60.8 60.8 0 0 0-35.8 0l-1 .2c-1 0-1.8-.5-2.3-1.3-.6-1.1-.4-2.6.5-4 2.3-3.5 10-9 20.7-9z" fill="#242424"/><path d="M41.3 106.5c-5.6 0-10-5.4-10-10.1 0-3.3 1.6-7.2 3.6-12.5l1-2.4c1.5-4 3.7-8.4 5.3-11.4l5.4 11.6c3.6 8.1 4.7 11.4 4.7 14.7 0 4.7-4.4 10.1-10 10.1z" fill="#5F7AFF"/><path d="M41.1 75.2l3.4 7.4C48 90.4 49 93.5 49 96.4c0 4.4-4.2 7.9-7.7 7.9s-7.6-3.5-7.6-8c0-2.8 1.4-6.5 3.3-11.5l1-2.5c.8-2.4 2-4.9 3.1-7.1m.2-10s-4.8 8.2-7.6 15.5c-2.5 6.7-4.6 11.4-4.6 15.7 0 6 5.5 12.4 12.2 12.4s12.2-6.4 12.2-12.4a39 39 0 0 0-4.9-15.7c-3.5-7.8-7.3-15.5-7.3-15.5z" fill="#4864ED"/><path d="M95.3 46.4c-1.4.2-2.7-.4-3.4-1.7-1.9-3.4-5.3-6-9.2-7a3.3 3.3 0 0 1-2.6-3.3 3 3 0 0 1 2.6-2.8h.6c1.8 0 3.5.4 5 1a16 16 0 0 1 9.4 9.8c.3 1 .2 1.9-.3 2.7-.5.7-1.3 1.2-2.1 1.3zm-62.5 0a3 3 0 0 0 3.3-1.7c1.9-3.4 5.3-6 9.2-7a3.3 3.3 0 0 0 2.6-3.3 3 3 0 0 0-2.6-2.8 15.1 15.1 0 0 0-5.7 1 16 16 0 0 0-9.3 9.8c-.3 1-.2 1.9.3 2.7.5.7 1.3 1.2 2.2 1.3z" fill="#6D4C41" stroke="#6D4C41" stroke-miterlimit="10"/><path d="M82.8 46.9c4.2 0 8 3.5 8 9.4s-3.8 9.4-8 9.4-8-3.5-8-9.4 3.8-9.4 8-9.4zm-37.6 0c-4.2 0-8 3.5-8 9.4s3.8 9.4 8 9.4 8-3.5 8-9.4-3.8-9.4-8-9.4z" fill="#242424"/></svg>