<svg viewBox="0 0 128 128" xmlns="http://www.w3.org/2000/svg"><symbol id="d" viewBox="-64.5 -64.5 129 129"><g fill="none" stroke="#4285F4" stroke-miterlimit="10"><path d="M-64-64H64V64H-64z"/><path d="M36.95 37.82C27.32 46.32 14.2 51 0 51c-14.27 0-27.39-4.62-36.96-13.01C-47.45 28.79-53 15.65-53 0c0-15.58 5.55-28.69 16.04-37.92C-27.36-46.35-14.24-51 0-51c14.17 0 27.29 4.71 36.95 13.25C47.45-28.45 53-15.4 53 0c0 15.47-5.55 28.55-16.05 37.82z"/><path d="M0 55c-29.59 0-57-19.01-57-55 0-35.8 27.41-55 57-55S57-35.31 57 0c0 35.51-27.41 55-57 55z"/><path d="M0-43c-12.29 0-23.54 3.94-31.68 11.09C-40.39-24.25-45-13.21-45 0c0 29.7 22.6 43 45 43 21.67 0 45-13.46 45-43S21.67-43 0-43zM-.01 51V-51M-16 48.95v-97.88M15.99 48.91v-97.84M53 .08H-53"/></g></symbol><linearGradient id="a" x1="64" x2="64" y1="19.742" y2="107.73" gradientUnits="userSpaceOnUse"><stop stop-color="#FEE133" offset=".5"/><stop stop-color="#FEDE32" offset=".612"/><stop stop-color="#FCD32F" offset=".708"/><stop stop-color="#FAC12B" offset=".797"/><stop stop-color="#F7A924" offset=".883"/><stop stop-color="#F6A323" offset=".9"/></linearGradient><path d="M64 119.92c-27.93 0-58-17.49-58-55.89S36.07 8.14 64 8.13c15.48 0 29.81 5.13 40.36 14.43C115.9 32.75 122 47.09 122 64.03c0 16.86-6.1 31.17-17.64 41.39-10.58 9.35-24.91 14.5-40.36 14.5z" fill="url(#a)"/><path d="M64 10.13c14.99 0 28.86 4.95 39.03 13.93 11.1 9.8 16.97 23.61 16.97 39.96 0 16.27-5.87 30.07-16.97 39.89-10.21 9.03-24.07 14-39.03 14-15.04 0-28.9-4.91-39.04-13.82C13.86 94.35 8 80.49 8 64.03c0-16.54 5.86-30.42 16.96-40.15C35.07 15.01 48.93 10.13 64 10.13m0-4c-31.15 0-60 20.01-60 57.89 0 37.68 28.85 57.89 60 57.89s60-20.73 60-57.89c0-37.37-28.85-57.89-60-57.89z" fill="#EB8F00"/><path d="M55.67 103.32c-2.49 0-4.79-1.4-6-3.66s-1.09-4.89.32-7.04c3.14-4.78 7.99-7.3 14.01-7.3s10.87 2.53 14.01 7.3c1.42 2.16 1.54 4.79.32 7.04s-3.51 3.65-6 3.65c-.77 0-1.55-.13-2.3-.4-1.96-.68-3.99-1.03-6.03-1.03s-4.07.35-6.03 1.03c-.76.28-1.53.41-2.3.41z" fill="#242424"/><g fill="#EB8F00"><path d="M79.17 31.23c-.04-.02-.09-.03-.13-.05-2.09-.68-1.74-3.88.69-3.6 1.89.25 3.8.8 5.64 1.66 5.05 2.33 8.82 6.54 10.58 11.1.85 2.29-2.19 3.42-3.33 1.54-2.98-4.74-7.75-8.68-13.45-10.65zM48.83 31.23c.04-.02.09-.03.13-.05 2.09-.68 1.74-3.88-.69-3.6-1.89.25-3.8.8-5.64 1.66-5.05 2.33-8.82 6.54-10.58 11.1-.85 2.29 2.19 3.42 3.33 1.54 2.98-4.74 7.75-8.68 13.45-10.65z"/></g><path d="M106.15 104.48c-8.77 0-13.19-6.61-17.46-13-3.82-5.72-7.77-11.62-14.71-11.84 5.25-4.45 11.16-7.44 15.96-8.08 2.11-.28 4.18-.42 6.16-.42 7.46 0 13.84 2.01 18.45 5.82 3.92 3.24 6.36 7.58 6.86 12.23.61 5.59-1.76 12.8-10.46 14.72-1.7.39-3.31.57-4.8.57z" fill="#5F7AFF"/><path d="M96.08 73.15c14.89 0 22.44 8.17 23.33 16.27.52 4.77-1.5 10.91-8.9 12.55-1.55.34-3.01.52-4.36.52-7.18 0-10.76-4.58-15.8-12.11-3.09-4.62-6.5-9.72-11.72-11.79 3.99-2.76 8.11-4.58 11.55-5.03 2.04-.28 4.02-.41 5.9-.41m0-4c-2.03 0-4.16.14-6.42.44-6.33.83-13 5-17.74 9.19-1.13 1-.68 2.9.78 2.9h.12c.26-.02.51-.03.76-.03 13.3 0 14.34 24.85 32.57 24.85 1.6 0 3.34-.19 5.23-.61 19.97-4.43 15.5-36.74-15.3-36.74z" fill="#4864ED"/><g fill="#242424"><path d="M49.61 54.7l-.2.2c-.11.11-.36.39-.51.5-.19.16-.42.35-.69.57-.29.22-.62.46-.98.71-.37.23-.77.47-1.2.68-.42.23-.9.39-1.37.57-.48.17-.99.26-1.5.37-.51.08-1.04.12-1.57.12h.14H41.42l-.31-.01c-.26 0-.3-.02-.4-.03-.16 0-.45-.05-.7-.09-.51-.11-1.02-.2-1.5-.37-.47-.18-.95-.34-1.38-.57-.43-.22-.83-.45-1.2-.68-.72-.48-1.31-.96-1.7-1.32-.4-.36-.63-.58-.63-.58l-.25-.25c-1.21-1.17-3.25-1.24-4.57-.17-1.04.85-1.3 2.16-.78 3.25l.15.3c.1.19.22.49.44.84.41.71 1.09 1.71 2.17 2.76.54.52 1.17 1.07 1.91 1.57.73.52 1.58.99 2.52 1.4.94.4 1.96.75 3.04.97.55.1 1.06.2 1.73.26.31.03.68.06.84.07l.77.03a19.5 19.5 0 0 0 3.34-.35c1.08-.22 2.1-.57 3.04-.97.93-.41 1.79-.88 2.52-1.4.75-.5 1.37-1.04 1.92-1.57.54-.52.97-1.04 1.33-1.51.17-.24.33-.46.48-.67.14-.23.28-.44.4-.63.27-.42.29-.58.39-.77l.11-.25c.67-1.49-.14-3.18-1.81-3.78-1.32-.47-2.79-.11-3.68.8zM94.51 54.7l-.2.2c-.11.11-.36.39-.51.5-.19.16-.42.35-.69.57-.29.22-.62.46-.98.71-.37.23-.77.47-1.2.68-.42.23-.9.39-1.38.57-.48.17-.99.26-1.5.37-.51.08-1.04.12-1.57.12h.14H86.31l-.31-.01c-.26 0-.3-.02-.4-.03-.16 0-.45-.05-.7-.09-.51-.11-1.02-.2-1.5-.37-.47-.18-.95-.34-1.37-.57-.43-.22-.83-.45-1.2-.68-.72-.48-1.31-.96-1.7-1.32-.4-.36-.63-.58-.63-.58l-.25-.25c-1.21-1.17-3.25-1.24-4.57-.17-1.04.85-1.3 2.16-.78 3.25l.15.3c.1.19.22.49.44.84.41.71 1.09 1.71 2.17 2.76.54.52 1.17 1.07 1.92 1.57.73.52 1.58.99 2.52 1.4.94.4 1.96.75 3.04.97.55.1 1.06.2 1.73.26.31.03.68.06.84.07l.77.03a19.5 19.5 0 0 0 3.34-.35c1.08-.22 2.1-.57 3.04-.97.93-.41 1.79-.88 2.52-1.4.75-.5 1.37-1.04 1.91-1.57.54-.52.97-1.04 1.33-1.51.17-.24.33-.46.48-.67.14-.23.28-.44.39-.63.27-.42.29-.58.39-.77l.11-.25c.67-1.49-.14-3.18-1.81-3.78-1.31-.47-2.78-.11-3.67.8z"/></g></svg>