<svg viewBox="0 0 128 128" xmlns="http://www.w3.org/2000/svg"><linearGradient id="a" x1="64" x2="64" y1="22" y2="105.4" gradientUnits="userSpaceOnUse"><stop stop-color="#F6A323" offset=".4"/><stop stop-color="#FAC42C" offset=".6"/><stop stop-color="#FDD931" offset=".8"/><stop stop-color="#FEE133" offset=".9"/></linearGradient><path d="M64 117c-26.5 0-55-16.6-55-53s28.5-53 55-53c14.7 0 28.3 4.9 38.3 13.7A50.7 50.7 0 0 1 119 64c0 16-5.8 29.6-16.7 39.2A57.4 57.4 0 0 1 64 117z" fill="url(#a)"/><path d="M64 13c14.2 0 27.3 4.7 37 13.2A48.8 48.8 0 0 1 117 64a49 49 0 0 1-16 37.8A55.5 55.5 0 0 1 64 115a55.7 55.7 0 0 1-37-13 48.8 48.8 0 0 1-16-38c0-15.7 5.5-28.8 16-38 9.6-8.4 22.7-13 37-13m0-4C34.4 9 7 28 7 64c0 35.8 27.4 55 57 55s57-19.7 57-55c0-35.5-27.4-55-57-55z" fill="#EB8F00"/><path d="M34 29.8c.4-1 1.3-1.7 2.4-1.8a11 11 0 0 0 8.3-4c.8-1 2.2-1.3 3.3-.8 1 .6 1.5 1.8 1.1 2.9 0 .1 0 .3-.2.5a10 10 0 0 1-2.6 3.2A12.7 12.7 0 0 1 36.1 33c-.8-.1-1.5-.6-1.8-1.2-.4-.5-.5-1.3-.3-2zm60 0c-.4-1-1.3-1.7-2.5-1.8-3 0-6.2-1.6-8.2-4-.8-1-2.2-1.3-3.3-.8-1 .6-1.5 1.8-1.1 2.9a12.1 12.1 0 0 0 2.8 3.7c2.8 2.5 6.6 3.7 10.2 3.2.8-.1 1.5-.6 1.8-1.2.4-.5.5-1.3.3-2z" fill="#6D4C41"/><path d="M64 77.8c11.4 0 19.5 6 22 9.7.9 1.4 1 3 .5 4.1C86 92.6 85 93 84 93h-1a64.5 64.5 0 0 0-38 0l-1 .1c-1.1 0-2-.5-2.5-1.4-.6-1.1-.4-2.7.5-4.1 2.5-3.8 10.6-9.7 22-9.7zM45.6 45.2c-4 0-7.6 3.3-7.6 9s3.7 8.9 7.6 8.9 7.6-3.4 7.6-9-3.6-9-7.6-9zm36.8 0c-4 0-7.6 3.3-7.6 9s3.6 8.9 7.6 8.9 7.6-3.4 7.6-9-3.7-9-7.6-9z" fill="#242424"/><path d="M19 53c-5.6 0-10-5.5-10-10.3 0-3.2 1-6.5 4.6-14.5l5.5-11.8c1.6 3 4 7.5 5.5 11.7l1 2.3c2 5.3 3.4 9 3.4 12.4C29 47.5 24.7 53 19 53z" fill="#5F7AFF"/><path d="M19.2 20.9a89 89 0 0 1 3.6 7.9l.9 2.3c2 5 3.3 8.7 3.3 11.6 0 3.8-3.6 8.3-8 8.3s-8-4.5-8-8.3c0-2.9 1-6 4.5-13.7a127 127 0 0 1 3.7-8.1M19 12s-3.8 7.5-7.2 15.2A39.5 39.5 0 0 0 7 42.7c0 6 5.4 12.3 12 12.3s12-6.3 12-12.3c0-4.1-2-8.8-4.5-15.4-2.8-7.2-7.5-15.2-7.5-15.2z" fill="#4864ED"/></svg>