<svg viewBox="0 0 128 128" xmlns="http://www.w3.org/2000/svg"><path d="M4.2 64c0 37.3 28.7 57.8 59.8 57.8s59.9-20 59.9-57.8C123.8 26.4 95 6.2 64 6.2S4.1 27 4.1 64z" fill="#FEE133"/><path d="M64 10.3c15 0 28.8 4.8 39 13.7a51.7 51.7 0 0 1 16.8 40c0 16.5-5.8 30.3-16.9 40C93 113 79 117.7 64 117.7s-28.8-4.9-39-13.8A51.8 51.8 0 0 1 8.2 64c0-16.2 5.9-30 17-39.8 10.1-9 24-14 38.9-14m0-4C33 6.2 4.1 27 4.1 64c0 37.3 28.8 57.8 59.9 57.8s59.9-20 59.9-57.8C123.8 26.4 95 6.2 64 6.2z" fill="#47A9B0"/><linearGradient id="a" x1="64" x2="64" y1="79.5" y2="2" gradientUnits="userSpaceOnUse"><stop stop-color="#40C0E7" stop-opacity="0" offset=".4"/><stop stop-color="#40C0E7" offset="1"/></linearGradient><path d="M4.2 64c0 37.3 28.7 57.8 59.8 57.8s59.9-20 59.9-57.8C123.8 26.4 95 6.2 64 6.2S4.1 27 4.1 64z" fill="url(#a)"/><path d="M52.7 103a9.5 9.5 0 0 1-8.2-4.7 8 8 0 0 1 .4-8.8c4.3-6 10.9-9.2 19-9.2A22 22 0 0 1 83 89.5a8 8 0 0 1 .5 8.9 9.4 9.4 0 0 1-8.2 4.6c-1 0-2-.2-3.1-.5-2.7-.9-5.4-2.3-8.2-2.3s-5.6 1.4-8.2 2.3c-1 .3-2 .5-3.1.5zm30-53c4.2 0 8 3.5 8 9.4s-3.8 9.4-8 9.4-8-3.6-8-9.4 3.8-9.5 8-9.5zm-37.5 0c-4.2 0-8 3.5-8 9.4s3.8 9.4 8 9.4 8-3.6 8-9.4-3.8-9.5-8-9.5z" fill="#242424"/><path d="M29.4 42v-.8l.1-.4.1-.6.2-.6c0-.3.2-.5.3-.7a12.4 12.4 0 0 1 1.6-3c.4-.4.7-1 1.2-1.3.5-.5 1-1 1.5-1.3.5-.4 1-.8 1.6-1l1.7-.9a13.4 13.4 0 0 1 4.6-.7 7 7 0 0 1 2 .3 1.8 1.8 0 0 1 0 3.4h-.2l-.7.3c-.2 0-.4 0-.7.2l-.9.3c-.3 0-.6.2-1 .4-.3 0-.7.3-1 .5l-1.2.6-1.1.8-1 .8-1 .9-.8.9-.7.9-.5.7-.2.3-.2.3-.3.7a1.8 1.8 0 0 1-3.4-1zm65.8 1l-.4-.7-.1-.3-.3-.3c0-.2-.3-.4-.5-.7l-.6-.9-.8-.9-1-.9-1-.8-1.1-.8-1.1-.6-1.1-.5-1-.4-1-.3-.6-.2-.7-.2h-.3c-1-.4-1.4-1.4-1.1-2.3.2-.6.7-1 1.2-1.2l1-.2H87a11.5 11.5 0 0 1 3.3.7l1.7.7 1.6 1 1.5 1.4c.5.4.8 1 1.2 1.4a11.2 11.2 0 0 1 1.6 3l.3.6.1.7c0 .3.1.4.2.5V42c.1 1-.7 1.9-1.7 1.9-.7 0-1.3-.4-1.6-.9z" fill="#6D4C41"/></svg>