<svg viewBox="0 0 128 128" xmlns="http://www.w3.org/2000/svg" xmlns:xlink="http://www.w3.org/1999/xlink"><linearGradient id="a" x1="64" x2="64" y1="19.7" y2="107.7" gradientUnits="userSpaceOnUse"><stop stop-color="#F6A323" offset=".6"/><stop stop-color="#FEE133" offset=".9"/></linearGradient><path d="M64 119.9c-28 0-58-17.5-58-55.9S36 8.1 64 8.1c15.5 0 29.8 5.1 40.4 14.4A53.5 53.5 0 0 1 122 64c0 16.9-6.1 31.2-17.6 41.4A60.6 60.6 0 0 1 64 119.9z" fill="url(#a)"/><path d="M64 10.1c15 0 28.9 5 39 14A51.5 51.5 0 0 1 120 64c0 16.3-5.9 30-17 39.9-10.2 9-24 14-39 14s-28.9-5-39-13.8A51.5 51.5 0 0 1 8 64c0-16.5 5.9-30.4 17-40.2a58.9 58.9 0 0 1 39-13.7m0-4C32.9 6.1 4 26.1 4 64c0 37.7 28.9 57.9 60 57.9s60-20.7 60-57.9c0-37.4-28.9-57.9-60-57.9z" fill="#EB8F00"/><path d="M102.2 50.5c0-9-7.2-16.2-16.2-16.3a13 13 0 0 0-13 13c0 5.7 4.6 10.3 10.4 10.4 4.5 0 8.3-3.7 8.3-8.3 0-3.7-3-6.7-6.6-6.7-3 0-5.4 2.4-5.4 5.3M30.3 33.8a16.2 16.2 0 0 0 4 22.6 13 13 0 0 0 18-3.1 10.4 10.4 0 0 0-2.5-14.5 8.3 8.3 0 0 0-11.6 2 6.6 6.6 0 0 0 1.6 9.3 5.3 5.3 0 0 0 7.4-1.3" fill="none" stroke="#242424" stroke-linecap="round" stroke-linejoin="round" stroke-miterlimit="10" stroke-width="5"/><defs><path id="b" d="M64 64.9C48 64.9 30.6 81 30.6 101c0 5.6 5.3 8.8 10 6.6 5.9-2.8 14.5-8.4 23.4-8.4s17.5 5.6 23.4 8.4c4.7 2.2 10-1 10-6.6 0-20-18.6-36-33.4-36z"/></defs><clipPath id="c"><use xlink:href="#b"/></clipPath><path d="M64 64.9C48 64.9 30.6 81 30.6 101c0 5.6 5.3 8.8 10 6.6 5.9-2.8 14.5-5.6 23.4-5.6s17.5 2.8 23.4 5.6c4.7 2.2 10-1 10-6.6 0-20-18.6-36-33.4-36z" clip-path="url(#c)" fill="#242424"/><path d="M64 78.8c11.8 0 22.6 1.8 31.3 5.2V51.3H32.8V84A87.7 87.7 0 0 1 64 78.8z" clip-path="url(#c)" fill="#fff"/><g clip-path="url(#c)"><defs><path id="d" d="M64 78.8c11.8 0 22.6 1.8 31.3 5.2V51.3H32.8V84A87.7 87.7 0 0 1 64 78.8z"/></defs><clipPath id="e"><use xlink:href="#d"/></clipPath><g clip-path="url(#e)"><path d="M64 69.4a29 29 0 0 1 19 9.3A31.9 31.9 0 0 1 93 101c0 2-1.2 2.8-2.4 2.8l-1.2-.3c-3.8-1.8-13.9-6-25.3-6s-21.5 4.2-25.3 6l-1.2.3c-1.2 0-2.4-.9-2.4-2.8 0-17.8 15.5-31.6 28.9-31.6m0-4.5C48 64.9 30.6 81 30.6 101a7 7 0 0 0 10 6.6c5.9-2.8 14.5-5.6 23.4-5.6s17.5 2.8 23.4 5.6a7 7 0 0 0 10-6.6c0-20-18.6-36-33.4-36z" fill="#EB8F00"/></g></g></svg>