<svg viewBox="0 0 128 128" xmlns="http://www.w3.org/2000/svg"><path d="M21.77 55.7c-2.21 0-4.1-.54-5.63-1.6C3.44 45.27 5.63 16.18 5.65 15.89c.32-4 3.38-7.02 7.12-7.02.23 0 .47.01.7.04 11.3 1.15 26 5.56 33.36 14.49 3.78 4.59 2.47 10.03.7 13.78-4.56 9.69-16.84 18.52-25.76 18.52z" fill="#FED133"/><path d="M12.77 10.38c.18 0 .37.01.55.03 11 1.12 25.28 5.37 32.36 13.95 1.81 2.2 3.37 6.1.5 12.19C41.9 45.62 30.04 54.2 21.77 54.2c-1.9 0-3.5-.45-4.78-1.34-9.96-6.91-10.48-28.94-9.84-36.85.25-3.21 2.67-5.63 5.62-5.63m0-3c-4.51 0-8.23 3.66-8.62 8.39-.54 6.73-.7 31.33 11.13 39.55 1.86 1.29 4.08 1.87 6.49 1.87 14.82 0 36.81-21.92 26.23-34.75-8.05-9.76-23.6-13.93-34.37-15.03-.29-.02-.58-.03-.86-.03z" fill="#EB8F00"/><path d="M5.81 22.04c.05-1.31.2-2.74 1.09-3.67 1.18-1.24 3.13-1.11 4.78-.76 4.49.95 8.77 2.96 12.42 5.83 1.82 1.43 3.55 3.2 4.09 5.48.82 3.51-1.38 6.93-3.47 9.83-1.46 2.02-2.93 4.06-4.79 5.69-1.55 1.37-4.52 4.98-6.59 5.22-2.08.25-2.15-1.33-3-3-2.22-4.38-3.38-11.72-4.09-16.6-.39-2.65-.54-5.34-.44-8.02z" fill="#EB8F00"/><path d="M106.23 55.7c-8.92 0-21.2-8.83-25.77-18.52-1.77-3.75-3.08-9.19.7-13.78 7.37-8.93 22.06-13.34 33.36-14.49.24-.02.47-.04.7-.04 3.74 0 6.8 3.02 7.12 7.02.02.29 2.22 29.38-10.48 38.2-1.53 1.07-3.42 1.61-5.63 1.61z" fill="#FED133"/><path d="M115.23 10.38c2.95 0 5.37 2.42 5.63 5.64.64 7.9.11 29.93-9.85 36.85-1.28.89-2.88 1.34-4.78 1.34-8.27 0-20.13-8.58-24.41-17.65-2.87-6.09-1.31-9.99.5-12.19 7.08-8.58 21.36-12.83 32.36-13.95.18-.04.37-.04.55-.04m0-3c-.28 0-.57.01-.85.04C103.61 8.51 88.05 12.68 80 22.44 69.42 35.28 91.41 57.2 106.23 57.2c2.41 0 4.63-.58 6.49-1.87 11.83-8.22 11.67-32.83 11.12-39.55-.38-4.75-4.1-8.4-8.61-8.4z" fill="#EB8F00"/><path d="M122.19 22.04c-.05-1.31-.2-2.74-1.09-3.67-1.18-1.24-3.13-1.11-4.78-.76-4.49.95-8.77 2.96-12.42 5.83-1.82 1.43-3.55 3.2-4.09 5.48-.82 3.51 1.38 6.93 3.47 9.83 1.46 2.02 2.93 4.06 4.79 5.69 1.55 1.37 4.52 4.98 6.59 5.22 2.08.25 2.15-2.66 3-4.33 2.22-4.38 3.38-10.38 4.09-15.27.39-2.65.54-5.34.44-8.02z" fill="#EB8F00"/><linearGradient id="a" x1="64" x2="64" y1="25.031" y2="107.67" gradientUnits="userSpaceOnUse"><stop stop-color="#FED133" offset=".509"/><stop stop-color="#FDCE32" offset=".634"/><stop stop-color="#FCC32E" offset=".741"/><stop stop-color="#F9B128" offset=".84"/><stop stop-color="#F6A323" offset=".9"/></linearGradient><path d="M64 119.12c-25.77 0-53.5-16.43-53.5-52.5s27.73-52.5 53.5-52.5c14.27 0 27.48 4.81 37.21 13.54 10.66 9.57 16.29 23.04 16.29 38.96 0 15.84-5.63 29.29-16.29 38.89-9.76 8.78-22.97 13.61-37.21 13.61z" fill="url(#a)"/><path d="M64 15.62c13.9 0 26.75 4.67 36.2 13.16 10.33 9.28 15.8 22.37 15.8 37.84 0 15.4-5.46 28.46-15.8 37.77-9.47 8.53-22.33 13.23-36.2 13.23-25.04 0-52-15.96-52-51 0-15.65 5.46-28.8 15.79-38.01C37.18 20.24 50.04 15.63 64 15.62m0-3c-28.56 0-55 18.66-55 54 0 35.15 26.44 54 55 54 28.55 0 55-19.33 55-54 0-34.85-26.44-53.99-55-54z" fill="#EB8F00"/><radialGradient id="b" cx="32.534" cy="74.251" r="22.222" gradientTransform="matrix(.9791 0 0 .9333 .584 10.782)" gradientUnits="userSpaceOnUse"><stop stop-color="#ED7770" offset="0"/><stop stop-color="#ED7770" stop-opacity="0" offset=".9"/></radialGradient><circle cx="32.44" cy="80.08" r="20" fill="url(#b)"/><radialGradient id="c" cx="97.008" cy="74.251" r="22.222" gradientTransform="matrix(.9791 0 0 .9333 .584 10.782)" gradientUnits="userSpaceOnUse"><stop stop-color="#ED7770" offset="0"/><stop stop-color="#ED7770" stop-opacity="0" offset=".9"/></radialGradient><circle cx="95.56" cy="80.08" r="20" fill="url(#c)"/><g fill="none" stroke="#404040" stroke-linecap="round" stroke-linejoin="round" stroke-miterlimit="10" stroke-width="4"><path d="M8.65 105.57l19.9-10.41M27.15 88.01l-21.1 2.94M6.05 75.68l21.27 5.24M119.35 105.57l-19.9-10.41M100.85 88.01l21.1 2.94M121.95 75.68l-21.27 5.24"/></g><path fill="#646464" d="M63.95 75.91v21"/><path fill="none" stroke="#404040" stroke-linecap="round" stroke-linejoin="round" stroke-miterlimit="10" stroke-width="5" d="M64 69.8v21"/><path fill="none" stroke="#EB8F00" stroke-linecap="round" stroke-linejoin="round" stroke-miterlimit="10" stroke-width="7" d="M56.01 16.69v21M71.99 16.69v21"/><path d="M66.47 73.19l5.44-6.13c1.89-2.13.38-5.5-2.47-5.5H58.56c-2.85 0-4.36 3.37-2.47 5.5l5.44 6.13a3.303 3.303 0 0 0 4.94 0z" fill="#603813"/><path d="M64 88.97c-3.4 0-6.76-.58-9.98-1.7-6.8-2.37-12.7 5.29-8.74 11.31 4.12 6.26 10.52 9.72 18.72 9.72s14.61-3.46 18.72-9.72c3.96-6.02-1.94-13.68-8.74-11.31-3.22 1.11-6.58 1.7-9.98 1.7z" fill="#404040" stroke="#404040" stroke-miterlimit="10"/><path d="M41.47 78.86c-.28-.07-6.49-1.58-12.98-4.82-5.66-2.83-12.8-7.65-14.69-14.54-.77-2.76-.4-5.67 1.04-8.18 1.43-2.51 3.77-4.32 6.59-5.11.93-.26 1.89-.4 2.87-.4 2.83 0 5.6 1.12 7.61 3.06l1.85 1.79.64-2.5c.96-3.73 3.9-6.7 7.66-7.74.98-.29 1.96-.43 2.95-.43 4.76 0 9.13 3.32 10.38 7.89C59.08 61.32 42.3 78.1 41.59 78.8c-.02.02-.05.03-.08.04l-.04.02z" fill="#CC1775"/><path d="M45.02 41.5c4.1 0 7.86 2.85 8.93 6.79 3.11 11.33-10.11 26-12.88 28.91-3.96-1.08-22.71-6.78-25.82-18.12-.66-2.37-.34-4.86.89-7.02a9.446 9.446 0 0 1 5.7-4.41c.79-.22 1.62-.34 2.46-.34 2.44 0 4.83.96 6.57 2.64l3.71 3.59 1.29-4.99c.84-3.26 3.31-5.75 6.61-6.67l.06-.02c.79-.23 1.63-.36 2.48-.36m0-3c-1.11 0-2.24.16-3.35.49-4.45 1.23-7.65 4.67-8.71 8.81a12.56 12.56 0 0 0-8.66-3.49c-1.09 0-2.19.15-3.27.45-3.19.89-5.85 2.94-7.48 5.81-1.64 2.86-2.06 6.17-1.18 9.32C16.29 74.2 40.1 80.07 41.11 80.31a1.583 1.583 0 0 0 .74.01c.3-.07.58-.22.81-.43.74-.73 18.11-18.12 14.2-32.39-1.49-5.38-6.5-9-11.84-9z" fill="#B3005C"/><path d="M86.75 79c-.02 0-.06-.02-.1-.05-.71-.68-17.81-17.19-14.35-30.71 1.2-4.69 5.59-8.09 10.44-8.09.93 0 1.86.13 2.75.38 3.82.99 6.81 3.91 7.84 7.62l.69 2.49 1.82-1.83c2.03-2.04 4.86-3.2 7.76-3.2.91 0 1.82.12 2.69.35 2.83.74 5.21 2.52 6.69 5 1.48 2.49 1.9 5.39 1.18 8.17-1.77 6.94-8.84 11.89-14.45 14.83-6.44 3.36-12.63 4.98-12.89 5.05l-.03-.01h-.04z" fill="#CC1775"/><path d="M82.75 41.65c.79 0 1.59.11 2.35.32l.06.02c3.32.86 5.84 3.31 6.74 6.56l1.37 4.97 3.64-3.65c1.75-1.76 4.19-2.76 6.7-2.76.78 0 1.56.1 2.31.3 2.45.64 4.5 2.17 5.78 4.32a9.137 9.137 0 0 1 1.02 7.03c-2.9 11.37-21.51 17.4-25.54 18.59-2.9-2.95-16.32-17.36-13.41-28.74 1.02-4.04 4.8-6.96 8.98-6.96m0-3c-5.42 0-10.49 3.74-11.89 9.22-3.67 14.36 14.03 31.47 14.78 32.19.23.21.52.36.82.42.11.02.22.03.33.03.13 0 .27-.02.4-.05 1.01-.26 24.75-6.55 28.42-20.95.82-3.17.35-6.47-1.34-9.31s-4.39-4.85-7.6-5.69c-1.02-.27-2.05-.4-3.07-.4-3.31 0-6.53 1.35-8.82 3.64-1.14-4.13-4.4-7.51-8.88-8.67-1.05-.29-2.1-.43-3.15-.43z" fill="#B3005C"/></svg>