<svg viewBox="0 0 128 128" xmlns="http://www.w3.org/2000/svg"><path d="M21.77 55.7c-2.21 0-4.1-.54-5.63-1.6C3.44 45.27 5.63 16.18 5.65 15.89c.32-4 3.38-7.02 7.12-7.02.23 0 .47.01.7.04 11.3 1.15 26 5.56 33.36 14.49 3.78 4.59 2.47 10.03.7 13.78-4.56 9.69-16.84 18.52-25.76 18.52z" fill="#FED133"/><path d="M12.77 10.38c.18 0 .37.01.55.03 11 1.12 25.28 5.37 32.36 13.95 1.81 2.2 3.37 6.1.5 12.19C41.9 45.62 30.04 54.2 21.77 54.2c-1.9 0-3.5-.45-4.78-1.34-9.96-6.91-10.48-28.94-9.84-36.85.25-3.21 2.67-5.63 5.62-5.63m0-3c-4.51 0-8.23 3.66-8.62 8.39-.54 6.73-.7 31.33 11.13 39.55 1.86 1.29 4.08 1.87 6.49 1.87 14.82 0 36.81-21.92 26.23-34.75-8.05-9.76-23.6-13.93-34.37-15.03-.29-.02-.58-.03-.86-.03z" fill="#EB8F00"/><path d="M5.81 22.04c.05-1.31.2-2.74 1.09-3.67 1.18-1.24 3.13-1.11 4.78-.76 4.49.95 8.77 2.96 12.42 5.83 1.82 1.43 3.55 3.2 4.09 5.48.82 3.51-1.38 6.93-3.47 9.83-1.46 2.02-2.93 4.06-4.79 5.69-1.55 1.37-4.52 4.98-6.59 5.22-2.08.25-2.15-1.33-3-3-2.22-4.38-3.38-11.72-4.09-16.6-.39-2.65-.54-5.34-.44-8.02z" fill="#EB8F00"/><path d="M106.23 55.7c-8.92 0-21.2-8.83-25.77-18.52-1.77-3.75-3.08-9.19.7-13.78 7.37-8.93 22.06-13.34 33.36-14.49.24-.02.47-.04.7-.04 3.74 0 6.8 3.02 7.12 7.02.02.29 2.22 29.38-10.48 38.2-1.53 1.07-3.42 1.61-5.63 1.61z" fill="#FED133"/><path d="M115.23 10.38c2.95 0 5.37 2.42 5.63 5.64.64 7.9.11 29.93-9.85 36.85-1.28.89-2.88 1.34-4.78 1.34-8.27 0-20.13-8.58-24.41-17.65-2.87-6.09-1.31-9.99.5-12.19 7.08-8.58 21.36-12.83 32.36-13.95.18-.04.37-.04.55-.04m0-3c-.28 0-.57.01-.85.04C103.61 8.51 88.05 12.68 80 22.44 69.42 35.28 91.41 57.2 106.23 57.2c2.41 0 4.63-.58 6.49-1.87 11.83-8.22 11.67-32.83 11.12-39.55-.38-4.75-4.1-8.4-8.61-8.4z" fill="#EB8F00"/><path d="M122.19 22.04c-.05-1.31-.2-2.74-1.09-3.67-1.18-1.24-3.13-1.11-4.78-.76-4.49.95-8.77 2.96-12.42 5.83-1.82 1.43-3.55 3.2-4.09 5.48-.82 3.51 1.38 6.93 3.47 9.83 1.46 2.02 2.93 4.06 4.79 5.69 1.55 1.37 4.52 4.98 6.59 5.22 2.08.25 2.15-2.66 3-4.33 2.22-4.38 3.38-10.38 4.09-15.27.39-2.65.54-5.34.44-8.02z" fill="#EB8F00"/><linearGradient id="a" x1="64" x2="64" y1="25.031" y2="107.67" gradientUnits="userSpaceOnUse"><stop stop-color="#FED133" offset=".509"/><stop stop-color="#FDCE32" offset=".634"/><stop stop-color="#FCC32E" offset=".741"/><stop stop-color="#F9B128" offset=".84"/><stop stop-color="#F6A323" offset=".9"/></linearGradient><path d="M64 119.12c-25.77 0-53.5-16.43-53.5-52.5s27.73-52.5 53.5-52.5c14.27 0 27.48 4.81 37.21 13.54 10.66 9.57 16.29 23.04 16.29 38.96 0 15.84-5.63 29.29-16.29 38.89-9.76 8.78-22.97 13.61-37.21 13.61z" fill="url(#a)"/><path d="M64 15.62c13.9 0 26.75 4.67 36.2 13.16 10.33 9.28 15.8 22.37 15.8 37.84 0 15.4-5.46 28.46-15.8 37.77-9.47 8.53-22.33 13.23-36.2 13.23-25.04 0-52-15.96-52-51 0-15.65 5.46-28.8 15.79-38.01C37.18 20.24 50.04 15.63 64 15.62m0-3c-28.56 0-55 18.66-55 54 0 35.15 26.44 54 55 54 28.55 0 55-19.33 55-54 0-34.85-26.44-53.99-55-54z" fill="#EB8F00"/><radialGradient id="b" cx="32.534" cy="74.251" r="22.222" gradientTransform="matrix(.9791 0 0 .9333 .584 10.782)" gradientUnits="userSpaceOnUse"><stop stop-color="#ED7770" offset="0"/><stop stop-color="#ED7770" stop-opacity="0" offset=".9"/></radialGradient><circle cx="32.44" cy="80.08" r="20" fill="url(#b)"/><radialGradient id="c" cx="97.008" cy="74.251" r="22.222" gradientTransform="matrix(.9791 0 0 .9333 .584 10.782)" gradientUnits="userSpaceOnUse"><stop stop-color="#ED7770" offset="0"/><stop stop-color="#ED7770" stop-opacity="0" offset=".9"/></radialGradient><circle cx="95.56" cy="80.08" r="20" fill="url(#c)"/><g fill="#404040" stroke="#404040" stroke-miterlimit="10"><path d="M42.2 66.69s-.05-.07-.13-.19-.21-.29-.36-.51c-.13-.15-.28-.33-.46-.53-.18-.23-.4-.46-.62-.7-.23-.23-.47-.47-.72-.67-.24-.21-.5-.37-.72-.5-.22-.14-.43-.18-.56-.23-.07-.03-.13-.03-.18-.04-.03.01-.05-.01-.07 0l-.04.01h-.03c.1 0-.23.01.23-.01l-.47.02c-.12 0-.04.01-.03.01.02 0 .04 0 .06-.01.07-.03 0 0-.02 0-.03 0-.06.01-.1.02-.13.05-.34.09-.56.23-.22.13-.48.29-.72.5-.24.2-.49.44-.72.67-.45.48-.84.95-1.11 1.3-.28.36-.44.56-.44.56l-.2.25a3.422 3.422 0 0 1-6.07-2.66s.06-.38.23-1.04c.18-.66.48-1.6 1.07-2.71.59-1.1 1.45-2.4 2.89-3.57.71-.58 1.58-1.15 2.6-1.54.25-.1.51-.19.79-.27s.51-.15.89-.22l.53-.08c.16-.02.4-.05.44-.05l.47-.03.26-.01h.08l.11.01.22.01.44.03c.29.02.57.08.86.13.56.11 1.12.27 1.62.47 1.03.39 1.89.96 2.6 1.54 1.45 1.18 2.3 2.47 2.89 3.57.3.55.52 1.07.69 1.52.18.44.31.9.41 1.25.1.33.1.51.13.67.02.15.04.23.04.23a3.45 3.45 0 0 1-2.83 3.97c-1.36.23-2.65-.36-3.39-1.4zM93.63 66.69s-.05-.07-.13-.19-.21-.29-.36-.51c-.13-.15-.28-.33-.46-.53-.18-.23-.4-.46-.62-.7-.23-.23-.47-.47-.72-.67-.24-.21-.5-.37-.72-.5-.22-.14-.43-.18-.56-.23-.07-.03-.13-.03-.18-.04-.03.01-.05-.01-.07 0l-.04.01h-.03c.1 0-.23.01.23-.01l-.47.02c-.12 0-.04.01-.03.01.02 0 .04 0 .06-.01.07-.03 0 0-.02 0-.03 0-.06.01-.1.02-.13.05-.34.09-.56.23-.22.13-.48.29-.72.5-.24.2-.49.44-.72.67-.45.48-.84.95-1.11 1.3-.28.36-.44.56-.44.56l-.2.25a3.422 3.422 0 0 1-6.07-2.66s.06-.38.23-1.04c.18-.66.48-1.6 1.07-2.71.59-1.1 1.45-2.4 2.89-3.57.71-.58 1.58-1.15 2.6-1.54.25-.1.51-.19.79-.27s.51-.15.89-.22l.53-.08c.16-.02.4-.05.44-.05l.47-.03.26-.01h.08l.11.01.22.01.44.03c.29.02.57.08.86.13.56.11 1.12.27 1.62.47 1.03.39 1.89.96 2.6 1.54 1.45 1.18 2.3 2.47 2.89 3.57.3.55.52 1.07.69 1.52.18.44.31.9.41 1.25.1.33.1.51.13.67.02.15.04.23.04.23a3.45 3.45 0 0 1-2.83 3.97c-1.36.23-2.65-.36-3.39-1.4z"/></g><g fill="none" stroke="#404040" stroke-linecap="round" stroke-linejoin="round" stroke-miterlimit="10" stroke-width="4"><path d="M8.65 105.57l19.9-10.41M27.15 88.01l-21.1 2.94M6.05 75.68l21.27 5.24"/></g><g fill="none" stroke="#404040" stroke-linecap="round" stroke-linejoin="round" stroke-miterlimit="10" stroke-width="4"><path d="M119.35 105.57l-19.9-10.41M100.85 88.01l21.1 2.94M121.95 75.68l-21.27 5.24"/></g><path fill="#646464" d="M63.95 75.91v21"/><path fill="none" stroke="#404040" stroke-linecap="round" stroke-linejoin="round" stroke-miterlimit="10" stroke-width="5" d="M64 69.8v12.45"/><path d="M61.41 82.19l.68-.01.75.01c.5.01 1 .04 1.51.07 1.01.08 2.02.2 3.05.41s2.08.51 3.15 1.01c1.05.5 2.2 1.22 3.05 2.44.43.59.75 1.31.9 2.03l.06.27.03.18v.04l.01.09.02.17.01.09.01.17c.03.49-.02.89-.1 1.29-.17.82-.59 1.6-1.09 2.18-.51.58-1.08.99-1.63 1.3-1.11.61-2.18.9-3.22 1.12-.52.1-1.03.17-1.55.23-.53.05-.99.09-1.59.09l.06-3.86c.67.04 1.18.1 1.77.2.57.1 1.13.22 1.7.39 1.13.34 2.29.82 3.38 1.68.54.43 1.06.97 1.47 1.61s.71 1.38.86 2.12c.08.37.12.74.13 1.1V99.07l-.01.17v.05l-.04.38c-.16 1.03-.55 1.8-1.04 2.46-1.02 1.31-2.25 1.95-3.37 2.44-1.14.48-2.25.76-3.34.99-1.09.22-2.18.36-3.25.45-.54.05-1.08.08-1.62.11-.55.02-1.05.04-1.67.03a2.501 2.501 0 0 1 .06-5h.14c.39.02.9.04 1.35.04.47 0 .94-.01 1.4-.03.93-.04 1.85-.12 2.74-.25.88-.14 1.74-.32 2.48-.59.74-.26 1.34-.63 1.57-.91.13-.14.17-.29.2-.26l.05-.37.01-.05c-.01.07.01-.16-.01.15v-.18c0-.14 0-.27-.02-.4-.07-.49-.27-.88-.75-1.31-.47-.42-1.17-.79-1.96-1.06a10.988 10.988 0 0 0-2.45-.55h-.01a1.933 1.933 0 0 1-1.72-2.13c.1-.95.87-1.67 1.8-1.73.33-.02.78-.07 1.17-.13.4-.06.8-.14 1.18-.24.76-.19 1.48-.46 1.97-.78.24-.16.42-.32.51-.44.09-.13.1-.19.11-.28 0-.06-.01-.11 0-.09h.01l-.01-.09-.03-.17.02-.1-.01-.04v-.01c-.02-.11.02.14.02.12v-.01l-.02-.07c-.05-.18-.13-.32-.25-.47-.23-.29-.69-.61-1.32-.86-.62-.25-1.37-.43-2.15-.55s-1.61-.18-2.45-.2c-.42-.01-.84-.01-1.26 0l-.63.03-.7.04c-1.38.08-2.56-.97-2.64-2.35s.97-2.56 2.35-2.64H61.41z" fill="#404040"/><path fill="none" stroke="#EB8F00" stroke-linecap="round" stroke-linejoin="round" stroke-miterlimit="10" stroke-width="7" d="M56.01 16.69v21M71.99 16.69v21"/><path d="M66.47 73.19l5.44-6.13c1.89-2.13.38-5.5-2.47-5.5H58.56c-2.85 0-4.36 3.37-2.47 5.5l5.44 6.13a3.303 3.303 0 0 0 4.94 0z" fill="#603813"/></svg>