<svg viewBox="0 0 128 128" xmlns="http://www.w3.org/2000/svg"><linearGradient id="a" x1="64" x2="64" y1="21.5" y2="109.5" gradientUnits="userSpaceOnUse"><stop stop-color="#FEE133" offset=".5"/><stop stop-color="#FEDE32" offset=".6"/><stop stop-color="#FCD32F" offset=".7"/><stop stop-color="#FAC12B" offset=".8"/><stop stop-color="#F7A924" offset=".9"/><stop stop-color="#F6A323" offset=".9"/></linearGradient><path d="M64 121.6c-28 0-58-17.4-58-55.8s30-56 58-56a61 61 0 0 1 40.4 14.5A53.5 53.5 0 0 1 122 65.8c0 16.8-6.1 31.1-17.6 41.3A60.6 60.6 0 0 1 64 121.6z" fill="url(#a)"/><path d="M64 11.8c15 0 28.9 5 39 14a51.5 51.5 0 0 1 17 40c0 16.2-5.9 30-17 39.8-10.2 9-24 14-39 14s-28.9-4.9-39-13.8a51.5 51.5 0 0 1-17-40c0-16.6 5.9-30.5 17-40.2a58.9 58.9 0 0 1 39-13.8m0-4c-31.1 0-60 20-60 58 0 37.6 28.9 57.8 60 57.8s60-20.7 60-57.9C124 28.4 95.1 8 64 8z" fill="#EB8F00"/><path d="M78.2 21.6l-1.1-.4-1.3-.5-2.1-.6-2.5-.8c-1.6-.5-3.6-1.7-4.7.5-.2.5-.4 1.2-.4 1.7 0 .8.6 1.2 1.4 1.5a36 36 0 0 0 3 1c.1 0 .4 0 .4.3l-.3.3-.6.4-.3.2-1.6 1.1-1.4 1c-.2 0-.3.2-.5.3l-1.7 1.3-.2.1c-.5.5-1 1-1.1 1.7 0 1 .6 1.4 1.4 1.8l1 .3 3.1 1 2.5.9c1.6.5 3.6 1.7 4.7-.5.2-.5.4-1.2.4-1.7 0-.8-.6-1.2-1.3-1.5l-2.3-.8-.5-.1-.4-.2a50.3 50.3 0 0 0 1.5-1.2l1.2-.9.7-.4 1.3-1c1-.8 3.6-1.9 2.8-3.6-.3-.4-.7-1-1.1-1.2zM98 12l-1.2-.3-1.5-.4-2.3-.5-2.8-.7c-1.8-.5-4.1-1.6-5 1-.2.5-.5 1.2-.4 1.8.1.9.8 1.2 1.6 1.5l2.6.7.8.2c.2 0 .5 0 .5.3l-.3.3-.6.5-.3.3-1.8 1.3a37 37 0 0 0-2 1.6L83.8 21l-.3.2c-.5.5-1 1.2-1 2 0 1 .8 1.3 1.7 1.7l1 .3c1.1.4 2.4.6 3.6.9l2.8.7c1.8.4 4 1.6 5-1 .2-.5.4-1.3.3-1.8 0-1-.7-1.3-1.6-1.5a37 37 0 0 0-2.5-.7l-.6-.2h-.4c-.3-.3.1-.5.3-.6l1.2-1 1.3-1 .7-.5 1.4-1.1c1-1.1 3.7-2.5 2.7-4.3-.3-.4-.8-1-1.2-1.1zm26.6-3a4 4 0 0 0-1.6-1.5l-1.6-.5-2-.6-3.1-.6-3.7-1c-2.4-.5-5.5-2.1-6.7 1.3-.3.7-.6 1.7-.5 2.4.2 1.2 1 1.7 2.2 2a48.4 48.4 0 0 0 4.5 1.3c.2 0 .6 0 .6.3 0 .2-.3.4-.4.5l-.8.7-.4.3-2.3 1.8a43.6 43.6 0 0 0-2.6 2c-.9.6-1.6 1.3-2.3 2l-.3.3c-.7.7-1.4 1.6-1.4 2.6 0 1.3 1 1.9 2.2 2.3l1.4.4c1.5.6 3.1.8 4.7 1.2l3.8 1c2.4.5 5.4 2 6.7-1.3.2-.7.5-1.7.4-2.5-.1-1.2-1-1.7-2.1-2a50 50 0 0 0-3.4-1l-.8-.1c-.1 0-.5 0-.6-.2-.3-.2.2-.5.4-.7l1.7-1.2 1.7-1.4 1-.7 1.8-1.5c1.4-1.4 5-3.2 3.5-5.6z" fill="#D7598B"/><path d="M55.7 103.3A6.8 6.8 0 0 1 50 92.6c3.1-4.8 8-7.3 14-7.3s10.9 2.5 14 7.3c1.4 2.2 1.6 4.8.3 7s-3.5 3.7-6 3.7c-.7 0-1.5-.1-2.3-.4a18.5 18.5 0 0 0-12 0c-.8.3-1.6.4-2.3.4zM49.6 54.7l-.2.2-.5.5a56.5 56.5 0 0 1-2.9 2l-1.3.5-1.5.4-1.6.1h.1-1l-.7-.1-1.5-.4-1.4-.5a16.6 16.6 0 0 1-2.9-2l-.6-.6-.3-.3a3.5 3.5 0 0 0-4.5-.1c-1 .8-1.3 2.1-.8 3.2l.1.3.5.8a12.8 12.8 0 0 0 4 4.4 14 14 0 0 0 5.6 2.3l1.8.3h.8l.8.1 3.3-.3a15.9 15.9 0 0 0 7.5-4c.5-.5 1-1 1.3-1.5l.5-.7.4-.6.4-.8.1-.2c.7-1.5-.1-3.2-1.8-3.8a3.6 3.6 0 0 0-3.7.8zm44.9 0l-.2.2-.5.5a56.5 56.5 0 0 1-2.9 2l-1.4.5-1.5.4-1.5.1h.1-1l-.7-.1-1.5-.4-1.4-.5a16.6 16.6 0 0 1-2.9-2l-.6-.6-.3-.3a3.5 3.5 0 0 0-4.5-.1c-1 .8-1.3 2.1-.8 3.2l.1.3.5.8a12.8 12.8 0 0 0 4 4.4 14 14 0 0 0 5.6 2.3l1.8.3h.8l.8.1 3.3-.3a15.9 15.9 0 0 0 7.5-4c.5-.5 1-1 1.3-1.5l.5-.7.4-.6.4-.8v-.2c.8-1.5 0-3.2-1.7-3.8a3.5 3.5 0 0 0-3.7.8z" fill="#242424"/></svg>