<svg xmlns="http://www.w3.org/2000/svg" viewBox="0 0 36 36"><path fill="#4289C1" d="M27 22H9s-9 0-9 7c0 3.2 4 7 4 7h28s4-3.8 4-7c0-7-9-7-9-7z"/><circle fill="#F9CA55" cx="18" cy="28" r="3"/><path fill="#FFDC5D" d="M9 10v11a9 9 0 1 0 18 0V10.2L9 10z"/><path fill="#FFDC5D" d="M10.8 17.7c0 1.6-.8 2.9-1.7 2.9s-1.8-1.3-1.8-2.9C7.3 16.1 8 15 9 15s1.7 1.2 1.7 2.8zm18 0c0 1.6-.9 2.9-1.9 2.9s-1.7-1.3-1.7-2.9c0-1.6.8-2.8 1.7-2.8s1.8 1.2 1.8 2.8z"/><path fill="#FFAC33" d="M18 4.8c-7 0-10.1 4.7-10.1 8.6 0 4 1.3 5 1.5 4 .8-4 3.1-5.2 3.1-5.2 4.7 4 4 .8 4 .8 4.6 4.7 2.3 0 2.3 0 1.5 1.6 6.2 1.6 6.2 1.6l1.6 2.7c.8 1.6 1.5 0 1.5-3.9S24.2 4.8 18 4.8z"/><path fill="#FFDC5D" d="M17 34l-5-1-2-1H7l-1 4h11c1 0 1-1 1-1 0-.6-1-1-1-1zm9-2l-2 1-5 1s-1 .4-1 1c0 0 0 1 1 1h11l-1-4h-3z"/><path fill="#662113" d="M22 22a1 1 0 0 1-1-1v-1a1 1 0 1 1 2 0v1c0 .6-.4 1-1 1zm-8 0a1 1 0 0 1-1-1v-1a1 1 0 1 1 2 0v1c0 .6-.4 1-1 1z"/><path fill="#C1694F" d="M19 26.5h-2a.5.5 0 0 1 0-1h2a.5.5 0 0 1 0 1z"/><path d="M5.5 8a1 1 0 0 1-.6-.2l-4-3a1 1 0 0 1 1.2-1.6l4 3A1 1 0 0 1 5.5 8zm3-3a1 1 0 0 1-.8-.4l-2-3A1 1 0 0 1 7.3.4l2 3A1 1 0 0 1 8.5 5zm22 3a1 1 0 0 1-.6-1.8l4-3a1 1 0 1 1 1.2 1.6l-4 3a1 1 0 0 1-.6.2zm-3-3a1 1 0 0 1-.8-1.6l2-3a1 1 0 1 1 1.6 1.2l-2 3a1 1 0 0 1-.8.4z" fill="#5DADEC"/></svg>