<svg viewBox="0 0 128 128" xmlns="http://www.w3.org/2000/svg" xmlns:xlink="http://www.w3.org/1999/xlink"><defs><path id="a" d="M4 4h120v120H4z"/></defs><clipPath id="b"><use xlink:href="#a"/></clipPath><g clip-path="url(#b)"><linearGradient id="c" x1="64" x2="64" y1="89.2" y2="130.5" gradientUnits="userSpaceOnUse"><stop stop-color="#00BFA5" offset="0"/><stop stop-color="#00B29A" offset=".7"/><stop stop-color="#00AB94" offset="1"/></linearGradient><path d="M17.5 130.5v-12.6c0-18.4 16.3-25.3 30-28 2.5-.4 9-.7 16.5-.7s14 .3 16.5.8c13.7 2.6 30 9.5 30 27.9v12.6h-93z" fill="url(#c)"/><path d="M64 90.7c7.4 0 13.7.3 16.2.8 13.1 2.5 28.8 9 28.8 26.4V129H19v-11.1c0-17.3 15.7-24 28.8-26.4 2.5-.5 8.8-.8 16.2-.8m0-3c-7 0-13.9.3-16.7.8C29.3 92 16 101 16 118v14h96v-14.1c0-17-13.2-26-31.3-29.4a121 121 0 0 0-16.7-.8z" fill="#009984"/></g><g clip-path="url(#b)"><path d="M68 76h-7.7c-.6.3-1 1-.6 1.7s1.6 2.6 4.4 2.6 4.2-2 4.5-2.6c.3-.7 0-1.4-.6-1.7z" fill="#E59600"/><path d="M57 89.8a25.8 25.8 0 0 1 14.6 0c.8.2 1.2-.6.7-1.4-.8-1.2-3.7-3.5-8-3.5s-7.2 2.3-8 3.5c-.6.8-.1 1.6.7 1.4z" fill="#795548"/><path d="M43.7 67.3c0-.6 0-1 .2-1.5L47 65c1.7-.5 3-1.3 4-2.2a6 6 0 0 1 1.7 4.4c0 3-2.2 5.5-4.6 5.5s-4.5-2.5-4.4-5.5zm41.2 0l-.2-1.5-3.2-.7a9 9 0 0 1-3.9-2.2 6 6 0 0 0-1.7 4.4c0 3 2.1 5.5 4.6 5.5s4.5-2.5 4.4-5.5z" fill="#444"/><path d="M55.4 58.4c-1.2-1-3.7-2.4-8.1-1.6s-6.3 3-7 4.3c-.4.6-.2 1.2.2 1.5.3.3 1.2.5 2 0s2.5-1.5 5.5-2c3-.6 4.8 0 5.8 0 1 .2 1.7-.3 2-.6.1-.5.1-1.1-.4-1.6zm32.7 2.7c-.7-1.3-2.7-3.5-7-4.3s-7 .6-8.2 1.7c-.5.4-.5 1-.2 1.5.2.4 1 .8 1.9.7s2.9-.7 5.8-.2c3 .6 4.6 1.7 5.4 2.2.9.4 1.8.2 2.1 0 .3-.4.6-1 .2-1.6z" fill="#6D4C41"/></g><g clip-path="url(#b)"><path d="M63.2 111c-4 0-7.3-3.2-7.3-7.2v-9h16.2v9c0 4-3.3 7.2-7.3 7.2h-1.6z" fill="#E59600"/><path d="M71 95.8v8c0 3.4-2.7 6.2-6.2 6.2h-1.6a6.2 6.2 0 0 1-6.3-6.2v-8h14.2m2-2H54.9v10c0 4.5 3.7 8.2 8.3 8.2h1.6c4.6 0 8.3-3.7 8.3-8.2v-10z" fill="#D18100"/></g><g clip-path="url(#b)"><path d="M36.7 80.3c-5.4 0-9.7-4.7-9.7-10.4s4.3-10.5 9.7-10.5h54.6c5.4 0 9.7 4.7 9.7 10.5s-4.3 10.4-9.7 10.4H36.7z" fill="#E59600"/><path d="M91.3 60.4c4.8 0 8.7 4.3 8.7 9.4s-3.9 9.5-8.7 9.5H36.7c-4.8 0-8.7-4.3-8.7-9.5s3.9-9.4 8.7-9.4h54.6m0-2H36.7c-6 0-10.7 5.2-10.7 11.4 0 6.3 4.8 11.5 10.7 11.5h54.6c6 0 10.7-5.2 10.7-11.5 0-6.2-4.8-11.4-10.7-11.4z" fill="#D18100"/><linearGradient id="d" x1="64" x2="64" y1="102.6" y2="20.8" gradientUnits="userSpaceOnUse"><stop stop-color="#FFB300" offset="0"/><stop stop-color="#FFB809" offset=".1"/><stop stop-color="#FFC21A" offset=".4"/><stop stop-color="#FFC825" offset=".7"/><stop stop-color="#FFCA28" offset="1"/></linearGradient><path d="M64 103.3c-15.7 0-32.5-12.2-32.5-38.8 0-12.4 3.5-23.8 10-32.2 6-7.8 14.3-12.2 22.5-12.2s16.4 4.4 22.5 12.2c6.5 8.4 10 19.8 10 32.2a42 42 0 0 1-10.1 29.2 30.5 30.5 0 0 1-22.4 9.6z" fill="url(#d)"/><path d="M64 21c8 0 15.8 4.4 21.7 12a51.5 51.5 0 0 1 9.8 31.5c0 11.8-3.4 21.7-9.8 28.5a29.6 29.6 0 0 1-43.3 0 40.5 40.5 0 0 1-10-28.5 51.3 51.3 0 0 1 10-31.5A28.1 28.1 0 0 1 64 21m0-2c-17.4 0-33.5 18.7-33.5 45.5C30.5 91 47 104.3 64 104.3S97.5 91 97.5 64.5C97.5 37.7 81.4 19 64 19z" fill="#ED9E00"/><radialGradient id="e" cx="64.3" cy="12.3" r="48.9" gradientUnits="userSpaceOnUse"><stop stop-color="#6D4C41" offset="0"/><stop stop-color="#543930" offset="1"/></radialGradient><path d="M64 12c-45.5.3-36.2 52.2-36.2 52.2L33 73a90 90 0 0 1 4.8-25.6 6 6 0 0 1 6.8-3.8c4.5.8 11.6 1.8 19.4 1.8h.1c8 0 15-1 19.4-1.8a6 6 0 0 1 6.8 3.8A90 90 0 0 1 95 73l5.1-8.8s9.3-52-36-52.2z" fill="url(#e)"/><path d="M64 12c-45.5.3-36.2 52.2-36.2 52.2L33 73l.3-5-2.5-4.8c-.2-1.6-.9-7-.5-13.6.4-7 2.1-17 8.2-24.2C44.1 18.6 52.7 15 64 15s20 3.6 25.6 10.4c10.8 13 8.2 34.3 7.7 37.8l-2.5 4.6c.2 2 .3 3.7.2 5.2l5.1-8.8s9.3-52-36-52.2z" fill="#3F2720"/></g><path d="M67.8 78h-7.6c-.6.3-1 1-.7 1.7s1.7 2.6 4.5 2.6 4.2-2 4.5-2.6c.3-.7 0-1.4-.7-1.7z" fill="#E59600"/><path d="M56.7 91.8a25.8 25.8 0 0 1 14.6 0c.8.2 1.2-.6.7-1.4-.8-1.2-3.7-3.5-8-3.5s-7.2 2.3-8 3.5c-.5.8-.1 1.6.7 1.4z" fill="#795548"/><path d="M43.3 68.3c0-.6.1-1 .3-1.5l3.1-.7c1.7-.5 3-1.3 4-2.2a6 6 0 0 1 1.6 4.4c0 3-2.1 5.5-4.6 5.5-2.5 0-4.4-2.5-4.4-5.5zm41.4 0c0-.6-.1-1-.3-1.5l-3.1-.7c-1.7-.5-3-1.3-4-2.2a6 6 0 0 0-1.6 4.4c0 3 2.1 5.5 4.6 5.5 2.5 0 4.4-2.5 4.4-5.5z" fill="#444"/><path d="M55.4 58.3c-1.2-1.1-3.8-2.6-8.2-1.8s-6.4 3.2-7.2 4.7c-.3.7-.1 1.4.3 1.7.3.4 1.2.5 2 0s2.6-1.7 5.5-2.3c3-.6 5 0 6 .2 1 .1 1.7-.4 1.9-.8.2-.5.2-1.2-.3-1.7zm32.6 3c-.8-1.6-2.7-4-7.2-4.8s-7 .7-8.2 1.8c-.5.5-.5 1.2-.3 1.7.2.4 1 1 2 .8 1-.1 2.9-.7 5.9-.2 3 .6 4.6 1.9 5.5 2.4.8.5 1.7.3 2 0 .4-.4.6-1 .3-1.7z" fill="#6D4C41"/></svg>