<svg viewBox="0 0 128 128" xmlns="http://www.w3.org/2000/svg" xmlns:xlink="http://www.w3.org/1999/xlink"><radialGradient id="a" cx="162.93" cy="2.177" r="60.862" gradientTransform="matrix(.358 .989 -.9337 .3793 -26.292 -110.04)" gradientUnits="userSpaceOnUse"><stop stop-color="#E0BB95" offset=".358"/><stop stop-color="#CCA47A" offset=".872"/></radialGradient><path d="M27.97 117.38c-14.27 0-19.16-14.44-20.32-18.87-1.99-7.59-2.16-42.65-2.17-43 0-3.11 1.43-6.25 4.18-6.26 2.8 0 4.75 2.21 4.76 5.38 0 .54.43.99.98 1h.02c.54 0 .98-.42 1.01-.95l.49-10.31c0-3.04 1.29-6.25 4.13-6.25 2.78 0 5.21 2.79 5.21 5.97 0 .55.45 1 1 1s1-.45 1-1l.03-6.82c0-2.7 1.41-5.61 4.51-5.61s4.52 2.9 4.52 5.6l.15 8.57c.01.55.46.98 1 .98h.01c.55 0 .99-.45.99-1 0-1.54.41-5.14 4.28-5.14 2.96 0 4.51 2.96 4.52 5.89.31 8.94 1.1 32.24 1.08 33.1-.06.69.1 1.29.47 1.69.27.29.62.45 1 .45.3 0 1.07-.12 1.58-1.24.3-.66.42-1.88.61-4.15.29-3.48.7-8.25 2.2-11.52 1.18-2.57 3.28-3.23 5.17-3.54.18-.03.35-.04.52-.04 1.98 0 2.7 2.1 2.73 3.89.03 2.25-.34 4.88-.73 7.66-.13.92-.26 1.85-.38 2.81-.72 5.62-4.31 19.91-6.86 25.2-.35.72-.66 1.5-1 2.33-2.39 5.89-5.67 13.95-26.43 14.19l-.26-.01z" fill="url(#a)"/><path d="M32.8 32.66c2.42 0 3.51 2.31 3.51 4.63l.15 8.56c.02 1.09.91 1.97 2 1.97h.02c1.1-.01 1.98-.9 1.98-2 0-1.89.57-4.14 3.28-4.14 2.3 0 3.51 2.46 3.51 4.89v.07c.44 12.61 1.08 31.64 1.08 32.98-.09 1.25.35 2 .73 2.42.46.5 1.08.77 1.74.77.5 0 1.74-.18 2.49-1.83.37-.81.49-2.03.7-4.48.27-3.21.69-8.07 2.12-11.18.79-1.73 2.08-2.59 4.43-2.97.12-.02.24-.03.35-.03 1.64 0 1.73 2.61 1.73 2.9.03 2.18-.34 4.77-.72 7.51-.13.92-.26 1.86-.38 2.81-.7 5.42-4.3 19.77-6.77 24.9-.36.75-.68 1.54-1.02 2.38-2.41 5.94-5.42 13.34-25.51 13.57h-.24c-5.32 0-9.82-2.09-13.38-6.21-3.57-4.13-5.27-9.23-5.97-11.91C6.68 90.8 6.5 55.87 6.5 55.52c0-2.11.84-5.26 3.19-5.26 2.59 0 3.75 2.2 3.75 4.38 0 1.09.87 1.97 1.95 2h.05c1.06 0 1.95-.84 2-1.91l.49-10.31v-.1c0-1.8.65-5.2 3.13-5.21 2.24 0 4.21 2.32 4.21 4.97a2 2 0 0 0 2 2c1.1 0 2-.89 2-1.99l.03-6.83c-.02-2.29 1.07-4.6 3.5-4.6m0-2c-.01 0-.01 0 0 0-3.43 0-5.52 2.96-5.51 6.61l-.03 6.82c0-3.64-2.79-6.97-6.21-6.97-3.43 0-5.13 3.56-5.13 7.21l-.49 10.31c0-3.64-2.33-6.38-5.75-6.38h-.01c-3.42 0-5.18 3.62-5.18 7.26 0 0 .16 35.45 2.2 43.25 2.03 7.75 7.93 19.61 21.29 19.61h.26c24.3-.28 25.5-11.22 28.32-17.09 2.62-5.45 6.24-20 6.95-25.51.5-3.91 1.16-7.53 1.12-10.6-.04-2.78-1.42-4.88-3.73-4.88-.22 0-.44.02-.68.06-2.13.35-4.57 1.17-5.92 4.11-2.42 5.27-2.12 14.14-2.81 15.68-.2.45-.45.65-.67.65-.3 0-.53-.4-.47-1.1.04-.5-1.08-33.14-1.08-33.14 0-3.64-2.09-6.89-5.51-6.89-3.43 0-5.28 2.5-5.28 6.14l-.15-8.56c-.02-3.64-2.11-6.59-5.53-6.59z" fill="#BA8F63"/><defs><path id="b" d="M67.75 69.38c-1.58-1.85-5.45-2.42-9.37-1.12-2.62.87-2.04 12.76-2.04 12.76l-6.1 2.71-.48-3.67-.12-2.65S3.46 93.47 4.11 99.71c.65 6.23 5.38 18.15 24.21 18.13 24.3-.02 25.35-15.32 28.17-21.18 2.62-5.45 5.91-18.13 9.97-19.48 2.6-.89 2.61-6.24 1.29-7.8z"/></defs><clipPath id="c"><use xlink:href="#b"/></clipPath><g clip-path="url(#c)"><path d="M50.46 76.37c-7.55 3.05-12 10.6-14.72 20.48-.38 1.36.81 1.76 1.27.43 4.74-13.85 17.13-18.1 17.13-18.1l-3.68-2.81z" fill="#BA8F63"/></g><path d="M13.88 82.79c9.42-4.18 19.4-6.69 29.67-4.83 1.89.34 2.7-2.55.8-2.89-11.14-2.02-21.73.58-31.98 5.13-1.76.78-.24 3.37 1.51 2.59z" fill="#BA8F63"/><defs><path id="d" d="M64.62 65.18c-.04-3.05-1.69-5.26-4.41-4.82-2.13.35-4.57 1.17-5.92 4.11-2.42 5.27-2.12 14.14-2.81 15.68-.49 1.08-1.24.75-1.14-.45.04-.5-1.08-33.14-1.08-33.14 0-3.65-2.09-6.89-5.52-6.89-3.42 0-5.28 2.5-5.27 6.14l-.15-8.56c0-3.65-2.09-6.6-5.52-6.59s-5.51 2.96-5.51 6.61l-.03 6.82c0-3.65-2.79-6.97-6.21-6.97s-5.13 3.56-5.13 7.21l-.49 10.31c0-3.65-2.33-6.39-5.76-6.38-3.42 0-5.18 3.62-5.18 7.26 0 0 .16 35.45 2.2 43.25s8.01 19.77 21.55 19.61c24.3-.28 25.5-11.22 28.32-17.09 2.62-5.45 6.24-20 6.95-25.51.49-3.91 1.15-7.53 1.11-10.6z"/></defs><clipPath id="e"><use xlink:href="#d"/></clipPath><path d="M15.13 45.99c.1 9.58 1.13 24.51 2.87 32.65M27.17 24.73c-.9 11.34-.08 42.74 2.44 50.88M38.74 33.27c-.21 10.42-.95 28.13 1.05 41.74" clip-path="url(#e)" fill="none" stroke="#BA8F63" stroke-miterlimit="10" stroke-width="3"/><radialGradient id="f" cx="-356.12" cy="1.711" r="60.862" gradientTransform="matrix(.358 .989 .9337 -.3793 223.85 404.78)" gradientUnits="userSpaceOnUse"><stop stop-color="#E0BB95" offset=".358"/><stop stop-color="#CCA47A" offset=".872"/></radialGradient><path d="M99.74 117.38c-20.76-.24-24.04-8.3-26.43-14.19-.33-.83-.65-1.6-1-2.33-2.55-5.3-6.14-19.59-6.86-25.2-.12-.95-.25-1.88-.38-2.79-.39-2.79-.76-5.42-.73-7.67.02-1.79.75-3.89 2.73-3.89.17 0 .34.01.52.04 1.9.31 4 .97 5.17 3.54 1.5 3.27 1.91 8.04 2.2 11.52.19 2.28.31 3.49.61 4.16.51 1.12 1.27 1.24 1.58 1.24.38 0 .74-.16 1-.45.37-.4.53-1 .47-1.74-.01-.82.78-24.11 1.09-33.02 0-2.96 1.55-5.92 4.51-5.92 3.87 0 4.28 3.6 4.28 5.14 0 .55.44 1 .99 1h.01c.54 0 .99-.44 1-.98l.15-8.56c0-2.71 1.42-5.61 4.51-5.61 3.1 0 4.51 2.91 4.51 5.6l.03 6.83c0 .55.45 1 1 1s1-.45 1-1c0-3.18 2.44-5.97 5.21-5.97 2.84 0 4.14 3.22 4.13 6.21l.49 10.36c.03.53.47.95 1 .95h.02c.55-.01.98-.46.98-1 0-3.17 1.96-5.38 4.75-5.38 2.75 0 4.19 3.15 4.19 6.26 0 .35-.18 35.41-2.17 43-1.16 4.43-6.04 18.87-20.32 18.87l-.24-.02z" fill="url(#f)"/><path d="M95.16 32.66c2.43 0 3.51 2.31 3.51 4.61l.03 6.82c0 1.1.9 1.99 2 1.99s2-.9 2-2c0-2.65 1.97-4.97 4.21-4.97 2.48 0 3.13 3.41 3.13 5.21v.1l.49 10.31c.05 1.07.93 1.91 2 1.91h.05c1.09-.03 1.95-.91 1.95-2 0-2.18 1.16-4.38 3.75-4.38 2.34 0 3.19 3.15 3.18 5.25 0 .35-.18 35.29-2.13 42.75-.7 2.68-2.41 7.78-5.97 11.91-3.56 4.12-8.06 6.21-13.38 6.21h-.24c-20.09-.23-23.1-7.63-25.51-13.57-.34-.84-.66-1.63-1.02-2.38-2.46-5.12-6.07-19.48-6.77-24.9-.12-.96-.25-1.89-.38-2.81-.39-2.74-.75-5.33-.72-7.51 0-.3.09-2.9 1.73-2.9.11 0 .23.01.35.03 2.35.38 3.63 1.24 4.43 2.97 1.43 3.11 1.84 7.97 2.12 11.18.21 2.45.32 3.67.7 4.48.75 1.65 1.99 1.83 2.49 1.83.66 0 1.28-.27 1.74-.77.38-.42.82-1.18.73-2.42.01-1.33.65-20.37 1.08-32.98v-.07c0-2.43 1.21-4.89 3.52-4.89 2.71 0 3.28 2.25 3.28 4.14 0 1.1.88 1.99 1.98 2h.02a2 2 0 0 0 2-1.97l.15-8.59c-.01-2.29 1.07-4.59 3.5-4.59m0-2c-3.42 0-5.51 2.95-5.51 6.59l-.15 8.56c0-3.65-1.85-6.14-5.27-6.14h-.01c-3.42 0-5.51 3.24-5.51 6.89 0 0-1.13 32.63-1.08 33.14.06.7-.17 1.1-.47 1.1-.21 0-.46-.2-.67-.65-.7-1.53-.39-10.4-2.81-15.68-1.35-2.94-3.79-3.76-5.92-4.11-.23-.04-.46-.06-.68-.06-2.31 0-3.69 2.09-3.73 4.88-.04 3.08.62 6.7 1.12 10.6.71 5.51 4.32 20.06 6.95 25.51 2.82 5.86 4.02 16.81 28.32 17.09h.26c13.36 0 19.26-11.87 21.29-19.61 2.04-7.8 2.2-43.25 2.2-43.25 0-3.65-1.76-7.26-5.18-7.26s-5.75 2.74-5.75 6.38l-.49-10.31c0-3.65-1.7-7.2-5.13-7.21-3.42 0-6.21 3.32-6.21 6.97l-.03-6.82c-.03-3.65-2.11-6.61-5.54-6.61z" fill="#BA8F63"/><defs><path id="g" d="M60.25 69.38c1.58-1.85 5.45-2.42 9.37-1.12 2.62.87 2.04 12.76 2.04 12.76l6.1 2.71.48-3.67.12-2.65s46.18 16.06 45.53 22.3c-.65 6.23-5.38 18.15-24.21 18.13-24.3-.02-25.35-15.32-28.17-21.18-2.62-5.45-5.91-18.13-9.97-19.48-2.6-.89-2.61-6.24-1.29-7.8z"/></defs><clipPath id="h"><use xlink:href="#g"/></clipPath><g clip-path="url(#h)"><path d="M77.54 76.37c7.55 3.05 12 10.6 14.72 20.48.38 1.36-.81 1.76-1.27.43-4.74-13.85-17.13-18.1-17.13-18.1l3.68-2.81z" fill="#BA8F63"/></g><path d="M115.63 80.2c-10.25-4.55-20.84-7.15-31.98-5.13-1.9.34-1.09 3.24.8 2.89 10.27-1.86 20.25.65 29.67 4.83 1.75.78 3.28-1.81 1.51-2.59z" fill="#BA8F63"/><defs><path id="i" d="M63.34 65.18c.04-3.05 1.69-5.26 4.41-4.82 2.13.35 4.57 1.17 5.92 4.11 2.42 5.27 2.12 14.14 2.81 15.68.49 1.08 1.24.75 1.14-.45-.04-.5 1.08-33.14 1.08-33.14 0-3.65 2.09-6.89 5.52-6.89 3.42 0 5.28 2.5 5.27 6.14l.15-8.56c0-3.65 2.09-6.6 5.52-6.59s5.51 2.96 5.51 6.61l.03 6.82c0-3.65 2.79-6.97 6.21-6.97s5.13 3.56 5.13 7.21l.49 10.31c0-3.65 2.33-6.39 5.76-6.38 3.42 0 5.18 3.62 5.18 7.26 0 0-.16 35.45-2.2 43.25s-8.01 19.77-21.55 19.61c-24.3-.28-25.5-11.22-28.32-17.09-2.62-5.45-6.24-20-6.95-25.51-.49-3.91-1.15-7.53-1.11-10.6z"/></defs><clipPath id="j"><use xlink:href="#i"/></clipPath><path d="M112.87 45.99c-.1 9.58-1.13 24.51-2.87 32.65M100.83 24.73c.9 11.34.08 42.74-2.44 50.88M89.26 33.27c.21 10.42.95 28.13-1.05 41.74" clip-path="url(#j)" fill="none" stroke="#BA8F63" stroke-miterlimit="10" stroke-width="3"/><path fill="none" stroke="#000" stroke-linecap="round" stroke-linejoin="round" stroke-miterlimit="10" stroke-width="3" d="M78.76 31.75l9.65-13.34M49.66 31.66L40.6 20.05M64.04 27.84l.04-18.22"/></svg>