<svg viewBox="0 0 128 128" xmlns="http://www.w3.org/2000/svg" xmlns:xlink="http://www.w3.org/1999/xlink"><defs><path id="a" d="M4 4h120v120H4z"/></defs><clipPath id="b"><use xlink:href="#a"/></clipPath><g clip-path="url(#b)"><linearGradient id="c" x1="40.1" x2="40.1" y1="114.7" y2="5.6" gradientTransform="scale(1.0084 1)" gradientUnits="userSpaceOnUse"><stop stop-color="#8D5738" offset="0"/><stop stop-color="#A56C43" offset="1"/></linearGradient><path d="M18.4 91l-.2-.2a.7.7 0 0 1-.4-.5l.1-.6c2.8-1.3 19.4-9.3 23.6-13 1.2-1.2 1.7-3.6 2.8-9l.7-3.6c.2-1.2.9-3.5 1.6-5.8 1-3.3 1.9-6.6 2.2-8.6 2.8-16.6 5-37.1 5-37.4.6-4.7 1.6-6.7 3.6-6.7 3.2 0 5.3 1.9 5.3 4.7l.2 79c0 5.4-1.8 6-4.3 7-1.4.6-3.1 1.2-4.3 2.8a143.7 143.7 0 0 0-9.9 15.6l-26-23.8z" fill="url(#c)"/><path d="M57.4 7c2.4 0 3.8 1.3 3.8 3.3l.2 79c0 4.3-1 4.7-3.3 5.6-1.6.6-3.5 1.3-5 3.3-2.4 3.1-4.8 7.3-7.2 11.2l-1.8 3-24-22c5-2.5 18.5-9.1 22.4-12.7 1.6-1.4 2.2-4.4 3.2-9.6l.7-3.7 1.6-5.7c1-3.3 2-6.7 2.3-8.8 2.8-16.6 5-37.2 5-37.4.5-3.6 1.1-5.4 2.1-5.4m0-3c-4 0-4.7 4.9-5 8 0 0-2.3 20.6-5 37.3-.6 3.4-3.3 11.5-3.9 14.4-1.2 6-1.9 10.7-3 11.7a171 171 0 0 1-23.6 13c-1 1.2-.7 2.8.5 3.5l27.4 25c3.5-5.5 7.3-12.4 10.7-17 2.8-3.7 9-1 9-10.7l-.3-79c0-3.4-2.5-6.2-6.8-6.2z" fill="#875334"/><linearGradient id="d" x1="-2.9" x2="55.3" y1="103.7" y2="103.7" gradientUnits="userSpaceOnUse"><stop stop-color="#2196F3" offset="0"/><stop stop-color="#64B5F6" offset="1"/></linearGradient><path d="M47.6 130.7L-3 130l.5-38.8L29.4 77c1.5-.6 3.2.2 3.6 1.8a50 50 0 0 0 8 16.9c4.6 6.2 9.5 11 12.5 13.7a5.3 5.3 0 0 1 1.2 6.3L42.6 125l5 5.7z" fill="url(#d)"/><path d="M52.6 18s.8-5.2 5.5-5.2 5 5.2 5 5.2m-12 13s1-5.7 6-5.7 6.1 5.7 6.1 5.7" fill="none" stroke="#875334" stroke-linecap="round" stroke-linejoin="round" stroke-miterlimit="10" stroke-width="2"/><path d="M30.2 80a54 54 0 0 0 8.4 17.4 94.8 94.8 0 0 0 13 14.3c.5.5.8 1.3.6 2l-11.4 8.4a3 3 0 0 0-.5 4.3l1 1.2L0 127l.5-33.9L30.2 80m.3-3.2c-.4 0-.8 0-1.1.2L-2.4 91.3l-.5 38.8 50.5.6-5-6.2 12.1-8.8c1.1-2.1.6-4.7-1.2-6.3A90 90 0 0 1 41 95.7c-4.8-6.6-7-13.2-8-17a2.7 2.7 0 0 0-2.5-1.9z" fill="#424242" opacity=".2"/></g><g clip-path="url(#b)"><linearGradient id="e" x1="52" x2="52" y1="114.7" y2="5.6" gradientTransform="matrix(-1.0084 0 0 1 139.6 0)" gradientUnits="userSpaceOnUse"><stop stop-color="#8D5738" offset="0"/><stop stop-color="#A56C43" offset="1"/></linearGradient><path d="M83 114.7l-2.6-4.5c-2.4-4-4.9-8-7.2-11.1-1.2-1.6-2.8-2.2-4.3-2.8-2.5-1-4.3-1.6-4.3-7l.2-79c0-2.8 2.1-4.7 5.3-4.7 2 0 3 2 3.6 6.7 0 .2 2.3 20.8 5 37.4.3 2 1.3 5.3 2.3 8.6l1.6 5.8.7 3.7c1 5.3 1.5 7.7 2.7 8.8 4.2 3.8 20.8 11.8 23.6 13.1l.1.6c0 .2-.1.3-.3.4l-.3.2-26 23.8z" fill="url(#e)"/><path d="M70.1 7c1 0 1.7 1.9 2 5.5 0 .2 2.4 20.8 5.1 37.4a73 73 0 0 0 2.3 8.8l1.6 5.7.7 3.6c1 5.3 1.6 8.2 3.2 9.7 3.9 3.6 17.4 10.2 22.5 12.7l-24 22-1.9-3c-2.4-4-4.8-8-7.2-11.2-1.4-2-3.4-2.7-5-3.3-2.3-.9-3.3-1.3-3.3-5.6l.2-79c0-2 1.5-3.2 3.8-3.2m0-3c-4.2 0-6.8 2.8-6.8 6.2l-.2 79c0 9.7 6.2 7 9 10.7 3.4 4.6 7.2 11.5 10.7 17L110 92c1.3-.7 1.5-2.3.5-3.5 0 0-19.2-9-23.6-13-1.1-1-1.8-5.7-3-11.7-.6-3-3.3-11-3.8-14.4-2.8-16.7-5-37.2-5-37.2C74.7 8.9 74 4 70 4z" fill="#875334"/><linearGradient id="f" x1="9.1" x2="67.3" y1="103.7" y2="103.7" gradientTransform="matrix(-1 0 0 1 139.5 0)" gradientUnits="userSpaceOnUse"><stop stop-color="#2196F3" offset="0"/><stop stop-color="#64B5F6" offset="1"/></linearGradient><path d="M80 130.7l50.4-.6-.5-38.8L98 77c-1.4-.6-3.2.2-3.6 1.8a50 50 0 0 1-8 16.9 90 90 0 0 1-12.5 13.7 5.3 5.3 0 0 0-1.2 6.3l12.1 9.3-5 5.7z" fill="url(#f)"/><path d="M75 18s-.9-5.2-5.6-5.2-5 5.2-5 5.2m12 13s-1-5.7-6-5.7-6.1 5.7-6.1 5.7" fill="none" stroke="#875334" stroke-linecap="round" stroke-linejoin="round" stroke-miterlimit="10" stroke-width="2"/><path d="M97.3 80L127 93.2l.5 34-41 .4.9-1.2a3 3 0 0 0-.6-4.3l-11.4-8.3c-.2-.8 0-1.6.7-2.2 3.3-3 8.3-7.9 13-14.2 5-6.8 7.3-13.7 8.3-17.5m-.2-3.1c-1.2 0-2.3.8-2.6 2a50 50 0 0 1-8 16.9 90 90 0 0 1-12.5 13.7 5.3 5.3 0 0 0-1.2 6.3l12.1 8.8-5 6.2 50.5-.6-.5-38.8L98 77l-1-.2z" fill="#424242" opacity=".2"/></g></svg>