<svg viewBox="0 0 128 128" xmlns="http://www.w3.org/2000/svg" xmlns:xlink="http://www.w3.org/1999/xlink"><defs><path id="a" d="M4 4h120v120H4z"/></defs><clipPath id="b"><use xlink:href="#a"/></clipPath><linearGradient id="c" x1="64" x2="64" y1="21.8" y2="123.7" gradientUnits="userSpaceOnUse"><stop stop-color="#00BFA5" offset="0"/><stop stop-color="#00B29A" offset=".7"/><stop stop-color="#00AB94" offset="1"/></linearGradient><path d="M20.4 118v10h87.2v-10c0-15-21.4-20.6-43.3-20.6-21.7 0-43.9 4.6-43.9 20.7z" clip-path="url(#b)" fill="url(#c)" stroke="#009984" stroke-linecap="round" stroke-linejoin="round" stroke-miterlimit="10" stroke-width="3"/><g clip-path="url(#b)"><path d="M63.2 107.2c-4 0-7.3-3.2-7.3-7.1v-9h16.2v9c0 4-3.3 7.1-7.3 7.1h-1.6z" fill="#C48E6A"/><path d="M71 92v8c0 3.5-2.7 6.2-6.2 6.2h-1.6a6.2 6.2 0 0 1-6.3-6.1v-8h14.2m2-2H54.9v10c0 4.5 3.7 8.1 8.3 8.1h1.6c4.6 0 8.3-3.6 8.3-8.1V90z" fill="#B07853"/></g><g clip-path="url(#b)"><path d="M36.7 72.3c-5.4 0-9.7-4.7-9.7-10.4s4.3-10.5 9.7-10.5h54.6c5.4 0 9.7 4.7 9.7 10.5s-4.3 10.4-9.7 10.4H36.7z" fill="#C48E6A"/><path d="M91.3 52.4c4.8 0 8.7 4.3 8.7 9.4s-3.9 9.5-8.7 9.5H36.7c-4.8 0-8.7-4.3-8.7-9.5s3.9-9.4 8.7-9.4h54.6m0-2H36.7c-6 0-10.7 5.2-10.7 11.4 0 6.3 4.8 11.5 10.7 11.5h54.6c6 0 10.7-5.2 10.7-11.5 0-6.2-4.8-11.4-10.7-11.4z" fill="#B07853"/></g><g clip-path="url(#b)"><linearGradient id="d" x1="64" x2="64" y1="94.6" y2="12.8" gradientUnits="userSpaceOnUse"><stop stop-color="#CCA47A" offset="0"/><stop stop-color="#D6B088" offset=".3"/><stop stop-color="#DEB892" offset=".6"/><stop stop-color="#E0BB95" offset="1"/></linearGradient><path d="M64 95.3c-15.7 0-32.5-12.2-32.5-38.8 0-12.4 3.5-23.8 10-32.2 6-7.8 14.3-12.2 22.5-12.2s16.4 4.4 22.5 12.2c6.5 8.4 10 19.8 10 32.2a42 42 0 0 1-10.1 29.2A30.5 30.5 0 0 1 64 95.3z" fill="url(#d)"/><path d="M64 13c8 0 15.8 4.4 21.7 12a51.5 51.5 0 0 1 9.8 31.5c0 11.8-3.4 21.7-9.8 28.5a29.6 29.6 0 0 1-43.3 0 40.5 40.5 0 0 1-10-28.5 51.3 51.3 0 0 1 10-31.5A28.1 28.1 0 0 1 64 13m0-2c-17.4 0-33.5 18.7-33.5 45.5C30.5 83 47 96.3 64 96.3S97.5 83 97.5 56.5C97.5 29.7 81.4 11 64 11z" fill="#BA8F63"/></g><g clip-path="url(#b)"><path d="M40 50.7l.4-.5.2-.2.4-.4c.2 0 .2-.2.4-.4l.5-.3.5-.4.6-.3.7-.3c.3 0 .4-.2.7-.3l1.5-.3 1.6-.2a5 5 0 0 1 1.7.2l1.5.3a8.6 8.6 0 0 1 1.4.6l.6.3.5.4.5.3.4.4.3.3.3.3.4.5c.5.7.4 1.7-.3 2.2-.4.3-1 .4-1.4.2H53l-.5-.3h-.3l-.3-.2-.7-.2-.4-.2h-.4l-.2-.1H50l-.4-.2h-1l-1-.1h-1l-1 .1-.6.1h-.2l-.2.1-.4.1-.4.2h-.4l-.3.2h-.3l-.3.2-.5.3c-.9.3-1.8 0-2.1-.9-.3-.5-.2-1 0-1.5z" fill="#AB872F"/><ellipse cx="47.6" cy="58.8" rx="4.9" ry="5.1" fill="#5D4037"/><path d="M86 53.1l-.5-.2-.3-.2h-.3l-.3-.2h-.3l-.4-.2-.5-.1h-.2L83 52l-.5-.1-1-.1h-3l-.5.2h-.5l-.4.2-.4.1c-.3 0-.5.2-.7.3h-.3l-.3.2-.4.2h-.3c-.8.4-1.7 0-2-.9-.2-.5-.1-1 .2-1.4l.4-.6.3-.3.3-.3.4-.3.5-.4.5-.3.6-.4c.3 0 .5-.2.7-.3l.7-.2 1.6-.4 1.6-.1 1.6.1c.5 0 1 .2 1.6.4a8.6 8.6 0 0 1 1.3.5l.6.4.6.3.4.4.5.3c.2.1.2.3.3.4l.3.3.3.5c.5.7.3 1.7-.4 2.2-.5.3-1 .3-1.6.1z" fill="#AB872F"/><ellipse cx="80.4" cy="58.8" rx="4.9" ry="5.1" fill="#5D4037"/><path d="M67.9 68h-7.7c-.7.3-1 1-.7 1.7s1.7 2.7 4.5 2.7 4.3-2 4.6-2.7c.3-.7-.1-1.4-.7-1.6z" fill="#C48E6A"/><path d="M72.4 76.1a25.6 25.6 0 0 1-16.8 0c-1.8-1-3.7.6-3 2.3.8 1.6 6.5 5.4 11.4 5.4s10.6-3.8 11.3-5.4c.8-1.7-1-3.4-2.9-2.3z" fill="#6D4C41"/></g><g clip-path="url(#b)"><radialGradient id="e" cx="64.3" cy="4.3" r="48.9" gradientUnits="userSpaceOnUse"><stop stop-color="#BFA055" offset="0"/><stop stop-color="#AB872F" offset="1"/></radialGradient><path d="M64 4c-45.5.3-36.2 52.2-36.2 52.2L33 65a90 90 0 0 1 4.8-25.6 6 6 0 0 1 6.8-3.8c4.5.8 11.6 1.8 19.4 1.8h.1c8 0 15-1 19.4-1.8a6 6 0 0 1 6.8 3.8A90 90 0 0 1 95 65l5.1-8.8s9.3-52-36-52.2z" fill="url(#e)"/><path d="M64 4c-45.5.3-36.2 52.2-36.2 52.2L33 65l.3-5-2.5-4.8c-.2-1.6-.9-7-.5-13.6.4-7 2.1-17 8.2-24.2C44.1 10.6 52.7 7 64 7s20 3.6 25.6 10.4c10.8 13 8.2 34.3 7.7 37.8l-2.5 4.6c.2 2 .3 3.7.2 5.2l5.1-8.8s9.3-52-36-52.2z" fill="#8F7635"/></g><g clip-path="url(#b)"><defs><path id="f" d="M0 0h128v128H0z"/></defs><clipPath id="g"><use xlink:href="#f"/></clipPath><path clip-path="url(#g)" fill="none" d="M18.7 6.7h90.5v90.5H18.7z"/></g><g clip-path="url(#b)"><defs><path id="h" d="M0 0h128v128H0z"/></defs><clipPath id="i"><use xlink:href="#h"/></clipPath><path clip-path="url(#i)" fill="none" d="M17 5.3h94v94H17z"/></g><g clip-path="url(#b)"><linearGradient id="j" x1="33.1" x2="33.1" y1="21.8" y2="123.7" gradientUnits="userSpaceOnUse"><stop stop-color="#00BFA5" offset="0"/><stop stop-color="#00B29A" offset=".7"/><stop stop-color="#00AB94" offset="1"/></linearGradient><path d="M31.9 95c-7.2-9.6-7.1-19.3-7.1-19.3l-9.3-3.4 8.4 36.5h26.9l-8.9-8.8s-8.7-3.2-10-5z" fill="url(#j)"/><path d="M29.5 16.6c2.9-3.2 8-6.2 13.5-8.3 8.6-3.2 11.7-4 16.6-4 2.2 0 3.2.6 2.8 1.8-.4 1.4-1.5 2.6-4.5 2.7-4.4.4-7 2-11.2 4.3-2 1-3.5 5.7-5.6 7.2a22 22 0 0 0-8 14c-.3 2.3-10.8 1-11-3.7a31 31 0 0 1 7.4-14z" fill="#E0BB95"/><path d="M59.6 6.3h.3c-.4.3-1 .5-2 .5h-.1A25 25 0 0 0 46.3 11l-.6.4c-1.5.8-2.5 2.5-3.6 4.3-.7 1.2-1.5 2.5-2.1 3-.7.5-6.9 5-8.7 14.6l-1 .1c-2.7 0-6-1.3-6.1-2.8 0-1 2-7.2 6.8-12.6 2.5-2.8 7.3-5.7 12.8-7.8a40.3 40.3 0 0 1 15.8-3.9m0-2c-5 0-8 .8-16.6 4a36.4 36.4 0 0 0-13.5 8.3 29.5 29.5 0 0 0-7.3 14c0 3.2 4.8 4.8 8 4.8 1.6 0 2.9-.3 3-1.1 1.3-8.1 6-12.6 8-14 2-1.5 3.5-6.2 5.5-7.1 4.1-2.4 6.8-4 11.2-4.4 3-.1 4-1.3 4.5-2.7.4-1.2-.6-1.8-2.8-1.8z" fill="#BA8F63"/><defs><path id="k" d="M39.3 143.3l-.9-2.4c-13.1-3.4-24.7-.2-30.3-29.3l-3.3-37a16 16 0 0 1-.3-2v-.1a16 16 0 0 1 1.7-8.3L17.7 16c.4-1 8.8-.5 10 0l9.8 5.5c1.3.7 1.3 2 1 3l-11 40.7c-.8 2.5-1 5-.6 7.5v.2l7 20.4-6.2.7 11.6 49.3z"/></defs><clipPath id="l"><use xlink:href="#k"/></clipPath><g clip-path="url(#l)"><linearGradient id="m" x1="23.7" x2="23.7" y1="23.2" y2="121.9" gradientUnits="userSpaceOnUse"><stop stop-color="#00BFA5" offset="0"/><stop stop-color="#00B29A" offset=".7"/><stop stop-color="#00AB94" offset="1"/></linearGradient><path d="M39 139.5h-.2l-5.5-1.2c-9.6-2-15.4-3.1-20-27l-7-37-.4-1.8v-.1c-.1-2.5.4-5 1.6-7.6l16.6-42.9c.1-.2.4-.4.7-.4h.2l11.3 6c.2.1.5.3.3 1.2l-11.8 40c-.8 2.7-1.6 5.5 5.7 25.7l11 46-2.6-.9z" fill="url(#m)"/><path d="M25.2 23.4l9.9 5.2L23.4 68v.1c-.8 3-1.7 6 5.7 26.6L39.3 138h-.1c-2-.6-3.8-1-5.6-1.3-4.7-1-8.1-1.6-11-4.6-3.2-3.5-5.7-10.2-7.8-21.1L7.7 74l-.2-1.6v-.1c-.2-2.2.3-4.6 1.4-6.8v-.2l16.3-42m-.4-3.3c-.9 0-1.7.6-2 1.4L6.1 64.2a15 15 0 0 0-1.7 8.3v.1c0 .7.1 1.3.3 2l7 37c5.6 29 13.5 26 26.6 29.3l5.2 1.9L31.9 94c-7.2-20.2-6.3-22.7-5.6-25L38 29c.3-1 .2-2.2-1-2.9l-11.4-6a2 2 0 0 0-.8-.2z" fill="#009984"/></g><path d="M32.8 98.7c-2.2-1.8-3.4-4-3.8-4.8-.4-.8 0-1.8.7-2.3s1.3.1 1.8.8c0 0 1.4 2.4 3.2 4 3.3 2.8 15.2.3 15.2.3l4.5 1.7v1s-15.8 3.8-21.6-.8z" fill="#009E88"/></g><g clip-path="url(#b)"><linearGradient id="n" x1="95.3" x2="95.3" y1="21.8" y2="123.7" gradientUnits="userSpaceOnUse"><stop stop-color="#00BFA5" offset="0"/><stop stop-color="#00B29A" offset=".7"/><stop stop-color="#00AB94" offset="1"/></linearGradient><path d="M96.5 95c7.2-9.6 7.1-19.3 7.1-19.3l9.4-3.4-8.5 36.5H77.6l8.9-8.8s8.7-3.2 10-5z" fill="url(#n)"/><path d="M99 16.6c-3-3.2-8-6.2-13.6-8.3-8.6-3.2-11.7-4-16.5-4-2.3 0-3.3.6-2.9 1.8.4 1.4 1.6 2.6 4.5 2.7 4.5.4 7 2 11.2 4.3 2 1 3.5 5.7 5.6 7.2 2 1.4 6.6 5.9 8 14 .3 2.4 10.8 1 11-3.7a30 30 0 0 0-7.4-14z" fill="#E0BB95"/><path d="M68.8 6.3c4.7 0 7.6.8 15.9 3.9 5.4 2 10.2 5 12.7 7.8a28.7 28.7 0 0 1 6.8 12.6c0 1.5-3.3 2.8-6 2.8H97c-1.8-9.6-8-14.2-8.6-14.7a11 11 0 0 1-2.2-3c-1-1.8-2-3.5-3.6-4.3L82 11c-4-2.2-6.8-3.8-11.5-4.2-1 0-1.7-.2-2-.5h.2m0-2c-2.2 0-3.2.6-2.8 1.8.4 1.4 1.6 2.6 4.5 2.7 4.5.4 7 2 11.2 4.3 2 1 3.5 5.7 5.6 7.2 2 1.4 6.6 5.9 8 14 0 .7 1.3 1.1 2.9 1.1 3.2 0 8-1.6 8-4.8 0-1.3-2-8.2-7.3-14-2.9-3.2-8-6.2-13.5-8.3-8.6-3.2-11.7-4-16.5-4h-.1z" fill="#BA8F63"/><defs><path id="o" d="M89 143.3l1-2.4c13.1-3.4 24.8-.2 30.4-29.3l3.3-37 .3-2v-.1a16 16 0 0 0-1.8-8.3L110.8 16c-.5-1-9-.5-10 0l-9.9 5.5c-1.2.7-1.3 2-1 3L101 65.1c.7 2.5 1 5 .5 7.5v.2l-7 20.4 6.3.7L89 143.3z"/></defs><clipPath id="p"><use xlink:href="#o"/></clipPath><g clip-path="url(#p)"><linearGradient id="q" x1="104.7" x2="104.7" y1="23.2" y2="121.9" gradientUnits="userSpaceOnUse"><stop stop-color="#00BFA5" offset="0"/><stop stop-color="#00B29A" offset=".7"/><stop stop-color="#00AB94" offset="1"/></linearGradient><path d="M98 94.4c7.2-20.2 6.4-23 5.6-25.8L91.8 28.8c-.2-.9.2-1 .3-1.2l11.4-6h.1c.3 0 .6.2.7.4l16.5 42.8v.1a15 15 0 0 1 1.7 7.6c0 .7-.2 1.3-.3 1.8l-7.1 37.1c-4.6 23.9-10.4 25-20 27l-5.5 1.2h-.1l-2.5 1 11-46.1z" fill="url(#q)"/><path d="M103.2 23.4l16.2 41.9.1.2a14 14 0 0 1 1.5 6.8c0 .6-.2 1.2-.3 1.6l-7 37.1c-2.2 11-4.7 17.7-8 21.2-2.8 3-6.2 3.6-10.9 4.6l-5.6 1.2h-.1l10.3-43.2c7.4-20.5 6.5-23.6 5.6-26.6v-.1L93.4 28.6l9.8-5.2m.4-3.4a2 2 0 0 0-.8.2l-11.4 6c-1.2.7-1.3 2-1 3L102 68.8c.7 2.4 1.7 4.9-5.6 25l-11.6 48.9 5-1.9c13.2-3.4 21-.2 26.7-29.3l7-37a7 7 0 0 0 .3-2v-.1a16 16 0 0 0-1.7-8.3l-16.5-42.8a2.2 2.2 0 0 0-2-1.4z" fill="#009984"/></g><path d="M95.4 98.7c2.2-1.8 3.4-4 3.8-4.8.4-.8 0-1.8-.7-2.3s-1.3.1-1.8.8c0 0-1.4 2.4-3.2 4-3.4 2.8-15.4.3-15.4.3l-4.4 1.7v1s16 3.8 21.7-.8z" fill="#009E88"/></g></svg>