<svg xmlns="http://www.w3.org/2000/svg" viewBox="0 0 36 36"><path fill="#F2D1A1" d="M21 25.5a9 9 0 0 0 6-8.5v-.4c1 0 1.7-1.3 1.7-2.9 0-1.5-.7-2.8-1.7-2.8V7H9v3.9c-1 0-1.7 1.3-1.7 2.8 0 1.6.7 2.8 1.7 2.9v.4a9 9 0 0 0 6 8.5V27h6v-1.5z"/><path fill="#FFE51E" d="M18 .8C11 .8 7.9 5.5 7.9 9.4c0 4 1.3 5 1.5 4 .8-4 3.1-5.2 3.1-5.2 4.7 4 4 .8 4 .8 4.6 4.7 2.3 0 2.3 0 1.5 1.6 6.2 1.6 6.2 1.6l1.6 2.7c.8 1.6 1.5 0 1.5-3.9S24.2.8 18 .8z"/><path fill="#4289C1" d="M32 6.6L29 5l-2 1.6s3 7.3 3 11.2-4 9.2-4 9.2H10s-4-5.4-4-9.3 3-11 3-11L7 5 4 6.6s-4 7.2-4 11.2S5 36 5 36h26s5-14.3 5-18.3-4-11-4-11z"/><path fill="#F2D1A1" d="M18 31a3 3 0 0 0 3-3v-2h-6v2a3 3 0 0 0 3 3zm1.2-28.6c0-.5.6-.7 1.2-.7 0 0 5.4.3 7.5 1.3C30.5 4.2 32 6.6 32 6.6h-5s-1-1.5-2-2.1c-.8-.6-4.2-1.2-4.7-1.3s-1.1-.3-1-.8zm-2.4 0c0-.5-.6-.7-1.2-.7 0 0-5.4.3-7.5 1.3C5.5 4.2 4 6.6 4 6.6h5s1-1.5 2-2.1c.8-.6 4.2-1.2 4.7-1.3.5-.1 1.1-.3 1-.8z"/><path fill="#C1694F" d="M14 22h8s-1 2-4 2-4-2-4-2zm5-2.5h-2a.5.5 0 0 1 0-1h2a.5.5 0 0 1 0 1z"/><path fill="#662113" d="M14 16a1 1 0 0 1-1-1v-1a1 1 0 0 1 2 0v1c0 .6-.4 1-1 1zm8 0a1 1 0 0 1-1-1v-1a1 1 0 0 1 2 0v1c0 .6-.4 1-1 1z"/></svg>