<svg viewBox="0 0 128 128" xmlns="http://www.w3.org/2000/svg" xmlns:xlink="http://www.w3.org/1999/xlink"><linearGradient id="a" x1="64" x2="64" y1="19.7" y2="107.7" gradientUnits="userSpaceOnUse"><stop stop-color="#FEE133" offset=".3"/><stop stop-color="#FDDD32" offset=".5"/><stop stop-color="#FCD12F" offset=".6"/><stop stop-color="#F9BD2A" offset=".8"/><stop stop-color="#F6A323" offset=".9"/></linearGradient><path d="M64 119.9c-28 0-58-17.5-58-55.9S36 8.1 64 8.1c15.5 0 29.8 5.1 40.4 14.4A53.5 53.5 0 0 1 122 64c0 16.9-6.1 31.2-17.6 41.4A60.6 60.6 0 0 1 64 119.9z" fill="url(#a)"/><path d="M64 10.1c15 0 28.9 5 39 14A51.5 51.5 0 0 1 120 64c0 16.3-5.9 30-17 39.9-10.2 9-24 14-39 14s-28.9-5-39-13.8A51.5 51.5 0 0 1 8 64c0-16.5 5.9-30.4 17-40.2a58.9 58.9 0 0 1 39-13.7m0-4C32.9 6.1 4 26.1 4 64c0 37.7 28.9 57.9 60 57.9s60-20.7 60-57.9c0-37.4-28.9-57.9-60-57.9z" fill="#EB8F00"/><circle cx="37.5" cy="55.6" r="23.3" fill="#fff"/><defs><circle id="b" cx="37.5" cy="55.6" r="23.3"/></defs><clipPath id="c"><use xlink:href="#b"/></clipPath><circle cx="31.3" cy="40.5" r="9.1" clip-path="url(#c)" fill="#242424"/><path d="M37.5 36.3a19.3 19.3 0 1 1 0 38.6 19.3 19.3 0 0 1 0-38.7m0-4a23.3 23.3 0 1 0 0 46.7 23.3 23.3 0 0 0 0-46.7z" fill="#EB8F00"/><circle cx="91.2" cy="55.6" r="23.3" fill="#fff"/><defs><circle id="d" cx="91.2" cy="55.6" r="23.3"/></defs><clipPath id="e"><use xlink:href="#d"/></clipPath><circle cx="85" cy="40.5" r="9.1" clip-path="url(#e)" fill="#242424"/><path d="M91.2 36.3a19.3 19.3 0 1 1 0 38.6 19.3 19.3 0 0 1 0-38.7m0-4a23.3 23.3 0 1 0 0 46.7 23.3 23.3 0 0 0 0-46.7z" fill="#EB8F00"/><path d="M52.7 103.7c-.9.1-1.7-.1-2.3-.8-.7-.8-.8-2-.4-3.2 1-2.6 5.3-7.4 12.3-9s12.8 1 14.8 3c1 1 1.3 2.1 1 3.1-.2.8-.8 1.4-1.7 1.6h-.9a38.4 38.4 0 0 0-22 5c-.3 0-.6.2-.8.3z" fill="#242424"/></svg>