<svg enable-background="new 0 0 128 128" viewBox="0 0 128 128" xmlns="http://www.w3.org/2000/svg" xmlns:xlink="http://www.w3.org/1999/xlink"><defs><path id="a" d="M4 4h120v120H4z"/></defs><clipPath id="b"><use xlink:href="#a"/></clipPath><g clip-path="url(#b)"><radialGradient id="c" cx="57.7" cy="-112.8" r="57.9" gradientTransform="matrix(.826 0 0 .826 16.6 101.3)" gradientUnits="userSpaceOnUse"><stop stop-color="#BFA055" offset="0"/><stop stop-color="#AB872F" offset="1"/></radialGradient><path d="M47 135.6s-6.8-.3-10.2-5c-7.4-10.3-11.4-35.9-11.4-72a41 41 0 0 1 10.7-27 38.7 38.7 0 0 1 28.5-10.1c12 0 21.5 3.4 28 10 9.8 10 10 24.2 10 27 0 36.2-4 61.8-11.4 72-3.3 4.6-9.8 5.1-10.3 5.1H47z" fill="url(#c)"/><path d="M64.6 23c11.6 0 20.7 3.2 27 9.6a38.5 38.5 0 0 1 9.5 25.8v.1c0 36-4 61.2-11.1 71.2-2.9 4-8.6 4.4-9.1 4.4H47c-.6 0-6.2-.5-9-4.4-7.3-10-11.2-35.3-11.2-71.2 0-.6 0-15.6 10.2-25.7A37.3 37.3 0 0 1 64.6 23m0-3c-41 0-40.7 38-40.7 38.5 0 24.6 1.9 59.3 11.7 73C39.5 136.7 47 137 47 137h34s7.5-.3 11.4-5.7c9.8-13.6 11.7-48.3 11.7-72.9 0-.6 1.5-38.5-39.5-38.5z" fill="#8F7635"/></g><g clip-path="url(#b)"><linearGradient id="d" x1="64.2" x2="64.2" y1="77.2" y2="122.1" gradientUnits="userSpaceOnUse"><stop stop-color="#651FFF" offset="0"/><stop stop-color="#5914F2" offset=".7"/><stop stop-color="#530EEB" offset="1"/></linearGradient><path d="M24.5 122.5c-1.4-.4-10.4-2.9-13.8-7.7-1.3-2-4.4-11.3 5.8-21.9 13.7-14.1 44-15 47.5-15.1h.4c3.5 0 33.9 1 47.6 15.1 10.2 10.6 7 20 5.7 22-3.4 4.7-12.4 7.2-13.7 7.6H24.5z" fill="url(#d)"/><path d="M64.1 79.3h.4c3.3 0 33.1 1 46.4 14.7 9.4 9.7 6.7 18.3 5.6 20-2.6 3.7-9.7 6.2-12.7 7H24.7c-3-.8-10-3.3-12.7-7-1.2-1.7-3.8-10.3 5.6-20 13.3-13.7 43-14.7 46.4-14.7h.1m.4-3H64c-4.4 0-34.6 1.1-48.6 15.6-10.2 10.6-8 20.8-5.9 23.8 4 5.7 14.8 8.3 14.8 8.3h79.9s10.7-2.6 14.7-8.3c2.1-3 4.4-13.2-5.9-23.8-14-14.5-44.2-15.5-48.5-15.6z" fill="#4A00ED"/></g><path d="M84.3 95.2A70 70 0 0 0 64 92.9c-2.4 0-12.7-.2-20.3 2.3-15.2 4.9-17 11.1-17 11.1L50.4 124h27.2l23.7-17.7s-1.8-6.2-17-11.1z" clip-path="url(#b)" opacity=".2"/><path d="M54 73.9c0 2.7-1.8 5-4 5s-4.1-2.3-4.1-5c0-2.8 1.8-5 4-5s4.1 2.2 4.1 5m20.2 0c0 2.7 1.8 5 4.1 5s4.1-2.3 4.1-5c0-2.8-1.8-5-4-5-2.4 0-4.2 2.2-4.2 5" clip-path="url(#b)" fill="#444"/><path d="M68.4 85a15.9 15.9 0 0 1-8.6 0c-.6-.2-.8.4-.6.8a6.1 6.1 0 0 0 9.9 0c.2-.4 0-1-.7-.8z" clip-path="url(#b)" fill="#E59600"/><g clip-path="url(#b)"><path d="M63.2 104.2c-4 0-7.3-3.2-7.3-7.1v-9h16.2v9c0 4-3.3 7.1-7.3 7.1h-1.6z" fill="#C48E6A"/><path d="M71 89v8c0 3.5-2.7 6.2-6.2 6.2h-1.6a6.2 6.2 0 0 1-6.3-6.1v-8h14.2m2-2H54.9v10c0 4.5 3.7 8.1 8.3 8.1h1.6c4.6 0 8.3-3.6 8.3-8.1V87z" fill="#B07853"/></g><g clip-path="url(#b)" fill="none" stroke="#444" stroke-linecap="round" stroke-miterlimit="10" stroke-width="4"><path d="M52.6 16L49.9 5.9M37.7 23.4L30.3 16m60 7.4l7.4-7.4m-22.3 0l2.7-10.1"/></g><g clip-path="url(#b)"><linearGradient id="e" x1="31.7" x2="95.9" y1="65.5" y2="65.5" gradientUnits="userSpaceOnUse"><stop stop-color="#CCA47A" offset="0"/><stop stop-color="#D6B088" offset=".3"/><stop stop-color="#DEB892" offset=".6"/><stop stop-color="#E0BB95" offset="1"/></linearGradient><path d="M63.8 99a33.7 33.7 0 0 1-32.1-33.8C31.7 40.8 49 32 63.8 32S96 40.7 96 65.3a33.7 33.7 0 0 1-32.2 33.8z" fill="url(#e)"/><path d="M63.8 33C78.2 33 95 41.3 95 65.2A32.8 32.8 0 0 1 63.8 98a32.8 32.8 0 0 1-31.1-32.8C32.7 41.4 49.5 33 63.8 33m0-2c-17.2 0-33.1 11-33.1 34.4a34.9 34.9 0 0 0 33.1 34.8A34.9 34.9 0 0 0 97 65.3C97 42 81 31 64 31z" fill="#BA8F63"/><path d="M68 84h-7.7c-.6.3-1 1-.6 1.7s1.6 2.6 4.4 2.6 4.2-2 4.5-2.6c.3-.7 0-1.4-.6-1.7z" fill="#C48E6A"/><defs><path id="f" d="M27.9 80.8l-.7-26.4c0-17 16.2-31.2 35.5-31h5c18.2-.4 32.8 14 32.8 31l-.1 25.2-72.5 1.2z"/></defs><clipPath id="g"><use xlink:href="#f"/></clipPath><g clip-path="url(#g)"><radialGradient id="h" cx="68.9" cy="-102.5" r="48.2" gradientTransform="matrix(.796 0 0 .796 9.3 98.2)" gradientUnits="userSpaceOnUse"><stop stop-color="#BFA055" offset="0"/><stop stop-color="#AB872F" offset="1"/></radialGradient><path d="M102 59.6s1-35.5-37.8-35.5-38 35.5-38 35.5.3 45.5 3.2 51.4 7.2 5.7 7.2 5.7-3-26.5-3.2-39c0-3 0-13.7 6.1-15 22.4-5.1 35-17 35-17C77.8 53 88.1 60 91.8 62.6c3 2.2 3.3 11.2 3.3 15l-3.8 39s4.7.4 7.6-5.6 3-51.4 3-51.4z" fill="url(#h)"/></g><ellipse cx="47.8" cy="74.9" rx="4.9" ry="4" fill="#5D4037"/><ellipse cx="80.3" cy="74.9" rx="4.9" ry="4" fill="#5D4037"/><path d="M55 65.8c-1-1.2-3-3-7.3-3s-6.3 1.8-7.2 3c-.4.6-.3 1.2 0 1.6.3.3 1 .6 1.9.4s2.5-1.2 5.3-1.2c2.9 0 4.5.9 5.4 1.2s1.6 0 1.9-.4c.3-.4.4-1 0-1.6zm32.5 0c-1-1.2-3-3-7.2-3s-6.4 1.8-7.3 3c-.4.6-.3 1.2 0 1.6.3.3 1 .6 1.9.4s2.5-1.2 5.3-1.2c2.9 0 4.5.9 5.4 1.2s1.6 0 1.9-.4c.3-.4.4-1 0-1.6z" fill="#AB872F"/></g><path clip-path="url(#b)" fill="none" d="M4 12h120v120H4z"/><g clip-path="url(#b)"><path d="M36.9 113.4l5.4.4c1.2 0 2.4.1 3.5.5 3.6 1.1 11.6 3.9 15.9 5a2.4 2.4 0 0 1-.6 4.7H33.8l3.1-10.6z" fill="#E0BB95"/><path d="M38.4 115.5l3.7.3h.2c1 0 2 .1 3 .4l4.8 1.6c3.8 1.2 8.2 2.7 11.1 3.4.2 0 .3.2.3.4s-.2.4-.4.4H36.4l2-6.5m-1.5-2L33.8 124H61a2.4 2.4 0 0 0 .6-4.7c-4.3-1.1-12.3-4-15.9-5-1.1-.4-2.3-.5-3.5-.5l-5.4-.4z" fill="#BA8F63"/><path d="M91.1 113.4l-5.3.4c-1.3 0-2.5.1-3.6.5-3.6 1.1-11.6 3.9-15.9 5a2.4 2.4 0 0 0 .6 4.7h27.4L91 113.4z" fill="#E0BB95"/><path d="M89.7 115.5l1.9 6.5H66.9a.4.4 0 0 1-.4-.4c0-.2.1-.4.3-.4 3-.7 7.3-2.2 11.1-3.4l4.8-1.6c1-.3 2-.4 3-.4h.2l3.8-.3m1.4-2l-5.4.3c-1.2 0-2.4.1-3.5.5-3.6 1.1-11.6 3.9-15.9 5a2.4 2.4 0 0 0 .6 4.7h27.4L91 113.4z" fill="#BA8F63"/></g><g clip-path="url(#b)"><linearGradient id="i" x1="31.8" x2="31.8" y1="75.7" y2="123.6" gradientUnits="userSpaceOnUse"><stop stop-color="#651FFF" offset="0"/><stop stop-color="#5914F2" offset=".7"/><stop stop-color="#530EEB" offset="1"/></linearGradient><path d="M23.9 100l15 10c.7.5 1 1.5.6 2.4L34.3 124h-10l-.4-24z" fill="url(#i)"/><defs><filter id="j" x="23.9" y="100" width="15.8" height="24" filterUnits="userSpaceOnUse"><feColorMatrix color-interpolation-filters="sRGB" result="source" values="-1 0 0 0 1 0 -1 0 0 1 0 0 -1 0 1 0 0 0 1 0"/></filter></defs><mask id="k" x="23.9" y="100" width="15.8" height="24" maskUnits="userSpaceOnUse"><path d="M23.9 100l15 10c.7.5 1 1.5.6 2.4L34.3 124h-10l-.3-3.3 4 .2 8.2-9-12-8-.3-3.9z" fill="#D50000" filter="url(#j)"/></mask><g mask="url(#k)"><linearGradient id="l" x1="25.4" x2="38.2" y1="112.7" y2="112.7" gradientUnits="userSpaceOnUse"><stop stop-color="#651FFF" offset="0"/><stop stop-color="#5914F2" offset=".7"/><stop stop-color="#530EEB" offset="1"/></linearGradient><path d="M25.8 122.5l-.4-19.7 12.6 8.4c.2.2.2.4.1.6l-4.8 10.7h-7.5z" fill="url(#l)"/><path d="M27 105.7l9.4 6.3-4 9h-5.2l-.2-15.3m-3.1-5.7l.4 24h10l5.2-11.6a2 2 0 0 0-.7-2.4l-15-10z" fill="#4A00ED"/></g></g><g clip-path="url(#b)"><linearGradient id="m" x1="95.8" x2="95.8" y1="75.7" y2="123.6" gradientUnits="userSpaceOnUse"><stop stop-color="#651FFF" offset="0"/><stop stop-color="#5914F2" offset=".7"/><stop stop-color="#530EEB" offset="1"/></linearGradient><path d="M103.7 100l-14.9 10a2 2 0 0 0-.7 2.4l5.2 11.6h10l.4-24z" fill="url(#m)"/><defs><filter id="n" x="88" y="100" width="15.8" height="24" filterUnits="userSpaceOnUse"><feColorMatrix color-interpolation-filters="sRGB" result="source" values="-1 0 0 0 1 0 -1 0 0 1 0 0 -1 0 1 0 0 0 1 0"/></filter></defs><mask id="o" x="88" y="100" width="15.8" height="24" maskUnits="userSpaceOnUse"><path d="M103.7 100l-14.9 10a2 2 0 0 0-.7 2.4l5.2 11.6h10l.3-3.3-4 .2-8.2-9 12.1-8 .2-3.9z" fill="#D50000" filter="url(#n)"/></mask><g mask="url(#o)"><linearGradient id="p" x1="89.4" x2="102.2" y1="112.7" y2="112.7" gradientUnits="userSpaceOnUse"><stop stop-color="#651FFF" offset="0"/><stop stop-color="#5914F2" offset=".7"/><stop stop-color="#530EEB" offset="1"/></linearGradient><path d="M94.3 122.5l-4.8-10.7.1-.6 12.6-8.4-.3 19.7h-7.6z" fill="url(#p)"/><path d="M100.7 105.7l-.3 15.3h-5.1l-4-9 9.4-6.3m3-5.7zm0 0l-14.9 10a2 2 0 0 0-.7 2.4l5.2 11.6h10l.4-24z" fill="#4A00ED"/></g></g></svg>