<svg xmlns="http://www.w3.org/2000/svg" viewBox="0 0 36 36"><path fill="#0B0200" d="M19 0a11 11 0 0 0-4.8 1.1A7 7 0 0 0 6 8v12a12 12 0 0 0 24 0v-9c0-6-5-11-11-11z"/><path fill="#7C533E" d="M9 5v12a9 9 0 1 0 18 0V5H9z"/><path fill="#0B0200" d="M27 5V4H8v7c6 0 6-6 6-6s2 7 14 7V5h-1z"/><path fill="#7C533E" d="M12.4 3c-.6-.5-1.4-.3-1.8.3l-.6 1V2a2 2 0 0 0-2-2H4a2 2 0 0 0-2 2v8s0 1 1 1h6l1-1V9l2.8-4.3c.4-.6.2-1.4-.4-1.8z"/><path fill="#543226" d="M4 0h1v5H4zm3 0h1v5H7z"/><path fill="#9268CA" d="M27 27H9l1-17H2v17s0 9 8 9h21v-5a4 4 0 0 0-4-4z"/><path fill="#3D2E24" d="M19 19.5h-2a.5.5 0 0 1 0-1h2a.5.5 0 0 1 0 1z"/><path d="M14 16a1 1 0 0 1-1-1v-1a1 1 0 0 1 2 0v1c0 .6-.4 1-1 1zm8 0a1 1 0 0 1-1-1v-1a1 1 0 1 1 2 0v1c0 .6-.4 1-1 1z"/><path fill="#7C533E" d="M15 22v6a3 3 0 1 0 6 0v-6h-6z"/><path fill="#DF1F32" d="M22 22h-8s1 2 4 2 4-2 4-2z"/><path fill="#7450A8" d="M26 32h1v4h-1z"/></svg>