<svg viewBox="0 0 128 128" xmlns="http://www.w3.org/2000/svg" xmlns:xlink="http://www.w3.org/1999/xlink"><defs><path id="a" d="M4 4h120v120H4z"/></defs><clipPath id="b"><use xlink:href="#a"/></clipPath><g clip-path="url(#b)"><radialGradient id="c" cx="56.7" cy="-65" r="58.3" gradientTransform="matrix(.826 0 0 .826 17.4 46)" gradientUnits="userSpaceOnUse"><stop stop-color="#6D4C41" offset="0"/><stop stop-color="#523329" offset="1"/></radialGradient><path d="M47 119.8c-4.6-.1-17.4-1.2-20.2-5.1-6.4-9-4.7-28.4-3-47.1.8-8.5 1.6-17.3 1.6-25 0-1.6.3-16.4 10.7-26.8A38.7 38.7 0 0 1 64.5 5.6c12 0 21.5 3.4 28 10 9.8 10 10 24.2 10 27 0 7.7.8 16.5 1.6 25 1.7 18.7 3.4 38.1-3 47-2.8 4-15.6 5-20.2 5.2H47z" fill="url(#c)"/><path d="M64.6 7.1c11.6 0 20.7 3.3 27 9.6a38.5 38.5 0 0 1 9.5 25.8v.1c0 7.8.8 16.6 1.6 25.1 1.7 18.5 3.4 37.6-2.7 46-1.9 2.7-11.3 4.4-19 4.5H47c-7.6-.1-17.1-1.8-19-4.4-6-8.5-4.3-27.6-2.7-46A289 289 0 0 0 27 42.5c0-.6 0-15.6 10.2-25.7A37.3 37.3 0 0 1 64.6 7m0-3c-41 0-40.7 38-40.7 38.5 0 24.6-8.1 59.3 1.7 73 3.9 5.3 21.4 5.6 21.4 5.6h34s17.5-.2 21.4-5.7c9.8-13.6 1.7-48.3 1.7-72.9 0-.6 1.5-38.5-39.5-38.5z" fill="#402821"/></g><linearGradient id="d" x1="64" x2="64" y1="25.9" y2="123.8" gradientUnits="userSpaceOnUse"><stop stop-color="#651FFF" offset="0"/><stop stop-color="#5914F2" offset=".7"/><stop stop-color="#530EEB" offset="1"/></linearGradient><path d="M20.4 118v10h87.2v-10c0-15-21.4-20.6-43.3-20.6-21.7 0-43.9 4.6-43.9 20.7z" clip-path="url(#b)" fill="url(#d)" stroke="#4A00ED" stroke-linecap="round" stroke-linejoin="round" stroke-miterlimit="10" stroke-width="3"/><g clip-path="url(#b)"><path d="M63.2 107.2c-4 0-7.3-3.2-7.3-7.1v-9h16.2v9c0 4-3.3 7.1-7.3 7.1h-1.6z" fill="#99674F"/><path d="M71 92v8c0 3.5-2.7 6.2-6.2 6.2h-1.6a6.2 6.2 0 0 1-6.3-6.1v-8h14.2m2-2H54.9v10c0 4.5 3.7 8.1 8.3 8.1h1.6c4.6 0 8.3-3.6 8.3-8.1V90z" fill="#875740"/></g><g clip-path="url(#b)"><linearGradient id="e" x1="31.9" x2="96.1" y1="56.2" y2="56.2" gradientUnits="userSpaceOnUse"><stop stop-color="#A47B62" offset="0"/><stop stop-color="#AD8264" offset=".2"/><stop stop-color="#B78A67" offset=".6"/><stop stop-color="#BA8D68" offset="1"/></linearGradient><path d="M64 95.3c-2.3 0-5-.5-7.6-1.5A38.7 38.7 0 0 1 32 56c-.1-28.8 17.2-39 32-39s32.1 10.2 32.1 39a38.6 38.6 0 0 1-24.6 37.8 23 23 0 0 1-7.5 1.5z" fill="url(#e)"/><path d="M64 18a29 29 0 0 1 21.6 9.2A41.3 41.3 0 0 1 95 56c0 21-12.9 33-24 37-2.4.8-5 1.3-7.1 1.3-2.2 0-4.7-.5-7.2-1.4-11-3.9-24-16-24-37 0-12 3.4-22 9.7-28.7A29 29 0 0 1 64 18m0-2c-17.2 0-33.1 12.8-33.1 40A39.8 39.8 0 0 0 56 94.7a24 24 0 0 0 7.9 1.5c2.4 0 5-.5 7.8-1.5A39.8 39.8 0 0 0 97.1 56c0-27.2-15.9-40-33.1-40z" fill="#91674D"/></g><g clip-path="url(#b)"><defs><path id="f" d="M30.4 88.8L29 37.4c0-17 15.8-29.8 32.7-29.8h5c17 0 32.5 12.9 32.5 29.8l-1.5 51.2-67.2.3z"/></defs><clipPath id="g"><use xlink:href="#f"/></clipPath><g clip-path="url(#g)"><radialGradient id="h" cx="67.5" cy="-56.1" r="48.2" gradientTransform="matrix(.796 0 0 .796 10.3 44.3)" gradientUnits="userSpaceOnUse"><stop stop-color="#6D4C41" offset="0"/><stop stop-color="#523329" offset="1"/></radialGradient><path d="M101.9 42.6s1-35.5-37.8-35.5-38 35.5-38 35.5.3 45.5 3.2 51.4 7.2 5.7 7.2 5.7-2-26.5-2.3-39c0-3-.9-13.7 5.2-15 22.4-5.1 35-17 35-17C77.7 36 88 43 91.7 45.6c3 2.2 2.6 11.2 2.5 15l-3 39s4.7.4 7.6-5.6c3-6 3-51.4 3-51.4z" fill="url(#h)"/></g></g><g clip-path="url(#b)"><path d="M67.8 68h-7.6c-.6.3-1 1-.7 1.7s1.7 2.6 4.5 2.6 4.2-2 4.5-2.6c.3-.7 0-1.4-.7-1.7z" fill="#99674F"/><ellipse cx="47.8" cy="58.9" rx="4.9" ry="5" fill="#49362E"/><ellipse cx="80.3" cy="58.9" rx="4.9" ry="5" fill="#49362E"/><path d="M55 49.8c-1-1.2-3-3-7.3-3s-6.3 1.8-7.2 3c-.4.6-.3 1.2 0 1.6.3.3 1 .6 1.9.4s2.5-1.2 5.3-1.2c2.9 0 4.5.9 5.4 1.2s1.6 0 1.9-.4c.3-.4.4-1 0-1.6zm32.5 0c-1-1.2-3-3-7.2-3s-6.4 1.8-7.3 3c-.4.6-.3 1.2 0 1.6.3.3 1 .6 1.9.4s2.5-1.2 5.3-1.2c2.9 0 4.5.9 5.4 1.2s1.6 0 1.9-.4c.3-.4.4-1 0-1.6z" fill="#613E31"/><path d="M72.3 76.1a25.3 25.3 0 0 1-16.6 0c-1.8-1-3.6.6-2.9 2.3.7 1.6 6.4 5.3 11.2 5.3s10.5-3.7 11.2-5.4c.7-1.6-1-3.2-2.9-2.2z" fill="#795548"/></g><g clip-path="url(#b)"><defs><path id="i" d="M4 4h120v120H4z"/></defs><clipPath id="j"><use xlink:href="#i"/></clipPath><path clip-path="url(#j)" fill="none" d="M19.9 8.9h88.2v88.2H19.9z"/></g><g clip-path="url(#b)"><path d="M29.5 16.6c2.9-3.2 8-6.2 13.5-8.3 8.6-3.2 11.7-4 16.6-4 2.2 0 3.2.6 2.8 1.8-.4 1.4-1.5 2.6-4.5 2.7-4.4.4-7 2-11.2 4.3-2 1-3.5 5.7-5.6 7.2a22 22 0 0 0-8 14c-.3 2.3-10.8 1-11-3.7a31 31 0 0 1 7.4-14z" fill="#BA8D68"/><path d="M59.6 6.3h.3c-.4.3-1 .5-2 .5h-.1A25 25 0 0 0 46.3 11l-.6.4c-1.5.8-2.5 2.5-3.6 4.3-.7 1.2-1.5 2.5-2.1 3-.7.5-6.9 5-8.7 14.6l-1 .1c-2.7 0-6-1.3-6.1-2.8 0-1 2-7.2 6.8-12.6 2.5-2.8 7.3-5.7 12.8-7.8a40.3 40.3 0 0 1 15.8-3.9m0-2c-5 0-8 .8-16.6 4a36.4 36.4 0 0 0-13.5 8.3 29.5 29.5 0 0 0-7.3 14c0 3.2 4.8 4.8 8 4.8 1.6 0 2.9-.3 3-1.1 1.3-8.1 6-12.6 8-14 2-1.5 3.5-6.2 5.5-7.1 4.1-2.4 6.8-4 11.2-4.4 3-.1 4-1.3 4.5-2.7.4-1.2-.6-1.8-2.8-1.8z" fill="#91674D"/></g><g clip-path="url(#b)"><path d="M99 16.6c-3-3.2-8-6.2-13.6-8.3-8.6-3.2-11.7-4-16.5-4-2.3 0-3.3.6-2.9 1.8.4 1.4 1.6 2.6 4.5 2.7 4.5.4 7 2 11.2 4.3 2 1 3.5 5.7 5.6 7.2 2 1.4 6.6 5.9 8 14 .3 2.4 10.8 1 11-3.7a30 30 0 0 0-7.4-14z" fill="#BA8D68"/><path d="M68.8 6.3c4.7 0 7.6.8 15.9 3.9 5.4 2 10.2 5 12.7 7.8a28.7 28.7 0 0 1 6.8 12.6c0 1.5-3.3 2.8-6 2.8H97c-1.8-9.6-8-14.2-8.6-14.7a11 11 0 0 1-2.2-3c-1-1.8-2-3.5-3.6-4.3L82 11c-4-2.2-6.8-3.8-11.5-4.2-1 0-1.7-.2-2-.5h.2m0-2c-2.2 0-3.2.6-2.8 1.8.4 1.4 1.6 2.6 4.5 2.7 4.5.4 7 2 11.2 4.3 2 1 3.5 5.7 5.6 7.2 2 1.4 6.6 5.9 8 14 0 .7 1.3 1.1 2.9 1.1 3.2 0 8-1.6 8-4.8 0-1.3-2-8.2-7.3-14-2.9-3.2-8-6.2-13.5-8.3-8.6-3.2-11.7-4-16.5-4h-.1z" fill="#91674D"/></g><g clip-path="url(#b)"><linearGradient id="k" x1="33.1" x2="33.1" y1="25.9" y2="123.8" gradientUnits="userSpaceOnUse"><stop stop-color="#651FFF" offset="0"/><stop stop-color="#5914F2" offset=".7"/><stop stop-color="#530EEB" offset="1"/></linearGradient><path d="M31.9 95c-7.2-9.6-7.1-19.3-7.1-19.3l-9.3-3.4 8.4 36.5h26.9l-8.9-8.8s-8.7-3.2-10-5z" fill="url(#k)"/><defs><path id="l" d="M39.3 143.3l-.9-2.4c-13.1-3.4-24.7-.2-30.3-29.3l-3.3-37a16 16 0 0 1-.3-2v-.1a16 16 0 0 1 1.7-8.3L17.7 16c.4-1 8.8-.5 10 0l9.8 5.5c1.3.7 1.3 2 1 3l-11 40.7c-.8 2.5-1 5-.6 7.5v.2l7 20.4-6.2.7 11.6 49.3z"/></defs><clipPath id="m"><use xlink:href="#l"/></clipPath><g clip-path="url(#m)"><linearGradient id="n" x1="23.7" x2="23.7" y1="27.2" y2="122" gradientUnits="userSpaceOnUse"><stop stop-color="#651FFF" offset="0"/><stop stop-color="#5914F2" offset=".7"/><stop stop-color="#530EEB" offset="1"/></linearGradient><path d="M39 139.5h-.2l-5.5-1.2c-9.6-2-15.4-3.1-20-27l-7-37-.4-1.8v-.1c-.1-2.5.4-5 1.6-7.6l16.6-42.9c.1-.1.4-.4.7-.4h.2l11.3 6c.2.1.5.3.3 1.2l-11.8 40c-.8 2.7-1.6 5.5 5.7 25.7l11 46-2.6-.9z" fill="url(#n)"/><path d="M25.2 23.4l9.9 5.2L23.4 68v.1c-.8 3-1.7 6 5.7 26.6L39.3 138h-.1c-2-.6-3.8-1-5.6-1.3-4.7-1-8.1-1.6-11-4.6-3.2-3.5-5.7-10.2-7.8-21.1L7.7 74l-.2-1.6v-.1c-.2-2.2.3-4.6 1.4-6.8v-.2l16.3-42m-.4-3.3c-.9 0-1.7.6-2 1.4L6.1 64.2a15 15 0 0 0-1.7 8.3v.1c0 .7.1 1.3.3 2l7 37c5.6 29 13.5 26 26.6 29.3l5.2 1.9L31.9 94c-7.2-20.2-6.3-22.7-5.6-25L38 29c.3-1 .2-2.2-1-2.9l-11.4-6a2 2 0 0 0-.8-.2z" fill="#4A00ED"/></g><path d="M32.8 98.7c-2.3-1.7-3.4-4-3.8-4.8-.4-.8 0-1.8.7-2.3s1.3.1 1.8.8c0 0 1.4 2.4 3.2 4 3.3 2.8 15 .3 15 .3l4.6 1.7v1.2s-15.4 3.5-21.5-1z" fill="#4A00ED"/></g><g clip-path="url(#b)"><linearGradient id="o" x1="95.3" x2="95.3" y1="25.9" y2="123.8" gradientUnits="userSpaceOnUse"><stop stop-color="#651FFF" offset="0"/><stop stop-color="#5914F2" offset=".7"/><stop stop-color="#530EEB" offset="1"/></linearGradient><path d="M96.5 95c7.2-9.6 7.1-19.3 7.1-19.3l9.4-3.4-8.5 36.5H77.6l8.9-8.8s8.7-3.2 10-5z" fill="url(#o)"/><defs><path id="p" d="M89 143.3l1-2.4c13.1-3.4 24.8-.2 30.4-29.3l3.3-37 .3-2v-.1a16 16 0 0 0-1.8-8.3L110.8 16c-.5-1-9-.5-10 0l-9.9 5.5c-1.2.7-1.3 2-1 3L101 65.1c.7 2.5 1 5 .5 7.5v.2l-7 20.4 6.3.7L89 143.3z"/></defs><clipPath id="q"><use xlink:href="#p"/></clipPath><g clip-path="url(#q)"><linearGradient id="r" x1="104.7" x2="104.7" y1="27.2" y2="122" gradientUnits="userSpaceOnUse"><stop stop-color="#651FFF" offset="0"/><stop stop-color="#5914F2" offset=".7"/><stop stop-color="#530EEB" offset="1"/></linearGradient><path d="M98 94.4c7.2-20.2 6.4-23 5.6-25.8L91.8 28.8c-.2-.9.2-1 .3-1.2l11.4-6h.1c.3 0 .6.2.7.4l16.5 42.8v.1a15 15 0 0 1 1.7 7.6c0 .7-.2 1.3-.3 1.8l-7.1 37.1c-4.6 23.9-10.4 25-20 27l-5.5 1.2h-.1l-2.5 1 11-46.1z" fill="url(#r)"/><path d="M103.2 23.4l16.2 41.9.1.2a14 14 0 0 1 1.5 6.8c0 .6-.2 1.2-.3 1.6l-7 37.1c-2.2 11-4.7 17.7-8 21.2-2.8 3-6.2 3.6-10.9 4.6l-5.6 1.2h-.1l10.3-43.2c7.4-20.5 6.5-23.6 5.6-26.6v-.1L93.4 28.6l9.8-5.2m.4-3.4a2 2 0 0 0-.8.2l-11.4 6c-1.2.7-1.3 2-1 3L102 68.8c.7 2.4 1.7 4.9-5.6 25l-11.6 48.9 5-1.9c13.2-3.4 21-.2 26.7-29.3l7-37a7 7 0 0 0 .3-2v-.1a16 16 0 0 0-1.7-8.3l-16.5-42.8a2.2 2.2 0 0 0-2-1.4z" fill="#4A00ED"/></g><path d="M95.4 98.7c2.3-1.7 3.4-4 3.8-4.8.4-.8 0-1.8-.7-2.3s-1.3.1-1.8.8c0 0-1.4 2.4-3.2 4-3.4 2.8-15 .3-15 .3l-4.7 1.7v1.2s15.5 3.5 21.6-1z" fill="#4A00ED"/></g></svg>