<svg viewBox="0 0 128 128" xmlns="http://www.w3.org/2000/svg"><path d="M21.77 55.7c-2.21 0-4.1-.54-5.63-1.6C3.44 45.27 5.63 16.18 5.65 15.89c.32-4 3.38-7.02 7.12-7.02.23 0 .47.01.7.04 11.3 1.15 26 5.56 33.36 14.49 3.78 4.59 2.47 10.03.7 13.78-4.56 9.69-16.84 18.52-25.76 18.52z" fill="#FED133"/><path d="M12.77 10.38c.18 0 .37.01.55.03 11 1.12 25.28 5.37 32.36 13.95 1.81 2.2 3.37 6.1.5 12.19C41.9 45.62 30.04 54.2 21.77 54.2c-1.9 0-3.5-.45-4.78-1.34-9.96-6.91-10.48-28.94-9.84-36.85.25-3.21 2.67-5.63 5.62-5.63m0-3c-4.51 0-8.23 3.66-8.62 8.39-.54 6.73-.7 31.33 11.13 39.55 1.86 1.29 4.08 1.87 6.49 1.87 14.82 0 36.81-21.92 26.23-34.75-8.05-9.76-23.6-13.93-34.37-15.03-.29-.02-.58-.03-.86-.03z" fill="#EB8F00"/><path d="M5.81 22.04c.05-1.31.2-2.74 1.09-3.67 1.18-1.24 3.13-1.11 4.78-.76 4.49.95 8.77 2.96 12.42 5.83 1.82 1.43 3.55 3.2 4.09 5.48.82 3.51-1.38 6.93-3.47 9.83-1.46 2.02-2.93 4.06-4.79 5.69-1.55 1.37-4.52 4.98-6.59 5.22-2.08.25-2.15-1.33-3-3-2.22-4.38-3.38-11.72-4.09-16.6-.39-2.65-.54-5.34-.44-8.02z" fill="#EB8F00"/><path d="M106.23 55.7c-8.92 0-21.2-8.83-25.77-18.52-1.77-3.75-3.08-9.19.7-13.78 7.37-8.93 22.06-13.34 33.36-14.49.24-.02.47-.04.7-.04 3.74 0 6.8 3.02 7.12 7.02.02.29 2.22 29.38-10.48 38.2-1.53 1.07-3.42 1.61-5.63 1.61z" fill="#FED133"/><path d="M115.23 10.38c2.95 0 5.37 2.42 5.63 5.64.64 7.9.11 29.93-9.85 36.85-1.28.89-2.88 1.34-4.78 1.34-8.27 0-20.13-8.58-24.41-17.65-2.87-6.09-1.31-9.99.5-12.19 7.08-8.58 21.36-12.83 32.36-13.95.18-.04.37-.04.55-.04m0-3c-.28 0-.57.01-.85.04C103.61 8.51 88.05 12.68 80 22.44 69.42 35.28 91.41 57.2 106.23 57.2c2.41 0 4.63-.58 6.49-1.87 11.83-8.22 11.67-32.83 11.12-39.55-.38-4.75-4.1-8.4-8.61-8.4z" fill="#EB8F00"/><path d="M122.19 22.04c-.05-1.31-.2-2.74-1.09-3.67-1.18-1.24-3.13-1.11-4.78-.76-4.49.95-8.77 2.96-12.42 5.83-1.82 1.43-3.55 3.2-4.09 5.48-.82 3.51 1.38 6.93 3.47 9.83 1.46 2.02 2.93 4.06 4.79 5.69 1.55 1.37 4.52 4.98 6.59 5.22 2.08.25 2.15-2.66 3-4.33 2.22-4.38 3.38-10.38 4.09-15.27.39-2.65.54-5.34.44-8.02z" fill="#EB8F00"/><linearGradient id="a" x1="64" x2="64" y1="25.031" y2="107.67" gradientUnits="userSpaceOnUse"><stop stop-color="#FED133" offset=".509"/><stop stop-color="#FDCE32" offset=".634"/><stop stop-color="#FCC32E" offset=".741"/><stop stop-color="#F9B128" offset=".84"/><stop stop-color="#F6A323" offset=".9"/></linearGradient><path d="M64 119.12c-25.77 0-53.5-16.43-53.5-52.5s27.73-52.5 53.5-52.5c14.27 0 27.48 4.81 37.21 13.54 10.66 9.57 16.29 23.04 16.29 38.96 0 15.84-5.63 29.29-16.29 38.89-9.76 8.78-22.97 13.61-37.21 13.61z" fill="url(#a)"/><path d="M64 15.62c13.9 0 26.75 4.67 36.2 13.16 10.33 9.28 15.8 22.37 15.8 37.84 0 15.4-5.46 28.46-15.8 37.77-9.47 8.53-22.33 13.23-36.2 13.23-25.04 0-52-15.96-52-51 0-15.65 5.46-28.8 15.79-38.01C37.18 20.24 50.04 15.63 64 15.62m0-3c-28.56 0-55 18.66-55 54 0 35.15 26.44 54 55 54 28.55 0 55-19.33 55-54 0-34.85-26.44-53.99-55-54z" fill="#EB8F00"/><linearGradient id="b" x1="101" x2="101" y1="62.424" y2="123.54" gradientUnits="userSpaceOnUse"><stop stop-color="#fd0" offset=".006"/><stop stop-color="#FFD704" offset=".205"/><stop stop-color="#FFC611" offset=".471"/><stop stop-color="#FFAA25" offset=".773"/><stop stop-color="#FF9138" offset=".999"/></linearGradient><path d="M114.02 93.46c-6.33 8.67-10.15 8.11-10.45 15.3-.22 5.3-1.39 12.74-1.39 12.74h-21.5s-.49-8.76-.56-10.98c-.23-8.18.61-17.51 7.39-23.68 13-11.83 17.17-4.23 27.5-18.69 2.5-3.5 6.92-6.38 6.88 1.3-.02 6.01-.79 14.32-7.87 24.01z" fill="url(#b)" stroke="#EB8F00" stroke-linecap="round" stroke-linejoin="round" stroke-miterlimit="10" stroke-width="3"/><linearGradient id="c" x1="27" x2="27" y1="62.424" y2="123.54" gradientUnits="userSpaceOnUse"><stop stop-color="#fd0" offset=".006"/><stop stop-color="#FFD704" offset=".205"/><stop stop-color="#FFC611" offset=".471"/><stop stop-color="#FFAA25" offset=".773"/><stop stop-color="#FF9138" offset=".999"/></linearGradient><path d="M13.98 93.46c6.33 8.67 10.15 8.11 10.45 15.3.22 5.3 1.39 12.74 1.39 12.74h21.5s.49-8.76.56-10.98c.23-8.18-.61-17.51-7.39-23.68-13-11.83-17.17-4.23-27.5-18.69-2.5-3.5-6.92-6.38-6.88 1.3.02 6.01.79 14.32 7.87 24.01z" fill="url(#c)" stroke="#EB8F00" stroke-linecap="round" stroke-linejoin="round" stroke-miterlimit="10" stroke-width="3"/><g fill="none" stroke="#404040" stroke-linecap="round" stroke-linejoin="round" stroke-miterlimit="10" stroke-width="4"><path d="M8.65 105.57l19.9-10.41M27.15 88.01l-21.1 2.94M6.05 75.68l21.27 5.24"/></g><g fill="none" stroke="#404040" stroke-linecap="round" stroke-linejoin="round" stroke-miterlimit="10" stroke-width="4"><path d="M119.35 105.57l-19.9-10.41M100.85 88.01l21.1 2.94M121.95 75.68l-21.27 5.24"/></g><path fill="#646464" d="M63.95 75.91v21"/><path fill="none" stroke="#404040" stroke-linecap="round" stroke-linejoin="round" stroke-miterlimit="10" stroke-width="5" d="M64 69.8v12.45"/><path d="M35.46 73.67c-1.94 0-3.86-.56-5.54-1.62-5.31-3.36-8.14-11.59-3.27-20.82 2.96-5.62 7.42-8.84 12.24-8.84 1.94 0 3.86.56 5.54 1.62 5.31 3.36 8.14 11.59 3.27 20.82-2.96 5.62-7.42 8.84-12.24 8.84z" fill="#fff"/><path d="M38.89 43.88c1.66 0 3.3.48 4.73 1.39 4.73 2.99 7.19 10.43 2.75 18.85-2.69 5.11-6.67 8.04-10.92 8.04-1.66 0-3.3-.48-4.73-1.39-4.73-2.99-7.19-10.43-2.75-18.85 2.7-5.11 6.68-8.04 10.92-8.04m0-3c-4.92 0-10.11 3.08-13.57 9.64-5.02 9.54-2.41 18.86 3.8 22.79 1.93 1.22 4.11 1.85 6.34 1.85 4.92 0 10.11-3.08 13.57-9.64 5.02-9.54 2.41-18.86-3.8-22.79a11.818 11.818 0 0 0-6.34-1.85z" fill="#DB7A00"/><path d="M92.54 73.67c-4.82 0-9.28-3.22-12.25-8.84-4.86-9.23-2.04-17.46 3.27-20.82 1.68-1.06 3.59-1.62 5.54-1.62 4.82 0 9.28 3.22 12.24 8.84 4.86 9.23 2.04 17.46-3.27 20.82a10.305 10.305 0 0 1-5.53 1.62z" fill="#fff"/><path d="M89.11 43.88c4.25 0 8.22 2.93 10.92 8.04 4.44 8.43 1.98 15.86-2.75 18.85a8.839 8.839 0 0 1-4.73 1.39c-4.25 0-8.22-2.93-10.92-8.04-4.44-8.43-1.98-15.86 2.75-18.85a8.813 8.813 0 0 1 4.73-1.39m0-3c-2.23 0-4.4.63-6.34 1.85-6.21 3.93-8.82 13.25-3.8 22.79 3.46 6.56 8.65 9.64 13.57 9.64 2.23 0 4.4-.63 6.34-1.85 6.21-3.93 8.82-13.25 3.8-22.79-3.46-6.56-8.65-9.64-13.57-9.64z" fill="#DB7A00"/><path d="M56.81 106.86c-2.13 0-7.69-6.91-5.18-16.58 1.87-7.18 7.15-9.64 12.3-9.64s10.33 2.69 12.54 10.32c2.21 7.59-3.29 15.9-5.42 15.9-.66 0-1.32-.19-1.97-.58-1.67-.99-3.41-1.5-5.16-1.5s-3.48.5-5.16 1.5c-.62.38-1.28.58-1.95.58z" fill="#404040"/><path fill="none" stroke="#EB8F00" stroke-linecap="round" stroke-linejoin="round" stroke-miterlimit="10" stroke-width="7" d="M56.01 16.69v21M71.99 16.69v21"/><path d="M66.47 73.19l5.44-6.13c1.89-2.13.38-5.5-2.47-5.5H58.56c-2.85 0-4.36 3.37-2.47 5.5l5.44 6.13a3.303 3.303 0 0 0 4.94 0z" fill="#603813"/></svg>