<svg viewBox="0 0 128 128" xmlns="http://www.w3.org/2000/svg"><path d="M21.8 55.7c-2.2 0-4.1-.5-5.7-1.6-12.7-8.8-10.5-38-10.5-38.2.4-4 3.4-7 7.2-7h.7c11.3 1.2 26 5.6 33.3 14.5 3.8 4.6 2.5 10 .7 13.8-4.5 9.7-16.8 18.5-25.7 18.5z" fill="#FED133"/><path d="M12.8 10.4h.5c11 1.1 25.3 5.4 32.4 14 1.8 2.2 3.3 6 .5 12.2-4.3 9-16.2 17.6-24.4 17.6-2 0-3.5-.5-4.8-1.3-10-7-10.5-29-10-36.9.3-3.2 2.7-5.6 5.7-5.6m0-3A8.9 8.9 0 0 0 4 15.8c-.5 6.7-.6 31.3 11.2 39.5 1.8 1.3 4 1.9 6.5 1.9 14.8 0 36.8-22 26.2-34.8-8-9.7-23.6-13.9-34.4-15h-.8z" fill="#EB8F00"/><path d="M5.8 22c0-1.3.2-2.7 1.1-3.6 1.2-1.3 3.1-1.1 4.8-.8 4.5 1 8.8 3 12.4 5.8 1.8 1.5 3.5 3.2 4 5.5 1 3.5-1.3 7-3.4 9.8a33 33 0 0 1-4.8 5.7c-1.5 1.4-4.5 5-6.6 5.3-2 .2-2.1-1.4-3-3A61.7 61.7 0 0 1 5.8 22z" fill="#EB8F00"/><path d="M106.2 55.7c-8.9 0-21.2-8.8-25.7-18.5-1.8-3.8-3.1-9.2.7-13.8 7.3-9 22-13.3 33.3-14.5h.7c3.8 0 6.8 3 7.1 7 0 .3 2.3 29.4-10.4 38.2a9.6 9.6 0 0 1-5.7 1.6z" fill="#FED133"/><path d="M115.2 10.4c3 0 5.4 2.4 5.7 5.6.6 8 0 30-9.9 36.9a8.2 8.2 0 0 1-4.8 1.3c-8.2 0-20.1-8.6-24.4-17.6-2.8-6.1-1.3-10 .5-12.2 7.1-8.6 21.4-12.9 32.4-14h.5m0-3a8 8 0 0 0-.8 0C103.6 8.5 88 12.7 80 22.4c-10.6 12.9 11.4 34.8 26.2 34.8a11 11 0 0 0 6.5-1.9c11.8-8.2 11.7-32.8 11.1-39.5a8.9 8.9 0 0 0-8.6-8.4z" fill="#EB8F00"/><path d="M122.2 22c0-1.3-.2-2.7-1.1-3.6-1.2-1.3-3.1-1.1-4.8-.8-4.5 1-8.8 3-12.4 5.8a10.4 10.4 0 0 0-4 5.5c-1 3.5 1.3 7 3.4 9.8 1.4 2 3 4.1 4.8 5.7 1.5 1.4 4.5 5 6.6 5.3 2 .2 2.1-2.7 3-4.4a52.7 52.7 0 0 0 4.5-23.3z" fill="#EB8F00"/><linearGradient id="a" x1="64" x2="64" y1="25" y2="107.7" gradientUnits="userSpaceOnUse"><stop stop-color="#FED133" offset=".5"/><stop stop-color="#FDCE32" offset=".6"/><stop stop-color="#FCC32E" offset=".7"/><stop stop-color="#F9B128" offset=".8"/><stop stop-color="#F6A323" offset=".9"/></linearGradient><path d="M64 119.1c-25.8 0-53.5-16.4-53.5-52.5S38.2 14.1 64 14.1a55 55 0 0 1 37.2 13.6 50.6 50.6 0 0 1 16.3 39c0 15.8-5.6 29.2-16.3 38.8A55.3 55.3 0 0 1 64 119.1z" fill="url(#a)"/><path d="M64 15.6a49.2 49.2 0 0 1 52 51c0 15.4-5.5 28.5-15.8 37.8A53.8 53.8 0 0 1 64 117.6c-25 0-52-16-52-51 0-15.6 5.5-28.8 15.8-38 9.4-8.4 22.2-13 36.2-13m0-3c-28.6 0-55 18.7-55 54 0 35.2 26.4 54 55 54s55-19.3 55-54c0-34.8-26.4-54-55-54z" fill="#EB8F00"/><linearGradient id="b" x1="101" x2="101" y1="62.4" y2="123.5" gradientUnits="userSpaceOnUse"><stop stop-color="#fd0" offset="0"/><stop stop-color="#FFD704" offset=".2"/><stop stop-color="#FFC611" offset=".5"/><stop stop-color="#FFAA25" offset=".8"/><stop stop-color="#FF9138" offset="1"/></linearGradient><path d="M114 93.5c-6.3 8.6-10.1 8-10.4 15.3-.3 5.3-1.4 12.7-1.4 12.7H80.7l-.6-11c-.2-8.2.6-17.5 7.4-23.7 13-11.8 17.2-4.2 27.5-18.7 2.5-3.5 7-6.3 6.9 1.3 0 6-.8 14.4-7.9 24z" fill="url(#b)" stroke="#EB8F00" stroke-linecap="round" stroke-linejoin="round" stroke-miterlimit="10" stroke-width="3"/><linearGradient id="c" x1="27" x2="27" y1="62.4" y2="123.5" gradientUnits="userSpaceOnUse"><stop stop-color="#fd0" offset="0"/><stop stop-color="#FFD704" offset=".2"/><stop stop-color="#FFC611" offset=".5"/><stop stop-color="#FFAA25" offset=".8"/><stop stop-color="#FF9138" offset="1"/></linearGradient><path d="M14 93.5c6.3 8.6 10.1 8 10.4 15.3.3 5.3 1.4 12.7 1.4 12.7h21.5l.6-11c.2-8.2-.6-17.5-7.4-23.7C27.5 75 23.3 82.6 13 68.1c-2.5-3.5-7-6.3-6.9 1.3 0 6 .8 14.4 7.9 24z" fill="url(#c)" stroke="#EB8F00" stroke-linecap="round" stroke-linejoin="round" stroke-miterlimit="10" stroke-width="3"/><path d="M8.7 105.6l19.9-10.4M27.1 88L6 91m0-15.3l21.3 5.2M119.3 105.6L99.5 95.2m1.3-7.2l21.2 3m0-15.3l-21.3 5.2" fill="none" stroke="#404040" stroke-linecap="round" stroke-linejoin="round" stroke-miterlimit="10" stroke-width="4"/><path fill="#646464" d="M64 75.9v21"/><path fill="none" stroke="#404040" stroke-linecap="round" stroke-linejoin="round" stroke-miterlimit="10" stroke-width="5" d="M64 69.8v12.5"/><path d="M35.5 73.7c-2 0-3.9-.6-5.6-1.7-5.3-3.3-8.1-11.5-3.2-20.8 3-5.6 7.4-8.8 12.2-8.8 2 0 3.9.6 5.5 1.6 5.3 3.4 8.2 11.6 3.3 20.8-3 5.7-7.4 8.9-12.2 8.9z" fill="#fff"/><path d="M38.9 43.9c1.7 0 3.3.5 4.7 1.4 4.8 3 7.2 10.4 2.8 18.8-2.7 5.1-6.7 8-11 8a9 9 0 0 1-4.7-1.3c-4.7-3-7.2-10.5-2.7-18.9 2.7-5 6.7-8 10.9-8m0-3c-5 0-10.1 3-13.6 9.6-5 9.6-2.4 18.9 3.8 22.8 2 1.2 4.1 1.9 6.4 1.9 4.9 0 10-3.1 13.5-9.7 5-9.5 2.4-18.8-3.8-22.8-1.9-1.2-4-1.8-6.3-1.8z" fill="#DB7A00"/><path d="M92.5 73.7c-4.8 0-9.2-3.3-12.2-8.9-4.9-9.2-2-17.4 3.3-20.8 1.6-1 3.6-1.6 5.5-1.6 4.8 0 9.3 3.2 12.2 8.8 4.9 9.3 2 17.5-3.2 20.9a11 11 0 0 1-5.6 1.6z" fill="#fff"/><path d="M89.1 43.9c4.3 0 8.2 3 11 8 4.4 8.5 2 15.9-2.8 18.9-1.5.9-3 1.4-4.7 1.4-4.3 0-8.3-3-11-8-4.4-8.5-2-16 2.8-19 1.4-.8 3-1.3 4.7-1.3m0-3c-2.2 0-4.4.6-6.3 1.8-6.2 4-8.9 13.3-3.8 22.8 3.4 6.6 8.6 9.7 13.5 9.7 2.3 0 4.4-.7 6.4-1.9 6.2-4 8.8-13.2 3.8-22.8C99.2 44 94 41 89 41z" fill="#DB7A00"/><path d="M56.8 106.9c-2.1 0-7.7-7-5.2-16.6 1.9-7.2 7.2-9.7 12.3-9.7S74.3 83.3 76.5 91c2.2 7.6-3.3 15.9-5.5 15.9-.6 0-1.3-.2-2-.6a9.4 9.4 0 0 0-10.2 0c-.7.4-1.3.6-2 .6z" fill="#404040"/><path fill="none" stroke="#EB8F00" stroke-linecap="round" stroke-linejoin="round" stroke-miterlimit="10" stroke-width="7" d="M56 16.7v21m16-21v21"/><path d="M66.5 73.2l5.4-6.1c1.9-2.2.4-5.5-2.5-5.5H58.6A3.3 3.3 0 0 0 56 67l5.4 6a3.3 3.3 0 0 0 5 0z" fill="#603813"/></svg>