<svg viewBox="0 0 128 128" xmlns="http://www.w3.org/2000/svg" xmlns:xlink="http://www.w3.org/1999/xlink"><defs><path id="a" d="M4 4h120v120H4z"/></defs><clipPath id="b"><use xlink:href="#a"/></clipPath><g clip-path="url(#b)"><radialGradient id="c" cx="27.8" cy="-132" r="57.9" gradientTransform="matrix(.826 0 0 .826 41.3 101.3)" gradientUnits="userSpaceOnUse"><stop stop-color="#BFA055" offset="0"/><stop stop-color="#AB872F" offset="1"/></radialGradient><path d="M47 119.8s-6.8-.4-10.2-5.1c-7.4-10.3-11.4-35.8-11.4-72 0-1.7.3-16.4 10.7-26.9A38.7 38.7 0 0 1 64.5 5.6c12 0 21.5 3.4 28 10 9.8 10 10 24.2 10 27 0 36.3-4 61.8-11.4 72-3.3 4.7-9.8 5.1-10.3 5.2H47z" fill="url(#c)"/><path d="M64.6 7.1c11.6 0 20.7 3.3 27 9.6a38.5 38.5 0 0 1 9.5 25.8v.1c0 36-4 61.2-11.1 71.2-2.9 4-8.6 4.4-9.1 4.4H47c-.6 0-6.2-.5-9-4.4-7.3-10-11.2-35.3-11.2-71.2 0-.6 0-15.6 10.2-25.7A37.3 37.3 0 0 1 64.6 7m0-3c-41 0-40.7 38-40.7 38.5 0 24.6 1.9 59.3 11.7 73 3.9 5.3 11.4 5.6 11.4 5.6h34s7.5-.2 11.4-5.7c9.8-13.6 11.7-48.3 11.7-72.9 0-.6 1.5-38.5-39.5-38.5z" fill="#8F7635"/></g><g clip-path="url(#b)"><linearGradient id="d" x1="60.8" x2="60.8" y1="44.7" y2="129" gradientUnits="userSpaceOnUse"><stop stop-color="#651FFF" offset="0"/><stop stop-color="#5914F2" offset=".7"/><stop stop-color="#530EEB" offset="1"/></linearGradient><path d="M116 121c0-16.7-26.4-25-52-25-4.3 0-8.7.2-13 .7l-9.3-.4h-1c-4.7-.7-8.6-4-10-8.5l-1.3-4H5.2s7.4 40.6 8.8 45.5l102.4.6-.4-8.8z" fill="url(#d)"/></g><g clip-path="url(#b)"><linearGradient id="e" x1="66.8" x2="66.8" y1="102.5" y2="179.7" gradientUnits="userSpaceOnUse"><stop stop-color="#00BFA5" offset="0"/><stop stop-color="#00B29A" offset=".7"/><stop stop-color="#00AB94" offset="1"/></linearGradient><path d="M16.3 183.1v-9.4c0-16.3 25.3-23.5 50.5-23.6 25.1 0 50.5 8.1 50.5 23.6v9.4h-101z" fill="url(#e)"/><path d="M66.9 151.6c12.9 0 25.4 2.2 34.3 6 6.7 2.9 14.6 8 14.6 16v8h-98v-8c0-15.1 24.6-22 49-22m0-3c-25.5 0-52 7.3-52 25v11h104v-11c0-16.7-26.3-25-52-25z" fill="#009984"/></g><g clip-path="url(#b)"><path d="M63.2 107.2c-4 0-7.3-3.2-7.3-7.1v-9h16.2v9c0 4-3.3 7.1-7.3 7.1h-1.6z" fill="#C48E6A"/><path d="M71 92v8c0 3.5-2.7 6.2-6.2 6.2h-1.6a6.2 6.2 0 0 1-6.3-6.1v-8h14.2m2-2H54.9v10c0 4.5 3.7 8.1 8.3 8.1h1.6c4.6 0 8.3-3.6 8.3-8.1V90z" fill="#B07853"/></g><g clip-path="url(#b)"><linearGradient id="f" x1="31.9" x2="96.1" y1="56.2" y2="56.2" gradientUnits="userSpaceOnUse"><stop stop-color="#CCA47A" offset="0"/><stop stop-color="#D6B088" offset=".3"/><stop stop-color="#DEB892" offset=".6"/><stop stop-color="#E0BB95" offset="1"/></linearGradient><path d="M64 95.3c-2.3 0-5-.5-7.6-1.5A38.7 38.7 0 0 1 32 56c-.1-28.8 17.2-39 32-39s32.1 10.2 32.1 39a38.6 38.6 0 0 1-24.6 37.8 23 23 0 0 1-7.5 1.5z" fill="url(#f)"/><path d="M64 18a29 29 0 0 1 21.6 9.2A41.3 41.3 0 0 1 95 56c0 21-12.9 33-24 37-2.4.8-5 1.3-7.1 1.3-2.2 0-4.7-.5-7.2-1.4-11-3.9-24-16-24-37 0-12 3.4-22 9.7-28.7A29 29 0 0 1 64 18m0-2c-17.2 0-33.1 12.8-33.1 40A39.8 39.8 0 0 0 56 94.7a24 24 0 0 0 7.9 1.5c2.4 0 5-.5 7.8-1.5A39.8 39.8 0 0 0 97.1 56c0-27.2-15.9-40-33.1-40z" fill="#BA8F63"/></g><g clip-path="url(#b)"><defs><path id="g" d="M30.4 88.8l-2.2-51.6c0-16.9 16.4-30 33.3-30h5c19.2-.2 34 13.6 34 30.5l-3 50.9-67 .3z"/></defs><clipPath id="h"><use xlink:href="#g"/></clipPath><g clip-path="url(#h)"><radialGradient id="i" cx="32.4" cy="-123.1" r="48.2" gradientTransform="matrix(.796 0 0 .796 38.2 97.6)" gradientUnits="userSpaceOnUse"><stop stop-color="#BFA055" offset="0"/><stop stop-color="#AB872F" offset="1"/></radialGradient><path d="M101.9 42.6s1-35.5-37.8-35.5-38 35.5-38 35.5.3 45.5 3.2 51.4 7.2 5.7 7.2 5.7-2-26.5-2.3-39c0-3-.9-13.7 5.2-15 22.4-5.1 35-17 35-17C77.7 36 88 43 91.7 45.6c3 2.2 2.6 11.2 2.5 15l-3 39s4.7.4 7.6-5.6c3-6 3-51.4 3-51.4z" fill="url(#i)"/></g></g><g clip-path="url(#b)"><path d="M67.8 68h-7.6c-.6.3-1 1-.7 1.7s1.7 2.6 4.5 2.6 4.2-2 4.5-2.6c.3-.7 0-1.4-.7-1.7z" fill="#C48E6A"/><ellipse cx="47.8" cy="58.9" rx="4.9" ry="5" fill="#5D4037"/><ellipse cx="80.3" cy="58.9" rx="4.9" ry="5" fill="#5D4037"/><path d="M55 49.8c-1-1.2-3-3-7.3-3s-6.3 1.8-7.2 3c-.4.6-.3 1.2 0 1.6.3.3 1 .6 1.9.4s2.5-1.2 5.3-1.2c2.9 0 4.5.9 5.4 1.2s1.6 0 1.9-.4c.3-.4.4-1 0-1.6zm32.5 0c-1-1.2-3-3-7.2-3s-6.4 1.8-7.3 3c-.4.6-.3 1.2 0 1.6.3.3 1 .6 1.9.4s2.5-1.2 5.3-1.2c2.9 0 4.5.9 5.4 1.2s1.6 0 1.9-.4c.3-.4.4-1 0-1.6z" fill="#AB872F"/><path d="M72.3 76.1a25.3 25.3 0 0 1-16.6 0c-1.8-1-3.6.6-2.9 2.3.7 1.6 6.4 5.3 11.2 5.3s10.5-3.7 11.2-5.4c.7-1.6-1-3.2-2.9-2.2z" fill="#6D4C41"/></g><g clip-path="url(#b)"><path d="M46.2 27.8c-.5-1-2-2-4.5-1.6-2.4.3-3.8 2.6-5.3 3.3-.5.3-1-.2-.9-.8l6-16.2c.7-1.8.2-3.5-1.6-4-1.4-.3-2.6.7-3.2 2L32 22c0 .2-.2.3-.3.2a.3.3 0 0 1-.2-.3l3.5-14c.4-1.5.1-3-1.2-3.6-1.6-.7-3.2.4-3.6 2.2L26 20c0 .4-.4.6-.7.5-.3 0-.5-.4-.4-.7L27 8.3c.3-1.5 0-3.3-1.8-3.7s-2.6.9-3 2.5c-.4 1.3-2 9-2.5 11.1-.1.3-.4.5-.8.5a.6.6 0 0 1-.5-.7l.4-6.5c.1-1.6-.3-2.9-1.7-3.2-1.7-.5-3 .7-3.2 2.5l-1.6 10.9-1.7 9.8c-1.3 7.6.8 11.3 1.5 11.7 1.2.7 7.9 1.8 9.5 2.3 9.4 3 11.4-4.7 14.2-8.3 1.8-2.2 6.1-5.7 8.4-5.8 2.3 0 2.3-2.7 1.9-3.6z" fill="#E0BB95"/><path d="M32.8 5.1l.6.1c1 .5.7 2.1.6 2.5l-3.5 13.8a1.3 1.3 0 0 0 1.3 1.6c.5 0 1-.3 1.2-.8L37.7 11c.3-.9 1-1.5 1.7-1.5h.3c.4.2.7.4 1 .8.2.5.2 1.2-.1 1.9l-6 16.3a1.6 1.6 0 0 0 1.5 2.2c.2 0 .5 0 .7-.2a9 9 0 0 0 2-1.4c.9-.8 1.8-1.7 3-1.8h.9c1.5 0 2.3.5 2.6 1 .1.3.2 1.2-.1 1.8-.2.2-.4.4-.9.4-2.9 0-7.5 4-9.2 6.2-.6.7-1 1.6-1.6 2.5-1.8 3-3.7 6-8 6-1 0-2.2-.2-3.5-.6l-3.7-.8c-1.9-.4-5-1-5.5-1.4-.5-.3-2.4-3.5-1.1-10.6l1.6-9.9L15 11c.1-.8.6-1.7 1.5-1.7h.5c.3.1 1 .3.9 2.2l-.4 6.6a1.6 1.6 0 0 0 1.6 1.7c.8 0 1.4-.6 1.6-1.3l2.5-11c.5-1.9 1.2-1.9 1.5-1.9h.4c1.3.4 1 2.2 1 2.5l-2.2 11.5c-.2.9.3 1.8 1.2 2h.3c.8 0 1.4-.5 1.6-1.2l4.1-13.6c.3-1 1-1.6 1.7-1.6m0-1c-1.2 0-2.3 1-2.7 2.4l-4 13.5c-.1.3-.4.5-.7.5-.4 0-.6-.4-.5-.8L27 8.3c.2-1.4 0-3.3-1.7-3.7h-.6c-1.4 0-2 1-2.4 2.4l-2.6 11.2c0 .3-.3.5-.6.5a.6.6 0 0 1-.6-.7l.4-6.5c.1-1.6-.3-2.9-1.7-3.3h-.7c-1.3 0-2.3 1-2.5 2.6l-1.6 10.9-1.7 9.8c-1.3 7.6.8 11.2 1.5 11.7 1.2.7 7.9 1.8 9.5 2.3 1.5.5 2.8.7 3.9.7 6.1 0 8-6 10.3-9 1.8-2.3 6.1-5.7 8.4-5.8s2.3-2.7 1.9-3.6c-.4-.9-1.7-1.7-3.5-1.7l-1 .1c-2.4.3-3.7 2.6-5.3 3.3H36a.6.6 0 0 1-.6-.8l6-16.2c.7-1.8.2-3.5-1.6-4h-.5c-1.2 0-2.2.8-2.7 2L32 22c0 .2-.1.2-.2.2h-.1a.3.3 0 0 1-.2-.4L35 8c.4-1.5.1-3-1.2-3.6l-1-.2z" fill="#BA8F63"/><path d="M34.9 29.3c-4.2 0-8.1 3-10.4 6.7-.3.6.2 1 .6.4 2-3.2 6.3-5.7 9.9-5.5.5 0 1.8-.5 1.8-.5l-.9-.6s-.3-.4-1-.5z" fill="#BA8F63"/></g><g clip-path="url(#b)"><linearGradient id="j" x1="16.8" x2="16.8" y1="44.7" y2="129" gradientUnits="userSpaceOnUse"><stop stop-color="#651FFF" offset="0"/><stop stop-color="#5914F2" offset=".7"/><stop stop-color="#530EEB" offset="1"/></linearGradient><path d="M29.1 83c-.4-1.9-.6-3.9-.5-5.9l.6-29.1a2 2 0 0 0-1-2 2 2 0 0 0-.8-.2l-16-3.7a2 2 0 0 0-2.2 1.5L4.8 71c-.5 2.2-.6 4.4-.3 6.7l.7 6h24.2l-.3-.6z" fill="url(#j)"/></g><path d="M116 121c0-14.7-20.5-23-43-24.7v3c20 1.6 40 9 40 21.8v7.9H45c-1 0-2 .5-2.5 1.2s-.7 1.8-.4 2.7l4.3 13.6-9.7.1-3-.7c-8-2-11.9-3.3-16-15a3 3 0 0 0-.7-1v-.6l-.1-.9c-1.5-4.8-8.7-45-8.7-45l-.8-6c-.2-2-.1-3.9.3-5.8v-.1L12 45.3l14.2 3.3-.6 28.4c0 5.2 2.2 11.7 2.2 11.7a15.3 15.3 0 0 0 12.5 10.5l1.3.1s11.5.3 13.3 0v-3s-10.2.4-14.3 0c-4.6-.6-8.5-4-10-8.5 0 0-2-6.4-2-10.7l.6-29.2a2 2 0 0 0-1-1.8 2 2 0 0 0-.8-.3l-16-3.7h-.2a2 2 0 0 0-2 1.5L4.8 71c-.5 2.2-.6 4.4-.3 6.7l.7 6s7.4 40.7 8.8 45.6v2.7h.9c5.3 14.8 11.7 15 21.5 17.6l14.2-.1-5.7-17.5H116v-11z" clip-path="url(#b)" fill="#4A00ED"/></svg>