<svg viewBox="0 0 128 128" xmlns="http://www.w3.org/2000/svg" xmlns:xlink="http://www.w3.org/1999/xlink"><radialGradient id="a" cx="162.9" cy="2.3" r="60.9" gradientTransform="matrix(.358 .989 -.9337 .3793 -26.2 -110)" gradientUnits="userSpaceOnUse"><stop stop-color="#F9DDBD" offset=".4"/><stop stop-color="#EDC391" offset=".9"/></radialGradient><path d="M28 117.4c-14.3 0-19.2-14.5-20.4-18.9-2-7.6-2.1-42.6-2.1-43 0-3.1 1.4-6.2 4.2-6.3 2.8 0 4.7 2.3 4.7 5.4 0 .6.4 1 1 1s1-.4 1-1l.5-10.2c0-3 1.3-6.3 4.1-6.3s5.3 2.8 5.3 6c0 .5.4 1 1 1s1-.5 1-1v-6.8c0-2.7 1.4-5.6 4.5-5.6s4.5 2.9 4.5 5.6l.2 8.5c0 .6.4 1 1 1 .5 0 1-.4 1-1 0-1.5.4-5.1 4.2-5.1 3 0 4.6 3 4.6 5.9l1 33c0 .8.1 1.4.5 1.8.3.2.6.4 1 .4.3 0 1-.1 1.6-1.2.3-.7.4-2 .6-4.2.3-3.5.7-8.2 2.2-11.5 1.2-2.6 3.3-3.2 5.2-3.6h.5c2 0 2.7 2.1 2.7 3.9 0 2.3-.3 4.9-.7 7.7l-.4 2.8a123 123 0 0 1-6.8 25.2l-1 2.3c-2.4 5.9-5.7 14-26.5 14.2H28z" fill="url(#a)"/><path d="M32.8 32.7c2.4 0 3.5 2.3 3.5 4.6l.2 8.6c0 1 .9 2 2 2a2 2 0 0 0 2-2c0-2 .5-4.2 3.2-4.2 2.3 0 3.5 2.4 3.5 4.9l1.1 33c0 1.3.4 2 .8 2.4.4.5 1 .8 1.7.8.5 0 1.7-.2 2.5-1.8.4-.8.5-2 .7-4.5.3-3.2.7-8 2.1-11.2.8-1.7 2-2.6 4.4-3h.4c1.6 0 1.7 2.6 1.7 3 0 2.1-.3 4.7-.7 7.4l-.4 2.8a124.7 124.7 0 0 1-7.8 27.3c-2.4 6-5.4 13.4-25.5 13.6H28a17 17 0 0 1-13.4-6.2 30.6 30.6 0 0 1-6-12 363 363 0 0 1-2.1-42.7c0-2 .8-5.2 3.2-5.2 2.6 0 3.7 2.2 3.7 4.3 0 1.1 1 2 2 2 1.1 0 2-.8 2-1.9l.5-10.3c0-1.9.7-5.3 3.2-5.3 2.2 0 4.2 2.3 4.2 5a2 2 0 0 0 4 0v-6.8c0-2.3 1-4.6 3.5-4.6m0-2c-3.4 0-5.5 3-5.5 6.6V44c0-3.7-2.8-7-6.3-7-3.4 0-5 3.6-5 7.2l-.6 10.3c0-3.6-2.3-6.3-5.7-6.3-3.5 0-5.2 3.6-5.2 7.2 0 0 .1 35.5 2.2 43.3 2 7.7 8 19.6 21.3 19.6h.2c24.3-.3 25.5-11.2 28.4-17.1 2.6-5.5 6.2-20 7-25.5.4-4 1-7.6 1-10.6 0-2.8-1.4-4.9-3.7-4.9a4 4 0 0 0-.7 0c-2.1.4-4.6 1.2-5.9 4.2-2.4 5.2-2.1 14.1-2.8 15.6-.2.5-.5.7-.7.7-.3 0-.5-.4-.5-1.1l-1-33.1c0-3.7-2.1-7-5.5-7-3.5 0-5.3 2.6-5.3 6.2l-.2-8.5c0-3.7-2-6.6-5.5-6.6z" fill="#E6B77E"/><defs><path id="b" d="M67.8 69.4c-1.6-1.9-5.5-2.4-9.4-1.1-2.6.8-2 12.7-2 12.7l-6.2 2.7-.4-3.6-.2-2.7S3.5 93.4 4.1 99.7c.7 6.2 5.4 18.2 24.2 18.1 24.3 0 25.4-15.3 28.2-21.1 2.6-5.5 5.9-18.2 10-19.5 2.6-1 2.6-6.3 1.3-7.8z"/></defs><clipPath id="c"><use xlink:href="#b"/></clipPath><g clip-path="url(#c)"><path d="M50.5 76.4c-7.6 3-12 10.6-14.8 20.4-.3 1.4.8 1.8 1.3.5 4.8-13.9 17.1-18.1 17.1-18.1l-3.6-2.8z" fill="#E6B77E"/></g><path d="M13.9 82.8A50.5 50.5 0 0 1 43.6 78c1.8.3 2.7-2.6.8-3a54 54 0 0 0-32 5.2c-1.8.8-.3 3.4 1.5 2.6z" fill="#E6B77E"/><defs><path id="d" d="M64.6 65.2c0-3-1.7-5.3-4.4-4.8-2.1.3-4.6 1.1-6 4-2.3 5.3-2 14.2-2.7 15.8-.5 1-1.3.7-1.2-.5l-1-33.1c0-3.7-2.1-7-5.6-7-3.4 0-5.2 2.6-5.2 6.2l-.2-8.5c0-3.7-2-6.6-5.5-6.6s-5.5 3-5.5 6.6V44c0-3.7-2.8-7-6.2-7s-5.2 3.6-5.2 7.2l-.5 10.3c0-3.6-2.3-6.3-5.7-6.3-3.4 0-5.2 3.6-5.2 7.2 0 0 .2 35.5 2.2 43.3s8 19.7 21.5 19.6c24.3-.3 25.5-11.2 28.4-17.1 2.6-5.5 6.2-20 7-25.5.4-4 1-7.5 1-10.6z"/></defs><clipPath id="e"><use xlink:href="#d"/></clipPath><path d="M15.1 46A207 207 0 0 0 18 78.6m9.2-53.9c-1 11.4-.1 42.8 2.4 51m9.1-42.4c-.2 10.4-1 28.1 1 41.7" clip-path="url(#e)" fill="none" stroke="#E6B77E" stroke-miterlimit="10" stroke-width="3"/><radialGradient id="f" cx="-640.1" cy="1.6" r="60.9" gradientTransform="matrix(.358 .989 .9337 -.3793 325.7 685.6)" gradientUnits="userSpaceOnUse"><stop stop-color="#F9DDBD" offset=".4"/><stop stop-color="#EDC391" offset=".9"/></radialGradient><path d="M99.7 117.4c-20.7-.3-24-8.3-26.4-14.2a123.4 123.4 0 0 1-8.2-30.3c-.4-2.8-.8-5.5-.8-7.7 0-1.8.8-3.9 2.8-3.9h.5c1.9.4 4 1 5.2 3.6 1.5 3.3 1.9 8 2.2 11.5.2 2.3.3 3.5.6 4.2.5 1 1.2 1.2 1.6 1.2.3 0 .7-.2 1-.4.3-.4.5-1 .4-1.8l1.1-33c0-3 1.6-6 4.5-6 3.9 0 4.3 3.7 4.3 5.2 0 .6.4 1 1 1 .5 0 1-.4 1-1l.2-8.5c0-2.7 1.4-5.6 4.5-5.6 3 0 4.5 2.9 4.5 5.6V44c0 .5.5 1 1 1s1-.5 1-1c0-3.2 2.4-6 5.2-6 2.9 0 4.2 3.2 4.1 6.2l.5 10.4c0 .5.5 1 1 1 .6 0 1-.5 1-1 0-3.2 2-5.4 4.8-5.4 2.7 0 4.2 3.1 4.2 6.2 0 .4-.2 35.4-2.2 43-1.2 4.5-6 18.9-20.3 18.9h-.3z" fill="url(#f)"/><path d="M95.2 32.7c2.4 0 3.5 2.3 3.5 4.6V44a2 2 0 0 0 4 0c0-2.7 2-5 4.2-5 2.5 0 3.1 3.4 3.1 5.2v.1l.5 10.3c0 1.1 1 2 2 2 1.2 0 2-1 2-2 0-2.2 1.2-4.4 3.8-4.4 2.3 0 3.2 3.1 3.2 5.2 0 .4-.2 35.3-2.2 42.8-.7 2.6-2.4 7.7-6 11.9a17 17 0 0 1-13.3 6.2h-.3c-20-.3-23-7.7-25.5-13.6l-1-2.4a125.2 125.2 0 0 1-7.9-35.2c0-.3.1-2.9 1.8-2.9h.3c2.4.4 3.7 1.3 4.5 3 1.4 3.1 1.8 8 2 11.2.3 2.4.4 3.7.8 4.5.7 1.6 2 1.8 2.5 1.8.6 0 1.2-.3 1.7-.8.4-.4.8-1.2.7-2.4l1.1-33c0-2.5 1.2-5 3.5-5 2.7 0 3.3 2.3 3.3 4.2a2 2 0 1 0 4 0l.2-8.6c0-2.2 1-4.5 3.5-4.5m0-2c-3.5 0-5.5 3-5.5 6.5l-.2 8.6c0-3.6-1.8-6.1-5.3-6.1-3.4 0-5.5 3.2-5.5 6.9 0 0-1.1 32.6-1 33.1 0 .7-.2 1.1-.5 1.1-.2 0-.5-.2-.7-.7-.7-1.5-.4-10.4-2.8-15.6-1.4-3-3.8-3.8-6-4.1a4 4 0 0 0-.6-.1c-2.3 0-3.7 2-3.7 4.9 0 3 .6 6.7 1 10.6.8 5.5 4.4 20 7 25.5 2.8 5.8 4 16.8 28.3 17h.3c13.4 0 19.3-11.8 21.3-19.5 2-7.8 2.2-43.3 2.2-43.3 0-3.6-1.8-7.2-5.2-7.2s-5.7 2.7-5.7 6.3l-.5-10.3c0-3.6-1.7-7.2-5.2-7.2-3.4 0-6.2 3.3-6.2 7v-6.8c0-3.7-2.1-6.6-5.5-6.6z" fill="#E6B77E"/><defs><path id="g" d="M60.3 69.4c1.5-1.9 5.4-2.4 9.3-1.1 2.6.8 2 12.7 2 12.7l6.2 2.7.4-3.6.2-2.7s46.1 16 45.5 22.3c-.7 6.2-5.4 18.2-24.2 18.1-24.3 0-25.4-15.3-28.2-21.1-2.6-5.5-5.9-18.2-10-19.5-2.6-1-2.6-6.3-1.2-7.8z"/></defs><clipPath id="h"><use xlink:href="#g"/></clipPath><g clip-path="url(#h)"><path d="M77.5 76.4c7.6 3 12 10.6 14.8 20.4.3 1.4-.8 1.8-1.3.5a29.9 29.9 0 0 0-17.1-18.1l3.6-2.8z" fill="#E6B77E"/></g><path d="M115.6 80.2a54 54 0 0 0-32-5.1c-1.9.3-1 3.2.8 2.9a50 50 0 0 1 29.7 4.8c1.8.8 3.3-1.8 1.5-2.6z" fill="#E6B77E"/><defs><path id="i" d="M63.3 65.2c0-3 1.7-5.3 4.5-4.8 2 .3 4.5 1.1 5.9 4 2.4 5.3 2 14.2 2.8 15.8.5 1 1.2.7 1.1-.5l1.1-33.1c0-3.7 2-7 5.5-7 3.4 0 5.3 2.6 5.3 6.2l.1-8.5c0-3.7 2.1-6.6 5.6-6.6s5.5 3 5.5 6.6V44c0-3.7 2.8-7 6.2-7s5.1 3.6 5.1 7.2l.5 10.3c0-3.6 2.4-6.3 5.8-6.3s5.2 3.6 5.2 7.2c0 0-.2 35.5-2.2 43.3s-8 19.7-21.6 19.6c-24.3-.3-25.5-11.2-28.3-17.1-2.6-5.5-6.2-20-7-25.5-.4-4-1.1-7.5-1-10.6z"/></defs><clipPath id="j"><use xlink:href="#i"/></clipPath><path d="M112.9 46a207 207 0 0 1-2.9 32.6m-9.2-53.9c1 11.4.1 42.8-2.4 51m-9.1-42.4c.2 10.4 1 28.1-1 41.7" clip-path="url(#j)" fill="none" stroke="#E6B77E" stroke-miterlimit="10" stroke-width="3"/><path fill="none" stroke="#000" stroke-linecap="round" stroke-linejoin="round" stroke-miterlimit="10" stroke-width="3" d="M78.8 31.8l9.6-13.4M49.7 31.7l-9.1-11.6M64 27.8l.1-18.2"/></svg>