<svg viewBox="0 0 128 128" xmlns="http://www.w3.org/2000/svg"><linearGradient id="a" x1="64" x2="64" y1="29.5" y2="108" gradientUnits="userSpaceOnUse"><stop stop-color="#fff" offset="0"/><stop stop-color="#BDBDBD" offset="1"/></linearGradient><path d="M124 28H75.5c-4.5 0-6.9 2.5-11.6 7.4L59.7 40l-12 14.5a106 106 0 0 0-28 15.2C3.3 82.5-3.3 98 15.2 108H124V28z" fill="url(#a)"/><path d="M124 108H11.4c-1.4 1.4-15.5 16.3-1 16.3H124V108z" fill="#263238"/><path d="M122 110v12.3H10.4c-2.4 0-4-.5-4.4-1.3-.9-2.2 3.2-8 6.2-11H122m2-2H11.4c-1.4 1.4-15.5 16.3-1 16.3H124V108z" fill="#eee" opacity=".2"/><path d="M124 68H89.4c-5.2 0-9.7 2.9-13.4 8l-9.6 12.6c-3 4.4.2 8 4.6 8h53V68z" fill="#0277BD"/><path d="M124 28H75.6c-4.6 0-7 2.5-11.7 7.4L59.7 40l-12 14.5a106 106 0 0 0-28 15.2C3.3 82.5-3.2 98 15.2 108H124V28z" fill="none"/><path d="M121 31v74H16c-5.6-3-8.6-6.8-9-11-.5-6.3 4.8-14.3 14.5-22a103 103 0 0 1 27.2-14.6l.7-.2.5-.7h.1L62 42v-.1l4-4.3c4.9-5.1 6.4-6.5 9.5-6.5H121m3-3H75.5c-4.6 0-6.9 2.4-11.6 7.4-.7.7-3.6 3.7-4.2 4.5l-12 14.6a106 106 0 0 0-28 15.1c-16.4 13-23 28.4-4.5 38.4h108.7V28z" fill="#424242" opacity=".2"/><path d="M96.4 53.9h-48a411 411 0 0 1 15-17.9H96a4 4 0 0 1 3.9 4v10c0 2.1-1.4 3.9-3.6 3.9z" fill="#4FC3F7"/><path d="M64.7 39H96c.5 0 .9.4.9 1v10c0 .1 0 .9-.6.9H54.6l10-11.9m-1.3-3s-8.2 9.3-15 17.9h48.1c2.1 0 3.6-1.8 3.6-3.9V40a4 4 0 0 0-3.9-4H63.3z" fill="#424242" opacity=".2"/><path d="M28.3 87.5a22 22 0 0 1-13 20.5c-18.5-10-12-25.5 4.4-38.4a23 23 0 0 1 8.6 17.9z" fill="#0288D1"/><path d="M19.6 74c3.6 3.6 5.6 8.5 5.6 13.7a20 20 0 0 1-9.8 17.5c-5.1-3.1-8-6.8-8.3-10.9A17 17 0 0 1 10.5 84c2.1-3.3 5.2-6.7 9.1-10m.1-3.7C3.3 83.2-3.2 99 15.2 109h.1c7.7-3 13-11.8 13-20.9a23 23 0 0 0-8.6-17.9z" fill="#424242" opacity=".2"/></svg>