<svg viewBox="0 0 128 128" xmlns="http://www.w3.org/2000/svg"><path fill="#BDBDBD" d="M3.8 108h120.3v16H3.8z"/><path d="M46 12H10c-1.1 0-2 .9-2 2s.9 2 2 2h16.5L15 25.5a1.5 1.5 0 0 0 0 2.4l12.2 9.3c.2.2.6.3.9.3l.9-.3 12-9.3a1.5 1.5 0 0 0 0-2.4L29.7 16H46c1.1 0 2-.9 2-2s-.9-2-2-2zM28 34.1l-9.6-7.5 9.7-8 9.5 8-9.5 7.5z" fill="#757575"/><path d="M46 13c.6 0 1 .5 1 1s-.5 1-1 1H29.7a1 1 0 0 0-1 .7c-.1.4 0 .8.3 1l11.3 9.6.2.4c0 .2 0 .3-.2.4l-12 9.3-.2.1h-.3L15.7 27l-.2-.4c0-.2 0-.3.2-.4L27 16.8c.4-.3.5-.7.3-1.1s-.5-.7-1-.7H10c-.5 0-1-.4-1-1s.5-1 1-1h36M28 35.1c.3 0 .5 0 .7-.2l9.6-7.5c.2-.2.3-.4.3-.7s0-.6-.3-.8l-9.6-8a1 1 0 0 0-1.3 0l-9.6 8a1 1 0 0 0-.4.8c0 .3.2.6.4.7l9.7 7.5.6.2M46 12H10c-1.1 0-2 .9-2 2s.9 2 2 2h16.5L15 25.5a1.5 1.5 0 0 0 0 2.4l12.2 9.3c.2.2.6.3.9.3l.9-.3 12-9.3a1.5 1.5 0 0 0 0-2.4L29.7 16H46c1.1 0 2-.9 2-2s-.9-2-2-2zM28 34.1l-9.6-7.5 9.7-8 9.5 8-9.5 7.5z" fill="#424242" opacity=".2"/><path d="M119 12H83c-1.1 0-2 .9-2 2s.9 2 2 2h16.5L88 25.5a1.5 1.5 0 0 0 0 2.4l12.2 9.3c.2.2.5.3.9.3s.6-.1.9-.3l12-9.3a1.5 1.5 0 0 0 0-2.4L102.7 16H119c1.1 0 2-.9 2-2s-.9-2-2-2zm-18 22.1l-9.6-7.5 9.7-8 9.5 8-9.5 7.5z" fill="#757575"/><path d="M119 13c.6 0 1 .5 1 1s-.5 1-1 1h-16.3a1 1 0 0 0-1 .7c-.1.4 0 .8.3 1l11.3 9.6.2.4c0 .2 0 .3-.2.4l-12 9.3-.2.1h-.3L88.7 27l-.2-.4c0-.2 0-.3.2-.4l11.4-9.5c.4-.3.5-.7.3-1.1s-.5-.7-1-.7H83c-.5 0-1-.4-1-1s.5-1 1-1h36M101 35c.3 0 .5 0 .7-.2l9.6-7.5c.2-.2.3-.4.3-.7s0-.6-.3-.8l-9.6-8a1 1 0 0 0-1.3 0l-9.6 8a1 1 0 0 0-.4.8c0 .3.2.6.4.7l9.7 7.5.6.2M119 12H83c-1.1 0-2 .9-2 2s.9 2 2 2h16.5L88 25.5a1.5 1.5 0 0 0 0 2.4l12.2 9.3c.2.2.6.3.9.3l.9-.3 12-9.3a1.5 1.5 0 0 0 0-2.4L102.7 16H119c1.1 0 2-.9 2-2s-.9-2-2-2zm-18 22.1l-9.6-7.5 9.7-8 9.5 8-9.5 7.5z" fill="#424242" opacity=".2"/><path fill="#424242" d="M3.8 108h120.3v8H3.8z"/><path d="M122 110v12H6v-12h116m2-2H4v16h120v-16z" fill="#424242" opacity=".2"/><circle cx="18" cy="105" r="6"/><circle cx="30" cy="105" r="6"/><circle cx="42" cy="105" r="6"/><circle cx="86" cy="105" r="6"/><circle cx="98" cy="105" r="6"/><circle cx="110" cy="105" r="6"/><path d="M124 42a6 6 0 0 0-6-6H10a6 6 0 0 0-6 6v1.8h120V42z" fill="#6D4C41"/><linearGradient id="a" x1="64" x2="64" y1="121.9" y2="61" gradientUnits="userSpaceOnUse"><stop stop-color="#FBC02D" offset="0"/><stop stop-color="#FFEB3B" offset="1"/></linearGradient><path d="M4 43.8v54.9a6 6 0 0 0 6 6h108a6 6 0 0 0 6-6v-55H4z" fill="url(#a)"/><path fill="#eee" d="M4 43.8h120v32.3H4z"/><path d="M24.4 72.1H14a4 4 0 0 1-4-4v-16a4 4 0 0 1 4-4h10.4a4 4 0 0 1 4 4v16a4 4 0 0 1-4 4zm22.3 0H36.3a4 4 0 0 1-4-4v-16a4 4 0 0 1 4-4h10.4a4 4 0 0 1 4 4v16a4 4 0 0 1-4 4zm22.3 0H58.6a4 4 0 0 1-4-4v-16a4 4 0 0 1 4-4H69a4 4 0 0 1 4 4v16a4 4 0 0 1-4 4zm22.3 0H81a4 4 0 0 1-4-4v-16a4 4 0 0 1 4-4h10.4a4 4 0 0 1 4 4v16a4 4 0 0 1-4 4zm22.4 0h-10.4a4 4 0 0 1-4-4v-16a4 4 0 0 1 4-4h10.4a4 4 0 0 1 4 4v16a4 4 0 0 1-4 4z" fill="#4FC3F7"/><path d="M118 39c1.5 0 3 1 3 2.7v57c0 1.7-1.5 3.3-3 3.3H10.3c-1.6 0-3.3-1.7-3.3-3.4v-57C7 40 8.5 39 10 39h108m0-3H10c-3.3 0-6 2.7-6 5.7v57c0 3.2 3 6 6.3 6H118a6 6 0 0 0 6-6V42a6 6 0 0 0-6-6z" fill="#424242" opacity=".2"/><path d="M24.4 50a2 2 0 0 1 2 2v16.1a2 2 0 0 1-2 2H14a2 2 0 0 1-2-2v-16c0-1.2.9-2 2-2h10.4m0-2H14a4 4 0 0 0-4 4v16a4 4 0 0 0 4 4h10.4a4 4 0 0 0 4-4v-16a4 4 0 0 0-4-4zM46.7 50a2 2 0 0 1 2 2v16.1a2 2 0 0 1-2 2H36.3a2 2 0 0 1-2-2v-16c0-1.2 1-2 2-2h10.4m0-2H36.3a4 4 0 0 0-4 4v16a4 4 0 0 0 4 4h10.4a4 4 0 0 0 4-4v-16a4 4 0 0 0-4-4zM69 50a2 2 0 0 1 2 2v16.1a2 2 0 0 1-2 2H58.6a2 2 0 0 1-2-2v-16c0-1.2 1-2 2-2H69m0-2H58.6a4 4 0 0 0-4 4v16a4 4 0 0 0 4 4H69a4 4 0 0 0 4-4v-16a4 4 0 0 0-4-4zM91.3 50a2 2 0 0 1 2 2v16.1a2 2 0 0 1-2 2H81a2 2 0 0 1-2-2v-16c0-1.2 1-2 2-2h10.4m0-2H81a4 4 0 0 0-4 4v16a4 4 0 0 0 4 4h10.4a4 4 0 0 0 4-4v-16a4 4 0 0 0-4-4zm22.3 1.9a2 2 0 0 1 2 2v16.1a2 2 0 0 1-2 2h-10.4a2 2 0 0 1-2-2v-16c0-1.2.9-2 2-2h10.4m0-2h-10.4a4 4 0 0 0-4 4v16a4 4 0 0 0 4 4h10.4a4 4 0 0 0 4-4v-16a4 4 0 0 0-4-4z" fill="#424242" opacity=".2"/></svg>