<svg viewBox="0 0 128 128" xmlns="http://www.w3.org/2000/svg"><path fill="#BDBDBD" d="M76 105h16.54L124 116v8h-24z"/><path fill="#546E7A" d="M100 116l-20-12v4l20 16z"/><path fill="#E0E0E0" d="M100 116h24v8h-24z"/><path d="M92.02 108L121 118.13V121h-19.96l-16.42-13H92m.54-3H76l24 19h24v-8l-31.46-11z" fill="#424242" opacity=".2"/><path d="M114.37 25.57L87.35 14.72c-1.83-.73-3.81.44-4.42 2.63s.19 4.55 2.02 5.29L105 30.76v83.27s1.12 1.72 4 1.72c3.62 0 4-1.72 4-1.72V33.59c1 .46 3.24-.68 3.81-2.73.62-2.19-.62-4.55-2.44-5.29z" fill="#546E7A"/><path d="M86.24 16.5c.12 0 .24.03.37.07l27.01 10.85c.86.35 1.61 1.69 1.27 2.89-.22.77-.97 1.27-1.3 1.35-.19-.06-.39-.09-.58-.09a2.006 2.006 0 0 0-2 2v79.81c-.25.14-.83.36-2 .36-1.01 0-1.64-.3-2-.55V30.76c0-.81-.49-1.55-1.25-1.85L85.7 20.78c-.81-.32-1.19-1.65-.84-2.89.23-.82.8-1.39 1.38-1.39m0-2c-1.46 0-2.82 1.1-3.31 2.85-.61 2.19.19 4.55 2.02 5.29L105 30.76v83.27s1.12 1.72 4 1.72c3.62 0 4-1.72 4-1.72V33.59c.15.07.32.1.52.1 1.11 0 2.81-1.09 3.3-2.83.61-2.19-.62-4.55-2.45-5.29L87.35 14.72a2.89 2.89 0 0 0-1.11-.22z" fill="#424242" opacity=".2"/><path d="M20.97 111.92L5 124h88l-15.93-11.93s-56.4-.46-56.1-.15z" fill="#424242"/><path d="M28.62 111.92L17 124h64l-11.58-11.93s-41.02-.46-40.8-.15z" fill="#616161"/><path fill="#424242" d="M55 124H43l3-12h6z"/><path d="M29.57 113.81c14.29 0 42.19.22 46.83.25L86.99 122H10.96l10.75-8.13c.78-.03 2.78-.06 7.86-.06m0-2c-5.23 0-8.68.03-8.6.1L5 124h88l-15.93-11.93s-31.77-.26-47.5-.26z" fill="#eee" opacity=".2"/><path fill="#546E7A" d="M49.05 29.44L31.44 10.05l1.43-1.3 16.18 17.81L65.46 8.44l1.43 1.3z"/><path d="M69.82 8H28.18c-4.79 0-8.68 3.59-8.68 8.08 0 .78.12 1.69.36 2.45.07.21.26.47.48.47h2.12c.17 0 .33-.24.42-.38s.11-.4.04-.55c-.28-.63-.42-1.21-.42-1.88 0-2.91 2.55-5.18 5.68-5.18h41.64c3.13 0 5.68 2.24 5.68 5.15 0 .68-.14 1.28-.42 1.91-.07.15-.05.46.04.6s.25.35.42.35h2.12c.22 0 .41-.3.48-.5.24-.76.36-1.56.36-2.34 0-4.51-3.89-8.18-8.68-8.18zM73.23 116H24.87a3.97 3.97 0 0 1-3.96-3.96v-.09a3.97 3.97 0 0 1 3.96-3.96h48.37a3.97 3.97 0 0 1 3.96 3.96v.09c-.01 2.18-1.79 3.96-3.97 3.96z" fill="#212121"/><path d="M69.82 8H28.18c-4.79 0-8.68 3.34-8.68 7.83 0 .78.12 1.81.36 2.57.07.21.26.6.48.6h2.12c.17 0 .33-.49.42-.63s.11-.52.04-.68c-.28-.63-.42-1.02-.42-1.69 0-2.91 2.55-5 5.68-5h4.13l16.75 18.44L65.75 11h4.07c3.13 0 5.68 1.99 5.68 4.9 0 .68-.14 1.15-.42 1.78-.07.15-.05.64.04.79.1.13.25.53.42.53h2.12c.22 0 .41-.55.48-.75.24-.76.36-1.43.36-2.21 0-4.5-3.89-8.04-8.68-8.04zM49.05 26.56L34.92 11h28.22L49.05 26.56z" fill="none" stroke="#eee" stroke-miterlimit="10" stroke-width="1.5" opacity=".2"/><linearGradient id="a" x1="49" x2="49" y1="24.167" y2="111.25" gradientUnits="userSpaceOnUse"><stop stop-color="#FFCA28" offset=".136"/><stop stop-color="#FFC21B" offset=".329"/><stop stop-color="#FFB707" offset=".7"/><stop stop-color="#FFB300" offset=".953"/></linearGradient><path d="M76.57 111.96H21.43c-4.63 0-8.43-4.15-8.43-9.23V52c0-32 16-28 36-28s36-4 36 27.88v50.86c0 5.06-3.79 9.22-8.43 9.22z" fill="url(#a)"/><path d="M60.46 26.84c6.86 0 12.15.63 15.66 3.72C80.08 34.04 82 41.01 82 51.88v50.86c0 3.43-2.43 6.23-5.43 6.23H21.43c-2.99 0-5.43-2.79-5.43-6.23V52c0-10.92 1.93-17.93 5.9-21.43 3.51-3.1 8.81-3.73 15.68-3.73 1.71 0 3.47.04 5.34.08 1.97.04 4 .08 6.09.08s4.13-.04 6.11-.08c1.86-.04 3.62-.08 5.34-.08m0-3c-3.6 0-7.45.16-11.46.16-4 0-7.84-.16-11.42-.16C23.24 23.84 13 26.4 13 52v50.73c0 5.07 3.79 9.23 8.43 9.23h55.15c4.63 0 8.43-4.15 8.43-9.23V51.88C85 26.39 74.78 23.84 60.46 23.84z" fill="#424242" opacity=".2"/><path d="M27.5 41.72c0-1.69-1.37-2.96-2.89-2.74-3.21.47-6.2 2.12-6.2 7.57v31.9c0 1.53 1.13 2.76 2.52 2.76h4.06c1.39 0 2.52-1.24 2.52-2.76l-.01-36.73zM70.2 41.72c0-1.69 1.37-2.96 2.89-2.74 3.21.47 6.2 2.12 6.2 7.57v31.9c0 1.53-1.13 2.76-2.52 2.76h-4.06c-1.39 0-2.52-1.24-2.52-2.76l.01-36.73zM59.81 85.17H38.19c-4.42 0-8-3.58-8-8V40c0-4.42 3.58-8 8-8H59.8c4.42 0 8 3.58 8 8v37.17c.01 4.41-3.58 8-7.99 8z" fill="#4FC3F7"/><path d="M33.38 100.08H20.96A3.97 3.97 0 0 1 17 96.12v-.16A3.97 3.97 0 0 1 20.96 92h12.42a3.97 3.97 0 0 1 3.96 3.96v.16c-.01 2.18-1.79 3.96-3.96 3.96zM64.96 100.08h12.42a3.97 3.97 0 0 0 3.96-3.96v-.2a3.97 3.97 0 0 0-3.96-3.96H64.96A3.97 3.97 0 0 0 61 95.92v.2a3.97 3.97 0 0 0 3.96 3.96z" fill="#212121"/><path d="M24.48 98.47h5.38c1.35 0 2.45-1.1 2.45-2.45s-1.1-2.45-2.45-2.45h-5.38c-1.35 0-2.45 1.1-2.45 2.45s1.1 2.45 2.45 2.45zM68.48 98.47h5.38c1.35 0 2.45-1.1 2.45-2.45s-1.1-2.45-2.45-2.45h-5.38c-1.35 0-2.45 1.1-2.45 2.45s1.1 2.45 2.45 2.45z" fill="#FFEE58"/><path d="M73.73 38.16c.03 0 .07 0 .11.01 4.67.69 5.31 3.58 5.31 6.6V80.9c0 .61-.39 1.13-.85 1.13h-4.6c-.46 0-.85-.52-.85-1.13V39.28c0-.69.46-1.12.88-1.12m0-2c-1.56 0-2.88 1.36-2.88 3.13V80.9c0 1.73 1.28 3.13 2.85 3.13h4.6c1.57 0 2.85-1.4 2.85-3.13V44.76c0-6.18-3.39-8.05-7.02-8.58-.14-.01-.27-.02-.4-.02zM59.81 34c3.31 0 6 2.69 6 6v37.17c0 3.31-2.69 6-6 6H38.19c-3.31 0-6-2.69-6-6V40c0-3.31 2.69-6 6-6h21.62m0-2H38.19c-4.42 0-8 3.58-8 8v37.17c0 4.42 3.58 8 8 8H59.8c4.42 0 8-3.58 8-8V40c.01-4.42-3.58-8-7.99-8z" fill="#F5F5F5" opacity=".2"/><path d="M24.96 40.96c.26 0 .54.31.54.76v36.74c0 .44-.27.76-.52.76h-4.06c-.24 0-.52-.33-.52-.76v-31.9c0-4.34 2.16-5.25 4.49-5.6h.07m0-2c-.12 0-.23.01-.35.03-3.21.47-6.2 2.12-6.2 7.57v31.9c0 1.53 1.13 2.76 2.52 2.76h4.06c1.39 0 2.52-1.24 2.52-2.76V41.72c-.01-1.56-1.17-2.76-2.55-2.76zM72.75 40.96h.06c2.33.34 4.49 1.26 4.49 5.6v31.9c0 .44-.27.76-.52.76h-4.06c-.24 0-.52-.33-.52-.76V41.72c0-.46.28-.76.55-.76m0-2c-1.38 0-2.54 1.2-2.54 2.76v36.74c0 1.53 1.13 2.76 2.52 2.76h4.06c1.39 0 2.52-1.24 2.52-2.76v-31.9c0-5.46-2.99-7.1-6.2-7.57a2.38 2.38 0 0 0-.36-.03zM59.81 34c3.31 0 6 2.69 6 6v37.17c0 3.31-2.69 6-6 6H38.19c-3.31 0-6-2.69-6-6V40c0-3.31 2.69-6 6-6h21.62m0-2H38.19c-4.42 0-8 3.58-8 8v37.17c0 4.42 3.58 8 8 8H59.8c4.42 0 8-3.58 8-8V40c.01-4.42-3.58-8-7.99-8z" fill="#424242" opacity=".2"/></svg>