<svg viewBox="0 0 128 128" xmlns="http://www.w3.org/2000/svg" xmlns:xlink="http://www.w3.org/1999/xlink"><circle cx="63.9" cy="64.2" r="60" fill="#37474F"/><defs><circle id="a" cx="63.9" cy="64.2" r="60"/></defs><clipPath id="b"><use xlink:href="#a"/></clipPath><path clip-path="url(#b)" fill="#424242" d="M45.1 99h35.4l28 25.6-88.5-.8z"/><path clip-path="url(#b)" fill="#757575" d="M36 120H20l19-19.5 12.3.3zm56.4-.4l16.4-.3-19-19.4-12.8.3z"/><ellipse cx="43.9" cy="100.5" rx="4.9" ry="4.6" clip-path="url(#b)"/><ellipse cx="84.7" cy="100.5" rx="4.9" ry="4.6" clip-path="url(#b)"/><path d="M86 101.5H41.8a4 4 0 0 1 0-7.8H86a4 4 0 0 1 0 7.8z" clip-path="url(#b)" fill="#424242"/><linearGradient id="c" x1="63.9" x2="63.9" y1="20.6" y2="93.8" gradientUnits="userSpaceOnUse"><stop stop-color="#F5F5F5" offset=".1"/><stop stop-color="#E8E8E8" offset=".6"/><stop stop-color="#E0E0E0" offset=".9"/></linearGradient><path d="M91.3 97.5H36.5c-4.7 0-8.4-3.5-8.4-7.8V38.4C28 21 41.7 20 63.9 20c23.3 0 35.8 1 35.8 18.4v51.3c0 4.3-3.7 7.8-8.4 7.8z" clip-path="url(#b)" fill="url(#c)"/><g clip-path="url(#b)" opacity=".1"><path d="M64 23c25.3 0 32.7 2 32.7 15.4v51.3c0 2.7-2.4 4.8-5.4 4.8H36.5c-3 0-5.4-2.1-5.4-4.8V38.4c0-14 9.5-15.4 32.8-15.4m0-3c-22.2 0-35.8 1-35.8 18.4v51.3c0 4.3 3.7 7.8 8.4 7.8h54.9c4.6 0 8.3-3.5 8.3-7.8V38.4C99.8 21.1 87.3 20 64 20z" fill="#424242"/></g><path d="M52.1 33.3a3 3 0 0 0-3.3-3c-7.8.7-14 4-14 9.5V71a3 3 0 0 0 3 3H49a3 3 0 0 0 3-3V33.3zm23.7 0a3 3 0 0 1 3.3-3c7.8.7 14 4 14 9.5V71a3 3 0 0 1-3 3H78.9a3 3 0 0 1-3-3V33.3z" clip-path="url(#b)" fill="#4FC3F7"/><path d="M50.1 89.3H37a2 2 0 0 1-2-2v-6c0-1.1.9-2 2-2h13a2 2 0 0 1 2 2v6a2 2 0 0 1-2 2zm40.7 0h-13a2 2 0 0 1-2-2v-6c0-1.1.9-2 2-2h13a2 2 0 0 1 2 2v6a2 2 0 0 1-2 2z" clip-path="url(#b)" fill="#212121"/><path d="M68.3 28.3h-8.8a2 2 0 0 1-2-2V26c0-1.1 1-2 2-2h8.8a2 2 0 0 1 2 2v.3a2 2 0 0 1-2 2z" clip-path="url(#b)" fill="#FDD835"/><path d="M68.1 74H60a3 3 0 0 1-3-3V38.6a3 3 0 0 1 3-3h8a3 3 0 0 1 3 3v32.2a3 3 0 0 1-3 3z" clip-path="url(#b)" fill="#4FC3F7"/><circle cx="47.3" cy="84.5" r="2.7" clip-path="url(#b)" fill="#FDD835"/><circle cx="39.3" cy="84.5" r="2.7" clip-path="url(#b)" fill="#F44336"/><circle cx="88.3" cy="84.5" r="2.7" clip-path="url(#b)" fill="#F44336"/><circle cx="80.3" cy="84.5" r="2.7" clip-path="url(#b)" fill="#FDD835"/><path d="M64 8.2a56 56 0 1 1-.2 112 56 56 0 0 1 .1-112m0-4a60 60 0 1 0 0 120 60 60 0 0 0 0-120z" fill="#eee" opacity=".2"/><path d="M49.1 32.3c.6 0 1 .4 1 1V71c0 .6-.4 1-1 1H37.7a1 1 0 0 1-1-1V39.8c0-4.7 6.7-7 12.3-7.5h.1m0-2H49c-7.9.7-14.1 4-14.1 9.5V71a3 3 0 0 0 3 3H49a3 3 0 0 0 3-3V33.3a3 3 0 0 0-3-3zm29.7 2c5.8.5 12.4 2.8 12.4 7.5V71c0 .6-.5 1-1 1H78.8a1 1 0 0 1-1-1V33.3c0-.6.4-1 1-1m0-2a3 3 0 0 0-3 3V71a3 3 0 0 0 3 3h11.4a3 3 0 0 0 3-3V39.8c0-5.5-6.3-8.8-14.1-9.5h-.3zm-10.7 7.4c.6 0 1 .4 1 1v32.2c0 .6-.4 1-1 1H60a1 1 0 0 1-1-1V38.7c0-.6.4-1 1-1h8m0-2h-8a3 3 0 0 0-3 3v32.2a3 3 0 0 0 3 3h8a3 3 0 0 0 3-3V38.7a3 3 0 0 0-3-3z" fill="#424242" opacity=".2"/></svg>