<svg viewBox="0 0 128 128" xmlns="http://www.w3.org/2000/svg"><path fill="#BDBDBD" d="M76 105h16.5l31.5 11v8h-24z"/><path fill="#546E7A" d="M100 116l-20-12v4l20 16z"/><path fill="#E0E0E0" d="M100 116h24v8h-24z"/><path d="M92 108l29 10.1v2.9h-20l-16.4-13H92m.5-3H76l24 19h24v-8l-31.5-11z" fill="#424242" opacity=".2"/><path d="M114.4 25.6l-27-10.9c-1.9-.7-3.9.5-4.5 2.7s.2 4.5 2 5.2l20.1 8.2V114s1.1 1.8 4 1.8c3.6 0 4-1.8 4-1.8V33.6c1 .5 3.2-.7 3.8-2.7.6-2.2-.6-4.6-2.4-5.3z" fill="#546E7A"/><path d="M86.2 16.5h.4l27 11c.9.3 1.6 1.6 1.3 2.8-.2.8-1 1.3-1.3 1.4a2 2 0 0 0-1.7.2c-.5.4-.9 1-.9 1.7v79.8c-.2.1-.8.3-2 .3-1 0-1.6-.3-2-.5V30.8a2 2 0 0 0-1.2-1.9l-20.1-8.1c-.8-.3-1.2-1.7-.8-3 .2-.7.8-1.3 1.3-1.3m0-2c-1.4 0-2.8 1.1-3.3 2.9-.6 2.1.2 4.5 2 5.2l20.1 8.2V114s1.1 1.8 4 1.8c3.6 0 4-1.8 4-1.8V33.6h.5c1.1 0 2.8-1 3.3-2.7.6-2.2-.6-4.6-2.4-5.3l-27-10.9-1.2-.2z" fill="#424242" opacity=".2"/><path d="M21 112L5 124h88l-16-12s-56.3-.4-56 0z" fill="#424242"/><path d="M28.6 112L17 124h64l-11.6-12s-41-.4-40.8 0z" fill="#616161"/><path fill="#424242" d="M55 124H43l3-12h6z"/><path d="M29.6 113.8l46.8.3L87 122H11l10.7-8.1h7.9m0-2H21L5 124h88l-16-12-47.4-.2z" fill="#eee" opacity=".2"/><path fill="#546E7A" d="M49 29.4L31.4 10.1 33 8.8l16 17.8L65.5 8.4l1.4 1.3z"/><path d="M69.8 8H28.2c-4.8 0-8.7 3.6-8.7 8 0 .9.1 1.8.4 2.5 0 .2.2.5.4.5h2.2l.4-.4v-.5c-.3-.7-.4-1.2-.4-2 0-2.8 2.5-5 5.7-5h41.6c3.1 0 5.7 2.1 5.7 5 0 .7-.1 1.3-.4 2v.6c0 .2.3.3.4.3h2.2c.2 0 .4-.3.4-.5.3-.7.4-1.5.4-2.3 0-4.5-3.9-8.2-8.7-8.2zm3.4 108H25a4 4 0 0 1 0-8h48.3a4 4 0 0 1 4 4 4 4 0 0 1-4 4z" fill="#212121"/><path d="M69.8 8H28.2c-4.8 0-8.7 3.3-8.7 7.8 0 .8.1 1.8.4 2.6 0 .2.2.6.4.6h2.2l.4-.6v-.7c-.3-.6-.4-1-.4-1.7 0-3 2.5-5 5.7-5h4.1l16.8 18.4L65.7 11h4.1c3.1 0 5.7 2 5.7 4.9a4 4 0 0 1-.4 1.8v.8l.4.5h2.2c.2 0 .4-.6.4-.8a7 7 0 0 0 .4-2.2c0-4.5-3.9-8-8.7-8zM49 26.6L35 11h28L49 26.6z" fill="none" stroke="#eee" stroke-miterlimit="10" stroke-width="1.5" opacity=".2"/><linearGradient id="a" x1="49" x2="49" y1="24.2" y2="111.3" gradientUnits="userSpaceOnUse"><stop stop-color="#FFCA28" offset=".1"/><stop stop-color="#FFC21B" offset=".3"/><stop stop-color="#FFB707" offset=".7"/><stop stop-color="#FFB300" offset="1"/></linearGradient><path d="M76.6 112H21.4c-4.6 0-8.4-4.2-8.4-9.3V52c0-32 16-28 36-28s36-4 36 27.9v50.8c0 5.1-3.8 9.3-8.4 9.3z" fill="url(#a)"/><path d="M60.5 26.8c6.8 0 12.1.7 15.6 3.8C80.1 34 82 41 82 51.9v50.8c0 3.5-2.4 6.3-5.4 6.3H21.4c-3 0-5.4-2.8-5.4-6.3V52c0-11 2-18 5.9-21.4 3.5-3.1 8.8-3.8 15.7-3.8l5.3.1 6.1.1h6.1l5.4-.2m0-3L49 24l-11.4-.2C23.2 23.8 13 26.4 13 52v50.7c0 5.1 3.8 9.3 8.4 9.3h55.2c4.6 0 8.4-4.2 8.4-9.3V52c0-25.5-10.2-28-24.5-28z" fill="#424242" opacity=".2"/><path d="M27.5 41.7c0-1.7-1.4-3-2.9-2.7-3.2.4-6.2 2.1-6.2 7.5v32c0 1.5 1.1 2.7 2.5 2.7h4c1.5 0 2.6-1.2 2.6-2.8V41.7zm42.7 0c0-1.7 1.4-3 2.9-2.7 3.2.4 6.2 2.1 6.2 7.5v32c0 1.5-1.1 2.7-2.5 2.7h-4c-1.5 0-2.6-1.2-2.6-2.8V41.7zM59.8 85.2H38.2a8 8 0 0 1-8-8V40a8 8 0 0 1 8-8h21.6a8 8 0 0 1 8 8v37.2a8 8 0 0 1-8 8z" fill="#4FC3F7"/><path d="M33.4 100H21a4 4 0 0 1-4-3.9V96a4 4 0 0 1 4-4h12.4a4 4 0 0 1 4 4v.1a4 4 0 0 1-4 4zm31.6 0h12.4a4 4 0 0 0 4-3.9V96a4 4 0 0 0-4-4H65a4 4 0 0 0-4 4v.2a4 4 0 0 0 4 4z" fill="#212121"/><path d="M24.5 98.5h5.4a2.5 2.5 0 0 0 0-5h-5.4a2.5 2.5 0 0 0 0 5zm44 0h5.4a2.5 2.5 0 0 0 0-5h-5.4a2.5 2.5 0 0 0 0 5z" fill="#FFEE58"/><path d="M73.7 38.2h.1c4.7.7 5.4 3.5 5.4 6.6v36.1c0 .6-.4 1.1-.9 1.1h-4.6c-.5 0-.8-.5-.8-1.1V39.3c0-.7.4-1.1.8-1.1m0-2c-1.5 0-2.8 1.3-2.8 3V81c0 1.7 1.2 3.1 2.8 3.1h4.6c1.6 0 2.9-1.4 2.9-3.1V44.8c0-6.2-3.4-8-7-8.6h-.5zM59.8 34a6 6 0 0 1 6 6v37.2a6 6 0 0 1-6 6H38.2a6 6 0 0 1-6-6V40a6 6 0 0 1 6-6h21.6m0-2H38.2a8 8 0 0 0-8 8v37.2a8 8 0 0 0 8 8h21.6a8 8 0 0 0 8-8V40a8 8 0 0 0-8-8z" fill="#F5F5F5" opacity=".2"/><path d="M25 41c.2 0 .5.3.5.7v36.8c0 .4-.3.7-.5.7h-4c-.3 0-.6-.3-.6-.7v-32c0-4.3 2.2-5.2 4.5-5.5m0-2a2 2 0 0 0-.3 0c-3.2.5-6.2 2.1-6.2 7.6v31.9c0 1.5 1.1 2.7 2.5 2.7h4c1.5 0 2.6-1.2 2.6-2.7V41.7c0-1.5-1.2-2.7-2.5-2.7zm47.9 2c2.3.3 4.5 1.2 4.5 5.6v31.9c0 .4-.3.7-.5.7h-4c-.3 0-.6-.3-.6-.7V41.7c0-.4.3-.7.6-.7m0-2a2.7 2.7 0 0 0-2.6 2.7v36.8c0 1.5 1.1 2.7 2.5 2.7h4c1.5 0 2.6-1.2 2.6-2.7v-32c0-5.4-3-7-6.2-7.5h-.4zm-13-5a6 6 0 0 1 6 6v37.2a6 6 0 0 1-6 6H38.2a6 6 0 0 1-6-6V40a6 6 0 0 1 6-6h21.6m0-2H38.2a8 8 0 0 0-8 8v37.2a8 8 0 0 0 8 8h21.6a8 8 0 0 0 8-8V40a8 8 0 0 0-8-8z" fill="#424242" opacity=".2"/></svg>