<svg viewBox="0 0 128 128" xmlns="http://www.w3.org/2000/svg" xmlns:xlink="http://www.w3.org/1999/xlink"><linearGradient id="a" x1="64.1" x2="64.1" y1="45.8" y2="111.8" gradientUnits="userSpaceOnUse"><stop stop-color="#F5F5F5" offset="0"/><stop stop-color="#F1F1F1" offset=".3"/><stop stop-color="#E4E4E4" offset=".5"/><stop stop-color="#CFCFCF" offset=".8"/><stop stop-color="#BDBDBD" offset="1"/></linearGradient><path d="M124 80.4L117.1 48c-.5-2.6-2.4-4.4-4.6-4.4H41c-.7 0-3 0-4.8 2C30.7 52 21.4 70 20 71.8c-.1.1-7.4 2.7-10.7 4.7-1.3.8-2 2.5-2.2 4.2l-3 24.5c-.7 4.9 2 6.9 6.4 6.9h107.7c3.3 0 6-1 6-6.9V81.8c0-.4 0-1-.2-1.4z" fill="url(#a)"/><path fill="#9E9E9E" d="M124.2 99.9H4.8l.7-6h118.7z"/><defs><path id="b" d="M124 80.3l-6.9-32.2c-.5-2.6-2.4-4.4-4.6-4.4H41c-.7 0-3 0-4.8 2C30.7 52 21.4 70 20 71.8c-.1.1-7.4 2.6-10.7 4.6-1.3.8-2 2.5-2.2 4.3L4 105c-.7 4.8 2 6.8 6.4 6.8h107.7c3.3 0 6-.9 6-6.8V81.8c0-.5 0-1-.2-1.5z"/></defs><clipPath id="c"><use xlink:href="#b"/></clipPath><g clip-path="url(#c)"><path d="M123 95.7h-1.6c-1 0-1.6-.6-2-2.2l-.9-7.5c-.3-2.2.9-2.2 1.9-2.2h2.5c1.8 0 2 1 2 2.2v7.5c0 1.2 0 2.2-2 2.2z" fill="#F44336"/><path d="M14.7 88.3H2a2 2 0 0 1-2-2v-4.1c0-1.1.9-2 2-2h13.7a2 2 0 0 1 2 2l-1 4.1a2 2 0 0 1-2 2z" fill="#FFEE58"/></g><path d="M37.8 55.7h9.4c1.3 0 2.4 1.1 2.4 2.5v15c0 1.4-1 2.5-2.4 2.5H28.5c-2 0-3.2-2.4-2-4l9.4-15c.5-.6 1.2-1 2-1zm75.4 20H59.1a3 3 0 0 1-3-3v-14a3 3 0 0 1 3-3h50.3c1.6 0 2.5 1 3 3l3.5 14c.4 1.7-1 3-2.7 3z" fill="#546E7A"/><path d="M112.5 46.7c.7 0 1.5.9 1.7 2l7 32.3v24.1c0 1.7-.3 3-.8 3.4-.3.3-1 .5-2.2.5H10.5c-1.5 0-2.6-.3-3-.9-.6-.6-.5-1.8-.4-2.5v-.1l3-24.5c0-1.1.5-1.9.8-2 2.2-1.4 6.7-3.1 8.9-4 1.7-.6 2-.8 2.6-1.4a66 66 0 0 0 3.4-5.9c3.4-6 9-15.9 12.6-20 .8-.8 1.8-1 2.6-1h71.5m0-3H41c-.7 0-3 0-4.8 2C30.7 52 21.4 70 20 71.8c-.1.1-7.4 2.7-10.7 4.7-1.3.8-2 2.5-2.2 4.2l-3 24.5c-.7 4.9 2 6.9 6.4 6.9h107.7c3.3 0 6-1 6-6.9V81.8c0-.4 0-1-.2-1.4L117.1 48c-.5-2.6-2.4-4.4-4.6-4.4z" fill="#424242" opacity=".2"/><path d="M47.2 57.7c.2 0 .4.2.4.5v15c0 .3-.2.5-.4.5H28.5l-.4-.2V73l.1-.1v-.1l9.3-15h9.7m0-2h-9.4c-.7 0-1.4.3-1.9.9l-9.3 15c-1.3 1.6-.2 4 2 4h18.6c1.3 0 2.4-1 2.4-2.4v-15c0-1.5-1-2.6-2.4-2.6zm62.2 1.9c.4 0 .7 0 1 1.4v.1l3.6 14v.2a1 1 0 0 1-.8.3H59.1a1 1 0 0 1-1-1v-14c0-.5.5-1 1-1h50.3m0-2H59a3 3 0 0 0-3 3v14a3 3 0 0 0 3 3h54.1c1.6 0 3.1-1.2 2.7-3l-3.5-14c-.5-2-1.4-3-3-3z" fill="#424242" opacity=".2"/><circle cx="26.1" cy="114" r="10" fill="#4E342E"/><path d="M26 105a9 9 0 1 1 0 18 9 9 0 0 1 0-18m0-1a10 10 0 1 0 .1 20 10 10 0 0 0 0-20z" fill="#eee" opacity=".2"/><circle cx="26.1" cy="114" r="5.7" fill="#BDBDBD"/><circle cx="106.2" cy="114" r="10" fill="#4E342E"/><path d="M106.2 105a9 9 0 1 1 0 18 9 9 0 0 1 0-18m0-1a10 10 0 1 0 0 20 10 10 0 0 0 0-20z" fill="#eee" opacity=".2"/><circle cx="106.2" cy="114" r="5.7" fill="#BDBDBD"/></svg>