<svg viewBox="0 0 128 128" xmlns="http://www.w3.org/2000/svg" xmlns:xlink="http://www.w3.org/1999/xlink"><path d="M67.8 59c-1 0-1.8.9-1.8 2.2v5c0 1.4.7 2.8 1.8 2.8H74V59h-6.2z" fill="#F44336"/><path d="M87.8 59H82v10h5.8c1.1 0 2.2-1.4 2.2-2.7v-5.1c0-1.3-1-2.2-2.2-2.2z" fill="#424242"/><path fill="#E0E0E0" d="M74 59h8v10h-8z"/><path d="M68 59c-1.1 0-2 1-2 2.3v5.1c0 1.3.9 2.6 2 2.6h6V59h-6z" fill="#F44336"/><path d="M88 59h-6v10h6c1.1 0 2-1.3 2-2.6v-5.1c0-1.3-.9-2.3-2-2.3z" fill="#1565C0"/><path fill="#F5F5F5" d="M74 59h8v10h-8z"/><path d="M88 61v6H68v-6h20m0-2H68a2 2 0 0 0-2 2v5.9c0 1.1 1 2 2 2h20c1 0 2-.9 2-2v-6c0-1-1-1.9-2-1.9z" fill="#424242" opacity=".2"/><linearGradient id="a" x1="64" x2="64" y1="70.2" y2="114.9" gradientUnits="userSpaceOnUse"><stop stop-color="#fff" offset=".1"/><stop stop-color="#BDBDBD" offset=".9"/></linearGradient><path d="M124 90v20.7c0 2.8-1 5.2-4 5.2l-106.8.3c-3.5 0-9.4-1-9.2-7.8L4.4 97c.5-7 4.7-9.6 15.2-11 13.4-1.6 14.7-5.6 18.7-8.6C47 70.8 52 66 75.5 66c17.3 0 30.4 5.8 38.7 15.9.4.4 3 1.7 7 3.3 1.5.6 2.8 1.7 2.8 4.8z" fill="url(#a)"/><defs><path id="b" d="M124 90v20.7c0 2.8-1 5.2-4 5.2l-106.8.3c-3.5 0-9.4-1-9.2-7.8L4.4 97c.5-7 4.7-9.6 15.2-11 13.4-1.6 14.7-5.6 18.7-8.6C47 70.8 52 66 75.5 66c17.3 0 30.4 5.8 38.7 15.9.4.4 3 1.7 7 3.3 1.5.6 2.8 1.7 2.8 4.8z"/></defs><clipPath id="c"><use xlink:href="#b"/></clipPath><path clip-path="url(#c)" d="M1.8 97.3H135v33.5H1.8z"/><path d="M0 102h9.7c4.6 0 5.8-1.3 6.8-3.7 0 0 2.2-4.3-3.5-4.3H3.3c-1.6 2-3 4.5-3.3 8z" clip-path="url(#c)" fill="#FFEB3B"/><path d="M122.9 99.5h-1.3c-.8 0-1.2-.6-1.5-2l-.7-6.4c-.2-2 .7-2 1.5-2h2c1.4 0 1.5.9 1.5 2v6.4c0 1.1 0 2-1.5 2z" clip-path="url(#c)" fill="#E53935"/><path d="M73 71.8c-15 0-30.1 7.7-34.4 15.5-.5 1 .3 2.1 1.5 2.1h33.2c1 0 1.6-.7 1.6-1.5V73.3c0-.9-.8-1.5-1.9-1.5zm8.8 0a27 27 0 0 1 25.4 15.5c.5 1-.3 2.1-1.4 2.1H81.6c-.8 0-1.5-.7-1.5-1.5V76.2c0-3 .2-4.4 1.7-4.4z" fill="#546E7A"/><path d="M75.5 69c15.8 0 28.4 5.1 36.4 14.8.3.4 1.2 1.5 8.3 4.2.4.2.8.4.8 2v20.7c0 2.2-.7 2.2-1 2.2l-106.8.3c-1.4 0-4-.2-5.3-1.5-.6-.7-1-1.8-.9-3.2l.4-11.3c.3-4.6 2.2-6.8 12.6-8.1 11.6-1.5 15.2-4.9 18-7.6l2-1.7 1.6-1.1c7.7-5.9 12.8-9.7 33.9-9.7m0-3C52 66 47 70.8 38.2 77.4c-3.9 3-5.2 7-18.6 8.7C9 87.4 4.9 90 4.4 97L4 108.4c-.3 6.8 5.6 7.8 9.1 7.8L120 116c3 0 4-2.4 4-5.2V90c0-3-1.3-4.2-2.8-4.8-4-1.6-6.6-2.9-7-3.3-8.3-10-21.4-15.9-38.7-15.9z" fill="#424242" opacity=".2"/><defs><path id="d" d="M1.6 97.3H126v28.9H1.6z"/></defs><clipPath id="e"><use xlink:href="#d"/></clipPath><g clip-path="url(#e)" opacity=".2"><path d="M75.5 69c15.8 0 28.4 5.1 36.4 14.8.3.4 1.2 1.5 8.3 4.2.4.2.8.4.8 2v20.7c0 2.2-.7 2.2-1 2.2l-106.8.3c-1.4 0-4-.2-5.3-1.5-.6-.7-1-1.8-.9-3.2l.4-11.3c.3-4.6 2.2-6.8 12.6-8.1 11.6-1.5 15.2-4.9 18-7.6l2-1.7 1.6-1.1c7.7-5.9 12.8-9.7 33.9-9.7m0-3C52 66 47 70.8 38.2 77.4c-3.9 3-5.2 7-18.6 8.7C9 87.4 4.9 90 4.4 97L4 108.4c-.3 6.8 5.6 7.8 9.1 7.8L120 116c3 0 4-2.4 4-5.2V90c0-3-1.3-4.2-2.8-4.8-4-1.6-6.6-2.9-7-3.3-8.3-10-21.4-15.9-38.7-15.9z" fill="#eee"/></g><circle cx="102.8" cy="114" r="10" fill="#4E342E"/><path d="M102.8 105a9 9 0 1 1 0 18 9 9 0 0 1 0-18m0-1a10 10 0 1 0 0 20 10 10 0 0 0 0-20z" fill="#eee" opacity=".2"/><circle cx="102.8" cy="114" r="5.7" fill="#BDBDBD"/><circle cx="31.7" cy="114" r="10" fill="#4E342E"/><path d="M31.7 105a9 9 0 1 1 0 18 9 9 0 0 1 0-18m0-1a10 10 0 1 0 0 20 10 10 0 0 0 0-20z" fill="#eee" opacity=".2"/><circle cx="31.7" cy="114" r="5.7" fill="#BDBDBD"/><path d="M73 73.8v13.6H40.9c2-3.2 6.3-6.4 11.7-9 6.4-3 13.6-4.5 20.4-4.6m0-2c-15 0-30.1 7.7-34.4 15.5-.5 1 .3 2.1 1.5 2.1h33.2c1 0 1.6-.7 1.6-1.5V73.3c0-.9-.8-1.5-1.8-1.5zm9.2 2A25 25 0 0 1 105 87.4H82.1V76.2l.1-2.4m-.4-2c-1.5 0-1.7 1.3-1.7 4.4V88c0 .8.7 1.5 1.5 1.5h24.2c1.1 0 1.9-1.2 1.4-2.1a26.8 26.8 0 0 0-25.4-15.5z" fill="#424242" opacity=".2"/></svg>