<svg viewBox="0 0 128 128" xmlns="http://www.w3.org/2000/svg"><path fill="#455A64" d="M4 12h120v12H4z"/><path fill="#E0E0E0" d="M6 16h118v4H6z"/><path d="M122 14v8H6v-8h116m2-2H4v12h120V12z" fill="#eee" opacity=".2"/><path d="M60.8 20a6 6 0 0 0 0-12H40.4a6 6 0 0 0 0 12H47v12h-2.4l-1.2 4H39c-1.5 0-2.8 1.5-2.8 3s1.3 3 2.8 3h23c1.5 0 2.7-1.5 2.7-3s-1.2-3-2.7-3h-4l-1-4h-2V20h5.8zm51.4 0a6 6 0 0 0 0-12H92a6 6 0 0 0 0 12h6v12h-2l-1.2 4h-4.3c-1.5 0-2.7 1.5-2.7 3s1.2 3 2.7 3h23c1.6 0 2.8-1.5 2.8-3s-1.2-3-2.8-3h-4l-1.2-4H106V20h6.2z" fill="#90A4AE"/><path d="M60.9 10c2.1 0 3.8 1.8 3.8 4s-1.8 4-4 4H55a2 2 0 0 0-2 2v12c0 1.1.9 2 2 2h.4l.8 2.6a2 2 0 0 0 2 1.4H62c.3 0 .7.5.7 1s-.4 1-.7 1H39c-.3 0-.8-.5-.8-1s.5-1 .8-1h4.3a2 2 0 0 0 1.9-1.4L46 34h.9a2 2 0 0 0 2-2V20a2 2 0 0 0-2-2h-6.6a4 4 0 0 1 .1-8H61m-.3-2H40.5a6 6 0 0 0 0 12H47v12h-2.4l-1.2 4H39c-1.5 0-2.8 1.5-2.8 3s1.3 3 2.8 3h23c1.5 0 2.7-1.5 2.7-3s-1.2-3-2.7-3h-4l-1-4h-2V20h5.8a6 6 0 0 0 0-12zm51.4 2c2.1 0 4 1.8 4 4s-1.8 4-3.9 4H106a2 2 0 0 0-2 2v12c0 1.1.9 2 2 2h.9l.8 2.6a2 2 0 0 0 1.9 1.4h4c.3 0 .7.5.7 1s-.4 1-.8 1h-23c-.3 0-.7-.5-.7-1s.4-1 .8-1h4.2a2 2 0 0 0 2-1.4l.8-2.6h.4a2 2 0 0 0 2-2V20a2 2 0 0 0-2-2h-6.1c-2.1 0-4-1.8-4-4s1.8-4 4-4H112m.2-2H92a6 6 0 0 0 0 12h6v12h-2l-1.2 4h-4.3c-1.5 0-2.7 1.5-2.7 3s1.2 3 2.7 3h23c1.6 0 2.8-1.5 2.8-3s-1.2-3-2.8-3h-4l-1.2-4H106V20h6.2a6 6 0 0 0 0-12z" fill="#424242" opacity=".2"/><linearGradient id="a" x1="68.2" x2="68.2" y1="42.8" y2="104" gradientUnits="userSpaceOnUse"><stop stop-color="#EF5350" offset=".1"/><stop stop-color="#DB3938" offset=".6"/><stop stop-color="#D32F2F" offset=".9"/></linearGradient><path d="M124 40H28a8 8 0 0 0-8 8l-7.5 56.3H124V40z" fill="url(#a)"/><path d="M124 104.3H12.5L12 108a8 8 0 0 0 8 8h104v-11.7z" fill="#E0E0E0"/><path d="M124 113H20c-2.8 0-5-2-5-4.6l.5-3.6L23 48.2v-.4c0-2.7 2.2-4.8 5-4.8h96v-3H28c-4.4 0-8 3.4-8 7.8l-7.5 56.6-.5 3.9c0 4.4 3.6 7.7 8 7.7h104v-3z" fill="#424242" opacity=".2"/><path d="M112 92H96.6a4 4 0 0 1-4-4V56a4 4 0 0 1 4-4H112a4 4 0 0 1 4 4v32a4 4 0 0 1-4 4zm-31.2 0H65.4a4 4 0 0 1-4-4V56a4 4 0 0 1 4-4h15.4a4 4 0 0 1 4 4v32a4 4 0 0 1-4 4zm-31.4 0H29.8c-2.1 0-3.6-1.6-3.3-3.6L31 55.6c.3-2 2.2-3.6 4.3-3.6h15c2.1 0 3.6 1.6 3.3 3.6v32.8c-.2 2-2.2 3.6-4.2 3.6z" fill="#4FC3F7"/><path d="M112 92H96.6a4 4 0 0 1-4-4V56a4 4 0 0 1 4-4H112a4 4 0 0 1 4 4v32a4 4 0 0 1-4 4zm-31.2 0H65.4a4 4 0 0 1-4-4V56a4 4 0 0 1 4-4h15.4a4 4 0 0 1 4 4v32a4 4 0 0 1-4 4zm-31.4 0H29.8c-2.1 0-3.6-1.6-3.3-3.6L31 55.6c.3-2 2.2-3.6 4.3-3.6h15c2.1 0 3.6 1.6 3.3 3.6v32.8c-.2 2-2.2 3.6-4.2 3.6z" fill="none"/><path d="M112 55c.5 0 1 .5 1 1v32c0 .5-.5 1-1 1H96.6a1 1 0 0 1-1-1V56c0-.5.5-1 1-1H112m0-3H96.6a4 4 0 0 0-4 4v32a4 4 0 0 0 4 4H112a4 4 0 0 0 4-4V56a4 4 0 0 0-4-4zm-31.2 3c.6 0 1 .5 1 1v32c0 .5-.4 1-1 1H65.4a1 1 0 0 1-1-1V56c0-.5.5-1 1-1h15.4m0-3H65.4a4 4 0 0 0-4 4v32a4 4 0 0 0 4 4h15.4a4 4 0 0 0 4-4V56a4 4 0 0 0-4-4zm-30.5 3h.3v33.1c-.1.4-.7.9-1.3.9H29.5v-.2L34 56c0-.4.6-1 1.3-1h15m0-3h-15c-2.1 0-4 1.6-4.3 3.6l-4.5 32.8c-.3 2 1.2 3.6 3.3 3.6h19.6c2 0 4-1.6 4.2-3.6V55.6c.3-2-1.2-3.6-3.3-3.6z" fill="#424242" opacity=".2"/></svg>