<svg viewBox="0 0 128 128" xmlns="http://www.w3.org/2000/svg" xmlns:xlink="http://www.w3.org/1999/xlink"><linearGradient id="a" x1="22.9" x2="22.9" y1="70.8" y2="115" gradientUnits="userSpaceOnUse"><stop stop-color="#EF5350" offset="0"/><stop stop-color="#EA4D4A" offset=".3"/><stop stop-color="#DC3A3A" offset=".8"/><stop stop-color="#D32F2F" offset="1"/></linearGradient><path d="M35.1 69h-8c-1 0-2 .2-2.9.7l-13.4 6.7c-2 1-3.5 3.2-3.8 5.6l-3 25c-.9 6.5 1.4 8 6.6 8H42V76.2c0-5.5 0-7.2-6.9-7.2z" fill="url(#a)"/><path d="M29.4 74.8a1 1 0 0 0-1.6-1L13 80.3c-1.3.6-2.2 2-2.4 3.5L10 89a1 1 0 0 0 1 1.2h17.3c.6 0 1.1-.5 1.1-1V74.7z" fill="#546E7A"/><defs><path id="b" d="M35.1 69h-8c-1 0-2 .2-2.9.7l-13.4 6.7c-2 1-3.5 3.2-3.8 5.6l-3 25c-.9 6.5 1.4 8 6.6 8H42V76.2c0-5.5 0-7.2-6.9-7.2z"/></defs><clipPath id="c"><use xlink:href="#b"/></clipPath><path clip-path="url(#c)" fill="#B71C1C" d="M2 96h40.4v10H2z"/><g clip-path="url(#c)"><path d="M7.4 103.9H-.4c-.6 0-1.2-.6-1.3-1.2L-2 100a1 1 0 0 1 1-1h8.4c.7 0 1.3.5 1.4 1.2l-.3 2.6a1 1 0 0 1-1.1 1.2z" fill="#FFEE58"/></g><path d="M35 71c3.2 0 4.3.4 4.5.8.5.5.5 2.3.5 4.4V113H10.5c-2.2 0-3.6-.3-4.2-1-.6-.7-.8-2.3-.4-4.7l3.1-25a5.2 5.2 0 0 1 2.7-4.1l13.4-6.7c.6-.3 1.3-.5 2-.5H35m.1-2h-8c-1 0-2 .2-2.9.7l-13.4 6.7c-2 1-3.5 3.2-3.8 5.6l-3 25c-.9 6.5 1.5 8 6.6 8H42V76.2c0-5.5 0-7.2-6.9-7.2z" fill="#424242" opacity=".2"/><path fill="#263238" d="M36.2 109.8h87.9v5.2H36.2z"/><path d="M27.4 76.2v12H12.1l.5-4.2c.1-.9.6-1.7 1.3-2l13.5-5.8m1-2.5c-.2 0-.4 0-.6.2L13 80.2c-1.3.6-2.2 2-2.4 3.5L10 89a1 1 0 0 0 1 1.3h17.3c.6 0 1.1-.5 1.1-1.1V74.8c0-.6-.5-1-1-1z" fill="#424242" opacity=".2"/><linearGradient id="d" x1="80.1" x2="80.1" y1="45.7" y2="109.6" gradientUnits="userSpaceOnUse"><stop stop-color="#EF5350" offset="0"/><stop stop-color="#EA4D4A" offset=".3"/><stop stop-color="#DC3A3A" offset=".8"/><stop stop-color="#D32F2F" offset="1"/></linearGradient><path d="M124 109.8H36.2V48a4 4 0 0 1 4-4H120a4 4 0 0 1 4 4v61.8z" fill="url(#d)"/><path d="M120 47c.5 0 1 .5 1 1v58.8H39.3V48c0-.5.4-1 1-1H120m0-3H40.2a4 4 0 0 0-4 4v61.8H124V48a4 4 0 0 0-4-4z" fill="#424242" opacity=".2"/><circle cx="111.7" cy="115.3" r="8.7" fill="#4E342E"/><path d="M111.7 108.7a6.7 6.7 0 1 1 0 13.3 6.7 6.7 0 0 1 0-13.3m0-2a8.6 8.6 0 1 0 0 17.3 8.6 8.6 0 0 0 0-17.3z" fill="#eee" opacity=".2"/><circle cx="111.7" cy="115.3" r="3.5" fill="#BDBDBD"/><circle cx="22.6" cy="115.3" r="8.7" fill="#4E342E"/><path d="M22.6 108.7a6.7 6.7 0 1 1 0 13.3 6.7 6.7 0 0 1 0-13.3m0-2a8.6 8.6 0 1 0 0 17.3 8.6 8.6 0 0 0 0-17.3z" fill="#eee" opacity=".2"/><circle cx="22.6" cy="115.3" r="3.5" fill="#BDBDBD"/><circle cx="53.6" cy="115.3" r="8.7" fill="#4E342E"/><path d="M53.6 108.7a6.7 6.7 0 1 1 0 13.3 6.7 6.7 0 0 1 0-13.3m0-2a8.6 8.6 0 1 0 0 17.3 8.6 8.6 0 0 0 0-17.3z" fill="#eee" opacity=".2"/><circle cx="53.6" cy="115.3" r="3.5" fill="#BDBDBD"/><circle cx="71.7" cy="115.3" r="8.7" fill="#4E342E"/><path d="M71.7 108.7a6.7 6.7 0 1 1 0 13.3 6.7 6.7 0 0 1 0-13.3m0-2a8.6 8.6 0 1 0 0 17.3 8.6 8.6 0 0 0 0-17.3z" fill="#eee" opacity=".2"/><circle cx="71.7" cy="115.3" r="3.5" fill="#BDBDBD"/><path fill="none" stroke="#E57373" stroke-linecap="round" stroke-linejoin="round" stroke-miterlimit="10" stroke-width="3" d="M50.5 50v54m14-54v54m15-54v54m14-54v54m15-54v54"/></svg>