<svg viewBox="0 0 128 128" xmlns="http://www.w3.org/2000/svg" xmlns:xlink="http://www.w3.org/1999/xlink"><path d="M37.2 28c-3 0-5.5 2.1-5.5 4.6v2.1c0 2.6 2.5 4.6 5.5 4.6h16.5L53.6 28H37.2z" fill="#E53935"/><path fill="#E0E0E0" d="M53.6 28v11.4h22V28z"/><path d="M92.1 28H75.7v11.3H92c3 0 5.5-2 5.5-4.6v-2c0-2.6-2.5-4.7-5.5-4.7z" fill="#1565C0"/><path d="M22 69l.1-3.1c0-2.7-2.7-3-4.6-3H8.2c-1.8 0-3 2.7-3.5 6S8.3 72 10.1 72h9.2c1.9 0 3-1.4 2.8-3z" fill="#212121"/><path d="M17.6 64.3c3 0 3 1.1 3 1.6v3.3c0 .4 0 .7-.2.9-.2.3-.6.4-1 .4H9.2c-2.1 0-2.8-.3-3-.6-.2-.1-.2-.4-.2-.7.5-3.5 1.6-4.9 2-4.9h9.5m0-1.5H8c-1.8 0-3 2.8-3.5 6.2-.4 2.8 2.6 3 4.7 3h10c1.9 0 3-1.4 2.8-3v-3.1c0-2.7-2.7-3-4.5-3z" fill="#eee" opacity=".2"/><path d="M92.1 30c2 0 3.9 1.2 3.9 2.6v2.1c0 1.5-1.9 2.3-3.9 2.3H37.2c-2 0-4.2-.8-4.2-2.3v-2c0-1.5 2.2-2.7 4.2-2.7H92m.1-2H37.2c-3 0-5.2 2.1-5.2 4.7v2c0 2.6 2.2 4.3 5.2 4.3h55c3 0 5.8-1.7 5.8-4.3v-2c0-2.6-2.7-4.7-5.7-4.7H92z" fill="#424242" opacity=".2"/><path d="M106 69v-3.1c0-2.7 2.7-3 4.5-3h9.5c1.8 0 3 2.7 3.5 6 .4 3.4-3.7 3.1-5.6 3.1h-9.1c-1.9 0-3.1-1.4-2.8-3z" fill="#212121"/><path d="M120 64.3c.4 0 1.5 1.5 2 4.9l-.1.7c-.3.3-1 .6-3 .6h-10.1c-.5 0-.9-.1-1.1-.4a.8.8 0 0 1-.2-.8v-3.4c0-.5 0-1.5 3-1.5h9.5m0-1.6h-9.5c-1.8 0-4.5.4-4.5 3.1v3c-.3 1.7 1 3.1 2.8 3.1h10.1c2 0 5-.2 4.5-3-.4-3.4-1.6-6.2-3.4-6.2z" fill="#eee" opacity=".2"/><path d="M24.9 124h-6.3a5.3 5.3 0 0 1-5.2-5.2v-7.7c0-2.9 2.3-5.3 5.2-5.3h6.2c3 0 5.3 2.4 5.3 5.3v7.7c0 3-2.4 5.3-5.3 5.3zm84.6 0H103a5.3 5.3 0 0 1-5.3-5.2v-7.7c0-2.9 2.4-5.3 5.3-5.3h6.5c2.8 0 5.2 2.4 5.2 5.3v7.7c0 3-2.4 5.3-5.2 5.3z" fill="#4E342E"/><path d="M24.9 107.8c1.7 0 3.2 1.5 3.2 3.3v7.8c0 1.7-1.5 3.2-3.3 3.2h-6.2a3.3 3.3 0 0 1-3.2-3.3v-7.7c0-1.8 1.4-3.3 3.2-3.3h6.2m0-2h-6.2a5.3 5.3 0 0 0-5.2 5.3v7.8c0 2.8 2.3 5.2 5.2 5.2h6.2c3 0 5.3-2.4 5.3-5.3v-7.7c0-2.9-2.4-5.3-5.3-5.3zm84.7 2c1.7 0 3.2 1.5 3.2 3.3v7.8c0 1.7-1.5 3.2-3.2 3.2H103a3.3 3.3 0 0 1-3.3-3.3v-7.7c0-1.8 1.5-3.3 3.3-3.3h6.5m0-2H103a5.3 5.3 0 0 0-5.3 5.3v7.8c0 2.8 2.4 5.2 5.3 5.2h6.5c2.8 0 5.2-2.4 5.2-5.3v-7.7c0-2.9-2.4-5.3-5.2-5.3z" fill="#eee" opacity=".2"/><linearGradient id="a" x1="64" x2="64" y1="36" y2="117.2" gradientUnits="userSpaceOnUse"><stop stop-color="#eee" offset=".1"/><stop stop-color="#E5E5E5" offset=".2"/><stop stop-color="#C8C8C8" offset=".7"/><stop stop-color="#BDBDBD" offset=".9"/></linearGradient><path d="M110.3 72L104 42c-.9-3.9-2.7-6-6-6H30c-3.3 0-5.4 2.4-6 6l-6.3 30c-3.2.2-5.7 2.6-5.7 5.5V105c0 4.5 6.2 11.1 12 11.1 0 0 10.3 1.2 38.2 1.2S100 116 100 116c12 0 16-6.4 16-10.7V77.5c0-3-2.5-5.3-5.7-5.5z" fill="url(#a)"/><defs><path id="b" d="M100 116.2s-10.4 1.6-36 1.6-40-1.6-40-1.6c-5.8 0-12-6.6-12-11.2V77.5c0-3 2.7-5.5 6-5.5h92c3.4 0 6 2.5 6 5.5V105c0 4.4-4 11.2-16 11.2z"/></defs><clipPath id="c"><use xlink:href="#b"/></clipPath><g clip-path="url(#c)"><linearGradient id="d" x1="64.3" x2="64.3" y1="89.5" y2="114" gradientUnits="userSpaceOnUse"><stop stop-color="#424242" offset="0"/><stop stop-color="#393939" offset=".2"/><stop stop-color="#272727" offset=".7"/><stop stop-color="#212121" offset="1"/></linearGradient><path fill="url(#d)" d="M8 88.1h112.6v29.1H8z"/></g><path d="M98 39c.9 0 2.3 0 3 3.6l6.4 30a3 3 0 0 0 2.8 2.4c1.5.1 2.8 1.2 2.8 2.5v27.8c0 2.6-2.7 7.7-13 7.7h-.4s-10.1 1.2-37.4 1.2c-27.3 0-37.7-1.2-37.8-1.2H24c-4.2 0-9-5.3-9-8V77.4c0-1.3 1.3-2.4 2.8-2.5a3 3 0 0 0 2.8-2.4l6.3-30v-.1c.4-2.3 1.5-3.5 3.1-3.5h68m0-3H30c-3.3 0-5.4 2.4-6 6l-6.3 30c-3.2.2-5.7 2.6-5.7 5.5V105c0 4.5 6.2 11.1 12 11.1 0 0 10.3 1.2 38.2 1.2 28 0 37.8-1.2 37.8-1.2 12 0 16-6.4 16-10.7V77.5c0-3-2.5-5.3-5.7-5.5L104 42c-.9-3.9-2.7-6-6-6z" fill="#424242" opacity=".2"/><path d="M17.5 87.3c0-5.6 2.2-6.2 11.1-4.2 10.2 2.4 11.1 2.8 11.1 5.6 0 3.3-4.1 3.6-6 3.6H23.4c-3.8 0-6-.9-6-5zm93 0c0-5.6-2.2-6.2-11-4.2-10.3 2.4-11.2 2.8-11.2 5.6 0 3.3 4.1 3.6 6.1 3.6h10.1c3.9 0 6-.9 6-5z" fill="#FFEB3B"/><path d="M102.3 71L97 47c-.4-2.2-2.2-4.6-5-4.6H36c-2.7 0-4.4 2.3-5 4.7l-5.3 24s9-1.7 38.3-1.7 38.3 1.6 38.3 1.6z" fill="#546E7A"/><path d="M96 108.1H28.4a4 4 0 0 1-4-4v-1.4a4 4 0 0 1 4-4H96a4 4 0 0 1 4 4v1.4a4 4 0 0 1-4 4z" fill="#424242"/><path d="M92 45.5c1 0 1.8 1.3 1.9 2.1v.1l4.4 19.7c-5.3-.5-15.8-1.1-34.3-1.1s-28.9.6-34.2 1l4.4-19.6s.5-2.2 1.8-2.2h56m0-3.1H36c-2.7 0-4.4 2.3-5 4.7l-5.2 24s8.9-1.7 38.2-1.7 38.3 1.6 38.3 1.6L97 47c-.4-2.2-2.2-4.6-5-4.6zM21.8 84c1.3 0 3.3.4 6.4 1.1 4.3 1 7.5 1.8 8.9 2.5.6.3.6.3.6 1.1 0 1.5-2.8 1.6-4 1.6H23.4c-3.3 0-4-.5-4-3 0-3.2.7-3.2 2.3-3.2m0-2c-3.3 0-4.3 1.5-4.3 5.2 0 4.1 2.2 5 6 5h10.1c2 0 6.1-.3 6.1-3.6 0-2.8-.9-3.2-11-5.6-3-.6-5.3-1-7-1zm84.6 1.9c1.6 0 2.2 0 2.2 3.3 0 2.5-.7 3-4 3H94.4c-1.2 0-4-.2-4-1.6 0-.9 0-.9.5-1.2a55 55 0 0 1 15.4-3.4m0-2a39 39 0 0 0-6.9 1c-10.2 2.4-11 2.8-11 5.6 0 3.3 4 3.6 6 3.6h10.1c3.9 0 6-.9 6-5 0-3.7-1-5.2-4.2-5.2z" fill="#424242" opacity=".2"/><defs><path id="e" d="M3.5 88H122v38.5H3.5z"/></defs><clipPath id="f"><use xlink:href="#e"/></clipPath><g clip-path="url(#f)"><path d="M98 39c.9 0 2.3 0 3 3.6l6.4 30a3 3 0 0 0 2.8 2.4c1.5.1 2.8 1.2 2.8 2.5v27.8c0 2.6-2.7 7.7-13 7.7h-.4s-10.1 1.2-37.4 1.2c-27.3 0-37.7-1.2-37.8-1.2H24c-4.2 0-9-5.3-9-8V77.4c0-1.3 1.3-2.4 2.8-2.5a3 3 0 0 0 2.8-2.4l6.3-30v-.1c.4-2.3 1.5-3.5 3.1-3.5h68m0-3H30c-3.3 0-5.4 2.4-6 6l-6.3 30c-3.2.2-5.7 2.6-5.7 5.5V105c0 4.5 6.2 11.1 12 11.1 0 0 10.3 1.2 38.2 1.2 28 0 37.8-1.2 37.8-1.2 12 0 16-6.4 16-10.7V77.5c0-3-2.5-5.3-5.7-5.5L104 42c-.9-3.9-2.7-6-6-6z" fill="#eee" opacity=".2"/></g></svg>