<svg viewBox="0 0 128 128" xmlns="http://www.w3.org/2000/svg" xmlns:xlink="http://www.w3.org/1999/xlink"><path d="M4 44l29.1-25c10.9-9 11.5-8 19-3.3l32 20.5 19-19.5c3.7-4.5 6.2-7.4 11-.9l9.9 12.3V124H4V44z" fill="#81C784"/><path d="M109 15s1 .3 2.6 2.6v.1l9.4 11.5V121H7V45.4l28-24c4.7-4 7.8-6.2 9.5-6.2 1.1 0 2.7 1 5.2 2.6l.7.4 32.2 20.5c.5.3 1 .5 1.6.5a3 3 0 0 0 2.1-1l19-19.4.2-.2c.8-1 2.8-3.5 3.5-3.6m0-3c-2 0-3.7 2-5.9 4.7l-19 19.5-32-20.5c-3.4-2.1-5.4-3.5-7.6-3.5-2.6 0-5.5 2-11.4 6.8l-29 25v80H124V28.1l-10-12.3c-2-2.7-3.5-3.8-5-3.8z" fill="#424242" opacity=".2"/><path fill="#8D6E63" d="M4 101h119.8v23H4z"/><path fill="#424242" d="M4 101h119.9v7H4z"/><path d="M121.9 103v19H6v-19h116m2-2H4v23h120v-23z" fill="#eee" opacity=".2"/><circle cx="33" cy="99" r="6"/><circle cx="50" cy="99" r="6"/><circle cx="101" cy="99" r="6"/><circle cx="118" cy="99" r="6"/><path d="M20 37v55a6 6 0 0 0 6 6h98V37H20z" fill="#FFF8E1"/><path d="M64 68.3h-8a4 4 0 0 1-4-4V48.1a4 4 0 0 1 4-4h8a4 4 0 0 1 4 4v16a4 4 0 0 1-4 4zm24 0h-8a4 4 0 0 1-4-4V48.1a4 4 0 0 1 4-4h8a4 4 0 0 1 4 4v16a4 4 0 0 1-4 4zm24 0h-8.1a4 4 0 0 1-4-4V48.1a4 4 0 0 1 4-4h8.1a4 4 0 0 1 4 4v16a4 4 0 0 1-4 4z" fill="#4FC3F7"/><defs><path id="a" d="M20 37v55a6 6 0 0 0 6 6h98V37H20z"/></defs><clipPath id="b"><use xlink:href="#a"/></clipPath><linearGradient id="c" x1="72" x2="72" y1="73.3" y2="100" gradientUnits="userSpaceOnUse"><stop stop-color="#EF5350" offset="0"/><stop stop-color="#D32F2F" offset="1"/></linearGradient><path clip-path="url(#b)" fill="url(#c)" d="M20 74.1h104v31.7H20z"/><path d="M64 46.2a2 2 0 0 1 2 2v16a2 2 0 0 1-2 2h-8a2 2 0 0 1-2-2v-16c0-1.1.8-2 2-2h8m0-2h-8a4 4 0 0 0-4 4v16a4 4 0 0 0 4 4h8a4 4 0 0 0 4-4v-16a4 4 0 0 0-4-4zm24 2a2 2 0 0 1 2 2v16a2 2 0 0 1-2 2h-8a2 2 0 0 1-2-2v-16c0-1.1.9-2 2-2h8m0-2h-8a4 4 0 0 0-4 4v16a4 4 0 0 0 4 4h8a4 4 0 0 0 4-4v-16a4 4 0 0 0-4-4zm24 2a2 2 0 0 1 2 2v16a2 2 0 0 1-2 2h-8.1a2 2 0 0 1-2-2v-16c0-1.1.9-2 2-2h8.1m0-2h-8.1a4 4 0 0 0-4 4v16a4 4 0 0 0 4 4h8.1a4 4 0 0 0 4-4v-16a4 4 0 0 0-4-4z" fill="#424242" opacity=".2"/><path d="M40 70H20V44h20a4 4 0 0 1 4 4v18a4 4 0 0 1-4 4z" fill="#4FC3F7"/><path d="M40 46a2 2 0 0 1 2 2v18a2 2 0 0 1-2 2H22V46h18m0-2H20v26h20a4 4 0 0 0 4-4V48a4 4 0 0 0-4-4z" fill="#424242" opacity=".2"/><path d="M120 28H24a4 4 0 0 0-4 4v5h104v-5a4 4 0 0 0-4-4z" fill="#37474F"/><path d="M120 31c.3 0 1 0 1 .8V95H26c-1.5 0-3-1.6-3-3.3v-60c0-.7 1-.7 1-.7h96m0-3H24c-2.2 0-4 1.5-4 3.8v60c0 3.3 2.7 6.2 6 6.2h98V31.7c0-2.2-1.8-3.7-4-3.7z" fill="#424242" opacity=".2"/></svg>