<svg viewBox="0 0 128 128" xmlns="http://www.w3.org/2000/svg" xmlns:xlink="http://www.w3.org/1999/xlink"><defs><path id="a" d="M4 4h120v120H4z"/></defs><clipPath id="b"><use xlink:href="#a"/></clipPath><g clip-path="url(#b)"><linearGradient id="c" x1="35.2" x2="35.4" y1="51.4" y2="19.6" gradientTransform="matrix(-1 -.0066 -.0066 1 76.4 -10.3)" gradientUnits="userSpaceOnUse"><stop stop-color="#543930" offset="0"/><stop stop-color="#6D4C41" offset="1"/></linearGradient><path d="M49 9.1c-2.3-.7-8.7.6-8.8 7 0 11.7-.5 13.4-3.1 16-3.8 3.7-7 .2-7 .2s.5 5.6 4 7.7c3.6 2 9.2.5 12.6-5.3 4.7-8.2 6.8-24.2 2.3-25.6z" fill="url(#c)"/><path d="M47.6 10l1.1.1c.5.1.9.6 1.2 1.4 1.8 4.5-.3 16.2-4 22.7-2 3.5-5.2 5.6-8.3 5.6-1 0-2-.2-3-.7-1.6-1-2.6-3-3-4.7.5.2 1.1.4 1.9.4 1.5 0 3-.7 4.3-2 3-2.9 3.3-5 3.4-16.6 0-5 4.2-6.2 6.4-6.2m0-1c-2.8 0-7.3 1.7-7.4 7.1 0 11.7-.5 13.4-3.1 16a5.1 5.1 0 0 1-3.6 1.7c-2 0-3.5-1.5-3.5-1.5s.6 5.6 4.2 7.7c1 .6 2.1.9 3.4.9 3.1 0 6.7-2 9.1-6.2 4.7-8.2 6.8-24.2 2.3-25.6L47.6 9z" fill="#402821"/></g><g clip-path="url(#b)"><linearGradient id="d" x1="-49.5" x2="-49.5" y1="51" y2="77.2" gradientTransform="scale(-1 1) rotate(-22.6 -153.6 74)" gradientUnits="userSpaceOnUse"><stop stop-color="#FFCA28" offset=".5"/><stop stop-color="#FFB300" offset=".8"/><stop stop-color="#E59600" offset="1"/></linearGradient><path d="M53.3 7.7c3.9-3.6 10.4-3.5 15.4-1.4 5.5 2.3 7.5 7.2 7.1 12.6-.2 2-.7 3.9-1.3 5.1l-.8 1.6c-.6 1.4 1.8 3.4 1.8 5 0 1.3-2.7 1.5-3 1.6-1.1.8-.8 6.3-7.7 5.1-2.3-.4-3.4-1-4.5.5l-1 4.5-7.6-1s1.5-3.9-.2-9.2c-.8-2.5-1.3-5.4-2.8-8-3-5 1.3-13.4 4.6-16.4z" fill="url(#d)"/><linearGradient id="e" x1="75.7" x2="47.3" y1="30.2" y2="18.4" gradientUnits="userSpaceOnUse"><stop stop-color="#EDA600" offset="0"/><stop stop-color="#D18900" offset=".9"/></linearGradient><path d="M61.6 5.8c2.2 0 4.6.5 6.7 1.4 6.3 2.7 6.8 8.4 6.5 11.6-.1 1.8-.6 3.5-1.2 4.8-.5.8-.7 1.3-.8 1.7-.5 1.1.2 2.4.9 3.4.3.7.8 1.4.8 1.9l-1.6.5c-.4 0-.7.1-.9.3a4 4 0 0 0-1.1 1.8c-.7 1.5-1.4 3.2-4.3 3.2l-1.6-.1-1.2-.2a9 9 0 0 0-1.8-.3c-1 0-1.8.5-2.5 1.4l-.1.4-.8 3.6-5.6-.8c.4-1.6.7-4.7-.5-8.6l-.7-2.2c-.5-2-1-4-2.2-6-2.6-4.4 1.3-12.3 4.3-15.1 2.4-2.2 5.5-2.7 7.7-2.7m0-1c-3.1 0-6.2.9-8.3 3-3.3 3-7.5 11.3-4.6 16.4 1.5 2.5 2 5.4 2.8 8 1.7 5.2.2 9 .2 9l7.7 1 1-4.4c.5-.7 1-1 1.6-1 .7 0 1.6.3 2.8.5l1.8.2c5 0 4.9-4.5 6-5.3.2-.2 2.8-.3 2.9-1.5 0-1.7-2.4-3.7-1.8-5 0-.4.7-1.5.8-1.7.6-1.3 1.1-3.1 1.3-5.1.4-5.4-1.7-10.3-7.2-12.6-2.1-1-4.6-1.5-7-1.5z" fill="url(#e)"/><radialGradient id="f" cx="-115.6" cy="2.1" r="14.6" gradientTransform="matrix(-1.0128 -.2301 -.2274 .9741 -49.9 -16.8)" gradientUnits="userSpaceOnUse"><stop stop-color="#6D4C41" offset="0"/><stop stop-color="#543930" offset="1"/></radialGradient><path d="M59.3 28.5l-.7-6s-3.7.2-3.4 4c.3 2.8-1.8 5.5-3 5.5l-.7.1c-.6-4-5.2-6-4.4-16.3C48 7 56.5 3.2 63.8 4.3c7.1 1 14.4 7 12.2 16.5-.1.3-9.5-.4-12 1.5-2.5 2-1.4 6.4-4.7 6.2z" fill="url(#f)"/><defs><path id="g" d="M53.6 21.3l-1.3 9.5.5 1-.6.2-.7.1c-.6-4-5.2-6-4.3-16.3.7-9 9.2-12.6 16.6-11.5 7.2 1 14.4 7.3 12.2 16.5h-1l.1-1.5-11-.5-10.5 2.5z"/></defs><clipPath id="h"><use xlink:href="#g"/></clipPath><g clip-path="url(#h)"><path d="M61.4 5l2.3.2c4 .6 7.7 2.8 9.8 5.8 1.7 2.6 2.3 5.6 1.7 8.9H74c-4.3 0-8.7.2-10.6 1.6-1.3 1-1.8 2.6-2.2 3.8-.4 1.2-.6 1.8-1 2l-.6-4.9a1 1 0 0 0-1-.9s-2 .2-3.3 1.6c-.8 1-1.2 2.1-1 3.6.2 2-1.4 4-2 4.3-.4-1.1-1-2.1-1.5-3.2A17.4 17.4 0 0 1 48.2 16c.6-7.5 7-10.8 13.2-10.8m0-1c-6.8 0-13.6 3.8-14.2 11.7-1 10.3 3.7 12.2 4.3 16.3h.7c1.2-.1 3.3-2.8 3-5.5-.3-3.9 3.4-4 3.4-4l.7 5.9h.3c3 0 2-4.3 4.4-6.2 2.6-1.9 12-1.2 12-1.5 2.2-9.5-5-15.6-12-16.6-1-.3-1.9-.3-2.6-.3z" fill="#452B22"/></g><path d="M69.3 31l2.5 1-.8 1.6c-1.5 2.4-4 4.8-8.5 3.4-.4-.2 3.7-5.4 3.7-5.4l3.1-.6z" fill="none"/><defs><path id="i" d="M53.3 7.7c3.9-3.6 10.4-3.5 15.4-1.4 6.8 2.9 8.7 9.1 6.7 16l-1.5 4c-1 2.3 1.2 2.3 1.2 4.2.1 1.8-2.3 1.6-2.5 1.7-1.2.8-1 6.3-7.8 5.1-2.3-.4-3.4-1-4.5.5l-2.2 4.4-6.4-1s1.4-9.6-3-17c-3-5 1.3-13.5 4.6-16.5z"/></defs><clipPath id="j"><use xlink:href="#i"/></clipPath><g clip-path="url(#j)"><path d="M76.3 33.4c-2 1.8-5.7 2.3-7.6 0-.7-.8.1-1.3 1-.7 1.4 1 4.4.7 5.7-.4.8-.7 1.7.4.9 1.1z" fill="#795548"/></g><ellipse transform="rotate(-79.1 70 26.7)" cx="70" cy="26.7" rx="1.9" ry="1.3" fill="#404040"/><path d="M71.4 24c1.2.5 1.6-.3 1.2-1-.2-.5-1-1-2.4-.8-1.4 0-2 .8-2.4 1.2s-.4 1-.1 1c.4.1 2.2-1 3.7-.4z" fill="#6D4C41"/></g><g clip-path="url(#b)"><linearGradient id="k" x1="36.1" x2="64.3" y1="51.8" y2="51.8" gradientUnits="userSpaceOnUse"><stop stop-color="#651FFF" offset="0"/><stop stop-color="#5914F2" offset=".7"/><stop stop-color="#530EEB" offset="1"/></linearGradient><path d="M36.1 65.4l.6-2.3 8-16.9c1.9-4 5.2-7.4 9.3-9.4a6 6 0 0 1 8 2.8l2.3 5-2.4 8.7-4.3 12.3-.4 1.8-21.1-2z" fill="url(#k)"/><path d="M56.5 36.7c2.1 0 4 1.3 5 3.1l2.3 4.8-2.4 8.5-4.3 12.4-.3 1.4-20-1.9.3-1.7 8-16.9c1.9-4 5-7.2 9-9.1.8-.4 1.6-.6 2.4-.6m0-1c-1 0-1.9.2-2.8.7-4.1 2-7.5 5.3-9.5 9.6l-8 17-.7 2.9 22 2 .6-2.1 4.3-12.4 2.5-8.9-2.5-5a6.6 6.6 0 0 0-5.9-3.8z" fill="#4A00ED"/></g><path clip-path="url(#b)" fill="#646464" d="M34.6 69l1.6-6L58 65.8l16.3 3.1v3.8H34.6z"/><g clip-path="url(#b)"><path d="M37 64l20.9 2.8 15.4 3v2H35.6V69l1.4-5m-.8-1.1l-1.6 6v3.7h39.7V69L58 65.8 36.2 63z" fill="#4F4F4F"/></g><g clip-path="url(#b)"><radialGradient id="l" cx="64.4" cy="92.9" r="52.1" gradientTransform="matrix(1 0 0 .4605 0 50.1)" gradientUnits="userSpaceOnUse"><stop stop-color="#FF9800" offset=".5"/><stop stop-color="#FA8B00" offset=".8"/><stop stop-color="#F57C00" offset="1"/></radialGradient><path d="M7.6 73.2h111.6s-.1 17.8-10.1 25H27s-13.1-10-19.5-25z" fill="url(#l)" stroke="#E37200" stroke-miterlimit="10"/><path d="M119.5 76.6H8.5a4.5 4.5 0 1 1 0-9h111a4.5 4.5 0 1 1 0 9z" fill="#DB5E2C"/><path d="M119.5 76.6H8.5a4.5 4.5 0 1 1 0-9h111a4.5 4.5 0 1 1 0 9z" fill="#E65100"/><path d="M119.5 68.6a3.5 3.5 0 0 1 0 7H8.5c-2 0-3.5-1.5-3.5-3.5s1.6-3.5 3.5-3.5h111m0-1H8.5a4.5 4.5 0 0 0 0 9h111a4.5 4.5 0 1 0 0-9z" fill="#D24A00"/></g><path clip-path="url(#b)" fill="#039BE5" d="M0 93.6h127.9V128H0z"/><g clip-path="url(#b)"><path d="M0 107.4c6 0 9.5-7.2 16-7.2H0v7.2zm16-7.2c6.6 0 10 7.2 16 7.2s9.5-7.2 16-7.2H16zm32 0c6.6 0 10 7.2 16 7.2s9.5-7.2 16-7.2H48zm32 0c6.6 0 10 7.2 16 7.2s9.4-7.2 16-7.2H80zm32 0c6.6 0 10 7.2 16 7.2v-7.2h-16z" fill="#29B6F6"/><path fill="#29B6F6" d="M0 91.6h128v8.7H0z"/><path d="M127 92.6V127H1V92.6h126m1-1H0V128h128V91.6z" fill="#17A3E3"/></g><g clip-path="url(#b)"><path fill="#FFA726" d="M56.4 89.4l33.8-34.1 4 4-33.8 34z"/><path d="M90.2 56l3.3 3.3-33.1 33.4-3.3-3.3L90 56m0-1.4L55.7 89.4l4.7 4.7 34.5-34.8-4.8-4.7z" fill="#ED9513"/></g><path clip-path="url(#b)" fill="#EA960F" d="M90.4 63.8l-8.9-.5 9.9-10.2 5.3 4.3z"/><g clip-path="url(#b)"><path d="M46 111.4a7.7 7.7 0 0 1-5.5-13.1l9-9a7.6 7.6 0 0 1 11-.1c3 3 3 7.9 0 10.9l-9 9a7.6 7.6 0 0 1-5.4 2.3z" fill="#FFD54F"/><path d="M55 87.5a7.2 7.2 0 0 1 7.2 7.1c0 2-.7 3.8-2 5.1l-9 9a7.2 7.2 0 0 1-10.2.1 7.2 7.2 0 0 1 0-10.2l9-9a7.2 7.2 0 0 1 5-2.1m0-1c-2 0-4.2.8-5.8 2.4l-9 9A8.2 8.2 0 1 0 52 109.5l9-9a8.2 8.2 0 0 0-5.9-14z" fill="#EDC239"/></g><g clip-path="url(#b)"><path fill="none" d="M98.2 55.8l-1.7-.7"/><radialGradient id="m" cx="-109.2" cy="91.8" r="8.7" gradientTransform="matrix(.0766 -.3143 -.4978 .1895 146 -2.4)" gradientUnits="userSpaceOnUse"><stop stop-color="#FFC107" offset="0"/><stop stop-color="#FFA000" offset="1"/></radialGradient><path d="M88.4 53.6c-.3-.6-.2-1.4.4-1.7l4-2.5c.6-.4 1.4-.2 1.8.4.3.6.2 1.4-.4 1.7l-4 2.5c-.6.4-1.4.2-1.8-.4z" fill="url(#m)"/><radialGradient id="n" cx="44.4" cy="106.7" r="10.7" gradientTransform="matrix(-.2709 .0274 .1378 .3273 90.9 13.6)" gradientUnits="userSpaceOnUse"><stop stop-color="#FFC107" offset="0"/><stop stop-color="#FFA000" offset="1"/></radialGradient><path d="M95.8 53.2c-.6.4-1.3.3-1.8-.2l-1.4-1.7c-.4-.6-.3-1.4.2-1.8.6-.4 1.3-.3 1.8.2l1.4 1.7c.4.5.3 1.3-.2 1.8z" fill="url(#n)"/></g><path transform="rotate(-88 82.8 55.2)" clip-path="url(#b)" fill="#FCC21B" d="M79.1 48.8h7.4v12.7h-7.4z"/><g clip-path="url(#b)"><radialGradient id="o" cx="75.7" cy="39.9" r="10.4" gradientTransform="matrix(.1634 -.8565 .885 .1689 45.2 116)" gradientUnits="userSpaceOnUse"><stop stop-color="#FFC107" offset=".3"/><stop stop-color="#FFA000" offset="1"/></radialGradient><path d="M90.8 53.3L89 59.2l3.7 3.3s2.6.8 3.2 0c.2-.3.1-1 .2-1 .3-.5.9-.5 1.2-1v-1.3c-.1-.3 0-.6.3-.7.5-.2.7-.4.8-.8.2-.4 0-.9-.1-1.3-.2-.4-.1-1 .2-1.3.3-.2.6-1 .1-1.5-.5-.6-2.7-1.4-2.7-1.4l-5.2 1z" fill="url(#o)"/></g><g clip-path="url(#b)"><linearGradient id="p" x1="71.2" x2="76.2" y1="31.2" y2="38.3" gradientTransform="matrix(.1634 -.8565 .8818 .1683 45.1 116)" gradientUnits="userSpaceOnUse"><stop stop-color="#FFB300" offset="0"/><stop stop-color="#FFCA28" offset="1"/></linearGradient><path d="M88.4 51.8L86.2 59s7.3 5 8 3.1l.1-.9c0-.2.2-.3.4-.5.3-.2.7-.5.8-.9s0-.8-.2-1.1c0-.3 0-.5.3-.6.6-.3 1-.4 1-1 .1-.5.2-1-.1-1.4-.3-.4-.2-1.2.1-1.5.2-.2.5-.8.2-1.5-.5-1.2-8.4-1-8.4-1z" fill="url(#p)"/></g><path transform="rotate(-55.2 70 50.7)" clip-path="url(#b)" fill="#FCC21B" d="M66.3 43.2h7.4v15h-7.4z"/><circle cx="76.2" cy="54.9" r="3.8" clip-path="url(#b)" fill="#FCC21B"/><g clip-path="url(#b)"><path d="M66.2 44.8L76.8 52l.6.2 11.7.4c.2 0 .4 0 .5-.2l3.8-2.3h.4l.1.1 1.4 1.7v.2c0 .5.3 1 .7 1.1 1.3.5 2 .8 2 1 .1 0 0 0 0 .1a2 2 0 0 0-.4 2.5v.5l-.2.2c-.7.2-1.1 1-1 1.8l.2.6-.2.1a2 2 0 0 0-1 .8l-.1.9H95c-.5 0-1.2 0-1.5-.2h-.1a22.1 22.1 0 0 1-6.3-3.2 1 1 0 0 0-.7-.4l-9.8-.3h-.4c-.6 0-1.2-.3-1.7-.7l-11.3-7.8 3-4.4m-.2-1.4l-4.2 6 12 8.4c.7.6 1.5.9 2.4.9h.1l10 .3-.1.1s4.7 3.2 7 3.5c.3.1 1 .3 1.7.3.5 0 1-.1 1.1-.4l.2-1c.3-.5.9-.4 1.2-1v-1.3c-.1-.2 0-.6.3-.7.5-.2.7-.4.8-.8.2-.4 0-.8-.1-1.3-.2-.4-.1-1 .2-1.2.3-.2.6-1 .1-1.5a7.5 7.5 0 0 0-2.5-1.3c0-.4 0-.7-.2-1l-1.4-1.7c-.2-.2-.5-.4-.8-.4H93.5l-.7.1-3.7 2.3-11.7-.4-11.4-8z" fill="#EDA600"/></g><g clip-path="url(#b)"><path d="M55 46.8a5.3 5.3 0 1 1 6.3-8.6l9.2 6.7-6.2 8.6-9.2-6.7z" fill="#3615AF"/><path d="M58.2 37.7c1 0 2 .3 2.8 1l8.8 6.3-5.6 7.8-8.8-6.4a4.8 4.8 0 0 1 2.8-8.7m0-1a5.8 5.8 0 0 0-3.4 10.5l9.6 7 6.8-9.5-9.6-6.9a6 6 0 0 0-3.4-1.1z" fill="#27089C"/></g></svg>