<svg viewBox="0 0 128 128" xmlns="http://www.w3.org/2000/svg" xmlns:xlink="http://www.w3.org/1999/xlink"><path d="M24.2 124h-7.9a3 3 0 0 1-3-3V77.3h14V121a3 3 0 0 1-3 3zm88.3 0h-8a3 3 0 0 1-3-3V77.3h14V121a3 3 0 0 1-3 3z" fill="#BDBDBD"/><path d="M25.2 79.3V121c0 .6-.4 1-1 1h-7.9a1 1 0 0 1-1-1V79.3h10m2-2h-14V121a3 3 0 0 0 3 3h8a3 3 0 0 0 3-3V77.3zm86.2 2V121c0 .6-.4 1-1 1h-8a1 1 0 0 1-1-1V79.3h10m2-2h-14V121a3 3 0 0 0 3 3h8a3 3 0 0 0 3-3V77.3z" fill="#424242" opacity=".2"/><linearGradient id="a" x1="64" x2="64" y1="39.2" y2="81" gradientUnits="userSpaceOnUse"><stop stop-color="#FFEE58" offset="0"/><stop stop-color="#FDD642" offset=".5"/><stop stop-color="#FBC02D" offset="1"/></linearGradient><path d="M120 82.2H8a4 4 0 0 1-4-4V44.6a4 4 0 0 1 4-4h112a4 4 0 0 1 4 4v33.6a4 4 0 0 1-4 4z" fill="url(#a)"/><circle cx="20.4" cy="31.4" r="9" fill="#BDBDBD"/><circle cx="20.4" cy="31.4" r="6.7" fill="#F44336"/><circle cx="108.5" cy="31.4" r="9" fill="#BDBDBD"/><circle cx="108.5" cy="31.4" r="6.7" fill="#F44336"/><defs><path id="b" d="M120 82.2H8a4 4 0 0 1-4-4V44.6a4 4 0 0 1 4-4h112a4 4 0 0 1 4 4v33.6a4 4 0 0 1-4 4z"/></defs><clipPath id="c"><use xlink:href="#b"/></clipPath><g clip-path="url(#c)"><path d="M-15.6 88.6h-18L-2 34.2h18zm36.4 0h-18l31.5-54.4h18zm36.5 0h-18l31.4-54.4h18zm36.4 0h-18l31.5-54.4h18zm36.4 0h-18l31.5-54.4h18z"/></g><path d="M120 43.6c.6 0 1 .5 1 1v33.6c0 .5-.5 1-1 1H8a1 1 0 0 1-1-1V44.6c0-.5.5-1 1-1h112m0-3H8a4 4 0 0 0-4 4v33.6a4 4 0 0 0 4 4h112a4 4 0 0 0 4-4V44.6a4 4 0 0 0-4-4z" fill="#424242" opacity=".2"/></svg>