<svg viewBox="0 0 128 128" xmlns="http://www.w3.org/2000/svg"><path fill="#666" d="M77.7 42h1.4v.4h-1.4z"/><linearGradient id="a" x1="64.1" x2="64.1" y1="102.9" y2="36.6" gradientUnits="userSpaceOnUse"><stop stop-color="#D32F2F" offset=".2"/><stop stop-color="#E73B33" offset=".6"/><stop stop-color="#F44336" offset=".9"/></linearGradient><path d="M115 104.2l-.2 15.7H13.1v-15.7L25.6 36c1.3-7 7-12 13.5-12h50.2a14 14 0 0 1 13.5 12l12.3 68.2z" fill="url(#a)"/><ellipse cx="64.1" cy="64.1" rx="30.5" ry="33" fill="#EF5350"/><path fill="#FFCDD2" d="M45 79.8l.1-31.6L64 64.4zm38.5 0V48.2l-19 16.2z"/><path d="M89.2 27c5 0 9.5 4 10.5 9.6l12.3 67.8-.1 12.5H16v-12.5l12.4-67.8C29.5 31 33.9 27 39 27h50.2m0-3H39a14 14 0 0 0-13.5 12l-12.3 68v16h101.6l.2-15.7L102.7 36c-1.3-7-7-12-13.5-12z" fill="#424242" opacity=".2"/><path d="M4 124l.1-11c0-4.8 3.7-8.8 8.2-8.8h103.4c4.5 0 8.1 3.8 8.2 8.7l.2 11.1H4.1z" fill="#424242"/><path d="M115.7 107.2c2.8 0 5.1 2.5 5.2 5.7l.1 8.1H7l.1-8c0-3.2 2.3-5.8 5.2-5.8h103.4m0-3H12.3c-4.5 0-8.2 4-8.2 8.9V124h120l-.2-11.1c0-4.9-3.7-8.8-8.2-8.8z" fill="#eee" opacity=".2"/></svg>