<svg viewBox="0 0 128 128" xmlns="http://www.w3.org/2000/svg" xmlns:xlink="http://www.w3.org/1999/xlink"><path d="M68.58 39.8H51.62l1.69-9.7c.22-1.24 1.07-2.12 2.05-2.12h9.29c.97 0 1.81.85 2.04 2.06l1.89 9.76z"/><defs><path id="a" d="M68.58 39.8H51.62l1.69-9.7c.22-1.24 1.07-2.12 2.05-2.12h9.29c.97 0 1.81.85 2.04 2.06l1.89 9.76z"/></defs><clipPath id="b"><use xlink:href="#a"/></clipPath><path clip-path="url(#b)" fill="#C62828" d="M49.69 27.98h20.68v3.77H49.69z"/><path d="M64.66 28.98c.47 0 .92.53 1.06 1.25l1.65 8.57H52.81l1.49-8.53c.13-.74.59-1.29 1.07-1.29h9.29m0-1h-9.29c-.98 0-1.84.88-2.05 2.12l-1.69 9.7h16.95l-1.88-9.76c-.24-1.21-1.08-2.06-2.04-2.06z" fill="#eee" opacity=".2"/><path d="M78.08 13.39c-2.92-.42-5.55.99-6.93 3.25-.2.33-.62.42-.94.23-.83-.5-1.8-.78-2.83-.78-2.02 0-3.78 1.09-4.75 2.7-.17.28-.5.4-.81.29-.66-.23-1.4-.3-2.16-.15-1.75.34-3.11 1.83-3.31 3.6a4.15 4.15 0 0 0 4.12 4.62c1.06 0 2.02-.4 2.76-1.05.24-.22.6-.24.86-.04.92.69 2.06 1.1 3.29 1.1 1.6 0 3.04-.68 4.04-1.77.26-.28.69-.31.96-.05a6.856 6.856 0 0 0 4.66 1.82c4.08 0 7.33-3.53 6.87-7.7-.34-3.09-2.78-5.63-5.83-6.07z" fill="#BDBDBD"/><path d="M77.04 14.32c.29 0 .59.02.89.06 2.6.38 4.69 2.55 4.98 5.17.19 1.71-.33 3.35-1.47 4.62a5.929 5.929 0 0 1-4.4 1.97c-1.48 0-2.89-.55-3.99-1.56a1.68 1.68 0 0 0-1.12-.44c-.47 0-.93.2-1.25.55a4.49 4.49 0 0 1-3.31 1.45c-.98 0-1.91-.31-2.7-.9-.29-.22-.64-.33-1-.33-.41 0-.81.15-1.13.43-.58.51-1.32.8-2.09.8-.89 0-1.75-.38-2.34-1.05a3.14 3.14 0 0 1-.78-2.46c.15-1.35 1.18-2.47 2.5-2.72a3.21 3.21 0 0 1 1.64.11c.18.06.37.09.56.09.59 0 1.14-.31 1.44-.82a4.494 4.494 0 0 1 3.89-2.22c.82 0 1.62.22 2.32.64.27.16.57.24.88.24.59 0 1.13-.3 1.44-.81a5.884 5.884 0 0 1 5.04-2.82m0-1c-2.5 0-4.69 1.33-5.9 3.32a.683.683 0 0 1-.94.23c-.83-.5-1.8-.78-2.83-.78-2.02 0-3.78 1.09-4.75 2.7a.67.67 0 0 1-.81.29c-.42-.15-.88-.23-1.35-.23-.27 0-.54.03-.81.08-1.75.34-3.11 1.83-3.31 3.6a4.15 4.15 0 0 0 4.12 4.62c1.06 0 2.02-.4 2.76-1.05.13-.12.3-.18.46-.18.14 0 .28.04.4.13.92.69 2.06 1.1 3.29 1.1 1.6 0 3.04-.68 4.04-1.77.14-.15.33-.23.52-.23a.7.7 0 0 1 .45.17 6.856 6.856 0 0 0 4.66 1.82c4.08 0 7.33-3.53 6.87-7.7-.34-3.07-2.78-5.6-5.83-6.04-.35-.06-.7-.08-1.04-.08z" fill="#424242" opacity=".2"/><path d="M100.58 39.8H83.62l1.69-9.7c.22-1.24 1.07-2.12 2.05-2.12h9.29c.97 0 1.81.85 2.04 2.06l1.89 9.76z"/><defs><path id="c" d="M100.58 39.8H83.62l1.69-9.7c.22-1.24 1.07-2.12 2.05-2.12h9.29c.97 0 1.81.85 2.04 2.06l1.89 9.76z"/></defs><clipPath id="d"><use xlink:href="#c"/></clipPath><path clip-path="url(#d)" fill="#C62828" d="M81.69 27.98h20.68v3.77H81.69z"/><path d="M96.66 28.98c.47 0 .92.53 1.06 1.25l1.65 8.57H84.81l1.49-8.53c.13-.74.59-1.29 1.07-1.29h9.29m0-1h-9.29c-.98 0-1.84.88-2.05 2.12l-1.69 9.7h16.95l-1.88-9.76c-.24-1.21-1.08-2.06-2.04-2.06z" fill="#eee" opacity=".2"/><path d="M110.08 13.39c-2.92-.42-5.55.99-6.93 3.25-.2.33-.62.42-.94.23-.83-.5-1.8-.78-2.83-.78-2.02 0-3.78 1.09-4.75 2.7-.17.28-.5.4-.81.29-.66-.23-1.4-.3-2.16-.15-1.75.34-3.11 1.83-3.31 3.6a4.15 4.15 0 0 0 4.12 4.62c1.06 0 2.02-.4 2.76-1.05.24-.22.6-.24.86-.04.92.69 2.06 1.1 3.29 1.1 1.6 0 3.04-.68 4.04-1.77.26-.28.69-.31.96-.05a6.856 6.856 0 0 0 4.66 1.82c4.08 0 7.33-3.53 6.87-7.7-.34-3.09-2.78-5.63-5.83-6.07z" fill="#BDBDBD"/><path d="M109.04 14.32c.29 0 .59.02.89.06 2.6.38 4.69 2.55 4.98 5.17.19 1.71-.33 3.35-1.47 4.62a5.929 5.929 0 0 1-4.4 1.97c-1.48 0-2.89-.55-3.99-1.56a1.68 1.68 0 0 0-1.12-.44c-.47 0-.93.2-1.25.55a4.49 4.49 0 0 1-3.31 1.45c-.98 0-1.91-.31-2.7-.9-.29-.22-.64-.33-1-.33-.41 0-.81.15-1.13.43-.58.51-1.32.8-2.09.8-.89 0-1.75-.38-2.34-1.05a3.14 3.14 0 0 1-.78-2.46c.15-1.35 1.18-2.47 2.5-2.72a3.21 3.21 0 0 1 1.64.11c.18.06.37.09.56.09.59 0 1.14-.31 1.44-.82a4.494 4.494 0 0 1 3.89-2.22c.82 0 1.62.22 2.32.64.27.16.57.24.88.24.59 0 1.13-.3 1.44-.81a5.884 5.884 0 0 1 5.04-2.82m0-1c-2.5 0-4.69 1.33-5.9 3.32a.683.683 0 0 1-.94.23c-.83-.5-1.8-.78-2.83-.78-2.02 0-3.78 1.09-4.75 2.7a.67.67 0 0 1-.81.29c-.42-.15-.88-.23-1.35-.23-.27 0-.54.03-.81.08-1.75.34-3.11 1.83-3.31 3.6a4.15 4.15 0 0 0 4.12 4.62c1.06 0 2.02-.4 2.76-1.05.13-.12.3-.18.46-.18.14 0 .28.04.4.13.92.69 2.06 1.1 3.29 1.1 1.6 0 3.04-.68 4.04-1.77.14-.15.33-.23.52-.23a.7.7 0 0 1 .45.17 6.856 6.856 0 0 0 4.66 1.82c4.08 0 7.33-3.53 6.87-7.7-.34-3.07-2.78-5.6-5.83-6.04-.35-.06-.7-.08-1.04-.08z" fill="#424242" opacity=".2"/><linearGradient id="e" x1="69.575" x2="69.575" y1="57.171" y2="77.576" gradientUnits="userSpaceOnUse"><stop stop-color="#eee" offset=".003"/><stop stop-color="#BDBDBD" offset="1"/></linearGradient><path d="M113.7 52l-82.76-.04c-1.25 0-2.37.78-2.81 1.95L19.15 78h94.89L120 66.91l-3.4-12.69a3.007 3.007 0 0 0-2.9-2.22z" fill="url(#e)"/><linearGradient id="f" x1="76.088" x2="76.088" y1="43.016" y2="60.937" gradientUnits="userSpaceOnUse"><stop stop-color="#eee" offset=".003"/><stop stop-color="#BDBDBD" offset="1"/></linearGradient><path d="M108.67 40.58c-.43-1.45-1.73-2.45-3.21-2.45H45.71c-.82 0-1.55.56-1.8 1.39L39.44 54.1h73.29l-4.06-13.52z" fill="url(#f)"/><linearGradient id="g" x1="64" x2="64" y1="83.5" y2="125.65" gradientUnits="userSpaceOnUse"><stop stop-color="#29B6F6" offset="0"/><stop stop-color="#0288D1" offset=".983"/></linearGradient><path fill="url(#g)" d="M4 80h120v44H4z"/><path fill="none" d="M10.16 61.92l-1.4 1.98 1.4-1.96z"/><path fill="#90CAF9" d="M95.19 33.96l-.39.6z"/><path fill="#424242" d="M110.42 33.79l.53.77z" opacity=".2"/><path d="M95.1 70.35a8.915 8.915 0 0 1-6.64 2.97H53.44c-.91 0-1.79-.26-2.55-.76l-13.13-5.94c-.76-.5-1.65-.76-2.55-.76H5.95c-.79 0-1.29.84-.92 1.53l5.66 8.55c1.27 2.36-2.52 6.34-2.52 8.3 0 1.4.57 3.89 3.99 3.89l101.94-.1c4.43 0 8.13-3.36 8.56-7.76l1.19-12.02c.08-.78-.53-1.45-1.32-1.45l-19.59.02c-2.99.02-5.85 1.3-7.84 3.53z"/><defs><path id="h" d="M96.48 68.8l-2.78 3.11c-.81.9-1.96 1.42-3.16 1.42H56.12c-1.66 0-16.15-10.49-16.15-10.49H5.37c-.79 0-1.29.84-.92 1.53l6.24 11.58c1.27 2.36-2.52 6.34-2.52 8.3 0 1.4.57 3.89 3.99 3.89l101.94-.1c4.43 0 8.13-3.36 8.56-7.76l1.05-10.65a2.57 2.57 0 0 0-2.56-2.82l-20.29.02c-1.67.01-3.26.72-4.38 1.97z"/></defs><clipPath id="i"><use xlink:href="#h"/></clipPath><path clip-path="url(#i)" fill="#C62828" d="M4.56 83.54H126.1v8.12H4.56z"/><path d="M35.2 67.86c.52 0 1.02.15 1.46.43l.13.08.14.06 13 5.88c1.05.65 2.26 1 3.51 1h35.02c3.1 0 6.07-1.33 8.13-3.64a8.558 8.558 0 0 1 6.37-2.85l18.84-.02-1.11 11.27a6.585 6.585 0 0 1-6.57 5.96l-101.94.1c-.96 0-1.99-.15-1.99-1.86.04-.36.6-1.41.98-2.1 1.15-2.14 2.59-4.79 1.31-7.18l-.04-.08-.05-.08-4.62-6.98H35.2m0-1.99H5.95c-.79 0-1.29.84-.92 1.53l5.66 8.55c1.27 2.36-2.52 6.34-2.52 8.3 0 1.4.57 3.89 3.99 3.89l101.94-.1c4.43 0 8.13-3.36 8.56-7.76l1.19-12.02c.08-.78-.53-1.45-1.32-1.45l-19.59.02c-3 0-5.86 1.28-7.86 3.52a8.915 8.915 0 0 1-6.64 2.97h-35c-.91 0-1.79-.26-2.55-.76l-13.13-5.94c-.77-.48-1.66-.75-2.56-.75z" fill="#eee" opacity=".2"/><g fill="#4FC3F7"><path d="M102.08 48.05h-8c-1.1 0-2-.9-2-2v-2c0-1.1.9-2 2-2h8c1.1 0 2 .9 2 2v2a2 2 0 0 1-2 2zM58.19 48.05h-8c-1.1 0-2-.9-2-2v-2c0-1.1.9-2 2-2h8c1.1 0 2 .9 2 2v2c0 1.1-.9 2-2 2zM80.13 48.05h-8c-1.1 0-2-.9-2-2v-2c0-1.1.9-2 2-2h8c1.1 0 2 .9 2 2v2a2 2 0 0 1-2 2z"/></g><path d="M40.45 62.26h-4c-1.1 0-2-.9-2-2v-2c0-1.1.9-2 2-2h4c1.1 0 2 .9 2 2v2c0 1.1-.9 2-2 2zM56.83 62.26h-4c-1.1 0-2-.9-2-2v-2c0-1.1.9-2 2-2h4c1.1 0 2 .9 2 2v2a2 2 0 0 1-2 2zM73.22 62.26h-4c-1.1 0-2-.9-2-2v-2c0-1.1.9-2 2-2h4c1.1 0 2 .9 2 2v2c0 1.1-.9 2-2 2zM89.6 62.26h-4c-1.1 0-2-.9-2-2v-2c0-1.1.9-2 2-2h4c1.1 0 2 .9 2 2v2a2 2 0 0 1-2 2zM105.99 62.26h-4c-1.1 0-2-.9-2-2v-2c0-1.1.9-2 2-2h4c1.1 0 2 .9 2 2v2c0 1.1-.9 2-2 2z" fill="#4FC3F7"/><path d="M105.23 40c.57 0 1.23.45 1.41 1.09l3.49 11.48c.25.85 1.09 1.43 1.97 1.43h1.6c.45 0 .85.3.96.74l3.2 11.92-5.02 9.34H22.03l7.98-21.39c.15-.39.52-.66.94-.66l9.15-.01c.88 0 1.65-.58 1.91-1.42l3.81-12.48c0-.01.01-.02.01-.03H105m.46-2.01H45.71c-.82 0-1.55.63-1.8 1.46l-3.81 12.5-9.16.04c-1.25 0-2.37.76-2.81 1.93L19.15 78h94.89L120 66.91l-3.4-12.69a2.998 2.998 0 0 0-2.9-2.22h-1.6l-3.43-11.48c-.43-1.46-1.73-2.52-3.21-2.52z" fill="#424242" opacity=".2"/><g fill="#424242" opacity=".2"><path d="M102.08 43.05c.55 0 1 .45 1 1v2c0 .55-.45 1-1 1h-8c-.55 0-1-.45-1-1v-2c0-.55.45-1 1-1h8m0-1h-8c-1.1 0-2 .9-2 2v2c0 1.1.9 2 2 2h8c1.1 0 2-.9 2-2v-2c0-1.11-.89-2-2-2zM58.19 43.05c.55 0 1 .45 1 1v2c0 .55-.45 1-1 1h-8c-.55 0-1-.45-1-1v-2c0-.55.45-1 1-1h8m0-1h-8c-1.1 0-2 .9-2 2v2c0 1.1.9 2 2 2h8c1.1 0 2-.9 2-2v-2a2 2 0 0 0-2-2zM80.13 43.05c.55 0 1 .45 1 1v2c0 .55-.45 1-1 1h-8c-.55 0-1-.45-1-1v-2c0-.55.45-1 1-1h8m0-1h-8c-1.1 0-2 .9-2 2v2c0 1.1.9 2 2 2h8c1.1 0 2-.9 2-2v-2c0-1.11-.89-2-2-2z"/></g><path d="M40.45 57.26c.55 0 1 .45 1 1v2c0 .55-.45 1-1 1h-4c-.55 0-1-.45-1-1v-2c0-.55.45-1 1-1h4m0-1h-4c-1.1 0-2 .9-2 2v2c0 1.1.9 2 2 2h4c1.1 0 2-.9 2-2v-2a2 2 0 0 0-2-2zM56.83 57.26c.55 0 1 .45 1 1v2c0 .55-.45 1-1 1h-4c-.55 0-1-.45-1-1v-2c0-.55.45-1 1-1h4m0-1h-4c-1.1 0-2 .9-2 2v2c0 1.1.9 2 2 2h4c1.1 0 2-.9 2-2v-2c0-1.11-.89-2-2-2zM73.22 57.26c.55 0 1 .45 1 1v2c0 .55-.45 1-1 1h-4c-.55 0-1-.45-1-1v-2c0-.55.45-1 1-1h4m0-1h-4c-1.1 0-2 .9-2 2v2c0 1.1.9 2 2 2h4c1.1 0 2-.9 2-2v-2a2 2 0 0 0-2-2zM89.6 57.26c.55 0 1 .45 1 1v2c0 .55-.45 1-1 1h-4c-.55 0-1-.45-1-1v-2c0-.55.45-1 1-1h4m0-1h-4c-1.1 0-2 .9-2 2v2c0 1.1.9 2 2 2h4c1.1 0 2-.9 2-2v-2c0-1.11-.89-2-2-2zM105.99 57.26c.55 0 1 .45 1 1v2c0 .55-.45 1-1 1h-4c-.55 0-1-.45-1-1v-2c0-.55.45-1 1-1h4m0-1h-4c-1.1 0-2 .9-2 2v2c0 1.1.9 2 2 2h4c1.1 0 2-.9 2-2v-2a2 2 0 0 0-2-2z" fill="#424242" opacity=".2"/><circle cx="103.64" cy="74.37" r="3.14" fill="#9E9E9E"/><circle cx="115.17" cy="74.37" r="3.14" fill="#9E9E9E"/><path d="M24.53 75.42h-6.4c-.54 0-.98.44-.98.98v2.23c0 .54.44.98.98.98h6.4c.54 0 .98-.44.98-.98V76.4c0-.54-.44-.98-.98-.98z" fill="#9E9E9E"/><path d="M103.64 72.23c1.18 0 2.14.96 2.14 2.14s-.96 2.14-2.14 2.14-2.14-.96-2.14-2.14.96-2.14 2.14-2.14m0-1c-1.74 0-3.14 1.41-3.14 3.14a3.139 3.139 0 1 0 6.28 0c0-1.73-1.4-3.14-3.14-3.14zM115.17 72.23c1.18 0 2.14.96 2.14 2.14s-.96 2.14-2.14 2.14-2.14-.96-2.14-2.14.95-2.14 2.14-2.14m0-1c-1.74 0-3.14 1.41-3.14 3.14 0 1.74 1.41 3.14 3.14 3.14a3.139 3.139 0 1 0 0-6.28zM24.51 76.42l.02 2.19-6.38.02-.02-2.21h6.38m.02-1h-6.4c-.54 0-.98.44-.98.98v2.23c0 .54.44.98.98.98h6.4c.54 0 .98-.44.98-.98V76.4c0-.54-.44-.98-.98-.98zM121 83v38H7V83h114m3-3H4v44h120V80z" fill="#424242" opacity=".2"/></svg>