<svg viewBox="0 0 128 128" xmlns="http://www.w3.org/2000/svg"><linearGradient id="a" x1="64" x2="64" y1="4.3" y2="124.4" gradientUnits="userSpaceOnUse"><stop stop-color="#82B1FF" offset="0"/><stop stop-color="#6FA0FF" offset=".3"/><stop stop-color="#3D74FF" offset=".8"/><stop stop-color="#2962FF" offset="1"/></linearGradient><path d="M116 124H12a8 8 0 0 1-8-8V12a8 8 0 0 1 8-8h104a8 8 0 0 1 8 8v104a8 8 0 0 1-8 8z" fill="url(#a)"/><path d="M116 7a5 5 0 0 1 5 5v104a5 5 0 0 1-5 5H12a5 5 0 0 1-5-5V12a5 5 0 0 1 5-5h104m0-3H12a8 8 0 0 0-8 8v104a8 8 0 0 0 8 8h104a8 8 0 0 0 8-8V12a8 8 0 0 0-8-8z" fill="#424242" opacity=".2"/><g fill="#424242" opacity=".2"><path d="M64.1 16a10 10 0 1 1 0 20 10 10 0 0 1 0-20m0-3a13 13 0 1 0 0 26 13 13 0 0 0 0-26z"/><path d="M64 37.7c7 0 12.9 2.8 14.2 6.6l9.6 27a3.6 3.6 0 0 1-3.4 4.8c-1.5 0-2.9-1-3.4-2.4L75.4 56c0-.2-.2-.2-.3-.2-.1 0-.2 0-.2.3v51a4.5 4.5 0 0 1-9 0v-32a1.8 1.8 0 1 0-3.6 0v32a4.5 4.5 0 0 1-9 0v-51c0-.2 0-.3-.2-.3l-.3.1-5.7 17.7a3.6 3.6 0 1 1-6.8-2.4l9.6-27c1.2-3.8 7-6.6 14-6.6m0-3c-8.2 0-15.2 3.5-17 8.6l-9.5 27A6.6 6.6 0 0 0 50 74.7v-.1l.4-1.3v34a7.5 7.5 0 0 0 13.8 4 7.5 7.5 0 0 0 13.7-4V73.4l.4 1v.2a6.6 6.6 0 0 0 12.4-4.4l-9.6-27c-1.7-5-8.7-8.6-17-8.6z"/></g><g fill="#fff"><circle cx="64.1" cy="26" r="10"/><path d="M85.6 75.9a3.6 3.6 0 0 0 2.2-4.6l-9.6-27c-1.3-3.8-7.2-6.6-14.2-6.6-7 0-12.9 2.8-14.2 6.5l-9.5 27a3.6 3.6 0 0 0 6.8 2.5L52.8 56c0-.3.5-.2.5.1v51.1a4.5 4.5 0 0 0 9 0v-32a1.8 1.8 0 1 1 3.6 0v32a4.5 4.5 0 0 0 9 0v-51c0-.4.4-.4.5-.1L81 73.6a3.6 3.6 0 0 0 4.6 2.3z"/></g></svg>