<svg viewBox="0 0 128 128" xmlns="http://www.w3.org/2000/svg"><linearGradient id="a" x1="64" x2="64" y1="4.3" y2="124.4" gradientUnits="userSpaceOnUse"><stop stop-color="#82B1FF" offset="0"/><stop stop-color="#6FA0FF" offset=".3"/><stop stop-color="#3D74FF" offset=".8"/><stop stop-color="#2962FF" offset="1"/></linearGradient><path d="M116 124H12a8 8 0 0 1-8-8V12a8 8 0 0 1 8-8h104a8 8 0 0 1 8 8v104a8 8 0 0 1-8 8z" fill="url(#a)"/><path d="M116 7a5 5 0 0 1 5 5v104a5 5 0 0 1-5 5H12a5 5 0 0 1-5-5V12a5 5 0 0 1 5-5h104m0-3H12a8 8 0 0 0-8 8v104a8 8 0 0 0 8 8h104a8 8 0 0 0 8-8V12a8 8 0 0 0-8-8z" fill="#424242" opacity=".2"/><g fill="#424242" opacity=".2"><path d="M64.1 16a10 10 0 1 1 0 20 10 10 0 0 1 0-20m0-3a13 13 0 1 0 0 26 13 13 0 0 0 0-26z"/><path d="M64 38c7 0 12.8 2.8 14.1 6.6l9.6 27a3.6 3.6 0 0 1-3.3 4.7c-1.5 0-3-.9-3.4-2.4l-5.7-17.5c0-.2-.1-.2-.2-.2-.2 0-.3 0-.3.2v5.8l6.6 26c.3 1.2-.6 2.3-1.8 2.3h-4c-.4 0-.8.4-.8.9v16.1c0 2.5-2 4.5-4.5 4.5H70c-2.4-.2-4-2.3-4-4.7v-15a1.8 1.8 0 1 0-3.7 0v15.2c0 2.5-2 4.5-4.4 4.5h-.5c-2.3-.2-4-2.3-4-4.7v-16c0-.4-.4-.8-1-.8h-4c-1 0-2-1.1-1.7-2.2L53.3 62v-5.7c0-.2-.2-.3-.3-.3-.1 0-.2 0-.3.2L47 74a3.6 3.6 0 1 1-6.8-2.3l9.6-27c1.2-3.8 7-6.6 14.1-6.6m0-3c-8.2 0-15.2 3.5-17 8.5l-9.5 27a6.6 6.6 0 0 0 8.5 8.4l-2.2 8.6a4.8 4.8 0 0 0 4.7 6h1.9v13.8a7.6 7.6 0 0 0 7.4 7.7c2.7 0 5-1.4 6.4-3.5a7.4 7.4 0 0 0 13.7-4v-14h1.8c1.5 0 2.9-.7 3.8-1.9 1-1.1 1.2-2.6.9-4L82 78.8a6.5 6.5 0 0 0 8.2-3.3c.7-1.6.8-3.4.2-5l-9.6-27c-1.7-5-8.7-8.6-17-8.6z"/></g><g fill="#fff"><circle cx="64.1" cy="26" r="10"/><path d="M87.7 71.6l-9.6-27C76.8 40.8 71 38 63.9 38c-7 0-12.9 2.8-14.2 6.5l-9.5 27A3.6 3.6 0 0 0 47 74l5.7-17.6c.1-.3.6-.2.6.1v5.7l-6.7 26.2c-.3 1 .6 2.2 1.8 2.2h4c.5 0 .9.4.9.9v16c0 2.3 1.7 4.4 4 4.6 2.7.2 5-1.9 5-4.5V92.3a1.8 1.8 0 1 1 3.5 0v15c0 2.4 1.7 4.4 4 4.7 2.7.2 5-1.9 5-4.5V91.4c0-.5.4-1 .9-1h4c1.1 0 2-1 1.7-2.1l-6.6-26v-5.9c0-.3.4-.4.5 0L81 73.8a3.6 3.6 0 0 0 6.7-2.3z"/></g></svg>