<svg viewBox="0 0 128 128" xmlns="http://www.w3.org/2000/svg" xmlns:xlink="http://www.w3.org/1999/xlink"><linearGradient id="a" x1="85.3" x2="85.3" y1="87.1" y2="110.8" gradientTransform="rotate(-13.7 -246.6 180.8)" gradientUnits="userSpaceOnUse"><stop stop-color="#FFCA28" offset=".5"/><stop stop-color="#FFB300" offset=".8"/><stop stop-color="#E59600" offset="1"/></linearGradient><path d="M66 8.6C63 4.8 57.2 4 52.5 5c-5.2 1.3-7.7 5.4-8 10.3a13 13 0 0 0 .4 4.7l.5 1.5c.3 1.3-2.1 2.8-2.3 4.3-.2 1.1 2.2 1.6 2.3 1.8 1 .9 0 5.7 6.2 5.6 2.2 0 3.2-.5 4 1l.2 4.2 7 .2s-.9-3.7 1.4-8.2c1.1-2 2-4.6 3.6-6.7 3.3-4 .7-12-1.8-15.2z" fill="url(#a)"/><linearGradient id="b" x1="42.9" x2="69.9" y1="25.5" y2="18.9" gradientUnits="userSpaceOnUse"><stop stop-color="#EDA600" offset="0"/><stop stop-color="#D18900" offset=".9"/></linearGradient><path d="M56.6 5.7c3.7 0 6.9 1.2 8.7 3.5 2.3 2.9 4.6 10.4 1.7 14-1.3 1.6-2 3.3-2.8 5l-.9 1.9a15 15 0 0 0-1.7 7.5h-4.9l-.2-3.3v-.4c-.8-1.5-2-1.7-3-1.7h-2.1c-3.7 0-4.1-1.8-4.5-3.4-.2-.8-.3-1.4-.8-1.9l-.8-.3-1.2-.7c0-.4.5-1 1-1.4.7-.9 1.5-1.9 1.2-3l-.4-1.6v-.1c-.4-1.2-.6-2.8-.5-4.4.2-2.8 1.5-7.8 7.4-9.3 1.2-.3 2.5-.4 3.8-.4m0-1a17 17 0 0 0-4 .4c-5.3 1.3-7.8 5.4-8.2 10.3A13 13 0 0 0 45 20l.5 1.6c.3 1.2-2.2 2.7-2.3 4.2-.2 1.1 2.1 1.6 2.3 1.8 1 .9 0 5.6 6 5.6h2.2c1 0 1.5.1 2 1l.2 4.2 7 .2s-.9-3.7 1.4-8.2c1-2 1.9-4.6 3.6-6.6 3.3-4.1.7-12.2-1.7-15.3-2.2-2.8-5.9-4-9.5-4z" fill="url(#b)"/><radialGradient id="c" cx="40.1" cy="12.8" r="13.2" gradientTransform="matrix(1.0362 -.0706 .0739 .9975 11 .4)" gradientUnits="userSpaceOnUse"><stop stop-color="#6D4C41" offset="0"/><stop stop-color="#543930" offset="1"/></radialGradient><path d="M57.7 26.2l1.5-5.2s3.3.7 2.4 4c-.6 2.4.9 5.1 2 5.3l.6.2c1-3.5 5.5-4.6 6.1-13.9C71 8.6 64 4.1 57.1 4 50.6 4 43.4 8.2 44 17c0 .3 8.4 1 10.4 3 2 2.1.4 6 3.3 6.2z" fill="url(#c)"/><defs><path id="d" d="M63.8 20.6l-.2 8.7-.5.8.5.2.6.2c1-3.5 5.5-4.6 6.1-13.9.6-8-6.5-12.5-13.2-12.6-6.5 0-13.8 4.5-13.2 13l1 .2v-1.4l9.9 1.1 9 3.7z"/></defs><clipPath id="e"><use xlink:href="#d"/></clipPath><g clip-path="url(#e)"><path d="M56.9 5h.2c3.8 0 7.4 1.6 9.7 4 1.9 2 2.7 4.7 2.5 7.5a15 15 0 0 1-4 10.2c-.6.9-1.2 1.6-1.7 2.6a4.6 4.6 0 0 1-1-4c.3-1.3.2-2.4-.4-3.3a4.6 4.6 0 0 0-2.8-2h-.2a1 1 0 0 0-1 .7L57.1 25a5 5 0 0 1-.5-1.8c-.2-1.1-.4-2.6-1.5-3.7-1.5-1.6-5.3-2.3-9.2-3l-1-.1c0-3 .9-5.5 2.7-7.5C49.8 6.4 53.3 5 57 5m0-1c-6.4 0-13.6 4.4-13 13 0 .3 8.5 1 10.5 3 2 2.1.4 6 3.3 6.2l1.5-5.2s3.3.7 2.4 4c-.6 2.4.9 5.1 2 5.4l.6.1c1-3.5 5.5-4.6 6.1-13.9C71 8.6 64 4.1 57.1 4h-.2z" fill="#452B22"/></g><path d="M48.5 27l-2.4.6.5 1.5c1 2.4 2.8 4.8 7 4.2.5 0-2.4-5.3-2.4-5.3l-2.7-1z" fill="none"/><defs><path id="f" d="M66 8.6C63 4.8 57.2 4 52.5 5c-6.4 1.7-9 7-8.2 13.4l.8 3.7c.5 2.2-1.4 2-1.7 3.6-.3 1.6 1.8 1.7 2 1.9 1 .9 0 5.7 6.2 5.6 2.2 0 3.2-.5 4 1l1.3 4.3h5.8s.2-8.7 5-14.7c3.4-4.1.8-12.2-1.7-15.3z"/></defs><clipPath id="g"><use xlink:href="#f"/></clipPath><g clip-path="url(#g)"><path d="M42 28.2c1.5 1.9 4.7 2.9 6.6 1.1.8-.6.2-1.2-.7-.8-1.4.8-4 0-5-1.1-.6-.8-1.6 0-1 .8z" fill="#795548"/></g><ellipse transform="rotate(-2 48.5 23.1)" cx="48.5" cy="23.1" rx="1.1" ry="1.8" fill="#404040"/><path d="M47.6 20.5c-1.1.3-1.3-.5-1-1 .4-.5 1-.8 2.3-.5a3 3 0 0 1 2 1.5c.3.5.3.9 0 1-.4 0-1.9-1.3-3.3-1z" fill="#6D4C41"/><path d="M64 100.5c-3-2.3-5-5.5-5.8-9.1l-4.8-22.7L68 67.1l1.3 22c0 1.4.7 2.8 1.6 3.9l13.8 15.7-4.5 4.1L64 100.5z" fill="#444"/><path d="M67.4 67.7L68.7 89c.1 1.5.7 3 1.7 4.2L84 108.6l-3.8 3.6L64.3 100a15 15 0 0 1-5.6-8.9l-4.7-22 13.4-1.5m1-1.1l-15.6 1.7 5 23.2a16 16 0 0 0 5.9 9.4L80 113.5l5.2-4.8-14.1-16a6 6 0 0 1-1.5-3.7l-1.4-22.4z" fill="#2D2E30"/><path d="M47.3 119l-1.6-22.7a39 39 0 0 1 .8-11.3L51 65l16.7-1.6.8 8c0 5.2-3.4 7.6-7 9.3-.3.1-.4.2-5.5 13.7v.1l-3 24.6h-5.7z" fill="#646464"/><path d="M67.3 64l.7 7.5c0 5-3.5 7.2-6.8 8.8-.5.2-.5.2-5.7 13.9v.2l-2.9 24.2h-4.9l-1.5-22.3c-.3-3.8 0-7.5.8-11.2l4.4-19.7L67.3 64m.8-1.1l-17.5 1.6L46 84.9c-.8 3.7-1 7.6-.8 11.4l1.6 23.3h6.7l3-25 5.1-13.5c3.3-1.5 7.4-3.9 7.4-9.7l-.9-8.5z" fill="#4F4F4F"/><radialGradient id="h" cx="58.9" cy="54.1" r="15" gradientUnits="userSpaceOnUse"><stop stop-color="#00BFA5" offset=".4"/><stop stop-color="#00B29A" offset=".8"/><stop stop-color="#00AB94" offset="1"/></radialGradient><path d="M53 73c-2 0-3.6-2-3.6-4.3l2.1-22.5c.5-4 .7-6.8 5.2-9.8l4.5-1 .8-.2c1.4 0 2.6.9 3.3 2.3 1 2 1.5 4 1.6 5.7l1.6 25.5C68.5 71 67 73 65 73H53z" fill="url(#h)"/><path d="M62 35.7c1.2 0 2.3.8 2.8 2 1 2 1.5 3.9 1.6 5.5L68 68.7c0 2.1-1.4 3.8-3.1 3.8h-12c-1.6 0-3-1.7-3-3.8L52 46.3c.4-4 .7-6.5 5-9.4l4.3-1 .7-.2m0-1c-.3 0-.7 0-1 .2l-4.5 1c-4.7 3.2-5 6.1-5.5 10.3l-2 22.5c0 2.6 1.8 4.8 4.1 4.8H65c2.3 0 4.1-2.2 4.1-4.8l-1.6-25.5a21 21 0 0 0-1.7-6 4.2 4.2 0 0 0-3.7-2.5z" fill="#009984"/><linearGradient id="i" x1="61.9" x2="61.9" y1="48.4" y2="79" gradientUnits="userSpaceOnUse"><stop stop-color="#FFB300" offset="0"/><stop stop-color="#FFCA28" offset="1"/></linearGradient><path fill="url(#i)" d="M59.6 61.7l7-1.1-2.3-14.1-7 1.1z"/><linearGradient id="j" x1="63" x2="63" y1="48.4" y2="79" gradientUnits="userSpaceOnUse"><stop stop-color="#FFB300" offset="0"/><stop stop-color="#FFCA28" offset="1"/></linearGradient><circle cx="63" cy="61.1" r="3.6" fill="url(#j)"/><linearGradient id="k" x1="65.2" x2="65.2" y1="39.6" y2="67.7" gradientTransform="matrix(1.0283 -.065 -.065 1.149 -2.4 5.6)" gradientUnits="userSpaceOnUse"><stop stop-color="#FFB300" offset="0"/><stop stop-color="#FFCA28" offset="1"/></linearGradient><path d="M57.3 74.4c1.8.8 3.4-.3 4.2-2.3l4.7-9.3-6.5-2.8-3.6 10c-.8 2-.6 3.7 1.2 4.4z" fill="url(#k)"/><path d="M63.4 47.6l2.1 12.8v.1c.2.6.1 1.3-.2 1.8v.2l-4.6 9C60.1 73 58.1 75 57 75h-.3c-.8-.4-.4-2.7.4-4.7l3.3-9v-.6l-2-12.2 5-.8m.8-1.1l-7 1.1 2.2 13.2-3.2 9c-.8 2-1.7 5.2.1 6l.7.1c1.7 0 4-2.3 4.6-4l4.6-9a4 4 0 0 0 .3-2.6l-2.3-13.8z" fill="#EDA600"/><path d="M55.1 43.2c-.2-1.3 0-2.6.9-3.8a5 5 0 0 1 4.1-2.1 5 5 0 0 1 5 4.1l1.6 9.2-9.9 1.8-1.7-9.2z" fill="#04A287"/><path d="M60.1 37.8c2.2 0 4 1.6 4.5 3.7l1.5 8.7-8.9 1.6-1.6-8.7c-.2-1.2 0-2.4.8-3.4a4.8 4.8 0 0 1 3.7-2m0-1a5.5 5.5 0 0 0-5.4 6.6l1.7 9.7 11-2-1.9-9.7a5.6 5.6 0 0 0-5.4-4.5z" fill="#008F76"/><defs><path id="l" d="M56.9 71l.2-.7s-1-1.1-2-.2c-.8.6-3.4 2-3.8 3.3-.4 1.3-.6 3.6-.5 4.7 0 .4.3 3 2.6 4 2.2 1 5.8 1.5 7.7-4 .4-.6.5-2 .7-3.4l-.2-1.6c-.1-.7-1-1.4-1-1.4l-.4 1-3.3-1.7z"/></defs><clipPath id="m"><use xlink:href="#l"/></clipPath><g clip-path="url(#m)"><linearGradient id="n" x1="66.4" x2="64.7" y1="61.8" y2="68.4" gradientTransform="rotate(4.3 -97.5 -61.3)" gradientUnits="userSpaceOnUse"><stop stop-color="#FFB300" offset="0"/><stop stop-color="#FFCA28" offset="1"/></linearGradient><path d="M59.7 71.7l-.7-.3a10 10 0 0 0-1.5-.8c-.8-.3-3.9 1.8-4.6 2.2l-.6.4c-.3.2-.5.5-.5.8l-.1.2s0 1.6-.2 2.5c0 .3.1.8.4.9v1.2c-.1.4 0 .6 0 .8 0 .4.2.6.5.7.3.2.4 0 .6 0s.1.3.2.5c.2.6.7.6 1 .6.5 0 .6-.5.7-.5.2 0 .3.1.4.3 0 .2.4.3.7.3.7 0 1.1-.7 1.2-.6.1.3.8.5 1.1.2.3-.1.5 0 1.8-3 .3-.6.6-2 .7-3.4l.1-.6c.1-1-.3-2-1.2-2.4z" fill="url(#n)"/><linearGradient id="o" x1="71.2" x2="74.2" y1="47.5" y2="51.8" gradientTransform="rotate(8 -97.7 -61)" gradientUnits="userSpaceOnUse"><stop stop-color="#FFB300" offset="0"/><stop stop-color="#FFCA28" offset="1"/></linearGradient><path d="M59.7 72l-2.3-1.1c-.8-.6-4 1.3-5 2.6-.5.3-.8.8-.5 1.2.3.4.4.5.8.2l.2.5c.2.5.8.4 1 .4.4 0 .5 0 .6.4.1.3.4.6.7.8l1-.1c.1-.1.3 0 .3.2.2.2.4.5.7.5.4.2.6 0 .9 0h.4c.1.2.2.6.5.8 1.5.5 1.5-2.6 1.7-4.4a2 2 0 0 0-1-2z" fill="url(#o)"/><path fill="none" stroke="#EDA600" stroke-linecap="round" stroke-linejoin="round" stroke-miterlimit="10" d="M42.8 84.3l.9-3.8m1.2 4.1l.8-3.3"/><path fill="none" stroke="#EDA600" stroke-linecap="round" stroke-linejoin="round" stroke-miterlimit="10" stroke-width=".8" d="M57.2 80.9l.6-2.3M55 81l.9-2.8m-2.8 2.1l.7-3.1"/><path d="M43.6 80.3c-.5 0-.9-.2-1-.5-.2.2-.5.4-.9.4-.3 0-1 0-1.3-.8v-.2l-.6-.1c-.4-.2-.7-.5-.7-1l.2-2.4.2-1-.2-.3c-.2-.2-.3-.6-.2-1 .2-.7.2-2.2.2-2.2v-.5c.1-.3.4-.7.7-.9l.7-.4c.7-.5 1.4-1 2.2-1.8 1-1 1.9-.7 2.7-.4l1.6.7.7.4c1 .5 1.5 1.5 1.4 2.7l-.1.6c-.2 1.4-.5 2.9-.8 3.5-1.2 3-1.7 4-2.3 4.5-.4.3-.8.4-1.2.3h-.3c-.2.2-.5.4-1 .5zm-1-1.3c.2 0 .4.1.6.4 0 .1.1.2.4.2.3 0 .5-.3.6-.4 0-.1.2-.3.4-.3s.3.1.3.3c.2 0 .5 0 .7-.2.5-.4 1-1.2 2.1-4.2.2-.5.6-1.9.7-3.3l.1-.6a2 2 0 0 0-1-2l-.7-.3c-.4-.3-.8-.5-1.5-.7-.7-.3-1.2-.4-2 .2-.7 1-1.5 1.5-2.2 2-.3 0-.5.2-.7.3-.1.1-.3.3-.3.5v.2s0 1.6-.3 2.6l.1.3v.1l.3.1v.3l-.1 1.4-.3 2.1c0 .2.1.3.3.4h.6c.3.2.4.4.4.6v.1c.2.4.5.4.6.4.2 0 .3-.2.4-.3l.4-.2zM56 82c-.5-.1-.9-.3-1-.6l-.8.4c-.4 0-1-.1-1.3-.8l-.1-.2-.6-.1c-.4-.2-.7-.6-.7-1v-1.9l-.2-.3c-.2-.2-.3-.6-.2-1 .2-.7.2-2.2.2-2.2v-.2l.1-.3c0-.3.3-.6.6-.9l.7-.4L55 71c.3-.2 1.8-1.1 2.7-.8l1.6.7.7.4c1 .5 1.5 1.6 1.4 2.7l-.1.6c-.1 1.4-.5 2.9-.8 3.5-1.1 2.9-1.5 3-1.8 3.2a1.3 1.3 0 0 1-1.5 0c-.2.2-.6.5-1 .5zm-1-1.5c.3 0 .5.2.6.5l.4.2c.3 0 .6-.3.8-.5l.4-.2.3.2.2.2h.4l.1-.1c.2-.1.5-.3 1.5-3 .3-.4.6-1.8.8-3.2V74c.1-.8-.2-1.6-1-2l-.7-.3-1.4-.7c-.5-.2-1.5.3-2 .7L53 73l-.6.4c-.2.1-.4.3-.4.5v.2s0 1.6-.2 2.6v.3l.1.1c.2 0 .3.2.3.4v2c0 .2 0 .3.2.4h.7l.3.6v.1c.2.4.6.4.6.3.3 0 .3-.1.4-.2l.4-.3h.1z" fill="#EDA600"/></g><path d="M39 123.5l-.3-.1-.2-.4v-1.3c0-1.4.9-2.7 2.2-3.2l6.2-2h6.7c.4.5 1.6 2.1 1.6 3.5v2.8c0 .2 0 .4-.2.5l-.4.2H39z" fill="#4568AD"/><path d="M53.4 117c.5.7 1.4 2 1.4 3v2.9h-.2L39 123v-1.3a3 3 0 0 1 2-2.7l6-2h6.3m.5-1h-7l-6.2 2a4 4 0 0 0-2.6 3.7v1.3c0 .5.5 1 1 1h15.6c.6 0 1.1-.5 1.1-1.2V120c0-1.9-1.9-4-1.9-4z" fill="#315499"/><path d="M78 122.7c-.2 0-.3 0-.4-.2l-1-.9c-1-1-1.2-2.5-.6-3.9l2.9-5.8 4.7-4.7c.7.1 2.7.4 3.7 1.4l2 2c.2.2.2.6 0 .9l-11 11-.4.2z" fill="#325599"/><path d="M83.8 107.8c.9 0 2.4.4 3.2 1.1l2 2v.2l-11 11-1-.8a3 3 0 0 1-.6-3.3l2.9-5.8 4.5-4.4m-.4-1l-5 4.9-2.9 5.9a4 4 0 0 0 .8 4.4l1 .9c.1.2.4.3.6.3s.5-.1.7-.3l11-11c.5-.5.5-1.2 0-1.7l-2-2c-1.3-1.3-4.2-1.5-4.2-1.5z" fill="#224487"/></svg>