<svg viewBox="0 0 128 128" xmlns="http://www.w3.org/2000/svg"><path fill="#F06292" d="M52 36h71.9v88H52z"/><path fill="#F48FB1" d="M72.1 36h12v88h-12zM92 36h12v88H92zm19.9 0h12v88h-12zM52 36h12v88H52z"/><path d="M121 39v82H55V39h66m3-3H52v88h72V36z" fill="#424242" opacity=".2"/><circle cx="111" cy="45.8" r="4" fill="#AD1457"/><circle cx="65" cy="45.8" r="4" fill="#AD1457"/><linearGradient id="a" x1="88.1" x2="88.1" y1="6" y2="48.2" gradientUnits="userSpaceOnUse"><stop stop-color="#AED581" offset=".5"/><stop stop-color="#8BC34A" offset="1"/></linearGradient><path d="M114 30.1a26 26 0 1 0-52 0v15a3 3 0 1 0 6 0V30.6c0-10.8 8.5-20 19.3-20.5a20 20 0 0 1 20.7 20v15a3 3 0 1 0 6 0V30z" fill="url(#a)"/><path d="M88 5.1a25 25 0 0 1 25 25v15a2 2 0 0 1-4 0v-15a21 21 0 0 0-21-21h-.8a21.6 21.6 0 0 0-20.1 21.5v14.5c0 1-1 2-2 2s-2-1-2-2V30a25 25 0 0 1 25-25m0-1a26 26 0 0 0-26 26v15a3 3 0 1 0 6 0V30.6c0-10.8 8.4-20 19.2-20.5h.7c11 0 20 9 20 20v15a3 3 0 1 0 6 0V30A26 26 0 0 0 88 4z" fill="#424242" opacity=".2"/><linearGradient id="b" x1="73.7" x2="101" y1="97.9" y2="97.9" gradientUnits="userSpaceOnUse"><stop stop-color="#E91E63" offset=".3"/><stop stop-color="#F06292" stop-opacity=".3" offset=".8"/></linearGradient><path fill="url(#b)" mask="url(#c)" opacity=".4" d="M104.5 124h-29V71.7z"/><path fill="#C5E1A5" d="M4 72.1h72v52H4z"/><path fill="#AED581" d="M76 80.2v12H4v-12zm0 24v12H4v-12z"/><circle cx="60" cy="80.8" r="4" fill="#7CB342"/><circle cx="20.1" cy="80.8" r="4" fill="#7CB342"/><path d="M17 85.1a22.9 22.9 0 1 0 45.7 0v-4.4c0-1.5-1.2-2.6-2.7-2.6s-2.6 1.2-2.6 2.6v4a18 18 0 0 1-16.9 18.1c-10 .4-18.3-7.7-18.3-17.7v-1.7h.1v-2.7a2.7 2.7 0 1 0-5.3 0v4.4z" fill="#F06292"/><path d="M60 79c1 0 1.7.8 1.7 1.7v4.4a22 22 0 0 1-43.7 0v-4.3c0-1 .7-1.7 1.7-1.7s1.6.7 1.6 1.7V85c0 10.3 8.3 18.7 18.5 18.7h.8a19 19 0 0 0 17.8-19.1v-4c0-.9.7-1.6 1.6-1.6m0-1a2.6 2.6 0 0 0-2.6 2.6v4a18 18 0 0 1-16.9 18.1h-.7c-9.7 0-17.5-8-17.5-17.7v-4.4a2.7 2.7 0 1 0-5.3 0V85a22.9 22.9 0 1 0 45.7 0v-4.4c0-1.5-1.2-2.6-2.7-2.6z" fill="#424242" opacity=".2"/><path d="M73 75.1v46H7v-46h66m3-3H4v52h72v-52z" fill="#424242" opacity=".2"/></svg>