<svg viewBox="0 0 128 128" xmlns="http://www.w3.org/2000/svg"><linearGradient id="a" x1="64" x2="64" y1="4.3" y2="124.4" gradientUnits="userSpaceOnUse"><stop stop-color="#82B1FF" offset="0"/><stop stop-color="#6FA0FF" offset=".3"/><stop stop-color="#3D74FF" offset=".8"/><stop stop-color="#2962FF" offset="1"/></linearGradient><path d="M116 124H12a8 8 0 0 1-8-8V12a8 8 0 0 1 8-8h104a8 8 0 0 1 8 8v104a8 8 0 0 1-8 8z" fill="url(#a)"/><path d="M116 7a5 5 0 0 1 5 5v104a5 5 0 0 1-5 5H12a5 5 0 0 1-5-5V12a5 5 0 0 1 5-5h104m0-3H12a8 8 0 0 0-8 8v104a8 8 0 0 0 8 8h104a8 8 0 0 0 8-8V12a8 8 0 0 0-8-8z" fill="#424242" opacity=".2"/><g fill="#424242" opacity=".2"><path d="M108.3 57.2A19.6 19.6 0 0 0 96 53h-1.1A18 18 0 0 0 107 36v-6c0-1-.3-2-1-2.9a5 5 0 0 0 1-2.9v-6a5 5 0 0 0-5-5H70.7c-2.4 0-4.5 1.4-5.5 3.6s-.6 4.6 1 6.4l2.8 3.2-2.8 1.2H66l-.3.2a5 5 0 0 0-2 5.6 5 5 0 0 0 4.8 3.6H71a18 18 0 0 0 12.1 16H77v.2a14.2 14.2 0 0 0-8.6 4.7L54.2 71.6c-.4.4-1 .6-1.5.6H40.4l.2-.5.1-.4v-5.2h.2l2.1-.4a5 5 0 0 0 4-5V36a5 5 0 0 0-5.2-5l-19.4 1c-1.3 0-2.4.8-2.9 2l-.7-.2H18a5 5 0 0 0-5 5v25.4a5 5 0 0 0 3.5 4.7l11.9 3.8c-3 1-5.2 3.7-5.5 6.9a8.2 8.2 0 0 0 8.2 8.9h26.7c2.2 0 4.4-.9 5.9-2.5l5.3-5.4V98a5 5 0 0 0 1.7 3.7A4 4 0 0 0 69 105v6a4 4 0 0 0 4 4h26a4 4 0 0 0 3.2-1.6c1.2.8 2.5 1.4 4 1.6h.8a8 8 0 0 0 8-8V71.4c0-5.5-2.4-10.6-6.7-14.2z"/><path d="M100 64.4l.3-.4h-.3z"/></g><g fill="#FAFAFA"><path d="M68.4 21.2a3 3 0 0 1 2.3-5H102a2 2 0 0 1 2 2v5.1a2 2 0 0 1-2 2H75.1c-3.6 0-6.7-4-6.7-4zM99 112H73a1 1 0 0 1-1-1v-6c0-.6.5-1 1-1h26c.6 0 1 .5 1 1v6c0 .6-.5 1-1 1zm5-82a2 2 0 0 0-2-2H74.1a6 6 0 0 0-2.3.5l-4.4 1.8c-1.6 1.1-.8 3.7 1.1 3.7H73c.6 0 1 .5 1 1v1a15 15 0 0 0 30 0v-6zm-88 8.8v25.4a2 2 0 0 0 1.4 1.9l18.4 5.8c.8.3 1.7-.2 2-1V41.7a2 2 0 0 0-1.8-2l-17.7-3a2 2 0 0 0-2.3 2z"/><path d="M41.9 34l-19.4 1c-.3 0-.3.4 0 .4L38 38a2 2 0 0 1 1.7 2v23l.6.2 2.1-.5a2 2 0 0 0 1.6-2V36c0-1.2-1-2-2.1-2zM72 73.2V87a1 1 0 0 0 1.8.6L96.5 60c.5-.7 1.8-4-.8-4H79.2a11.2 11.2 0 0 0-8.6 4L56.3 73.7a5 5 0 0 1-3.6 1.5H31.3c-2.7 0-5.1 2-5.4 4.6a5.2 5.2 0 0 0 5.2 5.7h26.7a5 5 0 0 0 3.7-1.6l6.5-6.6 4-4.1zm34.2-13.8l-.6-.4a1 1 0 0 0-1.3.1l-32 39.3a1 1 0 0 0 .8 1.6H100V73c0-.6.5-1 1-1s1 .5 1 1v33.8c0 2.6 2 5 4.5 5.2a5 5 0 0 0 5.5-5V71.4c0-4.7-2.1-9.1-5.8-12z"/></g></svg>