<svg viewBox="0 0 128 128" xmlns="http://www.w3.org/2000/svg" xmlns:xlink="http://www.w3.org/1999/xlink"><linearGradient id="a" x1="64.101" x2="64.101" y1="77.109" y2="124" gradientUnits="userSpaceOnUse"><stop stop-color="#29B6F6" offset="0"/><stop stop-color="#0288D1" offset=".983"/></linearGradient><path d="M124 124H4.2V79.6c0-5.73 37.06-11 68.83-2.71C110.38 86.62 124 79.6 124 79.6V124z" fill="url(#a)"/><path d="M37.5 75.59c8.52 0 21.48.73 34.77 4.19 13.39 3.49 25.3 5.26 35.39 5.26 6.12 0 10.47-.65 13.34-1.33V121H7.2V80.19c2.08-1.68 12.63-4.6 30.3-4.6m0-3C18.79 72.59 4.2 76 4.2 79.6V124H124V79.6s-4.75 2.45-16.34 2.45c-8.03 0-19.35-1.18-34.63-5.16-11.84-3.09-24.41-4.3-35.53-4.3z" fill="#424242" opacity=".2"/><path d="M120.68 57.18l-26.66-2.23.34-3.99 26.51 2.37a2 2 0 0 1 1.82 1.99c0 1.1-.93 1.95-2.01 1.86zM79.57 42.83l13.91-1.55c.52-.06 1 .26 1.14.74l1.64 5.62c.23.77-.5 1.49-1.3 1.29l-15.55-4.07c-1.13-.3-1-1.9.16-2.03z" fill="#757575"/><path fill="#757575" d="M114.36 55.5h3.93v12h-3.93zM104 55.5h3.93v12H104z"/><path fill="#999" d="M70.83 64z"/><path d="M64.89 42c17.34.19 31.29 3.95 31.29 3.95L99.32 63l-87.69-2.89S45.24 41.78 64.89 42z" fill="#ECEFF1"/><defs><path id="b" d="M64.89 42c17.34.19 31.29 3.95 31.29 3.95L99.32 63l-87.69-2.89S45.24 41.78 64.89 42z"/></defs><clipPath id="c"><use xlink:href="#b"/></clipPath><path d="M49.85 55.53l-40.8-2.29 18.81-10.55 25.61 1.45c1.8.1 3.27 1.24 3.53 2.73l-1.45 4.7a5.651 5.651 0 0 1-5.7 3.96zM83.64 57.18l-16.98-.94c-.86-.05-1.6-.65-1.81-1.49l-1.61-6.37a1.98 1.98 0 0 1 2.05-2.46l16.48 1.12c.79.05 1.48.58 1.74 1.33l2.11 6.19c.45 1.34-.59 2.7-1.98 2.62z" clip-path="url(#c)" fill="#039BE5"/><linearGradient id="d" x1="15.713" x2="65.303" y1="74.326" y2="74.326" gradientUnits="userSpaceOnUse"><stop stop-color="#81D4FA" offset=".004"/><stop stop-color="#29B6F6" offset=".909"/></linearGradient><path d="M16.77 73.08c1.85-1.49 4.69-2.59 7.08-2.62-.73-.11-1.63-.33-2.06-1-.38-.59-.28-1.42.17-1.95.95-1.12 3.64-.84 4.95-.88 1.9-.06 3.98-.14 5.93.06-.59-.25-1.12-.71-1.35-1.33-.26-.72-.01-1.65.67-2.01.56-.3 1.24-.18 1.86-.04 12.31 2.73 23.31 9.54 31.07 19.51 1.18 1.52-2.91 3.52-4.76 2.26-14.83-10.08-36.83 0-42.57-3.44-.83-.5-1.46-1.51-1.22-2.45.59-2.28 3.81-2.91 5.25-3.35-1.33.14-4.73.48-5.08.37-.66-.21-1.07-.96-.99-1.66.06-.49.45-.99 1.05-1.47z" fill="url(#d)"/><path d="M34.41 65.46c11.26 2.68 21.31 8.96 28.47 17.79-.31.13-.69.24-1.07.24-.21 0-.33-.04-.35-.05-4.92-3.34-11.01-4.97-18.62-4.97-4.77 0-9.37.62-13.43 1.16-3.08.41-5.73.77-7.79.77-1.7 0-2.48-.25-2.83-.47a.75.75 0 0 1-.29-.31c.32-.86 2.29-1.41 3.26-1.68.23-.07.44-.13.63-.18a2 2 0 1 0-.59-3.91c-.07 0-.14 0-.2.01-1.16.12-2.12.21-2.86.27 1.52-.98 3.52-1.65 5.14-1.67a2.003 2.003 0 0 0 .81-3.82 16.2 16.2 0 0 1 1.36-.01h.54c.14 0 .27 0 .39-.01l.33-.01c.87-.03 1.77-.06 2.66-.06 1.03 0 1.91.04 2.68.12.07.01.14.01.21.01.9 0 1.71-.61 1.94-1.5.13-.61-.02-1.25-.39-1.72m-1.42-2.29c-.29 0-.57.05-.83.19-.68.36-.94 1.28-.67 2.01.22.61.75 1.08 1.35 1.33-.94-.1-1.91-.13-2.88-.13-1.04 0-2.07.04-3.05.07h-.32c-.33 0-.73-.01-1.14-.01-1.3 0-2.82.1-3.49.88-.45.53-.55 1.36-.17 1.95.43.67 1.33.9 2.06 1-2.39.03-5.23 1.13-7.08 2.62-.6.48-.99.98-1.04 1.48-.08.69.33 1.44.99 1.66.05.02.15.02.3.02.94 0 3.63-.27 4.77-.39-1.45.45-4.67 1.07-5.25 3.35-.24.94.39 1.95 1.22 2.45.91.55 2.23.75 3.86.75 5.01 0 12.98-1.93 21.22-1.93 6.03 0 12.22 1.04 17.49 4.62.41.28.93.4 1.47.4 1.93 0 4.21-1.47 3.28-2.66-7.75-9.97-18.76-16.78-31.07-19.51-.32-.08-.68-.15-1.02-.15zM65 42v2h.1c13.99.16 25.74 2.7 29.46 3.58l2.4 13.33-77.24-2.55C30.4 53.17 51 44 65 44v-2m-.46 0c-19.7 0-52.9 18.11-52.9 18.11L99.32 63l-3.15-17.04s-13.94-3.76-31.29-3.95c-.11-.01-.23-.01-.34-.01z" fill="#424242" opacity=".2"/><path d="M6.21 56.48c-1.81-.11-2.24.47-1.46 1.71C6.83 61.5 12.33 72.53 29 78c22.34 7.34 87 5.1 87 5.1l6.1-15.1v-6L6.21 56.48z" fill="#E53935"/><defs><path id="e" d="M6.21 56.48c-1.81-.11-2.24.47-1.46 1.71C6.83 61.5 12.33 72.53 29 78c22.34 7.34 87 5.1 87 5.1l6.1-15.1v-6L6.21 56.48z"/></defs><clipPath id="f"><use xlink:href="#e"/></clipPath><path clip-path="url(#f)" fill="#F5F5F5" d="M124 90.5H4v-29l119.96 6.68z"/><path d="M7.3 58.53l112.8 5.37v3.7l-5.46 13.53c-2.98.09-10.8.28-20.62.28-17.99 0-50.28-.69-64.39-5.32C15.51 71.47 9.83 62.71 7.3 58.53m-1.48-2.06c-1.47 0-1.78.58-1.07 1.72C6.83 61.5 12.33 72.53 29 78c13.88 4.56 44.12 5.42 65.01 5.42 12.73 0 21.99-.32 21.99-.32l6.1-15.1v-6L6.21 56.48c-.14-.01-.27-.01-.39-.01z" fill="#424242" opacity=".2"/><linearGradient id="g" x1="78.213" x2="126.96" y1="85.444" y2="82.194" gradientUnits="userSpaceOnUse"><stop stop-color="#B3E5FC" offset=".042"/><stop stop-color="#A6E1FB" offset=".227"/><stop stop-color="#83D5FA" offset=".571"/><stop stop-color="#4FC3F7" offset="1"/></linearGradient><path d="M119.62 86.41c-1.82-2.23-4.9-4.25-7.72-4.89.89.06 2.01.02 2.69-.67.6-.6.67-1.6.29-2.35-1.21-2.45-10.33-3.46-12.69-3.72 1.83.2 5.14-1.86 2.47-3.94-2.83-2.21-34.17.83-44.79 14.89-1.56 2.06-.23 4.39 3.89 3.37 28.77-7.13 43.93 11.53 52.5 7.22 1.56-.79 4.35-5.1-3.31-7.89 1.54.5 3.02 1.25 4.62 1.49 3.22.46 2.63-2.79 2.05-3.51z" fill="url(#g)"/><path d="M100.28 72.18c2.01 0 2.88.3 3.16.38-.27.17-.69.44-1.04.44l-.22 1.88-.22 1.93c9.25 1 10.93 2.42 11.12 2.62 0 .01.01.02.01.03-.1.03-.3.07-.67.07-.14 0-.28-.01-.41-.02-.05 0-.09-.01-.14-.01-.98 0-1.83.72-1.98 1.71-.15 1.03.52 2.01 1.54 2.24 2.28.52 4.95 2.2 6.55 4.12.04.1.06.23.08.36-.06 0-.13-.01-.2-.02-.85-.12-1.73-.46-2.66-.82-.52-.2-1.06-.41-1.63-.59-.2-.07-.41-.1-.61-.1a2 2 0 0 0-.68 3.88c2.3.84 3.72 1.91 3.8 2.87.05.65-.52 1.26-.71 1.36-.59.3-1.26.44-2.05.44-2.46 0-5.85-1.42-9.77-3.06-6.5-2.72-15.41-6.46-26.73-6.46-4.43 0-8.98.57-13.54 1.7-.51.13-.96.19-1.36.19-.33 0-.54-.05-.65-.09.03-.08.09-.19.19-.33 7.89-10.39 29.18-14.72 38.82-14.72m0-2c-9.64 0-31.81 4.16-40.4 15.54-1.3 1.72-.59 3.62 2.06 3.62.53 0 1.15-.08 1.84-.25 4.7-1.17 9.05-1.64 13.05-1.64 17.91 0 29.16 9.52 36.5 9.52 1.06 0 2.04-.2 2.95-.66 1.56-.79 4.35-5.1-3.31-7.89 1.54.5 3.02 1.25 4.62 1.49.22.03.41.05.6.05 2.54 0 1.99-2.87 1.44-3.54-1.82-2.23-4.9-4.25-7.72-4.89.17.01.36.02.54.02.77 0 1.6-.13 2.15-.69.6-.6.67-1.6.29-2.35-1.21-2.45-10.33-3.46-12.69-3.72.08.01.17.01.26.01 1.86 0 4.77-1.96 2.22-3.95-.55-.44-2.13-.67-4.4-.67z" fill="#424242" opacity=".2"/></svg>