<svg viewBox="0 0 128 128" xmlns="http://www.w3.org/2000/svg"><path d="M73.6 104.8c11.5 9 29 9.3 43 .9 3.4-2.2 5.6-5.5 5.8-9.2a9.8 9.8 0 0 0-4.8-9.2 70.6 70.6 0 0 1-5.5-4L48.8 33.7a56.6 56.6 0 0 1-8.9-8.5c-4-4.6-10.2-6.8-16.7-6.2-2.1.3-4.4 1-6.5 1.8h-.2c-6.4 2.8-11 8.2-12.3 14.5-1.3 6.2.8 12.1 5.7 16l63.7 53.6z" fill="#FFE0B2"/><linearGradient id="a" x1="19.2" x2="105.1" y1="16.7" y2="112.7" gradientTransform="matrix(1.0451 -.1056 .0325 .9535 -5 9.7)" gradientUnits="userSpaceOnUse"><stop stop-color="#858585" offset="0"/><stop stop-color="#1A1A1A" offset="1"/></linearGradient><path d="M74.4 102.4a38.1 38.1 0 0 0 42.5.9c3.4-2.2 5.6-5.4 5.8-9a9.8 9.8 0 0 0-4.8-9.2 71.6 71.6 0 0 1-5.4-3.9L74.2 52.3c-8.7-6.5-17.5-13-25.8-20-6.2-5.2-10.8-15.1-23.8-14.8-2.1 0-4.4.8-6.5 1.7H18C11.7 22 7 27.3 5.8 33.5c-1.3 6.1.7 12 5.6 15.9l63 53z" fill="url(#a)"/><path d="M25.3 19.5c8.5 0 13 4.9 17.3 9.7 1.5 1.7 3 3.3 4.6 4.7 6.6 5.5 13.5 10.7 20.2 15.8l5.7 4.2 38.3 28.9a74 74 0 0 0 5.6 4 8 8 0 0 1 3.8 7.3l-.2 1.5-.1.2v.6c-.2 3-2 5.7-4.9 7.6a39.6 39.6 0 0 1-20.5 5.8 33 33 0 0 1-20.2-6.5L11.3 49.7h-.1c-4.2-3.4-6-8.7-5-14.1a18 18 0 0 1 5.6-9.4l.1-.1a20 20 0 0 1 6.7-5h.4c1.7-.8 3.9-1.6 5.7-1.6h.6m0-2h-.6c-2.1 0-4.4.8-6.5 1.7h-.1c-3 1.4-5.6 3.3-7.7 5.6-3 2.8-5.2 6.4-6 10.4-1.4 6.2.7 12.1 5.6 16l63.7 53.7c6 4.6 13.5 7 21.3 7 7.4 0 15-2.1 21.6-6.2 3.5-2.2 5.7-5.5 5.9-9.1V96l.3-1.9c.3-3.6-1.5-7-4.8-9a71.6 71.6 0 0 1-5.4-4L74.3 52.3c-8.7-6.5-17.5-12.9-25.8-20-6-5-10.6-14.8-23.2-14.8z" fill="#424242" opacity=".2"/><linearGradient id="b" x1="59.2" x2="74.9" y1="107.4" y2="107.4" gradientTransform="matrix(1.0451 -.1056 .0325 .9535 -5 9.7)" gradientUnits="userSpaceOnUse"><stop stop-color="#F44336" offset="0"/><stop stop-color="#F04134" offset=".3"/><stop stop-color="#E63A30" offset=".5"/><stop stop-color="#D32E28" offset=".8"/><stop stop-color="#BA1E1D" offset="1"/><stop stop-color="#B71C1C" offset="1"/></linearGradient><path d="M60.5 106.4c.4 3.9 2.8 6.6 5 6.2h.2c.2 0 .5 0 .7-.2l7.9-2.6c1-.1 2-1 2.6-2.5l-3.1-2.2-8.2-7-2 .5c-2.5.6-3.7 4-3.1 7.8z" fill="url(#b)"/><path d="M64 100c1.1-.2 3 1.8 3.3 5 .5 3.3-.7 5.8-2 6.1-1.1.3-3-1.8-3.3-5-.4-3.3.5-5.8 2-6z" fill="#3D3D3D"/><linearGradient id="c" x1="10.7" x2="26.3" y1="55.5" y2="55.5" gradientTransform="matrix(1.0451 -.1056 .0325 .9535 -5 9.7)" gradientUnits="userSpaceOnUse"><stop stop-color="#F44336" offset="0"/><stop stop-color="#F04134" offset=".3"/><stop stop-color="#E63A30" offset=".5"/><stop stop-color="#D32E28" offset=".8"/><stop stop-color="#BA1E1D" offset="1"/><stop stop-color="#B71C1C" offset="1"/></linearGradient><path d="M8 62c.5 4 2.9 6.7 5.2 6.3h.1c.2 0 .5 0 .6-.2l8-2.7c1-.2 2-1 2.5-2.2L13 53.7l-1.8.6c-2.4.5-3.7 3.9-3.3 7.8z" fill="url(#c)"/><path d="M65.1 100.1l7.5 6.4 1.8 1.3-.3.1h-.2l-.2.1-8 2.6-.3.2h-.2c-1 0-2.6-1.7-2.9-4.6-.5-3.2.5-5.5 1.7-5.8h.1l1-.3m.5-2l-2 .6c-2.5.5-3.7 3.8-3.1 7.7.4 3.7 2.5 6.3 4.7 6.3h.5c.2-.1.5-.1.7-.3l7.9-2.6c1-.1 2-1 2.6-2.5l-3.1-2.2-8.2-7zM12.7 55.8l9.1 7.7-.4.1h-.1l-8 2.7-.3.2h-.2c-1 0-2.6-1.8-3-4.6-.3-3.3.7-5.5 2-5.8h.1l.8-.3m.4-2.1l-1.8.6c-2.4.5-3.7 3.9-3.3 7.8.5 3.6 2.6 6.2 4.8 6.2h.5c.2 0 .5 0 .6-.2l8-2.6c1-.3 2-1 2.5-2.3L13 53.7z" fill="#424242" opacity=".2"/><path d="M11.3 56c1.2-.3 3 1.7 3.4 5 .4 3.2-.7 5.7-2 6-1.2.3-3-1.8-3.3-5-.6-3.3.5-5.8 2-6z" fill="#3D3D3D"/><ellipse transform="rotate(-6 11.7 61.2)" cx="11.7" cy="61.2" rx="1.5" ry="3.5" fill="#6B6B6B"/><ellipse transform="rotate(-6 11.7 61.2)" cx="11.7" cy="61.2" rx="1" ry="2.3" fill="#B5B5B5"/><ellipse transform="rotate(-6 64.5 105.4)" cx="64.5" cy="105.3" rx="1.5" ry="3.5" fill="#6B6B6B"/><ellipse transform="rotate(-6 64.5 105.4)" cx="64.5" cy="105.3" rx="1" ry="2.3" fill="#B5B5B5"/><path d="M100 89.6c.2.4.9.7 1.6.6s1.3-.3 1.2-.7-.9-.7-1.6-.7c-.8 0-1.3.4-1.1.8z" fill="#ccc"/><path d="M100.3 89.6c0 .3.7.6 1.4.6s1.1-.4 1-.8-.7-.6-1.4-.6-1.2.4-1 .8z" fill="#999"/><path d="M100.3 89.6c0 .3.7.5 1.4.5s1-.3 1-.7-.7-.6-1.4-.6-1.2.4-1 .8z" fill="#fff"/><path fill="#898989" d="M100.9 89.8l.6-.1h.6l-.3-.2.2-.3h-1.2l.2.3z"/><path d="M85.8 88.7c.1.4.8.7 1.5.6.7 0 1.2-.3 1-.7 0-.4-.7-.7-1.4-.6-.7 0-1.2.3-1.1.7z" fill="#ccc"/><path d="M86 88.7c0 .3.7.6 1.4.6.6 0 1-.4 1-.7-.2-.4-.8-.6-1.4-.6-.7 0-1.1.3-1 .7z" fill="#999"/><path d="M86 88.7c0 .3.7.5 1.3.5s1-.3 1-.7-.7-.5-1.3-.5c-.7 0-1.1.3-1 .7z" fill="#fff"/><path fill="#898989" d="M86.6 88.9h1.1l-.2-.3.1-.3h-1.1l.2.3z"/><path d="M92 91.8c.2.4.9.7 1.6.7.8 0 1.3-.4 1.2-.8-.2-.4-.9-.7-1.6-.7-.8 0-1.3.4-1.1.8z" fill="#ccc"/><path d="M92.3 91.8c0 .4.7.6 1.4.6s1.1-.4 1-.7-.7-.7-1.4-.6-1.2.3-1 .7z" fill="#999"/><path d="M92.3 91.8c0 .4.7.6 1.4.6s1-.4 1-.7c-.2-.4-.7-.7-1.4-.6-.7 0-1.2.3-1 .7z" fill="#fff"/><path fill="#898989" d="M93.7 92.1l.1-.3.4-.2h-.6l-.5-.3v.3l-.4.2.6.1z"/><path d="M92.7 87c.1.3.8.6 1.5.6s1.2-.4 1-.8c0-.3-.7-.6-1.4-.6s-1.2.4-1 .8z" fill="#ccc"/><path d="M92.9 87c.1.3.7.5 1.4.5s1-.3 1-.7c-.2-.3-.8-.6-1.4-.5s-1.1.3-1 .6z" fill="#999"/><path d="M92.9 87c.1.3.7.5 1.3.5s1-.4 1-.7c-.2-.3-.7-.6-1.3-.5-.7 0-1.1.3-1 .6z" fill="#fff"/><path fill="#898989" d="M94.3 87.3V87l.4-.3h-.5l-.5-.2v.3l-.4.2h.5z"/><path d="M42.3 44.5c.1.4.8.7 1.6.7s1.2-.3 1.1-.7-.8-.7-1.5-.7c-.8 0-1.3.3-1.2.7z" fill="#ccc"/><path d="M42.5 44.5c0 .4.7.7 1.4.7s1.2-.4 1-.7-.6-.7-1.3-.7-1.2.3-1.1.7z" fill="#999"/><path d="M42.5 44.5c0 .4.7.6 1.4.6s1-.3 1-.7-.6-.6-1.3-.6c-.7 0-1.2.3-1.1.7z" fill="#fff"/><path fill="#898989" d="M43.1 44.7h1.2l-.2-.2.1-.4-.6.1H43l.3.2z"/><path d="M28 43.1c.1.4.8.7 1.5.7s1.2-.3 1-.7c0-.4-.7-.7-1.4-.7s-1.2.3-1.1.7z" fill="#ccc"/><path d="M28.2 43c0 .4.7.7 1.3.7s1.1-.3 1-.7c0-.3-.7-.6-1.3-.6-.7 0-1.1.3-1 .7z" fill="#999"/><path d="M28.2 43c0 .4.7.7 1.3.7.7 0 1-.3 1-.7-.1-.3-.6-.6-1.3-.6-.7 0-1.1.3-1 .7z" fill="#fff"/><path fill="#898989" d="M28.8 43.3h1.1l-.2-.3.1-.2h-1.1l.2.2z"/><path d="M34.2 46.5c.1.4.8.7 1.5.7.8 0 1.3-.4 1.2-.8-.1-.4-.8-.7-1.6-.7-.7 0-1.2.4-1.1.8z" fill="#ccc"/><path d="M34.4 46.4c0 .4.7.7 1.4.7s1.2-.3 1-.7-.7-.7-1.4-.6c-.7 0-1.1.3-1 .6z" fill="#999"/><path d="M34.4 46.4c0 .4.7.6 1.4.6s1-.3 1-.6-.7-.7-1.4-.6-1.1.3-1 .6z" fill="#fff"/><path fill="#898989" d="M35.8 46.8l.1-.3.4-.2h-.6l-.4-.3-.1.3-.4.2h.6z"/><path d="M35 41.6c.1.4.8.7 1.5.7s1.2-.3 1.1-.7-.8-.7-1.5-.7-1.2.3-1 .7z" fill="#ccc"/><path d="M35.2 41.6c0 .3.7.6 1.3.6.7 0 1.2-.3 1-.6 0-.4-.6-.7-1.3-.7-.7 0-1.1.3-1 .7z" fill="#999"/><path d="M35.2 41.6c0 .3.7.6 1.3.6s1-.3 1-.7c-.1-.3-.6-.6-1.3-.6-.7 0-1.1.3-1 .7z" fill="#fff"/><path fill="#898989" d="M36.6 42v-.3l.5-.2-.6-.1-.5-.3v.3l-.4.2.5.1z"/></svg>