<svg viewBox="0 0 128 128" xmlns="http://www.w3.org/2000/svg" xmlns:xlink="http://www.w3.org/1999/xlink"><linearGradient id="a" x1="70.9" x2="45.4" y1="66.1" y2="121.5" gradientTransform="matrix(.8759 -.0643 .068 .9265 -4 6.6)" gradientUnits="userSpaceOnUse"><stop stop-color="#00ECCC" offset="0"/><stop stop-color="#0AEECF" stop-opacity=".9" offset=".1"/><stop stop-color="#24F2D5" stop-opacity=".6" offset=".3"/><stop stop-color="#4DF8E1" stop-opacity=".3" offset=".5"/><stop stop-color="#78FFEC" stop-opacity="0" offset=".7"/><stop stop-color="#78FFEC" stop-opacity="0" offset="1"/></linearGradient><path d="M31 52.5l-24.6 49s77.4 25.3 77 24.1 10.3-52.4 10.3-52.4L30.9 52.5z" fill="url(#a)"/><linearGradient id="b" x1="1.3" x2="125.1" y1="55.5" y2="55.5" gradientTransform="rotate(15.2 63 55)" gradientUnits="userSpaceOnUse"><stop stop-color="#8690BB" offset="0"/><stop stop-color="#6E76A6" offset=".3"/><stop stop-color="#B0BEE1" offset=".7"/><stop stop-color="#6E76A6" offset=".9"/><stop stop-color="#8A90B3" offset="1"/></linearGradient><path d="M123.8 67.6c.2-4.7-22.6-24-22.6-24l-65-17.8S6.8 31 4.5 35.1s0 26.8 53.4 41.4 65.7-4.2 66-9z" fill="url(#b)"/><path d="M102.1 40.4c-2-18.2-18.7-30.4-36.5-31.1a33.6 33.6 0 0 0-28.2 13.5c-2.2 2.9-5 6.3-3 10C37 37 43 40 47.3 42.2c11.4 5.6 24.1 9 36.8 10 4.9.4 11.3.8 15.6-1.7 3.6-2.1 3-6.5 2.5-10z" fill="#505C70"/><defs><path id="c" d="M123.8 67.6c.2-4.7-22.6-24-22.6-24l-65-17.8S6.8 31 4.5 35.1s.8 22.2 54.2 36.8 65 .4 65.1-4.3z"/></defs><clipPath id="d"><use xlink:href="#c"/></clipPath><radialGradient id="e" cx="39.9" cy="60.8" r="42.9" gradientTransform="matrix(1.0083 .2745 -.2627 .9649 37.5 -9)" gradientUnits="userSpaceOnUse"><stop stop-color="#00ECCC" offset=".2"/><stop stop-color="#00CCB1" offset="1"/></radialGradient><path d="M59.2 69.9C27.1 61 3.3 44.9 5 33l-.4 1c-3.2 12 21 28.9 54.1 38 33.2 9 62.7 6.6 66-5.3l.1-1c-4.6 10.9-33.3 12.8-65.5 4z" clip-path="url(#d)" fill="url(#e)"/><radialGradient id="f" cx="-133.6" cy="-125.3" r="3.6" gradientTransform="matrix(.7567 .6538 -.4888 .5657 56.2 194.2)" gradientUnits="userSpaceOnUse"><stop stop-color="#00ECCC" offset=".1"/><stop stop-color="#00E7C7" offset=".3"/><stop stop-color="#00D8BB" offset=".5"/><stop stop-color="#00BFA5" offset=".7"/><stop stop-color="#009C87" offset="1"/><stop stop-color="#009C87" offset="1"/></radialGradient><path d="M19.4 38.2c-.7.9-2.5.8-4-.3s-2.2-2.8-1.6-3.7 2.5-.8 4 .3c1.6 1.1 2.2 2.7 1.6 3.7z" fill="url(#f)"/><radialGradient id="g" cx="-120.1" cy="-123.6" r="3.6" gradientTransform="matrix(.7567 .6538 -.4888 .5657 56.8 193.7)" gradientUnits="userSpaceOnUse"><stop stop-color="#00ECCC" offset=".1"/><stop stop-color="#00E7C7" offset=".3"/><stop stop-color="#00D8BB" offset=".5"/><stop stop-color="#00BFA5" offset=".7"/><stop stop-color="#009C87" offset="1"/><stop stop-color="#009C87" offset="1"/></radialGradient><path d="M29.3 47.5c-.7 1-2.5.8-4-.3s-2.2-2.8-1.5-3.7 2.4-.8 4 .3 2.2 2.8 1.5 3.7z" fill="url(#g)"/><radialGradient id="h" cx="-23.7" cy="-46.4" r="3.6" gradientTransform="matrix(.8594 .5113 -.3823 .6425 43 96)" gradientUnits="userSpaceOnUse"><stop stop-color="#00ECCC" offset=".1"/><stop stop-color="#00E7C7" offset=".3"/><stop stop-color="#00D8BB" offset=".5"/><stop stop-color="#00BFA5" offset=".7"/><stop stop-color="#009C87" offset="1"/><stop stop-color="#009C87" offset="1"/></radialGradient><path d="M43.7 55.7c-.5 1-2.3 1.2-4 .4-1.7-.8-2.7-2.3-2.2-3.3s2.3-1.2 4-.4 2.7 2.3 2.2 3.3z" fill="url(#h)"/><radialGradient id="i" cx="62.9" cy="43.7" r="3.6" gradientTransform="matrix(.9381 .3465 -.259 .7013 11 9)" gradientUnits="userSpaceOnUse"><stop stop-color="#00ECCC" offset=".1"/><stop stop-color="#00E7C7" offset=".3"/><stop stop-color="#00D8BB" offset=".5"/><stop stop-color="#00BFA5" offset=".7"/><stop stop-color="#009C87" offset="1"/><stop stop-color="#009C87" offset="1"/></radialGradient><path d="M62.2 62.4c-.3 1.1-2 1.6-3.8 1.1s-3-1.8-2.8-2.9 2-1.6 3.8-1 3.1 1.7 2.8 2.8z" fill="url(#i)"/><radialGradient id="j" cx="101" cy="77.6" r="3.6" gradientTransform="matrix(.9578 .2876 -.215 .716 -2.6 -18.7)" gradientUnits="userSpaceOnUse"><stop stop-color="#00ECCC" offset=".1"/><stop stop-color="#00E7C7" offset=".3"/><stop stop-color="#00D8BB" offset=".5"/><stop stop-color="#00BFA5" offset=".7"/><stop stop-color="#009C87" offset="1"/><stop stop-color="#009C87" offset="1"/></radialGradient><path d="M81.2 66.8c-.3 1-2 1.7-3.8 1.3-1.9-.4-3.2-1.6-3-2.7s2-1.8 3.8-1.4c1.9.4 3.2 1.6 3 2.8z" fill="url(#j)"/><radialGradient id="k" cx="144.2" cy="135.6" r="3.6" gradientTransform="matrix(.9824 .1869 -.1397 .7345 -28.6 -59)" gradientUnits="userSpaceOnUse"><stop stop-color="#00ECCC" offset=".1"/><stop stop-color="#00E7C7" offset=".3"/><stop stop-color="#00D8BB" offset=".5"/><stop stop-color="#00BFA5" offset=".7"/><stop stop-color="#009C87" offset="1"/><stop stop-color="#009C87" offset="1"/></radialGradient><path d="M97.8 68c0 1.2-1.7 2-3.6 1.7-1.8-.1-3.3-1.2-3.1-2.4s1.7-1.9 3.6-1.7 3.3 1.3 3.1 2.4z" fill="url(#k)"/><radialGradient id="l" cx="203.1" cy="351.7" r="3.6" gradientTransform="matrix(.9856 -.169 .1263 .7369 -132.8 -159.1)" gradientUnits="userSpaceOnUse"><stop stop-color="#00ECCC" offset=".1"/><stop stop-color="#00E7C7" offset=".3"/><stop stop-color="#00D8BB" offset=".5"/><stop stop-color="#00BFA5" offset=".7"/><stop stop-color="#009C87" offset="1"/><stop stop-color="#009C87" offset="1"/></radialGradient><path d="M115.5 64.9c.3 1-1 2.4-2.8 2.8s-3.5 0-3.8-1.1 1-2.4 2.8-2.9c1.8-.5 3.5 0 3.8 1.2z" fill="url(#l)"/><radialGradient id="m" cx="59.1" cy="42.5" r="35.9" gradientTransform="matrix(.8949 .4462 -.4304 .8633 28 -21.1)" gradientUnits="userSpaceOnUse"><stop stop-color="#78FFEC" offset="0"/><stop stop-color="#73FEEB" offset=".1"/><stop stop-color="#64FCE7" offset=".2"/><stop stop-color="#4AF8E0" offset=".3"/><stop stop-color="#28F2D7" offset=".5"/><stop stop-color="#00ECCC" offset=".6"/><stop stop-color="#00CCB1" offset="1"/></radialGradient><path d="M103 38.1C100.6 20.4 83.6 8.4 65.7 7.5a33.5 33.5 0 0 0-28.2 12.8c-2.2 2.8-5 6-2.9 9.7 2.6 4.2 8.5 7.2 13 9.2 11.5 5.5 24.3 9 37.1 10.2 4.9.4 11.3.8 15.7-1.5 3.6-2 2.9-6.3 2.4-9.8z" fill="url(#m)"/><path d="M78.3 15.4a24.4 24.4 0 0 1 9.3 4.7A30.3 30.3 0 0 1 96 30.6a24.9 24.9 0 0 1 2 14.6l-.2-1.1-.8-3.2a33.3 33.3 0 0 0-9.7-13.7 68.8 68.8 0 0 0-8.2-6.1l-4-2.6-2.8-2c-.7-.5-1-1-1-1.4.1-.3.6-.5 1.7-.5s2.8.3 5.2.8z" fill="#DCFFFA" opacity=".5"/><path d="M18.7 57.4l2.5 1.9c.5.3 1.3 1 1.4 1.5.2 2 0 2.7-.1 4.3-.1 1.7-4.4-3-5.3-6.4-.4-1.4.4-2.3 1.5-1.3zm81.7 22.2l-3.1.4c-.6 0-1.7.2-2 .6-1.2 1.7-1.4 2.4-2 3.7-.8 1.6 5.2-.3 7.8-2.8 1-1 .8-2.1-.7-1.9zm-40-4.4c-.3-.7-1.3-1.1-1.8-1.4-1-.4-2.4-.5-3.4 0-.3.1-.4.3-.5.5-.3 1.3.6 5 2.2 5 .7-.1 1.5-1 2-1.4.7-.6 1.4-1.2 1.6-2v-.7z" fill="#A3B0D6"/><path d="M64.3 10.7H66A40 40 0 0 1 88.6 19C95.2 24.2 99 31 100 38.7v.4c.3 1.8.6 3.8.1 5a3 3 0 0 0 .9 3.3c12.7 11 19.2 18.2 19.9 20.3-.2 1-1.3 3.1-4.2 5.3-2.6 2-7.4 4.6-15.8 5.6a3 3 0 0 0-1.9 1l-1.7 1.2-.1-.3a3 3 0 0 0-2.6-1.5H93a130 130 0 0 1-33-4.9 3 3 0 0 0-2.2 1 3 3 0 0 0-2-2.3 124.8 124.8 0 0 1-31.3-13.1 3 3 0 0 0-3.5.1 7 7 0 0 1-.7-1.7A3 3 0 0 0 19 56C8.5 47.7 6.7 40.2 7.3 37v-.2c1.8-1.5 11.7-4.5 27.5-7.5a3 3 0 0 0 2.4-2.3c.3-1.3 1.5-2.9 2.6-4.3l.3-.4a30.3 30.3 0 0 1 24.2-11.7m0-3a33.4 33.4 0 0 0-26.6 12.9c-1.3 1.8-3 3.8-3.4 5.9-6.7 1.2-27.7 5.4-29.6 8.9-.2.3-.3.8-.4 1.3-.7 3.8 1 12.5 13 21.7v.6c.8 2.9 4 6.7 5 6.7.2 0 .4 0 .4-.3l.2-3c7.4 4.6 17.8 9.3 32 13.4.1 1.6 1 3.7 2.2 3.7.7 0 1.5-1 2-1.4l1-.8A131.5 131.5 0 0 0 94.7 82l-1.3 2.5c-.2.4 0 .6.6.6a14 14 0 0 0 7.3-3.4v-.1c16.7-2 22-10 22.7-13.4v-.4c.2-4-15.6-18-21-22.6.8-2 .4-4.7 0-6.9-2.1-17.7-19-29.8-37-30.6h-1.7z" fill="#424242" opacity=".2"/></svg>