<svg viewBox="0 0 128 128" xmlns="http://www.w3.org/2000/svg" xmlns:xlink="http://www.w3.org/1999/xlink"><linearGradient id="a" x1="64" x2="64" y1="19.8" y2="107.6" gradientUnits="userSpaceOnUse"><stop stop-color="#E04C74" offset="0"/><stop stop-color="#EA7C60" offset=".2"/><stop stop-color="#F3A550" offset=".4"/><stop stop-color="#F8BE46" offset=".6"/><stop stop-color="#FAC742" offset=".7"/></linearGradient><path d="M64 119.7c-27.9 0-57.8-17.4-57.8-55.7S36.2 8.3 64 8.3c15.4 0 29.7 5 40.3 14.3A53.3 53.3 0 0 1 121.8 64c0 16.8-6 31-17.5 41.3A60.4 60.4 0 0 1 64 119.7z" fill="url(#a)"/><path d="M64 10.3a59 59 0 0 1 39 13.8A51.7 51.7 0 0 1 119.8 64c0 16.2-5.8 30-16.9 39.8-10.2 9-24 14-38.9 14-15 0-28.8-5-39-13.8A51.7 51.7 0 0 1 8.3 64 51 51 0 0 1 25 24a58.7 58.7 0 0 1 39-13.7m0-4C33 6.3 4.2 26.3 4.2 64c0 37.6 28.7 57.7 59.8 57.7s59.8-20.6 59.8-57.7c0-37.3-28.7-57.7-59.8-57.7z" fill="#CC2362"/><radialGradient id="b" cx="36.3" cy="70.6" r="21.7" gradientTransform="matrix(1 0 0 .7307 0 21)" gradientUnits="userSpaceOnUse"><stop stop-color="#ED7770" offset="0"/><stop stop-color="#ED7770" stop-opacity="0" offset=".9"/></radialGradient><ellipse cx="36.3" cy="72.5" rx="19.9" ry="15.3" fill="url(#b)"/><radialGradient id="c" cx="91.8" cy="70.6" r="21.7" gradientTransform="matrix(1 0 0 .7307 0 21)" gradientUnits="userSpaceOnUse"><stop stop-color="#ED7770" offset="0"/><stop stop-color="#ED7770" stop-opacity="0" offset=".9"/></radialGradient><ellipse cx="91.8" cy="72.5" rx="19.9" ry="15.3" fill="url(#c)"/><path d="M30.6 91.2A66.6 66.6 0 0 1 64 82.6c12.5 0 24 3.2 33.3 8.6 1.8 1 3.6-1.1 2.3-2.6A46.6 46.6 0 0 0 64 72.4a46.7 46.7 0 0 0-35.6 16.2c-1.3 1.5.5 3.6 2.2 2.6z" fill="#242424"/><path d="M45.4 35a2.7 2.7 0 0 1 2.6-1.8c3.2-.2 6.5-1.8 8.6-4.3.9-1.1 2.3-1.4 3.4-.8 1.1.6 1.6 1.8 1.2 3 0 .2 0 .3-.2.5a13.4 13.4 0 0 1-13.5 6.7c-.8 0-1.5-.5-1.9-1.2-.3-.6-.4-1.3-.2-2zm37.2 0a2.7 2.7 0 0 0-2.5-1.8c-3.3-.2-6.6-1.8-8.7-4.3-.9-1.1-2.3-1.4-3.4-.8a2.5 2.5 0 0 0-1.2 3 12.6 12.6 0 0 0 3 3.9c2.8 2.7 6.9 4 10.7 3.4.8-.2 1.5-.6 1.9-1.3.3-.6.4-1.3.2-2z" fill="#6D4C41" stroke="#6D4C41" stroke-miterlimit="10"/><defs><path id="d" d="M30.6 91.2A66.6 66.6 0 0 1 64 82.6c12.5 0 24 3.2 33.3 8.6 1.8 1 1.3-.9 2.3-2.6 8.2-15.4 28.4-24 28.4-45.6 0-12.7-53.4-10.6-62.6-10.6-14.3 0-28.5 46.3-37 56.2-1.3 1.5.5 3.6 2.2 2.6z"/></defs><clipPath id="e"><use xlink:href="#d"/></clipPath><g clip-path="url(#e)"><path d="M78.7 93.9a6.3 6.3 0 0 1-6.4-6.4c0-1.7.7-3.3 1.9-4.5l40.1-40.1a6.3 6.3 0 0 1 10.9 4.5c0 1.7-.7 3.3-1.9 4.5L83.2 92a6.3 6.3 0 0 1-4.5 1.9z" fill="#E6E6E6"/><path d="M118.8 42.5c1.3 0 2.5.5 3.4 1.5 2 1.9 2 5 0 6.8L82.2 91a4.8 4.8 0 0 1-7 0 4.9 4.9 0 0 1 0-6.8L115.5 44c1-1 2.2-1.5 3.4-1.5m0-3c-2.1 0-4 .9-5.6 2.3L73.2 82a7.9 7.9 0 0 0 11 11.2L124.5 53a7.8 7.8 0 0 0 0-11.2 7.9 7.9 0 0 0-5.6-2.3z" fill="#404040"/><path fill="none" stroke="#404040" stroke-miterlimit="10" stroke-width="1.7" d="M115.9 50.5l3.4 3.4"/><path d="M75.3 91a4.9 4.9 0 0 1 0-7l29-29 6.8 7-29 29a4.9 4.9 0 0 1-6.8 0z" fill="#ED1C24"/><path fill="none" stroke="#404040" stroke-miterlimit="10" stroke-width="1.7" d="M112.1 57l2 2m-11.7 7.8l2 2m-11.8 7.7l2 2m11.6-18.2l3.3 3.3m-13 6.4l3.3 3.3m-13.1 6.5l3.3 3.3"/><path d="M75.3 91a4.9 4.9 0 0 1 0-7l40-40c2-2 5-2 7 0a5 5 0 0 1 0 6.8L82 91a4.9 4.9 0 0 1-6.8 0z" fill="none"/></g><path d="M52.1 49l-.2.2-.5.5a56.5 56.5 0 0 1-2.9 2l-1.3.6-1.5.3-1.6.2h.1-1l-.7-.2c-.5 0-1-.2-1.5-.4l-1.4-.5a16.6 16.6 0 0 1-2.9-2l-.6-.6-.3-.3a3.5 3.5 0 0 0-4.5-.1c-1 .8-1.3 2.1-.8 3.2l.1.3.5.9a12.8 12.8 0 0 0 4 4.3 14 14 0 0 0 5.6 2.4l1.8.2.8.1h.8l3.3-.3a15.9 15.9 0 0 0 7.5-4c.5-.5 1-1 1.3-1.5l.5-.6.4-.7.4-.7.1-.3c.7-1.5-.1-3.2-1.8-3.8a3.6 3.6 0 0 0-3.7.8zM92 49l-.2.2-.5.5a56.5 56.5 0 0 1-2.9 2l-1.4.6-1.5.3-1.5.2h.1-1l-.7-.2c-.5 0-1-.2-1.5-.4l-1.4-.5a16.6 16.6 0 0 1-2.9-2L76 49l-.3-.3a3.5 3.5 0 0 0-4.5-.1c-1 .8-1.3 2.1-.8 3.2l.1.3.5.9a12.8 12.8 0 0 0 4 4.3 14 14 0 0 0 5.6 2.4l1.8.2.8.1h.8l3.3-.3a15.9 15.9 0 0 0 7.5-4c.5-.5 1-1 1.3-1.5l.5-.6.4-.7.4-.7V52c.8-1.5 0-3.2-1.7-3.8a3.6 3.6 0 0 0-3.7.8z" fill="#242424"/></svg>