<svg viewBox="0 0 128 128" xmlns="http://www.w3.org/2000/svg"><radialGradient id="a" cx="1777.9" cy="-210.8" r="69.4" gradientTransform="matrix(-.7086 .7056 -.5555 -.5579 1241.8 -1341.9)" gradientUnits="userSpaceOnUse"><stop stop-color="#E0BB95" offset=".6"/><stop stop-color="#CCA47A" offset="1"/></radialGradient><path d="M83 122.9c-3.9 0-8.6-6.8-13.2-13.4a85.7 85.7 0 0 0-17.2-17.7 175 175 0 0 1-22.8-19.9c-4-4.8-5.4-10.8-6.6-16.1l-1-4.5c-.5-1.8-1.6-3.3-2.6-4.5l-1.1-1.5a8.7 8.7 0 0 1 1.1-10.7L39 15a7.3 7.3 0 0 1 9.6-.8l.2.1c.4.3 10.8 5.5 21.3 6.8l3 .2c4.3 0 8.7-1 12.4-2.8 4.3-2 7.2-5.2 9.7-8 2.5-2.8 4.4-5 6.8-5 4.4.1 6.6 3 7.6 5.6 2.2 4.9 1.5 11.6-1.5 14.8-2.8 3-7.3 5.6-11.6 8-5.1 2.8-9.6 5.3-11 8.6-.4.6-.2 1.3.3 1.8l4.4 4.1a12.1 12.1 0 0 1 0 17.3l-19.8 20c-.6.5-.6 1.3-.2 1.9l3.4 4.6c4.4 5.9 9.4 12.5 12 18.8 1.9 4.1 2.2 7.9 1 10-.5 1-1.5 1.6-3 1.8H83z" fill="url(#a)"/><path d="M102 7c3.5 0 5.3 2.6 6.2 4.7 2 4.3 1.3 10.4-1.2 13.3-2.7 2.8-7 5.3-11.2 7.6-5.4 3-10 5.6-11.8 9.4a3 3 0 0 0 .7 3.4l4.4 4.2a10.6 10.6 0 0 1 0 15l-19.8 20a3 3 0 0 0-.3 3.9l3.4 4.6a99 99 0 0 1 11.9 18.4c1.5 3.7 2 7.1 1 8.7-.2.4-.6 1-2 1.1h-.2c-3.2 0-8.1-7-12.1-12.6a87.9 87.9 0 0 0-14.9-16.1l-2.6-2C48.3 86.6 36.1 77.2 31 71a35.7 35.7 0 0 1-6.3-15.6l-1-4.5c-.7-2.1-2-3.8-3-5-.3-.6-.7-1-1-1.4a7.2 7.2 0 0 1 1-8.9L40 16.1a5.9 5.9 0 0 1 7.7-.6l.4.3a74.7 74.7 0 0 0 25 7c4.5 0 9.1-1 13-2.8 4.6-2.2 7.7-5.7 10.2-8.5s4-4.5 5.7-4.5m0-3c-5.8 0-8.7 9.2-17.2 13.2a27.8 27.8 0 0 1-14.5 2.5c-10.4-1.3-20.8-6.6-20.8-6.6a8.9 8.9 0 0 0-11.6 1L18.6 33.4A10.2 10.2 0 0 0 17.2 46c1 1.6 3 3.3 3.5 5.6 1.7 6.2 2.5 14.6 8 21.2 6.7 8.2 24.8 21.3 25.4 22 0 0 8 6.3 14.4 15.5 5.4 7.6 10 14 14.6 14h.7c6.2-1 5.9-7.8 3.2-14-3.5-8.2-10.9-17.1-15.6-23.7l19.9-19.9c5.4-5.4 5.3-14 0-19.4l-4.5-4.2c2.4-5.4 16.1-9.5 22.4-16.3C115 20.6 113 4 102 4z" fill="#BA8F63"/><path d="M76 44.3a23 23 0 0 1-10.4 10.5A19.2 19.2 0 0 1 47 52.9c-1.3-1-1.7.8-.4 1.7 5.7 4.3 14.4 9 20.7 6.3 17.1-7.4 18-19.5 13.5-20.1-2.1-.3-3.7 1.2-4.8 3.5z" fill="#BA8F63"/><radialGradient id="b" cx="3185.8" cy="-2470.8" r="16.8" gradientTransform="matrix(-1.2506 -.608 .2988 -.6113 4821.8 481.4)" gradientUnits="userSpaceOnUse"><stop stop-color="#E0BB95" offset=".5"/><stop stop-color="#CCA47A" offset="1"/></radialGradient><path d="M99.8 63c-.9 0-1.7-.2-2.5-.6h-.2c-.2-.2-20.8-6.7-24.6-15.3a5.6 5.6 0 0 1 .1-5c1.1-2.3 3.3-3.4 6.4-3.4 9.7 0 24.5 10 24.6 10.1l.1.1h.1c3.2 1.6 4.3 5.9 2.6 9.6a7.5 7.5 0 0 1-6.6 4.5z" fill="url(#b)"/><path d="M79 40.2c7.6 0 19.7 7.1 23.8 9.9l.1.1.2.1c1.2.6 2 1.6 2.4 3 .4 1.4.2 3-.5 4.6a6 6 0 0 1-5.2 3.6c-.7 0-1.3-.2-1.9-.4l-.2-.1-.2-.1c-7.8-2.4-21-8.5-23.6-14.4a4.1 4.1 0 0 1 0-3.7c.7-1.2 1.8-2.6 5.1-2.6m0-3c-3.4 0-6.2 1.2-7.7 4.3-6 12.4 25.3 22.2 25.3 22.2 1 .5 2.1.8 3.2.8a9 9 0 0 0 8-5.4c2-4.4.6-9.6-3.3-11.5 0 0-15.3-10.4-25.5-10.4z" fill="#BA8F63"/><radialGradient id="c" cx="3171.2" cy="-2488.7" r="15.5" gradientTransform="matrix(-1.4802 -.8294 .3345 -.5926 5621 1227.7)" gradientUnits="userSpaceOnUse"><stop stop-color="#E0BB95" offset=".5"/><stop stop-color="#CCA47A" offset="1"/></radialGradient><path d="M95.4 80.8a4 4 0 0 1-2.2-.6H93c-.2-.2-23.4-8.7-27-18.3-.7-1.9-.6-3.6.4-5.2 1.2-2.2 3.2-3.2 6-3.2 10.6 0 27.7 13.4 27.9 13.6l.2.1c1.4.8 2.3 2.2 2.6 4a8 8 0 0 1-.8 5.2 8.8 8.8 0 0 1-7 4.4z" fill="url(#c)"/><path d="M72.5 52v3c8.3 0 22.2 9.5 26.8 13.2l.2.2.2.1c2.3 1.3 2.5 4.8 1.2 7.2-1 2-3.5 3.6-5.5 3.6-.6 0-1-.1-1.5-.4h-.2l-.2-.2s-6-2.1-12.2-5.5c-7.7-4.1-12.6-8.3-14-11.8a5 5 0 0 1 .4-4c.6-1.1 1.7-2.4 4.8-2.4v-3m0 0c-3.2 0-5.9 1-7.5 4-7.2 13 27.5 25.5 27.5 25.5.9.5 1.8.8 2.9.8 3.2 0 6.6-2.3 8.1-5.2 2.1-3.7 1.5-9.1-2.3-11.2 0 0-17.5-14-28.7-14z" fill="#BA8F63"/><radialGradient id="d" cx="3188.9" cy="-2527.7" r="15.3" gradientTransform="matrix(-1.3295 -.7452 .3342 -.5927 5167.8 961.5)" gradientUnits="userSpaceOnUse"><stop stop-color="#E0BB95" offset=".5"/><stop stop-color="#CCA47A" offset="1"/></radialGradient><path d="M83 91.5a5 5 0 0 1-2.5-.6c-.3-.2-19.8-9-22.7-17.7a5 5 0 0 1 .4-4.3c1-1.8 2.6-2.6 5-2.6 9.2 0 24.3 11.3 24.4 11.4h.1l.1.1c1.7 1 2.9 2.3 3.4 3.8a6 6 0 0 1-.6 5 9.2 9.2 0 0 1-7.6 4.9z" fill="url(#d)"/><path d="M63.3 64.8v3c7.2 0 19.4 8 23.4 11.1l.2.2h.2c1.3.8 2.3 1.9 2.7 3 .4 1.2.3 2.5-.5 3.9a8 8 0 0 1-6.3 4c-.7 0-1.3-.2-1.7-.4H81v-.1C73.5 86 61 78.7 59.1 72.8c-.4-1.2-.3-2.2.3-3.2.4-.8 1.3-1.8 3.8-1.8v-3m0 0c-2.8 0-5 1-6.4 3.4-6.2 11 23 24 23 24 .9.5 2 .8 3.1.8 3.4 0 7-2.2 9-5.6 2.4-4.5.4-8.7-3.4-10.9 0 0-15.5-11.7-25.3-11.7z" fill="#BA8F63"/></svg>