<svg viewBox="0 0 128 128" xmlns="http://www.w3.org/2000/svg"><symbol id="h" viewBox="-64.5 -64.5 129 129"><g fill="none" stroke="#4285F4" stroke-miterlimit="10"><path d="M-64-64H64V64H-64z"/><path d="M36.95 37.82C27.32 46.32 14.2 51 0 51c-14.27 0-27.39-4.62-36.96-13.01C-47.45 28.79-53 15.65-53 0c0-15.58 5.55-28.69 16.04-37.92C-27.36-46.35-14.24-51 0-51c14.17 0 27.29 4.71 36.95 13.25C47.45-28.45 53-15.4 53 0c0 15.47-5.55 28.55-16.05 37.82z"/><path d="M0 55c-29.59 0-57-19.01-57-55 0-35.8 27.41-55 57-55S57-35.31 57 0c0 35.51-27.41 55-57 55z"/><path d="M0-43c-12.29 0-23.54 3.94-31.68 11.09C-40.39-24.25-45-13.21-45 0c0 29.7 22.6 43 45 43 21.67 0 45-13.46 45-43S21.67-43 0-43zM-.01 51V-51M-16 48.95v-97.88M15.99 48.91v-97.84M53 .08H-53"/></g></symbol><linearGradient id="a" x1="63.99" x2="63.99" y1="20.32" y2="108" gradientTransform="rotate(-12.123 63.976 64.441)" gradientUnits="userSpaceOnUse"><stop stop-color="#FEE133" offset=".505"/><stop stop-color="#FEDE32" offset=".615"/><stop stop-color="#FCD32F" offset=".71"/><stop stop-color="#FAC12B" offset=".799"/><stop stop-color="#F7A924" offset=".883"/><stop stop-color="#F6A323" offset=".9"/></linearGradient><path d="M61.52 120.43c-21.57 0-47.09-11.52-54.04-43.84C-.56 39.18 25.08 15.84 52.29 10c4.65-1 9.36-1.5 14.01-1.5 21.65 0 47.25 11.51 54.19 43.83 3.53 16.43.58 31.65-8.53 44.01-8.34 11.33-21.23 19.34-36.28 22.58-4.7 1-9.47 1.51-14.16 1.51z" fill="url(#a)"/><path d="M66.31 10.49c20.87 0 45.55 11.1 52.24 42.25 3.4 15.85.57 30.52-8.19 42.41-8.05 10.93-20.52 18.68-35.09 21.81a65.68 65.68 0 0 1-13.75 1.48c-12.36 0-23.65-3.58-32.66-10.34-9.8-7.36-16.51-18.4-19.42-31.92-3.46-16.13-.66-30.88 8.12-42.67 7.99-10.75 20.48-18.41 35.16-21.56 4.5-.97 9.08-1.46 13.59-1.46m0-4c-4.79 0-9.64.52-14.43 1.55C21.52 14.56-2.4 40.09 5.53 77c6.63 30.85 30.52 45.42 55.99 45.42 4.84 0 9.74-.53 14.59-1.57 30.35-6.52 54.13-32.75 46.35-68.97-6.59-30.65-30.61-45.39-56.15-45.39z" fill="#EB8F00"/><radialGradient id="b" cx="24.96" cy="61.236" r="19.444" gradientTransform="matrix(.9623 -.1803 .1713 .9142 -7.381 18.117)" gradientUnits="userSpaceOnUse"><stop stop-color="#ED7770" offset="0"/><stop stop-color="#ED7770" stop-opacity="0" offset=".9"/></radialGradient><circle cx="27.13" cy="69.6" r="17.5" fill="url(#b)" opacity=".8"/><radialGradient id="c" cx="100.03" cy="61.236" r="19.444" gradientTransform="matrix(.9623 -.1803 .1713 .9142 -7.381 18.117)" gradientUnits="userSpaceOnUse"><stop stop-color="#ED7770" offset="0"/><stop stop-color="#ED7770" stop-opacity="0" offset=".9"/></radialGradient><circle cx="99.37" cy="56.06" r="17.5" fill="url(#c)" opacity=".8"/><path d="M99.3 54.77c-8.2 7.68-19.15 13.62-31.82 16.54-12.67 2.91-25.11 2.35-35.85-.97-1.97-.61-3.3 1.99-1.64 3.22 10.88 8.05 25.33 11.45 39.88 8.1 14.54-3.35 26.06-12.73 32.32-24.72.96-1.82-1.38-3.58-2.89-2.17z" fill="#242424"/><linearGradient id="d" x1="5.012" x2="66.143" y1="104.55" y2="104.55" gradientUnits="userSpaceOnUse"><stop stop-color="#F6A323" offset=".1"/><stop stop-color="#F7A924" offset=".117"/><stop stop-color="#FAC12B" offset=".201"/><stop stop-color="#FCD32F" offset=".29"/><stop stop-color="#FEDE32" offset=".385"/><stop stop-color="#FEE133" offset=".495"/></linearGradient><path d="M26.02 126.41c-12.05-.01-21.85-9.81-21.85-21.85 0-12.05 9.8-21.86 21.85-21.86l9.58.01c2.05 0 4.42.28 4.88 2.43.23 1.04-.28 2.51-1.28 3.74-1.01 1.25-2.35 2-3.6 2h-8.7c-.2 0-.36.16-.36.36 0 .13.05.21.1.25.04.04.12.11.26.11h26.46a4.077 4.077 0 0 1 4.09 4.09c0 1.08-.42 2.11-1.19 2.88s-1.79 1.2-2.88 1.2H37.3c-.13 0-.22.07-.26.11-.05.05-.1.13-.1.24 0 .21.16.37.35.37h20.52c2.25 0 4.08 1.83 4.08 4.09s-1.83 4.08-4.08 4.08H37.3c-.13 0-.22.07-.26.11-.05.05-.1.13-.1.24 0 .14.06.23.1.26.05.05.12.1.24.1l17.05.01a4.09 4.09 0 0 1 4.08 4.08c0 2.26-1.83 4.09-4.08 4.09H34.81c-.2 0-.36.16-.36.36 0 .12.05.21.1.25.04.04.12.11.26.11h11.61a4.09 4.09 0 0 1 4.08 4.08c0 2.26-1.83 4.09-4.08 4.09h-20.4z" fill="url(#d)"/><path d="M26.02 126.41c-12.05-.01-21.85-9.81-21.85-21.85 0-12.05 9.8-21.86 21.85-21.86l9.58.01c2.05 0 4.42.28 4.88 2.43.23 1.04-.28 2.51-1.28 3.74-1.01 1.25-2.35 2-3.6 2h-8.7c-.2 0-.36.16-.36.36 0 .13.05.21.1.25.04.04.12.11.26.11h26.46a4.077 4.077 0 0 1 4.09 4.09c0 1.08-.42 2.11-1.19 2.88s-1.79 1.2-2.88 1.2H37.3c-.13 0-.22.07-.26.11-.05.05-.1.13-.1.24 0 .21.16.37.35.37h20.52c2.25 0 4.08 1.83 4.08 4.09s-1.83 4.08-4.08 4.08H37.3c-.13 0-.22.07-.26.11-.05.05-.1.13-.1.24 0 .14.06.23.1.26.05.05.12.1.24.1l17.05.01a4.09 4.09 0 0 1 4.08 4.08c0 2.26-1.83 4.09-4.08 4.09H34.81c-.2 0-.36.16-.36.36 0 .12.05.21.1.25.04.04.12.11.26.11h11.61a4.09 4.09 0 0 1 4.08 4.08c0 2.26-1.83 4.09-4.08 4.09h-20.4z" fill="none" stroke="#EB8F00" stroke-linecap="round" stroke-linejoin="round" stroke-miterlimit="10" stroke-width="3"/><linearGradient id="e" x1="60.171" x2="121.3" y1="104.55" y2="104.55" gradientTransform="matrix(-1 0 0 1 184.07 0)" gradientUnits="userSpaceOnUse"><stop stop-color="#F6A323" offset=".1"/><stop stop-color="#F7A924" offset=".117"/><stop stop-color="#FAC12B" offset=".201"/><stop stop-color="#FCD32F" offset=".29"/><stop stop-color="#FEDE32" offset=".385"/><stop stop-color="#FEE133" offset=".495"/></linearGradient><path d="M82.49 126.41c-2.25 0-4.08-1.83-4.08-4.09.01-2.25 1.84-4.08 4.08-4.08H94.1c.13 0 .22-.07.26-.11.05-.05.1-.13.1-.24 0-.21-.15-.36-.35-.36H74.58c-2.25 0-4.08-1.83-4.08-4.08.01-2.25 1.84-4.08 4.08-4.08l17.04-.01c.21 0 .36-.16.36-.36 0-.12-.05-.2-.1-.25a.351.351 0 0 0-.26-.11H71.11c-2.25 0-4.08-1.83-4.08-4.08s1.83-4.08 4.08-4.09h20.51c.21 0 .36-.16.36-.36 0-.13-.05-.21-.1-.25a.351.351 0 0 0-.26-.11H75.56a4.077 4.077 0 0 1-4.09-4.09c0-1.08.42-2.11 1.19-2.88s1.8-1.2 2.9-1.2h26.46c.13 0 .22-.07.26-.11.05-.05.1-.13.1-.24 0-.21-.15-.36-.34-.36h-8.71c-1.25 0-2.59-.75-3.6-2-1-1.22-1.5-2.69-1.28-3.74.46-2.15 2.82-2.43 4.83-2.43l9.62-.01c12.05.01 21.85 9.82 21.85 21.86s-9.8 21.84-21.85 21.85c0 .01-20.41.01-20.41.01z" fill="url(#e)"/><path d="M82.49 126.41c-2.25 0-4.08-1.83-4.08-4.09.01-2.25 1.84-4.08 4.08-4.08H94.1c.13 0 .22-.07.26-.11.05-.05.1-.13.1-.24 0-.21-.15-.36-.35-.36H74.58c-2.25 0-4.08-1.83-4.08-4.08.01-2.25 1.84-4.08 4.08-4.08l17.04-.01c.21 0 .36-.16.36-.36 0-.12-.05-.2-.1-.25a.351.351 0 0 0-.26-.11H71.11c-2.25 0-4.08-1.83-4.08-4.08s1.83-4.08 4.08-4.09h20.51c.21 0 .36-.16.36-.36 0-.13-.05-.21-.1-.25a.351.351 0 0 0-.26-.11H75.56a4.077 4.077 0 0 1-4.09-4.09c0-1.08.42-2.11 1.19-2.88s1.8-1.2 2.9-1.2h26.46c.13 0 .22-.07.26-.11.05-.05.1-.13.1-.24 0-.21-.15-.36-.34-.36h-8.71c-1.25 0-2.59-.75-3.6-2-1-1.22-1.5-2.69-1.28-3.74.46-2.15 2.82-2.43 4.83-2.43l9.62-.01c12.05.01 21.85 9.82 21.85 21.86s-9.8 21.84-21.85 21.85c0 .01-20.41.01-20.41.01z" fill="none" stroke="#EB8F00" stroke-linecap="round" stroke-linejoin="round" stroke-miterlimit="10" stroke-width="3"/><g fill="#242424"><path d="M46.39 48.37s-.07-.06-.19-.17c-.12-.1-.3-.26-.52-.45l-.64-.46c-.26-.2-.56-.39-.86-.6-.31-.19-.64-.39-.96-.55-.32-.17-.65-.28-.93-.37-.28-.1-.53-.1-.69-.12-.09-.02-.15 0-.21 0-.03.01-.06 0-.09.01l-.04.01h-.04c.12-.03-.27.06.27-.06l-.54.12c-.14.03-.04.02-.03.02.03 0 .05-.01.07-.02l-.02.01c-.03 0-.07.02-.11.05-.14.08-.37.17-.6.37-.22.19-.49.41-.72.69-.24.27-.47.57-.68.87-.42.6-.77 1.19-1.01 1.61-.25.44-.39.69-.39.69l-.17.31c-1.04 1.83-3.46 2.57-5.4 1.67-1.32-.62-2.08-1.84-2.11-3.13 0 0-.01-.41.05-1.15.07-.73.22-1.8.68-3.1.46-1.29 1.17-2.85 2.59-4.41.7-.77 1.57-1.57 2.67-2.2.27-.17.55-.32.85-.46.31-.14.55-.27.98-.43l.59-.2c.18-.06.45-.14.49-.15l.53-.14.3-.06h.03l.06-.01.13-.02.25-.04.51-.06c.34-.04.67-.04 1.01-.05.67 0 1.34.03 1.95.14 1.26.18 2.37.6 3.3 1.05 1.9.92 3.14 2.1 4.04 3.13.45.51.81 1.01 1.1 1.45.29.42.54.88.73 1.23.18.33.22.52.29.68.06.14.09.23.09.23.74 1.91-.35 4.07-2.44 4.81-1.5.53-3.1.2-4.17-.74zM83.2 41.27s-.07-.06-.19-.17c-.12-.1-.3-.26-.52-.45l-.64-.46c-.26-.2-.56-.39-.86-.6-.31-.19-.64-.39-.96-.55-.32-.17-.65-.28-.93-.37-.28-.1-.53-.1-.69-.12-.09-.02-.15 0-.21 0-.03.01-.06 0-.09.01l-.04.01h-.04c.12-.03-.27.06.27-.06l-.54.12c-.14.03-.04.02-.03.02.03 0 .05-.01.07-.02l-.02.01c-.03 0-.07.02-.11.05-.14.08-.37.17-.6.37-.22.19-.49.41-.72.69-.24.27-.47.57-.68.87-.42.6-.77 1.19-1.01 1.61-.25.44-.39.69-.39.69l-.17.31c-1.04 1.83-3.46 2.57-5.4 1.67-1.32-.62-2.08-1.84-2.11-3.13 0 0-.01-.41.05-1.15.07-.73.22-1.8.68-3.1.46-1.29 1.17-2.85 2.59-4.41.7-.77 1.57-1.57 2.67-2.2.27-.16.55-.32.85-.46.31-.14.55-.27.98-.43l.59-.2c.18-.06.45-.14.49-.15l.53-.14.3-.06h.03l.06-.01.13-.02.25-.04.51-.06c.34-.04.67-.04 1.01-.05.67 0 1.34.03 1.95.14 1.26.18 2.37.6 3.3 1.05 1.9.92 3.14 2.1 4.04 3.13.45.51.81 1.01 1.1 1.45.29.42.54.88.73 1.23.18.33.22.52.29.68.06.15.09.23.09.23.74 1.91-.35 4.07-2.44 4.81-1.5.53-3.1.19-4.17-.74z"/></g></svg>