<svg viewBox="0 0 128 128" xmlns="http://www.w3.org/2000/svg"><radialGradient id="a" cx="90.6" cy="39.7" r="108.5" gradientTransform="matrix(-1.0127 0 0 1.0127 136 -.5)" gradientUnits="userSpaceOnUse"><stop stop-color="#E0BB95" offset="0"/><stop stop-color="#CCA47A" offset="1"/></radialGradient><path d="M81 108.4c-1.1 0-2.1-.2-3-.5a83.1 83.1 0 0 1-25.3-13.4c-2.8-2.4-4.8-4.7-6.8-6.8A58 58 0 0 0 28.7 74a30 30 0 0 0-12.6-2h-2c-6.4 0-8.6-7.7-8.6-14.3L7.2 26c.6-2.7 2.7-5.7 6.1-6 2.6-.3 6.4-.5 11.1-.5 18 0 46.4 2 60.8 5.4 31.8 7.3 36.8 11.5 37.3 21.8l-1 43.2a9.3 9.3 0 0 1-9.1 8.7l-16-3H96a1.5 1.5 0 0 0-1.5 1.3s-.3 4.2-2.3 6.8a17 17 0 0 1-11.3 4.6z" fill="url(#a)"/><path d="M24.4 18.1v3c18 0 46.2 2 60.4 5.3 30.8 7.2 35.7 11 36.2 20.4L120 90c-.3 4-3.5 7.1-7.5 7.3l-15.8-3H96a3 3 0 0 0-3 2.7c0 1-.6 4-2 6-1.2 1.6-6 4-10.1 4a8 8 0 0 1-2.5-.4 81.7 81.7 0 0 1-24.8-13C51 91 49 88.7 47 86.6a59.3 59.3 0 0 0-17.6-14A31.3 31.3 0 0 0 14 70.7c-6.7 0-7-11.1-7-12.7l1.7-31.6c.5-2.1 2.1-4.5 4.8-4.8 2.5-.2 6.3-.4 10.9-.4v-3m0 0c-4.6 0-8.5.2-11.2.5-4 .4-6.8 3.8-7.4 7.3L4 57.8c0 7.6 2.8 15.8 10.1 15.8h2c3.1 0 8.9.2 11.9 1.8C41.3 82.6 43 88 51.8 95.7c6.7 6 18.6 11.3 25.8 13.7 1 .3 2.2.5 3.4.5 5 0 10.7-2.8 12.5-5.2 2.3-3 2.6-7.5 2.6-7.5l16.2 3c5.6 0 10.3-4.5 10.6-10.2l1.1-43.2c-.6-11.7-7.3-16-38.5-23.3a341.5 341.5 0 0 0-61.1-5.4z" fill="#BA8F63"/><path d="M100.2 68.5C93 64.1 73.4 52 71.4 65.2c-1.2 8 7.2 16 12.8 20.6 4.1 3.4 8.9 6.1 13.4 9 1.4 1-3.1 3-4.6 2-4-3-8.8-6.9-13.7-11.7-5.9-5.7-13.3-14.2-10-23 5-13 25.2-.2 31.7 5.5 1.4 1.1-.8 1-.8 1z" fill="#BA8F63"/><path d="M74.6 56c-3.9 4.4-6.8 10.2-1.5 19.6 1.1 2 .5 2.6-.8.8-8-11.2-6.2-18 1.2-22.7 5.7-3.8 10.4-2.6 10.4-2.6s-5.8 1-9.3 5z" fill="#BA8F63"/></svg>