<svg viewBox="0 0 128 128" xmlns="http://www.w3.org/2000/svg" xmlns:xlink="http://www.w3.org/1999/xlink"><radialGradient id="a" cx="62.6" cy="83.1" r="35.1" gradientTransform="matrix(.9722 .2342 -.3166 1.3142 28 -40.8)" gradientUnits="userSpaceOnUse"><stop stop-color="#FFB300" offset="0"/><stop stop-color="#FFCA28" offset=".7"/><stop stop-color="#FFB300" offset="1"/></radialGradient><path d="M63.8 122.6c-25.1 0-37.3-12.8-37.3-39.3V59.5a19 19 0 0 1 3.2 2.4c3.4 3 8 7 13.5 7h37.3c16.6 0 17.8 2.4 17.9 2.7l1 3c1.1 3 2.4 6.3 2.4 11.1 0 13.8-5 37-38 37z" fill="url(#a)"/><path d="M28 62.4l.7.7c3.6 3 8.5 7.3 14.5 7.3h29.6a104.3 104.3 0 0 0 7.7 0c13 0 16 1.5 16.5 1.9l1 2.8c1 2.9 2.3 6 2.3 10.6 0 7-1.3 17-7.7 24.5-6.2 7.2-15.8 11-28.8 11s-22.6-3.7-28.4-11c-5-6-7.4-15.1-7.4-26.9V62.4m-1.8-4.6c-.8 0-1.3 1-1.3 3.2v22.3c0 22.5 8.6 40.8 38.9 40.8s39.5-19.2 39.5-38.4c0-6.9-2.5-11-3.5-14.5-1-3.3-11.6-3.9-19.4-3.9l-7.6.1H43.2c-7.7 0-14.3-9.6-17-9.6z" fill="#EDA600"/><radialGradient id="b" cx="1697.9" cy="-795.7" r="22.7" gradientTransform="matrix(-.808 -.266 -.6312 1.9172 959.5 1992.5)" gradientUnits="userSpaceOnUse"><stop stop-color="#FFCA28" offset="0"/><stop stop-color="#FFB300" offset=".5"/></radialGradient><path d="M71.4 80a8.3 8.3 0 0 1-8-10.9l19.2-58a8.3 8.3 0 1 1 15.8 5.2l-19.1 58a8.3 8.3 0 0 1-8 5.8z" fill="url(#b)"/><path d="M90.5 6.9a6.9 6.9 0 0 1 6.5 9l-19.1 58a6.8 6.8 0 1 1-13-4.3l19-58a7 7 0 0 1 6.6-4.7m0-3a10 10 0 0 0-9.4 6.7l-19 58a9.8 9.8 0 1 0 18.6 6.2l19.1-58a9.8 9.8 0 0 0-9.3-13z" fill="#EDA600"/><radialGradient id="c" cx="-137" cy="-39" r="21.6" gradientTransform="matrix(.0108 1.05 -.6645 .0104 30 194.3)" gradientUnits="userSpaceOnUse"><stop stop-color="#FFCA28" offset=".6"/><stop stop-color="#FFB300" offset="1"/></radialGradient><path d="M54.7 79.1a8.6 8.6 0 0 1-8.5-8.5V52a8.6 8.6 0 0 1 17 0v18.4c0 4.8-3.8 8.6-8.5 8.6z" fill="url(#c)"/><path d="M54.7 45a7 7 0 0 1 7 7.1v18.5a7 7 0 0 1-14 0V52a7 7 0 0 1 7-7m0-3a10 10 0 0 0-10 10v18.5a10 10 0 0 0 20 0V52a10 10 0 0 0-10-10z" fill="#EDA600"/><radialGradient id="d" cx="-140.8" cy="-33.3" r="18.2" gradientTransform="matrix(-.00188 1.0497 -.6804 -.0018 11.6 203.7)" gradientUnits="userSpaceOnUse"><stop stop-color="#FFCA28" offset=".6"/><stop stop-color="#FFB300" offset="1"/></radialGradient><path d="M34.7 80.3a8.5 8.5 0 0 1-8.5-8.5v-14a8.5 8.5 0 0 1 17 0v14c0 4.7-3.8 8.5-8.5 8.5z" fill="url(#d)"/><path d="M34.7 50.7a7 7 0 0 1 7 7v14a7 7 0 0 1-14 0v-14a7 7 0 0 1 7-7m0-3a10 10 0 0 0-10 10v14a10 10 0 1 0 20 0v-14a10 10 0 0 0-10-10z" fill="#EDA600"/><defs><path id="e" d="M92 78c-6.2 1.8-10.3.8-10.3.8L61.3 16.9A9.8 9.8 0 1 1 80 10.8l20.3 61.8c1 2.7-1.4 5.3-1.4 5.3l-1.2-3.5S95.2 77 92 78z"/></defs><clipPath id="f"><use xlink:href="#e"/></clipPath><g clip-path="url(#f)"><radialGradient id="g" cx="-752.8" cy="-1177.3" r="88.8" gradientTransform="matrix(.659 2.0141 -.1346 .0426 404.5 1568.2)" gradientUnits="userSpaceOnUse"><stop stop-color="#FFCA28" offset="0"/><stop stop-color="#FFC41E" offset=".1"/><stop stop-color="#FFBB0D" offset=".4"/><stop stop-color="#FFB503" offset=".6"/><stop stop-color="#FFB300" offset="1"/></radialGradient><path d="M91 84a8.3 8.3 0 0 1-7.9-5.7L62.7 16.4c-.7-2-.5-4.3.5-6.3a8.3 8.3 0 0 1 7.5-4.6c3.6 0 6.7 2.3 7.9 5.7l20.3 62c.7 2 .6 4.3-.4 6.3A8.3 8.3 0 0 1 91 84z" fill="url(#g)"/><path d="M70.7 7c3 0 5.5 1.9 6.4 4.7l20.4 61.9a6.8 6.8 0 0 1-13 4.3l-20.3-62A6.8 6.8 0 0 1 70.7 7m0-3a9.8 9.8 0 0 0-9.3 13l20.3 61.8a9.8 9.8 0 1 0 18.7-6.2L80 10.8A9.9 9.9 0 0 0 70.7 4z" fill="#EDA600"/></g><path d="M87.9 89.9c-3.7-1-7.8-1.5-11.4.3-3.7 1.8-5.6 5.4-7 9-.8 1.8 2.1 2.6 2.8.8 1.3-3 2.8-6 6-7.3a13 13 0 0 1 8.8.1c1.8.5 2.6-2.3.8-2.9z" fill="#EDA600"/><defs><path id="h" d="M54.8 70.2c-7.2 0-8.4 7.6-6.7 12A12 12 0 0 0 59.6 89c16.5-1.5 20.6 1 22.8 5.4 3 6.2 6.5 6.5 10 6.1 5.4-.6 7-9.9 7.3-19C100 71.4 79.6 68 79.6 68s-21.3 2.3-24.8 2.3z"/></defs><clipPath id="i"><use xlink:href="#h"/></clipPath><g clip-path="url(#i)"><radialGradient id="j" cx="69.7" cy="65.9" r="47.6" gradientUnits="userSpaceOnUse"><stop stop-color="#FFCA28" offset=".4"/><stop stop-color="#FFB300" offset=".5"/></radialGradient><path d="M93.4 103.4c-3 0-7-4-9.7-9.6C81.4 89 77 87 68.1 87a97 97 0 0 0-9.4.5c-3.8 0-7.8-2.7-9.2-6-.8-2.1-1-5.4.6-7.6 1-1.5 2.6-2.3 4.7-2.3 3.4 0 22.1-2 24.7-2.3C86.3 71 103.4 76.6 104 84c.7 8-.3 13.5-3 16.6a9.6 9.6 0 0 1-7.4 2.8h-.3z" fill="url(#j)"/><path d="M79.4 71c1.5.3 6.5 1.6 11.6 3.8 7 3 11.3 6.4 11.6 9.3.7 7.6-.2 12.8-2.6 15.5-1.5 1.6-3.5 2.3-6.3 2.3h-.3c-2 0-5.7-3.3-8.3-8.8-2.6-5.3-7.5-7.5-17-7.5a96.6 96.6 0 0 0-9.4.5 8.9 8.9 0 0 1-7.8-5c-.7-1.8-.8-4.5.4-6.2a4 4 0 0 1 3.5-1.7c3.4 0 20.8-1.9 24.6-2.3m.1-3s-21.2 2.3-24.7 2.3c-7.2 0-8.4 7.6-6.7 12A12 12 0 0 0 59.6 89c3.3-.3 6.1-.4 8.5-.4 9.6 0 12.6 2.3 14.3 5.8 3 6.2 7.3 10.5 11 10.5h.3c12 0 12.7-12 11.9-21-1-10.2-26-16-26-16z" fill="#EDA600"/></g></svg>