<svg viewBox="0 0 128 128" xmlns="http://www.w3.org/2000/svg" xmlns:xlink="http://www.w3.org/1999/xlink"><symbol id="h" viewBox="-64.5 -64.5 129 129"><g fill="none" stroke="#4285F4" stroke-miterlimit="10"><path d="M-64-64H64V64H-64z"/><path d="M36.95 37.82C27.32 46.32 14.2 51 0 51c-14.27 0-27.39-4.62-36.96-13.01C-47.45 28.79-53 15.65-53 0c0-15.58 5.55-28.69 16.04-37.92C-27.36-46.35-14.24-51 0-51c14.17 0 27.29 4.71 36.95 13.25C47.45-28.45 53-15.4 53 0c0 15.47-5.55 28.55-16.05 37.82z"/><path d="M0 55c-29.59 0-57-19.01-57-55 0-35.8 27.41-55 57-55S57-35.31 57 0c0 35.51-27.41 55-57 55z"/><path d="M0-43c-12.29 0-23.54 3.94-31.68 11.09C-40.39-24.25-45-13.21-45 0c0 29.7 22.6 43 45 43 21.67 0 45-13.46 45-43S21.67-43 0-43zM-.01 51V-51M-16 48.95v-97.88M15.99 48.91v-97.84M53 .08H-53"/></g></symbol><linearGradient id="a" x1="63.992" x2="63.992" y1="19.591" y2="107.59" gradientUnits="userSpaceOnUse"><stop stop-color="#FEE133" offset=".5"/><stop stop-color="#FEDE32" offset=".612"/><stop stop-color="#FCD32F" offset=".708"/><stop stop-color="#FAC12B" offset=".797"/><stop stop-color="#F7A924" offset=".883"/><stop stop-color="#F6A323" offset=".9"/></linearGradient><path d="M63.99 119.78c-27.94 0-58.01-17.49-58.01-55.9s30.07-55.9 58.01-55.9c15.48 0 29.82 5.13 40.36 14.43C115.9 32.6 122 46.94 122 63.88c0 16.86-6.1 31.18-17.65 41.39-10.57 9.36-24.9 14.51-40.36 14.51z" fill="url(#a)"/><path d="M63.99 9.98c15 0 28.86 4.95 39.04 13.93 11.1 9.8 16.97 23.62 16.97 39.97 0 16.28-5.87 30.07-16.97 39.9-10.21 9.03-24.07 14.01-39.04 14.01-15.04 0-28.91-4.91-39.05-13.82C13.85 94.21 7.98 80.35 7.98 63.88c0-16.54 5.86-30.43 16.96-40.15C35.05 14.86 48.92 9.98 63.99 9.98m0-4c-31.16 0-60.01 20.01-60.01 57.9 0 37.69 28.85 57.9 60.01 57.9S124 101.05 124 63.88c0-37.38-28.85-57.9-60.01-57.9z" fill="#EB8F00"/><defs><path id="b" d="M62.67 80.42c-12.72 0-24.54-1.07-34.41-2.89-2.45-.45-4.61 1.7-4.11 4.14 3.28 16.04 19.07 29.21 38.51 29.21 21.27 0 35.59-13.6 38.56-29.27.46-2.42-1.7-4.53-4.12-4.08-9.88 1.82-21.71 2.89-34.43 2.89z"/></defs><clipPath id="c"><use xlink:href="#b"/></clipPath><path d="M62.67 80.42c-12.72 0-24.54-1.07-34.41-2.89-2.45-.45-4.61 1.7-4.11 4.14 3.28 16.04 19.07 29.21 38.51 29.21 21.27 0 35.59-13.6 38.56-29.27.46-2.42-1.7-4.53-4.12-4.08-9.88 1.82-21.71 2.89-34.43 2.89z" clip-path="url(#c)" fill="#242424"/><g clip-path="url(#c)" opacity=".2"><path d="M96.86 81.85c-1.5 6.58-5.27 12.59-10.72 17-6.31 5.12-14.43 7.82-23.49 7.82-16.2 0-30.68-10.6-34.15-24.81 10.23 1.82 22.02 2.78 34.16 2.78 12.16-.01 23.96-.97 34.2-2.79m.89-4.39c-.22 0-.43.02-.66.06-9.87 1.83-21.7 2.9-34.42 2.9s-24.54-1.07-34.41-2.89c-.22-.04-.44-.06-.66-.06-2.16 0-3.91 1.98-3.46 4.2 3.28 16.04 19.07 29.21 38.51 29.21 21.27 0 35.59-13.6 38.56-29.27.42-2.2-1.32-4.15-3.46-4.15z"/></g><path d="M62.67 80.42c-12.72 0-24.54-1.07-34.41-2.89-2.45-.45-4.61 1.7-4.11 4.14 3.28 16.04 19.07 29.21 38.51 29.21 21.27 0 35.59-13.6 38.56-29.27.46-2.42-1.7-4.53-4.12-4.08-9.88 1.82-21.71 2.89-34.43 2.89z" fill="none"/><path d="M62.67 80.42c-12.72 0-24.54-1.07-34.41-2.89-2.45-.45-4.61 1.7-4.11 4.14 3.28 16.04 19.07 29.21 38.51 29.21 21.27 0 35.59-13.6 38.56-29.27.46-2.42-1.7-4.53-4.12-4.08-9.88 1.82-21.71 2.89-34.43 2.89z" fill="none"/><defs><path id="d" d="M28.26 82.34v44.17h68.06V82.34C86.2 84.1 74.6 85.03 62.66 85.03c-11.93 0-23.51-.92-33.62-2.68"/></defs><clipPath id="e"><use xlink:href="#d"/></clipPath><path d="M65.03 126.15h-3.28c-9.51 0-17.21-7.71-17.21-17.21V70.17h37.71v38.77c0 9.5-7.71 17.21-17.22 17.21z" clip-path="url(#e)" fill="#00C800"/><g clip-path="url(#e)" opacity=".6"><path d="M78.25 74.17v34.77c0 7.29-5.93 13.21-13.21 13.21h-3.28c-7.29 0-13.21-5.93-13.21-13.21V74.17h29.7m4-4H44.54v38.77c0 9.51 7.71 17.21 17.21 17.21h3.28c9.51 0 17.21-7.71 17.21-17.21V70.17h.01z" fill="#006837"/></g><g fill="#fff"><path d="M68.29 109.28c.01-1.04-.37-1.93-1.14-2.68-.77-.74-2-1.39-3.68-1.94-1.06-.33-2.03-.72-2.88-1.15s-1.59-.95-2.21-1.55c-.61-.6-1.08-1.29-1.42-2.07-.33-.78-.5-1.68-.5-2.7 0-.96.15-1.83.44-2.61s.7-1.46 1.24-2.03c.53-.58 1.18-1.04 1.94-1.4a8.43 8.43 0 0 1 2.53-.7v-3.78h2.56v3.78c1.92.26 3.42 1.07 4.48 2.43s1.6 3.2 1.61 5.54H68.1c0-.77-.09-1.47-.28-2.12s-.46-1.2-.82-1.66-.8-.83-1.33-1.09-1.13-.4-1.8-.4c-1.38 0-2.43.36-3.14 1.08s-1.07 1.69-1.08 2.92c0 .57.09 1.08.27 1.53s.47.85.87 1.22c.39.37.9.71 1.53 1.02.62.31 1.38.62 2.26.92 1.08.35 2.04.75 2.9 1.18.86.44 1.58.94 2.18 1.53.59.58 1.05 1.26 1.36 2.03s.47 1.66.47 2.68c0 1-.16 1.89-.47 2.68s-.76 1.47-1.33 2.03c-.57.57-1.27 1.02-2.09 1.36s-1.73.57-2.72.67v3.3h-2.56v-3.28c-.89-.09-1.75-.3-2.57-.62s-1.54-.79-2.17-1.4-1.13-1.38-1.51-2.31-.57-2.04-.57-3.33h3.18c0 .96.14 1.76.43 2.39.29.64.65 1.14 1.11 1.52.45.38.96.65 1.54.81.57.16 1.15.24 1.73.24.74 0 1.41-.09 2.01-.27.59-.18 1.1-.45 1.51-.8s.73-.77.95-1.27c.21-.51.33-1.07.33-1.7z"/><path d="M62.19 86.67h3v32.61h-3z"/></g><path d="M92 69.97c-12.2 0-22.13-9.93-22.13-22.13S79.8 25.71 92 25.71s22.13 9.93 22.13 22.13S104.2 69.97 92 69.97z" fill="#00C800"/><path d="M92 27.71c11.12 0 20.13 9.01 20.13 20.13S103.12 67.97 92 67.97s-20.13-9.01-20.13-20.13S80.88 27.71 92 27.71m0-4c-13.31 0-24.13 10.82-24.13 24.13S78.69 71.97 92 71.97s24.13-10.82 24.13-24.13S105.31 23.71 92 23.71z" fill="#006837"/><path d="M35.51 69.97c-12.2 0-22.13-9.93-22.13-22.13s9.93-22.13 22.13-22.13 22.13 9.93 22.13 22.13-9.93 22.13-22.13 22.13z" fill="#00C800"/><path d="M35.51 27.71c11.12 0 20.13 9.01 20.13 20.13s-9.01 20.13-20.13 20.13-20.13-9.01-20.13-20.13 9.01-20.13 20.13-20.13m0-4c-13.31 0-24.13 10.82-24.13 24.13S22.2 71.97 35.51 71.97s24.13-10.82 24.13-24.13-10.83-24.13-24.13-24.13z" fill="#006837"/><g fill="#404040"><path d="M40.15 53.94c.01-1.01-.36-1.87-1.1-2.59-.75-.72-1.94-1.35-3.56-1.88-1.03-.32-1.96-.69-2.79-1.11s-1.54-.92-2.14-1.5c-.59-.58-1.05-1.25-1.37-2s-.48-1.62-.48-2.61c0-.93.14-1.77.42-2.53.28-.75.68-1.41 1.2-1.97s1.14-1.01 1.88-1.35 1.55-.57 2.45-.68v-3.66h2.48v3.66c1.86.26 3.31 1.04 4.34 2.35s1.55 3.1 1.56 5.36h-3.06c0-.74-.09-1.43-.27-2.05-.18-.63-.45-1.16-.8-1.61s-.78-.8-1.29-1.06c-.51-.25-1.09-.38-1.74-.38-1.34 0-2.35.35-3.04 1.05s-1.04 1.64-1.05 2.83c0 .55.09 1.05.27 1.48s.46.83.84 1.18.88.68 1.48.99c.6.3 1.33.6 2.19.89 1.04.34 1.98.73 2.81 1.15s1.53.91 2.11 1.48c.58.56 1.02 1.22 1.32 1.96s.46 1.61.46 2.59c0 .96-.15 1.83-.46 2.59-.3.76-.73 1.42-1.29 1.97-.55.55-1.23.99-2.02 1.32s-1.67.55-2.63.65v3.19h-2.48v-3.17c-.86-.09-1.69-.29-2.48-.6s-1.49-.76-2.1-1.35-1.1-1.34-1.46-2.23c-.37-.9-.55-1.97-.55-3.22h3.07c0 .93.14 1.7.42 2.32s.63 1.1 1.07 1.47.93.63 1.49.78c.55.16 1.11.23 1.68.23.72 0 1.37-.09 1.94-.27.58-.18 1.06-.43 1.46-.77s.71-.75.92-1.23c.19-.52.3-1.06.3-1.67z"/><path d="M34.25 32.05h2.91v31.57h-2.91z"/></g><g fill="#404040"><path d="M96.95 53.94c.01-1.01-.36-1.87-1.1-2.59-.75-.72-1.94-1.35-3.56-1.88-1.03-.32-1.96-.69-2.79-1.11s-1.54-.92-2.14-1.5c-.59-.58-1.05-1.25-1.37-2s-.48-1.62-.48-2.61c0-.93.14-1.77.42-2.53.28-.75.68-1.41 1.2-1.97s1.14-1.01 1.88-1.35 1.55-.57 2.45-.68v-3.66h2.48v3.66c1.86.26 3.31 1.04 4.34 2.35s1.55 3.1 1.56 5.36h-3.06c0-.74-.09-1.43-.27-2.05-.18-.63-.45-1.16-.8-1.61s-.78-.8-1.29-1.06c-.51-.25-1.09-.38-1.74-.38-1.34 0-2.35.35-3.04 1.05s-1.04 1.64-1.05 2.83c0 .55.09 1.05.27 1.48s.46.83.84 1.18.88.68 1.48.99c.6.3 1.33.6 2.19.89 1.04.34 1.98.73 2.81 1.15s1.53.91 2.11 1.48c.58.56 1.02 1.22 1.32 1.96s.46 1.61.46 2.59c0 .96-.15 1.83-.46 2.59-.3.76-.73 1.42-1.29 1.97-.55.55-1.23.99-2.02 1.32s-1.67.55-2.63.65v3.19h-2.48v-3.17c-.86-.09-1.69-.29-2.48-.6s-1.49-.76-2.1-1.35-1.1-1.34-1.46-2.23c-.37-.9-.55-1.97-.55-3.22h3.07c0 .93.14 1.7.42 2.32s.63 1.1 1.07 1.47.93.63 1.49.78c.55.16 1.11.23 1.68.23.72 0 1.37-.09 1.94-.27.58-.18 1.06-.43 1.46-.77s.71-.75.92-1.23c.19-.52.3-1.06.3-1.67z"/><path d="M91.05 32.05h2.91v31.57h-2.91z"/></g></svg>