<svg viewBox="0 0 128 128" xmlns="http://www.w3.org/2000/svg" xmlns:xlink="http://www.w3.org/1999/xlink"><radialGradient id="a" cx="63.2" cy="9.1" r="109.7" gradientTransform="matrix(-.00218 1 -.44 -.00096 67.3 -54)" gradientUnits="userSpaceOnUse"><stop stop-color="#A47B62" offset=".2"/><stop stop-color="#BA8D68" offset=".7"/><stop stop-color="#A47B62" offset="1"/></radialGradient><path d="M64.3 120.3C43.5 120.3 29 105 29 83V66.2l-2-31a9 9 0 0 1 1.4-5.8 6.2 6.2 0 0 1 4.8-2.6h.5c3.9 0 6.6 2.9 6.9 7.4l3.7 23.2c.1.7.7 1.3 1.4 1.3a220.2 220.2 0 0 1 33.3 3c.3 0 .6 0 .9-.2.3-.3.5-.6.6-1l5.7-45.3c.2-4.6 2.9-7.5 6.7-7.5h.4c2 .1 3.7 1 4.8 2.5a9 9 0 0 1 1.5 5.8L96 66.2c0 .4 0 .8.4 1.1 5 5.3 7.1 19 1.6 32a34 34 0 0 1-33.6 21z" fill="url(#a)"/><path d="M93 9.2h.3c3.8.2 5 3.7 4.8 6.7L94.4 66c0 .8.2 1.7.8 2.3 2.4 2.5 4 7 4.4 12.5.4 5.9-.7 12.2-3.1 17.8a32.7 32.7 0 0 1-32.2 20.1 32.9 32.9 0 0 1-25-10.4A37.7 37.7 0 0 1 30 83V66.2l.2-.2-2-30.8c-.1-3.3 1.3-6.7 5-7h.5c3.7 0 5.2 3.3 5.4 6v.3l3.7 23.1a3 3 0 0 0 3 2.6 218.4 218.4 0 0 1 33.2 3 3 3 0 0 0 3-2.5l5.7-45.3v-.2c.1-2.8 1.6-6 5.2-6m0-3c-4.9 0-8 3.9-8.2 8.8L79 60.3c-10.1-1.7-23-3-33.2-3.1L42 34c-.4-5-3.5-8.9-8.4-8.9H33c-5.3.4-8.3 5-8 10.2l2 30.9V83c0 21.3 14 38.8 37 38.8 39.3 0 44.6-43.6 33.3-55.5l3.8-50.2c.3-5.2-2.5-9.6-7.7-9.9h-.5z" fill="#91674D"/><radialGradient id="b" cx="66.2" cy="83.3" r="26.8" gradientUnits="userSpaceOnUse"><stop stop-color="#A47B62" stop-opacity=".8" offset=".3"/><stop stop-color="#A47B62" stop-opacity="0" offset="1"/></radialGradient><ellipse cx="66.2" cy="83.3" rx="30.3" ry="22.7" fill="url(#b)" opacity=".4"/><path d="M80.4 86.2a16 16 0 0 0-11.4.2c-3.7 1.8-5.6 5.5-7 9-.8 1.9 2.1 2.7 2.8.9 1.3-3 2.8-6 6-7.4a13 13 0 0 1 8.8.2c1.8.5 2.6-2.4.8-3z" fill="#91674D"/><radialGradient id="c" cx="135.9" cy="231.3" r="28" fx="141.8" fy="203.9" gradientTransform="matrix(-.0699 .9347 -.3356 -.0192 158.7 -69.2)" gradientUnits="userSpaceOnUse"><stop stop-color="#BA8D68" offset=".5"/><stop stop-color="#A47B62" offset="1"/></radialGradient><path d="M69.9 81.2h-.6a8.2 8.2 0 0 1-5.7-2.7 6.2 6.2 0 0 1-1.6-4.6l1.6-19c.2-3.5 3.7-6.3 7.8-6.3h.5c2.3.2 4.4 1.2 5.7 2.8 1.2 1.3 1.7 3 1.6 4.5l-1.5 19c-.3 3.5-3.7 6.3-7.8 6.3z" fill="url(#c)"/><path d="M71.4 50.1h.4a7 7 0 0 1 4.7 2.3c.6.7 1.3 1.8 1.2 3.4l-1.5 19c-.2 2.7-3 5-6.3 5l-.5-.1a7 7 0 0 1-4.7-2.2 4.7 4.7 0 0 1-1.2-3.5L65 55.1c.3-2.8 3-5 6.4-5m0-3c-4.9 0-9 3.4-9.3 7.8l-1.6 18.9c-.3 4.6 3.5 8.6 8.7 8.9h.7c4.8 0 9-3.3 9.3-7.7l1.5-19c.4-4.5-3.5-8.5-8.7-8.8h-.6z" fill="#91674D"/><radialGradient id="d" cx="-354.3" cy="112.9" r="20.9" gradientTransform="matrix(.1233 .9292 -.3952 .0436 140 382.3)" gradientUnits="userSpaceOnUse"><stop stop-color="#BA8D68" offset=".5"/><stop stop-color="#A47B62" offset="1"/></radialGradient><path d="M54 80c-4.2 0-7.6-2.7-8-6.3l-2-15.5a7 7 0 0 1 1.5-4.8 8.4 8.4 0 0 1 6.6-3c4.1 0 7.6 2.8 8 6.3L62 72.3c.2 1.6-.3 3.3-1.4 4.7a8.4 8.4 0 0 1-5.8 3H54z" fill="url(#d)"/><path d="M52.1 52c3.3 0 6.2 2.1 6.5 4.9l1.9 15.5c.2 1.7-.5 3-1.1 3.7a6.8 6.8 0 0 1-4.7 2.4H54c-3.3 0-6.2-2.2-6.5-5l-2-15.5c-.1-1.6.6-2.9 1.2-3.6 1-1.4 2.8-2.2 4.7-2.4h.7m0-3h-1c-5.3.5-9 4.7-8.5 9.4l1.9 15.5c.5 4.4 4.6 7.6 9.5 7.6h1c5.2-.5 9-4.7 8.5-9.4l-2-15.6c-.4-4.3-4.6-7.6-9.4-7.6z" fill="#91674D"/><defs><path id="e" d="M58 66.3c-6.1-.7-7.9 5.6-6.8 9.4s5.2 7 9.1 7c14.3.4 17.6 2.9 19 6.9 1.9 5.5 7.5 9.2 10.6 9.5 9.4.7 10.4-10.5 9.2-18.2C97.5 70 79.4 66.6 79.4 66.6s-18.4 0-21.3-.4z"/></defs><clipPath id="f"><use xlink:href="#e"/></clipPath><g clip-path="url(#f)"><radialGradient id="g" cx="173" cy="458.4" r="36" gradientTransform="matrix(.7905 .0898 -.0981 .8635 -27.2 -336.7)" gradientUnits="userSpaceOnUse"><stop stop-color="#BA8D68" offset="0"/><stop stop-color="#B78A67" offset=".4"/><stop stop-color="#AD8264" offset=".8"/><stop stop-color="#A47B62" offset="1"/></radialGradient><path d="M88.3 103.1l-1.7-.1c-1.6-.2-3.7-7-4.7-10.3l-1.2-3.6c-2-5.5-7.3-7.6-20.3-7.8a8.7 8.7 0 0 1-7.8-6 7.3 7.3 0 0 1 1-6c.9-1 2-1.6 3.6-1.6h.7c2.9.4 18.9.4 21.2.4 8.7 3.3 22.3 10.4 22.5 16a21 21 0 0 1-5 15.4 11.4 11.4 0 0 1-8.3 3.6z" fill="url(#g)"/><path d="M57.2 69.2h.5c2.9.4 17.7.4 21.2.4 1.5.6 6.2 2.5 10.8 5 9.5 5.4 10.4 8.7 10.4 9.6.2 5.8-1.4 11-4.5 14.3a9.8 9.8 0 0 1-8.5 3c-1.2-1.1-3-6.5-3.8-9.2l-1.2-3.7c-2.2-6.2-7.8-8.5-21.7-8.8a7.3 7.3 0 0 1-6.3-4.8 6 6 0 0 1 .7-4.7c.6-.8 1.3-1.1 2.4-1.1m0-3c-5.5 0-7 5.9-6 9.5 1 3.9 5.2 7 9.1 7 14.3.4 17.6 2.9 19 6.9 1.9 5.5 4 14.5 7 14.9l2 .1c9.4 0 15.2-9.3 14.8-20.6-.4-8.7-23.7-17.4-23.7-17.4s-18.3 0-21.3-.3l-1-.1z" fill="#91674D"/></g></svg>