<svg viewBox="0 0 128 128" xmlns="http://www.w3.org/2000/svg"><linearGradient id="a" x1="64" x2="64" y1="19.9" y2="107.6" gradientUnits="userSpaceOnUse"><stop stop-color="#fff" offset=".5"/><stop stop-color="#FCFCFC" offset=".6"/><stop stop-color="#F1F1F1" offset=".7"/><stop stop-color="#DFDFDF" offset=".8"/><stop stop-color="#C7C7C7" offset=".9"/><stop stop-color="#C2C2C2" offset=".9"/></linearGradient><path d="M64 119.8c-28 0-57.8-17.5-57.8-55.8S36.2 8.3 64 8.3c15.4 0 29.7 5.1 40.2 14.4A53.3 53.3 0 0 1 121.8 64c0 16.8-6 31.1-17.6 41.3A60.4 60.4 0 0 1 64 119.8z" fill="url(#a)"/><path d="M64 10.3c15 0 28.8 5 39 13.9A51.5 51.5 0 0 1 119.8 64c0 16.2-5.8 30-16.9 39.8-10.2 9-24 14-39 14A59 59 0 0 1 25.1 104 51.5 51.5 0 0 1 8 64c0-16.5 5.9-30.3 17-40a59 59 0 0 1 39-13.7m0-4C33 6.3 4.2 26.3 4.2 64c0 37.6 28.7 57.8 59.8 57.8S123.8 101 123.8 64C123.8 26.8 95 6.3 64 6.3z" fill="#B0ABA3"/><radialGradient id="b" cx="39.4" cy="67.1" r="21.7" gradientTransform="matrix(1 0 0 .7307 0 19.8)" gradientUnits="userSpaceOnUse"><stop stop-color="#ED7770" offset="0"/><stop stop-color="#ED7770" stop-opacity="0" offset=".9"/></radialGradient><ellipse cx="39.4" cy="68.8" rx="19.9" ry="15.3" fill="url(#b)"/><radialGradient id="c" cx="87.6" cy="67.1" r="21.7" gradientTransform="matrix(1 0 0 .7307 0 19.8)" gradientUnits="userSpaceOnUse"><stop stop-color="#ED7770" offset="0"/><stop stop-color="#ED7770" stop-opacity="0" offset=".9"/></radialGradient><ellipse cx="87.6" cy="68.8" rx="19.9" ry="15.3" fill="url(#c)"/><g fill="#242424"><path d="M91.3 50H77c-2.1 0-3.8-1.7-3.8-3.9s1.7-3.8 3.8-3.8h14.3c2.1 0 3.9 1.7 3.9 3.8-.2 2.2-2 3.9-4 3.9z"/><path d="M84 57.1a3.9 3.9 0 0 1-4-3.8V39c0-2.1 1.8-3.9 4-3.9s3.8 1.8 3.8 3.9v14.3c0 2.1-1.7 3.9-3.8 3.9z"/></g><radialGradient id="d" cx="66" cy="60" r="20.7" gradientUnits="userSpaceOnUse"><stop stop-color="#FF4900" offset="0"/><stop stop-color="#E30C00" offset="1"/></radialGradient><circle cx="64" cy="66" r="15.1" fill="url(#d)" stroke="#B32E2E" stroke-miterlimit="10" stroke-width="5"/><path d="M64 103.5c-14.4 0-28-6.1-37.1-16.9a3.7 3.7 0 0 1-.6-4c.6-1.3 2-2.2 3.4-2.2.7 0 1.4.2 2 .5A64.3 64.3 0 0 0 64 89.3c11.7 0 23-2.9 32.3-8.4.6-.3 1.3-.5 2-.5a3.8 3.8 0 0 1 2.8 6.2 48.7 48.7 0 0 1-37.1 17z" fill="#242424"/><path d="M98.2 82.4c1.4 0 2.4 1.7 1.4 3a47 47 0 0 1-71.2-.1c-1-1.2 0-2.9 1.3-2.9l1 .3A67.2 67.2 0 0 0 64 91.3a66.5 66.5 0 0 0 34.2-8.9m0-4c-1 0-2 .3-2.9.8-9 5.3-20 8.1-31.3 8.1s-22.2-2.8-31.3-8c-1-.6-2-.9-3-.9a5.8 5.8 0 0 0-5.2 3.4c-1 2-.6 4.4.9 6.1C34.9 99.1 49 105.5 64 105.5s29-6.4 38.6-17.6c1.5-1.7 1.8-4 .9-6-1-2.2-3-3.5-5.3-3.5z" fill="#ED0009"/><linearGradient id="e" x1="23.8" x2="23.8" y1="5.8" y2="43.5" gradientUnits="userSpaceOnUse"><stop stop-color="#FF4900" offset="0"/><stop stop-color="#E30C00" offset="1"/></linearGradient><path d="M11.6 46.9A8.3 8.3 0 0 1 7.8 31a2 2 0 0 0 1-2.5A13 13 0 0 1 28.3 13a2 2 0 0 0 1.8.3 2 2 0 0 0 1.2-1.4 6.6 6.6 0 0 1 13 1.8 6.6 6.6 0 0 1-8.4 6.3 2 2 0 0 0-1.8.4 2 2 0 0 0-.7 1.8v1.2c0 6.7-5 12.2-11.7 12.8a2 2 0 0 0-1.8 2v.3c0 4.5-3.8 8.3-8.4 8.3z" fill="url(#e)"/><path d="M37.8 9.2a4.6 4.6 0 1 1-1.2 9l-1.1-.1a4 4 0 0 0-4 4.3v1a11 11 0 0 1-10 11 4 4 0 0 0-3.6 4.2A6.3 6.3 0 1 1 8.7 33a4 4 0 0 0 1.8-5.1 11 11 0 0 1 16.6-13.1 4 4 0 0 0 6.3-2.1c.5-2 2.3-3.4 4.4-3.4m0-4c-4 0-7.3 2.7-8.3 6.3A15 15 0 0 0 7 29.3a10.3 10.3 0 1 0 15 9.2v-.2a15 15 0 0 0 13.6-16.2 8.6 8.6 0 1 0 2.3-16.8z" fill="#B32E2E"/><linearGradient id="f" x1="104.6" x2="104.6" y1="5.8" y2="43.5" gradientUnits="userSpaceOnUse"><stop stop-color="#FF4900" offset="0"/><stop stop-color="#E30C00" offset="1"/></linearGradient><path d="M116.8 46.9a8.3 8.3 0 0 1-8.3-8.4v-.1c0-1-.8-2-1.8-2a12.9 12.9 0 0 1-11.8-14.1 2 2 0 0 0-2-2.2h-.5a5 5 0 0 1-1.7.3A6.6 6.6 0 1 1 97 12a2 2 0 0 0 3.1 1.1 13 13 0 0 1 19.6 15.5c-.4 1 0 2 1 2.5a8.4 8.4 0 0 1-3.8 15.8z" fill="url(#f)"/><path d="M90.7 9.2c2 0 3.8 1.4 4.4 3.4a4 4 0 0 0 6.2 2c2-1.3 4.2-2 6.5-2a11 11 0 0 1 10 15.2 4 4 0 0 0 2 5 6.3 6.3 0 1 1-9.3 5.8v-.2a4 4 0 0 0-3.6-4 10.9 10.9 0 0 1-10-12 4 4 0 0 0-5-4.2l-1.2.2a4.6 4.6 0 0 1 0-9.2m0-4A8.6 8.6 0 1 0 93 22.1l-.1 1.3a15 15 0 0 0 13.6 15v.1a10.3 10.3 0 1 0 15-9.2A15 15 0 0 0 99 11.5a8.6 8.6 0 0 0-8.2-6.3z" fill="#B32E2E"/><path d="M43.7 37c-4.2 0-8 3.5-8 9.4s3.8 9.4 8 9.4 8-3.6 8-9.4-3.8-9.5-8-9.5z" fill="#242424"/></svg>