<svg viewBox="0 0 128 128" xmlns="http://www.w3.org/2000/svg"><linearGradient id="a" x1="63" x2="63" y1="20.5" y2="107" gradientUnits="userSpaceOnUse"><stop stop-color="#FEE133" offset=".5"/><stop stop-color="#FEDE32" offset=".6"/><stop stop-color="#FCD32F" offset=".7"/><stop stop-color="#FAC12B" offset=".8"/><stop stop-color="#F7A924" offset=".9"/><stop stop-color="#F6A323" offset=".9"/></linearGradient><path d="M63 119c-27.5 0-57-17.2-57-55S35.5 9 63 9c15.2 0 29.3 5 39.7 14.2A52.6 52.6 0 0 1 120 64c0 16.6-6 30.6-17.3 40.7A59.6 59.6 0 0 1 63 119z" fill="url(#a)"/><path d="M63 11a58 58 0 0 1 38.4 13.7A50.7 50.7 0 0 1 118 64c0 16-5.7 29.6-16.6 39.2A57.5 57.5 0 0 1 63 117a57.8 57.8 0 0 1-38.4-13.6A50.7 50.7 0 0 1 7.9 64c0-16.3 5.8-30 16.7-39.5A58 58 0 0 1 63 11m0-4C32.4 7 4 26.8 4 64c0 37 28.4 57 59 57s59-20.5 59-57c0-36.8-28.4-57-59-57z" fill="#EB8F00"/><path d="M52.7 105.3c-3.5 0-6.7-2-8.4-5s-1.5-6.8.5-9.8c4.4-6.7 11-10.2 19.5-10.2s15 3.5 19.4 10.2c2 3 2.2 6.6.5 9.7a9.6 9.6 0 0 1-11.6 4.6 25.3 25.3 0 0 0-16.7 0c-1 .4-2.1.5-3.2.5z" fill="#242424"/><path d="M43.7 24.7a2.7 2.7 0 0 1 2.6-1.9 12 12 0 0 0 8.7-4.3c.8-1 2.3-1.4 3.4-.7 1.1.5 1.6 1.8 1.2 3l-.2.4A13.4 13.4 0 0 1 46 28a3 3 0 0 1-2-1.2 3 3 0 0 1-.2-2.1zm40.6 0a2.7 2.7 0 0 0-2.6-1.9c-3.2-.1-6.5-1.7-8.6-4.3-.9-1-2.3-1.4-3.5-.7a2.5 2.5 0 0 0-1.2 3l.2.4A13.4 13.4 0 0 0 82.1 28c.9-.1 1.6-.6 2-1.2a3 3 0 0 0 .2-2.1z" fill="#EB8F00" stroke="#EB8F00" stroke-miterlimit="10"/><path d="M82.8 45c4.2 0 8 3.6 8 9.5s-3.8 9.4-8 9.4-8-3.6-8-9.4 3.8-9.5 8-9.5zm-37.6 0c-4.2 0-8 3.6-8 9.5s3.8 9.4 8 9.4 8-3.6 8-9.4-3.8-9.5-8-9.5z" fill="#242424"/><linearGradient id="b" x1="61.4" x2="125.6" y1="65.8" y2="65.8" gradientUnits="userSpaceOnUse"><stop stop-color="#FEE133" offset=".1"/><stop stop-color="#FDDD32" offset=".3"/><stop stop-color="#FCD02F" offset=".6"/><stop stop-color="#F9BB29" offset=".8"/><stop stop-color="#F6A323" offset="1"/></linearGradient><path d="M118.9 72.5H68.1a6.7 6.7 0 0 1 0-13.4h51.1c3.6 0 6.4 2.9 6.4 6.4v.3c0 3.7-3 6.7-6.7 6.7z" fill="url(#b)"/><path d="M119 57.1H68v4h51c2.6 0 4.6 2 4.6 4.4v.3c0 2.6-2.2 4.7-4.8 4.7H68v4h50.8c4.9 0 8.9-3.9 8.9-8.7v-.3c0-4.6-3.9-8.4-8.6-8.4z" fill="#EB8F00"/></svg>