<svg viewBox="0 0 128 128" xmlns="http://www.w3.org/2000/svg"><linearGradient id="a" x1="64" x2="64" y1="19.7" y2="107.7" gradientUnits="userSpaceOnUse"><stop stop-color="#FEE133" offset=".5"/><stop stop-color="#FEDE32" offset=".6"/><stop stop-color="#FCD32F" offset=".7"/><stop stop-color="#FAC12B" offset=".8"/><stop stop-color="#F7A924" offset=".9"/><stop stop-color="#F6A323" offset=".9"/></linearGradient><path d="M64 119.9c-28 0-58-17.5-58-55.9S36 8.1 64 8.1c15.5 0 29.8 5.1 40.4 14.4A53.5 53.5 0 0 1 122 64c0 16.9-6.1 31.2-17.6 41.4A60.6 60.6 0 0 1 64 119.9z" fill="url(#a)"/><path d="M64 10.1c15 0 28.9 5 39 14A51.5 51.5 0 0 1 120 64c0 16.3-5.9 30-17 39.9-10.2 9-24 14-39 14s-28.9-5-39-13.8A51.5 51.5 0 0 1 8 64c0-16.5 5.9-30.4 17-40.2a58.9 58.9 0 0 1 39-13.7m0-4C32.9 6.1 4 26.1 4 64c0 37.7 28.9 57.9 60 57.9s60-20.7 60-57.9c0-37.4-28.9-57.9-60-57.9z" fill="#EB8F00"/><path d="M64 98.4c3.9 0 7.7.6 11.3 2 7.7 2.6 14.4-6 10-12.9-4.7-7-12-11-21.3-11s-16.5 4-21.2 11c-4.4 6.8 2.2 15.5 10 12.8a34 34 0 0 1 11.2-2z" fill="#242424"/><path d="M77.4 124.5c-1.9 0-3.1-.5-4-1.4-2.2-2.7-1-9-.4-11.8 0-.5.3-1.1.5-1.8.8-2.5 2.2-7.1-2.5-9l-1.5-.7c1.5.3 3 .6 4.7.6 2 0 4.3-.8 6.3-1.7-1.6 2-.5 5.6.7 9.7.5 1.5 1 3 1.3 4.4.9 4.4.5 8.1-1 10-.8 1.1-2 1.6-3.7 1.7h-.4z" fill="#5F7AFF"/><path d="M77.7 101.9c.1 2.2.9 4.6 1.6 7 .5 1.5 1 3 1.2 4.3.8 3.7.5 7-.6 8.4-.3.4-.8.9-2.2 1h-.3c-1.8 0-2.3-.6-2.4-.8-1.1-1.3-1.1-4.7 0-10 0-.5.2-1.1.4-1.7.5-1.6 1.5-5 .3-7.8l2-.4M86 94c-1.4 0-7.5 4.3-11.7 4.3-5 0-10-2.3-14.2-2.4H60c-4.7 0-4.6 3.6-4.6 3.6.8-.2 1.7-.3 2.8-.3 3.2 0 7.4 1 12.1 3 3.9 1.6 1.4 5.7.8 8.7-1.1 5.7-2.6 15.5 6.4 15.5h.5c7-.3 7.9-7.5 6.5-14-1-4.7-4-11.3-2-12.7 2-1.7 3-1.6 4-5.2 0-.4 0-.5-.4-.5z" fill="#4864ED"/><path d="M83.8 38c3.7 0 7 4.4 7 11.5S87.5 61 83.8 61s-7-4.3-7-11.5S80 38 83.7 38zm-39.6 0c-3.7 0-7 4.4-7 11.5s3.3 11.5 7 11.5 7-4.3 7-11.5S48 38 44.3 38z" fill="#242424"/></svg>