<svg viewBox="0 0 128 128" xmlns="http://www.w3.org/2000/svg"><symbol id="c" viewBox="-64.5 -64.5 129 129"><g fill="none" stroke="#4285F4" stroke-miterlimit="10"><path d="M-64-64H64V64H-64z"/><path d="M36.95 37.82C27.32 46.32 14.2 51 0 51c-14.27 0-27.39-4.62-36.96-13.01C-47.45 28.79-53 15.65-53 0c0-15.58 5.55-28.69 16.04-37.92C-27.36-46.35-14.24-51 0-51c14.17 0 27.29 4.71 36.95 13.25C47.45-28.45 53-15.4 53 0c0 15.47-5.55 28.55-16.05 37.82z"/><path d="M0 55c-29.59 0-57-19.01-57-55 0-35.8 27.41-55 57-55S57-35.31 57 0c0 35.51-27.41 55-57 55z"/><path d="M0-43c-12.29 0-23.54 3.94-31.68 11.09C-40.39-24.25-45-13.21-45 0c0 29.7 22.6 43 45 43 21.67 0 45-13.46 45-43S21.67-43 0-43zM-.01 51V-51M-16 48.95v-97.88M15.99 48.91v-97.84M53 .08H-53"/></g></symbol><path d="M20.73 85.08c3.97-6.99 6.73-12.73 8.58-17.84l.74-2.03-2.16-.06c-.97-.03-2.2-.04-3.54-.04-1.89 0-4.02.02-5.93.05 3.64-2.34 8.35-5.43 10.17-6.91l2-1.62-2.36-1.02c-4.23-1.83-11.98-4.03-17.62-5.52l20.84-4.04-2.93-2.11c-.13-.1-10.49-7.58-16.94-12.31 6.34.35 15.08.79 18.3.81l2.28.01-.81-2.13c-1.49-3.93-4.56-10.14-6.6-14.16 4.89 2.09 13.1 5.42 18.44 6.7l1.84.44.08-1.9c.09-2.17-.47-7.63-.98-11.98 2.64 3.54 6.05 7.9 7.91 9.4l1.34 1.09.95-1.44c2.69-4.1 7.04-9.64 9.13-12.25 2.28 2.77 7.22 8.86 10.13 13.17l.92 1.35 1.31-.98c2.04-1.52 6.23-5.71 9.38-8.96-.86 3.7-1.78 8.2-1.8 10.21l-.02 2.02 1.96-.49c5.45-1.36 16.12-7.05 22-10.32L96.96 35.84l16.71-1.38c-4.19 2.16-8.95 4.73-10.61 6.08l-2 1.63 2.36 1.02c4.72 2.04 12.42 5.24 16.85 7.07-4.67 2.01-13.02 5.61-17.97 7.82l-2.22.99 1.82 1.61c2 1.78 4.27 3.66 6.86 5.71-3.26-.15-6.21-.23-8.95-.25l-2.28-.01.81 2.13c1.84 4.86 4.48 10.27 8.2 16.83-8.84-3.33-16.05-5.62-22.45-7.15l-1.84-.44-.07 1.69c-1.3 1.45-11.01 4.22-20.06 4.22-6.58 0-8.11-1.52-8.43-1.99l-.92-1.36-1.31.98c-.79.59-1.93.91-3.22.91-1.59 0-3.18-.52-3.95-1.3-.43-.43-.43-.77-.42-.88l.02-2.02-1.96.49c-6.07 1.51-12.89 3.71-21.2 6.84z" fill="#F15A24"/><path d="M63.46 8.68c2.51 3.08 6.39 7.96 8.82 11.55l1.83 2.71 2.62-1.95c1.36-1.01 3.57-3.09 5.82-5.32-.41 2.16-.71 4.12-.72 5.33l-.04 4.04 3.92-.98c4.5-1.12 12.35-5.05 18.35-8.27l-7.48 17.02-2.11 4.81 5.23-.43 6.61-.55c-1.85 1.05-3.39 2.01-4.24 2.7l-3.99 3.25 4.73 2.04c3.67 1.58 9.12 3.86 13.45 5.66-4.66 2.01-10.68 4.62-14.59 6.36l-4.44 1.98 3.64 3.22c1.02.9 2.11 1.84 3.27 2.8-1.5-.04-2.93-.07-4.31-.08l-4.56-.03 1.62 4.26c1.51 3.99 3.55 8.33 6.26 13.36-7.15-2.58-13.21-4.44-18.68-5.75l-3.69-.88-.12 2.82c-2.32 1.33-10.75 3.49-18.53 3.49-4.99 0-6.87-.97-7.13-1.3l-1.83-2.71-2.62 1.95c-.51.38-1.35.6-2.29.6-1.47 0-2.5-.51-2.81-.8l.04-3.85-3.92.98c-5.15 1.29-10.81 3.05-17.43 5.44 2.94-5.45 5.1-10.13 6.64-14.39l1.48-4.07-4.33-.12c-.91-.03-2.12-.04-3.58-.04h-.6c2.42-1.6 4.67-3.15 5.82-4.08l3.99-3.25-4.73-2.04c-2.82-1.22-7.15-2.59-11.41-3.82l10.76-2.09 7.09-1.38-5.85-4.23c-.11-.08-6.74-4.87-12.69-9.2 5.25.27 10.71.52 13.12.53l4.56.03-1.62-4.26c-1.1-2.89-3.02-6.97-4.78-10.54 4.74 1.93 10.61 4.15 14.79 5.15l3.69.88.16-3.79c.06-1.37-.12-3.92-.39-6.69 1.8 2.25 3.57 4.28 4.77 5.25l2.69 2.17 1.89-2.89c2.23-3.35 5.6-7.73 7.85-10.6m-21.64-5.1s1.88 14.07 1.72 17.74c-7.8-1.87-22.21-8.37-22.21-8.37s6.25 11.84 8.55 17.91c-4.23-.03-18.39-.8-23.45-1.11 4.09 3.1 21.17 15.44 21.17 15.44L3.46 49.87s17.17 4.15 24.14 7.16c-3.03 2.47-14.72 9.78-14.72 9.78s6.51-.15 11.47-.15c1.33 0 2.54.01 3.5.04-2.3 6.33-5.86 13.26-10.68 21.41 9.53-3.71 17.69-6.5 25.17-8.37-.02 2.28 2.95 3.76 5.94 3.76 1.51 0 3.02-.38 4.15-1.22 1.3 1.93 5.15 2.67 9.72 2.67 9.26 0 21.5-3.06 21.61-5.51 7.8 1.87 16.33 4.75 26.38 8.67-4.57-7.74-8.01-14.36-10.31-20.43 4.23.03 8.82.21 13.88.52-4.09-3.1-7.66-5.97-10.75-8.71 7.19-3.2 21.36-9.27 21.36-9.27s-13.29-5.46-20.26-8.47c3.03-2.47 17.55-9.52 17.55-9.52l-22.15 1.83 11.22-25.53S92.44 19.14 84.97 21.01c.03-3.43 3.1-15.52 3.1-15.52s-9.81 10.46-13.19 12.97C70.93 12.65 63.43 3.72 63.43 3.72s-6.71 8.21-10.41 13.87c-3.05-2.46-11.2-14.01-11.2-14.01z" fill="#C73200"/><linearGradient id="a" x1="39.901" x2="93.151" y1="15.736" y2="58.271" gradientUnits="userSpaceOnUse"><stop stop-color="#F0F0F0" offset="0"/><stop stop-color="#E2E2E2" offset=".302"/><stop stop-color="#BEBEBE" offset=".869"/><stop stop-color="#B5B5B5" offset=".999"/></linearGradient><path d="M56.69 64.3c-3.8-.06-7.05-2.2-8.92-5.89-.26-.51-.78-.82-1.34-.82-.1 0-.21.01-.31.03-.92.19-1.8.29-2.62.29-3.13 0-5.55-1.43-7.39-4.38a1.48 1.48 0 0 0-.93-.67c-5.22-1.23-9.06-5.44-9.34-10.24-.21-3.64 1.63-7.01 4.94-9.01.64-.39.9-1.19.6-1.88-.6-1.37-.94-2.79-1.01-4.21-.16-3.21.96-6.27 3.17-8.62 2.33-2.48 5.57-3.86 9.11-3.89h.12c1.38 0 2.76.22 4.12.66a1.515 1.515 0 0 0 1.84-.83c1.91-4.42 6.46-7.31 11.59-7.37h.17c4.91 0 9.26 2.56 11.37 6.68.19.37.52.64.91.76.14.04.28.06.42.06.26 0 .52-.07.75-.2a17.81 17.81 0 0 1 8.75-2.39h.18c4.62 0 8.94 1.76 11.86 4.84 2.49 2.62 3.75 5.98 3.57 9.46-.1 1.92-.63 3.77-1.58 5.52-.39.72-.13 1.61.58 2.02 3.64 2.07 5.68 5.6 5.44 9.43-.36 5.92-6.15 10.73-12.91 10.73h-.15c-.43 0-.85-.03-1.27-.07-.05 0-.1-.01-.15-.01-.69 0-1.29.47-1.46 1.15-1.18 4.86-6.18 8.38-11.89 8.38h-.21c-2.83-.04-5.56-.95-7.69-2.56-.27-.2-.59-.3-.9-.3-.35 0-.71.12-.99.37-2.19 1.92-5.1 2.97-8.22 2.97l-.21-.01z" fill="url(#a)"/><path d="M60.48 8.96c4.27 0 8.21 2.3 10.04 5.86.38.73 1.04 1.28 1.83 1.51a3.005 3.005 0 0 0 2.36-.29c2.41-1.4 5.18-2.16 8.01-2.19h.17c4.21 0 8.14 1.59 10.78 4.37 2.2 2.32 3.32 5.28 3.16 8.35-.09 1.69-.56 3.34-1.4 4.89a3.002 3.002 0 0 0 1.15 4.04c3.13 1.79 4.89 4.79 4.69 8.04-.31 5.14-5.43 9.33-11.41 9.33h-.13c-.38 0-.76-.02-1.13-.06-.1-.01-.2-.01-.3-.01-1.37 0-2.58.94-2.91 2.29-1.02 4.19-5.41 7.23-10.44 7.23h-.19c-2.51-.04-4.93-.84-6.81-2.26a3.025 3.025 0 0 0-3.79.14c-1.91 1.68-4.48 2.6-7.23 2.6h-.18c-3.27-.05-5.97-1.85-7.6-5.07a3.012 3.012 0 0 0-2.68-1.65c-.21 0-.41.02-.62.07-.82.17-1.59.26-2.31.26-2.61 0-4.55-1.17-6.11-3.68a3.06 3.06 0 0 0-1.86-1.34c-4.58-1.08-7.95-4.72-8.19-8.87-.18-3.07 1.4-5.93 4.22-7.64 1.29-.78 1.8-2.39 1.19-3.77-.53-1.2-.83-2.44-.89-3.69-.14-2.8.84-5.47 2.77-7.51 2.05-2.18 4.91-3.39 8.04-3.42h.1c1.22 0 2.45.2 3.66.58.3.1.61.14.92.14 1.17 0 2.27-.69 2.75-1.81 1.68-3.87 5.69-6.41 10.23-6.47l.11.03m0-3h-.19c-5.9.07-10.88 3.5-12.94 8.28-1.45-.47-2.98-.73-4.58-.73h-.13c-8.02.07-14.16 6.45-13.77 14.08.09 1.68.49 3.27 1.14 4.74-3.64 2.21-5.91 6.05-5.66 10.38.33 5.6 4.78 10.27 10.5 11.61 1.81 2.9 4.5 5.09 8.66 5.09.9 0 1.88-.1 2.93-.33 2.08 4.11 5.76 6.65 10.23 6.71h.23c3.59 0 6.84-1.27 9.21-3.34 2.31 1.74 5.29 2.81 8.57 2.86h.23c6.49 0 12.02-4.05 13.35-9.53.46.05.93.07 1.4.08h.17c7.54 0 13.99-5.35 14.41-12.14.28-4.54-2.22-8.56-6.2-10.83 1.02-1.88 1.65-3.96 1.76-6.16.46-8.72-7.13-15.88-16.93-15.88h-.2c-3.49.03-6.74.99-9.49 2.59-2.26-4.42-7.08-7.48-12.7-7.48z" fill="#8F8F8F"/><linearGradient id="b" x1="63.865" x2="63.865" y1="75.289" y2="122.03" gradientUnits="userSpaceOnUse"><stop stop-color="#F6A323" offset=".1"/><stop stop-color="#FAC12B" offset=".391"/><stop stop-color="#FDD831" offset=".681"/><stop stop-color="#FEE133" offset=".862"/></linearGradient><path d="M63.87 122.06c-15.55 0-29.77-4.64-40.06-13.06-10.98-9-17.13-21.99-17.85-37.67h115.82c-.73 15.5-6.88 28.42-17.86 37.48-10.36 8.55-24.58 13.25-40.05 13.25z" fill="url(#b)"/><path d="M119.64 73.33c-2.59 32.24-29.42 46.73-55.78 46.73-15.09 0-28.86-4.48-38.79-12.61C15.04 99.23 9.21 87.49 8.09 73.33h111.55m4.2-4H3.89c.6 36.93 29.15 54.73 59.97 54.73 30.83 0 59.38-18.3 59.98-54.73z" fill="#EB8F00"/><path d="M84.11 33.55s.09.03.26.1c.15.08.4.14.67.36.29.21.61.48.91.84.14.18.3.38.46.6.14.22.28.47.41.73.5 1.05.8 2.44.68 3.89-.05.73-.21 1.47-.46 2.19-.14.36-.26.73-.45 1.07-.09.17-.18.35-.28.52l-.15.25-.08.13-.12.18c-.18.23-.33.45-.63.81-.27.35-.53.56-.79.83-.53.5-1.11.92-1.69 1.26-1.17.68-2.35 1.05-3.39 1.19-.52.08-1.01.08-1.44.07-.42 0-.81-.06-1.12-.11-.3-.03-.56-.13-.73-.16-.17-.05-.26-.08-.26-.08l-.12-.05a.155.155 0 0 1-.09-.2c.02-.04.05-.07.08-.09 0 0 .27-.12.73-.33.47-.21 1.11-.55 1.86-.98s1.6-1 2.42-1.7c.41-.35.81-.74 1.18-1.16.38-.43.71-.85 1.04-1.36a9.63 9.63 0 0 0 1.36-3.02c.27-1.03.31-2.04.23-2.89-.09-.84-.28-1.54-.48-1.99-.08-.23-.19-.41-.25-.53s-.1-.19-.1-.19a.153.153 0 0 1 .07-.21c.04-.02.09-.02.13-.01l.14.04zM59.78 48.37l-.03.28c-.03.17-.03.44-.19.78-.15.35-.32.74-.63 1.14-.29.4-.67.84-1.15 1.21-.96.78-2.27 1.38-3.74 1.64-.73.12-1.5.19-2.27.13-.77-.03-1.56-.19-2.31-.39-.26-.08-.68-.23-1.07-.37-.36-.14-.69-.31-1.02-.48-.66-.33-1.25-.74-1.79-1.17-1.07-.86-1.88-1.85-2.43-2.78-.28-.46-.49-.93-.66-1.34-.18-.4-.28-.79-.37-1.11-.1-.3-.12-.59-.16-.76-.03-.18-.04-.28-.04-.28l-.01-.13c-.01-.09.06-.16.15-.16.05 0 .09.02.12.05 0 0 .88.88 2.35 2 1.45 1.13 3.57 2.45 5.92 3.09 2.31.72 4.85.63 6.54-.01.85-.31 1.5-.69 1.9-1.02.2-.15.36-.3.46-.41l.16-.16c.06-.06.16-.06.23 0 .03.03.05.08.04.13v.12z" fill="#8F8F8F"/><path d="M92.76 24.07s.1.03.28.07c.17.06.44.1.75.32.33.2.7.44 1.05.81.36.36.75.81 1.05 1.35.64 1.08 1.05 2.5 1.09 4.02.02.75-.03 1.54-.2 2.31-.14.78-.42 1.55-.73 2.28-.12.25-.33.65-.53 1.02-.19.35-.41.66-.63.96-.43.62-.93 1.16-1.44 1.64a11.27 11.27 0 0 1-3.15 2.08c-.51.22-1 .37-1.44.48-.43.13-.84.18-1.17.23-.32.06-.61.05-.79.06s-.29 0-.29 0l-.13-.01a.165.165 0 0 1-.15-.17c0-.05.03-.09.06-.11 0 0 1.02-.77 2.38-2.09 1.36-1.3 3.02-3.27 4.01-5.57.53-1.12.87-2.34 1.03-3.49.15-1.16.11-2.26-.09-3.16-.19-.9-.48-1.63-.76-2.09-.12-.23-.26-.41-.35-.53s-.14-.19-.14-.19c-.05-.07-.04-.17.03-.22.04-.03.09-.04.13-.03l.13.03z" fill="#8F8F8F"/><path d="M120.01 54.86c.19-.5.3-1.03.3-1.59 0-2.5-2.03-4.53-4.53-4.53-2.07 0-3.8 1.4-4.34 3.3a4.51 4.51 0 0 0-2.99 4.24c0 2.5 2.03 4.53 4.53 4.53.29 0 .57-.03.85-.09.62.32 1.31.52 2.06.52 2.5 0 4.53-2.03 4.53-4.53 0-.65-.15-1.28-.41-1.85z" fill="#FFEA5C" stroke="#f80" stroke-linecap="round" stroke-linejoin="round" stroke-miterlimit="10" stroke-width="2"/><path d="M107.4 15.86c-1.29 0-2.45-.78-2.95-1.98-.12-.28-.35-.49-.65-.58-.99-.28-1.76-.99-2.12-1.93-.62-1.65.21-3.5 1.86-4.13.36-.14.74-.21 1.12-.21 1.29 0 2.46.78 2.95 1.98.12.28.35.49.65.58.99.29 1.76.99 2.12 1.93.62 1.65-.21 3.5-1.86 4.13-.36.14-.74.21-1.12.21z" fill="#5C5CFF"/><path d="M104.67 8.04c.89 0 1.69.54 2.03 1.36.23.56.71.99 1.29 1.16.68.2 1.21.68 1.46 1.32.43 1.14-.15 2.41-1.28 2.84-.25.09-.51.14-.77.14a2.2 2.2 0 0 1-2.03-1.36c-.23-.56-.71-.99-1.29-1.16-.68-.2-1.21-.68-1.46-1.32-.43-1.14.15-2.41 1.28-2.84.25-.1.51-.14.77-.14m0-2a4.197 4.197 0 0 0-3.92 5.69c.49 1.29 1.54 2.18 2.77 2.54.67 1.61 2.22 2.6 3.88 2.6.49 0 .99-.09 1.48-.27a4.21 4.21 0 0 0 2.45-5.42c-.49-1.29-1.54-2.18-2.77-2.54a4.222 4.222 0 0 0-3.89-2.6z" fill="#3939A1"/><path d="M19.3 49.18a3.45 3.45 0 1 0-6.84-.65c0 .52.12 1 .32 1.44-2 .1-3.64 1.69-3.76 3.74a3.98 3.98 0 0 0 3.74 4.2c1.35.08 2.58-.53 3.36-1.52.53.32 1.15.52 1.81.56a3.98 3.98 0 0 0 4.2-3.74c.12-1.87-1.1-3.52-2.83-4.03z" fill="#45F9FF" stroke="#24C9F2" stroke-miterlimit="10" stroke-width="3.126"/><ellipse cx="14.75" cy="17" rx="5" ry="4.5" fill="#4BFF17" stroke="#33AF00" stroke-linecap="round" stroke-linejoin="round" stroke-miterlimit="10" stroke-width="2.125"/><ellipse cx="113.17" cy="24.83" rx="5" ry="4.5" fill="#FF17C8" stroke="#B9008D" stroke-linecap="round" stroke-linejoin="round" stroke-miterlimit="10" stroke-width="2.125"/><circle cx="86.5" cy="75.21" r="19.05" fill="#fff"/><path d="M86.5 60.16c8.3 0 15.05 6.75 15.05 15.05S94.8 90.26 86.5 90.26s-15.05-6.75-15.05-15.05S78.2 60.16 86.5 60.16m0-4c-10.52 0-19.05 8.53-19.05 19.05s8.53 19.05 19.05 19.05 19.05-8.53 19.05-19.05-8.52-19.05-19.05-19.05z" fill="#EB8F00"/><path d="M86.5 68.44c-3.68 0-6.67 2.19-6.67 6.77 0 4.59 2.99 6.77 6.67 6.77s6.67-2.19 6.67-6.77c0-4.59-2.98-6.77-6.67-6.77z" fill="#242424"/><circle cx="41.49" cy="75.13" r="19.05" fill="#fff"/><path d="M41.49 60.08c8.3 0 15.05 6.75 15.05 15.05s-6.75 15.05-15.05 15.05-15.05-6.75-15.05-15.05 6.75-15.05 15.05-15.05m0-4c-10.52 0-19.05 8.53-19.05 19.05s8.53 19.05 19.05 19.05 19.05-8.53 19.05-19.05-8.53-19.05-19.05-19.05z" fill="#EB8F00"/><path d="M41.49 68.36c-3.68 0-6.67 2.19-6.67 6.77 0 4.59 2.99 6.77 6.67 6.77s6.67-2.19 6.67-6.77c-.01-4.59-2.99-6.77-6.67-6.77zM77.82 104.94c0 5.6-6.19 8.89-13.82 8.89s-13.82-3.29-13.82-8.89S56.37 93.25 64 93.25s13.82 6.09 13.82 11.69z" fill="#242424"/></svg>