<svg viewBox="0 0 128 128" xmlns="http://www.w3.org/2000/svg" xmlns:xlink="http://www.w3.org/1999/xlink"><defs><path id="a" d="M4 4h120v120H4z"/></defs><clipPath id="b"><use xlink:href="#a"/></clipPath><g clip-path="url(#b)"><linearGradient id="c" x1="64" x2="64" y1="77.9" y2="130.3" gradientUnits="userSpaceOnUse"><stop stop-color="#00BFA5" offset="0"/><stop stop-color="#00B29A" offset=".7"/><stop stop-color="#00AB94" offset="1"/></linearGradient><path d="M13.5 130.5v-9.4c0-16.3 25.4-23.6 50.5-23.6h.1c25 0 50.4 8 50.4 23.6v9.4h-101z" fill="url(#c)"/><path d="M64.1 99c13 0 25.5 2.2 34.4 6 6.6 2.8 14.5 8 14.5 16v8H15v-8c0-15.1 24.6-22 49-22h.1m0-3H64c-25.5 0-52 7.3-52 25v11h104v-11c0-16.7-26.3-25-51.9-25z" fill="#009984"/></g><g clip-path="url(#b)"><path d="M63.2 107.2c-4 0-7.3-3.2-7.3-7.1v-9h16.2v9c0 4-3.3 7.1-7.3 7.1h-1.6z" fill="#E59600"/><path d="M71 92v8c0 3.5-2.7 6.2-6.2 6.2h-1.6a6.2 6.2 0 0 1-6.3-6.1v-8h14.2m2-2H54.9v10c0 4.5 3.7 8.1 8.3 8.1h1.6c4.6 0 8.3-3.6 8.3-8.1V90z" fill="#D18100"/></g><g clip-path="url(#b)"><path d="M36.7 72.3c-5.4 0-9.7-4.7-9.7-10.4s4.3-10.5 9.7-10.5h54.6c5.4 0 9.7 4.7 9.7 10.5s-4.3 10.4-9.7 10.4H36.7z" fill="#E59600"/><path d="M91.3 52.4c4.8 0 8.7 4.3 8.7 9.4s-3.9 9.5-8.7 9.5H36.7c-4.8 0-8.7-4.3-8.7-9.5s3.9-9.4 8.7-9.4h54.6m0-2H36.7c-6 0-10.7 5.2-10.7 11.4 0 6.3 4.8 11.5 10.7 11.5h54.6c6 0 10.7-5.2 10.7-11.5 0-6.2-4.8-11.4-10.7-11.4z" fill="#D18100"/></g><g clip-path="url(#b)"><linearGradient id="d" x1="64" x2="64" y1="94.6" y2="12.8" gradientUnits="userSpaceOnUse"><stop stop-color="#FFB300" offset="0"/><stop stop-color="#FFB809" offset=".1"/><stop stop-color="#FFC21A" offset=".4"/><stop stop-color="#FFC825" offset=".7"/><stop stop-color="#FFCA28" offset="1"/></linearGradient><path d="M64 95.3c-15.7 0-32.5-12.2-32.5-38.8 0-12.4 3.5-23.8 10-32.2 6-7.8 14.3-12.2 22.5-12.2s16.4 4.4 22.5 12.2c6.5 8.4 10 19.8 10 32.2a42 42 0 0 1-10.1 29.2A30.5 30.5 0 0 1 64 95.3z" fill="url(#d)"/><path d="M64 13c8 0 15.8 4.4 21.7 12a51.5 51.5 0 0 1 9.8 31.5c0 11.8-3.4 21.7-9.8 28.5a29.6 29.6 0 0 1-43.3 0 40.5 40.5 0 0 1-10-28.5 51.3 51.3 0 0 1 10-31.5A28.1 28.1 0 0 1 64 13m0-2c-17.4 0-33.5 18.7-33.5 45.5C30.5 83 47 96.3 64 96.3S97.5 83 97.5 56.5C97.5 29.7 81.4 11 64 11z" fill="#ED9E00"/></g><g clip-path="url(#b)"><path d="M40 50.7l.4-.5.2-.2.4-.4c.2 0 .2-.2.4-.4l.5-.3.5-.4.6-.3.7-.3c.3 0 .4-.2.7-.3l1.5-.3 1.6-.2a5 5 0 0 1 1.7.2l1.5.3a8.6 8.6 0 0 1 1.4.6l.6.3.5.4.5.3.4.4.3.3.3.3.4.5c.5.7.4 1.7-.3 2.2-.4.3-1 .4-1.4.2H53l-.5-.3h-.3l-.3-.2-.7-.2-.4-.2h-.4l-.2-.1H50l-.4-.2h-1l-1-.1h-1l-1 .1-.6.1h-.2l-.2.1-.4.1-.4.2h-.4l-.3.2h-.3l-.3.2-.5.3c-.9.3-1.8 0-2.1-.9-.3-.5-.2-1 0-1.5zm46 2.4l-.5-.2-.3-.2h-.3l-.3-.2h-.3l-.4-.2-.5-.1h-.2L83 52l-.5-.1-1-.1h-3l-.5.2h-.5l-.4.2-.4.1c-.3 0-.5.2-.7.3h-.3l-.3.2-.4.2h-.3c-.8.4-1.7 0-2-.9-.2-.5-.1-1 .2-1.4l.4-.6.3-.3.3-.3.4-.3.5-.4.5-.3.6-.4c.3 0 .5-.2.7-.3l.7-.2 1.6-.4 1.6-.1 1.6.1c.5 0 1 .2 1.6.4a8.6 8.6 0 0 1 1.3.5l.6.4.6.3.4.4.5.3c.2.1.2.3.3.4l.3.3.3.5c.5.7.3 1.7-.4 2.2-.5.3-1 .3-1.6.1z" fill="#6D4C41"/><path d="M67.9 68h-7.7c-.7.3-1 1-.7 1.7s1.7 2.7 4.5 2.7 4.3-2 4.6-2.7c.3-.7-.1-1.4-.7-1.6z" fill="#E59600"/></g><g clip-path="url(#b)"><radialGradient id="e" cx="64.3" cy="4.3" r="48.9" gradientUnits="userSpaceOnUse"><stop stop-color="#6D4C41" offset="0"/><stop stop-color="#543930" offset="1"/></radialGradient><path d="M64 4c-45.5.3-36.2 52.2-36.2 52.2L33 65a90 90 0 0 1 4.8-25.6 6 6 0 0 1 6.8-3.8c4.5.8 11.6 1.8 19.4 1.8h.1c8 0 15-1 19.4-1.8a6 6 0 0 1 6.8 3.8A90 90 0 0 1 95 65l5.1-8.8s9.3-52-36-52.2z" fill="url(#e)"/><path d="M64 4c-45.5.3-36.2 52.2-36.2 52.2L33 65l.3-5-2.5-4.8c-.2-1.6-.9-7-.5-13.6.4-7 2.1-17 8.2-24.2C44.1 10.6 52.7 7 64 7s20 3.6 25.6 10.4c10.8 13 8.2 34.3 7.7 37.8l-2.5 4.6c.2 2 .3 3.7.2 5.2l5.1-8.8s9.3-52-36-52.2z" fill="#3F2720"/></g><g clip-path="url(#b)"><linearGradient id="f" x1="71.5" x2="71.5" y1="149.5" y2="182.5" gradientUnits="userSpaceOnUse"><stop stop-color="#651FFF" offset="0"/><stop stop-color="#5914F2" offset=".7"/><stop stop-color="#530EEB" offset="1"/></linearGradient><path d="M21 182.5V173c0-17.3 27.2-23.5 50.5-23.5h.1c13.4 0 25.9 2.1 35 6 7 3 15.4 8.5 15.4 17.5v9.5H21z" fill="url(#f)"/><path d="M71.6 151c24.3 0 48.9 7.5 48.9 22v8h-98v-8c0-7 4.9-12.5 14.5-16.4 8.8-3.6 21-5.6 34.5-5.6h.1m0-3h-.1c-25.7 0-52 7.1-52 25v11h104v-11c0-16.9-26.1-25-51.9-25z" fill="#4A00ED"/></g><path d="M82 128L64.2 79.7l5.4-2.5c8.8-4.3 5.1-11.2 4.7-15.8-.2-2.8.6-8.3 2.3-10 1.6-1.5-.2-3.5-1.1-3.8-1.1-.5-2.9 0-4.4 1.8s-1 4.5-1.6 6c-.3.6-1 .6-1.2 0l-6.7-16c-.7-1.6-2.3-2.6-3.9-1.7-1.2.7-1.5 2.3-.9 3.7l4.3 11.5-.1.4c-.2 0-.4 0-.4-.2l-7-12.5c-.6-1.3-1.9-2.2-3.2-1.8-1.7.6-2 2.4-1.2 4l6.2 12.8c.2.3 0 .7-.2.8-.3.2-.7.1-.9-.2l-6.2-9.9c-.8-1.3-2.2-2.4-3.8-1.5s-1.3 2.4-.5 3.9c.6 1.2 4.6 8 5.8 9.8.1.3 0 .7-.3.9-.2.2-.6.1-.8-.1l-4.1-5c-1-1.3-2.2-2-3.5-1.3-1.5.8-1.7 2.6-.6 4l6.2 9.2 5.5 8.3a16 16 0 0 0 3.6 4l17 49.5H82z" clip-path="url(#b)" fill="#4E342E" opacity=".3"/><g clip-path="url(#b)"><path d="M67.8 68h-7.6c-.6.3-1 1-.7 1.7s1.7 2.6 4.5 2.6 4.2-2 4.5-2.6c.3-.7 0-1.4-.7-1.7z" fill="#E59600"/><path d="M47.6 60.3c-2 0-3.9-.5-5.1-1.3-.6-.3-1-.1-.8.5.3 2.5 2.9 4.4 6 4.4 3 0 5.5-2 5.9-4.4 0-.6-.2-.8-.8-.5a10 10 0 0 1-5.2 1.3zm32.7 0c-2.1 0-4-.5-5.2-1.3-.6-.3-.9-.1-.8.5.4 2.5 2.9 4.4 6 4.4 3 0 5.5-2 5.9-4.4.1-.6-.2-.8-.8-.5a10 10 0 0 1-5.1 1.3z" fill="#404040"/><path d="M73.8 81.8c0 1-4.4 1.2-9.9 1.2s-10-.2-10-1.2S58.4 80 64 80s10 .6 10 1.7z" fill="#795548"/></g><g clip-path="url(#b)"><radialGradient id="g" cx="54.7" cy="-16.9" r="33.7" gradientTransform="rotate(-27.4 184.1 7.6)" gradientUnits="userSpaceOnUse"><stop stop-color="#FFCA28" offset=".4"/><stop stop-color="#FFB300" offset=".9"/></radialGradient><path d="M80.2 44.3c-1-.4-2.8 0-4.4 1.9s-1 4.4-1.6 6c-.2.6-1 .6-1.2 0l-6.7-16c-.7-1.7-2.3-2.6-3.8-1.8-1.3.7-1.5 2.3-1 3.7l4.3 11.5c.1.2 0 .4 0 .4l-.5-.1-6.9-12.5c-.7-1.4-2-2.3-3.3-1.8-1.7.5-2 2.4-1.2 4l6.2 12.7c.2.3.1.7-.2.9-.3.2-.6 0-.8-.3L52.9 43c-.8-1.2-2.3-2.4-3.8-1.4s-1.3 2.4-.6 3.8l5.8 9.9c.2.3 0 .7-.2.8-.3.2-.6.1-.8 0L49 51c-1-1.3-2.2-2-3.4-1.3-1.6.9-1.7 2.6-.6 4.1l6.2 9.1 5.4 8.3c4.2 6.4 8.7 6.5 9.6 6.3 1.3-.3 6.5-2.8 8-3.6 8.9-4.2 5.2-11.1 4.8-15.7-.3-2.9.5-8.4 2.2-10s-.2-3.6-1-3.9z" fill="url(#g)" stroke="#EDA600" stroke-linecap="round" stroke-linejoin="round" stroke-miterlimit="10" stroke-width="2"/></g><g clip-path="url(#b)"><defs><path id="h" d="M109.4 128H78.6l-17-46.6a3 3 0 0 1 1.4-4L79.6 70a3 3 0 0 1 3.9 1.3l23.5 41-4.7 2.5 7 13.1z"/></defs><clipPath id="i"><use xlink:href="#h"/></clipPath><g clip-path="url(#i)"><linearGradient id="j" x1="88.1" x2="88.1" y1="75.9" y2="130.1" gradientUnits="userSpaceOnUse"><stop stop-color="#00BFA5" offset="0"/><stop stop-color="#00B29A" offset=".7"/><stop stop-color="#00AB94" offset="1"/></linearGradient><path d="M79.6 126.5L63 80.9l-.1-.1c-.2-.4-.2-.8 0-1.2s.4-.7.7-.8l16.6-7.3.6-.2c.6 0 1 .3 1.3.8l31.3 54.4H79.6z" fill="url(#j)"/><path d="M80.8 72.8v.1l30 52.1H80.6L64.3 80.4V80l16.5-7.3m0-3l-1.2.3L63 77.4a3 3 0 0 0-1.5 4l17 46.6H116L83.5 71.4a3 3 0 0 0-2.7-1.6z" fill="#009984"/></g></g></svg>