<svg xmlns="http://www.w3.org/2000/svg" viewBox="0 0 36 36"><ellipse fill="#AF7E57" cx="18.6" cy="5" rx="2.6" ry="3"/><path fill="#60352A" d="M15.6 3.2s.2-1-1.2-1.1C13.2 2 12.9 3.3 12 3.7c-.7.4-1.4.4-2 0 0 0 .8 1 1.6 1.2 1 .5 2.3.2 3-.1.9-.6 1-1.6 1-1.6z"/><path fill="#DD2E44" d="M18 33.4a1 1 0 0 1-1-1v-3a1 1 0 1 1 2 0v3c0 .5-.5 1-1 1zm-9.5 1a1 1 0 0 1-1.4-1.1l.7-2.8a1 1 0 0 1 2 .5L9 33.8c0 .3-.3.5-.6.6z"/><path fill="#AF7E57" d="M19.7 9.1l-.4-4c0-.5-.6-.9-1.1-.8a1 1 0 0 0-1 1l.5 3.7H13L7.2 6.1a1 1 0 1 0-.3 2l5.4 2.8.7.1h2.7l.3 1 3 8c2.2 0 2.6-4.7 2.6-7.2 0-.6.3-.8.2-1.1 1.2-.2 1.4.3 1.9.5 0 0-1.8-3.3-4-3z"/><path fill="#AF7E57" d="M14.2 26.1c-.5-.4-.6-1-.2-1.6l4.8-7.3a1.2 1.2 0 1 1 2 1.3L16 26a1.2 1.2 0 0 1-1.8.2z"/><path fill="#AF7E57" d="M8.6 31a1 1 0 0 1 .1-1.3l5.4-5c.4-.4 1.1-.3 1.5.1.4.5.4 1.2 0 1.6l-5.4 5c-.4.3-1 .3-1.5-.2v-.1zm8.9-1.7a1 1 0 0 1 .4-1.2l5.8-3.4c.4-.2 1 0 1.3.5.2.5.1 1.1-.3 1.4l-5.8 3.3c-.5.3-1 0-1.3-.4l-.1-.2z"/><path fill="#AF7E57" d="M24.3 26.6c-.5.2-1.1 0-1.4-.5l-3.7-7.3a1.2 1.2 0 1 1 2-1L25 25a1.2 1.2 0 0 1-.7 1.6zm0-13.6l-3.8-2a1 1 0 0 1 .9-1.7l3.8 2c.4.3.6.9.4 1.3a1 1 0 0 1-1.3.4z"/><path fill="#AF7E57" d="M30 13.9l-5.2-.8a1 1 0 0 1-.8-1c0-.6.5-1 1-.9l5.3.8c.6.1 1 .6.8 1 0 .6-.5 1-1 .9z"/><path fill="#60352A" d="M21.3 5l.4-1.3c.3-.8-.5-1.9-1.4-2.5-.7-.5-2.5-.7-3.7 0-1.3.7-1.7 2-1.4 3.3a5 5 0 0 0 1.3 2.4s.4-1.1.2-1.1c-.3 0-.5-1.1-.2-1.4.3-.3.6 0 .7.3l.2 1.1s0-1 .3-1.4c.3-.3 1.7-.2 2.3-1.7 0 0 .5.2.9.7.3.5.4 1.6.4 1.6z"/><path fill="#A0041E" d="M16.5 18l-1 2.8c-.3.9-.9 1.8-.9 1.8s1.7 1.5 3 1.5l1.9-2.8 1.7 2.4s1.7-1.2 2.8-1.5l-1.8-3.7L21 17l-4.5 1z"/><path fill="#DD2E44" d="M15.5 8.8l1.8.1s.1.8 1.4.9c1.3 0 1.6-.7 1.6-.7s1 .1 1.7.6l1.8 1s-1 .8-.6 1.7l-1-.4s.2.6.1 1c0 .5-.4.8-.5 1.2-.1 1 .3 3.9.5 4.2 0 0-1.3-.3-3.2-.1-1.2.1-3.1 1-3.1 1 0-.9.6-2.9.7-4 .1-1-.8-4-1.4-4l-1.1-.2V9.9l-.3-1 1.6-.1z"/><circle fill="#269" cx="5" cy="8" r="2"/></svg>