<svg xmlns="http://www.w3.org/2000/svg" viewBox="0 0 36 36"><path fill="#4289C1" d="M27 21H9a4 4 0 0 0-4 4v11h26V25a4 4 0 0 0-4-4z"/><path fill="#2A6797" d="M10 27h1v9h-1z"/><path fill="#583529" d="M4.7 26.5h-.8v-.2a1 1 0 0 1-.4-1 1 1 0 0 1 1.2-.9l2 .5h1.7c.9 0 1.6.7 1.6 1.5V28H6.3s-1.5-.7-1.6-1.5z"/><path fill="#7C533E" d="M0 25.7c0-.5.3-.8.8-.8l4.7.8h3.7c.5 0 .8.3.8.7V28H5L.8 26.4s-.8-.3-.8-.7z"/><path fill="#4289C1" d="M4 36h6v-8H5z"/><path fill="#2A6797" d="M25 27h1v9h-1z"/><path fill="#583529" d="M31.3 26.5h.8v-.2c.3-.2.5-.7.4-1a1 1 0 0 0-1.2-.9l-2 .5h-1.7c-.9 0-1.6.7-1.6 1.5V28h3.7s1.5-.7 1.6-1.5z"/><path fill="#7C533E" d="M36 25.7c0-.5-.3-.8-.8-.8l-4.7.8h-3.7c-.5 0-.8.3-.8.7V28h5l4.2-1.6s.8-.3.8-.7z"/><path fill="#4289C1" d="M32 36h-6v-8h5z"/><path fill="#7C533E" d="M9 7v10a9 9 0 1 0 18 0V7H9z"/><path fill="#7C533E" d="M10.8 13.7c0 1.6-.8 2.9-1.7 2.9s-1.8-1.3-1.8-2.9C7.3 12.1 8 11 9 11s1.7 1.2 1.7 2.8zm18 0c0 1.6-.9 2.9-1.9 2.9s-1.7-1.3-1.7-2.9c0-1.6.8-2.8 1.7-2.8s1.8 1.2 1.8 2.8z"/><path fill="#0B0200" d="M18 .8C11 .8 7.9 5.5 7.9 9.4c0 4 1.3 5 1.5 4 .8-4 3.1-5.2 3.1-5.2 4.7 4 4 .8 4 .8 4.6 4.7 2.3 0 2.3 0 1.5 1.6 6.2 1.6 6.2 1.6l1.6 2.7c.8 1.6 1.5 0 1.5-3.9S24.2.8 18 .8z"/><path fill="#3D2E24" d="M19 19.5h-2a.5.5 0 0 1 0-1h2a.5.5 0 0 1 0 1zm1.5 3.5H20a.5.5 0 0 1 0-1h.5a.5.5 0 0 1 0 1z"/><path d="M14 16a1 1 0 0 1-1-1v-1a1 1 0 0 1 2 0v1c0 .6-.4 1-1 1zm8 0a1 1 0 0 1-1-1v-1a1 1 0 1 1 2 0v1c0 .6-.4 1-1 1z"/></svg>