<svg xmlns="http://www.w3.org/2000/svg" viewBox="0 0 36 36"><path fill="#F3D2A2" d="M23.5 29c-1-1.3-.7-3 .5-4 1.2-.7 2.9-.3 3.8 1 1 1.4.8 3.2-.4 4-1.2.8-3 .4-3.9-1z"/><path fill="#DD2E44" d="M33.1 3c0-.6-.4-1-1-1h-3a1 1 0 1 0 0 2h3c.6 0 1-.5 1-1zM5 8.4l-.1-.7a1 1 0 0 0-1.4-.4L1 8.7a1 1 0 0 0 1 1.7l2.5-1.3.5-.7z"/><path fill="#F3D2A2" d="M24.3 23.5L26 27a1 1 0 0 1-.4 1.4 1 1 0 0 1-1.3-.4l-1.8-3.2-2.3 1.6-.4-2.1a387.8 387.8 0 0 0-2.5-9.2c1.9-1.3 4.9 2.3 6.3 4.3.4.5.7.5.8.8 1-.5.8 1.4 1.2 1 0 0 .4 1.3-1.4 2.3z"/><path fill="#F3D2A2" d="M10 12.7c-.2.6.1 1.3.7 1.5l8.2 3.3a1.2 1.2 0 0 0 .9-2.3l-8.1-3.3a1.2 1.2 0 0 0-1.7.8z"/><path fill="#F3D2A2" d="M3.7 8.5c-.2.5 0 1 .4 1.4l6.2 3.9c.5.3 1.1.1 1.5-.4.3-.6.1-1.2-.3-1.6L5.3 8c-.5-.3-1.2-.1-1.5.4v.2zm25.4-6c-.5-.2-1 0-1.3.4l-3.3 5.8c-.2.5 0 1 .5 1.3.5.3 1.1.2 1.4-.3l3.3-5.8c.3-.5 0-1-.5-1.3h-.1z"/><path fill="#F3D2A2" d="M26 8.3c-.3-.4-1-.4-1.4 0l-6.2 5.4c-.5.4-.5 1.1-.1 1.6s1.1.5 1.6.1l6.2-5.3a1.2 1.2 0 0 0 0-1.8zm4 12.1h-4.4a1 1 0 0 0-1 1c0 .5.5 1 1 1H30c.5-.1 1-.5 1-1-.1-.6-.5-1-1-1z"/><path fill="#F3D2A2" d="M35.4 22.3l-5.1-1.7a1 1 0 0 0-.6 1.8l5 1.7c.6.1 1.1-.1 1.3-.6a1 1 0 0 0-.6-1.2z"/><path fill="#FFE51E" d="M29 26.9l-1.2-.9s.6 1 .6 1.6c0 .6-.3 1-.3 1-1.3-.8-2.4 0-2.9 0-.4-.1-1-1-1-1l.5 1c0 .3 0 .7-.4.7s-.9-1-.6-1.3c.2-.1-.8-.8-.8-.8s-.3 1.6.2 2.7l.1.2a2 2 0 0 0-.7 0c-.7 0-2 .6-2.5 1.5-.5.7-.6 1.9-.6 1.9.2-.6.8-1 1.6-1.1 1-.1 2 .8 2.9 0 .4-.3.5-.7.6-1 .5.4 1 .5 1.7.4a4 4 0 0 0 3-2c.4-1.1.4-2.4-.2-3z"/><path fill="#A0041E" d="M16.6 18.1L14 16.4c-.7-.6-1.7-1-1.7-1s.6-2.2 1.7-3l3.4.8 3.7-2.2s1.7 1 2.4 2L21 14.8c.4.5-.3 1.6-.3 1.6l-4.2 1.8z"/><path fill="#F3D2A2" d="M17.6 28.2l1.8-3.9a1 1 0 0 1 1.7.8l-1.8 4a1 1 0 0 1-1.2.4 1 1 0 0 1-.5-1.3z"/><path fill="#F3D2A2" d="M17 34l.5-5.3a1 1 0 0 1 2 .2l-.6 5.3c0 .5-.5 1-1 .9a1 1 0 0 1-.9-1z"/><path fill="#DD2E44" d="M21.4 25.8l1-.7s-.4-.8.6-1.5c1-.8 1.7-.4 1.7-.4l1-.2 1.2-.3s0-1.6-.3-2.6h-2s-.1-1-.5-1.3c-.3-.2-.8-.3-1-.6-.7-.8-1.9-3.1-2-3.5 0 0-1 .8-2.6 1.7-1 .5-3.1 1-3.1 1l2.8 2.8c.7.7 1.6 3.6 1.2 4.1-.5.5-1 1.6-1 1.6l1 .8c.5.5 1 .6 1 .6l1-1.5z"/></svg>