<svg viewBox="0 0 128 128" xmlns="http://www.w3.org/2000/svg" xmlns:xlink="http://www.w3.org/1999/xlink"><linearGradient id="a" x1="57.1" x2="74.1" y1="108.5" y2="108.5" gradientUnits="userSpaceOnUse"><stop stop-color="#CCA47A" offset="0"/><stop stop-color="#D6B088" offset=".3"/><stop stop-color="#DEB892" offset=".6"/><stop stop-color="#E0BB95" offset="1"/></linearGradient><path d="M59 124c-1 0-2-.8-2-1.3 0-.6 1.2-1.1 2-1.3l9-1c.3 0 .5 0 .5-.3L67.7 93H74l-.9 28.5c0 1.4-1 2.5-2.3 2.5h-12z" fill="url(#a)"/><path d="M74 93l-1 28c0 1.1-1.1 2-2.1 2h-12c-.7 0-1.3-.4-1.3-.5 0-.1.2-.4 1.5-.7l9-1c.5 0 1-.5.9-1L68.2 93H74m.6-1zm0 0h-7.4l.8 27.8-9 1c-1.5.3-2.4.8-2.4 1.7s1.1 1.5 2.4 1.5h11.9c1.5 0 3.1-1.4 3.1-3l.7-29h-.1z" fill="#BA8F63"/><linearGradient id="b" x1="88.3" x2="121.5" y1="78.7" y2="90.7" gradientUnits="userSpaceOnUse"><stop stop-color="#FFB300" offset="0"/><stop stop-color="#FFCA28" offset=".8"/></linearGradient><ellipse cx="85.1" cy="77.6" rx="3.7" ry="3.8" fill="url(#b)"/><path d="M113.6 87.7c-.2-.1-.3 0-.2.2 1 .8 1.4 2.1 1.1 3.4 0 .1.1.1.2 0h.4c0-1.3-.6-2.7-1.5-3.6z" fill="#EDA600"/><linearGradient id="c" x1="81.2" x2="123" y1="84.2" y2="84.2" gradientUnits="userSpaceOnUse"><stop stop-color="#CCA47A" offset="0"/><stop stop-color="#D6B088" offset=".3"/><stop stop-color="#DEB892" offset=".6"/><stop stop-color="#E0BB95" offset="1"/></linearGradient><path d="M122.3 88l-3.3-1.3a.2.2 0 0 1 0-.2c0-.1 0-.2.2-.1l2 .4c.4.1.8 0 1-.4.3-.5 0-1-.6-1.1l-3.2-1-3-1c-.4-.2-1.2-.3-2 0l-9.9-5-.9-.4-16.8-4c-2-.4-4 .9-4.5 2.9s.7 4 2.7 4.4l16.8 3.2 10 3.8c0 1.5 1.2 2.2 1.5 2.7.6.8 1.4 2.3 1.3 3 0 .4.7.8 1 .7.3-.1.7-.6.8-1.3 0-.4-.6-1.3-.7-1.8v-.2h.2l4.7 2.7c.5.3 1.1.2 1.3-.4.2-.4 0-.8-.4-1l-3-2.3 4 1.8c.4.2.8.2 1-.2.4-.5.1-1-.4-1.3l-4-2s-.1-.1 0-.2l.2-.1 3.4 1.3c.4.2 1 .1 1.2-.4.2-.6-.1-.9-.6-1.1z" fill="url(#c)"/><path d="M114.5 95c-.4 0-.7 0-1-.3-.2-.2-.4-.5-.3-.9a8 8 0 0 0-1.2-2.6l-.3-.3a4.1 4.1 0 0 1-1.3-2.3l-9.7-3.8-16.7-3a4.2 4.2 0 0 1-3.1-5.1 4.2 4.2 0 0 1 5-3.3l16.8 4 1 .4 9.7 5c1-.4 1.9-.2 2.2 0l3 1 3.2 1c.4.1.7.4.9.8.2.3.2.7 0 1-.1.3-.4.7-.9.7l.7.4c1.2.5 1 1.3.9 1.7-.2.4-.6.7-1.1.8.5.2.8.5.9 1 0 .3 0 .7-.2 1-.4.6-1 .7-1.7.4.2.3.3.8.1 1.3-.1.3-.4.6-.8.7-.4.1-.8 0-1.2-.2l-3.9-2.2.4 1.2c-.2.8-.6 1.5-1.2 1.7h-.2zM84.3 80.9l16.7 3 10 4c.2 0 .3.2.3.4 0 1 .6 1.6 1 2l.5.4c.4.6 1.5 2.4 1.4 3.4h.3s.3-.2.4-.8l-.3-.7-.4-.9c0-.2 0-.5.2-.7h.1l.4-.2h.2l.2.1 4.6 2.7.4.1.2-.2c0-.1 0-.3-.3-.5-3.1-2.3-3.1-2.3-3.1-2.6a.5.5 0 0 1 .7-.4l4 1.7c.3.2.4 0 .4 0v-.2c0-.1-.1-.3-.3-.3l-4-2a.7.7 0 0 1-.3-.8v-.1c0-.2.2-.3.4-.4h.5s3 1 3.4 1.3c.1 0 .5.1.6-.1 0-.1 0-.3-.3-.5l-3.3-1.3a.7.7 0 0 1-.4-.9c.1-.3.5-.5.8-.4l2 .4h.5V86c0-.1-.1-.2-.3-.2l-3.3-1.1-2.9-1c-.2-.1-1-.3-1.7 0-.1.2-.3.2-.4 0l-9.9-5c-.3-.2-.5-.3-.8-.3l-16.7-4c-.9-.2-1.8 0-2.5.4s-1.2 1.2-1.4 2c-.4 1.8.7 3.6 2.4 4z" fill="#BA8F63"/><linearGradient id="d" x1="43.7" x2="88.2" y1="31.1" y2="97.9" gradientUnits="userSpaceOnUse"><stop stop-color="#00BFA5" offset="0"/><stop stop-color="#00B29A" offset=".7"/><stop stop-color="#00AB94" offset="1"/></linearGradient><path d="M67 96l-.1-8.2c0-.6.1-1.4.3-1.8v-.5l-.6-.6-13-19.1L71 53.6l13 19 .4.6.4.2.8.1 7.5 1.8-1.7 7.6-7.5-1.4h.1-.3l-.4.1-.4.4a3 3 0 0 1-.6.6l-6 4.2-.4.3-.7.5c-.2.1-.3.3-.3.5l-.2 7.9H67z" fill="url(#d)"/><path d="M70.9 54.3L83.6 73c.2.1.2.3.3.4.2.4.5.5.9.6h.6l7 1.7-1.4 6.6-7-1.3h-.4a1 1 0 0 0-1 .5v.2l-.5.5-6 4.2-.4.3-.7.5c-.3.1-.5.7-.6 1.1l-.1 7.7h-6.6l-.2-8 .2-1.7c.2-.3.1-.8-.1-1l-.5-.7L54.3 66l16.6-11.6m.2-1.4L53 65.6l13.3 19.6.5.6a8 8 0 0 0-.3 2.3l.2 8.9h8.5l.2-8.7c.5-.2.9-.7 1.3-1l6-4.3c.4-.3.4-.7.7-1H83h.5l8.3 1.5 1.8-8.5-8-2h-.8l-.3-.6L71 52.9z" fill="#009984"/><ellipse cx="66.5" cy="57.5" rx="6" ry="6.1" fill="#FAC01B"/><linearGradient id="e" x1="60.7" x2="85.5" y1="31.8" y2="31.8" gradientUnits="userSpaceOnUse"><stop stop-color="#CCA47A" offset="0"/><stop stop-color="#D6B088" offset=".3"/><stop stop-color="#DEB892" offset=".6"/><stop stop-color="#E0BB95" offset="1"/></linearGradient><path d="M85.5 6.7c0-1-.7-1.1-2-1.2L74 4.6a3 3 0 0 0-3.2 2.8l-.4 3.7-2.9 22.2L60.7 56l11.7 3 5-23.3 1.5-22.4 1-.3c.5 0 2 .5 2.4-.2.3-.6-.2-.9-.3-1 .2.1.8.2 1-.3.3-.7-.4-1-.4-1s1 .2 1.2-.4c.3-.7-.6-1-.6-1s1.2.2 1.3-.5c.2-.5-.1-.8-.4-1 .7.1 1.4-.1 1.4-1z" fill="url(#e)"/><path d="M72.4 59.6h-.2l-11.7-3.1a.5.5 0 0 1-.3-.7l6.7-22.7 2.9-22v-.3l.4-3.5A3.6 3.6 0 0 1 74 4.1l9.6.9c1.2.1 2.4.2 2.4 1.7A1.4 1.4 0 0 1 85 8c.1.3.1.5 0 .8a1 1 0 0 1-.6.7l-.1.8c-.2.3-.4.5-.7.6l-.1.8c-.1.3-.4.5-.6.6 0 .2 0 .4-.2.7-.4 1-1.8.7-2.5.6h-.3l-.5.1-1.5 22-5 23.5-.3.3h-.2zm-11.1-4L72 58.4l5-22.8 1.4-22.3c0-.2.1-.4.3-.4l1-.4h.6c1 .2 1.4.2 1.5 0s0-.2 0-.2c-.2 0-.4-.4-.3-.6s.4-.4.6-.3l.5-.1c0-.1 0-.2-.2-.3a.5.5 0 0 1 .3-1s.6.1.7-.1v-.1l-.3-.3c-.3 0-.4-.3-.4-.6s.4-.4.6-.3l.8-.1c0-.2 0-.3-.2-.4a.5.5 0 0 1-.3-.6c0-.2.3-.4.5-.3.3 0 .6 0 .8-.2l.1-.4c0-.4 0-.5-1.5-.6l-9.6-1c-1.4-.1-2.6 1-2.7 2.3l-.4 3.7v.2l-2.9 22-6.6 22.4zm24.2-49z" fill="#BA8F63"/><ellipse cx="58.7" cy="62.8" rx="6" ry="6.1" fill="#FAC01B"/><linearGradient id="f" x1="12.5" x2="261.3" y1="48.3" y2="133.9" gradientUnits="userSpaceOnUse"><stop stop-color="#CCA47A" offset="0"/><stop stop-color="#D6B088" offset=".3"/><stop stop-color="#DEB892" offset=".6"/><stop stop-color="#E0BB95" offset="1"/></linearGradient><path d="M36.6 50.8l-21.1-8.2-3-1.8c-1.5-.6-2.8 0-3.4 1.6l-3.7 9c-.5 1.1-.7 1.8.2 2.3.7.3 1.3.2 1.5-.5 0 .3.1.4.7.6.7.1 1-.9 1-.9s-.2.8.6 1c.7 0 1-1 1-1s-.2.8.6.9c.5 0 .8-.9.8-1 0 .1-.1.8.5.8.8 0 1-1.6 1.2-2.1l.4-.9 20.3 10 .5.1 22.3 8 3.4-11.8-23.8-6.1z" fill="url(#f)" stroke="#BA8F63" stroke-linecap="round" stroke-linejoin="round" stroke-miterlimit="10"/><path d="M76.6 85.8c-.9-1-.7-2.6.3-3.5a2.4 2.4 0 0 1 3.5.3l1.4 1.7-3.8 3.2-1.4-1.7z" fill="#C48E6A"/><path d="M78.5 82.2a2 2 0 0 1 1.5.7l1 1.3-3 2.6-1-1.3a2 2 0 0 1 .2-2.8c.4-.4.8-.5 1.3-.5m0-1a3 3 0 0 0-2 .7 3 3 0 0 0-.3 4.2l1.8 2.1 4.5-3.8-1.8-2.1a3 3 0 0 0-2.2-1.1z" fill="#B07853"/><defs><path id="g" d="M69.5 93.4L89 76.8l16.3 19.7L86 113.2z"/></defs><clipPath id="h"><use xlink:href="#g"/></clipPath><g clip-path="url(#h)"><path d="M79.6 100c-.8 0-1.5-.4-2-1-1-1.2-1-2.9.1-3.8l11.6-10a3 3 0 0 1 1.6-.5c.8 0 1.5.4 2 1 1 1.2 1 2.8-.1 3.7l-11.6 10c-.5.4-1 .6-1.6.6z" fill="#C48E6A"/><path d="M90.9 85.2c.6 0 1.2.3 1.7.8.7 1 .7 2.3-.1 3l-1.6 1.4-8.5 7.3-1.6 1.3c-.3.3-.7.5-1.2.5-.6 0-1.2-.3-1.7-.9-.8-.9-.7-2.3.1-3l1.6-1.3 8.5-7.3 1.6-1.3c.3-.3.7-.5 1.2-.5m0-1c-.7 0-1.4.2-1.9.7l-1.6 1.3-8.4 7.3-1.6 1.3a3 3 0 0 0-.2 4.5c.6.7 1.5 1.2 2.4 1.2.7 0 1.4-.3 1.9-.7l1.6-1.4 8.4-7.2 1.6-1.4c1.3-1 1.4-3 .2-4.4a3.2 3.2 0 0 0-2.4-1.2z" fill="#B07853"/><linearGradient id="i" x1="-740.8" x2="-740.8" y1="-594.5" y2="-571.5" gradientTransform="rotate(139.8 -451.2 -93.2)" gradientUnits="userSpaceOnUse"><stop stop-color="#CCA47A" offset="0"/><stop stop-color="#D6B088" offset=".3"/><stop stop-color="#DEB892" offset=".6"/><stop stop-color="#E0BB95" offset="1"/></linearGradient><path d="M89.5 104.8c-3.4 0-7-2-9.8-5.3-4.7-5.7-3.4-11.2-.1-14 1.5-1.3 3.4-2 5.4-2 2 0 5.1.7 8.2 4.4 3.7 4.5 5.2 11.7 1 15.2a7.1 7.1 0 0 1-4.7 1.7z" fill="url(#i)"/><path d="M85 84c2 0 4.8.7 7.8 4.2 3.6 4.4 5 11.2 1.1 14.6a6.6 6.6 0 0 1-4.4 1.5 13 13 0 0 1-9.5-5.1c-2-2.5-3-5.2-2.9-7.7A8 8 0 0 1 85 84m0-1c-2.2 0-4.2.7-5.7 2-3.6 3.2-4.8 9 0 14.8 3 3.7 6.9 5.5 10.2 5.5 2 0 3.7-.6 5-1.8 3.8-3.2 3.9-10.1-1-16-2.7-3.2-5.7-4.5-8.5-4.5z" fill="#BA8F63"/><path d="M92.3 90.4v.9l-.1.1-.1.2-.1.2-.3.4-.3.3-.4.3-.4.2h-.2l-.2.1H89a.4.4 0 0 1 0-.8l.2-.1h.1l.2-.1h.1l.1-.1.3-.2.2-.1.2-.2.3-.2.1-.2.1-.1.1-.1v-.1l.1-.1.1-.1v-.1l.1-.1v-.2c.2-.2.5-.3.7-.2.2 0 .2.2.3.4zm-10.2 7.9l.2-.1h.2l.1-.1h.1l.1-.1.3-.1.2-.2.2-.2.2-.2.2-.2h.1V97h.1v-.2h.1l.1-.3.1-.1v-.1l.1-.1c.1-.2.4-.3.6-.2l.2.4v.6l-.1.2c-.1.1 0 .1 0 .2l-.2.2v.2l-.3.3-.3.3-.4.3-.4.2h-.2l-.2.1H83l-.2.1H82a.5.5 0 0 1-.3-.6c0-.2.2-.3.3-.3z" fill="#AB872F"/><g fill="#5D4037"><ellipse transform="rotate(-28.7 89.1 89.8)" cx="89.1" cy="89.8" rx="1.4" ry="1.4"/><ellipse transform="rotate(-28.7 82.1 95.8)" cx="82.1" cy="95.8" rx="1.4" ry="1.4"/></g><radialGradient id="j" cx="-747.7" cy="-601.9" r="8.6" gradientTransform="matrix(-.752 .6449 -.6346 -.7642 -849.1 126.5)" gradientUnits="userSpaceOnUse"><stop stop-color="#BFA055" offset="0"/><stop stop-color="#AB872F" offset="1"/></radialGradient><path d="M95.6 104.9c9.7-8.4-1.8-18-1.8-18l-2.5-.9c1.3 1.5 3 4.8 3.6 6.4.2.8 0 1.6-.8 2a32.2 32.2 0 0 0-8.2 7c-.5.7-1.5.9-2.2.3L78 97.5l.6 2.8s7.3 13 17 4.7z" fill="url(#j)"/><defs><path id="k" d="M95.6 104.9c9.7-8.4-1.4-17.8-1.4-17.8l-3-1.1c.4.3 1.3 1.8 1.3 1.8l1.6.4 3 6.1L94 103l-11.2.5-3.1-3.5-.5-1.6-1.2-1 .7 3s7.2 12.9 16.9 4.6z"/></defs><clipPath id="l"><use xlink:href="#k"/></clipPath><g clip-path="url(#l)"><path d="M94 88.3c1.2 1.2 4.6 4.8 4.6 9 0 2.4-1.3 4.8-3.7 6.8a9 9 0 0 1-5.9 2.6c-5 0-8.8-5.8-9.4-6.8l3.5 2.7a2.7 2.7 0 0 0 3.6-.5 30.6 30.6 0 0 1 7.9-6.8c1.1-.6 1.6-2 1.2-3.2-.3-1-1-2.4-1.8-3.8M91.3 86c1.3 1.5 3 4.8 3.6 6.4.2.8 0 1.6-.8 2a32.2 32.2 0 0 0-8.2 7 1.7 1.7 0 0 1-2.2.3L78 97.4l.6 2.8s4.2 7.4 10.4 7.4c2 0 4.2-.7 6.5-2.7 9.8-8.4-1.3-17.8-1.3-17.8l-3-1.1z" fill="#8F7635"/></g><path d="M80.3 90.6c.4-1 2.6-3 3.6-3 .6-.2.7-.9.2-1.1-.4-.2-2.3 0-3.4.9-1 .9-1.5 2.7-1.4 3.2.1.5.8.6 1 0z" fill="#795548"/><path d="M83.3 91.4L85 90c.1-.2.1-.4-.1-.5-.2 0-.8-.3-1.4.3s-.6 1.2-.5 1.4c0 .2.2.3.4.2z" fill="#C48E6A"/></g><linearGradient id="m" x1="55.7" x2="71.9" y1="51.3" y2="67.6" gradientUnits="userSpaceOnUse"><stop stop-color="#FFA000" offset="0"/><stop stop-color="#FF6F00" offset="1"/></linearGradient><path d="M55.8 69l-.3-.1-10.7-3.7 3.7-12.3 11 3h.1c.2 0 .4 0 .5-.3l3.4-12 12.3 3.2L73.5 57l.1.3 3 4.4-17.7 11.9-3.1-4.6z" fill="url(#m)"/><path d="M63.9 44.1l11.3 3-2.2 9.7c0 .3 0 .6.2.8l2.6 4L59 72.8l-2.8-4.2a1 1 0 0 0-.5-.3l-10.3-3.5 3.4-11.4 10.6 3h.2a1 1 0 0 0 1-.8L63.9 44m-.7-1.2l-3.6 12.6-11.4-3.3-4 13.3 11.2 3.8 3.3 5 18.5-12.5L74 57l2.4-10.7-13.2-3.5z" fill="#E66400"/></svg>