<svg viewBox="0 0 128 128" xmlns="http://www.w3.org/2000/svg" xmlns:xlink="http://www.w3.org/1999/xlink"><defs><path id="a" d="M4 4h120v120H4z"/></defs><clipPath id="b"><use xlink:href="#a"/></clipPath><g clip-path="url(#b)" stroke="#ccc" stroke-linecap="round" stroke-linejoin="round" stroke-miterlimit="10"><radialGradient id="c" cx="72.6" cy="396.5" r="5.1" gradientTransform="matrix(.7239 -.5157 .5503 .7726 -152 -202)" gradientUnits="userSpaceOnUse"><stop stop-color="#C4C4C4" offset="0"/><stop stop-color="#CBCBCB" offset=".3"/><stop stop-color="#DEDEDE" offset=".7"/><stop stop-color="#F5F5F5" offset="1"/></radialGradient><path d="M118.2 69.2l-2.7-7.4c-.4-.8.4-1.8 1.3-1.5.2 0 .5.4.6.5l3.2 7c.3.5.1 1-.3 1.4-.7.5-1.8.6-2.1 0z" fill="url(#c)" stroke-width=".8"/><linearGradient id="d" x1="107.8" x2="120.6" y1="80" y2="59.9" gradientUnits="userSpaceOnUse"><stop stop-color="#D9D9D9" offset="0"/><stop stop-color="#EDEDED" offset=".6"/><stop stop-color="#F5F5F5" offset="1"/></linearGradient><path d="M103.9 77.1s5.3-10.7 6.8-12.3c.7-.7 2.1-.1 2.3 1.2.2 1.7-2.3 6.3-2.3 6.3l3.7-1.6 4-4.5s0-7.7 1.7-7.7c1.3 0 1.3 1 1.5 2.2 0 1 .2 7.8 0 8.7s-9.6 10-9.6 10l-8-2.4z" fill="url(#d)" stroke-width=".9"/></g><g clip-path="url(#b)" stroke="#ccc" stroke-linecap="round" stroke-linejoin="round" stroke-miterlimit="10"><radialGradient id="e" cx="-962.9" cy="-294.7" r="5.1" gradientTransform="matrix(-.7239 -.5157 -.5503 .7726 -849.8 -202)" gradientUnits="userSpaceOnUse"><stop stop-color="#C4C4C4" offset="0"/><stop stop-color="#CBCBCB" offset=".3"/><stop stop-color="#DEDEDE" offset=".7"/><stop stop-color="#F5F5F5" offset="1"/></radialGradient><path d="M10 69.2l2.7-7.4c.4-.8-.5-1.8-1.4-1.5l-.5.5-3.3 7c-.2.5 0 1 .4 1.4.7.5 1.8.6 2.1 0z" fill="url(#e)" stroke-width=".8"/><linearGradient id="f" x1="-1022" x2="-1009.3" y1="79.7" y2="59.9" gradientTransform="matrix(-1 0 0 1 -1001.8 0)" gradientUnits="userSpaceOnUse"><stop stop-color="#D9D9D9" offset="0"/><stop stop-color="#EDEDED" offset=".6"/><stop stop-color="#F5F5F5" offset="1"/></linearGradient><path d="M23.9 77s-5-10.6-6.4-12.2c-.7-.7-2.1-.1-2.3 1.2-.2 1.7 2.2 6.3 2.2 6.3l-3.7-1.6-4-4.5s.2-7.7-1.6-7.7c-1.3 0-1.4 1-1.5 2.2 0 1-.2 7.8 0 8.7s9 9.7 9 9.7L24 77z" fill="url(#f)" stroke-width=".9"/></g><g clip-path="url(#b)"><circle cx="19.8" cy="44.1" r="7.5" fill="#ED412D"/><circle cx="17.6" cy="41.7" r="2.2" fill="#fff"/><path d="M19.8 37.6a6.5 6.5 0 1 1 0 13 6.5 6.5 0 0 1 0-13m0-1a7.5 7.5 0 1 0 0 15 7.5 7.5 0 0 0 0-15z" fill="#C92800"/></g><g clip-path="url(#b)"><circle cx="47.7" cy="11.8" r="7.5" fill="#2DA94F"/><circle cx="45.5" cy="9.4" r="2.2" fill="#fff"/><path d="M47.7 5.3a6.5 6.5 0 1 1 0 13 6.5 6.5 0 0 1 0-13m0-1a7.5 7.5 0 1 0 0 15 7.5 7.5 0 0 0 0-15z" fill="#258C41"/></g><g clip-path="url(#b)"><circle cx="94.3" cy="20.7" r="7.5" fill="#FDBD00"/><circle cx="92" cy="18.4" r="2.2" fill="#fff"/><path d="M94.3 14.5a6.4 6.4 0 1 1 0 12.7 6.4 6.4 0 0 1 0-12.7m0-1a7.4 7.4 0 1 0 0 14.7 7.4 7.4 0 0 0 0-14.7z" fill="#DEA600"/></g><g clip-path="url(#b)"><circle cx="110.9" cy="50.4" r="7.5" fill="#3E82F7"/><circle cx="108.7" cy="47.9" r="2.2" fill="#fff"/><path d="M111 43.9a6.4 6.4 0 0 1 6.4 6.5c0 3.6-3 6.4-6.5 6.4a6.5 6.5 0 0 1 0-13m0-1a7.5 7.5 0 0 0 0 15 7.5 7.5 0 0 0 .1-15z" fill="#356FD4"/></g><g clip-path="url(#b)"><linearGradient id="g" x1="38.9" x2="38.9" y1="66.5" y2="100.5" gradientUnits="userSpaceOnUse"><stop stop-color="#00BFA5" offset=".4"/><stop stop-color="#00B29A" offset=".8"/><stop stop-color="#00AB94" offset="1"/></linearGradient><path d="M59.7 73.8c-7.9 0-18.9 1.5-25.8 14l-9.8-12a1 1 0 0 0-1.3-.7l-8.2 2.5a1 1 0 0 0-.7 1.2l8.5 19.5c1.7 3.7 4.7 8.7 9.6 8.7a13 13 0 0 0 10.3-5v22H64V73.6c-4.2 0-2.5.2-4.2.2z" fill="url(#g)"/><linearGradient id="h" x1="88.9" x2="88.9" y1="66.5" y2="100.5" gradientUnits="userSpaceOnUse"><stop stop-color="#00BFA5" offset=".4"/><stop stop-color="#00B29A" offset=".8"/><stop stop-color="#00AB94" offset="1"/></linearGradient><path d="M63.9 73.6V124h21.5v-22c1.5 1.8 4.8 5 10.3 5 4.9 0 8-5 9.6-8.7l8.6-19.5a1 1 0 0 0-.8-1.2l-8.2-2.5a1 1 0 0 0-1.3.7l-9.8 12c-6.9-12.5-17.9-14-25.7-14l-4.2-.2z" fill="url(#h)"/><path d="M63.9 75.6l2.8.1 1.4.1c7.8 0 17.6 1.5 24 12.9.3.6.9 1 1.5 1h.2a2 2 0 0 0 1.6-.7l9.6-11.8 6.5 2-8 18.3c-2.3 5-4.9 7.5-7.8 7.5-4.3 0-7.1-2.3-8.8-4.2a2 2 0 0 0-3.5 1.3V122h-39v-20a2 2 0 0 0-3.6-1.2 11 11 0 0 1-8.7 4.2c-3 0-5.6-2.5-7.8-7.5l-8-18.3 6.5-2L32.4 89c.4.4 1 .7 1.6.7h.1a2 2 0 0 0 1.6-1c6.3-11.4 16.1-12.9 24-12.9H61c.1 0 .5-.2 2.8-.2m0-2c-4.2 0-2.5.2-4.2.2-7.9 0-18.9 1.5-25.8 14l-9.8-12a1 1 0 0 0-1-.8l-8.3 2.5a1 1 0 0 0-.7 1.2l8.5 19.5c1.7 3.7 4.8 8.7 9.7 8.7 5.4 0 8.8-3.2 10.3-5v22h43v-22c1.5 1.8 4.8 5 10.3 5 4.9 0 8-5 9.6-8.7l8.6-19.5a1 1 0 0 0-.7-1.2L105 75h-.3a1 1 0 0 0-1 .7l-9.8 12c-6.9-12.5-17.9-14-25.7-14l-4.2-.2z" fill="#009984"/><path d="M63.4 80a4.2 4.2 0 0 1-4.3-4.3v-5.2h9.4v5.2c0 2.3-1.9 4.2-4.2 4.2h-1z" fill="#C48E6A"/><path d="M68 71v4.7c0 2-1.7 3.7-3.7 3.7h-1c-2 0-3.7-1.6-3.7-3.7V71H68m1-1H58.6v5.7c0 2.6 2.1 4.7 4.8 4.7h.9c2.6 0 4.7-2 4.7-4.7V70z" fill="#B07853"/><path d="M48.2 60c-3 0-5.6-2.8-5.6-6s2.5-6.1 5.6-6.1h31.2c3.1 0 5.7 2.7 5.7 6s-2.6 6-5.7 6H48.2z" fill="#C48E6A"/><path d="M79.4 48.4c2.9 0 5.2 2.5 5.2 5.5s-2.3 5.5-5.2 5.5H48.2c-2.8 0-5.1-2.5-5.1-5.5s2.3-5.5 5.1-5.5h31.2m0-1H48.2c-3.4 0-6.1 3-6.1 6.5s2.8 6.5 6.1 6.5h31.2c3.4 0 6.2-2.9 6.2-6.5s-2.8-6.5-6.2-6.5z" fill="#B07853"/><linearGradient id="i" x1="63.8" x2="63.8" y1="72.7" y2="25.8" gradientUnits="userSpaceOnUse"><stop stop-color="#CCA47A" offset="0"/><stop stop-color="#D6B088" offset=".3"/><stop stop-color="#DEB892" offset=".6"/><stop stop-color="#E0BB95" offset="1"/></linearGradient><path d="M63.8 73C51 73 45.2 61.6 45.2 50.9c0-12.2 7.1-25.4 18.6-25.4s18.7 13.2 18.7 25.4c0 10.8-5.9 22.3-18.7 22.3z" fill="url(#i)"/><path d="M63.8 26c4.6 0 9.2 2.4 12.5 6.8a29.6 29.6 0 0 1 5.7 18c0 6.8-2 12.5-5.7 16.4a17 17 0 0 1-24.9 0 23.3 23.3 0 0 1-5.7-16.4c0-7 2-13.4 5.6-18 3.4-4.4 8-6.9 12.5-6.9m0-1c-10 0-19.1 10.6-19.1 26 0 15.2 9.5 22.7 19.1 22.7S83 66 83 50.8 73.8 25 63.8 25z" fill="#BA8F63"/><path d="M50.1 47.6l.2-.3.2-.2.2-.2c.2 0 .1-.1.2-.2l.3-.2.3-.2.3-.2.4-.1.4-.2.9-.2h1.9l.8.2a17.3 17.3 0 0 1 1.2.5l.3.2.2.2.3.2.1.2.2.2.3.3a.9.9 0 0 1-1 1.4l-.2-.1-.3-.1H57l-.1-.1a3 3 0 0 0-.4-.2h-.3l-.2-.1h-.2l-.2-.1-.6-.1h-1.8l-.2.1h-.2l-.3.2H52l-.2.2H51.5l-.3.2c-.5.2-1 0-1.2-.5a1 1 0 0 1 .1-.8z" fill="#AB872F"/><ellipse cx="54.4" cy="52.2" rx="2.8" ry="2.9" fill="#5D4037"/><path d="M76.4 49l-.3-.2-.2-.1h-.1l-.2-.1h-.2l-.2-.1-.3-.1h-.2l-.3-.1-.6-.1h-1.7l-.3.1H71.5l-.2.2H71a3 3 0 0 0-.4.2H70.3l-.3.2h-.2a.9.9 0 0 1-1-1.3l.3-.3.1-.2.2-.2.2-.2.3-.2.3-.2.3-.2.4-.1.4-.2.9-.2h1.9l.8.2a17.3 17.3 0 0 1 1.2.5l.3.2.2.2.3.2.2.2.1.2.2.3c.3.4.2 1-.2 1.2-.3.2-.6.3-.9.1z" fill="#AB872F"/><ellipse cx="73.2" cy="52.2" rx="2.8" ry="2.9" fill="#5D4037"/><path d="M66 57.5h-4.4c-.3.1-.5.5-.4.9.2.4 1 1.5 2.6 1.5s2.5-1.1 2.6-1.5c.2-.4 0-.8-.4-1z" fill="#C48E6A"/><path d="M68.6 62c-1.8 1.2-7.7 1.2-9.6 0-1-.5-2 .4-1.6 1.4.4.9 3.6 3 6.5 3 2.8 0 6-2.1 6.4-3 .4-1-.6-2-1.7-1.3z" fill="#795548"/><radialGradient id="j" cx="64" cy="21" r="27.9" gradientUnits="userSpaceOnUse"><stop stop-color="#BFA055" offset="0"/><stop stop-color="#AB872F" offset="1"/></radialGradient><path d="M63.8 20.9c-26 .1-20.6 29.8-20.6 29.8l2.9 5a54.1 54.1 0 0 1 2.7-14.6 3.5 3.5 0 0 1 4-2.2A63.9 63.9 0 0 0 75 39c1.6-.3 3.2.6 3.8 2.2a51.7 51.7 0 0 1 2.8 14.6l2.9-5S89.8 21 63.8 20.9z" fill="url(#j)"/><path d="M63.8 20.9c-26 .1-20.6 29.8-20.6 29.8l2.9 5 .1-2.9-1.4-2.7c-.1-1-.5-4-.3-7.7a24 24 0 0 1 4.7-13.9c3.2-3.9 8.1-5.8 14.6-5.9 6.5 0 11.4 2 14.6 6 6.2 7.3 4.7 19.5 4.4 21.5l-1.4 2.7c.1 1 .2 2 .1 3l3-5.1S89.8 21 63.8 20.9z" fill="#8F7635"/><path d="M89 41.3c0 3.6-11.2 6.5-25.1 6.5S38.7 45 38.7 41.3V39s11.8-4.4 25.2-4.4A88 88 0 0 1 89 38.9v2.4z" fill="#444"/><ellipse cx="63.9" cy="39.1" rx="25.2" ry="6.6" fill="#616161"/><radialGradient id="k" cx="64.1" cy="20.2" r="20.1" gradientUnits="userSpaceOnUse"><stop stop-color="#757575" offset=".1"/><stop stop-color="#686868" offset=".4"/><stop stop-color="#464646" offset="1"/><stop stop-color="#444" offset="1"/></radialGradient><path d="M64.3 19l-.4-.1h-.5c-16.3.3-21.6 12.2-22 19.3 0 2.8 11.2 5.4 22.5 5.4 11.2 0 22.4-2.6 22.4-5.4-.3-7-5.7-19-22-19.3z" fill="url(#k)"/><path d="M65.3 77.6l3.4-2c.8-.6 2.4-1.7 3.8-1.1 1.2.4.8 2 .8 4.2 0 2.5.4 4-.6 4.4-1.3.6-3-.4-4.4-1-.8-.4-3-1.4-3.4-2s-.4-2 .4-2.5z" fill="#212121"/><ellipse transform="rotate(-11.7 68.3 78)" cx="68.3" cy="78" rx="3" ry=".3" fill="#616161"/><ellipse transform="rotate(-81.8 68.3 80)" cx="68.3" cy="80" rx=".3" ry="3" fill="#616161"/><path d="M62.5 77.6l-3.4-2c-.9-.6-2.4-1.7-3.8-1.1-1.2.4-.8 2-.8 4.2 0 2.5-.5 4 .5 4.4 1.3.6 3-.4 4.4-1 .8-.4 3.1-1.4 3.5-2s.4-2-.4-2.5z" fill="#212121"/><ellipse transform="rotate(-78.3 59.4 78)" cx="59.4" cy="78" rx=".3" ry="3" fill="#616161"/><ellipse transform="rotate(-8.2 59.4 80)" cx="59.4" cy="80" rx="3" ry=".3" fill="#616161"/><path d="M66.5 79.2c0 1.4-1.2 2.3-2.6 2.3s-2.6-.8-2.6-2.3.7-2.7 2.6-2.7c1.8 0 2.6 1.2 2.6 2.7z" fill="#212121"/><path d="M53 118.4h-5.7V75l5.7-1.3zm27.4 0h-5.6V73.6l5.6 1.3z" fill="#444"/><path fill="#444" d="M42.4 110.4h43V128h-43z"/><path d="M52 75v35c0 .6.5 1 1 1h22c.6 0 1-.5 1-1V75l3 .7V110c0 .6.5 1 1 1h4v16H43v-16h4c.6 0 1-.5 1-1V75.7l4-.8m23-1.3V110H53V73.6L47 75v35h-5v18h43v-18h-5V75l-5-1.4z" fill="#2D3030"/></g><ellipse cx="64" cy="39.1" rx="25.2" ry="6.6" clip-path="url(#b)" fill="#616161"/><path d="M64.3 19l-.4-.1h-.5c-16.3.3-21.6 12.2-22 19.3 0 2.8 11.2 5.4 22.5 5.4 11.2 0 22.4-2.6 22.4-5.4-.3-7-5.7-19-22-19.3z" clip-path="url(#b)" fill="url(#k)"/><g clip-path="url(#b)"><path d="M64 19v1.9h.3c6.1.1 11 2 14.6 5.4 3.6 3.6 4.8 7.8 5.2 10 .1.7.5 1.1 1.1 1.4 1.6.8 1.8 1.3 1.8 1.3v2.2c-.5 1.3-8 4.6-23.1 4.6-15.2 0-22.7-3.3-23.2-4.6v-2.1c0-.1.4-.6 1.8-1.3a2 2 0 0 0 1.1-1.5c.4-2.2 1.6-6.4 5.3-10a20.7 20.7 0 0 1 15-5.3l.1-2m-.1 0h-.5c-14.7.2-20.5 10-21.7 17-2 1-3 2-3 3v2.3c0 3.6 11.3 6.5 25.2 6.5S89 45 89 41.3v-2.4c-.1-1-1.2-2-3-2.9-1.2-7.1-7-16.8-21.7-17H64z" fill="#2D2F30"/></g></svg>