<svg viewBox="0 0 128 128" xmlns="http://www.w3.org/2000/svg" xmlns:xlink="http://www.w3.org/1999/xlink"><defs><path id="a" d="M4 4h120v120H4z"/></defs><clipPath id="b"><use xlink:href="#a"/></clipPath><g clip-path="url(#b)"><radialGradient id="c" cx="749.85" cy="-105.24" r="32.924" gradientTransform="matrix(.826 0 0 .826 -555.23 101.29)" gradientUnits="userSpaceOnUse"><stop stop-color="#554138" offset="0"/><stop stop-color="#3C2C23" offset="1"/></radialGradient><path d="M54.3 86.86c.01 0-3.81-.2-5.72-2.85-4.19-5.82-6.5-20.4-6.5-41.06 0-.94.15-9.31 6.05-15.22 3.83-3.84 9.27-5.78 16.19-5.78 6.86 0 12.22 1.92 15.92 5.69 5.57 5.68 5.7 13.71 5.66 15.26 0 20.71-2.31 35.29-6.5 41.11-1.85 2.58-5.47 2.83-5.74 2.85L64 86.85l-9.7.01z" fill="url(#c)"/><path d="M64.33 22.96c6.58 0 11.74 1.81 15.25 5.39C84.98 33.86 85 41.98 85 42.89v.08c0 20.45-2.29 34.82-6.36 40.47-1.54 2.13-4.67 2.41-4.98 2.43l-9.65-.01-9.64.01c-.35-.03-3.44-.31-4.97-2.43-4.07-5.65-6.31-20.02-6.31-40.49 0-.36.04-8.78 5.76-14.5 3.63-3.65 8.84-5.49 15.48-5.49m0-2c-23.42 0-23.24 21.66-23.24 22 0 14.03 1.07 33.84 6.69 41.64 2.23 3.09 6.53 3.26 6.53 3.26l9.69-.01 9.69.01s4.3-.17 6.53-3.26c5.61-7.8 6.69-27.61 6.69-41.64 0-.34.84-22-22.58-22z" fill="#291D15"/><radialGradient id="d" cx="-237.22" cy="-74.172" r="19.238" gradientTransform="matrix(-.462 .8305 .7781 .4311 63.748 291.32)" gradientUnits="userSpaceOnUse"><stop stop-color="#F5F5F5" offset="0"/><stop stop-color="#E0E0E0" offset=".997"/></radialGradient><path d="M102.42 61.77c.63-.22 1.69.15 2.55.96.51.48.62 2.48 1.01 3.41.12.3.55.31.67.02.8-1.94 3.81-9.02 3.81-9.02.39-.96 1.32-1.48 2.25-.97.74.41.88 1.31.55 2.11l-2.43 6.49c-.03.09 0 .18.08.22.08.04.19.01.23-.08l3.94-7.02c.41-.77 1.12-1.27 1.91-.99.99.35 1.21 1.4.73 2.32l-3.55 7.16c-.09.17-.03.38.13.48h.01c.17.1.38.04.49-.13 0 0 3.13-4.84 3.57-5.54s1.28-1.34 2.2-.8c.91.55.77 1.39.34 2.21-.37.7-2.64 4.46-3.3 5.54-.1.16-.04.38.12.48.16.1.36.07.47-.06l2.4-2.82c.6-.7 1.26-1.06 1.99-.65.91.51 1 1.5.37 2.33l-3.56 5.09s-2.21 3.3-3.14 4.66-3.59 3.48-8.41.94c-6.22-3.28-4.62-6.97-4.62-8.71 0-1.62-.54-4.79-1.42-5.65-.58-.55.08-1.79.61-1.98z" fill="url(#d)" stroke="#ccc" stroke-linecap="round" stroke-linejoin="round" stroke-miterlimit="10"/><radialGradient id="e" cx="312.4" cy="228.11" r="19.238" gradientTransform="matrix(.462 .8305 -.7781 .4311 45.561 -295.47)" gradientUnits="userSpaceOnUse"><stop stop-color="#F5F5F5" offset="0"/><stop stop-color="#E0E0E0" offset=".997"/></radialGradient><path d="M25.58 61.77c-.63-.22-1.69.15-2.55.96-.51.48-.62 2.48-1.01 3.41-.12.3-.55.31-.67.02-.8-1.94-3.81-9.02-3.81-9.02-.39-.96-1.32-1.48-2.25-.97-.74.41-.88 1.31-.55 2.11l2.43 6.49c.03.09 0 .18-.08.22a.17.17 0 0 1-.23-.08l-3.94-7.02c-.41-.77-1.12-1.27-1.91-.99-.99.35-1.21 1.4-.73 2.32l3.55 7.16c.09.17.03.38-.13.48h-.01c-.17.1-.38.04-.49-.13 0 0-3.13-4.84-3.57-5.54s-1.28-1.34-2.2-.8c-.91.55-.77 1.39-.34 2.21.37.7 2.64 4.46 3.3 5.54.1.16.04.38-.12.48-.16.1-.36.07-.47-.06l-2.4-2.82c-.6-.7-1.26-1.06-1.99-.65-.91.51-1 1.5-.37 2.33l3.56 5.09s2.21 3.3 3.14 4.66 3.59 3.48 8.41.94c6.22-3.28 4.62-6.97 4.62-8.71 0-1.62.54-4.79 1.42-5.65.58-.55-.08-1.79-.61-1.98z" fill="url(#e)" stroke="#ccc" stroke-linecap="round" stroke-linejoin="round" stroke-miterlimit="10"/><linearGradient id="f" x1="38.874" x2="38.874" y1="66.5" y2="100.51" gradientUnits="userSpaceOnUse"><stop stop-color="#651FFF" offset="0"/><stop stop-color="#5914F2" offset=".705"/><stop stop-color="#530EEB" offset="1"/></linearGradient><path d="M59.67 73.83c-7.84 0-18.84 1.47-25.73 13.88l-9.79-11.96c-.19-.53-.76-.81-1.3-.64l-8.26 2.48c-.51.16-.82.68-.71 1.21 0 0 8.51 19.45 8.53 19.48 1.7 3.73 4.74 8.73 9.64 8.73 5.48 0 8.83-3.21 10.29-4.93v21.91h21.52V73.6c-4.19.08-2.43.23-4.19.23z" fill="url(#f)"/><linearGradient id="g" x1="88.881" x2="88.881" y1="66.5" y2="100.51" gradientUnits="userSpaceOnUse"><stop stop-color="#651FFF" offset="0"/><stop stop-color="#5914F2" offset=".705"/><stop stop-color="#530EEB" offset="1"/></linearGradient><path d="M63.88 73.6V124H85.4v-21.91c1.46 1.72 4.81 4.93 10.29 4.93 4.9 0 7.94-5.01 9.64-8.73.01-.03 8.53-19.48 8.53-19.48.11-.53-.2-1.05-.71-1.21l-8.26-2.48c-.53-.17-1.1.12-1.3.64L93.8 87.72c-6.89-12.4-17.88-13.88-25.73-13.88-1.74-.01.02-.16-4.19-.24z" fill="url(#g)"/><path d="M63.88 75.6c2.3.04 2.65.11 2.8.14.36.07.63.1 1.41.1 7.84 0 17.65 1.46 23.98 12.85.32.58.91.96 1.57 1.02.06.01.12.01.18.01.6 0 1.17-.27 1.55-.73l9.62-11.75 6.53 1.96c-1.84 4.2-7.92 18.09-7.99 18.26-2.29 5.02-4.92 7.56-7.83 7.56-4.28 0-7.13-2.3-8.76-4.23a2 2 0 0 0-1.53-.71c-.23 0-.46.04-.69.12-.79.29-1.31 1.04-1.31 1.88v19.91H44.35v-19.91c0-.84-.52-1.59-1.31-1.88-.23-.08-.46-.12-.69-.12a2 2 0 0 0-1.53.71c-1.64 1.93-4.48 4.23-8.76 4.23-2.9 0-5.54-2.54-7.81-7.54-.07-.16-6.17-14.09-8-18.29l6.53-1.97 9.62 11.75c.38.47.95.73 1.55.73.06 0 .12 0 .18-.01.66-.06 1.25-.44 1.57-1.02 6.33-11.39 16.14-12.85 23.98-12.85.78 0 1.05-.03 1.41-.1.14-.01.49-.08 2.79-.12m0-2c-4.21.08-2.45.24-4.21.24-7.84 0-18.84 1.47-25.73 13.88l-9.79-11.96c-.15-.42-.55-.69-.98-.69-.1 0-.21.02-.31.05L14.6 77.6c-.51.16-.82.68-.71 1.21 0 0 8.51 19.45 8.53 19.48 1.7 3.73 4.74 8.73 9.64 8.73 5.48 0 8.83-3.21 10.29-4.93V124H85.4v-21.91c1.46 1.72 4.81 4.93 10.29 4.93 4.9 0 7.94-5 9.64-8.73.01-.03 8.53-19.48 8.53-19.48.11-.53-.2-1.05-.71-1.21l-8.26-2.48c-.1-.03-.21-.05-.31-.05-.43 0-.83.27-.98.69l-9.79 11.96c-6.89-12.4-17.88-13.88-25.73-13.88-1.75-.01.01-.16-4.2-.24z" fill="#4A00ED"/><path d="M63.53 79.92c-2.32 0-4.22-1.87-4.22-4.17v-5.2h9.38v5.2c0 2.3-1.89 4.17-4.22 4.17h-.94z" fill="#7A4C32"/><path d="M68.19 71.05v4.7c0 2.02-1.67 3.67-3.72 3.67h-.94c-2.05 0-3.72-1.65-3.72-3.67v-4.7h8.38m1-1H58.81v5.7c0 2.58 2.11 4.67 4.72 4.67h.94c2.6 0 4.72-2.09 4.72-4.67v-5.7z" fill="#663B22"/><linearGradient id="h" x1="64" x2="64" y1="72.77" y2="28.748" gradientUnits="userSpaceOnUse"><stop stop-color="#8D5738" offset="0"/><stop stop-color="#97603D" offset=".216"/><stop stop-color="#A26941" offset=".573"/><stop stop-color="#A56C43" offset="1"/></linearGradient><path d="M64 73.09c-1.32 0-2.82-.28-4.34-.82-6.5-2.3-14.08-9.36-14.08-21.71 0-16.46 9.93-22.3 18.42-22.3s18.42 5.84 18.42 22.3c0 12.36-7.6 19.43-14.11 21.72-1.5.53-3 .81-4.31.81z" fill="url(#h)"/><path d="M64 28.76c8.27 0 17.92 5.71 17.92 21.8 0 12.1-7.42 19.01-13.77 21.24-1.46.51-2.89.78-4.15.78s-2.71-.27-4.18-.79c-6.34-2.24-13.75-9.15-13.75-21.24.01-16.08 9.66-21.79 17.93-21.79m0-1c-9.83 0-18.92 7.3-18.92 22.8 0 12.44 7.7 19.8 14.41 22.18 1.6.57 3.14.85 4.51.85 1.36 0 2.89-.28 4.48-.84 6.71-2.36 14.44-9.73 14.44-22.19 0-15.49-9.09-22.8-18.92-22.8z" fill="#875334"/><defs><path id="i" d="M46.81 69.35l-2.3-16.85.44-12.54c0-9.68 8.01-15.05 17.69-15.05h2.81c9.68 0 17.59 5.37 17.59 15.05l.36 12.45-2.21 16.79-34.38.15z"/></defs><clipPath id="j"><use xlink:href="#i"/></clipPath><g clip-path="url(#j)"><radialGradient id="k" cx="910.75" cy="-100.4" r="27.536" gradientTransform="matrix(.796 0 0 .796 -660.99 98.278)" gradientUnits="userSpaceOnUse"><stop stop-color="#554138" offset="0"/><stop stop-color="#3C2C23" offset="1"/></radialGradient><path d="M85.64 42.96s.58-20.32-21.6-20.32-21.68 20.32-21.68 20.32.19 25.98 1.83 29.36 4.11 3.26 4.11 3.26-1.16-15.16-1.3-22.3c-.03-1.67-.54-7.84 2.94-8.62 12.77-2.87 20-9.64 20-9.64 1.88 4.1 7.76 8.11 9.87 9.63 1.73 1.25 1.49 6.4 1.46 8.59l-1.74 22.31s2.68.21 4.37-3.22c1.69-3.45 1.74-29.37 1.74-29.37z" fill="url(#k)"/></g><path d="M66.18 57.47c-.06-.02-.12-.04-.18-.05h-4c-.06.01-.12.02-.18.05-.36.15-.56.52-.39.92s.97 1.52 2.57 1.52 2.4-1.12 2.57-1.52c.17-.39-.03-.77-.39-.92z" fill="#875334"/><g fill="#42312C"><ellipse cx="54.72" cy="52.23" rx="2.78" ry="2.88"/><ellipse cx="73.28" cy="52.23" rx="2.78" ry="2.88"/><path d="M58.85 47.06c-.53-.7-1.75-1.72-4.13-1.72s-3.6 1.02-4.13 1.72c-.23.31-.17.67-.01.88.15.2.59.39 1.09.22.49-.17 1.45-.66 3.06-.67 1.61.01 2.57.51 3.06.67.49.17.94-.02 1.09-.22.15-.22.2-.57-.03-.88zM77.41 47.06c-.53-.7-1.75-1.72-4.13-1.72s-3.6 1.02-4.13 1.72c-.23.31-.17.67-.01.88.15.2.59.39 1.09.22.49-.17 1.45-.66 3.06-.67 1.61.01 2.57.51 3.06.67.49.17.94-.02 1.09-.22.15-.22.21-.57-.03-.88z"/></g><path d="M68.75 62.09c-1.8 1.07-7.69 1.07-9.49 0-1.03-.61-2.09.32-1.66 1.26.42.92 3.64 3.06 6.42 3.06s5.95-2.14 6.37-3.06c.43-.93-.61-1.87-1.64-1.26z" fill="#473530"/><path d="M65.28 77.64c1.17-.8 2.27-1.38 3.38-2.1.89-.57 2.41-1.63 3.83-1.09 1.2.46.78 2.1.78 4.26 0 2.53.43 4-.53 4.42-1.29.57-2.98-.44-4.39-1.05-.81-.35-3.1-1.4-3.49-2.01s-.37-2.03.42-2.43z" fill="#212121"/><path d="M71.23 77.43c.03.18-1.25.59-2.85.92s-2.92.45-2.94.27c-.03-.18 1.25-.59 2.85-.92s2.92-.45 2.94-.27zM71.26 80.43c-.02.18-1.34.14-2.95-.09s-2.91-.56-2.89-.74 1.34-.14 2.95.09 2.9.56 2.89.74z" fill="#616161"/><path d="M62.47 77.64c-1.17-.8-2.27-1.38-3.38-2.1-.89-.57-2.41-1.63-3.83-1.09-1.2.46-.78 2.1-.78 4.26 0 2.53-.43 4 .53 4.42 1.29.57 2.98-.44 4.39-1.05.81-.35 3.1-1.4 3.49-2.01s.38-2.03-.42-2.43z" fill="#212121"/><path d="M56.52 77.43c-.03.18 1.25.59 2.85.92s2.92.45 2.94.27-1.25-.59-2.85-.92c-1.59-.33-2.91-.45-2.94-.27zM56.5 80.43c.02.18 1.34.14 2.95-.09s2.91-.56 2.89-.74-1.34-.14-2.95.09-2.91.56-2.89.74z" fill="#616161"/><path d="M66.45 79.18c0 1.46-1.15 2.31-2.57 2.31s-2.57-.84-2.57-2.31.64-2.65 2.57-2.65c1.85 0 2.57 1.18 2.57 2.65z" fill="#212121"/><g fill="#444"><path d="M52.99 118.43h-5.67V74.92l5.67-1.3zM80.43 118.43h-5.67V73.62l5.67 1.3z"/></g><path fill="#444" d="M42.35 110.39H85.4V128H42.35z"/><path d="M52 75v35c0 .55.45 1 1 1h22c.55 0 1-.45 1-1V74.91l3 .78V110c0 .55.45 1 1 1h4v16H43v-16h4c.55 0 1-.45 1-1V75.73l4-.8m23-1.31V110H53V73.62l-6 1.3V110h-5v18h43v-18h-5V74.92l-5-1.3z" fill="#2D3030"/><radialGradient id="l" cx="13.211" cy="63.386" r="7.357" gradientUnits="userSpaceOnUse"><stop stop-color="#FF3D00" offset=".008"/><stop stop-color="#DD2C00" offset=".999"/></radialGradient><circle cx="14.59" cy="65.51" r="7.36" fill="url(#l)"/><circle cx="12.39" cy="63.18" r="2.2" fill="#fff"/><radialGradient id="m" cx="23.143" cy="29.209" r="7.357" gradientUnits="userSpaceOnUse"><stop stop-color="#00E676" offset=".014"/><stop stop-color="#00C853" offset="1"/></radialGradient><circle cx="24.77" cy="31.71" r="7.36" fill="url(#m)"/><circle cx="22.57" cy="29.38" r="2.2" fill="#fff"/><radialGradient id="n" cx="54.896" cy="9.357" r="7.357" gradientUnits="userSpaceOnUse"><stop stop-color="#FF9100" offset=".009"/><stop stop-color="#FF6D00" offset="1"/></radialGradient><circle cx="56.52" cy="11.36" r="7.36" fill="url(#n)"/><circle cx="54.32" cy="9.02" r="2.2" fill="#fff"/><radialGradient id="o" cx="92.881" cy="18.246" r="7.357" gradientUnits="userSpaceOnUse"><stop stop-color="#D500F9" offset=".017"/><stop stop-color="#a0f" offset="1"/></radialGradient><circle cx="94.26" cy="20.87" r="7.36" fill="url(#o)"/><circle cx="92.06" cy="18.54" r="2.2" fill="#fff"/><radialGradient id="p" cx="111.42" cy="47.113" r="7.357" gradientUnits="userSpaceOnUse"><stop stop-color="#00B0FF" offset=".009"/><stop stop-color="#0091EA" offset=".999"/></radialGradient><circle cx="113.17" cy="49.49" r="7.36" fill="url(#p)"/><circle cx="110.97" cy="47.15" r="2.2" fill="#fff"/><ellipse cx="64" cy="39.08" rx="25.17" ry="6.57" fill="#616161"/><radialGradient id="q" cx="64.128" cy="20.242" r="20.124" gradientUnits="userSpaceOnUse"><stop stop-color="#757575" offset=".132"/><stop stop-color="#686868" offset=".428"/><stop stop-color="#464646" offset=".975"/><stop stop-color="#444" offset="1"/></radialGradient><path d="M64.32 18.91s-.31-.01-.44-.01-.44.01-.44.01c-16.32.31-21.66 12.2-22.03 19.28 0 2.77 11.23 5.39 22.47 5.39 11.23 0 22.47-2.62 22.47-5.39-.37-7.08-5.71-18.98-22.03-19.28z" fill="url(#q)"/><path d="M89.04 41.27c0 3.63-11.27 6.57-25.17 6.57S38.7 44.9 38.7 41.27c0-.14.04-2.2.04-2.2s11.78-4.37 25.13-4.37c13.26 0 25.18 4.19 25.18 4.19l-.01 2.38z" fill="#444"/><ellipse cx="63.88" cy="39.08" rx="25.17" ry="6.57" fill="#616161"/><path d="M64.32 18.91s-.31-.01-.44-.01-.44.01-.44.01c-16.32.31-21.66 12.2-22.03 19.28 0 2.77 11.23 5.39 22.47 5.39 11.23 0 22.47-2.62 22.47-5.39-.37-7.08-5.71-18.98-22.03-19.28z" fill="url(#q)"/></g><g clip-path="url(#b)"><path d="M14.59 59.15c3.51 0 6.36 2.85 6.36 6.36s-2.85 6.36-6.36 6.36-6.36-2.85-6.36-6.36c0-3.5 2.85-6.36 6.36-6.36m0-1c-4.06 0-7.36 3.29-7.36 7.36s3.29 7.36 7.36 7.36a7.36 7.36 0 1 0 0-14.72z" fill="#C92800"/></g><g clip-path="url(#b)"><path d="M24.77 25.35c3.51 0 6.36 2.85 6.36 6.36s-2.85 6.36-6.36 6.36-6.36-2.85-6.36-6.36 2.85-6.36 6.36-6.36m0-1c-4.06 0-7.36 3.29-7.36 7.36s3.29 7.36 7.36 7.36a7.36 7.36 0 1 0 0-14.72z" fill="#00B34A"/></g><g clip-path="url(#b)"><path d="M56.52 5c3.51 0 6.36 2.85 6.36 6.36s-2.85 6.36-6.36 6.36-6.36-2.85-6.36-6.36S53.02 5 56.52 5m0-1c-4.06 0-7.36 3.29-7.36 7.36s3.29 7.36 7.36 7.36a7.36 7.36 0 1 0 0-14.72z" fill="#ED6500"/></g><g clip-path="url(#b)"><path d="M94.26 14.51c3.51 0 6.36 2.85 6.36 6.36s-2.85 6.36-6.36 6.36-6.36-2.85-6.36-6.36 2.85-6.36 6.36-6.36m0-1c-4.06 0-7.36 3.29-7.36 7.36s3.29 7.36 7.36 7.36 7.36-3.29 7.36-7.36-3.3-7.36-7.36-7.36z" fill="#9E00ED"/></g><g clip-path="url(#b)"><path d="M113.17 43.13c3.51 0 6.36 2.85 6.36 6.36s-2.85 6.36-6.36 6.36-6.36-2.85-6.36-6.36 2.85-6.36 6.36-6.36m0-1c-4.06 0-7.36 3.29-7.36 7.36s3.29 7.36 7.36 7.36a7.36 7.36 0 1 0 0-14.72z" fill="#0085D6"/></g><g clip-path="url(#b)"><path d="M64 19v1.9l.33.01c6.09.11 10.97 1.94 14.55 5.42 3.66 3.56 4.86 7.8 5.25 10.01.11.63.51 1.11 1.08 1.39 1.59.77 1.83 1.27 1.83 1.27s.01.12.01.15c0 .59-.01 1.81-.01 2.05-.5 1.33-8.04 4.62-23.17 4.62-15.12 0-22.66-3.27-23.17-4.6 0-.24.02-1.25.03-1.79 0-.13 0-.22-.03-.34.06-.12.41-.63 1.83-1.33.57-.28.98-.82 1.09-1.45.39-2.21 1.6-6.45 5.26-10.01 3.58-3.48 8.48-5.25 14.6-5.37 0 0 .23.04.4.04h.05l.07-2.02m-.1.05h-.06c-.14 0-.41-.04-.41-.04-14.72.28-20.5 9.96-21.77 17.05-1.89.92-2.96 1.96-2.96 3.08 0 .11.01.22.03.33-.01.59-.03 1.75-.03 1.86 0 3.63 11.27 6.57 25.17 6.57s25.17-2.94 25.17-6.57l.01-2.38s-.01 0-.03-.01c-.12-1.04-1.17-2.03-2.94-2.89-1.27-7.1-7.05-16.75-21.77-17.03.01-.01-.26.03-.41.03z" fill="#2D2F30"/></g></svg>