<svg xmlns="http://www.w3.org/2000/svg" viewBox="0 0 36 36"><path fill="#292F33" d="M32 36v-4a6 6 0 0 0-6-6H10a6 6 0 0 0-6 6v4h28z"/><path fill="#DFE7EC" d="M20.8 36l2.9-10H12.3l2.9 10z"/><path fill="#292F33" d="M18.7 31.8a.7.7 0 1 1-1.4 0 .7.7 0 0 1 1.4 0zm0 2.9a.7.7 0 1 1-1.4 0 .7.7 0 0 1 1.4 0z"/><path fill="#66757F" d="M23.3 36l-.3-.5 3.5-1-2.8-8.5-2.9 10zm-10.6 0l.3-.5-3.5-1 2.8-8.5 2.9 10z"/><path fill="#F2D1A1" d="M14 25.9l4 1.7 4-1.7v-4h-8z"/><path fill="#E0BF94" d="M14 24a4.7 4.7 0 0 0 4 1.7c1.6 0 2.8-.3 4-1.7v-4h-8v4z"/><path fill="#F2D1A1" d="M27.8 14c0-1.5-.7-2.7-1.6-2.7H26c-1.3-3.8-4.4-6.5-8-6.5s-6.7 2.7-8 6.6h-.2c-.9 0-1.6 1-1.6 2.5 0 1.4.6 2.5 1.4 2.6.6 4.9 4.1 8.6 8.4 8.6s7.8-3.7 8.4-8.6c.8-.1 1.4-1.2 1.4-2.6z"/><path fill="#F4F7F9" d="M14 24.7l4 3-2.7 2.8-3-4.5zm8 0l-4 3 2.7 2.8 3-4.5z"/><path fill="#292F33" d="M21 26.7h-.2L18 28.1l-2.8-1.6a.2.2 0 0 0-.4.3V30a.2.2 0 0 0 .3.2l2.9-1.6 2.8 1.6h.2l.2-.2v-3.2c0-.1 0-.2-.2-.2z"/><path fill="#C1694F" d="M18 21.8c-2.8 0-3.6-.7-3.7-.8a.7.7 0 0 1 .9-1s.7.5 2.8.5c2.2 0 2.8-.5 2.8-.5.3-.3.7-.2 1 0 .2.3.2.7 0 1-.2.1-1 .8-3.8.8m.8-4h-1.6a.8.8 0 0 1 0-1.6h1.6a.8.8 0 0 1 0 1.6"/><path fill="#662213" d="M22 15a1 1 0 0 1-1-1v-1c0-.6.5-1 1-1s1 .5 1 1v1c0 .6-.5 1-1 1m-8 0a1 1 0 0 1-1-1v-1c0-.6.5-1 1-1s1 .5 1 1v1c0 .6-.5 1-1 1"/><path fill="#FFE51E" d="M18 1.5c5.6 0 9.2 4.1 9.2 7.6s-.7 4.9-1.4 3.5l-1.4-2.8s-4.3 0-5.7-1.4c0 0 2.1 4.2-2.1 0 0 0 .7 2.8-3.5-.7 0 0-2.2 1.4-2.9 4.9-.2 1-1.4 0-1.4-3.5s2.8-7.6 9.2-7.6"/></svg>