<svg viewBox="0 0 128 128" xmlns="http://www.w3.org/2000/svg" xmlns:xlink="http://www.w3.org/1999/xlink"><defs><path id="a" d="M4 4h120v120H4z"/></defs><clipPath id="b"><use xlink:href="#a"/></clipPath><g clip-path="url(#b)"><radialGradient id="c" cx="185.8" cy="-28.9" r="38" gradientTransform="rotate(-8.9 236.8 624.7) scale(.826)" gradientUnits="userSpaceOnUse"><stop stop-color="#6D4C41" offset="0"/><stop stop-color="#543930" offset="1"/></radialGradient><path d="M54.8 81.4a9 9 0 0 1-6.3-2.3c-5.9-6-11.1-22-14.8-45.6-.2-1-1.5-10.7 4.2-18.5 3.7-5 9.5-8.2 17.4-9.5 2-.3 3.9-.4 5.7-.4 19.4 0 22.5 18.4 22.8 20.5 3.7 23.5 3.6 40.5 0 48-1.8 3.4-6.2 4.3-6.2 4.3l-11 1.7-11 1.7h-.8z" fill="url(#c)"/><path d="M61 6c18.5 0 21.5 17.7 21.8 19.7v.1c3.6 23.3 3.7 40 0 47.3-1.4 2.8-5 3.7-5.4 3.8l-11 1.7-10.9 1.8h-.7c-1 0-3.8-.2-5.6-2-5.7-5.7-10.8-21.7-14.5-45a26 26 0 0 1 4-17.8c3.5-4.8 9.2-7.9 16.8-9A33 33 0 0 1 61 6m0-2a37 37 0 0 0-5.8.4C28.6 8.7 32.7 33.3 32.7 33.7c2.5 16 7.3 38.2 15 46a10 10 0 0 0 8 2.6l11-1.7 11-1.8s5-1 6.9-4.8c5-9.9 2.7-32.6.2-48.5C84.7 25 82.2 4 61 4z" fill="#3F2720"/></g><g clip-path="url(#b)"><path d="M32 127c-1.2-.5-11-5.6-7-31.7.4-2 .6-4.4.8-6.7a34 34 0 0 1 1.7-10.3c3.4-6 9.8-7.1 19.6-8.8l1.3-.2a104 104 0 0 1 29.8-.8c16.2 2 26.9 5 27.7 27.8.7 18.4 0 28-.1 30.7H32z" fill="#651FFF"/><path d="M66 68.8c4 0 8 .2 12.1.7 16.1 2 26 4.8 26.8 26.8.6 16.8.2 26 0 29.7H32.1c-.7-.3-2.7-1.5-4.4-4.9-2-4-3.9-11.5-1.8-25.6.4-2.1.6-4.5.8-6.8.3-3.8.6-8.2 1.6-9.9 3.1-5.6 9.4-6.7 18.8-8.3l1.4-.2c6-1 11.7-1.5 17.4-1.5m0-2c-6 0-12 .5-17.7 1.5-10.7 1.8-17.9 2.8-21.6 9.5C24.9 81 25 89.2 24 95.2c-4.5 29 7.7 32.8 7.7 32.8h74.9s1-9 .2-31.8c-.9-23.5-12-26.6-28.6-28.7-4.2-.5-8.3-.7-12.3-.7z" fill="#540EED"/></g><g clip-path="url(#b)"><linearGradient id="d" x1="60.7" x2="60.7" y1="56.8" y2="101.8" gradientUnits="userSpaceOnUse"><stop stop-color="#FFCA28" offset="0"/><stop stop-color="#FEC826" offset=".5"/><stop stop-color="#FAC11F" offset=".7"/><stop stop-color="#F3B613" offset=".9"/><stop stop-color="#EAA603" offset="1"/><stop stop-color="#E8A300" offset="1"/></linearGradient><path d="M63 110c-10 0-16.9-6-17.9-15-.3-2.5 1.2-4.3 3-6.4 1.3-1.6 2.6-3.2 3.3-5.3a53 53 0 0 0 1.3-14.7l5.6-.5c.3 0 .6-.2.7-.4s.3-.5.2-.8l-.6-4 9.8-1.5.9 5.5c0 .6.5 1 1 1 1.6 0 3.6.3 4.9.4-.3 1.5-.6 4.1-.8 9-.2 4-.4 11.2.7 15.2 1.3 5 2.6 13.9-3.4 15.8-3 1-6 1.5-8.9 1.5z" fill="url(#d)"/><path d="M67.7 62.6l.7 4.5v.1a2 2 0 0 0 1.9 1.7c1.2 0 2.6.2 3.8.4a99.2 99.2 0 0 0 0 23.6c3 11-.4 13.8-2.6 14.6a28 28 0 0 1-8.5 1.4c-9.3 0-15.9-5.5-16.8-13.9-.3-2 .9-3.5 2.7-5.7 1.4-1.5 2.9-3.3 3.5-5.6 1.4-4.7 1.5-11 1.4-14l4.7-.5c.6 0 1-.4 1.4-.8s.5-1 .4-1.6l-.5-3 4-.6 3.9-.6m1.6-2.2l-11.7 1.8.7 5-6.6.6s.6 9.3-1.2 15.4c-1.3 4.5-7 6.9-6.3 12 1 9.5 8.5 15.7 18.7 15.7 3 0 6-.5 9.2-1.5 5-1.7 6.5-7.7 4-17-1.7-6.8-.1-24.6.4-24.8-.3 0-3.6-.6-6.1-.7l-1-6.5zm7.2 7.2z" fill="#ED9E00"/></g><g clip-path="url(#b)"><linearGradient id="e" x1="57.3" x2="63.7" y1="18.4" y2="64.3" gradientUnits="userSpaceOnUse"><stop stop-color="#FFCA28" offset="0"/><stop stop-color="#FFC825" offset=".3"/><stop stop-color="#FFC21A" offset=".6"/><stop stop-color="#FFB809" offset=".9"/><stop stop-color="#FFB300" offset="1"/></linearGradient><path d="M62.2 63.5c-1 0-2 0-3-.3a25 25 0 0 1-19.6-21.8 27 27 0 0 1 3.3-19.8A19.4 19.4 0 0 1 59.5 13c13 0 19.4 11.4 21.1 22a25 25 0 0 1-12 26.7 15 15 0 0 1-4.5 1.7l-2 .1z" fill="url(#e)"/><path d="M59.5 14c4.7 0 9 1.8 12.5 5 3.9 3.6 6.5 9.2 7.6 16.2a24 24 0 0 1-11.4 25.7 11.8 11.8 0 0 1-6 1.7c-1 0-1.9-.2-2.9-.3a24 24 0 0 1-18.7-21c-2.8-17.7 6.7-25.6 15.7-27 1-.2 2.1-.2 3.2-.2m0-2c-1.2 0-2.3 0-3.5.2C45 14.1 35.8 24 38.6 41.6a26.1 26.1 0 0 0 20.3 22.6 17.7 17.7 0 0 0 5.3.2 19 19 0 0 0 5-1.8 26.2 26.2 0 0 0 12.4-27.8C79 19 69.5 12.1 59.5 12.1z" fill="#ED9E00"/></g><g clip-path="url(#b)"><defs><path id="f" d="M41.7 63l-6.3-33.2c-1.7-11 7.2-21 18.2-22.7l3.2-.5c11-1.8 22.5 5 24.2 16L85.2 56l-43.5 7z"/></defs><clipPath id="g"><use xlink:href="#f"/></clipPath><g clip-path="url(#g)"><radialGradient id="h" cx="225.4" cy="-23.1" r="31.7" gradientTransform="rotate(-8.9 245.2 791.7) scale(.796)" gradientUnits="userSpaceOnUse"><stop stop-color="#6D4C41" offset="0"/><stop stop-color="#543930" offset="1"/></radialGradient><path d="M83.3 25.7s-3-23.2-28.1-19.2-21 27-21 27 4.8 29.4 7.3 33 5.2 3 5.2 3-4-17-5.4-25.2c-.4-1.8-2-8.8 1.8-10.3 14-5.5 21-14.5 21-14.5 2.8 4.3 10.2 7.8 12.9 9.2 2.2 1 2.8 7 3.2 9.5l2 25.6s3-.2 4.4-4.4-3.3-33.7-3.3-33.7z" fill="url(#h)"/></g></g><g clip-path="url(#b)"><path d="M53.6 35.1c-.7-.7-2.3-1.6-5-1.2s-3.9 1.8-4.4 2.7c-.2.4 0 .8.2 1 .2.2.7.4 1.2 0 .6-.2 1.6-1 3.4-1.2 1.8-.3 3 .1 3.6.2.6.1 1-.2 1.2-.4a1 1 0 0 0-.2-1zm21.1-3.3c-.7-.7-2.3-1.6-5-1.2s-4 1.8-4.4 2.7c-.2.4 0 .8.2 1 .2.2.7.4 1.2 0 .6-.2 1.6-1 3.4-1.2 1.8-.3 3 0 3.6.2.6 0 1-.2 1.2-.4a1 1 0 0 0-.2-1z" fill="#6D4C41"/><path d="M67.5 50.5a16.6 16.6 0 0 1-10.7 1.7c-1.3-.5-2.3.7-1.7 1.7.6 1 4.7 2.8 7.8 2.3s6.4-3.5 6.7-4.6c.4-1.1-1-2-2-1.1z" fill="#795548"/><path d="M63.6 44.4h-.2l-4.5.7h-.2c-.4.3-.6.8-.3 1.2.2.4 1.3 1.5 3.2 1.3a3.2 3.2 0 0 0 2.6-2.2.8.8 0 0 0-.6-1z" fill="#E59600"/><path d="M50 42.7a8 8 0 0 1-3.6-.3c-.4-.2-.5 0-.4.4.5 1.6 2.3 2.6 4.3 2.3s3.4-1.9 3.4-3.5c0-.4-.2-.5-.6-.3-.7.7-1.8 1.2-3.2 1.4zm21-3.3c-1.3.2-2.5 0-3.4-.3-.4-.2-.6 0-.5.4.5 1.5 2.4 2.5 4.4 2.2s3.4-1.8 3.4-3.4c0-.5-.3-.6-.6-.3a6 6 0 0 1-3.2 1.4z" fill="#404040"/><path d="M53.6 35.1c-.7-.7-2.3-1.6-5-1.2s-3.9 1.8-4.4 2.7c-.2.4 0 .8.2 1 .2.2.7.4 1.2 0 .6-.2 1.6-1 3.4-1.2 1.8-.3 3 .1 3.6.2.6.1 1-.2 1.2-.4a1 1 0 0 0-.2-1zm21.1-3.3c-.7-.7-2.3-1.6-5-1.2s-4 1.8-4.4 2.7c-.2.4 0 .8.2 1 .2.2.7.4 1.2 0 .6-.2 1.6-1 3.4-1.2 1.8-.3 3 0 3.6.2.6 0 1-.2 1.2-.4a1 1 0 0 0-.2-1z" fill="#6D4C41"/></g><path d="M42.3 79.7a51 51 0 0 0-2 27.3" clip-path="url(#b)" fill="none" stroke="#470CC7" stroke-linecap="round" stroke-linejoin="round" stroke-miterlimit="10" stroke-width="2"/><g clip-path="url(#b)"><radialGradient id="i" cx="35.7" cy="100.1" r="24.4" gradientTransform="matrix(1.1273 0 0 1.1301 -3.4 -12.4)" gradientUnits="userSpaceOnUse"><stop stop-color="#6D4C41" offset="0"/><stop stop-color="#543930" offset="1"/></radialGradient><path d="M43.8 119.6c-8 0-14.2-5.8-14.2-13.1 0-6.4 3.4-13.9 13.2-13.9h.7c4 .2 8 2.2 10.8 5.4 2.5 2.8 3.8 6.1 3.5 9.4-.5 5.6-3.4 12.2-14 12.2z" fill="url(#i)"/><path d="M42.8 91.6v2h.6c3.8.2 7.6 2 10.2 5 2.3 2.7 3.4 5.7 3.2 8.7-.9 9.4-7.6 11.3-13 11.3-7.4 0-13.2-5.3-13.2-12.1 0-6 3.2-12.9 12.2-12.9v-2m0 0c-9.6 0-14.2 7.1-14.2 14.9 0 8 6.8 14.1 15.2 14.1s14.1-4.1 15-13.1c.7-8-7-15.6-15.3-15.9h-.7z" fill="#3F2720"/></g><path d="M63.5 89.3c2.7 3.7 2.5 9.2 1.3 12.4" clip-path="url(#b)" fill="none" stroke="#D99000" stroke-linecap="round" stroke-linejoin="round" stroke-miterlimit="10" stroke-width="2"/><path d="M88.4 81.5c-.3 8.5.4 17 2.1 25.3" clip-path="url(#b)" fill="none" stroke="#470CC7" stroke-linecap="round" stroke-linejoin="round" stroke-miterlimit="10" stroke-width="2"/><g clip-path="url(#b)"><linearGradient id="j" x1="49.3" x2="115.4" y1="116.5" y2="116.5" gradientUnits="userSpaceOnUse"><stop stop-color="#00BFA5" offset="0"/><stop stop-color="#00B29A" offset=".7"/><stop stop-color="#00AB94" offset="1"/></linearGradient><path d="M103.5 134.2c-1.6 0-3-.3-4.3-.6-1.3-.3-2.6-.6-4-.6-.8 0-1.5.1-2.2.3h-1.4c-3.2 0-7.8-1.3-12.3-2.7-3.3-1-6.5-2-9-2.3l-1.8-.3c-6-.9-16.1-2.4-18.3-5.3-1.8-2.6-.7-5.7 1.4-7.5 2.6-2.3 4.6-5.2 5.6-8.6.3-.7.4-1.8.5-2.9.2-1.4.4-3.4 1-4 0-.2.7-.9 4.9-.9 3.8 0 9.4.6 16.6 1.7a30.8 30.8 0 0 1 16.5 6.7c1.8 1.4 3.2 2.5 5.5 2.5 5.2 0 8.9 1.4 11 4.1 4 5.4 1.6 14.5.5 18.3v.1h-.2l-5.3 1.3a16 16 0 0 1-4.6.7z" fill="url(#j)"/><path d="M63.6 99.8c3.7 0 9.2.6 16.4 1.7a29.9 29.9 0 0 1 16 6.4c1.9 1.4 3.6 2.8 6.2 2.8 4.8 0 8.3 1.2 10.2 3.7 3.6 4.8 1.5 13 .5 17l-5 1.2a17 17 0 0 1-8.5.1c-1.3-.3-2.7-.6-4.2-.6-.8 0-1.6 0-2.4.2h-1.2c-3 0-7.6-1.3-12-2.6-3.4-1-6.6-2-9.2-2.4-.6 0-1.1-.2-1.7-.3-5.5-.8-15.7-2.3-17.7-5-1.5-2-.5-4.5 1.2-6a20 20 0 0 0 6-9.1c.3-.8.4-1.9.5-3 .1-1 .4-3 .7-3.6.2-.1 1.2-.5 4.2-.5m0-2c-3.6 0-5.2.5-5.8 1.2-1 1.4-1 5.6-1.5 7.3-1 3.1-2.9 6-5.4 8.2-2.5 2.2-3.6 5.9-1.5 8.8 2.7 3.5 14 5 20.7 6 6 .9 15.8 5 21.5 5a8 8 0 0 0 1.6 0l2-.3c2.8 0 5 1.2 8.4 1.2 1.3 0 3-.2 5-.7 5-1.4 5.8-1.3 6-1.5 1.3-5 7.3-24.3-12.4-24.3-5 0-5.5-6.7-21.9-9.2a122 122 0 0 0-16.7-1.7z" fill="#009984"/></g><g clip-path="url(#b)"><defs><path id="k" d="M20 113.5l10.8.5s3.2 4.8 8.9 5.7c7.8 1.2 10.7-1.3 10.7-1.3l33.2-2.8 12.9 20.3-2.8 12.4-75-15 1.4-19.8z"/></defs><clipPath id="l"><use xlink:href="#k"/></clipPath><g clip-path="url(#l)"><linearGradient id="m" x1="38.2" x2="74.4" y1="117.4" y2="130.5" gradientTransform="rotate(6.2 61.6 124.4)" gradientUnits="userSpaceOnUse"><stop stop-color="#FFCA28" offset="0"/><stop stop-color="#FEC826" offset=".5"/><stop stop-color="#FAC11F" offset=".7"/><stop stop-color="#F3B613" offset=".9"/><stop stop-color="#EAA603" offset="1"/><stop stop-color="#E8A300" offset="1"/></linearGradient><path d="M71 132.8c-.3 0-.4-.1-.5-.3A3.4 3.4 0 0 0 67 131a44 44 0 0 1-17.8.3c-.6-.1-1-.6-1.2-1.2-.1-1.2-.3-4 0-6.2.2-2 1.1-3 1.5-3.2 2.3.7 4.4 1 6.5 1 2.7 0 4.9-.6 7-1a24.5 24.5 0 0 1 6.8-1c2.8 0 4.7.8 6 2.1 1.2 1.5 1.8 3.9 1.6 7.2-1 1-4.5 3.8-6.3 3.8z" fill="url(#m)"/><path d="M69.2 120.7h.6c2.4 0 4.1.7 5.2 1.8 1 1.2 1.5 3.2 1.4 6.1a15 15 0 0 1-5.2 3.2 4.4 4.4 0 0 0-4.4-1.8 43 43 0 0 1-17.4.3c-.2 0-.4-.2-.4-.3-.1-1.2-.3-3.8 0-6 .1-1.1.5-1.8.7-2.1a24.7 24.7 0 0 0 13.6-.3c2-.5 3.8-1 6-1m-.2-1.9c-4.9 0-8 2.1-13.2 2.1a23 23 0 0 1-6.4-1h-.1c-.9 0-2.2 1.6-2.5 4-.3 2.5 0 5.4 0 6.5.2 1 1 1.9 2 2a44.8 44.8 0 0 0 18.6-.2c.8 0 1.6.4 2 1 .3.6.9.8 1.5.8 2.6 0 7.2-4.2 7.2-4.3.5-6.5-1.4-10.6-8.5-10.8h-.6z" fill="#ED9E00"/></g></g></svg>