<svg viewBox="0 0 128 128" xmlns="http://www.w3.org/2000/svg" xmlns:xlink="http://www.w3.org/1999/xlink"><linearGradient id="a" x1="187.4" x2="187.4" y1="-167.1" y2="-143.5" gradientTransform="rotate(-21.2 641.6 232.1)" gradientUnits="userSpaceOnUse"><stop stop-color="#BA8D68" offset=".6"/><stop stop-color="#A47B62" offset=".8"/><stop stop-color="#99674F" offset="1"/></linearGradient><path d="M85.8 19.4c-3.4-3.3-9.3-3.3-13.8-1.6-5 2-7 6.3-6.7 11.2a13 13 0 0 0 1 4.6l.7 1.5c.5 1.2-1.7 3-1.7 4.5 0 1.1 2.3 1.3 2.6 1.5 1 .7.6 5.6 6.8 4.7 2.2-.3 3.1-.8 4 .6l.8 4 7-.7s-1.3-3.5.4-8.2c.7-2.3 1.2-4.9 2.6-7.1 2.8-4.5-.8-12.2-3.7-15z" fill="url(#a)"/><linearGradient id="b" x1="65.2" x2="90.5" y1="33.6" y2="33.6" gradientUnits="userSpaceOnUse"><stop stop-color="#91674D" offset="0"/><stop stop-color="#875740" offset="1"/></linearGradient><path d="M78 17.7c3 0 5.5.9 7.1 2.5 2.7 2.5 6 9.7 3.6 13.7-1 1.7-1.6 3.5-2.2 5.2l-.6 2a15 15 0 0 0-.7 7.8l-4.8.5-.7-3.2-.1-.3c-.6-1-1.4-1.4-2.4-1.4-.5 0-1 0-1.6.2a29.5 29.5 0 0 1-2.3.3c-2.7 0-3.3-1.6-3.8-3-.3-.7-.5-1.3-1-1.7l-.9-.3c-.7-.2-1.1-.3-1.3-.5 0-.4.4-1 .8-1.5.6-1 1.2-2 .9-3.2l-.7-1.4v-.2c-.6-1-1-2.6-1-4.2-.2-2.9.4-8 6-10.2 1.8-.8 3.8-1.1 5.7-1.1m0-1c-2 0-4.2.4-6 1.1-5 2-7 6.3-6.7 11.2a13 13 0 0 0 1 4.7L67 35c.5 1.3-1.7 3-1.7 4.5 0 1.1 2.4 1.3 2.6 1.5 1 .7.7 4.8 5.4 4.8h1.4l2.5-.4c.6 0 1.1.2 1.6.9l.8 4 6.9-.7s-1.3-3.5.4-8.2c.8-2.3 1.2-4.9 2.6-7.1 2.8-4.5-.8-12.2-3.7-15-2-2-4.9-2.7-7.8-2.7z" fill="url(#b)"/><radialGradient id="c" cx="160.8" cy="-44.1" r="13.2" gradientTransform="matrix(1.0182 -.2047 .203 .9794 -81.2 99)" gradientUnits="userSpaceOnUse"><stop stop-color="#6D4C41" offset="0"/><stop stop-color="#543930" offset="1"/></radialGradient><path d="M79.9 38l.7-5.3s3.4.2 3 3.7c-.3 2.4 1.5 4.9 2.6 5h.7c.6-3.6 4.8-5.2 4.2-14.5-.5-8-8-11.6-14.7-10.8-6.5.8-13.1 6-11.4 14.6.1.3 8.6-.1 10.8 1.7 2.2 1.7 1.2 5.8 4 5.6z" fill="url(#c)"/><defs><path id="d" d="M85.2 31.7l1 8.6-.5.9.5.2h.6c.7-3.6 4.9-5.3 4.3-14.5-.5-8-8-11.6-14.8-10.8-6.4.7-13 6.3-11.3 14.6h1l-.2-1.3 10-.2 9.4 2.5z"/></defs><clipPath id="e"><use xlink:href="#d"/></clipPath><g clip-path="url(#e)"><path d="M78.2 17c5.4 0 11.5 3.1 12 10 .3 5.8-1.3 8.3-2.7 10.6-.5.9-1 1.7-1.4 2.7-.6-.4-1.7-2-1.5-3.8.1-1.3-.1-2.4-.9-3.3a4.4 4.4 0 0 0-3-1.5 1 1 0 0 0-1 .8l-.7 4.3c-.2-.3-.4-.8-.6-1.7-.4-1.1-.8-2.6-2-3.5-1.7-1.4-5.6-1.6-9.5-1.8h-1c-.5-2.9.1-5.5 1.7-7.7A12.8 12.8 0 0 1 78.2 17m0-1l-1.9.1c-6.4.7-13 6-11.3 14.6 0 .3 8.5-.1 10.8 1.7C78 34 77 38 79.8 38l.8-5.3s3.4.2 3 3.7c-.3 2.4 1.5 4.9 2.6 5h.6c.7-3.6 4.9-5.2 4.3-14.5-.4-7.3-6.7-11-13-11z" fill="#402821"/></g><path d="M70.8 40l-2.2 1 .7 1.4c1.2 2.2 3.3 4.4 7.5 3.2.3-.1-3.2-5-3.2-5l-2.8-.5z" fill="none"/><defs><path id="f" d="M85.8 19.4c-3.4-3.3-9.3-3.3-13.8-1.6-6.2 2.4-8 8-6.5 14.3l1.3 3.6c.8 2.1-1.1 2-1.2 3.8-.1 1.6 2 1.4 2.3 1.6 1 .7.6 5.6 6.8 4.7 2.2-.3 3.1-.8 4 .6l2 4 5.7-.7s-1-8.7 3.1-15.3c2.8-4.5-.8-12.2-3.7-15z"/></defs><clipPath id="g"><use xlink:href="#f"/></clipPath><g clip-path="url(#g)"><path d="M64.5 42c1.8 1.7 5 2.2 6.8.3.7-.7 0-1.3-.8-.7-1.3 1-4 .5-5.1-.5-.8-.6-1.6.3-1 1z" fill="#795548"/></g><ellipse transform="rotate(-9.5 70.3 36.1)" cx="70.3" cy="36.1" rx="1.1" ry="1.8" fill="#404040"/><path d="M69.3 34c-1 .6-1.5 0-1.3-.7.2-.5.7-1 2-1.2 1.3-.1 2 .4 2.4.8s.5.7.2.8c-.3.2-2.1-.5-3.3.2z" fill="#6D4C41"/><path d="M68.2 52.3l6.8-1.6c1-.4 1.1-.9 1.1-.9 0-.4-.5-.5-1-.6l-3-.2s-5.9.7-5.2 2.3c.1.7.7 1 1.3 1zM55 53l-7 .6c-1 0-1.3-.5-1.3-.5 0-.4.4-.7.8-1l2.8-1s5.8-1.2 5.7.5c0 .7-.4 1.3-1 1.3z" fill="#99674F" stroke="#875740" stroke-linecap="round" stroke-linejoin="round" stroke-miterlimit="10"/><linearGradient id="h" x1="32.2" x2="68.2" y1="54.1" y2="54.1" gradientUnits="userSpaceOnUse"><stop stop-color="#A47B62" offset="0"/><stop stop-color="#BA8D68" offset="1"/></linearGradient><path d="M46.5 59.1h-.9l-.1-.1-13.3-2.7 2.3-7.3 12.1 4.2h.2a379.1 379.1 0 0 0 18.3-2.4c2.4 0 3 .5 3 .7.1 0 .2.2 0 .4-.7 2-16 7.2-21.5 7.3z" fill="url(#h)"/><path d="M34.9 49.6l11.6 4.1h.4a501 501 0 0 0 18.2-2.4c1.9 0 2.5.3 2.6.4a52 52 0 0 1-21 7H46l-.2-.1-.3-.1L32.8 56l2-6.4m-.6-1.3l-2.7 8.4 14 2.8.4.1h.7c5.4 0 21.1-5 22-7.5.6-1.4-1.4-1.8-3.5-1.8a493.4 493.4 0 0 1-18.3 2.5l-12.6-4.5z" fill="#91674D"/><linearGradient id="i" x1="49.7" x2="86.4" y1="52.3" y2="52.3" gradientUnits="userSpaceOnUse"><stop stop-color="#A47B62" offset="0"/><stop stop-color="#BA8D68" offset="1"/></linearGradient><path d="M85.3 48.2a4.4 4.4 0 0 0-4.5-1.2h-.3l-12.2 4.4c-1.5-.2-7.4-1.2-10.4-1l-4.3.3-3.4 3.2c-.4.3-.6.9-.3 1.3.3.5 3.8-1.2 5.5-2 .6-.4 1.3-.4 2 0l8 3.9a8 8 0 0 0 5 .7l12-2.2 1-.2h.1c1-.4 1.9-1.1 2.4-2.2.9-1.6.6-3.7-.6-5z" fill="url(#i)"/><path d="M69 58.4c-1.3 0-2.6-.3-3.8-.9l-8.1-4a2 2 0 0 0-1.5 0c-5.5 2.9-5.8 2.3-6.1 2-.5-.6-.3-1.5.4-2l3.3-3.1.3-.2 4.4-.4c3 0 8.5.8 10.3 1l12.1-4.2.3-.1h.2a5 5 0 1 1 1.6 9.6l-11.9 2.2a9 9 0 0 1-1.5.1zm-12.6-6c.4 0 .8.1 1.1.3l8.2 4c1.4.7 3 .9 4.6.6l12-2.2a3.8 3.8 0 0 0 3.2-2 4 4 0 0 0-.6-4.6c-1-1-2.5-1.5-4-1h-.2l-12.3 4.4h-.2a72 72 0 0 0-10.3-1.1l-4.1.4-3.3 3-.3.6c.5 0 1.9-.5 5-2.1a3 3 0 0 1 1.2-.3z" fill="#91674D"/><path d="M69 52.6h1.8l1.9.5c1 0 1.8-.3 1.9-.8s-.6-.8-1.1-1l-3.6-1h-2.8l-5.2.3 7.1 2z" fill="#99674F" stroke="#875740" stroke-linecap="round" stroke-linejoin="round" stroke-miterlimit="10"/><path d="M65.5 83.5a5.6 5.6 0 0 1 3.4-7.4l22-7.7 2.9 10-16.7 6.4a3.2 3.2 0 0 0-2 3.8l2.3 12.6-5.5.3-6.4-18z" fill="#99674F"/><path d="M90.5 69l2.7 9.1-16.3 6.3a3.7 3.7 0 0 0-2.3 4.3l2.2 12-4.5.3L66 83.4c-.5-1.4-.5-2.8 0-4.1s1.7-2.3 3-2.7L90.6 69m.6-1.3l-22.4 8a6.2 6.2 0 0 0-3.6 8l6.5 18.3 6.4-.3-2.4-13.2c-.4-1.3.4-2.7 1.6-3.2l17.2-6.6-3.3-11z" fill="#875740"/><path d="M77 72.8l9.3-3.4a6.3 6.3 0 0 1 4.3 11.8l-9.3 3.5L77 72.8z" fill="#04846C"/><path d="M88.5 69.5a5.8 5.8 0 0 1 2 11.3L81.6 84l-4-10.8 8.9-3.3c.6-.2 1.3-.4 2-.4m0-1a7 7 0 0 0-2.4.5l-9.7 3.6L81 85.3l9.7-3.6a6.8 6.8 0 0 0-2.3-13.2z" fill="#007861"/><linearGradient id="j" x1="100.1" x2="100.1" y1="96.2" y2="65.3" gradientUnits="userSpaceOnUse"><stop stop-color="#A47B62" offset="0"/><stop stop-color="#BA8D68" offset="1"/></linearGradient><path d="M95.4 93.4l-.7-.1h-.2a4.9 4.9 0 0 1-3.2-3v-.1l-8.4-20.9 11.2-4 6 19.3c0 .2.1.3.3.4l16.8 6.8-1.8 4.4-20-2.8z" fill="url(#j)"/><path d="M93.8 66l5.8 18.8c0 .3.3.5.6.6l16.3 6.7-1.4 3.5L95.5 93l-.7-.1h-.1c-.8-.3-1.5-.7-2-1.2-.4-.4-.7-.9-1-1.5l-8.1-20.5L93.8 66m.7-1.3L82.3 69l8.5 21.4c.3.7.7 1.3 1.2 1.9.7.7 1.5 1.1 2.4 1.4h.2l.8.2 20.3 2.8 2.2-5.2-17.3-7-6.1-19.9z" fill="#91674D"/><radialGradient id="k" cx="88.5" cy="52.8" r="16.1" gradientUnits="userSpaceOnUse"><stop stop-color="#00BFA5" offset="0"/><stop stop-color="#00B29A" offset=".7"/><stop stop-color="#00AB94" offset="1"/></radialGradient><path d="M88 85.3a30.8 30.8 0 0 1-3.8-8.2c-1.5-.8-2.2-3.1-2.3-5-.3-5.3-1-8.7-2-13.8l-.7-2.8c-1-5-1.3-8.6 1.3-9.5l1-.3a21 21 0 0 1 2-.5l2.1-.3c3.6 0 6.3 2.1 8.1 6.5a38.6 38.6 0 0 1 3.7 17.5 9 9 0 0 1-.4 2.7v.3a68.1 68.1 0 0 1 2.3 8.8A191 191 0 0 1 88 85.3z" fill="url(#k)"/><path d="M85.6 45.4c3.4 0 5.9 2 7.7 6.2a38 38 0 0 1 3.6 17.3c0 1.1-.2 1.9-.4 2.5v.7c.5 1.5 1 3.4 1.4 5.3l.8 3c-3.4 1.6-7 3-10.5 4.3a30.6 30.6 0 0 1-3.3-7.4 1 1 0 0 0-.5-.6c-1-.7-1.8-2.5-2-4.6a79 79 0 0 0-2.1-13.9l-.6-2.9c-1-4.7-1.2-8 1-8.8l1-.3a21 21 0 0 1 1.8-.6l2.1-.2m0-1c-.7 0-1.5 0-2.3.3l-3 .8c-3 1.1-2.6 5.3-1.6 10 1.4 6.7 2.4 10.4 2.7 16.6.2 2.2 1 4.5 2.5 5.4a31 31 0 0 0 4 8.4c4-1.5 8-3.1 12-4.9-.8-2.9-1.5-6.5-2.4-9.2.2-.9.4-1.8.4-2.9.2-5.8-1-12-3.7-17.8-.8-1.8-3.1-6.7-8.6-6.7z" fill="#009984"/><linearGradient id="l" x1="127" x2="127" y1="-195.9" y2="-172.2" gradientTransform="scale(-1 1) rotate(-23.8 565.6 310.6)" gradientUnits="userSpaceOnUse"><stop stop-color="#BA8D68" offset=".6"/><stop stop-color="#A47B62" offset=".8"/><stop stop-color="#99674F" offset="1"/></linearGradient><path d="M28.5 19.5c3.6-3.2 9.5-3 13.9-1 4.9 2.2 6.7 6.6 6.2 11.5-.2 1.8-.7 3.5-1.3 4.6l-.7 1.4c-.6 1.2 1.6 3.1 1.5 4.6 0 1.1-2.5 1.2-2.7 1.4-1 .7-1 5.6-7 4.4-2.2-.4-3.1-1-4 .4l-1 4-7-1s1.5-3.5 0-8.3c-.6-2.3-1-5-2.3-7.3-2.6-4.6 1.4-12 4.4-14.7z" fill="url(#l)"/><linearGradient id="m" x1="23.3" x2="48.7" y1="33.9" y2="33.9" gradientUnits="userSpaceOnUse"><stop stop-color="#91674D" offset="0"/><stop stop-color="#875740" offset="1"/></linearGradient><path d="M35.7 18c2.1 0 4.3.6 6.3 1.4 5.6 2.5 5.9 7.7 5.6 10.5a12 12 0 0 1-1.2 4.2v.1l-.8 1.5c-.4 1 .2 2.2.8 3.2l.7 1.6-1.4.4c-.4 0-.6 0-.8.2-.6.4-.8 1-1.1 1.7-.6 1.3-1.2 2.8-3.7 2.8-.4 0-1 0-1.5-.2l-1.1-.2-1.7-.3c-1 0-1.7.4-2.3 1.3l-.2.3-.7 3.2-4.8-.8a15 15 0 0 0-.4-7.7l-.5-2c-.5-1.8-1-3.7-2-5.4-2.2-4.1 1.5-11 4.3-13.5 2-1.9 4.7-2.2 6.5-2.2m0-1c-2.7 0-5.3.7-7.2 2.4-3 2.7-7 10.1-4.4 14.7 1.3 2.4 1.7 5 2.3 7.2 1.5 4.8 0 8.3 0 8.3l7 1 .9-4c.5-.6.9-.8 1.5-.8s1.4.3 2.6.5l1.7.2c4.3 0 4.3-4 5.3-4.6.2-.2 2.6-.3 2.7-1.4 0-1.5-2-3.4-1.5-4.6a15.9 15.9 0 0 0 2-6c.5-4.9-1.3-9.3-6.2-11.5-2-.9-4.4-1.4-6.7-1.4z" fill="url(#m)"/><radialGradient id="n" cx="98.9" cy="-62.2" r="13.2" gradientTransform="matrix(-1.0076 -.2517 -.2482 .969 124.8 108.7)" gradientUnits="userSpaceOnUse"><stop stop-color="#6D4C41" offset="0"/><stop stop-color="#543930" offset="1"/></radialGradient><path d="M33.6 38.4L33 33s-3.4 0-3.2 3.5c.2 2.5-1.7 4.8-2.8 4.9h-.7C26 37.8 22 36 23 26.7c.8-8 8.5-11.2 15.2-10.1 6.4 1 12.8 6.6 10.6 15 0 .4-8.5-.4-10.8 1.3-2.3 1.7-1.4 5.7-4.3 5.5z" fill="url(#n)"/><defs><path id="o" d="M28.5 31.8l-1.3 8.5.4 1h-.5l-.7.1C26 37.8 22 36 22.8 26.7c.9-8 8.6-11.2 15.3-10.1 6.4 1 12.8 6.9 10.7 15.1h-1l.2-1.3-9.9-.7-9.6 2z"/></defs><clipPath id="p"><use xlink:href="#o"/></clipPath><g clip-path="url(#p)"><path d="M35.5 17.4A13.2 13.2 0 0 1 46.6 23c1.4 2.2 2 5 1.4 7.8h-2.6c-4.3 0-6.8.4-8 1.3-1.3.9-1.8 2.3-2.2 3.4a5 5 0 0 1-.7 1.6L34 33c0-.5-.5-1-1-1a5 5 0 0 0-3.2 1.5c-.7.8-1 1.9-1 3.2a4.5 4.5 0 0 1-1.7 3.7c-.3-1-.7-1.9-1.3-2.8-1.2-2.3-2.7-4.9-2-10.7.6-6.5 6.3-9.4 11.6-9.4m0-1c-6 0-12 3.3-12.7 10.3-1 9.2 3.2 11 3.6 14.7h.7c1 0 3-2.4 2.8-4.9-.2-3.4 3.2-3.5 3.2-3.5l.5 5.4h.2c2.6 0 1.9-3.9 4.1-5.5 1.4-1 4.8-1.1 7.4-1.1h3.5c2.1-8.5-4.3-14.1-10.7-15.2l-2.6-.2z" fill="#402821"/></g><path d="M42.5 40.8l2.2 1-.7 1.4c-1.4 2.1-3.6 4.2-7.7 2.8-.4 0 3.4-4.7 3.4-4.7l2.8-.5z" fill="none"/><defs><path id="q" d="M28.5 19.5c3.6-3.2 9.5-3 13.9-1 6 2.7 7.7 8.4 5.8 14.6l-1.5 3.5c-.9 2.1 1 2.1 1 3.9 0 1.6-2 1.3-2.3 1.5-1 .7-1 5.6-7 4.4-2.2-.4-3.1-1-4.1.3l-2 4-5.8-1S27.9 41 24 34.2c-2.6-4.6 1.4-12 4.4-14.7z"/></defs><clipPath id="r"><use xlink:href="#q"/></clipPath><g clip-path="url(#r)"><path d="M48.8 43.1c-1.9 1.5-5.2 2-6.8 0-.7-.9 0-1.4.8-.8 1.3 1 4 .8 5.1-.2.8-.6 1.6.4.9 1z" fill="#795548"/></g><ellipse transform="rotate(-77.9 43.2 37)" cx="43.2" cy="36.9" rx="1.8" ry="1.1" fill="#404040"/><path d="M44.4 34.8c1 .6 1.4 0 1.2-.7 0-.5-.6-1-2-1.2-1.1-.2-1.9.3-2.3.6s-.6.8-.3.9c.3.1 2.2-.5 3.4.4z" fill="#6D4C41"/><path d="M47.6 101.8l-4.8-16.4c-.4-1-1.2-2-2.3-2.2l-18.4-4.6 4-12 21 8h.1a5 5 0 0 1 3.4 4l1.8 23.2h-4.8z" fill="#99674F"/><path d="M26.4 67.2L47 75h.1c.6.2 1 .5 1.5 1a4 4 0 0 1 1.5 2.6l1.7 22.7H48l-4.7-16a3.7 3.7 0 0 0-2.6-2.6l-18-4.5 3.7-11m-.6-1.3l-4.3 13 18.9 4.8c.9.2 1.6 1 1.9 1.8l5 16.8h5.6l-1.8-23.9a5.5 5.5 0 0 0-3.7-4.3l-21.6-8.2z" fill="#875740"/><circle cx="25.4" cy="72.4" r="6.8" fill="#FBC11B"/><path d="M24.6 79.7a6.9 6.9 0 0 1 4.8-13L38 70l-4.8 13-8.7-3.2z" fill="#E65100"/><path d="M27 66.8c.7 0 1.5.1 2.2.4l8.3 3-4.5 12-8.2-3A6.4 6.4 0 0 1 27 66.8m0-1a7.4 7.4 0 0 0-2.6 14.3l9.2 3.4 5.2-13.9-9.3-3.3c-.8-.4-1.7-.5-2.5-.5z" fill="#D44700"/><linearGradient id="s" x1="23.3" x2="23.3" y1="99" y2="71.9" gradientUnits="userSpaceOnUse"><stop stop-color="#A47B62" offset="0"/><stop stop-color="#BA8D68" offset="1"/></linearGradient><path d="M11 93.5L23.7 87c.5-.3.9-.7 1-1.2s0-1.1-.2-1.6l-4-8.2 10-4L35 83.5a6.4 6.4 0 0 1-3.6 8.5l-17.7 7-2.7-5.5z" fill="url(#s)"/><path d="M30 72.5l4.6 11.2c.6 1.5.6 3.1 0 4.6s-1.8 2.6-3.3 3.2L14 98.4l-2.3-4.6L24 87.4c.6-.4 1-1 1.2-1.6.2-.7.1-1.3-.2-2l-4-7.6 9-3.6m.5-1.3l-10.8 4.4 4.2 8.8c.4.7.2 1.7-.6 2l-13 7 3.1 6.2 18.2-7.2a7 7 0 0 0 3.8-9.1l-4.9-12z" fill="#91674D"/><radialGradient id="t" cx="27.4" cy="52.9" r="15.7" gradientUnits="userSpaceOnUse"><stop stop-color="#FB8C00" offset=".2"/><stop stop-color="#F67F00" offset=".6"/><stop stop-color="#EF6C00" offset="1"/></radialGradient><path d="M23.5 84.7l-2.2-4.3-2.5-4.7c-.1-.3-.3-1-.4-2.1v-.3a4 4 0 0 1-1.2-2.5 47.8 47.8 0 0 1 4.4-19.4c.7-1.8 4.6-6.4 9-6.4.4 0 .8 0 1.3.2l2.9.8a3 3 0 0 1 1.7 1.6c.8 1.7.4 4.3-1 7.3-1.6 4.6-1.8 9.3-2 13.8 0 1.5 0 2.9-.2 4.2 0 1-.2 1.8-.5 2.5v.3l1.7 4c-3.6 1.8-7.3 3.4-11 5z" fill="url(#t)"/><path d="M30.6 45.5c.3 0 .7 0 1.1.2l3 .8c.6.3 1 .7 1.4 1.3.6 1.5.3 4-1 7a42.5 42.5 0 0 0-2 13.9l-.3 4.2c0 .9-.2 1.6-.5 2.3a1 1 0 0 0 0 .8c.6 1.3 1.2 2.5 1.5 3.5l-10 4.6-2-4c-1-1.6-1.9-3.3-2.5-4.6l-.4-2c0-.1 0-.4-.2-.5-.6-.7-1-1.5-1-2.2A47.3 47.3 0 0 1 22 51.6c.8-1.7 4.5-6 8.6-6m0-1c-4.6 0-8.7 4.6-9.5 6.6a47.9 47.9 0 0 0-4.4 19.7c0 1 .5 1.9 1.2 2.7 0 1 .3 2 .5 2.4l4.9 9.3c4-1.6 8-3.4 11.8-5.4-.4-1-1-2.7-1.9-4.4a9 9 0 0 0 .6-2.5c.4-5.5 0-12 2.2-17.8 2-4.5 2-8.5-1-9.6l-3-1h-1.5z" fill="#DB6300"/><linearGradient id="u" x1="27.5" x2="66.8" y1="59.9" y2="59.9" gradientUnits="userSpaceOnUse"><stop stop-color="#A47B62" offset="0"/><stop stop-color="#BA8D68" offset="1"/></linearGradient><path d="M66.8 68c.1-.8-4.3.1-4.3-.2 0-.4 3.9-.5 3.5-1.7-.3-.7-3.9.2-5 0 0 0-1.7.2-2.7-.3-.7-.4 2-1 2.7-1.9.6-1-1.6-.8-3.5 0-.8.4-2.8.6-3.6.6h-.3l-10-3.4a5.2 5.2 0 0 1-3-2.5l-4.8-9.2v-.2h-.1a4.4 4.4 0 0 0-7.7 4.2v.1l.7 1 6 9.2a8 8 0 0 0 4.5 3.4l14.6 4c.8.4 1.9.6 3.1 1 3.7 1 7.8 1 8 0 .2-.5-4-.6-4-1.1 0-.4 4.8.3 5-1 0-.8-4.3-.4-4.3-.7.1-.4 5 0 5.2-1.4z" fill="url(#u)" stroke="#91674D" stroke-linecap="round" stroke-linejoin="round" stroke-miterlimit="10"/><linearGradient id="v" x1="70.8" x2="75.7" y1="67.9" y2="93.1" gradientUnits="userSpaceOnUse"><stop stop-color="#A47B62" offset="0"/><stop stop-color="#BA8D68" offset="1"/></linearGradient><path d="M49.5 68c0-.7 4.3.2 4.4-.1 0-.4-4-.5-3.5-1.7.2-.8 3.8.1 4.9 0 0 0 1.7.1 2.8-.4.7-.3-2.1-.9-2.7-1.8-.7-1 1.6-.9 3.4 0 .8.4 2.9.6 3.7.6h.3l12-4 5.7-11.1.1-.2v-.1h.1a4.4 4.4 0 0 1 7.7 4.3v.1l-.7 1-7.5 10.2a3 3 0 0 1-1.7 1.6h-.1v.1l-.4.1h-.2l-15.2 4.7v-.1c-.8.4-2 .6-3.2 1-3.7 1-7.7 1-8 0-.2-.5 4-.6 4-1.1 0-.4-4.8.3-5-1 0-.8 4.4-.4 4.3-.7 0-.4-5 0-5.2-1.4z" fill="url(#v)" stroke="#91674D" stroke-linecap="round" stroke-linejoin="round" stroke-miterlimit="10"/><path fill="#E0E0E0" d="M46.8 103.3l-1.1-6 7.5-.7-.4 6.7z"/><path d="M52.7 97.2l-.3 5.6h-5.2l-1-5 6.5-.6m1-1.1l-8.6.8 1.3 7h7l.3-7.8z" fill="#BFBFBF"/><path d="M45.4 110a.5.5 0 0 1-.5-.3l-.2-.5v-2.8c0-1.3 1.1-3 1.7-3.6h6.8l6.3 2c1.3.6 2.2 1.9 2.2 3.4v1.3a.5.5 0 0 1-.5.5H45.4z" fill="#FB8C00"/><path d="M46.6 103.3h6.5l6.2 2a3 3 0 0 1 2 2.9l-.1 1.3H45.4l-.1-.1-.1-.2v-2.8c0-1 .9-2.4 1.4-3.1m-.4-1s-2 2.2-2 4.1v2.8c0 .7.5 1.2 1.2 1.2h15.8c.5 0 1-.4 1-1v-1.2a4 4 0 0 0-2.6-3.8l-6.3-2.1h-7.1z" fill="#E37200"/><path fill="#E0E0E0" d="M70.1 98.2l7-1.2 1 6.3h-5.7z"/><path d="M76.7 97.6l.7 5.2h-4.7l-1.9-4.2 6-1m.8-1.2l-8.2 1.4 2.7 6h6.5l-1-7.4z" fill="#BFBFBF"/><radialGradient id="w" cx="72.3" cy="105.8" r="6.5" gradientUnits="userSpaceOnUse"><stop stop-color="#00AB94" offset="0"/><stop stop-color="#00AB94" offset="1"/></radialGradient><path d="M64.3 109.3l-.3-.1a.5.5 0 0 1-.2-.4v-1.3c0-1.4.9-2.7 2.3-3.3l6.2-2h6.8c.4.5 1.7 2.1 1.7 3.6v2.8c0 .2 0 .4-.2.5l-.4.2H64.3z" fill="url(#w)"/><path d="M78.9 102.7c.5.7 1.4 2 1.4 3v3l-.1.1H64.3v-1.2a3 3 0 0 1 2-2.9l6.1-2H79m.4-1h-7l-6.4 2a4 4 0 0 0-2.6 3.8v1.3c0 .6.5 1 1 1h15.9c.6 0 1.1-.5 1.1-1.2v-2.8c0-2-2-4.1-2-4.1z" fill="#009984"/><path fill="#E0E0E0" d="M9.7 93.4l6.8-3.7 3 7.8-7.6 3z"/><path d="M16.2 90.5l2.7 6.7-6.6 2.6-2-6.1 6-3.2m.4-1.5l-7.6 4.2 2.5 8 8.6-3.4-3.5-8.8z" fill="#BFBFBF"/><path d="M9.8 110a.5.5 0 0 1-.5-.4L4.5 94.5V94c0-.2.3-.3.5-.3l2.7-.9a9.9 9.9 0 0 1 3.7-.3l2.3 7.3-.1 6.6c-.1 1.5-1 2.7-2.5 3.2l-1.2.4h-.1z" fill="#FB8C00"/><path d="M10.5 93h.5l2.2 6.9v6.5a3 3 0 0 1-2.2 2.7l-1.3.4L5 94.4v-.2h.1l2.7-1c1-.2 2-.2 2.7-.2m0-1c-.8 0-2 0-3 .3l-2.7.9c-.6.2-1 .8-.7 1.4l4.7 15.2a1 1 0 0 0 1.3.6l1.2-.4a4 4 0 0 0 2.8-3.6l.1-6.7-2.4-7.7h-1.3z" fill="#E37200"/><path fill="#E0E0E0" d="M108.2 96l2.9-7.2 7.2 2.9-2 6z"/><path d="M111.4 89.4l6.3 2.5-1.6 5.2-7.2-1.5 2.5-6.2m-.6-1.3l-3.3 8.2 9.2 2 2.2-7-8.1-3.2z" fill="#BFBFBF"/><radialGradient id="x" cx="119.5" cy="98.7" r="7" gradientUnits="userSpaceOnUse"><stop stop-color="#00AB94" offset="0"/><stop stop-color="#00AB94" offset="1"/></radialGradient><path d="M118.9 107.5h-.2l-1.2-.4a3.5 3.5 0 0 1-2.5-3.1v-6.6l2.2-7.4h.9a7 7 0 0 1 2.8.4l2.7.8c.2 0 .4.2.4.3v.5l-4.7 15.2c0 .2-.2.3-.4.3z" fill="url(#x)"/><path d="M118.1 90.5a9 9 0 0 1 2.7.3l2.7.9h.1v.2L119 107l-1.3-.4a3 3 0 0 1-2-2.7l-.2-6.5 2.2-6.9h.5m0-1h-1.3l-2.4 7.8.1 6.7a4 4 0 0 0 2.8 3.6l1.2.4h.4a1 1 0 0 0 1-.7l4.7-15.1c.1-.6-.2-1.3-.8-1.5l-2.7-.8a10 10 0 0 0-3-.4z" fill="#009984"/></svg>