<svg xmlns="http://www.w3.org/2000/svg" viewBox="0 0 36 36"><path fill="#77B255" d="M26 26.2v.8H6v9h24v-9.8z"/><path fill="#D5AB88" d="M14 27s.8 2 3.5 2 3.5-2 3.5-2v-3.9l-7-.1v4z"/><path fill="#CC9B7A" d="M14 25a4 4 0 0 0 3.5 1.5A4 4 0 0 0 21 25v-3.5h-7V25z"/><path fill="#D5AB88" d="M11.8 16.2c0 1.3-.6 2.3-1.4 2.3-.8 0-1.4-1-1.4-2.3 0-1.3.6-2.3 1.4-2.3.8 0 1.4 1 1.4 2.3m14.3 0c0 1.3-.6 2.3-1.4 2.3-.8 0-1.4-1-1.4-2.3 0-1.3.6-2.3 1.4-2.3.8 0 1.4 1 1.4 2.3"/><path fill="#D5AB88" d="M10.1 17c0-4.8 3.4-8.8 7.4-8.8 4.1 0 7.5 4 7.5 8.9S21.6 26 17.5 26c-4 0-7.4-4-7.4-9"/><path fill="#C1694F" d="M17.5 23.1c-2.4 0-3-.6-3.2-.7a.6.6 0 0 1 0-.9c.2-.2.6-.2.8 0 0 0 .6.4 2.4.4 2 0 2.5-.4 2.5-.4.2-.2.6-.2.8 0 .2.3.2.6 0 .9-.1 0-.9.7-3.3.7"/><path fill="#963B22" d="M17.5 5.2c5 0 8 3.7 8 6.8 0 3-.6 4.2-1.2 3l-1.2-2.4s-3.7 0-5-1.3c0 0 1.9 3.7-1.8 0 0 0 .6 2.5-3-.6 0 0-1.9 1.3-2.5 4.3-.2.9-1.2 0-1.2-3s2.4-6.8 8-6.8"/><path fill="#662113" d="M14 17.1a.9.9 0 0 1-.8-.9v-.8c0-.5.4-1 .9-1 .4 0 .8.5.8 1v.8c0 .5-.4 1-.8 1m7 0a.9.9 0 0 1-1-1v-.8c0-.5.4-1 1-1 .4 0 .8.5.8 1v.8c0 .5-.4 1-.9 1"/><path fill="#C1694F" d="M18.2 19.5h-1.3a.7.7 0 0 1-.7-.6c0-.4.3-.7.7-.7h1.3c.4 0 .7.3.7.7 0 .3-.3.6-.7.6"/><path fill="#D1D3D4" d="M5.9 14.2S2 15.6 1.7 20.4c0 0-2.4-4.8-.5-10.1l4.7 4zM20 6s-2.8-3-7.4-1.5c0 0 3.5-4 9.2-4.4L20 6zm9.2 10.3s2-3.5-1-7.4c0 0 5 2 7.1 7.3l-6.1.1z"/><circle fill="#5C913B" cx="4.6" cy="11" r="3.5"/><circle fill="#BE1931" cx="22.5" cy="3.5" r="3.5"/><circle fill="#3B88C3" cx="32.4" cy="17.9" r="3.5"/><path fill="#CC9B7A" d="M32.6 23.5a1 1 0 0 0-1.1-.8l-2 .4h-1.9c-.8 0-1.5.7-1.5 1.6v1.6h3.8c.9 0 1.5-.7 1.6-1.5l.2-.1h.5v-.2c.3-.2.5-.6.4-1z"/><path fill="#D5AB88" d="M36 24c0-.5-.3-.9-.7-.9l-4.6.8h-3.9c-.4 0-.7.4-.7.8l-.1 1.6h4.6l4.7-1.6s.8-.3.8-.8z"/><path fill="#CC9B7A" d="M3.4 27.2a1 1 0 0 1 1.2-.7l2 .4h1.9c.8 0 1.5.7 1.5 1.5V30H6.2c-.9 0-1.5-.7-1.6-1.5h-.8v-.2a1 1 0 0 1-.4-1z"/><path fill="#D5AB88" d="M0 27.7c0-.5.3-.8.8-.8l4.6.8h3.8c.5 0 .8.3.8.7V30H5.4L.8 28.4s-.8-.3-.8-.7z"/><path fill="#5C913B" d="M10 30h1v6h-1zm15-3h1v9h-1z"/></svg>