<svg viewBox="0 0 128 128" xmlns="http://www.w3.org/2000/svg" xmlns:xlink="http://www.w3.org/1999/xlink"><path fill="#FFB300" d="M41.3 47.95L4.5 43.69v.72l36.45 5.57z"/><path d="M40.95 50.48c-.03 0-.05 0-.08-.01L4.43 44.91a.505.505 0 0 1-.43-.5v-.72c0-.14.06-.28.17-.37.11-.1.25-.14.39-.12l36.8 4.25c.14.02.26.09.34.2s.12.25.09.38l-.35 2.04c-.04.24-.25.41-.49.41zm-28.69-5.39l28.29 4.32.18-1.03-28.47-3.29z" fill="#E69200"/><ellipse transform="rotate(-82.334 37.759 48.263)" cx="37.76" cy="48.27" rx="5.86" ry="2.04" fill="#FFB300"/><path d="M37.08 54.58c-.06 0-.11 0-.17-.01-.54-.07-1.26-.53-1.62-2.29-.24-1.2-.26-2.75-.04-4.35.42-3.13 1.71-6.19 3.36-5.96 1.65.22 2.09 3.51 1.67 6.64-.22 1.6-.64 3.09-1.19 4.18-.74 1.44-1.47 1.79-2.01 1.79zm-.84-6.52c-.2 1.5-.19 2.92.03 4.02.2.99.53 1.46.78 1.5.24.02.69-.34 1.14-1.24.5-1 .89-2.37 1.09-3.87.46-3.44-.29-5.45-.81-5.52h-.03c-.53 0-1.75 1.74-2.2 5.11z" fill="#E69200"/><linearGradient id="a" x1="93.84" x2="98.686" y1="68.092" y2="115.84" gradientUnits="userSpaceOnUse"><stop stop-color="#ECEFF1" offset="0"/><stop stop-color="#B0BEC5" offset="1"/></linearGradient><path fill="url(#a)" d="M96.65 119.55h6.16l-.87-23.8-10.45 1.4z"/><linearGradient id="b" x1="75.179" x2="57.632" y1="76.47" y2="116.9" gradientUnits="userSpaceOnUse"><stop stop-color="#ECEFF1" offset="0"/><stop stop-color="#B0BEC5" offset="1"/></linearGradient><path fill="url(#b)" d="M67.16 121.27h-6.27l-5.16-26.3 11.11-.22z"/><linearGradient id="c" x1="72.748" x2="63.614" y1="42.977" y2="59.024" gradientUnits="userSpaceOnUse"><stop stop-color="#ECEFF1" offset="0"/><stop stop-color="#B0BEC5" offset="1"/></linearGradient><path fill="url(#c)" d="M59.27 57.45l5.92 4.22 11.95-17.19-7.39-4.99z"/><linearGradient id="d" x1="50.621" x2="66.082" y1="52.286" y2="63.812" gradientUnits="userSpaceOnUse"><stop stop-color="#ECEFF1" offset="0"/><stop stop-color="#B0BEC5" offset="1"/></linearGradient><path d="M64.32 57.08l.01-.02-.08-.05c-.36-.31-.77-.54-1.22-.69l-15.92-9.03-3.41 5.29L59.48 62.6c.27.23.57.43.9.57l.06.04.01-.01c.38.16.79.27 1.23.29 2.04.1 3.77-1.46 3.87-3.5.05-1.16-.44-2.2-1.23-2.91z" fill="url(#d)"/><path d="M61.86 64.49c-.08 0-.16 0-.24-.01-.46-.02-.94-.13-1.42-.31a.982.982 0 0 1-.32-.13c-.31-.13-.67-.36-1.01-.64l-15.72-9.98c-.22-.14-.38-.37-.44-.63s-.01-.53.14-.76l3.41-5.29c.29-.44.87-.59 1.33-.33l12.73 7.22 8.55-14.65c.14-.24.37-.41.64-.47s.55-.01.78.15l7.39 4.98a1 1 0 0 1 .42.65 1 1 0 0 1-.16.75l-11.93 17.2c-.1.14-.24.26-.39.33a4.625 4.625 0 0 1-3.76 1.92zm-1.1-2.25a2.818 2.818 0 0 0 .97.25c1.01.06 1.97-.48 2.48-1.39.11-.19.28-.34.48-.43l11.06-15.93-5.66-3.82-8.53 14.58c-.28.47-.88.63-1.36.37l-12.77-7.25-2.35 3.65 14.93 9.48c.04.03.08.05.11.08.2.17.42.31.64.41z" fill="#90A4AE"/><linearGradient id="e" x1="96.759" x2="113.55" y1="41.811" y2="47.181" gradientTransform="rotate(16.367 98.443 40.229)" gradientUnits="userSpaceOnUse"><stop stop-color="#ECEFF1" offset="0"/><stop stop-color="#B0BEC5" offset="1"/></linearGradient><path fill="url(#e)" d="M110.45 55.88l3.63-6.63-15.49-12.1-3.71 8.73z"/><linearGradient id="f" x1="116.93" x2="111.61" y1="32.299" y2="53.307" gradientUnits="userSpaceOnUse"><stop stop-color="#B0BEC5" offset="0"/><stop stop-color="#CFD8DC" offset=".521"/><stop stop-color="#B0BEC5" offset="1"/></linearGradient><path d="M115.51 52.45l4.33-19.25-6.15-.69-5.05 18.06c-.12.22-.23.45-.31.7-.1.32-.15.65-.16.98l-.01.05h.01c-.04 1.6.94 3.1 2.54 3.61 1.77.57 3.64-.27 4.43-1.89h.02l.02-.1c.06-.13.13-.25.17-.39.11-.35.15-.72.16-1.08z" fill="url(#f)"/><path d="M111.81 57.09c-.47 0-.95-.07-1.41-.22-.01 0-.02-.01-.03-.01a.951.951 0 0 1-.46-.14l-.36-.23c-.06-.03-.18-.11-.31-.2l-14.91-9.57a.996.996 0 0 1-.38-1.23l3.71-8.73c.12-.29.37-.5.67-.58s.62-.01.87.18l10.17 7.95 3.56-12.88c.13-.48.59-.79 1.08-.73l6.14.73c.28.03.54.18.7.42.16.23.22.52.16.8l-4.5 19.93c-.01.47-.08.88-.21 1.27-.05.14-.11.28-.17.41-.03.15-.1.29-.2.4a4.73 4.73 0 0 1-4.12 2.43zm-1.12-2.24c.05.01.11.02.16.04.06.02.11.05.17.07 1.25.41 2.64-.19 3.22-1.38v-.01l.09-.18c.03-.05.05-.1.07-.16.07-.22.11-.48.11-.79 0-.07.01-.14.02-.21l4.28-18.94-4.18-.5-3.73 13.49c-.09.32-.33.58-.65.68a1 1 0 0 1-.93-.16L99 38.74l-2.87 6.75 14.18 9.11c.13.09.19.13.26.17l.12.08z" fill="#90A4AE"/><linearGradient id="g" x1="86.024" x2="86.024" y1="11.958" y2="34.234" gradientUnits="userSpaceOnUse"><stop stop-color="#FFCA28" offset=".545"/><stop stop-color="#FFB300" offset=".834"/><stop stop-color="#E59600" offset=".995"/></linearGradient><path d="M97.55 13.1c-1.7-4.27-6.88-7.02-11.48-6.99-6.36.03-11.83 3.89-11.8 10.71l.27 3.01c.35 2.3-.27 3.1-.73 4.64-.37 1.21-.3 3.36 1.03 5.12 1.09 1.44 3.84 3.34 5.28 3.34 2.08 0 2.8.33 3.13 1.9l.5 4.21h7.45l.36-6.12c.2-2.38 1.54-4.49 3.57-5.75 2.91-1.8 4.36-9.2 2.42-14.07z" fill="url(#g)"/><linearGradient id="h" x1="73.614" x2="98.434" y1="22.576" y2="22.576" gradientUnits="userSpaceOnUse"><stop stop-color="#EDA600" offset="0"/><stop stop-color="#D18900" offset=".871"/></linearGradient><path d="M86.13 7.11c4.54 0 9.05 2.74 10.49 6.36 1.83 4.62.37 11.36-2.02 12.84-2.31 1.43-3.82 3.87-4.05 6.54l-.31 5.18h-5.62l-.4-3.33c0-.03-.01-.06-.01-.08-.51-2.49-2.24-2.7-4.11-2.7-1.01 0-3.48-1.62-4.48-2.94-1.05-1.39-1.19-3.17-.87-4.22.1-.32.2-.6.3-.88.4-1.1.78-2.15.47-4.18l-.26-2.94c-.01-6.6 5.59-9.64 10.81-9.66l.06.01m0-1h-.06c-6.36.03-11.83 3.89-11.8 10.71l.27 3.01c.35 2.3-.27 3.1-.73 4.64-.37 1.21-.3 3.36 1.03 5.12 1.09 1.44 3.84 3.34 5.28 3.34 2.08 0 2.8.33 3.13 1.9l.5 4.21h7.45l.36-6.12c.2-2.38 1.54-4.49 3.57-5.75 2.91-1.8 4.36-9.2 2.42-14.06-1.69-4.26-6.84-7-11.42-7z" fill="url(#h)"/><radialGradient id="i" cx="83.7" cy="11.49" r="12.764" gradientUnits="userSpaceOnUse"><stop stop-color="#6D4C41" offset="0"/><stop stop-color="#543930" offset="1"/></radialGradient><path d="M85.69 22.58c.09.71.09 2.04 1.58 2.77l2.31-4.45s.04.03.12.07c1.46.98 1.92 2.93 1.14 4.5l-.37.73c-.64 1.69.07 4.71 1.85 5.01l.18.03c1.24-3.28 4.98-2.88 6.73-11.51 1.29-6.38-1.59-12.03-9.83-13.72-7.85-1.61-14.77 1.72-15.31 9.39l6.64 2.47c1.41.32 2.69 1.09 3.6 2.21.66.81 1.26 1.74 1.36 2.5z" fill="url(#i)"/><ellipse cx="81.57" cy="24.23" rx="1.31" ry="1.97" fill="#404040"/><defs><path id="j" d="M92.23 28.18l-1.36 2.09s.56.69 1.04.88c.11.04.3.06.42.08l.18.03c1.24-3.28 4.98-2.88 6.73-11.51 1.29-6.38-1.59-12.03-9.83-13.72-7.85-1.61-14.77 1.72-15.31 9.39l1.76.67.35-1.88 1.03-2.33 16.56 4.25 1.51 6.34-3.08 5.71z"/></defs><clipPath id="k"><use xlink:href="#j"/></clipPath><g clip-path="url(#k)"><path d="M85.63 7.63c1.09 0 2.22.12 3.37.36 6.45 1.32 9.46 5.46 8.27 11.36-1 4.93-2.62 6.44-4.06 7.77-.32.3-.64.59-.95.92-.05-.36-.04-.74.05-1.04l.31-.62c1.24-2.49.47-5.52-1.81-7.06-.14-.1-.23-.14-.23-.14a2.1 2.1 0 0 0-1-.26 2.01 2.01 0 0 0-1.78 1.07l-.53 1.02c-.3-.67-.76-1.38-1.39-2.15a8.525 8.525 0 0 0-4.58-2.87l-5-1.89c.89-4.08 4.29-6.47 9.33-6.47m0-2c-6.18 0-11.08 3.38-11.54 9.79l6.64 2.47c1.41.32 2.69 1.09 3.6 2.21.64.79 1.25 1.72 1.35 2.48.09.71.09 2.04 1.58 2.77l2.31-4.45s.04.03.12.07c1.46.98 1.92 2.93 1.14 4.5l-.37.73c-.64 1.69.07 4.71 1.85 5.01l.18.03c1.24-3.28 4.98-2.88 6.73-11.51 1.29-6.38-1.59-12.03-9.83-13.72-1.27-.25-2.54-.38-3.76-.38z" fill="#402821"/></g><path d="M81.1 21.37c-1.06-.19-1.78-.54-1.42-1.06.62-.9 2.23-.49 2.78-.28 1.36.52 1.79 1.55 1.93 1.86s.11.85-.2.8c-.22-.04-.9-.92-3.09-1.32z" fill="#6D4C41"/><path d="M76.82 22.36c0 1.09-.34 1.92-.84 1.92s-.46-3.87.03-3.87.81.86.81 1.95z" fill="#404040"/><path d="M75.47 18.01c.51.03.87.24 1.1.39.58.39.78.75.85 1.11.06.33.11.76-.2.7-.2-.03.25-.02-1.52-.45-.17-.04-.82-1.79-.23-1.75z" fill="#6D4C41"/><linearGradient id="l" x1="71.147" x2="71.147" y1="67.024" y2="116.09" gradientUnits="userSpaceOnUse"><stop stop-color="#ECEFF1" offset="0"/><stop stop-color="#B0BEC5" offset="1"/></linearGradient><path d="M86.65 74.78L75.21 63.5 57.25 90.38c-1.94 1.98-2.18 5.13-.42 7.37a5.605 5.605 0 0 0 7.88.95 5.607 5.607 0 0 0 2.11-3.8l19.83-20.12z" fill="url(#l)"/><linearGradient id="m" x1="91.126" x2="95.274" y1="72.384" y2="113.25" gradientUnits="userSpaceOnUse"><stop stop-color="#ECEFF1" offset="0"/><stop stop-color="#B0BEC5" offset="1"/></linearGradient><path fill="url(#m)" d="M91.49 97.15l10.45-1.4-6.26-32.8-13.39 5.57z"/><linearGradient id="n" x1="84.13" x2="85.118" y1="27.377" y2="67.125" gradientUnits="userSpaceOnUse"><stop stop-color="#ECEFF1" offset="0"/><stop stop-color="#B0BEC5" offset="1"/></linearGradient><path d="M71.56 38.19l4.47-1.27 15.64-1.4 5.53 1.02c1.97.39 3.31 2.21 3.05 4.17L96.7 68.37l-10.3 9.56c-1.07.99-2.75.95-3.76-.09l-10.17-10.4-3.76-24.68c-.31-2 .9-3.93 2.85-4.57z" fill="url(#n)"/><path d="M38.01 48.96l-.02.28a4.49 4.49 0 0 0 4.15 4.81l1.08.08a4.49 4.49 0 0 0 4.81-4.15l.02-.28a4.49 4.49 0 0 0-4.15-4.81l-1.08-.08a4.49 4.49 0 0 0-4.81 4.15z" fill="#CFD8DC"/><path d="M48.02 50.16l.05-.63a4.322 4.322 0 0 0-3.99-4.63l-1.43-.11c-.79-.06-1.54.11-2.2.44.13.03 1.25-.28 2.03.42.66.6-.02.79.68 1.59.45.51 1.04-.29 2.07.35.55.34.44.8.48 1.5.03.52.94.31.74 1.36-.14.75-.83 1.99-.83 1.99s.39.54 1.14.18c.79-.7 1.17-1.31 1.26-2.46z" fill="#B0BEC5"/><path d="M67.16 122.27h-6.27c-.48 0-.89-.34-.98-.81l-4.93-25.12a6.57 6.57 0 0 1 1.49-6.6l14.97-22.41-3.73-24.42c-.38-2.49 1.1-4.88 3.53-5.68l4.51-1.28c.06-.02.12-.03.18-.03l15.64-1.4c.09-.01.18 0 .27.01l5.53 1.02c2.49.49 4.18 2.81 3.86 5.28l-3.52 27.38 5.2 27.34c.01.05.01.1.02.15l.86 23.8c.01.27-.09.54-.28.73s-.45.31-.72.31h-6.15c-.47 0-.87-.32-.97-.78l-5.16-22.4-5.71-17.75c-.46.03-.92-.03-1.36-.17L67.85 95.29l.31 25.97c0 .27-.1.52-.29.71s-.44.3-.71.3zm-5.45-2h4.43l-.3-25.37c0-.27.1-.52.29-.71L82.5 77.56c.32-.33.82-.39 1.21-.17.44.25.96.3 1.43.14a.993.993 0 0 1 1.29.63l6 18.68 5.01 21.7h4.32l-.82-22.69-5.22-27.42c-.02-.1-.02-.21-.01-.31l3.54-27.54c.18-1.43-.81-2.78-2.25-3.06l-5.39-1L76.2 37.9l-4.38 1.24a3.158 3.158 0 0 0-2.14 3.47l3.74 24.53c.11.3.1.65-.08.91L58.08 90.93c-.03.05-.07.1-.12.14a4.583 4.583 0 0 0-1.07 4.7c.01.04.03.08.03.13l4.79 24.37z" fill="#90A4AE"/><linearGradient id="o" x1="58.827" x2="58.827" y1="114.85" y2="122.26" gradientUnits="userSpaceOnUse"><stop stop-color="#CFD8DC" offset="0"/><stop stop-color="#90A4AE" offset="1"/></linearGradient><path d="M59.93 116.64l-7.35 1.92c-.94.27-1.68.99-1.98 1.92a1.92 1.92 0 0 0 1.82 2.52h14.74v-6.36h-7.23z" fill="url(#o)"/><linearGradient id="p" x1="100.71" x2="100.71" y1="113.62" y2="122.03" gradientUnits="userSpaceOnUse"><stop stop-color="#CFD8DC" offset="0"/><stop stop-color="#90A4AE" offset="1"/></linearGradient><path d="M102.67 114.82l3.98 4.52c.27.32.42.72.42 1.14v.27c0 .71-.52 2.25-1.23 2.25h-9.01c-1.76 0-2.59-2.93-2.43-4l.03-.17c.2-1.31 1.19-4 1.19-4h7.05z" fill="url(#p)"/><path d="M82.67 5.61s-7.03.26-9.37 7.3c-2.11 6.36-3.36 17.66 5.16 19.38 0 0 5.64-.96 8.13-11.85C89.5 7.73 82.67 5.61 82.67 5.61z" fill="#37474F" opacity=".87"/><path d="M85.86 25.03s-2.28 6.42-6.42 7.26c-1.28.26-3.17-.56-3.17-.56l.32 4.96-1.93.65 2.28.62c1.95.47 3.76 1.43 5.25 2.78 1 .9 2.33 1.4 3.67 1.28 1.74-.16 4.02-1 5.47-3.96 2.62-5.35 1.75-13.02 1.75-13.02h-7.22z" fill="#CFD8DC"/><path d="M87.35 20.61h9.16s-.36 4.06-2.05 7.34c-.84 1.63-2.48 2.36-4.01 2.36h-6.04l2.94-9.7z" fill="#B0BEC5"/><path d="M76.44 34.99s2.96.83 5.81.48c2.86-.34 5.56-3.61 6.94-10.44h-4.05s-2.16 6.5-5.37 6.87c-2.73.31-3.52.06-3.52.06l.19 3.03z" fill="#B0BEC5"/><path d="M85.8 12.83c.12 2.98-.06 5.53-.49 7.77H96.5c1.56-10.9-2.1-13.57-6.86-14.64-3.57-.8-7.09-.32-7.09-.32s3.04 1.74 3.25 7.19z" fill="#78909C"/><defs><path id="q" d="M119.29 21.95c-4.44-.88-8.65-.38-8.5 1.92 0 0-2.06 1.46-1.89 2.45.08.47.86 5.2.86 5.2s1.89 2.99 2.6 3.6c.22.19 1.48.37 1.48.37l.19-1.19 4.44.73-.23 1.07s1.14.68 1.39.55c1.3-.68 2.32-2.41 2.77-3.36.34-.72 4.67-9.8-3.11-11.34z"/></defs><clipPath id="r"><use xlink:href="#q"/></clipPath><g clip-path="url(#r)" stroke="#95A9B3" stroke-linecap="round" stroke-linejoin="round" stroke-miterlimit="10"><radialGradient id="s" cx="116.57" cy="27.843" r="10.97" gradientTransform="matrix(.9823 .1874 -.1591 .8341 6.494 -17.222)" gradientUnits="userSpaceOnUse"><stop stop-color="#90A4AE" offset=".003"/><stop stop-color="#B0BEC5" offset=".422"/><stop stop-color="#ECEFF1" offset=".842"/></radialGradient><path d="M121.97 27.77c-3.02-1.51-7.83-1.28-7.83-1.28s-.16 1.5-.84 2.65c-.06.11-.13.2-.21.29-.15-.19-.27-.56-.32-1.25-.05-.64-.58-1.07-1.09-1.4-.55-.35-1.89-.3-1.73.69.08.47.34 3.36.34 3.36s1.89 2.99 2.6 3.6 3.75 1.84 5.46 1.42c2.1-.52 2.28-2.08 2.81-3.21.55-1.13 1.46-5.14.81-4.87z" fill="url(#s)" stroke-width="2"/><linearGradient id="t" x1="121.09" x2="120.22" y1="23.791" y2="28.689" gradientTransform="scale(-1 1) rotate(-22.457 -.001 623.822)" gradientUnits="userSpaceOnUse"><stop stop-color="#ECEFF1" offset="0"/><stop stop-color="#B0BEC5" offset=".935"/></linearGradient><path d="M112.39 23.62c.38-.14 1.18-.14 1.37.45.28-.67.77-1.13 1.51-1.03.76.1 1.19.91 1.19.91.57-.66 1.06-.89 1.76-.69 1.25.36 1.58 1.33 1.58 1.33.62-.56 1.36-.35 1.91.09.74.59.69 1.27.38 2l-1.35 2.08c-.58.51-1.35.76-1.92.35-.27-.19-.42-.48-.46-.79-.36.29-.84.42-1.32.29-.79-.21-1.41-.65-1.2-1.44 0 0-.51.36-1.11.2s-.76-.48-.89-1.06c-.16.42-.78.57-1.25.48-.72-.15-1.13-.61-1.23-1.31l-.06-.42c-.09-.69.43-1.21 1.09-1.44z" fill="url(#t)"/></g><path d="M113.2 29.51c.71.11 1.15.26 1.62.6s.7 1.3.71 1.88" clip-path="url(#r)" fill="none" stroke="#95A9B3" stroke-linecap="round" stroke-linejoin="round" stroke-miterlimit="10"/><path d="M67.16 124H52.42c-.95 0-1.81-.44-2.37-1.21-.55-.77-.7-1.72-.41-2.62.41-1.24 1.4-2.2 2.65-2.57l7.38-1.93c.08-.02.17-.03.25-.03h7.23c.55 0 1 .45 1 1V123c.01.55-.44 1-.99 1zm-7.1-6.36l-7.23 1.89c-.59.17-1.08.65-1.29 1.26-.09.28-.05.58.13.83.18.24.45.38.75.38h13.74v-4.36h-6.1zM105.83 124h-9.01c-.8 0-1.54-.37-2.14-1.06-.97-1.12-1.44-3.02-1.28-4.09l.03-.17c.21-1.39 1.2-4.08 1.24-4.2.14-.39.52-.66.94-.66h7.06c.29 0 .56.12.75.34l3.98 4.52c.43.51.67 1.15.67 1.8v.27c-.01.96-.65 3.25-2.24 3.25zm-9.52-8.18c-.33.94-.79 2.38-.91 3.15l-.03.17c-.07.45.2 1.76.82 2.49.32.37.55.37.62.37h8.83c.18-.24.41-.88.41-1.25v-.27c0-.18-.06-.35-.18-.49l-3.67-4.17h-5.89z" fill="#8698A1"/><path d="M115.13 29.27l-2.8 13.24-14.69-5.83-1.1 9.42 16.56 4.86c.27.15.56.28.88.36 1.8.45 3.61-.52 4.29-2.19h.02l.02-.1c.05-.13.11-.26.14-.4.09-.37.11-.73.09-1.09l2.76-17.96-6.17-.31z" fill="none"/><path d="M85.13 6.5c1.55 0 2.99.15 4.29.44 3.66.82 7.44 2.56 6.2 12.67h-9.55c.32-2.51.6-6.19-.08-8.86-.5-1.97-1.08-3.33-1.59-4.24.23 0 .47-.01.73-.01m0-1c-1.53 0-2.58.14-2.58.14s1.43 1.19 2.48 5.35c.66 2.6.38 6.43-.1 9.61h11.58c1.56-10.9-2.1-13.57-6.86-14.64-1.64-.36-3.25-.46-4.52-.46z" fill="#607C8A"/><path d="M82.41 5.66s1.09-.15 1.95-.18c0 0 1.71.47 2.68 2.99.99 2.6 1.46 5.97.31 12.13-1.15 6.17-2.9 9-5.13 10.98s-5.88 1.35-5.88 1.35l-.71-1.76s2.15.3 3.72-.52c1.58-.82 4.75-5.31 5.63-10.31.55-3.18.72-7.13.04-10.22s-2.61-4.46-2.61-4.46z" fill="#CFD8DC"/><path d="M85.46 43.03c-1.42 0-2.83-.55-3.94-1.55a11.303 11.303 0 0 0-4.82-2.55l-2.3-.63c-.42-.12-.72-.5-.74-.94-.01-.44.26-.84.68-.98l1.2-.4-.04-.68c-.03-.08-.04-.17-.05-.26l-.12-1.93-.51-1.29c-5.3-3.71-4.66-12.63-2.46-19.23 2.53-7.61 10.21-7.98 10.28-7.98h.09c.46-.05 1.07-.12 1.62-.13.08-.01.16 0 .24.02 1.34-.03 3.3.04 5.28.48 4.72 1.06 9.31 3.74 7.66 15.58v.12c-.02.17-.4 4.29-2.15 7.71-.28.54-.65 1.03-1.12 1.46l-.06.09c-.18 3.41-.83 6.28-1.94 8.54-1.67 3.41-4.34 4.34-6.28 4.52-.19.02-.36.03-.52.03zm-7.95-5.96c1.96.53 3.82 1.54 5.35 2.92.83.75 1.89 1.12 2.91 1.02 2.08-.19 3.65-1.34 4.67-3.41 1-2.05 1.61-4.83 1.75-8.05.01-.19.07-.37.18-.53l.13-.18c.05-.07.1-.13.15-.21s.11-.15.18-.21c.33-.28.57-.59.76-.95 1.4-2.72 1.84-6.07 1.92-6.82 0-.07 0-.14.01-.21 1.55-10.84-2.34-12.65-6.1-13.5-1.86-.42-3.72-.46-4.95-.43-.08.01-.16 0-.24-.02-.52.02-1.09.09-1.41.13-.08.01-.15.01-.23 0-.87.07-6.39.71-8.35 6.61-1.62 4.86-3.03 13.93 1.93 17.11.21.13.35.34.42.56l.65 1.63c.04.1.06.2.07.31l.11 1.85c.03.08.04.16.05.24l.11 1.7c.01.15-.01.31-.07.44z" fill="#90A4AE"/><path d="M43.72 54.28c-.14 0-.28 0-.42-.02l-1.21-.09c-3.02-.22-5.29-2.86-5.07-5.88l.03-.4c.11-1.46.78-2.8 1.89-3.75a5.44 5.44 0 0 1 3.99-1.32l1.21.09c3.02.22 5.29 2.86 5.07 5.88l-.03.4c-.11 1.46-.78 2.8-1.89 3.75-1 .87-2.26 1.34-3.57 1.34zm-4.67-6.24l-.03.4c-.14 1.92 1.3 3.6 3.22 3.74l1.21.09c1.94.12 3.6-1.3 3.74-3.22l.03-.4c.14-1.92-1.3-3.6-3.22-3.74l-1.21-.09c-.92-.07-1.83.23-2.54.84-.7.6-1.13 1.45-1.2 2.38z" fill="#95A9B3"/><path d="M46.31 48.37c.18-.91.84-1.06 1.44-.93l3.53.39c.72.15 1.17 1.01.99 1.88-.18.86-.89 1.39-1.59 1.18l-3.45-.84c-.54-.16-1.1-.78-.92-1.68z" fill="#FFB300"/><path d="M46.45 48.56c.11-.74.7-1.25 1.3-1.12l3.53.39c.72.15 1.17 1.01.99 1.88-.18.86-.89 1.39-1.59 1.18l-3.45-.84c-.54-.16-.88-.81-.78-1.49z" fill="none" stroke="#E69200" stroke-miterlimit="10"/></svg>