<svg viewBox="0 0 128 128" xmlns="http://www.w3.org/2000/svg" xmlns:xlink="http://www.w3.org/1999/xlink"><defs><path id="a" d="M4 4h120v120H4z"/></defs><clipPath id="b"><use xlink:href="#a"/></clipPath><g clip-path="url(#b)"><radialGradient id="c" cx="76.557" cy="-45.829" r="53.315" gradientTransform="scale(.826) rotate(-9.879 293.747 53.078)" gradientUnits="userSpaceOnUse"><stop stop-color="#554138" offset="0"/><stop stop-color="#3C2C23" offset="1"/></radialGradient><path d="M55.01 112.58c-2.07 0-5.94-.39-8.64-3.04-8.3-8.12-16.02-30.71-21.75-63.61-.27-1.51-2.35-14.9 5.43-25.99C35.1 12.75 43.25 8.12 54.29 6.2c3-.52 5.89-.79 8.6-.79 26.58 0 31.25 25.35 31.69 28.25 5.74 32.99 6.11 56.87 1.04 67.31-2.32 4.79-8.4 6.18-8.46 6.19l-15.37 2.65-15.43 2.71c-.01 0-.55.06-1.35.06z" fill="url(#c)"/><path d="M62.88 6.91c25.34 0 29.78 24.21 30.21 26.97l.02.12c5.68 32.6 6.09 56.15 1.15 66.31-1.9 3.93-6.9 5.25-7.38 5.37l-15.36 2.65-15.34 2.69c-.14.01-.57.05-1.17.05-1.84 0-5.27-.34-7.59-2.61-8.08-7.9-15.65-30.2-21.33-62.82-.1-.57-2.38-14.08 5.18-24.86 4.81-6.85 12.64-11.27 23.27-13.12 2.91-.49 5.72-.75 8.34-.75m0-3c-2.73 0-5.67.25-8.86.81-37.28 6.49-30.98 40.92-30.89 41.46 3.89 22.33 11.09 53.57 22.18 64.43 3.08 3.01 7.39 3.46 9.69 3.46.99 0 1.61-.08 1.61-.08l15.43-2.71 15.43-2.66s6.8-1.47 9.49-7c6.78-13.97 2.99-45.81-.9-68.13-.08-.51-3.99-29.58-33.18-29.58z" fill="#291D15"/></g><g clip-path="url(#b)"><path d="M25.74 63.19a39.537 39.537 0 0 1-6.28-5.82c-1.27-1.41-3.87-3.58-5.27-1.33-.23.24-4.71-5.95-6.58-10.93-.8-1.67-2.81-.26-2.32 1.97 1.4 6.29 6.62 14.41 6.72 14.27.78 1.09 1.48 2.01 2.15 2.8 1.56 1.99 1.8 8.03 1.8 8.03l9.51 1.59 1.18-3.33c.5-1.52.86-2.66.87-3.62.06-2.67-1.74-3.61-1.78-3.63z" fill="#A56C43"/><path d="M25.47 74.77c-.05 0-.11 0-.17-.01l-9.51-1.59a.985.985 0 0 1-.83-.95c-.09-2.21-.59-6.19-1.58-7.45-.64-.76-1.36-1.69-2.18-2.83l.02-.02c-1.95-2.03-6.06-10.83-6.9-14.62-.43-1.94.54-3.41 1.68-3.8.83-.28 1.93-.03 2.51 1.19 1.46 3.87 4.4 8.27 5.66 9.92.47-.35.96-.48 1.34-.51 1.86-.16 3.74 1.57 4.69 2.62 1.86 2.14 3.9 4.04 6.08 5.66.45.27 2.3 1.54 2.24 4.48-.02 1.1-.4 2.32-.92 3.92l-1.19 3.35c-.14.37-.53.64-.94.64zm-8.56-3.45l7.9 1.32.9-2.54c.45-1.36.8-2.48.82-3.31.04-1.99-1.2-2.69-1.25-2.72a.913.913 0 0 1-.13-.08 40.233 40.233 0 0 1-6.44-5.97c-1.11-1.22-2.31-2.01-3.01-1.95-.17.02-.4.09-.65.5-.04.06-.08.12-.13.17-.24.24-.62.35-.95.28-1.31-.28-5.84-7.72-7.29-11.56a.3.3 0 0 0-.09-.1c-.09.05-.52.58-.32 1.49 1.25 5.62 5.69 12.81 6.39 13.73.06.05.12.11.16.18.79 1.1 1.48 2 2.11 2.74 1.41 1.8 1.85 5.99 1.98 7.82z" fill="#875334"/></g><g clip-path="url(#b)"><path d="M102.48 63.19c2.26-1.67 4.36-3.62 6.28-5.82 1.27-1.41 3.87-3.58 5.27-1.33.23.24 4.71-5.95 6.58-10.93.8-1.67 2.81-.26 2.32 1.97-1.4 6.29-6.62 14.41-6.72 14.27-.78 1.09-1.48 2.01-2.15 2.8-1.56 1.99-1.8 8.03-1.8 8.03l-9.51 1.59-1.18-3.33c-.5-1.52-.86-2.66-.87-3.62-.06-2.67 1.74-3.61 1.78-3.63z" fill="#A56C43"/><path d="M102.75 74.77c-.42 0-.8-.26-.94-.67l-1.18-3.33c-.53-1.62-.91-2.83-.93-3.94-.06-2.94 1.79-4.22 2.24-4.48 2.18-1.62 4.22-3.51 6.07-5.64.96-1.07 2.83-2.79 4.7-2.63.38.03.87.16 1.34.51 1.27-1.64 4.2-6.03 5.63-9.83.62-1.3 1.72-1.55 2.55-1.27 1.15.4 2.1 1.93 1.68 3.8-.84 3.79-4.95 12.6-6.9 14.62l.02.01c-.82 1.14-1.54 2.08-2.2 2.86-.97 1.23-1.47 5.21-1.56 7.43-.02.47-.37.87-.83.95l-9.51 1.59c-.07.01-.13.02-.18.02zm.19-10.69c-.07.04-1.29.75-1.25 2.72.02.82.37 1.95.82 3.33l.9 2.52 7.9-1.32c.13-1.82.56-6.01 1.96-7.79a44.9 44.9 0 0 0 2.13-2.77c.05-.07.1-.13.16-.18.71-.92 5.14-8.11 6.39-13.73.19-.87-.19-1.39-.36-1.47.01.02-.03.07-.08.16-1.41 3.76-5.94 11.2-7.25 11.48-.33.07-.71-.04-.95-.28a.7.7 0 0 1-.13-.17c-.26-.41-.48-.48-.65-.5-.7-.06-1.9.73-3.03 1.97a40.076 40.076 0 0 1-6.42 5.96c-.05.02-.09.04-.14.07zm-.46-.89zm13.73-1.85z" fill="#875334"/></g><g clip-path="url(#b)"><linearGradient id="d" x1="64.068" x2="64.068" y1="77.62" y2="129.91" gradientUnits="userSpaceOnUse"><stop stop-color="#651FFF" offset="0"/><stop stop-color="#5914F2" offset=".705"/><stop stop-color="#530EEB" offset="1"/></linearGradient><path d="M36.08 130.5v-14.91c0-.56-.31-1.08-.81-1.33a1.58 1.58 0 0 0-.71-.17c-.24 0-.48.06-.69.17-.43.23-.75.64-.81 1.12-.52 3.99-3.95 7-7.97 7-3.03 0-5.87-1.19-7.99-3.36s-3.26-5.03-3.2-8.06L14 70.4l12.84-.76c0 .01.08.07.08.09l2.67 18.97a1.498 1.498 0 0 0 1.48 1.29c.35 0 .7-.12.97-.36 4.54-3.88 10.23-5.85 16.91-5.85 1.43 0 3.94-.07 6.85-.15 2.36-.06 5.04-.14 7.74-.19.17.07.35.11.53.11 2.87.05 5.74.13 8.25.2 2.9.08 5.4.15 6.83.15 6.68 0 12.37 1.97 16.91 5.85a1.478 1.478 0 0 0 1.5.26c.51-.19.88-.65.95-1.19l2.67-18.97.06-.09 12.83.75.14 40.56c.06 3.06-1.08 5.92-3.2 8.08a11.084 11.084 0 0 1-7.99 3.36c-4.03 0-7.45-3.01-7.97-7a1.49 1.49 0 0 0-.8-1.14c-.22-.11-.45-.17-.69-.17s-.48.06-.7.17c-.49.26-.83.79-.83 1.35v14.79H36.08z" fill="url(#d)"/><path d="M25.61999999999999 71.21000000000001l2.49 17.69a3 3 0 0 0 1.91 2.39 3.015 3.015 0 0 0 3.01-.53c4.26-3.64 9.62-5.49 15.93-5.49 1.44 0 3.84-.07 6.87-.15 2.3-.06 4.89-.13 7.5-.19.23.06.48.1.73.1 2.86.05 5.72.13 8.24.2 3.03.08 5.43.15 6.87.15 6.31 0 11.67 1.85 15.93 5.49a3.015 3.015 0 0 0 3.01.53c1.02-.39 1.76-1.3 1.91-2.39l2.49-17.69 10.12.59.1 39.15v.05c.05 2.62-.93 5.1-2.77 6.98a9.651 9.651 0 0 1-6.92 2.91c-3.27 0-6.06-2.45-6.48-5.7-.13-.98-.74-1.82-1.62-2.27a3.007 3.007 0 0 0-2.8.03c-.98.52-1.59 1.54-1.59 2.65V129H37.58v-13.41c0-1.11-.65-2.15-1.63-2.67a3.034 3.034 0 0 0-2.79-.02c-.87.45-1.47 1.3-1.6 2.28a6.554 6.554 0 0 1-6.48 5.7c-2.63 0-5.08-1.03-6.92-2.91a9.61 9.61 0 0 1-2.77-6.98v-.05l.1-39.15 10.13-.58m1.25-3.07h-.11l-12.81.75c-.8.06-1.42.71-1.45 1.51l-.11 40.55c-.14 7.11 5.58 12.94 12.69 12.94 4.92 0 8.86-3.69 9.46-8.31l.04.02v16.41h58.97v-16.29l.04-.02c.6 4.62 4.54 8.31 9.46 8.31 7.11 0 12.83-5.84 12.69-12.94l-.11-40.55a1.56 1.56 0 0 0-1.45-1.51l-12.81-.75h-.11c-.78 0-1.45.59-1.54 1.38L97.05 88.6c-4.18-3.58-9.95-6.21-17.88-6.21-2.61 0-8.82-.23-15.05-.35v-.12c-6.26.12-12.53.35-15.15.35-7.93 0-13.7 2.63-17.88 6.21l-2.67-18.97c-.1-.79-.77-1.37-1.55-1.37z" fill="#4A00ED"/></g><linearGradient id="e" x1="30.217" x2="30.217" y1="80.868" y2="102.88" gradientUnits="userSpaceOnUse"><stop stop-color="#512DA8" stop-opacity="0" offset="0"/><stop stop-color="#311B92" offset="1"/></linearGradient><path d="M32 102.82l-.09.11c-.81.97-2.39.49-2.51-.77L28.11 89c-.05-.5.17-1 .58-1.29l2-1.45 1.63 15.5c.04.38-.07.76-.32 1.06z" clip-path="url(#b)" fill="url(#e)"/><linearGradient id="f" x1="-719.95" x2="-719.95" y1="80.868" y2="102.88" gradientTransform="matrix(-1 0 0 1 -621.82 0)" gradientUnits="userSpaceOnUse"><stop stop-color="#512DA8" stop-opacity="0" offset="0"/><stop stop-color="#311B92" offset="1"/></linearGradient><path d="M96.34 102.82l.09.11c.81.97 2.39.49 2.51-.77L100.23 89c.05-.5-.17-1-.58-1.29l-2-1.45-1.63 15.5c-.04.38.08.76.32 1.06z" clip-path="url(#b)" fill="url(#f)"/><g clip-path="url(#b)"><path d="M63.17 95.48c-4 0-7.26-3.22-7.26-7.17v-8.98h16.16v8.98c0 3.96-3.26 7.17-7.26 7.17h-1.64z" fill="#7A4C32"/><path d="M71.08 80.33v7.98c0 3.4-2.81 6.17-6.26 6.17h-1.65c-3.45 0-6.26-2.77-6.26-6.17v-7.98h14.17m2-2H54.92v9.98c0 4.51 3.7 8.17 8.26 8.17h1.65c4.56 0 8.26-3.66 8.26-8.17v-9.98h-.01z" fill="#663B22"/></g><g clip-path="url(#b)"><linearGradient id="g" x1="58.647" x2="58.647" y1="157.96" y2="87.211" gradientTransform="rotate(-9.87 -346.872 69.43)" gradientUnits="userSpaceOnUse"><stop stop-color="#8D5738" offset="0"/><stop stop-color="#97603D" offset=".216"/><stop stop-color="#A26941" offset=".573"/><stop stop-color="#A56C43" offset="1"/></linearGradient><path d="M64.87 87.85c-1.29 0-2.64-.12-4.03-.35-10.91-1.85-24.87-10.94-28.27-30.49-4.54-26.06 9.55-38.04 22.99-40.38 1.71-.3 3.45-.45 5.15-.45 7.05 0 13.5 2.52 18.66 7.29 5.77 5.33 9.73 13.42 11.47 23.39 3.41 19.58-6.67 32.86-16.34 38.27-2.24 1.25-4.52 2.11-6.59 2.47-.94.17-1.96.25-3.04.25z" fill="url(#g)"/><path d="M60.71 17.18c6.79 0 13.01 2.43 17.99 7.02 5.6 5.18 9.47 13.07 11.16 22.83C93.18 66.1 83.4 79 74.02 84.26c-2.14 1.2-4.31 2.01-6.27 2.36-.89.16-1.86.23-2.88.23-1.23 0-2.53-.11-3.86-.34-10.59-1.79-24.14-10.64-27.45-29.68-1.91-10.95-.48-20.48 4.13-27.56 4.04-6.2 10.44-10.34 18.04-11.66 1.66-.28 3.34-.43 4.98-.43m0-2c-1.77 0-3.55.16-5.32.46-15.64 2.72-28.1 16.87-23.8 41.53 3.45 19.81 17.75 29.39 29.09 31.31 1.46.25 2.87.37 4.2.37 1.14 0 2.22-.09 3.22-.26 2.17-.38 4.53-1.25 6.9-2.58 10.03-5.62 20.29-19.49 16.84-39.32-3.82-21.87-17.23-31.51-31.13-31.51z" fill="#875334"/><defs><path id="h" d="M34.41 80.95l-8.57-37.52c-2.68-15.41 6.92-31.5 25.82-35.08l4.48-.78c17.2-3.57 33.2 6.69 36.28 23.19l3.03 39.32-61.04 10.87z"/></defs><clipPath id="i"><use xlink:href="#h"/></clipPath><g clip-path="url(#i)"><radialGradient id="j" cx="92.555" cy="-37.835" r="44.488" gradientTransform="rotate(-9.878 241.622 107.602) scale(.796)" gradientUnits="userSpaceOnUse"><stop stop-color="#554138" offset="0"/><stop stop-color="#3C2C23" offset="1"/></radialGradient><path d="M93.81 33.88S89.11 1.38 53.8 7.52 24.92 45.87 24.92 45.87s7.5 41.3 11.05 46.22c3.54 4.92 7.45 4.05 7.45 4.05s-6.04-23.81-8.24-35.13c-.51-2.64-3.03-12.33 2.3-14.54C57 38.36 66.63 25.58 66.63 25.58 70.76 31.59 81.22 36.33 85 38.17c3.1 1.51 4.15 9.77 4.7 13.26l3.41 36s4.32-.4 6.06-6.34-5.36-47.21-5.36-47.21z" fill="url(#j)"/></g><path d="M66.85 62.37c-.1-.02-.2-.03-.3-.02l-6.35 1.11c-.09.03-.19.07-.28.12-.54.33-.75.99-.37 1.57.38.59 1.96 2.15 4.51 1.71s3.5-2.45 3.67-3.13c.16-.68-.26-1.22-.88-1.36z" fill="#875334"/><g fill="#42312C"><ellipse transform="rotate(-9.87 47.178 57.207)" cx="47.16" cy="57.2" rx="4.49" ry="4.65"/><ellipse transform="rotate(-9.87 76.726 52.059)" cx="76.71" cy="52.06" rx="4.49" ry="4.65"/><path d="M52.3 47.82c-1.04-.97-3.27-2.25-7.05-1.6-3.78.66-5.45 2.62-6.1 3.88-.29.56-.09 1.11.22 1.41.3.28 1.05.45 1.79.05s2.13-1.46 4.68-1.92c2.56-.43 4.23.1 5.05.23.83.13 1.48-.29 1.67-.65.21-.38.2-.97-.26-1.4zM81.85 42.68c-1.04-.97-3.27-2.25-7.05-1.6-3.78.66-5.45 2.62-6.1 3.88-.29.56-.09 1.11.22 1.41.3.28 1.05.45 1.79.05s2.13-1.46 4.68-1.92c2.56-.43 4.23.1 5.05.23.83.13 1.48-.29 1.67-.65.2-.39.2-.97-.26-1.4z"/></g><path fill="none" d="M9.2 12.643L96.037-2.473l14.883 85.496-86.836 15.116z"/><path d="M71.11 75.83c.46 2.67-1.82 3.64-4.75 4.15s-5.42.31-5.87-2.3c-.48-2.74 1.61-4.85 4.54-5.36 2.93-.52 5.59.71 6.08 3.51z" fill="#473530"/></g></svg>