<svg viewBox="0 0 128 128" xmlns="http://www.w3.org/2000/svg"><linearGradient id="a" x1="56.3" x2="56.3" y1="76.9" y2="118.9" gradientUnits="userSpaceOnUse"><stop stop-color="#64B5F6" offset="0"/><stop stop-color="#2196F3" offset="1"/></linearGradient><path d="M74.2 123.9H3.8V74.1l37.6 16.8c5 1.9 10.6 1.3 15.2-1.4l33.6-21 18.6 9.4S82 124 74.2 124z" fill="url(#a)"/><path d="M90.3 72l14.4 7c-2.4 4-7 11.7-12.2 19.4C78.9 118.8 74.7 120.7 74 121H6.8V78.7l33.3 15h.2A20.7 20.7 0 0 0 58.2 92l32-20m-.1-3.5l-33.5 21a17.7 17.7 0 0 1-15.3 1.4L4 74.1l-.1 49.8h70.4c7.8 0 34.8-46.1 34.8-46.1l-19-9.3z" fill="#424242" opacity=".2"/><linearGradient id="b" x1="100.2" x2="104.8" y1="36.1" y2="74.9" gradientUnits="userSpaceOnUse"><stop stop-color="#FFCA28" offset=".2"/><stop stop-color="#FFB300" offset=".9"/></linearGradient><path d="M106.3 79.5a2 2 0 0 1-1.1-.3h-.2c-.1 0-7-2.5-13-6.1-9.9-6-8.3-14.7-7.1-21l.5-2.7c.3-2.3-.6-5.4-1.6-8.7-1.2-4-2.5-8.4-.8-9.9 1-.7 2-1.1 3-1.1 2.7 0 5 2 5.7 3.3a19 19 0 0 1 1.9 11.5l-.4 1.6c-1.1 4-2.5 9.6 1.6 12.2 2 1.4 5.3 2 10.3 2h4l2.5-.1c4.6 0 8.6.3 10.6.4-1.6 3.8-7 15.1-13.7 18.3-.8.4-1.6.6-2.2.6z" fill="url(#b)"/><path d="M86.1 30.6c2.1 0 4.2 1.9 4.7 2.8a18 18 0 0 1 1.4 12.4c-1 4.1-2.7 10.3 2 13.4a21 21 0 0 0 10.8 2.1h4l2.5-.1c3.7 0 7 .1 9.2.3-2.4 5.2-7.3 14-12.6 16.5a5 5 0 0 1-1.8.5l-.6-.1-.4-.2s-6.9-2.4-12.7-6c-9.4-5.7-7.9-13.5-6.7-19.8l.5-2.9c.3-2.5-.7-5.7-1.6-9-1-3.2-2.3-7.9-1.1-8.9.7-.6 1.5-1 2.4-1m0-2c-1.2 0-2.5.4-3.7 1.5-3.7 3.2 2.6 14 2 19.2-.8 5.9-5 17.2 7.1 24.6 6.1 3.8 13.2 6.2 13.2 6.2.5.3 1 .4 1.6.4 1 0 1.8-.3 2.7-.7 8.4-4 14.7-20 14.7-20s-5.4-.7-12.1-.7l-6.5.2c-3.6 0-7.5-.3-9.8-1.8-4-2.6-1.7-8.9-.8-12.8a20 20 0 0 0-1.9-12.2 8.3 8.3 0 0 0-6.5-3.9z" fill="#EDA600"/><path d="M120.2 64l-30.4-.1v-57c0-1.5 1.2-2.8 2.7-2.8h25c1.5 0 2.7 1.3 2.7 2.9v57z" fill="#9E9E9E"/><path d="M116 64l-26.2-.1v-57c0-1.5 1.2-2.8 2.7-2.8H116V64z" fill="#eee"/><linearGradient id="c" x1="103.7" x2="103.7" y1="53.1" y2="10.5" gradientUnits="userSpaceOnUse"><stop stop-color="#2196F3" offset="0"/><stop stop-color="#64B5F6" offset="1"/></linearGradient><path fill="url(#c)" d="M112.1 53.1H95.4V10.4H112z"/><path d="M116 6h1.5c.4 0 .8.4.8 1l-.1 55h-2.6L92 61.9v-55c0-.4.2-.8.6-.8H116m0-2H92.5C91.1 4.1 90 5.4 90 7v56.9l26 .1h4.3V7c0-1.6-1.3-2.9-2.7-2.9H116z" fill="#424242" opacity=".2"/><radialGradient id="d" cx="104.7" cy="38" r="20.4" gradientUnits="userSpaceOnUse"><stop stop-color="#FFCA28" offset=".6"/><stop stop-color="#FFB300" offset="1"/></radialGradient><path d="M114.3 64.5a4 4 0 0 1-3.9-3.5 4 4 0 0 1 .8-3c.2-.2.2-.6.1-.9a1 1 0 0 0-.6-.6 4 4 0 0 1-2.8-3.3 4 4 0 0 1 2.1-4.4c.4-.1.7-.6.6-1s-.4-.8-.8-.8c-1.7-.3-3-2.1-2.8-4.1.1-1.8 1.3-3.3 2.9-3.6a1 1 0 0 0 .4-1.8 3.8 3.8 0 0 1-1.3-3.7 4 4 0 0 1 4.8-3l6 1.1c1.2.2 2.1.8 2.7 1.7.6.9.8 2 .6 3-.2 1-1 1.8-1.5 2.2a1 1 0 0 0-.4.9c0 .3.2.6.4.8a4 4 0 0 1 1.6 3.6c0 1-.6 2-1.3 2.8a1 1 0 0 0-.4.7c0 .2.1.5.3.7.7.7 1.1 1.5 1.3 2.4.2 1.7-.5 3.3-1.8 4.1-.2.2-.4.5-.4.8s.1.7.4.9a4 4 0 0 1 1.6 2.7 4 4 0 0 1-3.3 4.5l-4.8.7h-.6z" fill="url(#d)"/><path d="M113 31.6h.6l6.1 1.3c.8.1 1.6.6 2 1.3.4.6.6 1.4.4 2.1-.1.9-.7 1.4-1 1.7-.6.4-.9 1-.9 1.7s.3 1.2.9 1.6a3 3 0 0 1 1.1 2.7c0 .8-.4 1.6-1 2.1a2 2 0 0 0 0 3c.3.3.8.9.9 1.8.2 1.2-.3 2.5-1.3 3.1a2 2 0 0 0 0 3.3 3 3 0 0 1 1.1 2 3 3 0 0 1-2.4 3.4l-4.8.7h-.4a3 3 0 0 1-2.9-2.5 3 3 0 0 1 .6-2.3 2 2 0 0 0-1-3 3 3 0 0 1-2-2.6c-.3-1.4.3-2.7 1.5-3.3a2 2 0 0 0-.5-3.7c-1.3-.2-2.1-1.6-2-3 .1-1.4 1-2.5 2.1-2.7a2 2 0 0 0 .9-3.5 2.8 2.8 0 0 1-1-2.8 3 3 0 0 1 3-2.4m0-2a5 5 0 0 0-5 4c-.4 1.8.3 3.5 1.7 4.7a5 5 0 0 0-3.7 4.5c-.2 2.5 1.4 4.8 3.6 5.1a5 5 0 0 0-2.7 5.4 5 5 0 0 0 3.5 4.2c-.8 1-1.1 2.3-1 3.7a4.9 4.9 0 0 0 5.5 4.2l4.9-.7a5 5 0 0 0 4-5.7 5 5 0 0 0-2-3.3 5 5 0 0 0 2.3-5.1 5.2 5.2 0 0 0-1.6-3c1-.9 1.5-2 1.7-3.5a5 5 0 0 0-2-4.5c1-.7 1.6-1.7 1.9-2.9a5 5 0 0 0-4-5.8l-6.1-1.2h-1z" fill="#EDA600"/><path d="M111.7 40.1c3 .2 5.7.6 8.5 1.1 2 .4 2.7-2.5.8-2.9-3-.6-6.1-1-9.3-1.2-1.9 0-1.9 3 0 3zm-.6 8.9c3.4.2 6.7 0 10 .5 2 .3 2.7-2.6.8-2.9-3.6-.6-7.2-.4-10.8-.5-2-.1-1.9 2.9 0 3zm.8 9.6c2.9-.6 5.7-1 8.7-1.1 2 0 2-3 0-3-3.2 0-6.4.6-9.5 1.2-2 .3-1.1 3.2.8 2.9z" fill="#EDA600"/></svg>