<svg viewBox="0 0 128 128" xmlns="http://www.w3.org/2000/svg" xmlns:xlink="http://www.w3.org/1999/xlink"><defs><path id="a" d="M4 4h120v120H4z"/></defs><clipPath id="b"><use xlink:href="#a"/></clipPath><g clip-path="url(#b)"><linearGradient id="c" x1="34.1" x2="81.4" y1="55.1" y2="110.6" gradientUnits="userSpaceOnUse"><stop stop-color="#8D5738" offset="0"/><stop stop-color="#97603D" offset=".2"/><stop stop-color="#A26941" offset=".6"/><stop stop-color="#A56C43" offset="1"/></linearGradient><path d="M111.8 120.6a6 6 0 0 1-3.2-1l-3.1-2a6 6 0 0 1-2.5-3.5l-.1-.2-6-18.5c0-.1 0-.2-.2-.3l-12.5-5.9a2.5 2.5 0 0 0-3.4 1.5l-8.9 28.1-33.8-10.6 9.7-31c.4-1 0-2.1-1-2.8l-17-11.8a12.3 12.3 0 0 1-5.2-8l-1.9-11.2c0-.7-.5-1.3-1-1.7l-4-2.8a6 6 0 0 1-1-8.4l.3-.2a6 6 0 0 1 8.4-1l2.8 2.3a6 6 0 0 1 2.2 3.7l.1.3L34.2 53c.2.8.7 1.4 1.5 1.8l20 8.6c1.3.6 2.7.9 4.2.9h.6a40.6 40.6 0 0 1 13.8 3.3c7.4 3.4 28.4 20.1 28.6 20.3 1 .6 1.8 1.5 2.2 2.6l5 15.7c0 .2.2.3.3.4a53 53 0 0 1 5 2.8 6 6 0 0 1 1.6 8.3l-.2.2a6 6 0 0 1-5 2.7z" fill="url(#c)"/><path d="M21.5 28.5a5 5 0 0 1 3.4 1.2l3 2.3c1 .8 1.7 2 1.9 3.4l.1.4 3.8 17.3a3 3 0 0 0 1.8 2.1l9.1 4 11 4.7c1.3.6 2.7.9 4.3.9h.6A40.9 40.9 0 0 1 74.1 68a274.4 274.4 0 0 1 28.6 20.4c.9.4 1.5 1.3 1.9 2.2v.2l5 15.6c.1.3.4.6.7.7.4.1 2.8 1.5 4.7 2.7 2.5 1.7 3.2 5 1.6 7.6l-.2.2a5.5 5.5 0 0 1-7.6 1.6l-3-2a5 5 0 0 1-2.3-3.2l-.2-.4-5.8-18.3a1 1 0 0 0-.6-.6l-12.5-6a3 3 0 0 0-4.1 1.8l-8.7 27.7L38.7 108l9.6-30.5a3 3 0 0 0-1.2-3.4L30 62.2a11.8 11.8 0 0 1-5-7.7l-1.8-11.2a3 3 0 0 0-1.2-2l-4-2.8a5.5 5.5 0 0 1-.9-7.7l.2-.2c1.1-1.3 2.7-2 4.3-2m0-1c-1.9 0-3.8.7-5 2.3l-.2.3a6.5 6.5 0 0 0 1 9.1l4 2.8c.5.3.7.8.8 1.3l2 11.3c.5 3.4 2.4 6.4 5.3 8.4l17.2 11.8c.7.5 1 1.4.8 2.2l-9.9 31.4 34.7 11 9-28.6a2 2 0 0 1 2.8-1.2l12.5 5.9 6 18.7a6.4 6.4 0 0 0 2.7 3.8l3 2a6.5 6.5 0 0 0 9-1.9l.2-.3c2-3 1.2-7-1.8-9 0 0-4.4-2.6-5-2.8l-5-15.8a5.2 5.2 0 0 0-2.4-2.8S82.1 70.6 74.6 67.1a41.2 41.2 0 0 0-14-3.3h-.7a10 10 0 0 1-4-.8l-20-8.7a2 2 0 0 1-1.2-1.4l-3.9-17.6a6 6 0 0 0-2.4-4l-2.8-2.4a6.4 6.4 0 0 0-4-1.4z" fill="#875334"/><circle cx="28.6" cy="24" r="16" fill="#FF9100"/><radialGradient id="d" cx="23.9" cy="18.8" r="17.7" gradientUnits="userSpaceOnUse"><stop stop-color="#FFA726" offset=".2"/><stop stop-color="#B33F00" offset=".8"/></radialGradient><circle cx="28.6" cy="24" r="16" fill="url(#d)" opacity=".4"/><defs><circle id="e" cx="28.6" cy="24" r="16"/></defs><clipPath id="f"><use xlink:href="#e"/></clipPath><g clip-path="url(#f)" fill="none" stroke-width=".8"><path d="M28.6 24A19 19 0 0 1 29 7.6" stroke="#6D4C41"/><path d="M27.6 11.4h1a19 19 0 0 1 15.7 8.2M27 18.2h1.6c6.6 0 12.5 3.3 16 8.4" stroke="#5D4037"/><path d="M28.5 24a19.2 19.2 0 0 1 14 8.6" stroke="#4E342E"/><path d="M39.8 29.4l-.4 1c-3.3 5.5-9 8.9-15 9.4" stroke="#3E2723"/><path d="M34.3 25.6l-.7 1.4a19.2 19.2 0 0 1-15.3 9.5M28.6 24A19 19 0 0 1 14 31.6" stroke="#4E342E"/><path d="M18.1 31l-.5-.8a19.2 19.2 0 0 1-.8-17.7" stroke="#6D4C41"/><path d="M24.3 28.1a19.3 19.3 0 0 1-1.5-19.3" stroke="#795548"/></g><path d="M68 73h-.9c-2.5-.6-4.2-3-3.7-5.6l.8-4.2 9.3 1.8-.9 4.2A4.7 4.7 0 0 1 68 73z" fill="#7A4C32"/><path d="M64.6 63.8l8.3 1.6-.8 3.7a4.2 4.2 0 0 1-4.9 3.3 4.2 4.2 0 0 1-3.3-4.9l.7-3.7m-.8-1.2l-.9 4.7a5.2 5.2 0 0 0 10.2 2l1-4.7-10.3-2z" fill="#663B22"/><defs><path id="g" transform="rotate(11.1 72.7 44.3)" d="M50.3 21.9h44.8v44.8H50.3z"/></defs><clipPath id="h"><use xlink:href="#g"/></clipPath><g clip-path="url(#h)"><path d="M84.6 57.8h-.8l-26.4-5.2c-2.6-.5-4.2-3.2-3.7-6a5 5 0 0 1 4.8-4.1h.9l26.3 5.2c2.6.5 4.2 3.2 3.7 6a5 5 0 0 1-4.8 4.1z" fill="#E59600"/><path d="M58.5 43h.8l3.5.7 19.3 3.8 3.5.7c2.3.5 3.8 2.9 3.3 5.4a4.5 4.5 0 0 1-4.3 3.7 4 4 0 0 1-.8 0l-3.5-.7-19.2-3.8-3.6-.7c-2.3-.5-3.8-2.9-3.3-5.4a4.5 4.5 0 0 1 4.3-3.7m0-1a5.5 5.5 0 0 0-5.3 4.6c-.6 3 1.3 5.9 4.1 6.5l3.6.7L80 57.5l3.5.7 1 .1c2.5 0 4.8-1.9 5.3-4.6.6-3-1.3-6-4-6.5l-3.6-.7L63 42.8l-3.5-.7-1-.1z" fill="#CC8600"/><linearGradient id="i" x1="92.3" x2="92.3" y1="-31" y2="10" gradientTransform="rotate(11.1 -207 -85.1)" gradientUnits="userSpaceOnUse"><stop stop-color="#A56C43" offset="0"/><stop stop-color="#A26941" offset=".4"/><stop stop-color="#97603D" offset=".8"/><stop stop-color="#8D5738" offset="1"/></linearGradient><path d="M71.4 66c-1 0-2 0-3-.2-7.5-1.5-14.5-9-12-21.8 2.4-12.2 10.7-18.5 17.7-18.5.7 0 1.5 0 2.2.2C86 27.6 89.8 39.8 87.8 50c-2.3 11.8-10 16-16.4 16z" fill="url(#i)"/><path d="M74 26c.8 0 1.5 0 2.2.2 3.8.7 7.2 3.6 9.3 7.7A25.2 25.2 0 0 1 87.3 50C85 61.5 77.6 65.5 71.4 65.5c-1 0-2 0-2.9-.2-4-.8-7.3-3.1-9.5-6.5-2.5-4-3.2-9-2-14.7C59.2 32.1 67.3 26 74 26m0-1c-7.7 0-15.7 7.2-18 18.9-2.6 12.8 4.2 20.7 12.4 22.3l3 .3c7.3 0 14.7-5 16.9-16.3 2.5-12.9-3.5-23.4-11.9-25-.8-.2-1.6-.2-2.3-.2z" fill="#875334"/><path d="M61 42.5l.3-.2.1-.1.2-.1.3-.2h.2l.3-.2.3-.1c.1-.1.3 0 .4 0l.3-.1c.3 0 .6-.1.8 0h.8l.8.2.7.4.3.1.3.2.3.3.2.2.2.2.2.2v.2l.2.2.2.3c.1.4 0 .8-.4 1h-.7l-.2-.1-.2-.2-.2-.1-.3-.2-.2-.1c-.1-.1-.1 0-.2 0l-.1-.1h-.1l-.2-.2-.5-.1-.5-.1-.5-.1h-2l-.3.2a.8.8 0 0 1-1-.6c0-.3 0-.6.3-.8zM83 48l-.2-.1-.2-.1v-.1l-.2-.1h-.2s0-.2-.2-.2h-.2v-.1h-.2l-.2-.2-.5-.1-.5-.1-.5-.1H78.1l-.2.1h-.4a.8.8 0 0 1-.6-1.3l.3-.2.1-.1.2-.1.2-.1.3-.2h.3l.3-.2h.3l.4-.1H81c.3 0 .5.2.8.3l.7.3.3.2c.1 0 .2 0 .3.2l.2.2.3.2.2.2.1.2.2.2v.2l.2.3c.2.4 0 .8-.4 1-.3.1-.6 0-.8 0z" fill="#42312C"/><g fill="#42312C"><ellipse transform="rotate(-78.9 63.8 47.6)" cx="63.8" cy="47.6" rx="2.5" ry="2.4"/><ellipse transform="rotate(-78.9 79.7 50.7)" cx="79.7" cy="50.7" rx="2.5" ry="2.4"/></g><radialGradient id="j" cx="92.5" cy="-33.1" r="14.9" gradientTransform="rotate(11.1 -207 -85.1)" gradientUnits="userSpaceOnUse"><stop stop-color="#6D4C41" offset="0"/><stop stop-color="#543930" offset="1"/></radialGradient><path d="M77.2 22.3C55 18 54.8 44.1 54.8 44.1l1.5 4.6c.6-3.5 3.2-9.4 4.7-11.8a3 3 0 0 1 3.7-1.2A54.7 54.7 0 0 0 83 39.3a3 3 0 0 1 3 2.8l.3 12.5 3.2-4s9.4-24-12.4-28.3z" fill="url(#j)"/><defs><path id="k" d="M77.2 22.3C55 18 54.6 43.6 54.6 43.6l1.7 5.1c.1-.7 1-3.3 1-3.3-1-2.2-.5-4.5-.5-4.5l1.6-5 2.8-4.2 15-5 12 11 .8 4.2-.6 6s-1 2.7-2.1 3.4l.1 3.4 3.2-4.2s9.4-24-12.4-28.2z"/></defs><clipPath id="l"><use xlink:href="#k"/></clipPath><g clip-path="url(#l)"><path d="M72.4 23.8c1.4 0 2.8.2 4.4.5 5.2 1 9 3.4 11 7 3.1 5.8 1.4 13.6.4 17l-.1-6.2V42a5 5 0 0 0-5-4.7 53.5 53.5 0 0 1-19.5-3.9 5 5 0 0 0-4.3 2.4 46 46 0 0 0-2.5 5c.3-2 .9-4.6 2-7.3 2.7-6.4 7.3-9.7 13.6-9.7m0-2c-17.4 0-17.8 21.8-17.8 21.8l1.7 5.1c.6-3.5 3.2-9.4 4.7-11.8a3 3 0 0 1 3.7-1.2A54.7 54.7 0 0 0 83 39.3a3 3 0 0 1 3 2.8l.3 12.5 3.2-4s9.4-24-12.4-28.3a28 28 0 0 0-4.8-.5z" fill="#402821"/></g><path d="M73.6 58.9c-1.7.6-6.7-.4-8-1.6-.8-.7-2-.1-1.7.8.2.8 2.6 3.2 5 3.6 2.3.5 5.4-.8 6-1.5.4-.7-.3-1.7-1.3-1.4z" fill="#473530"/><path d="M72.4 53.8h-.1l-3.4-.7h-.2c-.3 0-.6.3-.5.7s.6 1.5 2 1.7 2.2-.5 2.4-.8c.2-.4.1-.7-.2-.9z" fill="#875334"/></g><path d="M28.6 9a15 15 0 1 1 0 30 15 15 0 0 1 0-30m0-1a16 16 0 1 0 0 32 16 16 0 0 0 0-32z" fill="#E67300"/><linearGradient id="m" x1="66.9" x2="55.2" y1="72.4" y2="115.1" gradientUnits="userSpaceOnUse"><stop stop-color="#651FFF" offset="0"/><stop stop-color="#5914F2" offset=".7"/><stop stop-color="#530EEB" offset="1"/></linearGradient><path d="M56.2 112l.2-.7c0-.3 0-.6-.3-.6h-.2c-.2 0-.4 0-.5.3l-.2.7-16.7-4.8 4.8-15.1v-.3l3.8-11.8c6.5-3 9.8-12.6 10.6-15.2l1-.2c-.3 11.6 5.8 13.8 6.5 14l1.4.2c2.5 0 7.2-1.2 11.6-8.7l.7.4c-.7 2.6-3.4 14.1 2 20l-8.3 26.4-16.4-4.6z" fill="url(#m)"/><path d="M58.1 65c0 11.3 6.2 13.6 7 13.8.2 0 .7.2 1.5.2 2.5 0 7.3-1.1 11.7-8.5-.8 3.2-3 14 2 19.9l-8 25.6-15.5-4.4v-.2a1 1 0 1 0-1.8-.5v.2l-16-4.5L43.9 92v-.3L47.5 80C53.8 77 57 68 58 65m1-1.2l-1.8.2c-.6 2-3.9 12.4-10.6 15.3l-4 12.3h.1l-5 15.7 17.8 5 .3-1.2-.3 1.2 17.3 5L81.5 90c-6-6-2.3-19-2-20L78 69c-4.4 8-9.2 9-11.4 9l-1.3-.1c-.4-.2-6.6-2.3-6.1-14z" fill="#4A00ED"/><radialGradient id="n" cx="76.9" cy="27.3" r="23.4" gradientUnits="userSpaceOnUse"><stop stop-color="#651FFF" offset=".3"/><stop stop-color="#5914F2" offset=".7"/><stop stop-color="#530EEB" offset=".9"/></radialGradient><path d="M77.9 21.8c-15-3.5-23 9-23.3 21 0 1.4-1 0-1.5 3-.7 6 2.8 7.6 2.8 7.6s-1-19.2 17.9-14.6c19 4.7 10.7 20.6 10.7 20.6s3.5-.7 5.5-4.6c1.8-3.4-.6-2.1.3-4.8 3.2-9.5 3-24.5-12.4-28.2z" fill="url(#n)" stroke="#4A00ED" stroke-linecap="round" stroke-linejoin="round" stroke-miterlimit="10"/><path d="M54.6 43.2s.8.2 1.6 1.7c.7 1.4 0 4 0 4m32.3 3.7c1.2-.9 1.8-.8 1.8-.8" fill="#4000CC"/></g><path d="M96 99.4c-6 0-9.4-7.2-16-7.2s-10 7.2-16 7.2-9.4-7.2-16-7.2-10 7.2-16 7.2-9.4-7.2-16-7.2-10 7.2-16 7.2V128h128V99.4c-6-.1-9.4-7.2-16-7.2s-10 7.2-16 7.2z" clip-path="url(#b)" fill="#039BE5"/><path d="M128 104.7c-6 0-9.4 7.2-16 7.2s-10-7.2-16-7.2-9.4 7.2-16 7.2-10-7.2-16-7.2-9.4 7.2-16 7.2-10-7.2-16-7.2-9.4 7.2-16 7.2-10-7.2-16-7.2V129h128v-24.3z" clip-path="url(#b)" fill="#29B6F6"/><g clip-path="url(#b)"><path d="M96 105.7c2.6 0 4.8 1.6 7 3.3 2.6 2 5.3 3.9 9 3.9s6.4-2 9-4c2-1.4 3.8-2.8 6-3.1V128H1v-22.2c2.2.3 4 1.7 6 3.2 2.7 2 5.3 3.9 9 3.9s6.4-2 9-4c2.2-1.6 4.4-3.2 7-3.2s4.8 1.6 7 3.3c2.7 2 5.3 3.9 9 3.9s6.4-2 9-4c2.2-1.6 4.4-3.2 7-3.2s4.8 1.6 7 3.3c2.7 2 5.3 3.9 9 3.9s6.4-2 9-4c2.2-1.6 4.4-3.2 7-3.2m32-1c-6 0-9.4 7.2-16 7.2s-10-7.2-16-7.2-9.4 7.2-16 7.2-10-7.2-16-7.2-9.4 7.2-16 7.2-10-7.2-16-7.2-9.4 7.2-16 7.2-10-7.2-16-7.2V129h128v-24.3z" fill="#17A3E3"/></g><g clip-path="url(#b)"><path d="M112 93.2c3 0 5.3 1.7 7.7 3.5 2.2 1.6 4.4 3.2 7.2 3.6V127H1v-26.7c2.8-.3 5.1-2 7.3-3.6 2.4-1.8 4.7-3.5 7.7-3.5s5.3 1.7 7.8 3.5c2.4 1.8 5 3.7 8.2 3.7s5.8-2 8.3-3.7c2.4-1.8 4.7-3.5 7.7-3.5s5.3 1.7 7.8 3.5c2.4 1.8 5 3.7 8.2 3.7s5.8-2 8.3-3.7c2.4-1.8 4.7-3.5 7.7-3.5s5.3 1.7 7.8 3.5c2.4 1.8 5 3.7 8.2 3.7s5.8-2 8.3-3.7c2.4-1.8 4.7-3.5 7.7-3.5m0-1c-6.6 0-10 7.2-16 7.2s-9.4-7.2-16-7.2-10 7.2-16 7.2-9.4-7.2-16-7.2-10 7.2-16 7.2-9.4-7.2-16-7.2-10 7.2-16 7.2V128h128V99.4c-6-.1-9.5-7.2-16-7.2z" fill="#008DD1"/></g></svg>