<svg viewBox="0 0 128 128" xmlns="http://www.w3.org/2000/svg" xmlns:xlink="http://www.w3.org/1999/xlink"><path d="M-47.9 45h-62.9a28.6 28.6 0 0 1-28.5-28.5V2.1c0-13 10.5-23.6 23.5-23.6h71c14 0 25.5 11.5 25.5 25.6v12.4A28.7 28.7 0 0 1-48 45.1z" fill="none"/><radialGradient id="a" cx="27" cy="63" r="99.6" gradientTransform="matrix(1 0 0 .9764 0 1.6)" gradientUnits="userSpaceOnUse"><stop stop-color="#757576" offset="0"/><stop stop-color="#434343" offset=".9"/></radialGradient><path d="M95.4 110.4H32.6C12.3 110.4 4 98 4 82.5V68.4c0-12.7 10.5-23 23.6-23h70.9c14 0 25.5 11.2 25.5 25v12.1c0 15.4-7.3 28-28.6 28z" fill="url(#a)"/><defs><path id="b" d="M95.4 110.4H32.6C12.3 110.4 4 98 4 82.5V68.4c0-12.7 10.5-23 23.6-23h70.9c14 0 25.5 11.2 25.5 25v12.1c0 15.4-7.3 28-28.6 28z"/></defs><clipPath id="c"><use xlink:href="#b"/></clipPath><g clip-path="url(#c)" opacity=".8"><linearGradient id="d" x1="-10.6" x2="139.6" y1="81.5" y2="81.5" gradientUnits="userSpaceOnUse"><stop stop-color="#E0E0E0" offset="0"/><stop stop-color="#B0AFAF" offset=".7"/><stop stop-color="#E0E0E0" offset="1"/></linearGradient><path d="M62.3 93.2c-43.5 0-65.4-6-66.3-6.3-5.6-2-8.1-7.3-5.7-11.8 2.5-4.5 9-6.6 14.5-4.6.5.2 19.5 4.8 57.5 4.8 39.3 0 62.3-5 62.5-5 5.8-1.7 12.1.7 14.2 5.4 2 4.7-1 9.8-6.7 11.4a334 334 0 0 1-70 6.1z" fill="url(#d)"/></g><path d="M98.4 48.5c12.4 0 22.5 9.8 22.5 21.9v12.1c0 16.5-8.5 24.9-25.5 24.9H32.6C10.4 107.4 7 91.8 7 82.5V68.4c0-11 9.2-20 20.5-20h71m0-3h-71c-13 0-23.5 10.3-23.5 23v14.1c0 15.4 8.3 28 28.6 28h62.8c21.3 0 28.6-12.6 28.6-28V70.4c0-13.8-11.5-25-25.6-25z" fill="#434343" opacity=".2"/><linearGradient id="e" x1="31" x2="72.8" y1="12.7" y2="51.3" gradientUnits="userSpaceOnUse"><stop stop-color="#EF5451" offset=".4"/><stop stop-color="#E53A35" offset=".9"/></linearGradient><path d="M64 39.4h-4a4 4 0 0 1-4-4.1v-1.5a4 4 0 0 1 4-4.2h26.1c3.2 0 6-2.6 6.2-5.9a6 6 0 0 0-6-6.1H56.9c-10 0-18.8 6.9-21.4 16.8l-.4 1.8a9.2 9.2 0 0 1-6.4 6.6c-7.8 2.3-9 5.4-9 7.5 0 1.6 8.2 5.5 44.4 5.5s44.4-3.5 44.4-5.5c0-3.8-4-10.9-44.4-10.9z" fill="url(#e)"/><path d="M86.4 20.3a3 3 0 0 1 2.1 1c.7.6 1 1.4 1 2.3 0 1.8-1.6 3.2-3.4 3.2h-26a7 7 0 0 0-7 7v1.5a7 7 0 0 0 6.7 6.9H64c34.2 0 40.4 5 41.4 7.2-2.1 1-10.6 3.6-41.4 3.6-29.9 0-39-2.7-41.4-3.7 1-1.9 4.6-3.2 6.8-3.9 4-1.2 7.2-4.5 8.2-8.5l.5-1.8c2.3-8.7 10-14.8 18.7-14.8h29.6m0-2.7H56.8c-10 0-18.8 6.9-21.4 16.8l-.4 1.8a9.2 9.2 0 0 1-6.3 6.5c-7.9 2.4-9 5.5-9 7.6 0 1.6 8.1 5.5 44.3 5.5s44.4-3.5 44.4-5.5c0-3.8-4-10.9-44.4-10.9h-4a4 4 0 0 1-4-4.1v-1.5a4 4 0 0 1 4-4.2h26.1c3.2 0 6-2.6 6.1-5.9a6 6 0 0 0-5.8-6.1z" fill="#434343" opacity=".2"/></svg>