<svg viewBox="0 0 128 128" xmlns="http://www.w3.org/2000/svg" xmlns:xlink="http://www.w3.org/1999/xlink"><radialGradient id="a" cx="54" cy="78.849" r="61.528" gradientTransform="matrix(1 0 0 .5745 0 33.549)" gradientUnits="userSpaceOnUse"><stop stop-color="#757576" offset="0"/><stop stop-color="#434343" offset=".923"/></radialGradient><path d="M124 74.67c0 26.45-26.86 36.84-60 36.84S4 101.12 4 74.67s26.86-29.49 60-29.49 60 3.05 60 29.49z" fill="url(#a)"/><defs><path id="b" d="M124 74.67c0 26.45-26.86 36.84-60 36.84S4 101.12 4 74.67s26.86-29.49 60-29.49 60 3.05 60 29.49z"/></defs><clipPath id="c"><use xlink:href="#b"/></clipPath><g clip-path="url(#c)"><linearGradient id="d" x1="66.209" x2="66.209" y1="66.243" y2="91.873" gradientUnits="userSpaceOnUse"><stop stop-color="#E0E0E0" offset="0"/><stop stop-color="#9D9D9D" offset=".7"/></linearGradient><path d="M64 92.69c-43.51 0-65.37-7.37-66.28-7.76-5.59-2.45-8.13-8.96-5.68-14.55 2.44-5.57 8.92-8.11 14.5-5.7.47.19 19.44 5.92 57.46 5.92 39.32 0 62.3-6.1 62.53-6.18 5.73-2.06 12.07.91 14.13 6.66 2.06 5.74-.92 12.07-6.66 14.13-1.08.38-26.87 7.48-70 7.48z" fill="url(#d)"/></g><path d="M64 48.18c15.06 0 30.49.56 41.37 4.64C116.03 56.81 121 63.76 121 74.67c0 11.28-5.39 19.93-16.01 25.7-9.79 5.32-23.97 8.14-40.99 8.14s-31.2-2.81-40.99-8.14C12.39 94.6 7 85.95 7 74.67c0-10.92 4.97-17.86 15.63-21.86 10.88-4.07 26.31-4.63 41.37-4.63m0-3c-33.14 0-60 3.05-60 29.49s26.86 36.84 60 36.84 60-10.4 60-36.84-26.86-29.49-60-29.49z" fill="#434343" opacity=".2"/><path d="M109.82 50.7H18.2c-2.29 1.73-2.79 3.48-2.79 4.84 0 1.73 8.99 5.9 48.59 5.9s48.59-3.78 48.59-5.9c0-1.36-.48-3.11-2.77-4.84z" fill="#434343" opacity=".2"/><linearGradient id="e" x1="28.048" x2="73.548" y1="10.948" y2="52.948" gradientUnits="userSpaceOnUse"><stop stop-color="#EF5451" offset=".37"/><stop stop-color="#E53A35" offset=".874"/></linearGradient><path d="M64 39.88c-1.52 0-2.99.01-4.42.03a4.466 4.466 0 0 1-4.44-4.46v-1.61a4.49 4.49 0 0 1 4.49-4.49h28.56c3.54 0 6.63-2.72 6.72-6.26.09-3.63-2.82-6.6-6.43-6.6H56.14c-10.99 0-20.61 7.4-23.42 18.03l-.51 1.92c-.9 3.4-3.54 6.05-6.92 7.04-8.57 2.52-9.9 5.83-9.9 8.07 0 1.73 8.99 5.9 48.59 5.9s48.59-3.78 48.59-5.9c.02-4.09-4.3-11.67-48.57-11.67z" fill="url(#e)"/><path d="M88.49 19.48c.93 0 1.8.37 2.46 1.04.65.67 1 1.55.97 2.49-.05 1.84-1.72 3.34-3.73 3.34H59.64c-4.13 0-7.49 3.36-7.49 7.49v1.61c0 4.05 3.26 7.37 7.28 7.46h.19c1.42-.02 2.87-.03 4.38-.03 18.94 0 32.35 1.39 39.87 4.12 2.2.8 4.75 2.03 5.5 3.61-2.33 1.05-11.66 3.83-45.37 3.83-32.56 0-42.6-2.85-45.29-3.97 1.17-2.07 5.44-3.53 7.44-4.12 4.38-1.29 7.82-4.79 8.97-9.15l.51-1.92c2.46-9.3 10.9-15.8 20.52-15.8h32.34m0-3H56.14c-10.99 0-20.61 7.4-23.42 18.03l-.51 1.92c-.9 3.4-3.54 6.05-6.92 7.04-8.57 2.52-9.9 5.83-9.9 8.07 0 1.73 8.99 5.9 48.59 5.9s48.59-3.78 48.59-5.9c0-4.07-4.33-11.66-48.59-11.66-1.52 0-2.99.01-4.42.03a4.466 4.466 0 0 1-4.44-4.46v-1.61a4.49 4.49 0 0 1 4.49-4.49H88.2c3.54 0 6.63-2.72 6.72-6.26a6.434 6.434 0 0 0-6.43-6.61z" fill="#434343" opacity=".2"/></svg>