<svg viewBox="0 0 128 128" xmlns="http://www.w3.org/2000/svg" xmlns:xlink="http://www.w3.org/1999/xlink"><defs><path id="a" transform="rotate(-180 64 64)" d="M4 4h120v120H4z"/></defs><clipPath id="b"><use xlink:href="#a"/></clipPath><g clip-path="url(#b)"><linearGradient id="c" x1="-232.9" x2="-116.9" y1="98.8" y2="221.4" gradientTransform="matrix(1 0 0 -1 333 128)" gradientUnits="userSpaceOnUse"><stop stop-color="#383838" offset="0"/><stop stop-color="#4D4D4D" offset="1"/></linearGradient><path fill="url(#c)" d="M147.5-25L96.3 26.2l5.3 5.4L153-19.7z"/><linearGradient id="d" x1="-235.9" x2="-235.8" y1="101.1" y2="101.3" gradientTransform="matrix(1 0 0 -1 333 128)" gradientUnits="userSpaceOnUse"><stop stop-color="#ccc" offset="0"/><stop stop-color="#999" offset="1"/></linearGradient><path d="M96.5 26.2h-.1l.1-.2 1.4 1.6-1.4-1.4z" fill="url(#d)"/><linearGradient id="e" x1="-315.1" x2="-237.7" y1="17" y2="98.8" gradientTransform="matrix(1 0 0 -1 333 128)" gradientUnits="userSpaceOnUse"><stop stop-color="#383838" offset="0"/><stop stop-color="#4D4D4D" offset="0"/><stop stop-color="#333" offset="1"/></linearGradient><path d="M96.5 26.2h-3a9.9 9.9 0 0 1-2.2 3.3 13.2 13.2 0 0 1-5.3 2.8c-2.6.8-5.3 1.2-8 .8l-3-.3a6 6 0 0 0-3 .3A395 395 0 0 0 53.5 47c-5 3.8-10.1 7.8-16 9.9-4.2 1.5-8.5 2-12.8 3a33 33 0 0 0-9.2 3 19.4 19.4 0 0 0-7.4 6 24 24 0 0 0-3.6 8.7c-.8 5-.7 10 .6 14.8 1.5 5 4.3 9.7 7.6 13.7a81.5 81.5 0 0 0 9.2 9.2c4 3.3 8.7 6.1 13.7 7.6 4.8 1.3 9.9 1.4 14.7.6 3.2-.7 6.3-1.7 8.9-3.6l1.8-1.6c1.7-1.7 3-3.7 4.1-5.8 1.5-3 2.4-6 3-9.2 1-4.3 1.5-8.6 3-12.8 2.1-5.9 6-11 9.9-16l9.8-12.7s3.7-5 4-5.8c.4-1 .4-2 .4-3l-.4-3a18 18 0 0 1 1-8c.5-1.9 1.3-3.8 2.7-5.3.9-1 2.1-1.7 3.3-2.2l.1-3-5.4-5.3zM71.7 74.9l2.7-5.4 10.2-4.7c-4 3.6-8.4 7-13 10zm-39-6.7l8.8-4.5-4.5 8.7-5.5 2.7-.7-3.4 1.8-3.5zm-5.8 9.1l-3.9 2-.8-3.2 1.7-3.6 4.5-2.2v1.3c0 .7.2 1.3.3 2L27 77.4zm-4.1 8.5l-.3.7-6.8 3.4 3.6-7.5 1.9-1 1.6 4.4zm3.4-6.9l-2 4-1-2.6 3-1.4zm-.7 12.3l-5.3 2.4 3-6.4h.2l2 4zm0-5l5.9-3-3.6 7h-.2c-.8-1.3-1.5-2.7-2.1-4zm20 17.8l3.8-1.9-1.3 2.7h-.3l-2.2-.8zm7 2l-3.4-1 1.8-3.7 4-2 1.4.2 1.8.1-2.3 4.7-3.3 1.6zm4.4-8.8h-.3a21 21 0 0 1-3.3-.6l2.6-5.3 8.6-4.6-4.3 9-3.3 1.5zm2.5 0h-.1zm6-12l-8.7 4.4 2.6-5.1c3-1 5.8-2.6 8.5-4.3l-2.4 5zm-31.2-3.5l5.5-2.8-3 6.4c-1-1.2-1.7-2.4-2.5-3.6zm3.6 8.5l2 1.7-6.6 3.2 3.1-6.5 1.5 1.6zm-3.9-9.6l3.9-7.4 5.1-2.5-.2.4c-.2.9-.5 1.9-.5 2.9l-1.7 3.3-6.6 3.3zm10 2l-6 2.8 3.5-7.4.7-.3c.2 1.7.8 3.4 1.9 4.8zm.8.8l.1.2-3.1 6.8-2.2-1.9-1.7-1.9 6.9-3.2zm4 11.6l5.5-3-2 4.3C51 96 50 95.5 48.7 95zm-1.1-.7l3.4-6.6 4.3-2.1c.6 0 1.1-.3 1.6-.4l1-.3-2.8 5.5-7.5 4zm-.5-12l7.1-3.4-2.4 4.7H51a8.2 8.2 0 0 1-3.8-1.3zm3.6 3.7l-.5.9-7.4 3.6 3-6.3a10 10 0 0 0 4.9 1.8zm1.1 0h.3l-.4.2.1-.2zm-4.5-5l3.5-7.7 8.5-4.3-4.3 8.4-7.7 3.6zm8.5-2.8l6.9-3.2-3.4 7-3 1c-1 .2-2.1.5-3.2.6l2.7-5.4zM46.6 94c-1.3-.7-2.4-1.5-3.6-2.4l6.4-3-2.8 5.4zM45 95.7L39 99l2.6-5.5c1 .8 2.2 1.6 3.4 2.3zm-.5-19.1l4.9-2.5-3.3 7.1a8 8 0 0 1-1.6-4.1v-.5zm0-1.3a23 23 0 0 1 1.5-6l7.4-3.7-3.3 6.9-5.6 2.8zm10.4-10.5l8.8-4.3-3.5 6.8-8.5 4.3 3.2-6.8zm10.4-5.2l6.6-3.2-3.2 6.7-6.9 3.4 3.5-6.9zm2.6 5l-4.3 8.8-6.9 3.3 4.3-8.5 6.9-3.5zm-3.5 9.6l8.4-4-2.8 6a66.7 66.7 0 0 1-9 5.2l3.4-7.2zm-20.2 29.2l-1-.3 3.4-6.6c1.5.8 3 1.5 4.6 2l-1 2-6 3zm-2-.8l-4-2h.1l6.9-3.7-3 5.7zm-1 2.1v.3l-6.5 3 2.5-5.3c1.3.8 2.6 1.5 4 2zM37 100c-1.6-1-3-2.2-4.3-3.4l8-3.8-3.4 7-.3.2zm-2.5 1.3L29 104l2.6-5.5c1 1 2 1.7 3 2.6zm-6.1-9.9l.1-.4 7-3.2-3.8 7.9a28.6 28.6 0 0 1-3.3-4.3zm1.2 5.5l-5.4 2.7 2.9-5.7 2.5 3zm3-13.4a23 23 0 0 0 2.3 3.4l-5.5 2.5 3.1-5.9zm-.8-7.2l4.4-2.2-3 5.7-1.4-3.5zM43.1 63l4.3-2.1c-1.6 2.7-3 5.4-4 8.4l-4.8 2.4 4.5-8.7zm8.1-3.8l.3-.3 6.5-3.3-4 8.4-7.5 3.8c1.3-3 3-5.9 4.7-8.6zm8.3-4.4l9.3-4.6-4.4 8.7-8.8 4.4 4-8.5zm11-5.4l6.4-3.3-4.3 8.8L66 58l4.5-8.8zm3 6.3l8.7-4.3-3.2 6.5-8.8 4.4 3.3-6.6zm4.7 3.8l-4.7 9.3-8.5 4 4.4-8.8 8.8-4.5zM67 84.3l2.6-5.2c.2 0 .4-.2.6-.4l1.5-1 5-2.4A99.5 99.5 0 0 0 72 82v-.2l-5 2.6zm.1 8l-5.4 2.6 4.5-9 4.7-2.4a28.8 28.8 0 0 0-3.8 8.7zM65.6 96a21 21 0 0 1-5 1l.4-.7 5.8-2.8a23 23 0 0 0-.6 2.5 1 1 0 0 0-.6 0zm-.2 3.7l-8 3.8 2-4a28 28 0 0 0 6.3-1l-.3 1.2zm-2.2 7.5c-2.5-.1-4.9-.3-7.3-.7l.7-1.5 8.5-4c-.5 2-1.1 4.2-2 6.2zm-11 6.7l2.6-5.2c2.4.4 4.8.7 7.2.8-3 2-6.3 3.6-9.8 4.4zm-8 .8l2.6-5 3.9-1.8 3 .6-2.9 5.7c-2 .4-4.3.6-6.5.5zm-5.8-1l6.8-3.2-2 4c-1 0-2-.1-3-.4-.7 0-1.3-.2-1.8-.4zm0-1.2l3.4-6.8.8-.4c1.4.5 2.9 1.1 4.4 1.5l-1 2.1-7.6 3.6zm-5.4-1l.9-2 6.3-3.1-3.4 6.7c-1.3-.4-2.6-1-3.8-1.7zm-1.5-.8l.9-.4-.4.6-.5-.2zm-4.4-3l1-2.1 7.5-3.9.6.4-3.1 6.6-2.7 1.3-3.3-2.4zm-1-1l.3-.2-.1.4-.3-.2zm-3.8-3.8l1-2 7.1-3.3.2.1-3.4 7.2-2 1-2.9-3zm-.9-1l.3-.2-.2.3v-.1zm-3.1-4.3l1.2-2.5 6.5-3 .5.5-4 7.5-1.8.9c-.9-1-1.7-2.3-2.4-3.4zm-1-1.6l.6-.2-.3.6-.2-.4zM15 91.4l6.7-3.4-3 6.3-1.9 1-1.8-3.9zm-1.7-6.1l4.4-2.2-3.3 6.9-.7-2.1-.4-2.6zm6-11.7l-5.4 2.7c.7-3.7 2.2-7.1 4.4-10.2h.1c.1 2.5.4 5 .8 7.5zm.9 4.3l-1.7 3.6-5.3 2.6c0-2.2 0-4.3.3-6.5l6-3c.1 1.2.4 2.2.7 3.3zm7.1-15.2l-4.2 9-1.6.8a91 91 0 0 1-.8-7.7c2.2-.8 4.4-1.5 6.6-2zm2-.4a27 27 0 0 0-1 6.8l-3.6 1.7 4-8.3.7-.2zm.3 15l2 4.6-6.5 3.3-.4-1 3-6 2-1zM34.8 61l-3 6.3-1 .4c.1-1.8.4-3.6 1-5.4 0-.2.2-.4 0-.6l3-.7zm9.9-4.3L42.3 62l-8.9 4.4 2.8-5.8a24.5 24.5 0 0 0 8.5-3.9zm8.7-6l-1.8 3.6-2.3 3.4-.8 1.2-4.5 2.3 2-5.2c2.5-1.6 4.8-3.4 7.2-5.2l.2-.2zM64 42.4l-5.4 11.4-6 3c3.4-5 7.2-9.9 11.4-14.4zm10.6-4l-5 10-9.5 4.7L66 40.9l1.7-1.3c1.4-1.2 3-2 4.7-1.6.8.2 1.6.3 2.3.6zm5 2.1l-2 3.9-6.4 3.2 4.4-8.8c1.4.5 2.7 1 4 1.7zm2.5 1.6l-2.8 1.5 1.2-2.5 1.6 1zm3.1 2.9L83 49.7 74.3 54l4.3-8.8L83 43a17 17 0 0 1 2.2 2zm2 2.6L84.5 49l1.4-3c.5.5.8 1 1.2 1.7zm2.1 4.7L80.6 57l3.2-6.5 4-2a17 17 0 0 1 1.6 4zm.6 3.2c.2 1.9-.6 3.3-1.5 4.7l-1.8 2.3L75 68l4.7-9.4 9.9-5c.1.6.3 1.3.3 2zm1.9-12.4z" fill="url(#e)"/><defs><path id="f" d="M96.5 26.2h-3a9.9 9.9 0 0 1-2.2 3.3 13.2 13.2 0 0 1-5.3 2.8c-2.6.8-5.3 1.2-8 .8l-3-.3a6 6 0 0 0-3 .3A395 395 0 0 0 53.5 47c-5 3.8-10.1 7.8-16 9.9-4.2 1.5-8.5 2-12.8 3a33 33 0 0 0-9.2 3 19.4 19.4 0 0 0-7.4 6 24 24 0 0 0-3.6 8.7c-.8 5-.7 10 .6 14.8 1.5 5 4.3 9.7 7.6 13.7a81.5 81.5 0 0 0 9.2 9.2c4 3.3 8.7 6.1 13.7 7.6 4.8 1.3 9.9 1.4 14.7.6 3.2-.7 6.3-1.7 8.9-3.6l1.8-1.6c1.7-1.7 3-3.7 4.1-5.8 1.5-3 2.4-6 3-9.2 1-4.3 1.5-8.6 3-12.8 2.1-5.9 6-11 9.9-16l9.8-12.7s3.7-5 4-5.8c.4-1 .4-2 .4-3l-.4-3a18 18 0 0 1 1-8c.5-1.9 1.3-3.8 2.7-5.3.9-1 2.1-1.7 3.3-2.2l.1-3-5.4-5.3zM71.7 74.9l2.7-5.4 10.2-4.7c-4 3.6-8.4 7-13 10zm-39-6.7l8.8-4.5-4.5 8.7-5.5 2.7-.7-3.4 1.8-3.5zm-5.8 9.1l-3.9 2-.8-3.2 1.7-3.6 4.5-2.2v1.3c0 .7.2 1.3.3 2L27 77.4zm-4.1 8.5l-.3.7-6.8 3.4 3.6-7.5 1.9-1 1.6 4.4zm3.4-6.9l-2 4-1-2.6 3-1.4zm-.7 12.3l-5.3 2.4 3-6.4h.2l2 4zm0-5l5.9-3-3.6 7h-.2c-.8-1.3-1.5-2.7-2.1-4zm20 17.8l3.8-1.9-1.3 2.7h-.3l-2.2-.8zm7 2l-3.4-1 1.8-3.7 4-2 1.4.2 1.8.1-2.3 4.7-3.3 1.6zm4.4-8.8h-.3a21 21 0 0 1-3.3-.6l2.6-5.3 8.6-4.6-4.3 9-3.3 1.5zm2.5 0h-.1zm6-12l-8.7 4.4 2.6-5.1c3-1 5.8-2.6 8.5-4.3l-2.4 5zm-31.2-3.5l5.5-2.8-3 6.4c-1-1.2-1.7-2.4-2.5-3.6zm3.6 8.5l2 1.7-6.6 3.2 3.1-6.5 1.5 1.6zm-3.9-9.6l3.9-7.4 5.1-2.5-.2.4c-.2.9-.5 1.9-.5 2.9l-1.7 3.3-6.6 3.3zm10 2l-6 2.8 3.5-7.4.7-.3c.2 1.7.8 3.4 1.9 4.8zm.8.8l.1.2-3.1 6.8-2.2-1.9-1.7-1.9 6.9-3.2zm4 11.6l5.5-3-2 4.3C51 96 50 95.5 48.7 95zm-1.1-.7l3.4-6.6 4.3-2.1c.6 0 1.1-.3 1.6-.4l1-.3-2.8 5.5-7.5 4zm-.5-12l7.1-3.4-2.4 4.7H51a8.2 8.2 0 0 1-3.8-1.3zm3.6 3.7l-.5.9-7.4 3.6 3-6.3a10 10 0 0 0 4.9 1.8zm1.1 0h.3l-.4.2.1-.2zm-4.5-5l3.5-7.7 8.5-4.3-4.3 8.4-7.7 3.6zm8.5-2.8l6.9-3.2-3.4 7-3 1c-1 .2-2.1.5-3.2.6l2.7-5.4zM46.6 94c-1.3-.7-2.4-1.5-3.6-2.4l6.4-3-2.8 5.4zM45 95.7L39 99l2.6-5.5c1 .8 2.2 1.6 3.4 2.3zm-.5-19.1l4.9-2.5-3.3 7.1a8 8 0 0 1-1.6-4.1v-.5zm0-1.3a23 23 0 0 1 1.5-6l7.4-3.7-3.3 6.9-5.6 2.8zm10.4-10.5l8.8-4.3-3.5 6.8-8.5 4.3 3.2-6.8zm10.4-5.2l6.6-3.2-3.2 6.7-6.9 3.4 3.5-6.9zm2.6 5l-4.3 8.8-6.9 3.3 4.3-8.5 6.9-3.5zm-3.5 9.6l8.4-4-2.8 6a66.7 66.7 0 0 1-9 5.2l3.4-7.2zm-20.2 29.2l-1-.3 3.4-6.6c1.5.8 3 1.5 4.6 2l-1 2-6 3zm-2-.8l-4-2h.1l6.9-3.7-3 5.7zm-1 2.1v.3l-6.5 3 2.5-5.3c1.3.8 2.6 1.5 4 2zM37 100c-1.6-1-3-2.2-4.3-3.4l8-3.8-3.4 7-.3.2zm-2.5 1.3L29 104l2.6-5.5c1 1 2 1.7 3 2.6zm-6.1-9.9l.1-.4 7-3.2-3.8 7.9a28.6 28.6 0 0 1-3.3-4.3zm1.2 5.5l-5.4 2.7 2.9-5.7 2.5 3zm3-13.4a23 23 0 0 0 2.3 3.4l-5.5 2.5 3.1-5.9zm-.8-7.2l4.4-2.2-3 5.7-1.4-3.5zM43.1 63l4.3-2.1c-1.6 2.7-3 5.4-4 8.4l-4.8 2.4 4.5-8.7zm8.1-3.8l.3-.3 6.5-3.3-4 8.4-7.5 3.8c1.3-3 3-5.9 4.7-8.6zm8.3-4.4l9.3-4.6-4.4 8.7-8.8 4.4 4-8.5zm11-5.4l6.4-3.3-4.3 8.8L66 58l4.5-8.8zm3 6.3l8.7-4.3-3.2 6.5-8.8 4.4 3.3-6.6zm4.7 3.8l-4.7 9.3-8.5 4 4.4-8.8 8.8-4.5zM67 84.3l2.6-5.2c.2 0 .4-.2.6-.4l1.5-1 5-2.4A99.5 99.5 0 0 0 72 82v-.2l-5 2.6zm.1 8l-5.4 2.6 4.5-9 4.7-2.4a28.8 28.8 0 0 0-3.8 8.7zM65.6 96a21 21 0 0 1-5 1l.4-.7 5.8-2.8a23 23 0 0 0-.6 2.5 1 1 0 0 0-.6 0zm-.2 3.7l-8 3.8 2-4a28 28 0 0 0 6.3-1l-.3 1.2zm-2.2 7.5c-2.5-.1-4.9-.3-7.3-.7l.7-1.5 8.5-4c-.5 2-1.1 4.2-2 6.2zm-11 6.7l2.6-5.2c2.4.4 4.8.7 7.2.8-3 2-6.3 3.6-9.8 4.4zm-8 .8l2.6-5 3.9-1.8 3 .6-2.9 5.7c-2 .4-4.3.6-6.5.5zm-5.8-1l6.8-3.2-2 4c-1 0-2-.1-3-.4-.7 0-1.3-.2-1.8-.4zm0-1.2l3.4-6.8.8-.4c1.4.5 2.9 1.1 4.4 1.5l-1 2.1-7.6 3.6zm-5.4-1l.9-2 6.3-3.1-3.4 6.7c-1.3-.4-2.6-1-3.8-1.7zm-1.5-.8l.9-.4-.4.6-.5-.2zm-4.4-3l1-2.1 7.5-3.9.6.4-3.1 6.6-2.7 1.3-3.3-2.4zm-1-1l.3-.2-.1.4-.3-.2zm-3.8-3.8l1-2 7.1-3.3.2.1-3.4 7.2-2 1-2.9-3zm-.9-1l.3-.2-.2.3v-.1zm-3.1-4.3l1.2-2.5 6.5-3 .5.5-4 7.5-1.8.9c-.9-1-1.7-2.3-2.4-3.4zm-1-1.6l.6-.2-.3.6-.2-.4zM15 91.4l6.7-3.4-3 6.3-1.9 1-1.8-3.9zm-1.7-6.1l4.4-2.2-3.3 6.9-.7-2.1-.4-2.6zm6-11.7l-5.4 2.7c.7-3.7 2.2-7.1 4.4-10.2h.1c.1 2.5.4 5 .8 7.5zm.9 4.3l-1.7 3.6-5.3 2.6c0-2.2 0-4.3.3-6.5l6-3c.1 1.2.4 2.2.7 3.3zm7.1-15.2l-4.2 9-1.6.8a91 91 0 0 1-.8-7.7c2.2-.8 4.4-1.5 6.6-2zm2-.4a27 27 0 0 0-1 6.8l-3.6 1.7 4-8.3.7-.2zm.3 15l2 4.6-6.5 3.3-.4-1 3-6 2-1zM34.8 61l-3 6.3-1 .4c.1-1.8.4-3.6 1-5.4 0-.2.2-.4 0-.6l3-.7zm9.9-4.3L42.3 62l-8.9 4.4 2.8-5.8a24.5 24.5 0 0 0 8.5-3.9zm8.7-6l-1.8 3.6-2.3 3.4-.8 1.2-4.5 2.3 2-5.2c2.5-1.6 4.8-3.4 7.2-5.2l.2-.2zM64 42.4l-5.4 11.4-6 3c3.4-5 7.2-9.9 11.4-14.4zm10.6-4l-5 10-9.5 4.7L66 40.9l1.7-1.3c1.4-1.2 3-2 4.7-1.6.8.2 1.6.3 2.3.6zm5 2.1l-2 3.9-6.4 3.2 4.4-8.8c1.4.5 2.7 1 4 1.7zm2.5 1.6l-2.8 1.5 1.2-2.5 1.6 1zm3.1 2.9L83 49.7 74.3 54l4.3-8.8L83 43a17 17 0 0 1 2.2 2zm2 2.6L84.5 49l1.4-3c.5.5.8 1 1.2 1.7zm2.1 4.7L80.6 57l3.2-6.5 4-2a17 17 0 0 1 1.6 4zm.6 3.2c.2 1.9-.6 3.3-1.5 4.7l-1.8 2.3L75 68l4.7-9.4 9.9-5c.1.6.3 1.3.3 2zm1.9-12.4z"/></defs><clipPath id="g"><use xlink:href="#f"/></clipPath><g clip-path="url(#g)" fill="#E82E00"><path d="M46.2 81c-3.6-3.7-1.8-8.5.9-14.6 3-7 11.5-18.4 17-23.7 4.5-4.2 6.2-5 9.4-4.4 2.2.4 7.1 2.2 10.6 5.4s7.7 10.3 5.3 15A54.1 54.1 0 0 1 75.6 72c-3.3 2.5-21.8 17-29.4 9z"/><path d="M32.2 61.7S26.3 74.1 38 87c11.6 12.6 21.3 10.9 28.3 9 0 0 .5-6.2 4-11.8 2-3.2 6.6-8.7 6.6-8.7s-2 .5-5.4 2.7A67.7 67.7 0 0 1 59 84.7c-7.6 2.7-11 1.3-14.3-1.3s-4.1-10.4.2-18 7-11.4 8.4-14.5c0 0-14.4 10.7-21 10.8z"/><path d="M31.8 95.5c-4.1-4-4.7-6-5.8-8.2s-5.4-13.2-5.4-22.6c0 0 3.6-1.5 8.8-2.4 0 0-5.6 16.7 10.8 29.8 0 0 10.8 10.7 25.5 6.5 0 0-1.5 7-2.5 8.7 0 0-19.2 0-31.5-11.8z"/><path d="M18.5 65.7s.7 22.7 13.3 33.2c11.6 9.8 23.1 9.8 30.8 10.5 0 0-19 14.3-37.6-3.7-19.4-18.7-10-35-6.5-40z"/></g><radialGradient id="h" cx="36" cy="25.9" r="15" gradientTransform="rotate(180 64 64)" gradientUnits="userSpaceOnUse"><stop stop-color="#FCEE21" offset="0"/><stop stop-color="#D9E021" offset="1"/></radialGradient><circle cx="88.5" cy="96.3" r="12.2" fill="url(#h)"/><path d="M88.5 86.1a10.2 10.2 0 1 1 0 20.3 10.2 10.2 0 0 1 0-20.3m0-2a12.2 12.2 0 1 0 0 24.3 12.2 12.2 0 0 0 0-24.3z" fill="#424242" opacity=".2"/><defs><path id="i" d="M147.5-25L96.3 26.2l5.3 5.4L153-19.7z"/></defs><clipPath id="j"><use xlink:href="#i"/></clipPath><path transform="rotate(45 106.4 21.8)" clip-path="url(#j)" fill="#E82E00" d="M99.9 18.7h12.9v6.2H99.9z"/><path transform="rotate(45 115.4 12.8)" clip-path="url(#j)" fill="#E82E00" d="M108.9 9.7h12.9v6.2h-12.9z"/><path d="M147.5-22.2l2.6 2.5L100.4 30a2 2 0 0 0-.5 1.9v1.3c-1 .5-2 1.2-2.8 2.1a14.8 14.8 0 0 0-3.2 6c-1 3.2-1.3 6-1 8.8a31.3 31.3 0 0 1 .3 3c0 .8 0 1.5-.2 2.1l-1 1.6v-1.3c0-1-.2-1.7-.4-2.4a2 2 0 0 0-.2-.5V52a20 20 0 0 0-2.5-5.4l-.4-.5c-.2-.4-.5-.9-1-1.3a2 2 0 0 0-.3-.4 2 2 0 0 0-.4-.5 19.5 19.5 0 0 0-2.8-2.6 2 2 0 0 0-.8-.7l-.6-.4-1-.6-.5-.2-.5-.4a29.7 29.7 0 0 0-9-3h-.1l1.3-.9a3 3 0 0 1 1.2-.2h.9l1.4.2a59.2 59.2 0 0 0 3.7.3c2 0 4.3-.4 6.6-1a16 16 0 0 0 6-3.3h.1c.8-.9 1.5-1.8 2-2.8h1.7a2 2 0 0 0 1.5-.7l49.6-49.7M59 45.4L55.2 50a2 2 0 0 0-.7-.9l-.2-.1.5-.4 4.1-3.2m-39.7 18l-.4.7h-.5a2 2 0 0 0-1.7.8 30.1 30.1 0 0 0-5.2 19.9v.7l.3 2.6v.1l.1.3.1.2.7 2 .4.7a54.2 54.2 0 0 0 3.6 7.4 34.1 34.1 0 0 0 4.2 5.5l3 3.1c.1.2.4.3.6.4l.2.3.3.3.5.4c.2.2.3.4.6.5l1 .7c.7.6 1.5 1.2 2.4 1.7l.6.3.7.6.5.2.5.2.3.2a24.7 24.7 0 0 0 4.8 2h.2l.8.5 2 .5 3.2.5h1.2a45.7 45.7 0 0 0 7-.5c.3 0 .6-.1.8-.3h.7a30 30 0 0 0 10.5-4.7 2 2 0 0 0 .8-2l.6-.4-1.3 2.8a20.6 20.6 0 0 1-5.3 6.7 22 22 0 0 1-8 3.2 32.3 32.3 0 0 1-13.8-.5 37.3 37.3 0 0 1-13-7.3 59 59 0 0 1-9-8.9A31.6 31.6 0 0 1 6.5 78c.8-3.3 1.9-6 3.3-8 1.5-2.1 3.8-4 6.7-5.3.9-.5 1.8-.9 2.8-1.2M82.8 69a628.6 628.6 0 0 1-4.2 5.4l-.2-.3a2 2 0 0 0-1.1-.7l5.5-4.4m64.7-94L96.3 26.2h-2.8a9.9 9.9 0 0 1-2.2 3.3 13.2 13.2 0 0 1-5.3 2.8 20.4 20.4 0 0 1-8 .8l-3-.3h-1c-.7 0-1.4 0-2 .4A395 395 0 0 0 53.5 47c-5 3.8-10.1 7.8-16 9.9-4.2 1.5-8.5 2-12.8 3-3.2.7-6.3 1.5-9.2 3a19.4 19.4 0 0 0-7.4 6c-1.8 2.5-3 5.6-3.6 8.8-.8 4.8-.7 10 .6 14.7 1.5 5 4.3 9.7 7.6 13.7a81.5 81.5 0 0 0 9.2 9.2c4 3.3 8.7 6.1 13.7 7.6a32.7 32.7 0 0 0 14.7.6c3.2-.7 6.3-1.7 8.9-3.6l1.8-1.5a31.4 31.4 0 0 0 7-15c1-4.3 1.6-8.7 3-12.9 2.2-5.9 6-11 10-16l9.8-12.7s3.7-5 4-5.8c.4-1 .4-2 .4-3l-.4-3c-.3-2.7.1-5.4 1-8 .5-1.9 1.3-3.8 2.7-5.3.9-1 2.1-1.7 3.3-2.2l.1-3L153-19.8l-5.5-5.3zM60.3 53.2L66 40.9l1.7-1.3a6 6 0 0 1 3.8-1.7l.9.1 2.3.6-5 9.9-9.4 4.7zm11-5.5l4.4-8.8c1.4.5 2.7 1 4 1.7l-2 3.9-6.4 3.2zm8-4l1.3-2.5 1.6 1-2.8 1.5zM52.8 56.9c3.4-5 7.2-9.9 11.4-14.4l-5.4 11.4-6 3zm21.6-2.8l4.3-8.8L83 43c.8.7 1.6 1.3 2.2 2L83 49.8 74.3 54zM84.6 49l1.4-3 1.3 1.7-2.7 1.3zM66 58l4.5-8.8L77 46l-4.3 8.8L66 58zm14.6-1l3.2-6.5 4-2c.7 1.3 1.2 2.6 1.6 4L80.6 57zm-25 6.2l4-8.5 9.2-4.6-4.4 8.7-8.8 4.4zm-11.6-2l2-5.1c2.5-1.6 4.9-3.4 7.2-5.2l.2-.2-1.8 3.7-2.3 3.4-.8 1.2-4.5 2.3zm26.2 1l3.3-6.6 8.7-4.3-3.2 6.5-8.8 4.5zm4.9 5.8l4.7-9.4 9.9-5c.1.6.3 1.3.3 2 .2 1.9-.6 3.3-1.5 4.7l-1.8 2.3L75 68zm-28.5-.3c1.2-3 2.9-5.9 4.7-8.6 0-.2.1-.2.2-.3l6.5-3.3-4 8.5-7.4 3.7zm15.1-1.2l3.5-6.8 6.7-3.3-3.3 6.7-6.9 3.4zm-28.3 0l2.8-5.8a24.5 24.5 0 0 0 8.5-3.9l-2.4 5.3-8.9 4.4zM65 72.7l4.4-8.8 8.8-4.5-4.7 9.3-8.5 4zm-13.3-1l3.1-7 8.8-4.2-3.5 6.9-8.4 4.3zm-13-.1l4.5-8.7 4.3-2.1a44 44 0 0 0-4.2 8.4l-4.7 2.4zm-8-3.8a21 21 0 0 1 1.2-5.4v-.6l2.9-.7-3 6.3-1 .4zm-6 3l4-8.3.7-.2a27 27 0 0 0-1 6.8l-3.7 1.7zm-3.2 1.7a91 91 0 0 1-.8-7.7c2.2-.8 4.4-1.5 6.6-2l-4.2 8.9-1.6.8zm10 2.6l-.7-3.4 1.8-3.5 9-4.5-4.6 8.7-5.5 2.7zm25.1 1.6l4.3-8.5 6.9-3.5-4.3 8.7-6.9 3.3zm15-1.8l2.8-5.4 10.2-4.7c-4 3.6-8.4 7-13 10zm-27.2.4a23 23 0 0 1 1.5-6l7.4-3.7-3.3 6.9-5.6 2.8zm-30.5 1c.7-3.7 2.3-7.2 4.4-10.2h.1c.1 2.5.4 5 .8 7.5L14 76.3zM47.3 81l3.6-7.7 8.4-4.3-4.3 8.4-7.7 3.6zM23 79.3l-.8-3.2 1.7-3.6 4.5-2.2v1.4l.3 2-1.8 3.6-3.9 2zm37.8 2l3.5-7 8.4-4L70 76l-1 .7a69.6 69.6 0 0 1-8 4.5zM34 80.7l3.9-7.5 5.1-2.5-.2.4-.5 3-1.6 3.2-6.7 3.4zm-.7-1l-1.4-3.5 4.4-2.2-3 5.7zM46 81.2a8 8 0 0 1-1.6-4.1v-.5l4.9-2.5-3.3 7.1zm-32.8 2.9c0-2.2 0-4.3.4-6.5l5.9-3c.1 1.2.4 2.2.7 3.3l-1.7 3.6-5.3 2.6zm40-.5l2.6-5.4 6.9-3.2-3.4 7-3 1c-1 .2-2.1.5-3.2.6zm13.8.7l2.6-5.2c.2 0 .4-.2.6-.4l1.5-1 5-2.4A99.5 99.5 0 0 0 72 82v-.2l-5 2.6zm-42 .9l-.2-.9 3-6.2 1.8-.8 2 4.6-6.5 3.3zm12.9.2l3.5-7.3.7-.4c.2 1.7.8 3.4 1.9 4.8l-6.1 3zm-1.2-.1a34 34 0 0 1-2.5-3.6l5.5-2.8-3 6.4zm15.1-1.6l-.9-.1a8.6 8.6 0 0 1-3.8-1.3l7.2-3.3-2.5 4.7zm-27.6-.8l-1-2.6 3-1.3-2 4zm32.5 6.8l2.6-5.2c3-1 5.8-2.6 8.5-4.2L65.4 85l-8.7 4.6zm-41 .2l3.6-7.5 1.9-1 1.6 4.4-.3.7-6.8 3.4zm-1.2 0l-.8-2-.4-2.6 4.4-2.2-3.2 6.9zm13 .3l-2-4 5.9-3-3.6 7h-.2zm14.2.3l-2.2-2-1.7-1.8 6.9-3.3s.2 0 .2.2l-3.2 6.9zm-12.3-1.2l3.1-5.9a23 23 0 0 0 2.4 3.4l-5.5 2.5zM61.7 95l4.5-9 4.8-2.4a29.4 29.4 0 0 0-3.9 8.8L61.7 95zm-18.9-4.4l3-6.3c1.4 1 3.1 1.6 4.9 1.8l-.5.9-7.4 3.6zm4.8 3.9l3.4-6.7 4.3-2.1c.6 0 1.1-.2 1.6-.4l1-.3-2.8 5.6-7.5 3.9zm4.1-8.2l.1-.2h.3l-.4.2zm4.9 11a21 21 0 0 1-3.3-.6l2.6-5.3 8.6-4.6-4.3 9-3.3 1.5h-.3zm-36.4-3.6l3-6.4h.2l2 4-5.2 2.4zm11.5 2a27.8 27.8 0 0 1-3.3-4.2l.2-.5 7-3.2-3.9 7.9zm-14.9-.4L15 91.4l6.8-3.4-3.1 6.4-1.9.8zM46.6 94c-1.3-.7-2.4-1.5-3.6-2.4l6.4-3-2.8 5.4zm-13.4 1.2l3.1-6.5 1.5 1.6 2 1.7-6.6 3.2zm19 1.2L48.7 95l5.6-3-2 4.3zM20.7 101a33 33 0 0 1-2.4-3.4l1.2-2.5 6.6-3 .4.5-4 7.5-1.8.9zM37 99.9a28 28 0 0 1-4.3-3.4l8-3.8-3.4 7-.3.2zm2-1l2.5-5.5c1 .8 2.2 1.6 3.4 2.3L39 99zm21.6-1.7l.4-.7 5.8-2.9a23 23 0 0 0-.6 2.5H66a20.6 20.6 0 0 1-5.3 1.1zm-36.4 2.3l2.9-5.7 2.5 3-5.4 2.7zm-6.6-3l-.2-.4.5-.2-.3.6zm26.5 7l-1-.4 3.4-6.6c1.5.9 3 1.5 4.6 2l-1 2-6 3zm-2-.9c-1.3-.5-2.7-1.3-4-2h.1l6.9-3.7-3 5.7zm-17 3.4l-2.8-3 1-2 7.1-3.3.3.1-3.4 7.2-2.1 1zm32.3-2.4l2-4a28 28 0 0 0 6.3-1l-.3 1.2-8 3.8zM29 104l2.6-5.4 3 2.5L29 104zm23.6 1.8l-3.4-.8 1.8-3.8 4-2c.6.2 1 .2 1.5.2l1.7.1-2.3 4.7-3.3 1.6zm10.7 1.4c-2.5-.1-4.9-.3-7.3-.7l.7-1.5 8.5-4c-.5 2-1.1 4.2-2 6.2zM30.5 110l-3.3-2.4 1-2 7.5-3.9.6.4-3.1 6.6-2.7 1.3zm-8.9-8v-.1l.2-.2-.2.3zm26.5 2.7h-.3l-2.2-.8 3.8-1.9-1.3 2.7zM34.7 108l2.5-5.4c1.3.8 2.6 1.5 4 2v.3l-6.5 3zm3.8 4.5l3.5-6.8.7-.4c1.4.5 2.9 1.1 4.4 1.5l-1 2.1-7.6 3.6zm-1.6.6c-1.3-.4-2.6-1-3.8-1.7l.9-2 6.3-3-3.4 6.7zM26.3 107l-.3-.2.5-.2-.2.4zm19 7.8h-1l2.5-5 3.9-1.8 3 .6-2.9 5.7c-1.7.3-3.6.5-5.4.5zm7-.8l2.5-5.2c2.4.4 4.8.7 7.2.8-3 2-6.3 3.6-9.8 4.4zM32 111l-.4-.2.8-.4-.4.7zm11.2 3.7c-1 0-2-.2-3-.5-.7 0-1.3-.2-1.8-.4l6.8-3.2-2 4z" fill="#eee" opacity=".2"/></g></svg>