<svg viewBox="0 0 128 128" xmlns="http://www.w3.org/2000/svg"><linearGradient id="a" x1="64" x2="64" y1="60.8" y2="118.4" gradientUnits="userSpaceOnUse"><stop stop-color="#448AFF" offset="0"/><stop stop-color="#3979FF" offset=".5"/><stop stop-color="#2962FF" offset="1"/></linearGradient><path fill="url(#a)" d="M8 60h112v60H8z"/><radialGradient id="b" cx="26.3" cy="63.8" r="56.4" gradientUnits="userSpaceOnUse"><stop stop-color="#2196F3" offset="0"/><stop stop-color="#1D86E2" offset=".6"/><stop stop-color="#1976D2" offset="1"/></radialGradient><path fill="url(#b)" d="M8 64h36v60H8z"/><radialGradient id="c" cx="102.8" cy="64" r="53.5" gradientUnits="userSpaceOnUse"><stop stop-color="#2196F3" offset="0"/><stop stop-color="#1D86E2" offset=".6"/><stop stop-color="#1976D2" offset="1"/></radialGradient><path fill="url(#c)" d="M84 64h36v60H84z"/><radialGradient id="d" cx="64.3" cy="62.3" r="66.1" gradientUnits="userSpaceOnUse"><stop stop-color="#42A5F5" offset="0"/><stop stop-color="#3FA2F4" offset=".2"/><stop stop-color="#359AEF" offset=".4"/><stop stop-color="#248DE8" offset=".6"/><stop stop-color="#1E88E5" offset=".7"/><stop stop-color="#1E88E5" offset="1"/></radialGradient><path fill="url(#d)" d="M44 64h40v60H44z"/><path fill="#0D47A1" d="M25 64h2v52h-2z"/><linearGradient id="e" x1="26" x2="26" y1="82.8" y2="98.7" gradientUnits="userSpaceOnUse"><stop stop-color="#ff0" offset="0"/><stop stop-color="#FFD600" offset="1"/></linearGradient><ellipse cx="26" cy="90" rx="4" ry="7" fill="url(#e)"/><path fill="#0D47A1" d="M63 64h2v52h-2z"/><linearGradient id="f" x1="64" x2="64" y1="82.8" y2="98.7" gradientUnits="userSpaceOnUse"><stop stop-color="#ff0" offset="0"/><stop stop-color="#FFD600" offset="1"/></linearGradient><ellipse cx="64" cy="90" rx="4" ry="7" fill="url(#f)"/><path fill="#0D47A1" d="M101 64h2v52h-2z"/><linearGradient id="g" x1="102" x2="102" y1="82.8" y2="98.7" gradientUnits="userSpaceOnUse"><stop stop-color="#ff0" offset="0"/><stop stop-color="#FFD600" offset="1"/></linearGradient><ellipse cx="102" cy="90" rx="4" ry="7" fill="url(#g)"/><path d="M122.4 124H5.6c-.9 0-1.6-.7-1.6-1.6v-4.8c0-.9.7-1.6 1.6-1.6h116.8c.9 0 1.6.7 1.6 1.6v4.8c0 .9-.7 1.6-1.6 1.6zm0-60H5.6c-.9 0-1.6-.7-1.6-1.6v-4.8c0-.9.7-1.6 1.6-1.6h116.8c.9 0 1.6.7 1.6 1.6v4.8c0 .9-.7 1.6-1.6 1.6z" fill="#BDBDBD"/><path d="M115.8 7.2c-1.2-3.3-7-3.8-10-2.7l-.5.2-74 33.6c-2-1-5-1.1-8 0-4.2 1.8-6.7 5.7-5.5 8.7 1.3 3.1 5.8 4.1 10 2.4 3-1.2 5-3.3 5.7-5.5L110 16.2c3-1 7-5.8 5.8-9z" fill="#FF9800"/><path d="M26 83c2.2 0 4 3.1 4 7s-1.8 7-4 7-4-3.1-4-7 1.8-7 4-7m0-3c-4 0-7 4.3-7 10s3 10 7 10 7-4.3 7-10-3-10-7-10zm38 3c2.2 0 4 3.1 4 7s-1.8 7-4 7-4-3.1-4-7 1.8-7 4-7m0-3c-4 0-7 4.3-7 10s3 10 7 10 7-4.3 7-10-3-10-7-10zm38 3c2.2 0 4 3.1 4 7s-1.8 7-4 7-4-3.1-4-7 1.8-7 4-7m0-3c-4 0-7 4.3-7 10s3 10 7 10 7-4.3 7-10-3-10-7-10z" opacity=".2"/><linearGradient id="h" x1="54.7" x2="42.6" y1="23.1" y2="36" gradientUnits="userSpaceOnUse"><stop stop-color="#F57C00" offset="0"/><stop stop-color="#F57C00" stop-opacity="0" offset="1"/></linearGradient><path d="M31.2 38.3c-2-1-5-1.1-7.8 0-4.3 1.8-6.8 5.7-5.6 8.7 1.3 3.1 5.8 4.1 10 2.4 3-1.2 5-3.3 5.7-5.5L64 33l-11.6-4.2-21.2 9.6z" fill="url(#h)"/><linearGradient id="i" x1="61.7" x2="83.2" y1="22.9" y2="18.2" gradientUnits="userSpaceOnUse"><stop stop-color="#F57C00" offset="0"/><stop stop-color="#F57C00" stop-opacity="0" offset="1"/></linearGradient><path d="M115.8 7.2c-1.2-3.3-7-3.8-10-2.7l-.5.2L64 23.5l11.6 5.2L110 16.3c3-1.1 7-5.9 5.8-9.1z" fill="url(#i)"/><path d="M109.1 7c2.2 0 3.7.7 3.9 1.2 0 .3 0 .8-.4 1.5a7.9 7.9 0 0 1-3.6 3.7L32.5 41.1l-.4.1.4-.1 74-33.7h.3c.6-.3 1.4-.4 2.3-.4M27.6 40.5a4 4 0 0 1 2.2.5l1.3.6-.5 1.4c-.4 1.4-2 2.8-3.8 3.6-1 .4-2.1.7-3 .7-1.6 0-2.9-.6-3.2-1.4-.3-.8.2-1.7.4-2a8 8 0 0 1 6.5-3.4M109.2 4c-1.3 0-2.4.2-3.4.5l-.4.2-74 33.6c-1-.5-2.4-.8-3.8-.8a11 11 0 0 0-4.1.8C19 40.1 16.6 44 17.8 47c.9 2.1 3.2 3.2 5.9 3.2a11 11 0 0 0 4.2-.8c2.8-1.2 5-3.3 5.6-5.5L110 16.2c3-1 7-5.8 5.8-9C115 4.9 111.9 4 109 4zM121 59v2h-1a3 3 0 0 0-3 3v52a3 3 0 0 0 3 3h1v2H7v-2h1a3 3 0 0 0 3-3V64a3 3 0 0 0-3-3H7v-2h114m1.4-3H5.6c-.9 0-1.6.7-1.6 1.6v4.8c0 .9.7 1.6 1.6 1.6H8v52H5.6c-.9 0-1.6.7-1.6 1.6v4.8c0 .9.7 1.6 1.6 1.6h116.8c.9 0 1.6-.7 1.6-1.6v-4.8c0-.9-.7-1.6-1.6-1.6H120V64h2.4c.9 0 1.6-.7 1.6-1.6v-4.8c0-.9-.7-1.6-1.6-1.6z" opacity=".2"/><path d="M12.2 7.2c1.2-3.3 7-3.8 10-2.7l.5.2 74 33.6c2-1 5-1.1 8 0 4.2 1.8 6.7 5.7 5.5 8.7-1.3 3.1-5.8 4.1-10 2.4a9.5 9.5 0 0 1-5.7-5.5L17.9 16.2c-3-1-6.9-5.8-5.7-9z" fill="#FFA726"/><path d="M18.9 7c.9 0 1.8.1 2.4.3l.1.1 74.1 33.7.4.1-.4-.1L19 13.4a8 8 0 0 1-3.7-3.7C15 9 15 8.4 15 8.2c.2-.5 1.7-1.2 4-1.2m81.5 33.5c1 0 2 .2 3 .6a7 7 0 0 1 3.5 2.7c.3.4.8 1.3.5 2.1-.4.8-1.6 1.3-3.1 1.3-1 0-2-.2-3-.6-2-.8-3.5-2.2-4-3.6l-.4-1.4 1.3-.6a5 5 0 0 1 2.2-.5M19 4c-2.8 0-5.9 1-6.7 3.2-1.2 3.2 2.7 8 5.7 9L94.5 44a9.5 9.5 0 0 0 5.6 5.5c1.4.6 2.9.9 4.2.9 2.7 0 5-1.2 5.9-3.3 1.2-3-1.3-7-5.6-8.7-1.4-.5-2.8-.8-4.2-.8-1.4 0-2.6.3-3.7.8l-74-33.6-.4-.2c-1-.3-2.2-.5-3.4-.5z" opacity=".2"/></svg>