<svg viewBox="0 0 128 128" xmlns="http://www.w3.org/2000/svg"><ellipse transform="rotate(-17.1 63 66.1)" cx="62.9" cy="66.1" rx="53.6" ry="23.8" fill="#BF4900"/><ellipse transform="rotate(-17.1 63 66)" cx="62.9" cy="66" rx="53.6" ry="23.8" fill="#C04900"/><ellipse transform="rotate(-17.1 62.9 66)" cx="62.9" cy="66" rx="53.6" ry="23.8" fill="#C14A00"/><ellipse transform="rotate(-17.1 62.9 65.9)" cx="62.9" cy="65.9" rx="53.5" ry="23.8" fill="#C24A00"/><ellipse transform="rotate(-17.1 62.8 65.8)" cx="62.8" cy="65.8" rx="53.5" ry="23.8" fill="#C34B00"/><ellipse transform="rotate(-17.1 62.8 65.7)" cx="62.8" cy="65.7" rx="53.5" ry="23.8" fill="#C44B00"/><ellipse transform="rotate(-17.1 62.8 65.6)" cx="62.8" cy="65.6" rx="53.5" ry="23.7" fill="#C54B00"/><ellipse transform="rotate(-17.1 62.8 65.6)" cx="62.8" cy="65.6" rx="53.4" ry="23.7" fill="#C64C00"/><ellipse transform="rotate(-17.1 62.7 65.5)" cx="62.7" cy="65.5" rx="53.4" ry="23.7" fill="#C74C00"/><ellipse transform="rotate(-17.1 62.7 65.4)" cx="62.7" cy="65.4" rx="53.4" ry="23.7" fill="#C84C00"/><ellipse transform="rotate(-17.1 62.7 65.3)" cx="62.7" cy="65.3" rx="53.4" ry="23.7" fill="#C94D00"/><ellipse transform="rotate(-17.1 62.7 65.2)" cx="62.7" cy="65.2" rx="53.3" ry="23.7" fill="#CA4D00"/><ellipse transform="rotate(-17.1 62.6 65.2)" cx="62.6" cy="65.2" rx="53.3" ry="23.7" fill="#CB4E00"/><ellipse transform="rotate(-17.1 62.6 65)" cx="62.6" cy="65.1" rx="53.3" ry="23.7" fill="#CC4E00"/><ellipse transform="rotate(-17.1 62.6 65)" cx="62.6" cy="65" rx="53.2" ry="23.6" fill="#CD4E00"/><ellipse transform="rotate(-17.1 62.6 65)" cx="62.6" cy="64.9" rx="53.2" ry="23.6" fill="#CE4F00"/><ellipse transform="rotate(-17.1 62.5 64.8)" cx="62.5" cy="64.8" rx="53.2" ry="23.6" fill="#CF4F00"/><ellipse transform="rotate(-17.1 62.5 64.8)" cx="62.5" cy="64.8" rx="53.2" ry="23.6" fill="#D05000"/><ellipse transform="rotate(-17.1 62.5 64.7)" cx="62.5" cy="64.7" rx="53.1" ry="23.6" fill="#D15000"/><ellipse transform="rotate(-17.1 62.5 64.6)" cx="62.5" cy="64.6" rx="53.1" ry="23.6" fill="#D25000"/><ellipse transform="rotate(-17.1 62.4 64.5)" cx="62.5" cy="64.5" rx="53.1" ry="23.6" fill="#D35100"/><ellipse transform="rotate(-17.1 62.4 64.4)" cx="62.4" cy="64.5" rx="53" ry="23.6" fill="#D45100"/><ellipse transform="rotate(-17.1 62.4 64.4)" cx="62.4" cy="64.4" rx="53" ry="23.6" fill="#D55100"/><ellipse transform="rotate(-17.1 62.4 64.3)" cx="62.4" cy="64.3" rx="53" ry="23.5" fill="#D65200"/><ellipse transform="rotate(-17.1 62.4 64.2)" cx="62.4" cy="64.2" rx="53" ry="23.5" fill="#D75200"/><ellipse transform="rotate(-17.1 62.3 64.1)" cx="62.3" cy="64.1" rx="52.9" ry="23.5" fill="#D85300"/><ellipse transform="rotate(-17.1 62.3 64)" cx="62.3" cy="64" rx="52.9" ry="23.5" fill="#D95300"/><ellipse transform="rotate(-17.1 62.3 64)" cx="62.3" cy="64" rx="52.9" ry="23.5" fill="#DA5300"/><ellipse transform="rotate(-17.1 62.3 63.9)" cx="62.3" cy="63.9" rx="52.9" ry="23.5" fill="#DB5400"/><ellipse transform="rotate(-17.1 62.2 63.8)" cx="62.2" cy="63.8" rx="52.8" ry="23.5" fill="#DC5400"/><ellipse transform="rotate(-17.1 62.2 63.7)" cx="62.2" cy="63.7" rx="52.8" ry="23.4" fill="#d50"/><ellipse transform="rotate(-17.1 62.2 63.7)" cx="62.2" cy="63.7" rx="52.8" ry="23.4" fill="#DE5500"/><ellipse transform="rotate(-17.1 62.2 63.6)" cx="62.2" cy="63.6" rx="52.8" ry="23.4" fill="#DF5500"/><ellipse transform="rotate(-17.1 62.1 63.5)" cx="62.1" cy="63.5" rx="52.7" ry="23.4" fill="#DF5600"/><ellipse transform="rotate(-17.1 62.1 63.4)" cx="62.1" cy="63.4" rx="52.7" ry="23.4" fill="#E05600"/><ellipse transform="rotate(-17.1 62 63.3)" cx="62.1" cy="63.3" rx="52.7" ry="23.4" fill="#E15600"/><ellipse transform="rotate(-17.1 62 63.3)" cx="62.1" cy="63.3" rx="52.6" ry="23.4" fill="#E25700"/><ellipse transform="rotate(-17.1 62 63.2)" cx="62" cy="63.2" rx="52.6" ry="23.4" fill="#E35700"/><ellipse transform="rotate(-17.1 62 63.1)" cx="62" cy="63.1" rx="52.6" ry="23.4" fill="#E45800"/><ellipse transform="rotate(-17.1 62 63)" cx="62" cy="63" rx="52.6" ry="23.3" fill="#E55800"/><ellipse transform="rotate(-17.1 62 63)" cx="62" cy="62.9" rx="52.5" ry="23.3" fill="#E65800"/><ellipse transform="rotate(-17.1 62 62.9)" cx="61.9" cy="62.9" rx="52.5" ry="23.3" fill="#E75900"/><ellipse transform="rotate(-17.1 62 62.8)" cx="61.9" cy="62.8" rx="52.5" ry="23.3" fill="#E85900"/><ellipse transform="rotate(-17.1 61.9 62.7)" cx="61.9" cy="62.7" rx="52.5" ry="23.3" fill="#E95A00"/><ellipse transform="rotate(-17.1 61.9 62.6)" cx="61.9" cy="62.6" rx="52.4" ry="23.3" fill="#EA5A00"/><ellipse transform="rotate(-17.1 61.8 62.5)" cx="61.8" cy="62.5" rx="52.4" ry="23.3" fill="#EB5A00"/><ellipse transform="rotate(-17.1 61.8 62.5)" cx="61.8" cy="62.5" rx="52.4" ry="23.3" fill="#EC5B00"/><ellipse transform="rotate(-17.1 61.8 62.4)" cx="61.8" cy="62.4" rx="52.3" ry="23.3" fill="#ED5B00"/><ellipse transform="rotate(-17.1 61.8 62.3)" cx="61.8" cy="62.3" rx="52.3" ry="23.2" fill="#EE5B00"/><ellipse transform="rotate(-17.1 61.7 62.2)" cx="61.7" cy="62.2" rx="52.3" ry="23.2" fill="#EF5C00"/><ellipse transform="rotate(-17.1 61.7 62.1)" cx="61.7" cy="62.1" rx="52.3" ry="23.2" fill="#F05C00"/><ellipse transform="rotate(-17.1 61.7 62)" cx="61.7" cy="62.1" rx="52.2" ry="23.2" fill="#F15D00"/><ellipse transform="rotate(-17.1 61.7 62)" cx="61.7" cy="62" rx="52.2" ry="23.2" fill="#F25D00"/><ellipse transform="rotate(-17.1 61.6 62)" cx="61.6" cy="61.9" rx="52.2" ry="23.2" fill="#F35D00"/><ellipse transform="rotate(-17.1 61.6 61.8)" cx="61.6" cy="61.8" rx="52.1" ry="23.2" fill="#F45E00"/><ellipse transform="rotate(-17.1 61.6 61.8)" cx="61.6" cy="61.8" rx="52.1" ry="23.1" fill="#F55E00"/><ellipse transform="rotate(-17.1 61.6 61.7)" cx="61.6" cy="61.7" rx="52.1" ry="23.1" fill="#F65F00"/><ellipse transform="rotate(-17.1 61.5 61.6)" cx="61.5" cy="61.6" rx="52.1" ry="23.1" fill="#F75F00"/><ellipse transform="rotate(-17.1 61.5 61.5)" cx="61.5" cy="61.5" rx="52" ry="23.1" fill="#F85F00"/><ellipse transform="rotate(-17.1 61.5 61.4)" cx="61.5" cy="61.4" rx="52" ry="23.1" fill="#F96000"/><ellipse transform="rotate(-17.1 61.5 61.4)" cx="61.5" cy="61.4" rx="52" ry="23.1" fill="#FA6000"/><ellipse transform="rotate(-17.1 61.4 61.3)" cx="61.5" cy="61.3" rx="52" ry="23.1" fill="#FB6000"/><ellipse transform="rotate(-17.1 61.4 61.2)" cx="61.4" cy="61.2" rx="51.9" ry="23.1" fill="#FC6100"/><ellipse transform="rotate(-17.1 61.4 61.1)" cx="61.4" cy="61.1" rx="51.9" ry="23.1" fill="#FD6100"/><ellipse transform="rotate(-17.1 61.4 61)" cx="61.4" cy="61" rx="51.9" ry="23" fill="#FE6200"/><ellipse transform="rotate(-17.1 61.4 61)" cx="61.4" cy="61" rx="51.8" ry="23" fill="#FF6200"/><path d="M84.2 37.4c5.5 0 10.3.6 14.5 2 3.4 1.1 5.7 2.5 7.1 4 2 2.2 4.4 5.1 5.3 8 .3.7.4 1.4.4 2 0 1.8-.5 3.7-1.5 5.7a41.7 41.7 0 0 1-14.4 14.5 115.5 115.5 0 0 1-56.1 17 59 59 0 0 1-12.3-1.2c-8.2-1.9-12.5-5.5-13-10.9-.3-3.9 0-7.2 1-9.6 2.7-6.4 9-11.3 13.6-14.4a108.7 108.7 0 0 1 55.4-17.1m0-3.2A112 112 0 0 0 27 52a39 39 0 0 0-14.6 15.8 24.7 24.7 0 0 0-1.3 11c.7 8.3 8 12 15.4 13.7 4.2 1 8.6 1.4 13 1.4a119 119 0 0 0 57.8-17.6c6-4 12.2-9 15.5-15.6 1.1-2.3 1.9-4.7 1.8-7.3 0-1-.2-2-.5-2.9a25 25 0 0 0-6-9 19.5 19.5 0 0 0-8.4-4.9 49 49 0 0 0-15.5-2.3z" fill="#424242" opacity=".2"/><ellipse transform="rotate(-17.1 61.2 58.7)" cx="61.2" cy="58.7" rx="37.7" ry="15.3" fill="#E05600"/><ellipse transform="rotate(-17.1 59.5 59)" cx="59.5" cy="59.1" rx="30.9" ry="11.9" fill="#FF7017"/><path d="M22.5 79c1 .8 2 1.4 3.2 1.8l3.5 1A59.4 59.4 0 0 0 43.9 83h7.7a35.5 35.5 0 0 1-15.4 2.8c-2.6-.1-5.3-.6-7.8-1.6-1.2-.5-2.4-1.2-3.5-2-.6-.4-1-1-1.5-1.5a5 5 0 0 1-.9-1.8z" fill="#FFBA8F"/><path d="M89.3 14.8a52 52 0 0 1 14 2.8 38 38 0 0 1 12.8 7.2 23.2 23.2 0 0 1 8.2 20c-.1 2.4-.7 4.8-1.5 7 .1-2.4.3-4.7.1-7a25.5 25.5 0 0 0-8.8-17.8 33.8 33.8 0 0 0-5.4-4c-2-1.3-4.1-2.3-6.2-3.3-4.2-2-8.7-3.4-13.2-5z" fill="#BFBFBF"/><path d="M4.8 41.2c-1 .3-1.3-.9-.6-1.3 1-.8 2.5-1.2 3.6-1.6a251.8 251.8 0 0 1 22.3-8.5c6.6-2.3 13.4-4.4 20.2-5.9 11.3-2.3 23-3.8 34.5-2.5 6 .6 21.1 2.3 30 13.7 4.2 5.4 5 13 3.7 19.4-.2-5.1-1-9.7-3.2-14.2-6.6-13-28.6-15.5-38.4-15.5a138 138 0 0 0-26.5 3c-5.8 1-11.6 2.4-17.4 4-9.5 2.9-18.8 6.3-28.3 9.4z" fill="#7E7D7D"/><path d="M65.4 104.3c.7-.1 1 1 .2 1.3-8 2.6-17 3-25.3 2.2a45 45 0 0 1-25.1-10 24.5 24.5 0 0 1-7-9.6c-.3-.7.7-1.2 1.1-.6 1.8 2.6 4.2 5 6.7 6.8 3.9 3 8.4 5.1 13 6.8a74.7 74.7 0 0 0 36.4 3z" fill="#8C8C8C"/><path d="M55.7 114.5l-4.8 1.6c-1.7.3-3.3.7-5 .8-1.7.1-3.4.3-5.1.1l-2.6-.1-2.5-.4a29 29 0 0 1-9.6-3.4c-3-1.7-5.8-3.8-7.7-6.7a41.7 41.7 0 0 0 17.8 7.2l4.8.6 2.4.2 2.4.1h9.9z" fill="#BFBFBF"/></svg>