<svg viewBox="0 0 128 128" xmlns="http://www.w3.org/2000/svg"><ellipse cx="64.4" cy="72.3" rx="54" ry="30.4" fill="#616161"/><path d="M42.6 63l-.2-.2-4.7-8.7A35 35 0 0 0 26.5 41c-.6-.4-1.5-.3-2 .1-3 2.7-3 6-2.5 9.2.6 3.8 1.8 7.5 3.3 11l4 8.4c.6 1.2 1.2.1 2.1 1 1.7 1.6.2-.7 2 .8.3.3.7.4 1.1.4 3.2-.2 6.4.5 9.6.6.3 0 .6-.1.8-.3 1.5-.9.3-2.1.3-3.2-.5-2.1-1-4.2-2.6-6z" fill="#37654B"/><path d="M75.8 58a14.9 14.9 0 0 1-22.3 2.4c-6.6-5.5-8.1-14.8-2.8-21.6s15.3-8.9 22-3.7a17 17 0 0 1 3 23z" fill="#A60500"/><path d="M74.6 57c-5 6.3-14.4 7.1-20.7 2.2s-7.3-13.4-2.4-19.8 14-7.6 20.4-2.8 7.6 14 2.7 20.3z" fill="#D90500"/><ellipse transform="rotate(-52.4 63 48.2)" cx="63" cy="48.2" rx="13.6" ry="13.4" fill="#FE5601"/><path d="M54 40.6a12.6 12.6 0 0 0-2.8 7.4c0 1.7.3 3.3 2.3 3.3 1.5-.1 3-.8 4.4-1.4l3-1.6s-4 .3-4.5-2 1-3.6 3.1-2.5c2.2 1.2 2.7 2.3 2.7 2.3-.2-.4.1-1.5.2-1.9l.3-3c.2-1.2.3-2.3-.3-3.3-1-1.7-3-1.3-4.6-.5a12 12 0 0 0-3.9 3.2zm20.3 4.2l-.5-1a17 17 0 0 0-4.7-5.3c-1-.7-2.2-1.5-3.3-1-.8.5-1.2 1.5-1.3 2.5-.4 2-.6 4.4-.4 6.5.2-1.6 2-3.4 3.8-2.8.7.3 1.3 1 1.4 1.7.2 2-2.2 2.9-3.7 3.3l4.7 3c.7.5 1.5 1 2.3.9 1-.1 1.7-1 2-2 .7-1.9.5-4-.3-5.8zM60 59.3c4.4 2.4 10.3-.2 11-2.4.4-1.3-1.4-2.8-2.2-3.5a28.7 28.7 0 0 0-4.3-3.2c1 .7 1.3 2.2.8 3.3-.5 1-2.9 2.5-3.8 1.3-.3-.4-.3-.8-.2-1.2 0-1.3.3-2.6.7-3.8l-8 3s.5 3.6 6 6.5z" fill="#A40400"/><path d="M59.4 42.6c-.2-.3-.5-.6-.5-1s.2-.8.6-.8c.3 0 .4.3.5.6l-.1.7c0 .2-.1.4-.3.5s-.3 0-.4-.1m-1.2-1c0-.3-.4-.5-.7-.4-.3.1-.3.6-.1.9.1.3.4.4.7.6.2-.4.1-.9-.1-1.2m-1.2 1.2L56 42a.8.8 0 0 0-.8.2c-.1.2 0 .6.3.7l.8.2m-.5.9l-1-.6c-.3-.2-.7-.1-.8.2-.1.3.2.6.5.7s.6-.1.9-.3m-.4 1.3c-.3-.1-.5-.3-.8-.3s-.6.2-.6.5.3.5.6.5.6-.3.8-.5m.1 1.3c-.6 0-1.2.1-1.6.5.1.4.5.6.9.5s.6-.4.6-.7m.8.9l-.7.5c-.2.2-.4.4-.3.7.1.3.7.2.9-.1s0-.7 0-1M59.5 53.2c-.2.4-.4.8-.7 1s-.8 0-1-.3c0-.3.1-.5.4-.7s.4-.2.7-.2h.5c.2 0 .2.4.1.5m-.4 1.5c-.2.1-.3.6 0 .8.2.2.6 0 .8-.2s.2-.7.3-1c-.5 0-.9.3-1 .6m1.5.6c-.2.2-.3.5-.3.8s.2.6.5.6.5-.3.6-.6-.1-.6-.2-.8m1 .2l-.1 1c0 .4.2.7.5.7.4 0 .5-.4.4-.7s-.3-.5-.6-.7m1.4-.3v1c.2.2.5.4.7.3.3-.2.3-.6.2-.8s-.5-.4-.8-.5m1.1-.7c.2.6.7 1 1.2 1.3.3-.3.3-.7.1-1s-.6-.4-1-.3m.6-1.1l.7.4c.3.1.6.2.7 0 .2-.3 0-.7-.4-.8s-.7.2-1 .4M68.6 49.1c.4 0 .8 0 1.1.2.3.3.5.8.2 1-.2.2-.5.1-.8 0s-.3-.4-.5-.6l-.1-.5c0-.2.2-.3.3-.2m1.5-.3c.3.2.7 0 .8-.2 0-.3-.2-.7-.5-.7l-1 .1c.2.4.6.7 1 .7m-.1-1.6h.8c.3-.2.5-.5.4-.8-.1-.3-.5-.4-.8-.3l-.7.5m-.2-.9l1-.4c.4-.2.6-.5.4-.8-.1-.3-.6-.3-.8 0l-.4.8m-.7-1.1c.2-.2.5-.2.7-.5s.3-.6 0-.7c-.2-.2-.6 0-.7.2l-.2.9m-1-.8c.4-.4.7-1 .6-1.6-.3-.1-.7 0-1 .3s0 .8.3 1m-1.2 0V42c0-.3 0-.7-.3-.7-.3-.1-.6.3-.5.7.1.3.4.5.7.7" fill="#FF7A42"/><path d="M58.2 83.8c-.4-2.5-21.9-17.5-23.1-19.4-.7-1-1.7-1.8-2.5-2.7-4.3-4.7-8.9-9-14.5-12-1.6-.9-3.5-2.6-5.3-1-1.8 1.6-.6 3.8 0 5.7 1 3 3 5.6 4.8 8.2-.1 1.8 1.6 2.4 2.2 3.7 3 3.4 12.5 17.6 16.5 19.9 3-1.6 19-.5 21.9-2.4z" fill="#19432D"/><linearGradient id="a" x1="30.7" x2="64.9" y1="59.2" y2="59.2" gradientUnits="userSpaceOnUse"><stop stop-color="#2E7D32" offset="0"/><stop stop-color="#318235" offset=".3"/><stop stop-color="#3A913E" offset=".7"/><stop stop-color="#43A047" offset="1"/></linearGradient><path d="M30.7 46c1.5 2.7 3.6 7.6 3.8 7.5 2-.7 3.9-2.6 5.5-1.2 1.5 1.3-.2 2.9-.8 4.2-.7 1.4-2.1 2.6-1.3 4.3.4.5 1.1.6 1.7.4 1-.4-4.6 9.6.5 11.8 4.3 1.7 17 7 23 5.7 2.6-.7 1.3-8.5 1.7-8.6 1-.1-5.4-9-4.4-9.2.6 0-8.3-3.3-8.5-4l-.4-1.5c-.3-.7-.8-1.3-1-2V52a8 8 0 0 0 .5-4c-.1-.4-.5-1.3-1.2-2.3-.6-1-1.6-1.9-2.2-2.4a24.3 24.3 0 0 0-3.5-2.4c-5-2.5-8.5-1.7-9.2 3-.4 2.8-2.3 3.3-4.2 2.3z" fill="url(#a)"/><path d="M107.3 56.1c2.1-.7 3.1.1 3.3 2.2.1.8.5 1.5.7 2.3 1 3.2 1.8 3.5 4.7 2l2.5-4.4c1.5-2.5 3.2-4.9 3.6-7.9.3-3-.7-3.8-3.4-2.7-4.4 1.9-8.1 5-11.4 8.5z" fill="#37654B"/><linearGradient id="b" x1="106.8" x2="106.8" y1="65.5" y2="103.6" gradientUnits="userSpaceOnUse"><stop stop-color="#7CB342" offset="0"/><stop stop-color="#8FC257" offset=".6"/><stop stop-color="#9CCC65" offset="1"/></linearGradient><path d="M112 75.5c.8-1 5.6-2 8.3-6 1.5-2.3 2.2-3 3.3-5.5.5-1 1-2.3.1-3.2-.4-.4-1.8-.8-3.1 0-1.6.7-3 2-3.9 2.5-2.5.5-3.7-.8-4.3-3.1l-.5-1.8c-.9-2.6-3.2-2.8-3.8-1.6-.3.5-.3 1.3-1.2 1.1-.9 0-1-.6-1.1-1.2l-.7-3.1c-.5-1.8-1.7-2.4-3.5-2.1-1.6.3-1.7 1.6-1.8 2.8v3c-.2 1.6-1 2.8-2.7 3.2-2.7-.9-1-1.3-3.6-2.5-4-.2-5 1.3-3.8 5.6 1.3 1.9 3.1 3.2 5.2 4.1 1.4-.4 2-1.7 2.9-2.6 2-2 2.6-3.4 6.8-2 4 1.3 6.7 1.4 7.4 5.9.2 1.4-.8 5.2 0 6.5z" fill="url(#b)"/><linearGradient id="c" x1="64.4" x2="102" y1="48.7" y2="48.7" gradientUnits="userSpaceOnUse"><stop stop-color="#2E7D32" offset="0"/><stop stop-color="#318235" offset=".3"/><stop stop-color="#3A913E" offset=".7"/><stop stop-color="#43A047" offset="1"/></linearGradient><path d="M97.6 62.8c-1.4-5-1.4-16.7 2.6-16.8 1.3.2 1.1-1 1.5-1.8.2-.7.3-1.3.2-2 0-.6 0-1.3-.5-1.8-.6-.6-1.3-.6-2-.6-1.4 0-2.4 1-3.3 2-1.3 1.5-1.8 2.5-3 4.2-1.3-2.1-1.4-4-2-6.1-.5-2.2-1.3-3.2-3-1.1-1.4 1.9-2 .8-2.3-1l-.6-3.5c-.5-1.7-1.5-3-3.4-2.7-1.7.3-2 1.7-2 3.4v3c-.4 3.2-2 4.7-4.8 4.3-2.1-.4-4.3-.8-6.2-2.4-1.6-1-3-.7-4 1.1l-.3 1c-.2.7-.2 1.5 0 2.3 2 3.3 4.2 17.3 6.5 20.2 1.4 2 2.1 1.7 2.8-.7.2-.8 1.2-.9 1.4-1.6 2-6 7.3-7.8 11-3 .7 1 1.2 2.3 2.6 2.4 2.1 0 4.2.4 6.2 1.1.9.3 1.7.7 2.6.1z" fill="url(#c)"/><path d="M13.6 85.7c3-3-3-9.6.2-12.7 1 0 8.2 4.7 9.1 4.9 9.7 1.1 21.6 8.8 29.5 6.7 7.2-2-1-4.3-4.2-6.4s-10.1-4-6.3-6.5a20 20 0 0 1 8.6-.6c18.3 2.4 38.5 2.9 58.4 3.7 4.2.7 3.3 1.8 2.7 2.8a10 10 0 0 1-2.3 2.3c-1.6 1-4 2-4.7 3-.3.7-.2 1.4.3 2.1 1.3 1.1 2.3 2.2 2.5 3.4.2 1 0 2-.6 3-1 1-2.5 2.2-4.4 3.3-3.9 1.4-6.2 3.1-13.2 3.9-5.4 0-8.6 1-12.7 1.7-24.3 3.8-45 1.8-48.1-5.2-2-4.4-5.4-11-14.9-9.4z" fill="#6D8B14"/><linearGradient id="d" x1="100.2" x2="102.2" y1="65.6" y2="78.6" gradientUnits="userSpaceOnUse"><stop stop-color="#2E7D32" offset="0"/><stop stop-color="#318235" offset=".3"/><stop stop-color="#3A913E" offset=".7"/><stop stop-color="#43A047" offset="1"/></linearGradient><path d="M91 62.4c1 .3 1.9 1 3 1.2 2 .2 3.6-2.2 5.7-2.5 2.8-.4 5 2.7 7.7 2.8 1.4 0 2.6-.6 4-1 1.2-.3 2.9 0 3.5 1.1.8 1.8-1.4 3.6-1.8 5.5-.4 2.2 1.6 4.2 1.4 6.4a5.2 5.2 0 0 1-1.7 3 11.2 11.2 0 0 1-16.2-.4c-1.1-1.2-2-2.8-3.6-3.3-.9-.3-1.9-.3-2.8-.5-1.7-.4-3-1.9-3.6-3.5-.7-1.5-1.7-4.7-1.3-6.3.7-2.2 3.8-3.3 5.8-2.5z" fill="url(#d)"/><linearGradient id="e" x1="8" x2="27.5" y1="66.8" y2="66.8" gradientUnits="userSpaceOnUse"><stop stop-color="#7CB342" offset="0"/><stop stop-color="#8FC257" offset=".6"/><stop stop-color="#9CCC65" offset="1"/></linearGradient><path d="M8.1 65.6c-.5 3 .5 6.3 1.4 6 .9-.4 3.3 8.5 4.6 6.3.3-.5 4.8.4 6.3-1 1.2-1.1-.4-4.4-.4-6.1 0-1 8.8.4 7.3-1.3-1-1.1-12.4-5.7-12.4-5.7 2-1.2 1-3.4 1.7-5l-2.9-3.5c-5.2.4-4.7 1.8-4 4.8.7 3-1.2 3.6-1.6 5.5z" fill="url(#e)"/><linearGradient id="f" x1="21" x2="21" y1="65.5" y2="103.6" gradientUnits="userSpaceOnUse"><stop stop-color="#7CB342" offset="0"/><stop stop-color="#8FC257" offset=".6"/><stop stop-color="#9CCC65" offset="1"/></linearGradient><path d="M27 69.4v-1c-3.5-3.2-7.3-6-10.4-9.7-2.1 1.2-.3 3.6-1.6 5l12 5.7z" fill="url(#f)"/><linearGradient id="g" x1="81" x2="81" y1="65.5" y2="103.6" gradientUnits="userSpaceOnUse"><stop stop-color="#7CB342" offset="0"/><stop stop-color="#8FC257" offset=".6"/><stop stop-color="#9CCC65" offset="1"/></linearGradient><path d="M66 49.6c-3.2-.6-3.4 3.2-3.4 5.9-1.3 2.1-.9 4.4-.6 6.7.2.9.8 1.6 1.5 2 3 2.2 5.2 5.1 7.3 8 5.1 0 15.6 4.7 20.7 4.7.7-.7.3-1.5 0-2.1-3.1-6.4 1-10.1 5.6-12 1.1-.4 2.8 0 3.3-1.7-.6-3.4-2.6-2.8-6.3-6-3.8-3.2-6.2-5.2-10.6-4.6-4.6.5-7 3.8-8 9.3l-.2 1.7c-4-3.5-6-11.3-9.2-11.9z" fill="url(#g)"/><path d="M76.5 97.8c-9.9 1.9-19.2-3.6-21-15.2-1.5-9.8 4.4-19 14.2-20.8s20 4.2 22 13.9S86.3 96 76.4 97.8z" fill="#A60500"/><path d="M76.3 95.9a17.1 17.1 0 0 1-19.6-14A16 16 0 0 1 70 63a16.7 16.7 0 1 1 6.3 32.9z" fill="#D90500"/><ellipse transform="rotate(-10.6 73 79.4)" cx="73" cy="79.4" rx="15.8" ry="15.6" fill="#FE5601"/><path d="M71 65.9c-3 .6-5.9 2-8 4.3-1.3 1.5-2.3 3.1-.5 4.6 1.4 1 3.2 1.7 4.9 2.2l3.8 1s-3.8-3-2.3-5.3 3.6-2.3 4.5.3c1 2.7.6 4 .6 4 .1-.5 1.2-1.1 1.6-1.5.8-.9 1.7-1.6 2.7-2.4 1-.7 2-1.7 2.2-3 .4-2.3-1.7-3.5-3.5-4-2-.5-4-.5-6-.2zm14.5 19.3l.3-1.2a21 21 0 0 0 0-8.2c-.2-1.4-.7-3-2-3.4-1.2-.3-2.3.4-3.1 1-2 1.6-4 3.4-5.3 5.4 1.4-1.2 4.3-1.3 5.3.5.5.8.4 1.8 0 2.6-1.4 2-4.1.7-5.8 0l1.7 6.3c.3.9.6 1.9 1.3 2.4 1 .7 2.3.4 3.3-.2 2-1 3.5-3 4.3-5.2zM62 86.8c2 5.4 9 7.6 11.3 6.3 1.3-.8 1-3.5.8-4.7-.2-2-.6-4.1-1.2-6 .2 1.3-.7 2.9-2 3.4-1.2.5-4.3-.1-4.2-1.8 0-.5.4-1 .7-1.3 1-1 2.3-2 3.6-2.6l-9.2-3.6s-2.4 3.5.1 10.3z" fill="#A40400"/><path d="M74.3 71.8c0-.4 0-.9.3-1.3s.9-.5 1.2-.1c.1.2.1.6 0 .8l-.8.6a1 1 0 0 1-.5.2c-.2 0-.4-.2-.3-.4m-.2-1.8c.1-.3 0-.8-.4-.9-.3 0-.7.3-.8.6s0 .8.2 1.2c.4-.2.8-.7.8-1.2m-1.8.2c0-.4 0-.7-.2-1s-.5-.6-.8-.5c-.3.2-.4.6-.3 1s.3.5.6.7m-1.2.3l-.4-1.2c-.1-.3-.5-.7-.9-.5-.3.2-.3.7 0 1s.6.4 1 .4m-1.5.9c0-.4-.2-.7-.4-1s-.7-.2-.9 0c-.2.3 0 .8.2 1l1 .1m-.8 1.3a2 2 0 0 0-1.9-.8c-.1.3 0 .8.4 1s.9.2 1.1-.1m0 1.4l-1-.1c-.3 0-.7 0-.8.3 0 .4.4.8.8.6s.7-.4.9-.8M66.1 81c-.4.3-.8.4-1.2.4s-.9-.6-.7-1c.2-.3.5-.4.8-.3l.8.3.4.4c.1.1 0 .5-.2.5m-1.5 1c-.3 0-.7.3-.7.6 0 .4.6.6 1 .5s.6-.4.9-.6c-.4-.4-1-.5-1.4-.3m.9 1.7c-.3.1-.6.2-.8.5s-.3.7 0 1c.2.1.6 0 .8-.2l.5-.8m.8.9c-.2.3-.6.5-1 .8-.2.3-.3.8 0 1 .3.3.7 0 .9-.3s0-.7 0-1m1.4.9c-.3.2-.6.4-.7.7s0 .7.4.8c.3.1.7-.2.7-.6s-.1-.7-.3-1m1.5.3c-.2.6-.2 1.4 0 2 .5 0 .9-.4 1-.8s-.3-.8-.7-1M71 87l.3.8c0 .3.3.7.6.6.5 0 .5-.7.2-1-.2-.3-.7-.4-1-.4M77.2 84.6c.3.3.7.6.8 1 .1.4-.2 1-.6 1-.3 0-.6-.3-.7-.6v-.9l.3-.5c.1-.1.4-.2.5 0m1.5 1c0 .3.5.5.8.3.4-.2.4-.7.1-1l-1-.6c-.1.5 0 1 .4 1.4m1.1-1.5l.8.5c.3.1.8 0 .9-.3a.7.7 0 0 0-.4-.8 2 2 0 0 0-1 0m.5-1.1c.4 0 .7.3 1.1.4.4.2 1 0 1-.3.1-.4-.3-.7-.6-.7-.4 0-.7.2-1 .4m.3-1.6c.3.2.6.3 1 .3s.6-.3.5-.7c0-.3-.5-.5-.8-.4s-.6.4-.8.7m-.4-1.5c.7 0 1.4-.3 1.9-.8a1 1 0 0 0-1-.5 1 1 0 0 0-.7 1m-1-1l.7-.6c.2-.2.4-.6.2-.9-.2-.3-.8-.2-1 .2v1.2" fill="#FF7A42"/><path d="M67.7 109c1 10-14.4 12.7-20.9 9s-8.8-14.8-2.6-22.6c6.6-8.2 22.5-11 26.2-7.7 7.2 6.3-4.4 5.6-2.7 21.3z" fill="#6D8B14"/><linearGradient id="h" x1="31.5" x2="33.5" y1="71.1" y2="84.1" gradientUnits="userSpaceOnUse"><stop stop-color="#9CCC65" offset="0"/><stop stop-color="#8FC257" offset=".4"/><stop stop-color="#7CB342" offset="1"/></linearGradient><path d="M22.4 67.9c1 .3 1.8 1 2.9 1.2 2.1.2 3.6-2.2 5.8-2.5 2.7-.4 4.9 2.7 7.6 2.8 1.4 0 2.6-.6 4-1s3 0 3.5 1.1c.9 1.8-1.4 3.6-1.7 5.5-.4 2.2 1.5 4.2 1.3 6.4a5.2 5.2 0 0 1-1.7 3 11.2 11.2 0 0 1-16.2-.4c-1-1.2-2-2.8-3.5-3.3-1-.3-2-.3-2.9-.5-1.6-.4-3-1.9-3.6-3.5-.6-1.5-1.7-4.7-1.2-6.3.6-2.2 3.7-3.3 5.7-2.5z" fill="url(#h)"/><linearGradient id="i" x1="92.1" x2="92.1" y1="65.5" y2="103.6" gradientTransform="matrix(.967 .0002 .0002 .9681 2 2.6)" gradientUnits="userSpaceOnUse"><stop stop-color="#7CB342" offset="0"/><stop stop-color="#8FC257" offset=".6"/><stop stop-color="#9CCC65" offset="1"/></linearGradient><path d="M115.2 89.8c-2.2-.3-3.8.7-5.5 1.3-1.6.5-2.3.2-1.8-1.2.9-2.6 2.1-3.4 3-5.9.3-1 .9-2.4-.4-3-1.2-.7-2.6.1-3.8.8-1.7.8-3 1.8-4 3a8 8 0 0 1-5.1 2.3c-1.7 0-2.7-1.4-3.2-2.4-.2-.6-.6-1-1-1.6-1.4-2.3-1.8-2.3-4.7-.7-.2.6-.1 1.3-1.2 1.3-1 .1-1.2-.4-1.5-1L84.7 80c-1-1.5-2.5-1.8-4.5-1.2-1.9.6-1.7 1.9-1.6 3 0 1 .4 2 .5 2.9 0 1.6-.4 3.2-2.6 3.6-1.5.2-1.5-1-4.8-1.6-1.5-.3-3.2-.3-4.3 1.4-.8 1.3.5 3.6.9 4.4.7 1.3.8 3.2.8 4.5-.1 3-1.4 5.8.4 6.1 1.6-.7 7.3 0 8.2-1.1 3.2-3.8 1.8-.2 7 .3 5 .4 6.5-5.4 8.1-1.3.5 1.3 2.6-2.6 3.8-1.6 2.5-3.8 8.1-3.4 11.6-4.7" fill="url(#i)"/><linearGradient id="j" x1="36" x2="36" y1="65.5" y2="103.6" gradientUnits="userSpaceOnUse"><stop stop-color="#7CB342" offset="0"/><stop stop-color="#8FC257" offset=".6"/><stop stop-color="#9CCC65" offset="1"/></linearGradient><path d="M28.9 96C26 92.4 14.7 84.4 13.7 82.2c-.4-1-1-2.1.3-2.6 1.2-.5 2.7.2 4 .8 1.7.8 3 1.7 4.2 2.8.7.7 1.2 1.6 2.7 1.6 3 1 4.8.3 5.8-1.5.2-.5.6-.9.9-1.3 1.4-2 1.8-2 4.8-.5.3.5.2 1.1 1.3 1.2 1 .1 1.3-.3 1.5-.8l1.3-2.4c1-1.3 2.5-1.5 4.6-1 2 .7 1.8 1.8 1.7 2.8l-.3 2.4c-.1 1.4.7 2.5 2.7 3.2 3.5-.1 1.5-.8 4.8-1.2 4.8.7 5.9 2.1 3.8 5.4-1.9 1.2 1.7 8.4-1 8.8-1.6-.7-7.4-.3-8.4-1.3-3.5-3.3-1.9-.2-7.2 0-5 .2-6.9-4.8-8.4-1.3-.4 1.1-2.7-2.3-4-1.5z" fill="url(#j)"/><path d="M46 81c-2.4 2.2 1 6.8 5.7 7.9a19 19 0 0 0 6.4-.8c2.5-.6 5.4-.4 5.6-.2.2 0 3.7-2.2 2.6-3-.6-.3-4.5 1-6.8.3-2.2-.6-4-2.8-6.1-3.9-3.5-1.8-6.5-1.2-7.4-.3z" fill="#6E8C16"/><radialGradient id="k" cx="64.8" cy="98" r="42" gradientUnits="userSpaceOnUse"><stop stop-color="#fff" offset="0"/><stop stop-color="#F9F9F9" offset=".3"/><stop stop-color="#E8E8E8" offset=".6"/><stop stop-color="#ccc" offset="1"/><stop stop-color="#ccc" offset="1"/></radialGradient><path d="M64.4 101.3c-32.9-.5-53.3-16.7-53.3-28.2 0 29.8 24.2 50.3 54 50.3s53.3-21 53.3-50.9c0 11.5-17.3 29.4-54 28.8z" fill="url(#k)"/><linearGradient id="l" x1="5.2" x2="15.6" y1="74.2" y2="74.2" gradientUnits="userSpaceOnUse"><stop stop-color="#7CB342" offset="0"/><stop stop-color="#8FC257" offset=".6"/><stop stop-color="#9CCC65" offset="1"/></linearGradient><path d="M9.4 69.4s-1-.4-2.7 1.7c-2.4 3-1.4 6.4-.2 6.9 1.1.4 5.2-2 7 .2s1.2-.8 1.7-1.5.3-3.7.3-3.7l-3.7-3.3-2.4-.3z" fill="url(#l)"/><path d="M63.1 35.2h.5a14 14 0 0 1 11.5 8 3 3 0 0 0 2.7 1.7c.5 0 1-.1 1.5-.4 1.3-.8 3-2.5 3.5-6V38v.5c.7 2.8 2 4.2 4 4.2.8 0 1.3-.1 1.8-.4.4 1.6.8 3.4 2.1 5.3a3 3 0 0 0 2.5 1.3c.6 0 1-.2 1.5-.5a3 3 0 0 0 1.8 2.7c4 1.7 7.3 3.7 10.2 6a3 3 0 0 0 4-.3 29 29 0 0 1 8.2-6c-.4 1.6-1.4 3.1-2.4 4.9l-.6.8a63 63 0 0 0-1 1.9l-1 1.7a3 3 0 0 0-.9 4l.1.2.2.3a3 3 0 0 0 2.6 1.6h.2a10 10 0 0 0 1.7-.4 9 9 0 0 0 1.9-1.1 30.3 30.3 0 0 1-2 2.9c-.3.5-.8 1-1.4 1.6a3 3 0 0 0-1 2.7v.1c0 1.7-.3 3.4-.9 5a3 3 0 0 0 .5 2.8 43.7 43.7 0 0 1-14 27A53.7 53.7 0 0 1 64.4 120a53 53 0 0 1-34.6-12.2 45.5 45.5 0 0 1-15.7-31.3 3 3 0 0 0-3-2.8h-.3l-2.4.6c0-.5.3-1 .7-1.6s.7-.7.7-.7a3 3 0 0 0 1.4-3.3c-.2-.8-.2-1.9 0-2.7l.3-.7a7 7 0 0 0 1.2-6V59l-.2-.6 1-.2a3 3 0 0 0 2.5-4.1 12.7 12.7 0 0 1-.6-1.7 17 17 0 0 1-.4-1.2l.9.5.9.5 4 2.5a3 3 0 0 0 3.4 0 3 3 0 0 0 1.2-3l-.3-2c-.5-2.8-.3-4.3.7-5.7 1.7 1.3 3.2 2.7 4.7 4.4a3 3 0 0 0 2.2 1h.3c2-.2 4.4-1.7 5-5.3.2-1.7.7-1.7 1.3-1.7a8 8 0 0 1 3.5 1c.3.2 1.7 1 3 2v.2a3 3 0 0 0 2.5.6h.8c1-.3 2-1 2.3-2 1.8-5.5 6.5-9 11.7-9m19.3-3.6a3 3 0 0 0-.5 0c-1.7.3-2 1.7-2 3.4l-.1 3c-.2 1.9-1 3.2-2 3.8a17 17 0 0 0-14.1-9.7h-.6c-6.7 0-12.4 4.8-14.5 11l-.8.2v-.1a25.8 25.8 0 0 0-3.7-2.4 9.9 9.9 0 0 0-4.8-1.4c-2.3 0-3.9 1.4-4.3 4.3-.2 1.8-1.1 2.6-2.2 2.7a33 33 0 0 0-6.2-5.5c-.3-.2-.6-.3-1-.3-.3 0-.7.1-1 .4-3 2.7-3 5.9-2.5 9.1l.4 2.2a24 24 0 0 0-4.3-2.7c-1.1-.6-2.4-1.6-3.7-1.6-.5 0-1 .1-1.6.6-1.8 1.6-.6 3.8 0 5.7l.4.9c-4.6.4-4.2 1.9-3.5 4.7.7 3-1.2 3.6-1.6 5.5-.2 1.4-.1 2.9.1 4-.4.3-.9.7-1.5 1.5-2.3 3-1.4 6.3-.2 6.8h.3c.9 0 2.8-.8 4.3-1 2 27.4 24.8 46.3 53.2 46.3 30.8 0 54-20.4 54-50 0 1.6-.4 3.3-1.1 5 .7-2 1-4 1-6v-.6c.7-.6 1.4-1.3 2-2.2 1.5-2.2 2.2-3 3.3-5.4.5-1 1-2.3.1-3.2-.2-.2-.8-.5-1.5-.5-.5 0-1 .1-1.6.4-1.6.8-3 2.2-3.9 2.5l-.7.1-.4-.6c.1 0 .3 0 .4-.2.9-1.3 1.6-2.8 2.5-4.2 1.5-2.5 3.2-5 3.6-7.9.2-2-.2-3.1-1.5-3.1a5 5 0 0 0-1.8.5c-4 1.6-7.3 4.1-10.2 7.1a49 49 0 0 0-10.8-6.4c.5-1.4 1.3-2.3 2.4-2.4h.3c1 0 .9-1.1 1.2-1.8.2-.6.3-1.3.3-2 0-.6-.2-1.2-.6-1.8-.5-.5-1.1-.6-1.8-.6h-.2c-1.4 0-2.4 1-3.3 2-1.3 1.5-1.8 2.5-3 4.2-1.3-2.1-1.4-4-2-6-.3-1.4-.7-2.3-1.4-2.3-.4 0-.9.3-1.5 1.1-.6.7-1 1-1.3 1-.5 0-.8-.8-1-1.9-.3-1.1-.3-2.4-.7-3.5-.5-1.5-1.3-2.7-2.8-2.7z" fill="#424242" opacity=".2"/></svg>