<svg viewBox="0 0 128 128" xmlns="http://www.w3.org/2000/svg"><path d="M93.8 39.5c.4 0 9 .6 12.5.3s4.6.1 4.6.1l-.6 1.8-4.4.3c-5.6.3-15.6 1.7-16.7 1-1.2-.7 4.6-3.5 4.6-3.5z" fill="#458C00"/><path d="M108.7 16.2l.2-.7-2.4-1.6-11.5 12-7.3 7.6c-1 1-1 2.6-.9 3.8 6.5-8 15-13.5 22-21.1z" fill="#6A9600"/><path d="M111.6 18.4s-2.3-1.3-2.7-1.7a.6.6 0 0 1-.2-.5c-7 7.6-15.4 13-21.9 21l.5 2.2s4.5-1.4 4.7-1.7 7.2-6.5 13.1-12.3 6.5-7 6.5-7z" fill="#468C00"/><linearGradient id="a" x1="125.2" x2="144.5" y1="43.8" y2="43.8" gradientTransform="rotate(43.1 127 -1.7)" gradientUnits="userSpaceOnUse"><stop stop-color="#7CB342" offset="0"/><stop stop-color="#8BC34A" offset="1"/></linearGradient><path d="M86 39.4c.3-.1 7.6-2.4 12.3-3.5s14.2-4.6 15.8-5.3l4.5-1.8 1.4 2.5s-13.9 6.2-20.8 8.5S87.5 44 85.7 45s-1.4-2.7-1.4-2.7l1.8-2.9z" fill="url(#a)"/><linearGradient id="b" x1="101.4" x2="124.8" y1="45.9" y2="45.9" gradientTransform="rotate(43.1 127 -1.7)" gradientUnits="userSpaceOnUse"><stop stop-color="#558B2F" offset="0"/><stop stop-color="#8BC34A" offset="1"/></linearGradient><path d="M85.9 4.8s.6-.6 1.5-.3S88 6 88 6s-2.4 13.7-2.5 16c-.1 2.1-1.9 11.7-1.9 14.5 0 2.7-1.7 6.7-1.7 6.7l-4.1-4s2.3-3.6 3.1-8.4 3.4-15.7 3.8-19.9 1.2-6.1 1.2-6.1z" fill="url(#b)"/><path d="M90.5 27.4a25 25 0 0 1 1.4-3.7c2.3-4.8 6-13.4 6.6-14.8l.5-1.3s-.9-.5-1.9-.8c-.6-.2-1 0-1.4.1-2.4 6.7-5.4 13.3-5.2 20.5z" fill="#468C00"/><linearGradient id="c" x1="108.5" x2="126.9" y1="28.1" y2="63.1" gradientTransform="rotate(43.1 127 -1.7)" gradientUnits="userSpaceOnUse"><stop stop-color="#558B2F" offset="0"/><stop stop-color="#8BC34A" offset="1"/></linearGradient><path d="M88 38.7c1-3.9 1.5-7.7 2.5-11.3-.2-7.2 2.8-13.8 5.2-20.5-.3.1-.6.2-1 0-.9-.2-2.8-1-2.8-1s-1.4 2-3 7.4-3.7 12.9-5 16.4c-1.4 3.5-3.8 11.6-3.8 11.6l3.4 4c1.4 1.9 1.8 2.1 1.8 2.1s1.4-3.5 2.7-8.7z" fill="url(#c)"/><path d="M92.8 8.4a49.5 49.5 0 0 0 2.3.6c.5 0 .9 0 1.2-.2l-1.5 3.4c-1.4 3.2-3.3 7.7-4.7 10.6-.6 1.2-1 2.5-1.5 4a54 54 0 0 0-1 4.3A2 2 0 0 0 91 33a526 526 0 0 0 15.8-16.4c0 .6.3 1.2.8 1.6l1 .8c-.8 1-2.3 2.6-4.9 5-3.5 3.5-7.4 7.1-10 9.5a22.8 22.8 0 0 0-3 2.8 2 2 0 0 0 1.4 3.4l.5-.1a176.8 176.8 0 0 1 6-1.6 2 2 0 0 0-1.2 2.8 86.2 86.2 0 0 1-7.3.4h-.2a55.1 55.1 0 0 0-4.4 1.7 2 2 0 0 0-.9.8 83.6 83.6 0 0 0-2-2.5L80.3 39a28.7 28.7 0 0 0 3.1-10.4 2 2 0 0 0 1.4.6 2 2 0 0 0 2-1.4l3.4-11.4.7-2.4c.7-2.7 1.4-4.4 2-5.5m-6-4c-.6 0-1 .4-1 .4s-.8 2-1.2 6.1-3 15.1-3.8 20-3.1 8.4-3.1 8.4l3.3 3.2 2.4 2.9c1.4 1.9 1.8 2 1.8 2l1-2.8 3.5-1.5h1c3.2 0 10.7-1 15.1-1.2l4.4-.2.6-1.8s-.6-.2-2.4-.2l-2.2.1h-7.1a337 337 0 0 0 20.8-8.5l-1.4-2.5-4.5 1.8a141.6 141.6 0 0 1-22 7c.8-1 7.4-6.8 13-12.2 6-5.7 6.6-7 6.6-7s-2.4-1.3-2.8-1.7a.6.6 0 0 1-.2-.5l.2-.7-2.4-1.6L95 26l-5.5 5.6a48.6 48.6 0 0 1 2.4-7.9c2.3-4.7 6-13.3 6.6-14.8l.5-1.2s-.9-.5-1.9-.8l-.5-.1-.9.2a2 2 0 0 1-.6.1h-.4L92 6s-1.4 2-3 7.3l-4 13.8c.3-2.3.6-4.3.6-5.2.1-2.2 2.5-16 2.5-16s.3-1-.6-1.4a2 2 0 0 0-.5 0z" fill="#424242" opacity=".2"/><linearGradient id="d" x1="33.2" x2="57.6" y1="66.5" y2="92.7" gradientUnits="userSpaceOnUse"><stop stop-color="#FFA24A" offset="0"/><stop stop-color="#E45E00" offset=".7"/><stop stop-color="#EB6700" offset="1"/></linearGradient><path d="M60.3 38.6c-3.7 4-5.8 7-9.7 11.9s-4.9 8-8.8 12-8.3 9.4-12 14.3-6.1 10.8-9.9 15.7-6 8.3-8.4 13.4-4.7 9.8-5.6 12.2-.3 4.9 2.4 4.9 5-2 11.3-6.1c6.4-4 14-9.2 16.3-12.4s8.5-7.3 10.7-8.5 11.8-9.2 14-11.9A88 88 0 0 1 72.1 73c3.8-3 11.7-10.6 13.2-12.4 1.5-1.8 5-5.6 5.4-8s2-8.7-7-16.1-18.2-3.6-23.4 2z" fill="url(#d)"/><path d="M73.2 35.4c3 0 5.8 1.1 8.6 3.4 7 5.9 6.3 10.4 6 12.8l-.1.6c-.1.8-1.5 2.7-4 5.7l-.7.8c-1.4 1.6-9.1 9.1-12.8 11.9a93.1 93.1 0 0 0-12 11.6 99.2 99.2 0 0 1-13 11.2 44 44 0 0 0-11.8 9.4 71.7 71.7 0 0 1-15.3 11.5l-4.3 2.8c-2.8 1.9-4.2 2.8-5.2 2.9a239.1 239.1 0 0 1 5.6-12.8c2.2-4.7 4.4-8 8.1-13 2-2.5 3.6-5.3 5.2-8a70 70 0 0 1 4.7-7.6c3.9-5.1 8.2-10.2 11.8-14a41 41 0 0 0 5.3-7 59 59 0 0 1 6.4-8.7c2.3-3 4.1-5.4 6.8-8.3 3-3.3 7-5.2 10.7-5.2m0-3a18 18 0 0 0-12.9 6.2c-3.7 4-5.8 7-9.7 11.9s-4.9 8-8.8 12-8.3 9.4-12 14.3-6.1 10.8-9.9 15.7c-3.7 4.9-6 8.3-8.4 13.4-2.4 5-4.7 9.8-5.6 12.2s-.3 4.9 2.4 4.9 5-2 11.3-6.1 14-9.2 16.3-12.4 8.5-7.3 10.7-8.5 11.8-9.2 14-11.9A88 88 0 0 1 72.1 73c3.8-3 11.7-10.6 13.2-12.4 1.5-1.8 5-5.6 5.4-8s2-8.7-7-16.1a16 16 0 0 0-10.5-4.1z" fill="#424242" opacity=".2"/><path d="M78.8 43.3h2l1.9.6 1 .6.9.6.8.8.8.9a7.7 7.7 0 0 1 1.3 3v.7l-1.1-1.4a17.5 17.5 0 0 0-6-5l-1.7-.7v-.1z" fill="#DE5900"/><path d="M66.2 51.7l.6-.2h2.5l1 .3 1.1.5 1 .7 1 1 .7.9a6.3 6.3 0 0 1 .8 2c.2.5.2 1 .2 1.4v.5l-.2.1-.2-.5a11.4 11.4 0 0 0-8-6.5h-.5v-.2z" fill="#A84300"/><path d="M76.4 52.7h.5c.3 0 .8 0 1.3.2s1 .4 1.5.8c.3.2.6.3.8.6l.8.7.6.8.5.9a6 6 0 0 1 .6 2.9v.5h-.2l-.7-1.3a15 15 0 0 0-4.5-5.1l-1.3-.9.1-.1zM63.8 37.2h.4c.3-.2.7-.2 1.1-.2.5 0 1 0 1.5.3.2 0 .5.1.7.3l.8.4.6.6c.3.1.4.4.6.6a4.3 4.3 0 0 1 .7 1.3c.4.8.3 1.5.3 1.5h-.1l-.9-1-2-1.8a13 13 0 0 0-2.5-1.4l-1.2-.4v-.2zM47.6 55.7s.7-.2 1.7-.1h.8l.8.3c.3 0 .6.2.8.3l.9.5.7.7c.3.2.5.5.6.8l.5.8.2.8v1.3l-.1.4h-.1l-.2-.3c0-.1 0-.3-.2-.4l-.2-.5a7 7 0 0 0-2.1-2.3c-1-.7-2-1.2-2.8-1.6l-1.3-.5v-.2z" fill="#DE5900"/><path d="M64.7 62.5h.5l1.2.1.8.3.9.4.8.5.7.7.7.8.5.8a6.3 6.3 0 0 1 .9 2.8v.5l-.2.1-.8-1.3a15 15 0 0 0-4.7-4.8l-1.4-.7.1-.2z" fill="#AB4400"/><path d="M49.8 72.5h.5l1.2.1c.3 0 .5.2.8.3l.8.4.9.5.7.7.7.7.5.8a6.3 6.3 0 0 1 .8 2.9v.5h-.1l-.8-1.3a15 15 0 0 0-4.8-4.7l-1.3-.8v-.1z" fill="#C95100"/><path d="M40.5 74.6l.5-.2h1.3l.9.1a8.4 8.4 0 0 0 2.8 1.3l.8.7.7.7a7 7 0 0 1 1.4 2.8v.6l-1.1-1.2c-.7-.7-1.6-1.6-2.7-2.4a14.9 14.9 0 0 0-4.7-2.3v-.1zm-14 16.2h.6a6.1 6.1 0 0 1 2.3.5l1 .5 1 .6a12.8 12.8 0 0 1 1.6 1.7l.6 1a8 8 0 0 1 1.1 3.2v.5h-.1l-1-1.5a17.9 17.9 0 0 0-5.6-5.5l-1.5-.9v-.1zM22.1 107h.4c.2-.1.6-.2 1-.1l.6.1.6.3.7.4.5.4.5.6.4.6.4 1.3v1.4H27l-.6-1-1.5-1.8a11 11 0 0 0-2.8-2v-.2zm-11.5 7.6l.4-.1h.9c.3 0 .7 0 1.1.2l.6.4.5.4.5.5.3.6a3.3 3.3 0 0 1 .2 2.4H15l-.6-.8-1.3-1.6c-1.1-1.2-2.5-1.9-2.5-1.9v-.1z" fill="#DE5900"/></svg>