<svg viewBox="0 0 128 128" xmlns="http://www.w3.org/2000/svg"><linearGradient id="a" x1="75.801" x2="79.298" y1="32.677" y2="107.27" gradientUnits="userSpaceOnUse"><stop stop-color="#DC4F41" offset=".005"/><stop stop-color="#BD1200" offset=".222"/><stop stop-color="#DC4F41" offset=".429"/><stop stop-color="#BD1200" offset=".65"/><stop stop-color="#DC4F41" offset=".842"/><stop stop-color="#BD1200" offset="1"/></linearGradient><path d="M76 68c-4 6-15 6-17 13-5 12-20 11-26 22 0 2-2 5-1 7 6-10 16-13 26-18 5-3 8-7 11-12 3-6 12-6 15-11 9.82-16.7 24-25.67 39.66-31.79-.19-.68-.49-1.33-.89-1.89-.05-.06-.98-1.35-2.09-2.89l-1.56-2.16C100.93 39.27 88.88 52.36 76 68z" fill="url(#a)"/><linearGradient id="b" x1="67.044" x2="71.513" y1="21.553" y2="116.87" gradientUnits="userSpaceOnUse"><stop stop-color="#F2BAA7" offset=".005"/><stop stop-color="#D6826F" offset=".251"/><stop stop-color="#F2BAA7" offset=".493"/><stop stop-color="#D6826F" offset=".704"/><stop stop-color="#F2BAA7" offset="1"/></linearGradient><path d="M84 69c-3 5-12 5-15 11-3 5-6 9-11 12-10 5-20 8-26 18-1-2 1-5 1-7 6-11 21-10 26-22 2-7 13-7 17-13 12.88-15.64 24.93-28.73 43.12-37.73l-8.15-11.26C102.98 22.26 93.99 24.51 87 29c-7 4-5 13-11 17-7 6-13 14-19 20-14.96 12.46-34.75 19-42.22 35.77l16.72 10.48 4.98 5.15.66.47c1.53 1.1 3.7 1.39 5.81.78 2.83-.82 4.15-2.75 4.71-3.58.22-.33.62-.94.93-1.54.23-.38 1.08-1.66 2.28-3.35.16-.18.67-.74 1.84-1.86 1.16-1.11 1.75-1.6 1.94-1.75 1.94-1.26 3.82-2.34 4.26-2.55l.29-.13.28-.16.89-.51c2.66-1.52 5.18-3.42 7.49-5.64 2.29-2.2 4.2-4.54 5.67-6.95l.21-.34s2.66-4.44 3.24-5.03c.26-.28.7-.73 1.4-1.38 1.06-1.01 1.59-1.45 1.77-1.59 1.75-1.12 3.45-2.05 3.84-2.23l.26-.11.25-.14.8-.44c2.41-1.32 4.69-3.03 6.81-5.05.53-.5 1.03-1.02 1.51-1.54.92-.96 2.01-2.41 2.01-2.41.61-.81 1.17-1.63 1.68-2.47 3.01-5.99 5.54-7.31 5.54-7.31.3-.27.49-.42.57-.48 1.59-.98 3.13-1.8 3.48-1.95l.24-.09.23-.12.73-.39c.33-.17.66-.36.99-.55 3.35-2.1 5.32-4.09 5.32-4.09 1.33-1.28 2.21-2.25 2.62-2.87.56-.86 1.51-2.34 2.12-3.16l1.76-2.34c2.14-2.99 2.9-4.01 2.97-5.8v-.01a4.85 4.85 0 0 0-.2-1.52C108 43.33 93.82 52.3 84 69z" fill="url(#b)" opacity=".8"/><linearGradient id="c" x1="55.862" x2="59.947" y1="11.905" y2="99.058" gradientUnits="userSpaceOnUse"><stop stop-color="#DC4F41" offset=".005"/><stop stop-color="#BD1200" offset=".222"/><stop stop-color="#DC4F41" offset=".429"/><stop stop-color="#BD1200" offset=".65"/><stop stop-color="#DC4F41" offset=".842"/><stop stop-color="#BD1200" offset="1"/></linearGradient><path d="M76 46c6-4 6.25-12.25 13.25-16.25 6.99-4.49 13.73-7.49 21.72-10.74l-4.33-5.98a9.388 9.388 0 0 0-2.92-2.68c-1.05-.61-2.37-.8-3.37-.91-2.44-.18-4.75.72-6.33 2.76l-.04.05c-1.25 1.63-3.26 4.27-4.54 5.98-.14.15-.62.63-1.71 1.55-1.48 1.26-3.11 2.28-4.72 2.95l-.65.27c-1.53.5-4.01 1.65-5.79 2.56-.8.41-2.04 1.33-3.7 2.72-1.66 1.4-2.79 2.48-3.34 3.21-1.24 1.63-2.85 3.97-3.64 5.45l-.4.62c-.8 1.25-1.85 2.49-3.07 3.64-3.39 2.66-11.58 6.59-11.58 6.59-.62.31-1.23.62-1.77.91-.9.48-2.27 1.5-4.1 3.03-1.18.99-2.11 1.83-2.79 2.52-1.33 1.25-6.42 9.07-6.42 9.07-.71.88-1.53 1.75-2.43 2.58l-2.78 2.24c-1.26.89-2.57 1.66-3.88 2.27l-.81.38c-1.92.74-5.02 2.31-7.24 3.53-1 .55-2.53 1.69-4.57 3.4-.46.39-.89.75-1.28 1.1-2.33 1.97-5.97 7.21-5.97 7.21-.58.86-1.02 1.54-1.2 1.83-.6 1.05-.89 2.22-.79 3.37.07.89.29 3.57 5.71 7.48l4.26 3.07C27 80.5 37.5 88 58.5 69 68.75 59 69 52 76 46z" fill="url(#c)"/><path d="M99.74 12.58c.11 0 .22 0 .34.01.51.06 1.57.19 2.13.51.75.43 1.44 1.07 2 1.85l4.33 5.98 8.13 11.24 1.55 2.17c.86 1.2 1.59 2.24 1.88 2.66.1.15.16.23.17.24.11.15.22.51.29.76 0 .06-.01.12-.01.18-.02.24-.03.47-.03.72 0 .77-.19 1.21-2.23 4.06-.02.02-.03.04-.05.07l-1.54 2.28c-.56.75-1.28 1.86-1.85 2.75l-.33.5c-.1.15-.56.78-2.19 2.35l-.04.04c-.02.02-1.79 1.78-4.75 3.64-.27.16-.55.31-.84.47l-.71.38-.08.04-.09.03c-.02.01-.05.02-.07.03-.61.26-2.32 1.19-3.9 2.16-.09.06-.18.12-.27.19-.08.07-.25.2-.51.43-1.05.69-3.61 2.8-6.38 8.27-.44.72-.92 1.43-1.44 2.12-.28.37-1.13 1.46-1.78 2.14l-.04.04c-.46.5-.92.97-1.38 1.41-1.93 1.85-4.01 3.4-6.17 4.59l-.81.44-.12.07-.12.05c-.02.01-.03.01-.05.02-.65.29-2.55 1.37-4.22 2.43-.09.05-.17.11-.25.18-.27.21-.88.73-1.97 1.77-.6.57-1.11 1.08-1.47 1.46-.21.21-.83.85-3.65 5.56l-.22.35c-1.33 2.19-3.08 4.33-5.18 6.35-2.14 2.05-4.46 3.81-6.91 5.21l-.88.5-.17.09-.2.09c-.69.33-2.75 1.54-4.61 2.75-.08.05-.16.11-.24.17-.28.23-.93.78-2.13 1.92-.86.82-1.55 1.52-2 2.02-.08.08-.15.17-.21.26-1.18 1.65-2.11 3.04-2.42 3.56-.03.06-.07.12-.1.18-.12.23-.34.62-.73 1.21-.45.65-1.28 1.87-3.06 2.38-.45.13-.9.19-1.34.19-.74 0-1.41-.19-1.89-.53l-.44-.32-4.79-4.95c-.17-.17-.36-.33-.56-.46L16.46 99.45l-4.18-3.01c-1.6-1.16-4.32-3.38-4.47-5.28-.04-.53.1-1.07.39-1.56.14-.23.55-.85 1.1-1.69 1.32-1.9 3.97-5.39 5.44-6.63.02-.01.03-.03.05-.04.37-.33.78-.68 1.22-1.05 2.47-2.08 3.62-2.82 4.08-3.07 2.07-1.14 5.1-2.67 6.88-3.36.06-.02.12-.05.19-.08l.81-.38c1.46-.68 2.93-1.54 4.34-2.54.05-.04.1-.08.16-.12l2.78-2.24c.05-.04.1-.08.14-.12 1.01-.93 1.93-1.9 2.74-2.91l.18-.24c2.32-3.55 5.26-7.82 5.97-8.53.03-.02.05-.05.08-.08.6-.61 1.46-1.39 2.58-2.33 2.19-1.84 3.18-2.47 3.59-2.69.52-.28 1.1-.57 1.65-.85.35-.17 8.52-4.11 12.13-6.93l.21-.18c1.41-1.33 2.6-2.75 3.54-4.21l.4-.62c.04-.06.08-.13.12-.2.7-1.31 2.23-3.53 3.39-5.06.19-.25.84-1.01 2.88-2.72 2.03-1.7 2.87-2.21 3.14-2.34 1.63-.83 4-1.93 5.36-2.38.08-.02.15-.05.22-.08l.64-.27c1.89-.79 3.79-1.97 5.51-3.43 1.14-.97 1.7-1.52 1.93-1.77.08-.09.16-.18.24-.28 1.32-1.77 3.33-4.41 4.52-5.95l.03-.03c.99-1.34 2.34-1.62 3.3-1.62m0-3c-2.21 0-4.27.91-5.72 2.78l-.04.05c-1.25 1.63-3.26 4.27-4.54 5.98-.14.15-.62.63-1.71 1.55-1.48 1.26-3.11 2.28-4.72 2.95l-.65.27c-1.53.5-4.01 1.65-5.79 2.56-.8.41-2.04 1.33-3.7 2.72-1.66 1.4-2.79 2.48-3.34 3.21-1.24 1.63-2.85 3.97-3.64 5.45l-.4.62c-.8 1.25-1.85 2.49-3.07 3.64-3.39 2.66-11.58 6.59-11.58 6.59-.62.31-1.23.62-1.77.91-.9.48-2.27 1.5-4.1 3.03-1.18.99-2.11 1.83-2.79 2.52-1.33 1.25-6.42 9.07-6.42 9.07-.71.88-1.53 1.75-2.43 2.58l-2.78 2.24c-1.26.89-2.57 1.66-3.88 2.27l-.81.38c-1.92.74-5.02 2.31-7.24 3.53-1 .55-2.53 1.69-4.57 3.4-.46.39-.89.75-1.28 1.1-2.33 1.97-5.97 7.21-5.97 7.21-.58.86-1.02 1.54-1.2 1.83-.6 1.06-.89 2.22-.79 3.38.07.89.29 3.57 5.71 7.48l4.26 3.07 16.72 10.48 4.98 5.15.66.47c1 .72 2.28 1.09 3.64 1.09.71 0 1.45-.1 2.17-.31 2.83-.82 4.15-2.75 4.71-3.58.22-.33.62-.94.93-1.54.23-.38 1.08-1.66 2.28-3.35.16-.18.67-.74 1.84-1.86 1.16-1.11 1.75-1.6 1.94-1.75 1.94-1.26 3.82-2.34 4.26-2.55l.29-.13.28-.16.89-.51c2.66-1.52 5.18-3.42 7.49-5.64 2.29-2.2 4.2-4.54 5.67-6.95l.21-.34s2.66-4.44 3.24-5.03c.26-.28.7-.73 1.4-1.38 1.06-1.01 1.59-1.45 1.77-1.59 1.75-1.12 3.45-2.05 3.84-2.23l.26-.11.25-.14.8-.44c2.41-1.32 4.69-3.03 6.81-5.05.53-.5 1.03-1.02 1.51-1.54.92-.96 2.01-2.41 2.01-2.41.61-.81 1.17-1.63 1.68-2.47 3.01-5.99 5.54-7.31 5.54-7.31.3-.27.49-.42.57-.48 1.59-.98 3.13-1.8 3.48-1.95l.24-.09.23-.12.73-.39c.33-.17.66-.36.99-.55 3.35-2.1 5.32-4.09 5.32-4.09 1.33-1.28 2.21-2.25 2.62-2.87.56-.86 1.51-2.34 2.12-3.16l1.58-2.34c2.14-2.99 2.79-4.01 2.79-5.8v-.03c0-.52.12-1.03-.02-1.52-.19-.68-.4-1.33-.8-1.89-.05-.06-.94-1.35-2.05-2.89l-1.54-2.16-8.14-11.26-4.33-5.98a9.388 9.388 0 0 0-2.92-2.68c-1.05-.61-2.37-.8-3.36-.91-.21-.02-.42-.03-.62-.03z" fill="#424242" opacity=".2"/></svg>