<svg viewBox="0 0 128 128" xmlns="http://www.w3.org/2000/svg"><linearGradient id="a" x1="67" x2="71.5" y1="21.6" y2="116.9" gradientUnits="userSpaceOnUse"><stop stop-color="#E09B56" offset="0"/><stop stop-color="#E8C3B3" offset=".2"/><stop stop-color="#E1A76A" offset=".5"/><stop stop-color="#E9A24D" offset=".7"/><stop stop-color="#E6B561" offset=".8"/><stop stop-color="#E9A24D" offset="1"/></linearGradient><path d="M84 69c-3 5-12 5-15 11-3 5-6 9-11 12-10 5-20 8-26 18-1-2 1-5 1-7 6-11 21-10 26-22 2-7 13-7 17-13 12.9-15.6 25-28.7 43.1-37.7L111 19c-8 3.3-17 5.5-24 10-7 4-5 13-11 17-7 6-13 14-19 20-15 12.5-34.8 19-42.2 35.8l16.7 10.5 5 5.1.6.5a6.8 6.8 0 0 0 5.8.8 8.3 8.3 0 0 0 4.8-3.6l.9-1.6 2.3-3.3a33.8 33.8 0 0 1 3.8-3.6c1.9-1.3 3.8-2.4 4.2-2.6l.3-.1.3-.2.9-.5a38.2 38.2 0 0 0 13.1-12.6l.2-.3s2.7-4.4 3.3-5a27 27 0 0 1 7-5.2l.2-.1.3-.2.8-.4a32.7 32.7 0 0 0 8.3-6.6c1-1 2-2.4 2-2.4l1.7-2.5c3-6 5.6-7.3 5.6-7.3l.5-.5 3.5-2h.2l.3-.1.7-.4a24.5 24.5 0 0 0 6.3-4.7c1.3-1.3 2.2-2.2 2.6-2.8.6-1 1.5-2.4 2.2-3.2l1.7-2.3c2.2-3 3-4 3-5.8 0-.6 0-1-.2-1.6A74.4 74.4 0 0 0 84 69z" fill="url(#a)" opacity=".8"/><linearGradient id="b" x1="55.9" x2="59.9" y1="11.9" y2="99.1" gradientUnits="userSpaceOnUse"><stop stop-color="#7D2318" offset="0"/><stop stop-color="#C9511D" offset=".2"/><stop stop-color="#C74723" offset=".5"/><stop stop-color="#C9511D" offset=".7"/><stop stop-color="#7B2017" offset="1"/></linearGradient><path d="M80 49c6-4 7-11 14-15 7-4.5 9-11.7 17-15l-4.4-6c-.8-1.1-1.8-2-2.9-2.7-1-.6-2.4-.8-3.4-.9-2.4-.1-4.7.8-6.3 2.8l-4.6 6a22.2 22.2 0 0 1-6.4 4.5l-.6.3a24 24 0 0 0-9.5 5.3 24 24 0 0 0-7 8.6l-.4.7c-.8 1.2-1.9 2.4-3 3.6-3.5 2.7-11.7 6.6-11.7 6.6l-1.7.9a41.4 41.4 0 0 0-6.9 5.6 90 90 0 0 0-6.4 9L33.3 66l-2.8 2.2c-1.2 1-2.5 1.7-3.8 2.3l-.8.4c-2 .7-5 2.3-7.3 3.5-1 .6-2.5 1.7-4.6 3.4l-1.2 1.1a51.2 51.2 0 0 0-7.2 9 6 6 0 0 0-.8 3.4c0 1 .3 3.6 5.7 7.5l4.3 3C27 80.6 37.5 88 58.5 69 68.7 59 73 55 80 49z" fill="url(#b)"/><path d="M99.7 12.6h.4c.5 0 1.6.2 2.1.5.8.4 1.4 1 2 1.9l4.3 6 8.2 11.2 1.5 2.1a219.9 219.9 0 0 1 2.4 3.7v.9c0 .8-.3 1.2-2.3 4v.1l-1.6 2.3-1.9 2.8-.3.5a29.7 29.7 0 0 1-7 6l-.8.5-.7.3-.2.1a42.1 42.1 0 0 0-4.2 2.4l-.5.4c-1 .7-3.6 2.8-6.4 8.3a26.4 26.4 0 0 1-3.2 4.3 31 31 0 0 1-7.6 6l-.8.4-.2.1h-.1a48 48 0 0 0-4.5 2.7 30 30 0 0 0-3.4 3.2c-.2.2-.9.9-3.7 5.6l-.2.3a35.5 35.5 0 0 1-12 11.6l-1 .5-.2.2a59 59 0 0 0-4.9 2.9 40.5 40.5 0 0 0-4.3 4.2L46 112v.2l-.8 1.2c-.4.7-1.3 1.9-3 2.4l-1.4.2c-.7 0-1.4-.2-1.9-.5l-.4-.4-4.8-4.9-.6-.5-16.6-10.3-4.2-3C10.7 95.2 8 93 7.8 91.1c0-.6.1-1.1.4-1.6l1.1-1.7c1.3-1.9 4-5.4 5.4-6.6a56.2 56.2 0 0 1 5.4-4.2c2-1.1 5-2.6 6.9-3.3l.2-.1.8-.4a28 28 0 0 0 4.3-2.5l.2-.2 2.7-2.2.2-.1c1-1 2-2 2.7-3l.2-.2c2.3-3.5 5.3-7.8 6-8.5a38.2 38.2 0 0 1 6.2-5.1l1.7-.8c.3-.2 8.5-4.2 12.1-7l.2-.2c1.4-1.3 2.6-2.7 3.6-4.2l.4-.6v-.2c.8-1.3 2.3-3.5 3.5-5 .2-.3.8-1 2.8-2.8 2-1.7 3-2.2 3.2-2.3 1.6-.8 4-2 5.3-2.4h.3l.6-.3a21.4 21.4 0 0 0 7.4-5.2l.3-.3 4.5-6a4 4 0 0 1 3.3-1.6m0-3a7 7 0 0 0-5.7 2.8l-4.6 6a22.2 22.2 0 0 1-6.4 4.5l-.6.3a24 24 0 0 0-9.5 5.3 24 24 0 0 0-7 8.6l-.4.6c-.8 1.3-1.9 2.5-3 3.7A93.4 93.4 0 0 1 50.7 48l-1.7.9c-1 .4-2.3 1.5-4.1 3l-2.8 2.5c-1.4 1.3-6.4 9-6.4 9l-2.5 2.7-2.8 2.2c-1.2.9-2.5 1.7-3.8 2.3l-.8.4c-2 .7-5 2.3-7.3 3.5-1 .5-2.5 1.7-4.6 3.4l-1.2 1A51.2 51.2 0 0 0 5.6 88c-.6 1-.9 2.2-.8 3.4 0 .9.3 3.6 5.7 7.5l4.3 3 16.7 10.5 5 5.2.6.5c1 .7 2.3 1 3.7 1 .7 0 1.4 0 2.1-.3a8.3 8.3 0 0 0 4.8-3.5l.9-1.6c.2-.4 1-1.7 2.3-3.3a33.8 33.8 0 0 1 3.7-3.7l4.3-2.5.3-.1.3-.2.9-.5a38.2 38.2 0 0 0 13.1-12.6l.2-.3s2.7-4.5 3.3-5a27 27 0 0 1 7-5.3h.2l.3-.2.8-.5a32.7 32.7 0 0 0 8.3-6.5c1-1 2-2.5 2-2.5l1.7-2.4c3-6 5.5-7.3 5.5-7.3l.6-.5 3.5-2h.2l.3-.2.7-.4a24.5 24.5 0 0 0 6.3-4.6c1.3-1.3 2.2-2.3 2.6-2.9l2.1-3.1 1.6-2.4c2.2-3 2.8-4 2.8-5.8v-1.5c-.2-.7-.4-1.4-.8-2l-2-2.8-1.6-2.2-8.1-11.2-4.4-6c-.8-1.1-1.8-2-2.9-2.7a8.7 8.7 0 0 0-4-1z" fill="#424242" opacity=".2"/><linearGradient id="c" x1="75.5" x2="79" y1="32.7" y2="107.3" gradientUnits="userSpaceOnUse"><stop stop-color="#C9511D" offset="0"/><stop stop-color="#C74723" offset=".5"/><stop stop-color="#C9511D" offset=".7"/><stop stop-color="#7B2017" offset="1"/></linearGradient><path d="M76 68c-4 6-15 6-17 13-2.2 7.7-12.4 8.6-18.4 12.1-5.9 3.4-12.3 9.6-8.6 16.9 6-10 16-13 26-18 5-3 8-7 11-12 3-6 12-6 15-11a74.5 74.5 0 0 1 39.7-31.8 6 6 0 0 0-1-1.9l-2-2.9-1.6-2.1C101 39.3 89 52.3 76 68z" fill="url(#c)"/></svg>