<svg viewBox="0 0 128 128" xmlns="http://www.w3.org/2000/svg"><path d="M115.6 38.3c-.7-.3-1.3-.3-2 0-1.8.7-3.3 4.7-4.5 6.3A44.6 44.6 0 0 1 96.8 56l3.2 2.3.6-.2c7.7-3.4 16.4-11.1 15-19.8z" fill="#B05E19"/><radialGradient id="a" cx="345" cy="50.6" r="15.5" gradientTransform="translate(-229.4)" gradientUnits="userSpaceOnUse"><stop stop-color="#EBA955" offset="0"/><stop stop-color="#E99C40" offset=".3"/><stop stop-color="#E27A0B" offset=".9"/><stop stop-color="#E17300" offset="1"/></radialGradient><path d="M123 49.5c-.7-2.5-1.7-5-3.2-7.1-.8-1.2-2.5-3.4-4.2-4.1 1.5 8.7-7.3 16.4-15 19.8l-.6.2c3.8 2.4 8.1 4 12.6 4.7 3.5.6 7.6.3 10-2.5 2.4-3 1.7-7.3.5-11z" fill="url(#a)"/><path d="M87.9 20.8c-3.4 1-.7 5.8-.3 8.6.7 4.4.6 8.9-.3 13.3-.2 1.1-3.2 12.3-4.6 12l3 .7c1.3-1.5 2.4-3.2 3.5-4.8 5.2-9 7-22.8-1.3-29.8z" fill="#B05E19"/><path d="M94 46.3a29.5 29.5 0 0 0-2.7-25.5l-2.2-.2-1.2.2c8.3 7 6.5 20.9 1.3 29.8a44.4 44.4 0 0 1-3.3 4.9c3.3-2.5 6.7-4.8 8.2-9.2z" fill="#F4B972"/><radialGradient id="b" cx="331.4" cy="31.7" r="22.1" gradientTransform="translate(-229.4)" gradientUnits="userSpaceOnUse"><stop stop-color="#EBA955" offset="0"/><stop stop-color="#E99E43" offset=".2"/><stop stop-color="#E5871F" offset=".5"/><stop stop-color="#E27808" offset=".8"/><stop stop-color="#E17300" offset="1"/></radialGradient><path d="M112.2 32.6c-3-3.7-6.7-6.7-11-8.8a31 31 0 0 0-10-3c5.3 7.1 5.5 17.3 2.9 25.5-1.5 4.4-5 6.7-8.2 9.2 5 1.2 10.2 2 14.9 0 5-2 8.5-6.8 11.6-11.3a12 12 0 0 0 2.3-5c.3-2.4-1-4.7-2.5-6.6z" fill="url(#b)"/><path d="M59.2 24.2c-2.8-2-7-1.8-10.4-2.8l-1.6.5c-1.6 1.5-1.8 3.1 1.3 4.5l3.6 1c6.2 1.5 11 6.7 14 12.5s4.5 12 6.6 18.2c.4 1 .9 2.2 1.8 2.8.4-1.1.6-2.2 1-3.1v-.3c-.3-12.8-5-25-16.3-33.3z" fill="#B05E19"/><path d="M75.5 50c-.7-4-1.6-7.6-3-11.2-3.6-9.5-13.2-20-23.7-17.4 3.4 1 7.6.8 10.4 2.8a40.8 40.8 0 0 1 16.3 33.3c.6-2.2.6-5 0-7.6z" fill="#F4B972"/><radialGradient id="c" cx="302.2" cy="27.4" r="19.4" gradientTransform="translate(-229.4)" gradientUnits="userSpaceOnUse"><stop stop-color="#EBA955" offset="0"/><stop stop-color="#EAA54F" offset=".2"/><stop stop-color="#E89A3D" offset=".4"/><stop stop-color="#E58720" offset=".7"/><stop stop-color="#E17300" offset="1"/></radialGradient><path d="M91 28a13 13 0 0 0-2.1-7.3c-2-2.6-5.6-3.4-9-3.8-7.7-1-15.7-.8-23.4.6-1.8.3-7 2.2-9.3 4.4 11-4.1 21.5 7 25.4 17 1.3 3.5 2.2 7.1 2.9 11a16 16 0 0 1 0 7.9l-1 3 .2.1c1.5.8 3.3 0 4.6-1a29 29 0 0 0 10-14.4A46.3 46.3 0 0 0 91 28z" fill="url(#c)"/><path d="M55 58.7c-3-5.3-10-8.8-15.3-11-5-2-10.4-3.1-15.9-3-2.5 0-5 .4-7.5 1.2-1.2.3-6.5 1.9-6.8 3.2a9 9 0 0 0 0 4.2c1 4.1 7.6 0 10-.6 5.9-1.5 12.1-1.6 17.8.2s11 5.5 14 10.6c1.2 1.9 2.1 4 3.9 5.3 3.2 2.3.8-8 .2-9.2l-.4-.9z" fill="#B05E19"/><radialGradient id="d" cx="268.2" cy="38.2" r="23.7" gradientTransform="translate(-229.4)" gradientUnits="userSpaceOnUse"><stop stop-color="#EBA955" offset="0"/><stop stop-color="#EAA54F" offset=".2"/><stop stop-color="#E89B3F" offset=".4"/><stop stop-color="#E58A25" offset=".7"/><stop stop-color="#E17300" offset="1"/></radialGradient><path d="M73.8 52.6A47.8 47.8 0 0 0 65 32.3 27.2 27.2 0 0 0 46 22c-7.7-.5-15 3.2-21.3 7.6a40 40 0 0 0-11.1 11 30.7 30.7 0 0 0-3.5 7c13.4-8.5 33-4.7 44.3 6 1 1 2 2.3 2.6 3.6.6 1.6 1.3 3.3 1.6 5 .7 1.9 1 4.1 0 6.1l-.7 1.7c1 .2 2 .3 3.1.1 2-.3 4-1 5.7-2 2.7-1.2 5.4-2.8 6.8-5.4 1.6-3 1.2-6.6.4-10z" fill="url(#d)"/><path d="M58.5 62c-.3-1.6-1-3.3-1.6-4.9-.7-1.3-1.7-2.6-2.6-3.6-11.4-10.7-31-14.5-44.3-6l-.5 1.6c12-8.4 30-3.8 41.5 5 1.6 1 3 2.7 4 4.6 1.7 3.6 2.2 7.4 2 11l.8.2.7-1.7c1-2 .7-4.2 0-6.2z" fill="#F4B972"/><radialGradient id="e" cx="250.2" cy="61.7" r="22.7" gradientTransform="translate(-229.4)" gradientUnits="userSpaceOnUse"><stop stop-color="#EBA955" offset="0"/><stop stop-color="#EAA650" offset=".2"/><stop stop-color="#E99C40" offset=".4"/><stop stop-color="#E58B26" offset=".7"/><stop stop-color="#E17402" offset="1"/><stop stop-color="#E17300" offset="1"/></radialGradient><path d="M50.7 78.5c2.5-2.1 4-5.5 4-8.9A17 17 0 0 0 49.4 58c-3-3.1-7-5.3-11-7a37.2 37.2 0 0 0-15-3 20 20 0 0 0-13.7 6.1 21 21 0 0 0-4.6 10.5c-.6 3.8-.6 7.6-.5 11.5a39 39 0 0 0 1.8 12 54.8 54.8 0 0 1 44.3-9.4z" fill="url(#e)"/><path d="M7.8 90.6c1.2 1.8 2.9 3 5 2.7 4.7-.6 8.8-2.7 12.7-5.2 4.2-2.6 8.5-5.5 13.4-6.4 3-.5 6.3-.3 9.2-1.5a9 9 0 0 0 2.6-1.7 32 32 0 0 0-6.2-1A50 50 0 0 0 8 90.5z" fill="#B05E19"/><path d="M6.4 88l1.4 2.6a50 50 0 0 1 36.7-13.2A56.6 56.6 0 0 0 6.5 88z" fill="#F4B972"/><radialGradient id="f" cx="254.8" cy="95" r="19.3" gradientTransform="translate(-229.4)" gradientUnits="userSpaceOnUse"><stop stop-color="#EBA955" offset="0"/><stop stop-color="#EAA34B" offset=".2"/><stop stop-color="#E79231" offset=".5"/><stop stop-color="#E27808" offset=".9"/><stop stop-color="#E17300" offset="1"/></radialGradient><path d="M53.4 94.4c0-1-.4-2-.7-3-1.3-4.5-3.1-9.3-7.3-11.2a14 14 0 0 0-8.2-.3c-7 1.3-13.8 4-19.7 8-2.2 1.4-6.5 3.6-6.4 6.4.1 3.6 2.5 7.4 4.6 10.1 2.5 3.2 5.6 6 8.6 8.6l1 .8c5.6-10 16.8-17 28-19.4z" fill="url(#f)"/><path d="M25.3 113.8l1.4 1c6.4-9.4 16.3-15 26.6-19.4v-1a42.7 42.7 0 0 0-28 19.4z" fill="#F4B972"/><path d="M26.7 114.8a5 5 0 0 0 3.4.8c2-.3 3.3-2 4.5-3.6 4.1-5.2 9.3-9.6 15.2-12.7a7.8 7.8 0 0 0 3-2.4c.3-.5.5-1 .5-1.5a58.5 58.5 0 0 0-26.6 19.4z" fill="#B05E19"/><radialGradient id="g" cx="276.8" cy="111.6" r="15.2" gradientTransform="translate(-229.4)" gradientUnits="userSpaceOnUse"><stop stop-color="#EBA955" offset="0"/><stop stop-color="#E99C40" offset=".3"/><stop stop-color="#E27A0B" offset=".9"/><stop stop-color="#E17300" offset="1"/></radialGradient><path d="M61 104.6c2 3 3.2 6.5 2.7 10a9.7 9.7 0 0 1-6 8c-2.5 1-5.3.5-8 0a124 124 0 0 1-15.6-4.2c-1.2-.4-2.4-.9-3-2-.6-1.3.2-3 1.2-4.3 3.7-5.1 8.5-9.5 14-12.6 2.1-1.2 5.6-3.7 7.9-2.3a25 25 0 0 1 6.8 7.4z" fill="url(#g)"/><path d="M70 19.2c3.1 0 6.3.2 9.4.7 2.5.3 5.5.9 7 2.7a3 3 0 0 0 2.3 1h.3a28.1 28.1 0 0 1 10.7 2.9c4 2 7.4 4.7 10 8a8 8 0 0 1 1.9 3.9 3 3 0 0 0 2.6 2.7c.7.3 2 1.5 3 3 1.3 2 2.2 4.3 2.9 6.3 1.2 4 1.2 6.7 0 8.2-1.2 1.4-3.3 1.7-4.9 1.7-.8 0-1.5 0-2.4-.2a29.3 29.3 0 0 1-13.7-6 3 3 0 0 0-2.4-.6l-2.6.2a33 33 0 0 1-7.7-1.1h-.2l-1-.3-.5-.1-.7-.1a3 3 0 0 0-2.4 1.1 21.9 21.9 0 0 1-4.3 4.3l-1.4.8a3 3 0 0 0-4.9 1.5c0 .6-.3 1-.5 1.4-1 1.9-3.2 3.1-5.4 4.2-1.5.7-3.2 1.5-4.8 1.7a7.2 7.2 0 0 1-2.1 0l-.7-.1-.8-.6-.3-.2a3 3 0 0 0-3.3-.5 3 3 0 0 0-1.7 3v1c0 2.5-1 5-2.9 6.6a6.4 6.4 0 0 1-3 1.6 3 3 0 0 0-.9 5.5c2.6 1.5 4 5.4 5 8.9a10.5 10.5 0 0 1 .5 2.8v.3a3 3 0 0 0 2.5 4.4c1.5 1 3.7 3.4 5.7 6.5 1.7 2.7 2.5 5.5 2.2 8-.3 2.6-2 4.9-4 5.6a7 7 0 0 1-2.2.3 129 129 0 0 1-20.6-5 3 3 0 0 0-3-2.8 3 3 0 0 0-1.1.2l-.2.1h-.2l-1.2-.4a61.3 61.3 0 0 1-10.1-9.6 16.5 16.5 0 0 1-4-8.4 3 3 0 0 0-.2-2.4 3 3 0 0 0-2-1.5c-.6-.2-1.2-.9-1.6-1.4a17 17 0 0 1-1.7-3.9c-.8-2.9-.9-6-1-9.1 0-3.5-.1-7.4.5-11a18 18 0 0 1 3.8-8.9c1-1 1-2.4.5-3.5-.2-.7-.2-1.6 0-2.8l.4-1.3c1-2.8 2.5-5.3 3.2-6.3C18 38.6 21.4 35.4 26 32a32.1 32.1 0 0 1 19.5-7h1.3a3 3 0 0 0 2.1-.8 22 22 0 0 1 7.8-3.7c4.4-.9 8.8-1.3 13.2-1.3m0-3c-4.6 0-9.2.4-13.7 1.3-1.8.3-7 2.2-9.3 4.4a23.6 23.6 0 0 0-2.5 0c-7.3 0-14.2 3.4-20.1 7.6a40 40 0 0 0-11.1 11 30.7 30.7 0 0 0-4 8.6 9 9 0 0 0 0 4.2c0 .3.1.5.3.7a21 21 0 0 0-4.7 10.4c-.6 3.8-.5 7.7-.4 11.6a39 39 0 0 0 1.7 12c.4.9.9 1.8 1.5 2.6a6 6 0 0 0 3.4 2.7l-.2 1a20 20 0 0 0 4.6 10.1 59 59 0 0 0 8.7 8.6 23.4 23.4 0 0 0 2.3 1.8c.9.5 1.8.9 2.8.9h.6l.9-.3c0 .3 0 .7.2 1 .5 1.1 1.8 1.6 3 2 5 1.7 10.3 3.1 15.6 4.2 1.6.3 3.1.6 4.7.6 1.1 0 2.2-.2 3.2-.5 3.4-1.2 5.6-4.6 6-8s-.7-7.2-2.7-10.1A25.2 25.2 0 0 0 54 97a3 3 0 0 0-1.3-.3l.5-1.4v-1c0-1-.4-2-.7-3-1.2-4-2.8-8.5-6.3-10.7l1.7-.5a9 9 0 0 0 2.6-1.7 12.1 12.1 0 0 0 4-10.2c0 .2.3.3.5.5 1.4 1 2 1.3 2.2 1.3.2 0 .2-.2.3-.2a8.7 8.7 0 0 0 3.3.1c2-.3 3.8-1 5.7-2 2.6-1.3 5.3-2.8 6.7-5.4l.8-2 .3.2.2.1 1.2.3c1.2 0 2.4-.7 3.4-1.4 1.9-1.4 3.5-3 5-4.8l1.4.4h.2a36.6 36.6 0 0 0 11.5 1 32.4 32.4 0 0 0 18 6.8c2.7 0 5.5-.7 7.2-2.7 2.4-3 1.7-7.4.5-11-.8-2.6-1.8-5-3.3-7.2-.8-1.1-2.5-3.3-4.2-4l-.8-.3c-.2-2-1.3-3.8-2.6-5.4a29.4 29.4 0 0 0-11-8.8 31 31 0 0 0-12-3.2h-.4c-2-2.5-5.5-3.4-8.8-3.8-3.3-.4-6.5-.6-9.8-.6z" fill="#424242" opacity=".2"/></svg>