<svg viewBox="0 0 128 128" xmlns="http://www.w3.org/2000/svg"><radialGradient id="a" cx="46.3" cy="39.7" r="77.3" gradientUnits="userSpaceOnUse"><stop stop-color="#FFDCB5" offset="0"/><stop stop-color="#F3CA9C" offset=".2"/><stop stop-color="#E4B37D" offset=".6"/><stop stop-color="#DEAA71" offset=".8"/><stop stop-color="#E0AB7B" offset="1"/></radialGradient><path d="M107.3 66.4c-1.6-21.9-16.4-59.8-44-59.8-25.5 0-42.8 38-44.2 59.8-2.8 44 23.7 57.3 44.1 57.3 20 0 47.2-14.6 44.1-57.3z" fill="url(#a)"/><path d="M63.2 9.6c14.1 0 23.7 11 29.2 20.2a88.5 88.5 0 0 1 11.9 36.8c1.3 17.5-2.7 31.8-11.6 41.4a40.8 40.8 0 0 1-29.5 12.7 40.3 40.3 0 0 1-29.5-12.1C24.9 99 21 85 22.1 66.6A85.4 85.4 0 0 1 34.7 30c4.8-7.6 14.8-20.3 28.5-20.3m0-3c-25.4 0-42.7 38-44 59.8-2.9 44 23.6 57.3 44 57.3 20 0 47.2-14.6 44.1-57.3-1.6-21.9-16.4-59.8-44-59.8z" fill="#424242" opacity=".2"/></svg>