<svg viewBox="0 0 128 128" xmlns="http://www.w3.org/2000/svg"><linearGradient id="a" x1="59.8" x2="64.5" y1="10.6" y2="30.3" gradientUnits="userSpaceOnUse"><stop stop-color="#FBEBDA" offset="0"/><stop stop-color="#D5BFA8" offset=".9"/><stop stop-color="#D1BBA3" offset="1"/></linearGradient><path d="M56.1 30.3c6 4 14-2 16-8 1.3-4 2.2-8.5 1.7-13.2l-1.5 1c-5.5 4-11.4 4-22 2.7 0 0-2-.4-4.2.4 1.8 6.6 4.1 13 10 17.1z" fill="url(#a)"/><linearGradient id="b" x1="25" x2="25" y1="24.8" y2="51.3" gradientTransform="rotate(-45 29.4 21.6)" gradientUnits="userSpaceOnUse"><stop stop-color="#FBEBDA" offset="0"/><stop stop-color="#D5BFA8" offset=".9"/><stop stop-color="#D1BBA3" offset="1"/></linearGradient><path d="M47.1 35.3c2.5-5.9-1.3-12.5-5.6-18.6l-.4.6c-3.2 5.8-2.3 10.9-8.8 14.9-4.8 3-10.5 3.9-14 7.6 10 7 24.1 9.5 28.8-4.5z" fill="url(#b)"/><linearGradient id="c" x1="-12.3" x2="1.8" y1="31.2" y2="56.1" gradientTransform="rotate(-45 29.4 21.6)" gradientUnits="userSpaceOnUse"><stop stop-color="#FBEBDA" offset="0"/><stop stop-color="#D5BFA8" offset=".9"/><stop stop-color="#D1BBA3" offset="1"/></linearGradient><path d="M19.2 47.2l-3.9-1c.2 4.4 5.1 12.1.6 16.7-3 3-7 6.1-9 9.1h15.3c16-4 6-19.8-3-24.8z" fill="url(#c)"/><linearGradient id="d" x1="-32.9" x2="-5.1" y1="61.2" y2="76.8" gradientTransform="rotate(-45 29.4 21.6)" gradientUnits="userSpaceOnUse"><stop stop-color="#FBEBDA" offset="0"/><stop stop-color="#F4E4D2" offset=".1"/><stop stop-color="#D5C3AF" offset=".5"/><stop stop-color="#C1AE99" offset=".8"/><stop stop-color="#BAA791" offset="1"/></linearGradient><path d="M29.1 89.2c0-8.5-14.6-5.4-23.2-11.2 0 .3.2.5.3.8 2.7 5.7 11.2 9.3 12.5 22s1 7.8 1 8.5a33.8 33.8 0 0 0 9.4-20z" fill="url(#d)"/><linearGradient id="e" x1="23.3" x2="99.7" y1="30.2" y2="88.9" gradientUnits="userSpaceOnUse"><stop stop-color="#FBEFE4" offset="0"/><stop stop-color="#F8EBDF" offset=".3"/><stop stop-color="#EEDFD1" offset=".7"/><stop stop-color="#E6D5C5" offset=".9"/></linearGradient><path d="M123.5 21.8c-1.8-3.7-2.8-8.2-11-8.5h-1.7c-2.5-.1-5.2-.4-8-.7 0 7.8-2.4 15.3-9.8 16.7-12 3-13.9-11.2-12.7-23-2.1.4-4.3 1.4-6.5 2.8.5 4.7-.4 9.2-1.7 13.2-2 6-10 12-16 8-5.9-4.2-8.2-10.5-10-17.1a8.5 8.5 0 0 0-4.6 3.5c4.3 6.1 8.1 12.7 5.6 18.6-4.6 14-18.9 11.4-28.9 4.5-1.2 1.4-2.2 3-2.8 5.3v1.2c1.2.4 2.4.6 3.8.9 9 5 19 20.8 3 24.8H7c-1.2 1-1.7 3.9-1 5.9 8.5 5.8 23.2 2.7 23.2 11.3 0 5.1-4.4 14.9-9.6 19.4 0 2.9 2 8.5 5.3 11.3l3.4 2.8c.8.6 1.8 1 2.7 1.1 1.6.2 3.2-.2 4.5-1.4 2.9-2.7 6-6.3 12-9.9 4-2.4 7.3-6.8 9.5-9.4a38.7 38.7 0 0 1-8-5.6C38 85.7 38.3 69 46.9 55.7a47.7 47.7 0 0 1 30.4-21.2c11-1.6 23.8 5.6 31.9 13.6a35 35 0 0 0 5.4-6.3l2.2-3.4c4.7-7.5 8.3-13.3 6.8-16.6z" fill="url(#e)"/><linearGradient id="f" x1="28.3" x2="28.3" y1="56.9" y2="109.4" gradientTransform="rotate(-45 29.4 21.6)" gradientUnits="userSpaceOnUse"><stop stop-color="#F2E3D2" offset="0"/><stop stop-color="#EEDFCE" offset=".2"/><stop stop-color="#E3D3C1" offset=".5"/><stop stop-color="#CFBEAB" offset=".7"/><stop stop-color="#B5A28D" offset="1"/></linearGradient><path d="M77.2 34.5a47.8 47.8 0 0 0-30.4 21.2c-8.6 13.2-9 30 2.3 41.8 1.7 1.9 5.5 4.3 8 5.6 4.6-2.5 6.3-4.1 21.6-17 11.1-9.3 14.1-15.3 18.5-20.3C104.8 57 107 50 109 48c-8-8-20.8-15.2-31.8-13.6z" fill="url(#f)"/><linearGradient id="g" x1="63.7" x2="91" y1="62.9" y2="62.9" gradientTransform="rotate(-45 29.4 21.6)" gradientUnits="userSpaceOnUse"><stop stop-color="#D1BBA3" offset="0"/><stop stop-color="#D5BFA8" offset=".1"/><stop stop-color="#FBEBDA" offset="1"/></linearGradient><path d="M94.7 30.3C110.3 28.8 108 21 108 13.2A65.2 65.2 0 0 1 87.8 8a9 9 0 0 0-7.5-1.8c-1.1 11.9-1.3 25.5 14.4 24z" fill="url(#g)"/><path d="M81.5 9.2a6 6 0 0 1 4 1.3 67 67 0 0 0 21 5.5h.2l4 .3h1.7c5.5.2 6.4 2.3 7.8 5.5l.6 1.3c.8 1.8-3.5 8.7-6.7 13.7l-2.2 3.4c-.9 1.6-.9 1.6-2.8 3.3l-.2.3c-1.9 1.6-3.6 4.4-5.7 7.9s-4.7 7.8-8.3 12.2l-3 3.9a86 86 0 0 1-15.1 16L71 88.6a90.5 90.5 0 0 1-16.4 12.6l-1 1c-2 2.5-4.7 5.9-7.8 7.8-5.1 3-8.3 6.2-10.9 8.6l-1.6 1.6a2.5 2.5 0 0 1-2 .6h-.1c-.5 0-.8-.2-1.2-.5l-3.3-2.6a14.7 14.7 0 0 1-4.2-9c0-.1-.3-1.4-1-8.3a29 29 0 0 0-9-18.3c-1.7-1.7-3-3.1-3.7-4.6l-.2-.4v-.2c-.3-1 0-2.3.2-2.7l.4-.5a50 50 0 0 1 5.6-6l3-2.7c4.3-4.4 2.4-10.4 1-14.8l-.8-3v-1.5c.5-2 1.1-3.1 1.7-3.9 2-1.7 4.5-2.8 7.2-4a44 44 0 0 0 6.5-3c5.3-3.3 6.7-7.2 8.1-11a32.3 32.3 0 0 1 2.4-5.3c.5-.7 1-1 2.1-1.6l1.4-.7a4 4 0 0 1 2-.3l.3.1c4.1.5 7.2.8 9.8.8A22.6 22.6 0 0 0 75 11.7a15 15 0 0 1 5-2.4l1.6-.1m-.3-3l-2.3.1V6h.2c-2 1-3.7 1.5-6 3l-1.1 1a19.7 19.7 0 0 1-12.6 3.7 67 67 0 0 1-9.3-.7l-1.3.1c-.7 0-1.7 0-2.8 1-1.6 1-3.3 1-4.6 3-.1.3-.3.3-.4.5-3.2 5.7-3 10.7-9.4 14.7-4.8 3-10.7 3.8-14.7 7.5-1 1.4-1.6 3.4-2.2 5.7l.4 1.5h-.3c.4 4 5.2 11.7.8 16.1-3 3-6.8 6-8.9 9-1.1 1-1.6 3.9-1 5.8v.1l.4.8c2.7 5.7 11.2 9.2 12.5 22 .5 6 .8 8 1 8.6.2 3 2.2 8 5.2 10.5l3.4 2.8a5.6 5.6 0 0 0 3.4 1.2c1.4 0 2.7-.5 3.8-1.5 2.9-2.7 6-6.3 12-9.9 4-2.4 7.3-6.8 9.5-9.4 4.7-2.5 6.4-4.1 21.7-17C89.8 76.7 92.9 71 97.2 65.8c7.1-8.6 10.5-17.1 13.7-19.8 2.4-2.3 2.4-2.3 3.6-4.2l2.1-3.4c4.8-7.6 8.4-13.3 6.9-16.6-1.8-3.7-2.8-8.2-11-8.4l-1.7-.1-3.9-.3a63.3 63.3 0 0 1-19.6-4.9 9.5 9.5 0 0 0-6-2zm-66.8 40v.3h.4v-.2h-.4z" fill="#424242" opacity=".2"/></svg>