<svg viewBox="0 0 128 128" xmlns="http://www.w3.org/2000/svg"><radialGradient id="a" cx="63.6" cy="97.6" r="46.4" gradientUnits="userSpaceOnUse"><stop stop-color="#fff" offset="0"/><stop stop-color="#FAFAFA" offset=".5"/><stop stop-color="#EDEDED" offset="1"/></radialGradient><ellipse cx="63.6" cy="97.6" rx="60" ry="26.6" fill="url(#a)"/><path d="M63.6 74c15.6 0 30.3 2.6 41.2 7.5 10 4.5 15.8 10.3 15.8 16s-5.7 11.7-15.8 16.1c-11 4.9-25.6 7.6-41.2 7.6s-30.2-2.7-41.2-7.6c-10-4.4-15.8-10.3-15.8-16s5.8-11.7 15.8-16.1A105 105 0 0 1 63.6 74m0-3c-33.1 0-60 11.9-60 26.6s26.9 26.6 60 26.6 60-12 60-26.6S96.8 71 63.6 71z" fill="#424242" opacity=".2"/><ellipse cx="64.8" cy="96.4" rx="48.4" ry="16.6" fill="#BFBFBF"/><linearGradient id="b" x1="13.5" x2="114.7" y1="100.2" y2="100.2" gradientUnits="userSpaceOnUse"><stop stop-color="#E3C386" offset="0"/><stop stop-color="#EACE94" offset=".1"/><stop stop-color="#F5E1AC" offset=".5"/><stop stop-color="#FDEDBB" offset=".8"/><stop stop-color="#FFF1C0" offset="1"/></linearGradient><path d="M34.4 102.3c-6.4-2-13.9-4.3-19.2-9.7-.7-1-1.3-2-1.7-3-.2 5.6.5 7 3.6 9.6 3.2 2.7 1.4 4.7 9 6.8s13 5.4 25.3 6 21.7 3.4 32.6-.6c11-4.1 19.3-5.4 23.6-8.6 3.5-2.6 8.4-11.3 6.7-16-17.6 24.3-54.3 23.5-79.9 15.5z" fill="url(#b)"/><linearGradient id="c" x1="13.5" x2="114.3" y1="88.9" y2="88.9" gradientUnits="userSpaceOnUse"><stop stop-color="#A5551B" offset="0"/><stop stop-color="#E7971C" offset="1"/></linearGradient><path d="M34.4 102.3c25.7 9.5 77.1 6.5 80-15.4-.4-1-1-2-2-2.7-5.2-3.9-37-15.1-58.7-13.7s-26.4 5-34.8 10c0 0-5 2.5-5.3 8.6v.5c.3 1 1.8 3 2.5 4 5.3 5.3 12 6.5 18.3 8.7z" fill="url(#c)"/><path d="M23.6 61.4c-1.1.4-3.8 8.4 2 12s11.3 5.7 16.9 7.4 5.5 3.6 16 3.3 11.3 1.2 16.8 1 10.5 0 15.1-3c4.7-3 7-2.9 11.5-5.9 4.4-3 7.1-3.7 7.8-8.6.7-4.8 4-13.9-.2-18s-27-10-45.6-9-30.9 9.6-34.6 12c-3.8 2.6-5.8 8.8-5.8 8.8z" fill="#FFEEBF"/><linearGradient id="d" x1="11.1" x2="112" y1="78.1" y2="78.1" gradientUnits="userSpaceOnUse"><stop stop-color="#FFF1C0" offset="0"/><stop stop-color="#FDEDBB" offset=".2"/><stop stop-color="#F5E1AC" offset=".5"/><stop stop-color="#EACE94" offset=".9"/><stop stop-color="#E3C386" offset="1"/></linearGradient><path d="M109.4 70.5C99.7 82.9 81.5 87 65.4 85c-1 0-4.2 1-5.3 1a76.8 76.8 0 0 1-36.6-7.9c-3.1-1.7-6-3.9-8.3-6.7-1-1.4-2-2.8-2.6-4.4-.7-1.7-.7-3.6-1.4-5.3.3.7-.2 2.6-.1 3.4 0 1.4.3 2.7.6 4 .5 2.2.5 7.3 2 9.1 4.3 5.6 11.9 10 18.4 12.2 5.1 1.7 15.8 3.7 27.8 3.9s21.7.7 27.4-1c12.5-3.7 20.5-10.3 22.9-13.7s2-7 1.5-11v-.4c-.8.6-1.5 1.4-2.3 2.3z" fill="url(#d)"/><linearGradient id="e" x1="11.5" x2="111.6" y1="67" y2="67" gradientUnits="userSpaceOnUse"><stop stop-color="#E7971C" offset="0"/><stop stop-color="#A5551B" offset="1"/></linearGradient><path d="M83.8 47.1c-20-1.4-44.7-4.8-65.8 8.5-.3.2-4.9 2.2-6.5 6 1 19.2 31.4 27.7 48 26.6 20-1.4 37.2 4.3 49.9-17.7l2.2-2.3A30.2 30.2 0 0 0 84 47z" fill="url(#e)"/><linearGradient id="f" x1="16.3" x2="113.7" y1="50.2" y2="50.2" gradientUnits="userSpaceOnUse"><stop stop-color="#E7971C" offset="0"/><stop stop-color="#A5551B" offset="1"/></linearGradient><path d="M50.5 69c4.3 0 8.6-1 12.8 0 18.3 2 42.5-.4 50.4-17.8-.7-1.9-2-3.7-5-5.7-6.2-4.3-9.7-5.8-13.4-8.2-3.4-2.1-7.6-3.1-11.4-4.2a51.8 51.8 0 0 0-14.6-2.4c-6.2.2-12.4-.3-18.7.6a69.5 69.5 0 0 0-31.1 12.6 9.5 9.5 0 0 0-3.2 6C21.9 63.3 37.6 68 50.5 69z" fill="url(#f)"/><linearGradient id="g" x1="16.1" x2="114.2" y1="63" y2="63" gradientUnits="userSpaceOnUse"><stop stop-color="#FFF1C0" offset="0"/><stop stop-color="#FDEDBB" offset=".2"/><stop stop-color="#F5E1AC" offset=".5"/><stop stop-color="#EACE94" offset=".9"/><stop stop-color="#E3C386" offset="1"/></linearGradient><path d="M63.3 69c-4.2-1-15.5-1-19.8-1-12.9-1-21.5-4.6-27.2-18a14 14 0 0 0 2.5 10.6c4 5.1 15.4 11.7 21.2 13S49.9 75 59.4 75s16.8 1.2 20.2 1.2S86 75 92 73.8c6.2-1 6.2-.5 11.7-3s10-7.6 10.3-12.5c.2-2.7.5-5-.3-7.1-8 17.4-32.1 19.8-50.4 17.9z" fill="url(#g)"/><radialGradient id="h" cx="80" cy="46.5" r="38.2" gradientUnits="userSpaceOnUse"><stop stop-color="#C95202" offset=".1"/><stop stop-color="#C75102" offset=".2"/><stop stop-color="#B44902" offset=".4"/><stop stop-color="#A84502" offset=".7"/><stop stop-color="#A44302" offset="1"/></radialGradient><path d="M37.4 44.4c-1.3.6-2.9.6-4.4.6-3.2 0-6.6.3-9.6 1.8s-5.2 4.6-5.2 7.9 3 6.6 6.3 6a9 9 0 0 0 4-2c5.6-3.4 12.5-5 18.7-3.2S59 62.6 59.8 69.1c.5 2.8.2 6 2 8 2.2 2.4 5.8 2.2 9 1.7 1.7-.2 4-1 4-2.9 0-1.5-1.6-2.4-2.4-3.8-1.2-2.2.6-5 2.9-6s4.9-.7 7.4-.6c9.9.4 20-2.5 28.1-8.1 2-1.4 4.1-3.3 4.2-5.8.1-2-1.1-3.7-2.6-4.9s-3.3-2-5-3c-3.2-2-6-4.8-9.2-6.8a35.8 35.8 0 0 0-12.8-4 141.5 141.5 0 0 0-40.7-.8c-2.3.2-8.8.5-9.3 3.9-.4 2.7 7.8 5.5 2 8.4z" fill="url(#h)" opacity=".7"/><linearGradient id="i" x1="68" x2="88.7" y1="118.2" y2="89.2" gradientUnits="userSpaceOnUse"><stop stop-color="#EE8B3F" offset="0"/><stop stop-color="#E38036" offset=".1"/><stop stop-color="#C7651F" offset=".2"/><stop stop-color="#B4520F" offset=".4"/><stop stop-color="#A84705" offset=".6"/><stop stop-color="#A44302" offset=".8"/></linearGradient><path d="M60 90.6c.6 1.1 1.9 1.7 3 1.9 1.7.3 3.5 0 5.2 0s3.4.3 4.8 1.3c1.3 1 2 3.1 1 4.5-.8 1-2.3 1.4-3.5 1.8s-2.6 1.4-2.5 2.7c0 1.4 1.6 2.2 3 2.5 1.4.2 3 .2 4.2.9s2.2 2.3 1.4 3.4c-.7 1.1-2.2 1.1-3.5 1.1l-5.8-.3c-1 0-2.1 0-3.2.3s-1.9 1.1-2 2.2c-.2 1.1.7 2.2 1.7 2.7s2.2.6 3.4.7a67 67 0 0 0 34-6c1-.5 1.9-1 2.5-1.7s1-1.9.6-2.8c-.7-1.8-3.2-1.8-5.1-1.5-5.3 1-10.4 2.6-15.4 4.6-.9.4-1.8.8-2.8.8-1 0-2-.5-2.3-1.5-.3-1 .4-2 1.3-2.5s2-.6 3-.7c2-.3 4-.7 6-1.3 1-.4 2.1-.8 2.6-1.7.8-1.5-.6-3.4-2.2-3.8s-3.4 0-5 .6-3.4 1-5 .4c-1.6-.5-2.7-2-2.8-3.6s1-3.3 2.5-4c1.6-.7 3.6-.3 5.4-.4s4-1.4 3.7-3.2c-.2-1-1-1.8-2-2-1-.4-2.1-.4-3.1-.3-4.7.3-9.3.6-13.9 1.2-1.9.1-11 0-9.2 3.7z" fill="url(#i)" opacity=".8"/><path d="M50.8 29.7c-2 .6-4.2 2-6 3.3-3.4 7.5 4.5 14.1 10.5 19 4.7.5 9.5 2.5 14.2 2.5 2 0 3.3 0 5.2-1 1.8-1 2.4-3 3.6-4-7-2.4-15.1-3-21.4-7.2-3.7-1.9-9.2-7-6-12.6z" fill="#FDE9D2"/><path d="M51 29.4l-.3.3c-3.1 5.6 2.4 10.7 6.1 12.6 6.3 4.2 14.5 4.8 21.4 7.3l.4-.2c-5.3-3-11.2-5.3-17.4-8.1-5-3.3-8.8-7-10.2-12z" fill="#EED4B5"/><path d="M82.2 37.9H82h.1z" fill="#FBE2C5"/><path d="M82.1 38v-.1c-3.8 0-7.6 0-11.3-1-6.4-1-15-7.4-10.7-15 .8-2.2 3.7-4.4 7.2-5.2l1.3-.6c-14.7 1-17.2 9.7-17.6 13.2 0 .4.8 6.3 10.2 12 6.2 2.8 12.1 5 17.4 8 .6-.2 1.2 0 1.7 0 .6.2 1.1.3 1.7.2 1-.3 1.5-1.3 2-2.1.8-1.7 2.5-3.8 2.5-5.6a3 3 0 0 0-.3-1.6 44.8 44.8 0 0 0-4-2.3z" fill="#FDE9D2"/><path d="M82.2 38c1.4.7 2.8 1.4 4 2.2-.7-1.3-2.5-1.7-4-2.2z" fill="#FBE2C5"/><path d="M63.3 21c0-1.4 1.7-3.2 4-4.3-3.5.8-6.4 3-7.2 5.3-4.3 7.5 4.3 14 10.7 15 3.7.9 7.5.8 11.2.9-8.3-4.2-17.8-7.2-18.7-17z" fill="#D9C1A5"/><path d="M83.5 32c-.6-4.1-11.8-6-16.8-8.6-4.2-2.2.8-5.8 2.5-7-.7 0-1.3.2-2 .3-2.2 1.1-3.9 2.9-3.9 4.2.9 9.9 10.4 12.8 18.7 17h.2c.7-2 1.6-3.7 1.3-6z" fill="#FDDCB9"/><path d="M55.3 52c-6-4.9-13.9-11.5-10.6-19l-.5.4c-2 5.4-1.3 11.5 1.6 16.2a22 22 0 0 0 9.2 2.3h.3z" fill="#D9C1A5"/><path d="M44.2 33.4a8.9 8.9 0 0 0-4 8.9 10 10 0 0 0 3.4 5.8c.7.6 1.5 1 2.2 1.5a18.8 18.8 0 0 1-1.6-16.2z" fill="#FDF2E6"/><path d="M62.2 20.4l-.1 1c0 1.2.5 3.2 3.2 4.7 2 1 4.4 1.8 7 2.7a29 29 0 0 1 8.2 3.6v.5a3 3 0 0 0 2.3 3h.1l.2.1.8.2c3.5 1 7 2 9.8 3.6 1.4 1 2.7 1.6 4.1 2.4 2.5 1.4 5.3 3 9.3 5.8 2.7 2 3.5 3.3 3.8 4.2.4 1.3.3 3 .2 5l-.1.9a10 10 0 0 1-2.5 5.5c-.8.8-1 2-.5 3 .5 1.2.6 2 .7 2.2v.2c.5 3.6.7 6.3-1 9l-1.7 1.8c-.7.7-1 1.7-.8 2.6s.8 1.8 1.7 2.3c2.4 1 3.4 1.7 3.7 2 .4.3.7.7 1 1.2 1 2.8-2.8 10.2-5.8 12.5a40.3 40.3 0 0 1-11.1 4.3c-3.4 1-7.3 2.2-11.7 3.8a31.6 31.6 0 0 1-11.4 2c-3.3 0-6.7-.4-10.3-.8a161 161 0 0 0-9.8-.8 57.6 57.6 0 0 1-19-4l-5.6-1.8c-4-1.1-4.5-1.9-5.2-3-.5-.9-1.2-2-2.7-3.2l-1.3-1.1.2-.2a3 3 0 0 0 .5-4L18 91l-1.3-2a7 7 0 0 1 2.5-4.9 3 3 0 0 0 0-4.5c-1.2-1-2.3-2-3-3.1-.5-.7-.9-3.5-1-4.8l-.5-3.3c-.3-1.1-.5-2.2-.5-3.3v-.6a3 3 0 0 0 .4-2v-.2a11 11 0 0 1 3.7-3.3 3 3 0 0 0 1-.9c.4 0 .8-.2 1.2-.4l.2-.1a3 3 0 0 0 1-4.4c-1-1.2-1.6-2.4-2.2-3.6.4-1.4 1-2.6 2-3.3 3.5-2.8 8-4.9 11.5-6.5a65 65 0 0 1 14.8-5.1c1.3-.8 2.6-1.6 3.8-2a3 3 0 0 0 1.4-1 3 3 0 0 0 1-2.3c.8-5 4.5-7.6 8.3-8.9m6.4-4.2c-14.8.7-17.3 9.5-17.7 13l-.3.3v.1c-1.6.5-3.1 1.5-4.6 2.4-5 1-9.8 2.7-14.4 4.9-4.2 2-8.5 4-12.2 6.9a9.5 9.5 0 0 0-3.2 6 25 25 0 0 0 2.8 5l-.2.2c-1-1.6-1.8-3.3-2.6-5.3a13 13 0 0 0 .4 6.5 13 13 0 0 0-5.2 5.4l.1 1.2-.4-1.2c.3.7-.2 2.6-.1 3.4 0 1.3.3 2.7.6 4 .5 2.2.5 7.3 2 9.1a23 23 0 0 0 3.4 3.6 10.4 10.4 0 0 0-3.5 7.3v.5c-.3 5.6.4 7 3.5 9.6 3.2 2.7 1.5 4.7 9 6.8s13 5.4 25.3 6c7.5.2 13.9 1.5 20.2 1.5 4.1 0 8.2-.6 12.4-2.1 11-4.1 19.3-5.4 23.6-8.6 3.5-2.6 8.5-11.3 6.7-16-.3-1-1-1.8-1.9-2.6-.8-.6-2.3-1.4-4.3-2.3a8 8 0 0 0 2-2.3c2.4-3.5 2.1-7 1.6-11v-.4l-1-2.7c2-2.2 3.1-4.7 3.3-7.2.2-2.7.5-5-.3-7.1-.7-1.9-2-3.7-5-5.7-6.2-4.4-9.7-5.8-13.4-8.2-3.4-2.1-7.6-3.2-11.4-4.2h-.4V32c-.6-4.1-11.8-6-16.8-8.6-4.2-2.2.8-5.8 2.5-7-.7 0-1.3.2-2 .3l1.4-.5zM16 93.4l-.8-.8a17 17 0 0 1-1.5-2.6l2.3 3.4zm53.2-77z" fill="#424242" opacity=".2"/></svg>