<svg viewBox="0 0 128 128" xmlns="http://www.w3.org/2000/svg"><radialGradient id="a" cx="45" cy="56.7" r="71.8" gradientTransform="matrix(1.0131 -.00624 -.00624 1.003 .5 -.3)" gradientUnits="userSpaceOnUse"><stop stop-color="#22B511" offset="0"/><stop stop-color="#45590E" offset="1"/></radialGradient><path d="M6 99.3c5.8 12.4 16.2 11.9 27.2 11.3 5-.2 10.8-.5 17.3.2 28.2 3 52.7-5.7 65.5-23.4a40.6 40.6 0 0 0 3.9-42.4 40.6 40.6 0 0 0-35.4-23.6c-21.8-1.2-44 12.2-59.4 36-3.5 5.5-7.4 9.8-10.8 13.6C7 79.2 0 86.9 6 99.3z" fill="url(#a)"/><path d="M81.8 24.3h2.5c14.6.9 26.6 8.9 32.8 22s5 27.5-3.6 39.4c-10.4 14.4-29.4 22.6-52.1 22.6-3.5 0-7-.1-10.6-.5a82.7 82.7 0 0 0-17.8-.2l-6.4.2c-8.2 0-14-1.6-18-9.8-5-10.6.7-17 8-25 3.4-3.9 7.3-8.2 11-14C41.8 37.4 62 24.4 81.8 24.4m0-3C61 21.3 40 34.6 25.1 57.4c-3.5 5.5-7.4 9.8-10.8 13.6C7 79.2 0 86.9 6 99.3c4.7 9.9 12.3 11.5 20.7 11.5 2.2 0 4.4 0 6.6-.2 2.7-.1 5.6-.3 8.7-.3 2.7 0 5.6.2 8.6.5 3.7.4 7.3.6 10.9.6 23.5 0 43.4-8.6 54.5-24a40.6 40.6 0 0 0 4-42.4 40.6 40.6 0 0 0-38-23.7z" fill="#424242" opacity=".2"/><linearGradient id="b" x1="46.9" x2="97.2" y1="7.2" y2="119.9" gradientUnits="userSpaceOnUse"><stop stop-color="#5DB111" offset="0"/><stop stop-color="#45590E" offset="1"/></linearGradient><path d="M48.2 5.9c-12.7 5.3-12.7 15.5-12.7 26.4 0 5 0 10.7-1 17-4.6 27.7 2.9 52.2 19.8 65.5 12.2 9.6 27.6 11.7 42 5.6s23.8-18.5 25.5-34c2.3-21.4-10-43.8-32.9-60a104 104 0 0 1-13-11.1C68.3 7.7 61 .5 48.3 5.9z" fill="url(#b)"/><path d="M56.5 7c6.7 0 11.6 4.8 17.4 10.4 3.6 3.6 7.8 7.7 13.3 11.5 22 15.5 33.8 36.9 31.6 57.2a37.8 37.8 0 0 1-23.6 31.5 37.9 37.9 0 0 1-39-5.2C40 99.9 33 76.5 37.4 50c1-6.7 1-12.5 1-17.6.1-10.7.1-19.1 11-23.7 2.5-1 4.9-1.6 7.1-1.6m0-3A21 21 0 0 0 48.2 6c-12.7 5.3-12.7 15.5-12.7 26.4 0 5 0 10.7-1 17-4.6 27.7 2.9 52.2 19.8 65.5a40.7 40.7 0 0 0 42 5.6 40.7 40.7 0 0 0 25.4-34c2.4-21.4-9.9-43.8-32.8-60a104 104 0 0 1-13-11.1C70.2 9.5 64.5 4 56.6 4z" fill="#424242" opacity=".2"/><radialGradient id="c" cx="72.1" cy="66.4" r="56.5" gradientTransform="matrix(.9351 -.3543 .4556 1.2025 -25.6 12.1)" gradientUnits="userSpaceOnUse"><stop stop-color="#FFF9C4" offset="0"/><stop stop-color="#FCF7BD" offset=".1"/><stop stop-color="#F3F0AB" offset=".4"/><stop stop-color="#E4E58D" offset=".6"/><stop stop-color="#CFD663" offset=".9"/><stop stop-color="#C9D156" offset=".9"/><stop stop-color="#C9D13B" offset="1"/></radialGradient><path d="M49.7 9.5c-10.6 4.5-10.3 14-9.9 24 .2 4.6.3 9.8-.3 15.7-2.9 25.3 4.3 48 19.2 61 10.8 9.2 24 11.6 36.1 6.5s19.6-16.2 20.5-30.4c1.3-19.6-10-40.7-30-56.4-4.7-3.6-8.3-7.4-11.5-10.7-7-7.3-13.5-14.1-24-9.7z" fill="url(#c)"/><path d="M94.6 64.6C88.9 55 74.8 44.6 66.2 48c-8.2 3.2-12.3 16.3-10 27.2 3.2 14.6 17.8 24.1 28.5 20a20.8 20.8 0 0 0 9.9-30.5z" fill="#CCC465"/><radialGradient id="d" cx="70.3" cy="66.7" r="27.1" gradientUnits="userSpaceOnUse"><stop stop-color="#B37F58" offset="0"/><stop stop-color="#7E3600" offset="1"/></radialGradient><path d="M92.5 64.4C86.9 56 73.5 47.2 66 50.7c-7.2 3.2-10.3 15.2-7.7 25C62 88.7 75.5 96.6 85 92.3a18.8 18.8 0 0 0 7.5-28z" fill="url(#d)"/></svg>