<svg viewBox="0 0 128 128" xmlns="http://www.w3.org/2000/svg"><linearGradient id="a" x1="-344.9" x2="-344.9" y1="-191" y2="-134.9" gradientUnits="userSpaceOnUse"><stop stop-color="#eee" offset="0"/><stop stop-color="#EAEAEA" offset=".3"/><stop stop-color="#ddd" offset=".6"/><stop stop-color="#C8C8C8" offset=".9"/><stop stop-color="#BDBDBD" offset="1"/></linearGradient><path d="M-294-162.3l-5.8-27.4c-.5-2.2-2.2-3.8-4-3.8h-60.7c-.6 0-2.6 0-4.1 1.7-4.7 5.3-12.6 20.5-13.8 22 0 .2-6.3 2.4-9 4-1.2.7-1.8 2.2-2 3.7l-2.4 20.8c-.7 4 1.7 5.7 5.3 5.7h91.6c2.7 0 5-.7 5-5.7v-20.9z" fill="url(#a)"/><path d="M-285.3-204.7c.4 0 .9.6 1 1.4a10841.5 10841.5 0 0 1 6 28v19.8c0 2.8-.5 2.8-2.1 2.8H-372c-1.2 0-2-.3-2.2-.5s-.3-1-.2-1.8v-.1l2.5-20.9c.1-.8.4-1.3.5-1.3 1.9-1.2 5.8-2.7 7.5-3.4 1.5-.5 1.9-.7 2.4-1.3l3-5c2.8-5.1 7.6-13.5 10.6-17 .6-.6 1.2-.7 1.9-.7h60.7m0-3H-346c-.6 0-2.6 0-4 1.8-4.8 5.2-12.6 20.5-13.9 22 0 .1-6.2 2.3-9 4-1.2.7-1.8 2.1-2 3.6l-2.4 20.8c-.6 4.1 1.7 5.8 5.4 5.8h91.5c2.8 0 5-.8 5-5.8v-21l-6-27.4c-.4-2.2-2-3.8-4-3.8z" fill="#424242" opacity=".2"/><path d="M-172.7-5.3c0 4.2-3.8 7.6-8.5 7.6s-7.5-3.5-7.5-7.7 2.8-7.5 7.5-7.5 8.5 3.4 8.5 7.6zm106 0c0 4.2-3.8 7.6-8.5 7.6s-13-3.3-13-7.5 5.3-6.7 10-6.7 11.5 2.4 11.5 6.6z" fill="#ffd"/><linearGradient id="b" x1="-228.9" x2="-228.9" y1="-215.8" y2="-159.7" gradientUnits="userSpaceOnUse"><stop stop-color="#616161" offset="0"/><stop stop-color="#5D5D5D" offset=".2"/><stop stop-color="#505050" offset=".5"/><stop stop-color="#3B3B3B" offset=".8"/><stop stop-color="#212121" offset="1"/></linearGradient><path d="M-178-187.3l-5.9-27.4c-.4-2.2-2-3.7-4-3.7h-60.6c-.6 0-2.6 0-4.1 1.7-4.7 5.3-12.6 20.5-13.8 22 0 .1-6.3 2.3-9 4-1.2.7-1.8 2.2-2 3.7l-2.4 20.8c-.7 4 1.7 5.8 5.3 5.8h91.5c2.8 0 5.1-.8 5.1-5.8v-21.1z" fill="url(#b)"/><path d="M-187.8-215.4c.3 0 .8.5 1 1.4a9974 9974 0 0 1 6 28v19.8c0 2.8-.6 2.8-2.2 2.8h-91.5c-1.3 0-2-.3-2.2-.6s-.3-1-.2-1.8l2.5-21c0-.7.4-1.2.5-1.3 1.8-1 5.8-2.6 7.5-3.3 1.4-.6 1.8-.7 2.4-1.4.5-.6 1.2-2 3-5a130 130 0 0 1 10.6-16.9c.6-.6 1.2-.7 1.9-.7h60.7m0-3h-60.7c-.7 0-2.6 0-4.1 1.7-4.7 5.3-12.6 20.5-13.8 22 0 .1-6.3 2.3-9 4-1.2.7-1.8 2.2-2 3.7l-2.4 20.8c-.7 4 1.7 5.8 5.3 5.8h91.6c2.8 0 5-.8 5-5.8v-21.1l-6-27.4c-.4-2.2-2-3.7-4-3.7z" fill="#eee" opacity=".2"/><linearGradient id="c" x1="-128.9" x2="-128.9" y1="-23.3" y2="-2.8" gradientUnits="userSpaceOnUse"><stop stop-color="#F5BE87" offset="0"/><stop stop-color="#EBB27B" offset=".3"/><stop stop-color="#D0945D" offset=".8"/><stop stop-color="#C78A53" offset="1"/></linearGradient><path d="M-151.7-14.1s8.3-7.5 25.8-8.1 19.9 4 19.9 4v10.5S-134.7-13-148.1.4l-3.6-14.5z" fill="url(#c)"/><ellipse transform="rotate(-25.6 -81 -41)" cx="-81" cy="-41.1" rx="2" ry=".9" fill="#FFFEC2"/><path d="M-123.5-31.2l-9.2-.5c-1.9-2-5.2-3.2-9-3.2-4.8 0-8.8 2-10.1 4.7a176.8 176.8 0 0 0-3.1.7c-1-.5-2-.8-3.1-.8a5.6 5.6 0 0 0-5.3 3.4l-.8.4a5.2 5.2 0 0 0-6.6 3l-1.6 1a7 7 0 0 0-5 3.1l-2.3 1.8c-3.7.2-6.7 3-6.7 6.4 0 .7.1 1.3.3 1.9-.3 1-.4 2-.3 3a27.5 27.5 0 0 0 3.6 11.7 37 37 0 0 0 10 4.8c1.4 2.3 4.4 3.9 8 3.9 1.3 0 2.7-.3 3.8-.7 1.6 1.8 4.2 3 7.3 3 2 0 3.8-.5 5.3-1.4l.8.1a7.5 7.5 0 0 0 6.2 1.1c1.2 2 3.5 3.2 6 3.2s4.7-1.2 6-2.9h.5a7.5 7.5 0 0 0 9.4 0c3.3 0 6.5 0 9.6-.3 1.4.7 3 1.1 4.9 1.1 2.7 0 5.2-1 6.8-2.5 11-1.9 19.9-5.2 24.7-10.3 13.9-14.8-10.3-33.6-50-35.7zm12.7 22.3c0 2.8-5.4 4.1-12.6 4.5h-1.3a7.5 7.5 0 0 0-7.8-1 7.2 7.2 0 0 0-6.5-3.8c-2.2 0-4.2.9-5.5 2.3l-.4-.3c-.5-.5-.8-1-.8-1.7 0-.6.3-1.2.7-1.8l1.2.1c2.8 0 5.3-1.5 6.4-3.7h.5a43 43 0 0 1 8.7-1c9.6 0 17.4 2.9 17.4 6.4z" fill="#FFFFE7"/><linearGradient id="d" x1="-127.1" x2="-127.1" y1="9.6" y2="34.4" gradientUnits="userSpaceOnUse"><stop stop-color="#F5BE87" offset="0"/><stop stop-color="#ECB37B" offset=".3"/><stop stop-color="#D4965D" offset=".9"/><stop stop-color="#CF9056" offset="1"/></linearGradient><path d="M-183.3.2s-1.3 27.6 30.8 32.9C-89.8 43.3-71.8 17.7-71-1.1c-30.2 16-107.2 3.4-112.3 1.3z" fill="url(#d)"/><path d="M-124.2-32.3s-4.2-.4-9.2-.5a12.9 12.9 0 0 0-9-3.1c-4.8 0-8.8 2-10 4.6-.6 0-1 .2-1.5.3l-1.7.4a6 6 0 0 0-3-.9A5.5 5.5 0 0 0-164-28c-.3 0-.5.2-.8.3l-1.6-.2a5.2 5.2 0 0 0-5 3.2l-1.6.8a7 7 0 0 0-5 3.2c-.9.5-1.6 1-2.4 1.7-3.6.1-6.6 2.9-6.6 6.2 0 .7.1 1.3.3 1.8a8 8 0 0 0-.3 3 26.2 26.2 0 0 0 3.6 11.3 22 22 0 0 0 7.9 4.9c1.3 2.2 6.5 3.5 10 3.5a11 11 0 0 0 3.9-.6c1.5 1.7 4.2 3 7.3 3 2 0 3.8-.6 5.3-1.4h.8a7.7 7.7 0 0 0 6.1 1.1 7.3 7.3 0 0 0 6.1 3.1c2.5 0 4.6-1.1 6-2.8h.5a7.6 7.6 0 0 0 9.4 0c3.2 0 6.4 0 9.6-.3 1.4.7 3 1 4.8 1 2.8 0 5.2-.9 6.8-2.4 11-1.8 19.9-5 24.7-10 13.9-14.3-10.3-32.6-50-34.6z" fill="#ffd"/><path d="M-110.8-9c0 3-5.4 4.2-12.6 4.6h-1.3a7.5 7.5 0 0 0-7.8-1 7.2 7.2 0 0 0-6.5-3.8c-2.2 0-4.2.9-5.5 2.3l-.4-.3c-.5-.5-.8-1-.8-1.7 0-.6.3-1.2.7-1.8l1.2.1c2.8 0 5.3-1.5 6.4-3.7h.5a43 43 0 0 1 8.7-1c9.6 0 17.4 2.9 17.4 6.4z" fill="none" opacity=".2"/><path d="M-99.3 10.6c0 3.6-5.6 6-10.4 6s-7-2.4-7-6 4-6.6 8.7-6.6 8.7 3 8.7 6.6z" fill="#ffd"/><path d="M-112.1 12.7c0 3.1-3.9 4.4-8.6 4.4s-8.5-1.3-8.5-4.4 3.9-5.5 8.6-5.5 8.5 2.5 8.5 5.5z" fill="#ffd"/><ellipse cx="-131.1" cy="11" rx="8.5" ry="5.6" fill="#ffd"/><ellipse cx="-174.6" cy="2.4" rx="8.5" ry="5.6" fill="#ffd"/><path d="M-89.7 4.7c1.6 3.3-.9 6-5.2 8.1s-8.9 2.6-10.4-.7.7-7.6 5-9.6 9-1 10.6 2.2z" fill="#ffd"/><ellipse transform="rotate(-25.3 -88 5.2)" cx="-88" cy="5.2" rx="8.7" ry="6.6" fill="#ffd"/><ellipse transform="rotate(-25.3 -81.5 2)" cx="-81.5" cy="1.9" rx="8.7" ry="6.6" fill="#ffd"/><radialGradient id="e" cx="-78.9" cy="-153.8" r="80.9" gradientTransform="rotate(-32.6 82.3 60.3)" gradientUnits="userSpaceOnUse"><stop stop-color="#FFD1A3" offset="0"/><stop stop-color="#FAC897" offset=".2"/><stop stop-color="#EEB179" offset=".7"/><stop stop-color="#E39E5F" offset="1"/></radialGradient><path d="M-144-56.2c-33.2 1.5-51.5 31.4-40.8 45.7a49 49 0 0 0 34.2 18.3c25.2 2.3 53.4 2.6 74.1-14.6 3.2-2.6 6-6 7.2-10 2.1-7-1.3-14.3-5.7-19.7-15.9-19.5-39.3-21-69-19.7z" fill="url(#e)"/><path d="M-111.6-32.5c.3 4.3-34.2 4.3-32.4-1.4 1-3 9.1-6.2 15.8-6 10.9.6 16.3 4.3 16.6 7.4z" fill="#D69062" opacity=".5"/><path d="M-151.2-38.1c.3 1 1 1.8 1.7 2.4A45.7 45.7 0 0 0-141-32l3 .8 3 .5a41.3 41.3 0 0 0 12.2 0c2-.1 4-.6 6-1l3-1 1.4-.5 1.4-.6c1-.4 2-.8 2.7-1.4.3-.3.6-.7.7-1.2.2-.5.2-1-.1-1.5.4.4.5 1 .5 1.6 0 .5-.2 1.1-.6 1.6-.7 1-1.7 1.5-2.5 2a33.5 33.5 0 0 1-18.6 5.2 35.8 35.8 0 0 1-18.5-5.4c-.9-.6-1.8-1.3-2.5-2.1a4.6 4.6 0 0 1-1.2-3z" fill="#B77B54"/><ellipse transform="rotate(-32.6 -166.8 -35)" cx="-166.8" cy="-35.1" rx="2.3" ry="1" fill="#FFFEC2"/><ellipse transform="rotate(-87.9 -165.6 -24)" cx="-165.6" cy="-24" rx="1.7" ry=".8" fill="#FFFEC2"/><ellipse transform="rotate(-87.9 -151.4 -15)" cx="-151.4" cy="-14.9" rx="1.7" ry=".8" fill="#FFFEC2"/><ellipse transform="rotate(-82.9 -156 -21.2)" cx="-156" cy="-21.1" rx=".8" ry="1.8" fill="#FFFEC2"/><ellipse transform="rotate(-82.9 -163.5 -16.4)" cx="-163.5" cy="-16.4" rx=".8" ry="1.8" fill="#FFFEC2"/><ellipse transform="rotate(-43.8 -144 -17.2)" cx="-144" cy="-17.2" rx=".7" ry="1.7" fill="#FFFEC2"/><ellipse transform="rotate(-50.4 -149.8 -25.3)" cx="-149.7" cy="-25.3" rx=".8" ry="1.8" fill="#FFFEC2"/><ellipse transform="rotate(-87.9 -125.7 -12.1)" cx="-125.7" cy="-12.1" rx="1.7" ry=".8" fill="#FFFEC2"/><ellipse transform="rotate(-82.9 -117.7 -11)" cx="-117.7" cy="-10.9" rx=".8" ry="1.8" fill="#FFFEC2"/><ellipse transform="rotate(-50.4 -110 -13.4)" cx="-109.9" cy="-13.4" rx=".8" ry="1.8" fill="#FFFEC2"/><ellipse transform="rotate(-50.4 -98.4 -15)" cx="-98.4" cy="-14.9" rx=".8" ry="1.8" fill="#FFFEC2"/><ellipse transform="rotate(-83.7 -143.7 -24.2)" cx="-143.7" cy="-24.2" rx="1.8" ry=".8" fill="#FFFEC2"/><ellipse transform="rotate(-2.6 -152.4 -30.2)" cx="-152.3" cy="-30.3" rx="1.8" ry=".8" fill="#FFFEC2"/><ellipse transform="rotate(-2.6 -171.2 -28.6)" cx="-171.2" cy="-28.7" rx="1.8" ry=".8" fill="#FFFEC2"/><ellipse transform="rotate(-87.9 -161 -31)" cx="-160.9" cy="-31.1" rx="1.9" ry=".9" fill="#FFFEC2"/><ellipse transform="rotate(-87.9 -157.6 -43.4)" cx="-157.6" cy="-43.4" rx="2.3" ry="1" fill="#FFFEC2"/><ellipse transform="rotate(-57.6 -141.6 -41.6)" cx="-141.6" cy="-41.6" rx="1" ry="2.3" fill="#FFFEC2"/><ellipse transform="rotate(-71.2 -147.4 -40.5)" cx="-147.4" cy="-40.5" rx="1.5" ry=".7" fill="#FFFEC2"/><ellipse transform="rotate(-2.6 -119.2 -44.4)" cx="-119.1" cy="-44.4" rx="2.3" ry="1" fill="#FFFEC2"/><ellipse transform="rotate(-66.7 -105.3 -42.2)" cx="-105.3" cy="-42.2" rx="1" ry="2.3" fill="#FFFEC2"/><ellipse transform="rotate(-66.7 -92.3 -39.7)" cx="-92.3" cy="-39.7" rx="1" ry="2.3" fill="#FFFEC2"/><ellipse transform="rotate(-21.2 -108.1 -27.5)" cx="-108.1" cy="-27.5" rx="2.3" ry="1" fill="#FFFEC2"/><ellipse transform="rotate(-77.6 -100.5 -29.6)" cx="-100.5" cy="-29.6" rx="1.9" ry=".9" fill="#FFFEC2"/><ellipse transform="rotate(-67.1 -103.4 -35.6)" cx="-103.4" cy="-35.6" rx=".9" ry="1.9" fill="#FFFEC2"/><ellipse transform="rotate(-12.4 -133 -35.8)" cx="-132.9" cy="-35.8" rx=".7" ry="1.6" fill="#FFFEC2" opacity=".6"/><ellipse transform="rotate(-12.4 -131.7 -43.8)" cx="-131.7" cy="-43.8" rx=".7" ry="1.6" fill="#FFFEC2" opacity=".6"/><ellipse transform="rotate(-12.4 -112.7 -39)" cx="-112.7" cy="-38.9" rx=".8" ry="1.7" fill="#FFFEC2"/><ellipse transform="rotate(-46.5 -127.9 -36.6)" cx="-127.8" cy="-36.6" rx="1.7" ry=".8" fill="#FFFEC2" opacity=".6"/><ellipse transform="rotate(-1.4 -121.9 -34.3)" cx="-121.9" cy="-34.4" rx="1.7" ry=".8" fill="#FFFEC2" opacity=".6"/><ellipse transform="rotate(-42.9 -134.6 -16.2)" cx="-134.6" cy="-16.2" rx="1.6" ry=".7" fill="#FFFEC2"/><ellipse transform="rotate(-86.4 -135 -23.7)" cx="-134.9" cy="-23.7" rx="1" ry="2.3" fill="#FFFEC2"/><ellipse transform="rotate(-87.9 -121.8 -21.3)" cx="-121.8" cy="-21.3" rx="1.4" ry=".6" fill="#FFFEC2"/><ellipse transform="rotate(-60.5 -127.4 -23.7)" cx="-127.4" cy="-23.7" rx=".6" ry="1.4" fill="#FFFEC2"/><ellipse transform="rotate(-66.3 -110.8 -22.7)" cx="-110.8" cy="-22.7" rx=".7" ry="1.5" fill="#FFFEC2"/><ellipse transform="rotate(-66.3 -88.3 -23)" cx="-88.3" cy="-23" rx=".7" ry="1.5" fill="#FFFEC2"/><ellipse transform="rotate(-77.6 -117.6 -23.6)" cx="-117.6" cy="-23.6" rx=".7" ry="1.5" fill="#FFFEC2"/><ellipse transform="rotate(-85 -97.5 -20.3)" cx="-97.5" cy="-20.3" rx=".7" ry="1.6" fill="#FFFEC2"/><ellipse transform="rotate(-85 -95.5 -32.3)" cx="-95.5" cy="-32.3" rx=".7" ry="1.6" fill="#FFFEC2"/><ellipse transform="rotate(-66.9 -104.7 -16.7)" cx="-104.7" cy="-16.7" rx="1.1" ry=".5" fill="#FFFEC2"/><ellipse transform="rotate(-25.1 -89.2 -30.2)" cx="-89.2" cy="-30.2" rx=".9" ry="1.9" fill="#FFFEC2"/><ellipse transform="rotate(-25.1 -94.4 -25.2)" cx="-94.4" cy="-25.2" rx=".9" ry="1.9" fill="#FFFEC2"/><ellipse transform="rotate(-39.8 -117 -16.6)" cx="-117" cy="-16.6" rx="1.5" ry=".7" fill="#FFFEC2"/><ellipse cx="-182.2" cy="1.1" rx="4.5" ry="4.8" fill="#ffd"/><path d="M-68.7-3c0 2.7-.7 6-3.2 6s-4.5-2-4.5-4.7 2-4.7 4.5-4.7 3.2.9 3.2 3.5z" fill="#ffd"/><path d="M-84 88.8c22.7 0 37 4.1 47.5 13.6l.5.4.5.6c1.4 1.4 2.8 2.9 4 4.4 2.4 2.8 7.4 10 5.2 17a15 15 0 0 1-1.8 3.8 3 3 0 0 0 1.3 4.4c1.9.8 3 2.4 3 4.1a4 4 0 0 1-.4 1.9 3 3 0 0 0-.3 1.6v.2c0 .5-.2 1-.5 1.2a3 3 0 0 0-.8 1.8c0 1.4-1 2.8-2.6 3.9a3 3 0 0 0-1.1 1.5c-3.2 9.6-14 25.6-50.7 25.6-7.8 0-16.6-.8-26-2.3-18.1-3-24.7-13.5-27-21.8a3 3 0 0 0-1.6-1.9c-1-.5-1.6-1.1-1.7-1.7a3 3 0 0 0-.7-2.3c-.4-.3-.5-.8-.5-1.2v-.3c.1-1-.3-2-1.2-2.7a4.3 4.3 0 0 1-1.8-3.5c0-1.4.7-2.7 2-3.6a3 3 0 0 0 1.4-2.4l.1-.6a3 3 0 0 0-.2-2c-2.5-4.9-1.7-11.7 2.1-18.3a45 45 0 0 1 37.3-21c5.4-.3 9.9-.4 14-.4m0-3c-4.5 0-9.3.2-14.2.4-31.5 1.5-49.6 28.7-42 43.6a6 6 0 0 0 0 1.2 7.4 7.4 0 0 0-3.5 6.1c0 2.4 1.2 4.5 3 5.9v.5c0 1.3.5 2.5 1.2 3.3v.3c0 1.8 1.3 3.4 3.4 4.4 2.4 8.6 9.3 20.7 29.5 24 9.9 1.6 18.7 2.3 26.4 2.3 34.2 0 49-14 53.5-27.7a8.5 8.5 0 0 0 4-6c.7-.9 1.2-2 1.2-3.3v-.5c.5-1 .8-2 .8-3.2 0-3-2-5.6-4.9-6.8 1-1.5 1.7-3 2.2-4.6 2.2-7-1.3-14.4-5.7-19.8a52.7 52.7 0 0 0-4.3-4.7c.2-.3.2-.5.1-.7 0-.2-.3-.3-.7-.3h-.5C-47.3 88.7-63.9 85.8-84 85.8z" fill="#424242" opacity=".2"/><path d="M19.7 69.3c0 4.2-3.8 7.6-8.5 7.6s-7.9-6-7.9-10.3 1.3-7.7 6-7.7 10.4 6.2 10.4 10.4zm105-2c0 4.2-2.8 9.6-7.5 9.6s-13-3.3-13-7.5 4.4-10.8 9.1-10.8 11.4 4.5 11.4 8.7z" fill="#ffd"/><linearGradient id="f" x1="63.4" x2="63.4" y1="51.3" y2="71.8" gradientUnits="userSpaceOnUse"><stop stop-color="#F5BE87" offset="0"/><stop stop-color="#EBB27B" offset=".3"/><stop stop-color="#D0945D" offset=".8"/><stop stop-color="#C78A53" offset="1"/></linearGradient><path d="M40.6 60.5s8.3-7.5 25.8-8.1 19.9 4 19.9 4V67s-28.6-5.2-42 8.1l-3.7-14.5z" fill="url(#f)"/><path d="M68.9 43.4s-4.2-.4-9.3-.5c-1.8-2-5.2-3.2-9-3.2-4.8 0-8.8 2-10 4.7a176.8 176.8 0 0 0-3.2.7c-.9-.5-2-.8-3-.8a5.6 5.6 0 0 0-5.3 3.4l-.8.3-1.6-.2a5.2 5.2 0 0 0-5 3.3l-1.6.9a7 7 0 0 0-5.1 3.2L12.7 57c-3.7.2-6.6 3-6.6 6.4 0 .7 0 1.3.3 1.9-.3 1-.4 2-.3 3A27.5 27.5 0 0 0 9.7 80a37 37 0 0 0 10 4.8c1.4 2.3 4.4 3.9 7.9 3.9 1.4 0 2.7-.3 3.9-.7 1.5 1.8 4.2 3 7.2 3 2 0 3.9-.5 5.4-1.4l.8.1a7.5 7.5 0 0 0 6.1 1c1.3 2 3.5 3.3 6.1 3.3 2.5 0 4.6-1.2 6-2.9h.4a8 8 0 0 0 4.8 1.7c1.8 0 3.4-.6 4.6-1.6 3.3 0 6.5-.2 9.7-.4 1.4.7 3 1.1 4.8 1.1 2.8 0 5.2-1 6.8-2.5 11-1.9 20-5.2 24.7-10.3 14-14.8-10.3-33.6-50-35.7zm12.7 22.3c0 2.8-5.4 4.1-12.7 4.5h-1.3a7.5 7.5 0 0 0-7.8-1 7.2 7.2 0 0 0-6.5-3.8c-2.2 0-4.1.9-5.5 2.3l-.3-.3c-.5-.5-.8-1-.8-1.7 0-.6.2-1.2.7-1.8l1.1.1c2.9 0 5.3-1.5 6.5-3.7h.4a43 43 0 0 1 8.7-1c9.7 0 17.5 2.9 17.5 6.4z" fill="#FFFFE7"/><linearGradient id="g" x1="65.2" x2="65.2" y1="84.2" y2="109" gradientUnits="userSpaceOnUse"><stop stop-color="#F5BE87" offset="0"/><stop stop-color="#ECB37B" offset=".3"/><stop stop-color="#D4965D" offset=".9"/><stop stop-color="#CF9056" offset="1"/></linearGradient><path d="M9 74.8s-1.3 27.6 30.8 32.9c62.8 10.2 80.7-15.4 81.6-34.2C91 89.5 14 76.9 9 74.8z" fill="url(#g)"/><path d="M68.2 42.3s-4.2-.4-9.3-.5a12.9 12.9 0 0 0-9-3.1c-4.7 0-8.7 2-10 4.6l-1.5.3-1.7.4a6 6 0 0 0-3-.9 5.5 5.5 0 0 0-5.3 3.4l-.8.3-1.6-.2a5.2 5.2 0 0 0-5 3.2l-1.5.8a7 7 0 0 0-5.1 3.2c-.8.5-1.6 1-2.3 1.7-3.7.1-6.6 2.9-6.6 6.2 0 .7 0 1.3.3 1.8a8 8 0 0 0-.3 3A26.2 26.2 0 0 0 9 77.8c1.3 1.3 4.2 3.5 8 4.9 1.3 2.2 6.5 3.5 10 3.5a11 11 0 0 0 3.8-.6c1.6 1.7 4.3 3 7.3 3 2 0 3.9-.6 5.3-1.4h.9a7.7 7.7 0 0 0 6 1.1c1.3 1.9 2.4.6 5 .6 2.5 0 5.8 1.4 7-.3h.6a8 8 0 0 0 4.7 1.7c1.8 0 3.4-.6 4.7-1.6 3.2 0 6.5-.2 9.6-.4 1.4.7 3 1 4.8 1 2.8 0 5.2-.9 6.8-2.4 11-1.8 19.9-5 24.7-10 14-14.3-10.3-32.6-50-34.6z" fill="#ffd"/><path d="M81.6 65.7c0 2.8-5.4 4.1-12.7 4.5h-1.3a7.5 7.5 0 0 0-7.8-1 7.2 7.2 0 0 0-6.5-3.8c-2.2 0-4.1.9-5.5 2.3l-.3-.3c-.5-.5-.8-1-.8-1.7 0-.6.2-1.2.7-1.8l1.1.1c2.9 0 5.3-1.5 6.5-3.7h.4a43 43 0 0 1 8.7-1c9.7 0 17.5 2.9 17.5 6.4z" fill="none" opacity=".2"/><path d="M93 85.2c0 3.6-5.6 6-10.3 6s-7-2.4-7-6 3.8-6.6 8.6-6.6 8.7 3 8.7 6.6z" fill="#ffd"/><path d="M80.2 87.3c0 3.1-3.8 4.4-8.5 4.4s-8.5-1.3-8.5-4.4 3.8-5.5 8.5-5.5 8.5 2.5 8.5 5.5z" fill="#ffd"/><ellipse cx="17.7" cy="77" rx="8.5" ry="5.6" fill="#ffd"/><path d="M102.7 79.3c1.5 3.3-1 6-5.3 8.1S88.6 90 87 86.7s.7-7.6 5-9.7c4.3-2 9.1-1 10.7 2.3z" fill="#ffd"/><ellipse transform="rotate(-25.3 104.3 79.8)" cx="104.3" cy="79.8" rx="8.7" ry="6.6" fill="#ffd"/><ellipse transform="rotate(-25.3 110.8 76.5)" cx="110.8" cy="76.5" rx="8.7" ry="6.6" fill="#ffd"/><radialGradient id="h" cx="43" cy="12.6" r="80.9" gradientTransform="rotate(-32.6 82.3 60.3)" gradientUnits="userSpaceOnUse"><stop stop-color="#FFD1A3" offset="0"/><stop stop-color="#FAC897" offset=".2"/><stop stop-color="#EEB179" offset=".7"/><stop stop-color="#E39E5F" offset="1"/></radialGradient><path d="M48.2 18.4C15.2 19.9-3.2 49.8 7.6 64a49.1 49.1 0 0 0 34.1 18.4C67 84.7 95.2 85 115.9 67.8c3.1-2.6 5.9-6 7.1-10 2.2-7-1.3-14.3-5.7-19.7C101.4 18.6 78 17 48.3 18.4z" fill="url(#h)"/><path d="M80.7 42.1c.3 4.3-34.1 4.3-32.3-1.4 1-3 9-6.2 15.8-6 10.8.5 16.2 4.3 16.5 7.4z" fill="#D69062" opacity=".5"/><path d="M41.1 36.5c.3 1 1 1.8 1.8 2.4.8.6 1.7 1.1 2.6 1.5 1.9.8 3.8 1.6 5.8 2.1l3 .8 3 .5a41.3 41.3 0 0 0 12.1 0c2-.1 4-.6 6-1l3-1 1.4-.5 1.5-.6c1-.4 1.9-.8 2.6-1.4.3-.3.6-.7.7-1.2.2-.5.2-1 0-1.5.3.4.5 1 .4 1.6 0 .5-.2 1.1-.6 1.6-.7 1-1.6 1.5-2.5 2A33.5 33.5 0 0 1 63.3 47a35.8 35.8 0 0 1-18.5-5.4c-.9-.6-1.8-1.3-2.5-2.1s-1.2-2-1.2-3z" fill="#B77B54"/><ellipse transform="rotate(-32.6 25.5 39.5)" cx="25.5" cy="39.5" rx="2.3" ry="1" fill="#FFFEC2"/><ellipse transform="rotate(-87.9 26.8 50.6)" cx="26.8" cy="50.6" rx="1.7" ry=".8" fill="#FFFEC2"/><ellipse transform="rotate(-87.9 41 59.7)" cx="40.9" cy="59.7" rx="1.7" ry=".8" fill="#FFFEC2"/><ellipse transform="rotate(-82.9 36.4 53.4)" cx="36.4" cy="53.4" rx=".8" ry="1.8" fill="#FFFEC2"/><ellipse transform="rotate(-82.9 28.8 58.2)" cx="28.8" cy="58.2" rx=".8" ry="1.8" fill="#FFFEC2"/><ellipse transform="rotate(-43.8 48.3 57.4)" cx="48.3" cy="57.4" rx=".7" ry="1.7" fill="#FFFEC2"/><ellipse transform="rotate(-50.4 42.6 49.3)" cx="42.6" cy="49.3" rx=".8" ry="1.8" fill="#FFFEC2"/><ellipse transform="rotate(-87.9 66.6 62.5)" cx="66.6" cy="62.5" rx="1.7" ry=".8" fill="#FFFEC2"/><ellipse transform="rotate(-82.9 74.7 63.7)" cx="74.7" cy="63.7" rx=".8" ry="1.8" fill="#FFFEC2"/><ellipse transform="rotate(-50.4 82.4 61.2)" cx="82.4" cy="61.2" rx=".8" ry="1.8" fill="#FFFEC2"/><ellipse transform="rotate(-50.4 94 59.7)" cx="93.9" cy="59.7" rx=".8" ry="1.8" fill="#FFFEC2"/><ellipse transform="rotate(-83.7 48.6 50.4)" cx="48.6" cy="50.4" rx="1.8" ry=".8" fill="#FFFEC2"/><ellipse transform="rotate(-2.6 40 44.3)" cx="40" cy="44.3" rx="1.8" ry=".8" fill="#FFFEC2"/><ellipse transform="rotate(-2.6 21.2 46)" cx="21.2" cy="45.9" rx="1.8" ry=".8" fill="#FFFEC2"/><ellipse transform="rotate(-87.9 31.4 43.5)" cx="31.4" cy="43.5" rx="1.9" ry=".9" fill="#FFFEC2"/><ellipse transform="rotate(-87.9 34.7 31.2)" cx="34.7" cy="31.2" rx="2.3" ry="1" fill="#FFFEC2"/><ellipse transform="rotate(-57.6 50.7 33)" cx="50.7" cy="33" rx="1" ry="2.3" fill="#FFFEC2"/><ellipse transform="rotate(-71.2 45 34)" cx="44.9" cy="34" rx="1.5" ry=".7" fill="#FFFEC2"/><ellipse transform="rotate(-2.6 73.2 30.2)" cx="73.2" cy="30.2" rx="2.3" ry="1" fill="#FFFEC2"/><ellipse transform="rotate(-66.7 87 32.4)" cx="87.1" cy="32.4" rx="1" ry="2.3" fill="#FFFEC2"/><ellipse transform="rotate(-66.7 100 34.9)" cx="100" cy="34.9" rx="1" ry="2.3" fill="#FFFEC2"/><ellipse transform="rotate(-21.2 84.2 47.1)" cx="84.2" cy="47.1" rx="2.3" ry="1" fill="#FFFEC2"/><ellipse transform="rotate(-77.6 91.8 45)" cx="91.8" cy="45" rx="1.9" ry=".9" fill="#FFFEC2"/><ellipse transform="rotate(-67.1 88.9 39)" cx="88.9" cy="39" rx=".9" ry="1.9" fill="#FFFEC2"/><ellipse transform="rotate(-12.4 59.4 38.8)" cx="59.4" cy="38.8" rx=".7" ry="1.6" fill="#FFFEC2" opacity=".6"/><ellipse transform="rotate(-12.4 60.6 30.8)" cx="60.6" cy="30.8" rx=".7" ry="1.6" fill="#FFFEC2" opacity=".6"/><ellipse transform="rotate(-12.4 79.7 35.7)" cx="79.7" cy="35.7" rx=".8" ry="1.7" fill="#FFFEC2"/><ellipse transform="rotate(-46.5 64.5 38)" cx="64.5" cy="38" rx="1.7" ry=".8" fill="#FFFEC2" opacity=".6"/><ellipse transform="rotate(-1.4 70.5 40.1)" cx="70.5" cy="40.2" rx="1.7" ry=".8" fill="#FFFEC2" opacity=".6"/><ellipse transform="rotate(-42.9 57.8 58.4)" cx="57.8" cy="58.4" rx="1.6" ry=".7" fill="#FFFEC2"/><ellipse transform="rotate(-86.4 57.4 51)" cx="57.4" cy="50.9" rx="1" ry="2.3" fill="#FFFEC2"/><ellipse transform="rotate(-87.9 70.5 53.3)" cx="70.5" cy="53.3" rx="1.4" ry=".6" fill="#FFFEC2"/><ellipse transform="rotate(-60.5 65 51)" cx="65" cy="50.9" rx=".6" ry="1.4" fill="#FFFEC2"/><ellipse transform="rotate(-66.3 81.5 51.9)" cx="81.5" cy="51.9" rx=".7" ry="1.5" fill="#FFFEC2"/><ellipse transform="rotate(-66.3 104 51.6)" cx="104.1" cy="51.6" rx=".7" ry="1.5" fill="#FFFEC2"/><ellipse transform="rotate(-77.6 74.8 51)" cx="74.8" cy="51" rx=".7" ry="1.5" fill="#FFFEC2"/><ellipse transform="rotate(-85 94.8 54.3)" cx="94.8" cy="54.3" rx=".7" ry="1.6" fill="#FFFEC2"/><ellipse transform="rotate(-85 96.8 42.3)" cx="96.8" cy="42.3" rx=".7" ry="1.6" fill="#FFFEC2"/><ellipse transform="rotate(-66.9 87.7 58)" cx="87.7" cy="57.9" rx="1.1" ry=".5" fill="#FFFEC2"/><ellipse transform="rotate(-25.1 103.1 44.4)" cx="103.1" cy="44.4" rx=".9" ry="1.9" fill="#FFFEC2"/><ellipse transform="rotate(-25.1 98 49.4)" cx="97.9" cy="49.4" rx=".9" ry="1.9" fill="#FFFEC2"/><ellipse transform="rotate(-39.8 75.3 58)" cx="75.3" cy="58" rx="1.5" ry=".7" fill="#FFFEC2"/><ellipse cx="10.2" cy="75.7" rx="4.5" ry="4.8" fill="#ffd"/><path d="M123.7 71.7c0 2.6-.8 6-3.3 6s-4.5-2.1-4.5-4.8 2-4.7 4.5-4.7 3.3.9 3.3 3.5z" fill="#ffd"/><ellipse transform="rotate(-60 13.7 72.4)" cx="13.7" cy="72.4" rx="3.3" ry="6.5" fill="#ffd"/><ellipse transform="rotate(-87.3 20.4 77.4)" cx="20.4" cy="77.4" rx="3.3" ry="6.5" fill="#ffd"/><path d="M117.8 69.4c.6 1.7-1.6 4.1-5 5.4s-12.8 5.8-13.5 4.1 3.4-5.3 6.7-6.6c3.4-1.3 11-4.6 11.8-3z" fill="#ffd"/><path d="M123.5 66.7c.7 1.7-1.5 4.1-4.9 5.4-3.3 1.4-6.6 1-7.2-.6s-.7-3.6 2.7-4.9c3.3-1.3 8.8-1.5 9.4.1z" fill="#ffd"/><path d="M62.5 21c26.3 0 41.5 5.5 52.5 19 2.3 2.8 7.3 10 5.1 17-.3 1-.8 2.1-1.4 3.2a3 3 0 0 0 .7 3.9c1.6 1.2 2.3 2.5 2.3 3.2 0 1-.3 2.3-.8 3.4-.2.3-.2.7-.2 1.1 0 1.6-.4 2.6-.6 3a3 3 0 0 0-2.2 2.3c-1 5.6-4 13.5-12.8 20a66.7 66.7 0 0 1-38.9 9.9c-7.8 0-16.6-.8-26-2.3A34.3 34.3 0 0 1 19 93.8a29.5 29.5 0 0 1-6.4-14 3 3 0 0 0-2.5-2.4c-.8-.1-1.3-.8-1.3-1.7V75c.4-1 .3-2-.4-2.8a9.8 9.8 0 0 1-2-5.6c0-2 .4-3.6 1.1-4.1a3 3 0 0 0 .9-3.3C6.5 54 8 47 12.4 40.5a45.6 45.6 0 0 1 36-19.1c5.6-.3 10-.4 14.2-.4m0-3c-4.6 0-9.3.2-14.2.4C17.9 19.8 0 45 5.5 60.2c-1.6 1.3-2.2 3.7-2.2 6.4 0 2.3 1 5.3 2.7 7.4-.2.5-.3 1-.3 1.7 0 2.4 1.7 4.3 3.8 4.7 1.5 8.3 7.4 23.5 30.3 27.3 10 1.6 18.7 2.3 26.5 2.3 38 0 52-17.3 54.6-32.4 2-.4 2.8-3.3 2.8-5.7.6-1.5 1-3.2 1-4.6 0-2-1.4-4-3.4-5.6.7-1.2 1.3-2.5 1.7-3.8 2.2-7-1.3-14.4-5.7-19.8-13.2-16.3-31.7-20-54.8-20z" fill="#424242" opacity=".2"/></svg>