<svg viewBox="0 0 128 128" xmlns="http://www.w3.org/2000/svg"><linearGradient id="a" x1="28.5" x2="100" y1="88.5" y2="88.5" gradientUnits="userSpaceOnUse"><stop stop-color="#B63B3B" offset="0"/><stop stop-color="#D64449" offset=".9"/></linearGradient><path d="M77 77c-14 4-26 10-41 14a15 15 0 0 0-7.5 5.5c23.2 8.7 49.6 1 70.5-10.5l1-.4c-6.2-6.4-15-10-23-8.6z" fill="url(#a)"/><linearGradient id="b" x1="83.1" x2="121.7" y1="60" y2="60" gradientUnits="userSpaceOnUse"><stop stop-color="#9E3333" offset="0"/><stop stop-color="#D64449" offset=".9"/></linearGradient><path d="M121 46c-.7-2.9-2-5.7-2.2-9-16.1 7.8-40.5 16.8-34.8 33 2.4 6 10 11.1 19 13 9.7-10.4 21.8-21 18-37z" fill="url(#b)"/><path d="M120.3 36.4c-.7-1.2-1.4-2.3-2.3-3.3-7.8 8.4-22.6 11.5-32 16.9-9 5-7 19-17 26-14 8-28 12-43 11-2 0-5 0-8-1-4-1-7-4-9-7-2.5-5-2.7-10.1-1.5-15a31.8 31.8 0 0 0-3.9 13.4 35.6 35.6 0 0 0 22.6 22.5C46.6 107.4 75 102.4 93 93c3.1-1.6 6-3.4 8.8-5.5l-1.8-2-1 .5c-21 11.4-47.3 19.2-70.5 10.4C30.5 94 33 92 36 91c15-4 27-10 41-14 8.8-1.5 18.6 3 24.8 10.5l4.6-4c8.2-7.8 14.1-18 17.7-29.2.1-6.8-1-13.1-3.8-18zm-17.4 46.5zm0 0C94 81.1 86.4 76 84 70c-5.7-16.2 18.7-25.2 34.8-33 .3 3.3 1.5 6.1 2.2 9 3.8 16-8.3 26.6-18 37z" fill="#F5F7EA"/><linearGradient id="c" x1="6.8" x2="118" y1="56.9" y2="56.9" gradientUnits="userSpaceOnUse"><stop stop-color="#A83737" offset="0"/><stop stop-color="#D64449" offset=".9"/></linearGradient><path d="M118 33a18.2 18.2 0 0 0-10-5.7c-16-3-11 5.8-34.7 13-14.8 4.4-47.8 3.8-60 16a33 33 0 0 0-5.8 7.8A21 21 0 0 0 9 79c2 3 5 6 9 7a74.9 74.9 0 0 0 51-10c15.5-5.8 8-21 17-26 9.4-5.4 24.2-8.5 32-17z" fill="url(#c)"/><linearGradient id="d" x1="63.8" x2="63.8" y1="87" y2="115.8" gradientUnits="userSpaceOnUse"><stop stop-color="#FF9D85" offset="0"/><stop stop-color="#ECDEC9" offset=".9"/></linearGradient><path d="M93 93c-27.4 14.2-78 18.5-89.4-15.6a32.3 32.3 0 0 0 6.9 21.8c10 12.9 24 19 49.7 15.4 25.8-3.6 49.4-14.3 58.4-35.4 3.4-8 5.3-16.8 5.5-24.9A63.8 63.8 0 0 1 93 93z" fill="url(#d)"/><path d="M95.8 54.3c-1.2 3-4.4 6.7-10 6.7s-10.1-3.6-10.1-6.8c0-3.3 5.3-5 10.8-5.8 5.6-.7 10.7 2.8 9.3 6z" fill="#F5F7EA"/><ellipse cx="86.6" cy="54.3" rx="7.5" ry="4.4" fill="#FFDECD"/><radialGradient id="e" cx="86.6" cy="54.3" r="3.9" gradientUnits="userSpaceOnUse"><stop stop-color="#F79792" offset="0"/><stop stop-color="#EE7276" offset=".9"/></radialGradient><ellipse cx="86.6" cy="54.3" rx="4.7" ry="2.8" fill="url(#e)"/><path d="M102.4 29.7c1.3 0 3 .2 5 .6a14.3 14.3 0 0 1 10.3 7.5c2.3 4 3.4 9.6 3.4 16L120 57a3 3 0 0 0 .6 3.2c-.7 6-2.3 12-4.8 17.8-10.1 23.9-39.4 31.3-56 33.6-4.7.7-9 1-13 1-15.3 0-25.8-4.7-34-15.2a29.4 29.4 0 0 1-6.2-19.7v-.2a30.6 30.6 0 0 1 8.8-19.1c7.5-7.5 25.2-10 39.4-11.8 7.3-1 14.3-2 19.4-3.5 11.3-3.4 16.4-7.2 20.2-10 3-2.2 4.5-3.4 8-3.4m0-3c-9.6 0-8.6 7.4-29 13.6-15 4.4-47.9 3.8-60 16a31.8 31.8 0 0 0-9.7 21.1h-.1a32.3 32.3 0 0 0 6.9 21.8c8.1 10.4 18.8 16.4 36.2 16.4 4.2 0 8.6-.3 13.5-1 25.8-3.6 49.4-14.3 58.4-35.4 3.4-8 5.3-16.8 5.5-24.9l-.1.3v-.3c.2-6.8-1-13.1-3.7-18-.7-1.1-1.4-2.2-2.3-3.2-2.5-2.9-5.8-5-10-5.7-2.3-.5-4-.7-5.6-.7zM124 54.3z" fill="#424242" opacity=".2"/></svg>