<svg viewBox="0 0 128 128" xmlns="http://www.w3.org/2000/svg" xmlns:xlink="http://www.w3.org/1999/xlink"><linearGradient id="a" x1="4.8" x2="123" y1="104.8" y2="104.8" gradientUnits="userSpaceOnUse"><stop stop-color="#D4D4D4" offset="0"/><stop stop-color="#616161" offset=".5"/><stop stop-color="#696969" offset=".6"/><stop stop-color="#7F7F7F" offset=".7"/><stop stop-color="#A2A2A2" offset=".8"/><stop stop-color="#D4D4D4" offset="1"/></linearGradient><path d="M123 103.7c0 9.3-26.5 19-59.1 19s-59-9.7-59-19S31.2 87 63.8 87s59 7.5 59 16.8z" fill="url(#a)"/><linearGradient id="b" x1="6.8" x2="121" y1="75.1" y2="75.1" gradientUnits="userSpaceOnUse"><stop stop-color="#FFC107" offset="0"/><stop stop-color="#FF8F00" offset=".8"/><stop stop-color="#FF9300" offset=".9"/><stop stop-color="#FFA000" offset=".9"/><stop stop-color="#FFB300" offset="1"/></linearGradient><path d="M6.8 32l.2 71c0 3.1 25.8 15.3 57 15.3s57-12 57-16.8V32H6.8z" fill="url(#b)"/><linearGradient id="c" x1="6.8" x2="121" y1="78.7" y2="78.7" gradientUnits="userSpaceOnUse"><stop stop-color="#FFF8E1" offset="0"/><stop stop-color="#DBD5C2" offset=".8"/><stop stop-color="#DFD9C6" offset=".9"/><stop stop-color="#ECE5D1" offset=".9"/><stop stop-color="#FFF8E1" offset="1"/></linearGradient><path d="M64.2 65.1c-44.1 0-57.4-10-57.4-10L7 88.6c0 1.6 25.7 13.8 57 13.8s57-12.2 57-14.5V55s-12.6 10-56.8 10z" fill="url(#c)"/><radialGradient id="d" cx="63.9" cy="32.1" r="43.5" gradientUnits="userSpaceOnUse"><stop stop-color="#474747" offset="0"/><stop stop-color="#D4D4D4" offset="1"/></radialGradient><ellipse cx="63.9" cy="32.1" rx="59.1" ry="17.1" fill="url(#d)"/><linearGradient id="e" x1="7.1" x2="121.6" y1="31" y2="31" gradientUnits="userSpaceOnUse"><stop offset="0"/><stop stop-color="#D4D4D4" offset="1"/></linearGradient><ellipse cx="64.3" cy="31" rx="57.3" ry="14.6" fill="url(#e)"/><linearGradient id="f" x1="64.3" x2="64.3" y1="16.6" y2="45" gradientUnits="userSpaceOnUse"><stop stop-color="#4D4D4D" offset="0"/><stop stop-color="#545454" offset=".1"/><stop stop-color="#6A6A6A" offset=".3"/><stop stop-color="#8E8E8E" offset=".6"/><stop stop-color="#BFBFBF" offset=".9"/><stop stop-color="#D4D4D4" offset="1"/></linearGradient><ellipse cx="64.3" cy="31" rx="57.3" ry="14.6" fill="url(#f)"/><defs><ellipse id="g" cx="64.3" cy="31" rx="57.3" ry="14.6"/></defs><clipPath id="h"><use xlink:href="#g"/></clipPath><ellipse cx="64.3" cy="35.7" rx="54.5" ry="13.9" clip-path="url(#h)" fill="#999"/><ellipse cx="64.3" cy="39" rx="50.4" ry="12.9" clip-path="url(#h)" fill="#E6E6E6"/><ellipse cx="64.8" cy="40.3" rx="40.9" ry="11.6" clip-path="url(#h)" fill="#ccc"/><ellipse cx="64.3" cy="39.9" rx="25.8" ry="6.6" clip-path="url(#h)" fill="#E6E6E6"/><path d="M76.8 28c-5.3-5.1-19-5.1-24.3 0-2.1 2.2-4.2 5.5-1.6 8 4.4 4.3 15.4 3.4 21.5 2.4 7.3-1.3 9.1-5.7 4.4-10.3zm-12.2 9C58.2 37 53 35 53 32.8s5.1-4.1 11.5-4.1 11.5 1.8 11.5 4S70.9 37 64.6 37z"/><ellipse cx="58.9" cy="26.8" rx="2.2" ry=".8"/><ellipse cx="69.5" cy="26.8" rx="2.2" ry=".8"/><linearGradient id="i" x1="64.5" x2="64.5" y1="22.7" y2="37.7" gradientUnits="userSpaceOnUse"><stop stop-color="#9C9C9C" offset="0"/><stop stop-color="#fff" offset="1"/></linearGradient><path d="M76.8 26.4c-5.3-5.2-19-5.2-24.3 0-2.1 2.1-4.2 5.4-1.6 7.9 4.4 4.3 15.4 3.5 21.5 2.4 7.3-1.3 9.1-5.7 4.4-10.3zm-12.2 8.9c-6.4 0-11.5-1.9-11.5-4.1s5.1-4 11.5-4 11.5 1.7 11.5 4-5.2 4-11.5 4z" fill="url(#i)"/><g fill="#999"><ellipse cx="58.9" cy="25.1" rx="2.2" ry=".8"/><ellipse cx="69.5" cy="25.1" rx="2.2" ry=".8"/></g><path d="M64 18a155 155 0 0 1 41.1 5c7.6 2.1 15.2 5.8 15.2 9.1v.2c0 1 0 1-.6 1.5a3 3 0 0 0-1.5 2.5v63.4c0 1 .6 2 1.5 2.5.6.4.6.4.6 1.4v.2c0 .2-.2 5-15.2 10a133.5 133.5 0 0 1-41 5.9c-15 0-29.7-2-41-5.9-7.4-2.4-15.3-6.6-15.3-10 0-1 .7-1.9 1.3-2.5a3 3 0 0 0 .9-2.1l-.1-24.6-.1-23.3V36.5a3 3 0 0 0-.9-2c-.5-.6-1.2-1.5-1.2-2.4 0-3.3 7.6-7 15.2-9.2 11-3.1 25.6-4.8 41.1-4.8m0-3C31.2 15 4.7 22.7 4.7 32c0 1.6.7 3 2 4.4l.1 14.3.1 23.8v24.6a7 7 0 0 0-2.1 4.5c0 9.3 26.6 19 59.4 19s59-9.7 59-19c0-1.4.2-2.8-2-4V36.2c2.2-1.3 2-2.7 2-4.2 0-9.4-26.4-17-59.2-17z" fill="#424242" opacity=".2"/></svg>