<svg viewBox="0 0 128 128" xmlns="http://www.w3.org/2000/svg"><radialGradient id="a" cx="82.8" cy="58.6" r="50.1" gradientUnits="userSpaceOnUse"><stop stop-color="#F0CEA6" offset=".2"/><stop stop-color="#E09C68" offset=".4"/><stop stop-color="#D17232" offset=".6"/><stop stop-color="#CC611D" offset=".7"/><stop stop-color="#A64F18" offset=".9"/></radialGradient><path d="M124.2 49.4a39.3 39.3 0 0 0-19.8-28.9 41.7 41.7 0 0 0-42 2.3c3.2 2 5.3 4.2 7.5 6.6 3.3 3.2 6.3 7.5 7.4 12 0 0 7-5.3 12.4-4.3s14 7.3 12.3 21a57 57 0 0 1-10.5 27.5A76.4 76.4 0 0 1 108 98.8c.6-.7 1.2-1.4 1.6-2.1 4.7-7.3 9.9-14.6 12.5-22.9a52 52 0 0 0 2-24.4z" fill="url(#a)"/><radialGradient id="b" cx="53.7" cy="63.5" r="70.7" gradientTransform="matrix(.8583 .5132 -.4141 .6926 34 -8)" gradientUnits="userSpaceOnUse"><stop stop-color="#E3BC8D" offset=".1"/><stop stop-color="#E1AF7D" offset=".2"/><stop stop-color="#DC8D52" offset=".4"/><stop stop-color="#D6651F" offset=".6"/><stop stop-color="#9C4A16" offset=".8"/></radialGradient><path d="M91.5 85.6c-3.2 3.9-7.2 7-12.1 8.3-14.5 4.2-37.6 5.3-48.5-15.3-10.6-19.9-4.3-33.7.6-37.9 3-2.5 14-7.6 21.2 4.8 0 0 7 10.2 13.5 15.7a31.4 31.4 0 0 0 10.1 6.5l.2-.4s4.6-9 3.5-19a35.1 35.1 0 0 0-9.3-19.7c-4-4-8.2-6.6-8.2-6.6h.1a43 43 0 0 0-11-5s-26.6-5.9-40 17C-2.8 58.6-.2 107.5 63.2 114.8c0 0 31 2 44.8-16a77 77 0 0 0-16.5-13.2z" fill="url(#b)"/><linearGradient id="c" x1="33" x2="42.8" y1="80.4" y2="95.1" gradientUnits="userSpaceOnUse"><stop stop-color="#F0C795" offset=".1"/><stop stop-color="#DD8752" offset=".5"/><stop stop-color="#D46831" offset=".7"/><stop stop-color="#CD652F" offset=".8"/><stop stop-color="#BA5B2B" offset=".9"/><stop stop-color="#BA5B2B" offset=".9"/></linearGradient><path d="M53.4 70.2S49.6 74 44 78.1c-6.2 4.4-30.9 17.4-24.2 29.4 0 0 2.5 3.9 6.1 4.5s8.1-4 13-8.6 10-9.1 16-12c6.2-3 10.1-6.8 11.3-8L53.3 70.2z" fill="url(#c)"/><linearGradient id="d" x1="85.6" x2="72.5" y1="72.7" y2="91.1" gradientUnits="userSpaceOnUse"><stop stop-color="#F0C795" offset=".1"/><stop stop-color="#DD8752" offset=".5"/><stop stop-color="#D46831" offset=".7"/><stop stop-color="#CD652F" offset=".8"/><stop stop-color="#BA5B2B" offset=".9"/><stop stop-color="#B85A2A" offset=".9"/></linearGradient><path d="M52.3 45.2s-4.3 11-2.4 18S60.4 80.9 74 88.7s22.3 19 24.8 20.5c4.6 2.7 9.3 3 12 1.4 2.7-1.7 6.1-5.4-5-19.6-6.6-8.6-13.3-12.6-22.4-19.1-9.6-6.9-21.8-15.2-26-20.3-4.2-5-5.1-6.3-5.1-6.3z" fill="url(#d)"/><path d="M86.1 18.9c6 0 11.7 1.4 16.9 4.3a36.2 36.2 0 0 1 18.2 26.7c1.2 7.5.6 15.4-2 23-2 6.6-6 12.8-10 18.8l-2 3.1a3 3 0 0 0 0 3.2c3.4 5.4 3.4 7.8 3.2 8.6 0 .4-.3.8-1.2 1.4-.6.4-1.4.5-2.4.5-2 0-4.3-.7-6.5-2 0 0-.3-.1-1-.8a3 3 0 0 0-3.5-.5 67 67 0 0 1-30 6.7h-2.4a89 89 0 0 1-27.4-7.3 3 3 0 0 0-3.3.5c-1 1-4.4 4-6.1 4h-.2c-1.8-.3-3.5-2.3-4-3.1-.7-1.3-1.4-3.4.5-6.7a3 3 0 0 0-.6-3.7A45 45 0 0 1 7.6 65.1a52.3 52.3 0 0 1 6.6-29.6 32.8 32.8 0 0 1 29.9-16.2c3.6 0 6.3.5 6.8.6a43.8 43.8 0 0 1 10.5 5 3 3 0 0 0 3.2 0 43 43 0 0 1 21.5-6m0-3a46 46 0 0 0-23 6.5 16 16 0 0 0-.6-.4h.1a43 43 0 0 0-11-5s-3-.7-7.6-.7A36 36 0 0 0 11.6 34C1.7 51 0 79.3 20.3 97.8c-1.8 3.2-2.3 6.5-.5 9.7 0 0 2.5 3.9 6.1 4.5h.7c2.4 0 5.2-2 8.1-4.7a91.7 91.7 0 0 0 31.1 7.6c5.8 0 19.9-.8 31.4-7l1.6 1.2c2.7 1.6 5.6 2.4 8 2.4 1.5 0 3-.3 4-1 2.3-1.5 5.1-4.4-1-14 4.6-7.3 9.7-14.5 12.3-22.7 2.6-8 3.4-16.4 2-24.4a39.3 39.3 0 0 0-19.7-28.9c-5.8-3.2-12-4.6-18.3-4.6z" fill="#424242" opacity=".2"/><path d="M88.2 37l1.5.1c5.5 1 14 7.3 12.3 21-1 7-3 15.2-6.9 22-3.5-2.7-7.3-5.2-11.7-8.3L76.6 67A38 38 0 0 0 80 48.2a30 30 0 0 0-1.8-7.5c1.8-1.2 6-3.7 10-3.7m0-3c-4.6 0-9.3 2.7-11.7 4.3a3 3 0 0 0-1 3.5c.8 2.3 1.3 4.6 1.5 6.8.9 8.1-2.4 15.7-3 17.1a3 3 0 0 0 .9 3.7c1.2 1 2.4 1.8 3.6 2.6l3.2 2.2c1.3 1 2.6 2 3.9 2.8l7.7 5.5a3 3 0 0 0 4.4-.9 67.8 67.8 0 0 0 7.3-23.2c2-15.3-7.7-22.9-14.7-24.2a10 10 0 0 0-2.1-.2zm-47.5 3.5c3.9 0 8.2 1.8 11.7 7.5l-.1.2s-4.3 11-2.4 18c.6 2.2 1.7 4.5 3.4 7-.5.5-4.1 4.1-9.3 7.9l-9.4 6.1a34.8 34.8 0 0 1-5.7-9.8c-7.7-17.6-2-29.8 2.6-33.7 1.5-1.2 5.1-3.2 9.2-3.2m0-2.5a18 18 0 0 0-11.1 3.7c-5 4.2-12.1 17.2-3.5 37a38.3 38.3 0 0 0 6.1 10.4 3 3 0 0 0 4 .6l5.6-3.6 4-2.6c5.4-4 9.2-7.7 9.6-8.1a3 3 0 0 0 .4-3.8 21.3 21.3 0 0 1-3-6 33.8 33.8 0 0 1 2.3-16.4l.1-.2c.3-1 .3-1.7-.2-2.4-4.5-7.4-10.3-8.7-14.3-8.7zM66 83.3a75 75 0 0 0 8 5.3c2.6 1.5 5 3.1 7.2 4.7l-1.8.7a60.9 60.9 0 0 1-16.7 2.4c-4.4 0-8.8-.5-13-2 1.6-1 3.4-2.2 5.3-3 6.1-3 10-6.8 11.2-8H66m0-3a3 3 0 0 0-2.7 1.5 40 40 0 0 1-9.8 6.7c-1.8 1-3.7 2-5.7 3.4a3 3 0 0 0 .8 5.3c4.2 1.4 9 2.1 14 2.1a64.4 64.4 0 0 0 19.5-3.3A3 3 0 1 0 83 91a66.6 66.6 0 0 0-7.4-4.8A70.5 70.5 0 0 1 68 81c-.6-.5-1.2-.7-1.8-.7z" fill="#424242" opacity=".2"/><path d="M12.5 66l-.8 1.4 1.1.8.8-1.8-1-.5M11.5 60l-.8 1.4 1.1.8.8-1.8-1-.5M16 75.6c-.3.2-.4.6-.3 1 .4 0 .8 0 1.2.2v-1.4c-.3.1-.7 0-1-.1m4.1-.1l.7.7.4.2.2-.2.5-.7c0-.4-.4-.7-.7-.6s-.6.4-.8.7M15 70.2l.8.7s.1.2.3.2l.2-.2.5-.7c0-.4-.4-.7-.7-.6s-.6.4-.8.7m4.3 14c0-.4-.2-1-.4-1.4l1.7.1c-.2.7-.1 1.3 0 2l-1-.4M17.5 65v-.1l-.1.1v1l1 .5.3-1.4-1.4-.6m7.8-32.3s-.1-.1-.2 0l.7.8 1-.6a2 2 0 0 1-.6-.8l-.9.6m6.4-6.2c0 .3.2.7.5 1s.8.2 1 0l-.2-1.1-.1-.2c-.1-.1-.3 0-.4 0l-1 .2m11 3.7c0-.5.3-1 .8-1 .4-.2 1 0 1.3.1l-.6 1.3-.2.2h-.2l-1-.4M41.1 24c.1.5.5.9 1 1 0-.4.3-.8.5-1.2l-.7-1-.6 1m9.6 7.2c0 .5 0 1 .3 1.4l1.1-.8.2-.1v-.2l-.6-1.5-.8.6m7.7 5.9c.4.3.7.6 1.2.7s.9-.2 1-.6a1 1 0 0 0-.8-.8 1 1 0 0 0-1 .5m-4-4.8l1.3 1.3v.1h.3c.2-.4.5-.8.8-1l-1-1.4c-.4.5-1 .8-1.5 1m.2 8.4l1-1c.6-.1 1.2.3 1.6.7a4 4 0 0 1-1 1.4l-1.6-.8m6.7 4.6l1 .4h.2l.2-.2.3-1.2c-.7-.2-1.4.2-1.6.9m.3 4.3l-.1 1c.5 0 1 .2 1.4.3l-.1-1.4-1.5.1m48.4 10.4l.7 1.4-1.3.8-.6-2 1-.3m-2.1 7.6c.2.2.3.6.2 1-.4 0-.8 0-1.2.2v-1.5c.4.2.8.1 1.1 0m2 5.3l-.8.7-.4.1-.2-.2-.5-.8c0-.3.5-.5.8-.4s.5.4.7.7m-3.4 13l.5-1.5h-1.6c0 .7 0 1.4-.2 2a2 2 0 0 0 1-.3m.2-10.9c0 .5-.1 1-.5 1.2-.3.3-.8.3-1.2.2l.2-1.4h1.4m8.9-7.4v-.1l.1.1v1a7 7 0 0 1-1.1.4l-.2-1.5c.5 0 1-.2 1.4-.4m-9.5-32h.2l-.8.8-1-.7c.4-.2.6-.5.7-.8.4.2.7.5.9.8m-15-6.1h.2l-.8.8-1-.7c.4-.2.6-.5.7-.8.4.2.7.5.9.8m7.1 2.5l-.7 1c-.3.2-.8.1-1-.2l.3-1 .2-.2h.3l1 .3m-1-5.6c0-.5-.3-1-.7-1.1-.5-.1-1 0-1.4.1l.6 1.3.1.2h.3l1-.3m-10.7-1.5c-.1.5-.5.8-1 1 0-.5-.2-1-.5-1.3.4-.3.6-.7.8-1l.6 1M57.7 59.6l1.7 1 .4-1.5V59l-.2-.1-.6-.3c-.5.5-1 1-1.6 1.3m4.1 5.9c-.4.1-.4.6-.2.9l.7.6.5-1v-.4l-.2-.2-.6-.3m1.2 7.3c0 .4.2.8.4 1.2l1-.4.2-.2v-.2l-.5-1.3c-.5 0-1 .4-1.1.9m3.7-2.6l1.6.5c.2-.4.4-1 0-1.3-.2-.2-.6-.1-.8 0s-.4.6-.5.8m1.1 5.2c.4.5.7 1 1.2 1.3l.6-1.3c0-.2-.2-.5-.4-.6s-.5-.2-.7 0l-.4.5m4.6 2.1l1 .5h.2l.2-.2.8-.9-.6-.4c-.3 0-.7.2-.9.4-.2.3-.4.6-.7.7m-.9-5a51.5 51.5 0 0 1 1 1l.2-.2c.4-.6.2-1.6-.5-2h-.1l-.1.1-.5.7m6.3 9.4c.4.5.9.8 1.4.9V81c-.5-.4-1.3-.1-1.4.5M54 80.1l-1.6.5c-.3-.4-.5-1 0-1.3.2-.2.5-.1.8 0s.3.6.4.8m23.4 24l-1.6.5c-.3-.4-.5-1 0-1.3.2-.2.5-.1.8 0s.3.6.4.8m-11.6 0l-1.6.5c-.3-.4-.5-1 0-1.3.2-.2.5-.1.8 0s.3.6.4.8M50.4 86c-.2.5-.6 1-1 1.2a1 1 0 0 1-.9-.9c0-.4.3-.8.7-.9s1 .3.9.8m5.3 18.8c-.2.5-.6 1-1 1.2a1 1 0 0 1-.9-.9c0-.4.3-.8.7-.9s1 .3.9.8m4.3-3.2c-.2.5-.6 1-1 1.2a1 1 0 0 1-.9-.9c0-.4.3-.8.7-.9s1 .3.9.8M49 82.9l-1 1-.4-.3c-.2-.2-.5-.4-.5-.7 0-.4.3-.8.7-.8s.8.4 1 .8m-3.3 4.4l-1 1.3-.8-1.3.5-.6c.2-.1.5-.2.7 0l.4.5m26.2 20.1l-1 1.3-.8-1.3.5-.6c.2-.1.5-.2.7 0l.4.5m-.8-4.9l-1 1.3-.8-1.3.5-.6c.2-.1.5-.2.7 0l.4.5M41.7 86.3l-1 .5h-.2l-.2-.2-.8-.9.6-.4c.3 0 .6.2.9.4l.7.7m-5.5 8a2 2 0 0 1-1.3.9V94c.4-.4 1.3-.1 1.4.5" fill="#FFDBA6"/></svg>