<svg viewBox="0 0 128 128" xmlns="http://www.w3.org/2000/svg" xmlns:xlink="http://www.w3.org/1999/xlink"><linearGradient id="a" x1="12.4" x2="131.8" y1="64.7" y2="117.8" gradientUnits="userSpaceOnUse"><stop stop-color="#66BDD6" offset="0"/><stop stop-color="#4493AB" offset="1"/></linearGradient><path d="M124 70H4.4s-4.5 53.8 59.5 53.8c64.6 0 60-53.8 60-53.8z" fill="url(#a)"/><ellipse cx="64.2" cy="69.8" rx="59.9" ry="28.9" fill="#7CC4E2"/><path d="M64.2 44c30.8 0 57 11.8 57 25.8a11 11 0 0 1-.2 1.6 49 49 0 0 1-12.8 34.3c-9.8 10-24.7 15.1-44.2 15.1-19.4 0-34.1-5-43.8-15A49.3 49.3 0 0 1 7.3 71.5v-1.7c0-14 26-25.9 56.9-25.9m0-3c-33.1 0-60 13-60 28.9l.1 1.5C4.1 79.7 6 123.8 64 123.8c58.5 0 60.3-44.1 60.1-52.5l.1-1.5c0-16-26.8-28.9-60-28.9z" fill="#424242" opacity=".2"/><ellipse cx="64" cy="68.9" rx="55" ry="25.6" fill="#24778F"/><defs><ellipse id="b" cx="64" cy="68.9" rx="55" ry="25.6"/></defs><clipPath id="c"><use xlink:href="#b"/></clipPath><path d="M45.1 56.4c-6.6 1.2-13.2 4.2-19.6 6.4-6.3 2.1-9.1 6.3-12 12.1-1.7 3.7-1.7 5 .9 8 4.4 5.4 13.6 12.7 23 14.1s21.8 4.9 36.4 4 27-3.7 33.7-8.8a16 16 0 0 0 5.7-18.3c-2-6.5-8.2-10.3-14.4-12.2-3.1-.9-6.2-1-9.3-1.5-3.8-.7-7.6-2.3-11.4-3.1-5.4-1.2-9.7-2.2-15.3-1.8-5.6.4-12 0-17.7 1.1z" clip-path="url(#c)" fill="#FDFBEB"/><path d="M68.7 80.9c.7.2 1.3.7 2 1 1.7.5 3.6-.4 5 .5 1.2.6 1.5 2.2 1 3.4S75 88 73.9 88.4c-2.2 1-4.9.8-7-.3-1.3-.8-4-3-3.6-4.8.3-1.9 3.8-3 5.4-2.4z" clip-path="url(#c)" fill="#E7AD6D"/><path d="M70.3 77.5c1.8-.4 3.5-1.3 5.1-2.1l4-2c.4-.3 1-.7 1.2-1.2.4-.7 0-1.6-.7-2.1s-1.5-.6-2.4-.7c-3.3-.3-10.7-.6-13.1 2.4-3 3.7 2.8 6.2 5.9 5.6z" clip-path="url(#c)" fill="#C2823C"/><path d="M45 62.3c-1.3-.6-1.5-2.5-.6-3.6S46.7 57 48 57c1.4 0 3 .4 3.5 1.7.4 1.1-.4 2.5-1.5 3s-2.3.8-3.6.9" clip-path="url(#c)" fill="#946128"/><path d="M26 82.5a25.8 25.8 0 0 0 4.1.4 3 3 0 0 0 1.9-.6c1-.7 1.2-2.3.7-3.4-2.9-6-15.7 2-6.6 3.6z" clip-path="url(#c)" fill="#453420"/><path d="M103.6 70.3a11 11 0 0 0-5 5c-.2.6-.4 1.3-.2 1.9.4.7 1.2 1 2 1 1.6.2 3.2.2 4.7-.4 1.5-.5 2.8-1.7 3.3-3.2s.1-3.4-1.2-4.3c-1.3-1-3.4-.6-4.2.8m-4.3-6.6c-.6-.8-2.1-.3-2.4.7s.3 2.1 1.2 2.6c.9.6 2 .7 3 .8 1.5.2 3.4.2 4.2-1.1.7-1.3-.3-3-1.6-3.6s-2.9-.4-4.3-.2m-35.8-4c-.6-.8-2-.3-2.3.7s.3 2 1.1 2.5 2 .6 3 .8c1.4.1 3.2.1 4-1.2.6-1.2-.3-2.8-1.6-3.4-1.3-.6-2.7-.4-4.1-.2" clip-path="url(#c)" fill="#E7AD6D"/><g clip-path="url(#c)"><path d="M74.7 58.7l-.6.9a5 5 0 0 0-.5 1v1c0 .2.4.5.8.7l.7.4 1 .4.8.3 1 .4a31 31 0 0 0 5 1h4.4l1.5-.2 1.1-.1 1-.2-.8.7-1 .6-1.4.7-1.8.6-1 .2-1 .2a15.6 15.6 0 0 1-4.7-.3l-1.1-.3-1.1-.4-1-.5-1.1-.6A30.6 30.6 0 0 1 73 64c-.5-.5-1-1.2-1-2-.1-.9.2-1.5.6-2l1-.7 1-.5z" fill="#D1C6BF"/></g><g clip-path="url(#c)"><path d="M55.6 60.2h.2l.5.2c.4.3.9.9 1 1.7v1.4c-.2.2 0 .2-.2.3l-.2.4-.3.7a5 5 0 0 1-1 1l-.6.3-.4.3a6 6 0 0 1-2.3.6c-.8 0-1.5 0-2-.3a3 3 0 0 1-1.4-.8l-.4-.3-.1-.2c-.1-.1-.1-.2 0-.2L50 65a10.7 10.7 0 0 0 4.9-2c.4-.4.6-.9.7-1.3v-1l-.2-.4v-.2h.2z" fill="#E8DCD4"/></g><g clip-path="url(#c)"><path d="M101.4 82.1l.6-.1.5-.1.6-.2.6-.2.6-.1h.5l.5-.1h.5l.5.2 1.1.4 1.1.4.6.2h.1s.1.1 0 .2l-.2.3-.9.5a8 8 0 0 1-3 .6c-1-.1-2.1-.5-2.8-1-.4-.1-.7-.4-.8-.6a5 5 0 0 1-.3-.2V82h.2z" fill="#E8DCD4"/></g><g clip-path="url(#c)"><path d="M34 62.6c-4.2 1-7 4.7-6.1 8.4s4.9 6 9.1 5 7-4.6 6.3-8.3c-.9-3.7-5-6-9.2-5zm2.3 10c-2 .4-4-.7-4.4-2.4s1-3.6 3-4 4 .6 4.3 2.3c.4 1.8-1 3.6-3 4z" fill="#9C7449"/></g><g clip-path="url(#c)"><path d="M51.1 72.3c-4 .9-6.7 4.5-6 8S50 86 54 85.2s6.7-4.5 6-8c-.8-3.6-4.7-5.8-8.8-4.9zm2 9.5c-1.9.4-3.7-.6-4-2.3s.8-3.4 2.7-3.8c2-.5 3.8.6 4.2 2.3s-.9 3.4-2.8 3.8z" fill="#9C7449"/></g><g clip-path="url(#c)"><path d="M86.3 76.4c-2.1 2.7-1.9 6.4.5 8.3 2.4 1.8 6 1.1 8.1-1.6s2-6.4-.5-8.3-6-1.1-8.1 1.6zm6.4 5c-1 1.2-2.8 1.6-4 .7s-1.2-2.6-.2-4c1-1.2 2.8-1.6 4-.7s1.2 2.6.2 4z" fill="#7D5E3B"/></g><linearGradient id="d" x1="94.6" x2="106.4" y1="36.5" y2="46.5" gradientUnits="userSpaceOnUse"><stop stop-color="#EAF0F0" offset="0"/><stop stop-color="#D4DCDE" offset=".3"/><stop stop-color="#A9B5B3" offset="1"/></linearGradient><path d="M122 22.4a6 6 0 0 0-.5-2.1v.1l-.5-1c-1.5-2-5.3-1.7-7.5-1.4-9.4 1-18.2 18.2-21.4 23.9s-14.3 18-14.3 18c-2 2.2 4 3.5 4.8 3.6 1.6.2 3.5.3 5.4-2.2 2.8-3.7 14-15.3 22.6-22.4 5-4.2 12.3-9 11.5-16.5z" fill="url(#d)"/><path d="M116.3 20.9c1.7 0 2.1.4 2.1.4h.1l.4.9.1.6c.6 4.9-4 8.6-8.5 12.2l-1.9 1.5c-8.8 7.3-20 19-23.1 23-.8 1-1.3 1-1.7 1a7.5 7.5 0 0 1-2.1-.4c3.3-3.7 10.4-12 13-16.7l.8-1.4c3-5.5 11.2-20.1 18.4-21l2.4-.1m0-3.1l-2.8.2c-9.4 1-18.2 18.2-21.5 23.9s-14.2 18-14.2 18c-2.1 2.3 4 3.5 4.8 3.6h1.2c1.3 0 2.7-.3 4.2-2.1 2.8-3.8 14-15.4 22.6-22.5 5-4.2 12.3-9 11.5-16.5a6 6 0 0 0-.6-2.1v.1l-.5-1c-1-1.3-3-1.6-4.7-1.6z" fill="#424242" opacity=".2"/></svg>