<svg viewBox="0 0 128 128" xmlns="http://www.w3.org/2000/svg"><radialGradient id="a" cx="29.8" cy="50.6" r="52.3" gradientUnits="userSpaceOnUse"><stop stop-color="#804A2C" offset="0"/><stop stop-color="#744227" offset=".2"/><stop stop-color="#532E1B" offset=".6"/><stop stop-color="#331A0F" offset="1"/></radialGradient><path d="M48 18.8C38.5 22 13.3 41 10 51.4s-6 17.3-1 29 16 23.2 40.7 25.8 37-20.4 39.2-27.6c0 0 3.8-9 0-22S76.4 35.7 69.2 29.1 51.5 21 48.8 16.5s-.9 2.3-.9 2.3z" fill="url(#a)"/><path d="M11.7 41.1c-.3 4.9-2 9.6-3 14.3a53.4 53.4 0 0 0-.4 19.2c.1.8.1 1.8-.6 2.1-.8-2-1.6-4.8-1.8-7-.2-3.2.2-6.8.7-9.9A96.5 96.5 0 0 1 10 45.5c.5-1.3 1.6-3 1.7-4.4z" fill="#6F3E24"/><path d="M23.7 33.5c-.9 1.9-2.2 3.5-3.5 5-1.4 2-2.8 4-4.4 5.6-1.4 1.4-2.2.9-1.4-1 .7-1.8 3-3.6 4.3-5a33 33 0 0 1 5-4.6z" fill="#774428"/><radialGradient id="b" cx="35.3" cy="24" r=".5" gradientUnits="userSpaceOnUse"><stop stop-color="#804A2C" offset="0"/><stop stop-color="#744126" offset=".4"/><stop stop-color="#572D19" offset="1"/></radialGradient><path fill="url(#b)" d="M36 24h-1"/><path d="M48.1 19c-4 2.4-8 4.9-11.5 8-.8.8-1.6 1.6-2.5 2.2-1 .7-5 3-5.4 1.6-.4-1.6 3.6-4 4.5-4.6a52 52 0 0 1 7.2-4.2c2.4-1.1 5.5-1.7 7.7-3z" fill="#6D3D24"/><path d="M30.9 102.5l6 2.2c3.3 1.2 6.9 2.5 10.3 1.6l-9.5-3.1c-3-1-6.1-2-8.8-3.8-1.1-.7-2.2-1.5-3.4-2-1-.5-2.5-1-3.4-.3.7 2.8 6.4 4.5 8.8 5.4z" fill="#351B0F"/><path d="M51 107.8a67.1 67.1 0 0 1-12.3-7.6c-1.5-1.3-4.6-5-6.7-4.8-3.4.3 2.5 4.2 3.4 4.8a37 37 0 0 0 15.6 7.6z" fill="#351B0F"/><path d="M58.2 106.9c.5.3 1 0 1.5 0 5.8-2.2 11.3-5 16.5-8.5.8-.6 5.5-4 4.1-5.4-.6-.7-6 3.6-6.9 4.3-5 3.3-10 6.5-15.2 9.6z" fill="#572D19"/><path d="M71.3 101.3c1.4.3 2.6-1 3.3-2.3 1.5-2.3 2.9-4.7 4.2-7 1.9-3.3 3.6-6.6 4.7-10.1.9-3 1.6-6.8.6-9.8-1.3.3-1.9 5.5-2.2 6.8a77.1 77.1 0 0 1-10.6 22.4zm2.6-68.8a19 19 0 0 1 5.6 6.4l3.6 5.5c-.4-2.3-1.4-4.6-3-6.5 3.5 4.8 6.2 10 8.3 15.4-.4.3-.9-.2-1.1-.6a206.4 206.4 0 0 0-9.8-15.4c-1-1.3-2.3-4-3.6-4.8z" fill="#572D19"/><path d="M49.5 21.1c1.8 1.3 4 2.3 6.5 3.4 3.7 1.8 8 3.7 11.3 6.8a110 110 0 0 1 7.8 7.5c.4.5 1 .8 1.5.9l.5.8 1.6 2.3.6 1v.2a7 7 0 0 1 1.3 1.7c.5.7 1 1 1.8 1.2 1 1.8 1.8 3.6 2.6 5.4-.2.6-.2 1.3 0 2a32.7 32.7 0 0 1 1.2 23.3v.1c-.8 2.5-3.3 8.2-8 13.6-.5.6-.7 1.4-.6 2.2a17 17 0 0 1-3 2.5l-2 1.3a3 3 0 0 0-.7.7l-.5.5c-.5 0-1 .1-1.5.4-2.8 1.6-5.7 3-8.7 4.2a2.8 2.8 0 0 0-1.7-.1 30.7 30.7 0 0 1-11.7.1h-.3c-.7 0-1.3.2-1.8.6h-1c-2 0-4.4-.7-6.8-1.6l-.9-.4-5.1-1.9-1-.3a19 19 0 0 1-5.8-2.7c0-.9-.5-1.6-1.2-2.1a35.4 35.4 0 0 1-13.7-19.5V75c-.8-2-1.3-4-1.4-5.5a43 43 0 0 1 1.3-13c.8-.2 1.4-.9 1.7-1.7l.8-2.5c.4-1 1.3-3 3.7-5.9.5-.6.7-1.3.6-2l.1-.2c.3-.7 1.6-2 2.5-2.9l1.3-1.3.3-.3h.5c.7 0 1.4-.2 1.9-.7 2.2-2 4.5-4 7-6 .7-.4 1-1.2 1.1-2a15.5 15.5 0 0 1 3.2-2.4 52.5 52.5 0 0 1 14-7.1l.7-.4m-2-6c-.7 0 .4 3.7.4 3.7a32 32 0 0 0-4.4 2L40.4 22a56 56 0 0 0-7.2 4.2c-.9.6-4.9 3-4.5 4.6-2.4 2-4.9 4-7.1 6.1.8-1 1.5-2.2 2-3.4-1.8 1.3-3.4 3-5 4.6-1.2 1.4-3.5 3.3-4.2 5-.3.7-.4 1.2-.3 1.5A23.1 23.1 0 0 0 9 54c1-4.3 2.3-8.4 2.6-12.8 0 1.3-1.3 3.2-1.7 4.4l-1.4 4.7c-.8 3.2-1.5 6.4-2 9.7a40 40 0 0 0-.6 9.8A41.2 41.2 0 0 0 9 80.5 38 38 0 0 0 22.3 97H22c.7 2.9 6.4 4.6 8.8 5.5l6 2.2c2.5 1 5.2 1.9 7.9 1.9l1.4-.1c1.6.6 3.2 1 4.8 1.3l-3.5-1.9a132 132 0 0 0 6 .5 33 33 0 0 0 6.6-.7l-1.9 1.2.6.1.9-.2a78.8 78.8 0 0 0 12-5.5c1 0 1.8-.8 2.5-1.7l2-1.3c.8-.5 5.3-3.8 4.2-5.2A45.7 45.7 0 0 0 89 78.5s3.8-9 0-22l-1.2-3.4c.2.2.3.2.5.2h.2a71.5 71.5 0 0 0-7.2-14 14 14 0 0 1 1.8 4.8l-1.3-1.9-2.1-3.3c-1.6-2.5-3.2-5-5.7-6.5 1.2.8 2.4 3 3.3 4.4a129 129 0 0 0-8-7.7c-7.3-6.6-17.6-8.3-20.4-12.6-.7-1-1-1.4-1.3-1.4zm-78.3 29.4z" fill="#eee" opacity=".2"/><linearGradient id="c" x1="67.9" x2="102" y1="59.7" y2="102.8" gradientTransform="rotate(3.2 82.6 84.3)" gradientUnits="userSpaceOnUse"><stop stop-color="#2A160C" offset="0"/><stop stop-color="#2F190E" offset=".2"/><stop stop-color="#3E2314" offset=".5"/><stop stop-color="#57321E" offset=".8"/><stop stop-color="#683C24" offset="1"/></linearGradient><path d="M84.7 105.5c0-1.1 1.3-3.3 2.5-4.3 2.3-2.1 6.7-.8 9-1.8 2.3-2 1.6-8.8 3.9-9.8 14.6-5 15.6-17.2 19-29a32 32 0 0 0-2.7-4c-13.4-18.4-23.1-10-23.1-10l-3.2 6.8s-19.1 4.9-22.9 7c-1.7.8-4.8 4.5-8.4 7.3-4.2 3.3-7.6 6.7-7.6 6.7s-2.6 5.8-4 9.6c-.7 2-2.9 5.7-3.4 7.9 8 13.3 26.2 16.9 40.9 13.6z" fill="url(#c)"/><radialGradient id="d" cx="83.6" cy="91.1" r="36.3" gradientTransform="rotate(3.2 82.6 84.3)" gradientUnits="userSpaceOnUse"><stop stop-color="#8F5331" offset="0"/><stop stop-color="#8A502F" offset=".3"/><stop stop-color="#7D4729" offset=".5"/><stop stop-color="#66371F" offset=".8"/><stop stop-color="#572D19" offset="1"/></radialGradient><path d="M119 60.7c-3.3 11.7-4.3 23.8-19 29-2.2.9-1.5 7.6-3.8 9.7-2.3 1-6.7-.3-9 1.8a8.5 8.5 0 0 0-2.5 4.3c-14.7 3.3-32.8-.3-40.9-13.7l-.6 3.2 6.3 11.4s8.6 9.8 15.7 13 23 8 40.5-1C122 110 129 79.6 119 60.7z" fill="url(#d)"/><radialGradient id="e" cx="81.2" cy="73.6" r="38.2" gradientTransform="matrix(.8284 -.5602 .3176 .4697 -8.8 84.4)" gradientUnits="userSpaceOnUse"><stop stop-color="#C4B99D" offset="0"/><stop stop-color="#C9BFA5" offset="0"/><stop stop-color="#D9D1BE" offset=".2"/><stop stop-color="#E6DFD2" offset=".3"/><stop stop-color="#EEE9E0" offset=".5"/><stop stop-color="#F3EEE8" offset=".6"/><stop stop-color="#F5F0EA" offset="1"/></radialGradient><path d="M86.8 53.9l-4.4.6-7.1 3.6-3.8 4.2-6.9 2.7-9.3 8.4s-4.1 8.4-5.4 11.7c-1.3 3.3-1.3 7 0 8.7 1.3 1.7 7.8 5.4 7.8 5.4l11.3 2.3 7.3-.1 3.4-1.2L82 97l9-2.9 5.8-8.3s6.2-1 8.5-2.9 6.6-8.8 6.6-8.8l.4-8.3 2-4s-3.8-6.7-8-10.6c-4.2-3.8-10.5-5.6-10.5-5.6l-4.2.3-2.2 4.4-2.7 3.5z" fill="url(#e)"/><linearGradient id="f" x1="72.8" x2="92.3" y1="66.6" y2="89.5" gradientTransform="rotate(3.2 82.6 84.3)" gradientUnits="userSpaceOnUse"><stop stop-color="#C4B99D" offset="0"/><stop stop-color="#9C947C" offset="1"/></linearGradient><path d="M87.4 57.1S86 63.7 84 64.4s-8.6.1-12.5 3.8-8.8 12.6-8.8 12.6v7.3L65 91l6.1.9H80l8.4-6.3 4-6.7 6.4-4.7 3.5-6.8-4.4-6.6-4-3-6.4-.7z" fill="url(#f)"/><path d="M99.6 47.8c3.2 0 8.3 1.8 14.7 10.6.8 1 1.6 2.3 2.3 3.7a47 47 0 0 1 1.8 34.6c-2.8 9-7.8 15.9-13.8 19a42.5 42.5 0 0 1-37.8 1 57.8 57.8 0 0 1-14.4-12.1l-5.6-10a20.6 20.6 0 0 1 2.1-6c.7-1.3 1.3-2.5 1.6-3.5 1-3 3-7.4 3.6-9 1-.9 3.7-3.4 7-6 1.9-1.4 3.6-3.1 5-4.5 1.1-1 2.5-2.3 3-2.6A67.7 67.7 0 0 1 80 59.4l3.7-1.9 4-.6a3 3 0 0 0 2-1.2l2.6-3.6.3-.4 1.4-2.8 1.3-.1a3 3 0 0 0 1.1-.3 8 8 0 0 1 3.2-.7m0-3.1c-2 0-3.5.5-4.5 1l-3 .2-2.3 4.4-2.7 3.6-4.4.6-4 2.1a80 80 0 0 0-11.1 3.7c-1.7 1-4.8 4.6-8.5 7.4-4.2 3.3-7.6 6.7-7.6 6.7S49 80.2 47.6 84c-.7 2.1-3 5.7-3.4 7.9l-.7 3.2 6.4 11.3s8.6 9.9 15.7 13a45.6 45.6 0 0 0 40.5-1c16.2-8.4 23.1-38.7 13.3-57.7a32 32 0 0 0-2.6-4.2c-7-9.5-13-11.8-17.2-11.8z" fill="#eee" opacity=".2"/></svg>