<svg viewBox="0 0 128 128" xmlns="http://www.w3.org/2000/svg"><linearGradient id="a" x1="86.4" x2="109.4" y1="55.5" y2="10.5" gradientUnits="userSpaceOnUse"><stop stop-color="#B8B8B8" offset="0"/><stop stop-color="#D9D9D9" offset=".4"/><stop stop-color="#F5F5F5" offset=".8"/><stop stop-color="#fff" offset="1"/></linearGradient><path d="M122.1 15.3c-1 1.5-3.4 4-4.6 5.7a140.4 140.4 0 0 0-19.8 40.2 113.4 113.4 0 0 0-2.4 10.1 273 273 0 0 0-25.4-5 118.7 118.7 0 0 1 7-24 132 132 0 0 1 10.6-21.7A165.6 165.6 0 0 1 97.7 5.4a315.7 315.7 0 0 1 17.6 7.4c1.9.8 4 1.3 6.8 2.5z" fill="url(#a)"/><path d="M98.8 9a399.8 399.8 0 0 1 18.3 7.6l-2 2.6a163.1 163.1 0 0 0-13.6 23.1A126 126 0 0 0 93 67.7a291.8 291.8 0 0 0-19.6-4l.5-2.1a124.4 124.4 0 0 1 11.3-30.7 136.4 136.4 0 0 1 11-18.4l2.6-3.4m-1-3.7a189.7 189.7 0 0 0-15.2 24.1 185.9 185.9 0 0 0-7.4 17.2 132.3 132.3 0 0 0-5.3 19.5 293.8 293.8 0 0 1 25.4 5.1 113 113 0 0 1 15.8-40.7 144 144 0 0 1 6.4-9.6c1.2-1.7 3.6-4.2 4.6-5.7-2.7-1.2-5-1.7-6.8-2.6l-5.5-2.4a183 183 0 0 0-12-4.9z" fill="#424242" opacity=".2"/><radialGradient id="b" cx="33.2" cy="58.4" r="60" gradientUnits="userSpaceOnUse"><stop stop-color="#FFD880" offset="0"/><stop stop-color="#F9CF76" offset=".3"/><stop stop-color="#E8B75A" offset=".9"/><stop stop-color="#E6B457" offset="1"/></radialGradient><path d="M114 65.9c-8.8-28.2-45-34.7-71.5-35.2-3.8-.1-8-.2-11.7.7-3 .7-4.8 1.7-5.8 3-4.6 5.5 8.2 15.5 12.9 19.2 5 4 10.7 8.2 16.2 12 .8-1.2 3.5-2 4.8-2.5a63.7 63.7 0 0 1 29.5-2.9c.7.1 1.4.3 1.9.8.7.8.3 2.2-.5 2.9s-2 .9-3 1c-5.3.9-10.6 1.6-15.9 2.3-2.7.3-5.4 1-8.1 1.3-1.2.1-2.5.5-3.8.5l-12.8 3.3C30 76.9 7.8 77.5 3.8 85.7-2.5 98.2 17 110 25.6 114.2a69.9 69.9 0 0 0 62.5 1.9c5.2-2.6 9.8-5.7 13.9-9.9 12.3-14.4 15.2-26 12-40.3z" fill="url(#b)"/><radialGradient id="c" cx="33.3" cy="58.4" r="59.8" gradientUnits="userSpaceOnUse"><stop stop-color="#FFD880" offset="0"/><stop stop-color="#F9CF76" offset=".3"/><stop stop-color="#E8B75A" offset=".9"/><stop stop-color="#E6B457" offset="1"/></radialGradient><path d="M62.8 68.5c2.7-.3 5.4-1 8.1-1.3 5.3-.7 10.6-1.4 15.9-2.3 1-.1 2.2-.3 3-1s1.2-2 .5-2.9c-.5-.5-1.2-.7-2-.8a63.7 63.7 0 0 0-29.4 3c-1.3.4-4 1.2-4.8 2.4l5 3.4c1.2 0 2.5-.4 3.7-.5z" fill="url(#c)"/><linearGradient id="d" x1="71.4" x2="77.1" y1="42" y2="67" gradientTransform="rotate(-4.3 76.4 60.2)" gradientUnits="userSpaceOnUse"><stop stop-color="#FFD880" stop-opacity="0" offset=".4"/><stop stop-color="#F6CD76" stop-opacity=".1" offset=".5"/><stop stop-color="#CEA04B" stop-opacity=".7" offset=".8"/><stop stop-color="#BF8E3A" offset="1"/></linearGradient><path d="M99.5 60.8c4-4.1-5.6-9-9.2-9.8-17.3-4-42.7 9.8-38.9 13.2 3 2.6 8.2 5.6 9 6a135.3 135.3 0 0 0 28.7-4.5c3.1-1 7.6-2.3 10-4.5l.4-.4z" fill="url(#d)"/><path d="M38.8 33.6h3.7a125 125 0 0 1 41.3 7.1c14.5 5.6 23.7 14.3 27.4 26 3 13.8-.2 24.4-11.4 37.5a46.8 46.8 0 0 1-13 9.2 60.9 60.9 0 0 1-27 6.2 74.7 74.7 0 0 1-32.9-8C18.3 107.3 8.3 100.3 6 93.5a8 8 0 0 1 .4-6.5c2.1-4.2 13.7-6.3 24-8.2 5.5-1 11.3-2.1 16.6-3.6L59.5 72a3 3 0 0 0 1-5.4l-.3-.1-5.6-4.1-.2-.2c-5.5-3.8-10.5-7.6-14.7-11l-.6-.4c-3.2-2.6-11.6-9.4-12-13.5 0-.5 0-.8.3-1 .3-.5 1.3-1.4 4.1-2 2.5-.6 5.2-.7 7.3-.7m0-3a35 35 0 0 0-8 .8c-3 .7-4.8 1.7-5.8 3-4.6 5.5 8.2 15.5 12.9 19.2a246 246 0 0 0 14.9 11c2.5 2.1 5.2 4 6 4.5l-12.6 3.2C30 76.9 7.8 77.6 3.8 85.7-2.5 98.2 17 110 25.6 114.3a77.4 77.4 0 0 0 34.1 8.3c9.7 0 19.3-2 28.4-6.5 5.2-2.6 9.8-5.7 13.9-9.9 12.3-14.4 15.2-26.1 12-40.3-8.8-28.2-45-34.7-71.5-35.2h-3.7z" fill="#424242" opacity=".2"/></svg>