<svg viewBox="0 0 128 128" xmlns="http://www.w3.org/2000/svg"><path d="M74.3 111.9c-2.9-2.8-6.6-3.5-10.6-5-11.4-3.1-22-5.6-33-10.2-3.2-1-6.3-1.4-9.5-2a20.7 20.7 0 0 1-9.8-6.6c-.2.7-.3 1.5-.2 2.3.1 5.4 0 9.4 1.3 11.3 1.3 1.8 40.7 13.3 51 16.7 7 2.4 8.8 4.1 11.8 3.9-.4-4 1.7-7.8-1-10.4z" fill="#DF8826"/><path d="M119.1 74.1c.5-4.4-.6-4.7-6-5.9-5.6-1.1-40.5-11.8-45.9-13.2s-8.3-2.6-11.7-1.4-7.3 3.5-7.3 3.5c-8.5 6.3-31.9 25.3-31.9 25.3s-3.8 1.9-4.8 5.7a19 19 0 0 0 9.8 6.5c3 .7 6.2 1 9.4 2.1 11 4.6 21.6 7 33 10.3 3.9 1.3 7.9 2.4 10.7 5 1.1-1.2 3-1 4.2-2 37.2-29.6 40.5-35.7 40.5-35.9z" fill="#F6D9A4"/><path d="M78.3 108.8c-1.3 1.2-4 2.9-4 3 .3 3.8.4 10.7.7 10.6 3.3-.9 11-7.3 17.2-11.8 6-4.4 26.8-24.3 27.3-26 .6-1.5.2-4 .2-5.6-.1-2.6-.2-5.2-.5-7.7.3 2.6-1.5 4.4-3 5.7-11.9 11.2-24 20.6-38 31.8z" fill="#D76208"/><path d="M11.5 81.7c-1.4 1.6-1.2 2.9.2 4.5 2.6 3 9.8 6.8 20.4 7.5s20-2.8 28-19.5-10.6-26.7-10.6-26.7S13 80 11.5 81.7z" fill="#EA8A77"/><path d="M13 82.5c-1.5 1.5-.2 5.3 17.7 9 0 0-6.3-5.4-10.5-8s-5.6-2.4-7.1-1z" fill="#A72E18"/><path d="M29 86.7c-1.5 1.5-1.3 2.8 0 4.4 2.7 3 10 6.8 20.4 7.5 10.6.7 20-2.7 28.1-19.4S66.8 52.3 66.8 52.3 30.4 85.1 29 86.7z" fill="#EAA88E"/><path d="M30.4 87.5c-1.5 1.5-.2 5.3 17.7 8.9 0 0-6.3-5.4-10.5-8s-5.6-2.3-7.2-1z" fill="#A72E18"/><path d="M49.6 92.7c-1.6 1.7-1.4 3.1.1 5 3 3.4 11 7.5 22.7 8.3 11.8.8 22.3-3 31.3-21.7S91.8 54.5 91.8 54.5 51.2 91 49.6 92.7z" fill="#EA8A77"/><path d="M51.3 93.6c-1.8 1.6-.3 5.9 19.7 10 0 0-7.1-6-11.8-9s-6.2-2.6-8-1z" fill="#A72E18"/><path d="M122.5 59c1.5-.4 2.6-2.3 2.5-4.2-.4 1-1.7.5-2-.4s-.3-2-.4-3c0-1.1-.5-2.4-1.3-2.5-.7-.1-1.4.6-2 .8-2.5.6-4-4.5-6.4-3.8-.7.2-1.2.8-1.7 1.4-2.5 2.4-6 2.6-9 1.6s-6-2.8-8.9-4.3c-1.5-.7-3.1-1.4-4.8-1.9 5.1 10.2 9.8 20.8 19.5 24.5 3.8 1.3 9.1 2.1 14.2 2v-1.4c-1.3-.5-3-2-2.3-3.6.4-.9 1.5-1 2.2-.5a6 6 0 0 1 1.7 2.4c1.2-2.3.6-5.8-1.3-7.1zM19.8 55.4c-2.5 2-5 4-7.3 6.1-2.3 2.2-3 1.9-5.7.7-.3.4-.6 1-.7 1.5l1 1-1.9 2.1C5 66.3 4.5 66 4 66l-.3 5.4c.8.3 1.7.2 2.5-.3-.4 1.5 0 3.3 1 4.3.8-.7 1.4-1.9 1.4-3.1.9 0 1.7.5 2.2 1.4L9 76.5c.5 1.1 1.7 1.7 2.7 1.3a8.7 8.7 0 0 0 2.4 3.8l-.2-2.6 2.5-.7c0 1.1-.1 2.4.4 3.3s1.6 1.6 2.3.8a4 4 0 0 0 1.2 3.6 127 127 0 0 1 12-40.1c-4.2 3-8.4 6.2-12.5 9.5z" fill="#9ABC00"/><path d="M57 41.4c-4.2-1.4-8.3-3.1-12.4-2.4-3.6.6-6.8 3-10 5.2l-2.3 1.7a126.8 126.8 0 0 0-12 40l1 .7c1.3.6 2.8.4 4.2.1.5-1.3 0-2.8 0-4.2s1-3.2 2-2.4c-.6 2.6 1.6 5 3.6 6.3.7.5 1.5 1 2.3.8l1.1-.5c1.6-.3 2.2 2.7 3.7 3.4 1.5.8 3-2.3 1.8-3.7 1.8-1.3 3.7 1.6 4.6 4 .6 1.6 1.7 3.5 3 4 9.3-13.3 9.5-34.4 9.3-53z" fill="#C6D500"/><path d="M93 95a3 3 0 0 1-2-2.6c-.8-1-1.5-2.1-2-3-7.8-17-16.5-31.7-25.5-46.5a27 27 0 0 1-6.6-1.5c.2 18.6 0 39.7-9.4 53 .5.2 1.1.2 1.6-.2-.3-1.1 1-2 2-1.9s1.9 1 2.9 1c1.5 0 2.8-2.3 2.1-4 1.1-1.2 2.9-.1 3.9 1.3 1 1.4 1.7 3.2 3.1 3.8 1.2.5 2.5-.1 3.7-.4 1.2-.4 2.7-.3 3.4 1 .4 1 .3 2.2.9 3 .6.7 1.6.7 2.4.9 2 .4 3.5 2.1 5.2 3.3 1.7 1.2 4.1 1.7 5.4-.1-1.1-1.2-1-3.8.1-4.8s3.2-.4 3.8 1.3c.2.5.2 1 .5 1.5.6.8 1.7.4 2.4-.2 1.2-1 2-2.5 2.7-4.1l-.7-.8z" fill="#9ABC00"/><path d="M93 95l.5.7.2-.5c-.2 0-.5 0-.8-.2zM74.5 41.5c-3.6.5-7.1 1.6-10.7 1.4h-.3A455 455 0 0 1 89 89.4c.5.9 1.2 2 2 3-.2-1.6 1.5-3 2.6-2.2-.7-1.6-1.4-3.4-1.2-5.2s1.4-3.6 2.9-3.2c1.4.3 2.3 2.5 3.7 2.6.8 0 1.4-.6 2-1.3-1.2-14.2-14.8-28.2-22.8-42l-3.7.4z" fill="#9ABC00"/><path d="M108 67.2c-9.7-3.7-14.4-14.3-19.5-24.5a32 32 0 0 0-10.3-1.5c8 13.7 21.6 27.7 22.9 41.9.8-1 1.5-2.1 2.6-2.1.7 0 1.3.5 2 .2 1-.3 1.2-2.1 2.2-2.7 1.2-.7 3 1 3.9-.3.9-1.1-.4-2.8-1.4-3.6-.6-2 1.6-3.5 3.2-3.1 1.7.3 3.1 1.6 4.8 1.6 1.8 0 3.4-1.8 3.7-3.9a50 50 0 0 1-14.1-2z" fill="#7A8E00"/><linearGradient id="a" x1="17.2" x2="45.4" y1="71.7" y2="73.8" gradientUnits="userSpaceOnUse"><stop stop-color="#FF3D2A" offset="0"/><stop stop-color="#F63424" offset="0"/><stop stop-color="#DD1D14" offset=".2"/><stop stop-color="#CC0D09" offset=".3"/><stop stop-color="#C10302" offset=".5"/><stop stop-color="#BE0000" offset=".6"/><stop stop-color="#FF1500" offset="1"/></linearGradient><ellipse cx="30.6" cy="72.7" rx="15.7" ry="8.7" fill="url(#a)"/><ellipse cx="31" cy="70.6" rx="15.3" ry="6.6" fill="#E44000"/><ellipse cx="31.8" cy="69.8" rx="14.5" ry="5.8" fill="#891301"/><linearGradient id="b" x1="5.4" x2="33.7" y1="156.3" y2="158.3" gradientTransform="rotate(-9.6 -419.5 -82)" gradientUnits="userSpaceOnUse"><stop stop-color="#FF3D2A" offset="0"/><stop stop-color="#F63424" offset="0"/><stop stop-color="#DD1D14" offset=".2"/><stop stop-color="#CC0D09" offset=".3"/><stop stop-color="#C10302" offset=".5"/><stop stop-color="#BE0000" offset=".6"/><stop stop-color="#FF1500" offset="1"/></linearGradient><path d="M68.2 77.3c.7 4.7-5.7 10-14.3 11.8s-16-.6-16.7-5.3c-.6-4.7 5.8-10 14.4-11.8s16 .6 16.6 5.3z" fill="url(#b)"/><ellipse transform="rotate(-12.7 52.9 78.4)" cx="52.9" cy="78.5" rx="15.4" ry="6.6" fill="#E44000"/><ellipse transform="rotate(-12.6 53.6 77.4)" cx="53.6" cy="77.4" rx="14.6" ry="5.7" fill="#891301"/><linearGradient id="c" x1="64.9" x2="93.1" y1="78.8" y2="80.8" gradientUnits="userSpaceOnUse"><stop stop-color="#FF3D2A" offset="0"/><stop stop-color="#F63424" offset="0"/><stop stop-color="#DD1D14" offset=".2"/><stop stop-color="#CC0D09" offset=".3"/><stop stop-color="#C10302" offset=".5"/><stop stop-color="#BE0000" offset=".6"/><stop stop-color="#FF1500" offset="1"/></linearGradient><ellipse cx="78.3" cy="79.7" rx="15.7" ry="8.7" fill="url(#c)"/><ellipse cx="78.7" cy="77.7" rx="15.3" ry="6.6" fill="#E44000"/><ellipse cx="78.4" cy="76.8" rx="13.5" ry="5.5" fill="#891301"/><linearGradient id="d" x1="76.5" x2="104.7" y1="68.9" y2="70.9" gradientUnits="userSpaceOnUse"><stop stop-color="#FF3D2A" offset="0"/><stop stop-color="#F63424" offset="0"/><stop stop-color="#DD1D14" offset=".2"/><stop stop-color="#CC0D09" offset=".3"/><stop stop-color="#C10302" offset=".5"/><stop stop-color="#BE0000" offset=".6"/><stop stop-color="#FF1500" offset="1"/></linearGradient><ellipse cx="89.9" cy="69.9" rx="15.7" ry="8.7" fill="url(#d)"/><ellipse cx="90.3" cy="67.8" rx="15.3" ry="6.6" fill="#E44000"/><ellipse cx="90" cy="67" rx="13.5" ry="5.5" fill="#891301"/><linearGradient id="e" x1="93.6" x2="121.8" y1="54.1" y2="56.2" gradientUnits="userSpaceOnUse"><stop stop-color="#FF3D2A" offset="0"/><stop stop-color="#F63424" offset="0"/><stop stop-color="#DD1D14" offset=".2"/><stop stop-color="#CC0D09" offset=".3"/><stop stop-color="#C10302" offset=".5"/><stop stop-color="#BE0000" offset=".6"/><stop stop-color="#FF1500" offset="1"/></linearGradient><ellipse cx="107" cy="55.1" rx="15.7" ry="8.7" fill="url(#e)"/><ellipse cx="107.4" cy="53" rx="15.3" ry="6.6" fill="#E44000"/><ellipse cx="107.1" cy="52.2" rx="13.5" ry="5.5" fill="#891301"/><linearGradient id="f" x1="21.1" x2="124.1" y1="39.2" y2="39.2" gradientTransform="rotate(2.6 -380 -142.3)" gradientUnits="userSpaceOnUse"><stop stop-color="#FBC02D" offset="0"/><stop stop-color="#FCCA30" offset=".1"/><stop stop-color="#FDD534" offset=".2"/><stop stop-color="#FDD835" offset=".4"/><stop stop-color="#FFF59D" offset=".7"/><stop stop-color="#FDD835" offset="1"/></linearGradient><path d="M13.9 60.5c-.6.6-1.3 1.2-1.5 2.1-.4 1.6.5 3.2 1.7 4 1.2.6 2.5.7 3.8 1.2 6 2 9 11.1 14.9 13.5 4.1 1.6 8.6-.5 13-1.3a22 22 0 0 1 16.5 4c4 3 8 7.5 12.6 6.2 3-.8 5.1-4 7.5-6.5 3.9-4 8.9-6.4 14-6.5 1.5 0 3 0 4.6-.5 2.4-.9 4.3-3.5 5.4-6.3s1.8-6 2.8-8.9c1.4-4 3.5-7.4 6.1-10.3.3-.2.6-2 .7-2.4.1-.7-.4 0-.8-.4-3.1-3-7.3-3.8-11.2-4.8-10.3-2.8-20-8.4-30-12s-21.5-4.8-31 .7a16.2 16.2 0 0 0-5.5 6c-1.9 2.9-4.7 4.9-7 7L13.8 60.6z" fill="url(#f)"/><linearGradient id="g" x1="9.7" x2="74.3" y1="67.5" y2="67.5" gradientUnits="userSpaceOnUse"><stop stop-color="#FFC044" offset="0"/><stop stop-color="#D95F23" offset=".8"/></linearGradient><path d="M72.8 74.2c-2.8-2.8-6.5-3.5-10.5-5-11.4-3-22-5.5-33-10.1-3.2-1-6.3-1.4-9.5-2.1a20 20 0 0 1-9.8-6.6c-.2.7-.3 1.5-.3 2.3.2 5.4 0 9.4 1.4 11.3 1.3 2 40.6 13.4 50.9 16.8 7.2 2.4 8.8 4 11.9 3.8-.4-4 1.7-7.7-1-10.4z" fill="url(#g)"/><linearGradient id="h" x1="10" x2="117.8" y1="44.9" y2="44.9" gradientUnits="userSpaceOnUse"><stop stop-color="#FFF2D9" offset="0"/><stop stop-color="#F7D398" offset=".8"/></linearGradient><path d="M117.7 36.5c.5-4.5-.6-4.7-6-6-5.6-1-40.6-11.8-45.9-13.2S57.5 14.7 54 16s-7.2 3.5-7.2 3.5c-8.5 6.4-32 25.4-32 25.4s-3.7 1.8-4.8 5.6c2.7 3.3 6 5.5 9.8 6.6 3.2.7 6.3 1 9.4 2 11.2 4.7 21.7 7.1 33.1 10.3 3.8 1.3 7.9 2.5 10.7 5 1-1.2 3-.9 4.2-2 37.2-29.6 40.5-35.6 40.5-35.8z" fill="url(#h)"/><linearGradient id="i" x1="72.8" x2="118.4" y1="59.2" y2="59.2" gradientUnits="userSpaceOnUse"><stop stop-color="#FFB219" offset="0"/><stop stop-color="#CA4300" offset=".8"/></linearGradient><path d="M76.8 71.2c-1.2 1-4 2.8-4 3 .4 3.7.5 10.7.8 10.6 3.3-1 11-7.3 17.1-11.8 6.1-4.5 26.8-24.3 27.4-26 .6-1.6.2-4 .1-5.7 0-2.5-.2-5.1-.4-7.7.2 2.7-1.5 4.4-3 5.8-11.9 11.2-24 20.5-38 31.8z" fill="url(#i)"/><path d="M57 18.6c1.5 0 3.3.5 5.9 1.2l2.1.5L80.6 25c12.6 3.7 26.8 8 30.4 8.7 1.4.3 3 .7 3.7 1v.1l.1 1a155.4 155.4 0 0 1 .4 7c0 1 .2 2.3 0 3 0 0 0 .2-.2.3a3.1 3.1 0 0 0 1.3 5c.8.2 1.5.6 2 1l1.2.4.1.6v.5c0 .6.2 1.3.5 2l.5 1c-.6.4-1 1-1.2 1.8s0 1.6.4 2.2a4.5 4.5 0 0 0-2.7 2.4 5 5 0 0 0-.1 4c.4 1 1 1.8 1.9 2.5l-.6.6a3.1 3.1 0 0 0-2 3.2 169.4 169.4 0 0 1 .3 7.2c0 .9.2 2.2 0 3a303.3 303.3 0 0 1-31 28.2 95.6 95.6 0 0 1-10.7 7.5h-.2c-.9 0-1.8-.3-3.8-1.2-1.5-.6-3.6-1.5-6.5-2.4L49.7 111a552 552 0 0 1-34.8-11.4c-.4-1.2-.5-4-.5-6.4l-.1-2.8a4.5 4.5 0 0 1 .5-2.3c.6-1.2.4-2.6-.5-3.6L14 84l-.3-.3a27 27 0 0 1 2.2-2l.8-.7c1-1 1.3-2.6.7-3.9a3.1 3.1 0 0 0-3.4-1.5l-.5-.5c.5-1 .5-2.1 0-3-1-1.9-3-3-5-3-.1-.3-.4-.5-.6-.7l1.5-1.7.4-.6c.6 0 1.2-.2 1.8-.4a3.1 3.1 0 0 0 1.8-4 25 25 0 0 1-.5-6.4l-.1-2.8.1-1.3c.7-2.4 3.2-3.7 3.2-3.7l.7-.4C17 47 40 28.3 48.6 22c.6-.4 3.7-2.2 6.4-3.1.6-.2 1.3-.3 2-.3m-.2-3.2c-1 0-1.9.2-2.9.5-3.4 1.2-7.2 3.5-7.2 3.5-8.6 6.4-32 25.4-32 25.4s-3.7 1.8-4.8 5.6c-.2.7-.3 1.5-.3 2.4.2 4.5.1 8 .8 10.1l-.8.2c-.8 0-1.6-.4-2.9-1-.3.5-.6 1-.7 1.6l1 1-1.9 2.1C5 66.3 4.5 66 4 66l-.3 5.4a2.7 2.7 0 0 0 2.5-.3c-.4 1.5 0 3.3 1 4.3.8-.7 1.4-1.9 1.4-3.1.9 0 1.7.5 2.2 1.4L9 76.5c.4.9 1.2 1.4 2 1.4.2 0 .5 0 .7-.2a7 7 0 0 0 1.3 2.6l-1.5 1.4c-1.4 1.6-1.2 2.9.2 4.5l.3.4a7.7 7.7 0 0 0-.9 3.8c.2 5.4 0 9.4 1.4 11.3 1.3 1.9 40.6 13.4 51 16.8 6.5 2.2 8.5 3.8 11.2 3.8h.2l.1.2c3.3-1 11-7.4 17.1-11.8 6.1-4.5 26.8-24.3 27.4-26 .6-1.6.2-4 .2-5.7l-.4-6c1.4-.5 2.6-2 2.8-3.8.1-.4.2-.9.1-1.3-1.3-.6-3-2.1-2.3-3.6.2-.6.7-.9 1.3-.9l1 .3a6 6 0 0 1 1.6 2.4c1.2-2.3.6-5.7-1.3-7.1 1.5-.4 2.6-2.3 2.5-4.2-.2.4-.5.6-.8.6-.5 0-1-.4-1.3-1l-.2-1.1v-2c-.1-1.1-.6-2.3-1.4-2.5h-.2c-.4 0-.7.2-1 .4-.8-.5-1.7-1-2.7-1.3l.7-1c.5-1.5.2-4 .1-5.7a132 132 0 0 0-.4-6.6c0-2.8-1.6-3.1-6.2-4.1-5.5-1.2-40.5-11.9-45.8-13.3-3.8-1-6.4-1.9-8.9-1.9zM14 79.5V79l.8-.2-.8.7z" fill="#424242" opacity=".2"/></svg>