<svg viewBox="0 0 128 128" xmlns="http://www.w3.org/2000/svg"><linearGradient id="a" x1="-8.7" x2="86.1" y1="24.5" y2="123.5" gradientTransform="rotate(-2.3 61.6 69.5)" gradientUnits="userSpaceOnUse"><stop stop-color="#238D45" offset="0"/><stop stop-color="#146349" offset="1"/></linearGradient><path d="M89.3 101.7s-19.3-1.4-34.8-1.9c-15.4-.5-24.5-1.5-29.2-11.5a41.4 41.4 0 0 0-12.5-17.8C6.6 65-2.2 50 9.5 44.5s46.1 24.2 46.1 24.2 35.7 20.5 33.7 33z" fill="url(#a)"/><linearGradient id="b" x1="23.1" x2="119.1" y1="-4.2" y2="96.1" gradientTransform="rotate(-2.3 61.6 69.5)" gradientUnits="userSpaceOnUse"><stop stop-color="#238D45" offset="0"/><stop stop-color="#146349" offset="1"/></linearGradient><path d="M98.7 95.2s-3.3-8.4-9.7-14.8-8.8-8.7-10.9-13.8-2.3-22.7-5.5-26.3-57.9-25-57.9-25S28.4 2.6 36.2 5.1s11.5 8.7 15.5 10.6 12-.2 18.5 6.7 9.3 15.7 14 18.3S96.8 47 98.4 59.5s7.8 43.8 7.8 43.8l-7.5-8.1z" fill="url(#b)"/><linearGradient id="c" x1="8.7" x2="93.4" y1="9.6" y2="110.9" gradientTransform="rotate(-2.3 61.6 69.5)" gradientUnits="userSpaceOnUse"><stop stop-color="#4BBC45" offset="0"/><stop stop-color="#3D8749" offset="1"/></linearGradient><path d="M105.5 100.5C93 88.8 91.8 80.2 86.4 65.6c-4.8-12.8 0-22-16.5-28.3C50 29.7 60.1 23.2 43 15 32.9 10.2 24.5 1.2 15 5.5 4.6 10 7.3 19.2 7 29.5c-.3 7.5-8.5 17.9 5.5 24.3 14.1 6.4 6.2 22.2 15.1 30.4 12 11 27.5-.5 43.5 7.9 21.6 11.2 37.4 11 34.4 8.4z" fill="url(#c)"/><path d="M32.5 35a385.8 385.8 0 0 1 34.7 40c2.6 3.5 5 7.1 7.4 10.8 2.6 3.8 5.4 7.6 8.7 11 3.3 3.5 15 18.7 22.4 23.5 10 6.5 30.1 4.3 9.6-13.6C111.8 105 93 92.6 89.8 90s-6-5.7-8.6-9c-2.9-3.4-5.8-7-8.8-10.2a391.9 391.9 0 0 0-39-36.6c-1.2-1-2-.2-.9 1z" fill="#E9E8D8"/><path d="M30.4 73.8c3.1 3.7 7.9 5.6 12.5 6.5 4.7 1 9.4 1.3 14 2.2 9.2 1.8 17.8 6 24.5 12.3l2-2.2a52.5 52.5 0 0 0-26.2-11.8c-4.8-.7-9.5-.7-14.1-1.5a21 21 0 0 1-12.4-5.7c-.5-.6-.8-.4-.2.2zM12.1 47a45.7 45.7 0 0 0 25 11.6c4.5.8 9.1 1.1 13.5 2.1 4.3 1 8.6 3 11 6.3l2.4-2a17 17 0 0 0-6-4.5c-2.2-1-4.5-1.7-6.9-2.2-4.7-.8-9.3-1-13.9-1.4a46 46 0 0 1-24.9-10.3c-.6-.5-.8-.3-.2.2zM68 40.3c3.7 4.2 7.3 8.6 10.1 13.4A33.6 33.6 0 0 1 83 69.5c.2 2.8.3 5.7 1 8.6a42.5 42.5 0 0 0 12.6 22.4l2-2.3a37.5 37.5 0 0 1-12.7-20.6c-.6-2.7-1-5.4-1.2-8.2A35 35 0 0 0 79 53.2c-3-4.9-7-9-10.8-13.2-.7-.7-.9-.5-.2.3z" fill="#E9E8D8"/><path d="M28.2 12.1c6.3 7.5 11.6 15.9 15.5 24.7 2 4.4 3.4 9.1 5.7 13.6A42 42 0 0 0 59 62.2l2-2.3c-3.7-3-7-6.5-9.4-10.6-2.3-4-4-8.8-6.2-13.2-4.5-8.8-10.1-17-16.8-24.2-.6-.6-.8-.4-.3.2zm38 33.4c2.1 6.3 5.2 12.3 6.2 18.7l.7 4.9a31.4 31.4 0 0 0 6.2 14l2.3-2a27.7 27.7 0 0 1-6.5-12.4l-1-4.9c-1.6-6.6-5-12.3-7.6-18.4-.2-.5-.5-.4-.3.1zM30.5 69.3a122 122 0 0 0 20.3 1.6c2.3 0 4.5-.1 6.6.2 2.1.3 4 1.3 5.6 2.8 1.7 1.3 3 3 4.6 4.8 3 3.5 6.9 6.4 11 8.5l1.4-2.7A34 34 0 0 1 69.3 77c-1.5-1.6-3-3.3-5-4.8a13 13 0 0 0-6.6-2.8c-2.4-.3-4.7 0-7 0a126 126 0 0 1-20.2-.5c-.8-.1-.8.1 0 .3z" fill="#E9E8D8"/><path d="M75.1 77.7l-.6 1.9 2.6-1.5-1.7-.6-.3.2z" fill="#E9E8D8"/><path d="M56.2 33c3.1 7.5 3.6 15.8 6 23.8 1 4 2.9 7.9 5.1 11.3L74 78.5l2.5-1.7-7-10a38.8 38.8 0 0 1-5.7-10.6c-2.7-7.6-3.6-16-7.2-23.4-.3-.7-.6-.6-.3.1zm-42.5-.8A53.7 53.7 0 0 0 39 49l5.8 1.8c1.8.6 3.7 1.4 5.2 2.4s2.8 2.3 3.6 3.8l2.7-1.4c-1.2-2-3-3.6-4.9-4.7-1.9-1.1-4-1.8-6-2.4l-5.8-1.4a52.8 52.8 0 0 1-25.5-15c-.5-.6-.7-.4-.3.1zm11.8 17.2a30 30 0 0 1 4.2 2l1.8 1.3 1.6 1.6c2.2 2.3 5.1 3.7 8 4.5l.3-.7c-3-.7-5.8-2-8-4l-1.7-1.6c-.6-.5-1.2-1-1.9-1.3a30.2 30.2 0 0 0-4.3-1.8zM36.6 65c2.7.4 5.3 1.3 7.7 2.5l3.6 1.9c1.3.6 2.6.8 3.9 1.3l.2-.8-3.9-1-3.6-1.8a23.6 23.6 0 0 0-8-2zm1.9 19.8c3.6 0 7-1.4 10.5-2 3.5-.8 7-.9 10.5-.2l.1-.7c-3.5-.6-7.2-.5-10.7.4-3.5.9-6.8 2.2-10.4 2.4-.3 0-.3.1 0 .1z" fill="#E9E8D8"/><path d="M49 31.8c1.4 1.6 2.5 3.6 3.6 5.5l3.1 5.8L62 54.7l.7-.4-9.9-17.1a33.7 33.7 0 0 0-3.8-5.5zm17 21.9c1.8 4.4 5.5 7.7 7.6 11.8l.6-.4C71.8 61 68 58 66.1 53.7c-.1-.2-.2-.2 0 0zm8.8 3.4a47 47 0 0 1 9 14l.6-.3a47.2 47.2 0 0 0-9.6-13.7z" fill="#E9E8D8"/><path d="M20.1 7.4c1.9 0 3.9.5 6.4 1.7A3 3 0 0 0 29 9c2-.9 3.6-1.3 5-1.3l1.3.1c4.2 1.4 7 4 9.7 6.4 1.8 1.6 3.5 3.2 5.5 4.1 1.7.8 3.7 1 5.9 1.3 4 .4 8 .9 11.6 4.8 2.7 2.9 4.8 6.2 6.7 9.2 2.6 4.2 4.8 7.8 8.2 9.6l.2.2c4.6 2.4 10.8 5.7 12.2 16.4 1.4 10.2 5.6 32.2 7.3 41.1.1.6.3 1 .7 1.5l.9.9a231 231 0 0 0 9.4 5.8c8.5 7.5 7.6 10.3 7.6 10.3-.2.4-1.4 1.2-4 1.2-3.3 0-7.1-1.2-9.8-2.9-5.3-3.4-13.4-13-17.7-18.1a3 3 0 0 0-2.1-1.1c-5.8-.4-20.5-1.4-33-1.8-15.5-.5-22.8-1.5-26.6-9.7a44.5 44.5 0 0 0-13.2-18.8c-5-4.5-10.3-14.1-7-18.7a3 3 0 0 0 .3-3.2c-1.5-2.7-.5-6.2.5-10 .6-2.2 1.3-4.5 1.3-6.7v-6c-.2-8.5 0-12.7 6.3-15.5 1.3-.6 2.6-.8 4-.8m0-3c-1.8 0-3.5.3-5.2 1C4.6 10 7.3 19.1 7 29.5c-.3 5.4-4.7 12.3-1.6 18.2-4.8 6.7 2.2 18 7.4 22.8 6.2 5.6 7.9 7.7 12.5 17.7s13.8 11 29.2 11.5c12.6.4 27.6 1.4 32.9 1.8 5 6 12.8 15.2 18.3 18.7 3.3 2.1 7.7 3.3 11.4 3.3 7.5 0 12-5-1.8-16.9a190.1 190.1 0 0 1-9.8-6.3c-1.5-8-5.9-30.7-7.2-40.9-1.7-12.5-9.3-16.3-14-18.9-4.8-2.5-7.7-11.3-14.1-18.2s-14.5-4.9-18.5-6.7S44 7.6 36.2 5c-.7-.2-1.5-.3-2.2-.3-2 0-4.1.6-6.3 1.6a18 18 0 0 0-7.6-2z" fill="#424242" opacity=".2"/></svg>