<svg viewBox="0 0 128 128" xmlns="http://www.w3.org/2000/svg"><radialGradient id="a" cx="42.5" cy="52.4" r="60.9" gradientTransform="rotate(-9.2 61.8 80.6)" gradientUnits="userSpaceOnUse"><stop stop-color="#FDD037" offset="0"/><stop stop-color="#FCCD36" offset=".2"/><stop stop-color="#F9C334" offset=".4"/><stop stop-color="#F4B32F" offset=".6"/><stop stop-color="#ED9B29" offset=".8"/><stop stop-color="#E47D21" offset=".9"/><stop stop-color="#DE6B1C" offset="1"/></radialGradient><path d="M58.5 22.1a54 54 0 0 0-35.1 23.2A109 109 0 0 0 14.7 61C11 69 5.2 77.3 4.2 86.5c-2.2 18.7 16.6 22.8 31.4 22.8 14.7 0 30.7-5.7 43.1-13.5A49.5 49.5 0 0 0 101 67.5c3.8-14.6-2-30.7-14-39.7a33 33 0 0 0-28.5-5.7z" fill="url(#a)"/><path d="M67.4 24.4a29.2 29.2 0 0 1 17.7 6 35.2 35.2 0 0 1 12.8 36.2A46 46 0 0 1 77 93.1c-13 8.1-28.4 13-41.4 13-6.9 0-19.3-1-25.1-7.6-2.7-3-3.7-6.7-3.1-11.6.7-6.3 4-12.4 7-18.3l3.3-6.3a103.7 103.7 0 0 1 11-18.5 50.9 50.9 0 0 1 38.7-19.4m0-3.2a60.4 60.4 0 0 0-21.4 5 54 54 0 0 0-22.6 19.1A109 109 0 0 0 14.7 61c-3.9 8-9.5 16.3-10.5 25.5-2.2 18.7 16.6 22.8 31.4 22.8 14.7 0 30.7-5.7 43.1-13.5A49.5 49.5 0 0 0 101 67.4c3.8-14.5-2-30.6-14-39.6a33 33 0 0 0-19.6-6.6z" fill="#424242" opacity=".2"/><linearGradient id="b" x1="99.1" x2="102.4" y1="32.2" y2="36.4" gradientTransform="rotate(-9.2 61.8 80.6)" gradientUnits="userSpaceOnUse"><stop stop-color="#0E7700" offset="0"/><stop stop-color="#415800" offset="1"/></linearGradient><path d="M96.2 32.5c-4.5-5-7.1-5.5-7.1-5.5l.5-1.2c.5-.9 2.9 0 7.7 5.3l-1 1.4z" fill="url(#b)"/><linearGradient id="c" x1="87.1" x2="114.3" y1="49.2" y2="37.4" gradientTransform="rotate(-15.8 169.5 22)" gradientUnits="userSpaceOnUse"><stop stop-color="#55B100" offset="0"/><stop stop-color="#0E7700" offset="1"/></linearGradient><path d="M90 32.7c-4.4 4.7-3 12.1.4 17 3.7 5.2 28.7 47.8 28.7 47.7-.5-16.2 6.2-59.1-25.4-68-1.3 1-2.6 2.2-3.7 3.3z" fill="url(#c)"/><linearGradient id="d" x1="87.1" x2="124.3" y1="49.2" y2="33.2" gradientTransform="rotate(-15.8 169.5 22)" gradientUnits="userSpaceOnUse"><stop stop-color="#55B100" offset="0"/><stop stop-color="#0E7700" offset="1"/></linearGradient><path d="M121.3 39.8c-3-9.5-11.3-14-15.4-14.6-4.6-.7-8.7 1.4-12.2 4.1C120.4 36 115.2 74 119 97.4c1.3-5.1 8.9-36.3 2.2-57.6z" fill="url(#d)"/><linearGradient id="e" x1="90.6" x2="104.4" y1="30.4" y2="30.4" gradientTransform="rotate(-9.2 61.8 80.6)" gradientUnits="userSpaceOnUse"><stop stop-color="#0E2400" offset="0"/><stop stop-color="#0E7700" offset=".4"/><stop stop-color="#55B100" offset="1"/></linearGradient><path d="M82.8 30.2s9.4-9.7 9.2-11.5l3.4 2.5s-9.3 9.3-10.5 11l-2-2z" fill="url(#e)"/><path d="M104 28.4h1.4c3 .5 10.2 4.1 12.7 12.4 5 15.5 2 36.5-.4 48-7.4-12.6-21.8-37-24.7-41a14 14 0 0 1-2.5-7c-.2-2.3.4-4.3 1.8-5.8l2.2-2.1.9.4c1.2.5 2.5 1 3.9 1.8.5.3 1 .5 1.5.5 1.2 0 2.3-.6 2.9-1.7.8-1.5.3-3.5-1.2-4.4l-1.3-.7c1-.3 2-.4 2.8-.4m-12-9.7a58 58 0 0 1-9.2 11.5l2 2 4.7-5c.6.2 2 .8 3.8 2.4a38 38 0 0 0-3.3 3.1c-4.4 4.7-3 12.1.4 17 3.7 5.2 28.6 47.7 28.7 47.7 1.3-5.1 8.9-36.3 2.1-57.6-3-9.5-11.2-14-15.4-14.6l-1.8-.1a16 16 0 0 0-9.2 3.4c-1.7-1.6-3-2.5-3.9-2.8l4.5-4.5-3.4-2.5zm8.8 13.6a31 31 0 0 0-4.3-2v-.1c1.5.6 3 1.3 4.4 2.1z" fill="#424242" opacity=".2"/><radialGradient id="f" cx="40" cy="57.9" r="56.3" gradientTransform="rotate(-9.2 61.8 80.6)" gradientUnits="userSpaceOnUse"><stop stop-color="#fff" stop-opacity=".9" offset="0"/><stop stop-color="#fff" stop-opacity=".9" offset="0"/><stop stop-color="#fff" stop-opacity="0" offset="1"/></radialGradient><path d="M55.3 30.5A49.8 49.8 0 0 0 23 51.9a101 101 0 0 0-8 14.3C11.3 73.8 6 81.4 5 90c-2 17.3 15.4 21 29 21s28.4-5.2 39.9-12.4a46.2 46.2 0 0 0 20.6-26.2 35.5 35.5 0 0 0-13-36.7 33.5 33.5 0 0 0-26.3-5.1z" fill="url(#f)" opacity=".5"/></svg>