<svg viewBox="0 0 128 128" xmlns="http://www.w3.org/2000/svg" xmlns:xlink="http://www.w3.org/1999/xlink"><linearGradient id="a" x1="64.4" x2="64.4" y1="100.1" y2="122.2" gradientUnits="userSpaceOnUse"><stop stop-color="#572C00" offset="0"/><stop stop-color="#522C02" offset=".4"/><stop stop-color="#452A08" offset=".9"/><stop stop-color="#402A0A" offset="1"/></linearGradient><path d="M83.3 123.7c0-1.3 1-2.4 2-2.4s1.8.9 2 2l5-1c0-1.2 1-2.2 2-2.2a2 2 0 0 1 1.9 1.4l5-1.2c.2-1.2 1-2 2-2 .6 0 1.2.4 1.6 1l3-1v-.3c0-1.1.8-2 1.8-2 .7 0 1.3.5 1.5 1.2l2.6-1c0-1 .8-1.9 1.7-1.9.4 0 .8.2 1.1.5a24 24 0 0 0 4.3-2.6c-.2-.3-.2-.6-.2-1 0-1.1.7-2 1.7-2 .3 0 .6 0 .9.3l.4-1 .1-.4c.4-.7 1.6-3.4-.3-6.9-.3-.6-1-1-1.7-1.1l-42.5-3.7H79l-69.3 2a2 2 0 0 0-1.8 1L6 102.5l-.3.4c-.4.4-1.3 1.6-1.3 5.7-.1 5-.2 7.2 1 8.6.7.9 2 1 3 .2.3-.2.7-.4 1.1-.4 1.2 0 2.1 1 2.1 2.3l-.1.8 3.4.7c.9.1 1.7-.3 2.2-1 .4-.6 1-1 1.6-1 1.2 0 2 1.1 2 2.4v.4l3.7.2a2 2 0 0 0 1.9-1c.3-.7 1-1 1.7-1a2 2 0 0 1 1.8 1c.4.6 1.2 1 2 1l1.7-.2c.8 0 1.5-.5 1.9-1.3a2 2 0 0 1 1.9-1.3 187.3 187.3 0 0 0 3.6.8c1.8-1 5-2.1 12.7-1.3 10.3 1 25 5.2 29 5.3h.7v-.2z" fill="url(#a)"/><path d="M85 116.2c-5.6.3-11.4-.5-16.9-1.5-5.2-1-10.2-2.8-15.4-3.8-11.4-2.1-23-1.6-34.6-2.4-3.3-.2-15-1.4-11.8-7.4 0-.3.2-.5.4-.7.2.2 4.2 5.3 13.5 5.4h5.5c10 0 23.6.1 30.7 2.4 6.8 2 25 7.6 34.6 4.4 14.3-4.7 28.7-8.4 29.6-10.5.6-1.7.6-3.3.6-5a5 5 0 0 1 1.8 4.6 5.7 5.7 0 0 1-2.4 3.5c-4 3-9.7 4.5-14.4 6a90.7 90.7 0 0 1-21.1 5z" fill="#FFE9CC"/><linearGradient id="b" x1="63.4" x2="63.4" y1="29.9" y2="113.8" gradientUnits="userSpaceOnUse"><stop stop-color="#FFD4A1" offset="0"/><stop stop-color="#F3C68E" offset=".2"/><stop stop-color="#D19F57" offset=".7"/><stop stop-color="#C48F41" offset="1"/></linearGradient><path d="M121 95.9c-1.8-8.6-7.8-8.8-17.3-9.9S71.2 75.7 64.2 62.6s-10.6-25.1-12-30.1c-1.5-5-5.4-1.1-6.2-1 0 0-2.4 2.1-7.3 3.3 1.2 5.3 3.3 7.8-.5 11.6-7.7 7.3-19.7 3.9-30.4 3.7.4 5.8.2 10.7-.4 17-.9 9.1-4.3 32.3.3 35.1a38 38 0 0 0 22 4.3c17.5-.6 42.3 6.5 46.8 7 8.4 1 16.9-.6 26.4-3.7 16-5 20-5.3 18.2-13.9z" fill="url(#b)"/><path d="M38.5 46.6c3.3-3.4 4.1-8 3.6-12.8a3 3 0 0 0-3.5-2.6c-2.6.4-5.7.8-9.2.8-21.9 0-24-1.3-24 9.4 0 2.3 0 4.4.2 6.5a3 3 0 0 0 2.8 2.9c10.9.5 22.4 3.2 30-4.2z" fill="#6E4631"/><circle cx="48.9" cy="45.3" r="3" fill="#6B452C"/><circle cx="52.4" cy="54" r="3" fill="#6B452C"/><circle cx="56.5" cy="61.9" r="3" fill="#6B452C"/><circle cx="61.5" cy="68.8" r="3" fill="#6B452C"/><circle cx="67.4" cy="75.9" r="3" fill="#6B452C"/><circle cx="74.5" cy="82.1" r="3" fill="#6B452C"/><path d="M48.9 46a.9.9 0 0 1-.4-1.7l6.6-3c.4-.2 1 0 1.1.4.2.5 0 1-.4 1.2l-6.6 3H49zm3.4 8.6a.9.9 0 0 1-.3-1.7l6.6-3c.4-.2.9 0 1.1.4.2.5 0 1-.4 1.2l-6.6 3h-.4zm4.1 8.3a.9.9 0 0 1-.3-1.7l6.6-3c.4-.2.9 0 1.1.4.2.5 0 1-.4 1.2l-6.6 3h-.4zm5.6 6.6a.9.9 0 0 1-.8-.5c-.3-.4-.1-.9.3-1.1l5.7-3.2c.5-.2 1 0 1.2.3s0 1-.3 1.2l-5.8 3.2H62zm6 6.8a.9.9 0 0 1-.7-.3.9.9 0 0 1 0-1.2l4.8-4.4c.4-.3 1-.3 1.2 0s.3 1 0 1.3L68.5 76l-.6.3zm6.8 6.2l-.6-.2a.9.9 0 0 1-.1-1.2l3.8-4.8c.3-.4.8-.5 1.2-.2s.4.9.1 1.3L75.4 82c-.1.2-.4.4-.6.4z" fill="#FFE2B0"/><defs><path id="c" d="M121 95.9c-1.8-8.6-7.8-8.8-17.3-9.9S71.2 75.7 64.2 62.6s-10.6-25.1-12-30.1c-1.5-5-2.7-3.5-3.4-3.3 0 0-2.8 1.4-7.6 2.5 1.1 5.4.8 10.9-3 14.7-7.8 7.3-19.7 3.9-30.5 3.7.4 5.8.3 10.7-.3 17-.9 9.1-4.3 32.3.3 35.1a38 38 0 0 0 22 4.3c17.5-.6 42.3 6.5 46.8 7 8.4 1 16.8-.6 26.4-3.7 16-5 20-5.3 18.2-13.9z"/></defs><clipPath id="d"><use xlink:href="#c"/></clipPath><path d="M32.6 112.2h-1.7c.2-12.6-3.5-21.7-11-26.9-8-5.5-17.7-4.8-19-4.3.2 0 .4-.2.5-.5L-.3 80c.2-.4.3-.9 3.5-1 1.5 0 3.9 0 6.7.5 8.7 1.6 23.2 8 22.7 32.7z" clip-path="url(#d)" fill="#8C6200" opacity=".6" stroke="#8C6200" stroke-miterlimit="10"/><path d="M49.2 33.1v.2a169.7 169.7 0 0 0 10.2 26.5l.5.7c0 .3.2.6.3.8l1.4 2.7c.5 1 1.2 2 2 3.2l.7.7.5.8a40.2 40.2 0 0 0 6 5.8 61.2 61.2 0 0 0 7 4.8 74.8 74.8 0 0 0 27.3 9.9c9 1 11.8 1.6 13 7.3l.2 1.1a3 3 0 0 0 1 1.8c.5.4.8 1 .8 1.5 0 .7.3 1.3.7 1.8.8 1.6.6 3 .4 3.6a5 5 0 0 0-3.6 4.5l-1.1.7a4.5 4.5 0 0 0-5 2c-.6-.4-1.2-.5-2-.5a4.7 4.7 0 0 0-4.2 2.8 4.8 4.8 0 0 0-6.3 2l-1.6.4a4.8 4.8 0 0 0-7.4 1.5l-1 .2c-1-1-2.3-1.6-3.7-1.6a5 5 0 0 0-4.1 2.3l-8.1-1.6c-6-1.3-13.2-3-19.1-3.5l-5-.3a21 21 0 0 0-8.5 1.4h-.8a5 5 0 0 0-6.8 2l-.8.1a5 5 0 0 0-4-2 5 5 0 0 0-4 2.1h-.8a5 5 0 0 0-4.5-3 5 5 0 0 0-3.8 2l-.6-.2a5 5 0 0 0-4.8-3.6c-.7 0-1.4.2-2.1.5v-5.9c0-2.5.4-3.4.5-3.6a3 3 0 0 0 .8-2l.1-.5.1-.2c.6-.8.7-1.9.2-2.8-1.9-4.2-.2-19.1.6-27l.6-5.2c.6-6.7.7-11.5.4-16.8a3 3 0 0 0-2.2-2.7c-.2-2.4-.2-4.4-.2-6.4 0-3.5.3-5 .9-5.5 1.3-.9 5.5-1 9.7-1h10.5c3.2 0 6.5-.2 9.7-.7a3 3 0 0 0 4 2.3c2.2-.9 3.7-1.9 4.4-2.4l.8-.5.8-.5m.5-3.1c-1.6 0-3.2 1.5-3.7 1.6 0 0-1.3 1.1-3.9 2.2a3 3 0 0 0-3.5-2.5c-2.6.4-5.7.8-9.2.8H19c-12.1 0-13.5.7-13.5 9.4 0 2.3 0 4.4.2 6.5a3 3 0 0 0 2.2 2.7C8.1 56.2 8 61 7.4 67c-.8 8.3-3.6 27.7-.9 33.7l-.2.4c-.4.6-.5 1.3-.5 1.8-.4.4-1.2 1.6-1.3 5.7-.1 5-.2 7.2 1 8.6.4.5 1 .7 1.6.7.5 0 1-.1 1.4-.5.3-.3.7-.4 1.2-.4 1 0 2 1 2 2.3l-.1.8a79.7 79.7 0 0 0 3.8.7c.7 0 1.4-.4 1.8-1 .4-.6 1-1 1.6-1 1.2 0 2 1.1 2 2.4v.3l3.7.3a2 2 0 0 0 1.8-1 2 2 0 0 1 1.8-1.1 2 2 0 0 1 1.8 1c.4.7 1.1 1 1.9 1h.1l1.7-.1c.8-.1 1.5-.6 1.9-1.3a2 2 0 0 1 1.9-1.4c.5 0 .9.2 1.3.5l2.3.3c1.4-.7 3.6-1.5 8-1.5 1.4 0 3 0 4.7.2 10.3 1 25 5.3 29 5.4h.6v-.2c0-1.3 1-2.3 2-2.3s1.9.8 2 2l5-1c0-1.2 1-2.3 2-2.3.9 0 1.6.6 2 1.5l5-1.2c0-1.2.9-2 1.9-2 .7 0 1.3.3 1.6 1l3-1v-.3c0-1.1.8-2 1.8-2 .7 0 1.3.4 1.6 1.2l2.5-1c0-1 .8-1.9 1.7-1.9.5 0 .9.2 1.2.5a24 24 0 0 0 4.2-2.6l-.2-1c0-1.2.8-2 1.7-2 .4 0 .7 0 1 .2l.3-.9.1-.4a7.3 7.3 0 0 0-.6-7.3c0-1.4-.7-2.8-1.8-3.7l-.2-1.2c-1.9-8.6-7.9-8.8-17.4-10-5.5-.6-15.5-4-24.3-9.2l-.3-.6a.8.8 0 0 0-.5-.1h-.3a59 59 0 0 1-5.5-3.8l.5-.5c.3-.3.4-.9 0-1.2a.8.8 0 0 0-.6-.3c-.2 0-.4 0-.6.2l-.7.7c-1.6-1.4-3-2.8-4.3-4.4l1-.5c.4-.2.6-.7.3-1.2a.9.9 0 0 0-1.1-.3l-1.3.7-1.8-2.8L63 60l.5-.3c.4-.2.6-.7.4-1.1a.8.8 0 0 0-1.1-.4l-.6.2-3.1-6.8.3-.1c.4-.2.6-.8.4-1.2a.8.8 0 0 0-1.1-.4l-.3.1c-1-2.5-2-4.9-2.7-7l.2-.2c.5-.2.7-.7.5-1a.8.8 0 0 0-1.2-.5H55l-2.8-8.8c-.6-2-1.5-2.6-2.5-2.6z" fill="#424242" opacity=".2"/></svg>