<svg viewBox="0 0 128 128" xmlns="http://www.w3.org/2000/svg" xmlns:xlink="http://www.w3.org/1999/xlink"><defs><path id="a" d="M4 4h120v120H4z"/></defs><clipPath id="b"><use xlink:href="#a"/></clipPath><g clip-path="url(#b)"><linearGradient id="c" x1="47.532" x2="57.699" y1="44.025" y2="59.858" gradientUnits="userSpaceOnUse"><stop stop-color="#fff" offset=".339"/><stop stop-color="#F1F1F1" offset=".44"/><stop stop-color="#DFDFDF" offset=".609"/><stop stop-color="#D4D4D4" offset=".789"/><stop stop-color="#D1D1D1" offset=".999"/></linearGradient><path d="M47.51 57.63c.06 1.8.26 3.81 1.62 4.98 1.1.95 2.73 1.09 4.13.71 1.41-.38 2.64-1.2 3.86-2 1.71-1.14 3.47-2.31 4.69-3.97s1.82-3.93.99-5.81c-.74-1.67-2.4-2.71-3.97-3.64-2.09-1.24-7.99-6.28-10.53-3.99-2.17 1.96-.83 10.98-.79 13.72z" fill="url(#c)" stroke="#999" stroke-linejoin="round" stroke-miterlimit="10" stroke-width="3"/><linearGradient id="d" x1="67.365" x2="83.928" y1="27.537" y2="27.537" gradientUnits="userSpaceOnUse"><stop stop-color="#CFCFCF" offset=".079"/><stop stop-color="#BEC1C3" offset=".324"/><stop stop-color="#929DA3" offset=".805"/><stop stop-color="#818E96" offset=".98"/></linearGradient><path d="M67.38 19.19c-.06-.76-.01-1.67.65-2.05.73-.43 1.62.12 2.28.65 3.03 2.41 6.05 4.82 9.08 7.23 1.64 1.31 3.36 2.71 4.13 4.66.91 2.29.25 5.1-1.58 6.75-3.41 3.07-7.58 1.57-9.66-1.83-2.82-4.63-4.5-10.01-4.9-15.41z" fill="url(#d)" stroke="gray" stroke-linejoin="round" stroke-miterlimit="10" stroke-width="3"/><linearGradient id="e" x1="76.072" x2="76.072" y1="28.607" y2="122.35" gradientUnits="userSpaceOnUse"><stop stop-color="#CFCFCF" offset=".079"/><stop stop-color="#C9CACA" offset=".256"/><stop stop-color="#B7BBBE" offset=".498"/><stop stop-color="#9BA3A9" offset=".776"/><stop stop-color="#818E96" offset=".98"/></linearGradient><path d="M126 121.44c-3.3-3.71-8.89-10.93-13.25-16.56-10.48-13.52-10.68-13.52-11.82-13.52-.07 0-.16.01-.23.02-.34.05-.66.22-.89.48-3.19 3.52-6.19 6.08-9.43 8.06-5.87 3.57-11.83 5.3-18.22 5.3-4.34 0-8.99-.78-14.22-2.4-.53-.16-1.13-.24-1.84-.24-2.41 0-5.75.92-9.28 1.9-3.43.95-6.97 1.92-9.31 1.92-.87 0-1.32-.14-1.55-.25-4.66-2.4-6.34-5.58-7.69-8.14-.2-.38-.39-.74-.58-1.07-2.9-5.17-1.37-7.83 1.66-13.13.43-.76.89-1.56 1.36-2.4 3.65-6.63 9.51-11.76 15.2-16.44 2.46-2.02 4.41-3.14 6.47-4.32 2.88-1.64 5.86-3.34 10.52-7.53 1.5-1.35 4-4.32 7.15-8.07 7.42-8.83 18.63-22.18 25.96-24.89 4-1.48 8.22-2.23 12.56-2.23 8.52 0 15.24 2.91 17.42 3.98v99.53z" fill="url(#e)"/><path d="M108.33 19.43c7.32 0 13.67 2.24 15.67 3.43v94.49c-3-4.01-7.29-9.49-10.31-13.39-10.93-14.1-10.92-14.1-12.88-14.1-.15 0-.25.01-.39.03-.69.1-1.28.44-1.75.95-3.09 3.41-5.96 5.88-9.08 7.78-5.62 3.42-11.32 5.08-17.43 5.08-4.18 0-8.69-.76-13.77-2.33-.67-.21-1.42-.31-2.28-.31-2.61 0-6.04.95-9.68 1.95-3.33.92-6.77 1.87-8.91 1.87-.62 0-.86-.09-.86-.09-4.24-2.19-5.8-5.14-7.05-7.51-.21-.39-.4-.76-.59-1.1-2.48-4.42-1.27-6.54 1.66-11.65.44-.77.9-1.57 1.37-2.43 3.52-6.4 9.26-11.41 14.84-16 2.36-1.94 4.17-2.98 6.26-4.17 2.81-1.6 5.99-3.42 10.78-7.72 1.58-1.42 4.1-4.42 7.3-8.22 6.87-8.18 18.25-21.87 25.21-24.45 3.81-1.39 7.73-2.11 11.89-2.11m0-3c-4.04 0-8.35.62-12.95 2.32-10.83 4-28.58 28.81-33.53 33.25-7.99 7.17-10.97 6.92-16.91 11.8C39 68.69 33.12 73.9 29.39 80.67c-3.73 6.78-6.79 10.25-3.01 16.99 1.45 2.59 3.09 6.82 8.89 9.81.57.3 1.34.42 2.24.42 4.96 0 14.07-3.82 18.59-3.82.54 0 1.01.05 1.4.17 5.12 1.58 9.96 2.46 14.66 2.46 6.47 0 12.68-1.61 19-5.45C94.87 99 97.99 96 100.92 93h.01c1.33 0 23.07 29.35 26.07 32V21s-7.72-4.57-18.67-4.57z" fill="gray"/><linearGradient id="f" x1="42.113" x2="7.577" y1="146.46" y2="106.92" gradientTransform="rotate(3.139 1248.243 58.168)" gradientUnits="userSpaceOnUse"><stop stop-color="#D1D1D1" offset=".001"/><stop stop-color="#D4D4D4" offset=".112"/><stop stop-color="#DFDFDF" offset=".206"/><stop stop-color="#F1F1F1" offset=".295"/><stop stop-color="#fff" offset=".348"/></linearGradient><path d="M16 33.33c3.67 17.5 2.78 21.22 22 32.67 1.08.64 3.8 1.69 4.38 2.82 2.96 5.85-2.71 12.51-7.38 12.85-4.83.35-23-6.15-23-31.92 0-6.75 3.7-17.85 4-16.42z" fill="url(#f)" stroke="#A1A1A1" stroke-linecap="round" stroke-linejoin="round" stroke-miterlimit="10" stroke-width="3"/><linearGradient id="g" x1="85.434" x2="103.27" y1="7.064" y2="34.897" gradientUnits="userSpaceOnUse"><stop stop-color="#CFCFCF" offset=".079"/><stop stop-color="#BEC1C3" offset=".324"/><stop stop-color="#929DA3" offset=".805"/><stop stop-color="#818E96" offset=".98"/></linearGradient><path d="M90.33 6.35c3.97 3.73 7.94 7.47 11.91 11.2 2.11 1.98 4.28 4.07 5.27 6.75 1.62 4.44-.88 9.91-5.35 11.71-6.13 2.46-12.29-1.86-13.57-7.58-1.74-7.68-2.62-14.96 1.74-22.08z" fill="url(#g)" stroke="gray" stroke-linejoin="round" stroke-miterlimit="10" stroke-width="3"/><ellipse transform="rotate(-30 82.196 58.44)" cx="82.2" cy="58.44" rx="7.19" ry="6.38" fill="#404040"/><path d="M44.49 88.22c1.37 1.94 1.48 7.09-1.52 9.2-2.99 2.11-7.95.39-9.32-1.55s-.06-5.22 2.94-7.34c3-2.11 6.53-2.25 7.9-.31z" fill="#404040"/><path d="M88.32 55.17c1.4-.74 1.7-2.56.51-3.37-2.79-1.9-6.77-2.12-10.25-.27s-5.51 5.28-5.5 8.65c.01 1.44 1.68 2.2 3.08 1.46l12.16-6.47z" fill="gray"/></g></svg>