<svg viewBox="0 0 128 128" xmlns="http://www.w3.org/2000/svg"><linearGradient id="a" x1="64" x2="64" y1="122.2" y2="5.6" gradientUnits="userSpaceOnUse"><stop stop-color="#603813" offset=".1"/><stop stop-color="#8C6239" offset=".8"/></linearGradient><path d="M64 122.2c-2.4-.8-11-4.4-18.9-9.5a55.6 55.6 0 0 1-12-11c-1.8-2.2-2.5-3-3.5-3-.5 0-1 .2-1.2.5a2 2 0 0 0-.5 1.7 6 6 0 0 1-.3 2 36.6 36.6 0 0 1-13-18.4c-.4-1.1-1.2-1.8-2.2-1.8-.8 0-1.5.4-2.1 1.4l-.2.4a5 5 0 0 1-1.4 2 37.6 37.6 0 0 1 3-31.3c.4-.7.4-1.5 0-2.2A2.3 2.3 0 0 0 9 52l-3 .8a36.5 36.5 0 0 1 11.6-23.7 2 2 0 0 0 .6-2.3c-.2-.8-1-1.4-1.9-1.6-1-.1-2-.5-2.7-.8A37 37 0 0 1 46.7 5.6 52 52 0 0 1 64 8.7a52.2 52.2 0 0 1 17.3-3 37 37 0 0 1 33.1 18.7c-.7.3-1.7.7-2.7.8a2.3 2.3 0 0 0-1.3 4A36 36 0 0 1 122 52.8l-3-.8-.7-.2c-.8 0-1.6.5-2 1.2-.4.7-.4 1.5 0 2.2 2.7 5 8.4 17.7 3 31.3a5.1 5.1 0 0 1-1.4-2l-.2-.4c-.6-1-1.3-1.4-2.1-1.4-1 0-1.8.7-2.2 1.8-1.1 4-4.4 11.8-13.1 18.4-.2-.6-.3-1.3-.3-2 0-.3 0-1-.5-1.6-.3-.4-.7-.6-1.2-.6-1 0-1.8.8-3.7 3a52.5 52.5 0 0 1-12.5 11c-8 4.7-16 8.5-18.2 9.5z" fill="url(#a)"/><path d="M81.3 7.1a35 35 0 0 1 30.9 16.5l-.7.1a3.8 3.8 0 0 0-2.2 6.5 36 36 0 0 1 11 20.6l-.9-.3a3.9 3.9 0 0 0-4.4 1.7 3.7 3.7 0 0 0 0 3.8 37 37 0 0 1 3.9 27.1c-1.1-1.6-2.4-2-3.3-2-1.3 0-3 .8-3.6 3-1 3.5-3.8 10-10.5 16-.1-.8-.4-1.4-1-1.9-.5-.6-1.3-1-2.2-1-1.7 0-2.7 1.1-4.8 3.5a51.3 51.3 0 0 1-12.1 10.7 266 266 0 0 1-17.5 9.2c-3-1.1-10.8-4.5-18-9.1-5.3-3.5-9.2-8-11.6-10.8-2-2.4-3-3.5-4.7-3.5a3 3 0 0 0-2.3 1c-.5.5-.8 1-.9 1.7A34 34 0 0 1 16 84.1c-.6-2.2-2.3-3-3.6-3-.9 0-2.2.4-3.3 2a37 37 0 0 1 4-27.1 4 4 0 0 0-.1-3.8 3.8 3.8 0 0 0-4.4-1.7l-1 .3a36 36 0 0 1 11-20.6c1.1-1 1.5-2.5 1-3.9a3.8 3.8 0 0 0-3-2.6h-.7A34.9 34.9 0 0 1 46.7 7 51 51 0 0 1 64 10.2a51 51 0 0 1 17.3-3m0-3.2a53.5 53.5 0 0 0-17.7 3c-1.9-.6-8.6-2.8-16.9-2.8a38.3 38.3 0 0 0-34.9 20.3c-.2.4 0 .9.4 1 .9.5 2.4 1.1 4 1.3.6.1.9.9.4 1.3A37.7 37.7 0 0 0 4.5 53.8a.8.8 0 0 0 1 .7l4-1.1h.2c.6 0 1 .5.7 1.1a39 39 0 0 0-2.8 33.4c.2.3.5.5.8.5.2 0 .3 0 .5-.2.8-.5 2-1.6 2.6-3.2v-.1c.4-.5.7-.7 1-.7.3 0 .5.3.6.7A38.4 38.4 0 0 0 28 104.8c.3 0 .6-.2.7-.5.4-.6.8-1.8.7-3.5 0-.4 0-.6.2-.6 1.1 0 6.1 8.3 14.8 13.9 9.3 6 19.6 9.9 19.7 9.9s9.4-4.4 18.9-10c8.9-5.1 14.3-13.7 15.4-13.7.1 0 .2.1.2.5a7 7 0 0 0 .8 3.6c.1.2.4.4.7.4l.5-.2c9.6-7 13.1-15.5 14.4-19.7 0-.4.3-.8.6-.8s.6.2 1 .8a6.8 6.8 0 0 0 2.6 3.3l.5.2c.3 0 .6-.2.7-.5a39.1 39.1 0 0 0-2.7-33.4c-.3-.6.1-1.2.7-1.2h.3l3.8 1.2h.3c.4 0 .8-.3.8-.8 0-12.8-8.6-22.3-12.1-25.7-.5-.4-.2-1.2.5-1.3 1.5-.2 3-.8 3.9-1.2.4-.2.5-.7.3-1.1A38.3 38.3 0 0 0 81.3 4z" fill="#61422A"/><circle cx="37.5" cy="36" r="11" fill="#FBB03B" stroke="#E68D00" stroke-linejoin="round" stroke-miterlimit="10" stroke-width="3"/><circle cx="37.5" cy="36" r="6.3" fill="#fff"/><circle cx="90.5" cy="36" r="11" fill="#FBB03B" stroke="#E68D00" stroke-linejoin="round" stroke-miterlimit="10" stroke-width="3"/><circle cx="90.5" cy="36" r="6.3" fill="#fff"/><linearGradient id="b" x1="64" x2="64" y1="101.5" y2="27.9" gradientUnits="userSpaceOnUse"><stop stop-color="#E6A500" offset="0"/><stop stop-color="#EAAC0D" offset=".1"/><stop stop-color="#F3BE2D" offset=".3"/><stop stop-color="#FACB44" offset=".5"/><stop stop-color="#FED252" offset=".7"/><stop stop-color="#FFD557" offset=".9"/></linearGradient><path d="M64 101.5c-23.4 0-38.5-14.1-38.5-36C25.5 42.8 40.5 28 64 28s38.5 14.8 38.5 37.6c0 21.9-15 36-38.5 36z" fill="url(#b)"/><path d="M64 29.4c22.5 0 37 14.2 37 36.2 0 21.2-14.2 34.4-37 34.4S27 86.8 27 65.5c0-22 14.5-36.1 37-36.1m0-3c-25.6 0-40 17-40 39.2S38.9 103 64 103s40-15.3 40-37.4-14.4-39.2-40-39.2z" fill="#E68D00"/><path fill="none" stroke="#000" stroke-linecap="round" stroke-linejoin="round" stroke-miterlimit="10" stroke-width="3" d="M64 92.4v-9.5"/><g fill="#404040"><ellipse cx="44.5" cy="57.8" rx="6.2" ry="7"/><ellipse cx="83.5" cy="57.8" rx="6.2" ry="7"/></g><g fill="#fff"><ellipse cx="54.1" cy="79.6" rx="12.6" ry="11.7"/><ellipse cx="73.9" cy="79.6" rx="12.6" ry="11.7"/></g><linearGradient id="c" x1="64" x2="64" y1="66.6" y2="75.9" gradientUnits="userSpaceOnUse"><stop stop-color="#4D4D4D" offset=".2"/><stop stop-color="#373737" offset=".4"/><stop stop-color="#0F0F0F" offset=".8"/><stop offset="1"/></linearGradient><path d="M64 75.5c3 0 5.8-3.2 7.5-5.7.8-1.2 0-2.8-1.5-2.8H58a1.8 1.8 0 0 0-1.5 2.8c1.7 2.5 4.5 5.7 7.5 5.7z" fill="url(#c)"/><path fill="none" stroke="#000" stroke-linecap="round" stroke-linejoin="round" stroke-miterlimit="10" stroke-width="3" d="M55.8 96.2l7.9-3.7m8.5 3.7l-8.4-3.7"/></svg>