<svg viewBox="0 0 128 128" xmlns="http://www.w3.org/2000/svg" xmlns:xlink="http://www.w3.org/1999/xlink"><defs><path id="a" d="M4 4h120v120H4z"/></defs><clipPath id="b"><use xlink:href="#a"/></clipPath><g clip-path="url(#b)"><linearGradient id="c" x1="47.5" x2="57.7" y1="44" y2="59.9" gradientUnits="userSpaceOnUse"><stop stop-color="#fff" offset=".3"/><stop stop-color="#F1F1F1" offset=".4"/><stop stop-color="#DFDFDF" offset=".6"/><stop stop-color="#D4D4D4" offset=".8"/><stop stop-color="#D1D1D1" offset="1"/></linearGradient><path d="M47.5 57.6c0 1.8.3 3.8 1.6 5 1.1 1 2.8 1.1 4.2.7 1.4-.4 2.6-1.2 3.8-2 1.7-1.1 3.5-2.3 4.7-4s1.8-3.9 1-5.8c-.7-1.6-2.4-2.7-4-3.6-2-1.2-8-6.3-10.5-4-2.2 2-.8 11-.8 13.7z" fill="url(#c)" stroke="#999" stroke-linejoin="round" stroke-miterlimit="10" stroke-width="3"/><linearGradient id="d" x1="67.4" x2="83.9" y1="27.5" y2="27.5" gradientUnits="userSpaceOnUse"><stop stop-color="#CFCFCF" offset=".1"/><stop stop-color="#BEC1C3" offset=".3"/><stop stop-color="#929DA3" offset=".8"/><stop stop-color="#818E96" offset="1"/></linearGradient><path d="M67.4 19.2c0-.8 0-1.7.6-2 .8-.5 1.7 0 2.3.6l9 7.2c1.7 1.3 3.5 2.7 4.2 4.7 1 2.3.3 5-1.6 6.7-3.4 3.1-7.5 1.6-9.6-1.8-2.8-4.6-4.5-10-5-15.4z" fill="url(#d)" stroke="gray" stroke-linejoin="round" stroke-miterlimit="10" stroke-width="3"/><linearGradient id="e" x1="76.1" x2="76.1" y1="28.6" y2="122.3" gradientUnits="userSpaceOnUse"><stop stop-color="#CFCFCF" offset=".1"/><stop stop-color="#C9CACA" offset=".3"/><stop stop-color="#B7BBBE" offset=".5"/><stop stop-color="#9BA3A9" offset=".8"/><stop stop-color="#818E96" offset="1"/></linearGradient><path d="M126 121.4c-3.3-3.7-8.9-10.9-13.3-16.5-10.4-13.5-10.6-13.5-11.8-13.5h-.2c-.3 0-.7.2-.9.5-3.2 3.5-6.2 6-9.4 8a34.2 34.2 0 0 1-18.2 5.3c-4.4 0-9-.8-14.3-2.4l-1.8-.2c-2.4 0-5.8.9-9.3 1.9-3.4 1-7 1.9-9.3 1.9-.9 0-1.3-.1-1.5-.3a16.8 16.8 0 0 1-7.7-8l-.6-1.2c-3-5.1-1.4-7.8 1.6-13l1.4-2.5a59.8 59.8 0 0 1 21.7-20.7A52.4 52.4 0 0 0 70 45c7.5-8.9 18.7-22.2 26-25a36 36 0 0 1 12.6-2.2c8.5 0 15.2 3 17.4 4v99.5z" fill="url(#e)"/><path d="M108.3 19.4c7.4 0 13.7 2.3 15.7 3.5v94.4L113.7 104c-11-14.1-11-14.1-12.9-14.1h-.4a3 3 0 0 0-1.7 1 41 41 0 0 1-9.1 7.7 32.8 32.8 0 0 1-17.4 5.1 49 49 0 0 1-13.8-2.3 8 8 0 0 0-2.3-.3c-2.6 0-6 1-9.7 2a41.7 41.7 0 0 1-9.7 1.7 15.5 15.5 0 0 1-7-7.5l-.7-1.1c-2.5-4.4-1.3-6.6 1.7-11.7l1.3-2.4a58.4 58.4 0 0 1 21.1-20.2 52 52 0 0 0 10.8-7.7c1.6-1.4 4.1-4.4 7.3-8.2 6.9-8.2 18.3-21.9 25.2-24.5 3.8-1.4 7.8-2 12-2m0-3c-4.1 0-8.4.5-13 2.2-10.9 4-28.6 28.9-33.6 33.3-8 7.2-11 7-16.9 11.8a61 61 0 0 0-15.5 16.9c-3.7 6.7-6.8 10.2-3 17 1.4 2.5 3 6.8 8.9 9.8.5.3 1.3.4 2.2.4 5 0 14-3.8 18.6-3.8l1.4.1c5.1 1.6 10 2.5 14.7 2.5 6.4 0 12.6-1.6 19-5.5a48 48 0 0 0 9.7-8.2c1.4 0 23.1 29.4 26.1 32V21s-7.7-4.6-18.7-4.6z" fill="gray"/><linearGradient id="f" x1="42.1" x2="7.6" y1="146.5" y2="106.9" gradientTransform="rotate(3.1 1248.2 58.2)" gradientUnits="userSpaceOnUse"><stop stop-color="#D1D1D1" offset="0"/><stop stop-color="#D4D4D4" offset=".1"/><stop stop-color="#DFDFDF" offset=".2"/><stop stop-color="#F1F1F1" offset=".3"/><stop stop-color="#fff" offset=".3"/></linearGradient><path d="M16 33.3c3.7 17.5 2.8 21.3 22 32.7 1 .6 3.8 1.7 4.4 2.8 3 5.9-2.7 12.5-7.4 12.9-4.8.3-23-6.2-23-32 0-6.7 3.7-17.8 4-16.4z" fill="url(#f)" stroke="#A1A1A1" stroke-linecap="round" stroke-linejoin="round" stroke-miterlimit="10" stroke-width="3"/><linearGradient id="g" x1="85.4" x2="103.3" y1="7.1" y2="34.9" gradientUnits="userSpaceOnUse"><stop stop-color="#CFCFCF" offset=".1"/><stop stop-color="#BEC1C3" offset=".3"/><stop stop-color="#929DA3" offset=".8"/><stop stop-color="#818E96" offset="1"/></linearGradient><path d="M90.3 6.3l12 11.3c2 2 4.2 4 5.2 6.7 1.6 4.4-.9 10-5.3 11.7-6.2 2.5-12.3-1.9-13.6-7.6-1.7-7.6-2.6-15 1.7-22z" fill="url(#g)" stroke="gray" stroke-linejoin="round" stroke-miterlimit="10" stroke-width="3"/><ellipse transform="rotate(-30 82.2 58.4)" cx="82.2" cy="58.4" rx="7.2" ry="6.4" fill="#404040"/><path d="M44.5 88.2c1.4 2 1.5 7.1-1.5 9.2-3 2.1-8 .4-9.4-1.5s0-5.3 3-7.4c3-2 6.5-2.2 7.9-.3z" fill="#404040"/><path d="M88.3 55.2c1.4-.8 1.7-2.6.5-3.4-2.8-1.9-6.7-2.1-10.2-.3S73 56.8 73 60.2c0 1.4 1.7 2.2 3 1.4l12.2-6.4z" fill="gray"/></g></svg>