<svg viewBox="0 0 128 128" xmlns="http://www.w3.org/2000/svg"><path d="M25.9 66.4A15.5 15.5 0 0 1 12 50.2c0-5 1.4-11 7.4-11 2.4 0 5.3.8 8.7 2.6l.7.1c3.5.1 4.7 5.2 4.6 9.5 0 7.1-3.2 15-7.5 15z" fill="#4D4D4D"/><path d="M19 38v3h.2c2.1 0 5 .7 8.1 2.3.4.2 1 .2 1.4.2 2.2 0 3.2 4.1 3.2 8 0 6.8-3 13.4-6 13.4a14.1 14.1 0 0 1-12.6-14.7c0-6.3 2.7-9.6 5.7-9.6V38m.4-.4c-6.6 0-8.8 6-8.9 12.6A17 17 0 0 0 26 67.9c9.7 0 13-27.2 3-27.5-3.9-2-7-2.8-9.5-2.8z" fill="#333"/><path d="M102.1 66.4c-4.3 0-7.4-7.9-7.5-15 0-4.3 1.1-9.4 4.6-9.5l.7-.1a20 20 0 0 1 8.7-2.7c6 0 7.3 6 7.4 11.1a15.5 15.5 0 0 1-14 16.2z" fill="#4D4D4D"/><path d="M108.6 40.6c3.8 0 5.8 3.3 5.9 9.6 0 6-3 13-12 14.7h-.4c-3 0-6-6.7-6-13.5 0-3.8 1-8 3.2-8a3 3 0 0 0 1.3-.3c3.1-1.6 5.8-2.5 8-2.5m0-3a22 22 0 0 0-9.4 2.8c-10 .2-6.8 27.5 3 27.5h.9a17 17 0 0 0 14.4-17.7c-.1-6.6-2.3-12.6-9-12.6z" fill="#333"/><linearGradient id="a" x1="63.8" x2="63.8" y1="122.2" y2="5.2" gradientUnits="userSpaceOnUse"><stop offset="0"/><stop stop-color="#0F0F0F" offset=".2"/><stop stop-color="#373737" offset=".6"/><stop stop-color="#4D4D4D" offset=".8"/></linearGradient><path d="M62.7 122.2c-21.6 0-46.8-11.6-46.8-44.5 0-7.2 2.3-13 4.5-18.7a42 42 0 0 0 3.8-15.1 37 37 0 0 1 10.7-26.7c7.4-7.6 18-12 28.9-12 10.8 0 21 3.8 28.7 10.6A37 37 0 0 1 105 43.9c0 5.1 1.5 9.8 3 14.8 1.8 5.7 3.7 11.7 3.7 19 0 30.6-25.4 44.5-49 44.5z" fill="url(#a)"/><path d="M63.8 6.7c10.5 0 20.3 3.6 27.7 10.2a35 35 0 0 1 12 27c0 5.3 1.5 10.2 3.1 15.3a59.3 59.3 0 0 1 3.6 18.5 40 40 0 0 1-15 32.7 53.5 53.5 0 0 1-32.5 10.3 49 49 0 0 1-31.5-10.3 41 41 0 0 1-13.8-32.7c0-7 2.2-12.7 4.4-18.2 2-5.2 4-10.2 3.9-15.7A35.5 35.5 0 0 1 36 18.3 39.2 39.2 0 0 1 63.8 6.7m0-3A40.2 40.2 0 0 0 22.6 44c.2 10.5-8.2 19.7-8.2 33.8 0 32 23.5 46 48.3 46 24 0 50.5-14 50.5-46 0-14.1-6.7-23.3-6.7-33.8 0-24.5-20.4-40.2-42.7-40.2z" fill="#1A1A1A"/><linearGradient id="b" x1="63.8" x2="63.8" y1="43.4" y2="119.2" gradientUnits="userSpaceOnUse"><stop stop-color="#999" offset=".3"/><stop stop-color="#949494" offset=".4"/><stop stop-color="#868686" offset=".6"/><stop stop-color="#6E6E6E" offset=".8"/><stop stop-color="#4F4F4F" offset="1"/></linearGradient><path d="M99.8 60.7c0-7.8-5.4-14.3-12.7-16.5-3.6-1-7.6-1-11.2.1-4.2 1.4-7.6 6.4-12.2 6.4-6.5 0-11.3-7.3-18-7.3-9.9 0-18 7.7-18 17.3 0 8.8 7 16 15.8 17.1-5.9 6-7.7 14.3-7.7 20 0 10 11 21.4 28.6 21.4s27.3-11.4 27.3-21.4c0-5.7-1.3-14-7-20A17.6 17.6 0 0 0 100 60.7z" fill="url(#b)"/><path d="M90.5 107.4l-.3-.6c-.2-.5-.5-1.2-1-1.9l-.7-1.2-1-1.3-1.3-1.5-1.6-1.4c-.6-.5-1.1-1-1.8-1.4l-1-.7-1.2-.6-2.3-1.1-2.7-1a47.4 47.4 0 0 0-11.8-1.6c-1 .1-2.1 0-3 .2h-1.6l-1.5.3c-2 .2-4 .6-5.7 1.2-1 .2-1.8.6-2.6.9L47 96.8l-1.1.6-1 .7-1.9 1.4-1.6 1.4-1.2 1.5-1 1.3c-.4.4-.6.9-.8 1.2l-1 1.8-.3.7v.1a1.4 1.4 0 0 1-2.5-1.1s0-.3.3-.8c.2-.5.4-1.2 1-2l.7-1.5 1.1-1.6 1.4-1.7 1.7-1.8 2.1-1.6 1.2-.8 1.2-.8c.8-.5 1.8-.9 2.7-1.3 1-.4 1.9-.8 3-1 2-.7 4-1.2 6.2-1.5l1.6-.2 1.7-.1 3.2-.2a51.2 51.2 0 0 1 13 2c1 .2 2 .6 2.9 1l2.6 1.3 1.3.8 1.1.8 2.1 1.6 1.8 1.8c.4.6 1 1.1 1.3 1.7L91 102l.8 1.5c.6.9.7 1.5 1 2l.3.7c.3.7 0 1.5-.7 1.8-.7.3-1.4 0-1.8-.7z"/><ellipse cx="46.1" cy="59.5" rx="5.1" ry="5.8"/><ellipse cx="81.5" cy="58.8" rx="5.1" ry="5.8"/><path d="M76 81l.6-.5 1.4-1c.5-.6 1.2-1.3 1.6-2.1a4.5 4.5 0 0 0 .3-3.6l-.1-.5-.2-.3c-.3-.6-.7-1-1.1-1.4-.9-.7-2.2-.9-3.5-.6-.4 0-.7.2-1 .3l-1.4.5-.6.3-.3.1-.3.2-1.4.6-1.3.6-1.3.6-1.4.6-.6.3-.4.2-.2.1-1 .2-1-.2-.2-.1-.4-.2-.6-.3-1.4-.6-2.6-1.3c-1.7-.7-3.7-1.6-5-2-1.3-.2-2.6 0-3.5.7-1 .7-1.5 1.9-1.7 3-.1 1 .1 2 .6 2.8.4.8 1 1.5 1.6 2a13.7 13.7 0 0 0 2 1.5c.7.5.9 1.5.4 2.1-.4.7-1.3.9-2 .5l-.6-.4-1.9-1.3a11 11 0 0 1-2.4-2.7c-.8-1.2-1.5-3-1.2-5a8 8 0 0 1 2.9-5.3c.8-.8 2-1.3 3-1.6a8.2 8.2 0 0 1 4.5.2l.3.1h.2v.1h.3c.4.3.9.4 1.4.6l2.7 1.2 2.7 1.2 1.4.6.7.3.3.2h.2l-.7-.1-.7.1h.1l.4-.2.7-.3 1.4-.6 1.3-.7 1.4-.6 1.4-.5.3-.2.4-.1.7-.3 1.3-.5 1.6-.5a7.7 7.7 0 0 1 9 4.9l.2.6c.2.5.3.9.3 1.4.3 2-.3 3.8-1.1 5a9.5 9.5 0 0 1-2.5 2.7 24.7 24.7 0 0 1-2.5 1.7c-.7.4-1.6.1-2-.6-.4-.7-.1-1.5.5-2z" fill="#666"/><path d="M57.6 81l-5-2.9c-1.1-.6-1.5-2-.9-3v-.2c.7-1 2-1.4 3.1-.8l5 3c1.1.5 1.5 2 .9 3-.7 1.2-2 1.5-3.1 1zM70 81l5-2.9c1.1-.6 1.5-2 .9-3v-.2c-.7-1-2-1.4-3.1-.8l-5 3c-1.1.5-1.5 2-.9 3 .7 1.2 2 1.5 3.1 1z"/></svg>