<svg viewBox="0 0 128 128" xmlns="http://www.w3.org/2000/svg"><path d="M122.7 51c.5-3-2-6-4.8-6.8a9.7 9.7 0 0 0-3.8-.3l1.7-1a8.4 8.4 0 0 0 3.1-3.2c1.1-2.4 0-5.4-2-6.8a7.4 7.4 0 0 0-5.5-1c.9-.9 1.7-1.8 2.1-2.9 1.3-2.8-.1-6.6-2.8-7.8a7 7 0 0 0-5.8.6c-1.6.8-3 2.2-4.4 3.5l.8-2.2c.6-1.7 1.2-3.6 1-5.4s-.8-3.8-2.3-4.8c-1.6-1-3.8-.7-5.4.4a15 15 0 0 0-4 4.4l-.2.2v-.3c.7-2 1.1-4.2.4-6.2-.9-2-3.2-3.3-5.3-3.1s-4.2 1.4-5.6 3.2c-.5.6-1 1.2-1.4 2l-.3-1.2c-1-2-3.4-3.1-5.6-2.6s-4 2-5 4l-.5 1c-.2-.5-.6-1-1-1.4-1.4-1.1-3.4-.7-4.7.4s-2 2.9-2.6 4.6l-1 3.3a2 2 0 0 0-1-1c-.9-.4-2-.1-2.7.6s-1.2 1.5-1.7 2.5c-.5 1.3-1 2.6-1.3 4l-.7-.5c-.7-.2-1.4.2-1.8.7a5 5 0 0 0-.7 2c-.7 3.4-1 7.2-.2 10.6.5 2.5 1.8 2.7 2.7 1.6 0 1 .2 1.9.3 2.8l.1.2-.3 3.6A31.6 31.6 0 0 0 29.4 60c.7-3.5 2.4-7.2 5.1-11 19.2-21.7 5.7-37.2-4.9-36.4-14 1.1-18.3 16.3-17.4 18-.2.3 0 .5.6.4.5 0 1-.6 1.4-.8l1.6-.5c1.1-.2 2 0 3.1.3l1.3.2-.1.2c-.6 1.8-1.7 3-3.1 4.2l-.5.4c-1.8 1.5-4.2 3.4-4 6 .2 3.3 3 4 5.6 3.3a140 140 0 0 1-2.6 3.2h-.1S4.4 57 6.2 71.9c1 7.9 7.2 14.4 15 19.2a66 66 0 0 0 12.3 12c-.6.6-1 1.5-1.4 2.9-.6 3 1.5 5.2 1.5 5.2s-1-3.7 1-5c0 0 .3 4.5 1 5 0 0 .5-3.4 2-5.3a57 57 0 0 0 14.9 6.6s.5-3.5-3.1-5.5c-1.2-.6-2.3-1.5-3.3-2.6.4-.7.6-1.3.6-1.8a37.8 37.8 0 0 0 7.5 4.9c-.1 2-.6 5.7-1.9 6.9-1.8 1.6-4.9 1.6-7.4 3.6s-2.5 4.1-2.5 4.1 2.6-2.3 3.7-2.5-1.7 1.4-1.7 3 3-2.4 7.8-3.3c4.8-.8 7.3-1.7 10.4-.8 3.7 1-.6-3.3-3-3.2-1.4 0-1.6-3.5-1.6-6.1 2.7 1.1 5.5 2 8.3 2.6 8.7 2 17.7 1.8 26.5.4 2-.4 4-.5 5.7-1.8.8-.6 1.5-1.3 1.3-2.4-.2-1-1-2-2-2 .3-.1.6-.6.5-1l-.5-1c-.8-1-1.9-1.6-3-2 .1 0 .3-.1.3-.3.3-.4.1-1-.2-1.3-.3-.4-.7-.6-1.1-.8-1-.5-1.8-1-2.7-1.3.5.2 1.2-.3 1.2-.8s-.3-1.2-.8-1.5c-.4-.3-1-.4-1.5-.6-.5-.1-1-.4-1.4-.8.3.4 1-.1.9-.6-.1-.5-.5-.9-.9-1.1l-3-2.3.3-.4.2-.2c.5-.9-1-2-1.8-2.3 1.2.2 2.4.3 3.6.2 1.6 2 3.4 4 5.8 4.4.7.2 1.6.1 2.3-.3.7-.4 1.3-1.2 1.3-2 .9.3 1.8.6 2.7.7 1.4.3 2.8.4 4.1-.2s2.3-2 2-3.5a3 3 0 0 0-.5-1.1l1.3-.1a7 7 0 0 0 3.6-1.5c1-.8 1.7-2.3 1.4-3.6-.3-1.1-1-1.8-2-2.4h1.8c2.2 0 4.6-.4 6-2.2 1.7-2.3.9-5.9-1.1-7.9-.6-.6-1.3-1-2-1.4l.7-.2c1.8-.5 3.6-1.2 5-2.6s2.3-3.6 1.7-5.5a5.1 5.1 0 0 0-2.3-3c.2 0 .4-.2.5-.3 1.3-1 2.3-2.4 2.5-4z" fill="none" stroke="#59413B" stroke-linecap="round" stroke-linejoin="round" stroke-miterlimit="10" stroke-width="3.9"/><path d="M54.6 106s-.1 6.5-2 8.2-4.8 1.6-7.4 3.6-2.4 4-2.4 4 2.6-2.2 3.6-2.4-1.7 1.4-1.7 2.9 3.1-2.4 7.9-3.2 7.3-1.7 10.4-.9c3.6 1-.6-3.2-3-3.1s-1.5-8.9-1.5-8.9l-3.9-.2z" fill="#C69C6D"/><path d="M123 51c.5-3.1-2-6-4.8-6.9a9.7 9.7 0 0 0-3.7-.3l1.6-1.1a8.4 8.4 0 0 0 3.2-3.2c1-2.3 0-5.3-2.1-6.7a7.4 7.4 0 0 0-5.5-1c.9-.9 1.7-1.8 2.2-3a6 6 0 0 0-3-7.7c-1.8-.8-3.9-.4-5.6.5a17 17 0 0 0-4.4 3.6l.8-2.2c.6-1.8 1-3.6 1-5.5s-.8-3.8-2.3-4.7c-1.7-1-3.9-.7-5.5.3s-2.9 2.8-4 4.4l-.2.3.1-.3c.6-2 1-4.3.3-6.2-.9-2.1-3.2-3.3-5.3-3.2s-4.2 1.5-5.6 3.2l-1.4 2c0-.4-.1-.7-.3-1.1-1-2.1-3.4-3.1-5.6-2.7s-3.9 2.1-5 4.1l-.5 1c-.2-.6-.6-1-1-1.5-1.4-1-3.4-.7-4.7.5s-2 2.8-2.6 4.5l-1 3.4a2 2 0 0 0-1-1c-.9-.4-2-.1-2.7.5s-1.2 1.6-1.6 2.5c-.6 1.3-1 2.7-1.4 4l-.7-.5c-.7-.1-1.4.2-1.8.8a5 5 0 0 0-.7 2c-.7 3.3-.9 7.1-.2 10.5.7 3.7 3.2 2.4 3.7-.6.6 2 1.9 4 4 2.7 1.8-1 2.3-3.2 2.5-5.2.9 3.5 2.6 7.4 5.8 3.6l.8-1.3c0 1.7.2 3.6 1 4.4 1 1.4 3.5.9 4.7 0 .1.7.3 1.3.6 1.7 1.4 2 5 1 6.5-.2-.4 1.5-.5 3.2.7 4.3 1.3 1.3 3.2.6 4.7-.4.3.4.7.7 1.4.8 1.2.3 2.4-.4 3.5-1.2-1.3 1.3-2.6 3-2.6 4.5 0 2.2 2 2.6 3.8 2.4-.5.7-.8 1.3-.8 2.1-.1 1.6.9 2.4 2.2 2.8-.4.6-.4 1.1 0 1.7.8 1 2 1.6 3.4 2.2-1.6.3-3 1-3.3 2.5-.2 1.3.5 2.4 1.6 3.4-2.4-.3-4.6.2-4 3.7l1 2.3a3.2 3.2 0 0 0-2.1 4c-1.4-.7-4-1.4-3.4 1 .5 2 3.1 4.2 4.3 5.7 1.6 2.1 3.4 4.4 6 4.8a3 3 0 0 0 2.3-.3c.7-.4 1.3-1.2 1.3-2 .9.3 1.8.6 2.7.7 1.4.3 2.9.4 4.1-.2s2.3-2 2-3.5a3 3 0 0 0-.5-1.1l1.3-.1a7 7 0 0 0 3.6-1.5c1-.8 1.7-2.3 1.4-3.6-.3-1-1-1.8-2-2.4h1.8c2.2 0 4.6-.4 6-2.2 1.7-2.3.9-5.9-1-7.9l-2-1.4.6-.2c1.8-.5 3.6-1.2 5-2.6s2.3-3.6 1.7-5.5a5.1 5.1 0 0 0-2.3-2.9l.5-.4a6 6 0 0 0 2.5-4z" fill="#914336"/><path d="M85.3 83.3h-.6c-2-.4-3.4-2-4.8-3.8l-1-1c-.9-1.1-2-2.3-2.2-3.4-.2-.6 0-1.1.2-1.5.2-.2.5-.5 1.1-.5.4 0 .7 0 1 .2a3 3 0 0 1 1.5-2.3l-.5-1.3c-.2-1.2 0-2 .4-2.6.4-.5 1-.8 1.8-.9-.4-.6-.6-1.3-.5-2 .1-.8.6-1.4 1.5-1.8-.6-.3-1-.7-1.4-1.1s-.4-.8-.3-1.3c-1-.5-1.5-1.3-1.5-2.4 0-.3 0-.6.2-1-1.4 0-2.3-1-2.4-2.3 0-.6.2-1.2.6-1.8h-.8l-1-.5c-.7.5-1.4.7-2 .7-.7 0-1.3-.2-1.7-.7a3 3 0 0 1-.9-2.5c-.7.3-1.4.5-2.2.5a3 3 0 0 1-2.3-1l-.3-.8c-.5.2-1.1.4-1.6.4-.9 0-1.5-.3-2-.9a4 4 0 0 1-.7-1.9c-.6.7-1.3 1-1.9 1-1 0-1.7-.7-2.3-2.1-.3.8-.8 1.6-1.7 2a2 2 0 0 1-1.2.4c-.6 0-1.4-.2-2-1.2-.4.7-1 1-1.6 1-.4 0-1.4-.1-1.7-2-.6-3-.3-6 .1-8a5 5 0 0 1 .6-1.7 2 2 0 0 1 1.6-.8h.4l.8-2.2c.3-.7.7-1.5 1.4-2 .5-.5 1.1-.8 1.7-.8a2.1 2.1 0 0 1 1 .3l.5-1.5a8 8 0 0 1 2.1-3.5 4 4 0 0 1 2.4-1 2.8 2.8 0 0 1 2.1 1c1-1.7 2.5-2.8 4-3.2h.9c1.6 0 3 .8 3.7 2l.4-.4a6.6 6.6 0 0 1 4.5-2.6h.3c1.9 0 3.6 1 4.2 2.7.3.8.4 1.7.3 2.5l1.6-1.4a5 5 0 0 1 2.7-.8c.7 0 1.4.2 2 .5 1.2.8 2 2.3 2 4 0 1.2-.2 2.4-.6 3.5a9 9 0 0 1 1.6-1c1-.5 2-.8 2.9-.8a4 4 0 0 1 1.8.4c1 .4 2 1.4 2.4 2.6a5 5 0 0 1-.7 5c1.1 0 2.1.4 3 1a5 5 0 0 1 1.7 5.7 6 6 0 0 1-2.2 2.3l1 .2c2.2.7 4.4 3 4 5.7a5.3 5.3 0 0 1-1.8 3.1c.6.5 1 1.2 1.2 2 .5 1.5-.1 3.4-1.4 4.6a8 8 0 0 1-3.2 1.8l.5.5c1.6 1.6 2.3 4.5.8 6.5-.9 1.2-2.4 1.8-4.6 1.9l.5 1c.3 1-.2 2.4-1.2 3.2-1 .8-2.1 1.1-3 1.2h-.1v.2c.3 1.4-.6 2.7-1.7 3.3-.6.2-1.2.3-1.9.3l-1.5-.1-1.4-.4c-.2.5-.6 1-1.1 1.3-.4.2-1 .3-1.5.3z" fill="#fff"/><path d="M79 21a4 4 0 0 1 3.7 2.4c.6 1.4.2 3-.2 4.5v.3-.2a11 11 0 0 1 3-3.2 4 4 0 0 1 2.3-.8 3 3 0 0 1 1.7.5c1.1.7 1.7 2.1 1.7 3.5a11 11 0 0 1-.7 4l-.6 1.6c1-1 2-2 3.2-2.6a6 6 0 0 1 2.6-.7c.5 0 1 0 1.6.3 2 .8 3 3.6 2.1 5.7-.4.8-1 1.5-1.6 2h1.1c1 0 2 .2 3 .8 1.4 1 2.2 3.3 1.5 5-.5 1-1.4 1.7-2.3 2.3l-1.3.8a8 8 0 0 1 2.8.3c2 .6 3.9 2.7 3.5 5a4.8 4.8 0 0 1-2.2 3.2 4 4 0 0 1 1.7 2.1c.4 1.5-.2 3-1.2 4.1a8 8 0 0 1-3.8 1.9l-.4.1 1.4 1c1.5 1.5 2 4.2.8 5.8-1 1.4-2.8 1.7-4.4 1.7h-1.3a3 3 0 0 1 1.4 1.7c.3 1-.2 2-1 2.7s-1.7.9-2.6 1l-1 .1.4.8c.2 1-.5 2.2-1.5 2.6-.5.3-1 .3-1.6.3l-1.4-.1-2-.6c0 .7-.4 1.2-1 1.5a2 2 0 0 1-1 .3h-.6c-1.9-.3-3.3-2-4.4-3.6-.9-1-2.8-2.7-3.1-4.1-.3-1 .1-1.3.7-1.3s1.2.3 1.7.5c-.3-1.2.3-2.6 1.5-3-.3-.5-.5-1-.6-1.6-.4-2.2.7-2.8 2-2.8h.9c-.8-.7-1.4-1.5-1.2-2.4.2-1.2 1.2-1.7 2.4-1.9-1-.4-2-1-2.4-1.6-.4-.4-.3-.8-.1-1.2-1-.3-1.7-.9-1.6-2 0-.7.2-1.2.6-1.6a8 8 0 0 1-.5 0c-1.2 0-2.2-.4-2.3-1.8 0-1.1 1-2.3 2-3.3-.8.5-1.6 1-2.3 1l-.4-.1c-.5-.1-.8-.4-1-.6-.7.4-1.4.8-2.2.8-.4 0-.9-.2-1.3-.5-.8-.9-.7-2-.4-3.2-.7.5-2 1-3 1-.7 0-1.4-.3-1.8-.9-.3-.3-.4-.7-.4-1.2-.6.4-1.3.6-2 .6s-1.2-.1-1.6-.6c-.5-.6-.6-2-.7-3.2a4 4 0 0 1-.5.9c-.7.8-1.3 1.2-1.8 1.2-1.3 0-2-2-2.5-3.8-.1 1.5-.5 3-1.8 3.8a2 2 0 0 1-1 .3c-1 0-1.6-1.1-2-2.3-.1 1.3-.8 2.1-1.5 2.1-.5 0-1-.4-1.2-1.6-.5-2.5-.3-5.3.2-7.8.1-.5.2-1 .5-1.4.3-.3.7-.6 1-.6h.3l.6.4c.2-1 .5-2 1-3a5 5 0 0 1 1.1-1.8c.4-.3 1-.5 1.4-.5l.6.1c.4.2.6.4.8.8l.7-2.5c.4-1.3 1-2.5 1.9-3.4.5-.4 1.3-.7 2-.7.5 0 1 .1 1.4.4.4.3.6.7.8 1.1l.3-.7a6 6 0 0 1 3.7-3l.8-.1c1.4 0 2.7.7 3.3 2l.3.8 1-1.4c1-1.3 2.5-2.3 4-2.4h.4m0-1.1h-.4c-1.7.1-3.4 1-4.8 2.7a4.9 4.9 0 0 0-4.8-1.7 7 7 0 0 0-4 2.8c-.5-.4-1.2-.6-2-.6-1 0-2 .4-2.8 1a8.6 8.6 0 0 0-2.2 4l-.3.8H57c-.7 0-1.5.2-2.1.7-.8.7-1.2 1.5-1.5 2.3l-.7 1.8c-.8 0-1.5.4-2 1.1-.5.6-.6 1.3-.7 2-.5 2-.8 5.1-.2 8.1.5 2.4 1.8 2.6 2.3 2.6a2 2 0 0 0 1.6-.7c.7.7 1.5.9 2 .9s1-.2 1.5-.5a4 4 0 0 0 1.4-1.2c.5.8 1.3 1.4 2.3 1.4.5 0 1-.2 1.5-.5l.6 1.2a3 3 0 0 0 2.4 1c.5 0 .9 0 1.3-.2l.2.3c.6.9 1.6 1.4 2.8 1.4.6 0 1.1-.1 1.6-.3 0 .7.4 1.5 1 2.1a3 3 0 0 0 2.1.9c.7 0 1.4-.2 2-.6.3.1.6.3 1 .3a3 3 0 0 0-.3 1.3c0 1.5.9 2.5 2.2 2.8v.5a3 3 0 0 0 1.4 2.7c0 .5.2 1 .5 1.3l.8.8a3 3 0 0 0-1 1.8c0 .5 0 1 .2 1.6-.7.2-1 .6-1.3.9-.6.7-.8 1.8-.6 3l.3 1c-.5.5-1 1.1-1.1 1.9H78a2 2 0 0 0-1.6.6c-.4.5-.5 1.2-.3 2 .3 1.3 1.5 2.5 2.4 3.6l1 1c1 1.5 2.7 3.6 5 4l.8.1c.7 0 1.3-.2 1.8-.5.4-.2.8-.6 1-1a14.2 14.2 0 0 0 2.8.4c.7 0 1.4-.1 2-.4 1.4-.7 2.3-2.1 2.2-3.5a6 6 0 0 0 2.8-1.2 4 4 0 0 0 1.4-3.9l-.1-.3c1.9-.2 3.3-.9 4.1-2 1.7-2.2 1-5.4-.7-7.2.9-.3 1.8-.8 2.6-1.6 1.4-1.4 2-3.5 1.5-5.2a4 4 0 0 0-1-1.8c.8-.9 1.4-2 1.6-3 .4-3-1.9-5.5-4.3-6.3.6-.5 1-1 1.4-1.8 1-2.1 0-5-2-6.4a6 6 0 0 0-2.2-1l.3-.4c.5-1.4.5-3 0-4.4a5.3 5.3 0 0 0-2.8-2.9c-.6-.3-1.3-.4-2-.4-1 0-2.2.3-3.2.8l-.3.2.2-2.2c-.1-1.9-1-3.6-2.3-4.4-.7-.4-1.5-.7-2.3-.7a5.6 5.6 0 0 0-3.7 1.5c0-.5-.2-1-.3-1.3a5 5 0 0 0-4.7-3.1z" fill="#212121"/><path d="M102.3 53.4c.3-2-1.4-4-3.3-4.5-.8-.2-1.6-.2-2.4-.2l1-.7c.9-.5 1.7-1.1 2.2-2 .7-1.5 0-3.5-1.4-4.4a5 5 0 0 0-3.7-.7c.6-.5 1.1-1 1.5-1.8.8-1.8-.2-4.3-2-5a4.6 4.6 0 0 0-3.8.3c-1 .6-2 1.4-2.9 2.3l.6-1.4c.4-1.1.7-2.3.7-3.5-.1-1.2-.6-2.5-1.6-3-1.1-.8-2.6-.6-3.6.1-1.1.7-2 1.8-2.7 2.9l-.1.1v-.2c.4-1.3.7-2.7.2-4-.6-1.3-2-2.1-3.5-2s-2.8 1-3.7 2l-1 1.3c0-.2 0-.4-.2-.7-.6-1.3-2.3-2-3.7-1.7s-2.6 1.4-3.4 2.7l-.3.6c-.1-.4-.4-.7-.7-1-.9-.7-2.2-.4-3 .3s-1.4 1.8-1.8 3l-.6 2.1c-.2-.3-.4-.5-.7-.6-.6-.3-1.3 0-1.8.3s-.9 1-1.1 1.7a14 14 0 0 0-1 2.6 1 1 0 0 0-.4-.4c-.5-.1-1 .2-1.2.5l-.5 1.3c-.4 2.2-.6 4.6-.1 6.8.5 2.4 2.1 1.5 2.5-.4.4 1.3 1.2 2.6 2.7 1.7 1.1-.6 1.5-2 1.6-3.3.6 2.3 1.7 4.8 3.9 2.3l.5-.8c0 1 .1 2.3.6 2.8.8 1 2.4.6 3.2 0 0 .4.2.8.4 1.1.9 1.3 3.3.6 4.3-.1-.2 1-.3 2 .4 2.8 1 .8 2.2.3 3.2-.3.2.2.5.4 1 .5.7.2 1.5-.3 2.3-.8-.9.9-1.8 2-1.8 3 .1 1.4 1.4 1.6 2.6 1.5a2 2 0 0 0-.6 1.4c0 1 .6 1.5 1.5 1.8-.2.3-.3.7 0 1 .5.6 1.4 1.1 2.3 1.5-1.1.2-2 .6-2.3 1.6-.1.8.4 1.6 1.1 2.2-1.5-.2-3 .1-2.6 2.4l.6 1.5c-1 .3-1.7 1.5-1.4 2.6-.9-.5-2.6-1-2.2.6.3 1.3 2 2.7 2.8 3.7 1 1.4 2.3 2.8 4 3.1a3 3 0 0 0 1.6-.2c.5-.3.8-.8.8-1.3l1.9.5c.9.2 1.8.2 2.7-.2s1.5-1.3 1.3-2.3a2 2 0 0 0-.4-.7h1c.8-.2 1.7-.4 2.3-1s1.2-1.5 1-2.3a3 3 0 0 0-1.3-1.6H95c1.4 0 3-.2 4-1.4 1-1.5.5-3.8-.8-5a6 6 0 0 0-1.3-1l.4-.1c1.2-.4 2.5-.8 3.4-1.7 1-.9 1.5-2.3 1-3.6-.1-.8-.7-1.4-1.4-1.9l.3-.2c.8-.6 1.5-1.5 1.7-2.5z" fill="#FFBF00"/><path d="M96.5 57.7c.3-1.9-1.2-3.6-2.9-4.1a6 6 0 0 0-2.2-.2l1-.7c.7-.5 1.5-1 1.9-2 .6-1.3 0-3.2-1.3-4-1-.7-2.2-.8-3.3-.7.5-.5 1-1 1.3-1.7.7-1.7-.1-4-1.8-4.7a4.1 4.1 0 0 0-3.4.3c-1 .5-1.9 1.4-2.7 2.2l.5-1.4c.3-1 .7-2.1.6-3.3 0-1.1-.5-2.3-1.4-2.8-1-.7-2.3-.5-3.3.2a10 10 0 0 0-2.6 2.8l.1-.2a7 7 0 0 0 .2-3.8c-.6-1.2-2-2-3.3-1.9a5 5 0 0 0-3.4 2l-.8 1.2a4 4 0 0 0-.2-.7c-.6-1.3-2-1.9-3.4-1.6s-2.4 1.3-3 2.5l-.3.5a2 2 0 0 0-.7-.8c-.8-.7-2-.5-2.8.2-.8.7-1.2 1.8-1.6 2.8l-.5 2c-.2-.2-.4-.5-.7-.6-.5-.2-1.2 0-1.6.3s-.8 1-1 1.6c-.4.8-.6 1.6-.8 2.4a.9.9 0 0 0-.5-.3c-.4-.1-.8.1-1 .5a3 3 0 0 0-.5 1.2 17 17 0 0 0-.1 6.4c.4 2.2 2 1.4 2.2-.4.4 1.2 1.2 2.4 2.5 1.6 1-.6 1.4-1.9 1.5-3.1.5 2.1 1.6 4.5 3.5 2.1l.5-.7c0 1 .1 2.1.5 2.7.7.8 2.2.5 3 0 0 .3.1.7.3 1 .8 1.2 3 .5 4-.2-.3 1-.4 2 .3 2.7.9.8 2 .3 3-.3 0 .3.4.4.8.5.7.2 1.4-.3 2.1-.7-.8.8-1.6 1.8-1.6 2.7 0 1.3 1.2 1.6 2.3 1.5-.3.4-.5.8-.5 1.3 0 1 .6 1.4 1.4 1.7-.2.3-.2.6 0 1a5 5 0 0 0 2 1.3c-.9.2-1.8.6-2 1.5a3 3 0 0 0 1 2.1c-1.4-.2-2.8.1-2.3 2.2 0 .5.2 1 .5 1.5-1 .2-1.5 1.3-1.3 2.4-.8-.5-2.4-.9-2 .6.3 1.2 1.9 2.6 2.6 3.5 1 1.3 2 2.6 3.6 2.9.5 0 1 0 1.4-.2.5-.3.8-.7.8-1.2l1.7.4c.8.2 1.7.2 2.5-.1s1.3-1.3 1.1-2.2l-.3-.6.8-.1c.8-.1 1.6-.3 2.2-.9s1-1.4.8-2.2c-.1-.6-.6-1-1.1-1.4h1c1.4 0 2.8-.3 3.7-1.4 1-1.3.5-3.5-.7-4.7a5 5 0 0 0-1.2-1h.4c1.1-.3 2.2-.8 3-1.6a3.2 3.2 0 0 0-.4-5.1l.4-.2c.8-.6 1.4-1.5 1.5-2.5z" fill="#687063"/><linearGradient id="a" x1="53.2" x2="53.2" y1="31.8" y2="104.9" gradientUnits="userSpaceOnUse"><stop stop-color="#C25F46" offset=".1"/><stop stop-color="#B95B42" offset=".2"/><stop stop-color="#A04E36" offset=".4"/><stop stop-color="#773B24" offset=".7"/><stop stop-color="#42210B" offset="1"/></linearGradient><path d="M78.8 64.8c-4.6-16.3-24.2-18.5-33.6-15-36 13.2-8.6 36.5-.1 48.9l.7 1.6c13.8-.5 37.2-20.3 33-35.5z" fill="url(#a)"/><path d="M19.5 88.1c0 .3 11.8 18.2 33.3 24.2 0 0 2-4.2-1.6-6.2-7.5-4-12.9-19.1-31.3-18" fill="#62695D"/><linearGradient id="b" x1="26.5" x2="26.5" y1="24.1" y2="104.8" gradientUnits="userSpaceOnUse"><stop stop-color="#DB977F" offset="0"/><stop stop-color="#CA8A72" offset=".2"/><stop stop-color="#9C6750" offset=".5"/><stop stop-color="#542F19" offset=".9"/><stop stop-color="#42210B" offset="1"/></linearGradient><path d="M35.3 48.3c-1.7-.4-13.3-7.8-19.6-.7 0 0-11 9.3-9.1 24s21.4 24.7 36.6 28l3.5.2-1-2C36 83.6 20.3 68.5 35.4 48.4z" fill="url(#b)"/><path d="M43.6 100c-3.6 3-9.7-.9-11.1 5.7-.7 3 1.4 5.3 1.4 5.3s-1-3.7 1-5c0 0 .3 4.5 1 5 0 0 .9-5.2 3.4-6.3 2.5-1.1 5.6-.4 4.7 1.7s3.2-2.2 3-4c-.5-5.8.3-5.3-3.4-2.3z" fill="#C69C6D"/><path d="M98 105.7c.5 0 .7-.5.7-.9s-.3-.7-.6-1c-.8-1-1.8-1.7-3-2l.4-.3c.2-.4 0-1-.3-1.4l-1.1-.8-2.6-1.3c.5.3 1.1-.2 1.1-.8s-.3-1-.7-1.4c-.5-.3-1-.4-1.6-.6-.5-.2-1-.4-1.4-.8.3.3 1-.2.9-.7 0-.5-.5-.8-.8-1l-3-2.4c.3-.2.4-.8.3-1.3s-.6-.7-1-1c-1.3-1-5.5-3-4.8.5l.3 1a41.8 41.8 0 0 1-19 3.8 48 48 0 0 1-31.3-15.2c.2.2.2.9.3 1.1a44 44 0 0 0 6.8 13.2 48.8 48.8 0 0 0 29.1 19.2c8.7 2 17.7 1.7 26.5.3 1.9-.3 4-.4 5.6-1.7.8-.6 1.6-1.3 1.4-2.4-.2-1-1-2-2.1-2.1z" fill="#353832"/><path d="M53 76.1c-12 4.2-23.2-.4-23.2-.4s1 3.1 5.4 7.4a45 45 0 0 0 10.5 7.4 32.3 32.3 0 0 0 24.1-26.9A31.2 31.2 0 0 1 53 76.1z" fill="#D17D49"/><path d="M12.8 30.7c-1.8.7 2-17 17.1-18.1 10.9-.9 24.8 15.5 3.3 38 0 0-8.6 9-17.8 10-7.8.8-5.1-6.1-2.5-9.6s11.4-12.6 11.7-18c.2-3.2-3.2-5.6-11.8-2.3z" fill="#FF2621"/><path d="M30.1 23.5c2.3.2 4.6 1.2 5.9 3.2 1.5 2.5 1.2 5.9 0 8.6S32.4 40 30.4 42l-1.2.8c-.5.2-1 .3-1.4 0-.6-.5-.6-1.4-.5-2.1.3-2.2 1-4.4 1-6.6 0-2.3-.8-4.7-2.8-5.6l-1.9-.7c-1.6-.6-3.4-2-.3-3.4 2-.9 4.6-1.1 6.7-1z" fill="#FFAB91"/><path d="M20.4 25.4c.8 0 1.5 0 2.1.3.7.4 1.6.6 1.8 2 0 .8-.4 1.6-1 2-1.2.9-2.8.5-4 .2-1.1-.2-2-.4-3.1-.2l-1.7.5c-.4.2-1 .7-1.4.8-1.7.2.2-1.6.7-2.1 1.7-1.8 4.5-3.4 6.6-3.5z"/><path d="M80.6 64.2c.6.3 1 1 1.1 1.6 0 .7-.3 1.4-.8 1.7s-1.3.3-1.8-.2c.4.3 1.3.3 1.8.5l6.7 1.8a4 4 0 0 1 1.8.7c1 .8 1.1 2.6 0 3.4-.7.5-1.7.4-2.3-.3.2.3 4.7 1.7 5.6 2a4 4 0 0 1 2 1.5c1.3 1.9-.7 4.3-2.6 3.4.4.2 1.1 0 1.6 0 .5.1 3.3 1.2 3.7 2.1.3.7.4 1.5.2 2.2-.3 1-1 1.6-1.8 2-3 1.8-6.9 2.4-10.3 1.8.4-.2 2.7 1.3 2.1 2.4-.4.6-3.2 2-6.3 2.7-3.7 1-6.8 0-6.8 0-1.3 1.7-5.2 4.3-11.7 3.8-8-.6-16-4.5-21.3-8.4a45.4 45.4 0 0 0 23-16.2c3.3-4.8 6.4-10.6 8.7-10.9 2-.2 7 2.1 7.4 2.4z" fill="#687063"/><circle cx="30.6" cy="22.3" r="6.5" fill="#fff"/><circle cx="30.6" cy="22.3" r="2"/><path d="M16.9 35c-1.9 1.5-4.2 3.3-4 6 .2 5 6.6 3.9 8.9 1.6a12 12 0 0 0 3-7.5c.1-1.5.4-10.2-2.5-8.8-1.2.5-1.5 3-1.9 4a9.6 9.6 0 0 1-3 4.3l-.5.4z" fill="#AD0000"/></svg>