<svg viewBox="0 0 128 128" xmlns="http://www.w3.org/2000/svg"><path d="M104.3 44.2l-.7-.3a9.9 9.9 0 0 0-6 .3 13 13 0 0 0-6.1 4.4c-.7.8-1.2 1.6-1.7 2.5-1 1.8-1.6 3.9-2 6-.5 2-.7 4.3-.9 6.4l-.3 6.3-.1 1.5v.7l-.2.7a17.7 17.7 0 0 1-2.9 8.6v.2l-.2.2-.5.6-.6.7-.8.7a15.4 15.4 0 0 1-7.1 3.2l-3 .3h-.5l-.2-.1c1.7-1 4.2-3 1.7-4.4l-.3-.2c1.3-.5 2.9-1.2 3.6-3.4 1.6-4.5-3.5-7.4-3.3-11 .3-5.2 3-9.5 4-14.4.7-2.8 1.1-5.7 1.3-8.6C81 43 92.3 33.9 91.5 30c-.9-4-6.8-8.5-14.5-13.7-2.1-1.4-5.6-3.5-7.4-4.8a47 47 0 0 0-4.8-5.2c-1-1-2.6-1-3.7 0a44.1 44.1 0 0 0-5.5 5.6l-7.4 4.4c-8.4 5.2-15 9.7-15.9 13.7-.8 4 11.8 13 15.6 15.3a62 62 0 0 0 1.2 8.5c1.1 5 3.8 9.2 4 14.3.3 3.7-3.2 5.5-2.3 10.7.2 1.6 1.2 2.2 2.6 3.5l-.2.5c-2.5 1.5 0 3.5 1.7 4.4l-1.3-.2a16.5 16.5 0 0 1-7.1-3.2l-.8-.7-.7-.7-.4-.6-.2-.2-.1-.2a17.7 17.7 0 0 1-2.4-5.8l-.5-2.7V72l-.1-.7-.2-1.5-.2-6.3c-.2-2.1-.4-4.3-.9-6.4a22.3 22.3 0 0 0-3.7-8.5 13.2 13.2 0 0 0-6.1-4.4c-1.4-.5-2.7-.6-3.7-.6s-1.8.2-2.4.4l-.7.2c-.2.1-.4.4-.3.6 0 .3.3.6.6.5h.7a8.9 8.9 0 0 1 4.7 1.3 11 11 0 0 1 4.1 4.2l1 2c.6 1.5.9 3.2 1.1 5 .4 3.7 0 7.7 0 12.1l.1 1.7v1.7c.2 1.2.3 2.3.6 3.4a21.8 21.8 0 0 0 3.2 8.2l.2.1v.1l.2.3.2.2.5.6 1.3 1.3 1.3 1c1 .8 2.2 1.3 3.3 1.7a20.4 20.4 0 0 1-5.7-1c-1.3-.4-2.5-1-4.2-1.5-.9-.2-2-.4-3-.2a7 7 0 0 0-2.5 1.1l-.3.2h-.1v.1l-.2.1-.2.2-.3.3-.9 1.4c-.3 1-.3 1.8-.3 2.5l.2 3.5-.1 2.7a8.4 8.4 0 0 1-1.3 3.2l-.2.4a.6.6 0 0 0 .8.8l.4-.4 1-1.2a12 12 0 0 0 2-5.4l.2-3.5c0-.5.2-1 .4-1.3l.2-.3.3-.1s0-.1 0 0l.2-.2 1.3-.4c.4 0 .8 0 1.3.2 1 .3 2.4 1.1 3.8 1.7a22.2 22.2 0 0 0 9.2 1.7c1.5 0 3-.3 4.3-.8l-2.3 2c-1.2 1-2.4 2.3-3.5 3.8-1 1.5-2 3.2-2.3 5.3a11 11 0 0 0 .5 5.8c.7 1.9 2 3.5 3.6 4.5s3.2 1.5 4.6 1.8c1.4.3 2.7.4 3.6.7.5.2 1 .3 1.2.5.3.2.5.4.7.8.4.7.4 1.2.2 1.6a2 2 0 0 1-.8.9l-.4.2c-.3 0-.5.3-.5.7s.4.5.7.4l.7-.2c.4-.1 1-.4 1.7-1.1.2-.4.5-1 .5-1.5s0-1.2-.2-1.8c-.2-.4-.5-1.2-1-1.7l-1.8-1.2c-1.3-.6-2.5-.9-3.8-1.4-1.2-.4-2.4-1-3.2-1.7a5.4 5.4 0 0 1-1.7-2.8 6.2 6.2 0 0 1 0-3.5 11 11 0 0 1 1.7-3.2 42.9 42.9 0 0 1 8.7-6.9c1.6-1 3.3-1.6 5-.5.8.5 1.3 1.2 1.9 1.9L68 99c3.9 3.3 8.7 4.7 13.5 6l3.6 1c1.1.3 2.1.8 2.9 1.3l1 1v.1l.1.1s0 .2 0 0l.2.3c.2.3 0 .3.2.4.1.5 0 1.3-.5 2.2l-1 2.8v2.4l.4 1.4.2.5c0 .2.3.4.6.4s.5-.4.5-.7v-.5l-.1-.5v-.7c0-.5.1-1.1.4-1.7.2-.7.7-1.3 1.2-2.2l.9-1.5a5 5 0 0 0 .4-2.3l-.3-1.2-.1-.4-.2-.4-.1-.2-1.4-1.9c-1-1.1-2.4-1.9-3.6-2.5l-3.9-1.6-3.7-1.4-1.7-.7-.9-.3-.6-.3c-.9-.4-1.5-1-2.1-1.5a8.7 8.7 0 0 1-2-3.3 16 16 0 0 0 8.7 1.6 23.3 23.3 0 0 0 7-1.7c1.4-.5 2.8-1.3 3.8-1.7a3 3 0 0 1 1.2-.2c.4 0 .9.2 1.3.5l.3.1c-.1 0 0 0 0 0l.2.1.3.3c.1.3.3.8.3 1.3.2 1.1.2 2.4.3 3.5a11.4 11.4 0 0 0 3 6.6l.3.4c.2.2.5.2.7.1.3-.2.4-.5.2-.8l-.3-.4-.6-1.3c-.2-.5-.5-1.2-.6-2-.2-.8-.2-1.7-.2-2.7 0-1 .3-2.1.3-3.5 0-.7 0-1.5-.4-2.5a4.2 4.2 0 0 0-1.2-1.7l-.2-.2-.1-.1-.2-.1-.2-.2a6.4 6.4 0 0 0-5.5-1l-4.2 1.6c-1.3.5-2.5.8-3.8 1h-.7c1-.5 2.1-1 3.1-1.7l1.4-1 1.3-1.3.4-.6.3-.2.1-.3.2-.2 1-1.5a23.1 23.1 0 0 0 2.7-10.1v-.8l.1-.9V70c.1-4.4-.3-8.4.1-12a22.3 22.3 0 0 1 2-7.1l1.3-1.8a10.8 10.8 0 0 1 5.7-3.5c.8-.2 1.5-.2 1.9-.2h.8c.2 0 .5 0 .6-.3 0-.3 0-.7-.4-.8z" fill="none" stroke="#D95454" stroke-linecap="round" stroke-linejoin="round" stroke-miterlimit="10" stroke-width="5"/><linearGradient id="a" x1="38.9" x2="52.5" y1="39.8" y2="9.9" gradientUnits="userSpaceOnUse"><stop stop-color="#FBABA3" offset=".1"/><stop stop-color="#FAA9A1" offset=".1"/><stop stop-color="#E58581" offset=".3"/><stop stop-color="#D66B69" offset=".5"/><stop stop-color="#CC5C5B" offset=".7"/><stop stop-color="#C95656" offset=".8"/></linearGradient><path d="M48.2 15.8c-8.4 5.2-15 9.7-15.8 13.7-.9 4 11.8 13 15.5 15.3 3.3-10.5 6.2-24.5 9.6-34.5l-9.3 5.5z" fill="url(#a)"/><linearGradient id="b" x1="52.8" x2="66.3" y1="40.1" y2="10.4" gradientTransform="matrix(-1 0 0 1 138.8 0)" gradientUnits="userSpaceOnUse"><stop stop-color="#FBABA3" offset=".1"/><stop stop-color="#FAA9A1" offset=".1"/><stop stop-color="#E58581" offset=".3"/><stop stop-color="#D66B69" offset=".5"/><stop stop-color="#CC5C5B" offset=".7"/><stop stop-color="#C95656" offset=".8"/></linearGradient><path d="M77 15.8c7.7 5.2 13.7 9.7 14.5 13.7.8 4-10.5 13-14 15.3-2.9-10.5-5.9-24.5-9-34.5l8.5 5.5z" fill="url(#b)"/><linearGradient id="c" x1="63.9" x2="63.9" y1="5.1" y2="123.4" gradientUnits="userSpaceOnUse"><stop stop-color="#FBABA3" offset=".1"/><stop stop-color="#FAA9A1" offset=".1"/><stop stop-color="#EF8F8C" offset=".4"/><stop stop-color="#E8807F" offset=".6"/><stop stop-color="#E67A7A" offset=".8"/></linearGradient><path d="M104.4 43.8l-.8-.2a9.9 9.9 0 0 0-6 .2 13 13 0 0 0-6.1 4.4l-1.6 2.6c-1 1.8-1.7 3.8-2.1 5.9-.5 2-.7 4.3-.9 6.4l-.2 6.3-.2 1.5v.7l-.1.8-.5 2.7a17.7 17.7 0 0 1-2.4 5.8v.1l-.1.1-.2.2-.4.6-.7.7-.8.7a15.4 15.4 0 0 1-7 3.2l-3 .3h-.5l-.2-.1c1.7-1 4.1-3 1.7-4.4L72 82c1.2-.5 2.8-1.2 3.6-3.4 1.5-4.5-3.5-7.4-3.4-11 .3-5.2 3-9.5 4.1-14.4a61.6 61.6 0 0 0-4-38 34.6 34.6 0 0 0-7.5-9.5c-1-1-2.6-1-3.6 0a35 35 0 0 0-8.1 9.5 62.5 62.5 0 0 0-4 38c1.2 5 3.9 9.2 4.1 14.3.2 3.7-3.3 5.5-2.4 10.7.3 1.6 1.3 2.2 2.7 3.5l-.3.5c-2.4 1.5 0 3.5 1.7 4.4l-1.3-.2a16.5 16.5 0 0 1-7-3.2l-.9-.7-.6-.7-.5-.6-.2-.2a17.7 17.7 0 0 1-2.4-5.8c-.3-.9-.4-1.8-.5-2.7l-.1-.8-.1-.7-.1-1.5-.3-6.3c-.2-2.1-.4-4.3-.8-6.4a22.3 22.3 0 0 0-3.8-8.5 13.2 13.2 0 0 0-6.1-4.4c-1.4-.5-2.6-.6-3.7-.6s-1.8.2-2.3.4l-.7.2c-.3.1-.4.4-.4.6 0 .3.3.6.6.5h.8a8.9 8.9 0 0 1 4.7 1.3 11 11 0 0 1 4 4.2c.4.6.8 1.3 1 2 .6 1.6 1 3.3 1.2 5 .4 3.7 0 7.7 0 12.1v2.6l.1.8.5 3.4a21.8 21.8 0 0 0 3.3 8.2l.1.2.2.3.3.2.4.6 1.3 1.3 1.4 1c1 .8 2.2 1.3 3.3 1.7h-.1a20.4 20.4 0 0 1-5.7-1c-1.2-.4-2.5-1-4.2-1.5-.9-.2-2-.4-3-.2a7 7 0 0 0-2.5 1.1l-.2.2h-.2v.1l-.1.1-.2.2-.4.3-.8 1.4c-.4 1-.4 1.8-.4 2.5 0 1.4.2 2.5.3 3.5 0 1 0 2-.2 2.7a8.4 8.4 0 0 1-1.2 3.2l-.3.5a.6.6 0 0 0 .9.7l.4-.4 1-1.2a11 11 0 0 0 1.9-5.4l.3-3.5c0-.5.2-1 .3-1.3l.3-.2.2-.2s.1-.1 0 0l.3-.2c.5-.2.9-.4 1.3-.4s.7 0 1.2.2l3.9 1.7a22.2 22.2 0 0 0 9.2 1.7c1.5 0 2.9-.3 4.2-.8l-2.3 1.9a18 18 0 0 0-5.8 9.1 11 11 0 0 0 .6 5.8c.6 1.9 2 3.5 3.5 4.5a14 14 0 0 0 4.6 1.8l3.7.7 1.2.5c.3.2.4.4.6.8.4.7.4 1.2.3 1.6a2 2 0 0 1-.9.9l-.4.2c-.3 0-.5.4-.4.7s.4.5.7.4l.6-.2c.4-.1 1-.4 1.7-1.1.3-.4.5-1 .6-1.5s0-1.2-.3-1.8c-.1-.4-.5-1.2-1-1.7s-1.2-.9-1.8-1.2c-1.2-.6-2.5-.9-3.7-1.3-1.3-.5-2.4-1-3.3-1.8a5.4 5.4 0 0 1-1.7-2.8 6.2 6.2 0 0 1 0-3.5c.3-1.1 1-2.2 1.8-3.2s1.8-2 2.9-2.8c1.8-1.5 3.7-3 5.7-4.1 1.6-1 3.3-1.6 5-.5.8.5 1.3 1.2 1.9 1.9l1.8 1.8a34 34 0 0 0 13.6 6l3.6 1c1 .3 2 .8 2.8 1.3l1 1v.1h.1v.1s.1.2 0 0l.2.3.2.4c.2.5 0 1.3-.5 2.2l-.9 2.8a7.2 7.2 0 0 0 .4 3.8l.1.5c.1.3.4.4.6.4.4 0 .6-.3.5-.7v-1.7c0-.5 0-1 .3-1.7l1.3-2.2c.3-.4.6-.9.8-1.5a5 5 0 0 0 .4-2.3l-.2-1.2-.2-.4-.2-.4v-.3l-1.4-1.8a9.7 9.7 0 0 0-3.7-2.5l-3.8-1.7-3.7-1.3-1.8-.7-.9-.3-.6-.3a8.7 8.7 0 0 1-4.1-4.8 16 16 0 0 0 8.7 1.5 23.3 23.3 0 0 0 7-1.6c1.5-.6 2.8-1.4 3.8-1.7a3 3 0 0 1 1.3-.2c.4 0 .8.2 1.3.4l.2.2c0-.1 0 0 0 0l.3.1.2.3c.2.3.3.7.4 1.3l.2 3.5a11.4 11.4 0 0 0 3 6.6l.4.4c.2.2.5.2.7 0 .3 0 .3-.4.2-.7l-.3-.5-.7-1.2-.6-2c-.1-.8-.2-1.7-.1-2.7l.2-3.5c0-.7 0-1.6-.3-2.5a4.2 4.2 0 0 0-1.2-1.7l-.2-.2h-.2v-.1l-.1-.1-.3-.2a6.4 6.4 0 0 0-5.5-1l-4.2 1.6c-1.2.5-2.5.8-3.8 1h-.6c1-.5 2-1 3-1.7l1.4-1 1.3-1.3.5-.6.2-.2.1-.3h.1l.1-.2 1-1.5c1.1-2.1 1.9-4.4 2.3-6.7l.5-3.4v-1.8l.1-1.7c0-4.4-.4-8.4 0-12a22.3 22.3 0 0 1 2.1-7.1l1.2-1.8a10.8 10.8 0 0 1 5.7-3.5c.8-.2 1.5-.2 2-.2h.7c.2 0 .5 0 .6-.3.1-.3 0-.7-.3-.8z" fill="url(#c)"/><linearGradient id="d" x1="43.4" x2="43.4" y1="84.3" y2="84.2" gradientUnits="userSpaceOnUse"><stop stop-color="#FBABA3" offset=".1"/><stop stop-color="#FAA9A1" offset=".1"/><stop stop-color="#EF8F8C" offset=".4"/><stop stop-color="#E8807F" offset=".6"/><stop stop-color="#E67A7A" offset=".8"/></linearGradient><circle cx="55.6" cy="77" r="4.6" fill="#fff"/><circle cx="55.6" cy="77" r="2.4"/><circle cx="70.8" cy="77" r="4.6" fill="#fff"/><circle cx="70.7" cy="77" r="2.4"/></svg>