<svg viewBox="0 0 128 128" xmlns="http://www.w3.org/2000/svg"><linearGradient id="a" x1="63.7" x2="63.7" y1="33" y2="86.5" gradientTransform="rotate(180 63.7 65)" gradientUnits="userSpaceOnUse"><stop offset="0"/><stop stop-color="#030303" offset=".2"/><stop stop-color="#0E0E0E" offset=".4"/><stop stop-color="#202020" offset=".6"/><stop stop-color="#393939" offset=".8"/><stop stop-color="#595959" offset="1"/><stop stop-color="#5C5C5C" offset="1"/></linearGradient><path d="M63.7 40.2c7.1 0 1.6 57.1 0 57.1-1.5 0-7.1-57.1 0-57.1z" fill="url(#a)"/><path d="M62.6 28.6l1-23 1 23z"/><radialGradient id="b" cx="61.4" cy="27.9" r="5.2" gradientUnits="userSpaceOnUse"><stop stop-color="#8F8F8F" offset="0"/><stop offset="1"/></radialGradient><ellipse cx="63.7" cy="30.5" rx="4.9" ry="4.1" fill="url(#b)"/><path d="M69.6 39.6c0 4-2.7 12-5.9 12s-5.8-8-5.8-12 2.6-7.4 5.8-7.4 5.9 3.3 5.9 7.4z"/><path d="M30.5 3.9a51.3 51.3 0 0 1 8.3 7c1.3 1.3 2.3 2.8 3.4 4.3a23 23 0 0 0 3.5 4.1l.1.1v.2l1.4 5.5.5 2.7.5 2.8-.7-1.1 3.8 2a69.6 69.6 0 0 1 10.5 7.7l-.2.3a43.8 43.8 0 0 1-8-3.2l-4-2-3.6-2.2-.7-.5V31l-.2-2.8-.1-2.9-.1-5.6.1.3a26.1 26.1 0 0 0-4-3.8A51.2 51.2 0 0 1 30.3 4.1l.3-.2zm31.4 36.8a58.4 58.4 0 0 1-10.7 6l.6-.4a50 50 0 0 1-4.4 6.6c-1.6 2.1-3.2 4.2-4.6 6.5a77.2 77.2 0 0 0-3.7 7 77.4 77.4 0 0 1-3.7 7v.2l-.2.2-4.7 4.6A131 131 0 0 1 14.9 91l-.2-.2a85 85 0 0 1 8.8-10l4.8-4.6 5-4.4-.3.3c1.4-2.2 3-4.4 4.6-6.5a77 77 0 0 0 4.5-6.6c1.3-2.2 2.4-4.7 3.6-7a52 52 0 0 1 3.8-7l.3-.4.3-.1a93.6 93.6 0 0 1 11.6-4l.2.3zm1.4 5.1a79 79 0 0 1-6.6 10.9L53 61.8a81 81 0 0 1-4 4.9l.2-.8.5 5 .7 5c.6 3.3 1.5 6.5 2.3 9.7v.7a183.9 183.9 0 0 1-6.1 18.2l-1.8 4.5-1.8 4.4a138 138 0 0 1-4.1 8.7v.1l-2 2-.2-.2 1.3-2.4v.2c.7-3.2 1.6-6.3 2.6-9.3l1.4-4.6 1.6-4.5a262.7 262.7 0 0 1 7.2-17.8v.5c-.4-3.4-.7-6.7-1.3-10l-1-4.9-1.2-4.8-.1-.3.2-.5 3.5-5.3 3.8-5a155.6 155.6 0 0 1 8.3-9.6l.3.2zM96.6 4.1l-3 4.6c-1 1.5-2.4 2.8-3.6 4-1.3 1.3-2.8 2.4-4.2 3.5a27.2 27.2 0 0 0-4 3.8l.2-.3v5.6l-.2 2.9-.2 2.8v.6l-.7.5-3.7 2.2a77 77 0 0 1-12 5.2v-.3A44.3 44.3 0 0 1 72 34l3.6-2.4 3.8-2-.7 1.1.5-2.8.5-2.7c.5-1.9 1-3.7 1.3-5.5v-.2l.2-.1c1.3-1.2 2.5-2.6 3.5-4 1-1.6 2-3.1 3.3-4.4a49.6 49.6 0 0 1 8.4-7l.2.2zM65.1 40.4a59.2 59.2 0 0 1 11.6 4l.4.1.2.4a50 50 0 0 1 3.9 7c1.1 2.4 2.2 4.8 3.6 7 1.4 2.3 3 4.5 4.5 6.6A109 109 0 0 1 94 72l-.3-.3 5 4.4a109.1 109.1 0 0 1 13.6 14.6l-.2.3a84.9 84.9 0 0 1-10.6-8.1l-5-4.4-4.7-4.7-.2-.2a115 115 0 0 1-3.7-7.1 77 77 0 0 0-3.8-7c-1.3-2.3-3-4.4-4.6-6.6-1.6-2-3-4.3-4.3-6.6l.6.5a93 93 0 0 1-10.7-6l.1-.4zm-1.3 5.2a79 79 0 0 1 8.4 9.6l3.8 5c1.2 1.7 2.4 3.5 3.4 5.3l.3.5v.3L78.2 71l-1 5c-.5 3.2-.9 6.6-1.2 9.9v-.5a180.4 180.4 0 0 1 7.2 17.8l1.5 4.5 1.5 4.6c1 3 1.8 6.1 2.6 9.3v-.2l1.3 2.4-.3.2-1.9-2-4.1-8.8-1.9-4.4-1.7-4.5a262.6 262.6 0 0 1-6.1-18.2l-.1-.4v-.1a138 138 0 0 0 3-14.8c.3-1.6.4-3.3.6-5l.1.8a78.6 78.6 0 0 1-4-4.9l-3.6-5.1a141.5 141.5 0 0 1-6.6-10.9l.2-.2z"/><linearGradient id="c" x1="15.1" x2="64.4" y1="41.4" y2="41.4" gradientUnits="userSpaceOnUse"><stop stop-color="#5C5C5C" offset="0"/><stop offset="1"/></linearGradient><path d="M63.3 41.9s-25.7-6.2-37.4-7-11.2 3.2-10.4 5.9 17.7 10.6 41.2 5.7c0 0 11-.8 6.6-4.6z" fill="url(#c)"/><linearGradient id="d" x1="64" x2="113.2" y1="41.4" y2="41.4" gradientUnits="userSpaceOnUse"><stop offset="0"/><stop stop-color="#5C5C5C" offset="1"/></linearGradient><path d="M65 41.9s25.7-6.2 37.4-7 11.3 3.2 10.4 5.9c-.8 2.7-17.6 10.6-41.1 5.7 0 0-11.2-.8-6.7-4.6z" fill="url(#d)"/><circle cx="59.3" cy="28.1" r="3.3" fill="#fff" stroke="#999" stroke-miterlimit="10" stroke-width=".7"/><circle cx="59.3" cy="28.1" r="1.5"/><circle cx="68.3" cy="28.1" r="3.3" fill="#fff" stroke="#999" stroke-miterlimit="10" stroke-width=".7"/><circle cx="68.3" cy="28.1" r="1.5"/><path d="M63.6 28.4h.7c1.3.2 2.3 1.1 2.3 2 0 .8-.5 1.3-.8 1.5L64 33.4l1.9 1.6c.5.5 1 1.1 1.3 1.9l.3.7v.7a7.4 7.4 0 0 1 .1 2.3l-.2 2.8 2.7-.6a292 292 0 0 1 35.3-6c4.5 0 5.6 1 5.8 1.3.2.3.2 1 0 2-1.3 1.5-10.4 6-24.4 6-2.5 0-5-.2-7.4-.5l-2.4-.2-1-.2-3.8-.7H72s-1.6-.1-3.2-.5l-1.7-.3-.5 1.6-.4 1-1.3-2 .2 4.1-.4.8.5.6V52c.6 10-.3 23.6-1.3 33.1-1-9.9-2-24.2-1.4-34.1l.1-2 .2-.2-.1-.4.3-5.4-1.7 2.7v-.3l-.7-1.6-1.6.3-2.3.3h-.4l-5.4 1h-1l-2.2.3-6 .2c-14 0-23.1-4.4-24.3-6-.3-1-.3-1.6 0-2 .2-.2 1.2-1.2 5.7-1.2l2.8.1c8.1.6 23.3 3.8 31.6 5.7l2.7.6-.2-2.8a11.4 11.4 0 0 1 0-2l.1-.6.3-.7c.3-.9.8-1.6 1.4-2.1l1.8-1.6-2-1.5c-.3-.2-.8-.7-.8-1.4 0-1 1-1.8 2.3-2l.5-.1M96.4 3.9a51.3 51.3 0 0 0-8.3 7c-1.3 1.3-2.3 2.8-3.3 4.3s-2.3 2.9-3.6 4.1v.1l-.1.2c-.3 1.8-.8 3.6-1.3 5.5a52 52 0 0 0-.6 2.7l-.3 2a54.5 54.5 0 0 0-10 6.3c-.4-1-1-2-1.8-2.6 1-.8 1.5-1.8 1.5-3 0-2-1.7-3.7-4-4l-1-20.8-.9 20.8c-2.2.4-3.8 2-3.8 4a4 4 0 0 0 1.5 3c-.8.7-1.5 1.7-2 2.9a70.7 70.7 0 0 0-10.3-6.6l-.3-2-.6-2.7c-.5-1.9-1-3.7-1.3-5.5v-.2l-.1-.1a27.2 27.2 0 0 1-3.6-4c-1-1.6-2-3-3.3-4.4a49.6 49.6 0 0 0-8.3-7l-.2.2c.9 1.6 2 3.1 3 4.6s2.3 2.7 3.6 4c1.2 1.3 2.7 2.4 4.1 3.5a26 26 0 0 1 3.8 3.6c.2 1.9.1 3.7 0 5.5l.2 2.9.2 2.8v.6l.7.5 3.7 2.2a77 77 0 0 0 7.8 3.7l.5.2a9 9 0 0 0 0 2.4 279.6 279.6 0 0 0-35-5.8c-8.6 0-8.2 3.5-7.5 6 .6 2 10.8 7.2 26.3 7.2 1.9 0 4 0 6-.2a54 54 0 0 0-2 4c-1.2 2.5-2.3 4.9-3.7 7.2a80.2 80.2 0 0 1-4.5 6.5l-4.4 6.3-4.9 4.3a109.1 109.1 0 0 0-13.6 14.7l.2.2a84.9 84.9 0 0 0 10.6-8.1l5-4.4 4.7-4.7.2-.1v-.2a115 115 0 0 0 3.7-7 77 77 0 0 1 3.8-7c1.3-2.3 3-4.4 4.6-6.6a44 44 0 0 0 3.7-5.5l5.5-.9s1.1 0 2.5-.3l1 2.4a81.8 81.8 0 0 0-5.5 6.6l-3.8 5a79.1 79.1 0 0 0-3.4 5.4l-.3.4.1.3 1.3 4.9a79 79 0 0 1 2.2 14.5 173 173 0 0 0-7.2 17.6l-1.5 4.5-1.5 4.6c-1 3-1.8 6.2-2.6 9.3l-1.3 2.2.3.2 1.9-2c1.5-3 2.8-5.9 4-8.8l2-4.4 1.7-4.5a262.6 262.6 0 0 0 6.1-18.2v-.5a138 138 0 0 1-3-14.7l-.4-4.5a80 80 0 0 0 3.8-4.7l3.6-5.1 3.5-5.3.2-.4c-1 16.5 2.3 46.4 3.3 46.4 1.2 0 4.3-28.7 3.5-45.4l3 4.7c1.2 1.7 2.4 3.5 3.7 5.1a76 76 0 0 0 3.8 4.7 134.4 134.4 0 0 1-1.2 9.4c-.6 3.3-1.5 6.5-2.3 9.8v.5a183.9 183.9 0 0 0 6 18.2l1.9 4.5 1.8 4.4c1.3 3 2.6 5.8 4.1 8.7v.1l2 2 .2-.2-1.3-2.2c-.7-3.2-1.6-6.2-2.6-9.3l-1.4-4.6-1.6-4.5a262.7 262.7 0 0 0-7.2-17.6 133.5 133.5 0 0 1 2.3-14.5c.3-1.7.8-3.3 1.2-4.9l.1-.3-.2-.4c-1.1-1.9-2.3-3.6-3.5-5.4l-3.8-5-4-4.9L67 49c.5-.9 1-2 1.3-3 1.7.4 3.4.5 3.4.5l4 .7c1 2 2.3 4 3.7 5.7a77.2 77.2 0 0 1 8.3 13.5l3.7 7.1.1.2.2.1a207.9 207.9 0 0 0 9.7 9A138.7 138.7 0 0 0 112 91l.2-.3a85 85 0 0 0-8.9-10l-4.7-4.6-4.9-4.3-4.4-6.3a77 77 0 0 1-4.5-6.6 57.7 57.7 0 0 1-3.6-7L79 47.6c2.6.3 5.2.4 7.6.4 15.4 0 25.6-5.1 26.2-7.2.8-2.5 1.2-6-7.5-6l-3 .1c-8.6.6-25 4.2-32.8 6a14.3 14.3 0 0 0 0-2.9 66.5 66.5 0 0 0 7.7-3.7l3.7-2.2.7-.5V31l.2-2.8.1-2.9v-5.5a27 27 0 0 1 3.9-3.6c1.4-1 2.9-2.2 4.1-3.4A51.2 51.2 0 0 0 96.6 4l-.2-.2z" fill="#eee" opacity=".2"/></svg>