<svg viewBox="0 0 128 128" xmlns="http://www.w3.org/2000/svg" xmlns:xlink="http://www.w3.org/1999/xlink"><g fill="none" stroke="#AB521C" stroke-miterlimit="10" stroke-width="2"><path d="M93.7 77.6v19l.1.3 2.3 6.4.1.6-2.1 15.8-.3.6-1 1.8v.7c0 .6-.5 1.2-1.2 1.2h-1.1c-1 0-1.5-1-1-1.8l1.9-2.5.2-.5 1.3-12a6.2 6.2 0 0 0-1-4.2l-8-11.6a13.6 13.6 0 0 1-2.2-7.6V76c0-.7.6-1.2 1.3-1.1l9.8 1.5c.5.1 1 .6 1 1.2z"/><path d="M92.7 122.4h-3.3l-1.1 1.6h4.5v-1.6z"/></g><g fill="none" stroke="#AB521C" stroke-miterlimit="10" stroke-width="2"><path d="M58 78.5l2.3 23.3-.9 17.3-3.4 4.8h4.5v-3.1l.9-1 .4-.6.1-.7.9-17.5 2.6-21-7.5-1.6z"/><path d="M57.4 122l-1.4 2h4.5v-2z"/></g><path d="M99.9 92.1v-15c0-1.6-.4-3.1-1-4.5a8.8 8.8 0 0 0-3-3.4l-6.2-2.5.6-1.1 6.3 2.5A11.3 11.3 0 0 1 101 77v15.1h-1z" fill="#BD621C"/><path d="M100 88.8c-.4.6-.6 1.7-.6 3.2 0 2.5 1 8.5 1 8.5s1.1-6 1.1-8.5c0-1.5-.2-2.6-.5-3.3h-1z" fill="#383838"/><linearGradient id="a" x1="89" x2="89" y1="77.9" y2="123.2" gradientUnits="userSpaceOnUse"><stop stop-color="#FFB24B" offset=".1"/><stop stop-color="#FCAF48" offset=".3"/><stop stop-color="#F5A440" offset=".5"/><stop stop-color="#E79231" offset=".6"/><stop stop-color="#D5791D" offset=".8"/><stop stop-color="#BD5904" offset="1"/><stop stop-color="#BA5400" offset="1"/></linearGradient><path d="M93.7 77.6v19l.1.3 2.3 6.4.1.6-2.1 15.8-.3.6-1 1.8v.7c0 .6-.5 1.2-1.2 1.2h-1.1c-1 0-1.5-1-1-1.8l1.9-2.5.2-.5 1.3-12a6.2 6.2 0 0 0-1-4.2l-8-11.6a13.6 13.6 0 0 1-2.2-7.6V76c0-.7.6-1.2 1.3-1.1l9.8 1.5c.5.1 1 .6 1 1.2z" fill="url(#a)"/><path d="M92.7 122.4h-3.3l-1.1 1.6h4.5v-1.6z"/><linearGradient id="b" x1="60.7" x2="60.7" y1="76" y2="123.2" gradientUnits="userSpaceOnUse"><stop stop-color="#FFB24B" offset=".1"/><stop stop-color="#FCAF48" offset=".3"/><stop stop-color="#F5A440" offset=".5"/><stop stop-color="#E79231" offset=".6"/><stop stop-color="#D5791D" offset=".8"/><stop stop-color="#BD5904" offset="1"/><stop stop-color="#BA5400" offset="1"/></linearGradient><path d="M58 78.5l2.3 23.3-.9 17.3-3.4 4.8h4.5v-3.1l.9-1 .4-.6.1-.7.9-17.5 2.6-21-7.5-1.6z" fill="url(#b)"/><path fill="#0A0A0A" d="M57.4 122l-1.4 2h4.5v-2z"/><path fill="#4A4A4A" d="M100.1 122.4H97l-1 1.6h4.1l-.1-1.3z"/><path fill="#BD621C" d="M35.5 16.4l3.6.3.2 5-2.5-.3-1-2.1z"/><path d="M58 42c1 1.7 2.2 3.3 3.8 4.8s3.6 2.8 3.6 2.8a9.2 9.2 0 0 1 4.4 4.5v-.2c.4 1 1 2 1.9 2.8-1-1.9-1-4.9-2-6-.8-.7-1.5-1.4-2.4-1.8 0 0-2.1-1.4-3.7-2.8s-2.8-3.2-3.8-5L38.5 9.9a1 1 0 0 0-.7-.5l-.7.1.1.3L58 42z" fill="#61370B"/><linearGradient id="c" x1="68.1" x2="68.1" y1="14.3" y2="121.3" gradientUnits="userSpaceOnUse"><stop stop-color="#FFB24B" offset=".1"/><stop stop-color="#FCAF48" offset=".3"/><stop stop-color="#F5A440" offset=".5"/><stop stop-color="#E79231" offset=".6"/><stop stop-color="#D5791D" offset=".8"/><stop stop-color="#BD5904" offset="1"/><stop stop-color="#BA5400" offset="1"/></linearGradient><path d="M100.4 103.6l-2.2-4c-.7-1.2-1.2-1.7-1.5-3-.4-1.4-.5-2.7-.5-4V75.5a11.9 11.9 0 0 0-7.4-11l-14.3-6a9 9 0 0 1-4.8-4.6l.1.2a9.3 9.3 0 0 0-4.4-4.5s-2-1.3-3.6-2.8-2.9-3.1-3.9-4.9L38 10.3l-3 4.4 19.8 46.1s-1.8 8 0 14.9c1.7 6.4 6.4 8.8 6.4 8.8l4.1 16.5 1.5 18.4-3.1 4.6h4.8l-.3-3.2.9-1a1.6 1.6 0 0 0 .4-1.2l-1.7-18.5L69 82.4A32.6 32.6 0 0 0 84 84a14.3 14.3 0 0 0 2.9 7.7l9.7 12.3.5 1 .3 1.1 1.2 13.6L96 124h4.1l-.1-1.3 1.2-2.4v-.6l-.8-16.1z" fill="url(#c)"/><path d="M100.4 103.6l-2.2-4c-.7-1.2-1.2-1.7-1.5-3-.4-1.4-.5-2.7-.5-4V75.5a11.9 11.9 0 0 0-7.4-11l-14.3-6c-1-.3-2-1-2.8-1.8-1-1.9-1-4.9-2-6-.8-.7-1.5-1.4-2.4-1.8 0 0-2.1-1.4-3.7-2.9s-2.8-3-3.8-4.8L38.5 9.8a1 1 0 0 0-.6-.5l-.8.1.1.3.5.8-2.8 4.2 19.8 46.1s-1.8 8 0 14.9c1.7 6.4 6.4 8.8 6.4 8.8l4.1 16.5 1.5 18.4-3.1 4.6h4.8l-.3-3.2.9-1a1.6 1.6 0 0 0 .4-1.2l-1.7-18.5L69 82.4A32.6 32.6 0 0 0 84 84a14.3 14.3 0 0 0 2.9 7.7l9.7 12.3.5 1 .3 1.1 1.2 13.6L96 124h4.1l-.1-1.3 1.2-2.4v-.6l-.8-16.1z" fill="none" stroke="#AB521C" stroke-miterlimit="10"/><path fill="#BD621C" d="M51 37.3l-.2 3.9-2.3.7-1.2-4.6zm-1.5 6.4l3.4-.3 2 1.2.5 4.4-3.2.8zm4 7.9l3.5-.3 3.5 1.4-.5 4-3.9 1.3zm7.9 2.7l-1.2 5.1 5.1 2.5v-3.6zM69.7 54h.1a9.3 9.3 0 0 0-4.4-4.4l-.9-.6-2.3 4.1 3.7 4.5 4.1-3c0-.3-.2-.5-.3-.7zM44.2 24.4l.2 4 3.6 1 1.2-1.1-3.5-5.7zm19.1 23.7a23.9 23.9 0 0 1-4.4-4.5L56.2 45v5.2l4.6 1.2 2.5-3.3zM44 22.5l.8-1.2-2.8-4.4-1.9.4V22zm-4-6l1.2-.9-3.3-5.2-1.9.4.1 4.8zm7.5 14.1l.2 4.5 3.3 1.7 2.2-2.2-3.2-5.2zm7.5 13l3-1.5v-.2l-4.3-6.5-2 2-.4 4.6 3.6 1.6zm39.6 25.9L91.3 71l1.4 4.3 3.4-.5a12 12 0 0 0-1.5-5.3zm-.7-1a11.9 11.9 0 0 0-4.5-3.7l-2.2 1.5 2.6 3 4-.8zm-12.3-5.7l.3-1.2-6.3-2.6v3l2.4 2zm-7.2-1.4l.5-2.7-.4-.1a9 9 0 0 1-4-3.2l-3 3 3.1 3.5 3.8-.5zm13.9 2.8L82.8 62l-.3 1.3 2.9 3.1zM66.4 59.3l.1 3.4 3.3.2zm2.9 4.7l5.2-1.8 3.3 3.1-1 3.3h-5.1zm9 4.6l.5-3.4 3.1-.8 3.2 3.2-1 3.1-4.5.7zm-22.2-7.5l3.6-1.1 3.9 2.3-.6 4.2-5.4.8-1.5-2.6zm7.8 5.9l1.3-4 3 1.3 2.6 5-4.2 1.4zM59 69l4.1-.8 2.9 3.2-3.5 2.6-3.4-.2zm26 1.7l1-2.9 3.6 2.5 1.3 3-4 2.1zm-16.3.8l3.8-1.5 3 .3 1.8 3.5-5.5 1.4zm9.6 3.2l4.4-2.5L85 76l-3.7 2zM63.4 76l3.4-2.4 2.7 3.6-2.9 2-2.4-.8zm8.3 1.7l4.2-1.4 2.7 2.5-1.6 2.3-4.3-.7zm15.7-.4l3.4-2.3 2.7 4.2-2.3 2-3.7-1zm-6.4 3l3.2-1.7 1.8 3-3 .8zm12.4.7l-2.2 2.4L94 86l1.1-2.7zm-6.9 2.5l2.5-.9 1.2 2.6-2.4 1.4zM62.7 81l2.6-1.2 1.4 2.9-2.2 1.2zm28 6.3l2-1.3 1.8 2.2L93 90z"/><path d="M100.1 122.4h-3.3l-1 1.6h4.5l-.2-1.6z"/><path fill="#BD621C" d="M40.6 23.2l3.1.3v4.3l-2-.3-.8-1.8zm3.4 6.3l2.8.1.2 3.3-2.5-.6z"/><path d="M64.9 122.1l-1.3 1.9h4.8l-.2-1.9z"/><path d="M36.4 9.8s1.6-2.3.9-6l2.2-.1s-.3 3.8 1.2 6.3l-4.4-.3zm10.1 0s-1.7-2.3-1-6l-2.2-.1s.3 3.8-1.2 6.3l4.4-.3z" fill="#E0881D" stroke="#CC6A00" stroke-linecap="round" stroke-linejoin="round" stroke-miterlimit="10" stroke-width="1.1"/><linearGradient id="d" x1="28.8" x2="31.7" y1="10.2" y2="7.1" gradientUnits="userSpaceOnUse"><stop stop-color="#915616" offset="0"/><stop stop-color="#4F2A07" offset=".7"/><stop stop-color="#2E1400" offset="1"/></linearGradient><path d="M33 9c-1.3-2.4-4.6-2-5.3-4.6-.2.7-1 4.4 1.6 6.4a8 8 0 0 0 4 1.6c.3-1.2.4-2.4-.3-3.5z" fill="url(#d)"/><path d="M35 12.2s-.4-5.8-3-7.2-4.2-.7-4.2-.7v.1c.7 2.6 4 2.2 5.3 4.5.6 1.1.6 2.3.2 3.5 1.2 0 1.9-.2 1.9-.2z" fill="#FF8600"/><linearGradient id="e" x1="156" x2="158.9" y1="10.2" y2="7.1" gradientTransform="matrix(-1 0 0 1 210 0)" gradientUnits="userSpaceOnUse"><stop stop-color="#915616" offset="0"/><stop stop-color="#4F2A07" offset=".7"/><stop stop-color="#2E1400" offset="1"/></linearGradient><path d="M49.8 9c1.3-2.4 4.6-2 5.3-4.6.1.7 1 4.4-1.6 6.4a7.4 7.4 0 0 1-4 1.6c-.3-1.2-.3-2.4.3-3.5z" fill="url(#e)"/><path d="M47.7 12.2S48.2 6.4 51 5c2.7-1.3 4.2-.7 4.2-.7v.1C54.4 7 51 6.6 49.8 9a4.3 4.3 0 0 0-.2 3.5c-1.2 0-1.9-.2-1.9-.2z" fill="#FF8600"/><path d="M28.8 5.2a6 6 0 0 1 2.6.7c1.4.7 2.2 3.4 2.6 5.5h-.7a6.7 6.7 0 0 1-3.4-1.4c-1.7-1.3-1.5-3.7-1.3-4.8h.2m0-1l-1 .1v.1c-.2.7-1 4.4 1.5 6.4a8 8 0 0 0 4 1.6h.4c.8 0 1.4-.2 1.4-.2s-.5-5.8-3.2-7.2a6.9 6.9 0 0 0-3.1-.8zm25.2 1h.2c.2 1 .4 3.5-1.3 4.8-1 .8-2.2 1.3-3.4 1.4h-.8c.4-2.1 1.2-4.8 2.6-5.5 1.2-.6 2-.7 2.6-.7m0-1a7 7 0 0 0-3 .8c-2.7 1.4-3.3 7.2-3.3 7.2s.5.2 1.4.2h.4a8 8 0 0 0 4-1.6c2.5-2 1.7-5.7 1.6-6.4s-.4-.2-1-.2z" fill="#EDA353"/><linearGradient id="f" x1="41.4" x2="41.4" y1="7.5" y2="32.4" gradientUnits="userSpaceOnUse"><stop stop-color="#EBB273" offset="0"/><stop stop-color="#EBB374" offset="0"/><stop stop-color="#F4D499" offset=".4"/><stop stop-color="#FAE9B0" offset=".8"/><stop stop-color="#FCF0B8" offset="1"/></linearGradient><path d="M41.4 7.5c-8.3 0-9 7.3-8.3 10.4.5 2.8 4.9 14.5 7.5 14.5h1.5c2.7 0 7-11.7 7.6-14.5.6-3.1 0-10.4-8.3-10.4z" fill="url(#f)"/><defs><path id="g" d="M41.4 7.5v-.1c-8.3 0-9 7.4-8.3 10.6.6 2.7 4.9 14.5 7.5 14.5h1.5c2.7 0 7-11.7 7.6-14.5.6-3.2 0-10.5-8.3-10.6z"/></defs><clipPath id="h"><use xlink:href="#g"/></clipPath><path d="M49.8 8.7s-7.3-5.1-8.4-2.3c-1-2.9-8.4 2.3-8.4 2.3-.3 1.6 3.2.6 5.4 5.6 1.6 3.5 1 4.6 0 6.7-1 2 2.7 1.5 3 1.5.4 0 4 .5 3-1.5-1-2.1-1.6-3.2 0-6.7 2.2-5 5.7-4 5.4-5.6z" clip-path="url(#h)" fill="#F29023"/><g clip-path="url(#h)"><path fill="#BD621C" d="M41.4 7.5l.2 3.6 2.3 2 2.5-2.2-.6-5.8z"/></g><g clip-path="url(#h)"><path fill="#BD621C" d="M36 6l5 .5-2 4.4-1.6.7-2.7-2.9z"/></g><g clip-path="url(#h)"><path fill="#BD621C" d="M38.4 11.8h2l.2 2.5-1.8-.5z"/></g><g clip-path="url(#h)"><path fill="#BD621C" d="M41.7 13.6h1.7v2.1l-2.4.1z"/></g><ellipse cx="33.3" cy="23.1" rx="2.1" ry="2.3" clip-path="url(#h)" fill="#EDC89F"/><g fill="#383838"><path d="M41.4 32.4c-2 0-3.2-1.5-3.7-2.3h7.4c-.5.8-1.7 2.3-3.7 2.3z"/><path d="M44.3 30.5a3.5 3.5 0 0 1-5.8 0h5.8m1.4-.7h-8.6s1.3 3 4.3 3 4.3-3 4.3-3z"/></g><linearGradient id="i" x1="41.4" x2="41.4" y1="16.6" y2="30.4" gradientUnits="userSpaceOnUse"><stop stop-color="#F29024" offset=".3"/><stop stop-color="#ED8B21" offset=".4"/><stop stop-color="#E07C18" offset=".6"/><stop stop-color="#C9640A" offset=".9"/><stop stop-color="#BA5400" offset="1"/></linearGradient><path d="M46.2 24.5c-.7-2.4-2.3-4.7-3.4-6.9-.6-1.2-2.2-1.3-2.8 0-1.5 2.8-3.6 5.7-3.7 9 0 2.8.9 3.9 5 3.9 4.4 0 5.7-1.2 5-5.4l-.1-.6z" fill="url(#i)"/><path d="M41.4 8.4a8 8 0 0 1 5 1.6c2 1.6 3 4.8 2.3 7.7a48 48 0 0 1-3 8.7l-.2.3v.2c.2 1.7-.4 3.1-1.4 3.9l-.2.1c-.7.8-1.5 1.3-2.4 1.3-.9 0-1.6-.4-2.3-1.1L39 31l-.1-.1c-1-.7-1.6-1.8-1.6-3.3v-1.1a68 68 0 0 1-3.4-8.8 9.8 9.8 0 0 1 .1-4.1c.4-1.5 1-2.8 2-3.6.7-.5 1.4-1 2.2-1.2a9.7 9.7 0 0 1 3-.4m0-1a12.8 12.8 0 0 0-3.3.5c-.9.3-1.7.7-2.5 1.3-1.2 1-2 2.5-2.4 4.1-.3 1.5-.3 3.1 0 4.6s1.7 5.5 3.3 9v.6c0 2 .7 3.4 2 4.2a4 4 0 0 0 3 1.4c1.5 0 2.6-.7 3.3-1.5 1.4-1 2-2.8 1.9-4.8 1.6-3.4 2.8-7.4 3.1-8.9.6-3-.3-6.7-2.6-8.7a8.8 8.8 0 0 0-5.7-1.8z" fill="#EDA353"/><g fill="#4E342E"><ellipse transform="rotate(-32.5 39.9 26)" cx="39.9" cy="25.9" rx=".6" ry="1.8"/><ellipse transform="rotate(-57.5 42.9 26)" cx="42.9" cy="25.9" rx="1.8" ry=".6"/></g><path d="M38.5 5.4c-.3 0-.6 0-.9-.2a1.8 1.8 0 0 1-.7-2.4 1.5 1.5 0 0 1 2.2-.6c.9.5 1.2 1.6.7 2.4-.3.5-.8.8-1.3.8z" fill="#6E3F1B"/><path d="M38.3 2.5l.6.1c.5.4.8 1.2.4 1.8a1 1 0 0 1-.9.5c-.2 0-.4 0-.5-.2-.6-.3-.8-1.1-.5-1.7.2-.3.5-.5.9-.5m0-1a2 2 0 0 0-1.8 1c-.6 1-.2 2.5.8 3.1l1.2.3a2 2 0 0 0 1.7-1c.6-1.1.2-2.5-.8-3.1-.4-.2-.7-.3-1.1-.3z" fill="#3D230F"/><path d="M44.4 5.4c-.6 0-1.1-.3-1.4-.8-.5-.8-.1-1.9.7-2.4.2-.2.5-.2.8-.2.6 0 1 .3 1.4.8a2 2 0 0 1-.7 2.4l-.8.2z" fill="#6E3F1B"/><path d="M44.5 2.5c.4 0 .7.2 1 .5.2.6 0 1.4-.6 1.7-.1.2-.3.2-.5.2a1 1 0 0 1-1-.5c-.3-.6 0-1.4.5-1.8l.6-.1m0-1c-.4 0-.7 0-1.1.3-1 .6-1.4 2-.8 3 .3.7 1 1.1 1.8 1.1.3 0 .7 0 1-.3 1.1-.6 1.5-2 1-3a2 2 0 0 0-1.9-1.2z" fill="#3D230F"/><ellipse transform="rotate(-16.1 36.2 16.8)" cx="36.2" cy="16.8" rx="1.5" ry="2.2" fill="#242424"/><path d="M34 16.9a1 1 0 0 1-1 0c.4.4.8.5 1.2.3.4-.1.7-.4.9-.8 0-.2.2-.4.1-.6l-.7.3c-.2.3-.2.6-.5.8z" fill="#242424"/><path d="M35.3 14.5c-1 .4-1.5 1.4-1.2 2.2l3.5-1.4c-.3-.9-1.3-1.2-2.3-.8z" fill="#636363"/><ellipse transform="rotate(-73.9 46.6 16.8)" cx="46.6" cy="16.8" rx="2.2" ry="1.5" fill="#242424"/><path d="M48.8 16.9c.3.2.6.2 1 0a1 1 0 0 1-1.2.3c-.4-.1-.7-.4-.9-.8 0-.2-.2-.4-.1-.6l.7.3c.2.3.2.6.5.8z" fill="#242424"/><path d="M47.5 14.5c1 .4 1.5 1.4 1.2 2.2l-3.5-1.4c.3-.9 1.3-1.2 2.3-.8z" fill="#636363"/></svg>