<svg viewBox="0 0 128 128" xmlns="http://www.w3.org/2000/svg"><path d="M52.2 5.9c.4 0 .6.4.8 1.1.6 3.5.3 7.7-1 9.6l-.5.5.3.7.5.5c.5.7.5 1.5.2 2.2l.2.6c1 0 1.9.6 2.2 1.5.4 1-.2 2.4-1.3 2.8 1.5 0 2.6 1.8 2.1 3.2-.3.8-1.2 1.4-2 1.4v2.8c1.2 1 2 3.8.1 5.3a3 3 0 0 1 2.8 2.7 3 3 0 0 1-2.5 3 4 4 0 0 1 3 3c.2 1.3-.5 3-1.8 3.7l.5-.1c1.3 0 2.4 1.3 2.2 2.6-.2.9-.8 1.6-1.7 2a2.9 2.9 0 0 0 2.1.5c2.1-.3 4.3-.4 6.5-.4h.3c3.4 0 6.5.2 9.2.4.6-.7 1.6-1.2 2.5-1.2h.2c1.3 0 2.7.9 3.2 2.1l.4.1a3.3 3.3 0 0 1 3.4-1.5c1.4.3 2.6 1.7 2.5 3.2.5-.5 1.1-.8 1.8-.8.9 0 1.8.5 2.3 1.3.4.7.5 1.6.3 2.4 1.1 1 2 2 2.6 3h.7c2 0 3.9 1 3.3 3.4a3 3 0 0 1 2-.8c.6 0 1.2.2 1.7.6 1 .8 1.3 2.5.5 3.6h.3c1.3 0 2.5 1.1 2.6 2.5 0 1.3-1.2 2.6-2.6 2.6h-.1c.9.3 1 1.5.6 2.4-.7 2.3-2.7 2.8-4.2 2.8l-1.6-.2a5.5 5.5 0 0 1-.3 6.3c2.1 2.2.8 6.4-2.4 7.2.8 2 .1 4.3-.6 6.4l-1.8 5.8.2.8c.3 1.3.6 2.7.4 4a3.5 3.5 0 0 1-2.6 2.8 5 5 0 0 1-.2 3.7c.2.3.2.7.2 1a3 3 0 0 1-3 3.1h-1a3 3 0 0 1-3-3c0-.6.2-1.2.5-1.6-.7 0-1.3-.6-1.7-1.2l-.6-1.2-.5.2c-.2 0-.4 0-.5-.2 0 .7-.3 1.3-.8 1.7.3.5.5 1.1.4 1.8a3 3 0 0 1-3 2.8h-1.2a3 3 0 0 1-2.7-3.3v-.6l-.3-.4-.7.2c-.6 0-1.2-.3-1.5-.9-.4-.8 0-1.9.8-2.2-1-.2-1.9-1-2.1-2s0-2.2.8-2.9a3 3 0 0 1-1.7-2.3c-.1-.9.2-1.8.7-2.4v-.5a4 4 0 0 1-2.1-3.6c0-.8.2-1.5.5-2.1a4 4 0 0 1-.8-1h-.6c-.4.9-1 1.6-1.9 2l-1.3.2c-.9 0-1.8-.3-2.4-.9l-1.5.3a10 10 0 0 1-5-1.7l-1.1-.1c.1.6.5 4.4.4 5.1-.2 1.2-.8 2.3-1 3.5-.2 1.3.2 2.7 0 4-.1 1.2-1 2.6-2.2 2.6h-.3c.5 1.1.2 3.3-.8 4.4a3 3 0 0 1 1 2.2 3 3 0 0 1-3 3.1h-1a3 3 0 0 1-3-3c0-.5 0-.9.2-1.2l-.4-.6-.5-2.1c-.3 0-.5-.2-.8-.3 0 .4-.3.8-.5 1.2.3.5.5 1 .5 1.6a3 3 0 0 1-3 3h-1a3 3 0 0 1-2.9-4 2 2 0 0 1-1-1.1 2 2 0 0 1 .9-2.4c-.8 0-1.3-.9-1.4-1.7 0-.7.1-1.5-.1-2.3-.4-1-1.3-1.6-2-2.5s-.6-2.3.3-2.7a3 3 0 0 1-2-2.3c0-1 .6-2.2 1.6-2.6a3.6 3.6 0 0 1-1-6c-.5 0-1.4-2.5-1.4-2.8 0-.7.1-1.4.5-2.1-.7-.8-1-1.9-1-3a2 2 0 0 1-.9.3c-.9 0-1.9-.6-2.3-1.5a4.4 4.4 0 0 1 0-3.7c.2-.6.5-1.3 1-2l-.2-1.1c-1-.7-1.7-2-1.8-3.2-.2-1.7.5-3.2 1.4-4.6v-1c-1.5-2-1.1-5.3.9-7v-.2a5.3 5.3 0 0 1-1-4.4 4.8 4.8 0 0 1 2.4-3.1l.1-1a3 3 0 0 1-1.2-1.8 6 6 0 0 1 .9-3.7c-1.2-.4-2.1-1.4-2.4-2.6s.3-2.5 1.3-3.3h-.1c-.6 0-1.5-3.1-1.5-3.5a4.3 4.3 0 0 1 2.5-3.8l-.2-2.7h-.3l-.9-.3c-.5-.4-.8-1.2-.6-1.9s.6-1.2 1.2-1.6c-1-.5-1.6-1.6-1.5-2.6 0-1 .8-2 1.8-2.4a3 3 0 0 1-.5-3.3c.3-.5 1.4-1.5 2.2-1.5h.1l.2-.5-.5-.6c-1.3-1.9-1.6-6.1-1-9.6.2-.7.4-1.1.8-1.1.3 0 .6.2 1 .6 1 1 2.4 3 4.1 5h.4c-.2-.8.2-1.7 1.4-2.6a3 3 0 0 1 2-.7 3 3 0 0 1 2.3 1 2.2 2.2 0 0 1 2-.8c.8.2 1.5.7 1.7 1.4.4-.3.9-.4 1.4-.4.5 0 1 .1 1.4.5l.5.8c.6.2 1 .5 1.5.8 1.8-2 3.2-4 4.1-5 .5-.4.8-.6 1-.6m0-2c-.8 0-1.5.4-2.3 1.2a94.6 94.6 0 0 1-3 3.8l-.4-.4a4 4 0 0 0-3.4-1 4.2 4.2 0 0 0-2.7-1 4 4 0 0 0-1.7.3c-.7-.4-1.5-.5-2.4-.5-1.1 0-2.3.3-3.1 1l-.8.8a192 192 0 0 1-2.5-3A3 3 0 0 0 27.6 4c-.5 0-2.2.1-2.7 2.7-.6 3.1-.5 7.3.7 10-.7.5-1.3 1.2-1.5 1.6a4.8 4.8 0 0 0-.4 3.6c-.7.8-1 1.8-1.2 2.9 0 1 .2 2 .8 2.8-.2.3-.4.7-.4 1.1-.3 1.5.2 3 1.3 3.8.1.2.3.3.6.4a6.6 6.6 0 0 0-2.5 4.9c0 .5.4 2.2 1 3.5-.6 1-.8 2.4-.6 3.7.2 1.2.9 2.2 1.8 3a6.2 6.2 0 0 0-.3 3.3c.1.6.3 1.2.7 1.7-1 .8-1.6 2-2 3.3a8 8 0 0 0 .6 4.8 7.4 7.4 0 0 0-.6 7.8 9 9 0 0 0-1.4 5.2 6 6 0 0 0 1.9 4l-.7 1.5a6.2 6.2 0 0 0 0 5.3c.7 1.3 2 2.2 3.3 2.4l.5 1-.3 2.2s.3 1.4 1 2.6c-.6 1-.9 2.3-.7 3.6.2 1 .6 1.8 1.2 2.6-.4.8-.6 1.7-.6 2.6.1 1 .6 2 1.3 2.7-.2 1 .1 2.3.8 3.2l.9 1 .7 1v1.9c.1.7.4 1.3.7 1.8a4 4 0 0 0 0 2.7c.1.5.4 1 .7 1.3v.2a5 5 0 0 0 5 5h.9a5 5 0 0 0 3.2-1.2 5 5 0 0 0 4.3 2.5h1a5 5 0 0 0 5-5 6 6 0 0 0-.6-2.3c.4-1 .6-2 .6-3a5.2 5.2 0 0 0 2.3-3.7v-4c0-.4.2-.8.4-1.3.2-.6.5-1.3.6-2.1V100a10 10 0 0 0 4.9.7 5.6 5.6 0 0 0 4.8.3h.1a6 6 0 0 0 1.7 3.6 4.9 4.9 0 0 0 .8 5 4.7 4.7 0 0 0 1.1 5c-.2.9-.2 1.7.2 2.5.4 1 1.3 1.6 2.3 1.9a5 5 0 0 0 4.5 4.2h1.3a5 5 0 0 0 4.5-2.8 5 5 0 0 0 4.8 3.5h1a5 5 0 0 0 4.9-5l-.1-1c.2-.8.3-1.7.3-2.6 1.2-.8 2-2 2.3-3.5.4-1.8 0-3.5-.4-4.9v-.2l1-3.3.6-2c.5-1.6 1.2-3.8 1-6a6.6 6.6 0 0 0 2.8-3.7 6 6 0 0 0-.4-4.6c.7-1.3.9-2.7.7-4.2a5.7 5.7 0 0 0 5.2-6c.2 0 .4-.3.6-.5.9-.8 1.4-2 1.3-3.2 0-1.6-1-3-2.4-3.8 0-1.4-.6-2.8-1.7-3.7-.8-.7-1.8-1-2.9-1h-.4c0-.3-.3-.6-.4-.8-.9-1-2.3-1.7-4.1-1.8a16 16 0 0 0-1.7-1.9 5.2 5.2 0 0 0-9.5-7.3 5 5 0 0 0-2.7.8c-1-1-2.3-1.5-3.7-1.5H77c-1.2 0-2.3.5-3.2 1.2a101 101 0 0 0-8.5-.4H65l-5.1.3v-.1a4.2 4.2 0 0 0-1.3-3.8c.4-1 .5-2 .3-3.2-.1-1-.6-1.8-1.2-2.6.6-.8 1-1.9.9-3a4.8 4.8 0 0 0-1.9-3.5c.2-.5.2-1 .2-1.5a6 6 0 0 0-1.3-3.7v-.6c1-.5 1.6-1.3 2-2.2a4.3 4.3 0 0 0-1-4.3c.4-1 .5-2 .1-3s-1-1.8-2-2.3a4 4 0 0 0-.8-2.4 17 17 0 0 0 1-10.6c-.5-2.4-2.2-2.6-2.7-2.6z" fill="#A89B93"/><path d="M38 120.8h-1a3 3 0 0 1-3-3v-.1a3 3 0 0 1 3-3h1a3 3 0 0 1 3 3 3 3 0 0 1-3 3zm8.5 1.3h-1a3 3 0 0 1-3-3 3 3 0 0 1 3-3.1h1a3 3 0 0 1 3 3 3 3 0 0 1-3 3.1zm29.8-.7h-1a3 3 0 0 1-2.7-3.3 3 3 0 0 1 3.2-2.8h1a3 3 0 0 1 2.8 3.3 3 3 0 0 1-3.3 2.8zm10.4.7h-.9a3 3 0 0 1-3-3 3 3 0 0 1 3-3.1h1a3 3 0 0 1 3 3 3 3 0 0 1-3 3.1z" fill="#33423F"/><linearGradient id="a" x1="32.4" x2="26.9" y1="17" y2="6.6" gradientUnits="userSpaceOnUse"><stop stop-color="#AA9D94" offset="0"/><stop stop-color="#AEA197" offset=".4"/><stop stop-color="#BAABA0" offset=".9"/><stop stop-color="#BFB0A4" offset="1"/></linearGradient><path d="M35.1 13.8c3.1 2.1-5.2 6-7.5 2.8-1.2-1.9-1.6-6.1-.9-9.6.2-1.1.8-1.5 1.8-.5 1.4 1.4 3.7 5.3 6.6 7.3z" fill="url(#a)"/><linearGradient id="b" x1="47.8" x2="52.7" y1="15.9" y2="6.6" gradientUnits="userSpaceOnUse"><stop stop-color="#AA9D94" offset="0"/><stop stop-color="#AEA197" offset=".4"/><stop stop-color="#BAABA0" offset=".9"/><stop stop-color="#BFB0A4" offset="1"/></linearGradient><path d="M44.6 13.8c-3.2 2.1 5.2 6 7.4 2.8 1.3-1.9 1.6-6.1 1-9.6-.3-1.1-.8-1.5-1.8-.5-1.4 1.4-3.8 5.3-6.6 7.3z" fill="url(#b)"/><path d="M33 13.3c2 1.4-3.3 3.8-4.7 1.7-.8-1.1-1-3.8-.6-6 .1-.7.5-1 1.1-.3.9.9 2.4 3.3 4.2 4.6zm14 0c-2 1.4 3.2 3.8 4.7 1.7.8-1.1 1-3.8.5-6-.1-.7-.5-1-1-.3-1 .9-2.4 3.3-4.2 4.6z" fill="#736357"/><path d="M76.6 117h-4.3s-18.1-50.4 6.5-50.4c13.6 0-2.2 50.3-2.2 50.3z" fill="#AA9D94"/><linearGradient id="c" x1="74.3" x2="77" y1="96" y2="117.1" gradientUnits="userSpaceOnUse"><stop stop-color="#8F847D" offset="0"/><stop stop-color="#938880" offset=".4"/><stop stop-color="#9F9289" offset=".8"/><stop stop-color="#A6998F" offset="1"/></linearGradient><path d="M66.5 100.5c0 1.6 1 3.2 2.4 3.8-.7.6-1.1 1.7-1 2.7s.8 2 1.7 2.3c-.7.7-1 1.9-.8 2.9s1.1 1.8 2.1 2c-.7.3-1.1 1.4-.7 2.2s1.4 1.1 2 .7c.6.7 1.5 1 2.3.8s1.5-1 1.6-1.9c.3 1 1.3 1.5 2.2 1.3S80 116 80 115c.4.4 1.1.2 1.5-.3.3-.4.5-1 .5-1.6.4-2.3.2-4.7-.6-6.9 1.7-1.5 2.4-4.1 1.9-6.4s-2.4-4.1-4.6-4.6c-.5-1.8-2-3.1-3.7-3.3s-3.5.8-4.3 2.4c-1.5-1-2.5.5-2.7 1.8-.3 1.5-1.4 2.7-1.4 4.3z" fill="url(#c)"/><linearGradient id="d" x1="36.2" x2="36.2" y1="90.8" y2="115.5" gradientUnits="userSpaceOnUse"><stop stop-color="#8F847D" offset="0"/><stop stop-color="#938880" offset=".4"/><stop stop-color="#9F9289" offset=".8"/><stop stop-color="#A6998F" offset="1"/></linearGradient><path d="M44 98.6l-.5-3.2c-.1-1-.3-2-.7-2.9 1.6-12.7 2-24.2-4.8-24.2-6.6 0-8 8.4-7.6 18.2l-.9.5a4 4 0 0 0-1.4 3.3c0 .3 1 3.1 1.4 2.8a3.6 3.6 0 0 0 1 6 2.6 2.6 0 1 0 .4 4.8c-1 .5-.9 2-.3 2.8s1.6 1.5 2 2.5c.2.8 0 1.6.1 2.4 0 .7.6 1.6 1.3 1.6a2 2 0 0 0-.8 2.4 2 2 0 0 0 2.1 1.3l2-.4c.3.6.8 1 1.7.7 1.5-.3 2.6-2.4 2-4a3.8 3.8 0 0 0 2.4-2.7 4 4 0 0 0-1-3.5c1.2-1.4 1.8-3 2-4.8 0-1.2-.2-2.4-.4-3.6z" fill="url(#d)"/><linearGradient id="e" x1="64" x2="64" y1="8.2" y2="119.3" gradientUnits="userSpaceOnUse"><stop stop-color="#E3D3C8" offset="0"/><stop stop-color="#DCCCC2" offset=".3"/><stop stop-color="#C8B9B0" offset=".6"/><stop stop-color="#AD9F97" offset="1"/></linearGradient><path d="M104.7 73.4c0-1.4-1.5-2.7-3-2.5.8-1 .6-2.8-.4-3.6-1-.9-2.8-.7-3.7.3.6-2.8-1.6-3.6-4-3.4-.6-1.1-1.5-2.1-2.6-3 .2-1 .1-1.8-.3-2.5-.8-1.4-3-1.7-4-.5 0-1.5-1.2-2.9-2.6-3.2-1.3-.2-2.7.4-3.4 1.6l-.4-.1c-.5-1.3-2-2.3-3.4-2.2-1 0-1.9.5-2.5 1.3a96.4 96.4 0 0 0-16 0c-.7 0-1.5-.2-2-.7.8-.3 1.4-1 1.6-1.9.2-1.4-1.3-3-2.6-2.5a3.7 3.7 0 0 0 1.6-3.8 3.7 3.7 0 0 0-2.9-2.9c1.4-.1 2.6-1.5 2.5-3s-1.3-2.6-2.8-2.6c2-1.6 1.1-4.4-.1-5.4V30c.8-.1 1.7-.7 2-1.5.5-1.4-.6-3-2.1-3.1 1-.5 1.7-1.8 1.3-3a2.4 2.4 0 0 0-2.2-1.4l-.2-.6c.3-.7.3-1.5-.2-2.1-.1-.3-.3-.4-.5-.6a16 16 0 0 0-.5-1.3l.2-.4c.3-1-.4-2.2-1.4-2.3 0-1.2-1.5-2.5-2.7-2.2l-1.8-1-.5-.7c-.8-.7-2-.8-2.7 0h-.1c-.2-.8-.9-1.3-1.6-1.5-.8-.1-1.6.1-2.1.7a3.5 3.5 0 0 0-4.3-.3c-1.3 1-1.6 2-1.4 2.7h-.2c-.9-.3-2 .3-2 1.2-1.8-1.7-4 2.6-2.5 4.5l-.2.5c-.8-.2-2 1-2.3 1.5-.6 1-.4 2.4.5 3.3-1 .3-1.8 1.3-1.8 2.4 0 1 .5 2 1.4 2.6-.5.3-1 1-1.1 1.6a2 2 0 0 0 .6 1.9c.3.3.8.4 1.2.3l.2 2.7a5 5 0 0 0-.7.3 4.3 4.3 0 0 0-1.8 3.5c0 .4 1 4 1.5 3.5-1 .8-1.4 2-1.2 3.3s1.2 2.2 2.4 2.6c-.7 1-1.2 2.4-1 3.7.2.7.7 1.4 1.3 1.8l-.2 1a5 5 0 0 0-2.3 3c-.3 1.6 0 3.3 1 4.5v.3c-2 1.6-2.4 5-.8 7l-.1.9c-1 1.4-1.6 3-1.5 4.6.1 1.2.8 2.5 1.9 3.2l.2 1c-.5.8-.8 1.5-1 2.1a4.3 4.3 0 0 0 0 3.7c.5 1 2 1.8 3.2 1.3 0 1.5.7 3 2 3.8.6.6 1.5.8 2.4.9a23.1 23.1 0 0 0 5.6 3.6c.3 0 .6.3.8.5-.5.8-.7 1.9-.7 2.6a5 5 0 0 0 1.7 3.7 3.4 3.4 0 0 0-1.7 3.1 3.2 3.2 0 0 0 2.4 2.7c-.8.5-1.2 1.5-1 2.5s1 1.7 1.9 1.9c-1.4.8-1.6 3-.4 4l1.2.6.5 2c1 2 3.4 1.7 4.5.3h.4c2-.3 2.7-3.6 2-5.2 1.4.3 2.5-1.2 2.6-2.5s-.2-2.7 0-4c.2-1.2.9-2.3 1-3.5a36 36 0 0 0-.4-5.1h1.2c2 1.5 4.6 2.2 6.4 1.5 1 1 2.5 1.2 3.7.6.9-.3 1.5-1 1.9-1.9h.7a4 4 0 0 0 3.2 2 4 4 0 0 0 3.8-2.2h.5c1 1 3 1.2 4.4.5l.5.4a3 3 0 0 0-.1 2.3c.2.8.9 1.6 1 2.5.3 1.3-.6 2.6-.8 4a4 4 0 0 0 2.6 4.2 5 5 0 0 0 0 5.2c.5.6 1.1 1.2 1.8 1.2a2.9 2.9 0 0 0 3.4 1.5l.2.1c2.9 1 3.6-3 2.8-4.8a3.4 3.4 0 0 0 2.7-2.7c.2-1.4-.1-2.8-.5-4.1 0-.3 0-.5-.2-.8l1.9-5.8c.7-2 1.3-4.4.6-6.5 3.1-.8 4.5-4.9 2.4-7.1a5.5 5.5 0 0 0 .2-6.3c0-.1 4.7 1.3 5.9-2.6.3-.9.3-2.1-.7-2.4 1.5.1 2.8-1.2 2.8-2.6z" fill="url(#e)"/><path d="M50 26c0-4.4-6.3-2.8-10.2-2.8S29.7 21.6 29.7 26c0 2.6 1.7 13.6 10.1 13.6S50 28.6 50 26z" fill="#F6ECE3"/><path d="M41 37.5h-2.4c-2.4 0-4.4-2-4.4-4.4s2-4.4 4.4-4.4H41c2.5 0 4.5 2 4.5 4.4s-2 4.4-4.5 4.4z" fill="#fff"/><g fill="#1E0E00"><circle cx="34" cy="27.3" r="2"/><circle cx="45.6" cy="27.3" r="2"/></g><path d="M36.9 30.4s3 3.9 6 0" fill="none" stroke="#595959" stroke-linecap="round" stroke-linejoin="round" stroke-miterlimit="10"/><path d="M39.9 33.8a2 2 0 0 1-3.4 1.6m3.4-2.9c0 2.7 1 3.4 2.1 3.3.5 0 1-.2 1.4-.5" fill="none" stroke="#404040" stroke-linecap="round" stroke-linejoin="round" stroke-miterlimit="10" stroke-width=".7"/><path d="M39.4 70.3c-.6 1-.4 2.3.5 3 .9.6 2.2.5 3-.3 0 .8.9 1.5 1.7 1.4.8 0 1.5-1 1.4-1.8" fill="none" stroke="#A89E94" stroke-linecap="round" stroke-linejoin="round" stroke-miterlimit="10"/><path d="M77 72.4c.2 1 1.4 1.9 2.4 1.6s1.7-1.5 1.3-2.5c1 1 3 .7 3.6-.6 1 .1 2-1 2-2-.2-1-1.4-1.8-2.4-1.4" fill="none" stroke="#A89E94" stroke-linecap="round" stroke-linejoin="round" stroke-miterlimit="10" stroke-width=".8"/><path d="M32 52.2c-.3.8.3 1.9 1.1 2s1.9-.6 1.8-1.5c.1.7 1 1.2 1.7.9s.9-1.4.4-2m5.8 51.8c-.6 1 1 2.3 1.9 1.6-.2 1 1.4 1.5 2 .7" fill="none" stroke="#A89E94" stroke-linecap="round" stroke-linejoin="round" stroke-miterlimit="10"/><path d="M79.7 90c1 1.2 3.3.5 3.6-1 .2 1 1.5 1.8 2.5 1.4s1.6-1.8 1-2.8" fill="none" stroke="#A89E94" stroke-linecap="round" stroke-linejoin="round" stroke-miterlimit="10" stroke-width="1.3"/><path d="M49.3 85.2c0 .8.6 1.5 1.4 1.5s1.4-.6 1.4-1.4c.6.7 1.6 1 2.4.6s1.3-1.4 1-2.3" fill="none" stroke="#A89E94" stroke-linecap="round" stroke-linejoin="round" stroke-miterlimit="10"/></svg>