<svg viewBox="0 0 128 128" xmlns="http://www.w3.org/2000/svg"><path d="M-107 91.8c-.9-1.7-2.2-2.8-3.1-2.4a76.8 76.8 0 0 1-17 4.3c-.3-1.9-.8-4-1.4-6.2.1-1.3-.1-3.2-.7-5.6.7-1.3.3-4.6-1-9.2a2.2 2.2 0 0 0 .4-1.8l-.8-3.1-.1-.5-.8-3.1-.1-.4c-3-11.5-6.8-23-13.5-28.8-1.3-4.9-6.8-22.7-15.6-28-6-3.5-14.4-3.1-20.3-2.1a6.4 6.4 0 0 0-5.4 6v.1l-1 .7-.2.2-.6.5-.3.3-.5.5-.3.3-.4.4-.3.4-.3.4-.3.4-.3.4-.2.4-.3.5-.2.3-.3.5-.1.4-.3.5-.1.4-.2.5-.1.3-.2.6v.3l-.2.6v.3l-.2.6v.3l-.1.6v1.1l-.1.7v.2c0 4.2 1.8 8.1 4 10.2-.8-3.3-.8-6.4 1-9 2.1 3.4 6 2.4 8 2.3v13.8h.3c-4 9.2.7 27.4 12.4 37.2l3 3.2c.7 3 1.7 6 2.7 8.3a14 14 0 0 0-3 1.5c-5.1-.6-11.2-1.3-18.3-2.3l-1 6.9 15 2v.7c0 .4.2.7.3 1l.4.4c.1 0 .2.2.3.1s0-.2-.1-.4l-.1-.6c.3 0 .7-.1.8-.5l.1-.5 2.9.3.2.6c0 .7.4 1.3.7 1.7.4.4.7.5.8.4l-.5-1c.3-.1.5-.3.5-.7v-.7l1.9.2v.8c0 .3 0 .6.2.8l.4.5.2.1v-.4l-.1-.8c.3.1.7 0 .8-.5v-.3l3 .3.3.8v.5l.5.8c.3.4.7.5.7.5l-.1-.4-.3-.6c.3 0 .6-.3.6-.7v-.8c4.2.5 7.3.7 9.6.9 3.2 8 5.8 14.6 6.9 17 .2.7.9 1 1.4.7l1-.4.3.6.3.6.3.4.3.6.3.4.3.4.2.4.3.3.2.3.2.3.2.2.2.2.2.1.2.2h.4l.1-.1v-.9l-.1-.6v-.1l-.2-.7-.1-.2-.3-.9-.3-1-.1-.2-.4-1.2v-.1l-.4-1.1-.1-.3-.6-1.4v-.1a57.4 57.4 0 0 0-1.3-3.2v-.2l-.6-1.4-.1-.3-.7-1.7-.1-.2-.7-1.6.3.6 1.7 3.3.7 1.4.2.3 1 2.1.1.1 1 1.8.1.4 1 1.7v.4l.8 1.3.1.3.8 1.4.1.4.7 1.3c1 2 3.5.7 2.2-1.8l-.8-1.5-.8-1.6v-.1l-1-1.9-.9-1.7v-.2l-1-1.8v-.3l-1-1.9-.1-.2-1-2v-.2l-.1-.2 2.3 4.4c.2.3.7.4 1 .2l1.3-.7.3-.3.4.7.6.8.4.6.6.7.3.6.5.6.4.5.5.6.3.4.4.5.3.4.4.4a8.2 8.2 0 0 0 .6.6l.2.3.3.2a20 20 0 0 0 .5.3l.1.1.3.1h.3l.1-.2v-.4a6 6 0 0 0-.2-.6l-.2-.6v-.2l-.3-.6-.1-.2-.4-.9-.1-.2-.5-.9v-.1l-.6-1.1-.2-.3-1.4-2.5-.1-.3-.8-1.4v-.2l-.9-1.3-.1-.3-1-1.6v-.2l-1-1.5v-.1c.2-.4.2-1.3 0-2.6l1.5-.2c.6.9 1.1 1.3 1.4 1.2.3-.1.5-.6.5-1.4 6.4-.9 12.5-2.4 19-5 .9-.3 1-2 .1-3.9zm-50.4 1.2l-.2-.7.2-.2.7-1 .6 1.3-1 .7h-.3zm5.9.6l2 .2-2-.2zm-6.2-.6l-2-.2 2 .2zm8.3.8c-.1-.6 0-1.2-1-2l.7-1.5 1.4 3.6h-1z" fill="none" stroke="#BA0505" stroke-linecap="round" stroke-linejoin="round" stroke-miterlimit="10" stroke-width="2.9"/><path d="M-158.4 65.4l3.5-2.2s35.4 54.7 33.1 56.2c-2.2 1.4-17.4-23.6-36.6-54z" fill="red"/><path d="M-132 99.9c-.1.4-.4 1-.8 1.3-.7.7-1.6 1-2.4.8 7.3 11.3 12.2 18.2 13.4 17.4.9-.6-4-9.2-10.1-19.5z" fill="#05B3DB"/><path d="M-135.3 118.1l-1.8.8c-.5.2-1.2 0-1.4-.6-3.3-8-24-59.5-23-59.9 1-.4 13 25.6 26.8 58.3a1 1 0 0 1-.7 1.4z" fill="#022C69"/><path d="M-160.8 64.9l3.7-1.7s27.4 59.5 24.9 60.3c-2.6.8-13.9-25.8-28.6-58.6z" fill="#B70904"/><path d="M-139 103.8c-.4.6-.8 1-1.5 1.3-.7.2-1.5.2-2.3 0 5.5 11.6 9.2 18.8 10.6 18.4 1-.3-2.4-9-6.9-19.7z" fill="#047BA0"/><path d="M-129.5 111.3l-1.3.7c-.3.2-.8 0-1-.3-2.8-5.2-22-40.2-21.3-40.6.7-.4 11.4 17.1 23.9 39.2.2.3 0 .8-.3 1z" fill="#0433B7"/><path d="M-158 66.5l3.6-1.8s19.3 41.4 27 56.3c1.3 2.5-1.2 3.9-2.2 1.8-4.7-9.5-15.7-30.5-28.5-56.3z" fill="red"/><path d="M-127.4 121c-2-3.8-4.7-9.4-7.7-15.6-.3.5-.7.9-1.3 1.1a2 2 0 0 1-1.5 0l8.3 16.3c1 2 3.5.7 2.2-1.8z" fill="#0392C0"/><path d="M-130.9 117.1h-.1l-20.3-40.9v-.1h.2l20.3 40.9v.1h-.1z" fill="#B70904"/><path d="M-136.7 114.5l-.1-.1-19.4-42.3v-.2h.2l19.4 42.4v.1h-.1z" fill="#930303"/><path d="M-128.5 109h-.1l-21.6-35.5v-.1c0-.1.1 0 .1 0l21.7 35.5v.1z" fill="#B70904"/><path d="M-158.7 58l4.5-2.6s17 31.9 15.8 32.6c-1.2.7-10.3-12.7-20.3-30z" fill="#022A5B"/><path d="M-169.4 56.8l4-3.3S-138.7 88-140 88.9c-1 1-14.3-13.5-29.4-32.1z" fill="#0433B7"/><path d="M-162.6 53.3l4.5-2.7s17 31.8 15.8 32.6c-1.3.7-10.4-12.7-20.3-30z" fill="#0433B7"/><path d="M-169.3 51.5l4.3-3.1s19.5 29 18.3 30-11.3-11.3-22.6-27z" fill="#1858E8"/><path d="M-110.1 89.4c-11 4-21 5.5-33.5 4.8a535 535 0 0 1-39.8-4.4l-1 6.9c23 3.2 34.7 4.2 40.4 4.5 13.8.8 24.6-.8 36.8-5.4-.9-2.1-1.6-4.5-3-6.4z" fill="#755425"/><path d="M-107 91.8c.8 1.8.7 3.6-.2 4-1 .4-2.3-.7-3-2.5s-.8-3.5 0-4c1-.3 2.4.8 3.2 2.5z" fill="#A37B4B"/><path d="M-107.3 92c.7 1.5.6 3-.2 3.3-.7.3-1.8-.6-2.5-2.1s-.6-3 .1-3.3 2 .6 2.6 2z" fill="#8C6133"/><path d="M-107.4 92c.6 1.4.5 2.7-.1 3-.7.4-1.8-.5-2.4-1.8s-.6-2.8.1-3 1.8.4 2.4 1.8z" fill="#A37B4B"/><path d="M-107.7 92.1c.5 1.1.4 2.2-.1 2.4s-1.4-.4-1.9-1.5c-.4-1-.4-2.1.2-2.3.5-.3 1.3.4 1.8 1.4z" fill="#8C6133"/><path d="M-107.8 92.2c.4 1 .4 2 0 2.1s-1.3-.3-1.8-1.3-.4-2 .1-2.2c.5-.2 1.3.4 1.7 1.4z" fill="#A37B4B"/><path d="M-151 86.2l-.1 5c1.7 1.2 1.6 1.8 1.7 2.6l-2.5-.2c-2.2 1.6-3 4.2-3 7.5 0 .7-1.1 1-1.4.2a6.6 6.6 0 0 1 1-6.8c-2.7 1.3-3.6 2.5-4.4 5.7-.2.7-1.3.7-1.4 0-.4-3.3 2-7 7.7-9l-.3-5c0-1 2.7-1 2.7 0z" fill="#D09183"/><path d="M-159 85.4l-.2 4.9c1.7 1.3 1.6 2 1.8 2.7l-2.6-.3c-2.2 1.7-3 4.2-3 7.5 0 .8-1 1-1.4.3a6.6 6.6 0 0 1 1-6.8c-2.7 1.2-3.6 2.4-4.4 5.6-.2.8-1.3.7-1.4 0-.4-3.3 2-7 7.7-9l-.2-5c0-1 2.6-1 2.6 0z" fill="#B56052"/><path d="M-160.4 99.9v-.4h-.8v1l.2.8.4.5c.2 0 .2.1.2 0v-.3l-.1-.8v-.8zm5.1 2.4l-.3-.7c-.1-.3-.1-.6 0-.8v-.3l-.8-.2v1.1c.1.4.3.7.5.9.3.4.7.5.7.4l-.1-.4zm-8.5-2.4v-.4h-.9c.1.9.5 1.6.8 2 .4.3.7.5.8.4s-.4-.6-.6-1.2a4 4 0 0 1-.1-.8zm-4.9-.2l.1-1v-.3h-.7v1c0 .4 0 .7.2 1l.4.4.3.1-.1-.4a3 3 0 0 1-.2-.8z" fill="#3D3D3D"/><path d="M-166.4 73.9s2 13.8 5.2 18.2c.6.8 3.2.8 3.8 0a66.3 66.3 0 0 0 6.3-18.6l-15.3.4z" fill="#8A0703"/><path d="M-170.8 36.3c18.3 1.7 13.6 27.2 10.7 47.4-23-9.4-29-49.2-10.7-47.5z" fill="#920904"/><linearGradient id="a" x1="-164.5" x2="-151.2" y1="35.9" y2="86" gradientUnits="userSpaceOnUse"><stop stop-color="red" offset="0"/><stop stop-color="#B70904" offset="1"/></linearGradient><path d="M-141.1 55.8c1.2 17.7-1.1 32.4-6.5 33.3-9.9 1.6-23-8.3-28.4-25.2-3.8-12.1-4-24.4-1.3-29.3 1.8-3.1 18.7-7.2 21.4-6 8.3 3.4 13.8 14 14.8 27.2z" fill="url(#a)"/><path d="M-180.4 41.9V28l-5.6-14.8a6.4 6.4 0 0 1 5-8.3c6-1 14.3-1.4 20.3 2.2 10.3 6.1 16 29.1 16 29.1l-35.7 5.7z" fill="red"/><path d="M-166.2 15.4c.6 5-3.7 9.5-9.5 10.1s-8.6-2.5-9.2-7.5c-.5-5-.8-9.7 7.3-10.6 5.8-.6 11 3 11.4 8z" fill="#fff"/><path d="M-160.6 75.4s2 13.9 5.3 18.2c.6.9 3.1.9 3.7 0a66.3 66.3 0 0 0 6.4-18.5l-15.4.3z" fill="#C00704"/><g fill="#023784"><path d="M-154.9 56.6c7.6 16.8 12.4 31.1 10.7 32s-9.3-12.4-16.9-29.2c-2.1-4.8 4-7.6 6.2-2.8z"/><path d="M-147.4 64.3c7.6 16.9 12.4 31.2 10.7 32S-146 84-153.8 67c-2-4.7 4.1-7.5 6.3-2.8z"/><path d="M-138 71.2c6.2 17.4 9.9 32 8 32.7s-8.2-13-14.5-30.4c-1.7-4.9 4.7-7.2 6.4-2.3z"/><path d="M-133.8 69.1c5.7 17.6 8.9 32.4 7.1 33s-7.8-13.3-13.5-30.9c-1.6-5 4.8-7 6.4-2z"/></g><g fill="#0392C0"><path d="M-154.2 49.6c7.3 16.8 11.2 31.4 8.7 32.5-2.5 1.2-10.4-11.5-17.7-28.3-2-4.7 7-9 9-4.2z"/><path d="M-155.2 47c3 8.2 7 15.2 9.3 20.5 2.3 5.3 2.8 9 0 10-2.6 1-7.8-1.5-12-6.8a38 38 0 0 1-7.7-22.3c0-2.4 2.4-3.5 4.8-3.9 2.4-.3 4.7.2 5.6 2.4z"/><path d="M-146.7 53.9c7.3 16.8 11.2 31.4 8.7 32.5-2.5 1.2-10.4-11.5-17.7-28.3-2-4.7 7-9 9-4.2z"/><path d="M-141.5 55c7.2 16.9 11.1 31.5 8.6 32.6-2.5 1.2-10.4-11.5-17.6-28.3-2-4.8 7-9 9-4.3z"/><path d="M-137.9 56.7c7.3 16.9 11.2 31.5 8.7 32.6-2.5 1.2-10.4-11.5-17.7-28.3-2-4.8 7-9 9-4.3z"/></g><g fill="#60BF00"><path d="M-155.6 42.4c7.6 16.9 11.7 31.5 9.1 32.7s-10.8-11.6-18.4-28.5c-2.1-4.7 7.2-9 9.3-4.2z"/><path d="M-156.7 39.8c3 8.3 7.3 15.3 9.7 20.6 2.4 5.3 3 9 .1 10-2.7 1-8.1-1.5-12.5-6.9a37.6 37.6 0 0 1-8-22.2c0-2.5 2.5-3.6 4.9-4 2.4-.2 4.8.2 5.8 2.5z"/><path d="M-147.8 46.8c7.6 16.8 11.6 31.5 9 32.6S-149.4 67.8-157 51c-2.2-4.8 7.1-9 9.3-4.2z"/><path d="M-142.5 48c7.6 16.8 11.7 31.4 9.1 32.6s-10.8-11.6-18.4-28.4c-2.1-4.8 7.2-9 9.3-4.2z"/><path d="M-138.7 49.7c7.6 16.8 11.7 31.5 9 32.6S-140.3 70.7-148 54c-2.2-4.8 7.1-9 9.3-4.2z"/></g><linearGradient id="b" x1="-162.2" x2="-136.6" y1="34.4" y2="67.8" gradientUnits="userSpaceOnUse"><stop stop-color="#FF2B2B" offset="0"/><stop stop-color="#B70904" offset="1"/></linearGradient><path d="M-160.7 31.8c19.8-5.4 25.8 18.8 30.9 39.2.4 1.4-.8 2.8-2.3 2.7-27.6-2.3-48.5-36.4-28.6-41.9z" fill="url(#b)"/><path d="M-129.8 71a465 465 0 0 0-1.8-7.2c.4 3.9 0 6.8-2.4 6.8-8.3 0-15.5-2.7-21.3-6.7 6.4 5.2 14.4 9 23.2 9.8 1.5.1 2.6-1.3 2.3-2.8z" fill="#fc0"/><g fill="#EF0000"><path d="M-178.8 19.8l-2.5-2.4c-1.3-1.2-2.5-2.4-3.8-3.4v.3l3.6 3.2 2.6 2.5a12 12 0 0 1 3.4 5.5h.3a13 13 0 0 0-3.6-5.7zm4-1.7L-177 17c-1.7-1.2-3-2.6-4.3-4-.8-1-1.6-2-2.6-2.8l-.1.2c1 .8 1.8 1.8 2.6 2.7 1.3 1.4 2.6 3 4.3 4l2.2 1.2c2 1.1 4.6 2.5 5.8 4.3l.2-.2a16.3 16.3 0 0 0-6-4.3zm-1.8.5a36 36 0 0 1-4-3.9 39.3 39.3 0 0 0-3.8-3.6l-.1.2a39 39 0 0 1 3.7 3.6c1.3 1.3 2.6 2.7 4 3.8 2.3 1.7 4 3.5 4.7 5.9l.2-.1c-.7-2.5-2.4-4.2-4.7-6zm-8.3-.9v.3c3.4 2 5.9 4.3 7.7 7.6h.2a20.1 20.1 0 0 0-7.9-8z"/><path d="M-184.5 20v.2c2.6 1.3 4.6 3 6 5.4h.4a14.3 14.3 0 0 0-6.4-5.7zm6.9-.7a39 39 0 0 1-7-7.6l-.1.3a39 39 0 0 0 7 7.4 10 10 0 0 1 3.6 5.9l.3-.1c-.6-2.3-1.5-4-3.8-6z"/></g><path d="M-188.5 25.8c2.1 3.4 6 2.3 8 2.2.7-1 1.6-5.7 0-9-3.5.8-6.8 2-8 6.8z"/><path d="M-186.4 11c-10 7-7.8 19.4-3 23.8-1-3.3-.8-6.4 1-9 6-.5 3.6-4.9 8-6.7 0 0-1.9-8.4-6-8.1z" fill="#212121"/><path d="M-190.8 23.6c1.2-1.3 1-3.2 2.5-4.5l2.3-1.3a7 7 0 0 0 2.4-2.3 5 5 0 0 0 .6-2.5c-.9-1.2-2-2.1-3.4-2a15.7 15.7 0 0 0-7.1 13.5c1 .3 1.9.1 2.8-.9z" fill="#F4CCAE"/><circle cx="-175.8" cy="12" r="5.5" fill="#E6E6E6"/><circle cx="-175.8" cy="12" r="2.8"/><path d="M-51.4-29.9c-.8-1.8-2.2-2.9-3.1-2.5a76.8 76.8 0 0 1-17 4.3c-.3-1.8-.8-3.9-1.4-6.2.1-1.3-.1-3.2-.6-5.6.6-1.2.2-4.5-1-9.2a2.2 2.2 0 0 0 .3-1.7L-75-54v-.4c-.4-1-.6-2.1-.9-3.2v-.3c-3.1-11.6-6.9-23-13.6-28.9-1.3-4.8-6.7-22.6-15.6-27.9-6-3.6-14.3-3.2-20.3-2.2a6.4 6.4 0 0 0-5.3 6.1l-1 .7-.3.3-.5.4-.4.3-.4.5-.3.3-.5.5-.2.3-.4.5-.3.3c0 .2-.2.3-.3.5l-.2.3-.3.5-.2.4-.3.5-.1.3-.3.5-.1.4-.2.5-.1.4-.2.5v.4l-.2.5v.3l-.2.6v.3l-.1.6v2c0 4.3 1.7 8.2 4 10.2-1-3.3-.8-6.4 1-9 2 3.5 6 2.4 8 2.3v13.8h.2c-4 9.2.7 27.4 12.4 37.2l3 3.2c.8 3 1.7 6.1 2.7 8.3-1.1.5-2.2 1-3 1.6l-18.3-2.4-1 7 15 2v.7l.3.9.4.5h.3l-.1-.4-.1-.6c.3 0 .7 0 .8-.5l.1-.5 3 .4v.5c.2.8.5 1.4.8 1.7.4.4.7.5.8.4l-.5-1c.3 0 .5-.3.5-.6v-.8l2 .2-.1.8.2.9c.1.3.3.4.4.5h.2v-.4l-.1-.7c.3 0 .7-.1.8-.5v-.4l3 .3c0 .3.2.6.3.8v.5l.5.9c.3.4.7.5.7.4l-.1-.4-.3-.6c.3 0 .6-.3.6-.7v-.7l9.6.8L-83-3.5c.2.6.9.9 1.4.6l1-.3c0 .2.2.3.3.5l.3.6.3.5.3.5.3.4c0 .2.2.3.3.5l.2.3c0 .2.2.3.3.4l.2.3.2.3.2.2.2.2.2.1.2.1h.5V.8l-.1-.7-.2-.8-.1-.2-.3-.8v-.1l-.3-1V-3l-.5-1.1v-.2l-.4-1.1-.1-.3L-79-7l-.1-.2a57.4 57.4 0 0 0-1.2-3.1l-.1-.2-.6-1.5-.1-.3-.7-1.7-.1-.2-.7-1.6.3.6v.1c.7 1.1 1.2 2.2 1.7 3.2l.7 1.4.2.4 1.1 2v.2l1 1.8c0 .1 0 .2.2.3l.8 1.8.2.3.7 1.4.2.3.7 1.4.1.3.7 1.3c1 2.1 3.5.8 2.2-1.7l-.8-1.5-.8-1.7-1-2-.9-1.7v-.2l-1-1.8v-.3l-1-1.8-.1-.3-1-2v-.2l-.1-.1 2.3 4.3c.2.4.7.5 1 .3l1.3-.7.3-.3.4.6.6.9.4.5.6.8c0 .2.2.3.3.5l.5.7.4.4.5.6c0 .2.2.3.3.4l.4.5.3.4.4.4a8.2 8.2 0 0 0 .6.7l.2.2.3.2a20 20 0 0 0 .5.4h.1l.3.2h.3l.1-.3V-3a6 6 0 0 0-.2-.7l-.2-.6v-.1l-.3-.7-.1-.1-.4-.9-.1-.2-.5-1-.6-1.2-.2-.2c-.4-.8-.8-1.7-1.4-2.6l-.1-.3-.8-1.4v-.1l-.9-1.4-.1-.3-1-1.5v-.3l-1-1.4v-.2c.2-.4.2-1.3 0-2.6l1.5-.1c.6.8 1.1 1.2 1.4 1.1.3 0 .5-.6.5-1.4 6.4-.8 12.5-2.4 19-4.9.9-.4 1-2.1.2-3.9zm-50.4 1.2l-.2-.8.2-.1.7-1 .6 1.3-1 .6h-.3zm5.9.6l2 .2-2-.2zm-6.2-.7l-2-.2 2 .2zm8.3.9c0-.7 0-1.2-1-2l.7-1.5 1.4 3.6-1-.1z" fill="none" stroke="#BA0505" stroke-linecap="round" stroke-linejoin="round" stroke-miterlimit="10" stroke-width="2.9"/><path d="M64-98.6l3.6-2.2s35.4 54.7 33.1 56.2c-2.2 1.4-17.4-23.6-36.6-54z" fill="red"/><path d="M90.6-64.1c-.2.4-.5 1-1 1.3-.6.7-1.5 1-2.3.8 7.3 11.3 12.2 18.2 13.4 17.4.9-.6-4-9.2-10.1-19.5z" fill="#05B3DB"/><path d="M87.2-45.9l-1.8.8c-.5.2-1.2 0-1.4-.6-3.3-8-24-59.5-23-59.9 1-.4 13 25.6 26.8 58.3.2.5 0 1.2-.6 1.4z" fill="#022C69"/><path d="M61.7-99.1l3.7-1.7s27.4 59.5 24.9 60.3c-2.6.8-13.9-25.8-28.6-58.6z" fill="#B70904"/><path d="M83.4-60.2c-.3.6-.7 1-1.4 1.3-.8.2-1.6.2-2.3 0 5.5 11.6 9.2 18.8 10.6 18.4 1-.3-2.4-9-6.9-19.7z" fill="#047BA0"/><path d="M93-52.7l-1.3.7c-.3.2-.8 0-1-.3-2.9-5.2-22-40.2-21.3-40.6.7-.4 11.4 17.1 23.9 39.2.2.3 0 .8-.3 1z" fill="#0433B7"/><path d="M64.4-97.5l3.7-1.8S87.4-58 95.1-43c1.3 2.5-1.2 3.9-2.2 1.8-4.7-9.5-15.7-30.5-28.5-56.3z" fill="red"/><path d="M95-43l-7.6-15.6c-.3.5-.7.9-1.3 1.1a2 2 0 0 1-1.5 0L93-41.1c1 2 3.5.7 2.2-1.8z" fill="#0392C0"/><path d="M91.6-46.9h-.1L71.2-87.8v-.1h.2L91.7-47v.1h-.1z" fill="#B70904"/><path d="M85.8-49.5l-.1-.1L66.3-92v-.2h.2l19.4 42.4v.1h-.1z" fill="#930303"/><path d="M94-55L72.3-90.5v-.1c0-.1.1 0 .1 0L94.2-55v.1z" fill="#B70904"/><path d="M63.8-106l4.5-2.6s17 31.9 15.8 32.6-10.3-12.7-20.3-30z" fill="#022A5B"/><path d="M53.1-107.2l4-3.3S83.8-76 82.6-75.1c-1 1-14.3-13.5-29.4-32.1z" fill="#0433B7"/><path d="M59.9-110.7l4.5-2.7s17 31.9 15.8 32.6c-1.3.7-10.4-12.7-20.3-30z" fill="#0433B7"/><path d="M53.2-112.5l4.3-3.1s19.5 29 18.3 30-11.3-11.3-22.6-27z" fill="#1858E8"/><path d="M112.4-74.6c-11 4-21 5.5-33.5 4.8a535 535 0 0 1-39.8-4.4l-1 6.9c23 3.2 34.7 4.2 40.4 4.5 13.8.8 24.6-.8 36.8-5.4-.9-2.1-1.6-4.5-3-6.4z" fill="#755425"/><path d="M115.5-72.2c.8 1.8.7 3.6-.2 4-1 .4-2.3-.7-3-2.5s-.8-3.5 0-4c1-.3 2.4.8 3.2 2.5z" fill="#A37B4B"/><path d="M115.2-72c.7 1.5.6 3-.2 3.3-.7.3-1.8-.6-2.5-2.1s-.6-3 .1-3.3 2 .6 2.6 2z" fill="#8C6133"/><path d="M115-72c.7 1.4.6 2.7 0 3-.7.4-1.8-.5-2.4-1.8s-.6-2.8.1-3 1.8.4 2.4 1.8z" fill="#A37B4B"/><path d="M114.8-71.9c.5 1.1.4 2.2-.1 2.4s-1.4-.4-1.9-1.5c-.4-1-.4-2.1.2-2.3.5-.3 1.3.4 1.8 1.4z" fill="#8C6133"/><path d="M114.7-71.8c.4 1 .4 2 0 2.1s-1.3-.3-1.8-1.3-.4-2 .1-2.2c.5-.2 1.3.4 1.7 1.4z" fill="#A37B4B"/><path d="M71.5-77.8l-.1 5C73-71.7 73-71 73-70.3l-2.5-.2c-2.2 1.6-3 4.2-3 7.5 0 .7-1.1 1-1.4.2a6.6 6.6 0 0 1 1-6.8c-2.7 1.3-3.6 2.5-4.4 5.7-.2.7-1.3.7-1.4 0-.4-3.3 2-7 7.7-9l-.2-5c0-1 2.7-1 2.7 0z" fill="#D09183"/><path d="M63.5-78.6l-.2 4.9c1.7 1.3 1.6 2 1.8 2.7l-2.6-.3c-2.2 1.7-3 4.2-3 7.5 0 .8-1 1-1.4.3a6.6 6.6 0 0 1 1-6.8c-2.7 1.2-3.6 2.5-4.4 5.7-.2.7-1.2.6-1.3-.1-.5-3.3 2-7 7.6-9l-.2-5c0-1 2.7-1 2.7 0z" fill="#B56052"/><path d="M62-64.1l.1-.4h-.8v1l.2.8.4.5s.2.1.2 0v-.3l-.1-.8v-.8zm5.2 2.4a1 1 0 0 1-.3-.7c-.1-.3-.1-.6 0-.8v-.3l-.8-.2v1.1c.1.4.3.7.5.9.3.4.7.5.7.4l-.1-.4zm-8.5-2.4v-.4h-.9c.1.9.5 1.6.8 2 .4.3.7.5.8.4s-.4-.6-.5-1.2a4 4 0 0 1-.2-.8zm-4.9-.2l.1-1v-.3h-.7v1c0 .4 0 .7.2 1l.4.4.3.1-.1-.4a3 3 0 0 1-.2-.8z" fill="#3D3D3D"/><path d="M56.1-90.1s2 13.8 5.2 18.2c.6.8 3.2.8 3.8 0a66.3 66.3 0 0 0 6.3-18.6l-15.3.4z" fill="#8A0703"/><path d="M-47.4-124.8C-29-123-33.7-97.5-36.5-77.3c-23-9.4-29-49.2-10.8-47.5z" fill="#920904"/><linearGradient id="c" x1="58" x2="71.3" y1="-128.1" y2="-78" gradientUnits="userSpaceOnUse"><stop stop-color="red" offset="0"/><stop stop-color="#B70904" offset="1"/></linearGradient><path d="M81.4-108.2c1.2 17.7-1.1 32.4-6.5 33.3-9.9 1.6-23-8.3-28.4-25.2-3.8-12.1-4-24.4-1.3-29.3 1.8-3.1 18.7-7.2 21.4-6 8.3 3.4 13.8 14 14.8 27.2z" fill="url(#c)"/><path d="M42-122.1V-136l-5.5-14.8a6.4 6.4 0 0 1 5-8.3c6-1 14.3-1.4 20.3 2.2 10.3 6.1 16 29.1 16 29.1L42-122z" fill="red"/><path d="M56.4-148.6c.5 5-3.8 9.5-9.6 10.1s-8.6-2.5-9.2-7.5c-.5-5-.8-9.7 7.3-10.6 5.8-.6 11 3 11.5 8z" fill="#fff"/><path d="M62-88.6s2 13.9 5.2 18.2c.6.9 3.1.9 3.7 0a66.3 66.3 0 0 0 6.4-18.5l-15.4.3z" fill="#C00704"/><g fill="#023784"><path d="M162.7-110.3c7.6 17 12.4 31.2 10.7 32s-9.3-12.3-16.9-29.2c-2.1-4.7 4.1-7.5 6.2-2.8z"/><path d="M170.2-102.5c7.6 16.9 12.4 31.2 10.7 32S171.6-83 164-99.8c-2.1-4.8 4-7.6 6.2-2.8z"/><path d="M179.6-95.6c6.2 17.4 9.9 32 8.1 32.7s-8.3-13-14.6-30.4c-1.7-4.9 4.7-7.2 6.5-2.3z"/><path d="M183.9-97.7c5.7 17.6 8.8 32.3 7 33s-7.8-13.3-13.5-31c-1.6-4.9 4.9-7 6.5-2z"/></g><g fill="#0392C0"><path d="M163.5-117.3c7.2 16.8 11.1 31.4 8.6 32.6-2.5 1.2-10.4-11.5-17.6-28.4-2-4.7 7-9 9-4.2z"/><path d="M162.4-119.9c3 8.3 7 15.2 9.3 20.6 2.3 5.3 2.8 9 0 10-2.6.9-7.8-1.5-12-6.9a38 38 0 0 1-7.7-22.2c0-2.5 2.4-3.6 4.8-4 2.4-.2 4.7.2 5.6 2.5z"/><path d="M171-113c7.2 16.9 11.1 31.5 8.6 32.6-2.5 1.2-10.4-11.5-17.7-28.3-2-4.8 7-9 9-4.3z"/><path d="M176-111.8c7.4 16.8 11.3 31.4 8.8 32.6-2.5 1.2-10.4-11.5-17.7-28.4-2-4.7 7-9 9-4.2z"/><path d="M179.8-110.1c7.2 16.8 11.1 31.4 8.6 32.6C186-76.3 178-89 170.7-106c-2-4.7 7-9 9-4.2z"/></g><g fill="#60BF00"><path d="M162-124.4c7.6 16.9 11.7 31.5 9.1 32.6s-10.8-11.5-18.4-28.4c-2-4.8 7.2-9 9.3-4.2z"/><path d="M161-127c3 8.2 7.2 15.2 9.6 20.6 2.5 5.3 3 9 .1 10-2.7 1-8-1.5-12.4-6.9a37.6 37.6 0 0 1-8.1-22.3c0-2.4 2.5-3.5 4.9-3.9 2.5-.2 4.9.2 5.8 2.5z"/><path d="M169.8-120c7.6 16.8 11.7 31.4 9 32.6S168.2-99 160.6-116c-2.2-4.7 7.1-9 9.3-4.2z"/><path d="M175.1-118.9c7.6 16.9 11.7 31.5 9.1 32.7s-10.8-11.6-18.4-28.5c-2.1-4.7 7.2-9 9.3-4.2z"/><path d="M178.9-117.2c7.6 17 11.7 31.5 9.1 32.7s-10.8-11.6-18.4-28.5c-2.1-4.7 7.2-8.9 9.3-4.2z"/></g><linearGradient id="d" x1="155.5" x2="181" y1="-132.4" y2="-99.1" gradientUnits="userSpaceOnUse"><stop stop-color="#FF2B2B" offset="0"/><stop stop-color="#B70904" offset="1"/></linearGradient><path d="M157-135c19.7-5.5 25.7 18.7 30.8 39.1.4 1.5-.8 2.9-2.3 2.8-27.6-2.3-48.5-36.4-28.5-42z" fill="url(#d)"/><path d="M187.8-95.9a465 465 0 0 0-1.8-7.1c.4 3.8 0 6.8-2.4 6.8-8.3 0-15.5-2.7-21.2-6.7 6.3 5.2 14.3 9 23 9.8 1.6 0 2.8-1.3 2.4-2.8z" fill="#fc0"/><g fill="#EF0000"><path d="M43.7-144.2l-2.5-2.4-3.8-3.5v.4l3.6 3.2 2.6 2.5c1.5 1.3 2.7 3.4 3.4 5.5h.3a13 13 0 0 0-3.6-5.7zm4-1.7l-2.2-1.1c-1.7-1.2-3-2.6-4.3-4-.8-1-1.6-2-2.6-2.8l-.1.2c1 .8 1.8 1.8 2.6 2.7 1.2 1.4 2.6 3 4.3 4l2.1 1.2c2.1 1.1 4.7 2.5 6 4.3l.1-.2a16.3 16.3 0 0 0-6-4.3zm-1.7.5a36 36 0 0 1-4.1-3.9 39.3 39.3 0 0 0-3.8-3.6l-.1.2a39 39 0 0 1 3.7 3.6c1.3 1.3 2.6 2.7 4 3.8 2.3 1.7 4 3.5 4.7 5.9l.2-.1c-.8-2.5-2.4-4.2-4.7-6zm-8.4-.9v.3c3.4 2 5.9 4.3 7.7 7.6h.2a20.1 20.1 0 0 0-7.9-8z"/><path d="M38-144v.2c2.6 1.3 4.6 3 6 5.4h.4a14.3 14.3 0 0 0-6.4-5.7zm7-.7c-2.8-2.4-5-4.5-7.1-7.6l-.1.3a39 39 0 0 0 7 7.4 10 10 0 0 1 3.6 5.8h.3c-.6-2.3-1.5-4-3.8-6z"/></g><path d="M34-138.2c2.1 3.4 6 2.3 8 2.2.7-1 1.6-5.7 0-9-3.5.8-6.9 2-8 6.8z"/><path d="M36.1-153c-10 7-7.8 19.4-3 23.8-1-3.4-.8-6.4 1-9 6-.5 3.6-4.9 8-6.7 0 0-1.9-8.4-6-8.1z" fill="#212121"/><path d="M31.8-140.3c1.1-1.4 1-3.3 2.4-4.5.7-.6 1.5-1 2.3-1.4a7 7 0 0 0 2.4-2.3 5 5 0 0 0 .6-2.5c-.9-1.2-2-2.1-3.4-2a15.7 15.7 0 0 0-7.1 13.5c1 .3 1.9.1 2.7-.8z" fill="#F4CCAE"/><circle cx="46.8" cy="-152" r="5.5" fill="#E6E6E6"/><path d="M40.8 16c3.2 0 6 1.2 7.1 2.4.5.4.9.8 1 1.3 1 2.8 3 2.8 3.2 2.8s0 .1 0 .2-.8 1-.7 4.6c0 1.8-.9 4-2.3 5.4a5.8 5.8 0 0 1-4.2 1.8c-1.4 0-3-.5-4.5-1.5h-.2v-.1l.1-.1c1-1.5 1.7-3.8 2.1-5.2-5 1-5.6 1.8-6 6.5-2.3-.5-6-5.3-5.3-10.3l.2-.8v-.2a6.5 6.5 0 0 1 .6-1.4l.4-.8.2-.3c0-.2.2-.3.3-.5a9.2 9.2 0 0 1 2-2 10 10 0 0 1 6-1.9m0-1a11 11 0 0 0-8.2 3.6l-.6.8-.4.4-.1.3-.5 1-.2.3-.2.5-.2.8v.1l-.1.1-.2.9c-.8 5.4 3.2 10.8 6.2 11.4h.2c.2 0 .4 0 .6-.2.2-.1.3-.4.4-.7.2-3.6.4-4.5 3.4-5.2-.4 1.3-.9 2.5-1.4 3.2l-.2.3a1 1 0 0 0 0 .9c.1.3.4.5.7.6 1.7 1 3.3 1.5 4.9 1.5 1.9 0 3.6-.7 5-2.1 1.5-1.7 2.5-4 2.5-6.1-.1-3 .5-4 .6-4 .2-.2.3-.5.2-.9l-.2-.3a1 1 0 0 0-.9-.6c-.2 0-1.5 0-2.2-2.2-.2-.5-.6-1.1-1.3-1.7a11.9 11.9 0 0 0-7.8-2.7z" fill="#AB8F7A"/><path d="M93 115a60.5 60.5 0 0 1-7-10.9c.2-1-.1-2.6-1-4.5.1 0 .4 0 .5-.7.4-1.7-.4-4.2-2.2-7.6l.8.3c.3 0 .5-.1.6-.3.3-.3.4-1 .2-2.2-.3-2-1-4-1.9-5.6h.5c.2 0 .4 0 .6-.2.4-.6.3-1.8-.2-3.8a53 53 0 0 0-.6-2.6c.2 0 .4 0 .5-.2.6-1-.5-5.2-1.6-7.7v-1c0-1.5-.3-3-.3-3v-.4c0-1.9-.5-19.3-10.3-29-2.2-4-2-8-4-16.3-2-8.6-6.2-13.9-17.8-14.4S34.1 8.2 35.5 17.4c.7 5.2 12.2 8.8 11.3 15.3s-7.2 10-7.2 24.4S54.8 84.2 60 88.6c4.7 4 9.5 9.4 11.4 10l.6 5.2v.2l.2-.2c.6-.4 1.1-.8 1.4-1.3v2.7l-.1.4.3-.3.8-1c.3 3.6.6 7.6 1 10 1.5 7.5 2.7 8.4 3.7 8.4s1.5-2.3 1.8-6.3l1 1.6c2.4 3.5 4.2 5 4.8 5h.1c1.3 0 1.3-2.8.6-6.8 3.4 3 6.7 5 8 5h.6c.9-.8-1.2-3.8-3.2-6.2z" fill="none" stroke="#BA0505" stroke-linecap="round" stroke-linejoin="round" stroke-miterlimit="10" stroke-width="2.9"/><path d="M79.2 122.7c-1 0-2.2-1-3.6-8.5-1-5-1.5-18-1.5-18 0-1.3.6-1.5 1.1-1.5 1.5 0 3.4 2.5 3.5 5.2 0 2 .7 4.7 1.3 7.4.7 2.7 1.3 5.4 1.2 6.9v.2c-.4 5.2-.8 8.3-2 8.3z" fill="#049CBF"/><path d="M79.9 88.5c0-1.4-.8-2.2-2.2-2.2a9 9 0 0 0-3.3.9c.1 1 3.2 24.7 7.5 30.8 2.5 3.5 4.3 5 5 5 4.5-.2-7-34.5-7-34.5" fill="#05B3DB"/><path d="M95.6 121.3c-1.5 0-5.4-2.7-9.3-6.3-7-6.4-8.8-27.4-8.8-27.6h.7c.8 0 3 .1 3.7 1.6a46.4 46.4 0 0 0 11 26c2 2.4 4 5.4 3.2 6.1l-.5.2z" fill="#05B3DB"/><path d="M69 87.4s2.8 9.7 3 16.3c2.1-1.4 2.5-2.8 2.3-6.6-.2-4-.3-8.7-5.4-9.7z" fill="#004A93"/><path d="M71.9 104v-.3c-.2-6.6-3-16.2-3.1-16.3h.2c5 .9 5.2 5.6 5.4 9.3v.4c.2 4-.2 5.3-2.3 6.7l-.2.2zM69 87.5a81 81 0 0 1 3 16c1.8-1.3 2.2-2.7 2-6.5v-.3c-.1-3.6-.4-8.1-5-9.1z" fill="#023863"/><path d="M71.3 87.4s3.1 14.1 2.3 17.8c3.3-3.2 1.9-12 1.5-17.8-2.3-1-3.8 0-3.8 0z" fill="#00447C"/><path d="M73.4 105.6v-.4c.8-3.7-2.2-17.6-2.2-17.8 0 0 .7-.5 1.9-.5.7 0 1.4.2 2 .5h.1l.3 2.8c.4 5.5 1 12.3-1.8 15l-.3.4zm-2-18.1c.2.7 3 13.2 2.4 17.3 2.4-3 1.8-9.3 1.4-14.5l-.3-2.8a5 5 0 0 0-1.8-.4c-.9 0-1.5.3-1.6.4z" fill="#023863"/><linearGradient id="e" x1="35.2" x2="75.5" y1="51.9" y2="51.9" gradientUnits="userSpaceOnUse"><stop stop-color="red" offset="0"/><stop stop-color="#B70904" offset="1"/></linearGradient><path d="M73.6 93s-.3 5.8-1.9 5.8S65 93 60 88.6 39.7 71.6 39.6 57c0-14.4 6.2-17.8 7.2-24.4 1-6.5-10.6-10.1-11.3-15.4C34 8.2 38.2 4.5 49.8 5c11.6.5 15.8 5.8 17.8 14.4s1.8 12.6 4.2 16.8 5.9 50.3 1.8 56.7z" fill="url(#e)"/><path d="M85.2 105.3c.6-.2.8-1 .7-2-.1-2-1.6-5.2-4.8-9-7.2-8.2-15.3-25.2-17.1-29.8s-4.6-17-8.7-7c0 0-.2 1.7.1 4.5a30.1 30.1 0 0 0 .4 2.5v.2l.3 1.3v.3l.5 1.4v.1l.5 1.6v.1l.7 1.6v.3l.8 1.6.1.3.9 1.7.1.3 1 1.8a149.3 149.3 0 0 0 21.6 27.2l.2.1.3.2.1.1.3.2.2.1.2.1.1.1.3.1.3.1h.9z" fill="#004A93"/><path d="M84.7 105.6c-.8 0-1.8-.6-3-1.6a151.2 151.2 0 0 1-21-26.8 32 32 0 0 1-5.6-19.7c1-2.7 2.1-4 3.2-4 2 0 3.6 4.7 4.8 8.4l.9 2.5c2 5 10.1 21.8 17 29.9 4.4 4.9 5.5 8.9 4.8 10.5-.2.5-.7.8-1.2.8z" fill="#0045AD"/><path d="M61.5 59.7c0 .5-.1 9.6 10 24 7.2 10.6 11.7 16 13.4 16 .2 0 .5-.2.6-.8.4-2-.7-5.2-3.4-9.7a216 216 0 0 0-2.3-3.7c-3.4-5.4-9.2-14.5-10.5-18.2-1.4-3.7-4.1-9.2-6.2-9.2-.6 0-1.2.5-1.6 1.6z" fill="#003F9E"/><path d="M66 62.8s4.8 11.8 9.5 19 10.1 13 9.2 7.3-5.4-11.2-5.4-11.2S71 57 66 62.9z" fill="#003B93"/><path d="M84.1 91.6c-1.7 0-5.6-4.9-8.7-9.7-4.7-7.1-9.4-18.9-9.5-19v-.1c.7-.8 1.4-1.1 2.1-1.1 5 0 11 15.2 11.4 16.1.3.4 4.6 5.7 5.5 11.3.2 1.1.1 1.9-.2 2.2-.1.2-.3.3-.6.3zM66.2 62.9c.5 1 5 12 9.4 18.8 3.7 5.7 7.2 9.6 8.5 9.6.2 0 .3 0 .4-.2.2-.2.3-.7.1-2-.9-5.6-5.4-11-5.4-11.1-.1-.2-6.4-16-11.2-16-.6 0-1.2.3-1.8.9z" fill="#023863"/><path d="M72.1 65.7s2.9 7.3 6.7 13c3.8 5.7 6.5 6.5 5 .9C82.2 74 77 60.8 72 65.6z" fill="#003B93"/><path d="M83.5 83.6c-1 0-2.9-1.8-4.8-4.8-3.8-5.7-6.7-13-6.7-13.1v-.2c.7-.7 1.5-1 2.3-1 4.3 0 8.1 9.8 9.6 15 .5 2 .6 3.2.2 3.8l-.6.3zm-11.2-18c.3 1 3.1 7.7 6.6 13 2.3 3.4 3.8 4.7 4.6 4.7l.3-.2c.2-.3.5-1-.2-3.5-1.1-4.1-5-14.9-9.3-14.9a3 3 0 0 0-2 1z" fill="#023863"/><path d="M77 66.7s1.5 5.6 4.9 9.1 1.7-3.6 0-7.2-4.9-6.4-4.9-1.9z" fill="#003B93"/><path d="M83.3 77c-.4 0-.9-.4-1.5-1-3.4-3.6-4.9-9.2-5-9.2 0-2.1.7-2.6 1.3-2.6 1.2 0 3 2.2 4 4.3 1.1 2.5 2.4 7 1.7 8.2l-.5.2zm-6.1-10.3c0 .4 1.6 5.6 4.8 9 .7.8 1.1 1 1.3 1l.2-.2c.6-.9-.5-5.2-1.7-7.8-1.1-2.3-2.7-4.2-3.7-4.2-.7 0-.9 1.2-1 2.2z" fill="#023863"/><path d="M82.3 68.1c0-1.5-.4-3-.4-3s-1.5-4-4.6-8V57l-.9-1.1-.9-1.1-1-1-.1-.2-1-1h-.2a23 23 0 0 0-2.5-2l-1.2-.7-.2-.2-1.3-.6c-3-1.3-5.3-1.8-7.2-1.9-1.6 0-2.8.2-3.7.5a7.2 7.2 0 0 0-2.4 1.4v.2l-.1.2v.3l-.1.1-.1.4v.2l-.2.5v.3l-.2.6v.9l-.1.3a92.2 92.2 0 0 0-.1 1.8v1.6l.1.8v.4l.2.8.1.4a9.8 9.8 0 0 0 .4 1.2l.3.8.3.4.4.8.3.4a15 15 0 0 0 .6.9l.6.7c2.9-3.7 3.6-8 3.6-8l-.1.6v.9l-.1.7v3l.2 1v.2l.2.7.1.3.2.7.1.3.4.9v.1l.5.8.2.3.5.5.2.3.6.5.2.3 1 .6c.9-2.8 1.1-4.5 1.2-5.3V62.9l.4 1.2.1.3.5 1.1.5 1v.2l.6.7v.1l.5.6.2.2.5.5.5.5.1.1.5.4 1.1.8c.8-1.7.5-3.3.5-3.3l.2.3.2.4.3.5.3.4c0 .2.2.3.3.4a10.1 10.1 0 0 0 .8 1l.3.3.2.3.3.2.3.2.2.2.2.1.3.2h.2l.3.2c1.7-1.9 1.6-3.7 1.6-3.7l.2.2.3.6.2.1a5.8 5.8 0 0 0 1 1v.1l.5.3h.2l.3.2c.5.3.9.3.9.3.3-.9.6-1.5.6-3z" fill="#FFC400"/><path d="M76.8 61.1v-1.3 1.3z" fill="#FB8B03"/><path d="M71.8 66.4l.4.8c1.5 2.8 3.2 4.3 4.3 4.6 1.5-1.8 1.4-3.5 1.4-3.5v-.7l.3.6c1.1 2 2.9 2.6 3.3 2.7.4-.8.6-1.4.6-2.8s-.4-3-.4-3S77.2 53.3 68 49.2a19 19 0 0 0-7.6-1.8c-3.6 0-5.3 1.6-5.5 1.8-.2.6-3 9.2 2.2 14.7 2.6-3.4 3.4-7.4 3.4-7.8h.3c-.1 1-1.3 9.3 4 12.4 1.2-3.9 1.1-5.6 1.1-5.6v-1.4l.3 1.3c1.3 4.9 3.8 6.5 5.1 7.4l.2.1c.6-1.5.4-3 .4-3l-.1-1z" fill="none"/><path d="M71.7 41s-6.2-4.6-11.1-2.4-6.7 7-7 12.1c-.3 5.2 4.6.6 5.1-2.3-.9 7.2 3 12.6 4.3 4.7.6 5.5 3.2 9.6 5.8 2.5.7 6.8 4 9 5.3 3.8.2 5 3.2 8.6 4.2 2.6 1.4 3.5 3.7 4.7 3.6 2.7s-.5-19.3-10.3-29c1.4 4.6 0 5.3 0 5.3z" fill="#CE151B"/><path d="M42.5 15.1s-2-6.8 7-6.1 12.8 6 11.3 9.6-5.8 11-10.2 11c-4.3-.1-7.5-12-8-14.5z" fill="#F2E1E3"/><path d="M51.8 22.8s-.8.9-.7 4.5c.1 3.7-3.9 10-10.7 5.6a14 14 0 0 0 2.7-6c2-1.6 6-5.3 8.7-4z" fill="#161616"/><path d="M44.9 34.5c-1.5 0-3-.5-4.6-1.5v-.2c1.6-1.8 2.6-5.1 2.6-6L44 26c1.9-1.5 4.4-3.5 6.6-3.5l1.5.3s-1 1-.9 4.5c.1 1.8-.8 4-2.2 5.4a5.8 5.8 0 0 1-4.1 1.8z" fill="#0C0C0C"/><path d="M47.8 24.9s-2.5.2-4.7 2l-2 5.7c3.8-1.4 6.9-3.5 6.7-7.7z" fill="#BB151B"/><path d="M40.9 32.8v-.3l2-5.7a10 10 0 0 1 4.9-2h.1c.2 4.7-3.5 6.7-6.7 7.9h-.3zm2.3-5.8l-1.9 5.3c4.5-1.6 6.5-4 6.4-7.3-.6.1-2.7.5-4.5 2z" fill="#7D0000"/><path d="M47 23.4s-4.2 4-2 8c3.7-1.6 3.6-7.1 2-8z" fill="#FC9595"/><path d="M45 31.6l-.1-.1c-2.2-4 2-8.2 2-8.2h.2c.7.4 1.2 1.7 1 3.3 0 2.3-1.2 4.1-3 5h-.2zm2-8c-.5.5-3.8 4-2 7.6 2.5-1.1 2.9-3.8 3-4.6 0-1.4-.4-2.6-1-3z" fill="#F75C5C"/><path d="M42.8 26.4s-.9 4.3-2.4 6.5c2.5.4 8.3-1.3 8-8.6l-1 .5s.5 5.2-5.6 7c1.2-1.8 2-5.5 2-5.5h-1z" fill="#1E1E1E"/><path d="M41.1 33h-.9v-.2c1.6-2.1 2.4-6.4 2.5-6.4v-.1l1.3-.1v.1c0 .2-.8 3.4-1.9 5.3 5.6-1.8 5.1-6.8 5-6.8v-.1l1.5-.6v.2c0 2.7-.6 5-2.2 6.5a7.6 7.6 0 0 1-5.3 2.3z" fill="#2B2B2B"/><path d="M52 22.6s-2.4 3.7-8.5 4.8-6.7 1.7-7 6.8c-3.2-.7-8.5-8.8-3.1-15 5-5.8 14.4-2.5 15.4.5s3.2 2.9 3.2 2.9z" fill="#161616"/><path d="M48.1 18.8c-1.2-2.1-9.7-5.3-14.7.4a8.9 8.9 0 0 0-2.2 7.5c1.1 1.5 3.8 3.2 5.8 4 .6-1 .8-2.3 3.6-3.2 5.5-2.2 7-6 7.5-8.7z" fill="#F4CCAE"/><path d="M50.8 18a3.8 3.8 0 1 1 2-7c1 .6 1.5 1.4 1.7 2.4a3.8 3.8 0 0 1-3.7 4.6z"/><path d="M50.8 11.4c.5 0 1 .1 1.5.4a2.8 2.8 0 1 1-1.5-.4m0-2a4.8 4.8 0 1 0 0 9.6 4.8 4.8 0 0 0 0-9.6z" fill="#fff"/><path d="M98.8 87A70.6 70.6 0 0 1 66 84.9c-5.4-1.5-15-4.4-37.1-12.6-1.7.3-1.5-.2-2.9 2.4-.4 1-.6 3 .3 3.8A571.2 571.2 0 0 0 65.7 92c13.5 3.8 24 4.5 35.8 2.4-.7-2.3-1.5-5-2.7-7.2z" fill="#9C4322"/><path d="M101.7 90.3c.8 2 .7 3.8-.2 4-.8.2-2.2-1.2-3-3.2s-.6-3.8.2-4c1-.2 2.2 1.2 3 3.2z" fill="#D1A171"/><path d="M101.7 90.3c-.8-2-2-3.4-3-3.2a70.6 70.6 0 0 1-32.6-2.3c-5.4-1.5-15-4.4-37.1-12.6-1.7.3-1.5-.2-2.9 2.4-.4 1-.6 3 .3 3.8A571.2 571.2 0 0 0 65.7 92c13.5 3.8 24 4.5 35.8 2.4 1-.2 1-2 .2-4z" fill="none" stroke="#614A34" stroke-miterlimit="10"/><path d="M54 86.9s-.1 2.8-2 2.4c-2-.3-2-4.6.4-7.4s6-1.8 6.6.3c.6 2.2-5 4.7-5 4.7z" fill="#B57E72"/><path d="M62.5 84s-3-.6-4.2 2.3-1 4.6-2.5 4.2c-1.5-.5-2.7-5.2-.6-7.9 2.2-2.7 6.3-2.6 7.3 1.4z" fill="#D09183"/><path d="M46.7 77.5s-1.7-2.6-4-1.4-3.5 5-3 7.2 3 2.6 3.7 0c.7-2.6 3.3-5.8 3.3-5.8z" fill="#BA8275"/><path d="M49.9 79.4s-2.6-.2-3.1 3.9-3 4-3.7 1.3c-.7-2.6 1-7 3.4-7.4 2.4-.4 3.4 2.2 3.4 2.2z" fill="#FB8B03"/><path d="M44.8 86.7c-.8 0-1.5-.8-1.8-2a8 8 0 0 1 1.1-6c.7-1 1.5-1.6 2.4-1.7h.4c2.2 0 3.1 2.4 3.1 2.4l.1.2h-.2c-.5 0-2.5.2-3 3.7-.3 2.5-1.3 3.4-2.1 3.4z" fill="#D09183"/></svg>