<svg viewBox="0 0 128 128" xmlns="http://www.w3.org/2000/svg"><path d="M117.3 89.2c4.3-.2 4.8-5.6 5.5-6.2-.8-.2-3-3.5-6.1-3.7 0-2.3 0-4.7-.3-7.2.7 0 1.4-.2 2.1-.4 5-1.5 3.3-7.9 3.9-8.8-1 0-4.7-3-8.2-2.4a99.4 99.4 0 0 0-1.8-6.2l.6-.4c4.1-2.4.9-8 1.1-9-.7.3-4-1.2-7-.7-.8-1.2-1.6-2.3-2.5-3.3l.4-.4c3.5-3.5-1.6-8.4-1.7-9.4-.7.4-5.5-.5-8.3 1.4a50.3 50.3 0 0 0-5.2-3c.7-3.6-4.1-7-4.4-7.8-.7.6-6.2.4-8.6 3-2-.5-4-.9-6-1.1-1.3-3.2-6.3-4.6-6.7-5.4-.5.7-5.2 2.2-6.7 5.2-2.2.2-4.3.5-6.5 1-2.5-2.3-7.6-2.2-8.3-2.7-.2.8-4.7 4-4.4 7.4l-5.6 3c-3-1.4-7.2-.6-8-1 0 1-4.5 5.4-2 8.8a48.6 48.6 0 0 0-3.9 4.2c-2.2.2-4.2 1-4.8.9.2.8-2 4.7-.4 7.4a41.1 41.1 0 0 0-3 8.4c-2.3.8-4.2 2.1-4.9 2.1.5.9-1 7 3.6 8.7 0 2.5.2 5.2.7 8-2.4.9-4 3.2-4.7 3.4.7.6 1.2 6 5.5 6.2H12a82 82 0 0 0 1 3.3l1.5 3.9h-.1c-4-.5-5.3 4.4-6 4.8.7.4 2.7 5 6.6 4.2 1-.2 2-.6 2.9-1.1 1 1.9 2 3.6 3.5 5.8-3.5.7-3.1 5.2-3.7 5.6.8.2 4 3.9 7.3 2.2 1.7-.9 3.1-2.3 3.4-4l2.7-1c1.3 1 3.3 2 5.2 1 1.9-1 3.4-2.6 3.1-4.4l5.4-2.2-.3.9c.7.1 3.4 3.2 6 1.8 2-1 3.5-2.7 2.8-4.6v-.1c-.2-.4-.5-.8-.9-1l5.8-2.5c.5 1.5 1 3 1.4 3.2l.2.2v.2c.5 2.2.6 6.1-.2 10.3l-6.2 2.4v.3l5-1.3c.3 0 .4.2.3.4l-2.4 4.4h.3l3.7-4.5h.4l3.1 2.1h.1l3.2-2.1h.3l3.8 4.5h.3l-2.5-4.4c0-.2.1-.4.3-.4l5 1.3.1-.3-6.2-2.4c-.8-4.2-.7-8.1-.2-10.3v-.2l.3-.2c.3-.3.9-1.8 1.3-3.3l6.8 2.5c-.4.3-.7.6-.9 1.1-.7 2 .8 3.7 2.7 4.7 2.7 1.4 5.4-1.7 6-1.8L84 107l4.7 1.7v.2c-.9 2 .8 4 2.9 5 2.6 1.4 5.3-1.1 6.3-1.8l1.7.6c-.5 2.1 1.2 4 3.3 5.2 3.2 1.7 6.5-2 7.3-2.2-.5-.4-.3-4-2.8-5.3l3-6a7 7 0 0 0 2.5 1c3.9.9 6-3.8 6.7-4.2-.8-.4-2-5.2-6-4.8.8-2.5 1.5-4.9 2-7.3h1.7zM67.2 116l-3.2 3.2-3.1-3.2a21 21 0 0 1 1.7-10.6l-.2-.4a7 7 0 0 0 .7-2.2H65c0 .9.3 1.8.6 2.2l-.1.4a21 21 0 0 1 1.6 10.6z" fill="none" stroke="#0E7EB3" stroke-linecap="round" stroke-linejoin="round" stroke-miterlimit="10" stroke-width="3.9"/><radialGradient id="a" cx="64.5" cy="88.7" r="57" gradientTransform="matrix(1 0 0 .9066 0 8.3)" gradientUnits="userSpaceOnUse"><stop stop-color="#133C65" offset="0"/><stop stop-color="#0D6E7B" offset=".1"/><stop stop-color="#079A8F" offset=".2"/><stop stop-color="#03BA9D" offset=".3"/><stop stop-color="#01CEA6" offset=".4"/><stop stop-color="#00D5A9" offset=".5"/><stop stop-color="#00D5A9" offset="1"/></radialGradient><path d="M64 99.6l-38.8 15.8a69 69 0 0 1-12-23c-11.2-31 2-53.2 28.2-64.9s63 .2 71.6 28.7c7.3 24 3.4 37.8-8 58.6L64 99.6z" fill="url(#a)"/><path d="M57 26c.8 3.4 3.1 6.7 7 6.8h.3c3.8 0 6-3.5 6.7-6.8 1-5-6.4-6.8-7-7.8-.6 1-8 3-7 7.8z" fill="#00B5A9"/><path d="M64 22.1s-4.4 3-4.4 5.3 2 4.2 4.5 4.2 4.4-1.9 4.4-4.2c0-2.3-4.4-5.3-4.4-5.3z" fill="#DEB366"/><path d="M64 23.8s-3.3 2.6-3.3 4.2 1.5 3 3.3 3 3.4-1.3 3.4-3c0-1.6-3.3-4.2-3.3-4.2z" fill="#0084FF"/><path d="M64 25.7s-2.3 1.5-2.3 2.6 1 1.9 2.4 1.9c1.3 0 2.3-.9 2.3-2 0-1-2.3-2.5-2.3-2.5z" fill="#2B1FA6"/><path d="M57.6 42c.7 3 2.8 6.2 6.5 6.3h.1c3.6 0 5.7-3.3 6.3-6.3 1-4.5-6-6.3-6.4-7.1-.6.8-7.4 2.7-6.5 7.1z" fill="#008777"/><path d="M64 38.5s-4 2.7-4 4.8 1.8 4 4 4c2.3 0 4.2-1.8 4.2-4S64 38.5 64 38.5z" fill="#DEB366"/><path d="M64 40s-3 2.4-3 3.9 1.3 2.8 3 2.8c1.8 0 3.2-1.3 3.2-2.8 0-1.5-3.1-4-3.1-4z" fill="#0084FF"/><path d="M64 41.7S62 43 62 44s1 1.7 2.2 1.7 2.1-.8 2.1-1.7-2.1-2.4-2.1-2.4z" fill="#2B1FA6"/><path d="M59.5 58c.5 2.1 2 4.3 4.6 4.4 2.6 0 4-2.3 4.5-4.4.7-3.3-4.2-4.5-4.5-5.1-.5.5-5.3 2-4.6 5z" fill="#00717D"/><path d="M64 55.4s-2.8 2-2.8 3.4 1.3 2.8 2.9 2.8 2.9-1.2 2.9-2.8-3-3.4-3-3.4z" fill="#DEB366"/><path d="M64 56.5s-2 1.7-2 2.7c0 1.1 1 2 2.2 2 1.2 0 2.2-.9 2.2-2 0-1-2.2-2.7-2.2-2.7z" fill="#0084FF"/><path d="M64 57.7s-1.5 1-1.5 1.7.7 1.3 1.6 1.3 1.5-.6 1.5-1.3-1.5-1.7-1.5-1.7z" fill="#2B1FA6"/><ellipse cx="64" cy="79" rx="17.3" ry="24.1" fill="#00E8D9"/><path d="M38.9 31c2 2.9 5.4 5.2 9.2 4.1h.2c3.7-1.2 4.5-5.1 4-8.3-1-4.9-8.9-4.4-9.7-5.1-.3 1-6.6 5.2-3.7 9.3z" fill="#00B5A9"/><path d="M44 25.3s-3 4-2.2 6.2 3.5 3.3 5.9 2.6a4 4 0 0 0 2.6-5.3c-.9-2.1-6.2-3.5-6.2-3.5z" fill="#DEB366"/><path d="M44.7 26.8s-2.3 3.4-1.6 5c.6 1.5 2.6 2.3 4.3 1.7s2.8-2.2 2.1-3.8-4.8-2.9-4.8-2.9z" fill="#0084FF"/><path d="M45.4 28.6s-1.7 2.1-1.3 3 1.8 1.5 3 1.1c1.3-.4 2-1.5 1.5-2.5-.4-1-3.2-1.6-3.2-1.6z" fill="#2B1FA6"/><path d="M45.7 45.7c1.7 2.3 4.7 4 7.8 3h.1c3-1 3.5-4.3 2.8-6.9-.9-4-7.3-3.3-8-3.8-.3.8-5.2 4.4-2.7 7.7z" fill="#008777"/><path d="M49.7 40.9s-2.4 3.4-1.5 5.1 3 2.6 4.9 2c1.9-.8 2.7-2.7 1.9-4.5-.8-1.7-5.3-2.6-5.3-2.6z" fill="#DEB366"/><path d="M50.3 42s-1.7 3-1.1 4.2 2.2 1.8 3.6 1.3c1.5-.6 2.2-2 1.6-3.2-.6-1.2-4.1-2.2-4.1-2.2z" fill="#0084FF"/><path d="M51 43.5s-1.3 1.8-1 2.6c.4.7 1.6 1 2.6.7s1.5-1.3 1-2c-.3-.8-2.6-1.3-2.6-1.3z" fill="#2B1FA6"/><path d="M37 55.2c2.7 1.4 6.3 2 8.7-.2v-.1c2.2-2.2 1-5.3-.8-7.5-2.9-3.2-8.4 0-9.4-.3.3.8-2.4 6.1 1.5 8.1z" fill="#008777"/><path d="M38.2 49.2s-.4 4 1.2 5.4 4 1.1 5.5-.2 1.1-3.5-.5-4.8c-1.6-1.3-6.2-.4-6.2-.4z" fill="#DEB366"/><path d="M39.4 50.1s-.1 3.3 1 4.2c1.2.9 3 .8 4-.3s1-2.6-.2-3.5c-1.1-.9-4.8-.4-4.8-.4z" fill="#0084FF"/><path d="M40.7 51.1s-.3 2.2.4 2.8 2 .4 2.7-.3.8-1.8 0-2.4c-.7-.6-3.1 0-3.1 0z" fill="#2B1FA6"/><path d="M49.1 64.6c2 1.2 4.7 1.7 6.5.3v-.1c1.8-1.5 1-4-.3-5.6-2-2.6-6.2-.5-7-.7.2.6-2 4.4.8 6.1z" fill="#00717D"/><path d="M50.3 60.2s-.5 3 .6 4 3 1.1 4 .2 1.1-2.6 0-3.6c-1.2-1-4.6-.6-4.6-.6z" fill="#DEB366"/><path d="M51.1 61s-.2 2.4.6 3 2.2.8 3 .1.8-1.9 0-2.6c-.8-.7-3.6-.6-3.6-.6z" fill="#0084FF"/><path d="M52 61.8s-.2 1.5.3 2 1.4.4 2 0 .6-1.4 0-1.8-2.3-.3-2.3-.3z" fill="#2B1FA6"/><path d="M23 40.5c2.4 2.4 6.1 4.1 9.5 2.5h.1c3.3-1.7 3.3-5.5 2.1-8.5-1.8-4.4-9.1-2.8-10-3.4-.1 1-5.2 5.9-1.7 9.4z" fill="#00B5A9"/><path d="M26.8 34.3s-2.2 4.3-1 6.2 4 2.6 6 1.6 2.8-3.4 1.5-5.4c-1.2-1.9-6.5-2.4-6.5-2.4z" fill="#DEB366"/><path d="M27.6 35.7s-1.4 3.5-.5 4.9 2.9 1.8 4.4 1c1.6-.8 2.1-2.6 1.3-3.9-1-1.4-5.2-2-5.2-2z" fill="#0084FF"/><path d="M28.6 37.2s-1.1 2.3-.5 3.1c.5.9 1.9 1.1 3 .6 1-.6 1.5-1.7 1-2.6-.6-.8-3.5-1.1-3.5-1.1z" fill="#2B1FA6"/><path d="M15 54c2.8 1.7 6.7 2.4 9.4.2C27 51.8 26 48.3 24 46c-2.8-3.8-9-.7-10-1 .1 1-3.1 6.5 1 9z" fill="#00B5A9"/><path d="M16.7 47.5s-.8 4.4 1 5.9c1.6 1.5 4.2 1.5 5.8.1s1.6-3.7-.1-5.2c-1.7-1.5-6.7-.8-6.7-.8z" fill="#DEB366"/><path d="M17.9 48.5s-.3 3.6.9 4.7 3 1 4.3 0a2.7 2.7 0 0 0 0-4c-1.2-1-5.2-.7-5.2-.7z" fill="#0084FF"/><path d="M19.2 49.7s-.4 2.3.4 3 2 .6 2.9-.1c.8-.8.9-2 .1-2.6s-3.4-.3-3.4-.3z" fill="#2B1FA6"/><path d="M30.3 65.8c2.6 1.6 6.2 2.3 8.6.3l.1-.1c2.3-2 1.3-5.3-.4-7.5-2.6-3.5-8.4-.7-9.3-1 .2 1-2.8 6 1 8.3z" fill="#008777"/><path d="M31.9 59.9s-.7 4 .8 5.4c1.5 1.3 4 1.4 5.4.1 1.5-1.3 1.4-3.4-.1-4.8s-6.1-.7-6.1-.7z" fill="#DEB366"/><path d="M33 60.8s-.3 3.3.8 4.3 2.9 1 4 0 1-2.6 0-3.6-4.8-.7-4.8-.7z" fill="#0084FF"/><path d="M34.2 62s-.4 2 .3 2.7 1.9.5 2.7-.2.8-1.7.1-2.3c-.7-.6-3.1-.3-3.1-.3z" fill="#2B1FA6"/><path d="M43 73.6c1.9 1.1 4.3 1.6 6 .2 1.7-1.5 1-3.7-.2-5.2-1.8-2.4-5.8-.4-6.4-.6.1.6-2 4 .7 5.6z" fill="#00717D"/><path d="M44.2 69.5s-.5 2.8.5 3.8 2.8 1 3.8 0c1-.8 1-2.3-.1-3.3-1-.9-4.2-.5-4.2-.5z" fill="#DEB366"/><path d="M45 70.2s-.3 2.3.5 3 2 .6 2.7 0c.8-.7.8-1.8 0-2.5-.7-.7-3.3-.5-3.3-.5z" fill="#0084FF"/><path d="M45.8 71s-.3 1.4.2 1.9c.4.4 1.3.3 1.8-.1s.6-1.2.1-1.7c-.5-.4-2.1-.1-2.1-.1z" fill="#2B1FA6"/><path d="M9.4 71.7c3.4 1 7.6.9 9.6-2v-.1c2-2.8-.2-6.1-2.9-8.1-4-3-9.4 1.5-10.5 1.4.6 1-1 7.3 3.9 8.8z" fill="#00B5A9"/><path d="M9.2 64.8s.6 4.6 2.7 5.7c2.2 1 4.9.5 6-1.3s.4-4.1-1.7-5.2c-2.2-1.1-7 .8-7 .8z" fill="#DEB366"/><path d="M10.7 65.5s.8 3.7 2.3 4.5c1.5.7 3.5.3 4.4-1s.4-3.2-1.2-4c-1.5-.7-5.5.5-5.5.5z" fill="#0084FF"/><path d="M12.4 66.4s.3 2.5 1.3 3c1 .4 2.2 0 2.9-.9.6-1 .3-2.1-.7-2.6s-3.5.5-3.5.5z" fill="#2B1FA6"/><path d="M24.4 78.7c3 1 7 .8 8.7-1.8h.1c1.7-2.7-.3-5.7-2.7-7.5-3.7-2.9-8.6 1.3-9.6 1.3.4.8-1 6.7 3.5 8z" fill="#008777"/><path d="M24.2 72.4s.5 4.2 2.4 5.2 4.5.5 5.6-1.1.3-3.8-1.7-4.8-6.3.7-6.3.7z" fill="#DEB366"/><path d="M25.5 73s.7 3.5 2.1 4.2c1.4.7 3.2.3 4-1s.4-2.8-1-3.6c-1.4-.7-5 .5-5 .5z" fill="#0084FF"/><path d="M27.1 73.9s.3 2.2 1.2 2.7 2 .1 2.6-.8c.6-.8.3-2-.6-2.4-.9-.4-3.2.5-3.2.5z" fill="#2B1FA6"/><path d="M40.6 83.8c2.1.7 4.7.6 6-1.2 1.1-1.8-.2-3.8-1.8-5-2.5-2-5.8.9-6.5.9.3.5-.7 4.4 2.4 5.3z" fill="#00717D"/><path d="M40.5 79.6s.3 2.8 1.7 3.5 3 .3 3.7-.8c.7-1 .2-2.5-1.1-3.2-1.3-.7-4.3.5-4.3.5z" fill="#DEB366"/><path d="M41.4 80s.5 2.3 1.4 2.8 2.2.2 2.7-.7.2-1.9-.7-2.3c-1-.5-3.4.2-3.4.2z" fill="#0084FF"/><path d="M42.5 80.6s.2 1.5.7 1.8c.6.3 1.4 0 1.8-.5.4-.6.2-1.3-.4-1.6-.6-.3-2.1.3-2.1.3z" fill="#2B1FA6"/><path d="M10.7 89.2c3 0 6.3-1 7.1-3.6v-.2c.7-2.6-1.9-4.8-4.6-5.8-4-1.6-7 3.2-8 3.4.7.6 1.2 6 5.5 6.2z" fill="#00B5A9"/><path d="M8.6 83.7s1.7 3.6 3.7 4c2 .4 4-.6 4.5-2.3.5-1.7-.8-3.4-2.8-3.8-2-.5-5.4 2-5.4 2z" fill="#DEB366"/><path d="M10 84s1.6 2.7 3 3 3-.5 3.3-1.7-.6-2.6-2-2.9S10 84 10 84z" fill="#0084FF"/><path d="M11.7 84.3s.9 1.9 1.8 2 1.8-.3 2-1.2-.3-1.8-1.2-2c-.9-.1-2.7 1.2-2.7 1.2z" fill="#2B1FA6"/><path d="M24.6 91.7c2.7 0 5.8-.9 6.5-3.4.7-2.5-1.7-4.5-4.2-5.5-3.7-1.5-6.5 3-7.3 3.1.6.6 1 5.6 5 5.7z" fill="#008777"/><path d="M22.7 86.6s1.6 3.3 3.4 3.7c1.9.3 3.7-.6 4.1-2.1.4-1.6-.7-3.2-2.6-3.6-1.9-.3-5 2-5 2z" fill="#DEB366"/><path d="M24 86.9s1.5 2.5 2.8 2.8 2.6-.5 3-1.7-.6-2.3-1.9-2.6-4 1.5-4 1.5z" fill="#0084FF"/><path d="M25.5 87.2s.8 1.7 1.6 1.9c.9.2 1.7-.4 2-1.2.1-.8-.4-1.6-1.2-1.8-.8-.2-2.4 1-2.4 1z" fill="#2B1FA6"/><path d="M41.2 93.5c2.2 0 4.6-.7 5.2-2.6v-.1c.6-2-1.3-3.6-3.3-4.3-3-1.2-5.2 2.3-5.9 2.5.5.4.8 4.4 4 4.5z" fill="#00717D"/><path d="M39.7 89.5s1.3 2.6 2.7 3c1.5.2 3-.5 3.3-1.8.3-1.2-.6-2.5-2-2.8-1.6-.3-4 1.6-4 1.6z" fill="#DEB366"/><path d="M40.7 89.7s1.2 2 2.3 2.3 2-.4 2.3-1.3c.3-1-.4-2-1.4-2.1-1-.3-3.2 1.1-3.2 1.1z" fill="#0084FF"/><path d="M42 90s.6 1.3 1.2 1.5 1.4-.3 1.6-1-.3-1.3-1-1.4-1.9.9-1.9.9z" fill="#2B1FA6"/><path d="M15 105.4c2.8-.6 5.3-2.2 5.3-4.8-.2-2.6-3.1-3.9-5.8-4.2-4-.5-5.3 4.5-6 4.8.7.4 2.7 5.1 6.6 4.2z" fill="#00B5A9"/><path d="M11.7 101s2.5 2.8 4.4 2.7 3.4-1.4 3.3-3c-.1-1.6-1.8-2.8-3.7-2.7s-4 3-4 3z" fill="#DEB366"/><path d="M13 101s2.2 2.1 3.6 2c1.3 0 2.3-1 2.2-2.3 0-1.2-1.2-2.1-2.5-2-1.4 0-3.3 2.3-3.3 2.3z" fill="#0084FF"/><path d="M14.5 101s1.3 1.4 2.2 1.4 1.5-.8 1.4-1.6-.7-1.5-1.6-1.5c-.8 0-2 1.6-2 1.6z" fill="#2B1FA6"/><path d="M28 104.4c2.5-.5 4.9-2 4.8-4.4-.1-2.4-2.8-3.6-5.3-3.9-3.7-.4-4.9 4.1-5.5 4.5.6.3 2.5 4.6 6 3.8z" fill="#008777"/><path d="M24.9 100.4s2.3 2.5 4 2.5 3.1-1.4 3-2.8-1.5-2.6-3.3-2.5-3.7 2.8-3.7 2.8z" fill="#DEB366"/><path d="M26 100.4s2.1 1.9 3.4 1.8c1.2 0 2.2-1 2.1-2.1s-1.1-2-2.4-1.9c-1.2 0-3 2.2-3 2.2z" fill="#0084FF"/><path d="M27.5 100.3s1.2 1.3 2 1.3 1.4-.7 1.3-1.5c0-.7-.7-1.3-1.5-1.3-.7 0-1.8 1.5-1.8 1.5z" fill="#2B1FA6"/><path d="M44 103.4c2.3-.5 4.5-1.9 4.4-4v-.1c-.1-2.1-2.6-3.2-4.8-3.5-3.4-.4-4.5 3.8-5 4 .6.4 2.3 4.3 5.5 3.6z" fill="#00717D"/><path d="M41.2 99.8s2.1 2.3 3.7 2.2c1.6 0 2.8-1.2 2.8-2.6-.1-1.3-1.5-2.3-3-2.2-1.7 0-3.5 2.6-3.5 2.6z" fill="#DEB366"/><path d="M42.3 99.7s1.9 1.7 3 1.7 2-1 2-2-1.1-1.7-2.2-1.7c-1.2 0-2.8 2-2.8 2z" fill="#0084FF"/><path d="M43.6 99.6s1.1 1.3 1.8 1.2 1.3-.6 1.3-1.3c-.1-.7-.7-1.3-1.4-1.3-.8.1-1.7 1.4-1.7 1.4z" fill="#2B1FA6"/><path d="M25.1 118c2.2-1.2 4-3.3 3.2-5.5v-.1c-1-2.2-4-2.7-6.5-2.3-3.8.5-3.4 5.2-4 5.7.9.1 4.1 3.8 7.3 2.1z" fill="#00B5A9"/><path d="M20.7 114.9s3.1 1.8 4.8 1.3 2.6-2.1 2-3.5c-.6-1.3-2.4-2-4.1-1.5s-2.7 3.7-2.7 3.7z" fill="#DEB366"/><path d="M21.8 114.5s2.7 1.3 3.9 1 1.8-1.6 1.4-2.6c-.5-1-1.8-1.6-3-1.3-1.2.4-2.3 3-2.3 3z" fill="#0084FF"/><path d="M23.2 114s1.7 1 2.4.8 1.1-1 .8-1.7a1.6 1.6 0 0 0-1.9-1c-.8.3-1.3 2-1.3 2z" fill="#2B1FA6"/><path d="M36.5 114c2-1 3.7-3 2.9-5v-.1c-.9-2-3.7-2.5-6-2.1-3.5.5-3.1 4.7-3.6 5.2.7.1 3.7 3.5 6.7 2z" fill="#008777"/><path d="M32.4 111.2s2.9 1.7 4.4 1.2 2.4-2 1.8-3.2-2.2-2-3.7-1.4c-1.6.5-2.5 3.4-2.5 3.4z" fill="#DEB366"/><path d="M33.4 110.8s2.5 1.2 3.6.9 1.6-1.4 1.2-2.4-1.6-1.4-2.7-1c-1 .2-2 2.5-2 2.5z" fill="#0084FF"/><path d="M34.7 110.4s1.5 1 2.2.7 1-1 .8-1.6c-.3-.7-1.1-1-1.8-.8-.7.2-1.2 1.7-1.2 1.7z" fill="#2B1FA6"/><path d="M50.7 110c1.9-1 3.4-2.7 2.7-4.6-.8-1.9-3.4-2.3-5.4-2-3.2.5-3 4.4-3.4 4.8.7.2 3.4 3.2 6.1 1.8z" fill="#00717D"/><path d="M47 107.5s2.6 1.5 4 1 2.2-1.7 1.7-2.9c-.5-1.1-2-1.7-3.4-1.2-1.4.4-2.3 3-2.3 3z" fill="#DEB366"/><path d="M48 107.2s2.2 1 3.2.7c1-.3 1.5-1.3 1.1-2.1-.3-1-1.4-1.4-2.4-1-1 .3-2 2.4-2 2.4z" fill="#0084FF"/><path d="M49.1 106.8s1.4.8 2 .6c.7-.2 1-.9.7-1.5-.2-.6-1-1-1.6-.7-.6.2-1.1 1.6-1.1 1.6z" fill="#2B1FA6"/><path d="M89.1 31c-2 2.9-5.4 5.2-9.2 4.1h-.2c-3.7-1.2-4.5-5.1-4-8.3 1-4.9 8.8-4.4 9.7-5.1.3 1 6.6 5.2 3.7 9.3z" fill="#00B5A9"/><path d="M84 25.3s3 4 2.2 6.2-3.5 3.3-5.9 2.6a4 4 0 0 1-2.6-5.3c.9-2.1 6.2-3.5 6.2-3.5z" fill="#DEB366"/><path d="M83.3 26.8s2.3 3.4 1.6 5c-.6 1.5-2.6 2.3-4.4 1.7s-2.7-2.2-2-3.8 4.8-2.9 4.8-2.9z" fill="#0084FF"/><path d="M82.6 28.6s1.7 2.1 1.3 3-1.8 1.5-3 1.1c-1.3-.4-2-1.5-1.6-2.5.4-1 3.3-1.6 3.3-1.6z" fill="#2B1FA6"/><path d="M82.3 45.7c-1.7 2.3-4.7 4-7.8 3h-.1c-3-1-3.5-4.3-2.9-6.9 1-4 7.4-3.3 8.2-3.8.2.8 5 4.4 2.6 7.7z" fill="#008777"/><path d="M78.3 40.9s2.4 3.4 1.5 5.1-3 2.6-4.9 2c-1.8-.8-2.7-2.7-1.9-4.5.9-1.7 5.3-2.6 5.3-2.6z" fill="#DEB366"/><path d="M77.7 42s1.7 3 1.1 4.2-2.2 1.8-3.6 1.3c-1.5-.6-2.2-2-1.6-3.2.6-1.2 4.1-2.2 4.1-2.2z" fill="#0084FF"/><path d="M77 43.5s1.3 1.8 1 2.6c-.4.7-1.6 1-2.6.7s-1.5-1.3-1-2c.3-.8 2.6-1.3 2.6-1.3z" fill="#2B1FA6"/><path d="M91 55.2c-2.7 1.4-6.3 2-8.7-.2v-.1c-2.3-2.2-1-5.3.8-7.5 2.9-3.2 8.4 0 9.4-.3-.3.8 2.4 6.1-1.5 8.1z" fill="#008777"/><path d="M89.8 49.2s.4 4-1.2 5.4-4 1.1-5.4-.2-1.2-3.5.4-4.8c1.6-1.3 6.2-.4 6.2-.4z" fill="#DEB366"/><path d="M88.6 50.1s.1 3.3-1 4.2c-1.2.9-3 .8-4-.3s-1-2.6.2-3.5c1.1-.9 4.8-.4 4.8-.4z" fill="#0084FF"/><path d="M87.3 51.1s.3 2.2-.5 2.8-1.9.4-2.6-.3-.8-1.8 0-2.4c.7-.6 3.1 0 3.1 0z" fill="#2B1FA6"/><path d="M77.8 63.3c-2 1-4.8 1.2-6.4-.4-1.6-1.8-.6-4 .9-5.6 2.2-2.3 6.2.1 7 0-.3.6 1.5 4.6-1.5 6z" fill="#00717D"/><path d="M77.1 58.8s.2 3-1 4c-1.3.8-3 .7-4-.3s-.8-2.7.4-3.6c1.3-.9 4.6 0 4.6 0z" fill="#DEB366"/><path d="M76.3 59.4s0 2.5-1 3.1-2.2.5-3-.3-.6-2 .3-2.6 3.7-.2 3.7-.2z" fill="#0084FF"/><path d="M75.3 60.2s0 1.6-.5 2c-.6.4-1.4.3-2-.3s-.4-1.4.1-1.8c.6-.4 2.3 0 2.3 0z" fill="#2B1FA6"/><path d="M105 40.5c-2.4 2.4-6.1 4.1-9.5 2.5h-.1c-3.3-1.7-3.3-5.5-2.1-8.5 1.8-4.4 9.1-2.8 10-3.4.1 1 5.2 5.9 1.7 9.4z" fill="#00B5A9"/><path d="M101.2 34.3s2.2 4.3 1 6.2-4 2.6-6 1.6-2.8-3.4-1.5-5.4c1.2-1.9 6.5-2.4 6.5-2.4z" fill="#DEB366"/><path d="M100.4 35.7s1.4 3.5.5 4.9-2.9 1.8-4.4 1c-1.6-.8-2.2-2.6-1.3-3.9 1-1.4 5.2-2 5.2-2z" fill="#0084FF"/><path d="M99.3 37.2s1.2 2.3.6 3.1c-.5.9-1.9 1.1-3 .6-1-.6-1.5-1.7-1-2.6.6-.8 3.4-1.1 3.4-1.1z" fill="#2B1FA6"/><path d="M113 54c-2.8 1.7-6.7 2.4-9.4.2-2.6-2.3-1.5-5.8.4-8.2 2.8-3.8 9-.7 10-1-.1 1 3.1 6.5-1 9z" fill="#00B5A9"/><path d="M111.3 47.5s.8 4.4-1 5.9c-1.6 1.5-4.2 1.5-5.8.1s-1.6-3.7.1-5.2c1.7-1.5 6.7-.8 6.7-.8z" fill="#DEB366"/><path d="M110.1 48.5s.3 3.6-.8 4.7-3.2 1-4.4 0a2.5 2.5 0 0 1 0-4c1.2-1 5.2-.7 5.2-.7z" fill="#0084FF"/><path d="M108.8 49.7s.4 2.3-.4 3-2 .6-2.9-.1c-.8-.8-.9-2-.1-2.6s3.4-.3 3.4-.3z" fill="#2B1FA6"/><path d="M97.7 65.8c-2.6 1.6-6.2 2.3-8.6.3L89 66c-2.3-2-1.4-5.3.4-7.5 2.6-3.5 8.4-.7 9.3-1-.2 1 2.8 6-1 8.3z" fill="#008777"/><path d="M96.1 59.9s.7 4-.8 5.4c-1.5 1.3-4 1.4-5.4.1-1.5-1.3-1.4-3.4.1-4.8s6.1-.7 6.1-.7z" fill="#DEB366"/><path d="M95 60.8s.3 3.3-.8 4.3-2.8 1-4 0-1-2.6 0-3.6 4.8-.7 4.8-.7z" fill="#0084FF"/><path d="M93.8 62s.4 2-.3 2.7-1.9.5-2.7-.2-.8-1.7-.1-2.3c.7-.6 3.1-.3 3.1-.3z" fill="#2B1FA6"/><path d="M83.8 74.3c-1.8 1-4.3 1.5-6 .2v-.1c-1.6-1.4-1-3.6.3-5.2 1.8-2.3 5.7-.4 6.4-.6-.2.6 1.9 4.1-.7 5.7z" fill="#00717D"/><path d="M82.7 70.2s.5 2.8-.6 3.7-2.7 1-3.7.1-1-2.4 0-3.3c1.2-1 4.3-.5 4.3-.5z" fill="#DEB366"/><path d="M82 70.8s.2 2.3-.6 3-2 .6-2.7 0c-.8-.7-.8-1.8 0-2.5.7-.6 3.3-.5 3.3-.5z" fill="#0084FF"/><path d="M81.1 71.6s.3 1.5-.2 1.9c-.5.4-1.3.4-1.8 0s-.6-1.3-.1-1.7c.4-.4 2.1-.2 2.1-.2z" fill="#2B1FA6"/><path d="M118.5 71.7c-3.3 1-7.5.9-9.5-2v-.1c-2-2.8.2-6.1 2.9-8.1 4-3 9.4 1.5 10.5 1.4-.5 1 1 7.3-3.8 8.8z" fill="#00B5A9"/><path d="M118.8 64.8s-.6 4.6-2.7 5.7c-2.2 1-4.8.5-6-1.3s-.4-4.1 1.7-5.2c2.2-1.1 7 .8 7 .8z" fill="#DEB366"/><path d="M117.3 65.5s-.8 3.7-2.3 4.5c-1.5.7-3.5.3-4.4-1s-.3-3.2 1.2-4c1.5-.7 5.5.5 5.5.5z" fill="#0084FF"/><path d="M115.6 66.4s-.3 2.5-1.3 3c-1 .4-2.2 0-2.9-.9-.6-1-.3-2.1.7-2.6s3.5.5 3.5.5z" fill="#2B1FA6"/><path d="M103.6 78.7c-3 1-7 .8-8.7-1.8h-.1c-1.7-2.7.3-5.7 2.7-7.5 3.7-2.9 8.6 1.3 9.6 1.3-.4.8 1 6.7-3.5 8z" fill="#008777"/><path d="M103.8 72.4s-.5 4.2-2.4 5.2-4.5.5-5.6-1.1-.3-3.8 1.7-4.8 6.3.7 6.3.7z" fill="#DEB366"/><path d="M102.5 73s-.7 3.5-2.1 4.2c-1.4.7-3.2.3-4-1s-.4-2.8 1-3.6c1.4-.7 5 .5 5 .5z" fill="#0084FF"/><path d="M100.9 73.9s-.3 2.2-1.2 2.7-2 .1-2.6-.8c-.6-.8-.3-2 .6-2.4.8-.4 3.2.5 3.2.5z" fill="#2B1FA6"/><path d="M87.3 83.8c-2 .7-4.6.6-5.8-1.2-1.2-1.8.1-3.8 1.7-5 2.5-2 5.8.9 6.5.9-.3.5.7 4.4-2.4 5.3z" fill="#00717D"/><path d="M87.5 79.6s-.4 2.8-1.7 3.5-3 .3-3.7-.8c-.7-1-.2-2.5 1.1-3.2 1.3-.7 4.3.5 4.3.5z" fill="#DEB366"/><path d="M86.6 80s-.5 2.3-1.4 2.8-2.2.2-2.7-.7-.2-1.9.7-2.3c1-.5 3.4.2 3.4.2z" fill="#0084FF"/><path d="M85.5 80.6s-.2 1.5-.8 1.8c-.6.3-1.3 0-1.7-.5-.4-.6-.2-1.3.4-1.6.5-.3 2.1.3 2.1.3z" fill="#2B1FA6"/><path d="M117.3 89.2c-3 0-6.3-1-7.1-3.6v-.2c-.8-2.6 1.9-4.8 4.5-5.8 4.1-1.6 7.1 3.2 8 3.4-.6.6-1 6-5.4 6.2z" fill="#00B5A9"/><path d="M119.4 83.7s-1.7 3.6-3.7 4c-2 .4-4-.6-4.5-2.3-.5-1.7.8-3.4 2.8-3.8 2-.5 5.4 2 5.4 2z" fill="#DEB366"/><path d="M118 84s-1.6 2.7-3 3-3-.5-3.3-1.7.6-2.6 2-2.9S118 84 118 84z" fill="#0084FF"/><path d="M116.3 84.3s-.9 1.9-1.8 2-1.8-.3-2-1.2.3-1.8 1.2-2c.9-.1 2.6 1.2 2.6 1.2z" fill="#2B1FA6"/><path d="M103.4 91.7c-2.7 0-5.8-.9-6.5-3.4-.7-2.5 1.7-4.5 4.2-5.5 3.7-1.5 6.5 3 7.3 3.1-.6.6-1 5.6-5 5.7z" fill="#008777"/><path d="M105.3 86.6s-1.6 3.3-3.4 3.7c-1.9.3-3.7-.6-4.1-2.1-.4-1.6.7-3.2 2.6-3.6 1.9-.3 5 2 5 2z" fill="#DEB366"/><path d="M104 86.9s-1.5 2.5-2.8 2.8-2.6-.5-3-1.7.6-2.3 1.9-2.6 4 1.5 4 1.5z" fill="#0084FF"/><path d="M102.5 87.2s-.8 1.7-1.6 1.9c-.9.2-1.7-.4-2-1.2-.1-.8.4-1.6 1.2-1.8.8-.2 2.4 1 2.4 1z" fill="#2B1FA6"/><path d="M86.8 93.5c-2.2 0-4.6-.7-5.2-2.6v-.1c-.6-2 1.4-3.6 3.3-4.3 3-1.2 5.2 2.3 5.9 2.5-.5.4-.8 4.4-4 4.5z" fill="#00717D"/><path d="M88.3 89.5s-1.3 2.6-2.7 3c-1.5.2-3-.5-3.3-1.8-.3-1.2.6-2.5 2-2.8 1.6-.3 4 1.6 4 1.6z" fill="#DEB366"/><path d="M87.3 89.7S86 91.7 85 92s-2-.4-2.3-1.3c-.3-1 .4-2 1.4-2.1 1-.3 3.2 1.1 3.2 1.1z" fill="#0084FF"/><path d="M86 90s-.6 1.3-1.2 1.5-1.4-.3-1.6-1 .3-1.3 1-1.4 1.9.9 1.9.9z" fill="#2B1FA6"/><path d="M113 105.4c-2.8-.6-5.4-2.2-5.3-4.8.2-2.6 3.1-3.9 5.8-4.2 4-.5 5.3 4.5 6 4.8-.7.4-2.7 5.1-6.6 4.2z" fill="#00B5A9"/><path d="M116.3 101s-2.5 2.8-4.4 2.7-3.4-1.4-3.3-3c.1-1.6 1.8-2.8 3.7-2.7s4 3 4 3z" fill="#DEB366"/><path d="M115 101s-2.2 2.1-3.5 2c-1.4 0-2.4-1-2.3-2.3 0-1.2 1.2-2.1 2.5-2 1.4 0 3.3 2.3 3.3 2.3z" fill="#0084FF"/><path d="M113.5 101s-1.3 1.4-2.2 1.4-1.5-.8-1.4-1.6.7-1.5 1.6-1.5c.9 0 2 1.6 2 1.6z" fill="#2B1FA6"/><path d="M100 104.4c-2.5-.5-4.9-2-4.8-4.4.1-2.4 2.8-3.6 5.3-3.9 3.7-.4 4.9 4.1 5.5 4.5-.6.3-2.5 4.6-6 3.8z" fill="#008777"/><path d="M103.1 100.4s-2.3 2.5-4 2.5-3.1-1.4-3-2.8 1.5-2.6 3.3-2.5 3.7 2.8 3.7 2.8z" fill="#DEB366"/><path d="M102 100.4s-2.1 1.9-3.4 1.8c-1.2 0-2.2-1-2.1-2.1s1.1-2 2.4-1.9c1.2 0 3 2.2 3 2.2z" fill="#0084FF"/><path d="M100.5 100.3s-1.2 1.3-2 1.3-1.4-.7-1.3-1.5c0-.7.7-1.3 1.5-1.3.7 0 1.8 1.5 1.8 1.5z" fill="#2B1FA6"/><path d="M84 103.4c-2.3-.5-4.5-1.9-4.4-4v-.1c.1-2.1 2.6-3.2 4.8-3.5 3.4-.4 4.5 3.8 5 4-.6.4-2.2 4.3-5.5 3.6z" fill="#00717D"/><path d="M86.8 99.8s-2.1 2.3-3.7 2.2c-1.6 0-2.8-1.2-2.8-2.6.1-1.3 1.5-2.3 3-2.2 1.7 0 3.5 2.6 3.5 2.6z" fill="#DEB366"/><path d="M85.7 99.7s-1.9 1.7-3 1.7-2-1-2-2 1.1-1.7 2.2-1.7c1.2 0 2.8 2 2.8 2z" fill="#0084FF"/><path d="M84.4 99.6s-1.1 1.3-1.8 1.2-1.3-.6-1.2-1.3c0-.7.6-1.3 1.3-1.3.8.1 1.7 1.4 1.7 1.4z" fill="#2B1FA6"/><path d="M102.9 118c-2.2-1.2-4-3.3-3.2-5.5v-.1c1-2.2 4-2.7 6.5-2.3 3.8.5 3.4 5.2 4 5.7-.9.1-4.1 3.8-7.3 2.1z" fill="#00B5A9"/><path d="M107.3 114.9s-3.1 1.8-4.8 1.3-2.6-2.1-2-3.5c.6-1.3 2.4-2 4.1-1.5s2.7 3.7 2.7 3.7z" fill="#DEB366"/><path d="M106.2 114.5s-2.7 1.3-3.9 1-1.8-1.6-1.3-2.6c.4-1 1.7-1.6 2.9-1.3 1.2.4 2.3 3 2.3 3z" fill="#0084FF"/><path d="M104.8 114s-1.6 1-2.4.8-1.1-1-.8-1.7c.3-.8 1.1-1.2 1.9-1 .8.3 1.3 2 1.3 2z" fill="#2B1FA6"/><path d="M91.5 114c-2-1-3.7-3-2.9-5v-.1c.9-2 3.7-2.5 6-2.1 3.5.5 3.1 4.7 3.6 5.2-.7.1-3.7 3.5-6.7 2z" fill="#008777"/><path d="M95.6 111.2s-2.9 1.7-4.4 1.2-2.4-2-1.8-3.2 2.2-2 3.7-1.4c1.6.5 2.5 3.4 2.5 3.4z" fill="#DEB366"/><path d="M94.6 110.8s-2.5 1.2-3.6.9-1.6-1.4-1.2-2.4 1.6-1.4 2.7-1c1 .2 2 2.5 2 2.5z" fill="#0084FF"/><path d="M93.3 110.4s-1.5 1-2.2.7-1-1-.8-1.6c.3-.7 1.1-1 1.8-.8.7.2 1.2 1.7 1.2 1.7z" fill="#2B1FA6"/><path d="M78.3 110c-1.9-1-3.4-2.7-2.7-4.6.8-1.9 3.3-2.3 5.4-2 3.2.5 2.9 4.4 3.3 4.8-.6.2-3.3 3.2-6 1.8z" fill="#00717D"/><path d="M82 107.5s-2.7 1.5-4 1-2.2-1.7-1.7-2.9c.4-1.1 2-1.7 3.4-1.2 1.4.4 2.3 3 2.3 3z" fill="#DEB366"/><path d="M81 107.2s-2.2 1-3.2.7c-1-.3-1.5-1.3-1.2-2.1.4-1 1.5-1.4 2.5-1 1 .3 2 2.4 2 2.4z" fill="#0084FF"/><path d="M79.9 106.8s-1.4.8-2 .6a1 1 0 0 1-.8-1.5c.3-.6 1-1 1.7-.7.6.2 1 1.6 1 1.6z" fill="#2B1FA6"/><path d="M70.4 118.1l6 1.5v-.3l-7.3-2.8c-1-5-.9-9.7-.3-12.3-1-3.1.4-8 1.8-11.7l-5.7 2.7c2 2.4 2.3 5.9.8 9a25 25 0 0 1 2 12.5l-3.7 3.9-3.7-3.9a25 25 0 0 1 2-12.5 8.2 8.2 0 0 1 .8-9l-5.7-2.7c1.4 3.7 2.7 8.5 1.7 11.7.7 2.6.7 7.3-.3 12.3l-7.3 2.8.1.3 6-1.5c.2 0 .4.2.3.5l-2.9 5.1.3.2 4.5-5.4c.1-.1.3-.1.4 0l3.7 2.5h.1l3.8-2.5c0-.1.3-.1.4 0l4.5 5.4.3-.2-3-5.1c0-.3.2-.5.4-.5z" fill="#EDA800"/><linearGradient id="b" x1="59.5" x2="59.5" y1="96" y2="103.2" gradientUnits="userSpaceOnUse"><stop offset="0"/><stop stop-color="#17316E" offset=".4"/></linearGradient><path d="M63.1 98.6s-.2 4.4-1.1 5.2c-1 .7-2.1.7-3.1 0s-3-8.7-3-8.7l7.2 3.5z" fill="url(#b)"/><linearGradient id="c" x1="68.5" x2="68.5" y1="95" y2="103.8" gradientUnits="userSpaceOnUse"><stop offset="0"/><stop stop-color="#17316E" offset=".4"/></linearGradient><path d="M64.9 98.6s.2 4.4 1.1 5.2c1 .7 2.1.7 3.1 0s3-8.7 3-8.7l-7.2 3.5z" fill="url(#c)"/><path d="M65.7 33.7a1 1 0 0 0 0 1.4c.4.3 1 .3 1.4 0s.3-1 0-1.4-1-.4-1.4 0z"/><path d="M66.9 34.6a1 1 0 0 0-.7 1.2c.1.5.6.8 1.1.7.6-.1.9-.7.7-1.2a1 1 0 0 0-1.1-.7z"/><path d="M64.9 33.9a1 1 0 0 0 1.6 1 1 1 0 0 0-1.6-1z"/><path d="M62.7 34.8l1 .7c-.6 3.4-3 4.1-5.8 3.6l.8-.7H60c1.3-.3 2.1-1.3 2-2.3l-.2-.4 1-1z" fill="#D9D9D9"/><linearGradient id="d" x1="45.2" x2="61.9" y1="36.6" y2="36.6" gradientUnits="userSpaceOnUse"><stop stop-color="#E9F5CE" offset="0"/><stop stop-color="#E5F3CD" offset=".1"/><stop stop-color="#D8EECA" offset=".3"/><stop stop-color="#C3E5C6" offset=".4"/><stop stop-color="#A6D9C0" offset=".5"/><stop stop-color="#80C9B9" offset=".7"/><stop stop-color="#51B6B0" offset=".8"/><stop stop-color="#1BA0A5" offset=".9"/><stop stop-color="#0596A1" offset="1"/></linearGradient><path d="M62 34.4l-1.2.4c-.4-.2-1-.2-1.6-.1-1 .2-1.6.8-1.9 1.5l-3.7 1.6.8 1.6-1.2-.5c-3.3-1.3-5.9-2-8-1.1 1.2-2.2 4.7-3.4 8.4-3.2v2c2-.5 4.2-4 8.3-2.2z" fill="url(#d)"/><path d="M61.9 36c.2 1.1-.6 2.2-1.9 2.4h-1.3l3-2.7.2.4z"/><path d="M61.8 35.7l-3 2.7a2 2 0 0 1-1.5-1.4v-.8l3.5-1.4c.4.2.8.5 1 .9z"/><path d="M60.8 34.8l-3.4 1.5c.2-.8.9-1.4 1.8-1.6.6-.1 1.1 0 1.6.1z"/><path d="M53.6 34.6v2c2-.5 4.2-4 8.3-2.2l-1 .4c.3.2.7.5.9.9l1-1 1 .8L67 33c-5.5-2-10.9-2.6-13.4 1.6z"/><linearGradient id="e" x1="63.8" x2="63.8" y1="32.5" y2="101.8" gradientUnits="userSpaceOnUse"><stop offset=".1"/><stop stop-color="#000506" offset=".2"/><stop stop-color="#011416" offset=".3"/><stop stop-color="#012D30" offset=".4"/><stop stop-color="#035055" offset=".5"/><stop stop-color="#047C84" offset=".7"/><stop stop-color="#0596A1" offset=".8"/><stop stop-color="#A9E022" offset="1"/></linearGradient><path d="M72.8 64.8c-1.7-4-3.5-8.2-4.2-12.5C67.3 43.8 67 33 67 33l-3.2 2.5c-.7 3.3-3 4.1-5.9 3.6l.8-.7a2 2 0 0 1-1.4-1.4v-.8l-3.6 1.4.7 1.8c3.9 2.4 4.7 7 4.3 12.9-.6 8.7-6.4 15.7-8 24a29 29 0 0 0 1.1 17.5c2.3 4.7 6.6 7.3 11.8 7.3 8.3 0 12.8-6 13.9-13.8.9-6.5-1-12.9-3.3-18.9l-1.4-3.6z" fill="url(#e)"/><path d="M66.3 30.7a1.4 1.4 0 0 0 2 2 1.4 1.4 0 0 0-2-2z"/><path d="M68 32c-.8.2-1.2 1-1 1.7.2.8 1 1.2 1.7 1 .7-.2 1.2-1 1-1.7-.2-.7-1-1.2-1.7-1z"/><path d="M65 31a1.4 1.4 0 1 0 2.5 1.4 1.4 1.4 0 0 0-2.4-1.5z"/><circle cx="60.4" cy="36.6" r="3.8" fill="#fff"/><circle cx="60.5" cy="36.5" r="1.6"/><path d="M66.4 35l-.3-.1c.5-1.2.6-2.5.8-3.8.3-2 .5-4 2-5.7l.2.2c-1.4 1.7-1.6 3.7-1.9 5.6-.2 1.2-.3 2.5-.8 3.8z"/><path d="M66 35v-.3c1.3.1 2.6 0 3.8-.3 2-.3 4-.6 6 .2v.3c-2.1-.8-4-.5-6-.2-1.2.2-2.5.4-3.8.3z"/><path d="M73.9 34.1c.3-.4 2.1-.5 2.6-.6.8-.1 1.5 0 1.4 1.3-.3 2.5-2.8-.1-3.9-.3" fill="#0ff"/><path d="M66.2 34.9v-.3c1.3-.2 2.4-.8 3.6-1.3 1.8-.9 3.6-1.7 5.9-1.5v.3c-2.3-.2-4 .6-5.8 1.4-1.1.6-2.3 1.1-3.7 1.4z"/><path d="M73.6 31.9c.2-.5 2-1 2.4-1.3.7-.4 1.4-.5 1.6.8.4 2.5-2.7.6-3.7.8" fill="#0ff"/><path d="M66 35l-.1-.3a15 15 0 0 0 3-2.5c1.4-1.3 2.9-2.7 5.1-3.2v.3c-2 .5-3.5 1.9-4.9 3.2-1 .9-1.9 1.8-3 2.4z"/><path d="M72.1 29.8c0-.6 1.5-1.6 1.9-2 .6-.6 1.2-.9 1.8.2 1.2 2.3-2.4 1.5-3.3 2" fill="#0ff"/><path d="M66.5 34.8l-.2-.2c.8-1 1.4-2.1 2-3.3.8-1.7 1.7-3.5 3.5-4.8l.2.2c-1.8 1.3-2.7 3-3.5 4.8a15 15 0 0 1-2 3.3z"/><path d="M70.3 27.9c-.2-.5.9-2 1-2.5.4-.8.9-1.3 1.8-.4 2 1.7-1.6 2.2-2.3 3m-3-.8c-.3-.5.2-2.2.2-2.7 0-.9.4-1.5 1.6-1 2.3 1-1 2.6-1.4 3.6" fill="#0ff"/></svg>