<svg viewBox="0 0 128 128" xmlns="http://www.w3.org/2000/svg"><path d="M31.3 10.8c9.3 0 19.5 6.8 20.4 17.9 2 21-19.7 19.5-27 32A29.3 29.3 0 0 0 23.2 85c1.7-4.8 10.8-6.2 22.6-6.2 18.9 0 44.7 3.8 57.6 3.8h2.1c-1.5 3.3-5.5 4.6-6.1 5.1 2 1.1 4 1.5 5.8 1.5 5.5 0 9.2-3.8 9.3-3.9-.5 5.3-5.5 10-11.5 10.4a8 8 0 0 0 6 2.3c1.5 0 3-.3 4.5-.8 2.7-.9 5.4-2.9 8-5.5.2 12.8-17.6 26.7-39.4 28-7 .4-19.5 1.5-31.4 1.5-10.8 0-21.1-.9-26.3-3.9A36.6 36.6 0 0 1 6.7 84c.8-32.7 19.7-32.5 32.7-47 4.4-4.9 1-14.4-5.7-14.4a8 8 0 0 0-2.7.5c-4.5 1.7-8 6.5-8.1 6.6l-1 .5-.4.3-1 .7-.2.5c-1.9 3.5-8.8 8-12 8-.7 0-1.1-.1-1.4-.5C5.7 37 9.4 36 13 31.1c1-2 1.9-3.4 1.8-3.8-.5-2-.7-4.2 1-5.2 0-.5.3-1 .5-1.4 2.2-4.9 7.4-9.8 14.7-9.9h.2m0-2H31a18.7 18.7 0 0 0-17 12c-1 1-2.1 2.9-1.2 6.5l-1 1.6-.5 1a28 28 0 0 1-3.8 4c-1.8 1.7-3.9 3.5-2.5 6.3 0 .2.2.4.4.5.4.5 1.3 1 2.8 1 4 0 11.7-4.9 13.8-9a8.3 8.3 0 0 0 1-.8l.8-.4.8-.7a18 18 0 0 1 7-5.7c.7-.2 1.4-.4 2-.4 2.1 0 4 1.4 5 3.7 1 2.2 1 5.3-.8 7.4a65 65 0 0 1-12 9.7c-9.9 7-20.4 14.3-21 38.5a39 39 0 0 0 18.6 35.2c4.8 2.7 13.7 4 27.3 4 9.6 0 19.6-.6 27-1.1l4.5-.3c10.7-.7 21-4.3 29-10.1s12.4-13 12.2-20a2 2 0 0 0-2-2 2 2 0 0 0-1.4.7 18.4 18.4 0 0 1-7.2 5c-1.3.5-2.6.7-3.8.7 4.1-2.1 7.1-6 7.6-10.5a2 2 0 0 0-.6-1.6 2 2 0 0 0-2.8 0 12 12 0 0 1-9 3.3c1.3-1 2.5-2.2 3.2-3.8a2 2 0 0 0-1.8-2.9h-2.1c-5.8 0-14.4-.7-23.5-1.5-11.1-1-23.7-2.2-34.2-2.2-11 0-18 1.3-21.8 4a27.2 27.2 0 0 1 2.6-19.1c2.4-4.3 7-6.8 11.7-9.5C46 47.8 55 42.8 53.7 28.5a20.8 20.8 0 0 0-7.8-14.4 23.4 23.4 0 0 0-14.6-5.3z" fill="#98C7E3"/><linearGradient id="a" x1="64" x2="64" y1="18" y2="122.3" gradientUnits="userSpaceOnUse"><stop stop-color="#fff" offset=".1"/><stop stop-color="#FCFDFE" offset=".4"/><stop stop-color="#F2F8FC" offset=".6"/><stop stop-color="#E1EFF7" offset=".8"/><stop stop-color="#CBE4F2" offset="1"/></linearGradient><path d="M31 10.8c9.5 0 19.8 6.8 20.8 17.9 1.8 21-19.8 19.5-27 32A29 29 0 0 0 23.2 85c4.7-12.8 63-1.7 82.3-2.5-1.5 3.4-5.5 4.7-6.1 5.2 8.5 4.5 15-2.4 15.1-2.4-.5 5.3-5.5 10-11.4 10.4 2.8 3 6.9 2.7 10.3 1.5 2.7-.9 5.4-2.9 8-5.5.2 12.8-17.6 26.7-39.4 28-13.4.8-46.8 3.9-57.7-2.4A36.6 36.6 0 0 1 6.7 84c.8-32.7 19.7-32.5 32.7-47 5-5.5 0-16.9-8.4-13.9-4.5 1.7-8 6.5-8.1 6.6-6.2 3.7-9.2-3.2-6.5-9 2.2-5 7.5-9.9 14.7-10z" clip-rule="evenodd" fill="url(#a)" fill-rule="evenodd"/><path d="M25 20.8c-.6.5-1.3 1.2-1.3 1.4-.2 3.1-3.3.6-2.7 5.6.3 1 1.9 2 .6 2.8-2.8 2.5-5 0-6.4-2.3-.7-2-1.2-5 .7-6.2.3 0 1 .5 1.6.7 1.1.5 1.9.8 2.4.7 1.2-.4 0-2.7 3-2.1.1 0 1 .3 1.4-.2l.6-.4z" clip-rule="evenodd" fill="#1A1A1A" fill-rule="evenodd"/><path d="M21.8 22c-.2 0-.6.8 0 .7.1 0 .2-.7 0-.7z" clip-rule="evenodd" fill="#fff" fill-rule="evenodd"/><path d="M15 27.3c0 .4-.9 1.9-2 3.8-3.5 4.9-7.2 5.8-6 8.2 2 2.1 11.2-3.4 13.4-7.5l.2-.5c0-1.3-1.4-.6-2.7-1-1-.2-2.4-3.7-2.9-3z" clip-rule="evenodd" fill="#FFA8A8" fill-rule="evenodd"/><path d="M115.5 66.9c-22.7-13.7-51.7-5.9-74.2 4l-5 2.3c-4.1 2-11.8 5-12.4 10.2-.2 2.2 1.2 4.4 2.7 6.1 5.8 6.5 14.3 9 22.5 10.7a108 108 0 0 0 24.1 2.8c5.5 0 25-.1 20.4-10.4 13.5.2 19.3-5.8 10-12.4 2.9 2 13 .3 15.7-1.2.8-.4 1.6-1 2-1.8 1.8-3.5-3.1-8.7-5.8-10.3z" fill="#F8FCFF" stroke="#98C7E3" stroke-linejoin="round" stroke-miterlimit="10" stroke-width="2.2"/><path d="M89.4 62c6 2.7 9.8 8.5-17.1 10.7 21.4.7 13.8 6-4.7 7.3 24.5 4-11.2 10-30.6 9.1 5.2 1.8 47.4 1.3 41.8-8.1 9.3-1.4 13-5.8 6.5-8.8 20.4-2.2 9.9-9.6 4.2-10.2z" fill="#98C7E3"/></svg>