<svg viewBox="0 0 128 128" xmlns="http://www.w3.org/2000/svg"><linearGradient id="a" x1="-18.4" x2="120.5" y1="49.4" y2="49.4" gradientTransform="rotate(45 40.4 73)" gradientUnits="userSpaceOnUse"><stop stop-color="#F4E9D1" offset="0"/><stop stop-color="#DCC699" offset="1"/></linearGradient><path d="M38.1 5.8a15 15 0 0 0-20.2 12c-.5 3.4-7.3-.3-11.9 7-7 10.9 4.3 21.9 15.6 20.7 5.5-.5 8.4-1.2 12.5 3L86 100.3c.7.7-7.9 9.7 2 20.2 4 4.2 9.6 4.6 14.8 1.5 6.6-4 7.3-10 7.3-10s13.3-2.5 15.1-15c1.1-8-5.3-13.3-15.3-12.7-5.8.3-11.5 1.7-11.5 1.7L43.7 30.3a38 38 0 0 0 3.5-6.9A15 15 0 0 0 38.1 6z" fill="url(#a)"/><path d="M32.9 8a11.5 11.5 0 0 1 9.3 4.5 12 12 0 0 1 2.1 10c-.2.6-1 2.5-2 4.3a6.6 6.6 0 0 0 1.2 7.6l52.7 53.7 1.2 1.2L99 89c.1 0 5.5-1.3 11-1.7h1.4c4 0 7.3 1.2 9.2 3.3a7.3 7.3 0 0 1 1.5 6c-1.4 10.2-12.2 12.5-12.7 12.6l-2.1.3-.3 2.2c0 .2-.7 4.7-5.9 7.8-1.7 1-3.5 1.6-5.3 1.6a8 8 0 0 1-5.8-2.6c-6.3-6.7-3.5-12.3-2-15.3.7-1.2 1.7-3.3 0-5L36.3 46.3c-3-3-5.9-4.2-9.6-4.2a38.6 38.6 0 0 0-5.4.4H20A14 14 0 0 1 8 36a9 9 0 0 1 .5-9.6c2-3 4.2-3.3 6.5-3.7 1.9-.3 5.3-.8 5.8-4.5A12 12 0 0 1 32.8 8m0-3a15 15 0 0 0-15 12.8c-.4 3.5-7.2-.2-11.8 7-6.6 10.4 3.3 20.9 14 20.9h1.6c2-.3 3.6-.5 5.1-.5 2.6 0 4.8.7 7.4 3.4L86 100.2c.7.7-7.9 9.8 2 20.2 2.2 2.4 5 3.6 8 3.6a14 14 0 0 0 6.8-2c6.6-4 7.3-10 7.3-10s13.3-2.5 15.1-15c1-7.6-4.7-12.8-13.7-12.8h-1.6c-5.8.4-11.5 1.8-11.5 1.8L45.6 32.3a3.6 3.6 0 0 1-.6-4.1l2.2-4.8A15 15 0 0 0 38.1 6a15 15 0 0 0-5.2-1z" fill="#BDAA86"/><g fill="none" stroke="#BDAA86" stroke-miterlimit="10" stroke-width="3"><path d="M14.6 21l13.8-2.1"/><path d="M14.6 21l13.8-2.1" stroke-linecap="round" stroke-linejoin="round"/></g><path d="M108.4 111.5l1.3-10" fill="none" stroke="#BDAA86" stroke-linecap="round" stroke-linejoin="round" stroke-miterlimit="10" stroke-width="3"/></svg>