<svg viewBox="0 0 128 128" xmlns="http://www.w3.org/2000/svg" xmlns:xlink="http://www.w3.org/1999/xlink"><path d="M76.1 38.5l-4.2-.2s-1.7-.1-2.5-1.4c-2.2-3.4-2.3-11.7-2-18 0-1 .6-9 9.4-9l.7.1c3 .1 5.4 1.1 7 2.9 2.4 2.7 2.2 6.5 2.2 6.9-.3 6.4-1.2 14.6-3.7 17.7-1 1.2-2.6 1.2-2.7 1.2l-4.2-.2z" fill="#232020"/><path d="M76.8 10.3h.7c3 .1 5.2 1 6.7 2.8a9.9 9.9 0 0 1 2.2 6.7c-.4 9-1.7 15.2-3.6 17.6-.9 1-2.5 1-2.4 1l-4.3-.2L72 38s-1.6-.2-2.3-1.3c-1.7-2.5-2.4-8.9-2-17.8 0-.9.6-8.6 9.1-8.6m0-.6c-9.4 0-9.7 9-9.7 9.2-.3 6-.2 14.7 2 18.2a4 4 0 0 0 2.8 1.5l4.2.2 4.2.2c.1 0 1.9 0 3-1.3 2.5-3.2 3.4-11.8 3.7-17.9 0-.1.7-9.6-9.4-10l-.8-.1z" fill="#1F1D1B"/><linearGradient id="a" x1="76.2" x2="52.1" y1="38.9" y2="98.1" gradientTransform="rotate(4.5 77.1 63.9)" gradientUnits="userSpaceOnUse"><stop stop-color="#BD161D" offset="0"/><stop stop-color="#D21920" offset=".2"/><stop stop-color="#E11B22" offset=".4"/><stop stop-color="#EA1C24" offset=".6"/><stop stop-color="#ED1C24" offset="1"/></linearGradient><path d="M52.1 98c-4 0-6-2.2-6.8-3.6a6.4 6.4 0 0 1-.4-6.2c1.3-2.5 1.6-4.5 1-6.3-.8-1.8-2.6-3-5.7-4-1.7-.5-2.8-1.2-3.2-2.2-.3-.6-.2-1.1-.1-1.4l19-14 21.1-19 12-1.4a87.4 87.4 0 0 1-10.4 44.5c-4.2 5.5-6.5 11-7.3 13.1-1-.5-2.3-.7-3.8-.7a17 17 0 0 0-5.3 1l-4.6-1.6-.3.2-1.6 1c-1.3.4-2.5.6-3.6.6z" fill="url(#a)"/><path d="M88.3 40.8a86 86 0 0 1-10.4 43c-3.8 5.1-6 10.1-7 12.7a9 9 0 0 0-3.4-.5c-2.2 0-4.3.6-5.3 1l-4-1.4-.6-.3-.7.4-1.6 1c-1.1.3-2.2.5-3.2.5-3.7 0-5.4-2-6.1-3.2a5.7 5.7 0 0 1-.4-5.4c1.5-2.7 1.8-5 1-7-.9-2-2.9-3.5-6.1-4.4-1.5-.5-2.4-1-2.8-1.7l-.1-.7 18.7-14h.1l21-18.8 11-1.2m1.4-1.8l-13.1 1.4-21.3 19.2-19.2 14.2s-1.6 3.3 3.8 5c5.4 1.5 6.6 4.4 4.2 9-2.2 4 .5 11 7.9 11 1.2 0 2.5-.2 4-.6l1.6-1.1 4.5 1.5c.2 0 2.6-1 5.3-1 1.5 0 3 .3 4.3 1.1 0 0 2.3-6.9 7.4-13.8a88 88 0 0 0 10.6-46z" fill="#A8141A"/><path d="M91 15s2.8 1.5 2.8 3L96 29l-7.7 15c-.5 3-1.3 7.2-2.6 12.1-1.4 5.1-3 8.1-3 8.1L67 59.6 66 52a3.3 3.3 0 0 1-3.1.9l-.5-.3c-1.8-.5-3.4-2.3-2.9-4.2L64.1 36a3.5 3.5 0 0 1 2.5-2.5c2-1 4.8-1.4 7.6-1.4l2.2.1a24 24 0 0 1 9.2 3l3.4-6.8c.3-.4-.5-10.5-.5-10.5-.1-1.5 1-2.7 2.5-2.7m0-1c-2 0-3.6 1.7-3.6 3.7v.1l.7 10-3 5.8A24.5 24.5 0 0 0 74.3 31c-1.9 0-5.4.2-8 1.5a4.5 4.5 0 0 0-3 3l-4.6 12.6c-.7 2.5 1.2 4.7 3.3 5.4l.4.2.3.1a4.1 4.1 0 0 0 2.7-.1l.7 6c0 .5.3.8.7 1l15.8 4.6h.2c.4 0 .7-.2.9-.5 0-.1 1.8-3.1 3.2-8.3 1-4 1.9-8 2.5-12l7.7-15a1 1 0 0 0 0-.6l-2.2-11c-.1-2-2.8-3.4-3.3-3.7l-.5-.1z" fill="#1278C9"/><linearGradient id="b" x1="65" x2="60.6" y1="41.4" y2="51" gradientTransform="rotate(4.5 77.1 63.9)" gradientUnits="userSpaceOnUse"><stop stop-color="#2A82FF" offset="0"/><stop stop-color="#1599FF" offset=".4"/><stop stop-color="#05A9FF" offset=".7"/><stop stop-color="#00AFFF" offset="1"/></linearGradient><path d="M59.2 48.5L63.8 36c.5-2 2.4-3 4.2-2.5 1.7.5 2.8 2.4 2.2 4.3l-3.5 12.7c-.5 1.8-2.4 3-4.2 2.5l-.5-.4c-1.8-.5-3.4-2.2-2.8-4.1z" fill="url(#b)"/><linearGradient id="c" x1="43.8" x2="62.9" y1="45.7" y2="45.7" gradientTransform="matrix(.9897 .0591 -.0616 1.0326 5 -6)" gradientUnits="userSpaceOnUse"><stop stop-color="#ED1C24" offset="0"/><stop stop-color="#EA1C24" offset=".4"/><stop stop-color="#E11B22" offset=".6"/><stop stop-color="#D21920" offset=".8"/><stop stop-color="#BD161D" offset="1"/></linearGradient><path d="M63.8 54a17 17 0 0 1-7.1-3 28.7 28.7 0 0 1-10-9.9c-.9-2.1-1.1-3.8-.5-4.8.6-1 1.7-1.3 2.5-1.3h.8c.9 0 1.5.1 1.8.5.6.7.4 2.3 0 4.4l-.1 1.7c0 .4 0 .7.4 1.1a8 8 0 0 0 4.6 2.3c2 .2 3.4.5 4.4 1.3 1.7 1.2 2.6 3.4 3.2 7.8z" fill="url(#c)"/><path d="M49.5 35.5c.5 0 1.1 0 1.4.3.5.6.2 2.2 0 4l-.3 1.7c0 .5.1 1 .5 1.6 1 1 3.3 2.4 5.1 2.5a8 8 0 0 1 4 1v.1h.1c1.5 1 2.3 3 2.8 6.7a27.8 27.8 0 0 1-15.9-12.5c-.8-2-1-3.5-.5-4.4.4-.7 1.4-1 2-1h.8m0-1.1h-.8c-2.8.2-4.6 2.2-2.4 7a29 29 0 0 0 10 10.1c2.7 1.7 5.5 3 8.1 3.2C64 50 63 47.4 61 45.9a8.7 8.7 0 0 0-4.7-1.4c-1.8-.1-4.7-1.9-4.6-2.8.6-4.4 1.6-7.3-2.2-7.3z" fill="#A8141A"/><linearGradient id="d" x1="72.2" x2="97.8" y1="67.8" y2="67.8" gradientTransform="rotate(-3.7 445.5 324.5)" gradientUnits="userSpaceOnUse"><stop stop-color="#00AFFF" offset="0"/><stop stop-color="#0CA2FF" offset=".4"/><stop stop-color="#2A82FF" offset="1"/></linearGradient><path d="M67.5 80.9c-.8 4.7-7.2 19.3-7.2 19.3l4.9 2.5L75.3 83s-4.7-1-7.8-2z" fill="url(#d)"/><path d="M72.4 60.4l-.1-.1-.9-.6-1.5-1.3-1.5-1.3a49.7 49.7 0 0 0 4.6 3.1l-.6.2z" fill="#D91A3D"/><linearGradient id="e" x1="74.4" x2="74.4" y1="32.3" y2="63.9" gradientTransform="rotate(4.5 77.1 63.9)" gradientUnits="userSpaceOnUse"><stop stop-color="#00AFFF" offset="0"/><stop stop-color="#04A8FC" offset=".2"/><stop stop-color="#1095F3" offset=".6"/><stop stop-color="#2476E4" offset="1"/><stop stop-color="#2574E3" offset="1"/></linearGradient><path d="M64 36.4l2.7 23.3 16 4.7s1.7-3 3-8.1c2.7-10 3.3-17 3.3-17 .3-3.5-7.4-6.8-12.7-7.2-5.4-.4-12 .6-12.4 4.3z" fill="url(#e)"/><linearGradient id="f" x1="73.8" x2="73.8" y1="32.6" y2="37.2" gradientTransform="matrix(.9003 .0705 -.0915 1.1676 12.7 -11.6)" gradientUnits="userSpaceOnUse"><stop stop-color="#BD161D" offset="0"/><stop stop-color="#D21920" offset=".2"/><stop stop-color="#E11B22" offset=".4"/><stop stop-color="#EA1C24" offset=".6"/><stop stop-color="#ED1C24" offset="1"/></linearGradient><path d="M78 37.3h-1c-8.2-.7-9.3-4.2-9.4-5.3 1.7-.6 2.9-1 5-1l4.3.3c4.5.6 6.8 2 7.6 2.6-.4.9-2 3.4-6.6 3.4z" fill="url(#f)"/><path d="M72.7 31.5l4.2.3c3.7.5 6 1.6 6.9 2.2-.6 1-2.2 2.7-5.9 2.7H77c-7-.5-8.5-3.2-8.8-4.4 1.4-.5 2.5-.8 4.5-.8m0-1c-2.5 0-3.8.4-5.6 1 0 0-.4 5.5 9.8 6.2h1c6 0 7.2-4 7.2-4s-2.3-2.2-8.1-2.9l-4.3-.3z" fill="#A8141A"/><path d="M76.5 35.5h-.4a2 2 0 0 1-1.5-.7 2 2 0 0 1-.6-1.5l.2-2.5 4.8.3-.1 2.6c-.1 1-1 1.9-2.2 1.9h-.2z" fill="#3C2B24"/><path d="M74.5 31.1l4.2.3-.2 2.2c0 1-.8 1.7-1.8 1.7H76c-1-.1-1.9-1-1.8-2l.2-2.2m-.6-.6l-.2 2.8c0 1.3 1 2.4 2.3 2.5h.7c1.3 0 2.3-.9 2.4-2.1l.2-2.9-5.4-.3z" fill="#291B16"/><defs><path id="g" d="M76.6 30.6l-2.7-.1-.2 2.8c0 1.3 1 2.4 2.3 2.5h.5c1.4.1 2.6-.8 2.6-2.1l.2-2.9-2.7-.2z"/></defs><clipPath id="h"><use xlink:href="#g"/></clipPath><g clip-path="url(#h)"><path d="M76.5 33.2c-2 0-2.7-.7-2.7-.7l-.2 2.9c-.1 1.3 1 2.4 2.3 2.5h.5c1.3 0 2.5-.9 2.6-2.2l.2-2.8s-.8.5-2.8.3z"/></g><path d="M62.4 83.3l-3.4 5c-1 1.6-5 5.1-6.9 4.3s.3-6.5 1.3-8l3.5-5a3.4 3.4 0 0 1 5.5 3.7z" fill="#91001F" stroke="#590B0D" stroke-miterlimit="10" stroke-width="1.1"/><linearGradient id="i" x1="210.8" x2="236.5" y1="-3.9" y2="-3.9" gradientTransform="matrix(.5008 -.7888 .8442 .536 -44.2 250.7)" gradientUnits="userSpaceOnUse"><stop stop-color="#2A82FF" offset="0"/><stop stop-color="#0CA2FF" offset=".6"/><stop stop-color="#00AFFF" offset="1"/></linearGradient><path d="M75.4 64.8L64.5 80.6a5.4 5.4 0 0 1-6.4 1.7c-1.5-.8-2.6-4-1.4-6 3.7-5.7 10-17 10-17l8.7 5.5z" fill="url(#i)"/><linearGradient id="j" x1="266.9" x2="292.7" y1="6.8" y2="6.8" gradientTransform="matrix(.272 -.8939 .9567 .2911 -9.3 324.7)" gradientUnits="userSpaceOnUse"><stop stop-color="#2A82FF" offset="0"/><stop stop-color="#0CA2FF" offset=".6"/><stop stop-color="#00AFFF" offset="1"/></linearGradient><path d="M81.9 66.6L75 85.2c-.6 2.2-3.2 3.4-5.3 2.8s-3.7-2.6-3-4.9A471 471 0 0 0 72 63.5l10 3z" fill="url(#j)"/><path d="M66.6 59.2l8.2 5.2 7 2.2L75 85.2c-.3 1-1 2-2 2.4l-7.8 15-4.9-2.4s4.2-9.7 6.3-15.8l.1-1.3a264 264 0 0 0 2.6-9.5l-4.8 7a5.2 5.2 0 0 1-4.3 2.1 5 5 0 0 1-2-.4c-1.6-.7-2.7-4-1.5-5.9 3.7-5.8 10-17.2 10-17.2m0-1h-.3a1 1 0 0 0-.7.5c0 .2-6.1 11.4-9.8 17.2a5.3 5.3 0 0 0-.5 4.2 5 5 0 0 0 2.3 3.1 6 6 0 0 0 2.5.5 6 6 0 0 0 5.1-2.5L67 79a147.8 147.8 0 0 1-7.5 20.9c-.2.5 0 1 .5 1.3l4.8 2.5h.5c.3 0 .7-.1.9-.5l7.6-14.8c1.1-.6 2-1.6 2.3-2.8L82.9 67v-.8a1 1 0 0 0-.7-.5l-6.9-2.1-8-5.1-.6-.2z" fill="#1278C9"/><path d="M93.8 18c0-1.5-2.8-2.9-2.8-2.9a2.7 2.7 0 0 0-2.6 2.8s.8 10 .6 10.4l-4 7.5 3.3 8.4 7.8-15L93.8 18z" fill="#04AAFF"/><linearGradient id="k" x1="74.4" x2="89" y1=".3" y2="22" gradientTransform="matrix(.9233 .0745 -.069 .9075 11.8 -2.7)" gradientUnits="userSpaceOnUse"><stop stop-color="#ED1C24" offset="0"/><stop stop-color="#EA1C24" offset=".4"/><stop stop-color="#E11B22" offset=".6"/><stop stop-color="#D21920" offset=".8"/><stop stop-color="#BD161D" offset="1"/></linearGradient><path d="M96.8 25.2H96c-1.9 0-5.9-.4-7.8-1 0-.9-.5-3.9-1.7-10.5-.8-4.3-2.1-6-4.5-6h-1l-1.2.1H79c-1.4-.4-2.2-.8-2.4-1.4-.3-.6.2-1.6.8-2.8v-.1c.5-1 1-1.4 1.8-1.4 1.5 0 4 1.6 7.6 4.7a36 36 0 0 1 10.6 18.4h-.5z" fill="url(#k)"/><path d="M79.1 2.6c1 0 3 .8 7.2 4.6a34 34 0 0 1 10.4 17.5H96c-1.7 0-5.4-.3-7.3-.9A231 231 0 0 0 87 13.6c-.8-4.5-2.3-6.4-5-6.4h-1.3l-1 .2-.7-.1c-1.6-.4-2-.9-2.1-1-.2-.5.3-1.5.7-2.4l.1-.2c.4-1 .9-1.1 1.3-1.1m0-1c-1 0-1.7.7-2.2 1.6-1.1 2.4-2 4 1.9 5l.9.2 2.4-.2c1.6 0 3.1.8 4 5.6 1.5 8.1 1.8 10.8 1.8 10.8a33.8 33.8 0 0 0 8.9 1.1h1.1c-1.6-6.4-4-13-10.9-19.2-4-3.6-6.3-5-7.9-5z" fill="#A8141A"/><linearGradient id="l" x1="54.4" x2="68.3" y1="125.8" y2="97.8" gradientTransform="rotate(4.5 77.1 63.9)" gradientUnits="userSpaceOnUse"><stop stop-color="#B00026" offset="0"/><stop stop-color="#BA0526" offset=".3"/><stop stop-color="#D61225" offset=".7"/><stop stop-color="#ED1C24" offset="1"/></linearGradient><path d="M49 125.8c-.8 0-1.5-.4-2.2-1.2-2-2.1 1.7-6.5 5.2-10.8a30 30 0 0 0 6-9.1c0-.1 1.1-4.5 2.3-6.8 1.2-1.1 4-3.4 5.5-3.4.4 0 .6 0 .8.3.6.8 1 3-.5 9.5a44.9 44.9 0 0 0-7.7 9.6l-1 1.6c-2.6 4.9-5.7 10.3-8.5 10.3z" fill="url(#l)"/><path d="M65.8 95c.2 0 .2.1.3.2.3.3 1 2-.5 8.8a45 45 0 0 0-7.7 9.6l-1 1.6c-2.5 4.5-5.6 10-8 10-.5 0-1-.3-1.7-1-1.5-1.7 2.1-6.1 5.3-10 2.7-3.4 5.4-6.6 6.1-9.4 0 0 1-4.3 2.2-6.5 1-1 3.7-3.2 5-3.2m0-1.3c-1.6 0-3.9 1.9-6 3.7-1.2 2.3-2.4 7-2.4 7-1.6 6.3-14.9 16.2-11 20.5.8 1 1.7 1.4 2.5 1.4 3.4 0 6.8-6.5 10-12.2 2.3-3.9 5.6-7.6 7.8-9.6 1.8-8.2 1-10.8-.9-10.8z" fill="#A8141A"/><linearGradient id="m" x1="72.3" x2="83.4" y1="34.3" y2="34.3" gradientTransform="rotate(1.3 -342 -30.2)" gradientUnits="userSpaceOnUse"><stop stop-color="#BD161D" offset="0"/><stop stop-color="#D21920" offset=".2"/><stop stop-color="#E11B22" offset=".4"/><stop stop-color="#EA1C24" offset=".6"/><stop stop-color="#ED1C24" offset="1"/></linearGradient><path fill="url(#m)" d="M70.8 40.6l11 .8-6 6z"/><path d="M71.6 41l9.4.8-5.1 5-4.3-5.7M70 40l5.8 8 7-7L70 40z" fill="#FFC003"/><path d="M65.8 32.2c1.9-1 1.7-.7 1.7-.7l2 4.1s-1.7-1-2.8-2.6c-.6-1-2.2.4-2.2.4s.4-.7 1.3-1.2z" fill="#A8141A"/><path fill="#C62828" stroke="#A8141A" stroke-miterlimit="10" d="M82.3 67.8L64.9 61l1.2-3.1 17.4 6.8z"/><path d="M76.7 61.5c.2.3.2.7 0 1l-.6 1.9-.3.6c-.4.2-.9.3-1.3.2l-2.7-1c-.5-.1-.7-.4-.8-.8-.1-.3-.1-.5 0-.8l.6-1.8c.2-.4.4-.6.7-.8h1l2.7 1c.3 0 .5.2.7.5z" fill="#FFC003" stroke="#F7931E" stroke-miterlimit="10"/><linearGradient id="n" x1="77.1" x2="77.1" y1="34.6" y2="15.5" gradientTransform="rotate(3.3 119.6 23.6)" gradientUnits="userSpaceOnUse"><stop stop-color="#5C4037" offset="0"/><stop stop-color="#63463D" offset=".2"/><stop stop-color="#6D5047" offset=".5"/><stop stop-color="#70534A" offset="1"/></linearGradient><path d="M76.5 32.3c-.6 0-1.2-.2-1.9-.5a9.6 9.6 0 0 1-5.5-9.7c.4-6.8 4.6-9.2 8-9.2a7.7 7.7 0 0 1 5.9 2.6c1.5 1.9 2.2 4.4 2 7.5a9.6 9.6 0 0 1-6.6 9l-1.7.3h-.2z" fill="url(#n)"/><path d="M77.1 13.2h.5c3.5.2 7.5 2.9 7.1 9.8-.3 5.2-3.6 8-6.4 8.8l-1.6.2h-.2a5 5 0 0 1-1.8-.5 9.3 9.3 0 0 1-5.3-9.4c.2-4.1 2.4-9 7.7-9m0-.5c-4 0-8 3-8.3 9.5a10 10 0 0 0 5.7 10 6 6 0 0 0 2 .5h.2c.6 0 1.1 0 1.7-.3a10 10 0 0 0 7-9.3c.3-6.7-3.5-10.2-7.8-10.4h-.5z" fill="#4A2F27"/><path d="M77.8 25.6l-1.8-.1c-.2 0-.3.2-.3.4s.4.7 1.1.7 1-.4 1.2-.6c0-.2 0-.3-.2-.4z" fill="#33251F"/><g fill="#1A1717"><ellipse transform="rotate(-86.7 73 23)" cx="73" cy="23" rx="1.3" ry="1.2"/><ellipse transform="rotate(-86.7 81 23.5)" cx="81.1" cy="23.5" rx="1.3" ry="1.2"/><path d="M74.9 20.9c-.2-.3-.7-.8-1.8-.9s-1.6.4-1.8.7c-.1.1-.1.3 0 .4 0 0 .2.1.4 0s.7-.2 1.4-.1c.7 0 1 .3 1.3.3h.5v-.4zm8.1.4c-.2-.3-.7-.8-1.8-.8s-1.6.3-1.8.6c-.1.2-.1.3 0 .4 0 .1.2.2.4.1l1.4-.2c.7 0 1 .3 1.3.4h.5v-.5z"/></g><path d="M78.8 27.7c-.8.4-3.4.3-4.1-.2-.5-.3-1 0-.8.5.2.4 1.5 1.4 2.7 1.5 1.3 0 2.7-.8 3-1.2.1-.4-.3-.8-.8-.6z" fill="#1A1717"/><defs><path id="o" d="M68.2 30.2V17.5c.2-4.2 3.6-7.1 8.9-7.1h1.3c4.4 0 8.1 4 7.9 8.2L85 31l-16.8-.9z"/></defs><clipPath id="p"><use xlink:href="#o"/></clipPath><g clip-path="url(#p)"><radialGradient id="q" cx="243.8" cy="-10.8" r="12" gradientTransform="rotate(3.3 -159.2 -2009.9) scale(.796)" gradientUnits="userSpaceOnUse"><stop stop-color="#444140" offset="0"/><stop stop-color="#232020" offset="1"/></radialGradient><path d="M86.7 19.7s.8-8.8-9-9.4-10 8.3-10 8.3-.5 11.4.1 13 1.8 1.4 1.8 1.4-.2-6.6 0-9.7c0-.8 0-3.5 1.5-3.7 5.6-1 9-3.7 9-3.7.7 1.8 3.1 3.7 4 4.4.7.6.5 2.9.4 3.8l-1.3 9.7s1.2.2 2-1.3c.8-1.4 1.5-12.8 1.5-12.8z" fill="url(#q)"/></g></svg>