<svg viewBox="0 0 128 128" xmlns="http://www.w3.org/2000/svg"><radialGradient id="a" cx="-93" cy="31.9" r="62.1" gradientUnits="userSpaceOnUse"><stop stop-color="#6D4C41" offset="0"/><stop stop-color="#543930" offset="1"/></radialGradient><path d="M-49.5 109.1c7.3-9.2 8-22 8-36.2 0-28-24-50.7-53.5-50.7S-148.5 45-148.5 73c0 14.2.6 27 8 36.3h.2a90.8 90.8 0 0 1 3.5-24.7c3-.5 5.2-3 5.2-6 0-1.1-.4-2.1-1-3 .8.2 1.6.4 2.4.4 2.9 0 5.3-2 6-4.6a6 6 0 0 0 5.5 3.3c3.3 0 6-2.5 6.2-5.6.5 3 3 5.2 6.3 5.2 2.4 0 4.5-1.4 5.6-3.4 1 2.1 3.1 3.6 5.7 3.6a6 6 0 0 0 5.5-3.3c1 1.9 3.1 3.1 5.5 3.1a6 6 0 0 0 6.1-5.2c.3 3.1 3 5.6 6.3 5.6a6 6 0 0 0 5.5-3.3 6.2 6.2 0 0 0 9 3.8 6 6 0 0 0-.8 3c0 2.9 2 5.2 4.6 6 2 8.3 3.8 18.3 3.7 25z" fill="url(#a)"/><path d="M-141.7 99.6l-.2-3.7c-.2-1.4 0-2.3-1.3-3.3-1-.8-2.5-1-3.8-.8a4 4 0 0 0-2.6 5.2 4 4 0 0 0 2.3 2.4c.5.2 1 .3 1.6.2-.8 0-1.3 2-1.3 2.5 0 1 .5 1.9 1.2 2.5l2.3 1.3c.7.4 1.4 1 1.8 1.8-.4-1 0-2.7 0-3.6v-4.5zm94.2 0c0-1.2 0-2.4.2-3.7.1-1.4 0-2.3 1.2-3.3 1-.8 2.5-1 3.8-.8 1.1.3 2 1 2.4 2a4 4 0 0 1 .2 3.2 4 4 0 0 1-2.3 2.4c-.5.2-1 .3-1.5.2.7 0 1.2 2 1.2 2.5 0 1-.5 1.9-1.2 2.5-.6.5-1.4.9-2.2 1.3s-3.5 2.5-3.8 3.2c.4-.9 1-5.9 1-6.8-.2-1.5.9-1.2 1-2.7z"/><path d="M-147.3 92.4a5 5 0 0 0 4.2-5.2c-.2-2-1.8-3.6-3.8-4a4.7 4.7 0 0 0 3.3-5c-.3-2.5-2.7-4.4-5.4-4.1s-4.6 2.5-4.2 5.2c.2 2 1.6 3.5 3.5 4-2 .7-3.3 2.6-3 4.9a4.7 4.7 0 0 0 5.4 4.2z"/><path d="M-148.5 74c1.3 0 2.5-.5 3.4-1.3 1-.8 1.6-1.8 1.6-3 0-.6 0-1.1-.3-1.7-.1-.5-.4-1-.8-1.5s-1-1-1.8-1.3a5 5 0 0 0 3.7-2.2c.3-.5.5-1 .6-1.6a5.2 5.2 0 0 0-3.8-5.5 4.7 4.7 0 0 0-3.7.6 5 5 0 0 0-2 3.3 5 5 0 0 0 0 2c.2.6.5 1.2 1 1.7.3.5.8.9 1.4 1.2a4.5 4.5 0 0 0-4 4.3 5 5 0 0 0 1.3 3.7c.8.8 2 1.3 3.4 1.3z"/><path d="M-136.4 40.1c-1-.8-2.4-1-3.6-.8a5.5 5.5 0 0 0-3.2 2.3 4.9 4.9 0 0 0-.4 3.8c.2.6.5 1.2 1 1.7-.9-.2-1.7-.2-2.4 0a5 5 0 0 0-3 2.5c-.2.7-.5 1.3-.5 2 0 .6.2 1.3.4 1.9a4.5 4.5 0 0 0 2.7 2.6c1.2.4 2.6.4 3.7 0 .5-.2 1-.5 1.4-1a3 3 0 0 0 1-1.2 4 4 0 0 0 .2-3.4 5 5 0 0 0-1.1-2c.9.3 1.8.3 2.7 0 1.1-.2 2-1 2.7-1.9.6-1 .7-2.2.4-3.4a4.8 4.8 0 0 0-2-3z"/><path d="M-125 26.7c-1.4-.2-2.8 0-3.8 1a5 5 0 0 0-1.8 3.4c0 .6 0 1.3.3 1.9-1.7-1.2-4-1-5.8.5-2 2-2 5.2 0 6.9 2.1 1.7 5 1.8 6.7.1 1.4-1.2 1.7-3.4.9-5.3 1.8 1.3 4.3 1.4 5.8 0 .9-.7 1.4-1.7 1.6-3 .1-1.1-.1-2.4-.9-3.6a4.5 4.5 0 0 0-3-2zm18.1-7a5.1 5.1 0 0 0-5.5.8 4.8 4.8 0 0 0-1.4 3.5c-.5-.7-1-1.2-1.8-1.5a4 4 0 0 0-1.9-.4 5.2 5.2 0 0 0-4.6 3.2c-.4 1.2-.3 2.6.4 3.7s1.6 2 2.7 2.4c1.2.4 2.4.5 3.4 0a4 4 0 0 0 1.4-1c.4-.4.7-1 1-1.5.2-.6.4-1.4.3-2.2a4.9 4.9 0 0 0 5.4 2c1.2-.5 2-1.4 2.5-2.4.6-1 .8-2.4.4-3.7a4.5 4.5 0 0 0-2.3-3z"/><path d="M-87.4 19a5 5 0 0 0-1.6-1 4.6 4.6 0 0 0-5.4 1.2c-.4.4-.7 1-1 1.6a4.7 4.7 0 0 0-8.2-1.3c-.7 1-1 2.3-.9 3.6.3 1.3 1 2.4 1.9 3.2a4.5 4.5 0 0 0 3.2 1c2 0 3.5-1.6 4-3.6a6 6 0 0 0 1.5 2.3 4 4 0 0 0 3.1 1.3l.9-.2.8-.2a5.3 5.3 0 0 0 3-4.3c0-1.4-.4-2.6-1.3-3.6z"/><path d="M-71.6 22a4 4 0 0 0-2-.1c-.7 0-1.3.3-1.9.6s-1 .8-1.3 1.3c0-2.1-1.4-4.1-3.6-4.6a4.6 4.6 0 0 0-3.8.6c-1 .7-1.8 1.9-2 3.2s.1 2.6.8 3.5c.6 1 1.5 1.8 2.7 2.1 1.1.3 2.3 0 3.3-.6a6 6 0 0 0 1.7-1.5c0 1 .1 1.9.5 2.6.3.5.7 1 1.1 1.3.4.4 1 .7 1.5 1a5 5 0 0 0 3.4-.4c1.1-.6 2-1.4 2.6-2.7 1-2.5-.3-5.3-3-6.2z"/><path d="M-53 36.1a4.6 4.6 0 0 0-1.8-3.3 5 5 0 0 0-3.7-1c-.6.1-1.2.4-1.7.8a4.8 4.8 0 0 0-5.7-6.1 4.5 4.5 0 0 0-3 2.3 5.4 5.4 0 0 0-.4 3.6c.2 1.2.9 2.1 1.9 2.8 1.5 1 3.7.9 5.4-.4-.3 1-.5 1.9-.3 2.8a4 4 0 0 0 1.6 2.8c1.8 1.5 4.8 1.2 6.6-.7 1-1 1.3-2.3 1.2-3.6z"/><path d="M-50.9 53.7c.4.5.8.9 1.3 1.2.4.4 1 .6 1.5.8 1.2.3 2.5.2 3.7-.4a4.6 4.6 0 0 0 1.7-6.7 4.4 4.4 0 0 0-5-2c.5-.7.9-1.4 1-2.2.3-1.2 0-2.6-.9-3.7a5 5 0 0 0-3.3-2 5 5 0 0 0-3.5 1.2c-1 1-1.5 2.1-1.7 3.3-.2 1.2 0 2.4.8 3.3a4.7 4.7 0 0 0 5.1 1.5 5 5 0 0 0-1.2 2.4c-.2 1.1-.1 2.3.5 3.3z"/><path d="M-44.8 55.5a5.2 5.2 0 0 0-2.8 2.4 5 5 0 0 0-.4 3.4c.3 1 1.1 2 2.1 2.6.6.3 1.4.6 2.1.7-.8.4-1.5 1-2 1.7l-.7 1.6v1.7c.2 1.1.9 2 1.9 2.8 1 .7 2.2 1.2 3.5 1a4 4 0 0 0 3.2-1.8c.8-1 1.1-2.3 1-3.7-.1-.8-.5-1.4-.9-2a5 5 0 0 0-1.4-1.2c-.5-.4-1.1-.6-1.7-.7.7-.3 1.3-.8 1.7-1.5.8-1.1.9-2.5.5-3.8a4.6 4.6 0 0 0-6.1-3.2zm4.5 27.2c2-.5 3.5-2.3 3.6-4.5 0-2.6-2.2-4.7-4.8-4.7-2.7 0-4.9 2-5 4.6 0 2 1.4 3.8 3.4 4.5A4.7 4.7 0 0 0-47 87c0 2.4 2.1 4.5 4.8 4.7 2.6.2 5-2 5-4.7 0-2.1-1.4-3.8-3.2-4.4z"/><path d="M-204.5 109.2c-7.3-9.2-8-22-8-36.3 0-28 24-50.7 53.5-50.7S-105.5 45-105.5 73c0 14-.7 26.6-7.7 35.8" fill="none" stroke="#3F2720" stroke-dasharray="0.9,7" stroke-linecap="round" stroke-miterlimit="10" stroke-width="8"/><radialGradient id="b" cx="-316" cy="27.7" r="66.1" gradientUnits="userSpaceOnUse"><stop stop-color="#6D4C41" offset="0"/><stop stop-color="#543930" offset="1"/></radialGradient><path d="M-263.4 82.7c2-.5 3.5-2.3 3.5-4.5 0-2.6-2.1-4.7-4.8-4.7h.5c1.3-.2 2.5-.8 3.2-1.8.7-1 1.1-2.4.9-3.8 0-.7-.4-1.4-.8-2a5 5 0 0 0-1.4-1.2c-.5-.4-1.1-.6-1.8-.6.7-.4 1.4-1 1.8-1.6.7-1 .8-2.4.5-3.8a4.5 4.5 0 0 0-2.4-3 4.6 4.6 0 0 0-3.7-.2l.4-.2a4.6 4.6 0 0 0 1.7-6.7 4.4 4.4 0 0 0-5-2c.5-.7.8-1.4 1-2.1.2-1.3 0-2.7-.9-3.8-.9-1.1-2.1-1.8-3.3-2s-2.6.4-3.5 1.3c0-.2.2-.2.3-.4.9-1 1.3-2.2 1.1-3.5a4.6 4.6 0 0 0-1.8-3.3 5 5 0 0 0-3.8-1c-.6.2-1.2.4-1.7.8a4.8 4.8 0 0 0-5.7-6.1 4.5 4.5 0 0 0-2.9 2.2l.2-.4c1.1-2.5-.3-5.2-3-6.2a4 4 0 0 0-2-.2l-1.8.6c-.6.3-1 .8-1.4 1.3 0-2-1.3-4-3.5-4.6a4.6 4.6 0 0 0-3.8.6 5 5 0 0 0-2 3.2v-.5c.1-1.3-.3-2.5-1.2-3.4a5 5 0 0 0-1.6-1.2c-.6-.2-1.3-.3-2-.3-1.4 0-2.7.7-3.5 1.6a5 5 0 0 0-.9 1.6 4.7 4.7 0 0 0-8.2-1.3c-.8 1-1.1 2.3-.9 3.6v-.4a4.6 4.6 0 0 0-2.4-3 5.1 5.1 0 0 0-5.6.9 4.8 4.8 0 0 0-1.3 3.4 6.5 6.5 0 0 0-1.8-1.5c-.6-.2-1.3-.4-2-.4a5.2 5.2 0 0 0-4.5 3.2c-.4 1.3-.3 2.6.3 3.7l-.2-.3a4.5 4.5 0 0 0-3.1-2c-1.3-.2-2.7.1-3.8 1a5 5 0 0 0-1.7 3.4c0 .7 0 1.3.3 1.9-1.7-1.1-4-1-5.8.5-2 2-2 5.2 0 7l-.3-.4c-1.1-.8-2.4-1-3.6-.7-1.3.2-2.4 1-3.2 2.2a4.9 4.9 0 0 0-.4 3.9c.1.6.5 1.1.9 1.6-.8-.2-1.6-.2-2.4 0a5 5 0 0 0-2.9 2.5c-.3.7-.5 1.3-.5 2a4.8 4.8 0 0 0 3 4.5l-.4-.2a4.7 4.7 0 0 0-3.7.6 5 5 0 0 0-2 3.3 5 5 0 0 0 0 2c.2.7.5 1.2.9 1.7s.9 1 1.5 1.2a4.5 4.5 0 0 0-4 4.3 5 5 0 0 0 1.2 3.7c.9.9 2.1 1.4 3.5 1.4h-.5a4.7 4.7 0 0 0-4.3 5.2c.2 2 1.7 3.6 3.5 4a4.7 4.7 0 0 0-3 4.9 4.7 4.7 0 0 0 4.6 4.2c-.5.4-1 .8-1.2 1.4a4 4 0 0 0-.2 3.2 4 4 0 0 0 2.3 2.4c.5.2 1 .3 1.5.2-.7 0-1.2 2-1.2 2.5 0 1 .5 1.9 1.2 2.5.6.5 1.5.9 2.2 1.3s1.5 1 1.8 1.8v-.3l1.3 1.8h.1a90.8 90.8 0 0 1 3.6-24.7 6 6 0 0 0 4.3-9 6.2 6.2 0 0 0 8.3-4.1 6 6 0 0 0 5.5 3.2c3.3 0 6-2.5 6.2-5.6a6.3 6.3 0 1 0 11.8 1.9c1 2 3.2 3.5 5.8 3.5a6 6 0 0 0 5.5-3.3 6 6 0 0 0 5.4 3.2c3.2 0 5.8-2.3 6.2-5.3.3 3.1 3 5.6 6.3 5.6 2.4 0 4.4-1.3 5.5-3.2a6.2 6.2 0 0 0 9 3.7 6 6 0 0 0-.8 3c0 2.9 2 5.2 4.6 6 2 8.3 3.8 18.3 3.7 25l.3-.4c.8-1 2.8-2.4 3.5-2.8l2.2-1.3c.7-.6 1.2-1.6 1.2-2.5 0-.6-.5-2.4-1.3-2.5.6 0 1.1 0 1.6-.2a4 4 0 0 0 2.3-2.4 4 4 0 0 0-.2-3.2c-.5-1-1.3-1.7-2.4-2h-.3.4a4.7 4.7 0 0 0 1.9-9.1z" fill="url(#b)"/><path d="M-258.6 77.8c0-1.7-.6-3.4-1.6-4.7a8 8 0 0 0 1.3-5.8c-.1-1-.6-2-1.3-3.1l-.8-1c.7-1.5.8-3.3.3-5.2a7.4 7.4 0 0 0-3.2-4.5l.3-1.4v-.2a7.8 7.8 0 0 0-1.3-4.5c-.8-1.3-2-2.3-3.3-3a8 8 0 0 0-1.6-5 8 8 0 0 0-4.6-2.8 7.4 7.4 0 0 0-3-5.4 7.9 7.9 0 0 0-4.2-1.5c-.5-1.5-1.5-3-3-4a7.6 7.6 0 0 0-5.4-1.2 8 8 0 0 0-6.8-4.4 7.8 7.8 0 0 0-2.2.3 7.4 7.4 0 0 0-4.4-2.8l-1.9-.2c-1.2 0-2.4.3-3.4.8a8 8 0 0 0-2.4-1.6h-.1c-.9-.4-1.9-.6-2.9-.6h-.3c-1.5 0-3 .5-4.1 1.4A7.9 7.9 0 0 0-323 16h-.4a7 7 0 0 0-3.3 1 8 8 0 0 0-1.7 1.4 7.8 7.8 0 0 0-6-.4h-.1a7.2 7.2 0 0 0-3.6 2.6 8 8 0 0 0-1.9-.3h-.2a8 8 0 0 0-6.9 4.5 7.5 7.5 0 0 0-6 1.8 8 8 0 0 0-2.3 3.6 8 8 0 0 0-4.7 2l-.2.1a8 8 0 0 0-2.2 4.8 8 8 0 0 0-5 3.5l-.1.2a9 9 0 0 0-1 4.3 8 8 0 0 0-4.5 6.8c0 .8.1 1.5.3 2.3a8 8 0 0 0-3.2 8.3v.2l.4 1.2-1.2 1.5a8 8 0 0 0 .6 8.2 7.4 7.4 0 0 0-1.6 5.6c.2 1.4.8 2.7 1.6 3.8a7 7 0 0 0-1 4.7 7.6 7.6 0 0 0 3 5.4c-.4 1.2-.3 2.6.2 3.9v.1a7 7 0 0 0 2.4 3.1v.7c0 1.8.8 3.6 2.1 4.7l2.1 1.3.6.3c.4.2.6.5.6.5 1.2 2.1 2.6 2.8 2.6 2.8v-4.2c-.3-.8-1-1.3-1.8-1.7s-1.5-.7-2.1-1.3a3.2 3.2 0 0 1-1.2-2.4c0-1.3 1-2.4 1-2.4-.4 0-.9 0-1.3-.2-1-.4-1.8-1.2-2.2-2.3a4 4 0 0 1 .2-3.2c.3-.5.7-1 1.1-1.3a4.5 4.5 0 0 1-4.4-4.1c-.2-2.2 1-4 3-4.7a4.6 4.6 0 0 1 .7-9s-1.6-.2-2.9-1.3a4.5 4.5 0 0 1-1.2-3.6c0-.7.2-1.3.5-1.9.4-.6.8-1 1.3-1.4a4 4 0 0 1 2-.9c-.5-.2-1-.6-1.4-1.1-.4-.5-.7-1-.9-1.7a5 5 0 0 1 0-2c.3-1.3 1-2.5 2-3.1a4.6 4.6 0 0 1 3.6-.6c.1 0-1.5-.8-2.2-2.3a4.5 4.5 0 0 1 .2-3.8 4.8 4.8 0 0 1 2.8-2.5 4.3 4.3 0 0 1 2.3 0c-.4-.4-.7-1-1-1.5-.3-1.2-.2-2.6.5-3.8a5 5 0 0 1 4-2.3c.9 0 1.8.3 2.6.9 0 0-2.2-3.5.3-6.4a5 5 0 0 1 3.2-1.3c.8 0 1.7.3 2.4.8l-.3-1.8c0-1.2.7-2.4 1.7-3.3a4.3 4.3 0 0 1 3.6-1c1.2.2 2.3.8 3 1.9.1.1-.4-2 0-3.3a5 5 0 0 1 4.5-3.1 4.4 4.4 0 0 1 3.6 1.9c-.2-.6 0-1.3.2-1.8s.5-1.1 1-1.6c.4-.5 1-.7 1.7-1a4.7 4.7 0 0 1 3.7.2c1 .5 2 1.6 2.2 2.8 0 .2 0-1.7 1-3a4.6 4.6 0 0 1 3.3-1.8h.2c2.2 0 3.9 1.3 4.5 3a4 4 0 0 1 .8-1.5c.8-.9 2-1.5 3.4-1.5h.2c.6 0 1.2 0 1.7.3a5 5 0 0 1 1.6 1 5 5 0 0 1 1.2 3.5c0 .1.9-2 1.9-2.7a4 4 0 0 1 2.4-.7c.4 0 .8 0 1.2.2 2.3.4 3.6 2.4 3.5 4.4.4-.5.8-1 1.4-1.2a4.6 4.6 0 0 1 3.7-.5c2.6 1 4 3.6 2.9 6-.1.2.8-1 2.6-1.7.3-.2.7-.2 1.1-.2a5 5 0 0 1 2.6.8 4.6 4.6 0 0 1 1.8 5.3 4 4 0 0 1 2.4-.8c1 0 2 .4 2.8 1 1.2.8 1.8 2 1.9 3.3.1 1.2-.3 2.4-1.2 3.4 0 0 1.7-1 2.7-1l.4.1a5 5 0 0 1 3.3 1.9 4.4 4.4 0 0 1-.2 5.6 4.4 4.4 0 0 1 1.9 0c1.2.1 2.3.9 3 2a5.2 5.2 0 0 1 .8 2.8c0 .4 0 .7-.2 1a4.5 4.5 0 0 1-2.3 2.8l1.3-.2a4.4 4.4 0 0 1 4.3 3.4c.3 1.4.2 2.7-.5 3.7-.4.7-1 1.2-1.7 1.5a4.4 4.4 0 0 1 3 1.9c.4.5.8 1.1.8 1.8a5 5 0 0 1-.8 3.7c-.7 1-3.2 1.7-3.3 1.7 0 0 4.4.8 4.4 4.7 0 2.1-1.5 3.8-3.5 4.3 1.8.6 3 2.3 3 4.3 0 2.5-2 4.6-4.4 4.6-.2 0 1.3.4 1.8 1.9.4 1 .6 2 .2 3.1-.4 1.1-1.2 2-2.2 2.3-.4.2-.9.2-1.3.2 0 0 1.7 2.7-.2 4.8-1 1.2-3.8 2-4.5 2.5l-.2 5.4s.7-1.3 1.5-2a38.8 38.8 0 0 1 5.1-3.5 6.2 6.2 0 0 0 2.2-5.5c1-.7 1.9-1.8 2.4-3V97c.6-1.6.6-3.3 0-4.8l.4-.5a7.6 7.6 0 0 0 1-9.4 7.2 7.2 0 0 0 1.8-4.5z" fill="#3F2720"/><path d="M128 0h-4c-.6 0-1 .5-1 1s.5 1 1 1h4V0zm-12 0h-4c-.6 0-1 .5-1 1s.5 1 1 1h4c.6 0 1-.5 1-1s-.5-1-1-1zm-12 0h-4c-.6 0-1 .5-1 1s.5 1 1 1h4c.6 0 1-.5 1-1s-.5-1-1-1zM92 0h-4c-.6 0-1 .5-1 1s.5 1 1 1h4c.6 0 1-.5 1-1s-.5-1-1-1zM80 0h-4c-.6 0-1 .5-1 1s.5 1 1 1h4c.6 0 1-.5 1-1s-.5-1-1-1zM68 0h-4c-.6 0-1 .5-1 1s.5 1 1 1h4c.6 0 1-.5 1-1s-.5-1-1-1zM56 0h-4c-.6 0-1 .5-1 1s.5 1 1 1h4c.6 0 1-.5 1-1s-.5-1-1-1zM44 0h-4c-.6 0-1 .5-1 1s.5 1 1 1h4c.6 0 1-.5 1-1s-.5-1-1-1zM32 0h-4c-.6 0-1 .5-1 1s.5 1 1 1h4c.6 0 1-.5 1-1s-.5-1-1-1zM20 0h-4c-.6 0-1 .5-1 1s.5 1 1 1h4c.6 0 1-.5 1-1s-.5-1-1-1zM8 0H4c-.6 0-1 .5-1 1s.5 1 1 1h4c.6 0 1-.5 1-1s-.5-1-1-1zM1 3a1 1 0 0 0-1 1v4c0 .6.5 1 1 1s1-.5 1-1V4c0-.6-.5-1-1-1zm0 12a1 1 0 0 0-1 1v4c0 .6.5 1 1 1s1-.5 1-1v-4c0-.6-.5-1-1-1zm0 12a1 1 0 0 0-1 1v4c0 .6.5 1 1 1s1-.5 1-1v-4c0-.6-.5-1-1-1zm0 12a1 1 0 0 0-1 1v4c0 .6.5 1 1 1s1-.5 1-1v-4c0-.6-.5-1-1-1zm0 12a1 1 0 0 0-1 1v4c0 .6.5 1 1 1s1-.5 1-1v-4c0-.6-.5-1-1-1zm0 12a1 1 0 0 0-1 1v4c0 .6.5 1 1 1s1-.5 1-1v-4c0-.6-.5-1-1-1zm0 12a1 1 0 0 0-1 1v4c0 .6.5 1 1 1s1-.5 1-1v-4c0-.6-.5-1-1-1zm0 12a1 1 0 0 0-1 1v4c0 .6.5 1 1 1s1-.5 1-1v-4c0-.6-.5-1-1-1zm0 12a1 1 0 0 0-1 1v4c0 .6.5 1 1 1s1-.5 1-1v-4c0-.6-.5-1-1-1zm0 12a1 1 0 0 0-1 1v4c0 .6.5 1 1 1s1-.5 1-1v-4c0-.6-.5-1-1-1zm0 12a1 1 0 0 0-1 1v4h2v-4c0-.6-.5-1-1-1zm11 3H8c-.6 0-1 .5-1 1s.5 1 1 1h4c.6 0 1-.5 1-1s-.5-1-1-1zm12 0h-4c-.6 0-1 .5-1 1s.5 1 1 1h4c.6 0 1-.5 1-1s-.5-1-1-1zm12 0h-4c-.6 0-1 .5-1 1s.5 1 1 1h4c.6 0 1-.5 1-1s-.5-1-1-1zm12 0h-4c-.6 0-1 .5-1 1s.5 1 1 1h4c.6 0 1-.5 1-1s-.5-1-1-1zm12 0h-4c-.6 0-1 .5-1 1s.5 1 1 1h4c.6 0 1-.5 1-1s-.5-1-1-1zm12 0h-4c-.6 0-1 .5-1 1s.5 1 1 1h4c.6 0 1-.5 1-1s-.5-1-1-1zm12 0h-4c-.6 0-1 .5-1 1s.5 1 1 1h4c.6 0 1-.5 1-1s-.5-1-1-1zm12 0h-4c-.6 0-1 .5-1 1s.5 1 1 1h4c.6 0 1-.5 1-1s-.5-1-1-1zm12 0h-4c-.6 0-1 .5-1 1s.5 1 1 1h4c.6 0 1-.5 1-1s-.5-1-1-1zm12 0h-4c-.6 0-1 .5-1 1s.5 1 1 1h4c.6 0 1-.5 1-1s-.5-1-1-1zm7-3a1 1 0 0 0-1 1v4h2v-4c0-.6-.5-1-1-1zm0-12a1 1 0 0 0-1 1v4c0 .6.5 1 1 1s1-.5 1-1v-4c0-.6-.5-1-1-1zm0-12a1 1 0 0 0-1 1v4c0 .6.5 1 1 1s1-.5 1-1v-4c0-.6-.5-1-1-1zm0-12a1 1 0 0 0-1 1v4c0 .6.5 1 1 1s1-.5 1-1v-4c0-.6-.5-1-1-1zm0-12a1 1 0 0 0-1 1v4c0 .6.5 1 1 1s1-.5 1-1v-4c0-.6-.5-1-1-1zm0-12a1 1 0 0 0-1 1v4c0 .6.5 1 1 1s1-.5 1-1v-4c0-.6-.5-1-1-1zm0-12a1 1 0 0 0-1 1v4c0 .6.5 1 1 1s1-.5 1-1v-4c0-.6-.5-1-1-1zm0-12a1 1 0 0 0-1 1v4c0 .6.5 1 1 1s1-.5 1-1v-4c0-.6-.5-1-1-1zm0-12a1 1 0 0 0-1 1v4c0 .6.5 1 1 1s1-.5 1-1v-4c0-.6-.5-1-1-1zm0-12a1 1 0 0 0-1 1v4c0 .6.5 1 1 1s1-.5 1-1v-4c0-.6-.5-1-1-1zm0-12a1 1 0 0 0-1 1v4c0 .6.5 1 1 1s1-.5 1-1V4c0-.6-.5-1-1-1z"/><radialGradient id="c" cx="67.1" cy="28.9" r="65.3" gradientUnits="userSpaceOnUse"><stop stop-color="#6D4C41" offset="0"/><stop stop-color="#543930" offset="1"/></radialGradient><path d="M122.8 80.8v-1.1a4.5 4.5 0 0 0-4.3-4.6V75a4.5 4.5 0 0 0 4-5l-.1-1a4.6 4.6 0 0 0-4.5-4v-.2c2-.9 3.1-3.1 2.5-5.3l-.3-1c-.6-2-2.7-3.4-4.9-3.2l-.1-.3a4.4 4.4 0 0 0 1.3-5.6l-.5-1a4.7 4.7 0 0 0-5.4-2.2l-.3-.4a4.1 4.1 0 0 0 .2-5.6l-.7-.9a4.9 4.9 0 0 0-5.8-1.2l-.3-.3c1-1.8.7-4.1-1-5.5l-1-.7a4.9 4.9 0 0 0-5.8-.1l-.4-.3c.6-2-.3-4.1-2.3-5.1l-1-.5c-1.9-1-4.2-.5-5.6 1-.2-.2-.3-.3-.5-.3 0-2-1.3-3.8-3.3-4.4l-1.1-.3c-2-.6-4.1.2-5.2 1.8l-.7-.2c-.4-2-2-4-4-4.2l-1.2-.1a5.3 5.3 0 0 0-5.1 3.3H65a5 5 0 0 0-5-3.3l-1 .1c-2.2.2-4.1 2.2-4.6 4.2l-.8.2a4.8 4.8 0 0 0-5.2-1.8l-1 .3a4.6 4.6 0 0 0-3.4 4.4l-.5.2a4.8 4.8 0 0 0-5.7-1l-1 .6c-2 1-2.8 3.2-2.2 5.2l-.4.2a4.9 4.9 0 0 0-5.9 0l-.9.8a4.4 4.4 0 0 0-1 5.6l-.3.3c-2-1-4.4-.6-5.8 1.1l-.7.9a4.4 4.4 0 0 0 .2 5.7l-.2.3c-2.1-.6-4.5.3-5.5 2.3l-.5 1c-1 1.9-.4 4.2 1.4 5.5l-.1.3c-2.2-.2-4.4 1-5 3.2l-.3 1c-.7 2.2.5 4.5 2.6 5.3v.3a4.6 4.6 0 0 0-4.6 4l-.1 1a4.5 4.5 0 0 0 4 4.9 4.6 4.6 0 0 0-4.3 4.7v1A4.6 4.6 0 0 0 12 85v.1c-2.4.5-4 2.7-3.7 5 0 .4.8 4.4 4.5 4.9-2.4 1-2.4 3.8-1.3 5.9 1 1.8 6.3 6 7 6.7l1.2 1.6h.1a90.8 90.8 0 0 1 3.6-24.7 6 6 0 0 0 4.3-9 6.2 6.2 0 0 0 8.3-4.1 6 6 0 0 0 5.5 3.2c3.3 0 6-2.5 6.2-5.6a6.3 6.3 0 1 0 11.8 1.9c1 2 3.2 3.5 5.7 3.5s4.5-1.3 5.6-3.3a6 6 0 0 0 5.4 3.2c3.2 0 5.8-2.3 6.2-5.3a6.3 6.3 0 0 0 11.8 2.3 6.2 6.2 0 0 0 9 3.8 6 6 0 0 0-.8 3c0 2.9 2 5.2 4.6 6 2 8.3 3.8 18.3 3.6 25l1.6-2c1.5-1.5 5.4-4.7 6.3-6.2 1.2-2 1-4.8-1.2-6 2.2 0 4.1-1.5 4.5-3.7l.1-1a4.5 4.5 0 0 0-3.6-5V85c2.4 0 4.4-1.9 4.6-4.3z" fill="url(#c)"/><path d="M203.8 105.1a5 5 0 0 1-4.3 1.1 6 6 0 0 1-4-3.1c-.4-.8-.6-1.7-.6-2.6 0-.8 0-1.6.4-2.3a5.2 5.2 0 0 1 3.3-3 6.9 6.9 0 0 1 6.1 1.1c.5.4.9.9 1.2 1.4a5 5 0 0 1 .2 3.7c-.3 1.3-1 2.7-2.3 3.7z"/><path d="M199.3 95.5a5 5 0 0 1-4.5 0 5.9 5.9 0 0 1-2.4-8.3 5.5 5.5 0 0 1 3.8-2.5c1.5-.2 3 .1 4.3.9 1.3.7 2.2 1.8 2.5 3.2a5 5 0 0 1-.4 3.8 6.9 6.9 0 0 1-3.3 3z"/><path d="M196.7 84.7c-3.2.3-6-2.2-6.2-5.5a5.7 5.7 0 0 1 5.8-5.8c3.2 0 5.8 2.5 5.9 5.5 0 2.9-2.3 5.4-5.5 5.8z"/><path d="M196.8 74a7 7 0 0 1-4.3-1.3 5.7 5.7 0 0 1-1.8-4.3c-.1-1.8.8-3.4 1.9-4.4a5 5 0 0 1 4.2-1.3c1.6.2 3 1 4 2a5 5 0 0 1 1.4 3.7c.1 1.4-.4 2.5-1.4 3.5-1 1-2.4 1.9-4 2z"/><path d="M197.3 62.8a5.2 5.2 0 0 1-3.5-2.7 6 6 0 0 1-.6-3.5c0-.4.2-.9.4-1.3.3-.8.8-1.5 1.3-2.1s1.2-1 2-1.3c1.4-.5 3-.4 4.4.3s2.4 2 3 3.3c.2.6.4 1.3.4 2a4.3 4.3 0 0 1-.7 2.8l-.6.8-1.6 1.1c-1.3.7-2.9 1-4.5.6z"/><path d="M201.6 53a5.4 5.4 0 0 1-2.7-7.9c.4-.8 1-1.4 1.6-2 .7-.4 1.4-.7 2.2-.9 1.5-.3 3 0 4.3 1a6.6 6.6 0 0 1 2.6 5.7l-.2 1-.4.9a4 4 0 0 1-1.3 1.5c-.5.4-1.2.6-1.8.9-1.3.4-2.8.4-4.3-.2zm5.8-9.5a5.2 5.2 0 0 1-1.8-4 6 6 0 0 1 2-4.4c1.3-1 3-1.6 4.4-1.4 1.5.1 3 1 3.8 2.3a6 6 0 0 1 1.2 4.2 5 5 0 0 1-1.7 3.6 5 5 0 0 1-3.8 1.3 6.8 6.8 0 0 1-4-1.6z"/><path d="M215.7 36.7a5.4 5.4 0 0 1-.6-6.4c.3-.7 1-1.3 1.6-1.8 1.5-1 3.1-1.3 4.7-1 1.5.4 2.8 1.4 3.5 2.8s1 3 .6 4.4c-.1.7-.4 1.3-.7 1.9s-.8 1-1.4 1.5c-.6.4-1.2.6-1.9.7-.6.2-1.3.2-2 0a6.5 6.5 0 0 1-3.8-2zm9.5-5.9c-.7-1.5-.7-3.1 0-4.5s1.9-2.5 3.5-3a5.5 5.5 0 0 1 7.2 4.1c.3 1.6 0 3.1-.7 4.4-.7 1.2-1.7 2-3 2.6a6.3 6.3 0 0 1-7-3.6z"/><path d="M235.5 28c-.5-1.5-.3-3 .4-4.4a5.9 5.9 0 0 1 3.8-2.6 6 6 0 0 1 1.3-.2c.4 0 .8 0 1.2.2a6 6 0 0 1 2.1 1 5 5 0 0 1 2.2 3.8c.2 1.6-.3 3-1.1 4.3-.9 1.2-2 2-3.4 2.2-1.3.4-2.7 0-3.9-.7l-1.5-1.5c-.5-.6-.9-1.3-1-2z"/><path d="M246.6 26.3c0-1.6.6-3 1.7-4a6 6 0 0 1 4.4-1.5 6 6 0 0 1 4.1 2.2c1 1.2 1.3 2.8 1 4.4a6.6 6.6 0 0 1-2.4 3.8 4.9 4.9 0 0 1-3.8 1.1 5 5 0 0 1-3.5-1.8 6.7 6.7 0 0 1-1.6-4.2z"/><path d="M257.1 27.8c.2-1.6 1-3 2.2-3.9a5.8 5.8 0 0 1 4.5-1c1.7.4 3 1.4 3.9 2.7.8 1.3 1 3 .5 4.4a6.2 6.2 0 0 1-2.7 3.5 5.4 5.4 0 0 1-4 .8c-1.3-.3-2.5-1-3.3-2.2a6.6 6.6 0 0 1-1-4.3z"/><path d="M268 30.5a5.5 5.5 0 0 1 7.9-2.6c.7.4 1.4 1 1.9 1.6.4.6.7 1.4 1 2.1.3 1.5 0 3-1 4.4a6.3 6.3 0 0 1-5.6 2.6 4.4 4.4 0 0 1-3.5-1.9 6 6 0 0 1-1-1.8c-.3-1.3-.3-2.9.3-4.4z"/><path d="M277 36.1a6 6 0 0 1 3.6-2.7c.8-.2 1.6-.2 2.3 0 .8.1 1.6.5 2.3 1a5.5 5.5 0 0 1 1.1 8.2 6 6 0 0 1-4 2 5 5 0 0 1-4-.8c-1-.8-1.7-2-2-3.4-.2-1.3 0-2.8.8-4.2z"/><path d="M285.9 43c1.2-1 2.7-1.5 4.2-1.3a6 6 0 0 1 3.2 1.4l.8 1c1 1.5 1.4 3.1 1 4.6-.4 1.5-1.3 2.8-2.8 3.6s-3 .9-4.3.6-2.6-1-3.3-2l-.5-1a4.8 4.8 0 0 1-.4-3c.2-1.3.9-2.8 2-3.9z"/><path d="M291.6 52a5.4 5.4 0 0 1 6.5.2 7 7 0 0 1 2.2 4.4 6 6 0 0 1-.4 2.4c-.6 1.5-1.7 2.6-3.2 3s-3.1.5-4.5 0a5.7 5.7 0 0 1-3-2.6 4.2 4.2 0 0 1-.4-2.9c0-.3 0-.6.2-1a6.6 6.6 0 0 1 2.6-3.4zm4.6 10.2c1.5-.4 3.2-.1 4.4.8a6 6 0 0 1 .9 8.7 5.5 5.5 0 0 1-4 1.7c-1.7 0-3.1-.7-4.2-1.6-1.1-1-1.8-2-2-3.4 0-1.3.3-2.6 1.2-3.7 1-1.2 2.1-2 3.7-2.5z"/><path d="M296.9 72.9c3.2-.3 6 2 6.2 5.2.3 3.3-2.3 6-5.5 6a7 7 0 0 1-4.2-1.5 6 6 0 0 1-1.9-3.8c-.2-3 2.2-5.6 5.4-6zM297 84.1a6 6 0 0 1 4 2c.9 1.3 1.4 2.9 1 4.6s-1.2 3.1-2.5 4c-1.3.8-3 1-4.4.5a6.8 6.8 0 0 1-3.6-2.7c-.7-1.1-1.1-2.4-.9-3.8s1-2.5 2.2-3.4a6.3 6.3 0 0 1 4.2-1.2z"/><path d="M294.7 94.5c1.6.4 2.9 1.2 3.6 2.6.8 1.3 1 3 .4 4.8a7 7 0 0 1-1.5 2.3c-.6.6-1.3 1-2 1.3a5 5 0 0 1-4.6-.5 7.1 7.1 0 0 1-3-6.4c0-.3 0-.6.2-.9a5 5 0 0 1 2.5-2.6c1.3-.6 2.8-.9 4.4-.6z"/><path d="M124.8 80.8c.3-2.1-.5-4.2-1.5-5.4a.8.8 0 0 1 0-1 7.1 7.1 0 0 0 1.2-4.5 7 7 0 0 0-2.4-5.3.8.8 0 0 1-.2-1c.7-1.3 1.1-3.4.6-5a7.2 7.2 0 0 0-3.5-4.4.8.8 0 0 1-.4-1c.5-1.5.4-3.7-.3-5.2-1.1-2.4-2.8-3.1-4.4-3.6a.8.8 0 0 1-.5-.9 8 8 0 0 0-1.3-5c-1.3-2-3.5-2.6-5.2-2.8a.8.8 0 0 1-.7-.7 8.2 8.2 0 0 0-2-4.6c-1.5-1.6-4.4-2-6-1.8a.8.8 0 0 1-.9-.6 7.7 7.7 0 0 0-3-4 7.2 7.2 0 0 0-6.3-.6c-.3 0-.7-.1-.9-.4-.8-1.4-1.3-2.5-3.6-3.4-3-1.2-4.7-.2-6.2.5-.3.1-.7 0-1-.3a6.6 6.6 0 0 0-4-3c-3.8-.8-5.1.6-6.6 1.7-.2.2-.6.2-1 0-1.6-1.1-3-2.2-6-2-3.4.4-3.6 1.9-4.9 3.4-.2.3-.6.4-1 .3a7.9 7.9 0 0 0-6.2-.8c-2.3.7-2.9 2.2-3.7 3.6a1 1 0 0 1-1 .4 8.4 8.4 0 0 0-5.7.4c-2 1.1-3 2.7-3.5 4.2-.1.4-.4.6-.8.6-1.7-.2-3.9 0-5.2 1a7.7 7.7 0 0 0-2.9 5.4c0 .4-.3.7-.7.7-1.6.2-3.9.9-4.9 2.3a8.5 8.5 0 0 0-1.6 5.6c0 .3-.1.7-.5.8-1.6.5-3.1 1-4.2 3-.9 1.8-1 4.3-.5 5.9 0 .3 0 .7-.4.9a6.9 6.9 0 0 0-3.4 3.7 8 8 0 0 0 .5 5.8c.2.3.1.7-.2 1a6.4 6.4 0 0 0-2.3 4V70c-.3 1.7.2 3.2 1.2 4.5.2.3.2.7 0 1a6.3 6.3 0 0 0-1.6 4.4v1c.1 1.7.8 3.1 1.9 4.2.3.3.3.7.1 1a6.3 6.3 0 0 0-1 4.5 8.5 8.5 0 0 0 3 5.2l-.2.6a7 7 0 0 0 .7 5.6 31 31 0 0 0 6 5.9l2.8 2.7c.5.6 1.4.2 1.4-.6v-2.8l-.2-.4c-1.7-3.5-6-3.5-7-7.7a4 4 0 0 1 1-3.4c.3-.5 0-1-.4-1.3-3.3-1.4-3.1-4.4-3.1-4.5 0-1.7 1.5-3.2 2.6-4 .5-.4.4-1.2-.1-1.4-1.3-.8-3.2-2.3-3.3-4.4-.1-2 1.5-3.4 2.7-4.2a.8.8 0 0 0 0-1.4c-1.2-.7-2.8-2.1-2.7-4.4.1-2.1 2.2-3.3 3.7-3.8.6-.3.7-1 .2-1.4a4.5 4.5 0 0 1-1.6-4.9c.6-2.5 2.7-3.3 4.3-3.5.6-.1.9-.9.5-1.4a4.9 4.9 0 0 1-.8-5.1c1-2.4 3-2.6 4.3-2.4.6.1 1-.4.9-1-.3-1.5-.6-4 1-5.9 1.3-1.7 3.7-1.4 5.2-1a.8.8 0 0 0 1-1c-.3-1.5-.3-4 1.5-5.3 1.5-1.1 3.8-.5 5 0a.8.8 0 0 0 1.2-.7c.1-1.6.6-4.2 2.5-5 1.8-.8 4 .4 5.1 1.2.5.3 1 0 1.3-.4.5-1.5 1-3.9 3.7-4.7 2.6-.8 4.3.7 5.5 1.7.4.4 1 .2 1.3-.3.5-1.5 1.5-3.6 4-4 2.4-.6 4.3 1.4 5.2 2.7.3.5 1 .5 1.3 0 1-1.2 2.9-3.1 5.2-2.9 2.5.3 3.8 2.8 4.4 4.3.2.5.8.7 1.3.4 1.2-1 3.4-2.4 5.5-1.8 2 .6 3 2.7 3.4 4.1.1.6.8.8 1.3.4 1.1-.9 3.3-2 5.7-.8 2 1 2.3 3.4 2.3 4.8 0 .6.6 1 1.1.8 1.4-.4 3.8-1 5.4.5 1.6 1.5 1.5 3.8 1.2 5.3-.1.5.4 1 1 .9 1.5-.3 4-.4 5.5 1.7 1.4 1.8.8 4 .3 5.3-.3.5 0 1 .6 1.1 1.5.2 3.7.7 4.5 2.5.8 1.7-.1 3.6-1 4.9-.2.5 0 1.1.7 1.2 1.5.3 3.8 1 4.2 3 .4 2-1 4-2.1 5.3a.8.8 0 0 0 .3 1.3c1.5.5 3.7 1.7 3.9 3.7s-1.5 3.7-2.7 4.7a.8.8 0 0 0 .1 1.3c1.5.8 3.5 2.3 3.6 4.3 0 2.1-2 3.8-3.4 4.6-.5.4-.5 1 0 1.4 1 .8 2.4 2.2 2 4.4-.2 2.1-1.7 3.1-3.6 3.4-.6.1-.8.8-.5 1.3.6 1.1 1.4 3 .8 4.7-.6 1.4-4.2 4.2-6 5.6l-.2.6v6.5c0 .8.8 1.2 1.3.6 2.1-2.2 6-6.5 8.4-9.7 2-2.7 1.2-5.8.7-7-.1-.3 0-.7.3-1a7.5 7.5 0 0 0 1.6-9.5.8.8 0 0 1 0-1 7.2 7.2 0 0 0 2-4.2z" fill="#3F2720"/><path d="M442.3 80.8v-1c0-2-.7-3.7-2-4.9a6.3 6.3 0 0 0 1.7-5l-.2-1.1a6.5 6.5 0 0 0-2.8-4.6 6 6 0 0 0 .8-5.2c0-.4-.2-.8-.3-1.1-.6-1.8-2-3.3-3.6-4 .7-1.7.7-3.7-.2-5.4l-.5-1a6.7 6.7 0 0 0-4.5-3.3c.4-1.8 0-3.8-1.2-5.3l-.8-.9a6.8 6.8 0 0 0-5-2.4c0-1.8-.8-3.6-2.4-4.9a33 33 0 0 0-.9-.7 6.9 6.9 0 0 0-5.4-1.4 6.5 6.5 0 0 0-3.4-4.3l-1-.5c-1.8-1-4-1-5.7-.2-.8-1.7-2.3-3-4.2-3.6l-1.1-.4a6.8 6.8 0 0 0-5.4.8 6.5 6.5 0 0 0-4.9-3.4l-1.1-.1c-2-.2-4 .6-5.5 2a6.9 6.9 0 0 0-5.3-2l-1.2.2c-2 .2-4 1.5-5.3 3.4a6.8 6.8 0 0 0-5.5-.9l-1.1.4c-2 .5-3.4 1.9-4.2 3.6a6.9 6.9 0 0 0-5.6.2l-1 .5a7 7 0 0 0-3.5 4.4c-1.8-.4-3.8 0-5.4 1.3l-1 .7a6.4 6.4 0 0 0-2.3 5c-2 0-3.8.8-5 2.3l-.8 1a6.4 6.4 0 0 0-1.3 5.2 6.7 6.7 0 0 0-4.4 3.3l-.5 1a6 6 0 0 0-.2 5.4c-1.7.7-3 2.2-3.6 4l-.4 1c-.5 2-.1 3.8.9 5.3a6.5 6.5 0 0 0-2.9 4.6l-.1 1c-.2 2 .4 3.8 1.7 5.1a6.3 6.3 0 0 0-2 4.9v1c.1 2 1 3.6 2.4 4.7a6.4 6.4 0 0 0-1.4 5 8.5 8.5 0 0 0 3 5.2l-.2.6a7 7 0 0 0 .7 5.6 31 31 0 0 0 5.9 6c.5.3 4.3 4 4.3 4l-.1-5c-1.7-3.7-6.2-3.6-7.1-7.9-.6-2.3 1.7-4.3 1.7-4.3-4.5-1.2-4.2-4.8-4.2-4.8 0-2.7 3.7-5 3.7-5s-4.4-1.6-4.5-4.9 4.2-5 4.2-5-4.4-1.2-4.2-5c.2-3.4 5.4-4.3 5.4-4.3s-4.2-1.7-3.1-5.8 6-3.6 6-3.6-3.7-2.6-2-6.4 5.6-2 5.6-2-1.8-4.5.5-7.3c2.2-2.6 6.7-.5 6.7-.5s-1.7-4.7 1-6.7c2.4-1.8 6.3.4 6.3.4s-.3-5 2.5-6.2 6 1.8 6 1.8 1.3-4.8 4.1-5.7 6.1 3 6.1 3 1-4.9 4.6-5.6 5.9 3.8 5.9 3.8 2.5-4.3 6-4 4.7 5.4 4.7 5.4c.1 0 3.5-3.3 6.4-2.5 3 1 3.7 5.5 3.7 5.5s3-3.6 6.7-1.7c3 1.5 2.2 6 2.2 6s4.2-2.1 6.6 0c2.5 2.3.9 6.6.9 6.6s4.5-1.8 6.8 1.3c2 2.7-.3 6.4-.3 6.4s4.6-.2 5.7 2.5c1.2 2.6-1.7 6-1.7 6s5 0 5.6 3.1-3 6.2-3 6.2 4.8 1.1 5 4.1c.4 3.2-3.8 5.5-3.8 5.5s4.8 1.7 4.9 4.9-4.6 5.2-4.6 5.2 3.8 1.6 3.3 5c-.4 2.7-2.4 3.6-5 3.7 0 0 2.6 3 1.5 5.8-.5 1.5-4.6 4.5-6.1 5.8l-.1 9s6.4-6.6 9.8-11.1c2.6-3.5.5-7.5.5-7.7a7 7 0 0 0 3-5.4c.3-1.9-.2-3.6-1.3-5a6.5 6.5 0 0 0 2.4-4.7z" fill="#FF623E"/></svg>