<svg viewBox="0 0 128 128" xmlns="http://www.w3.org/2000/svg" xmlns:xlink="http://www.w3.org/1999/xlink"><defs><path id="a" d="M4 4h120v120H4z"/></defs><clipPath id="b"><use xlink:href="#a"/></clipPath><g clip-path="url(#b)"><path d="M20.9 112.8c-8.4 0-15.3-7.4-15.3-16.5S12.4 80 20.9 80h86.2c8.4 0 15.3 7.4 15.3 16.4s-6.9 16.5-15.3 16.5H20.9z" fill="#E59600"/><path d="M107.1 81.5c7.6 0 13.7 6.7 13.7 14.9s-6.1 14.8-13.7 14.8H20.9c-7.6 0-13.7-6.7-13.7-14.8s6.1-14.9 13.7-14.9h86.2m0-3.1H20.9c-9.3 0-16.9 8-16.9 18s7.6 18 16.9 18h86.2c9.3 0 16.9-8.1 16.9-18s-7.6-18-16.9-18z" fill="#CC8600"/></g><g clip-path="url(#b)"><linearGradient id="c" x1="64" x2="64" y1="146.4" y2="19" gradientUnits="userSpaceOnUse"><stop stop-color="#FFB300" offset="0"/><stop stop-color="#FFB809" offset=".1"/><stop stop-color="#FFC21A" offset=".4"/><stop stop-color="#FFC825" offset=".7"/><stop stop-color="#FFCA28" offset="1"/></linearGradient><path d="M64 147.5c-13 0-26-6-35.3-16.6a70.7 70.7 0 0 1-16-47.7c0-44 16.8-65.4 51.3-65.4 18 0 30.9 5.6 39.4 17 8 10.9 11.9 26.7 11.9 48.4 0 19.3-5.6 35.7-16 47.7A47.4 47.4 0 0 1 64 147.5z" fill="url(#c)"/><path d="M64 19.4c17.5 0 30 5.4 38.1 16.4 7.7 10.4 11.6 26.3 11.6 47.4 0 18.9-5.4 35-15.6 46.6C89 140 76.6 146 64 146s-25.1-5.8-34.2-16a69.2 69.2 0 0 1-15.6-46.7c0-20.8 4-36.7 11.6-47.2C34.1 24.8 46.6 19.4 64 19.4m0-3.1c-37.9 0-52.9 25.3-52.9 66.9 0 42 26.2 65.9 52.9 65.9s52.9-23.9 52.9-66-15-66.8-52.9-66.8z" fill="#EDA600"/></g><path d="M128 0h-4c-.6 0-1 .5-1 1s.5 1 1 1h4V0zm-12 0h-4c-.6 0-1 .5-1 1s.5 1 1 1h4c.6 0 1-.5 1-1s-.5-1-1-1zm-12 0h-4c-.6 0-1 .5-1 1s.5 1 1 1h4c.6 0 1-.5 1-1s-.5-1-1-1zM92 0h-4c-.6 0-1 .5-1 1s.5 1 1 1h4c.6 0 1-.5 1-1s-.5-1-1-1zM80 0h-4c-.6 0-1 .5-1 1s.5 1 1 1h4c.6 0 1-.5 1-1s-.5-1-1-1zM68 0h-4c-.6 0-1 .5-1 1s.5 1 1 1h4c.6 0 1-.5 1-1s-.5-1-1-1zM56 0h-4c-.6 0-1 .5-1 1s.5 1 1 1h4c.6 0 1-.5 1-1s-.5-1-1-1zM44 0h-4c-.6 0-1 .5-1 1s.5 1 1 1h4c.6 0 1-.5 1-1s-.5-1-1-1zM32 0h-4c-.6 0-1 .5-1 1s.5 1 1 1h4c.6 0 1-.5 1-1s-.5-1-1-1zM20 0h-4c-.6 0-1 .5-1 1s.5 1 1 1h4c.6 0 1-.5 1-1s-.5-1-1-1zM8 0H4c-.6 0-1 .5-1 1s.5 1 1 1h4c.6 0 1-.5 1-1s-.5-1-1-1zM1 3a1 1 0 0 0-1 1v4c0 .6.5 1 1 1s1-.5 1-1V4c0-.6-.5-1-1-1zm0 12a1 1 0 0 0-1 1v4c0 .6.5 1 1 1s1-.5 1-1v-4c0-.6-.5-1-1-1zm0 12a1 1 0 0 0-1 1v4c0 .6.5 1 1 1s1-.5 1-1v-4c0-.6-.5-1-1-1zm0 12a1 1 0 0 0-1 1v4c0 .6.5 1 1 1s1-.5 1-1v-4c0-.6-.5-1-1-1zm0 12a1 1 0 0 0-1 1v4c0 .6.5 1 1 1s1-.5 1-1v-4c0-.6-.5-1-1-1zm0 12a1 1 0 0 0-1 1v4c0 .6.5 1 1 1s1-.5 1-1v-4c0-.6-.5-1-1-1zm0 12a1 1 0 0 0-1 1v4c0 .6.5 1 1 1s1-.5 1-1v-4c0-.6-.5-1-1-1zm0 12a1 1 0 0 0-1 1v4c0 .6.5 1 1 1s1-.5 1-1v-4c0-.6-.5-1-1-1zm0 12a1 1 0 0 0-1 1v4c0 .6.5 1 1 1s1-.5 1-1v-4c0-.6-.5-1-1-1zm0 12a1 1 0 0 0-1 1v4c0 .6.5 1 1 1s1-.5 1-1v-4c0-.6-.5-1-1-1zm0 12a1 1 0 0 0-1 1v4h2v-4c0-.6-.5-1-1-1zm11 3H8c-.6 0-1 .5-1 1s.5 1 1 1h4c.6 0 1-.5 1-1s-.5-1-1-1zm12 0h-4c-.6 0-1 .5-1 1s.5 1 1 1h4c.6 0 1-.5 1-1s-.5-1-1-1zm12 0h-4c-.6 0-1 .5-1 1s.5 1 1 1h4c.6 0 1-.5 1-1s-.5-1-1-1zm12 0h-4c-.6 0-1 .5-1 1s.5 1 1 1h4c.6 0 1-.5 1-1s-.5-1-1-1zm12 0h-4c-.6 0-1 .5-1 1s.5 1 1 1h4c.6 0 1-.5 1-1s-.5-1-1-1zm12 0h-4c-.6 0-1 .5-1 1s.5 1 1 1h4c.6 0 1-.5 1-1s-.5-1-1-1zm12 0h-4c-.6 0-1 .5-1 1s.5 1 1 1h4c.6 0 1-.5 1-1s-.5-1-1-1zm12 0h-4c-.6 0-1 .5-1 1s.5 1 1 1h4c.6 0 1-.5 1-1s-.5-1-1-1zm12 0h-4c-.6 0-1 .5-1 1s.5 1 1 1h4c.6 0 1-.5 1-1s-.5-1-1-1zm12 0h-4c-.6 0-1 .5-1 1s.5 1 1 1h4c.6 0 1-.5 1-1s-.5-1-1-1zm7-3a1 1 0 0 0-1 1v4h2v-4c0-.6-.5-1-1-1zm0-12a1 1 0 0 0-1 1v4c0 .6.5 1 1 1s1-.5 1-1v-4c0-.6-.5-1-1-1zm0-12a1 1 0 0 0-1 1v4c0 .6.5 1 1 1s1-.5 1-1v-4c0-.6-.5-1-1-1zm0-12a1 1 0 0 0-1 1v4c0 .6.5 1 1 1s1-.5 1-1v-4c0-.6-.5-1-1-1zm0-12a1 1 0 0 0-1 1v4c0 .6.5 1 1 1s1-.5 1-1v-4c0-.6-.5-1-1-1zm0-12a1 1 0 0 0-1 1v4c0 .6.5 1 1 1s1-.5 1-1v-4c0-.6-.5-1-1-1zm0-12a1 1 0 0 0-1 1v4c0 .6.5 1 1 1s1-.5 1-1v-4c0-.6-.5-1-1-1zm0-12a1 1 0 0 0-1 1v4c0 .6.5 1 1 1s1-.5 1-1v-4c0-.6-.5-1-1-1zm0-12a1 1 0 0 0-1 1v4c0 .6.5 1 1 1s1-.5 1-1v-4c0-.6-.5-1-1-1zm0-12a1 1 0 0 0-1 1v4c0 .6.5 1 1 1s1-.5 1-1v-4c0-.6-.5-1-1-1zm0-12a1 1 0 0 0-1 1v4c0 .6.5 1 1 1s1-.5 1-1V4c0-.6-.5-1-1-1z"/></svg>