<svg xmlns="http://www.w3.org/2000/svg" viewBox="0 0 36 36"><path fill="#292F33" d="M32 36v-2a6 6 0 0 0-6-6H10a6 6 0 0 0-6 6v2h28z"/><path fill="#BE1931" d="M27 28.6c2.2-2.2 7-9.6 7-11.6 0 0-4.7-5-16-5v23s7.1-4.5 9-6.4zm-18 0C6.8 26.4 2 19 2 17c0 0 4.7-5 16-5v23s-7.1-4.5-9-6.4z"/><path fill="#C1694F" d="M18.8 19.8h-1.6a.8.8 0 0 1 0-1.6h1.6a.8.8 0 0 1 0 1.6z"/><path fill="#292F33" d="M18 4c4.4 0 11.6 2.2 11.6 11.7 0 9.4 0 11.6-2.2 11.6S22.4 25 18 25c-4.3 0-7.2 2.2-9.4 2.2-2.4 0-2.2-8.7-2.2-11.6C6.4 6.2 13.7 4 18 4"/><path fill="#292F33" d="M18 4C13.6 4 6.4 6.3 6.4 15.8c0 9.4 0 11.6 2.2 11.6s5-2.2 9.4-2.2c4.3 0 7.2 2.2 9.4 2.2 2.4 0 2.2-8.7 2.2-11.6C29.6 6.2 22.3 4 18 4"/><path fill="#D5AB88" d="M22.2 28c0 2-4.2 7-4.2 7s-4.2-5-4.2-7h8.4z"/><path fill="#D5AB88" d="M14.3 28.2c1.5 1.2 3 1 3.7 1s2.3.2 3.7-1V24h-7.4v4.3z"/><path fill="#CC9B7A" d="M14.3 26c1 1.2 3 1.4 3.7 1.4s2.7-.2 3.7-1.4v-3h-7.4v3z"/><path fill="#D5AB88" d="M9.2 15.4c0-6.2 4-11.2 8.7-11.2 4.8 0 8.7 5 8.7 11.2 0 6.1-3.9 11.2-8.7 11.2-4.8 0-8.7-5-8.7-11.2"/><path fill="#292F33" d="M7.1 18.8v-.5c0-3.6 2.1.6 2.1-2s1.5-2.9 3-4.3l2.1-2.2S18 12 20.8 12c3 0 5.8 1.5 5.8 4.4 0 2.9 2.2-1.7 2.2 2v.4h.7v-3.4C29.5 6 22.3 2.5 18 2.5 13.6 2.5 6.4 6 6.4 15.4v3.4h.7z"/><path fill="#DD2E44" d="M14.4 17.6a.9.9 0 0 1-.9-.8v-1c0-.4.4-.8 1-.8.4 0 .8.4.8.9v.9c0 .4-.4.8-.9.8m7.2 0a.9.9 0 0 1-1-.8v-1c0-.4.5-.8 1-.8s.9.4.9.9v.9c0 .4-.4.8-1 .8"/><path fill="#C1694F" d="M18.9 20.4H17a.4.4 0 0 1-.5-.4v-.2c0-.2.2-.4.5-.4h1.8c.2 0 .4.2.4.4v.2c0 .2-.2.4-.4.4"/><path fill="#D5AB88" d="M26 14.3l-.5.1s-1.2 3.4 0 4c2.7 1.3 3.5-3.8 3.5-5.1 0-1-3 1-3 1zm-16 0l.5.1s1.2 3.4 0 4C7.8 19.7 7 14.6 7 13.3c0-1 3 1 3 1z"/><path fill="#C1694F" d="M18 24.5c-2.7 0-3.5-1.9-3.7-2a.7.7 0 0 1 1-1s.6.5 2.8.5c2.2 0 2.8-.5 2.8-.5a1 1 0 0 1 1 0c.2.3.2.7-.1 1-.1.1-1 2-3.7 2z"/><path fill="#C1694F" d="M15.6 22a1 1 0 0 0-1 1.3v.1l1 2.1c.1.2.3.3.5.3s.4-.1.4-.3l1-2c0-.3 0-.6-.2-.8-.1-.3-.5-.5-.8-.5l-.8-.2z"/><path fill="#F5F8FA" d="M16.4 22.7l-.8-.2c-.3 0-.6.4-.5.7l1 2 .9-1.9c0-.3-.2-.6-.6-.6z"/><path fill="#C1694F" d="M20.5 22h-.2l-.8.2c-.3 0-.6.2-.7.5a1 1 0 0 0-.1.8l.8 2c.1.2.3.3.5.3s.4-.1.4-.3l1-2v-.2a1 1 0 0 0-1-1.3z"/><path fill="#F5F8FA" d="M19.6 22.7l.9-.2c.3 0 .6.4.5.7l-1 2-.9-1.9c0-.3.2-.6.5-.6z"/></svg>