<svg viewBox="0 0 128 128" xmlns="http://www.w3.org/2000/svg" xmlns:xlink="http://www.w3.org/1999/xlink"><defs><path id="a" d="M4 4h120v120H4z"/></defs><clipPath id="b"><use xlink:href="#a"/></clipPath><linearGradient id="c" x1="55.5" x2="55.5" y1="40.3" y2="74.9" gradientUnits="userSpaceOnUse"><stop stop-color="#0A0D11" offset="0"/><stop stop-color="#0C1017" offset=".1"/><stop stop-color="#131828" offset=".3"/><stop stop-color="#1F2644" offset=".5"/><stop stop-color="#2F3A6B" offset=".7"/><stop stop-color="#43539D" offset="1"/><stop stop-color="#4656A4" offset="1"/></linearGradient><ellipse cx="55.5" cy="57.8" rx="49.9" ry="18.3" clip-path="url(#b)" fill="url(#c)" stroke="#2B337B" stroke-linecap="round" stroke-linejoin="round" stroke-miterlimit="10" stroke-width="2.3"/><g clip-path="url(#b)"><path d="M39 119.8c-.4 0-8.6-.5-12-5.1-3.8-5.4-6.1-20.4-6.5-43.2-.3-16 .4-31 .7-35A188 188 0 0 1 54.1 32v87.7H39z" fill="#E7E7E7"/><path d="M52.6 33.6v84.6H39c-.6 0-8-.4-10.8-4.4-2.2-3-5.8-12.3-6.3-42.2a474 474 0 0 1 .6-33.9c9.6-2.5 23.8-3.7 30-4.1m3-3.2s-23 1-35.8 5c-.4 3.1-3.8 66.5 6 80.1 4 5.5 13.2 5.8 13.2 5.8h16.6v-91z" fill="#AFAFB0"/><path d="M57.1 119.7V32c5.3.3 22.3 1.5 33 4.5.2 4 1 19 .7 35-.5 22.9-2.7 37.8-6.6 43.2-3.4 4.6-11.6 5-12 5h-15z" fill="#E7E7E7"/><path d="M58.6 33.6a186 186 0 0 1 30 4.1c.3 5 1 19.1.7 33.9-.6 29.9-4.2 39.3-6.3 42.2-2.5 3.4-8.6 4.4-10.8 4.5H58.7V33.5m-3-3.2v90.8h16.5s9.3-.2 13.2-5.7c9.8-13.6 6.5-77 6-80.1-12.8-4-35.8-5-35.8-5z" fill="#AFAFB0"/></g><g clip-path="url(#b)"><linearGradient id="d" x1="55" x2="55" y1="97.2" y2="131.2" gradientUnits="userSpaceOnUse"><stop stop-color="#4656A4" offset="0"/><stop stop-color="#3D4F97" offset=".2"/><stop stop-color="#283F7A" offset=".6"/></linearGradient><path d="M4.2 130.7V121c0-17.5 27.4-23.8 50.8-23.8h.1a93 93 0 0 1 35.1 6c7.1 3 15.6 8.6 15.6 17.8v9.7H4.2z" fill="url(#d)"/><path d="M55.1 98.5c24.6 0 49.4 7.7 49.4 22.5v8.5h-99v-8.6c0-7.1 5-12.8 14.8-16.8A95.7 95.7 0 0 1 55 98.4h.1m0-2.4H55c-25.6 0-52 7-52 25v11h104v-11c0-16.9-26.1-25-51.9-25z" fill="#2B337B"/></g><path clip-path="url(#b)" fill="#FEEA39" d="M36.4 102.2l2 2.3 3-.4-1.5 2.7 1.3 2.8-3-.7-2.3 2.1-.3-3-2.7-1.6 2.9-1.2zM33 114.5l.6 2.6 2.4 1.1-2.3 1.3-.3 2.7-2-1.9-2.6.6 1.1-2.4-1.3-2.4 2.7.4zm26.5.7l2.4 4 4.6.2-3 3.5 1 4.4-4.1-1.8-4 2.5.5-4.6-3.5-3 4.4-1z"/><path d="M6 59.7l-.3-2V56l.3-2a22.3 22.3 0 0 1 2-5 35.3 35.3 0 0 1 6.4-9.2 45 45 0 0 1 11.6-9A56.2 56.2 0 0 1 55.6 23a62.2 62.2 0 0 1 27.1 6.4 50.8 50.8 0 0 1 20.5 19.5 27.8 27.8 0 0 1 2 5 14.3 14.3 0 0 1 .3 3.8c0 .5-.3 1.8-.5 2.1" clip-path="url(#b)" fill="none" stroke="#2B337B" stroke-linecap="round" stroke-linejoin="round" stroke-miterlimit="10" stroke-width="2.4"/><path clip-path="url(#b)" fill="#FEEA39" d="M16.8 109.5l2.1 2.2 3-.5-1.4 2.7 1.5 2.7-3-.5-2.2 2.2-.4-3-2.8-1.4 2.8-1.4z"/><g clip-path="url(#b)"><path d="M54.2 109.6c-4 0-7.3-3.3-7.3-7.2v-9h16.2v9c0 4-3.3 7.2-7.3 7.2h-1.6z" fill="#A37B60"/><path d="M62 94.4v8c0 3.4-2.7 6.2-6.2 6.2h-1.6a6.2 6.2 0 0 1-6.3-6.2v-8h14.2m2-2H45.9v10c0 4.5 3.7 8.2 8.3 8.2h1.6c4.6 0 8.3-3.7 8.3-8.2v-10z" fill="#91674D"/></g><path clip-path="url(#b)" fill="#FEEA39" d="M79 107.1v3.3l2.9 1.8-3.2 1.2-.8 3.2-2-2.6-3.4.2 1.9-2.8-1.3-3 3.3.8z"/><g clip-path="url(#b)"><linearGradient id="e" x1="55.3" x2="55.3" y1="94.7" y2="17.9" gradientUnits="userSpaceOnUse"><stop stop-color="#A47B62" offset="0"/><stop stop-color="#AD8264" offset=".2"/><stop stop-color="#B78A67" offset=".6"/><stop stop-color="#BA8D68" offset="1"/></linearGradient><path d="M55.3 95.3c-2.3 0-4.9-.5-7.5-1.5A38.7 38.7 0 0 1 23.1 56c.1-28.8 17.4-39 32.2-39s32.1 10.2 32.1 39a38.6 38.6 0 0 1-24.6 37.8 23 23 0 0 1-7.5 1.5z" fill="url(#e)"/><path d="M55.3 18A29 29 0 0 1 77 27.2 41.3 41.3 0 0 1 86.4 56a38 38 0 0 1-23.9 37c-2.5.8-5 1.3-7.2 1.3s-4.7-.5-7.2-1.4c-11-3.9-24-16-24-37 0-12 3.4-22 9.7-28.7A29 29 0 0 1 55.3 18m0-2c-17.2 0-33.1 12.8-33.1 40a39.8 39.8 0 0 0 25.2 38.8 24 24 0 0 0 8 1.5c2.3 0 5-.5 7.8-1.5A39.8 39.8 0 0 0 88.4 56c0-27.2-15.9-40-33-40z" fill="#91674D"/><defs><path id="f" d="M21.4 88.8L20 37.4c0-17 15.8-29.8 32.7-29.8h5c17 0 32.5 12.9 32.5 29.8L87 88.6l-65.5.3z"/></defs><clipPath id="g"><use xlink:href="#f"/></clipPath><g clip-path="url(#g)"><radialGradient id="h" cx="-56.8" cy="-122.6" r="47.6" gradientTransform="matrix(.796 0 0 .796 102.5 97.6)" gradientUnits="userSpaceOnUse"><stop stop-color="#fff" offset="0"/><stop stop-color="#F8F8F8" offset=".4"/><stop stop-color="#E7E7E7" offset="1"/></radialGradient><path d="M48.5 25.4c-8.4 1-24.3 9-26.3 9.8-1 4.5-.6 53 2.3 59 2.9 5.9 3 5.5 3 5.5s-2-26.5-2.3-39c0-3-.9-13.7 5.2-15 22.4-5.1 35-17 35-17C68.7 36 79 43 82.7 45.6c3 2.2 2.6 11.2 2.5 15l-3 39s4.7.4 7.6-5.6c3-6 3-51.4 3-51.4s-29.2-19-44.3-17.2z" fill="url(#h)"/></g><path d="M59.4 68h-7.7c-.6.3-1 1-.6 1.7s1.6 2.6 4.4 2.6 4.2-2 4.5-2.6c.3-.7 0-1.4-.6-1.7z" fill="#98674F"/><ellipse cx="40.3" cy="58.9" rx="4.9" ry="5" fill="#49362E"/><ellipse cx="70.8" cy="58.9" rx="4.9" ry="5" fill="#49362E"/><path d="M46.5 49.8c-.9-1.2-3-3-7.2-3s-6.3 1.8-7.2 3c-.4.6-.3 1.2 0 1.6.2.3 1 .6 1.9.4s2.5-1.2 5.3-1.2 4.5.9 5.4 1.2 1.6 0 1.9-.4c.2-.4.3-1 0-1.6zm32.5 0c-.9-1.2-3-3-7.2-3s-6.3 1.8-7.2 3c-.4.6-.3 1.2 0 1.6.2.3 1 .6 1.9.4s2.5-1.2 5.3-1.2 4.5.9 5.4 1.2 1.6 0 1.9-.4c.2-.4.4-1 0-1.6z" fill="#fff"/><path d="M63.6 76.1a25.3 25.3 0 0 1-16.6 0c-1.8-1-3.6.6-2.9 2.3.7 1.6 6.4 5.3 11.2 5.3s10.5-3.7 11.2-5.4c.8-1.6-1-3.2-2.9-2.2z" fill="#5D4137"/></g><g clip-path="url(#b)"><path d="M105.8 129.8l-8-.3c-7-.7-11.7-4.7-10.8-13 2-18.2 21.9-12.3 23.7-6.4 2.7 8.8-1.8 20-4.9 19.7z" fill="#BA8D68" stroke="#91674D" stroke-linecap="round" stroke-linejoin="round" stroke-miterlimit="10" stroke-width="1.9"/><linearGradient id="i" x1="111.8" x2="95.5" y1="68.6" y2="138.6" gradientUnits="userSpaceOnUse"><stop stop-color="#CC892A" offset=".2"/><stop stop-color="#885C2B" offset=".6"/><stop stop-color="#5B3E2C" offset=".9"/><stop stop-color="#4A332C" offset="1"/></linearGradient><path d="M110 68.4l12.2 10.4-3.7 10.4h-6.2l-1-5.5 2-1.2 1.6.4.5-1.6-6.5-5.3-5.7 4.7 8 14.5-13.5 44.1-3.9-.4s3.6-19.4 5.5-27l4.6-18-7.2-15L110 68.4z" fill="url(#i)" stroke="#975E25" stroke-miterlimit="10" stroke-width="1.9"/><path d="M98.5 126c-.3 1.7.9 3.3 2.6 3.6l4.3.7c1.7.2 3.3-1 3.6-2.6.3-1.7-.9-3.3-2.6-3.6l-4.3-.7c-1.7-.3-3.3.9-3.6 2.6z" fill="#BA8D68" stroke="#91674D" stroke-linecap="round" stroke-linejoin="round" stroke-miterlimit="10" stroke-width="1.7"/><path d="M99.7 121.5c-.3 1.8 1 3.4 2.6 3.6l5.7.9c1.7.3 3.3-1 3.6-2.6.2-1.7-1-3.3-2.6-3.6l-5.7-.9c-1.7-.2-3.3 1-3.6 2.6z" fill="#BA8D68" stroke="#91674D" stroke-linecap="round" stroke-linejoin="round" stroke-miterlimit="10" stroke-width="1.9"/><path d="M100 117.3a3 3 0 0 0 2.7 3.3l7 .7a3 3 0 1 0 .6-6.1l-7-.7a3 3 0 0 0-3.3 2.8z" fill="#BA8D68" stroke="#91674D" stroke-linecap="round" stroke-linejoin="round" stroke-miterlimit="10" stroke-width="1.9"/><path d="M99.9 111.8a3 3 0 0 0 3 3.2l6.9.3a3 3 0 0 0 .3-6.1l-7-.3a3 3 0 0 0-3.2 2.9z" fill="#BA8D68" stroke="#91674D" stroke-linecap="round" stroke-linejoin="round" stroke-miterlimit="10" stroke-width="1.9"/><path d="M110.6 105c-.8-.3-3.5-1.1-5.3-1.5a24 24 0 0 0-3-.5c-2.3 0-9.2 2.5-10.8 4-.8.9-5.8 12.2 4 10.4 4.1-.5 3-5.4 4.4-6.8 1-1 2.7-2.6 7.6-.9 1.4.5 3.8.5 4.6-.6 1.6-1.8.7-3.6-1.5-4.2z" fill="#BA8D68"/><path d="M114 106.3c-.3-1.1-1.4-2-2.9-2.3l-1.3-.4a71 71 0 0 0-7.4-1.6c-6.6-.1-9.7 2-11.6 4.3-1.3 1.5-1 4-.7 3.6a19 19 0 0 1 6.6-4.8 13 13 0 0 1 5.7-1.2l3 .5 3.9 1 1.4.4c.8.2 1.4.6 1.5 1a2 2 0 0 1-.3 1.9c-.5.6-2.6.7-3.9.3-1.8-.6-3.7-1.4-5.6-1-1.5.4-3.2 1.3-3.7 2.6-.6 1.4-.1 4.8-2.2 6.8-1 .9-3.2 2-3.2 2s2.5.5 3.9-.3c2-1.1 2.9-3.6 3.3-5.7.2-.9.1-2.5.4-2.7.9-.9 1.9-2.1 6.4-.6 1.6.5 4.7 1 6-.5.9-1 1.2-2.2.8-3.3z" fill="#91674D"/></g><g clip-path="url(#b)"><linearGradient id="j" x1="26.5" x2="87.8" y1="21.2" y2="21.2" gradientUnits="userSpaceOnUse"><stop stop-color="#4656A4" offset="0"/><stop stop-color="#3B4F97" offset=".5"/><stop stop-color="#2B4585" offset="1"/></linearGradient><path d="M87.8 37H26.5c1-22.5 28.2-31 30.7-31.6 1.5 0 10 .7 14.1 2.4 10.3 4.1 12.8 7.3 13.3 8.8.3.7 0 1 0 1.2-.2.4-.6.9-2 .9-2.5 0-6.2-2.1-7.6-2.9l-1.4-.6c-.5 0-1 .3-1.2.8s0 1 .3 1.4l1 1a64 64 0 0 1 14 18.8z" fill="url(#j)"/><path d="M57.4 6.5c3 .2 10 1 13.4 2.3 11.7 4.7 12.6 8 12.7 8.3-.1.1-.3.2-.8.2a19 19 0 0 1-7.1-2.7c-.9-.5-1.3-.7-2-.7a2.5 2.5 0 0 0-1.8 4.2l1 1a70.2 70.2 0 0 1 13 16.7l-58-.2C29.7 15.5 54 7.5 57.3 6.6M57.1 4s-31.9 8.4-31.9 34l64.3.3c-2.6-8.5-11-17-16-22 .4 0 5.5 3.5 9.2 3.5 1.3 0 2.4-.4 3-1.5.3-.5 2.6-5.2-14-11.8C67.2 4.6 57.2 4 57.2 4z" fill="#2B337B"/></g><linearGradient id="k" x1="55.6" x2="55.6" y1="23" y2="46.5" gradientUnits="userSpaceOnUse"><stop stop-color="#4656A4" offset="0"/><stop stop-color="#3D4D97" offset=".4"/><stop stop-color="#273877" offset="1"/></linearGradient><path d="M105.5 56a22.3 22.3 0 0 0-2.3-7 35.3 35.3 0 0 0-6.5-9.2 45 45 0 0 0-11.5-9A51.2 51.2 0 0 0 71.7 25a48.8 48.8 0 0 0-9.5-1.8 59 59 0 0 0-31.2 5 55.7 55.7 0 0 0-16.6 11.6 43.6 43.6 0 0 0-7.6 11.8A20.2 20.2 0 0 0 5.7 56v1.6c0 .5.2.9.4 1.2.2.4.5.7.8.9s.9.2 1.4.2 1-.2 1.8-.4 1.4-.5 2.2-.9l2.7-1.3a374.3 374.3 0 0 1 7-3.3l2.2-1a104.2 104.2 0 0 1 15.4-4.8A84.9 84.9 0 0 1 62.2 47a80.4 80.4 0 0 1 20.2 4.4l2.4.9a104.2 104.2 0 0 1 8 3.5l3.3 1.6a75.5 75.5 0 0 0 5 2.2c.7.2 1.3.4 1.8.4s1 0 1.3-.2l1-.9.3-1.2V56z" clip-path="url(#b)" fill="url(#k)"/><path d="M6.2 59.7l-.4-2V56a22.3 22.3 0 0 1 2.3-7 35.3 35.3 0 0 1 6.4-9.2 46.9 46.9 0 0 1 14-10.4 55.7 55.7 0 0 1 23.8-6.3 62.2 62.2 0 0 1 30.5 6.3 56.2 56.2 0 0 1 14 10.4 43.6 43.6 0 0 1 7.6 11.8 20.2 20.2 0 0 1 1 4.4c.1.6.2 1.2.1 1.7s-.3 1.8-.5 2.1" clip-path="url(#b)" fill="none" stroke="#2B337B" stroke-linecap="round" stroke-linejoin="round" stroke-miterlimit="10" stroke-width="2.4"/></svg>