<svg viewBox="0 0 128 128" xmlns="http://www.w3.org/2000/svg" xmlns:xlink="http://www.w3.org/1999/xlink"><defs><path id="a" d="M4 4h120v120H4z"/></defs><clipPath id="b"><use xlink:href="#a"/></clipPath><g clip-path="url(#b)"><linearGradient id="c" x1="64" x2="64" y1="97.5" y2="130.5" gradientUnits="userSpaceOnUse"><stop stop-color="#00BFA5" offset="0"/><stop stop-color="#00B29A" offset=".7"/><stop stop-color="#00AB94" offset="1"/></linearGradient><path d="M13.5 130.5v-9.4c0-16.3 25.4-23.6 50.5-23.6h.1c25 0 50.4 8 50.4 23.6v9.4h-101z" fill="url(#c)"/><path d="M64.1 99c13 0 25.5 2.2 34.4 6 6.6 2.8 14.5 8 14.5 16v8H15v-8c0-15.1 24.6-22 49-22h.1m0-3H64c-25.5 0-52 7.3-52 25v11h104v-11c0-16.7-26.3-25-51.9-25z" fill="#009984"/></g><g clip-path="url(#b)"><linearGradient id="d" x1="64" x2="64" y1="87.2" y2="109.7" gradientUnits="userSpaceOnUse"><stop stop-color="#76FF05" offset="0"/><stop stop-color="#79F70A" offset=".1"/><stop stop-color="#81DE18" offset=".3"/><stop stop-color="#87CD22" offset=".5"/><stop stop-color="#8BC228" offset=".7"/><stop stop-color="#8CBF2A" offset="1"/></linearGradient><path d="M63.2 107.2c-4 0-7.3-3.2-7.3-7.1v-9h16.2v9c0 4-3.3 7.1-7.3 7.1h-1.6z" fill="url(#d)"/><path d="M71 92v8c0 3.5-2.7 6.2-6.2 6.2h-1.6a6.2 6.2 0 0 1-6.3-6.1v-8h14.2m2-2H54.9v10c0 4.5 3.7 8.1 8.3 8.1h1.6c4.6 0 8.3-3.6 8.3-8.1V90z" fill="#709921"/></g><g clip-path="url(#b)"><path d="M36.7 72.3c-5.4 0-9.7-4.7-9.7-10.4s4.3-10.5 9.7-10.5h54.6c5.4 0 9.7 4.7 9.7 10.5s-4.3 10.4-9.7 10.4H36.7z" fill="#8ABE3F"/><path d="M91.3 52.4c4.8 0 8.7 4.3 8.7 9.4s-3.9 9.5-8.7 9.5H36.7c-4.8 0-8.7-4.3-8.7-9.5s3.9-9.4 8.7-9.4h54.6m0-2H36.7c-6 0-10.7 5.2-10.7 11.4 0 6.3 4.8 11.5 10.7 11.5h54.6c6 0 10.7-5.2 10.7-11.5 0-6.2-4.8-11.4-10.7-11.4z" fill="#6F993F"/></g><g clip-path="url(#b)"><linearGradient id="e" x1="64" x2="64" y1="94.6" y2="12.8" gradientUnits="userSpaceOnUse"><stop stop-color="#7BA825" offset="0"/><stop stop-color="#7BAE23" offset=".2"/><stop stop-color="#7ABE1D" offset=".4"/><stop stop-color="#78D913" offset=".6"/><stop stop-color="#76FF05" offset=".9"/><stop stop-color="#76FF05" offset=".9"/></linearGradient><path d="M64 95.3c-15.7 0-32.5-12.2-32.5-38.8 0-12.4 3.5-23.8 10-32.2 6-7.8 14.3-12.2 22.5-12.2s16.4 4.4 22.5 12.2c6.5 8.4 10 19.8 10 32.2a42 42 0 0 1-10.1 29.2A30.5 30.5 0 0 1 64 95.3z" fill="url(#e)"/><path d="M64 13c8 0 15.8 4.4 21.7 12a51.5 51.5 0 0 1 9.8 31.5c0 11.8-3.4 21.7-9.8 28.5a29.6 29.6 0 0 1-43.3 0 40.5 40.5 0 0 1-10-28.5 51.3 51.3 0 0 1 10-31.5A28.1 28.1 0 0 1 64 13m0-2c-17.4 0-33.5 18.7-33.5 45.5C30.5 83 47 96.3 64 96.3S97.5 83 97.5 56.5C97.5 29.7 81.4 11 64 11z" fill="#709921"/></g><g clip-path="url(#b)"><path d="M47 69.1c-5 0-8.9-4.5-8.9-10s4-10.2 8.8-10.2 8.9 4.6 8.9 10.1-4 10.1-8.9 10.1z" fill="#4F6C32"/><path d="M47 50.3c4 0 7.5 3.9 7.5 8.7s-3.4 8.8-7.6 8.8-7.5-4-7.5-8.8 3.4-8.7 7.5-8.7m0-2.7c-5.6 0-10.1 5.1-10.1 11.4s4.5 11.5 10.1 11.5S57.1 65.3 57.1 59 52.5 47.6 47 47.6z" fill="#6F993F"/><path d="M47 65c-4.3 0-7.8-3.7-7.8-8.2s3.5-8.2 7.9-8.2 7.9 3.7 7.9 8.2-3.6 8.2-8 8.2z" fill="#fff"/><path d="M47 49.7c3.8 0 6.8 3.2 6.8 7.1s-3 7-6.7 7-6.8-3-6.8-7 3-7 6.8-7m0-2.3c-5 0-9 4.2-9 9.3s4 9.3 9 9.3 9-4.1 9-9.3-4-9.3-9-9.3z" fill="#6F993F"/></g><g clip-path="url(#b)"><path d="M81 69.1c-4.8 0-8.8-4.5-8.8-10s4-10.2 8.9-10.2 8.8 4.6 8.8 10.1-4 10.1-8.8 10.1z" fill="#4F6C32"/><path d="M81 50.3c4.2 0 7.6 3.9 7.6 8.7s-3.4 8.8-7.5 8.8-7.6-4-7.6-8.8 3.4-8.7 7.6-8.7m0-2.7c-5.6 0-10.2 5.1-10.2 11.4S75.4 70.5 81 70.5 91.2 65.3 91.2 59s-4.5-11.4-10.1-11.4z" fill="#6F993F"/><path d="M81 65c-4.4 0-8-3.7-8-8.2s3.6-8.2 8-8.2 7.8 3.7 7.8 8.2a8 8 0 0 1-7.9 8.2z" fill="#fff"/><path d="M81 49.7c3.6 0 6.7 3.2 6.7 7.1s-3 7-6.8 7-6.7-3-6.7-7 3-7 6.7-7m0-2.3c-5 0-9 4.2-9 9.3s4 9.3 9 9.3 9-4.1 9-9.3-4-9.3-9-9.3z" fill="#6F993F"/></g><g clip-path="url(#b)"><radialGradient id="f" cx="64.6" cy="5.3" r="47.3" gradientUnits="userSpaceOnUse"><stop stop-color="#B34141" offset="0"/><stop stop-color="#5E1011" offset="1"/></radialGradient><path d="M32 61.5l-3.2-5.7c-.2-1-1.2-7.8-.5-15.8a1 1 0 0 0-1-1.1H27l-2.3 1a9.7 9.7 0 0 1 3.7-3.8c.2-.2.4-.4.4-.7a47 47 0 0 1 4.5-14c.2-.3.2-.7 0-1s-.5-.5-.9-.5c-1.2 0-2.5 0-3.8.2 1.2-1 3-2 6-2.8a1 1 0 0 0 .5-1.7c-1-.8-1.7-1.7-2.3-2.7l3 1.5.5.2.6.3.5.1c.3 0 .5-.1.7-.3C44.1 8.3 52.9 5.1 64 5a40.1 40.1 0 0 1 18.7 4.1h.4l.2-.1 2.4-1.1-.9 1.2a1 1 0 0 0 .2 1.5l.7.5.3.1a27.7 27.7 0 0 1 3 1 1 1 0 0 0-.4.6c0 .3 0 .7.3 1 3.7 3.5 6.6 8.2 8.4 13.8.1.3.3.5.6.7h.4a11.2 11.2 0 0 0 3.7.2l-3 3.1a1 1 0 0 0-.4 1c.3 1 .5 2 .6 3.1 0 .3.3.6.5.7l2 1.4c1.3 1.2 2 2.4 2.3 3.5-1-.5-2-.8-3-1h-.2a1 1 0 0 0-.7.2 1 1 0 0 0-.3.8 72 72 0 0 1-.6 14.5c-1 1.7-2.2 4-3.3 5.7-.5-7.5-3-17.7-4.7-22.4a7.1 7.1 0 0 0-8-4.5 110 110 0 0 1-19.1 1.8h-.2a109.8 109.8 0 0 1-20.4-2c-3 0-5.6 2-6.7 4.7a94.3 94.3 0 0 0-4.7 22.4z" fill="url(#f)"/><path d="M64 6c7 0 13 1.4 17.8 3.9l1 .2a2.2 2.2 0 0 0 .8-.1c0 .6.4 1.1.9 1.4l.7.5.5.3 1.3.4.6.2c0 .6.2 1.2.6 1.6 3.7 3.5 6.4 8 8.2 13.6a2 2 0 0 0 1.9 1.3l1.3.2-1.4 1.4a2 2 0 0 0-.5 1.9l.5 3a2 2 0 0 0 1 1.5 9.4 9.4 0 0 1 2.7 2.1 15.4 15.4 0 0 0-1-.2 2 2 0 0 0-2 2.1c.4 7-.4 12.8-.7 14.2l-1.6 2.8c-.8-7-2.9-15.4-4.5-19.6a8.1 8.1 0 0 0-9-5 123 123 0 0 1-19 1.7v2-2H64a110.2 110.2 0 0 1-20.6-2 8.1 8.1 0 0 0-7.5 5.3 99.7 99.7 0 0 0-4.5 19.6l-1.6-2.8c-.3-1.5-1.1-7.8-.5-15.5a2 2 0 0 0-1.7-2.1l1.3-1a2 2 0 0 0 1-1.4 43 43 0 0 1 4.3-13.7A2 2 0 0 0 33 19l2-.6a2 2 0 0 0 1.4-2.6 2 2 0 0 0 2.5-.3C44.7 9.2 53.1 6.1 64 6m0-2c-12.7.1-21 4.2-26.6 10-.2-.1-1-.3-1.2-.5-2.2-1-3.7-1.8-5.6-3.3.6 2.4 2 4.6 3.8 6.2-5.8 1.5-7.5 3.8-8.5 5.5 2-.8 4.3-1 6.6-1a45.3 45.3 0 0 0-4.6 14.3 10.8 10.8 0 0 0-5.1 7.2c1.3-1.1 2.9-2 4.5-2.5-.7 9 .6 16.3.6 16.3l5 8.8a90 90 0 0 1 4.9-25.6 6 6 0 0 1 6.8-3.8 111 111 0 0 0 19.3 1.8h.1a111 111 0 0 0 20.6-2 6 6 0 0 1 5.7 4A90 90 0 0 1 95 65l5-8.8s1.2-6.5.7-15c1.2.3 2.7.9 4.5 2-.1-1.8-.6-4-3-6.2a11 11 0 0 0-2-1.4l-.7-3.2c2.3-2.2 4.4-4.5 6.3-7-1.1 1.4-3 2.2-5.3 2.2-.7 0-1.5-.1-2.2-.3h-.1A34.1 34.1 0 0 0 89.6 13a56.3 56.3 0 0 0 2.6-1.1c-1.8 0-4.4-1.2-5.9-1.6l-.7-.5A11 11 0 0 0 88.2 4c-.9 2-3.1 3.1-5.2 4h-.3c-4.8-2.5-11-4-18.7-4zm42 21.4z" fill="#331212"/></g><path d="M78.6 79.7c-.4-.5-.8-1-.8-1.7 0-1 1-1.5 2-2 1.6-.8 3.3-1.6 5.2-1.8.7-.1 1.5 0 2.1.3.7.5 1 1.4 1 2.3s-.6 1.6-1.1 2.3c-2.4 2.9-5.7 3.2-8.4.6zm2.8 4.3c.3.3.4.7.3 1.3-.1.6-.6 1-1 1.5-.4.3-.8.6-1.3.7s-1 0-1.2-.4c-.2-.2-.2-.5-.2-.7-.1-1.4.2-3.5 2-3.2.6.1 1.1.4 1.4.8zm-38.9-6.2c-.5.1-1 0-1.3-.3-.5-.5-.7-1-.8-1.7-.1-.5-.2-1-.1-1.4s.5-1 1-1l.7.2c1.2.6 2.9 1.9 1.8 3.4-.4.4-.8.7-1.3.8zm4.7-37.4c.8 0 1.8 0 2.4.5.8.8.7 2.1.1 3-.6 1-1.7 1.4-2.7 1.8-.7.2-1.3.3-2 .2-.8-.2-1.5-.9-1.9-1.7-1.5-3.2 1.4-3.6 4-3.8z" clip-path="url(#b)" fill="#60874E"/><path d="M60.1 71.2H68c.6-.3 1-1 .6-1.7S66.8 67 64 67s-4.3 2-4.6 2.6c-.3.8.1 1.4.7 1.7z" clip-path="url(#b)" fill="#333"/><g clip-path="url(#b)"><path d="M74.5 83c0 3.2-4.7 3.8-10.5 3.8s-10.5-.6-10.5-3.8 4.7-7.8 10.5-7.8 10.5 4.6 10.5 7.8z" fill="#333"/><path d="M64 86.8c3.5 0 6.7-.2 8.6-1.1-.2-3-4-5.3-8.6-5.3s-8.3 2.4-8.6 5.3c2 .9 5 1 8.6 1z" fill="#F05455"/></g><g clip-path="url(#b)"><path d="M88.6 110.5a30.3 30.3 0 0 0 14 11.6c.1 0 2.2.6 3.8-.7.2-.2.6-.2.7 0s.2.6 0 .7a5 5 0 0 1-2.2 1 6 6 0 0 1-1.9.2l.2.8c1.6-.1 4.2 0 5.8 1.9.6.6.7 1.4.5 2.2-.3.7-1 1.3-1.7 1.5l-3.4.6 3 15.3 2.8 2 2.5-4.3.4-.2.4.1 2.1 2.1 1.9-3.3c0-.2.3-.3.6-.2l2 .7-1-5.1a3.7 3.7 0 0 1-2.7-3l-1.4-6.7h-.1v.1l.2 1.5c.2.8-.3 1.6-1.2 1.8-.8.2-1.6-.4-1.7-1.2l-.4-2.1c-.5-2.2.3-4.4 1.9-5.9l2-1.9-.1-.6c-.4.2-1 .5-1.9.7a.5.5 0 0 1-.6-.4c0-.3.1-.6.4-.6 1.5-.3 2-1 2-1 3.3-5.2 4.5-9.6 3.5-13-.8-3-3-4.3-3.4-4.5-.6 0-2 0-2.7.7a2 2 0 0 0-.4 1.5c.1 1 .5 1.6 1.1 1.8.9.3 2.2-.2 3-1a.5.5 0 1 1 .7.7c-.4.5-1 1-1.8 1.2.2.6.1 1.5-.7 2.5a.5.5 0 0 1-.7 0 .5.5 0 0 1 0-.7c.6-.7.5-1.3.4-1.6l-1.2-.1c-.6-.2-1.6-.9-1.8-2.7-.1-1 .1-1.7.7-2.3 1-1 2.5-1 3.2-1 1.1-2.5 1.3-4.6.5-6.3-1.1-2.5-4-3.5-4.5-3.6-.2 0-1 0-1.5.6a2 2 0 0 0-.4 1.6 3 3 0 0 0 1.9 2.7c.8.4 1.7.2 2.4-.3.2-.2.5-.2.7 0s.1.6 0 .8c-.6.4-1 .6-1.6.7l-.6 2 .2.2.7-.1a.5.5 0 0 1 .5 1l-.6.1h-1l-.4-.3-.2.2h-.4c-.3.1-.5.1-.8 0-.7-.2-1.1-1-.9-1.8l.7-2c-1-.8-1.6-2-1.7-3.2 0-1 .2-1.7.8-2.3.5-.6 1.3-.9 1.8-1 .2-2.2.2-6.5-2.5-7.1H107c-.8.3-1.3.7-1.4 1.3-.4 1 .5 2.6 1 3.2.1.1 1 .6 2.9.1.3 0 .6.1.6.4.1.3 0 .6-.3.6l-.6.2c-1 .2-1.8.1-2.4 0 .2 1.8.7 5.8.7 7.2-.3 1.3-.8 2-1.5 2.4-1.2.4-2.5-.6-2.6-.7a.5.5 0 0 1-.2-.4c-.2-9.9-2.1-13.3-3.8-14.4a3 3 0 0 0-2.7-.3c-.7.2-1 .5-1.2 1-.3 1.2 1 3 1.5 3.7.4 0 1.6.4 2.3-.5.1-.2.5-.3.7 0s.3.4.1.6c-.4.6-1 .9-1.5 1h-1.2l1.2 4c0 .4.2.7.3 1.1 0 .1.3.4.7.4.6.2 1.4 0 2.2-.6.2-.2.6-.1.7 0 .2.3.1.6-.1.8a5 5 0 0 1-1.9.9h-1.1l-.2-.1c1.6 7.5.5 11.7-.8 13.9a6.8 6.8 0 0 1-3 2.8c.3 1 .8 2 1.8 2.9a.5.5 0 1 1-.8.7 8.4 8.4 0 0 1-2.2-4c-.2.8-.6 1.6-1.3 2.5 0 .2-.2.2-.3.2h-.4a.5.5 0 0 1-.1-.8 5.6 5.6 0 0 0 1-5c-.3-.4-.7-.8-1.2-1.1-1.2-.6-2.2-.4-3 .6a3.7 3.7 0 0 0-.3 4.5zm19.3 7.8c-1-6.1 2.7-7.8 2.9-7.8.2-.2.5 0 .6.2s0 .6-.2.7c0 0-3.1 1.4-2.3 6.7 0 .3-.1.5-.4.6a.5.5 0 0 1-.6-.4z" fill="none"/><path d="M111.8 95.8l-.8-.2-.6 1.8a.4.4 0 1 0 .8.2l.5-1.8z" fill="none"/><path d="M87.7 111.1c5 7.8 12.6 11.3 14.2 11.9l.4 1.8 1 5.2 3.1 16 .2.4 3.4 2.5c.1 0 .3.1.4 0 .2 0 .3 0 .4-.2l2.5-4.3 2 2.1c.2.2.3.2.5.2s.3-.1.4-.3l2-3.5 2.4.8.6-.1c.2-.1.2-.3.1-.5l-1.2-6.3-3.3-16.7-.3-1.7c3.4-5.3 4.6-10 3.5-13.7a8.5 8.5 0 0 0-3.6-4.9c1.2-2.6 1.4-5 .4-7a8.4 8.4 0 0 0-4.8-4c.4-4.8-.8-7.8-3.3-8.4-.6-.1-1.3 0-2 .1-1.1.4-1.9 1-2.2 2-.5 1.6.8 3.6 1.2 4 0 1 .8 6.2.7 7.9-.1.6-.3 1.3-.8 1.5-.4.1-1-.2-1.4-.4-.2-8.1-1.6-13.2-4.2-15a4 4 0 0 0-3.7-.4c-1 .3-1.6.9-1.8 1.7-.5 1.8 1.2 4.1 1.7 4.6l1.4 4.7c2.2 8.5 1.2 13 0 15.3-.8 1.7-2 2.4-2.5 2.7l-.1-.4c-.4-1.6-.8-3-2.6-4.1-2.2-1-3.5-.1-4.3.8a4.8 4.8 0 0 0-.4 5.7z" fill="none" stroke="#709921" stroke-linecap="round" stroke-linejoin="round" stroke-miterlimit="10" stroke-width=".8"/><linearGradient id="g" x1="1776.5" x2="1776.5" y1="-96.1" y2="-32.3" gradientTransform="scale(-1 1) rotate(11.1 -66.9 -9635.8)" gradientUnits="userSpaceOnUse"><stop stop-color="#68E005" offset="0"/><stop stop-color="#6EDB0B" offset=".1"/><stop stop-color="#7FCB1C" offset=".3"/><stop stop-color="#89C227" offset=".6"/><stop stop-color="#8CBF2A" offset="1"/></linearGradient><path d="M110 148l-3-2v-.1l-4.5-22.6.3-.3h.9a5 5 0 0 0 3.1-1v-.2c-1.1.8-2.3 1-3 1-.8 0-1.3-.2-1.4-.2-.4-.1-9-3.5-14.2-11.7-1-1.6-.8-3.6.4-5 .5-.7 1.2-1 2-1 .4 0 1 .1 1.4.3 1.2.5 1.5 1.2 1.5 1.4 1 3 2.4 6.4 3.1 7h.2v-.2a7.4 7.4 0 0 1-1.8-3l-.1-.4.3-.1c.6-.3 1.8-1 2.8-2.7 1.2-2 2.3-6.1.8-13.6l-.1-.5-.5-2-1.3-4.6.6.1a3 3 0 0 0 1 0c.5-.1 1-.4 1.3-.8v-.2h-.2a2 2 0 0 1-1.7.8l-1-.2h-.2c-.2-.4-2-2.6-1.6-4.1.2-.6.7-1 1.4-1.3a4 4 0 0 1 1.3-.2c.7 0 1.3.2 1.9.5 1.7 1.2 3.7 4.7 3.9 14.8 0 .1.9.8 1.7.8l.5-.1c.7-.3 1-1 1.3-2a65 65 0 0 0-.7-7.2V87l.2-.3h.4l1 .2c.3 0 .8 0 1.2-.2h.6V86.4l-1.7.2a3 3 0 0 1-1.7-.4c-.2-.3-1.6-2.2-1.1-3.6.2-.7.8-1.2 1.7-1.5a3.4 3.4 0 0 1 1.7-.1c2.9.6 3 5 2.8 7.6v.3h-.3c-.5.1-1.2.3-1.7.8-.4.5-.6 1.2-.6 2.1a4 4 0 0 0 1.5 2.8l.2.2v.2l-.7 2c-.2.5 0 1 .4 1.3a1.2 1.2 0 0 0 .8.2l.3-.1.6-.9.7-2.1h.2a3 3 0 0 0 1.4-.7v-.2h-.1c-.6.4-1.2.6-1.8.6-.4 0-.7 0-1.1-.2-1.2-.5-2-1.8-2.1-3.1 0-.8.1-1.4.5-1.9.6-.6 1.4-.7 1.8-.8h.1c.6.2 3.5 1.3 4.8 4 .8 1.7.6 4-.5 6.5l-.1.2h-.3c-.8 0-2.1.2-3 1-.4.4-.6 1.1-.5 2 .1 1.6 1 2 1.5 2.3h1.3v.3c.2.4.3 1.2-.4 2l-.3.5.3-.3c1-1 .8-1.7.7-2.1v-.4l.3-.1c.6-.2 1.2-.6 1.7-1v-.3h-.2c-.7.8-1.7 1.2-2.7 1.2h-.7c-.6-.3-1.2-.8-1.4-2.1 0-.8.1-1.4.6-1.9.7-.7 2-.8 2.6-.8h.4c.6.3 2.9 1.7 3.7 4.8 1 3.5-.2 8-3.6 13.2 0 .1-.6 1-2.2 1.3l-.1.1.1.1c.7-.1 1.3-.4 1.8-.7l.5-.3 4.7 23.9-.3.3h-.2l-2.1-.7h-.2l-2 3.5h-.4l-2.3-2.2-2.7 4.6h-.4z" fill="url(#g)"/><path d="M97.8 80.8c.6 0 1.1.2 1.6.6 1.6 1 3.6 4.5 3.8 14.4l.1.4c.2 0 1 .7 2 .7h.6c.8-.3 1.3-1.1 1.5-2.4a67 67 0 0 0-.6-7.3l1.1.1h1.3l.5-.2a.5.5 0 0 0-.1-1h-.1a6 6 0 0 1-1.6.2c-.8 0-1.3-.2-1.4-.3-.4-.6-1.3-2.2-1-3.3.2-.5.7-1 1.5-1.2l1-.1h.5c2.6.6 2.7 5 2.5 7.2-.5.1-1.3.3-1.9 1a3 3 0 0 0-.7 2.3A4.4 4.4 0 0 0 110 95l-.6 2c-.2.6 0 1.4.6 1.7a1.5 1.5 0 0 0 1 .2h.4c.1-.1.5-.5.8-1.2l.6-2c.6 0 1.1-.3 1.6-.7a.5.5 0 0 0-.3-.9l-.4.1a2.3 2.3 0 0 1-2.3.4 3.7 3.7 0 0 1-2-2.8c0-.7.2-1.2.5-1.6.5-.5 1.3-.6 1.5-.6.5.1 3.4 1.1 4.5 3.6.8 1.8.6 3.9-.5 6.3-.8 0-2.3.1-3.2 1-.6.6-.8 1.4-.7 2.4.2 1.8 1.2 2.4 1.8 2.6l1 .1h.2c0 .4.2 1-.4 1.6a.5.5 0 0 0 .3.9h.1c.1 0 .2 0 .3-.2.8-1 .9-1.8.7-2.5.7-.2 1.4-.7 1.8-1.1.2-.3.2-.6 0-.8a.5.5 0 0 0-.3-.1l-.4.1c-.6.7-1.6 1.1-2.4 1.1h-.6c-.6-.3-1-.9-1.1-1.8 0-.7 0-1.2.4-1.5.6-.6 1.7-.8 2.4-.8h.3c.4.3 2.6 1.6 3.4 4.5 1 3.5-.2 7.8-3.5 13 0 0-.5.7-2 1a.5.5 0 0 0 0 1h.2c.9-.1 1.5-.4 1.9-.7l.1.7 4.4 22.4-2-.7h-.2c-.2 0-.3.1-.4.3l-1.9 3.3a18 18 0 0 0-2.5-2.3l-.4.3-2.5 4.3-2.7-2-4.4-22.4a6.7 6.7 0 0 0 1.8 0 5 5 0 0 0 2.2-1c.2-.3.3-.6 0-.8a.5.5 0 0 0-.7 0 5 5 0 0 1-2.7.8l-1.1-.1c-.4-.2-8.9-3.5-14-11.6-1-1.4-.8-3.3.3-4.5.5-.6 1-.9 1.7-.9l1.3.3c1.1.5 1.3 1.1 1.3 1.1.6 1.8 2.1 6.5 3.2 7.2l.4.1.4-.1c.2-.2.2-.6 0-.8a7 7 0 0 1-1.8-2.8c.7-.4 2-1.1 3-2.9 1.3-2.2 2.4-6.3.8-13.9l-.6-2.5-1.2-4a3.6 3.6 0 0 0 1.2 0c.5-.1 1-.4 1.5-1 .2-.2.1-.5-.1-.7h-.3l-.4.1c-.4.5-1 .6-1.4.6l-.9-.1c-.6-.7-1.8-2.5-1.5-3.7.2-.4.5-.8 1.2-1l1-.2m.2-.7c-.5 0-1 0-1.4.2-1 .3-1.5.8-1.7 1.6-.4 1.7 1.3 3.9 1.6 4.3l.1.1.2.8 1.2 4 .4 1.5.2 1c1.5 7.3.4 11.3-.8 13.3a6 6 0 0 1-2.6 2.5l-1.1-3c0-.2-.3-1-1.8-1.6a4 4 0 0 0-1.5-.4 3 3 0 0 0-2.4 1.1 4.6 4.6 0 0 0-.3 5.5c5.3 8.3 14 11.7 14.3 11.8h.1l-.1.2v.4l4.5 22.4v.3l.3.2 2.7 2 .2.2h.7l.3-.4 2.3-4 1.9 1.8.2.2h.8l.2-.4 1.7-3.1 1.9.6h.5l.2-.3.3-.2-.1-.4-4.4-22.4-.1-.7-.2-.8c3.4-5.3 4.6-9.9 3.6-13.5-.9-3-3-4.5-3.7-5 1.2-2.7 1.4-5 .5-7a8.3 8.3 0 0 0-4.9-4v-.2c.4-4.6-.7-7.5-3-8h-.7l-1.2.1c-1 .3-1.7 1-2 1.7-.5 1.7 1 3.7 1.1 4l.2.1.1.1-.2.3v.3c.5 3.6.7 6.2.7 7.1-.2 1-.5 1.5-1 1.7h-.4c-.5 0-1-.2-1.3-.4-.2-8.2-1.6-13.2-4.1-15-.7-.4-1.4-.6-2.1-.6zm13 18.1l-.4-.1c-.3-.2-.4-.5-.2-.9l.6-2 .2.1 1 .3-.5 1.9a3 3 0 0 1-.5.7h-.2z" fill="#709921"/><path d="M106.5 118c0 .2.3.5.6.5s.6-.3.6-.6c0-6 3.8-7 3.8-7 .3 0 .5-.4.5-.7-.1-.3-.4-.5-.8-.5-.1 0-4.6 1.3-4.7 8.2z" fill="#709921"/><path d="M39.1 106c-.8-.9-1.7-1-3-.5l-1.2 1c0 .4-.8 2.6 1 5.1.2.2.2.6 0 .7-.2.1-.3.2-.5.1-.1 0-.2 0-.3-.2-.7-.9-1-1.7-1.3-2.5a8.4 8.4 0 0 1-2.2 4c-.2.2-.5.2-.7 0a.5.5 0 0 1 0-.7c1-1 1.4-2 1.7-2.9-.7-.3-2-1-3-2.8-1.2-2.2-2.3-6.4-.8-14l-.2.1h-1.1a5 5 0 0 1-1.9-.8.5.5 0 0 1-.1-.7c.2-.3.5-.3.7-.2.9.6 1.6.9 2.2.7.4 0 .7-.3.7-.4l.3-1.1 1.2-4h-1.1c-.6-.1-1.1-.4-1.6-1a.5.5 0 0 1 .1-.7c.3-.2.6-.1.8.1.6.9 1.8.6 2.2.5.6-.8 1.8-2.5 1.5-3.7-.1-.5-.5-.8-1.1-1a3 3 0 0 0-2.8.3c-1.6 1.1-3.6 4.5-3.8 14.4 0 .2 0 .3-.2.4-.1.1-1.4 1.1-2.6.7-.7-.3-1.2-1-1.4-2.3-.1-1.5.4-5.5.6-7.4-.5.2-1.3.3-2.4 0h-.5a.5.5 0 0 1 .2-1c1.9.4 2.8 0 3-.2.4-.6 1.3-2.1 1-3.2-.2-.6-.7-1-1.5-1.2-.5-.2-1-.2-1.5-.1-2.6.6-2.7 4.9-2.5 7.1a4 4 0 0 1 1.9 1c.5.6.8 1.4.7 2.3A4.3 4.3 0 0 1 18 95l.6 2c.3.8-.1 1.6-.9 2a1.4 1.4 0 0 1-1.4-.3l-.3.2c-.3.2-.7.2-1 .1-.2 0-.4 0-.7-.2a.5.5 0 0 1 .5-1c.2.2.5.3.7.2l.3-.2-.6-2c-.6-.1-1.1-.3-1.6-.7-.2-.2-.2-.5 0-.8s.4-.2.7 0c.7.5 1.5.7 2.4.3 1-.4 1.7-1.5 1.8-2.8 0-.6 0-1.1-.4-1.5-.5-.5-1.3-.6-1.5-.7-.5.2-3.4 1.2-4.5 3.7-.8 1.7-.6 3.8.5 6.3.7 0 2.3 0 3.2 1 .6.6.8 1.4.7 2.3-.1 1.8-1.2 2.4-1.8 2.6-.4.2-.8.2-1.2.2 0 .3-.1.9.5 1.6a.5.5 0 0 1-.5.8l-.3-.1c-.8-1-.9-1.9-.7-2.5-.7-.3-1.4-.7-1.8-1.2a.5.5 0 1 1 .7-.7c.8.8 2.2 1.2 3 1 .7-.3 1-.8 1.1-1.8 0-.6 0-1.1-.4-1.5-.7-.7-2.1-.7-2.7-.7-.4.2-2.6 1.5-3.4 4.5-1 3.4.2 7.8 3.5 12.9 0 0 .5.8 2 1a.5.5 0 0 1-.2 1c-.8 0-1.5-.4-1.9-.7l-.1.7 2 2a6.3 6.3 0 0 1 2 5.8l-.5 2.1a1.5 1.5 0 1 1-3-.6l.4-1.5v-.2H13v.1l-1.4 6.7a3.7 3.7 0 0 1-2.7 3l-1 5 2-.6c.3-.1.5 0 .7.2l1.8 3.3 2-2c.2-.2.4-.3.5-.2l.4.2 2.5 4.4 2.8-2 3-15.4-3.4-.7c-.8-.1-1.4-.7-1.7-1.5s0-1.6.5-2.2c1.6-1.8 4.2-2 5.8-1.8l.2-.8a6 6 0 0 1-1.8-.1 5 5 0 0 1-2.3-1 .5.5 0 0 1 0-.8c.1-.2.5-.2.7 0 1.6 1.3 3.7.8 3.9.7.3-.1 8.8-3.4 14-11.6.8-1.4.7-3.2-.3-4.5zm-19.6 12.7a.5.5 0 0 1-.4-.6c.8-5.3-2.3-6.7-2.3-6.7-.2-.1-.4-.4-.3-.7s.5-.3.7-.2c.2 0 3.9 1.7 3 7.8-.1.2-.4.4-.7.4z" fill="none"/><path d="M16.3 95.8l.7-.2.6 1.8a.4.4 0 1 1-.8.2l-.6-1.8z" fill="none"/><path d="M40.3 111.1A32.1 32.1 0 0 1 26.1 123l-.4 1.8-1 5.2-3.1 16c0 .2-.2.3-.3.4l-3.3 2.5c-.1 0-.3.1-.4 0a.5.5 0 0 1-.4-.2l-2.5-4.3-2 2.1c-.2.2-.3.2-.5.2s-.3-.1-.4-.3l-2-3.5-2.5.8-.5-.1a.5.5 0 0 1-.1-.5l1.2-6.3 3.3-16.7.3-1.7C8.1 113 7 108.4 8 104.7a8.5 8.5 0 0 1 3.6-4.9c-1.2-2.6-1.4-5-.4-7a8.4 8.4 0 0 1 4.8-4c-.4-4.8.8-7.8 3.3-8.4.6-.1 1.3 0 2 .1 1.1.4 1.9 1 2.2 2 .5 1.6-.8 3.6-1.2 4a79 79 0 0 0-.7 7.9c.1.6.3 1.3.8 1.5.4.1 1-.2 1.4-.4.2-8.1 1.6-13.2 4.2-15a4 4 0 0 1 3.7-.4c1 .3 1.6.9 1.8 1.7.5 1.8-1.2 4.1-1.7 4.6l-1.4 4.7c-2.2 8.5-1.2 13 0 15.3.8 1.7 2 2.4 2.5 2.7l.1-.4c.4-1.6.8-3 2.6-4.1 2.2-1 3.5-.1 4.3.8a4.7 4.7 0 0 1 .4 5.7z" fill="none" stroke="#709921" stroke-linecap="round" stroke-linejoin="round" stroke-miterlimit="10" stroke-width=".8"/><linearGradient id="h" x1="74.4" x2="74.4" y1="238.6" y2="302.4" gradientTransform="rotate(11.1 864.5 -69.8)" gradientUnits="userSpaceOnUse"><stop stop-color="#68E005" offset="0"/><stop stop-color="#6EDB0B" offset=".1"/><stop stop-color="#7FCB1C" offset=".3"/><stop stop-color="#89C227" offset=".6"/><stop stop-color="#8CBF2A" offset="1"/></linearGradient><path d="M17.6 148l-.1-.1-2.6-4.4-2.2 2-.1.2h-.4l-2-3.5h-.1l-2.1.6h-.3l-.2-.2v-.2l4.7-23.7.5.3c.4.3 1 .6 1.7.7h.2l-.1-.2c-1.7-.4-2.2-1.1-2.3-1.2-3.4-5.3-4.6-9.8-3.6-13.3a8 8 0 0 1 3.6-4.7l.1-.1h.4c.6 0 2 0 2.7.8.4.5.6 1 .5 1.9-.1 1.3-.8 1.8-1.4 2l-.7.1c-1 0-2-.4-2.7-1.2-.2 0-.2.2-.1.2.4.5 1 .8 1.6 1l.4.2-.1.4a2 2 0 0 0 .6 2v.1h.2c-.8-1-.7-1.8-.5-2.2v-.2h.7l.8-.1c.5-.2 1.4-.7 1.6-2.3 0-.9-.1-1.6-.6-2-.8-.9-2.2-1-2.9-1-.3 0-.4 0-.5-.2-1.1-2.5-1.3-4.7-.4-6.6a7.6 7.6 0 0 1 4.7-3.8h.1c.4 0 1.2.1 1.8.7.4.5.6 1 .5 1.9 0 1.4-.9 2.6-2 3l-1.2.3c-.6 0-1.2-.2-1.7-.6H14v.2c.4.3.8.5 1.3.6h.3v.3l.7 2 .6.8H18c.4-.3.5-.9.4-1.4l-.8-2.2.3-.2a4 4 0 0 0 1.4-2.8c0-.9-.1-1.6-.6-2-.5-.6-1.1-.8-1.6-.9h-.3v-.3c-.2-2.6-.1-7 2.8-7.6a3.1 3.1 0 0 1 1.6 0c1 .4 1.6.8 1.8 1.5.4 1.5-1 3.4-1 3.6h-.1v.1a3 3 0 0 1-1.7.4c-.5 0-1 0-1.6-.2h-.2v.2l.6.1 1.2.2c.4 0 .7 0 1-.2h.3l.2.3v.2c-.2 1.7-.7 5.7-.6 7.2.2 1 .6 1.7 1.2 2h.5c.9 0 1.7-.6 1.7-.6v-.1c.3-10 2.3-13.6 4-14.8.6-.4 1.2-.6 1.9-.6l1.2.3c.8.2 1.2.7 1.4 1.3.4 1.5-1.3 3.7-1.5 4l-.2.1-1 .2a2 2 0 0 1-1.7-.8h-.2c.3.6.8.9 1.3 1a2.7 2.7 0 0 0 1 0h.6L30 90.9l-.5 2-.1.6c-1.6 7.4-.5 11.5.8 13.6 1 1.6 2.1 2.4 2.7 2.6l.3.2v.3c-.5 1.3-1 2.2-2 3v.2h.3c.8-.5 2.1-3.9 3.1-7 0-.1.3-.8 1.5-1.3l1.5-.3c.7 0 1.4.3 2 1a4.2 4.2 0 0 1 .3 5 32 32 0 0 1-14.2 11.7l-1.3.1c-.8 0-2-.1-3-1h-.1v.2c.6.5 1.3.8 2 1a5 5 0 0 0 1.7 0h.3l.2.3v.2L21 145.8l-.2.1L18 148h-.4z" fill="url(#h)"/><path d="M30.2 80.8l1.2.3c.6.2 1 .5 1.1 1 .3 1.1-.9 3-1.4 3.6l-1 .2c-.4 0-1-.2-1.3-.6a.5.5 0 0 0-.4-.2H28c-.2.3-.2.6 0 .8.4.6 1 .9 1.5 1a3.5 3.5 0 0 0 1.1 0l-1.2 4-.5 2.5c-1.6 7.5-.5 11.7.8 13.9 1 1.7 2.2 2.5 3 2.8a7 7 0 0 1-1.8 2.9.5.5 0 1 0 .7.7c1.1-.7 2.7-5.3 3.2-7.1 0 0 .2-.6 1.4-1.1l1.2-.3c.7 0 1.3.3 1.8.8a4 4 0 0 1 .3 4.6 31.6 31.6 0 0 1-14 11.5l-1.2.2a4 4 0 0 1-2.7-1 .5.5 0 0 0-.7.1c-.2.2-.2.6 0 .8a5 5 0 0 0 2.3 1 5.7 5.7 0 0 0 1.8 0l-4.4 22.4-2.8 2-2.5-4.3-.4-.2c-.2 0-2.4 2.1-2.5 2.2l-1.8-3.3a.5.5 0 0 0-.5-.2H10l-2 .6 4.3-22.4.1-.7a4.8 4.8 0 0 0 2 .8c.3 0 .5-.2.5-.4 0-.3-.1-.6-.4-.6-1.5-.3-2-1-2-1-3.3-5.2-4.5-9.6-3.5-13 .8-3 3-4.3 3.4-4.5h.3c.7 0 1.8.1 2.4.7.3.4.5.9.4 1.5 0 1-.5 1.5-1 1.7a2 2 0 0 1-.7.1c-.8 0-1.8-.4-2.4-1a.5.5 0 0 0-.4-.2s-.2 0-.3.2c-.2.2-.2.5 0 .7.4.5 1 1 1.8 1.2-.2.6-.1 1.5.7 2.5a.5.5 0 0 0 .7 0c.2-.2.2-.5 0-.7-.5-.7-.5-1.3-.4-1.6h.3c.3 0 .6 0 1-.2.5-.2 1.6-.8 1.7-2.6.1-1-.1-1.7-.7-2.3-.9-1-2.4-1-3.1-1h-.1c-1.1-2.5-1.3-4.6-.5-6.3 1.1-2.5 4-3.5 4.5-3.7.2 0 1 .1 1.5.7.3.3.5.9.4 1.5a3 3 0 0 1-1.8 2.8l-1 .2c-.5 0-1-.2-1.4-.5a.5.5 0 0 0-.4-.2l-.4.2c-.1.2-.1.6.1.8a3.3 3.3 0 0 0 1.6.7l.6 2c.3.6.7 1 .8 1a1.7 1.7 0 0 0 .6.2c.3 0 .6 0 .8-.2.6-.4.8-1.1.6-1.8l-.6-2c.9-.7 1.5-1.8 1.6-3a3 3 0 0 0-.7-2.4 4 4 0 0 0-1.9-1c-.1-2.2-.1-6.5 2.5-7.1l.6-.1c.3 0 .6 0 .9.2.8.2 1.3.6 1.5 1.2.3 1-.6 2.6-1 3.2-.1.1-.6.3-1.4.3-.4 0-1 0-1.6-.2-.3 0-.5.1-.6.4 0 .3.1.5.4.6l.5.2h2.4a64.4 64.4 0 0 0-.6 7.3c.2 1.2.7 2 1.5 2.3h.6c1 0 1.8-.6 2-.7l.1-.4C25 86 27 82.5 28.6 81.4c.5-.4 1-.6 1.6-.6m0-.7c-.7 0-1.4.2-2 .6-2.6 1.8-4 6.8-4.1 15a3 3 0 0 1-1.4.5h-.4c-.4-.3-.8-.8-1-1.8 0-1 .2-3.5.7-7V87l-.2-.3h.1l.1-.1.1-.2c.2-.2 1.6-2.2 1.1-3.9-.2-.8-1-1.4-2-1.7a3.8 3.8 0 0 0-1.9-.1c-2.3.5-3.4 3.4-3 8v.2c-.8.3-3.7 1.4-4.9 4-.9 2-.7 4.3.5 7-.6.5-2.8 2-3.7 5-1 3.6.2 8.2 3.6 13.4l-.1.9-.2.6-4.4 22.5v.3l.2.3.2.3h.6l1.9-.6 1.7 3 .2.5h.8l.3-.2 1.8-1.8 2.3 4 .3.4h.7l.2-.2 2.7-2 .3-.2v-.3l4.4-22.4.1-.3-.1-.2c.4-.2 9.1-3.6 14.4-12 1.1-1.6 1-3.9-.3-5.4a3 3 0 0 0-2.4-1.1 4 4 0 0 0-1.6.4c-1.3.5-1.6 1.4-1.7 1.5a50 50 0 0 1-1 3.1H33a6 6 0 0 1-2.6-2.5c-1.2-2-2.3-6-.8-13.4l.2-.9.4-1.5 1.4-4.8c.4-.5 2.1-2.7 1.7-4.4-.2-.7-.8-1.3-1.6-1.6l-1.5-.2zM16 95.6a3.3 3.3 0 0 0 1.3-.4l.6 2c.2.4 0 .7-.2.9l-.4.1H17l-.5-.7-.6-2z" fill="#709921"/><path d="M21.5 118c0 .2-.3.5-.6.5a.6.6 0 0 1-.6-.6c0-6-3.8-7-3.8-7a.6.6 0 0 1-.5-.7c.1-.3.4-.5.7-.5.2 0 4.7 1.3 4.8 8.2z" fill="#709921"/></g></svg>