<svg xmlns="http://www.w3.org/2000/svg" viewBox="0 0 36 36"><path fill="#292F33" d="M32 36v-2a6 6 0 0 0-6-6H10a6 6 0 0 0-6 6v2h28z"/><path fill="#BE1931" d="M18 12C4 12 3 17 3 17c0 4 7 7 7 11 2 3 8 4 8 4s6-1 8-4c0-4 7-7 7-11 0 0-3.7-5-15-5z"/><path fill="#E1E8ED" d="M22.6 30l-2.9 1.3a1 1 0 0 0-.7-.3h-2a1 1 0 0 0-.7.3l-3-1.3c-.6-.1-1.3.4-1.3 1.1v2c0 .8.7 1.4 1.5 1.2l3-1.5.5.2h2c.2 0 .4 0 .5-.2l3 1.5c.8.2 1.5-.4 1.5-1.2v-2c0-.7-.7-1.2-1.4-1z"/><path fill="#99AAB5" d="M15.5 33.3s-.6-1.2-.1-2.3l.9.3c-.3.8.1 1.6.1 1.6l-.9.4zm5 0l-.9-.4s.4-.8.1-1.6l1-.3c.4 1.1-.2 2.3-.2 2.3z"/><path fill="#AF7E57" d="M13.6 28.1c1.8 1.3 2.9 2 4.4 2 1.5 0 2.6-.7 4.4-2v-3.8h-8.8V28z"/><path fill="#9B6A49" d="M13.6 26a5.7 5.7 0 0 0 4.4 1.7c1.6 0 3.1-.4 4.4-1.7v-3.5h-8.8V26z"/><path fill="#AF7E57" d="M9.5 17c0-5.6 3.8-10.2 8.5-10.2s8.5 4.6 8.5 10.2c0 5.5-3.8 10-8.5 10s-8.5-4.5-8.5-10z"/><path fill="#915A34" d="M21.8 22a.6.6 0 0 0-1 0s-.6.5-2.8.5c-2.1 0-2.8-.5-2.8-.5a.7.7 0 0 0-1 1l.3.3v.6l1 2.1c.2.2.3.3.5.3s.4-.1.5-.3l.5-1.1a5.2 5.2 0 0 0 2 0l.5 1c0 .3.2.4.4.4s.4-.1.5-.3l1-2V23.4l.3-.4c.3-.3.3-.7 0-1z"/><path fill="#F5F8FA" d="M19.6 23.2l.8-.2c.4 0 .6.3.5.7l-1 2-.8-1.9c-.1-.3.2-.6.5-.6zm-3.2 0l-.8-.2c-.4 0-.7.3-.6.7l1 2 1-1.9c0-.3-.3-.6-.6-.6z"/><path fill="#DD2E44" d="M14 17a1 1 0 0 1-1-1v-1c0-.6.5-1 1-1s1 .5 1 1v1c0 .6-.5 1-1 1zm8 0a1 1 0 0 1-1-1v-1c0-.6.5-1 1-1s1 .5 1 1v1c0 .6-.5 1-1 1z"/><path fill="#915A34" d="M18.8 19.8h-1.6a.8.8 0 0 1 0-1.6h1.6a.8.8 0 0 1 0 1.6z"/><path fill="#AF7E57" d="M26 16l-.5.1s-1.2 3.4 0 4c2.7 1.4 3.5-3.8 3.5-5.1 0-1-3 1-3 1zm-16 0l.5.1s1.2 3.4 0 4C7.8 21.5 7 16.3 7 15c0-1 3 1 3 1z"/><path fill="#292F33" d="M18 3c-8 0-9 4-9 10s1.8 1 2 0c1-4 5-5 7-1 2-4 6-3 7 1 .2 1 2 6 2 0S26 3 18 3z"/></svg>