<svg xmlns="http://www.w3.org/2000/svg" viewBox="0 0 36 36"><path fill="#292F33" d="M17 0a6 6 0 0 0-3.4 1H13a4 4 0 0 0-4 4v6a7 7 0 1 0 14 0V6a6 6 0 0 0-6-6z"/><path fill="#F7DECE" d="M29.6 18.6c-.3-.6-1-.8-1.6-.5L25 20l-2.2-4.2c-.3-1-1.2-1.6-2.1-1.6h-9.5c-1 0-1.5.6-1.7 1L3.2 25.6c-.3.5-.1 1.3.4 1.7l.6.2c.4 0 .8-.2 1-.6l5.6-9.4.5.3 1.1 5-1.1 5h9.4l-1.2-5 1.2-5 .4-.3 2.3 4.6c.3.6 1 .9 1.6.5l4.2-2.4c.5-.3.7-1 .4-1.7z"/><path fill="#E75A70" d="M16 17.9s-1.2-1.3-2.4-1.3-2.3 1.3-2.3 1.3l.9 3.8h7.6l.9-3.8s-1.2-1.3-2.4-1.3S16 18 16 18z"/><path fill="#F7DECE" d="M14 10v4a2 2 0 0 0 4 0v-4h-4z"/><path fill="#EEC2AD" d="M18 10h-4v4s2 1 4 0v-4z"/><path fill="#F7DECE" d="M21 3H11v6c0 2.8 2.2 5 5 5s5-2.2 5-5V3z"/><path fill="#292F33" d="M14 3s0 4 8 4V3h-8zm0 0s0 4-4 4V3h4z"/><path fill="#DF1F32" d="M18 12h-4s0 1 2 1 2-1 2-1z"/><circle fill="#662113" cx="13.5" cy="8.5" r=".5"/><circle fill="#662113" cx="18.5" cy="8.5" r=".5"/><path fill="#C1694F" d="M15 10h2s0 1-1 1-1-1-1-1z"/><path fill="#5D9040" d="M29 28.8c2.3-2 1.4-6 1.4-6-.8.7-1.4 2.7-3.7 4.7a4 4 0 0 0-1.3 2.5c-.8.2-2.1.5-3.4.6a9 9 0 0 1-2.2-.2A3 3 0 0 0 21 28v-1a2 2 0 0 0-2-2h-9a3 3 0 0 0-2.7 1.7l-.1.4-.1.2v.2c-.6 2.4.7 5.4 3.9 6.5 2 .7 6 1.3 9.7.7 2.5-.5 4.6-1.6 5.9-2.4.6.2 1.5.2 2.7-.3 2.3-.8 2.4-3.3 6.1-4.9-2.6-.8-6.4 1.7-6.4 1.7z"/><path fill="#292F33" d="M19.4 30.3a47 47 0 0 1-7-2.7.4.4 0 1 1 .3-.7s4.7 2.2 6.8 2.6a.4.4 0 0 1 0 .8z"/></svg>