<svg xmlns="http://www.w3.org/2000/svg" viewBox="0 0 36 36"><path fill="#3B88C3" d="M29 31s-.7.5-1.5 0c-.7-.4-.3-1.2-.3-1.2-.8 0-1-.9-.6-1.6A6 6 0 0 0 25 28H11a6 6 0 0 0-6 6v2h26v-2a6 6 0 0 0-.3-1.8c-1.7.7-1.6-1.1-1.6-1.1z"/><path fill="#662113" d="M26 33.3c-.2 2-.9 2.7-.9 2.7h1.4s.2-3-.6-2.7zM6.5 34c.3-.3.9-2 1.9-2.4s3.2-1 3.2 0-1.4 2.5-1.1 3c-1 .5-5 .2-4-.6z"/><path fill="#CCD6DD" d="M7.2 33.8c.4-.2.7-1.7 1.7-2.2s2.8-1 2.8 0-1.3 1.7-2.3 2.2c-1 .5-3.2.8-2.2 0z"/><path fill="#292F33" d="M29.7 21.8c-.5-.5-.8-2.1-.8-2.6v-2.3c0-8.9-6.9-11-11-11C14 6 7 8 7 17v1.3c0 1.1-.8 2.1-1 3s.5.5.7.2l.3-.6c.1 3.3.5 7 2 7 2.2 0 4.8-2 9-2 4 0 6.1 1.3 8.2 1.3.7 0 1.3-.2 1.7-.8l.4.4c.3.2.7.2.6-.1-.1-.4-.4-.8-.3-2.4l.2-2.3.3.2c.4.3 1 .2.6-.3z"/><path fill="#CCD6DD" d="M14 28h8l-4 5-4-5"/><path fill="#CCD6DD" d="M14.5 28.5c1.5 1 2.8 1 3.5 1s2.2 0 3.5-1v-4h-7v4z"/><path fill="#99AAB5" d="M14.5 26c1 1.2 2.2 1.6 3.5 1.6 1.3 0 2.5-.4 3.5-1.5v-3h-7v3z"/><path fill="#CCD6DD" d="M9.8 16.6C9.8 10.8 13.4 6 18 6c4.5 0 8.2 4.8 8.2 10.6S22.5 26.9 18 26.9c-4.6 0-8.2-4.5-8.2-10.3"/><path fill="#66757F" d="M18 22.4c1.5 0 2.4.8 2.5.9.2.3.2.7 0 1a1 1 0 0 1-1 0s-.5-.5-1.6-.5c-1 0-1.5.4-1.5.5a1 1 0 0 1-1 0 .7.7 0 0 1 0-1c.1-.1 1-.9 2.5-.9"/><path fill="#292F33" d="M28.7 10c.5 0 .5-.4 0-.4s-2-.7-2.9-1.5a12 12 0 0 0-6.4-3.5L20 4c.2-.2.3-.6-.2-.4a8.2 8.2 0 0 1-3.5 1.1 8 8 0 0 0-3-.5c-.2 0-.5.4 0 .5.2 0 .5.2.9.7a10 10 0 0 0-5 4H9c-.7.7-2.2 2.6-2.8 2.7-.4 0-.5.5 0 .4h1.3c-.4 1.3-.6 2.7-.6 4.3V20h.7v-.5c0-3.4 2 .5 2-1.9 0-2 .9-2.5 2-3.3v.5c0 .4.4.5.5 0s.3-1.2 1-2l1.3-1.3 1 .5c1 .6 1 2 1.2 2.4s.5-.1.6-.6v-1c1.1.5 2.3.8 3.4.8 2.7 0 5.5 1.4 5.5 4.1 0 2.7 2-1.6 2 1.8v.5h.7v-3.2a13 13 0 0 0-1.6-6.6h1.4z"/><path fill="#99AAB5" d="M16.3 18.7l-.6.7a2 2 0 0 1-2.8 0 2 2 0 0 1 0-2.8l.6-.6a2 2 0 0 1 2.8 0c.8.7.8 2 0 2.7zm4 .7l-.6-.7a2 2 0 0 1 0-2.7 2 2 0 0 1 2.7 0l.7.6c.8.8.8 2 0 2.8a2 2 0 0 1-2.8 0z"/><path fill="#662113" d="M15.9 17.5c0 .5-.4.9-.9.9h-.8a.8.8 0 0 1-.9-.9c0-.4.4-.8.9-.8h.8c.5 0 .9.4.9.8m6.7 0c0 .5-.3.9-.8.9h-.9a.8.8 0 0 1-.8-.9c0-.4.4-.8.8-.8h.9c.5 0 .8.4.8.8"/><path fill="#99AAB5" d="M18.8 21.4c.3 0 .5-.2.5-.4v-.6c0-.3-.2-.5-.5-.5s-.5.2-.5.5v.6c0 .2.3.4.5.4zm-1.6 0c.2 0 .4-.2.4-.4v-.6c0-.3-.2-.5-.4-.5s-.5.2-.5.5v.6c0 .2.2.4.5.4z"/><path fill="#CCD6DD" d="M11.4 17.8c0 1.5-.7 2.7-1.6 2.7s-1.6-1.2-1.6-2.7.7-2.6 1.6-2.6 1.6 1.2 1.6 2.6m16.4 0c0 1.5-.7 2.7-1.6 2.7-1 0-1.6-1.2-1.6-2.7s.7-2.6 1.6-2.6 1.6 1.2 1.6 2.6"/></svg>