<svg xmlns="http://www.w3.org/2000/svg" viewBox="0 0 36 36"><path fill="#D99E82" d="M30 31s-.7.5-1.5 0c-.7-.4-.3-1.2-.3-1.2-.8 0-1-.9-.6-1.6A6 6 0 0 0 26 28H10a6 6 0 0 0-6 6v2h28v-2a6 6 0 0 0-.3-1.8c-1.7.7-1.6-1.1-1.6-1.1z"/><path fill="#CCD6DD" d="M13.6 28.1c1.8 1.3 2.9 3.7 4.4 3.7 1.5 0 2.6-2.4 4.4-3.7v-3.8h-8.8V28z"/><path fill="#99AAB5" d="M13.6 26a5.7 5.7 0 0 0 8.8 0v-3.5h-8.8V26z"/><path fill="#CCD6DD" d="M11.4 16c0 1.4-.7 2.6-1.6 2.6s-1.6-1.2-1.6-2.7.7-2.6 1.6-2.6c1 0 1.6 1.2 1.6 2.6zm16.4 0c0 1.4-.7 2.6-1.6 2.6s-1.6-1.2-1.6-2.7.7-2.6 1.6-2.6c.9 0 1.6 1.2 1.6 2.6z"/><path fill="#CCD6DD" d="M9.5 17c0-5.6 3.8-10.2 8.5-10.2s8.5 4.6 8.5 10.2c0 5-5 10-8.5 10s-8.5-5-8.5-10z"/><path fill="#99AAB5" d="M12.2 17.8a2 2 0 0 1 0-2.9l.7-.7a2 2 0 0 1 2.9 0c.7.8.7 2 0 2.9l-.7.7a2 2 0 0 1-2.9 0zm8-3.6a2 2 0 0 1 2.9 0l.7.7c.7.8.7 2 0 2.9a2 2 0 0 1-2.9 0l-.7-.7a2 2 0 0 1 0-2.9z"/><path fill="#66757F" d="M18 21.8c-2.8 0-3.6.7-3.7.9a.7.7 0 0 0 .9 1c0-.1.7-.6 2.8-.6 2.2 0 2.8.5 2.8.5.3.3.7.3 1 0a1 1 0 0 0 0-1c-.2 0-1-.8-3.8-.8z"/><path fill="#292F33" d="M28.6 10c-.8-.2-2.3-2-2.8-2.8a9.3 9.3 0 0 0-6.6-3.7l.3-.7c.1-.5.3-1.7-.4-.9-.6.7-2.4 1.4-3 1.7a6.1 6.1 0 0 0-4-.4c-.5.3 0 .2.4.3.4 0 1 .4 1.4.7a8 8 0 0 0-3.8 3c-.6.8-1.7 2-2.3 2.3-1.1.4.2.6.8.3l.4-.2-.2 1.5c0 3.5 1.2 4.5 1.4 3.5.7-3.5 2.9-4.9 2.9-4.9 3.2 3.9 2.9.6 2.9.6 5.6 6.6 2.7.1 2.7.1 1.4 1.4 5.7 1.4 5.7 1.4l1.4 2.8c.7 1.4 1.4 0 1.4-3.5l-.1-.8 1.1.2c.7 0 1.3-.4.4-.5z"/><path fill="#662113" d="M15.5 15.5c0 .6-.5 1-1 1h-1c-.6 0-1-.5-1-1s.5-1 1-1h1c.6 0 1 .5 1 1zm8 0c0 .6-.5 1-1 1h-1c-.6 0-1-.5-1-1s.5-1 1-1h1c.6 0 1 .5 1 1z"/><path fill="#C1694F" d="M18 31.2l4 2.5c.3 0-.3-3.7-.3-3.7l-2.4.5-1.3 1.6-1-2.1h-2.7s-.5 3.8-.3 3.6c.7-.3 4-2.4 4-2.4z"/><path fill="#269" d="M19.3 30.5l-.6.8-.8-.3c-1.3-.3-2.2 0-2.2 0s.2 1.5.4 1.8l.5.9s-.6.3-1 2.3h4c-.3-1.6-1.1-2-1.1-2l1-1 .4-.8-.2-.1.7-.4c1-1-1-1.2-1-1.2z"/><path fill="#FFD983" d="M13.3 26.6L17 30l-3 3.5c-.3.3-1.6-4.6-1.7-5.7 0-.3.7-1.4 1-1.2zm9.4 0l-3.4 4s.8.6 2.8 3c.2.2 1.5-4.7 1.6-5.8 0-.3-.7-1.4-1-1.2z"/><path fill="#662113" d="M27 33.3c-.2 2-.9 2.7-.9 2.7h1.4s.2-3-.6-2.7z"/><path fill="#99AAB5" d="M17 20a.5.5 0 0 1-.5-.5v-1c0-.3.2-.5.5-.5s.5.2.5.5v1c0 .3-.2.5-.5.5zm2 0a.5.5 0 0 1-.5-.5v-1c0-.3.2-.5.5-.5s.5.2.5.5v1c0 .3-.2.5-.5.5z"/><path fill="#9AAAB4" d="M13.8 20.8a5 5 0 0 1-3.2-1.4.5.5 0 0 1 .8-.8s1.7 1.8 3.4 1a.5.5 0 1 1 .4.8c-.5.3-1 .4-1.4.4zm8.4 0c-.5 0-1-.1-1.4-.4a.5.5 0 0 1 .4-.8c1.7.8 3.4-1 3.4-1a.5.5 0 0 1 .8.8 5 5 0 0 1-3.2 1.4z"/><path fill="#662113" d="M5.6 34c.3-.3.9-2 1.9-2.4s3.2-1 3.2 0-1.4 2.5-1.1 3c-1 .5-5 .2-4-.6z"/><path fill="#CCD6DD" d="M6.2 33.8c.4-.2.7-1.7 1.7-2.2s2.8-1 2.8 0-1.3 1.7-2.3 2.2c-1 .5-3.2.8-2.2 0z"/></svg>