<svg viewBox="0 0 128 128" xmlns="http://www.w3.org/2000/svg" xmlns:xlink="http://www.w3.org/1999/xlink"><linearGradient id="a" x1="89.2" x2="89.2" y1="64.9" y2="107.7" gradientTransform="matrix(-1 0 0 1 179.2 0)" gradientUnits="userSpaceOnUse"><stop stop-color="#A47B62" offset="0"/><stop stop-color="#BA8D68" offset="1"/></linearGradient><path d="M83.7 92.2a10.6 10.6 0 0 1-3.2-6.2l-2.8-20 8.5-1.1c.2 3.5 1.5 19.4 2.6 21.6 1.1 2.2 11.8 14.5 13.5 16.4l-2.2 4.8-16.4-15.5z" fill="url(#a)"/><path d="M85.7 65.4c.4 5 1.6 19.1 2.7 21.3 1 2.2 10.8 13.5 13.3 16.3l-1.8 3.8-15.9-15a10 10 0 0 1-3-5.9l-2.8-19.4 7.5-1m1-1.2L77 65.7l3 20.4a11 11 0 0 0 3.2 6.4l17 16 2.6-5.6S90.4 88.6 89.3 86.3a181 181 0 0 1-2.7-22z" fill="#91674D"/><linearGradient id="b" x1="37.6" x2="37.6" y1="64.9" y2="107.7" gradientUnits="userSpaceOnUse"><stop stop-color="#A47B62" offset="0"/><stop stop-color="#BA8D68" offset="1"/></linearGradient><path d="M25.3 103c1.7-2 12.3-14.3 13.4-16.5 1.1-2.2 2.4-18 2.7-21.6l8.5 1.2L47 86c-.4 2.3-1.5 4.5-3.2 6.2l-16.4 15.5-2.2-4.8z" fill="url(#b)"/><path d="M41.9 65.4l7.4 1.1L46.6 86a10 10 0 0 1-3 5.9l-16 15L26 103c2.4-2.8 12.2-14 13.3-16.3 1-2.2 2.3-16.4 2.6-21.3m-.9-1.1s-1.5 19.7-2.6 22-13.6 16.6-13.6 16.6l2.6 5.6 16.9-16c1.8-1.7 3-4 3.3-6.5l3-20.4-9.6-1.3z" fill="#91674D"/><path d="M49.3 97.9v-27c0-.2-.2-.4-.5-.5l-8.5-.7.8-8.8c0-.1 1.6-11.2 23.1-11.2S87 60.7 87 61l.8 8.8-8.2.7c-.3 0-.5.3-.5.5v27H49.3z" fill="#00AF98"/><path d="M64.2 50.2c21 0 22.2 10.6 22.2 10.7l.8 8.3-7.8.7a1 1 0 0 0-.9 1v26.5H49.8V70.9c0-.5-.4-1-1-1l-8-.7.8-8.3S43 50.2 64.2 50.2m0-1c-20.8 0-23.5 10.2-23.6 11.6l-.8 9.3 9 .8v27.5h30.7V70.9l8.7-.8-.8-9.3c-.1-1.2-2.4-11.6-23.2-11.6z" fill="#009984"/><linearGradient id="c" x1="51.4" x2="51.4" y1="123.8" y2="100.9" gradientUnits="userSpaceOnUse"><stop stop-color="#A47B62" offset="0"/><stop stop-color="#BA8D68" offset="1"/></linearGradient><path d="M30.7 123.8c-4.2 0-8-.8-10.2-2.1-2.1-1.4-4-4-3.3-6 1-2.8 3.7-5.5 7-7.1a118 118 0 0 1 22.3-7 24 24 0 0 1 5.3-.7c2 0 3.7.3 5.2 1 2.3 1 8.7 3 15 5a290 290 0 0 1 13.6 4.6c-5.8 1-11 2.6-16.5 4.2-8.7 2.6-18.6 5.6-33.9 7.8l-4.5.3z" fill="url(#c)"/><path d="M51.8 101.4c1.9 0 3.6.3 5 .9 2.3 1 8.8 3 15 5l12 4c-5.2 1-9.9 2.5-14.9 4-8.7 2.5-18.5 5.5-33.8 7.7-1.4.2-3 .3-4.4.3-4 0-7.8-.7-9.9-2-2-1.3-3.7-3.7-3-5.5.8-2.6 3.4-5.2 6.6-6.8 8.8-4.1 22.1-7 22.3-7a24 24 0 0 1 5-.6m0-1a26 26 0 0 0-5.3.6s-13.5 2.9-22.4 7.1a13.8 13.8 0 0 0-7.3 7.4c-.7 2.4 1.3 5.2 3.6 6.6 2.3 1.4 6.2 2.2 10.4 2.2 1.5 0 3 0 4.6-.3 26-3.8 36.4-9.6 51.7-12.3 1.8-.3-24.7-8.1-29.8-10.3-1.6-.7-3.5-1-5.4-1z" fill="#91674D"/><linearGradient id="d" x1="36.7" x2="110.8" y1="111.8" y2="111.8" gradientUnits="userSpaceOnUse"><stop stop-color="#CCA47A" offset="0"/><stop stop-color="#D6B088" offset=".3"/><stop stop-color="#DEB892" offset=".6"/><stop stop-color="#E0BB95" offset="1"/></linearGradient><path d="M97.2 123.8l-4.5-.3A123.4 123.4 0 0 1 48 107l-2.8-1.7a9.6 9.6 0 0 0-6.3-1.5h-.6l-1 .1h-.4c-.1-.2.1-1 .4-1.5.5-1.2 2-2.5 3.6-2.5.3 0 .6 0 .9.2 2.1.7 4.7 2.3 4.8 2.3 1 .4 2 .5 2.8.5 1.3 0 2.1-.4 2.9-.7a3 3 0 0 1 1.6-.5l1 .2c1.2.5 1.4 2.1 1.4 2.8.1 1.4 2 2.5 3.2 2.7a15430.5 15430.5 0 0 0 10.7 1.1l11-7.8c2 .7 15.3 5.2 22.9 8.7 3.6 1.7 5.9 3.9 6.7 6.3.7 2.1-1.1 4.7-3.3 6-2.2 1.4-6 2.2-10.2 2.2z" fill="url(#d)"/><path d="M40.7 100.3a38.1 38.1 0 0 1 5.5 2.4l.2.1c1 .4 2 .5 2.9.5 1.4 0 2.3-.4 3-.7.6-.3 1-.5 1.4-.5.3 0 .5 0 .8.2 1 .3 1.2 1.9 1.2 2.4.1 1.6 2.2 3 3.6 3.1l10.3 1.2h.2l.5-.1 10.9-7.7c2.6.9 15.2 5.2 22.5 8.6 3.5 1.6 5.7 3.7 6.5 6 .6 1.9-1 4.2-3 5.5a21 21 0 0 1-10 2c-1.5 0-3 0-4.4-.3a122.8 122.8 0 0 1-44.6-16.5l-2.9-1.7a10.2 10.2 0 0 0-6.5-1.6H38l-.8.1.3-.7v-.1c.5-1 1.9-2.2 3.1-2.2m0-1c-1.8 0-3.4 1.5-4 2.7 0 0-1.2 2.2.2 2.3h.3l1.7-.1h1c2 0 3.3.5 5 1.5 2.7 1.6 7.6 4.8 13.1 7.5 9.9 4.8 23.5 9.3 34.7 10.8l4.5.3c4.2 0 8.2-.8 10.4-2.2 2.3-1.4 4.4-4.2 3.6-6.6-1-2.6-3.3-4.9-7-6.6C95.9 105 81 100 81 100l-11.2 8-10.3-1.3c-1.1-.1-2.7-1.1-2.8-2.2 0-1-.3-2.7-1.8-3.2-.4-.2-.8-.2-1.2-.2-1.5 0-2.3 1.1-4.4 1.1-.7 0-1.6 0-2.6-.4 0 0-2.6-1.6-4.8-2.4a3 3 0 0 0-1.2-.2z" fill="#91674D"/><linearGradient id="e" x1="64.2" x2="64.2" y1="98.2" y2="112.4" gradientUnits="userSpaceOnUse"><stop stop-color="#FB8C00" offset=".2"/><stop stop-color="#F67F00" offset=".6"/><stop stop-color="#EF6C00" offset="1"/></linearGradient><path d="M42.6 103.1l6.4-3.8c.2-.1.3-.3.3-.4v-2.7c1.6.5 6.4 1.6 15.1 1.6s13-1.1 14.6-1.6l.2 2.7c0 .1 0 .3.2.4l6.4 3.8-21.7 9.8-21.5-9.8z" fill="url(#e)"/><path d="M49.8 96.8c2 .6 6.8 1.5 14.6 1.5 7.7 0 12.1-.9 14.1-1.5l.1 2c0 .4.2.7.5.9l5.7 3.3-20.7 9.4-20.4-9.4 5.6-3.3c.3-.2.5-.5.5-.9v-2m-1-1.3v3.3l-7.3 4.4 22.6 10.3 22.8-10.3-7.3-4.4-.1-3.3s-4 1.8-15.1 1.8c-11 0-15.6-1.8-15.6-1.8z" fill="#DB6300"/><linearGradient id="f" x1="56" x2="91.6" y1="107.8" y2="107.8" gradientUnits="userSpaceOnUse"><stop stop-color="#A47B62" offset="0"/><stop stop-color="#BA8D68" offset="1"/></linearGradient><path d="M56 109.7l4.4-.5L69 108c1.2-.2 3-1.3 3.1-2.7 0-.7.3-2.3 1.5-2.8l1-.2c.6 0 1 .2 1.6.5.7.3 1.6.7 2.9.7a9 9 0 0 0 2.8-.5s2.6-1.6 4.8-2.3l.9-.2c1.5 0 3 1.3 3.5 2.4.4.7.6 1.4.5 1.6H90l-.6-.1-1.1-.1c-2 0-3.4.6-5.2 1.6l-2.6 1.6A79.2 79.2 0 0 1 66 115l-10-5.3z" fill="url(#f)"/><path d="M87.6 101c1.3 0 2.6 1.1 3 2.2h.1l.3.8h-.8l-.6-.1-1.2-.1c-2 0-3.6.7-5.4 1.7l-2.7 1.6a81.2 81.2 0 0 1-14.3 7.4l-8.4-4.5 2.9-.3 8.5-1.2c1.5-.2 3.5-1.5 3.6-3.1 0-.5.2-2 1.2-2.4l.8-.2c.5 0 .9.2 1.4.5.7.3 1.7.7 3 .7 1 0 1.9-.1 3-.5h.2a32.6 32.6 0 0 1 5.4-2.5m0-1c-.4 0-.7 0-1.1.2-2.2.8-4.9 2.4-4.9 2.4-1 .3-1.8.4-2.5.4-2.2 0-3-1.1-4.5-1.1-.3 0-.7 0-1.1.2-1.5.5-1.8 2.2-1.9 3.2 0 1-1.7 2-2.7 2.2l-8.6 1.2-6 .7 11.7 6.2 6.4-2.8c5.5-2.7 8.3-4.8 11-6.4a9.2 9.2 0 0 1 6-1.5l1.7.1h.3c1.4 0 .2-2.3.2-2.3-.6-1.2-2.2-2.7-4-2.7z" fill="#91674D"/><path d="M33 114c.3-2.1 3.3-3.5 5-3.7 9-1.2 15.3-.9 15.3-.9" fill="none" stroke="#91674D" stroke-linecap="round" stroke-linejoin="round" stroke-miterlimit="10"/><linearGradient id="g" x1="80.2" x2="100.9" y1="106.1" y2="106.1" gradientUnits="userSpaceOnUse"><stop stop-color="#A47B62" offset="0"/><stop stop-color="#BA8D68" offset="1"/></linearGradient><path d="M80.2 108c1.4-1.3 4.2-3.4 6.2-3.7l2-.1c2 0 3.5.3 3.6.3l8.9 3.5H80.2z" fill="url(#g)"/><path d="M88.5 104.7c1.7 0 3 .2 3.3.3l6.4 2.5H81.6c1.5-1.2 3.5-2.5 4.9-2.7l2-.1m0-1l-2.1.1c-3 .4-7.5 4.7-7.5 4.7h24.7L92.1 104s-1.6-.3-3.6-.3z" fill="#91674D"/><path d="M30 105.2l-3-2.2-.4-.5c-1.4-1.7-4-.8-5.7-1.4-1.7-.7-1.8-3.8-4.3-3.6-1 0 .1 3.5.1 3.5s-.5 5.8 3 7.3c4.8 2.1 8.5-1 8.5-1l1.7-2.1z" fill="#B78B67"/><defs><path id="h" d="M30.9 104l-.4-.3-1.7 1-3.2-1s1-1 1-1.2c-1.4-1.6-4-.8-5.7-1.4-1.7-.7-1.8-3.8-4.3-3.6-1 0 .1 3.5.1 3.5s-.5 5.8 3 7.3c4.8 2.1 8.5-1 8.5-1L31 104z"/></defs><clipPath id="i"><use xlink:href="#h"/></clipPath><g clip-path="url(#i)"><path d="M17.2 98.5c.5.2.8.6 1.3 1.5.5.7 1 1.6 2 2 .8.3 1.7.4 2.6.4 1.3 0 2.2.1 2.7.7.2.3.5.4.8.4.4 0 1 0 3-2.6l2.2 2-4 4a8.4 8.4 0 0 1-7.8.5c-2.2-1-2.4-5-2.3-6.3v-.4c-.3-.8-.5-1.6-.5-2.2m-.4-1h-.2c-1 0 .1 3.5.1 3.5s-.5 5.8 3 7.3c1.2.6 2.5.8 3.6.8 3 0 5-1.5 5-1.5l5-4.8-3.8-3.4s-2.3 3.1-2.8 3.1h-.1c-1.4-1.6-4-.8-5.7-1.4-1.6-.7-1.8-3.6-4-3.6z" fill="#91674D"/></g><linearGradient id="j" x1="12.3" x2="29.6" y1="104.2" y2="104.2" gradientUnits="userSpaceOnUse"><stop stop-color="#A47B62" offset="0"/><stop stop-color="#BA8D68" offset="1"/></linearGradient><path d="M15.5 106l.4-4.1v-4s1.5 0 2 1.2c.3 1.2.2 2.8.2 2.8.8.3 1.5.3 1.7 1.2l.2 2.3s.8-.4 1.4 0c1 .5 2.2 2.5 2.2 2.5s.3-1.6 2.2-2.6 3.8.2 3.8.2l-6 4.7-1.2-.2a3 3 0 0 1-2.6.4 3 3 0 0 1-1.8-1l-.4-.5-.5.2a3 3 0 0 1-2.4-1l-2.4-3v-4.7s1.2.4 1.7 1.4v2.6l3.6 4.5" fill="url(#j)" stroke="#91674D" stroke-linecap="round" stroke-linejoin="round" stroke-miterlimit="10"/><path fill="none" stroke="#91674D" stroke-linecap="round" stroke-linejoin="round" stroke-miterlimit="10" stroke-width=".7" d="M18 102v4.2l3 4m-1-5.4v1.3l2.8 3.8"/><linearGradient id="k" x1="36.7" x2="110.8" y1="111.8" y2="111.8" gradientUnits="userSpaceOnUse"><stop stop-color="#A47B62" offset="0"/><stop stop-color="#BA8D68" offset="1"/></linearGradient><path d="M97.2 123.8l-4.5-.3A123.4 123.4 0 0 1 48 107l-2.8-1.7a9.6 9.6 0 0 0-6.3-1.5h-.6l-1 .1h-.4c-.1-.2.1-1 .4-1.5.5-1.2 2-2.5 3.6-2.5.3 0 .6 0 .9.2 2.1.7 4.7 2.3 4.8 2.3 1 .4 2 .5 2.8.5 1.3 0 2.1-.4 2.9-.7a3 3 0 0 1 1.6-.5l1 .2c1.2.5 1.4 2.1 1.4 2.8.1 1.4 2 2.5 3.2 2.7.3 0 7.7 1.4 11.5 1.4s7-.5 10.3-1a57.3 57.3 0 0 1 11.5-.7 32 32 0 0 1 17.5 7.6l.5 1c.7 2.1-1.1 4.7-3.3 6-2.2 1.4-6 2.2-10.2 2.2z" fill="url(#k)"/><path d="M40.7 100.3a38.1 38.1 0 0 1 5.5 2.4l.2.1c1 .4 2 .5 2.9.5 1.4 0 2.3-.4 3-.7.6-.3 1-.5 1.4-.5.3 0 .5 0 .8.2 1 .3 1.2 1.9 1.2 2.4.1 1.6 2.2 3 3.6 3.1.3 0 7.7 1.4 11.6 1.4 3.8 0 7.1-.5 10.4-1a56.5 56.5 0 0 1 11.3-.7c6.6.8 12.3 3.2 17.2 7.4l.4 1c.6 1.7-1 4.1-3 5.3a21 21 0 0 1-10 2.1c-1.5 0-3 0-4.4-.3a122.8 122.8 0 0 1-44.6-16.5l-2.9-1.7a10.2 10.2 0 0 0-6.5-1.6H38l-.8.1.3-.8c.5-1 1.9-2.2 3.1-2.2m0-1c-1.8 0-3.4 1.5-4 2.7 0 0-1.2 2.2.2 2.3h.3l1.7-.1h1c2 0 3.3.5 5 1.5 2.7 1.6 7.6 4.8 13.1 7.5 9.9 4.8 23.5 9.3 34.7 10.8l4.5.3c4.2 0 8.1-.8 10.4-2.2 2.3-1.4 4.4-4.2 3.6-6.6a8 8 0 0 0-.6-1.2 32.2 32.2 0 0 0-20.9-8c-6 0-11.7 1.9-18.8 1.9-3.8 0-11.4-1.4-11.4-1.4-1.1-.1-2.7-1.1-2.8-2.2 0-1-.4-2.7-1.8-3.2-.5-.2-.8-.2-1.2-.2-1.5 0-2.3 1.1-4.4 1.1-.7 0-1.6 0-2.6-.4 0 0-2.7-1.6-4.9-2.4l-1-.2z" fill="#91674D"/><path d="M96.7 104l2.6-1.8s1.3.7 1.7.3c1.4-1.7 4-.8 5.6-1.4 1.7-.7 1.8-3.8 4.4-3.6 1 0-.2 3.5-.2 3.5s.5 5.8-2.9 7.3c-4.8 2.1-8.6-1-8.6-1l-2.6-3.3z" fill="#B78B67"/><defs><path id="l" d="M96.7 104l.4-.3 1.6 1 3.3-1s-1-1-1-1.2c1.4-1.6 4-.8 5.7-1.4 1.7-.7 1.7-3.8 4.3-3.6 1 0-.2 3.5-.2 3.5s.5 5.8-2.9 7.3c-4.8 2.1-8.6-1-8.6-1l-2.6-3.3z"/></defs><clipPath id="m"><use xlink:href="#l"/></clipPath><g clip-path="url(#m)"><path d="M110.4 98.5c0 .6-.3 1.4-.5 2.2v.4c0 1.4-.1 5.3-2.4 6.3a8 8 0 0 1-7.5-.5l-3.4-3.3 2.8-.7c.4.3 1 .6 1.4.6.4 0 .8-.2 1-.5.5-.6 1.4-.6 2.7-.7.8 0 1.7 0 2.5-.3 1-.4 1.6-1.3 2-2 .6-.9.9-1.3 1.4-1.5m.3-1c-2.3 0-2.4 3-4 3.6-1.8.6-4.3-.3-5.7 1.3l-.2.1c-.4 0-1.2-.7-1.2-.7l-5 1.3 4.8 4.6s1.9 1.4 4.8 1.4c1 0 2.4-.2 3.7-.8 3.4-1.5 3-7.3 3-7.3s1-3.4 0-3.5h-.2z" fill="#91674D"/></g><linearGradient id="n" x1="97.9" x2="115.2" y1="104.2" y2="104.2" gradientUnits="userSpaceOnUse"><stop stop-color="#A47B62" offset="0"/><stop stop-color="#BA8D68" offset="1"/></linearGradient><path d="M112 106l-.4-4.1.1-4s-1.6 0-2 1.2c-.4 1.2-.3 2.8-.3 2.8-.7.3-1.5.3-1.6 1.2l-.2 2.3s-.9-.4-1.4 0c-1 .5-2.2 2.5-2.2 2.5s-.4-1.6-2.2-2.6c-1.8-1-3.9.2-3.9.2l6 4.7 1.2-.2c.8.5 1.8.7 2.7.4.7-.1 1.3-.5 1.8-1l.4-.5.5.2a3 3 0 0 0 2.4-1l2.3-3v-4.7s-1.1.4-1.6 1.4l-.1 2.6-3.5 4.5" fill="url(#n)" stroke="#91674D" stroke-linecap="round" stroke-linejoin="round" stroke-miterlimit="10"/><path fill="none" stroke="#91674D" stroke-linecap="round" stroke-linejoin="round" stroke-miterlimit="10" stroke-width=".7" d="M109.5 102v4.2l-3 4m1.1-5.4v1.3l-2.9 3.8"/><path d="M63.6 54.2a3.7 3.7 0 0 1-3.8-3.6v-4.4h8.4v4.4c0 2-1.7 3.6-3.8 3.6h-.8z" fill="#99674F"/><path d="M67.7 46.7v4c0 1.7-1.5 3-3.3 3h-.8c-1.8 0-3.3-1.3-3.3-3v-4h7.4m1-1h-9.4v5c0 2.2 2 4 4.3 4h.8c2.4 0 4.3-1.8 4.3-4v-5z" fill="#875740"/><path d="M51 37.5c-2.4 0-4.5-2.2-4.5-4.9s2-4.9 4.6-4.9h25.8c2.6 0 4.6 2.2 4.6 5s-2 4.8-4.6 4.8H51.1z" fill="#99674F"/><path d="M77 28.2c2.2 0 4 2 4 4.4S79.2 37 77 37H51c-2.2 0-4-2-4-4.4s1.8-4.4 4-4.4h26m0-1H51c-2.7 0-5 2.4-5 5.4s2.3 5.4 5 5.4h26c2.7 0 5-2.4 5-5.4 0-3-2.3-5.4-5-5.4z" fill="#875740"/><linearGradient id="o" x1="64" x2="64" y1="48.1" y2="9.4" gradientUnits="userSpaceOnUse"><stop stop-color="#A47B62" offset="0"/><stop stop-color="#AD8264" offset=".2"/><stop stop-color="#B78A67" offset=".6"/><stop stop-color="#BA8D68" offset="1"/></linearGradient><path d="M64 48.4c-7.4 0-15.4-5.7-15.4-18.3 0-10.1 6-21 15.4-21S79.4 20 79.4 30c0 12.6-8 18.3-15.4 18.3z" fill="url(#o)"/><path d="M64 9.6c3.7 0 7.5 2 10.2 5.6A24 24 0 0 1 79 30c0 5.6-1.7 10.2-4.7 13.4a14 14 0 0 1-20.4 0c-3-3.2-4.7-7.8-4.7-13.4 0-5.8 1.7-11 4.7-15 2.7-3.5 6.5-5.5 10.2-5.5m0-1c-8.2 0-15.9 8.8-15.9 21.5 0 12.6 7.9 18.8 15.9 18.8S80 42.6 80 30c0-12.7-7.7-21.5-15.9-21.5z" fill="#91674D"/><path d="M52.6 27.4l.2-.3.1-.1.2-.2.2-.1.2-.2.3-.2.3-.1.3-.2.3-.1.7-.2h.8a4.9 4.9 0 0 1 1.5.2l.3.1a3 3 0 0 1 .6.3l.3.2.2.2.2.1.1.2.2.1.2.3c.2.3.1.8-.2 1-.2.2-.5.2-.7.1h-.1l-.2-.1h-.2l-.1-.1a6 6 0 0 0-.3-.2h-.5l-.1-.1H57l-.4-.1h-1.5l-.2.1h-.2l-.2.1h-.2l-.2.1H54l-.1.1h-.2l-.2.2c-.4.2-.9 0-1-.4a.8.8 0 0 1 0-.8zm21.8 1.1l-.2-.1-.2-.1-.1-.1h-.2l-.2-.1h-.2L73 28h-.2l-.5-.1h-1.7l-.2.1h-.2l-.2.1-.3.1-.1.1h-.2l-.2.2h-.1a.7.7 0 0 1-.9-1.1l.2-.3.2-.1.1-.2.2-.2.2-.1.3-.2.3-.1.3-.2.3-.1.7-.2h.8a4.9 4.9 0 0 1 1.5.2l.3.1.3.2.3.1.3.2.2.1.2.2.2.2.3.3c.2.4.1.9-.2 1-.3.3-.5.3-.8.2z" fill="#6D4C41"/><path d="M65.8 35.5h-3.6c-.3.2-.5.5-.4.8s.9 1.3 2.2 1.3 2-1 2.1-1.3c.2-.3 0-.6-.3-.7z" fill="#99674F"/><path d="M67.7 39.4a12 12 0 0 1-8 0c-.8-.5-1.7.2-1.3 1 .3.8 3 2.6 5.3 2.6s5-1.8 5.4-2.6c.3-.8-.5-1.5-1.4-1z" fill="#795548"/><radialGradient id="p" cx="64.1" cy="5.4" r="23.1" gradientUnits="userSpaceOnUse"><stop stop-color="#6D4C41" offset="0"/><stop stop-color="#543930" offset="1"/></radialGradient><path d="M64 5.3c-21.5 0-17.1 24.6-17.1 24.6l2.4 4.2c0-3.4 1.3-9.5 2.3-12.1.5-1.3 1.8-2 3.2-1.8a52 52 0 0 0 18.4 0c1.4-.3 2.7.5 3.2 1.8 1 2.6 2.4 8.7 2.3 12 0 .2 2.4-4 2.4-4s4.4-24.6-17-24.8z" fill="url(#p)"/><path d="M64 5.3c-21.5 0-17.1 24.6-17.1 24.6l2.4 4.2.1-2.4-1.2-2.2c0-.8-.4-3.3-.2-6.5.2-3.3 1-8 3.9-11.4 2.7-3.2 6.7-4.9 12-5h.1c5.3.1 9.4 1.8 12.1 5 5.1 6.1 3.9 16.2 3.6 17.9l-1.1 2.1v2.5l2.5-4.2s4.4-24.5-17-24.7z" fill="#402821"/><path d="M67.7 39.4c-1.5.9-6.4.9-7.9 0-.8-.5-1.7.2-1.4 1 .4.8 3 2.6 5.4 2.6s4.9-1.8 5.2-2.6c.4-.8-.5-1.5-1.3-1z" fill="#1A1717"/><path d="M56.3 31.9c-1 0-1.9-.3-2.5-.6-.3-.2-.4 0-.4.2.2 1.2 1.4 2 2.9 2s2.6-.8 2.8-2c0-.3-.1-.4-.4-.2-.6.3-1.5.6-2.4.6zm15.4 0c-1 0-1.9-.3-2.5-.6-.2-.2-.4 0-.3.2.1 1.2 1.3 2 2.8 2s2.6-.8 2.8-2c0-.3-.1-.4-.4-.2-.6.3-1.4.6-2.4.6z" fill="#404040"/></svg>