<svg viewBox="0 0 128 128" xmlns="http://www.w3.org/2000/svg"><path d="M28 94c-6.9 0-12.5-6.3-12.5-14s5.6-14 12.6-14h71.8c7 0 12.6 6.3 12.6 14s-5.6 14-12.6 14H28.1z" fill="#3C2B24"/><path d="M100 67.6c6 0 11 5.5 11 12.4s-5 12.4-11 12.4H28c-6 0-11-5.6-11-12.4s5-12.4 11-12.4h72m0-3H28c-7.7 0-14 7-14 15.4s6.3 15.4 14 15.4h72c7.7 0 14-7 14-15.4s-6.3-15.4-14-15.4z" fill="#291B16"/><linearGradient id="a" x1="64" x2="64" y1="122.6" y2="14.4" gradientUnits="userSpaceOnUse"><stop stop-color="#5C4037" offset="0"/><stop stop-color="#63463D" offset=".2"/><stop stop-color="#6D5047" offset=".5"/><stop stop-color="#70534A" offset="1"/></linearGradient><path d="M64 122.4c-27.4 0-42.6-18-42.6-50.5 0-19 3-32.7 8.8-42C37 19.2 48.1 14 64 14s27 5.2 33.8 16c5.9 9.3 8.8 23 8.8 42 0 32.6-15.1 50.5-42.6 50.5z" fill="url(#a)"/><path d="M64 15.5c28.8 0 41 16.9 41 56.4 0 31.6-14.5 49-41 49s-41-17.4-41-49c0-39.5 12.2-56.4 41-56.4m0-3C29.3 12.5 20 37 20 72c0 34.8 17 52 44 52s44-17.2 44-52c0-35-9.3-59.4-44-59.4z" fill="#4A2F27"/><path d="M43 57.9s8.7-3.5 20.7-3.5S85 58 85 58m-36-8.5s7-2.2 15-2.2 15 2.2 15 2.2M48.2 86.8a10 10 0 0 1-12.6 0m56.8 0a10 10 0 0 1-12.6 0M50.2 94.3l-9.6 9.5m37.2-9.5l9.6 9.5" fill="none" stroke="#4A2F27" stroke-linecap="round" stroke-linejoin="round" stroke-miterlimit="10" stroke-width="3"/><path d="M95.8 65.3c-1.3-1.6-4.1-4-9.7-4s-8.4 2.4-9.6 4c-.5.7-.4 1.6 0 2 .3.5 1.4 1 2.5.6s3.4-1.6 7.1-1.6c3.8 0 6 1.2 7.2 1.6s2.1 0 2.5-.5c.4-.5.5-1.4 0-2.1zm-43.9 0c-1.2-1.6-4.1-4-9.6-4s-8.4 2.4-9.6 4c-.6.7-.5 1.6 0 2 .3.5 1.3 1 2.5.6s3.3-1.6 7-1.6c3.8 0 6 1.2 7.2 1.6s2.2 0 2.5-.5c.4-.5.5-1.4 0-2.1z" fill="#9E9E9E"/><g fill="#1A1717"><ellipse cx="42.3" cy="77.3" rx="6.5" ry="6.7"/><ellipse cx="86.1" cy="77.3" rx="6.5" ry="6.7"/></g><path d="M69 89.6l-.4-.1H58.9c-.8.4-1.3 1.3-.9 2.2.4 1 2.3 3.5 6 3.5s5.6-2.6 6-3.5 0-1.8-1-2.1z" fill="#33251F"/><path d="M75 100a33.2 33.2 0 0 1-22 0c-2.5-1.5-5 .7-4 3 1 2 8.5 7 15 7s13.9-5 14.8-7c1-2.3-1.4-4.5-3.8-3z" fill="#1A1717"/><radialGradient id="b" cx="63.1" cy="19" r="48.1" gradientUnits="userSpaceOnUse"><stop stop-color="#D1D1D1" offset="0"/><stop stop-color="#9E9E9E" offset="1"/></radialGradient><path d="M64 4.2c-23.9 0-26.4 11.4-27 11.2-6.9-1.4-16.3 4-21.5 13.1-13.4 23.8 3 42.5 3.3 44.6 1.8 10.8 2.7 12.7 2.7 12.7s.5-14.9 8.6-24.5c5.2-6.2 10.1-19.8 10.1-19.8s14.6 5.3 25.6 11.8A62 62 0 0 1 81 66s1.8-5.5.4-11.3c-3-12.3-14.6-17.9-14.6-17.9s5.8 1.7 13.7 8.8c17.4 15.8 22 44.4 22 44.4 6-5.5 15.9-19 14.7-39A51 51 0 0 0 64 4.2z" fill="url(#b)"/><path d="M40 16.3c3.6-6 11.6-9.2 24-9.2h.3a47 47 0 0 1 40 18.5 54.6 54.6 0 0 1 10 26 48.2 48.2 0 0 1-12.6 34.7l.8 3.8A50.1 50.1 0 0 0 117.2 51a51 51 0 0 0-53-47H64C40.3 4 37.7 15.4 37 15.4c-.8-.2-1.7-.2-2.7-.2-7 0-13.2 4.3-18.1 12.2C1.7 50.7 18.5 71 18.8 73.1a71 71 0 0 0 2.7 12.7s.1-3.4 1.1-8c-.3-2.2-.7-4-1.2-6.5-.2-.5-15.3-21.6-2.9-41.8 4.3-7 9.9-11.3 15.8-11.3.8 0 1.5 0 2 .2h.7c1.8 0 2.7-1.4 3-2.1z" fill="gray"/></svg>