<svg viewBox="0 0 128 128" xmlns="http://www.w3.org/2000/svg"><path d="M41.4 98.5C39.1 98.2 22 96 17.2 86.3 5 62 17.9 50 22.7 45.3l1.4-1.3c.5-.5 1.3-.8 2.4-.8 4.3 0 11.1 3.8 13.5 5.7 4.2 3.5 7 8.1 8.4 13.7A205 205 0 0 0 54 78.9c2 5.3 4.3 11.8 4.8 14-2.1 1-10.3 3.6-17.4 5.5z" fill="#67483C"/><path d="M26.5 44.7c3.7 0 10.3 3.5 12.5 5.3 4 3.4 6.7 7.7 7.9 13 .6 2.6 3 9.3 5.7 16.4L57 92a174 174 0 0 1-15.7 5c-5.5-.6-19-3.6-22.8-11.3-11.6-23.4.2-34.5 5.2-39.2.7-.6 1.2-1 1.5-1.5.2-.2.7-.3 1.3-.3m0-3c-1.4 0-2.7.4-3.5 1.3-3 3.3-21.2 15.8-7.2 44 5.7 11.3 25.7 13 25.7 13s18.9-5.1 19-6.6c0-2-9.5-26-10.7-31.1-1.2-5.3-4-10.4-8.9-14.5a30 30 0 0 0-14.4-6z" fill="#3F2720"/><path d="M86.6 98.5c-7.2-2-15.3-4.5-17.4-5.7.5-2 2.9-8.6 4.8-14a193 193 0 0 0 5.6-16.2A24.6 24.6 0 0 1 88 48.9c2.4-2 9.2-5.7 13.5-5.7 1.1 0 2 .3 2.4.8l1.4 1.4c4.8 4.5 17.7 16.6 5.5 41-4.8 9.7-22 11.8-24.2 12z" fill="#67483C"/><path d="M101.5 44.7c.6 0 1.1.1 1.3.3l1.5 1.5c5 4.7 16.8 15.8 5.2 39.2-4.4 8.7-19.8 10.9-22.8 11.2-6-1.6-12.8-3.7-15.7-4.9a440 440 0 0 1 4.4-12.6c2.6-7 5-13.8 5.7-16.5A23 23 0 0 1 89 50.1c2.2-1.9 8.8-5.4 12.5-5.4m0-3a26.3 26.3 0 0 0-23.3 20.5C77 67.4 67.5 91.5 67.6 93.3c0 1.6 18.9 6.7 18.9 6.7s20-1.7 25.7-13c14-28.2-4.2-40.7-7.2-44-.8-1-2-1.3-3.5-1.3z" fill="#3F2720"/><path d="M26.3 95.4c-7.6 0-13.8-6-13.8-13.3 0-7.3 6.2-13.2 13.8-13.2h75.5c7.6 0 13.8 6 13.8 13.2 0 7.3-6.2 13.3-13.8 13.3H26.3z" fill="#99674F"/><path d="M101.8 70c7 0 12.8 5.4 12.8 12.1s-5.8 12.3-12.8 12.3H26.3c-7 0-12.7-5.5-12.7-12.3S19.3 70 26.3 70h75.5m0-2H26.3c-8 0-14.7 6.4-14.7 14.2s6.6 14.3 14.7 14.3h75.5c8.1 0 14.8-6.4 14.8-14.3S109.9 68 101.8 68z" fill="#875740"/><linearGradient id="a" x1="63.8" x2="63.8" y1="122.5" y2="9.9" gradientUnits="userSpaceOnUse"><stop stop-color="#A47B62" offset="0"/><stop stop-color="#AD8264" offset=".2"/><stop stop-color="#B78A67" offset=".6"/><stop stop-color="#BA8D68" offset="1"/></linearGradient><path d="M63.8 122.5c-21.4 0-44.5-16.3-44.5-52.1 0-16.7 4.9-32 13.7-43.2 8.3-10.5 19.5-16.5 30.8-16.5s22.5 6 30.7 16.5a69.7 69.7 0 0 1 13.7 43.1c0 16.3-4.8 29.9-13.8 39.3a42 42 0 0 1-30.6 12.9z" fill="url(#a)"/><path d="M63.8 12.2c10.8 0 21.6 5.8 29.5 16a67 67 0 0 1 13.4 42.1c0 15.8-4.6 29-13.4 38.1-7.7 8-18.2 12.5-29.5 12.5s-21.8-4.5-29.5-12.5a53.6 53.6 0 0 1-13.5-38.1C20.8 54 25.6 39 34.2 28a38.5 38.5 0 0 1 29.6-15.9m0-3c-23.9 0-46 25-46 61.1 0 36 22.8 53.7 46 53.7s46-17.8 46-53.6c0-36.1-22.2-61.2-46-61.2z" fill="#91674D"/><path d="M68.9 87.1H58.7c-.8.4-1.3 1.3-.9 2.2.4.9 2.3 3.5 6 3.5s5.6-2.6 6-3.5 0-1.8-1-2.2z" fill="#99674F"/><path d="M32.5 68.4l.5-.7.3-.3.5-.4.5-.5.7-.5.7-.4.8-.5.8-.4 1-.3 2-.5 2.1-.2c.7 0 1.5 0 2.2.2l2 .5.9.3.9.4.8.5.7.4.6.5.5.4.4.4.4.4.6.8a2 2 0 0 1-.5 2.9 2 2 0 0 1-1.9.2h-.3l-.7-.3-.3-.2-.4-.1-1-.4-.4-.1-.6-.2H46l-.3-.1-.6-.1-1.3-.2H41l-1.4.2-.6.1h-.3l-.3.1-.5.2-.6.2-.4.1-.4.1-.4.1-.4.2-.7.4a2.1 2.1 0 0 1-2.6-3.2zm60 3.2l-.7-.4-.4-.2h-.3l-.4-.2-.5-.2-.5-.1-.6-.2h-.3l-.3-.1-.6-.1-1.3-.2h-2.7l-1.4.2H82l-.3.2h-.3l-.5.2-.6.1-.9.4-.4.1-.3.1-.6.3-.4.1a2 2 0 0 1-2.6-1.2c-.3-.7-.1-1.4.2-2l.6-.7.4-.4.4-.4.6-.5.6-.4.7-.5.8-.4.8-.4 1-.3 2-.5 2.1-.2c.7 0 1.5 0 2.2.2.7 0 1.3.3 2 .5l1 .3.8.4.8.4.7.5.6.5.6.5.4.4.3.3.5.7c.7 1 .4 2.3-.5 3-.6.4-1.4.4-2 .2z" fill="#613E31"/><g fill="#49362E"><ellipse cx="42" cy="80.3" rx="6.5" ry="6.7"/><ellipse cx="85.7" cy="80.3" rx="6.5" ry="6.7"/></g><path d="M75 98a33.2 33.2 0 0 1-22 0c-2.5-1.5-5 .7-4 3 1 2 8.5 7 15 7s13.9-5 14.8-7c1-2.3-1.4-4.5-3.8-3z" fill="#5D4037"/><radialGradient id="b" cx="62.8" cy="23.5" r="45.9" gradientUnits="userSpaceOnUse"><stop stop-color="#6D4C41" offset="0"/><stop stop-color="#543930" offset="1"/></radialGradient><path d="M64 4.2c-23.9 0-26.4 11.4-27 11.2-6.9-1.4-16.3 4-21.5 13.1-12.4 22-3.1 33.6-1.4 36.9l1.1 5.6c1.5 4.7 2.7 11.4 4.3 11 1.4-.5 1.7-4.6 1.6-10.3 4.1-.8 9.3-5 13-10 6.5-9 8.2-13.9 8.2-13.9s7 7 19.5 10.7C72.4 61.6 81 61.9 81 56.7c0-4.9-3.7-11.8-3.7-11.8s4.1 6 9.7 9.7c3.7 2.5 12.2 12.9 19.6 14v.7c-.3 7-.1 12.2 1.5 12.7s2.8-6.2 4.2-11c.4-1.3.8-3 1-4.6a16 16 0 0 0 3.2-5.4C123.6 42.8 103 4.2 64 4.2z" fill="url(#b)"/><path d="M64 4.2c-23.7 0-26.3 11.2-27 11.2l-2.3-.2c-6.6 0-14.6 5.1-19.2 13.3-12.4 22-3.1 33.6-1.4 36.9l1.1 5.6c1.4 4.6 2.6 11 4.1 11h.2c.7-.3 1.1-1.1 1.3-3-1-2.8-3.1-11.5-3.7-14l-.3-1-.7-1.2C13.8 59 7.6 48.6 18 30c4.4-7.8 11.7-11.8 16.6-11.8.6 0 1.2 0 1.7.2h.6c1.8 0 2.7-1.4 3-2 3.6-6.2 11.6-9.2 24-9.2 17.4 0 33 8.3 42.9 22.8 7 10.3 9.8 22.3 6.8 30-.7 1.8-1.6 3.3-2.6 4.3a3 3 0 0 0-.8 1.6 84 84 0 0 1-3.4 14.2c.2.5.5 2 1.2 1.9h.1c1.5 0 2.7-6.4 4.1-11l1-4.6a16 16 0 0 0 3.2-5.4C123.6 42.8 103 4.2 64 4.2z" fill="#3F2720"/></svg>