<svg viewBox="0 0 128 128" xmlns="http://www.w3.org/2000/svg" xmlns:xlink="http://www.w3.org/1999/xlink"><defs><path id="a" d="M4 4h120v120H4z"/></defs><clipPath id="b"><use xlink:href="#a"/></clipPath><path d="M81.5 8c3.3 2.2 5.5 5.7 8.3 8.6s6.4 5.5 10.4 5.2c1.8-.2 3.7-1.1 4.1-2.9.9 1.1 1 2.7.4 4s-1.6 2.2-2.7 3c-5 3.5-12 3.5-17.4.6s-5.4-8.3-10.1-12.2c-4.6-3.8-8.9-4-9.4-5.6-.6-1.8 2-3 3.3-3.3 4.5-1 9.4-.1 13.1 2.5z" clip-path="url(#b)" fill="#1A1A1A" stroke="#3E3E3E" stroke-miterlimit="10" stroke-width="1.4"/><circle cx="64.6" cy="11.1" r="4.9" clip-path="url(#b)" fill="#FFD107" stroke="#D1AC2B" stroke-miterlimit="10"/><g clip-path="url(#b)"><path d="M39.5 72c-2.7-.5-9.5-2.9-14.1-11.8a54 54 0 0 1-3.8-20L39.5 51v21z" fill="#2381B1"/><path d="M22.6 42.1l15.9 9.5v19.2a21 21 0 0 1-12.2-11c-2.5-4.9-3.3-13-3.6-17.7m-2.2-3.6s.1 14.6 4 22.2c6 11.6 16 12.6 16 12.6V50.4l-20-11.9z" fill="#005686"/><path d="M88.5 51l18-10.7a60 60 0 0 1-3.9 20 21.5 21.5 0 0 1-14 11.8V51z" fill="#2381B1"/><path d="M105.3 42.1a51.4 51.4 0 0 1-3.6 17.6 20.8 20.8 0 0 1-12.2 11v-19l15.8-9.5m2.2-3.6l-20 12v22.8s10-1 16-12.6c3.9-7.6 4-22.2 4-22.2z" fill="#005686"/></g><g clip-path="url(#b)"><linearGradient id="c" x1="64" x2="64" y1="90.4" y2="128.3" gradientUnits="userSpaceOnUse"><stop stop-color="#2FA2C6" offset="0"/><stop stop-color="#2B9AC2" offset=".2"/><stop stop-color="#2286B7" offset=".7"/><stop stop-color="#1976AD" offset="1"/></linearGradient><path d="M13 131v-10c0-6.8 4.2-12.5 12.5-16.7a79 79 0 0 1 29.5-7c.5 0 1-.5 1-1v-5.2h16v5.2c0 .6.5 1 1 1 19.4 1.5 42 8.6 42 23.8v9.9H13z" fill="url(#c)"/><path d="M71 92v4.3c0 1.1.9 2 2 2 11.4 1 21.7 3.5 29 7.3 8 4 12 9.3 12 15.5v8.9H14v-9c0-6.4 4-11.8 12-15.8 7.2-3.7 17.3-6 29-6.9 1.1 0 2-1 2-2v-4.2h14m2-2H55v6.2c-22.4 1.6-43 9-43 24.8V132h104v-11c0-14.7-20.5-23-43-24.6V90z" fill="#005686"/></g><path d="M29.3 64.4a4 4 0 1 1 0 8.1 4 4 0 0 1 0-8.1m0-2.5a6.6 6.6 0 1 0 0 13.1 6.6 6.6 0 0 0 0-13.1zm69.5 2.5a4 4 0 1 1 0 8.1 4 4 0 0 1 0-8.1m0-2.5a6.6 6.6 0 1 0 0 13.1 6.6 6.6 0 0 0 0-13.1z" clip-path="url(#b)" fill="#FFD107" stroke="#D1AC2B" stroke-miterlimit="10"/><g clip-path="url(#b)"><linearGradient id="d" x1="63.9" x2="63.9" y1="11.7" y2="93.4" gradientUnits="userSpaceOnUse"><stop stop-color="#34ABD1" offset=".3"/><stop stop-color="#32A7CD" offset=".4"/><stop stop-color="#2D9BC4" offset=".6"/><stop stop-color="#2689B5" offset=".7"/><stop stop-color="#1B72A3" offset=".9"/><stop stop-color="#186C9F" offset="1"/></linearGradient><path d="M64 95.3c-15.5 0-27.8-10.9-31.4-27.6v-.4c-5-27.4 2-40.8 6.6-46.3C44.7 14.3 53 10.8 64 10.8c10.7 0 19 3.4 24.5 10 11.3 13.6 8.6 37 7 46.4l-.1.6C91.8 84.5 79.5 95.3 64 95.3z" fill="url(#d)"/><path d="M64 11.8c10.4 0 18.4 3.3 23.7 9.7 11 13.2 8.4 36.3 6.8 45.6v.4C90.8 83.8 79 94.3 64 94.3S37 83.8 33.6 67.5v-.4c-5-27 1.8-40 6.3-45.5 5.4-6.5 13.5-9.8 24-9.8m.1-2C20 10 30.8 63.2 31.6 67.9c4 19 18.1 28.4 32.4 28.4s28.3-9.4 32.4-28.4C96.9 64.8 108 10 64 9.8z" fill="#005686"/></g><path d="M40 50.7l.4-.5.2-.2.4-.4c.2 0 .2-.2.4-.4l.5-.3.5-.4.6-.3.7-.3c.3 0 .4-.2.7-.3l1.5-.3 1.6-.2a5 5 0 0 1 1.7.2l1.5.3a8.6 8.6 0 0 1 1.4.6l.6.3.5.4.5.3.4.4.3.3.3.3.4.5c.5.7.4 1.7-.3 2.2-.4.3-1 .4-1.4.2H53l-.5-.3h-.3l-.3-.2-.7-.2-.4-.2h-.4l-.2-.1H50l-.4-.2h-1l-1-.1h-1l-1 .1-.6.1h-.2l-.2.1-.4.1-.4.2h-.4l-.3.2h-.3l-.3.2-.5.3c-.9.3-1.8 0-2.1-.9-.3-.5-.2-1 0-1.5z" clip-path="url(#b)" fill="#662F1C"/><ellipse cx="47.6" cy="58.8" rx="4.9" ry="5.1" clip-path="url(#b)" fill="#1A1A1A"/><path d="M86 53.1l-.5-.2-.3-.2h-.3l-.3-.2h-.3l-.4-.2-.5-.1h-.2L83 52l-.5-.1-1-.1h-3l-.5.2h-.5l-.4.2-.4.1c-.3 0-.5.2-.7.3h-.3l-.3.2-.4.2h-.3c-.8.4-1.7 0-2-.9-.2-.5-.1-1 .2-1.4l.4-.6.3-.3.3-.3.4-.3.5-.4.5-.3.6-.4c.3 0 .5-.2.7-.3l.7-.2 1.6-.4 1.6-.1 1.6.1c.5 0 1 .2 1.6.4a8.6 8.6 0 0 1 1.3.5l.6.4.6.3.4.4.5.3c.2.1.2.3.3.4l.3.3.3.5c.5.7.3 1.7-.4 2.2-.5.3-1 .3-1.6.1z" clip-path="url(#b)" fill="#662F1C"/><ellipse cx="80.4" cy="58.8" rx="4.9" ry="5.1" clip-path="url(#b)" fill="#1A1A1A"/><path d="M67.9 68h-7.7c-.7.3-1 1-.7 1.7s1.7 2.7 4.5 2.7 4.3-2 4.6-2.7c.3-.7-.1-1.4-.7-1.6z" clip-path="url(#b)" fill="#4B4B4B"/><path d="M72.4 76.1a25.6 25.6 0 0 1-16.8 0c-1.8-1-3.7.6-3 2.3.8 1.6 6.5 5.4 11.4 5.4s10.6-3.8 11.3-5.4c.8-1.7-1-3.4-2.9-2.3z" clip-path="url(#b)" fill="#1A1A1A"/><g clip-path="url(#b)"><defs><path id="e" d="M73 96.3v-6.2H55v6.2c-22.4 1.6-43 9-43 24.8V132h104v-11c0-14.7-20.5-23-43-24.7z"/></defs><clipPath id="f"><use xlink:href="#e"/></clipPath><g clip-path="url(#f)"><linearGradient id="g" x1="39.2" x2="39.2" y1="97.5" y2="134" gradientUnits="userSpaceOnUse"><stop stop-color="#E86F96" offset="0"/><stop stop-color="#CD5271" offset=".3"/><stop stop-color="#BC3C59" offset=".6"/><stop stop-color="#B22F4D" offset=".9"/><stop stop-color="#AE2A48" offset="1"/></linearGradient><path fill="url(#g)" d="M27.5 133.3l2.4-36 13.5-2.6 7.5 38.6z"/><path d="M42.6 95.8l7 36.5h-21l2.3-34.1 11.7-2.4m1.6-2.3l-15.2 3-2.6 37.8h25.7l-8-40.8z" fill="#FDD836"/></g><g clip-path="url(#f)"><linearGradient id="h" x1="1898.3" x2="1898.3" y1="97.5" y2="134" gradientTransform="matrix(-1 0 0 1 1987.2 0)" gradientUnits="userSpaceOnUse"><stop stop-color="#E86F96" offset="0"/><stop stop-color="#CD5271" offset=".3"/><stop stop-color="#BC3C59" offset=".6"/><stop stop-color="#B22F4D" offset=".9"/><stop stop-color="#AE2A48" offset="1"/></linearGradient><path fill="url(#h)" d="M77.2 133.3l7.4-38.6 13.5 2.6 2.4 36z"/><path d="M85.4 95.8l11.7 2.4 2.3 34.1h-21l7-36.5m-1.6-2.3L76 134.3h25.6L99 96.5l-15.2-3z" fill="#FDD836"/></g></g><path d="M95.7 67.2c-1.5 4.3-4.3 13.4-19.2 21.7a32 32 0 0 1-5.8 2c-1.5.3-3-.2-3.8-1.4-.7-1-1.8-3.9-3-3.9-1 0-2 2.9-2.7 3.8l-.1.1a3.5 3.5 0 0 1-3.6 1.4 21 21 0 0 1-6-2c-14.9-8.3-17.7-17.5-19.2-21.8-.6-1.8-.8-.7-.8-.7 1.4 9.2 6.9 31.1 32.5 31.5 25.6-.4 31.1-22.3 32.5-31.5 0 0-.2-1-.8.7z" clip-path="url(#b)" fill="#1A1A1A"/><path d="M25.5 49.9c3 2.2 4 2.5 5.7 5.9m71.3-5.9c-3 2.2-4 2.5-5.7 5.9" clip-path="url(#b)" fill="none" stroke="#005686" stroke-miterlimit="10" stroke-width="2"/></svg>