<svg xmlns="http://www.w3.org/2000/svg" viewBox="0 0 36 36"><path fill="#D5AB88" d="M5 28a1 1 0 0 1-.4-1.9l5.5-2.8 1-5.5a1 1 0 1 1 1.9.4l-1 6c0 .3-.3.6-.6.7l-6 3a1 1 0 0 1-.4.1zm26 0a1 1 0 0 1-.4-.1l-6-3a1 1 0 0 1-.6-.7l-1-6a1 1 0 1 1 2-.4l.9 5.5 5.5 2.8A1 1 0 0 1 31 28z"/><path fill="#4289C1" d="M13 27.3h10v4.4H13z"/><path fill="#963B22" d="M19 0a6 6 0 0 0-3.4 1H15a4 4 0 0 0-4 4v4a7 7 0 1 0 14 0V6a6 6 0 0 0-6-6z"/><path fill="#9268CA" d="M23 15H13c-2.6 0-2.5 4-2.5 4H13v9h10v-9h2.5s0-4-2.5-4z"/><path fill="#D5AB88" d="M16 11v4a2 2 0 0 0 4 0v-4h-4z"/><path fill="#D5AB88" d="M16 3s0 3.3-3 3.9V9a5 5 0 1 0 10 0V7c-7-.4-7-4-7-4z"/><path fill="#DF1F32" d="M20 12h-4s0 1 2 1 2-1 2-1z"/><circle fill="#662113" cx="15.5" cy="8.5" r=".5"/><circle fill="#662113" cx="20.5" cy="8.5" r=".5"/><path fill="#C1694F" d="M17 10h2s0 1-1 1-1-1-1-1z"/><path fill="#D5AB88" d="M8.4 34.6c.3.7 1.2 1.1 2 .8l12.4-3.8s3.5.7 3.3-1.3c0-1.5-2.6-2.3-4.5-1.5-1.8.8-12.3 3.8-12.3 3.8-.8.3-1.2 1.2-.9 2z"/><path fill="#CC9B7A" d="M25.8 30.6c-.3-.7-2-.4-2.5-.3L9.8 34.5c-.9.3-.3 1 .1 1h.1l11.8-3.6c.9-.3 1.9-.2 2.7-.3l.9-.2c.2 0 .5-.3.4-.8z"/><path fill="#D5AB88" d="M27.6 34.6c-.3.7-1.2 1.1-2 .8l-12.4-3.8s-3.5.7-3.3-1.3c0-1.5 2.6-2.3 4.5-1.5 1.8.8 12.3 3.8 12.3 3.8.8.3 1.2 1.2.9 2z"/><path fill="#CC9B7A" d="M10.2 30.6c.3-.7 2-.4 2.5-.3l13.5 4.2c.9.3.3 1-.1 1H26l-11.8-3.6c-.9-.3-1.9-.2-2.7-.3l-.9-.2a.7.7 0 0 1-.4-.8z"/></svg>