<svg xmlns="http://www.w3.org/2000/svg" viewBox="0 0 36 36"><path fill="#662113" d="M8 14S7 28 7 33h11V13L8 14zm20 0s1 14 1 19H18V13l10 1z"/><path fill="#662113" d="M18 12V4C13 4 8 7 8 13s2.6.9 3 0c2-4 5-1 7-1zm0 0V4c5 0 10 3 10 9s-2.6.9-3 0c-2-4-5-1-7-1z"/><path fill="#3B88C3" d="M32 36v-2a6 6 0 0 0-6-6H10a6 6 0 0 0-6 6v2h28z"/><path fill="#D5AB88" d="M13.6 28.1c1.8 1.3 2.9 2 4.4 2 1.5 0 2.6-.7 4.4-2v-3.8h-8.8V28z"/><path fill="#CC9B7A" d="M13.6 26a5.7 5.7 0 0 0 4.4 1.7c1.6 0 3.1-.4 4.4-1.7v-3.5h-8.8V26z"/><path fill="#D5AB88" d="M9.5 17c0-5.6 3.8-10.2 8.5-10.2s8.5 4.6 8.5 10.2c0 5.5-3.8 10-8.5 10s-8.5-4.5-8.5-10z"/><path fill="#C1694F" d="M18 23.8c-2.8 0-3.6-.7-3.7-.8a.7.7 0 0 1 .9-1s.7.5 2.8.5c2.2 0 2.8-.5 2.8-.5.3-.3.7-.2 1 0 .2.3.2.7 0 1-.2.1-1 .8-3.8.8z"/><path fill="#662113" d="M14 17a1 1 0 0 1-1-1v-1c0-.6.5-1 1-1s1 .5 1 1v1c0 .6-.5 1-1 1zm8 0a1 1 0 0 1-1-1v-1c0-.6.5-1 1-1s1 .5 1 1v1c0 .6-.5 1-1 1z"/><path fill="#C1694F" d="M18.8 19.8h-1.6a.8.8 0 0 1 0-1.6h1.6a.8.8 0 0 1 0 1.6z"/><path fill="#D5AB88" d="M8 14.3L9.9 16s1.2 3.4 0 4C7.2 21.5 5 14.6 5 13.3c0-1 3 1 3 1zm19.4 0L25.5 16s-1.2 3.4 0 4c2.7 1.4 5.5-5.5 5.5-6.8 0-1-3.6 1-3.6 1z"/><path fill="#662113" d="M18 4c-5 0-9 3-9 9s1.6.9 2 0c2-4 5-3 7-3s5-1 7 3c.4.9 2 6 2 0s-4-9-9-9z"/><path fill="#662113" d="M9 13L8 36h4s-2.6-20.5-1-23c.7-1-2 0-2 0zm18 0l1 23h-4s2.7-20.5 1-23c-.6-1 2 0 2 0z"/></svg>