<svg viewBox="0 0 128 128" xmlns="http://www.w3.org/2000/svg"><symbol id="d" viewBox="-64.5 -64.5 129 129"><g fill="none" stroke="#4285F4" stroke-miterlimit="10"><path d="M-64-64H64V64H-64z"/><path d="M36.95 37.82C27.32 46.32 14.2 51 0 51c-14.27 0-27.39-4.62-36.96-13.01C-47.45 28.79-53 15.65-53 0c0-15.58 5.55-28.69 16.04-37.92C-27.36-46.35-14.24-51 0-51c14.17 0 27.29 4.71 36.95 13.25C47.45-28.45 53-15.4 53 0c0 15.47-5.55 28.55-16.05 37.82z"/><path d="M0 55c-29.59 0-57-19.01-57-55 0-35.8 27.41-55 57-55S57-35.31 57 0c0 35.51-27.41 55-57 55z"/><path d="M0-43c-12.29 0-23.54 3.94-31.68 11.09C-40.39-24.25-45-13.21-45 0c0 29.7 22.6 43 45 43 21.67 0 45-13.46 45-43S21.67-43 0-43zM-.01 51V-51M-16 48.95v-97.88M15.99 48.91v-97.84M53 .08H-53"/></g></symbol><linearGradient id="a" x1="63.742" x2="63.742" y1="18.823" y2="106.85" gradientUnits="userSpaceOnUse"><stop stop-color="#FEE133" offset=".5"/><stop stop-color="#FEDE32" offset=".612"/><stop stop-color="#FCD32F" offset=".708"/><stop stop-color="#FAC12B" offset=".797"/><stop stop-color="#F7A924" offset=".883"/><stop stop-color="#F6A323" offset=".9"/></linearGradient><path d="M63.74 119.04c-27.95 0-58.02-17.5-58.02-55.92S35.8 7.21 63.74 7.21c15.49 0 29.83 5.13 40.38 14.44 11.55 10.19 17.65 24.53 17.65 41.48 0 16.87-6.1 31.19-17.65 41.41-10.58 9.35-24.92 14.5-40.38 14.5z" fill="url(#a)"/><path d="M63.74 9.21c15 0 28.87 4.95 39.05 13.94 11.1 9.8 16.97 23.62 16.97 39.98 0 16.28-5.87 30.08-16.98 39.91-10.21 9.03-24.08 14.01-39.05 14.01-15.04 0-28.92-4.91-39.06-13.83C13.58 93.46 7.72 79.6 7.72 63.12c0-16.55 5.87-30.44 16.96-40.17C34.8 14.09 48.67 9.21 63.74 9.21m0-4c-31.16 0-60.02 20.01-60.02 57.92 0 37.7 28.86 57.92 60.02 57.92s60.02-20.73 60.02-57.92c.01-37.39-28.85-57.92-60.02-57.92z" fill="#EB8F00"/><path d="M85.32 46.9c4.42 0 8.45 3.74 8.45 9.94s-4.02 9.94-8.45 9.94c-4.42 0-8.45-3.74-8.45-9.94s4.03-9.94 8.45-9.94z" fill="#303030"/><path d="M71.34 30.09s.06-.07.16-.2c.11-.14.23-.32.48-.58.49-.55 1.16-1.22 2.03-1.97 1.75-1.49 4.31-3.22 7.37-4.32.77-.28 1.57-.49 2.4-.66s1.72-.24 2.57-.24c.26-.01.85.02 1.31.07.46.06.85.14 1.25.23.79.2 1.51.48 2.13.79 1.25.63 2.11 1.38 2.68 1.94.28.29.49.53.63.71.17.22.26.34.26.34a2.24 2.24 0 1 1-3.48 2.82c.01.01.01.03-.08-.04-.08-.06-.22-.16-.41-.28-.38-.24-.96-.57-1.66-.79-.36-.1-.74-.2-1.14-.24-.19-.02-.43-.03-.6-.03-.18.02-.24-.01-.65.04-.48.02-.95.2-1.49.33-.53.15-1.08.37-1.65.58-.57.22-1.13.49-1.7.75s-1.12.55-1.66.82-1.06.57-1.55.83c-.49.28-.96.54-1.39.78-.84.49-1.55.9-2.04 1.18l-.83.5c-1.08.65-2.48.3-3.13-.78-.46-.84-.37-1.86.19-2.58zM49.82 45.37s-1.25-.38-3.03-1.12c-.89-.36-1.92-.82-3.01-1.34-1.09-.51-2.23-1.1-3.36-1.69-1.12-.62-2.25-1.23-3.28-1.85a57.32 57.32 0 0 1-2.79-1.75c-1.61-1.06-2.62-1.89-2.62-1.89-.98-.8-1.12-2.24-.32-3.21.6-.74 1.57-1 2.43-.74 0 0 1.25.38 3.03 1.12.89.36 1.92.82 3.01 1.34 1.09.51 2.23 1.1 3.36 1.69 1.12.62 2.25 1.23 3.28 1.85 1.03.61 1.99 1.21 2.79 1.75 1.61 1.06 2.62 1.89 2.62 1.89.98.8 1.12 2.24.32 3.21-.6.74-1.57 1-2.43.74z" fill="#EB8F00"/><circle cx="85.63" cy="56.81" r="20.59" fill="#ccc" fill-opacity=".5" stroke="#404040" stroke-miterlimit="10" stroke-width="3.5"/><path d="M112.56 53H107v9h5.56c2.69 0 5.44-1.66 5.44-4.35v-.37c0-2.7-2.75-4.28-5.44-4.28zm-.47 7.71c-1.9 0-3.45-1.49-3.45-3.33s1.54-3.33 3.45-3.33 3.45 1.49 3.45 3.33-1.55 3.33-3.45 3.33z" fill="#404040"/><path d="M100.89 55.61s-.03-.18-.08-.52c-.06-.33-.09-.87-.25-1.44-.07-.29-.15-.62-.23-.97-.12-.35-.25-.72-.39-1.13-.31-.79-.74-1.64-1.26-2.53-.57-.86-1.23-1.77-2.09-2.57-.82-.84-1.85-1.55-2.94-2.2-1.1-.66-2.35-1.1-3.63-1.48-1.3-.34-2.66-.5-4.03-.52-.6.03-1.49.01-2.07.13-.33.05-.65.07-.98.14l-.99.22c-1.29.36-2.56.77-3.66 1.42-1.11.63-2.14 1.33-2.98 2.15-.88.79-1.54 1.69-2.12 2.54-.53.89-.96 1.73-1.27 2.52-.14.4-.27.78-.39 1.12-.09.36-.16.69-.24.99-.16.6-.18 1.08-.25 1.41-.05.33-.08.51-.08.51l-.01.05c-.04.26-.28.43-.54.4a.472.472 0 0 1-.4-.47s0-.19.01-.54c.03-.35-.04-.88.08-1.54.04-.33.09-.7.15-1.1.09-.39.19-.82.3-1.27.12-.45.31-.92.47-1.42.19-.49.46-.98.71-1.51.59-1 1.29-2.07 2.23-3.03.9-.99 2.02-1.89 3.28-2.63 1.25-.78 2.67-1.33 4.15-1.74l1.13-.26c.38-.08.79-.12 1.18-.18.85-.14 1.44-.11 2.29-.16 1.56.04 3.11.24 4.6.64 1.47.44 2.88 1.03 4.12 1.81s2.35 1.68 3.23 2.68c.92.97 1.61 2.04 2.19 3.05.24.53.52 1.01.7 1.51.17.5.35.96.47 1.42.11.45.21.88.3 1.27.05.41.1.78.15 1.12.12.68.05 1.16.07 1.51 0 .34.01.53.01.53 0 .26-.21.48-.47.48-.24 0-.44-.18-.47-.41z" fill="#fff"/><path d="M112.19 73.88h-.05c-.27 0-.5-.22-.5-.5v-4.62c0-.28.23-.5.5-.5h.05c.28 0 .5.22.5.5v4.62c0 .27-.22.5-.5.5zM112.19 81.57h-.05c-.27 0-.5-.22-.5-.5v-4.62c0-.28.23-.5.5-.5h.05c.28 0 .5.22.5.5v4.62c0 .27-.22.5-.5.5zM112.19 89.26h-.05c-.27 0-.5-.22-.5-.5v-4.62c0-.28.23-.5.5-.5h.05c.28 0 .5.22.5.5v4.62c0 .28-.22.5-.5.5zM112.19 96.95h-.05c-.27 0-.5-.22-.5-.5v-4.62c0-.28.23-.5.5-.5h.05c.28 0 .5.22.5.5v4.62c0 .28-.22.5-.5.5zM112.19 104.64h-.05c-.27 0-.5-.22-.5-.5v-4.62c0-.28.23-.5.5-.5h.05c.28 0 .5.22.5.5v4.62c0 .28-.22.5-.5.5zM112.19 112.33h-.05c-.27 0-.5-.23-.5-.5v-4.62c0-.27.23-.5.5-.5h.05c.28 0 .5.23.5.5v4.62c0 .28-.22.5-.5.5zM112.19 120.03h-.05c-.27 0-.5-.23-.5-.5v-4.62c0-.27.23-.5.5-.5h.05c.28 0 .5.23.5.5v4.62c0 .27-.22.5-.5.5zM112.19 65.77h-.05c-.27 0-.5-.22-.5-.5v-4.62c0-.27.23-.5.5-.5h.05c.28 0 .5.23.5.5v4.62c0 .28-.22.5-.5.5z" fill="#404040"/><circle cx="112.17" cy="67.22" r="2.61" fill="none" stroke="#404040" stroke-miterlimit="10"/><circle cx="112.17" cy="74.88" r="2.61" fill="none" stroke="#404040" stroke-miterlimit="10"/><circle cx="112.17" cy="82.53" r="2.61" fill="none" stroke="#404040" stroke-miterlimit="10"/><circle cx="112.17" cy="90.19" r="2.61" fill="none" stroke="#404040" stroke-miterlimit="10"/><circle cx="112.17" cy="97.84" r="2.61" fill="none" stroke="#404040" stroke-miterlimit="10"/><circle cx="112.17" cy="105.5" r="2.61" fill="none" stroke="#404040" stroke-miterlimit="10"/><circle cx="112.17" cy="113.16" r="2.61" fill="none" stroke="#404040" stroke-miterlimit="10"/><circle cx="112.17" cy="120.81" r="2.61" fill="none" stroke="#404040" stroke-miterlimit="10"/><path d="M40.23 48.61c-4.19 0-8 3.54-8 9.42s3.81 9.42 8 9.42 8-3.54 8-9.42-3.81-9.42-8-9.42zM65.39 100.92c6.49 1.39 9.37 6.42 9.56 8.57.07.83-.25 1.49-.8 1.8-.42.23-.9.22-1.33-.03-.15-.08-.28-.19-.41-.32-2.03-2.06-4.98-3.71-8.23-4.4-3.23-.69-6.59-.4-9.28.65-.17.07-.34.11-.51.12-.5.05-.94-.14-1.23-.52-.38-.5-.4-1.24.01-1.97 1.05-1.88 5.74-5.29 12.22-3.9z" fill="#242424"/></svg>