<svg viewBox="0 0 128 128" xmlns="http://www.w3.org/2000/svg" xmlns:xlink="http://www.w3.org/1999/xlink"><ellipse transform="rotate(-82.8 92.1 31.9)" cx="92.2" cy="31.9" rx="3.8" ry="5.6" fill="#0D47A1"/><path d="M91.6 30l.8.1c2.1.3 3.4 1.5 3.3 2.3 0 .6-1.3 1.3-3 1.3a7 7 0 0 1-.8 0 6 6 0 0 1-2.7-1.1c-.4-.4-.7-.8-.6-1.1 0-.7 1.3-1.4 3-1.4m0-2c-2.6 0-4.8 1.3-5 3.1-.3 2 2 4 5 4.5h1.1c2.6 0 4.8-1.2 5-3 .3-2.2-2-4.2-5-4.6h-1.1z" fill="#424242" opacity=".2"/><ellipse transform="rotate(-74.4 108.9 80.6)" cx="108.9" cy="80.6" rx="4.3" ry="14.3" fill="#1976D2"/><path d="M63.9 86.9s-17.4 6.7-31.7 10.8c-10.8 3.1-23.2.2-26.3-7.1-6.8-16 11.6-17 11.6-17l46.4 13.3z" fill="#125BB5"/><path d="M59.3 59.4l-11 4.5c-7 3-14.4 5.2-22 6.8l-12.9 2.8c-4 .6-6.6 2.7-8 5.4-3.5 6 .8 12.4.8 12.4s-2.4-6.7.1-11.3c1.7-3 5.2-4.2 10.2-3.2 3.6.8 7.1 2.8 10 4.8A109.1 109.1 0 0 0 49.2 94a55.6 55.6 0 0 0 16.4 2.7C92 96.7 109.7 80 109.7 80L59.3 59.4z" fill="#3CA3F4"/><linearGradient id="a" x1="47.6" x2="124" y1="58.4" y2="58.4" gradientUnits="userSpaceOnUse"><stop stop-color="#42A5F5" offset="0"/><stop stop-color="#1E88E5" offset="1"/></linearGradient><path d="M124 82.6c-.2 2.5-2.7 4-5 3.1-2.6-1-6.5-2.4-11.7-3.7a154 154 0 0 1-30.9-11.4c-7.5-3.7-28.9-6.2-28.8-6.3a67 67 0 0 1 10.6-21.1 34.6 34.6 0 0 1 27-12.4c37.2 3.4 39.3 38.3 38.7 51.8z" fill="url(#a)"/><defs><path id="b" d="M124 82.6c-.2 2.5-2.7 4-5 3.1-2.6-1-6.5-2.4-11.7-3.7a154 154 0 0 1-30.9-11.4 99.4 99.4 0 0 0-28.5-6c-1.8.5-3.8 2-3.3.9a123 123 0 0 1 11.8-18.6 41 41 0 0 1 21.9-15.3c2.4-.7 4.8-1 6.8-.9 37.3 3.5 39.4 38.4 38.8 52z"/></defs><clipPath id="c"><use xlink:href="#b"/></clipPath><path d="M93.5 30.8C62.5 27.4 56.3 67 56.3 67" clip-path="url(#c)" fill="none" stroke="#1976D2" stroke-linecap="round" stroke-linejoin="round" stroke-miterlimit="10" stroke-width="2"/><path d="M91.5 30.7c20.9 4.2 13.7 54.7 13.7 54.7" clip-path="url(#c)" fill="none" stroke="#1565C0" stroke-linecap="round" stroke-linejoin="round" stroke-miterlimit="10" stroke-width="2"/><path d="M84 33.7h.8c15 1.4 25.5 8.3 31.2 20.5a62.8 62.8 0 0 1 5 28.3c0 .4-.4.5-.6.5a3 3 0 0 0-.7 0 6 6 0 0 1-2.3.3 34.3 34.3 0 0 1-11.7-2.3 3 3 0 0 0-2.7.4 66.2 66.2 0 0 1-37.5 12.3 52.6 52.6 0 0 1-18.9-3.6A28.8 28.8 0 0 1 23.4 96c-7 0-13-2.6-14.7-6.4l-.5-.8c-.8-1.7-2-5.2-.3-8.4a7.6 7.6 0 0 1 6-3.8h.2l12.9-3c7.4-1.6 14.7-3.8 21.7-6.7a3 3 0 0 0 1.7-1.9c2-6.4 5.7-15 10-20A32.4 32.4 0 0 1 84 33.7m0-3c-4 0-16 1.2-25.8 12.5-6.2 7-10 19.1-10.6 21-6.9 2.8-14 5-21.2 6.5l-13 2.8c-4 .6-6.6 2.7-8 5.3-3.5 6.1.8 12.5.8 12.5l-.2-.5c2.4 5.2 9.5 8.1 17.4 8.1 2.9 0 5.9-.4 8.8-1.2 4.7-1.4 9.8-3 14.4-4.6l2.5 1a55.6 55.6 0 0 0 16.4 2.6A69 69 0 0 0 104.7 84a43.5 43.5 0 0 0 12.7 2.4c1.1 0 2.2-.3 3-.3 1.8 0 3.5-1.4 3.5-3.4.6-13.5-1.5-48.4-38.8-51.9h-1z" fill="#424242" opacity=".2"/></svg>