<svg enable-background="new 0 0 128 128" viewBox="0 0 128 128" xmlns="http://www.w3.org/2000/svg" xmlns:xlink="http://www.w3.org/1999/xlink"><path d="M112.4 92.8c-.3 7.2.7 17-21.7 21.7-15.5 3.2-30.4-9.8-30.4-19.1S69.3 82 85 82s27.7 1.5 27.4 10.8z" fill="#DE6F72"/><path d="M85 85c9 0 19.6.5 23.1 4 1 1 1.3 2.2 1.3 3.7v1.2c-.2 6.8-.4 13.7-19.3 17.6a21 21 0 0 1-4.3.4c-12.2 0-22.5-10.1-22.5-16.5 0-2.6 0-10.4 21.7-10.4m0-3c-15.8 0-24.7 4-24.7 13.4 0 8.3 12 19.6 25.5 19.6a24 24 0 0 0 5-.5c22.3-4.7 21.3-14.5 21.6-21.7.3-9.3-11.6-10.8-27.4-10.8z" fill="#424242" opacity=".2"/><defs><path id="a" d="M112.4 92.8c-.3 7.2.7 17-21.7 21.7-15.5 3.2-30.4-9.8-30.4-19.1S69.3 82 85 82s27.7 1.5 27.4 10.8z"/></defs><clipPath id="b"><use xlink:href="#a"/></clipPath><g clip-path="url(#b)" fill="none" opacity=".2" stroke="#424242" stroke-linecap="round" stroke-linejoin="round" stroke-miterlimit="10" stroke-width="2"><path d="M91.2 92c.6 3.2 2.6 6 5.2 8s5.8 3.2 9 3.8c2 .4 4 .6 5.8-.2m-32-9.9a23 23 0 0 0 8.2 11.4c5.4 3.8 13 6.5 17.6 6.1M84.5 92.8c2 9.7 11.5 13.6 24 15.6M96.9 91.6c3.5 6.8 12.8 9.6 18.2 7m-40.9-4.1c.5 3.9 3.6 8.1 6.2 11 6.6 7.4 12.2 9.1 16.2 9.3m-28-21.2c.5 5.9 6.6 16.9 17.4 22.5"/></g><linearGradient id="c" x1="39.1" x2="103.6" y1="43.1" y2="98.1" gradientUnits="userSpaceOnUse"><stop stop-color="#FFBFBF" offset="0"/><stop stop-color="#FAADAE" offset=".5"/><stop stop-color="#F29195" offset="1"/></linearGradient><path d="M110.4 95c2.3-1.2 5.8-1.1 7.8-3.6 3.7-4.5 4.5-8.5 4.4-11.2a11 11 0 0 1 1-5.3c.5-.8.8-2 .9-3.3a12 12 0 0 0-1-6c-1.2-2-1.5-4.5-1.2-6.8.1-1.9 0-4.1-.9-6.3-.8-2-1.7-3.2-3-4.1a11.8 11.8 0 0 1-4.6-6 5 5 0 0 0-.5-1.2 10 10 0 0 0-3.7-3.3c-2-1.1-3.5-3-4.6-5a10.7 10.7 0 0 0-10.5-6c-2.4.1-4.6-.7-6.6-2.1-.6-.5-1.5-1-2.7-1.3-1.1-.3-2.3-.4-3.5-.4-2.4 0-4.8-1-6.7-2.4-1.3-1-3-1.6-5.6-2-4.1-.7-7.1 0-9.1.8a12 12 0 0 1-7.2.8c-2.6-.6-5.6 0-10.3.9-4.9.9-9 2.4-10.8 4.5a11 11 0 0 1-6.3 3.7c-4.8 1-7 3.7-10.2 7.3-3.2 3.7-7.1 8.4-6.2 13.1a12 12 0 0 1-1.1 8C7.4 59.1 5.4 62.1 5 64c-1.3 6.9 0 9 1 13.5 1 4.4 2.2 7.5 5.7 9.4 4 2.1 14 .7 16.4 5.7 1.7 3.4 4.8 9.3 13.2 11.5l1.9.8c1.8.9 4.7 2.5 9.5 2.3 8-.5 5.8-3.2 11-1.8 8 2.1 17.5-2.7 23.4-5.9 8.2-4.3 15.5-.8 23.3-4.6z" fill="url(#c)"/><defs><filter id="d" x="9.8" y="18.1" width="114.9" height="90.2" filterUnits="userSpaceOnUse"><feColorMatrix values="1 0 0 0 0 0 1 0 0 0 0 0 1 0 0 0 0 0 1 0"/></filter></defs><mask id="f" x="9.8" y="18.1" width="114.9" height="90.2" maskUnits="userSpaceOnUse"><g filter="url(#d)"><radialGradient id="e" cx="57.2" cy="24.9" r="93.6" gradientUnits="userSpaceOnUse"><stop stop-color="#FFCCBC" offset=".2"/><stop stop-color="#FF8A65" offset="1"/></radialGradient><path d="M110.4 95c2.3-1.2 5.8-1.1 7.8-3.6 3.7-4.5 4.5-8.5 4.4-11.2a11 11 0 0 1 1-5.3c.5-.8.8-2 .9-3.3a12 12 0 0 0-1-6c-1.2-2-1.5-4.5-1.2-6.8.1-1.9 0-4.1-.9-6.3-.8-2-1.7-3.2-3-4.1a11.8 11.8 0 0 1-4.6-6 5 5 0 0 0-.5-1.2 10 10 0 0 0-3.7-3.3c-2-1.1-3.5-3-4.6-5a10.7 10.7 0 0 0-10.5-6c-2.4.1-4.6-.7-6.6-2.1-.6-.5-1.5-1-2.7-1.3-1.1-.3-2.3-.4-3.5-.4-2.4 0-4.8-1-6.7-2.4-1.3-1-3-1.6-5.6-2-4.1-.7-7.1 0-9.1.8a12 12 0 0 1-7.2.8c-2.6-.6-5.6 0-10.3.9-4.9.9-9 2.4-10.8 4.5a11 11 0 0 1-6.3 3.7c-4.8 1-7 3.7-10.2 7.3-3.2 3.7-7.1 8.4-6.2 13.1a12 12 0 0 1-1.1 8C7.4 59.1 5.4 62.1 5 64c-1.3 6.9 0 9 1 13.5 1 4.4 2.2 7.5 5.7 9.4 4 2.1 14 .7 16.4 5.7 1.7 3.4 4.8 9.3 13.2 11.5l1.9.8c1.8.9 4.7 2.5 9.5 2.3 8-.5 5.8-3.2 11-1.8 8 2.1 17.5-2.7 23.4-5.9 8.2-4.3 15.5-.8 23.3-4.6z" fill="url(#e)"/></g></mask><g fill="none" mask="url(#f)" stroke="#D97172" stroke-linecap="round" stroke-linejoin="round" stroke-miterlimit="10" stroke-width="2"><path d="M28 92.8c-3.4-2.9-2.5-8.7.6-11.8 3.2-3.1 7.8-4.2 12.2-4.8 5.4-.7 10.9-.9 16.4-.6 7.7.4 33.2.7 38.5-8.6 1.5-2.5.7-10.4-4.6-9m-73.3 2.2c-3.3.9-6 3.7-6.8 7s.5 7.1 3.1 9.3c1.5 1.3 3.4 2 5.3 2.6 3.1.9 6.4 1.2 9.5.8m30.6-60.1c-4.5 3.7-6.1 9.9-6.4 15.7-.3 7 .9 14 3.5 20.5m35.1-28.4c-2.8-1.1-5.7 1-7.6 3.4a25 25 0 0 0-5.3 13.3M16 60.6a24.5 24.5 0 0 1 22.6-24.4"/><path d="M29.4 38.9c-.2-.7 0-.6.1-1.3.7-3 3.1-5.3 5.8-6.6s5.8-2 8.8-2.4c3-.4 6.5-.7 9 1.3m2.2-3.3c.1-1 1.3-1.6 2.3-1.9a24 24 0 0 1 8-.8M54.5 51c0-2.4-2.5-4.2-4.8-4.3s-4.6 1.5-6 3.4a20.9 20.9 0 0 0-3 6.4C40 58.7 39.3 61 38 63c-2.6 4-7.6 6.5-12.3 6-1.1-.2-2.4-.6-2.6-1.7"/><path d="M32 45.3c-.8-.2-1.4.8-1.5 1.6-1 6.4 5.2 12.3 4.3 18.8M20.6 79.3c1.5-3.9.5-8.6-2.4-11.6m1.7-37.2c-1.7 3.8-2.9 10-2.5 14.2M65.7 19a33 33 0 0 1 19.4 14.7c.8 1.3 1.5 2.6 2.6 3.6 1.8 1.8 4.5 2.3 7 3A36 36 0 0 1 114.5 59c3.2 6.2 5.5 13 5.3 20-.3 6.9-3.2 14-8.8 18M90.2 38.8a27.7 27.7 0 0 1 27.7 5"/><path d="M108 58c3 9.3 4.7 19.4-4 25.4-17.4 12-34.8 6.5-50.2 6.7-3 0-6.2.1-9 1.6s-4.6 4.7-3.6 7.6"/><path d="M45 91.8c-1 .3-1.5.3-2.5-.2-1.5-.8-3.1-1.6-4.2-3-1.2-1.3-1.7-3.3-.9-4.8m26.3-7.9c-1.6 0-3 1.2-4 2.5A15 15 0 0 0 58 83m17.6 8.1c-.6-1 0-2.2.6-3.1a42 42 0 0 1 5.2-6.6M77.8 63c.4-3.2 1.4-6.4 3.3-9s4.8-4.6 8-5c3-.6 6.3.4 8.7 2.5a11 11 0 0 1 3.4 8.5m-52.7-2.7c-.7 3 .1 6.2 1.3 9.1 1.2 2.9 2.7 5.6 3.5 8.6m11.2.5c2.7-2.8 4.1-6.7 4-10.6s-4.1-10-7-12.6m4.2 3.1a18.4 18.4 0 0 0 4-15.5c-.6-3-2-6-1.2-9a9 9 0 0 1 2.4-4c1.6-1.5 5.2-3.7 7.4-4.5m-8 23.3c2.8.2 5.4 2.2 6.1 5M93 89.5c3.3-1 7.2.2 9.4 2.8m-.8-8.3c.5-2.4 1.1-4.9.8-7.4s-1.4-5-3.6-6.1m-9.3 1.1c1 2.7 1 5.7.2 8.4m-9.4-6.3c2.3-3 3.5-6.7 3.4-10.4m29.3-7.7c2.7-1.2 6-.7 8.2 1.3m2.5 13.5l-3-3.3m-6 24.3c-1-2-3-3.5-5.3-3.6M63 99.4c-.9 3.8-4.1 7-8 7.9M36 101c4.8 2 10.7.7 14.4-2.9m-8.4-70a15 15 0 0 1 6-8.7M80.7 39c3.9 2.7 5.8 7.4 3.6 11.7M50.7 68c-.6-2.7.3-5.7 2.3-7.7m-20.7-5.7a7 7 0 0 1 4-6.3m39.9 38.5c-.8-2-.7-4.4.2-6.4"/></g><path d="M66.1 21.4c1 0 1.8 0 2.8.2 2 .4 3.4.8 4.3 1.5 2.6 2 5.6 3 8.4 3h.2a7.5 7.5 0 0 1 4.4 1.1 13.3 13.3 0 0 0 8.5 2.7h.6c1.1 0 2.3.2 3.5.7 1.4.6 2.8 2 3.6 3.6 1.3 2.8 3.3 5 5.7 6.3 1.3.7 2.3 1.7 2.6 2.3l.2.5c1 3 3 5.6 5.7 7.5.7.5 1.3 1.2 2 2.9.6 1.4.8 3 .7 4.8-.3 3.1.2 6 1.5 8.5.3.7.7 2 .7 4.5a5 5 0 0 1-.6 2c-1 2.1-1.5 4.5-1.3 6.9 0 1.6-.3 5-3.7 9.1-.8.9-2 1.2-3.6 1.7l-3.3 1a22.6 22.6 0 0 1-9.8 1.9c-4 .1-8.7.3-13.5 2.8-4 2.2-11.4 6.1-17.8 6.1-1.2 0-2.4-.1-3.4-.4-1.3-.3-2.3-.5-3.2-.5-1.6 0-2.6.5-3.5 1-.9.4-2 1-5.3 1.2h-.9c-3 0-5-1-6.7-1.9l-.4-.2-2.5-1a16.5 16.5 0 0 1-11.2-9.8c-2.2-4.6-8-5.4-12.5-6-2-.3-4.2-.6-5.2-1.1-2.2-1.1-3.3-3-4.2-7.3l-.6-2.8c-.8-3-1.3-4.8-.3-9.5a15 15 0 0 1 2-4l.8-1.6a15 15 0 0 0 1.4-10c-.6-3.1 2.5-7 5.5-10.4l.6-.6c2.7-3.2 4.4-5 8-5.8a14 14 0 0 0 8-4.7c.4-.5 2.4-2.2 9-3.5h.4a45 45 0 0 1 8.8-1 14.4 14.4 0 0 0 9-.8c1.3-.6 3-.9 4.6-.9m0-3a15 15 0 0 0-5.8 1.1 12 12 0 0 1-7.2.8c-.7-.2-1.4-.3-2.2-.3a44 44 0 0 0-8.1 1.2c-4.9.9-9 2.3-10.8 4.5a11 11 0 0 1-6.3 3.7c-4.8 1-7 3.7-10.2 7.3-3.2 3.7-7.1 8.4-6.2 13a12 12 0 0 1-1.1 8C7.4 59.2 5.4 62 5 64c-1.3 6.9 0 9 1 13.5S8.2 85 11.7 87c4 2 14 .7 16.4 5.7 1.7 3.4 4.8 9.3 13.2 11.5.6.2 1.3.4 1.9.8 1.7.8 4.3 2.3 8.5 2.3h1c6.4-.4 6.3-2.2 8.6-2.2.6 0 1.4.1 2.4.4 1.4.4 2.8.5 4.2.5 7 0 14.3-3.8 19.2-6.4 8.2-4.3 15.6-.8 23.3-4.6 2.3-1.2 5.8-1.1 7.8-3.6 3.7-4.5 4.5-8.5 4.4-11.2-.1-1.8.2-3.7 1-5.3.5-.8.8-2 .9-3.3a12 12 0 0 0-1-6c-1.2-2-1.5-4.5-1.2-6.8.1-2 0-4.1-.9-6.3-.8-2-1.7-3.2-3-4.1a11.8 11.8 0 0 1-4.6-6 5 5 0 0 0-.5-1.2 10 10 0 0 0-3.7-3.3c-2-1.1-3.5-3-4.6-5a10.7 10.7 0 0 0-9.7-6h-.8a10.4 10.4 0 0 1-6.6-2.1c-.6-.5-1.5-1-2.7-1.3a13 13 0 0 0-3.4-.4h-.2c-2.4 0-4.7-1-6.6-2.4-1.3-1-3-1.6-5.6-2a20 20 0 0 0-3.3-.3z" fill="#424242" opacity=".2"/></svg>