<svg viewBox="0 0 128 128" xmlns="http://www.w3.org/2000/svg" xmlns:xlink="http://www.w3.org/1999/xlink"><linearGradient id="a" x1="43.2" x2="28" y1="47.8" y2="114.1" gradientUnits="userSpaceOnUse"><stop stop-color="#558B2F" offset="0"/><stop stop-color="#7CB342" offset="1"/></linearGradient><path d="M27.6 109.8C12 105 12.2 100.9 12.8 98.7l18-69.1c.5-2.2 2.5-3.5 4.4-3L59.4 33c1.9.6 3 2.7 2.7 4.9l-14 70.1c-.5 2.2-5 6.4-20.6 1.7z" fill="url(#a)"/><path d="M34.4 29.5L58.7 36c.3.1.6.7.5 1.4l-13.8 70.1c-.3.4-1.7 1.5-5.5 1.5-3.1 0-6.9-.7-11.4-2-7.8-2.3-10.9-4.4-12.1-5.7-.8-.8-.7-1.2-.6-1.8l18-69.1c.1-.5.5-.8.7-.8m0-3c-1.6 0-3.1 1.2-3.6 3l-18 69.2c-.6 2.2-.8 6.4 14.8 11a42 42 0 0 0 12.1 2.2c6 0 8.2-2.3 8.5-3.8L62 37.9c.5-2.2-.7-4.3-2.6-4.8l-24.2-6.5h-.8z" fill="#424242" opacity=".2"/><linearGradient id="b" x1="41.5" x2="67.5" y1="62.5" y2="120.6" gradientUnits="userSpaceOnUse"><stop stop-color="#558B2F" offset="0"/><stop stop-color="#7CB342" offset="1"/></linearGradient><path d="M43.3 122.8c-16-3.3-16-7.6-15.6-9.9l12.1-70.3c.4-2.2 2.3-3.7 4.2-3.3l24.6 4.4c2 .3 3.3 2.3 3 4.5l-7.9 71.2c-.2 2.3-4.4 6.7-20.4 3.4z" fill="url(#b)"/><defs><path id="c" d="M43.3 122.8c-16-3.3-16-7.6-15.6-9.9l12.1-70.3c.4-2.2 2.3-3.7 4.2-3.3l24.6 4.4c2 .3 3.3 2.3 3 4.5l-7.9 71.2c-.2 2.3-4.4 6.7-20.4 3.4z"/></defs><clipPath id="d"><use xlink:href="#c"/></clipPath><g clip-path="url(#d)"><path d="M61.9 83.7c-3.7.2-8.2.2-13.5-.4a40.9 40.9 0 0 1-20.3-7.5c-2.2-1.8-2.7-8.3-1-10.5a5 5 0 0 1 7.2-.7c.1 0 6.7 4 16 5a59.1 59.1 0 0 0 18.5-.4c2.6-.6 5.4 1 6.1 3.7s-.7 8.8-3.4 9.5c-.3 0-3.8 1-9.6 1.3z" fill="#C4D100"/></g><g clip-path="url(#d)"><path d="M58.8 110.4c-3.6.2-8.2.2-13.5-.4a40.9 40.9 0 0 1-20.3-7.5c-2.2-1.8-2.7-8.3-.9-10.5a5 5 0 0 1 7-.7c.2.1 6.8 4 16.2 5a59.1 59.1 0 0 0 18.4-.3c2.7-.7 5.4 1 6.1 3.6s-.7 8.8-3.4 9.5c-.2.1-3.7 1-9.6 1.3z" fill="#C4D100"/></g><path d="M43.5 42.2l24.6 4.4c.3 0 .7.6.6 1.3l-8 71c-.2.5-2 2.1-7.3 2.1a49.4 49.4 0 0 1-22-5.8c-1-.8-.9-1.2-.8-1.7L42.8 43c.1-.6.4-.9.7-.9m0-3c-1.8 0-3.3 1.4-3.7 3.4l-12.1 70.3c-.4 2.3-.3 6.6 15.6 9.9 4.1.9 7.4 1.2 10 1.2 7.9 0 10.2-3 10.4-4.6l8-71.1c.2-2.2-1.1-4.3-3.1-4.6L44 39.3h-.5z" fill="#424242" opacity=".2"/><linearGradient id="e" x1="63.7" x2="63.7" y1="21.2" y2="66.6" gradientUnits="userSpaceOnUse"><stop stop-color="#558B2F" offset="0"/><stop stop-color="#7CB342" offset="1"/></linearGradient><path d="M63.5 62.3c-39.8 0-49.7-17-51.7-22.2-2.7-6.8.2-14.7 6.5-17.6a12 12 0 0 1 15.8 5.8c.9 1 7.3 7.2 29.4 7.2 22.5 0 29-6.4 29.8-7.3a12 12 0 0 1 16-5.6c6.3 3 9 11 6.2 17.7-2.2 5.2-12.3 22-52 22z" fill="url(#e)"/><defs><path id="f" d="M63.5 62.3c-39.8 0-49.7-17-51.7-22.2-2.7-6.8.2-14.7 6.5-17.6a12 12 0 0 1 15.8 5.8c.9 1 7.3 7.2 29.4 7.2 22.5 0 29-6.4 29.8-7.3a12 12 0 0 1 16-5.6c6.3 3 9 11 6.2 17.7-2.2 5.2-12.3 22-52 22z"/></defs><clipPath id="g"><use xlink:href="#f"/></clipPath><path d="M76.9 65H52.3s-2.3-8 .3-19.4c2.6-11.7 5.7-13.8 5.7-13.8h12.2S74 35 76 45c2 10.3.9 20 .9 20z" clip-path="url(#g)" fill="#C4D100"/><g clip-path="url(#g)"><path d="M35 59.3l-12.7-6.2S19 42.5 24.6 35.4C31 27.3 38 24.8 38 24.8l10.2 6.7S42 35.7 39 43.2a26.2 26.2 0 0 0-1.6 14.4c.3 1.3-1 2.3-2.2 1.7z" fill="#C4D100"/></g><g clip-path="url(#g)"><path d="M94.4 59.3l12.8-6.2s.9-9.7-3.3-17.7C99 26.2 91 24 91 24l-9.6 6.7s6.2 4.9 9.2 12.4a26.2 26.2 0 0 1 1.6 14.4c-.3 1.3 1 2.3 2.2 1.7z" fill="#C4D100"/></g><linearGradient id="h" x1="64.3" x2="64.3" y1="36.5" y2="4" gradientUnits="userSpaceOnUse"><stop stop-color="#558B2F" offset="0"/><stop stop-color="#7CB342" offset="1"/></linearGradient><path d="M64.2 36.5c-30.9 0-38.7-12.6-40.4-16.4a11.7 11.7 0 0 1 5.1-15c4.2-2.1 9-1 12 2.2 2 2.2 4.4 3.9 7.3 4.7 3.4 1 8.5 2 16 2 7.6 0 12.7-1 16.2-2 2.9-.8 5.4-2.6 7.5-4.8a10 10 0 0 1 12-2c5.3 2.7 7.5 9.5 4.9 15.1-1.8 3.8-9.9 16.2-40.6 16.2z" fill="url(#h)"/><path d="M33.4 7c2 0 3.9.9 5.3 2.4 2.6 2.7 5.5 4.6 8.6 5.5a61 61 0 0 0 17 2c6.7 0 12.4-.7 17-2 3-1 6-2.8 8.8-5.6A7.4 7.4 0 0 1 95.3 7a7 7 0 0 1 3.3.8 8.7 8.7 0 0 1 3 12.2c-.5.9-.5 2 0 3s1.5 1.5 2.6 1.5c1.3 0 2.6.3 3.8.8 4.8 2.4 7 8.6 4.7 13.9-2 4.7-11.4 20-49.2 20-37.9 0-47-15.5-49-20.2-2-5.3.2-11.5 5-13.7a8.6 8.6 0 0 1 5-.8 3 3 0 0 0 2.6-4.5l-.6-1.1a8.8 8.8 0 0 1 3.8-11.2c1-.4 2-.7 3-.7m0-3c-1.4 0-3 .3-4.4 1a11.7 11.7 0 0 0-4.4 16.6l-1.3-.1c-1.7 0-3.3.3-5 1-6.2 3-9.2 10.8-6.4 17.6 2 5.2 12 22.2 51.7 22.2 39.6 0 49.8-16.8 52-22a14 14 0 0 0-6.2-17.7c-1.7-.8-3.4-1.1-5.1-1.1l.6-1.2c2.6-5.6.4-12.4-4.9-15.1a10 10 0 0 0-12 2c-2.1 2.2-4.6 4-7.5 4.8-3.5 1-8.6 2-16.2 2-7.5 0-12.6-1-16-2-2.9-.8-5.3-2.5-7.3-4.7-2-2.1-4.7-3.3-7.5-3.3z" fill="#424242" opacity=".2"/><defs><path id="i" d="M64.2 36.5c-30.9 0-38.7-12.6-40.4-16.4a11.7 11.7 0 0 1 5.1-15c4.2-2.1 9-1 12 2.2 2 2.2 4.4 3.9 7.3 4.7 3.4 1 8.5 2 16 2 7.6 0 12.7-1 16.2-2 2.9-.8 5.4-2.6 7.5-4.8a10 10 0 0 1 12-2c5.3 2.7 7.5 9.5 4.9 15.1-1.8 3.8-9.9 16.2-40.6 16.2z"/></defs><clipPath id="j"><use xlink:href="#i"/></clipPath><g clip-path="url(#j)"><path d="M45 37s-2.3-7.8-1-14.5 8.3-11 8.3-11L42 6.8s-3.7 0-8.5 8 0 16 0 16l11.7 6" fill="#C4D100"/></g><g clip-path="url(#j)"><path d="M83 36.7l11.6-6s5.7-7.6 1-15.5-9.4-8.5-9.4-8.5l-10.4 5.7s6.8 2.4 8.7 7.4c2.6 7 0 14-1.5 17z" fill="#C4D100"/></g><path d="M73 37.8l-17.3-.2s-1.5-5.8-.2-14.1c1.2-7.8 3.3-9.6 3.3-9.6H70s2.1 2 3.8 9.6c1.6 7.5-.8 14.2-.8 14.2z" clip-path="url(#j)" fill="#C4D100"/></svg>