<svg viewBox="0 0 128 128" xmlns="http://www.w3.org/2000/svg"><path d="M32 14.9l-8.8 6.9s13.2 13.7 28.4 3l-19.5-10z" fill="#666"/><linearGradient id="a" x1="76.9" x2="76.9" y1="26.8" y2="139.6" gradientTransform="rotate(-41.7 55.9 64.8)" gradientUnits="userSpaceOnUse"><stop stop-color="#5E5E5E" offset="0"/><stop stop-color="#B3B3B3" offset="1"/></linearGradient><path d="M120.5 107.4l-3.9 1.3C107.2 80.4 45 25.5 44.3 24.9l2.7-3c2.6 2.2 63.7 56.1 73.5 85.5z" fill="url(#a)"/><linearGradient id="b" x1="60.3" x2="60.3" y1="30" y2="149.3" gradientTransform="rotate(-41.7 55.9 64.8)" gradientUnits="userSpaceOnUse"><stop stop-color="#B3B3B3" offset="0"/><stop stop-color="#5E5E5E" offset=".6"/><stop stop-color="#919191" offset="1"/></linearGradient><path d="M120.1 120.8l-1 .8c-3 2-6.9 3-10.1 2.6-9-1.2-17-8.2-23.3-13.7l-.5-.5c-7.1-6.2-14-13-20.5-19.4L62 87.8C38 64 26 45.2 25.8 45l3.5-2.2c.1.2 11.8 18.6 35.5 42l2.8 2.8C74.1 94.1 81 100.8 88 107l.5.5c6 5.2 13.4 11.6 21.1 12.7 2.3.3 5-.4 7.1-1.9 1.7-1.2 2.8-3 2.8-4.6 0-2.2-1.6-3.9-2.6-4.7-2.2-1.9-5.4-3-7.8-2.6a6.5 6.5 0 0 0-4.6 3.5c-.1.2-2.3 5.3-1.7 8.1l-3.1-1.7c-1-4.5 1.2-8.3 1.2-8.5a11 11 0 0 1 7.6-5.5c3.6-.5 8 .9 11.1 3.6 2.6 2.2 4 5 4 7.8 0 2.6-1.2 5.2-3.4 7.2z" fill="url(#b)"/><linearGradient id="c" x1="62.4" x2="62.4" y1="-3.3" y2="34.3" gradientTransform="rotate(-41.7 55.9 64.8)" gradientUnits="userSpaceOnUse"><stop stop-color="#ccc" offset="0"/><stop stop-color="#999" offset=".5"/><stop stop-color="#fff" offset="1"/></linearGradient><path d="M14 10c-7.7 7.8-7.4 14.4-2.3 21.4 6.4 8.7 14.4 17.2 14.4 17.2s11.5-11.4 3-18.3-11-8.4-8.2-11.7 3.6-4.8 8-1.6S43 28 52 24.3C51.7 24 30.8-7.2 14 9.9z" fill="url(#c)"/><path d="M25.2 7.8C34.6 7.8 44.2 19 48 24v.4a3 3 0 0 0-2 0c-2.1 1-4.3 1.3-6.4 1.3-4.9 0-9-2.2-11.6-4l3-2.3a3 3 0 0 0 1.2-2.4 3 3 0 0 0-1.3-2.4l-.1-.1c-2.4-1.7-4-2.4-5.7-2.4-2.7 0-4.3 1.8-6 3.8l-.4.6c-.5.6-2 2.4-1.8 4.7.3 3 2.7 5 7.7 9l2.7 2.3c3.9 3.2 1 7.8 0 9.6a3 3 0 0 0-.4 2.1l-.5.1c-2.7-3-7.9-8.9-12.2-14.8-4-5.3-5-10.4 2-17.6 2.8-2.8 5.7-4.2 9-4.2m91.1 97l.1.2h-.1v-.2M25.2 4.8c-3.8 0-7.6 1.4-11.2 5.1-7.7 8-7.4 14.5-2.2 21.5C18.2 40 26 48.6 26 48.6l1.2-1.3c4 5.7 15.4 21.5 34.6 40.5l2.8 2.8c6.6 6.5 13.4 13.3 20.5 19.5l.5.4C92.1 116 100 123 109 124.2l1.6.1a15.2 15.2 0 0 0 9.5-3.5c2.2-2 3.4-4.6 3.4-7.2 0-2.6-1.1-5-3.3-7.2C111 81 65 38 51 25.4l.6-.5-.6-.3.9-.3c-.2-.2-13-19.5-26.7-19.5zM99.6 116c-4-2.6-7.8-5.8-11.2-8.7l-.5-.5c-7-6-13.7-12.8-20.3-19.3L65 85a282.1 282.1 0 0 1-35-41.2c2.4-4 4.2-9.4-.7-13.4-8.4-7-11-8.4-8.2-11.7 1.7-2 2.6-3.4 4.1-3.4 1 0 2.2.6 4 1.8v.1l-5.9 4.7s6.9 7 16.4 7c2.4 0 4.9-.4 7.5-1.4 11.3 10.1 54.1 49.8 67 75.4a13.6 13.6 0 0 0-5.7-.6c-3.1.5-6 2.7-7.5 5.5-.1.2-2.2 3.9-1.3 8.4zm11 4a22.2 22.2 0 0 1-7.9-2.3c-.5-2.8 1.6-7.8 1.8-8 1-1.9 2.7-3.2 4.6-3.5h1c2.2 0 4.8 1 6.8 2.6.9.8 2.5 2.5 2.5 4.7 0 1.7-1 3.4-2.7 4.6a11 11 0 0 1-6.1 2z" fill="#424242" opacity=".2"/></svg>