<svg viewBox="0 0 128 128" xmlns="http://www.w3.org/2000/svg"><linearGradient id="a" x1="55.6" x2="55.6" y1="9" y2="122.6" gradientTransform="rotate(180 64 64)" gradientUnits="userSpaceOnUse"><stop stop-color="#D1D1D1" offset="0"/><stop stop-color="#DADADA" offset=".1"/><stop stop-color="#E5E5E5" offset=".2"/><stop stop-color="#ECECEC" offset=".4"/><stop stop-color="#eee" offset="1"/></linearGradient><path d="M106.8 8.1l-4-4.1-4.1 4.1-4-4.1-4.1 4.1-4-4.1-4.1 4.1-4-4.1-4.1 4.1-4-4.1-4.1 4.1-4-4.1-4.1 4.1-4-4.1L50 8.1 46 4l-4 4.1L38 4l-4 4.1-4.1-3v118.8l72.7.1c14 0 12-30.3 12.3-35.2V4l-8.1 4.1z" fill="url(#a)"/><path d="M78.4 8.3l2 2c.5.5 1.3.8 2 .8s1.7-.3 2.2-.9l2-2 1.8 2c.6.6 1.4 1 2.2 1s1.6-.4 2.1-1l2-2 1.8 2c.6.6 1.4 1 2.2 1s1.6-.4 2.1-1l2-2 1.8 2a3 3 0 0 0 3.5.6l3.8-2v82.8c0 4.3 0 12.3-1.5 19-1.5 6.9-4.1 10.4-7.7 10.4l-69.7-.1-.1-110c.3.2.7.2 1 .2a3 3 0 0 0 2.2-.9l1.9-2 1.9 2c.5.6 1.3 1 2.1 1s1.6-.4 2.2-1l1.9-2 1.9 2c.5.6 1.3 1 2.1 1s1.6-.4 2.2-1l1.9-2 1.9 2c.5.6 1.3 1 2.1 1s1.6-.4 2.2-1l1.9-2 1.9 2c.5.6 1.3 1 2.1 1s1.6-.4 2.2-1l1.9-2 1.9 2c.5.6 1.3 1 2.1 1s1.6-.4 2.2-1l1.8-2M115 4zm0 0l-8.1 4.1-4-4.1-4.1 4.1-4-4.1-4.1 4.1-4-4.1-4.1 4.1-4-4.1-4.1 4.1-4-4.1-4.1 4.1-4-4.1-4.1 4.1-4-4.1L50 8.1 46 4l-4 4.1L38 4l-4 4.1-4.1-3v118.8l72.7.1c14 0 12-30.3 12.3-35.2V4z" fill="#424242" opacity=".2"/><path fill="none" stroke="#8C8C8C" stroke-miterlimit="10" stroke-width="2.1" d="M103 24H37.9"/><path d="M83.7 37.7h6.6V40h-6.6zm-18.6 0h16.1V40H65.1zm27.7 0h10.1V40H92.8zM37.9 37.7h11.7V40H37.9zM97.9 45.5h5.1v2.1h-5.1zm-32.8 0H89v2.1H65.1zM37.9 45.5h7.4v2.1h-7.4zM65.3 52.3h26.8v2.5H65.3zm30.2 0h7.4v2.5h-7.4zM37.9 53.1h12.7v1.6H37.9zM65.1 60h38.2v2.3H65.1zm-27.2 0h7.4v2.3h-7.4zM90.8 68H103v2.3H90.8zM79 68h4.5v2.3H79zm-13.9 0H72v2.3h-6.9zM37.9 68h11.4v2.3H37.9zM98.3 76.1h4.6v2.1h-4.6zm-8.2 0h5.8v2.1h-5.8zm-25 0h17.6v2.1H65.1zM37.9 76.1h9v2.1h-9zM65.1 84.1h10.2v2.5H65.1zm16.9 0h7v2.5h-7zm13.7 0h7.3v2.5h-7.3zM37.9 84.1h7.4v2.5h-7.4z" fill="#757575"/><path d="M83.7 104.5v-4c0-2 .3-3.8.8-5.5H14c-.5 1.7-.8 3.6-.8 5.5v4c0 10.7 9.3 19.4 20.8 19.4h68.4c-10.4-1.1-18.6-9.4-18.6-19.4z" fill="#9EACB4"/><path d="M80.8 98a20 20 0 0 0-.1 2.4v4c0 6.5 2.8 12.4 7.5 16.5H34c-10 .1-18-7.4-18-16.4v-4c0-.9 0-1.7.2-2.5h64.5m3.7-3zm0 0H14a19 19 0 0 0-.8 5.4v4c0 10.8 9.3 19.5 20.8 19.5h68.4c-10.5-1.1-18.7-9.4-18.7-19.4v-4c0-2 .4-3.8 1-5.5z" fill="#424242" opacity=".2"/><path d="M133.5 165.5c2 0 2-3 0-3s-2 3 0 3z" fill="#424242"/></svg>