<svg viewBox="0 0 128 128" xmlns="http://www.w3.org/2000/svg" xmlns:xlink="http://www.w3.org/1999/xlink"><circle cx="45.6" cy="119.3" r="4.7" fill="#424242"/><circle cx="45.6" cy="119.3" r="2.5" fill="#BDBDBD"/><circle cx="84.3" cy="119.3" r="4.7" fill="#424242"/><circle cx="84.3" cy="119.3" r="2.5" fill="#BDBDBD"/><linearGradient id="a" x1="54.1" x2="54.1" y1="36" y2="6.5" gradientUnits="userSpaceOnUse"><stop stop-color="#E0E0E0" offset="0"/><stop stop-color="#757575" offset="1"/></linearGradient><path fill="url(#a)" d="M52.5 9.9h3.1v26.4h-3.1z"/><linearGradient id="b" x1="73.6" x2="73.6" y1="36" y2="6.5" gradientUnits="userSpaceOnUse"><stop stop-color="#E0E0E0" offset="0"/><stop stop-color="#757575" offset="1"/></linearGradient><path fill="url(#b)" d="M72 9.9h3.1v26.4H72z"/><linearGradient id="c" x1="63.9" x2="63.9" y1="5.3" y2="13.5" gradientUnits="userSpaceOnUse"><stop stop-color="#424242" offset="0"/><stop offset="1"/></linearGradient><path d="M51.4 8.5v5.7h5.4v-5h14v4.3h5.5v-5c0-1-.6-2-1.5-2.3-1.8-.6-5.2-1.4-11-1.4s-9 .8-10.8 1.4c-1 .4-1.6 1.3-1.6 2.3z" fill="url(#c)"/><linearGradient id="d" x1="64" x2="64" y1="25.8" y2="120.1" gradientUnits="userSpaceOnUse"><stop stop-color="#90A4AE" offset="0"/><stop stop-color="#889DA7" offset=".2"/><stop stop-color="#738A95" offset=".6"/><stop stop-color="#546E7A" offset="1"/></linearGradient><path d="M88.8 119H39.3a7.4 7.4 0 0 1-7.4-7.4v-79c0-4 3.3-7.3 7.4-7.3h49.5c4 0 7.3 3.3 7.3 7.3v79c0 4.1-3.3 7.4-7.3 7.4z" fill="url(#d)"/><path d="M45.9 106h-.1a2.5 2.5 0 0 1-2.5-2.5V40.8c0-1.4 1.1-2.5 2.5-2.5s2.5 1.1 2.5 2.5v62.7c0 1.4-1 2.5-2.4 2.5zm12.1 0a2.5 2.5 0 0 1-2.5-2.5V40.8c0-1.4 1.1-2.5 2.5-2.5s2.5 1.1 2.5 2.5v62.7c0 1.4-1 2.5-2.4 2.5zm12.3 0h-.1a2.5 2.5 0 0 1-2.5-2.5V40.8c0-1.4 1.1-2.5 2.5-2.5s2.5 1.1 2.5 2.5v62.7c0 1.4-1 2.5-2.4 2.5zm12.2 0h-.1a2.5 2.5 0 0 1-2.5-2.5V40.8c0-1.4 1.1-2.5 2.5-2.5s2.5 1.1 2.5 2.5v62.7c0 1.4-1 2.5-2.4 2.5z" fill="#B0BEC5" opacity=".7"/><defs><path id="e" d="M88.8 118.6H39.3a7.4 7.4 0 0 1-7.4-7.4v-79c0-4 3.3-7.4 7.4-7.4h49.5c4 0 7.3 3.3 7.3 7.4v79c0 4-3.3 7.4-7.3 7.4z"/></defs><clipPath id="f"><use xlink:href="#e"/></clipPath><g clip-path="url(#f)"><path d="M32.4 34.3h-2.9c-6 0-11-5-11-11v-3c0-6 5-11 11-11h2.9c6 0 11 5 11 11v3c0 6-5 11-11 11zm66.5 0h-3c-6 0-11-5-11-11v-3c0-6 5-11 11-11h3c6 0 11 5 11 11v3c0 6-5 11-11 11z" fill="#455A64"/><path d="M32.4 134.7h-2.9c-6 0-11-5-11-11v-3c0-6 5-11 11-11h2.9c6 0 11 5 11 11v3c0 6-5 11-11 11zm66.5 0h-3c-6 0-11-5-11-11v-3c0-6 5-11 11-11h3c6 0 11 5 11 11v3c0 6-5 11-11 11z" fill="#37474F"/></g><circle cx="81.1" cy="46.9" r="6.4" fill="#DCEDC8"/><path d="M81 41.5a5.4 5.4 0 1 1 0 10.9 5.4 5.4 0 0 1 0-11m0-2a7.4 7.4 0 1 0 0 15 7.4 7.4 0 0 0 0-15z" fill="#2CA94F"/><path d="M47.4 81.5c-1 0-1.8-.3-2.4-.9-1.8-1.8-.5-6.3 3-9.8 2.3-2.3 5.2-3.8 7.5-3.8 1 0 1.8.3 2.3.9 1.9 1.8.5 6.3-3 9.8-2.3 2.3-5.1 3.8-7.4 3.8z" fill="#BBDEFB"/><path d="M55.5 68c.7 0 1.2.3 1.6.6.5.6.6 1.7.3 3-.5 1.8-1.7 3.7-3.3 5.4-2 2-4.7 3.4-6.7 3.4-.7 0-1.3-.2-1.6-.5-1.3-1.3-.3-5.1 3-8.3a10 10 0 0 1 6.7-3.5m0-2c-2.5 0-5.6 1.4-8.3 4-3.9 4-5.2 9-2.9 11.3.8.7 1.8 1.1 3 1.1 2.5 0 5.7-1.5 8.3-4 4-4 5.2-9 3-11.4a4.2 4.2 0 0 0-3.1-1z" fill="#4480F7"/><path fill="#FAFAFA" d="M43.4 39.4L61.3 35l2 8.5-17.8 4.4z"/><path d="M60.5 36.3l1.6 6.4-15.9 4-1.6-6.5 16-4M62 34l-19.8 4.8 2.5 10.4 19.8-4.9L62 33.8z" fill="#EC4431"/><path d="M68.6 60h-.2l-12.6-3a1 1 0 0 1-.7-1.2l1.5-6.3a1 1 0 0 1 1.2-.8l12.5 3c.3 0 .5.2.7.4s.1.5 0 .8l-1.4 6.3a1 1 0 0 1-1 .8z" fill="#FFF9C4"/><path d="M57.6 49.7l12.5 3-1.5 6.3-12.5-3 1.5-6.3m0-2a2 2 0 0 0-2 1.5l-1.5 6.3a2 2 0 0 0 1.5 2.4l12.5 3h.5a2 2 0 0 0 2-1.5l1.4-6.3a2 2 0 0 0-1.4-2.4l-12.6-3h-.4z" fill="#FBBE00"/><path d="M88.8 28.3c2.4 0 4.3 2 4.3 4.3v79c0 2.4-1.9 4.3-4.2 4.4h-3v3.5c0 .9-.7 1.6-1.6 1.6s-1.7-.7-1.8-1.6v-.2l.2-3.2H47.2l.1 3.2v.2a1.7 1.7 0 0 1-3.4 0v-.2l.2-3.2h-4.9c-2.4 0-4.3-2-4.3-4.4v-79c0-2.4 2-4.3 4.3-4.3h49.6m-25-23.5A34 34 0 0 0 53 6.2c-1 .3-1.6 1.2-1.6 2.2v5.7h1.1v11.2H39.3a7.4 7.4 0 0 0-7.4 7.3v79c0 4.1 3.3 7.4 7.4 7.4h1.6v.2a4.7 4.7 0 1 0 9.5 0v-.2h29.2v.2a4.7 4.7 0 1 0 9.4 0v-.2c4-.1 7.1-3.4 7.1-7.4v-79c0-4-3.3-7.3-7.3-7.3H75.2V13.5h1.1v-5c0-1-.6-2-1.5-2.3a35 35 0 0 0-11-1.4zm-8.1 20.5V14h1V9h14.1v4.4H72v11.8H55.7z" fill="#424242" opacity=".2"/></svg>