<svg viewBox="0 0 128 128" xmlns="http://www.w3.org/2000/svg"><linearGradient id="a" x1="-61.5" x2="-30.5" y1="-2.4" y2="-2.4" gradientTransform="matrix(1.1409 .0933 -.098 1.1975 90.3 79)" gradientUnits="userSpaceOnUse"><stop stop-color="#DE9D5D" offset="0"/><stop stop-color="#DD9A59" offset=".2"/><stop stop-color="#D88F4E" offset=".4"/><stop stop-color="#D17E3C" offset=".6"/><stop stop-color="#C76522" offset=".8"/><stop stop-color="#BA4702" offset="1"/></linearGradient><path d="M50.5 56c-.7-.2-.6.1-1.4.3h-1.5c-.4.2-.9.2-1.4.3-.4.1-.8.6-1.2.8l-1.4.4-1.4.1-1.4.4c-.4.2-.5 1.2-1 1.4l-1.4.1c-.5.2-.8.6-1.2.8-.4.2-1.1-.2-1.6 0-.4.2-.5 1-1 1.2s-1 .2-1.3.4-1 .1-1.4.4-.4 1.2-.8 1.4c-.4.3-1.2-.1-1.6.1-.4.3-.3 1.1-.7 1.4-.3.3-.5.8-.9 1-.3.4-1 .3-1.4.6l-1 1-.8 1c-.3.5-.4 1-.7 1.3-.2.4-1 .5-1.2.9-.2.4.3 1.2 0 1.6-.2.4-1.2.4-1.4.8-.2.4.1 1.1 0 1.5-.2.5-.7.8-.9 1.2-.1.4.3 1 .2 1.5-.2.4-1 .8-1 1.2 0 .5.5.9.7 1.4.1.4.6.6.8 1 .3.4 0 1.2.3 1.6.3.3 1.1.2 1.5.5.3.3.5.8.9 1 .3.3.8.5 1.2.7l1 1 1.5.1c.4.2.7.7 1.1 1 .5 0 .8.6 1.2.8.4.1 1-.2 1.5 0h1.4c.4.2.8.3 1.3.3.4 0 .7-.4 1.1-.5.4-.1 1 0 1.4-.2l1.2-.6c.3-.2.4-.8.8-1.1.3-.3 1.2 0 1.5-.2.4-.3.6-.8 1-1 .2-.4.6-.7.9-1l1-1c.2-.4-.1-1.2.2-1.6.2-.3.9-.4 1.1-.8l.9-1c.2-.4.7-.6 1-1 .2-.4-.2-1.2.1-1.6s1.3-.2 1.5-.6-.3-1.3 0-1.6l.6-1.2c.2-.4 1.1-.4 1.4-.8l.6-1.1c.3-.4-.1-1.2 0-1.6.3-.4 1.2-.4 1.4-.8.2-.4 0-1 .2-1.4l.4-1.4c.2-.4 1-.5 1.2-.9.2-.4 0-1 .3-1.3.2-.5.7-.7 1-1 .1-.5-.3-1.2 0-1.6.1-.4 1.1-.5 1.3-.8.3-.8 1-1.3.5-1.8s-1 0-1.5-.3L54 58c-.6-.3-.5-.5-1.1-.8s-1 .4-1.6 0c-.6-.3-.3-.8-1-1z" fill="url(#a)"/><linearGradient id="b" x1="34" x2="43.8" y1="86.1" y2="120.8" gradientUnits="userSpaceOnUse"><stop stop-color="#D88E47" offset="0"/><stop stop-color="#D68A44" offset=".3"/><stop stop-color="#D27F39" offset=".5"/><stop stop-color="#CA6D27" offset=".7"/><stop stop-color="#BF530E" offset=".9"/><stop stop-color="#BA4702" offset="1"/></linearGradient><path d="M23.4 83.7c-.4.2-.6.8-1.1 1-.4.3-1.2 0-1.6.3-.4.3-.7.8-1 1.2-.4.3-.5.9-.9 1.3l-1 1-.7 1.4-.6 1.3-.9 1.2-.3 1.5v1.5c-.1.4-.6.9-.6 1.4v1.5l.1 1.4c.1.5.8.9.9 1.4l.3 1.4c.2.4-.2 1 0 1.5l.5 1.3.3 1.5c.3.4.4 1 .7 1.3.3.4 1 .6 1.2 1l1 1c.3.3.5 1 1 1.2l1.1.9c.4.2 1.3-.4 1.8-.2.4.2.6.8 1 1l1.5.3c.4.2.6 1 1.1 1.2.5.1 1.1-.3 1.6-.1.4.1.8.6 1.3.7.4.1.9.6 1.4.6.4.1 1-.7 1.5-.7s1 1 1.4 1c.5-.1 1-.8 1.4-.8.5 0 1-.3 1.4-.4.5 0 1 .5 1.6.4l1.4-.3c.4 0 1-.2 1.4-.4.4-.1.8-.5 1.3-.6.5-.2 1.1.2 1.6 0s.5-1.3 1-1.5 1.2.5 1.7.3c.4-.2.5-1 .9-1.3.4-.3 1-.3 1.4-.5.4-.3.4-1.1.8-1.4.3-.3 1.3.1 1.7-.2.4-.3.5-.9.8-1.2.4-.3.5-.9.9-1.2.3-.4 1.2-.1 1.6-.5.3-.3.1-1.2.4-1.5.3-.4.9-.6 1.2-1l.8-1.1 1-1c.4-.5.3-1.1.5-1.5.6-.7 1.2-.2 1.2-1 0-.7.2-.8 0-1.5s-.7-.6-.9-1.3-.4-.6-.6-1.4l-.3-1.4c-.2-.7-.5-.6-.7-1.4-.2-.7.2-.8 0-1.5l-.3-1.5c-.2-.7-.7-.5-.9-1.3-.2-.7.7-1 .5-1.6l-.5-1.4c-.2-.7 0-1-.4-1.6-.4-.6-.7-.3-1.7-.4-.4 0-1 .8-1.6.7-.4 0-.9-.5-1.4-.6l-1.5-.2c-.4 0-1-.3-1.4-.4-.5 0-1 .7-1.6.7-.4 0-.9-1-1.4-1-.5 0-1 .9-1.5.8h-1.5c-.5 0-1-.9-1.5-.9h-1.4c-.5 0-1 .7-1.5.7s-1-.8-1.5-.8-1 .5-1.5.5-1 .4-1.5.4-1-.7-1.5-.7-1 .5-1.5.5l-1.5-.3c-.5.1-.9.9-1.4 1-.5 0-1.1-.8-1.6-.7l-1.5.3c-.5.1-1 .5-1.4.7z" fill="url(#b)"/><linearGradient id="c" x1="45.3" x2="97.1" y1="61.8" y2="97.9" gradientUnits="userSpaceOnUse"><stop stop-color="#E0944A" offset="0"/><stop stop-color="#DE9047" offset=".2"/><stop stop-color="#D9853C" offset=".5"/><stop stop-color="#D0732B" offset=".7"/><stop stop-color="#C35913" offset=".9"/><stop stop-color="#BA4702" offset="1"/></linearGradient><path d="M50.2 60l-.8 1.1-.6 1.3c-.2.3-.7.6-.9 1-.2.5 0 1-.3 1.5l-.8 1.1c-.1.4.4 1.2.2 1.6-.2.4-.9.7-1 1.1l-.4 1.3c-.1.5-.7.8-.8 1.2-.2.5 0 1-.1 1.5-.2.4 0 1 0 1.4-.2.4-.6.8-.7 1.3v1.4c0 .4-.7.8-.8 1.2l-.3 1.4c0 .5.5 1 .5 1.5l-.3 1.3v1.4l-.2 1.4-.2 1.5c0 .4 0 1 .2 1.4s.9.7 1 1.2v1.4c.2.4 0 1 0 1.4.1.4.7.8.8 1.2 0 .5-.4 1-.3 1.5.1.4.5.8.6 1.3.2.4.7.6 1 1l.5 1.3 1 1 1 1 .7 1 1.2.8c.3.3.8.3 1.2.6.4.2.5.8 1 1l1.1.7 1.2.7c.4.3 1 0 1.5.2l1.2.6c.4.2.7.8 1 1l1.4.4c.4.2.8.6 1.2.7l1.3.5c.5.1 1-.2 1.5 0l1.4.2c.5 0 .8.4 1.3.4l1.4.2c.4 0 1-1 1.4-1 .5 0 1 .5 1.4.4l1.3-.3c.4 0 1 .5 1.5.4.5 0 .8-.8 1.2-.9s1 .2 1.5 0 1 .1 1.4 0c.4-.2.6-1 1-1.3s1.2.5 1.6.3c.5-.2.6-1 1-1.2l1.1-.8c.4-.2 1.1 0 1.5-.2l1.2-.7 1.1-.8c.4-.3.6-.8 1-1 .3-.3 1-.3 1.4-.6.3-.3 0-1.2.4-1.6.3-.3 1.3 0 1.6-.3.3-.4.1-1.1.4-1.5.3-.3.9-.5 1.1-.9.3-.3 0-1 .3-1.5.2-.4 1.2-.3 1.5-.7.2-.4 0-1 .3-1.4.2-.4.1-1 .3-1.3.2-.5 1-.7 1.1-1.1.2-.5-.4-1-.3-1.5.1-.5.5-.9.5-1.3V87c0-.5.2-1 .1-1.4 0-.5-.6-.8-.7-1.2 0-.4.2-1 0-1.5 0-.4.3-.9.2-1.3 0-.5-.6-.8-.7-1.3 0-.4-.4-.8-.4-1.3l-.1-1.3c0-.5-.5-.9-.5-1.3 0-.5.2-1 .1-1.4v-1.3c-.1-.5-.7-.8-.7-1.3-.1-.4.7-1 .6-1.5l-.4-1.3-.3-1.3c0-.4 0-.9-.2-1.3-.1-.5-1-.7-1.1-1.1s.2-1 0-1.4l-.3-1.3c-.2-.5-.1-1-.3-1.4s-1-.6-1.2-1 .5-1.2.3-1.6c-.2-.4-1.2-.3-1.4-.7l-.7-1.2c-.3-.4 0-1.2-.2-1.5l-.9-1.1c-.3-.3-1-.2-1.4-.5-.3-.3-.2-1.2-.5-1.5s-1-.1-1.4-.4c-.4-.2-1-.2-1.3-.4s-.5-1-1-1.2c-.3-.2-1 0-1.3-.2s-.8-.7-1.2-.8c-.5 0-1 .5-1.5.4-.4 0-.8-1-1.2-1l-1.4-.2c-.5 0-1 .5-1.4.5H72c-.4 0-1-.2-1.4-.1-.4 0-.7 1-1.2 1-.4.2-1-.2-1.4-.1-.4.1-.8.6-1.2.8-.4 0-.8.2-1.3.4-.4.1-1-.2-1.4 0-.5 0-.8.5-1.2.7l-1.2.6-1.2.6c-.4.2-1 0-1.5.3-.3.2-.6.7-1 .9-.4.2-.5.9-1 1.1-.3.3-1.2-.3-1.6 0s-.4 1-.8 1.2l-1.1.8c-.4.2-.5.8-1 1-.3.4-.8.4-1.2.6l-1.2.8z" fill="url(#c)"/><path d="M92.2 101.2c-.2-.4-1-1-1.2-1.5l-.4-1.2c-.2-.4 0-1.1-.3-1.5s-1-.3-1.4-.7c-.3-.3-.4-.8-.8-1-.3-.4-.2-1.2-.5-1.5l-1.2-.8-1.2-.8c-.4-.2-1.2.4-1.6.2-.4-.1-.6-.8-1.1-1l-1.4-.1h-1.3c-.5 0-1-.3-1.4-.3-.5 0-.9.6-1.4.6-.4 0-1-.4-1.4-.3s-.8.7-1.2.8l-1.3.3c-.4.2-1 0-1.4.1l-1.3.4-1.2.6c-.4.2-.6.7-1 1s-.4.7-.7 1c-.3.4-1.1.4-1.4.7l-.6 1.3c-.2.4.3 1 .1 1.5-.1.4-1.1.6-1.2 1-.2.4.4.6.3 1 .3-.3.6 0 1-.3s.3-1 .6-1.2l1.1-.9 1.3-.6c.4-.2.9-.2 1.3-.3.4-.2.8-.5 1.3-.6s1 .2 1.4 0c.4 0 .8-.3 1.3-.3l1.3-.1c.5 0 .9-.5 1.3-.5L78 96c.4 0 .9.4 1.3.4h1.4c.4 0 1-.3 1.4-.2.4 0 .7 1 1.2 1.1s1-.5 1.4-.3c.5.1.7.7 1.2.9l1.1.7c.4.2 1 0 1.4.2l1.3.5 1.1.8 1.4 1.1z" fill="#E09E5E"/><path d="M90.5 99.3c-.4-.3-.2-1.3-.5-1.5-.4-.3-1.1 0-1.5-.3l-1.2-.6c-.4-.2-1-.1-1.4-.3-.5-.2-.7-.7-1.2-.8s-.7-.6-1.2-.7-1 .2-1.4 0c-.5 0-.8-.7-1.2-.8h-1.4c-.5-.1-1 .5-1.4.5s-1-.5-1.4-.5h-1.4c-.4 0-.8.5-1.3.6l-1.3.3c-.4.1-1 0-1.4.2l-1.2.7c-.4.2-.6.7-1 1-.4.2-1 0-1.4.3-.4.3-.5.9-.8 1.1s-1.1.1-1.5.5l-.8 1c-.2.4-.7.7-1 1.2-.2.4.1 1.1 0 1.6l-.8 1.2-.4 1.5c-.2.4-1 .6-1.2 1-.1.6.1 1.2 0 1.6l-.2 1.5v2.7c0 .5-.2 1-.1 1.4 0 .5.7.8.8 1.2.2.5-.1 1 0 1.5l.6 1.2c.3.4.9.6 1.1 1l1 1 1 .7c.4.3.4 1.1.8 1.4s1 0 1.4.2c.4.2 1 0 1.4.1l1.1.9c.5.1 1 0 1.4.2h1.3c.4 0 .9.3 1.3.4l1.4.1c.4.1.8.8 1.3.9.5 0 1-1 1.4-1 .4 0 .9.5 1.3.4.5 0 .8-.5 1.3-.6.4-.1 1.1.7 1.6.5.4-.1.6-1 1-1.2.4-.2 1.1.3 1.5.1l1.1-.9 1.2-.7 1.1-.9.9-1 1-1 1-1 .7-1c.2-.5.1-1 .4-1.4s.9-.6 1-1c.2-.5 0-1 .1-1.5l.4-1.3.3-1.3c0-.5.4-1 .4-1.4 0-.4-.4-.9-.5-1.4l-.1-1.3-.1-1.4c-.1-.5-.5-.8-.7-1.3-.1-.4 0-1-.3-1.4l-1-1.3c-.2-.5-1-.5-1.4-.9z" fill="#D88E47"/><linearGradient id="d" x1="89.9" x2="117.7" y1="121" y2="105.8" gradientTransform="matrix(1.0355 -.146 .1411 1.0012 -27 -24.6)" gradientUnits="userSpaceOnUse"><stop stop-color="#E3954B" offset="0"/><stop stop-color="#E19148" offset=".2"/><stop stop-color="#DB863D" offset=".5"/><stop stop-color="#D2742C" offset=".7"/><stop stop-color="#C45A14" offset=".9"/><stop stop-color="#BA4702" offset="1"/></linearGradient><path d="M83.8 54.1c-.4.2-.6.8-1 1.1l-.8 1.1c-.3.4-.8.6-1 1l-.2 1.4-.3 1.3v1.4l.2 1.3c0 .5-.4 1-.4 1.4 0 .5.6.9.6 1.3l.5 1.3c0 .4 0 1 .2 1.4 0 .4.4.7.6 1.2 0 .4-.2 1 0 1.4v1.4c.2.5 1 .6 1.2 1l.6 1.3.4 1.3c.2.4 0 1 .1 1.5.2.4 1 .5 1.3 1 .2.3 0 .9.3 1.3.1.4.6.7.8 1.2l.6 1.2c.2.4 0 1 .2 1.5l.8 1.1.5 1.3c.2.3.3.9.6 1.3l.7 1.2.8 1.1 1 1c.3.4 0 1.2.2 1.6.3.4 1 .3 1.4.7.3.3.3 1 .6 1.3l1 1c.4.3.6.9 1 1.1.4.2 1.2-.4 1.7-.3s.6 1.1 1 1.2l1.5.1 1.4-.3c.4 0 .9 0 1.4-.2l1.3-.6c.4-.2 1-.1 1.4-.4.3-.2.5-.8.9-1.1.4-.3.9-.4 1.2-.7.3-.3.1-1.2.4-1.5.3-.4 1-.4 1.2-.8.3-.4.4-.9.6-1.3s.8-.7 1-1.1c.2-.4 0-1 .1-1.4v-1.4c0-.5.4-.9.4-1.4l-.2-1.3c0-.5.5-1 .5-1.5v-1.4c-.1-.4-.9-.7-1-1.2-.1-.4 0-1-.2-1.3l-.5-1.3-.5-1.4c-.2-.4-.2-.9-.5-1.3l-.7-1.2c-.3-.3-1.2-.2-1.5-.6-.3-.3-.4-.8-.7-1.2-.4-.3-.4-1-.8-1.2-.3-.4-1-.4-1.2-.7-.4-.3-.2-1.1-.6-1.5-.3-.3-.8-.5-1-.8-.4-.4-1-.5-1.3-.8l-.9-1.1c-.3-.4-.8-.6-1-1-.4-.3-.8-.6-1-1-.4-.3-.5-.8-.9-1l-1-1c-.3-.4-.8-.5-1.1-.9-.4-.3-.5-.9-.8-1.2l-1-1-1-1c-.4-.3-1.1-.1-1.5-.4a18 18 0 0 0-1-.8c-.5-.2-.6-.9-1-1-.4-.3-.9-.5-1.3-.6-.5-.1-1-.5-1.4-.5h-1.5l-1.4.4z" fill="url(#d)"/><path d="M32.5 101.5c0 .5-.6 1-.5 1.5 0 .5.4 1 .4 1.4v1.4l-.3 1.4c-.2.5-.6.8-.8 1.2-.2.5-.6.7-1 1-.2.4-.2 1.1-.6 1.4-.4.2-1 0-1.4 0H27c-.4 0-1 .1-1.4-.1l-1.1-.8-1.1-1c-.3-.3 0-1-.2-1.5-.2-.4-.8-.6-1-1-.2-.4-.8-.7-.9-1.2-.1-.4.2-1 .1-1.5 0-.4-.3-.9-.3-1.4l-.3-1.4c0-.5.3-1 .3-1.4l.4-1.4c0-.5 1-.6 1.1-1 .3-.5-.3-1.4 0-1.7.3-.4 1-.4 1.4-.7.4-.2.7-.8 1.2-1 .4 0 .9.9 1.4 1 .4 0 1-.5 1.5-.3.4.2.4 1 .7 1.4.3.3.8.4 1 .8a9.7 9.7 0 0 1 1.5 2.4l.6 1.2.6 1.3zm-11.2-6.3c-.4.3-1 0-1.5-.2-.4-.2-1-.4-1.3-.8s.2-1 .3-1.5c0-.5 0-1 .5-1.2.4-.2.7.1 1.1.3.4.2 1 0 1.3.5.2.5.2 1 .1 1.4 0 .5-.1 1.3-.5 1.5zm3.2-3.5c-.5 0-1.3.2-1.6-.3-.3-.4 0-1-.2-1.6 0-.6 0-1 .2-1.5.2-.6.4-1.2.9-1.3.4 0 1 .3 1.4.8.3.3.3 1 .4 1.5v1.5c-.2.6-.7.8-1.1.9zm4.8.1c-.5 0-1 0-1.2-.6 0-.4-.1-1 0-1.6s.1-1.2.4-1.6c.4-.4 1.2-.5 1.7-.4s.6.7.7 1.3c.2.5.6 1 .5 1.6s-.8.7-1.1 1c-.4.5-.6.4-1 .3zM86.4 112.6c0 .5-.5.9-.5 1.3l-.2 1.3-.5 1.2c-.1.4-.1 1-.3 1.3s-.4 1-.7 1.3l-1 .9-1.2.8-1.2.5c-.5.2-1-.2-1.5-.2-.4.1-.8.9-1.3.9s-.8-.7-1.3-.7c-.4-.1-.7-.5-1.1-.6-.5-.2-1 0-1.4-.3s-.9-.2-1.2-.5l-.9-1-.6-1.2-1-1c-.1-.4-.8-.7-.9-1.2-.1-.4.2-1 .1-1.4l.2-1.4c0-.4-.6-1-.6-1.4l.4-1.3.5-1.4.7-1.2c.2-.4 1-.4 1.3-.7s.2-1.1.6-1.4 1 0 1.4-.3c.4-.2.8-.6 1.2-.7.4-.2.8-.6 1.2-.6l1.5-.2c.5 0 .9.3 1.3.4.5 0 1 .2 1.3.3.5.2.7.8 1 1l1.2.6c.3.3 1 .2 1.3.6.3.3.1 1 .4 1.4s1.1.4 1.3.8c.2.4-.2 1 0 1.5s0 .9 0 1.3c0 .5.5.9.5 1.3zm-19.3-11c.4-.5 1.2-.3 1.7-.3s.8.3 1.3.6 1.4.3 1.5.8c.2.5 0 1.5-.2 2s-1.2.3-1.8.4c-.5 0-1.2.2-1.7-.2s-.6-1-.7-1.6c-.2-.5-.4-1.3 0-1.7zm10.4-4.1c.3 0 .5.7.8 1 .3.1.6.2.7.6.2.3.6.6.6 1v1.3c-.2.3-1 .3-1.2.5-.4.2-.5.1-1 .1-.3 0-.5 0-.8-.2-.3-.2-.5-.3-.7-.7-.1-.3-.8-.6-.8-1s.5-.7.7-1c.1-.4.2-1 .5-1.1.3-.3.8-.5 1.2-.5zm9.3 4.7c.4.3.6.8.6 1.3s-.1 1-.5 1.5-.9.8-1.4.9c-.5 0-1-.1-1.4-.5s-1-.8-1-1.4c0-.5.5-1 .8-1.5.4-.4 1-.4 1.5-.5.5-.1 1-.2 1.4.1z" fill="#8C4621"/><linearGradient id="e" x1="47" x2="47" y1="-22.4" y2="22.6" gradientTransform="rotate(-13.7 119.3 34)" gradientUnits="userSpaceOnUse"><stop stop-color="#E6A96E" offset="0"/><stop stop-color="#E5A66A" offset=".2"/><stop stop-color="#E09C5F" offset=".4"/><stop stop-color="#D98B4D" offset=".6"/><stop stop-color="#CE7333" offset=".8"/><stop stop-color="#C05512" offset=".9"/><stop stop-color="#BA4702" offset="1"/></linearGradient><path d="M52.2 14.7c.2.3 0 1 .2 1.3.2.4.8.7 1 1l.2 1.4V21l-.3 1.3-.5 1.1c-.1.4-.7.7-.9 1-.1.4 0 1-.2 1.3l-.8 1c-.3.4-.2 1-.5 1.2s-.5.8-.8 1l-1 1-1.2.5c-.3.2-.9.1-1.2.3-.4.2-.5 1-1 1.2l-1.1.5-1.3.3-1.4-.3c-.4 0-.8.7-1.2.7-.4 0-.9-.7-1.3-.7s-1 .5-1.4.4l-1.2-.4c-.4-.1-.7-.7-1-1-.4 0-.6-.6-1-.8l-1-.8-.8-.9c-.3-.4-.9-.3-1.1-.7l-.8-1-.2-1.3c-.2-.4 0-.9 0-1.3s-.7-.8-.7-1.2l.1-1.3c0-.4.4-.8.5-1.2v-1.3l.7-1.1c.1-.4.2-1 .4-1.3l.9-1c.2-.3.7-.4 1-.7.3-.3.2-1 .5-1.3.3-.3.9-.2 1.2-.5.4-.3.5-.8.9-1l1.2-.4 1.2-.3c.4-.2.7-.8 1-1l1.3-.1 1.3-.3 1.2.2 1.3.1c.4 0 .9-.6 1.3-.5s.8.6 1.2.7l1.2.4 1 .7 1.2.6 1 .8.9 1z" fill="url(#e)"/><ellipse transform="rotate(-43.7 41.7 21.7)" cx="41.7" cy="21.7" rx="7.7" ry="6.4" fill="#6E371A"/><linearGradient id="f" x1="85.7" x2="85.7" y1="-20.5" y2="23.6" gradientTransform="rotate(-13.7 119.3 34)" gradientUnits="userSpaceOnUse"><stop stop-color="#E6A96E" offset="0"/><stop stop-color="#E5A66A" offset=".2"/><stop stop-color="#E09C5F" offset=".4"/><stop stop-color="#D98B4D" offset=".6"/><stop stop-color="#CE7333" offset=".8"/><stop stop-color="#C05512" offset=".9"/><stop stop-color="#BA4702" offset="1"/></linearGradient><path d="M68.7 13.4c0 .4-.6.8-.6 1.3V16a42 42 0 0 1 1 2.4c.1.4.8.5 1 .8s.2 1 .4 1.3.7.5 1 .8c.3.3.8.4 1.1.6.3.3.3 1 .7 1.3l1 .8c.4.2 1-.3 1.4-.1l1.2.3c.4.1.7.6 1.1.7.4.1.9-.2 1.3-.2s.8.5 1.2.5h1.2c.5 0 1 .3 1.3.2.5 0 .9-.2 1.3-.3l1.2-.5c.4-.1.6-.6 1-.7.4-.2.6-.7 1-1l1-.6.8-.9.8-.9c.3-.4.9-.4 1-.8.3-.3-.2-1 0-1.4s.7-.6.8-1 .5-.8.5-1.2l-.3-1.3-.3-1.3c0-.4 0-.8-.2-1.2-.1-.4-.1-1-.3-1.3l-.8-1c-.2-.4-.8-.4-1.1-.7-.3-.4-.2-1-.5-1.2s-.4-.8-.7-1.1-1 0-1.5-.2l-1-.7-1-.5-1.2-.5c-.4 0-.7-.7-1-.8-.5-.1-1 .4-1.4.4-.4 0-.8-.6-1.2-.6l-1.3.1c-.4 0-.7.4-1.1.5l-1.2.2c-.4.1-.9 0-1.3.2l-1 .6c-.4.2-1 0-1.4.2l-1 .9c-.3.3-.2.9-.5 1.2-.3.3-1 .2-1.2.6s.1 1 0 1.4c-.2.4-1 .5-1.1.9l-.6 1.2c0 .4.6.9.5 1.3z" fill="url(#f)"/><ellipse transform="rotate(-68.1 80.2 14.8)" cx="80.2" cy="14.8" rx="6.3" ry="7.5" fill="#6E371A"/><radialGradient id="g" cx="60.1" cy="14.4" r="47.9" gradientTransform="rotate(-13.7 119.3 34)" gradientUnits="userSpaceOnUse"><stop stop-color="#E6974B" offset="0"/><stop stop-color="#E49348" offset=".2"/><stop stop-color="#DE883E" offset=".5"/><stop stop-color="#D4762D" offset=".7"/><stop stop-color="#C65C15" offset=".9"/><stop stop-color="#BA4702" offset="1"/></radialGradient><path d="M93.7 32.9c.1.4 1 .7 1 1.1l.4 1.4v1.4c0 .4-.5.9-.5 1.3 0 .5.7 1 .7 1.5 0 .4-.5.8-.5 1.3v1.4l-.4 1.4c-.1.4-.6.7-.8 1.1l-.4 1.4-.7 1.2-.8 1.1-.6 1.2-.8 1.2c-.3.4-.4.9-.7 1.2-.3.4-1.1.2-1.4.5-.3.4-.2 1.2-.5 1.5-.3.3-1 .3-1.3.6l-1.1.9c-.4.2-1 .2-1.3.5-.4.3-.1 1.3-.5 1.6-.4.3-1.2-.1-1.6.1l-1.2.8-1 .9c-.4.3-.8.3-1.3.5l-1.2.7c-.4.2-1 0-1.3.3s-.7.7-1.1.8c-.5.2-1 .1-1.4.3s-.7 1-1.1 1-1-.2-1.5 0l-1.3.4c-.4.1-1-.2-1.4-.1-.4 0-.8.5-1.3.5-.4.1-.9.5-1.3.5H64c-.5 0-1 .3-1.4.3-.5 0-1-.5-1.4-.5l-1.4-.1c-.4 0-1 .7-1.4.7l-1.3-.3-1.4-.2c-.5 0-1-.2-1.4-.3l-1.3-.4-1.3-.4c-.5 0-1.1.6-1.6.5L49 63c-.5-.1-.8-.6-1.2-.8-.4-.2-1 0-1.4-.2-.4-.2-.5-1-1-1.2l-1.2-.5c-.4-.3-1-.2-1.3-.5l-1-1c-.4-.3-.8-.4-1.2-.8l-1-1-.7-1-.9-1c-.3-.5-.7-.7-1-1.1-.2-.4-.1-1-.3-1.4l-.7-1.2-.5-1.3c-.1-.4-.8-.7-1-1.1l-.4-1.4c-.1-.4.3-1 .2-1.4l-.3-1.4V42c0-.4-.4-.8-.4-1.3v-1.3c0-.4.3-1 .4-1.4 0-.4 0-.8.2-1.3s-.8-1-.7-1.5c0-.4.6-.8.7-1.2v-1.4c0-.4 1-.6 1.1-1 .2-.5-.2-1.1 0-1.5.1-.5.6-.7.8-1.1.2-.4.7-.7 1-1s-.3-1.3 0-1.6c.2-.4 1.1-.3 1.4-.7s0-1.1.3-1.5l.7-1.2c.3-.4 1-.2 1.3-.6l1-1 1-.9c.3-.2.5-.7.8-1 .4-.3 1-.1 1.4-.4.4-.3.2-1.2.6-1.5.4-.3 1.3.3 1.6 0s.5-1 .9-1.2l1.3-.4c.4-.2.5-1 1-1.1.3-.2 1.1.4 1.5.2l1.1-.9c.4-.1.8-.6 1.2-.7.4-.2 1 .4 1.5.2.4-.1.7-1 1-1l1.5-.2 1.3-.3H61c.4-.1.8-.6 1.3-.6.4 0 .9.3 1.4.3.4 0 .9.4 1.3.4s1-.5 1.4-.5h1.4l1.3.2h1.4c.4 0 .8.5 1.3.6l1.3.5c.5 0 1-.2 1.4 0 .4.1.5 1.1 1 1.3l1.3.4 1.2.6 1.1.7c.4.2 1.2-.3 1.6 0 .4.2.5.8 1 1s.6.6 1 .9l1 1c.3.3 1.1 0 1.5.3s0 1.3.4 1.6c.3.3 1.3-.1 1.6.2l1 1c.3.3 0 1.2.3 1.5l.9 1c.2.4 1 .4 1.3.7s0 1.2.2 1.6.9.5 1.1.9c.2.4.7.6 1 1 .2.4-.3 1.2-.1 1.6.2.4.7.7.9 1 .2.5-.3 1.2-.1 1.6z" fill="url(#g)"/><path d="M77.2 42.6l.2 1.3c0 .5.4 1 .4 1.4s-.6.8-.7 1.2c-.1.5.6 1.1.5 1.6-.1.4-.8.7-1 1-.2.5 0 1.1-.2 1.5-.3.4-.9.5-1.2.9-.2.3-.2 1-.6 1.3-.3.3-1 .2-1.4.5-.3.3-.3 1-.7 1.3l-1.1.7-1.2.8c-.4.2-1.2-.4-1.6-.2l-1.2.6-1.2.5-1.3.3-1.4.5c-.4 0-1 0-1.4.2-.5 0-.9.5-1.3.5l-1.5-.3c-.5 0-1 .3-1.4.2-.5 0-1-.3-1.4-.4l-1.4-.4c-.4-.1-1-.2-1.3-.4-.5-.2-.8-.6-1.2-.8l-1.2-.8-1-1c-.3-.4-.8-.5-1.1-.9l-.8-1.2c-.2-.4-.1-1-.3-1.4s0-1-.2-1.4l-.5-1.3c0-.4-.2-.9-.1-1.3l.5-1.4c0-.4-.2-1 0-1.4.1-.4.7-.7 1-1l.4-1.4c.3-.3.4-.9.7-1.2.3-.4.9-.4 1.3-.7.3-.3.5-.8.9-1.1l1.1-.9c.4-.2 1-.1 1.4-.3.4-.2 1 0 1.4-.2.5-.2.7-.7 1.2-.8.4-.2.7-.8 1.2-1 .4 0 1 .5 1.5.4l1.3-.3c.5-.1.9-.9 1.3-1l1.4-.1 1.4.2c.5 0 1 .4 1.4.4l1.4.2h1.3l1.4.4c.4.1 1 .2 1.3.4.5.2.7.7 1 1 .4.2 1 .3 1.3.6l1 .9c.4.4.4.9.6 1.3.3.4.3.8.5 1.3l.6 1.2z" fill="#E6C190"/><path d="M52.6 34.4v1.8l-.5.8c-.2.3-.2.5-.5.7l-.7.5a4 4 0 0 1-.8.3h-1.8l-.9-.3-.6-.6a3 3 0 0 1-.6-.7l-.2-.8-.1-1v-.8l.4-.8.6-.7a3.4 3.4 0 0 1 2.4-.9h1l.7.4.7.6.6.7.3.8zM73 29.8v1.8l-.4.8-.5.7-.8.5a4 4 0 0 1-.8.3h-1.8l-.8-.3-.7-.6a3 3 0 0 1-.6-.7l-.2-.9c-.1-.3 0-.5 0-.8v-1l.4-.7.5-.7a3.4 3.4 0 0 1 2.5-.9h.9l.8.4.6.6c.2.2.5.4.6.7.2.2.2.5.3.8z" fill="#240800"/><path d="M60.4 42.2c1 2.8 1.8 6.8 2.7 9.6" fill="none" stroke="#240800" stroke-linecap="round" stroke-linejoin="round" stroke-miterlimit="10" stroke-width="1.2"/><path d="M49.4 47.8a13.3 13.3 0 0 0 6.4 3.7 14.7 14.7 0 0 0 16-6.2c.6-1.1 1.1-2.2 1.4-3.5 0 1.3-.5 2.5-1 3.7a13.8 13.8 0 0 1-20 5c-1.1-.8-2-1.7-2.8-2.7z" fill="#240800"/><path d="M65.3 39.6v.7l-.3.7-.2.7-.4.5-.6.5-.4.6-.4.6-.6.4-.3.6-.6.4c-.3.1-.3 0-.7-.1l-.6-.3c-.2-.1-.5 0-.7-.2l-.6-.3-.7-.4-.7-.1-.6-.3-.5-.6-.5-.4-.5-.6.1-.7.1-.7.5-.6.3-.6.7-.4.5-.5.7-.2.7-.3.7-.2h.7l.7-.2h1.4l.8.1.6.4.6.3.6.5.2.7z" fill="#4F1100"/><ellipse transform="rotate(-13.7 59.7 40)" cx="59.7" cy="39.9" rx="1.5" ry="1" fill="#E6B17F"/><ellipse transform="rotate(-13.7 47.7 35.5)" cx="47.7" cy="35.5" rx=".9" ry="1" fill="#fff"/><ellipse transform="rotate(-13.7 68.4 30.8)" cx="68.4" cy="30.8" rx=".9" ry="1" fill="#fff"/><path d="M79.4 6.6c.3.3.8.5 1.4.5h1.1l.8.4.3.1.6.3.6.2.3.2.3.2.5.4c.5.3 1 .4 1.4.5.2.4.3.9.7 1.4.4.5 1 .8 1.3 1l.3.4.2.7v.1a5 5 0 0 0 .4 2v.1l.2.8v.1c-.4.3-.9.8-1.1 1.4-.2.5-.2.8-.2 1.2l-.5.5-.4.5-.2.1-.1.3-.4.4h-.1a3 3 0 0 0-1 2.3v.2c0 .5.1 1.4.8 2.3l.8 1c.3.3.6.6 1 .7 0 .4.1.9.4 1.3.4.6 1 1 1.3 1.2l.3.3a3.2 3.2 0 0 0 .8 2.4v1.5c.4.8.9 1.3 1.3 1.7v1.1c-.2.4-.4 1-.4 1.7s.2 1.2.4 1.6l-.2.8v1.3l-.2.8a4.1 4.1 0 0 0-1.1 2.6l-.2.2-.5.7-.2.4-.5.7-.4.7-.2.4-.4.6-.3.4-.4.7c-.5.2-1 .4-1.5 1-.7.6-.8 1.4-.9 1.9-.2.5-.3 1-.2 1.6.1.8.6 1.5 1.4 1.8l.8.3.4.2 1.1 1.1.8.5.2.2c.6.4 1.2.6 1.6.6l.1.2a20.6 20.6 0 0 0 1 .9l.3.3a4.3 4.3 0 0 0 2 2.1v.1l.8.6.2.2.1.2c.2.3.4.7.8 1l.5.7.4.4 1 .7.1.2.3.3.6.8c.5.5 1 .7 1.3.9h.1l.6.5a3.4 3.4 0 0 0 2.2 2.5c.1.3.3.7.6 1v.1l.7 1.1c.6.7 1.3 1 1.8 1l.2.5v.1l.5 1.1v.3l.4.9.2.5.2.5v.2l.1 1c.2.8.6 1.3 1 1.6v.1a3.6 3.6 0 0 0-.3 3c-.2.2-.3.5-.4 1V88a4 4 0 0 0-.8 1l-.3.7c-.4.2-.9.5-1.3 1s-.6 1-.6 1.4l-.6.4-.8.9-1 .3-.2.1-.8.4h-.6l-.5.1c-.4 0-.7.2-1 .3h-.2c-.2-.4-.7-.8-1.4-1.1a2.9 2.9 0 0 0-1.6-.2L97 93l-.4-.4-.2-.2a2.5 2.5 0 0 0-2.4-1c-1 .1-1.8.9-2 1.8a3 3 0 0 0-2 2.7l-.6.6c-.6.7-.7 1.5-.8 2-.2.5-.3 1-.2 1.5a3 3 0 0 0 1.2 1.7l.6.2.4.5v.1a4.7 4.7 0 0 0 .9 2.3l.1 1.2v.5l.1.7c0 .5.2.8.4 1.1l-.3 1v.3l-.3 1-.2.6a21.7 21.7 0 0 0-.2 1.3l-.9 1-.4 1.4-.1.2-.4.6-.3.4-.5.4-.3.3-.6.5a5 5 0 0 0-.7 1h-.1l-.9.7h-.1l-.9.6-.6.5h-.5a3 3 0 0 0-2 .7l-.8-.1h-.6l-1 .4-1-.1c-.6 0-1.1.1-1.5.4-.3-.2-.6-.3-1-.3l-1.2-.1-.2-.1a5 5 0 0 0-1.8-.4h-1.4a3.6 3.6 0 0 0-2.5-1h-.4l-.4-.2c-.1-.3-.4-.7-.8-1l-.8-.5-.2-.1-.6-.7a4 4 0 0 0-1-1l-.2-.3-.1-1.6-.7-1.2v-.9l.1-1.2v-2.1c.2-.3.2-.6.2-.7 0-1-.6-2-1.7-2.5-.3-.2-.7-.5-1.3-.7l-.8-.3c-.2-.3-.7-.8-1.4-1l-.7-.4-.4-.2c-.4-.2-1-.3-1.5-.3h-.5c-1.1 0-2 .7-2.3 1.7-.4.2-.8.4-1.2.8-.5.4-.7.8-.9 1v.2l-.5.6a3.1 3.1 0 0 0-2.9 2 4 4 0 0 0-1 .3l-.7.7h-.4a3 3 0 0 0-2.5 1.4c-.4 0-.7 0-1 .2-.5.1-.8.3-1 .5l-.3.1-.4.1-.8.2-.8.2c-.3-.1-.8-.3-1.5-.3H37c-.5 0-.8.2-1.1.3h-.2c-.4 0-.8.2-1 .3a3 3 0 0 0-1.5-.4H33c-.7 0-1.2.2-1.6.4l-.5-.2-1.2-.7-1.1-.2h-.4c-.2-.3-.6-.6-1.1-.8l-1.2-.3c-.3-.3-.6-.7-1.2-1a3 3 0 0 0-1.3-.3l-.9.1h-.2v-.1c-.2-.3-.4-.8-.9-1.2l-.8-.8c-.3-.5-.8-.7-1.1-1a9 9 0 0 0-.3-.7c0-.4-.2-.9-.4-1.4l-.3-.8c.1-.4.2-1 0-1.8l-.2-.8-.1-.5c-.2-.7-.6-1.2-.9-1.5V97.2c.1-.4.4-.8.5-1.5v-1.3l.2-.7v-.4h.1l.7-1 .1-.4.4-.8.5-.9.1-.2.3-.3.6-.6c.4-.5.6-1 .7-1.3l.5-.5c.5 0 1 0 1.6-.4l1.2-1 .1-.2c1-.8 1.2-2.3.4-3.4l-.6-.6-.9-.6c0-.3-.2-.6-.4-1l-.6-.7.4-.8c.2-.6.1-1.2 0-1.6l.5-.8c.2-.3.3-.7.3-1a3 3 0 0 0 1.5-2.7l.6-.7.6-1v-.2c.2 0 .3-.2.3-.3a8.7 8.7 0 0 1 1-1.1c.5-.1 1.1-.3 1.7-.9l.7-.8.1-.2.7-.8a3 3 0 0 0 2.5-1.9c.2 0 .4 0 .7-.2.4 0 1-.1 1.5-.4l1-.9c.6 0 1 0 1.4-.3l1-.6h.1c.4 0 .9 0 1.4-.3 1-.3 1.5-1.1 1.8-1.6.5-.4 1-1 1-1.8.2-.9-.2-1.8-1-2.4h-.1l-.2-.3-.5-.4v-.1l-.7-1-.6-.7-.2-.3-.8-.8a4 4 0 0 0-.4-1.3l-.2-.5a10 10 0 0 1-.6-1.3l-.2-.5c-.3-.7-.8-1.2-1.1-1.5l-.1-.3c0-.4.2-1 0-1.8l-.2-1v-2.7a4 4 0 0 0-.4-1.5v-.6c.1-.3.4-.8.4-1.5v-.7l.2-.4a3 3 0 0 0-.3-1.8l.2-.7.1-.8.5-.5c.4-.5.6-1.2.5-1.9 0-.6-.4-1.2-.9-1.6l-.2-.2-1-1a5.5 5.5 0 0 1-1-1l-.3-.2c-.4-.5-1-.7-1.3-.9v-.1l-.2-.1v-1.9l-.7-1.4v-.2l.6-1.2v-1.2a4.3 4.3 0 0 0 .8-1.7l.5-.5 1-.9c.4-.3.6-.7.7-1l.8-.5.8-.8.6-.3c.4 0 .8 0 1.3-.3.5-.2.9-.5 1.1-.8h.7l.6-.2h1.4l.3.1.7.1h.3c.4 0 .8 0 1-.2l.7.3.7.1.1.1.8.6 1 .5.6.4.2.2.3.3.2.2a2.5 2.5 0 0 0 3.7 1l.7-.6.4-.3.9.2c.3 0 .6 0 .9-.2.7-.2 1.1-.6 1.4-1l.9-.1a7.1 7.1 0 0 0 1-.4h.8a3.7 3.7 0 0 0 1.9-.4l.7.2c.4.1 1 .4 1.7.4.8 0 1.4-.3 1.8-.5h.7V14h.2l.6.1c1 0 1.8-.6 2.3-1.4v-.2l.2-.2c.3-.2.8-.6 1.2-1.3.2-.3.3-.7.3-1l.6-.5c.4-.5.6-1 .7-1.3l.1-.1c.4 0 .8-.1 1.3-.4l.8-.3c.3 0 .6 0 1-.2l1-.2 1.2-.4h.3m.4-2.6l-1.2.2c-.4 0-.8.4-1.2.4l-1.2.3c-.4.1-.8 0-1.2.2l-1.1.5c-.4.1-1 0-1.3.3-.4.2-.6.6-1 .9s-.3.9-.5 1.2c-.3.3-1 .2-1.3.6s.2 1 0 1.4c-.2.4-.9.5-1 .9l-.5.8h-1.9c-.5 0-1 .5-1.4.5-.4 0-.9-.4-1.3-.4-.5 0-1-.3-1.3-.3h-.1c-.5 0-.9.5-1.3.6h-1.1a2 2 0 0 0-.3 0c-.4 0-.9.3-1.3.4h-1.4c-.4.2-.7 1-1 1.2h-.2l-1.2-.3h-.2l-1.2.8c-.3.1-.6.5-.9.7v-.2l-1-1c-.2-.3-.7-.5-1-.8-.3-.3-.8-.4-1.1-.6l-1-.8c-.3-.2-.9-.2-1.3-.4-.4 0-.7-.6-1.1-.7h-.1c-.4 0-.9.6-1.3.6l-1.2-.2-1.2-.1h-.1l-1.2.3c-.5 0-.9 0-1.3.2-.4 0-.6.6-1 .8-.4.2-.9.1-1.3.3-.3.2-.8.2-1.2.5s-.5.7-.8 1c-.4.2-1 .2-1.3.4-.3.3-.2 1-.4 1.4s-.8.4-1 .7c-.3.4-.8.6-1 1l-.4 1.2c-.2.4-.5.7-.6 1.1-.2.4 0 1 0 1.4-.1.4-.5.7-.6 1.2v1.3c0 .5.5.8.6 1.2V26l.3 1.2.7 1.1c.3.4.9.4 1.2.7l.8.9 1 .7c.3.3.5.8.9 1h.1c-.3.4-.8.6-1 1v1.3c0 .4-.7.8-.7 1.3-.1.4.7 1 .6 1.5l-.1 1.3c0 .5-.4.9-.4 1.3v1.4c0 .4.4.8.4 1.3v2.7l.2 1.3c.1.4-.2 1 0 1.5l.3 1.3c.2.5.9.7 1 1.1l.5 1.3.7 1.2c.2.4.1 1 .3 1.4l1 1 1 1.1c.3.4.3.9.6 1.2l1 1 .3.2h-.2c-.5.2-.6 1.3-1 1.4l-.5.1h-1c-.4.2-.7.7-1.2.9h-1.5c-.4.2-.6 1-1 1.1l-1.4.4-1.4.4c-.4.2-.3 1.2-.7 1.4l-.4.1h-1.2c-.4.3-.4 1.1-.7 1.4-.4.3-.6.8-1 1-.3.4-1 .3-1.3.6l-1 1-.8 1.1c-.3.4-.4.9-.7 1.2-.3.4-1 .5-1.2 1-.3.3.3 1.2 0 1.6-.2.4-1.2.3-1.4.7-.3.5.1 1.1 0 1.6l-.9 1.1c-.2.5.3 1.1.2 1.5-.2.4-1.1.8-1 1.3 0 .4.5.8.6 1.3.2.4.6.7 1 1 .1.4-.2 1.2.2 1.6.3.3 1.1.2 1.5.5l.2.3-1 1h-.9c-.2 0-.5 0-.7.2l-1 1.1c-.4.3-.5 1-.8 1.3l-1 1L17 90l-.7 1.3-.8 1.3c-.2.4-.2 1-.3 1.4v1.5c-.2.5-.6 1-.6 1.4v1.5l.1 1.5c0 .5.7.8.9 1.3l.3 1.4c.1.5-.2 1.1 0 1.5l.5 1.4c.2.4.1 1 .3 1.4l.7 1.4c.2.4.9.6 1.2 1l1 1c.4.4.5.9.9 1.2l1.2.8h.3l1.2-.2h.2c.5.3.7.9 1.1 1 .5.3 1 .2 1.5.4.4.2.6 1 1 1.1h.3l1.1-.1h.3l1.2.8c.5 0 1 .5 1.4.6.5 0 1-.8 1.5-.8s1 1 1.5 1c.4 0 1-.8 1.4-.8.5 0 1-.3 1.4-.3.5 0 1 .4 1.4.4h.1l1.4-.3 1.4-.4 1.4-.7h1.5c.5-.1.5-1.2 1-1.4h.2l1.3.3h.2c.4-.3.5-1.1 1-1.4.4-.2 1-.2 1.3-.5.4-.3.4-1 .8-1.4h1.4l.3-.1c.4-.3.5-1 .9-1.3l.8-1.2c.4-.3 1.3 0 1.6-.4.3-.3.2-1 .4-1.3h.8l1.2.6c.4.2.7.8 1 1l1.4.5c.4.1.8.5 1.2.7v.2l-.2 1.4v2.7c0 .5-.2 1-.1 1.5 0 .4.7.7.9 1.2.1.4-.2 1 0 1.4.2.4.3.9.6 1.3.2.4.8.5 1 .9l1 1 1 .7c.4.3.4 1.2.8 1.4s1 0 1.4.3H69c.4.2.7.8 1.1 1l1.4.1h1.4c.4.1.8.4 1.3.4l1.3.2c.4 0 .9.8 1.3.8.5 0 1-1 1.4-1 .4 0 .8.5 1.3.5s.8-.6 1.3-.7c.5 0 1 .6 1.5.6.5-.2.7-1 1.1-1.3h.2l1 .2h.3l1.2-1 1.1-.7 1.1-.8c.3-.3.5-.8.9-1.1l1-1 1-1 .7-1 .4-1.4c.2-.4.9-.6 1-1 .2-.4 0-1 .1-1.4l.4-1.4c0-.4.3-.8.3-1.3 0-.4.5-.9.4-1.4 0-.4-.4-.9-.5-1.3v-1.4c-.2-.4 0-1-.2-1.4-.1-.4-.5-.8-.7-1.2-.1-.5 0-1-.3-1.4-.2-.5-.7-.9-1-1.3-.2-.4-.7-.5-1-.7.2-.4 0-1 .3-1.4.3-.4.9-.5 1.1-.9.3-.4 0-1.1.3-1.5.3-.4 1.3-.3 1.5-.7.2-.3.1-.8.2-1.2l.1.1 1 1c.4.3.6 1 1 1.2h.2l1.3-.3h.2c.4.2.6 1 1 1.2s1 0 1.5.1c.5 0 1-.3 1.4-.3.4-.1 1-.1 1.4-.3l1.3-.5 1.4-.4c.4-.3.5-.9 1-1.1l1.1-.8c.3-.3.1-1.1.4-1.5.3-.4 1-.4 1.2-.8l.6-1.2c.2-.4.8-.7 1-1.1.2-.5 0-1 .1-1.5v-1.4c0-.4.4-.8.4-1.3l-.2-1.4c0-.5.6-1 .5-1.4v-1.4c-.1-.5-.9-.8-1-1.2-.1-.5 0-1-.2-1.4l-.5-1.3c-.2-.4-.2-.9-.5-1.3-.2-.4-.2-1-.5-1.3-.2-.4-.4-.9-.7-1.2-.3-.4-1.2-.3-1.5-.6-.3-.4-.4-.9-.7-1.2-.3-.4-.4-1-.7-1.3-.4-.3-1-.3-1.3-.7-.4-.3-.2-1-.6-1.4l-1-.9c-.4-.3-1-.4-1.3-.8l-.9-1c-.3-.4-.8-.6-1-1l-1-1c-.4-.3-.5-.8-.8-1.1-.4-.4-.8-.6-1-1-.4-.3-1-.5-1.2-.8-.4-.4-.4-1-.8-1.3l-1-.9-1-1c-.4-.3-1-.2-1.5-.4a18 18 0 0 0-1-.8c-.5-.3-.6-1-1-1.1l-1.3-.5-.4-.2c.3-.3.2-1 .5-1.4.3-.3 1.1-.2 1.4-.5.3-.4.4-1 .7-1.3l.8-1.1.6-1.2.8-1.2c.2-.4.6-.7.7-1.2l.4-1.3c.2-.4.7-.7.8-1.2l.4-1.3V41c0-.5.4-1 .5-1.4 0-.4-.7-1-.7-1.4 0-.5.5-1 .4-1.4v-1.4l-.2-1.3c-.1-.5-1-.7-1.1-1.2-.2-.4.3-1 .1-1.4-.1-.5-.7-.7-.8-1.1-.2-.5.2-1.2 0-1.6s-.7-.6-1-1-.8-.5-1-1c-.3-.3 0-1.1-.2-1.5-.3-.4-1.1-.3-1.4-.7l-.8-1c-.3-.3-.2-.8-.2-1.2l.9-.9.8-1c.3-.3.9-.4 1-.7.3-.4-.2-1 0-1.4s.7-.6.8-1 .5-.9.5-1.3l-.3-1.3-.3-1.2c0-.4 0-.9-.2-1.3 0-.4 0-.9-.3-1.2l-.8-1c-.2-.3-.8-.5-1-.8-.4-.3-.3-.9-.6-1.2s-.4-.8-.7-1c-.2-.2-.3-.2-.5-.2h-.9l-1-.8-1.2-.4-1.1-.5c-.4-.1-.7-.8-1-.9h-.2c-.3 0-.8.4-1.2.4-.4 0-.8-.6-1.2-.6z" fill="#424242" opacity=".2"/></svg>