<svg viewBox="0 0 128 128" xmlns="http://www.w3.org/2000/svg"><path d="M41.8 85.7c-1.5.6-3 .6-4.5 1a57.7 57.7 0 0 0-13.1 3.8 21 21 0 0 0-7.2 5.3 12.8 12.8 0 0 0-2.7 8.2c0 3 1 6 2.7 8.4a21 21 0 0 0 6.5 6.1 36.8 36.8 0 0 0 17.5 4.6 58.3 58.3 0 0 0 26.7-5.8l4.3-1.9 4.4-1.6c3-.9 6-1.6 9.1-1.9s6.4-.2 9.4.6a21 21 0 0 1 14.2 11.6c0 .2 0 .5-.2.6s-.5 0-.5-.2a20.4 20.4 0 0 0-13.6-11c-3-.8-6.1-.9-9.2-.6s-6 1-8.9 2c-1.4.4-2.9 1-4.3 1.6l-4.2 1.8a59.4 59.4 0 0 1-27.2 6 37 37 0 0 1-18-4.8 22 22 0 0 1-7-6.4 16.7 16.7 0 0 1-3-9c0-1.6.2-3.2.7-4.8s1.4-3 2.4-4.2c2-2.6 4.7-4.3 7.5-5.7a44 44 0 0 1 13.5-4c1.5-.2 3-.6 4.7-.2l.2.4-.2.2z" fill="#CA3836"/><ellipse cx="64.2" cy="98.5" rx="31.7" ry="6.6" fill="#DDB889"/><ellipse cx="64.2" cy="97.9" rx="31.9" ry="6.6" fill="#DFBA8B"/><ellipse cx="64.2" cy="97.4" rx="32.1" ry="6.6" fill="#E0BC8D"/><ellipse cx="64.2" cy="96.8" rx="32.3" ry="6.6" fill="#E2BE8E"/><path d="M93.5 105.2l.1-.3.2-.3v-.3l.2-.3v-.3l.2-.3.1-.2.1-.3.1-.3.1-.3.1-.3.1-.3.2-.3v-.3l.2-.3v-.3l.2-.2.1-.3.1-.3.1-.3.2-.5.2-.5.2-.6.2-.6.2-.8c0-3.6-14.5-6.5-32.4-6.5-18 0-32.4 3-32.4 6.5 0 .3 0 .6.2.8l.2.6.2.6.2.5.2.5v.3l.2.3.1.3.1.2.1.3.1.3.1.3.1.3.2.3v.3l.2.3v.3l.2.3.1.2.1.3.1.3.1.3.1.3.2.3v.3l.2.3c1 3.4 13.7 6.1 29.2 6.1s28.2-2.7 29.2-6.1v-.3z" fill="#C9A377"/><ellipse cx="64.2" cy="96.2" rx="32.5" ry="6.6" fill="#E4C090"/><path d="M96.1 94.5l-.3-.3-.3-.3-.3-.3-.3-.3-.3-.4-.3-.3-.3-.3-.3-.3-.3-.3-.3-.4-.3-.3-.3-.3-.3-.3-.3-.3-.3-.4-.3-.3-.3-.3a3 3 0 0 0-.3-.3 3 3 0 0 0-.3-.3 3 3 0 0 0-.3-.4l-.3-.3a3 3 0 0 0-.3-.3 3 3 0 0 0-.3-.3 3 3 0 0 0-.3-.3 3 3 0 0 0-.3-.4 3 3 0 0 0-.3-.3 3 3 0 0 0-.3-.3 3 3 0 0 0-.3-.3c-2.4-3-11.9-5.1-23.2-5.1-11.2 0-20.6 2-23.2 5l-.3.3-.3.3-.4.3c0 .2-.2.3-.3.4l-.3.3-.3.3-.3.3-.4.3c0 .2-.2.3-.3.4l-.3.3-.3.3-.3.3-.4.3c0 .2-.2.3-.3.4l-.3.3-.3.3-.3.3-.4.4-.3.3-.3.3-.3.3-.3.3-.4.4-.3.3-.3.3-.3.3-.3.3-.4.4c-.5.4-.8 1-.8 1.4 0 3.7 14.6 6.6 32.7 6.6s32.6-3 32.6-6.6c0-.4-.2-1-.7-1.4z" fill="#FED9AD"/><ellipse cx="64.6" cy="86.7" rx="23.6" ry="6.6" fill="#FFDAAE"/><path d="M40.7 28.1v58.6c0 3.7 10.5 6.6 23.5 6.6s23.6-3 23.6-6.6V28.1H40.7z" fill="#CA3836"/><path d="M99.7 18.6v-.4c-.7-3.6-16.3-6.4-35.5-6.4s-34.8 2.8-35.4 6.4v.4c0 .6.4 1.2 1.2 1.7l.5.4.6.5.5.4.6.4.5.5.5.4.6.4.5.4.6.5.5.4.5.4.6.4.5.5.5.4.6.4c3 2.8 13.6 5 26.1 5s23.1-2.2 26.2-5l.5-.4.6-.4.5-.5.5-.4.6-.4.5-.4.5-.4.6-.5.5-.4.6-.4.5-.5.6-.4.5-.4.6-.5.5-.4c.8-.5 1.2-1.1 1.2-1.7z" fill="#C9A377"/><path d="M99.5 17.7v-.2l-.1-.2V17l-.2-.2v-.5l-.1-.2v-.2l-.2-.3v-.4l-.1-.3v-.2l-.2-.2V14l-.1-.2v-.2l-.2-.3v-.4l-.1-.3v-.2l-.2-.2v-.5l-.1-.2v-.2l-.2-.3v-.2C97 7.2 82.3 4.4 64.2 4.4s-32.9 2.8-33.5 6.3v.5l-.1.2-.1.3v.2l-.1.2v.3l-.1.2-.1.2v.2l-.1.3v.2l-.1.2-.1.3v.2l-.1.2v.3l-.1.2-.1.2v.2l-.1.3v.2l-.1.2-.1.3v.2l-.1.2v.3l-.1.2-.1.2v.2l-.2.5c0 3.6 15.9 6.6 35.4 6.6s35.4-3 35.4-6.6l-.1-.4z" fill="#E6C49C"/><ellipse cx="64.2" cy="10.7" rx="33.5" ry="6.6" fill="#FFDAAE"/><linearGradient id="a" x1="64.2" x2="64.2" y1="7.8" y2="13.2" gradientUnits="userSpaceOnUse"><stop stop-color="#8C6239" offset="0"/><stop stop-color="#42210B" offset="1"/></linearGradient><ellipse cx="64.2" cy="9.4" rx="9.8" ry="1.9" fill="url(#a)"/><path d="M41.8 84.5c0 1 .8 1.7 1.6 2.2a35.2 35.2 0 0 0 8.6 2.8A72.6 72.6 0 0 0 82.3 88l2.7-1.2c.8-.6 1.6-1.3 1.7-2.3h.2c0 1.1-.9 2-1.7 2.6-.8.6-1.8 1-2.8 1.5-1.9.7-3.9 1.2-6 1.7a67.7 67.7 0 0 1-24.5 0c-2-.4-4-1-6-1.7-1-.4-1.9-.9-2.7-1.5-.9-.6-1.7-1.5-1.7-2.6l.1-.1h.2z" fill="#FF5F5E"/><path d="M41.8 82.2c0 1 .8 1.7 1.6 2.2.9.5 1.8 1 2.8 1.3a72.6 72.6 0 0 0 36.1 0c.9-.3 1.8-.7 2.7-1.3.8-.5 1.6-1.2 1.7-2.2V82h.2c0 1.2-.9 2-1.7 2.6-.8.7-1.8 1.1-2.8 1.5-1.9.8-3.9 1.3-6 1.7A67.7 67.7 0 0 1 52 88c-2-.4-4-.9-6-1.6-1-.4-1.9-.9-2.7-1.5-.9-.6-1.7-1.5-1.7-2.6l.1-.2s.2 0 .2.2z" fill="#FF5F5E"/><path d="M41.6 81.2c.1 1 1 1.7 1.8 2.1a25.3 25.3 0 0 0 8.8 2.2 73 73 0 0 0 30-3.3c1-.4 1.9-.8 2.7-1.4.8-.6 1.5-1.4 1.5-2.4h.2c0 1.1-.7 2-1.5 2.7a27.8 27.8 0 0 1-8.5 3.7 67.2 67.2 0 0 1-30.6.3c-1-.4-2-.8-2.8-1.3-.9-.6-1.8-1.4-1.9-2.6h.1c.1-.1.2 0 .2 0z" fill="#FF5F5E"/><path d="M41.8 75.1c0 1 .8 1.7 1.6 2.3.9.5 1.8 1 2.8 1.2 1.8.7 3.8 1.2 5.8 1.5a72.6 72.6 0 0 0 30.3-1.4c.9-.4 1.8-.7 2.7-1.3.8-.5 1.6-1.3 1.7-2.3h.2c0 1.2-.9 2-1.7 2.6-.8.6-1.8 1.1-2.8 1.5-1.9.8-3.9 1.3-6 1.7A67.7 67.7 0 0 1 52 81c-2-.4-4-.9-6-1.7-1-.4-1.9-.8-2.7-1.4-.9-.6-1.7-1.5-1.7-2.7h.2z" fill="#FF5F5E"/><path d="M41.8 72.8c0 1 .8 1.7 1.6 2.2a35.2 35.2 0 0 0 8.6 2.8 72.6 72.6 0 0 0 30.3-1.5l2.7-1.2c.8-.6 1.6-1.3 1.7-2.3h.2c0 1.1-.9 2-1.7 2.6-.8.6-1.8 1-2.8 1.5-1.9.7-3.9 1.3-6 1.7a67.7 67.7 0 0 1-24.5 0c-2-.4-4-1-6-1.7-1-.4-1.9-.9-2.7-1.5-.9-.6-1.7-1.4-1.7-2.6l.1-.1.2.1z" fill="#FF5F5E"/><path d="M41.8 70.5c0 1 .8 1.7 1.6 2.2.9.5 1.8 1 2.8 1.3a72.6 72.6 0 0 0 36.1 0c.9-.3 1.8-.7 2.7-1.3.8-.5 1.6-1.2 1.7-2.2v-.1h.2c0 1.2-.9 2-1.7 2.6-.8.7-1.8 1.1-2.8 1.5-1.9.8-3.9 1.3-6 1.7a67.7 67.7 0 0 1-24.5 0c-2-.4-4-.9-6-1.6-1-.4-1.9-.9-2.7-1.5-.9-.6-1.7-1.5-1.7-2.6l.1-.2s.2 0 .2.2zm.2-11.2c0 1 .8 1.8 1.6 2.4A33.2 33.2 0 0 0 52 65a72 72 0 0 0 30.2 1c1-.2 2-.6 2.8-1 .8-.5 1.7-1.2 1.9-2.1v-.1h.1c0 1.2-1 2-1.8 2.5-1 .6-1.9 1-2.9 1.3-2 .6-4 1-6 1.2a67 67 0 0 1-30.4-4.2c-1-.5-1.8-1-2.6-1.7-.8-.6-1.6-1.6-1.5-2.7 0-.1 0-.2.2-.2v.2z" fill="#FF5F5E"/><path d="M41.6 57.6c.1 1 1 1.6 1.8 2.1a33.2 33.2 0 0 0 8.7 2.3 72.9 72.9 0 0 0 30.1-3c1-.3 1.9-.8 2.7-1.3.8-.6 1.6-1.4 1.6-2.4h.2c0 1.1-.8 2-1.6 2.7l-2.6 1.6c-2 .8-4 1.5-5.9 2a67.4 67.4 0 0 1-30.6-.2 9 9 0 0 1-2.8-1.3c-.9-.6-1.8-1.4-1.8-2.5v-.2c.2 0 .2 0 .2.2z" fill="#FF5F5E"/><path d="M41.8 54c0 1 .8 1.8 1.6 2.3a35.2 35.2 0 0 0 8.6 2.8 72.6 72.6 0 0 0 30.3-1.5l2.7-1.2c.8-.6 1.6-1.3 1.7-2.3h.2c0 1.1-.9 2-1.7 2.6-.8.6-1.8 1-2.8 1.5-1.9.7-3.9 1.2-6 1.7a67.7 67.7 0 0 1-24.5 0c-2-.4-4-1-6-1.7-1-.4-1.9-.9-2.7-1.5-.9-.6-1.7-1.4-1.7-2.6l.1-.1h.2z" fill="#FF5F5E"/><path d="M41.8 49.4c0 1 .8 1.7 1.6 2.2a35.2 35.2 0 0 0 8.6 2.8A72.6 72.6 0 0 0 82.3 53l2.7-1.3c.8-.5 1.6-1.3 1.7-2.3h.2c0 1.1-.9 2-1.7 2.6-.8.6-1.8 1-2.8 1.5-1.9.8-3.9 1.3-6 1.7a67.7 67.7 0 0 1-24.5 0c-2-.4-4-1-6-1.7a9 9 0 0 1-2.7-1.5c-.9-.6-1.7-1.4-1.7-2.6l.1-.1.2.1z" fill="#FF5F5E"/><path d="M41.8 42.4c0 1 .8 1.7 1.6 2.2a35.2 35.2 0 0 0 8.6 2.8A72.6 72.6 0 0 0 82.3 46l2.7-1.3c.8-.6 1.6-1.3 1.7-2.3h.2c0 1.1-.9 2-1.7 2.6-.8.6-1.8 1-2.8 1.5-1.9.7-3.9 1.3-6 1.7a67.7 67.7 0 0 1-24.5 0c-2-.4-4-1-6-1.7-1-.4-1.9-.9-2.7-1.5-.9-.6-1.7-1.4-1.7-2.6l.1-.1.2.1z" fill="#FF5F5E"/><path d="M41.8 40c0 1 .8 1.8 1.6 2.3.9.5 1.8 1 2.8 1.3 1.8.7 3.8 1 5.8 1.4a72.6 72.6 0 0 0 30.3-1.4c.9-.3 1.8-.7 2.7-1.3.8-.5 1.6-1.2 1.7-2.2V40h.2c0 1.2-.9 2-1.7 2.7-.8.6-1.8 1-2.8 1.4-1.9.8-3.9 1.3-6 1.7a67.7 67.7 0 0 1-24.5 0c-2-.3-4-.9-6-1.6-1-.4-1.9-.9-2.7-1.5-.9-.6-1.7-1.5-1.7-2.6l.1-.2s.2 0 .2.2z" fill="#FF5F5E"/><path d="M41.8 35.4c0 1 .8 1.7 1.6 2.2a35.2 35.2 0 0 0 8.6 2.8 72.6 72.6 0 0 0 30.3-1.5l2.7-1.2c.8-.6 1.6-1.3 1.7-2.3h.2c0 1.1-.9 2-1.7 2.6-.8.6-1.8 1-2.8 1.4-1.9.8-3.9 1.3-6 1.7a67.7 67.7 0 0 1-24.5 0c-2-.3-4-.8-6-1.6-1-.4-1.9-.9-2.7-1.5-.9-.6-1.7-1.5-1.7-2.6l.1-.1h.2z" fill="#FF5F5E"/><path d="M41.8 33c0 1 .8 1.7 1.6 2.3.9.5 1.8 1 2.8 1.3a72.6 72.6 0 0 0 36.1 0c.9-.3 1.8-.7 2.7-1.3.8-.5 1.6-1.2 1.7-2.2V33h.2c0 1.2-.9 2-1.7 2.6-.8.6-1.8 1.1-2.8 1.5-1.9.8-3.9 1.3-6 1.7a67.7 67.7 0 0 1-24.5 0c-2-.4-4-.9-6-1.7-1-.4-1.9-.8-2.7-1.4-.9-.6-1.7-1.5-1.7-2.7h.3z" fill="#FF5F5E"/><path d="M41.8 28.4c0 1 .8 1.7 1.6 2.2.9.5 1.8 1 2.8 1.3a72.6 72.6 0 0 0 36.1 0c.9-.3 1.8-.7 2.7-1.3.8-.5 1.6-1.2 1.7-2.2v-.1h.2c0 1.2-.9 2-1.7 2.7-.8.6-1.8 1-2.8 1.4-1.9.8-3.9 1.3-6 1.7a67.7 67.7 0 0 1-24.5 0c-2-.3-4-.8-6-1.6-1-.4-1.9-.9-2.7-1.5-.9-.6-1.7-1.5-1.7-2.6l.1-.1h.2z" fill="#FF5F5E"/><path d="M64 7.2c18.1 0 28.8 2.7 30.6 4.3v.1a7.5 7.5 0 0 0 .1.5v.2l.2.2a7.5 7.5 0 0 0 .1.7 7.5 7.5 0 0 0 .2.7v.2l.1.3v.2l.2.2v.5l.1.2v.3l.2.2a7.5 7.5 0 0 0 .1.7 7.5 7.5 0 0 0 .2.7 7.5 7.5 0 0 0 .1.4v.2l-.2.2-.3.3-.2.2a3 3 0 0 0-.3.2l-.2.2-.4.2-.2.2-.3.3-.2.1a4 4 0 0 0-.4.3l-.2.2-.3.2-.2.2-.3.2-.3.2-.3.3-.2.2-.3.2-.3.2-.3.3-.2.2-.3.2-.3.2-.3.2-.2.2-.3.3-.2.1-.3.3-.3.2-.3.2c-.1.1-.6.5-1.7 1a3 3 0 0 0-1.9 2.8v57.3c0 .7.3 1.4.8 1.9l.1.2.2.1.2.3.3.3.3.3.3.3v.1l.3.3.3.3.3.3.3.3v.1l.3.3.3.3.3.3.3.3.3.4.3.3.3.3.3.3.3.3c0 .2.2.3.3.4l.3.3.3.3.3.4.3.3.3.3.3.3.3.3.3.4.1.1v.3l-.2.3v.3l-.2.3-.1.2v.3c-.2.1-.2.3-.3.4v.2l-.1.3-.1.3-.1.3-.2.3v.3l-.2.3v.3l-.2.3-.1.2-.1.3-.1.3-.1.3-.1.3-.2.3v.3l-.2.3v.3l-.2.3-.1.2-.1.3v.1c-1.5 1.5-10.7 4.3-26.5 4.3s-25-2.8-26.4-4.3l-.1-.4-.1-.3-.1-.2-.2-.3v-.3l-.2-.3v-.3l-.2-.3-.1-.3-.1-.3-.1-.3-.1-.3-.1-.2-.2-.3v-.3l-.2-.3v-.3l-.2-.3-.1-.3-.1-.3v-.2L35 98l-.1-.3-.1-.3-.1-.2-.2-.3a3.3 3.3 0 0 0-.2-.6l.2-.1.3-.3.3-.4c.2 0 .3-.2.3-.3h.1l.3-.3.3-.3.3-.3.3-.4.3-.3h.1l.3-.3.3-.3.3-.3v-.1c.2 0 .2-.2.3-.3l.3-.3h.1l.2-.3h.1l.3-.3.3-.3V91c.2 0 .2-.2.3-.3h.1l.2-.3h.1l.3-.3.3-.3v-.1l.3-.2v-.1l.3-.3h.1l.2-.3.1-.1.2-.2.1-.1a3 3 0 0 0 1-2.2v-58a3 3 0 0 0-1.9-2.7 6.5 6.5 0 0 1-2-1.3 2 2 0 0 1-.3-.2l-.3-.2-.2-.2-.3-.2-.2-.2-.3-.3-.3-.1-.3-.3-.2-.2-.3-.2-.2-.2-.3-.2-.3-.2-.3-.3-.2-.2-.3-.2-.3-.2-.3-.2-.2-.2-.3-.3-.2-.1a4 4 0 0 0-.4-.3l-.2-.1a3 3 0 0 0-.3-.3 1 1 0 0 1-.2-.2l-.4-.2-.2-.2-.3-.3-.2-.1v-.5l.1-.2c.1-.1 0-.2 0-.2l.1-.3v-.2l.2-.2V16l.1-.2v-.3l.2-.2v-.4l.1-.3v-.2l.2-.2v-.5l.1-.2v-.3l.2-.2v-.4l.1-.3v-.2l.2-.2v-.4C35.3 9.9 46 7.2 64 7.2m0-3c-18.2 0-33 2.8-33.4 6.4v.1l-.1.3-.1.2v.2l-.1.3v.2l-.1.2-.1.3v.2l-.1.2v.2l-.1.3-.1.2v.2l-.1.3v.2l-.1.2-.1.3v.2l-.1.2v.2l-.1.3-.1.2v.2l-.1.3v.2l-.1.2-.1.3v.2l-.1.2v.2l-.1.2-.1.3v.4c0 .6.3 1.2 1.1 1.8l.6.4.5.4.6.4.5.5.6.4.5.4.6.5.5.4.6.4.5.4.5.5.6.4.5.4.5.4.6.5c.6.5 1.5 1 2.6 1.5v58l-.3.2-.3.3-.3.3-.3.4c-.2 0-.3.2-.4.3l-.3.3-.3.3-.3.3-.3.4c-.2 0-.3.2-.4.3l-.3.3-.3.3-.3.3-.3.4c-.2 0-.3.2-.4.3l-.3.3-.3.3-.3.3-.3.4c-.2 0-.3.2-.4.3l-.3.3-.3.3-.3.3-.3.4c-.2 0-.3.2-.4.3l-.3.3c-.5.5-.8 1-.8 1.5l.1.6a2.8 2.8 0 0 0 .2.5l.2.4v.2l.2.4v.2l.2.4v.1l.2.5v.2l.2.3.1.3.1.3.1.3.1.3.2.2v.3l.2.3v.3l.2.3.1.3.1.3.1.3.1.3.1.3.2.2v.3l.2.3v.3l.2.3.1.3c1 3.4 13.7 6.2 29.2 6.2s28.2-2.8 29.2-6.2l.1-.3.1-.3.2-.3v-.3l.2-.3v-.2l.2-.3.1-.3.1-.3.1-.3.1-.3.1-.3.2-.3v-.3l.2-.3v-.2l.2-.3.1-.3.1-.3.1-.3.1-.3.1-.2.2-.5v-.1l.2-.4V98l.2-.4v-.2l.2-.4v-.2l.2-.3.1-.6c0-.5-.2-1-.7-1.4l-.3-.3-.3-.4-.3-.3-.3-.3-.3-.3-.3-.3-.3-.4-.3-.3-.3-.3-.3-.3-.3-.3-.3-.4-.3-.3-.3-.3-.3-.3-.3-.3-.3-.4a3 3 0 0 0-.3-.3 3 3 0 0 0-.3-.3 3 3 0 0 0-.3-.3l-.3-.3a3 3 0 0 0-.3-.4 3 3 0 0 0-.3-.3 3 3 0 0 0-.3-.3 3 3 0 0 0-.3-.3 3 3 0 0 0-.3-.3 3 3 0 0 0-.3-.4 3 3 0 0 0-.3-.3V28.2a9.3 9.3 0 0 0 3.1-2c.2 0 .4-.2.6-.4l.5-.4.5-.4.5-.4.6-.5.5-.4.6-.4.5-.5c.2 0 .4-.2.6-.4l.5-.4.6-.4.5-.5.6-.4.5-.4c.8-.6 1.2-1.1 1.2-1.7V18l-.1-.2v-.2l-.1-.3-.1-.2V17l-.1-.3v-.2l-.1-.2-.1-.2v-.3l-.1-.2v-.2l-.1-.3-.1-.2v-.2l-.1-.3v-.2l-.1-.2-.1-.2v-.3l-.1-.2v-.2l-.1-.3-.1-.2v-.2L98 12l-.1-.2-.1-.2v-.3l-.1-.2v-.2l-.1-.2C97 7 82.2 4.2 64 4.2z" fill="#424242" opacity=".2"/></svg>