<svg viewBox="0 0 128 128" xmlns="http://www.w3.org/2000/svg"><linearGradient id="a" x1="64" x2="64" y1="4.3" y2="124.4" gradientUnits="userSpaceOnUse"><stop stop-color="#40C4FF" offset="0"/><stop stop-color="#2DB5F9" offset=".4"/><stop stop-color="#0091EA" offset="1"/></linearGradient><path d="M116 124H12a8 8 0 0 1-8-8V12a8 8 0 0 1 8-8h104a8 8 0 0 1 8 8v104a8 8 0 0 1-8 8z" fill="url(#a)"/><path d="M116 7a5 5 0 0 1 5 5v104a5 5 0 0 1-5 5H12a5 5 0 0 1-5-5V12a5 5 0 0 1 5-5h104m0-3H12a8 8 0 0 0-8 8v104a8 8 0 0 0 8 8h104a8 8 0 0 0 8-8V12a8 8 0 0 0-8-8z" fill="#424242" opacity=".2"/><path d="M44 36c2 0 4 1.6 4 4v14c0 1.1.9 2 2 2h28a2 2 0 0 0 2-2V40a4 4 0 0 1 6.6-3l24 24a4 4 0 0 1 0 6l-24 24a4 4 0 0 1-6.6-3V74a2 2 0 0 0-2-2H50a2 2 0 0 0-2 2v14a4 4 0 0 1-6.6 3l-24-24a4 4 0 0 1 0-6l24-24c.8-.7 1.7-1 2.6-1m0-3a7 7 0 0 0-4.6 1.7v.1l-24 24a7 7 0 0 0 0 10.4l23.9 24h.1A7 7 0 0 0 51 88V75h26v13a7 7 0 0 0 11.6 5.3l.2-.2 23.9-24a7 7 0 0 0 0-10.3l-24-24A7 7 0 0 0 77 40v13H51V40a7 7 0 0 0-7-7z" fill="#424242" opacity=".2"/><path d="M110.6 61l-24-24a4 4 0 0 0-6.6 3v14a2 2 0 0 1-2 2H50a2 2 0 0 1-2-2V40a4 4 0 0 0-6.6-3l-24 24a4 4 0 0 0 0 6l24 24a4 4 0 0 0 6.6-3V74c0-1.1.9-2 2-2h28a2 2 0 0 1 2 2v14a4 4 0 0 0 6.6 3l24-24a4 4 0 0 0 0-6z" fill="#FAFAFA"/></svg>