<svg viewBox="0 0 128 128" xmlns="http://www.w3.org/2000/svg"><linearGradient id="a" x1="64" x2="64" y1="4.3" y2="124.4" gradientUnits="userSpaceOnUse"><stop stop-color="#40C4FF" offset="0"/><stop stop-color="#2DB5F9" offset=".4"/><stop stop-color="#0091EA" offset="1"/></linearGradient><path d="M116 124H12a8 8 0 0 1-8-8V12a8 8 0 0 1 8-8h104a8 8 0 0 1 8 8v104a8 8 0 0 1-8 8z" fill="url(#a)"/><path d="M116 7a5 5 0 0 1 5 5v104a5 5 0 0 1-5 5H12a5 5 0 0 1-5-5V12a5 5 0 0 1 5-5h104m0-3H12a8 8 0 0 0-8 8v104a8 8 0 0 0 8 8h104a8 8 0 0 0 8-8V12a8 8 0 0 0-8-8z" fill="#424242" opacity=".2"/><path d="M76 22a4 4 0 0 1 4 4v8a4 4 0 0 1-4 4H44c-6.5 0-12 7.3-12 16s5.5 16 12 16h34a2 2 0 0 0 2-2V54a4 4 0 0 1 6.6-3l24 24a4 4 0 0 1 0 6l-24 24a4 4 0 0 1-6.6-3V88a2 2 0 0 0-2-2H44c-15.5 0-28-14.3-28-32s12.5-32 28-32h32m0-3H44c-17 0-31 15.7-31 35s14 35 31 35h33v13a7 7 0 0 0 11.6 5.3l.2-.2 23.9-24a7 7 0 0 0 0-10.3l-24-24A7 7 0 0 0 77 54v13H44c-4.8 0-9-6-9-13s4.2-13 9-13h32a7 7 0 0 0 7-7v-8a7 7 0 0 0-7-7z" fill="#424242" opacity=".2"/><path d="M44 22h32a4 4 0 0 1 4 4v8a4 4 0 0 1-4 4H44c-6.5 0-12 7.3-12 16s5.5 16 12 16h34a2 2 0 0 0 2-2V54a4 4 0 0 1 6.6-3l24 24a4 4 0 0 1 0 6l-24 24a4 4 0 0 1-6.6-3V88a2 2 0 0 0-2-2H44c-15.5 0-28-14.3-28-32s12.5-32 28-32z" fill="#FAFAFA"/></svg>