<svg viewBox="0 0 128 128" xmlns="http://www.w3.org/2000/svg"><linearGradient id="a" x1="-93" x2="-93" y1="-73.4" y2="-17.3" gradientUnits="userSpaceOnUse"><stop stop-color="#eee" offset="0"/><stop stop-color="#EAEAEA" offset=".3"/><stop stop-color="#ddd" offset=".6"/><stop stop-color="#C8C8C8" offset=".9"/><stop stop-color="#BDBDBD" offset="1"/></linearGradient><path d="M-42.1-44.7L-48-72.1c-.5-2.2-2.1-3.9-4-3.8h-60.6c-.7 0-2.6 0-4.2 1.7-4.7 5.3-12.5 20.5-13.7 22-.1.2-6.3 2.4-9.1 4-1.2.7-1.8 2.2-2 3.7l-2.4 20.8c-.6 4 1.7 5.7 5.4 5.7h91.5c2.8 0 5.1-.7 5.1-5.7v-19.8l-.1-1.2z" fill="url(#a)"/><path d="M-52-73c.4 0 .9.6 1 1.4a7598 7598 0 0 1 6 28.1v19.8c0 2.8-.5 2.7-2.1 2.7h-91.5c-1.3 0-2-.2-2.3-.5s-.3-1-.1-1.8l2.5-20.9c0-.8.3-1.3.4-1.3 1.9-1.2 5.9-2.7 7.5-3.4 1.5-.5 1.9-.7 2.4-1.3l3-5c2.9-5.1 7.6-13.6 10.7-17 .5-.6 1.2-.8 1.8-.8H-52m0-3h-60.6c-.7 0-2.6 0-4.2 1.8-4.7 5.3-12.5 20.5-13.7 22-.1.2-6.3 2.4-9.1 4-1.1.7-1.8 2.2-2 3.7l-2.4 20.7c-.6 4.1 1.7 5.8 5.4 5.8h91.5c2.8 0 5.1-.7 5.1-5.7v-19.8l-.1-1.2-5.9-27.5c-.5-2.2-2.1-3.8-4-3.8z" fill="#424242" opacity=".2"/><linearGradient id="b" x1="46.4" x2="46.4" y1="-117.5" y2="-61.4" gradientUnits="userSpaceOnUse"><stop stop-color="#616161" offset="0"/><stop stop-color="#5D5D5D" offset=".2"/><stop stop-color="#505050" offset=".5"/><stop stop-color="#3B3B3B" offset=".8"/><stop stop-color="#212121" offset="1"/></linearGradient><path d="M97.3-89l-5.8-27.3c-.5-2.3-2.1-3.8-4-3.8H26.9c-.7 0-2.6 0-4.2 1.7C18-113 10.2-97.8 9-96.3c-.1.2-6.3 2.4-9.1 4-1.2.7-1.8 2.2-2 3.7l-2.4 20.8C-5.1-63.7-2.8-62 .9-62h91.5c2.8 0 5-.8 5-5.8v-21z" fill="url(#b)"/><path d="M87.5-117c.4 0 .9.5 1 1.3a10841.5 10841.5 0 0 1 6 28v19.8c0 2.8-.5 2.8-2.1 2.8H.9c-1.3 0-2-.3-2.3-.5s-.3-1-.2-1.8v-.1L1-88.4c.1-.8.4-1.3.5-1.3C3.3-91 7.2-92.4 8.9-93c1.5-.6 1.9-.8 2.4-1.4l3-5c2.8-5 7.6-13.5 10.6-17 .6-.6 1.3-.7 2-.7h60.6m0-3H26.8a5 5 0 0 0-4 1.8C18-113.1 10.1-98 9-96.3c-.1 0-6.3 2.3-9.1 4-1.2.6-1.8 2.1-2 3.6l-2.4 20.8c-.6 4.1 1.7 5.8 5.4 5.8h91.5c2.8 0 5-.8 5-5.8v-21l-6-27.4c-.4-2.3-2-3.8-3.9-3.8z" fill="#eee" opacity=".2"/><linearGradient id="c" x1="64.1" x2="64.1" y1="33.8" y2="93.8" gradientUnits="userSpaceOnUse"><stop stop-color="#BDBDBD" offset="0"/><stop stop-color="#9E9E9E" offset="1"/></linearGradient><path d="M120.5 94H7.7c-2 0-3.6-1.6-3.6-3.6v-53c0-1.9 1.6-3.5 3.6-3.5h112.8c2 0 3.5 1.6 3.5 3.6v52.9c0 2-1.6 3.5-3.5 3.5z" fill="url(#c)"/><path d="M120.5 37c.3 0 .5.2.5.5v52.9c0 .3-.2.5-.5.5H7.7a.5.5 0 0 1-.6-.5v-53c0-.2.3-.5.6-.5h112.8m0-3H7.7c-2 0-3.6 1.6-3.6 3.6v52.9c0 2 1.6 3.5 3.6 3.5h112.8c2 0 3.5-1.5 3.5-3.5v-53c0-1.9-1.6-3.5-3.5-3.5z" fill="#424242" opacity=".2"/><path d="M18.4 50h-4.7c-1 0-1.7-.7-1.7-1.7v-4.7c0-.9.7-1.6 1.7-1.6h4.7c.9 0 1.6.7 1.6 1.6v4.7c0 1-.7 1.7-1.6 1.7zm11.4 0H25c-1 0-1.7-.7-1.7-1.7v-4.7c0-.9.8-1.6 1.7-1.6h4.7c.9 0 1.6.7 1.6 1.6v4.7c0 1-.7 1.7-1.6 1.7zm11.4 0h-4.7c-.9 0-1.6-.7-1.6-1.7v-4.7c0-.9.7-1.6 1.6-1.6h4.7c1 0 1.7.7 1.7 1.6v4.7c0 1-.8 1.7-1.7 1.7zm11.5 0H48c-1 0-1.7-.7-1.7-1.7v-4.7c0-.9.8-1.6 1.7-1.6h4.7c.9 0 1.6.7 1.6 1.6v4.7c0 1-.7 1.7-1.6 1.7zm11.4 0h-4.7c-.9 0-1.6-.7-1.6-1.7v-4.7c0-.9.7-1.6 1.6-1.6h4.7c1 0 1.7.7 1.7 1.6v4.7c0 1-.8 1.7-1.7 1.7zm11.4 0H71c-1 0-1.7-.7-1.7-1.7v-4.7c0-.9.7-1.6 1.7-1.6h4.6c1 0 1.7.7 1.7 1.6v4.7c0 1-.7 1.7-1.6 1.7zM87 50h-4.7c-1 0-1.6-.7-1.6-1.7v-4.7c0-.9.7-1.6 1.6-1.6H87c.9 0 1.6.7 1.6 1.6v4.7c0 1-.7 1.7-1.6 1.7zm11.4 0h-4.7c-.9 0-1.6-.7-1.6-1.7v-4.7c0-.9.7-1.6 1.6-1.6h4.7c1 0 1.7.7 1.7 1.6v4.7c0 1-.8 1.7-1.7 1.7zm16 0h-8.7c-1 0-1.6-.7-1.6-1.7v-4.7c0-.9.7-1.6 1.6-1.6h8.7c1 0 1.6.7 1.6 1.6v4.7c0 1-.7 1.7-1.6 1.7zm-4.7 12h4.7c.9 0 1.6-.8 1.6-1.7v-4.7c0-.9-.7-1.6-1.6-1.6h-4.7c-1 0-1.6.7-1.6 1.6v4.7c0 1 .7 1.7 1.6 1.7zm-11.4 0h4.7c.9 0 1.6-.8 1.6-1.7v-4.7c0-.9-.7-1.6-1.6-1.6h-4.7c-1 0-1.7.7-1.7 1.6v4.7c0 1 .8 1.7 1.7 1.7zm-11.5 0h4.7c1 0 1.7-.8 1.7-1.7v-4.7c0-.9-.8-1.6-1.7-1.6h-4.7c-.9 0-1.6.7-1.6 1.6v4.7c0 1 .7 1.7 1.6 1.7zm-11.4 0H80c.9 0 1.6-.8 1.6-1.7v-4.7c0-.9-.7-1.6-1.6-1.6h-4.7c-1 0-1.7.7-1.7 1.6v4.7c0 1 .8 1.7 1.7 1.7zM64 62h4.6c1 0 1.7-.8 1.7-1.7v-4.7c0-.9-.8-1.6-1.7-1.6H64c-.9 0-1.6.7-1.6 1.6v4.7c0 1 .7 1.7 1.6 1.7zm-11.5 0h4.7c.9 0 1.6-.8 1.6-1.7v-4.7c0-.9-.7-1.6-1.6-1.6h-4.7c-1 0-1.6.7-1.6 1.6v4.7c0 1 .7 1.7 1.6 1.7zM41 62h4.8c.9 0 1.6-.8 1.6-1.7v-4.7c0-.9-.7-1.6-1.6-1.6H41c-1 0-1.7.7-1.7 1.6v4.7c0 1 .8 1.7 1.7 1.7zm-11.4 0h4.7c1 0 1.7-.8 1.7-1.7v-4.7c0-.9-.8-1.6-1.7-1.6h-4.7c-.9 0-1.6.7-1.6 1.6v4.7c0 1 .7 1.7 1.6 1.7zm-15.9 0h8.7c.9 0 1.6-.8 1.6-1.7v-4.7c0-.9-.7-1.6-1.6-1.6h-8.7c-1 0-1.7.7-1.7 1.6v4.7c0 1 .7 1.7 1.7 1.7zm68 12h4.8c.9 0 1.6-.8 1.6-1.7v-4.7c0-.9-.7-1.6-1.6-1.6h-4.8c-.9 0-1.6.7-1.6 1.6v4.7c0 1 .7 1.7 1.6 1.7zm-12 0h4.7c1 0 1.7-.8 1.7-1.7v-4.7c0-.9-.8-1.6-1.7-1.6h-4.7c-.9 0-1.6.7-1.6 1.6v4.7c0 1 .7 1.7 1.6 1.7zm-12 0h4.7c1 0 1.7-.8 1.7-1.7v-4.7c0-.9-.8-1.6-1.7-1.6h-4.7c-1 0-1.6.7-1.6 1.6v4.7c0 1 .7 1.7 1.6 1.7zm-12 0h4.7c1 0 1.7-.8 1.7-1.7v-4.7c0-.9-.8-1.6-1.7-1.6h-4.7c-1 0-1.7.7-1.7 1.6v4.7c0 1 .8 1.7 1.7 1.7zm-12 0h4.7c.9 0 1.6-.8 1.6-1.7v-4.7c0-.9-.7-1.6-1.6-1.6h-4.7c-1 0-1.7.7-1.7 1.6v4.7c0 1 .8 1.7 1.7 1.7zm-20 0h12.6c1 0 1.6-.8 1.6-1.7v-4.7c0-.9-.7-1.6-1.6-1.6H13.6c-.9 0-1.6.7-1.6 1.6v4.7c0 1 .7 1.7 1.6 1.7zm80 .1h20.7c.9 0 1.6-.7 1.6-1.6v-5c0-1-.7-1.7-1.6-1.7H93.7c-.9 0-1.6.7-1.6 1.7v5c0 .9.7 1.6 1.6 1.6zm16 11.9h4.7c1 0 1.6-.8 1.6-1.7v-4.7c0-.9-.7-1.6-1.6-1.6h-4.7c-1 0-1.6.7-1.6 1.6v4.7c0 1 .7 1.7 1.6 1.7zm-12.4 0h4.7c.9 0 1.6-.8 1.6-1.7v-4.7c0-.9-.7-1.6-1.6-1.6h-4.7c-1 0-1.7.7-1.7 1.6v4.7c0 1 .8 1.7 1.7 1.7zm-58.8 0h51c1 0 1.7-.8 1.7-1.7v-4.7c0-.9-.8-1.6-1.7-1.6h-51c-.9 0-1.6.7-1.6 1.6v4.7c0 1 .7 1.7 1.6 1.7zM26 86h4.8c.9 0 1.6-.8 1.6-1.7v-4.7c0-.9-.7-1.6-1.6-1.6H26c-1 0-1.7.7-1.7 1.6v4.7c0 1 .8 1.7 1.7 1.7zm-12.3 0h4.7c.9 0 1.6-.8 1.6-1.7v-4.7c0-.9-.7-1.6-1.6-1.6h-4.7c-1 0-1.7.7-1.7 1.6v4.7c0 1 .7 1.7 1.7 1.7z" fill="#F5F5F5"/></svg>