<svg viewBox="0 0 128 128" xmlns="http://www.w3.org/2000/svg"><linearGradient id="a" x1="64" x2="64" y1="4.3" y2="123.9" gradientUnits="userSpaceOnUse"><stop stop-color="#FFAB40" offset="0"/><stop stop-color="#FF6D00" offset="1"/></linearGradient><path d="M116 124H12a8 8 0 0 1-8-8V12a8 8 0 0 1 8-8h104a8 8 0 0 1 8 8v104a8 8 0 0 1-8 8z" fill="url(#a)"/><path d="M116 7a5 5 0 0 1 5 5v104a5 5 0 0 1-5 5H12a5 5 0 0 1-5-5V12a5 5 0 0 1 5-5h104m0-3H12a8 8 0 0 0-8 8v104a8 8 0 0 0 8 8h104a8 8 0 0 0 8-8V12a8 8 0 0 0-8-8z" fill="#424242" opacity=".2"/><path d="M63.8 24c1 0 1.8.5 2.3 1.3L95.3 76c1 1.8-.3 4-2.3 4H34.7c-2 0-3.4-2.2-2.3-4l29.1-50.7c.5-.8 1.4-1.3 2.3-1.3m0-3c-2 0-3.9 1-4.9 2.9L29.7 74.5c-1 1.8-1 4 0 5.7s3 2.8 5 2.8H93c2 0 3.9-1 4.9-2.8 1-1.8 1-3.9 0-5.7L68.7 23.8a5.6 5.6 0 0 0-4.9-2.8zm30.4 67c1 0 1.8.8 1.8 1.9V98c0 1-.8 1.9-1.9 1.9H34c-1 0-1.9-.8-1.9-1.9v-8.3c0-1 .8-1.8 1.9-1.8h60.3m0-3H33.9a4.9 4.9 0 0 0-4.9 4.8V98a5 5 0 0 0 4.9 4.9h60.3c2.6 0 4.8-2.2 4.8-4.9v-8.3c0-2.6-2.2-4.8-4.8-4.8z" fill="#424242" opacity=".2"/><path d="M63.8 80H93c2 0 3.3-2.2 2.3-4L66.1 25.3a2.7 2.7 0 0 0-4.6 0L32.4 76c-1 1.8.2 4 2.3 4h29.1zM32 98.2v-8.3c0-1 .8-1.9 1.9-1.9h60.3c1 0 1.8.8 1.8 1.9v8.3c0 1-.8 1.8-1.9 1.8H34c-1 0-1.9-.8-1.9-1.9z" fill="#FAFAFA"/></svg>