<svg viewBox="0 0 128 128" xmlns="http://www.w3.org/2000/svg"><linearGradient id="a" x1="64" x2="64" y1="4.3" y2="123.9" gradientUnits="userSpaceOnUse"><stop stop-color="#FFAB40" offset="0"/><stop stop-color="#FF6D00" offset="1"/></linearGradient><path d="M116 124H12a8 8 0 0 1-8-8V12a8 8 0 0 1 8-8h104a8 8 0 0 1 8 8v104a8 8 0 0 1-8 8z" fill="url(#a)"/><path d="M116 7a5 5 0 0 1 5 5v104a5 5 0 0 1-5 5H12a5 5 0 0 1-5-5V12a5 5 0 0 1 5-5h104m0-3H12a8 8 0 0 0-8 8v104a8 8 0 0 0 8 8h104a8 8 0 0 0 8-8V12a8 8 0 0 0-8-8z" fill="#424242" opacity=".2"/><g fill="#424242" opacity=".2"><path d="M64 63c.8 0 1.6.3 2 1l25.7 39c.9 1.3-.2 3-2 3H38.3c-1.8 0-2.9-1.7-2-3L62 64c.4-.7 1.2-1 2-1m0-3c-1.9 0-3.6.9-4.5 2.4l-25.7 38.9a5 5 0 0 0-.2 5c1 1.7 2.7 2.7 4.7 2.7h51.4c2 0 3.8-1 4.7-2.7.9-1.6.8-3.5-.2-5l-25.7-39A5.4 5.4 0 0 0 64 60z"/><path d="M64 22c.8 0 1.6.3 2 1l25.7 40c.9 1.4-.2 3.1-2 3.1H38.3c-1.8 0-2.9-1.7-2-3.1L62 23c.4-.7 1.2-1.1 2-1.1m0-3c-1.9 0-3.6 1-4.5 2.4l-25.7 40a5 5 0 0 0-.2 5c1 1.7 2.7 2.7 4.7 2.7h51.4c2 0 3.8-1 4.7-2.7.9-1.6.8-3.5-.2-5L68.5 21.4A5.3 5.3 0 0 0 64 19z"/></g><g fill="#FAFAFA"><path d="M64 106H38.3c-1.7 0-2.9-1.7-2-3L62 64c.9-1.3 3.1-1.3 4 0l25.7 39c.9 1.3-.3 3-2 3H64z"/><path d="M64 66H38.3c-1.7 0-2.9-1.7-2-3.1L62 23a2.4 2.4 0 0 1 4 0l25.7 39.8c.9 1.4-.3 3.1-2 3.1H64z"/></g></svg>