<svg viewBox="0 0 128 128" xmlns="http://www.w3.org/2000/svg"><linearGradient id="a" x1="64" x2="64" y1="4.3" y2="123.9" gradientUnits="userSpaceOnUse"><stop stop-color="#FFAB40" offset="0"/><stop stop-color="#FF6D00" offset="1"/></linearGradient><path d="M116 124H12a8 8 0 0 1-8-8V12a8 8 0 0 1 8-8h104a8 8 0 0 1 8 8v104a8 8 0 0 1-8 8z" fill="url(#a)"/><path d="M116 7a5 5 0 0 1 5 5v104a5 5 0 0 1-5 5H12a5 5 0 0 1-5-5V12a5 5 0 0 1 5-5h104m0-3H12a8 8 0 0 0-8 8v104a8 8 0 0 0 8 8h104a8 8 0 0 0 8-8V12a8 8 0 0 0-8-8z" fill="#424242" opacity=".2"/><g fill="#424242" opacity=".2"><path d="M110.1 36c1 0 1.9.8 1.9 1.9V90c0 1-.8 1.9-1.9 1.9H100c-1 0-1.9-.8-1.9-1.9V38c0-1 .8-1.9 1.9-1.9h10m0-3h-10a4.9 4.9 0 0 0-4.9 4.9v52a5 5 0 0 0 4.9 4.9h10a5 5 0 0 0 4.9-4.9V38a5 5 0 0 0-4.9-4.9zM18 36c.4 0 .7.1 1 .3L58 62c1.4.9 1.4 3.1 0 4L19 91.7c-.3.2-.6.3-1 .3-1 0-2-1-2-2.3V38.3c0-1.3 1-2.3 2-2.3m0-3c-2.7 0-5 2.4-5 5.3v51.4c0 2.9 2.3 5.3 5 5.3a5 5 0 0 0 2.7-.8l39-25.7C61 67.5 62 66 62 64s-.9-3.6-2.4-4.5L20.7 33.8A5 5 0 0 0 18 33z"/><path d="M58 36c.4 0 .8.1 1.1.3L99 62c1.4.9 1.4 3.1 0 4L59 91.7a2 2 0 0 1-1 .3c-1 0-2-1-2-2.3V38.3c0-1.3 1-2.3 2-2.3m0-3c-2.7 0-5 2.4-5 5.3v51.4c0 2.9 2.3 5.3 5 5.3a5 5 0 0 0 2.7-.8l39.9-25.7c1.5-1 2.4-2.6 2.4-4.5s-.9-3.6-2.4-4.5L60.7 33.8a5 5 0 0 0-2.6-.8z"/></g><g fill="#FAFAFA"><path d="M110.1 92H100c-1 0-1.9-.8-1.9-1.9V38c0-1 .8-1.9 1.9-1.9h10c1 0 1.9.8 1.9 1.9v52c0 1-.8 1.9-1.9 1.9zM16 64V38.3c0-1.7 1.7-2.9 3-2L58 62c1.4.9 1.4 3.1 0 4L19 91.7c-1.3.9-3-.3-3-2V64z"/><path d="M56 64V38.3c0-1.7 1.7-2.9 3.1-2L99 62c1.4.9 1.4 3.1 0 4L59.1 91.7c-1.4.9-3.1-.3-3.1-2V64z"/></g></svg>