<svg viewBox="0 0 128 128" xmlns="http://www.w3.org/2000/svg"><linearGradient id="a" x1="64" x2="64" y1="4.3" y2="123.9" gradientUnits="userSpaceOnUse"><stop stop-color="#FFAB40" offset="0"/><stop stop-color="#FF6D00" offset="1"/></linearGradient><path d="M116 124H12a8 8 0 0 1-8-8V12a8 8 0 0 1 8-8h104a8 8 0 0 1 8 8v104a8 8 0 0 1-8 8z" fill="url(#a)"/><path d="M116 7a5 5 0 0 1 5 5v104a5 5 0 0 1-5 5H12a5 5 0 0 1-5-5V12a5 5 0 0 1 5-5h104m0-3H12a8 8 0 0 0-8 8v104a8 8 0 0 0 8 8h104a8 8 0 0 0 8-8V12a8 8 0 0 0-8-8z" fill="#424242" opacity=".2"/><path d="M54 36a2 2 0 0 1 2 2v52a2 2 0 0 1-2 2H42a2 2 0 0 1-2-2V38c0-1.1.9-2 2-2h12m0-3H42a5 5 0 0 0-5 5v52a5 5 0 0 0 5 5h12a5 5 0 0 0 5-5V38a5 5 0 0 0-5-5zm32 3a2 2 0 0 1 2 2v52a2 2 0 0 1-2 2H74a2 2 0 0 1-2-2V38c0-1.1.9-2 2-2h12m0-3H74a5 5 0 0 0-5 5v52a5 5 0 0 0 5 5h12a5 5 0 0 0 5-5V38a5 5 0 0 0-5-5z" fill="#424242" opacity=".2"/><path d="M54 92H42a2 2 0 0 1-2-2V38c0-1.1.9-2 2-2h12a2 2 0 0 1 2 2v52a2 2 0 0 1-2 2zm32 0H74a2 2 0 0 1-2-2V38c0-1.1.9-2 2-2h12a2 2 0 0 1 2 2v52a2 2 0 0 1-2 2z" fill="#FAFAFA"/></svg>