<svg viewBox="0 0 128 128" xmlns="http://www.w3.org/2000/svg"><linearGradient id="a" x1="64" x2="64" y1="4.3" y2="123.9" gradientUnits="userSpaceOnUse"><stop stop-color="#FFAB40" offset="0"/><stop stop-color="#FF6D00" offset="1"/></linearGradient><path d="M116 124H12a8 8 0 0 1-8-8V12a8 8 0 0 1 8-8h104a8 8 0 0 1 8 8v104a8 8 0 0 1-8 8z" fill="url(#a)"/><path d="M116 7a5 5 0 0 1 5 5v104a5 5 0 0 1-5 5H12a5 5 0 0 1-5-5V12a5 5 0 0 1 5-5h104m0-3H12a8 8 0 0 0-8 8v104a8 8 0 0 0 8 8h104a8 8 0 0 0 8-8V12a8 8 0 0 0-8-8z" fill="#424242" opacity=".2"/><path d="M89.2 36c1.6 0 2.8 1.3 2.8 2.8v50.4c0 1.5-1.3 2.8-2.8 2.8H38.8a2.8 2.8 0 0 1-2.8-2.8V38.8c0-1.6 1.3-2.8 2.8-2.8h50.4m0-3H38.8a5.8 5.8 0 0 0-5.8 5.8v50.4c0 3.2 2.6 5.8 5.8 5.8h50.4c3.2 0 5.8-2.6 5.8-5.8V38.8c0-3.2-2.6-5.8-5.8-5.8z" fill="#424242" opacity=".2"/><path d="M89.2 92H38.8a2.8 2.8 0 0 1-2.8-2.8V38.8c0-1.5 1.3-2.8 2.8-2.8h50.4c1.6 0 2.8 1.3 2.8 2.8v50.4c0 1.6-1.3 2.8-2.8 2.8z" fill="#FAFAFA"/></svg>