<svg viewBox="0 0 128 128" xmlns="http://www.w3.org/2000/svg"><linearGradient id="a" x1="64" x2="64" y1="45.8" y2="82.4" gradientUnits="userSpaceOnUse"><stop stop-color="#616161" offset="0"/><stop stop-color="#4E4E4E" offset=".4"/><stop stop-color="#212121" offset="1"/></linearGradient><path d="M77.3 80H50.7a2.7 2.7 0 0 1-2.7-2.7V50.7c0-1.5 1.2-2.7 2.7-2.7h26.6c1.5 0 2.7 1.2 2.7 2.7v26.6c0 1.5-1.2 2.7-2.7 2.7z" fill="url(#a)"/><path d="M77 51v26H51V51h26m.3-3H50.7a2.7 2.7 0 0 0-2.7 2.7v26.6c0 1.5 1.2 2.7 2.7 2.7h26.6c1.5 0 2.7-1.2 2.7-2.7V50.7c0-1.5-1.2-2.7-2.7-2.7z" fill="#eee" opacity=".2"/></svg>