<svg viewBox="0 0 128 128" xmlns="http://www.w3.org/2000/svg"><linearGradient id="a" x1="64" x2="64" y1="19.9" y2="108.3" gradientUnits="userSpaceOnUse"><stop stop-color="#fff" offset="0"/><stop stop-color="#ECECEC" offset=".7"/><stop stop-color="#E0E0E0" offset="1"/></linearGradient><path d="M102 108H26a6 6 0 0 1-6-6V26a6 6 0 0 1 6-6h76a6 6 0 0 1 6 6v76a6 6 0 0 1-6 6z" fill="url(#a)"/><path d="M102 23a3 3 0 0 1 3 3v76a3 3 0 0 1-3 3H26a3 3 0 0 1-3-3V26a3 3 0 0 1 3-3h76m0-3H26a6 6 0 0 0-6 6v76a6 6 0 0 0 6 6h76a6 6 0 0 0 6-6V26a6 6 0 0 0-6-6z" fill="#424242" opacity=".2"/></svg>