<svg viewBox="0 0 128 128" xmlns="http://www.w3.org/2000/svg"><path d="M64.15 4.02h-.27c-1.17 0-2.12.95-2.12 2.12v4.45c0 1.17.95 2.12 2.12 2.12h.27c1.17 0 2.12-.95 2.12-2.12V6.15c0-1.18-.95-2.13-2.12-2.13z" fill="#424242"/><path fill="#E0E0E0" d="M66.966 98.732l-5.94-.001.008-57.91h5.94z"/><path d="M62.03 41.82h3.94l-.01 56.16h-3.94l.01-56.16m-1-1l-.01 58.16h5.94l.01-58.16h-5.94z" fill="#424242" opacity=".2"/><path d="M68.2 112.17V94.49h-8.91v17.68a2.97 2.97 0 0 1-5.94 0v-1.49c0-2.46-1.99-4.46-4.46-4.46-2.46 0-4.46 1.99-4.46 4.46v1.49c0 6.56 5.32 11.88 11.88 11.89 6.57-.01 11.89-5.33 11.89-11.89z" fill="#424242"/><path d="M61.29 96.48h4.91v15.68c0 5.45-4.43 9.88-9.89 9.88-2.64 0-5.12-1.03-6.99-2.9s-2.89-4.35-2.89-6.99v-1.49c0-1.35 1.1-2.46 2.46-2.46 1.35 0 2.46 1.1 2.46 2.46v1.49c0 1.33.52 2.58 1.46 3.52s2.19 1.46 3.51 1.46c2.74 0 4.97-2.23 4.97-4.97V96.48m-2-2v17.68a2.97 2.97 0 0 1-5.94 0v-1.49c0-2.46-1.99-4.46-4.46-4.46-2.46 0-4.46 1.99-4.46 4.46v1.49c0 6.56 5.32 11.88 11.88 11.89 6.56 0 11.88-5.32 11.88-11.88V94.49l-8.9-.01z" fill="#424242" opacity=".2"/><linearGradient id="a" x1="39.549" x2="80.552" y1="14.167" y2="85.185" gradientUnits="userSpaceOnUse"><stop stop-color="#BA68C8" offset="0"/><stop stop-color="#9C27B0" offset="1"/></linearGradient><path d="M19.69 55.57c6.2 0 11.51 4.02 13.76 9.73a1.197 1.197 0 0 0 2.25 0c2.25-5.72 7.55-9.73 13.76-9.73 6.2 0 11.51 4.02 13.76 9.73a1.197 1.197 0 0 0 2.25 0c2.25-5.72 7.55-9.73 13.76-9.73 6.2 0 11.51 4.02 13.76 9.73a1.197 1.197 0 0 0 2.25 0c2.25-5.72 7.55-9.73 13.76-9.73 4.51 0 8.55 2.13 11.28 5.49.83 1.02 2.41.25 2.16-1.08-5.37-29.07-29.41-51.46-58.27-51.46-29.01 0-53.16 22.66-58.33 51.98-.24 1.35 1.38 2.11 2.18 1.04 2.73-3.64 6.94-5.97 11.67-5.97z" fill="url(#a)"/><path d="M95.14 70.85h-1.15c-.56 0-1.01-.46-1.01-1.01v-4.37c0-.56.46-1.01 1.01-1.01h1.15c.56 0 1.01.46 1.01 1.01v4.37c0 .56-.45 1.01-1.01 1.01zM64.79 71.77h-1.15c-.56 0-1.01-.46-1.01-1.01v-4.37c0-.56.46-1.01 1.01-1.01h1.15c.56 0 1.01.46 1.01 1.01v4.37c.01.55-.45 1.01-1.01 1.01zM35.18 70.85h-1.15c-.56 0-1.01-.46-1.01-1.01v-4.37c0-.56.46-1.01 1.01-1.01h1.15c.56 0 1.01.46 1.01 1.01v4.37c0 .56-.46 1.01-1.01 1.01zM123.13 65.91l-.99.3c-.56.17-1.16-.16-1.33-.73l-1.19-4.04c-.17-.57.15-1.19.72-1.36l.99-.3c.56-.17 1.16.16 1.33.73l1.19 4.04c.17.58-.15 1.19-.72 1.36zM5.19 65.91l.99.3c.56.17 1.16-.16 1.33-.73l1.19-4.04c.17-.57-.15-1.19-.72-1.36l-.99-.3c-.56-.17-1.16.16-1.33.73l-1.19 4.04c-.16.58.16 1.19.72 1.36z" fill="#424242"/><linearGradient id="b" x1="22.856" x2="-11.084" y1="41.734" y2="91.477" gradientUnits="userSpaceOnUse"><stop stop-color="#BA68C8" offset="0"/><stop stop-color="#9C27B0" offset="1"/></linearGradient><path fill="url(#b)" d="M5.88 66.61v-.01z"/><path d="M64 65.82c-.62 0-1-.48-1-1.08V9.66c0-.6.38-1.08 1-1.08s1 .48 1 1.08v55.08c0 .6-.38 1.08-1 1.08z" opacity=".2"/><path d="M34.53 67c-.62 0-1.13-1.3-1.14-1.88-.02-.92-.33-23.18 8.38-38.04C50.58 12.06 63.26 8.69 63.8 8.56c.6-.14 1.22.1 1.38.67.15.57-.21 1.11-.82 1.25-.12.03-12.29 3.09-20.59 17.24-8.42 14.36-8.1 37.14-8.1 37.36.01.59-.49 1.91-1.12 1.91-.01.01-.01.01-.02.01z" opacity=".2"/><path d="M94.21 67c-.63 0-1.14-1.36-1.14-1.95 0-.22-.15-22.54-8.59-36.9-8.35-14.21-20.53-17.46-20.65-17.49-.61-.14-.98-.84-.83-1.41.15-.58.78-.98 1.38-.83.54.13 13.26 3.27 22.09 18.28 8.73 14.85 8.87 37.45 8.88 38.37 0 .58-.51 1.93-1.14 1.93z" opacity=".2"/><path d="M64.17 11.52c25.15 0 47.17 18.13 54.11 43.8a17.245 17.245 0 0 0-9.32-2.75c-6.07 0-11.6 3.18-14.88 8.35-3.28-5.16-8.81-8.35-14.88-8.35s-11.6 3.18-14.88 8.35c-3.28-5.16-8.81-8.35-14.88-8.35s-11.6 3.18-14.88 8.35c-3.28-5.16-8.81-8.35-14.88-8.35-3.49 0-6.83 1.05-9.68 2.97 3.1-11.53 9.4-21.96 18.06-29.8 10.15-9.17 22.96-14.22 36.11-14.22m0-3c-29.01 0-53.16 22.66-58.33 51.98-.16.91.52 1.55 1.22 1.55.35 0 .7-.15.96-.51 2.73-3.64 6.94-5.97 11.67-5.97 6.2 0 11.51 4.02 13.76 9.73.21.53.67.79 1.12.79s.92-.26 1.12-.79c2.25-5.72 7.55-9.73 13.76-9.73 6.2 0 11.51 4.02 13.76 9.73.21.53.67.79 1.12.79.46 0 .92-.26 1.12-.79 2.25-5.72 7.55-9.73 13.76-9.73 6.2 0 11.51 4.02 13.76 9.73.21.53.67.79 1.12.79.46 0 .92-.26 1.12-.79 2.25-5.72 7.55-9.73 13.76-9.73 4.51 0 8.55 2.13 11.28 5.49.27.33.61.47.94.47.71 0 1.38-.65 1.22-1.55-5.34-29.07-29.38-51.46-58.24-51.46z" fill="#424242" opacity=".2"/><path d="M24.99 22.32c-.04 4.48-3.19 8.08-7.05 8.05s-6.96-3.69-6.92-8.16 6.76-16.84 6.76-16.84 7.24 12.48 7.21 16.95z" fill="#81D4FA"/><path d="M17.83 9.59c2.47 4.62 5.18 10.43 5.16 12.71-.03 3.35-2.27 6.07-5.04 6.07-1.28-.01-2.49-.62-3.41-1.71-1-1.18-1.54-2.75-1.53-4.44.02-2.29 2.53-8.04 4.82-12.63m-.06-4.22s-6.72 12.17-6.76 16.65C10.98 26.5 14.07 30 17.93 30h.05c3.84 0 6.97-3.41 7-7.86.04-4.48-7.21-16.77-7.21-16.77z" fill="#424242" opacity=".2"/><path d="M55.99 38.32c-.04 4.48-3.19 8.08-7.05 8.05s-6.96-3.69-6.92-8.16c.04-4.48 6.76-16.84 6.76-16.84s7.24 12.48 7.21 16.95z" fill="#81D4FA"/><path d="M48.83 25.59c2.47 4.62 5.18 10.43 5.16 12.71-.03 3.35-2.27 6.07-5.04 6.07-1.28-.01-2.49-.62-3.41-1.71-1-1.18-1.54-2.75-1.53-4.44.02-2.29 2.53-8.04 4.82-12.63m-.06-4.22s-6.72 12.17-6.76 16.65C41.98 42.5 45.07 46 48.93 46h.05c3.84 0 6.97-3.41 7-7.86.04-4.48-7.21-16.77-7.21-16.77z" fill="#424242" opacity=".2"/><path d="M86.99 22.32c-.04 4.48-3.19 8.08-7.05 8.05s-6.96-3.69-6.92-8.16c.04-4.48 6.76-16.84 6.76-16.84s7.24 12.48 7.21 16.95z" fill="#81D4FA"/><path d="M79.83 9.59c2.47 4.62 5.18 10.43 5.16 12.71-.03 3.35-2.27 6.07-5.04 6.07-1.28-.01-2.49-.62-3.41-1.71-1-1.18-1.54-2.75-1.53-4.44.02-2.29 2.53-8.04 4.82-12.63m-.06-4.22s-6.72 12.17-6.76 16.65C72.98 26.5 76.07 30 79.93 30h.05c3.84 0 6.97-3.41 7-7.86.04-4.48-7.21-16.77-7.21-16.77z" fill="#424242" opacity=".2"/><path d="M116.99 38.32c-.04 4.48-3.19 8.08-7.05 8.05s-6.96-3.69-6.92-8.16c.04-4.48 6.76-16.84 6.76-16.84s7.24 12.48 7.21 16.95z" fill="#81D4FA"/><path d="M109.83 25.59c2.47 4.62 5.18 10.43 5.16 12.71-.03 3.35-2.27 6.07-5.04 6.07-1.28-.01-2.49-.62-3.41-1.71-1-1.18-1.54-2.75-1.53-4.44.02-2.29 2.53-8.04 4.82-12.63m-.06-4.22s-6.72 12.17-6.76 16.65 3.06 7.98 6.92 7.98h.05c3.84 0 6.97-3.41 7-7.86.04-4.48-7.21-16.77-7.21-16.77z" fill="#424242" opacity=".2"/></svg>