<svg viewBox="0 0 128 128" xmlns="http://www.w3.org/2000/svg" xmlns:xlink="http://www.w3.org/1999/xlink"><radialGradient id="a" cx="63.1" cy="96.9" r="57.7" gradientTransform="matrix(1.0146 0 0 .5359 0 40.3)" gradientUnits="userSpaceOnUse"><stop stop-color="#fff" offset="0"/><stop stop-color="#E3E3E3" offset="1"/></radialGradient><ellipse cx="64" cy="92.3" rx="59.4" ry="31" fill="url(#a)"/><g opacity=".5"><linearGradient id="b" x1="63.1" x2="63.1" y1="76.6" y2="106.5" gradientUnits="userSpaceOnUse"><stop stop-color="#fff" offset="0"/><stop stop-color="#E2E2E2" offset=".2"/><stop stop-color="#B8B8B8" offset=".6"/><stop stop-color="#9E9E9E" offset=".8"/><stop stop-color="#949494" offset="1"/></linearGradient><path d="M99.5 89.1c0 9.9-16.3 18.9-36.4 18.9s-36.4-9-36.4-18.9S43 71.2 63.1 71.2s36.4 8 36.4 17.9z" fill="url(#b)"/></g><path d="M-263.1 142a16.8 16.8 0 0 0-14.3-10.3V130a10 10 0 0 0-1.2-4.8c-2.9-5.3-8.9-8.4-14.3-10.4-7.9-3-16.4-4.2-24.9-4.3h-.4c-8.4 0-17 1.2-25 4.1-5.3 2-11.3 5.2-14.2 10.4a11 11 0 0 0-1.4 5.7 75.2 75.2 0 0 0 9 33.9 46.3 46.3 0 0 0 11.6 13 24 24 0 0 0 8.6 3.5 40.5 40.5 0 0 0 6.3 1 52.3 52.3 0 0 0 20.5-2.1l2.5-1c3.7-1.8 6.8-4.8 9.4-8 1.2-1.5 2.3-3 3.3-4.6 3.8.7 7.9.4 12-1 10.2-4 15.9-14.4 12.5-23.2zm-15.3 14.4a14 14 0 0 1-4.5.8 70 70 0 0 0 4.5-15.8c2.4.6 5.4 1.8 6.3 4.1 1.6 4.1-1.5 9-6.3 10.9z" fill="#FAFAFA"/><path d="M-318.2 113.4h.4a68 68 0 0 1 23.9 4c6.5 2.5 10.7 5.5 12.6 9.1.5 1 .8 2.1 1 3.6v1.5a3 3 0 0 0 2.6 3.1c5.6.7 10 3.8 11.8 8.4 2.8 7.3-2.1 16-10.9 19.3a19.5 19.5 0 0 1-10.8 1c-1 0-2 .4-2.6 1.3l-3 4.3a24.8 24.8 0 0 1-10.7 8 33.9 33.9 0 0 1-8.3 2 49.9 49.9 0 0 1-19.3-1.6 20.9 20.9 0 0 1-9.2-5.8 43.4 43.4 0 0 1-6.4-8.6 59.4 59.4 0 0 1-7.6-21.1c-.7-3.8-1-7.6-1-11.3 0-1.8.2-3 .9-4.2 2-3.6 6.1-6.6 12.7-9 7-2.6 15-4 24-4m35.3 46.8a17 17 0 0 0 5.5-1c3-1.1 5.5-3.2 7-5.9 1.7-2.8 2-6 1-8.9-1-2.7-3.8-4.7-8.3-6a3 3 0 0 0-2.4.4 3 3 0 0 0-1.3 2 77.7 77.7 0 0 1-4.4 15.3 3 3 0 0 0 2.7 4.1h.2m-35.4-49.8c-8.4 0-17 1.2-25 4.1-5.4 2-11.4 5.2-14.3 10.4a11 11 0 0 0-1.3 5.7 75.2 75.2 0 0 0 9 33.9 46.3 46.3 0 0 0 11.6 13 24 24 0 0 0 8.6 3.5 40.5 40.5 0 0 0 11.5 1.3 51.8 51.8 0 0 0 15.3-2.4l2.5-1c3.7-1.9 6.7-4.8 9.4-8 1.2-1.5 2.3-3 3.3-4.6a21.2 21.2 0 0 0 11.9-1.1c10.3-3.9 16-14.3 12.6-23.1a16.8 16.8 0 0 0-14.3-10.4V130a10 10 0 0 0-1.2-4.8c-2.9-5.3-8.9-8.4-14.3-10.4-7.9-3-16.4-4.2-24.8-4.3h-.5zm35.4 46.8h-.1a70 70 0 0 0 4.5-15.9c2.4.7 5.4 2 6.3 4.2 1.5 4.1-1.5 9-6.3 10.9-1.2.4-3 .8-4.4.8z" fill="#424242" opacity=".2"/><path d="M-318.6 150.5h.8c18.6 0 33.8-7.2 34-16.1v-.6c0-9-15.4-16.4-34.3-16.4-19 0-34.2 7.3-34.2 16.4v.8c.5 8.9 15.3 15.8 33.7 16z" fill="#BDBDBD"/><path d="M-318.6 150.5h.8c16.7 0 30.7-5.8 33.5-13.5-2.8-7.7-17-13.6-33.8-13.6-17 0-31 6-33.7 13.7 2.8 7.6 16.6 13.3 33.2 13.4z" fill="#6D4C41"/><g fill="#EFEBE9"><path d="M-326.8 94.4c4 3.9 9.8 8 10.6 13.2.7 5.2-1.5 10.3-3.5 13.7-.2.3.2.8.6.5 3.3-3 8.1-8 8.4-14.4.3-6.2-4.3-10.8-9.2-15.3-2.3-2.1-4.8-4.2-6.7-6.5-1.7-2-3-4-3.7-6.4-1-3.4-.6-7.2 1.8-9.8 1-1 2.1-1.9 3.3-2.5.4-.2.2-.8-.2-.7a17 17 0 0 0-6.5 2.6c-4.3 3.1-4.5 7.2-4 11.1.6 5.6 4.6 10.2 9.1 14.5z"/><path d="M-331.7 106.3c2.5 3.6 1.6 7.8.4 10.6-.1.4.4.7.7.4 2.6-2.7 6.3-7.5 4.5-12.3-1.7-4.4-3.3-5.8-8.5-9.9-4.8-3.7-8-5.7-9.5-9.4-1.6-4-1.5-7.9-.4-10.7.2-.4-.3-.7-.6-.4a14 14 0 0 0-4.1 11.7c1.8 8.5 12.6 12.8 17.5 20zm30.3-1.7c2.7 4 .1 10.2-1.7 13.3-.2.4.2.8.6.6 2.8-1.8 8-5.1 8-12 0-4-3.2-7.5-8.5-12.3a24.6 24.6 0 0 1-6.6-9.4 12.6 12.6 0 0 1-.5-9.7c.1-.4-.3-.8-.6-.4a14 14 0 0 0-4.1 11.5v.1c1.8 8.5 8.4 11.1 13.4 18.3z"/></g><g fill="#424242" opacity=".2"><path d="M-332.1 71.6c-.9 2.5-1 5.3-.1 8.2a19 19 0 0 0 4 7.1c1.8 2 3.9 3.9 5.9 5.7l1 1c4.9 4.4 8.9 8.5 8.6 13.7 0 2.1-.7 4-1.7 5.8.4-1.9.5-3.8.2-5.8-.8-5-5-8.7-8.7-12l-2.5-2.4c-4.7-4.5-8-8.6-8.6-13.3-.4-3.1-.2-5.8 1.9-8m6.8-5.5h-.1a19 19 0 0 0-6.5 2.7c-4.2 3.1-4.5 7.2-4 11 .6 5.7 4.6 10.3 9.1 14.6 4 3.9 9.8 7.9 10.6 13.2.8 5.2-1.4 10.3-3.5 13.6-.2.3 0 .6.3.6h.3c3.3-3 8.1-8 8.4-14.4.3-6.2-4.3-10.8-9.2-15.3-2.3-2.1-4.8-4.3-6.7-6.5-1.7-2-3-4-3.7-6.4-1-3.4-.6-7.2 1.8-9.8 1-1.1 2.2-2 3.3-2.5.4-.2.3-.8-.1-.8z"/><path d="M-347.1 82.2c.2 1.5.6 2.9 1.2 4.3 1.5 3.7 4.3 5.8 8.2 8.8l1.9 1.4c5.1 4 6.3 5.1 7.8 9 .5 1.5.4 3-.2 4.5-.2-1.6-.7-3.4-1.8-5-2.2-3-5.2-5.6-8.1-8-4.2-3.5-8.1-6.8-9.1-11.3-.2-1.3-.2-2.5.1-3.7m2.3-7.7l-.3.1a14 14 0 0 0-4.1 11.7c1.8 8.5 12.6 12.9 17.5 20 2.5 3.6 1.6 7.8.5 10.6-.2.3 0 .6.3.6 0 0 .2 0 .3-.2 2.6-2.7 6.3-7.5 4.5-12.3-1.7-4.4-3.3-5.8-8.5-9.9-4.8-3.6-8-5.6-9.5-9.4a14.5 14.5 0 0 1-.4-10.6c.2-.3 0-.6-.3-.6zm32.2 7.3a26.5 26.5 0 0 0 8.3 14c5 4.4 7.7 7.4 7.7 10.7a10 10 0 0 1-2.2 6.4c.8-3 1-6.6-1-9.5-1.9-2.8-4-4.8-6-6.9-3.2-3.1-6-5.8-7-10.6-.3-1.5-.1-2.9.2-4.1m2.1-7.2h-.2a14 14 0 0 0-4.1 11.7c1.8 8.5 8.5 11.1 13.4 18.3 2.8 4 .1 10.2-1.7 13.4-.1.2.1.5.4.5h.2c2.8-1.8 8-5.1 8-12 0-4-3.2-7.5-8.5-12.3a24.6 24.6 0 0 1-6.6-9.4 12.6 12.6 0 0 1-.5-9.7c0-.3-.1-.5-.4-.5z"/></g><path d="M-187.5 232.6c-3.4-10.3-14.4-16.2-26.1-14.7a33.5 33.5 0 0 0-15-11.8c-9-3.4-19-4.7-28.2-4.8a82 82 0 0 0-28.2 4.9 32.4 32.4 0 0 0-16 13.6c-1 1.7-1.3 5.4-1.4 7.3a85.4 85.4 0 0 0 8.2 35.4c2 4 4.4 8 7.2 11.4a32.2 32.2 0 0 0 13.6 10.3 39 39 0 0 0 10 2.4 55.2 55.2 0 0 0 20.2-1.4 38 38 0 0 0 6-2.2 32 32 0 0 0 10.7-9c2.8-3.4 5-7 7-11 4.5 1 9.4.7 14.3-1 13.6-4.3 21.5-17.6 17.7-29.4zm-21 19.3c-2.3.8-4.6 1-6.7.7l.9-3a84 84 0 0 0 3-16.7c.2-1.4.3-3 .3-4.4 5.4 0 10.2 3 11.8 7.9 2 6.2-2.1 13.2-9.3 15.5z" fill="#FAFAFA"/><path d="M-256.8 204.3c7 0 17.3.9 27.2 4.6 5.2 2 10.5 6.2 13.5 10.6a3 3 0 0 0 2.5 1.4h.3c1-.2 2.1-.3 3.2-.3 9.3 0 17.2 5.2 19.7 12.9 1.6 4.9 1 10.2-2 15a26.3 26.3 0 0 1-27.1 11.5 3 3 0 0 0-2.7 1.7 57 57 0 0 1-6.6 10.3 28.7 28.7 0 0 1-12.3 9.4 39 39 0 0 1-9.4 2.2 55.7 55.7 0 0 1-15.8-.6 38 38 0 0 1-8.6-2.7 28.6 28.6 0 0 1-9.8-8.3 55.9 55.9 0 0 1-6.8-10.8 82.3 82.3 0 0 1-7.7-28.5v-.4a38 38 0 0 1-.2-5c.1-2.7.6-5.2 1-6.1 2.7-5 8.7-10 14.5-12.3a79.6 79.6 0 0 1 27-4.6m43.6 51.4a18.5 18.5 0 0 0 15.5-8.5 14 14 0 0 0 1.5-11.8c-2-5.9-7.8-9.9-14.7-10a3 3 0 0 0-3 3c0 1.3 0 2.6-.2 4v.3a81.6 81.6 0 0 1-3.9 19c-.2.8-.1 1.7.4 2.5s1.2 1.3 2.1 1.4l2.3.1m-43.5-54.4a82 82 0 0 0-28.2 4.8 32.4 32.4 0 0 0-16 13.7c-1 1.7-1.3 5.4-1.4 7.3a85.4 85.4 0 0 0 8.2 35.4c2 4 4.4 8 7.2 11.4a32.2 32.2 0 0 0 13.6 10.3 39 39 0 0 0 10 2.4 55.2 55.2 0 0 0 20.2-1.4 38 38 0 0 0 6-2.2 32 32 0 0 0 10.7-9c2.8-3.4 5-7 7-11a27.8 27.8 0 0 0 14.3-1c13.6-4.4 21.6-17.6 17.7-29.4-3-9.3-12.2-15-22.6-15-1.2 0-2.3.1-3.5.3a33.5 33.5 0 0 0-15-11.8 83 83 0 0 0-28.2-4.8zm43.5 51.4l-2-.1 1-3a84 84 0 0 0 3-16.7c.2-1.4.3-3 .3-4.4 5.4 0 10.2 3 11.8 7.8 2 6.3-2.1 13.3-9.3 15.6-1.6.6-3.3.8-4.8.8z" fill="#424242" opacity=".2"/><path d="M-257.3 245.3h.9c20.2-.1 36.7-7.9 37-17.6v-.6c0-10-16.9-18-37.4-18-20.6 0-37.2 8-37.2 18v.9c.5 9.6 16.7 17.2 36.7 17.3z" fill="#CFD8DC"/><path d="M-257.3 245.3h.9c18.2-.1 33.3-6.4 36.4-14.7-3-8.4-18.5-14.8-36.8-14.8-18.4 0-33.6 6.4-36.6 14.8 3 8.3 18 14.6 36.1 14.7z" fill="#6D4C41"/><path d="M-270.2 172.1c-1.4 3-1.7 6.7-.6 10.4.8 2.7 2.3 5.4 4.6 8a81 81 0 0 0 6.6 6.5l1.3 1.1c5.5 5.1 10 9.8 9.8 15.9-.1 3-1.2 5.7-2.8 8.1.6-2.5.9-5.3.4-8.1-.8-5.5-5.5-9.8-9.7-13.5l-2.9-2.7c-5.4-5.3-9.2-10-9.9-15.3-.4-3.7-.3-7.4 3.2-10.4m7-5.1h-.1c-2.6.6-5.5 1.5-7.5 3-4.8 3.6-5.1 8.2-4.6 12.7.8 6.4 5.4 11.6 10.5 16.5 4.6 4.5 11.1 9 12 15 1 6-1.5 11.9-3.9 15.7-.2.3 0 .7.4.7l.3-.1c3.8-3.5 9.3-9 9.6-16.4.3-7-5-12.4-10.5-17.5a90.3 90.3 0 0 1-7.7-7.4c-2-2.2-3.4-4.7-4.2-7.3-1.1-3.9-.7-8.3 2-11.2 1.2-1.2 2.5-2.2 3.9-2.8.4-.3.2-.9-.2-.9z" fill="#424242"/><path d="M64 64.3c15.4 0 29.8 3 40.6 8.7 10.2 5.3 15.8 12.1 15.8 19.2s-5.6 14-15.8 19.3c-10.8 5.7-25.2 8.8-40.6 8.8s-29.8-3.1-40.6-8.8C13.2 106.2 7.6 99.4 7.6 92.3s5.6-14 15.8-19.3A89.8 89.8 0 0 1 64 64.2m0-3c-32.8 0-59.4 14-59.4 31s26.6 31 59.4 31 59.4-13.8 59.4-31-26.6-31-59.4-31z" fill="#424242" opacity=".2"/><path d="M-287.9 183.9c.1 2 .6 4.2 1.4 6.2 1.7 4.2 5 6.6 9.3 10l2.2 1.5c5.8 4.6 7.3 6 9 10.5.7 1.9.5 4-.7 6.4 0-2.2-.6-4.5-2.1-6.8a48.8 48.8 0 0 0-9.2-9.1c-4.8-4-9.4-7.8-10.5-13-.3-2.1 0-4 .6-5.7m2.5-7.4l-.3.1a16 16 0 0 0-4.8 13.3c2.1 9.8 14.4 14.8 20 23 2.8 4 1.9 8.8.5 12-.1.3.2.6.4.6l.3-.1c3-3.1 7.2-8.6 5.2-14-2-5.1-3.7-6.8-9.7-11.4-5.4-4.1-9-6.4-10.8-10.7-1.9-4.5-1.7-9-.4-12.2a.4.4 0 0 0-.4-.6z" fill="#424242"/><radialGradient id="c" cx="62.5" cy="66.7" r="42.4" gradientTransform="matrix(1 0 0 .9815 0 .6)" gradientUnits="userSpaceOnUse"><stop stop-color="#fff" offset="0"/><stop stop-color="#FBFBFB" offset=".3"/><stop stop-color="#eee" offset=".6"/><stop stop-color="#D9D9D9" offset=".9"/><stop stop-color="#ccc" offset="1"/></radialGradient><path d="M114 56.2c-3.6-.8-9.1-.5-13.3 1.2.1-4.7-.2-7.7-.2-7.7l-38-.1H24.7s-5.6 50.8 37.8 50.8c14.8 0 24-5.8 29.6-13.6 21.3-3.7 27.6-13.1 29-19.5 1.5-6.5-3-10.2-7.1-11.1zm.5 12c-.6 1.1-5.8 8.2-16 9 0 0 3.7-15.4 11.2-15.6 7.6-.1 5.3 5.6 4.7 6.6z" fill="url(#c)"/><linearGradient id="d" x1="62.6" x2="62.6" y1="28.4" y2="53.1" gradientUnits="userSpaceOnUse"><stop stop-color="#fff" offset="0"/><stop stop-color="#FBFBFB" offset=".3"/><stop stop-color="#eee" offset=".6"/><stop stop-color="#D9D9D9" offset=".9"/><stop stop-color="#ccc" offset="1"/></linearGradient><path d="M100.7 51.8c0 9.7-17 17.5-38.2 17.5s-38-7.9-38-17.6 17-17.5 38-17.5 38.2 7.8 38.2 17.6z" fill="url(#d)"/><path d="M62.5 37.6c20.6 0 33.4 6.6 35 12.8l.2 1.3-.1 5.3c0 1 .5 2 1.3 2.6a3 3 0 0 0 2.8.3 22.8 22.8 0 0 1 11.5-1c1.8.3 3.4 1.4 4.3 2.8.8 1.3 1 2.9.6 4.7-1.1 5-6 13.8-26.6 17.4a3 3 0 0 0-2 1.2c-5.9 8.2-15 12.4-27 12.4-10.3 0-18.5-3-24.3-9C27.8 77.6 27.2 60 27.5 53l.1-2.7c2-7.2 16.9-12.6 34.9-12.6m0-3c-19.5 0-35.6 6-37.8 15 0 0-.2 1.2-.2 3.3-.4 10.8.9 47.5 38 47.5 14.8 0 23.9-5.9 29.5-13.6 21.3-3.8 27.5-13.3 29-19.7 1.4-6.5-3-10.3-7.2-11.2a25.7 25.7 0 0 0-13.2 1.2l.1-5.4-.2-2c-2.3-9-18.5-15-38-15z" fill="#424242" opacity=".2"/><defs><path id="e" d="M100 51.8C100 61.1 83 68 62.4 68S25 61 25 51.8s17.1-17 37.5-17 37.4 7.5 37.4 17z"/></defs><clipPath id="f"><use xlink:href="#e"/></clipPath><linearGradient id="g" x1="62.5" x2="62.5" y1="46.8" y2="74.8" gradientUnits="userSpaceOnUse"><stop stop-color="#7B402B" offset="0"/><stop stop-color="#6F3A28" offset=".1"/><stop stop-color="#3F241A" offset=".5"/><stop stop-color="#211611" offset=".8"/><stop stop-color="#16110E" offset="1"/></linearGradient><ellipse cx="62.5" cy="60.9" rx="32.7" ry="15.1" clip-path="url(#f)" fill="url(#g)"/><path d="M52.9 44.4c-1 3.4 2.2 7.2 4.2 9 .2.2 0 .6-.2.5-2.5-.6-6.8-1.7-8.3-6.5-1-3 .4-6 3-10.6 1.6-2.7 2.3-5.2 2.5-8.1.3-3-.5-5.4-1.8-7-.2-.2 0-.5.3-.4a10.3 10.3 0 0 1 5.5 7.3c.7 6.3-3.4 9.7-5.2 15.8zM66 43.1c-2.3 5 1.8 11.8 4.4 15.1.3.4 0 .9-.5.7-3.6-1.5-10-4.4-11.3-12.3-.8-4.7 2.2-9.3 7.4-15.7 3.1-3.9 5-7.6 6-12.1 1.1-4.8.5-8.5-1.2-11.3-.2-.4.2-.9.6-.6 3.3 2.5 6.8 6.7 6.8 12.6-.5 10.2-7.7 14.4-12.1 23.6z" fill="#D7CCC8" opacity=".6"/><path d="M64 117.2c-21.2 0-41.5-3.7-50-12.5 7.7 9 27.2 15.5 50 15.5s42.4-6.4 50.2-15.5c-11.5 8.5-29 12.5-50.2 12.5z" fill="#fff"/></svg>