<svg viewBox="0 0 128 128" xmlns="http://www.w3.org/2000/svg" xmlns:xlink="http://www.w3.org/1999/xlink"><radialGradient id="a" cx="62.5" cy="48.8" r="54" gradientTransform="matrix(.9722 .2342 -.3166 1.3142 17.2 -30)" gradientUnits="userSpaceOnUse"><stop stop-color="#CCA47A" offset="0"/><stop stop-color="#E0BB95" offset=".6"/><stop stop-color="#CCA47A" offset="1"/></radialGradient><path d="M100.2 15.1c0-6-3-11.3-9-11.3s-9 5.3-9 11.3v45c0 4.1-5.3 7.4-9.4 7.4H43.2c-10 0-18.3-16.4-18.3-6.4v22.3c0 22.4 8.6 40.8 38.9 40.8s39.5-19.2 39.5-38.4c0-6.9-2.9-10.7-2.9-14.3l-.2-56.4z" fill="url(#a)"/><path d="M91.2 6.8A5 5 0 0 1 95.5 9c1.1 1.5 1.7 3.7 1.7 6.1l.2 56.4c0 2 .6 3.8 1.3 5.8a26 26 0 0 1 1.6 8.5c0 7-1.4 17-7.7 24.5-6.2 7.2-15.9 11-28.8 11-13.1 0-22.7-3.7-28.4-11-5-6-7.4-15.1-7.4-26.9V62.5l.7.7c3.6 3 8.5 7.3 14.5 7.3h29.7c5.7 0 12.3-4.5 12.3-10.4v-45c0-1.4.3-8.3 6-8.3m0-3c-6 0-9 5.3-9 11.3v45c0 4.1-5.3 7.4-9.4 7.4H43.2c-7.7 0-14.3-9.6-17-9.6-.8 0-1.2.9-1.2 3.2v22.3c0 22.4 8.5 40.8 38.8 40.8s39.5-19.2 39.5-38.4c0-6.9-2.9-10.7-2.9-14.3l-.2-56.4c0-6-3-11.3-9-11.3z" fill="#BA8F63"/><radialGradient id="b" cx="61.2" cy="83.3" r="26.8" gradientUnits="userSpaceOnUse"><stop stop-color="#CCA47A" stop-opacity=".8" offset=".5"/><stop stop-color="#CCA47A" stop-opacity="0" offset="1"/></radialGradient><ellipse cx="61.2" cy="83.3" rx="30.3" ry="22.7" fill="url(#b)" opacity=".4"/><radialGradient id="c" cx="-31.4" cy="-60.5" r="23.3" gradientTransform="matrix(.00506 1.0512 -.3357 .00247 54 84.2)" gradientUnits="userSpaceOnUse"><stop stop-color="#E0BB95" offset="0"/><stop stop-color="#DEB892" offset=".4"/><stop stop-color="#D6B088" offset=".7"/><stop stop-color="#CCA47A" offset="1"/></radialGradient><path d="M74.3 82.5a9.8 9.8 0 0 1-9.8-9.8V50.3c0-5.4 4.4-8.8 9.8-8.8s8.8 3.4 8.8 8.8l1 22.4c0 5.4-4.4 9.8-9.8 9.8z" fill="url(#c)"/><radialGradient id="d" cx="-58.1" cy="-50.2" r="18.9" gradientTransform="matrix(-.00188 1.0497 -.3714 -.00098 15.7 119.6)" gradientUnits="userSpaceOnUse"><stop stop-color="#E0BB95" offset="0"/><stop stop-color="#DEB892" offset=".4"/><stop stop-color="#D6B088" offset=".7"/><stop stop-color="#CCA47A" offset="1"/></radialGradient><path d="M34.7 83.8c-5.5 0-9-3.4-9-9v-14c0-5.5 3.5-9 9-9s9 3.5 9 9v14c0 5.6-3.5 9-9 9z" fill="url(#d)"/><radialGradient id="e" cx="-46.9" cy="-56.6" r="23.6" gradientTransform="matrix(.00917 1.05 -.3562 .0047 34.5 101.6)" gradientUnits="userSpaceOnUse"><stop stop-color="#E0BB95" offset="0"/><stop stop-color="#DEB892" offset=".4"/><stop stop-color="#D6B088" offset=".7"/><stop stop-color="#CCA47A" offset="1"/></radialGradient><path d="M54.7 83.7a10 10 0 0 1-10-10V55.1a10 10 0 0 1 10-10c5.6 0 9 4.4 9 10l1 18.4a10 10 0 0 1-10 10z" fill="url(#e)"/><path d="M75.5 86c3 .5 7 2.3 7.6 5.7.7 3.3-2.3 5.7-5 6.9-1.8.8-.2 3.3 1.5 2.6 4-1.7 7.5-5.7 6.4-10.3-1-4.8-6-7.2-10.5-7.8-1.9-.3-1.9 2.7 0 3z" fill="#BA8F63"/><path d="M74 43.5c3.8 0 7 3 7 6.8v22.4a6.8 6.8 0 0 1-13.4 1.5 3 3 0 0 0-2.9-2.4h-.1a3 3 0 0 0-2.9 2.7 7 7 0 0 1-14-.6 3 3 0 0 0-3-2.9C43 71 42 72.5 42 74.1v.8a7 7 0 0 1-14 0V60.8c0-3.9 3-7 6.8-7s6.8 2.8 7 6.5c0 1.6 1.3 2.7 2.9 2.7 1.7 0 3.3-1 3.3-2.7v-5.1c0-4 3-7 6.9-7a7 7 0 0 1 6.7 5.3 3 3 0 0 0 3 2.2s-.1 0 0 0c1.5-.2 2.4-1.4 2.4-3v-2.4a7 7 0 0 1 7-6.8m.2-3.5H74c-5.4 0-10 4.9-10 10.3v2.4a9.5 9.5 0 0 0-9.3-7.6 9.7 9.7 0 0 0-9.7 10v5.2c-1-5.3-4.6-9.5-10-9.5a10 10 0 0 0-10 10v14a10 10 0 0 0 20 0v-.7c0 5.3 4.5 9.6 9.9 9.6 5.1 0 9.3-3.7 9.9-8.6a10 10 0 0 0 9.6 7.9h-.1c5.4 0 9.7-4.9 9.7-10.3V50.3c0-5.4-4.3-10.3-9.8-10.3z" fill="#BA8F63"/><path d="M44.7 76c-1-.1-2.4-1.3-2.4-2.3L42 60.9c0-1 1.8-3 2.8-3.2 1.2-.1 3.1 1.8 3.1 3l-.4 12.9c0 1.2-1.5 2.6-2.7 2.4zM64 78.7c-1.1 0-1-.6-1-1.7l-1-22.3c0-1.1.9-2 2-2s2.7.2 2.7 1.3l-.1 22.8c0 1.1-1.5 2-2.6 2z" fill="#BA8F63"/><defs><path id="f" d="M58.7 70.3c-6.6 0-7.7 7.6-6.1 11.9s6.3 7.3 10.4 7c15-1.6 18.8.8 20.8 5.3 2.6 6.2 5.9 6.5 9.2 6 4.8-.5 4.5-9.8 4.7-18.9C97.9 71.4 81.2 68 81.2 68s-19.3 2.4-22.5 2.4z"/></defs><clipPath id="g"><use xlink:href="#f"/></clipPath><g clip-path="url(#g)"><radialGradient id="h" cx="62.1" cy="80.2" r="39.5" gradientUnits="userSpaceOnUse"><stop stop-color="#E0BB95" offset="0"/><stop stop-color="#DEB892" offset=".4"/><stop stop-color="#D6B088" offset=".7"/><stop stop-color="#CCA47A" offset="1"/></radialGradient><path d="M93.8 103.5c-2.3 0-6-3.3-8.7-9.6-2-4.8-6.1-6.7-14.3-6.7a78 78 0 0 0-8.5.5c-3.5 0-7-2.7-8.3-6-.8-2.2-.8-5.7.7-8a5 5 0 0 1 4-1.9c3 0 19.9-2 22.4-2.3 6.2 1.6 21.6 7.2 22.3 14.6.7 8.3-.3 14-3 17a8 8 0 0 1-6.4 2.4h-.2z" fill="url(#h)"/><path d="M81 71c7 1.9 20.4 7.3 20.9 13.2.8 9.8-1 14-2.7 15.8-1.2 1.4-2.9 2-5.2 2h-.2c-1.4 0-4.7-2.8-7.3-8.7-2.4-5.4-7-7.6-15.7-7.6-2.3 0-5 .1-8 .4h-.5a7.8 7.8 0 0 1-6.9-5c-.7-1.8-.6-4.8.6-6.5.6-.9 1.5-1.3 2.7-1.3 3 0 18.6-1.9 22.3-2.3m.2-3s-19.3 2.3-22.5 2.3c-6.6 0-7.7 7.6-6.1 11.9a10.8 10.8 0 0 0 10.4 7c3-.4 5.6-.5 7.8-.5 8.7 0 11.4 2.2 13 5.8 2.6 6.2 6.6 10.5 10 10.5h.2c11 0 11.6-12 10.8-21-.8-10.3-23.6-16-23.6-16z" fill="#BA8F63"/></g></svg>