<svg viewBox="0 0 128 128" xmlns="http://www.w3.org/2000/svg"><linearGradient id="a" x1="64" x2="64" y1="3.2" y2="124.9" gradientUnits="userSpaceOnUse"><stop stop-color="#FFEB3B" offset="0"/><stop stop-color="#FFDC28" offset=".4"/><stop stop-color="#FFC107" offset="1"/></linearGradient><circle cx="64" cy="64" r="60" fill="url(#a)"/><path d="M64 7a57 57 0 1 1-.1 114.1A57 57 0 0 1 64 7m0-3a60 60 0 1 0 0 120A60 60 0 0 0 64 4z" fill="#424242" opacity=".2"/><path d="M106.9 60.7c-5-5-11.5-8-18.5-8.4A29 29 0 0 0 86 17.5a3.4 3.4 0 0 0-5.7.6c-.6 1.1-.6 2.5.1 3.5a19.2 19.2 0 0 1-1.9 23.1 4 4 0 0 0-1.2-1.3 24.3 24.3 0 0 0-26.4 0c-.5.4-1 .8-1.3 1.4a19.2 19.2 0 0 1-1.8-23.2c.7-1 .7-2.4 0-3.5a3.4 3.4 0 0 0-5.6-.6 28.8 28.8 0 0 0-2.5 34.8 28.8 28.8 0 0 0-27 27c0 1 .3 2 1 2.6a3.5 3.5 0 0 0 5.9-1.6 19.3 19.3 0 0 1 20.7-15 4 4 0 0 0-.3 2.2c1.2 8.7 7.1 16 15.3 19.2l1.4.3.6-.1A18 18 0 0 1 52 98.2a19.2 19.2 0 0 1-9.5 5.2 3.5 3.5 0 0 0 .8 6.8h.2c7.8-.5 15-4 20-10l.5-.5.4.5c5.1 6 12.3 9.5 20 10h.4a3.5 3.5 0 0 0 .7-6.9 19.2 19.2 0 0 1-15-16.4 4 4 0 0 0 2.4-.2c7.6-3 13.2-9.5 15-17.5.3-1.3 0-2.7-.8-3.8.9-.2 1.8-.2 2.6-.2a19.4 19.4 0 0 1 18.9 15 3.5 3.5 0 1 0 6.9-1 29 29 0 0 0-8.5-18.5zM52.4 45.9a21.3 21.3 0 0 1 23.1 0c.4.3.6.8.4 1.2-.8.7-1.7 1.2-2.6 1.7a1 1 0 0 1-.4 0 17.5 17.5 0 0 0-17.8 0 1 1 0 0 1-.4 0c-1-.4-1.8-1-2.6-1.6a1 1 0 0 1 .3-1.3zM64 59a5 5 0 1 1 0 10 5 5 0 0 1 0-10zm-25.7 3.3a22.2 22.2 0 0 0-21.7 17.3c-.1.3-.3.4-.5.4s-.5-.2-.5-.5a26 26 0 0 1 28-24.2c.9 0 1.4-1 .8-1.6a25.8 25.8 0 0 1 .3-34.4c.4 0 .7.3.4.7a22.2 22.2 0 0 0 4.5 29l1 1c.6.5 1.3 1 2 1.3l1.2.5c2.4 1.2 5 2 7.9 2.3.3 0 .6.3.8.6v1.8a1 1 0 0 1-.6.4 7.4 7.4 0 0 0-4.3 11c.2.2.2.4.1.6l-.2.3-1.5 1.4a1 1 0 0 1-.8-.3 22.8 22.8 0 0 0-6.6-5.2 4 4 0 0 0-1.2-.8 21 21 0 0 0-2.3-.8l-1.2-.2h-.2a22 22 0 0 0-5.3-.6zM56.6 84a21.4 21.4 0 0 1-13.8-17c0-.4.3-.9.7-1l3 1 .2.4A17.7 17.7 0 0 0 56.5 80l.2.8.5 3a1 1 0 0 1-.6.2zM74 100.3c3 3.1 6.9 5.1 10.9 6 .5.1.4.9-.1.9a26 26 0 0 1-19.9-11.4c-.2-.2-.5-.4-.8-.4s-.6.2-.8.4a25.8 25.8 0 0 1-19.9 11.5c-.6 0-.7-.8-.1-1A22.2 22.2 0 0 0 55 99.4a21 21 0 0 0 5.2-14.7 4 4 0 0 0 .4-2c0-.4 0-1.4-.2-2.1 0-1-.5-1.8-1.2-2.5-.5-1.7-1-3.4-1.5-4.4a1 1 0 0 1 .1-1 4 4 0 0 0 1-.6l.8-1c.2 0 .3-.3.5-.5h.6a7.4 7.4 0 0 0 6.6 0h.6l.5.6.8.8 1 .7c.1.3.2.6 0 1-.5 1-1 2.7-1.4 4.4a4 4 0 0 0-1.3 2.4l-.2 2.2c0 .5 0 1 .2 1.5v3.1c.6 4.7 2.7 9.3 6.4 13zm11-31.7A21.4 21.4 0 0 1 71.3 84a1 1 0 0 1-.7-.3v-.1l.9-3.7c4.8-2.2 8.5-6.7 9.7-12.1l.4-.9 1.6-.6c1 .1 2 1.1 1.7 2.3zm27 11.3a.5.5 0 0 1-.5-.3 22.3 22.3 0 0 0-28.7-16.3c-.5 0-1 .1-1.4.3a5 5 0 0 0-1.4.8 22.3 22.3 0 0 0-7 5.4 1 1 0 0 1-.8.4H72l-1.4-1.5s-.2 0-.3-.2l.1-.7a7.4 7.4 0 0 0-4.2-11 1 1 0 0 1-.5-.4V54.6c.1-.2.4-.4.7-.5 2.8-.3 5.4-1 7.8-2.3.5 0 1-.3 1.4-.5l1.9-1.3 1-1A22.2 22.2 0 0 0 83 20c-.3-.3 0-.7.4-.7l.3.1a26 26 0 0 1 0 34.2c-.5.6 0 1.6.8 1.6h2a26 26 0 0 1 26 24.3c0 .3-.3.4-.5.4z" fill="#424242" opacity=".2"/><linearGradient id="b" x1="39.1" x2="39.1" y1="18" y2="109.8" gradientUnits="userSpaceOnUse"><stop stop-color="#616161" offset="0"/><stop stop-color="#3F3F3F" offset=".5"/><stop stop-color="#212121" offset="1"/></linearGradient><path d="M56.6 70l.9-1c.3-.3.4-.7.1-1.1a7.4 7.4 0 0 1 4.3-11c.4-.2.7-.5.7-1v-.7c0-.6-.4-1-.9-1A22.3 22.3 0 0 1 45.1 20c.3-.5-.3-1-.7-.6a26 26 0 0 0 0 34.3c.6.6 0 1.7-.8 1.6a26 26 0 0 0-28 24.2c0 .6.8.7 1 .1A22.3 22.3 0 0 1 55 70c.4.4 1 .4 1.5 0z" fill="url(#b)"/><linearGradient id="c" x1="88.9" x2="88.9" y1="18" y2="109.8" gradientUnits="userSpaceOnUse"><stop stop-color="#616161" offset="0"/><stop stop-color="#3F3F3F" offset=".5"/><stop stop-color="#212121" offset="1"/></linearGradient><path d="M104.8 62.8a26 26 0 0 0-20.3-7.5c-.9 0-1.4-1-.8-1.7a26 26 0 0 0-.1-34.1c-.4-.5-1 0-.7.5a22.3 22.3 0 0 1-16.6 34.1 1 1 0 0 0-.9 1v.8c0 .4.3.8.7 1a7.5 7.5 0 0 1 4.2 11c-.2.3-.1.8.2 1.1l.9.9c.4.4 1 .4 1.4 0a22.4 22.4 0 0 1 38.6 9.7c.2.5 1 .4 1-.2-.5-6-3-12-7.6-16.6z" fill="url(#c)"/><linearGradient id="d" x1="64" x2="64" y1="18" y2="109.8" gradientUnits="userSpaceOnUse"><stop stop-color="#616161" offset="0"/><stop stop-color="#3F3F3F" offset=".5"/><stop stop-color="#212121" offset="1"/></linearGradient><path d="M84.8 106.3a22.2 22.2 0 0 1-17.3-19c-.2-1.5 0-3 .2-4.3a58 58 0 0 1 2.5-9.4 1 1 0 0 0-.2-1l-1.6-1.7a1 1 0 0 0-1.1-.3 7.4 7.4 0 0 1-6.6 0 1 1 0 0 0-1 .3l-1.8 1.6a1 1 0 0 0-.2 1.2 40 40 0 0 1 2 6.4 21.7 21.7 0 0 1-16.5 26.2c-.6.2-.5 1 .1 1a26 26 0 0 0 19.9-11.5 1 1 0 0 1 1.6 0 26 26 0 0 0 19.8 11.4c.6 0 .7-.8.2-1z" fill="url(#d)"/><linearGradient id="e" x1="77.6" x2="77.6" y1="18" y2="109.8" gradientUnits="userSpaceOnUse"><stop stop-color="#616161" offset="0"/><stop stop-color="#3F3F3F" offset=".5"/><stop stop-color="#212121" offset="1"/></linearGradient><path d="M71 80.1l-.5.7-.2 2.1a1 1 0 0 0 1.4 1 21.4 21.4 0 0 0 13.2-15.3c.3-1.5-1.1-2.8-2.5-2.2a2 2 0 0 0-1.2 1.4c-1.2 5.5-5 10.1-10.1 12.3z" fill="url(#e)"/><linearGradient id="f" x1="50.2" x2="50.2" y1="18" y2="109.8" gradientUnits="userSpaceOnUse"><stop stop-color="#616161" offset="0"/><stop stop-color="#3F3F3F" offset=".5"/><stop stop-color="#212121" offset="1"/></linearGradient><path d="M56.3 83.9a1 1 0 0 0 1.3-1c0-.4 0-1.3-.2-2 0-.3-.3-.7-.6-.8-5.2-2.3-9-7-10.1-12.7a1 1 0 0 0-.6-.7l-2-.8a1 1 0 0 0-1.3 1.2c1.2 7.7 6.4 14 13.5 16.8z" fill="url(#f)"/><linearGradient id="g" x1="64" x2="64" y1="18" y2="109.8" gradientUnits="userSpaceOnUse"><stop stop-color="#616161" offset="0"/><stop stop-color="#3F3F3F" offset=".5"/><stop stop-color="#212121" offset="1"/></linearGradient><path d="M64 46.3c3.3 0 6.3.9 8.9 2.4.3.2.7.2 1 0a19 19 0 0 0 1.7-1.1 1 1 0 0 0 0-1.7 21.3 21.3 0 0 0-23.2 0 1 1 0 0 0 0 1.7c.5.4 1 .8 1.7 1.1.3.2.7.2 1 0a18 18 0 0 1 8.9-2.4z" fill="url(#g)"/></svg>