<svg viewBox="0 0 128 128" xmlns="http://www.w3.org/2000/svg"><linearGradient id="a" x1="64" x2="64" y1="4.3" y2="124.4" gradientUnits="userSpaceOnUse"><stop stop-color="#B388FF" offset="0"/><stop stop-color="#A175FF" offset=".4"/><stop stop-color="#7C4DFF" offset="1"/></linearGradient><path d="M116 124H12a8 8 0 0 1-8-8V12a8 8 0 0 1 8-8h104a8 8 0 0 1 8 8v104a8 8 0 0 1-8 8z" fill="url(#a)"/><path d="M116 7a5 5 0 0 1 5 5v104a5 5 0 0 1-5 5H12a5 5 0 0 1-5-5V12a5 5 0 0 1 5-5h104m0-3H12a8 8 0 0 0-8 8v104a8 8 0 0 0 8 8h104a8 8 0 0 0 8-8V12a8 8 0 0 0-8-8z" fill="#424242" opacity=".2"/><path d="M64 16a5 5 0 0 1 5 5v6h14a5 5 0 0 1 0 10H69v9h30a5 5 0 0 1 0 10H69v25.1L81.5 88a5 5 0 0 1-5 8.7l-7.5-4V107a5 5 0 0 1-10 0V86.9L46.5 80a5 5 0 0 1 5-8.7l7.5 4V56H29a5 5 0 0 1 0-10h30v-9H45a5 5 0 0 1 0-10h14v-6a5 5 0 0 1 5-5m0-3a8 8 0 0 0-8 8v3H45a8 8 0 0 0 0 16h11v3H29a8 8 0 0 0 0 16h27v11.3l-3-1.6a8 8 0 0 0-8 13.9l11 6V107a8 8 0 0 0 16 0v-9.3l3 1.6a8 8 0 0 0 8-13.9l-11-6V59h27a8 8 0 0 0 0-16H72v-3h11a8 8 0 0 0 0-16H72v-3a8 8 0 0 0-8-8z" fill="#424242" opacity=".2"/><path d="M99 56a5 5 0 0 0 0-10H69v-9h14a5 5 0 0 0 0-10H69v-6a5 5 0 0 0-10 0v6H45a5 5 0 0 0 0 10h14v9H29a5 5 0 0 0 0 10h30v19.3l-7.5-4a5 5 0 0 0-5 8.7L59 86.9V107a5 5 0 0 0 10 0V92.7l7.5 4a5 5 0 0 0 5-8.7L69 81.1V56h30z" fill="#FAFAFA"/></svg>