<svg viewBox="0 0 128 128" xmlns="http://www.w3.org/2000/svg"><linearGradient id="a" x1="64" x2="64" y1="4.3" y2="124.4" gradientUnits="userSpaceOnUse"><stop stop-color="#B388FF" offset="0"/><stop stop-color="#A175FF" offset=".4"/><stop stop-color="#7C4DFF" offset="1"/></linearGradient><path d="M116 124H12a8 8 0 0 1-8-8V12a8 8 0 0 1 8-8h104a8 8 0 0 1 8 8v104a8 8 0 0 1-8 8z" fill="url(#a)"/><path d="M116 7a5 5 0 0 1 5 5v104a5 5 0 0 1-5 5H12a5 5 0 0 1-5-5V12a5 5 0 0 1 5-5h104m0-3H12a8 8 0 0 0-8 8v104a8 8 0 0 0 8 8h104a8 8 0 0 0 8-8V12a8 8 0 0 0-8-8z" fill="#424242" opacity=".2"/><path d="M72 116h.1zm.2 0H72h.7-.5z" fill="#fff"/><path d="M95.2 48c.6 0 1 .3 1.3.9l3 9.5c.1.6.6 1 1.2 1l10-.2c1.2 0 1.8 1.6.7 2.4l-8 5.8c-.6.3-.7 1-.6 1.4l3.2 9.5c.3 1-.4 1.7-1.2 1.7-.3 0-.5 0-.8-.2l-8-6c-.3-.2-.5-.2-.8-.2l-.7.2-8 6-.8.2c-.8 0-1.5-.8-1.2-1.7l3.1-9.5c.2-.5 0-1-.4-1.4L79 61.6c-1-.8-.5-2.4.8-2.4l10 .1c.5 0 1-.3 1.2-.9l3-9.5c.2-.6.7-.9 1.2-.9m0-3a4.3 4.3 0 0 0-4 3l-2.7 8.3h-8.7a4.3 4.3 0 0 0-2.5 7.7l7 5-2.7 8.3c-.4 1.4-.2 2.8.6 3.9s2.1 1.8 3.5 1.8c1 0 1.8-.3 2.5-.9l7-5.1 7 5.1a4.3 4.3 0 0 0 6.7-4.7L106 69l7.1-5.1a4.3 4.3 0 0 0-2.5-7.8l-8.7.1-2.7-8.3c-.5-1.8-2.2-3-4-3z" fill="#424242" opacity=".2"/><path d="M64 16c15 0 28.4 6.9 37.2 17.6a1 1 0 0 1-.8 1.6 1 1 0 0 1-.6-.3 40.7 40.7 0 0 0-68.6 29 40.7 40.7 0 1 0 68.6 29l.7-.1c.7 0 1.3.8.7 1.5A48 48 0 1 1 64 16m0-3h-2.1a51.2 51.2 0 0 0-34.6 86.4 50.8 50.8 0 0 0 76.3-3.1c.9-1.2 1-2.8.4-4.2a4 4 0 0 0-3.5-2.3c-1 0-2 .4-2.7 1.1A37.7 37.7 0 0 1 34.2 64a37.7 37.7 0 1 1 63.6-27 3.9 3.9 0 0 0 6.2-1c.7-1.4.5-3-.5-4.2A50.9 50.9 0 0 0 64 13z" fill="#424242" opacity=".2"/><path d="M96.5 48.9l3 9.5c.2.6.7 1 1.2 1l10-.2c1.3 0 1.8 1.6.8 2.4l-8.2 5.8c-.4.3-.6 1-.4 1.4l3.1 9.5c.4 1.2-1 2.2-2 1.5l-8-6c-.5-.3-1-.3-1.5 0l-8 6c-1 .7-2.4-.3-2-1.5l3.1-9.5c.2-.5 0-1-.5-1.4l-8-5.8c-1.1-.8-.6-2.4.7-2.4l10 .1c.5 0 1-.3 1.2-.9l3-9.5c.4-1.2 2-1.2 2.5 0z" fill="#fff"/><path d="M71.8 104.2c-22.4 0-40.6-18-40.6-40.2a40.7 40.7 0 1 1 68.6-29c.9.7 2-.5 1.4-1.4a48 48 0 1 0 0 60.7c.7-.8-.5-2-1.3-1.2a40.7 40.7 0 0 1-28 11z" fill="#FAFAFA"/></svg>