<svg viewBox="0 0 128 128" xmlns="http://www.w3.org/2000/svg"><linearGradient id="a" x1="64" x2="64" y1="4.3" y2="124.4" gradientUnits="userSpaceOnUse"><stop stop-color="#B388FF" offset="0"/><stop stop-color="#A175FF" offset=".4"/><stop stop-color="#7C4DFF" offset="1"/></linearGradient><path d="M116 124H12a8 8 0 0 1-8-8V12a8 8 0 0 1 8-8h104a8 8 0 0 1 8 8v104a8 8 0 0 1-8 8z" fill="url(#a)"/><path d="M116 7a5 5 0 0 1 5 5v104a5 5 0 0 1-5 5H12a5 5 0 0 1-5-5V12a5 5 0 0 1 5-5h104m0-3H12a8 8 0 0 0-8 8v104a8 8 0 0 0 8 8h104a8 8 0 0 0 8-8V12a8 8 0 0 0-8-8z" fill="#424242" opacity=".2"/><path d="M72 116h.1zm.2 0H72h.7-.5z" fill="#fff"/><path d="M64 16a48 48 0 1 1 0 96 48 48 0 0 1 0-96m31 73.3a39.9 39.9 0 0 0-27-65.1v38.1l27 27m-62 0l27-27V24.2a40 40 0 0 0-27 65.1m27 14.5V73.7L38.7 95c6 4.8 13.3 8 21.3 8.8m8 0c8-.8 15.4-4 21.3-8.8L68 73.7v30.1M64 13a51 51 0 1 0 .1 102.1A51 51 0 0 0 64 13zm7 48.1V27.7a37 37 0 0 1 23.6 57L71 61.1zM33.4 84.7a37 37 0 0 1 23.6-57V61L33.4 84.7zm9.9 10L57 80.8v19.4c-5-1-9.6-2.8-13.7-5.7zm27.7 5.6V81l13.7 13.7a36.7 36.7 0 0 1-13.7 5.7z" fill="#424242" opacity=".2"/><path d="M64 16a48 48 0 1 0 0 96 48 48 0 0 0 0-96zm40 48a40 40 0 0 1-9 25.3l-27-27V24.2A40 40 0 0 1 104 64zm-44 39.8c-8-.8-15.4-4-21.3-8.8L60 73.7v30.1zm8-30.1L89.3 95c-6 4.8-13.3 8-21.3 8.8V73.7zm-8-49.5v38.1l-27 27a39.9 39.9 0 0 1 27-65.1z" fill="#fff"/></svg>