<svg viewBox="0 0 128 128" xmlns="http://www.w3.org/2000/svg"><linearGradient id="a" x1="64" x2="64" y1="3.5" y2="124.6" gradientUnits="userSpaceOnUse"><stop stop-color="#C71FFF" offset="0"/><stop stop-color="#BE1BF2" offset=".3"/><stop stop-color="#A710D0" offset=".8"/><stop stop-color="#9F0CC4" offset="1"/></linearGradient><path d="M106 46a42 42 0 1 0-50 41.2V92H44a4 4 0 0 0-4 4v8a4 4 0 0 0 4 4h12v12a4 4 0 0 0 4 4h8a4 4 0 0 0 4-4v-12h12a4 4 0 0 0 4-4v-8a4 4 0 0 0-4-4H72v-4.8A42 42 0 0 0 106 46zm-67.2 0a25.2 25.2 0 1 1 50.4 0 25.2 25.2 0 0 1-50.4 0z" fill="url(#a)"/><path d="M64 7a39 39 0 0 1 7.4 77.3 3 3 0 0 0-2.4 3V92a3 3 0 0 0 3 3h12c.6 0 1 .5 1 1v8c0 .6-.5 1-1 1H72a3 3 0 0 0-3 3v12c0 .6-.5 1-1 1h-8a1 1 0 0 1-1-1v-12a3 3 0 0 0-3-3H44a1 1 0 0 1-1-1v-8c0-.6.5-1 1-1h12a3 3 0 0 0 3-3v-4.8a3 3 0 0 0-2.4-3A39 39 0 0 1 64 7m0 67.2a28.2 28.2 0 1 0 0-56.5 28.2 28.2 0 0 0 0 56.5M64 4h-1.6A42 42 0 1 0 56 87.2V92H44a4 4 0 0 0-4 4v8a4 4 0 0 0 4 4h12v12a4 4 0 0 0 4 4h8a4 4 0 0 0 4-4v-12h12a4 4 0 0 0 4-4v-8a4 4 0 0 0-4-4H72v-4.8A42 42 0 0 0 64 4zm0 67.2a25.2 25.2 0 1 1 0-50.4 25.2 25.2 0 0 1 0 50.4z" fill="#424242" opacity=".2"/></svg>