<svg viewBox="0 0 128 128" xmlns="http://www.w3.org/2000/svg"><linearGradient id="a" x1="64" x2="64" y1="12.3" y2="115.8" gradientUnits="userSpaceOnUse"><stop stop-color="#00BFA5" offset="0"/><stop stop-color="#00B29A" offset=".7"/><stop stop-color="#00AB94" offset="1"/></linearGradient><path d="M100 12H80a4 4 0 0 0-4 4v8a4 4 0 0 0 4 4h6.3a1 1 0 0 1 .7 1.7l-9.5 9.5a42 42 0 1 0 11.3 11.3l9.5-9.5a1 1 0 0 1 1.7.7V48a4 4 0 0 0 4 4h8a4 4 0 0 0 4-4V16a4 4 0 0 0-4-4h-12zM71.8 91.8A25.2 25.2 0 1 1 36 56.1a25.2 25.2 0 0 1 35.7 35.7z" fill="url(#a)"/><path d="M112 15c.6 0 1 .5 1 1v32c0 .6-.5 1-1 1h-8a1 1 0 0 1-1-1v-6.3a4 4 0 0 0-6.8-2.8l-9.5 9.5a3 3 0 0 0-.4 3.8 39 39 0 1 1-10.5-10.5 3 3 0 0 0 3.8-.4l9.5-9.5a4 4 0 0 0-2.8-6.8H80a1 1 0 0 1-1-1v-8c0-.6.4-1 1-1h32m-58 87.2A28 28 0 0 0 82.2 74 28 28 0 0 0 54 45.8 28 28 0 0 0 25.8 74 28 28 0 0 0 54 102.2M112 12H80a4 4 0 0 0-4 4v8a4 4 0 0 0 4 4h6.3a1 1 0 0 1 .7 1.7l-9.5 9.5a42 42 0 1 0 11.3 11.3l9.5-9.5c.2-.2.4-.3.7-.3.5 0 1 .4 1 1V48a4 4 0 0 0 4 4h8a4 4 0 0 0 4-4V16a4 4 0 0 0-4-4zM54 99.2a25.2 25.2 0 1 1-.1-50.3 25.2 25.2 0 0 1 0 50.3z" fill="#424242" opacity=".2"/></svg>