<svg viewBox="0 0 128 128" xmlns="http://www.w3.org/2000/svg"><linearGradient id="a" x1="64" x2="64" y1="3.7" y2="124" gradientUnits="userSpaceOnUse"><stop stop-color="#FFA726" offset="0"/><stop stop-color="#FB9415" offset=".5"/><stop stop-color="#F57C00" offset="1"/></linearGradient><circle cx="64" cy="64" r="60" fill="url(#a)"/><path d="M64 7a57 57 0 1 1-.1 114.1A57 57 0 0 1 64 7m0-3a60 60 0 1 0 0 120A60 60 0 0 0 64 4z" fill="#424242" opacity=".2"/><path d="M93.4 30h.3a3 3 0 0 1 2 1c6 6.4-5.8 10-10.1 11a2 2 0 0 0-1.6 2v40a2 2 0 0 0 1.5 2c3.8 1 13.2 3.7 11.8 8.9-.5 1.7-2.1 3.1-3.9 3.1a4 4 0 0 1-2.5-.9 16 16 0 0 0-6.9-3.3c-4.9-1-10-1.8-20-1.8s-15.1.9-20 1.8a16 16 0 0 0-7 3.3 4 4 0 0 1-2.3.9h-.1c-1.8 0-3.4-1.4-3.9-3.1-1.4-5.2 8-8 11.8-8.9a2 2 0 0 0 1.5-2V44a2 2 0 0 0-1.5-2c-4.4-1-16.2-4.6-10.2-11a3 3 0 0 1 2-1h.3c.9 0 1.8.3 2.4.8 2.1 1.7 4.5 2.9 7.1 3.4 4.9 1 10 1.8 19.9 1.8 10 0 15-.8 19.9-1.8 2.6-.5 5-1.7 7-3.4a4 4 0 0 1 2.5-.8M54 84.3h.2a123 123 0 0 1 19.7 0h.1a2 2 0 0 0 2-2V45.7c0-1-1-2-2-2h-.2a123 123 0 0 1-19.7 0H54a2 2 0 0 0-2 2v36.7c0 1.2 1 2 2 2M93.4 27a7 7 0 0 0-4.3 1.5 13.8 13.8 0 0 1-5.8 2.8A85 85 0 0 1 64 33c-9.7 0-14.5-.8-19.3-1.7-2-.4-4-1.4-5.8-2.8a7 7 0 0 0-4.3-1.5h-.4a6 6 0 0 0-4 2c-2.8 2.9-2.8 5.6-2.3 7.3C29 40 33.4 42.8 41 44.7v38.6c-4.6 1.2-10.2 3.3-12.4 7a6.7 6.7 0 0 0-.8 5.3 7.2 7.2 0 0 0 6.8 5.4h.2a7 7 0 0 0 4.2-1.5c1.7-1.4 3.6-2.3 5.6-2.7 4.9-1 9.7-1.8 19.4-1.8s14.6.8 19.4 1.8c2 .3 4 1.3 5.6 2.6 1.2 1 2.7 1.5 4.2 1.6h.2c3 0 6-2.3 6.8-5.4a7 7 0 0 0-.7-5.3c-2.2-3.7-7.9-5.8-12.5-7V44.7c7.6-1.9 12-4.7 13.1-8.4.5-1.7.6-4.4-2.2-7.4a6 6 0 0 0-4-1.9h-.5zM64 47c3.3 0 6.2 0 9-.3v34.6a137.8 137.8 0 0 0-18 0V46.7c2.8.2 5.7.3 9 .3z" fill="#424242" opacity=".2"/><path d="M84 84V44a2 2 0 0 1 1.5-2c4.4-1 16.3-4.6 10.2-11a3 3 0 0 0-2-1c-1 0-2 .3-2.8.8a17 17 0 0 1-7 3.4A91 91 0 0 1 64 36c-10 0-15-.8-19.9-1.8-2.6-.5-5-1.7-7-3.3a4 4 0 0 0-2.7-.9 3 3 0 0 0-2 1c-6.2 6.4 5.7 10 10 11a2 2 0 0 1 1.6 2v40a2 2 0 0 1-1.5 2c-3.8 1-13.2 3.7-11.8 8.9.5 1.7 2.2 3.2 4 3.1a4 4 0 0 0 2.4-.9 16 16 0 0 1 7-3.3c4.8-1 9.8-1.8 19.9-1.8s15.1.9 20 1.8a16 16 0 0 1 7 3.3 4 4 0 0 0 2.3.9c1.8 0 3.5-1.4 4-3.1 1.4-5.2-8-8-11.8-8.9a2 2 0 0 1-1.5-2zm-32-1.7V45.6c0-1.1 1-2 2.2-2a123 123 0 0 0 19.7 0 2 2 0 0 1 2.1 2v36.8c0 1.1-1 2-2.2 2a123 123 0 0 0-19.7 0 2 2 0 0 1-2.1-2z" fill="#FAFAFA"/></svg>