<svg viewBox="0 0 128 128" xmlns="http://www.w3.org/2000/svg"><linearGradient id="a" x1="64" x2="64" y1="4" y2="123.2" gradientUnits="userSpaceOnUse"><stop stop-color="#7E57C2" offset="0"/><stop stop-color="#7951BF" offset=".3"/><stop stop-color="#6941B7" offset=".8"/><stop stop-color="#5E35B1" offset="1"/></linearGradient><circle cx="64" cy="64" r="60" fill="url(#a)"/><path d="M64 7a57 57 0 1 1-.1 114.1A57 57 0 0 1 64 7m0-3a60 60 0 1 0 0 120A60 60 0 0 0 64 4z" fill="#424242" opacity=".2"/><path d="M51 28.1h.5C60.2 28.5 67 36 67 44.7v28.7c.2 2.6 1 6.7 3 7.4l1.1.4h.2c.2 0 .4-.1.4-.3.2-6.4 3-22.4 18.7-22.5 5.7 0 10 2 13.5 7 7.2 10.4 1.3 28.6-15.6 28.6-2.3 0-4.8-.4-7.5-1.1h-.1c-.2 0-.4.1-.4.4 0 4.2-1.8 7.6-5 9.8a19.4 19.4 0 0 1-11 2.9 37.5 37.5 0 0 1-8.3-1 4 4 0 1 1 1.6-7.8c2.3.5 4.6.8 6.8.8 2.1 0 4-.3 5.5-1 1.7-.7 2.7-1.9 2.3-5l-.1-1.2a1 1 0 0 0-.7-.8l-3.3-1.3-.9-.4c-6.5-2.4-7.9-10.2-8.1-14v-30a8 8 0 0 0-8-8h-.6c-4.3.3-7.5 4-7.5 8.3v37.7a4 4 0 0 1-4 4h-.4C36.6 86 35 84 35 82V44.2a8 8 0 0 0-4-7 4 4 0 0 1 2.1-7.3c.7 0 1.5.2 2.2.6 1.4.8 2.6 1.9 3.7 3.1 3-3.3 7.2-5.4 12-5.4m37.3 57.5c3 0 4.9-.8 6.5-1.6 2.3-1 8.2-7.3 2.7-14-2.2-2.6-4.5-3.9-7.5-3.9h-.3a7.8 7.8 0 0 0-6.5 3.1c-1.8 2.1-3.7 6.3-3.6 14.3 0 .3.3.7.6.8 3.5 1 6 1.3 8.1 1.3M51 25.2a19 19 0 0 0-12 4.2L36.8 28c-1.1-.7-2.4-1-3.7-1a7 7 0 0 0-3.6 13 5 5 0 0 1 2.5 4.3V82a7.1 7.1 0 0 0 7 7.2 7 7 0 0 0 7-7V44.4c0-2.7 2-5 4.6-5.2h.4a5 5 0 0 1 5 5v30.2c.6 8.4 4.3 14.5 10.2 16.6l.6.3h.1l2.3 1c.2 1.5 0 1.6-.6 1.9-1 .4-2.4.6-4.2.6-1.8 0-4-.2-6.2-.7l-1.4-.1a7 7 0 0 0-7 7 7 7 0 0 0 5.5 6.8 46.6 46.6 0 0 0 9 1 22 22 0 0 0 12.6-3.3c3.2-2.2 5.3-5.4 6-9.2 1.9.4 3.6.5 5.3.5 8.4 0 15.4-4 19.1-11a21.7 21.7 0 0 0-1-22.2 18 18 0 0 0-15.8-8.3h-.2c-7.8 0-13.9 3.6-17.7 10.4A28 28 0 0 0 70 72V44.5c0-10.3-8.3-19-18.4-19.4H51zm31.6 56.7c.2-6.5 1.8-9.4 2.9-10.6a5 5 0 0 1 4.3-2.1h.2c2 0 3.5.8 5.2 2.9 1.3 1.6 1.8 3.2 1.4 4.8a7.7 7.7 0 0 1-3.1 4.5c-1.4.6-2.7 1.3-5.2 1.3-1.6 0-3.5-.3-5.7-.8z" fill="#424242" opacity=".2"/><path d="M103.9 65.3a15 15 0 0 0-13.5-7c-15.6 0-18.5 16-18.7 22.4 0 .3-.3.5-.6.4l-1.1-.4c-2-.7-2.9-4.8-3-7.4V44.6c0-8.7-6.8-16.2-15.5-16.4-5-.2-9.4 2-12.5 5.4-1-1.2-2.3-2.3-3.7-3.1a4 4 0 1 0-4.3 6.7 8 8 0 0 1 4 7V82c0 2 1.6 4 3.6 4.1a4 4 0 0 0 4.4-4V44.5a8 8 0 1 1 16-.3v30c.3 3.9 1.7 11.7 8.2 14.1l.9.4 3.3 1.3c.4.1.6.4.7.8l.1 1.3c.4 3-.6 4.1-2.3 4.9-3.1 1.4-8 1-12.3.1a4 4 0 0 0-4.8 4A4 4 0 0 0 56 105a41.2 41.2 0 0 0 8.3 1c3.7 0 7.8-.7 11-2.9s5-5.7 5-9.9c0-.2.2-.4.5-.3 22.5 6.1 31.2-15.7 23-27.5zM94.8 84c-2.7 1.3-5.9 2.7-14.6.3a.9.9 0 0 1-.6-.8c0-8 1.8-12.2 3.6-14.3a8 8 0 0 1 6.5-3.1c3.1 0 5.6 1.2 7.8 4 5.5 6.6-.4 12.8-2.7 14z" fill="#FAFAFA"/></svg>