<svg viewBox="0 0 128 128" xmlns="http://www.w3.org/2000/svg"><linearGradient id="a" x1="64" x2="64" y1="4" y2="123.2" gradientUnits="userSpaceOnUse"><stop stop-color="#AB47BC" offset="0"/><stop stop-color="#A542B9" offset=".3"/><stop stop-color="#9535B0" offset=".6"/><stop stop-color="#7B1FA2" offset="1"/></linearGradient><circle cx="64" cy="64" r="60" fill="url(#a)"/><path d="M64 7a57 57 0 1 1-.1 114.1A57 57 0 0 1 64 7m0-3a60 60 0 1 0 0 120A60 60 0 0 0 64 4z" fill="#424242" opacity=".2"/><g fill="#424242" opacity=".2"><path d="M40 36a4 4 0 0 1 3.4 2l7.7 12.8a1 1 0 0 0 1.8 0L60.5 38a4 4 0 0 1 2.2-1.9L64 36a4 4 0 0 1 3.4 2l7.7 12.8a1 1 0 0 0 1.8 0L84.5 38c.5-.8 1.3-1.5 2.2-1.8L88 36a4 4 0 0 1 3.4 2l12 19.8c1 1.8.7 4.2-1 5.4a4 4 0 0 1-5.8-1.1l-7.7-12.9a1 1 0 0 0-1.8 0l-7.6 12.7a4 4 0 0 1-2.2 1.9L76 64a4 4 0 0 1-3.4-2l-7.7-12.8a1 1 0 0 0-1.8 0l-7.6 12.7a4 4 0 0 1-2.2 1.9L52 64a4 4 0 0 1-3.4-2l-7.7-12.8a1 1 0 0 0-1.8 0l-7.6 12.7c-.8 1.3-2.2 2-3.6 2-.5 0-1 0-1.6-.3a4 4 0 0 1-1.7-5.7l11.9-19.8a4 4 0 0 1 2.2-1.9L40 36m48-3a7.2 7.2 0 0 0-6 3.5l-6 9.9-6-10a7 7 0 0 0-8.2-3 7 7 0 0 0-3.9 3.1L52 46.4l-6-10a7 7 0 0 0-8.2-3 7 7 0 0 0-3.9 3.1L22 56.4a7 7 0 0 0 3 10 7.2 7.2 0 0 0 9.1-2.9l5.9-9.9 6 10a7 7 0 0 0 8.2 3 7 7 0 0 0 3.9-3.1l5.9-9.9 6 10a7 7 0 0 0 8.2 3 7 7 0 0 0 3.9-3.1l5.9-9.9 6 10a7 7 0 0 0 10.2 2 7.1 7.1 0 0 0 1.7-9.3L94 36.4a7 7 0 0 0-6-3.4z"/><path d="M40 64a4 4 0 0 1 3.4 2l7.7 12.8a1 1 0 0 0 1.8 0L60.5 66c.5-.8 1.3-1.5 2.2-1.8L64 64a4 4 0 0 1 3.4 2l7.7 12.8a1 1 0 0 0 1.8 0L84.5 66c.5-.8 1.3-1.5 2.2-1.8L88 64a4 4 0 0 1 3.4 2l12 19.8c1 1.8.7 4.2-1 5.4a4 4 0 0 1-5.8-1.1l-7.7-12.9a1 1 0 0 0-1.8 0l-7.6 12.7a4 4 0 0 1-2.2 1.9L76 92a4 4 0 0 1-3.4-2l-7.7-12.8a1 1 0 0 0-1.8 0l-7.6 12.7a4 4 0 0 1-2.2 1.9L52 92a4 4 0 0 1-3.4-2l-7.7-12.8a1 1 0 0 0-1.8 0l-7.6 12.7c-.8 1.3-2.2 2-3.6 2-.5 0-1 0-1.6-.3a4 4 0 0 1-1.7-5.7l11.9-19.8a4 4 0 0 1 2.2-1.9L40 64m48-3a7.2 7.2 0 0 0-6 3.5l-6 9.9-6-10a7 7 0 0 0-8.2-3 7 7 0 0 0-3.9 3.1L52 74.4l-6-10a7 7 0 0 0-8.2-3 7 7 0 0 0-3.9 3.1L22 84.4a7 7 0 0 0 3 10 7.2 7.2 0 0 0 9.1-2.9l5.9-9.9 6 10a7 7 0 0 0 8.2 3 7 7 0 0 0 3.9-3.1l5.9-9.9 6 10a7 7 0 0 0 8.2 3 7 7 0 0 0 3.9-3.1l5.9-9.9 6 10a7 7 0 0 0 10.2 2 7.1 7.1 0 0 0 1.7-9.4L94 64.4a7 7 0 0 0-6-3.4z"/></g><g fill="#FAFAFA"><path d="M100 64a4 4 0 0 1-3.4-2l-7.7-12.8a1 1 0 0 0-1.8 0l-7.6 12.7a4 4 0 0 1-2.2 1.9 4 4 0 0 1-4.7-1.7l-7.7-12.9a1 1 0 0 0-1.7 0l-7.7 12.7a4 4 0 0 1-2.2 1.9 4 4 0 0 1-4.7-1.7l-7.7-12.9a1 1 0 0 0-1.8 0l-7.6 12.7a4.1 4.1 0 0 1-5.2 1.7 4 4 0 0 1-1.7-5.6l11.9-20a4 4 0 0 1 7-.1L51 50.8a1 1 0 0 0 1.8 0L60.5 38a4 4 0 0 1 2.2-1.9 4 4 0 0 1 4.7 1.7l7.7 12.9a1 1 0 0 0 1.8 0L84.5 38a4 4 0 0 1 7-.1l11.8 19.9c1.1 1.8.8 4.2-1 5.4-.6.6-1.5.8-2.3.8z"/><path d="M100 92a4 4 0 0 1-3.4-2l-7.7-12.8a1 1 0 0 0-1.8 0l-7.6 12.7a4 4 0 0 1-2.2 1.9 4 4 0 0 1-4.7-1.7l-7.7-12.9a1 1 0 0 0-1.7 0l-7.7 12.7a4 4 0 0 1-2.2 1.9 4 4 0 0 1-4.7-1.7l-7.7-12.9a1 1 0 0 0-1.8 0l-7.6 12.7a4.1 4.1 0 0 1-5.2 1.7 4 4 0 0 1-1.7-5.7l11.9-19.8a4 4 0 0 1 2.2-1.9 4 4 0 0 1 4.7 1.7l7.7 12.9a1 1 0 0 0 1.8 0L60.5 66a4 4 0 0 1 7-.1L75 78.8a1 1 0 0 0 1.8 0L84.5 66a4 4 0 0 1 7-.1l11.8 19.9c1.1 1.8.8 4.2-1 5.4-.6.5-1.5.8-2.3.8z"/></g></svg>