<svg viewBox="0 0 128 128" xmlns="http://www.w3.org/2000/svg"><linearGradient id="a" x1="64" x2="64" y1="102.3" y2="24.1" gradientUnits="userSpaceOnUse"><stop stop-color="#E53935" offset=".2"/><stop stop-color="#EF5350" offset=".7"/></linearGradient><path d="M59.5 121.9l-46.2-54a6 6 0 0 1 0-7.8L59.5 6a6 6 0 0 1 9 0l46.2 54a6 6 0 0 1 0 7.8l-46.2 54a6 6 0 0 1-9 0z" fill="url(#a)"/><path d="M64 8c.3 0 1 .2 1.5.7l46.1 54a2 2 0 0 1 0 2.6l-46.1 54c-.5.5-1.2.6-1.5.6s-1 0-1.5-.6l-46.2-54a2 2 0 0 1 0-2.6l46.2-54a2 2 0 0 1 1.5-.6m0-4a6 6 0 0 0-4.5 2l-46.2 54a6 6 0 0 0 0 7.8l46.2 54a6 6 0 0 0 9 0l46.2-54a6 6 0 0 0 0-7.8L68.5 6A6 6 0 0 0 64 4z" fill="#424242" opacity=".2"/></svg>