<svg viewBox="0 0 128 128" xmlns="http://www.w3.org/2000/svg"><linearGradient id="a" x1="31.4" x2="31.4" y1="3.2" y2="114.5" gradientUnits="userSpaceOnUse"><stop stop-color="#43A047" offset="0"/><stop stop-color="#2E7D32" offset="1"/></linearGradient><path d="M54.8 83.7H27.4l9.2-16a1 1 0 0 1 1.4-.4l7.8 5c.9.5 2-.5 1.4-1.4l-13.7-23a4 4 0 0 0-3.5-2H5.4c-1 0-1.5 1.4-.6 2l6.9 4.2c.4.3.6.9.3 1.3L5.3 65.2c-2.6 4.6-.5 9.2-.3 9.4l15.3 30c.4 1.3.8 2.1 1 2.2a14 14 0 0 0 12.5 8.2h21a4 4 0 0 0 4-4V87.7a4 4 0 0 0-4-4z" fill="url(#a)"/><linearGradient id="b" x1="94.9" x2="94.9" y1="3.2" y2="114.5" gradientUnits="userSpaceOnUse"><stop stop-color="#43A047" offset="0"/><stop stop-color="#2E7D32" offset="1"/></linearGradient><path d="M122 63.4l-10.3-18.7A4 4 0 0 0 106 43L87 54.5a4.1 4.1 0 0 0-1.5 5.6l13.7 24.8-18-.3a1 1 0 0 1-1-1l.3-9.5c0-1.1-1.4-1.5-2-.5L66.3 97.3a4.1 4.1 0 0 0 0 4l12.4 22.2c.5.9 1.9.6 1.9-.5l.1-8.1c0-.6.5-1 1-1l13.2.1h.1c5 0 7.8-4.1 7.9-4.3l17.4-28.8 1.4-2a15 15 0 0 0 .4-15.5z" fill="url(#b)"/><linearGradient id="c" x1="65.8" x2="65.8" y1="3.2" y2="114.5" gradientUnits="userSpaceOnUse"><stop stop-color="#43A047" offset="0"/><stop stop-color="#2E7D32" offset="1"/></linearGradient><path d="M99 21.8a1 1 0 0 1-1.5-.3L91 9.7a9.8 9.8 0 0 0-8-4.9l-32.7-.5-2.3-.2c-9-.6-13 7.6-13 7.6L24.9 30.8c-1 2-.3 4.4 1.6 5.5l19.2 11a4 4 0 0 0 5.7-1.6L64.6 21l9.1 16a1 1 0 0 1-.4 1.5l-8 4.8c-1 .5-.5 2 .5 1.9l25.7-1.3a4 4 0 0 0 3.4-2.2L107 19.1c.5-.9-.6-1.9-1.4-1.3l-6.8 4z" fill="url(#c)"/><path d="M30 49c.4 0 .8.1 1 .5l9.4 15.8-.8-.5a4 4 0 0 0-5.6 1.4l-9.2 16-2.6 4.5h32.6c.6 0 1 .5 1 1.1v23c0 .5-.1.8-.2.9s-.4.3-.8.3h-21c-1.1 0-7-.3-9.9-6.4v-.2L7.5 73.3c-.1-.3-1.5-3.5.3-6.6L14.6 55a4 4 0 0 0-1.4-5.4l-.9-.6H30m0-3H5.4c-1 0-1.5 1.4-.6 2l6.9 4.2c.4.3.6.9.3 1.4L5.3 65.2c-2.6 4.6-.5 9.2-.3 9.4l15.3 30c.4 1.3.8 2.1 1 2.3a14 14 0 0 0 12.5 8.1h21a4 4 0 0 0 4-4V87.8a4 4 0 0 0-4-4.1H27.4l9.1-16a1 1 0 0 1 1.5-.4l7.8 4.9.5.2c.8 0 1.3-.9.9-1.6l-13.7-23a4 4 0 0 0-3.5-2zm78.1-.4c.4 0 .8.2 1 .5L119.3 65a12 12 0 0 1-.3 12.4l-.1.2-18.7 30.6c-.2.2-2 3-5.3 3h-.2l-13.1-.3a4 4 0 0 0-4 4v.7l-8.8-15.7a1 1 0 0 1 0-1l8.4-16.3v1a4 4 0 0 0 4 4.1l17.9.3h5.2l-2.6-4.5L88 58.7c-.3-.5-.1-1.2.4-1.5l19-11.4.6-.1m0-3a4 4 0 0 0-2 .5L87 54.5a4.1 4.1 0 0 0-1.5 5.6l13.7 24.8-18-.3a1 1 0 0 1-1-1l.3-9.5c0-.7-.5-1-1-1a1 1 0 0 0-1 .5L66.3 97.3a4.1 4.1 0 0 0 0 4l12.4 22.2c.2.3.5.5.9.5.5 0 1-.4 1-1l.1-8.1c0-.6.5-1 1-1l13.2.1h.2c5 0 7.7-4.1 7.8-4.3l17.4-28.8 1.4-2a15 15 0 0 0 .4-15.5l-10.3-18.7a4 4 0 0 0-3.6-2.1zM47.2 7H83c.3 0 3.5 1.2 5.2 4.2L95 22.9a4 4 0 0 0 5.6 1.5l.5-.3-8.8 16.1a1 1 0 0 1-.8.6l-17.8.9 1.3-.8a4 4 0 0 0 1.4-5.4l-9.1-16.1-2.7-4.8-2.6 4.8-13.2 25a1 1 0 0 1-1.5.4L28 33.8c-.5-.4-.7-1-.4-1.5L37.7 13c.3-.5 3.2-6 9.5-6m0-3.1C38.8 4 35 11.7 35 11.7L25 30.8a4 4 0 0 0 1.6 5.5l19.2 11c.7.4 1.4.6 2 .6a4 4 0 0 0 3.6-2.2L64.6 21l9.1 16a1 1 0 0 1-.4 1.5l-8 4.8c-1 .5-.6 1.9.5 1.9l25.7-1.3a4 4 0 0 0 3.4-2.1L107 19a1 1 0 0 0-1-1.5c-.1 0-.3 0-.5.2l-6.7 4a1 1 0 0 1-1.4-.3L90.9 9.7A12.1 12.1 0 0 0 83 4l-32.7.3-2.2-.3H47z" fill="#424242" opacity=".2"/><linearGradient id="d" x1="25.7" x2="25.7" y1="4.2" y2="125.1" gradientUnits="userSpaceOnUse"><stop stop-color="#8BC34A" offset="0"/><stop stop-color="#689F38" offset="1"/></linearGradient><path d="M30 46H5.4c-1 0-1.5 1.3-.6 1.8l6.9 4.3c.4.3.6.9.3 1.4L5.3 65.2c-2.6 4.6-.5 9.2-.3 9.4L21.1 107s-2.8-6.9.9-13.3l14.4-25.9a1 1 0 0 1 1.5-.4l7.8 5c.9.5 2-.5 1.4-1.4L33.4 48a4 4 0 0 0-3.5-2z" fill="url(#d)"/><linearGradient id="e" x1="93.7" x2="93.7" y1="4.2" y2="125.1" gradientUnits="userSpaceOnUse"><stop stop-color="#8BC34A" offset="0"/><stop stop-color="#689F38" offset="1"/></linearGradient><path d="M110.3 84.8l-29-.2a1 1 0 0 1-1-1l.2-9.5c0-1.1-1.4-1.5-2-.5L66.3 97.3a4.1 4.1 0 0 0 0 4l12.4 22.2c.5.9 1.9.6 1.9-.5l.1-8.1c0-.6.5-1 1-1l13.2.1h.1c5 0 7.8-4.1 7.9-4.3L121.6 79s-5.8 5.8-11.3 5.8z" fill="url(#e)"/><linearGradient id="f" x1="77.6" x2="77.6" y1="4.2" y2="125.1" gradientUnits="userSpaceOnUse"><stop stop-color="#8BC34A" offset="0"/><stop stop-color="#689F38" offset="1"/></linearGradient><path d="M105.7 17.8l-6.8 4a1 1 0 0 1-1.4-.3L91 9.7A12.1 12.1 0 0 0 83 4H48s12 8.2 16.6 17l9 16a1 1 0 0 1-.3 1.5l-8 4.8c-1 .5-.5 2 .5 1.9l25.7-1.3a4 4 0 0 0 3.4-2.2L107 19.1c.5-1-.6-1.9-1.4-1.4z" fill="url(#f)"/><path d="M30 49c.4 0 .8.1 1 .5l9.4 15.8-.8-.5a4 4 0 0 0-5.6 1.4l-14.5 26a10 10 0 0 0-1.2 2.3L7.6 73.3c0-.3-1.5-3.5.3-6.6L14.6 55a4 4 0 0 0-1.4-5.4l-1-.6H30m0-3H5.4c-1 0-1.4 1.4-.6 2l6.9 4.2c.4.3.6.9.3 1.3L5.3 65.2c-2.6 4.6-.4 9.2-.3 9.4l16.2 32.2s-2.8-6.8.9-13.2l14.5-25.9a1 1 0 0 1 1.4-.4l7.8 5 .5.1c.8 0 1.3-.8.9-1.5l-13.7-23a4 4 0 0 0-3.5-2zm47.3 36.5v1a4 4 0 0 0 4 4.1l29 .2c.9 0 1.7 0 2.5-.2L100.3 108c-.2.2-2 3-5.4 3l-13.2-.3a4 4 0 0 0-4 4l-.1.7-8.7-15.8a1 1 0 0 1 0-1l8.4-16.2m2.2-9.5a1 1 0 0 0-1 .6L66.3 97.3a4.1 4.1 0 0 0 0 4l12.4 22.2c.2.3.5.5.9.5.5 0 1-.4 1-1l.1-8.1c0-.6.5-1 1-1l13.2.1h.2c5 0 7.7-4.1 7.8-4.3L121.6 79s-5.8 5.9-11.2 5.9l-29.1-.2a1 1 0 0 1-1-1l.2-9.6c0-.7-.5-1-1-1zM57.2 7h25.6c.7.2 3.8 1.2 5.4 4.2L95 22.9a4 4 0 0 0 5.6 1.5l.5-.3-8.7 16.1a1 1 0 0 1-1 .6l-17.7.9L75 41a4 4 0 0 0 1.4-5.5l-9.1-16A48.2 48.2 0 0 0 56.7 7h.5m0-3h-9.1s12 8.2 16.5 16.9l9.1 16a1 1 0 0 1-.4 1.5l-8 4.8c-1 .5-.6 1.9.5 1.9l25.7-1.3a4 4 0 0 0 3.4-2.2L107 19.1a1 1 0 0 0-1-1.5c-.1 0-.3 0-.5.2l-6.7 4a1 1 0 0 1-1.4-.3L90.9 9.7A12.1 12.1 0 0 0 83 4H57.2z" fill="#424242" opacity=".2"/></svg>