<svg viewBox="0 0 128 128" xmlns="http://www.w3.org/2000/svg"><linearGradient id="a" x1="64" x2="64" y1="4.3" y2="124.4" gradientUnits="userSpaceOnUse"><stop stop-color="#B388FF" offset="0"/><stop stop-color="#A175FF" offset=".4"/><stop stop-color="#7C4DFF" offset="1"/></linearGradient><path d="M116 124H12a8 8 0 0 1-8-8V12a8 8 0 0 1 8-8h104a8 8 0 0 1 8 8v104a8 8 0 0 1-8 8z" fill="url(#a)"/><path d="M116 7a5 5 0 0 1 5 5v104a5 5 0 0 1-5 5H12a5 5 0 0 1-5-5V12a5 5 0 0 1 5-5h104m0-3H12a8 8 0 0 0-8 8v104a8 8 0 0 0 8 8h104a8 8 0 0 0 8-8V12a8 8 0 0 0-8-8z" fill="#424242" opacity=".2"/><path d="M89.3 44.5c12 0 21.7 9.6 21.7 21.5s-9.7 21.5-21.7 21.5C78.6 87.5 71 80.1 64 72c-7 8-14.6 15.5-25.3 15.5a21.5 21.5 0 1 1 0-43c10.7 0 18.5 7.6 25.3 15.4 6.8-7.8 14.6-15.4 25.3-15.4M38.7 79.7c7.7 0 13.9-6.4 20.2-13.8-6.3-7.3-12.4-13.6-20.2-13.6-7.6 0-13.9 6.1-13.9 13.7a14 14 0 0 0 14 13.7m50.5 0c7.6 0 13.9-6.1 13.9-13.7s-6.3-13.7-14-13.7-13.8 6.3-20 13.6c6.3 7.4 12.4 13.8 20 13.8m0-38.2C78.9 41.5 71 47.9 64 55.4c-6.9-7.5-14.8-14-25.3-14a24.6 24.6 0 0 0 0 49c10.9.1 18.8-6.7 25.3-14 6.5 7.3 14.4 14.1 25.3 14.1 13.6 0 24.7-11 24.7-24.5s-11-24.5-24.7-24.5zM38.8 76.7c-6 0-10.9-4.8-10.9-10.7s5-10.7 11-10.7c5.8 0 11 4.8 16.1 10.6-5.2 5.9-10.4 10.8-16.2 10.8zm34.4-10.8c5.1-5.8 10.3-10.6 16.2-10.6 6 0 10.9 4.8 10.9 10.7s-5 10.7-11 10.7c-5.7 0-11-5-16.1-10.8z" fill="#424242" opacity=".2"/><path d="M89.3 87.5C78.6 87.5 71 80.1 64 72c-7 8.2-14.6 15.6-25.3 15.6a21.5 21.5 0 1 1 0-43.1c10.7 0 18.5 7.5 25.3 15.4 6.8-7.8 14.6-15.4 25.3-15.4 12 0 21.7 9.6 21.7 21.5s-9.7 21.5-21.7 21.5zM69 66c6.4 7.4 12.5 13.8 20.2 13.8 7.6 0 13.9-6.2 13.9-13.7 0-7.6-6.3-13.7-14-13.7s-13.8 6.3-20 13.6zM38.7 52.3c-7.6 0-13.9 6.1-13.9 13.7a14 14 0 0 0 14 13.7c7.6 0 13.8-6.4 20-13.8-6.2-7.3-12.3-13.6-20-13.6z" fill="#fff"/></svg>