<svg viewBox="0 0 128 128" xmlns="http://www.w3.org/2000/svg"><linearGradient id="a" x1="64" x2="64" y1="4.3" y2="124.4" gradientUnits="userSpaceOnUse"><stop stop-color="#82B1FF" offset="0"/><stop stop-color="#6FA0FF" offset=".3"/><stop stop-color="#3D74FF" offset=".8"/><stop stop-color="#2962FF" offset="1"/></linearGradient><path d="M116 124H12a8 8 0 0 1-8-8V12a8 8 0 0 1 8-8h104a8 8 0 0 1 8 8v104a8 8 0 0 1-8 8z" fill="url(#a)"/><path d="M116 7a5 5 0 0 1 5 5v104a5 5 0 0 1-5 5H12a5 5 0 0 1-5-5V12a5 5 0 0 1 5-5h104m0-3H12a8 8 0 0 0-8 8v104a8 8 0 0 0 8 8h104a8 8 0 0 0 8-8V12a8 8 0 0 0-8-8z" fill="#424242" opacity=".2"/><g fill="#424242" opacity=".2"><path d="M54 16a10 10 0 1 1 0 20 10 10 0 0 1 0-20m0-3a13 13 0 1 0 0 26 13 13 0 0 0 0-26z"/><path d="M55 40c5 0 9 4 9 9v6c0 .6.5 1 1 1h19.4c2 0 3.6 1.8 3.6 4s-1.6 4-3.6 4H65a1 1 0 0 0-1 1v7c0 1.1.9 2 2 2h16.4a9 9 0 0 1 8.2 5.5l8.5 15.7a4 4 0 0 0 3.7 2.5l4.2.3a5 5 0 0 1 5 4.6 5 5 0 0 1-5 5.4h-.2l-7.8-.4h-.8a7 7 0 0 1-6.5-4.2l-9.4-18.3a2 2 0 0 0-1.8-1.1H53c-5 0-9-4-9-9V49c0-5 4-9 9-9h2m0-3h-2a12 12 0 0 0-12 12v26a12 12 0 0 0 12 12h26.9l9.1 17.7a10 10 0 0 0 10 6l7.7.3h.3a8 8 0 0 0 8-8.6 8 8 0 0 0-7.8-7.4l-4.2-.3h-.1c-.5 0-.9-.2-1-.7l-.1-.2-8.5-15.7a12 12 0 0 0-11-7.1H67v-4h17.4c3.6 0 6.6-3.1 6.6-7s-3-7-6.6-7H67v-4a12 12 0 0 0-12-12z"/><path d="M37.5 52.7c1.3 0 2.5 1.1 2.5 2.6 0 1-.7 2-1.7 2.3a25 25 0 1 0 31.5 31.5c.3-1 1.3-1.7 2.3-1.7 1.7 0 3 1.7 2.4 3.3a30 30 0 1 1-37-38m0-3a5 5 0 0 0-1.7.3 33 33 0 1 0 41.6 41.6 5.5 5.5 0 0 0-10.5-3.4 22 22 0 1 1-27.7-27.7 5.5 5.5 0 0 0-1.7-10.8z"/></g><g fill="#FAFAFA"><circle cx="54" cy="26" r="10"/><path d="M112 102.6a5.1 5.1 0 0 0-5-4.6l-4.2-.3c-1.6 0-3-1-3.7-2.5l-8.4-15.7a9 9 0 0 0-8.3-5.5H66a2 2 0 0 1-2-2v-7c0-.5.5-1 1-1h19.4c2 0 3.6-1.8 3.6-4s-1.6-4-3.6-4H65a1 1 0 0 1-1-1v-6c0-5-4-9-9-9h-2c-5 0-9 4-9 9v26c0 5 4 9 9 9h27.5a2 2 0 0 1 1.8 1l9.4 18.4a7 7 0 0 0 7.3 4.2l7.8.4h.2a5 5 0 0 0 5-5.4z"/><path d="M72.2 87.4c-1.1 0-2 .7-2.4 1.7a25 25 0 1 1-31.5-31.5c1-.3 1.7-1.3 1.7-2.3 0-1.7-1.7-3-3.3-2.4a30 30 0 1 0 37.8 37.8c.6-1.6-.7-3.3-2.4-3.3z"/></g></svg>