<svg viewBox="0 0 128 128" xmlns="http://www.w3.org/2000/svg"><linearGradient id="a" x1="64.1" x2="64.1" y1="123" y2="4.5" gradientUnits="userSpaceOnUse"><stop stop-color="#9E9E9E" offset="0"/><stop stop-color="#ADADAD" offset=".3"/><stop stop-color="#B9B9B9" offset=".6"/><stop stop-color="#BDBDBD" offset="1"/></linearGradient><path d="M123.2 59.7a50 50 0 0 0-1-8.2c-.5-2.1-2-3.4-4.1-3.7l-9-1.1c-.4 0-.5-.2-.6-.5l-.7-1.5.1-.6 5.6-7.3a4.4 4.4 0 0 0 .2-5.5 58 58 0 0 0-7.7-9.4c-2.9-2.9-6-5.6-9.4-7.8-2-1.3-3.8-1.2-5.7.2l-7.2 5.5c-.2.2-.4.3-.7.1l-1.5-.6c-.2 0-.3-.2-.4-.5L80 9.5a4.5 4.5 0 0 0-3.4-3.8 68 68 0 0 0-24.7 0c-2.2.3-3.4 2-3.7 4L47 18.9l-.3.3-1.8.8-.5-.1-7.3-5.7a4.4 4.4 0 0 0-5.4-.2 57.8 57.8 0 0 0-9.4 7.7c-3 3-5.6 6-8 9.5a4.5 4.5 0 0 0 .3 5.6l5.6 7.3c.2.2.2.3 0 .6l-.6 1.6c0 .2-.2.3-.4.4l-5.6.7-4 .5A4.4 4.4 0 0 0 6 51.3c-.5 2.4-.8 4.8-1 7.2V65c0 3.6.2 7.2 1 10.8.5 2.3 1.8 3.6 4.2 3.9l9 1.2c.2 0 .3 0 .4.3l.6 1.5c.2.3.2.6 0 .8-2 2.4-3.8 4.9-5.6 7.3a4.4 4.4 0 0 0-.3 5.4 70.8 70.8 0 0 0 17.3 17.2c1.9 1.3 3.7 1.2 5.5-.2l7.3-5.6h.6l1.7.7.3.3 1 9.4c.3 2 1.7 3.5 3.7 3.9 3.2.6 6.4 1 9.6 1l1 .1h3.2l2.8-.1a70 70 0 0 0 8-1c2-.5 3.3-2 3.5-3.9l1.2-9.4.3-.3 1.8-.8.5.1 7.3 5.6a4.5 4.5 0 0 0 5.5.3 60.8 60.8 0 0 0 17.2-17.2c1.3-2 1.2-3.8-.3-5.6l-5.5-7.2c-.2-.2-.2-.4 0-.7l.6-1.6c0-.2.2-.3.4-.3l9.4-1.2a4.6 4.6 0 0 0 3.8-3.5 70.4 70.4 0 0 0 1-16.5zM64 83a19.4 19.4 0 1 1 0-38.8 19.4 19.4 0 0 1 0 38.9z" fill="url(#a)"/><linearGradient id="b" x1="-93" x2="-93" y1="-73.4" y2="-17.3" gradientUnits="userSpaceOnUse"><stop stop-color="#eee" offset="0"/><stop stop-color="#EAEAEA" offset=".3"/><stop stop-color="#ddd" offset=".6"/><stop stop-color="#C8C8C8" offset=".9"/><stop stop-color="#BDBDBD" offset="1"/></linearGradient><path d="M-42.1-44.7L-48-72.1c-.5-2.2-2.1-3.9-4-3.8h-60.6c-.7 0-2.6 0-4.2 1.7-4.7 5.3-12.5 20.5-13.7 22-.1.2-6.3 2.4-9.1 4-1.2.7-1.8 2.2-2 3.7l-2.4 20.8c-.6 4 1.7 5.7 5.4 5.7h91.5c2.8 0 5.1-.7 5.1-5.7v-19.8l-.1-1.2z" fill="url(#b)"/><path d="M-52-73c.4 0 .9.6 1 1.4a7598 7598 0 0 1 6 28.1v19.8c0 2.8-.5 2.7-2.1 2.7h-91.5c-1.3 0-2-.2-2.3-.5s-.3-1-.1-1.8l2.5-20.9c0-.8.3-1.3.4-1.3 1.9-1.2 5.9-2.7 7.5-3.4 1.5-.5 1.9-.7 2.4-1.3l3-5c2.9-5.1 7.6-13.6 10.7-17 .5-.6 1.2-.8 1.8-.8H-52m0-3h-60.6c-.7 0-2.6 0-4.2 1.8-4.7 5.3-12.5 20.5-13.7 22-.1.2-6.3 2.4-9.1 4-1.1.7-1.8 2.2-2 3.7l-2.4 20.7c-.6 4.1 1.7 5.8 5.4 5.8h91.5c2.8 0 5.1-.7 5.1-5.7v-19.8l-.1-1.2-5.9-27.5c-.5-2.2-2.1-3.8-4-3.8z" fill="#424242" opacity=".2"/><linearGradient id="c" x1="46.4" x2="46.4" y1="-117.5" y2="-61.4" gradientUnits="userSpaceOnUse"><stop stop-color="#616161" offset="0"/><stop stop-color="#5D5D5D" offset=".2"/><stop stop-color="#505050" offset=".5"/><stop stop-color="#3B3B3B" offset=".8"/><stop stop-color="#212121" offset="1"/></linearGradient><path d="M97.3-89l-5.8-27.3c-.5-2.3-2.1-3.8-4-3.8H26.9c-.7 0-2.6 0-4.2 1.7C18-113 10.2-97.8 9-96.3c-.1.2-6.3 2.4-9.1 4-1.2.7-1.8 2.2-2 3.7l-2.4 20.8C-5.1-63.7-2.8-62 .9-62h91.5c2.8 0 5-.8 5-5.8v-21z" fill="url(#c)"/><path d="M87.5-117c.4 0 .9.5 1 1.3a10841.5 10841.5 0 0 1 6 28v19.8c0 2.8-.5 2.8-2.1 2.8H.9c-1.3 0-2-.3-2.3-.5s-.3-1-.2-1.8v-.1L1-88.4c.1-.8.4-1.3.5-1.3C3.3-91 7.2-92.4 8.9-93c1.5-.6 1.9-.8 2.4-1.4l3-5c2.8-5 7.6-13.5 10.6-17 .6-.6 1.3-.7 2-.7h60.6m0-3H26.8a5 5 0 0 0-4 1.8C18-113.1 10.1-98 9-96.3c-.1 0-6.3 2.3-9.1 4-1.2.6-1.8 2.1-2 3.6l-2.4 20.8c-.6 4.1 1.7 5.8 5.4 5.8h91.5c2.8 0 5-.8 5-5.8v-21l-6-27.4c-.4-2.3-2-3.8-3.9-3.8z" fill="#eee" opacity=".2"/><linearGradient id="d" x1="64.1" x2="64.1" y1="123" y2="4.5" gradientUnits="userSpaceOnUse"><stop stop-color="#616161" offset="0"/><stop stop-color="#888" offset=".6"/><stop stop-color="#9E9E9E" offset="1"/></linearGradient><path d="M61.8 4.5h4.9l3.2.2c2.3.2 4.5.5 6.7 1 1.9.4 3.2 2 3.4 3.8l1.2 9.3c0 .3.2.4.4.5l1.5.6c.3.2.5.1.8 0 2.3-2 4.7-3.7 7.1-5.6 1.9-1.4 3.7-1.5 5.7-.2 3.4 2.2 6.5 5 9.4 7.8a58 58 0 0 1 7.7 9.4 4.4 4.4 0 0 1-.2 5.5L108 44c-.2.3-.2.4 0 .7l.6 1.5c0 .3.2.4.5.5l9 1.1c2.2.3 3.7 1.5 4.1 3.7a73.2 73.2 0 0 1 0 24.7c-.4 1.8-2 3.2-3.8 3.4l-9.3 1.2c-.3 0-.4.2-.5.4l-.6 1.6c-.2.2-.1.4 0 .7l5.6 7.1c1.4 2 1.5 3.7.2 5.7a58.1 58.1 0 0 1-7.6 9.2c-3 3-6 5.7-9.5 8a4.5 4.5 0 0 1-5.6-.3l-7.3-5.6-.5-.1-1.8.8-.2.3L80 118a4.5 4.5 0 0 1-3.4 3.8 48.9 48.9 0 0 1-10.8 1.2h-4.3a57 57 0 0 1-9.6-1.1c-2-.5-3.4-2-3.7-3.9l-1.2-9.4-.3-.4-1.6-.7-.7.1-7.2 5.6a4.5 4.5 0 0 1-5.6.2c-3.5-2.2-6.6-5-9.5-7.9a57.7 57.7 0 0 1-7.7-9.3 4.5 4.5 0 0 1 .2-5.5l5.6-7.2c.2-.3.2-.5 0-.8l-.6-1.6c0-.2-.2-.2-.4-.3l-9-1.1c-2.4-.3-3.8-1.6-4.2-4-.8-3.5-1-7-1.1-10.7V63.3c0-1.6 0-3.2.2-4.8.1-2.4.4-4.9 1-7.2a4.4 4.4 0 0 1 3.5-3.4l4-.6 5.6-.7c.3 0 .4-.1.5-.4l.6-1.6V44c-2-2.4-3.8-4.8-5.6-7.2a4.4 4.4 0 0 1-.3-5.6 56 56 0 0 1 8-9.5 58 58 0 0 1 9.3-7.7 4.4 4.4 0 0 1 5.4.2 3579.1 3579.1 0 0 0 7.8 5.7l1.9-.7.2-.3 1.2-9.3a4.5 4.5 0 0 1 3.7-4c2.5-.6 5-.8 7.7-1l2.2-.1zm-5.2 9.4l-1.1 8.8c-.3 2-1.3 3.3-3.1 4-2.2.7-4.2 1.6-6.3 2.5a4 4 0 0 1-4.7-.4l-5-3.9-2.3-1.7a56 56 0 0 0-10.6 10.6l.3.3 5.3 7c1 1.4 1.3 3 .5 4.6a74 74 0 0 0-2.7 6.5 4.2 4.2 0 0 1-3.5 2.9l-8.8 1.1c-.4 0-.5.2-.5.5l-.4 6.4c0 2.6.1 5.2.4 7.7 0 .2 0 .5.4.5 2.8.4 5.6.8 8.4 1a5 5 0 0 1 4.2 3.4c.6 2 1.5 4 2.5 6 .8 1.7.6 3.3-.5 4.8L24 93l-.6.9A59 59 0 0 0 34 104.5c.1-.2.3-.2.4-.3l6.9-5.3c1.4-1 3-1.3 4.6-.6 2.1 1 4.3 2 6.6 2.8 1.6.5 2.5 1.7 2.8 3.4l.8 5.7.4 3.6h.2l2.3.2c4.1.3 8.1.3 12.2-.2.2 0 .3 0 .4-.3l1-8.6c.3-2 1.3-3.3 3.2-4 2.1-.7 4.1-1.5 6-2.5 1.8-.8 3.5-.7 5 .5l5.2 4 2 1.5h.1c3.9-3 7.3-6.5 10.4-10.3v-.5l-5.5-7c-1-1.4-1.3-3-.5-4.6 1-2.1 2-4.4 2.7-6.6a4.2 4.2 0 0 1 3.6-2.8l8.2-1.1c1-.1 1-.1 1-1V70c.4-3.2.5-6.4.3-9.6l-.3-3.9c0-.2 0-.3-.3-.4l-8.8-1.1a4.3 4.3 0 0 1-3.7-3c-.8-2.2-1.7-4.2-2.7-6.3-.8-1.7-.6-3.3.5-4.8l2.8-3.6 2.8-3.6A56 56 0 0 0 94 23.1l-.3.2-7 5.3a4 4 0 0 1-4.4.7l-6.8-2.9a4 4 0 0 1-2.7-3.4l-1-6.8-.3-2.4a60 60 0 0 0-15 0z" fill="url(#d)"/><path d="M64.1 94.4a30.7 30.7 0 1 1 0-61.4 30.7 30.7 0 0 1 0 61.4zm0-50a19.4 19.4 0 1 0 0 38.8 19.4 19.4 0 0 0 0-38.8z" fill="#757575"/><path d="M64.6 7.5c4 0 7.8.4 11.3 1.1.5.1 1 .6 1 1.3l1.3 9.3c.1 1.4 1 2.4 2.3 3 .4 0 .8.2 1.2.4.6.3 1.1.4 1.7.4.8 0 1.5-.2 2.2-.8l5.5-4.2 1.7-1.3 1-.5c.4 0 .7.1 1.1.4 3 2 5.8 4.3 9 7.5a55 55 0 0 1 7.3 8.8c.5.8.5 1.3 0 2l-1.2 1.5-4.5 5.8c-.8 1.1-1 2.5-.4 3.7l.5 1.3a3.6 3.6 0 0 0 3 2.4l4.1.6 5 .6c.9.1 1.3.5 1.5 1.4a68.9 68.9 0 0 1 0 23.4c-.2.6-.6 1-1.3 1l-3.6.5-5.8.8c-1.3.2-2.4 1-2.8 2.3l-.6 1.3c-.6 1.3-.4 2.7.4 3.8l5 6.4.6.8c.6.8.6 1.3 0 2.2a55.6 55.6 0 0 1-7.2 8.7 55.8 55.8 0 0 1-10 8c-.3 0-.7-.2-1.1-.6l-1.3-1-6-4.6c-.6-.4-1.4-.7-2.2-.7-.4 0-.8 0-1.1.2l-2 .9a3.2 3.2 0 0 0-2 2.6l-1.3 9.4c0 .7-.5 1.1-1 1.3-2.8.6-5.6.8-7.7 1h-.7l-1.9.1h-4.1c-3.5-.2-6.4-.5-9-1-.6-.2-1.3-.5-1.4-1.4l-.5-3.5-.8-5.9a3.5 3.5 0 0 0-2-2.7l-1-.4-.6-.3-1.5-.3c-.6 0-1.4.1-2.2.8l-5.4 4.1-1.9 1.4c-.4.4-.8.5-1 .5a55 55 0 0 1-10-7.9 55 55 0 0 1-7.4-8.8c-.5-.8-.5-1.3 0-2l.3-.3 5.3-7c1-1.1 1.1-2.6.4-4l-.5-1.1a3.4 3.4 0 0 0-2.8-2.3l-3.6-.5-5.4-.7c-1.1 0-1.4-.4-1.7-1.5C8.1 71.6 8 68 8 65v-.3l.1-.9V58.7A43 43 0 0 1 9 52c0-.6.5-1 1-1.1l3-.4 1.1-.2 5.5-.7c1.3-.2 2.4-1 2.9-2.3l.5-1.4c.6-1.2.5-2.6-.4-3.7a1887 1887 0 0 1-4-5.3l-1.6-2c-.6-.7-.6-1.2 0-2 1.8-3 4.2-5.9 7.4-9a53.6 53.6 0 0 1 9.8-7.7c.4 0 .7.1 1 .4l7.4 5.7c.6.4 1.4.7 2.2.7.4 0 .8 0 1.1-.2l2-.8a3.5 3.5 0 0 0 2-2.7l.9-6.4.4-2.9c0-.5.3-1.2 1.2-1.4a74 74 0 0 1 12.3-1m-.1-3.2c-4.3 0-8.6.5-12.8 1.2-2.2.3-3.4 2-3.7 4L47 18.8l-.3.3-1.8.8-.5-.1-7.3-5.7c-1-.7-1.9-1-2.9-1-.8 0-1.7.3-2.5.8a57.8 57.8 0 0 0-9.4 7.7c-3 3-5.6 6-7.9 9.5a4.5 4.5 0 0 0 .2 5.6l5.6 7.3c.2.2.2.3 0 .6l-.6 1.6c0 .2-.2.3-.4.4l-5.6.7-4 .5A4.4 4.4 0 0 0 6 51.2c-.5 2.4-.8 4.8-1 7.2v6.7c0 3.6.3 7.1 1 10.7.5 2.4 1.8 3.6 4.2 4l9 1 .4.4.6 1.5c.2.4.2.6 0 .8l-5.6 7.3a4.4 4.4 0 0 0-.3 5.4 70.8 70.8 0 0 0 17.3 17.3 5 5 0 0 0 2.6.8c1 0 2-.3 3-1 2.4-2 4.8-3.8 7.2-5.6l.4-.2h.2l1.7.8.3.3 1 9.4c.3 2 1.7 3.5 3.7 3.9 3.2.7 6.4 1 9.6 1l1 .1h3.2l2.8-.1a70 70 0 0 0 8-1c2-.5 3.3-2 3.5-3.9l1.2-9.4.3-.3a24.2 24.2 0 0 1 2-.8l.3.1 7.3 5.6c1 .8 1.9 1.1 2.9 1.1.9 0 1.7-.3 2.6-.8a60.8 60.8 0 0 0 17.2-17.1c1.3-2 1.2-3.8-.3-5.7l-5.5-7.2c-.2-.2-.2-.4 0-.7l.6-1.6c0-.2.2-.3.4-.3l9.4-1.2a4.6 4.6 0 0 0 3.8-3.5 73.2 73.2 0 0 0 0-24.7c-.5-2.1-1.9-3.4-4-3.6l-9-1.2c-.4 0-.6-.1-.7-.4-.1-.6-.4-1-.6-1.6v-.6l5.7-7.3a4.4 4.4 0 0 0 .2-5.5A58 58 0 0 0 106 22c-2.9-3-6-5.6-9.4-7.9-1-.6-1.9-.9-2.7-.9-1 0-2 .4-3 1.2a1955.7 1955.7 0 0 0-7.6 5.6H83l-1.5-.7c-.2 0-.4-.2-.4-.5l-1.2-9.3a4.5 4.5 0 0 0-3.4-3.8c-3.8-.8-7.8-1.2-11.9-1.2zM64 83.2a19.4 19.4 0 0 1 0-38.9 19.4 19.4 0 0 1 0 38.9z" fill="#424242" opacity=".2"/></svg>