<svg viewBox="0 0 128 128" xmlns="http://www.w3.org/2000/svg"><linearGradient id="a" x1="34.7" x2="34.7" y1="49" y2="105" gradientUnits="userSpaceOnUse"><stop stop-color="#FFB74D" offset="0"/><stop stop-color="#FF9800" offset="1"/></linearGradient><path d="M22.4 79.5c.6 1.4-.6 2.9-2 2.5C14.3 80.8 2.9 76.3 4 62.8c1.4-16.4 21.7-17 27.6-15.8S56.8 52.4 64 83s-15.4 25.3-19.8 23.9c-1-.4-9.3-4.8-8.3-12.3 1.3-9.2 12-9.3 13.4-4.2.8 2.5-2.3 4.2-.6 6.5s5.6-2.4 5.8-7.8c0-5.2-8.2-24.7-23.5-23.7-12.5.8-10.6 9.4-8.6 14.2z" fill="url(#a)"/><linearGradient id="b" x1="64" x2="64" y1="49" y2="105" gradientTransform="matrix(-1 0 0 1 157.3 0)" gradientUnits="userSpaceOnUse"><stop stop-color="#FFB74D" offset="0"/><stop stop-color="#FF9800" offset="1"/></linearGradient><path d="M105.6 79.5c-.6 1.4.6 2.9 2 2.5 6.1-1.3 17.5-5.8 16.3-19.3-1.4-16.4-21.7-17-27.6-15.8S71.2 52.4 64 83s15.4 25.3 19.8 23.9c1-.4 9.3-4.8 8.3-12.3-1.3-9.2-12-9.3-13.4-4.2-.8 2.5 2.3 4.2.6 6.5s-5.6-2.4-5.8-7.8c0-5.2 8.2-24.7 23.5-23.7 12.5.8 10.6 9.4 8.6 14.2z" fill="url(#b)"/><path d="M26.9 49.5c2.3 0 3.7.2 4.2.3 2.7.6 8.5 1.8 14.4 6.5 7.4 5.8 12.7 15 15.5 27.3 2 8.6 1.7 15-1 18.3-1.6 2-4.3 3.1-8 3.1-3.1 0-6-.8-6.8-1-.4-.2-7-3.6-6.3-9 .5-3.7 3-5 5-5 1.2 0 2.3.4 2.5 1.1l-.4 1c-.5 1.2-1.8 3.9.3 6.5a4.3 4.3 0 0 0 3.5 1.8c4.2 0 7.5-6 7.6-11.3.2-6.3-5.4-15.4-9.5-19.6a22 22 0 0 0-17.1-7.2c-5.6.4-9.4 2.2-11.4 5.4-1.8 2.9-2 6.6-.5 10.8C8.4 75.5 6.6 68.5 7 63c.4-4.8 2.7-8.3 7.1-10.6A29 29 0 0 1 27 49.5m0-3c-8.3 0-21.7 3-22.8 16.1C3 76.2 14.4 80.6 20.5 82l.4.1c1.3 0 2.2-1.3 1.6-2.6-2-4.8-4-13.4 8.6-14.2h1c14.7 0 22.6 18.6 22.5 23.7-.2 4.5-2.8 8.4-4.7 8.4-.4 0-.8-.2-1.1-.6-1.8-2.3 1.4-4 .6-6.5-.6-2.2-2.9-3.4-5.4-3.4-3.4 0-7.2 2.3-8 7.6-1 7.5 7.2 12 8.3 12.3 1.4.4 4.4 1.2 7.8 1.2 7.6 0 16.9-4 12-25-7.2-30.6-26.4-34.8-32.3-36-1.1-.3-2.8-.5-4.8-.5z" fill="#424242" opacity=".2"/><path d="M101.1 49.5c2.2 0 8 .3 12.7 2.8 4.4 2.3 6.7 5.8 7.1 10.6.5 5.5-1.3 12.5-11.8 15.7 1.4-4.3 1.3-8-.5-10.9-2-3.2-5.8-5-11.3-5.4h-1.4a22 22 0 0 0-15.8 7.2C76 73.7 70.4 82.8 70.6 89c0 5.3 3.4 11.3 7.6 11.3 1.4 0 2.6-.6 3.5-1.8 2-2.6.8-5.3.2-6.5l-.3-1c.2-.7 1.2-1.2 2.5-1.2 2 0 4.5 1.3 5 5 .7 5.5-5.9 8.9-6.3 9-.8.3-3.7 1.1-6.8 1.1-3.7 0-6.4-1-8-3.1-2.7-3.4-3-9.7-1-18.3a46.9 46.9 0 0 1 15.5-27.3 33.4 33.4 0 0 1 18.6-6.8m0-3c-2 0-3.7.2-4.8.4-5.9 1.3-25.1 5.5-32.2 36C59 104 68.4 108 76 108c3.4 0 6.4-.8 7.8-1.2 1-.4 9.2-4.8 8.2-12.3-.7-5.3-4.5-7.6-8-7.6-2.4 0-4.7 1.3-5.3 3.4-.8 2.5 2.4 4.2.6 6.5-.3.4-.7.6-1.1.6-2 0-4.6-4-4.7-8.4 0-5 7.8-23.8 22.4-23.8H97c12.5.9 10.6 9.5 8.6 14.3-.6 1.3.3 2.6 1.6 2.6h.4c6.1-1.4 17.5-5.9 16.3-19.4-1-13.2-14.5-16.2-22.8-16.2z" fill="#424242" opacity=".2"/><linearGradient id="c" x1="64" x2="64" y1="5.3" y2="120.1" gradientUnits="userSpaceOnUse"><stop stop-color="#FFA726" offset="0"/><stop stop-color="#F57C00" offset="1"/></linearGradient><path d="M80.6 30.6C76 19.7 68 9.2 65.3 4.7c-.6-1-2-1-2.6 0-2.8 4.5-10.8 15.3-15.3 26-3.9 9.3-1.6 24.1 4.8 37.3 3.8 8 5.4 10.1 5.8 17 .3 3.8-.5 7.6-2.4 11-3.6 6.5-4.8 16.3 7.1 27.5a2 2 0 0 0 2.6 0c11.9-11.1 10.7-21 7-27.6-1.8-3.3-2.6-7-2.3-10.8.5-7 2-9.1 5.8-17.1 6.4-13.2 8.7-28 4.8-37.4z" fill="url(#c)"/><path d="M64 8.2l1.1 1.7a132 132 0 0 1 12.7 21.9c3.4 8.2 1.6 21.9-4.7 34.9l-1.5 3.1c-2.8 5.7-4.2 8.5-4.6 15-.3 4.5.7 8.8 2.7 12.6 4.2 7.5 2.3 15.3-5.7 23.2-8-7.9-10-15.7-5.7-23.2 2-3.8 3-8 2.7-12.5-.4-6.6-1.8-9.4-4.6-15l-1.6-3.2c-6.2-13-8-26.7-4.6-35 3.4-8 9-16.4 12.7-21.8L64 8.2M64 4c-.5 0-1 .2-1.3.7-2.8 4.5-10.8 15.3-15.3 26-3.9 9.3-1.6 24.1 4.7 37.3 3.9 8 5.5 10.1 6 17 .2 3.8-.6 7.6-2.5 11-3.6 6.5-4.8 16.3 7.1 27.5.4.3.8.5 1.3.5s1-.2 1.3-.5c11.9-11.1 10.7-21 7-27.6-1.8-3.3-2.6-7-2.3-10.8.4-7 2-9.1 5.8-17.1 6.4-13.2 8.7-28 4.8-37.4C76 19.7 68 9.2 65.3 4.7 65 4.2 64.5 4 64 4z" fill="#424242" opacity=".2"/><path d="M74 88.7H54a4 4 0 0 1-4-4v-1.4a4 4 0 0 1 4-4h20a4 4 0 0 1 4 4v1.4a4 4 0 0 1-4 4z" fill="#FFC400"/><path d="M74 82.3c.6 0 1 .5 1 1v1.4c0 .5-.5 1-1 1H54a1 1 0 0 1-1-1v-1.4c0-.5.5-1 1-1h20m0-3H54a4 4 0 0 0-4 4v1.4a4 4 0 0 0 4 4h20a4 4 0 0 0 4-4v-1.4a4 4 0 0 0-4-4z" fill="#424242" opacity=".2"/></svg>