<svg viewBox="0 0 128 128" xmlns="http://www.w3.org/2000/svg"><path fill="#AB664B" d="M12 18.8l-1.5 15 6.1 39.6 69.4 50V92z"/><linearGradient id="a" x1="29.6" x2="98.9" y1="16" y2="98.7" gradientUnits="userSpaceOnUse"><stop stop-color="#CF8A59" offset="0"/><stop stop-color="#CC8756" offset=".3"/><stop stop-color="#C17D4E" offset=".5"/><stop stop-color="#AF6D41" offset=".7"/><stop stop-color="#96562E" offset=".9"/><stop stop-color="#884924" offset="1"/></linearGradient><path fill="url(#a)" d="M12 18.8l5.2 29.5 68.6 56.2 30.6-12-42-70.2L46.1 8.2z"/><path fill="#230A04" d="M85.8 104.5l30.6-12v19.3L86 123.4z"/><path fill="#6F3A26" d="M16.9 46.4v27l69.1 50-.2-18.9z"/><linearGradient id="b" x1="33.1" x2="94.7" y1="19.3" y2="94.1" gradientUnits="userSpaceOnUse"><stop stop-color="#FFF3E0" offset="0"/><stop stop-color="#FCF0DD" offset=".3"/><stop stop-color="#F2E5D4" offset=".5"/><stop stop-color="#E2D3C6" offset=".7"/><stop stop-color="#CBBAB1" offset=".9"/><stop stop-color="#BCAAA4" offset="1"/></linearGradient><path d="M46.6 15.7L69.4 27l37.3 61-21.3 8.3L23.6 44l-3.1-20 26.1-8.3m.2-2l-28.4 9L21.9 45 85 98.5l24.4-9.5-38.7-63.3-24-12z" fill="url(#b)"/><path d="M26.5 71.3c-2-1.6-1.6-5.3-1.6-5.3l9.3 7.8s-2.4 1.7-7.7-2.5zm42 34.1c-2-1.6-1.5-5.2-1.5-5.2l9.2 7.7s-2.4 1.7-7.7-2.5z" fill="#AB664B"/><path d="M45.9 11.6l26.4 13.2 41 68.7v16.4l-26.8 10.3-67.1-48.4-5.8-38 1.2-12.6 31-9.6m.3-3.3L12.1 19l-1.6 15 6.1 39.6 69.4 50 30.4-11.6V92.7l-42-70.2L46.1 8.3z" fill="#424242" opacity=".2"/></svg>