<svg viewBox="0 0 128 128" xmlns="http://www.w3.org/2000/svg"><path d="M64.1 112c-33 0-59.7 4.8-60 12h120.1c-.4-7.2-27.1-12-60-12z" fill="#CFD8DC"/><radialGradient id="a" cx="63.9" cy="87.4" r="37.3" gradientTransform="matrix(0 1 -1.105 0 160.5 23.5)" gradientUnits="userSpaceOnUse"><stop stop-color="#FAFAFA" offset=".7"/><stop stop-color="#CFD8DC" offset=".9"/></radialGradient><path d="M102.6 81.2c5.1 18.8-.2 42.8-38.6 42.8S20 99.9 25.4 81.2c5.2-18.3 13.6-28 38.6-28s33.6 9.7 38.6 28z" fill="url(#a)"/><path d="M64 56.3c11.5 0 19.4 2 25 6.4 4.8 3.9 8.2 9.8 10.7 19.3 1.6 5.7 4.2 20-5.5 29.6a3 3 0 0 0-.8 3.1 3 3 0 0 0 2.5 2 89.3 89.3 0 0 1 20.2 4.3h-104a88 88 0 0 1 20-4.2 3 3 0 0 0 1.7-5.1C30.5 108.4 23.3 99 28.2 82c4.9-16.7 12-25.7 35.8-25.7m0-3c-25 0-33.4 9.6-38.6 27.9-3.2 11-2.6 23.8 6.3 32.6-16.5 2-27.4 5.6-27.7 10.2h120.2c-.2-4.6-11.3-8.2-28-10.3 8.8-8.7 9.4-21.5 6.4-32.5-5-18.3-13.6-28-38.6-28z" fill="#424242" opacity=".2"/><path d="M85.1 49H43c-2.4 0-4.6 6.6-4.6 9 0 .8.6 2.5 1.6 3.8v23.8a6.5 6.5 0 0 0 13 0V65.7c3 .4 6.6.5 10.7.5 22.6 0 25.6-6 25.6-8.3 0-2.3-1.8-8.9-4.2-8.9z" fill="#F44336"/><path d="M84.5 52c.8 0 1.9 4.4 1.9 6 0 1-4 5.2-22.5 5.2-3.7 0-6.9-.2-10.3-.5h-.3c-.8 0-1.6.3-2.2.8-.6.6-1.1 1.4-1.1 2.2v20c0 1.8-1.6 3.3-3.5 3.3S43 87.5 43 85.6V61.8c0-.7 0-1.4-.4-1.9-.7-.8-1-1.8-1.1-2.1 0-1.5 1.3-4.8 2-5.8H85m.1-3H43c-2.4 0-4.6 6.6-4.6 9 0 .8.6 2.5 1.6 3.8v23.8a6.5 6.5 0 0 0 13 0V65.7c3 .4 6.6.5 10.7.5 22.6 0 25.6-6 25.6-8.3 0-2.3-1.8-8.9-4.2-8.9z" fill="#424242" opacity=".2"/><radialGradient id="b" cx="64.2" cy="59.2" r="30.3" gradientUnits="userSpaceOnUse"><stop stop-color="#fff" offset=".6"/><stop stop-color="#CFD8DC" offset=".8"/></radialGradient><circle cx="63.9" cy="38" r="21.5" fill="url(#b)"/><path d="M64 19.5c10.1 0 18.4 8.3 18.4 18.4 0 5.6 0 10.4-2.1 13.5-2.4 3.4-7.7 5-16.4 5s-14-1.6-16.3-5c-2.1-3-2.1-7.9-2.1-13.4 0-10.2 8.3-18.5 18.4-18.5m0-3C52.1 16.5 42.5 26 42.5 38s0 21.4 21.4 21.4S85.4 49.8 85.4 38 75.8 16.5 64 16.5z" fill="#424242" opacity=".2"/><path d="M83.5 38.8h-39c-1.2 0-2.2-1-2.2-2.2V8a4 4 0 0 1 4-4h35.4a4 4 0 0 1 4 4v28.5c0 1.2-1 2.2-2.2 2.2z" fill="#424242"/><path fill="#F44336" d="M42.3 24.1h43.4V31H42.3z"/><path d="M92.2 39.2H35.8a2 2 0 0 1-2-2v-4.8c0-1.1.9-2 2-2h56.4a2 2 0 0 1 2 2v4.8a2 2 0 0 1-2 2z" fill="#424242"/><circle cx="63.9" cy="80.8" r="4.3" fill="#424242"/><circle cx="54.4" cy="43.5" r="2.7" fill="#424242"/><circle cx="73.5" cy="43.5" r="2.7" fill="#424242"/><circle cx="63.9" cy="47.8" r="3.2" fill="#EF6C00"/><circle cx="63.9" cy="97.9" r="4.3" fill="#424242"/><path d="M54.3 50c2.7 7 16.9 6.9 19.5-.1.5-1.4-1.6-2-2.1-.6-1.8 4.6-13.4 4.7-15.2 0-.5-1.3-2.7-.7-2.2.7z" fill="#424242"/><ellipse transform="rotate(-58.7 33.1 73.4)" cx="33.1" cy="73.4" rx="3.2" ry="1.8" fill="#B0BEC5"/><path d="M16.5 55c3 7.3 8.5 13.8 14.4 19 1.4 1.2 3.6-1 2.1-2.2-5.5-4.7-11-11-13.6-17.5-.7-1.8-3.6-1-2.9.8z" fill="#8D6E63"/><path d="M8.4 52.3c.2-4 2.5-5.8 4-6.2 3-.9 4.9 0 6.8 1.7s2 3.5 2.3 3.5c.3 0-1-2.7.9-3.5 1.4-.5 2.6 1.1 2.9 1.8.7 1.7 1.5 6.7 1 8.1s-7.7 5.9-9.5 5.8c-1.8-.2-8.5-7.3-8.4-11.2z" fill="#43A047"/><path d="M27.6 62l-7.3 4.8c-1 .7-2.6.4-3.3-.7l-.2-.3c-.7-1-.4-2.6.7-3.3l7.2-4.8c1.1-.7 2.6-.4 3.4.7l.2.3c.7 1 .4 2.6-.7 3.3z" fill="#2E7D32"/><ellipse transform="rotate(-31.3 94.9 73.4)" cx="94.9" cy="73.4" rx="1.8" ry="3.2" fill="#B0BEC5"/><path d="M108.6 54.3A50.4 50.4 0 0 1 95 71.8c-1.5 1.3.7 3.4 2.1 2.1a52.5 52.5 0 0 0 14.4-18.8c.7-1.8-2.2-2.6-3-.8z" fill="#8D6E63"/><path d="M119.6 52.3c-.2-4-2.5-5.8-4-6.2-3-.9-4.9 0-6.7 1.7s-2 3.5-2.4 3.5c-.3 0 1-2.7-.9-3.5-1.4-.5-2.6 1.1-2.9 1.8-.7 1.7-1.5 6.7-1 8.1a22 22 0 0 0 9.5 5.8c1.8-.2 8.5-7.3 8.4-11.2z" fill="#43A047"/><path d="M100.4 62l7.3 4.8c1 .7 2.6.4 3.3-.7l.2-.3c.7-1 .4-2.6-.7-3.3l-7.2-4.8a2.4 2.4 0 0 0-3.4.7l-.2.3c-.7 1-.4 2.6.7 3.3z" fill="#2E7D32"/><path d="M14.6 48.7c.7 0 1.4.2 2.5 1.3.8.7 1 1.2 1.3 1.8.3.6 1 2.2 3.1 2.2h.1c.6 0 1.1 0 1.6-.4.2 1.3.3 2.6.2 3.1a3 3 0 0 0 1.6 3.4l-5.3 3.5a3 3 0 0 0-2.2-3 17 17 0 0 1-3.7-3.7c-1.8-2.3-2.4-4-2.4-4.5.1-2.9 1.8-3.4 1.8-3.4l1.4-.3m0-3c-.6 0-1.4.2-2.2.4-1.5.4-3.8 2.3-4 6.2-.1 3.8 6.4 10.8 8.4 11.1a2.6 2.6 0 0 0 3.7 3.3l7-4.6a2.6 2.6 0 0 0-1.2-4.7c.4-1.7-.3-6.2-1-7.8-.2-.6-1.2-1.9-2.3-1.9h-.6c-2 .7-.6 3.3-.9 3.3-.3 0-.5-1.6-2.3-3.3a6.3 6.3 0 0 0-4.6-2zm98.8 3l1.4.3s1.7.5 1.8 3.4c0 .6-.6 2.2-2.4 4.5-1.6 2-3.2 3.3-3.7 3.6a3 3 0 0 0-2.2 3l-5.3-3.4a3 3 0 0 0 1.6-3.3c-.1-.5 0-1.9.2-3.2.5.4 1 .4 1.6.4 2.1 0 3-1.6 3.2-2.2a5 5 0 0 1 1.3-1.8c1.1-1.1 1.8-1.3 2.5-1.3m0-3c-1.8 0-3.2.7-4.6 2-1.8 1.7-2 3.3-2.3 3.3-.3 0 1-2.5-.9-3.3h-.6c-1.1 0-2 1.3-2.3 1.8-.7 1.6-1.4 6.1-1 7.9-.7 0-1.4.5-1.9 1.1-.7 1.2-.4 2.8.8 3.6l7 4.6a2.6 2.6 0 0 0 3.7-3.3c1.9-.3 8.4-7.3 8.3-11.1-.2-4-2.5-5.8-4-6.2-.8-.2-1.6-.4-2.2-.4z" fill="#424242" opacity=".2"/><path d="M81.7 7c.5 0 1.3.6 1.3 1.1v22.3c0 1.7 1 2.6 2.7 2.6H91v3H37v-3h5.3c1.7 0 2.7-1 2.7-2.6V8.1c0-.5.8-1.1 1.3-1.1H82m-.3-3H46.3C44.1 4 42 6 42 8.1V30h-6.2c-1.1 0-1.8 1.3-1.8 2.4v4.8c0 1 .7 1.8 1.8 1.8h56.4c1.1 0 1.8-.7 1.8-1.8v-4.8c0-1.1-.7-2.4-1.8-2.4H86V8.1C86 6 83.9 4 81.7 4z" fill="#eee" opacity=".2"/></svg>