<svg viewBox="0 0 128 128" xmlns="http://www.w3.org/2000/svg"><path d="M80 22.6L89.3 12c.8-1 2.5-.5 2.7.8l2.7 13.9c.1.9 1.1 1.5 2 1.1l13.4-4.6c1.2-.4 2.4.8 2 2l-4.7 13.3c-.3 1 .3 2 1.2 2l13.9 2.8c1.3.2 1.7 1.8.7 2.7l-10.7 9c-.7.6-.7 1.8 0 2.4l10.7 9.2c1 .9.6 2.5-.7 2.7l-14 2.7c-.8.2-1.4 1.1-1 2l4.5 13.4c.5 1.2-.7 2.4-2 2l-13.3-4.7c-.9-.3-1.9.3-2 1.2L92 100a1.6 1.6 0 0 1-2.7.7L80 90c-.6-.7-1.7-.7-2.3 0l-9.3 10.7c-.8 1-2.4.6-2.7-.7l-2.6-14c-.2-1-1.2-1.5-2-1.2l-13.4 4.7c-1.3.4-2.4-.8-2-2L50.3 74c.3-.9-.2-1.8-1.1-2l-14-2.7a1.6 1.6 0 0 1-.7-2.7l10.7-9.2c.7-.7.7-1.8 0-2.4l-10.7-9c-1-.9-.5-2.5.8-2.7l13.9-2.7c.9-.2 1.4-1.2 1.1-2L45.7 25c-.4-1.2.7-2.4 2-2L61 27.7c1 .4 1.9-.2 2-1.1l2.7-14a1.6 1.6 0 0 1 2.7-.7l9.3 10.7c.6.8 1.7.8 2.3 0z" fill="#F9A825"/><path d="M68.1 16.2l7.3 8.4a4.6 4.6 0 0 0 7 0l7.2-8.4 2.1 11a4.6 4.6 0 0 0 6 3.4l10.6-3.7-3.7 10.6a4.6 4.6 0 0 0 3.4 6l11 2-8.4 7.3a4.6 4.6 0 0 0 0 7L119 67l-11 2.1a4.5 4.5 0 0 0-3.4 6l3.7 10.6L97.7 82l-1.5-.3c-2.2 0-4 1.6-4.5 3.7l-2 11-7.4-8.4a4.6 4.6 0 0 0-6.9 0l-7.3 8.4-2-11a4.6 4.6 0 0 0-6-3.4l-10.6 3.7L53.2 75a4.6 4.6 0 0 0-3.5-6l-11-2 8.5-7.4a4.6 4.6 0 0 0 0-6.9l-8.5-7.3 11-2a4.5 4.5 0 0 0 3.5-6l-3.7-10.6L60 30.6l1.5.2c2.2 0 4.1-1.5 4.5-3.7l2.1-11m22.4-4.7c-.5 0-.9.2-1.2.5L80 22.6a1.6 1.6 0 0 1-2.3 0L68.4 12c-.3-.3-.7-.5-1.1-.5-.7 0-1.4.5-1.6 1.3l-2.6 13.9a1.6 1.6 0 0 1-2 1.1l-13.4-4.6H47c-1 0-1.8 1-1.4 2l4.6 13.3c.3 1-.2 1.9-1.2 2l-13.8 2.7a1.6 1.6 0 0 0-.8 2.7l10.7 9.3c.7.6.7 1.7 0 2.4l-10.7 9.2c-1 .9-.5 2.5.8 2.7L49 72.1c1 .2 1.5 1.1 1.2 2l-4.6 13.4a1.6 1.6 0 0 0 2 2L61 84.8h.5c.8 0 1.4.4 1.6 1.2l2.6 13.9a1.6 1.6 0 0 0 2.7.7L77.7 90a1.6 1.6 0 0 1 2.3 0l9.3 10.7a1.5 1.5 0 0 0 2.7-.7l2.7-14a1.6 1.6 0 0 1 2-1.2l13.4 4.7h.5c1 0 1.8-1 1.5-2L107.3 74c-.3-.9.3-1.8 1.2-2l13.9-2.7c1.3-.2 1.7-1.8.7-2.7l-10.7-9.2c-.7-.7-.7-1.8 0-2.4l10.7-9.2c1-.9.6-2.5-.7-2.8l-14-2.6c-.8-.2-1.4-1.2-1-2L112 25a1.6 1.6 0 0 0-2-2l-13.3 4.6-.5.1c-.7 0-1.4-.5-1.5-1.2l-2.7-14c-.1-.7-.8-1.2-1.5-1.2z" fill="#424242" opacity=".2"/><radialGradient id="a" cx="73.5" cy="50.7" r="28" gradientUnits="userSpaceOnUse"><stop stop-color="#FFD54F" offset=".2"/><stop stop-color="#FFC107" offset=".9"/></radialGradient><circle cx="78" cy="57.5" r="28.6" fill="url(#a)"/><radialGradient id="b" cx="47" cy="32.3" r="109.2" gradientUnits="userSpaceOnUse"><stop stop-color="#E3F2FD" offset=".3"/><stop stop-color="#90CAF9" offset=".9"/></radialGradient><path d="M97.1 71.3l-1.8.1a17.6 17.6 0 0 0-27.8-18.7 24 24 0 0 0-45.3 12.6 20.3 20.3 0 0 0 2.1 40.4c3.7 6.4 11 10.8 19.6 10.9 8.2 0 15.4-4 19.3-10a17.2 17.2 0 0 0 28.6-5 15.6 15.6 0 1 0 5.3-30.3z" fill="url(#b)"/><path d="M46.2 42.8A21 21 0 0 1 65 54a3 3 0 0 0 4.5 1c2.6-2.2 5.8-3.3 9-3.3a14.6 14.6 0 0 1 14 18.8 3 3 0 0 0 2.9 3.8h.3l1.5-.1A12.6 12.6 0 1 1 93 98.7a3 3 0 0 0-3.8 1.7 14.2 14.2 0 0 1-23.7 4.2 3 3 0 0 0-2.4-1c-1 .1-1.8.8-2.3 1.6a20 20 0 0 1-16.6 8.8H44c-7.2 0-13.7-3.8-17-9.6a3 3 0 0 0-2.6-1.6 17.3 17.3 0 1 1-1.8-34.5 3 3 0 0 0 2.7-3.1v-1.3a21 21 0 0 1 21-21.1m0-3a24 24 0 0 0-24 25.5A20.3 20.3 0 0 0 4.4 85.4c0 11.1 8.9 20.3 19.9 20.5 3.7 6.4 11 11.1 19.6 11.1h.2c8.1 0 15.2-4.2 19.1-10.2a17.3 17.3 0 0 0 28.6-5.2 15.5 15.5 0 0 0 20.9-14.7 15.6 15.6 0 0 0-17.4-15.5 17.6 17.6 0 0 0-16.9-22.6c-4 0-7.9 1.5-10.9 3.9a24 24 0 0 0-21.3-13z" fill="#424242" opacity=".2"/></svg>