<svg viewBox="0 0 128 128" xmlns="http://www.w3.org/2000/svg" xmlns:xlink="http://www.w3.org/1999/xlink"><linearGradient id="a" x1="64.1" x2="64.1" y1="124" y2="51.3" gradientUnits="userSpaceOnUse"><stop stop-color="#795548" offset="0"/><stop stop-color="#5D4037" offset="1"/></linearGradient><path d="M20.6 59.4l87.4.2V74c0 23.2-17.6 42-39.2 42h-9.4c-21.6 0-39.2-18.8-39.2-41.9l.4-14.7m-7.8-8L12.2 74c0 27.6 21.1 50 47.2 50h9.4c26 0 47.2-22.4 47.2-50V51.7l-103.2-.4z" fill="url(#a)"/><path d="M71.6 124H56.4a8.4 8.4 0 0 1-8.4-8.4v-.6a3 3 0 0 1 3-3h26a3 3 0 0 1 3 3v.6c0 4.6-3.8 8.4-8.4 8.4z" fill="#8D6E63"/><ellipse cx="64.1" cy="63.3" rx="60" ry="16.7" fill="#C62828"/><ellipse cx="64.1" cy="60.3" rx="60" ry="16.7" fill="#E53935"/><defs><path id="c" d="M117.7 53.8A50.9 50.9 0 0 0 65.2 5H63c-39 .8-51.7 31-52.5 49 0 14 107 14 107 0z"/></defs><linearGradient id="b" x1="64.1" x2="64.1" y1="5.8" y2="64.3" gradientUnits="userSpaceOnUse"><stop stop-color="#E53935" offset="0"/><stop stop-color="#C62828" offset="1"/></linearGradient><use fill="url(#b)" xlink:href="#c"/><clipPath id="d"><use xlink:href="#c"/></clipPath><path d="M40.3 8.3L49.9 5v34.8c-2-15-4.8-26-9.6-31.4zm47.7 0L78.3 5v34.8c2-15 4.7-26 9.5-31.4z" clip-path="url(#d)" fill="#C62828"/><linearGradient id="e" x1="64.1" x2="64.1" y1="4.9" y2="58.5" gradientUnits="userSpaceOnUse"><stop stop-color="#E53935" offset="0"/><stop stop-color="#C62828" offset="1"/></linearGradient><path d="M76.2 58.7H52a2.7 2.7 0 0 1-2.7-2.7V6.7C49.3 5.2 50.5 4 52 4h24.2C77.7 4 79 5.2 79 6.7V56c0 1.5-1.2 2.7-2.7 2.7z" fill="url(#e)"/><path d="M56 55.4v-38a3 3 0 0 1 3-3h10a3 3 0 0 1 3 3v38a3 3 0 0 1-3 3H59a3 3 0 0 1-3-3z" fill="#fff"/><ellipse cx="64.1" cy="63.3" rx="60" ry="16.7" fill="#C62828"/><ellipse cx="64.1" cy="60.3" rx="60" ry="16.7" fill="#E53935"/><defs><path id="f" d="M117.7 53.8A50.9 50.9 0 0 0 65.2 5H63c-39 .8-51.7 31-52.5 49 0 14 107 14 107 0z"/></defs><use fill="url(#b)" xlink:href="#f"/><clipPath id="g"><use xlink:href="#f"/></clipPath><path d="M40.3 8.3L49.9 5v34.8c-2-15-4.8-26-9.6-31.4zm47.7 0L78.3 5v34.8c2-15 4.7-26 9.5-31.4z" clip-path="url(#g)" fill="#C62828"/><path d="M76.2 58.7H52a2.7 2.7 0 0 1-2.7-2.7V6.7C49.3 5.2 50.5 4 52 4h24.2C77.7 4 79 5.2 79 6.7V56c0 1.5-1.2 2.7-2.7 2.7z" fill="url(#e)"/><ellipse cx="64.1" cy="63.3" rx="60" ry="16.7" fill="#C62828"/><radialGradient id="h" cx="64.1" cy="59.1" r="43.9" gradientTransform="matrix(1 0 0 1.0613 0 -2.4)" gradientUnits="userSpaceOnUse"><stop stop-color="#EF5350" offset=".3"/><stop stop-color="#E53935" offset="1"/></radialGradient><ellipse cx="64.1" cy="60.3" rx="60" ry="16.7" fill="url(#h)"/><defs><path id="i" d="M117.7 53.8A50.9 50.9 0 0 0 65.2 5H63c-39 .8-51.7 31-52.5 49 0 14 107 14 107 0z"/></defs><use fill="url(#b)" xlink:href="#i"/><clipPath id="j"><use xlink:href="#i"/></clipPath><path d="M40.3 8.3L49.9 5v34.8c-2-15-4.8-26-9.6-31.4zm47.7 0L78.3 5v34.8c2-15 4.7-26 9.5-31.4z" clip-path="url(#j)" fill="#B71C1C"/><path d="M83 29H72V18.4c0-1.7-1.3-3.4-3-3.4H59c-1.7 0-3 1.7-3 3.4V29H45c-1.7 0-3 1.7-3 3.4v10c0 1.6 1.3 2.6 3 2.6h11v11.4c0 1.6 1.3 2.6 3 2.6h10c1.7 0 3-1 3-2.6V45h11c1.7 0 3-1 3-2.6v-10c0-1.7-1.3-3.4-3-3.4z" fill="#fff"/><path d="M69 18v11.4c0 1.6 1.3 2.6 3 2.6h11v10H72c-1.7 0-3 1.7-3 3.4V56H59V45.4c0-1.7-1.3-3.4-3-3.4H45V32h11c1.7 0 3-1 3-2.6V18h10m0-3H59c-1.7 0-3 1.7-3 3.4V29H45c-1.7 0-3 1.7-3 3.4v10c0 1.6 1.3 2.6 3 2.6h11v11.4c0 1.6 1.3 2.6 3 2.6h10c1.7 0 3-1 3-2.6V45h11c1.7 0 3-1 3-2.6v-10c0-1.7-1.3-3.4-3-3.4H72V18.4c0-1.7-1.3-3.4-3-3.4z" fill="#424242" opacity=".2"/><path d="M76 7a3 3 0 0 0 2.2 2.5 45 45 0 0 1 27.5 18.4c5 7.3 8.3 16.4 9 25 0 1.1.5 2 1.4 2.5 3.1 1.7 4.9 3.5 4.9 4.9v3c0 4.8-19.6 13.7-57 13.7S7 68.1 7 63.3v-3c0-1.4 1.9-3.2 5-5a3 3 0 0 0 1.6-2.3c.6-8.7 3.9-17.8 8.9-25A45 45 0 0 1 50 9.4 3 3 0 0 0 52.3 7H76m.2-3H52a2.7 2.7 0 0 0-2.6 2.6 50.6 50.6 0 0 0-38.8 46.2C6.4 55 4 57.6 4 60.3v3C4 72.5 30.9 80 64 80s60-7.5 60-16.7v-3c0-2.7-2.3-5.3-6.5-7.5A50.5 50.5 0 0 0 78.8 6.5 2.7 2.7 0 0 0 76.2 4zm.8 110c.6 0 1 .5 1 1v.6c0 3.5-2.9 6.4-6.4 6.4H56.4a6.4 6.4 0 0 1-6.4-6.4v-.6c0-.6.4-1 1-1h26m0-2H51a3 3 0 0 0-3 3v.6c0 4.6 3.8 8.4 8.4 8.4h15.2c4.6 0 8.4-3.8 8.4-8.4v-.6a3 3 0 0 0-3-3z" fill="#424242" opacity=".2"/></svg>