<svg viewBox="0 0 128 128" xmlns="http://www.w3.org/2000/svg"><linearGradient id="a" x1="-93" x2="-93" y1="-73.4" y2="-17.3" gradientUnits="userSpaceOnUse"><stop stop-color="#eee" offset="0"/><stop stop-color="#EAEAEA" offset=".3"/><stop stop-color="#ddd" offset=".6"/><stop stop-color="#C8C8C8" offset=".9"/><stop stop-color="#BDBDBD" offset="1"/></linearGradient><path d="M-42.1-44.7L-48-72.1c-.5-2.2-2.1-3.9-4-3.8h-60.6c-.7 0-2.6 0-4.2 1.7-4.7 5.3-12.5 20.5-13.7 22-.1.2-6.3 2.4-9.1 4-1.2.7-1.8 2.2-2 3.7l-2.4 20.8c-.6 4 1.7 5.7 5.4 5.7h91.5c2.8 0 5.1-.7 5.1-5.7v-19.8l-.1-1.2z" fill="url(#a)"/><path d="M-52-73c.4 0 .9.6 1 1.4a7598 7598 0 0 1 6 28.1v19.8c0 2.8-.5 2.7-2.1 2.7h-91.5c-1.3 0-2-.2-2.3-.5s-.3-1-.1-1.8l2.5-20.9c0-.8.3-1.3.4-1.3 1.9-1.2 5.9-2.7 7.5-3.4 1.5-.5 1.9-.7 2.4-1.3l3-5c2.9-5.1 7.6-13.6 10.7-17 .5-.6 1.2-.8 1.8-.8H-52m0-3h-60.6c-.7 0-2.6 0-4.2 1.8-4.7 5.3-12.5 20.5-13.7 22-.1.2-6.3 2.4-9.1 4-1.1.7-1.8 2.2-2 3.7l-2.4 20.7c-.6 4.1 1.7 5.8 5.4 5.8h91.5c2.8 0 5.1-.7 5.1-5.7v-19.8l-.1-1.2-5.9-27.5c-.5-2.2-2.1-3.8-4-3.8z" fill="#424242" opacity=".2"/><linearGradient id="b" x1="46.4" x2="46.4" y1="-117.5" y2="-61.4" gradientUnits="userSpaceOnUse"><stop stop-color="#616161" offset="0"/><stop stop-color="#5D5D5D" offset=".2"/><stop stop-color="#505050" offset=".5"/><stop stop-color="#3B3B3B" offset=".8"/><stop stop-color="#212121" offset="1"/></linearGradient><path d="M97.3-89l-5.8-27.3c-.5-2.3-2.1-3.8-4-3.8H26.9c-.7 0-2.6 0-4.2 1.7C18-113 10.2-97.8 9-96.3c-.1.2-6.3 2.4-9.1 4-1.2.7-1.8 2.2-2 3.7l-2.4 20.8C-5.1-63.7-2.8-62 .9-62h91.5c2.8 0 5-.8 5-5.8v-21z" fill="url(#b)"/><path d="M87.5-117c.4 0 .9.5 1 1.3a10841.5 10841.5 0 0 1 6 28v19.8c0 2.8-.5 2.8-2.1 2.8H.9c-1.3 0-2-.3-2.3-.5s-.3-1-.2-1.8v-.1L1-88.4c.1-.8.4-1.3.5-1.3C3.3-91 7.2-92.4 8.9-93c1.5-.6 1.9-.8 2.4-1.4l3-5c2.8-5 7.6-13.5 10.6-17 .6-.6 1.3-.7 2-.7h60.6m0-3H26.8a5 5 0 0 0-4 1.8C18-113.1 10.1-98 9-96.3c-.1 0-6.3 2.3-9.1 4-1.2.6-1.8 2.1-2 3.6l-2.4 20.8c-.6 4.1 1.7 5.8 5.4 5.8h91.5c2.8 0 5-.8 5-5.8v-21l-6-27.4c-.4-2.3-2-3.8-3.9-3.8z" fill="#eee" opacity=".2"/><linearGradient id="c" x1="16" x2="54" y1="17.6" y2="17.6" gradientUnits="userSpaceOnUse"><stop stop-color="#9E9E9E" offset="0"/><stop stop-color="#BDBDBD" offset="1"/></linearGradient><path d="M45 6.7v4.6c0 5.4-4.1 10-9.5 10.3A10 10 0 0 1 25 11.5V6.7c0-1.4-1.2-2.6-2.6-2.6h-3.8A2.6 2.6 0 0 0 16 6.7v4.8C16 22 24.6 31 35.1 31H35c10.5 0 19-9 19-19.5V6.7c0-1.4-1.2-2.6-2.6-2.6h-3.8A2.6 2.6 0 0 0 45 6.7z" fill="url(#c)"/><linearGradient id="d" x1="16" x2="54.3" y1="63.8" y2="63.8" gradientUnits="userSpaceOnUse"><stop stop-color="#9E9E9E" offset="0"/><stop stop-color="#BDBDBD" offset="1"/></linearGradient><path d="M35.1 81.9c-5.6 0-10.1-4.6-10.1-10.2V55.8a10.1 10.1 0 0 1 10-10.1h.1c5.6 0 10.2 4.5 10.2 10.1v16c0 5.5-4.6 10-10.2 10zm0-45.2A19.2 19.2 0 0 0 16 55.8v16a19.2 19.2 0 0 0 38.3 0v-16c0-10.5-8.6-19.1-19.2-19.1z" fill="url(#d)"/><path d="M35.1 38.7c9.5 0 17.2 7.6 17.2 17.1v16a17.2 17.2 0 0 1-34.3 0v-16a17 17 0 0 1 17.1-17.1m0 45.2c6.7 0 12.2-5.5 12.2-12.2V55.8c0-6.7-5.5-12.1-12.2-12.1H35a12.1 12.1 0 0 0-12 12.1v16c0 6.6 5.5 12 12.1 12m0-47.1A19.2 19.2 0 0 0 16 55.8v16a19.2 19.2 0 0 0 38.3 0v-16c0-10.5-8.6-19.1-19.2-19.1zm0 45.2c-5.6 0-10.1-4.6-10.1-10.2V55.8a10.1 10.1 0 0 1 10-10.1h.1c5.6 0 10.2 4.5 10.2 10.1v16c0 5.5-4.6 10-10.2 10z" fill="#424242" opacity=".2"/><linearGradient id="e" x1="16" x2="54" y1="110.5" y2="110.5" gradientUnits="userSpaceOnUse"><stop stop-color="#9E9E9E" offset="0"/><stop stop-color="#BDBDBD" offset="1"/></linearGradient><path d="M25 121.4V116c0-5.4 4.1-10 9.5-10.3A10 10 0 0 1 45 115.9v5.5c0 1.4 1.2 2.6 2.6 2.6h3.8c1.4 0 2.6-1.2 2.6-2.6v-5.5A19 19 0 0 0 35 97a19 19 0 0 0-19 19v5.4c0 1.4 1.2 2.6 2.6 2.6h3.8c1.4 0 2.6-1.2 2.6-2.6z" fill="url(#e)"/><linearGradient id="f" x1="74" x2="112.2" y1="33.8" y2="33.8" gradientUnits="userSpaceOnUse"><stop stop-color="#9E9E9E" offset="0"/><stop stop-color="#BDBDBD" offset="1"/></linearGradient><path d="M93.1 52C87.5 52 83 47.3 83 41.7v-16a10.1 10.1 0 0 1 20.2 0v16a10 10 0 0 1-10.1 10.1zm0-45.3A19.2 19.2 0 0 0 74 26v15.9C74 52.4 82.6 61 93.1 61s19.1-8.6 19.1-19.1v-16a19 19 0 0 0-19.1-19z" fill="url(#f)"/><path d="M93.1 8.7c9.4 0 17.1 7.7 17.1 17.2v15.9a17.2 17.2 0 0 1-34.2 0v-16a17 17 0 0 1 17.1-17m0 45.1a12 12 0 0 0 12.1-12.1v-16a12.2 12.2 0 0 0-24.2 0v16a12 12 0 0 0 12.1 12.1m0-47.2A19.2 19.2 0 0 0 74 26v15.9C74 52.4 82.6 61 93.1 61s19.1-8.6 19.1-19.1v-16a19 19 0 0 0-19.1-19zm0 45.2A10 10 0 0 1 83 41.8v-16a10.1 10.1 0 0 1 20.2 0v16a10 10 0 0 1-10.1 10.1z" fill="#424242" opacity=".2"/><linearGradient id="g" x1="74" x2="112.2" y1="94.1" y2="94.1" gradientUnits="userSpaceOnUse"><stop stop-color="#9E9E9E" offset="0"/><stop stop-color="#BDBDBD" offset="1"/></linearGradient><path d="M93.1 112.2c-5.6 0-10.1-4.6-10.1-10.2V86.1a10.1 10.1 0 0 1 20.3 0v16c0 5.5-4.6 10-10.2 10zm0-45.2A19.2 19.2 0 0 0 74 86v16a19 19 0 0 0 38.2 0V86c0-10.5-8.6-19.1-19.1-19.1z" fill="url(#g)"/><path d="M93.1 69a17 17 0 0 1 17.1 17.1v16a17.2 17.2 0 0 1-34.2 0V86a17 17 0 0 1 17-17m0 45.2c6.7 0 12.1-5.5 12.1-12.2V86.1a12.2 12.2 0 0 0-24.2 0v16a12 12 0 0 0 12.1 12M93 67a19.2 19.2 0 0 0-19 19v16a19 19 0 0 0 38.2 0V86c0-10.5-8.6-19.1-19.1-19.1zm0 45.2c-5.6 0-10.1-4.6-10.1-10.2V86.1a10.1 10.1 0 0 1 20.3 0v16c0 5.5-4.6 10-10.2 10z" fill="#424242" opacity=".2"/><linearGradient id="h" x1="73.1" x2="98.4" y1="13.1" y2="13.1" gradientUnits="userSpaceOnUse"><stop stop-color="#9E9E9E" offset="0"/><stop stop-color="#BDBDBD" offset="1"/></linearGradient><path d="M89 6.7v11.1c0 2.3 1.8 4.2 4 4.2 2.3 0 4-1.9 4-4.2v-11C97 5.2 95.8 4 94.4 4h-2.8A2.6 2.6 0 0 0 89 6.7z" fill="url(#h)"/><linearGradient id="i" x1="72.2" x2="98.8" y1="64" y2="64" gradientUnits="userSpaceOnUse"><stop stop-color="#9E9E9E" offset="0"/><stop stop-color="#BDBDBD" offset="1"/></linearGradient><path d="M93.1 81.4a4.2 4.2 0 0 1-4.2-4.2V50.8c0-2.3 1.9-4.2 4.2-4.2s4.2 1.9 4.2 4.2v26.4c0 2.3-1.9 4.2-4.2 4.2z" fill="url(#i)"/><linearGradient id="j" x1="73.1" x2="98.4" y1="115.5" y2="115.5" gradientUnits="userSpaceOnUse"><stop stop-color="#9E9E9E" offset="0"/><stop stop-color="#BDBDBD" offset="1"/></linearGradient><path d="M97 121.4v-10.2c0-2.2-1.8-4.2-4-4.2-2.3 0-4 2-4 4.2v10.2c0 1.4 1.2 2.6 2.6 2.6h2.8c1.4 0 2.6-1.2 2.6-2.6z" fill="url(#j)"/><path d="M51.4 6.1c.3 0 .6.3.6.6v4.8C52 21 44.4 29 35 29c-9.2 0-17-8-17-17.5V6.7c0-.3.3-.6.6-.6h3.8c.3 0 .6.3.6.6v4.8a12 12 0 0 0 12 12.1h.6A12 12 0 0 0 47 11.3V6.7c0-.3.3-.6.6-.6h3.8m0-2h-3.8A2.6 2.6 0 0 0 45 6.7v4.6c0 5.4-4.1 10-9.5 10.3H35a10 10 0 0 1-10-10.1V6.7c0-1.4-1.2-2.6-2.6-2.6h-3.8A2.6 2.6 0 0 0 16 6.7v4.8C16 22 24.6 31 35 31c10.6 0 19-9 19-19.5V6.7c0-1.4-1.2-2.6-2.6-2.6zM35 31h.1zm0 68a17 17 0 0 1 17 17v5.4c0 .3-.3.6-.6.6h-3.8a.6.6 0 0 1-.6-.6v-5.5a12 12 0 0 0-12-12.1h-.6c-6.4.3-11.4 5.7-11.4 12.3v5.3c0 .3-.3.6-.6.6h-3.8a.6.6 0 0 1-.6-.6v-5.5A17 17 0 0 1 35 99m0-2zm0 0zm0 0a19 19 0 0 0-19 19v5.4c0 1.4 1.2 2.6 2.6 2.6h3.8c1.4 0 2.6-1.2 2.6-2.6V116c0-5.4 4.1-10 9.5-10.3h.5a10 10 0 0 1 10 10.1v5.5c0 1.4 1.2 2.6 2.6 2.6h3.8c1.4 0 2.6-1.2 2.6-2.6v-5.5C54 105.4 45.5 97 35 97z" fill="#424242" opacity=".2"/><linearGradient id="k" x1="14.3" x2="40.8" y1="33.7" y2="33.7" gradientUnits="userSpaceOnUse"><stop stop-color="#9E9E9E" offset="0"/><stop stop-color="#BDBDBD" offset="1"/></linearGradient><path d="M35.1 51.1A4.2 4.2 0 0 1 31 47V20.5c0-2.3 2-4.2 4.2-4.2s4.2 1.9 4.2 4.2v26.4c0 2.3-1.8 4.2-4.2 4.2z" fill="url(#k)"/><path d="M94.4 6.1c.3 0 .6.3.6.6v11.1c0 1.3-.9 2.2-2 2.2-1 0-2-1-2-2.2v-11c0-.4.3-.7.6-.7h2.8m0-2h-2.8A2.6 2.6 0 0 0 89 6.7v11.1c0 2.3 1.8 4.2 4 4.2 2.3 0 4-1.9 4-4.2v-11C97 5.2 95.8 4 94.4 4z" fill="#424242" opacity=".2"/><linearGradient id="l" x1="14.3" x2="40.8" y1="93.9" y2="93.9" gradientUnits="userSpaceOnUse"><stop stop-color="#9E9E9E" offset="0"/><stop stop-color="#BDBDBD" offset="1"/></linearGradient><path d="M35.1 111.4a4.2 4.2 0 0 1-4.2-4.2V80.7c0-2.3 2-4.2 4.2-4.2s4.2 1.9 4.2 4.2v26.5c0 2.3-1.8 4.2-4.2 4.2z" fill="url(#l)"/><path d="M93.1 48.6c1.2 0 2.2 1 2.2 2.2v26.4c0 1.3-1 2.2-2.2 2.2s-2.2-1-2.2-2.2V50.8c0-1.2 1-2.2 2.2-2.2m0-2a4.2 4.2 0 0 0-4.2 4.2v26.4c0 2.4 1.9 4.2 4.2 4.2s4.2-1.8 4.2-4.2V50.8c0-2.3-1.9-4.2-4.2-4.2zM93 109c1 0 2 1 2 2.2v10.2c0 .3-.3.6-.6.6h-2.8a.6.6 0 0 1-.6-.6v-10.2c0-1.2.9-2.2 2-2.2m0-2c-2.3 0-4 2-4 4.2v10.2c0 1.4 1.2 2.6 2.6 2.6h2.8c1.4 0 2.6-1.2 2.6-2.6v-10.2c0-2.2-1.8-4.2-4-4.2z" fill="#424242" opacity=".2"/><linearGradient id="m" x1="-144.1" x2="-105.8" y1="73.7" y2="73.7" gradientUnits="userSpaceOnUse"><stop stop-color="#9E9E9E" offset="0"/><stop stop-color="#E0E0E0" offset="1"/></linearGradient><path d="M-125 55.6c5.6 0 10.2 4.5 10.2 10.1v16a10.2 10.2 0 0 1-20.3 0v-16A10 10 0 0 1-125 55.6m0-9a19.2 19.2 0 0 0-19 19.1v16c0 10.5 8.5 19 19 19s19.2-8.5 19.2-19v-16c0-10.5-8.6-19.1-19.2-19.1z" fill="url(#m)"/><linearGradient id="n" x1="-144.1" x2="-105.8" y1="133.9" y2="133.9" gradientUnits="userSpaceOnUse"><stop stop-color="#9E9E9E" offset="0"/><stop stop-color="#E0E0E0" offset="1"/></linearGradient><path d="M-125 115.8c5.6 0 10.2 4.6 10.2 10.2v15.9a10.2 10.2 0 0 1-20.3 0v-16a10 10 0 0 1 10.1-10m0-9a19.2 19.2 0 0 0-19 19v16a19 19 0 1 0 38.2 0v-16c0-10.5-8.6-19-19.2-19z" fill="url(#n)"/><linearGradient id="o" x1="-144.1" x2="-105.8" y1="194" y2="194" gradientUnits="userSpaceOnUse"><stop stop-color="#9E9E9E" offset="0"/><stop stop-color="#E0E0E0" offset="1"/></linearGradient><path d="M-125 176c5.6 0 10.2 4.5 10.2 10v16a10.2 10.2 0 0 1-20.3 0v-16a10 10 0 0 1 10.1-10m0-9a19.2 19.2 0 0 0-19 19v16a19 19 0 1 0 38.2 0v-16c0-10.5-8.6-19-19.2-19z" fill="url(#o)"/><linearGradient id="p" x1="-145.8" x2="-119.3" y1="103.8" y2="103.8" gradientUnits="userSpaceOnUse"><stop stop-color="#9E9E9E" offset="0"/><stop stop-color="#E0E0E0" offset="1"/></linearGradient><path d="M-125 121.3a4.2 4.2 0 0 1-4.2-4.2V90.6c0-2.3 2-4.2 4.2-4.2s4.2 1.9 4.2 4.2v26.5c0 2.3-1.9 4.2-4.2 4.2z" fill="url(#p)"/><linearGradient id="q" x1="-145.8" x2="-119.3" y1="164.1" y2="164.1" gradientUnits="userSpaceOnUse"><stop stop-color="#9E9E9E" offset="0"/><stop stop-color="#E0E0E0" offset="1"/></linearGradient><path d="M-125 181.5a4.2 4.2 0 0 1-4.2-4.2v-26.5c0-2.3 2-4.2 4.2-4.2s4.2 2 4.2 4.2v26.5c0 2.3-1.9 4.2-4.2 4.2z" fill="url(#q)"/><path d="M35.1 78.5c1.2 0 2.2 1 2.2 2.2v26.5c0 1.2-1 2.2-2.2 2.2s-2.2-1-2.2-2.2V80.7c0-1.2 1-2.2 2.2-2.2m0-2a4.2 4.2 0 0 0-4.2 4.2v26.5c0 2.3 2 4.2 4.2 4.2s4.2-2 4.2-4.2V80.7c0-2.3-1.8-4.2-4.2-4.2zm0-58.2c1.2 0 2.2 1 2.2 2.2v26.4c0 1.2-1 2.2-2.2 2.2S33 48.1 33 47V20.5c0-1.3 1-2.2 2.2-2.2m0-2a4.2 4.2 0 0 0-4.2 4.2v26.4c0 2.3 2 4.2 4.2 4.2s4.2-1.9 4.2-4.2V20.5c0-2.3-1.8-4.2-4.2-4.2z" fill="#424242" opacity=".2"/><linearGradient id="r" x1="-86.1" x2="-47.9" y1="104" y2="104" gradientUnits="userSpaceOnUse"><stop stop-color="#9E9E9E" offset="0"/><stop stop-color="#E0E0E0" offset="1"/></linearGradient><path d="M-67 85.9A10 10 0 0 1-56.9 96v16a10.2 10.2 0 0 1-20.2 0V96A10 10 0 0 1-67 85.9m0-9A19.2 19.2 0 0 0-86.1 96v16a19 19 0 0 0 38.2 0V96A19 19 0 0 0-67 77z" fill="url(#r)"/><linearGradient id="s" x1="-86.1" x2="-47.9" y1="164.2" y2="164.2" gradientUnits="userSpaceOnUse"><stop stop-color="#9E9E9E" offset="0"/><stop stop-color="#E0E0E0" offset="1"/></linearGradient><path d="M-67 146.1c5.6 0 10.1 4.6 10.1 10.2v15.9a10.2 10.2 0 0 1-20.2 0v-16a10 10 0 0 1 10.1-10m0-9a19.2 19.2 0 0 0-19.1 19v16c0 10.5 8.6 19.1 19.1 19.1s19.1-8.6 19.1-19.1v-16a19 19 0 0 0-19.1-19z" fill="url(#s)"/><linearGradient id="t" x1="-87.9" x2="-61.3" y1="74.7" y2="74.7" gradientUnits="userSpaceOnUse"><stop stop-color="#9E9E9E" offset="0"/><stop stop-color="#E0E0E0" offset="1"/></linearGradient><path d="M-67 92.2a4.2 4.2 0 0 1-4.2-4.2V61.5c0-2.3 1.9-4.2 4.2-4.2s4.2 1.9 4.2 4.2V88c0 2.3-1.9 4.2-4.2 4.2z" fill="url(#t)"/><linearGradient id="u" x1="-87.9" x2="-61.3" y1="134.1" y2="134.1" gradientUnits="userSpaceOnUse"><stop stop-color="#9E9E9E" offset="0"/><stop stop-color="#E0E0E0" offset="1"/></linearGradient><path d="M-67 151.6a4.2 4.2 0 0 1-4.2-4.2v-26.5c0-2.3 1.9-4.2 4.2-4.2s4.2 1.9 4.2 4.2v26.5c0 2.3-1.9 4.2-4.2 4.2z" fill="url(#u)"/><linearGradient id="v" x1="-87.9" x2="-61.3" y1="194.6" y2="194.6" gradientUnits="userSpaceOnUse"><stop stop-color="#9E9E9E" offset="0"/><stop stop-color="#E0E0E0" offset="1"/></linearGradient><path d="M-67 212a4.2 4.2 0 0 1-4.2-4.2v-26.4c0-2.3 1.9-4.2 4.2-4.2s4.2 1.9 4.2 4.2v26.4c0 2.3-1.9 4.2-4.2 4.2z" fill="url(#v)"/></svg>