<svg viewBox="0 0 128 128" xmlns="http://www.w3.org/2000/svg" xmlns:xlink="http://www.w3.org/1999/xlink"><path fill="#B71C1C" d="M120 76H8l12-40h88z"/><path d="M105.8 39L116 73H12l10.2-34h83.6m2.2-3H20L8 76h112l-12-40z" fill="#424242" opacity=".2"/><radialGradient id="a" cx="22.3" cy="11.1" r="21.5" gradientTransform="scale(1 .9997)" gradientUnits="userSpaceOnUse"><stop stop-color="#E53935" offset="0"/><stop stop-color="#DD3431" offset=".2"/><stop stop-color="#C82625" offset=".5"/><stop stop-color="#B71C1C" offset=".7"/><stop stop-color="#B71C1C" offset="1"/></radialGradient><path d="M27.6 17h-2.5v-3.6c0-1.1-.9-2-2-2s-2 .9-2 2v3.5h-2.5c-1 0-2 1-2 2s1 2 2 2h2.5V30c0 1.1 1 2 2 2s2-.9 2-2v-9h2.5c1.1 0 2-1 2-2s-.9-2-2-2z" fill="url(#a)"/><radialGradient id="b" cx="104.2" cy="11.1" r="21.5" gradientTransform="scale(1 .9997)" gradientUnits="userSpaceOnUse"><stop stop-color="#E53935" offset="0"/><stop stop-color="#DD3431" offset=".2"/><stop stop-color="#C82625" offset=".5"/><stop stop-color="#B71C1C" offset=".7"/><stop stop-color="#B71C1C" offset="1"/></radialGradient><path d="M109.5 17H107v-3.6c0-1.1-1-2-2-2s-2 .9-2 2v3.5h-2.5c-1.1 0-2 1-2 2s.9 2 2 2h2.5V30c0 1.1.9 2 2 2s2-.9 2-2v-9h2.5c1 0 2-1 2-2s-.9-2-2-2z" fill="url(#b)"/><radialGradient id="c" cx="64.5" cy="7.7" r="118.6" gradientTransform="matrix(0 .9997 -.6157 0 69.2 -56.7)" gradientUnits="userSpaceOnUse"><stop stop-color="#eee" offset="0"/><stop stop-color="#eee" offset=".5"/><stop stop-color="#E4E4E4" offset=".6"/><stop stop-color="#C9C9C9" offset=".9"/><stop stop-color="#BDBDBD" offset="1"/></radialGradient><path fill="url(#c)" d="M64 8L36 60v64h56V60z"/><radialGradient id="d" cx="63.6" cy="1.5" r="64.9" gradientTransform="scale(1 .9997)" gradientUnits="userSpaceOnUse"><stop stop-color="#EF5350" offset="0"/><stop stop-color="#E04341" offset=".3"/><stop stop-color="#C62828" offset=".6"/><stop stop-color="#C62828" offset="1"/></radialGradient><path d="M94.2 66.7a3 3 0 0 1-2.6-1.5L64.6 15a1 1 0 0 0-1.8 0L36.4 64.2a3 3 0 1 1-5.3-2.9l30-55.7a3 3 0 0 1 5.3 0l30.5 56.7a3 3 0 0 1-2.7 4.4z" fill="url(#d)"/><linearGradient id="e" x1="100" x2="71.3" y1="64" y2="64" gradientUnits="userSpaceOnUse"><stop stop-color="#757575" offset="0"/><stop stop-color="#757575" stop-opacity="0" offset="1"/></linearGradient><path d="M96.9 62.3L66.4 5.6A3 3 0 0 0 64 4v120h28V65.7a3 3 0 0 0 2.2 1c.5 0 1 0 1.4-.3a3 3 0 0 0 1.3-4z" fill="url(#e)" opacity=".5"/><linearGradient id="f" x1="24" x2="52.7" y1="64" y2="64" gradientUnits="userSpaceOnUse"><stop stop-color="#757575" offset="0"/><stop stop-color="#757575" stop-opacity="0" offset="1"/></linearGradient><path d="M63.7 4a3 3 0 0 0-2.6 1.6L31 61.3a3 3 0 0 0 4.9 3.4V124H64V4a3 3 0 0 0-.4 0z" fill="url(#f)" opacity=".5"/><path d="M46.6 38.8L63.7 7l17.1 31.8h3.4L66.4 5.6a3 3 0 0 0-5.3 0L43.2 38.8h3.4zM89 120.7v.3H39v-.3h-3v3.3h56v-3.3z" fill="#424242" opacity=".2"/><path d="M90.7 106.3h-6.4a1 1 0 0 1-1-1v-2.9c0-.6.5-1 1-1h6.4c.5 0 .9.4.9 1v2.9c0 .6-.4 1-1 1zm-47 13.5h-4.9c-.4 0-.7-.4-.7-.8v-2.3c0-.5.3-.9.7-.9h4.9c.4 0 .7.4.7.9v2.3c0 .4-.3.8-.7.8zm10.2-27.4h-5c-.3 0-.7-.3-.7-.8v-2.3c0-.4.4-.8.8-.8h4.9c.4 0 .7.4.7.8v2.3c0 .5-.3.8-.7.8z" fill="#BDBDBD" opacity=".5"/><path d="M46.1 113.7h-8.3c-.7 0-1.3-.5-1.3-1v-3c0-.6.6-1.1 1.3-1.1H46c.7 0 1.3.5 1.3 1v3c0 .6-.6 1.1-1.3 1.1zm39.2-13.5h-6.8c-.8 0-1.5-.7-1.5-1.5v-2.2c0-.8.7-1.5 1.5-1.5h6.8c.8 0 1.5.7 1.5 1.5v2.2c0 .8-.7 1.5-1.5 1.5zm-5.8 17h-6.7c-.9 0-1.5-.6-1.5-1.4v-2.3c0-.8.6-1.4 1.5-1.4h6.7c.9 0 1.5.7 1.5 1.4v2.3c0 .8-.6 1.4-1.5 1.4zM51.7 86.4h-6.8c-.8 0-1.5-.7-1.5-1.4v-2.3c0-.8.7-1.4 1.5-1.4h6.8c.8 0 1.5.6 1.5 1.4V85c0 .7-.7 1.4-1.5 1.4z" fill="#BDBDBD" opacity=".2"/><radialGradient id="g" cx="22.8" cy="31.1" r="99.2" gradientTransform="matrix(0 .9997 -.3938 0 35 8.4)" gradientUnits="userSpaceOnUse"><stop stop-color="#eee" offset="0"/><stop stop-color="#eee" offset=".5"/><stop stop-color="#E8E8E8" offset=".6"/><stop stop-color="#D8D8D8" offset=".8"/><stop stop-color="#BDBDBD" offset="1"/></radialGradient><path fill="url(#g)" d="M23 31L7 75v49h32V75z"/><radialGradient id="h" cx="22.6" cy="28" r="49" gradientTransform="scale(1 .9997)" gradientUnits="userSpaceOnUse"><stop stop-color="#EF5350" offset="0"/><stop stop-color="#E04341" offset=".4"/><stop stop-color="#C62828" offset="1"/></radialGradient><path d="M39 78a3 3 0 0 1-2.9-2L24 42.4a1 1 0 0 0-1.9 0L9.8 76a3 3 0 0 1-4 1.8 3.2 3.2 0 0 1-1.6-4l16-43.8a3 3 0 0 1 5.6 0l16 43.8c.5 1.6-.2 3.3-1.7 4a3 3 0 0 1-1.1.2z" fill="url(#h)"/><radialGradient id="i" cx="104.9" cy="31.1" r="99.2" gradientTransform="matrix(0 .9997 -.3938 0 117.1 -73.7)" gradientUnits="userSpaceOnUse"><stop stop-color="#eee" offset="0"/><stop stop-color="#eee" offset=".5"/><stop stop-color="#E8E8E8" offset=".6"/><stop stop-color="#D8D8D8" offset=".8"/><stop stop-color="#BDBDBD" offset="1"/></radialGradient><path fill="url(#i)" d="M105 31L89 75v49h32V75z"/><radialGradient id="j" cx="104.7" cy="28" r="49" gradientTransform="scale(1 .9997)" gradientUnits="userSpaceOnUse"><stop stop-color="#EF5350" offset="0"/><stop stop-color="#E04341" offset=".4"/><stop stop-color="#C62828" offset="1"/></radialGradient><path d="M121 78a3 3 0 0 1-2.8-2L106 42.4a1 1 0 0 0-2 0L92 76a3 3 0 0 1-4 1.8 3.2 3.2 0 0 1-1.6-4l16-43.8c.4-1.2 1.5-2 2.7-2s2.4.8 2.9 2l16 43.8c.5 1.6-.2 3.4-1.7 4l-1.2.2z" fill="url(#j)"/><path d="M23 31l16 43.9v.1h-3v46H10V75H7v-.2L23 31m0-3a3 3 0 0 0-2.9 2L4.2 73.8a3 3 0 0 0 1.6 4L7 78v46h32V78c.3 0 .7 0 1.1-.2a3.1 3.1 0 0 0 1.6-4L25.7 30a3 3 0 0 0-2.7-2zm82 3l16 43.9v.1h-3v46H92V75h-3v-.1L105 31m0-3a3 3 0 0 0-2.8 2l-16 43.8c-.5 1.5.2 3.3 1.6 4l1.2.2v46h32V78c.4 0 .8 0 1.2-.2a3.1 3.1 0 0 0 1.6-4l-16-43.8a3 3 0 0 0-2.8-2z" fill="#424242" opacity=".2"/><path d="M35 91.8h-5.3c-.5 0-.8-.3-.8-.8v-2.4c0-.5.3-.9.8-.9H35c.4 0 .8.4.8.9V91c0 .5-.4.8-.8.8zm53 1.5h-6.8c-.6 0-1-.5-1-1.2V89c0-.7.4-1.2 1-1.2H88c.5 0 1 .5 1 1.2v3c0 .7-.5 1.2-1 1.2zm-68.3 26.5h-4.9c-.4 0-.7-.4-.7-.8v-2.3c0-.5.3-.8.7-.8h4.9c.4 0 .7.3.7.8v2.3c0 .4-.3.8-.7.8z" fill="#BDBDBD" opacity=".5"/><path d="M17.3 114.2H11c-.6 0-1-.5-1-1.2v-3c0-.6.4-1.1 1-1.1h6.3c.5 0 1 .5 1 1v3.2c0 .6-.5 1.2-1 1.2z" fill="#BDBDBD" opacity=".2"/><path d="M111.4 117.5h-4.9c-.4 0-.7-.4-.7-.9v-2.3c0-.4.3-.8.7-.8h4.9c.4 0 .7.4.7.8v2.3c0 .5-.3.9-.7.9z" fill="#BDBDBD" opacity=".5"/><path d="M116 111.8h-6.3c-.6 0-1-.5-1-1.1v-3.2c0-.6.4-1 1-1h6.3c.5 0 1 .4 1 1v3.2c0 .6-.5 1.1-1 1.1z" fill="#BDBDBD" opacity=".2"/><path d="M76 124H52v-16a12 12 0 1 1 24 0v16z" fill="#4FC3F7"/><path d="M80 58a16 16 0 1 1-32 0 16 16 0 0 1 32 0z" fill="#FAFAFA"/><path d="M78.2 58a14.3 14.3 0 1 1-28.5 0 14.3 14.3 0 0 1 28.5 0z" fill="#E0E0E0"/><radialGradient id="k" cx="64" cy="58" r="13.1" gradientTransform="scale(1 .9997)" gradientUnits="userSpaceOnUse"><stop stop-color="#81D4FA" offset="0"/><stop stop-color="#039BE5" offset="1"/></radialGradient><path d="M77 58a13 13 0 1 1-26 0 13 13 0 0 1 26 0z" fill="url(#k)"/><defs><path id="l" d="M30.4 90.5a16.8 16.8 0 0 0-3.5-10.4c-2-2.4-4-3.4-4-3.4s-2 1-3.9 3.4l-.6.9a16.8 16.8 0 0 0-2.9 9.5v14h14.9v-14z"/></defs><clipPath id="m"><use xlink:href="#l"/></clipPath><g clip-path="url(#m)"><path fill="#673AB7" d="M21 84.3h2l-.1-4h-2z"/><path d="M18.4 80.8l-.1.2c-.7.9-1.3 2-1.7 3.2h1.8v-3.4z" fill="#03A9F4"/><path d="M21 84.3v-4h-2.2l-.4.5v3.5H21z" fill="#00E5FF"/><path d="M21 78c-.7.5-1.4 1.2-2 2l-.2.3h2.1V78z" fill="#00BCD4"/><path fill="#651FFF" d="M23 88.7h-4.6v4.5h4.7z"/><path fill="#2196F3" d="M21 84.3v4.4h2v-4.5z"/><path fill="#3F51B5" d="M18.4 97.7h2.5v4h-2.5z"/><path fill="#4CAF50" d="M18.4 93.2h2.5v4.5h-2.5z"/><path d="M22.9 80.3v-3.7s-.9.5-2 1.4v2.3h2z" fill="#009688"/><path fill="#2196F3" d="M21 101.7h2.3v-4h-2.4z"/><path fill="#304FFE" d="M21 104.5h2.3v-2.8h-2.4z"/><path fill="#9C27B0" d="M21 97.7h2.2v-4.5h-2.3z"/><path d="M18.4 84.3h-1.8c-.6 1.3-1 2.7-1 4.4h5.3v-4.5h-2.5z" fill="#64DD17"/><path fill="#00BCD4" d="M15.4 93.2h3v4.5h-3z"/><path d="M18.4 88.7h-2.9v1.8h-.1v2.7h3v-4.5z" fill="#03A9F4"/><path fill="#1DE9B6" d="M18.4 101.7h-3v2.8H21v-2.8z"/><path fill="#9C27B0" d="M15.4 97.7h3v4h-3z"/><path fill="#18FFFF" d="M15.4 94.6h1l3.5-7.4h-1.8L15.4 92v1.1z"/><path fill="#F44336" d="M20 87.2l3-6.3-.1-.6v-2.1l-4.8 9z"/><path fill="#FFC107" d="M15.4 94.6v2l1-2z"/><path fill="#FB8C00" d="M18.8 94.6l-3.4 8.3v1.5h2.1l3.3-9.8z"/><path fill="#FFEA00" d="M23 87.2v-3l-1.3 3-3 7.4h2l2.3-6.9z"/></g><g clip-path="url(#m)"><path fill="#673AB7" d="M24.8 84.3h-2.1v-4h2z"/><path d="M27.3 80.8l.1.2c.6.9 1.2 2 1.7 3.2h-1.9v-3.4z" fill="#03A9F4"/><path d="M24.8 84.3v-4h2.1l.4.5v3.5h-2.5z" fill="#00E5FF"/><path d="M24.8 78l2 2v.3h-2V78z" fill="#00BCD4"/><path fill="#651FFF" d="M22.6 88.7h4.6v4.5h-4.6z"/><path fill="#2196F3" d="M24.8 84.3v4.4h-2.2l.1-4.5z"/><path fill="#3F51B5" d="M24.8 97.7h2.5v4h-2.5z"/><path fill="#4CAF50" d="M24.8 93.2h2.5v4.5h-2.5z"/><path d="M22.8 80.3v-3.7s.9.5 2 1.4v2.3h-2z" fill="#009688"/><path fill="#2196F3" d="M24.8 101.7h-2.4v-4h2.4z"/><path fill="#304FFE" d="M24.8 104.5h-2.4v-2.8h2.4z"/><path fill="#9C27B0" d="M24.8 97.7h-2.4l.1-4.5h2.3z"/><path d="M27.3 84.3H29c.5 1.3.9 2.7 1 4.4h-5.3v-4.5h2.4z" fill="#64DD17"/><path fill="#00BCD4" d="M27.3 93.2h3v4.5h-3z"/><path d="M27.3 88.7h2.9v4.5h-3v-4.5z" fill="#03A9F4"/><path fill="#1DE9B6" d="M27.3 101.7h3v2.8h-5.5v-2.8z"/><path fill="#9C27B0" d="M27.3 97.7h3v4h-3z"/><path fill="#18FFFF" d="M30.3 94.6h-1l-3.5-7.4h1.8l2.7 4.9v1.1z"/><path fill="#F44336" d="M25.8 87.2l-3-6.3v-2.7l4.8 9z"/><path fill="#FFC107" d="M30.3 94.6v2l-1-2z"/><path fill="#FB8C00" d="M26.9 94.6l3.4 8.3v1.5H28l-3-9.7z"/><path fill="#FFEA00" d="M24 87.2l2.9 7.4h-2l-2.3-6.9v-.5z"/><path fill="#F44336" d="M22.6 87.2l.1-3 1.2 3z"/></g><linearGradient id="n" x1="22.9" x2="22.9" y1="76.7" y2="86.7" gradientUnits="userSpaceOnUse"><stop stop-color="#FFC107" offset="0"/><stop stop-color="#FFF59D" offset="1"/></linearGradient><path d="M23 87.8c.8-3.7 2.5-6.2 3.8-7.6a13 13 0 0 0-3.9-3.4s-2 1-3.9 3.4a16 16 0 0 1 4 7.6z" fill="url(#n)"/><path d="M31 90a17.3 17.3 0 0 0-3.7-10.3 14 14 0 0 0-4-3.6L23 76l-.3.1a14.2 14.2 0 0 0-4.8 4.5 17.2 17.2 0 0 0-3 9.4v15h16V90zm-8-12.7c.5.4 1.9 1.3 3.2 3A16.4 16.4 0 0 0 23 87c-.7-3.1-2-5.3-3.2-6.8a14 14 0 0 1 3.3-3zm-7 13.8v-.5c0-3.6 1-6.7 2.8-9.3v-.1a16 16 0 0 1 3.5 10.2V104H16V91zm7.3 12.8V91c.2-5 2-8 3.5-9.9l.2.2a16 16 0 0 1 2.7 9.3v13.3h-6.4z" fill="#FAFAFA"/><defs><path id="o" d="M112.5 90.5a16.8 16.8 0 0 0-3.6-10.4 13 13 0 0 0-3.9-3.4s-2 1-3.9 3.4l-.6.9a16.8 16.8 0 0 0-2.9 9.5v14h14.8v-14z"/></defs><clipPath id="p"><use xlink:href="#o"/></clipPath><g clip-path="url(#p)"><path fill="#673AB7" d="M103 84.3h2v-4h-2z"/><path d="M100.5 80.8l-.2.2c-.6.9-1.2 2-1.7 3.2h1.9v-3.4z" fill="#03A9F4"/><path d="M103 84.3v-4h-2.2l-.3.5v3.5h2.5z" fill="#00E5FF"/><path d="M103 78l-2 2-.1.3h2V78z" fill="#00BCD4"/><path fill="#651FFF" d="M105.1 88.7h-4.6v4.5h4.7z"/><path fill="#2196F3" d="M103 84.3v4.4h2.1v-4.5z"/><path fill="#3F51B5" d="M100.5 97.7h2.5v4h-2.5z"/><path fill="#4CAF50" d="M100.5 93.2h2.5v4.5h-2.5z"/><path d="M105 80.3l-.1-3.7-2 1.4v2.3h2z" fill="#009688"/><path fill="#2196F3" d="M103 101.7h2.4l-.1-4H103z"/><path fill="#304FFE" d="M103 104.5h2.4v-2.8H103z"/><path fill="#9C27B0" d="M103 97.7h2.3l-.1-4.5H103z"/><path d="M100.5 84.3h-1.9c-.5 1.3-.9 2.7-1 4.4h5.4v-4.5h-2.5z" fill="#64DD17"/><path fill="#00BCD4" d="M97.5 93.2h3v4.5h-3z"/><path d="M100.5 88.7h-3v4.5h3v-4.5z" fill="#03A9F4"/><path fill="#1DE9B6" d="M100.5 101.7h-3v2.8h5.5v-2.8z"/><path fill="#9C27B0" d="M97.5 97.7h3v4h-3z"/><path fill="#18FFFF" d="M97.5 94.6h1l3.5-7.4h-2L97.5 92v1.1z"/><path fill="#F44336" d="M102 87.2l3-6.3v-2.7l-4.9 9z"/><path fill="#FFC107" d="M97.5 94.6v2l1-2z"/><path fill="#FB8C00" d="M100.8 94.6l-3.3 8.3v1.5h2l3.3-9.8z"/><path fill="#FFEA00" d="M105 87.2v-3l-1.2 3-3 7.4h2l2.3-6.9z"/></g><g clip-path="url(#p)"><path fill="#673AB7" d="M106.8 84.3h-2v-4h2z"/><path d="M109.3 80.8l.2.2c.6.9 1.2 2 1.7 3.2h-1.9v-3.4z" fill="#03A9F4"/><path d="M106.8 84.3v-4h2.2l.3.5v3.5h-2.5z" fill="#00E5FF"/><path d="M106.8 78l2 2 .1.3h-2V78z" fill="#00BCD4"/><path fill="#651FFF" d="M104.7 88.7h4.6v4.5h-4.7z"/><path fill="#2196F3" d="M106.8 84.3v4.4h-2.1v-4.5z"/><path fill="#3F51B5" d="M106.8 97.7h2.5v4h-2.5z"/><path fill="#4CAF50" d="M106.8 93.2h2.5v4.5h-2.5z"/><path d="M104.8 80.3l.1-3.7 2 1.4v2.3h-2z" fill="#009688"/><path fill="#2196F3" d="M106.8 101.7h-2.4l.1-4h2.3z"/><path fill="#304FFE" d="M106.8 104.5h-2.4v-2.8h2.4z"/><path fill="#9C27B0" d="M106.8 97.7h-2.3l.1-4.5h2.2z"/><path d="M109.3 84.3h1.9c.5 1.3.9 2.7 1 4.4h-5.4v-4.5h2.5z" fill="#64DD17"/><path fill="#00BCD4" d="M109.3 93.2h3v4.5h-3z"/><path d="M109.3 88.7h3v4.5h-3v-4.5z" fill="#03A9F4"/><path fill="#1DE9B6" d="M109.3 101.7h3v2.8h-5.5v-2.8z"/><path fill="#9C27B0" d="M109.3 97.7h3v4h-3z"/><path fill="#18FFFF" d="M112.3 94.6h-1l-3.5-7.4h1.9l2.6 4.9v1.1z"/><path fill="#F44336" d="M107.8 87.2l-3-6.3v-2.7l4.9 9z"/><path fill="#FFC107" d="M112.3 94.6v2l-1-2z"/><path fill="#FB8C00" d="M109 94.6l3.3 8.3v1.5h-2l-3.3-9.8z"/><path fill="#FFEA00" d="M106 87.2l3 7.4h-2l-2.3-6.9v-.5z"/><path fill="#F44336" d="M104.7 87.2v-3l1.3 3z"/></g><linearGradient id="q" x1="105" x2="105" y1="76.7" y2="86.7" gradientUnits="userSpaceOnUse"><stop stop-color="#FFC107" offset="0"/><stop stop-color="#FFF59D" offset="1"/></linearGradient><path d="M105 87.8c.8-3.7 2.6-6.2 3.9-7.6-2-2.4-4-3.4-4-3.4s-1.9 1-3.8 3.4a16 16 0 0 1 3.9 7.6z" fill="url(#q)"/><path d="M113 90a17.3 17.3 0 0 0-3.6-10.3 14 14 0 0 0-4.1-3.6l-.3-.1-.2.1a14.2 14.2 0 0 0-4.8 4.5 17.2 17.2 0 0 0-3 9.4v15h16V90zm-8-12.7c.6.4 2 1.3 3.3 3A16.4 16.4 0 0 0 105 87c-.7-3.1-2-5.3-3.3-6.8 1.4-1.7 2.8-2.6 3.3-3zm-6.8 13.8v-.5c0-3.6 1-6.7 2.8-9.3v-.1a16 16 0 0 1 3.5 10.2V104h-6.3V91zm7.3 12.8V91c.2-5 2-8 3.5-9.9l.1.2a16 16 0 0 1 2.8 9.3v13.3h-6.4z" fill="#FAFAFA"/><path d="M66.9 47.1l.5-1.7a13 13 0 0 0-3.4-.5v1.8c1 0 2 .2 2.9.4z" fill="#03A9F4"/><path d="M64 46.7V45a13 13 0 0 0-6.6 1.8l1 1.5c1.6-1 3.5-1.5 5.6-1.5z" fill="#9C27B0"/><path d="M56 50l-1.3-1.2a13 13 0 0 0-3.3 5.8l1.7.5a10 10 0 0 1 2.9-5z" fill="#64DD17"/><path d="M58.3 48.2l-.8-1.5c-1 .6-2 1.2-2.8 2L56 50a11 11 0 0 1 2.3-1.8zM72 50l1.2-1.2a13 13 0 0 0-5.9-3.4L67 47c2 .5 3.7 1.5 5 3z" fill="#4CAF50"/><path d="M74.9 61l1.7.4c.3-1.1.5-2.2.5-3.4h-1.8c0 1-.2 2-.4 3z" fill="#18FFFF"/><path d="M75.3 58H77a13 13 0 0 0-1.7-6.5l-1.6.9c1 1.6 1.6 3.5 1.6 5.6z" fill="#3F51B5"/><path d="M73.8 52.4l1.5-1c-.6-1-1.3-1.8-2-2.6L72 50c.7.7 1.3 1.5 1.8 2.4zm1.1 8.6c-.5 1.9-1.6 3.6-3 5l1.3 1.2a13 13 0 0 0 3.4-5.8l-1.7-.5z" fill="#2196F3"/><path d="M64 69.3V71a13 13 0 0 0 6.5-1.8l-.9-1.5c-1.6 1-3.6 1.5-5.6 1.5z" fill="#FB8C00"/><path d="M69.6 67.8l1 1.5c.9-.6 1.8-1.2 2.6-2L72 66a11 11 0 0 1-2.4 1.8z" fill="#F44336"/><path d="M53 55l-1.6-.4a13 13 0 0 0-.5 3.4h1.8c0-1 .1-2 .4-3z" fill="#03A9F4"/><path d="M61 68.9l-.4 1.7c1 .3 2.2.5 3.4.5v-1.8c-1 0-2-.2-3-.4z" fill="#FFEA00"/><path d="M54.2 63.6l-1.5 1a10 10 0 0 0 2 2.6L56 66c-.7-.7-1.3-1.5-1.8-2.4z" fill="#64DD17"/><path d="M56 66l-1.3 1.2a13 13 0 0 0 5.9 3.4l.5-1.7c-2-.5-3.7-1.5-5.1-3z" fill="#F44336"/><path d="M52.7 58h-1.8c0 2.4.7 4.6 1.8 6.5l1.5-.9c-1-1.6-1.5-3.5-1.5-5.6z" fill="#00E5FF"/><path d="M64 50.9v-4.2c-2 0-4 .6-5.7 1.5l2.1 3.6a7 7 0 0 1 3.6-1z" fill="#F44336"/><path d="M60.4 51.8l-2-3.6c-1 .5-1.7 1.1-2.4 1.8l3 3c.4-.5.9-.9 1.4-1.2z" fill="#18FFFF"/><path d="M65.8 51.1l1.1-4c-1-.2-2-.4-3-.4V51c.7 0 1.3 0 2 .2z" fill="#00E5FF"/><path d="M59 53l-3-3a11.3 11.3 0 0 0-3 5l4.1 1.2c.3-1.3 1-2.4 1.8-3.2z" fill="#03A9F4"/><path d="M69 53l3-3a11.3 11.3 0 0 0-5.1-2.9l-1 4c1.1.3 2.2 1 3.1 1.9z" fill="#64DD17"/><path d="M57.1 56.2l-4-1.1c-.3 1-.4 1.9-.4 2.9h4.1c0-.6.1-1.3.3-1.8z" fill="#00BCD4"/><path d="M71.1 58h4.2c0-2-.6-4-1.6-5.6l-3.6 2a7 7 0 0 1 1 3.6z" fill="#651FFF"/><path d="M70.2 54.4l3.6-2A11 11 0 0 0 72 50l-3 3c.5.4.8.9 1.1 1.4z" fill="#03A9F4"/><path d="M67.5 64.2l2.1 3.6c.9-.5 1.7-1.1 2.4-1.8l-3-3a7 7 0 0 1-1.5 1.2z" fill="#3F51B5"/><path d="M56.9 58h-4.2c0 2 .5 4 1.5 5.6l3.6-2a7 7 0 0 1-1-3.6zm7.1 7.1v4.2c2 0 4-.6 5.6-1.5l-2-3.6a7 7 0 0 1-3.6 1z" fill="#9C27B0"/><path d="M71.1 58a7 7 0 0 1-.2 1.8l4 1.1c.2-1 .4-1.9.4-2.9H71z" fill="#00BCD4"/><path d="M69 63l3 3c1.3-1.4 2.3-3.1 2.9-5l-4-1.2A7 7 0 0 1 69 63z" fill="#4CAF50"/><path d="M59 63l-3 3a11 11 0 0 0 5 2.9l1.2-4c-1.3-.4-2.4-1-3.3-1.9z" fill="#304FFE"/><path d="M62.1 64.9l-1 4c.9.2 1.9.4 2.9.4V65c-.7 0-1.3 0-1.9-.2z" fill="#1DE9B6"/><path d="M57.8 61.6l-3.6 2c.5.9 1.1 1.7 1.8 2.4l3-3a7 7 0 0 1-1.2-1.4z" fill="#2196F3"/><radialGradient id="r" cx="64" cy="58" r="7.9" gradientTransform="scale(1 .9997)" gradientUnits="userSpaceOnUse"><stop stop-color="#FFFF8D" offset="0"/><stop stop-color="#FFFF8B" offset=".4"/><stop stop-color="#FFFE84" offset=".5"/><stop stop-color="#FFFC77" offset=".6"/><stop stop-color="#FFF965" offset=".7"/><stop stop-color="#FFF64D" offset=".8"/><stop stop-color="#FFF131" offset=".9"/><stop stop-color="#FFEC0F" offset="1"/><stop stop-color="#FFEA00" offset="1"/></radialGradient><path d="M70.2 54.4a7 7 0 0 0-9.8-2.6 7 7 0 0 0-2.6 9.8 7 7 0 0 0 9.7 2.6 7 7 0 0 0 2.7-9.8zm-1 5c-.3.9-.8 1.7-1.4 2.4a5 5 0 0 1-1.1.8 5.3 5.3 0 0 1-7.3-2 5.3 5.3 0 0 1 2-7.2 5.3 5.3 0 0 1 7.2 2 5.3 5.3 0 0 1 .5 4z" fill="url(#r)"/><linearGradient id="u" x1="64" x2="64" y1="58" y2="58" gradientUnits="userSpaceOnUse"><stop stop-color="#fff" offset="0"/><stop offset="1"/></linearGradient><linearGradient id="s" x1="64" x2="64" y1="58" y2="58" gradientUnits="userSpaceOnUse"><stop stop-color="#fff" offset="0"/><stop offset="1"/></linearGradient><linearGradient id="t" x1="64" x2="64" y1="58" y2="58" gradientUnits="userSpaceOnUse"><stop stop-color="#fff" offset="0"/><stop offset="1"/></linearGradient><path fill="url(#t)" d="M64 58zm0 0z"/><path fill="url(#u)" d="M64 58zm0 0z"/><path fill="url(#t)" d="M64 58zm0 0z"/><linearGradient id="v" x1="63.8" x2="66" y1="57.5" y2="62.9" gradientUnits="userSpaceOnUse"><stop stop-color="#FFE082" offset="0"/><stop stop-color="#FFDF80" offset=".4"/><stop stop-color="#FFDB79" offset=".5"/><stop stop-color="#FFD46C" offset=".6"/><stop stop-color="#FFCA5A" offset=".8"/><stop stop-color="#FFBD43" offset=".8"/><stop stop-color="#FFAD26" offset=".9"/><stop stop-color="#FF9A04" offset="1"/><stop stop-color="#FF9800" offset="1"/></linearGradient><path d="M64 58v5.3c1 0 1.9-.2 2.6-.7a5 5 0 0 0 1.2-.8L64 58z" fill="url(#v)"/><linearGradient id="w" x1="64.1" x2="69.4" y1="58.6" y2="58.6" gradientUnits="userSpaceOnUse"><stop stop-color="#FFF59D" offset="0"/><stop stop-color="#FFF499" offset=".2"/><stop stop-color="#FFF08E" offset=".3"/><stop stop-color="#FFE97B" offset=".5"/><stop stop-color="#FFE060" offset=".7"/><stop stop-color="#FFD43E" offset=".8"/><stop stop-color="#FFC614" offset="1"/><stop stop-color="#FFC107" offset="1"/></linearGradient><path d="M68.6 55.3L64 58l3.8 3.8a7 7 0 0 0 1.3-2.4l.2-1.4a5 5 0 0 0-.7-2.7z" fill="url(#w)"/><linearGradient id="x" x1="60.7" x2="63.4" y1="53.4" y2="58.4" gradientUnits="userSpaceOnUse"><stop stop-color="#FFC107" offset="0"/><stop stop-color="#FFC30C" offset="0"/><stop stop-color="#FFD238" offset=".2"/><stop stop-color="#FFDF5C" offset=".3"/><stop stop-color="#FFE879" offset=".5"/><stop stop-color="#FFEF8D" offset=".7"/><stop stop-color="#FFF499" offset=".8"/><stop stop-color="#FFF59D" offset="1"/></linearGradient><path d="M61.3 53.4a5 5 0 0 0-2.5 3.2L64 58v-5.3a5 5 0 0 0-2.7.7z" fill="url(#x)"/><linearGradient id="y" x1="63.8" x2="61.7" y1="58.4" y2="63.5" gradientUnits="userSpaceOnUse"><stop stop-color="#FFF59D" offset="0"/><stop stop-color="#FFF399" offset=".2"/><stop stop-color="#FFEF8B" offset=".3"/><stop stop-color="#FFE776" offset=".5"/><stop stop-color="#FFDD57" offset=".7"/><stop stop-color="#FFCF30" offset=".8"/><stop stop-color="#FFC107" offset="1"/></linearGradient><path d="M60.2 61.8c.7.6 1.5 1.1 2.4 1.3.4.2.9.2 1.4.2V58l-3.8 3.8z" fill="url(#y)"/><linearGradient id="z" x1="63.9" x2="67" y1="57.8" y2="52.9" gradientUnits="userSpaceOnUse"><stop stop-color="#FFE082" offset="0"/><stop stop-color="#FFDF7F" offset=".3"/><stop stop-color="#FFDA77" offset=".4"/><stop stop-color="#FFD269" offset=".6"/><stop stop-color="#FFC754" offset=".7"/><stop stop-color="#FFB83A" offset=".8"/><stop stop-color="#FFA619" offset=".9"/><stop stop-color="#FF9800" offset="1"/></linearGradient><path d="M67.8 54.2a5.3 5.3 0 0 0-2.4-1.3c-.5-.2-1-.2-1.4-.2V58l4.6-2.7a5 5 0 0 0-.8-1z" fill="url(#z)"/><linearGradient id="A" x1="64.2" x2="58.6" y1="58" y2="59.4" gradientUnits="userSpaceOnUse"><stop stop-color="#FFE082" offset="0"/><stop stop-color="#FFDF80" offset=".3"/><stop stop-color="#FFDA78" offset=".5"/><stop stop-color="#FFD36A" offset=".6"/><stop stop-color="#FFC857" offset=".7"/><stop stop-color="#FFBA3D" offset=".8"/><stop stop-color="#FFA91F" offset=".9"/><stop stop-color="#FF9800" offset="1"/></linearGradient><path d="M58.8 56.6l-.2 1.4c0 1 .3 1.9.8 2.7l.8 1L64 58l-5.2-1.4z" fill="url(#A)"/><path d="M64 98a10 10 0 0 1 10 10v14H54v-14a10 10 0 0 1 10-10m0-2a12 12 0 0 0-12 12v16h24v-16a12 12 0 0 0-12-12z" fill="#424242" opacity=".2"/></svg>