<svg viewBox="0 0 128 128" xmlns="http://www.w3.org/2000/svg" xmlns:xlink="http://www.w3.org/1999/xlink"><defs><path id="a" d="M4 4.1h120v120H4z"/></defs><clipPath id="b"><use xlink:href="#a"/></clipPath><radialGradient id="c" cx="34.8" cy="79.3" r="59.5" gradientTransform="matrix(.9989 .0473 -.0305 .6444 2.5 26.6)" gradientUnits="userSpaceOnUse"><stop stop-color="#9CCC65" offset=".3"/><stop stop-color="#7CB342" offset=".8"/></radialGradient><path d="M36.1 72C-3.9 77 1 98.8.1 101.7H0v39.6h128V90.7S76.1 67 36.1 72z" clip-path="url(#b)" fill="url(#c)"/><g clip-path="url(#b)" opacity=".2"><path d="M47.8 74.3c32.4 0 68.9 14.8 77.2 18.4v45.6H3v-35.9c.2-.7.2-1.4.2-2.4.2-5.8.7-21 33.3-25 3.5-.5 7.4-.7 11.3-.7m0-3c-4 0-7.9.2-11.7.7-40 5-35.2 26.8-36 29.7H0v39.6h128V90.7S85.5 71.3 47.8 71.3z" fill="#434343"/></g><g clip-path="url(#b)"><ellipse cx="48.7" cy="94.5" rx="11.3" ry="4.6" fill="#1E5F30"/><defs><ellipse id="d" cx="48.7" cy="94.5" rx="11.3" ry="4.6"/></defs><clipPath id="e"><use xlink:href="#d"/></clipPath><ellipse cx="48.7" cy="96.3" rx="9.7" ry="4" clip-path="url(#e)" fill="#FEF5A0"/><g opacity=".4"><defs><path id="f" d="M36.1 72C-3.9 77 1 98.8.1 101.7H0v39.6h128V90.7S76.1 67 36.1 72z" opacity=".4"/></defs><clipPath id="g"><use xlink:href="#f"/></clipPath><g clip-path="url(#g)"><path d="M45.8 93.4a1.5 1.5 0 0 0 .7 2.8c.2 0 .5 0 .7-.2l6.6-3c-1.9-.5-3.6-.7-5.7-.7l-2.3 1.1zm32.3-18.9L48.2 90l5.7.6 28.9-15.1-4.7-1z" fill="#757576"/><path fill="#434343" d="M53.8 93l-5.7-.7V90l5.9.5z"/></g></g><path d="M45.3 96.6c-1.1 0-2-.7-2-1.6V7c0-.9.9-1.6 2-1.6s2 .7 2 1.6v88c0 .9-1 1.6-2 1.6z" fill="#FCB64E"/><linearGradient id="h" x1="49.2" x2="60.4" y1="10.9" y2="27.9" gradientUnits="userSpaceOnUse"><stop stop-color="#EF5451" offset=".3"/><stop stop-color="#E53A35" offset=".8"/></linearGradient><path d="M73.8 23.5l-27 9.1c-.5.2-1-.2-1-.7V11c0-.6.6-1 1-.7l27 11.7c.7.2.7 1.2 0 1.4z" fill="url(#h)"/><path d="M45.3 6.4c.5 0 1 .3 1 .6v3.5c0 .4.2.8.6 1l26 11.2-26 8.8a1 1 0 0 0-.6 1V95c0 .3-.5.6-1 .6s-1-.3-1-.6V7c0-.3.4-.6 1-.6m0-1c-1.1 0-2 .7-2 1.6v88c0 .9.9 1.6 2 1.6s2-.7 2-1.6V32.4l26.5-9c.7-.1.7-1 0-1.4L47.4 10.5V7c0-.9-1-1.6-2-1.6z" fill="#434343" opacity=".2"/></g></svg>