<svg viewBox="0 0 128 128" xmlns="http://www.w3.org/2000/svg" xmlns:xlink="http://www.w3.org/1999/xlink"><defs><path id="a" d="M4 4.12h120v120H4z"/></defs><clipPath id="b"><use xlink:href="#a"/></clipPath><radialGradient id="c" cx="34.833" cy="79.291" r="59.513" gradientTransform="matrix(.9989 .0473 -.0305 .6444 2.458 26.551)" gradientUnits="userSpaceOnUse"><stop stop-color="#9CCC65" offset=".264"/><stop stop-color="#7CB342" offset=".832"/></radialGradient><path d="M36.12 72c-40 5-35.2 26.83-36.03 29.66H0v39.6h128V90.75S76.12 67 36.12 72z" clip-path="url(#b)" fill="url(#c)"/><g clip-path="url(#b)" opacity=".2"><path d="M47.82 74.31c32.35 0 68.85 14.83 77.18 18.4v45.55H3v-35.84c.19-.69.21-1.43.24-2.45.17-5.72.62-20.91 33.26-24.99 3.55-.45 7.36-.67 11.32-.67m0-3c-3.97 0-7.89.22-11.7.69-40 5-35.2 26.83-36.03 29.66H0v39.6h128V90.75S85.53 71.31 47.82 71.31z" fill="#434343"/></g><g clip-path="url(#b)"><defs><path id="d" d="M36.12 72c-40 5-35.2 26.83-36.03 29.66H0v39.6h128V90.75S76.12 67 36.12 72z"/></defs></g><g clip-path="url(#b)"><ellipse cx="48.7" cy="94.5" rx="11.31" ry="4.62" fill="#1E5F30"/><defs><ellipse id="e" cx="48.7" cy="94.5" rx="11.31" ry="4.62"/></defs><clipPath id="f"><use xlink:href="#e"/></clipPath><ellipse cx="48.7" cy="96.33" rx="9.74" ry="3.98" clip-path="url(#f)" fill="#FEF5A0"/><g opacity=".4"><defs><path id="g" d="M36.12 72c-40 5-35.2 26.83-36.03 29.66H0v39.6h128V90.75S76.12 67 36.12 72z" opacity=".4"/></defs><clipPath id="h"><use xlink:href="#g"/></clipPath><g clip-path="url(#h)"><path d="M45.82 93.4c-.73.38-1.02 1.29-.63 2.02a1.501 1.501 0 0 0 2.02.63l6.62-3.11c-1.89-.43-3.64-.61-5.7-.62l-2.31 1.08zM78.13 74.48l-29.92 15.5 5.71.58 28.86-15.11c-1.53-.35-3.08-.66-4.65-.97z" fill="#757576"/><path fill="#434343" d="M53.83 92.98l-5.72-.65.02-2.41 5.86.5z"/></g></g><path d="M45.26 96.57c-1.1 0-2-.71-2-1.59V6.99c0-.88.9-1.59 2-1.59s2 .71 2 1.59v87.99c0 .88-.9 1.59-2 1.59z" fill="#FCB64E"/><linearGradient id="i" x1="49.18" x2="60.43" y1="10.851" y2="27.851" gradientUnits="userSpaceOnUse"><stop stop-color="#EF5451" offset=".272"/><stop stop-color="#E53A35" offset=".832"/></linearGradient><path d="M73.81 23.48L46.82 32.6c-.5.17-1.01-.2-1.01-.73v-20.8c0-.55.56-.92 1.07-.7l26.99 11.69c.65.27.61 1.2-.06 1.42z" fill="url(#i)"/><path d="M45.26 6.4c.56 0 1 .32 1 .59v3.53c0 .4.24.76.6.92l26.06 11.29-25.98 8.77a1 1 0 0 0-.68.95v62.54c0 .27-.44.59-1 .59s-1-.32-1-.59v-88c0-.27.43-.59 1-.59m0-1c-1.1 0-2 .71-2 1.59v87.99c0 .88.9 1.59 2 1.59s2-.71 2-1.59V32.45l26.56-8.97c.66-.22.7-1.15.06-1.43L47.26 10.53V6.99c0-.87-.9-1.59-2-1.59z" fill="#434343" opacity=".2"/></g></svg>