<svg viewBox="0 0 128 128" xmlns="http://www.w3.org/2000/svg" xmlns:xlink="http://www.w3.org/1999/xlink"><defs><path id="a" d="M4 4h120v120H4z"/></defs><clipPath id="b"><use xlink:href="#a"/></clipPath><radialGradient id="c" cx="25.7" cy="78.5" r="122.6" gradientTransform="matrix(.9091 -.4166 .0629 .1373 -2.6 78.5)" gradientUnits="userSpaceOnUse"><stop stop-color="#E1F5FE" offset=".3"/><stop stop-color="#B3E5FC" offset="1"/></radialGradient><path d="M102.1 51.3C88.6 65.4 83.2 68.9 47.4 86.2c-17.8 8.6-36.3 9.2-42.2 13-23.2 15.1-.9 18.7-.9 18.7h46.4l87.1-34.4-5.3-69.9S120.5 32 102 51.3z" clip-path="url(#b)" fill="url(#c)" stroke="#B3E5FC" stroke-linecap="round" stroke-linejoin="round" stroke-miterlimit="10"/><g clip-path="url(#b)"><radialGradient id="d" cx="52.7" cy="91.1" r="157.9" gradientTransform="matrix(.8866 -.4625 .2243 .4299 -14.5 76.3)" gradientUnits="userSpaceOnUse"><stop stop-color="#fff" offset=".2"/><stop stop-color="#B3E5FC" offset="1"/></radialGradient><path d="M128 128H0v-12.3s13.7-8.5 29.3-17.6c18.7-11 46.4-12.8 77-42.9 12-11.8 32.4-19 32.4-19L128 128z" fill="url(#d)"/></g><path clip-path="url(#b)" fill="none" stroke="#94CDE8" stroke-linecap="round" stroke-linejoin="round" stroke-miterlimit="10" stroke-width="3" d="M128 46.4V128H0v-12.3"/><g clip-path="url(#b)"><path d="M43.5 113.7L121 70.9l11-6c4.2-2.4.4-8.9-3.8-6.6l-77.5 42.8-11 6.1c-4.2 2.4-.5 8.8 3.8 6.5z" fill="#B3E5FC"/><linearGradient id="e" x1="29" x2="115.7" y1="89.5" y2="89.5" gradientUnits="userSpaceOnUse"><stop stop-color="#FB8C00" offset=".2"/><stop stop-color="#F67F00" offset=".6"/><stop stop-color="#EF6C00" offset="1"/></linearGradient><path d="M115.4 67.6a1.8 1.8 0 0 0-2.5-.7l-73.5 40.7c-1.5.8-5.4-2-7-2.3s-3 .8-3.3 2.3c-.3 1.6.8 3.1 2.4 3.3 0 0 5.8 2.1 7.5 1.2l75.7-42c1-.5 1.2-1.6.7-2.5z" fill="url(#e)" stroke="#DB6300" stroke-linecap="round" stroke-linejoin="round" stroke-miterlimit="10"/><path d="M53.5 63.3l.5-.2c.2-.1.3-.3.3-.4l-.1-.4-.4-.5A6.4 6.4 0 0 1 57 51.7l.2-.2 28.2-13.9.8 1c2.2 3.1 3 7 2 10.4a9 9 0 0 1-5.4 6l-14 5.7-.3.3c-.1.1 0 .3 0 .4l7.8 16.4L64.8 84 53.5 63.3z" fill="#616161"/><path d="M85.2 38.3l.6.7c2 2.9 2.8 6.6 1.8 9.8a8.5 8.5 0 0 1-5 5.7l-14 5.8a1 1 0 0 0-.5 1.4l7.5 15.8L65 83.3 54.2 63.5c.4-.1.5-.4.6-.7s0-.7-.3-.9l-.3-.4a5.8 5.8 0 0 1 .7-8.2c.7-.5 1.4-.9 2.2-1.1l.4-.2 27.7-13.8m.4-1.2L56.8 51.2c-.9.3-1.7.7-2.5 1.3a6.9 6.9 0 0 0-.9 9.7l.4.4-1 .5 11.8 21.6L77 78l-8-16.8 14-5.8c6.3-2.5 8-10.9 3.6-17l-1-1.4z" fill="#4F4F4F"/><path d="M17.7 37.5l-6 .6c-1.5.1-3.8-.4-3.8-2.6 0-.8 1-1 1-1l7.6.3 1.2 2.7z" fill="#757575"/><linearGradient id="f" x1="150" x2="150" y1="-224.7" y2="-201.3" gradientTransform="rotate(-36.2 474.3 91.3)" gradientUnits="userSpaceOnUse"><stop stop-color="#FFCA28" offset=".5"/><stop stop-color="#FFB300" offset=".8"/><stop stop-color="#E59600" offset="1"/></linearGradient><path d="M35.8 18c-4.7-2.7-11-1-15.3 2.1-6 4.4-6.3 11-2.8 17.2l3.3 5-.7.6c-.4.6-.5 1.4 0 2 1.6 2 5.5 8 11.5 4.2 3.8-2.4 9.8-3.8 11.2-2.5l1.5-5s-4-.2-1.6-8.4c1.7-5.6-3.3-13.1-7.1-15.3z" fill="url(#f)"/><linearGradient id="g" x1="18.8" x2="42.5" y1="42.8" y2="25.5" gradientUnits="userSpaceOnUse"><stop stop-color="#EDA600" offset="0"/><stop stop-color="#D18900" offset=".9"/></linearGradient><path d="M30.5 17.6c1.8 0 3.4.4 4.8 1.2 3.7 2 8.2 9.2 6.7 14-1.2 3.9-1.2 6.7 0 8.4.4.5.8.8 1.2 1l-.8 3H41a22 22 0 0 0-9.9 3 6.2 6.2 0 0 1-3.3 1.1c-3 0-5.3-3-6.5-4.7l-.3-.4a.6.6 0 0 1 0-.7l.2-.2c.9-.6.6-1.3.5-1.5l-3.3-5C15 30.4 16 24.7 21.1 21c2.8-2.1 6.3-3.3 9.4-3.3m0-1c-3.5 0-7.2 1.4-10 3.5-6 4.3-6.4 10.8-2.8 17l3.2 5.1-.6.6c-.5.6-.5 1.4 0 2 1.2 1.6 3.8 5.4 7.6 5.4a7 7 0 0 0 3.9-1.2c2.8-1.8 6.9-3 9.3-3a3 3 0 0 1 1.9.5l1.4-5s-4-.2-1.5-8.4c1.7-5.6-3.3-13.1-7.2-15.3-1.6-.9-3.4-1.2-5.2-1.2z" fill="url(#g)"/><defs><path id="h" d="M23.8 44.9l-3 1 2 2c2 2 4.9 3.6 9 1.2.3-.2-4.8-4.3-4.8-4.3l-3.2.1z"/></defs><clipPath id="i"><use xlink:href="#h"/></clipPath><g clip-path="url(#i)"><path d="M20 49.4c2.4 1 6 .4 7.1-2.3.4-1-.7-1.4-1.1-.4-.7 1.8-4 2-5.5 1.4a.7.7 0 0 0-.6 1.3z" fill="#795548"/></g><ellipse transform="rotate(-24.5 24.5 40.4)" cx="24.5" cy="40.4" rx="1.3" ry="2.3" fill="#404040"/><path d="M22.2 38c-1.3 1-2 .4-1.8-.4 0-.6.8-1.3 2.6-1.7 1.7-.4 2.8 0 3.4.3s.9.7.5.9c-.5.2-3.1-.1-4.7 1z" fill="#6D4C41"/><radialGradient id="j" cx="77.9" cy="-113.2" r="14.7" gradientTransform="matrix(.9174 -.4555 .4443 .8816 2.7 160.6)" gradientUnits="userSpaceOnUse"><stop stop-color="#6D4C41" offset="0"/><stop stop-color="#543930" offset="1"/></radialGradient><path d="M35.1 39l-1.8-5.4s4.4-.8 5 3.2c.2 2.7 3 4.7 4.2 4.4h.7c-.4-4.1 3.6-7.1.3-16.9-2.8-8.4-11-9.6-18-7.1-8.1 2.9-12.7 10.6-9.2 17.5l6.2-2.5c4-1.4 9.5 7.7 12.6 6.8z" fill="url(#j)"/><defs><path id="k" d="M19 28.7l21.6 2.6.8 7.5s-.4 2 0 2.3c.4.3 1.8 0 1.8 0-.4-4 3.6-7 .3-16.8-2.8-8.4-11-9.6-18-7.1-8.2 2.9-12.7 10.6-9.2 17.5l2-.8-1-1.7 1.7-3.5z"/></defs><clipPath id="l"><use xlink:href="#k"/></clipPath><g clip-path="url(#l)"><path d="M31.9 18c3.4 0 7.8 1.2 9.8 7 2 5.9 1 8.9.2 11.6l-.5 2c-.6-.4-1-1.2-1.2-2-.4-3.1-2.7-5-6-5H33l-2.3.5.8 2.2.2.7-.7-.7c-2.4-2-4.9-4.3-7.6-4.3-.5 0-1 .1-1.4.3h-.1l-4.4 1.8a9 9 0 0 1 .3-5.6c1.3-3.2 4.4-6 8.4-7.4 2-.7 4-1 5.8-1m0-2c-2.2 0-4.4.3-6.5 1.1-8 2.9-12.6 10.6-9 17.5l6.1-2.5.9-.1c3.6 0 8.3 7 11.3 7l.4-.1-1.8-5.3 1-.1c1.3 0 3.6.4 4 3.2.2 2.6 2.7 4.5 4 4.5h.2l.7-.1c-.4-4.1 3.6-7.1.4-16.9-2-6-6.7-8.3-11.7-8.3z" fill="#452B22"/></g><linearGradient id="m" x1="16.8" x2="38.7" y1="20.3" y2="42.7" gradientTransform="rotate(-19.1 34.3 22.6)" gradientUnits="userSpaceOnUse"><stop stop-color="#FB8C00" offset=".2"/><stop stop-color="#F67F00" offset=".6"/><stop stop-color="#EF6C00" offset="1"/></linearGradient><path d="M26.9 50.2c-3.2 0-5.2-2.8-5.9-4-1-1.7-1-3-1-3.1 5.3-3.6 6.1-5 5.8-6-.2-.8-1.5-1-2.5-1l-3.4.3-2.7.2c-.7 0-1-1.4-1.2-2.3l-.1-.5c-2.2-8 3.2-13.2 5.6-15 2.3-1.7 5.8-2.7 9.8-2.7 3.2 0 6.4.7 8.7 1.8 8.4 4 6.4 12.9 5.2 16.5-1.4 4-5 6.9-5 7l-.2.3c0 .3 0 7.5-12.7 8.5h-.4z" fill="url(#m)"/><path d="M31.3 16.7c3.2 0 6.2.6 8.5 1.7 8 3.8 6.1 12.3 5 15.9a16 16 0 0 1-5 6.6 1 1 0 0 0-.3.8c0 .1 0 7-12.3 8H27c-2.1 0-3.6-1.3-4.6-2.5a8 8 0 0 1-1.8-3.8c5.4-3.8 6.2-5.2 5.8-6.4-.4-1.3-2.2-1.3-3-1.3-1 0-2.2 0-3.4.2l-2.7.2c-.3-.1-.6-1.4-.7-1.9l-.1-.5c-2.1-7.8 3-12.8 5.4-14.5 2.2-1.6 5.7-2.5 9.5-2.5m0-1c-3.8 0-7.6.8-10 2.7-1.4 1-8.4 6.4-6 15.6.4 1 .7 3.1 2 3.1 2 0 4.3-.4 6-.4 2.9 0 3.6 1-3.6 6-1 .7 2 8 7.2 8h.4c13.4-1 13.2-9 13.2-9s3.7-2.9 5.2-7.1c2-6 2-13.6-5.5-17.2a21.3 21.3 0 0 0-8.9-1.7z" fill="#DB6300"/><path d="M29.6 34c1.4 0 2.8 1 3.1 2.5.6 2.3.7 2.6-2.7 4.2-1.4.6-3.2 1-5 1l-2.6-.2-2.2-4.5 8.6-2.8.8-.2m0-2l-1.3.2-9.3 3c-.8.3-1.3 1.1-1 1.8l3 6.3a16.8 16.8 0 0 0 9.9-.8c4.6-2.1 4.5-3.6 3.8-6.5-.7-2.4-2.8-4-5.2-4z" fill="#DB6300"/><path d="M29.3 43c-4.7 2-9.8.7-9.8.7l-3-6.2c-.4-.7 0-1.5 1-1.8l9.2-3c2.8-.7 5.7 1 6.4 3.8s.8 4.4-3.8 6.5z" fill="#E3F2FD"/><linearGradient id="n" x1="14.6" x2="23.3" y1="33.2" y2="33.2" gradientTransform="matrix(1.4199 -.3613 .2868 1.1271 -13 8.5)" gradientUnits="userSpaceOnUse"><stop stop-color="#90CAF9" offset=".4"/><stop stop-color="#42A5F5" offset="1"/></linearGradient><path d="M27.2 41.5c-3.1 1.5-8.3 1-8.3 1l-2.2-4.6 8.7-3c2.2-.8 3.8.7 4.3 2.5.4 2 .7 2.6-2.5 4.1z" fill="url(#n)"/><radialGradient id="o" cx="22.8" cy="41.5" r="13.5" gradientTransform="matrix(.9853 .0436 -.0479 1.0823 3.3 -3.2)" gradientUnits="userSpaceOnUse"><stop stop-color="#00BFA5" offset=".4"/><stop stop-color="#00B29A" offset=".8"/><stop stop-color="#00AB94" offset="1"/></radialGradient><path d="M28 50.4c-.8 0-1.6 0-2.3-.2-2.2-.4-4.4-3-5.3-4.3 2.4-.4 9-1.7 14.4-7.3l2.6-2.7c2.8-2.8 6.5-6.6 8.6-9a2 2 0 0 1 3.2.5c1 2.2 1.8 6 1.7 8-.4 5.7-11.2 12.3-11.4 12.3 0 0-6 2.7-11.4 2.7z" fill="url(#o)"/><path d="M47.5 26.8c.4 0 1 .2 1.3.8 1 2.1 1.7 5.8 1.6 7.8-.3 4.5-8 10-11 11.9A33 33 0 0 1 28 49.9c-.8 0-1.6 0-2.3-.2-1.6-.3-3.4-2-4.5-3.5 3-.5 9-2.1 13.9-7.3l2.6-2.6a245 245 0 0 0 8.6-9c.2-.3.6-.5 1-.5m0-1c-.6 0-1.3.3-1.8.8-2.8 3.3-9 9.4-11.1 11.6-6.4 6.7-15 7.3-15 7.3s3 4.6 6 5.2c.9.2 1.7.2 2.6.2 5.6 0 11.7-2.7 11.7-2.7S51 41.5 51.4 35.4c0-2.1-.7-6-1.7-8.2-.5-1-1.3-1.4-2.3-1.4z" fill="#009984"/><path d="M30.6 33c.4.1.4.8 0 1-3 1-10.4 3.4-14.5 3.5-3.8.1-5.1-1-6.2-2.3-.1-.2-.8-.7-1.4-.5-.3 0 .2-.4.6-.4a6273.7 6273.7 0 0 1 19.6-2l1.9.7z" fill="#BDBDBD"/><radialGradient id="p" cx="71" cy="43.2" r="17" gradientTransform="matrix(.4257 -.9107 .9712 .4156 -6.6 72.7)" gradientUnits="userSpaceOnUse"><stop stop-color="#00BFA5" offset=".4"/><stop stop-color="#00B29A" offset=".8"/><stop stop-color="#00AB94" offset="1"/></radialGradient><path d="M57.2 52.7a62 62 0 0 1-15.8-9.8c-1.3-1.5-1.7-3.1-1.2-4.7a6 6 0 0 1 3.5-3.8c5-1.4 10.7-2.2 16.7-2.2 11.8 0 21.3 2.8 21.3 2.8 2.1.8 4.1 2.8 5 4.4L57.2 52.7z" fill="url(#p)"/><path d="M60.4 31.7v1c11.7 0 21.1 2.8 21.2 2.8 1.8.7 3.5 2.2 4.4 3.7l-28.8 13c-2.1-1-12.1-5.8-15.4-9.6-1.2-1.4-1.6-2.8-1.1-4.2a5.7 5.7 0 0 1 3.2-3.5 61 61 0 0 1 16.5-2.2v-1m0 0c-5.3 0-11.1.6-16.8 2.2-2 .6-6.4 4.8-2.6 9.3s16.2 10 16.2 10l30.2-13.6c-.8-1.8-3-4.2-5.5-5 0 0-9.5-2.9-21.5-2.9z" fill="#009984"/><path d="M60.4 96c-.6 0-1-.2-1.3-.7l-1.7-3a3.6 3.6 0 0 1 1-5l4-2.6a2 2 0 0 0 .7-2.7l-3.9-6.7 13-7.3 8.5 15.2c.2.3.3.7.2 1.1s-.4.7-.7 1L61 95.8l-.7.2z" fill="#4568AD"/><path d="M72 68.7l8.3 14.7a1 1 0 0 1-.3 1.4L60.9 95.4a1 1 0 0 1-.5.2 1 1 0 0 1-.9-.5l-1.7-3c-.2-.3-1.4-2.5.8-4.4l4.1-2.6c1.1-.8 1.4-2.2.8-3.3l-3.6-6.3 12-6.8m.5-1.4l-13.8 7.8 4 7.2c.4.6.2 1.5-.4 2L58 86.8c-3.2 2.5-1.1 5.7-1.1 5.7l1.7 3a2 2 0 0 0 2.7.7l19-10.6a2 2 0 0 0 .8-2.8l-8.8-15.6z" fill="#315499"/><linearGradient id="q" x1="50" x2="109" y1="62.7" y2="35" gradientUnits="userSpaceOnUse"><stop stop-color="#EF6C00" offset=".3"/><stop stop-color="#F67F00" offset=".5"/><stop stop-color="#FB8C00" offset=".8"/></linearGradient><path d="M37.9 70.2c-.6 0-1.1-.3-1.4-.8-.4-.8 0-1.7.7-2l71-34c.7-.3 1.6 0 2 .8s0 1.6-.8 2L38.5 70l-.6.1z" fill="url(#q)"/><path d="M105 43.1l-4.6-3.7a1 1 0 0 1-.4-.8l.6-5.8c0-1 1.5-1.3 1.9-.3l4.1 9.5c.4.9-.7 1.8-1.5 1.1z" fill="#616161"/><linearGradient id="r" x1="30.1" x2="43.9" y1="69.4" y2="69.4" gradientUnits="userSpaceOnUse"><stop stop-color="#FFEB3B" offset="0"/><stop stop-color="#FBC02D" offset="1"/></linearGradient><path d="M44 70.7L40 64h-.5l-4.3-1.4a1.2 1.2 0 0 0-.9 0l-.1.1c-.3.2-.5.3-.6.6l-.9 1.6c-.1.3-.2 1-.1 1.4-.5.3-1.9 1.2-2.2 1.8-.3.7-.4 1.2-.2 1.6.9 1.8 3.1 5.5 4.5 6s2.5.2 3.2-.1c2.2-.8 6-5 6-5z" fill="url(#r)"/><path d="M36.1 76.7a4 4 0 0 1-1.5-.4c-1.7-.7-4-4.8-4.9-6.3-.2-.5-.1-1.1.3-2 .2-.5 1-1.1 2-1.9l.3-1.4.9-1.5c.1-.4.4-.6.8-.8h.1l.1-.1c.4-.2.8-.2 1.2 0l4.2 1.3h.4c.2 0 .4 0 .5.2l3.9 6.6-.1.6c-.2.2-4 4.3-6.2 5.2-.6.3-1.3.5-2 .5zM35 63.2h-.5l-.3.4-1 1.6v1c0 .2 0 .5-.2.6a6.7 6.7 0 0 0-2 1.6c-.3.7-.3 1-.3 1.2 1 2 3.2 5.3 4.3 5.8 1 .4 1.8.3 2.8-.2 1.7-.6 4.7-3.7 5.6-4.6l-3.5-6h-.4L35 63.3h-.2z" fill="#E8AD1A"/><radialGradient id="s" cx="50.5" cy="52.8" r="15.5" gradientUnits="userSpaceOnUse"><stop stop-color="#00BFA5" offset=".4"/><stop stop-color="#00B29A" offset=".8"/><stop stop-color="#00AB94" offset="1"/></radialGradient><path d="M45.4 70.6c-1.8 0-4-1.1-5-2.5-1.2-2-.7-5.4 1.1-6.5l8-4.2.3-.4-.2-.5C46 54 37.9 47.1 37.8 41.3c0-1.8.7-3.4 2.3-4.8A6 6 0 0 1 44 35c8.6 0 18.5 18.8 18.6 19 1 2.1.7 4.6-.9 6.4-.2.4-.5.6-.8.8l-13.8 9a3 3 0 0 1-1.7.4z" fill="url(#s)"/><path d="M44 35.5c7.3 0 16.1 14.7 18.1 18.7a5 5 0 0 1-.8 5.8l-.1.2-.5.6-13.9 9c-.4.2-.9.3-1.4.3a6 6 0 0 1-4.5-2.3c-1.2-1.7-.7-4.8.8-5.8l8-4.2c.3-.2.5-.5.5-.8s0-.7-.3-.9c-3.5-2.6-11.5-9.3-11.6-14.8 0-1.7.6-3.1 2-4.4 1.2-1 2.4-1.4 3.7-1.4m0-1a6 6 0 0 0-4.2 1.7c-7.6 6.4 4 16.6 9.5 20.7l-8 4.2c-2.2 1.4-2.6 5.2-1.3 7.3a7 7 0 0 0 5.4 2.7c.7 0 1.4-.1 2-.5l13.8-9c.4-.2.7-.5.9-.9a6.2 6.2 0 0 0 .9-7c-.3-.5-10.1-19.2-19-19.2z" fill="#008F76"/></g><g clip-path="url(#b)" fill="#fff"><path d="M104.5 77.8c1.2-1.1.4-3.2-1.3-3h-.1a3 3 0 0 0-2 2l-.3 1.5-.1.7c0 .2 0 .4.2.5l.9-.3a7 7 0 0 0 2.7-1.4zm12-11.9c1.1-1.3 3.3-.4 3 1.3v.1c-.3 1-1.2 1.6-2.1 2a14.7 14.7 0 0 1-2.2.4c-.2 0-.4 0-.4-.3l.2-.8c.3-1 .8-2 1.5-2.7zm-18-.8c.7-1.7-1.2-3.4-2.7-2.3l-.1.1c-.9.7-1.1 2-1 3l.4 1.6.3.8c0 .1.2.3.4.3.3 0 .6-.4.8-.6a9 9 0 0 0 2-2.9zm13.4-9.3c1.1-1.2.1-3.1-1.5-2.7h-.2c-.9.3-1.5 1.2-1.6 2.1l-.3 1.5v.7c0 .1 0 .3.2.4l.8-.3c1-.4 1.9-1 2.6-1.7zm-1.3 9.2c1.4-1.6.1-4-2-3.5-1.2.5-2 1.6-2.2 2.8l-.2 1.8v.9c0 .2 0 .5.2.5.3 0 .8-.3 1-.4a10 10 0 0 0 3.2-2.1z"/></g></svg>