<svg viewBox="0 0 128 128" xmlns="http://www.w3.org/2000/svg" xmlns:xlink="http://www.w3.org/1999/xlink"><radialGradient id="a" cx="63.5" cy="68.1" r="59.2" gradientTransform="matrix(-.698 .7161 -.7228 -.7045 157 70.6)" gradientUnits="userSpaceOnUse"><stop stop-color="#CCA47A" offset=".2"/><stop stop-color="#E0BB95" offset=".7"/><stop stop-color="#CCA47A" offset="1"/></radialGradient><path d="M63.3 122.5c-31 0-52.8-22.9-52.8-55.6V35.7c0-2.6 6.5-5.4 24.6-5.4 27 0 65.2 6.2 72.9 10.6 9.3 5.4 13 24.3 8.3 42.1a51.3 51.3 0 0 1-53 39.5z" fill="url(#a)"/><path d="M35.1 31.8c26.9 0 64.6 6 72.1 10.4 4 2.3 7.2 7.8 8.7 15a56.2 56.2 0 0 1-17.3 52A52.8 52.8 0 0 1 63.3 121a49.1 49.1 0 0 1-37.6-15.8A56.7 56.7 0 0 1 12 67V35.7c0-.8 4.1-3.9 23.1-3.9m0-3c-15 0-26.1 1.9-26.1 7v31C9 98.4 29.5 124 63.3 124c61.5 0 66.3-72.4 45.4-84.4-8.2-4.8-46.9-10.8-73.6-10.8z" fill="#BA8F63"/><radialGradient id="b" cx="117.1" cy="-32.7" r="42.8" fx="126" fy="-74.6" gradientTransform="matrix(.00506 1.0512 -.3363 .00247 61 -109.3)" gradientUnits="userSpaceOnUse"><stop stop-color="#E0BB95" offset="0"/><stop stop-color="#DEB892" offset=".4"/><stop stop-color="#D6B088" offset=".7"/><stop stop-color="#CCA47A" offset="1"/></radialGradient><path d="M72.6 61.4c-6.7 0-12.2-5.5-12.2-12.3V17.8a12.3 12.3 0 0 1 24.5 0V49c0 6.8-5.5 12.3-12.3 12.3z" fill="url(#b)"/><path d="M72.6 7c6 0 10.8 4.8 10.8 10.8V49a10.8 10.8 0 0 1-21.5 0V17.8c0-6 4.8-10.8 10.7-10.8m0-3C65 4 59 10.2 59 17.8V49a13.8 13.8 0 1 0 27.5 0V17.8A14 14 0 0 0 72.6 4z" fill="#BA8F63"/><radialGradient id="c" cx="210.1" cy="-45.1" r="38.1" gradientTransform="matrix(-.0821 1.0478 -.3153 -.0287 102.2 -203.5)" gradientUnits="userSpaceOnUse"><stop stop-color="#E0BB95" offset="0"/><stop stop-color="#DEB892" offset=".4"/><stop stop-color="#D6B088" offset=".7"/><stop stop-color="#CCA47A" offset="1"/></radialGradient><path d="M97.8 64.2h-.6a12.2 12.2 0 0 1-11.6-13L87.3 20a12.3 12.3 0 1 1 24.5 1.3L110 52.6a12.3 12.3 0 0 1-12.3 11.6z" fill="url(#c)"/><path d="M99.5 9.9h.6a10.7 10.7 0 0 1 10.2 11.3l-1.7 31.3c-.3 5.7-5 10.2-10.8 10.2h-.6a10.7 10.7 0 0 1-10.1-11.3L88.8 20c.3-5.8 5-10.2 10.7-10.2m0-3c-7.3 0-13.3 5.7-13.7 13L84 51.2a13.8 13.8 0 0 0 27.5 1.5l1.7-31.3c.4-7.6-5.4-14-13-14.5h-.8z" fill="#BA8F63"/><radialGradient id="d" cx="31.9" cy="-10.7" r="32.1" gradientTransform="matrix(.0645 1.048 -.3973 .0266 40 -10.9)" gradientUnits="userSpaceOnUse"><stop stop-color="#E0BB95" offset="0"/><stop stop-color="#DEB892" offset=".4"/><stop stop-color="#D6B088" offset=".7"/><stop stop-color="#CCA47A" offset="1"/></radialGradient><path d="M48.2 60.2c-6.7 0-12.2-5.2-12.6-12l-1.3-25.7a12.5 12.5 0 0 1 12-13.2h.6c6.7 0 12.2 5.2 12.5 11.9L60.7 47c.4 6.9-5 12.8-11.9 13.2h-.6z" fill="url(#d)"/><path d="M46.9 7.8v3a11 11 0 0 1 11 10.5L59.3 47a11 11 0 0 1-10.5 11.6h-.6a11 11 0 0 1-11-10.5l-1.4-25.8a11.1 11.1 0 0 1 10.5-11.6h.6v-3m0 0h-.7a14 14 0 0 0-13.4 14.8l1.3 25.8a14 14 0 1 0 28.1-1.5L61 21.1A14 14 0 0 0 47 7.8z" fill="#BA8F63"/><radialGradient id="e" cx="-3" cy="-13.1" r="41.6" gradientTransform="matrix(.0573 1.0482 -.3814 .0205 16.3 22.6)" gradientUnits="userSpaceOnUse"><stop stop-color="#E0BB95" offset="0"/><stop stop-color="#DEB892" offset=".4"/><stop stop-color="#D6B088" offset=".7"/><stop stop-color="#CCA47A" offset="1"/></radialGradient><path d="M23.2 63.2c-6.6 0-12-5.2-12.5-11.8l-1-19.6a12.5 12.5 0 0 1 11.7-13.2h.7c6.6 0 12 5.1 12.4 11.7L35.8 50a12.4 12.4 0 0 1-12.5 13.2z" fill="url(#e)"/><path d="M22.1 17v3a11 11 0 0 1 11 10.4l1 19.7a11 11 0 0 1-10.3 11.6h-.6a11 11 0 0 1-11-10.4l-1-19.6A11 11 0 0 1 21.4 20h.6v-3m0 0h-.8A14 14 0 0 0 8.1 31.8l1.2 19.7a14 14 0 0 0 13.9 13.2h.8a14 14 0 0 0 13.2-14.8L36 30.3A14 14 0 0 0 22 17zm82.7 55.3a24 24 0 0 0-17.1 1.4c-5.4 3-8 8.7-9.9 14.3-.6 1.8 2.3 2.6 3 .8 1.6-4.9 3.7-9.9 8.4-12.5 4.5-2.5 10-2.2 14.8-1 1.9.4 2.7-2.5.8-3z" fill="#BA8F63"/><defs><path id="f" d="M52.5 45.2c-9.2 0-10.7 9.5-8.5 15s8.8 9.3 14.6 8.7c20.8-1.9 26 1.2 28.8 6.9 3.8 7.8 7.6 8.3 12.2 8.1 8.3-.3 12.6-12.6 12.9-24 .3-13-28.7-17.8-28.7-17.8s-26.9 3-31.3 3z"/></defs><clipPath id="g"><use xlink:href="#f"/></clipPath><g clip-path="url(#g)"><radialGradient id="h" cx="82.1" cy="65.6" r="29.5" gradientUnits="userSpaceOnUse"><stop stop-color="#E0BB95" offset="0"/><stop stop-color="#DEB892" offset=".4"/><stop stop-color="#D6B088" offset=".7"/><stop stop-color="#CCA47A" offset="1"/></radialGradient><path d="M103.3 87.6c-3.9 0-9-5.2-12.5-12.5-2.4-5-6.6-8.2-19.4-8.2a121.7 121.7 0 0 0-12 .6c-5 0-10.2-3.4-12-7.9-1-2.7-1.2-7 .8-10 1.4-2 3.5-3 6.3-3 4.3 0 28.3-2.6 31.2-3 8.7 2.1 30.7 9.3 31.6 18.9 1 10.2-.4 17.4-4 21.3-2.2 2.5-5.4 3.8-9.6 3.8h-.4z" fill="url(#h)"/><path d="M85.7 45.2c11.4 2.7 29.4 9.8 30 17.5 1 9.8-.2 16.5-3.5 20.2-2 2.1-4.7 3.2-8.5 3.2h-.3c-2.9 0-7.7-4-11.3-11.6-3.1-6.6-9-9.1-20.7-9.1a121.5 121.5 0 0 0-12 .6 12 12 0 0 1-10.6-7c-1-2.2-1-6 .6-8.4 1.1-1.7 2.8-2.4 5.1-2.4 4.3 0 27.3-2.6 31.2-3m.1-3s-26.9 3-31.3 3c-9.1 0-10.7 9.5-8.5 15A15 15 0 0 0 60.6 69c4.2-.4 7.7-.6 10.8-.6 12 0 15.8 2.9 18 7.4 3.8 7.8 9.3 13.2 13.9 13.3h.4c15.3 0 16.2-15.3 15-26.7-1.2-12.9-32.9-20.2-32.9-20.2z" fill="#BA8F63"/></g></svg>