<svg viewBox="0 0 128 128" xmlns="http://www.w3.org/2000/svg" xmlns:xlink="http://www.w3.org/1999/xlink"><linearGradient id="a" x1="-1.2" x2="114.3" y1="73.9" y2="73.9" gradientTransform="matrix(1.0274 0 0 1.0036 6.6 3.4)" gradientUnits="userSpaceOnUse"><stop stop-color="#E0BB95" offset="0"/><stop stop-color="#DEB892" offset=".4"/><stop stop-color="#D6B088" offset=".7"/><stop stop-color="#CCA47A" offset="1"/></linearGradient><path d="M124 72.5c0-3-2.4-5.5-5.5-5.6-2.5-.1-8.7 1.4-12.2-.2-8.6-4-44-22.7-44-22.7-3.2-1.7-10.8-4.2-14.7-3.3L19.3 52c-2.8.7-5 2.4-6.4 4.5-1 1.2-2.2 9.4-3.8 16.9S5.7 85.8 5.7 85.8c-1.6 5.6 2.9 9.4 6.9 10.1s9.2-1.7 10.7-7.4l3.3-15.8a6.3 6.3 0 0 1 5.3-4.9l10 .4-3.5 18s17.7 22.7 42.8 28c9.2 2 17.8-3.7 24.4-4.1 3-.2 9.4.4 12.2 1.3 3 .9 6.2-1.4 6.2-4.6V72.5z" fill="url(#a)"/><linearGradient id="b" x1="20.6" x2="104.7" y1="104.2" y2="104.2" gradientUnits="userSpaceOnUse"><stop stop-color="#CCA47A" offset="0"/><stop stop-color="#CCA47A" offset="1"/></linearGradient><path d="M87.7 115.8a72.5 72.5 0 0 1-22.8-6.7c-5-2.2-10.6-2.4-15.7-.6l-5.1 1.8c-4.9 1.7-10.4.1-13.4-4L20.7 93l84-.2s-1.6 23.4-17 23z" fill="url(#b)"/><path d="M40.6 72.8l15-24.9-.1 4.2c-.1 4.2 2.7 8 6.8 9.4L40.6 72.7z" fill="#BA8F63"/><path d="M23.6 111L6.4 123.7c-1.2.9-2.7-.1-2.3-1.6l4.7-19.7c0-.5.3-1 .5-1.3l57-94.9c1.2-2 3.7-2.8 5.5-1.7l8.8 4.9c1.8 1 2.3 3.5 1.1 5.5l-56.9 94.7c-.3.5-.7 1-1.2 1.4z" fill="#1E88E5"/><radialGradient id="c" cx="34.4" cy="67.1" r="44.6" gradientUnits="userSpaceOnUse"><stop stop-color="#E0BB95" offset=".6"/><stop stop-color="#CCA47A" offset="1"/></radialGradient><path d="M87.7 114.3a76.5 76.5 0 0 1-22.2-6.6 22.7 22.7 0 0 0-16.8-.6l-5.1 1.8a10.3 10.3 0 0 1-11.7-3.5l-1.4-1.8c-.2-.3-.7-.6-1.2-.6h-1.1c-2.8 0-4.8-1-5.9-3.3-1-2-1-4-.3-6a1.5 1.5 0 0 0-1.5-2c-.3 0-.7.2-1 .5a8.1 8.1 0 0 1-6.7 2.2c-2-.3-4-1.6-5-3.3a6 6 0 0 1-.7-4.9c.2-.7 2-5.5 3.5-12.5.5-2.4 1-4.8 1.3-7.1.7-3.7 1.6-8.3 2.1-9.1v-.1c1.4-2 3.4-3.4 5.6-4h.2L48 42.2l1.6-.2c3.8 0 9.5 2 12 3.3.3.2 35.6 18.7 44 22.7 1.4.6 3 1 5 1 1.8 0 3.4-.2 5-.4l2.6-.2h.2a4 4 0 0 1 4 4v34.4c0 .9-.3 1.7-.9 2.3a3.4 3.4 0 0 1-3.3.8 51.3 51.3 0 0 0-12.7-1.3c-2.6.1-5.5 1-8.5 2l-.6.3-.6.3c-2.2 2-4.8 3-7.8 3h-.3zM22 88c0 .4-.2.6-.3.9a1.5 1.5 0 0 0 2.5 1.5 11 11 0 0 1 2.8-2l13.6-8.1c.4-.3.7-.6.7-1l2.2-10.8a1.5 1.5 0 0 0-1.5-1.8h-.2l-8.5.8c-3.3.5-6 2.9-6.6 6L21.9 88z" fill="url(#c)"/><path d="M49.6 43.5a31 31 0 0 1 11.3 3.1c1.4.8 35.6 18.8 44.2 22.8 1.5.7 3.3 1 5.6 1a44.8 44.8 0 0 0 7.5-.5h.1c1.5 0 2.7 1.2 2.7 2.6v34.3c0 1-1 1.7-1.8 1.7a36.9 36.9 0 0 0-22.6.7l-.7.2a3 3 0 0 0-1 .7 9.6 9.6 0 0 1-6.9 2.6h-.2a68 68 0 0 1-21.7-6.4 24.2 24.2 0 0 0-17.9-.6l-5.1 1.8a8.9 8.9 0 0 1-10-3l-1.4-1.8a3 3 0 0 0-2.4-1.2h-1.1c-3 0-4-1.4-4.5-2.5a5.8 5.8 0 0 1-.3-4.7 3 3 0 0 0 0-2 3 3 0 0 0 1.8-.8c.7-.7 1.5-1.3 2.4-1.8h.1l13.6-8.2a3 3 0 0 0 1.4-2l2.1-10.7a3 3 0 0 0-3-3.6h-.2L33 66a9.3 9.3 0 0 0-7.8 7.1l-4.6 14.5-.3.8a3 3 0 0 0 0 1.9 3 3 0 0 0-1.7.8c-1.3 1.2-3 2-4.6 2l-.8-.1a6.2 6.2 0 0 1-4-2.6 4 4 0 0 1-.6-3.7 91.5 91.5 0 0 0 5-19.8 72 72 0 0 1 1.8-8.6 7.9 7.9 0 0 1 5-3.5l28.2-11.2h1.1m0-3l-2 .1L19.3 52c-2.8.7-5 2.4-6.4 4.6-1 1.1-2.2 9.3-3.8 16.8a86.3 86.3 0 0 1-3.4 12.4c-1.6 5.6 3 9.4 6.9 10.1l1.3.1c2.3 0 4.8-.9 6.7-2.7-.8 2.2-.8 4.6.4 7 1.5 3 4.2 4.3 7.2 4.3h1.2l1.3 1.7a11.7 11.7 0 0 0 13.4 4l5.1-1.8a21.4 21.4 0 0 1 15.7.6c6.7 3 16.5 6.5 22.8 6.6h.3c3.7 0 6.6-1.3 8.9-3.4 3.2-1 6-2 8.7-2.2h1.2a50.8 50.8 0 0 1 12.4 1.4c2.6 0 4.8-2 4.8-4.7V72.5c0-3-2.4-5.5-5.5-5.6h-.3c-1.7 0-4.7.5-7.5.5-1.6 0-3.1-.1-4.3-.7-8.6-4-44.1-22.7-44.1-22.7a32.8 32.8 0 0 0-12.7-3.5zM23 89.3l.3-1L28 74a6.3 6.3 0 0 1 5.3-5l8.6-.7L39.8 79l-13.6 8c-1.2.7-2.3 1.5-3.2 2.4z" fill="#BA8F63"/><linearGradient id="d" x1="67.4" x2="15.2" y1="18.6" y2="112.6" gradientUnits="userSpaceOnUse"><stop stop-color="#64B5F6" offset="0"/><stop stop-color="#2196F3" offset="1"/></linearGradient><path d="M23.6 111L6.4 123.7c-1.2.9-2.7-.1-2.3-1.6l4.7-19.7c0-.5.3-1 .5-1.3l57-94.9c1.2-2 3.7-2.8 5.5-1.7l8.8 4.9c1.8 1 2.3 3.5 1.1 5.5l-56.9 94.7c-.3.5-.7 1-1.2 1.4z" fill="url(#d)"/><path d="M70 7h.3l8.8 5s.2.1.2.4c0 .1.1.5-.2 1L22.3 108l-.5.5L8 118.8l3.8-15.7c0-.2 0-.3.2-.5L69 7.8c.3-.6.8-.8 1.1-.8m0-3c-1.4 0-2.9.8-3.7 2.2l-57 94.9-.5 1.3L4 122c-.2 1 .5 1.9 1.4 1.9.4 0 .7-.1 1-.3L23.6 111c.5-.4 1-.9 1.3-1.4l56.8-94.7c1.2-2 .7-4.5-1.1-5.5l-8.8-5c-.5-.3-1.1-.4-1.8-.4z" fill="#424242" opacity=".2"/><radialGradient id="e" cx="47.5" cy="76.1" r="35.2" gradientTransform="matrix(1.0356 0 0 1.0036 8 3.4)" gradientUnits="userSpaceOnUse"><stop stop-color="#E0BB95" offset="0"/><stop stop-color="#DEB892" offset=".4"/><stop stop-color="#D6B088" offset=".7"/><stop stop-color="#CCA47A" offset="1"/></radialGradient><path d="M78.7 64.5c-12.4-4.8-22-4-29 1.5-4.9 3.8-22.4 16.3-30 24.5-3.7 3.9-.3 8.3 2.9 10.3 6.2 4 12.5 3.6 26-4.6 7-4.3 11.4-.7 16.4 2.6 0 0 7.7 6.4 14.5 8.8s22.6-1.3 28-9.3c5.8-8.9-3.7-24.3-28.8-33.8z" fill="url(#e)"/><defs><path id="f" d="M74.8 63.1c-2-.6-4-1-6-1.3-7.7-1.3-14 .2-19.1 4.2-4.8 3.8-22.4 16.3-30 24.5-3.7 3.9-.3 8.3 2.9 10.3 6.2 3.9 12.5 3.6 26-4.6 7-4.3 11.5-.7 16.4 2.6 0 0 7.7 6.4 14.5 8.8 2.7 1 6.7 1 11 .1-20.1-.3-28-39.4-28-39.4s0-4.1 12.3-5.2z"/></defs><clipPath id="g"><use xlink:href="#f"/></clipPath><g clip-path="url(#g)"><path d="M63.7 64.3c2.3 0 4.9.4 7.5 1a46 46 0 0 0 12.4 40c-1.5 0-2.5-.3-3.1-.5a53.9 53.9 0 0 1-13.6-8.3l-.2-.2-.7-.4c-3.3-2.3-6.8-4.7-11.2-4.7-2.6 0-5 .8-7.7 2.4-7.6 4.6-12.7 6.6-16.7 6.6-2.1 0-4-.6-6.3-2-1.6-1-2.9-2.6-3-3.8-.1-.5 0-1 .7-1.9 5.8-6.2 17.8-15.2 25-20.5l4.7-3.7a19 19 0 0 1 12.2-4m0-3a22 22 0 0 0-14 4.7c-4.9 3.8-22.4 16.3-30 24.5-3.7 3.9-.3 8.3 2.9 10.3 2.4 1.5 5 2.4 7.8 2.4 4.5 0 10-2 18.2-7 2.3-1.4 4.3-2 6.2-2 3.8 0 6.9 2.4 10.2 4.6 0 0 7.7 6.4 14.5 8.8 1.3.5 3 .7 5 .7 1.9 0 4-.2 6-.6-13-11-20-27.6-15.7-44.6-4-1.2-7.7-1.8-11-1.8z" fill="#BA8F63"/></g></svg>