<svg viewBox="0 0 128 128" xmlns="http://www.w3.org/2000/svg"><linearGradient id="a" x1="64" x2="64" y1="3.3" y2="124.8" gradientUnits="userSpaceOnUse"><stop stop-color="#FF8A65" offset="0"/><stop stop-color="#FF845D" offset=".2"/><stop stop-color="#FF7448" offset=".6"/><stop stop-color="#FF5A26" offset="1"/><stop stop-color="#FF5722" offset="1"/></linearGradient><path d="M122.8 16.5L111.5 5.2a4 4 0 0 0-5.7 0L65.6 45.6a2 2 0 0 1-2.8 0L22.1 5.2a4 4 0 0 0-5.6 0L5.2 16.5a4 4 0 0 0 0 5.7l40.7 40.4c.7.8.7 2 0 2.8L5.2 106a4 4 0 0 0 0 5.6l11.3 11.3a4 4 0 0 0 5.6 0l40.7-40.4a2 2 0 0 1 2.9 0l40.2 40.4a4 4 0 0 0 5.6 0l11.3-11.3a4 4 0 0 0 0-5.6L82.6 65.4a2 2 0 0 1 0-2.8l40.2-40.4a4 4 0 0 0 0-5.7z" fill="url(#a)"/><path d="M108.7 7c.1 0 .4 0 .7.3l11.3 11.3a1 1 0 0 1 0 1.4L80.5 60.5a5 5 0 0 0 0 7l40.2 40.5c.4.4.4 1 0 1.4l-11.3 11.3a1 1 0 0 1-1.4 0L67.8 80.3a5 5 0 0 0-7 0L20 120.7a1 1 0 0 1-.7.3 1 1 0 0 1-.7-.3L7.3 109.4a1 1 0 0 1 0-1.4L48 67.5a5 5 0 0 0 0-7L7.3 20a1 1 0 0 1-.3-.7c0-.1 0-.4.3-.7L18.6 7.3a1 1 0 0 1 1.4 0l40.7 40.4a5 5 0 0 0 7 0L108 7.3c.2-.3.5-.3.7-.3m0-3c-1 0-2 .4-2.8 1.2L65.7 45.6a2 2 0 0 1-2.9 0L22.1 5.2a4 4 0 0 0-5.6 0L5.2 16.5a4 4 0 0 0 0 5.7l40.7 40.4c.7.8.7 2 0 2.8L5.2 106a4 4 0 0 0 0 5.6l11.3 11.3a4 4 0 0 0 5.6 0l40.7-40.4a2 2 0 0 1 2.8 0l40.3 40.4a4 4 0 0 0 5.6 0l11.3-11.3a4 4 0 0 0 0-5.6L82.6 65.4a2 2 0 0 1 0-2.8l40.2-40.4a4 4 0 0 0 0-5.7L111.5 5.2a4 4 0 0 0-2.8-1.2z" fill="#424242" opacity=".2"/></svg>