<svg viewBox="0 0 128 128" xmlns="http://www.w3.org/2000/svg"><linearGradient id="a" x1="64" x2="64" y1="4.3" y2="124.4" gradientUnits="userSpaceOnUse"><stop stop-color="#B388FF" offset="0"/><stop stop-color="#A175FF" offset=".4"/><stop stop-color="#7C4DFF" offset="1"/></linearGradient><path d="M116 124H12a8 8 0 0 1-8-8V12a8 8 0 0 1 8-8h104a8 8 0 0 1 8 8v104a8 8 0 0 1-8 8z" fill="url(#a)"/><path d="M116 7a5 5 0 0 1 5 5v104a5 5 0 0 1-5 5H12a5 5 0 0 1-5-5V12a5 5 0 0 1 5-5h104m0-3H12a8 8 0 0 0-8 8v104a8 8 0 0 0 8 8h104a8 8 0 0 0 8-8V12a8 8 0 0 0-8-8z" fill="#424242" opacity=".2"/><path d="M64 16a5 5 0 0 1 5 5v22h18a5 5 0 0 1 0 10H69v54a5 5 0 0 1-10 0V53H41a5 5 0 0 1 0-10h18V21a5 5 0 0 1 5-5m0-3a8 8 0 0 0-8 8v19H41a8 8 0 0 0 0 16h15v51a8 8 0 0 0 16 0V56h15a8 8 0 0 0 0-16H72V21a8 8 0 0 0-8-8z" fill="#424242" opacity=".2"/><path d="M87 43H69V21a5 5 0 0 0-10 0v22H41a5 5 0 0 0 0 10h18v54a5 5 0 0 0 10 0V53h18a5 5 0 0 0 0-10z" fill="#FAFAFA"/></svg>