<svg viewBox="0 0 128 128" xmlns="http://www.w3.org/2000/svg"><path d="M50 4.5l3.2 22.6a26.4 26.4 0 0 0 20.6 22.5l15.7 3.5-15.7 3.4a26.4 26.4 0 0 0-20.5 22.6l-3.4 26.8L46.6 79a26.4 26.4 0 0 0-20.5-22.6L10.4 53 26 49.6a26.4 26.4 0 0 0 20.5-22.5L50 4.5z" fill="#FFEA00"/><path d="M50 25.2l.3 2.3a29.4 29.4 0 0 0 22.8 25l2.4.6-2.4.5a29.4 29.4 0 0 0-22.8 25l-.3 2.8-.4-2.7a29.4 29.4 0 0 0-22.8-25.1l-2.4-.5 2.4-.6a29.4 29.4 0 0 0 22.8-25l.3-2.3m0-20.7l-3.3 22.6a26.4 26.4 0 0 1-20.5 22.5l-15.7 3.5L26 56.5a26.4 26.4 0 0 1 20.5 22.6l3.3 26.8L53.3 79a26.4 26.4 0 0 1 20.5-22.6L89.5 53l-15.7-3.5A26.4 26.4 0 0 1 53.3 27L49.9 4.5z" fill="#424242" opacity=".2"/><path d="M97.1 9l1.7 12c.7 6.5 5 11.7 10.7 13l8.1 2-8.1 2a15 15 0 0 0-10.7 13.1l-1.7 15.5L95.4 51c-.7-6.4-5-11.6-10.6-13l-8.2-2 8.2-2c5.6-1.4 9.9-6.6 10.6-13l1.7-12z" fill="#FFF59D"/><path d="M97.1 26.5a18 18 0 0 0 9 9.6 18 18 0 0 0-9 9.6c-1.7-4.3-5-7.8-9-9.6 4-1.8 7.3-5.3 9-9.6m0-17.5l-1.7 12c-.7 6.5-5 11.7-10.6 13l-8.2 2 8.2 2a15 15 0 0 1 10.6 13.1l1.7 15.5L98.8 51c.7-6.4 5-11.6 10.7-13l8.1-2-8.1-2c-5.7-1.4-10-6.6-10.7-13L97.1 9z" fill="#424242" opacity=".2"/><path d="M85.5 61l2.1 12.8a17 17 0 0 0 13.2 14.5l10 2.2-10 2.2A17 17 0 0 0 87.5 107l-2.1 17.1-2.1-17.1a16.9 16.9 0 0 0-13.2-14.4l-10-2.2 10-2.2a17 17 0 0 0 13.2-14.5l2-12.9z" fill="#FDD835"/><path d="M85.5 78a20 20 0 0 0 12.1 12.5 20 20 0 0 0-12.1 12.4 20 20 0 0 0-12.1-12.4 20 20 0 0 0 12-12.5m0-17l-2 12.8a16.9 16.9 0 0 1-13.2 14.5l-10 2.2 10 2.2A17 17 0 0 1 83.4 107l2 17.1 2.2-17.1a17 17 0 0 1 13.2-14.4l10-2.2-10-2.2a17 17 0 0 1-13.2-14.5L85.5 61z" fill="#424242" opacity=".2"/></svg>