<svg viewBox="0 0 128 128" xmlns="http://www.w3.org/2000/svg"><linearGradient id="a" x1="42" x2="86.4" y1="26.4" y2="103.2" gradientUnits="userSpaceOnUse"><stop stop-color="#E3F2FD" offset="0"/><stop stop-color="#90CAF9" offset="1"/></linearGradient><path d="M113.1 84.4L102 77.9l8.5-2.1c3-.8 4.8-3.9 4-6.9-1-3-4-4.8-7-4l-19.7 5-9.8-5.7 10.5-6 18.8 4.8c3 .8 6.2-1 7-4 1-3-.8-6-3.9-6.9l-7.7-2 10.7-6.1a7 7 0 1 0-7-12.2l-11.2 6.5 2.5-8.5c.9-3-1-6-4-6.9-3-.7-6.1 1-7 4L81 46.5 71 52V39.7l13.5-14a5.9 5.9 0 0 0 0-8 5.5 5.5 0 0 0-8 0L71 23.4V11a7 7 0 1 0-14 0v13l-6.1-6.4a5.5 5.5 0 0 0-8 0 5.9 5.9 0 0 0 0 8.1L57 40.3v12l-10.5-6.1-5.6-19.3c-.8-3-4-4.8-7-4-3 .7-4.8 3.8-4 6.8l2.5 8.4-11.2-6.4a7 7 0 0 0-7 12.1L25 50l-7.8 2c-3 .7-4.8 3.8-4 6.9 1 3 4 4.7 7 4l19-4.8 10.6 6.1-10 5.8-19.5-5c-3-.8-6.2 1-7 4-1 3 .8 6.2 3.9 7l8.4 2-11.2 6.5a7 7 0 1 0 7 12.1L32 90.4l-2 7.7c-.9 3 .9 6.2 4 7a6 6 0 0 0 7-4l5.4-18.8 10.7-6v11.5l-14 14.4a5.9 5.9 0 0 0 0 8.1 5.5 5.5 0 0 0 8 0l6-6.2V117a7 7 0 1 0 14 0v-12.4l5.6 5.7a5.5 5.5 0 0 0 8 0 5.9 5.9 0 0 0 0-8L71 88.2v-12l10.3 6 5.4 18.6c.8 3 4 4.8 7 4 3-.7 4.8-3.8 4-6.8l-2.3-7.8 10.8 6.2a7 7 0 0 0 7-12.1z" fill="url(#a)"/><path d="M64 6a5 5 0 0 1 5 5v12.4a2 2 0 0 0 2 2c.5 0 1-.2 1.4-.6L78 19a3.5 3.5 0 0 1 5 0 3.9 3.9 0 0 1 0 5.4l-13.4 14a2 2 0 0 0-.6 1.3v12.4a2 2 0 0 0 3 1.7l10-5.7a2 2 0 0 0 1-1.2l5.5-19.4a4 4 0 0 1 4.6-2.6 3.5 3.5 0 0 1 2.6 4.4l-2.5 8.4a2 2 0 0 0 3 2.3l11.2-6.4a5 5 0 0 1 6.8 1.8 5 5 0 0 1-1.9 6.9l-10.7 6.1a2 2 0 0 0 .5 3.7l7.7 2a3.5 3.5 0 0 1 2.6 4.4 4 4 0 0 1-4.7 2.6L89 56.3a2 2 0 0 0-1.5.2l-10.4 6c-.7.4-1 1-1 1.8s.3 1.3 1 1.7l9.8 5.6a2 2 0 0 0 1.4.2l19.6-5h1c1.6 0 3.2 1 3.6 2.7a3.5 3.5 0 0 1-2.5 4.4l-8.5 2.1a2 2 0 0 0-.5 3.7l11 6.3c1.2.7 2 1.8 2.4 3s.2 2.7-.5 3.9a5 5 0 0 1-6.8 1.8l-10.8-6.2a2 2 0 0 0-1-.2 2 2 0 0 0-2 2.6l2.3 7.6a3.5 3.5 0 0 1-2.5 4.4l-1 .2a3.9 3.9 0 0 1-3.6-2.8l-5.4-18.7a2 2 0 0 0-1-1.2L72 74.6a2 2 0 0 0-2 0c-.6.4-1 1-1 1.8v11.9c0 .5.2 1 .6 1.4l13.5 14a3.9 3.9 0 0 1 0 5.3 3.5 3.5 0 0 1-5 0l-5.7-5.8a2 2 0 0 0-2.1-.5 2 2 0 0 0-1.3 1.9V117a5 5 0 0 1-10 0v-12.9a2 2 0 0 0-2-2 2 2 0 0 0-1.4.6l-6 6.2a3.5 3.5 0 0 1-5.1 0 3.9 3.9 0 0 1 0-5.3l14-14.4c.3-.4.5-.9.5-1.4V76.2a2 2 0 0 0-3-1.7l-10.7 6.1a2 2 0 0 0-1 1.2L39 100.5a4 4 0 0 1-4.6 2.6 3.5 3.5 0 0 1-2.5-4.4L34 91a2 2 0 0 0-2.9-2.3L20.3 95a5 5 0 0 1-6.8-1.9 5 5 0 0 1 1.9-6.8l11.2-6.4a2 2 0 0 0-.5-3.7L17.7 74a3.5 3.5 0 0 1-2.5-4.4 4 4 0 0 1 4.6-2.6l19.4 5a2 2 0 0 0 1.5-.3l10-5.8c.7-.3 1-1 1-1.7s-.3-1.4-1-1.7l-10.6-6.1a2 2 0 0 0-1.5-.2L19.8 61h-1a3.9 3.9 0 0 1-3.6-2.7 3.5 3.5 0 0 1 2.5-4.4l7.8-2a2 2 0 0 0 .5-3.6L15.2 42a5 5 0 0 1 5-8.7l11.2 6.4c.3.2.6.3 1 .3a2 2 0 0 0 2-2.6l-2.5-8.3a3.5 3.5 0 0 1 2.5-4.4l.9-.1c1.7 0 3.2 1.1 3.7 2.7l5.6 19.3c0 .5.4 1 .9 1.2l10.5 6c.3.2.6.3 1 .3a2 2 0 0 0 1-.3c.6-.3 1-1 1-1.7v-12c0-.4-.2-1-.6-1.3l-14-14.5a3.9 3.9 0 0 1 0-5.3 3.5 3.5 0 0 1 5 0l6.2 6.3a2 2 0 0 0 2.2.4A2 2 0 0 0 59 24V11a5 5 0 0 1 5-5m0-2a7 7 0 0 0-7 7v13l-6.1-6.3a5.5 5.5 0 0 0-8 0 5.9 5.9 0 0 0 0 8L57 40.3v12l-10.5-6.1-5.6-19.3a5.9 5.9 0 0 0-7-4c-3 .7-4.8 3.8-4 6.9l2.5 8.3-11.2-6.4a7 7 0 0 0-9.6 2.6 7 7 0 0 0 2.6 9.5L25 50l-7.8 2c-3 .7-4.8 3.8-4 6.9a5.9 5.9 0 0 0 7 4l19-4.8 10.6 6.1-10 5.8-19.5-5-1.4-.2a5.9 5.9 0 0 0-5.7 4.2c-.8 3 1 6.2 4 7l8.4 2-11.2 6.5a7 7 0 1 0 7 12.1L32 90.4l-2 7.7a5.5 5.5 0 0 0 5.3 7.1A6 6 0 0 0 41 101l5.4-18.7 10.7-6v11.5l-14 14.5a5.9 5.9 0 0 0 0 8 5.5 5.5 0 0 0 8 0l6-6.2V117a7 7 0 1 0 14 0v-12.4l5.6 5.7a5.5 5.5 0 0 0 8 0 5.9 5.9 0 0 0 0-8L71 88.2v-12l10.3 6 5.4 18.6a5.9 5.9 0 0 0 7 4c3-.7 4.8-3.8 4-6.8l-2.3-7.8 10.8 6.2a7 7 0 0 0 9.5-2.6 7 7 0 0 0-2.6-9.5L102 77.9l8.5-2.1c3-.8 4.8-3.9 4-7a5.9 5.9 0 0 0-7-4l-19.7 5-9.7-5.6 10.4-6 18.9 4.8c.4.2.9.2 1.4.2 2.5 0 4.9-1.7 5.6-4.2.8-3-1-6-4-6.9l-7.7-2 10.7-6.1a7 7 0 1 0-7-12.2l-11.2 6.5 2.5-8.5a5.5 5.5 0 0 0-5.4-7 5.9 5.9 0 0 0-5.6 4.1L81 46.4 71 52V39.7l13.5-14a5.9 5.9 0 0 0 0-8 5.5 5.5 0 0 0-8 0L71 23.4V11a7 7 0 0 0-7-7z" fill="#424242" opacity=".2"/></svg>