<svg viewBox="0 0 128 128" xmlns="http://www.w3.org/2000/svg"><g fill="url(#a)"><linearGradient id="a" x1="64" x2="64" y1="4.4" y2="123.3" gradientUnits="userSpaceOnUse"><stop stop-color="#FF5252" offset="0"/><stop stop-color="#FD4D4D" offset=".2"/><stop stop-color="#F64040" offset=".4"/><stop stop-color="#EA2A2A" offset=".7"/><stop stop-color="#DA0B0B" offset=".9"/><stop stop-color="#D50000" offset="1"/></linearGradient><ellipse cx="64" cy="112" rx="12" ry="12"/><path d="M70.1 92H58a4 4 0 0 1-4-4L52 8a4 4 0 0 1 4-4h16a4 4 0 0 1 4 4l-1.8 80a4 4 0 0 1-4 4z"/></g><path d="M64 103a9 9 0 1 1 0 18 9 9 0 0 1 0-18m0-3a12 12 0 1 0 0 24 12 12 0 0 0 0-24zm8-93c.4 0 .6.2.7.3.1.1.3.4.3.7l-1.8 80c0 .6-.5 1-1 1H57.8a1 1 0 0 1-1-1L55 8c0-.3.1-.6.3-.7.1-.1.3-.3.7-.3h16m0-3H56a4 4 0 0 0-4 4l1.8 80a4 4 0 0 0 4 4h12.3a4 4 0 0 0 4-4L76 8a4 4 0 0 0-4-4z" fill="#424242" opacity=".2"/></svg>