<svg viewBox="0 0 128 128" xmlns="http://www.w3.org/2000/svg"><linearGradient id="a" x1="64" x2="64" y1="3.3" y2="124.8" gradientUnits="userSpaceOnUse"><stop stop-color="#FFEB3B" offset="0"/><stop stop-color="#FFE93A" offset="0"/><stop stop-color="#FDD835" offset=".5"/><stop stop-color="#FCCF32" offset=".7"/><stop stop-color="#FBC02D" offset="1"/></linearGradient><path d="M120 52H78a2 2 0 0 1-2-2V8a4 4 0 0 0-4-4H56a4 4 0 0 0-4 4v42a2 2 0 0 1-2 2H8a4 4 0 0 0-4 4v16a4 4 0 0 0 4 4h42a2 2 0 0 1 2 2v42a4 4 0 0 0 4 4h16a4 4 0 0 0 4-4V78c0-1.1.9-2 2-2h42a4 4 0 0 0 4-4V56a4 4 0 0 0-4-4z" fill="url(#a)"/><path d="M72 7c.6 0 1 .5 1 1v42a5 5 0 0 0 5 5h42c.6 0 1 .5 1 1v16c0 .6-.5 1-1 1H78a5 5 0 0 0-5 5v42c0 .6-.5 1-1 1H56a1 1 0 0 1-1-1V78a5 5 0 0 0-5-5H8a1 1 0 0 1-1-1V56c0-.6.5-1 1-1h42a5 5 0 0 0 5-5V8c0-.6.5-1 1-1h16m0-3H56a4 4 0 0 0-4 4v42a2 2 0 0 1-2 2H8a4 4 0 0 0-4 4v16a4 4 0 0 0 4 4h42a2 2 0 0 1 2 2v42a4 4 0 0 0 4 4h16a4 4 0 0 0 4-4V78c0-1.1.9-2 2-2h42a4 4 0 0 0 4-4V56a4 4 0 0 0-4-4H78a2 2 0 0 1-2-2V8a4 4 0 0 0-4-4z" fill="#424242" opacity=".2"/></svg>