<svg viewBox="0 0 128 128" xmlns="http://www.w3.org/2000/svg"><linearGradient id="a" x1="64" x2="64" y1="4.3" y2="124.4" gradientUnits="userSpaceOnUse"><stop stop-color="#40C4FF" offset="0"/><stop stop-color="#2DB5F9" offset=".4"/><stop stop-color="#0091EA" offset="1"/></linearGradient><path d="M116 124H12a8 8 0 0 1-8-8V12a8 8 0 0 1 8-8h104a8 8 0 0 1 8 8v104a8 8 0 0 1-8 8z" fill="url(#a)"/><path d="M116 7a5 5 0 0 1 5 5v104a5 5 0 0 1-5 5H12a5 5 0 0 1-5-5V12a5 5 0 0 1 5-5h104m0-3H12a8 8 0 0 0-8 8v104a8 8 0 0 0 8 8h104a8 8 0 0 0 8-8V12a8 8 0 0 0-8-8z" fill="#424242" opacity=".2"/><path d="M78 36a4 4 0 0 1 2.6 1l24 24a4 4 0 0 1 0 6l-24 24a4 4 0 0 1-6.6-3V74a2 2 0 0 0-2-2H26a4 4 0 0 1-4-4v-8a4 4 0 0 1 4-4h46a2 2 0 0 0 2-2V40c0-2.4 2-4 4-4m0-3a7 7 0 0 0-7 7v13H26a7 7 0 0 0-7 7v8a7 7 0 0 0 7 7h45v13a7 7 0 0 0 11.6 5.3l.2-.2 23.9-24a7 7 0 0 0 0-10.3l-24-24A7 7 0 0 0 78 33z" fill="#424242" opacity=".2"/><path d="M80.6 37l24 24a4 4 0 0 1 0 6l-24 24a4 4 0 0 1-6.6-3V74a2 2 0 0 0-2-2H26a4 4 0 0 1-4-4v-8a4 4 0 0 1 4-4h46a2 2 0 0 0 2-2V40a4 4 0 0 1 6.6-3z" fill="#FAFAFA"/></svg>