<svg viewBox="0 0 128 128" xmlns="http://www.w3.org/2000/svg"><linearGradient id="a" x1="64" x2="64" y1="4.3" y2="124.4" gradientUnits="userSpaceOnUse"><stop stop-color="#40C4FF" offset="0"/><stop stop-color="#2DB5F9" offset=".4"/><stop stop-color="#0091EA" offset="1"/></linearGradient><path d="M116 124H12a8 8 0 0 1-8-8V12a8 8 0 0 1 8-8h104a8 8 0 0 1 8 8v104a8 8 0 0 1-8 8z" fill="url(#a)"/><path d="M116 7a5 5 0 0 1 5 5v104a5 5 0 0 1-5 5H12a5 5 0 0 1-5-5V12a5 5 0 0 1 5-5h104m0-3H12a8 8 0 0 0-8 8v104a8 8 0 0 0 8 8h104a8 8 0 0 0 8-8V12a8 8 0 0 0-8-8z" fill="#424242" opacity=".2"/><path d="M54 16c17.7 0 32 12.5 32 28v34c0 1.1.9 2 2 2h14a4 4 0 0 1 3 6.6l-24 24a4 4 0 0 1-6 0l-24-24a4 4 0 0 1 3-6.6h14a2 2 0 0 0 2-2V44c0-6.5-7.3-12-16-12-7.4 0-13.8 4-15.6 9.3a4 4 0 0 1-3.8 2.7h-8.2a4 4 0 0 1-4-4.7C25 26 38.3 16 54 16m0-3c-17.1 0-31.6 10.8-34.5 25.7a7 7 0 0 0 6.9 8.3h8.3c3 0 5.7-2 6.6-4.8C42.6 38 48.1 35 54 35c7 0 13 4.2 13 9v33H54a7 7 0 0 0-6.4 4.1 7 7 0 0 0 1.1 7.5h.1v.2l24 23.9a7 7 0 0 0 10.4 0l24-24c1.9-2.2 2.3-5 1.2-7.6s-3.6-4-6.4-4H89V44c0-17-15.7-31-35-31z" fill="#424242" opacity=".2"/><path d="M34.6 44a4 4 0 0 0 3.8-2.8C40.2 36 46.6 32 54 32c8.7 0 16 5.5 16 12v34a2 2 0 0 1-2 2H54a4 4 0 0 0-3 6.6l24 24a4 4 0 0 0 6 0l24-24a4 4 0 0 0-3-6.6H88a2 2 0 0 1-2-2V44c0-15.5-14.3-28-32-28-15.8 0-29 10-31.6 23.3a4 4 0 0 0 4 4.7h8.3z" fill="#FAFAFA"/></svg>