<svg viewBox="0 0 128 128" xmlns="http://www.w3.org/2000/svg"><linearGradient id="a" x1="64" x2="64" y1="43.2" y2="84.9" gradientUnits="userSpaceOnUse"><stop stop-color="#616161" offset="0"/><stop stop-color="#505050" offset=".3"/><stop stop-color="#242424" offset="1"/><stop stop-color="#212121" offset="1"/></linearGradient><path d="M122.3 50.9a6.7 6.7 0 0 0-5-2.2h-2.7a6.7 6.7 0 0 0-6.6 5.7 13 13 0 0 1-2.5 6.4c-1.6 2-3.5 3-6 3l-1.6-.1h-.1c-1.6-.4-4.4-1.6-8.6-5.7a46 46 0 0 0-11.5-8.6 25.4 25.4 0 0 0-11.1-2.6c-8.2 0-12.8 5.3-16.8 9.9-3.3 3.8-6.2 7-10.6 7h-1.8c-1.5-.4-4.3-1.6-8.6-5.7a46 46 0 0 0-11.4-8.6c-1.7-.8-3.5-1.4-5.2-1.9A6.5 6.5 0 0 0 6 49.3c-1.3 1.3-2 3-2 4.7v4.2c0 3 2 5.6 4.8 6.4l1.5.6c1 .5 3 2 7.6 6.1A41 41 0 0 0 28.7 79c3.3 1.4 6.8 2.2 10.4 2.2 9.8 0 15.5-6.3 20-11.3 2.8-3 5.2-5.7 7.5-5.7a8 8 0 0 1 4 1c1 .5 3.1 2 7.6 6.1A41 41 0 0 0 89.1 79c3.2 1.4 6.7 2.2 10.3 2.2 7 0 13-3 17.8-8.9A31 31 0 0 0 124 56c.2-1.8-.4-3.7-1.7-5.1z" fill="url(#a)"/><path d="M66.6 49.8c3.4 0 6.7.8 9.8 2.3 3.2 1.5 6.7 4.2 10.7 8a22.4 22.4 0 0 0 10.6 6.6h1.6l.2.1c3.4 0 6.3-1.4 8.4-4.2a16 16 0 0 0 3-7.8 3.7 3.7 0 0 1 3.7-3.1h2.7a3.7 3.7 0 0 1 3.7 4 28 28 0 0 1-6 14.8 19.3 19.3 0 0 1-15.6 7.7c-3.2 0-6.3-.7-9.1-1.9a38 38 0 0 1-10-7.2 46.5 46.5 0 0 0-8.3-6.6c-1.7-.8-3.5-1.3-5.4-1.3-3.6 0-6.4 3.1-9.7 6.7-4.3 4.8-9.3 10.3-17.8 10.3-3.2 0-6.3-.6-9.2-1.9a38 38 0 0 1-10-7.2 46.5 46.5 0 0 0-8.2-6.6l-2-.8A3.7 3.7 0 0 1 7 58.2V54a3.7 3.7 0 0 1 3.6-3.6h.8c1.6.4 3.2 1 4.7 1.7a48 48 0 0 1 10.6 8 22.4 22.4 0 0 0 10.7 6.6H39l.2.1c5.8 0 9.4-4.2 12.8-8.1 4-4.6 7.7-8.9 14.6-8.9m0-3c-8.3 0-12.8 5.3-16.8 9.9-3.3 3.8-6.2 7-10.6 7h-1.8c-1.5-.4-4.3-1.6-8.6-5.7a46 46 0 0 0-11.4-8.6c-1.7-.8-3.5-1.4-5.3-1.9A6.5 6.5 0 0 0 6 49.3c-1.3 1.3-2 3-2 4.7v4.2c0 3 2 5.6 4.8 6.4l1.5.6c1 .5 3 2 7.6 6.1A41 41 0 0 0 28.7 79a25 25 0 0 0 10.4 2.2c9.8 0 15.5-6.3 20-11.3 2.8-3 5.2-5.7 7.5-5.7a8 8 0 0 1 4 1c1 .5 3.1 2 7.6 6.1A41 41 0 0 0 89.1 79c3.2 1.5 6.7 2.2 10.3 2.2 7 0 13-3 17.8-8.8A31 31 0 0 0 124 56c.2-2-.4-3.8-1.7-5.2a6.7 6.7 0 0 0-5-2.2h-2.7a6.7 6.7 0 0 0-6.6 5.7 13 13 0 0 1-2.5 6.4c-1.6 2-3.5 3-6 3l-1.6-.1h-.1c-1.6-.4-4.4-1.6-8.6-5.7a46 46 0 0 0-11.5-8.6 25.6 25.6 0 0 0-11.1-2.6z" fill="#eee" opacity=".2"/></svg>