<svg viewBox="0 0 128 128" xmlns="http://www.w3.org/2000/svg"><linearGradient id="a" x1="64" x2="64" y1="43.232" y2="84.918" gradientUnits="userSpaceOnUse"><stop stop-color="#616161" offset="0"/><stop stop-color="#505050" offset=".323"/><stop stop-color="#242424" offset=".961"/><stop stop-color="#212121" offset="1"/></linearGradient><path d="M122.32 50.89a6.68 6.68 0 0 0-5-2.24l-2.76.02c-3.33.02-6.17 2.49-6.59 5.74-.33 2.54-1.16 4.68-2.44 6.34-1.59 2.05-3.5 3.02-6 3.04l-1.6-.12c-.05 0-.11-.01-.16-.02-1.56-.31-4.33-1.54-8.6-5.68-4.23-4.09-7.97-6.89-11.44-8.57-3.54-1.71-7.28-2.57-11.13-2.57-8.25 0-12.8 5.23-16.82 9.84-3.3 3.79-6.16 7.07-10.6 7.12l-1.6-.12c-.05 0-.11-.01-.16-.02-1.56-.31-4.33-1.54-8.6-5.68-4.23-4.09-7.97-6.89-11.44-8.57-1.69-.82-3.45-1.45-5.23-1.87-.5-.12-1.01-.18-1.52-.18-1.75 0-3.41.7-4.67 1.96A6.642 6.642 0 0 0 4 54.04v4.15c0 2.95 1.96 5.58 4.78 6.39.52.15 1.03.35 1.51.6.98.51 3.1 1.98 7.59 6.14 4.09 3.78 7.64 6.31 10.85 7.71 3.23 1.42 6.72 2.14 10.35 2.14 9.86 0 15.53-6.25 20.08-11.27 2.77-3.05 5.16-5.69 7.43-5.69 1.45 0 2.77.32 4.04.97.98.51 3.1 1.98 7.59 6.14 4.09 3.78 7.64 6.31 10.85 7.71 3.23 1.42 6.72 2.14 10.35 2.14 7.05 0 13.05-2.97 17.82-8.82 3.74-4.58 6-10.07 6.72-16.3.21-1.86-.39-3.75-1.64-5.16z" fill="url(#a)"/><path d="M66.59 49.83c3.39 0 6.7.77 9.82 2.28 3.17 1.54 6.66 4.16 10.66 8.02 3.86 3.73 7.26 5.91 10.11 6.47.17.03.34.05.52.07l1.6.12c.07.01.15.01.22.01h.03c3.4-.03 6.21-1.45 8.34-4.21 1.62-2.09 2.64-4.7 3.04-7.78.23-1.77 1.8-3.12 3.64-3.13l2.74-.02c1.05 0 2.06.45 2.76 1.24.69.77 1.02 1.8.9 2.82-.65 5.65-2.69 10.61-6.06 14.75-4.17 5.12-9.38 7.71-15.49 7.71-3.22 0-6.29-.63-9.15-1.88-2.9-1.27-6.18-3.61-10.01-7.16-3.86-3.57-6.56-5.74-8.26-6.61-1.71-.88-3.48-1.31-5.41-1.31-3.6 0-6.41 3.09-9.65 6.67-4.37 4.82-9.33 10.29-17.86 10.29-3.22 0-6.29-.63-9.15-1.88-2.9-1.27-6.18-3.61-10.01-7.16-3.86-3.57-6.56-5.74-8.26-6.61-.66-.35-1.34-.63-2.05-.83C8.07 61.25 7 59.81 7 58.19v-4.15c0-.99.38-1.92 1.08-2.62.69-.69 1.59-1.07 2.54-1.07.28 0 .55.03.82.1 1.57.38 3.12.93 4.62 1.66 3.17 1.54 6.66 4.16 10.66 8.02 3.86 3.73 7.26 5.91 10.11 6.47.17.03.34.05.52.07l1.6.12c.07.01.14.01.22.01h.03c5.79-.06 9.37-4.17 12.83-8.15 3.95-4.54 7.68-8.82 14.56-8.82m0-3c-8.25 0-12.8 5.23-16.82 9.84-3.3 3.79-6.16 7.07-10.6 7.12l-1.6-.12c-.05 0-.11-.01-.16-.02-1.56-.31-4.33-1.54-8.6-5.68-4.23-4.09-7.97-6.89-11.44-8.57-1.69-.82-3.45-1.45-5.23-1.87-.5-.12-1.01-.18-1.52-.18-1.75 0-3.41.7-4.67 1.96A6.674 6.674 0 0 0 4 54.04v4.15c0 2.95 1.96 5.58 4.78 6.39.52.15 1.03.35 1.51.6.98.51 3.1 1.98 7.59 6.14 4.09 3.78 7.64 6.31 10.85 7.71 3.23 1.42 6.72 2.14 10.35 2.14 9.86 0 15.53-6.25 20.08-11.27 2.77-3.05 5.16-5.69 7.43-5.69 1.45 0 2.77.32 4.04.97.98.51 3.1 1.98 7.59 6.14 4.09 3.78 7.64 6.31 10.85 7.71 3.23 1.42 6.72 2.14 10.35 2.14 7.05 0 13.05-2.97 17.82-8.82 3.74-4.58 6-10.07 6.72-16.3.22-1.87-.38-3.75-1.64-5.16a6.68 6.68 0 0 0-5-2.24l-2.76.02c-3.33.02-6.17 2.49-6.59 5.74-.33 2.54-1.16 4.68-2.44 6.34-1.59 2.05-3.5 3.02-6 3.04l-1.6-.12c-.05 0-.11-.01-.16-.02-1.56-.31-4.33-1.54-8.6-5.68-4.23-4.09-7.97-6.89-11.44-8.57-3.55-1.7-7.29-2.57-11.14-2.57z" fill="#eee" opacity=".2"/></svg>